<?xml version='1.0' encoding='utf-8'?>
<svg xmlns:svg="http://www.w3.org/2000/svg" version="1.1" id="Layer_1" x="0px" y="0px" viewBox="0 0 500 500" style="width: 188px;" xml:space="preserve" data-imageid="pipeline-31" imageName="Pipeline" class="illustrations_image"><svg:style type="text/css">
	.st0_pipeline-31{fill:#EAC2A7;}
	.st1_pipeline-31{opacity:0.63;fill:url(#SVGID_1_);enable-background:new    ;}
	.st2_pipeline-31{opacity:0.63;fill:url(#SVGID_00000160179602106895528520000002428925925115162253_);enable-background:new    ;}
	.st3_pipeline-31{opacity:0.63;fill:url(#SVGID_00000137130286687107314790000002274324629384346514_);enable-background:new    ;}
	.st4_pipeline-31{opacity:0.63;fill:url(#SVGID_00000060021897825768142520000003461003070705911428_);enable-background:new    ;}
	.st5_pipeline-31{opacity:0.63;fill:url(#SVGID_00000098909511627820371590000002388744079869833603_);enable-background:new    ;}
	.st6_pipeline-31{fill:#6D3209;}
	.st7_pipeline-31{fill:#DF5D00;}
	.st8_pipeline-31{fill:#FF8522;}
	.st9_pipeline-31{fill:#68E1FD;}
	.st10_pipeline-31{fill:#174B6B;}
	.st11_pipeline-31{fill:#08283F;}
	.st12_pipeline-31{fill:#FFFFFF;}
	.st13_pipeline-31{opacity:0.15;fill:#FF8522;enable-background:new    ;}
	.st14_pipeline-31{fill:#FF9F57;}
</svg:style><svg:path class="st10_pipeline-31" d="M 171.8520722942091 262.20449730299595 L 171.85062510837915 262.2079722367597 L 171.83412679188083 262.24801144116987 L 171.83270802521986 262.251491673184 L 171.81651579993672 262.29164218349064 L 171.81512540238393 262.2951274829414 L 171.79923926831597 262.33538744404615 L 171.7978771871565 262.33887758453733 L 171.78229714430373 262.379245141342 L 171.78096332432 262.3827399008866 L 171.76568937268243 262.42321319829284 L 171.76438375630286 262.42671235930163 L 171.74941589588045 262.46728954221123 L 171.74813842332512 262.47079289148087 L 171.73347665411788 262.51147210479553 L 171.7322272635444 262.5149794334867 L 171.71787158555236 262.55575882210815 L 171.7166502131984 262.5592699257225 L 171.7026006264215 262.60014763455246 L 171.70140720674425 262.6036623129091 L 171.68766371118258 262.64463648684927 L 171.68649817699833 262.64815454404976 L 171.67306077265184 262.68922332800196 L 171.671923055271 262.69274457239896 L 171.6587917421397 262.7339061112648 L 171.6576817715 262.7374303554248 L 171.64485654958386 262.7786827941061 L 171.64377425438212 262.7822098547663 L 171.63125512368117 262.8235513381647 L 171.63020043150073 262.82708103619103 L 171.61798739201495 262.86850970920835 L 171.6169602294521 262.8720418695466 L 171.6050532811815 262.9135558770845 L 171.604053573968 262.9170903287118 L 171.59245271691262 262.958687815672 L 171.59148039003654 262.96222439154144 L 171.5801856241963 263.00390350282566 L 171.57924060201879 263.00744203981424 L 171.56825192739376 263.04920092032427 L 171.567334133765 263.05274125916947 L 171.55665155035513 263.094578053807 L 171.55576090872492 263.09812003905114 L 171.54538441653025 263.1400328927179 L 171.5445208500582 263.14357637264067 L 171.53445044907872 263.18556343023835 L 171.53361388073958 263.1891082567942 L 171.52384957097527 263.2311676632246 L 171.52303992366268 263.23471369197347 L 171.51358170511355 263.2768435921383 L 171.51279890174004 263.2803906821766 L 171.5036467744061 263.32258922097753 L 171.50289073800062 263.326137234866 L 171.49404470188185 263.3684025572048 L 171.493315355684 263.3719513608958 L 171.4847754107804 263.4142816116742 L 171.48407267833196 263.4178310744358 L 171.47583882464357 263.46022439855545 L 171.475162629877 263.46377439289427 L 171.46723486740376 263.506228935257 L 171.4665851347272 263.5097793368415 L 171.4589634634692 263.552293242349 L 171.4583401178497 263.5558439299267 L 171.45102453780683 263.59841534348067 L 171.45042750484896 263.60196619880105 L 171.4434180160213 263.64459326530323 L 171.4428472220445 263.6481441730306 L 171.436143824432 263.6908250373827 L 171.43559919654345 263.6943758850161 L 171.42920189014615 263.7371086921199 L 171.4286833563116 263.74065936990695 L 171.42259214112948 263.78344226466413 L 171.42209963024098 263.7869926655155 L 171.41631450627403 263.8298237928279 L 171.4158479482145 263.83337381223026 L 171.41036891546273 263.8762513169994 L 171.4099282411675 263.8798008529287 L 171.40475529963092 263.9227228800564 L 171.40434044114696 263.92627183288926 L 171.39947359082558 263.9692365272773 L 171.39908448136728 263.97278479970004 L 171.39452372226106 264.01579030625004 L 171.39416029626298 264.01933780317376 L 171.38990562837196 264.06238226678755 L 171.38956782153963 264.0659288952519 L 171.38561924486376 264.1090104608312 L 171.38530699422037 264.1125561299192 L 171.3816645087597 264.15567294236564 L 171.38137775269118 264.15921756310814 L 171.3780413584457 264.20236776732355 L 171.37778003674202 264.2059112526105 L 171.37474973371172 264.24909299349656 L 171.37451378760608 264.252635257984 L 171.37178957579096 264.2958466804425 L 171.3715789479958 264.2993876404607 L 171.36916082739586 264.3426268893932 L 171.36897546213638 264.34616646285417 L 171.36686343275161 264.38943168316257 L 171.36670327579648 264.3929697894677 L 171.3648973376269 264.43625912605364 L 171.36476233631618 264.4397956860014 L 171.36326248936177 264.4831072837666 L 171.36315259263225 264.48664221945984 L 171.36195883689305 264.52997422330606 L 171.36187399530104 264.5335074580579 L 171.360986330777 264.5768580128869 L 171.36092649651818 264.58038947113204 L 171.36034492320934 264.6237567218455 L 171.3603100501364 264.627286329043 L 171.36003456804275 264.6706684205426 L 171.3600246116801 264.6741961030872 L 171.36005522080163 264.7175911802747 L 171.36007013835768 264.72111686540313 L 171.3604068386944 264.7645230731803 L 171.36044658907136 264.76804668887934 L 171.3610893806232 264.8114621721479 L 171.3611539244243 264.8149836470649 L 171.36210280719138 264.85840655072656 L 171.3621921067254 264.8619258140732 L 171.36344708070763 264.9053542830296 L 171.3635610999914 264.90887126449746 L 171.3651221651888 264.9523034436505 L 171.36526086994672 264.9558180733158 L 171.36712802635932 264.9992521075671 L 171.3672913840209 265.0027643158027 L 171.3694646316487 265.046198350054 L 171.3696526113433 265.04970806743813 L 171.37213195018626 265.0931402465912 L 171.37234452273574 265.09664740382186 L 171.3751299527939 265.1400758727783 L 171.3753670907027 265.14358040057994 L 171.37845861197604 265.1870033042416 L 171.37872028941882 265.190505133281 L 171.38211790190735 265.2339206165496 L 171.38240409471462 265.2374196773467 L 171.3861077984183 265.2808258851238 L 171.3864184840595 265.2843221079665 L 171.3904282789784 265.3277171851541 L 171.39076343654253 265.3312105000098 L 171.3950793226766 265.3745925915094 L 171.3954389328509 265.3780829279425 L 171.40006091020018 265.42145017865596 L 171.40044495524623 265.42493746574087 L 171.40537302381065 265.46828802056984 L 171.40578148753863 265.4717721868104 L 171.41101564731824 265.51510419065664 L 171.4114485150583 265.5185851639005 L 171.41698876605312 265.56189676166576 L 171.4174460246251 265.5653744690228 L 171.42329236683506 265.6086638056087 L 171.42377400451602 265.6121381733725 L 171.4299264379412 265.6554033936809 L 171.43043244443015 265.6588743472447 L 171.4368909690705 265.70211359617724 L 171.43742133545166 265.7055810599579 L 171.44418595130716 265.7487924824163 L 171.4447406700109 265.7522563797759 L 171.4518113770816 265.79543812066197 L 171.4523904418427 265.7988983738288 L 171.4597672401286 265.8420485780442 L 171.4603706459432 265.8455051080389 L 171.46805353544426 265.8886219204853 L 171.46868127852426 265.89207464704515 L 171.47667025924054 265.9351562126244 L 171.4773223369657 265.9386050541291 L 171.48561740889713 265.9816495177429 L 171.486293819766 265.98509439114446 L 171.4948949829126 266.0280998976945 L 171.49559572649028 266.03154071844386 L 171.5045029808521 266.07450541283185 L 171.50522805771627 266.0779420948083 L 171.51444140329323 266.12086412193605 L 171.51519081497943 266.1242965773831 L 171.5247102517716 266.16717408215226 L 171.52548400071407 266.17060222160427 L 171.5353095287214 266.21343334891657 L 171.5361076181947 266.2168570811393 L 171.54623923741724 266.2596399758965 L 171.54706167147341 266.2630592078178 L 171.55749938191113 266.30579201492156 L 171.5583461653169 266.30920665157174 L 171.56908996696978 266.35188751592386 L 171.56996110514066 266.35529746037344 L 171.58101099800874 266.3979245268756 L 171.58190649694174 266.4013296801759 L 171.593262481025 266.44390109372983 L 171.59418234722932 266.44730135485526 L 171.60584442252778 266.4898152603628 L 171.60678866295345 266.49321052615306 L 171.618756829467 266.5356650685158 L 171.63899182846774 266.59357547825215 L 171.6542350679228 266.62987789637276 L 171.65530591345862 266.63240865503144 L 171.6707321892767 266.66858863666596 L 171.67181632801964 266.6711120867291 L 171.68742502183466 266.70716963187755 L 171.68852235017988 266.70968559769085 L 171.7043128436257 266.74562070635324 L 171.70542325556877 266.7481290144065 L 171.72139493027936 266.78394168658286 L 171.7225183174684 266.786442165562 L 171.73867055507762 266.8221324012522 L 171.73980680686856 266.8246248820944 L 171.75613898901037 266.86019268129854 L 171.7572879925227 266.86267699724385 L 171.77379950083096 266.898122359962 L 171.77496114100546 266.90059834660497 L 171.7916513571141 266.93592127283694 L 171.7928255167693 266.9383887681724 L 171.80969382231225 266.9735892579184 L 171.81088038220497 266.9760481023908 L 171.8279261588161 267.01112615565063 L 171.8291249976996 267.01357619219647 L 171.84634762701285 267.04853180897027 L 171.84755862169902 267.05097288306314 L 171.86495748534827 267.0858060633509 L 171.8661805107685 267.08823802304227 L 171.88375499038764 267.1229487668439 L 171.88498991965406 267.12537146280044 L 171.90273939687705 267.159959770116 L 171.90398610134693 267.16237305565994 L 171.92190995780769 267.1968389264895 L 171.92316830714566 267.1992426576318 L 171.94126592447805 267.23358609197527 L 171.94253578672055 267.2359801274506 L 171.9608065465585 267.27020112530795 L 171.96208778817788 267.272585326605 L 171.98053107215532 267.3066838879763 L 171.98182355812486 267.3090581193686 L 172.00043874787565 267.34303424425383 L 172.0017423417348 267.3453983728273 L 172.02052881889287 267.3792520612264 L 172.02184338281205 267.38160595690397 L 172.0408005290113 267.41533720881705 L 172.04212592385886 267.4176807443849 L 172.06125312073323 267.45128955981187 L 172.0625892061396 267.4536226109384 L 172.08188583532296 267.4871089898793 L 172.08323246974774 267.489431435137 L 172.10269791287405 267.5227953775919 L 172.10405495367152 267.52510709847496 L 172.12368859237463 267.5583486044438 L 172.12505589586078 267.5606494853853 L 172.14485711177463 267.59376855486795 L 172.14623453329057 267.59605848325054 L 172.16620270804907 267.6290551162472 L 172.16759010202944 267.63133398241933 L 172.1877246172665 267.6642081789299 L 172.18912183730387 267.66647587621486 L 172.2094220746534 267.69922763623936 L 172.21082897356362 267.7014840609428 L 172.23129431465952 267.7341133844812 L 172.23271074454672 267.7363584358987 L 172.2533405710229 267.768865322951 L 172.25476638334436 267.7710989033726 L 172.27556007683472 267.8034833539389 L 172.27699512246565 267.8057053686531 L 172.2979520646041 267.8379673827333 L 172.29939619390154 267.8401777400282 L 172.32051576632202 267.87231731762233 L 172.3219688291865 267.8745159287822 L 172.34325041352284 267.90653306989026 L 172.3447122594642 267.9087198491983 L 172.3661552373504 267.94061455382024 L 172.36762571554684 267.94278941854947 L 172.38922946861678 267.9745616866854 L 172.3907084279798 267.97672455709784 L 172.41247233786737 268.00837438874765 L 172.41395962710018 268.01052518808365 L 172.4358830754393 268.0420525832474 L 172.4373785430989 268.0441912377187 L 172.45946091152348 268.07559619639636 L 172.46096440607877 268.07772263517444 L 172.4832050762227 268.109005157366 L 172.48471644611442 268.111119312571 L 172.50711479961166 268.14227939827657 L 172.50863389330976 268.14438120496357 L 172.53118931179418 268.175418854183 L 172.53271597785476 268.17750825032675 L 172.55542784296026 268.20842346306017 L 172.55696193008316 268.21050038954036 L 172.57982962344366 268.2412931657877 L 172.58137098052566 268.24335756636856 L 172.60439388377506 268.2740279061298 L 172.60594235996584 268.27607972744335 L 172.6291198547381 268.30662763071854 L 172.6306752994928 268.3086668222429 L 172.65400676742175 268.339092289032 L 172.65556903055398 268.34111880307063 L 172.67905385327356 268.3714218333737 L 172.68062278500733 268.37343562503304 L 172.70426034415146 268.40361621884995 L 172.70583579516844 268.4056172460119 L 172.72962547237105 268.4356754033428 L 172.73120729386486 268.4376636266456 L 172.75514847075982 268.46759934749036 L 172.7567365144789 268.4695747302955 L 172.7808285727001 268.49938801465424 L 172.78242269099945 268.5013505230254 L 172.80666501218087 268.5310413708981 L 172.80826505806522 268.5329909735689 L 172.8326570238407 268.5625593849554 L 172.8342628510087 268.5644960532996 L 172.8588038430122 268.59394202820016 L 172.86041530590433 268.5958657362063 L 172.88510470576972 268.6251892746207 L 172.88672165960492 268.6270999988542 L 172.91155884896614 268.65630110078257 L 172.9131811497884 268.65819882035976 L 172.93816551027933 268.68727748580204 L 172.93979301499425 268.68916218235313 L 172.96492392824882 268.7181184113094 L 172.96655649466558 268.71999006894856 L 172.9918333423177 268.7488238614187 L 172.99347082918402 268.75068246670656 L 173.0188929928676 268.7793938226906 L 173.02053525990794 268.7812393646008 L 173.04610212125687 268.80982828409884 L 173.04774902920855 268.81166075398374 L 173.07345996985674 268.8401272369957 L 173.07511138050327 268.8419466285489 L 173.10096578208464 268.8702906750747 L 173.102621558287 268.8720969842926 L 173.12861880243545 268.9003185943324 L 173.13027880816836 268.9021118194818 L 173.1564182765178 268.9302109930355 L 173.15808237689583 268.931991134611 L 173.1843634510802 268.95996787167866 L 173.18603151239034 268.9617349323681 L 173.2124535740435 268.98958923294964 L 173.21412546377152 268.9913432175933 L 173.24068789452738 269.0190750816888 L 173.24236348138737 269.02081599724335 L 173.26906566287988 269.0484254248528 L 173.27074481683687 269.0501532803485 L 173.29758613069993 269.07764027147186 L 173.29926872299663 269.07935507797555 L 173.3262485508641 269.10671963261285 L 173.32793445404627 269.10842140318954 L 173.35505217755212 269.13566352134075 L 173.35674126548707 269.1373522710103 L 173.3839962662652 269.1644719526754 L 173.38568841416563 269.16614769837435 L 173.4130800738499 269.1931449435534 L 173.41477515829553 269.19480770409683 L 173.4423028585199 269.2216825127898 L 173.4440007574726 269.2233323088265 L 173.47166387987096 269.25008468103346 L 173.47336447269677 269.25172153501 L 173.501162398903 269.27835147073085 L 173.5028655663871 269.2799754068488 L 173.53079767803516 269.30648290608355 L 173.5325033023972 269.3080939502587 L 173.56056898112098 269.3344790130074 L 173.56227694603243 269.33607719283185 L 173.59047557346582 269.3623398190945 L 173.5921857640613 269.36392516379385 L 173.62051672183824 269.3900653535704 L 173.6222290247287 269.3916378939638 L 173.65069169448307 269.41765564725426 L 173.6524059977704 269.41921541571685 L 173.68099976113612 269.44511073252124 L 173.68271595441905 269.4466577629396 L 173.71144019303003 269.47243064325795 L 173.71315816741944 269.473964970995 L 173.7420122629096 269.49961541482725 L 173.74373191103228 269.5011370766781 L 173.7727152450355 269.5266650840243 L 173.77443646104604 269.52817411818006 L 173.80354841519625 269.5535796890402 L 173.80527109478305 269.55507613504767 L 173.83451105071418 269.5803592694217 L 173.83623509110325 269.5818431681423 L 173.86560243044914 269.6070038660303 L 173.8673277304146 269.60847525960565 L 173.89682183480923 269.63351352100756 L 173.89854829467154 269.6349724528155 L 173.92816854574878 269.6598882777313 L 173.92989606738362 269.6613347923522 L 173.9596418467774 269.6861281807819 L 173.9613703336144 269.6875623239573 L 173.99124102295863 269.71223327590104 L 173.9929703799886 269.7136550945002 L 174.02296536091714 269.7382036099578 L 174.02469549468677 269.7396131519351 L 174.0548141488336 269.76403923090663 L 174.05654496745117 269.7654365452689 L 174.06644258361132 269.7733907294925 L 174.073488628715 269.7803312290077 L 174.07527397883956 269.78208106360654 L 174.0875462784091 269.79404923012015 L 174.089331300151 269.7957813738417 L 174.10166296286528 269.80768832211226 L 174.1034475318363 269.80940291526696 L 174.11583793932925 269.82124864529453 L 174.1176219351521 269.822945829225 L 174.1300704690576 269.8347303410095 L 174.13185377532278 269.8364102579936 L 174.14435981727482 269.84813355153506 L 174.146142321499 269.8497963446948 L 174.15870525313142 269.86145841999326 L 174.16048684672003 269.8631042332101 L 174.17310604966676 269.8747050902655 L 174.17488662786386 269.876334068088 L 174.1875614837588 269.8878737069004 L 174.18934094561078 269.8894859944678 L 174.20207083608784 269.9009644150371 L 174.2038490843876 269.9025601579879 L 174.21663339108068 269.9139773603142 L 174.21841033233488 269.9155567047194 L 174.23124843687793 269.9269126888027 L 174.23302398125205 269.9284757810809 L 174.2459152652789 269.9397705469211 L 174.24768932655158 269.94131753376655 L 174.2606331716962 269.9525510813637 L 174.2624056672144 269.9540821096759 L 174.27540145511074 269.96525443903005 L 174.2771723057428 269.96676965584544 L 174.29021941802466 269.97788076695656 L 174.29198854811173 269.97938031938094 L 174.30508636641312 269.990430212249 L 174.30685370371796 269.99191424739024 L 174.32000160967272 270.00290292201527 L 174.32176708533743 270.00437158692574 L 174.3349644605795 270.0152990433078 L 174.33672800907578 270.01675248492313 L 174.34997423523905 270.02761872306206 L 174.35173579431472 270.0290570881388 L 174.36503025303313 270.03986210803475 L 174.3667897636729 270.0412855431017 L 174.38013183658032 270.0520293447546 L 174.38188924295136 270.0534379960543 L 174.39527831168172 270.06412057946415 L 174.39703356108677 270.0655145929014 L 174.41046900727397 270.0761359580683 L 174.41222205010953 270.0775154791658 L 174.4257032553875 270.08807562608956 L 174.42745404508352 270.08944079992966 L 174.44098039108613 270.0999397286104 L 174.44272888407627 270.101290699803 L 174.45629975243747 270.1117284102407 L 174.45804590809712 270.1130653228673 L 174.4716606804508 270.123441815062 L 174.4734044610572 270.1247648126392 L 174.48706251903727 270.1350800865909 L 174.4888038897289 270.1363893120336 L 174.50250461496927 270.1466433677422 L 174.50424354368522 270.14793896331383 L 174.5179863178198 270.1581318007794 L 174.5197227752719 270.1594139080679 L 174.53350697993457 270.16954552729044 L 174.53524093955227 270.170814287165 L 174.54906595637698 270.1808846881445 L 174.55079739426523 270.18214024072336 L 174.56466260488588 270.1921494234598 L 174.56639149978233 270.19339190807847 L 174.58029628583282 270.2033398725719 L 174.58202261906953 270.204569427756 L 174.59596636218376 270.21445617400633 L 174.59769011763345 270.2156729374338 L 174.61167219944534 270.22549846544115 L 174.61339336349442 270.226702573925 L 174.6274131656379 270.23646688368933 L 174.62913172713195 270.2376584731418 L 174.6431886312409 270.2473615646631 L 174.6449045814579 270.24854077007967 L 174.65899796916622 270.2581826433579 L 174.6607113017609 270.2593495987825 L 174.6748405547025 270.2689302538177 L 174.67655126568607 270.2700850923327 L 174.69071576549487 270.2796045291248 L 174.69242385317912 270.28074738281765 L 174.70662298148906 270.2902056013668 L 174.70832844646256 270.2913366013188 L 174.7225615849075 270.3007336016249 L 174.724264429996 270.30185287789 L 174.73853096020989 270.311188659953 L 174.74023119043053 270.3122963415332 L 174.75453049404726 270.32157090535327 L 174.75622811659156 270.32266712019344 L 174.77055957524502 270.3318804657704 L 174.77225459942605 270.33296534073 L 174.78661759475017 270.342117468064 L 174.78831003198496 270.3431911289124 L 174.80270394561367 270.35228203800335 L 174.80439380938296 270.3533446094004 L 174.8188180229501 270.36237430024823 L 174.8205053287637 270.36342590572957 L 174.83495922390324 270.37239437833443 L 174.83664398927925 270.37343514030505 L 174.85112694762506 270.3823423946668 L 174.85280919204823 270.38337243438247 L 174.86732059523428 270.39221847050123 L 174.86900034013755 270.3932379080643 L 174.88353956979768 270.40202272594 L 174.88521683852625 270.40303168028447 L 174.8997832762944 270.4117552799172 L 174.9014580940868 270.41275386880454 L 174.9160511215969 270.42141625019417 L 174.91772351554272 270.42240459019547 L 174.93234251442863 270.4310057533421 L 174.93401251346467 270.43198395984274 L 174.9486568653603 270.4405239047463 L 174.95032450022853 270.4414920919285 L 174.96499358676783 270.44997081858907 L 174.96665888999866 270.4509290994292 L 174.9813520928155 270.45934660784667 L 174.98301509870456 270.460295094109 L 174.9977317994329 270.4686513842834 L 174.99939254401593 270.4695901865125 L 175.01413212428963 270.47788525844396 L 175.01579064532956 270.47881448596416 L 175.03055248678257 270.4870483396526 L 175.03220882373736 270.4879681005565 L 175.04699230800355 270.49614073600185 L 175.04864650201617 270.4970511371515 L 175.06345101072947 270.50516255435383 L 175.06510310460374 270.5060637013734 L 175.07992801939804 270.51411390033275 L 175.08157805758964 270.5150058976097 L 175.09642276009887 270.5229948783259 L 175.09807078868243 270.52387782899916 L 175.11293466054047 270.5318055914724 L 175.11458072721487 270.53267959744073 L 175.12946315005567 270.5405461416709 L 175.1311073041115 270.5414113035809 L 175.14600765956897 270.54921662956804 L 175.147649951883 270.5500730468164 L 175.162567621591 270.5578171545605 L 175.1642081046117 270.5586649252913 L 175.17914247020417 270.5663478147924 L 175.18078119794131 270.5671870358959 L 175.19573164105213 270.574808707154 L 175.19736866906186 270.5756394742636 L 175.212334571325 270.5831999272786 L 175.21396995670048 270.58402233476954 L 175.2289506997498 270.5915215695415 L 175.2305845011145 270.5923357105311 L 175.2455794665839 270.59977372706 L 175.2472117440787 270.60057969340437 L 175.2622203136021 270.6079564916903 L 175.2638511288861 270.6087543739874 L 175.27887268409742 270.6160699540302 L 175.2805021003261 270.6168598416114 L 175.29553602285924 270.62411420341124 L 175.29716410469715 270.6248961843496 L 175.31220977618605 270.6320893279064 L 175.31383658978663 270.63286348900823 L 175.32889339186517 270.63999541432196 L 175.33051900487408 270.6407618411297 L 175.34558631917616 270.6478325482004 L 175.34721080073035 270.6485913249924 L 175.3622880088899 270.6556008138201 L 175.36391142961006 270.65635202360744 L 175.37899791326097 270.663300294192 L 175.38062034524748 270.66404401871625 L 175.39571548602368 270.67093107105785 L 175.39733700286874 270.6716673907957 L 175.4124401824041 270.6784932248943 L 175.4140608591854 270.6792222190534 L 175.4291714591139 270.6859868349089 L 175.43079137238647 270.6867085814219 L 175.44590877434194 270.6934119790344 L 175.44752800216222 270.6941265545678 L 175.46265158777862 270.7007687339372 L 175.46427020968312 270.7014762138783 L 175.47939936059433 270.70805717500474 L 175.48101745762668 270.7087576334704 L 175.4961515554666 270.7152773763538 L 175.49776921017218 270.71597088618347 L 175.51290763657477 270.7224294108238 L 175.5145249330002 270.72311604357463 L 175.52810538460866 270.72885356346717 L 175.533537167191 270.73346048123796 L 175.53702592159925 270.736392207346 L 175.54364017143357 270.7418991696329 L 175.54711053074192 270.74476222065107 L 175.55377981515838 270.7502141483558 L 175.55723015214866 270.7530092220133 L 175.56395385278117 270.75840673350206 L 175.56738260329462 270.76113457612354 L 175.57416010177704 270.76647828976235 L 175.5775657649646 270.7691396924453 L 175.58439644293085 270.77443022660026 L 175.58777758131865 270.7770260214896 L 175.5946608204027 270.7822639945267 L 175.5980160597342 270.78479505115536 L 175.6049512415699 270.7899810814409 L 175.60827927048913 270.79244830318765 L 175.6152657767104 270.7975830090876 L 175.6185653462146 270.7999873296954 L 175.62560255845537 270.80507132957587 L 175.62887248123045 270.8074137098148 L 175.6359597811246 270.8124476220419 L 175.63919893070795 270.81472904647126 L 175.64633569988942 270.81971348941096 L 175.6495430096851 270.8219349632557 L 175.65672862978775 270.8268705552743 L 175.65990309200794 270.8290331014618 L 175.66713694466574 270.83392046092524 L 175.6702776090924 270.8360251172031 L 175.67755907593923 270.8408648624775 L 175.68066504863071 270.8429126786934 L 175.68799351130048 270.8477054281449 L 175.69106395322763 270.8496974636688 L 175.69843879335423 270.8544438356634 L 175.7014729189038 270.8563811569051 L 175.70889351812113 270.86108176980895 L 175.71189059359693 270.86296544790906 L 175.71935633353897 270.86762092008826 L 175.72231567557463 270.8694520287185 L 175.7298259378752 270.87406297853914 L 175.7327469118207 270.8758425918443 L 175.7403010781138 270.8804096376724 L 175.7431830963682 270.8821388283288 L 175.75078054828765 270.88666258853056 L 175.7536230686441 270.8883424259533 L 175.76126318782386 270.8928235188947 L 175.7640657117439 270.8944550675362 L 175.77174787981784 270.8988941115835 L 175.7745099507623 270.90047842939106 L 175.7822335493644 270.9048760429102 L 175.78495475105072 270.9064141798578 L 175.7927191618148 270.9107709812149 L 175.79539911654365 270.91226397798573 L 175.8032037211037 270.9165805855469 L 175.80584208804254 270.9180294722941 L 175.81368626803243 270.9223065044254 L 175.81628274154514 270.923712299654 L 175.82416587859876 270.9279503747216 L 175.82672018658602 270.92931408426557 L 175.8346416623373 270.93351382063554 L 175.83715356460252 270.9348364367305 L 175.84511276068537 270.93899845276883 L 175.84758204730136 270.9402809532017 L 175.8555783453497 270.94440586727455 L 175.8580048351048 270.9456492146448 L 175.86603761675252 270.9497376451183 L 175.86842115559415 270.95094278616153 L 175.87648980247516 270.95499535140175 L 175.87883026198602 270.9561632163893 L 175.88693415573422 270.9601805347623 L 175.8892314316648 270.9613120369825 L 175.89736995391414 270.9652947268544 L 175.89962396474337 270.9663907621567 L 175.90779649712772 270.9703394418936 L 175.91000718267222 270.9714008883 L 175.9182131068255 270.975316176268 L 175.9203804268752 270.9763438936372 L 175.9286191244313 270.98022640820227 L 175.93074305743087 270.98122123795065 L 175.93901391002373 270.985071597479 L 175.94109445182025 270.9860343623654 L 175.94939684108377 270.98985318522307 L 175.95143400367434 270.9907846891601 L 175.95976731124242 270.9945725937132 L 175.96176112160558 270.99547362164276 L 175.97012472911214 270.99923122625745 L 175.97207522806275 271.0001025440575 L 175.98046851714167 271.00383046709976 L 175.98237575821992 271.0046728215248 L 175.99079811050515 271.0083716813608 L 175.99266215893056 271.00918580002707 L 176.00111295605598 271.01285621502285 L 176.0029338877045 271.01364280641656 L 176.01141251130403 271.01728539493826 L 176.01319041174196 271.01804514845844 L 176.0216962434495 271.0216605288721 L 176.02343120698092 271.02239411488864 L 176.0319636284304 271.0259829055604 L 176.03365575722933 271.0266909755137 L 176.04221415005463 271.0302537948096 L 176.04386355328216 271.0309369813081 L 176.0524472991172 271.0344744475943 L 176.05405409212463 271.0351333645514 L 176.06266257260333 271.03864609619393 L 176.06422687613696 271.0392813389658 L 176.0728594728932 271.04276995433077 L 176.07438141236202 271.0433820998797 L 176.08303750702976 271.0468472173332 L 176.084517211788 271.0474368243953 L 176.0931961860011 271.05087906230335 L 176.09463378866553 271.0514466715672 L 176.1033350240579 271.054866648296 L 176.10473065988532 271.05541278260114 L 176.1134535380909 271.0588111165168 L 176.11480734434917 271.05933628104424 L 176.12355124700187 271.0627135905128 L 176.12486336239562 271.06321827299126 L 176.13362767112932 271.06657517637876 L 176.134898235246 271.0670598472918 L 176.1436823316946 271.07039696296437 L 176.14491148449108 271.0708620757651 L 176.15371475028854 271.07418002208885 L 176.1549026315817 271.0746260134084 L 176.16372444836188 271.0779254087495 L 176.16487119738105 271.07835269861977 L 176.1737109467779 271.08163416134414 L 176.17481670169403 271.08204315340197 L 176.1836737653414 271.0853073018758 L 176.18473866287604 271.0856983835876 L 176.19361242240788 271.08894583617695 L 176.19463659742004 271.0893193790443 L 176.2035264344703 271.0925507541153 L 176.20451001959336 271.09290711388826 L 176.21341531579586 271.09612302980696 L 176.21435844108245 271.0964625466893 L 176.22327857807116 271.09966362182183 L 176.22418137067228 271.0999866206773 L 176.2331157300811 271.1031734733897 L 176.23397831390753 271.1034802639302 L 176.24292627737032 271.1066535125886 L 176.24374877284862 271.1069443895844 L 176.25270972199937 271.11010465255487 L 176.25349224575265 271.110379896006 L 176.2624655622252 271.1135277916547 L 176.26320822684974 271.1137876669839 L 176.27219329227802 271.11692381367686 L 176.2728962060917 271.1171685719008 L 176.28189240210963 271.120293588004 L 176.28255566891733 271.120523465897 L 176.2915623771588 271.1236379697768 L 176.29218609608353 271.1238531900459 L 176.30120269818246 271.12695780006817 L 176.30178696342824 271.1271585714914 L 176.31081284101856 271.1302539060223 L 176.31135774172 271.13044042360394 L 176.32039227643557 271.1335271010096 L 176.32089789649234 271.13369954611807 L 176.33040688788307 271.1369367252585 L 176.33988417050205 271.1401527338637 L 176.34932919330174 271.14334833149724 L 176.35874139947197 271.1465242645542 L 176.3681202263258 271.1496812663525 L 176.377465105221 271.15282005722213 L 176.38141378884504 271.1541438493458 L 176.38813881970168 271.15837812803335 L 176.39018851614247 271.15966176585675 L 176.39927942523337 271.16532445333763 L 176.40134778867846 271.16660585318976 L 176.4104386977694 271.1722073224276 L 176.41252580685233 271.17348628108897 L 176.42161671594323 271.17902653208375 L 176.42372264599297 271.1803028427438 L 176.43281355508387 271.18578187549554 L 176.4349383779886 271.1870553277596 L 176.4440292870795 271.19247314226834 L 176.44617307116965 271.19374352218136 L 176.45526398026055 271.199100118447 L 176.4574267901559 271.20036720849964 L 176.46651769924682 271.2056625865223 L 176.46869959574866 271.2069261656885 L 176.47779050483956 271.2121603254681 L 176.47999154477893 271.21342016922097 L 176.48908245386983 271.2185931107576 L 176.49130268998695 271.2198489911082 L 176.50039359907785 271.22496071440173 L 176.50263307986464 271.2262123999214 L 176.51172398895554 271.2312629049719 L 176.5139827585477 271.2325101608469 L 176.52307366763864 271.2374994476544 L 176.52535176565263 271.2387420357143 L 176.53444267474353 271.24367010427875 L 176.5367401361546 271.2449077830527 L 176.5458310452455 271.2497746333741 L 176.54814790023926 271.2510071581367 L 176.55723880933016 271.2558127902151 L 176.55957508317815 271.25703991305 L 176.56866599226908 271.2617843268853 L 176.57102170516256 271.2630057967316 L 176.58011261425347 271.2676889923239 L 176.5824877812009 271.26890455506026 L 176.5915786902918 271.2735265324095 L 176.59397332094832 271.2747359309078 L 176.60306423003922 271.27929669001406 L 176.60547832859328 271.2804996642272 L 176.61456923768418 271.28499920509034 L 176.6170028026935 271.2861954921185 L 176.62609371178442 271.29063381473867 L 176.6285467360677 271.29182314892887 L 176.6376376451586 271.296200253306 L 176.64011011564074 271.2973823663324 L 176.64920102473164 271.30169825246645 L 176.65169292231496 271.3028728734285 L 176.66078383140587 271.3071275413195 L 176.66329513083815 271.30829439684294 L 176.67238603992908 271.3124878464909 L 176.67491670966663 271.31364666083056 L 176.68400761875753 271.31777889223554 L 176.68655762085052 271.3189293873935 L 176.69564852994142 271.32300040055543 L 176.69821781988955 271.32414229638897 L 176.70730872898045 271.3281520913078 L 176.70989725560568 271.32928510565057 L 176.71898816469658 271.33323368232647 L 176.72159587005456 271.3343575311297 L 176.7306867791455 271.3382448895625 L 176.73331359835294 271.33935928700447 L 176.74240450744384 271.34318542719427 L 176.74505036861592 271.3442900858409 L 176.75414127770682 271.3480550077876 L 176.7568061017976 271.34914963871535 L 176.7658970108885 271.35285334241905 L 176.7685807116216 271.35393765538015 L 176.77767162071254 271.3575801408408 L 176.78037410444338 271.35865384440285 L 176.78946501353428 271.3622351116205 L 176.7921861791787 271.3632979133375 L 176.80127708826961 271.36681796231204 L 176.80401682717226 271.3678695688737 L 176.81310773626316 271.37132839960526 L 176.81586593214323 271.37236851702113 L 176.82495684123413 271.37576612950966 L 176.82773337007077 271.37679446327155 L 176.8368242791617 271.38013085751703 L 176.83961900912263 271.3811471127819 L 176.84870991821353 271.3844222887843 L 176.85152270957855 271.3854261705571 L 176.86061361866945 271.3886401283165 L 176.86344432376848 271.3896313416411 L 176.87253523285938 271.39278408115746 L 176.87538369598235 271.3937623312998 L 176.88447460507328 271.39685385257314 L 176.8873406624462 271.39781884522966 L 176.8964315715371 271.40084914825997 L 176.89931505124648 271.40180058975005 L 176.90840596033738 271.4047696745373 L 176.91130668229167 271.40570727200986 L 176.92039759138257 271.4086151385541 L 176.9233153672885 271.40953860020045 L 176.93240627637942 271.4123852485016 L 176.93534090967964 271.41329428375707 L 176.94443181877054 271.41607971381524 L 176.94738310466346 271.41697403358773 L 176.95647401375436 271.41969824540286 L 176.95944173914538 271.4205775622806 L 176.96853264823628 271.42324055585266 L 176.9715165917446 271.42410458432937 L 176.98060750083553 271.42670635965845 L 176.98360743280446 271.42755481635953 L 176.99269834189536 271.4300953734455 L 176.99571402437596 271.43092797734647 L 177.00480493346686 271.43340731618946 L 177.00783612027138 271.43422378885367 L 177.01692702936228 271.4366419094536 L 177.0199734660634 271.4374419752538 L 177.02906437515432 271.4397988776107 L 177.0321257991333 271.44058226396373 L 177.0412167082242 271.4428779480776 L 177.04429284871415 271.4436443856752 L 177.05338375780505 271.44587885154607 L 177.05647433595357 271.4466280745901 L 177.06556524504447 271.4488013222179 L 177.06866997396543 271.44953306865 L 177.07776088305636 271.4516450980347 L 177.0808794678953 271.45235910976777 L 177.0899703769862 271.45440992090954 L 177.09310251504715 271.45510594407045 L 177.10219342413805 271.4570955369691 L 177.10533880491474 271.4577733221168 L 177.11442971400564 271.4597016967724 L 177.11758801932598 271.46036099913835 L 177.1266789284169 271.462228155551 L 177.1298498325472 271.4628687352667 L 177.1389407416381 271.46467467343626 L 177.1421239113926 271.4652962957583 L 177.1512148204835 271.46704101568486 L 177.15440991536408 271.46764345122205 L 177.16350082445499 271.46932695290553 L 177.16670749678752 271.46990997784064 L 177.17579840587845 271.47153226128114 L 177.17901630097603 271.4720956575927 L 177.18810721006693 271.4736567227901 L 177.19133596635905 271.4742002784631 L 177.20042687544995 271.4757001254175 L 177.20366612469064 271.4762236346625 L 177.21275703378154 271.4776622633739 L 177.2160064011959 271.4781655268293 L 177.22509731028683 271.4795429372976 L 177.22835641476863 271.48002576223513 L 177.23744732385953 271.48134195446045 L 177.2407157781817 271.48180415498507 L 177.2498066872726 271.4830591289673 L 177.2530840982564 271.48350052620515 L 177.26217500734734 271.48469428194437 L 177.26546097611828 271.4851147042357 L 177.27455188520918 271.48624724173186 L 177.27784600738673 271.48664652480755 L 177.28693691647763 271.4877178440607 L 177.2902387824182 271.4880958312181 L 177.2993296915091 271.4891059322282 L 177.30263888653803 271.4894624744983 L 177.31172979562896 271.4904113572654 L 177.31504590029695 271.49074631357394 L 177.3188039630299 271.4911132624603 L 177.25173603300294 271.4593001940509 L 177.24509321905433 271.4560889823389 L 177.17828566797988 271.4231831460967 L 177.17169905020037 271.41987839468607 L 177.10546781632297 271.38603449708336 L 177.0989385999308 271.3826372586772 L 177.03329172200966 271.3478639568393 L 177.02682106498582 271.34437528143786 L 176.96176658178013 271.3086812324901 L 176.955355596832 271.3051021655306 L 176.89090154710095 271.2684960265982 L 176.88455130371023 271.2648276072556 L 176.82070572621296 271.2273180354638 L 176.8144172527516 271.2235612951105 L 176.75118818624736 271.1851569475847 L 176.74496247215308 271.1813129084124 L 176.68235795540105 271.1420224422777 L 176.67619595340489 271.1380921160843 L 176.6142240251642 271.0979241884661 L 176.6081266535506 271.09390857560135 L 176.54679535258052 271.0528718436249 L 176.54076349748004 271.0487719321012 L 176.48008086253967 271.0068750528918 L 176.4741153802359 271.00269181765395 L 176.41408945008448 270.95994344833684 L 176.40819116933199 270.9556778506925 L 176.3488299827287 270.91208664839303 L 176.34299970706573 270.9077396355979 L 176.28431130276974 270.8633142574413 L 176.27854981282542 270.8588867624426 L 176.22054222959594 270.8136358655541 L 176.214850285375 270.80912880688345 L 176.15753156197118 270.7630610483884 L 176.151909905112 270.7584753302038 L 176.09528808029307 270.7115993672274 L 176.08973743629443 270.7069358795044 L 176.03382054881953 270.65926036917205 L 176.02834162921732 270.6545199880307 L 175.97313771784567 270.60605358746756 L 175.9677312223492 270.6012371756453 L 175.91324832583996 270.5519885419767 L 175.90791494440262 270.5470969494286 L 175.85416110151502 270.4970747397798 L 175.84890151634767 270.49210880441365 L 175.79588476584087 270.44132167590993 L 175.790699653353 270.4362822244449 L 175.73842803398617 270.3847388342116 L 175.73331806664987 270.3796266831569 L 175.68179961718224 270.32733568831924 L 175.67676546531868 270.3221516450726 L 175.6260082245094 270.26912170275585 L 175.6210505579835 270.2638665668093 L 175.57106256459178 270.21010633413874 L 175.56618205441796 270.2047808983941 L 175.51697134720297 270.15029903249507 L 175.51216866704985 270.1449040846771 L 175.46374328477077 270.08970924267476 L 175.45901911236774 270.0842455668446 L 175.4113870937838 270.02834640586434 L 175.4067421122156 270.02281478401846 L 175.35991149608594 269.96621996118546 L 175.3553463949808 269.96062117494427 L 175.3093252200646 269.9033393473839 L 175.30484069666028 269.89767417975304 L 175.25963700171678 269.8397140045906 L 175.2552337618131 269.8339832418018 L 175.21085558560142 269.7753533761624 L 175.20653434438452 269.7695578095761 L 175.1629897256639 269.7102669105852 L 175.15875120840403 269.7044073386549 L 175.11604818593364 269.6444640634377 L 175.11189312855313 269.638541293729 L 175.07003974109216 269.57795429941075 L 175.06596889059773 269.57196915066646 L 175.02497317690538 269.5107470943725 L 175.020987291683 269.5047003986166 L 174.98085729051843 269.44285193747214 L 174.9769571404892 269.4367445421487 L 174.93770089061158 269.37427833327905 L 174.9338872572434 269.36811110341426 L 174.89551279741195 269.3050358039447 L 174.89178647358727 269.29880962432765 L 174.85430184256117 269.2351338913835 L 174.85066363229618 269.2288496687548 L 174.8140768688346 269.16458215946125 L 174.81052758685135 269.15824082470493 L 174.7748467297135 269.09339019618733 L 174.7713872008597 269.08699270651283 L 174.73662028880477 269.0215676158964 L 174.73325134732482 269.0151149570076 L 174.69940641911197 268.9491240614177 L 174.6961289077627 268.94261724965133 L 174.66321400215114 268.8760692062132 L 174.66002877116944 268.86950929064983 L 174.62805192691835 268.8024127564887 L 174.62495983283384 268.79580082101387 L 174.59392908870237 268.7281644532551 L 174.59093099300014 268.72150161856774 L 174.56085438774755 268.6533340743365 L 174.5579511553826 268.6466214998979 L 174.528836727768 268.5779314363196 L 174.52602922552845 268.5711703222202 L 174.4978850143111 268.50196639642 L 174.49517410904025 268.49515798517155 L 174.46800815297928 268.42544885427475 L 174.46539470965195 268.4185944324998 L 174.43921504750656 268.34838875363175 L 174.4366999271686 268.3414896536527 L 174.41151459769802 268.2707960839386 L 174.40909865527237 268.263853685251 L 174.38491569723573 268.19268088181616 L 174.38259977919805 268.18569661243333 L 174.35942723135454 268.114053232403 L 174.35721217328788 268.10702857006834 L 174.3350580743967 268.0349232705679 L 174.33294469842866 268.02785974381663 L 174.31181708724904 267.95530118197127 L 174.30980619938214 267.9482003710408 L 174.2897131146732 267.8751972039758 L 174.28780550201307 267.8680607415436 L 174.26875498253403 267.7946216263843 L 174.26695141042853 267.7874511981369 L 174.24895149493855 267.7135847920085 L 174.2472527040345 267.70638213702097 L 174.23031143129282 267.63209709704876 L 174.2287181345234 267.6248640079753 L 174.21284354328915 267.5501689912846 L 174.2113564228015 267.5429073143449 L 174.19655655183388 267.4678109780609 L 174.19517625587096 267.46052261282273 L 174.1814591439292 267.38503361407084 L 174.18018628367776 267.3777205130156 L 174.167559969521 267.301847508921 L 174.16639511593934 267.2945116767911 L 174.15486763832675 267.21826332447904 L 174.15381131896723 267.2109068174009 L 174.14339071665805 267.1342917739968 L 174.1424434124984 267.1269166983769 L 174.1331377242518 267.04994362100587 L 174.13229986655097 267.0425521321957 L 174.12411713112613 266.96522967798313 L 174.12338909832005 266.95782397871284 L 174.11633735447614 266.88016080478394 L 174.11571946913 266.8727431433648 L 174.1098067556262 266.7947479068449 L 174.1092992814587 266.78732057514077 L 174.10453363705426 266.70900193315515 L 174.10413677605086 266.70156726432714 L 174.1007557011248 266.6279312877902 L 174.09288062732534 266.50859287764524 L 174.09246249799529 266.5014870959261 L 174.08602592535118 266.3769973252472 L 174.08571053461577 266.36992739543155 L 174.08103445023355 266.2453022025786 L 174.08082008774562 266.2382683536615 L 174.07789707123214 266.11353185491214 L 174.07778208554248 266.10653422393165 L 174.0766047165047 265.9817105355634 L 174.07658751816626 265.9747491734054 L 174.07714837621103 265.8498624116959 L 174.07722744053368 265.8429372888177 L 174.07951910526796 265.71801157004444 L 174.0796929747456 265.71112258211116 L 174.08370802577625 265.5861820225517 L 174.08397531220686 265.579328995966 L 174.08970632914082 265.4543977118979 L 174.0900657154603 265.4475804092232 L 174.09750527790445 265.322682516924 L 174.09795551975432 265.31590064218733 L 174.10709620731558 265.1910602579346 L 174.10763613436347 265.18431346181063 L 174.11847052664874 265.059554701882 L 174.11909904367985 265.05284258675056 L 174.13161972029604 264.92818956742354 L 174.1323358080934 264.92151169230374 L 174.14653534864738 264.79698852985587 L 174.14733806467692 264.7903444152133 L 174.16320904877563 264.6659752259222 L 174.1640975276911 264.6593643583548 L 174.18163253494146 264.535173258498 L 174.18260598892394 264.52859509530003 L 174.2017975989328 264.40460620115505 L 174.20285531787735 264.398060174764 L 174.22369611025164 264.2742976026084 L 174.22483746181308 264.2677831249399 L 174.24732001615973 264.14427099105126 L 174.2485444456683 264.13778745772817 L 174.27266134159422 264.01454987838406 L 174.2739683718507 264.00809667286205 L 174.29971218896276 263.8851577643401 L 174.30110141992145 263.87873426194034 L 174.32846473782655 263.75611814051797 L 174.32993584617296 263.7497237123714 L 174.358911244478 263.62745449432623 L 174.3604639831081 263.62108851123713 L 174.39104404142003 263.49919031284674 L 174.3926782388251 263.4928521490833 L 174.4248555367508 263.3713490866253 L 174.42657109631259 263.36503812364407 L 174.46033821345893 263.2439543133959 L 174.46213511265734 263.23766994350666 L 174.4974846286313 263.1170295017459 L 174.4993629181661 263.11077113172917 L 174.53628741257452 262.99059817473346 L 174.53824721540258 262.98436522941074 L 174.5767392678524 262.8646838734576 L 174.57878077813905 262.8584757992277 L 174.61883296823714 262.73931016059464 L 174.6209564502207 262.73312642894075 L 174.662561357574 262.61450062390537 L 174.66476714434086 262.60834073487933 L 174.70791734855626 262.49027887971926 L 174.71020584072338 262.4841423654104 L 174.75489392140776 262.3666685764031 L 174.7572655857082 262.3605550043953 L 174.80348412246855 262.24369339781833 L 174.80593949023378 262.2376023746462 L 174.8536810626769 262.12137706677714 L 174.85622072821178 262.1153082413772 L 174.90547791594463 261.99974334849367 L 174.90810253478531 261.9936964156648 L 174.9588679174148 261.8788160540443 L 174.9615782044642 261.872790757913 L 175.0138443615972 261.7586190438331 L 175.01664108912763 261.7526151813297 L 175.07040060037107 261.63917623106795 L 175.0732845958853 261.6331936554163 L 175.12853004084607 261.5205115852503 L 175.131502184786 261.5145502094698 L 175.188226143071 261.40264913567705 L 175.1912873663645 261.3967089360969 L 175.24948241758068 261.28561297495503 L 175.25263369901248 261.27969399474205 L 175.3122924227667 261.1694272625286 L 175.31553478616487 261.1635296152215 L 175.37664976206406 261.05411622821396 L 175.37998427328586 261.04824010126487 L 175.4425480809369 260.93970417574087 L 175.4459758446441 260.9338498340555 L 175.50998106365392 260.8262154862926 L 175.5135032198619 260.8203832757643 L 175.57894242983735 260.71367462204006 L 175.58256015022747 260.7078649730667 L 175.64942593077552 260.60210612965864 L 175.6531404147541 260.5963195606364 L 175.72142534548163 260.4915346438221 L 175.7252378159748 260.4857717645995 L 175.79493447648872 260.38198489065655 L 175.79884617545855 260.37624640593873 L 175.86994714536576 260.2734816911446 L 175.87395932903638 260.2677684038286 L 175.9464571879438 260.16604996446097 L 175.95057112172287 260.16036277888855 L 176.0244584492374 260.0597147312249 L 176.02867540232558 260.0540546563274 L 176.10394477805409 259.9545011166453 L 176.10826601772885 259.9488692689629 L 176.18491002127826 259.8504343535399 L 176.18933680684466 259.8448319600892 L 176.26734801782192 259.7475397852029 L 176.27188159422371 259.741968186165 L 176.35125259223565 259.645842868093 L 176.35589418332003 259.6403035192954 L 176.4366175479736 259.5453691743151 L 176.44136834940787 259.53986364947417 L 176.52343666030995 259.4461443938633 L 176.52829783214793 259.4406743865558 L 176.61170366890548 259.34819433659186 L 176.61667632780728 259.3427616619192 L 176.70141227002716 259.2515449338797 L 176.70649748113794 259.2461515297872 L 176.79255610842705 259.1562222399497 L 176.7977548769221 259.15087016816346 L 176.88512876888737 259.0622524328056 L 176.89044203119835 259.0569438793452 L 176.97912376744665 258.96966181474454 L 176.98455238218625 258.9643990899701 L 177.07453454232453 258.8784768124041 L 177.08007928093053 258.87326235055536 L 177.17135444456565 258.78872397630164 L 177.17701598169253 258.7835603344857 L 177.26957672843142 258.7004299798218 L 177.2753556321211 258.695319836407 L 177.36919454157066 258.61362161761053 L 177.37509126324113 258.60856776998236 L 177.47020091500826 258.52832580333086 L 177.47621577930354 258.52333116497033 L 177.57258875299516 258.44456956674134 L 177.57872194754614 258.4396371635843 L 177.67635082276914 258.3623800500553 L 177.68260238792186 258.3575130160956 L 177.78147974428313 258.2817845035443 L 177.78784956285494 258.27698607564787 L 177.88796797996142 258.2028102803518 L 177.89445576709574 258.19808379224884 L 177.99580782455433 258.1254848304855 L 178.00241311774505 258.12083370591705 L 178.1049913951626 258.04983569396404 L 178.11171354452966 258.04526343896276 L 178.21551062151315 257.9758904930976 L 178.22234878041232 257.97140068738855 L 178.32735723656862 257.90367692388884 L 178.33431035262606 257.8992732114055 L 178.44052276756207 257.8332227465488 L 178.44758957422565 257.82890882506547 L 178.5549985275483 257.7645557751293 L 178.56217753625378 257.76033538502105 L 178.67077560756994 257.697703866283 L 178.67806510061683 257.69358077843657 L 178.78784486953342 257.6326949071742 L 178.79524289377437 257.6286729100773 L 178.9061969398983 257.5695568025682 L 178.91370130133674 257.5656396886237 L 179.0258222042749 257.5083174611454 L 179.03343046367243 257.50450901226156 L 179.14671080303174 257.44900478109156 L 179.1544202726165 257.44530875361465 L 179.26885262800386 257.3916466350306 L 179.27666036936986 257.38806674409807 L 179.39223732039218 257.33627085437746 L 179.40014014367677 257.33281075777734 L 179.51685426994095 257.2829052131978 L 179.52484873434904 257.2795684948383 L 179.64269261546195 257.23157741167734 L 179.65077503121145 257.22836756477255 L 179.76974124678006 257.18231505930777 L 179.77790767851326 257.1792354694039 L 179.89798880814442 257.1351456579128 L 179.90623507985825 257.1321995858797 L 180.02742370315892 257.09009658463987 L 180.03574540467037 257.08728714976735 L 180.15803410124738 257.0471950750563 L 180.16642659621817 257.04452523839416 L 180.2898079456785 257.0064682064896 L 180.29826638118197 257.0039407545805 L 180.4227329631325 256.9679428817598 L 180.43125228075706 256.9655604109091 L 180.55679667480467 256.93164581345 L 180.5653716232357 256.92941071468505 L 180.6919864089873 256.89760350886496 L 180.70061155803037 256.8955179537255 L 180.8282893150929 256.8658422558221 L 180.83695907104527 256.86390818312685 L 180.9656923790256 256.8363881094176 L 180.97440100131675 256.83460721313907 L 181.10418243982178 256.8092668799016 L 181.1260614651276 256.80608046960424 L 181.12597605283375 256.8055099037939 L 181.20124419183009 256.7942424491227 L 181.21136611756106 256.7928328259737 L 181.28565661976708 256.7832596943926 L 181.29600082816535 256.7820361285732 L 181.3693155486793 256.7741375323673 L 181.37987742550015 256.77311289827594 L 181.4522182194204 256.7668690497303 L 181.46299200025805 256.7660563165367 L 181.5343607226828 256.7614474279364 L 181.54533943635582 256.76085956805247 L 181.61573794238333 256.7578658516826 L 181.6269133628626 256.75751573935435 L 181.6963435075912 256.7561174074999 L 181.7077061163955 256.75601770813137 L 181.77616975492342 256.7561949730775 L 181.78770871588725 256.7563580242209 L 181.8552077033128 256.75809109825275 L 181.86691085160905 256.758528783542 L 181.93344704303044 256.7617978789445 L 181.94530089019037 256.76252149660024 L 182.01087614070593 256.76730682565864 L 182.0228658971717 256.76832695354045 L 182.08748206187968 256.7746087285397 L 182.09959167837496 256.7759350880478 L 182.16325061237367 256.783693521273 L 182.17546284097557 256.78533484268746 L 182.23816639936322 256.7945501464237 L 182.25046287475632 256.7965140385028 L 182.31221291263125 256.8071664250352 L 182.32457425350583 256.80945925184636 L 182.38537262596628 256.82152893346 L 182.39777855597225 256.82415570148333 L 182.4576271181165 256.8376228904632 L 182.4700566052101 256.84058714896605 L 182.5289572121364 256.85543205759734 L 182.5413886245426 256.8587358151209 L 182.5993431313493 256.8749386556886 L 182.61175440783134 256.87858231522296 L 182.66876466961662 256.89612330001216 L 182.68113350117153 256.9001056150417 L 182.7372013730337 256.91896495633756 L 182.74950539272254 256.92328300945763 L 182.80463272975987 256.94344091954514 L 182.81684970701846 256.9480901247733 L 182.87103836432925 256.9695268159375 L 182.8831463998692 256.9745009451995 L 182.9363982325517 256.99719662972564 L 182.9483759498854 257.00248786332594 L 183.00069281303786 257.026422753499 L 183.01251954270927 257.0320217537022 L 183.06390329143005 257.05717606180724 L 183.0755592442258 257.06307206800227 L 183.12601173361307 257.08942600632435 L 183.13747815935793 257.09560694964244 L 183.18700124451001 257.12314073046673 L 183.19826057351008 257.129593365216 L 183.24685610952528 257.1582872008275 L 183.2578920742628 257.164997249697 L 183.28551301733222 257.1822837775643 L 183.2781413246014 257.17287748682065 L 183.24470979264512 257.13781888666773 L 183.20804243846413 257.10616011361833 L 183.16848346185228 257.07819835145904 L 183.12640420652664 257.05419607979843 L 183.08219967429017 257.03437861014703 L 183.0125027045942 257.0071058828747 L 182.98927038136088 256.99801497378337 L 182.94280573489604 256.97983315560145 L 182.9195734116639 256.97074224651067 L 182.84987644196792 256.94346951923836 L 182.8266441187346 256.934378610147 L 182.68725017934167 256.879833155602 L 182.66401785610816 256.87074224651053 L 182.640785532876 256.86165133741974 L 182.5246239167154 256.81619679196564 L 182.50139159348208 256.8071058828743 L 182.36199765408895 256.75256042832916 L 182.3387653308558 256.7434695192379 L 182.19937139146288 256.6889240646929 L 182.17613906822956 256.67983315560156 L 182.08320977530008 256.64346951923784 L 182.05997745206793 256.63437861014705 L 182.0367451288366 256.62528770105655 L 182.01351280560328 256.6161967919652 L 181.85088654297803 256.5525604283293 L 181.82765421974472 256.54346951923793 L 181.8044218965122 256.5343786101469 L 181.78118957328005 256.52528770105613 L 181.68826028035176 256.4889240646929 L 181.66502795711844 256.47983315560157 L 181.5256340177255 256.42528770105656 L 181.502401694492 256.4161967919651 L 181.47916937125984 256.4071058828743 L 181.36300775509923 256.3616513374202 L 181.33977543186592 256.35256042832884 L 181.2236138157041 256.3071058828742 L 181.20038149247296 256.29801497378384 L 181.17714916923964 256.2889240646925 L 181.0377552298467 256.2343786101475 L 181.0145229066134 256.2252877010561 L 180.94482593691623 256.1980149737833 L 180.92159361368408 256.1889240646925 L 180.87512896722043 256.1707422465111 L 180.85189664398712 256.16165133741976 L 180.7946905818017 256.13926635656463 L 180.78467924992876 256.13471575116785 L 180.76245702770694 256.124614741067 L 180.7513459165935 256.1195642360154 L 180.7402348054843 256.1145137309658 L 180.7291236943736 256.1094632259155 L 180.7180125832621 256.1044127208648 L 180.70690147214904 256.09936221581336 L 180.69579036103985 256.0943117107638 L 180.68467924992916 256.08926120571346 L 180.67356813881764 256.08421070066277 L 180.6624570277046 256.07916019561134 L 180.65134591659583 256.07410969056195 L 180.6402348054843 256.06905918551126 L 180.61801258326057 256.05895817540954 L 180.60690147215098 256.05390767035976 L 180.58467924992917 256.0438066602589 L 180.57356813881572 256.0387561552073 L 180.56245702770653 256.03370565015774 L 180.55134591659584 256.0286551451074 L 180.54023480548432 256.0236046400567 L 180.52912369437126 256.0185541350053 L 180.51801258326208 256.0135036299557 L 180.50690147215138 256.0084531249054 L 180.49579036103987 256.0034026198547 L 180.4846792499268 255.99835211480328 L 180.47356813881805 255.9933016097539 L 180.46245702770653 255.98825110470318 L 180.4402348054828 255.97815009460146 L 180.4291236943732 255.97309958955168 L 180.4069014721514 255.96299857945084 L 180.39579036103794 255.95794807439924 L 180.38467924992875 255.95289756934966 L 180.37356813881806 255.94784706429934 L 180.36245702770654 255.94279655924862 L 180.3513459165935 255.93774605419722 L 180.3402348054843 255.93269554914764 L 180.3291236943736 255.92764504409732 L 180.3180125832621 255.9225945390466 L 180.30690147214904 255.9175440339952 L 180.29579036104028 255.91249352894582 L 180.28467924992876 255.9074430238951 L 180.262457027705 255.89734201379338 L 180.25134591659543 255.8922915087436 L 180.2291236943736 255.88219049864276 L 180.21801258326016 255.87713999359116 L 180.20690147215097 255.87208948854158 L 180.19579036104028 255.86703898349126 L 180.18467924992876 255.86198847844054 L 180.1735681388157 255.85693797338914 L 180.16245702770652 255.85188746833956 L 180.15134591659583 255.84683696328923 L 180.1402348054843 255.84178645823852 L 180.12912369437126 255.83673595318712 L 180.1180125832625 255.83168544813773 L 180.10690147215098 255.82663494308702 L 180.08467924992723 255.8165339329853 L 180.07356813881765 255.8114834279355 L 180.05134591659584 255.80138241783467 L 180.04023480548238 255.79633191278307 L 180.0291236943732 255.7912814077335 L 180.0180125832625 255.78623090268317 L 180.006901472151 255.78118039763245 L 179.99579036103793 255.77612989258105 L 179.98467924992875 255.77107938753147 L 179.97356813881805 255.76602888248115 L 179.96245702770653 255.76097837743043 L 179.95134591659348 255.75592787237903 L 179.94023480548472 255.75087736732965 L 179.9291236943732 255.74582686227893 L 179.90690147214946 255.7357258521772 L 179.89579036103987 255.73067534712743 L 179.87356813881806 255.7205743370266 L 179.8624570277046 255.715523831975 L 179.85134591659542 255.7104733269254 L 179.84023480548473 255.7054228218751 L 179.8291236943732 255.70037231682437 L 179.81801258326016 255.69532181177297 L 179.80690147215097 255.6902713067234 L 179.79579036104028 255.68522080167307 L 179.78467924992876 255.68017029662235 L 179.7735681388157 255.67511979157095 L 179.76245702770694 255.67006928652157 L 179.75134591659543 255.66501878147085 L 179.72912369437168 255.65491777136913 L 179.71801258326227 255.64986726631943 L 179.70690147215237 255.64481676126942 L 179.65811388300853 255.6256583509747 L 179.6490229739172 255.62262804794426 L 179.63993206482627 255.61959774491396 L 179.62175024664447 255.61353713885336 L 179.61265933755354 255.61050683582306 L 179.60356842846264 255.60747653279276 L 179.5944775193717 255.60444622976246 L 179.5762957011899 255.59838562370186 L 179.56720479210207 255.5953553206726 L 179.5581138830085 255.59232501764134 L 179.54902297391718 255.5892947146109 L 179.53993206482625 255.5862644115806 L 179.52175024664444 255.58020380552 L 179.51265933755352 255.5771735024897 L 179.4944775193717 255.5711128964291 L 179.48538661028078 255.5680825933988 L 179.46720479209898 255.5620219873382 L 179.45811388300805 255.5589916843079 L 179.43993206482625 255.5529310782473 L 179.43084115573532 255.549900775217 L 179.41265933755352 255.5438401691564 L 179.4035684284626 255.5408098661261 L 179.3853866102808 255.5347492600655 L 179.37629570118986 255.5317189570352 L 179.36720479210072 255.5286886540055 L 179.35811388300806 255.52565835097457 L 179.34902297391713 255.52262804794427 L 179.33084115573533 255.51656744188367 L 179.3217502466444 255.51353713885337 L 179.31265933755526 255.51050683582366 L 179.3035684284626 255.50747653279274 L 179.29447751937167 255.50444622976244 L 179.27629570118987 255.49838562370184 L 179.26720479209894 255.49535532067154 L 179.24902297391714 255.48929471461093 L 179.2399320648262 255.48626441158063 L 179.2217502466444 255.48020380552003 L 179.21265933755524 255.47717350249033 L 179.203568428463 255.47414319945955 L 179.19447751937167 255.4711128964291 L 179.18538661028074 255.4680825933988 L 179.15811388300804 255.4589916843079 L 179.1490229739171 255.4559613812776 L 179.1308411557353 255.449900775217 L 179.12175024664438 255.4468704721867 L 179.11265933755524 255.443840169157 L 179.10356842846258 255.44080986612607 L 179.09447751937165 255.43777956309577 L 179.07629570118985 255.43171895703517 L 179.06720479209892 255.42868865400487 L 179.04902297391712 255.42262804794427 L 179.0399320648262 255.41959774491397 L 179.01265933755482 255.41050683582353 L 179.00356842846298 255.40747653279288 L 178.98538661028076 255.40141592673214 L 178.97629570118983 255.39838562370184 L 178.95811388300802 255.39232501764124 L 178.9490229739171 255.38929471461094 L 178.9308411557353 255.38323410855034 L 178.92175024664436 255.38020380552004 L 178.91265933755523 255.37717350249034 L 178.903568428463 255.37414319945955 L 178.89447751937166 255.3711128964291 L 178.88538661028073 255.3680825933988 L 178.86720479209893 255.3620219873382 L 178.858113883008 255.3589916843079 L 178.8399320648262 255.3529310782473 L 178.83084115573527 255.349900775217 L 178.81265933755523 255.343840169157 L 178.80356842846257 255.34080986612608 L 178.79447751937164 255.33777956309578 L 178.77629570118984 255.33171895703518 L 178.7672047920989 255.32868865400488 L 178.75811388300843 255.32565835097472 L 178.71016014837357 255.31228620922684 L 178.66111434117818 255.30374901783233 L 178.6114626770005 255.30013141023264 L 178.59748162096085 255.30050726262544 L 178.59747909544814 255.30000635500016 L 178.59144899544802 255.30003675799966 L 178.5864002417503 255.30008770600915 L 178.58043074162717 255.30017809051947 L 178.57538669674292 255.30027991833919 L 178.56947717813063 255.3004290476282 L 178.56444104660812 255.30058153056538 L 178.55859089114057 255.3007881679009 L 178.55356592533752 255.3009909653291 L 178.54777451464867 255.3012538739789 L 178.54276400851404 255.30150652737345 L 178.53703072423775 255.3018244706054 L 178.5320380069469 255.30212640201356 L 178.52636223071707 255.30249814309542 L 178.52139066014405 255.30284865406082 L 178.51577177359465 255.30327295626046 L 178.5108247297653 255.3036712272075 L 178.5052621145302 255.3041468537927 L 178.500342992994 255.304591943886 L 178.49483603070712 255.30511765812463 L 178.4899482359713 255.30560850560082 L 178.48449630826653 255.30618307076062 L 178.4796432472479 255.30671849374048 L 178.47424573575918 255.3073406730893 L 178.46943081138687 255.30791937085894 L 178.4640870977481 255.30858792766463 L 178.45931370271447 255.30920848242238 L 178.45402316855953 255.30992217995274 L 178.4492946792588 255.31058305901192 L 178.4440567062216 255.31134066053474 L 178.43937647695265 255.31204021896372 L 178.43419044666715 255.31284048774683 L 178.4295618041334 255.31357697142857 L 178.42442709823348 255.31441867073983 L 178.41985333637646 255.31519021983007 L 178.41476933649602 255.31607211293726 L 178.41025371169076 255.31687676569817 L 178.4052197994637 255.31779761586907 L 178.40076552611598 255.31863331285186 L 178.39578108317622 255.31959188335438 L 178.3913913298229 255.32045647188798 L 178.38645573780437 255.32145152598986 L 178.38213362358783 255.3223427649737 L 178.3772462641244 255.32337306594277 L 178.37299485584498 255.32428863087924 L 178.36815511057057 255.32535294198334 L 178.3639774202335 255.3262904302346 L 178.35918467078204 255.32738751474153 L 178.35508365366513 255.3283444509777 L 178.35033728167053 255.3294730721553 L 178.34631583497128 255.33044691394986 L 178.34161522206742 255.33160583506594 L 178.3376761841011 255.33259397861377 L 178.3330207119219 255.33378196293611 L 178.3291668618737 255.33478174886392 L 178.32455591205306 255.3359975596604 L 178.32078997035708 255.33700627888 L 178.31622292452894 255.3382486794184 L 178.31254755374965 255.33926357902635 L 178.3080237935479 255.34053133257447 L 178.3044415998849 255.34154962173866 L 178.29996050694345 255.34284149156437 L 178.2964740422911 255.3438603473885 L 178.29203499824385 255.34517509675956 L 178.28864676277118 255.34619167011226 L 178.28424914925205 255.34752806229653 L 178.28096159457826 255.34853948356087 L 178.27660479322117 255.34989628182615 L 178.273420326073 255.35089966658344 L 178.26910371851181 255.35227563419755 L 178.26602470491864 255.3532680888122 L 178.2617476727873 255.35466198904294 L 178.25877644275252 255.35564061615418 L 178.25453836768494 255.3570512122694 L 178.25167722035877 255.35801311617107 L 178.24747748398886 255.35943917143857 L 178.24472869325317 255.3603814633693 L 178.2405666772148 255.3618217410569 L 178.23793249772777 255.36274154438286 L 178.2338075836549 255.36419480775837 L 178.2312902572954 255.36508926306828 L 178.2272018268219 255.36655427539952 L 178.22480358950068 255.36742054552886 L 178.2207510242605 255.36889607008368 L 178.2184741131292 255.36973134506516 L 178.2144567947562 255.37121614511133 L 178.2123034556803 255.37201764711267 L 178.20832076580842 255.37351048591802 L 178.20629326121133 255.37427547414507 L 178.20234458147448 255.37577511497742 L 178.2004451984218 255.37650089061046 L 178.19652991045385 255.37800609673766 L 178.1947609690054 255.3786900079167 L 178.19087845444028 255.3801995426065 L 178.18924231617464 255.38083898952956 L 178.1853919566463 255.38235161604985 L 178.1838910334569 255.38294405617967 L 178.18007221059918 255.38445853779822 L 178.17870897355164 255.3850014912936 L 178.17492106899851 255.38651659127822 L 178.17369805736172 255.38700764664787 L 178.16994045274706 255.38852212826643 L 178.16886028309008 255.3889589483291 L 178.1651323600478 255.39047157484939 L 178.164197735355 255.3908519030661 L 178.160498875519 255.39236143775594 L 178.1597125943115 255.39268310498744 L 178.1560421793157 255.39418831111462 L 178.1554071446879 255.3944492428911 L 178.1517645561662 255.3959488837235 L 178.15128378471906 255.3961471080866 L 178.14734503484883 255.39777360291293 L 178.14359423462378 255.3993254648805 L 178.1366635551786 255.40219576049304 L 178.1303478626093 255.40480593190316 L 178.12830985864048 255.40564288128152 L 178.1019329903085 255.40971145066382 L 178.05886553187116 255.42033234223476 L 178.0169088634099 255.4347284280099 L 177.9763932022513 255.4527864044994 L 177.972352798209 255.45480660652052 L 177.96427199012925 255.45884701056042 L 177.95215077800697 255.46490761662153 L 177.94406996992723 255.46894802066143 L 177.93194875780495 255.47500862672254 L 177.9238679497252 255.47904903076244 L 177.9117467376023 255.48510963682386 L 177.9077063335638 255.48712983884315 L 177.89962552548238 255.49117024288384 L 177.89154471740028 255.49521064692487 L 177.88750431336177 255.49723084894416 L 177.87942350528036 255.50127125298485 L 177.87134269719826 255.50531165702589 L 177.86730229315975 255.50733185904517 L 177.85922148507834 255.51137226308586 L 177.85114067699624 255.5154126671269 L 177.84710027295773 255.51743286914618 L 177.83901946487632 255.52147327318687 L 177.83093865679422 255.5255136772279 L 177.8268982527557 255.5275338792472 L 177.8188174446743 255.53157428328788 L 177.8107366365922 255.53561468732892 L 177.8066962325537 255.5376348893482 L 177.79861542447227 255.5416752933889 L 177.79053461639018 255.54571569742993 L 177.78649421235167 255.5477358994492 L 177.77841340426897 255.55177630349053 L 177.77437300023047 255.5537965055098 L 177.76629219214777 255.55783690955113 L 177.7622517881099 255.5598571115701 L 177.75417098002654 255.56389751561173 L 177.75013057598804 255.565917717631 L 177.74204976790534 255.56995812167233 L 177.73396895982643 255.57399852571183 L 177.72588815174373 255.57803892975315 L 177.72184774770585 255.58005913177212 L 177.7137669396225 255.58409953581375 L 177.709726535584 255.58611973783303 L 177.7016457275013 255.59016014187435 L 177.69760532346342 255.59218034389332 L 177.68952451537945 255.59622074793526 L 177.6814437073018 255.60026115197414 L 177.67336289921846 255.60430155601577 L 177.66932249517996 255.60632175803505 L 177.66124168709726 255.61036216207637 L 177.65720128305938 255.61238236409534 L 177.6491204749754 255.61642276813728 L 177.64103966689777 255.62046317217616 L 177.63295885881442 255.6245035762178 L 177.6289184547759 255.62652377823707 L 177.62083764669322 255.6305641822784 L 177.61679724265534 255.63258438429736 L 177.60871643457136 255.6366247883393 L 177.60063562649373 255.64066519237818 L 177.59255481841038 255.6447055964198 L 177.58851441437187 255.6467257984391 L 177.58243162364045 255.6497671938048 L 177.5099760557581 255.68358133174374 L 177.50614272718767 255.6853901261998 L 177.427999804233 255.72266842907342 L 177.42418104639037 255.72451009354 L 177.3464703613335 255.7623943951831 L 177.3426666053367 255.76426874774444 L 177.2653900132759 255.80275595632656 L 177.2616016852094 255.80466280855433 L 177.18476104124295 255.84374983224495 L 177.18098856201777 255.84568898935655 L 177.10458572124395 255.88537273632525 L 177.10082950646728 255.88734399734403 L 177.02486632398436 255.9276213757604 L 177.0211267838335 255.92962453367912 L 176.94560511473975 255.97049245171266 L 176.94188265384298 255.97252729365965 L 176.86680435323666 256.01398265947984 L 176.86309937055884 256.01604896688804 L 176.78846629353828 256.05808868866455 L 176.78477918227918 256.0601862374392 L 176.71059318394256 256.1028072233415 L 176.70692433143148 256.1049357840354 L 176.63318726687717 256.148134942233 L 176.62953705448535 256.1502942802167 L 176.55625077881155 256.19406851887925 L 176.55261958186213 256.1962583945176 L 176.47978595016716 256.24060462181455 L 176.47617413785736 256.2428247906411 L 176.4037950052395 256.287739914742 L 176.40020294056626 256.289990127636 L 176.32828016212375 256.33547105671045 L 176.32470820181885 256.33775106007164 L 176.25324363264997 256.3837947022891 L 176.24969212711662 256.3861042382172 L 176.17868762231964 256.4327075017473 L 176.1751569155829 256.4350463082157 L 176.1046143302561 256.482206101228 L 176.1011047599122 256.48457391226225 L 176.03102594915384 256.5322871429262 L 176.02753784633012 256.5346836887796 L 175.95792466523852 256.58294726526475 L 175.95445835455936 256.5853722725924 L 175.88531265823278 256.6341831030684 L 175.88186845779072 256.6366362951022 L 175.8131921013274 256.6859912877385 L 175.80977032265875 256.6884723844609 L 175.74156516115698 256.7383684474271 L 175.73816610922813 256.74087716574076 L 175.6704339977862 256.7913112072063 L 175.66705797097998 256.79384726110635 L 175.59980076469614 256.8448161892409 L 175.59644805480812 256.8473792899815 L 175.52966760878067 256.8988800129545 L 175.52633850101884 256.9014698692166 L 175.46003667034603 256.95349929519773 L 175.45673144333793 256.9561156132515 L 175.39091008311803 257.0086706504101 L 175.3876290089193 257.0113131342793 L 175.32228997425062 257.06439069078505 L 175.31903331836355 257.06705904240437 L 175.2541784643443 257.12065602642684 L 175.2509464857385 257.12334994579936 L 175.18657766746702 257.17746326550804 L 175.18337061860495 257.1801824508598 L 175.1194896911795 257.2348090144242 L 175.11630781804698 257.2375531623553 L 175.0529166365658 257.29268987794507 L 175.04976017870894 257.29545868357667 L 174.9868605982703 257.35110245936124 L 174.9837297888326 257.35389561648276 L 174.92132366453484 257.41004336063173 L 174.9182187303033 257.41286056184003 L 174.85630791724464 257.4695091825229 L 174.85322907869565 257.4723501193631 L 174.79181543197438 257.5294965247495 L 174.78876290332678 257.5323608878479 L 174.72784827804117 257.5900019861073 L 174.72482226731026 257.5928894653042 L 174.6644085185586 257.65102216460616 L 174.66140922761545 257.65393244908284 L 174.60149821049598 257.7125536575969 L 174.59852583512915 257.7154864360001 L 174.53911940474018 257.77459306189587 L 174.53617413472148 257.77754802245715 L 174.47727414616125 257.8371369739041 L 174.47435616531217 257.840113804558 L 174.41596447367897 257.90018198972564 L 174.4130739599428 257.90318037822084 L 174.35519242033493 257.96372470527876 L 174.35232954584956 257.96674433928723 L 174.29496001336523 258.027761716405 L 174.29212494453833 258.0308022836272 L 174.23526927427588 258.0922896189744 L 174.23246217186423 258.0953508072388 L 174.17612221892188 258.15730500898485 L 174.17334323810908 258.1603865063466 L 174.11752085758513 258.22280448266105 L 174.11477014806448 258.22590597749405 L 174.05946719505724 258.2887846365466 L 174.05674490111662 258.29190581763044 L 174.00196323072427 258.3552420675905 L 173.99926949132748 258.35838262419907 L 173.9450109586484 258.4221733732362 L 173.9423459075249 258.4253329952152 L 173.8886123676573 258.48957515149897 L 173.88597613338766 258.4927535293444 L 173.8327694414298 258.55744400104436 L 173.8301621475347 258.5606408259752 L 173.7774841585849 258.6257765212609 L 173.7749059236144 258.628991485288 L 173.7227584927709 258.69456931232895 L 173.72020943039442 258.69780210832005 L 173.66859441275554 258.76381897528574 L 173.6660746318519 258.76706929702743 L 173.61499388251588 258.83352211208756 L 173.6125034872655 258.83678965434103 L 173.56195886133062 258.903675325665 L 173.5594979513047 258.90695978422235 L 173.50949130386923 258.9742752199798 L 173.50705997412294 258.9775762917112 L 173.45759316028514 259.0453184000716 L 173.45519150144727 259.0486357829742 L 173.40626637630544 259.11680147210717 L 173.4038944746708 259.12013486534516 L 173.35551289332318 259.1887210434202 L 173.353170830942 259.19207014736685 L 173.3053346484869 259.2610737225534 L 173.30302250325616 259.26443823882477 L 173.25573357479183 259.3338561192926 L 173.25345142054505 259.3372357507797 L 173.2067116011698 259.40706484469814 L 173.20445950776502 259.4104592955982 L 173.15827065257707 259.4806965111369 L 173.15604868598678 259.48410548697643 L 173.11041265008444 259.5547477323049 L 173.10822087248172 259.5581709399644 L 173.06313951096328 259.62921512325227 L 173.06097798080972 259.6326522709834 L 173.0164531487734 259.70409530040007 L 173.01432192090232 259.7075460978459 L 172.97035547344643 259.77938488156104 L 172.96825459914967 259.78284903976567 L 172.9248483913725 259.85508048594875 L 172.92277791848193 259.85855771737016 L 172.8799338054817 259.9311787341907 L 172.87789377845056 259.9346687527095 L 172.83561361532557 260.0076762483372 L 172.8336040753101 260.01117876925997 L 172.79188971715865 260.0845696518642 L 172.78991070209543 260.0880843919282 L 172.74876400401575 260.16185556967855 L 172.74681554869952 260.1653822470515 L 172.70623836578991 260.23953062811756 L 172.70432050194893 260.24306896239585 L 172.66431468930767 260.31759145494715 L 172.66242744567776 260.321141167151 L 172.6229948584031 260.396034679357 L 172.6211382607989 260.39959549192594 L 172.58228075398915 260.47485693195625 L 172.5804548253755 260.4784285687383 L 172.5421742541289 260.5540548447625 L 172.54037901468803 260.5576370310065 L 172.5026772341029 260.6336250511941 L 172.50091270130204 260.63721751353484 L 172.46379156647657 260.7135641860554 L 172.46205775513135 260.71716665250216 L 172.4255191211639 260.79386888552517 L 172.4238160435016 260.7974810854443 L 172.38786176549038 260.87453578713934 L 172.38618943121008 260.87815745123834 L 172.35082136425342 260.95556152977497 L 172.34917978058496 260.95919239008214 L 172.31439977978107 261.03694275362983 L 172.31278895154028 261.0405825434772 L 172.2785988719875 261.1186761002056 L 172.27701880163195 261.1223245542042 L 172.24342049842852 261.20075821228284 L 172.24187118610874 261.2044150663024 L 172.2088665143529 261.2831857339007 L 172.20734795796238 261.2868507250461 L 172.17493877275245 261.36595531033373 L 172.17345096797598 261.3696281769195 L 172.14163912441023 261.44906358806594 L 172.14018206476936 261.45274406959146 L 172.10896941794607 261.5325072147663 L 172.10754309484298 261.5361950518891 L 172.0769314998604 261.6162828392618 L 172.07553590261873 261.61997777377184 L 172.04552721457515 261.70038711151204 L 172.0441623304799 261.70408888630266 L 172.0147584044736 261.7848166825799 L 172.01342421880818 261.7885250416206 L 171.98462690993742 261.8695682046044 L 171.98332340601823 261.87328289291224 L 171.96074493322888 261.9384463320297 L 171.93982074940004 261.96665932794093 L 171.9145949233783 262.00874607603714 L 171.89361578929783 262.0531027282669 L 171.8770853876882 262.0993021058213 L 171.8651629153533 262.14689928343955 L 171.85909362060565 262.18781514511676 L 171.8520722942091 262.20449730299595 Z" id="element_101" /></svg>