<?xml version='1.0' encoding='utf-8'?>
<svg xmlns:svg="http://www.w3.org/2000/svg" version="1.1" id="Layer_1" x="0px" y="0px" viewBox="0 0 500 500" style="width: 188px;" xml:space="preserve" data-imageid="pipeline-31" imageName="Pipeline" class="illustrations_image"><svg:style type="text/css">
	.st0_pipeline-31{fill:#EAC2A7;}
	.st1_pipeline-31{opacity:0.63;fill:url(#SVGID_1_);enable-background:new    ;}
	.st2_pipeline-31{opacity:0.63;fill:url(#SVGID_00000160179602106895528520000002428925925115162253_);enable-background:new    ;}
	.st3_pipeline-31{opacity:0.63;fill:url(#SVGID_00000137130286687107314790000002274324629384346514_);enable-background:new    ;}
	.st4_pipeline-31{opacity:0.63;fill:url(#SVGID_00000060021897825768142520000003461003070705911428_);enable-background:new    ;}
	.st5_pipeline-31{opacity:0.63;fill:url(#SVGID_00000098909511627820371590000002388744079869833603_);enable-background:new    ;}
	.st6_pipeline-31{fill:#6D3209;}
	.st7_pipeline-31{fill:#DF5D00;}
	.st8_pipeline-31{fill:#FF8522;}
	.st9_pipeline-31{fill:#68E1FD;}
	.st10_pipeline-31{fill:#174B6B;}
	.st11_pipeline-31{fill:#08283F;}
	.st12_pipeline-31{fill:#FFFFFF;}
	.st13_pipeline-31{opacity:0.15;fill:#FF8522;enable-background:new    ;}
	.st14_pipeline-31{fill:#FF9F57;}
</svg:style><svg:path class="st10_pipeline-31" d="M 216.89456800247754 251.843469519238 L 216.87133567924474 251.8525604283291 L 216.80163870954826 251.87983315560163 L 216.77840638631545 251.88892406469273 L 216.75517406308379 251.89801497378338 L 216.73194173985127 251.90710588287436 L 216.70870941661846 251.91619679196546 L 216.6622447701543 251.9343786101471 L 216.6390124469215 251.9434695192382 L 216.56931547722502 251.97074224651072 L 216.5460831539922 251.97983315560182 L 216.49961850752806 251.99801497378346 L 216.47638618429542 252.0071058828745 L 216.40668921459874 252.0343786101471 L 216.38345689136594 252.0434695192382 L 216.33699224490178 252.06165133741982 L 216.31375992166898 252.07074224651092 L 216.2440629519725 252.09801497378345 L 216.2208306287397 252.10710588287455 L 216.19759830550802 252.1161967919652 L 216.1743659822755 252.12528770105618 L 216.1511336590427 252.13437861014728 L 216.10466901257854 252.1525604283289 L 216.08143668934574 252.16165133742 L 216.01173971964926 252.18892406469254 L 215.98850739641645 252.19801497378364 L 215.9420427499523 252.21619679196527 L 215.9188104267195 252.22528770105637 L 215.89557810348782 252.23437861014702 L 215.84911345702298 252.2525604283289 L 215.82588113379018 252.26165133742 L 215.77941648732602 252.27983315560164 L 215.7561841640932 252.28892406469274 L 215.70971951762905 252.30710588287437 L 215.68648719439625 252.31619679196547 L 215.6400225479321 252.3343786101471 L 215.61679022469994 252.3434695192379 L 215.59355790146694 252.3525604283291 L 215.54709325500278 252.37074224651073 L 215.52386093176997 252.37983315560183 L 215.4541639620735 252.40710588287436 L 215.4309316388407 252.41619679196546 L 215.38446699237653 252.4343786101471 L 215.36123466914373 252.4434695192382 L 215.3380023459119 252.45256042832892 L 215.31477002267974 252.46165133741974 L 215.29153769944674 252.47074224651092 L 215.22184072975026 252.49801497378346 L 215.19860840651745 252.50710588287455 L 215.1521437600533 252.5252877010562 L 215.1289114368205 252.5343786101473 L 215.059214467124 252.56165133741982 L 215.03598214389137 252.57074224651086 L 214.98951749742702 252.58892406469255 L 214.9662851741942 252.59801497378365 L 214.89658820449773 252.62528770105618 L 214.87335588126493 252.63437861014728 L 214.82689123480077 252.6525604283289 L 214.80365891156796 252.66165133742 L 214.78042658833613 252.67074224651074 L 214.75719426510398 252.67983315560156 L 214.73396194187097 252.68892406469274 L 214.6642649721745 252.71619679196527 L 214.6410326489417 252.72528770105637 L 214.61780032570985 252.7343786101471 L 214.57359579347337 252.75419607979848 L 214.53151653814777 252.77819835145908 L 214.4919575615359 252.80616011361838 L 214.45529020735492 252.83781888666778 L 214.42185867539862 252.87287748682073 L 214.39197679050298 252.91100681580397 L 214.36592505664356 252.95184895013296 L 214.34394802381928 252.99502050097223 L 214.32632336089722 253.0399343411085 L 214.3263482249917 253.0399169479298 L 214.33689434544152 253.032738244115 L 214.38364034847768 253.0017836620738 L 214.39443808376086 252.9948313523807 L 214.44210792573742 252.9649972496969 L 214.45314389047442 252.95828720082767 L 214.5017394264896 252.92959336521616 L 214.5129987554903 252.92314073046654 L 214.5625218406424 252.89560694964229 L 214.57398826638675 252.8894260063244 L 214.62444075577403 252.8630720680023 L 214.63609670856968 252.85717606180734 L 214.68748045729043 252.8320217537023 L 214.69930718696241 252.8264227534988 L 214.7516240501149 252.80248786332578 L 214.76360176744842 252.79719662972556 L 214.8168536001309 252.77450094519946 L 214.82896163567054 252.76952681593755 L 214.88315029298133 252.74809012477328 L 214.89536727023997 252.74344091954512 L 214.95049460727734 252.7232830094576 L 214.96279862696665 252.71896495633737 L 215.0188664988288 252.70010561504156 L 215.03123533038317 252.6961233000122 L 215.08824559216845 252.67858231522297 L 215.1006568686507 252.67493865568855 L 215.15861137545738 252.65873581512085 L 215.17104278786388 252.6554320575972 L 215.2299433947902 252.64058714896595 L 215.24237288188326 252.63762289046323 L 215.30222144402748 252.62415570148335 L 215.31462737403393 252.62152893345993 L 215.3754257464944 252.60945925184632 L 215.38778708736874 252.6071664250352 L 215.44953712524367 252.5965140385028 L 215.46183360063677 252.5945501464237 L 215.52453715902442 252.58533484268744 L 215.5367493876261 252.58369352127298 L 215.6004083216248 252.57593508804774 L 215.6125179381203 252.5746087285397 L 215.6771341028283 252.56832695354043 L 215.68912385929428 252.56730682565856 L 215.75469910980985 252.5625214966002 L 215.76655295696935 252.56179787894447 L 215.83308914839077 252.55852878354193 L 215.84479229668742 252.5580910982527 L 215.91229128411294 252.55635802422088 L 215.92383024507657 252.55619497307748 L 215.99229388360448 252.55601770813132 L 216.00365649240857 252.5561174074999 L 216.07308663713715 252.5575157393543 L 216.08426205761685 252.55786585168255 L 216.15466056364437 252.56085956805245 L 216.16563927731718 252.56144742793637 L 216.23700799974193 252.5660563165367 L 216.2477817805796 252.56686904973031 L 216.32012257449983 252.57311289827595 L 216.33068445132068 252.5741375323673 L 216.40399917183464 252.5820361285732 L 216.4143433802331 252.5832596943926 L 216.48863388243913 252.59283282597372 L 216.49875580816973 252.59424244912267 L 216.57402394716607 252.60550990379386 L 216.57396038292165 252.60593452164434 L 216.58493439318667 252.607266655427 L 216.7147158316917 252.62963759469417 L 216.7238919097239 252.6313075836734 L 216.85262521770423 252.65597884480013 L 216.86176244169238 252.65781841373337 L 216.98944019875492 252.6847640253438 L 216.99853162726487 252.68677130850458 L 217.12514641301647 252.7159652992229 L 217.13418527705966 252.7181381097554 L 217.25972967110727 252.74955450820576 L 217.2687093977814 252.75189035341467 L 217.39317597973192 252.78550318822127 L 217.40209021413978 252.78799928657554 L 217.52547156360012 252.8237825863625 L 217.53431418888908 252.82643588601414 L 217.65660288546613 252.86436367940567 L 217.66536804085646 252.8671708780115 L 217.7865566641571 252.90721719363174 L 217.79523876086122 252.91017475925804 L 217.9153198904924 252.95231362573116 L 217.92391362544984 252.95541781861374 L 218.04287984101845 252.9996232645639 L 218.05138020840735 253.00287015949755 L 218.1692240895203 253.04911621354893 L 218.17762639002962 253.05250172268026 L 218.29434051629377 253.10076241345703 L 218.30264036417086 253.1042823092619 L 218.41821731519317 253.1545316653882 L 218.4264106431068 253.1581816036241 L 218.54084299849418 253.2103936537241 L 218.54892606027286 253.2141691961578 L 218.66220639963217 253.2683179688557 L 218.67017577096453 253.27221460558286 L 218.78229667390272 253.3282741295028 L 218.79014925110087 253.33228730069095 L 218.9011032972248 253.3902316044571 L 218.90883629416658 253.39435672136 L 219.01861606308316 253.45415983359655 L 219.02622700646592 253.45839229870813 L 219.13482507778207 253.5200282480392 L 219.14231180082692 253.52436347427343 L 219.24972075414956 253.58780628932323 L 219.25708138890187 253.59223971812395 L 219.3632938038379 253.65746342751663 L 219.3705267722167 253.66199054582296 L 219.475535228373 253.72896917818267 L 219.4826392321215 253.733585534192 L 219.58643630910498 253.80229311814293 L 219.5934103187942 253.80699433583126 L 219.6959885962118 253.87740489999757 L 219.70283183944778 253.882186692375 L 219.80418389690635 253.95427426538086 L 219.81089584588497 253.9591324464725 L 219.91101426299144 254.03287105694204 L 219.91759462154178 254.03780155250251 L 220.01647197790308 254.11316522905994 L 220.02292066814954 254.11816408603767 L 220.12054954337253 254.19512685730714 L 220.12686669214057 254.2001902520892 L 220.2232396658322 254.27872614669488 L 220.22942559091263 254.28385039217133 L 220.32453524267976 254.36393343873738 L 220.3305904390554 254.36911499023108 L 220.42442934850496 254.4507192173817 L 220.43035447463595 254.45595467749743 L 220.52291522137486 254.53905411385674 L 220.52871108562877 254.54434023630935 L 220.6199862492639 254.62890891050154 L 220.62565379656252 254.63424260298228 L 220.7156359567008 254.7202545436315 L 220.7211762554537 254.72563286978152 L 220.80985799170202 254.81306210551193 L 220.81527222107908 254.81848228606626 L 220.90264611304437 254.90730284550207 L 220.90793555063632 254.91276225867256 L 220.99399417792543 255.0029481704379 L 220.9991601878304 255.00844435160187 L 221.08389613005028 255.09996964432094 L 221.08894015141647 255.10550028508032 L 221.17234598817402 255.19833898737724 L 221.1772695242226 255.20390193405385 L 221.25933783512468 255.2980280745528 L 221.26414244266718 255.3036213261786 L 221.34486580732076 255.39900893350375 L 221.3495530867841 255.40463063936897 L 221.42892408479608 255.5012537421445 L 221.4334956707571 255.5069021989562 L 221.51150688173433 255.60473482580628 L 221.515964433965 255.6104084745118 L 221.59260843751443 255.70942465406054 L 221.5969536325338 255.71512207638602 L 221.6722230082623 255.81529583725768 L 221.67645753138467 255.8210157520045 L 221.75034485889918 255.9223211228232 L 221.75447039677036 255.92806238196863 L 221.82696825567777 256.03047339135856 L 221.8309864892821 256.0362349759948 L 221.90208745918935 256.13972565258 L 221.90600005731423 256.14550666873134 L 221.97569671782816 256.25005104113615 L 221.97950533096466 256.2558507154804 L 222.0477902616922 256.3614228123289 L 222.05149651635625 256.36724048785663 L 222.1183622969043 256.473814337773 L 222.1219677903549 256.4796494694059 L 222.18740700033035 256.58719910101433 L 222.1909132956646 256.5930512512044 L 222.25491851467442 256.701550693129 L 222.25832713627977 256.7074195274614 L 222.3208909439308 256.8168428083264 L 222.3242033732688 256.82272809113505 L 222.385318349168 256.9330492395645 L 222.3885360208726 256.9389508295814 L 222.44819474462685 257.05014387419965 L 222.4513190428918 257.05606172024227 L 222.50951409410797 257.16810068967334 L 222.51254634934529 257.17403482638287 L 222.56927030763032 257.28689374925096 L 222.572211793378 257.29284429288697 L 222.62745723833876 257.4064971978163 L 222.6303091683976 257.41246434210944 L 222.68406867964103 257.5268852577241 L 222.68683220542363 257.5328692697952 L 222.73909836255663 257.64803222471943 L 222.74177457062748 257.6540334410587 L 222.79253995325698 257.76991246391657 L 222.7951298630498 257.7759312864303 L 222.84438705078264 257.8925004058461 L 222.8468916124752 257.8985372979605 L 222.89463318491832 258.0157705425583 L 222.8970532774529 258.0218260253852 L 222.94327181421323 258.13969742378924 L 222.94560824344632 258.1457720723432 L 222.99029632413072 258.26425565317754 L 222.99254982109971 258.27035009264165 L 223.03570002531512 258.3894198845306 L 223.03787124461002 258.39553478656353 L 223.07947615196332 258.5151648181311 L 223.0815656701931 258.5213008972099 L 223.1216178602912 258.6414651970804 L 223.12362617463404 258.6476232068667 L 223.16211822708385 258.76829580366416 L 223.16404575391437 258.77447653339004 L 223.2009702483228 258.89563145573874 L 223.20281732190733 258.9018357265982 L 223.23816683788127 259.02344700312227 L 223.23993370913664 259.0296756646611 L 223.273700826283 259.15171732398466 L 223.27538766159293 259.15797125047686 L 223.30756495951863 259.28041732122415 L 223.30917183960463 259.28669740802286 L 223.33975189791656 259.409521918818 L 223.34127881676096 259.41582907867195 L 223.370254215066 259.5390060581391 L 223.37170107888602 259.5453412174598 L 223.39906439679112 259.6688446942232 L 223.40043102306413 259.67520878929275 L 223.42617484017617 259.79901279197645 L 223.42746095671825 259.8054067650828 L 223.45157785264416 259.92948532231105 L 223.45278309674455 259.935910117798 L 223.4752656510912 260.06023725819495 L 223.47638956870702 260.0666938184147 L 223.4972303610813 260.19124357060446 L 223.49827240609892 260.1977328317603 L 223.5174640161078 260.3224792243671 L 223.51842354967818 260.3290021122331 L 223.53595855692853 260.45391917388116 L 223.53683484688494 260.4604765993874 L 223.55270583098365 260.5855383587007 L 223.55349805135305 260.59213121337024 L 223.56769759190703 260.71731169897316 L 223.56840482252684 260.72394085020204 L 223.58092549914304 260.8492140907186 L 223.58154672539766 260.8558803768851 L 223.59238111768292 260.9812204009396 L 223.59291523037473 260.987924626333 L 223.60205591793599 261.1133054625494 L 223.6025017133093 261.1200483921098 L 223.60994127575344 261.2454440691125 L 223.61029745568956 261.25222642297086 L 223.61602847262353 261.37761096938385 L 223.61629364502832 261.38443341719733 L 223.62030869605897 261.50978086164486 L 223.62048137546574 261.5166440167182 L 223.62277304020003 261.64192838782446 L 223.62285164861186 261.6488328010169 L 223.62341250665665 261.774028127406 L 223.6233953746549 261.78097428081605 L 223.6222180056171 261.90605459111214 L 223.62210337376382 261.9130428915443 L 223.61918035725034 262.0379822143716 L 223.61896637781462 262.045012986584 L 223.6142902934324 262.1697853505667 L 223.61397503247147 262.17685883030515 L 223.60753845982737 262.3014382640673 L 223.60711989965583 262.30855459089156 L 223.59924448246045 262.4279272895117 L 223.59586322394912 262.501567264327 L 223.59546636294573 262.509001933155 L 223.59070071854129 262.5873205751406 L 223.59019324437378 262.5947479068448 L 223.58428053087 262.67274314336464 L 223.58366264552384 262.6801608047837 L 223.57661090167994 262.7578239787126 L 223.57588286887386 262.7652296779829 L 223.56770013344902 262.84255213219546 L 223.56686227574818 262.84994362100565 L 223.55755658750158 262.92691669837666 L 223.55660928334194 262.9342917739965 L 223.54618868103276 263.01090681740067 L 223.54513236167324 263.01826332447894 L 223.53360488406065 263.09451167679094 L 223.532440030479 263.1018475089208 L 223.51981371632223 263.1777205130154 L 223.51854085607079 263.18503361407056 L 223.50482374412903 263.2605226128225 L 223.5034434481661 263.26781097806077 L 223.4886435771985 263.34290731434476 L 223.48715645671084 263.3501689912844 L 223.47128186547658 263.42486400797515 L 223.46968856870717 263.4320970970486 L 223.45274729596548 263.5063821370208 L 223.45104850506144 263.5135847920083 L 223.43304858957146 263.58745119813676 L 223.43124501746595 263.59462162638414 L 223.41219449798692 263.66806074154346 L 223.4102868853268 263.67519720397564 L 223.39019380061785 263.74820037104064 L 223.38818291275095 263.7553011819711 L 223.36705530157133 263.8278597438165 L 223.36494192560335 263.83492327056763 L 223.34278782671217 263.9070285700681 L 223.34057276864542 263.91405323240303 L 223.31740022080191 263.9856966124333 L 223.31508430276426 263.992680881816 L 223.29090134472762 264.0638536852508 L 223.28848540230197 264.07079608393843 L 223.26330007283138 264.1414896536525 L 223.26078495249348 264.1483887536315 L 223.2346052903481 264.2185944324996 L 223.23199184702065 264.22544885427476 L 223.20482589095968 264.2951579851715 L 223.2021149856889 264.30196639641986 L 223.17397077447154 264.37117032222005 L 223.17116327223204 264.37793143631933 L 223.14204884461745 264.4466214998977 L 223.13914561225243 264.4533340743364 L 223.10906900699985 264.52150161856764 L 223.10607091129762 264.528164453255 L 223.07504016716615 264.59580082101377 L 223.07194807308164 264.6024127564886 L 223.03997122883055 264.6695092906497 L 223.03678599784885 264.67606920621307 L 223.0038710922373 264.74261724965123 L 223.00059358088808 264.74912406141743 L 222.96674865267522 264.8151149570074 L 222.96337971119513 264.8215676158965 L 222.9286127991402 264.8869927065129 L 222.9251532702865 264.8933901961872 L 222.88947241314864 264.95824082470483 L 222.88592313116538 264.96458215946114 L 222.8493363677038 265.0288496687547 L 222.8456981574389 265.0351338913832 L 222.8082135264128 265.09880962432743 L 222.80448720258792 265.1050358039448 L 222.76611274275646 265.16811110341433 L 222.7622991093884 265.17427833327895 L 222.7230428595108 265.2367445421486 L 222.71914270948156 265.24285193747204 L 222.67901270831698 265.3047003986165 L 222.67502682309473 265.3107470943722 L 222.63403110940237 265.3719691506662 L 222.6299602589077 265.3779542994109 L 222.5881068714467 265.4385412937291 L 222.58395181406635 265.4444640634376 L 222.54124879159596 265.5044073386548 L 222.53701027433624 265.5102669105849 L 222.4934656556156 265.5695578095759 L 222.48914441439842 265.5753533761625 L 222.44476623818676 265.63398324180184 L 222.44036299828335 265.6397140045903 L 222.39515930333985 265.6976741797528 L 222.39067477993538 265.70333934738386 L 222.34465360501918 265.7606211749442 L 222.34008850391388 265.7662199611856 L 222.29325788778422 265.82281478401853 L 222.28861290621637 265.82834640586407 L 222.24098088763242 265.88424556684436 L 222.23625671522922 265.8897092426747 L 222.18783133295014 265.94490408467703 L 222.18302865279702 265.950299032495 L 222.13381794558202 266.0047808983941 L 222.1289374354082 266.0101063341387 L 222.0789494420165 266.0638665668093 L 222.07399177549058 266.0691217027558 L 222.0232345346813 266.12215164507256 L 222.01820038281775 266.1273356883192 L 221.96668193335012 266.17962668315687 L 221.96157196601382 266.18473883421154 L 221.909300346647 266.23628222444484 L 221.90411523415912 266.2413216759099 L 221.85109848365232 266.2921088044136 L 221.84583889848497 266.29707473977976 L 221.79208505559737 266.34709694942853 L 221.78675167416003 266.35198854197665 L 221.7322687776508 266.40123717564524 L 221.72686228215431 266.4060535874675 L 221.67165837078267 266.45451998803065 L 221.66617945118068 266.45926036917183 L 221.6102625637058 266.5069358795042 L 221.6047119197067 266.5115993672276 L 221.54809009488775 266.5584753302039 L 221.5424684380288 266.56306104838836 L 221.48514971462498 266.6091288068834 L 221.47945777040405 266.61363586555404 L 221.42145018717457 266.65888676244253 L 221.41568869723025 266.66331425744124 L 221.35700029293426 266.7077396355979 L 221.35117001727156 266.7120866483928 L 221.29180883066826 266.75567785069234 L 221.28591054991526 266.759943448337 L 221.22588461976383 266.8026918176541 L 221.21991913746058 266.8068750528916 L 221.1592365025202 266.84877193210104 L 221.15320464741947 266.85287184362494 L 221.09187334644938 266.89390857560136 L 221.0857759748358 266.8979241884661 L 221.0238040465951 266.9380921160843 L 221.01764204459894 266.94202244227773 L 220.9550375278469 266.9813129084124 L 220.94881181375263 266.9851569475847 L 220.88558274724838 267.02356129511054 L 220.87929427378702 267.0273180354638 L 220.81544869628976 267.0648276072556 L 220.80909845289904 267.0684960265982 L 220.744644403168 267.10510216553064 L 220.73823341821986 267.1086812324901 L 220.69122589999796 267.1344732851457 L 220.69216387972867 267.1342237888537 L 220.6951950665328 267.1334073161896 L 220.70428597562372 267.13092797734663 L 220.7073016581047 267.13009537344556 L 220.7163925671956 267.1275548163596 L 220.71939249916494 267.1267063596584 L 220.72848340825584 267.1241045843293 L 220.73146735176334 267.1232405558528 L 220.74055826085427 267.12057756228074 L 220.74352598624571 267.1196982454029 L 220.75261689533662 267.1169740335878 L 220.75556818122953 267.1160797138153 L 220.76465909032044 267.1132942837571 L 220.76759372362108 267.11238524850154 L 220.77668463271198 267.1095386002004 L 220.77960240861705 267.1086151385543 L 220.78869331770798 267.10570727201 L 220.7915940396627 267.10476967453735 L 220.8006849487536 267.1018005897501 L 220.80356842846297 267.10084914826 L 220.81265933755387 267.0978188452297 L 220.8155253949268 267.0968538525732 L 220.82461630401772 267.09376233129984 L 220.8274647671407 267.0927840811575 L 220.8365556762316 267.08963134164117 L 220.83938638133063 267.08864012831657 L 220.84847729042153 267.0854261705571 L 220.85129008178606 267.0844222887845 L 220.860380990877 267.08114711278205 L 220.86317572083888 267.0801308575169 L 220.87226662992978 267.0767944632714 L 220.87504315876595 267.0757661295097 L 220.88413406785685 267.0723685170212 L 220.88689226373643 267.0713283996055 L 220.89598317282736 267.0678695688739 L 220.8987229117305 267.0668179623121 L 220.9078138208214 267.0632979133375 L 220.91053498646582 267.06223511162057 L 220.91962589555672 267.0586538444029 L 220.92232837928756 267.05758014084086 L 220.9314192883785 267.0539376553802 L 220.9341029891116 267.0528533424191 L 220.9431938982025 267.0491496387154 L 220.94585872229328 267.04805500778764 L 220.95494963138418 267.04429008584094 L 220.95759549255575 267.04318542719454 L 220.96668640164668 267.03935928700474 L 220.96931322085516 267.0382448895623 L 220.97840412994606 267.0343575311295 L 220.98101183530352 267.0332336823265 L 220.99010274439442 267.0292851056506 L 220.99269127101914 267.0281520913081 L 221.00178218011007 267.02414229638924 L 221.0043514700587 267.0230004005555 L 221.0134423791496 267.01892938739354 L 221.0159923812426 267.0177788922356 L 221.0250832903335 267.0136466608306 L 221.02761396007105 267.01248784649096 L 221.03670486916198 267.008294396843 L 221.03921616859427 267.00712754131956 L 221.04830707768517 267.00287287342854 L 221.0507989752685 267.0016982524665 L 221.0598898843594 266.99738236633243 L 221.06236235484099 266.9962002533063 L 221.07145326393191 266.9918231489292 L 221.0739062882163 266.9906338147385 L 221.0829971973072 266.9861954921183 L 221.08543076231595 266.9849992050904 L 221.09452167140685 266.98049966422724 L 221.09693576996037 266.9792966900144 L 221.1060266790513 266.97473593090814 L 221.10842130970835 266.97352653240955 L 221.11751221879925 266.9689045550603 L 221.1198873857467 266.96768899232393 L 221.1289782948376 266.96300579673164 L 221.13133400773108 266.9617843268853 L 221.140424916822 266.95703991305004 L 221.14276119067 266.95581279021513 L 221.1518520997609 266.95100715813675 L 221.15416895475465 266.94977463337415 L 221.16325986384555 266.94490778305277 L 221.16555732525606 266.94367010427914 L 221.174648234347 266.9387420357147 L 221.17692633236211 266.93749944765415 L 221.18601724145302 266.9325101608467 L 221.18827601104462 266.93126290497196 L 221.19736692013552 266.92621239992144 L 221.1996064009217 266.92496071440206 L 221.20869731001264 266.91984899110855 L 221.21091754613036 266.9185931107576 L 221.22000845522126 266.913420169221 L 221.22220949516063 266.91216032546816 L 221.23130040425153 266.90692616568856 L 221.23348230075337 266.90566258652234 L 221.2425732098443 266.9003672084997 L 221.24473601973963 266.89910011844705 L 221.25382692883053 266.8937435221814 L 221.25597071292069 266.8924731422684 L 221.2650616220116 266.88705532775964 L 221.26718644491572 266.8857818754959 L 221.27627735400665 266.8803028427442 L 221.27838328405699 266.8790265320838 L 221.2874741931479 266.873486281089 L 221.28956130223142 266.87220732242724 L 221.29865221132232 266.8666058531894 L 221.30072057476622 266.865324453338 L 221.30981148385715 266.85966176585714 L 221.31186118029854 266.8583781280334 L 221.3185862111554 266.8541438493457 L 221.322534894779 266.8528200572222 L 221.33187977367422 266.84968126635255 L 221.34125860052805 266.84652426455426 L 221.35067080669828 266.8433483314973 L 221.36011582949797 266.84015273386376 L 221.36959311211737 266.8369367252584 L 221.37910210350722 266.8336995461183 L 221.37960772356445 266.8335271010096 L 221.38864225828002 266.830440423604 L 221.38918715898146 266.83025390602234 L 221.39821303657178 266.82715857149145 L 221.39879730181755 266.8269578000682 L 221.4078139039165 266.82385319004595 L 221.4084376228412 266.8236379697768 L 221.4174443310827 266.82052346589705 L 221.41810759789038 266.82029358800406 L 221.42710379390832 266.8171685719008 L 221.427806707722 266.8169238136769 L 221.43679177315028 266.81378766698396 L 221.43753443777481 266.81352779165474 L 221.44650775424736 266.81037989600605 L 221.4472902780011 266.81010465255474 L 221.45625122715182 266.80694438958426 L 221.45707372262922 266.8066535125888 L 221.46602168609203 266.8034802639304 L 221.4668842699194 266.80317347338956 L 221.4758186293282 266.7999866206772 L 221.47672142192883 266.7996636218219 L 221.48564155891754 266.7964625466893 L 221.48658468420365 266.7961230298072 L 221.49548998040618 266.7929071138885 L 221.4964735655302 266.79255075411515 L 221.50536340258043 266.7893193790442 L 221.50638757759162 266.7889458361772 L 221.5152613371235 266.7856983835879 L 221.5163262346586 266.78530730187583 L 221.525183298306 266.782043153402 L 221.5262890532226 266.781634161344 L 221.53512880261943 266.77835269861964 L 221.5362755516376 266.7779254087497 L 221.5450973684178 266.77462601340864 L 221.54628524971196 266.7741800220887 L 221.5550885155094 266.7708620757649 L 221.55631766830538 266.7703969629644 L 221.565101764754 266.7670598472918 L 221.56637232887067 266.7665751763788 L 221.57513663760437 266.7632182729913 L 221.57644875299812 266.7627135905128 L 221.58519265565081 266.7593362810443 L 221.58654646190908 266.7588111165168 L 221.59526934011467 266.7554127826012 L 221.59666497594208 266.75486664829606 L 221.60536621133446 266.75144667156724 L 221.60680381399888 266.7508790623034 L 221.61548278821198 266.7474368243953 L 221.61696249297023 266.74684721733325 L 221.62561858763797 266.74338209987974 L 221.62714052710677 266.7427699543308 L 221.63577312386303 266.73928133896584 L 221.63733742739717 266.73864609619375 L 221.64594590787584 266.73513336455125 L 221.64755270088222 266.73447444759455 L 221.65613644671728 266.7309369813084 L 221.65778584994536 266.73025379480964 L 221.66634424277066 266.72669097551375 L 221.66803637157014 266.7259829055602 L 221.67656879301958 266.72239411488846 L 221.67830375654992 266.72166052887235 L 221.6868095882575 266.7180451484587 L 221.68858748869596 266.7172853949383 L 221.6970661122955 266.7136428064166 L 221.698887043944 266.7128562150229 L 221.70733784106943 266.7091858000271 L 221.7092018894954 266.7083716813606 L 221.7176242417806 266.7046728215246 L 221.7195314828583 266.7038304670998 L 221.7279247719372 266.70010254405753 L 221.72987527088782 266.6992312262575 L 221.73823887839438 266.6954736216428 L 221.74023268875754 266.69457259371325 L 221.74856599632562 266.6907846891601 L 221.7506031589162 266.6898531852231 L 221.7589055481797 266.68603436236543 L 221.76098608997623 266.68507159747907 L 221.7692569425691 266.6812212379507 L 221.77138087556867 266.6802264082023 L 221.77961957312476 266.67634389363724 L 221.78178689317446 266.67531617626804 L 221.78999281732774 266.67140088830007 L 221.79220350287224 266.67033944189365 L 221.8003760352566 266.66639076215677 L 221.80263004608645 266.6652947268541 L 221.81076856833576 266.6613120369822 L 221.81306584426508 266.6601805347626 L 221.8211697380133 266.65616321638964 L 221.8235101975248 266.6549953514018 L 221.8315788444058 266.6509427861616 L 221.8339623832481 266.649737645118 L 221.8419951648958 266.6456492146445 L 221.84442165465023 266.6444058672746 L 221.85241795269857 266.64028095320174 L 221.85488723931456 266.6389984527689 L 221.86284643539742 266.63483643673055 L 221.86535833766263 266.6335138206356 L 221.87327981341392 266.6293140842656 L 221.87583412140117 266.62795037472165 L 221.8837172584548 266.6237122996541 L 221.8863137319675 266.62230650442547 L 221.8941579119574 266.61802947229415 L 221.89679627889691 266.6165805855466 L 221.90460088345694 266.61226397798544 L 221.90728083818442 266.6107709812153 L 221.91504524894853 266.6064141798582 L 221.9177664506362 266.60487604290984 L 221.92549004923828 266.6004784293907 L 221.92825212018204 266.59889411158355 L 221.93593428825602 266.5944550675363 L 221.93873681217605 266.59282351889476 L 221.94637693135581 266.58834242595333 L 221.94921945171225 266.5866625885306 L 221.9568169036317 266.5821388283288 L 221.95969892188612 266.58040963767246 L 221.9672530881792 266.5758425918443 L 221.9701740621247 266.5740629785392 L 221.97768432442527 266.56945202871856 L 221.98064366646167 266.56762092008785 L 221.98810940640368 266.56296544790865 L 221.991106481878 266.56108176980945 L 221.99852708109538 266.5563811569056 L 222.00156120664568 266.55444383566345 L 222.00893604677228 266.54969746366885 L 222.01200648870017 266.5477054281444 L 222.0193349513699 266.5429126786929 L 222.02244092406065 266.5408648624775 L 222.02972239090747 266.53602511720317 L 222.03286305533413 266.5339204609253 L 222.04009690799194 266.52903310146183 L 222.04327137021212 266.52687055527434 L 222.05045699031479 266.5219349632558 L 222.05366430011122 266.5197134894105 L 222.06080106929267 266.5147290464708 L 222.06404021887525 266.5124476220419 L 222.0711275187694 266.50741370981484 L 222.07439744154448 266.5050713295759 L 222.08143465378524 266.49998732969544 L 222.08473422328868 266.4975830090882 L 222.09172072950997 266.49244830318827 L 222.09504875842998 266.48998108144093 L 222.10198394026568 266.4847950511554 L 222.10533917959793 266.48226399452614 L 222.11222241868197 266.477026021489 L 222.115603557069 266.4744302266003 L 222.12243423503526 266.46913969244537 L 222.1258398982228 266.4664782897624 L 222.13261739670523 266.4611345761236 L 222.13604614721947 266.4584067335015 L 222.14276984785195 266.4530092220127 L 222.14622018484144 266.4502141483558 L 222.1528894692579 266.4447622206511 L 222.15635982856546 266.44189916963364 L 222.1629740783998 266.4363922073467 L 222.16646283280966 266.4334604812373 L 222.171894615391 266.4288535634673 L 222.18547506699983 266.4231160435747 L 222.18709236342525 266.42242941082384 L 222.20223078982784 266.4159708861835 L 222.2038484445334 266.41527737635386 L 222.21898254237334 266.40875763347043 L 222.2206006394057 266.4080571750048 L 222.2357297903169 266.40147621387837 L 222.2373484122214 266.40076873393724 L 222.2524719978378 266.39412655456783 L 222.25409122565807 266.39341197903445 L 222.26920862761355 266.38670858142194 L 222.27082854088613 266.3859868349089 L 222.2859391408146 266.3792222190534 L 222.2875598175959 266.3784932248943 L 222.30266299713128 266.3716673907957 L 222.30428451397634 266.3709310710579 L 222.31937965475254 266.3640440187163 L 222.32100208673904 266.3633002941921 L 222.33608857038996 266.3563520236075 L 222.33771199111013 266.35560081382016 L 222.35278919926967 266.34859132499247 L 222.35441368082385 266.3478325482005 L 222.36948099512594 266.34076184112973 L 222.37110660813485 266.339995414322 L 222.38616341021338 266.3328634890083 L 222.38779022381397 266.33208932790643 L 222.40283589530287 266.32489618434965 L 222.40446397714078 266.3241142034113 L 222.41949789967393 266.31685984161146 L 222.4211273159026 266.31606995403024 L 222.43614887111391 266.3087543739874 L 222.4377796863979 266.30795649169033 L 222.45278825592132 266.3005796934044 L 222.4544205334161 266.29977372706 L 222.46941549888552 266.2923357105311 L 222.47104930025023 266.29152156954154 L 222.48603004329954 266.2840223347696 L 222.48766542867503 266.28319992727864 L 222.50263133093816 266.27563947426364 L 222.50426835894788 266.274808707154 L 222.5192188020587 266.267187035896 L 222.52085752979585 266.2663478147924 L 222.53579189538831 266.2586649252913 L 222.53743237840902 266.25781715456054 L 222.552350048117 266.25007304681645 L 222.55399234043105 266.2492166295681 L 222.5688926958885 266.24141130358095 L 222.57053684994435 266.24054614167096 L 222.58541927278515 266.2326795974408 L 222.58706533945954 266.23180559147244 L 222.60192921131758 266.2238778289992 L 222.60357723990114 266.22299487832595 L 222.61842194241038 266.21500589760973 L 222.62007198060198 266.2141139003328 L 222.63489689539628 266.20606370137347 L 222.63654898927055 266.2051625543539 L 222.65135349798385 266.19705113715156 L 222.65300769199646 266.1961407360019 L 222.66779117626265 266.18796810055653 L 222.66944751321745 266.1870483396526 L 222.68420935467046 266.1788144859642 L 222.6858678757104 266.177885258444 L 222.70060745598408 266.16959018651255 L 222.70226820056712 266.16865138428346 L 222.71698490129546 266.160295094109 L 222.7186479071845 266.1593466078467 L 222.73334111000136 266.1509290994292 L 222.73500641323218 266.1499708185891 L 222.74967549977148 266.14149209192857 L 222.7513431346397 266.1405239047464 L 222.76598748653535 266.1319839598428 L 222.7676574855714 266.13100575334215 L 222.7822764844573 266.1224045901955 L 222.78394887840312 266.1214162501942 L 222.79854190591323 266.1127538688046 L 222.80021672370563 266.11175527991725 L 222.81478316147377 266.1030316802845 L 222.81646043020234 266.10202272594006 L 222.83099965986247 266.09323790806434 L 222.83267940476574 266.0922184705013 L 222.8471908079518 266.0833724343825 L 222.84887305237496 266.08234239466685 L 222.86335601072076 266.0734351403051 L 222.86504077609678 266.0723943783345 L 222.87949467123633 266.0634259057296 L 222.88118197704992 266.0623743002483 L 222.89560619061706 266.0533446094004 L 222.89729605438635 266.0522820380034 L 222.91168996801505 266.04319112891244 L 222.91338240524985 266.042117468064 L 222.92774540057397 266.0329653407301 L 222.929440424755 266.0318804657704 L 222.94377188340846 266.0226671201935 L 222.94546950595276 266.0215709053533 L 222.95976880956948 266.0122963415333 L 222.96146903979013 266.01118865995306 L 222.97573557000402 266.00185287789003 L 222.9774384150925 266.000733601625 L 222.99167155353746 265.99133660131884 L 222.99337701851096 265.9902056013668 L 223.0075761468209 265.9807473828177 L 223.00928423450515 265.97960452912486 L 223.02344873431394 265.97008509233274 L 223.0251594452975 265.96893025381775 L 223.03928869823912 265.9593495987825 L 223.0410020308338 265.95818264335793 L 223.05509541854212 265.9485407700797 L 223.05681136875913 265.94736156466314 L 223.07086827286807 265.9376584731418 L 223.0725868343621 265.9364668836894 L 223.0866066365056 265.92670257392507 L 223.08832780055468 265.9254984654412 L 223.10230988236657 265.91567293743384 L 223.10403363781626 265.9144561740064 L 223.11797738093048 265.90456942775603 L 223.1197037141672 265.90333987257196 L 223.1336085002177 265.8933919080785 L 223.13533739511414 265.89214942345984 L 223.14920260573479 265.8821402407234 L 223.15093404362304 265.88088468814453 L 223.16475906044775 265.87081428716505 L 223.16649302006545 265.8695455272905 L 223.18027722472812 265.85941390806795 L 223.1820136821802 265.85813180077946 L 223.1957564563148 265.8479389633139 L 223.19749538503075 265.8466433677422 L 223.21119611027112 265.83638931203365 L 223.21293748096275 265.83508008659095 L 223.2265955389428 265.8247648126393 L 223.2283393195492 265.82344181506204 L 223.2419540919029 265.8130653228674 L 223.24370024756254 265.81172841024073 L 223.25727111592374 265.801290699803 L 223.2590196089139 265.79993972861047 L 223.2725459549165 265.7894407999297 L 223.2742967446125 265.7880756260896 L 223.28777794989048 265.77751547916586 L 223.28953099272604 265.7761359580683 L 223.30296643891324 265.76551459290147 L 223.3047216883183 265.7641205794642 L 223.31811075704866 265.75343799605434 L 223.3198681634197 265.75202934475465 L 223.33321023632712 265.74128554310175 L 223.3349697469669 265.7398621080348 L 223.3482642056853 265.72905708813886 L 223.35002576476097 265.7276187230621 L 223.36327199092423 265.7167524849232 L 223.36503553942052 265.7152990433078 L 223.3782329146626 265.7043715869258 L 223.3799983903273 265.7029029220153 L 223.39314629628205 265.6919142473903 L 223.3949136335869 265.69043021224905 L 223.40801145188829 265.679380319381 L 223.40978058197535 265.6778807669566 L 223.42282769425722 265.6667696558455 L 223.42459854488928 265.6652544390301 L 223.4375943327856 265.6540821096759 L 223.4393668283038 265.65255108136375 L 223.45231067344844 265.6413175337666 L 223.4540847347211 265.63977054692117 L 223.46697601874797 265.62847578108097 L 223.46875156312208 265.62691268880275 L 223.48158966766513 265.61555670471944 L 223.48336660891934 265.61397736031427 L 223.49615091561242 265.60256015798797 L 223.49792916391218 265.60096441503714 L 223.51065905438924 265.58948599446785 L 223.51243851624122 265.58787370690044 L 223.52511337213616 265.57633406808804 L 223.52689395033326 265.5747050902655 L 223.53951315327998 265.56310423321014 L 223.5412947468686 265.5614584199933 L 223.553857678501 265.54979634469487 L 223.5556401827252 265.5481335515351 L 223.56814622467724 265.5364102579936 L 223.5699295309424 265.53473034100955 L 223.58237806484792 265.522945829225 L 223.58416206067076 265.5212486452946 L 223.5965524681637 265.509402915267 L 223.59833703713474 265.5076883221123 L 223.61066869984901 265.49578137384174 L 223.61245372159092 265.4940492301202 L 223.62472602116046 265.4820810636066 L 223.626511371285 265.48033122900773 L 223.6335574163887 265.47339072949256 L 223.64345503254884 265.465436545269 L 223.64518585116642 265.4640392309067 L 223.67530450531325 265.43961315193513 L 223.67703463908288 265.43820360995784 L 223.7070296200114 265.41365509450026 L 223.70875897704138 265.4122332759011 L 223.7386296663856 265.38756232395735 L 223.74035815322262 265.38612818078195 L 223.7701039326164 265.36133479235224 L 223.77183145425124 265.35988827773133 L 223.80145170532847 265.3349724528155 L 223.8031781651908 265.3335135210076 L 223.83267226958543 265.3084752596057 L 223.83439756955087 265.30700386603036 L 223.86376490889677 265.28184316814236 L 223.86548894928583 265.28035926942175 L 223.89472890521697 265.2550761350477 L 223.89645158480377 265.25357968904024 L 223.92556353895398 265.2281741181801 L 223.92728475496452 265.2266650840243 L 223.95626808896773 265.20113707667815 L 223.95798773709058 265.1996154148271 L 223.98684183258072 265.17396497099486 L 223.9885598069698 265.1724306432581 L 224.0172840455808 265.14665776293975 L 224.01900023886407 265.1451107325211 L 224.04759400222977 265.1192154157167 L 224.04930830551675 265.1176556472545 L 224.07777097527114 265.091637893964 L 224.07948327816197 265.09006535357025 L 224.1078142359389 265.0639251637937 L 224.109524426534 265.0623398190947 L 224.13772305396742 265.03607719283207 L 224.13943101887924 265.0344790130073 L 224.16749669760299 265.00809395025857 L 224.16920232196483 265.0064829060836 L 224.1971344336129 264.97997540684884 L 224.19883760109678 264.97835147073107 L 224.22663552730305 264.9517215350102 L 224.22833612012906 264.9500846810335 L 224.25599924252742 264.92333230882656 L 224.25769714148012 264.92168251278986 L 224.2852248417045 264.8948077040969 L 224.28691992615012 264.89314494355347 L 224.3143115858344 264.8661476983744 L 224.316003733735 264.8644719526752 L 224.34325873451309 264.8373522710101 L 224.34494782244786 264.8356635213408 L 224.37206554595372 264.8084214031896 L 224.37375144913568 264.80671963261307 L 224.4007312770032 264.77935507797577 L 224.40241386930026 264.77764027147174 L 224.4292551831633 264.7501532803484 L 224.4309343371201 264.7484254248528 L 224.45763651861262 264.7208159972434 L 224.4593121054724 264.7190750816891 L 224.4858745362283 264.69134321759356 L 224.4875464259565 264.6895892329497 L 224.51396848760967 264.6617349323681 L 224.51563654892 264.6599678716785 L 224.54191762310435 264.6319911346108 L 224.5435817234822 264.6302109930355 L 224.56972119183163 264.6021118194818 L 224.57138119756453 264.60031859433246 L 224.59737844171298 264.57209698429267 L 224.59903421791535 264.5702906750748 L 224.62488861949672 264.54194662854894 L 224.62654003014325 264.5401272369958 L 224.65225097079144 264.5116607539838 L 224.65389787874312 264.5098282840989 L 224.67946474009204 264.48123936460087 L 224.6811070071324 264.47939382269067 L 224.70652917081597 264.4506824667066 L 224.70816665768228 264.44882386141876 L 224.7334435053344 264.4199900689486 L 224.73507607175117 264.4181184113094 L 224.76020698500574 264.3891621823532 L 224.76183448972083 264.38727748580186 L 224.78681885021174 264.3581988203596 L 224.78844115103382 264.3563011007826 L 224.81327834039504 264.32709999885424 L 224.81489529423007 264.3251892746209 L 224.8395846940955 264.2958657362065 L 224.8411961569878 264.2939420282002 L 224.8657371489913 264.26449605329964 L 224.86734297615928 264.26255938495547 L 224.89173494193477 264.2329909735689 L 224.8933349878193 264.2310413708979 L 224.91757730900068 264.2013505230252 L 224.9191714272997 264.1993880146545 L 224.94326348552093 264.1695747302958 L 224.94485152924034 264.1675993474902 L 224.96879270613528 264.1376636266454 L 224.9703745276289 264.1356754033429 L 224.99416420483152 264.10561724601195 L 224.9957396558485 264.10361621885 L 225.01937721499263 264.0734356250331 L 225.0209461467264 264.07142183337373 L 225.04443096944598 264.0411188030707 L 225.0459932325782 264.03909228903206 L 225.06932470050717 264.00866682224296 L 225.07088014526207 264.00662763071836 L 225.0940576400343 263.97607972744316 L 225.09560611622467 263.97402790613006 L 225.1186290194741 263.94335756636883 L 225.1201703765563 263.9412931657877 L 225.1430380699168 263.9105003895404 L 225.1445721570397 263.9084234630602 L 225.1672840221452 263.8775082503268 L 225.16881068820578 263.87541885418307 L 225.1913661066902 263.8443812049636 L 225.19288520038847 263.8422793982764 L 225.21528355388568 263.81111931257084 L 225.21679492377723 263.8090051573661 L 225.23903559392116 263.7777226351745 L 225.24053908847645 263.7755961963964 L 225.26262145690103 263.7441912377187 L 225.26411692456062 263.74205258324747 L 225.28604037289975 263.7105251880837 L 225.28752766213256 263.7083743887477 L 225.30929157202013 263.6767245570979 L 225.31077053138316 263.6745616866854 L 225.3323742844531 263.6427894185495 L 225.3338447626497 263.64061455382006 L 225.35528774053589 263.6087198491981 L 225.3567495864769 263.60653306989053 L 225.37803117081327 263.5745159287825 L 225.3794842336779 263.5723173176224 L 225.4006038060984 263.54017774002824 L 225.40204793539584 263.53796738273337 L 225.42300487753428 263.50570536865314 L 225.4244399231652 263.5034833539389 L 225.44523361665557 263.47109890337265 L 225.4466594289772 263.46886532295076 L 225.46728925545335 263.43635843589846 L 225.46870568534038 263.43411338448124 L 225.48917102643628 263.40148406094283 L 225.4905779253465 263.3992276362394 L 225.51087816269603 263.3664758762149 L 225.51227538273358 263.3642081789297 L 225.5324098979706 263.3313339824191 L 225.5337972919508 263.3290551162472 L 225.5537654667093 263.2960584832506 L 225.5551428882251 263.2937685548682 L 225.57494410413898 263.26064948538556 L 225.57631140762527 263.2583486044438 L 225.59594504632838 263.225107098475 L 225.59730208712602 263.2227953775917 L 225.6167675302523 263.18943143513684 L 225.6181141646769 263.18710898987933 L 225.63741079386028 263.15362261093844 L 225.63874687926665 263.1512895598119 L 225.657874076141 263.1176807443849 L 225.6591994709884 263.1153372088173 L 225.67815661718768 263.08160595690424 L 225.67947118110717 263.07925206122616 L 225.69825765826522 263.04539837282704 L 225.69956125212423 263.0430342442539 L 225.71817644187502 263.00905811936866 L 225.7194689278447 263.00668388797607 L 225.7379122118221 262.97258532660476 L 225.73919345344135 262.970201125308 L 225.7574642132793 262.93598012745065 L 225.7587340755218 262.9335860919753 L 225.7768316928542 262.8992426576319 L 225.77809004219216 262.8968389264895 L 225.79601389865292 262.86237305566 L 225.7972606031228 262.85995977011606 L 225.8150100803458 262.8253714628005 L 225.8162450096122 262.8229487668439 L 225.83381948923136 262.7882380230423 L 225.83504251465158 262.78580606335095 L 225.85244137830082 262.7509728830632 L 225.853652372987 262.7485318089703 L 225.87087500230024 262.7135761921965 L 225.87207384118375 262.7111261556507 L 225.88911961779488 262.67604810239084 L 225.89030617768773 262.6735892579181 L 225.90717448323065 262.6383887681721 L 225.90834864288558 262.6359212728373 L 225.92503885899424 262.60059834660535 L 225.92620049916903 262.59812235996174 L 225.94271200747727 262.5626769972436 L 225.94386101098945 262.5601926812986 L 225.96019319313126 262.52462488209443 L 225.9613294449222 262.52213240125224 L 225.97748168253142 262.48644216556204 L 225.97860506972046 262.4839416865829 L 225.99457674443104 262.44812901440656 L 225.99568715637412 262.4456207063533 L 226.01147764981994 262.4096855976909 L 226.0125749781653 262.4071696318773 L 226.0281836719803 262.3711120867289 L 226.0292678107231 262.368588636666 L 226.04469408654117 262.3324086550315 L 226.045764932077 262.3298778963728 L 226.06100817153205 262.2935754782522 L 226.0605871246278 262.29339868234945 L 226.06576443238373 262.28183369744437 L 226.08124317053276 262.2356650685166 L 226.09321133704637 262.1932105261539 L 226.09415557747224 262.1898152603628 L 226.1058176527707 262.1473013548553 L 226.10673751897502 262.1439010937299 L 226.11809350305828 262.1013296801759 L 226.11898900199128 262.09792452687566 L 226.13003889485935 262.0552974603735 L 226.13091003303023 262.0518875159239 L 226.14165383468313 262.0092066515718 L 226.1425006180889 262.0057920149216 L 226.1529383285266 261.9630592078178 L 226.15376076258278 261.95963997589655 L 226.1638923818053 261.91685708113937 L 226.16469047127862 261.9134333489166 L 226.17451599928594 261.8706022216043 L 226.1752897482284 261.8671740821523 L 226.18480918502058 261.82429657738317 L 226.18555859670678 261.8208641219361 L 226.19477194228375 261.77794209480834 L 226.19549701914792 261.7745054128319 L 226.20440427350974 261.7315407184439 L 226.20510501708742 261.72809989769456 L 226.21370618023403 261.6850943911445 L 226.2143825911029 261.6816495177429 L 226.22267766303432 261.63860505412913 L 226.22332974075948 261.63515621262445 L 226.23131872147576 261.5920746470452 L 226.23194646455576 261.58862192048537 L 226.23962935405683 261.5455051080389 L 226.24023275987142 261.5420485780443 L 226.2476095581573 261.49889837382887 L 226.2481886229184 261.495438120662 L 226.25525932998912 261.4522563797759 L 226.25581404869286 261.44879248241637 L 226.26257866454836 261.40558105995797 L 226.2631090309295 261.4021135961773 L 226.26956755556986 261.35887434724475 L 226.27007356205883 261.35540339368094 L 226.276225995484 261.31213817337255 L 226.27670763316496 261.3086638056088 L 226.28255397537492 261.26537446902285 L 226.2830112339469 261.2618967616658 L 226.2885514849417 261.21858516390057 L 226.28898435268178 261.2151041906567 L 226.29421851246138 261.1717721868105 L 226.29462697618936 261.1682880205699 L 226.2995550447538 261.1249374657409 L 226.29993908979984 261.121450178656 L 226.3045610671491 261.07808292794255 L 226.30492067732342 261.07459259150943 L 226.3092365634575 261.0312105000098 L 226.30957172102163 261.02771718515413 L 226.3135815159405 260.98432210796653 L 226.31389220158172 260.98082588512386 L 226.3175959052854 260.9374196773467 L 226.31788209809267 260.93392061654964 L 226.3212797105812 260.89050513328107 L 226.32154138802397 260.88700330424166 L 226.32463290929732 260.84358040058 L 226.3248700472061 260.84007587277836 L 226.32765547726427 260.7966474038219 L 226.32786804981376 260.79314024659124 L 226.33034738865672 260.7497080674382 L 226.33053536835132 260.74619835005404 L 226.33270861597913 260.70276431580277 L 226.3328719736407 260.69925210756713 L 226.3347391300533 260.65581807331586 L 226.3348778348112 260.65230344365057 L 226.33643890000863 260.6088712644975 L 226.3365529192924 260.60535428302967 L 226.33780789327463 260.5619258140732 L 226.33789719280864 260.5584065507266 L 226.33884607557573 260.5149836470649 L 226.3389106193768 260.51146217214796 L 226.33955341092866 260.4680466888794 L 226.33959316130563 260.4645230731804 L 226.33992986164233 260.4211168654032 L 226.3399447791984 260.41759118027477 L 226.3399753883199 260.37419610308723 L 226.33996543195727 260.37066842054264 L 226.3396899498636 260.32728632904303 L 226.33965507679068 260.32375672184554 L 226.33907350348184 260.2803894711321 L 226.33901366922302 260.2768580128869 L 226.33812600469898 260.23350745805794 L 226.33804116310696 260.2299742233061 L 226.33684740736777 260.1866422194599 L 226.33673751063824 260.1831072837667 L 226.33523766368384 260.13979568600143 L 226.33510266237312 260.1362591260537 L 226.33329672420354 260.09296978946776 L 226.3331365672484 260.0894316831626 L 226.33102453786364 260.0461664628542 L 226.33083917260416 260.04262688939326 L 226.32842105200422 259.9993876404607 L 226.32821042420906 259.9958466804425 L 226.32548621239394 259.95263525798407 L 226.3252502662883 259.9490929934966 L 226.322219963258 259.90591125261057 L 226.32195864155432 259.9023677673236 L 226.31862224730884 259.8592175631082 L 226.3183354912403 259.8556729423657 L 226.31469300577965 259.81255612991924 L 226.31438075513626 259.80901046083125 L 226.3104321784604 259.76592889525193 L 226.31009437162805 259.7623822667876 L 226.30583970373704 259.7193378031738 L 226.30547627773896 259.7157903062501 L 226.30091551863273 259.6727847997001 L 226.30052640917444 259.66923652727735 L 226.29565955885306 259.6262718328893 L 226.2952447003691 259.6227228800565 L 226.2900717588325 259.57980085292877 L 226.2896310845373 259.57625131699945 L 226.28415205178553 259.5333738122303 L 226.28368549372598 259.5298237928279 L 226.27790036975904 259.4869926655156 L 226.27740785887053 259.4834422646642 L 226.2713166436884 259.440659369907 L 226.27079810985387 259.4371086921199 L 226.26440080345657 259.39437588501613 L 226.263856175568 259.39082503738274 L 226.25715277795553 259.3481441730306 L 226.25658198397872 259.3445932653033 L 226.24957249515106 259.3019661988011 L 226.2489754621932 259.2984153434807 L 226.24165988215032 259.25584392992675 L 226.24103653653083 259.252293242349 L 226.2334148652728 259.20977933684156 L 226.23276513259626 259.20622893525706 L 226.22483737012303 259.1637743928943 L 226.22416117535644 259.1602243985555 L 226.21592732166806 259.11783107443586 L 226.21522458921962 259.11428161167424 L 226.20668464431603 259.07195136089587 L 226.20595529811817 259.0684025572048 L 226.1971092619994 259.02613723486604 L 226.19635322559392 259.0225892209776 L 226.18720109825998 258.9803906821766 L 226.18641829488647 258.9768435921383 L 226.17696007633734 258.9347136919735 L 226.17615042902474 258.93116766322464 L 226.16638611926044 258.88910825679426 L 226.1655495509213 258.8855634302384 L 226.1554791499418 258.8435763726407 L 226.15461558346976 258.84003289271794 L 226.1442390912751 258.7981200390512 L 226.1433484496449 258.7945780538071 L 226.13266586623502 258.7527412591695 L 226.13174807260626 258.7492009203243 L 226.12075939798123 258.7074420398143 L 226.1198143758037 258.7039035028257 L 226.10851960996348 258.6622243915415 L 226.1075472830874 258.65868781567207 L 226.09594642603201 258.61709032871187 L 226.0949467188185 258.61355587708454 L 226.0830397705479 258.57204186954664 L 226.08201260798506 258.5685097092084 L 226.0697995684993 258.5270810361911 L 226.06874487631885 258.52355133816474 L 226.0562257456179 258.4822098547663 L 226.05514345041615 258.47868279410613 L 226.04231822850002 258.43743035542485 L 226.04120825786032 258.43390611126483 L 226.028076944729 258.392744572399 L 226.02693922734818 258.389223328002 L 226.0135018230017 258.3481545440498 L 226.01233628881744 258.3446364868493 L 225.99859279325577 258.3036623129091 L 225.9973993735785 258.3001476345525 L 225.98334978680163 258.25926992572255 L 225.98212841444766 258.2557588221082 L 225.96777273645563 258.21497943348675 L 225.96652334588214 258.2114721047956 L 225.9518615766749 258.1707928914809 L 225.95058410411957 258.1672895422113 L 225.93561624369715 258.1267123593017 L 225.9343106273176 258.1232131982929 L 225.91903667568002 258.0827399008866 L 225.9177028556963 258.079245141342 L 225.90212281284352 258.0388775845374 L 225.90076073168404 258.0353874440462 L 225.8848745976161 257.9951274829414 L 225.8834842000633 257.9916421834907 L 225.86729197478016 257.951491673184 L 225.86587320811918 257.9480114411699 L 225.84937489162087 257.90797223675975 L 225.8479277057909 257.904497302996 L 225.83112329807742 257.8645712595805 L 225.8296476458225 257.8611018592967 L 225.8125371468938 257.8212908319742 L 225.81103298391784 257.81782720481755 L 225.793616393774 257.7781330486863 L 225.79208367889427 257.7746754387097 L 225.77436099753524 257.735100008868 L 225.77279969284004 257.73164866452134 L 225.76547579963542 257.7156207793566 L 225.7461382714092 257.65835909438346 L 225.74486543061874 257.65463833077206 L 225.7166765939818 257.57328289291223 L 225.7153730900626 257.56956820460437 L 225.68657578119183 257.48852504162056 L 225.6852415955264 257.4848166825799 L 225.6558376695201 257.40408888630265 L 225.65447278542487 257.40038711151203 L 225.6244640973813 257.3199777737718 L 225.62306850013962 257.3162828392618 L 225.59245690515704 257.23619505188907 L 225.59103058205395 257.2325072147663 L 225.55981793523065 257.15274406959145 L 225.55836087558978 257.1490635880659 L 225.52654903202404 257.0696281769195 L 225.52506122724756 257.0659553103337 L 225.49265204203763 256.9868507250461 L 225.4911334856471 256.9831857339007 L 225.45812881389128 256.90441506630236 L 225.4565795015715 256.9007582122828 L 225.42298119836806 256.8223245542042 L 225.42140112801252 256.8186761002056 L 225.38721104845973 256.7405825434772 L 225.38560022021895 256.7369427536298 L 225.35082021941506 256.6591923900821 L 225.3491786357466 256.65556152977496 L 225.31381056878993 256.5781574512383 L 225.31213823450963 256.5745357871393 L 225.27618395649841 256.4974810854443 L 225.27448087883613 256.49386888552516 L 225.23794224486866 256.41716665250215 L 225.23620843352344 256.4135641860554 L 225.19908729869798 256.3372175135348 L 225.19732276589713 256.3336250511941 L 225.159620985312 256.2576370310065 L 225.15782574587112 256.2540548447625 L 225.1195451746245 256.1784285687383 L 225.11771924601086 256.17485693195624 L 225.07886173920113 256.0995954919259 L 225.0770051415969 256.096034679357 L 225.03757255432225 256.021141167151 L 225.03568531069234 256.01759145494714 L 224.9956794980511 255.94306896239584 L 224.9937616342101 255.93953062811755 L 224.9531844513005 255.8653822470515 L 224.95123599598426 255.8618555696785 L 224.9100892979046 255.78808439192815 L 224.90811028284142 255.78456965186422 L 224.86639592468998 255.71117876926 L 224.86438638467436 255.707676248337 L 224.82210622154938 255.6346687527094 L 224.82006619451838 255.6311787341908 L 224.77722208151815 255.5585577173702 L 224.7751516086275 255.5550804859487 L 224.73174540085034 255.48284903976563 L 224.72964452655359 255.47938488156103 L 224.6856780790977 255.4075460978459 L 224.68354685122668 255.40409530040014 L 224.63902201919035 255.33265227098343 L 224.63686048903662 255.32921512325206 L 224.59177912751818 255.25817093996423 L 224.58958734991558 255.25474773230496 L 224.54395131401324 255.18410548697648 L 224.54172934742294 255.18069651113694 L 224.495540492235 255.11045929559822 L 224.49328839883032 255.1070648446983 L 224.44654857945505 255.03723575077981 L 224.44426642520807 255.0338561192924 L 224.39697749674374 254.96443823882464 L 224.39466535151317 254.96107372255355 L 224.34682916905808 254.89207014736695 L 224.34448710667684 254.8887210434202 L 224.2961055253292 254.82013486534518 L 224.29373362369452 254.81680147210704 L 224.2448084985527 254.7486357829741 L 224.24240683971493 254.74531840007174 L 224.19294002587714 254.67757629171132 L 224.19050869613073 254.6742752199797 L 224.14050204869525 254.60695978422228 L 224.13804113866945 254.60367532566514 L 224.08749651273456 254.53678965434113 L 224.08500611748408 254.53352211208747 L 224.03392536814806 254.46706929702736 L 224.03140558724462 254.4638189752859 L 223.97979056960574 254.39780210832015 L 223.97724150722905 254.3945693123288 L 223.92509407638556 254.32899148528787 L 223.9225158414151 254.32577652126088 L 223.8698378524653 254.2606408259752 L 223.8672305585702 254.25744400104435 L 223.81402386661236 254.19275352934437 L 223.81138763234267 254.18957515149887 L 223.75765409247506 254.1253329952151 L 223.7549890413517 254.1221733732363 L 223.70073050867262 254.05838262419914 L 223.69803676927583 254.05524206759057 L 223.64325509888351 253.9919058176305 L 223.64053280494264 253.98878463654646 L 223.58522985193537 253.92590597749393 L 223.58247914241497 253.92280448266115 L 223.52665676189102 253.86038650634666 L 223.52387778107814 253.8573050089848 L 223.4675378281358 253.79535080723875 L 223.46473072572405 253.79228961897428 L 223.4078750554616 253.73080228362713 L 223.4050399866348 253.72776171640498 L 223.34767045415046 253.66674433928722 L 223.34480757966517 253.66372470527887 L 223.2869260400573 253.6031803782209 L 223.28403552632105 253.60018198972566 L 223.22564383468784 253.540113804558 L 223.22272585383877 253.53713697390407 L 223.16382586527854 253.47754802245714 L 223.16088059525975 253.47459306189577 L 223.10147416487078 253.41548643600004 L 223.09850178950404 253.41255365759696 L 223.03859077238457 253.3539324490829 L 223.03559148144154 253.3510221646063 L 222.97517773268987 253.2928894653043 L 222.97215172195877 253.29000198610726 L 222.91123709667315 253.23236088784788 L 222.90818456802563 253.22949652474955 L 222.84677092130437 253.17235011936316 L 222.84369208275538 253.16950918252294 L 222.78178126969672 253.11286056184005 L 222.77867633546518 253.11004336063172 L 222.71627021116743 253.05389561648275 L 222.7131394017297 253.05110245936126 L 222.65023982129108 252.9954586835767 L 222.64708336343412 252.99268987794497 L 222.58369218195296 252.93755316235524 L 222.58051030882064 252.9348090144243 L 222.51662938139518 252.88018245085988 L 222.513422332533 252.87746326550808 L 222.44905351426152 252.8233499457994 L 222.4458215356556 252.82065602642678 L 222.38096668163635 252.76705904240433 L 222.3777100257495 252.76439069078518 L 222.31237099108083 252.7113131342794 L 222.309089916882 252.70867065041017 L 222.2432685566621 252.65611561325153 L 222.23996332965376 252.65349929519758 L 222.17366149898095 252.60146986921652 L 222.17033239121943 252.59888001295465 L 222.10355194519198 252.54737928998162 L 222.10019923530388 252.5448161892409 L 222.03294202902003 252.49384726110637 L 222.0295660022138 252.4913112072064 L 221.96183389077189 252.44087716574083 L 221.95843483884292 252.43836844742702 L 221.89022967734115 252.38847238446087 L 221.88680789867274 252.38599128773862 L 221.81813154220941 252.33663629510232 L 221.81468734176713 252.33418310306837 L 221.74554164544054 252.2853722725924 L 221.7420753347616 252.28294726526488 L 221.67246215367 252.23468368877968 L 221.66897405084617 252.23228714292625 L 221.5988952400878 252.18457391226232 L 221.595385669744 252.1822061012281 L 221.52484308441723 252.13504630821583 L 221.5213123776802 252.13270750174723 L 221.4503078728832 252.08610423821713 L 221.4467563673503 252.0837947022893 L 221.37529179818142 252.0377510600718 L 221.37171983787604 252.03547105671032 L 221.29979705943353 251.9899901276359 L 221.29620499476056 251.98773991474215 L 221.22382586214266 251.94282479064123 L 221.22021404983292 251.94060462181463 L 221.14738041813797 251.89625839451767 L 221.14374922118836 251.8940685188792 L 221.07046294551455 251.8502942802167 L 221.06681273312284 251.84813494223306 L 220.99307566856854 251.80493578403542 L 220.98940681605757 251.8028072233416 L 220.91522081772095 251.7601862374393 L 220.9115337064615 251.75808868866446 L 220.83690062944095 251.716048966888 L 220.8331956467636 251.71398265948008 L 220.7581173461573 251.67252729365984 L 220.75439488526015 251.67049245171265 L 220.6788732161664 251.62962453367913 L 220.67513367601555 251.6276213757604 L 220.59917049353263 251.58734399734408 L 220.59541427875607 251.58537273632535 L 220.51901143798224 251.54568898935665 L 220.51523895875707 251.54374983224506 L 220.43839831479062 251.50466280855443 L 220.43460998672398 251.5027559563266 L 220.3573333946632 251.4642687477445 L 220.35352963866666 251.46239439518328 L 220.2758189536098 251.42451009354016 L 220.27200019576696 251.4226684290735 L 220.19385727281227 251.38539012619987 L 220.19002394424194 251.38358133174387 L 220.11756837636156 251.34976719380583 L 220.11552598966915 251.3487460004596 L 220.10744518158901 251.34470559641952 L 220.09532396946673 251.3386449903584 L 220.087243161387 251.3346045863185 L 220.0751219492647 251.3285439802574 L 220.06704114118497 251.3245035762175 L 220.0549199290627 251.31844297015638 L 219.92158659572976 251.25177630348992 L 219.91350578764835 251.24773589944922 L 219.90946538360984 251.24571569742994 L 219.90138457552774 251.2416752933889 L 219.89330376744633 251.23763488934821 L 219.88926336340782 251.23561468732893 L 219.88118255532572 251.2315742832879 L 219.8731017472443 251.2275338792472 L 219.8690613432058 251.22551367722792 L 219.8609805351237 251.2214732731869 L 219.85289972704228 251.2174328691462 L 219.84885932300378 251.2154126671269 L 219.84077851492168 251.21137226308588 L 219.83269770684026 251.20733185904518 L 219.82865730280176 251.2053116570259 L 219.82057649471966 251.20127125298487 L 219.81249568663824 251.19723084894417 L 219.80845528259974 251.1952106469249 L 219.80037447451764 251.19117024288386 L 219.79229366643622 251.18712983884316 L 219.78825326239772 251.18510963682388 L 219.7761320502748 251.17904903076246 L 219.76805124219507 251.17500862672256 L 219.7559300300728 251.16894802066145 L 219.74784922199305 251.16490761662155 L 219.73572800987077 251.15884701056044 L 219.72764720179103 251.15480660652054 L 219.72360679774872 251.1527864044994 L 219.68309113659012 251.1347284280099 L 219.64113446812885 251.12033234223478 L 219.5980670096915 251.10971145066384 L 219.5716901413595 251.10564288128154 L 219.56965213738263 251.10480593189985 L 219.56333644482143 251.1021957604931 L 219.55640576537624 251.09932546488054 L 219.5526549651512 251.09777360291298 L 219.54871621528096 251.09614710808665 L 219.54823544383072 251.0959488837223 L 219.54459285530902 251.09444924288994 L 219.5439578206843 251.0941883111147 L 219.54028740568853 251.09268310498751 L 219.539501124481 251.092361437756 L 219.535802264645 251.09085190306618 L 219.5348676399522 251.09047157484946 L 219.53113971690993 251.08895894832918 L 219.53005954725296 251.0885221282665 L 219.5263019426383 251.08700764664795 L 219.5250789310015 251.0865165912783 L 219.52129102644838 251.08500149129367 L 219.51992778940084 251.0844585377983 L 219.51610896654313 251.08294405617974 L 219.51460804335372 251.08235161604992 L 219.51075768382537 251.08083898952964 L 219.50912154555974 251.08019954260658 L 219.50523903099463 251.07869000791678 L 219.50347008954324 251.0780060967366 L 219.4995548015753 251.07650089060942 L 219.49765541852847 251.07577511497863 L 219.49370673879162 251.07427547414625 L 219.4916792341916 251.0735104859181 L 219.4876965443197 251.07201764711274 L 219.48554320524383 251.0712161451114 L 219.48152588687083 251.06973134506524 L 219.4792489757366 251.0688960700827 L 219.4751964104964 251.0674205455279 L 219.47279817317812 251.06655427539962 L 219.46870974270462 251.0650892630684 L 219.4661924163451 251.06419480775847 L 219.46206750227225 251.06274154438296 L 219.45943332278523 251.061821741057 L 219.45527130674685 251.0603814633694 L 219.45252251601116 251.05943917143867 L 219.44832277964125 251.05801311617117 L 219.44546163231507 251.0570512122695 L 219.4412235572475 251.05564061615428 L 219.43825232721272 251.05466198904304 L 219.43397529508138 251.0532680888123 L 219.4308962814882 251.05227563419766 L 219.42657967392702 251.05089966658355 L 219.42339520677885 251.04989628182625 L 219.41903840542176 251.04853948356097 L 219.41575085074516 251.04752806229575 L 219.41135323722602 251.0461916701115 L 219.407965001759 251.04517509676052 L 219.40352595771176 251.04386034738943 L 219.40003949305375 251.04284149156368 L 219.3955584001123 251.041549621738 L 219.3919762064521 251.0405313325746 L 219.38745244625036 251.03926357902648 L 219.38377707547107 251.03824867941853 L 219.37921002964293 251.03700627888014 L 219.37544408794696 251.03599755966053 L 219.37083313812633 251.03478174886405 L 219.3669792880781 251.03378196293625 L 219.36232381589892 251.0325939786139 L 219.3583847779298 251.0316058350654 L 219.35368416502595 251.03044691394933 L 219.34966271832948 251.02947307215547 L 219.34491634633488 251.02834445097787 L 219.34081532921797 251.0273875147417 L 219.3360225797665 251.02629043023475 L 219.33184488942945 251.0253529419835 L 219.32700514415504 251.0242886308794 L 219.3227537358756 251.02337306594293 L 219.31786637641218 251.02234276497387 L 219.31354426219565 251.02145152599002 L 219.3086086701771 251.02045647188814 L 219.3042189168211 251.01959188335402 L 219.29923447388134 251.01863331285153 L 219.294780200539 251.01779761586974 L 219.28974628831196 251.0168767656988 L 219.28523066350132 251.01607211293694 L 219.28014666362088 251.01519021982978 L 219.27557290176654 251.01441867074 L 219.2704381958666 251.01357697142876 L 219.26580955333287 251.012840487747 L 219.26062352304737 251.0120402189639 L 219.25594329378103 251.0113406605353 L 219.25070532074383 251.01058305901245 L 219.24597683143787 251.00992217995255 L 219.24068629728293 251.00920848242222 L 219.23591290225193 251.00858792766482 L 219.23056918861315 251.00791937085913 L 219.22575426424083 251.0073406730895 L 219.2203567527521 251.00671849374066 L 219.2155036917335 251.0061830707608 L 219.21005176402872 251.005608505601 L 219.20516396929034 251.00511765812456 L 219.19965700700345 251.00459194388597 L 219.1947378854698 251.00414685379292 L 219.18917527023473 251.00367122720772 L 219.18422822640537 251.00327295626067 L 219.17860933985597 251.00284865406104 L 219.17363776928295 251.00249814309564 L 219.16796199305313 251.00212640201377 L 219.1629692757598 251.00182447060547 L 219.1572359914835 251.00150652737355 L 219.15222548535135 251.00125387397915 L 219.1464340746625 251.00099096532935 L 219.14140910885945 251.00078816790113 L 219.1355589533919 251.00058153056563 L 219.1305228218694 251.00042904762844 L 219.1246133032571 251.00027991833943 L 219.11956925837524 251.00017809051977 L 219.1135997582521 251.00008770600942 L 219.10855100454964 251.00003675799985 L 219.10252090454952 251.00000635500038 L 219.1025183790368 251.0005072626254 L 219.0885373229995 251.00013141023265 L 219.03888565882184 251.00374901783235 L 218.98983985162644 251.01228620922686 L 218.94188611699158 251.02565835097474 L 218.9327952079011 251.0286886540049 L 218.92370429881018 251.0317189570352 L 218.89643157153705 251.04080986612624 L 218.8873406624452 251.04384016915688 L 218.86915884426475 251.04990077521703 L 218.86006793517382 251.05293107824733 L 218.84188611699201 251.05899168430793 L 218.83279520790109 251.06202198733823 L 218.80552248062838 251.07111289642913 L 218.79643157153745 251.07414319945943 L 218.7873406624448 251.07717350249035 L 218.76915884426475 251.08323410855036 L 218.76006793517382 251.08626441158066 L 218.74188611699202 251.09232501764126 L 218.7327952079011 251.09535532067156 L 218.7055224806284 251.10444622976246 L 218.69643157153746 251.10747653279276 L 218.6873406624448 251.11050683582368 L 218.66915884426476 251.1165674418837 L 218.66006793517383 251.119597744914 L 218.63279520790113 251.1286886540049 L 218.6237042988102 251.1317189570352 L 218.60552248062797 251.13777956309593 L 218.59643157153573 251.14080986612672 L 218.58734066244656 251.14384016915642 L 218.56006793517386 251.15293107824732 L 218.55097702608293 251.15596138127762 L 218.52370429881023 251.16505229036852 L 218.5146133897193 251.16808259339882 L 218.50552248062797 251.17111289642926 L 218.49643157153574 251.17414319946005 L 218.4873406624466 251.17717350248975 L 218.47824975335567 251.18020380552005 L 218.45097702608297 251.18929471461095 L 218.44188611699204 251.19232501764125 L 218.4146133897189 251.2014159267323 L 218.40552248062667 251.20444622976308 L 218.3964315715375 251.20747653279278 L 218.3691588442648 251.21656744188368 L 218.36006793517387 251.21959774491398 L 218.33279520790074 251.22868865400503 L 218.3237042988085 251.2317189570358 L 218.31461338971934 251.2347492600655 L 218.28734066244664 251.2438401691564 L 218.2782497533557 251.2468704721867 L 218.24188611699168 251.25899168430806 L 218.23279520789984 251.2620219873387 L 218.20552248062847 251.27111289642914 L 218.19643157153754 251.27414319945944 L 218.16006793517352 251.2862644115808 L 218.15097702608168 251.28929471461143 L 218.1146133897194 251.30141592673218 L 218.10552248062848 251.30444622976248 L 218.08734066244625 251.31050683582322 L 218.07824975335402 251.313537138854 L 218.06915884426488 251.3165674418837 L 218.06006793517395 251.319597744914 L 218.04188611699172 251.32565835097475 L 218.04190088772995 251.32570266318945 L 217.99309852785 251.34481676126842 L 217.9819874167389 251.3498672663189 L 217.9708763056264 251.35491777137008 L 217.95976519451668 251.35996827641992 L 217.9486540834046 251.3650187814709 L 217.93754297229404 251.37006928652113 L 217.92643186118238 251.3751197915719 L 217.91532075007223 251.38017029662194 L 217.90420963895974 251.3852208016731 L 217.89309852785001 251.39027130672295 L 217.88198741673793 251.39532181177393 L 217.87087630562777 251.40037231682396 L 217.8597651945153 251.40542282187513 L 217.84865408340556 251.41047332692497 L 217.83754297229348 251.41552383197595 L 217.82643186118293 251.42057433702618 L 217.81532075007127 251.42562484207696 L 217.8042096389611 251.430675347127 L 217.79309852784863 251.43572585217817 L 217.7819874167389 251.440776357228 L 217.7708763056268 251.44582686227898 L 217.75976519451626 251.4508773673292 L 217.7486540834046 251.45592787238 L 217.73754297229445 251.46097837743002 L 217.72643186118196 251.4660288824812 L 217.71532075007224 251.47107938753103 L 217.70420963896015 251.476129892582 L 217.69309852785 251.48118039763204 L 217.6819874167375 251.48623090268322 L 217.6708763056278 251.49128140773306 L 217.6597651945157 251.49633191278403 L 217.64865408340515 251.50138241783426 L 217.6375429722935 251.50643292288504 L 217.62643186118333 251.51148342793508 L 217.61532075007085 251.51653393298625 L 217.60420963896112 251.5215844380361 L 217.59309852784904 251.52663494308706 L 217.58198741673849 251.5316854481373 L 217.57087630562683 251.53673595318807 L 217.55976519451667 251.5417864582381 L 217.5486540834042 251.54683696328928 L 217.53754297229446 251.55188746833912 L 217.52643186118237 251.5569379733901 L 217.51532075007222 251.56198847844013 L 217.50420963895974 251.5670389834913 L 217.49309852785 251.57208948854114 L 217.48198741673792 251.5771399935921 L 217.47087630562737 251.58219049864235 L 217.4597651945157 251.58724100369312 L 217.44865408340556 251.59229150874316 L 217.43754297229307 251.59734201379433 L 217.42643186118335 251.60239251884417 L 217.41532075007126 251.60744302389514 L 217.4042096389607 251.61249352894538 L 217.39309852784905 251.61754403399615 L 217.3819874167389 251.6225945390462 L 217.3708763056264 251.62764504409736 L 217.35976519451668 251.6326955491472 L 217.3486540834046 251.63774605419817 L 217.33754297229444 251.6427965592482 L 217.32643186118196 251.64784706429938 L 217.31532075007223 251.65289756934922 L 217.30420963896015 251.6579480744002 L 217.2930985278496 251.66299857945043 L 217.28198741673793 251.6680490845012 L 217.27087630562778 251.67309958955124 L 217.2597651945153 251.67815009460242 L 217.24865408340557 251.68320059965225 L 217.23754297229348 251.68825110470323 L 217.22643186118293 251.69330160975346 L 217.21532075007127 251.69835211480424 L 217.20420963896112 251.70340261985427 L 217.19309852784863 251.70845312490545 L 217.1819874167389 251.71350362995528 L 217.17087630562682 251.71855413500626 L 217.15976519451667 251.7236046400563 L 217.14865408340418 251.72865514510747 L 217.13754297229445 251.7337056501573 L 217.12643186118237 251.73875615520828 L 217.11532075007182 251.7438066602585 L 217.10420963896016 251.7488571653093 L 217.09309852785 251.75390767035933 L 217.08198741673752 251.7589581754105 L 217.0708763056278 251.76400868046034 L 217.0597651945157 251.7690591855113 L 217.04865408340515 251.77410969056154 L 217.0375429722935 251.77916019561232 L 217.02643186118334 251.78421070066236 L 217.01532075007086 251.78926120571353 L 217.00420963896113 251.79431171076337 L 216.99309852784904 251.79936221581434 L 216.9819874167389 251.80441272086438 L 216.9708763056264 251.80946322591555 L 216.95976519451668 251.8145137309654 L 216.9486540834046 251.81956423601636 L 216.93754297229404 251.8246147410666 L 216.92643186118238 251.82966524611737 L 216.91532075007223 251.8347157511674 L 216.9053094181987 251.8392663565645 L 216.89456800247754 251.843469519238 Z" id="element_85" /></svg>