<?xml version='1.0' encoding='utf-8'?>
<svg xmlns:svg="http://www.w3.org/2000/svg" version="1.1" id="Layer_1" x="0px" y="0px" viewBox="0 0 500 500" style="width: 188px;" xml:space="preserve" data-imageid="pipeline-31" imageName="Pipeline" class="illustrations_image"><svg:style type="text/css">
	.st0_pipeline-31{fill:#EAC2A7;}
	.st1_pipeline-31{opacity:0.63;fill:url(#SVGID_1_);enable-background:new    ;}
	.st2_pipeline-31{opacity:0.63;fill:url(#SVGID_00000160179602106895528520000002428925925115162253_);enable-background:new    ;}
	.st3_pipeline-31{opacity:0.63;fill:url(#SVGID_00000137130286687107314790000002274324629384346514_);enable-background:new    ;}
	.st4_pipeline-31{opacity:0.63;fill:url(#SVGID_00000060021897825768142520000003461003070705911428_);enable-background:new    ;}
	.st5_pipeline-31{opacity:0.63;fill:url(#SVGID_00000098909511627820371590000002388744079869833603_);enable-background:new    ;}
	.st6_pipeline-31{fill:#6D3209;}
	.st7_pipeline-31{fill:#DF5D00;}
	.st8_pipeline-31{fill:#FF8522;}
	.st9_pipeline-31{fill:#68E1FD;}
	.st10_pipeline-31{fill:#174B6B;}
	.st11_pipeline-31{fill:#08283F;}
	.st12_pipeline-31{fill:#FFFFFF;}
	.st13_pipeline-31{opacity:0.15;fill:#FF8522;enable-background:new    ;}
	.st14_pipeline-31{fill:#FF9F57;}
</svg:style><svg:path class="st11_pipeline-31" d="M 229.01691238881224 201.60695187976498 L 228.8841615563369 201.62932281903215 L 228.8751062944089 201.63093458435014 L 228.74352417384608 201.65560584547688 L 228.73449142968144 201.65738569378126 L 228.6040835863259 201.6843313053917 L 228.59508038284625 201.68627823914764 L 228.4658523819929 201.71547222986595 L 228.4568856516068 201.7175849147155 L 228.32884305855043 201.74900131316588 L 228.31991961716483 201.7512780865988 L 228.19306799720027 201.7848909214054 L 228.18419451921434 201.78732980348178 L 228.0585394376364 201.82311310326875 L 228.04972243213152 201.82571180927232 L 227.925269454235 201.86363960266385 L 227.91651524255934 201.86639555754093 L 227.7932699336391 201.90644187316116 L 227.78458462855875 201.90935222758287 L 227.6625525539096 201.951491094056 L 227.65394204048272 201.95455274192267 L 227.53312876539948 201.99875818787285 L 227.52459868369752 202.0019677850689 L 227.405009773475 202.04821383912028 L 227.3965655032538 202.0515678233168 L 227.27820652318684 202.09982851409356 L 227.2698531705837 202.10332312539012 L 227.1527296859671 202.15357248151642 L 227.14447207226817 202.15720378371282 L 227.02858964839675 202.20941583381284 L 227.02043230089984 202.21317973609982 L 226.90579650306847 202.26732850879773 L 226.89774364803512 202.27122078766237 L 226.78436004153855 202.3272803115823 L 226.7764155992067 202.33129663273044 L 226.66428974933982 202.3892409364966 L 226.65645733095053 202.3933768766022 L 226.5455948030081 202.4531799888387 L 226.53787770977002 202.45743105694706 L 226.4282840690469 202.51906700627816 L 226.4206852929564 202.5234286646976 L 226.31236610474738 202.5868714797474 L 226.30488833115436 202.59133916428598 L 226.19784916075432 202.65656287367864 L 226.19049477256235 202.6611320130935 L 226.08474118526607 202.72811064545323 L 226.0775122686374 202.73277668000074 L 225.9730498297397 202.80148426395166 L 225.96594818116967 202.80624266294458 L 225.86278245596537 202.8766532271109 L 225.85580959059052 202.88149950540227 L 225.75394614437445 202.95358707840813 L 225.74710330536797 202.95851681174457 L 225.64654770343498 203.03225542221412 L 225.63983587234958 203.0372642614132 L 225.54059367999443 203.11262793797064 L 225.53401358791007 203.11771162189504 L 225.43609037042762 203.19467439316452 L 225.4296425097668 203.19982876047993 L 225.33304383245186 203.27836465508562 L 225.32672846932837 203.2835856548035 L 225.2314598974758 203.36366870136953 L 225.22527708445116 203.36895240218644 L 225.13134418335574 203.45055662933706 L 225.12529377248273 203.45589922779513 L 225.03270210743926 203.53899866415443 L 225.02678376347978 203.5443964916571 L 224.93553889978313 203.62896516584928 L 224.9297521135 203.63441469457106 L 224.83985961644498 203.7204266352203 L 224.8342037178702 203.72592448296206 L 224.74566915275162 203.8133537186925 L 224.74014332434834 203.8188966527336 L 224.652972256461 203.9077172121694 L 224.64757554610264 203.91330215217596 L 224.56177354074143 204.00348806394135 L 224.55650487444348 204.00911208398924 L 224.47207749690313 204.10063737670828 L 224.46693569124577 204.10629770648842 L 224.3838885068212 204.19913640878534 L 224.37887228102093 204.20483043404803 L 224.29721085500688 204.298956574547 L 224.29231884258928 204.30468183685704 L 224.2120487402806 204.4000694441822 L 224.20727950032764 204.40582364004172 L 224.12840628701917 204.50244674281726 L 224.1237583149621 204.50822772222168 L 224.04628755594862 204.60606034907175 L 224.04175929388887 204.61186611355862 L 223.96569655446524 204.7108822931074 L 223.96128640101102 204.71671099335475 L 223.88663724647208 204.8168847542264 L 223.88234356608314 204.82273468725649 L 223.80911356172365 204.92404005807518 L 223.8049346935616 204.92990966411696 L 223.73312940467642 205.03232067350686 L 223.72906367096428 205.03820853256335 L 223.65868866284822 205.14169920914858 L 223.65473437674336 205.14760403731813 L 223.58579521469125 205.25214840972293 L 223.58195068768302 205.2580690553136 L 223.51445293698967 205.3636411521621 L 223.51071648583175 205.36957659164068 L 223.444665711792 205.47615044155705 L 223.44103566498578 205.48209977536604 L 223.37643743289445 205.58964940697444 L 223.37291213673882 205.59561185525018 L 223.3097720118907 205.7041112971748 L 223.3063498361159 205.71008619539566 L 223.24467338380586 205.8195094762606 L 223.241352726812 205.8254962708492 L 223.18114551233484 205.9358174192787 L 223.17792480605257 205.94181566318264 L 223.11919239470308 206.05300870780087 L 223.11607010909898 206.05901805607084 L 223.058818066172 206.1710570255019 L 223.0557927134181 206.1770772308835 L 223.00002660420847 206.2899361537516 L 222.99709674253765 206.29596706230467 L 222.94282213234018 206.40961996723397 L 222.93998636960708 206.41566151399365 L 222.88720882371658 206.53008242960834 L 222.8844658206852 206.53613463429406 L 222.8331909043965 206.65129758921825 L 222.83053937777396 206.65736055200006 L 222.78077265638188 206.77323957485797 L 222.77821138161784 206.77931347218507 L 222.72995842041723 206.89588259160084 L 222.7274862342877 206.9019676720951 L 222.68075259857335 207.0192009166929 L 222.6783684015661 207.02529749711118 L 222.63315965663284 207.14316889551517 L 222.6308624151527 207.14927735677762 L 222.58718412629537 207.267760937612 L 222.58497287470422 207.27388172089775 L 222.54283060721758 207.39295151278662 L 222.54070444972473 207.3990851156949 L 222.50010376890367 207.5187151472625 L 222.49806188132155 207.52486212003103 L 222.45900835246084 207.64502641990148 L 222.45704998383724 207.6511873616847 L 222.41954917223174 207.77185995848217 L 222.417673646373 207.77803551367626 L 222.38173111731754 207.89919043602495 L 222.37993783421192 207.90538129063827 L 222.3455591530013 208.0269925671623 L 222.34384759015296 208.03319944522198 L 222.31103832208197 208.15524110454555 L 222.30940803576505 208.16146476453181 L 222.27817374612854 208.2839108352791 L 222.27662437256797 208.29015206657863 L 222.24697062666078 208.41297657737374 L 222.24550188314691 208.41923619674424 L 222.21743424626385 208.5424131762114 L 222.21604593220636 208.54869202424572 L 222.18956996964224 208.67219550100907 L 222.1882619675672 208.67849443858958 L 222.16338324461685 208.80229844127328 L 222.16215552111026 208.80861834600535 L 222.13887960306852 208.9326969032336 L 222.1377322096679 208.93903866584742 L 222.11606466182954 209.06336580624435 L 222.11499773586436 209.0697303269542 L 222.09494412352424 209.19428007914397 L 222.09395788890436 209.20066826395214 L 222.0755237773573 209.32541465655896 L 222.07461854530754 209.3318274134939 L 222.05780949984836 209.4567444751419 L 222.05698566958594 209.46318271041832 L 222.04180725550947 209.5882444697317 L 222.04106531485968 209.59470908382045 L 222.02752309746072 209.71988956942332 L 222.0268636234047 209.7263814530204 L 222.01496316797807 209.851654693537 L 222.01438682712546 209.858174723418 L 222.004133698966 209.9835147474724 L 222.0036412479437 209.99006378222327 L 221.9950410123462 210.11544461843974 L 221.99463329809237 210.12202349405132 L 221.98769152035172 210.247419171054 L 221.98736948030356 210.2540286963687 L 221.9820917257145 210.37941324278168 L 221.98185638787626 210.386054194786 L 221.97824822173365 210.51140163923355 L 221.97810070460955 210.51807475818092 L 221.97616769220824 210.64335912928712 L 221.97610920458393 210.65006511364706 L 221.97585691121867 210.77526044003616 L 221.97588875177243 210.7819999412618 L 221.97732274273812 210.9070802515579 L 221.9774462994621 210.91385386865994 L 221.98057214005348 211.03879319148723 L 221.98078888946299 211.0456014654176 L 221.98561214497494 211.17037382940026 L 221.98592365108266 211.1772172372329 L 221.99244988681 211.30179667099506 L 221.9928577998397 211.30867561990786 L 222.00075829954073 211.4279878783467 L 222.00413677605064 211.50156726432712 L 222.00453363705404 211.5090019331553 L 222.0092992814585 211.58732057514092 L 222.00980675562602 211.59474790684476 L 222.01571946912978 211.6727431433646 L 222.01633735447592 211.6801608047839 L 222.02338909831983 211.75782397871276 L 222.0241171311259 211.76522967798323 L 222.03229986655077 211.8425521321958 L 222.03313772425162 211.84994362100582 L 222.04244341249822 211.9269166983768 L 222.04339071665785 211.93429177399665 L 222.05381131896704 212.0109068174008 L 222.05486763832656 212.01826332447908 L 222.06639511593914 212.0945116767911 L 222.06755996952077 212.1018475089209 L 222.08018628367753 212.17772051301554 L 222.08145914392904 212.18503361407093 L 222.09517625587083 212.26052261282285 L 222.09655655183371 212.26781097806094 L 222.11135642280132 212.3429073143449 L 222.112843543289 212.3501689912845 L 222.12871813452324 212.42486400797523 L 222.13031143129268 212.43209709704874 L 222.14725270403437 212.50638213702095 L 222.1489514949384 212.51358479200846 L 222.16695141042837 212.58745119813688 L 222.16875498253387 212.5946216263842 L 222.1878055020129 212.66806074154354 L 222.18971311467303 212.67519720397576 L 222.20980619938197 212.74820037104075 L 222.21181708724893 212.75530118197142 L 222.23294469842858 212.8278597438168 L 222.23505807439653 212.8349232705678 L 222.2572121732877 212.90702857006826 L 222.2594272313544 212.91405323240306 L 222.2825997791979 212.98569661243334 L 222.2849156972356 212.99268088181609 L 222.30909865527224 213.0638536852509 L 222.31151459769788 213.07079608393855 L 222.33669992716847 213.14148965365263 L 222.3392150475064 213.14838875363165 L 222.36539470965178 213.2185944324997 L 222.36800815297917 213.2254488542748 L 222.39517410904014 213.29515798517156 L 222.39788501431102 213.30196639642014 L 222.4260292255284 213.37117032222034 L 222.4288367277678 213.37793143631936 L 222.45795115538235 213.44662149989767 L 222.4608543877475 213.4533340743367 L 222.49093099300012 213.52150161856792 L 222.49392908870217 213.52816445325482 L 222.52495983283362 213.59580082101363 L 222.52805192691827 213.60241275648886 L 222.56002877116939 213.66950929064998 L 222.56321400215103 213.67606920621316 L 222.5961289077626 213.74261724965132 L 222.59940641911183 213.7491240614176 L 222.6332513473247 213.81511495700752 L 222.63662028880483 213.82156761589675 L 222.67138720085978 213.88699270651313 L 222.67484672971332 213.89339019618717 L 222.71052758685116 213.95824082470477 L 222.7140768688345 213.9645821594612 L 222.75066363229607 214.02884966875473 L 222.754301842561 214.03513389138337 L 222.7917864735871 214.09880962432754 L 222.7955127974119 214.1050358039448 L 222.83388725724336 214.16811110341433 L 222.83770089061147 214.174278333279 L 222.87695714048908 214.23674454214864 L 222.8808572905184 214.24285193747224 L 222.92098729168302 214.3047003986167 L 222.92497317690524 214.31074709437235 L 222.9659688905976 214.37196915066633 L 222.97003974109214 214.37795429941082 L 223.0118931285531 214.43854129372906 L 223.01604818593364 214.44446406343775 L 223.05875120840406 214.50440733865497 L 223.06298972566367 214.51026691058493 L 223.10653434438427 214.56955780957588 L 223.11085558560143 214.57535337616247 L 223.1552337618131 214.63398324180181 L 223.15963700171673 214.6397140045906 L 223.20484069666026 214.69767417975308 L 223.2093252200644 214.7033393473837 L 223.25534639498056 214.76062117494408 L 223.25991149608612 214.76621996118575 L 223.3067421122158 214.8228147840187 L 223.31138709378357 214.82834640586412 L 223.35901911236752 214.8842455668444 L 223.3637432847708 214.88970924267485 L 223.41216866704988 214.94490408467715 L 223.41697134720283 214.95029903249497 L 223.46618205441783 215.00478089839405 L 223.47106256459182 215.01010633413884 L 223.52105055798353 215.0638665668094 L 223.52600822450944 215.06912170275595 L 223.57676546531872 215.12215164507268 L 223.58179961718218 215.1273356883192 L 223.63331806664982 215.17962668315687 L 223.638428033986 215.18473883421146 L 223.69069965335282 215.23628222444478 L 223.69588476584093 215.24132167591 L 223.74890151634773 215.2921088044137 L 223.75416110151497 215.29707473977976 L 223.80791494440257 215.34709694942853 L 223.81324832583982 215.35198854197654 L 223.86773122234905 215.40123717564515 L 223.87313771784574 215.40605358746762 L 223.92834162921739 215.45451998803074 L 223.93382054881926 215.45926036917183 L 223.98973743629415 215.50693587950423 L 223.99528808029334 215.51159936722766 L 224.0519099051123 215.558475330204 L 224.05753156197093 215.56306104838816 L 224.11485028537473 215.60912880688323 L 224.12054222959597 215.61363586555416 L 224.17854981282548 215.65888676244265 L 224.18431130276971 215.66331425744124 L 224.2429997070657 215.70773963559787 L 224.24882998272855 215.71208664839293 L 224.30819116933185 215.75567785069242 L 224.31408945008457 215.75994344833694 L 224.374115380236 215.80269181765402 L 224.38008086253964 215.80687505289183 L 224.44076349748002 215.84877193210122 L 224.44679535258047 215.85287184362488 L 224.5081266535506 215.89390857560133 L 224.51422402516422 215.89792418846616 L 224.5761959534049 215.93809211608433 L 224.5823579554011 215.94202244227776 L 224.64496247215317 215.98131290841243 L 224.65118818624714 215.98515694758453 L 224.71441725275136 216.0235612951104 L 224.72070572621308 216.0273180354639 L 224.78455130371034 216.0648276072557 L 224.79090154710102 216.0684960265982 L 224.85535559683208 216.10510216553064 L 224.86176658178005 216.10868123249 L 224.92682106498572 216.1443752814378 L 224.93329172200973 216.14786395683936 L 224.99893859993088 216.18263725867726 L 225.00546781632306 216.1860344970834 L 225.07169905020044 216.21987839468608 L 225.0782856679798 216.2231831460966 L 225.14509321905427 216.25608898233884 L 225.15173603300312 216.25930019405098 L 225.21911186251546 216.29125931180747 L 225.22580961830818 216.2943759304317 L 225.2937456874992 216.32537967257716 L 225.30049707993692 216.32840064620663 L 225.36898535004747 216.3584403556158 L 225.3757890214103 216.36136463614528 L 225.4448214536812 216.39043165569285 L 225.45167599220707 216.39325820128064 L 225.5212445478791 216.42134387384138 L 225.52814848638698 216.42407165151167 L 225.59824512670093 216.45116731996026 L 225.60519694136246 216.45379530833523 L 225.6758136275592 216.4798923155464 L 225.68281173683596 216.4824195077036 L 225.7539404301563 216.5075091965521 L 225.7609831939114 216.50993460299713 L 225.83261585559606 216.53400831635764 L 225.83970157439202 216.53633096810333 L 225.91183016568195 216.5593800488506 L 225.91895708027346 216.56159900059134 L 225.99157356240937 216.5836147916001 L 225.99873985344274 216.5857291249712 L 226.0718361876655 216.60670296911616 L 226.07903997559268 216.60871179602526 L 226.15260812314307 216.62863503618112 L 226.15984746835946 216.63053750219862 L 226.2338793904783 216.64940148124015 L 226.2411522936925 216.65119676903518 L 226.31563995162062 216.66899282983704 L 226.322944354459 216.67068016264304 L 226.3978797094372 216.68739964808 L 226.4052134952969 216.68897829317646 L 226.48058850856597 216.70461254612323 L 226.48794950371106 216.7060818183148 L 226.5637561365119 216.72062218164612 L 226.57114211142473 216.72198144672478 L 226.64737232499806 216.73541926331532 L 226.65478099598096 216.7366679414863 L 226.73142675156765 216.74899455421084 L 226.73885578260249 216.7501321234665 L 226.81590904144332 216.76133887519973 L 226.82335604630092 216.76236487462145 L 226.9008087696367 216.77244310823812 L 226.9082713142409 216.77335714120997 L 226.98611546331247 216.78229819958474 L 226.99359106834814 216.78309993689894 L 227.0718186043963 216.7908951629066 L 227.0793047481642 216.7915843457441 L 227.1579076324296 216.79822508225936 L 227.20599287709248 216.79996408413422 L 227.25402262256242 216.79707298885725 L 227.3015520721135 216.7895785704557 L 227.34814106219008 216.7775502336856 L 227.39335813869948 216.76109937128413 L 227.43678455264794 216.74037833237713 L 227.47801813811608 216.71557901159514 L 227.51667703666112 216.6869310719643 L 227.55240323365416 216.65469981802926 L 227.58486587380335 216.61918373890515 L 227.61376432515846 216.58071174401164 L 227.63883096322087 216.5396401170892 L 227.65983364937668 216.4963492167053 L 227.67657788069974 216.45123995380723 L 227.68890859121584 216.404730078942 L 227.69671158794702 216.35725031352746 L 227.6999146084367 216.30924036100143 L 227.69848798996202 216.2611448347902 L 227.69244494423629 216.21340914080588 L 227.68184143505707 216.1664753526049 L 227.6667756600334 216.12077811740687 L 227.64738714119144 216.07674063088774 L 227.62385543288062 216.03477071802408 L 227.596398458946 215.99525705628332 L 227.5652704945663 215.95856557613624 L 227.4819368452076 215.8694142744871 L 227.40735856981973 215.78392436248689 L 227.33556918948443 215.6957783775856 L 227.26654904998858 215.60501723486587 L 227.20028312189928 215.51168418919585 L 227.13676049859217 215.41582524612784 L 227.0759738620483 215.3174894657651 L 227.01791893743047 215.21672916480998 L 226.962593954457 215.11360002537555 L 226.90999913023938 215.00816112149087 L 226.86013618476406 214.90047487549887 L 226.81300789689595 214.7906069570038 L 226.76861770577577 214.67862613675632 L 226.72696935989998 214.56460410706998 L 226.68806661406092 214.44861527922768 L 226.65191297267233 214.33073656697852 L 226.61851147681122 214.2110471638222 L 226.5878645314787 214.08962832032807 L 226.55997376911176 213.96656312644302 L 226.5348399451537 213.8419363025065 L 226.51246286148447 213.71583400164056 L 226.4928413136612 213.5883436253064 L 226.47597305815776 213.45955365302817 L 226.46185479611626 213.32955348671715 L 226.45048217047315 213.1984333095804 L 226.4418497736782 213.06628395918187 L 226.4359511635884 212.93319681402204 L 226.43277888545674 212.79926369281634 L 226.43232449824706 212.66457676549533 L 226.43457860379755 212.52922847496848 L 226.43953087760636 212.3933114685773 L 226.44717010023876 212.2569185382589 L 226.45748418855254 212.12014256836625 L 226.47046022610053 211.98307649027927 L 226.48608449222226 211.8458132427917 L 226.50434248944742 211.70844573751504 L 226.5252189689452 211.57106682844417 L 226.5486979538361 211.4337692849584 L 226.57476276025665 211.29664576756034 L 226.60339601612844 211.1597888057135 L 226.63457967764245 211.02329077714396 L 226.66829504349985 210.88724388809473 L 226.70452276702363 210.75174015390832 L 226.74324286625227 210.61687137952757 L 226.7844347322041 210.4827291393575 L 226.82807713551853 210.34940475603895 L 226.87414823171426 210.21698927771425 L 226.92262556537386 210.08557345328794 L 226.97348607357472 209.95524770531344 L 227.026706088969 209.82610210005296 L 227.08226134295583 209.69822631431649 L 227.14012696945431 209.5717095987018 L 227.20027750987188 209.4466407368406 L 227.26268691991413 209.32310800034728 L 227.32732857901593 209.20119909910656 L 227.3941753032094 209.08100112670766 L 227.46319936241576 208.96260050076253 L 227.53437250319394 208.84608289804996 L 227.60766597814182 208.73153318444204 L 227.68305058322093 208.61903533977116 L 227.760496704407 208.50867237792127 L 227.83997437517016 208.40052626263008 L 227.921453346325 208.29467781979486 L 228.00490316989945 208.1912066472769 L 228.0902932986491 208.09019102358621 L 228.17759320277025 207.99170781723845 L 228.2667725053337 207.89583239890044 L 228.3578011376334 207.80263855904386 L 228.4506495154689 207.7121984341588 L 228.5452887368 207.62458244522298 L 228.64169080076587 207.5398592524582 L 228.73982884720076 207.45809573095346 L 228.8396774149604 207.3793569719893 L 228.94121271627134 207.30370631513938 L 229.0444129231097 207.231205416236 L 229.149258460288 207.1619143560596 L 229.2557322985515 207.09589179407902 L 229.36382023958805 207.0331951707069 L 229.47351118356735 206.9738809602859 L 229.58479736875364 206.91800497537028 L 229.69767457197082 206.86562272086127 L 229.81214225843536 206.8167897941975 L 229.9282036697055 206.77156232526136 L 230.04586583952636 206.72999744697339 L 230.16513952897435 206.69215378500635 L 230.28603907480095 206.6580919527424 L 230.40858214794372 206.6278750358335 L 230.53278942286337 206.60156904963628 L 230.6586841623634 206.57924335259563 L 230.78629172664387 206.56097099942897 L 230.9156390192011 206.5468290197615 L 231.0467538855961 206.53689861060107 L 231.17966448364785 206.53126523459585 L 231.31439864518373 206.53001862012732 L 231.4509832499161 206.53325266367375 L 231.58944363121222 206.54106523921837 L 231.7298030316864 206.5535579234437 L 231.87208212371766 206.5708356487866 L 232.0240266460363 206.59419434384412 L 232.07164114063815 206.59919512727564 L 232.11951564604328 206.5996189943943 L 232.1672112204576 206.5954620589356 L 232.21429056263221 206.5867624341435 L 232.2603220213001 206.57359988332598 L 232.30488355281028 206.55609508853746 L 232.34756659067367 206.5344085440946 L 232.38797979154253 206.50873908506932 L 232.42575262327787 206.4793220642512 L 232.4605387622072 206.44642719429388 L 232.492019268425 206.41035607482982 L 232.51990551002245 206.37143942722642 L 232.5439418094357 206.33003406233686 L 232.5639077876488 206.28651960904705 L 232.57962038475912 206.24129503361326 L 232.59093553837886 206.19477498170355 L 232.60265852273727 206.1340497825639 L 232.60387893741125 206.12749338096063 L 232.61480422951195 206.06654309656378 L 232.61593240261485 206.05999930377894 L 232.6260581473595 205.99884372183973 L 232.62709562463897 205.99230981805303 L 232.63641996692934 205.9309687262865 L 232.63736809186605 205.92444195325 L 232.64588917660384 205.862935139371 L 232.646749092319 205.85641270511852 L 232.65446506440594 205.79475995684194 L 232.6552377152361 205.7882390400555 L 232.66214671957394 205.7264601450963 L 232.66283285229366 205.71993789919864 L 232.6689330337841 205.65805264527177 L 232.66953319846212 205.65152620230842 L 232.6748227020069 205.58955437712876 L 232.67533725248538 205.5830208514944 L 232.6798142229862 205.52098224277688 L 232.68024331697399 205.51443873485434 L 232.68390589933261 205.45235313031387 L 232.68424949810873 205.44579673007817 L 232.68709583722688 205.38368391742972 L 232.687353704951 205.37711170808356 L 232.68938194573036 205.31499147504198 L 232.68955364836185 205.30840053674098 L 232.69076193570422 205.24629267102122 L 232.6908468395333 205.23968008474665 L 232.69123331834032 205.17760437406366 L 232.69123058813815 205.17096722571475 L 232.69079340331163 205.10894345778343 L 232.69070200011 205.1022788425403 L 232.68943929655163 205.04032680507555 L 232.6892579750662 205.0336318321111 L 232.68716789767765 204.97177131282788 L 232.6868952033925 204.96504311042855 L 232.6839758970756 204.90329389704175 L 232.68361016301247 204.896529618206 L 232.67985977266886 204.83491149843053 L 232.6793991158684 204.8281083270288 L 232.67481578639985 204.7666410885796 L 232.6742581041489 204.7597962461344 L 232.6688399804571 204.6984996767264 L 232.6681829463019 204.69161042990638 L 232.66192817328863 204.63050431725452 L 232.6611692328819 204.6235679861518 L 232.65407595544886 204.56267211797098 L 232.65321232228644 204.55568608525238 L 232.64527868533534 204.4950202492575 L 232.64430733644815 204.48798197027335 L 232.63553148488074 204.42756595417933 L 232.63444915655748 204.42047296811603 L 232.62482923527548 204.36032655963783 L 232.6236324189041 204.3531765018086 L 232.6131665728092 204.2933194886611 L 232.6118515109381 204.28611010402304 L 232.6005378849321 204.2265622739212 L 232.59910056766552 204.2192914319078 L 232.5869373066501 204.16007257256652 L 232.5853734685101 204.15273828333153 L 232.572358717387 204.0938681824657 L 232.5706638347892 204.08646861461838 L 232.55679573846012 204.02796705994297 L 232.55496502797163 204.02050055986194 L 232.5402417313383 203.96238733909183 L 232.53827014890467 203.95485245189118 L 232.52268979686886 203.89714735274134 L 232.52057203821926 203.8895428449548 L 232.50413277568265 203.8322656551401 L 232.5018632781454 203.82459053917862 L 232.48456325000976 203.76776104641402 L 232.4821361959923 203.7600146068294 L 232.4639735471593 203.7036525988298 L 232.4613828695724 203.69583442040502 L 232.4423557449438 203.63995968488535 L 232.4395951348719 203.63206968253667 L 232.41970167934943 203.57670200721185 L 232.416764596294 203.56874045766475 L 232.39600295477936 203.51389963024968 L 232.39288263982235 203.50586720540923 L 232.37125095721728 203.45157301361888 L 232.36794044947104 203.44347081550987 L 232.34543687067728 203.3897430470591 L 232.3419290274045 203.38157264416375 L 232.31855169732376 203.32843108676752 L 232.31483921811991 203.3201945515287 L 232.29058628165396 203.26765899290191 L 232.286661737089 203.25935894009 L 232.26153133913948 203.2074491679476 L 232.2573872042531 203.19908879352323 L 232.23137748972178 203.14782459558012 L 232.2270061827473 203.13940771559234 L 232.20011529653593 203.08880887956346 L 232.19550922320596 203.08033996854758 L 232.16773531021627 203.0304262821478 L 232.16288691395656 203.02191051038457 L 232.1342281190902 202.97270176132886 L 232.1291299373526 202.9641450302387 L 232.09958440551137 202.915661006242 L 232.0942291324115 202.90706998107746 L 232.06379500849712 202.85933046985463 L 232.0581755638317 202.8507126087754 L 232.02685099274586 202.8037373980414 L 232.02096059733373 202.79510097655398 L 231.9887437239782 202.7489098540237 L 231.9825759811245 202.7402639836901 L 231.949464950401 202.6948767370785 L 231.94301393311463 202.68623137733934 L 231.90900688992485 202.64166779436133 L 231.90226723332339 202.63303375627234 L 231.86736232256908 202.5893136246428 L 231.86032932068838 202.58070256530763 L 231.82452468727124 202.53784567274153 L 231.81719439326986 202.52927007925072 L 231.78048818209166 202.48729621346294 L 231.7728575105868 202.47876937519908 L 231.73524786654923 202.43769832390458 L 231.7273146965843 202.42923429219564 L 231.6887997645891 202.38908584310934 L 231.68056304147547 202.38069937735648 L 231.6411409664244 202.34149331819327 L 231.63260080048195 202.3331998178263 L 231.59226972727666 202.29495593630114 L 231.58342748729712 202.2867713581831 L 231.5421855608394 202.24950944201086 L 231.53304395992788 202.241450203231 L 231.4908893251194 202.20519004012664 L 231.48145249648874 202.19727290651363 L 231.43838329823132 202.16203428419206 L 231.42865685846613 202.1542762452749 L 231.3846712416614 202.12007895145106 L 231.37466233904402 202.1124970830632 L 231.32975844859374 202.07936090545195 L 231.31947579420253 202.07197222161358 L 231.27365177500846 202.0399169479299 L 231.2631056545584 202.0327382441149 L 231.2163596515222 202.0017836620737 L 231.20556191623928 201.99483135238077 L 231.15789207426275 201.96499724969698 L 231.14685610952552 201.95828720082758 L 231.09826057351032 201.92959336521608 L 231.08700124450985 201.9231407304666 L 231.03747815935776 201.89560694964234 L 231.0260117336132 201.88942600632438 L 230.97555924422588 201.86307206800228 L 230.96390329143034 201.85717606180734 L 230.9125195427096 201.8320217537023 L 230.9006928130376 201.8264227534988 L 230.8483759498851 201.80248786332578 L 230.8363982325516 201.79719662972556 L 230.7831463998691 201.77450094519946 L 230.77103836432948 201.76952681593755 L 230.7168497070187 201.74809012477328 L 230.70463272976005 201.74344091954512 L 230.6495053927227 201.7232830094576 L 230.6372013730333 201.71896495633735 L 230.5811335011711 201.70010561504154 L 230.56876466961683 201.6961233000122 L 230.51175440783155 201.67858231522297 L 230.49934313134935 201.67493865568858 L 230.4413886245427 201.65873581512088 L 230.42895721213614 201.6554320575972 L 230.3700566052098 201.64058714896595 L 230.3576271181167 201.6376228904632 L 230.29777855597246 201.62415570148332 L 230.28537262596606 201.62152893345993 L 230.2245742535056 201.60945925184632 L 230.21221291263132 201.6071664250352 L 230.1504628747564 201.5965140385028 L 230.13816639936323 201.59455014642367 L 230.07546284097555 201.58533484268742 L 230.0632506123739 201.58369352127298 L 229.9995916783752 201.57593508804774 L 229.9874820618797 201.5746087285397 L 229.9228658971717 201.56832695354043 L 229.9108761407057 201.56730682565856 L 229.84530089019015 201.5625214966002 L 229.83344704303067 201.56179787894447 L 229.76691085160928 201.55852878354193 L 229.7552077033126 201.5580910982527 L 229.68770871588706 201.55635802422088 L 229.67616975492342 201.55619497307748 L 229.60770611639552 201.55601770813132 L 229.59634350759143 201.5561174074999 L 229.52691336286284 201.5575157393543 L 229.51573794238314 201.55786585168255 L 229.44533943635562 201.56085956805245 L 229.4343607226828 201.56144742793637 L 229.36299200025806 201.5660563165367 L 229.3522182194204 201.56686904973031 L 229.27987742550016 201.57311289827595 L 229.26931554867932 201.5741375323673 L 229.19600082816535 201.5820361285732 L 229.1856566197669 201.5832596943926 L 229.11136611756086 201.59283282597372 L 229.10124419183026 201.59424244912267 L 229.02597605283393 201.60550990379386 L 229.02603022012843 201.60587174873325 L 229.01691238881224 201.60695187976498 Z" id="element_106" /></svg>