<?xml version='1.0' encoding='utf-8'?>
<svg xmlns:svg="http://www.w3.org/2000/svg" version="1.1" id="Layer_1" x="0px" y="0px" viewBox="0 0 500 500" style="width: 188px;" xml:space="preserve" data-imageid="pipeline-31" imageName="Pipeline" class="illustrations_image"><svg:style type="text/css">
	.st0_pipeline-31{fill:#EAC2A7;}
	.st1_pipeline-31{opacity:0.63;fill:url(#SVGID_1_);enable-background:new    ;}
	.st2_pipeline-31{opacity:0.63;fill:url(#SVGID_00000160179602106895528520000002428925925115162253_);enable-background:new    ;}
	.st3_pipeline-31{opacity:0.63;fill:url(#SVGID_00000137130286687107314790000002274324629384346514_);enable-background:new    ;}
	.st4_pipeline-31{opacity:0.63;fill:url(#SVGID_00000060021897825768142520000003461003070705911428_);enable-background:new    ;}
	.st5_pipeline-31{opacity:0.63;fill:url(#SVGID_00000098909511627820371590000002388744079869833603_);enable-background:new    ;}
	.st6_pipeline-31{fill:#6D3209;}
	.st7_pipeline-31{fill:#DF5D00;}
	.st8_pipeline-31{fill:#FF8522;}
	.st9_pipeline-31{fill:#68E1FD;}
	.st10_pipeline-31{fill:#174B6B;}
	.st11_pipeline-31{fill:#08283F;}
	.st12_pipeline-31{fill:#FFFFFF;}
	.st13_pipeline-31{opacity:0.15;fill:#FF8522;enable-background:new    ;}
	.st14_pipeline-31{fill:#FF9F57;}
</svg:style><svg:path class="st6_pipeline-31" cx="167.3" cy="267.3" rx="12.6" ry="6.8" id="element_70" d="M 163.64241306659378 260.792805717021 L 162.47818875219988 261.01761917892327 L 161.36040111599243 261.3029354024312 L 160.29981506395302 261.6460066363427 L 159.30664461953808 262.0435289171334 L 158.3904545570495 262.4916738879315 L 157.56006828762952 262.98612566768725 L 156.82348288498795 263.5221224154667 L 156.18779206921073 264.09450218958324 L 155.6591178903578 264.6977526599174 L 155.2425517697742 265.32606419466964 L 154.94210546691932 265.9733858102903 L 154.76067244393033 266.633483445759 L 154.70000000000002 267.3 L 154.76067244393033 267.966516554241 L 154.94210546691932 268.6266141897097 L 155.24255176977417 269.2739358053304 L 155.6591178903578 269.9022473400826 L 156.18779206921073 270.5054978104168 L 156.82348288498792 271.0778775845333 L 157.56006828762952 271.6138743323128 L 158.3904545570495 272.10832611206854 L 159.30664461953808 272.5564710828666 L 160.29981506395302 272.95399336365733 L 161.36040111599243 273.2970645975688 L 162.47818875219988 273.58238082107675 L 163.64241306659378 273.807194282979 L 164.84186194259678 273.969339906742 L 165.766956159593 274.0433977160166 L 165.75674227249044 274.04146947143425 L 165.74411428406722 274.0389165615745 L 165.5733967011366 274.00210831999124 L 165.56083195214975 273.99922926725856 L 165.3913164729006 273.95808009571454 L 165.37880953902513 273.9548725366572 L 165.21063344072965 273.9094195371179 L 165.19817919308062 273.90587987200183 L 165.0314797530111 273.85616014643267 L 165.01907347520617 273.8522835555657 L 164.8539879706349 273.79833420593224 L 164.84162547835436 273.794114671689 L 164.6782911865536 273.7359727999567 L 164.66596895058558 273.7314031354448 L 164.50452314882756 273.6691058435791 L 164.49223842245897 273.66417772918453 L 164.33281838801597 273.5977621191509 L 164.3205693394614 273.5924661485046 L 164.16331234960572 273.5219693222686 L 164.15109819994765 273.5162950594753 L 163.99614153195148 273.44175411900227 L 163.98396269877395 273.43569016926733 L 163.83144362990961 273.3571422165229 L 163.81930187644784 273.3506763125878 L 163.66935768398758 273.2681584495373 L 163.65725627317877 273.2612775565814 L 163.51002423439485 273.17482688519044 L 163.49796808667108 273.1675173270526 L 163.35358547883575 273.0771709492866 L 163.34158133188106 273.06941855898987 L 163.20018543226664 272.97521357681427 L 163.1882420002092 272.9670038743958 L 163.04997008608785 272.8689773897761 L 163.03809821477478 272.8602957903223 L 162.90308756341886 272.758484905224 L 162.89130037748913 272.7493169597207 L 162.75968826617085 272.6437587761093 L 162.7480013026472 272.6340904472162 L 162.61992500863886 272.5248220670571 L 162.60835633073245 272.51464004115184 L 162.4839531313063 272.4016985664105 L 162.47252341511364 272.39099060217245 L 162.35193058754194 272.2744131348145 L 162.34066317339122 272.26316844721 L 162.22401799494622 272.14299208920073 L 162.2129388944069 272.13120176595976 L 162.10037864236088 272.00746361926474 L 162.08951649147045 271.99512106480273 L 161.98117844309567 271.86785823138746 L 161.97056439231932 271.8549596306786 L 161.86658582488803 271.7242092125085 L 161.8562533568297 271.7107540047089 L 161.7567715476142 271.5765531037495 L 161.74675621467742 271.5625444525454 L 161.65190844094994 271.4249301707622 L 161.64224751711163 271.4103754156472 L 161.55217105614446 271.26938485500557 L 161.54290309982164 271.25429592521306 L 161.457735228887 271.10996618767854 L 161.44889955754618 271.09435995856956 L 161.36877755391637 270.94672814610766 L 161.36041363552903 270.9306267167653 L 161.28547477647632 270.77972993134136 L 161.2776215479638 270.76316080222034 L 161.20800311076042 270.6090361458 L 161.20069823892177 270.5920322767929 L 161.13653750084 270.4347168513416 L 161.1298166065195 270.41731658372294 L 161.0712508448316 270.2568474912061 L 161.06514671578043 270.2390943216167 L 161.0123132077587 270.0755086639998 L 161.00685502928897 270.0574508648405 L 160.95989105220562 269.89078574408904 L 160.95510368682804 269.87247583206755 L 160.91414651795534 269.70276835014704 L 160.91004986535503 269.6842624127985 L 160.87523678196527 269.51154967167435 L 160.8718452486687 269.4929065698146 L 160.84331352803414 269.3172256714523 L 160.8406356319316 269.29850614302416 L 160.8185225513245 269.1198941893893 L 160.81656068005256 269.10115988632947 L 160.80100351674517 268.91965397938736 L 160.79975385124092 268.9009664733645 L 160.79088988250552 268.71660371508074 L 160.79034248844638 268.698023509818 L 160.7883089915552 268.510841002158 L 160.7884480726265 268.4924265893744 L 160.79338232485185 268.3024614343036 L 160.79418662359427 268.28426842717613 L 160.80622590220838 268.09155772666014 L 160.8076692272557 268.07363809944815 L 160.82695080953087 267.8782189554523 L 160.82900266287626 267.86062041110415 L 160.8556638260847 267.662529925594 L 160.85829010090674 267.64529540539934 L 160.89246812232076 267.44457068034035 L 160.89563184093154 267.4277380217318 L 160.9374639978234 267.22441615908946 L 160.94112606032627 267.20801790015156 L 160.9907496299682 267.0021360018913 L 160.9948695469118 266.98619932454903 L 161.05242180657606 266.7777944926364 L 161.05695839283592 266.762341291223 L 161.12257661979484 266.5514506276234 L 161.1281847752351 266.5361434178267 L 161.12767304903178 266.5359657005715 L 161.23519825517957 266.22635330274363 L 161.23746637460837 266.2199625603158 L 161.3479022299478 265.9153632563899 L 161.3502968350475 265.9088980178223 L 161.46361551310446 265.6093050057714 L 161.46614109040814 265.6027667249519 L 161.58231476470854 265.30817320274895 L 161.58497586242962 265.30156357194363 L 161.70397670649933 265.0119627375617 L 161.7067779236006 265.0052837019158 L 161.82857811096554 264.72066875332774 L 161.83152408474245 264.7139225254244 L 161.95609578892848 264.43428666060333 L 161.9591911810222 264.42747573496194 L 162.0865065755552 264.1528121518809 L 162.08975605631989 264.1459393192568 L 162.2197873147258 263.8762412158887 L 162.2231955458815 263.8693095772216 L 162.3559148416862 263.6045701515394 L 162.35948645720165 263.597583131378 L 162.49486596393103 263.3377955813547 L 162.49860554909438 263.3307569405686 L 162.6366174402743 263.07591446417734 L 162.64052950892798 263.0688283117487 L 162.78114595808435 262.8189241069623 L 162.78523492802105 262.81179491063165 L 162.9284281086798 262.5668221754232 L 162.93269827521974 262.5596547709528 L 163.0784403609067 262.31960670329534 L 163.0828958687068 262.312406302092 L 163.23115903294794 262.0772760999584 L 163.23580384612137 262.0700482947953 L 163.38656026244252 261.83982915615866 L 163.3913981331045 261.83257992471977 L 163.54461997503157 261.607265047553 L 163.54965441042359 261.60000075352525 L 163.7053138514825 261.37958333580144 L 163.71054807986718 261.37231072723677 L 163.86861729358378 261.15678396692886 L 163.8740542291467 261.1495101716056 L 164.0345053890469 260.9388672666866 L 164.04014759608359 260.9315997842125 L 164.20295287569326 260.7258339326554 L 164.20880253240554 260.71858062307166 L 164.21096768074588 260.7159465491153 L 163.64241306659378 260.792805717021 Z M 168.53501596815246 274.06725614137093 L 169.75813805740322 273.969339906742 L 170.95758693340625 273.807194282979 L 172.12181124780014 273.58238082107675 L 173.2395988840076 273.2970645975688 L 174.300184936047 272.95399336365733 L 175.29335538046195 272.5564710828666 L 176.2095454429505 272.10832611206854 L 177.0399317123705 271.6138743323128 L 177.22463157013667 271.47947237060816 L 177.2160064011959 271.4781655268293 L 177.21275703378154 271.4776622633739 L 177.20366612469064 271.4762236346625 L 177.20042687544995 271.4757001254175 L 177.19133596635905 271.4742002784631 L 177.18810721006693 271.4736567227901 L 177.17901630097603 271.4720956575927 L 177.17579840587845 271.47153226128114 L 177.16670749678752 271.46990997784064 L 177.16350082445499 271.46932695290553 L 177.15440991536408 271.46764345122205 L 177.1512148204835 271.46704101568486 L 177.1421239113926 271.4652962957583 L 177.1389407416381 271.46467467343626 L 177.1298498325472 271.4628687352667 L 177.1266789284169 271.462228155551 L 177.11758801932598 271.46036099913835 L 177.11442971400564 271.4597016967724 L 177.10533880491474 271.4577733221168 L 177.10219342413805 271.4570955369691 L 177.09310251504715 271.45510594407045 L 177.0899703769862 271.45440992090954 L 177.0808794678953 271.45235910976777 L 177.07776088305636 271.4516450980347 L 177.06866997396543 271.44953306865 L 177.06556524504447 271.4488013222179 L 177.05647433595357 271.4466280745901 L 177.05338375780505 271.44587885154607 L 177.04429284871415 271.4436443856752 L 177.0412167082242 271.4428779480776 L 177.0321257991333 271.44058226396373 L 177.02906437515432 271.4397988776107 L 177.0199734660634 271.4374419752538 L 177.01692702936228 271.4366419094536 L 177.00783612027138 271.43422378885367 L 177.00480493346686 271.43340731618946 L 176.99571402437596 271.43092797734647 L 176.99269834189536 271.4300953734455 L 176.98360743280446 271.42755481635953 L 176.98060750083553 271.42670635965845 L 176.9715165917446 271.42410458432937 L 176.96853264823628 271.42324055585266 L 176.95944173914538 271.4205775622806 L 176.95647401375436 271.41969824540286 L 176.94738310466346 271.41697403358773 L 176.94443181877054 271.41607971381524 L 176.93534090967964 271.41329428375707 L 176.93240627637942 271.4123852485016 L 176.9233153672885 271.40953860020045 L 176.92039759138257 271.4086151385541 L 176.91130668229167 271.40570727200986 L 176.90840596033738 271.4047696745373 L 176.89931505124648 271.40180058975005 L 176.8964315715371 271.40084914825997 L 176.8873406624462 271.39781884522966 L 176.88447460507328 271.39685385257314 L 176.87538369598235 271.3937623312998 L 176.87253523285938 271.39278408115746 L 176.86344432376848 271.3896313416411 L 176.86061361866945 271.3886401283165 L 176.85152270957855 271.3854261705571 L 176.84870991821353 271.3844222887843 L 176.83961900912263 271.3811471127819 L 176.8368242791617 271.38013085751703 L 176.82773337007077 271.37679446327155 L 176.82495684123413 271.37576612950966 L 176.81586593214323 271.37236851702113 L 176.81310773626316 271.37132839960526 L 176.80401682717226 271.3678695688737 L 176.80127708826961 271.36681796231204 L 176.7921861791787 271.3632979133375 L 176.78946501353428 271.3622351116205 L 176.78037410444338 271.35865384440285 L 176.77767162071254 271.3575801408408 L 176.7685807116216 271.35393765538015 L 176.7658970108885 271.35285334241905 L 176.7568061017976 271.34914963871535 L 176.75414127770682 271.3480550077876 L 176.74505036861592 271.3442900858409 L 176.74240450744384 271.34318542719427 L 176.73331359835294 271.33935928700447 L 176.7306867791455 271.3382448895625 L 176.72159587005456 271.3343575311297 L 176.71898816469658 271.33323368232647 L 176.70989725560568 271.32928510565057 L 176.70730872898045 271.3281520913078 L 176.69821781988955 271.32414229638897 L 176.69564852994142 271.32300040055543 L 176.68655762085052 271.3189293873935 L 176.68400761875753 271.31777889223554 L 176.67491670966663 271.31364666083056 L 176.67238603992908 271.3124878464909 L 176.66329513083815 271.30829439684294 L 176.66078383140587 271.3071275413195 L 176.65169292231496 271.3028728734285 L 176.64920102473164 271.30169825246645 L 176.64011011564074 271.2973823663324 L 176.6376376451586 271.296200253306 L 176.6285467360677 271.29182314892887 L 176.62609371178442 271.29063381473867 L 176.6170028026935 271.2861954921185 L 176.61456923768418 271.28499920509034 L 176.60547832859328 271.2804996642272 L 176.60306423003922 271.27929669001406 L 176.59397332094832 271.2747359309078 L 176.5915786902918 271.2735265324095 L 176.5824877812009 271.26890455506026 L 176.58011261425347 271.2676889923239 L 176.57102170516256 271.2630057967316 L 176.56866599226908 271.2617843268853 L 176.55957508317815 271.25703991305 L 176.55723880933016 271.2558127902151 L 176.54814790023926 271.2510071581367 L 176.5458310452455 271.2497746333741 L 176.5367401361546 271.2449077830527 L 176.53444267474353 271.24367010427875 L 176.52535176565263 271.2387420357143 L 176.52307366763864 271.2374994476544 L 176.5139827585477 271.2325101608469 L 176.51172398895554 271.2312629049719 L 176.50263307986464 271.2262123999214 L 176.50039359907785 271.22496071440173 L 176.49130268998695 271.2198489911082 L 176.48908245386983 271.2185931107576 L 176.47999154477893 271.21342016922097 L 176.47779050483956 271.2121603254681 L 176.46869959574866 271.2069261656885 L 176.46651769924682 271.2056625865223 L 176.4574267901559 271.20036720849964 L 176.45526398026055 271.199100118447 L 176.44617307116965 271.19374352218136 L 176.4440292870795 271.19247314226834 L 176.4349383779886 271.1870553277596 L 176.43281355508387 271.18578187549554 L 176.42372264599297 271.1803028427438 L 176.42161671594323 271.17902653208375 L 176.41252580685233 271.17348628108897 L 176.4104386977694 271.1722073224276 L 176.40134778867846 271.16660585318976 L 176.39927942523337 271.16532445333763 L 176.39018851614247 271.15966176585675 L 176.38813881970168 271.15837812803335 L 176.38141378884504 271.1541438493458 L 176.377465105221 271.15282005722213 L 176.3681202263258 271.1496812663525 L 176.35874139947197 271.1465242645542 L 176.34932919330174 271.14334833149724 L 176.33988417050205 271.1401527338637 L 176.33040688788307 271.1369367252585 L 176.32089789649234 271.13369954611807 L 176.32039227643557 271.1335271010096 L 176.31135774172 271.13044042360394 L 176.31081284101856 271.1302539060223 L 176.30178696342824 271.1271585714914 L 176.30120269818246 271.12695780006817 L 176.29218609608353 271.1238531900459 L 176.2915623771588 271.1236379697768 L 176.28255566891733 271.120523465897 L 176.28189240210963 271.120293588004 L 176.2728962060917 271.1171685719008 L 176.27219329227802 271.11692381367686 L 176.26320822684974 271.1137876669839 L 176.2624655622252 271.1135277916547 L 176.25349224575265 271.110379896006 L 176.25270972199937 271.11010465255487 L 176.24374877284862 271.1069443895844 L 176.24292627737032 271.1066535125886 L 176.23397831390753 271.1034802639302 L 176.2331157300811 271.1031734733897 L 176.22418137067228 271.0999866206773 L 176.22327857807116 271.09966362182183 L 176.21435844108245 271.0964625466893 L 176.21341531579586 271.09612302980696 L 176.20451001959336 271.09290711388826 L 176.2035264344703 271.0925507541153 L 176.19463659742004 271.0893193790443 L 176.19361242240788 271.08894583617695 L 176.18473866287604 271.0856983835876 L 176.1836737653414 271.0853073018758 L 176.17481670169403 271.08204315340197 L 176.1737109467779 271.08163416134414 L 176.16487119738105 271.07835269861977 L 176.16372444836188 271.0779254087495 L 176.1549026315817 271.0746260134084 L 176.15371475028854 271.07418002208885 L 176.14491148449108 271.0708620757651 L 176.1436823316946 271.07039696296437 L 176.134898235246 271.0670598472918 L 176.13362767112932 271.06657517637876 L 176.12486336239562 271.06321827299126 L 176.12355124700187 271.0627135905128 L 176.11480734434917 271.05933628104424 L 176.1134535380909 271.0588111165168 L 176.10473065988532 271.05541278260114 L 176.1033350240579 271.054866648296 L 176.09463378866553 271.0514466715672 L 176.0931961860011 271.05087906230335 L 176.084517211788 271.0474368243953 L 176.08303750702976 271.0468472173332 L 176.07438141236202 271.0433820998797 L 176.0728594728932 271.04276995433077 L 176.06422687613696 271.0392813389658 L 176.06266257260333 271.03864609619393 L 176.05405409212463 271.0351333645514 L 176.0524472991172 271.0344744475943 L 176.04386355328216 271.0309369813081 L 176.04221415005463 271.0302537948096 L 176.03365575722933 271.0266909755137 L 176.0319636284304 271.0259829055604 L 176.02343120698092 271.02239411488864 L 176.0216962434495 271.0216605288721 L 176.01319041174196 271.01804514845844 L 176.01141251130403 271.01728539493826 L 176.0029338877045 271.01364280641656 L 176.00111295605598 271.01285621502285 L 175.99266215893056 271.00918580002707 L 175.99079811050515 271.0083716813608 L 175.98237575821992 271.0046728215248 L 175.98046851714167 271.00383046709976 L 175.97207522806275 271.0001025440575 L 175.97012472911214 270.99923122625745 L 175.96176112160558 270.99547362164276 L 175.95976731124242 270.9945725937132 L 175.95143400367434 270.9907846891601 L 175.94939684108377 270.98985318522307 L 175.94109445182025 270.9860343623654 L 175.93901391002373 270.985071597479 L 175.93074305743087 270.98122123795065 L 175.9286191244313 270.98022640820227 L 175.9203804268752 270.9763438936372 L 175.9182131068255 270.975316176268 L 175.91000718267222 270.9714008883 L 175.90779649712772 270.9703394418936 L 175.89962396474337 270.9663907621567 L 175.89736995391414 270.9652947268544 L 175.8892314316648 270.9613120369825 L 175.88693415573422 270.9601805347623 L 175.87883026198602 270.9561632163893 L 175.87648980247516 270.95499535140175 L 175.86842115559415 270.95094278616153 L 175.86603761675252 270.9497376451183 L 175.8580048351048 270.9456492146448 L 175.8555783453497 270.94440586727455 L 175.84758204730136 270.9402809532017 L 175.84511276068537 270.93899845276883 L 175.83715356460252 270.9348364367305 L 175.8346416623373 270.93351382063554 L 175.82672018658602 270.92931408426557 L 175.82416587859876 270.9279503747216 L 175.81628274154514 270.923712299654 L 175.81368626803243 270.9223065044254 L 175.80584208804254 270.9180294722941 L 175.8032037211037 270.9165805855469 L 175.79539911654365 270.91226397798573 L 175.7927191618148 270.9107709812149 L 175.78495475105072 270.9064141798578 L 175.7822335493644 270.9048760429102 L 175.7745099507623 270.90047842939106 L 175.77174787981784 270.8988941115835 L 175.7640657117439 270.8944550675362 L 175.76126318782386 270.8928235188947 L 175.7536230686441 270.8883424259533 L 175.75078054828765 270.88666258853056 L 175.7431830963682 270.8821388283288 L 175.7403010781138 270.8804096376724 L 175.7327469118207 270.8758425918443 L 175.7298259378752 270.87406297853914 L 175.72231567557463 270.8694520287185 L 175.71935633353897 270.86762092008826 L 175.71189059359693 270.86296544790906 L 175.70889351812113 270.86108176980895 L 175.7014729189038 270.8563811569051 L 175.69843879335423 270.8544438356634 L 175.69106395322763 270.8496974636688 L 175.68799351130048 270.8477054281449 L 175.68066504863071 270.8429126786934 L 175.67755907593923 270.8408648624775 L 175.6702776090924 270.8360251172031 L 175.66713694466574 270.83392046092524 L 175.65990309200794 270.8290331014618 L 175.65672862978775 270.8268705552743 L 175.6495430096851 270.8219349632557 L 175.64633569988942 270.81971348941096 L 175.63919893070795 270.81472904647126 L 175.6359597811246 270.8124476220419 L 175.62887248123045 270.8074137098148 L 175.62560255845537 270.80507132957587 L 175.6185653462146 270.7999873296954 L 175.6152657767104 270.7975830090876 L 175.60827927048913 270.79244830318765 L 175.6049512415699 270.7899810814409 L 175.5980160597342 270.78479505115536 L 175.5946608204027 270.7822639945267 L 175.58777758131865 270.7770260214896 L 175.58439644293085 270.77443022660026 L 175.5775657649646 270.7691396924453 L 175.57416010177704 270.76647828976235 L 175.56738260329462 270.76113457612354 L 175.56395385278117 270.75840673350206 L 175.55723015214866 270.7530092220133 L 175.55377981515838 270.7502141483558 L 175.54711053074192 270.74476222065107 L 175.54364017143357 270.7418991696329 L 175.53702592159925 270.736392207346 L 175.533537167191 270.73346048123796 L 175.52810538460866 270.72885356346717 L 175.5145249330002 270.72311604357463 L 175.51290763657477 270.7224294108238 L 175.49776921017218 270.71597088618347 L 175.4961515554666 270.7152773763538 L 175.48101745762668 270.7087576334704 L 175.47939936059433 270.70805717500474 L 175.46427020968312 270.7014762138783 L 175.46265158777862 270.7007687339372 L 175.44752800216222 270.6941265545678 L 175.44590877434194 270.6934119790344 L 175.43079137238647 270.6867085814219 L 175.4291714591139 270.6859868349089 L 175.4140608591854 270.6792222190534 L 175.4124401824041 270.6784932248943 L 175.39733700286874 270.6716673907957 L 175.39571548602368 270.67093107105785 L 175.38062034524748 270.66404401871625 L 175.37899791326097 270.663300294192 L 175.36391142961006 270.65635202360744 L 175.3622880088899 270.6556008138201 L 175.34721080073035 270.6485913249924 L 175.34558631917616 270.6478325482004 L 175.33051900487408 270.6407618411297 L 175.32889339186517 270.63999541432196 L 175.31383658978663 270.63286348900823 L 175.31220977618605 270.6320893279064 L 175.29716410469715 270.6248961843496 L 175.29553602285924 270.62411420341124 L 175.2805021003261 270.6168598416114 L 175.27887268409742 270.6160699540302 L 175.2638511288861 270.6087543739874 L 175.2622203136021 270.6079564916903 L 175.2472117440787 270.60057969340437 L 175.2455794665839 270.59977372706 L 175.2305845011145 270.5923357105311 L 175.2289506997498 270.5915215695415 L 175.21396995670048 270.58402233476954 L 175.212334571325 270.5831999272786 L 175.19736866906186 270.5756394742636 L 175.19573164105213 270.574808707154 L 175.18078119794131 270.5671870358959 L 175.17914247020417 270.5663478147924 L 175.1642081046117 270.5586649252913 L 175.162567621591 270.5578171545605 L 175.147649951883 270.5500730468164 L 175.14600765956897 270.54921662956804 L 175.1311073041115 270.5414113035809 L 175.12946315005567 270.5405461416709 L 175.11458072721487 270.53267959744073 L 175.11293466054047 270.5318055914724 L 175.09807078868243 270.52387782899916 L 175.09642276009887 270.5229948783259 L 175.08157805758964 270.5150058976097 L 175.07992801939804 270.51411390033275 L 175.06510310460374 270.5060637013734 L 175.06345101072947 270.50516255435383 L 175.04864650201617 270.4970511371515 L 175.04699230800355 270.49614073600185 L 175.03220882373736 270.4879681005565 L 175.03055248678257 270.4870483396526 L 175.01579064532956 270.47881448596416 L 175.01413212428963 270.47788525844396 L 174.99939254401593 270.4695901865125 L 174.9977317994329 270.4686513842834 L 174.98301509870456 270.460295094109 L 174.9813520928155 270.45934660784667 L 174.96665888999866 270.4509290994292 L 174.96499358676783 270.44997081858907 L 174.95032450022853 270.4414920919285 L 174.9486568653603 270.4405239047463 L 174.93401251346467 270.43198395984274 L 174.93234251442863 270.4310057533421 L 174.91772351554272 270.42240459019547 L 174.9160511215969 270.42141625019417 L 174.9014580940868 270.41275386880454 L 174.8997832762944 270.4117552799172 L 174.88521683852625 270.40303168028447 L 174.88353956979768 270.40202272594 L 174.86900034013755 270.3932379080643 L 174.86732059523428 270.39221847050123 L 174.85280919204823 270.38337243438247 L 174.85112694762506 270.3823423946668 L 174.83664398927925 270.37343514030505 L 174.83495922390324 270.37239437833443 L 174.8205053287637 270.36342590572957 L 174.8188180229501 270.36237430024823 L 174.80439380938296 270.3533446094004 L 174.80270394561367 270.35228203800335 L 174.78831003198496 270.3431911289124 L 174.78661759475017 270.342117468064 L 174.77225459942605 270.33296534073 L 174.77055957524502 270.3318804657704 L 174.75622811659156 270.32266712019344 L 174.75453049404726 270.32157090535327 L 174.74023119043053 270.3122963415332 L 174.73853096020989 270.311188659953 L 174.724264429996 270.30185287789 L 174.7225615849075 270.3007336016249 L 174.70832844646256 270.2913366013188 L 174.70662298148906 270.2902056013668 L 174.69242385317912 270.28074738281765 L 174.69071576549487 270.2796045291248 L 174.67655126568607 270.2700850923327 L 174.6748405547025 270.2689302538177 L 174.6607113017609 270.2593495987825 L 174.65899796916622 270.2581826433579 L 174.6449045814579 270.24854077007967 L 174.6431886312409 270.2473615646631 L 174.62913172713195 270.2376584731418 L 174.6274131656379 270.23646688368933 L 174.61339336349442 270.226702573925 L 174.61167219944534 270.22549846544115 L 174.59769011763345 270.2156729374338 L 174.59596636218376 270.21445617400633 L 174.58202261906953 270.204569427756 L 174.58029628583282 270.2033398725719 L 174.56639149978233 270.19339190807847 L 174.56466260488588 270.1921494234598 L 174.55079739426523 270.18214024072336 L 174.54906595637698 270.1808846881445 L 174.53524093955227 270.170814287165 L 174.53350697993457 270.16954552729044 L 174.5197227752719 270.1594139080679 L 174.5179863178198 270.1581318007794 L 174.50424354368522 270.14793896331383 L 174.50250461496927 270.1466433677422 L 174.4888038897289 270.1363893120336 L 174.48706251903727 270.1350800865909 L 174.4734044610572 270.1247648126392 L 174.4716606804508 270.123441815062 L 174.45804590809712 270.1130653228673 L 174.45629975243747 270.1117284102407 L 174.44272888407627 270.101290699803 L 174.44098039108613 270.0999397286104 L 174.42745404508352 270.08944079992966 L 174.4257032553875 270.08807562608956 L 174.41222205010953 270.0775154791658 L 174.41046900727397 270.0761359580683 L 174.39703356108677 270.0655145929014 L 174.39527831168172 270.06412057946415 L 174.38188924295136 270.0534379960543 L 174.38013183658032 270.0520293447546 L 174.3667897636729 270.0412855431017 L 174.36503025303313 270.03986210803475 L 174.35173579431472 270.0290570881388 L 174.34997423523905 270.02761872306206 L 174.33672800907578 270.01675248492313 L 174.3349644605795 270.0152990433078 L 174.32176708533743 270.00437158692574 L 174.32000160967272 270.00290292201527 L 174.30685370371796 269.99191424739024 L 174.30508636641312 269.990430212249 L 174.29198854811173 269.97938031938094 L 174.29021941802466 269.97788076695656 L 174.2771723057428 269.96676965584544 L 174.27540145511074 269.96525443903005 L 174.2624056672144 269.9540821096759 L 174.2606331716962 269.9525510813637 L 174.24768932655158 269.94131753376655 L 174.2459152652789 269.9397705469211 L 174.23302398125205 269.9284757810809 L 174.23124843687793 269.9269126888027 L 174.21841033233488 269.9155567047194 L 174.21663339108068 269.9139773603142 L 174.2038490843876 269.9025601579879 L 174.20207083608784 269.9009644150371 L 174.18934094561078 269.8894859944678 L 174.1875614837588 269.8878737069004 L 174.17488662786386 269.876334068088 L 174.17310604966676 269.8747050902655 L 174.16048684672003 269.8631042332101 L 174.15870525313142 269.86145841999326 L 174.146142321499 269.8497963446948 L 174.14435981727482 269.84813355153506 L 174.13185377532278 269.8364102579936 L 174.1300704690576 269.8347303410095 L 174.1176219351521 269.822945829225 L 174.11583793932925 269.82124864529453 L 174.1034475318363 269.80940291526696 L 174.10166296286528 269.80768832211226 L 174.089331300151 269.7957813738417 L 174.0875462784091 269.79404923012015 L 174.07527397883956 269.78208106360654 L 174.073488628715 269.7803312290077 L 174.06644258361132 269.7733907294925 L 174.05654496745117 269.7654365452689 L 174.0548141488336 269.76403923090663 L 174.02469549468677 269.7396131519351 L 174.02296536091714 269.7382036099578 L 173.9929703799886 269.7136550945002 L 173.99124102295863 269.71223327590104 L 173.9613703336144 269.6875623239573 L 173.9596418467774 269.6861281807819 L 173.92989606738362 269.6613347923522 L 173.92816854574878 269.6598882777313 L 173.89854829467154 269.6349724528155 L 173.89682183480923 269.63351352100756 L 173.8673277304146 269.60847525960565 L 173.86560243044914 269.6070038660303 L 173.83623509110325 269.5818431681423 L 173.83451105071418 269.5803592694217 L 173.80527109478305 269.55507613504767 L 173.80354841519625 269.5535796890402 L 173.77443646104604 269.52817411818006 L 173.7727152450355 269.5266650840243 L 173.74373191103228 269.5011370766781 L 173.7420122629096 269.49961541482725 L 173.71315816741944 269.473964970995 L 173.71144019303003 269.47243064325795 L 173.68271595441905 269.4466577629396 L 173.68099976113612 269.44511073252124 L 173.6524059977704 269.41921541571685 L 173.65069169448307 269.41765564725426 L 173.6222290247287 269.3916378939638 L 173.62051672183824 269.3900653535704 L 173.5921857640613 269.36392516379385 L 173.59047557346582 269.3623398190945 L 173.56227694603243 269.33607719283185 L 173.56056898112098 269.3344790130074 L 173.5325033023972 269.3080939502587 L 173.53079767803516 269.30648290608355 L 173.5028655663871 269.2799754068488 L 173.501162398903 269.27835147073085 L 173.47336447269677 269.25172153501 L 173.47166387987096 269.25008468103346 L 173.4440007574726 269.2233323088265 L 173.4423028585199 269.2216825127898 L 173.41477515829553 269.19480770409683 L 173.4130800738499 269.1931449435534 L 173.38568841416563 269.16614769837435 L 173.3839962662652 269.1644719526754 L 173.38113307454364 269.16162297649424 L 173.38003564105688 269.165023171321 L 173.37235338997704 269.1890307464507 L 173.3647322051815 269.213046486933 L 173.35717196295835 269.2370625401277 L 173.34967250217542 269.26107110979285 L 173.3422336253925 269.2850644566342 L 173.33485509988262 269.3090348988166 L 173.32753665841213 269.3329748129405 L 173.32027799993514 269.3568766349943 L 173.31307879009574 269.38073286164183 L 173.3059386615657 269.4045360517635 L 173.2988572142671 269.42827882809564 L 173.29183401538373 269.45195387928874 L 173.2848685992029 269.4755539622496 L 173.27796046682087 269.49907190465063 L 173.27110908558012 269.5225006080467 L 173.2643138884219 269.5458330509637 L 173.25757427284523 269.5690622929992 L 173.25088959982034 269.59218147872315 L 173.24425919234096 269.61518384243203 L 173.2376823336627 269.6380627135643 L 173.23115826526308 269.66081152261296 L 173.2246861846379 269.6834238070776 L 173.21826524223258 269.70589321984124 L 173.21189453857158 269.7282135361861 L 173.20557312043124 269.75037866338374 L 173.19929883849449 269.77238664267855 L 173.19306483203385 269.7942519568694 L 173.18687659946505 269.81594564086123 L 173.18078528122192 269.8372789618272 L 173.17191706979528 269.86335258030044 L 173.1724940668499 269.86355230598053 L 173.1001263740047 270.07261878961083 L 173.0946528920606 270.08764916272935 L 173.01703527110044 270.2906309240215 L 173.01099075128698 270.30570016825897 L 172.92826047948418 270.5026343091784 L 172.921637297531 270.5177009944591 L 172.83393165215776 270.70862461697135 L 172.82672596678844 270.7236455523032 L 172.73418222511705 270.9085957583737 L 172.7263942268685 270.92352647607436 L 172.62914966617126 271.1025403676686 L 172.62078375150165 271.1173356626784 L 172.51897564905076 271.29045034176187 L 172.51004050895787 271.30506485232615 L 172.40380614202562 271.4723174208643 L 172.394314757403 271.48670623410464 L 172.28379140326163 271.64813379406297 L 172.27376094290236 271.6622530579368 L 172.1590858788242 271.8178927112808 L 172.14853750011497 271.8317002333703 L 172.02984800337222 271.9815890820654 L 172.01880656002982 271.995044895654 L 171.89623990789474 272.13922004166574 L 171.88473357326777 272.15228692070326 L 171.75842704301266 272.29078546599703 L 171.7464868612108 272.3034293727459 L 171.61657773010793 272.43628841928717 L 171.60423711023924 272.44847887154646 L 171.47086265556084 272.5757355213008 L 171.4581568264646 272.5874458698713 L 171.32145432548293 272.7091372248042 L 171.30841976940997 272.7203448360025 L 171.16852649939733 272.8365079980793 L 171.15520038308316 272.84719434033906 L 171.01225362131177 272.9578664115254 L 170.99867324188654 272.9680170491198 L 170.8528102656287 273.073235131381 L 170.83901252694386 273.0828396318328 L 170.69037061347183 273.1826408271345 L 170.6763915459031 273.1916925917454 L 170.52510797248914 273.2861140020529 L 170.51098230634338 273.29461003106263 L 170.35719435025973 273.3836887583416 L 170.34295514978288 273.3916293634939 L 170.18680008830185 273.4754025097096 L 170.1724784502121 273.482790987468 L 170.01409356060591 273.56129565458605 L 169.99971837820556 273.5681379330079 L 169.83924093774647 273.6414112229938 L 169.82483872917686 273.6477154944495 L 169.66240601513718 273.7157945092687 L 169.6480008122872 273.7215708599316 L 169.48375010193914 273.78449270154954 L 169.4693633949618 273.7897527470359 L 169.30343196557766 273.84755451741796 L 169.28908269690427 273.85231105225154 L 169.1216078257563 273.9050298533634 L 169.10731242687726 273.90929652021674 L 168.9384313912377 273.95696945402375 L 168.92420385531852 273.9607604370204 L 168.7540539324597 274.003424605488 L 168.73990591596362 274.0067543503365 L 168.56862438315775 274.0444468554303 L 168.5545653300269 274.04732981782723 L 168.43596002314467 274.0698824020375 L 168.53501596815246 274.06725614137093 Z" /></svg>