<?xml version='1.0' encoding='utf-8'?>
<svg xmlns:svg="http://www.w3.org/2000/svg" version="1.1" id="Layer_1" x="0px" y="0px" viewBox="0 0 500 500" style="width: 188px;" xml:space="preserve" data-imageid="pipeline-31" imageName="Pipeline" class="illustrations_image"><svg:style type="text/css">
	.st0_pipeline-31{fill:#EAC2A7;}
	.st1_pipeline-31{opacity:0.63;fill:url(#SVGID_1_);enable-background:new    ;}
	.st2_pipeline-31{opacity:0.63;fill:url(#SVGID_00000160179602106895528520000002428925925115162253_);enable-background:new    ;}
	.st3_pipeline-31{opacity:0.63;fill:url(#SVGID_00000137130286687107314790000002274324629384346514_);enable-background:new    ;}
	.st4_pipeline-31{opacity:0.63;fill:url(#SVGID_00000060021897825768142520000003461003070705911428_);enable-background:new    ;}
	.st5_pipeline-31{opacity:0.63;fill:url(#SVGID_00000098909511627820371590000002388744079869833603_);enable-background:new    ;}
	.st6_pipeline-31{fill:#6D3209;}
	.st7_pipeline-31{fill:#DF5D00;}
	.st8_pipeline-31{fill:#FF8522;}
	.st9_pipeline-31{fill:#68E1FD;}
	.st10_pipeline-31{fill:#174B6B;}
	.st11_pipeline-31{fill:#08283F;}
	.st12_pipeline-31{fill:#FFFFFF;}
	.st13_pipeline-31{opacity:0.15;fill:#FF8522;enable-background:new    ;}
	.st14_pipeline-31{fill:#FF9F57;}
</svg:style><svg:path class="st10_pipeline-31" d="M 251.09456800247727 116.04346951923809 L 251.0713356792452 116.05256042832889 L 251.04810335601263 116.0616513374199 L 251.02487103278057 116.0707422465107 L 250.97840638631567 116.08892406469263 L 250.95517406308377 116.09801497378336 L 250.931941739851 116.10710588287445 L 250.90870941661893 116.11619679196525 L 250.88547709338636 116.12528770105627 L 250.8622447701543 116.13437861014707 L 250.8157801236894 116.152560428329 L 250.79254780045733 116.1616513374198 L 250.76931547722475 116.17074224651081 L 250.74608315399269 116.17983315560161 L 250.6996185075278 116.19801497378354 L 250.6763861842959 116.20710588287427 L 250.65315386106312 116.21619679196536 L 250.62992153783105 116.22528770105616 L 250.60668921459848 116.23437861014717 L 250.5834568913664 116.24346951923798 L 250.5369922449015 116.2616513374199 L 250.51375992166945 116.27074224651071 L 250.49052759843687 116.27983315560172 L 250.4672952752048 116.28892406469252 L 250.4208306287399 116.30710588287445 L 250.397598305508 116.31619679196518 L 250.37436598227524 116.32528770105627 L 250.35113365904317 116.33437861014707 L 250.30466901257827 116.352560428329 L 250.2814366893462 116.3616513374198 L 250.25820436611363 116.37074224651082 L 250.23497204288157 116.37983315560162 L 250.211739719649 116.38892406469263 L 250.18850739641692 116.39801497378343 L 250.14204274995203 116.41619679196536 L 250.11881042671996 116.42528770105616 L 250.09557810348755 116.43437861014709 L 250.0723457802553 116.44346951923798 L 250.0258811337904 116.46165133741991 L 250.00264881055833 116.47074224651071 L 249.97941648732575 116.47983315560172 L 249.95618416409368 116.48892406469253 L 249.9329518408611 116.49801497378354 L 249.90971951762904 116.50710588287434 L 249.86325487116414 116.52528770105627 L 249.84002254793208 116.53437861014707 L 249.81679022469967 116.543469519238 L 249.7935579014674 116.55256042832889 L 249.7470932550025 116.57074224651082 L 249.72386093177045 116.57983315560162 L 249.70062860853787 116.58892406469263 L 249.6773962853058 116.59801497378344 L 249.6309316388409 116.61619679196536 L 249.60769931560884 116.62528770105617 L 249.58446699237626 116.63437861014718 L 249.5612346691442 116.64346951923798 L 249.53800234591162 116.652560428329 L 249.51477002267973 116.66165133741973 L 249.46830537621463 116.67983315560173 L 249.44507305298256 116.68892406469253 L 249.42184072975 116.69801497378354 L 249.39860840651792 116.70710588287434 L 249.35214376005302 116.72528770105627 L 249.32891143682096 116.73437861014708 L 249.30567911358838 116.74346951923809 L 249.28244679035632 116.75256042832889 L 249.25921446712374 116.7616513374199 L 249.23598214389185 116.77074224651064 L 249.18951749742675 116.78892406469264 L 249.16628517419468 116.79801497378344 L 249.1430528509621 116.80710588287445 L 249.11982052773004 116.81619679196525 L 249.07335588126514 116.83437861014718 L 249.05012355803308 116.84346951923798 L 249.0268912348005 116.852560428329 L 249.00365891156844 116.8616513374198 L 248.98042658833586 116.87074224651082 L 248.95719426510396 116.87983315560155 L 248.91072961863887 116.89801497378355 L 248.8874972954068 116.90710588287435 L 248.86426497217423 116.91619679196536 L 248.84103264894216 116.92528770105616 L 248.81780032570958 116.93437861014718 L 248.77359579347313 116.95419607979858 L 248.73151653814753 116.97819835145921 L 248.69195756153573 117.0061601136185 L 248.65529020735474 117.0378188866679 L 248.6218586753985 117.07287748682087 L 248.59197679050286 117.11100681580412 L 248.5670593875566 117.15007062337072 L 248.6017394264897 117.12959336521608 L 248.61299875549017 117.12314073046657 L 248.66252184064226 117.09560694964232 L 248.67398826638671 117.08942600632442 L 248.724440755774 117.06307206800231 L 248.73609670856985 117.05717606180724 L 248.78748045729063 117.03202175370221 L 248.79930718696232 117.02642275349885 L 248.8516240501148 117.00248786332583 L 248.86360176744836 116.99719662972556 L 248.91685360013088 116.97450094519945 L 248.92896163567053 116.96952681593754 L 248.98315029298132 116.94809012477327 L 248.9953672702401 116.94344091954507 L 249.05049460727744 116.92328300945756 L 249.06279862696647 116.91896495633745 L 249.11886649882865 116.90010561504161 L 249.13123533038325 116.89612330001218 L 249.18824559216853 116.87858231522296 L 249.2006568686507 116.87493865568857 L 249.25861137545738 116.85873581512087 L 249.27104278786382 116.85543205759724 L 249.32994339479012 116.84058714896598 L 249.34237288188328 116.83762289046322 L 249.40222144402753 116.82415570148333 L 249.41462737403393 116.82152893345993 L 249.47542574649438 116.80945925184632 L 249.48778708736873 116.80716642503518 L 249.54953712524366 116.79651403850278 L 249.56183360063665 116.7945501464237 L 249.6245371590243 116.78533484268743 L 249.6367493876262 116.78369352127297 L 249.7004083216249 116.77593508804775 L 249.7125179381203 116.77460872853968 L 249.77713410282828 116.76832695354042 L 249.78912385929428 116.76730682565857 L 249.85469910980984 116.7625214966002 L 249.86655295696931 116.76179787894448 L 249.9330891483907 116.75852878354193 L 249.94479229668738 116.7580910982527 L 250.01229128411293 116.75635802422089 L 250.02383024507645 116.7561949730775 L 250.09229388360436 116.75601770813132 L 250.10365649240867 116.75611740749989 L 250.17308663713726 116.7575157393543 L 250.18426205761685 116.75786585168254 L 250.25466056364436 116.76085956805244 L 250.26563927731706 116.76144742793637 L 250.33700799974181 116.76605631653669 L 250.34778178057968 116.7668690497303 L 250.4201225744999 116.77311289827595 L 250.43068445132076 116.7741375323673 L 250.50399917183472 116.78203612857322 L 250.514343380233 116.78325969439261 L 250.588633882439 116.7928328259737 L 250.59875580816973 116.79424244912268 L 250.67402394716606 116.80550990379386 L 250.67396894989272 116.80587729310531 L 250.68308798339535 116.80695194248895 L 250.8158388158707 116.82932298481714 L 250.82489630848696 116.83093517545366 L 250.95647842904978 116.8556071580075 L 250.96551562174471 116.85738797532821 L 251.0959234651002 116.88433554509794 L 251.10493330954253 116.8862841152545 L 251.23416131039588 116.91548191923039 L 251.24313683635359 116.91759702879533 L 251.37117942940995 116.94901971396763 L 251.38011377099374 116.95129981757331 L 251.5069653909583 116.9849220309323 L 251.51585181199985 116.98736526099911 L 251.6415068935778 117.02316164953501 L 251.65033881192355 117.02576582798011 L 251.77479178982006 117.06371103868321 L 251.7835628003348 117.06647369047666 L 251.90680810925505 117.1065423703372 L 251.9155120053524 117.10946073875361 L 252.03754408000154 117.15162753476186 L 252.04617487353607 117.15469859815556 L 252.16698814861934 117.19893815730175 L 252.17554008800352 117.20215864722117 L 252.29512899822603 117.24844561649559 L 252.3035965846548 117.25181203693919 L 252.42195556472174 117.30012106333209 L 252.43033356642022 117.30362971094267 L 252.54745705103682 117.3539354414443 L 252.55574051546813 117.35758242643288 L 252.67162293933953 117.4098595080335 L 252.67980720333807 117.4136407756232 L 252.79444300116947 117.46786385531307 L 252.80252369899134 117.47177520749732 L 252.91590730548788 117.52791893226669 L 252.9238803747936 117.5319560496803 L 253.03600622466053 117.58999506651945 L 253.04386791046926 117.59415353023033 L 253.15473043841166 117.65406248612949 L 253.1624772950859 117.6583377991692 L 253.272070935809 117.72009134111865 L 253.27969982714987 117.72447894958363 L 253.38801901535888 117.7880517245736 L 253.39552711290645 117.79254703814262 L 253.5025662833065 117.85791369316338 L 253.50995106295488 117.86251210489316 L 253.61570465025116 117.92964728693498 L 253.62296388730027 117.93434419221357 L 253.72742632619796 118.00322254826672 L 253.73455808897037 118.00801336281971 L 253.83772381417467 118.0786095398744 L 253.8447264563361 118.08348971673892 L 253.94658990255218 118.15577836178545 L 253.95346205427325 118.16074340718164 L 254.05401765620627 118.23469916721025 L 254.06075821431008 118.2397446552597 L 254.1600004066652 118.31534217726066 L 254.16660852390035 118.3204637635145 L 254.2645317413828 118.39767769447803 L 254.27100681496327 118.40287112823604 L 254.36760549227822 118.48167611515245 L 254.37394715182242 118.48693725056405 L 254.469215723675 118.56730794042358 L 254.47542381867683 118.57263274637991 L 254.56935671977226 118.6545437861728 L 254.57543130672605 118.65992835500649 L 254.6680229717695 118.743354391723 L 254.67396430106453 118.74879494674397 L 254.7652091647612 118.83371062737439 L 254.77101766745383 118.83920352927967 L 254.86091016450885 118.92558350081421 L 254.86658643907083 118.93112525301564 L 254.95512100418944 119.01894416244458 L 254.96066580332203 119.02453141536573 L 255.04783687120934 119.11376390967935 L 255.05325108880285 119.11939346407637 L 255.13905309416407 119.21001419026489 L 255.14433775247588 119.21568299963239 L 255.2287651300162 119.30766660468609 L 255.2339213671271 119.31337177680768 L 255.3169685515517 119.40669290771683 L 255.3219976091551 119.41243170542485 L 255.40365903516914 119.50706500917967 L 255.40856224673794 119.51283485038817 L 255.48883234904662 119.60875497397895 L 255.49361112841387 119.61455343105237 L 255.57248434172234 119.71173502146934 L 255.5771401721059 119.71755981999121 L 255.65461093111935 119.81597752422465 L 255.659145354612 119.82182654122558 L 255.73520809403564 119.92145500626575 L 255.7396227015778 119.92732626797228 L 255.81427185611673 120.02814014080941 L 255.81856827796017 120.03403181996688 L 255.89179828231966 120.13600574759126 L 255.89597817898957 120.14191616041869 L 255.96778346787474 120.24502478982055 L 255.9718485216279 120.25095239264417 L 256.0422235297439 120.35517037081378 L 256.0461754365213 120.36111375643006 L 256.1151145985734 120.46641573035768 L 256.11895506043857 120.47237362416811 L 256.1864528111319 120.57873424084401 L 256.1901835291848 120.58470549680254 L 256.2562343032246 120.69209940321696 L 256.2598569709795 120.69808299962938 L 256.32445520307084 120.80648484277258 L 256.32797150028046 120.81247987797877 L 256.3911116251286 120.92186430484101 L 256.3945232120399 120.92786999281307 L 256.45619966435 121.0382116503846 L 256.4595081763732 121.04422731626795 L 256.5197153908504 121.15550085153905 L 256.522922433621 121.16152592716024 L 256.58165484497044 121.27370598712113 L 256.5847619897848 121.27974000648338 L 256.6420140327118 121.39280123812435 L 256.64502281231825 121.39884383291249 L 256.7007889215279 121.51276088322379 L 256.70370082624794 121.51881177832828 L 256.7579754364454 121.63355929430017 L 256.7607919106108 121.63961830338168 L 256.8135694565013 121.7551709320044 L 256.81629189518185 121.76123795310308 L 256.8675668114705 121.8775703413669 L 256.8701965574752 121.8836453525688 L 256.9199632788673 122.00073214746398 L 256.9225016199993 122.00681520263183 L 256.97075458119997 122.12463105114863 L 256.9732027477466 122.13072227571962 L 257.0199363834609 122.2492418248483 L 257.02229554589894 122.25534141170272 L 257.06750429083223 122.37453930843351 L 257.06977555773636 122.38064751384161 L 257.1134538465937 122.5004984051648 L 257.1156382627247 122.50661554480055 L 257.1577805302113 122.62709407770639 L 257.15987907477546 122.63322052274043 L 257.2004797555965 122.75430134421917 L 257.2024933406568 122.76043751747875 L 257.24154686951755 122.88209527452065 L 257.2434763385469 122.88824164671993 L 257.28097715015235 123.01045098631525 L 257.28282327671263 123.01660807234576 L 257.3187658057681 123.13934364148477 L 257.32052929230844 123.1455119967695 L 257.35490797351906 123.26874844244243 L 257.3565894502779 123.27492865933799 L 257.3893987183489 123.3986406285351 L 257.3909987423547 123.40483333278455 L 257.4222330319912 123.52899547249612 L 257.4237520861507 123.53520131971811 L 257.4534058320579 123.65978827693439 L 257.4548443243271 123.66600794914778 L 257.48291196121016 123.79099437085904 L 257.48427022383925 123.79722857302954 L 257.51074618640337 123.92258910622601 L 257.51202447525327 123.92883856283012 L 257.5369031982036 124.05454785450206 L 257.5381016921283 124.0608133060982 L 257.56137761017004 124.18684600323589 L 257.5624964104624 124.19312820303405 L 257.5841639583008 124.31945895262774 L 257.5852030882001 124.32575866305015 L 257.6052567005402 124.45236211209009 L 257.6062161048005 124.45868010131007 L 257.62465021634756 124.58553089678651 L 257.62552976086704 124.59186793524071 L 257.6423388063262 124.71894072414393 L 257.6431382778394 124.72529758100639 L 257.6583166919159 124.85256701032662 L 257.6590357977507 124.85894444993494 L 257.6725780151496 124.98638516666246 L 257.6732163830532 124.99278394488728 L 257.68511683847987 125.12037059601235 L 257.6856740165183 125.12679145656499 L 257.69592714467774 125.25449868907785 L 257.6964026012143 125.26094235973852 L 257.7050028368118 125.38874482062944 L 257.7053959605724 125.39521200939974 L 257.71233773831307 125.52308434565899 L 257.7126478385458 125.52957573681863 L 257.71792559313485 125.65749259543644 L 257.7181518998738 125.66400884550562 L 257.72176006601643 125.79194487347225 L 257.72190173045965 125.7984866070692 L 257.72383474286096 125.92641645137492 L 257.7238908378748 125.93298425696042 L 257.72414313124006 126.0608825645955 L 257.7241126520024 126.06747699010438 L 257.72267866103675 126.19531840805905 L 257.72256052583356 126.20193995640815 L 257.71943468524216 126.32969913167268 L 257.7192277364317 126.33634825614583 L 257.71440448091977 126.46399983571048 L 257.7141074860824 126.47067693521635 L 257.7075812503551 126.59819556607137 L 257.70719290364383 126.60490098027297 L 257.69923019617966 126.7280533767011 L 257.6958207250712 126.79947504716337 L 257.69539319158145 126.80718164107856 L 257.690627547177 126.88256108597132 L 257.69008199048335 126.89024888067662 L 257.68416927697956 126.9653649016145 L 257.68350641776016 126.9730313740288 L 257.6764546739163 127.04787469552042 L 257.6756752981949 127.0555173976107 L 257.66749256277 127.1300787441647 L 257.66659751706146 127.13769530481385 L 257.6572918288149 127.21196540093885 L 257.6562820152419 127.2195535274617 L 257.64586141293273 127.29352309766635 L 257.64473778434285 127.301080576957 L 257.63321030673023 127.37474034574993 L 257.63197386183344 127.3822650450899 L 257.6193475476767 127.4556057369797 L 257.61799932622785 127.46309560450753 L 257.60428221428606 127.5361079440029 L 257.60282329233445 127.54356100885222 L 257.58802342136687 127.61623572046173 L 257.58645490658984 127.62365009259216 L 257.5705803153556 127.69597790082447 L 257.5689033424981 127.70335177054723 L 257.5519620697564 127.77532339991096 L 257.55017779619 127.78265503713484 L 257.5321778807 127.85426121213862 L 257.5302874821194 127.861548965341 L 257.51123696264034 127.93278041049348 L 257.50924162890834 127.94002270544534 L 257.4891485441994 128.01087014525515 L 257.48704947535595 128.01806548350163 L 257.4659218641763 128.08851964247737 L 257.4637202666184 128.0956665996062 L 257.4415661677272 128.16571820225653 L 257.4392632505726 128.17281542595816 L 257.4160907027291 128.2424551967917 L 257.4136876743681 128.24950140473922 L 257.38950471633143 128.31872006826458 L 257.38700278117636 128.32571404582185 L 257.36181745170575 128.3945023265477 L 257.35921780714096 128.401442924328 L 257.33303814499556 128.46979154676293 L 257.3303419785329 128.47667767805171 L 257.3031760224719 128.54457736670437 L 257.300384509114 128.55140800476505 L 257.27224029789664 128.6188494841441 L 257.2693545977103 128.62562365941938 L 257.2402401700957 128.6925976540334 L 257.2372614259954 128.69931445125908 L 257.2071848207428 128.76581168561674 L 257.2041141564854 128.7724702408622 L 257.17308341235395 128.8384814394721 L 257.1699219307404 128.84508093712498 L 257.13794508648925 128.9105968244958 L 257.13469386777706 128.91713649419546 L 257.1017789621655 128.98214779483578 L 257.09843906268406 128.98862690837913 L 257.06459413447124 129.05312434679757 L 257.0611665854409 129.05954221502125 L 257.0263996733859 129.12351651572652 L 257.02288547993584 129.1298724853805 L 256.987204622798 129.19331437288116 L 256.9836047631783 129.199607823506 L 256.9470179997167 129.2625080223107 L 256.9433334247035 129.26873836312285 L 256.90584879367736 129.3310875977402 L 256.90208042616337 129.3372542645414 L 256.86370596633196 129.39904325948007 L 256.8598547010978 129.40514571159883 L 256.8205984512201 129.46636519136746 L 256.8166651548871 129.4724029086322 L 256.77653515372253 129.53304359773938 L 256.7725206648714 129.539016077508 L 256.73152495117904 129.59906870046237 L 256.7274300806418 129.60497545469707 L 256.68557669318085 129.66443073600726 L 256.6814022244899 129.67027128841588 L 256.6386992020195 129.7291199525905 L 256.6344458920173 129.734893835831 L 256.59090127329665 129.79312660737875 L 256.58656985289394 129.79883336033984 L 256.5421916766823 129.8564409637693 L 256.53778285176395 129.86208012892962 L 256.4925791568204 129.91905328874944 L 256.488093609294 129.92462440961725 L 256.44207243437785 129.98095385033602 L 256.4375108233559 129.98645646898316 L 256.3906802072263 130.0421329151096 L 256.38604317034043 130.0475665697969 L 256.3384111517565 130.10258074583953 L 256.33369930660075 130.10794496873743 L 256.2852739243217 130.16228759920494 L 256.2804878700112 130.167581914224 L 256.2312771627962 130.22124372362504 L 256.2264174816469 130.22646764434683 L 256.17642948825517 130.27943935718997 L 256.1714967475735 130.2845923849115 L 256.1207395067642 130.33686472570542 L 256.1157342607413 130.34194634759925 L 256.0642158112737 130.39351004085256 L 256.0591386029838 130.39851972824346 L 256.006866983617 130.4493654984648 L 256.0017183471101 130.45430270523076 L 255.9487015966033 130.50442127692875 L 255.94348205908986 130.50928543802723 L 255.88972821620226 130.55866753571053 L 255.8844383003241 130.5634580658352 L 255.82995540381486 130.6120944140124 L 255.82459562999736 130.61681070638272 L 255.7693917186257 130.6646920295625 L 255.76396260750437 130.66933345485202 L 255.70804572002947 130.71645047754296 L 255.70254779494843 130.72101638294671 L 255.64592597012947 130.76735982965747 L 255.64035975970248 130.77184953810536 L 255.58304103629868 130.81741013334457 L 255.5774070770283 130.82182294286326 L 255.5193994937988 130.86659141113952 L 255.5136983327506 130.8709265943635 L 255.45500992845461 130.9148936601855 L 255.4492421259718 130.91915046402744 L 255.3898809393685 130.96230685190375 L 255.38404707183017 130.96648449737972 L 255.3240211416787 131.008820931819 L 255.31812180428673 131.01291861403786 L 255.25743916934638 131.05442581954875 L 255.25147497893568 131.05844270786727 L 255.19014367796555 131.09911140895838 L 255.18411527583368 131.10304664730205 L 255.122143347593 131.14286756848202 L 255.1160514023328 131.1467202758405 L 255.05344688558074 131.18568414161794 L 255.04729209591557 131.18945341271117 L 254.98406302941132 131.22755094759475 L 254.97784612701707 131.2312358537177 L 254.91400054951984 131.26845778221602 L 254.90772230182827 131.27205737225987 L 254.8432682520972 131.3083944188816 L 254.8369294650683 131.31190772053557 L 254.7718749818626 131.3473506097893 L 254.76547650271678 131.35077663092287 L 254.72696485457178 131.37103915419746 L 254.73329250321126 131.3699099778409 L 254.73649917554474 131.36932695290562 L 254.74559008463567 131.36764345122214 L 254.74878517951655 131.3670410156849 L 254.75787608860745 131.36529629575836 L 254.76105925836194 131.36467467343633 L 254.77015016745284 131.36286873526674 L 254.77332107158196 131.3622281555513 L 254.78241198067286 131.3603609991387 L 254.7855702859955 131.35970169677228 L 254.79466119508643 131.35777332211663 L 254.79780657586343 131.35709553696884 L 254.80689748495433 131.35510594407015 L 254.81002962301093 131.3544099209102 L 254.81912053210183 131.35235910976849 L 254.82223911694658 131.3516450980341 L 254.8313300260375 131.34953306864935 L 254.83443475495412 131.3488013222183 L 254.84352566404502 131.3466280745905 L 254.84661624219356 131.34587885154644 L 254.85570715128446 131.34364438567562 L 254.85878329177692 131.3428779480774 L 254.86787420086785 131.3405822639635 L 254.87093562484608 131.3397988776107 L 254.88002653393698 131.3374419752538 L 254.88307297063776 131.33664190945365 L 254.89216387972866 131.3342237888537 L 254.89519506653278 131.33340731618964 L 254.9042859756237 131.33092797734665 L 254.9073016581061 131.3300953734452 L 254.916392567197 131.3275548163592 L 254.91939249916356 131.32670635965877 L 254.92848340825446 131.32410458432972 L 254.93146735176333 131.32324055585283 L 254.94055826085426 131.32057756228076 L 254.9435259862457 131.31969824540292 L 254.9526168953366 131.3169740335878 L 254.95556818122952 131.31607971381527 L 254.96465909032042 131.3132942837571 L 254.96759372362243 131.3123852485011 L 254.97668463271333 131.30953860019991 L 254.97960240861568 131.30861513855473 L 254.9886933177066 131.3057072720105 L 254.9915940396627 131.30476967453737 L 255.0006849487536 131.30180058975012 L 255.00356842846296 131.30084914826006 L 255.01265933755386 131.29781884522976 L 255.01552539492678 131.2968538525732 L 255.0246163040177 131.29376233129986 L 255.027464767142 131.29278408115707 L 255.0365556762329 131.2896313416407 L 255.0393863813293 131.288640128317 L 255.0484772904202 131.28542617055763 L 255.05129008178736 131.28442228878404 L 255.0603809908783 131.28114711278158 L 255.06317572083887 131.28013085751687 L 255.07226662992977 131.2767944632714 L 255.07504315876594 131.27576612950966 L 255.08413406785684 131.27236851702114 L 255.08689226373514 131.27132839960598 L 255.09598317282607 131.26786956887443 L 255.09872291173173 131.26681796231162 L 255.10781382082263 131.26329791333703 L 255.11053498646456 131.26223511162107 L 255.11962589555546 131.25865384440343 L 255.12232837928755 131.25758014084087 L 255.13141928837848 131.2539376553802 L 255.1341029891116 131.25285334241912 L 255.1431938982025 131.2491496387154 L 255.14585872229574 131.2480550077866 L 255.15494963138664 131.24429008583985 L 255.15759549255452 131.243185427195 L 255.16668640164545 131.23935928700521 L 255.16931322085637 131.23824488956174 L 255.17840412994727 131.23435753112892 L 255.1810118353011 131.2332336823275 L 255.190102744392 131.22928510565166 L 255.19269127102152 131.22815209130707 L 255.20178218011245 131.22414229638818 L 255.20435147005753 131.22300040055597 L 255.21344237914843 131.21892938739407 L 255.2159923812426 131.2177788922356 L 255.2250832903335 131.21364666083062 L 255.22761396007104 131.21248784649092 L 255.23670486916197 131.20829439684294 L 255.23921616859542 131.20712754131904 L 255.24830707768632 131.202872873428 L 255.25079897526848 131.20169825246649 L 255.25988988435938 131.19738236633242 L 255.26236235484097 131.19620025330627 L 255.2714532639319 131.19182314892916 L 255.27390628821516 131.190633814739 L 255.28299719730606 131.18619549211886 L 255.28543076231708 131.18499920508984 L 255.29452167140798 131.18049966422666 L 255.2969357699581 131.1792966900155 L 255.30602667904904 131.1747359309093 L 255.30842130970944 131.173526532409 L 255.31751221880035 131.16890455505973 L 255.31988738574557 131.16768899232449 L 255.32897829483647 131.16300579673222 L 255.33133400773326 131.16178432688423 L 255.3404249168242 131.1570399130489 L 255.3427611906689 131.1558127902157 L 255.3518520997598 131.15100715813733 L 255.35416895475464 131.14977463337416 L 255.36325986384554 131.1449077830528 L 255.3655573252571 131.14367010427853 L 255.37464823434803 131.13874203571407 L 255.3769263323621 131.13749944765408 L 255.386017241453 131.1325101608466 L 255.38827601104356 131.13126290497252 L 255.39736692013446 131.12621239992203 L 255.39960640092275 131.12496071440148 L 255.40869731001368 131.11984899110794 L 255.41091754612933 131.11859311075816 L 255.42000845522023 131.11342016922157 L 255.42220949516062 131.11216032546812 L 255.43130040425152 131.10692616568852 L 255.43348230075335 131.10566258652233 L 255.44257320984428 131.10036720849968 L 255.4447360197416 131.09910011844588 L 255.4538269288325 131.09374352218018 L 255.4559707129197 131.09247314226891 L 255.4650616220106 131.0870553277602 L 255.4671864449167 131.0857818754953 L 255.47627735400764 131.08030284274352 L 255.47838328405697 131.07902653208376 L 255.48747419314788 131.07348628108898 L 255.4895613022314 131.07220732242718 L 255.4986522113223 131.06660585318934 L 255.5007205747662 131.06532445333798 L 255.50981148385713 131.0596617658571 L 255.51186118029756 131.05837812803395 L 255.51858621115528 131.05414384934576 L 255.522534894779 131.0528200572222 L 255.5318797736742 131.04968126635254 L 255.54125860052804 131.04652426455428 L 255.55067080669826 131.0433483314973 L 255.5601158294993 131.04015273386332 L 255.5695931121156 131.03693672525904 L 255.57910210350633 131.0336995461186 L 255.57960772356444 131.03352710100967 L 255.58864225828 131.03044042360403 L 255.58918715898278 131.0302539060219 L 255.5982130365731 131.027158571491 L 255.59879730181754 131.02695780006823 L 255.60781390391648 131.02385319004597 L 255.60843762283986 131.02363796977727 L 255.61744433108134 131.02052346589753 L 255.61810759789168 131.02029358800363 L 255.6271037939096 131.01716857190036 L 255.62780670772068 131.01692381367738 L 255.63679177314896 131.01378766698446 L 255.6375344377748 131.01352779165475 L 255.64650775424735 131.01037989600607 L 255.64729027800064 131.010104652555 L 255.6562512271514 131.0069443895845 L 255.65707372262835 131.00665351258917 L 255.66602168609114 131.00348026393078 L 255.66688426992158 131.00317347338884 L 255.6758186293304 130.99998662067642 L 255.6767214219275 130.99966362182238 L 255.68564155891622 130.99646254668986 L 255.68658468420415 130.99612302980702 L 255.69548998040665 130.99290711388832 L 255.6964735655302 130.9925507541152 L 255.70536340258042 130.98931937904422 L 255.70638757759295 130.98894583617675 L 255.71526133712482 130.9856983835874 L 255.7163262346586 130.98530730187588 L 255.72518329830598 130.98204315340206 L 255.7262890532221 130.9816341613442 L 255.73512880261896 130.97835269861983 L 255.7362755516355 130.97792540875054 L 255.74509736841566 130.97462601340953 L 255.74628524971146 130.97418002208894 L 255.75508851550893 130.97086207576518 L 255.7563176683054 130.97039696296446 L 255.765101764754 130.96705984729186 L 255.766372328872 130.96657517637834 L 255.7751366376057 130.96321827299082 L 255.77644875299814 130.96271359051283 L 255.78519265565083 130.9593362810443 L 255.78654646190776 130.95881111651738 L 255.79526934011335 130.95541278260177 L 255.7966649759421 130.95486664829613 L 255.80536621133447 130.9514466715673 L 255.80680381400023 130.95087906230296 L 255.81548278821333 130.94743682439486 L 255.81696249296894 130.9468472173338 L 255.82561858763668 130.94338209988032 L 255.8271405271068 130.94276995433088 L 255.83577312386305 130.9392813389659 L 255.83733742739668 130.93864609619405 L 255.84594590787538 130.93513336455155 L 255.8475527008828 130.9344744475944 L 255.85613644671784 130.93093698130824 L 255.85778584994668 130.93025379480915 L 255.866344242772 130.92669097551322 L 255.8680363715683 130.92598290556106 L 255.87656879301778 130.92239411488933 L 255.87830375655182 130.92166052887163 L 255.88680958825935 130.91804514845796 L 255.88858748869598 130.91728539493832 L 255.8970661122955 130.91364280641662 L 255.89888704394403 130.91285621502297 L 255.90733784106945 130.9091858000272 L 255.90920188949485 130.90837168136088 L 255.9176242417801 130.90467282152488 L 255.91953148285833 130.90383046709985 L 255.92792477193726 130.90010254405757 L 255.92987527088658 130.89923122625814 L 255.93823887839315 130.89547362164348 L 255.9402326887576 130.89457259371332 L 255.94856599632567 130.8907846891602 L 255.95060315891752 130.8898531852226 L 255.95890554818104 130.88603436236488 L 255.960986089975 130.88507159747968 L 255.96925694256785 130.88122123795134 L 255.97138087556996 130.88022640820176 L 255.97961957312606 130.87634389363666 L 255.98178689317325 130.8753161762687 L 255.98999281732654 130.87140088830077 L 255.992203502871 130.87033944189432 L 256.00037603525533 130.86639076215747 L 256.0026300460871 130.8652947268539 L 256.01076856833646 130.861312036982 L 256.01306584426703 130.86018053476178 L 256.0211697380152 130.85616321638878 L 256.0235101975236 130.8549953514025 L 256.03157884440463 130.8509427861623 L 256.03396238324626 130.84973764511906 L 256.041995164894 130.84564921464556 L 256.0444216546503 130.84440586727473 L 256.05241795269865 130.84028095320187 L 256.0548872393171 130.8389984527677 L 256.0628464354 130.83483643672932 L 256.0653583376602 130.83351382063694 L 256.0732798134115 130.82931408426703 L 256.0758341214012 130.82795037472178 L 256.08371725845484 130.8237122996542 L 256.0863137319688 130.82230650442492 L 256.0941579119587 130.81802947229357 L 256.096796278897 130.8165805855467 L 256.104600883457 130.8122639779855 L 256.10728083818327 130.81077098121605 L 256.1150452489474 130.80641417985896 L 256.1177664506356 130.80487604291034 L 256.1254900492377 130.8004784293912 L 256.12825212018095 130.79889411158436 L 256.13593428825493 130.79445506753711 L 256.13873681217734 130.7928235188942 L 256.1463769313571 130.78834242595275 L 256.1492194517112 130.78666258853144 L 256.1568169036306 130.7821388283297 L 256.15969892188696 130.78040963767216 L 256.16725308818 130.77584259184403 L 256.17017406212403 130.77406297853975 L 256.17768432442466 130.76945202871912 L 256.1806436664618 130.76762092008795 L 256.1881094064038 130.76296544790875 L 256.1911064818793 130.76108176980884 L 256.19852708109664 130.75638115690498 L 256.20156120664575 130.75444383566355 L 256.20893604677235 130.74969746366895 L 256.21200648869836 130.74770542814576 L 256.2193349513681 130.7429126786943 L 256.222440924063 130.74086486247617 L 256.22972239090984 130.73602511720176 L 256.2328630553339 130.73392046092562 L 256.2400969079917 130.7290331014622 L 256.2432713702111 130.7268705552752 L 256.2504569903138 130.72193496325667 L 256.25366430011275 130.7197134894096 L 256.26080106929425 130.71472904646984 L 256.2640402188743 130.71244762204276 L 256.2711275187684 130.7074137098157 L 256.2743974415435 130.70507132957678 L 256.2814346537843 130.69998732969634 L 256.2847342232888 130.69758300908833 L 256.2917207295101 130.6924483031884 L 256.29504875842906 130.68998108144183 L 256.3019839402648 130.68479505115633 L 256.30533917960094 130.68226399452413 L 256.31222241868494 130.67702602148694 L 256.3156035570675 130.67443022660166 L 256.3224342350338 130.66913969244672 L 256.32583989822274 130.6664782897627 L 256.33261739670513 130.6611345761239 L 256.3360461472178 130.65840673350303 L 256.3427698478503 130.6530092220143 L 256.34622018484436 130.6502141483537 L 256.3528894692608 130.64476222064894 L 256.3563598285646 130.64189916963457 L 256.36297407839896 130.63639220734768 L 256.36646283280896 130.63346048123813 L 256.37189461539157 130.6288535634671 L 256.3854750670005 130.62311604357436 L 256.38709236342595 130.62242941082351 L 256.40223078982854 130.61597088618316 L 256.4038484445316 130.61527737635458 L 256.41898254237157 130.6087576334712 L 256.4206006394057 130.6080571750048 L 256.4357297903169 130.60147621387839 L 256.4373484122231 130.6007687339365 L 256.4524719978395 130.59412655456703 L 256.4540912256573 130.59341197903473 L 256.4692086276128 130.58670858142224 L 256.4708285408871 130.58598683490843 L 256.48593914081556 130.5792222190529 L 256.4875598175941 130.5784932248951 L 256.5026629971295 130.57166739079656 L 256.50428451397664 130.57093107105774 L 256.5193796547528 130.56404401871615 L 256.5210020867404 130.5633002941914 L 256.5360885703913 130.55635202360676 L 256.53771199110867 130.55560081382075 L 256.55278919926826 130.54859132499308 L 256.55441368082313 130.5478325482008 L 256.5694809951252 130.5407618411301 L 256.5711066081352 130.53999541432188 L 256.5861634102137 130.53286348900815 L 256.5877902238146 130.5320893279061 L 256.6028358953035 130.5248961843493 L 256.60446397714037 130.52411420341141 L 256.6194978996735 130.51685984161162 L 256.6211273159032 130.5160699540299 L 256.6361488711146 130.50875437398702 L 256.63777968639755 130.50795649169046 L 256.65278825592094 130.50057969340457 L 256.65442053341576 130.4997737270602 L 256.6694154988852 130.49233571053128 L 256.6710493002509 130.4915215695412 L 256.6860300433002 130.4840223347692 L 256.6876654286747 130.48319992727878 L 256.7026313309378 130.4756394742638 L 256.70426835894784 130.474808707154 L 256.71921880205866 130.46718703589596 L 256.7208575297951 130.46634781479275 L 256.7357918953876 130.45866492529169 L 256.73743237840966 130.45781715456022 L 256.75235004811765 130.4500730468161 L 256.75399234043135 130.4492166295679 L 256.7688926958888 130.44141130358076 L 256.7705368499443 130.44054614167095 L 256.7854192727851 130.43267959744077 L 256.78706533945814 130.43180559147316 L 256.80192921131624 130.42387782899996 L 256.8035772399028 130.42299487832508 L 256.818421942412 130.4150058976088 L 256.82007198060063 130.41411390033343 L 256.83489689539493 130.40606370137417 L 256.83654898927153 130.40516255435335 L 256.8513534979848 130.397051137151 L 256.853007691996 130.3961407360021 L 256.86779117626224 130.38796810055675 L 256.8694475132171 130.38704833965275 L 256.8842093546701 130.37881448596437 L 256.88586787570995 130.37788525844425 L 256.9006074559837 130.3695901865128 L 256.9022682005671 130.3686513842835 L 256.91698490129545 130.36029509410906 L 256.91864790718546 130.35934660784616 L 256.9333411100023 130.35092909942864 L 256.9350064132321 130.34997081858907 L 256.9496754997714 130.34149209192853 L 256.95134313463893 130.34052390474676 L 256.96598748653463 130.33198395984317 L 256.9676574855708 130.3310057533425 L 256.9822764844567 130.3224045901959 L 256.9839488784045 130.32141625019344 L 256.9985419059145 130.31275386880378 L 257.00021672370457 130.31175527991783 L 257.01478316147274 130.30303168028513 L 257.0164604302019 130.30202272594033 L 257.03099965986206 130.2932379080646 L 257.0326794047661 130.2922184705011 L 257.0471908079521 130.28337243438233 L 257.04887305237554 130.28234239466647 L 257.06335601072135 130.27343514030468 L 257.0650407760965 130.27239437833458 L 257.07949467123603 130.26342590572975 L 257.0811819770501 130.26237430024818 L 257.0956061906173 130.2533446094003 L 257.0972960543855 130.25228203800387 L 257.11168996801416 130.24319112891297 L 257.11338240524975 130.2421174680641 L 257.1277454005739 130.23296534073015 L 257.1294404247557 130.23188046577 L 257.1437718834092 130.222667120193 L 257.1454695059521 130.2215709053537 L 257.15976880956885 130.2122963415337 L 257.1614690397907 130.2111886599527 L 257.1757355700046 130.20185287788965 L 257.1774384150917 130.20073360162544 L 257.1916715535366 130.19133660131936 L 257.1933770185109 130.19020560136687 L 257.2075761468208 130.18074738281774 L 257.20928423450584 130.1796045291244 L 257.2234487343147 130.17008509233222 L 257.2251594452965 130.1689302538184 L 257.23928869823817 130.1593495987832 L 257.24100203083435 130.15818264335758 L 257.2550954185427 130.14854077007934 L 257.25681136875795 130.14736156466392 L 257.2708682728669 130.13765847314266 L 257.27258683436287 130.13646688368885 L 257.2866066365063 130.12670257392455 L 257.2883278005546 130.1254984654412 L 257.3023098823665 130.11567293743386 L 257.30403363781596 130.11445617400662 L 257.31797738093024 130.10456942775625 L 257.3197037141674 130.10333987257184 L 257.33360850021785 130.09339190807842 L 257.3353373951142 130.09214942345977 L 257.3492026057349 130.0821402407233 L 257.3509340436234 130.08088468814427 L 257.3647590604481 130.07081428716478 L 257.3664930200646 130.06954552729107 L 257.3802772247273 130.05941390806854 L 257.38201368218046 130.05813180077928 L 257.395756456315 130.04793896331373 L 257.3974953850312 130.04664336774186 L 257.4111961102716 130.03638931203326 L 257.4129374809618 130.03508008659165 L 257.42659553894185 130.02476481264 L 257.42833931954954 130.0234418150618 L 257.4419540919032 130.01306532286713 L 257.44370024756205 130.0117284102411 L 257.4572711159233 130.00129069980338 L 257.4590196089138 129.9999397286105 L 257.4725459549164 129.98944079992975 L 257.47429674461296 129.98807562608926 L 257.4877779498909 129.97751547916548 L 257.4895309927255 129.97613595806874 L 257.5029664389127 129.9655145929019 L 257.5047216883182 129.96412057946424 L 257.5181107570486 129.9534379960544 L 257.5198681634201 129.95202934475438 L 257.5332102363275 129.9412855431015 L 257.5349697469668 129.93986210803482 L 257.5482642056852 129.92905708813888 L 257.550025764761 129.9276187230621 L 257.5632719909243 129.91675248492314 L 257.5650355394204 129.9152990433079 L 257.57823291466246 129.9043715869259 L 257.5799983903268 129.9029029220157 L 257.5931462962816 129.89191424739067 L 257.5949136335868 129.89043021224913 L 257.6080114518882 129.87938031938106 L 257.6097805819753 129.87788076695665 L 257.6228276942572 129.86676965584553 L 257.6245985448896 129.86525443902985 L 257.63759433278585 129.85408210967572 L 257.63936682830376 129.85255108136377 L 257.6523106734484 129.84131753376658 L 257.6540847347215 129.83977054692082 L 257.66697601874836 129.82847578108058 L 257.6687515631211 129.82691268880356 L 257.6815896676641 129.8155567047203 L 257.68336660891885 129.8139773603147 L 257.69615091561195 129.8025601579884 L 257.697929163913 129.80096441503642 L 257.71065905439 129.7894859944671 L 257.7124385162407 129.78787370690088 L 257.72511337213564 129.77633406808852 L 257.72689395033365 129.77470509026517 L 257.73951315328037 129.76310423320976 L 257.7412947468681 129.76145841999372 L 257.75385767850054 129.74979634469528 L 257.7556401827256 129.74813355153478 L 257.7681462246776 129.7364102579933 L 257.7699295309419 129.73473034101 L 257.7823780648474 129.7229458292255 L 257.78416206067027 129.72124864529508 L 257.7965524681632 129.70940291526753 L 257.7983370371347 129.70768832211238 L 257.810668699849 129.69578137384178 L 257.81245372159174 129.69404923011945 L 257.8247260211612 129.68208106360584 L 257.8265113712845 129.68033122900823 L 257.83355741638906 129.6733907294922 L 257.8434550325488 129.66543654526896 L 257.8451858511665 129.66403923090647 L 257.8753045053133 129.63961315193492 L 257.8770346390828 129.63820360995774 L 257.9070296200114 129.61365509450013 L 257.9087589770407 129.6122332759015 L 257.93862966638494 129.58756232395783 L 257.940358153223 129.58612818078163 L 257.9701039326167 129.5613347923519 L 257.9718314542514 129.55988827773112 L 258.00145170532863 129.53497245281528 L 258.0031781651907 129.53351352100754 L 258.03267226958536 129.50847525960563 L 258.03439756955044 129.50700386603066 L 258.06376490889636 129.4818431681427 L 258.06548894928613 129.48035926942143 L 258.0947289052172 129.4550761350474 L 258.0964515848037 129.4535796890402 L 258.1255635389539 129.42817411818007 L 258.127284754964 129.4266650840246 L 258.1562680889673 129.40113707667842 L 258.15798773709054 129.39961541482708 L 258.1868418325807 129.37396497099482 L 258.18855980696975 129.3724306432581 L 258.21728404558075 129.34665776293974 L 258.2190002388642 129.34511073252094 L 258.2475940022299 129.31921541571654 L 258.24930830551665 129.31765564725444 L 258.27777097527104 129.29163789396395 L 258.2794832781621 129.29006535357001 L 258.307814235939 129.26392516379346 L 258.3095244265339 129.26233981909465 L 258.33772305396735 129.23607719283203 L 258.33943101887894 129.2344790130074 L 258.3674966976027 129.2080939502587 L 258.36920232196456 129.2064829060837 L 258.3971344336127 129.1799754068489 L 258.39883760109694 129.17835147073083 L 258.4266355273032 129.15172153500998 L 258.428336120129 129.15008468103346 L 258.45599924252735 129.12333230882655 L 258.4576971414801 129.12168251278982 L 258.48522484170445 129.09480770409684 L 258.48691992615005 129.09314494355343 L 258.5143115858343 129.06614769837435 L 258.51600373373475 129.06447195267538 L 258.5432587345129 129.03735227101023 L 258.54494782244785 129.03566352134072 L 258.5720655459537 129.00842140318952 L 258.57375144913567 129.006719632613 L 258.60073127700315 128.97935507797573 L 258.6024138693004 128.9776402714715 L 258.6292551831634 128.95015328034813 L 258.63093433711987 128.94842542485296 L 258.6576365186124 128.92081599724355 L 258.659312105472 128.9190750816894 L 258.6858745362279 128.8913432175939 L 258.68754642595684 128.8895892329493 L 258.71396848761 128.8617349323677 L 258.7156365489198 128.85996787167863 L 258.74191762310414 128.831991134611 L 258.7435817234821 128.8302109930355 L 258.7697211918316 128.80211181948178 L 258.7713811975643 128.80031859433262 L 258.7973784417128 128.77209698429283 L 258.79903421791573 128.77029067507436 L 258.8248886194971 128.7419466285485 L 258.8265400301429 128.74012723699607 L 258.8522509707911 128.71166075398415 L 258.8538978787431 128.70982828409888 L 258.87946474009203 128.68123936460086 L 258.8811070071326 128.67939382269046 L 258.90652917081616 128.65068246670637 L 258.9081666576821 128.64882386141895 L 258.93344350533425 128.6199900689488 L 258.9350760717512 128.61811841130935 L 258.96020698500575 128.58916218235314 L 258.9618344897206 128.58727748580208 L 258.9868188502116 128.55819882035976 L 258.98844115103384 128.55630110078258 L 259.01327834039506 128.5270999988542 L 259.0148952942304 128.52518927462052 L 259.0395846940958 128.49586573620607 L 259.0411961569875 128.49394202820048 L 259.065737148991 128.46449605329997 L 259.0673429761598 128.46255938495486 L 259.0917349419353 128.43299097356825 L 259.09333498781893 128.43104137089827 L 259.11757730900035 128.4013505230256 L 259.1191714272997 128.39938801465448 L 259.14326348552095 128.36957473029574 L 259.14485152924016 128.36759934749043 L 259.16879270613515 128.33766362664562 L 259.1703745276291 128.33567540334263 L 259.1941642048317 128.30561724601176 L 259.19573965584857 128.30361621884992 L 259.21937721499273 128.273435625033 L 259.2209461467263 128.27142183337384 L 259.2444309694459 128.2411188030708 L 259.24599323257814 128.23909228903216 L 259.2693247005071 128.20866682224306 L 259.2708801452622 128.20662763071823 L 259.2940576400344 128.17607972744307 L 259.2956061162247 128.1740279061301 L 259.31862901947414 128.14335756636885 L 259.3201703765565 128.1412931657874 L 259.343038069917 128.11050038954008 L 259.34457215703947 128.10842346306057 L 259.367284022145 128.07750825032718 L 259.3688106882061 128.07541885418274 L 259.3913661066905 128.04438120496326 L 259.39288520038826 128.04227939827666 L 259.4152835538855 128.0111193125711 L 259.4167949237773 128.0090051573661 L 259.43903559392123 127.97772263517447 L 259.4405390884764 127.97559619639662 L 259.462621456901 127.94419123771894 L 259.46411692456064 127.94205258324757 L 259.48604037289977 127.91052518808382 L 259.4875276621328 127.9083743887476 L 259.50929157202035 127.87672455709777 L 259.5107705313833 127.87456168668538 L 259.5323742844532 127.84278941854947 L 259.53384476264995 127.84061455381982 L 259.55528774053613 127.80871984919784 L 259.5567495864773 127.80653306989014 L 259.57803117081363 127.77451592878208 L 259.57948423367776 127.77231731762267 L 259.60060380609826 127.74017774002854 L 259.60204793539566 127.73796738273383 L 259.62300487753413 127.70570536865364 L 259.62443992316537 127.70348335393888 L 259.64523361665573 127.67109890337261 L 259.64665942897767 127.66886532295023 L 259.6672892554538 127.63635843589788 L 259.66870568534034 127.63411338448142 L 259.68917102643627 127.60148406094302 L 259.6905779253468 127.59922763623905 L 259.7108781626963 127.56647587621455 L 259.7122753827333 127.56420817893034 L 259.7324098979704 127.53133398241978 L 259.733797291951 127.52905511624715 L 259.7537654667095 127.49605848325052 L 259.7551428882256 127.49376855486769 L 259.7749441041394 127.46064948538498 L 259.77631140762526 127.45834860444396 L 259.79594504632837 127.42510709847518 L 259.797302087126 127.4227953775919 L 259.8167675302523 127.38943143513704 L 259.8181141646772 127.38710898987911 L 259.83741079386056 127.35362261093819 L 259.83874687926686 127.35128955981175 L 259.85787407614123 127.31768074438475 L 259.85919947098853 127.31533720881734 L 259.8781566171878 127.28160595690427 L 259.87947118110725 127.2792520612263 L 259.8982576582653 127.24539837282717 L 259.89956125212444 127.2430342442538 L 259.91817644187523 127.20905811936859 L 259.9194689278447 127.20668388797635 L 259.93791221182215 127.17258532660506 L 259.93919345344165 127.17020112530784 L 259.9574642132796 127.13598012745048 L 259.95873407552205 127.13358609197523 L 259.97683169285443 127.09924265763179 L 259.97809004219226 127.09683892648968 L 259.996013898653 127.06237305566019 L 259.9972606031231 127.05995977011592 L 260.0150100803461 127.02537146280034 L 260.01624500961225 127.02294876684422 L 260.03381948923146 126.98823802304257 L 260.03504251465176 126.98580606335106 L 260.052441378301 126.95097288306334 L 260.0536523729874 126.94853180896996 L 260.0708750023006 126.91357619219616 L 260.07207384118396 126.91112615565072 L 260.0891196177951 126.87604810239084 L 260.0903061776879 126.87358925791828 L 260.10717448323084 126.83838876817235 L 260.108348642886 126.83592127283698 L 260.1250388589947 126.80059834660496 L 260.1262004991691 126.79812235996212 L 260.14271200747737 126.76267699724404 L 260.14386101098984 126.76019268129845 L 260.16019319313165 126.72462488209428 L 260.16132944492256 126.72213240125203 L 260.1774816825318 126.6864421655618 L 260.17860506972056 126.68394168658322 L 260.1945767444312 126.6481290144069 L 260.19568715637445 126.64562070635326 L 260.21147764982027 126.60968559769088 L 260.2125749781656 126.6071696318774 L 260.2281836719806 126.57111208672895 L 260.2292678107235 126.56858863666585 L 260.2446940865416 126.53240865503132 L 260.24576493207735 126.52987789637275 L 260.2610081715324 126.49357547825215 L 260.2750543336092 126.45595954641931 L 260.28702250012253 126.41950439187414 L 260.28841278234 126.41520409525523 L 260.30007485763844 126.37856714107926 L 260.3014185642346 126.37427925537848 L 260.31277454831786 126.33746235666995 L 260.31407225455786 126.33318738365098 L 260.32512214742593 126.29619239550814 L 260.32637443268925 126.29193081337255 L 260.33711823434214 126.2547595908937 L 260.3383256813261 126.25051185469232 L 260.34876339176384 126.21316625297574 L 260.34992658571963 126.20893279503602 L 260.36005820494216 126.17141466917997 L 260.36117773294296 126.1671958995501 L 260.3710032609503 126.12950710465286 L 260.3720797111914 126.12530341156028 L 260.3815991479836 126.08744580272013 L 260.3826331091139 126.08325755304391 L 260.3918464546909 126.04523298535909 L 260.39283851517627 126.04106052511324 L 260.4017457695381 126.00287085368207 L 260.40269651705523 125.99871450850733 L 260.4112976802018 125.96036158842806 L 260.4122077010624 125.95622166409694 L 260.42050277299387 125.91770735046785 L 260.4213726516008 125.91358413338466 L 260.42936163231707 125.87491028130401 L 260.430191950647 125.87080403902381 L 260.437874840148 125.83197250358988 L 260.4386661772649 125.82788348533452 L 260.4460429755508 125.7888961216456 L 260.4467959071488 125.78482455881512 L 260.45386661421946 125.74568322196946 L 260.4545817121896 125.74162932867178 L 260.4613463280451 125.70233587376767 L 260.4620241600732 125.69829984733101 L 260.4684826847136 125.65885612946674 L 260.46912381390183 125.65483815095826 L 260.475276247327 125.61524602523205 L 260.4758812318404 125.611246259981 L 260.48172757405035 125.57150758149118 L 260.4822969667901 125.56752617959587 L 260.48783721778494 125.52764280344068 L 260.48837156608386 125.52367990027872 L 260.49360572586346 125.48365368155646 L 260.49410557120416 125.47970939829604 L 260.4990336397686 125.43954219210495 L 260.49949951752546 125.4356166361982 L 260.5041214948747 125.39531029763658 L 260.5045539340756 125.39140356331693 L 260.50886982020967 125.35095994748305 L 260.5092693433191 125.34707211625228 L 260.513279138238 125.30649307824442 L 260.51364626095955 125.30262421935312 L 260.51734996466325 125.26191161426952 L 260.51768519576143 125.25806178519032 L 260.52108280824996 125.21721746812929 L 260.52138664938946 125.21338671502164 L 260.5244781706628 125.17241254108146 L 260.5247511162657 125.16860089924862 L 260.52753654632386 125.12749872352752 L 260.52777908344314 125.12370621786467 L 260.5302584222861 125.08247789546095 L 260.53047103049494 125.07870454089348 L 260.5326442781227 125.03735192690542 L 260.53282742941843 125.03359772882258 L 260.53469458583106 124.99212267834845 L 260.53484874455455 124.98838763301691 L 260.536409809752 124.94679200115499 L 260.53653543251903 124.94307609613615 L 260.53779040650124 124.9013617379847 L 260.537887942148 124.897664952536 L 260.5388368249151 124.85583372319329 L 260.5389067144554 124.85215602865298 L 260.53954950600723 124.8102097832173 L 260.539592182601 124.80655114339632 L 260.5399288829377 124.76449173696594 L 260.539944771871 124.76085210850893 L 260.5399753809925 124.7186813961821 L 260.53996489966715 124.71506072894012 L 260.5396894175735 124.67278056581515 L 260.53965297550684 124.66917880318677 L 260.539071402198 124.62679104436191 L 260.53900940103154 124.62320812364558 L 260.5381217365075 124.58071462421911 L 260.5380345700239 124.57715047693794 L 260.5368408142847 124.53455309200815 L 260.5367288684333 124.53100764423648 L 260.5352290214789 124.48830822890162 L 260.53509267440785 124.48478140157385 L 260.53328673623827 124.4419818109322 L 260.5331263583347 124.43847352015275 L 260.53101432894994 124.3955756093026 L 260.53083028288546 124.39208576663297 L 260.5284121622855 124.34909139067258 L 260.52820480306895 124.34561990341928 L 260.5254805912538 124.3025309174469 L 260.5252502662883 124.29907768893585 L 260.522219963258 124.2558959480498 L 260.52196701240433 124.25246087789276 L 260.51863061815885 124.20918823719128 L 260.51835537380305 124.20577122154296 L 260.5147128883424 124.16240953612434 L 260.51441567546743 124.15901046793046 L 260.51046709879154 124.11556159289297 L 260.5101482350542 124.11218036213343 L 260.5058935671632 124.06864615257534 L 260.50555336297293 124.06528264648932 L 260.50099260386673 124.02166495750892 L 260.50063136246956 124.01831906082491 L 260.4957645121482 123.97461974752045 L 260.49538252971246 123.97129134266751 L 260.49020958817584 123.92751226013729 L 260.48980715388177 123.92420122745663 L 260.48432812113003 123.8803442307989 L 260.48390551726027 123.87705044873651 L 260.4781203932933 123.83311739304956 L 260.4776778953276 123.82984073835839 L 260.4715866801455 123.78583347874047 L 260.47112455685533 123.78257382665512 L 260.464727250458 123.73849421820454 L 260.4642457640052 123.73525144262968 L 260.4575423663928 123.69110134044467 L 260.457041772427 123.68787531411586 L 260.4500322835993 123.64365657329473 L 260.4495128313596 123.64044716795307 L 260.44219725131677 123.59616164359409 L 260.4416591837316 123.59296873013403 L 260.43403751247354 123.54861827733546 L 260.4334810662643 123.54544172596579 L 260.42555330379105 123.5010281998259 L 260.4249787095739 123.49786788020822 L 260.4167448558855 123.45339313582531 L 260.4161523382759 123.45024891721697 L 260.4076123933723 123.40571480968929 L 260.4070021710882 123.40258656107603 L 260.39815613496944 123.35799494550187 L 260.39752842093645 123.35488253572696 L 260.38837629360256 123.31023526720458 L 260.38773129505756 123.30713856508824 L 260.37827307650844 123.26243749871591 L 260.377610995105 123.2593563731783 L 260.3678466853406 123.21460336405431 L 260.3671677172534 123.21153768422491 L 260.3570973162739 123.16673458744752 L 260.3564016523018 123.16368422276963 L 260.34602516010716 123.11883289343713 L 260.3453129857791 123.11579771377598 L 260.33463040236927 123.07090000698663 L 260.33390189804675 123.06787988272455 L 260.3229132234217 123.02293765357663 L 260.3221685644026 123.0199324557074 L 260.3108737985624 122.97494755929918 L 260.3101131551834 122.97195715951686 L 260.29851229812795 122.92693145094661 L 260.29773583586746 122.92395572173385 L 260.2858288875969 122.87889105609986 L 260.28503676717526 122.87592987080299 L 260.27282372768946 122.83082810320352 L 260.2720161051717 122.82788133611838 L 260.2594969744708 122.7827443216517 L 260.2586740013647 122.7798118480893 L 260.2458487794486 122.7346414418537 L 260.2450106028056 122.73172313821593 L 260.2318792896743 122.68652119530967 L 260.23102605218764 122.68361693915556 L 260.2175886478411 122.63838531467692 L 260.216720487943 122.6354949847841 L 260.20297699238137 122.59023553383135 L 260.20209404433933 122.58735901025548 L 260.18804445756246 122.54207358792691 L 260.18714685157687 122.53921075206443 L 260.1727911735848 122.4939012134583 L 260.17187903588194 122.4910519480954 L 260.15721726667476 122.44572014830997 L 260.1562907196007 122.44288433767413 L 260.1413228591783 122.3975321318077 L 260.1403820212935 122.3947096616215 L 260.1251080696559 122.34933890477232 L 260.124153055825 122.3465296622939 L 260.1085730129722 122.30114220956027 L 260.10760393445577 122.29834608362997 L 260.0917178003878 122.25294379011012 L 260.090734764932 122.25016067119049 L 260.07454253964886 122.20474539198274 L 260.0735456515741 122.20197517219806 L 260.05704733507577 122.15654876240067 L 260.05603669536424 122.153791335573 L 260.03923228765075 122.10835565028424 L 260.0382079940332 122.10561091196791 L 260.0210974951045 122.06016780628606 L 260.0200596421457 122.05743565380023 L 260.0026430520019 122.01198698282354 L 260.0015917311847 122.00926731528163 L 259.9838690498256 121.96381493410841 L 259.982804349636 121.9611076524494 L 259.9695625967435 121.92772247538608 L 259.94613827140915 121.85835909438347 L 259.9448654306188 121.85463833077222 L 259.91667659398183 121.77328289291233 L 259.9153730900626 121.7695682046043 L 259.8865757811918 121.68852504162052 L 259.8852415955264 121.68481668257989 L 259.8558376695201 121.60408888630266 L 259.85447278542483 121.60038711151192 L 259.8244640973812 121.5199777737717 L 259.8230685001397 121.51628283926215 L 259.79245690515717 121.43619505188938 L 259.79103058205385 121.43250721476596 L 259.7598179352305 121.35274406959113 L 259.7583608755898 121.34906358806613 L 259.7265490320241 121.26962817691967 L 259.7250612272476 121.26595531033377 L 259.69265204203765 121.18685072504614 L 259.69113348564713 121.18318573390084 L 259.6581288138913 121.10441506630251 L 259.65657950157146 121.10075821228266 L 259.622981198368 121.02232455420406 L 259.6214011280125 121.01867610020567 L 259.5872110484597 120.94058254347728 L 259.58560022021896 120.93694275362996 L 259.5508202194151 120.85919239008223 L 259.54917863574656 120.8555615297749 L 259.5138105687899 120.77815745123829 L 259.5121382345096 120.77453578713937 L 259.4761839564984 120.69748108544432 L 259.4744808788362 120.69386888552529 L 259.43794224486874 120.61716665250228 L 259.43620843352335 120.61356418605517 L 259.39908729869785 120.53721751353464 L 259.3973227658972 120.53362505119425 L 259.35962098531206 120.45763703100666 L 259.35782574587114 120.45405484476251 L 259.3195451746245 120.37842856873831 L 259.31771924601094 120.37485693195632 L 259.2788617392012 120.29959549192597 L 259.2770051415969 120.29603467935684 L 259.2375725543222 120.22114116715082 L 259.2356853106923 120.21759145494705 L 259.19567949805105 120.14306896239579 L 259.1937616342101 120.13953062811763 L 259.1531844513005 120.06538224705157 L 259.1512359959844 120.0618555696788 L 259.1100892979048 119.98808439192844 L 259.1081102828414 119.9845696518641 L 259.0663959246899 119.91117876925988 L 259.0643863846744 119.90767624833707 L 259.0221062215494 119.83466875270943 L 259.0200661945184 119.83117873419079 L 258.97722208151816 119.7585577173702 L 258.9751516086274 119.7550804859486 L 258.9317454008502 119.68284903976551 L 258.92964452655355 119.67938488156103 L 258.88567807909766 119.60754609784591 L 258.8835468512267 119.60409530040025 L 258.8390220191904 119.53265227098355 L 258.83686048903667 119.52921512325211 L 258.7917791275182 119.45817093996428 L 258.7895873499155 119.45474773230488 L 258.74395131401315 119.38410548697638 L 258.7417293474231 119.38069651113712 L 258.6955404922352 119.3104592955984 L 258.69328839883036 119.30706484469827 L 258.6465485794551 119.2372357507798 L 258.64426642520806 119.23385611929234 L 258.5969774967437 119.16443823882456 L 258.59466535151313 119.16107372255347 L 258.546829169058 119.09207014736685 L 258.5444871066769 119.08872104342029 L 258.4961055253293 119.02013486534528 L 258.49373362369465 119.01680147210716 L 258.44480849855285 118.94863578297422 L 258.4424068397149 118.94531840007167 L 258.3929400258771 118.87757629171126 L 258.3905086961307 118.87427521997965 L 258.3405020486952 118.80695978422222 L 258.33804113866944 118.80367532566507 L 258.28749651273455 118.73678965434108 L 258.28500611748416 118.73352211208757 L 258.23392536814816 118.66706929702747 L 258.23140558724464 118.6638189752859 L 258.17979056960576 118.59780210832015 L 258.17724150722916 118.59456931232886 L 258.12509407638566 118.52899148528792 L 258.12251584141507 118.52577652126075 L 258.06983785246524 118.46064082597508 L 258.06723055857026 118.4574440010444 L 258.01402386661243 118.39275352934443 L 258.01138763234275 118.38957515149893 L 257.95765409247514 118.32533299521515 L 257.9549890413516 118.32217337323615 L 257.9007305086725 118.258382624199 L 257.89803676927596 118.2552420675907 L 257.8432550988837 118.19190581763063 L 257.8405328049426 118.1887846365463 L 257.7852298519353 118.12590597749379 L 257.7824791424151 118.12280448266134 L 257.7266567618912 118.06038650634682 L 257.7238777810783 118.05730500898488 L 257.66753782813595 117.99535080723882 L 257.6647307257239 117.99228961897404 L 257.6078750554614 117.9308022836269 L 257.60503998663495 117.92776171640512 L 257.54767045415065 117.86674433928734 L 257.5448075796652 117.8637247052788 L 257.4869260400573 117.80318037822086 L 257.4840355263212 117.80018198972571 L 257.425643834688 117.74011380455805 L 257.42272585383876 117.73713697390397 L 257.3638258652785 117.67754802245705 L 257.3608805952597 117.67459306189569 L 257.3014741648707 117.61548643599996 L 257.29850178950426 117.6125536575971 L 257.23859077238484 117.55393244908304 L 257.2355914814416 117.55102216460628 L 257.1751777326899 117.4928894653043 L 257.1721517219588 117.4900019861072 L 257.11123709667316 117.4323608878478 L 257.1081845680257 117.42949652474955 L 257.04677092130447 117.37235011936318 L 257.0436920827555 117.36950918252299 L 256.98178126969685 117.31286056184008 L 256.97867633546525 117.3100433606317 L 256.9162702111675 117.25389561648272 L 256.9131394017298 117.25110245936125 L 256.85023982129115 117.19545868357667 L 256.8470833634342 117.19268987794494 L 256.78369218195303 117.13755316235522 L 256.7805103088206 117.13480901442422 L 256.71662938139514 117.0801824508598 L 256.713422332533 117.07746326550804 L 256.64905351426154 117.02334994579937 L 256.64582153565584 117.02065602642688 L 256.58096668163665 116.96705904240443 L 256.57771002574947 116.96439069078507 L 256.51237099108073 116.91131313427928 L 256.5090899168822 116.90867065041026 L 256.44326855666236 116.85611561325162 L 256.4399633296538 116.85349929519747 L 256.37366149898094 116.8014698692164 L 256.3703323912195 116.79888001295463 L 256.30355194519205 116.7473792899816 L 256.3001992353039 116.74481618924085 L 256.2329420290201 116.69384726110633 L 256.22956600221386 116.69131120720635 L 256.16183389077196 116.64087716574079 L 256.158434838843 116.638368447427 L 256.09022967734126 116.58847238446084 L 256.08680789867293 116.58599128773865 L 256.01813154220963 116.53663629510235 L 256.0146873417672 116.53418310306833 L 255.94554164544064 116.48537227259237 L 255.9420753347616 116.48294726526474 L 255.87246215366997 116.43468368877956 L 255.8689740508465 116.43228714292641 L 255.7988952400882 116.38457391226245 L 255.79538566974398 116.38220610122795 L 255.7248430844172 116.3350463082157 L 255.7213123776804 116.33270750174725 L 255.65030787288342 116.28610423821715 L 255.64675636735043 116.28379470228928 L 255.57529179818155 116.23775106007177 L 255.57171983787615 116.23547105671027 L 255.4997970594336 116.18999012763584 L 255.49620499476075 116.18773991474214 L 255.42382586214288 116.14282479064121 L 255.4202140498329 116.14060462181449 L 255.34738041813793 116.09625839451755 L 255.3437492211886 116.09406851887924 L 255.27046294551482 116.05029428021672 L 255.26681273312292 116.04813494223298 L 255.1930756685686 116.00493578403535 L 255.1894068160577 116.00280722334156 L 255.11522081772108 115.96018623743927 L 255.1115337064617 115.95808868866445 L 255.03690062944113 115.91604896688797 L 255.0331956467637 115.91398265948 L 254.95811734615737 115.87252729365977 L 254.95439488526029 115.87049245171261 L 254.87887321616654 115.8296245336791 L 254.87513367601574 115.8276213757604 L 254.7991704935328 115.78734399734405 L 254.79541427875625 115.78537273632534 L 254.71901143798243 115.74568898935662 L 254.7152389587572 115.74374983224499 L 254.63839831479075 115.70466280855436 L 254.6346099867242 115.70275595632657 L 254.55733339466343 115.66426874774447 L 254.55352963866676 115.66239439518318 L 254.4758189536099 115.62451009354008 L 254.47200019576727 115.62266842907351 L 254.39385727281257 115.58539012619985 L 254.39002394424205 115.58358133174376 L 254.3175683763576 115.54976719380382 L 254.3155259896654 115.54874600045774 L 253.92360679774995 115.35278640450004 L 253.88309113659093 115.33472842801022 L 253.8411344681292 115.32033234223486 L 253.79806700969135 115.3097114506638 L 253.77169014135967 115.30564288128159 L 253.76965213738805 115.30480593190205 L 253.76333644481502 115.30219576049039 L 253.75640576537546 115.2993254648802 L 253.75265496515118 115.29777360291295 L 253.74871621528249 115.29614710808724 L 253.74823544383227 115.29594888372287 L 253.74459285531057 115.29444924289051 L 253.7439578206843 115.29418831111462 L 253.74028740568852 115.29268310498745 L 253.739501124481 115.29236143775596 L 253.735802264645 115.29085190306613 L 253.73486763995066 115.2904715748488 L 253.7311397169084 115.28895894832853 L 253.73005954725295 115.28852212826648 L 253.7263019426383 115.28700764664792 L 253.725078931003 115.28651659127885 L 253.72129102644988 115.28500149129421 L 253.71992778940083 115.28445853779823 L 253.71610896654312 115.28294405617967 L 253.7146080433522 115.2823516160493 L 253.71075768382386 115.28083898952903 L 253.7091215455627 115.28019954260768 L 253.7052390309976 115.27869000791785 L 253.70347008954323 115.27800609673655 L 253.6995548015753 115.27650089060937 L 253.69765541852698 115.27577511497799 L 253.69370673879013 115.27427547414563 L 253.69167923419303 115.27351048591859 L 253.68769654432114 115.27201764711323 L 253.68554320524382 115.27121614511132 L 253.68152588687082 115.26973134506515 L 253.67924897573658 115.26889607008262 L 253.6751964104964 115.26742054552783 L 253.67279817317956 115.26655427540008 L 253.66870974270606 115.26508926306883 L 253.66619241634655 115.2641948077589 L 253.6620675022737 115.26274154438337 L 253.65943332278377 115.26182174105641 L 253.6552713067454 115.26038146336882 L 253.65252251601115 115.25943917143857 L 253.64832277964123 115.25801311617107 L 253.64546163231506 115.25705121226943 L 253.64122355724749 115.25564061615421 L 253.63825232721413 115.25466198904341 L 253.6339752950828 115.25326808881266 L 253.6308962814882 115.25227563419755 L 253.626579673927 115.25089966658344 L 253.62339520677884 115.24989628182615 L 253.61903840542175 115.24853948356088 L 253.61575085074654 115.2475280622961 L 253.6113532372274 115.24619167011184 L 253.60796500175758 115.24517509676 L 253.60352595771033 115.24386034738892 L 253.60003949305516 115.24284149156398 L 253.5955584001137 115.24154962173829 L 253.5919762064535 115.24053133257489 L 253.58745244625175 115.23926357902675 L 253.58377707547106 115.23824867941839 L 253.57921002964292 115.23700627888 L 253.57544408794556 115.23599755966003 L 253.57083313812493 115.23478174886357 L 253.5669792880795 115.2337819629365 L 253.5623238159003 115.23259397861415 L 253.5583847779298 115.23160583506525 L 253.55368416502594 115.2304469139492 L 253.54966271832947 115.22947307215534 L 253.54491634633487 115.22834445097774 L 253.54081532921796 115.22738751474158 L 253.5360225797665 115.22629043023464 L 253.53184488942944 115.22535294198337 L 253.52700514415503 115.22428863087927 L 253.52275373587833 115.22337306594338 L 253.5178663764149 115.22234276497429 L 253.51354426219564 115.22145152598985 L 253.5086086701771 115.22045647188797 L 253.5042189168211 115.21959188335387 L 253.49923447388133 115.21863331285138 L 253.494780200539 115.21779761586959 L 253.48974628831195 115.21687676569866 L 253.48523066350265 115.21607211293703 L 253.4801466636222 115.21519021982985 L 253.4755729017652 115.21441867073963 L 253.47043819586526 115.2135769714284 L 253.46580955333417 115.21284048774706 L 253.46062352304867 115.21204021896393 L 253.4559432937797 115.21134066053496 L 253.45070532074251 115.21058305901212 L 253.44597683143917 115.20992217995257 L 253.44068629728423 115.20920848242223 L 253.4359129022519 115.20858792766464 L 253.43056918861313 115.20791937085895 L 253.4257542642421 115.20734067308946 L 253.42035675275338 115.20671849374062 L 253.41550369173348 115.20618307076062 L 253.4100517640287 115.20560850560081 L 253.4051639692916 115.2051176581245 L 253.39965700700472 115.20459194388589 L 253.3947378854698 115.20414685379272 L 253.38917527023472 115.20367122720752 L 253.38422822640536 115.20327295626048 L 253.37860933985596 115.20284865406084 L 253.3736377692842 115.20249814309553 L 253.36796199305437 115.20212640201365 L 253.36296927575978 115.20182447060526 L 253.3572359914835 115.20150652737334 L 253.35222548535256 115.20125387397898 L 253.3464340746637 115.20099096532917 L 253.34140910885822 115.20078816790087 L 253.33555895339066 115.20058153056537 L 253.33052282186938 115.20042904762825 L 253.32461330325708 115.20027991833923 L 253.31956925837522 115.20017809051954 L 253.31359975825208 115.2000877060092 L 253.3085510045508 115.20003675799965 L 253.30252090455068 115.20000635500017 L 253.30251837903796 115.20050726262545 L 253.2885373229995 115.20013141023267 L 253.23888565882183 115.20374901783235 L 253.18983985162643 115.21228620922685 L 253.14188611699157 115.22565835097474 L 253.1327952079011 115.2286886540049 L 253.12370429881017 115.2317189570352 L 253.11461338971816 115.23474926006588 L 253.09643157153747 115.24080986612611 L 253.08734066244654 115.24384016915641 L 253.0782497533552 115.24687047218686 L 253.06915884426408 115.24990077521726 L 253.0600679351738 115.25293107824733 L 253.041886116992 115.25899168430793 L 253.03279520790107 115.26202198733823 L 253.02370429880975 115.26505229036867 L 253.01461338971816 115.26808259339921 L 253.00552248062837 115.27111289642914 L 252.99643157153744 115.27414319945944 L 252.98734066244612 115.27717350248989 L 252.97824975335453 115.28020380552043 L 252.96915884426474 115.28323410855036 L 252.9600679351738 115.28626441158066 L 252.94188611699158 115.2923250176414 L 252.93279520790043 115.2953553206718 L 252.90552248062838 115.30444622976248 L 252.89643157153745 115.30747653279278 L 252.88734066244544 115.31050683582346 L 252.86915884426475 115.31656744188369 L 252.86006793517382 115.31959774491399 L 252.8509770260818 115.32262804794468 L 252.8327952079011 115.3286886540049 L 252.82370429881018 115.3317189570352 L 252.81461338971818 115.33474926006589 L 252.79643157153748 115.34080986612612 L 252.78734066244655 115.34384016915642 L 252.77824975335523 115.34687047218686 L 252.76915884426364 115.3499007752174 L 252.76006793517385 115.35293107824734 L 252.75097702608292 115.35596138127764 L 252.7418861169916 115.35899168430808 L 252.7327952079 115.36202198733862 L 252.72370429881022 115.36505229036855 L 252.7146133897193 115.36808259339885 L 252.70552248062796 115.3711128964293 L 252.69643157153638 115.37414319945984 L 252.6873406624466 115.37717350248977 L 252.67824975335566 115.38020380552007 L 252.66915884426433 115.38323410855051 L 252.66006793517275 115.38626441158105 L 252.65097702608296 115.38929471461098 L 252.64188611699203 115.39232501764128 L 252.6327952079007 115.39535532067173 L 252.62370429880912 115.39838562370227 L 252.60552248062842 115.4044462297625 L 252.5964315715375 115.4074765327928 L 252.58734066244548 115.41050683582348 L 252.5691588442648 115.41656744188371 L 252.56006793517386 115.41959774491401 L 252.55097702608185 115.4226280479447 L 252.52370429880983 115.43171895703537 L 252.51461338971868 115.43474926006577 L 252.4964315715371 115.44080986612629 L 252.48734066244597 115.44384016915669 L 252.4782497533557 115.44687047218676 L 252.46006793517347 115.4529310782475 L 252.4509770260819 115.45596138127804 L 252.4418861169921 115.45899168430797 L 252.43279520790117 115.46202198733828 L 252.42370429880984 115.46505229036872 L 252.41461338971826 115.46808259339926 L 252.40552248062846 115.47111289642919 L 252.39643157153753 115.47414319945949 L 252.38734066244552 115.47717350249017 L 252.3600679351735 115.48626441158085 L 252.35097702608235 115.48929471461125 L 252.32370429880987 115.49838562370206 L 252.31461338971874 115.50141592673246 L 252.30552248062847 115.50444622976254 L 252.29643157153714 115.50747653279298 L 252.28734066244556 115.51050683582352 L 252.26915884426487 115.51656744188375 L 252.26006793517394 115.51959774491405 L 252.25097702608193 115.52262804794474 L 252.2418861169917 115.52565835097481 L 252.2419299258749 115.52578977762437 L 252.23906305727579 115.52660872371094 L 252.19309852784951 115.54481676126863 L 252.1819874167384 115.54986726631914 L 252.17087630562688 115.55491777136984 L 252.14865408340506 115.56501878147066 L 252.13754297229355 115.57006928652136 L 252.11532075007173 115.58017029662217 L 252.1042096389602 115.58522080167288 L 252.07087630562728 115.60037231682419 L 252.05976519451576 115.6054228218749 L 252.03754297229395 115.61552383197571 L 252.02643186118243 115.62057433702641 L 252.00420963896062 115.63067534712722 L 251.9930985278491 115.63572585217793 L 251.97087630562729 115.64582686227874 L 251.95976519451577 115.65087736732944 L 251.93754297229395 115.66097837743025 L 251.92643186118244 115.66602888248096 L 251.8930985278495 115.68118039763228 L 251.88198741673799 115.68623090268298 L 251.85976519451617 115.69633191278379 L 251.84865408340465 115.7013824178345 L 251.82643186118284 115.7114834279353 L 251.81532075007132 115.71653393298601 L 251.7930985278495 115.72663494308682 L 251.781987416738 115.73168544813753 L 251.75976519451618 115.74178645823834 L 251.74865408340466 115.74683696328904 L 251.71532075007173 115.76198847844036 L 251.7042096389602 115.76703898349106 L 251.6819874167384 115.77713999359187 L 251.67087630562688 115.78219049864258 L 251.64865408340506 115.79229150874339 L 251.63754297229403 115.79734201379387 L 251.61532075007173 115.80744302389489 L 251.6042096389602 115.8124935289456 L 251.5819874167384 115.8225945390464 L 251.57087630562688 115.82764504409711 L 251.53754297229395 115.84279655924843 L 251.52643186118243 115.84784706429913 L 251.50420963896062 115.85794807439994 L 251.4930985278491 115.86299857945065 L 251.47087630562729 115.87309958955146 L 251.45976519451577 115.87815009460216 L 251.43754297229395 115.88825110470297 L 251.42643186118244 115.89330160975368 L 251.40420963896062 115.90340261985449 L 251.3930985278491 115.9084531249052 L 251.35976519451617 115.92360464005651 L 251.34865408340465 115.92865514510721 L 251.32643186118284 115.93875615520803 L 251.31532075007132 115.94380666025873 L 251.2930985278495 115.95390767035954 L 251.281987416738 115.95895817541025 L 251.25976519451618 115.96905918551106 L 251.24865408340466 115.97410969056176 L 251.22643186118285 115.98421070066257 L 251.21532075007133 115.98926120571328 L 251.1819874167384 116.0044127208646 L 251.17087630562688 116.0094632259153 L 251.14865408340506 116.01956423601611 L 251.13754297229355 116.02461474106681 L 251.11532075007173 116.03471575116762 L 251.1053094181985 116.03926635656457 L 251.09456800247727 116.04346951923809 Z" id="element_79" /></svg>