<?xml version="1.0" encoding="utf-8"?>
<!-- Generator: Adobe Illustrator 29.6.0, SVG Export Plug-In . SVG Version: 9.03 Build 0)  -->
<svg version="1.1" xmlns="http://www.w3.org/2000/svg" xmlns:xlink="http://www.w3.org/1999/xlink" x="0px" y="0px"
	 viewBox="0 0 200 200" style="enable-background:new 0 0 200 200;" xml:space="preserve">
<g id="Layer_1">
</g>
<g id="Item_x5F_1" style="display:none;">
	<path style="display:inline;fill:#F5FCFF;" d="M160.67,197.07H51.466V2.93L63.6,8.997L75.733,2.93l12.134,6.067L100,2.93
		l12.134,6.067l12.134-6.067l12.134,6.067l12.134-6.067l12.134,6.067l12.134-6.067v182.006
		C172.803,191.638,167.371,197.07,160.67,197.07z"/>
</g>
<g id="Item_x5F_2" style="display:none;">
	<path style="display:inline;fill:#D8ECFE;" d="M63.598,8.996l0.008-0.004V197.07H51.466V2.93L63.598,8.996z"/>
</g>
<g id="Item_x5F_3" style="display:none;">
	<path style="display:inline;fill:#C9EBFA;" d="M160.669,197.055H39.331c-6.701,0-12.133-5.432-12.133-12.133v-12.12h121.337v12.134
		C148.536,191.635,153.97,197.063,160.669,197.055z"/>
</g>
<g id="Item_x5F_4" style="display:none;">
	<path style="display:inline;fill:#A0DDF3;" d="M51.052,197.055H39.333c-6.703,0-12.133-5.43-12.133-12.133v-12.121h11.719v12.121
		C38.919,191.625,44.348,197.055,51.052,197.055z"/>
</g>
<g id="Item_x5F_5" style="display:none;">
	<path style="display:inline;" d="M172.802,41.945c1.618,0,2.93-1.312,2.93-2.93V2.93c0-1.015-0.526-1.958-1.389-2.492
		c-0.864-0.534-1.942-0.582-2.85-0.128l-10.823,5.411l-10.823-5.411c-0.825-0.413-1.796-0.413-2.62,0l-10.823,5.411l-10.827-5.411
		c-0.825-0.413-1.795-0.412-2.62,0l-10.823,5.411l-10.823-5.411c-0.825-0.413-1.796-0.413-2.62,0L87.868,5.721L77.045,0.309
		c-0.825-0.413-1.795-0.413-2.62,0L63.599,5.721L52.776,0.309c-0.908-0.454-1.986-0.405-2.85,0.128
		c-0.864,0.534-1.389,1.477-1.389,2.492V81.48c0,1.618,1.312,2.93,2.93,2.93c1.618,0,2.93-1.312,2.93-2.93V7.67l6.275,3.137v159.064
		h-6.275V94.25c0-1.618-1.312-2.93-2.93-2.93c-1.618,0-2.93,1.312-2.93,2.93v75.621H27.2c-1.618,0-2.93,1.312-2.93,2.93v12.109
		c0,0.009-0.001,0.018-0.001,0.027c0,0.023,0.003,0.045,0.004,0.068c0.045,8.268,6.782,14.981,15.061,14.981L160.669,200
		c8.305,0,15.062-6.757,15.062-15.062V51.781c0-1.618-1.312-2.93-2.93-2.93c-1.618,0-2.93,1.312-2.93,2.93v133.156
		c0,4.05-2.631,7.495-6.273,8.722V10.807l6.273-3.136v31.345C169.872,40.634,171.184,41.945,172.802,41.945z M30.13,175.73h63.488
		c1.618,0,2.93-1.312,2.93-2.93c0-1.618-1.312-2.93-2.93-2.93H66.529V10.806l9.205-4.601l10.823,5.411
		c0.825,0.413,1.796,0.412,2.62,0l10.823-5.411l10.823,5.411c0.825,0.412,1.796,0.412,2.62,0l10.823-5.411l10.827,5.412
		c0.825,0.412,1.795,0.412,2.62,0l10.823-5.411l9.203,4.602v182.842c-3.584-1.202-6.187-4.555-6.269-8.518
		c0.004-0.064,0.01-0.129,0.01-0.194c0-0.098-0.005-0.195-0.015-0.291v-11.845c0-1.618-1.312-2.93-2.93-2.93h-42.152
		c-1.618,0-2.93,1.312-2.93,2.93c0,1.618,1.312,2.93,2.93,2.93h39.223v6.276H30.13V175.73z M30.615,187.866h115.279
		c0.46,2.323,1.457,4.453,2.855,6.259H39.333C35.287,194.125,31.846,191.501,30.615,187.866z"/>
</g>
<g id="Item_x5F_6" style="display:none;">
	<path style="display:inline;" d="M110.468,48.328h3.332c1.73,0,3.137,1.407,3.137,3.137c0,1.73-1.407,3.137-3.137,3.137h-3.759
		c-1.136,0-2.118-0.731-2.444-1.818c-0.465-1.55-2.098-2.43-3.648-1.964c-1.55,0.465-2.429,2.098-1.964,3.648
		c0.995,3.314,3.838,5.619,7.219,5.949v3.513c0,1.618,1.312,2.93,2.93,2.93c1.618,0,2.93-1.312,2.93-2.93v-3.558
		c4.364-0.616,7.733-4.374,7.733-8.906c0-4.961-4.036-8.996-8.996-8.996h-3.332c-1.73,0-3.137-1.407-3.137-3.137
		c0-1.73,1.407-3.137,3.137-3.137h2.977c1.136,0,2.118,0.731,2.444,1.818c0.465,1.55,2.099,2.43,3.648,1.964
		c1.55-0.465,2.429-2.098,1.964-3.648c-0.917-3.055-3.406-5.25-6.438-5.834v-3.627c0-1.618-1.312-2.93-2.93-2.93
		s-2.93,1.312-2.93,2.93v3.559c-4.364,0.616-7.733,4.374-7.733,8.906C101.472,44.293,105.507,48.328,110.468,48.328z"/>
</g>
<g id="Item_x5F_7" style="display:none;">
	<path style="display:inline;" d="M87.867,42.469H75.726c-1.618,0-2.93,1.312-2.93,2.93c0,1.618,1.312,2.93,2.93,2.93h12.141
		c1.618,0,2.93-1.312,2.93-2.93C90.797,43.78,89.485,42.469,87.867,42.469z"/>
</g>
<g id="Item_x5F_8" style="display:none;">
	<path style="display:inline;" d="M136.417,48.328h12.134c1.618,0,2.93-1.312,2.93-2.93c0-1.618-1.312-2.93-2.93-2.93h-12.134
		c-1.618,0-2.93,1.312-2.93,2.93C133.487,47.016,134.799,48.328,136.417,48.328z"/>
</g>
<g id="Item_x5F_9" style="display:none;">
	<path style="display:inline;" d="M87.859,84.937H75.726c-1.618,0-2.93,1.312-2.93,2.93s1.312,2.93,2.93,2.93h12.134
		c1.618,0,2.93-1.312,2.93-2.93S89.477,84.937,87.859,84.937z"/>
</g>
<g id="Item_x5F_10" style="display:none;">
	<path style="display:inline;" d="M100.001,90.796h48.55c1.618,0,2.93-1.312,2.93-2.93s-1.312-2.93-2.93-2.93h-48.55
		c-1.618,0-2.93,1.312-2.93,2.93S98.383,90.796,100.001,90.796z"/>
</g>
<g id="Item_x5F_11" style="display:none;">
	<path style="display:inline;" d="M100.001,102.93h48.55c1.618,0,2.93-1.312,2.93-2.93s-1.312-2.93-2.93-2.93h-48.55
		c-1.618,0-2.93,1.312-2.93,2.93S98.383,102.93,100.001,102.93z"/>
</g>
<g id="Item_x5F_12" style="display:none;">
	<path style="display:inline;" d="M100.001,127.032h48.55c1.618,0,2.93-1.312,2.93-2.93s-1.312-2.93-2.93-2.93h-48.55
		c-1.618,0-2.93,1.312-2.93,2.93S98.383,127.032,100.001,127.032z"/>
</g>
<g id="Item_x5F_13" style="display:none;">
	<path style="display:inline;" d="M151.48,148.452c0-1.618-1.312-2.93-2.93-2.93h-48.55c-1.618,0-2.93,1.312-2.93,2.93
		s1.312,2.93,2.93,2.93h48.55C150.169,151.382,151.48,150.07,151.48,148.452z"/>
</g>
<g id="Item_x5F_14" style="display:none;">
	<path style="display:inline;" d="M87.859,108.873H75.726c-1.618,0-2.93,1.312-2.93,2.93c0,1.618,1.312,2.93,2.93,2.93h12.134
		c1.618,0,2.93-1.312,2.93-2.93C90.789,110.185,89.477,108.873,87.859,108.873z"/>
</g>
<g id="Item_x5F_15" style="display:none;">
	<path style="display:inline;" d="M100.001,114.733h48.55c1.618,0,2.93-1.312,2.93-2.93c0-1.618-1.312-2.93-2.93-2.93h-48.55
		c-1.618,0-2.93,1.312-2.93,2.93C97.071,113.421,98.383,114.733,100.001,114.733z"/>
</g>
<g id="Item_x5F_16" style="display:none;">
	<path style="display:inline;" d="M87.859,133.472H75.726c-1.618,0-2.93,1.312-2.93,2.93c0,1.618,1.312,2.93,2.93,2.93h12.134
		c1.618,0,2.93-1.312,2.93-2.93C90.789,134.783,89.477,133.472,87.859,133.472z"/>
</g>
<g id="Item_x5F_17" style="display:none;">
	<path style="display:inline;" d="M100.001,139.331h48.55c1.618,0,2.93-1.312,2.93-2.93c0-1.618-1.312-2.93-2.93-2.93h-48.55
		c-1.618,0-2.93,1.312-2.93,2.93C97.071,138.019,98.383,139.331,100.001,139.331z"/>
</g>
</svg>
