<?xml version="1.0" encoding="utf-8"?>
<!-- Generator: Adobe Illustrator 29.6.0, SVG Export Plug-In . SVG Version: 9.03 Build 0)  -->
<svg version="1.1" xmlns="http://www.w3.org/2000/svg" xmlns:xlink="http://www.w3.org/1999/xlink" x="0px" y="0px"
	 viewBox="0 0 200 200" style="enable-background:new 0 0 200 200;" xml:space="preserve">
<g id="Layer_1" style="display:none;">
</g>
<g id="Layer_13" style="display:none;">
	<path style="display:inline;fill:#D7B8F7;" d="M129.617,43.239L96.452,1.619c-1.72-2.158-4.999-2.158-6.719,0L56.567,43.239
		c-2.487,3.121-0.265,7.732,3.726,7.732c2.708,0,4.903,2.195,4.903,4.903v11.06l4.024,3.018l-4.024,3.018v123.005
		c0,2.223,1.802,4.024,4.024,4.024h47.744c2.223,0,4.024-1.802,4.024-4.024v-140.1c0-2.708,2.195-4.903,4.903-4.903
		C129.882,50.972,132.104,46.36,129.617,43.239z"/>
	<path style="display:inline;fill:#BD9AF2;" d="M124.338,51.353c3.99,0,7.766-4.992,5.279-8.113L96.452,1.619
		c-1.72-2.158-4.999-2.158-6.719,0l-2.677,3.359L124.338,51.353z"/>
	<path style="display:inline;fill:#BD9AF2;" d="M75.347,66.935H65.196v6.036h10.151c1.667,0,3.018-1.351,3.018-3.018
		C78.365,68.287,77.014,66.935,75.347,66.935z"/>
</g>
<g id="Item_x5F_1" style="display:none;">
	<path style="display:inline;fill:#D7B8F7;" d="M129.617,43.239L96.452,1.619c-1.72-2.158-4.999-2.158-6.719,0L56.567,43.239
		c-2.487,3.121-0.265,7.732,3.726,7.732c2.708,0,4.903,2.195,4.903,4.903v11.06l4.024,3.018l-4.024,3.018v123.005
		c0,2.223,1.802,4.024,4.024,4.024h47.744c2.223,0,4.024-1.802,4.024-4.024v-140.1c0-2.708,2.195-4.903,4.903-4.903
		C129.882,50.972,132.104,46.36,129.617,43.239z"/>
</g>
<g id="Layer_14" style="display:none;">
	<path style="display:inline;fill:#F9D48D;" d="M94.66,130.362L61.495,88.741c-1.72-2.158-4.999-2.158-6.719,0L21.61,130.362
		c-2.487,3.121-0.265,7.732,3.726,7.732c2.708,0,4.903,2.196,4.903,4.903v18.181l4.024,3.018l-4.024,3.018v11.12l4.024,3.285
		l-4.024,2.752v11.604c0,2.223,1.802,4.024,4.024,4.024h47.744c2.223,0,4.024-1.802,4.024-4.024v-52.977
		c0-2.708,2.195-4.903,4.903-4.903C94.925,138.095,97.147,133.483,94.66,130.362z"/>
	<path style="display:inline;fill:#FFC059;" d="M94.66,130.362L61.495,88.741c-1.72-2.158-4.999-2.158-6.719,0L52.099,92.1
		l30.489,38.262c2.487,3.121,0.265,7.732-3.726,7.732c-2.708,0-4.903,2.196-4.903,4.903v52.978c0,2.223-1.802,4.024-4.024,4.024
		h12.072c2.223,0,4.024-1.802,4.024-4.024v-52.977c0-2.708,2.195-4.903,4.903-4.903C94.925,138.095,97.147,133.483,94.66,130.362z"
		/>
	<path style="display:inline;fill:#FFC059;" d="M40.084,161.179h-9.845v6.036h9.845c1.667,0,3.018-1.351,3.018-3.018
		C43.102,162.53,41.751,161.179,40.084,161.179z"/>
	<path style="display:inline;fill:#FFC059;" d="M40.084,178.335h-9.845v6.036h9.845c1.667,0,3.018-1.351,3.018-3.018
		C43.102,179.686,41.751,178.335,40.084,178.335z"/>
</g>
<g id="Item_x5F_2" style="display:none;">
	<path style="display:inline;fill:#BD9AF2;" d="M124.338,51.353c3.99,0,7.766-4.992,5.279-8.113L96.452,1.619
		c-1.72-2.158-4.999-2.158-6.719,0l-2.677,3.359L124.338,51.353z"/>
</g>
<g id="Item_x5F_3" style="display:none;">
	<path style="display:inline;fill:#AEDAFE;" d="M178.39,70.268l-33.166-41.621c-1.72-2.158-4.999-2.158-6.719,0L105.34,70.268
		c-2.487,3.121-0.265,7.732,3.726,7.732c2.708,0,4.903,2.195,4.903,4.903v113.072c0,2.223,1.802,4.024,4.024,4.024h47.744
		c2.223,0,4.024-1.802,4.024-4.024V82.905c0-2.708,2.196-4.903,4.903-4.903C178.655,78.001,180.877,73.389,178.39,70.268z"/>
</g>
<g id="Item_x5F_4" style="display:none;">
	<path style="display:inline;fill:#F9D48D;" d="M94.66,130.362L61.495,88.741c-1.72-2.158-4.999-2.158-6.719,0L21.61,130.362
		c-2.487,3.121-0.265,7.732,3.726,7.732c2.708,0,4.903,2.196,4.903,4.903v18.181l4.024,3.018l-4.024,3.018v11.12l4.024,3.285
		l-4.024,2.752v11.604c0,2.223,1.802,4.024,4.024,4.024h47.744c2.223,0,4.024-1.802,4.024-4.024v-52.977
		c0-2.708,2.195-4.903,4.903-4.903C94.925,138.095,97.147,133.483,94.66,130.362z"/>
</g>
<g id="Item_x5F_5" style="display:none;">
	<path style="display:inline;fill:#8DC1FE;" d="M178.39,70.268l-33.166-41.621c-1.72-2.158-4.999-2.158-6.719,0l-2.677,3.359
		l30.489,38.262c2.487,3.121,0.265,7.732-3.726,7.732c-2.708,0-4.903,2.195-4.903,4.903v113.072c0,2.223-1.802,4.024-4.024,4.024
		h12.072c2.223,0,4.024-1.802,4.024-4.024V82.905c0-2.708,2.196-4.903,4.903-4.903C178.655,78.001,180.877,73.389,178.39,70.268z"/>
</g>
<g id="Item_x5F_6" style="display:none;">
	<path style="display:inline;fill:#FFC059;" d="M94.66,130.362L61.495,88.741c-1.72-2.158-4.999-2.158-6.719,0L52.099,92.1
		l30.489,38.262c2.487,3.121,0.265,7.732-3.726,7.732c-2.708,0-4.903,2.196-4.903,4.903v52.978c0,2.223-1.802,4.024-4.024,4.024
		h12.072c2.223,0,4.024-1.802,4.024-4.024v-52.977c0-2.708,2.195-4.903,4.903-4.903C94.925,138.095,97.147,133.483,94.66,130.362z"
		/>
</g>
<g id="Item_x5F_7" style="display:none;">
	<path style="display:inline;fill:#BD9AF2;" d="M75.347,66.935H65.196v6.036h10.151c1.667,0,3.018-1.351,3.018-3.018
		C78.365,68.287,77.014,66.935,75.347,66.935z"/>
</g>
<g id="Item_x5F_8" style="display:none;">
	<path style="display:inline;fill:#FFC059;" d="M40.084,161.179h-9.845v6.036h9.845c1.667,0,3.018-1.351,3.018-3.018
		C43.102,162.53,41.751,161.179,40.084,161.179z"/>
</g>
<g id="Item_x5F_9" style="display:none;">
	<path style="display:inline;fill:#FFC059;" d="M40.084,178.335h-9.845v6.036h9.845c1.667,0,3.018-1.351,3.018-3.018
		C43.102,179.686,41.751,178.335,40.084,178.335z"/>
</g>
<g id="Item_x5F_10" style="display:none;">
	<path style="display:inline;fill:#8DC1FE;" d="M134.741,98.592h-10.227c-1.667,0-3.018-1.351-3.018-3.018
		c0-1.667,1.351-3.018,3.018-3.018h10.227c1.667,0,3.018,1.351,3.018,3.018C137.759,97.241,136.408,98.592,134.741,98.592z
		 M137.759,112.73c0-1.667-1.351-3.018-3.018-3.018h-10.227c-1.667,0-3.018,1.351-3.018,3.018s1.351,3.018,3.018,3.018h10.227
		C136.408,115.748,137.759,114.397,137.759,112.73z M137.759,129.886c0-1.667-1.351-3.018-3.018-3.018h-10.227
		c-1.667,0-3.018,1.351-3.018,3.018s1.351,3.018,3.018,3.018h10.227C136.408,132.904,137.759,131.553,137.759,129.886z
		 M137.759,147.041c0-1.667-1.351-3.018-3.018-3.018h-10.227c-1.667,0-3.018,1.351-3.018,3.018c0,1.667,1.351,3.018,3.018,3.018
		h10.227C136.408,150.06,137.759,148.708,137.759,147.041z M137.759,164.197c0-1.667-1.351-3.018-3.018-3.018h-10.227
		c-1.667,0-3.018,1.351-3.018,3.018c0,1.667,1.351,3.018,3.018,3.018h10.227C136.408,167.215,137.759,165.864,137.759,164.197z
		 M137.759,181.353c0-1.667-1.351-3.018-3.018-3.018h-10.227c-1.667,0-3.018,1.351-3.018,3.018c0,1.667,1.351,3.018,3.018,3.018
		h10.227C136.408,184.371,137.759,183.02,137.759,181.353z"/>
</g>
<g id="Layer_12">
	<path style="fill:#AEDAFE;" d="M178.39,70.268l-33.166-41.621c-1.72-2.158-4.999-2.158-6.719,0L105.34,70.268
		c-2.487,3.121-0.265,7.732,3.726,7.732c2.708,0,4.903,2.195,4.903,4.903v113.072c0,2.223,1.802,4.024,4.024,4.024h47.744
		c2.223,0,4.024-1.802,4.024-4.024V82.905c0-2.708,2.196-4.903,4.903-4.903C178.655,78.001,180.877,73.389,178.39,70.268z"/>
	<path style="fill:#8DC1FE;" d="M178.39,70.268l-33.166-41.621c-1.72-2.158-4.999-2.158-6.719,0l-2.677,3.359l30.489,38.262
		c2.487,3.121,0.265,7.732-3.726,7.732c-2.708,0-4.903,2.195-4.903,4.903v113.072c0,2.223-1.802,4.024-4.024,4.024h12.072
		c2.223,0,4.024-1.802,4.024-4.024V82.905c0-2.708,2.196-4.903,4.903-4.903C178.655,78.001,180.877,73.389,178.39,70.268z"/>
	<path style="fill:#8DC1FE;" d="M134.741,98.592h-10.227c-1.667,0-3.018-1.351-3.018-3.018c0-1.667,1.351-3.018,3.018-3.018h10.227
		c1.667,0,3.018,1.351,3.018,3.018C137.759,97.241,136.408,98.592,134.741,98.592z M137.759,112.73c0-1.667-1.351-3.018-3.018-3.018
		h-10.227c-1.667,0-3.018,1.351-3.018,3.018s1.351,3.018,3.018,3.018h10.227C136.408,115.748,137.759,114.397,137.759,112.73z
		 M137.759,129.886c0-1.667-1.351-3.018-3.018-3.018h-10.227c-1.667,0-3.018,1.351-3.018,3.018s1.351,3.018,3.018,3.018h10.227
		C136.408,132.904,137.759,131.553,137.759,129.886z M137.759,147.041c0-1.667-1.351-3.018-3.018-3.018h-10.227
		c-1.667,0-3.018,1.351-3.018,3.018c0,1.667,1.351,3.018,3.018,3.018h10.227C136.408,150.06,137.759,148.708,137.759,147.041z
		 M137.759,164.197c0-1.667-1.351-3.018-3.018-3.018h-10.227c-1.667,0-3.018,1.351-3.018,3.018c0,1.667,1.351,3.018,3.018,3.018
		h10.227C136.408,167.215,137.759,165.864,137.759,164.197z M137.759,181.353c0-1.667-1.351-3.018-3.018-3.018h-10.227
		c-1.667,0-3.018,1.351-3.018,3.018c0,1.667,1.351,3.018,3.018,3.018h10.227C136.408,184.371,137.759,183.02,137.759,181.353z"/>
</g>
</svg>
