<?xml version='1.0' encoding='utf-8'?>
<svg xmlns:svg="http://www.w3.org/2000/svg" id="_0390_mountain_1" viewBox="0 0 500 500" data-imageid="mountain-1-38" imageName="Mountain 1" class="illustrations_image" style="width: 188px;"><svg:style>.cls-1_mountain-1-38{fill:#a5a5a5;}.cls-2_mountain-1-38{opacity:.15;}.cls-2_mountain-1-38,.cls-3_mountain-1-38{fill:#ffd200;}.cls-4_mountain-1-38,.cls-5_mountain-1-38,.cls-6_mountain-1-38{fill:#e6e6e6;}.cls-5_mountain-1-38{opacity:.3;}.cls-6_mountain-1-38{opacity:.52;}.cls-7_mountain-1-38{opacity:.2;}.cls-7_mountain-1-38,.cls-8_mountain-1-38{fill:#000001;}.cls-8_mountain-1-38{opacity:.05;}.cls-9_mountain-1-38{fill:#24285b;}.cls-10_mountain-1-38{fill:#68e1fd;}</svg:style><svg:path class="cls-1_mountain-1-38" d="M 275.60999999999996 393.56000000000006 L 275.60999999999996 407.68000000000006 L 275.61001676328937 407.6840942653037 L 275.61098761866486 407.8026531219036 L 275.6111218140827 407.8108444546197 L 275.61402432145417 407.9289352080885 L 275.61429259021776 407.93712036284336 L 275.6191116614525 408.05472792504844 L 275.6195137220959 408.0629035263194 L 275.62623426906134 408.18001280912813 L 275.6267697310035 408.18817554751485 L 275.6353766655669 408.3047714627945 L 275.636045034253 408.3129181001032 L 275.6465232682819 408.42898555972135 L 275.64732395057905 408.43711293358353 L 275.65965839594077 408.5526368494074 L 275.66059070574954 408.560741877425 L 275.67476627431137 408.67570716132207 L 275.67582943835356 408.6837868447315 L 275.691831041983 408.7981784085691 L 275.69302420572865 408.8062298354142 L 275.71083675629296 408.92003259105957 L 275.7121589899876 408.92805293888335 L 275.73176739935417 409.04125179820403 L 275.73321770410985 409.04923833625185 L 275.7546068841461 409.1618182111152 L 275.75618419806034 409.1697683020617 L 275.7793390606336 409.281714104335 L 275.78104226490143 409.28962520553983 L 275.80594772187914 409.40092184709056 L 275.8077756468659 409.40879151139774 L 275.83441661011534 409.5194239040932 L 275.83636804135836 409.5272497801848 L 275.864729422747 409.63720283589237 L 275.8668031068576 409.6449826682126 L 275.89686981825275 409.7542412987997 L 275.89906446869145 409.7619729270715 L 275.9308214219605 409.8705220444054 L 275.9331357246591 409.878203402751 L 275.9665678316694 409.9860279186992 L 275.9690004504796 409.9936570343949 L 276.00409262309853 410.1007418608247 L 276.0066422050436 410.1083168527026 L 276.0433793551386 410.2146469014814 L 276.04604453545085 410.2221659780065 L 276.0844115748892 410.32772616100164 L 276.08719098181876 410.33518761804794 L 276.12717282246786 410.4399628471268 L 276.1300650818447 410.447365065471 L 276.17164663557196 410.55134025250095 L 276.17465037511215 410.5586816950611 L 276.2178165537849 410.6618417519096 L 276.220930407131 410.66912096075504 L 276.2656661226166 410.7714507992893 L 276.26888873310156 410.7786663924392 L 276.31517889726746 410.8801509245268 L 276.318508921398 410.8873015925656 L 276.3663384461115 410.98792573007375 L 276.3697745567655 410.995010232605 L 276.419128353894 411.0947588874011 L 276.4226692432282 411.1017760493612 L 276.4735322246391 411.20063413331263 L 276.477176606706 411.2075828411675 L 276.52953368426665 411.30553526614165 L 276.5332802973399 411.3124144639854 L 276.5871163829176 411.4094461418497 L 276.5909639915275 411.4162548274295 L 276.6462639969897 411.5123506700512 L 276.6502113936677 411.51908789072957 L 276.7069602308818 411.6142328099761 L 276.7110062376215 411.62089765865954 L 276.76918881845484 411.7150765663983 L 276.7733322878893 411.7216681774414 L 276.8329335242092 411.81486598553977 L 276.83717334050954 411.82138353064573 L 276.8981781441835 411.913585150971 L 276.90251322368465 411.9200278351012 L 276.96490650657995 412.0112181795208 L 276.96933579813924 412.0175852368332 L 277.03310247212323 412.1077492172145 L 277.03762495721594 412.11403990704 L 277.102749934156 412.2031624352504 L 277.1073646267159 412.2093760381232 L 277.17383281847947 412.29744202603 L 277.1785387644887 412.3035778397821 L 277.24633508294306 412.39057219925274 L 277.2511313597821 412.39662953519013 L 277.32024071679473 412.48253717809195 L 277.3251264323539 412.48851535725487 L 277.39553373979214 412.57332119545526 L 277.4005080313559 412.57921954498136 L 277.4721982010871 412.6629084903477 L 277.4772602339974 412.6687263399439 L 277.5502181778889 412.7512833043435 L 277.5553671439925 412.757019982876 L 277.62957777391176 412.8384298781763 L 277.63481288980216 412.8440847103904 L 277.7102611176165 412.92433244845876 L 277.71558162267524 412.9299047518348 L 277.792252360252 413.0089752445386 L 277.7976575144988 413.01446432629467 L 277.8755356737054 413.09234248550126 L 277.88102475546134 413.0977476397479 L 277.9600952481651 413.1744183773247 L 277.96566755154134 413.1797388823837 L 278.04591528960975 413.255187110198 L 278.05157012182354 413.26042222608817 L 278.1329800171238 413.33463285600743 L 278.1387166956566 413.33978182211126 L 278.2212736600563 413.41273976600274 L 278.22709150965215 413.4178017989128 L 278.31078045501846 413.489491968644 L 278.3166788045447 413.4944662602079 L 278.4014846427451 413.56487356764615 L 278.40746282190804 413.5697592832053 L 278.49337046480986 413.63886864021794 L 278.49942780074707 413.64366491705687 L 278.5864221602177 413.7114612355113 L 278.59255797397 413.71616718152063 L 278.6806239618768 413.7826353732842 L 278.68683756474957 413.7872500658441 L 278.77596009295996 413.85237504278416 L 278.78225078278547 413.85689752787687 L 278.8724147631668 413.92066420186086 L 278.87878182047916 413.92509349342015 L 278.96997216489876 413.98748677631545 L 278.97641484902897 413.9918218558166 L 279.06861646935425 414.05282665949056 L 279.0751340144601 414.05706647579086 L 279.1683318225584 414.11666771211077 L 279.17492343360163 414.12081118154526 L 279.2691023413404 414.1789937623786 L 279.2757671900238 414.1830397691183 L 279.37091210927036 414.2397886063324 L 279.3776493299487 414.2437360030104 L 279.47374517257043 414.2990360084726 L 279.4805538581501 414.3028836170824 L 279.57758553601434 414.35671970266014 L 279.5844647338585 414.3604663157336 L 279.68241715883266 414.4128233932942 L 279.6893658666873 414.416467775361 L 279.7882239506387 414.4673307567719 L 279.79524111259866 414.470871646106 L 279.89498976739475 414.52022544323455 L 279.9020742699262 414.52366155388864 L 280.0026984074343 414.57149107860215 L 280.0098490754731 414.5748211027327 L 280.1113336075606 414.6211112668986 L 280.1185492007107 414.62433387738355 L 280.220879039245 414.66906959286916 L 280.22815824809027 414.6721834462152 L 280.3313183049387 414.71534962488795 L 280.3386597474989 414.7183533644282 L 280.4426349345289 414.75993491815547 L 280.45003715287305 414.7628271775323 L 280.55481238195193 414.8028090181814 L 280.562273838998 414.80558842511084 L 280.66783402199314 414.84395546454925 L 280.67535309851866 414.84662064486173 L 280.78168314729743 414.8833577949567 L 280.78925813917516 414.8859073769016 L 280.89634296560496 414.92099954952056 L 280.9039720813003 414.9234321683307 L 281.01179659724846 414.95686427534105 L 281.0194779555945 414.95917857803977 L 281.12802707292843 414.9909355313088 L 281.1357587012002 414.99313018174746 L 281.24501733178727 415.0231968931426 L 281.2527971641077 415.02527057725325 L 281.3627502198152 415.05363195864186 L 281.37057609590636 415.05558338988476 L 281.4812084886018 415.0822243531343 L 281.4890781529095 415.08405227812113 L 281.6003747944602 415.1089577350988 L 281.6082858956646 415.11066093936654 L 281.7202316979379 415.1338158019399 L 281.7281817888846 415.13539311585413 L 281.84076166374797 415.15678229589037 L 281.8487482017958 415.15823260064604 L 281.96194706111646 415.1778410100126 L 281.96996740894025 415.17916324370725 L 282.08377016458564 415.19697579427157 L 282.09182159143074 415.1981689580172 L 282.2062131552683 415.21417056164665 L 282.21429283867775 415.21523372568885 L 282.32925812257474 415.2294092942507 L 282.33736315059235 415.23034160405945 L 282.4528870664163 415.24267604942116 L 282.46101444027846 415.2434767317183 L 282.57708189989654 415.2539549657472 L 282.585228537205 415.2546233344333 L 282.70182445248474 415.2632302689968 L 282.7099871908717 415.2637657309389 L 282.8270964736804 415.27048627790435 L 282.8352720749514 415.27088833854776 L 282.9528796371564 415.2757074097825 L 282.96106479191127 415.2759756785461 L 283.07915554538005 415.27887818591756 L 283.0873468780962 415.2790123813354 L 283.20590573469605 415.2799832367109 L 283.2100000000013 415.2800000000003 L 283.28191919192074 415.2800000000001 L 289.83 415.2800000000001 L 289.83 440.12 L 302.71 440.12 L 302.71 423.5600000000001 L 309.78999999999996 423.5600000000001 L 309.7940942653036 423.5599832367107 L 309.9126531219035 423.5590123813352 L 309.9208444546196 423.55887818591737 L 310.0389352080884 423.5559756785459 L 310.04712036284326 423.5557074097823 L 310.16472792504834 423.55088833854757 L 310.1729035263193 423.55048627790416 L 310.29001280912803 423.54376573093873 L 310.29817554751475 423.5432302689966 L 310.4147714627944 423.53462333443315 L 310.4229181001031 423.53395496574706 L 310.53898555972125 423.5234767317182 L 310.54711293358343 423.522676049421 L 310.6626368494073 423.5103416040593 L 310.6707418774249 423.50940929425053 L 310.78570716132197 423.4952337256887 L 310.7937868447314 423.4941705616465 L 310.908178408569 423.4781689580171 L 310.9162298354141 423.4769757942714 L 311.03003259105947 423.4591632437071 L 311.03805293888325 423.4578410100125 L 311.15125179820393 423.4382326006459 L 311.15923833625175 423.4367822958902 L 311.2718182111151 423.415393115854 L 311.2797683020618 423.41381580193973 L 311.3917141043351 423.3906609393664 L 311.3996252055395 423.38895773509864 L 311.51092184709023 423.364052278121 L 311.5187915113979 423.36222435313414 L 311.62942390409336 423.3355833898846 L 311.63724978018445 423.3336319586417 L 311.74720283589204 423.3052705772531 L 311.7549826682125 423.30319689314246 L 311.8642412987996 423.2731301817473 L 311.8719729270714 423.2709355313086 L 311.9805220444053 423.23917857803957 L 311.9882034027509 423.23686427534096 L 312.0960279186991 423.20343216833066 L 312.10365703439504 423.20099954952036 L 312.21074186082484 423.1659073769014 L 312.21831685270234 423.16335779495654 L 312.3246469014811 423.1266206448616 L 312.3321659780064 423.1239554645492 L 312.43772616100154 423.08558842511087 L 312.44518761804784 423.0828090181813 L 312.5499628471267 423.0428271775322 L 312.5573650654709 423.0399349181554 L 312.66134025250085 422.9983533644281 L 312.668681695061 422.9953496248879 L 312.7718417519095 422.95218344621514 L 312.77912096075494 422.9490695928691 L 312.8814507992892 422.90433387738346 L 312.8886663924391 422.9011112668985 L 312.9901509245267 422.8548211027326 L 312.9973015925655 422.85149107860207 L 313.09792573007365 422.80366155388856 L 313.1050102326051 422.80022544323447 L 313.20475888740117 422.7508716461059 L 313.21177604936094 422.74733075677193 L 313.31063413331236 422.6964677753611 L 313.3175828411674 422.6928233932941 L 313.41553526614155 422.6404663157334 L 313.4224144639855 422.63671970266006 L 313.51944614184976 422.5828836170823 L 313.5262548274294 422.57903600847254 L 313.6223506700511 422.5237360030103 L 313.6290878907293 422.51978860633244 L 313.72423280997583 422.4630397691184 L 313.73089765865944 422.45899376237855 L 313.8250765663982 422.40081118154524 L 313.83166817744154 422.3966677121107 L 313.9248659855399 422.3370664757907 L 313.93138353064563 422.3328266594905 L 314.0235851509709 422.27182185581654 L 314.03002783510095 422.2674867763155 L 314.12121817952055 422.20509349342024 L 314.1275852368331 422.20066420186083 L 314.2177492172144 422.13689752787684 L 314.2240399070401 422.132375042784 L 314.3131624352505 422.0672500658439 L 314.3193760381229 422.06263537328425 L 314.40744202602974 421.9961671815207 L 314.4135778397822 421.9914612355113 L 314.5005721992528 421.92366491705684 L 314.50662953519003 421.9188686402179 L 314.59253717809185 421.8497592832053 L 314.59851535725477 421.8448735676461 L 314.68332119545516 421.7744662602079 L 314.68921954498126 421.7694919686441 L 314.7729084903476 421.6978017989129 L 314.7787263399438 421.6927397660026 L 314.8612833043434 421.6197818221111 L 314.8670199828759 421.6146328560075 L 314.9484298781762 421.54042222608825 L 314.95408471039013 421.535187110198 L 315.0343324484585 421.45973888238376 L 315.0399047518348 421.4544183773247 L 315.1189752445386 421.3777476397479 L 315.12446432629457 421.37234248550124 L 315.20234248550116 421.29446432629464 L 315.2077476397478 421.2889752445387 L 315.2844183773246 421.2099047518349 L 315.2897388823836 421.2043324484587 L 315.3651871101979 421.12408471039026 L 315.37042222608807 421.11842987817647 L 315.44463285600733 421.0370199828762 L 315.44978182211116 421.0312833043434 L 315.52273976600264 420.94872633994373 L 315.5278017989127 420.94290849034786 L 315.5994919686439 420.85921954498156 L 315.6044662602078 420.8533211954553 L 315.67487356764605 420.7685153572549 L 315.6797592832052 420.762537178092 L 315.74886864021784 420.67662953519016 L 315.7536649170569 420.67057219925283 L 315.8214612355113 420.58357783978215 L 315.82616718152053 420.57744202603 L 315.8926353732841 420.48937603812317 L 315.89725006584393 420.4831624352505 L 315.962375042784 420.39403990704017 L 315.96689752787677 420.38774921721455 L 316.03066420186076 420.29758523683324 L 316.03509349342005 420.29121817952085 L 316.09748677631535 420.20002783510125 L 316.1018218558165 420.19358515097105 L 316.16282665949046 420.10138353064576 L 316.1670664757908 420.0948659855398 L 316.2266677121107 420.00166817744145 L 316.23081118154516 419.9950765663983 L 316.2889937623785 419.9008976586596 L 316.2930397691182 419.89423280997613 L 316.3497886063323 419.7990878907296 L 316.3537360030103 419.79235067005123 L 316.4090360084725 419.6962548274295 L 316.4128836170823 419.6894461418499 L 316.46671970266004 419.5924144639856 L 316.4704663157335 419.58553526614145 L 316.5228233932941 419.4875828411673 L 316.5264677753609 419.48063413331266 L 316.5773307567718 419.38177604936124 L 316.5808716461059 419.3747588874013 L 316.63022544323445 419.2750102326052 L 316.63366155388854 419.2679257300738 L 316.68149107860205 419.16730159256565 L 316.6848211027326 419.1601509245269 L 316.7311112668985 419.05866639243936 L 316.73433387738345 419.0514507992893 L 316.77906959286906 418.94912096075495 L 316.7821834462151 418.9418417519097 L 316.82534962488785 418.83868169506127 L 316.82835336442815 418.8313402525009 L 316.8699349181554 418.7273650654709 L 316.8728271775322 418.71996284712685 L 316.9128090181813 418.61518761804797 L 316.91558842511074 418.6077261610019 L 316.95395546454915 418.50216597800676 L 316.95662064486163 418.49464690148125 L 316.9933577949566 418.3883168527025 L 316.9959073769015 418.38074186082474 L 317.03099954952046 418.27365703439494 L 317.0334321683306 418.2660279186996 L 317.06686427534095 418.15820340275144 L 317.06917857803967 418.1505220444054 L 317.1009355313087 418.04197292707147 L 317.10313018174736 418.03424129879977 L 317.1331968931425 417.92498266821275 L 317.13527057725315 417.9172028358922 L 317.16363195864176 417.80724978018463 L 317.16558338988466 417.79942390409354 L 317.1922243531342 417.6887915113981 L 317.19405227812103 417.6809218470904 L 317.2189577350987 417.5696252055397 L 317.22066093936644 417.5617141043353 L 317.2438158019398 417.449768302062 L 317.24539311585403 417.4418182111153 L 317.26678229589027 417.32923833625193 L 317.26823260064594 417.3212517982041 L 317.2878410100125 417.20805293888344 L 317.28916324370715 417.2000325910596 L 317.30697579427147 417.08622983541414 L 317.30816895801706 417.07817840856916 L 317.3241705616465 416.96378684473166 L 317.32523372568875 416.95570716132215 L 317.3394092942506 416.8407418774251 L 317.34034160405935 416.8326368494075 L 317.35267604942106 416.7171129335836 L 317.3534767317182 416.70898555972144 L 317.3639549657471 416.5929181001033 L 317.3646233344332 416.58477146279483 L 317.3732302689967 416.4681755475151 L 317.3737657309388 416.46001280912816 L 317.38048627790425 416.3429035263195 L 317.38088833854766 416.3347279250485 L 317.3857074097824 416.21712036284345 L 317.385975678546 416.2089352080886 L 317.38887818591746 416.0908444546198 L 317.3890123813353 416.08265312190366 L 317.3899832367108 415.9640942653038 L 317.3900000000002 415.95999999999935 L 317.39 415.81737373737303 L 317.39 401.8400000000001 L 317.3899832327811 401.83590525486176 L 317.3893268371752 401.7557569706731 L 317.3891926110943 401.7475647104493 L 317.38723022630364 401.6677327205163 L 317.38696189834644 401.6595466844173 L 317.3837037274115 401.5800411917805 L 317.3833015813422 401.57186475649735 L 317.3787578273035 401.49269596419725 L 317.37822225604674 401.4845324401224 L 317.3724031219448 401.4057105511995 L 317.37173462243226 401.39756317734293 L 317.36465031130757 401.31909839483774 L 317.36384947907055 401.3109703342069 L 317.3555101939636 401.23287286115993 L 317.3545777175106 401.224767196617 L 317.3449936614619 401.1470472360688 L 317.34393031647915 401.1389669666691 L 317.3331116925292 401.0616347216601 L 317.3319183359431 401.0535827594793 L 317.31987534713244 400.97664843305 L 317.31855291107183 400.9686276004981 L 317.3052957604409 400.89210139568905 L 317.3038452461363 400.8841144233117 L 317.2893841367257 400.80800654316346 L 317.28780660838044 400.80005606791855 L 317.27215174323067 400.7243767154715 L 317.2704483219001 400.71646527947826 L 317.2536099040516 400.64122465777297 L 317.2517817615625 400.63335470752224 L 317.23376999405576 400.55856301959926 L 317.23181834699596 400.5507369056032 L 317.2126434328716 400.4764043545029 L 317.2105695366812 400.46862433137704 L 317.1902416789796 400.3947611201401 L 317.1880468221697 400.3870293470984 L 317.16657622393143 400.3136456787652 L 317.16426172245497 400.3059642205019 L 317.1416585867205 400.23307029811303 L 317.13922577851974 400.22544112605976 L 317.1155003083297 400.1530471526557 L 317.11295054807835 400.1454721465838 L 317.0881129464731 400.07358832520504 L 317.0854476005357 400.0660692751593 L 317.05950807055575 399.99470580884633 L 317.0567285121755 399.9872444173764 L 317.02969725686137 399.9164115091698 L 317.0268048615945 399.9090093938444 L 316.9986920839868 399.8387172467846 L 316.99568822539334 399.8313759429578 L 316.96650412853245 399.76163476008526 L 316.96339017413584 399.75435572390006 L 316.93314496106234 399.68517570825543 L 316.92992226858235 399.6779603198488 L 316.89862614233675 399.60935167447246 L 316.8952960562052 399.60220124136765 L 316.862959219828 399.5341741693002 L 316.8595230679917 399.5270899299623 L 316.8261557245233 399.4596546342442 L 316.8226148155363 399.4526377617735 L 316.7882271680174 399.38580444544516 L 316.7845827884219 399.3788560513834 L 316.74918503989284 399.3126349174855 L 316.7454384518977 399.30575605572983 L 316.70904080539907 399.2401573073028 L 316.705193244843 399.2333489780838 L 316.6678059034152 399.16838281816814 L 316.66385857802305 399.1616459720939 L 316.6254917447067 399.0973226037301 L 316.621445832631 399.0906581458648 L 316.5821097104666 399.02698777209343 L 316.57796635911177 399.02039656605893 L 316.5376711511398 398.9573893899204 L 316.5334314762636 398.9508722619998 L 316.4921873855246 398.8885384865347 L 316.487852470616 398.8820962297693 L 316.4456697001504 398.8204460580181 L 316.44124059607253 398.81407943627386 L 316.39812934892086 398.7531230712771 L 316.39360707381735 398.7468328232731 L 316.34957755302014 398.68658046807127 L 316.34496309247703 398.68036731135385 L 316.3000255010748 398.62082916898737 L 316.2953198085318 398.6146938038381 L 316.2494843495651 398.55588007734764 L 316.2446883469704 398.5498231906153 L 316.19796522347957 398.4917440830413 L 316.19307980217997 398.4857663518831 L 316.14547921720566 398.428432066266 L 316.1405052390624 398.42253416178687 L 316.09203739564504 398.3659549011672 L 316.0869756943775 398.3601374919556 L 316.0376507955577 398.30432345937385 L 316.0325021782938 398.29858721491036 L 315.9823304271119 398.24354861340714 L 315.97709567615425 398.23789420735363 L 315.9260872756509 398.18364123996935 L 315.92076715043277 398.17806935331055 L 315.8689323036484 398.1246122230857 L 315.8635275428906 398.11912354713417 L 315.8108764528658 398.06647245710934 L 315.8053877769144 398.06106769635176 L 315.75193064668963 398.0092328495674 L 315.74635876003066 398.00391272434905 L 315.6921057926464 397.9529043238457 L 315.68645138659247 397.94766957288766 L 315.6314127850892 397.8974978217058 L 315.6256765406265 397.89234920444267 L 315.5698625080448 397.8430243056228 L 315.5640450988326 397.8379626043547 L 315.5074658382129 397.7894947609374 L 315.50156793373424 397.7845207827946 L 315.4442336481171 397.7369201978202 L 315.4382559169585 397.7320347765202 L 315.38017680938447 397.68531165302943 L 315.3741199226524 397.680515650435 L 315.3153061961619 397.6346801914682 L 315.30917083101275 397.6299744989253 L 315.24963268864633 397.5850369075231 L 315.24341953192874 397.5804224469798 L 315.1831671767269 397.5363929261826 L 315.1768769287229 397.5318706510791 L 315.11592056372615 397.4887594039274 L 315.1095539419819 397.48433029984955 L 315.04790377023073 397.44214752938393 L 315.0414615134653 397.4378126144754 L 314.9791277380002 397.39656852373633 L 314.9726106100796 397.39232884886013 L 314.9096034339411 397.3520336408882 L 314.9030122279066 397.3478902895333 L 314.8393418541352 397.3085541673689 L 314.8326773962699 397.30450825529323 L 314.7683540279061 397.2661414219769 L 314.76161718183187 397.2621940965847 L 314.6966510219162 397.224806755157 L 314.6898426926975 397.22095919460105 L 314.62424394427046 397.18456154810235 L 314.6173650825142 397.1808149601069 L 314.5511439486163 397.14541721157786 L 314.5441955545553 397.14177283198285 L 314.47736223822704 397.10738518446385 L 314.4703453657554 397.1038442754764 L 314.40291007003725 397.07047693200803 L 314.39582583069983 397.06704078017196 L 314.32779875863235 397.03470394379474 L 314.3206483255278 397.03137385766337 L 314.2520396801515 397.0000777314177 L 314.2448242917446 396.99685503893755 L 314.17564427609994 396.96660982586405 L 314.16836523991475 396.96349587146744 L 314.09862405704223 396.93431177460656 L 314.0912827532154 396.9313079160131 L 314.0209906061556 396.9031951384054 L 314.0135884908302 396.9003027431385 L 313.9427555826236 396.8732714878244 L 313.9352941911537 396.87049192944414 L 313.8639307248407 396.8445523994642 L 313.85641167479497 396.8418870535268 L 313.7845278534162 396.81704945192155 L 313.77695284734466 396.81449969167033 L 313.7045588739406 396.7907742214802 L 313.69692970188663 396.7883414132792 L 313.6240357794978 396.7657382775448 L 313.6163543212348 396.76342377606846 L 313.5429706529016 396.74195317783017 L 313.53523887985983 396.73975832102025 L 313.46137566862285 396.71943046331864 L 313.45359564549716 396.7173565671283 L 313.37926309439695 396.6981816530039 L 313.3714369804011 396.69623000594424 L 313.2966452924781 396.67821823843747 L 313.2887753422267 396.6763900959482 L 313.2135347205214 396.6595516780997 L 313.2056232845289 396.6578482567693 L 313.12994393208186 396.64219339161946 L 313.1219934568365 396.64061586327415 L 313.0458855766882 396.62615475386355 L 313.03789860431095 396.6247042395589 L 312.96137239950195 396.611447088928 L 312.95335156695 396.6101246528674 L 312.8764172405207 396.59808166405674 L 312.8683652783399 396.59688830747064 L 312.7910330333309 396.5860696835207 L 312.7829527639312 396.58500633853794 L 312.7052328033829 396.5754222824892 L 312.69712713884 396.57448980603624 L 312.61902966579305 396.5661505209293 L 312.61090160516255 396.5653496886923 L 312.53243682265736 396.5582653775676 L 312.52428944880046 396.557596878055 L 312.44546755987756 396.55177774395304 L 312.4373040358027 396.5512421726963 L 312.3581352435026 396.54669841865757 L 312.34995880821947 396.5462962725883 L 312.2704533155827 396.54303810165334 L 312.2622672794837 396.54276977369614 L 312.18243528955065 396.5408073889055 L 312.1742430293269 396.5406731628246 L 312.10590604707227 396.54011349900486 L 312.1059052548617 396.5400167672189 L 312.10000000001384 396.54006512986786 L 312.0940947451382 396.5400167672187 L 312.09113049482187 396.5401377690303 L 312.025756970673 396.5406731628248 L 312.0175647104492 396.5408073889057 L 311.93773272051624 396.54276977369636 L 311.92954668441723 396.54303810165356 L 311.8500411917804 396.5462962725885 L 311.8418647564973 396.5466984186578 L 311.7626959641972 396.5512421726965 L 311.7545324401223 396.55177774395327 L 311.6757105511994 396.5575968780552 L 311.66756317734286 396.55826537756775 L 311.58909839483766 396.56534968869244 L 311.5809703342068 396.56615052092945 L 311.50287286115986 396.5744898060364 L 311.4947671966169 396.5754222824894 L 311.4170472360687 396.5850063385381 L 311.408966966669 396.58606968352086 L 311.33163472166 396.5968883074708 L 311.3235827594792 396.5980816640569 L 311.2466484330499 396.61012465286757 L 311.238627600498 396.6114470889282 L 311.162101395689 396.6247042395591 L 311.15411442331174 396.6261547538637 L 311.07800654316344 396.6406158632743 L 311.0700560679185 396.64219339161957 L 310.99437671547145 396.65784825676934 L 310.9864652794782 396.6595516780999 L 310.9112246577729 396.6763900959484 L 310.90335470752217 396.6782182384375 L 310.8285630195992 396.69623000594424 L 310.820736905603 396.69818165300404 L 310.7464043545028 396.71735656712843 L 310.7386243313771 396.71943046331876 L 310.6647611201401 396.73975832102036 L 310.6570293470982 396.74195317783034 L 310.5836456787651 396.76342377606863 L 310.57596422050227 396.76573827754487 L 310.50307029811336 396.7883414132793 L 310.49544112605935 396.7907742214803 L 310.4230471526553 396.81449969167045 L 310.41547214658374 396.81704945192166 L 310.34358832520496 396.84188705352693 L 310.3360692751592 396.8445523994643 L 310.26470580884626 396.87049192944426 L 310.2572444173767 396.8732714878244 L 310.18641150917006 396.90030274313847 L 310.179009393844 396.9031951384056 L 310.1087172467842 396.93130791601334 L 310.10137594295793 396.93431177460656 L 310.03163476008547 396.9634958714674 L 310.0243557239002 396.96660982586405 L 309.9551757082555 396.99685503893755 L 309.9479603198483 397.00007773141783 L 309.879351674472 397.0313738576635 L 309.87220124136763 397.0347039437948 L 309.80417416930015 397.067040780172 L 309.79708992996274 397.0704769320081 L 309.7296546342446 397.10384427547643 L 309.72263776177294 397.1073851844639 L 309.6558044454447 397.1417728319829 L 309.6488560513837 397.1454172115779 L 309.5826349174858 397.18081496010694 L 309.5757560557295 397.1845615481024 L 309.5101573073025 397.2209591946011 L 309.5033489780838 397.22480675515703 L 309.4383828181681 397.2621940965848 L 309.43164597209415 397.2661414219768 L 309.3673226037304 397.30450825529306 L 309.36065814586453 397.3085541673691 L 309.2969877720932 397.34789028953355 L 309.2903965660589 397.35203364088824 L 309.2273893899204 397.3923288488602 L 309.2208722619998 397.3965685237364 L 309.15853848653467 397.43781261447543 L 309.1520962297691 397.4421475293841 L 309.09044605801796 397.4843302998497 L 309.08407943627435 397.48875940392713 L 309.02312307127755 397.53187065107875 L 309.0168328232731 397.5363929261826 L 308.95658046807125 397.5804224469798 L 308.95036731135366 397.5850369075231 L 308.89082916898724 397.6299744989253 L 308.88469380383793 397.63468019146836 L 308.82588007734745 397.68051565043515 L 308.81982319061575 397.68531165302926 L 308.76174408304166 397.73203477652004 L 308.7557663518831 397.73692019782 L 308.698432066266 397.7845207827943 L 308.6925341617867 397.7894947609377 L 308.63595490116705 397.8379626043551 L 308.63013749195545 397.84302430562263 L 308.5743234593737 397.8923492044425 L 308.56858721491056 397.897497821706 L 308.51354861340735 397.94766957288783 L 308.5078942073537 397.9529043238457 L 308.4536412399694 398.00391272434905 L 308.4480693533106 398.0092328495672 L 308.39461222308574 398.06106769635153 L 308.3891235471342 398.06647245710934 L 308.3364724571094 398.11912354713417 L 308.3310676963518 398.12461222308553 L 308.27923284956745 398.1780693533103 L 308.2739127243491 398.1836412399693 L 308.22290432384574 398.2378942073536 L 308.2176695728877 398.2435486134075 L 308.16749782170587 398.29858721491075 L 308.1623492044427 398.30432345937345 L 308.11302430562284 398.36013749195513 L 308.1079626043547 398.36595490116736 L 308.0594947609374 398.42253416178704 L 308.0545207827944 398.42843206626594 L 308.0069201978201 398.48576635188306 L 308.0020347765205 398.4917440830412 L 307.95531165302964 398.54982319061526 L 307.95051565043497 398.5558800773476 L 307.90468019146823 398.61469380383807 L 307.8999744989254 398.62082916898714 L 307.8550369075232 398.68036731135356 L 307.8504224469799 398.68658046807116 L 307.8063929261827 398.746832823273 L 307.801870651079 398.7531230712772 L 307.75875940392734 398.81407943627397 L 307.7543302998494 398.8204460580183 L 307.71214752938386 398.8820962297695 L 307.70781261447553 398.8885384865346 L 307.6665685237365 398.95087226199973 L 307.66232884886057 398.9573893899199 L 307.62203364088856 399.02039656605837 L 307.6178902895333 399.0269877720935 L 307.5785541673689 399.0906581458649 L 307.5745082552933 399.09732260373005 L 307.536141421977 399.1616459720938 L 307.53219409658493 399.1683828181679 L 307.4948067551572 399.23334897808354 L 307.490959194601 399.2401573073027 L 307.45456154810233 399.3057560557297 L 307.4508149601072 399.3126349174854 L 307.41541721157813 399.3788560513833 L 307.41177283198266 399.38580444544505 L 307.3773851844637 399.45263776177336 L 307.3738442754766 399.45965463424443 L 307.34047693200824 399.52708992996253 L 307.3370407801721 399.53417416930006 L 307.3047039437949 399.60220124136754 L 307.3013738576636 399.6093516744719 L 307.2700777314179 399.6779603198482 L 307.26685503893765 399.68517570825543 L 307.23660982586415 399.7543557239001 L 307.2334958714675 399.76163476008537 L 307.20431177460665 399.83137594295783 L 307.20130791601343 399.8387172467841 L 307.1731951384057 399.9090093938439 L 307.1703027431385 399.9164115091701 L 307.14327148782445 399.98724441737676 L 307.14049192944435 399.9947058088462 L 307.1145523994644 400.0660692751592 L 307.111887053527 400.0735883252049 L 307.08704945192176 400.1454721465837 L 307.0844996916705 400.15304715265546 L 307.0607742214804 400.2254411260595 L 307.05834141327955 400.2330702981129 L 307.0357382775451 400.30596422050183 L 307.03342377606873 400.313645678765 L 307.01195317783043 400.3870293470981 L 307.0097583210204 400.39476112014034 L 306.98943046331885 400.4686243313773 L 306.98735656712864 400.47640435450234 L 306.9681816530042 400.55073690560255 L 306.96623000594434 400.5585630195991 L 306.9482182384376 400.6333547075221 L 306.94639009594846 400.64122465777314 L 306.9295516781 400.7164652794784 L 306.92784825676955 400.72437671547095 L 306.9121933916197 400.800056067918 L 306.9106158632744 400.80800654316334 L 306.8961547538638 400.88411442331164 L 306.89470423955913 400.8921013956892 L 306.88144708892827 400.9686276004982 L 306.8801246528677 400.97664843304983 L 306.86808166405706 401.0535827594791 L 306.86688830747096 401.0616347216599 L 306.856069683521 401.13896696666893 L 306.85500633853826 401.1470472360686 L 306.84542228248955 401.2247671966168 L 306.84448980603656 401.23287286115976 L 306.8361505209296 401.31097033420673 L 306.83534968869265 401.3190983948372 L 306.8282653775679 401.3975631773424 L 306.8275968780553 401.4057105511993 L 306.82177774395336 401.4845324401222 L 306.8212421726966 401.4926959641974 L 306.81669841865795 401.5718647564975 L 306.81629627258866 401.5800411917803 L 306.8130381016537 401.65954668441714 L 306.8127697736965 401.66773272051614 L 306.81080738890586 401.7475647104491 L 306.81067316282497 401.7557569706729 L 306.81001676721905 401.8359052548616 L 306.81020130228114 401.83590676616035 L 306.81 401.84000000000003 L 306.81 410.98795251723755 L 306.80965649928316 411.0298936464342 L 306.80868053225396 411.06959200815066 L 306.80706133069 411.10909517350893 L 306.8048048016232 411.1484005465279 L 306.8019167415748 411.1875054663749 L 306.7984028416205 411.2264072021055 L 306.7942686927177 411.26510294792627 L 306.78951979126316 411.3035898188886 L 306.7841615448388 411.3418648470687 L 306.77819927810566 411.37992497825275 L 306.77163823881205 411.4177670690901 L 306.76448360387536 411.4553878847424 L 306.7567404855053 411.4927840969937 L 306.7484139373227 411.52995228288137 L 306.7395089604594 411.5668889237267 L 306.7300305095871 411.6035904046631 L 306.71998349885934 411.64005301457945 L 306.7093728077323 411.67627294648065 L 306.6982032866387 411.7122462982573 L 306.6864797624971 411.7479690738159 L 306.6742070440262 411.7834371845797 L 306.6613899268541 411.8186464513114 L 306.64803319839046 411.8535926062742 L 306.63414164247894 411.88827129562134 L 306.61972004376264 411.9226780821344 L 306.60477319181814 411.95680844811494 L 306.5893058849981 411.99065779853663 L 306.57332293398395 412.0242214644072 L 306.5568291650817 412.057494706236 L 306.5398294231971 412.0904727177139 L 306.52232857454226 412.12315062946846 L 306.5043315090266 412.15552351296765 L 306.48584314238866 412.1875863844432 L 306.46686841800323 412.21933420894044 L 306.4474123084179 412.2507619043782 L 306.42747981661313 412.28186434562355 L 306.4070759769497 412.3126363686267 L 306.38620585589797 412.3430727744586 L 306.3648745524225 412.3731683334401 L 306.34308719817284 412.40291778912837 L 306.3208489573712 412.43231586231957 L 306.298165026472 412.4613572549544 L 306.2750406335624 412.4900366539681 L 306.25148103753054 412.518348735045 L 306.22749152701977 412.5462881662566 L 306.20307741913325 412.5738496116238 L 306.1782440579309 412.6010277345494 L 306.15299681274115 412.62781720109916 L 306.12734107623453 412.6542126831881 L 306.1012822623407 412.68020886158166 L 306.07482580395333 412.705800428773 L 306.0479771504656 412.7309820916899 L 306.02074176514833 412.7557485742211 L 305.99312512234627 412.78009461958544 L 305.9651327045369 412.8040149925017 L 305.93676999922536 412.8275044811836 L 305.9080424957371 412.85055789910683 L 305.8789556818322 412.87317008661256 L 305.8495150402466 412.89533591226063 L 305.8197260450995 412.91705027398234 L 305.7895941582134 412.9383080999984 L 305.75912482532993 412.9591043495138 L 305.7283234722627 412.9794340131627 L 305.697195500996 412.99929211319886 L 305.6657462856779 413.0186737034671 L 305.63398116864334 413.0375738690708 L 305.6019054563588 413.0559877258076 L 305.5695244153784 413.0739104193207 L 305.5368432682969 413.0913371239797 L 305.50386718972135 413.10826304148316 L 305.47060130228954 413.1246833991745 L 305.43705067271225 413.14059344808754 L 305.40322030795284 413.1559884606754 L 305.369115151428 413.1708637282864 L 305.33474007936053 413.18521455833474 L 305.30009989727466 413.199036271183 L 305.26519933662144 413.21232419675397 L 305.23004305159975 413.22507367085757 L 305.1946356161902 413.2372800312425 L 305.158981521369 413.24893861340064 L 305.1230851726403 413.26004474609243 L 305.0869508877753 413.2705937466529 L 305.0505828948849 413.28058091605584 L 305.0139853307835 413.29000153377297 L 304.97716223973237 413.2988508524275 L 304.940117572493 413.30712409228624 L 304.9028551858187 413.31481643558453 L 304.86537884228096 413.3219230207379 L 304.82769221059164 413.3284389364355 L 304.7897988662929 413.334359215672 L 304.7517022929378 413.33967882972973 L 304.71340588371083 413.3443926821504 L 304.67491294351726 413.34849560273045 L 304.63622669158855 413.35198234156786 L 304.59735026447316 413.35484756321233 L 304.5582867196464 413.35708584093226 L 304.5190390394298 413.358691651163 L 304.4796101355356 413.3596593681502 L 304.43795564562186 413.36 L 302.71999999999997 413.36 L 302.71999999999997 387.73 L 302.7199832468677 387.72590697524845 L 302.71917114668 387.6267049148526 L 302.719037030522 387.6185159801187 L 302.7166091397378 387.519706087498 L 302.7163410239845 387.511523211408 L 302.71230995727205 387.4131181012306 L 302.7119081174511 387.40494465628717 L 302.7062864894787 387.3069569432214 L 302.705751310116 387.2987962362572 L 302.6985517355519 387.2012385349713 L 302.6978837050605 387.19309380206846 L 302.6891187985729 387.0959787272307 L 302.68831850388744 387.0878531291027 L 302.6780008801447 386.9911932953814 L 302.6770690011395 386.9830899132217 L 302.66521127480974 386.886897935285 L 302.66414857853965 386.87881976710423 L 302.65076336429127 386.78310825962046 L 302.6495706990925 386.775058217059 L 302.6346706115937 386.67983979469636 L 302.6333489010838 386.6718207003294 L 302.61694655500287 386.5771079777563 L 302.61549679201505 386.5691225628772 L 302.5976048020202 386.47492815476176 L 302.5960280425091 386.4669790576425 L 302.57665902326863 386.37331557865303 L 302.57495638022124 386.3654053432743 L 302.5541229464034 386.2722854080791 L 302.552295583788 386.26441648331576 L 302.5300103500611 386.171852706583 L 302.52805947684556 386.1640274458333 L 302.50433505787777 386.0720324422313 L 302.5022619221465 386.0642531034753 L 302.4771109326062 385.97283948767233 L 302.4749168158012 385.9651082339354 L 302.44835187035653 385.8742886205997 L 302.44603808167136 385.8666075208142 L 302.4180717949906 385.7763945246141 L 302.41563966593554 385.7687655548448 L 302.38628465268704 385.67917179044844 L 302.38373553184925 385.67159683546845 L 302.35300440670125 385.58263491754417 L 302.3503396547177 385.5751157727382 L 302.31824503233844 385.4867983159542 L 302.3154660170974 385.4793366895226 L 302.28202051215504 385.3916763085473 L 302.2791286042415 385.38427382399334 L 302.24434483140453 385.29728313349483 L 302.24134139979867 385.289941332359 L 302.2052319737351 385.2036329470056 L 302.20211838177977 385.196353291844 L 302.16469591715804 385.110739826304 L 302.1614735187962 385.1035237038633 L 302.1227506302845 385.01861777280493 L 302.1194207665798 385.0114664973908 L 302.07941006884647 384.92728071548237 L 302.07597406478686 384.9201955324846 L 302.03468817250007 384.8367425143943 L 302.03114733409086 384.8297246039558 L 301.9885988619189 384.74701696435193 L 301.98495447356527 384.7400674451535 L 301.9411560361764 384.6581177987043 L 301.93740935835694 384.651237731848 L 301.8923735704194 384.57005869322177 L 301.88852583764873 384.56324908619087 L 301.8422653138308 384.48285327005584 L 301.8383177329116 384.4761150807339 L 301.79084508788156 384.3965151017584 L 301.78679883644094 384.38984924248723 L 301.73812668486704 384.3110577153394 L 301.7339829101753 384.304465056999 L 301.6841238667258 384.22649459634715 L 301.6798836847931 384.2199759724415 L 301.62885036413627 384.14283919295394 L 301.62451485908184 384.1363954036869 L 301.5723198758859 384.06010492003185 L 301.5678900995755 384.0537367363572 L 301.5145460685088 383.97830516320295 L 301.5100230404515 383.9720133308336 L 301.4555425761822 383.8974532828484 L 301.4509272836867 383.89123852621714 L 301.39532300088314 383.81756261806925 L 301.39061639945965 383.81142564421975 L 301.3339009127901 383.73864649057737 L 301.3291039267941 383.73258799297815 L 301.27128985092673 383.6607182085097 L 301.2664033744443 383.6547388707864 L 301.2075033240475 383.58379107016 L 301.202528221999 383.5778915697166 L 301.1425548117409 383.50787836760054 L 301.1374919212159 383.50205937914376 L 301.0764577657648 383.4329933902063 L 301.071307897565 383.427255589143 L 301.0092256115893 383.35914942805243 L 301.0039895519803 383.3534934937614 L 300.94087175014806 383.286359775186 L 300.935550262811 383.2807863941545 L 300.87140955979055 383.2146377327625 L 300.8660033879654 383.2091476015753 L 300.8008523984251 383.1439966120349 L 300.7953622672375 383.13859044020944 L 300.72921360584553 383.074449737189 L 300.72364022481406 383.06912824985193 L 300.65650650623866 383.0060104480197 L 300.6508505719476 383.0007743884107 L 300.58274441085706 382.93869210243497 L 300.5770066097937 382.9335422342352 L 300.5079406208563 382.8725080787841 L 300.5021216323995 382.86744518825907 L 300.43210843028345 382.807471778001 L 300.4262089298401 382.8024966759525 L 300.35526112921366 382.7435966255557 L 300.34928179149034 382.73871014907326 L 300.2774120070219 382.6808960732059 L 300.2713535094228 382.67609908721005 L 300.19857435578047 382.6193836005405 L 300.19243738193086 382.61467699911685 L 300.11876147378297 382.55907271631327 L 300.1125467171516 382.55445742381767 L 300.03798666916634 382.4999769595484 L 300.03169483679744 382.4954539314914 L 299.9562632636432 382.44210990042467 L 299.94989507996803 382.43768012411385 L 299.873604596313 382.385485140918 L 299.86716080704616 382.3811496358637 L 299.7900240275586 382.3301163152069 L 299.7835054036532 382.3258761332743 L 299.70553494300134 382.27601708982473 L 299.6989422846607 382.2718733151329 L 299.6201507575129 382.223201163559 L 299.6134848982417 382.21915491211837 L 299.5338849192662 382.17168226708833 L 299.52714672994426 382.1677346861691 L 299.44675091380924 382.1214741623512 L 299.43994130677834 382.1176264295805 L 299.3587622681521 382.072590641643 L 299.3518822012958 382.06884396382355 L 299.2699325548466 382.02504552643467 L 299.2629830356482 382.02140113808105 L 299.1802753960443 381.9788526659091 L 299.1732574856059 381.9753118274999 L 299.08980446751565 381.9340259352131 L 299.08271928451796 381.9305899311535 L 298.99853350260946 381.8905792334201 L 298.9913822271949 381.8872493697153 L 298.90647629613653 381.84852648120363 L 298.89926017369646 381.845304082842 L 298.8136467081565 381.8078816182202 L 298.8063670529943 381.80476802626464 L 298.7200586676409 381.76865860020115 L 298.71271686650556 381.76565516859546 L 298.62572617600705 381.7308713957584 L 298.61832369145253 381.7279794878447 L 298.53066331047717 381.69453398290244 L 298.5232016840463 381.6917549676616 L 298.4348842272624 381.6596603452823 L 298.427365082456 381.65699559329863 L 298.3384031645317 381.6262644681506 L 298.3308282095517 381.62371534731284 L 298.2412344451554 381.59436033406433 L 298.2336054753858 381.5919282050092 L 298.14339247918565 381.5639619183285 L 298.13571137940073 381.56164812964346 L 298.04489176606506 381.53508318419875 L 298.03716051232794 381.53288906739374 L 297.945746896525 381.50773807785345 L 297.9379675577689 381.5056649421221 L 297.8459725541669 381.4819405231543 L 297.8381472934172 381.4799896499388 L 297.74558351668446 381.45770441621187 L 297.7377145919214 381.45587705359657 L 297.6445946567262 381.4350436197787 L 297.6366844213472 381.4333409767312 L 297.5430209423577 381.41397195749073 L 297.53507184523846 381.4123951979796 L 297.440877437123 381.39450320798477 L 297.4328920222439 381.39305344499695 L 297.3381792996708 381.376651098916 L 297.33016020530386 381.3753293884061 L 297.23494178294123 381.3604293009073 L 297.22689174037976 381.35923663570856 L 297.131180232896 381.34585142146017 L 297.12310206471494 381.3447887251901 L 297.0269100867783 381.3329309988604 L 297.0188067046192 381.3319991198552 L 296.9221468708978 381.3216814961124 L 296.9140212727692 381.3208812014269 L 296.8169061979315 381.31211629493936 L 296.8087614650292 381.31144826444796 L 296.7112037637433 381.3042486898838 L 296.7030430567788 381.3037135105211 L 296.6050553437131 381.2980918825487 L 296.59688189876965 381.29769004272777 L 296.49847678859226 381.2936589760153 L 296.4902939125023 381.29339086026204 L 296.39148401988155 381.29096296947785 L 296.3832950851476 381.2908288533198 L 296.2840930247518 381.29001675313214 L 296.27590697524784 381.29001675313214 L 296.1767049148517 381.29082885331997 L 296.1685159801186 381.290962969478 L 296.06970608749793 381.2933908602622 L 296.061523211408 381.2936589760155 L 295.9631181012306 381.29769004272794 L 295.9549446562871 381.2980918825489 L 295.85695694322135 381.3037135105213 L 295.84879623625716 381.304248689884 L 295.75123853497126 381.3114482644481 L 295.7430938020684 381.31211629493947 L 295.64597872723067 381.3208812014271 L 295.63785312910267 381.32168149611255 L 295.54119329538133 381.3319991198553 L 295.53308991322166 381.3329309988605 L 295.43689793528495 381.34478872519026 L 295.4288197671042 381.34585142146034 L 295.3331082596204 381.3592366357087 L 295.32505821705894 381.36042930090747 L 295.2298397946963 381.37532938840627 L 295.2218207003294 381.37665109891617 L 295.1271079777563 381.3930534449971 L 295.1191225628772 381.39450320798494 L 295.0249281547617 381.4123951979798 L 295.01697905764246 381.4139719574909 L 294.923315578653 381.43334097673136 L 294.91540534327424 381.43504361977875 L 294.82228540807904 381.45587705359657 L 294.8144164833157 381.457704416212 L 294.721852706583 381.4799896499389 L 294.71402744583327 381.48194052315444 L 294.6220324422313 381.5056649421222 L 294.6142531034753 381.5077380778535 L 294.5228394876723 381.5328890673938 L 294.51510823393505 381.53508318419887 L 294.4242886205994 381.5616481296436 L 294.41660752081447 381.56396191832863 L 294.32639452461433 381.5919282050093 L 294.31876555484473 381.59436033406445 L 294.2291717904484 381.62371534731295 L 294.2215968354684 381.62626446815074 L 294.1326349175441 381.65699559329875 L 294.12511577273784 381.65966034528236 L 294.0367983159539 381.69175496766167 L 294.02933668952284 381.69453398290256 L 293.9416763085475 381.72797948784483 L 293.93427382399307 381.7308713957585 L 293.84728313349456 381.7656551685956 L 293.8399413323592 381.76865860020126 L 293.7536329470058 381.80476802626475 L 293.74635329184395 381.8078816182202 L 293.66073982630394 381.84530408284195 L 293.65352370386324 381.8485264812038 L 293.5686177728049 381.8872493697155 L 293.56146649739077 381.89057923342017 L 293.4772807154823 381.9305899311535 L 293.47019553248435 381.93402593521324 L 293.38674251439403 381.9753118275001 L 293.37972460395576 381.9788526659092 L 293.2970169643519 382.02140113808116 L 293.29006744515345 382.0250455264348 L 293.2081177987043 382.06884396382367 L 293.201237731848 382.0725906416431 L 293.1200586932217 382.11762642958064 L 293.1132490861908 382.1214741623513 L 293.0328532700558 382.16773468616924 L 293.02611508073386 382.17168226708844 L 292.94651510175834 382.2191549121185 L 292.9398492424872 382.2232011635591 L 292.86105771533937 382.271873315133 L 292.85446505699895 382.27601708982473 L 292.7764945963471 382.3258761332742 L 292.76997597244144 382.33011631520696 L 292.6928391929539 382.3811496358638 L 292.6863954036871 382.38548514091804 L 292.61010492003203 382.4376801241139 L 292.603736736357 382.44210990042467 L 292.52830516320273 382.4954539314914 L 292.52201333083354 382.4999769595486 L 292.44745328284836 382.55445742381784 L 292.44123852621726 382.5590727163132 L 292.36756261806937 382.61467699911674 L 292.36142564421954 382.6193836005405 L 292.28864649057715 382.6760990872101 L 292.2825879929783 382.6808960732058 L 292.21071820850983 382.73871014907314 L 292.2047388707862 382.7435966255558 L 292.13379107015976 382.8024966759527 L 292.12789156971655 382.80747177800106 L 292.0578783676005 382.8674451882591 L 292.0520593791437 382.87250807878416 L 291.9829933902063 382.93354223423523 L 291.97725558914294 382.938692102435 L 291.9091494280524 383.0007743884108 L 291.90349349376135 383.00601044801977 L 291.83635977518594 383.069128249852 L 291.8307863941545 383.07444973718907 L 291.7646377327625 383.1385904402095 L 291.75914760157525 383.14399661203464 L 291.6939966120349 383.20914760157495 L 291.6885904402094 383.2146377327625 L 291.62444973718897 383.2807863941545 L 291.6191282498519 383.286359775186 L 291.55601044801966 383.3534934937614 L 291.5507743884107 383.35914942805243 L 291.4886921024349 383.427255589143 L 291.48354223423513 383.4329933902063 L 291.42250807878406 383.50205937914376 L 291.417445188259 383.50787836760054 L 291.35747177800096 383.5778915697166 L 291.35249667595247 383.58379107016 L 291.29359662555567 383.6547388707864 L 291.2887101490731 383.6607182085098 L 291.2308960732057 383.7325879929783 L 291.22609908721 383.7386464905773 L 291.16938360054047 383.81142564421964 L 291.1646769991168 383.81756261806925 L 291.1090727163132 383.89123852621714 L 291.10445742381773 383.8974532828484 L 291.0499769595485 383.9720133308336 L 291.0454539314913 383.9783051632028 L 290.99210990042457 384.05373673635705 L 290.9876801241138 384.0601049200321 L 290.93548514091793 384.1363954036871 L 290.9311496358637 384.14283919295394 L 290.88011631520686 384.2199759724415 L 290.87587613327423 384.2264945963469 L 290.8260170898247 384.30446505699877 L 290.82187331513285 384.3110577153394 L 290.77320116355895 384.38984924248723 L 290.7691549121183 384.3965151017584 L 290.7216822670883 384.4761150807339 L 290.7177346861691 384.48285327005584 L 290.67147416235116 384.56324908619087 L 290.6676264295805 384.57005869322177 L 290.62259064164294 384.651237731848 L 290.6188439638235 384.6581177987043 L 290.5750455264346 384.7400674451535 L 290.571401138081 384.74701696435193 L 290.528852665909 384.8297246039558 L 290.5253118274999 384.8367425143942 L 290.4840259352131 384.92019553248446 L 290.4805899311535 384.92728071548214 L 290.44057923342007 385.01146649739064 L 290.43724936971523 385.0186177728052 L 290.3985264812036 385.1035237038636 L 290.39530408284196 385.11073982630376 L 290.3578816182202 385.19635329184376 L 290.3547680262646 385.2036329470059 L 290.3186586002011 385.28994133235926 L 290.31565516859547 385.2972831334945 L 290.2808713957584 385.38427382399294 L 290.2779794878447 385.3916763085476 L 290.2445339829024 385.47933668952294 L 290.2417549676615 385.48679831595393 L 290.2096603452822 385.5751157727379 L 290.20699559329864 385.58263491754406 L 290.17626446815063 385.6715968354683 L 290.1737153473128 385.6791717904484 L 290.1443603340643 385.7687655548447 L 290.14192820500915 385.7763945246143 L 290.11396191832847 385.86660752081445 L 290.1116481296434 385.87428862059943 L 290.0850831841987 385.96510823393515 L 290.0828890673937 385.9728394876722 L 290.0577380778534 386.06425310347515 L 290.05566494212206 386.07203244223126 L 290.0319405231543 386.16402744583326 L 290.0299896499387 386.17185270658297 L 290.0077044162118 386.2644164833157 L 290.0058770535965 386.27228540807874 L 289.98504361977865 386.36540534327395 L 289.98334097673114 386.373315578653 L 289.9639719574907 386.46697905764245 L 289.96239519797956 386.4749281547617 L 289.9445032079847 386.56912256287717 L 289.9430534449969 386.5771079777563 L 289.92665109891595 386.6718207003295 L 289.92532938840606 386.6798397946963 L 289.91042930090725 386.77505821705887 L 289.9092366357085 386.7831082596204 L 289.8958514214601 386.8788197671042 L 289.89478872519004 386.8868979352852 L 289.88293099886033 386.98308991322193 L 289.8819991198552 386.99119329538104 L 289.8716814961124 387.08785312910237 L 289.87088120142687 387.09597872723094 L 289.8621162949393 387.1930938020687 L 289.8614482644479 387.20123853497097 L 289.8542486898838 387.29879623625686 L 289.85371351052106 387.30695694322134 L 289.84809188254866 387.4049446562871 L 289.8476900427277 387.41311810123057 L 289.84365897601526 387.51152321140796 L 289.843390860262 387.5197060874979 L 289.8409629694778 387.6185159801186 L 289.84082885331975 387.62670491485255 L 289.8400167531321 387.7259069752484 L 289.8399999999998 387.7300000000004 L 289.84 387.9103030303035 L 289.84 405.08000000000004 L 288.58204748276245 405.08000000000004 L 288.5401063535658 405.0796564992832 L 288.50040799184933 405.078680532254 L 288.46090482649106 405.07706133069 L 288.4215994534721 405.07480480162326 L 288.3824945336251 405.07191674157485 L 288.3435927978945 405.0684028416205 L 288.3048970520737 405.06426869271775 L 288.2664101811114 405.0595197912632 L 288.2281351529313 405.05416154483885 L 288.19007502174725 405.0481992781057 L 288.1522329309099 405.0416382388121 L 288.11461211526046 405.0344836038759 L 288.07721590300287 405.02674048550466 L 288.0400477171178 405.01841393732263 L 288.00311107627584 405.00950896046004 L 287.9664095953347 405.0000305095866 L 287.9299469854216 404.9899834988597 L 287.89372705351934 404.9793728077323 L 287.8577537017415 404.96820328663836 L 287.8220309261833 404.95647976249694 L 287.78656281542226 404.944207044027 L 287.7513535486886 404.93138992685414 L 287.7164073937258 404.9180331983905 L 287.68172870437905 404.90414164247915 L 287.64732191786464 404.88972004376234 L 287.6131915518857 404.8747731918185 L 287.5793422014633 404.8593058849981 L 287.5457785355912 404.84332293398325 L 287.5125052937628 404.8268291650812 L 287.4795272822906 404.8098294231995 L 287.4468493705293 404.7923285745411 L 287.41447648703235 404.7743315090267 L 287.3824136155568 404.75584314238876 L 287.35066579105955 404.7368684180033 L 287.3192380956218 404.717412308418 L 287.28813565437645 404.6974798166132 L 287.25736363137327 404.6770759769498 L 287.2269272255414 404.65620585589807 L 287.1968316665599 404.6348745524226 L 287.1670822108707 404.6130871981723 L 287.1376841376809 404.59084895737175 L 287.10864274504723 404.5681650264735 L 287.07996334603064 404.5450406335615 L 287.0516512649545 404.52148103753024 L 287.0237118337462 404.49749152702236 L 286.9961503883748 404.47307741913204 L 286.9689722654494 404.4482440579299 L 286.94218279890083 404.4229968127413 L 286.9157873168119 404.3973410762347 L 286.88979113841833 404.37128226234086 L 286.864199571227 404.3448258039535 L 286.83901790830913 404.3179771504647 L 286.81425142577956 404.2907417651493 L 286.78990538041455 404.2631251223465 L 286.7659850074985 404.23513270453736 L 286.7424955188178 404.2067699992273 L 286.7194421008916 404.1780424957353 L 286.69682991338743 404.14895568183243 L 286.67466408773936 404.1195150402468 L 286.65294972601765 404.0897260450997 L 286.6316919000016 404.0595941582136 L 286.6108956504849 404.02912482532827 L 286.5905659868381 403.99832347226425 L 286.5707078868016 403.96719550099687 L 286.55132629653286 403.935746285678 L 286.53242613092897 403.90398116864316 L 286.5140122741914 403.8719054563573 L 286.4960895806799 403.83952441537986 L 286.47866287602073 403.806843268298 L 286.46173695851684 403.7738671897216 L 286.44531660082527 403.7406013022894 L 286.4294065519114 403.70705067271047 L 286.4140115393257 403.67322030795566 L 286.3991362717136 403.63911515142826 L 286.3847854416647 403.60474007935943 L 286.3709637288174 403.5700998972761 L 286.357675803246 403.53519933662176 L 286.3449263291424 403.5000430516001 L 286.3327199687575 403.46463561619055 L 286.32106138659924 403.42898152136905 L 286.30995525390773 403.3930851726413 L 286.29940625334774 403.3569508877779 L 286.2894190839437 403.3205828948833 L 286.27999846622686 403.28398533078314 L 286.2711491475722 403.24716223973155 L 286.262875907714 403.2101175724945 L 286.25518356441546 403.17285518581906 L 286.24807697926207 403.13537884228134 L 286.24156106356463 403.09769221059247 L 286.2356407843283 403.05979886629575 L 286.23032117027 403.0217022929357 L 286.22560731784955 402.98340588371076 L 286.22150439726954 402.9449129435177 L 286.2180176584318 402.9062266915855 L 286.21515243678783 402.8673502644769 L 286.21291415906774 402.82828671964705 L 286.211308348837 402.78903903943024 L 286.2103406318498 402.7496101355361 L 286.21 402.70795564562235 L 286.21 393.56000000000006 L 286.2099832327811 393.5559052548617 L 286.2093268371752 393.47575697067305 L 286.2091926110943 393.46756471044927 L 286.20723022630364 393.3877327205163 L 286.20696189834644 393.3795466844173 L 286.2037037274115 393.30004119178045 L 286.2033015813422 393.2918647564973 L 286.1987578273035 393.2126959641972 L 286.19822225604673 393.20453244012236 L 286.1924031219448 393.12571055119946 L 286.19173462243225 393.1175631773429 L 286.18465031130756 393.0390983948377 L 286.18384947907055 393.03097033420687 L 286.1755101939636 392.9528728611599 L 286.1745777175106 392.94476719661697 L 286.1649936614619 392.86704723606874 L 286.16393031647914 392.8589669666691 L 286.1531116925292 392.78163472166005 L 286.1519183359431 392.77358275947927 L 286.13987534713243 392.69664843305 L 286.1385529110718 392.688627600498 L 286.1252957604409 392.612101395689 L 286.1238452461363 392.6041144233118 L 286.1093841367257 392.5280065431635 L 286.10780660838043 392.5200560679185 L 286.09215174323066 392.4443767154715 L 286.0904483219001 392.4364652794782 L 286.0736099040516 392.36122465777294 L 286.0717817615625 392.3533547075222 L 286.05376999405576 392.27856301959923 L 286.05181834699596 392.27073690560303 L 286.03264343287157 392.1964043545028 L 286.03056953668124 392.1886243313771 L 286.01024167897964 392.11476112014014 L 286.00804682216966 392.10702934709826 L 285.98657622393137 392.03364567876514 L 285.98426172245513 392.0259642205023 L 285.9616585867207 391.9530702981134 L 285.9592257785197 391.9454411260594 L 285.93550030832955 391.8730471526553 L 285.93295054807834 391.8654721465838 L 285.90811294647307 391.793588325205 L 285.9054476005357 391.78606927515926 L 285.87950807055574 391.7147058088463 L 285.8767285121756 391.7072444173767 L 285.84969725686153 391.6364115091701 L 285.8468048615944 391.62900939384406 L 285.81869208398666 391.5587172467842 L 285.81568822539344 391.551375942958 L 285.7865041285326 391.4816347600855 L 285.78339017413595 391.47435572390026 L 285.75314496106245 391.40517570825557 L 285.74992226858217 391.3979603198483 L 285.7186261423365 391.32935167447204 L 285.7152960562052 391.3222012413677 L 285.682959219828 391.2541741693002 L 285.6795230679919 391.2470899299628 L 285.64615572452357 391.1796546342446 L 285.6426148155361 391.172637761773 L 285.6082271680171 391.10580444544473 L 285.6045827884221 391.09885605138373 L 285.56918503989306 391.03263491748584 L 285.5654384518976 391.0257560557296 L 285.5290408053989 390.96015730730255 L 285.52519324484297 390.95334897808385 L 285.4878059034152 390.88838281816817 L 285.4838585780232 390.8816459720942 L 285.44549174470694 390.8173226037304 L 285.4414458326309 390.8106581458646 L 285.40210971046645 390.74698777209323 L 285.39796635911176 390.74039656605896 L 285.3576711511398 390.67738938992045 L 285.3534314762636 390.6708722619998 L 285.31218738552457 390.6085384865347 L 285.3078524706159 390.60209622976913 L 285.2656697001503 390.540446058018 L 285.26124059607287 390.5340794362744 L 285.21812934892125 390.4731230712776 L 285.2136070738174 390.46683282327314 L 285.1695775530202 390.4065804680713 L 285.1649630924769 390.4003673113537 L 285.1200255010747 390.3408291689873 L 285.11531980853164 390.334693803838 L 285.06948434956485 390.2758800773475 L 285.06468834697074 390.2698231906158 L 285.01796522347996 390.2117440830417 L 285.01307980218 390.20576635188314 L 284.9654792172057 390.148432066266 L 284.9605052390623 390.1425341617867 L 284.9120373956449 390.0859549011671 L 284.90697569437737 390.0801374919555 L 284.8576507955575 390.02432345937376 L 284.852502178294 390.0185872149106 L 284.80233042711217 389.9635486134074 L 284.7970956761543 389.9578942073537 L 284.74608727565095 389.90364123996943 L 284.7407671504328 389.89806935331063 L 284.68893230364847 389.8446122230858 L 284.68352754289066 389.83912354713425 L 284.63087645286583 389.7864724571094 L 284.62538777691447 389.78106769635184 L 284.5719306466897 389.7292328495675 L 284.5663587600307 389.72391272434913 L 284.5121057926464 389.6729043238458 L 284.5064513865925 389.66766957288775 L 284.45141278508925 389.6174978217059 L 284.44567654062655 389.61234920444275 L 284.38986250804487 389.5630243056229 L 284.38404509883264 389.55796260435477 L 284.32746583821296 389.50949476093746 L 284.32156793373406 389.50452078279443 L 284.26423364811694 389.4569201978201 L 284.2582559169588 389.4520347765205 L 284.20017680938474 389.4053116530297 L 284.1941199226524 389.400515650435 L 284.13530619616193 389.3546801914683 L 284.12917083101286 389.34997449892546 L 284.06963268864644 389.30503690752323 L 284.06341953192884 389.30042244697995 L 284.003167176727 389.25639292618274 L 283.9968769287228 389.25187065107906 L 283.93592056372603 389.2087594039274 L 283.9295539419817 389.20433029984946 L 283.8679037702305 389.1621475293839 L 283.8614615134654 389.1578126144756 L 283.79912773800027 389.11656852373653 L 283.7926106100801 389.1123288488606 L 283.72960343394163 389.0720336408886 L 283.7230122279065 389.06789028953335 L 283.6593418541351 389.02855416736895 L 283.65267739626995 389.02450825529337 L 283.5883540279062 388.98614142197704 L 283.5816171818321 388.982194096585 L 283.51665102191646 388.94480675515723 L 283.5098426926973 388.940959194601 L 283.4442439442703 388.9045615481024 L 283.4373650825146 388.90081496010725 L 283.3711439486167 388.8654172115782 L 283.36419555455495 388.8617728319827 L 283.29736223822664 388.82738518446376 L 283.29034536575557 388.82384427547663 L 283.22291007003747 388.7904769320083 L 283.21582583069994 388.78704078017216 L 283.14779875863246 388.75470394379494 L 283.1406483255281 388.7513738576636 L 283.0720396801518 388.720077731418 L 283.06482429174457 388.7168550389377 L 282.9956442760999 388.6866098258642 L 282.98836523991463 388.6834958714675 L 282.91862405704217 388.6543117746067 L 282.9112827532159 388.6513079160135 L 282.8409906061561 388.6231951384057 L 282.8335884908299 388.62030274313855 L 282.76275558262324 388.5932714878245 L 282.7552941911538 388.5904919294444 L 282.6839307248408 388.56455239946445 L 282.6764116747951 388.5618870535271 L 282.6045278534163 388.5370494519218 L 282.59695284734454 388.53449969167053 L 282.5245588739405 388.51077422148046 L 282.5169297018871 388.5083414132796 L 282.44403577949817 388.4857382775451 L 282.436354321235 388.4834237760688 L 282.3629706529019 388.4619531778305 L 282.35523887985966 388.45975832102044 L 282.2813756686227 388.4394304633189 L 282.27359564549766 388.4373565671287 L 282.19926309439745 388.41818165300424 L 282.1914369804009 388.4162300059444 L 282.1166452924779 388.39821823843766 L 282.10877534222686 388.3963900959485 L 282.0335347205216 388.37955167810003 L 282.02562328452905 388.3778482567696 L 281.949943932082 388.36219339161977 L 281.94199345683666 388.36061586327446 L 281.86588557668836 388.34615475386386 L 281.8578986043108 388.3447042395592 L 281.7813723995018 388.3314470889283 L 281.77335156695017 388.33012465286777 L 281.6964172405209 388.3180816640571 L 281.6883652783401 388.316888307471 L 281.61103303333107 388.30606968352106 L 281.6029527639314 388.3050063385383 L 281.5252328033832 388.2954222824896 L 281.51712713884024 388.2944898060366 L 281.43902966579327 388.28615052092965 L 281.4309016051628 388.2853496886927 L 281.3524368226576 388.27826537756795 L 281.3442894488007 388.27759687805536 L 281.2654675598778 388.2717777439534 L 281.2573040358026 388.27124217269665 L 281.1781352435025 388.266698418658 L 281.1699588082197 388.2662962725887 L 281.09045331558286 388.26303810165376 L 281.08226727948386 388.26276977369656 L 281.0024352895509 388.2608073889059 L 280.9942430293271 388.260673162825 L 280.9140947451384 388.2600167672191 L 280.9140919705087 388.26035555957094 L 280.90590525486164 388.26001676721893 L 280.82575697067296 388.26067316282484 L 280.8175647104492 388.26080738890573 L 280.7377327205162 388.2627697736964 L 280.7295466844172 388.2630381016536 L 280.65004119178036 388.26629627258853 L 280.6418647564972 388.2666984186578 L 280.56269596419713 388.27124217269653 L 280.5545324401223 388.2717777439533 L 280.47571055119937 388.27759687805525 L 280.4675631773428 388.2782653775678 L 280.3890983948376 388.28534968869246 L 280.3809703342068 388.2861505209295 L 280.3028728611598 388.29448980603644 L 280.29476719661693 388.2954222824894 L 280.21704723606865 388.30500633853813 L 280.20896696666887 388.3060696835209 L 280.1316347216599 388.31688830747083 L 280.1235827594792 388.31808166405693 L 280.0466484330499 388.3301246528676 L 280.038627600498 388.3314470889282 L 279.96210139568893 388.3447042395591 L 279.9541144233116 388.34615475386374 L 279.87800654316334 388.36061586327435 L 279.8700560679184 388.3621933916196 L 279.7943767154714 388.37784825676937 L 279.78646527947814 388.3795516780999 L 279.71122465777285 388.39639009594845 L 279.7033547075221 388.39821823843755 L 279.62856301959914 388.41623000594427 L 279.62073690560305 388.41818165300407 L 279.5464043545028 388.43735656712846 L 279.5386243313769 388.43943046331884 L 279.46476112014 388.45975832102044 L 279.4570293470983 388.4619531778303 L 279.3836456787651 388.4834237760686 L 279.3759642205021 388.48573827754495 L 279.30307029811325 388.50834141327937 L 279.2954411260593 388.51077422148035 L 279.2230471526552 388.5344996916705 L 279.2154721465837 388.5370494519217 L 279.1435883252049 388.56188705352696 L 279.1360692751592 388.56455239946433 L 279.0647058088462 388.5904919294443 L 279.05724441737664 388.59327148782444 L 278.98641150917 388.6203027431385 L 278.97900939384397 388.6231951384056 L 278.90871724678414 388.65130791601337 L 278.901375942958 388.6543117746065 L 278.8316347600855 388.68349587146736 L 278.82435572389994 388.68660982586414 L 278.7551757082553 388.71685503893764 L 278.7479603198484 388.7200777314178 L 278.67935167447206 388.75137385766345 L 278.67220124136753 388.7547039437948 L 278.60417416930005 388.78704078017205 L 278.5970899299625 388.7904769320082 L 278.5296546342444 388.8238442754765 L 278.5226377617729 388.82738518446394 L 278.45580444544464 388.86177283198293 L 278.44885605138364 388.86541721157795 L 278.38263491748575 388.90081496010697 L 278.3757560557295 388.90456154810244 L 278.31015730730246 388.94095919460113 L 278.30334897808376 388.94480675515706 L 278.2383828181681 388.9821940965848 L 278.2316459720941 388.9861414219768 L 278.1673226037303 389.0245082552931 L 278.1606581458645 389.0285541673691 L 278.09698777209314 389.0678902895336 L 278.09039656605887 389.07203364088826 L 278.02738938992036 389.1123288488602 L 278.0208722619997 389.1165685237364 L 277.9585384865346 389.15781261447546 L 277.9520962297692 389.162147529384 L 277.89044605801803 389.20433029984963 L 277.8840794362741 389.2087594039273 L 277.82312307127734 389.2518706510789 L 277.81683282327305 389.2563929261826 L 277.7565804680712 389.30042244697984 L 277.7503673113536 389.3050369075231 L 277.6908291689872 389.34997449892535 L 277.6846938038379 389.3546801914684 L 277.6258800773474 389.4005156504352 L 277.6198231906157 389.4053116530293 L 277.5617440830416 389.45203477652007 L 277.55576635188305 389.45692019782 L 277.49843206626593 389.5045207827943 L 277.49253416178664 389.50949476093774 L 277.435954901167 389.5579626043551 L 277.4301374919554 389.56302430562266 L 277.37432345937367 389.6123492044425 L 277.3685872149105 389.617497821706 L 277.3135486134073 389.66766957288786 L 277.3078942073536 389.6729043238457 L 277.25364123996934 389.7239127243491 L 277.24806935331054 389.7292328495672 L 277.1946122230857 389.78106769635156 L 277.18912354713416 389.78647245710937 L 277.13647245710933 389.8391235471342 L 277.1310676963515 389.84461222308573 L 277.07923284956723 389.8980693533105 L 277.0739127243491 389.9036412399693 L 277.02290432384575 389.9578942073536 L 277.01766957288794 389.9635486134073 L 276.96749782170605 390.01858721491055 L 276.9623492044425 390.0243234593737 L 276.9130243056227 390.0801374919554 L 276.90796260435496 390.08595490116716 L 276.8594947609376 390.14253416178684 L 276.85452078279434 390.14843206626597 L 276.80692019782003 390.2057663518831 L 276.80203477652026 390.2117440830415 L 276.7553116530295 390.2698231906155 L 276.7505156504352 390.2758800773474 L 276.7046801914684 390.33469380383787 L 276.69997449892537 390.34082916898717 L 276.65503690752314 390.4003673113536 L 276.65042244697986 390.4065804680712 L 276.60639292618265 390.466832823273 L 276.6018706510788 390.4731230712775 L 276.5587594039272 390.5340794362743 L 276.55433029984965 390.54044605801806 L 276.51214752938404 390.60209622976924 L 276.5078126144755 390.60853848653466 L 276.46656852373644 390.67087226199976 L 276.46232884886035 390.6773893899202 L 276.4220336408884 390.7403965660587 L 276.4178902895333 390.7469877720935 L 276.3785541673689 390.8106581458649 L 276.37450825529334 390.8173226037301 L 276.336141421977 390.88164597209385 L 276.33219409658494 390.88838281816794 L 276.2948067551572 390.95334897808357 L 276.290959194601 390.9601573073027 L 276.25456154810234 391.02575605572974 L 276.2508149601072 391.03263491748544 L 276.21541721157814 391.09885605138334 L 276.21177283198267 391.1058044454451 L 276.17738518446373 391.1726377617734 L 276.1738442754766 391.17965463424446 L 276.14047693200826 391.24708992996256 L 276.13704078017213 391.2541741693001 L 276.1047039437949 391.32220124136757 L 276.1013738576636 391.3293516744719 L 276.07007773141794 391.3979603198482 L 276.06685503893766 391.40517570825546 L 276.03660982586416 391.47435572390015 L 276.0334958714675 391.4816347600854 L 276.00431177460666 391.55137594295786 L 276.00130791601345 391.5587172467841 L 275.9731951384057 391.62900939384394 L 275.9703027431385 391.6364115091701 L 275.94327148782446 391.7072444173768 L 275.94049192944436 391.71470580884625 L 275.9145523994644 391.7860692751592 L 275.91188705352704 391.79358832520495 L 275.88704945192177 391.8654721465837 L 275.8844996916705 391.8730471526555 L 275.8607742214804 391.9454411260595 L 275.85834141327956 391.95307029811295 L 275.8357382775451 392.02596422050186 L 275.8334237760686 392.03364567876537 L 275.8119531778304 392.1070293470985 L 275.8097583210205 392.11476112014003 L 275.7894304633189 392.188624331377 L 275.7873565671286 392.1964043545027 L 275.7681816530042 392.2707369056029 L 275.7662300059444 392.2785630195991 L 275.7482182384377 392.3533547075221 L 275.7463900959486 392.3612246577728 L 275.72955167810005 392.4364652794781 L 275.72784825676956 392.444376715471 L 275.71219339161973 392.520056067918 L 275.71061586327437 392.5280065431637 L 275.6961547538638 392.604114423312 L 275.69470423955926 392.6121013956889 L 275.68144708892834 392.6886276004979 L 275.68012465286773 392.69664843304986 L 275.66808166405707 392.77358275947915 L 275.66688830747097 392.78163472165994 L 275.656069683521 392.85896696666896 L 275.6550063385382 392.86704723606897 L 275.64542228248956 392.9447671966172 L 275.64448980603663 392.9528728611598 L 275.6361505209297 393.03097033420676 L 275.6353496886927 393.03909839483725 L 275.62826537756797 393.11756317734245 L 275.6275968780554 393.12571055119935 L 275.62177774395343 393.20453244012225 L 275.62124217269667 393.2126959641971 L 275.61669841865796 393.2918647564972 L 275.61629627258867 393.30004119178074 L 275.6130381016538 393.37954668441756 L 275.6127697736966 393.3877327205158 L 275.61080738890587 393.4675647104488 L 275.610673162825 393.4757569706733 L 275.6100167672191 393.55590525486195 L 275.6102031714779 393.555906781469 L 275.60999999999996 393.56000000000006 Z" id="element_58" /></svg>