<?xml version='1.0' encoding='utf-8'?>
<svg xmlns:svg="http://www.w3.org/2000/svg" id="_0390_mountain_1" viewBox="0 0 500 500" data-imageid="mountain-1-38" imageName="Mountain 1" class="illustrations_image" style="width: 188px;"><svg:style>.cls-1_mountain-1-38{fill:#a5a5a5;}.cls-2_mountain-1-38{opacity:.15;}.cls-2_mountain-1-38,.cls-3_mountain-1-38{fill:#ffd200;}.cls-4_mountain-1-38,.cls-5_mountain-1-38,.cls-6_mountain-1-38{fill:#e6e6e6;}.cls-5_mountain-1-38{opacity:.3;}.cls-6_mountain-1-38{opacity:.52;}.cls-7_mountain-1-38{opacity:.2;}.cls-7_mountain-1-38,.cls-8_mountain-1-38{fill:#000001;}.cls-8_mountain-1-38{opacity:.05;}.cls-9_mountain-1-38{fill:#24285b;}.cls-10_mountain-1-38{fill:#68e1fd;}</svg:style><svg:path class="cls-2_mountain-1-38" cx="143.65" cy="148.26" r="53.65" id="element_45" d="M 197.04166058596337 143.00138042131906 L 196.2691302936333 137.7934042238347 L 194.989849012033 132.68622706529808 L 193.21613691923054 127.72903385361292 L 190.96507583228924 122.96956506928521 L 188.25834470003156 118.45365699849833 L 185.12201082291085 114.2248003046204 L 181.58627881065829 110.32372118934171 L 177.6851996953796 106.78798917708916 L 173.45634300150166 103.65165529996844 L 168.9404349307148 100.94492416771075 L 164.18096614638708 98.69386308076946 L 159.2237729347019 96.92015098796699 L 154.1165957761653 95.64086970636669 L 148.90861957868094 94.86833941403663 L 143.65 94.60999999999999 L 138.39138042131907 94.86833941403663 L 133.1834042238347 95.64086970636669 L 128.0762270652981 96.92015098796699 L 123.11903385361295 98.69386308076946 L 118.35956506928522 100.94492416771075 L 113.84365699849836 103.65165529996843 L 109.61480030462045 106.78798917708914 L 105.71372118934173 110.32372118934171 L 102.17798917708916 114.2248003046204 L 99.04165529996845 118.45365699849835 L 96.33492416771077 122.96956506928521 L 94.08386308076948 127.72903385361292 L 92.310150987967 132.68622706529808 L 91.0308697063667 137.7934042238347 L 90.25833941403664 143.00138042131906 L 90.0 148.26 L 90.25833941403664 153.51861957868093 L 91.0308697063667 158.72659577616528 L 92.310150987967 163.8337729347019 L 94.08386308076948 168.79096614638706 L 96.33492416771077 173.55043493071477 L 99.04165529996844 178.06634300150165 L 102.17798917708916 182.29519969537955 L 105.71372118934173 186.19627881065827 L 109.6148003046204 189.7320108229108 L 113.84365699849835 192.86834470003154 L 118.35956506928522 195.57507583228923 L 123.1190338536129 197.82613691923052 L 128.0762270652981 199.599849012033 L 133.1834042238347 200.8791302936333 L 138.3913804213191 201.65166058596336 L 143.65 201.91 L 148.9086195786809 201.65166058596336 L 154.1165957761653 200.8791302936333 L 159.22377293470188 199.599849012033 L 164.18096614638708 197.82613691923052 L 168.9404349307148 195.57507583228923 L 173.45634300150164 192.86834470003157 L 177.6851996953796 189.7320108229108 L 181.58627881065826 186.19627881065827 L 185.12201082291082 182.2951996953796 L 188.25834470003156 178.06634300150165 L 190.96507583228924 173.55043493071477 L 193.21613691923054 168.7909661463871 L 194.989849012033 163.8337729347019 L 196.2691302936333 158.7265957761653 L 197.04166058596337 153.5186195786809 L 197.3 148.26 L 197.04166058596337 143.00138042131906 Z" /></svg>