<?xml version='1.0' encoding='utf-8'?>
<svg xmlns:svg="http://www.w3.org/2000/svg" id="_0390_mountain_1" viewBox="0 0 500 500" data-imageid="mountain-1-38" imageName="Mountain 1" class="illustrations_image" style="width: 188px;"><svg:style>.cls-1_mountain-1-38{fill:#a5a5a5;}.cls-2_mountain-1-38{opacity:.15;}.cls-2_mountain-1-38,.cls-3_mountain-1-38{fill:#ffd200;}.cls-4_mountain-1-38,.cls-5_mountain-1-38,.cls-6_mountain-1-38{fill:#e6e6e6;}.cls-5_mountain-1-38{opacity:.3;}.cls-6_mountain-1-38{opacity:.52;}.cls-7_mountain-1-38{opacity:.2;}.cls-7_mountain-1-38,.cls-8_mountain-1-38{fill:#000001;}.cls-8_mountain-1-38{opacity:.05;}.cls-9_mountain-1-38{fill:#24285b;}.cls-10_mountain-1-38{fill:#68e1fd;}</svg:style><svg:path class="cls-1_mountain-1-38" d="M 22.189999999999998 389.01 L 22.189999999999998 405.05 L 22.190016763757367 405.0540943224526 L 22.191118898254054 405.18868283589023 L 22.191253097323727 405.1968742790738 L 22.1945480816533 405.3309314305292 L 22.194816357466625 405.33911669025395 L 22.200287062888357 405.4726253509864 L 22.20068913370572 405.48080105159033 L 22.20831843147888 405.61374409285906 L 22.20885390644008 405.62190692482375 L 22.218624667823942 405.754267217888 L 22.21929305209113 405.7624139429221 L 22.231188148344962 405.89417435904124 L 22.23198884849972 405.90230181470037 L 22.2459911508828 406.0334452251336 L 22.2469234805387 406.0415503289646 L 22.263015860310297 406.1720596049713 L 22.264079045902445 406.18013935817527 L 22.28224437432183 406.3099973710146 L 22.283437561034827 406.31804886162166 L 22.30365870936127 406.4472384825529 L 22.30498096715785 406.4552588881113 L 22.327240806650625 406.5837629883938 L 22.328691136363894 406.59174957817385 L 22.35297253828227 406.71955102906685 L 22.354549877735703 406.7275011657868 L 22.380835713338957 406.8545828385495 L 22.382538943459576 406.8624939796311 L 22.410812084006974 406.98883874552286 L 22.412640034899034 406.99670844388936 L 22.44288335164985 407.1222991741694 L 22.444834808597573 407.13012507859867 L 22.477031172811078 407.2549446445263 L 22.479104882181517 407.26272449957486 L 22.513237165116983 407.3867557724093 L 22.515431840135644 407.39448741792603 L 22.551482913052343 407.5177132689266 L 22.5537972394268 407.52539463917543 L 22.591749973584 407.6477979396014 L 22.594182614952153 407.65542706201194 L 22.63401988160913 407.7769906831225 L 22.636569484791895 407.78456567669286 L 22.678274155207923 407.9052724897474 L 22.68093935524782 407.9127915631209 L 22.724494300682164 408.03262443937865 L 22.72727372565122 408.04008588861666 L 22.772661817363158 408.15902769933683 L 22.775554092926107 408.1664299054126 L 22.822758202174906 408.28446352185455 L 22.82576195589607 408.2918049478926 L 22.874764953941 408.4089132413156 L 22.87787881932391 408.4161924295979 L 22.92866357742425 408.53235827126116 L 22.93188619767645 408.5395738400265 L 22.98443558709147 408.65478010118926 L 22.987765618607835 408.66193074124726 L 23.0420625105968 408.7761602931689 L 23.045498626157038 408.78324476435336 L 23.10152589197922 408.8964804782931 L 23.10506678365539 408.9034976057742 L 23.162807294570065 409.0157223529913 L 23.166451676343804 409.0226710234722 L 23.225888303610244 409.1338676752259 L 23.229634913697748 409.14074683304017 L 23.290750528575224 409.25089826058985 L 23.29459813146259 409.2577069037251 L 23.357375605210372 409.36679597832995 L 23.361322993398844 409.3735331543909 L 23.425745197276203 409.48154274731013 L 23.429791192741792 409.4882075494446 L 23.495840998008006 409.59512053193765 L 23.49998445337933 409.6017120947417 L 23.56764473129366 409.7075113380677 L 23.571884530750097 409.71402883348367 L 23.641138152571823 409.818697208902 L 23.64547321246965 409.8251398421299 L 23.716303049458045 409.9286602208997 L 23.72073231868758 409.9350272263325 L 23.793121242101908 410.0373824797132 L 23.797643702184 410.04367311691425 L 23.87157458328354 410.144846116165 L 23.876189248208867 410.1510596658968 L 23.951644958252885 410.2510332822769 L 23.95635087407285 410.2571690425968 L 24.033314284320618 410.3559261473655 L 24.038110528495192 410.36198342979844 L 24.116564510205983 410.4595068942151 L 24.121450190716754 410.46548502001673 L 24.20137761514984 410.56175771534055 L 24.206351869382924 410.56765601185765 L 24.28773560779758 410.6626608093479 L 24.29279760120664 410.6684786064904 L 24.375620524862132 410.7621983774064 L 24.380769449416047 410.7679350042373 L 24.465014429571646 410.86035261983824 L 24.470249501995383 410.8660074012926 L 24.555899409910367 410.9571057328379 L 24.561219869726994 410.9626779865793 L 24.64825757666063 411.0524399053281 L 24.65366268403935 411.0579289387491 L 24.74207106125091 411.1463373159607 L 24.747560094672153 411.1517424233396 L 24.83732201342091 411.2387801302732 L 24.842894267162123 411.2441005900896 L 24.93399259870735 411.3297504980046 L 24.939647380161837 411.33498557042844 L 25.0320649957628 411.4192305505841 L 25.037801622593722 411.424379475138 L 25.1315213935097 411.5072023987935 L 25.137339190652224 411.5122643922026 L 25.232343988142482 411.5936481306172 L 25.238242284659478 411.5986223848502 L 25.33451497998329 411.6785498092833 L 25.340493105784837 411.683435489794 L 25.438016570201476 411.76188947150484 L 25.44407385263466 411.7666857156796 L 25.542830957403392 411.84364912592736 L 25.548966717723108 411.8483550417472 L 25.648940334103216 411.9238107517912 L 25.655153883834974 411.92842541671655 L 25.75632688308572 412.0023562978161 L 25.762617520286835 412.0068787578982 L 25.864972773667493 412.07926768131256 L 25.871339779100307 412.0836969505421 L 25.97486015787015 412.15452678753053 L 25.98130279109808 412.1588618474284 L 26.08597116651638 412.2281154692501 L 26.09248866193228 412.2323552687065 L 26.198287905258304 412.30001554662084 L 26.204879468062288 412.3041590019921 L 26.311792450555316 412.37020880725834 L 26.31845725268993 412.374254802724 L 26.426466845609227 412.4386770066014 L 26.433204021670146 412.44262439478985 L 26.542293096274985 412.5054018685376 L 26.549101739410023 412.5092494714249 L 26.659253166959676 412.5703650863024 L 26.66613232477418 412.57411169639 L 26.777328976527915 412.63354832365644 L 26.784277647008846 412.6371927054302 L 26.89650239422594 412.69493321634485 L 26.90351952170694 412.69847410802095 L 27.016755235646663 412.75450137384314 L 27.023839706830984 412.75793748940333 L 27.13806925875261 412.81223438139233 L 27.14521989881088 412.8155644129088 L 27.260426159973676 412.8681138023238 L 27.267641728738855 412.87133642257595 L 27.383807570402094 412.9221211806763 L 27.39108675868436 412.9252350460592 L 27.508195052107315 412.97423804410414 L 27.5155364781454 412.97724179782534 L 27.63357009458734 413.02444590707415 L 27.640972300663282 413.02733818263715 L 27.759914111383484 413.07272627434907 L 27.767375560621193 413.075505699318 L 27.88720843687892 413.1190606447524 L 27.894727510252523 413.1217258447923 L 28.015434323307055 413.16343051520835 L 28.023009316877463 413.16598011839113 L 28.14457293798807 413.20581738504814 L 28.1522020603988 413.20825002641635 L 28.27460536082475 413.2462027605735 L 28.282286731073263 413.24851708694786 L 28.405512582073833 413.2845681598646 L 28.41324422759084 413.28676283488335 L 28.5372755004253 413.3208951178188 L 28.54505535547366 413.3229688271892 L 28.669874921401274 413.3551651914027 L 28.677700825830463 413.3571166483504 L 28.803291556110512 413.38735996510127 L 28.81116125447711 413.3891879159933 L 28.93750602036886 413.41746105654073 L 28.945417161450585 413.4191642866614 L 29.072498834213313 413.4454501222646 L 29.080448970933 413.447027461718 L 29.208250421825966 413.4713088636364 L 29.21623701160614 413.4727591933497 L 29.34474111188863 413.4950190328425 L 29.3527615174472 413.4963412906391 L 29.481951138378477 413.51656243896554 L 29.490002628985355 413.5177556256785 L 29.619860641824697 413.5359209540979 L 29.627940395028517 413.53698413969005 L 29.758449671035194 413.5530765194617 L 29.766554774866453 413.55400884911757 L 29.897698185299728 413.5680111515006 L 29.905825640958657 413.56881185165537 L 30.037586057077814 413.5807069479092 L 30.045732782111894 413.58137533217644 L 30.178093075176196 413.5911460935603 L 30.186255907141128 413.59168156852155 L 30.31919894840985 413.5993108662947 L 30.327374649013464 413.59971293711203 L 30.460883309745878 413.6051836425338 L 30.469068569470863 413.6054519183471 L 30.60312572092624 413.60874690267667 L 30.61131716410972 413.60888110174636 L 30.74590567754733 413.60998323624307 L 30.75000000000242 413.6100000000004 L 30.831717171719607 413.61 L 38.34 413.61 L 38.34 440.12 L 52.830000000000005 440.12 L 52.830000000000005 423.01000000000005 L 60.940000000000005 423.01000000000005 L 60.94409432245266 423.0099832362427 L 61.07868283589028 423.008881101746 L 61.086874279073754 423.0087469026763 L 61.22093143052913 423.00545191834675 L 61.2291166902539 423.00518364253344 L 61.36262535098631 422.9997129371117 L 61.37080105159035 422.9993108662943 L 61.50374409285907 422.99168156852113 L 61.511906924823585 422.99114609355996 L 61.64426721788789 422.9813753321761 L 61.65241394292218 422.9807069479089 L 61.78417435904134 422.96881185165506 L 61.79230181470026 422.9680111515003 L 61.92344522513354 422.95400884911726 L 61.9315503289648 422.9530765194614 L 62.06205960497147 422.93698413968974 L 62.07013935817508 422.9359209540976 L 62.199997371014426 422.91775562567824 L 62.20804886162173 422.91656243896523 L 62.337238482553005 422.89634129063876 L 62.34525888811136 422.8950190328422 L 62.47376298839385 422.8727591933494 L 62.48174957817381 422.87130886363616 L 62.609551029066786 422.8470274617178 L 62.61750116578669 422.84545012226437 L 62.74458283854941 422.81916428666113 L 62.752493979631126 422.8174610565405 L 62.87883874552288 422.78918791599307 L 62.886708443889475 422.787359965101 L 63.01229917416953 422.7571166483502 L 63.02012507859851 422.7551651914025 L 63.14494464452613 422.72296882718905 L 63.15272449957491 422.72089511781854 L 63.27675577240936 422.68676283488304 L 63.28448741792595 422.6845681598644 L 63.40771326892652 422.6485170869477 L 63.415394639175446 422.64620276057326 L 63.5377979396014 422.60825002641604 L 63.545427062011925 422.6058173850479 L 63.66699068312253 422.5659801183909 L 63.67456567669273 422.56343051520815 L 63.79527248974726 422.5217258447922 L 63.80279156312106 422.5190606447522 L 63.922624439378794 422.4755056993178 L 63.93008588861651 422.4727262743489 L 64.0490276993367 422.42733818263696 L 64.05642990541266 422.42444590707396 L 64.17446352185459 422.37724179782515 L 64.18180494789249 422.374238044104 L 64.29891324131545 422.3252350460591 L 64.30619242959789 422.32212118067616 L 64.42235827126113 422.2713364225758 L 64.4295738400265 422.26811380232357 L 64.5447801011893 422.2155644129085 L 64.5519307412472 422.2122343813922 L 64.66616029316883 422.15793748940325 L 64.67324476435334 422.154501373843 L 64.78648047829306 422.0984741080208 L 64.79349760577422 422.0949332163446 L 64.90572235299132 422.0371927054299 L 64.91267102347192 422.03354832365636 L 65.02386767522565 421.97411169638997 L 65.03074683304031 421.97036508630225 L 65.14089826058996 421.90924947142474 L 65.147706903725 421.90540186853747 L 65.25679597832983 421.8426243947897 L 65.26353315439074 421.83867700660124 L 65.37154274731004 421.7742548027239 L 65.37820754944467 421.7702088072582 L 65.4851205319377 421.70415900199197 L 65.4917120947417 421.70001554662065 L 65.59751133806772 421.6323552687063 L 65.60402883348361 421.62811546924996 L 65.70869720890191 421.55886184742826 L 65.71513984212969 421.5545267875305 L 65.81866022089953 421.48369695054214 L 65.82502722633248 421.4792676813125 L 65.92738247971315 421.40687875789814 L 65.93367311691429 421.40235629781597 L 66.03484611616503 421.3284254167164 L 66.04105966589675 421.32381075179114 L 66.14103328227687 421.2483550417471 L 66.14716904259659 421.2436491259273 L 66.24592614736532 421.16668571567953 L 66.25198342979851 421.16188947150476 L 66.34950689421515 421.08343548979394 L 66.35548502001672 421.07854980928323 L 66.45175771534052 420.99862238485014 L 66.4576560118575 420.99364813061715 L 66.55266080934776 420.91226439220253 L 66.55847860649031 420.9072023987934 L 66.65219837740628 420.8243794751379 L 66.65793500423705 420.8192305505841 L 66.75035261983801 420.73498557042853 L 66.75600740129263 420.7297504980046 L 66.84710573283786 420.6441005900896 L 66.85267798657917 420.63878013027306 L 66.94243990532793 420.5517424233394 L 66.94792893874899 420.5463373159607 L 67.03633731596054 420.4579289387492 L 67.04174242333933 420.45243990532805 L 67.12878013027297 420.3626779865793 L 67.13410059008962 420.35710573283785 L 67.2197504980046 420.2660074012926 L 67.22498557042833 420.2603526198382 L 67.30923055058393 420.1679350042373 L 67.31437947513787 420.1621983774063 L 67.39720239879335 420.0684786064903 L 67.4022643922024 420.0626608093479 L 67.48364813061706 419.9676560118576 L 67.48862238485016 419.9617577153405 L 67.56854980928324 419.8654850200167 L 67.5734354897939 419.8595068942152 L 67.65188947150469 419.7619834297986 L 67.65668571567944 419.7559261473654 L 67.73364912592722 419.65716904259665 L 67.73835504174703 419.651033282277 L 67.81381075179104 419.55105966589696 L 67.81842541671644 419.54484611616505 L 67.89235629781598 419.4436731169143 L 67.89687875789808 419.4373824797132 L 67.9692676813124 419.33502722633256 L 67.97369695054194 419.32866022089974 L 68.04452678753033 419.2251398421299 L 68.04886184742814 419.21869720890203 L 68.11811546924987 419.1140288334837 L 68.12235526870633 419.10751133806775 L 68.19001554662066 419.0017120947417 L 68.19415900199192 418.99512053193774 L 68.26020880725812 418.88820754944476 L 68.2642548027238 418.88154274731016 L 68.32867700660117 418.77353315439086 L 68.33262439478962 418.7667959783299 L 68.39540186853739 418.65770690372506 L 68.39924947142468 418.65089826059 L 68.46036508630216 418.5407468330404 L 68.46411169638978 418.53386767522585 L 68.52354832365621 418.4226710234721 L 68.52719270542988 418.41572235299134 L 68.58493321634457 418.3034976057742 L 68.58847410802076 418.29648047829306 L 68.64450137384294 418.18324476435333 L 68.64793748940312 418.17616029316906 L 68.70223438139209 418.06193074124747 L 68.70556441290856 418.05478010118924 L 68.75811380232356 417.9395738400264 L 68.76133642257568 417.93235827126125 L 68.81212118067602 417.81619242959806 L 68.81523504605894 417.8089132413157 L 68.86423804410389 417.6918049478927 L 68.86724179782507 417.68446352185464 L 68.91444590707387 417.5664299054127 L 68.9173381826368 417.5590276993369 L 68.96272627434874 417.44008588861675 L 68.96550569931782 417.43262443937874 L 69.00906064475215 417.312791563121 L 69.01172584479204 417.3052724897475 L 69.05343051520806 417.18456567669296 L 69.05598011839083 417.17699068312254 L 69.09581738504781 417.055427062012 L 69.09825002641595 417.0477979396015 L 69.13620276057316 416.9253946391755 L 69.1385170869476 416.9177132689267 L 69.17456815986431 416.7944874179261 L 69.176762834883 416.7867557724093 L 69.21089511781845 416.6627244995749 L 69.21296882718887 416.6549446445264 L 69.24516519140238 416.53012507859876 L 69.2471166483501 416.5222991741695 L 69.27735996510091 416.39670844388945 L 69.27918791599296 416.38883874552295 L 69.30746105654036 416.26249397963124 L 69.309164286661 416.25458283854965 L 69.33545012226426 416.1275011657869 L 69.33702746171768 416.11955102906694 L 69.36130886363605 415.991749578174 L 69.36275919334933 415.98376298839395 L 69.38501903284211 415.85525888811145 L 69.3863412906387 415.847238482553 L 69.40656243896514 415.7180488616217 L 69.40775562567812 415.7099973710147 L 69.4259209540975 415.5801393581754 L 69.42698413968967 415.57205960497146 L 69.44307651946126 415.44155032896475 L 69.44400884911715 415.4334452251337 L 69.45801115150023 415.30230181470046 L 69.45881185165499 415.29417435904145 L 69.47070694790882 415.1624139429223 L 69.47137533217601 415.1542672178881 L 69.48114609355987 415.0219069248238 L 69.48168156852107 415.0137440928591 L 69.48931086629422 414.8808010515904 L 69.48971293711159 414.87262535098654 L 69.49518364253332 414.7391166902541 L 69.49545191834665 414.7309314305293 L 69.49874690267622 414.596874279074 L 69.49888110174588 414.5886828358904 L 69.49998323624257 414.45409432245276 L 69.49981009735849 414.4540929046324 L 69.5 414.45000000000005 L 69.5 398.41 L 69.49998326091732 398.40590869183654 L 69.49923832559325 398.3148729698581 L 69.49910431907219 398.30668735334496 L 69.49687722206396 398.2160121387977 L 69.49660931797045 398.2078324159071 L 69.49291162272392 398.11752927223694 L 69.49251008837734 398.1093588112886 L 69.48735335833847 398.0194393019415 L 69.48681856989451 398.01128140621137 L 69.48021436850917 397.92175709463316 L 69.47954680589038 397.9136149972772 L 69.47150669660448 397.8244974469139 L 69.47070693817614 397.81637430634714 L 69.46124248443559 397.72767508064453 L 69.4603112014646 397.7195739763901 L 69.44943396671532 397.6313046387942 L 69.44837191765068 397.62322856780946 L 69.43609346533854 397.5354006817661 L 69.43490148995113 397.52735255524993 L 69.42123338352208 397.4399776842051 L 69.41991239694138 397.43196032488737 L 69.40486619984132 397.3450500322868 L 69.40341718652567 397.3370661721969 L 69.3870044622005 397.2506320214867 L 69.38542846987666 397.2426843001986 L 69.36766078177226 397.15673785482454 L 69.36595891537822 397.1488288181652 L 69.34684782694053 397.06338164157324 L 69.34502124260446 397.0555137407871 L 69.32457831727938 396.97057739642315 L 69.32262821636589 396.96275298777937 L 69.30086501759932 396.8783390390893 L 69.29879264085164 396.870560383913 L 69.27572073208951 396.7866803943428 L 69.27352735389513 396.77894965945654 L 69.24915829858331 396.69561519245207 L 69.24684522138816 396.68793445100727 L 69.22119058297257 396.6051570700144 L 69.21875913186582 396.5975283026906 L 69.1918304737924 396.51531957115526 L 69.18928199128379 396.50774466770866 L 69.1610908769984 396.4261161490768 L 69.15842671800594 396.41859691021466 L 69.12898471095451 396.3375601679321 L 69.12620623801853 396.3300983074884 L 69.09552490164695 396.2496649050011 L 69.09263348038591 396.24226205239296 L 69.06072437814011 396.1624435531469 L 69.05772137295969 396.1551012560863 L 69.02459606828556 396.0759092235273 L 69.0214828383507 396.0686289509643 L 68.98715289469416 395.9900749485382 L 68.98393079017391 395.98285809381366 L 68.94840777098086 395.90495368496653 L 68.94507812957157 395.8978015691507 L 68.90837359828791 395.82055831732833 L 68.90493774201943 395.8134721927209 L 68.86706326209108 395.7369016613692 L 68.8635224944203 395.72988271514123 L 68.82448962929315 395.6539964677062 L 68.82084523248655 395.64704582566117 L 68.78066554560652 395.57185542558864 L 68.77691877841134 395.564974156021 L 68.73560383322435 395.49049116675684 L 68.73175592882907 395.4836802843885 L 68.689317288781 395.4099162693787 L 68.68536945306313 395.4031767393562 L 68.6418186815999 395.33014326204665 L 68.63777209165838 395.3234760039774 L 68.5931207522259 395.251184627814 L 68.58897655519378 395.2445905198251 L 68.54323621123795 395.1730528082537 L 68.53899552337344 395.1665326910588 L 68.49217773834016 395.0957602075254 L 68.48784164438963 395.0893148884814 L 68.43995798172483 395.01931919643187 L 68.43552753455158 395.0129494535697 L 68.38658955770114 394.9437421164499 L 68.38206577817692 394.9374487024694 L 68.33208505058677 394.86904128372527 L 68.32746892773751 394.8628249299357 L 68.27645701285354 394.79522899301315 L 68.2717495042543 394.78909041321106 L 68.21971796552243 394.722317521556 L 68.21491999793388 394.7162574158252 L 68.1618803988 394.65031913288357 L 68.15699286904027 394.64433819130784 L 68.10295677295031 394.57924608052554 L 68.09798054899568 394.5733449868035 L 68.04295951939552 394.50911061162634 L 68.03789544170085 394.50329004657584 L 67.98190104203641 394.4399249704498 L 67.97674992507085 394.43418561539613 L 67.91979371878804 394.37170140176715 L 67.91455635277725 394.36604394180296 L 67.85664990332198 394.3044521541169 L 67.85132705618891 394.2988772812247 L 67.79248192700709 394.23818948292745 L 67.78707434650472 394.2326978989578 L 67.72730210104224 394.1729256534953 L 67.7218105170729 394.1675180729933 L 67.66112271877567 394.1086729438114 L 67.65554784588305 394.10335009667796 L 67.59395605819698 394.0454436472227 L 67.58829859823307 394.04020628121225 L 67.52581438460408 393.9832500749294 L 67.52007502955037 393.97809895796377 L 67.45670995342435 393.92210455829934 L 67.45088938837378 393.9170404806046 L 67.38665501319664 393.86201945100447 L 67.38075391947439 393.8570432270497 L 67.31566180869204 393.80300713095977 L 67.30968086711644 393.79811960120014 L 67.24374258417478 393.7450800020663 L 67.23768247844421 393.7402820344779 L 67.17090958678916 393.688250495746 L 67.16477100698684 393.68354298714655 L 67.09717507006431 393.6325310722626 L 67.09095871627505 393.6279149494136 L 67.02255129753094 393.5779342218234 L 67.0162578835501 393.573410442299 L 66.94705054643029 393.5244724654486 L 66.94068080356814 393.52004201827526 L 66.87068511151858 393.4721583556105 L 66.86423979247463 393.46782226166005 L 66.79346730894122 393.42100447662676 L 66.78694719174626 393.41676378876224 L 66.71540948017487 393.37102344480644 L 66.70881537218604 393.3668792477743 L 66.63652399602262 393.32222790834186 L 66.62985673795336 393.3181813184003 L 66.55682326064378 393.2746305469371 L 66.55008373062152 393.27068271121937 L 66.47631971561172 393.2282440711713 L 66.46950883324315 393.2243961667758 L 66.39502584397901 393.18308122158885 L 66.38814457441147 393.17933445439377 L 66.31295417433893 393.13915476751373 L 66.30600353229379 393.13551037070704 L 66.23011728485871 393.0964775055799 L 66.2230983386309 393.09293673790927 L 66.14652780727923 393.0550622579809 L 66.13944168267173 393.0516264017124 L 66.06219843084936 393.01492187042874 L 66.05504631503334 393.01159222901936 L 65.97714190618616 392.97606920982633 L 65.96992505146179 392.97284710530613 L 65.89137104903573 392.9385171616496 L 65.88409077647299 392.93540393171486 L 65.80489874391395 392.9022786270407 L 65.797556446853 392.8992756218601 L 65.71773794760689 392.86736651961434 L 65.710335094999 392.8644750983534 L 65.62990169251172 392.83379376198184 L 65.62243983206778 392.83101528904575 L 65.54140308978525 392.80157328199437 L 65.53388385092329 392.798909123002 L 65.4522553322914 392.7707180087166 L 65.444680428845 392.76816952620806 L 65.36247169730967 392.7412408681346 L 65.35484292998527 392.73880941702765 L 65.2720655489924 392.71315477861214 L 65.26438480754786 392.71084170141705 L 65.18105034054335 392.68647264610524 L 65.17331960565745 392.684279267911 L 65.08943961608723 392.6612073591488 L 65.08166096091071 392.65913498240104 L 64.99724701222067 392.6373717836345 L 64.98942260357656 392.6354216827209 L 64.90448625921259 392.6149787573959 L 64.89661835842679 392.6131521730599 L 64.81117118183484 392.59404108462223 L 64.80326214517557 392.5923392182282 L 64.71731569980152 392.57457153012376 L 64.70936797851323 392.5729955377999 L 64.62293382780298 392.55658281347473 L 64.61494996771322 392.5551338001591 L 64.5280396751127 392.5400876030591 L 64.52002231579502 392.53876661647837 L 64.4326474447501 392.5250985100493 L 64.4245993182338 392.5239065346619 L 64.33677143219043 392.5116280823498 L 64.32869536120579 392.51056603328516 L 64.24042602360986 392.4996887985359 L 64.23232491935536 392.4987575155649 L 64.14362569365277 392.48929306182436 L 64.13550255308613 392.488493303396 L 64.04638500272279 392.4804531941101 L 64.03824290536691 392.4797856314913 L 63.94871859378872 392.47318143010597 L 63.94056069805829 392.472646641662 L 63.85064118871117 392.46748991162315 L 63.84247072776292 392.4670883772766 L 63.75216758409278 392.4633906820301 L 63.743987861202434 392.46312277793663 L 63.653312646655166 392.4608956809284 L 63.64512703014196 392.4607616744073 L 63.55409130816347 392.46001673908324 L 63.50539169579864 392.46199387634715 L 63.45711596248119 392.4687031899415 L 63.444711960253585 392.4716810366907 L 63.38601213879756 392.4731227779361 L 63.377832415907214 392.47339068202956 L 63.28752927223707 392.47708837727606 L 63.2793588112885 392.4774899116227 L 63.189439301941384 392.4826466416616 L 63.181281406211276 392.4831814301055 L 63.09175709463309 392.48978563149086 L 63.0836149972772 392.49045319410965 L 62.99449744691386 392.49849330339555 L 62.98637430634723 392.4992930618239 L 62.89767508064464 392.5087575155644 L 62.88957397638984 392.5096887985354 L 62.8013046387939 392.52056603328475 L 62.793228567809564 392.52162808234937 L 62.70540068176619 392.53390653466147 L 62.697352555249886 392.5350985100489 L 62.60997768420498 392.54876661647796 L 62.601960324887315 392.55008760305867 L 62.51505003228679 392.5651338001587 L 62.507066172197014 392.5665828134743 L 62.42063202148677 392.5829955377995 L 62.41268430019848 392.58457153012336 L 62.32673785482443 392.60233921822777 L 62.31882881816516 392.6040410846218 L 62.233381641573196 392.6231521730595 L 62.22551374078708 392.6249787573956 L 62.140577396423126 392.64542168272067 L 62.132752987779334 392.6473717836341 L 62.04833903908929 392.6691349824007 L 62.04056038391308 392.67120735914835 L 61.956680394342854 392.6942792679105 L 61.94894965945633 392.69647264610495 L 61.865615192451834 392.7208417014168 L 61.85793445100732 392.7231547786119 L 61.775157070014444 392.7488094170275 L 61.76752830269061 392.7512408681342 L 61.68531957115528 392.7781695262076 L 61.6777446677086 392.78071800871624 L 61.596116149076714 392.8089091230016 L 61.58859691021447 392.81157328199413 L 61.507560167931935 392.8410152890456 L 61.50009830748829 392.84379376198154 L 61.419664905001014 392.8744750983531 L 61.41226205239312 392.87736651961404 L 61.33244355314701 392.9092756218598 L 61.32510125608604 392.9122786270404 L 61.24590922352701 392.94540393171457 L 61.23862895096426 392.9485171616493 L 61.1600749485382 392.98284710530584 L 61.15285809381355 392.98606920982616 L 61.07495368496638 393.02159222901923 L 61.06780156915065 393.0249218704285 L 60.99055831732828 393.06162640171215 L 60.98347219272077 393.0650622579807 L 60.90690166136909 393.10293673790903 L 60.899882715141274 393.10647750557973 L 60.8239964677062 393.14551037070686 L 60.8170458256611 393.1491547675135 L 60.74185542558855 393.18933445439353 L 60.73497415602099 393.1930812215886 L 60.66049116675685 393.2343961667756 L 60.65368028438828 393.23824407117104 L 60.57991626937848 393.28068271121913 L 60.57317673935619 393.28463054693685 L 60.50014326204662 393.3281813184001 L 60.493476003977186 393.33222790834174 L 60.42118462781375 393.37687924777424 L 60.414590519825076 393.38102344480626 L 60.343052808253695 393.42676378876206 L 60.3365326910588 393.4310044766266 L 60.265760207525375 393.47782226165987 L 60.259314888481434 393.4821583556103 L 60.18931919643187 393.5300420182751 L 60.182949453569435 393.5344724654486 L 60.11374211644964 393.58341044229905 L 60.1074487024693 393.5879342218231 L 60.039041283725176 393.63791494941324 L 60.032824929935494 393.6425310722626 L 59.96522899301296 393.6935429871466 L 59.959090413211015 393.6982504957457 L 59.892317521555974 393.75028203447755 L 59.88625741582519 393.7550800020661 L 59.82031913288354 393.80811960119996 L 59.81433819130777 393.81300713095976 L 59.749246080525424 393.86704322704975 L 59.743344986803365 393.87201945100435 L 59.67911061162623 393.9270404806045 L 59.67329004657545 393.9321045582994 L 59.609924970449434 393.98809895796387 L 59.604185615396126 393.99325007492916 L 59.54170140176713 394.05020628121196 L 59.53604394180281 394.0554436472228 L 59.47445215411675 394.11335009667806 L 59.46887728122451 394.1186729438112 L 59.408189482927284 394.177518072993 L 59.4026978989576 394.1829256534954 L 59.342925653495115 394.2426978989579 L 59.33751807299311 394.24818948292716 L 59.27867294381128 394.30887728122434 L 59.273350096677824 394.31445215411696 L 59.21544364722256 394.37604394180306 L 59.21020628121195 394.3817014017671 L 59.15325007492915 394.44418561539607 L 59.14809895796357 394.44992497044973 L 59.092104558299134 394.5132900465758 L 59.08704048060447 394.5191106116263 L 59.03201945100432 394.5833449868034 L 59.02704322704971 394.58924608052547 L 58.97300713095974 394.6543381913078 L 58.96811960119998 394.66031913288356 L 58.915080002066105 394.7262574158252 L 58.91028203447746 394.7323175215561 L 58.85825049574559 394.7990904132112 L 58.853542987146454 394.80522899301315 L 58.80253107226248 394.8728249299357 L 58.79791494941335 394.8790412837251 L 58.74793422182319 394.94744870246916 L 58.74341044229885 394.95374211644986 L 58.69447246544841 395.02294945356965 L 58.69004201827505 395.0293191964319 L 58.64215835561025 395.0993148884815 L 58.63782226165971 395.1057602075256 L 58.59100447662643 395.17653269105904 L 58.58676378876217 395.1830528082536 L 58.541023444806335 395.25459051982494 L 58.5368792477741 395.261184627814 L 58.492227908341626 395.3334760039774 L 58.48818131840001 395.34014326204675 L 58.44463054693678 395.41317673935635 L 58.44068271121906 395.41991626937863 L 58.39824407117099 395.4936802843884 L 58.39439616677567 395.5004911667568 L 58.35308122158867 395.5749741560209 L 58.3493344543934 395.5818554255888 L 58.30915476751338 395.6570458256614 L 58.30551037070685 395.6639964677062 L 58.26647750557971 395.7398827151413 L 58.262936737908916 395.74690166136924 L 58.22506225798057 395.82347219272094 L 58.221626401712086 395.8305583173284 L 58.184921870428425 395.90780156915076 L 58.18159222901913 395.9149536849666 L 58.14606920982608 395.9928580938137 L 58.14284710530583 396.00007494853827 L 58.10851716164929 396.07862895096434 L 58.10540393171442 396.0859092235274 L 58.0722786270403 396.1651012560864 L 58.069275621859845 396.17244355314705 L 58.03736651961404 396.2522620523932 L 58.0344750983531 396.2596649050011 L 58.00379376198153 396.34009830748835 L 58.001015289045505 396.3475601679321 L 57.97157328199407 396.42859691021465 L 57.96890912300159 396.43611614907684 L 57.940718008716196 396.5177446677087 L 57.93816952620761 396.5253195711553 L 57.91124086813417 396.60752830269064 L 57.90880941702741 396.6151570700145 L 57.88315477861183 396.69793445100737 L 57.88084170141664 396.7056151924523 L 57.85647264610483 396.7889496594568 L 57.854279267910506 396.7966803943429 L 57.831207359148365 396.8805603839131 L 57.82913498240068 396.8883390390894 L 57.80737178363411 396.9727529877794 L 57.805421682720606 396.98057739642326 L 57.78497875739553 397.0655137407872 L 57.78315217305946 397.0733816415733 L 57.76404108462177 397.15882881816526 L 57.762339218227716 397.16673785482476 L 57.74457153012333 397.25268430019884 L 57.74299553779951 397.26063202148686 L 57.72658281347432 397.3470661721971 L 57.72513380015869 397.35505003228684 L 57.71008760305862 397.44196032488736 L 57.7087666164779 397.4499776842053 L 57.69509851004886 397.5373525552502 L 57.69390653466145 397.54540068176624 L 57.68162808234933 397.6332285678096 L 57.68056603328469 397.64130463879434 L 57.669688798535404 397.72957397639027 L 57.66875751556442 397.73767508064464 L 57.659293061823874 397.8263743063472 L 57.658493303395524 397.83449744691404 L 57.65045319410962 397.9236149972774 L 57.64978563149084 397.9317570946333 L 57.64318143010549 398.02128140621153 L 57.64264664166152 398.02943930194164 L 57.63748991162264 398.11935881128875 L 57.637088377276065 398.12752927223715 L 57.63339068202955 398.2178324159073 L 57.63312277793605 398.2260121387977 L 57.63089568092781 398.316687353345 L 57.630761674406735 398.3248729698583 L 57.63001673908268 398.41590869183676 L 57.63020091904122 398.41591019896117 L 57.629999999999995 398.42 L 57.629999999999995 408.80795311561485 L 57.62960455378205 408.85625085944 L 57.628473170082636 408.902288293833 L 57.626595770440865 408.94811154722976 L 57.62397894673477 408.9937170357881 L 57.62062918430716 409.0391011071677 L 57.616552867224286 409.08426003568195 L 57.61175628377048 409.12919001790743 L 57.60624563213828 409.1738871687837 L 57.600027026277324 409.2183475181879 L 57.593106501863744 409.2625670079939 L 57.58549002235005 409.3065414896307 L 57.57718348506461 409.35026672209887 L 57.568192727318284 409.39373837048527 L 57.5585235324917 409.4369520049212 L 57.54818163606574 409.47990310000404 L 57.53717273156915 409.52258703464645 L 57.525502476409436 409.56499909235924 L 57.513176497571635 409.6071344619092 L 57.5002003971435 409.6489882383957 L 57.48657975766987 409.69055542463923 L 57.47232014728611 409.7318309329612 L 57.45742712464539 409.77280958722906 L 57.44190624359905 409.8134861252228 L 57.42576305762799 409.8538552012651 L 57.40900312401696 409.8939113890829 L 57.39163200775656 409.9336491848955 L 57.37365528516213 409.9730630107103 L 57.355078547218355 410.0121472177715 L 57.335907402629836 410.05089609017404 L 57.31614748058552 410.08930384859946 L 57.29580443322558 410.1273646541709 L 57.27488393782966 410.1650726123726 L 57.25339169870413 410.2024217770585 L 57.23133344878537 410.2394061545017 L 57.208714950960626 410.276019707473 L 57.18554199911068 410.3122563593283 L 57.161820418870825 410.34810999810384 L 57.13755606812251 410.383574480591 L 57.11275483723067 410.41864363636216 L 57.0874226490006 410.4533112717828 L 57.06156545840993 410.4875711739238 L 57.03518925206827 410.5214171144401 L 57.008300047457574 410.55484285333836 L 56.980903891929586 410.58784214266564 L 56.95300686148075 410.62040873009033 L 56.92461505931007 410.65253636236713 L 56.89573461417259 410.6842187886724 L 56.86637167850719 410.7154497638309 L 56.83653242640823 410.7462230513584 L 56.806223051359865 410.7765324264068 L 56.77544976382907 410.8063716785089 L 56.744218788673216 410.8357346141718 L 56.71253636236702 410.86461505931015 L 56.6804087300897 410.8930068614813 L 56.64784214266721 410.9209038919283 L 56.614842853337336 410.94830004745836 L 56.58141711443858 410.97518925206947 L 56.5475711739237 411.0015654584101 L 56.513311271783 411.02742264900047 L 56.47864363636256 411.05275483723045 L 56.44357448059005 411.0775560681232 L 56.40810999810554 411.10182041886975 L 56.37225635932648 411.1255419991119 L 56.33601970747489 411.14871495095946 L 56.29940615450001 411.1713334487864 L 56.26242177705941 411.1933916987036 L 56.22507261237153 411.21488393783034 L 56.18736465417106 411.23580443322555 L 56.149303848600134 411.2561474805852 L 56.110896090174776 411.27590740262957 L 56.0721472177693 411.2950785472195 L 56.03306301071066 411.31365528516204 L 55.99364918489662 411.3316320077561 L 55.953911389082535 411.3490031240172 L 55.91385520126623 411.3657630576276 L 55.873486125221184 411.38190624359976 L 55.83280958722981 411.3974271246452 L 55.79183093296252 411.4123201472857 L 55.750555424637554 411.4265797576705 L 55.708988238396 411.4402003971435 L 55.667134461910365 411.45317649757135 L 55.62499909235806 411.4655024764099 L 55.582587034645336 411.4771727315695 L 55.53990310000546 411.48818163606546 L 55.496952004919436 411.4985235324922 L 55.45373837048841 411.5081927273177 L 55.41026672209914 411.5171834850646 L 55.36654148962814 411.5254900223506 L 55.32256700799466 411.53310650186376 L 55.278347518185946 411.5400270262777 L 55.233887168786666 411.546245632138 L 55.18919001790473 411.5517562837709 L 55.14426003568344 411.55655286722424 L 55.099101107167364 411.5606291843073 L 55.05371703578973 411.5639789467348 L 55.00811154722858 411.566595770441 L 54.96228829383394 411.5684731700827 L 54.91625085943798 411.5696045537822 L 54.867953115630534 411.57 L 52.849999999999994 411.57 L 52.849999999999994 382.39 L 52.8499833008564 382.3859135755565 L 52.849061286096 382.27310297799846 L 52.84892759125829 382.2649268022707 L 52.8461710698149 382.1525651384949 L 52.845903767482795 382.1443943874186 L 52.84132702361312 382.0324959416817 L 52.84092635781117 382.0243339716544 L 52.834543675771926 381.91291302821327 L 52.834009998896455 381.9047631323653 L 52.82583566294434 381.79383397547656 L 52.82516943081256 381.7856993786037 L 52.815217725204285 381.675276292524 L 52.814419491847495 381.6671601464668 L 52.802704700839776 381.55725741545297 L 52.80177511307785 381.54916279493693 L 52.78831152092739 381.43979470324564 L 52.78725131276215 381.43172460218864 L 52.77205320372566 381.3229054340765 L 52.77086319059018 381.3148627623689 L 52.75394484892436 381.2066068020927 L 52.752625921825434 381.19859438285255 L 52.734001631787 381.09091591466904 L 52.732554751376604 381.08293648196883 L 52.71223879722226 380.97584979013465 L 52.71066498783336 380.9679059871961 L 52.688671653819824 380.861425355968 L 52.686971997500216 380.8535197338164 L 52.66331556788419 380.7476594474511 L 52.661491198460915 380.73979446401984 L 52.63618595749911 380.634568806774 L 52.634238054704014 380.626746826445 L 52.60729828665313 380.52217008257537 L 52.60522807033872 380.51439337614266 L 52.57666805945548 380.41047982990585 L 52.574476783927615 380.402750574943 L 52.544310814468716 380.2995145105958 L 52.5419997629619 380.2918347922122 L 52.510242119184056 380.1892904940114 L 52.50781259850134 380.18166230597427 L 52.47447756466125 380.0798240581764 L 52.471930900000025 380.0722493043794 L 52.43703276035441 379.9711313912413 L 52.43437029033672 379.9636118874982 L 52.39792332914229 379.8632285932765 L 52.395146401066185 379.8557660694171 L 52.35716490257964 379.75613167836855 L 52.35427486790573 379.74872778061297 L 52.314773116383776 379.6498565769943 L 52.31177132647006 379.64251287058465 L 52.2707636061694 379.54441913865253 L 52.26765140826417 379.53713711071674 L 52.225152003441536 379.4398351347279 L 52.22193073694362 379.4326161973536 L 52.177953931855704 379.3361202615647 L 52.174624924848466 379.32896575506027 L 52.12918500375198 379.2332901437281 L 52.12574956981667 379.22620134004825 L 52.07886081696832 379.1313603374295 L 52.07532025228021 379.1243384437438 L 52.0269969519367 379.0303463340951 L 52.023352532645966 379.02339249647645 L 51.97360896906402 378.9302635640546 L 51.96986194896342 378.9233788712705 L 51.918712406399735 378.83112740033215 L 51.91486401487722 378.8243128877143 L 51.86232277758851 378.7329531625162 L 51.85837421786456 378.7262098158927 L 51.80445557010752 378.6357561206915 L 51.80040801775496 378.6290848803622 L 51.74512624378632 378.53955149941464 L 51.740980845528135 378.53295326415116 L 51.68435022960459 378.444354481714 L 51.68010810238825 378.4378301127701 L 51.622142928766515 378.3501802131 L 51.617805159107064 378.3437305382125 L 51.55851971204384 378.2570438055662 L 51.55408735563394 378.2506696229367 L 51.493495919385936 378.16496034157086 L 51.4889700009651 378.1586624238093 L 51.42708685978903 378.07394487798064 L 51.42246837326659 378.06772397599923 L 51.35930781141916 377.9840124499645 L 51.35459772024579 377.9778692968105 L 51.29017402198371 377.89517807482633 L 51.28537325976252 377.8891133894383 L 51.2197007093425 377.8074567557615 L 51.214810180677205 377.80147124664217 L 51.147903062355944 377.7208634855293 L 51.142923643922906 377.71495785431836 L 51.074796241957124 377.6354132500263 L 51.069728783802034 377.62958819497004 L 51.000395382448424 377.5511210317554 L 50.995240709492165 377.5453772510553 L 50.924715593007456 377.46800181317485 L 50.91947450676219 377.4623400082143 L 50.84777195940308 377.38607057992465 L 50.8424452398828 377.3804914583556 L 50.76957954590599 377.3053423239136 L 50.764167953733185 377.2998466026048 L 50.6901533973954 377.225832046267 L 50.684657676086246 377.2204204540938 L 50.60950854164418 377.14755476011703 L 50.60392942007542 377.142228040597 L 50.52765999178579 377.0705254932379 L 50.52199818682502 377.0652844069924 L 50.44462274894453 376.9947592905077 L 50.43887896824465 376.98960461755166 L 50.36041180503001 376.92027121619805 L 50.35458674997362 376.9152037580428 L 50.275042145681546 376.847076356077 L 50.269136514470624 376.84209693764404 L 50.18852875335781 376.7751898193228 L 50.182543244238516 376.77029929065753 L 50.10088661056168 376.7046267402375 L 50.094821925173704 376.69982597801635 L 50.012130703189555 376.63540227975426 L 50.00598755003529 376.6306921885806 L 49.92227602400053 376.5675316267332 L 49.91605512201946 376.5629131402111 L 49.831337576190805 376.501029999035 L 49.825039658429006 376.496504080614 L 49.739330377063155 376.435912644366 L 49.732956194433854 376.4314802879562 L 49.646269461787526 376.372194840893 L 49.63981978689993 376.3678570712334 L 49.55216988722983 376.3098918976117 L 49.54564551828593 376.3056497703954 L 49.45704673584876 376.24901915447185 L 49.450448500585445 376.24487375621374 L 49.36091511963792 376.1895919822451 L 49.354243879308505 376.18554442989245 L 49.263790184107336 376.1316257821354 L 49.257046837483855 376.1276772224115 L 49.165687112285745 376.07513598512276 L 49.15887259966776 376.0712875936002 L 49.066621128729416 376.0201380510365 L 49.059736435945176 376.01639103093584 L 48.96660750352332 375.96664746735394 L 48.959653665905115 375.9630030480634 L 48.865661556256434 375.91467974771984 L 48.85863966257028 375.91113918303154 L 48.763798659951505 375.86425043018323 L 48.75670985627191 375.860814996248 L 48.661034244939735 375.8153750751515 L 48.653879738435364 375.81204606814435 L 48.5573838026465 375.7680692630564 L 48.550164865272144 375.76484799655844 L 48.4528628892833 375.7223485917358 L 48.445580861347345 375.7192363938305 L 48.34748712941523 375.6782286735299 L 48.34014342300582 375.67522688361623 L 48.24127221938714 375.63572513209425 L 48.233868321631455 375.6328350974203 L 48.13423393058292 375.59485359893375 L 48.12677140672345 375.59207667085764 L 48.02638811250177 375.5556297096632 L 48.01886860875858 375.5529672396455 L 47.91775069562047 375.51806909999993 L 47.91017594182364 375.51552243533877 L 47.808337694025795 375.48218740149866 L 47.80070950598849 375.4797578808159 L 47.698165207787625 375.44800023703806 L 47.69048548940411 375.44568918553125 L 47.58724942505694 375.41552321607236 L 47.57952017009426 375.4133319405446 L 47.47560662385748 375.3847719296613 L 47.467829917424446 375.3827017133468 L 47.363253173554774 375.35576194529597 L 47.35543119322598 375.3538140425009 L 47.25020553598012 375.3285088015391 L 47.24234055254892 375.3266844321158 L 47.13648026618358 375.3030280024998 L 47.128574644031964 375.3013283461801 L 47.022094012803855 375.2793350121666 L 47.01415020986534 375.27776120277775 L 46.90706351803118 375.2574452486234 L 46.89908408533089 375.255998368213 L 46.79140561714737 375.2373740781746 L 46.783393197907266 375.2360551510756 L 46.675137237631105 375.2191368094098 L 46.667094565923676 375.21794679627436 L 46.55827539781158 375.20274868723783 L 46.55020529675431 375.2016884790726 L 46.440837205062984 375.1882248869221 L 46.43274258454691 375.1872952991602 L 46.32283985353307 375.1755805081525 L 46.31472370747596 375.1747822747957 L 46.204300621396314 375.1648305691874 L 46.19616602452336 375.16416433705564 L 46.0852368676346 375.15599000110353 L 46.07708697178677 375.15545632422806 L 45.96566602834563 375.1490736421888 L 45.95750405831827 375.1486729763869 L 45.84560561258144 375.1440962325172 L 45.837434861505 375.14382893018507 L 45.7250731977292 375.1410724087417 L 45.716897022001625 375.140938713904 L 45.60408642444355 375.1400166991436 L 45.6 375.14 L 45.595913575556445 375.1400166991436 L 45.48310297799837 375.140938713904 L 45.474926802270794 375.1410724087417 L 45.36256513849499 375.14382893018507 L 45.35439438741856 375.1440962325172 L 45.242495941681725 375.1486729763869 L 45.234333971654365 375.1490736421888 L 45.12291302821322 375.15545632422806 L 45.11476313236538 375.15599000110353 L 45.00383397547663 375.16416433705564 L 44.99569937860368 375.1648305691874 L 44.88527629252403 375.1747822747957 L 44.877160146466935 375.1755805081525 L 44.76725741545309 375.1872952991602 L 44.759162794937005 375.1882248869221 L 44.64979470324568 375.2016884790726 L 44.641724602188404 375.20274868723783 L 44.53290543407631 375.21794679627436 L 44.52486276236889 375.2191368094098 L 44.41660680209272 375.2360551510756 L 44.40859438285261 375.2373740781746 L 44.3009159146691 375.255998368213 L 44.29293648196882 375.2574452486234 L 44.185849790134654 375.27776120277775 L 44.17790598719613 375.2793350121666 L 44.071425355968024 375.3013283461801 L 44.06351973381642 375.3030280024998 L 43.95765944745108 375.3266844321158 L 43.94979446402011 375.32850880153904 L 43.844568806774255 375.3538140425008 L 43.83674682644499 375.35576194529597 L 43.73217008257531 375.3827017133469 L 43.72439337614274 375.3847719296612 L 43.62047982990597 375.4133319405444 L 43.612750574943064 375.4155232160723 L 43.509514510595885 375.4456891855312 L 43.501834792212115 375.4480002370381 L 43.399290494011254 375.479757880816 L 43.39166230597444 375.4821874014986 L 43.2898240581766 375.51552243533865 L 43.2822493043793 375.51806909999993 L 43.18113139124118 375.55296723964557 L 43.17361188749821 375.5556297096632 L 43.07322859327654 375.59207667085764 L 43.06576606941707 375.59485359893375 L 42.96613167836854 375.6328350974203 L 42.95872778061308 375.6357251320942 L 42.8598565769944 375.6752268836161 L 42.85251287058454 375.67822867352993 L 42.75441913865242 375.7192363938306 L 42.74713711071671 375.7223485917358 L 42.64983513472786 375.76484799655844 L 42.64261619735371 375.7680692630563 L 42.546120261564845 375.8120460681442 L 42.538965755060254 375.81537507515145 L 42.44329014372808 375.86081499624794 L 42.436201340048264 375.8642504301833 L 42.341360337429485 375.91113918303165 L 42.33433844374375 375.91467974771973 L 42.24034633409508 375.96300304806323 L 42.23339249647648 375.966647467354 L 42.14026356405462 376.01639103093595 L 42.13337887127056 376.0201380510365 L 42.04112740033222 376.0712875936002 L 42.03431288771446 376.07513598512264 L 41.942953162516346 376.1276772224113 L 41.93620981589266 376.13162578213536 L 41.84575612069149 376.1855444298924 L 41.83908488036207 376.189591982245 L 41.74955149941455 376.2448737562137 L 41.74295326415123 376.2490191544718 L 41.654354481714066 376.30564977039535 L 41.64783011277018 376.30989189761164 L 41.560180213100075 376.36785707123335 L 41.55373053821246 376.3721948408929 L 41.467043805566135 376.43148028795616 L 41.46066962293682 376.43591264436594 L 41.374960341570976 376.49650408061393 L 41.36866242380938 376.50102999903476 L 41.28394487798072 376.5629131402108 L 41.27772397599927 376.5675316267333 L 41.19401244996452 376.6306921885807 L 41.187869296810455 376.6354022797542 L 41.1051780748263 376.6998259780163 L 41.09911338943847 376.70462674023725 L 41.017456755761636 376.77029929065725 L 41.01147124664216 376.7751898193227 L 40.93086348552935 376.84209693764393 L 40.924957854318464 376.8470763560769 L 40.84541325002638 376.9152037580427 L 40.83958819496996 376.92027121619793 L 40.76112103175533 376.98960461755155 L 40.755377251055464 376.9947592905076 L 40.67800181317497 377.0652844069923 L 40.672340008214206 377.07052549323777 L 40.59607057992458 377.1422280405969 L 40.590491458355814 377.1475547601169 L 40.51534232391375 377.2204204540937 L 40.50984660260473 377.2258320462667 L 40.435832046266945 377.2998466026045 L 40.43042045409387 377.3053423239136 L 40.35755476011706 377.38049145835566 L 40.35222804059704 377.38607057992436 L 40.28052549323793 377.46234000821397 L 40.275284406992434 377.4680018131748 L 40.20475929050772 377.5453772510553 L 40.19960461755167 377.55112103175514 L 40.13027121619807 377.62958819496976 L 40.12520375804276 377.63541325002626 L 40.057076356076976 377.71495785431836 L 40.052096937644166 377.7208634855291 L 39.985189819322905 377.8014712466419 L 39.98029929065739 377.80745675576145 L 39.91462674023737 377.8891133894383 L 39.90982597801639 377.8951780748261 L 39.84540227975431 377.97786929681024 L 39.84069218858084 377.9840124499643 L 39.777531626733406 378.06772397599906 L 39.77291314021097 378.07394487798047 L 39.7110299990349 378.1586624238091 L 39.70650408061406 378.1649603415707 L 39.64591264436606 378.2506696229365 L 39.641480287956156 378.257043805566 L 39.58219484089293 378.34373053821236 L 39.57785707123348 378.3501802130998 L 39.51989189761174 378.4378301127699 L 39.515649770395406 378.44435448171384 L 39.45901915447186 378.532953264151 L 39.454873756213765 378.53955149941436 L 39.39959198224512 378.62908488036186 L 39.39554442989245 378.63575612069127 L 39.341625782135424 378.72620981589245 L 39.337677222411486 378.73295316251597 L 39.28513598512278 378.8243128877141 L 39.28128759360026 378.8311274003319 L 39.230138051036576 378.92337887127024 L 39.22639103093598 378.93026356405437 L 39.17664746735403 379.0233924964762 L 39.17300304806329 379.0303463340949 L 39.12467974771979 379.12433844374357 L 39.12113918303167 379.13136033742927 L 39.074250430183326 379.226201340048 L 39.07081499624802 379.23329014372786 L 39.02537507515153 379.32896575506004 L 39.02204606814429 379.3361202615645 L 38.978069263056376 379.43261619735335 L 38.9748479965585 379.43983513472756 L 38.93234859173587 379.53713711071634 L 38.92923639383059 379.54441913865224 L 38.88822867352994 379.64251287058437 L 38.885226883616205 379.649856576994 L 38.84572513209426 379.7487277806127 L 38.84283509742038 379.7561316783682 L 38.804853598933825 379.85576606941675 L 38.80207667085771 379.86322859327623 L 38.76562970966327 379.9636118874979 L 38.76296723964558 379.971131391241 L 38.72806909999997 380.0722493043791 L 38.72552243533874 380.07982405817614 L 38.69218740149866 380.181662305974 L 38.68975788081596 380.1892904940111 L 38.65800023703811 380.29183479221194 L 38.65568918553128 380.29951451059554 L 38.62552321607238 380.40275057494273 L 38.62333194054454 380.4104798299055 L 38.5947719296613 380.51439337614227 L 38.59270171334686 380.52217008257503 L 38.56576194529598 380.6267468264447 L 38.56381404250089 380.63456880677364 L 38.53850880153908 380.7397944640195 L 38.536684432115806 380.74765944745076 L 38.51302800249978 380.8535197338161 L 38.51132834618017 380.86142535596764 L 38.489335012166634 380.96790598719576 L 38.487761202777726 380.9758497901343 L 38.46744524862339 381.0829364819685 L 38.465998368213 381.0909159146687 L 38.44737407817457 381.1985943828522 L 38.44605515107564 381.2066068020924 L 38.429136809409826 381.31486276236853 L 38.42794679627435 381.32290543407606 L 38.41274868723785 381.4317246021881 L 38.41168847907261 381.4397947032453 L 38.39822488692215 381.5491627949366 L 38.39729529916023 381.55725741545257 L 38.38558050815251 381.6671601464664 L 38.38478227479572 381.6752762925236 L 38.374830569187445 381.7856993786033 L 38.37416433705566 381.79383397547616 L 38.36599000110355 381.9047631323649 L 38.36545632422808 381.91291302821287 L 38.35907364218883 382.024333971654 L 38.35867297638689 382.0324959416813 L 38.354096232517215 382.1443943874181 L 38.3538289301851 382.1525651384944 L 38.351072408741715 382.2649268022702 L 38.350938713904 382.273102977998 L 38.3500166991436 382.38591357555606 L 38.350063828783846 382.38591396075236 L 38.349999999999994 382.39 L 38.349999999999994 402.15999999999997 L 36.85204688438335 402.15999999999997 L 36.80374914056202 402.15960455378206 L 36.757711706166056 402.1584731700826 L 36.71188845277142 402.15659577044084 L 36.66628296421027 402.15397894673464 L 36.620898892832635 402.15062918430715 L 36.57573996431656 402.1465528672241 L 36.53080998209527 402.14175628377075 L 36.48611283121549 402.1362456321381 L 36.44165248181317 402.13002702627745 L 36.39743299200517 402.12310650186356 L 36.353458510369606 402.11549002235006 L 36.309733277898765 402.1071834850641 L 36.266261629514304 402.0981927273182 L 36.22304799508138 402.0885235324923 L 36.18009689999624 402.0781816360657 L 36.137412965353995 402.06717273156926 L 36.09500090763843 402.0555024764087 L 36.052865538090764 402.0431764975716 L 36.011011761605225 402.03020039714374 L 35.96944457536135 402.01657975767006 L 35.928169067038986 402.0023201472861 L 35.88719041276959 401.98742712464485 L 35.84651387477702 401.97190624359894 L 35.80614479873554 401.95576305762825 L 35.766088610916995 401.9390031240169 L 35.72635081510338 401.92163200775605 L 35.68693698929158 401.903655285163 L 35.64785278222619 401.8850785472172 L 35.609103909827745 401.8659074026307 L 35.57069615139961 401.846147480585 L 35.53263534582814 401.825804433225 L 35.49492738762921 401.8048839378307 L 35.45757822294161 401.7833916987041 L 35.420593845499006 401.7613334487857 L 35.38398029252511 401.7387149509594 L 35.347743640672654 401.7155419991112 L 35.31189000189527 401.69182041887024 L 35.27642551941105 401.6675560681239 L 35.241356363636385 401.6427548372296 L 35.206688728216996 401.6174226490004 L 35.1724288260763 401.59156545841 L 35.13858288556142 401.5651892520694 L 35.10515714666266 401.5383000474583 L 35.07215785733257 401.51090389192797 L 35.03959126991074 401.48300686148156 L 35.00746363763277 401.4546150593099 L 34.97578121132678 401.42573461417174 L 34.944550236170926 401.39637167850884 L 34.913776948640134 401.3665324264067 L 34.883467573591716 401.3362230513583 L 34.85362832149313 401.3054497638311 L 34.82426538582714 401.274218788672 L 34.79538494068997 401.2425363623671 L 34.76699313852062 401.21040873009173 L 34.73909610806968 401.1778421426646 L 34.71169995254205 401.1448428533377 L 34.684810747931884 401.1114171144402 L 34.65843454158954 401.07757117392305 L 34.63257735100015 401.0433112717837 L 34.6072451627696 401.0086436363624 L 34.582443931876014 400.97357448058875 L 34.558179581129856 400.9381099981048 L 34.53445800088887 400.9022563593275 L 34.511285049039934 400.86601970747375 L 34.488666551214486 400.8294061545013 L 34.46660830129595 400.79242177705845 L 34.445116062170406 400.7550726123726 L 34.42419556677442 400.71736465417075 L 34.4038525194145 400.6793038485993 L 34.384092597369964 400.64089609017356 L 34.364921452781324 400.6021472177707 L 34.34634471483819 400.56306301071095 L 34.32836799224389 400.5236491848964 L 34.31099687598282 400.48391138908227 L 34.294236942371946 400.4438552012648 L 34.278093756401105 400.4034861252231 L 34.26257287535449 400.3628095872286 L 34.247679852713894 400.32183093296106 L 34.23342024233013 400.2805554246391 L 34.219799602856504 400.23898823839556 L 34.20682350242837 400.19713446190906 L 34.19449752359057 400.1549990923591 L 34.18282726843098 400.11258703464677 L 34.17181836393407 400.0699031000031 L 34.16147646750841 400.02695200492144 L 34.15180727268169 399.98373837048496 L 34.14281651493538 399.9402667220987 L 34.134509977649905 399.89654148963024 L 34.12689349813633 399.8525670079942 L 34.11997297372267 399.8083475181877 L 34.11375436786181 399.7638871687841 L 34.108243716229495 399.719190017907 L 34.10344713277572 399.6742600356817 L 34.09937081569285 399.62910110716757 L 34.09602105326523 399.5837170357879 L 34.09340422955915 399.53811154722956 L 34.09152682991738 399.4922882938328 L 34.09039544621796 399.44625085943983 L 34.09000000000002 399.3979531156146 L 34.089999999999996 399.29505050505037 L 34.089999999999996 389.01 L 34.089983260917315 389.00590869183657 L 34.08923832559326 388.9148729698581 L 34.089104319072185 388.9066873533448 L 34.08687722206394 388.81601213879753 L 34.08660931797044 388.8078324159071 L 34.08291162272393 388.71752927223696 L 34.082510088377354 388.70935881128855 L 34.07735335833847 388.61943930194144 L 34.0768185698945 388.61128140621133 L 34.07021436850915 388.52175709463313 L 34.06954680589037 388.51361499727716 L 34.06150669660447 388.42449744691385 L 34.060706938176125 388.4163743063471 L 34.051242484435576 388.3276750806445 L 34.05031120146459 388.3195739763901 L 34.0394339667153 388.23130463879414 L 34.038371917650664 388.22322856780943 L 34.02609346533854 388.13540068176604 L 34.024901489951134 388.12735255525 L 34.01123338352209 388.0399776842051 L 34.009912396941374 388.03196032488717 L 33.994866199841304 387.94505003228664 L 33.993417186525654 387.9370661721968 L 33.97700446220047 387.8506320214866 L 33.97542846987666 387.8426843001987 L 33.957660781772276 387.7567378548246 L 33.95595891537822 387.7488288181651 L 33.93684782694053 387.66338164157315 L 33.93502124260446 387.65551374078706 L 33.914578317279386 387.5705773964231 L 33.91262821636589 387.56275298777933 L 33.890865017599324 387.4783390390893 L 33.88879264085163 387.4705603839129 L 33.86572073208948 387.3866803943427 L 33.863527353895165 387.3789496594567 L 33.83915829858335 387.29561519245215 L 33.83684522138816 387.28793445100723 L 33.81119058297258 387.20515707001437 L 33.80875913186582 387.1975283026905 L 33.78183047379238 387.11531957115517 L 33.779281991283796 387.1077446677086 L 33.751090876998404 387.0261161490767 L 33.74842671800589 387.0185969102144 L 33.71898471095445 386.9375601679319 L 33.71620623801851 386.9300983074884 L 33.685524901646936 386.8496649050011 L 33.68263348038595 386.84226205239304 L 33.65072437814015 386.7624435531469 L 33.647721372959694 386.7551012560863 L 33.61459606828557 386.67590922352724 L 33.611482838350646 386.6686289509641 L 33.5771528946941 386.5900749485381 L 33.57393079017397 386.58285809381374 L 33.53840777098092 386.50495368496655 L 33.535078129571566 386.4978015691506 L 33.498373598287905 386.42055831732824 L 33.49493774201936 386.4134721927207 L 33.45706326209101 386.33690166136904 L 33.453522494420355 386.3298827151413 L 33.414489629293215 386.2539964677062 L 33.41084523248654 386.2470458256611 L 33.37066554560651 386.17185542558855 L 33.366918778411325 386.16497415602083 L 33.32560383322432 386.0904911667567 L 33.3217559288291 386.0836802843885 L 33.27931728878104 386.00991626937866 L 33.275369453063135 386.0031767393561 L 33.231818681599904 385.93014326204656 L 33.22777209165835 385.92347600397727 L 33.18312075222587 385.85118462781384 L 33.178976555193756 385.84459051982503 L 33.13323621123792 385.7730528082536 L 33.128995523373476 385.7665326910588 L 33.08217773834021 385.6957602075254 L 33.07784164438973 385.6893148884814 L 33.02995798172492 385.61931919643183 L 33.0255275345516 385.6129494535696 L 32.97658955770117 385.54374211644983 L 32.97206577817679 385.5374487024691 L 32.92208505058663 385.469041283725 L 32.91746892773753 385.4628249299356 L 32.866457012853566 385.39522899301306 L 32.861749504254284 385.38909041321097 L 32.80971796552241 385.32231752155593 L 32.804919997933894 385.3162574158252 L 32.75188039880002 385.25031913288353 L 32.74699286904037 385.24433819130786 L 32.692956772950396 385.1792460805255 L 32.687980548995675 385.17334498680333 L 32.63295951939552 385.1091106116262 L 32.62789544170088 385.10329004657575 L 32.57190104203645 385.0399249704497 L 32.56674992507085 385.034185615396 L 32.509793718788046 384.971701401767 L 32.50455635277726 384.9660439418028 L 32.44664990332198 384.90445215411677 L 32.4413270561889 384.8988772812245 L 32.38248192700707 384.83818948292725 L 32.37707434650472 384.83269789895763 L 32.31730210104224 384.7729256534952 L 32.31181051707288 384.7675180729931 L 32.25112271877565 384.7086729438112 L 32.24554784588325 384.703350096678 L 32.18395605819719 384.6454436472227 L 32.17829859823288 384.6402062812119 L 32.11581438460388 384.5832500749291 L 32.11007502955037 384.5780989579636 L 32.046709953424354 384.5221045582992 L 32.04088938837377 384.51704048060446 L 31.976655013196634 384.4620194510043 L 31.970753919474564 384.45704322704967 L 31.905661808692216 384.4030071309597 L 31.89968086711647 384.39811960119994 L 31.83374258417482 384.3450800020661 L 31.827682478444014 384.3402820344775 L 31.76090958678897 384.2882504957457 L 31.75477100698704 384.2835429871466 L 31.6871750700645 384.2325310722626 L 31.68095871627483 384.2279149494132 L 31.61255129753071 384.1779342218231 L 31.60625788355035 384.17341044229903 L 31.537050546430553 384.12447246544855 L 31.53068080356814 384.12004201827506 L 31.460685111518575 384.07215835561027 L 31.454239792474613 384.0678222616598 L 31.383467308941185 384.0210044766265 L 31.3769471917463 384.01676378876203 L 31.30540948017492 383.97102344480624 L 31.298815372186255 383.9668792477742 L 31.226523996022824 383.9222279083417 L 31.21985673795338 383.91818131840006 L 31.146823260643806 383.8746305469368 L 31.14008373062126 383.87068271121893 L 31.066319715611456 383.8282440711709 L 31.05950883324342 383.8243961667758 L 30.985025843979287 383.78308122158876 L 30.97814457441145 383.7793344543935 L 30.902954174338895 383.73915476751347 L 30.896003532293797 383.73551037070683 L 30.820117284858725 383.6964775055797 L 30.81309833863092 383.692936737909 L 30.736527807279245 383.65506225798066 L 30.729441682671712 383.6516264017121 L 30.652198430849335 383.6149218704285 L 30.645046315033618 383.6115922290192 L 30.56714190618645 383.57606920982613 L 30.5599250514618 383.57284710530587 L 30.481371049035744 383.53851716164934 L 30.47409077647271 383.5354039317144 L 30.394898743913675 383.5022786270403 L 30.387556446853278 383.49927562185997 L 30.30773794760717 383.46736651961413 L 30.300335094998985 383.4644750983531 L 30.21990169251171 383.4337937619815 L 30.21243983206778 383.43101528904543 L 30.13140308978525 383.40157328199405 L 30.123883850923292 383.39890912300166 L 30.042255332291408 383.37071800871627 L 30.034680428845007 383.36816952620774 L 29.952471697309676 383.34124086813426 L 29.944842929985562 383.33880941702745 L 29.862065548992692 383.3131547786119 L 29.85438480754786 383.3108417014167 L 29.771050340543358 383.28647264610487 L 29.763319605657152 383.2842792679105 L 29.679439616086928 383.2612073591484 L 29.67166096091071 383.2591349824007 L 29.58724701222067 383.23737178363416 L 29.579422603576873 383.2354216827207 L 29.494486259212916 383.2149787573956 L 29.48661835842681 383.21315217305954 L 29.401171181834854 383.19404108462186 L 29.393262145175573 383.1923392182278 L 29.307315699801517 383.1745715301234 L 29.29936797851323 383.1729955377995 L 29.21293382780299 383.15658281347436 L 29.204949967713528 383.1551338001588 L 29.118039675113 383.1400876030587 L 29.110022315794716 383.1387666164779 L 29.02264744474981 383.1250985100489 L 29.014599318234126 383.12390653466156 L 28.92677143219075 383.1116280823494 L 28.918695361205792 383.1105660332847 L 28.830426023609856 383.09968879853545 L 28.82232491935537 383.09875751556444 L 28.73362569365278 383.0892930618239 L 28.72550255308614 383.0884933033956 L 28.636385002722797 383.0804531941097 L 28.628242905366914 383.0797856314909 L 28.53871859378873 383.07318143010554 L 28.530560698058622 383.0726466416616 L 28.440641188711506 383.0674899116227 L 28.432470727762936 383.0670883772761 L 28.34216758409279 383.0633906820296 L 28.333987861202445 383.06312277793614 L 28.243312646655177 383.0608956809279 L 28.235127030141964 383.0607616744068 L 28.144091308163482 383.06001673908276 L 28.144088522756153 383.0603571331531 L 28.135908691836523 383.0600167390827 L 28.04487296985804 383.06076167440676 L 28.036687353344828 383.06089568092784 L 27.94601213879756 383.0631227779361 L 27.937832415907216 383.06339068202954 L 27.847529272237068 383.06708837727604 L 27.839358811288502 383.06748991162266 L 27.749439301941383 383.07264664166155 L 27.74128140621127 383.0731814301055 L 27.651757094633087 383.07978563149084 L 27.6436149972772 383.0804531941096 L 27.55449744691386 383.0884933033955 L 27.546374306347225 383.08929306182387 L 27.457675080644634 383.0987575155644 L 27.449573976389836 383.0996887985354 L 27.361304638793897 383.1105660332847 L 27.353228567809566 383.11162808234934 L 27.26540068176619 383.12390653466144 L 27.257352555249874 383.1250985100489 L 27.16997768420497 383.13876661647794 L 27.161960324887314 383.14008760305865 L 27.075050032286786 383.1551338001587 L 27.067066172197013 383.1565828134743 L 26.98063202148677 383.17299553779947 L 26.972684300198484 383.17457153012333 L 26.88673785482443 383.19233921822774 L 26.878828818165147 383.1940410846218 L 26.79338164157319 383.2131521730595 L 26.785513740787085 383.21497875739556 L 26.700577396423128 383.23542168272064 L 26.692752987779333 383.2373717836341 L 26.60833903908929 383.25913498240067 L 26.600560383913074 383.26120735914833 L 26.51668039434285 383.28427926791045 L 26.508949659456643 383.2864726461048 L 26.425615192452142 383.3108417014166 L 26.41793445100731 383.3131547786118 L 26.33515707001444 383.3388094170274 L 26.327528302690325 383.3412408681342 L 26.245319571154994 383.3681695262077 L 26.237744667708593 383.3707180087162 L 26.15611614907671 383.3989091230016 L 26.14859691021446 383.4015732819941 L 26.06756016793193 383.43101528904555 L 26.060098307488293 383.4337937619815 L 25.979664905001016 383.4644750983531 L 25.972262052393116 383.467366519614 L 25.892443553147007 383.4992756218598 L 25.885101256086326 383.50227862704025 L 25.80590922352729 383.53540393171437 L 25.798628950964257 383.5385171616493 L 25.7200749485382 383.5728471053058 L 25.71285809381355 383.5760692098261 L 25.634953684966383 383.61159222901915 L 25.627801569150666 383.6149218704284 L 25.55055831732829 383.65162640171206 L 25.543472192720763 383.6550622579806 L 25.466901661369086 383.69293673790895 L 25.459882715141266 383.69647750557965 L 25.383996467706197 383.7355103707068 L 25.377045825661106 383.7391547675134 L 25.301855425588553 383.77933445439345 L 25.294974156020714 383.7830812215887 L 25.22049116675658 383.8243961667757 L 25.213680284388555 383.82824407117084 L 25.139916269378748 383.8706827112189 L 25.13317673935619 383.87463054693677 L 25.06014326204662 383.9181813184 L 25.053476003977174 383.92222790834165 L 24.981184627813743 383.96687924777416 L 24.974590519825078 383.9710234448062 L 24.903052808253697 384.016763788762 L 24.896532691058805 384.0210044766265 L 24.82576020752538 384.0678222616598 L 24.819314888481426 384.0721583556102 L 24.749319196431863 384.120042018275 L 24.742949453569672 384.1244724654483 L 24.673742116449876 384.17341044229875 L 24.667448702469073 384.17793422182314 L 24.599041283724954 384.22791494941333 L 24.592824929935713 384.23253107226236 L 24.525228993013176 384.2835429871463 L 24.519090413210822 384.28825049574573 L 24.452317521555777 384.34028203447764 L 24.44625741582519 384.345080002066 L 24.38031913288354 384.3981196011999 L 24.37433819130777 384.4030071309597 L 24.309246080525426 384.45704322704967 L 24.303344986803367 384.46201945100427 L 24.23911061162623 384.5170404806044 L 24.233290046575647 384.52210455829913 L 24.169924970449628 384.57809895796356 L 24.16418561539612 384.583250074929 L 24.101701401767126 384.6402062812118 L 24.096043941802815 384.64544364722263 L 24.034452154116753 384.7033500966779 L 24.028877281224524 384.708672943811 L 23.968189482927297 384.7675180729928 L 23.962697898957764 384.77292565349507 L 23.90292565349528 384.8326978989575 L 23.897518072992934 384.83818948292713 L 23.83867294381111 384.8988772812244 L 23.833350096677858 384.9044521541168 L 23.775443647222584 384.9660439418029 L 23.77020628121196 384.97170140176695 L 23.713250074929153 385.0341856153959 L 23.70809895796371 385.0399249704495 L 23.65210455829928 385.10329004657547 L 23.647040480604478 385.1091106116261 L 23.592019451004322 385.1733449868032 L 23.58704322704958 385.17924608052544 L 23.533007130959614 385.2443381913078 L 23.52811960119999 385.2503191328834 L 23.475080002066115 385.3162574158251 L 23.470282034477595 385.3223175215558 L 23.41825049574572 385.38909041321085 L 23.413542987146453 385.39522899301295 L 23.362531072262485 385.4628249299355 L 23.357914949413363 385.4690412837249 L 23.307934221823206 385.53744870246896 L 23.303410442298848 385.5437421164497 L 23.254472465448412 385.6129494535695 L 23.250042018275074 385.6193191964317 L 23.20215835561027 385.6893148884813 L 23.19782226165981 385.69576020752527 L 23.151004476626536 385.76653269105867 L 23.146763788762073 385.7730528082535 L 23.10102344480624 385.8445905198249 L 23.096879247774133 385.8511846278137 L 23.05222790834165 385.92347600397716 L 23.0481813184001 385.93014326204644 L 23.00463054693687 386.003176739356 L 23.000682711218975 386.00991626937855 L 22.95824407117091 386.0836802843884 L 22.95439616677575 386.09049116675646 L 22.91308122158875 386.16497415602055 L 22.909334454393417 386.17185542558855 L 22.869154767513393 386.24704582566113 L 22.86551037070686 386.253996467706 L 22.82647750557972 386.329882715141 L 22.82293673790894 386.336901661369 L 22.785062257980588 386.4134721927207 L 22.78162640171215 386.420558317328 L 22.74492187042849 386.49780156915034 L 22.741592229019094 386.5049536849664 L 22.70606920982604 386.58285809381357 L 22.702847105305835 386.590074948538 L 22.668517161649294 386.6686289509641 L 22.665403931714494 386.675909223527 L 22.632278627040368 386.755101256086 L 22.62927562185985 386.76244355314674 L 22.59736651961405 386.84226205239287 L 22.594475098353108 386.8496649050008 L 22.563793761981536 386.93009830748804 L 22.56101528904551 386.9375601679318 L 22.531573281994078 387.01859691021434 L 22.528909123001604 387.02611614907653 L 22.500718008716213 387.1077446677084 L 22.498169526207633 387.11531957115494 L 22.471240868134192 387.1975283026903 L 22.46880941702742 387.2051570700142 L 22.44315477861184 387.28793445100706 L 22.440841701416684 387.29561519245186 L 22.416472646104868 387.37894965945634 L 22.41427926791053 387.3866803943425 L 22.391207359148382 387.4705603839127 L 22.389134982400684 387.47833903908906 L 22.36737178363412 387.5627529877791 L 22.365421682720605 387.570577396423 L 22.344978757395527 387.655513740787 L 22.343152173059497 387.6633816415729 L 22.324041084621808 387.74882881816484 L 22.322339218227736 387.75673785482434 L 22.304571530123347 387.8426843001984 L 22.30299553779953 387.85063202148643 L 22.286582813474347 387.93706617219664 L 22.285133800158707 387.9450500322864 L 22.270087603058638 388.03196032488694 L 22.268766616477922 388.0399776842048 L 22.255098510048875 388.12735255524973 L 22.25390653466146 388.1354006817659 L 22.24162808234934 388.22322856780926 L 22.240566033284708 388.2313046387939 L 22.22968879853542 388.31957397638985 L 22.228757515564435 388.3276750806442 L 22.219293061823887 388.41637430634677 L 22.21849330339554 388.4244974469136 L 22.21045319410964 388.513614997277 L 22.20978563149086 388.5217570946329 L 22.203181430105513 388.61128140621105 L 22.202646641661545 388.61943930194116 L 22.19748991162266 388.70935881128827 L 22.197088377276085 388.7175292722367 L 22.19339068202957 388.80783241590683 L 22.193122777936072 388.81601213879725 L 22.190895680927827 388.9066873533445 L 22.190761674406758 388.9148729698578 L 22.1900167390827 389.0059086918363 L 22.19012770041971 389.0059095998207 L 22.189999999999998 389.01 Z" id="element_57" /></svg>