<svg xmlns="http://www.w3.org/2000/svg" viewBox="0.0 0.0 200.0 200.0" height="200.0px" width="200.0px"><path fill="#d8ecfe" fill-opacity="1.0"  filling="0" d="M92.446533203125 22.96056365966797 L107.55345916748047 22.96056365966797 L107.55345916748047 43.92666244506836 L92.446533203125 43.92666244506836 L92.446533203125 22.96056365966797 Z"></path>
<path fill="#a6d6f8" fill-opacity="1.0"  filling="0" d="M140.41954040527344 22.96056365966797 L85.97994995117188 22.96056365966797 C80.45083618164062 22.96056365966797 75.96856689453125 18.478294372558594 75.96856689453125 12.949180603027344 C75.96856689453125 6.881416320800781 81.32307434082031 2.208526611328125 87.33537292480469 3.0299758911132812 L140.7898406982422 10.333251953125 C142.14450073242188 10.518394470214844 143.15382385253906 11.675392150878906 143.15382385253906 13.042533874511719 L143.15382385253906 20.226280212402344 C143.15382385253906 21.73638916015625 141.92965698242188 22.96056365966797 140.41954040527344 22.96056365966797 Z"></path>
<path fill="#8ecbfb" fill-opacity="1.0"  filling="0" d="M131.57843017578125 9.075088500976562 L131.4354705810547 20.226669311523438 C131.4354705810547 21.736778259277344 130.21128845214844 22.960952758789062 128.70118713378906 22.960952758789062 L140.41954040527344 22.960952758789062 C141.92965698242188 22.960952758789062 143.15382385253906 21.736778259277344 143.15382385253906 20.226669311523438 L143.15382385253906 13.042533874511719 C143.15382385253906 11.675392150878906 142.14410400390625 10.518394470214844 140.7898406982422 10.333251953125 L131.57843017578125 9.075088500976562 Z"></path>
<path fill="#eaf6ff" fill-opacity="1.0"  filling="0" d="M124.03142547607422 64.04122924804688 L75.96856689453125 64.04122924804688 L75.96856689453125 44.24969482421875 C75.96856689453125 42.09235382080078 77.71733856201172 40.34357452392578 79.87467956542969 40.34357452392578 L120.12530517578125 40.34357452392578 C122.28264617919922 40.34357452392578 124.03142547607422 42.09235382080078 124.03142547607422 44.24969482421875 L124.03142547607422 64.04122924804688 Z"></path>
<path fill="#d8ecfe" fill-opacity="1.0"  filling="0" d="M120.12530517578125 40.34357452392578 L108.40694427490234 40.34357452392578 C110.56428527832031 40.34357452392578 112.31306457519531 42.09235382080078 112.31306457519531 44.24969482421875 L112.31306457519531 64.04122924804688 L124.03142547607422 64.04122924804688 L124.03142547607422 44.24969482421875 C124.03142547607422 42.09235382080078 122.28264617919922 40.34357452392578 120.12530517578125 40.34357452392578 Z"></path>
<path fill="#a6d6f8" fill-opacity="1.0"  filling="0" d="M126.33563995361328 197.07040405273438 L73.66435241699219 197.07040405273438 C67.57392120361328 197.07040405273438 62.49870300292969 192.40493774414062 61.987388610839844 186.33599853515625 L52.243961334228516 70.71483612060547 C51.66781234741211 63.87912368774414 57.06098937988281 58.01252365112305 63.920921325683594 58.01252365112305 L136.07907104492188 58.01252365112305 C142.93899536132812 58.01252365112305 148.33218383789062 63.87912368774414 147.7560272216797 70.71483612060547 L138.01260375976562 186.33599853515625 C137.5012969970703 192.40493774414062 132.42605590820312 197.07040405273438 126.33563995361328 197.07040405273438 Z"></path>
<path fill="#8ecbfb" fill-opacity="1.0"  filling="0" d="M136.07907104492188 58.01252365112305 L124.36070251464844 58.01252365112305 C131.22064208984375 58.01252365112305 136.6138153076172 63.87912368774414 136.03765869140625 70.71483612060547 L126.29423522949219 186.33599853515625 C125.78292846679688 192.40493774414062 120.70770263671875 197.07040405273438 114.61727905273438 197.07040405273438 L126.33563995361328 197.07040405273438 C132.42605590820312 197.07040405273438 137.5012969970703 192.40493774414062 138.01260375976562 186.33599853515625 L147.7560272216797 70.71483612060547 C148.33218383789062 63.87912368774414 142.93899536132812 58.01252365112305 136.07907104492188 58.01252365112305 Z"></path>
<path fill="#fff" fill-opacity="1.0"  filling="0" d="M73.4530258178711 182.84744262695312 L64.17051696777344 72.6948471069336 C64.03614807128906 71.09998321533203 65.2943115234375 69.73088073730469 66.8950424194336 69.73088073730469 L133.10455322265625 69.73088073730469 C134.70529174804688 69.73088073730469 135.96343994140625 71.0995864868164 135.82907104492188 72.6948471069336 L126.54656982421875 182.84744262695312 C126.42743682861328 184.26339721679688 125.24309539794922 185.35203552246094 123.82205200195312 185.35203552246094 L76.17793273925781 185.35203552246094 C74.75650024414062 185.35203552246094 73.57255554199219 184.26339721679688 73.4530258178711 182.84744262695312 Z"></path>
<path fill="#a6d6f8" fill-opacity="1.0"  filling="0" d="M119.33509063720703 121.68228149414062 A19.335294723510742 19.335294723510742 0.0 1 1 80.66450500488281 121.68228149414062 A19.335294723510742 19.335294723510742 0.0 1 1 119.33509063720703 121.68228149414062 Z"></path>
<path fill="#8ecbfb" fill-opacity="1.0"  filling="0" d="M99.99979400634766 102.34698486328125 C97.95690155029297 102.34698486328125 95.98899841308594 102.66612243652344 94.14061737060547 103.25321197509766 C101.95442199707031 105.73516082763672 107.61672973632812 113.046630859375 107.61672973632812 121.68228149414062 C107.61672973632812 130.31793212890625 101.95442199707031 137.6290283203125 94.14061737060547 140.11135864257812 C95.98899841308594 140.69845581054688 97.95690155029297 141.017578125 99.99979400634766 141.017578125 C110.67835235595703 141.017578125 119.33509063720703 132.36083984375 119.33509063720703 121.68228149414062 C119.33509063720703 111.00372314453125 110.67835235595703 102.34698486328125 99.99979400634766 102.34698486328125 Z"></path>
<path fill="" fill-opacity="1.0"  filling="0" d="M133.10455322265625 66.8012924194336 L66.89543151855469 66.8012924194336 C65.31501770019531 66.8012924194336 63.795143127441406 67.46846008300781 62.72564697265625 68.63208770751953 C61.65615463256836 69.79572296142578 61.11866760253906 71.36637878417969 61.25148010253906 72.94093322753906 L67.47041320800781 146.7384796142578 C67.6063461303711 148.3505401611328 69.01957702636719 149.54112243652344 70.63593292236328 149.4118194580078 C72.24798583984375 149.27589416503906 73.44482421875 147.8587646484375 73.30928039550781 146.24630737304688 L67.10831451416016 72.66047668457031 L132.8924560546875 72.66047668457031 L123.64276885986328 182.42245483398438 L76.35722351074219 182.42245483398438 L74.45689392089844 159.8700714111328 C74.32096862792969 158.2580108642578 72.90773010253906 157.0674285888672 71.29137420654297 157.1967315673828 C69.6793212890625 157.33265686035156 68.48249053955078 158.74978637695312 68.61802673339844 160.36224365234375 L70.5335922241211 183.093505859375 C70.77889251708984 186.0028076171875 73.25811004638672 188.2816162109375 76.17754364013672 188.2816162109375 L123.8216552734375 188.2816162109375 C126.7410888671875 188.2816162109375 129.2199249267578 186.0028076171875 129.46522521972656 183.093505859375 L138.7481231689453 72.94132232666016 C138.88092041015625 71.36676788330078 138.34384155273438 69.7961196899414 137.2743377685547 68.63248443603516 C136.20523071289062 67.4688491821289 134.68496704101562 66.8012924194336 133.10455322265625 66.8012924194336 Z M146.86268615722656 59.817543029785156 C144.09677124023438 56.808658599853516 140.16604614257812 55.08293151855469 136.07907104492188 55.08293151855469 L126.95984649658203 55.08293151855469 L126.95984649658203 44.25126266479492 C126.95984649658203 40.48224639892578 123.89314270019531 37.41555404663086 120.12413787841797 37.41555404663086 L110.48265075683594 37.41555404663086 L110.48265075683594 25.890541076660156 L140.41954040527344 25.890541076660156 C143.54248046875 25.890541076660156 146.0834197998047 23.34961700439453 146.0834197998047 20.226669311523438 L146.0834197998047 13.042533874511719 C146.0834197998047 10.224655151367188 143.97802734375 7.8118438720703125 141.1863250732422 7.431007385253906 L121.04792785644531 4.679527282714844 C119.44641876220703 4.461181640625 117.96755981445312 5.582237243652344 117.74880981445312 7.185310363769531 C117.53007507324219 8.788375854492188 118.65191650390625 10.265678405761719 120.25459289550781 10.484420776367188 L140.2242431640625 13.212844848632812 L140.2242431640625 20.030975341796875 L85.97994995117188 20.030975341796875 C82.07500457763672 20.030975341796875 78.89815521240234 16.8541259765625 78.89815521240234 12.949180603027344 C78.89815521240234 8.713775634765625 82.75740051269531 5.342010498046875 86.93851470947266 5.932220458984375 L106.65739440917969 8.626274108886719 C108.25890350341797 8.847358703613281 109.73775482177734 7.723182678222656 109.95649719238281 6.120506286621094 C110.17562866210938 4.517433166503906 109.05340576171875 3.0401382446289062 107.45072937011719 2.8213958740234375 L87.73146057128906 0.12734222412109375 C80.03561401367188 -0.9749679565429688 73.03858947753906 5.216621398925781 73.03858947753906 12.949180603027344 C73.03858947753906 20.084884643554688 78.84386444091797 25.890159606933594 85.97956848144531 25.890159606933594 L89.51655578613281 25.890159606933594 L89.51655578613281 37.415164947509766 L79.87507629394531 37.415164947509766 C76.10606384277344 37.415164947509766 73.03936767578125 40.48185348510742 73.03936767578125 44.250877380371094 L73.03936767578125 55.08254623413086 L63.920143127441406 55.08254623413086 C59.83316421508789 55.08254623413086 55.90243911743164 56.80826950073242 53.136512756347656 59.8171501159668 C50.37019729614258 62.82603454589844 48.98078918457031 66.88800811767578 49.323753356933594 70.96052551269531 L59.06717300415039 186.58169555664062 C59.70153045654297 194.10565185546875 66.113037109375 199.99960327148438 73.66356658935547 199.99960327148438 L126.33563995361328 199.99960327148438 C133.88656616210938 199.99960327148438 140.2976837158203 194.10565185546875 140.931640625 186.58169555664062 L150.67506408691406 70.96052551269531 C151.01841735839844 66.88839721679688 149.62899780273438 62.8264274597168 146.86268615722656 59.817543029785156 Z M95.37612915039062 25.890541076660156 L104.62347412109375 25.890541076660156 L104.62347412109375 37.41555404663086 L95.37612915039062 37.41555404663086 L95.37612915039062 25.890541076660156 Z M78.89894104003906 44.250877380371094 C78.89894104003906 43.71221923828125 79.33720397949219 43.27434539794922 79.87547302246094 43.27434539794922 L120.12413787841797 43.27434539794922 C120.66278839111328 43.27434539794922 121.10066223144531 43.71221923828125 121.10066223144531 44.250877380371094 L121.10066223144531 55.08254623413086 L78.89894104003906 55.08254623413086 L78.89894104003906 44.250877380371094 Z M144.8369903564453 70.4691390991211 L135.09356689453125 186.09030151367188 C134.71310424804688 190.60498046875 130.8667449951172 194.14080810546875 126.33602905273438 194.14080810546875 L73.66435241699219 194.14080810546875 C69.13402557373047 194.14080810546875 65.28728485107422 190.60458374023438 64.90682983398438 186.09030151367188 L55.16340255737305 70.4691390991211 C54.95442199707031 67.98953247070312 55.76689910888672 65.61500549316406 57.45082092285156 63.78303146362305 C59.13514709472656 61.951454162597656 61.43272018432617 60.9425048828125 63.920921325683594 60.9425048828125 L136.07907104492188 60.9425048828125 C138.56765747070312 60.9425048828125 140.86563110351562 61.951454162597656 142.54916381835938 63.78303146362305 C144.23348999023438 65.61500549316406 145.04595947265625 67.98953247070312 144.8369903564453 70.4691390991211 Z M119.33548736572266 161.91531372070312 C119.33548736572266 160.29701232910156 118.02420043945312 158.9857177734375 116.40589904785156 158.9857177734375 L83.594482421875 158.9857177734375 C81.97657012939453 158.9857177734375 80.6648941040039 160.29701232910156 80.6648941040039 161.91531372070312 C80.6648941040039 163.53363037109375 81.97657012939453 164.84490966796875 83.594482421875 164.84490966796875 L116.40589904785156 164.84490966796875 C118.02381134033203 164.84490966796875 119.33548736572266 163.53363037109375 119.33548736572266 161.91531372070312 Z M99.99979400634766 99.41739654541016 C87.72286224365234 99.41739654541016 77.73490905761719 109.40534973144531 77.73490905761719 121.68228149414062 C77.73490905761719 133.95921325683594 87.72286224365234 143.94717407226562 99.99979400634766 143.94717407226562 C112.2767333984375 143.94717407226562 122.26467895507812 133.95921325683594 122.26467895507812 121.68228149414062 C122.26467895507812 109.40534973144531 112.2767333984375 99.41739654541016 99.99979400634766 99.41739654541016 Z M99.99979400634766 138.08798217773438 C90.95361328125 138.08798217773438 83.5940933227539 130.72845458984375 83.5940933227539 121.68228149414062 C83.5940933227539 112.63610076904297 90.95361328125 105.27657318115234 99.99979400634766 105.27657318115234 C109.04598236083984 105.27657318115234 116.40550231933594 112.63610076904297 116.40550231933594 121.68228149414062 C116.40550231933594 130.72845458984375 109.04598236083984 138.08798217773438 99.99979400634766 138.08798217773438 Z M89.45366668701172 170.70408630371094 C87.83575439453125 170.70408630371094 86.52407836914062 172.015380859375 86.52407836914062 173.6336669921875 C86.52407836914062 175.25198364257812 87.83575439453125 176.56326293945312 89.45366668701172 176.56326293945312 L110.54671478271484 176.56326293945312 C112.16502380371094 176.56326293945312 113.47630310058594 175.25198364257812 113.47630310058594 173.6336669921875 C113.47630310058594 172.015380859375 112.16502380371094 170.70408630371094 110.54671478271484 170.70408630371094 L89.45366668701172 170.70408630371094 Z M125.19466400146484 81.4492416381836 C125.19466400146484 79.8309326171875 123.88338470458984 78.5196533203125 122.26507568359375 78.5196533203125 L77.73530578613281 78.5196533203125 C76.11739349365234 78.5196533203125 74.80571746826172 79.8309326171875 74.80571746826172 81.4492416381836 C74.80571746826172 83.06755065917969 76.11739349365234 84.37882995605469 77.73530578613281 84.37882995605469 L122.26507568359375 84.37882995605469 C123.88298797607422 84.37882995605469 125.19466400146484 83.06755065917969 125.19466400146484 81.4492416381836 Z M107.03120422363281 118.752685546875 L102.92977905273438 118.752685546875 L102.92977905273438 114.65126037597656 C102.92977905273438 113.032958984375 101.61810302734375 111.72167205810547 100.00019073486328 111.72167205810547 C98.38227844238281 111.72167205810547 97.07060241699219 113.032958984375 97.07060241699219 114.65126037597656 L97.07060241699219 118.752685546875 L92.96917724609375 118.752685546875 C91.35125732421875 118.752685546875 90.03958129882812 120.06397247314453 90.03958129882812 121.68228149414062 C90.03958129882812 123.30059051513672 91.35125732421875 124.61186981201172 92.96917724609375 124.61186981201172 L97.07060241699219 124.61186981201172 L97.07060241699219 128.7133026123047 C97.07060241699219 130.33160400390625 98.38227844238281 131.64288330078125 100.00019073486328 131.64288330078125 C101.61810302734375 131.64288330078125 102.92977905273438 130.33160400390625 102.92977905273438 128.7133026123047 L102.92977905273438 124.61186981201172 L107.03120422363281 124.61186981201172 C108.6495132446289 124.61186981201172 109.96080017089844 123.30059051513672 109.96080017089844 121.68228149414062 C109.96080017089844 120.06397247314453 108.64912414550781 118.752685546875 107.03120422363281 118.752685546875 Z"></path></svg>