<svg xmlns="http://www.w3.org/2000/svg" viewBox="0.0 0.0 200.0 200.0" height="200.0px" width="200.0px"><path fill="#edf2ff" fill-opacity="1.0"  filling="0" d="M25.0 25.0 L175.0 25.0 A16.66666603088379 16.66666603088379 0.0 0 1 191.66665649414062 41.66666793823242 L191.66665649414062 141.66665649414062 A16.66666603088379 16.66666603088379 0.0 0 1 175.0 158.3333282470703 L25.0 158.3333282470703 A16.66666603088379 16.66666603088379 0.0 0 1 8.333335876464844 141.66665649414062 L8.333335876464844 41.66666793823242 A16.66666603088379 16.66666603088379 0.0 0 1 25.0 25.0 Z"></path>
<path fill="#bed2e8" fill-opacity="1.0"  filling="0" d="M43.5 158.3333282470703 L25.0 158.3333282470703 A16.71666717529297 16.71666717529297 0.0 0 1 8.333335876464844 141.66665649414062 L8.333335876464844 41.66666793823242 A16.71666717529297 16.71666717529297 0.0 0 1 25.0 25.0 L43.5 25.0 A18.724998474121094 18.724998474121094 0.0 0 0 33.333335876464844 41.66666793823242 L33.333335876464844 141.66665649414062 A18.724998474121094 18.724998474121094 0.0 0 0 43.5 158.3333282470703 Z"></path>
<path fill="#f0e486" fill-opacity="1.0"  filling="0" d="M25.45000457763672 33.333335876464844 L174.54998779296875 33.333335876464844 A8.783332824707031 8.783332824707031 0.0 0 1 183.3333282470703 42.116668701171875 L183.3333282470703 116.21666717529297 A8.783332824707031 8.783332824707031 0.0 0 1 174.54998779296875 125.0 L25.45000457763672 125.0 A8.783332824707031 8.783332824707031 0.0 0 1 16.666671752929688 116.21666717529297 L16.666671752929688 42.116668701171875 A8.783332824707031 8.783332824707031 0.0 0 1 25.45000457763672 33.333335876464844 Z"></path>
<path fill="#d9ce79" fill-opacity="1.0"  filling="0" d="M46.083335876464844 125.0 L25.416671752929688 125.0 A8.749999046325684 8.749999046325684 0.0 0 1 16.666671752929688 116.25 L16.666671752929688 42.083335876464844 A8.749999046325684 8.749999046325684 0.0 0 1 25.416671752929688 33.333335876464844 L46.083335876464844 33.333335876464844 A10.924999237060547 10.924999237060547 0.0 0 0 41.66666793823242 42.083335876464844 L41.66666793823242 116.25 A10.924999237060547 10.924999237060547 0.0 0 0 46.083335876464844 125.0 Z"></path>
<path fill="#f0e486" fill-opacity="1.0"  filling="0" d="M108.33333587646484 141.66665649414062 A8.333333015441895 8.333333015441895 0.0 1 1 91.66666412353516 141.66665649414062 A8.333333015441895 8.333333015441895 0.0 1 1 108.33333587646484 141.66665649414062 Z"></path>
<path fill="#edf2ff" fill-opacity="1.0"  filling="0" d="M166.60000610351562 113.24166107177734 A8.208333015441895 8.208333015441895 0.0 0 1 160.77499389648438 110.7750015258789 A8.408332824707031 8.408332824707031 0.0 0 0 154.88333129882812 108.33333587646484 L116.66666412353516 108.33333587646484 A8.341667175292969 8.341667175292969 0.0 0 1 108.33333587646484 100.0 L108.33333587646484 83.33333587646484 A8.341667175292969 8.341667175292969 0.0 0 1 116.66666412353516 75.0 L166.66665649414062 75.0 A8.341667175292969 8.341667175292969 0.0 0 1 175.0 83.33333587646484 L175.0 104.88333892822266 A8.199999809265137 8.199999809265137 0.0 0 1 169.8583221435547 112.58333587646484 A8.508333206176758 8.508333206176758 0.0 0 1 166.60000610351562 113.24166107177734 Z"></path>
<path fill="#edf2ff" fill-opacity="1.0"  filling="0" d="M33.400001525878906 79.90833282470703 A8.616666793823242 8.616666793823242 0.0 0 1 30.133338928222656 79.25 A8.208333015441895 8.208333015441895 0.0 0 1 25.0 71.55000305175781 L25.0 50.0 A8.341667175292969 8.341667175292969 0.0 0 1 33.333335876464844 41.66666793823242 L83.33333587646484 41.66666793823242 A8.341667175292969 8.341667175292969 0.0 0 1 91.66666412353516 50.0 L91.66666412353516 66.66667175292969 A8.341667175292969 8.341667175292969 0.0 0 1 83.33333587646484 75.0 L45.116668701171875 75.0 A8.408332824707031 8.408332824707031 0.0 0 0 39.22500228881836 77.44166564941406 A8.208333015441895 8.208333015441895 0.0 0 1 33.400001525878906 79.90833282470703 Z"></path>
<path fill="#bed2e8" fill-opacity="1.0"  filling="0" d="M33.333335876464844 71.58333587646484 A9.850000381469727 9.850000381469727 0.0 0 0 36.75 79.16667175292969 A7.7833333015441895 7.7833333015441895 0.0 0 1 33.41667175292969 79.91667175292969 A8.716666221618652 8.716666221618652 0.0 0 1 30.166671752929688 79.25 A8.22499942779541 8.22499942779541 0.0 0 1 25.0 71.58333587646484 L25.0 50.0 A8.358333587646484 8.358333587646484 0.0 0 1 33.333335876464844 41.66666793823242 L37.583335876464844 41.66666793823242 A10.216666221618652 10.216666221618652 0.0 0 0 33.333335876464844 50.0 L33.333335876464844 71.58333587646484 Z"></path>
<path fill="#bed2e8" fill-opacity="1.0"  filling="0" d="M120.91667175292969 108.33333587646484 L116.66666412353516 108.33333587646484 A8.358333587646484 8.358333587646484 0.0 0 1 108.33333587646484 100.0 L108.33333587646484 83.33333587646484 A8.358333587646484 8.358333587646484 0.0 0 1 116.66666412353516 75.0 L120.91667175292969 75.0 A10.216666221618652 10.216666221618652 0.0 0 0 116.66666412353516 83.33333587646484 L116.66666412353516 100.0 A10.216666221618652 10.216666221618652 0.0 0 0 120.91667175292969 108.33333587646484 Z"></path>
<path fill="#231f20" fill-opacity="1.0"  filling="0" d="M175.0 22.916671752929688 L25.0 22.916671752929688 A18.774999618530273 18.774999618530273 0.0 0 0 6.25 41.66666793823242 L6.25 141.66665649414062 A18.774999618530273 18.774999618530273 0.0 0 0 25.0 160.41665649414062 L66.66667175292969 160.41665649414062 A2.0833332538604736 2.0833332538604736 0.0 0 0 66.66667175292969 156.25 L25.0 156.25 A14.59999942779541 14.59999942779541 0.0 0 1 10.416671752929688 141.66665649414062 L10.416671752929688 41.66666793823242 A14.59999942779541 14.59999942779541 0.0 0 1 25.0 27.083335876464844 L175.0 27.083335876464844 A14.59999942779541 14.59999942779541 0.0 0 1 189.5833282470703 41.66666793823242 L189.5833282470703 141.66665649414062 A14.59999942779541 14.59999942779541 0.0 0 1 175.0 156.25 L75.0 156.25 A2.0833332538604736 2.0833332538604736 0.0 0 0 75.0 160.41665649414062 L97.91666412353516 160.41665649414062 L97.91666412353516 172.91665649414062 L83.33333587646484 172.91665649414062 A2.0833332538604736 2.0833332538604736 0.0 0 0 83.33333587646484 177.0833282470703 L116.66666412353516 177.0833282470703 A2.0833332538604736 2.0833332538604736 0.0 0 0 116.66666412353516 172.91665649414062 L102.08333587646484 172.91665649414062 L102.08333587646484 160.41665649414062 L175.0 160.41665649414062 A18.774999618530273 18.774999618530273 0.0 0 0 193.75 141.66665649414062 L193.75 41.66666793823242 A18.774999618530273 18.774999618530273 0.0 0 0 175.0 22.916671752929688 Z"></path>
<path fill="#231f20" fill-opacity="1.0"  filling="0" d="M150.0 31.25 L25.45000457763672 31.25 A10.883333206176758 10.883333206176758 0.0 0 0 14.583335876464844 42.116668701171875 L14.583335876464844 116.21666717529297 A10.883333206176758 10.883333206176758 0.0 0 0 25.45000457763672 127.08332824707031 L174.54998779296875 127.08332824707031 A10.883333206176758 10.883333206176758 0.0 0 0 185.41665649414062 116.21666717529297 L185.41665649414062 42.116668701171875 A10.883333206176758 10.883333206176758 0.0 0 0 174.54998779296875 31.25 L158.3333282470703 31.25 A2.0833332538604736 2.0833332538604736 0.0 0 0 158.3333282470703 35.41667175292969 L174.54998779296875 35.41667175292969 A6.7083330154418945 6.7083330154418945 0.0 0 1 181.25 42.116668701171875 L181.25 116.21666717529297 A6.7083330154418945 6.7083330154418945 0.0 0 1 174.54998779296875 122.91666412353516 L25.45000457763672 122.91666412353516 A6.7083330154418945 6.7083330154418945 0.0 0 1 18.75 116.21666717529297 L18.75 42.116668701171875 A6.7083330154418945 6.7083330154418945 0.0 0 1 25.45000457763672 35.41667175292969 L150.0 35.41667175292969 A2.0833332538604736 2.0833332538604736 0.0 0 0 150.0 31.25 Z"></path>
<path fill="#231f20" fill-opacity="1.0"  filling="0" d="M89.58333587646484 141.66665649414062 A10.416666030883789 10.416666030883789 0.0 1 0 100.0 131.25 A10.425000190734863 10.425000190734863 0.0 0 0 89.58333587646484 141.66665649414062 Z M106.25 141.66665649414062 A6.25 6.25 0.0 1 1 100.0 135.41665649414062 A6.258333206176758 6.258333206176758 0.0 0 1 106.25 141.66665649414062 Z"></path>
<path fill="#231f20" fill-opacity="1.0"  filling="0" d="M37.750003814697266 75.96666717529297 A6.0 6.0 0.0 0 1 32.258338928222656 77.70832824707031 A6.299999713897705 6.299999713897705 0.0 0 1 27.616668701171875 74.1500015258789 A2.0833332538604736 2.0833332538604736 0.0 1 0 23.82500457763672 75.85832977294922 A10.44999885559082 10.44999885559082 0.0 0 0 31.5 81.80833435058594 A10.799999237060547 10.799999237060547 0.0 0 0 33.40833282470703 81.98333740234375 A10.241665840148926 10.241665840148926 0.0 0 0 40.70000076293945 78.91667175292969 A6.291666507720947 6.291666507720947 0.0 0 1 45.116668701171875 77.08333587646484 L83.33333587646484 77.08333587646484 A10.425000190734863 10.425000190734863 0.0 0 0 93.75 66.66667175292969 L93.75 50.0 A10.425000190734863 10.425000190734863 0.0 0 0 83.33333587646484 39.583335876464844 L33.333335876464844 39.583335876464844 A10.425000190734863 10.425000190734863 0.0 0 0 22.916671752929688 50.0 L22.916671752929688 66.66667175292969 A2.0833332538604736 2.0833332538604736 0.0 0 0 27.083335876464844 66.66667175292969 L27.083335876464844 50.0 A6.258333206176758 6.258333206176758 0.0 0 1 33.333335876464844 43.750003814697266 L83.33333587646484 43.750003814697266 A6.258333206176758 6.258333206176758 0.0 0 1 89.58333587646484 50.0 L89.58333587646484 66.66667175292969 A6.258333206176758 6.258333206176758 0.0 0 1 83.33333587646484 72.91667175292969 L45.116668701171875 72.91667175292969 A10.47499942779541 10.47499942779541 0.0 0 0 37.750003814697266 75.96666717529297 Z"></path>
<path fill="#231f20" fill-opacity="1.0"  filling="0" d="M106.25 83.33333587646484 L106.25 100.0 A10.425000190734863 10.425000190734863 0.0 0 0 116.66666412353516 110.41666412353516 L154.88333129882812 110.41666412353516 A6.291666507720947 6.291666507720947 0.0 0 1 159.29998779296875 112.25 A10.266666412353516 10.266666412353516 0.0 0 0 166.60000610351562 115.32499694824219 A10.591666221618652 10.591666221618652 0.0 0 0 170.64999389648438 114.50833129882812 A10.258332252502441 10.258332252502441 0.0 0 0 177.0833282470703 104.88333892822266 L177.0833282470703 83.33333587646484 A10.425000190734863 10.425000190734863 0.0 0 0 166.66665649414062 72.91667175292969 L116.66666412353516 72.91667175292969 A10.425000190734863 10.425000190734863 0.0 0 0 106.25 83.33333587646484 Z M172.91665649414062 83.33333587646484 L172.91665649414062 104.88333892822266 A6.25 6.25 0.0 0 1 162.25 109.30000305175781 A10.47499942779541 10.47499942779541 0.0 0 0 154.88333129882812 106.25 L116.66666412353516 106.25 A6.258333206176758 6.258333206176758 0.0 0 1 110.41666412353516 100.0 L110.41666412353516 83.33333587646484 A6.258333206176758 6.258333206176758 0.0 0 1 116.66666412353516 77.08333587646484 L166.66665649414062 77.08333587646484 A6.258333206176758 6.258333206176758 0.0 0 1 172.91665649414062 83.33333587646484 Z"></path>
<path fill="#231f20" fill-opacity="1.0"  filling="0" d="M125.0 93.75 L141.66665649414062 93.75 A2.0833332538604736 2.0833332538604736 0.0 0 0 141.66665649414062 89.58333587646484 L125.0 89.58333587646484 A2.0833332538604736 2.0833332538604736 0.0 0 0 125.0 93.75 Z"></path>
<path fill="#231f20" fill-opacity="1.0"  filling="0" d="M75.0 60.41666793823242 A2.0833332538604736 2.0833332538604736 0.0 0 0 75.0 56.25 L58.333335876464844 56.25 A2.0833332538604736 2.0833332538604736 0.0 0 0 58.333335876464844 60.41666793823242 L75.0 60.41666793823242 Z"></path></svg>