<svg xmlns="http://www.w3.org/2000/svg" viewBox="0.0 0.0 200.0 200.0" height="200.0px" width="200.0px"><path fill="#6a80ff" fill-opacity="1.0"  filling="0" d="M45.69101333618164 148.4375 L95.28828430175781 148.4375 C94.44257354736328 147.86212158203125 93.6371078491211 147.22891235351562 92.87890625 146.546875 C86.33438110351562 143.6218719482422 81.7718734741211 137.05899047851562 81.7718734741211 129.4265594482422 C81.7718734741211 121.330078125 86.90508270263672 114.439453125 94.0933609008789 111.8148422241211 C94.482421875 111.51132202148438 94.87930297851562 111.216796875 95.2894515991211 110.9375 L44.537498474121094 110.9375 C50.87109375 114.955078125 55.078125 122.0230484008789 55.078125 130.078125 C55.078125 137.63436889648438 51.37617111206055 144.32070922851562 45.69101333618164 148.4375 Z"></path>
<path fill="#ade5ff" fill-opacity="1.0"  filling="0" d="M194.79061889648438 129.8171844482422 C194.79061889648438 139.16641235351562 187.21328735351562 146.74374389648438 177.8640594482422 146.74374389648438 C168.51641845703125 146.74374389648438 160.9375 139.16641235351562 160.9375 129.8171844482422 C160.9375 120.46952819824219 168.51641845703125 112.890625 177.8640594482422 112.890625 C187.21328735351562 112.890625 194.79061889648438 120.46952819824219 194.79061889648438 129.8171844482422 Z"></path>
<path fill="#ade5ff" fill-opacity="1.0"  filling="0" d="M117.1875 129.5578155517578 C117.1875 138.9054718017578 109.60858917236328 146.484375 100.26094055175781 146.484375 C90.91171264648438 146.484375 83.3343734741211 138.9054718017578 83.3343734741211 129.5578155517578 C83.3343734741211 120.20858764648438 90.91171264648438 112.6312484741211 100.26094055175781 112.6312484741211 C109.60858917236328 112.6312484741211 117.1875 120.20858764648438 117.1875 129.5578155517578 Z"></path>
<path fill="#ade5ff" fill-opacity="1.0"  filling="0" d="M39.84375 129.8171844482422 C39.84375 139.16641235351562 32.26483917236328 146.74374389648438 22.917190551757812 146.74374389648438 C13.567970275878906 146.74374389648438 5.990623474121094 139.16641235351562 5.990623474121094 129.8171844482422 C5.990623474121094 120.46952819824219 13.567970275878906 112.890625 22.917190551757812 112.890625 C32.26483917236328 112.890625 39.84375 120.46952819824219 39.84375 129.8171844482422 Z"></path>
<path fill="#6a80ff" fill-opacity="1.0"  filling="0" d="M120.72734832763672 148.4375 L169.51913452148438 148.4375 C161.82696533203125 145.41641235351562 156.3796844482422 137.9304656982422 156.3796844482422 129.1671905517578 C156.3796844482422 121.28593444824219 160.783203125 114.43476867675781 167.263671875 110.9375 L120.72772979736328 110.9375 C126.7242202758789 115.0132827758789 130.6640625 121.8902359008789 130.6640625 129.6875 C130.6640625 137.48477172851562 126.7242202758789 144.36172485351562 120.72734832763672 148.4375 Z"></path>
<path fill="#ffb954" fill-opacity="1.0"  filling="0" d="M34.89530944824219 52.08281326293945 L82.03125 52.08281326293945 L82.03125 110.9375 L34.89530944824219 110.9375 L34.89530944824219 52.08281326293945 Z"></path>
<path fill="#fff" fill-opacity="1.0"  filling="0" d="M61.71875 76.5625 L52.34375 67.31718444824219 L42.96875 76.5625 L42.96875 51.5625 L61.71875 51.5625 L61.71875 76.5625 Z"></path>
<path fill="#ffb954" fill-opacity="1.0"  filling="0" d="M128.2546844482422 51.5625 L175.0 51.5625 L175.0 110.9375 L128.2546844482422 110.9375 L128.2546844482422 51.5625 Z"></path>
<path fill="#fff" fill-opacity="1.0"  filling="0" d="M154.6875 76.5625 L145.3125 67.31718444824219 L135.9375 76.5625 L135.9375 51.5625 L154.6875 51.5625 L154.6875 76.5625 Z"></path>
<path fill="" fill-opacity="1.0"  filling="0" d="M178.90625 107.09062194824219 L178.90625 51.5625 C178.90625 49.40507888793945 177.1574249267578 47.65625 175.0 47.65625 L115.625 47.65625 C113.46757507324219 47.65625 111.71875 49.40507888793945 111.71875 51.5625 L111.71875 65.4296875 C111.71875 67.58711242675781 113.46757507324219 69.3359375 115.625 69.3359375 C117.78242492675781 69.3359375 119.53125 67.58711242675781 119.53125 65.4296875 L119.53125 55.46875 L132.03125 55.46875 L132.03125 76.5625 C132.03125 78.1371078491211 132.9773406982422 79.55781555175781 134.43008422851562 80.16679382324219 C135.8839874267578 80.7738265991211 137.55938720703125 80.4488296508789 138.6808624267578 79.3441390991211 L145.3125 72.8042984008789 L151.9453125 79.3441390991211 C152.6902313232422 80.0796890258789 153.68203735351562 80.46875 154.68905639648438 80.46875 C155.19570922851562 80.46875 155.7082061767578 80.3695297241211 156.19491577148438 80.16679382324219 C157.6476593017578 79.55937194824219 158.59375 78.1371078491211 158.59375 76.5625 L158.59375 55.46875 L171.09375 55.46875 L171.09375 107.03125 L119.53125 107.03125 L119.53125 97.4609375 C119.53125 95.30351257324219 117.78242492675781 93.5546875 115.625 93.5546875 C113.46757507324219 93.5546875 111.71875 95.30351257324219 111.71875 97.4609375 L111.71875 107.03125 L85.9375 107.03125 L85.9375 51.5625 C85.9375 49.40507888793945 84.18866729736328 47.65625 82.03125 47.65625 L22.65625 47.65625 C20.49883270263672 47.65625 18.75 49.40507888793945 18.75 51.5625 L18.75 64.0625 C18.75 66.21992492675781 20.49883270263672 67.96875 22.65625 67.96875 C24.81366729736328 67.96875 26.5625 66.21992492675781 26.5625 64.0625 L26.5625 55.46875 L39.0625 55.46875 L39.0625 76.5625 C39.0625 78.1371078491211 40.00859069824219 79.55781555175781 41.461326599121094 80.16679382324219 C42.91523742675781 80.7738265991211 44.59062957763672 80.4488296508789 45.71211242675781 79.3441390991211 L52.34375 72.8042984008789 L58.9765625 79.3441390991211 C59.72148132324219 80.0796890258789 60.713279724121094 80.46875 61.72031021118164 80.46875 C62.226951599121094 80.46875 62.73945617675781 80.3695297241211 63.22616958618164 80.16679382324219 C64.67890930175781 79.55937194824219 65.625 78.1371078491211 65.625 76.5625 L65.625 55.46875 L78.125 55.46875 L78.125 107.03125 L26.5625 107.03125 L26.5625 96.875 C26.5625 94.71757507324219 24.81366729736328 92.96875 22.65625 92.96875 C20.49883270263672 92.96875 18.75 94.71757507324219 18.75 96.875 L18.75 107.37616729736328 C8.11328125 109.23320007324219 0.0 118.52734375 0.0 129.6875 C0.0 142.1796875 10.1640625 152.34375 22.65625 152.34375 L177.34375 152.34375 C189.8359375 152.34375 200.0 142.1796875 200.0 129.6875 C200.0 117.71992492675781 190.67227172851562 107.89804077148438 178.90625 107.09062194824219 Z M150.78125 67.2242202758789 L148.0546875 64.537109375 C147.29452514648438 63.78632736206055 146.302734375 63.412498474121094 145.3125 63.412498474121094 C144.322265625 63.412498474121094 143.33047485351562 63.78632736206055 142.5703125 64.537109375 L139.84375 67.2242202758789 L139.84375 55.46875 L150.78125 55.46875 L150.78125 67.2242202758789 Z M57.8125 67.2242202758789 L55.0859375 64.537109375 C54.325782775878906 63.78632736206055 53.333984375 63.412498474121094 52.34375 63.412498474121094 C51.353515625 63.412498474121094 50.361717224121094 63.78632736206055 49.601566314697266 64.537109375 L46.875 67.2242202758789 L46.875 55.46875 L57.8125 55.46875 L57.8125 67.2242202758789 Z M160.2492218017578 114.84375 C156.7902374267578 118.82344055175781 154.6875 124.01289367675781 154.6875 129.6875 C154.6875 135.3621063232422 156.7902374267578 140.5515594482422 160.2492218017578 144.53125 L117.09452819824219 144.53125 C120.55351257324219 140.5515594482422 122.65625 135.3621063232422 122.65625 129.6875 C122.65625 124.01289367675781 120.55351257324219 118.82344055175781 117.09452819824219 114.84375 L160.2492218017578 114.84375 Z M85.15625 129.6875 C85.15625 121.50273132324219 91.81523132324219 114.84375 100.0 114.84375 C108.18476867675781 114.84375 114.84375 121.50273132324219 114.84375 129.6875 C114.84375 137.8722686767578 108.18476867675781 144.53125 100.0 144.53125 C91.81523132324219 144.53125 85.15625 137.8722686767578 85.15625 129.6875 Z M82.03125 114.84375 L82.90547180175781 114.84375 C79.44648742675781 118.82344055175781 77.34375 124.01289367675781 77.34375 129.6875 C77.34375 135.3621063232422 79.44648742675781 140.5515594482422 82.90547180175781 144.53125 L39.75077819824219 144.53125 C43.20976638793945 140.5515594482422 45.3125 135.3621063232422 45.3125 129.6875 C45.3125 124.01289367675781 43.20976638793945 118.82344055175781 39.75077819824219 114.84375 L82.03125 114.84375 Z M7.8125 129.6875 C7.8125 121.50273132324219 14.471481323242188 114.84375 22.65625 114.84375 C30.841018676757812 114.84375 37.5 121.50273132324219 37.5 129.6875 C37.5 137.8722686767578 30.841018676757812 144.53125 22.65625 144.53125 C14.471481323242188 144.53125 7.8125 137.8722686767578 7.8125 129.6875 Z M177.34375 144.53125 C169.1589813232422 144.53125 162.5 137.8722686767578 162.5 129.6875 C162.5 121.50273132324219 169.1589813232422 114.84375 177.34375 114.84375 C185.5285186767578 114.84375 192.1875 121.50273132324219 192.1875 129.6875 C192.1875 137.8722686767578 185.5285186767578 144.53125 177.34375 144.53125 Z"></path>
<path fill="" fill-opacity="1.0"  filling="0" d="M100.0 125.78125 C98.9730453491211 125.78125 97.9644546508789 126.19921875 97.23828125 126.92578125 C96.51171875 127.6519546508789 96.09375 128.66055297851562 96.09375 129.6875 C96.09375 130.71444702148438 96.51171875 131.72305297851562 97.23828125 132.44921875 C97.9644546508789 133.17578125 98.9730453491211 133.59375 100.0 133.59375 C101.0269546508789 133.59375 102.0355453491211 133.17578125 102.76171875 132.44921875 C103.48828125 131.72305297851562 103.90625 130.71444702148438 103.90625 129.6875 C103.90625 128.66055297851562 103.48828125 127.6519546508789 102.76171875 126.92578125 C102.0355453491211 126.19921875 101.0269546508789 125.78125 100.0 125.78125 Z"></path>
<path fill="" fill-opacity="1.0"  filling="0" d="M177.34375 125.78125 C176.31680297851562 125.78125 175.30819702148438 126.19921875 174.58203125 126.92578125 C173.85546875 127.6519546508789 173.4375 128.66055297851562 173.4375 129.6875 C173.4375 130.71444702148438 173.85546875 131.72305297851562 174.58203125 132.44921875 C175.30819702148438 133.17578125 176.31680297851562 133.59375 177.34375 133.59375 C178.37069702148438 133.59375 179.37930297851562 133.17578125 180.10546875 132.44921875 C180.83203125 131.72305297851562 181.25 130.71444702148438 181.25 129.6875 C181.25 128.66055297851562 180.83203125 127.6519546508789 180.10546875 126.92578125 C179.37930297851562 126.19921875 178.37069702148438 125.78125 177.34375 125.78125 Z"></path>
<path fill="" fill-opacity="1.0"  filling="0" d="M25.41796875 132.44921875 C26.14453125 131.72305297851562 26.5625 130.71444702148438 26.5625 129.6875 C26.5625 128.66055297851562 26.14453125 127.6519546508789 25.41796875 126.92578125 C24.691795349121094 126.19921875 23.683204650878906 125.78125 22.65625 125.78125 C21.629295349121094 125.78125 20.620704650878906 126.19921875 19.89453125 126.92578125 C19.16796875 127.6519546508789 18.75 128.66055297851562 18.75 129.6875 C18.75 130.71444702148438 19.16796875 131.72305297851562 19.89453125 132.44921875 C20.620704650878906 133.17578125 21.629295349121094 133.59375 22.65625 133.59375 C23.683204650878906 133.59375 24.691795349121094 133.17578125 25.41796875 132.44921875 Z"></path>
<path fill="" fill-opacity="1.0"  filling="0" d="M22.65625 85.15625 C23.683204650878906 85.15625 24.691795349121094 84.73828125 25.41796875 84.01171875 C26.14453125 83.2855453491211 26.5625 82.2769546508789 26.5625 81.25 C26.5625 80.2230453491211 26.14453125 79.2144546508789 25.41796875 78.48828125 C24.691795349121094 77.76171875 23.683204650878906 77.34375 22.65625 77.34375 C21.629295349121094 77.34375 20.620704650878906 77.76171875 19.89453125 78.48828125 C19.16796875 79.2144546508789 18.75 80.2230453491211 18.75 81.25 C18.75 82.2769546508789 19.16796875 83.2855453491211 19.89453125 84.01171875 C20.620704650878906 84.73828125 21.629295349121094 85.15625 22.65625 85.15625 Z"></path>
<path fill="" fill-opacity="1.0"  filling="0" d="M69.82421875 99.21875 C71.98163604736328 99.21875 73.73046875 97.46992492675781 73.73046875 95.3125 C73.73046875 93.15507507324219 71.98163604736328 91.40625 69.82421875 91.40625 L58.88671875 91.40625 C56.72929763793945 91.40625 54.98046875 93.15507507324219 54.98046875 95.3125 C54.98046875 97.46992492675781 56.72929763793945 99.21875 58.88671875 99.21875 L69.82421875 99.21875 Z"></path>
<path fill="" fill-opacity="1.0"  filling="0" d="M115.625 85.15625 C116.6519546508789 85.15625 117.6605453491211 84.73828125 118.38671875 84.01171875 C119.11328125 83.2855453491211 119.53125 82.2769546508789 119.53125 81.25 C119.53125 80.2230453491211 119.11328125 79.2144546508789 118.38671875 78.48828125 C117.6605453491211 77.76171875 116.6519546508789 77.34375 115.625 77.34375 C114.5980453491211 77.34375 113.5894546508789 77.76171875 112.86328125 78.48828125 C112.13671875 79.2144546508789 111.71875 80.2230453491211 111.71875 81.25 C111.71875 82.2769546508789 112.13671875 83.2855453491211 112.86328125 84.01171875 C113.5894546508789 84.73828125 114.5980453491211 85.15625 115.625 85.15625 Z"></path>
<path fill="" fill-opacity="1.0"  filling="0" d="M162.79296875 99.21875 C164.9503936767578 99.21875 166.69921875 97.46992492675781 166.69921875 95.3125 C166.69921875 93.15507507324219 164.9503936767578 91.40625 162.79296875 91.40625 L151.85546875 91.40625 C149.6980438232422 91.40625 147.94921875 93.15507507324219 147.94921875 95.3125 C147.94921875 97.46992492675781 149.6980438232422 99.21875 151.85546875 99.21875 L162.79296875 99.21875 Z"></path></svg>