<svg xmlns="http://www.w3.org/2000/svg" viewBox="0.0 0.0 200.0 200.0" height="200.0px" width="200.0px"><path fill="#fff5f5" fill-opacity="1.0"  filling="0" d="M194.140625 74.21875 L177.734375 74.21875 C174.49844360351562 74.21875 171.875 71.59530639648438 171.875 68.359375 C171.875 65.12344360351562 174.49844360351562 62.5 177.734375 62.5 L194.140625 62.5 C197.37655639648438 62.5 200.0 65.12344360351562 200.0 68.359375 C200.0 71.59530639648438 197.37655639648438 74.21875 194.140625 74.21875 Z"></path>
<path fill="#dfdef5" fill-opacity="1.0"  filling="0" d="M177.734375 74.21875 L194.140625 74.21875 C197.37655639648438 74.21875 200.0 71.59530639648438 200.0 68.359375 L171.875 68.359375 C171.875 71.59530639648438 174.49844360351562 74.21875 177.734375 74.21875 Z"></path>
<path fill="#00dd80" fill-opacity="1.0"  filling="0" d="M142.6667938232422 85.9375 L111.328125 85.9375 C108.0921859741211 85.9375 105.46875 83.31405639648438 105.46875 80.078125 L105.46875 56.640625 C105.46875 53.40468978881836 108.0921859741211 50.78125 111.328125 50.78125 L142.6667938232422 50.78125 C145.90272521972656 50.78125 148.5261688232422 53.40468978881836 148.5261688232422 56.640625 L148.5261688232422 80.078125 C148.5261688232422 83.31405639648438 145.90272521972656 85.9375 142.6667938232422 85.9375 Z"></path>
<path fill="#00a78e" fill-opacity="1.0"  filling="0" d="M105.46875 80.078125 C105.46875 83.31405639648438 108.0921859741211 85.9375 111.328125 85.9375 L142.6667938232422 85.9375 C145.90272521972656 85.9375 148.5261688232422 83.31405639648438 148.5261688232422 80.078125 L148.5261688232422 68.359375 L105.46875 68.359375 L105.46875 80.078125 Z"></path>
<path fill="#09607d" fill-opacity="1.0"  filling="0" d="M69.69414520263672 26.676559448242188 L57.97539520263672 3.2390594482421875 C56.98281478881836 1.25390625 54.95391082763672 0.0 52.734375 0.0 L21.097267150878906 0.0 C16.741409301757812 0.0 13.908592224121094 4.583984375 15.856246948242188 8.479690551757812 L29.194534301757812 35.15625 L64.3160171508789 35.15625 C65.876953125 35.15625 67.41093444824219 34.60038757324219 68.52812957763672 33.510162353515625 C70.404296875 31.679298400878906 70.8148422241211 28.91796875 69.69414520263672 26.676559448242188 Z"></path>
<path fill="#07485e" fill-opacity="1.0"  filling="0" d="M67.3828125 170.703125 L66.40625 170.703125 L66.40625 107.421875 C66.40625 104.1859359741211 63.78281021118164 101.5625 60.546875 101.5625 L23.335159301757812 101.5625 L23.335159301757812 125.0 L26.953125 130.859375 L23.335159301757812 136.71875 L23.335159301757812 148.4375 L26.953125 154.296875 L23.335159301757812 160.15625 L23.335159301757812 184.375 C23.335159301757812 193.00430297851562 30.33086395263672 200.0 38.96015930175781 200.0 L67.3828125 200.0 C75.4730453491211 200.0 82.03125 193.44180297851562 82.03125 185.3515625 C82.03125 177.26132202148438 75.4730453491211 170.703125 67.3828125 170.703125 Z"></path>
<path fill="#04303e" fill-opacity="1.0"  filling="0" d="M40.91328430175781 130.859375 C40.91328430175781 127.62344360351562 38.28984451293945 125.0 35.05390930175781 125.0 L23.335159301757812 125.0 L23.335159301757812 136.71875 L35.05390930175781 136.71875 C38.28984451293945 136.71875 40.91328430175781 134.09530639648438 40.91328430175781 130.859375 Z"></path>
<path fill="#04303e" fill-opacity="1.0"  filling="0" d="M40.91328430175781 154.296875 C40.91328430175781 151.06094360351562 38.28984451293945 148.4375 35.05390930175781 148.4375 L23.335159301757812 148.4375 L23.335159301757812 160.15625 L35.05390930175781 160.15625 C38.28984451293945 160.15625 40.91328430175781 157.53280639648438 40.91328430175781 154.296875 Z"></path>
<path fill="#bee75e" fill-opacity="1.0"  filling="0" d="M76.171875 113.28125 L23.335159301757812 113.28125 L2.1988296508789062 96.37226104736328 C0.8089828491210938 95.2601547241211 0.0 93.57695770263672 0.0 91.796875 L0.0 44.921875 C0.0 43.14179229736328 0.8089828491210938 41.458595275878906 2.1988296508789062 40.34648513793945 L23.335159301757812 23.4375 L76.171875 23.4375 C90.02461242675781 23.4375 103.75703430175781 28.01445770263672 114.8402328491211 36.32538986206055 C116.3167953491211 37.43281555175781 117.1875 39.169918060302734 117.1875 41.015625 L117.1875 95.703125 C117.1875 97.548828125 116.3167953491211 99.28593444824219 114.8402328491211 100.39335632324219 C103.75703430175781 108.70429229736328 90.02461242675781 113.28125 76.171875 113.28125 Z"></path>
<path fill="#00dd80" fill-opacity="1.0"  filling="0" d="M0.0 91.796875 C0.0 93.57695770263672 0.8089828491210938 95.2601547241211 2.1988296508789062 96.37226104736328 L23.335159301757812 113.28125 L76.171875 113.28125 C90.02461242675781 113.28125 103.75703430175781 108.70429229736328 114.8402328491211 100.39335632324219 C116.3167953491211 99.28593444824219 117.1875 97.548828125 117.1875 95.703125 L117.1875 68.359375 L0.0 68.359375 L0.0 91.796875 Z"></path>
<path fill="#bee75e" fill-opacity="1.0"  filling="0" d="M158.203125 93.75 C144.20272827148438 93.75 132.8125 82.35977172851562 132.8125 68.359375 C132.8125 54.35898208618164 144.20272827148438 42.96875 158.203125 42.96875 C172.20352172851562 42.96875 183.59375 54.35898208618164 183.59375 68.359375 C183.59375 82.35977172851562 172.20352172851562 93.75 158.203125 93.75 Z"></path>
<path fill="#00dd80" fill-opacity="1.0"  filling="0" d="M158.203125 93.75 C172.20352172851562 93.75 183.59375 82.35977172851562 183.59375 68.359375 L132.8125 68.359375 C132.8125 82.35977172851562 144.20272827148438 93.75 158.203125 93.75 Z"></path>
<path fill="#fff5f5" fill-opacity="1.0"  filling="0" d="M87.890625 89.84375 C84.6546859741211 89.84375 82.03125 87.2203140258789 82.03125 83.984375 L82.03125 52.734375 C82.03125 49.49843978881836 84.6546859741211 46.875 87.890625 46.875 C91.1265640258789 46.875 93.75 49.49843978881836 93.75 52.734375 L93.75 83.984375 C93.75 87.2203140258789 91.1265640258789 89.84375 87.890625 89.84375 Z"></path>
<path fill="#fff5f5" fill-opacity="1.0"  filling="0" d="M64.453125 89.84375 C61.21718978881836 89.84375 58.59375 87.2203140258789 58.59375 83.984375 L58.59375 52.734375 C58.59375 49.49843978881836 61.21718978881836 46.875 64.453125 46.875 C67.68905639648438 46.875 70.3125 49.49843978881836 70.3125 52.734375 L70.3125 83.984375 C70.3125 87.2203140258789 67.68905639648438 89.84375 64.453125 89.84375 Z"></path>
<path fill="#fff5f5" fill-opacity="1.0"  filling="0" d="M41.015625 89.84375 C37.77968978881836 89.84375 35.15625 87.2203140258789 35.15625 83.984375 L35.15625 52.734375 C35.15625 49.49843978881836 37.77968978881836 46.875 41.015625 46.875 C44.25156021118164 46.875 46.875 49.49843978881836 46.875 52.734375 L46.875 83.984375 C46.875 87.2203140258789 44.25156021118164 89.84375 41.015625 89.84375 Z"></path>
<path fill="#dfdef5" fill-opacity="1.0"  filling="0" d="M82.03125 83.984375 C82.03125 87.2203140258789 84.6546859741211 89.84375 87.890625 89.84375 C91.1265640258789 89.84375 93.75 87.2203140258789 93.75 83.984375 L93.75 68.359375 L82.03125 68.359375 L82.03125 83.984375 Z"></path>
<path fill="#dfdef5" fill-opacity="1.0"  filling="0" d="M58.59375 83.984375 C58.59375 87.2203140258789 61.21718978881836 89.84375 64.453125 89.84375 C67.68905639648438 89.84375 70.3125 87.2203140258789 70.3125 83.984375 L70.3125 68.359375 L58.59375 68.359375 L58.59375 83.984375 Z"></path>
<path fill="#dfdef5" fill-opacity="1.0"  filling="0" d="M35.15625 83.984375 C35.15625 87.2203140258789 37.77968978881836 89.84375 41.015625 89.84375 C44.25156021118164 89.84375 46.875 87.2203140258789 46.875 83.984375 L46.875 68.359375 L35.15625 68.359375 L35.15625 83.984375 Z"></path></svg>