<svg xmlns="http://www.w3.org/2000/svg" viewBox="0.0 0.0 200.0 200.0" height="200.0px" width="200.0px"><path fill="#f7f3f1" fill-opacity="1.0"  filling="0" d="M112.07243347167969 31.388328552246094 L89.68289947509766 31.388328552246094 L95.31669616699219 97.38430786132812 L100.0 98.87847137451172 L106.03621673583984 97.38430786132812 L110.32998657226562 50.438629150390625 L109.71790313720703 46.58148956298828 L112.07243347167969 31.388328552246094 Z"></path>
<path fill="#eae2df" fill-opacity="1.0"  filling="0" d="M93.96378326416016 31.388328552246094 L87.92756652832031 31.388328552246094 L93.56137084960938 97.38430786132812 L96.70382690429688 98.39878845214844 L99.59758758544922 97.38430786132812 L95.89014434814453 53.95492935180664 C95.80563354492188 52.96739959716797 96.6257553100586 52.13319396972656 97.61368560791016 52.21488571166992 C98.40039825439453 52.28007888793945 99.19638061523438 52.313880920410156 100.0 52.313880920410156 C103.59355926513672 52.313880920410156 107.0824966430664 51.665992736816406 110.32998657226562 50.438629150390625 L112.00402069091797 32.144866943359375 L112.07243347167969 31.388328552246094 L93.96378326416016 31.388328552246094 Z"></path>
<path fill="#fc5461" fill-opacity="1.0"  filling="0" d="M123.13883209228516 23.138832092285156 C123.13883209228516 10.359756469726562 112.77908325195312 0.0 100.0 0.0 C95.83300018310547 0.0 91.92353820800781 1.1014022827148438 88.54647827148438 3.0289688110351562 C88.54647827148438 3.0289688110351562 87.76297760009766 3.838226318359375 87.2684097290039 4.173835754394531 C81.13641357421875 8.335609436035156 78.17545318603516 15.169410705566406 78.17545318603516 23.138832092285156 C78.17545318603516 35.91790771484375 87.2209243774414 44.52676010131836 100.0 44.52676010131836 C107.57545471191406 44.52676010131836 114.06116485595703 42.480079650878906 118.28208923339844 36.853118896484375 C118.61971282958984 36.403221130371094 119.4857177734375 35.62294006347656 119.4857177734375 35.62294006347656 C121.7975845336914 32.021324157714844 123.13883209228516 27.73681640625 123.13883209228516 23.138832092285156 Z"></path>
<path fill="#dd3652" fill-opacity="1.0"  filling="0" d="M119.48530578613281 35.62294006347656 C115.37263488769531 42.04144287109375 108.19315338134766 46.27766418457031 100.0 46.27766418457031 C87.21931457519531 46.27766418457031 76.86116790771484 35.919517517089844 76.86116790771484 23.138832092285156 C76.86116790771484 14.52313232421875 81.56459045410156 7.00885009765625 88.54647827148438 3.0289688110351562 C86.24466705322266 6.626556396484375 84.90945434570312 10.905433654785156 84.90945434570312 15.492958068847656 C84.90945434570312 28.273643493652344 95.26760864257812 38.63179016113281 108.04829406738281 38.63179016113281 C112.2132797241211 38.63179016113281 116.10905456542969 37.55050277709961 119.48530578613281 35.62294006347656 Z"></path>
<path fill="#9ce6fb" fill-opacity="1.0"  filling="0" d="M107.58390808105469 97.38430786132812 L92.41609954833984 97.38430786132812 C92.25996398925781 97.38430786132812 92.10502624511719 97.38953399658203 91.95170593261719 97.39959716796875 C91.95170593261719 97.39959716796875 91.01810455322266 97.861572265625 90.5348129272461 98.00523376464844 C87.91307830810547 98.78309631347656 86.42937469482422 100.7283706665039 86.42937469482422 103.42052459716797 L86.42937469482422 109.45674133300781 L113.51952362060547 109.45674133300781 L114.08451080322266 103.42052459716797 C114.08451080322266 100.08692169189453 111.17424774169922 97.38430786132812 107.58390808105469 97.38430786132812 Z"></path>
<path fill="#68dbf9" fill-opacity="1.0"  filling="0" d="M114.08451080322266 103.42052459716797 L114.08451080322266 109.45674133300781 L98.84426879882812 111.10503387451172 L85.91548919677734 109.45674133300781 L85.91548919677734 103.42052459716797 C85.91548919677734 100.2333984375 88.57947540283203 97.62092590332031 91.95170593261719 97.39959716796875 L91.95170593261719 102.2132797241211 C91.95170593261719 102.88008117675781 92.49215698242188 103.42052459716797 93.15895080566406 103.42052459716797 L114.08451080322266 103.42052459716797 Z"></path>
<path fill="#9ce6fb" fill-opacity="1.0"  filling="0" d="M122.13279724121094 109.45674133300781 L77.86720275878906 109.45674133300781 C77.86720275878906 109.45674133300781 75.58712005615234 110.06317138671875 74.6092529296875 110.74526977539062 C73.04547119140625 111.83621215820312 72.28450775146484 113.44185638427734 72.28450775146484 115.49295806884766 L72.31025695800781 129.5774688720703 L127.15010070800781 129.5774688720703 L128.1690216064453 123.54124450683594 L128.1690216064453 115.49295806884766 C128.1690216064453 112.15935516357422 125.46640014648438 109.45674133300781 122.13279724121094 109.45674133300781 Z"></path>
<path fill="#68dbf9" fill-opacity="1.0"  filling="0" d="M128.1690216064453 123.54124450683594 L128.1690216064453 129.5774688720703 L100.8776626586914 131.07164001464844 L71.83098602294922 129.5774688720703 L71.83098602294922 115.49295806884766 C71.83098602294922 112.16096496582031 74.53520965576172 109.45674133300781 77.86720275878906 109.45674133300781 L77.86720275878906 122.3340072631836 C77.86720275878906 123.00080871582031 78.40764617919922 123.54124450683594 79.07444763183594 123.54124450683594 L128.1690216064453 123.54124450683594 Z"></path>
<path fill="#f7f3f1" fill-opacity="1.0"  filling="0" d="M188.93359375 200.0 L15.090538024902344 200.0 L11.725547790527344 199.6788787841797 C10.614486694335938 199.6788787841797 9.713478088378906 198.7778778076172 9.713478088378906 197.66680908203125 L9.662368774414062 187.9275665283203 L189.41326904296875 187.9275665283203 L190.94607543945312 193.96377563476562 L190.94607543945312 197.98793029785156 C190.9456787109375 199.0989990234375 190.04466247558594 200.0 188.93359375 200.0 Z"></path>
<path fill="#fc5461" fill-opacity="1.0"  filling="0" d="M38.85874938964844 153.7223358154297 L8.515090942382812 153.7223358154297 L8.395164489746094 142.30502319335938 C8.395164489746094 140.11065673828125 10.19677734375 138.33200073242188 12.4193115234375 138.33200073242188 L12.573432922363281 138.36660766601562 L13.983901977539062 138.02816772460938 L35.51307678222656 138.02816772460938 C37.73561477661133 138.02816772460938 39.5372200012207 139.80685424804688 39.5372200012207 142.00120544433594 L39.5372200012207 147.28370666503906 L38.85874938964844 153.7223358154297 Z"></path>
<path fill="#dd3652" fill-opacity="1.0"  filling="0" d="M39.5372200012207 147.28370666503906 L39.5372200012207 153.7223358154297 L23.742454528808594 156.31228637695312 L7.947685241699219 153.7223358154297 L7.947685241699219 142.0 C7.947685241699219 139.80685424804688 9.750495910644531 138.02816772460938 11.971824645996094 138.02816772460938 L13.983901977539062 138.02816772460938 L13.983901977539062 145.67404174804688 C13.983901977539062 146.56298828125 14.704627990722656 147.28370666503906 15.593559265136719 147.28370666503906 L39.5372200012207 147.28370666503906 Z"></path>
<path fill="#fc5461" fill-opacity="1.0"  filling="0" d="M191.37384033203125 153.7223358154297 L161.03018188476562 153.7223358154297 L160.91026306152344 142.30502319335938 C160.91026306152344 140.11065673828125 162.7118682861328 138.33200073242188 164.93441772460938 138.33200073242188 L165.08853149414062 138.36660766601562 L166.49899291992188 138.02857971191406 L188.02816772460938 138.02857971191406 C190.25070190429688 138.02857971191406 192.05230712890625 139.80723571777344 192.05230712890625 142.00161743164062 L192.05230712890625 147.28370666503906 L191.37384033203125 153.7223358154297 Z"></path>
<path fill="#dd3652" fill-opacity="1.0"  filling="0" d="M192.05230712890625 147.28370666503906 L192.05230712890625 153.7223358154297 L176.25753784179688 156.31228637695312 L160.46278381347656 153.7223358154297 L160.46278381347656 142.0 C160.46278381347656 139.80685424804688 162.26559448242188 138.02816772460938 164.48692321777344 138.02816772460938 L166.49899291992188 138.02816772460938 L166.49899291992188 145.67404174804688 C166.49899291992188 146.56298828125 167.21971130371094 147.28370666503906 168.10865783691406 147.28370666503906 L192.05230712890625 147.28370666503906 Z"></path>
<path fill="#f7f3f1" fill-opacity="1.0"  filling="0" d="M142.25352478027344 129.5774688720703 L58.14889144897461 129.5774688720703 L57.7637825012207 129.95855712890625 C54.430179595947266 129.95855712890625 52.198387145996094 132.5327911376953 52.198387145996094 135.86639404296875 L52.198387145996094 153.7223358154297 L147.468017578125 153.7223358154297 L148.29014587402344 147.28370666503906 L148.29014587402344 135.61367797851562 C148.28973388671875 132.28009033203125 145.58712768554688 129.5774688720703 142.25352478027344 129.5774688720703 Z"></path>
<path fill="#eae2df" fill-opacity="1.0"  filling="0" d="M148.28973388671875 147.28370666503906 L148.28973388671875 153.7223358154297 L97.35452270507812 156.31228637695312 L51.71025848388672 153.7223358154297 L51.71025848388672 135.61367797851562 C51.71025848388672 132.28009033203125 54.41287612915039 129.5774688720703 57.74647903442383 129.5774688720703 L58.14889144897461 129.5774688720703 L58.14889144897461 146.0764617919922 C58.14889144897461 146.74327087402344 58.689334869384766 147.28370666503906 59.356136322021484 147.28370666503906 L148.28973388671875 147.28370666503906 Z"></path>
<path fill="#fc5461" fill-opacity="1.0"  filling="0" d="M77.86720275878906 141.64990234375 L69.81890869140625 141.64990234375 L66.10301971435547 141.91952514648438 C64.99195098876953 141.91952514648438 64.0909423828125 142.82052612304688 64.0909423828125 143.9315948486328 L64.21931457519531 153.7223358154297 L78.93722534179688 153.7223358154297 L79.87886810302734 147.28370666503906 L79.87886810302734 143.66197204589844 C79.8792724609375 142.5509033203125 78.978271484375 141.64990234375 77.86720275878906 141.64990234375 Z"></path>
<path fill="#dd3652" fill-opacity="1.0"  filling="0" d="M79.8792724609375 147.28370666503906 L79.8792724609375 153.7223358154297 L71.83098602294922 156.31228637695312 L63.78269577026367 153.7223358154297 L63.78269577026367 143.66197204589844 C63.78269577026367 142.5509033203125 64.68370056152344 141.64990234375 65.79476928710938 141.64990234375 L69.81890869140625 141.64990234375 L69.81890869140625 146.0764617919922 C69.81890869140625 146.74327087402344 70.35935974121094 147.28370666503906 71.02615356445312 147.28370666503906 L79.8792724609375 147.28370666503906 Z"></path>
<path fill="#fc5461" fill-opacity="1.0"  filling="0" d="M106.03621673583984 141.64990234375 L97.98793029785156 141.64990234375 L94.27203369140625 141.91952514648438 C93.16096496582031 141.91952514648438 92.25996398925781 142.82052612304688 92.25996398925781 143.9315948486328 L92.38833618164062 153.7223358154297 L107.10623931884766 153.7223358154297 L108.04788208007812 147.28370666503906 L108.04788208007812 143.66197204589844 C108.04829406738281 142.5509033203125 107.14727783203125 141.64990234375 106.03621673583984 141.64990234375 Z"></path>
<path fill="#dd3652" fill-opacity="1.0"  filling="0" d="M108.04829406738281 147.28370666503906 L108.04829406738281 153.7223358154297 L100.0 156.31228637695312 L91.95170593261719 153.7223358154297 L91.95170593261719 143.66197204589844 C91.95170593261719 142.5509033203125 92.85271453857422 141.64990234375 93.96378326416016 141.64990234375 L97.98793029785156 141.64990234375 L97.98793029785156 146.0764617919922 C97.98793029785156 146.74327087402344 98.52837371826172 147.28370666503906 99.1951675415039 147.28370666503906 L108.04829406738281 147.28370666503906 Z"></path>
<path fill="#fc5461" fill-opacity="1.0"  filling="0" d="M134.20523071289062 141.64990234375 L126.15694427490234 141.64990234375 L122.4410400390625 141.91952514648438 C121.32998657226562 141.91952514648438 120.42897033691406 142.82052612304688 120.42897033691406 143.9315948486328 L120.55734252929688 153.7223358154297 L135.27525329589844 153.7223358154297 L136.21690368652344 147.28370666503906 L136.21690368652344 143.66197204589844 C136.21730041503906 142.5509033203125 135.3162841796875 141.64990234375 134.20523071289062 141.64990234375 Z"></path>
<path fill="#dd3652" fill-opacity="1.0"  filling="0" d="M136.21730041503906 147.28370666503906 L136.21730041503906 153.7223358154297 L128.1690216064453 156.31228637695312 L120.1207275390625 153.7223358154297 L120.1207275390625 143.66197204589844 C120.1207275390625 142.5509033203125 121.02173614501953 141.64990234375 122.13279724121094 141.64990234375 L126.15694427490234 141.64990234375 L126.15694427490234 146.0764617919922 C126.15694427490234 146.74327087402344 126.69738006591797 147.28370666503906 127.36418151855469 147.28370666503906 L136.21730041503906 147.28370666503906 Z"></path>
<path fill="#9ce6fb" fill-opacity="1.0"  filling="0" d="M193.1460723876953 187.1356201171875 L6.905029296875 187.2040252685547 C3.5714263916015625 187.2040252685547 0.868804931640625 184.50140380859375 0.868804931640625 181.16781616210938 L0.7492904663085938 160.29376220703125 C0.7492904663085938 156.9601593017578 2.6040191650390625 154.20603942871094 5.938026428222656 154.20603942871094 L7.947685241699219 153.7223358154297 L193.96377563476562 153.7223358154297 C197.29739379882812 153.7223358154297 200.0 156.42495727539062 200.0 159.758544921875 L200.0 180.2816925048828 L199.29376220703125 181.87847900390625 C199.29376220703125 185.2120819091797 196.4796905517578 187.1356201171875 193.1460723876953 187.1356201171875 Z"></path>
<path fill="#eae2df" fill-opacity="1.0"  filling="0" d="M190.9456787109375 187.9275665283203 L190.9456787109375 193.96377563476562 L16.29778289794922 193.96377563476562 C15.6309814453125 193.96377563476562 15.090538024902344 194.5042266845703 15.090538024902344 195.1710205078125 L15.090538024902344 200.0 L11.066398620605469 200.0 C9.955329895019531 200.0 9.0543212890625 199.0989990234375 9.0543212890625 197.98793029785156 L9.0543212890625 187.9275665283203 L94.06639862060547 183.05996704101562 L190.9456787109375 187.9275665283203 Z"></path>
<path fill="#68dbf9" fill-opacity="1.0"  filling="0" d="M200.0 180.2816925048828 L200.0 181.891357421875 C200.0 185.22494506835938 197.29739379882812 187.9275665283203 193.96377563476562 187.9275665283203 L6.036216735839844 187.9275665283203 C2.7026138305664062 187.9275665283203 0.0 185.22494506835938 0.0 181.891357421875 L0.0 159.758544921875 C0.0 156.42495727539062 2.7026138305664062 153.7223358154297 6.036216735839844 153.7223358154297 L7.947685241699219 153.7223358154297 L7.947685241699219 178.67202758789062 C7.947685241699219 179.56097412109375 8.668411254882812 180.2816925048828 9.557342529296875 180.2816925048828 L200.0 180.2816925048828 Z"></path></svg>