<svg xmlns="http://www.w3.org/2000/svg" viewBox="0.0 0.0 200.0 200.0" height="200.0px" width="200.0px"><path fill="#84d9f0" fill-opacity="1.0"  filling="0" d="M59.375 78.125 L140.625 78.125 L140.625 90.625 L59.375 90.625 L59.375 78.125 Z"></path>
<path fill="#a5e7f9" fill-opacity="1.0"  filling="0" d="M56.25 62.5 L143.75 62.5 A3.125 3.125 0.0 0 1 146.875 65.625 L146.875 75.0 A3.125 3.125 0.0 0 1 143.75 78.125 L56.25 78.125 A3.125 3.125 0.0 0 1 53.125 75.0 L53.125 65.625 A3.125 3.125 0.0 0 1 56.25 62.5 Z"></path>
<path fill="#a5e7f9" fill-opacity="1.0"  filling="0" d="M50.0 90.625 L150.0 90.625 A6.25 6.25 0.0 0 1 156.25 96.875 L156.25 187.5 A6.25 6.25 0.0 0 1 150.0 193.75 L50.0 193.75 A6.25 6.25 0.0 0 1 43.75 187.5 L43.75 96.875 A6.25 6.25 0.0 0 1 50.0 90.625 Z"></path>
<path fill="#7ec116" fill-opacity="1.0"  filling="0" d="M75.0 125.0 L68.75 125.0 A25.0 25.0 0.0 0 0 93.75 150.0 L100.0 150.0 A25.0 25.0 0.0 0 0 75.0 125.0 Z"></path>
<path fill="#7ec116" fill-opacity="1.0"  filling="0" d="M131.25 125.0 L125.0 125.0 A25.0 25.0 0.0 0 0 100.0 150.0 L106.25 150.0 A25.0 25.0 0.0 0 0 131.25 125.0 Z"></path>
<path fill="#7ec116" fill-opacity="1.0"  filling="0" d="M81.25 103.125 A18.75 18.75 0.0 0 0 100.0 121.875 A18.75 18.75 0.0 0 0 81.25 103.125 Z"></path>
<path fill="#7ec116" fill-opacity="1.0"  filling="0" d="M118.75 103.125 A18.75 18.75 0.0 0 0 100.0 121.875 A18.75 18.75 0.0 0 0 118.75 103.125 Z"></path>
<path fill="#7ec116" fill-opacity="1.0"  filling="0" d="M131.25 156.25 L125.0 156.25 A25.0 25.0 0.0 0 0 100.0 181.25 L106.25 181.25 A25.0 25.0 0.0 0 0 131.25 156.25 Z"></path>
<path fill="#7ec116" fill-opacity="1.0"  filling="0" d="M75.0 156.25 L68.75 156.25 A25.0 25.0 0.0 0 0 93.75 181.25 L100.0 181.25 A25.0 25.0 0.0 0 0 75.0 156.25 Z"></path>
<path fill="#7ec116" fill-opacity="1.0"  filling="0" d="M15.625 9.375 L9.375 9.375 A25.0 25.0 0.0 0 0 34.375 34.375 L40.625 34.375 A25.0 25.0 0.0 0 0 15.625 9.375 Z"></path>
<path fill="#faacfc" fill-opacity="1.0"  filling="0" d="M118.75 59.015625 C118.75 59.015625 99.2562484741211 94.109375 118.75 94.109375 C138.24374389648438 94.109375 118.75 59.015625 118.75 59.015625 Z"></path>
<path fill="#70a514" fill-opacity="1.0"  filling="0" d="M39.375 31.25 L34.375 31.25 A25.0 25.0 0.0 0 1 9.590621948242188 9.375 L9.375 9.375 A25.0 25.0 0.0 0 0 34.375 34.375 L40.625 34.375 A25.146875381469727 25.146875381469727 0.0 0 0 40.40937423706055 31.25 L39.375 31.25 Z"></path>
<path fill="#70a514" fill-opacity="1.0"  filling="0" d="M99.95625305175781 149.9562530517578 A28.65312385559082 28.65312385559082 0.0 0 0 87.10311889648438 142.8562469482422 A25.04062271118164 25.04062271118164 0.0 0 1 69.53750610351562 125.0 L68.75 125.0 A25.0 25.0 0.0 0 0 93.75 150.0 L100.0 150.0 L99.95625305175781 149.9562530517578 Z"></path>
<path fill="#70a514" fill-opacity="1.0"  filling="0" d="M112.8968734741211 142.8562469482422 A28.65312385559082 28.65312385559082 0.0 0 0 100.04374694824219 149.9562530517578 L100.0 150.0 L106.25 150.0 A25.0 25.0 0.0 0 0 131.25 125.0 L130.46250915527344 125.0 A25.04062271118164 25.04062271118164 0.0 0 1 112.8968734741211 142.8562469482422 Z"></path>
<path fill="#70a514" fill-opacity="1.0"  filling="0" d="M112.8968734741211 174.10626220703125 A28.65312385559082 28.65312385559082 0.0 0 0 100.04374694824219 181.2062530517578 L100.0 181.25 L106.25 181.25 A25.0 25.0 0.0 0 0 131.25 156.25 L130.46250915527344 156.25 A25.04062271118164 25.04062271118164 0.0 0 1 112.8968734741211 174.10626220703125 Z"></path>
<path fill="#70a514" fill-opacity="1.0"  filling="0" d="M99.95625305175781 181.2062530517578 A28.65312385559082 28.65312385559082 0.0 0 0 87.10311889648438 174.10626220703125 A25.04062271118164 25.04062271118164 0.0 0 1 69.53750610351562 156.25 L68.75 156.25 A25.0 25.0 0.0 0 0 93.75 181.25 L100.0 181.25 L99.95625305175781 181.2062530517578 Z"></path>
<path fill="#a5e7f9" fill-opacity="1.0"  filling="0" d="M176.70938110351562 13.803123474121094 A9.375 9.375 0.0 0 0 163.8000030517578 10.790618896484375 L153.17498779296875 17.387496948242188 L163.07186889648438 33.32499694824219 L173.69686889648438 26.724998474121094 A9.375 9.375 0.0 0 0 176.70938110351562 13.803123474121094 Z"></path>
<path fill="#faacfc" fill-opacity="1.0"  filling="0" d="M154.83438110351562 20.043746948242188 L128.2937469482422 36.540626525878906 L123.6312484741211 46.796875 L134.890625 47.15625 L161.43124389648438 30.659378051757812 L154.83438110351562 20.043746948242188 Z"></path>
<path fill="#f99ff9" fill-opacity="1.0"  filling="0" d="M161.43124389648438 30.659378051757812 L158.703125 26.268753051757812 L137.3874969482422 38.62187957763672 L127.34687805175781 38.62187957763672 L123.6312484741211 46.796875 L134.890625 47.15625 L161.43124389648438 30.659378051757812 Z"></path>
<path fill="#fff" fill-opacity="1.0"  filling="0" d="M57.8125 139.0625 A4.6875 4.6875 0.0 0 1 53.125 134.375 L53.125 103.125 A4.6875 4.6875 0.0 0 1 62.5 103.125 L62.5 134.375 A4.6875 4.6875 0.0 0 1 57.8125 139.0625 Z"></path>
<path fill="#fff" fill-opacity="1.0"  filling="0" d="M62.40312576293945 147.3312530517578 A4.590624809265137 4.590624809265137 0.0 1 1 53.22187423706055 147.3312530517578 A4.590624809265137 4.590624809265137 0.0 1 1 62.40312576293945 147.3312530517578 Z"></path>
<path fill="#84d9f0" fill-opacity="1.0"  filling="0" d="M177.43124389648438 15.275001525878906 L172.54061889648438 18.015625 A8.140625 8.140625 0.0 0 1 161.58438110351562 15.112503051757812 L160.2937469482422 12.96875 L153.18438720703125 17.387496948242188 L163.0812530517578 33.32499694824219 L173.70623779296875 26.724998474121094 A9.353124618530273 9.353124618530273 0.0 0 0 177.43124389648438 15.275001525878906 Z"></path>
<path fill="#70a514" fill-opacity="1.0"  filling="0" d="M100.0 184.375 A3.125 3.125 0.0 0 1 96.875 181.25 L96.875 121.875 A3.125 3.125 0.0 0 1 103.125 121.875 L103.125 181.25 A3.125 3.125 0.0 0 1 100.0 184.375 Z"></path>
<path fill="#70a514" fill-opacity="1.0"  filling="0" d="M102.81250762939453 33.01875305175781 A3.125 3.125 0.0 0 0 100.0 31.25 L90.375 31.25 A21.893749237060547 21.893749237060547 0.0 0 0 68.75 12.5 L46.875 12.5 A3.125 3.125 0.0 0 0 46.875 18.75 L68.75 18.75 A15.653124809265137 15.653124809265137 0.0 0 1 84.0625 31.25 L75.0 31.25 A3.125 3.125 0.0 0 0 72.55937194824219 36.328125 L85.05937194824219 51.953125 A3.125 3.125 0.0 0 0 89.94062805175781 51.953125 L102.44062042236328 36.328125 A3.125 3.125 0.0 0 0 102.81250762939453 33.01875305175781 Z"></path>
<path fill="#70a514" fill-opacity="1.0"  filling="0" d="M50.0 43.75 A3.125 3.125 0.0 0 1 49.01250076293945 43.587501525878906 C39.0625 40.27187728881836 23.4375 24.743743896484375 22.790618896484375 24.084381103515625 A3.125 3.125 0.0 1 1 27.209381103515625 19.665618896484375 C31.412498474121094 23.868751525878906 43.881248474121094 35.290618896484375 50.98749923706055 37.662498474121094 A3.125 3.125 0.0 0 1 50.0 43.75 Z"></path>
<path fill="#faacfc" fill-opacity="1.0"  filling="0" d="M43.75 181.25 L43.75 187.5 A6.25 6.25 0.0 0 0 50.0 193.75 L150.0 193.75 A6.25 6.25 0.0 0 0 156.25 187.5 L156.25 181.25 L43.75 181.25 Z"></path>
<path fill="#f99ff9" fill-opacity="1.0"  filling="0" d="M150.0 187.5 L50.0 187.5 A6.25 6.25 0.0 0 1 43.75 181.25 L43.75 187.5 A6.25 6.25 0.0 0 0 50.0 193.75 L150.0 193.75 A6.25 6.25 0.0 0 0 156.25 187.5 L156.25 181.25 A6.25 6.25 0.0 0 1 150.0 187.5 Z"></path>
<path fill="#84d9f0" fill-opacity="1.0"  filling="0" d="M166.38436889648438 41.74374771118164 A3.125 3.125 0.0 0 1 163.72813415527344 40.27187728881836 L147.2312469482422 13.731254577636719 A3.125 3.125 0.0 1 1 152.5437469482422 10.428123474121094 L169.04061889648438 36.96875 A3.125 3.125 0.0 0 1 166.390625 41.74374771118164 L166.38436889648438 41.74374771118164 Z"></path></svg>