<svg xmlns="http://www.w3.org/2000/svg" viewBox="0.0 0.0 200.0 200.0" height="200.0px" width="200.0px"><path fill="#A36549" fill-opacity="1.0"  filling="0" d="M100.0 150.80429077148438 L54.476951599121094 150.80429077148438 C54.476951599121094 150.80429077148438 24.108978271484375 154.14022827148438 24.108978271484375 200.00038146972656 L43.88749694824219 200.00038146972656 L46.90547180175781 198.2238311767578 L49.923439025878906 200.00038146972656 L100.0 200.00038146972656 L114.83515930175781 177.2136688232422 L100.0 150.80429077148438 Z"></path>
<path fill="#D4835F" fill-opacity="1.0"  filling="0" d="M145.52304077148438 150.80429077148438 L100.0 150.80429077148438 L100.0 200.0 L150.076171875 200.0 L153.09413146972656 197.88906860351562 L156.1121063232422 200.0 L175.890625 200.0 C175.89102172851562 154.14022827148438 145.52304077148438 150.80429077148438 145.52304077148438 150.80429077148438 Z"></path>
<path fill="#FFA74F" fill-opacity="1.0"  filling="0" d="M105.43399047851562 181.79922485351562 L94.5660171508789 181.79922485351562 C92.10468292236328 181.79922485351562 90.11016082763672 183.79452514648438 90.11016082763672 186.25506591796875 C90.11016082763672 188.71641540527344 92.10546875 190.7109375 94.5660171508789 190.7109375 L105.43399047851562 190.7109375 C107.89531707763672 190.7109375 109.88983917236328 188.7156219482422 109.88983917236328 186.25506591796875 C109.8902359008789 183.79452514648438 107.8949203491211 181.79922485351562 105.43399047851562 181.79922485351562 Z"></path>
<path fill="#EFEDEE" fill-opacity="1.0"  filling="0" d="M178.6417999267578 107.337890625 C188.990234375 102.0101547241211 190.17733764648438 87.68241882324219 180.84686279296875 80.72383117675781 L180.84686279296875 80.72383117675781 L180.84686279296875 80.72383117675781 C188.90469360351562 72.3246078491211 185.37539672851562 58.38750076293945 174.291015625 54.83554458618164 L174.291015625 54.83554458618164 C179.18515014648438 44.27499771118164 171.3214874267578 32.23905944824219 159.6847686767578 32.478904724121094 L159.6847686767578 32.478904724121094 L159.6847686767578 32.478904724121094 C160.884765625 20.90155792236328 149.5390625 12.070701599121094 138.61053466796875 16.076171875 L138.61053466796875 16.076171875 L138.61053466796875 16.076171875 C135.986328125 4.736724853515625 122.38788604736328 0.06797027587890625 113.35234832763672 7.4050750732421875 L113.35234832763672 7.4050750732421875 C107.18828582763672 -2.4679641723632812 92.8109359741211 -2.4679641723632812 86.64726257324219 7.4050750732421875 L86.64726257324219 7.4050750732421875 C77.611328125 0.068359375 64.01289367675781 4.736724853515625 61.38906478881836 16.076171875 L61.38906478881836 16.076171875 L61.38906478881836 16.076171875 C50.460548400878906 12.071098327636719 39.114845275878906 20.90155792236328 40.314842224121094 32.478904724121094 L40.314842224121094 32.478904724121094 L40.314842224121094 32.478904724121094 C28.677734375 32.23905944824219 20.814064025878906 44.275390625 25.708595275878906 54.83554458618164 L25.708595275878906 54.83554458618164 C14.624610900878906 58.387107849121094 11.094924926757812 72.3246078491211 19.152740478515625 80.72383117675781 L19.152740478515625 80.72383117675781 L19.152740478515625 80.72383117675781 C9.822265625 87.6820297241211 11.009376525878906 102.00975799560547 21.357810974121094 107.337890625 L21.357810974121094 107.337890625 L21.357810974121094 107.337890625 C14.792579650878906 116.9488296508789 20.567581176757812 130.11483764648438 32.08515930175781 131.7937469482422 L32.08515930175781 131.7937469482422 L32.08515930175781 131.7937469482422 C28.995704650878906 143.01602172851562 38.73358917236328 153.59335327148438 50.172264099121094 151.44140625 L50.172264099121094 151.44140625 L50.172264099121094 151.44140625 C50.894142150878906 163.05819702148438 63.53828430175781 169.9011688232422 73.6585922241211 164.15155029296875 L73.6585922241211 164.15155029296875 L73.6585922241211 164.15155029296875 C78.11328125 174.90469360351562 92.2945327758789 177.27108764648438 99.99960327148438 168.54727172851562 L99.99960327148438 168.54727172851562 L99.99960327148438 168.54727172851562 C107.7046890258789 177.27108764648438 121.88555145263672 174.9050750732422 126.34062957763672 164.15155029296875 L126.34062957763672 164.15155029296875 L126.34062957763672 164.15155029296875 C136.4609375 169.9011688232422 149.10508728027344 163.05819702148438 149.82696533203125 151.44140625 L149.82696533203125 151.44140625 L149.82696533203125 151.44140625 C161.265625 153.59335327148438 171.0031280517578 143.015625 167.91366577148438 131.7937469482422 L167.91366577148438 131.7937469482422 L167.91366577148438 131.7937469482422 C179.4324188232422 130.11483764648438 185.20742797851562 116.94844055175781 178.6417999267578 107.337890625 L178.6417999267578 107.337890625 L178.6417999267578 107.337890625 Z"></path>
<path fill="#3A484A" fill-opacity="1.0"  filling="0" d="M162.4558563232422 71.02265167236328 L162.45742797851562 71.02108764648438 C160.6746063232422 63.85234451293945 157.68984985351562 57.158203125 153.72811889648438 51.1640625 L153.72811889648438 51.160545349121094 C142.21640014648438 33.734375 122.4527359008789 22.237503051757812 100.0 22.237503051757812 C69.82539367675781 22.237503051757812 44.50703430175781 43.00273513793945 37.54414367675781 71.02265167236328 L51.771484375 85.25 L150.1378936767578 85.25 L162.4558563232422 71.02265167236328 Z"></path>
<path fill="#313D40" fill-opacity="1.0"  filling="0" d="M37.54414367675781 71.02265167236328 L47.9296875 81.40859985351562 C48.21406555175781 77.85858917236328 48.78046417236328 74.38750457763672 49.61679458618164 71.02265167236328 C56.11015701293945 44.892578125 78.5667953491211 25.07538604736328 106.03828430175781 22.519920349121094 C105.50507354736328 22.470314025878906 104.96952819824219 22.427734375 104.43280792236328 22.391403198242188 C102.9585952758789 22.289840698242188 101.4781265258789 22.237503051757812 100.00078582763672 22.237503051757812 C92.92890167236328 22.237503051757812 86.123046875 23.37812042236328 79.75859832763672 25.48554229736328 C74.36483764648438 27.271484375 69.08906555175781 29.842971801757812 64.3160171508789 33.03008270263672 C51.18515396118164 41.79609298706055 41.4609375 55.26171875 37.54414367675781 71.02265167236328 Z"></path>
<path fill="#E3B098" fill-opacity="1.0"  filling="0" d="M162.45742797851562 71.02108764648438 L162.4558563232422 71.02265167236328 L115.9332046508789 71.02265167236328 C113.646484375 71.02265167236328 111.48593139648438 69.97578430175781 110.0687484741211 68.18203735351562 L105.86445617675781 62.859375 C102.8726577758789 59.07148742675781 97.12812042236328 59.07148742675781 94.13594055175781 62.859375 L89.931640625 68.18203735351562 C88.51445007324219 69.9761734008789 86.3539047241211 71.02265167236328 84.06719207763672 71.02265167236328 L37.54414367675781 71.02265167236328 C36.30508041381836 76.0093765258789 35.642967224121094 81.2242202758789 35.642967224121094 86.59453582763672 C35.642967224121094 91.4878921508789 36.1875 96.255859375 37.22734451293945 100.83671569824219 C43.705081939697266 129.52694702148438 69.34883117675781 150.95156860351562 100.0 150.95156860351562 C135.544921875 150.95156860351562 164.35702514648438 122.13945007324219 164.35702514648438 86.59453582763672 C164.35702514648438 81.22383117675781 163.697265625 76.0078125 162.45742797851562 71.02108764648438 Z"></path>
<path fill="#C99C87" fill-opacity="1.0"  filling="0" d="M100.12187957763672 150.94961547851562 C100.6011734008789 150.94882202148438 101.0796890258789 150.9425811767578 101.55663299560547 150.931640625 C101.96484375 150.92147827148438 102.37149047851562 150.90585327148438 102.77812194824219 150.88827514648438 C102.87109375 150.88436889648438 102.96484375 150.8820343017578 103.05781555175781 150.87734985351562 C104.05352020263672 150.82928466796875 105.04336547851562 150.759765625 106.02734375 150.66796875 C78.09530639648438 148.06602478027344 55.34687805175781 127.61836242675781 49.30000305175781 100.83671569824219 C48.26054382324219 96.2554702758789 47.71562957763672 91.4878921508789 47.71562957763672 86.59453582763672 C47.71562957763672 81.2242202758789 48.37734603881836 76.0093765258789 49.61679458618164 71.02265167236328 L37.54414367675781 71.02265167236328 C36.92461395263672 73.51602172851562 36.44921875 76.06640625 36.128902435302734 78.66484069824219 C34.99726867675781 87.84219360351562 35.859764099121094 97.31367492675781 38.66288757324219 106.12812042236328 C42.689849853515625 118.7906265258789 50.906639099121094 130.3019561767578 61.65546798706055 138.28750610351562 C72.36445617675781 146.244140625 85.63163757324219 150.95196533203125 100.0 150.95196533203125 C100.0406265258789 150.95156860351562 100.08125305175781 150.95001220703125 100.12187957763672 150.94961547851562 Z"></path>
<path fill="#F98084" fill-opacity="1.0"  filling="0" d="M70.02656555175781 108.865234375 L60.877342224121094 108.865234375 C59.21054458618164 108.865234375 57.859375 107.5140609741211 57.859375 105.84725952148438 C57.859375 104.18046569824219 59.21054458618164 102.82929992675781 60.877342224121094 102.82929992675781 L70.02656555175781 102.82929992675781 C71.693359375 102.82929992675781 73.0445327758789 104.18046569824219 73.0445327758789 105.84725952148438 C73.0445327758789 107.5140609741211 71.693359375 108.865234375 70.02656555175781 108.865234375 Z"></path>
<path fill="#3A484A" fill-opacity="1.0"  filling="0" d="M134.5476531982422 98.9917984008789 C132.880859375 98.9917984008789 131.52969360351562 97.640625 131.52969360351562 95.97382354736328 L131.52969360351562 89.2562484741211 C131.52969360351562 87.5894546508789 132.880859375 86.23828125 134.5476531982422 86.23828125 C136.21446228027344 86.23828125 137.5656280517578 87.5894546508789 137.5656280517578 89.2562484741211 L137.5656280517578 95.97382354736328 C137.56600952148438 97.6402359008789 136.21446228027344 98.9917984008789 134.5476531982422 98.9917984008789 Z"></path>
<path fill="#3A484A" fill-opacity="1.0"  filling="0" d="M65.45234680175781 98.9917984008789 C63.785545349121094 98.9917984008789 62.43437576293945 97.640625 62.43437576293945 95.97382354736328 L62.43437576293945 89.2562484741211 C62.43437576293945 87.5894546508789 63.785545349121094 86.23828125 65.45234680175781 86.23828125 C67.119140625 86.23828125 68.47030639648438 87.5894546508789 68.47030639648438 89.2562484741211 L68.47030639648438 95.97382354736328 C68.47030639648438 97.6402359008789 67.119140625 98.9917984008789 65.45234680175781 98.9917984008789 Z"></path>
<path fill="#F98084" fill-opacity="1.0"  filling="0" d="M139.1222686767578 108.865234375 L129.97303771972656 108.865234375 C128.30624389648438 108.865234375 126.955078125 107.5140609741211 126.955078125 105.84725952148438 C126.955078125 104.18046569824219 128.30624389648438 102.82929992675781 129.97303771972656 102.82929992675781 L139.1222686767578 102.82929992675781 C140.7890625 102.82929992675781 142.14022827148438 104.18046569824219 142.14022827148438 105.84725952148438 C142.140625 107.5140609741211 140.78944396972656 108.865234375 139.1222686767578 108.865234375 Z"></path>
<path fill="#3A484A" fill-opacity="1.0"  filling="0" d="M100.0 108.4859390258789 C96.720703125 108.4859390258789 93.64022827148438 107.11328125 91.5484390258789 104.72032165527344 C90.4515609741211 103.4652328491211 90.5796890258789 101.55859375 91.8343734741211 100.46172332763672 C93.08906555175781 99.365234375 94.9957046508789 99.4925765991211 96.09297180175781 100.748046875 C97.0386734008789 101.82968139648438 98.4625015258789 102.45000457763672 99.99960327148438 102.45000457763672 C101.53671264648438 102.45000457763672 102.96092987060547 101.82929992675781 103.90664672851562 100.7476577758789 C105.00350952148438 99.4925765991211 106.9097671508789 99.36445617675781 108.16523742675781 100.46211242675781 C109.4203109741211 101.5589828491211 109.5484390258789 103.46562957763672 108.4507827758789 104.720703125 C106.359375 107.11328125 103.2789077758789 108.4859390258789 100.0 108.4859390258789 Z"></path>
<path fill="#A36549" fill-opacity="1.0"  filling="0" d="M150.076171875 200.0 L150.076171875 182.58436584472656 C150.076171875 180.91757202148438 151.42733764648438 179.56640625 153.09413146972656 179.56640625 C154.76092529296875 179.56640625 156.1121063232422 180.91757202148438 156.1121063232422 182.58436584472656 L156.1121063232422 200.0 L150.076171875 200.0 Z"></path>
<path fill="#87543D" fill-opacity="1.0"  filling="0" d="M43.88788986206055 200.0 L43.88788986206055 182.58436584472656 C43.88788986206055 180.91757202148438 45.23905944824219 179.56640625 46.90586471557617 179.56640625 C48.57265853881836 179.56640625 49.923824310302734 180.91757202148438 49.923824310302734 182.58436584472656 L49.923824310302734 200.0 L43.88788986206055 200.0 Z"></path></svg>