<svg xmlns="http://www.w3.org/2000/svg" viewBox="0.0 0.0 200.0 200.0" height="200.0px" width="200.0px"><path fill="#ffc8b8" fill-opacity="1.0"  filling="0" d="M143.33990478515625 111.75481414794922 C141.60263061523438 120.55751037597656 137.3235321044922 128.95828247070312 130.5026092529297 135.7796173095703 C112.19927978515625 154.08255004882812 31.59679412841797 213.62623596191406 8.9854736328125 191.0145263671875 C-13.626235961914062 168.40321350097656 45.91706848144531 87.80072021484375 64.22039794921875 69.49739837646484 C71.04170989990234 62.67607879638672 79.44210815429688 58.39698028564453 88.24518585205078 56.660118103027344 C98.24028778076172 54.68811798095703 108.75406646728516 55.993019104003906 118.06292724609375 60.57558822631836 C122.55410766601562 62.78660583496094 126.7652359008789 65.76080322265625 130.50221252441406 69.49778747558594 C134.23919677734375 73.23477172851562 137.21339416503906 77.44551086425781 139.42442321777344 81.93707275390625 C144.00698852539062 91.24594116210938 145.31227111816406 101.75971221923828 143.33990478515625 111.75481414794922 Z"></path>
<path fill="#b8ecbb" fill-opacity="1.0"  filling="0" d="M118.06254577636719 60.57636642456055 C108.75406646728516 55.993019104003906 98.24028778076172 54.6877326965332 88.24518585205078 56.660118103027344 C88.07138061523438 46.802494049072266 89.23918914794922 37.32255554199219 90.87841796875 31.2054443359375 C95.38873291015625 14.373397827148438 112.68984985351562 4.384544372558594 129.52227783203125 8.89447021484375 C133.78457641601562 10.036888122558594 137.60708618164062 12.000289916992188 140.86758422851562 14.567512512207031 C131.9188232421875 24.220077514648438 119.1756591796875 44.47039794921875 118.06254577636719 60.57636642456055 Z"></path>
<path fill="#cff2d2" fill-opacity="1.0"  filling="0" d="M140.8664093017578 14.566337585449219 C141.3323516845703 14.064064025878906 141.78736877441406 13.590309143066406 142.22988891601562 13.147003173828125 C154.55201721191406 0.8248825073242188 174.5297088623047 0.8248825073242188 186.85183715820312 13.147003173828125 C199.1739501953125 25.46912384033203 199.1739501953125 45.44682312011719 186.85183715820312 57.768943786621094 C186.408935546875 58.21224594116211 185.93515014648438 58.66765213012695 185.43287658691406 59.13320541381836 C175.77914428710938 68.08079528808594 155.52883911132812 80.82356262207031 139.42324829101562 81.93707275390625 C137.2130126953125 77.44512176513672 134.23919677734375 73.234375 130.50221252441406 69.49739837646484 C126.765625 65.76002502441406 122.55448913574219 62.78622055053711 118.06292724609375 60.5751953125 C119.1756591796875 44.470008850097656 131.9188232421875 24.220077514648438 140.8664093017578 14.566337585449219 Z"></path>
<path fill="#b8ecbb" fill-opacity="1.0"  filling="0" d="M185.4332733154297 59.13359832763672 C187.99932861328125 62.392913818359375 189.96310424804688 66.2154312133789 191.10513305664062 70.47772979736328 C195.61544799804688 87.3101577758789 185.62660217285156 104.61128234863281 168.79417419433594 109.12159729003906 C162.6770477294922 110.76042175292969 153.19712829589844 111.92861938476562 143.33990478515625 111.75481414794922 C145.3118896484375 101.75971221923828 144.00698852539062 91.24594116210938 139.42442321777344 81.93707275390625 C155.5292205810547 80.8239517211914 175.779541015625 68.08079528808594 185.4332733154297 59.13359832763672 Z"></path>
<path fill="#a0e5a5" fill-opacity="1.0"  filling="0" d="M144.35067749023438 50.407466888427734 C143.51564025878906 50.407466888427734 142.67474365234375 50.14109420776367 141.96351623535156 49.590782165527344 C140.25750732421875 48.27064895629883 139.94427490234375 45.817474365234375 141.264404296875 44.11146545410156 L154.48443603515625 27.025161743164062 C155.8053436279297 25.31914520263672 158.2581329345703 25.006690979003906 159.96336364746094 26.326034545898438 C161.6693878173828 27.646163940429688 161.9826202392578 30.099342346191406 160.66249084472656 31.80535888671875 L147.44244384765625 48.89165496826172 C146.67303466796875 49.886051177978516 145.5181121826172 50.407466888427734 144.35067749023438 50.407466888427734 Z"></path>
<path fill="#a0e5a5" fill-opacity="1.0"  filling="0" d="M153.4427947998047 59.49370574951172 C152.2757568359375 59.49370574951172 151.120849609375 58.97268295288086 150.3510284423828 57.977901458740234 C149.03089904785156 56.271888732910156 149.34413146972656 53.81871032714844 151.05015563964844 52.49857711791992 L168.13607788085938 39.27853775024414 C169.84091186523438 37.95880126953125 172.2944793701172 38.27125930786133 173.614990234375 39.977657318115234 C174.93511962890625 41.683677673339844 174.62188720703125 44.13684844970703 172.91587829589844 45.45698165893555 L155.8299560546875 58.67701721191406 C155.11912536621094 59.22733688354492 154.27743530273438 59.49370574951172 153.4427947998047 59.49370574951172 Z"></path>
<path fill="#ffad95" fill-opacity="1.0"  filling="0" d="M112.83514404296875 116.88379669189453 C111.83528137207031 116.88379669189453 110.83619689941406 116.50259399414062 110.07341003417969 115.73980712890625 L98.47423553466797 104.14024353027344 C96.94905853271484 102.61468505859375 96.94905853271484 100.1419677734375 98.47423553466797 98.61640167236328 C99.99980926513672 97.09162139892578 102.47211456298828 97.09122467041016 103.99808502197266 98.61640167236328 L115.59725189208984 110.21558380126953 C117.1224365234375 111.74114227294922 117.1224365234375 114.21385955810547 115.59725189208984 115.73942565917969 C114.83407592773438 116.50220489501953 113.83460998535156 116.88379669189453 112.83514404296875 116.88379669189453 Z"></path>
<path fill="#ffad95" fill-opacity="1.0"  filling="0" d="M52.56576156616211 145.61575317382812 C51.566287994384766 145.61575317382812 50.566429138183594 145.2345428466797 49.80402755737305 144.47177124023438 L38.52396011352539 133.1916961669922 C36.998783111572266 131.66651916503906 36.998783111572266 129.19342041015625 38.52396011352539 127.6678466796875 C40.049137115478516 126.14227294921875 42.52223205566406 126.14266967773438 44.04779815673828 127.6678466796875 L55.32787322998047 138.94793701171875 C56.85305404663086 140.47311401367188 56.85305404663086 142.94619750976562 55.32787322998047 144.47177124023438 C54.56509017944336 145.2345428466797 53.56522750854492 145.61575317382812 52.56576156616211 145.61575317382812 Z"></path>
<path fill="#ffad95" fill-opacity="1.0"  filling="0" d="M80.02640533447266 132.55467224121094 C79.02693939208984 132.55467224121094 78.02706909179688 132.17347717285156 77.26467895507812 131.4106903076172 L72.96839904785156 127.11441040039062 C71.44322204589844 125.5892333984375 71.44322204589844 123.11613464355469 72.96839904785156 121.59056091308594 C74.49357604980469 120.06499481201172 76.9666748046875 120.06538391113281 78.49224853515625 121.59056091308594 L82.78852081298828 125.8868408203125 C84.31370544433594 127.41202545166016 84.31370544433594 129.88511657714844 82.78852081298828 131.4106903076172 C82.02574157714844 132.17347717285156 81.02626037597656 132.55467224121094 80.02640533447266 132.55467224121094 Z"></path>
<path fill="#ffad95" fill-opacity="1.0"  filling="0" d="M78.17118835449219 157.74649047851562 C77.17172241210938 157.74649047851562 76.17225646972656 157.36529541015625 75.40946960449219 156.60250854492188 L71.11318969726562 152.3062286376953 C69.5880126953125 150.7810516357422 69.58761596679688 148.30795288085938 71.11318969726562 146.78277587890625 C72.63876342773438 145.25759887695312 75.11145782470703 145.2572021484375 76.63664245605469 146.78277587890625 L80.93292236328125 151.0790557861328 C82.45809936523438 152.60423278808594 82.45848846435547 155.07733154296875 80.93292236328125 156.60250854492188 C80.17052459716797 157.36489868164062 79.17066955566406 157.74649047851562 78.17118835449219 157.74649047851562 Z"></path>
<path fill="#ffad95" fill-opacity="1.0"  filling="0" d="M79.244873046875 95.93826293945312 C78.24539947509766 95.93826293945312 77.24554443359375 95.55706787109375 76.48314666748047 94.79428100585938 L72.1868667602539 90.49800109863281 C70.66168975830078 88.97282409667969 70.66168975830078 86.49972534179688 72.1868667602539 84.97415161132812 C73.71205139160156 83.44859313964844 76.18514251708984 83.448974609375 77.71070861816406 84.97415161132812 L82.00698852539062 89.27043151855469 C83.53216552734375 90.79561614990234 83.53216552734375 93.26870727539062 82.00698852539062 94.79428100585938 C81.24420928955078 95.55706787109375 80.24433898925781 95.93826293945312 79.244873046875 95.93826293945312 Z"></path>
<path fill="#ffad95" fill-opacity="1.0"  filling="0" d="M122.40294647216797 93.79012298583984 C121.40309143066406 93.79012298583984 120.40401458740234 93.40892791748047 119.64122772216797 92.6461410522461 L115.3449478149414 88.34986114501953 C113.81977081298828 86.8246841430664 113.81977081298828 84.3515853881836 115.3449478149414 82.82640838623047 C116.87052154541016 81.30123138427734 119.34282684326172 81.30083465576172 120.86878967285156 82.82640838623047 L125.16506958007812 87.12268829345703 C126.69025421142578 88.64786529541016 126.69025421142578 91.12096405029297 125.16506958007812 92.6461410522461 C124.40189361572266 93.40853118896484 123.4028091430664 93.79012298583984 122.40294647216797 93.79012298583984 Z"></path>
<path fill="#ffad95" fill-opacity="1.0"  filling="0" d="M27.44580078125 180.54605102539062 C26.445945739746094 180.54605102539062 25.44647216796875 180.1648712158203 24.68407440185547 179.40208435058594 L20.387794494628906 175.10580444335938 C18.86261749267578 173.58062744140625 18.86261749267578 171.10752868652344 20.387794494628906 169.5823516845703 C21.912979125976562 168.05755615234375 24.38646697998047 168.0571746826172 25.9112548828125 169.5823516845703 L30.207534790039062 173.87863159179688 C31.732711791992188 175.40380859375 31.732711791992188 177.8769073486328 30.207534790039062 179.40208435058594 C29.444747924804688 180.1648712158203 28.445274353027344 180.54605102539062 27.44580078125 180.54605102539062 Z"></path>
<path fill="#ff9171" fill-opacity="1.0"  filling="0" d="M190.52554321289062 59.57455062866211 C196.64109802246094 52.9969482421875 200.0 44.487579345703125 200.0 35.45836639404297 C200.0 25.987030029296875 196.3118438720703 17.082794189453125 189.61434936523438 10.385673522949219 C182.91722106933594 3.6885528564453125 174.0129852294922 0.0 164.54164123535156 0.0 C155.5128173828125 0.0 147.0042266845703 3.3585205078125 140.42662048339844 9.473297119140625 C137.38446044921875 7.531379699707031 134.0704803466797 6.069862365722656 130.5330810546875 5.1219482421875 C121.38512420654297 2.6707229614257812 111.82902526855469 3.9283599853515625 103.62665557861328 8.6644287109375 C95.42427062988281 13.400093078613281 89.55711364746094 21.046302795410156 87.10589599609375 30.19464111328125 C85.41902160644531 36.490257263183594 84.41564178466797 45.037506103515625 84.33088684082031 53.546485900878906 C75.75668334960938 55.807106018066406 67.89527893066406 60.2990608215332 61.458274841308594 66.73567199707031 C52.29509353637695 75.89923858642578 32.711090087890625 100.56535339355469 17.863143920898438 126.71173095703125 C-1.0518035888671875 160.02078247070312 -4.9680633544921875 182.5848388671875 6.223358154296875 193.7762451171875 C10.374343872070312 197.92724609375 16.088783264160156 200.0 23.33660888671875 199.99961853027344 C35.630218505859375 199.99920654296875 52.333370208740234 194.03558349609375 73.28788757324219 182.13607788085938 C99.43465423583984 167.28775024414062 124.10037231445312 147.70452880859375 133.26394653320312 138.5409393310547 C139.7005615234375 132.10433959960938 144.1925048828125 124.24254608154297 146.453125 115.66873168945312 C154.96014404296875 115.58358764648438 163.51795959472656 114.57825469970703 169.80459594726562 112.8933334350586 C188.69024658203125 107.83309936523438 199.93789672851562 88.35181427001953 194.87767028808594 69.46615600585938 C193.93014526367188 65.92992401123047 192.46746826171875 62.6163215637207 190.52554321289062 59.57455062866211 Z M164.54164123535156 7.8114166259765625 C171.9261474609375 7.8114166259765625 178.8693389892578 10.68719482421875 184.09088134765625 15.909126281738281 C189.3128204345703 21.13105010986328 192.18820190429688 28.07384490966797 192.18820190429688 35.45836639404297 C192.18820190429688 42.84288787841797 189.3128204345703 49.785675048828125 184.09088134765625 55.00761032104492 C175.64907836914062 63.44979476928711 156.67359924316406 75.59459686279297 141.64990234375 77.76422119140625 C139.40020751953125 73.7729721069336 136.59239196777344 70.063720703125 133.26434326171875 66.73567199707031 C129.936279296875 63.40761184692383 126.22703552246094 60.59980010986328 122.23579406738281 58.35011672973633 C124.40424346923828 43.32758331298828 136.53810119628906 24.363815307617188 144.9927978515625 15.909126281738281 C150.2139434814453 10.68719482421875 157.15673828125 7.8114166259765625 164.54164123535156 7.8114166259765625 Z M94.65093994140625 32.21662139892578 C98.59648895263672 17.49132537841797 113.78539276123047 8.723007202148438 128.51109313964844 12.666999816894531 C130.8142852783203 13.284095764160156 132.99484252929688 14.180068969726562 135.03128051757812 15.338104248046875 C127.05152893066406 25.07659912109375 117.65751647949219 40.79590606689453 114.88953399658203 54.960350036621094 C113.18782043457031 54.3358268737793 111.4521255493164 53.8011360168457 109.68595886230469 53.36252212524414 L109.3328857421875 44.363380432128906 C109.24851989746094 42.20820999145508 107.44525909423828 40.52953338623047 105.27680969238281 40.61389923095703 C103.12125396728516 40.69826126098633 101.4429702758789 42.5144157409668 101.52733612060547 44.669586181640625 L101.81752014160156 52.05957794189453 C100.3438949584961 51.9322509765625 98.85777282714844 51.864295959472656 97.36111450195312 51.864295959472656 C95.61526489257812 51.864295959472656 93.8826904296875 51.95334243774414 92.16886138916016 52.12636947631836 C92.34617614746094 44.80668258666992 93.24449157714844 37.46628952026367 94.65093994140625 32.21662139892578 Z M127.74049377441406 133.01788330078125 C124.61749267578125 136.14089965820312 119.39828491210938 140.6890869140625 112.81053161621094 145.9012451171875 L106.80862426757812 139.89974975585938 C105.28306579589844 138.37457275390625 102.81074523925781 138.37457275390625 101.2847900390625 139.89974975585938 C99.75960540771484 141.4249267578125 99.75960540771484 143.89801025390625 101.2847900390625 145.42318725585938 L106.5774154663086 150.7158203125 C95.89490509033203 158.77915954589844 82.76860809326172 167.76971435546875 69.43061065673828 175.34405517578125 C67.04539489746094 176.69854736328125 64.71914672851562 177.96829223632812 62.44641876220703 179.16305541992188 L47.48365020751953 164.20028686523438 C45.958473205566406 162.67510986328125 43.48537826538086 162.67510986328125 41.95981216430664 164.20028686523438 C40.43423843383789 165.7254638671875 40.43463134765625 168.1985626220703 41.95981216430664 169.72412109375 L55.08415985107422 182.84848022460938 C47.241111755371094 186.56398010253906 40.186614990234375 189.1968231201172 34.011688232421875 190.7032470703125 C23.4412841796875 193.28140258789062 15.95013427734375 192.4569091796875 11.746810913085938 188.25320434570312 C7.542701721191406 184.0494842529297 6.718597412109375 176.55833435058594 9.2967529296875 165.98831176757812 C11.672210693359375 156.25021362304688 16.839462280273438 144.33389282226562 24.65595245361328 130.56979370117188 C31.335113525390625 118.80814361572266 39.11528015136719 107.2113037109375 46.39004898071289 97.30955505371094 L55.920372009277344 106.83987426757812 C56.68315505981445 107.6026611328125 57.6826286315918 107.98385620117188 58.682098388671875 107.98385620117188 C59.68156814575195 107.98385620117188 60.68143081665039 107.6022720336914 61.44382095336914 106.83987426757812 C62.9690055847168 105.314697265625 62.9690055847168 102.84160614013672 61.44382095336914 101.31603240966797 L51.128456115722656 91.00066375732422 C57.5709228515625 82.61432647705078 63.27833557128906 75.96329498291016 66.98172760009766 72.25990295410156 C70.19612884521484 69.0455093383789 73.83116912841797 66.40602111816406 77.76109313964844 64.38677978515625 L86.26460266113281 72.89028930664062 C87.02738952636719 73.65306854248047 88.02686309814453 74.03427124023438 89.02632904052734 74.03427124023438 C90.02580261230469 74.03427124023438 91.0256576538086 73.65306854248047 91.78805541992188 72.89028930664062 C93.313232421875 71.36510467529297 93.313232421875 68.89201354980469 91.78805541992188 67.36643981933594 L85.69358825683594 61.271976470947266 C89.44306945800781 60.220558166503906 93.35971069335938 59.67571258544922 97.3607177734375 59.67571258544922 C108.83647155761719 59.67571258544922 119.62560272216797 64.14462280273438 127.73970794677734 72.25912475585938 C135.85421752929688 80.37362670898438 140.32351684570312 91.16236114501953 140.32351684570312 102.63811492919922 C140.32351684570312 114.1138687133789 135.85499572753906 124.90299224853516 127.74049377441406 133.01788330078125 Z M167.78298950195312 105.34867858886719 C162.5403594970703 106.75316619873047 155.19448852539062 107.65148162841797 147.8732452392578 107.82958221435547 C148.0462646484375 106.11575317382812 148.13531494140625 104.38397216796875 148.13531494140625 102.63811492919922 C148.13531494140625 101.55974578857422 148.09820556640625 100.48723602294922 148.03182983398438 99.42019653320312 L157.16571044921875 99.06165313720703 C159.32127380371094 98.977294921875 160.9995574951172 97.16114044189453 160.91519165039062 95.00596618652344 C160.83082580566406 92.85079956054688 159.0318603515625 91.1736831665039 156.85910034179688 91.2564926147461 L146.94720458984375 91.64550018310547 C146.4582061767578 89.41885375976562 145.8196258544922 87.23634338378906 145.03848266601562 85.10851287841797 C159.2021484375 82.33975219726562 174.92613220214844 72.94223022460938 184.66033935546875 64.96794891357422 C185.81875610351562 67.00477600097656 186.7151336669922 69.1849365234375 187.3322296142578 71.4881362915039 C191.27816772460938 86.21382904052734 182.50830078125 101.40312194824219 167.78298950195312 105.34867858886719 Z"></path></svg>