<svg xmlns="http://www.w3.org/2000/svg" viewBox="0.0 0.0 200.0 200.0" height="200.0px" width="200.0px"><path fill="#ffd4b5" fill-opacity="1.0"  filling="0" d="M100.0 3.9566421508789062 C46.956642150878906 3.9566421508789062 3.9566421508789062 46.956642150878906 3.9566421508789062 100.0 C3.9566421508789062 153.04335021972656 46.956642150878906 196.04336547851562 100.0 196.04336547851562 C153.04335021972656 196.04336547851562 196.04336547851562 153.04335021972656 196.04336547851562 100.0 C196.04336547851562 46.956642150878906 153.04335021972656 3.9566421508789062 100.0 3.9566421508789062 Z M100.0 129.15234375 C83.89961242675781 129.15234375 70.84765625 116.10039520263672 70.84765625 100.0 C70.84765625 83.89961242675781 83.89961242675781 70.84765625 100.0 70.84765625 C116.10039520263672 70.84765625 129.15234375 83.89961242675781 129.15234375 100.0 C129.15234375 116.10039520263672 116.10039520263672 129.15234375 100.0 129.15234375 Z"></path>
<path fill="#9d9ae8" fill-opacity="1.0"  filling="0" d="M169.9597625732422 77.99882507324219 C167.68515014648438 70.765625 158.95938110351562 66.84140014648438 154.78750610351562 60.980857849121094 C150.46368408203125 54.90702819824219 149.537109375 45.416404724121094 143.6687469482422 41.074607849121094 C137.7414093017578 36.68906784057617 128.37030029296875 38.59218215942383 121.38203430175781 36.24179458618164 C114.46249389648438 33.91484069824219 108.14961242675781 26.715232849121094 100.69414520263672 26.646484375 C93.50077819824219 26.579689025878906 87.060546875 33.579681396484375 79.82734680175781 35.85430145263672 C72.59414672851562 38.12890625 63.306640625 36.07538986206055 57.44648742675781 40.24726104736328 C51.372657775878906 44.57109069824219 50.31640625 54.087890625 45.974613189697266 59.95663833618164 C41.58906173706055 65.88398742675781 32.81562042236328 69.6871109008789 30.465232849121094 76.6753921508789 C28.138282775878906 83.59452819824219 32.810546875 91.90702819824219 32.74140167236328 99.36249542236328 C32.67461395263672 106.55585479736328 27.765625 114.7679672241211 30.040237426757812 122.00117492675781 C32.314842224121094 129.234375 41.04062271118164 133.15858459472656 45.212501525878906 139.01913452148438 C49.53633117675781 145.09295654296875 50.462890625 154.58358764648438 56.33124542236328 158.92538452148438 C62.25859451293945 163.31092834472656 71.62968444824219 161.40782165527344 78.61796569824219 163.7578125 C85.537109375 166.0847625732422 91.85038757324219 173.2843780517578 99.30586242675781 173.35311889648438 C106.49922180175781 173.419921875 112.939453125 166.419921875 120.17265319824219 164.14532470703125 C127.40585327148438 161.87069702148438 136.693359375 163.92422485351562 142.55352783203125 159.75234985351562 C148.62734985351562 155.4285125732422 149.68359375 145.91171264648438 154.02578735351562 140.04296875 C158.41094970703125 134.11563110351562 167.1847686767578 130.3125 169.53515625 123.32421875 C171.86212158203125 116.4046859741211 167.18984985351562 108.09258270263672 167.2589874267578 100.63711547851562 C167.32537841796875 93.44413757324219 172.23477172851562 85.2320327758789 169.9597625732422 77.99882507324219 Z M100.0 132.12539672851562 C82.2578125 132.12539672851562 67.8746109008789 117.74219512939453 67.8746109008789 100.0 C67.8746109008789 82.25741577148438 82.2578125 67.8746109008789 100.0 67.8746109008789 C117.74219512939453 67.8746109008789 132.12539672851562 82.2578125 132.12539672851562 100.0 C132.12539672851562 117.7425765991211 117.74219512939453 132.12539672851562 100.0 132.12539672851562 Z"></path>
<path fill="" fill-opacity="1.0"  filling="0" d="M176.3019561767578 35.3515625 C174.86679077148438 33.703125 172.3671875 33.53008270263672 170.7195281982422 34.96484375 C169.0710906982422 36.39960861206055 168.89804077148438 38.898826599121094 170.3328094482422 40.547264099121094 C184.767578125 57.130859375 192.08633422851562 77.13398742675781 192.08633422851562 100.0 C192.08633422851562 124.59725952148438 182.50741577148438 147.72225952148438 165.11483764648438 165.11483764648438 C147.72225952148438 182.50741577148438 124.59725952148438 192.08673095703125 100.0 192.08673095703125 C75.40274047851562 192.08673095703125 52.277732849121094 182.5078125 34.885154724121094 165.11483764648438 C17.492584228515625 147.7218780517578 7.913276672363281 124.59725952148438 7.913276672363281 100.0 C7.913276672363281 75.40274047851562 17.4921875 52.277732849121094 34.885154724121094 34.885154724121094 C52.27812576293945 17.492584228515625 75.40274047851562 7.913276672363281 100.0 7.913276672363281 C116.26211547851562 7.913276672363281 130.62109375 11.532035827636719 143.896484375 18.975784301757812 C145.80194091796875 20.044143676757812 148.2136688232422 19.366012573242188 149.28280639648438 17.459373474121094 C150.3515625 15.553131103515625 149.6726531982422 13.141799926757812 147.76641845703125 12.073043823242188 C133.2781219482422 3.94921875 117.65312194824219 0.0 100.0 0.0 C73.2886734008789 0.0 48.17695617675781 10.401954650878906 29.28907012939453 29.28907012939453 C10.401954650878906 48.17695617675781 0.0 73.2886734008789 0.0 100.0 C0.0 126.71133422851562 10.401954650878906 151.8230438232422 29.28907012939453 170.7109375 C48.17695617675781 189.59805297851562 73.2886734008789 200.0 100.0 200.0 C126.71133422851562 200.0 151.8230438232422 189.59805297851562 170.7109375 170.7109375 C189.59805297851562 151.8230438232422 200.0 126.71133422851562 200.0 100.0 C200.0 75.51835632324219 191.80548095703125 53.16328430175781 176.3019561767578 35.3515625 Z"></path>
<path fill="" fill-opacity="1.0"  filling="0" d="M100.0 66.89140319824219 C81.744140625 66.89140319824219 66.89140319824219 81.744140625 66.89140319824219 100.0 C66.89140319824219 118.25585174560547 81.744140625 133.1085968017578 100.0 133.1085968017578 C118.25585174560547 133.1085968017578 133.1085968017578 118.25585174560547 133.1085968017578 100.0 C133.1085968017578 81.744140625 118.25585174560547 66.89140319824219 100.0 66.89140319824219 Z M100.0 125.1953125 C86.1070327758789 125.1953125 74.8046875 113.89297485351562 74.8046875 100.0 C74.8046875 86.1070327758789 86.1070327758789 74.8046875 100.0 74.8046875 C113.89297485351562 74.8046875 125.1953125 86.1070327758789 125.1953125 100.0 C125.1953125 113.89297485351562 113.89297485351562 125.1953125 100.0 125.1953125 Z"></path>
<path fill="" fill-opacity="1.0"  filling="0" d="M145.43905639648438 37.46562576293945 C141.01133728027344 34.24335479736328 135.6218719482422 33.855857849121094 130.40975952148438 33.48125457763672 C127.330078125 33.25975799560547 124.42149353027344 33.05078125 122.00741577148438 32.26679229736328 C119.7535171508789 31.53516387939453 117.37069702148438 30.03710174560547 114.84803771972656 28.451560974121094 C110.56327819824219 25.7578125 105.7066421508789 22.705474853515625 100.0 22.705474853515625 C94.29336547851562 22.705474853515625 89.4371109008789 25.7578125 85.15234375 28.451171875 C82.62968444824219 30.037498474121094 80.2464828491211 31.535545349121094 77.9925765991211 32.267189025878906 C75.57890319824219 33.05078125 72.669921875 33.25975799560547 69.5902328491211 33.48125457763672 C64.37812805175781 33.855857849121094 58.98867416381836 34.243751525878906 54.560546875 37.46601486206055 C50.09023666381836 40.71953201293945 47.96601486206055 45.974613189697266 46.091407775878906 50.611328125 C44.943355560302734 53.451560974121094 43.85898208618164 56.13437271118164 42.39374923706055 58.14765548706055 C40.95937728881836 60.118751525878906 38.76445388793945 61.95234680175781 36.441017150878906 63.89374542236328 C32.578514099121094 67.12069702148438 28.201171875 70.7777328491211 26.469528198242188 76.11054992675781 C24.808204650878906 81.228515625 26.093360900878906 86.4273452758789 27.335548400878906 91.45468139648438 C28.08905792236328 94.5023422241211 28.800392150878906 97.3804702758789 28.800392150878906 100.00039672851562 C28.800392150878906 102.62031555175781 28.08905792236328 105.4984359741211 27.335548400878906 108.54608917236328 C26.093360900878906 113.57343292236328 24.808204650878906 118.77227020263672 26.469924926757812 123.89022827148438 C28.201171875 129.22265625 32.578514099121094 132.8796844482422 36.44062423706055 136.1066436767578 C38.76445388793945 138.04843139648438 40.95937728881836 139.88201904296875 42.39413833618164 141.853515625 C43.85898208618164 143.8664093017578 44.943748474121094 146.548828125 46.091407775878906 149.38946533203125 C47.96562194824219 154.02618408203125 50.09023666381836 159.28125 54.560935974121094 162.53515625 C58.98867416381836 165.75741577148438 64.37812805175781 166.14492797851562 69.5902328491211 166.51953125 C72.669921875 166.7410125732422 75.5785140991211 166.9499969482422 77.9925765991211 167.73397827148438 C80.2464828491211 168.46524047851562 82.62930297851562 169.9636688232422 85.1519546508789 171.54920959472656 C89.43671417236328 174.24298095703125 94.29336547851562 177.29531860351562 100.0 177.29531860351562 C105.7066421508789 177.29531860351562 110.56288146972656 174.24298095703125 114.84765625 171.5496063232422 C117.37030792236328 169.96328735351562 119.7535171508789 168.46524047851562 122.00741577148438 167.7335968017578 C124.42109680175781 166.9499969482422 127.330078125 166.7410125732422 130.40975952148438 166.51953125 C135.6218719482422 166.14453125 141.01133728027344 165.7570343017578 145.439453125 162.53475952148438 C149.90977478027344 159.28125 152.0339813232422 154.02618408203125 153.90859985351562 149.38946533203125 C155.056640625 146.54920959472656 156.14102172851562 143.8664093017578 157.6062469482422 141.85313415527344 C159.04063415527344 139.88201904296875 161.2355499267578 138.04843139648438 163.55899047851562 136.10702514648438 C167.42147827148438 132.8800811767578 171.798828125 129.22305297851562 173.5304718017578 123.89022827148438 C175.19180297851562 118.77227020263672 173.90664672851562 113.57343292236328 172.66445922851562 108.54608917236328 C171.91094970703125 105.4984359741211 171.19961547851562 102.62031555175781 171.19961547851562 100.00039672851562 C171.19961547851562 97.3804702758789 171.91094970703125 94.5023422241211 172.66445922851562 91.45468139648438 C173.90664672851562 86.4273452758789 175.19180297851562 81.228515625 173.5300750732422 76.11054992675781 C171.79922485351562 70.77812194824219 167.42147827148438 67.12109375 163.5593719482422 63.894142150878906 C161.2355499267578 61.95234680175781 159.04063415527344 60.118751525878906 157.60586547851562 58.14726257324219 C156.14102172851562 56.13437271118164 155.05624389648438 53.45195388793945 153.90859985351562 50.611328125 C152.0339813232422 45.974613189697266 149.90977478027344 40.71953201293945 145.43905639648438 37.46562576293945 Z M158.48553466796875 69.966796875 C161.8230438232422 72.755859375 164.9757843017578 75.38945007324219 166.00311279296875 78.55390930175781 C166.96719360351562 81.5230484008789 166.00274658203125 85.42460632324219 164.98202514648438 89.55586242675781 C164.14804077148438 92.92890167236328 163.2863311767578 96.41719055175781 163.2863311767578 100.0 C163.2863311767578 103.58280944824219 164.1484375 107.07109069824219 164.98202514648438 110.44413757324219 C166.00274658203125 114.57500457763672 166.96719360351562 118.4769515991211 166.00311279296875 121.44609832763672 C164.9757843017578 124.61054229736328 161.8230438232422 127.24492645263672 158.48553466796875 130.033203125 C155.89532470703125 132.19688415527344 153.21719360351562 134.4347686767578 151.20782470703125 137.19570922851562 C149.16952514648438 139.99649047851562 147.8488311767578 143.26327514648438 146.57186889648438 146.42227172851562 C144.95155334472656 150.4296875 143.42147827148438 154.21484375 140.78280639648438 156.13516235351562 C138.185546875 158.025390625 134.13241577148438 158.31678771972656 129.84219360351562 158.62539672851562 C126.42578125 158.87071228027344 122.89335632324219 159.125 119.56407165527344 160.20587158203125 C116.3746109008789 161.2414093017578 113.4574203491211 163.07537841796875 110.63594055175781 164.8488311767578 C106.92851257324219 167.1796875 103.4261703491211 169.380859375 100.0 169.380859375 C96.5738296508789 169.380859375 93.07148742675781 167.17929077148438 89.36328125 164.8484344482422 C86.54219055175781 163.07537841796875 83.6253890991211 161.2414093017578 80.4359359741211 160.20623779296875 C77.10664367675781 159.125 73.57421875 158.87071228027344 70.1578140258789 158.62539672851562 C65.8671875 158.31678771972656 61.814453125 158.025390625 59.21757888793945 156.1355438232422 C56.57851791381836 154.21484375 55.04843521118164 150.4296875 53.428123474121094 146.42227172851562 C52.15117263793945 143.26327514648438 50.83047103881836 139.99609375 48.79257583618164 137.1960906982422 C46.782814025878906 134.43438720703125 44.10429763793945 132.19688415527344 41.51445770263672 130.033203125 C38.17695236206055 127.244140625 35.02422332763672 124.61054229736328 33.99687194824219 121.44609832763672 C33.032814025878906 118.4769515991211 33.99726104736328 114.57538604736328 35.017967224121094 110.44413757324219 C35.851959228515625 107.07109069824219 36.71367263793945 103.58280944824219 36.71367263793945 100.0 C36.71367263793945 96.41719055175781 35.8515625 92.92890167236328 35.017967224121094 89.55586242675781 C33.99726104736328 85.42500305175781 33.032814025878906 81.5230484008789 33.99687194824219 78.55390930175781 C35.02422332763672 75.38945007324219 38.17695236206055 72.75508117675781 41.51445770263672 69.966796875 C44.10468292236328 67.80313110351562 46.782814025878906 65.56523132324219 48.79218292236328 62.804298400878906 C50.83047103881836 60.00351333618164 52.15117263793945 56.73672103881836 53.428123474121094 53.57773208618164 C55.04843521118164 49.570308685302734 56.57851791381836 45.785152435302734 59.217185974121094 43.864845275878906 C61.814453125 41.974609375 65.86758422851562 41.683204650878906 70.1578140258789 41.374610900878906 C73.57421875 41.129295349121094 77.10664367675781 40.875 80.4359359741211 39.79413986206055 C83.6253890991211 38.75859451293945 86.5425796508789 36.92461395263672 89.36405944824219 35.15116882324219 C93.07148742675781 32.82030487060547 96.5738296508789 30.619140625 100.0 30.619140625 C103.4261703491211 30.619140625 106.92851257324219 32.820701599121094 110.63671875 35.15156555175781 C113.45780944824219 36.92461395263672 116.3746109008789 38.75859451293945 119.56407165527344 39.79375457763672 C122.89335632324219 40.875 126.42578125 41.129295349121094 129.84219360351562 41.374610900878906 C134.1328125 41.683204650878906 138.185546875 41.974609375 140.7824249267578 43.86445236206055 C143.42147827148438 45.785152435302734 144.95155334472656 49.570308685302734 146.57186889648438 53.57773208618164 C147.8488311767578 56.73672103881836 149.16952514648438 60.00390625 151.20742797851562 62.80390548706055 C153.21719360351562 65.56523132324219 155.89569091796875 67.802734375 158.48553466796875 69.966796875 Z"></path>
<path fill="" fill-opacity="1.0"  filling="0" d="M103.90625 50.14570236206055 A3.90625 3.90625 0.0 1 1 96.09375 50.14570236206055 A3.90625 3.90625 0.0 1 1 103.90625 50.14570236206055 Z"></path>
<path fill="" fill-opacity="1.0"  filling="0" d="M103.90625 148.53555297851562 A3.90625 3.90625 0.0 1 1 96.09375 148.53555297851562 A3.90625 3.90625 0.0 1 1 103.90625 148.53555297851562 Z"></path>
<path fill="" fill-opacity="1.0"  filling="0" d="M73.43476867675781 62.66132736206055 C75.18203735351562 61.39609146118164 75.57266235351562 58.95390319824219 74.3070297241211 57.206642150878906 C73.04179382324219 55.459373474121094 70.599609375 55.06914138793945 68.85234069824219 56.33437728881836 C67.1050796508789 57.599609375 66.71484375 60.04179763793945 67.9800796508789 61.789058685302734 C69.2457046508789 63.53593444824219 71.6875 63.92655944824219 73.43476867675781 62.66132736206055 Z"></path>
<path fill="" fill-opacity="1.0"  filling="0" d="M126.56523132324219 136.01992797851562 C124.81796264648438 137.28515625 124.42733764648438 139.7273406982422 125.69296264648438 141.474609375 C126.9585952758789 143.2218780517578 129.400390625 143.6121063232422 131.1476593017578 142.34686279296875 C132.89492797851562 141.08163452148438 133.28515625 138.6394500732422 132.01992797851562 136.89218139648438 C130.75428771972656 135.14492797851562 128.3125 134.7546844482422 126.56523132324219 136.01992797851562 Z"></path>
<path fill="" fill-opacity="1.0"  filling="0" d="M51.884376525878906 88.373046875 C53.94257736206055 89.0171890258789 56.13359069824219 87.87109375 56.777732849121094 85.8125 C57.421875 83.7542953491211 56.275779724121094 81.56327819824219 54.21718978881836 80.91914367675781 C52.15898132324219 80.2750015258789 49.96796798706055 81.42109680175781 49.32382583618164 83.47968292236328 C48.6796875 85.53789520263672 49.826168060302734 87.7289047241211 51.884376525878906 88.373046875 Z"></path>
<path fill="" fill-opacity="1.0"  filling="0" d="M148.11563110351562 110.3082046508789 C146.05743408203125 109.6640625 143.8664093017578 110.8101577758789 143.22225952148438 112.8687515258789 C142.578125 114.92695617675781 143.72421264648438 117.11796569824219 145.78282165527344 117.76211547851562 C147.84100341796875 118.40625 150.0320281982422 117.26016235351562 150.67616271972656 115.20155334472656 C151.3203125 113.14335632324219 150.173828125 110.95233917236328 148.11563110351562 110.3082046508789 Z"></path>
<path fill="" fill-opacity="1.0"  filling="0" d="M51.94804763793945 110.583984375 C49.89335632324219 111.23983764648438 48.759765625 113.4375 49.41562271118164 115.4921875 C50.07148361206055 117.54688262939453 52.269142150878906 118.68046569824219 54.323829650878906 118.02461242675781 C56.37851333618164 117.36874389648438 57.51211166381836 115.17109680175781 56.85625076293945 113.11640930175781 C56.20038986206055 111.06171417236328 54.00273132324219 109.92811584472656 51.94804763793945 110.583984375 Z"></path>
<path fill="" fill-opacity="1.0"  filling="0" d="M143.1437530517578 85.56484985351562 C143.79962158203125 87.6195297241211 145.99725341796875 88.75312042236328 148.0519561767578 88.0972671508789 C150.1066436767578 87.44140625 151.240234375 85.2437515258789 150.58438110351562 83.1890640258789 C149.9285125732422 81.13436889648438 147.73086547851562 80.00077819824219 145.67617797851562 80.6566390991211 C143.62147521972656 81.3128890991211 142.48789978027344 83.5101547241211 143.1437530517578 85.56484985351562 Z"></path>
<path fill="" fill-opacity="1.0"  filling="0" d="M73.53202819824219 136.08984375 C71.7816390991211 134.8292999267578 69.34062194824219 135.22616577148438 68.07968139648438 136.9765625 C66.8187484741211 138.72695922851562 67.21601867675781 141.16796875 68.9664077758789 142.4289093017578 C70.716796875 143.689453125 73.15780639648438 143.29258728027344 74.41874694824219 141.54217529296875 C75.6792984008789 139.7917938232422 75.28242492675781 137.3507843017578 73.53202819824219 136.08984375 Z"></path>
<path fill="" fill-opacity="1.0"  filling="0" d="M126.46797180175781 62.59101486206055 C128.21836853027344 63.851566314697266 130.6593780517578 63.454689025878906 131.92031860351562 61.70429611206055 C133.18124389648438 59.95390319824219 132.7839813232422 57.51288986206055 131.03359985351562 56.251953125 C129.283203125 54.99140548706055 126.84219360351562 55.388282775878906 125.58125305175781 57.138668060302734 C124.32069396972656 58.88945388793945 124.71758270263672 61.330467224121094 126.46797180175781 62.59101486206055 Z"></path>
<path fill="" fill-opacity="1.0"  filling="0" d="M164.44375610351562 25.35039520263672 A3.90625 3.90625 0.0 1 1 156.63125610351562 25.35039520263672 A3.90625 3.90625 0.0 1 1 164.44375610351562 25.35039520263672 Z"></path></svg>