<svg xmlns="http://www.w3.org/2000/svg" viewBox="0.0 0.0 200.0 200.0" height="200.0px" width="200.0px"><path fill="#efefef" fill-opacity="1.0"  filling="0" d="M153.4611053466797 176.85000610351562 C115.0333251953125 176.85000610351562 88.64444732666016 196.75555419921875 70.12777709960938 196.75555419921875 C51.611114501953125 196.75555419921875 12.72222900390625 186.11111450195312 12.72222900390625 100.92778015136719 C12.72222900390625 15.74444580078125 65.03889465332031 3.2388916015625 85.40555572509766 3.2388916015625 C180.77777099609375 3.2388916015625 221.51666259765625 176.85000610351562 153.4611053466797 176.85000610351562 Z"></path>
<path fill="#a4afc1" fill-opacity="1.0"  filling="0" d="M169.44444274902344 133.3333282470703 C164.85000610351562 133.3333282470703 161.11111450195312 129.5944366455078 161.11111450195312 125.0 C161.11111450195312 120.40555572509766 164.85000610351562 116.66666412353516 169.44444274902344 116.66666412353516 C174.03887939453125 116.66666412353516 177.77777099609375 120.40555572509766 177.77777099609375 125.0 C177.77777099609375 129.5944366455078 174.03887939453125 133.3333282470703 169.44444274902344 133.3333282470703 Z M169.44444274902344 122.22222137451172 C167.91665649414062 122.22222137451172 166.66665649414062 123.4666748046875 166.66665649414062 125.0 C166.66665649414062 126.5333251953125 167.91665649414062 127.77777862548828 169.44444274902344 127.77777862548828 C170.9722137451172 127.77777862548828 172.22222900390625 126.5333251953125 172.22222900390625 125.0 C172.22222900390625 123.4666748046875 170.9722137451172 122.22222137451172 169.44444274902344 122.22222137451172 Z"></path>
<path fill="#a4afc1" fill-opacity="1.0"  filling="0" d="M6.016670227050781 31.172225952148438 L9.944450378417969 27.24444580078125 L17.800003051757812 35.099998474121094 L13.872222900390625 39.02777862548828 L6.016670227050781 31.172225952148438 Z"></path>
<path fill="#a4afc1" fill-opacity="1.0"  filling="0" d="M5.0277862548828125 57.6944465637207 L12.883338928222656 49.838890075683594 L16.816673278808594 53.76667022705078 L8.955558776855469 61.622222900390625 L5.0277862548828125 57.6944465637207 Z"></path>
<path fill="#a4afc1" fill-opacity="1.0"  filling="0" d="M27.622222900390625 35.116668701171875 L35.47222900390625 27.2611083984375 L39.40555953979492 31.18889617919922 L31.550003051757812 39.0444450378418 L27.622222900390625 35.116668701171875 Z"></path>
<path fill="#f3f3f1" fill-opacity="1.0"  filling="0" d="M48.611114501953125 76.38888549804688 L134.72222900390625 76.38888549804688 L134.72222900390625 134.72222900390625 L48.611114501953125 134.72222900390625 L48.611114501953125 76.38888549804688 Z"></path>
<path fill="#2fdf84" fill-opacity="1.0"  filling="0" d="M162.5 90.52777862548828 C162.5 93.44444274902344 160.0944366455078 95.83333587646484 157.15554809570312 95.83333587646484 L98.4000015258789 95.83333587646484 C95.46111297607422 95.83333587646484 93.05555725097656 93.44444274902344 93.05555725097656 90.52777862548828 C93.05555725097656 89.52222442626953 93.32222747802734 88.56666564941406 93.85555267333984 87.77222442626953 L123.23332977294922 40.04444885253906 C124.14444732666016 38.505558013916016 125.85555267333984 37.500003814697266 127.77777862548828 37.500003814697266 C129.6999969482422 37.500003814697266 131.41110229492188 38.505558013916016 132.31666564941406 40.04444885253906 L161.69444274902344 87.77222442626953 C162.23333740234375 88.56666564941406 162.5 89.52222442626953 162.5 90.52777862548828 Z"></path>
<path fill="#2fdf84" fill-opacity="1.0"  filling="0" d="M118.05555725097656 59.722225189208984 L43.05555725097656 59.722225189208984 C40.0 59.722225189208984 37.500003814697266 62.22222137451172 37.500003814697266 65.27777862548828 L37.500003814697266 70.83333587646484 C37.500003814697266 73.8888931274414 40.0 76.38888549804688 43.05555725097656 76.38888549804688 L118.05555725097656 76.38888549804688 L118.05555725097656 59.722225189208984 Z"></path>
<path fill="#d5dbe1" fill-opacity="1.0"  filling="0" d="M48.611114501953125 76.38888549804688 L61.111114501953125 76.38888549804688 L61.111114501953125 134.72222900390625 L48.611114501953125 134.72222900390625 L48.611114501953125 76.38888549804688 Z"></path>
<path fill="#00b871" fill-opacity="1.0"  filling="0" d="M105.55555725097656 90.52777862548828 C105.55555725097656 89.52222442626953 105.82221984863281 88.56666564941406 106.35555267333984 87.77222442626953 L134.02777099609375 42.82222366333008 L132.31666564941406 40.04444885253906 C131.41110229492188 38.505558013916016 129.6999969482422 37.500003814697266 127.77777862548828 37.500003814697266 C125.85555267333984 37.500003814697266 124.14444732666016 38.505558013916016 123.2388916015625 40.04444885253906 L93.85555267333984 87.77222442626953 C93.32222747802734 88.56666564941406 93.05555725097656 89.52222442626953 93.05555725097656 90.52777862548828 C93.05555725097656 93.44444274902344 95.46111297607422 95.83333587646484 98.4000015258789 95.83333587646484 L110.9000015258789 95.83333587646484 C107.96111297607422 95.83333587646484 105.55555725097656 93.44444274902344 105.55555725097656 90.52777862548828 Z"></path>
<path fill="#00b871" fill-opacity="1.0"  filling="0" d="M50.0 70.83333587646484 L50.0 65.27777862548828 C50.0 62.22222137451172 52.5 59.722225189208984 55.55555725097656 59.722225189208984 L43.05555725097656 59.722225189208984 C40.0 59.722225189208984 37.500003814697266 62.22222137451172 37.500003814697266 65.27777862548828 L37.500003814697266 70.83333587646484 C37.500003814697266 73.8888931274414 40.0 76.38888549804688 43.05555725097656 76.38888549804688 L55.55555725097656 76.38888549804688 C52.5 76.38888549804688 50.0 73.8888931274414 50.0 70.83333587646484 Z"></path>
<path fill="" fill-opacity="1.0"  filling="0" d="M157.15554809570312 100.0 L98.4000015258789 100.0 C93.15555572509766 100.0 88.88888549804688 95.75 88.88888549804688 90.52777862548828 C88.88888549804688 88.67222595214844 89.4111099243164 86.9111099243164 90.39999389648438 85.43888854980469 L119.6833267211914 37.855560302734375 C121.31666564941406 35.094444274902344 124.42777252197266 33.333335876464844 127.77777862548828 33.333335876464844 C131.12777709960938 33.333335876464844 134.2388916015625 35.094444274902344 135.91111755371094 37.92778015136719 L165.24444580078125 85.5888900756836 C166.14443969726562 86.91667175292969 166.66665649414062 88.67222595214844 166.66665649414062 90.52777862548828 C166.66665649414062 95.75 162.39999389648438 100.0 157.15554809570312 100.0 Z M127.77777862548828 41.66666793823242 C127.28889465332031 41.66666793823242 126.96111297607422 41.9333381652832 126.8277816772461 42.16111755371094 L97.22222137451172 90.52777862548828 C97.22222137451172 91.14444732666016 97.7611083984375 91.66666412353516 98.4000015258789 91.66666412353516 L157.15554809570312 91.66666412353516 C157.79443359375 91.66666412353516 158.3333282470703 91.14444732666016 158.3333282470703 90.52777862548828 C158.3333282470703 90.34443664550781 158.29998779296875 90.18333435058594 158.2388916015625 90.09443664550781 L128.76666259765625 42.222225189208984 C128.5944366455078 41.9333381652832 128.26666259765625 41.66666793823242 127.77777862548828 41.66666793823242 Z"></path>
<path fill="" fill-opacity="1.0"  filling="0" d="M83.33333587646484 80.55555725097656 L43.05555725097656 80.55555725097656 C37.6944465637207 80.55555725097656 33.333335876464844 76.19444274902344 33.333335876464844 70.83333587646484 L33.333335876464844 65.27777862548828 C33.333335876464844 59.91666793823242 37.6944465637207 55.55555725097656 43.05555725097656 55.55555725097656 L94.44444274902344 55.55555725097656 L94.44444274902344 63.88888931274414 L43.05555725097656 63.88888931274414 C42.30000305175781 63.88888931274414 41.66666793823242 64.52222442626953 41.66666793823242 65.27777862548828 L41.66666793823242 70.83333587646484 C41.66666793823242 71.5888900756836 42.30000305175781 72.22222137451172 43.05555725097656 72.22222137451172 L83.33333587646484 72.22222137451172 L83.33333587646484 80.55555725097656 Z"></path>
<path fill="" fill-opacity="1.0"  filling="0" d="M38.888893127441406 130.55555725097656 L144.44444274902344 130.55555725097656 L144.44444274902344 138.88888549804688 L38.888893127441406 138.88888549804688 L38.888893127441406 130.55555725097656 Z"></path>
<path fill="" fill-opacity="1.0"  filling="0" d="M109.22777557373047 165.0833282470703 L91.66666412353516 142.8333282470703 L74.10555267333984 165.07778930664062 L67.56111145019531 159.91110229492188 L88.39444732666016 133.522216796875 C89.97777557373047 131.522216796875 93.35556030273438 131.522216796875 94.93889617919922 133.522216796875 L115.77222442626953 159.91110229492188 L109.22777557373047 165.0833282470703 Z"></path>
<path fill="" fill-opacity="1.0"  filling="0" d="M123.61111450195312 55.55555725097656 L131.94444274902344 55.55555725097656 L131.94444274902344 75.0 L123.61111450195312 75.0 L123.61111450195312 55.55555725097656 Z"></path>
<path fill="" fill-opacity="1.0"  filling="0" d="M131.94444274902344 84.72222137451172 A4.166666507720947 4.166666507720947 0.0 1 1 123.61111450195312 84.72222137451172 A4.166666507720947 4.166666507720947 0.0 1 1 131.94444274902344 84.72222137451172 Z"></path>
<path fill="" fill-opacity="1.0"  filling="0" d="M11.111114501953125 158.3333282470703 L188.88888549804688 158.3333282470703 L188.88888549804688 166.66665649414062 L11.111114501953125 166.66665649414062 L11.111114501953125 158.3333282470703 Z"></path>
<path fill="" fill-opacity="1.0"  filling="0" d="M44.4444465637207 76.38888549804688 L52.77777862548828 76.38888549804688 L52.77777862548828 134.72222900390625 L44.4444465637207 134.72222900390625 L44.4444465637207 76.38888549804688 Z"></path>
<path fill="" fill-opacity="1.0"  filling="0" d="M130.55555725097656 115.27777862548828 L138.88888549804688 115.27777862548828 L138.88888549804688 134.72222900390625 L130.55555725097656 134.72222900390625 L130.55555725097656 115.27777862548828 Z"></path></svg>