<svg xmlns="http://www.w3.org/2000/svg" viewBox="0.0 0.0 200.0 200.0" height="200.0px" width="200.0px"><path fill="#fff1d4" fill-opacity="1.0"  filling="0" d="M106.2925796508789 13.135162353515625 C106.2925796508789 7.498832702636719 101.72343444824219 2.930084228515625 96.08711242675781 2.9296875 L24.853515625 2.9296875 C19.217575073242188 2.9296875 14.6484375 7.498832702636719 14.6484375 13.135162353515625 L14.6484375 100.36406707763672 L106.2925796508789 100.36406707763672 C106.2925796508789 57.43476867675781 106.2925796508789 13.135162353515625 106.2925796508789 13.135162353515625 Z"></path>
<path fill="#fce3a0" fill-opacity="1.0"  filling="0" d="M70.82499694824219 2.9296875 L24.853515625 2.9296875 C19.217575073242188 2.9296875 14.6484375 7.498832702636719 14.6484375 13.134765625 L14.6484375 100.3636703491211 L59.654296875 100.3636703491211 L59.654296875 23.51953125 C59.654296875 15.208206176757812 63.857810974121094 7.4609375 70.82499694824219 2.9296875 Z"></path>
<path fill="#676f72" fill-opacity="1.0"  filling="0" d="M2.9296875 150.080078125 L2.9296875 185.3515625 C2.9296875 191.82382202148438 8.176170349121094 197.0703125 14.6484375 197.0703125 L106.2925796508789 197.0703125 C112.76484680175781 197.0703125 118.0113296508789 191.82382202148438 118.0113296508789 185.3515625 L118.0113296508789 150.080078125 L60.54062271118164 138.361328125 L2.9296875 150.080078125 Z"></path>
<path fill="#ff8e9e" fill-opacity="1.0"  filling="0" d="M118.01171112060547 64.46562194824219 C118.01171112060547 60.150779724121094 114.51406860351562 56.65312576293945 110.19921112060547 56.65312576293945 L10.7421875 56.65312576293945 C6.427345275878906 56.65312576293945 2.9296875 60.150779724121094 2.9296875 64.46562194824219 L2.9296875 150.080078125 L118.01171112060547 150.080078125 L118.01171112060547 64.46562194824219 Z"></path>
<path fill="#ea5b70" fill-opacity="1.0"  filling="0" d="M52.36406326293945 74.2523422241211 C52.36406326293945 67.65078735351562 54.986328125 61.32109069824219 59.65468978881836 56.65312576293945 L10.7421875 56.65312576293945 C6.427345275878906 56.65312576293945 2.9296875 60.150779724121094 2.9296875 64.46562194824219 L2.9296875 150.080078125 L52.36406326293945 150.080078125 C52.36406326293945 127.15351867675781 52.36406326293945 98.46562957763672 52.36406326293945 74.2523422241211 Z"></path>
<path fill="#4c5659" fill-opacity="1.0"  filling="0" d="M52.36406326293945 150.080078125 L2.9296875 150.080078125 L2.9296875 185.3515625 C2.9296875 191.82342529296875 8.176170349121094 197.0703125 14.6484375 197.0703125 L60.5390625 197.0703125 C60.54023361206055 197.068359375 60.53984069824219 197.06915283203125 60.54062271118164 197.06680297851562 C55.32304763793945 190.25741577148438 52.363670349121094 181.994140625 52.363670349121094 173.4191436767578 C52.36406326293945 166.88436889648438 52.36406326293945 158.90899658203125 52.36406326293945 150.080078125 Z"></path>
<path fill="#d34459" fill-opacity="1.0"  filling="0" d="M40.861331939697266 95.1171875 A11.466796875 9.131641387939453 0.0 1 1 17.927734375 95.1171875 A11.466796875 9.131641387939453 0.0 1 1 40.861331939697266 95.1171875 Z"></path>
<path fill="#ea5b70" fill-opacity="1.0"  filling="0" d="M103.01483917236328 95.1171875 A11.466796875 9.131641387939453 0.0 1 1 80.08125305175781 95.1171875 A11.466796875 9.131641387939453 0.0 1 1 103.01483917236328 95.1171875 Z"></path>
<path fill="#ff8e9e" fill-opacity="1.0"  filling="0" d="M197.0703125 185.3515625 C197.0703125 191.82382202148438 191.82382202148438 197.0703125 185.3515625 197.0703125 L93.70703125 197.0703125 C87.2347640991211 197.0703125 81.98828125 191.82382202148438 81.98828125 185.3515625 L81.98828125 130.9871063232422 C81.98828125 126.67227172851562 85.48593139648438 123.17460632324219 89.80078125 123.17460632324219 L189.2578125 123.17460632324219 C193.57266235351562 123.17460632324219 197.0703125 126.67227172851562 197.0703125 130.9871063232422 L197.0703125 185.3515625 Z"></path>
<path fill="#ea5b70" fill-opacity="1.0"  filling="0" d="M140.359375 123.17460632324219 L89.80078125 123.17460632324219 C85.48593139648438 123.17460632324219 81.98828125 126.67227172851562 81.98828125 130.9871063232422 L81.98828125 185.3515625 C81.98828125 191.82382202148438 87.2347640991211 197.0703125 93.70703125 197.0703125 L138.712890625 197.0703125 C134.044921875 192.40234375 131.42227172851562 186.07266235351562 131.42227172851562 179.47109985351562 L131.42227172851562 144.75 C131.42227172851562 136.65780639648438 134.63710021972656 128.89688110351562 140.359375 123.17460632324219 Z"></path>
<path fill="" fill-opacity="1.0"  filling="0" d="M36.07734298706055 78.7093734741211 C34.459373474121094 78.7093734741211 33.14765930175781 80.0210952758789 33.14765930175781 81.6390609741211 L33.14765930175781 86.3265609741211 C33.14765930175781 87.94453430175781 34.459373474121094 89.2562484741211 36.07734298706055 89.2562484741211 C37.6953125 89.2562484741211 39.00703048706055 87.9449234008789 39.00703048706055 86.3265609741211 L39.00703048706055 81.6390609741211 C39.00703048706055 80.0210952758789 37.6953125 78.7093734741211 36.07734298706055 78.7093734741211 Z"></path>
<path fill="" fill-opacity="1.0"  filling="0" d="M189.2578125 120.24608612060547 L120.9410171508789 120.24608612060547 L120.9410171508789 64.46484375 C120.9410171508789 58.50859451293945 116.11640930175781 53.72265625 110.1988296508789 53.72265625 L109.2222671508789 53.72265625 L109.2222671508789 13.135162353515625 C109.2222671508789 5.892189025878906 103.330078125 0.0 96.08749389648438 0.0 L24.853912353515625 0.0 C17.611328125 0.0 11.71875 5.892189025878906 11.71875 13.135162353515625 L11.71875 53.72265625 L10.7421875 53.72265625 C4.8671875 53.72265625 0.0 58.473045349121094 0.0 64.46484375 L0.0 150.080078125 L0.0 150.08203125 L0.0 185.3515625 C0.0 193.4289093017578 6.571098327636719 200.0 14.6484375 200.0 L185.3515625 200.0 C185.96444702148438 200.0 186.58163452148438 199.96054077148438 187.18319702148438 199.88671875 C188.78515625 199.68319702148438 189.92578125 198.21835327148438 189.7265625 196.6171875 C189.54217529296875 195.1492156982422 188.251953125 193.900390625 186.45703125 194.06991577148438 C186.0859375 194.11679077148438 185.71484375 194.140625 185.3515625 194.140625 L93.70703125 194.140625 C88.8671875 194.13241577148438 84.9261703491211 190.1875 84.91796875 185.3515625 L84.91796875 130.98828125 C84.921875 128.30078125 87.11328125 126.109375 89.80078125 126.10546112060547 L189.2578125 126.10546112060547 C191.9453125 126.109375 194.13671875 128.30078125 194.140625 130.98828125 L194.140625 185.3515625 C194.140625 186.67929077148438 193.8515625 187.953125 193.28515625 189.140625 C192.58984375 190.59725952148438 193.20703125 192.34765625 194.6640625 193.046875 C196.1164093017578 193.74374389648438 197.87344360351562 193.11874389648438 198.56640625 191.67147827148438 C198.5703125 191.67147827148438 198.5703125 191.66757202148438 198.5703125 191.66757202148438 C199.5078125 189.71444702148438 200.0 187.53085327148438 200.0 185.35116577148438 L200.0 130.98828125 C200.0 125.0523452758789 195.19921875 120.24608612060547 189.2578125 120.24608612060547 Z M17.578125 13.135162353515625 C17.578125 9.123046875 20.841796875 5.859375 24.853912353515625 5.859375 L96.08749389648438 5.859375 C100.0992202758789 5.859375 103.3628921508789 9.123046875 103.3628921508789 13.135162353515625 L103.3628921508789 53.72265625 L17.578125 53.72265625 L17.578125 13.135162353515625 Z M79.05859375 130.98828125 L79.05859375 147.1484375 L35.69921875 147.1484375 C34.08203125 147.1484375 32.76953125 148.46444702148438 32.76953125 150.08203125 C32.76953125 151.6953125 34.08203125 153.0078125 35.69921875 153.0078125 L79.05859375 153.0078125 L79.05859375 185.3515625 C79.05859375 188.56561279296875 80.087890625 191.6179656982422 81.9867172241211 194.140625 L14.6484375 194.140625 C9.802337646484375 194.140625 5.859375 190.19766235351562 5.859375 185.3515625 L5.859375 153.0078125 L23.98046875 153.0078125 C25.59374237060547 153.0078125 26.91015625 151.6953125 26.91015625 150.08203125 C26.91015625 148.46444702148438 25.59374237060547 147.15234375 23.98046875 147.15234375 L5.859375 147.1484375 L5.859375 64.46484375 C5.86328125 61.776954650878906 8.0546875 59.585933685302734 10.7421875 59.58203125 L14.633201599121094 59.58203125 C14.638282775878906 59.58203125 14.642967224121094 59.58281326293945 14.6484375 59.58281326293945 C14.653907775878906 59.58281326293945 14.658592224121094 59.58203125 14.663673400878906 59.58203125 L106.27774047851562 59.58203125 C106.28282165527344 59.58203125 106.28750610351562 59.58281326293945 106.29296112060547 59.58281326293945 C106.29843139648438 59.58281326293945 106.30311584472656 59.58203125 106.30819702148438 59.58203125 L110.19921112060547 59.58203125 C112.8871078491211 59.585933685302734 115.078125 61.776954650878906 115.08202362060547 64.46484375 L115.08202362060547 120.24608612060547 L89.80078125 120.24608612060547 C83.87226867675781 120.24608612060547 79.05859375 125.03437805175781 79.05859375 130.98828125 Z"></path>
<path fill="" fill-opacity="1.0"  filling="0" d="M65.158203125 188.28125 C66.77656555175781 188.28125 68.087890625 186.9699249267578 68.087890625 185.3515625 L68.087890625 161.9140625 C68.087890625 160.2957000732422 66.77656555175781 158.984375 65.158203125 158.984375 C63.53984451293945 158.984375 62.228511810302734 160.2957000732422 62.228511810302734 161.9140625 L62.228511810302734 185.3515625 C62.228511810302734 186.9699249267578 63.53984451293945 188.28125 65.158203125 188.28125 Z"></path>
<path fill="" fill-opacity="1.0"  filling="0" d="M43.63398742675781 188.28125 C45.25234603881836 188.28125 46.56367492675781 186.9699249267578 46.56367492675781 185.3515625 L46.56367492675781 161.9140625 C46.56367492675781 160.2957000732422 45.25234603881836 158.984375 43.63398742675781 158.984375 C42.015625 158.984375 40.70429992675781 160.2957000732422 40.70429992675781 161.9140625 L40.70429992675781 185.3515625 C40.70429992675781 186.9699249267578 42.01601791381836 188.28125 43.63398742675781 188.28125 Z"></path>
<path fill="" fill-opacity="1.0"  filling="0" d="M22.11016082763672 158.984375 C20.4921875 158.984375 19.18047332763672 160.2960968017578 19.18047332763672 161.9140625 L19.18047332763672 185.3515625 C19.18047332763672 186.9695281982422 20.4921875 188.28125 22.11016082763672 188.28125 C23.728126525878906 188.28125 25.039840698242188 186.9695281982422 25.039840698242188 185.3515625 L25.039840698242188 161.9140625 C25.039840698242188 160.2960968017578 23.728126525878906 158.984375 22.11016082763672 158.984375 Z"></path>
<path fill="" fill-opacity="1.0"  filling="0" d="M84.865234375 78.7093734741211 C83.24726867675781 78.7093734741211 81.935546875 80.0210952758789 81.935546875 81.6390609741211 L81.935546875 86.3265609741211 C81.935546875 87.94453430175781 83.24726867675781 89.2562484741211 84.865234375 89.2562484741211 C86.48320007324219 89.2562484741211 87.794921875 87.9449234008789 87.794921875 86.3265609741211 L87.794921875 81.6390609741211 C87.794921875 80.0210952758789 86.48320007324219 78.7093734741211 84.865234375 78.7093734741211 Z"></path>
<path fill="" fill-opacity="1.0"  filling="0" d="M68.82734680175781 83.978515625 C67.607421875 82.9156265258789 65.7574234008789 83.04804992675781 64.6937484741211 84.2621078491211 C63.63046646118164 85.48554992675781 62.088279724121094 86.1871109008789 60.471092224121094 86.1871109008789 C58.853511810302734 86.1871109008789 57.314456939697266 85.48554992675781 56.24843978881836 84.2621078491211 C55.185543060302734 83.04219055175781 53.33476638793945 82.91523742675781 52.114845275878906 83.978515625 C50.89687728881836 85.03789520263672 50.76797103881836 86.8921890258789 51.83125305175781 88.11210632324219 C54.01054763793945 90.61250305175781 57.15976333618164 92.046875 60.471092224121094 92.046875 C63.78750228881836 92.046875 66.93632507324219 90.60858917236328 69.11093139648438 88.11210632324219 C70.1742172241211 86.8921890258789 70.0472640991211 85.0414047241211 68.82734680175781 83.978515625 Z"></path></svg>