<svg xmlns="http://www.w3.org/2000/svg" viewBox="0.0 0.0 200.0 200.0" height="200.0px" width="200.0px"><path fill="#f2d59c" fill-opacity="1.0"  filling="0" d="M184.24063110351562 108.041015625 C191.52618408203125 103.1187515258789 196.31640625 94.783203125 196.31640625 85.32890319824219 C196.31640625 76.2738265991211 191.8410186767578 67.80429077148438 184.3605499267578 62.70195388793945 L155.02383422851562 42.691410064697266 C154.1066436767578 42.06562805175781 152.8996124267578 42.06562805175781 151.98202514648438 42.691410064697266 L122.64530944824219 62.70195388793945 C115.16484069824219 67.80429077148438 110.689453125 76.27421569824219 110.689453125 85.32890319824219 C110.689453125 94.783203125 115.47968292236328 103.1187515258789 122.76522827148438 108.041015625 L184.24063110351562 108.041015625 Z"></path>
<path fill="#ecc372" fill-opacity="1.0"  filling="0" d="M184.36093139648438 62.70195388793945 L155.0242156982422 42.691410064697266 C154.1066436767578 42.06601333618164 152.90000915527344 42.06601333618164 151.982421875 42.691410064697266 L147.31600952148438 45.87460708618164 L171.986328125 62.70195388793945 C179.466796875 67.80429077148438 183.9421844482422 76.27421569824219 183.9421844482422 85.32929229736328 C183.9421844482422 94.7835922241211 179.15194702148438 103.11913299560547 171.86639404296875 108.0414047241211 L184.24102783203125 108.0414047241211 C191.5265655517578 103.11913299560547 196.31680297851562 94.7835922241211 196.31680297851562 85.32929229736328 C196.31640625 76.2738265991211 191.84141540527344 67.80429077148438 184.36093139648438 62.70195388793945 Z"></path>
<path fill="#f9f0d9" fill-opacity="1.0"  filling="0" d="M167.38516235351562 64.63046264648438 C166.40780639648438 70.4312515258789 163.68359375 74.74102020263672 161.5703125 77.33477020263672 C160.4910125732422 78.65937805175781 160.6902313232422 80.60820007324219 162.0144500732422 81.6871109008789 C162.5886688232422 82.15507507324219 163.27969360351562 82.3824234008789 163.966796875 82.3824234008789 C164.86483764648438 82.3824234008789 165.755859375 81.99336242675781 166.3671875 81.24296569824219 C168.95156860351562 78.0707015991211 172.2843780517578 72.79179382324219 173.486328125 65.6585922241211 C174.1144561767578 61.930076599121094 174.029296875 58.451168060302734 173.55233764648438 55.32929992675781 L165.74609375 50.00429916381836 C167.20938110351562 53.728515625 168.3640594482422 58.81953430175781 167.38516235351562 64.63046264648438 Z"></path>
<path fill="#f2d59c" fill-opacity="1.0"  filling="0" d="M15.759368896484375 108.041015625 C8.473434448242188 103.1187515258789 3.68359375 94.783203125 3.68359375 85.32890319824219 C3.68359375 76.2738265991211 8.158981323242188 67.80429077148438 15.639457702636719 62.70195388793945 L44.976173400878906 42.691410064697266 C45.89336013793945 42.06562805175781 47.10038757324219 42.06562805175781 48.017967224121094 42.691410064697266 L77.35469055175781 62.70195388793945 C84.83515167236328 67.80429077148438 89.310546875 76.27421569824219 89.310546875 85.32890319824219 C89.310546875 94.783203125 84.52030944824219 103.1187515258789 77.2347640991211 108.041015625 L15.759368896484375 108.041015625 Z"></path>
<path fill="#ecc372" fill-opacity="1.0"  filling="0" d="M77.0277328491211 62.47929763793945 L48.017578125 42.691410064697266 C47.10038757324219 42.06601333618164 45.89336013793945 42.06601333618164 44.97578048706055 42.691410064697266 L40.30937576293945 45.87460708618164 L44.49726486206055 48.73125076293945 C47.41796875 50.72343826293945 48.087501525878906 54.75 45.96210861206055 57.57500076293945 C41.593753814697266 63.381248474121094 35.277732849121094 73.02851867675781 35.277732849121094 80.271484375 C35.277732849121094 91.83125305175781 41.134761810302734 102.02304077148438 50.04296875 108.0414047241211 L64.859375 108.0414047241211 L77.23397827148438 108.0414047241211 C84.48554992675781 103.1421890258789 89.2652359008789 94.861328125 89.30937957763672 85.46171569824219 C89.3531265258789 76.251953125 84.63555145263672 67.66836547851562 77.0277328491211 62.47929763793945 Z"></path>
<path fill="#f9f0d9" fill-opacity="1.0"  filling="0" d="M33.638282775878906 81.24960327148438 C34.25 81.99609375 35.13789367675781 82.3828125 36.033203125 82.3828125 C36.722660064697266 82.3828125 37.41679763793945 82.15351867675781 37.991798400878906 81.68241882324219 C39.31328201293945 80.599609375 39.50703048706055 78.650390625 38.42461013793945 77.32891082763672 C36.31757354736328 74.75703430175781 33.59883117675781 70.46562194824219 32.615234375 64.630859375 C31.60546875 58.64218521118164 32.839454650878906 53.519142150878906 34.21757507324219 50.03007507324219 L26.424217224121094 55.34609603881836 C25.965240478515625 58.419918060302734 25.879684448242188 61.898048400878906 26.514068603515625 65.65937805175781 C27.72382354736328 72.83358764648438 31.05585479736328 78.0972671508789 33.638282775878906 81.24960327148438 Z"></path>
<path fill="#f2d59c" fill-opacity="1.0"  filling="0" d="M62.417579650878906 108.041015625 C53.50937271118164 102.02265930175781 47.652339935302734 91.83086395263672 47.652339935302734 80.2710952758789 C47.652339935302734 69.1996078491211 53.12421798706055 58.84375 62.27070236206055 52.605079650878906 L98.140625 28.138282775878906 C99.2621078491211 27.373046875 100.7378921508789 27.373046875 101.85975646972656 28.138282775878906 L137.7296905517578 52.605079650878906 C146.87615966796875 58.84375 152.34803771972656 69.1996078491211 152.34803771972656 80.2710952758789 C152.34803771972656 91.83086395263672 146.4910125732422 102.02265930175781 137.5828094482422 108.041015625 L62.417579650878906 108.041015625 Z"></path>
<path fill="#ecc372" fill-opacity="1.0"  filling="0" d="M137.7292938232422 52.605079650878906 L101.859375 28.138282775878906 C100.7378921508789 27.373046875 99.2621078491211 27.373046875 98.1402359008789 28.138282775878906 L93.8125 31.090232849121094 L125.35430145263672 52.605079650878906 C134.5007781982422 58.84375 139.97265625 69.1996078491211 139.97265625 80.2710952758789 C139.97265625 91.83086395263672 134.11563110351562 102.02265930175781 125.20742797851562 108.041015625 L137.58203125 108.041015625 C146.490234375 102.02265930175781 152.34725952148438 91.83086395263672 152.34725952148438 80.2710952758789 C152.34765625 69.1996078491211 146.87579345703125 58.84375 137.7292938232422 52.605079650878906 Z"></path>
<path fill="#f9f0d9" fill-opacity="1.0"  filling="0" d="M117.65194702148438 55.789451599121094 C116.166015625 64.650390625 111.47382354736328 70.6753921508789 108.80858612060547 73.4781265258789 C107.63125610351562 74.7164077758789 107.68046569824219 76.67460632324219 108.91874694824219 77.8519515991211 C109.51719665527344 78.4214859008789 110.28437805175781 78.70390319824219 111.04999542236328 78.70390319824219 C111.86758422851562 78.70390319824219 112.68437194824219 78.38125610351562 113.29219055175781 77.7417984008789 C116.44452667236328 74.42655944824219 121.99531555175781 67.2992172241211 123.75350952148438 56.812889099121094 C124.62031555175781 51.644535064697266 124.35546875 46.94765853881836 123.61992645263672 42.98125076293945 L115.6382827758789 37.537109375 C117.24531555175781 41.54804992675781 118.95039367675781 48.04648208618164 117.65194702148438 55.789451599121094 Z"></path>
<path fill="#f9f0d9" fill-opacity="1.0"  filling="0" d="M86.634765625 76.953125 C87.24609375 77.6421890258789 88.0960922241211 77.994140625 88.95039367675781 77.994140625 C89.6800765991211 77.994140625 90.41288757324219 77.73750305175781 91.001953125 77.21484375 C92.28047180175781 76.08125305175781 92.39726257324219 74.12577819824219 91.263671875 72.84765625 C88.11835479736328 69.3011703491211 84.01484680175781 63.32265853881836 82.32929992675781 54.97890853881836 C81.06132507324219 48.70234680175781 81.5953140258789 43.07773208618164 82.59297180175781 38.74297332763672 L75.583984375 43.52382278442383 C75.24101257324219 47.32656478881836 75.33711242675781 51.61328125 76.26484680175781 56.20390701293945 C78.22305297851562 65.89765930175781 82.9847640991211 72.837890625 86.634765625 76.953125 Z"></path>
<path fill="#ecf4ff" fill-opacity="1.0"  filling="0" d="M168.00546264648438 148.87734985351562 L31.994537353515625 148.87734985351562 C22.2890625 148.87734985351562 13.479682922363281 143.20468139648438 9.463279724121094 134.369140625 L0.412109375 114.45585632324219 C-0.953521728515625 111.45156860351562 1.2429733276367188 108.041015625 4.54296875 108.041015625 L195.45782470703125 108.041015625 C198.7578125 108.041015625 200.95391845703125 111.45195007324219 199.5886688232422 114.45585632324219 L190.537109375 134.36953735351562 C186.52032470703125 143.20468139648438 177.71054077148438 148.87734985351562 168.00546264648438 148.87734985351562 Z"></path>
<path fill="#ddeafb" fill-opacity="1.0"  filling="0" d="M195.45742797851562 108.041015625 L183.0828094482422 108.041015625 C186.3828125 108.041015625 188.5789031982422 111.45156860351562 187.2136688232422 114.45585632324219 L178.162109375 134.36953735351562 C174.14608764648438 143.20468139648438 165.33631896972656 148.87774658203125 155.630859375 148.87774658203125 L168.00546264648438 148.87774658203125 C177.7109375 148.87774658203125 186.52032470703125 143.205078125 190.53671264648438 134.36953735351562 L199.58828735351562 114.45585632324219 C200.95350646972656 111.45156860351562 198.75741577148438 108.041015625 195.45742797851562 108.041015625 Z"></path>
<path fill="#cbe2ff" fill-opacity="1.0"  filling="0" d="M150.919921875 172.435546875 L49.080074310302734 172.435546875 C42.245704650878906 172.435546875 36.70547103881836 166.89532470703125 36.70547103881836 160.06094360351562 L36.70547103881836 148.87734985351562 L163.294921875 148.87734985351562 L163.294921875 160.06094360351562 C163.294921875 166.89532470703125 157.75430297851562 172.435546875 150.919921875 172.435546875 Z"></path>
<path fill="#bed8fb" fill-opacity="1.0"  filling="0" d="M150.919921875 148.87774658203125 L150.919921875 160.06094360351562 C150.919921875 166.89532470703125 145.3796844482422 172.435546875 138.54531860351562 172.435546875 L150.919921875 172.435546875 C157.75430297851562 172.435546875 163.29452514648438 166.89492797851562 163.29452514648438 160.06094360351562 L163.29452514648438 148.87774658203125 L150.919921875 148.87774658203125 Z"></path></svg>