<svg xmlns="http://www.w3.org/2000/svg" viewBox="0.0 0.0 200.0 200.0" height="200.0px" width="200.0px"><path fill="#9fdbf3" fill-opacity="1.0"  filling="0" d="M4.1666717529296875 29.166671752929688 L112.5 29.166671752929688 L112.5 170.8333282470703 L4.1666717529296875 170.8333282470703 L4.1666717529296875 29.166671752929688 Z"></path>
<path fill="#b2e5fb" fill-opacity="1.0"  filling="0" d="M112.5 29.166671752929688 C112.5 167.41665649414062 112.08332824707031 162.5 112.5 162.5 A95.83332824707031 95.83332824707031 0.0 0 1 16.666671752929688 66.66667175292969 L16.666671752929688 29.166671752929688 L112.5 29.166671752929688 Z"></path>
<path fill="#374f68" fill-opacity="1.0"  filling="0" d="M112.5 12.5 L112.5 29.166671752929688 L4.1666717529296875 29.166671752929688 L4.1666717529296875 12.5 A8.333333015441895 8.333333015441895 0.0 0 1 12.5 4.1666717529296875 L104.16666412353516 4.1666717529296875 A8.333333015441895 8.333333015441895 0.0 0 1 112.5 12.5 Z"></path>
<path fill="#425b72" fill-opacity="1.0"  filling="0" d="M112.5 12.5 L112.5 20.833335876464844 L33.333335876464844 20.833335876464844 A16.66666603088379 16.66666603088379 0.0 0 1 16.666671752929688 4.1666717529296875 L104.16666412353516 4.1666717529296875 A8.333333015441895 8.333333015441895 0.0 0 1 112.5 12.5 Z"></path>
<path fill="#374f68" fill-opacity="1.0"  filling="0" d="M112.5 170.8333282470703 L112.5 187.5 A8.333333015441895 8.333333015441895 0.0 0 1 104.16666412353516 195.8333282470703 L12.5 195.8333282470703 A8.333333015441895 8.333333015441895 0.0 0 1 4.1666717529296875 187.5 L4.1666717529296875 170.8333282470703 L112.5 170.8333282470703 Z"></path>
<path fill="#425b72" fill-opacity="1.0"  filling="0" d="M112.5 170.8333282470703 L112.5 187.5 L33.333335876464844 187.5 A16.66666603088379 16.66666603088379 0.0 0 1 16.666671752929688 170.8333282470703 L112.5 170.8333282470703 Z"></path>
<path fill="#db5669" fill-opacity="1.0"  filling="0" d="M195.8333282470703 108.33333587646484 A58.33333206176758 58.33333206176758 0.0 0 1 137.5 166.66665649414062 C79.79166412353516 166.66665649414062 57.20833206176758 91.375 105.45832824707031 59.625003814697266 A58.33333206176758 58.33333206176758 0.0 0 1 195.8333282470703 108.33333587646484 Z"></path>
<path fill="#f26674" fill-opacity="1.0"  filling="0" d="M195.8333282470703 108.33333587646484 A57.916664123535156 57.916664123535156 0.0 0 1 186.20831298828125 140.375 A58.33333206176758 58.33333206176758 0.0 0 1 105.45832824707031 59.625003814697266 A58.33333206176758 58.33333206176758 0.0 0 1 195.8333282470703 108.33333587646484 Z"></path>
<path fill="#edebf2" fill-opacity="1.0"  filling="0" d="M33.333335876464844 16.666671752929688 A4.166666507720947 4.166666507720947 0.0 0 1 25.0 16.666671752929688 A4.166666507720947 4.166666507720947 0.0 0 1 33.333335876464844 16.666671752929688 Z"></path>
<path fill="#edebf2" fill-opacity="1.0"  filling="0" d="M70.83333587646484 20.833335876464844 L45.833335876464844 20.833335876464844 A4.166666507720947 4.166666507720947 0.0 0 1 45.833335876464844 12.5 L70.83333587646484 12.5 A4.166666507720947 4.166666507720947 0.0 0 1 70.83333587646484 20.833335876464844 Z"></path>
<path fill="#edebf2" fill-opacity="1.0"  filling="0" d="M62.5 187.5 L54.16666793823242 187.5 A4.166666507720947 4.166666507720947 0.0 0 1 54.16666793823242 179.16665649414062 L62.5 179.16665649414062 A4.166666507720947 4.166666507720947 0.0 0 1 62.5 187.5 Z"></path>
<path fill="#edebf2" fill-opacity="1.0"  filling="0" d="M162.5 145.5833282470703 A6.3333330154418945 6.3333330154418945 0.0 0 1 160.375 145.0833282470703 A39.541664123535156 39.541664123535156 0.0 0 1 133.875 114.08332824707031 A4.166666507720947 4.166666507720947 0.0 0 1 142.20834350585938 112.70832824707031 A31.083332061767578 31.083332061767578 0.0 0 0 163.0416717529297 137.16665649414062 A4.166666507720947 4.166666507720947 0.0 0 1 162.5 145.5833282470703 Z"></path>
<path fill="#edebf2" fill-opacity="1.0"  filling="0" d="M140.91665649414062 149.5 C137.0 149.5 123.125 135.4583282470703 120.08332824707031 116.16666412353516 A18.16666603088379 18.16666603088379 0.0 0 1 138.0 95.0 A17.91666603088379 17.91666603088379 0.0 0 1 155.9583282470703 110.375 C157.75 124.58332824707031 172.625 123.58332824707031 174.7083282470703 114.54166412353516 A29.79166603088379 29.79166603088379 0.0 0 0 171.91665649414062 96.45832824707031 A37.875 37.875 0.0 0 0 109.04166412353516 88.91667175292969 A4.166666507720947 4.166666507720947 0.0 0 1 102.66666412353516 83.54166412353516 A46.25 46.25 0.0 0 1 179.16665649414062 92.83333587646484 A38.166664123535156 38.166664123535156 0.0 0 1 182.70831298828125 116.66666412353516 C178.54165649414062 134.79165649414062 150.5416717529297 135.16665649414062 147.54165649414062 111.79166412353516 A9.666666030883789 9.666666030883789 0.0 0 0 136.25 103.83333587646484 A9.833332061767578 9.833332061767578 0.0 0 0 128.1666717529297 115.16666412353516 A45.166664123535156 45.166664123535156 0.0 0 0 143.5833282470703 142.2916717529297 A4.166666507720947 4.166666507720947 0.0 0 1 140.91665649414062 149.5 Z"></path>
<path fill="#edebf2" fill-opacity="1.0"  filling="0" d="M92.29166412353516 120.83332824707031 A45.83333206176758 45.83333206176758 0.0 0 1 94.79166412353516 96.54166412353516 A4.166666507720947 4.166666507720947 0.0 0 1 102.54167175292969 99.58332824707031 A37.5 37.5 0.0 0 0 100.54166412353516 119.45832824707031 A4.166666507720947 4.166666507720947 0.0 0 1 92.29166412353516 120.83332824707031 Z"></path>
<path fill="#edebf2" fill-opacity="1.0"  filling="0" d="M115.625 143.625 C95.83333587646484 112.125 108.875 85.58333587646484 132.5833282470703 81.625 A32.08333206176758 32.08333206176758 0.0 0 1 170.0833282470703 111.625 A4.166666507720947 4.166666507720947 0.0 0 1 161.75 112.20833587646484 A23.79166603088379 23.79166603088379 0.0 1 0 114.54166412353516 117.29166412353516 C117.83333587646484 137.04165649414062 127.75 141.04165649414062 121.58333587646484 144.91665649414062 A4.166666507720947 4.166666507720947 0.0 0 1 115.625 143.625 Z"></path>
<path fill="" fill-opacity="1.0"  filling="0" d="M163.70834350585938 137.5 A31.16666603088379 31.16666603088379 0.0 0 1 142.0 112.75 A4.166666507720947 4.166666507720947 0.0 0 0 133.6666717529297 114.125 A39.499996185302734 39.499996185302734 0.0 0 0 161.0 145.375 A4.166666507720947 4.166666507720947 0.0 0 0 163.70834350585938 137.5 Z"></path>
<path fill="" fill-opacity="1.0"  filling="0" d="M179.16665649414062 92.83333587646484 A46.20833206176758 46.20833206176758 0.0 0 0 102.41666412353516 83.625 A4.166666507720947 4.166666507720947 0.0 0 0 108.79167175292969 89.0 A37.83333206176758 37.83333206176758 0.0 0 1 171.66665649414062 96.54166412353516 A29.583332061767578 29.583332061767578 0.0 0 1 174.4583282470703 114.625 C172.375 123.75 157.5 124.79167175292969 155.7083282470703 110.45833587646484 A17.91666603088379 17.91666603088379 0.0 0 0 137.75 95.08332824707031 A18.16666603088379 18.16666603088379 0.0 0 0 119.83333587646484 116.25 C123.0 135.3333282470703 136.875 149.58334350585938 140.66665649414062 149.58334350585938 A4.166666507720947 4.166666507720947 0.0 0 0 143.33334350585938 142.20834350585938 A45.166664123535156 45.166664123535156 0.0 0 1 127.91667175292969 115.08333587646484 A9.833332061767578 9.833332061767578 0.0 0 1 136.0 103.75 A9.666666030883789 9.666666030883789 0.0 0 1 147.29165649414062 111.70832824707031 C150.25 134.9583282470703 178.29165649414062 134.83334350585938 182.45834350585938 116.58332824707031 A38.45832824707031 38.45832824707031 0.0 0 0 179.16665649414062 92.83333587646484 Z"></path>
<path fill="" fill-opacity="1.0"  filling="0" d="M94.79166412353516 96.66667175292969 A45.83333206176758 45.83333206176758 0.0 0 0 92.29166412353516 120.95833587646484 A4.166666507720947 4.166666507720947 0.0 0 0 100.625 119.58333587646484 A37.5 37.5 0.0 0 1 102.625 99.70833587646484 A4.166666507720947 4.166666507720947 0.0 0 0 94.79166412353516 96.66667175292969 Z"></path>
<path fill="" fill-opacity="1.0"  filling="0" d="M114.33333587646484 117.29166412353516 A23.79166603088379 23.79166603088379 0.0 1 1 161.5416717529297 112.20833587646484 A4.166666507720947 4.166666507720947 0.0 0 0 166.0 116.04167175292969 C177.33334350585938 115.25 163.5833282470703 76.33332824707031 132.6666717529297 81.625 A32.166664123535156 32.166664123535156 0.0 0 0 106.20832824707031 118.66666412353516 A67.45833587646484 67.45833587646484 0.0 0 0 115.70833587646484 143.66665649414062 A4.166666507720947 4.166666507720947 0.0 0 0 122.75 139.2083282470703 A58.999996185302734 58.999996185302734 0.0 0 1 114.33333587646484 117.29166412353516 Z"></path>
<path fill="" fill-opacity="1.0"  filling="0" d="M116.66666412353516 49.500003814697266 L116.66666412353516 12.5 A12.5 12.5 0.0 0 0 104.16666412353516 0.0 L12.5 0.0 A12.5 12.5 0.0 0 0 0.0 12.5 L0.0 187.5 A12.5 12.5 0.0 0 0 12.5 200.0 L104.16666412353516 200.0 A12.5 12.5 0.0 0 0 116.66666412353516 187.5 L116.66666412353516 167.16665649414062 A62.499996185302734 62.499996185302734 0.0 1 0 116.66666412353516 49.500003814697266 Z M8.333335876464844 12.5 A4.166666507720947 4.166666507720947 0.0 0 1 12.5 8.333335876464844 L104.16666412353516 8.333335876464844 A4.166666507720947 4.166666507720947 0.0 0 1 108.33333587646484 12.5 L108.33333587646484 25.0 L8.333335876464844 25.0 L8.333335876464844 12.5 Z M108.33333587646484 187.5 A4.166666507720947 4.166666507720947 0.0 0 1 104.16666412353516 191.66665649414062 L12.5 191.66665649414062 A4.166666507720947 4.166666507720947 0.0 0 1 8.333335876464844 187.5 L8.333335876464844 175.0 L108.33333587646484 175.0 L108.33333587646484 187.5 Z M108.33333587646484 166.66665649414062 L8.333335876464844 166.66665649414062 L8.333335876464844 33.333335876464844 L108.33333587646484 33.333335876464844 L108.33333587646484 53.083335876464844 A62.499996185302734 62.499996185302734 0.0 0 0 108.33333587646484 163.5833282470703 L108.33333587646484 166.66665649414062 Z M137.5 162.5 A54.166664123535156 54.166664123535156 0.0 1 1 191.66665649414062 108.33333587646484 A54.166664123535156 54.166664123535156 0.0 0 1 137.5 162.5 Z"></path>
<path fill="" fill-opacity="1.0"  filling="0" d="M29.166671752929688 12.5 A4.166666507720947 4.166666507720947 0.0 0 0 29.166671752929688 20.833335876464844 A4.166666507720947 4.166666507720947 0.0 0 0 29.166671752929688 12.5 Z"></path>
<path fill="" fill-opacity="1.0"  filling="0" d="M70.83333587646484 12.5 L45.833335876464844 12.5 A4.166666507720947 4.166666507720947 0.0 0 0 45.833335876464844 20.833335876464844 L70.83333587646484 20.833335876464844 A4.166666507720947 4.166666507720947 0.0 0 0 70.83333587646484 12.5 Z"></path>
<path fill="" fill-opacity="1.0"  filling="0" d="M54.16666793823242 187.5 L62.5 187.5 A4.166666507720947 4.166666507720947 0.0 0 0 62.5 179.16665649414062 L54.16666793823242 179.16665649414062 A4.166666507720947 4.166666507720947 0.0 0 0 54.16666793823242 187.5 Z"></path></svg>