<svg xmlns="http://www.w3.org/2000/svg" viewBox="0.0 0.0 200.0 200.0" height="200.0px" width="200.0px"><path fill="#fff066" fill-opacity="1.0"  filling="0" d="M122.89231872558594 22.883224487304688 L111.79998016357422 21.212738037109375 L102.71342468261719 3.0396347045898438 C101.59545135498047 0.8036956787109375 98.40494537353516 0.8036956787109375 97.28697967529297 3.0396347045898438 L88.20042419433594 21.212738037109375 L68.10888671875 24.238624572753906 C65.63713073730469 24.610740661621094 64.65103149414062 27.645523071289062 66.43193054199219 29.399734497070312 L80.90772247314453 43.657508850097656 L77.57686614990234 63.7009162902832 C77.16712951660156 66.16700744628906 79.74848937988281 68.04255676269531 81.967041015625 66.89060974121094 L100.00019836425781 57.529014587402344 L109.95596313476562 62.697410583496094 L122.89231872558594 22.883224487304688 Z"></path>
<path fill="#fcca5c" fill-opacity="1.0"  filling="0" d="M119.09268188476562 43.657508850097656 L133.56846618652344 29.399734497070312 C135.349365234375 27.645523071289062 134.36326599121094 24.61114501953125 131.89151000976562 24.238624572753906 L122.89231872558594 22.883224487304688 L106.08999633789062 39.432762145996094 L109.95596313476562 62.697410583496094 L118.03335571289062 66.89060974121094 C120.25190734863281 68.04255676269531 122.83326721191406 66.16700744628906 122.42353820800781 63.7009162902832 L119.09268188476562 43.657508850097656 Z"></path>
<path fill="#ee3032" fill-opacity="1.0"  filling="0" d="M127.70680236816406 81.82022094726562 L115.57252502441406 97.39254760742188 L127.70680236816406 112.15591430664062 L151.97535705566406 112.15591430664062 L151.97535705566406 81.82022094726562 L127.70680236816406 81.82022094726562 Z"></path>
<path fill="#f1563c" fill-opacity="1.0"  filling="0" d="M48.02503967285156 81.82022094726562 L127.70680236816406 81.82022094726562 L127.70680236816406 112.15591430664062 L48.02503967285156 112.15591430664062 L48.02503967285156 81.82022094726562 Z"></path>
<path fill="#4663a2" fill-opacity="1.0"  filling="0" d="M54.09217834472656 75.75308227539062 C50.74150085449219 75.75308227539062 48.02503967285156 78.46954345703125 48.02503967285156 81.82022094726562 L35.89076232910156 96.98806762695312 L48.02503967285156 112.15591430664062 C48.02503967285156 115.50659942626953 50.74150085449219 118.22305297851562 54.09217834472656 118.22305297851562 C57.44286346435547 118.22305297851562 60.15931701660156 115.50659942626953 60.15931701660156 112.15591430664062 L60.15931701660156 81.82022094726562 C60.15931701660156 78.4691390991211 57.44286346435547 75.75308227539062 54.09217834472656 75.75308227539062 Z"></path>
<path fill="#504b83" fill-opacity="1.0"  filling="0" d="M17.689346313476562 75.75308227539062 C21.04003143310547 75.75308227539062 23.756484985351562 78.46954345703125 23.756484985351562 81.82022094726562 L35.89076232910156 96.98806762695312 L23.756484985351562 112.15591430664062 C23.756484985351562 115.50659942626953 21.04003143310547 118.22305297851562 17.689346313476562 118.22305297851562 C14.338668823242188 118.22305297851562 11.622207641601562 115.50659942626953 11.622207641601562 112.15591430664062 L11.622207641601562 81.82022094726562 C11.622207641601562 78.4691390991211 14.338668823242188 75.75308227539062 17.689346313476562 75.75308227539062 Z"></path>
<path fill="#30caf3" fill-opacity="1.0"  filling="0" d="M48.02503967285156 66.65237426757812 L48.02503967285156 129.54837036132812 L29.823623657226562 141.68264770507812 L29.823623657226562 69.68594360351562 L35.89076232910156 63.618804931640625 L44.99147033691406 63.618804931640625 C46.66680908203125 63.618804931640625 48.02503967285156 64.97662353515625 48.02503967285156 66.65237426757812 Z"></path>
<path fill="#3ae8e6" fill-opacity="1.0"  filling="0" d="M35.89076232910156 63.618804931640625 L35.89076232910156 141.68264770507812 L23.756484985351562 129.54837036132812 L23.756484985351562 66.65237426757812 C23.756484985351562 64.97703552246094 25.114715576171875 63.618804931640625 26.790054321289062 63.618804931640625 L35.89076232910156 63.618804931640625 Z"></path>
<path fill="#7cf0ee" fill-opacity="1.0"  filling="0" d="M48.02503967285156 129.54837036132812 L48.02503967285156 192.57017517089844 L29.823623657226562 192.57017517089844 L29.823623657226562 135.61550903320312 L35.89076232910156 129.54837036132812 L48.02503967285156 129.54837036132812 Z"></path>
<path fill="#bdf7f7" fill-opacity="1.0"  filling="0" d="M23.756484985351562 129.54837036132812 L35.89076232910156 129.54837036132812 L35.89076232910156 192.57058715820312 L23.756484985351562 192.57058715820312 L23.756484985351562 129.54837036132812 Z"></path>
<path fill="#504b83" fill-opacity="1.0"  filling="0" d="M182.31106567382812 75.75308227539062 C178.96038818359375 75.75308227539062 176.24392700195312 78.46954345703125 176.24392700195312 81.82022094726562 L164.10963439941406 96.98806762695312 L176.24392700195312 112.15591430664062 C176.24392700195312 115.50659942626953 178.96038818359375 118.22305297851562 182.31106567382812 118.22305297851562 C185.6617431640625 118.22305297851562 188.37820434570312 115.50659942626953 188.37820434570312 112.15591430664062 L188.37820434570312 81.82022094726562 C188.37820434570312 78.4691390991211 185.6617431640625 75.75308227539062 182.31106567382812 75.75308227539062 Z"></path>
<path fill="#4663a2" fill-opacity="1.0"  filling="0" d="M145.90821838378906 75.75308227539062 C149.25889587402344 75.75308227539062 151.97535705566406 78.46954345703125 151.97535705566406 81.82022094726562 L164.10963439941406 96.98806762695312 L151.97535705566406 112.15591430664062 C151.97535705566406 115.50659942626953 149.25889587402344 118.22305297851562 145.90821838378906 118.22305297851562 C142.5575408935547 118.22305297851562 139.84107971191406 115.50659942626953 139.84107971191406 112.15591430664062 L139.84107971191406 81.82022094726562 C139.84107971191406 78.4691390991211 142.5575408935547 75.75308227539062 145.90821838378906 75.75308227539062 Z"></path>
<path fill="#30caf3" fill-opacity="1.0"  filling="0" d="M176.24392700195312 66.65237426757812 L176.24392700195312 129.54837036132812 L158.04249572753906 141.68264770507812 L158.04249572753906 69.68594360351562 L164.10963439941406 63.618804931640625 L173.21035766601562 63.618804931640625 C174.88568115234375 63.618804931640625 176.24392700195312 64.97662353515625 176.24392700195312 66.65237426757812 Z"></path>
<path fill="#3ae8e6" fill-opacity="1.0"  filling="0" d="M164.10963439941406 63.618804931640625 L164.10963439941406 141.68264770507812 L151.97535705566406 129.54837036132812 L151.97535705566406 66.65237426757812 C151.97535705566406 64.97703552246094 153.33358764648438 63.618804931640625 155.00892639160156 63.618804931640625 L164.10963439941406 63.618804931640625 Z"></path>
<path fill="#7cf0ee" fill-opacity="1.0"  filling="0" d="M176.24392700195312 129.54837036132812 L176.24392700195312 192.57017517089844 L158.04249572753906 192.57017517089844 L158.04249572753906 135.61550903320312 L164.10963439941406 129.54837036132812 L176.24392700195312 129.54837036132812 Z"></path>
<path fill="#bdf7f7" fill-opacity="1.0"  filling="0" d="M151.97535705566406 129.54837036132812 L164.10963439941406 129.54837036132812 L164.10963439941406 192.57058715820312 L151.97535705566406 192.57058715820312 L151.97535705566406 129.54837036132812 Z"></path>
<path fill="#30caf3" fill-opacity="1.0"  filling="0" d="M60.15931701660156 186.50303649902344 L48.02503967285156 186.50303649902344 L60.15931701660156 198.63731384277344 L68.74028015136719 198.63731384277344 C70.8273696899414 198.63731384277344 72.30128479003906 196.57489013671875 71.60841369628906 194.60671997070312 C69.94642639160156 189.88648986816406 65.44784545898438 186.50303649902344 60.15931701660156 186.50303649902344 Z"></path>
<path fill="#3ae8e6" fill-opacity="1.0"  filling="0" d="M48.02503967285156 186.50303649902344 L11.622207641601562 186.50303649902344 C6.333686828613281 186.50303649902344 1.8351058959960938 189.88648986816406 0.17352294921875 194.60671997070312 C-0.51934814453125 196.57530212402344 0.951324462890625 198.63731384277344 3.0380172729492188 198.63731384277344 L60.15931701660156 198.63731384277344 C60.15931701660156 191.9359588623047 54.726402282714844 186.50303649902344 48.02503967285156 186.50303649902344 Z"></path>
<path fill="#30caf3" fill-opacity="1.0"  filling="0" d="M188.37820434570312 186.50303649902344 L176.24392700195312 186.50303649902344 L188.37820434570312 198.63731384277344 L196.9591522216797 198.63731384277344 C199.04624938964844 198.63731384277344 200.5201416015625 196.57489013671875 199.82728576660156 194.60671997070312 C198.165283203125 189.88648986816406 193.66671752929688 186.50303649902344 188.37820434570312 186.50303649902344 Z"></path>
<path fill="#3ae8e6" fill-opacity="1.0"  filling="0" d="M176.24392700195312 186.50303649902344 L139.84107971191406 186.50303649902344 C134.55255126953125 186.50303649902344 130.05397033691406 189.88648986816406 128.3923797607422 194.60671997070312 C127.69952392578125 196.57530212402344 129.17019653320312 198.63731384277344 131.2568817138672 198.63731384277344 L188.37820434570312 198.63731384277344 C188.37820434570312 191.9359588623047 182.9452667236328 186.50303649902344 176.24392700195312 186.50303649902344 Z"></path></svg>