<svg xmlns="http://www.w3.org/2000/svg" viewBox="0.0 0.0 200.0 200.0" height="200.0px" width="200.0px"><path fill="#ccd3dd" fill-opacity="1.0"  filling="0" d="M34.10858917236328 73.85781860351562 L13.001174926757812 73.85781860351562 C7.978126525878906 73.85781860351562 3.90625 77.9296875 3.90625 82.95272827148438 C3.90625 87.97578430175781 7.978126525878906 92.04765319824219 13.001174926757812 92.04765319824219 L34.10858917236328 92.04765319824219 L34.10858917236328 73.85781860351562 Z"></path>
<path fill="#ccd3dd" fill-opacity="1.0"  filling="0" d="M186.99884033203125 73.85781860351562 L165.89141845703125 73.85781860351562 L165.89141845703125 92.04765319824219 L186.99884033203125 92.04765319824219 C192.02188110351562 92.04765319824219 196.09375 87.97578430175781 196.09375 82.95272827148438 C196.09375 77.9296875 192.02188110351562 73.85781860351562 186.99884033203125 73.85781860351562 Z"></path>
<path fill="#ccd3dd" fill-opacity="1.0"  filling="0" d="M165.890625 73.859375 L34.109375 73.859375 L34.109375 145.26171875 C34.109375 152.546875 40.015625 158.453125 47.30078125 158.453125 L152.69921875 158.453125 C159.984375 158.453125 165.890625 152.546875 165.890625 145.26171875 L165.890625 73.859375 Z"></path>
<path fill="#fff" fill-opacity="1.0"  filling="0" d="M116.56640625 73.859375 L116.56640625 65.3203125 C116.56640625 61.8515625 117.97265625 58.71484375 120.2421875 56.441410064697266 C122.51563262939453 54.171871185302734 125.65625 52.765625 129.12109375 52.765625 C132.5859375 52.765625 135.7265625 51.359375 138.0 49.0859375 C140.2734375 46.816410064697266 141.6796875 43.67578125 141.6796875 40.207027435302734 C141.6796875 32.50390625 135.43359375 26.2578125 127.7265625 26.2578125 L93.19921875 26.2578125 C97.0546875 26.2578125 100.5390625 27.8203125 103.06640625 30.34375 C105.58984375 32.8671875 107.15234375 36.355472564697266 107.15234375 40.207027435302734 C107.15234375 47.14453125 101.53125762939453 52.765625 94.59765625 52.765625 L70.87890625 52.765625 C63.9453125 52.765625 58.3203125 58.38671875 58.3203125 65.3203125 L58.3203125 73.859375 L116.56640625 73.859375 Z"></path>
<path fill="#ddb7a2" fill-opacity="1.0"  filling="0" d="M174.52227783203125 179.41561889648438 L174.52227783203125 163.25157165527344 C174.52227783203125 160.60116577148438 172.37384033203125 158.45272827148438 169.72344970703125 158.45272827148438 L30.203903198242188 158.45272827148438 C27.55352020263672 158.45272827148438 25.40508270263672 160.60116577148438 25.40508270263672 163.25157165527344 L25.40508270263672 179.41561889648438 L174.52227783203125 179.41561889648438 Z"></path>
<path fill="#e0a083" fill-opacity="1.0"  filling="0" d="M43.091796875 179.41561889648438 L156.8359375 179.41561889648438 L156.8359375 195.5078125 L43.091796875 195.5078125 L43.091796875 179.41561889648438 Z"></path>
<path fill="" fill-opacity="1.0"  filling="0" d="M186.99884033203125 69.95156860351562 L120.47148895263672 69.953125 L120.47148895263672 65.32148742675781 C120.47148895263672 60.55155944824219 124.35195922851562 56.67109680175781 129.1218719482422 56.67109680175781 C138.19921875 56.67109680175781 145.5847625732422 49.28593444824219 145.5847625732422 40.20820236206055 C145.5847625732422 30.361328125 137.57342529296875 22.350387573242188 127.7265625 22.350387573242188 L93.201171875 22.350387573242188 C87.6617202758789 22.350387573242188 83.15547180175781 17.844139099121094 83.15547180175781 12.305084228515625 L83.15547180175781 4.492584228515625 C83.15547180175781 2.3351516723632812 81.40625 0.586334228515625 79.24922180175781 0.586334228515625 C77.0921859741211 0.586334228515625 75.34297180175781 2.3351516723632812 75.34297180175781 4.492584228515625 L75.34297180175781 12.305084228515625 C75.34297180175781 22.151954650878906 83.35429382324219 30.16289520263672 93.201171875 30.16289520263672 C98.7406234741211 30.16289520263672 103.24687957763672 34.66913604736328 103.24687957763672 40.20820236206055 C103.24687957763672 44.97812271118164 99.36601257324219 48.85859680175781 94.5960922241211 48.85859680175781 L70.87812805175781 48.85859680175781 C61.800785064697266 48.85859680175781 54.41523361206055 56.24374771118164 54.41523361206055 65.32148742675781 L54.41523361206055 69.953125 L13.000778198242188 69.95156860351562 C5.832420349121094 69.95156860351562 0.0 75.7835922241211 0.0 82.95234680175781 C0.0 90.1214828491211 5.832420349121094 95.95352172851562 13.001174926757812 95.95352172851562 L30.203125 95.95352172851562 L30.203125 145.26171875 C30.203125 148.68359375 31.217185974121094 151.87069702148438 32.955467224121094 154.546875 L30.203514099121094 154.546875 C25.403907775878906 154.546875 21.49883270263672 158.4519500732422 21.49883270263672 163.25157165527344 L21.49883270263672 179.41561889648438 C21.49883270263672 181.5730438232422 23.248046875 183.32186889648438 25.40508270263672 183.32186889648438 L39.18515396118164 183.32186889648438 L39.18515396118164 195.5078125 C39.18515396118164 197.6652374267578 40.93437194824219 199.4140625 43.09140396118164 199.4140625 L156.83554077148438 199.4140625 C158.99258422851562 199.4140625 160.74179077148438 197.6652374267578 160.74179077148438 195.5078125 L160.74179077148438 183.32186889648438 L174.52227783203125 183.32186889648438 C176.67929077148438 183.32186889648438 178.42852783203125 181.5730438232422 178.42852783203125 179.41561889648438 L178.42852783203125 163.25157165527344 C178.42852783203125 158.45155334472656 174.5234375 154.546875 169.72344970703125 154.546875 L167.04452514648438 154.546875 C168.7824249267578 151.87069702148438 169.796875 148.68359375 169.796875 145.26171875 L169.796875 95.95390319824219 L186.99884033203125 95.95390319824219 C194.16796875 95.95390319824219 200.0 90.1214828491211 200.0 82.95272827148438 C200.0 75.7835922241211 194.16757202148438 69.95156860351562 186.99884033203125 69.95156860351562 Z M62.228126525878906 65.32148742675781 C62.228126525878906 60.55155944824219 66.10859680175781 56.67109680175781 70.8785171508789 56.67109680175781 L94.59648895263672 56.67109680175781 C103.67422485351562 56.67109680175781 111.05976104736328 49.28593444824219 111.05976104736328 40.20820236206055 C111.05976104736328 36.486328125 109.91522979736328 33.02656555175781 107.95938110351562 30.16289520263672 L127.7265625 30.16289520263672 C133.26602172851562 30.16289520263672 137.7722625732422 34.66913604736328 137.7722625732422 40.20820236206055 C137.7722625732422 44.97812271118164 133.8917999267578 48.85859680175781 129.1218719482422 48.85859680175781 C120.04452514648438 48.85859680175781 112.65898895263672 56.24374771118164 112.65898895263672 65.32148742675781 L112.65898895263672 69.95156860351562 L62.228126525878906 69.95156860351562 L62.228126525878906 65.32148742675781 Z M30.20233917236328 88.14140319824219 L13.001174926757812 88.14140319824219 C10.140235900878906 88.14140319824219 7.8125 85.81367492675781 7.8125 82.95272827148438 C7.8125 80.091796875 10.140235900878906 77.76406860351562 13.001174926757812 77.76406860351562 L30.20233917236328 77.76406860351562 L30.20233917236328 88.14140319824219 Z M170.61602783203125 163.25157165527344 L170.61602783203125 175.50936889648438 L116.90234375 175.50936889648438 C114.74530792236328 175.50936889648438 112.99609375 177.25820922851562 112.99609375 179.41561889648438 C112.99609375 181.5730438232422 114.74530792236328 183.32186889648438 116.90234375 183.32186889648438 L152.92929077148438 183.32186889648438 L152.92929077148438 191.6015625 L46.99765396118164 191.6015625 L46.99765396118164 183.32186889648438 L82.5355453491211 183.32186889648438 C84.69258117675781 183.32186889648438 86.4417953491211 181.5730438232422 86.4417953491211 179.41561889648438 C86.4417953491211 177.25820922851562 84.69258117675781 175.50936889648438 82.5355453491211 175.50936889648438 L29.31133270263672 175.50936889648438 L29.31133270263672 163.25157165527344 C29.31133270263672 162.759765625 29.711326599121094 162.359375 30.203514099121094 162.359375 L169.72344970703125 162.359375 C170.21563720703125 162.359375 170.61602783203125 162.759765625 170.61602783203125 163.25157165527344 Z M47.30078125 154.546875 C42.181251525878906 154.546875 38.015628814697266 150.3816375732422 38.015628814697266 145.26171875 L38.015628814697266 77.765625 L161.984375 77.765625 L161.984375 145.26171875 C161.984375 150.3816375732422 157.8191375732422 154.546875 152.69921875 154.546875 L47.30078125 154.546875 Z M186.99884033203125 88.14140319824219 L169.79766845703125 88.14140319824219 L169.79766845703125 77.76406860351562 L186.99884033203125 77.76406860351562 C189.85975646972656 77.76406860351562 192.1875 80.09140014648438 192.1875 82.95272827148438 C192.1875 85.8140640258789 189.85975646972656 88.14140319824219 186.99884033203125 88.14140319824219 Z"></path>
<path fill="" fill-opacity="1.0"  filling="0" d="M103.6050796508789 177.921875 C102.78632354736328 175.9562530517578 100.478515625 174.9949188232422 98.5074234008789 175.80859375 C96.5406265258789 176.62069702148438 95.57733917236328 178.94491577148438 96.3941421508789 180.91015625 C97.21054077148438 182.87539672851562 99.5277328491211 183.83828735351562 101.49608612060547 183.0234375 C103.4605484008789 182.2101593017578 104.421875 179.88241577148438 103.6050796508789 177.921875 Z"></path></svg>