<svg xmlns="http://www.w3.org/2000/svg" viewBox="0.0 0.0 200.0 200.0" height="200.0px" width="200.0px"><path fill="#CFD8DC" fill-opacity="1.0"  filling="0" d="M120.8325424194336 99.99590301513672 C118.5314712524414 100.00019073486328 116.66279602050781 98.13777160644531 116.65849304199219 95.83670043945312 C116.65655517578125 94.72736358642578 117.09715270996094 93.66295623779297 117.88265991210938 92.87939453125 C127.32408142089844 83.44657897949219 138.3318328857422 61.55567932128906 133.33203125 50.06435012817383 C130.77394104003906 44.16459655761719 123.70742797851562 41.33150863647461 112.62467956542969 41.664695739746094 C100.01229858398438 41.651023864746094 87.93037414550781 36.58872604370117 79.0760498046875 27.607070922851562 C72.1458740234375 21.626846313476562 67.71675109863281 13.259994506835938 66.6683578491211 4.166229248046875 C66.66796875 1.8655471801757812 68.53351593017578 0.0 70.8345947265625 0.0 C73.13567352294922 0.0 75.001220703125 1.8655471801757812 75.001220703125 4.166618347167969 C76.0816421508789 10.999153137207031 79.59088134765625 17.21257781982422 84.88401794433594 21.66590118408203 C92.11457824707031 29.085128784179688 102.02276611328125 33.28886413574219 112.38289642333984 33.33222198486328 C130.99893188476562 32.815452575683594 138.2150421142578 40.323734283447266 140.98992919921875 46.75667190551758 C148.32281494140625 63.722774505615234 133.1484375 89.41313171386719 123.7906265258789 98.7713394165039 C123.00707244873047 99.55685424804688 121.9422607421875 99.99785614013672 120.8325424194336 99.99590301513672 Z"></path>
<path fill="#2196F3" fill-opacity="1.0"  filling="0" d="M4.1705322265625 125.07807922363281 L195.8294677734375 125.07807922363281 C198.13055419921875 125.07807922363281 199.99609375 126.9436264038086 199.99609375 129.2447052001953 L199.99609375 195.83377075195312 C199.99609375 198.13485717773438 198.13055419921875 200.00038146972656 195.8294677734375 200.00038146972656 L4.1705322265625 200.00038146972656 C1.86944580078125 200.00038146972656 0.00390625 198.13485717773438 0.00390625 195.83377075195312 L0.00390625 129.2447052001953 C0.00429534912109375 126.9436264038086 1.86944580078125 125.07807922363281 4.1705322265625 125.07807922363281 Z"></path>
<path fill="" fill-opacity="1.0"  filling="0" d="M79.1674575805664 166.65997314453125 L54.168479919433594 166.65997314453125 C51.867401123046875 166.65997314453125 50.00185012817383 164.79440307617188 50.00185012817383 162.49334716796875 C50.00185012817383 160.1922607421875 51.867401123046875 158.32672119140625 54.168479919433594 158.32672119140625 L79.1674575805664 158.32672119140625 C81.4685287475586 158.32672119140625 83.33407592773438 160.1922607421875 83.33407592773438 162.49334716796875 C83.33407592773438 164.79440307617188 81.4685287475586 166.65997314453125 79.1674575805664 166.65997314453125 Z"></path>
<path fill="#BBDEFB" fill-opacity="1.0"  filling="0" d="M12.670181274414062 166.65997314453125 C10.369102478027344 166.65997314453125 8.503555297851562 164.79440307617188 8.503555297851562 162.49334716796875 C8.503166198730469 160.22430419921875 10.318321228027344 158.37242126464844 12.586585998535156 158.32672119140625 L12.669792175292969 158.32672119140625 C14.970863342285156 158.32672119140625 16.83641815185547 160.1922607421875 16.83641815185547 162.49334716796875 C16.836807250976562 164.79440307617188 14.971260070800781 166.65997314453125 12.670181274414062 166.65997314453125 Z"></path>
<path fill="" fill-opacity="1.0"  filling="0" d="M96.00035858154297 166.65997314453125 C93.69928741455078 166.65997314453125 91.83373260498047 164.79440307617188 91.83373260498047 162.49334716796875 C91.83373260498047 160.20828247070312 93.67389678955078 158.34976196289062 95.95856475830078 158.32672119140625 L96.04176330566406 158.32672119140625 C98.34284210205078 158.32672119140625 100.2083969116211 160.1922607421875 100.2083969116211 162.49334716796875 C100.2083969116211 164.79440307617188 98.34284210205078 166.65997314453125 96.04176330566406 166.65997314453125 L96.00035858154297 166.65997314453125 Z"></path>
<path fill="#BBDEFB" fill-opacity="1.0"  filling="0" d="M62.668128967285156 199.91680908203125 C60.36705780029297 199.91680908203125 58.50150680541992 198.05126953125 58.50150680541992 195.75018310546875 C58.50150680541992 193.46511840820312 60.34166717529297 191.60659790039062 62.626338958740234 191.58355712890625 L62.709537506103516 191.58355712890625 C65.0106201171875 191.58355712890625 66.87615966796875 193.4490966796875 66.87615966796875 195.75018310546875 C66.87615966796875 198.05126953125 65.0106201171875 199.91680908203125 62.709537506103516 199.91680908203125 L62.668128967285156 199.91680908203125 Z"></path>
<path fill="#BBDEFB" fill-opacity="1.0"  filling="0" d="M87.66710662841797 199.99180603027344 C85.36602783203125 199.99180603027344 83.50048065185547 198.12625122070312 83.50048065185547 195.82518005371094 C83.50048065185547 193.5401153564453 85.34064483642578 191.6815948486328 87.62531280517578 191.65853881835938 L87.70851135253906 191.65853881835938 C90.00959014892578 191.65853881835938 91.87513732910156 193.5240936279297 91.87513732910156 195.82518005371094 C91.87513732910156 198.12625122070312 90.00997924804688 199.99180603027344 87.70890808105469 199.99180603027344 L87.66710662841797 199.99180603027344 Z"></path>
<path fill="#BBDEFB" fill-opacity="1.0"  filling="0" d="M104.33322143554688 199.99180603027344 C102.03215026855469 199.99180603027344 100.1666030883789 198.12625122070312 100.1666030883789 195.82518005371094 C100.1666030883789 193.5401153564453 102.00675964355469 191.6815948486328 104.29142761230469 191.65853881835938 L104.37462615966797 191.65853881835938 C106.67570495605469 191.65853881835938 108.541259765625 193.5240936279297 108.541259765625 195.82518005371094 C108.541259765625 198.12625122070312 106.67608642578125 199.99180603027344 104.37501525878906 199.99180603027344 L104.33322143554688 199.99180603027344 Z"></path>
<path fill="#607D8B" fill-opacity="1.0"  filling="0" d="M65.78480529785156 126.59481048583984 C64.99498748779297 125.58470153808594 63.78371047973633 124.9944839477539 62.501731872558594 124.994873046875 L37.50275802612305 124.994873046875 C36.05515670776367 124.9944839477539 34.711463928222656 125.74523162841797 33.952903747558594 126.97799682617188 C30.65576934814453 132.67152404785156 28.682022094726562 139.0341339111328 28.178138732910156 145.59402465820312 C28.053924560546875 147.8916015625 29.815963745117188 149.8551788330078 32.11351776123047 149.97940063476562 C32.19047546386719 149.98370361328125 32.267425537109375 149.98565673828125 32.344764709472656 149.98565673828125 L58.33549880981445 149.98565673828125 C60.24791717529297 149.98526000976562 61.91425704956055 148.68296813964844 62.37712860107422 146.82757568359375 L66.54374694824219 130.1614532470703 C66.85155487060547 128.91932678222656 66.5718765258789 127.60414123535156 65.78480529785156 126.59481048583984 Z"></path>
<path fill="#546E7A" fill-opacity="1.0"  filling="0" d="M61.61817169189453 143.26092529296875 C60.828365325927734 142.2508087158203 59.617088317871094 141.66058349609375 58.33510208129883 141.66098022460938 L32.33616638183594 141.66098022460938 C30.129234313964844 141.65708923339844 28.301956176757812 143.3745880126953 28.16954803466797 145.57762145996094 C27.534805297851562 152.66952514648438 29.744094848632812 159.72274780273438 34.31108856201172 165.18502807617188 C35.105201721191406 166.12326049804688 36.27312088012695 166.6630859375 37.50275802612305 166.65997314453125 L54.16886901855469 166.65997314453125 C56.081295013427734 166.65957641601562 57.74762725830078 165.35728454589844 58.21049880981445 163.50189208984375 L62.37712860107422 146.83578491210938 C62.68766403198242 145.59091186523438 62.40798568725586 144.27220153808594 61.61817169189453 143.26092529296875 Z"></path>
<path fill="#BBDEFB" fill-opacity="1.0"  filling="0" d="M162.66403198242188 166.65997314453125 C160.36294555664062 166.65997314453125 158.49740600585938 164.79440307617188 158.49740600585938 162.49334716796875 C158.49740600585938 160.20828247070312 160.33755493164062 158.34976196289062 162.6222381591797 158.32672119140625 L162.7054443359375 158.32672119140625 C165.0065155029297 158.32672119140625 166.8720703125 160.1922607421875 166.8720703125 162.49334716796875 C166.8720703125 164.79440307617188 165.0065155029297 166.65997314453125 162.7054443359375 166.65997314453125 L162.66403198242188 166.65997314453125 Z"></path>
<path fill="#455A64" fill-opacity="1.0"  filling="0" d="M136.4401092529297 103.81253814697266 C134.83197021484375 101.3751449584961 132.08482360839844 99.9341812133789 129.1654052734375 99.99590301513672 C117.49908447265625 99.99590301513672 116.66592407226562 95.279296875 116.66592407226562 87.49641418457031 C116.66436004638672 86.08592224121094 115.94953918457031 84.77230834960938 114.7659912109375 84.0047607421875 C113.58050537109375 83.24111938476562 112.09110260009766 83.12237548828125 110.79936218261719 83.68797302246094 C46.335208892822266 112.33679962158203 49.83506774902344 160.8266143798828 50.00185012817383 162.85972595214844 C50.19247055053711 165.01666259765625 52.003334045410156 166.66778564453125 54.168479919433594 166.65957641601562 L120.8325424194336 166.65957641601562 C122.520751953125 166.6580047607422 124.041015625 165.63772583007812 124.68238830566406 164.07647705078125 C129.3321990966797 152.76052856445312 143.91481018066406 114.99528503417969 136.4401092529297 103.81253814697266 Z"></path>
<path fill="#FAFAFA" fill-opacity="1.0"  filling="0" d="M95.83356475830078 116.6620101928711 C95.28632354736328 116.6827163696289 94.74259948730469 116.56826782226562 94.25043487548828 116.32881927490234 C93.73091888427734 116.15031433105469 93.27000427246094 115.83352661132812 92.91728210449219 115.41207122802734 C91.30641174316406 113.87345886230469 91.24781799316406 111.3204345703125 92.78643035888672 109.70994567871094 C92.8290023803711 109.6654281616211 92.87275695800781 109.6216812133789 92.91728210449219 109.5791015625 C94.091064453125 108.38618469238281 95.87223815917969 108.02681732177734 97.41709899902344 108.67094421386719 C97.93856048583984 108.84162902832031 98.40065002441406 109.15646362304688 98.75025177001953 109.5791015625 C99.55802917480469 110.33258819580078 100.01152801513672 111.3911361694336 100.00019073486328 112.49578094482422 C100.0087890625 113.03911590576172 99.89472961425781 113.5773696899414 99.66700744628906 114.07070922851562 C99.49240112304688 114.59217834472656 99.17483520507812 115.05426788330078 98.75025177001953 115.40386962890625 C98.39869689941406 115.82650756835938 97.93738555908203 116.1436767578125 97.41709899902344 116.32061767578125 C96.92532348632812 116.5624008178711 96.3812026977539 116.67998504638672 95.83356475830078 116.6620101928711 Z"></path>
<path fill="#CFD8DC" fill-opacity="1.0"  filling="0" d="M112.49967956542969 149.9938507080078 L112.19149017333984 149.9938507080078 C108.39164733886719 149.70205688476562 75.001220703125 146.76077270507812 75.001220703125 129.1614990234375 C75.001220703125 126.86042785644531 76.86676788330078 124.994873046875 79.1678466796875 124.994873046875 C81.46892547607422 124.994873046875 83.33447265625 126.86042785644531 83.33447265625 129.1614990234375 C83.33447265625 136.21121215820312 100.91695404052734 140.82781982421875 112.80826568603516 141.66098022460938 C115.10933685302734 141.74380493164062 116.90769958496094 143.67652893066406 116.82490539550781 145.97760009765625 C116.74209594726562 148.2786865234375 114.80935668945312 150.07705688476562 112.50827026367188 149.99424743652344 L112.49967956542969 149.99424743652344 L112.49967956542969 149.9938507080078 Z"></path>
<path fill="#BBDEFB" fill-opacity="1.0"  filling="0" d="M120.8325424194336 183.32568359375 L62.501731872558594 183.32568359375 C60.200653076171875 183.32568359375 58.33510208129883 181.46014404296875 58.33510208129883 179.1590576171875 C58.33510208129883 176.85797119140625 60.200653076171875 174.992431640625 62.501731872558594 174.992431640625 L120.8325424194336 174.992431640625 C123.13362121582031 174.992431640625 124.9991683959961 176.85797119140625 124.9991683959961 179.1590576171875 C124.9991683959961 181.46054077148438 123.13362121582031 183.32568359375 120.8325424194336 183.32568359375 Z"></path>
<path fill="#BBDEFB" fill-opacity="1.0"  filling="0" d="M137.66506958007812 183.32568359375 C135.36398315429688 183.32568359375 133.49842834472656 181.46014404296875 133.49842834472656 179.1590576171875 C133.49842834472656 176.87399291992188 135.33859252929688 175.01548767089844 137.62326049804688 174.992431640625 L137.7064666748047 174.992431640625 C140.00753784179688 174.992431640625 141.87307739257812 176.85797119140625 141.87307739257812 179.1590576171875 C141.87307739257812 181.46014404296875 140.00753784179688 183.32568359375 137.7064666748047 183.32568359375 L137.66506958007812 183.32568359375 Z"></path>
<path fill="#BBDEFB" fill-opacity="1.0"  filling="0" d="M46.00240707397461 183.32568359375 C43.701332092285156 183.32568359375 41.835784912109375 181.46014404296875 41.835784912109375 179.1590576171875 C41.835391998291016 176.8900146484375 43.650550842285156 175.03775024414062 45.918819427490234 174.992431640625 L46.00201416015625 174.992431640625 C48.3031005859375 174.992431640625 50.168643951416016 176.85797119140625 50.168643951416016 179.1590576171875 C50.168643951416016 181.46054077148438 48.30348587036133 183.32568359375 46.00240707397461 183.32568359375 L46.00240707397461 183.32568359375 Z"></path></svg>