<svg id="_0300_china" xmlns="http://www.w3.org/2000/svg" viewBox="0 0 500 500" data-imageid="china-40" imageName="China" class="illustrations_image" style="width: 188px;"><defs><style>.cls-1_china-40{fill:#fff;}.cls-2_china-40{opacity:.42;}.cls-2_china-40,.cls-3_china-40{fill:#000001;}.cls-4_china-40{fill:#a5a5a5;}.cls-5_china-40{fill:#e6e6e6;}.cls-3_china-40{opacity:.09;}.cls-6_china-40{fill:#24285b;}.cls-7_china-40{fill:#ffd200;}.cls-8_china-40{fill:#68e1fd;}</style></defs><g id="china_china-40"><rect class="cls-6_china-40" x="38.4" y="375.85" width="107.82" height="59.46"/><rect class="cls-8_china-40 targetColor" x="61.3" y="184.07" width="62.02" height="191.78" style="fill: rgb(104, 225, 253);"/><rect class="cls-8_china-40 targetColor" x="61.3" y="184.07" width="62.02" height="191.78" style="fill: rgb(104, 225, 253);"/><path class="cls-7_china-40" d="m144.31,364.36H40.31c-7.63,16.66-26.72,5.76-26.72,5.76.48,14.31,15.27,15.27,15.27,15.27h126.9s14.79-.95,15.27-15.27c0,0-19.08,10.9-26.72-5.76Z"/><path class="cls-7_china-40" d="m125.25,331H59.37c-4.83,10.55-16.92,3.65-16.92,3.65.3,9.07,9.67,9.67,9.67,9.67h80.38s9.37-.6,9.67-9.67c0,0-12.09,6.9-16.92-3.65Z"/><path class="cls-7_china-40" d="m125.25,299.04H59.37c-4.83,10.55-16.92,3.65-16.92,3.65.3,9.07,9.67,9.67,9.67,9.67h80.38s9.37-.6,9.67-9.67c0,0-12.09,6.9-16.92-3.65Z"/><path class="cls-7_china-40" d="m125.25,267.08H59.37c-4.83,10.55-16.92,3.65-16.92,3.65.3,9.07,9.67,9.67,9.67,9.67h80.38s9.37-.6,9.67-9.67c0,0-12.09,6.9-16.92-3.65Z"/><path class="cls-7_china-40" d="m125.25,235.11H59.37c-4.83,10.55-16.92,3.65-16.92,3.65.3,9.07,9.67,9.67,9.67,9.67h80.38s9.37-.6,9.67-9.67c0,0-12.09,6.9-16.92-3.65Z"/><path class="cls-7_china-40" d="m125.25,203.15H59.37c-4.83,10.55-16.92,3.65-16.92,3.65.3,9.07,9.67,9.67,9.67,9.67h80.38s9.37-.6,9.67-9.67c0,0-12.09,6.9-16.92-3.65Z"/><path class="cls-7_china-40" d="m125.25,171.19h0s-24.59-12.17-32.94-40.55c-8.35,28.38-32.93,40.55-32.94,40.55h0c-4.84,10.55-16.92,3.65-16.92,3.65.3,9.07,9.67,9.67,9.67,9.67h80.38s9.37-.6,9.67-9.67c0,0-12.09,6.9-16.92-3.65Z"/><path class="cls-2_china-40" d="m87.95,393.5h8.72c5.78,0,10.47,4.69,10.47,10.47v30.79h-29.65v-30.79c0-5.78,4.69-10.47,10.47-10.47Z"/><rect class="cls-8_china-40 targetColor" x="32.32" y="385.39" width="12.52" height="49.36" style="fill: rgb(104, 225, 253);"/><rect class="cls-8_china-40 targetColor" x="137.27" y="385.39" width="12.52" height="49.36" style="fill: rgb(104, 225, 253);"/><path class="cls-6_china-40" d="m73.73,188.48h3.05c2.02,0,3.66,1.64,3.66,3.66v6.71h-10.38v-6.71c0-2.02,1.64-3.66,3.66-3.66Z"/><path class="cls-6_china-40" d="m91.32,188.48h3.05c2.02,0,3.66,1.64,3.66,3.66v6.71h-10.38v-6.71c0-2.02,1.64-3.66,3.66-3.66Z"/><path class="cls-6_china-40" d="m108.73,188.48h3.05c2.02,0,3.66,1.64,3.66,3.66v6.71h-10.38v-6.71c0-2.02,1.64-3.66,3.66-3.66Z"/><path class="cls-6_china-40" d="m73.73,220.6h3.05c2.02,0,3.66,1.64,3.66,3.66v6.71h-10.38v-6.71c0-2.02,1.64-3.66,3.66-3.66Z"/><path class="cls-6_china-40" d="m91.32,220.6h3.05c2.02,0,3.66,1.64,3.66,3.66v6.71h-10.38v-6.71c0-2.02,1.64-3.66,3.66-3.66Z"/><path class="cls-6_china-40" d="m108.73,220.6h3.05c2.02,0,3.66,1.64,3.66,3.66v6.71h-10.38v-6.71c0-2.02,1.64-3.66,3.66-3.66Z"/><path class="cls-6_china-40" d="m73.73,252.57h3.05c2.02,0,3.66,1.64,3.66,3.66v6.71h-10.38v-6.71c0-2.02,1.64-3.66,3.66-3.66Z"/><path class="cls-6_china-40" d="m91.32,252.57h3.05c2.02,0,3.66,1.64,3.66,3.66v6.71h-10.38v-6.71c0-2.02,1.64-3.66,3.66-3.66Z"/><path class="cls-6_china-40" d="m108.73,252.57h3.05c2.02,0,3.66,1.64,3.66,3.66v6.71h-10.38v-6.71c0-2.02,1.64-3.66,3.66-3.66Z"/><path class="cls-6_china-40" d="m73.73,283.83h3.05c2.02,0,3.66,1.64,3.66,3.66v6.71h-10.38v-6.71c0-2.02,1.64-3.66,3.66-3.66Z"/><path class="cls-6_china-40" d="m91.32,283.83h3.05c2.02,0,3.66,1.64,3.66,3.66v6.71h-10.38v-6.71c0-2.02,1.64-3.66,3.66-3.66Z"/><path class="cls-6_china-40" d="m108.73,283.83h3.05c2.02,0,3.66,1.64,3.66,3.66v6.71h-10.38v-6.71c0-2.02,1.64-3.66,3.66-3.66Z"/><path class="cls-6_china-40" d="m73.73,316.51h3.05c2.02,0,3.66,1.64,3.66,3.66v6.71h-10.38v-6.71c0-2.02,1.64-3.66,3.66-3.66Z"/><path class="cls-6_china-40" d="m91.32,316.51h3.05c2.02,0,3.66,1.64,3.66,3.66v6.71h-10.38v-6.71c0-2.02,1.64-3.66,3.66-3.66Z"/><path class="cls-6_china-40" d="m108.73,316.51h3.05c2.02,0,3.66,1.64,3.66,3.66v6.71h-10.38v-6.71c0-2.02,1.64-3.66,3.66-3.66Z"/><path class="cls-6_china-40" d="m73.73,349.15h3.05c2.02,0,3.66,1.64,3.66,3.66v6.71h-10.38v-6.71c0-2.02,1.64-3.66,3.66-3.66Z"/><path class="cls-6_china-40" d="m91.32,349.15h3.05c2.02,0,3.66,1.64,3.66,3.66v6.71h-10.38v-6.71c0-2.02,1.64-3.66,3.66-3.66Z"/><path class="cls-6_china-40" d="m108.73,349.15h3.05c2.02,0,3.66,1.64,3.66,3.66v6.71h-10.38v-6.71c0-2.02,1.64-3.66,3.66-3.66Z"/><path class="cls-3_china-40" d="m144.31,364.36h-20.99v-20.04h9.18s9.37-.6,9.67-9.67c0,0-12.09,6.9-16.92-3.65h-1.93v-18.64h9.18s9.37-.6,9.67-9.67c0,0-12.09,6.9-16.92-3.65h-1.93v-18.64h9.18s9.37-.6,9.67-9.67c0,0-12.09,6.9-16.92-3.65h-1.93v-18.64h9.18s9.37-.6,9.67-9.67c0,0-12.09,6.9-16.92-3.65h-1.93v-18.64h9.18s9.37-.6,9.67-9.67c0,0-12.09,6.9-16.92-3.65h-1.93v-18.64h9.18s9.37-.6,9.67-9.67c0,0-12.09,6.9-16.92-3.65h0s-24.59-12.17-32.94-40.55c-8.35,28.38-32.93,40.55-32.94,40.55h0c-4.84,10.55-16.92,3.65-16.92,3.65.3,9.07,9.67,9.67,9.67,9.67h9.18v18.64h-1.93c-4.83,10.55-16.92,3.65-16.92,3.65.3,9.07,9.67,9.67,9.67,9.67h9.18v18.64h-1.93c-4.83,10.55-16.92,3.65-16.92,3.65.3,9.07,9.67,9.67,9.67,9.67h9.18v18.64h-1.93c-4.83,10.55-16.92,3.65-16.92,3.65.3,9.07,9.67,9.67,9.67,9.67h9.18v18.64h-1.93c-4.83,10.55-16.92,3.65-16.92,3.65.3,9.07,9.67,9.67,9.67,9.67h9.18v18.64h-1.93c-4.83,10.55-16.92,3.65-16.92,3.65.3,9.07,9.67,9.67,9.67,9.67h9.18v20.04h-20.99c-7.63,16.66-26.72,5.76-26.72,5.76.48,14.31,15.27,15.27,15.27,15.27h3.46v49.36h6.08v.56h107.82v-.56h3.58v-49.36h5.96s14.79-.95,15.27-15.27c0,0-19.08,10.9-26.72-5.76Z"/><rect class="cls-6_china-40" x="353.78" y="375.85" width="107.82" height="59.46"/><rect class="cls-8_china-40 targetColor" x="376.68" y="184.07" width="62.02" height="191.78" style="fill: rgb(104, 225, 253);"/><rect class="cls-8_china-40 targetColor" x="376.68" y="184.07" width="62.02" height="191.78" style="fill: rgb(104, 225, 253);"/><path class="cls-7_china-40" d="m459.69,364.36h-104c-7.63,16.66-26.72,5.76-26.72,5.76.48,14.31,15.27,15.27,15.27,15.27h126.9s14.79-.95,15.27-15.27c0,0-19.08,10.9-26.72-5.76Z"/><path class="cls-7_china-40" d="m440.63,331h-65.88c-4.83,10.55-16.92,3.65-16.92,3.65.3,9.07,9.67,9.67,9.67,9.67h80.38s9.37-.6,9.67-9.67c0,0-12.09,6.9-16.92-3.65Z"/><path class="cls-7_china-40" d="m440.63,299.04h-65.88c-4.83,10.55-16.92,3.65-16.92,3.65.3,9.07,9.67,9.67,9.67,9.67h80.38s9.37-.6,9.67-9.67c0,0-12.09,6.9-16.92-3.65Z"/><path class="cls-7_china-40" d="m440.63,267.08h-65.88c-4.83,10.55-16.92,3.65-16.92,3.65.3,9.07,9.67,9.67,9.67,9.67h80.38s9.37-.6,9.67-9.67c0,0-12.09,6.9-16.92-3.65Z"/><path class="cls-7_china-40" d="m440.63,235.11h-65.88c-4.83,10.55-16.92,3.65-16.92,3.65.3,9.07,9.67,9.67,9.67,9.67h80.38s9.37-.6,9.67-9.67c0,0-12.09,6.9-16.92-3.65Z"/><path class="cls-7_china-40" d="m440.63,203.15h-65.88c-4.83,10.55-16.92,3.65-16.92,3.65.3,9.07,9.67,9.67,9.67,9.67h80.38s9.37-.6,9.67-9.67c0,0-12.09,6.9-16.92-3.65Z"/><path class="cls-7_china-40" d="m440.63,171.19h0s-24.59-12.17-32.94-40.55c-8.35,28.38-32.93,40.55-32.94,40.55h0c-4.84,10.55-16.92,3.65-16.92,3.65.3,9.07,9.67,9.67,9.67,9.67h80.38s9.37-.6,9.67-9.67c0,0-12.09,6.9-16.92-3.65Z"/><path class="cls-2_china-40" d="m403.33,393.5h8.72c5.78,0,10.47,4.69,10.47,10.47v30.79h-29.65v-30.79c0-5.78,4.69-10.47,10.47-10.47Z"/><rect class="cls-8_china-40 targetColor" x="347.7" y="385.39" width="12.52" height="49.36" style="fill: rgb(104, 225, 253);"/><rect class="cls-8_china-40 targetColor" x="452.65" y="385.39" width="12.52" height="49.36" style="fill: rgb(104, 225, 253);"/><path class="cls-6_china-40" d="m389.11,188.48h3.05c2.02,0,3.66,1.64,3.66,3.66v6.71h-10.38v-6.71c0-2.02,1.64-3.66,3.66-3.66Z"/><path class="cls-6_china-40" d="m406.7,188.48h3.05c2.02,0,3.66,1.64,3.66,3.66v6.71h-10.38v-6.71c0-2.02,1.64-3.66,3.66-3.66Z"/><path class="cls-6_china-40" d="m424.11,188.48h3.05c2.02,0,3.66,1.64,3.66,3.66v6.71h-10.38v-6.71c0-2.02,1.64-3.66,3.66-3.66Z"/><path class="cls-6_china-40" d="m389.11,220.6h3.05c2.02,0,3.66,1.64,3.66,3.66v6.71h-10.38v-6.71c0-2.02,1.64-3.66,3.66-3.66Z"/><path class="cls-6_china-40" d="m406.7,220.6h3.05c2.02,0,3.66,1.64,3.66,3.66v6.71h-10.38v-6.71c0-2.02,1.64-3.66,3.66-3.66Z"/><path class="cls-6_china-40" d="m424.11,220.6h3.05c2.02,0,3.66,1.64,3.66,3.66v6.71h-10.38v-6.71c0-2.02,1.64-3.66,3.66-3.66Z"/><path class="cls-6_china-40" d="m389.11,252.57h3.05c2.02,0,3.66,1.64,3.66,3.66v6.71h-10.38v-6.71c0-2.02,1.64-3.66,3.66-3.66Z"/><path class="cls-6_china-40" d="m406.7,252.57h3.05c2.02,0,3.66,1.64,3.66,3.66v6.71h-10.38v-6.71c0-2.02,1.64-3.66,3.66-3.66Z"/><path class="cls-6_china-40" d="m424.11,252.57h3.05c2.02,0,3.66,1.64,3.66,3.66v6.71h-10.38v-6.71c0-2.02,1.64-3.66,3.66-3.66Z"/><path class="cls-6_china-40" d="m389.11,283.83h3.05c2.02,0,3.66,1.64,3.66,3.66v6.71h-10.38v-6.71c0-2.02,1.64-3.66,3.66-3.66Z"/><path class="cls-6_china-40" d="m406.7,283.83h3.05c2.02,0,3.66,1.64,3.66,3.66v6.71h-10.38v-6.71c0-2.02,1.64-3.66,3.66-3.66Z"/><path class="cls-6_china-40" d="m424.11,283.83h3.05c2.02,0,3.66,1.64,3.66,3.66v6.71h-10.38v-6.71c0-2.02,1.64-3.66,3.66-3.66Z"/><path class="cls-6_china-40" d="m389.11,316.51h3.05c2.02,0,3.66,1.64,3.66,3.66v6.71h-10.38v-6.71c0-2.02,1.64-3.66,3.66-3.66Z"/><path class="cls-6_china-40" d="m406.7,316.51h3.05c2.02,0,3.66,1.64,3.66,3.66v6.71h-10.38v-6.71c0-2.02,1.64-3.66,3.66-3.66Z"/><path class="cls-6_china-40" d="m424.11,316.51h3.05c2.02,0,3.66,1.64,3.66,3.66v6.71h-10.38v-6.71c0-2.02,1.64-3.66,3.66-3.66Z"/><path class="cls-6_china-40" d="m389.11,349.15h3.05c2.02,0,3.66,1.64,3.66,3.66v6.71h-10.38v-6.71c0-2.02,1.64-3.66,3.66-3.66Z"/><path class="cls-6_china-40" d="m406.7,349.15h3.05c2.02,0,3.66,1.64,3.66,3.66v6.71h-10.38v-6.71c0-2.02,1.64-3.66,3.66-3.66Z"/><path class="cls-6_china-40" d="m424.11,349.15h3.05c2.02,0,3.66,1.64,3.66,3.66v6.71h-10.38v-6.71c0-2.02,1.64-3.66,3.66-3.66Z"/><path class="cls-3_china-40" d="m459.69,364.36h-20.99v-20.04h9.18s9.37-.6,9.67-9.67c0,0-12.09,6.9-16.92-3.65h-1.93v-18.64h9.18s9.37-.6,9.67-9.67c0,0-12.09,6.9-16.92-3.65h-1.93v-18.64h9.18s9.37-.6,9.67-9.67c0,0-12.09,6.9-16.92-3.65h-1.93v-18.64h9.18s9.37-.6,9.67-9.67c0,0-12.09,6.9-16.92-3.65h-1.93v-18.64h9.18s9.37-.6,9.67-9.67c0,0-12.09,6.9-16.92-3.65h-1.93v-18.64h9.18s9.37-.6,9.67-9.67c0,0-12.09,6.9-16.92-3.65h0s-24.59-12.17-32.94-40.55c-8.35,28.38-32.93,40.55-32.94,40.55h0c-4.84,10.55-16.92,3.65-16.92,3.65.3,9.07,9.67,9.67,9.67,9.67h9.18v18.64h-1.93c-4.83,10.55-16.92,3.65-16.92,3.65.3,9.07,9.67,9.67,9.67,9.67h9.18v18.64h-1.93c-4.83,10.55-16.92,3.65-16.92,3.65.3,9.07,9.67,9.67,9.67,9.67h9.18v18.64h-1.93c-4.83,10.55-16.92,3.65-16.92,3.65.3,9.07,9.67,9.67,9.67,9.67h9.18v18.64h-1.93c-4.83,10.55-16.92,3.65-16.92,3.65.3,9.07,9.67,9.67,9.67,9.67h9.18v18.64h-1.93c-4.83,10.55-16.92,3.65-16.92,3.65.3,9.07,9.67,9.67,9.67,9.67h9.18v20.04h-20.99c-7.63,16.66-26.72,5.76-26.72,5.76.48,14.31,15.27,15.27,15.27,15.27h3.46v49.36h6.08v.56h107.82v-.56h3.58v-49.36h5.96s14.79-.95,15.27-15.27c0,0-19.08,10.9-26.72-5.76Z"/><rect class="cls-5_china-40" x="74.76" y="362.53" width="350.21" height="71.31"/><path class="cls-4_china-40" d="m243.2,381.75h14.78c6.25,0,11.33,5.08,11.33,11.33v40.77h-37.45v-40.77c0-6.25,5.08-11.33,11.33-11.33Z"/><path class="cls-4_china-40" d="m201.85,403.24h9.61c4.07,0,7.37,3.3,7.37,7.37v23.24h-24.34v-23.24c0-4.07,3.3-7.37,7.37-7.37Z"/><path class="cls-4_china-40" d="m289.28,403.24h9.61c4.07,0,7.37,3.3,7.37,7.37v23.24h-24.34v-23.24c0-4.07,3.3-7.37,7.37-7.37Z"/><rect class="cls-4_china-40" x="74.76" y="356.35" width="350.21" height="6.19"/><rect class="cls-8_china-40 targetColor" x="110.74" y="324.76" width="282.97" height="31.59" style="fill: rgb(104, 225, 253);"/><path class="cls-7_china-40" d="m355.61,292.85h-210.03s-20.84,28.98-60.89,31.91l9.77,5.21h312.27l9.77-5.21c-40.05-2.93-60.89-31.91-60.89-31.91Z"/><rect class="cls-8_china-40 targetColor" x="145.34" y="259.96" width="210.27" height="32.89" style="fill: rgb(104, 225, 253);"/><path class="cls-7_china-40" d="m350.85,254.85c-18.5-6.77-31.37-22.46-34.22-40.66-.52-3.3-4.27-4.95-6.97-2.97l-8.77,6.41v6.02c0,2.79-2.39,5.05-5.34,5.05h-91.22c-2.95,0-5.34-2.26-5.34-5.05v-6.02l-8.77-6.41c-2.7-1.97-6.45-.33-6.97,2.97-2.84,18.19-15.72,33.89-34.22,40.66-4.81,1.76-10.27,3.48-16.48,5.11h234.77c-6.21-1.63-11.68-3.35-16.48-5.11Z"/><rect class="cls-7_china-40" x="130.93" y="329.97" width="7.81" height="26.38"/><rect class="cls-1_china-40" x="130.93" y="339.09" width="7.81" height="8.14"/><rect class="cls-7_china-40" x="166.83" y="329.97" width="7.81" height="26.38"/><rect class="cls-1_china-40" x="166.83" y="339.09" width="7.81" height="8.14"/><rect class="cls-7_china-40" x="204.22" y="329.97" width="7.81" height="26.38"/><rect class="cls-1_china-40" x="204.22" y="339.09" width="7.81" height="8.14"/><rect class="cls-7_china-40" x="286.23" y="329.97" width="7.81" height="26.38"/><rect class="cls-1_china-40" x="286.23" y="339.09" width="7.81" height="8.14"/><rect class="cls-7_china-40" x="322.13" y="329.97" width="7.81" height="26.38"/><rect class="cls-1_china-40" x="322.13" y="339.09" width="7.81" height="8.14"/><rect class="cls-7_china-40" x="359.52" y="329.97" width="7.81" height="26.38"/><rect class="cls-1_china-40" x="359.52" y="339.09" width="7.81" height="8.14"/><rect class="cls-6_china-40" x="220.8" y="337.14" width="56.41" height="19.21"/><polygon class="cls-3_china-40" points="84.69 324.76 416.5 324.76 406.73 329.97 94.46 329.97 84.69 324.76"/><path class="cls-6_china-40" d="m162.25,267.78h5.17c2.19,0,3.97,1.78,3.97,3.97v12.64h-13.11v-12.64c0-2.19,1.78-3.97,3.97-3.97Z"/><path class="cls-6_china-40" d="m187.06,267.78h5.17c2.19,0,3.97,1.78,3.97,3.97v12.64h-13.11v-12.64c0-2.19,1.78-3.97,3.97-3.97Z"/><path class="cls-6_china-40" d="m212.4,267.78h5.17c2.19,0,3.97,1.78,3.97,3.97v12.64h-13.11v-12.64c0-2.19,1.78-3.97,3.97-3.97Z"/><path class="cls-6_china-40" d="m237.22,267.78h5.17c2.19,0,3.97,1.78,3.97,3.97v12.64h-13.11v-12.64c0-2.19,1.78-3.97,3.97-3.97Z"/><path class="cls-6_china-40" d="m262.21,267.78h5.17c2.19,0,3.97,1.78,3.97,3.97v12.64h-13.11v-12.64c0-2.19,1.78-3.97,3.97-3.97Z"/><path class="cls-6_china-40" d="m287.02,267.78h5.17c2.19,0,3.97,1.78,3.97,3.97v12.64h-13.11v-12.64c0-2.19,1.78-3.97,3.97-3.97Z"/><path class="cls-6_china-40" d="m310.66,267.78h5.17c2.19,0,3.97,1.78,3.97,3.97v12.64h-13.11v-12.64c0-2.19,1.78-3.97,3.97-3.97Z"/><path class="cls-6_china-40" d="m335.48,267.78h5.17c2.19,0,3.97,1.78,3.97,3.97v12.64h-13.11v-12.64c0-2.19,1.78-3.97,3.97-3.97Z"/><rect class="cls-6_china-40" x="13.59" y="433.85" width="472.81" height="18.29" rx="5.63" ry="5.63"/></g><circle id="sun_china-40" class="cls-7_china-40" cx="243.17" cy="94.83" r="46.97"/></svg>