<svg version="1.1" id="Layer_1" xmlns="http://www.w3.org/2000/svg" xmlns:xlink="http://www.w3.org/1999/xlink" x="0px" y="0px" viewBox="0 0 500 500" style="width: 188px;" xml:space="preserve" data-imageid="the-great-wall-64" imageName="The Great Wall" class="illustrations_image">
<style type="text/css">
	.st0_the-great-wall-64{fill:#5297A4;}
	.st1_the-great-wall-64{fill:#80AD1F;}
	.st2_the-great-wall-64{fill:#94C14C;}
	.st3_the-great-wall-64{opacity:0.4;fill:#80AD1F;enable-background:new    ;}
	.st4_the-great-wall-64{fill:#FFE7D4;}
	.st5_the-great-wall-64{fill:#EABC9D;}
	.st6_the-great-wall-64{fill:#DDA37C;}
	.st7_the-great-wall-64{fill:#153E42;}
	.st8_the-great-wall-64{fill:#68E1FD;}
	.st9_the-great-wall-64{opacity:0.27;fill:#153E42;enable-background:new    ;}
	.st10_the-great-wall-64{opacity:0.68;fill:url(#SVGID_1_);enable-background:new    ;}
	.st11_the-great-wall-64{fill:#BC532A;}
	.st12_the-great-wall-64{fill:#2C9135;}
	.st13_the-great-wall-64{opacity:0.5;fill:#153E42;enable-background:new    ;}
	.st14_the-great-wall-64{opacity:0.68;fill:url(#SVGID_00000165220473234332320790000009106898246734482867_);enable-background:new    ;}
	.st15_the-great-wall-64{opacity:0.68;fill:url(#SVGID_00000119824917798582660540000015028522705278477231_);enable-background:new    ;}
</style>
<g id="field_the-great-wall-64">
	<path class="st0_the-great-wall-64" d="M243,397.2L23.8,267.6c-7-3.9-13-10.4-6.2-14.6l220-126.8c3.3-2,8.3-3.4,11.7-1.4l230.1,133.6&#10;&#9;&#9;c7,4,8.2,15.4,1.2,19.4L271.9,397C263,402.2,252,402.3,243,397.2z"/>
	<polygon class="st1_the-great-wall-64" points="177.1,174.7 38.9,258.9 127.2,315.3 442.7,283.7 467.6,269.1 322.6,189.3 &#9;"/>
</g>
<g id="great-wall_the-great-wall-64">
	<path class="st2_the-great-wall-64" d="M248.9,136.9c-16.1-7.3-32.7,3.5-49.2,16.9c-18.4,14-47.6,41.8-54.6,56.7c10.2,1.9,44.7,19,54.6,18.5&#10;&#9;&#9;c29.3-1.5,58.3-8.3,58.3-8.3l87.1-20.9C345.1,199.8,273.2,147.9,248.9,136.9z"/>
	<path class="st3_the-great-wall-64" d="M248.9,136.9c-16.1-7.3-32.7,3.5-49.2,16.9c-18.4,14-47.6,41.8-54.6,56.7c10.2,1.9,44.7,19,54.6,18.5&#10;&#9;&#9;c29.3-1.5,58.3-8.3,58.3-8.3l87.1-20.9C345.1,199.8,273.2,147.9,248.9,136.9z"/>
	<polygon class="st4_the-great-wall-64" points="217.9,117 240.5,104.6 246.1,103.1 249.9,106.1 274,118.6 256.7,131.7 243.2,134.5 234.3,131.2 &#10;&#9;&#9;225.4,124.8 &#9;"/>
	<polygon class="st5_the-great-wall-64" points="224.9,124 244.1,112.7 265.4,123.8 252.3,131.7 246.4,133 239.9,132.1 &#9;"/>
	<polygon class="st6_the-great-wall-64" points="226.1,125.2 244.1,114.9 265.4,126 252.3,133.8 246.4,135.2 239.9,134.2 &#9;"/>
	<polygon class="st7_the-great-wall-64" points="225.4,109.8 230.9,112.9 237.7,109.4 231.9,106.1 &#9;"/>
	<path class="st5_the-great-wall-64" d="M225.4,109.8v3.7l5.5,3c0,0-0.1-3.7,0-3.7S225.4,109.8,225.4,109.8z"/>
	<polygon class="st5_the-great-wall-64" points="230.9,116.6 237.7,112.9 237.7,109.4 230.9,112.9 &#9;"/>
	<polygon class="st7_the-great-wall-64" points="237.8,103.1 243.3,106.1 249.9,102.7 244.2,99.4 &#9;"/>
	<path class="st5_the-great-wall-64" d="M237.8,103.1v3.7l5.4,3v-3.6L237.8,103.1z"/>
	<polygon class="st5_the-great-wall-64" points="243.2,109.7 249.9,106.1 249.9,102.7 243.2,106.1 &#9;"/>
	<polygon class="st7_the-great-wall-64" points="262.2,109 256.7,112.1 249.9,108.6 255.7,105.3 &#9;"/>
	<path class="st5_the-great-wall-64" d="M262.2,109v3.7l-5.5,3c0,0,0.1-3.7,0-3.7S262.2,109,262.2,109z"/>
	<polygon class="st5_the-great-wall-64" points="256.7,115.8 249.9,112.1 249.9,108.6 256.7,112.1 &#9;"/>
	<polygon class="st8_the-great-wall-64 targetColor" points="227.9,111.4 230.4,112.7 230.4,125.8 244.9,134.1 260.3,125.5 260.3,115.1 238.5,107.3 &#9;" style="fill: rgb(104, 225, 253);"/>
	<polygon class="st8_the-great-wall-64 targetColor" points="230.4,125.8 244.9,134.1 244.8,118 237.8,107.7 227.9,111.4 230.4,112.7 &#9;" style="fill: rgb(104, 225, 253);"/>
	<polygon class="st9_the-great-wall-64" points="230.4,125.8 244.9,134.1 244.8,118 237.8,107.7 227.9,111.4 230.4,112.7 &#9;"/>
	<path class="st7_the-great-wall-64" d="M252.9,99.1c0,0-4.9,4.2-9.9,3.8l-15,8.6l9.8-3.7L252.9,99.1z"/>
	<path class="st4_the-great-wall-64" d="M247.7,122.3c0,0-7.2-6.8-10-14.6l15.1-8.7c0,0,5,9.8,10,14.6L247.7,122.3z"/>
	<polygon class="st8_the-great-wall-64 targetColor" points="211.9,117.7 218.6,121.6 218.6,125 225.3,128.9 225.3,125.6 232.4,129.5 232.4,132.9 239.1,136.8 &#10;&#9;&#9;239.1,133 246.1,137 251.5,134 251.5,137 259,133 259,129.7 265.6,126.1 265.6,129.4 272,125.8 272,122.5 278.6,118.9 278.6,161.1 &#10;&#9;&#9;246.5,178.6 211.9,159.6 &#9;" style="fill: rgb(104, 225, 253);"/>
	<path class="st7_the-great-wall-64" d="M248.3,159v-9.2c0-0.2,0.7-4.4,3.6-5.8s4.5,0.3,4.7,1s0,9.3,0,9.3L248.3,159z"/>
	<path class="st7_the-great-wall-64" d="M258.2,153.9v-9.2c0-0.2,0.7-4.4,3.6-5.8s4.5,0.3,4.7,1s0,9.3,0,9.3L258.2,153.9z"/>
	<path class="st7_the-great-wall-64" d="M268.4,148.7v-9.2c0-0.2,0.7-4.4,3.6-5.8s4.5,0.3,4.6,1s0,9.3,0,9.3L268.4,148.7z"/>
	<path class="st7_the-great-wall-64" d="M242.2,157.9v-9.2c0-0.2-0.7-4.4-3.6-5.8s-4.5,0.3-4.7,1s0,9.3,0,9.3L242.2,157.9z"/>
	<path class="st7_the-great-wall-64" d="M232.2,152.8v-9.2c0-0.2-0.7-4.4-3.6-5.8s-4.5,0.3-4.6,1s0,9.3,0,9.3L232.2,152.8z"/>
	<path class="st7_the-great-wall-64" d="M222.1,147.6v-9.2c0-0.2-0.7-4.4-3.6-5.8s-4.5,0.3-4.7,1s0,9.3,0,9.3L222.1,147.6z"/>
	<polygon class="st7_the-great-wall-64" points="211.9,117.7 217.1,114.8 223.8,118.6 218.6,121.6 &#9;"/>
	<polygon class="st7_the-great-wall-64" points="218.7,125 223.8,122.2 230.5,126 225.3,128.9 &#9;"/>
	<polygon class="st5_the-great-wall-64" points="218.6,121.6 218.6,125 223.8,122.2 223.8,118.6 &#9;"/>
	<polygon class="st7_the-great-wall-64" points="225.7,125.6 230.8,122.7 237.6,126.5 232.4,129.5 &#9;"/>
	<polygon class="st7_the-great-wall-64" points="232.4,132.9 237.6,130.1 244.3,133.9 239.1,136.8 &#9;"/>
	<polygon class="st5_the-great-wall-64" points="232.4,129.5 232.4,132.9 237.6,130.1 237.6,126.5 &#9;"/>
	<path class="st7_the-great-wall-64" d="M251.7,137c0.1,0,7.3-4,7.3-4l-5-2.9l-4.7,2.6L251.7,137z"/>
	<polygon class="st7_the-great-wall-64" points="239.3,133 244.6,130.1 251.5,134 246.1,137 &#9;"/>
	<polygon class="st5_the-great-wall-64" points="254,130.1 254,126.9 259,129.7 259,133 &#9;"/>
	<polygon class="st7_the-great-wall-64" points="254,126.9 260.5,123.4 265.6,126.1 259,129.7 &#9;"/>
	<polygon class="st7_the-great-wall-64" points="260.4,126.6 267,122.9 272,125.8 265.4,129.4 &#9;"/>
	<polygon class="st5_the-great-wall-64" points="267,122.9 267,119.8 272,122.5 272,125.8 &#9;"/>
	<polygon class="st7_the-great-wall-64" points="267,119.8 273.5,116.2 278.6,118.9 272,122.5 &#9;"/>
	<path class="st4_the-great-wall-64" d="M294.9,178.4l-21.5,14.4c0,0-19.4-14.4-20.6-21s-2.2-8.8-2.2-8.8l21.5-10.4L294.9,178.4z"/>
	<path class="st4_the-great-wall-64" d="M247.8,153l1.7-0.8c0,0,4.7,23.6,27,34.4l0.5,14.9l-17.4-17.6l-8.9-14.1L247.8,153z"/>
	<path class="st8_the-great-wall-64 targetColor" d="M247.8,153c0.2,0.7,6.1,24.4,27.8,34.8v16.6c0,0-23.3-12.4-27.8-29.8V153z" style="fill: rgb(104, 225, 253);"/>
	<path class="st9_the-great-wall-64" d="M247.8,153c0.2,0.7,6.1,24.4,27.8,34.8v16.6c0,0-23.3-12.4-27.8-29.8V153z"/>
	<path class="st4_the-great-wall-64" d="M271,135.2l1.7-0.8c0,0,11.5,21.9,33.8,32.7l-6.3,16.6l-17.4-17.6l-8.9-14.1L271,135.2z"/>
	<path class="st8_the-great-wall-64 targetColor" d="M271,135.2c0.2,0.7,13,22.8,34.7,33.2l2.1,16.1c0,0-31.8-15.9-35.6-29.3L271,135.2z" style="fill: rgb(104, 225, 253);"/>
	<path class="st9_the-great-wall-64" d="M271,135.2c0.2,0.7,13,22.8,34.7,33.2l2.1,16.1c0,0-31.8-15.9-35.6-29.3L271,135.2z"/>
	<path class="st2_the-great-wall-64" d="M127.2,315.3c1.1-1.3,57.8-81.6,79.3-85.3s95.8-38.5,126.9-23.3s109.3,77,109.3,77s-156,97.4-183.9,101.2&#10;&#9;&#9;S127.2,315.3,127.2,315.3z"/>
	<polygon class="st4_the-great-wall-64" points="271.8,172.2 302.2,155.5 309.8,153.5 314.9,157.5 347.3,174.4 324.1,192 305.9,195.8 293.9,191.4 &#10;&#9;&#9;281.9,182.7 &#9;"/>
	<polygon class="st6_the-great-wall-64" points="281.1,181.7 307.1,166.4 335.8,181.4 318.1,192 310.2,193.8 301.4,192.5 &#9;"/>
	<polygon class="st5_the-great-wall-64" points="282.8,183.3 307.1,169.4 335.8,184.4 318.1,194.9 310.2,196.8 301.4,195.4 &#9;"/>
	<polygon class="st7_the-great-wall-64" points="281.9,162.6 289.4,166.7 298.5,162.1 290.6,157.5 &#9;"/>
	<path class="st6_the-great-wall-64" d="M281.9,162.6v5l7.4,4.1c0,0-0.1-5,0-5S281.9,162.6,281.9,162.6z"/>
	<polygon class="st5_the-great-wall-64" points="289.3,171.7 298.5,166.7 298.5,162.1 289.3,166.7 &#9;"/>
	<polygon class="st7_the-great-wall-64" points="298.6,153.5 305.9,157.5 314.9,153 307.2,148.5 &#9;"/>
	<path class="st6_the-great-wall-64" d="M298.6,153.5v5l7.2,4c0,0-0.1-4.9,0-4.9S298.6,153.5,298.6,153.5z"/>
	<polygon class="st5_the-great-wall-64" points="305.9,162.4 314.9,157.5 314.9,153 305.9,157.5 &#9;"/>
	<polygon class="st7_the-great-wall-64" points="331.4,161.5 324,165.6 314.9,161 322.7,156.4 &#9;"/>
	<path class="st5_the-great-wall-64" d="M331.4,161.5v5l-7.4,4.1c0,0,0.1-5,0-5S331.4,161.5,331.4,161.5z"/>
	<polygon class="st6_the-great-wall-64" points="324.1,170.6 314.9,165.6 314.9,161 324.1,165.6 &#9;"/>
	<polygon class="st8_the-great-wall-64 targetColor" points="263.8,173.2 272.7,178.4 272.7,183.1 281.8,188.3 281.8,183.8 291.2,189 291.2,193.7 300.3,198.9 &#10;&#9;&#9;300.3,193.8 309.8,199.2 317,195.1 317,199.2 327.1,193.7 327.1,189.4 336,184.5 336,188.9 344.6,184.1 344.6,179.7 353.6,174.8 &#10;&#9;&#9;353.6,231.6 310.3,255.2 263.8,229.6 &#9;" style="fill: rgb(104, 225, 253);"/>
	<path class="st7_the-great-wall-64" d="M312.7,228.8v-12.4c0-0.2,0.9-5.9,4.9-7.8s6,0.4,6.3,1.4s0,12.5,0,12.5L312.7,228.8z"/>
	<path class="st7_the-great-wall-64" d="M326.1,221.9v-12.4c0-0.2,0.9-5.9,4.9-7.8s6.1,0.4,6.3,1.4s0,12.5,0,12.5L326.1,221.9z"/>
	<path class="st7_the-great-wall-64" d="M339.8,215v-12.4c0-0.2,0.9-5.9,4.8-7.8s6.1,0.4,6.3,1.4s0,12.5,0,12.5L339.8,215z"/>
	<path class="st7_the-great-wall-64" d="M304.5,227.3V215c0-0.2-0.9-5.9-4.9-7.8s-6.1,0.4-6.3,1.4s0,12.5,0,12.5L304.5,227.3z"/>
	<path class="st7_the-great-wall-64" d="M291.1,220.4V208c0-0.2-0.9-5.9-4.8-7.8s-6.1,0.4-6.3,1.4s0,12.5,0,12.5L291.1,220.4z"/>
	<path class="st7_the-great-wall-64" d="M277.4,213.5v-12.4c0-0.2-0.9-5.9-4.9-7.8s-6,0.4-6.3,1.4s0,12.5,0,12.5L277.4,213.5z"/>
	<polygon class="st7_the-great-wall-64" points="263.8,173.2 270.7,169.3 279.8,174.4 272.7,178.4 &#9;"/>
	<polygon class="st7_the-great-wall-64" points="272.8,183.1 279.8,179.2 288.8,184.3 281.8,188.3 &#9;"/>
	<polygon class="st6_the-great-wall-64" points="272.7,178.4 272.7,183.1 279.8,179.2 279.8,174.4 &#9;"/>
	<polygon class="st7_the-great-wall-64" points="282.3,183.8 289.2,179.9 298.3,185 291.2,189 &#9;"/>
	<polygon class="st7_the-great-wall-64" points="291.3,193.7 298.3,189.8 307.3,194.9 300.3,198.9 &#9;"/>
	<polygon class="st6_the-great-wall-64" points="291.2,189 291.2,193.7 298.3,189.8 298.3,185 &#9;"/>
	<path class="st7_the-great-wall-64" d="M317.2,199.2c0.1,0,9.8-5.4,9.8-5.4l-6.7-3.9l-6.4,3.6L317.2,199.2z"/>
	<polygon class="st7_the-great-wall-64" points="300.6,193.8 307.7,189.8 317,195.1 309.8,199.2 &#9;"/>
	<polygon class="st6_the-great-wall-64" points="320.4,189.8 320.4,185.6 327.1,189.4 327.1,193.7 &#9;"/>
	<polygon class="st7_the-great-wall-64" points="320.4,185.6 329.1,180.8 336,184.5 327.1,189.4 &#9;"/>
	<polygon class="st7_the-great-wall-64" points="329,185.2 337.9,180.1 344.6,184.1 335.7,188.9 &#9;"/>
	<polygon class="st6_the-great-wall-64" points="337.9,180.1 337.9,175.9 344.6,179.7 344.6,184.1 &#9;"/>
	<polygon class="st7_the-great-wall-64" points="337.9,175.9 346.7,171.1 353.6,174.8 344.6,179.7 &#9;"/>
	<path class="st4_the-great-wall-64" d="M242.8,257.5l28.2,18.9c0,0,25.5-18.9,27.1-27.5s2.8-11.5,2.8-11.5l-28.2-13.7L242.8,257.5z"/>
	<path class="st4_the-great-wall-64" d="M304.6,224.1l-2.2-1.1c0,0-6.2,31-35.4,45.1l-0.7,19.6l22.9-23.1l11.6-18.5L304.6,224.1z"/>
	<path class="st8_the-great-wall-64 targetColor" d="M304.6,224.1c-0.3,0.9-8,32-36.5,45.6v21.8c0,0,30.6-16.3,36.5-39.1V224.1z" style="fill: rgb(104, 225, 253);"/>
	<path class="st9_the-great-wall-64" d="M304.6,224.1c-0.3,0.9-8,32-36.5,45.6v21.8c0,0,30.6-16.3,36.5-39.1V224.1z"/>
	<path class="st4_the-great-wall-64" d="M274.1,200.8l-2.2-1.1c0,0-15.1,28.8-44.3,43l8.3,21.7l22.9-23.1l11.6-18.5L274.1,200.8z"/>
	<path class="st8_the-great-wall-64 targetColor" d="M274.1,200.8c-0.3,0.9-17,30-45.5,43.6l-2.7,21.1c0,0,41.8-20.8,46.7-38.5L274.1,200.8z" style="fill: rgb(104, 225, 253);"/>
	<path class="st9_the-great-wall-64" d="M274.1,200.8c-0.3,0.9-17,30-45.5,43.6l-2.7,21.1c0,0,41.8-20.8,46.7-38.5L274.1,200.8z"/>
	<polygon class="st4_the-great-wall-64" points="180.5,264.9 214.8,246 223.3,243.7 229.1,248.3 265.6,267.4 239.4,287.2 218.9,291.4 205.4,286.5 &#10;&#9;&#9;191.9,276.7 &#9;"/>
	<polygon class="st5_the-great-wall-64" points="191,275.6 220.3,258.4 252.7,275.2 232.7,287.2 223.8,289.2 213.9,287.8 &#9;"/>
	<polygon class="st6_the-great-wall-64" points="192.9,277.4 220.3,261.7 252.7,278.6 232.7,290.5 223.8,292.5 213.9,291.1 &#9;"/>
	<polygon class="st7_the-great-wall-64" points="191.9,254 200.3,258.7 210.5,253.4 201.7,248.3 &#9;"/>
	<path class="st5_the-great-wall-64" d="M191.9,254v5.7l8.3,4.6c0,0-0.1-5.6,0-5.6S191.9,254,191.9,254z"/>
	<polygon class="st5_the-great-wall-64" points="200.2,264.3 210.5,258.7 210.5,253.4 200.2,258.7 &#9;"/>
	<polygon class="st7_the-great-wall-64" points="210.7,243.7 219,248.3 229.1,243.2 220.4,238.1 &#9;"/>
	<path class="st5_the-great-wall-64" d="M210.7,243.7v5.6l8.1,4.5c0,0-0.1-5.5,0-5.5S210.7,243.7,210.7,243.7z"/>
	<polygon class="st5_the-great-wall-64" points="218.9,253.8 229.1,248.3 229.1,243.2 218.9,248.3 &#9;"/>
	<polygon class="st7_the-great-wall-64" points="247.7,252.8 239.3,257.5 229.1,252.2 237.9,247.1 &#9;"/>
	<path class="st5_the-great-wall-64" d="M247.7,252.8v5.7l-8.3,4.5c0,0,0.1-5.6,0-5.6S247.7,252.8,247.7,252.8z"/>
	<polygon class="st5_the-great-wall-64" points="239.4,263 229.1,257.5 229.1,252.2 239.4,257.5 &#9;"/>
	<polygon class="st8_the-great-wall-64 targetColor" points="171.4,266 181.5,271.9 181.5,277.1 191.7,283 191.7,277.9 202.4,283.8 202.4,289.1 212.6,295 &#10;&#9;&#9;212.6,289.2 223.4,295.3 231.5,290.7 231.5,295.3 242.8,289.1 242.8,284.2 252.9,278.8 252.9,283.7 262.6,278.2 262.6,273.3 &#10;&#9;&#9;272.7,267.8 272.7,331.8 223.9,358.5 171.4,329.6 &#9;" style="fill: rgb(104, 225, 253);"/>
	<path class="st7_the-great-wall-64" d="M226.6,328.7v-13.9c0-0.2,1.1-6.7,5.5-8.8s6.8,0.4,7.1,1.5s0,14.1,0,14.1L226.6,328.7z"/>
	<path class="st7_the-great-wall-64" d="M241.7,320.9V307c0-0.2,1-6.7,5.5-8.8s6.8,0.4,7.1,1.5s0,14.1,0,14.1L241.7,320.9z"/>
	<path class="st7_the-great-wall-64" d="M257.2,313.1v-13.9c0-0.2,1-6.7,5.5-8.8s6.8,0.4,7.1,1.5s0,14.1,0,14.1L257.2,313.1z"/>
	<path class="st7_the-great-wall-64" d="M217.3,327v-13.9c0-0.2-1.1-6.7-5.5-8.8s-6.8,0.4-7.1,1.5s0,14.1,0,14.1L217.3,327z"/>
	<path class="st7_the-great-wall-64" d="M202.2,319.2v-13.9c0-0.2-1.1-6.7-5.5-8.8s-6.8,0.4-7.1,1.5s0,14.1,0,14.1L202.2,319.2z"/>
	<path class="st7_the-great-wall-64" d="M186.8,311.5v-13.9c0-0.2-1-6.7-5.5-8.8s-6.8,0.4-7.1,1.5s0,14.1,0,14.1L186.8,311.5z"/>
	<polygon class="st7_the-great-wall-64" points="171.4,266 179.2,261.6 189.5,267.4 181.5,271.9 &#9;"/>
	<polygon class="st7_the-great-wall-64" points="181.6,277.1 189.4,272.8 199.7,278.5 191.7,283 &#9;"/>
	<polygon class="st5_the-great-wall-64" points="181.5,271.9 181.5,277.1 189.4,272.8 189.4,267.4 &#9;"/>
	<polygon class="st7_the-great-wall-64" points="192.3,277.9 200.1,273.6 210.3,279.3 202.4,283.8 &#9;"/>
	<polygon class="st7_the-great-wall-64" points="202.5,289.1 210.3,284.7 220.5,290.5 212.6,295 &#9;"/>
	<polygon class="st5_the-great-wall-64" points="202.4,283.8 202.4,289.1 210.3,284.7 210.3,279.3 &#9;"/>
	<path class="st7_the-great-wall-64" d="M231.7,295.3c0.1,0,11.1-6.1,11.1-6.1l-7.6-4.4l-7.1,4L231.7,295.3z"/>
	<polygon class="st7_the-great-wall-64" points="212.9,289.2 221,284.7 231.5,290.7 223.4,295.3 &#9;"/>
	<polygon class="st5_the-great-wall-64" points="235.3,284.7 235.3,280 242.8,284.2 242.8,289.1 &#9;"/>
	<polygon class="st7_the-great-wall-64" points="235.3,280 245.2,274.6 252.9,278.8 242.8,284.2 &#9;"/>
	<polygon class="st7_the-great-wall-64" points="245,279.5 255.1,273.8 262.6,278.2 252.6,283.7 &#9;"/>
	<polygon class="st5_the-great-wall-64" points="255.1,273.8 255.1,269.1 262.6,273.3 262.6,278.2 &#9;"/>
	<polygon class="st7_the-great-wall-64" points="255.1,269.1 265,263.7 272.7,267.8 262.6,273.3 &#9;"/>
	<polygon class="st8_the-great-wall-64 targetColor" points="192.5,249.3 196.6,251.3 196.6,273.6 221.2,287.7 247.3,273 247.3,255.5 210.4,242.2 &#9;" style="fill: rgb(104, 225, 253);"/>
	<polygon class="st8_the-great-wall-64 targetColor" points="196.6,273.6 221.2,287.7 221,260.3 209.1,242.9 192.5,249.3 196.6,251.3 &#9;" style="fill: rgb(104, 225, 253);"/>
	<polygon class="st9_the-great-wall-64" points="196.6,273.6 221.2,287.7 221,260.3 209.1,242.9 192.5,249.3 196.6,251.3 &#9;"/>
	<path class="st7_the-great-wall-64" d="M234.7,228.3c0,0-8.2,7.2-16.7,6.5l-25.6,14.5l16.6-6.3L234.7,228.3z"/>
	<path class="st4_the-great-wall-64" d="M226,267.6c0,0-12.2-11.5-16.9-24.6l25.6-14.7c0,0,8.5,16.6,16.9,24.8L226,267.6z"/>
</g>
<g id="trees_the-great-wall-64">
	
		<linearGradient id="SVGID_1_-the-great-wall-64" gradientUnits="userSpaceOnUse" x1="112.8898" y1="246.9002" x2="96.3998" y2="231.2202" gradientTransform="matrix(1 0 0 -1 0 502)">
		<stop offset="0" style="stop-color:#153E42"/>
		<stop offset="1" style="stop-color:#FFE7D4"/>
	</linearGradient>
	<path class="st10_the-great-wall-64" d="M115.1,263.3l-3.4-4.4l-25.8,11.6c2.5,1.3,6.2,3.5,9.7,5.6C102.6,272.5,108.6,267.7,115.1,263.3z"/>
	<path class="st11_the-great-wall-64" d="M111,221.7h2.3c1.1,0,2,0.9,2,2v38.1c0,1.1-0.9,2-2,2H111c-1.1,0-2-0.9-2-2v-38.1&#10;&#9;&#9;C108.9,222.6,109.8,221.7,111,221.7z"/>
	<path class="st12_the-great-wall-64" d="M127.8,230.3c-1.5-6.4-8-34.4-19.5-26.1c-5.9,4.2-7.6,10.8-10,17.2c-2,5.3-3.6,11-3.7,16.7&#10;&#9;&#9;c-0.2,11.6,11.7,13.1,20.7,13c5.2,0,12.7-3.1,13.9-8.8c0.7-3.4-0.5-7.5-1.2-10.8C128,231.1,127.9,230.7,127.8,230.3z"/>
	<path class="st13_the-great-wall-64" d="M128.4,231.5c-0.1-0.4-0.2-0.8-0.3-1.2c-1.3-5.6-6.5-28.2-15.7-27.6c2.7,11.9,6.7,24.4,4.6,36.6&#10;&#9;&#9;c-0.7,4.2-2.3,8.3-4.8,11.8c1.2,0.1,2.4,0.1,3.6,0.1c5.2,0,12.7-3.1,13.9-8.8C130.4,238.9,129.1,234.9,128.4,231.5z"/>
	
		<linearGradient id="SVGID_00000068660502125103333180000001877599331569486466_-the-great-wall-64" gradientUnits="userSpaceOnUse" x1="150.7295" y1="268.4205" x2="139.0895" y2="257.3505" gradientTransform="matrix(1 0 0 -1 0 502)">
		<stop offset="0" style="stop-color:#153E42"/>
		<stop offset="1" style="stop-color:#FFE7D4"/>
	</linearGradient>
	<path style="opacity:0.68;fill:url(#SVGID_00000068660502125103333180000001877599331569486466_);enable-background:new    ;" d="&#10;&#9;&#9;M152.3,239.4l-2.4-3.1l-18.2,8.2c1.8,0.9,4.4,2.5,6.9,3.9C143.5,245.9,147.7,242.5,152.3,239.4z"/>
	<path class="st11_the-great-wall-64" d="M149.7,210h0.9c1,0,1.8,0.8,1.8,1.8v26.2c0,1-0.8,1.8-1.8,1.8h-0.9c-1,0-1.8-0.8-1.8-1.8v-26.2&#10;&#9;&#9;C147.9,210.8,148.7,210,149.7,210z"/>
	<path class="st12_the-great-wall-64" d="M161.3,216.1c-1-4.5-5.6-24.3-13.8-18.5c-4.2,3-5.4,7.6-7,12.2c-1.5,3.8-2.4,7.7-2.6,11.8&#10;&#9;&#9;c-0.1,8.2,8.2,9.2,14.6,9.2c3.7,0,9-2.2,9.8-6.2c0.5-2.4-0.4-5.3-0.9-7.6C161.4,216.6,161.3,216.3,161.3,216.1z"/>
	<path class="st13_the-great-wall-64" d="M161.7,216.9c-0.1-0.3-0.1-0.6-0.2-0.9c-0.9-4-4.6-19.9-11.1-19.5c1.9,8.4,4.8,17.3,3.2,25.9&#10;&#9;&#9;c-0.5,3-1.7,5.9-3.4,8.3c0.9,0,1.7,0.1,2.5,0.1c3.7,0,9-2.2,9.8-6.2C163.1,222.1,162.2,219.3,161.7,216.9z"/>
	<g id="trees-2_the-great-wall-64">
		
			<linearGradient id="SVGID_00000165210469470830017060000005241159487809035941_-the-great-wall-64" gradientUnits="userSpaceOnUse" x1="391.153" y1="227.5674" x2="383.033" y2="219.8474" gradientTransform="matrix(1 0 0 -1 0 502)">
			<stop offset="0" style="stop-color:#153E42"/>
			<stop offset="1" style="stop-color:#FFE7D4"/>
		</linearGradient>
		<path style="opacity:0.68;fill:url(#SVGID_00000165210469470830017060000005241159487809035941_);enable-background:new    ;" d="&#10;&#9;&#9;&#9;M392.2,278.5l-1.7-2.1l-12.7,5.7c1.2,0.6,3,1.7,4.8,2.7C386,282.9,389.2,280.8,392.2,278.5z"/>
		<path class="st11_the-great-wall-64" d="M390.5,258h0.7c0.7,0,1.2,0.6,1.2,1.2v18.3c0,0.7-0.6,1.2-1.2,1.2h-0.7c-0.7,0-1.2-0.6-1.2-1.2v-18.3&#10;&#9;&#9;&#9;C389.2,258.5,389.8,258,390.5,258z"/>
		<path class="st12_the-great-wall-64" d="M398.5,262.2c-0.7-3.1-3.9-16.9-9.6-12.9c-2.9,2.1-3.7,5.3-4.9,8.5c-1.1,2.6-1.7,5.4-1.8,8.2&#10;&#9;&#9;&#9;c-0.1,5.7,5.8,6.4,10.2,6.4c2.6,0,6.2-1.5,6.9-4.3c0.4-1.7-0.2-3.7-0.6-5.3C398.6,262.6,398.6,262.4,398.5,262.2z"/>
		<path class="st13_the-great-wall-64" d="M398.8,262.8c0-0.2-0.1-0.4-0.1-0.6c-0.6-2.8-3.2-13.9-7.8-13.6c1.4,5.9,3.3,12,2.3,18&#10;&#9;&#9;&#9;c-0.3,2.1-1.2,4.1-2.4,5.8c0.6,0,1.2,0,1.8,0c2.6,0,6.3-1.5,6.9-4.3C399.8,266.5,399.1,264.5,398.8,262.8z"/>
	</g>
</g>
</svg>