<svg id="_0220_car" data-name="0220_car" xmlns="http://www.w3.org/2000/svg" xmlns:xlink="http://www.w3.org/1999/xlink" viewBox="0 0 500 500" data-imageid="car-79" imageName="Car" class="illustrations_image" style="width: 188px;"><defs><style>.cls-1_car-79{fill:#8997e8;}.cls-2_car-79{fill:#a2b3f9;}.cls-3_car-79{fill:url(#linear-gradient);}.cls-4_car-79{fill:#68e1fd;}.cls-5_car-79,.cls-8_car-79{fill:#2e3192;}.cls-5_car-79{isolation:isolate;opacity:0.33;}.cls-6_car-79{fill:#d7fbff;}.cls-7_car-79{fill:#a8ebef;}.cls-9_car-79{fill:#ddd;}.cls-10_car-79{fill:url(#linear-gradient-2-car-79);}.cls-11_car-79{fill:#bc532a;}.cls-12_car-79{fill:#2c9135;}.cls-13_car-79{fill:#156819;}.cls-14_car-79{fill:url(#linear-gradient-3-car-79);}.cls-15_car-79{fill:url(#linear-gradient-4-car-79);}</style><linearGradient id="linear-gradient-car-79" x1="135.23" y1="1788.35" x2="277.95" y2="1893.62" gradientTransform="matrix(1, 0, 0, -1, 0, 2140.89)" gradientUnits="userSpaceOnUse"><stop offset="0" stop-color="#8997e8"/><stop offset="1" stop-color="#2e3192"/></linearGradient><linearGradient id="linear-gradient-2-car-79" x1="243.93" y1="1955.72" x2="276.01" y2="1979.39" xlink:href="#linear-gradient-car-79"/><linearGradient id="linear-gradient-3-car-79" x1="217.11" y1="1951.38" x2="240.29" y2="1968.48" xlink:href="#linear-gradient-car-79"/><linearGradient id="linear-gradient-4-car-79" x1="380.71" y1="1852.54" x2="412.79" y2="1876.21" xlink:href="#linear-gradient-car-79"/></defs><g id="road_car-79"><path class="cls-1_car-79" d="M482,238.16,299.52,132a8.62,8.62,0,0,0-8.62,0L18,288.28a8.6,8.6,0,0,0,0,15L192.52,404a28.21,28.21,0,0,0,28.16,0L482,253.12a8.62,8.62,0,0,0,0-15Z"/><path class="cls-2_car-79" d="M171.45,391.61l-9.31-5.38L451,219.45l10,5.79L171.45,391.61"/><path class="cls-2_car-79" d="M46.19,319l-9.31-5.38L325.73,146.82l10,5.79L46.19,319"/><polygon class="cls-2_car-79" points="317.36 183.51 348.39 165.68 338.43 159.88 307.43 177.78 317.36 183.51"/><polygon class="cls-2_car-79" points="336.21 194.74 367.25 176.91 357.29 171.1 326.29 189 336.21 194.74"/><polygon class="cls-2_car-79" points="352.87 204.44 383.91 186.62 373.93 180.81 342.94 198.71 352.87 204.44"/><polygon class="cls-2_car-79" points="370.71 215.64 401.74 197.81 391.77 192 360.78 209.9 370.71 215.64"/><polygon class="cls-2_car-79" points="388.62 225.81 419.66 207.97 409.69 202.18 378.69 220.08 388.62 225.81"/><polygon class="cls-2_car-79" points="407.25 237.62 438.29 219.79 428.32 213.99 397.32 231.89 407.25 237.62"/></g><g id="car_car-79"><polygon class="cls-3_car-79" points="71.43 334.06 154.73 286.37 232.72 239.9 264.22 221.44 330.26 274.22 147.35 378.11 71.43 334.06"/><path class="cls-4_car-79 targetColor" d="M140,277.82l8.25-13.91c9-7.06,31.38-23.69,31.38-23.69,6.46-8.12,24.25-25.84,24.25-25.84,12.65-9.3,59.88-34.44,63.43-34.88s15.93,2.33,17.84,2.47,7.69-3.77,7.69-3.77c17.15,1.42,33.92,15.48,41.92,21.57a21.52,21.52,0,0,1,8.15,15.61s.85,29.38.36,30.93-5.25,4.92-5.25,4.92.16-16.56-11.82-10.69-14.58,26.3-15.68,27.34-59.68,34.93-72.65,42.43c.13-3.69-.34-7.45-3.11-10.1-3.22-3.07-8-2.67-11.79-1.12a20.67,20.67,0,0,0-9.57,7.6c-3.44,4.24-5.1,9.84-5.93,15.14-.09.66-.45,9.84-.6,9.84-31.59,10.35-66.6-27.58-67.3-30.55S140,277.82,140,277.82Z" style="fill: rgb(104, 225, 253);"/><path class="cls-5_car-79" d="M139.94,277.86,148.2,264c9-7.06,31.38-23.7,31.38-23.7,6.46-8.12,24.25-25.83,24.25-25.83,12.65-9.3,59.87-34.45,63.43-34.88s15.93,2.33,17.84,2.46,7.69-3.76,7.69-3.76c17.15,1.41,33.91,15.47,41.92,21.56a21.56,21.56,0,0,1,8.15,15.62s.85,29.37.35,30.92-5.24,4.92-5.24,4.92.16-16.55-11.82-10.69-14.55,26.28-15.66,27.35-59.68,34.93-72.64,42.43c.12-3.69-.35-7.45-3.12-10.1-3.22-3.07-8-2.67-11.78-1.12a20.6,20.6,0,0,0-9.57,7.59c-3.45,4.25-5.11,9.84-5.93,15.15-.1.66-.46,9.84-.61,9.84-31.59,10.34-66.6-27.58-67.3-30.55S139.94,277.86,139.94,277.86Z"/><path class="cls-5_car-79" d="M164.88,305.12c11.81,7.5,24,10.78,44.53,8-.36,1.46-1.72,7.24-1.95,8.69-.1.67-.46,9.85-.6,9.85-31.6,10.34-66.61-27.59-67.31-30.55-.64-2.74.27-20.27.42-23C145.64,289.93,147,293.82,164.88,305.12Z"/><path class="cls-6_car-79" d="M151.5,298.22s-.18,4.75-.09,4.84a66,66,0,0,0,18.29,11.13l.09-4.63S158.83,304.22,151.5,298.22Z"/><path class="cls-7_car-79" d="M208.15,215.54c-2.46-2.35-24.36,22-25.74,25.29s-3.41,5.39,1.13,10.43,30.19,20.07,35.29,21.31,7.86,3.95,14.76-2.36,17.27-26.93,17.27-26.93S220.57,227.5,208.15,215.54Z"/><path class="cls-8_car-79" d="M183.8,235.9s-4.85-4.1-8.12-2.62,3.95,7,3.95,7Z"/><ellipse class="cls-8_car-79" cx="325.84" cy="258.54" rx="20.22" ry="13.52" transform="translate(-48.74 439.38) rotate(-64.2)"/><ellipse class="cls-9_car-79" cx="327.18" cy="258.62" rx="11" ry="7.36" transform="translate(-48.06 440.63) rotate(-64.2)"/><path class="cls-7_car-79" d="M179.32,309.92a6.09,6.09,0,0,1-2.46-1.39c-1.23-1.35-.38-3.11.59-4.35a6.41,6.41,0,0,1,3.78-2.3,82.4,82.4,0,0,1,9.05-1.83c2-.29,4.08-.54,6.16-.68a23.45,23.45,0,0,1,6.64.07c2.3.49,1.76,3.46,1,5a15.64,15.64,0,0,1-6.15,5.79,14,14,0,0,1-5.81,1.78,27.14,27.14,0,0,1-6.49-.5,37,37,0,0,1-4.68-1.11C180.38,310.25,179.85,310.11,179.32,309.92Z"/><path class="cls-7_car-79" d="M140,277.82s3.82,7.51,6.07,9.42,3.34.61,3.62-1.3-1.13-22-1.45-22S142.38,266.65,140,277.82Z"/><path class="cls-7_car-79" d="M154.19,284.15c.68.32,1.43,1,2,1.23q5.72,3.47,11.4,7l5.68,3.53c1.23.78,4,1.71,2.78,3.56a24.27,24.27,0,0,1-4.73,5c-1.23,1.06-2.27,1.39-3.79.49-2.78-1.62-5.56-3.22-8.33-4.92-2.13-1.23-4.56-2.84-5.23-5.41a48.19,48.19,0,0,1-1.43-8.17c-.07-.92-.23-2.84,1.23-2.6A2,2,0,0,1,154.19,284.15Z"/><path class="cls-7_car-79" d="M188.4,323.9a2.33,2.33,0,0,1,1.68,2.19c0,2.35-2.14,2.24-3.79,2.3-2.06.08-20.52-6.15-32.54-15.58s-14.09-17.41-14.09-17.41l.11-6.15s2.94,12.79,18.7,22.15A115.88,115.88,0,0,0,178.93,321q3.31,1.18,6.7,2.13A20.36,20.36,0,0,1,188.4,323.9Z"/><path class="cls-7_car-79" d="M311.23,207.92l13.1.81s1.88.72.78-2.46-13.78-16.07-30.64-20c0,0-23.37-4-19-2.38C277.89,184.86,296.92,193.85,311.23,207.92Z"/><path class="cls-7_car-79" d="M310.5,229.39c4.28-3,8.61-6,12.77-9.15a21.64,21.64,0,0,0-7.66-2.46,36.72,36.72,0,0,0-4.92,0Z"/><path class="cls-7_car-79" d="M281.69,226.23a80,80,0,0,0-24.6,18.45,92.91,92.91,0,0,0-16.42,27.55,1.92,1.92,0,0,0,2.8,2.32c7.32-4.56,21.81-13.64,32.25-20.36l2.62-1.68v-.19l2.93-2.09Z"/><path class="cls-7_car-79" d="M306.63,218.11a67.68,67.68,0,0,0-11.27,2.58c-2.65.84-5.28,1.82-7.88,2.91l-.41,22.51L305.42,233l.94-.66Z"/><ellipse class="cls-8_car-79" cx="222.88" cy="316.73" rx="20.91" ry="13.64" transform="translate(-159.29 379.54) rotate(-64.2)"/><ellipse class="cls-9_car-79" cx="224.1" cy="316.74" rx="11.38" ry="7.42" transform="translate(-158.6 380.64) rotate(-64.2)"/><polygon class="cls-6_car-79" points="222.41 273.62 220.07 225.1 215.06 221.34 217.32 272.29 222.41 273.62"/><polygon class="cls-6_car-79" points="204.67 216.9 207.93 267.37 198.45 261.84 197.32 223.52 204.67 216.9"/></g><g id="tree3_car-79"><path class="cls-10_car-79" d="M236,189a4.43,4.43,0,0,1-1.61-6,4.56,4.56,0,0,1,1-1.22c.78-.63,1.43-1.16,1.77-1.38a116.71,116.71,0,0,1,26.32-12l15.61-4.92,6.15.71a346.5,346.5,0,0,1-42.64,28.67Z"/><rect class="cls-11_car-79" x="277.72" y="115.04" width="7.63" height="50.54" rx="1.55"/><path class="cls-12_car-79" d="M300.34,125.39C298.58,117.76,290.78,84.16,277,94c-7.09,5.06-9.09,13-11.94,20.71-2.35,6.41-4.29,13.15-4.4,20-.25,14,13.95,15.69,24.85,15.64,6.27,0,15.23-3.69,16.69-10.55.89-4.1-.62-8.95-1.5-13C300.57,126.38,300.46,125.88,300.34,125.39Z"/><path class="cls-13_car-79" d="M301,126.86c-.11-.49-.22-1-.34-1.48-1.55-6.75-7.83-33.8-18.84-33.13,3.27,14.25,8.08,29.32,5.51,43.91a33.36,33.36,0,0,1-5.82,14.14c1.46.07,2.9.1,4.29.09,6.28,0,15.23-3.7,16.7-10.55C303.39,135.73,301.89,130.89,301,126.86Z"/></g><g id="tree2_car-79"><path class="cls-14_car-79" d="M211.35,192.27a3.19,3.19,0,0,1-1.15-4.37,3.23,3.23,0,0,1,.74-.87l1.23-1a83.86,83.86,0,0,1,19.06-8.61c3.76-1.23,9.25-3.18,13-4.35l2.72,1.36a249.87,249.87,0,0,1-30.75,20.71Z"/><rect class="cls-11_car-79" x="243.06" y="144.22" width="4.6" height="30.53" rx="1.55"/><path class="cls-12_car-79" d="M256.73,150.47c-1.06-4.6-5.78-24.91-14.14-18.94-4.28,3.05-5.5,7.83-7.21,12.51a37.42,37.42,0,0,0-2.63,12.09c-.13,8.45,8.45,9.49,15,9.45,3.78,0,9.2-2.25,10.08-6.37.53-2.46-.38-5.42-.91-7.84Z"/><path class="cls-13_car-79" d="M257.14,151.36l-.2-.9c-.94-4.07-4.74-20.42-11.38-20,2,8.62,4.92,17.72,3.33,26.54a20.08,20.08,0,0,1-3.52,8.54H248c3.79,0,9.2-2.25,10.09-6.38C258.59,156.72,257.66,153.79,257.14,151.36Z"/></g><g id="tree1_car-79"><path class="cls-15_car-79" d="M372.75,292.21a4.41,4.41,0,0,1-.55-7.26c.77-.63,1.43-1.16,1.77-1.38a116.59,116.59,0,0,1,26.36-12l15.61-4.92,6.16.72A347.18,347.18,0,0,1,379.46,296Z"/><rect class="cls-11_car-79" x="415.61" y="221.57" width="6.99" height="46.33" rx="1.55"/><path class="cls-12_car-79" d="M436.35,231c-1.61-7-8.77-37.81-21.45-28.75-6.5,4.64-8.34,11.89-10.94,19a56.54,56.54,0,0,0-4,18.32c-.21,12.82,12.83,14.38,22.81,14.34,5.75,0,14-3.42,15.3-9.67.81-3.76-.57-8.2-1.38-11.89C436.56,231.94,436.46,231.5,436.35,231Z"/><path class="cls-13_car-79" d="M437,232.4c-.1-.45-.2-.9-.31-1.36-1.43-6.15-7.18-31-17.22-30.39,3,13.08,7.38,26.9,5.05,40.28a30.59,30.59,0,0,1-5.33,12.95c1.34.07,2.65.09,3.93.09,5.76,0,14-3.42,15.31-9.67C439.15,240.54,437.77,236.1,437,232.4Z"/></g></svg>