<svg version="1.1" id="Layer_1" xmlns="http://www.w3.org/2000/svg" xmlns:xlink="http://www.w3.org/1999/xlink" x="0px" y="0px" viewBox="0 0 500 500" style="width: 188px;" xml:space="preserve" data-imageid="easter-bunny-12" imageName="Easter Bunny" class="illustrations_image">
<style type="text/css">
	.st0_easter-bunny-12{fill:#F7CE21;}
	.st1_easter-bunny-12{fill:url(#SVGID_1_);}
	.st2_easter-bunny-12{fill:url(#SVGID_00000092443180560706826660000011973959284755685813_);}
	.st3_easter-bunny-12{fill:url(#SVGID_00000135681474552787490150000008949504687888371374_);}
	.st4_easter-bunny-12{fill:url(#SVGID_00000113344133232669357590000009632948376248236467_);}
	.st5_easter-bunny-12{fill:#BC532A;}
	.st6_easter-bunny-12{fill:#2C9135;}
	.st7_easter-bunny-12{fill:#156819;}
	.st8_easter-bunny-12{fill:#F49A22;}
	.st9_easter-bunny-12{fill:#994A22;}
	.st10_easter-bunny-12{fill:#68E1FD;}
	.st11_easter-bunny-12{opacity:0.29;fill:#606060;enable-background:new    ;}
	.st12_easter-bunny-12{fill:#171918;}
</style>
<g id="background_easter-bunny-12">
	<path class="st0_easter-bunny-12" d="M243.5,413.2l-226-133.6c-7.2-4-13.4-10.7-6.4-15L238,133.9c3.4-2.1,8.6-3.5,12-1.5l237.2,137.7&#10;&#9;&#9;c7.2,4.2,8.5,15.9,1.3,20L273.3,413C264.1,418.3,252.8,418.4,243.5,413.2z"/>
	
		<linearGradient id="SVGID_1_-easter-bunny-12" gradientUnits="userSpaceOnUse" x1="212.228" y1="145.6352" x2="237.088" y2="187.0652" gradientTransform="matrix(1 0 0 -1 0 502)">
		<stop offset="0" style="stop-color:#F7CE21"/>
		<stop offset="0.99" style="stop-color:#FF8F30"/>
	</linearGradient>
	<path class="st1_easter-bunny-12" d="M115.7,333.4c1.6-0.3,60.3,27.6,60.9,28.3c-1.1,10.9,6.7,5.5,10.1,8.3c0.9-0.4,41.4,23.5,42.4,23.1&#10;&#9;&#9;c6-6,100.2-52.2,106.3-58c-2.1-1.5-158-17-160-18.6C165.5,320.6,124.7,327.6,115.7,333.4z"/>
	
		<linearGradient id="SVGID_00000034784052509736908920000016268362456286826426_-easter-bunny-12" gradientUnits="userSpaceOnUse" x1="63.2003" y1="215.0403" x2="75.7703" y2="228.4003" gradientTransform="matrix(1 0 0 -1 0 502)">
		<stop offset="0" style="stop-color:#F7CE21"/>
		<stop offset="0.99" style="stop-color:#FF8F30"/>
	</linearGradient>
	<path style="fill:url(#SVGID_00000034784052509736908920000016268362456286826426_);" d="M53.6,284.1c1.6-0.3,2.8-0.2,3.5,0.5&#10;&#9;&#9;c-1.1,10.9,6.7,5.5,10.1,8.3l3-1.2c5.9-6,9.8-10,15.8-15.9c-2.1-1.5-2-4.9-4-6.5C72.1,273.4,62.6,278.4,53.6,284.1z"/>
	
		<linearGradient id="SVGID_00000117664836911715887400000018335352367150550443_-easter-bunny-12" gradientUnits="userSpaceOnUse" x1="121.3722" y1="239.6579" x2="133.9322" y2="253.0179" gradientTransform="matrix(1 0 0 -1 0 502)">
		<stop offset="0" style="stop-color:#F7CE21"/>
		<stop offset="0.99" style="stop-color:#FF8F30"/>
	</linearGradient>
	<path style="fill:url(#SVGID_00000117664836911715887400000018335352367150550443_);" d="M111.8,259.5c1.6-0.3,2.8-0.2,3.4,0.5&#10;&#9;&#9;c-1.1,10.9,6.7,5.5,10.1,8.3l2.9-1.2c6-6,9.8-10,15.9-15.9c-2.1-1.5-1.9-4.9-3.9-6.5C130.3,248.8,120.8,253.8,111.8,259.5z"/>
	
		<linearGradient id="SVGID_00000026879708165771083060000017042757261807201463_-easter-bunny-12" gradientUnits="userSpaceOnUse" x1="395.6672" y1="215.172" x2="408.2272" y2="228.532" gradientTransform="matrix(1 0 0 -1 0 502)">
		<stop offset="0" style="stop-color:#F7CE21"/>
		<stop offset="0.99" style="stop-color:#FF8F30"/>
	</linearGradient>
	<path style="fill:url(#SVGID_00000026879708165771083060000017042757261807201463_);" d="M386.1,284c1.6-0.3,2.8-0.2,3.5,0.5&#10;&#9;&#9;c-1.1,10.9,6.7,5.5,10.1,8.3l2.9-1.2c6-6,9.8-10,15.9-15.9c-2.1-1.5-2-4.9-4-6.5C404.6,273.3,395.1,278.3,386.1,284z"/>
</g>
<g id="plant_easter-bunny-12">
	<path class="st5_easter-bunny-12" d="M78.8,210.3h4.8c1.5,0,2.6,1.2,2.6,2.6v61.6c0,1.5-1.2,2.6-2.6,2.6h-4.8c-1.5,0-2.6-1.2-2.6-2.6v-61.6&#10;&#9;&#9;C76.2,211.5,77.4,210.3,78.8,210.3z"/>
	<path class="st6_easter-bunny-12" d="M106.1,224c-2.3-10.1-12.6-54.5-30.9-41.4c-9.4,6.7-12,17.1-15.8,27.4c-3.1,8.5-5.7,17.4-5.8,26.5&#10;&#9;&#9;c-0.3,18.5,18.5,20.8,32.9,20.7c8.3,0,20.1-4.9,22.1-13.9c1.2-5.4-0.8-11.8-2-17.2C106.4,225.3,106.3,224.6,106.1,224z"/>
	<path class="st7_easter-bunny-12" d="M107,225.9c-0.1-0.6-0.3-1.3-0.4-2c-2.1-8.9-10.4-44.7-24.9-43.8C86,199,92.3,219,89,238.2&#10;&#9;&#9;c-1.1,6.7-3.7,13.1-7.7,18.7c1.9,0.1,3.8,0.1,5.7,0.1c8.3,0,20.1-4.9,22.1-14C110.2,237.7,108.2,231.3,107,225.9z"/>
	<path class="st5_easter-bunny-12" d="M139.1,201.9h2.4c1.5,0,2.6,1.2,2.6,2.6v45.8c0,1.5-1.2,2.6-2.6,2.6h-2.4c-1.5,0-2.6-1.2-2.6-2.6v-45.8&#10;&#9;&#9;C136.4,203,137.6,201.9,139.1,201.9z"/>
	<path class="st6_easter-bunny-12" d="M159.3,212.3c-1.8-7.7-9.7-41.7-23.6-31.7c-7.2,5.1-9.2,13.1-12,20.9c-2.4,6.5-4.3,13.3-4.5,20.2&#10;&#9;&#9;c-0.2,14.1,14.2,15.9,25.2,15.8c6.3,0,15.4-3.8,16.9-10.7c0.9-4.1-0.6-9-1.5-13.1C159.5,213.3,159.4,212.8,159.3,212.3z"/>
	<path class="st7_easter-bunny-12" d="M160,213.8c-0.1-0.5-0.2-1-0.3-1.5c-1.6-6.8-7.9-34.2-19-33.5c3.3,14.4,8.2,29.6,5.6,44.4&#10;&#9;&#9;c-0.8,5.2-2.8,10-5.9,14.3c1.5,0.1,2.9,0.1,4.3,0.1c6.3,0,15.4-3.8,16.9-10.7C162.4,222.8,160.9,217.9,160,213.8z"/>
	<path class="st5_easter-bunny-12" d="M411.3,210.3h4.8c1.5,0,2.6,1.2,2.6,2.6v61.6c0,1.5-1.2,2.6-2.6,2.6h-4.8c-1.5,0-2.6-1.2-2.6-2.6v-61.6&#10;&#9;&#9;C408.7,211.5,409.9,210.3,411.3,210.3z"/>
	<path class="st6_easter-bunny-12" d="M438.6,224c-2.3-10.1-12.6-54.5-31-41.5c-9.4,6.7-12,17.1-15.8,27.4c-3.1,8.5-5.7,17.4-5.8,26.5&#10;&#9;&#9;c-0.3,18.5,18.5,20.8,32.9,20.7c8.3,0,20.1-4.9,22.1-13.9c1.2-5.4-0.8-11.8-2-17.2C438.9,225.3,438.8,224.6,438.6,224z"/>
	<path class="st7_easter-bunny-12" d="M439.5,225.9c-0.1-0.7-0.3-1.3-0.4-2c-2.1-8.9-10.4-44.6-24.9-43.8c4.3,18.9,10.7,38.8,7.3,58.1&#10;&#9;&#9;c-1.1,6.7-3.7,13.1-7.7,18.7c1.9,0.1,3.8,0.1,5.7,0.1c8.3,0,20.1-4.9,22.1-13.9C442.7,237.6,440.7,231.2,439.5,225.9z"/>
</g>
<g id="hole_easter-bunny-12">
	<ellipse class="st8_easter-bunny-12" cx="260.9" cy="297.5" rx="111.3" ry="43.8"/>
	<ellipse class="st9_easter-bunny-12" cx="258" cy="296" rx="93" ry="36.6"/>
</g>
<g id="rabbit_easter-bunny-12">
	<path class="st10_easter-bunny-12 targetColor" d="M219.4,290.8c0,0-28.9,10.4-30.1,30.5c0,0,40.4,21,119.2,7.4c0,0-12.9-25.2-21.2-29.6" style="fill: rgb(104, 225, 253);"/>
	<path class="st11_easter-bunny-12" d="M219.4,290.8c0,0-28.9,10.4-30.1,30.5c0,0,40.4,21,119.2,7.4c0,0-12.9-25.2-21.2-29.6"/>
	<path class="st10_easter-bunny-12 targetColor" d="M273.1,230.9c23.8,9.4,49.1,36.5,43,64c-7.1,32.3-49.5,33.6-73.2,20.8c-6.2-3.3-12-7.4-17.3-12.1&#10;&#9;&#9;c-11.9-10.6-19-25.3-14.9-41.2c3.6-14.1,14.4-26.9,27.9-32.3C250,225.5,262,226.4,273.1,230.9z" style="fill: rgb(104, 225, 253);"/>
	
		<ellipse transform="matrix(0.9981 -6.157115e-02 6.157115e-02 0.9981 -16.4236 17.6473)" class="st12_easter-bunny-12" cx="278.1" cy="275.3" rx="4.5" ry="9.4"/>
	<path class="st12_easter-bunny-12" d="M298.4,289.9c1.5,3.4-0.6,7.7-2.5,10.5c-2.7,4.1-6.6,2.5-8.6-1.2c-1.1-2.2-2.9-6-1.4-8.4&#10;&#9;&#9;c0.8-1.1,2.1-1.9,3.5-2C291.6,288.4,297.2,287.1,298.4,289.9z"/>
	
		<ellipse transform="matrix(0.9981 -6.157115e-02 6.157115e-02 0.9981 -16.1254 18.8394)" class="st12_easter-bunny-12" cx="297.6" cy="271.1" rx="4.5" ry="9.4"/>
	<path class="st10_easter-bunny-12 targetColor" d="M259.5,232.2c0.6-5.3-12.4-103.3,31.5-119.8s45.9,25.8,34.1,45.5s-49.3,73.6-49.3,73.6" style="fill: rgb(104, 225, 253);"/>
	<path class="st10_easter-bunny-12 targetColor" d="M249.6,240c0-13.9-1.2-28-2.4-41.8c-2.1-26.7,2.5-76.3-35-80.8c-17.6-2.1-24.5,12.9-22.6,28.2&#10;&#9;&#9;c1.4,11.6,6.2,24.1,11,34.7c10.2,22.5,23.2,43.6,36.6,64.3c0.4,0.7,0.9,1.3,1.3,2" style="fill: rgb(104, 225, 253);"/>
	<path class="st10_easter-bunny-12 targetColor" d="M288.4,320.8c0,0,7.8,11.8,0,17.4s-23.2,6.2-26.6,1.9s-3.2-5.9-3.2-5.9l-13.4-0.5c0,0-4.2-13.5,6.9-18.1&#10;&#9;&#9;S283.7,313.4,288.4,320.8z" style="fill: rgb(104, 225, 253);"/>
	<path class="st10_easter-bunny-12 targetColor" d="M344.8,313.9c0,0,7.7,11.8,0,17.4s-23.2,6.2-26.7,1.9s-3.2-5.9-3.2-5.9l-14.2,3.2c0,0-3.5-17.2,7.7-21.8&#10;&#9;&#9;S340.1,306.4,344.8,313.9z" style="fill: rgb(104, 225, 253);"/>
	<path class="st11_easter-bunny-12" d="M234.2,232.2c0,0-43.3-82.6-27.4-93.1s35.5,41.5,37.5,89.2L234.2,232.2z"/>
	<path class="st11_easter-bunny-12" d="M273.1,230.9c0,0,41.4-66.5,41.4-83.4s-10.2-24.8-22.8-15.4S263.3,228,263.3,228L273.1,230.9z"/>
</g>
</svg>