<svg version="1.1" id="Layer_1" xmlns="http://www.w3.org/2000/svg" xmlns:xlink="http://www.w3.org/1999/xlink" x="0px" y="0px" viewBox="0 0 500 500" style="width: 188px;" xml:space="preserve" data-imageid="electric-car-20" imageName="Electric Car" class="illustrations_image">
<style type="text/css">
	.st0_electric-car-20{fill:#CB9BEA;}
	.st1_electric-car-20{fill:url(#SVGID_1_);}
	.st2_electric-car-20{fill:#0B096E;}
	.st3_electric-car-20{fill:#4949AD;}
	.st4_electric-car-20{fill:#FFAB31;}
	.st5_electric-car-20{fill:#D7FBFF;}
	.st6_electric-car-20{fill:#A8EBEF;}
	.st7_electric-car-20{fill:url(#SVGID_00000012443608309613861360000011619151232569333402_);}
	.st8_electric-car-20{fill:#A83F1E;}
	.st9_electric-car-20{opacity:0.33;fill:#0B096E;enable-background:new    ;}
	.st10_electric-car-20{fill:#77C457;}
	.st11_electric-car-20{opacity:0.5;fill:#0B096E;enable-background:new    ;}
	.st12_electric-car-20{fill:url(#SVGID_00000100374106979751670460000000666240037487921319_);}
	.st13_electric-car-20{fill:#68E1FD;}
</style>
<path id="field_electric-car-20" class="st0_electric-car-20" d="M243,412.6l-220-130c-7-3.9-13-10.4-6.2-14.6l220.8-127.3c3.3-2.1,8.4-3.4,11.7-1.4l230.9,134&#10;&#9;c7,4.1,8.3,15.4,1.2,19.5L272,412.4C263,417.6,252,417.7,243,412.6z"/>
<g id="electric-charging_electric-car-20">
	
		<linearGradient id="SVGID_1_-electric-car-20" gradientUnits="userSpaceOnUse" x1="179.1095" y1="250.4904" x2="247.7695" y2="329.1804" gradientTransform="matrix(1 0 0 -1 0 502)">
		<stop offset="0" style="stop-color:#CB9BEA;stop-opacity:0"/>
		<stop offset="1" style="stop-color:#43344E"/>
	</linearGradient>
	<polyline class="st1_electric-car-20" points="250.1,213.9 168.2,261.9 144.3,247.6 227.4,192.9 &#9;"/>
	<path class="st2_electric-car-20" d="M156.4,319.2c-1.3,0-2.7-0.1-4-0.3c-7.2-1-19.4-6-21.5-15.1c-3-13.1,10.9-18.5,21.1-22.5&#10;&#9;&#9;c1.6-0.6,3-1.2,4.4-1.8l0.3-0.1c7.7-3.3,15.7-6.8,22-12.4c2.3-2.1,3.5-3.9,3.8-5.8c0.3-2.4-0.6-4.9-2.4-6.5&#10;&#9;&#9;c-2.6-2.6-6.2-3.5-9.9-4.4c-4.3-1.1-8.8-2.3-11.8-6.1c-1.7-1.9-2.3-4.5-1.7-7c1.8-6.8,13.1-11.8,20.6-15l0.7-0.3&#10;&#9;&#9;c11.9-5.2,15.5-20.3,17.3-42.9l2,0.2c-1.9,23.3-5.7,38.9-18.5,44.5L178,224c-6.7,2.9-17.9,7.8-19.5,13.7c-0.4,1.9,0.1,3.8,1.4,5.3&#10;&#9;&#9;c2.5,3.3,6.5,4.3,10.7,5.4c3.9,1,7.9,2,10.8,4.9c2.3,2.1,3.4,5.2,3,8.3c-0.5,3.1-2.8,5.4-4.4,6.9c-6.6,5.9-14.7,9.4-22.6,12.8&#10;&#9;&#9;l-0.3,0.1c-1.3,0.6-2.8,1.2-4.4,1.8c-10.1,3.9-22.6,8.8-19.9,20.2c1.8,7.8,12.7,12.6,19.8,13.6c13.6,1.9,25.2-7,35.9-16.3&#10;&#9;&#9;c1.3-1.1,2.7-2.3,4.1-3.5c5.7-4.7,12.1-10.1,15.6-15.9l1.7,1c-3.7,6.1-10.3,11.6-16.1,16.4c-1.4,1.2-2.8,2.3-4.1,3.4&#10;&#9;&#9;C179.8,310.9,169,319.2,156.4,319.2z"/>
	<polyline class="st3_electric-car-20" points="240.7,88.1 231.3,83.7 197.4,103.1 197.4,223.8 215.9,234 239.3,150.6 &#9;"/>
	<polygon class="st2_electric-car-20" points="215.9,152.5 215.9,234 250.1,213.9 250.1,132 &#9;"/>
	<polygon class="st2_electric-car-20" points="215.9,152.5 206,107.9 240.7,88.1 250.1,132 &#9;"/>
	<polygon class="st4_electric-car-20" points="234,160.8 242.3,155.3 237,170.7 242.3,167.6 228.5,200.3 233.2,179.6 228.5,181.7 &#9;"/>
	<polygon class="st2_electric-car-20" points="200.2,152.5 212.5,159.2 212.5,170.2 200.2,163.7 &#9;"/>
	<path class="st5_electric-car-20" d="M206.5,159.9c0,0,3.7,1.1,2.8,5.9c0,0-11.1,1.4-10.8,14.2c0,0-0.8,1.6-5.1,0&#10;&#9;&#9;C193.4,179.9,192.3,163.1,206.5,159.9z"/>
	<path class="st4_electric-car-20" d="M213.6,111.6l7,30l22.8-13.6c0,0-6.7-29-7-29S213.6,111.6,213.6,111.6z"/>
	<path class="st2_electric-car-20" d="M230.5,109.5l-6.1,3.4c-0.5,0.3-0.8,0.9-0.7,1.5l3.6,15.7c0.2,0.7,0.9,1.2,1.7,1c0.1,0,0.3-0.1,0.4-0.2&#10;&#9;&#9;l5.9-3.5c0.5-0.3,0.8-0.9,0.6-1.5l-3.4-15.6c-0.2-0.7-0.9-1.2-1.7-1.1C230.8,109.4,230.7,109.4,230.5,109.5z"/>
	<path class="st6_electric-car-20" d="M234.3,122.7c-2.2,1.4-4.4,2.7-6.6,4l0.6,2.6c0.1,0.6,0.7,0.9,1.3,0.8c0.1,0,0.2-0.1,0.3-0.1l4.6-2.7&#10;&#9;&#9;c0.4-0.2,0.6-0.7,0.5-1.2L234.3,122.7z"/>
	<path class="st6_electric-car-20" d="M226.6,121.6l0.9,3.8c2.2-1.3,4.4-2.6,6.6-4l-0.7-3.3C231.1,119.2,228.9,120.4,226.6,121.6z"/>
</g>
<g id="tree_electric-car-20">
	
		<linearGradient id="SVGID_00000103244877694515993670000009105845731331691177_-electric-car-20" gradientUnits="userSpaceOnUse" x1="71.8346" y1="213.746" x2="99.8046" y2="245.796" gradientTransform="matrix(1 0 0 -1 0 502)">
		<stop offset="0" style="stop-color:#CB9BEA;stop-opacity:0"/>
		<stop offset="1" style="stop-color:#43344E"/>
	</linearGradient>
	<path style="fill:url(#SVGID_00000103244877694515993670000009105845731331691177_);" d="M59.3,284.9c1.9-0.3,3.4-0.3,4.2,0.6&#10;&#9;&#9;c-1.3,13.1,8.1,6.7,12.2,10l3.6-1.5c7.2-7.2,14.4-14.3,21.7-21.4c-2.5-1.8-4.9-3.7-7.3-5.6C81.7,272,70.2,278,59.3,284.9z"/>
	<path class="st8_electric-car-20" d="M101.8,272v-56.6H89.5v57.1C93.7,273.8,98.2,273.9,101.8,272z"/>
	<path class="st9_electric-car-20" d="M96.9,215.6v57.9c1.7-0.1,3.4-0.6,4.9-1.4v-56.6H96.9z"/>
	<path class="st10_electric-car-20" d="M112.8,220.7c7.7-0.4,17.5-3.1,14.6-11.6c-1.7-5.1-6.9-9.5-10.2-13.5s-2.6-6.7-6.3-10.6&#10;&#9;&#9;c3.2,0.1,7.8-0.5,8.6-3.6c0.7-2.8-14.1-19.6-20.5-26.5c-1.5-1.6-3.9-1.7-5.6-0.4c-7.6,6.1-27.1,22.2-24.4,26.9c1.6,2.8,5,3.8,7.9,4&#10;&#9;&#9;c-7,7-15,15.8-15.8,25.2c-0.7,8.1,7.6,9.2,15.3,8.8c-5.3,6.5-19.9,25-16.5,30.7c1.8,3,7.4,3.9,10.7,4.6c7.2,1.5,14.6,2.2,21.9,2.1&#10;&#9;&#9;c7.3-0.1,14.9-0.8,21.8-3.3c3.7-1.3,7.7-3.1,10.6-5.9c3.4-3.2,1.5-6.6-0.7-9.8C120.3,232.1,116.6,226.4,112.8,220.7z"/>
	<path class="st11_electric-car-20" d="M110.8,185c0,0-9.3-0.6-15.8-0.4l32.9,27c0,0,0.9-3.1-4.9-9.6S110.8,185,110.8,185z"/>
	<path class="st11_electric-car-20" d="M112.8,220.7H93.6l31.2,26.8c0,0,3.4-2.5,1.4-6.2S112.8,220.7,112.8,220.7z"/>
</g>
<g id="car_electric-car-20">
	
		<linearGradient id="SVGID_00000049901349128194743880000016934263629017756550_-electric-car-20" gradientUnits="userSpaceOnUse" x1="226.5497" y1="138.5403" x2="359.5697" y2="290.9903" gradientTransform="matrix(1 0 0 -1 0 502)">
		<stop offset="0" style="stop-color:#CB9BEA;stop-opacity:0"/>
		<stop offset="1" style="stop-color:#43344E"/>
	</linearGradient>
	<polyline style="fill:url(#SVGID_00000049901349128194743880000016934263629017756550_);" points="378.2,304.4 222.8,392.9 &#10;&#9;&#9;144.3,342.9 304,235.8 &#9;"/>
	<path class="st13_electric-car-20 targetColor" d="M182,307.5l8.6-14.5c9.4-7.3,32.5-24.6,32.5-24.6c6.7-8.4,25.1-26.8,25.1-26.8c13.1-9.6,62.1-35.7,65.8-36.1&#10;&#9;&#9;s16.5,2.4,18.5,2.6s8-3.9,8-3.9c17.8,1.5,35.2,16,43.5,22.4s8.4,16.2,8.4,16.2s0.9,30.5,0.4,32.1s-5.4,5.1-5.4,5.1&#10;&#9;&#9;s0.2-17.2-12.3-11.1S360,296,358.8,297.1s-61.9,36.2-75.3,44c0.1-3.8-0.4-7.7-3.2-10.5c-3.3-3.2-8.3-2.8-12.2-1.2&#10;&#9;&#9;c-4,1.6-7.5,4.3-9.9,7.9c-3.6,4.4-5.3,10.2-6.1,15.7c-0.1,0.7-0.5,10.2-0.6,10.2c-32.8,10.7-69.1-28.6-69.8-31.7&#10;&#9;&#9;S182,307.5,182,307.5z" style="fill: rgb(104, 225, 253);"/>
	<path class="st9_electric-car-20" d="M181.9,307.5l8.6-14.4c9.4-7.3,32.5-24.6,32.5-24.6c6.7-8.4,25.1-26.8,25.1-26.8c13.1-9.6,62.1-35.7,65.8-36.1&#10;&#9;&#9;s16.5,2.4,18.5,2.6s8-3.9,8-3.9c17.8,1.5,35.2,16,43.5,22.4s8.4,16.2,8.4,16.2s0.9,30.5,0.4,32.1s-5.4,5.1-5.4,5.1&#10;&#9;&#9;s0.2-17.2-12.3-11.1s-15.1,27.2-16.2,28.4s-61.9,36.2-75.3,44c0.1-3.8-0.4-7.7-3.2-10.5c-3.3-3.2-8.3-2.8-12.2-1.2&#10;&#9;&#9;c-4,1.6-7.5,4.3-9.9,7.9c-3.6,4.4-5.3,10.2-6.1,15.7c-0.1,0.7-0.5,10.2-0.6,10.2c-32.8,10.7-69.1-28.6-69.8-31.7&#10;&#9;&#9;S181.9,307.5,181.9,307.5z"/>
	<path class="st9_electric-car-20" d="M207.8,335.8c12.2,7.8,24.8,11.2,46.2,8.3c-0.4,1.5-1.8,7.5-2,9c-0.1,0.7-0.5,10.2-0.6,10.2&#10;&#9;&#9;c-32.8,10.7-69.1-28.6-69.8-31.7c-0.7-2.8,0.3-21,0.4-23.8C187.8,320,189.3,324,207.8,335.8z"/>
	<path class="st5_electric-car-20" d="M193.9,328.6c0,0-0.2,4.9-0.1,5c5.7,4.9,12.1,8.8,19,11.5l0.1-4.8C212.9,340.4,201.5,334.8,193.9,328.6z"/>
	<path class="st6_electric-car-20" d="M252.6,242.9c-2.5-2.4-25.2,22.8-26.7,26.2s-3.5,5.6,1.2,10.8s31.3,20.8,36.6,22.1s8.1,4.1,15.3-2.5&#10;&#9;&#9;s18-27.9,18-27.9S265.5,255.3,252.6,242.9z"/>
	<path class="st2_electric-car-20" d="M227.4,263.9c0,0-5-4.2-8.4-2.7s4.1,7.3,4.1,7.3L227.4,263.9z"/>
	<ellipse transform="matrix(0.4352 -0.9003 0.9003 0.4352 -47.2287 499.6514)" class="st2_electric-car-20" cx="374.6" cy="287.5" rx="21" ry="14"/>
	<ellipse transform="matrix(0.4352 -0.9003 0.9003 0.4352 -46.517 500.9326)" class="st5_electric-car-20" cx="376" cy="287.5" rx="11.4" ry="7.6"/>
	<path class="st6_electric-car-20" d="M222.8,340.7c-0.9-0.3-1.8-0.8-2.5-1.4c-1.3-1.4-0.4-3.2,0.6-4.5c1-1.2,2.4-2.1,3.9-2.4&#10;&#9;&#9;c3.1-0.8,6.2-1.4,9.4-1.9c2.1-0.3,4.2-0.5,6.3-0.7c2.3-0.3,4.6-0.3,6.9,0.1c2.4,0.5,1.8,3.6,1,5.2c-1.4,2.6-3.9,4.6-6.4,6&#10;&#9;&#9;c-1.8,1-3.9,1.7-6,1.8c-2.3,0.1-4.5-0.1-6.7-0.5c-1.6-0.3-3.3-0.6-4.8-1.1C223.9,341.1,223.3,340.9,222.8,340.7z"/>
	<path class="st6_electric-car-20" d="M182,307.5c0,0,4,7.8,6.3,9.8s3.5,0.6,3.8-1.3s-1.2-22.8-1.5-22.8S184.5,295.9,182,307.5z"/>
	<path class="st6_electric-car-20" d="M196.7,314c0.7,0.4,1.4,0.9,2,1.3c4,2.4,7.9,4.8,11.8,7.3l5.9,3.7c1.3,0.8,4.1,1.8,2.9,3.7&#10;&#9;&#9;c-1.4,1.9-3,3.7-4.9,5.2c-1.3,1.1-2.3,1.4-3.9,0.5c-2.9-1.7-5.8-3.3-8.6-5c-2.2-1.3-4.7-3-5.4-5.6c-0.7-2.8-1.2-5.6-1.5-8.5&#10;&#9;&#9;c-0.1-1-0.2-2.9,1.2-2.7C196.3,313.8,196.5,313.9,196.7,314z"/>
	<path class="st6_electric-car-20" d="M232.2,355.2c1,0.3,1.7,1.2,1.7,2.3c0,2.4-2.2,2.3-3.9,2.4c-2.1,0.1-21.3-6.4-33.7-16.1s-14.6-18-14.6-18&#10;&#9;&#9;l0.1-6.4c0,0,3.1,13.2,19.4,23c6.7,4,13.8,7.3,21.2,9.9c2.3,0.8,4.6,1.6,6.9,2.2C230.3,354.7,231.2,354.9,232.2,355.2z"/>
	<path class="st6_electric-car-20" d="M359.5,235l13.6,0.8c0,0,2,0.7,0.8-2.5s-14.3-16.7-31.8-20.7c0,0-24.2-4.2-19.7-2.5&#10;&#9;&#9;C324.9,211.1,344.7,220.4,359.5,235z"/>
	<path class="st6_electric-car-20" d="M358.8,257.2c4.4-3.1,8.9-6.3,13.2-9.5c-2.5-1.4-5.2-2.2-7.9-2.6c-1.7-0.1-3.4-0.1-5.1,0L358.8,257.2z"/>
	<path class="st6_electric-car-20" d="M328.9,254c-9.7,4.7-18.3,11.2-25.5,19.2c-7.3,8.5-13,18.1-17,28.5c-0.4,1,0.1,2.2,1.2,2.6&#10;&#9;&#9;c0.6,0.2,1.2,0.2,1.7-0.2c7.6-4.7,22.6-14.1,33.4-21.1l2.7-1.7v-0.2l3-2.2L328.9,254z"/>
	<path class="st6_electric-car-20" d="M354.7,245.6c-4,0.6-7.9,1.5-11.7,2.7c-2.8,0.9-5.5,1.9-8.2,3l-0.4,23.3l19-13.6c0.3-0.2,0.6-0.5,1-0.7&#10;&#9;&#9;L354.7,245.6z"/>
	
		<ellipse transform="matrix(0.4352 -0.9003 0.9003 0.4352 -161.8083 437.6134)" class="st2_electric-car-20" cx="267.9" cy="347.8" rx="21.7" ry="14.1"/>
	
		<ellipse transform="matrix(0.4352 -0.9003 0.9003 0.4352 -161.0966 438.7499)" class="st5_electric-car-20" cx="269.2" cy="347.8" rx="11.8" ry="7.7"/>
</g>
</svg>