<svg version="1.1" id="Layer_1" xmlns="http://www.w3.org/2000/svg" xmlns:xlink="http://www.w3.org/1999/xlink" x="0px" y="0px" viewBox="0 0 500 500" style="width: 188px;" xml:space="preserve" data-imageid="brainstorming-31" imageName="Brainstorming" class="illustrations_image">
<style type="text/css">
	.st0_brainstorming-31{fill:#68E1FD;}
	.st1_brainstorming-31{fill:#FFFFFF;}
	.st2_brainstorming-31{fill:#231F20;}
	.st3_brainstorming-31{fill:#D1D3D4;}
</style>
<g id="Lamp_brainstorming-31">
	<path class="st0_brainstorming-31 targetColor" d="M338.8,269.2L338.8,269.2c32-46.3,20.5-109.7-25.8-141.8s-109.7-20.5-141.8,25.8c-24.2,34.9-24.2,81.1,0,116&#10;&#9;&#9;l0,0l0.1,0.1c2.6,3.7,5.4,7.3,8.4,10.7c4.3,5.9,15.8,13.4,17.9,20.3c4.2,14.4,12.7,32.2,12.7,32.2h89.3c0,0,8.5-17.9,12.7-32.2&#10;&#9;&#9;c2-6.9,13.6-14.4,17.9-20.3c3.1-3.4,5.9-6.9,8.5-10.6L338.8,269.2z" style="fill: rgb(104, 225, 253);"/>
	<path class="st1_brainstorming-31" d="M213.1,332.5h83.8c3,0,5.5,2.4,5.5,5.5v3.7c0,3-2.4,5.5-5.5,5.5h-83.8c-3,0-5.5-2.4-5.5-5.5V338&#10;&#9;&#9;C207.6,335,210.1,332.5,213.1,332.5z"/>
	<path class="st2_brainstorming-31" d="M296.9,347.8h-83.8c-3.4,0-6.2-2.8-6.2-6.2l0,0V338c0-3.4,2.8-6.2,6.2-6.2c0,0,0,0,0,0h83.8&#10;&#9;&#9;c3.4,0,6.1,2.8,6.1,6.2v3.7C303,345.1,300.2,347.8,296.9,347.8z M213.1,333.2c-2.6,0-4.8,2.1-4.8,4.8v3.7c0,2.6,2.1,4.8,4.8,4.8&#10;&#9;&#9;h83.8c2.6,0,4.8-2.1,4.8-4.8V338c0-2.6-2.1-4.8-4.8-4.8L213.1,333.2z"/>
	<path class="st1_brainstorming-31" d="M213.1,347.1h83.8c3,0,5.5,2.4,5.5,5.5v3.7c0,3-2.4,5.5-5.5,5.5h-83.8c-3,0-5.5-2.4-5.5-5.5v-3.7&#10;&#9;&#9;C207.6,349.6,210.1,347.1,213.1,347.1z"/>
	<path class="st2_brainstorming-31" d="M296.9,362.5h-83.8c-3.4,0-6.2-2.8-6.2-6.2l0,0v-3.7c0-3.4,2.8-6.2,6.2-6.2c0,0,0,0,0,0h83.8&#10;&#9;&#9;c3.4,0,6.2,2.8,6.2,6.2v3.7C303,359.7,300.3,362.5,296.9,362.5z M213.1,347.8c-2.6,0-4.8,2.1-4.8,4.8v3.7c0,2.6,2.1,4.8,4.8,4.8&#10;&#9;&#9;h83.8c2.6,0,4.8-2.1,4.8-4.8v-3.7c0-2.6-2.1-4.8-4.8-4.8H213.1z"/>
	<path class="st1_brainstorming-31" d="M213.1,361.8h83.8c3,0,5.5,2.4,5.5,5.5v3.7c0,3-2.4,5.5-5.5,5.5h-83.8c-3,0-5.5-2.4-5.5-5.5v-3.7&#10;&#9;&#9;C207.6,364.2,210.1,361.8,213.1,361.8z"/>
	<path class="st2_brainstorming-31" d="M296.9,377.1h-83.8c-3.4,0-6.2-2.7-6.2-6.1c0,0,0,0,0,0v-3.7c0-3.4,2.8-6.2,6.2-6.2c0,0,0,0,0,0h83.8&#10;&#9;&#9;c3.4,0,6.2,2.8,6.2,6.2v3.8C303,374.4,300.2,377.1,296.9,377.1z M213.1,362.5c-2.6,0-4.8,2.1-4.8,4.8v3.8c0,2.6,2.1,4.8,4.8,4.8&#10;&#9;&#9;h83.8c2.6,0,4.8-2.1,4.8-4.8v-3.7c0-2.6-2.1-4.8-4.8-4.8L213.1,362.5z"/>
	<path class="st1_brainstorming-31" d="M213.1,376.4h83.8c3,0,5.5,2.4,5.5,5.5v3.7c0,3-2.4,5.5-5.5,5.5h-83.8c-3,0-5.5-2.4-5.5-5.5v-3.7&#10;&#9;&#9;C207.6,378.9,210.1,376.4,213.1,376.4z"/>
	<path class="st2_brainstorming-31" d="M296.9,391.8h-83.8c-3.4,0-6.2-2.8-6.2-6.2l0,0v-3.7c0-3.4,2.8-6.2,6.2-6.2c0,0,0,0,0,0h83.8&#10;&#9;&#9;c3.4,0,6.2,2.8,6.2,6.2v3.7C303,389,300.3,391.7,296.9,391.8z M213.1,377.1c-2.6,0-4.8,2.1-4.8,4.8v3.7c0,2.6,2.1,4.8,4.8,4.8h83.8&#10;&#9;&#9;c2.6,0,4.8-2.1,4.8-4.8v-3.7c0-2.6-2.1-4.8-4.8-4.8H213.1z"/>
	<path class="st2_brainstorming-31" d="M267.5,410.7h-25.1c-6.4,0-12.4-2.7-16.7-7.5L214.9,391H295l-10.8,12.2C280,408,273.9,410.7,267.5,410.7z"/>
	<path class="st2_brainstorming-31" d="M267.5,411.4h-25.1c-6.6,0-12.8-2.8-17.2-7.7l-10.8-12.2c-0.2-0.2-0.2-0.5-0.1-0.8c0.1-0.3,0.4-0.4,0.6-0.4&#10;&#9;&#9;h80.2c0.3,0,0.5,0.2,0.6,0.4c0.1,0.3,0.1,0.6-0.1,0.8l-10.8,12.2C280.4,408.6,274.1,411.4,267.5,411.4z M216.5,391.8l9.8,11&#10;&#9;&#9;c4.1,4.6,10,7.2,16.2,7.2h25.1c6.2,0,12-2.6,16.1-7.2l9.8-11H216.5z"/>
</g>
<g id="Brain_icon_brainstorming-31">
	<path class="st1_brainstorming-31" d="M232.1,288.6c-1.8,0-3.6-0.2-5.4-0.5c-9.8-1.9-13-8.9-13.9-11.4c-4.7-1.4-9-3.8-12.6-7.1&#10;&#9;&#9;c-6-5.1-4.5-13-3.6-16.1c-5.2-2.6-8.9-7.4-10.3-13c-1.7-5.7-0.3-11.9,3.8-16.2c-2.3-2.8-3.7-6.2-4.1-9.8c-1-7.6,4.9-13.3,7.4-15.4&#10;&#9;&#9;c-1.4-2.3-3.5-7.8,0.7-15.7c2.7-5.5,8.3-9.2,14.4-9.5c-0.8-4.3-0.6-8.7,0.5-12.9c2.4-9.4,25.8-18.1,33.1-17.8&#10;&#9;&#9;c3.8,0.2,7.3,1.8,9.9,4.6c0.3,0.3,0.4,0.6,0.4,1v123.4c0,0.1,0,0.2,0,0.3c-0.1,0.7-0.3,1.4-0.5,2&#10;&#9;&#9;C248,283.7,241.1,288.6,232.1,288.6z M209.4,176.7c-5.5,0-10.5,3.1-12.9,8.1c-4.6,8.7-0.4,13.6-0.2,13.8c0.3,0.3,0.4,0.7,0.3,1.1&#10;&#9;&#9;c0,0.4-0.3,0.8-0.6,1c-0.1,0.1-8.4,5.8-7.4,13.6c0.8,6.4,4,9,4.2,9.1c0.6,0.5,0.7,1.4,0.2,2c-0.1,0.1-0.1,0.1-0.2,0.2&#10;&#9;&#9;c-4,3.6-5.6,9.2-4,14.4c2.6,9.2,9.7,11.6,9.8,11.6c0.4,0.1,0.7,0.4,0.8,0.7c0.1,0.4,0.1,0.8,0,1.1c0,0.1-3.5,9.2,2.4,14.3&#10;&#9;&#9;c6.4,5.5,12.1,6.7,12.1,6.7c0.5,0.1,1,0.5,1.1,1.1c0.1,0.3,2.1,8.2,11.9,10.1c10.4,2,18-2.1,21.9-12c0.2-0.4,0.3-0.9,0.4-1.3V149.3&#10;&#9;&#9;c-2-2-4.7-3.1-7.5-3.3c-7-0.3-28.3,8.4-30.2,15.7c-2,7.8-0.1,13.1,0,13.1c0.3,0.7-0.1,1.5-0.8,1.8c-0.2,0.1-0.4,0.1-0.6,0.1&#10;&#9;&#9;C210,176.7,209.7,176.7,209.4,176.7z"/>
	<path class="st1_brainstorming-31" d="M206.2,232.9c-7.9,0-14.9-7.3-15.2-7.6c-0.5-0.6-0.3-1.5,0.3-2c0.5-0.4,1.2-0.4,1.7,0&#10;&#9;&#9;c0.1,0.1,6.9,7.3,13.9,6.7c0.8,0,1.4,0.6,1.5,1.3c0,0.7-0.5,1.4-1.2,1.5C206.8,232.9,206.5,232.9,206.2,232.9z"/>
	<path class="st1_brainstorming-31" d="M223.8,211.8c-1.8,0-3.5-0.2-5.2-0.7c-12.2-3.2-13.4-17.3-13.5-17.9c0-0.8,0.6-1.4,1.3-1.5&#10;&#9;&#9;c0.7,0,1.4,0.5,1.5,1.2c0,0.5,1.2,12.7,11.4,15.4c6.1,1.7,12.6-0.3,16.7-5.1c0.5-0.6,1.4-0.7,2-0.2s0.7,1.4,0.2,2l0,0&#10;&#9;&#9;C234.5,209.3,229.3,211.7,223.8,211.8z"/>
	<path class="st1_brainstorming-31" d="M213.3,224.2h-1.1c-0.8,0-1.4-0.7-1.3-1.5c0-0.8,0.7-1.4,1.5-1.3c3.9,0.2,6.9-0.7,8.8-2.7&#10;&#9;&#9;c3.1-3.2,2.7-8.1,2.7-8.1c-0.1-0.8,0.5-1.4,1.3-1.5s1.4,0.5,1.5,1.3c0,0.2,0.5,6.2-3.4,10.3C220.8,223,217.5,224.2,213.3,224.2z"/>
	<path class="st1_brainstorming-31" d="M230.2,195.2c-0.7,0-1.3-0.5-1.4-1.2c-3-17-17.9-17.4-18.5-17.4c-0.8,0-1.4-0.6-1.4-1.4c0-0.8,0.6-1.4,1.4-1.4&#10;&#9;&#9;c0.2,0,17.8,0.4,21.2,19.7c0.1,0.8-0.4,1.5-1.1,1.6c0,0,0,0,0,0L230.2,195.2z"/>
	<path class="st1_brainstorming-31" d="M233.1,271.9c-0.8,0-1.4-0.6-1.4-1.4c0,0,0,0,0,0c-0.3-18.1-17.7-18.6-18.5-18.6c-0.8,0-1.4-0.7-1.4-1.4&#10;&#9;&#9;c0-0.8,0.6-1.4,1.4-1.4c0,0,0,0,0.1,0c0.2,0,20.9,0.6,21.2,21.4C234.5,271.3,233.9,271.9,233.1,271.9&#10;&#9;&#9;C233.1,271.9,233.1,271.9,233.1,271.9L233.1,271.9z"/>
	<path class="st1_brainstorming-31" d="M220.2,253.3c-0.7,0-1.3-0.5-1.4-1.2c0-0.2-2.3-20.3,18-23c0.8-0.1,1.5,0.4,1.6,1.2c0.1,0.8-0.4,1.5-1.2,1.6&#10;&#9;&#9;c-17.6,2.3-15.7,19.1-15.6,19.8c0.1,0.8-0.4,1.5-1.2,1.6L220.2,253.3z"/>
	<path class="st1_brainstorming-31" d="M250.9,183.2c-0.7,0-1.4-0.6-1.4-1.3c0-0.2-0.4-4.3-7.1-6c-0.7-0.2-1.2-1-1-1.7c0.2-0.7,1-1.2,1.7-1&#10;&#9;&#9;c8.8,2.2,9.2,8.3,9.2,8.6C252.3,182.5,251.7,183.2,250.9,183.2L250.9,183.2z"/>
	<path class="st1_brainstorming-31" d="M231.7,160.2c-0.4,0-0.7-0.2-1-0.5c-6.2-6.9-13.4-4.4-13.7-4.3c-0.7,0.3-1.5-0.1-1.8-0.8s0.1-1.5,0.8-1.8&#10;&#9;&#9;c0.4-0.1,9.2-3.3,16.7,5c0.5,0.6,0.5,1.5-0.1,2c0,0,0,0,0,0C232.4,160.1,232.1,160.2,231.7,160.2z"/>
	<path class="st1_brainstorming-31" d="M216.1,251.9c-0.7,0-1.3-0.6-1.4-1.3c-0.3-2.9-2.2-5.4-4.9-6.6c-0.7-0.3-1.1-1.1-0.8-1.8&#10;&#9;&#9;c0.3-0.7,1.1-1.1,1.8-0.8c0,0,0,0,0,0c3.6,1.6,6.2,5,6.6,8.9c0.1,0.8-0.5,1.4-1.3,1.5L216.1,251.9z"/>
	<path class="st1_brainstorming-31" d="M277.9,288.6c-9.1,0-15.9-4.9-19.6-14.2c-0.2-0.6-0.4-1.3-0.5-2c0-0.1,0-0.2,0-0.3V148.7c0-0.4,0.1-0.7,0.4-1&#10;&#9;&#9;c2.6-2.7,6.1-4.4,9.9-4.6c7.2-0.3,30.6,8.4,33.1,17.8c1.2,4.2,1.3,8.6,0.5,12.9c6.2,0.3,11.7,4,14.4,9.5c4.2,7.9,2.1,13.4,0.7,15.7&#10;&#9;&#9;c2.6,2.1,8.4,7.8,7.4,15.4c-0.3,3.6-1.8,7-4.1,9.8c4.1,4.3,5.5,10.5,3.8,16.2c-1.4,5.6-5.2,10.4-10.3,13c0.9,3.1,2.4,10.9-3.6,16.1&#10;&#9;&#9;c-3.6,3.2-7.9,5.7-12.6,7.1c-0.9,2.5-4.1,9.5-13.9,11.4C281.5,288.4,279.7,288.6,277.9,288.6z M260.5,272c0.1,0.5,0.2,0.9,0.4,1.3&#10;&#9;&#9;c3.9,9.8,11.5,13.9,21.9,12c9.9-1.9,11.9-10,11.9-10.1c0.1-0.5,0.6-1,1.1-1.1c0.1,0,5.8-1.2,12.1-6.7c5.9-5.1,2.4-14.2,2.4-14.2&#10;&#9;&#9;c-0.1-0.4-0.1-0.8,0-1.1c0.2-0.3,0.5-0.6,0.8-0.7c0.3-0.1,7.2-2.5,9.8-11.6c1.6-5.2,0-10.8-4-14.4c-0.6-0.5-0.7-1.4-0.2-2&#10;&#9;&#9;c0.1-0.1,0.2-0.2,0.3-0.3c0.1-0.1,3.3-2.6,4.1-9.1c1-7.8-7.3-13.5-7.4-13.6c-0.3-0.2-0.6-0.6-0.6-1c0-0.4,0.1-0.8,0.4-1.1&#10;&#9;&#9;c0.2-0.2,4.4-5.1-0.2-13.8c-2.5-5.2-7.9-8.3-13.7-8c-0.5,0-1-0.2-1.2-0.6c-0.3-0.4-0.4-0.9-0.2-1.4c0,0,2-5.3,0-13.1&#10;&#9;&#9;c-0.8-3.2-5.8-7.2-13.3-10.7c-6.4-3-13.7-5.1-16.9-5c-2.9,0.2-5.6,1.3-7.6,3.3L260.5,272z"/>
	<path class="st1_brainstorming-31" d="M303.8,232.9c-0.3,0-0.7,0-1,0c-0.8-0.1-1.3-0.8-1.3-1.5c0.1-0.7,0.7-1.3,1.5-1.3c7,0.6,13.8-6.6,13.9-6.7&#10;&#9;&#9;c0.6-0.5,1.5-0.4,2,0.2c0.4,0.5,0.4,1.2,0,1.7C318.7,225.6,311.7,232.9,303.8,232.9z"/>
	<path class="st1_brainstorming-31" d="M286.2,211.8c-5.5-0.1-10.8-2.5-14.4-6.8c-0.5-0.6-0.4-1.5,0.2-2c0.6-0.5,1.5-0.4,2,0.2&#10;&#9;&#9;c4.1,4.8,10.6,6.8,16.7,5.1c10.3-2.7,11.4-14.9,11.4-15.4c0.1-0.8,0.7-1.3,1.5-1.3c0.8,0.1,1.3,0.7,1.3,1.5c0,0,0,0,0,0&#10;&#9;&#9;c0,0.6-1.3,14.6-13.5,17.9C289.7,211.6,288,211.8,286.2,211.8z"/>
	<path class="st1_brainstorming-31" d="M296.6,224.2c-4.2,0-7.5-1.2-9.8-3.6c-3.9-4.1-3.5-10.1-3.4-10.3c0.1-0.8,0.7-1.3,1.5-1.3&#10;&#9;&#9;c0.8,0.1,1.3,0.7,1.3,1.5l0,0c0,0.1-0.4,5,2.7,8.1c1.9,2,4.9,2.9,8.8,2.7c0.8-0.1,1.4,0.5,1.5,1.3c0,0,0,0,0,0.1&#10;&#9;&#9;c0,0.8-0.6,1.4-1.3,1.5L296.6,224.2z"/>
	<path class="st1_brainstorming-31" d="M279.8,195.2h-0.2c-0.8-0.1-1.3-0.9-1.1-1.6c0,0,0,0,0,0c3.4-19.3,21-19.7,21.2-19.7l0,0&#10;&#9;&#9;c0.8,0,1.4,0.6,1.4,1.4c0,0.8-0.6,1.4-1.4,1.4l0,0c-0.6,0-15.5,0.4-18.5,17.4C281,194.7,280.4,195.2,279.8,195.2z"/>
	<path class="st1_brainstorming-31" d="M276.8,271.9L276.8,271.9c-0.8,0-1.4-0.6-1.4-1.4c0,0,0,0,0,0c0.3-20.8,21-21.4,21.2-21.4&#10;&#9;&#9;c0.8,0,1.4,0.6,1.4,1.4c0,0,0,0,0,0c0,0.8-0.6,1.4-1.4,1.4c-0.7,0-18.2,0.6-18.5,18.6C278.2,271.3,277.6,271.9,276.8,271.9&#10;&#9;&#9;C276.8,271.9,276.8,271.9,276.8,271.9z"/>
	<path class="st1_brainstorming-31" d="M289.7,253.3h-0.2c-0.8-0.1-1.3-0.8-1.2-1.6c0.1-0.7,2-17.6-15.6-19.8c-0.8-0.1-1.3-0.8-1.2-1.6&#10;&#9;&#9;s0.8-1.3,1.6-1.2c20.4,2.6,18,22.8,18,23C291,252.8,290.4,253.3,289.7,253.3z"/>
	<path class="st1_brainstorming-31" d="M259.1,183.2L259.1,183.2c-0.8,0-1.4-0.7-1.4-1.5c0-0.3,0.4-6.3,9.2-8.6c0.8-0.2,1.5,0.3,1.7,1&#10;&#9;&#9;c0.2,0.8-0.3,1.5-1,1.7c-6.8,1.7-7.1,6-7.1,6C260.4,182.6,259.8,183.2,259.1,183.2z"/>
	<path class="st1_brainstorming-31" d="M278.2,160.2c-0.8,0-1.4-0.7-1.4-1.4c0-0.3,0.1-0.7,0.4-0.9c7.5-8.4,16.4-5.2,16.7-5c0.7,0.3,1.1,1.1,0.8,1.8&#10;&#9;&#9;s-1.1,1.1-1.8,0.8l0,0c-0.3-0.1-7.5-2.6-13.7,4.3C279,160.1,278.6,160.3,278.2,160.2z"/>
	<path class="st1_brainstorming-31" d="M293.9,251.9h-0.1c-0.8-0.1-1.3-0.7-1.3-1.5c0.4-3.9,3-7.3,6.6-8.9c0.7-0.3,1.5,0,1.8,0.7c0,0,0,0,0,0&#10;&#9;&#9;c0.3,0.7,0,1.5-0.8,1.8c-2.7,1.2-4.5,3.7-4.9,6.6C295.2,251.4,294.6,251.9,293.9,251.9z"/>
</g>
<g id="Rotating_Lines_brainstorming-31">
	<path class="st2_brainstorming-31" d="M424.4,184.2c-3.6-11.7-24.7-17.1-59.4-15.3c-5.4,0.3-11,0.7-16.8,1.3c0.2,0.4,0.4,0.9,0.6,1.4&#10;&#9;&#9;c9.6-1,19.2-1.6,28.9-1.6c25.5,0,42.2,4.8,45.2,14.7c4.7,15.3-24.7,39.1-72.4,61.6c-26.8,12.5-54.5,23.1-82.9,31.7&#10;&#9;&#9;c-23.8,7.4-48,13.4-72.5,18c-16.7,3.2-33.5,5.2-50.5,6.3c-33.5,1.7-54.6-3.5-57.9-14.3c-4.6-14.8,22.8-37.5,67.6-59.3&#10;&#9;&#9;c-0.1-0.5-0.2-1-0.2-1.5c-10.3,5-19.7,10.1-28.2,15.3c-29.7,18-44.1,34.3-40.5,46c3.1,10.1,19.6,15.6,46.9,15.6&#10;&#9;&#9;c3.9,0,8.1-0.1,12.5-0.3c17.2-1,34.4-3.2,51.3-6.4c24.3-4.6,48.4-10.5,72-17.9c27.9-8.5,55.2-18.9,81.7-31.1&#10;&#9;&#9;c11.6-5.4,23-11.4,34-18C413.6,212.2,428,195.9,424.4,184.2z"/>
	<path class="st2_brainstorming-31" d="M383.9,242.4c-8.5-5.1-18-10.3-28.2-15.3c-0.1,0.5-0.2,1-0.2,1.5c44.8,21.9,72.2,44.5,67.6,59.3&#10;&#9;&#9;c-3.3,10.8-24.4,16-57.9,14.3c-16.9-1-33.8-3.1-50.5-6.3c-24.5-4.6-48.7-10.5-72.5-17.9c-28.3-8.6-56-19.2-82.9-31.7&#10;&#9;&#9;c-11.1-5.2-21.9-11-32.5-17.3c-28.7-17.3-43.2-33.5-39.9-44.3c3.1-9.9,19.8-14.7,45.2-14.7c9.6,0.1,19.3,0.6,28.9,1.7&#10;&#9;&#9;c0.2-0.5,0.4-0.9,0.6-1.4c-5.8-0.6-11.4-1.1-16.8-1.3c-34.7-1.8-55.8,3.6-59.4,15.3s10.8,28,40.6,46c11,6.6,22.4,12.6,34,18&#10;&#9;&#9;c26.5,12.3,53.8,22.7,81.7,31.1c23.6,7.3,47.7,13.3,72,17.9c16.9,3.2,34.1,5.4,51.3,6.4c4.4,0.2,8.5,0.3,12.5,0.3&#10;&#9;&#9;c27.3,0,43.8-5.5,46.9-15.6C428,276.7,413.6,260.3,383.9,242.4z"/>
</g>
<g id="Details_brainstorming-31">
	<path class="st3_brainstorming-31" d="M134.2,270.4c-4.7,0-4.7,7.4,0,7.4S139,270.4,134.2,270.4z"/>
	<path class="st3_brainstorming-31" d="M71,215.7c-0.1-0.2-0.2-0.5-0.4-0.6l-0.8-0.8c-0.1-0.1-0.3-0.2-0.5-0.3c-0.2-0.1-0.4-0.1-0.6-0.1&#10;&#9;&#9;c-0.2,0-0.4,0-0.6,0.1c-0.2,0.1-0.3,0.2-0.5,0.3l-0.2,0.3c-0.1,0.2-0.2,0.5-0.2,0.7v0.4c0.1,0.2,0.2,0.5,0.4,0.6l0.8,0.8&#10;&#9;&#9;c0.1,0.1,0.3,0.2,0.5,0.3c0.2,0.1,0.4,0.1,0.6,0.1c0.2,0,0.4,0,0.6-0.1c0.2-0.1,0.3-0.2,0.5-0.3l0.2-0.3c0.1-0.2,0.2-0.5,0.2-0.7&#10;&#9;&#9;L71,215.7z"/>
	<path class="st3_brainstorming-31" d="M133.9,195.6c-0.1-0.4-0.4-0.7-0.8-0.8c-0.2-0.1-0.4-0.1-0.6-0.1l-0.4,0.1c-0.2,0.1-0.5,0.2-0.6,0.4l-0.2,0.3&#10;&#9;&#9;c-0.1,0.2-0.2,0.5-0.2,0.8v0.8c0,0.2,0,0.4,0.1,0.6c0.1,0.4,0.4,0.6,0.8,0.8c0.2,0.1,0.4,0.1,0.6,0.1l0.4-0.1&#10;&#9;&#9;c0.2-0.1,0.5-0.2,0.6-0.4l0.2-0.3c0.1-0.2,0.2-0.5,0.2-0.8v-0.8C134,196,134,195.8,133.9,195.6z"/>
	<path class="st3_brainstorming-31" d="M382.8,279.5c-4.7,0-4.7,7.4,0,7.4S387.5,279.5,382.8,279.5z"/>
	<path class="st3_brainstorming-31" d="M429.1,228.9c-4.7,0-4.7,7.4,0,7.4S433.9,228.9,429.1,228.9z"/>
	<path class="st3_brainstorming-31" d="M321.8,345.3c-0.2-0.5-0.6-1-1.2-1.2c-0.3-0.1-0.6-0.2-0.9-0.2l-0.6,0.1c-0.4,0.1-0.7,0.3-1,0.6l-0.4,0.5&#10;&#9;&#9;c-0.2,0.3-0.3,0.7-0.3,1.1v0.8c0,0.6,0.3,1.1,0.6,1.6c0.2,0.2,0.4,0.4,0.7,0.5c0.3,0.1,0.6,0.2,0.9,0.2l0.6-0.1&#10;&#9;&#9;c0.4-0.1,0.7-0.3,1-0.6l0.4-0.5c0.2-0.3,0.3-0.7,0.3-1.1v-0.8C322,345.8,321.9,345.5,321.8,345.3z"/>
	<path class="st3_brainstorming-31" d="M379.3,199.2c-2.8,0-5-2.2-5-5s2.2-5,5-5s5,2.2,5,5S382.1,199.2,379.3,199.2z M379.3,190.5&#10;&#9;&#9;c-2,0-3.6,1.6-3.6,3.6s1.6,3.6,3.6,3.6c2,0,3.6-1.6,3.6-3.6S381.3,190.5,379.3,190.5L379.3,190.5z"/>
	<path class="st3_brainstorming-31" d="M263.1,98.6c-2.8,0-5-2.2-5-5s2.2-5,5-5s5,2.2,5,5S265.9,98.6,263.1,98.6z M263.1,90c-2,0-3.6,1.6-3.6,3.6&#10;&#9;&#9;s1.6,3.6,3.6,3.6c2,0,3.6-1.6,3.6-3.6C266.8,91.6,265.1,90,263.1,90L263.1,90z"/>
	<path class="st3_brainstorming-31" d="M104.5,237c-2,0-3.6-1.6-3.6-3.6c0-2,1.6-3.6,3.6-3.6c2,0,3.6,1.6,3.6,3.6c0,0,0,0,0,0&#10;&#9;&#9;C108.1,235.4,106.5,237,104.5,237z M104.5,231.2c-1.2,0-2.2,1-2.2,2.2c0,1.2,1,2.2,2.2,2.2c1.2,0,2.2-1,2.2-2.2c0,0,0,0,0,0&#10;&#9;&#9;C106.7,232.2,105.7,231.2,104.5,231.2C104.5,231.2,104.5,231.2,104.5,231.2L104.5,231.2z"/>
	<path class="st3_brainstorming-31" d="M310.7,101.9c-0.8,0-1.5,0.7-1.5,1.5s0.7,1.5,1.5,1.5s1.5-0.7,1.5-1.5S311.5,101.9,310.7,101.9z"/>
	<path class="st3_brainstorming-31" d="M193.9,103.8c-3.8,0-3.8,5.9,0,5.9S197.7,103.8,193.9,103.8z"/>
</g>
<g id="Bubbles_brainstorming-31">
	<path class="st1_brainstorming-31" d="M183.8,316l-13.2,7.6c-1.2-0.4-2.4-0.7-3.6-0.7h-49c-5.7,0-10.3,4.6-10.3,10.3v25.6c0,5.7,4.6,10.3,10.3,10.3&#10;&#9;&#9;c0,0,0,0,0,0h49c5.7,0,10.3-4.6,10.3-10.3v-25.6c0-1.5-0.3-2.9-0.9-4.2L183.8,316z"/>
	<path class="st3_brainstorming-31" d="M167,369.8h-49c-6.1,0-11-4.9-11-11v-25.6c0-6.1,4.9-11,11-11h49c1.2,0,2.4,0.2,3.5,0.6l12.9-7.4&#10;&#9;&#9;c0.3-0.3,0.7-0.3,1,0s0.3,0.7,0,1l-7.3,12.6c0.6,1.3,0.8,2.8,0.8,4.2v25.6C178,364.9,173.1,369.8,167,369.8z M118,323.6&#10;&#9;&#9;c-5.3,0-9.6,4.3-9.6,9.6v25.6c0,5.3,4.3,9.6,9.6,9.6h49c5.3,0,9.6-4.3,9.6-9.6v-25.6c0-1.4-0.3-2.7-0.9-4c-0.1-0.2-0.1-0.4,0-0.6&#10;&#9;&#9;l6.1-10.7l-11,6.3c-0.2,0.1-0.4,0.1-0.6,0c-1.1-0.4-2.2-0.6-3.4-0.6L118,323.6z"/>
	<path class="st1_brainstorming-31" d="M370.3,322.9c-7.8-0.1-15.5,1.5-22.6,4.6l-16.3-8.6l5.4,16.2c-3.4,3.4-5.3,7.9-5.4,12.7&#10;&#9;&#9;c0,13.7,17.4,24.9,38.9,24.9s38.9-11.1,38.9-24.9S391.8,322.9,370.3,322.9z"/>
	<path class="st3_brainstorming-31" d="M370.3,373.3c-21.9,0-39.6-11.5-39.6-25.5c0.1-4.8,2-9.4,5.3-12.9l-5.3-15.8c-0.1-0.4,0.1-0.8,0.5-0.9&#10;&#9;&#9;c0.2-0.1,0.4,0,0.5,0l16,8.5c7.1-3.1,14.8-4.6,22.6-4.6c21.9,0,39.6,11.5,39.6,25.6S392.2,373.3,370.3,373.3z M332.6,320.3&#10;&#9;&#9;l4.9,14.5c0.1,0.2,0,0.5-0.1,0.7c-3.3,3.2-5.1,7.6-5.3,12.2c0,13.3,17.1,24.1,38.2,24.1s38.2-10.8,38.2-24.1s-17.1-24.2-38.2-24.2&#10;&#9;&#9;c-7.7-0.1-15.3,1.5-22.3,4.6c-0.2,0.1-0.4,0.1-0.6,0L332.6,320.3z"/>
	<path class="st1_brainstorming-31" d="M161.2,93.6h-54V141h46.3l7.7,7.2l-2.4-7.2h2.4V93.6z"/>
	<path class="st3_brainstorming-31" d="M161.2,148.9c-0.2,0-0.3-0.1-0.5-0.2l-7.5-7h-46c-0.4,0-0.7-0.3-0.7-0.7V93.6c0-0.4,0.3-0.7,0.7-0.7h54&#10;&#9;&#9;c0.4,0,0.7,0.3,0.7,0.7V141c0,0.4-0.3,0.7-0.7,0.7h-1.4l2.1,6.3c0.1,0.4-0.1,0.8-0.5,0.9C161.4,148.9,161.3,148.9,161.2,148.9&#10;&#9;&#9;L161.2,148.9z M107.9,140.3h45.6c0.2,0,0.3,0.1,0.5,0.2l5.7,5.3l-1.5-4.6c-0.1-0.2,0-0.4,0.1-0.6c0.1-0.2,0.3-0.3,0.6-0.3h1.7v-46&#10;&#9;&#9;h-52.6L107.9,140.3z"/>
	<path class="st1_brainstorming-31" d="M398.5,111.3c-4.3,0.1-8.3,2-11.1,5.3c-6.9-5-15.4-7.1-23.9-5.8c-3.9,0.6-7.4,1.6-10.2,4.2&#10;&#9;&#9;c-1,0.9-4.9,9.2-4.5,9.1c-5.1,1.3-8.3,7-7.5,12.1s4.8,9.5,9.7,11.3c1.6,0.6,3.3,1,5,1.4c-2.3,3.2-5.1,5.9-8.3,8.1&#10;&#9;&#9;c5.5-0.1,10.7-2.5,14.3-6.6c2.5,0.9,4.7,2.3,7.1,3.3c5.9,2.5,12.6,2.4,18.8,1.2c4.5-0.9,8.9-2.4,12.5-5.3s6-7.3,5.7-11.9&#10;&#9;&#9;c5.5,1.6,11.1-4.2,11-10C416.9,117.8,407.5,111,398.5,111.3z"/>
	<path class="st3_brainstorming-31" d="M347.6,157.8c-0.3,0-0.6-0.2-0.7-0.5c-0.1-0.3,0-0.6,0.3-0.8c2.9-1.9,5.4-4.3,7.5-7.1c-1.4-0.3-2.7-0.7-4-1.1&#10;&#9;&#9;c-5.4-2.1-9.4-6.7-10.1-11.9c-0.8-5.5,2.7-11.2,7.6-12.8c0.5-1.4,1.1-2.8,1.8-4.1c0.8-1.7,1.7-3.4,2.8-4.9c3.2-3,7.2-3.9,10.6-4.4&#10;&#9;&#9;c8.4-1.3,16.9,0.7,23.9,5.6c2.9-3.1,6.9-4.9,11.2-5l0,0c5.2-0.2,10.2,1.8,14,5.3c3.3,3.1,5.2,7.3,5.3,11.8&#10;&#9;&#9;c-0.1,3.6-1.7,6.9-4.5,9.1c-1.8,1.5-4.2,2.1-6.5,1.8c-0.2,4.5-2.4,8.7-6,11.5c-3.2,2.6-7.3,4.4-12.8,5.4c-7.3,1.4-13.8,1-19.2-1.2&#10;&#9;&#9;c-1.1-0.5-2.2-1-3.2-1.5s-2.3-1.1-3.4-1.6C358.4,155.4,353.1,157.8,347.6,157.8L347.6,157.8z M348.9,124.8c-4.5,1.1-7.7,6.3-7,11.3&#10;&#9;&#9;c0.7,4.7,4.3,8.9,9.2,10.8c1.6,0.6,3.2,1,4.9,1.3c0.4,0.1,0.6,0.5,0.5,0.8c0,0.1-0.1,0.2-0.1,0.3c-1.8,2.6-4,4.9-6.5,6.9&#10;&#9;&#9;c4.4-0.7,8.4-2.9,11.4-6.2c0.2-0.2,0.5-0.3,0.8-0.2c1.4,0.5,2.7,1.2,4,1.9c1,0.5,2,1,3.1,1.5c5.2,2.1,11.4,2.5,18.4,1.2&#10;&#9;&#9;c5.2-1,9.2-2.7,12.1-5.1c3.6-3,5.7-7.3,5.4-11.3c0-0.2,0.1-0.5,0.3-0.6c0.2-0.1,0.4-0.2,0.6-0.1c2.2,0.6,4.4,0,6.1-1.4&#10;&#9;&#9;c2.5-1.9,3.9-4.8,4-7.9c-0.1-4.1-1.8-8-4.8-10.8c-3.5-3.3-8.2-5.1-13-4.9l0,0c-4.1,0.1-7.9,1.9-10.6,5c-0.2,0.3-0.7,0.3-1,0.1&#10;&#9;&#9;c-6.7-4.9-15.1-7-23.3-5.7c-3.2,0.5-6.9,1.3-9.9,4.1c-0.7,0.7-3.9,7.2-4.3,8.5C349.5,124.4,349.3,124.7,348.9,124.8L348.9,124.8z&#10;&#9;&#9; M398.4,111.3L398.4,111.3z"/>
	<path class="st3_brainstorming-31" d="M163.7,340.5h-38.4c-0.4,0-0.7-0.3-0.7-0.7c0-0.4,0.3-0.7,0.7-0.7h38.4c0.4,0,0.7,0.3,0.7,0.7&#10;&#9;&#9;C164.4,340.2,164.1,340.5,163.7,340.5z"/>
	<path class="st3_brainstorming-31" d="M153.1,352.5h-27.7c-0.4,0-0.7-0.3-0.7-0.7c0-0.4,0.3-0.7,0.7-0.7h27.7c0.4,0,0.7,0.3,0.7,0.7&#10;&#9;&#9;C153.8,352.2,153.5,352.5,153.1,352.5C153.1,352.5,153.1,352.5,153.1,352.5z"/>
	<path class="st3_brainstorming-31" d="M392.5,342.2h-43.8c-0.4,0-0.7-0.3-0.7-0.7s0.3-0.7,0.7-0.7c0,0,0,0,0,0h43.8c0.4,0,0.7,0.3,0.7,0.7&#10;&#9;&#9;S392.9,342.2,392.5,342.2C392.5,342.2,392.5,342.2,392.5,342.2L392.5,342.2z"/>
	<path class="st3_brainstorming-31" d="M385.2,355.2h-36.5c-0.4,0-0.7-0.3-0.7-0.7s0.3-0.7,0.7-0.7c0,0,0,0,0,0h36.5c0.4,0,0.7,0.3,0.7,0.7&#10;&#9;&#9;S385.6,355.2,385.2,355.2C385.2,355.2,385.2,355.2,385.2,355.2z"/>
	<path class="st3_brainstorming-31" d="M151.4,104.4h-34.8c-0.4,0-0.7-0.3-0.7-0.7c0-0.4,0.3-0.7,0.7-0.7h34.8c0.4,0,0.7,0.3,0.7,0.7&#10;&#9;&#9;C152.1,104.1,151.8,104.4,151.4,104.4z"/>
	<path class="st3_brainstorming-31" d="M151.4,113h-34.8c-0.4,0-0.7-0.3-0.7-0.7c0-0.4,0.3-0.7,0.7-0.7h34.8c0.4,0,0.7,0.3,0.7,0.7&#10;&#9;&#9;C152.1,112.7,151.8,113,151.4,113z"/>
	<path class="st3_brainstorming-31" d="M151.4,121.6h-34.8c-0.4,0-0.7-0.3-0.7-0.7c0-0.4,0.3-0.7,0.7-0.7h34.8c0.4,0,0.7,0.3,0.7,0.7&#10;&#9;&#9;C152.1,121.3,151.8,121.6,151.4,121.6z"/>
	<path class="st3_brainstorming-31" d="M143.2,130.2h-26.6c-0.4,0-0.7-0.3-0.7-0.7c0-0.4,0.3-0.7,0.7-0.7c0,0,0,0,0,0h26.6c0.4,0,0.7,0.3,0.7,0.7&#10;&#9;&#9;C143.9,129.9,143.6,130.2,143.2,130.2z"/>
	<path class="st3_brainstorming-31" d="M364,131.8c-0.8,0-1.4,0.6-1.4,1.4c0,0.8,0.6,1.4,1.4,1.4s1.4-0.6,1.4-1.4C365.4,132.4,364.8,131.8,364,131.8z&#10;&#9;&#9;"/>
	<path class="st3_brainstorming-31" d="M378,131.8c-0.8,0-1.4,0.6-1.4,1.4c0,0.8,0.6,1.4,1.4,1.4s1.4-0.6,1.4-1.4C379.4,132.4,378.8,131.8,378,131.8z&#10;&#9;&#9;"/>
	<path class="st3_brainstorming-31" d="M392,131.8c-0.8,0-1.4,0.6-1.4,1.4c0,0.8,0.6,1.4,1.4,1.4s1.4-0.6,1.4-1.4C393.4,132.4,392.8,131.8,392,131.8z&#10;&#9;&#9;"/>
</g>
</svg>