<?xml version='1.0' encoding='utf-8'?>
<svg xmlns:svg="http://www.w3.org/2000/svg" version="1.1" id="Layer_1" x="0px" y="0px" viewBox="0 0 500 500" style="width: 180px;" xml:space="preserve" data-imageid="sushi-85" imageName="Sushi" class="illustrations_image"><svg:style type="text/css">
	.st0_sushi-85{fill:#B2581B;}
	.st1_sushi-85{fill:#68E1FD;}
	.st2_sushi-85{opacity:0.16;fill:#02180C;enable-background:new    ;}
	.st3_sushi-85{opacity:0.45;fill:#02180C;enable-background:new    ;}
	.st4_sushi-85{opacity:0.5;fill:#02180C;enable-background:new    ;}
	.st5_sushi-85{opacity:0.45;}
	.st6_sushi-85{fill:none;}
	.st7_sushi-85{fill:#02180C;}
	.st8_sushi-85{fill:#7C7C7C;}
	.st9_sushi-85{fill:#DFE0E2;}
	.st10_sushi-85{fill:#65A818;}
	.st11_sushi-85{fill:#EC6B20;}
	.st12_sushi-85{fill:#FFD217;}
	.st13_sushi-85{fill:#552D2E;}
	.st14_sushi-85{opacity:0.8;fill:#DFE0E2;enable-background:new    ;}
	.st15_sushi-85{fill:#D33C3C;}
</svg:style><svg:path class="st13_sushi-85" d="M 176.61763158086256 184.4617888393578 L 176.61625827965813 184.4654443794314 L 176.6015673441836 184.50501836641894 L 176.60022250347492 184.50868488146642 L 176.58584013267995 184.5483751212791 L 176.58452369390508 184.55205281231085 L 176.5704511245218 184.59185621311823 L 176.56916304075392 184.59554528457525 L 176.55540150951458 184.63545875454687 L 176.55414174555418 184.639159414003 L 176.54069248919095 184.6791798613084 L 176.53946102165463 184.68289231917424 L 176.52632527689966 184.72301665198302 L 176.52512209430716 184.72674112120689 L 176.51230109789267 184.76696624768852 L 176.5111262007528 184.77070294345177 L 176.49862118941093 184.8110257717758 L 176.49747459030328 184.81477491119185 L 176.48528680076626 184.85519234952787 L 176.48416852442404 184.8589541513278 L 176.472299193424 184.89946310784532 L 176.47120927681087 184.90323779207202 L 176.45965964108004 184.9438351749406 L 176.45859813346823 184.9476229626271 L 176.44736942973876 184.98830568001625 L 176.44633639278214 184.99210679286892 L 176.43542985778623 185.03287175294824 L 176.43442536559277 185.0366864130182 L 176.4238422360626 185.07753052395722 L 176.42286637526294 185.0813589533106 L 176.41260788793068 185.12227912327882 L 176.41166075774416 185.1261215436605 L 176.401728149342 185.1671146808275 L 176.40080986164023 185.17097131331667 L 176.39120436890036 185.212034325852 L 176.39031504826644 185.2159053905141 L 176.38103790792104 185.25703518658727 L 176.3801776917058 185.26092090211813 L 176.37123014048706 185.30211438989872 L 176.3703991788615 185.30601497325944 L 176.3617824535016 185.34726906091694 L 176.36098090950458 185.35118472696456 L 176.35269624673566 185.39249632266856 L 176.351924296317 185.39642728377748 L 176.3439729328713 185.43779329569753 L 176.34323076493072 185.4417397613697 L 176.33561393754042 185.4831570976753 L 176.33490175395994 185.4871192741463 L 176.32762069935717 185.52858484300702 L 176.32693871502795 185.53256293284184 L 176.31999466994495 185.57407364242724 L 176.3193431127885 185.57806784410286 L 176.3127373139574 185.61962060258244 L 176.31211642493838 185.62363111006772 L 176.3058501090914 185.6652228256111 L 176.30526014222463 185.66924982792975 L 176.29933454609395 185.71087740870638 L 176.29877576844194 185.7149210894956 L 176.29319212875976 185.7565814436751 L 176.29266482042263 185.7606419807285 L 176.28742437392108 185.80233201648036 L 176.28692882801624 185.8064095812863 L 176.28203281142754 185.84812620678008 L 176.28156933406024 185.85222096404263 L 176.27701898411655 185.89396108744788 L 176.276587894339 185.8980731946024 L 176.27238444777254 185.9398337240887 L 176.27198607753198 185.94396333080175 L 176.26813077107488 185.9857411745386 L 176.26776546514904 185.9898884222018 L 176.26425953553354 186.03168048835872 L 176.26392765145349 186.0358455095646 L 176.26077233541173 186.07764870631118 L 176.2604742433702 186.08183162432502 L 176.2576707776344 186.12364285983077 L 176.25740686037986 186.12784378804483 L 176.25495648168214 186.16965997047933 L 176.25472713439677 186.1738790118614 L 176.25263107946938 186.21569704939415 L 176.2524367096307 186.219934295919 L 176.25069621520578 186.26175109671956 L 176.2505372424304 186.26600662879596 L 176.24915354524015 186.3078191010339 L 176.24903040110914 186.31209298691542 L 176.24800473788574 186.35389803876026 L 176.24791786575025 186.35819033394938 L 176.2472514732259 186.39998487357067 L 176.24720132799237 186.40429562020992 L 176.24689544289922 186.44607655577718 L 176.2468824907926 186.45040578203438 L 176.24693834986283 186.49217002171721 L 176.24696306816733 186.49651774115694 L 176.24738190813315 186.53826219312484 L 176.24744478490896 186.54262840407546 L 176.24822784250256 186.58434997649798 L 176.24832937627792 186.58873466140733 L 176.24947788823147 186.630430262454 L 176.2496185876684 186.63483338724038 L 176.25113379071405 186.67649992508078 L 176.25131417424737 186.68092143847775 L 176.25319730511734 186.7225558212814 L 176.25341790056507 186.72699565417284 L 176.25567019599154 186.7685947901093 L 176.25593154013646 186.77305285486506 L 176.25855423685158 186.81461365210384 L 176.25885687499226 186.81908984191082 L 176.26185120972826 186.8606092086215 L 176.2621956951985 186.86510339680805 L 176.26556290468753 186.90657824116016 L 176.26594979834385 186.9110902805268 L 176.2696911193181 186.95251751068986 L 176.2701209889935 186.9570472328337 L 176.27423765818517 186.9984237569773 L 176.27471107810862 187.0029709716232 L 176.2792043322499 187.04429369791683 L 176.2797218824304 187.04885819224805 L 176.28459295825343 187.0901240288613 L 176.28515522382864 187.0947055668605 L 176.2904053580656 187.1359114219629 L 176.29101292861262 187.1405097437542 L 176.29664335799572 187.1816525255153 L 176.2972968268049 187.1862673467203 L 176.30330878806632 187.22734396330964 L 176.30400875137698 187.2319749744128 L 176.31040348124893 187.2729823339999 L 176.31115053744546 187.2776291997245 L 176.31792927266005 187.31856421047888 L 176.3187240214301 187.32322656918546 L 176.3258879987196 187.36408613927676 L 176.32673104017144 187.36876360237125 L 176.33428149626798 187.4095446399689 L 176.33517343000895 187.41423679133646 L 176.3431116016447 187.4549362046101 L 176.3440530258199 187.45964260007227 L 176.35238014972705 187.5002572971914 L 176.35337166001776 187.50497746398545 L 176.36208897292855 187.54550435311964 L 176.36313116151103 187.55023778940716 L 176.37223990015755 187.59067377872591 L 176.37333335462452 187.5954199531393 L 176.38283475573903 187.63576195081217 L 176.3839800579795 187.64052030202362 L 176.39387535829414 187.68076521622018 L 176.39507308333873 187.68553515256008 L 176.4053635195857 187.72567989144983 L 176.4066142344126 187.7304607905566 L 176.41730104332407 187.77050226230912 L 176.41860530563093 187.77529347082836 L 176.4296897239391 187.8152285836132 L 176.43104808087998 187.8200294169407 L 176.442531345317 187.85985507892738 L 176.44394433220677 187.86466482100334 L 176.4558276795049 187.9043779403614 L 176.45729581849216 187.90919584351488 L 176.4695804853835 187.94879332841384 L 176.47110428409638 187.95361861326944 L 176.48379150731313 187.99309737187892 L 176.4853714574771 187.9979292273172 L 176.4984624737515 188.03728616780668 L 176.50009904978288 188.04212375098706 L 176.51359509584702 188.0813557815261 L 176.5152887534279 188.08619821798143 L 176.52919106601402 188.12530224673958 L 176.5309422406465 188.13014863053203 L 176.5452520564868 188.1691215656788 L 176.54706116203357 188.1739709596295 L 176.56177971786016 188.21280970933446 L 176.56364714507518 188.2176611453304 L 176.5787756776203 188.25636261776313 L 176.58070179266971 188.26121509713388 L 176.59624153866554 188.2997762004639 L 176.59822668164804 188.30462869444384 L 176.61417887782673 188.34304633684064 L 176.61622336129363 188.34789778710797 L 176.63258924438742 188.38616887674118 L 176.6346933518683 188.3910181960401 L 176.6514741586093 188.42913964107922 L 176.65363814314992 188.43398571393067 L 176.6708351102704 188.47195442254522 L 176.6730591929828 188.47679610603544 L 176.69067355721484 188.514608986395 L 176.69295792585302 188.5194451110627 L 176.71099092392888 188.5570990713368 L 176.71333573148473 188.5619284421357 L 176.73178860013658 188.5994203904939 L 176.73419396347174 188.60424178785226 L 176.7530679394317 188.64156863246407 L 176.75553393794533 188.64638081343105 L 176.77483025794567 188.68353946246603 L 176.77735693228274 188.68834116194063 L 176.7970768330556 188.72532852356832 L 176.7996641838675 188.7301184556234 L 176.81980890214507 188.76693143801336 L 176.82245688890126 188.77170829729923 L 176.8430276614157 188.808343808621 L 176.8457362012781 188.81310627185823 L 176.86673426476162 188.84956122028134 L 176.8671122800085 188.84934348336233 L 176.8873569794219 188.88235746416237 L 176.91761189969435 188.92214801061726 L 176.95168863269058 188.95871881941576 L 176.98924659539645 188.99170438027588 L 177.02991041133026 189.0207750160029 L 177.04867476026996 189.03153478507406 L 177.03961630564905 189.01804846171927 L 177.03870059037556 189.01668027393623 L 177.02293957238007 188.99304735253776 L 177.0220378844057 188.99169052952362 L 177.00634364994806 188.96799082458733 L 177.00545584255434 188.96664544973828 L 176.9898277732685 188.9428795796302 L 176.9889537001419 188.9415457331377 L 176.9733911776617 188.91771431622394 L 176.97253069295263 188.91639207513367 L 176.95703309891204 188.89249572978034 L 176.95618605730073 188.89118516806505 L 176.94075277333363 188.86722451263822 L 176.93991903008822 188.86592570126248 L 176.92454943782852 188.84190135412825 L 176.92372884886214 188.84061436111523 L 176.90842232994373 188.81652694063968 L 176.90761475186986 188.81525183113894 L 176.89237068792667 188.7911019556882 L 176.89157597811138 188.78983879204142 L 176.8763937507774 188.76562707998164 L 176.8519654767269 188.72195735165886 L 176.8320243324867 188.6760646887239 L 176.81677003146754 188.6284087127577 L 176.80635534767524 188.57946670517345 L 176.80088458565703 188.52972882717478 L 176.80041253587672 188.47969321072134 L 176.80494392598038 188.42986096966595 L 176.8144333734482 188.38073118102784 L 176.828785840107 188.3327958866647 L 176.8478575839511 188.2865351654034 L 176.87145759873903 188.24241232498167 L 176.92606437458852 188.1515643492546 L 176.92647388770607 188.15088427543492 L 176.98120371840776 188.06015811782783 L 176.98161513740723 188.05947732962957 L 177.03646864132716 187.96887237177637 L 177.036881960592 187.96819089312345 L 177.09185975609626 187.87770651665804 L 177.0922749698135 187.87702437155755 L 177.14737767526822 187.78665995811386 L 177.14779477742738 187.78597717065438 L 177.20302301119864 187.6957321018663 L 177.20344199559207 187.69504869621338 L 177.25879637604592 187.60492235371484 L 177.2592172362684 187.60423835410825 L 177.31469838177097 187.51423011953312 L 177.3151211112192 187.51354555028405 L 177.37072964013657 187.42365480526627 L 177.37115423200936 187.4229696907536 L 177.42689076270764 187.3331958169271 L 177.42731721000501 187.3325101815952 L 177.48318236085026 187.24285256059383 L 177.48361065637448 187.24216642894777 L 177.5396050457328 187.15262444240548 L 177.54003518208725 187.1519378390091 L 177.59615942832477 187.06251086855977 L 177.59659139791452 187.06182381803197 L 177.65284611939728 186.97251124530956 L 177.65327991442882 186.97182377232087 L 177.70966572952292 186.88262497895923 L 177.71010134200475 186.88193710822833 L 177.7666188690763 186.7928514758614 L 177.76705629081832 186.79216323215232 L 177.8237061482334 186.703190142414 L 177.82414537084753 186.70250155053262 L 177.88092817697222 186.6136403850568 L 177.88136919187284 186.61295146984656 L 177.93828556507327 186.5242016102672 L 177.9387283634768 186.52351239660746 L 177.99577892211903 186.43487322455843 L 177.99622349504497 186.4341837373593 L 178.0534088574951 186.3456546344745 L 178.053855195766 186.34496489867436 L 178.11117598039013 186.25654524658773 L 178.11162407463206 186.2558552871498 L 178.16908089979626 186.16754446749525 L 178.16953074043948 186.1668543094036 L 178.22712422450985 186.078651703815 L 178.227575801789 186.0779613720717 L 178.28530656313163 185.989866362183 L 178.28575986708663 185.98917588180407 L 178.3436285240676 185.90118784924917 L 178.34408354454402 185.90049724526165 L 178.40209071552945 185.81261557167443 L 178.40254744217935 185.81192486911235 L 178.46069374553534 185.72414893612674 L 178.46115216781783 185.72345816002812 L 178.51943822191043 185.63578734927802 L 178.51989832909268 185.63509652468088 L 178.578324752288 185.54753021780022 L 178.57878653344576 185.5468393697395 L 178.6373539441099 185.45937694836218 L 178.63781738812864 185.45868610186582 L 178.6965264046277 185.37132694762573 L 178.69699150020318 185.37063612771163 L 178.7558427409032 185.2833796222427 L 178.75630947654304 185.28268885391458 L 178.81530355981016 185.1955343788507 L 178.81577192383406 185.19484368709524 L 178.87490946803436 185.10779062407033 L 178.8753794485758 185.10710003385307 L 178.93466107207536 185.02014776450105 L 178.9351326570826 185.01945730076315 L 178.9945589782475 184.9326052067179 L 178.9950321554844 184.93191489437277 L 179.05460379268078 184.84516235726824 L 179.05507854972825 184.8444722211977 L 179.11479612132217 184.75781862266774 L 179.11527244557968 184.75712868771862 L 179.17513656993722 184.6705734093972 L 179.17561444862352 184.66988370037814 L 179.23562574411076 184.58342612389913 L 179.23610516426598 184.5827366655762 L 179.29626424924908 184.4963761725735 L 179.2967451977353 184.495686989668 L 179.35705269058028 184.4094229617756 L 179.35753515408362 184.40873407895955 L 179.41799167315662 184.32256589781124 L 179.41847563818854 184.32187733970437 L 179.4790818018556 184.23580438693415 L 179.4795672547543 184.23511617810033 L 179.54032368138155 184.14913783534206 L 179.54081060831382 184.14845000028572 L 179.60171791626735 184.06256564917334 L 179.60220630322996 184.06187821233638 L 179.66326511087587 183.97608723450378 L 179.66375494369723 183.9754002202621 L 179.72496586940156 183.88970199734317 L 179.72545713374396 183.88901543000256 L 179.78682079587284 183.80340934363124 L 179.78731347723348 183.8027232474251 L 179.84883049415302 183.71720867923528 L 179.84932457786618 183.71652307832065 L 179.91099556794242 183.63109940994627 L 179.91149103918156 183.6304143284003 L 179.97331662078065 183.54508094147522 L 179.97381346455964 183.54439640329258 L 180.0357942560476 183.45915267945074 L 180.0362924572236 183.45846870853916 L 180.0984290769666 183.37331402941447 L 180.09892862024094 183.37263064959296 L 180.16122168660502 183.28756439681933 L 180.1617225565262 183.2868816318135 L 180.22417268787746 183.20190318702484 L 180.22467486884253 183.20122106046475 L 180.28728268354706 183.11632980529492 L 180.28778615980434 183.11564834071083 L 180.35055227622826 183.03084365679382 L 180.35105703187864 183.03016287761437 L 180.413982068388 182.94544414658404 L 180.414488087388 182.94476407613178 L 180.4775726623489 182.86013067962205 L 180.4780799285124 182.85945134111094 L 180.54132466029094 182.7749026607557 L 180.54183315729136 182.77422407728827 L 180.60523866425365 182.68975949472144 L 180.6057483756266 182.689081689285 L 180.66931527613872 182.6047005861405 L 180.669826185284 182.6040235816049 L 180.733555097712 182.51972533951664 L 180.73406718789624 182.51904915863054 L 180.7979587306063 182.43483315923243 L 180.79847198496478 182.43415782462128 L 180.8625267763229 182.3500234495472 L 180.86304117786298 182.349348983709 L 180.9272598362353 182.2652956145929 L 180.92777536783777 182.26462203989666 L 180.99215851159036 182.1806490583724 L 180.9926751560127 182.1799763970544 L 181.05722340351164 182.0960831847559 L 181.05774114339025 182.09541145891703 L 181.12245511300168 182.01159739747823 L 181.12297393085433 182.0109266290816 L 181.18785424094432 181.9271911001364 L 181.1883741191728 181.92652131100434 L 181.25342138810743 181.84286369618664 L 181.25394230900048 181.84219490799762 L 181.31915715514586 181.75861458894133 L 181.31967910088107 181.75794682322817 L 181.38506214260326 181.67444318156717 L 181.3855850952507 181.67377645971334 L 181.45113695091578 181.5903488770816 L 181.45166089243975 181.58968322031959 L 181.51738218041388 181.506331078351 L 181.51790709267593 181.5056665077595 L 181.58379843132516 181.42238918808795 L 181.58432429608715 181.42172572458915 L 181.65038630377754 181.33852260884854 L 181.6509131027042 181.3378602732054 L 181.7171463978019 181.25473074302963 L 181.7176741124633 181.25406955584438 L 181.7840793133344 181.17101299286742 L 181.78460792520877 181.17035297457875 L 181.8511856502193 181.08736876043446 L 181.85171514069668 181.08670993131457 L 181.9184660082128 181.00379744763686 L 181.91899635859662 181.00313982779033 L 181.98592098698435 180.92029845621312 L 181.98645217849523 180.91964206557375 L 182.05355118612073 180.83687118773094 L 182.05408319989868 180.8362160460603 L 182.121357205128 180.7535150435858 L 182.12189002223593 180.75286117047034 L 182.18933964343518 180.67022942499807 L 182.1898732448612 180.66957683984785 L 182.25749910039644 180.5870137330117 L 182.25803346705715 180.58636245505775 L 182.32583617529448 180.50386736849165 L 182.3263712880378 180.50321741678408 L 182.39435146734334 180.42078973212193 L 182.3948873069513 180.42014112552832 L 182.46304557569115 180.33778022440404 L 182.46358212288268 180.33713298160762 L 182.5319190994229 180.2548382456551 L 182.53245633485756 180.25419238515207 L 182.60097263756424 180.1719631960052 L 182.60151054184425 180.17131873610379 L 182.6702067890835 180.08915447539653 L 182.6707453427571 180.08851143421518 L 182.739622152895 180.0064114835814 L 182.74016133645952 180.00576987904668 L 182.80921932786217 179.92373362012032 L 182.80975912176672 179.92309346996578 L 182.8789989128002 179.8411202843807 L 182.87953929744904 179.8404816061447 L 182.94896150647946 179.75857087553487 L 182.94950246223428 179.75793368656 L 183.0129482382158 179.6833277202459 L 182.9327256748391 179.70474308174954 L 182.93045530397694 179.70535487827382 L 182.8462520841447 179.72825761237948 L 182.84394838628822 179.72889011780362 L 182.7599139803989 179.75217871235026 L 182.75757655019018 179.75283260146065 L 182.67372023373514 179.77651076664478 L 182.6713486644818 179.7771867360155 L 182.58767971295242 179.80125818203368 L 182.5852735971651 179.80195695065333 L 182.50180128605277 179.82642538770213 L 182.49936021602088 179.8271476976087 L 182.4160938208169 179.85201683588463 L 182.41361738922768 179.85276345280678 L 182.3305661854235 179.8780370025064 L 182.32805398602792 179.87880871650984 L 182.2452272491149 179.90449038782972 L 182.24267887744188 179.90528801396678 L 182.16008588291132 179.93138151710343 L 182.15750093703085 179.93220589606594 L 182.07515096037417 179.95871494121593 L 182.07252904171835 179.95956693998673 L 181.99043135842692 179.98649523734662 L 181.98777207266502 179.98737574985043 L 181.90593595823017 180.01472700961676 L 181.90323891620505 180.01563695736638 L 181.82167364611823 180.0434148897357 L 181.81893846484598 180.0443552224714 L 181.73765331459848 180.07256353764024 L 181.73487961833408 180.0735352339603 L 181.6538838634173 180.1021776421252 L 181.65107128479076 180.10318171010283 L 181.57037420069605 180.13226192146035 L 181.5675223819209 180.1332993992453 L 181.48713324413967 180.162821123992 L 181.4842418382984 180.16389308039206 L 181.40416992232198 180.1938600287245 L 181.40123859473084 180.19496756376327 L 181.3214931760506 180.22538344587795 L 181.3185216057075 180.22652769132407 L 181.23911195981486 180.25739621741758 L 181.23609984093508 180.2585783372801 L 181.15703524332136 180.28990321754898 L 181.1539822869609 180.29112440853538 L 181.07527201311748 180.32290935317616 L 181.07217794889172 180.32417084510456 L 180.99383127430997 180.35641956431377 L 180.99069585220673 180.35772262047556 L 180.912722052378 180.3904388244498 L 180.9095450446721 180.3917847419139 L 180.8319533950878 180.42497214084972 L 180.8287345983557 180.42636225070305 L 180.75153437450717 180.46002455479692 L 180.748273611746 180.46146022231275 L 180.67147408912462 180.4956011417613 L 180.66817121198235 180.49708376648493 L 180.5917816660795 180.53170701148466 L 180.58843655718783 180.53323802723253 L 180.51246626349484 180.56834730798002 L 180.5090788389191 180.56992818273673 L 180.43353707292738 180.6055272094285 L 180.43010728472353 180.60715944513709 L 180.35500332192444 180.64325192796971 L 180.35153116081267 180.6449370602004 L 180.27687427669755 180.6815267093704 L 180.27335977484444 180.68326630685976 L 180.1991592449047 180.72035683256368 L 180.19560247882126 180.72215249660994 L 180.12186757854823 180.75974760904435 L 180.11826867209632 180.761600972748 L 180.04500867698144 180.79970438210944 L 180.0413678044896 180.8016171094454 L 179.96859199002415 180.84023252593042 L 179.96490937950762 180.84220631063937 L 179.89262702118302 180.8813374444445 L 179.8889029576663 180.88337400872751 L 179.81712333097389 180.92302457004934 L 179.8133581599072 180.9251256630536 L 179.7420905403384 180.96529936208864 L 179.73828467110442 180.96746675816803 L 179.66753833415055 181.00816730511283 L 179.66369224364945 181.01040280184966 L 179.5934764648019 181.05163390690078 L 179.5895907011097 181.05393932287188 L 179.51991475585982 181.09570469622588 L 179.51598994194472 181.09808186849943 L 179.4468631057839 181.1403852203528 L 179.44289994326843 181.14283600170023 L 179.37433149168805 181.1856810422496 L 179.3703307646448 181.18820729805614 L 179.30232997313618 181.231597737498 L 179.29829255189378 181.23420134236116 L 179.23086869594835 181.27814089089208 L 179.2267955408967 181.28082372488882 L 179.1599578960058 181.32531609270535 L 179.15585006137215 181.32808003731935 L 179.08960790302714 181.37312893461802 L 179.0854665406021 181.375975868313 L 179.01982914429436 181.42158500529035 L 179.01565550708335 181.4245167987181 L 178.95063214830427 181.4706898855707 L 178.94642759407344 181.4737083964054 L 178.88202754831434 181.5204491433298 L 178.87779354300042 181.52355621072215 L 178.81402608575272 181.5708683279149 L 178.80976420670598 181.5740657665582 L 178.746638613461 181.6219529642158 L 178.74235055248118 181.62524255802563 L 178.67987609873035 181.6737085463447 L 178.6755636648643 181.67709204174693 L 178.61374962609895 181.72614053092397 L 178.6094147481516 181.7296196297616 L 178.54827039986307 181.7792543299932 L 178.5439151285878 181.78283068205286 L 178.4834497462675 181.8330553035355 L 178.4790762561862 181.83673049870976 L 178.41929911532552 181.88754875164003 L 178.4149097061375 181.89132431173817 L 178.35583008222775 181.94273990631262 L 178.3514271797572 181.9466172765435 L 178.2930543482898 181.99863392295867 L 178.28864050492885 182.00261446310776 L 178.23098374139514 182.0552358715602 L 178.22656163599183 182.05932084689616 L 178.1696302158832 182.11255072758243 L 178.1652026530308 182.11674129952584 L 178.1090058518386 182.17058336264247 L 178.10457576051724 182.17488057924353 L 178.04912285373283 182.22933853498705 L 178.04469328526181 182.23374332125815 L 177.9899935483766 182.28882087982515 L 177.98556767363516 182.2933340279836 L 177.93163038214047 182.3490348995706 L 177.92721148801562 182.35365705925588 L 177.87404591740284 182.40998495405944 L 177.86963740243425 182.41471662258667 L 177.81725282819477 182.47167525080334 L 177.81285819738287 182.4765167635303 L 177.76126389500803 182.5341098353566 L 177.7568867537622 182.53906135624155 L 177.70609199874337 182.59729258187406 L 177.70173604595502 182.60235409430481 L 177.6517501137836 182.66122718394007 L 177.6474191340106 182.66639848192614 L 177.5982513001779 182.7259171457607 L 177.5939491549403 182.73119782557694 L 177.54560869493778 182.79136577380734 L 177.54133931313422 182.7967552261816 L 177.49383550245318 182.85757616900437 L 177.48960286991024 182.8630735719491 L 177.44294498404207 182.92455121956078 L 177.4387531322296 182.93015553193865 L 177.39295044666565 182.99229359453585 L 177.3888034406128 182.9980035504586 L 177.3438652308445 183.06080573823783 L 177.33976715630823 183.06661984238798 L 177.29570269782687 183.13008986554578 L 177.2916576477715 183.13600638951397 L 177.24847621606847 183.2001479582469 L 177.24448827653194 183.20616493796342 L 177.20219914709864 183.27098176246804 L 177.19827238252617 183.27709699680923 L 177.15688483085395 183.34259278728206 L 177.15302326899305 183.34880383792 L 177.1125465705733 183.4149823045576 L 177.108754187036 183.4212864971084 L 177.06919761736003 183.48815135010733 L 177.0654783199614 183.49454577663087 L 177.02685115452064 183.56210072618765 L 177.02320876751844 183.56858224906586 L 176.98552028180424 183.63683100537705 L 176.98195853016165 183.64339626260016 L 176.94521799966537 183.71234253586232 L 176.94174049347222 183.71898794772147 L 176.90595719368525 183.78863544813115 L 176.90256741287027 183.79535722531222 L 176.86775061928395 183.86570966306593 L 176.864451898754 183.87250381611813 L 176.83061088685974 183.94356490141246 L 176.82740640220237 183.9504272515466 L 176.7945504474915 184.0222006945781 L 176.79144320137053 184.02912688574264 L 176.75958157933442 184.1016163967078 L 176.7565743887083 184.1086019088609 L 176.72571637483833 184.1818111979563 L 176.72281185911976 184.18885136145016 L 176.69296672890732 184.26278413887238 L 176.69016729917652 184.2698741498441 L 176.66134432811296 184.34453412578966 L 176.658652177484 184.35166906244302 L 176.63173331929022 184.42469260826286 L 176.61763158086256 184.4617888393578 Z" id="element_39" /></svg>