<?xml version='1.0' encoding='utf-8'?>
<svg xmlns:svg="http://www.w3.org/2000/svg" version="1.1" id="Layer_1" x="0px" y="0px" viewBox="0 0 500 500" style="width: 180px;" xml:space="preserve" data-imageid="sushi-85" imageName="Sushi" class="illustrations_image"><svg:style type="text/css">
	.st0_sushi-85{fill:#B2581B;}
	.st1_sushi-85{fill:#68E1FD;}
	.st2_sushi-85{opacity:0.16;fill:#02180C;enable-background:new    ;}
	.st3_sushi-85{opacity:0.45;fill:#02180C;enable-background:new    ;}
	.st4_sushi-85{opacity:0.5;fill:#02180C;enable-background:new    ;}
	.st5_sushi-85{opacity:0.45;}
	.st6_sushi-85{fill:none;}
	.st7_sushi-85{fill:#02180C;}
	.st8_sushi-85{fill:#7C7C7C;}
	.st9_sushi-85{fill:#DFE0E2;}
	.st10_sushi-85{fill:#65A818;}
	.st11_sushi-85{fill:#EC6B20;}
	.st12_sushi-85{fill:#FFD217;}
	.st13_sushi-85{fill:#552D2E;}
	.st14_sushi-85{opacity:0.8;fill:#DFE0E2;enable-background:new    ;}
	.st15_sushi-85{fill:#D33C3C;}
</svg:style><svg:path class="st15_sushi-85" d="M 279.70001868902125 227.70432303966888 L 279.7002018284453 227.7255040364544 L 279.70035102412186 227.734136941852 L 279.70089838117366 227.75525362856405 L 279.70119553888577 227.76385751061852 L 279.70210402173484 227.7849067954266 L 279.7025476695151 227.79347775774727 L 279.7038141863311 227.81445654882094 L 279.70440272748795 227.82299085533634 L 279.7060241864403 227.84389606084517 L 279.7067559111577 227.8523901402343 L 279.708729220416 227.8732186683478 L 279.7096023174162 227.88166911745162 L 279.71192438515 227.90241787633934 L 279.7129369533412 227.9108214626185 L 279.71560468772 227.93148736044998 L 279.71675474775367 227.9398410234998 L 279.71976505694704 227.96042096844462 L 279.72105056261387 227.9687218205995 L 279.7244003547913 227.98921272082717 L 279.72581920419776 227.99745804692935 L 279.7295053875289 228.01785681060943 L 279.7310554339897 228.02604406694527 L 279.735074916644 228.04634760224727 L 279.7367539792462 228.05447441473754 L 279.7411036693932 228.07467962983102 L 279.74290954318366 228.0827437915133 L 279.747586348993 228.10284759456783 L 279.7495168147486 228.11084706241482 L 279.75451764438975 228.13084636159994 L 279.7565704779459 228.1387792527655 L 279.76189223958846 228.1586709562507 L 279.7640652206883 228.16653554375088 L 279.76970482250175 228.18631655970577 L 279.7719957431554 228.1941112676355 L 279.7779500933093 228.21377850422957 L 279.78035676564065 228.2215019025402 L 279.78662277230455 228.24105226794305 L 279.7891430358781 228.24870306684747 L 279.7957176072216 228.2681334692286 L 279.7983493358418 228.2757105132804 L 279.80522938003435 228.29501786080934 L 279.80797048802094 228.302520122721 L 279.81515291323217 228.32170132356734 L 279.8180013611614 228.3291278977789 L 279.8254830755608 228.34817986011217 L 279.8284368754951 228.35552995620608 L 279.8362147872522 228.3744495881958 L 279.8392720074485 228.3817225241476 L 279.8473430247329 228.40050673396334 L 279.8505017938566 228.40770192931038 L 279.8588628248378 228.42634762512165 L 279.86212133568097 228.43346459405137 L 279.8707692885285 228.45196868402778 L 279.8741258012607 228.45900702844924 L 279.88305758414407 228.47736642076026 L 279.88651042910067 228.48432582336335 L 279.89572295018957 228.50253742617858 L 279.8992705302175 228.50941764351552 L 279.9087606976813 228.52747836500444 L 279.9124014900709 228.53427922063895 L 279.92216621207933 228.55218596897117 L 279.9258987700763 228.55890734666812 L 279.9359349547987 228.57665703001314 L 279.93975790874657 228.58329886704982 L 279.95006246435264 228.60088839357724 L 279.95397452245214 228.60745067413174 L 279.9645443571113 228.62487695201102 L 279.9685443058413 228.63135970068967 L 279.97937632772323 228.64861963809042 L 279.9834630319211 228.65502291357257 L 279.99455414919527 228.67211341866428 L 279.99872655182656 228.67843730749453 L 280.0100736726625 228.6953552884468 L 280.0143307942954 228.70159989898065 L 280.0259308268627 228.718342263963 L 280.03027176484835 228.7245077204513 L 280.0421216173165 228.74107137763326 L 280.0465455447117 228.74715781448293 L 280.0586421252503 228.76353967203406 L 280.0631482894803 228.76954722822506 L 280.0754885062588 228.7857441943149 L 280.08007622754013 228.79167300798656 L 280.0926569887282 228.80768199078463 L 280.09732565825317 228.81353219398088 L 280.1101438720203 228.82935010165676 L 280.11489294993464 228.8351218152581 L 280.1279455244503 228.85074555598135 L 280.13277453760963 228.85643888479342 L 280.1460583810435 228.87186536673352 L 280.15096692056323 228.87748039474215 L 280.1644789410847 228.89270652606868 L 280.1694666597108 228.8982433118843 L 280.18320376548957 228.91326600076678 L 280.1882703747581 228.9187245732138 L 280.2022294739636 228.93354072782182 L 280.207374741196 228.9389210817205 L 280.2215527419978 228.9535276102236 L 280.2267764871046 228.95882970232847 L 280.2411702976723 228.97322351289614 L 280.2464723897761 228.97844725800192 L 280.26107891827917 228.9926252588037 L 280.2664592721782 228.99777052603648 L 280.28127542678624 229.011729625242 L 280.286733999234 229.01679623451116 L 280.3017566881165 229.03053334028988 L 280.307293473931 229.03552105891492 L 280.3225196052575 229.04903307943644 L 280.32813463326653 229.05394161895654 L 280.3435611152066 229.06722546239038 L 280.3492544440183 229.0720544755494 L 280.36487818474154 229.0851070500651 L 280.37064989834295 229.08985612797952 L 280.3864678060188 229.10267434174662 L 280.3923180092166 229.1073430112728 L 280.4083269920147 229.11992377246082 L 280.41425580568506 229.1245114937411 L 280.4304527717749 229.13685171051964 L 280.4364603279657 229.14135787474947 L 280.4528421855168 229.15345445528806 L 280.4589286223668 229.15787838268346 L 280.47549227954875 229.16972823515164 L 280.4816577360375 229.17406917313764 L 280.49840010101985 229.1856692057049 L 280.50464471155277 229.18992632733716 L 280.52156269250503 229.2012734481731 L 280.5278865813366 229.2054458508053 L 280.54497708642833 229.21653696807945 L 280.55138036190965 229.2206236722768 L 280.5686402993104 229.2314556941587 L 280.57512304798854 229.23545564288838 L 280.5925493258678 229.2460254775476 L 280.59911160642304 229.24993753564752 L 280.6167011329504 229.26024209125356 L 280.62334296998637 229.26406504520097 L 280.6410926533314 229.27410122992342 L 280.6478140310294 229.27783378792094 L 280.6657207793616 229.28759850992932 L 280.67252163499535 229.29123930231853 L 280.6905823564843 229.30072946978237 L 280.69746257382235 229.30427704981085 L 280.71567417663755 229.3134895708997 L 280.72263357923975 229.3169424158559 L 280.74099297155084 229.3258741987393 L 280.74803131597207 229.3292307114714 L 280.76653540594845 229.33787866431894 L 280.7736523748787 229.34113717516234 L 280.79229807069 229.34949820614352 L 280.7994932660363 229.3526569752669 L 280.81827747585197 229.36072799255126 L 280.8255504118047 229.363785212748 L 280.8444700437945 229.37156312450512 L 280.85182013988793 229.37451692443918 L 280.8708721022212 229.38199863883855 L 280.87829867643336 229.38484708676802 L 280.8974798772797 229.39202951197922 L 280.90498213918994 229.39477061996533 L 280.92428948671886 229.4016506641579 L 280.9318665307723 229.40428239277867 L 280.95129693315346 229.41085696412213 L 280.9589477320564 229.41337722769518 L 280.97849809745924 229.4196432343591 L 280.9862214957701 229.42204990669055 L 281.0058887323642 229.42800425684447 L 281.01368344029464 229.43029517749835 L 281.0334644562495 229.4359347793118 L 281.0413290437497 229.43810776041164 L 281.061220747235 229.4434295220542 L 281.0691536384007 229.44548235561035 L 281.08915293758577 229.4504831852515 L 281.0971524054321 229.4524136510069 L 281.1172562084866 229.45709045681627 L 281.12532037016837 229.4588963306066 L 281.14552558526185 229.46324602075364 L 281.1536523977531 229.46492508335604 L 281.17395593305514 229.46894456601035 L 281.1821431893911 229.47049461247119 L 281.20254195307115 229.47418079580228 L 281.21078727917234 229.47559964520852 L 281.2312781794 229.478949437386 L 281.23957903155616 229.48023494305306 L 281.260158976501 229.4832452522464 L 281.26851263954956 229.48439531227993 L 281.2891785373811 229.4870630466587 L 281.29758212366073 229.48807561485003 L 281.3183308825484 229.4903976825838 L 281.3267813316523 229.491270779584 L 281.3476098597658 229.4932440888423 L 281.35610393915493 229.4939758135597 L 281.37700914466376 229.49559727251204 L 281.38554345117984 229.49618581366892 L 281.4065222422535 229.49745233048486 L 281.4150932045729 229.4978959782651 L 281.436142489381 229.4988044611142 L 281.44474637143605 229.4991016188263 L 281.4658630581481 229.4996489758781 L 281.4744959635464 229.4997981715547 L 281.49567696033193 229.4999813109787 L 281.4956800339147 229.49962583565127 L 281.5043230396682 229.49998131097877 L 281.5255040364537 229.49979817155474 L 281.534136941852 229.49964897587816 L 281.55525362856406 229.49910161882636 L 281.56385751061913 229.49880446111425 L 281.58490679542723 229.49789597826515 L 281.5934777577466 229.49745233048492 L 281.61445654882027 229.49618581366897 L 281.62299085533635 229.4955972725121 L 281.6438960608452 229.49397581355976 L 281.65239014023433 229.49324408884235 L 281.67321866834783 229.49127077958406 L 281.6816691174517 229.49039768258385 L 281.7024178763394 229.4880756148501 L 281.71082146261904 229.48706304665876 L 281.73148736045056 229.48439531228 L 281.7398410234998 229.48324525224638 L 281.76042096844463 229.480234943053 L 281.76872182059964 229.4789494373861 L 281.78921272082727 229.47559964520863 L 281.7974580469293 229.47418079580225 L 281.8178568106094 229.47049461247113 L 281.82604406694526 229.46894456601032 L 281.84634760224725 229.464925083356 L 281.8544744147382 229.46324602075367 L 281.8746796298317 229.45889633060662 L 281.8827437915125 229.45709045681653 L 281.90284759456705 229.4524136510072 L 281.910847062415 229.45048318525141 L 281.93084636160006 229.44548235561024 L 281.93877925276485 229.44342952205432 L 281.95867095625005 229.43810776041178 L 281.96653554375087 229.43593477931176 L 281.98631655970576 229.4302951774983 L 281.9941112676363 229.4280042568444 L 282.01377850423034 229.42204990669046 L 282.0215019025402 229.41964323435934 L 282.04105226794303 229.41337722769543 L 282.0487030668472 229.41085696412196 L 282.06813346922837 229.40428239277847 L 282.07571051328057 229.40165066415815 L 282.0950178608095 229.3947706199656 L 282.1025201227199 229.39202951197944 L 282.1217013235663 229.38484708676825 L 282.12912789777937 229.38199863883844 L 282.1481798601126 229.37451692443906 L 282.15552995620556 229.37156312450517 L 282.17444958819533 229.36378521274807 L 282.1817225241487 229.36072799255106 L 282.2005067339644 229.35265697526668 L 282.2077019293095 229.3494982061438 L 282.2263476251208 229.34113717516266 L 282.2334645940516 229.337878664319 L 282.251968684028 229.32923071147147 L 282.2590070284492 229.32587419873937 L 282.2773664207603 229.31694241585595 L 282.2843258233631 229.31348957089946 L 282.3025374261783 229.3042770498106 L 282.30941764351576 229.3007294697824 L 282.3274783650047 229.29123930231856 L 282.334279220639 229.28759850992904 L 282.3521859689712 229.27783378792066 L 282.3589073466675 229.27410122992407 L 282.37665703001255 229.26406504520165 L 282.38329886705014 229.26024209125333 L 282.40088839357753 229.24993753564726 L 282.40745067413224 229.24602547754762 L 282.4248769520115 229.2354556428884 L 282.43135970068965 229.23145569415874 L 282.4486196380904 229.22062367227682 L 282.4550229135717 229.21653696807948 L 282.47211341866347 229.20544585080532 L 282.4784373074946 229.20127344817345 L 282.49535528844683 229.18992632733753 L 282.5015998989813 229.1856692057042 L 282.5183422639636 229.1740691731369 L 282.52450772045125 229.16972823515167 L 282.5410713776332 229.1578783826835 L 282.5471578144821 229.1534544552889 L 282.56353967203324 229.14135787475035 L 282.5695472282258 229.13685171051918 L 282.5857441943156 229.12451149374064 L 282.5916730079857 229.11992377246054 L 282.6076819907838 229.1073430112725 L 282.6135321939805 229.10267434174722 L 282.6293501016564 229.0898561279801 L 282.6351218152592 229.08510705006455 L 282.6507455559824 229.07205447554887 L 282.6564388847934 229.0672254623904 L 282.67186536673347 229.05394161895657 L 282.6774803947425 229.04903307943647 L 282.692706526069 229.03552105891495 L 282.69824331188283 229.03053334029056 L 282.7132660007654 229.01679623451184 L 282.7187245732135 229.01172962524237 L 282.7335407278215 228.99777052603687 L 282.73892108172123 228.99262525880343 L 282.7535276102243 228.9784472580016 L 282.75882970232846 228.9732235128955 L 282.7732235128961 228.95882970232782 L 282.77844725800117 228.95352761022468 L 282.792625258803 228.93892108172162 L 282.7977705260372 228.93354072782114 L 282.81172962524266 228.91872457321313 L 282.8167962345107 228.9132660007665 L 282.8305333402895 228.898243311884 L 282.8355210589153 228.8927065260687 L 282.84903307943677 228.87748039474218 L 282.8539416189565 228.87186536673354 L 282.86722546239037 228.85643888479345 L 282.8720544755497 228.85074555598138 L 282.88510705006536 228.83512181525813 L 282.8898561279797 228.8293501016568 L 282.90267434174683 228.8135321939809 L 282.9073430112718 228.80768199078466 L 282.91992377245987 228.7916730079866 L 282.9245114937412 228.78574419431493 L 282.9368517105197 228.7695472282251 L 282.9413578747497 228.76353967203409 L 282.9534544552883 228.74715781448296 L 282.9578783826835 228.7410713776333 L 282.96972823515165 228.72450772045133 L 282.9740691731373 228.71834226396302 L 282.9856692057046 228.70159989898067 L 282.9899263273375 228.69535528844682 L 283.00127344817344 228.67843730749456 L 283.00544585080473 228.6721134186643 L 283.0165369680789 228.6550229135726 L 283.0206236722774 228.64861963808946 L 283.03145569415926 228.6313597006887 L 283.035455642888 228.62487695201207 L 283.04602547754723 228.6074506741328 L 283.0499375356472 228.60088839357758 L 283.06024209125326 228.5832988670502 L 283.06406504520146 228.5766570300129 L 283.0741012299239 228.55890734666787 L 283.07783378792124 228.55218596897012 L 283.0875985099296 228.5342792206379 L 283.09123930231806 228.52747836500555 L 283.1007294697819 228.50941764351663 L 283.104277049811 228.5025374261775 L 283.11348957089984 228.48432582336227 L 283.11694241585536 228.47736642076143 L 283.1258741987388 228.4590070284504 L 283.1292307114714 228.45196868402806 L 283.1378786643189 228.43346459405169 L 283.1411371751623 228.42634762512145 L 283.1494982061435 228.40770192931015 L 283.1526569752671 228.40050673396337 L 283.1607279925515 228.38172252414762 L 283.1637852127478 228.37444958819583 L 283.1715631245049 228.3555299562061 L 283.1745169244392 228.3481798601122 L 283.1819986388386 228.32912789777893 L 283.1848470867683 228.32170132356615 L 283.19202951197946 228.3025201227198 L 283.1947706199656 228.29501786080937 L 283.20165066415814 228.27571051328042 L 283.20428239277834 228.26813346922862 L 283.21085696412183 228.2487030668475 L 283.2133772276954 228.24105226794308 L 283.2196432343593 228.22150190254024 L 283.22204990669024 228.21377850423087 L 283.2280042568442 228.1941112676368 L 283.23029517749825 228.1863165597058 L 283.2359347793117 228.1665355437509 L 283.2381077604119 228.15867095624944 L 283.2434295220544 228.13877925276424 L 283.2454823556102 228.13084636159996 L 283.25048318525137 228.11084706241485 L 283.25241365100686 228.102847594568 L 283.25709045681623 228.0827437915135 L 283.2588963306067 228.07467962983094 L 283.26324602075374 228.05447441473743 L 283.26492508335593 228.0463476022473 L 283.26894456601025 228.0260440669453 L 283.27049461247105 228.01785681060946 L 283.2741807958022 227.99745804692938 L 283.2755996452086 227.9892127208272 L 283.2789494373861 227.96872182059954 L 283.2802349430529 227.96042096844465 L 283.2832452522463 227.93984102349984 L 283.2843953122798 227.93148736045134 L 283.2870630466586 227.91082146261985 L 283.28807561485 227.90241787633937 L 283.2903976825838 227.88166911745165 L 283.2912707795841 227.87321866834648 L 283.29324408884236 227.85239014023298 L 283.29397581355965 227.8438960608452 L 283.295597272512 227.82299085533637 L 283.29618581366884 227.81445654882097 L 283.2974523304848 227.7934777577473 L 283.2978959782651 227.78490679542662 L 283.2988044611142 227.76385751061855 L 283.2991016188263 227.75525362856408 L 283.2996489758781 227.73413694185203 L 283.29979817155464 227.72550403645442 L 283.2999813109787 227.7043230396689 L 283.2996583261616 227.70432024701216 L 283.299989987333 227.69683573598357 L 283.2998371478474 227.67268534522773 L 283.2997560017054 227.66630233219303 L 283.2992983077369 227.64233683289848 L 283.2991334131131 227.63588448903494 L 283.29837210139374 227.61210511793385 L 283.29812071899664 227.60558411854728 L 283.2970570262586 227.58199211237186 L 283.2967163808124 227.5754032490945 L 283.295351543788 227.55199984457695 L 283.29491882814557 227.54534403104046 L 283.2932540835668 227.5221304649129 L 283.29272646327945 227.51540874244486 L 283.29076304787867 227.4923862514395 L 283.2901376662359 227.48559979467112 L 283.28787681674515 227.46276961552016 L 283.28715080030696 227.45591973796158 L 283.2845937534585 227.4332831073972 L 283.2837642180861 227.42637126684804 L 283.28091221061214 227.40392942160238 L 283.27997626801545 227.39695722543598 L 283.2768305366481 227.37471140224127 L 283.27578530145456 227.3676806124662 L 283.27234708292605 227.3456320480546 L 283.27118968027514 227.33854458611856 L 283.2674602113176 227.3166945172223 L 283.2661877849852 227.30955246851948 L 283.2621683023309 227.28790213187068 L 283.2607780233757 227.2807077498716 L 283.25646976375674 227.25925838220243 L 283.254958839685 227.25201409218363 L 283.25036303983364 227.23076693022634 L 283.24872872426556 227.22347533250942 L 283.2438466209139 227.20243161299618 L 283.24208622373374 227.19509548565856 L 283.236919053614 227.1742564453215 L 283.23502995157895 227.16687874630713 L 283.2295789514233 227.14624562187848 L 283.2275585991968 227.1388294904432 L 283.2218250057375 227.1184035186551 L 283.2196709473113 227.11095227609815 L 283.2136559972804 227.09073469368283 L 283.21136587774066 227.08325184330332 L 283.2050708078704 227.06324388699292 L 283.20264238544854 227.055733113192 L 283.1960684324712 227.03593601971875 L 283.19349959082444 227.0284011862146 L 283.1866479914721 227.00881619231066 L 283.1839367521263 227.0012613394098 L 283.17680874313106 226.98188968180736 L 283.1739532780104 226.97431902268568 L 283.16655009610463 226.9551619381169 L 283.16354874005833 226.94757985404328 L 283.15587162197414 226.92863857924038 L 283.1527228852276 226.92104961375807 L 283.1447730676971 226.90232538545317 L 283.141475648122 226.89473423745238 L 283.1332543678775 226.87622829237773 L 283.12980716297767 226.86863980804108 L 283.1213156567512 226.85035338292883 L 283.11771777527844 226.8427725465786 L 283.1089572798023 226.82470687816092 L 283.10520805287 226.81713880195696 L 283.09617980487633 226.79929512696606 L 283.0922787964888 226.7917450395241 L 283.0829840327098 226.77412459469213 L 283.07893104956815 226.76659782859102 L 283.069371006736 226.7492018506502 L 283.0651661072389 226.74170382892163 L 283.05534202208577 226.72453355460414 L 283.05098552439483 226.71706977621167 L 283.04089863365294 226.70012644224965 L 283.03639112272936 226.69270246664323 L 283.0260426631308 226.6759873097689 L 283.02138499664994 226.66860874060023 L 283.01077620492697 226.65212299754577 L 283.00596951795785 226.64479546559775 L 282.99510163084267 226.62854037309535 L 282.9901473392331 226.62126951857067 L 282.9790215934578 226.60524631335247 L 282.97392139583985 226.5980377676104 L 282.9625390281367 226.58224768640864 L 282.9572949064864 226.5751070532689 L 282.9456571535876 226.55955133281574 L 282.9402713722994 226.55248416957582 L 282.928379470937 226.5371640466034 L 282.92285457437765 226.53017584490513 L 282.91070976128395 226.5150925561457 L 282.90504856979663 226.508188722824 L 282.89265208170383 226.49334350500968 L 282.88685768606695 226.4865293430829 L 282.8742107597071 226.47192343294594 L 282.86828651407154 226.46520412291108 L 282.85539038617696 226.4508387571836 L 282.8493398994763 226.4442193387243 L 282.8361958067791 226.43009575413853 L 282.8300229327106 226.42358110845493 L 282.816632111943 226.409700541743 L 282.8103409375243 226.4032953745808 L 282.79670462541844 226.38965906247498 L 282.7902994582574 226.3833678880574 L 282.77641889154546 226.36997706728977 L 282.7699042458607 226.36380419322023 L 282.7557806612749 226.35066010052304 L 282.7491612428168 226.34460961382345 L 282.7347958770893 226.33171348592884 L 282.7280765670544 226.32578924029323 L 282.7134706569175 226.3131423139334 L 282.70665649499045 226.30734791829624 L 282.6918112771761 226.2949514302034 L 282.6849074438547 226.28929023871638 L 282.6698241550953 226.27714542562268 L 282.66283595339615 226.27162052906266 L 282.64751583042374 226.2597286277003 L 282.6404486671841 226.25434284641227 L 282.6248929467309 226.24270509351342 L 282.6177523135914 226.23746097186333 L 282.6019622323896 226.22607860416016 L 282.5947536866474 226.22097840654214 L 282.5787304814292 226.20985266076687 L 282.5714596269055 226.20489836915792 L 282.5552045344031 226.1940304820427 L 282.54787700245345 226.1892237950725 L 282.53139125939896 226.17861500334956 L 282.5240126902302 226.17395733686874 L 282.5072975333559 226.1636088772702 L 282.4998735577517 226.15910136634795 L 282.4829302237897 226.149014475606 L 282.4754664453959 226.14465797791425 L 282.4582961710784 226.13483389276112 L 282.4507981493495 226.13062899326385 L 282.43340217140866 226.1210689504317 L 282.42587540530815 226.11701596729037 L 282.4082549604762 226.10772120351137 L 282.4007048730334 226.1038201951234 L 282.3828611980425 226.09479194712975 L 282.37529312183995 226.09104272019815 L 282.3572274534223 226.082282224722 L 282.3496466170706 226.0786843432485 L 282.33136019195837 226.0701928370221 L 282.32377170762237 226.0667456321226 L 282.30526576254766 226.05852435187805 L 282.2976746145461 226.05522693230262 L 282.27895038624126 226.04727711477216 L 282.2713614207598 226.044128378026 L 282.2524201459568 226.03645125994177 L 282.24483806188334 226.0334499038955 L 282.2256809773146 226.02604672198973 L 282.21811031819203 226.02319125686878 L 282.1987386605896 226.0160632478736 L 282.19118380769 226.01335200852816 L 282.17159881378603 226.0065004091758 L 282.16406398028187 226.00393156752904 L 282.1442668868086 225.99735761455165 L 282.13675611300647 225.9949291921294 L 282.1167481566961 225.98863412225919 L 282.10926530631673 225.9863440027195 L 282.08904772390144 225.98032905268866 L 282.0815964813462 225.9781749942629 L 282.0611705095581 225.97244140080355 L 282.05375437812074 225.97042104857647 L 282.03312125369206 225.96497004842087 L 282.02574355467806 225.96308094638596 L 282.00490451434104 225.95791377626622 L 281.9975683870037 225.95615337908612 L 281.9765246674904 225.95127127573448 L 281.9692330697742 225.94963696016652 L 281.94798590781687 225.94504116031513 L 281.9407416177978 225.94353023624336 L 281.9192922501287 225.93922197662442 L 281.91209786812936 225.9378316976691 L 281.89044753148056 225.9338122150148 L 281.883305482777 225.93253978868233 L 281.8614554138807 225.92881031972482 L 281.8543679519454 225.92765291707403 L 281.8323193875338 225.9242146985455 L 281.82528859775863 225.92316946335194 L 281.8030427745639 225.9200237319846 L 281.7960705783983 225.91908778938802 L 281.7736287331527 225.91623578191403 L 281.7667168926029 225.91540624654152 L 281.74408026203855 225.91284919969308 L 281.7372303844793 225.91212318325483 L 281.71440020532833 225.9098623337641 L 281.70761374856113 225.90923695212146 L 281.6845912575558 225.90727353672065 L 281.67786953508653 225.90674591643318 L 281.65465596895893 225.90508117185445 L 281.64800015542363 225.90464845621213 L 281.62459675090605 225.90328361918768 L 281.6180078876269 225.9029429737414 L 281.5944158814515 225.9018792810034 L 281.58789488206673 225.90162789860636 L 281.5641155109657 225.90086658688696 L 281.5576631671015 225.9007016922632 L 281.53369766780696 225.90024399829466 L 281.5273146547723 225.90016285215265 L 281.50316426401645 225.90001001266708 L 281.5031622794605 225.9003235952497 L 281.4956769603318 225.90001868902127 L 281.4744959635463 225.9002018284453 L 281.465863058148 225.90035102412187 L 281.44474637143594 225.90089838117368 L 281.43614248938087 225.9011955388858 L 281.41509320457277 225.90210402173489 L 281.4065222422534 225.90254766951512 L 281.38554345117973 225.90381418633106 L 281.37700914466365 225.90440272748793 L 281.3561039391548 225.90602418644028 L 281.34760985976567 225.9067559111577 L 281.32678133165217 225.90872922041598 L 281.3183308825483 225.9096023174162 L 281.2975821236606 225.91192438514994 L 281.28917853738096 225.91293695334127 L 281.26851263954944 225.91560468772005 L 281.2601589765002 225.91675474775366 L 281.23957903155537 225.91976505694703 L 281.23127817940036 225.92105056261394 L 281.21078727917273 225.9244003547914 L 281.2025419530707 225.92581920419778 L 281.1821431893906 225.9295053875289 L 281.17395593305474 225.9310554339897 L 281.15365239775275 225.93507491664403 L 281.1455255852618 225.93675397924636 L 281.1253203701683 225.9411036693934 L 281.1172562084875 225.9429095431835 L 281.09715240543295 225.94758634899284 L 281.089152937585 225.94951681474862 L 281.06915363839994 225.9545176443898 L 281.06122074723515 225.95657047794572 L 281.04132904374995 225.96189223958825 L 281.03346445624913 225.96406522068827 L 281.01368344029424 225.96970482250174 L 281.0058887323643 225.97199574315545 L 280.9862214957703 225.97795009330935 L 280.9784980974592 225.98035676564086 L 280.95894773205634 225.9866227723048 L 280.9512969331534 225.98914303587785 L 280.93186653077225 225.9957176072213 L 280.9242894867188 225.99834933584208 L 280.9049821391899 226.00522938003465 L 280.8974798772801 226.0079704880206 L 280.8782986764337 226.0151529132318 L 280.87087210222063 226.0180013611616 L 280.8518201398874 226.02548307556097 L 280.84447004379444 226.02843687549486 L 280.82555041180467 226.03621478725196 L 280.8182774758519 226.03927200744872 L 280.7994932660362 226.04734302473307 L 280.7922980706899 226.05050179385645 L 280.7736523748786 226.05886282483763 L 280.7665354059484 226.06212133568104 L 280.748031315972 226.07076928852857 L 280.7409929715508 226.07412580126066 L 280.7226335792397 226.0830575841441 L 280.7156741766375 226.0865104291003 L 280.6974625738223 226.09572295018913 L 280.69058235648424 226.0992705302176 L 280.6725216349953 226.10876069768145 L 280.665720779361 226.11240149007097 L 280.6478140310288 226.12216621207935 L 280.6410926533325 226.12589877007593 L 280.62334296998745 226.13593495479836 L 280.61670113294986 226.13975790874667 L 280.59911160642247 226.15006246435274 L 280.59254932586776 226.1539745224524 L 280.5751230479885 226.1645443571116 L 280.56864029931035 226.16854430584127 L 280.5513803619096 226.1793763277232 L 280.54497708642873 226.1834630319202 L 280.527886581337 226.19455414919435 L 280.521562692505 226.19872655182684 L 280.5046447115527 226.2100736726628 L 280.4984001010187 226.21433079429582 L 280.4816577360364 226.2259308268631 L 280.4754922795492 226.230271764848 L 280.45892862236724 226.24212161731614 L 280.45284218551745 226.2465455447114 L 280.4364603279663 226.25864212525 L 280.4304527717742 226.26314828948082 L 280.4142558056844 226.27548850625936 L 280.4083269920143 226.28007622753947 L 280.3923180092162 226.29265698872751 L 280.3864678060195 226.2973256582528 L 280.3706498983436 226.3101438720199 L 280.3648781847408 226.31489294993546 L 280.3492544440176 226.32794552445114 L 280.343561115207 226.33277453760925 L 280.3281346332669 226.34605838104306 L 280.3225196052575 226.3509669205635 L 280.307293473931 226.36447894108503 L 280.30175668811717 226.36946665970942 L 280.2867339992346 226.38320376548813 L 280.2812754267862 226.38827037475795 L 280.26645927217817 226.40222947396347 L 280.2610789182791 226.40737474119624 L 280.24647238977605 226.42155274199803 L 280.24117029767154 226.4267764871045 L 280.2267764871039 226.44117029767216 L 280.22155274199883 226.4464723897753 L 280.207374741197 226.46107891827836 L 280.2022294739628 226.46645927217884 L 280.18827037475734 226.48127542678685 L 280.1832037654893 226.48673399923348 L 280.1694666597105 226.501756688116 L 280.1644789410847 226.50729347393127 L 280.15096692056323 226.5225196052578 L 280.1460583810435 226.52813463326643 L 280.13277453760963 226.54356111520653 L 280.1279455244506 226.54925444401826 L 280.1148929499349 226.56487818474147 L 280.1101438720203 226.57064989834316 L 280.09732565825317 226.58646780601904 L 280.0926569887282 226.5923180092153 L 280.08007622754013 226.60832699201336 L 280.0754885062588 226.61425580568502 L 280.0631482894803 226.63045277177486 L 280.0586421252503 226.63646032796586 L 280.0465455447117 226.652842185517 L 280.0421216173165 226.65892862236666 L 280.03027176484835 226.67549227954862 L 280.0259308268627 226.68165773603693 L 280.0143307942954 226.69840010101927 L 280.0100736726625 226.70464471155313 L 279.99872655182656 226.7215626925054 L 279.99455414919527 226.72788658133564 L 279.9834630319211 226.74497708642735 L 279.9793763277228 226.75138036191018 L 279.9685443058409 226.7686402993109 L 279.9645443571118 226.77512304798816 L 279.95397452245254 226.79254932586747 L 279.9500624643528 226.79911160642237 L 279.93975790874674 226.81670113294976 L 279.9359349547987 226.82334296998675 L 279.9258987700763 226.84109265333177 L 279.92216621207876 226.8478140310298 L 279.9124014900704 226.86572077936202 L 279.90876069768194 226.87252163499437 L 279.8992705302181 226.8905823564833 L 279.895722950189 226.89746257382242 L 279.88651042910016 226.91567417663765 L 279.88305758414464 226.9226335792385 L 279.8741258012612 226.94099297154952 L 279.8707692885286 226.94803131597186 L 279.8621213356811 226.96653540594824 L 279.8588628248377 226.97365237487847 L 279.8505017938565 226.99229807068977 L 279.847343024733 226.9994932660363 L 279.83927200744864 227.01827747585202 L 279.8362147872522 227.02555041180406 L 279.8284368754951 227.04447004379378 L 279.8254830755608 227.0518201398877 L 279.8180013611614 227.07087210222096 L 279.8151529132317 227.07829867643375 L 279.80797048802054 227.09747987728008 L 279.8052293800344 227.10498213919053 L 279.79834933584186 227.12428948671948 L 279.79571760722166 227.13186653077128 L 279.78914303587817 227.1512969331524 L 279.7866227723046 227.15894773205682 L 279.7803567656407 227.17849809745965 L 279.77795009330976 227.18622149576902 L 279.7719957431558 227.2058887323631 L 279.7697048225018 227.2136834402939 L 279.76406522068834 227.23346445624875 L 279.7618922395881 227.24132904375043 L 279.7565704779456 227.26122074723563 L 279.7545176443898 227.2691536383999 L 279.74951681474863 227.28915293758502 L 279.74758634899314 227.29715240543186 L 279.74290954318377 227.31725620848636 L 279.7411036693933 227.32532037016892 L 279.73675397924626 227.34552558526244 L 279.73507491664407 227.35365239775257 L 279.73105543398975 227.37395593305456 L 279.72950538752895 227.3821431893903 L 279.7258192041978 227.40254195307034 L 279.7244003547914 227.41078727917264 L 279.7210505626139 227.4312781794003 L 279.7197650569471 227.43957903155518 L 279.7167547477537 227.4601589765 L 279.7156046877202 227.4685126395485 L 279.7129369533414 227.48917853737998 L 279.71192438515 227.49758212366046 L 279.7096023174162 227.51833088254818 L 279.7087292204159 227.52678133165335 L 279.70675591115764 227.54760985976685 L 279.70602418644035 227.55610393915458 L 279.704402727488 227.57700914466338 L 279.70381418633116 227.58554345117884 L 279.7025476695152 227.6065222422525 L 279.7021040217349 227.61509320457318 L 279.7011955388858 227.63614248938126 L 279.7008983811737 227.64474637143573 L 279.7003510241219 227.66586305814778 L 279.70020182844536 227.67449596354538 L 279.7000186890213 227.6956769603309 L 279.70043542849976 227.69568056362817 L 279.70001868902125 227.70432303966888 Z" id="element_65" /></svg>