<?xml version='1.0' encoding='utf-8'?>
<svg xmlns:svg="http://www.w3.org/2000/svg" version="1.1" id="Layer_1" x="0px" y="0px" viewBox="0 0 500 500" style="width: 188px;" xml:space="preserve" data-imageid="production-line-3" imageName="Production Line" class="illustrations_image"><svg:style type="text/css">
	.st0_production-line-3{fill:#FFBC0E;}
	.st1_production-line-3{fill:#093F68;}
	.st2_production-line-3{fill:#F56132;}
	.st3_production-line-3{fill:#DFEAEF;}
	.st4_production-line-3{fill:#68E1FD;}
	.st5_production-line-3{fill:#70CC40;}
</svg:style><svg:path class="st1_production-line-3" d="M 142.89596168984244 255.70001630821506 L 142.86572049614853 255.70026056282111 L 142.8576373621706 255.70039120560875 L 142.82752231515934 255.70112149596252 L 142.81944002642103 255.70138290253794 L 142.7894548362889 255.70259551844293 L 142.7813766301013 255.70298766975654 L 142.7515250070449 255.7046789010162 L 142.7434540744461 255.70520167447876 L 142.71373972866198 255.70736781089647 L 142.70567920948838 255.7080209842047 L 142.67610585117305 255.71065831558403 L 142.66805882949956 255.7114415708063 L 142.6386301688496 255.7145463869506 L 142.63059966877668 255.71545931484638 L 142.60131941598863 255.71902790555913 L 142.59330839783414 255.72007001009766 L 142.5641802631045 255.7240986651823 L 142.55619161996978 255.72526936823323 L 142.52721931349518 255.7297543774933 L 142.51925586824012 255.73105302365522 L 142.49044310021708 255.73599067689403 L 142.48250760281755 255.73741653843493 L 142.45385808344258 255.74280312545605 L 142.44595320877238 255.7443554073278 L 142.41747064824207 255.7501872179346 L 142.4095989942296 255.75186506284038 L 142.3812871027405 255.7581383868364 L 142.37345118893765 255.7599408803146 L 142.3453136766863 255.7666520075032 L 142.33751594321066 255.76857818300556 L 142.30955652039356 255.77572340319028 L 142.30179932726185 255.77777224712278 L 142.2740217040756 255.785347850107 L 142.26630733089326 255.78751830681267 L 142.23871521753438 255.7955205823999 L 142.23104586355214 255.7978115590543 L 142.2036429702172 255.80623679704792 L 142.1960207547168 255.8086471684513 L 142.16881079160234 255.81749165865486 L 142.1612377546254 255.820020271891 L 142.13422443192798 255.82928030410784 L 142.1267025352926 255.83192598306297 L 142.0998895632087 255.84159784709666 L 142.09242069184356 255.8443593968052 L 142.06581178056982 255.85443938245908 L 142.0583977440983 255.85731559327726 L 142.03199660383123 255.86779999035488 L 142.0246391384346 255.87078964193083 L 141.99844947937075 255.88167474023558 L 141.99115024986776 255.8847766052793 L 141.96517578220366 255.89605869461465 L 141.9579363843584 255.8992715424456 L 141.93218081829062 255.91094691261503 L 141.92500278131888 255.9142695124809 L 141.89946982704396 255.9263344532878 L 141.89235461628732 255.92976557745217 L 141.8670479840018 255.9422163787 L 141.859997003769 255.9457548052838 L 141.83492040366946 255.95858775677607 L 141.82793500021643 255.96223227235214 L 141.80309214249937 255.9754436638923 L 141.7961736071224 255.97919306583213 L 141.7715682019844 255.99277918722356 L 141.76471777421867 255.99663228578913 L 141.74035353185624 256.01058942683534 L 141.73357240275982 256.0145450470145 L 141.70945303336956 256.02886949751894 L 141.7027423488683 256.0329264806083 L 141.67887156264675 256.0476145303744 L 141.6722324269296 256.0517717353069 L 141.64861393407327 256.0668196741381 L 141.6420474130167 256.07107597855867 L 141.61868492372218 256.08648009625847 L 141.61219204833554 256.09083439734616 L 141.58908927279933 256.106590983718 L 141.58267104266295 256.11104219876535 L 141.55983169108165 256.12714754361264 L 141.55348907777764 256.1316946103565 L 141.53091686034776 256.14814500348274 L 141.52465081085808 256.1527868801974 L 141.50234943777616 256.16957861140605 L 141.4961608778368 256.17431427676394 L 141.47413405929942 256.1914436358584 L 141.46802389670452 256.1962720885563 L 141.4462753429082 256.2137353653401 L 141.4402444707428 256.218655623505 L 141.41877789188413 256.2364491077815 L 141.4128271916767 256.2414602081583 L 141.3916462979522 256.259580189731 L 141.38577664274277 256.2646811866537 L 141.364885144349 256.283123955326 L 141.35909740164072 256.2883139194963 L 141.3384990087742 256.3070757650718 L 141.33279404339342 256.3123537821219 L 141.3124924662507 256.3314309944039 L 141.30687114306585 256.3367961632848 L 141.2868700918435 256.3561850320768 L 141.28133327836161 256.3616364632557 L 141.26163646325617 256.3813332783611 L 141.2561850320768 256.3868700918435 L 141.2367961632848 256.40687114306587 L 141.23143099440355 256.41249246625097 L 141.21235378212157 256.4327940433937 L 141.2070757650715 256.4384990087745 L 141.18831391949607 256.45909740164103 L 141.18312395532655 256.46488514434844 L 141.1646811866542 256.4857766427422 L 141.15958018973095 256.4916462979523 L 141.14146020815824 256.51282719167676 L 141.13644910778171 256.5187778918838 L 141.11865562350522 256.5402444707425 L 141.11373536534003 256.5462753429082 L 141.09627208855628 256.5680238967045 L 141.09144363585833 256.5741340592994 L 141.0743142767639 256.5961608778368 L 141.06957861140603 256.6023494377761 L 141.0527868801974 256.62465081085804 L 141.0481450034829 256.6309168603475 L 141.03169461035662 256.65348907777735 L 141.02714754361227 256.6598316910821 L 141.01104219876498 256.68267104266346 L 141.0065909837183 256.68908927279875 L 140.99083439734645 256.71219204833494 L 140.98648009625836 256.7186849237222 L 140.97107597855856 256.74204741301673 L 140.9668196741382 256.74861393407303 L 140.95177173530698 256.77223242692935 L 140.94761453037407 256.77887156264717 L 140.93292648060796 256.8027423488688 L 140.92886949751897 256.8094530333694 L 140.91454504701454 256.8335724027596 L 140.91058942683526 256.84035353185624 L 140.89663228578905 256.86471777421866 L 140.8927791872237 256.871568201984 L 140.87919306583225 256.896173607122 L 140.87544366389207 256.90309214249953 L 140.86223227235195 256.92793500021656 L 140.85858775677588 256.93492040366965 L 140.8457548052836 256.9599970037692 L 140.84221637870021 256.96704798400117 L 140.82976557745235 256.99235461628666 L 140.8263344532877 256.9994698270439 L 140.8142695124808 257.02500278131885 L 140.81094691261464 257.0321808182912 L 140.79927154244524 257.057936384359 L 140.79605869461463 257.0651757822035 L 140.7847766052793 257.09115024986755 L 140.7816747402355 257.0984494793707 L 140.77078964193075 257.12463913843453 L 140.76779999035463 257.1319966038316 L 140.75731559327704 257.1583977440987 L 140.75443938245937 257.1658117805689 L 140.74435939680544 257.19242069184264 L 140.74159784709644 257.19988956320896 L 140.73192598306278 257.2267025352928 L 140.72928030410793 257.2342244319275 L 140.72002027189106 257.2612377546249 L 140.71749165865455 257.2688107916029 L 140.70864716845102 257.2960207547174 L 140.70623679704815 257.3036429702161 L 140.6978115590545 257.331045863551 L 140.6955205823996 257.3387152175348 L 140.68751830681242 257.3663073308937 L 140.68534785010704 257.37402170407506 L 140.6777722471228 257.4017993272613 L 140.67572340319003 257.40955652039395 L 140.66857818300534 257.43751594321105 L 140.66665200750322 257.44531367668577 L 140.65994088031456 257.47345118893713 L 140.65813838683619 257.4812871027409 L 140.6518650628402 257.50959899423003 L 140.65018721793447 257.5174706482421 L 140.64435540732765 257.54595320877246 L 140.64280312545597 257.55385808344244 L 140.63741653843485 257.5825076028174 L 140.635990676894 257.59044310021653 L 140.63105302365517 257.6192558682396 L 140.62975437749307 257.6272193134956 L 140.62526936823303 257.6561916199702 L 140.6240986651823 257.6641802631039 L 140.6200700100976 257.6933083978335 L 140.619027905559 257.70131941598856 L 140.61545931484625 257.7305996687766 L 140.61454638695048 257.7386301688491 L 140.61144157080616 257.7680588294991 L 140.61065831558383 257.77610585117344 L 140.60802098420453 257.80567920948874 L 140.6073678108964 257.81373972866146 L 140.60520167447865 257.8434540744456 L 140.604678901016 257.8515250070453 L 140.60298766975637 257.8813766301017 L 140.6025955184428 257.88945483628885 L 140.6013829025378 257.91944002642094 L 140.6011214959624 257.9275223151588 L 140.6003912056086 257.9576373621701 L 140.60026056282095 257.9657204961485 L 140.6000163082149 257.9959616898424 L 140.6 258.0 L 140.6 319.59999999999997 L 145.3 319.59999999999997 L 145.3 260.3 L 168.1 260.3 L 168.1 258.0 L 168.1000163082149 257.9959616898424 L 168.10026056282095 257.9657204961485 L 168.1003912056086 257.9576373621701 L 168.1011214959624 257.9275223151588 L 168.1013829025378 257.91944002642094 L 168.1025955184428 257.88945483628885 L 168.10298766975637 257.8813766301017 L 168.104678901016 257.8515250070453 L 168.10520167447865 257.8434540744456 L 168.1073678108964 257.81373972866146 L 168.10802098420453 257.80567920948874 L 168.11065831558383 257.77610585117344 L 168.11144157080616 257.7680588294991 L 168.11454638695048 257.7386301688491 L 168.11545931484625 257.7305996687766 L 168.119027905559 257.70131941598856 L 168.1200700100976 257.6933083978335 L 168.1240986651823 257.6641802631039 L 168.12526936823303 257.6561916199702 L 168.12975437749307 257.6272193134956 L 168.13105302365517 257.6192558682396 L 168.135990676894 257.59044310021653 L 168.13741653843485 257.5825076028174 L 168.14280312545597 257.55385808344244 L 168.14435540732765 257.54595320877246 L 168.15018721793447 257.5174706482421 L 168.1518650628402 257.50959899423003 L 168.15813838683619 257.4812871027409 L 168.15994088031456 257.47345118893713 L 168.16665200750322 257.44531367668577 L 168.16857818300534 257.43751594321105 L 168.17572340319003 257.40955652039395 L 168.1777722471228 257.4017993272613 L 168.18534785010704 257.37402170407506 L 168.18751830681242 257.3663073308937 L 168.1955205823996 257.3387152175348 L 168.1978115590545 257.331045863551 L 168.20623679704815 257.3036429702161 L 168.20864716845102 257.2960207547174 L 168.21749165865455 257.2688107916029 L 168.22002027189106 257.2612377546249 L 168.22928030410793 257.2342244319275 L 168.23192598306278 257.2267025352928 L 168.24159784709644 257.19988956320896 L 168.24435939680544 257.19242069184264 L 168.25443938245937 257.1658117805689 L 168.25731559327704 257.1583977440987 L 168.26779999035463 257.1319966038316 L 168.27078964193075 257.12463913843453 L 168.2816747402355 257.0984494793707 L 168.2847766052793 257.09115024986755 L 168.29605869461463 257.0651757822035 L 168.29927154244524 257.057936384359 L 168.31094691261464 257.0321808182912 L 168.3142695124808 257.02500278131885 L 168.3263344532877 256.9994698270439 L 168.32976557745235 256.99235461628666 L 168.34221637870021 256.96704798400117 L 168.3457548052836 256.9599970037692 L 168.35858775677588 256.93492040366965 L 168.36223227235195 256.92793500021656 L 168.37544366389207 256.90309214249953 L 168.37919306583225 256.896173607122 L 168.3927791872237 256.871568201984 L 168.39663228578905 256.86471777421866 L 168.41058942683526 256.84035353185624 L 168.41454504701454 256.8335724027596 L 168.42886949751897 256.8094530333694 L 168.43292648060796 256.8027423488688 L 168.44761453037407 256.77887156264717 L 168.45177173530698 256.77223242692935 L 168.4668196741382 256.74861393407303 L 168.47107597855856 256.74204741301673 L 168.48648009625836 256.7186849237222 L 168.49083439734645 256.71219204833494 L 168.5065909837183 256.68908927279875 L 168.51104219876498 256.68267104266346 L 168.52714754361227 256.6598316910821 L 168.53169461035662 256.65348907777735 L 168.5481450034829 256.6309168603475 L 168.5527868801974 256.62465081085804 L 168.56957861140603 256.6023494377761 L 168.5743142767639 256.5961608778368 L 168.59144363585833 256.5741340592994 L 168.59627208855628 256.5680238967045 L 168.61373536534003 256.5462753429082 L 168.61865562350522 256.5402444707425 L 168.63644910778171 256.5187778918838 L 168.64146020815824 256.51282719167676 L 168.65958018973095 256.4916462979523 L 168.6646811866542 256.4857766427422 L 168.68312395532655 256.46488514434844 L 168.68831391949607 256.45909740164103 L 168.7070757650715 256.4384990087745 L 168.71235378212157 256.4327940433937 L 168.73143099440355 256.41249246625097 L 168.7367961632848 256.40687114306587 L 168.7561850320768 256.3868700918435 L 168.76163646325617 256.3813332783611 L 168.78133327836161 256.3616364632557 L 168.7868700918435 256.3561850320768 L 168.80687114306585 256.3367961632848 L 168.8124924662507 256.3314309944039 L 168.83279404339342 256.3123537821219 L 168.8384990087742 256.3070757650718 L 168.85909740164072 256.2883139194963 L 168.864885144349 256.283123955326 L 168.88577664274277 256.2646811866537 L 168.8916462979522 256.259580189731 L 168.9128271916767 256.2414602081583 L 168.91877789188413 256.2364491077815 L 168.9402444707428 256.218655623505 L 168.9462753429082 256.2137353653401 L 168.96802389670452 256.1962720885563 L 168.97413405929942 256.1914436358584 L 168.9961608778368 256.17431427676394 L 169.00234943777616 256.16957861140605 L 169.02465081085808 256.1527868801974 L 169.03091686034776 256.14814500348274 L 169.05348907777764 256.1316946103565 L 169.05983169108165 256.12714754361264 L 169.08267104266295 256.11104219876535 L 169.08908927279933 256.106590983718 L 169.11219204833554 256.09083439734616 L 169.11868492372218 256.08648009625847 L 169.1420474130167 256.07107597855867 L 169.14861393407327 256.0668196741381 L 169.1722324269296 256.0517717353069 L 169.17887156264675 256.0476145303744 L 169.2027423488683 256.0329264806083 L 169.20945303336956 256.02886949751894 L 169.23357240275982 256.0145450470145 L 169.24035353185624 256.01058942683534 L 169.26471777421867 255.99663228578913 L 169.2715682019844 255.99277918722356 L 169.2961736071224 255.97919306583213 L 169.30309214249937 255.9754436638923 L 169.32793500021643 255.96223227235214 L 169.33492040366946 255.95858775677607 L 169.359997003769 255.9457548052838 L 169.3670479840018 255.9422163787 L 169.39235461628732 255.92976557745217 L 169.39946982704396 255.9263344532878 L 169.42500278131888 255.9142695124809 L 169.43218081829062 255.91094691261503 L 169.4579363843584 255.8992715424456 L 169.46517578220366 255.89605869461465 L 169.49115024986776 255.8847766052793 L 169.49844947937075 255.88167474023558 L 169.5246391384346 255.87078964193083 L 169.53199660383123 255.86779999035488 L 169.5583977440983 255.85731559327726 L 169.56581178056982 255.85443938245908 L 169.59242069184356 255.8443593968052 L 169.5998895632087 255.84159784709666 L 169.6267025352926 255.83192598306297 L 169.63422443192798 255.82928030410784 L 169.6612377546254 255.820020271891 L 169.66881079160234 255.81749165865486 L 169.6960207547168 255.8086471684513 L 169.7036429702172 255.80623679704792 L 169.73104586355214 255.7978115590543 L 169.73871521753438 255.7955205823999 L 169.76630733089326 255.78751830681267 L 169.7740217040756 255.785347850107 L 169.80179932726185 255.77777224712278 L 169.80955652039356 255.77572340319028 L 169.83751594321066 255.76857818300556 L 169.8453136766863 255.7666520075032 L 169.87345118893765 255.7599408803146 L 169.8812871027405 255.7581383868364 L 169.9095989942296 255.75186506284038 L 169.91747064824207 255.7501872179346 L 169.94595320877238 255.7443554073278 L 169.95385808344258 255.74280312545605 L 169.98250760281755 255.73741653843493 L 169.99044310021708 255.73599067689403 L 170.01925586824012 255.73105302365522 L 170.02721931349518 255.7297543774933 L 170.05619161996978 255.72526936823323 L 170.0641802631045 255.7240986651823 L 170.09330839783414 255.72007001009766 L 170.10131941598863 255.71902790555913 L 170.13059966877668 255.71545931484638 L 170.1386301688496 255.7145463869506 L 170.16805882949956 255.7114415708063 L 170.17610585117305 255.71065831558403 L 170.20567920948838 255.7080209842047 L 170.21373972866198 255.70736781089647 L 170.2434540744461 255.70520167447876 L 170.2515250070449 255.7046789010162 L 170.2813766301013 255.70298766975654 L 170.2894548362889 255.70259551844293 L 170.31944002642103 255.70138290253794 L 170.32752231515934 255.70112149596252 L 170.3576373621706 255.70039120560875 L 170.36572049614853 255.70026056282111 L 170.39596168984244 255.70001630821506 L 170.39596318331684 255.70020121546844 L 170.4 255.7 L 142.9 255.7 L 142.89596318331684 255.70020121546844 L 142.89596168984244 255.70001630821506 Z M 212.70000000000002 258.6454545454546 L 212.70000000000007 258.00000000000034 L 212.69998369178518 257.99596168984266 L 212.69973943717912 257.9657204961488 L 212.69960879439148 257.9576373621704 L 212.69887850403768 257.9275223151591 L 212.69861709746226 257.9194400264213 L 212.69740448155727 257.88945483628913 L 212.69701233024367 257.8813766301015 L 212.695321098984 257.8515250070451 L 212.6947983255214 257.84345407444584 L 212.69263218910365 257.8137397286617 L 212.69197901579557 257.8056792094895 L 212.6893416844163 257.7761058511742 L 212.6885584291939 257.7680588294993 L 212.6854536130496 257.73863016884934 L 212.68454068515376 257.7305996687764 L 212.680972094441 257.70131941598834 L 212.6799299899025 257.69330839783424 L 212.67590133481784 257.66418026310464 L 212.67473063176706 257.6561916199706 L 212.67024562250703 257.62721931349597 L 212.6689469763449 257.6192558682398 L 212.66400932310606 257.59044310021676 L 212.66258346156522 257.5825076028176 L 212.6571968745441 257.55385808344266 L 212.6556445926723 257.5459532087722 L 212.64981278206545 257.51747064824184 L 212.64813493715985 257.50959899423026 L 212.64186161316385 257.48128710274113 L 212.6400591196856 257.4734511889378 L 212.63334799249697 257.44531367668645 L 212.63142181699473 257.4375159432113 L 212.62427659681003 257.4095565203942 L 212.62222775287728 257.40179932726153 L 212.61465214989303 257.3740217040753 L 212.6124816931875 257.36630733089345 L 212.6044794176003 257.33871521753457 L 212.60218844094564 257.33104586355154 L 212.59376320295198 257.3036429702166 L 212.59135283154893 257.29602075471723 L 212.5825083413454 257.2688107916028 L 212.5799797281091 257.2612377546254 L 212.57071969589222 257.23422443192794 L 212.56807401693726 257.226702535293 L 212.5584021529036 257.1998895632091 L 212.55564060319477 257.19242069184327 L 212.54556061754087 257.1658117805695 L 212.54268440672286 257.1583977440984 L 212.53220000964524 257.13199660383134 L 212.5292103580693 257.1246391384347 L 212.51832525976454 257.09844947937086 L 212.5152233947209 257.09115024986806 L 212.50394130538555 257.06517578220394 L 212.50072845755463 257.0579363843587 L 212.48905308738523 257.03218081829095 L 212.48573048751925 257.025002781319 L 212.47366554671234 256.9994698270441 L 212.4702344225479 256.99235461628723 L 212.45778362130002 256.9670479840017 L 212.45424519471644 256.95999700376933 L 212.44141224322416 256.93492040366976 L 212.4377677276481 256.9279350002167 L 212.42455633610797 256.90309214249964 L 212.42080693416779 256.89617360712214 L 212.40722081277633 256.87156820198413 L 212.403367714211 256.8647177742188 L 212.38941057316478 256.84035353185635 L 212.38545495298575 256.8335724027601 L 212.37113050248132 256.80945303336983 L 212.3670735193918 256.8027423488684 L 212.3523854696257 256.7788715626468 L 212.34822826469306 256.77223242692946 L 212.33318032586183 256.74861393407315 L 212.32892402144148 256.74204741301685 L 212.31351990374168 256.7186849237223 L 212.30916560265413 256.7121920483359 L 212.2934090162823 256.68908927279966 L 212.28895780123452 256.6826710426627 L 212.2728524563872 256.6598316910814 L 212.26830538964379 256.653489077778 L 212.25185499651752 256.63091686034807 L 212.24721311980264 256.6246508108581 L 212.230421388594 256.6023494377762 L 212.22568572323615 256.59616087783684 L 212.2085563641417 256.57413405929947 L 212.20372791144337 256.56802389670406 L 212.1862646346596 256.5462753429078 L 212.18134437649525 256.5402444707431 L 212.16355089221875 256.5187778918844 L 212.1585397918418 256.5128271916768 L 212.1404198102691 256.49164629795234 L 212.1353188133463 256.4857766427428 L 212.11687604467394 256.46488514434895 L 212.11168608050397 256.45909740164103 L 212.09292423492855 256.4384990087745 L 212.087646217878 256.4327940433932 L 212.068569005596 256.4124924662505 L 212.06320383671525 256.4068711430659 L 212.04381496792325 256.38687009184355 L 212.03836353674438 256.3813332783617 L 212.01866672163894 256.3616364632562 L 212.01312990815654 256.3561850320768 L 211.9931288569342 256.3367961632848 L 211.98750753374935 256.3314309944039 L 211.96720595660662 256.3123537821219 L 211.96150099122528 256.30707576507126 L 211.94090259835875 256.28831391949586 L 211.93511485565162 256.2831239553266 L 211.91422335725784 256.26468118665423 L 211.90835370204726 256.2595801897305 L 211.88717280832276 256.24146020815783 L 211.88122210811653 256.23644910778205 L 211.85975552925785 256.2186556235055 L 211.85372465709185 256.2137353653401 L 211.83197610329552 256.1962720885563 L 211.82586594070128 256.1914436358589 L 211.8038391221639 256.1743142767644 L 211.79765056222388 256.169578611406 L 211.77534918914196 256.15278688019737 L 211.7690831396516 256.1481450034822 L 211.74651092222172 256.131694610356 L 211.74016830891907 256.12714754361315 L 211.71732895733777 256.1110421987658 L 211.7109107272007 256.1065909837179 L 211.6878079516645 256.0908343973461 L 211.68131507627785 256.0864800962584 L 211.65795258698333 256.0710759785586 L 211.65138606592677 256.06681967413806 L 211.62776757307043 256.05177173530683 L 211.6211284373533 256.04761453037435 L 211.59725765113174 256.03292648060824 L 211.59054696663048 256.0288694975189 L 211.56642759724022 256.01454504701445 L 211.5596464681438 256.0105894268353 L 211.53528222578137 255.99663228578908 L 211.52843179801565 255.9927791872235 L 211.50382639287764 255.97919306583208 L 211.4969078575009 255.97544366389235 L 211.47206499978387 255.9622322723522 L 211.46507959633038 255.9585877567759 L 211.44000299623082 255.94575480528363 L 211.43295201599906 255.94221637870035 L 211.40764538371354 255.92976557745246 L 211.40053017295608 255.9263344532877 L 211.37499721868116 255.9142695124808 L 211.3678191817086 255.91094691261455 L 211.34206361564082 255.89927154244518 L 211.33482421779638 255.8960586946146 L 211.30884975013228 255.88477660527926 L 211.3015505206293 255.88167474023552 L 211.27536086156545 255.87078964193077 L 211.2680033961688 255.86779999035483 L 211.24160225590174 255.8573155932772 L 211.2341882194311 255.85443938245936 L 211.20757930815736 255.84435939680543 L 211.20011043679062 255.8415978470963 L 211.17329746470676 255.83192598306266 L 211.16577556807283 255.82928030410804 L 211.13876224537537 255.82002027189114 L 211.13118920839693 255.8174916586545 L 211.1039792452825 255.808647168451 L 211.09635702978377 255.80623679704814 L 211.06895413644884 255.79781155905448 L 211.0612847824657 255.79552058239977 L 211.0336926691068 255.78751830681256 L 211.02597829592435 255.78534785010686 L 210.99820067273808 255.77777224712264 L 210.9904434796066 255.7757234031902 L 210.96248405678952 255.76857818300547 L 210.95468632331367 255.76665200750307 L 210.92654881106228 255.75994088031445 L 210.91871289725955 255.7581383868363 L 210.89040100577043 255.75186506284027 L 210.88252935175797 255.7501872179345 L 210.85404679122766 255.74435540732767 L 210.84614191655754 255.74280312545596 L 210.8174923971826 255.73741653843484 L 210.80955689978384 255.73599067689406 L 210.78074413176077 255.7310530236552 L 210.7727806865039 255.72975437749298 L 210.7438083800293 255.72526936823297 L 210.7358197368956 255.72409866518223 L 210.706691602166 255.72007001009757 L 210.69868058401238 255.71902790555913 L 210.66940033122432 255.71545931484633 L 210.66136983115047 255.71454638695042 L 210.6319411705005 255.71144157080613 L 210.62389414882605 255.71065831558377 L 210.59432079051072 255.7080209842045 L 210.58626027133903 255.70736781089644 L 210.5565459255549 255.70520167447867 L 210.54847499295516 255.70467890101602 L 210.51862336989876 255.70298766975637 L 210.51054516371116 255.70259551844276 L 210.48055997357903 255.70138290253777 L 210.47247768484073 255.70112149596235 L 210.44236263782946 255.70039120560858 L 210.43427950385154 255.70026056282094 L 210.40403831015763 255.70001630821488 L 210.4 255.7 L 183.0 255.7 L 183.00403831015763 255.70001630821488 L 183.03427950385154 255.70026056282094 L 183.04236263782946 255.70039120560858 L 183.07247768484072 255.70112149596235 L 183.08055997357903 255.70138290253777 L 183.11054516371115 255.70259551844276 L 183.11862336989876 255.70298766975637 L 183.14847499295516 255.70467890101602 L 183.1565459255549 255.70520167447867 L 183.18626027133902 255.70736781089644 L 183.19432079051072 255.7080209842045 L 183.22389414882605 255.71065831558377 L 183.2319411705005 255.71144157080613 L 183.26136983115046 255.71454638695042 L 183.26940033122432 255.71545931484633 L 183.29868058401237 255.71902790555913 L 183.30669160216598 255.72007001009757 L 183.3358197368956 255.72409866518223 L 183.3438083800293 255.72526936823297 L 183.3727806865039 255.72975437749298 L 183.38074413176076 255.7310530236552 L 183.40955689978384 255.73599067689406 L 183.4174923971826 255.73741653843484 L 183.44614191655754 255.74280312545596 L 183.45404679122765 255.74435540732767 L 183.48252935175796 255.7501872179345 L 183.49040100577042 255.75186506284027 L 183.51871289725955 255.7581383868363 L 183.52654881106227 255.75994088031445 L 183.55468632331366 255.76665200750307 L 183.56248405678951 255.76857818300547 L 183.5904434796066 255.7757234031902 L 183.59820067273807 255.77777224712264 L 183.62597829592434 255.78534785010686 L 183.6336926691068 255.78751830681256 L 183.66128478246569 255.79552058239977 L 183.66895413644883 255.79781155905448 L 183.69635702978377 255.80623679704814 L 183.70397924528248 255.808647168451 L 183.73118920839693 255.8174916586545 L 183.73876224537537 255.82002027189114 L 183.76577556807283 255.82928030410804 L 183.77329746470676 255.83192598306266 L 183.80011043679062 255.8415978470963 L 183.80757930815736 255.84435939680543 L 183.8341882194311 255.85443938245936 L 183.84160225590173 255.8573155932772 L 183.8680033961688 255.86779999035483 L 183.87536086156544 255.87078964193077 L 183.90155052062929 255.88167474023552 L 183.90884975013228 255.88477660527926 L 183.93482421779638 255.8960586946146 L 183.94206361564082 255.89927154244518 L 183.9678191817086 255.91094691261455 L 183.97499721868115 255.9142695124808 L 184.00053017295608 255.9263344532877 L 184.00764538371354 255.92976557745246 L 184.03295201599906 255.94221637870035 L 184.0400029962308 255.94575480528363 L 184.06507959633038 255.9585877567759 L 184.07206499978386 255.9622322723522 L 184.0969078575009 255.97544366389235 L 184.10382639287764 255.97919306583208 L 184.12843179801564 255.9927791872235 L 184.13528222578137 255.99663228578908 L 184.1596464681438 256.0105894268353 L 184.16642759724022 256.01454504701445 L 184.19054696663048 256.0288694975189 L 184.19725765113174 256.03292648060824 L 184.2211284373533 256.04761453037435 L 184.22776757307042 256.05177173530683 L 184.25138606592677 256.06681967413806 L 184.25795258698332 256.0710759785586 L 184.28131507627785 256.0864800962584 L 184.2878079516645 256.0908343973461 L 184.3109107272007 256.1065909837179 L 184.31732895733776 256.1110421987658 L 184.34016830891906 256.12714754361315 L 184.3465109222217 256.131694610356 L 184.3690831396516 256.1481450034822 L 184.37534918914196 256.15278688019737 L 184.39765056222387 256.169578611406 L 184.4038391221639 256.1743142767644 L 184.42586594070127 256.1914436358589 L 184.4319761032955 256.1962720885563 L 184.45372465709184 256.2137353653401 L 184.45975552925785 256.2186556235055 L 184.48122210811653 256.23644910778205 L 184.48717280832275 256.24146020815783 L 184.50835370204726 256.2595801897305 L 184.51422335725783 256.26468118665423 L 184.5351148556516 256.2831239553266 L 184.54090259835874 256.28831391949586 L 184.56150099122527 256.30707576507126 L 184.5672059566066 256.3123537821219 L 184.58750753374935 256.3314309944039 L 184.5931288569342 256.3367961632848 L 184.61312990815654 256.3561850320768 L 184.61866672163893 256.3616364632562 L 184.63836353674438 256.3813332783617 L 184.64381496792325 256.38687009184355 L 184.66320383671524 256.4068711430659 L 184.668569005596 256.4124924662505 L 184.68764621787798 256.4327940433932 L 184.69292423492854 256.4384990087745 L 184.71168608050397 256.45909740164103 L 184.71687604467394 256.46488514434895 L 184.73531881334628 256.4857766427428 L 184.7404198102691 256.49164629795234 L 184.7585397918418 256.5128271916768 L 184.76355089221875 256.5187778918844 L 184.78134437649524 256.5402444707431 L 184.7862646346596 256.5462753429078 L 184.80372791144336 256.56802389670406 L 184.8085563641417 256.57413405929947 L 184.82568572323615 256.59616087783684 L 184.830421388594 256.6023494377762 L 184.84721311980263 256.6246508108581 L 184.85185499651752 256.63091686034807 L 184.86830538964378 256.653489077778 L 184.8728524563872 256.6598316910814 L 184.8889578012345 256.6826710426627 L 184.8934090162823 256.68908927279966 L 184.90916560265413 256.7121920483359 L 184.91351990374167 256.7186849237223 L 184.92892402144147 256.74204741301685 L 184.93318032586183 256.74861393407315 L 184.94822826469306 256.77223242692946 L 184.95238546962568 256.7788715626468 L 184.9670735193918 256.8027423488684 L 184.97113050248132 256.80945303336983 L 184.98545495298575 256.8335724027601 L 184.98941057316478 256.84035353185635 L 185.00336771421098 256.8647177742188 L 185.00722081277632 256.87156820198413 L 185.02080693416778 256.89617360712214 L 185.02455633610796 256.90309214249964 L 185.0377677276481 256.9279350002167 L 185.04141224322416 256.93492040366976 L 185.05424519471643 256.95999700376933 L 185.05778362130002 256.9670479840017 L 185.07023442254788 256.99235461628723 L 185.07366554671233 256.9994698270441 L 185.08573048751924 257.025002781319 L 185.08905308738522 257.03218081829095 L 185.10072845755462 257.0579363843587 L 185.10394130538555 257.06517578220394 L 185.11522339472089 257.09115024986806 L 185.11832525976453 257.09844947937086 L 185.1292103580693 257.1246391384347 L 185.13220000964523 257.13199660383134 L 185.14268440672285 257.1583977440984 L 185.14556061754087 257.1658117805695 L 185.15564060319477 257.19242069184327 L 185.1584021529036 257.1998895632091 L 185.16807401693725 257.226702535293 L 185.17071969589222 257.23422443192794 L 185.1799797281091 257.2612377546254 L 185.1825083413454 257.2688107916028 L 185.19135283154893 257.29602075471723 L 185.19376320295197 257.3036429702166 L 185.20218844094563 257.33104586355154 L 185.20447941760028 257.33871521753457 L 185.2124816931875 257.36630733089345 L 185.21465214989303 257.3740217040753 L 185.22222775287727 257.40179932726153 L 185.22427659681003 257.4095565203942 L 185.23142181699473 257.4375159432113 L 185.23334799249696 257.44531367668645 L 185.24005911968558 257.4734511889378 L 185.24186161316385 257.48128710274113 L 185.24813493715985 257.50959899423026 L 185.24981278206545 257.51747064824184 L 185.2556445926723 257.5459532087722 L 185.2571968745441 257.55385808344266 L 185.2625834615652 257.5825076028176 L 185.26400932310605 257.59044310021676 L 185.2689469763449 257.6192558682398 L 185.27024562250702 257.62721931349597 L 185.27473063176706 257.6561916199706 L 185.27590133481783 257.66418026310464 L 185.27992998990248 257.69330839783424 L 185.28097209444098 257.70131941598834 L 185.28454068515376 257.7305996687764 L 185.28545361304958 257.73863016884934 L 185.2885584291939 257.7680588294993 L 185.28934168441629 257.7761058511742 L 185.29197901579556 257.8056792094895 L 185.29263218910364 257.8137397286617 L 185.29479832552138 257.84345407444584 L 185.295321098984 257.8515250070451 L 185.29701233024366 257.8813766301015 L 185.29740448155727 257.88945483628913 L 185.29861709746226 257.9194400264213 L 185.29887850403767 257.9275223151591 L 185.29960879439147 257.9576373621704 L 185.2997394371791 257.9657204961488 L 185.29998369178517 257.99596168984266 L 185.30000000000007 258.0000000000004 L 185.3 258.2020202020203 L 185.3 260.3 L 208.10000000000002 260.3 L 208.10000000000002 319.59999999999997 L 212.70000000000002 319.59999999999997 L 212.70000000000002 258.6454545454546 Z" id="element_6" /></svg>