<svg xmlns="http://www.w3.org/2000/svg" viewBox="0.0 0.0 200.0 200.0" height="200.0px" width="200.0px"><path fill="#80dfb5" fill-opacity="1.0"  filling="0" d="M138.85430908203125 28.634765625 L65.23750305175781 28.634765625 L57.95937728881836 20.283981323242188 L65.23750305175781 2.9296875 L138.85430908203125 2.9296875 L145.9816436767578 18.774215698242188 L138.85430908203125 28.634765625 Z"></path>
<path fill="#b0ebce" fill-opacity="1.0"  filling="0" d="M47.20780944824219 20.959381103515625 C42.293357849121094 25.873825073242188 39.53202819824219 32.53984069824219 39.53202819824219 39.490234375 L39.53202819824219 79.33086395263672 L52.384765625 90.46367645263672 L65.23750305175781 79.33086395263672 L65.23750305175781 2.9296875 L47.20780944824219 20.959381103515625 Z"></path>
<path fill="#b0ebce" fill-opacity="1.0"  filling="0" d="M156.88397216796875 20.959381103515625 L138.85430908203125 2.9296875 L138.85430908203125 79.3304672241211 L151.70703125 90.4632797241211 L164.5597686767578 79.3304672241211 L164.5597686767578 39.48984146118164 C164.55938720703125 32.539451599121094 161.79844665527344 25.873825073242188 156.88397216796875 20.959381103515625 Z"></path>
<path fill="#80dfb5" fill-opacity="1.0"  filling="0" d="M65.23750305175781 67.61210632324219 L39.53202819824219 67.61210632324219 L39.53202819824219 79.3304672241211 L52.384765625 90.46367645263672 L65.23750305175781 79.3304672241211 L65.23750305175781 67.61210632324219 Z"></path>
<path fill="#80dfb5" fill-opacity="1.0"  filling="0" d="M164.55938720703125 79.3304672241211 L164.55938720703125 67.61210632324219 L138.85430908203125 67.61210632324219 L138.85430908203125 79.3304672241211 L151.70703125 90.46367645263672 L164.55938720703125 79.3304672241211 Z"></path>
<path fill="#36d39a" fill-opacity="1.0"  filling="0" d="M168.39219665527344 79.3304672241211 L31.607810974121094 79.3304672241211 C21.460548400878906 79.3304672241211 13.234375 87.556640625 13.234375 97.70390319824219 L13.234375 153.2390594482422 C13.234375 163.06289672851562 17.13671875 172.48397827148438 24.083206176757812 179.43048095703125 L30.87421417236328 186.2214813232422 C37.820701599121094 193.16796875 47.24179458618164 197.0703125 57.06562423706055 197.0703125 L142.9343719482422 197.0703125 C152.75820922851562 197.0703125 162.17929077148438 193.16796875 169.12579345703125 186.2214813232422 L175.9167938232422 179.43048095703125 C182.86328125 172.48397827148438 186.765625 163.06289672851562 186.765625 153.2390594482422 L186.765625 97.70390319824219 C186.765625 87.556640625 178.53945922851562 79.3304672241211 168.39219665527344 79.3304672241211 Z"></path>
<path fill="#ffefe0" fill-opacity="1.0"  filling="0" d="M75.5835952758789 148.27108764648438 A14.276952743530273 11.369531631469727 0.0 1 1 47.029685974121094 148.27108764648438 A14.276952743530273 11.369531631469727 0.0 1 1 75.5835952758789 148.27108764648438 Z"></path>
<path fill="#ffefe0" fill-opacity="1.0"  filling="0" d="M152.97030639648438 148.27108764648438 A14.276952743530273 11.369531631469727 0.0 1 1 124.41641235351562 148.27108764648438 A14.276952743530273 11.369531631469727 0.0 1 1 152.97030639648438 148.27108764648438 Z"></path>
<path fill="#00c67f" fill-opacity="1.0"  filling="0" d="M33.1171875 112.19296264648438 C33.1171875 100.51758575439453 35.53398895263672 89.408203125 39.887107849121094 79.33086395263672 L31.607810974121094 79.33086395263672 C21.460548400878906 79.33086395263672 13.234375 87.5570297241211 13.234375 97.70429992675781 L13.234375 153.2394561767578 C13.234375 163.06289672851562 17.13671875 172.484375 24.083206176757812 179.43084716796875 L30.87421417236328 186.22186279296875 C37.820701599121094 193.16835021972656 47.24179458618164 197.07070922851562 57.06562423706055 197.07070922851562 L63.51288986206055 197.07070922851562 C40.08476638793945 176.70547485351562 33.1171875 142.1320343017578 33.1171875 112.19296264648438 Z"></path>
<path fill="" fill-opacity="1.0"  filling="0" d="M72.5570297241211 137.32656860351562 L72.5570297241211 131.490234375 C72.5570297241211 129.8722686767578 71.24531555175781 128.560546875 69.6273422241211 128.560546875 C68.0093765258789 128.560546875 66.69766235351562 129.8722686767578 66.69766235351562 131.490234375 L66.69766235351562 137.32656860351562 C66.69766235351562 138.9445343017578 68.0093765258789 140.25625610351562 69.6273422241211 140.25625610351562 C71.24531555175781 140.25625610351562 72.5570297241211 138.9445343017578 72.5570297241211 137.32656860351562 Z"></path>
<path fill="" fill-opacity="1.0"  filling="0" d="M133.30233764648438 137.32656860351562 L133.30233764648438 131.490234375 C133.30233764648438 129.8722686767578 131.99063110351562 128.560546875 130.37265014648438 128.560546875 C128.7546844482422 128.560546875 127.4429702758789 129.8722686767578 127.4429702758789 131.490234375 L127.4429702758789 137.32656860351562 C127.4429702758789 138.9445343017578 128.7546844482422 140.25625610351562 130.37265014648438 140.25625610351562 C131.99063110351562 140.25625610351562 133.30233764648438 138.9445343017578 133.30233764648438 137.32656860351562 Z"></path>
<path fill="" fill-opacity="1.0"  filling="0" d="M100.0 143.73046875 C103.91561889648438 143.73046875 107.63945770263672 142.03475952148438 110.21640014648438 139.07772827148438 C111.279296875 137.85780334472656 111.15233612060547 136.00741577148438 109.93241882324219 134.9441375732422 C108.712890625 133.88125610351562 106.86210632324219 134.00820922851562 105.798828125 135.22811889648438 C104.33476257324219 136.908203125 102.22148895263672 137.87147521972656 100.0 137.87147521972656 C97.77851867675781 137.87147521972656 95.66523742675781 136.908203125 94.201171875 135.22811889648438 C93.13789367675781 134.00820922851562 91.2874984741211 133.8816375732422 90.06758117675781 134.9441375732422 C88.84765625 136.00741577148438 88.720703125 137.85780334472656 89.7835922241211 139.07772827148438 C92.36054229736328 142.0343780517578 96.0843734741211 143.73046875 100.0 143.73046875 Z"></path>
<path fill="" fill-opacity="1.0"  filling="0" d="M13.234375 138.458984375 C11.616409301757812 138.458984375 10.3046875 139.77069091796875 10.3046875 141.388671875 L10.3046875 153.2394561767578 C10.3046875 163.91561889648438 14.462104797363281 173.95272827148438 22.011329650878906 181.50234985351562 L28.802345275878906 188.29336547851562 C36.35195541381836 195.8425750732422 46.389060974121094 200.0 57.06562423706055 200.0 L142.9343719482422 200.0 C153.61093139648438 200.0 163.64804077148438 195.8425750732422 171.197265625 188.29296875 L177.98828125 181.501953125 C185.53750610351562 173.95272827148438 189.6953125 163.91561889648438 189.6953125 153.2390594482422 L189.6953125 97.70390319824219 C189.6953125 85.9574203491211 180.138671875 76.4007797241211 168.39219665527344 76.4007797241211 L167.48907470703125 76.4007797241211 L167.48907470703125 39.48984146118164 C167.48907470703125 31.707420349121094 164.45858764648438 24.390625 158.95547485351562 18.88750457763672 L140.92578125 0.8582077026367188 C140.408203125 0.3406219482421875 139.65975952148438 0.0 138.85430908203125 0.0 L65.23710632324219 0.0 C64.498046875 0.0 63.72929763793945 0.29570770263671875 63.16875076293945 0.8550796508789062 C63.167972564697266 0.8562469482421875 63.16679763793945 0.8566360473632812 63.16562271118164 0.8578109741210938 L45.13594055175781 18.88750457763672 C39.632808685302734 24.390625 36.60234069824219 31.707420349121094 36.60234069824219 39.48984146118164 L36.60234069824219 76.4007797241211 L31.608200073242188 76.4007797241211 C19.861724853515625 76.4007797241211 10.305076599121094 85.9574203491211 10.305076599121094 97.70390319824219 L10.305076599121094 129.66954040527344 C10.305076599121094 131.28750610351562 11.616798400878906 132.59922790527344 13.234764099121094 132.59922790527344 C14.852729797363281 132.59922790527344 16.164451599121094 131.28750610351562 16.164451599121094 129.66954040527344 L16.164451599121094 97.70390319824219 C16.164451599121094 89.18828582763672 23.09258270263672 82.2601547241211 31.608200073242188 82.2601547241211 L168.39219665527344 82.2601547241211 C176.90780639648438 82.2601547241211 183.8359375 89.18828582763672 183.8359375 97.70390319824219 L183.8359375 153.2390594482422 C183.8359375 162.35000610351562 180.2878875732422 170.916015625 173.84530639648438 177.35858154296875 L167.05429077148438 184.1496124267578 C160.611328125 190.5925750732422 152.04531860351562 194.140625 142.9343719482422 194.140625 L57.06562423706055 194.140625 C47.95429611206055 194.140625 39.388668060302734 190.5925750732422 32.945701599121094 184.14999389648438 L26.154685974121094 177.35897827148438 C19.71210479736328 170.91641235351562 16.1640625 162.3503875732422 16.1640625 153.2394561767578 L16.1640625 141.388671875 C16.1640625 139.77069091796875 14.852348327636719 138.458984375 13.234375 138.458984375 Z M135.92462158203125 25.705078125 L68.16679382324219 25.705078125 L68.16679382324219 5.859375 L135.92422485351562 5.859375 L135.92422485351562 25.705078125 L135.92462158203125 25.705078125 Z M42.46171569824219 76.4007797241211 L42.46171569824219 39.48984146118164 C42.46171569824219 33.27226257324219 44.882808685302734 27.42694854736328 49.279296875 23.030860900878906 L62.30781173706055 10.002731323242188 L62.30781173706055 76.4007797241211 L42.46171569824219 76.4007797241211 Z M141.78399658203125 76.4007797241211 L141.78399658203125 56.111717224121094 C141.78399658203125 54.49374771118164 140.47225952148438 53.182029724121094 138.85430908203125 53.182029724121094 C137.236328125 53.182029724121094 135.92462158203125 54.49374771118164 135.92462158203125 56.111717224121094 L135.92462158203125 76.4007797241211 L68.16679382324219 76.4007797241211 L68.16679382324219 31.564453125 L135.92422485351562 31.564453125 L135.92422485351562 44.392967224121094 C135.92422485351562 46.01093673706055 137.23593139648438 47.322654724121094 138.85391235351562 47.322654724121094 C140.4718780517578 47.322654724121094 141.78359985351562 46.01093673706055 141.78359985351562 44.392967224121094 L141.78359985351562 10.002731323242188 L154.81210327148438 23.030860900878906 C159.2082061767578 27.42694854736328 161.6296844482422 33.27226257324219 161.6296844482422 39.48984146118164 L161.6296844482422 76.4007797241211 L141.78399658203125 76.4007797241211 Z"></path></svg>