<svg xmlns="http://www.w3.org/2000/svg" viewBox="0.0 0.0 200.0 200.0" height="200.0px" width="200.0px"><path fill="#72d8ff" fill-opacity="1.0"  filling="0" d="M110.54103088378906 172.57254028320312 L135.07119750976562 172.57254028320312 C135.07119750976562 163.31507873535156 142.60287475585938 155.7834014892578 151.86070251464844 155.7834014892578 C161.1181640625 155.7834014892578 168.64828491210938 163.31507873535156 168.64828491210938 172.57254028320312 L183.75302124023438 172.57254028320312 C190.56007385253906 172.57254028320312 196.0792236328125 167.05337524414062 196.0792236328125 160.24632263183594 L196.0792236328125 135.4141845703125 L175.1928253173828 117.12818908691406 L113.6523666381836 117.12818908691406 L113.6523666381836 85.42924499511719 L15.589897155761719 85.42924499511719 C9.146125793457031 85.42924499511719 3.9214935302734375 90.65387725830078 3.9214935302734375 97.09764862060547 L3.9214935302734375 160.24632263183594 C3.9214935302734375 167.05337524414062 9.440658569335938 172.57254028320312 16.247718811035156 172.57254028320312 L31.352462768554688 172.57254028320312 C31.352462768554688 163.31507873535156 38.88256072998047 155.7834014892578 48.1400146484375 155.7834014892578 C57.3974723815918 155.7834014892578 64.92953491210938 163.31507873535156 64.92953491210938 172.57254028320312 L110.54103088378906 172.57254028320312 Z"></path>
<path fill="#6289fa" fill-opacity="1.0"  filling="0" d="M151.86070251464844 189.3604736328125 C142.60287475585938 189.3604736328125 135.07119750976562 181.82998657226562 135.07119750976562 172.57254028320312 C135.07119750976562 163.31507873535156 142.60287475585938 155.78497314453125 151.86070251464844 155.78497314453125 C161.1181640625 155.78497314453125 168.64828491210938 163.31507873535156 168.64828491210938 172.57254028320312 C168.64828491210938 181.82998657226562 161.1181640625 189.3604736328125 151.86070251464844 189.3604736328125 Z"></path>
<path fill="#f0f0fa" fill-opacity="1.0"  filling="0" d="M175.1928253173828 117.12818908691406 L144.45834350585938 90.21754455566406 C140.9337158203125 87.13081359863281 136.40792846679688 85.42924499511719 131.72352600097656 85.42924499511719 L113.6523666381836 85.42924499511719 L113.6523666381836 117.12662506103516 L175.1928253173828 117.12662506103516 L175.1928253173828 117.12818908691406 Z"></path>
<path fill="#ffb954" fill-opacity="1.0"  filling="0" d="M62.89866638183594 55.338897705078125 L80.68115234375 55.338897705078125 L80.68115234375 85.42924499511719 L62.89866638183594 85.42924499511719 L62.89866638183594 55.338897705078125 Z"></path>
<path fill="#ffb954" fill-opacity="1.0"  filling="0" d="M118.84809112548828 68.03738403320312 L87.0210189819336 55.407649993896484 L87.0210189819336 23.58214569091797 L118.84809112548828 10.952407836914062 L118.84809112548828 68.03738403320312 Z"></path>
<path fill="#ffb954" fill-opacity="1.0"  filling="0" d="M56.558406829833984 23.58214569091797 L87.0210189819336 23.58214569091797 L87.0210189819336 55.407649993896484 L56.558406829833984 55.407649993896484 L56.558406829833984 23.58214569091797 Z"></path>
<path fill="#6289fa" fill-opacity="1.0"  filling="0" d="M48.1400146484375 189.3604736328125 C38.88256072998047 189.3604736328125 31.352462768554688 181.82998657226562 31.352462768554688 172.57254028320312 C31.352462768554688 163.31507873535156 38.88256072998047 155.78497314453125 48.1400146484375 155.78497314453125 C57.397865295410156 155.78497314453125 64.92953491210938 163.31507873535156 64.92953491210938 172.57254028320312 C64.92796325683594 181.82998657226562 57.397865295410156 189.3604736328125 48.1400146484375 189.3604736328125 Z"></path>
<path fill="" fill-opacity="1.0"  filling="0" d="M157.58261108398438 58.47446060180664 C156.05056762695312 60.00649642944336 156.05056762695312 62.48931884765625 157.58261108398438 64.02135467529297 C158.3486328125 64.78581237792969 159.3525390625 65.17018127441406 160.3552703857422 65.17018127441406 C161.35919189453125 65.17018127441406 162.36309814453125 64.78581237792969 163.12754821777344 64.02135467529297 C169.67991638183594 57.47054672241211 173.28695678710938 48.75918960571289 173.28695678710938 39.4954833984375 C173.28695678710938 30.23059844970703 169.67991638183594 21.52080535888672 163.12754821777344 14.970001220703125 C161.59707641601562 13.437965393066406 159.11463928222656 13.437965393066406 157.58261108398438 14.970001220703125 C156.05056762695312 16.50048065185547 156.05056762695312 18.98486328125 157.58261108398438 20.516502380371094 C168.0486602783203 30.980995178222656 168.0486602783203 48.00840759277344 157.58261108398438 58.47446060180664 Z"></path>
<path fill="" fill-opacity="1.0"  filling="0" d="M144.11692810058594 58.111568450927734 C144.882568359375 58.877586364746094 145.88685607910156 59.260398864746094 146.89077758789062 59.260398864746094 C147.89312744140625 59.260398864746094 148.8974151611328 58.877586364746094 149.66343688964844 58.111568450927734 C159.9279327392578 47.84668731689453 159.9279327392578 31.143112182617188 149.66343688964844 20.87822723388672 C148.1313934326172 19.347755432128906 145.64859008789062 19.347755432128906 144.11692810058594 20.87822723388672 C142.58645629882812 22.410263061523438 142.58645629882812 24.893089294433594 144.11692810058594 26.424728393554688 C151.32516479492188 33.63178253173828 151.32516479492188 45.35800552368164 144.11692810058594 52.56623077392578 C142.58645629882812 54.09670639038086 142.58645629882812 56.58108901977539 144.11692810058594 58.111568450927734 Z"></path>
<path fill="" fill-opacity="1.0"  filling="0" d="M130.65086364746094 52.203338623046875 C131.41688537597656 52.967796325683594 132.42079162597656 53.35061264038086 133.42471313476562 53.35061264038086 C134.4274444580078 53.35061264038086 135.4313507080078 52.967796325683594 136.19737243652344 52.203338623046875 C143.2044219970703 45.196285247802734 143.2044219970703 33.79350280761719 136.19737243652344 26.786453247070312 C134.66534423828125 25.2559814453125 132.18289184570312 25.2559814453125 130.65086364746094 26.786453247070312 C129.12039184570312 28.31848907470703 129.12039184570312 30.801307678222656 130.65086364746094 32.33296203613281 C134.59971618652344 36.282188415527344 134.59971618652344 42.707603454589844 130.65086364746094 46.65644836425781 C129.12039184570312 48.18848419189453 129.12039184570312 50.671302795410156 130.65086364746094 52.203338623046875 Z"></path>
<path fill="" fill-opacity="1.0"  filling="0" d="M12.931686401367188 65.16862487792969 C13.935981750488281 65.16862487792969 14.939895629882812 64.78581237792969 15.704353332519531 64.02135467529297 C17.23638916015625 62.48931884765625 17.23638916015625 60.00649642944336 15.704353332519531 58.47446060180664 C5.239860534667969 48.00840759277344 5.239860534667969 30.980995178222656 15.704353332519531 20.515335083007812 C17.23638916015625 18.983291625976562 17.23638916015625 16.50048065185547 15.704353332519531 14.96844482421875 C14.173881530761719 13.437965393066406 11.68988037109375 13.437965393066406 10.157844543457031 14.96844482421875 C3.6070404052734375 21.52080535888672 0.0 30.23059844970703 0.0 39.4954833984375 C0.0 48.75918960571289 3.6070404052734375 57.46898651123047 10.159408569335938 64.02135467529297 C10.923866271972656 64.78581237792969 11.927780151367188 65.16862487792969 12.931686401367188 65.16862487792969 Z"></path>
<path fill="" fill-opacity="1.0"  filling="0" d="M23.623916625976562 58.111568450927734 C24.389930725097656 58.877586364746094 25.393844604492188 59.260398864746094 26.397750854492188 59.260398864746094 C27.400489807128906 59.260398864746094 28.404396057128906 58.877586364746094 29.17041778564453 58.111568450927734 C30.70245361328125 56.58108901977539 30.70245361328125 54.09670639038086 29.17041778564453 52.56467056274414 C21.96375274658203 45.35800552368164 21.96375274658203 33.63178253173828 29.17041778564453 26.424728393554688 C30.70245361328125 24.893089294433594 30.70245361328125 22.410263061523438 29.17041778564453 20.87822723388672 C27.638381958007812 19.34619140625 25.155555725097656 19.34619140625 23.623916625976562 20.87822723388672 C13.359031677246094 31.143112182617188 13.359031677246094 47.84668731689453 23.623916625976562 58.111568450927734 Z"></path>
<path fill="" fill-opacity="1.0"  filling="0" d="M39.86381912231445 53.35061264038086 C40.86615753173828 53.35061264038086 41.87046432495117 52.967796325683594 42.63608932495117 52.203338623046875 C44.16812515258789 50.671302795410156 44.16812515258789 48.18848419189453 42.63608932495117 46.65644836425781 C40.722801208496094 44.74315643310547 39.670066833496094 42.20096206665039 39.670066833496094 39.49392318725586 C39.670066833496094 36.7888298034668 40.724365234375 34.24507141113281 42.63608932495117 32.33296203613281 C44.16812515258789 30.801307678222656 44.16812515258789 28.31848907470703 42.63608932495117 26.786453247070312 C41.10444641113281 25.2559814453125 38.62162399291992 25.254417419433594 37.08958053588867 26.786453247070312 C33.69622039794922 30.180213928222656 31.827072143554688 34.693511962890625 31.827072143554688 39.49392318725586 C31.827072143554688 44.29471206665039 33.69622039794922 48.80801773071289 37.08958053588867 52.201778411865234 C37.85560607910156 52.969356536865234 38.85951232910156 53.35061264038086 39.86381912231445 53.35061264038086 Z"></path>
<path fill="" fill-opacity="1.0"  filling="0" d="M41.16538619995117 133.23684692382812 C40.25131607055664 131.8544158935547 38.47983169555664 131.1981658935547 36.8884162902832 131.62863159179688 C35.322784423828125 132.05128479003906 34.167701721191406 133.4200439453125 34.00129699707031 135.0313720703125 C33.836448669433594 136.63645935058594 34.72746276855469 138.21888732910156 36.171226501464844 138.92984008789062 C37.6388053894043 139.65325927734375 39.45326614379883 139.370849609375 40.62827682495117 138.234130859375 C41.972412109375 136.93255615234375 42.19663619995117 134.79934692382812 41.16538619995117 133.23684692382812 Z"></path>
<path fill="" fill-opacity="1.0"  filling="0" d="M98.47887420654297 171.05572509765625 C97.83668518066406 169.51470947265625 96.24839782714844 168.52447509765625 94.57730102539062 168.64479064941406 C92.94916534423828 168.76235961914062 91.53783416748047 169.91159057617188 91.08939361572266 171.4783935546875 C90.63587188720703 173.05612182617188 91.24486541748047 174.78660583496094 92.5753402709961 175.74325561523438 C93.88628387451172 176.68466186523438 95.69293212890625 176.71083068847656 97.03550720214844 175.81668090820312 C98.57222747802734 174.79440307617188 99.18708038330078 172.75885009765625 98.47887420654297 171.05572509765625 Z"></path>
<path fill="" fill-opacity="1.0"  filling="0" d="M199.97769165039062 135.0009002685547 C199.87728881835938 134.03176879882812 199.39486694335938 133.1055908203125 198.66244506835938 132.46456909179688 L147.04193115234375 87.266357421875 C142.80130004882812 83.55384826660156 137.36026000976562 81.50774383544922 131.72352600097656 81.50774383544922 L84.60108947753906 81.50774383544922 L84.60108947753906 59.33070755004883 L86.27179718017578 59.33070755004883 L117.40159606933594 71.68270874023438 C119.93598937988281 72.68974304199219 122.76959228515625 70.75810241699219 122.76959228515625 68.03738403320312 L122.76959228515625 10.952407836914062 C122.76959228515625 9.65240478515625 122.1258316040039 8.437950134277344 121.050048828125 7.708251953125 C119.97582244873047 6.977394104003906 118.60863494873047 6.827781677246094 117.40159606933594 7.3070831298828125 L86.27179718017578 19.66064453125 L56.558406829833984 19.66064453125 C54.391605377197266 19.66064453125 52.63690948486328 21.416900634765625 52.63690948486328 23.58214569091797 L52.63690948486328 55.409210205078125 C52.63690948486328 57.57445526123047 54.391605377197266 59.33070755004883 56.558406829833984 59.33070755004883 L58.97677230834961 59.33070755004883 L58.97677230834961 81.50930786132812 L15.589897155761719 81.50930786132812 C6.992988586425781 81.50774383544922 0.0 88.5022964477539 0.0 97.09764862060547 L0.0 160.24632263183594 C0.0 169.20494079589844 7.287528991699219 176.49403381347656 16.247718811035156 176.49403381347656 L27.80791473388672 176.49403381347656 C29.646591186523438 186.04446411132812 38.06185531616211 193.281982421875 48.1400146484375 193.281982421875 C58.218570709228516 193.281982421875 66.63383483886719 186.04446411132812 68.47251892089844 176.49403381347656 L79.1795883178711 176.49403381347656 C81.34638977050781 176.49403381347656 83.10108947753906 174.73777770996094 83.10108947753906 172.57254028320312 C83.10108947753906 170.40728759765625 81.34638977050781 168.65103149414062 79.1795883178711 168.65103149414062 L68.47720336914062 168.65103149414062 C67.062744140625 161.29632568359375 61.529911041259766 155.05410766601562 54.37051010131836 152.82167053222656 C47.17439270019531 150.57830810546875 39.14662551879883 152.4462890625 33.73137664794922 157.7103729248047 C30.704017639160156 160.65374755859375 28.601280212402344 164.502197265625 27.801658630371094 168.65103149414062 L16.247718811035156 168.65103149414062 C11.613319396972656 168.65103149414062 7.842994689941406 164.88070678710938 7.842994689941406 160.24632263183594 L7.842994689941406 139.335693359375 L22.187965393066406 139.335693359375 C24.35321807861328 139.335693359375 26.109466552734375 137.57943725585938 26.109466552734375 135.4141845703125 C26.109466552734375 133.2489471435547 24.35321807861328 131.49269104003906 22.187965393066406 131.49269104003906 L7.842994689941406 131.49269104003906 L7.842994689941406 97.09764862060547 C7.842994689941406 92.82536315917969 11.319183349609375 89.35074615478516 15.589897155761719 89.35074615478516 L109.73242950439453 89.35074615478516 L109.73242950439453 117.12662506103516 C109.73242950439453 119.29186248779297 111.48712921142578 121.04812622070312 113.6539306640625 121.04812622070312 L173.718994140625 121.04812622070312 L185.64675903320312 131.49269104003906 L178.74517822265625 131.49269104003906 C176.57994079589844 131.49269104003906 174.8236846923828 133.2489471435547 174.8236846923828 135.4141845703125 C174.8236846923828 137.57943725585938 176.57994079589844 139.335693359375 178.74517822265625 139.335693359375 L192.15773010253906 139.335693359375 L192.15773010253906 160.24632263183594 C192.15773010253906 164.88070678710938 188.3874053955078 168.64947509765625 183.75302124023438 168.64947509765625 L172.197509765625 168.64947509765625 C170.78305053710938 161.29632568359375 165.25021362304688 155.0525360107422 158.09080505371094 152.82167053222656 C150.89468383789062 150.57713317871094 142.86692810058594 152.4462890625 137.45167541503906 157.7103729248047 C134.42431640625 160.65255737304688 132.3215789794922 164.50062561035156 131.52197265625 168.64947509765625 L109.54336547851562 168.64947509765625 C107.37812042236328 168.64947509765625 105.62186431884766 170.40573120117188 105.62186431884766 172.57254028320312 C105.62186431884766 174.73777770996094 107.37812042236328 176.49403381347656 109.54336547851562 176.49403381347656 L131.52821350097656 176.49403381347656 C133.36532592773438 186.04327392578125 141.78216552734375 193.281982421875 151.86070251464844 193.281982421875 C161.9392547607422 193.281982421875 170.35414123535156 186.04327392578125 172.19320678710938 176.49403381347656 L183.75302124023438 176.49403381347656 C192.71163940429688 176.49403381347656 199.99917602539062 169.20494079589844 199.99917602539062 160.24632263183594 L199.99917602539062 135.4141845703125 C200.000732421875 135.2755126953125 199.992919921875 135.13645935058594 199.97769165039062 135.0009002685547 Z M90.94252014160156 26.245040893554688 L114.92658996582031 16.72625732421875 L114.92658996582031 62.2619743347168 L90.94252014160156 52.744747161865234 L90.94252014160156 26.245040893554688 Z M48.1400146484375 159.70489501953125 C48.58415985107422 159.70489501953125 49.02205276489258 159.72756958007812 49.45408630371094 159.7720947265625 C55.93418502807617 160.43264770507812 61.00802993774414 165.92132568359375 61.00802993774414 172.57254028320312 C61.00802993774414 179.66632080078125 55.2353515625 185.43898010253906 48.1400146484375 185.43898010253906 C41.046241760253906 185.43898010253906 35.273956298828125 179.66632080078125 35.273956298828125 172.57254028320312 C35.273956298828125 165.47720336914062 41.046241760253906 159.70489501953125 48.1400146484375 159.70489501953125 Z M76.75808715820312 81.50774383544922 L66.8201675415039 81.50774383544922 L66.8201675415039 59.33070755004883 L76.75808715820312 59.33070755004883 L76.75808715820312 81.50774383544922 Z M83.09951782226562 51.486148834228516 L81.40576171875 51.486148834228516 C81.16943359375 51.443180084228516 80.92842102050781 51.41740036010742 80.6795883178711 51.41740036010742 L62.89866638183594 51.41740036010742 C62.651397705078125 51.41740036010742 62.40882110595703 51.441619873046875 62.17366409301758 51.486148834228516 L60.47990798950195 51.486148834228516 L60.47990798950195 27.503639221191406 L83.09951782226562 27.503639221191406 L83.09951782226562 51.486148834228516 Z M117.57386779785156 113.20512390136719 L117.57386779785156 89.35074615478516 L131.72352600097656 89.35074615478516 C135.45870971679688 89.35074615478516 139.0645751953125 90.70738983154297 141.8751220703125 93.16716003417969 L164.7603759765625 113.20512390136719 L117.57386779785156 113.20512390136719 Z M151.86070251464844 185.43898010253906 C144.76536560058594 185.43898010253906 138.99269104003906 179.66632080078125 138.99269104003906 172.57254028320312 C138.99269104003906 165.47720336914062 144.76536560058594 159.70489501953125 151.86070251464844 159.70489501953125 C152.30447387695312 159.70489501953125 152.74273681640625 159.72756958007812 153.17437744140625 159.7720947265625 C159.65487670898438 160.43109130859375 164.72677612304688 165.92132568359375 164.72677612304688 172.57254028320312 C164.72677612304688 179.66632080078125 158.95448303222656 185.43898010253906 151.86070251464844 185.43898010253906 Z"></path></svg>