<svg xmlns="http://www.w3.org/2000/svg" viewBox="0.0 0.0 200.0 200.0" height="200.0px" width="200.0px"><path fill="#f4b2b0" fill-opacity="1.0"  filling="0" d="M128.125 106.25 L90.625 106.25 L90.625 112.5 A6.25 6.25 0.0 0 0 96.875 118.75 L121.875 118.75 A6.25 6.25 0.0 0 0 128.125 112.5 L128.125 106.25 Z"></path>
<path fill="#f4b2b0" fill-opacity="1.0"  filling="0" d="M130.0 96.875 L136.47500610351562 64.50312805175781 C136.82186889648438 62.76249694824219 137.0812530517578 61.00312423706055 137.2531280517578 59.23749923706055 L137.5 59.375 A28.568750381469727 28.568750381469727 0.0 0 1 152.74063110351562 79.328125 L156.25 96.875 L130.0 96.875 Z"></path>
<path fill="#f4b2b0" fill-opacity="1.0"  filling="0" d="M88.75 96.875 L82.27499389648438 64.50312805175781 C81.9281234741211 62.76249694824219 81.66875457763672 61.00312423706055 81.49687194824219 59.23749923706055 L81.25 59.375 A28.568750381469727 28.568750381469727 0.0 0 0 66.00936889648438 79.328125 L62.5 96.875 L88.75 96.875 Z"></path>
<path fill="#f4b2b0" fill-opacity="1.0"  filling="0" d="M128.72811889648438 25.0 C128.47500610351562 24.618751525878906 128.2156219482422 24.237503051757812 127.953125 23.86249542236328 L119.203125 11.362495422363281 A12.012500762939453 12.012500762939453 0.0 0 0 109.375 6.25 A12.012500762939453 12.012500762939453 0.0 0 0 99.5406265258789 11.368751525878906 L90.7906265258789 23.868751525878906 C90.5250015258789 24.243751525878906 90.26875305175781 24.625 90.015625 25.006248474121094 L128.72811889648438 25.006248474121094 L128.72811889648438 25.0 Z"></path>
<path fill="#f4b2b0" fill-opacity="1.0"  filling="0" d="M125.0 53.125 A15.625 15.625 0.0 1 1 93.75 53.125 A15.625 15.625 0.0 1 1 125.0 53.125 Z"></path>
<path fill="#f4b2b0" fill-opacity="1.0"  filling="0" d="M109.375 59.375 A6.25 6.25 0.0 1 1 115.625 53.125 A6.25 6.25 0.0 0 1 109.375 59.375 Z"></path>
<path fill="#b3404a" fill-opacity="1.0"  filling="0" d="M43.75 196.875 L162.5 196.875 A3.125 3.125 0.0 0 0 165.625 193.75 L165.625 171.3406219482422 A9.393750190734863 9.393750190734863 0.0 0 0 171.875 162.5 L171.875 31.25 A9.375 9.375 0.0 0 0 162.5 21.875 L130.3781280517578 21.875 L121.76875305175781 9.578125 A15.128125190734863 15.128125190734863 0.0 0 0 96.98125457763672 9.578125 L88.37187194824219 21.875 L43.75 21.875 A15.643750190734863 15.643750190734863 0.0 0 0 28.125 37.5 L28.125 181.25 A15.643750190734863 15.643750190734863 0.0 0 0 43.75 196.875 Z M165.625 31.25 L165.625 162.5 A3.125 3.125 0.0 0 1 162.5 165.625 L53.125 165.625 L53.125 28.125 L84.58125305175781 28.125 A55.60312271118164 55.60312271118164 0.0 0 0 78.125 54.146873474121094 C78.125 55.256248474121094 78.22187805175781 56.36562728881836 78.29061889648438 57.47500228881836 A31.421875 31.421875 0.0 0 0 62.94687271118164 78.7249984741211 L59.4375 96.25 A3.125 3.125 0.0 0 0 62.5 100.0 L86.1875 100.0 L87.5 106.56249237060547 L87.5 112.5 A9.346875190734863 9.346875190734863 0.0 0 0 91.3031234741211 120.0 A14.346875190734863 14.346875190734863 0.0 0 0 91.73124694824219 139.90313720703125 L94.66561889648438 142.83749389648438 A3.125 3.125 0.0 0 0 99.47500610351562 142.3625030517578 L100.78125 140.40313720703125 A40.209373474121094 40.209373474121094 0.0 0 0 106.77499389648438 154.8625030517578 A3.125 3.125 0.0 0 0 111.97500610351562 154.8625030517578 A40.209373474121094 40.209373474121094 0.0 0 0 117.96875 140.40313720703125 L119.27499389648438 142.3625030517578 A3.125 3.125 0.0 0 0 121.5625 143.75 A3.0625 3.0625 0.0 0 0 124.08125305175781 142.85000610351562 L127.015625 139.91561889648438 A14.346875190734863 14.346875190734863 0.0 0 0 127.44375610351562 120.01249694824219 A9.346875190734863 9.346875190734863 0.0 0 0 131.25 112.5 L131.25 106.56249237060547 L132.5625 100.0 L156.25 100.0 A3.125 3.125 0.0 0 0 159.3125 96.25 L155.80311584472656 78.703125 A31.421875 31.421875 0.0 0 0 140.45936584472656 57.453125 C140.52813720703125 56.343753814697266 140.625 55.234371185302734 140.625 54.125 A55.60312271118164 55.60312271118164 0.0 0 0 134.1687469482422 28.125 L162.5 28.125 A3.125 3.125 0.0 0 1 165.625 31.25 Z M126.98750305175781 28.125 A49.546875 49.546875 0.0 0 1 133.4093780517578 63.88750076293945 L125.5625 103.125 L93.1875 103.125 L85.34062194824219 63.88750076293945 A49.546875 49.546875 0.0 0 1 91.76249694824219 28.125 L126.98750305175781 28.125 Z M139.53750610351562 65.1156234741211 C139.58749389648438 64.86874389648438 139.60311889648438 64.61250305175781 139.64999389648438 64.3656234741211 A25.22187614440918 25.22187614440918 0.0 0 1 149.6875 79.94375610351562 L152.4375 93.75 L133.8125 93.75 L139.53750610351562 65.1156234741211 Z M104.03125 128.25936889648438 A3.125 3.125 0.0 0 0 100.52499389648438 129.50936889648438 L96.390625 135.71875 L96.1500015258789 135.4812469482422 A8.193750381469727 8.193750381469727 0.0 0 1 96.1500015258789 123.89375305175781 L98.16874694824219 121.875 L120.58124542236328 121.875 L122.59999084472656 123.89375305175781 A8.193750381469727 8.193750381469727 0.0 0 1 122.59999084472656 135.4812469482422 L122.359375 135.71875 L118.22500610351562 129.515625 A3.125 3.125 0.0 0 0 112.5 131.25 L112.5 132.5 A33.94375228881836 33.94375228881836 0.0 0 1 109.375 146.7624969482422 A33.94375228881836 33.94375228881836 0.0 0 1 106.25 132.5 L106.25 131.25 A3.125 3.125 0.0 0 0 104.03125 128.25936889648438 Z M125.0 112.5 A3.125 3.125 0.0 0 1 121.875 115.625 L96.875 115.625 A3.125 3.125 0.0 0 1 93.75 112.5 L93.75 109.375 L125.0 109.375 L125.0 112.5 Z M79.21249389648438 65.1156234741211 L84.9375 93.75 L66.3125 93.75 L69.07499694824219 79.94375610351562 A25.22187614440918 25.22187614440918 0.0 0 1 79.0999984741211 64.375 C79.1468734741211 64.61250305175781 79.16250610351562 64.86874389648438 79.21249389648438 65.1156234741211 Z M102.10000610351562 13.162498474121094 A8.881250381469727 8.881250381469727 0.0 0 1 116.64999389648438 13.162498474121094 L122.74687194824219 21.875 L96.00312805175781 21.875 L102.10000610351562 13.162498474121094 Z M34.375 37.5 A9.375 9.375 0.0 0 1 43.75 28.125 L46.875 28.125 L46.875 165.625 L43.75 165.625 A15.5625 15.5625 0.0 0 0 34.375 168.75 L34.375 37.5 Z M43.75 171.875 L159.375 171.875 L159.375 190.625 L43.75 190.625 A9.375 9.375 0.0 0 1 43.75 171.875 Z"></path>
<path fill="#b3404a" fill-opacity="1.0"  filling="0" d="M109.375 71.875 A18.75 18.75 0.0 1 0 90.625 53.125 A18.768749237060547 18.768749237060547 0.0 0 0 109.375 71.875 Z M109.375 40.625 A12.5 12.5 0.0 1 1 96.875 53.125 A12.5 12.5 0.0 0 1 109.375 40.625 Z"></path>
<path fill="#b3404a" fill-opacity="1.0"  filling="0" d="M115.625 53.125 A6.25 6.25 0.0 1 1 103.125 53.125 A6.25 6.25 0.0 1 1 115.625 53.125 Z"></path>
<path fill="#b3404a" fill-opacity="1.0"  filling="0" d="M115.625 84.375 A6.25 6.25 0.0 1 1 103.125 84.375 A6.25 6.25 0.0 1 1 115.625 84.375 Z"></path>
<path fill="#b3404a" fill-opacity="1.0"  filling="0" d="M46.875 178.125 L153.125 178.125 L153.125 184.375 L46.875 184.375 L46.875 178.125 Z"></path>
<path fill="#b3404a" fill-opacity="1.0"  filling="0" d="M62.5 112.5 L68.75 112.5 L68.75 131.25 L62.5 131.25 L62.5 112.5 Z"></path>
<path fill="#b3404a" fill-opacity="1.0"  filling="0" d="M75.0 106.25 L81.25 106.25 L81.25 143.75 L75.0 143.75 L75.0 106.25 Z"></path>
<path fill="#b3404a" fill-opacity="1.0"  filling="0" d="M150.0 112.5 L156.25 112.5 L156.25 131.25 L150.0 131.25 L150.0 112.5 Z"></path>
<path fill="#b3404a" fill-opacity="1.0"  filling="0" d="M137.5 106.25 L143.75 106.25 L143.75 143.75 L137.5 143.75 L137.5 106.25 Z"></path></svg>