<svg xmlns="http://www.w3.org/2000/svg" viewBox="0.0 0.0 200.0 200.0" height="200.0px" width="200.0px"><path fill="#f8f3f2" fill-opacity="1.0"  filling="0" d="M148.5647430419922 70.52141571044922 L148.5647430419922 120.2623291015625 L50.25495529174805 120.2623291015625 L50.25495529174805 70.52141571044922 C50.25495529174805 64.9325942993164 52.15460205078125 59.51288986206055 55.64712905883789 55.15117263793945 L77.396728515625 34.90398406982422 L124.2429428100586 34.90398406982422 L143.17257690429688 55.15117263793945 C146.66510009765625 59.51288986206055 148.5647430419922 64.9325942993164 148.5647430419922 70.52141571044922 Z"></path>
<path fill="#ede2dd" fill-opacity="1.0"  filling="0" d="M57.868106842041016 194.78482055664062 C57.868106842041016 196.03590393066406 58.88203811645508 197.04983520507812 60.13313293457031 197.04983520507812 L68.52147674560547 197.04983520507812 C69.77256774902344 197.04983520507812 70.7864990234375 196.03590393066406 70.7864990234375 194.78482055664062 L70.7864990234375 115.36532592773438 L57.868106842041016 115.36532592773438 L57.868106842041016 194.78482055664062 Z"></path>
<path fill="#ede2dd" fill-opacity="1.0"  filling="0" d="M127.74095916748047 194.78482055664062 C127.74095916748047 196.03590393066406 128.75489807128906 197.04983520507812 130.0059814453125 197.04983520507812 L138.3943328857422 197.04983520507812 C139.6454315185547 197.04983520507812 140.65936279296875 196.03590393066406 140.65936279296875 194.78482055664062 L140.65936279296875 115.36532592773438 L127.74095916748047 115.36532592773438 L127.74095916748047 194.78482055664062 Z"></path>
<path fill="#f2eae7" fill-opacity="1.0"  filling="0" d="M147.24087524414062 154.9676971435547 L51.1859016418457 154.9676971435547 C49.895084381103516 154.9676971435547 48.84850311279297 153.92111206054688 48.84850311279297 152.63031005859375 L48.84850311279297 145.230712890625 C48.84850311279297 143.9398956298828 49.895084381103516 142.893310546875 51.1859016418457 142.893310546875 L147.24087524414062 142.893310546875 C148.53170776367188 142.893310546875 149.57827758789062 143.9398956298828 149.57827758789062 145.230712890625 L149.57827758789062 152.62991333007812 C149.577880859375 153.92111206054688 148.53170776367188 154.9676971435547 147.24087524414062 154.9676971435547 Z"></path>
<path fill="#f2eae7" fill-opacity="1.0"  filling="0" d="M147.24087524414062 184.52867126464844 L51.1859016418457 184.52867126464844 C49.895084381103516 184.52867126464844 48.84850311279297 183.48208618164062 48.84850311279297 182.19126892089844 L48.84850311279297 174.79208374023438 C48.84850311279297 173.50128173828125 49.895084381103516 172.45469665527344 51.1859016418457 172.45469665527344 L147.24087524414062 172.45469665527344 C148.53170776367188 172.45469665527344 149.57827758789062 173.50128173828125 149.57827758789062 174.79208374023438 L149.57827758789062 182.19126892089844 C149.577880859375 183.48208618164062 148.53170776367188 184.52867126464844 147.24087524414062 184.52867126464844 Z"></path>
<path fill="#f2eae7" fill-opacity="1.0"  filling="0" d="M77.1343994140625 105.81122589111328 C72.78998565673828 105.81122589111328 69.2679672241211 102.28921508789062 69.2679672241211 97.94479370117188 L69.2679672241211 70.52181243896484 C69.2679672241211 70.49034881591797 69.2679672241211 70.45848846435547 69.2679672241211 70.4270248413086 C69.28645324707031 65.2413330078125 73.50146484375 61.04952621459961 78.68714904785156 61.04952621459961 L146.66390991210938 61.04952621459961 C145.7860565185547 58.94496154785156 144.61795043945312 56.956825256347656 143.17257690429688 55.15156936645508 L124.2429428100586 34.904380798339844 L96.40973663330078 34.904380798339844 L85.51959991455078 34.904380798339844 L77.39712524414062 34.904380798339844 L55.64752197265625 55.15156936645508 C52.154998779296875 59.51328659057617 50.255348205566406 64.93299102783203 50.255348205566406 70.52181243896484 L50.255348205566406 120.26272583007812 L64.32769775390625 120.26272583007812 L69.2679672241211 120.26272583007812 L148.5647430419922 120.26272583007812 L148.5647430419922 105.81122589111328 L77.1343994140625 105.81122589111328 Z"></path>
<path fill="#ded4cf" fill-opacity="1.0"  filling="0" d="M158.545166015625 125.40632629394531 L41.45482635498047 125.40632629394531 C39.5571403503418 125.40632629394531 38.01854705810547 123.86772155761719 38.01854705810547 121.97004699707031 L38.01854705810547 115.14704132080078 C38.01854705810547 113.24935913085938 39.5571403503418 111.71075439453125 41.45482635498047 111.71075439453125 L158.545166015625 111.71075439453125 C160.44284057617188 111.71075439453125 161.9814453125 113.24935913085938 161.9814453125 115.14704132080078 L161.9814453125 121.9704360961914 C161.9814453125 123.86811828613281 160.44284057617188 125.40632629394531 158.545166015625 125.40632629394531 Z"></path>
<path fill="#d9f2f6" fill-opacity="1.0"  filling="0" d="M59.76145935058594 70.52141571044922 L148.5647430419922 70.52141571044922 L148.5647430419922 92.85311126708984 L59.76145935058594 92.85311126708984 L59.76145935058594 70.52141571044922 Z"></path>
<path fill="#b3e5ee" fill-opacity="1.0"  filling="0" d="M50.25495529174805 70.52141571044922 L69.2679672241211 70.52141571044922 L69.2679672241211 92.85311126708984 L50.25495529174805 92.85311126708984 L50.25495529174805 70.52141571044922 Z"></path>
<path fill="#d9f2f6" fill-opacity="1.0"  filling="0" d="M147.40017700195312 55.14999771118164 L51.419918060302734 55.14999771118164 C47.63124084472656 55.14999771118164 45.822444915771484 50.4913330078125 48.61842727661133 47.93447494506836 L96.60836029052734 4.0506134033203125 C98.19454956054688 2.6001205444335938 100.62554931640625 2.6001205444335938 102.21173858642578 4.0506134033203125 L150.20166015625 47.93447494506836 C152.99765014648438 50.4913330078125 151.1888427734375 55.14999771118164 147.40017700195312 55.14999771118164 Z"></path>
<path fill="#b3e5ee" fill-opacity="1.0"  filling="0" d="M150.20166015625 47.93447494506836 L149.21133422851562 47.029090881347656 L76.4819107055664 47.029090881347656 C72.6932373046875 47.029090881347656 70.88443756103516 42.37043380737305 73.680419921875 39.813575744628906 L107.50086212158203 8.887054443359375 L102.21212005615234 4.0506134033203125 C100.62593841552734 2.6001205444335938 98.19493865966797 2.6001205444335938 96.60874938964844 4.0506134033203125 L48.61842727661133 47.93447494506836 C45.822444915771484 50.4913330078125 47.63124084472656 55.14999771118164 51.419918060302734 55.14999771118164 L147.40017700195312 55.14999771118164 C151.1888427734375 55.14999771118164 152.99765014648438 50.4913330078125 150.20166015625 47.93447494506836 Z"></path>
<path fill="" fill-opacity="1.0"  filling="0" d="M158.545166015625 108.76099395751953 L151.51608276367188 108.76099395751953 L151.51608276367188 70.52102661132812 C151.51608276367188 66.16441345214844 150.46243286132812 61.86956024169922 148.50140380859375 58.01519775390625 C150.98590087890625 57.633304595947266 153.08653259277344 55.972782135009766 154.01983642578125 53.56852340698242 C155.08843994140625 50.81619644165039 154.37106323242188 47.7500114440918 152.19215393066406 45.75755310058594 L125.19158172607422 21.067222595214844 C123.98926544189453 19.96794891357422 122.12342834472656 20.050933837890625 121.02416229248047 21.253646850585938 C119.92487335205078 22.455978393554688 120.00825500488281 24.321800231933594 121.21058654785156 25.42108154296875 L148.21116638183594 50.11140441894531 C148.73936462402344 50.59437561035156 148.63160705566406 51.14696502685547 148.52069091796875 51.43328857421875 C148.40939331054688 51.7196159362793 148.11598205566406 52.200233459472656 147.40017700195312 52.200233459472656 L51.419918060302734 52.200233459472656 C50.70410919189453 52.200233459472656 50.411094665527344 51.7196159362793 50.299400329589844 51.43328857421875 C50.18809509277344 51.14696502685547 50.08072280883789 50.59437561035156 50.60892868041992 50.11140441894531 L98.59886169433594 6.2271575927734375 C99.06138610839844 5.804351806640625 99.75870513916016 5.80474853515625 100.22122955322266 6.2271575927734375 L111.86886596679688 16.878562927246094 C113.07080078125 17.97783660888672 114.93701934814453 17.89484405517578 116.03630065917969 16.692138671875 C117.13557434082031 15.48980712890625 117.05220031738281 13.624374389648438 115.8498764038086 12.524703979492188 L104.20222473144531 1.8736953735351562 C101.47075653076172 -0.6245651245117188 97.35012817382812 -0.6249618530273438 94.61785125732422 1.8736953735351562 L46.62792205810547 45.75755310058594 C44.44864273071289 47.7500114440918 43.731258392333984 50.81619644165039 44.80024719238281 53.56852340698242 C45.733558654785156 55.972782135009766 47.83457565307617 57.633304595947266 50.31867218017578 58.01519775390625 C48.35727310180664 61.86916732788086 47.30440139770508 66.16441345214844 47.30440139770508 70.52102661132812 L47.30440139770508 108.76099395751953 L41.45521545410156 108.76099395751953 C37.933982849121094 108.76099395751953 35.06916809082031 111.62580108642578 35.06916809082031 115.14704132080078 L35.06916809082031 121.9704360961914 C35.06916809082031 125.49166870117188 37.933982849121094 128.35609436035156 41.45521545410156 128.35609436035156 L54.918731689453125 128.35609436035156 L54.918731689453125 139.94393920898438 L51.18629837036133 139.94393920898438 C48.27074432373047 139.94393920898438 45.89913558959961 142.3155517578125 45.89913558959961 145.230712890625 L45.89913558959961 152.62991333007812 C45.89913558959961 155.5454559326172 48.27074432373047 157.9170684814453 51.18629837036133 157.9170684814453 L54.918731689453125 157.9170684814453 L54.918731689453125 169.50453186035156 L51.18629837036133 169.50453186035156 C48.27074432373047 169.50453186035156 45.89913558959961 171.8761444091797 45.89913558959961 174.79168701171875 L45.89913558959961 182.19088745117188 C45.89913558959961 185.10643005371094 48.27074432373047 187.47804260253906 51.18629837036133 187.47804260253906 L54.918731689453125 187.47804260253906 L54.918731689453125 194.784423828125 C54.918731689453125 197.65985107421875 57.25809097290039 199.99920654296875 60.133522033691406 199.99920654296875 L68.5218734741211 199.99920654296875 C71.39730834960938 199.99920654296875 73.73666381835938 197.65985107421875 73.73666381835938 194.784423828125 L73.73666381835938 187.47804260253906 L125.08341979980469 187.47804260253906 L125.08341979980469 195.46954345703125 C125.08341979980469 197.9674072265625 127.11561584472656 199.99960327148438 129.6134796142578 199.99960327148438 L139.37210083007812 199.99960327148438 C141.8699493408203 199.99960327148438 143.90213012695312 197.9674072265625 143.90213012695312 195.46954345703125 L143.90213012695312 187.47804260253906 L147.24127197265625 187.47804260253906 C150.15682983398438 187.47804260253906 152.5284423828125 185.10643005371094 152.5284423828125 182.19088745117188 L152.5284423828125 174.79168701171875 C152.5284423828125 171.8761444091797 150.15682983398438 169.50453186035156 147.24127197265625 169.50453186035156 L143.90213012695312 169.50453186035156 L143.90213012695312 157.9170684814453 L147.24127197265625 157.9170684814453 C150.15682983398438 157.9170684814453 152.5284423828125 155.5454559326172 152.5284423828125 152.62991333007812 L152.5284423828125 145.230712890625 C152.5284423828125 142.3155517578125 150.15682983398438 139.94393920898438 147.24127197265625 139.94393920898438 L143.90213012695312 139.94393920898438 L143.90213012695312 128.35609436035156 L158.54556274414062 128.35609436035156 C162.06678771972656 128.35609436035156 164.93161010742188 125.49128723144531 164.93161010742188 121.9704360961914 L164.93161010742188 115.14704132080078 C164.93121337890625 111.62580108642578 162.06640625 108.76099395751953 158.545166015625 108.76099395751953 Z M141.693359375 58.099761962890625 C143.6634063720703 60.916587829589844 144.93849182128906 64.17549133300781 145.4088897705078 67.5716552734375 L53.41080856323242 67.5716552734375 C53.88119888305664 64.17549133300781 55.156288146972656 60.91698455810547 57.126338958740234 58.099761962890625 L141.693359375 58.099761962890625 Z M53.20354461669922 73.47078704833984 L145.61654663085938 73.47078704833984 L145.61654663085938 89.90216064453125 L53.20354461669922 89.90216064453125 L53.20354461669922 73.47078704833984 Z M60.81787109375 128.35609436035156 L67.83712768554688 128.35609436035156 L67.83712768554688 139.94393920898438 L60.81787109375 139.94393920898438 L60.81787109375 128.35609436035156 Z M60.81787109375 157.9170684814453 L67.83712768554688 157.9170684814453 L67.83712768554688 169.50453186035156 L60.81787109375 169.50453186035156 L60.81787109375 157.9170684814453 Z M73.73666381835938 169.5049285888672 L73.73666381835938 157.91746520996094 L125.08341979980469 157.91746520996094 L125.08341979980469 169.5049285888672 L73.73666381835938 169.5049285888672 Z M67.83712768554688 194.1004638671875 L60.81787109375 194.1004638671875 L60.81787109375 187.47882080078125 L67.83712768554688 187.47882080078125 L67.83712768554688 194.1004638671875 Z M138.0018310546875 194.1004638671875 L130.98255920410156 194.1004638671875 L130.98255920410156 187.47882080078125 L138.0018310546875 187.47882080078125 L138.0018310546875 194.1004638671875 Z M146.62811279296875 181.57891845703125 L51.798274993896484 181.57891845703125 L51.798274993896484 175.40444946289062 L146.62811279296875 175.40444946289062 L146.62811279296875 181.57891845703125 Z M138.0018310546875 169.5049285888672 L130.98255920410156 169.5049285888672 L130.98255920410156 157.91746520996094 L138.0018310546875 157.91746520996094 L138.0018310546875 169.5049285888672 Z M130.9829559326172 139.94393920898438 L130.9829559326172 128.35647583007812 L138.00222778320312 128.35647583007812 L138.00222778320312 139.94393920898438 L130.9829559326172 139.94393920898438 Z M125.08341979980469 139.94393920898438 L121.08905029296875 139.94393920898438 C119.45999145507812 139.94393920898438 118.1392822265625 141.2646484375 118.1392822265625 142.89370727539062 C118.1392822265625 144.52276611328125 119.45999145507812 145.84347534179688 121.08905029296875 145.84347534179688 L146.62850952148438 145.84347534179688 L146.62850952148438 152.01792907714844 L51.798274993896484 152.01792907714844 L51.798274993896484 145.84347534179688 L108.51793670654297 145.84347534179688 C110.1469955444336 145.84347534179688 111.46770477294922 144.52276611328125 111.46770477294922 142.89370727539062 C111.46770477294922 141.2646484375 110.1469955444336 139.94393920898438 108.51793670654297 139.94393920898438 L73.73626708984375 139.94393920898438 L73.73626708984375 128.35609436035156 L125.0830307006836 128.35609436035156 L125.0830307006836 139.94393920898438 L125.08341979980469 139.94393920898438 Z M159.0316925048828 121.9704360961914 C159.0316925048828 122.2386703491211 158.81341552734375 122.4565658569336 158.545166015625 122.4565658569336 L41.45482635498047 122.4565658569336 C41.18659210205078 122.4565658569336 40.96831130981445 122.23827362060547 40.96831130981445 121.9704360961914 L40.96831130981445 115.14704132080078 C40.96831130981445 114.87881469726562 41.18659210205078 114.6605224609375 41.45482635498047 114.6605224609375 L59.27651596069336 114.6605224609375 C60.905574798583984 114.6605224609375 62.22628402709961 113.33981323242188 62.22628402709961 111.71075439453125 C62.22628402709961 110.08170318603516 60.905574798583984 108.76099395751953 59.27651596069336 108.76099395751953 L53.20354461669922 108.76099395751953 L53.20354461669922 95.80168914794922 L145.61654663085938 95.80168914794922 L145.61654663085938 108.76099395751953 L71.84724426269531 108.76099395751953 C70.21818542480469 108.76099395751953 68.89747619628906 110.08170318603516 68.89747619628906 111.71075439453125 C68.89747619628906 113.33981323242188 70.21818542480469 114.6605224609375 71.84724426269531 114.6605224609375 L158.545166015625 114.6605224609375 C158.81341552734375 114.6605224609375 159.0316925048828 114.87881469726562 159.0316925048828 115.14704132080078 L159.0316925048828 121.9704360961914 Z"></path></svg>