<svg xmlns="http://www.w3.org/2000/svg" viewBox="0.0 0.0 200.0 200.0" height="200.0px" width="200.0px"><path fill="url(#SVGID_1_)" fill-opacity="1.0"  filling="0" d="M107.15821075439453 47.95195388793945 C106.34453582763672 47.13828659057617 106.34453582763672 45.81992721557617 107.15821075439453 45.005859375 C118.19258117675781 33.97148895263672 136.111328125 34.00508117675781 147.12850952148438 45.02226638793945 C147.9421844482422 45.8359375 147.9421844482422 47.154296875 147.12850952148438 47.96836471557617 C146.31484985351562 48.78203201293945 144.99649047851562 48.78203201293945 144.1824188232422 47.96836471557617 C134.77499389648438 38.56093978881836 119.4921875 38.564064025878906 110.1039047241211 47.95195388793945 C109.29022979736328 48.765625 107.97187042236328 48.765625 107.15821075439453 47.95195388793945 Z M140.70858764648438 54.38671875 C141.5222625732422 53.57304763793945 141.5222625732422 52.25468826293945 140.70858764648438 51.44062805175781 C133.22265625 43.954689025878906 121.05155944824219 43.950782775878906 113.578125 51.424217224121094 C112.76445007324219 52.237892150878906 112.76445007324219 53.556251525878906 113.578125 54.37031555175781 C114.39179229736328 55.18437576293945 115.71015167236328 55.183982849121094 116.52421569824219 54.37031555175781 C122.37539672851562 48.52031326293945 131.90391540527344 48.52851486206055 137.7628936767578 54.38671875 C138.57656860351562 55.20077896118164 139.89492797851562 55.20077896118164 140.70858764648438 54.38671875 Z M125.06171417236328 65.00468444824219 C125.06171417236328 66.1285171508789 126.0238265991211 67.087890625 127.1449203491211 67.087890625 C128.2042999267578 67.087890625 129.22811889648438 66.23007202148438 129.22811889648438 65.00468444824219 C129.22811889648438 63.906639099121094 128.3722686767578 62.904296875 127.15234375 62.91718292236328 C125.9140625 62.93046951293945 125.06171417236328 63.94140625 125.06171417236328 65.00468444824219 Z M134.28985595703125 60.806636810302734 C135.103515625 59.99296951293945 135.103515625 58.67461013793945 134.28985595703125 57.86054611206055 C130.34414672851562 53.91484451293945 123.9312515258789 53.90664291381836 119.9976577758789 57.844139099121094 C119.1839828491211 58.657814025878906 119.1839828491211 59.976173400878906 119.9976577758789 60.79023361206055 C120.81133270263672 61.603904724121094 122.12969207763672 61.603904724121094 122.9437484741211 60.79023361206055 C125.2578125 58.480079650878906 129.02578735351562 58.48828125 131.34414672851562 60.806636810302734 C132.15780639648438 61.62031173706055 133.47616577148438 61.62031173706055 134.28985595703125 60.806636810302734 Z M175.65664672851562 97.96211242675781 C179.0734405517578 101.9957046508789 176.1574249267578 108.212890625 170.84805297851562 108.212890625 L86.59101867675781 108.212890625 C80.41366577148438 108.212890625 77.9613265991211 100.18242645263672 83.1070327758789 96.7671890258789 C92.48086547851562 90.548828125 100.50390625 86.87149047851562 108.35664367675781 85.19609832763672 C121.03749084472656 82.57695007324219 144.3796844482422 84.5374984741211 157.34844970703125 86.2093734741211 C162.34219360351562 86.85429382324219 166.94296264648438 89.01093292236328 170.30508422851562 92.28241729736328 C172.30078125 94.2093734741211 174.05233764648438 96.06913757324219 175.65664672851562 97.96211242675781 Z M130.4132843017578 88.17851257324219 C124.12890625 87.98710632324219 115.33984375 88.0078125 109.21211242675781 89.2738265991211 C101.90117645263672 90.83320617675781 94.333984375 94.318359375 85.4097671508789 100.23945617675781 C83.7125015258789 101.36602020263672 84.5289077758789 104.04609680175781 86.59062194824219 104.04609680175781 L130.4128875732422 104.04609680175781 L130.4128875732422 88.17851257324219 L130.4132843017578 88.17851257324219 Z M172.47694396972656 100.65585327148438 C170.96444702148438 98.8687515258789 169.30508422851562 97.10859680175781 167.40509033203125 95.2738265991211 C164.68008422851562 92.62187194824219 160.92031860351562 90.87109375 156.8156280517578 90.3414077758789 C152.86953735351562 89.83280944824219 144.1984405517578 88.81758117675781 134.580078125 88.3433609008789 L134.580078125 104.0464859008789 L170.84844970703125 104.0464859008789 C172.5910186767578 104.04609680175781 173.6125030517578 101.9964828491211 172.47694396972656 100.65585327148438 Z M199.998046875 145.24609375 C199.998046875 148.71990966796875 197.17225646972656 151.5457000732422 193.6984405517578 151.5457000732422 L182.24960327148438 151.5457000732422 C179.68829345703125 158.373046875 173.1023406982422 163.2550811767578 165.37850952148438 163.2550811767578 C157.66952514648438 163.2550811767578 151.09725952148438 158.373046875 148.541015625 151.5457000732422 L57.30780792236328 151.5457000732422 C54.746482849121094 158.373046875 48.160545349121094 163.2550811767578 40.43672180175781 163.2550811767578 C32.728515625 163.2550811767578 26.15625 158.373046875 23.599998474121094 151.5457000732422 L6.301567077636719 151.5457000732422 C2.8277359008789062 151.5457000732422 0.001953125 148.71990966796875 0.001953125 145.24609375 C0.001953125 142.6316375732422 1.6039047241210938 140.38632202148438 3.8765640258789062 139.4343719482422 C2.31640625 136.66952514648438 1.1624984741210938 133.61953735351562 0.4453125 130.32110595703125 C-0.2351531982421875 127.04765319824219 0.8308563232421875 123.55546569824219 3.2242202758789062 121.189453125 C8.490623474121094 116.06484985351562 14.664451599121094 112.38983917236328 21.764450073242188 109.53007507324219 C29.789451599121094 106.27812194824219 39.66171646118164 103.86405944824219 51.941795349121094 102.1500015258789 C57.003517150878906 101.4398422241211 61.888282775878906 99.376953125 66.06913757324219 96.18280792236328 C78.03984069824219 87.06952667236328 91.18672180175781 78.19921875 106.21328735351562 75.00897979736328 C122.251953125 71.6195297241211 150.412109375 74.8148422241211 158.6609344482422 75.87577819824219 C165.95742797851562 76.81367492675781 172.4890594482422 79.89179229736328 177.5500030517578 84.775390625 C182.63827514648438 89.705078125 186.51287841796875 94.4175796508789 189.74649047851562 99.6117172241211 C193.00469970703125 104.8414077758789 194.72695922851562 110.9058609008789 194.72695922851562 117.14999389648438 L194.72695922851562 139.04998779296875 C197.7101593017578 139.544921875 199.998046875 142.12460327148438 199.998046875 145.24609375 Z M9.875778198242188 120.97265625 C11.165626525878906 122.31562042236328 12.963668823242188 123.10820770263672 14.876953125 123.10820770263672 C18.701568603515625 123.10820770263672 21.813278198242188 120.00546264648438 21.813278198242188 116.19218444824219 C21.813278198242188 115.51289367675781 21.708595275878906 114.84101867675781 21.512107849121094 114.19686889648438 C16.180076599121094 116.5257797241211 13.216796875 118.37344360351562 9.875778198242188 120.97265625 Z M22.44609832763672 145.26327514648438 C22.44609832763672 144.5343780517578 22.502342224121094 143.8195343017578 22.586326599121094 143.11288452148438 L6.301567077636719 143.11288452148438 C5.1257781982421875 143.11288452148438 4.168357849121094 144.0703125 4.168357849121094 145.24609375 C4.168357849121094 146.421875 5.125389099121094 147.37928771972656 6.301567077636719 147.37928771972656 L22.58203125 147.37928771972656 C22.5 146.68397521972656 22.44609832763672 145.98046875 22.44609832763672 145.26327514648438 Z M54.29765701293945 145.26327514648438 C54.29765701293945 137.62069702148438 48.07929992675781 131.4035186767578 40.43672180175781 131.4035186767578 C32.81366729736328 131.4035186767578 26.61249542236328 137.62069702148438 26.61249542236328 145.26327514648438 C26.61249542236328 152.88632202148438 32.81366729736328 159.0886688232422 40.43672180175781 159.0886688232422 C48.07929992675781 159.0886688232422 54.29765701293945 152.88671875 54.29765701293945 145.26327514648438 Z M147.38671875 145.26327514648438 C147.38671875 144.5343780517578 147.44297790527344 143.8195343017578 147.52694702148438 143.11288452148438 L58.323829650878906 143.11288452148438 C58.408199310302734 143.8195343017578 58.464454650878906 144.5343780517578 58.464454650878906 145.26327514648438 C58.464454650878906 145.98046875 58.41054916381836 146.68397521972656 58.328514099121094 147.37928771972656 L147.52264404296875 147.37928771972656 C147.4406280517578 146.68397521972656 147.38671875 145.98046875 147.38671875 145.26327514648438 Z M179.23944091796875 145.26327514648438 C179.23944091796875 137.62069702148438 173.02108764648438 131.4035186767578 165.37850952148438 131.4035186767578 C157.75546264648438 131.4035186767578 151.55313110351562 137.62069702148438 151.55313110351562 145.26327514648438 C151.55313110351562 152.88632202148438 157.7550811767578 159.0886688232422 165.37850952148438 159.0886688232422 C173.02108764648438 159.0886688232422 179.23944091796875 152.88671875 179.23944091796875 145.26327514648438 Z M190.56016540527344 138.94140625 L190.56016540527344 117.150390625 C190.56016540527344 111.68672180175781 189.0558624267578 106.3828125 186.20938110351562 101.81444549560547 C183.15975952148438 96.9164047241211 179.4875030517578 92.455078125 174.6535186767578 87.771484375 C170.2449188232422 83.51640319824219 164.5300750732422 80.83085632324219 158.12969970703125 80.0078125 C141.4714813232422 77.8695297241211 119.31327819824219 76.50039672851562 107.07579040527344 79.08515167236328 C92.8558578491211 82.10429382324219 80.1781234741211 90.6796875 68.59492492675781 99.49609375 C63.849609375 103.1214828491211 58.289451599121094 105.4671859741211 52.51874923706055 106.27578735351562 C41.60000228881836 107.79999542236328 32.698829650878906 109.88594055175781 25.357810974121094 112.619140625 C25.752731323242188 113.76679992675781 25.980079650878906 114.96757507324219 25.980079650878906 116.19178771972656 C25.980079650878906 122.30351257324219 20.999610900878906 127.27461242675781 14.876953125 127.27461242675781 C11.725006103515625 127.27461242675781 8.776565551757812 125.92304992675781 6.700775146484375 123.65547180175781 C6.517578125 123.828125 6.322654724121094 123.98867797851562 6.142189025878906 124.16405487060547 C4.7546844482421875 125.53632354736328 4.12890625 127.56758117675781 4.5207061767578125 129.45468139648438 C5.283592224121094 132.9609375 6.605079650878906 136.15234375 8.448043823242188 138.94140625 L23.61054229736328 138.94140625 C26.174217224121094 132.11563110351562 32.73905944824219 127.23710632324219 40.43672180175781 127.23710632324219 C48.150001525878906 127.23710632324219 54.728515625 132.11563110351562 57.297264099121094 138.94140625 L148.55078125 138.94140625 C151.1144561767578 132.11563110351562 157.6796875 127.23710632324219 165.3781280517578 127.23710632324219 C173.09141540527344 127.23710632324219 179.669921875 132.11563110351562 182.23867797851562 138.94140625 L190.56016540527344 138.94140625 Z M195.83163452148438 145.24609375 C195.83163452148438 144.0703125 194.87460327148438 143.11288452148438 193.6984405517578 143.11288452148438 L183.265625 143.11288452148438 C183.35000610351562 143.8195343017578 183.40625 144.5343780517578 183.40625 145.26327514648438 C183.40625 145.98046875 183.3523406982422 146.68397521972656 183.2703094482422 147.37928771972656 L193.6984405517578 147.37928771972656 C194.87420654296875 147.37928771972656 195.83163452148438 146.421875 195.83163452148438 145.24609375 Z"></path></svg>