<svg xmlns="http://www.w3.org/2000/svg" viewBox="0.0 0.0 200.0 200.0" height="200.0px" width="200.0px"><path fill="#fff0fd" fill-opacity="1.0"  filling="0" d="M157.33334350585938 97.33333587646484 A61.333335876464844 61.333335876464844 0.0 1 1 34.666664123535156 97.33333587646484 A61.333335876464844 61.333335876464844 0.0 1 1 157.33334350585938 97.33333587646484 Z"></path>
<path fill="#4c241d" fill-opacity="1.0"  filling="0" d="M101.7820053100586 90.72866821289062 A2.8506667613983154 2.8506667613983154 0.0 1 1 96.0806655883789 90.72866821289062 A2.8506667613983154 2.8506667613983154 0.0 1 1 101.7820053100586 90.72866821289062 Z"></path>
<path fill="#4c241d" fill-opacity="1.0"  filling="0" d="M100.13533782958984 54.81266784667969 C99.45333099365234 54.81266784667969 98.77066802978516 54.552001953125 98.25 54.03133010864258 L90.25 46.03133010864258 C89.20867156982422 44.98999786376953 89.20867156982422 43.302001953125 90.25 42.26066589355469 C91.29132843017578 41.219329833984375 92.97933197021484 41.219329833984375 94.02066802978516 42.26066589355469 L102.02066802978516 50.26066589355469 C103.06200408935547 51.302001953125 103.06200408935547 52.98999786376953 102.02066802978516 54.03133010864258 C101.5 54.552001953125 100.81800079345703 54.81266784667969 100.13533782958984 54.81266784667969 Z"></path>
<path fill="#4c241d" fill-opacity="1.0"  filling="0" d="M92.13533782958984 54.81266784667969 C91.45333099365234 54.81266784667969 90.77066802978516 54.552001953125 90.25 54.03133010864258 C89.20867156982422 52.98999786376953 89.20867156982422 51.302001953125 90.25 50.26066589355469 L98.25 42.26066589355469 C99.29132843017578 41.219329833984375 100.97933197021484 41.219329833984375 102.02066802978516 42.26066589355469 C103.06200408935547 43.302001953125 103.06200408935547 44.98999786376953 102.02066802978516 46.03133010864258 L94.02066802978516 54.03133010864258 C93.5 54.552001953125 92.81800079345703 54.81266784667969 92.13533782958984 54.81266784667969 Z"></path>
<path fill="#bf7e68" fill-opacity="1.0"  filling="0" d="M172.41934204101562 131.92733764648438 C149.29266357421875 123.69600677490234 118.44332885742188 118.66667175292969 84.54399871826172 118.66667175292969 C61.580665588378906 118.66667175292969 40.04533386230469 120.99200439453125 21.333328247070312 125.03933715820312 L21.333328247070312 154.96066284179688 C40.04533386230469 159.00799560546875 61.580665588378906 161.33334350585938 84.54399871826172 161.33334350585938 C118.44332885742188 161.33334350585938 149.29266357421875 156.3040008544922 172.41934204101562 148.07266235351562 C180.74932861328125 145.10800170898438 180.74932861328125 134.89199829101562 172.41934204101562 131.92733764648438 Z"></path>
<path fill="#4c241d" fill-opacity="1.0"  filling="0" d="M84.54399871826172 164.0 C62.280662536621094 164.0 40.227333068847656 161.7760009765625 20.769332885742188 157.56800842285156 C19.54266357421875 157.30267333984375 18.666664123535156 156.2166748046875 18.666664123535156 154.96133422851562 L18.666664123535156 125.03933715820312 C18.666664123535156 123.78399658203125 19.54266357421875 122.697998046875 20.769332885742188 122.43267059326172 C40.227996826171875 118.2239990234375 62.28133010864258 116.0 84.54399871826172 116.0 C117.48400115966797 116.0 149.010009765625 120.76399993896484 173.31333923339844 129.4153289794922 C178.2606658935547 131.17601013183594 181.33334350585938 135.2320098876953 181.33334350585938 140.0 C181.33334350585938 144.76800537109375 178.2606658935547 148.82400512695312 173.3140106201172 150.5846710205078 C149.01068115234375 159.2360076904297 117.48467254638672 164.0 84.54399871826172 164.0 Z M24.0 152.79934692382812 C42.573997497558594 156.6406707763672 63.45466613769531 158.6666717529297 84.54399871826172 158.6666717529297 C116.89067077636719 158.6666717529297 147.78067016601562 154.0120086669922 171.524658203125 145.56134033203125 C174.32666015625 144.56399536132812 176.0 142.48468017578125 176.0 140.0 C176.0 137.5153350830078 174.32666015625 135.43600463867188 171.524658203125 134.4386749267578 C147.78134155273438 125.98799896240234 116.89067077636719 121.33333587646484 84.54399871826172 121.33333587646484 C63.45399856567383 121.33333587646484 42.573997497558594 123.35933685302734 24.0 127.20066833496094 L24.0 152.79934692382812 Z"></path>
<path fill="#fc8c29" fill-opacity="1.0"  filling="0" d="M34.666664123535156 122.5433349609375 C30.089996337890625 123.28399658203125 25.62933349609375 124.11067199707031 21.333328247070312 125.03933715820312 L21.333328247070312 154.96066284179688 C25.62933349609375 155.8900146484375 30.089996337890625 156.7166748046875 34.666664123535156 157.45733642578125 L34.666664123535156 122.5433349609375 Z"></path>
<path fill="#4c241d" fill-opacity="1.0"  filling="0" d="M34.666664123535156 160.12400817871094 C34.52466583251953 160.12400817871094 34.382667541503906 160.11199951171875 34.24066162109375 160.08999633789062 C29.477333068847656 159.3193359375 24.94666290283203 158.47000122070312 20.769332885742188 157.56800842285156 C19.54266357421875 157.30267333984375 18.666664123535156 156.2166748046875 18.666664123535156 154.96133422851562 L18.666664123535156 125.03933715820312 C18.666664123535156 123.78399658203125 19.54266357421875 122.697998046875 20.769332885742188 122.43267059326172 C24.94666290283203 121.52999877929688 29.477333068847656 120.68133544921875 34.24066162109375 119.9106674194336 C35.00733184814453 119.78533172607422 35.79933166503906 120.0060043334961 36.39400100708008 120.51200866699219 C36.990665435791016 121.02000427246094 37.332664489746094 121.76200866699219 37.332664489746094 122.5433349609375 L37.332664489746094 157.45733642578125 C37.332664489746094 158.23867797851562 36.98999786376953 158.9806671142578 36.39400100708008 159.48867797851562 C35.908660888671875 159.90133666992188 35.29533386230469 160.12400817871094 34.666664123535156 160.12400817871094 Z M24.0 152.79800415039062 C26.553329467773438 153.32266235351562 29.229331970214844 153.8280029296875 32.0 154.30734252929688 L32.0 125.69267272949219 C29.229331970214844 126.1719970703125 26.553329467773438 126.67733764648438 24.0 127.20199584960938 L24.0 152.79800415039062 Z"></path>
<path fill="#ffce56" fill-opacity="1.0"  filling="0" d="M80.0 131.7813262939453 L80.0 161.2760009765625 C81.51399993896484 161.2966766357422 83.017333984375 161.33334350585938 84.54399871826172 161.33334350585938 C88.40666961669922 161.33334350585938 92.22333526611328 161.260009765625 96.0 161.1320037841797 L96.0 131.7813262939453 C109.79399871826172 131.0399932861328 120.0 128.4386749267578 120.0 125.33333587646484 C120.0 121.65133666992188 105.67333221435547 118.66667175292969 88.0 118.66667175292969 C70.32666015625 118.66667175292969 56.0 121.65133666992188 56.0 125.33333587646484 C56.0 128.4386749267578 66.20599365234375 131.04066467285156 80.0 131.7813262939453 Z"></path>
<path fill="#4c241d" fill-opacity="1.0"  filling="0" d="M84.54399871826172 164.0 C83.46066284179688 164.0 82.38932800292969 163.9820098876953 81.31599426269531 163.96334838867188 L79.96333312988281 163.9426727294922 C78.50466918945312 163.9219970703125 77.33332824707031 162.73468017578125 77.33332824707031 161.2760009765625 L77.33332824707031 134.28933715820312 C65.8413314819336 133.48468017578125 53.33333206176758 131.24867248535156 53.33333206176758 125.33333587646484 C53.33333206176758 116.45066833496094 82.21066284179688 116.0 88.0 116.0 C93.78933715820312 116.0 122.66667175292969 116.45066833496094 122.66667175292969 125.33333587646484 C122.66667175292969 131.24867248535156 110.1586685180664 133.48468017578125 98.66666412353516 134.28933715820312 L98.66666412353516 161.1320037841797 C98.66666412353516 162.5693359375 97.52733612060547 163.7480010986328 96.0913314819336 163.79733276367188 C92.13800048828125 163.9306640625 88.2526626586914 164.0 84.54399871826172 164.0 Z M82.66666412353516 158.65133666992188 C86.10400390625 158.70199584960938 89.66533660888672 158.64466857910156 93.33333587646484 158.54600524902344 L93.33333587646484 131.78199768066406 C93.33333587646484 130.36534118652344 94.44133758544922 129.19467163085938 95.8566665649414 129.1193389892578 C108.14933013916016 128.45933532714844 114.5999984741211 126.5493392944336 116.7473373413086 125.32866668701172 C113.92333221435547 123.71467590332031 104.10533905029297 121.33333587646484 88.0 121.33333587646484 C71.89466857910156 121.33333587646484 62.076663970947266 123.71467590332031 59.252662658691406 125.3280029296875 C61.39999771118164 126.54800415039062 67.8499984741211 128.45799255371094 80.14332580566406 129.11866760253906 C81.55866241455078 129.19400024414062 82.66666412353516 130.3646697998047 82.66666412353516 131.7813262939453 L82.66666412353516 158.65133666992188 Z"></path>
<path fill="#b5a19c" fill-opacity="1.0"  filling="0" d="M29.333328247070312 105.33333587646484 C27.86066436767578 105.33333587646484 26.666664123535156 104.13933563232422 26.666664123535156 102.66666412353516 L26.666664123535156 98.66666412353516 C26.666664123535156 94.99066162109375 29.657333374023438 92.0 33.33332824707031 92.0 L52.0 92.0 C52.73599624633789 92.0 53.33333206176758 91.40267181396484 53.33333206176758 90.66666412353516 L53.33333206176758 80.0 C53.33333206176758 79.26399993896484 52.73599624633789 78.66666412353516 52.0 78.66666412353516 L46.666664123535156 78.66666412353516 C42.990665435791016 78.66666412353516 40.0 75.67599487304688 40.0 72.0 C40.0 68.3239974975586 42.990665435791016 65.33332824707031 46.666664123535156 65.33332824707031 L49.33333206176758 65.33332824707031 C50.06932830810547 65.33332824707031 50.666664123535156 64.73599243164062 50.666664123535156 64.0 L50.666664123535156 52.0 C50.666664123535156 50.5273323059082 51.86066436767578 49.33333206176758 53.33333206176758 49.33333206176758 C54.805999755859375 49.33333206176758 56.0 50.5273323059082 56.0 52.0 L56.0 64.0 C56.0 67.67599487304688 53.00933074951172 70.66666412353516 49.33333206176758 70.66666412353516 L46.666664123535156 70.66666412353516 C45.930667877197266 70.66666412353516 45.33333206176758 71.26399993896484 45.33333206176758 72.0 C45.33333206176758 72.73599243164062 45.930667877197266 73.33332824707031 46.666664123535156 73.33332824707031 L52.0 73.33332824707031 C55.67599868774414 73.33332824707031 58.666664123535156 76.3239974975586 58.666664123535156 80.0 L58.666664123535156 90.66666412353516 C58.666664123535156 94.3426742553711 55.67599868774414 97.33333587646484 52.0 97.33333587646484 L33.33332824707031 97.33333587646484 C32.597328186035156 97.33333587646484 32.0 97.9306640625 32.0 98.66666412353516 L32.0 102.66666412353516 C32.0 104.13933563232422 30.805999755859375 105.33333587646484 29.333328247070312 105.33333587646484 Z"></path>
<path fill="#b5a19c" fill-opacity="1.0"  filling="0" d="M42.666664123535156 108.0 C41.194000244140625 108.0 40.0 106.80599975585938 40.0 105.33333587646484 L40.0 88.0 C40.0 87.26399993896484 39.40266799926758 86.66666412353516 38.666664123535156 86.66666412353516 L36.0 86.66666412353516 C32.323997497558594 86.66666412353516 29.333328247070312 83.67599487304688 29.333328247070312 80.0 L29.333328247070312 74.66666412353516 C29.333328247070312 73.9306640625 28.736000061035156 73.33332824707031 28.0 73.33332824707031 C24.323997497558594 73.33332824707031 21.333328247070312 70.34266662597656 21.333328247070312 66.66666412353516 L21.333328247070312 64.0 C21.333328247070312 60.323997497558594 24.323997497558594 57.33333206176758 28.0 57.33333206176758 L33.33332824707031 57.33333206176758 C34.0693359375 57.33333206176758 34.666664123535156 56.73599624633789 34.666664123535156 56.0 L34.666664123535156 41.33333206176758 C34.666664123535156 39.86066436767578 35.86066436767578 38.666664123535156 37.33333206176758 38.666664123535156 C38.805999755859375 38.666664123535156 40.0 39.86066436767578 40.0 41.33333206176758 L40.0 56.0 C40.0 59.67599868774414 37.00933074951172 62.666664123535156 33.33332824707031 62.666664123535156 L28.0 62.666664123535156 C27.263992309570312 62.666664123535156 26.666664123535156 63.263999938964844 26.666664123535156 64.0 L26.666664123535156 66.66666412353516 C26.666664123535156 67.40266418457031 27.263992309570312 68.0 28.0 68.0 C31.675994873046875 68.0 34.666664123535156 70.99066162109375 34.666664123535156 74.66666412353516 L34.666664123535156 80.0 C34.666664123535156 80.73599243164062 35.26399230957031 81.33332824707031 36.0 81.33332824707031 L38.666664123535156 81.33332824707031 C42.34266662597656 81.33332824707031 45.33333206176758 84.3239974975586 45.33333206176758 88.0 L45.33333206176758 105.33333587646484 C45.33333206176758 106.80599975585938 44.13933181762695 108.0 42.666664123535156 108.0 Z"></path>
<path fill="#4c241d" fill-opacity="1.0"  filling="0" d="M125.33333587646484 78.66666412353516 C120.9219970703125 78.66666412353516 117.33333587646484 75.07799530029297 117.33333587646484 70.66666412353516 C117.33333587646484 66.25533294677734 120.9219970703125 62.666664123535156 125.33333587646484 62.666664123535156 C129.7446746826172 62.666664123535156 133.33334350585938 66.25533294677734 133.33334350585938 70.66666412353516 C133.33334350585938 75.07799530029297 129.7446746826172 78.66666412353516 125.33333587646484 78.66666412353516 Z M125.33333587646484 68.0 C123.86333465576172 68.0 122.66667175292969 69.19666290283203 122.66667175292969 70.66666412353516 C122.66667175292969 72.13666534423828 123.86333465576172 73.33332824707031 125.33333587646484 73.33332824707031 C126.80333709716797 73.33332824707031 128.0 72.13666534423828 128.0 70.66666412353516 C128.0 69.19666290283203 126.80333709716797 68.0 125.33333587646484 68.0 Z"></path></svg>