<svg xmlns="http://www.w3.org/2000/svg" viewBox="0.0 0.0 200.0 200.0" height="200.0px" width="200.0px"><path fill="#fff035" fill-opacity="1.0"  filling="0" d="M190.56680297851562 99.99960327148438 A90.5660171508789 90.5660171508789 0.0 1 1 9.434768676757812 99.99960327148438 A90.5660171508789 90.5660171508789 0.0 1 1 190.56680297851562 99.99960327148438 Z"></path>
<path fill="" fill-opacity="1.0"  filling="0" d="M100.0 192.45272827148438 C49.021484375 192.45272827148438 7.547264099121094 150.978515625 7.547264099121094 100.0 C7.547264099121094 49.021484375 49.021484375 7.547264099121094 100.0 7.547264099121094 C150.978515625 7.547264099121094 192.45272827148438 49.021484375 192.45272827148438 100.0 C192.45272827148438 150.978515625 150.978515625 192.45272827148438 100.0 192.45272827148438 Z M100.0 11.320701599121094 C51.101951599121094 11.320701599121094 11.320701599121094 51.101951599121094 11.320701599121094 100.0 C11.320701599121094 148.89804077148438 51.101951599121094 188.67929077148438 100.0 188.67929077148438 C148.89804077148438 188.67929077148438 188.67929077148438 148.89804077148438 188.67929077148438 100.0 C188.67929077148438 51.101951599121094 148.89804077148438 11.320701599121094 100.0 11.320701599121094 Z"></path>
<path fill="#fafcfb" fill-opacity="1.0"  filling="0" d="M86.47772979736328 77.25 C86.47772979736328 78.705078125 86.345703125 80.09375 86.08086395263672 81.482421875 C84.09687042236328 93.08867645263672 73.9457015991211 101.91718292236328 61.777339935302734 101.91718292236328 C57.577735900878906 101.91718292236328 53.64297103881836 100.85938262939453 50.17109680175781 99.0074234008789 C42.400390625 94.87422180175781 37.10976791381836 86.673828125 37.10976791381836 77.25 C37.10976791381836 63.59375 48.153907775878906 52.54960632324219 61.776954650878906 52.54960632324219 C75.4000015258789 52.54960632324219 86.47772979736328 63.59375 86.47772979736328 77.25 Z"></path>
<path fill="" fill-opacity="1.0"  filling="0" d="M61.777732849121094 103.8031234741211 C57.383201599121094 103.8031234741211 53.17851257324219 102.74921417236328 49.283206939697266 100.67070770263672 C40.61015701293945 96.05859375 35.22265625 87.0835952758789 35.22265625 77.2496109008789 C35.22265625 62.59023666381836 47.134769439697266 50.66328048706055 61.777732849121094 50.66328048706055 C76.4371109008789 50.66328048706055 88.36406707763672 62.59023666381836 88.36406707763672 77.2496109008789 C88.36406707763672 78.82148742675781 88.2242202758789 80.32304382324219 87.93476867675781 81.8359375 C85.76054382324219 94.54960632324219 74.75859069824219 103.8031234741211 61.777732849121094 103.8031234741211 Z M61.777732849121094 54.43671798706055 C49.215232849121094 54.43671798706055 38.99609375 64.6703109741211 38.99609375 77.2496109008789 C38.99609375 85.68476867675781 43.6171875 93.3832015991211 51.05742263793945 97.34101104736328 C54.40156555175781 99.1246109008789 58.00741958618164 100.02930450439453 61.777339935302734 100.02930450439453 C72.91366577148438 100.02930450439453 82.3515625 92.0953140258789 84.22187805175781 81.16328430175781 C84.47265625 79.849609375 84.5902328491211 78.58203125 84.5902328491211 77.2496109008789 C84.59062194824219 64.67070770263672 74.3570327758789 54.43671798706055 61.777732849121094 54.43671798706055 Z"></path>
<path fill="#705a4f" fill-opacity="1.0"  filling="0" d="M58.74101638793945 75.88163757324219 C58.74101638793945 66.736328125 63.706642150878906 58.78202819824219 71.0707015991211 54.512107849121094 C67.43359375 52.40585708618164 63.224609375 51.181251525878906 58.724613189697266 51.181251525878906 C45.101558685302734 51.181251525878906 34.057029724121094 62.22538757324219 34.057029724121094 75.88163757324219 C34.057029724121094 85.30547332763672 39.347660064697266 93.505859375 47.11797332763672 97.6390609741211 C50.589839935302734 99.49102020263672 54.525001525878906 100.548828125 58.724220275878906 100.548828125 C63.234764099121094 100.548828125 67.46249389648438 99.32500457763672 71.10546875 97.2066421508789 C63.72968673706055 92.958984375 58.74101638793945 85.01171875 58.74101638793945 75.88163757324219 Z"></path>
<path fill="" fill-opacity="1.0"  filling="0" d="M60.287113189697266 103.2171859741211 C55.892581939697266 103.2171859741211 51.687889099121094 102.16327667236328 47.792579650878906 100.08477020263672 C39.119529724121094 95.47109985351562 33.732032775878906 86.4957046508789 33.732032775878906 76.662109375 C33.732032775878906 62.00273513793945 45.644142150878906 50.075782775878906 60.287113189697266 50.075782775878906 C64.93046569824219 50.075782775878906 69.5277328491211 51.316017150878906 73.57772827148438 53.66132736206055 C74.16015625 53.998435974121094 74.5191421508789 54.61953353881836 74.5191421508789 55.29375076293945 C74.5191421508789 55.966407775878906 74.1617202758789 56.58906173706055 73.57929992675781 56.92617416381836 C66.55351257324219 60.99843978881836 62.19023513793945 68.5621109008789 62.19023513793945 76.6636734008789 C62.19023513793945 84.75273132324219 66.56640625 92.29804992675781 73.60859680175781 96.353515625 C75.77030944824219 97.52030944824219 76.94218444824219 97.42108917236328 76.94414520263672 98.095703125 C76.94609069824219 98.76835632324219 74.19805145263672 99.27969360351562 73.61601257324219 99.6187515258789 C69.5699234008789 101.97343444824219 64.95976257324219 103.2171859741211 60.287113189697266 103.2171859741211 Z M60.287113189697266 53.849220275878906 C47.724609375 53.849220275878906 37.505470275878906 64.08280944824219 37.505470275878906 76.662109375 C37.505470275878906 85.0972671508789 42.12656021118164 92.79570770263672 49.566795349121094 96.7554702758789 C55.534767150878906 99.9375 62.69687271118164 100.28398132324219 68.9007797241211 97.74492645263672 C62.363277435302734 92.7699203491211 58.41640853881836 84.962890625 58.41640853881836 76.6640625 C58.41640853881836 68.3558578491211 62.35195541381836 60.53593826293945 68.87109375 55.544532775878906 C66.146484375 54.4296875 63.22616958618164 53.849220275878906 60.287113189697266 53.849220275878906 Z"></path>
<path fill="#fafcfb" fill-opacity="1.0"  filling="0" d="M165.72305297851562 77.25 C165.72305297851562 78.705078125 165.59100341796875 80.09375 165.326171875 81.482421875 C163.34219360351562 93.08867645263672 153.19100952148438 101.91718292236328 141.0226593017578 101.91718292236328 C136.8230438232422 101.91718292236328 132.88827514648438 100.85938262939453 129.41641235351562 99.0074234008789 C121.64569854736328 94.87422180175781 116.35507202148438 86.673828125 116.35507202148438 77.25 C116.35507202148438 63.59375 127.39921569824219 52.54960632324219 141.0222625732422 52.54960632324219 C154.6453094482422 52.54960632324219 165.72305297851562 63.59375 165.72305297851562 77.25 Z"></path>
<path fill="" fill-opacity="1.0"  filling="0" d="M141.02305603027344 103.8031234741211 C136.62852478027344 103.8031234741211 132.423828125 102.74921417236328 128.52850341796875 100.67070770263672 C119.85546112060547 96.05859375 114.46796417236328 87.0835952758789 114.46796417236328 77.2496109008789 C114.46796417236328 62.59023666381836 126.38007354736328 50.66328048706055 141.02305603027344 50.66328048706055 C155.6824188232422 50.66328048706055 167.609375 62.59023666381836 167.609375 77.2496109008789 C167.609375 78.82148742675781 167.4695281982422 80.32304382324219 167.18008422851562 81.8359375 C165.005859375 94.54960632324219 154.00390625 103.8031234741211 141.02305603027344 103.8031234741211 Z M141.02305603027344 54.43671798706055 C128.46055603027344 54.43671798706055 118.24140930175781 64.6703109741211 118.24140930175781 77.2496109008789 C118.24140930175781 85.68476867675781 122.86250305175781 93.3832015991211 130.302734375 97.34101104736328 C133.64686584472656 99.1246109008789 137.2527313232422 100.02930450439453 141.0226593017578 100.02930450439453 C152.15899658203125 100.02930450439453 161.59686279296875 92.0953140258789 163.46719360351562 81.16328430175781 C163.7179718017578 79.849609375 163.83554077148438 78.58203125 163.83554077148438 77.2496109008789 C163.8359375 64.67070770263672 153.6023406982422 54.43671798706055 141.02305603027344 54.43671798706055 Z"></path>
<path fill="#705a4f" fill-opacity="1.0"  filling="0" d="M140.22694396972656 76.33125305175781 C140.22694396972656 67.18594360351562 144.60467529296875 60.531253814697266 151.96835327148438 56.261329650878906 C148.3312530517578 54.15507507324219 142.46990966796875 51.18085861206055 137.9699249267578 51.18085861206055 C124.34687805175781 51.18085861206055 113.30233764648438 62.22500228881836 113.30233764648438 75.8812484741211 C113.30233764648438 85.3050765991211 118.59296417236328 93.50546264648438 126.36328125 97.638671875 C129.83514404296875 99.4906234741211 133.7703094482422 100.54843139648438 137.9695281982422 100.54843139648438 C142.48007202148438 100.54843139648438 146.7078094482422 99.3246078491211 150.3507843017578 97.20625305175781 C142.97500610351562 92.958984375 140.22694396972656 85.4609375 140.22694396972656 76.33125305175781 Z"></path>
<path fill="" fill-opacity="1.0"  filling="0" d="M139.9230499267578 103.6078109741211 C135.5285186767578 103.6078109741211 131.32382202148438 102.55390167236328 127.42852020263672 100.47539520263672 C118.7554702758789 95.86172485351562 113.36796569824219 86.8863296508789 113.36796569824219 77.052734375 C113.36796569824219 62.39336013793945 125.28008270263672 50.466407775878906 139.9230499267578 50.466407775878906 C144.56640625 50.466407775878906 149.16366577148438 51.706642150878906 153.2136688232422 54.05195236206055 C153.79608154296875 54.389060974121094 154.1550750732422 55.01015853881836 154.1550750732422 55.68437576293945 C154.1550750732422 56.357032775878906 153.7976531982422 56.97968673706055 153.21522521972656 57.31679916381836 C146.189453125 61.38906478881836 141.826171875 68.9527359008789 141.826171875 77.0542984008789 C141.826171875 85.14335632324219 146.2023468017578 92.68867492675781 153.24453735351562 96.744140625 C154.8742218017578 97.6875 155.12344360351562 97.23828125 155.12539672851562 97.91250610351562 C155.12734985351562 98.58515930175781 153.83438110351562 99.669921875 153.251953125 100.00898742675781 C149.20587158203125 102.36405944824219 144.595703125 103.6078109741211 139.9230499267578 103.6078109741211 Z M139.9230499267578 54.239845275878906 C127.36054992675781 54.239845275878906 117.14140319824219 64.47343444824219 117.14140319824219 77.052734375 C117.14140319824219 85.4878921508789 121.76250457763672 93.18633270263672 129.20272827148438 97.1460952758789 C135.16912841796875 100.328125 142.33282470703125 100.67460632324219 148.53671264648438 98.13555145263672 C141.9992218017578 93.1605453491211 138.05233764648438 85.353515625 138.05233764648438 77.0546875 C138.05233764648438 68.7464828491211 141.98789978027344 60.92656326293945 148.5070343017578 55.935157775878906 C145.7824249267578 54.8203125 142.8621063232422 54.239845275878906 139.9230499267578 54.239845275878906 Z"></path>
<path fill="#fafcfb" fill-opacity="1.0"  filling="0" d="M126.01952362060547 123.05624389648438 L126.01952362060547 131.1906280517578 C126.01952362060547 146.89295959472656 114.57929992675781 160.9406280517578 98.9535140991211 162.48788452148438 C80.9917984008789 164.26602172851562 65.76289367675781 150.19296264648438 65.76289367675781 132.58631896972656 L65.76289367675781 123.05624389648438 C65.76289367675781 120.43319702148438 67.88945007324219 118.3070297241211 70.5121078491211 118.3070297241211 L121.27030944824219 118.3070297241211 C123.89335632324219 118.3070297241211 126.01952362060547 120.43319702148438 126.01952362060547 123.05624389648438 Z"></path>
<path fill="" fill-opacity="1.0"  filling="0" d="M95.9609375 164.521484375 C88.015625 164.521484375 80.2953109741211 161.58438110351562 74.3863296508789 156.2316436767578 C67.70703125 150.18243408203125 63.87617111206055 141.56289672851562 63.87617111206055 132.5859375 L63.87617111206055 123.05624389648438 C63.87617111206055 119.39688110351562 66.85195922851562 116.42108917236328 70.5113296508789 116.42108917236328 L121.27030944824219 116.42108917236328 C124.9296875 116.42108917236328 127.90546417236328 119.39688110351562 127.90546417236328 123.05624389648438 L127.90546417236328 131.19100952148438 C127.90546417236328 148.1980438232422 115.26913452148438 162.76913452148438 99.1390609741211 164.36483764648438 C98.078125 164.4695281982422 97.01874542236328 164.521484375 95.9609375 164.521484375 Z M70.5113296508789 120.19453430175781 C68.9339828491211 120.19453430175781 67.6500015258789 121.4789047241211 67.6500015258789 123.05586242675781 L67.6500015258789 132.58554077148438 C67.6500015258789 140.4992218017578 71.029296875 148.09999084472656 76.919921875 153.4343719482422 C82.912109375 158.8664093017578 90.67108917236328 161.423828125 98.76718139648438 160.609375 C112.9898452758789 159.20156860351562 124.13203430175781 146.27969360351562 124.13203430175781 131.19100952148438 L124.13203430175781 123.05624389648438 C124.13203430175781 121.4789047241211 122.84765625 120.1949234008789 121.27030944824219 120.1949234008789 L70.5113296508789 120.1949234008789 L70.5113296508789 120.19453430175781 Z"></path></svg>