<svg xmlns="http://www.w3.org/2000/svg" viewBox="0.0 0.0 200.0 200.0" height="200.0px" width="200.0px"><path fill="#FD8469" fill-opacity="1.0"  filling="0" d="M200.0 100.0 A100.0 100.0 0.0 1 1 0.0 100.0 A100.0 100.0 0.0 1 1 200.0 100.0 Z"></path>
<path fill="#FFFFFF" fill-opacity="1.0"  filling="0" d="M80.47244262695312 90.39370727539062 C77.32283020019531 88.50393676757812 74.48818969726562 86.14173126220703 71.968505859375 83.46456909179688 C70.86614227294922 82.3622055053711 69.9212646484375 81.10236358642578 68.97637939453125 79.6850357055664 C69.29133605957031 77.16535949707031 69.44881439208984 75.5905532836914 69.44881439208984 75.5905532836914 L69.44881439208984 75.5905532836914 C69.76377868652344 75.74803161621094 74.17322540283203 78.58267974853516 76.22047424316406 78.58267974853516 C77.6377944946289 78.58267974853516 80.0 84.4094467163086 80.47244262695312 90.39370727539062 Z"></path>
<path fill="#FFFFFF" fill-opacity="1.0"  filling="0" d="M116.06298828125 89.29133605957031 L114.17322540283203 92.59842681884766 L114.0157470703125 93.07086181640625 C113.22834777832031 93.38582611083984 112.59842681884766 93.70079040527344 111.81101989746094 93.85826873779297 C111.18109893798828 94.17322540283203 110.3936996459961 94.3307113647461 109.60629272460938 94.48818969726562 C109.44882202148438 94.48818969726562 109.13386535644531 94.64566802978516 108.97637176513672 94.64566802978516 C108.18897247314453 94.80315399169922 107.24409484863281 94.96063232421875 106.4566879272461 95.11811065673828 C105.51181030273438 95.27558898925781 104.72441101074219 95.43306732177734 103.77953338623047 95.43306732177734 C103.62205505371094 95.43306732177734 103.62205505371094 95.43306732177734 103.46456146240234 95.43306732177734 C103.30708312988281 95.43306732177734 102.99212646484375 95.43306732177734 102.83464813232422 95.43306732177734 C101.88975524902344 95.43306732177734 101.10235595703125 95.5905532836914 100.15747833251953 95.5905532836914 C99.21260070800781 95.5905532836914 98.26771545410156 95.5905532836914 97.48031616210938 95.43306732177734 C97.32283020019531 95.43306732177734 97.00787353515625 95.43306732177734 96.85039520263672 95.43306732177734 C96.69291687011719 95.43306732177734 96.69291687011719 95.43306732177734 96.53543090820312 95.43306732177734 C95.5905532836914 95.27558898925781 94.64566802978516 95.27558898925781 93.85826873779297 95.11811065673828 C89.92125701904297 94.48818969726562 86.14173126220703 93.22834777832031 82.83464050292969 91.33858489990234 C81.57479858398438 86.14173126220703 80.15748596191406 80.62992095947266 80.94488525390625 79.84252166748047 C82.20472717285156 78.4251937866211 86.77165222167969 72.12598419189453 86.77165222167969 72.12598419189453 L88.50393676757812 71.6535415649414 L92.12598419189453 70.55117797851562 L92.75590515136719 70.39370727539062 L92.91338348388672 70.39370727539062 L93.38582611083984 70.23622131347656 L95.905517578125 69.44881439208984 L100.15747833251953 68.18898010253906 L104.56693267822266 69.29133605957031 L107.08661651611328 69.9212646484375 L107.5590591430664 70.07874298095703 L107.71653747558594 70.07874298095703 L108.3464584350586 70.23622131347656 L112.2834701538086 71.18110656738281 L115.27558898925781 71.968505859375 L116.06298828125 89.29133605957031 Z"></path>
<path fill="#FFFFFF" fill-opacity="1.0"  filling="0" d="M103.14960479736328 94.0157470703125 L103.46456146240234 95.5905532836914 C103.30708312988281 95.5905532836914 102.99212646484375 95.5905532836914 102.83464813232422 95.5905532836914 C101.88975524902344 95.5905532836914 101.10235595703125 95.74803161621094 100.15747833251953 95.74803161621094 C99.21260070800781 95.74803161621094 98.26771545410156 95.74803161621094 97.48031616210938 95.5905532836914 C97.32283020019531 95.5905532836914 97.00787353515625 95.5905532836914 96.85039520263672 95.5905532836914 L97.16535949707031 94.0157470703125 L99.6850357055664 79.84252166748047 L96.85039520263672 76.3779525756836 L94.3307113647461 73.07086944580078 L106.14173126220703 73.07086944580078 L103.62205505371094 76.3779525756836 L100.78739929199219 79.84252166748047 L103.14960479736328 94.0157470703125 Z"></path>
<path fill="#FFFFFF" fill-opacity="1.0"  filling="0" d="M107.5590591430664 66.61417388916016 C107.5590591430664 72.12598419189453 104.25196075439453 72.91338348388672 100.0 72.91338348388672 C95.905517578125 72.91338348388672 92.44094848632812 72.12598419189453 92.44094848632812 66.61417388916016 C92.44094848632812 61.10236358642578 95.74803161621094 52.12598419189453 100.0 52.12598419189453 C104.094482421875 52.28346633911133 107.5590591430664 61.10236358642578 107.5590591430664 66.61417388916016 Z"></path>
<path fill="#FFFFFF" fill-opacity="1.0"  filling="0" d="M96.3779525756836 95.5905532836914 C95.43306732177734 95.43306732177734 94.48818969726562 95.43306732177734 93.70079040527344 95.27558898925781 C89.76377868652344 94.64566802978516 85.9842529296875 93.38582611083984 82.67716979980469 91.49606323242188 C82.0472412109375 91.18110656738281 81.25984191894531 90.70865631103516 80.62992095947266 90.39370727539062 C77.48031616210938 88.50393676757812 74.64567565917969 86.14173126220703 72.12598419189453 83.46456909179688 C70.70866394042969 78.74015808105469 69.6063003540039 75.74803161621094 69.6063003540039 75.5905532836914 L69.6063003540039 75.5905532836914 C82.51968383789062 72.12598419189453 88.18898010253906 68.81890106201172 90.55117797851562 66.77165222167969 C91.968505859375 65.66929626464844 92.28346252441406 65.03936767578125 92.28346252441406 65.03936767578125 C92.28346252441406 65.19685363769531 92.28346252441406 65.35433197021484 92.28346252441406 65.35433197021484 C92.44094848632812 67.08660888671875 92.44094848632812 68.81890106201172 92.59842681884766 70.39370727539062 C92.59842681884766 71.49606323242188 92.75590515136719 72.44094848632812 92.91338348388672 73.54330444335938 C93.5433120727539 82.20472717285156 94.96063232421875 89.6063003540039 96.3779525756836 95.5905532836914 Z"></path>
<path fill="#FFFFFF" fill-opacity="1.0"  filling="0" d="M97.32283020019531 95.5905532836914 C97.16535949707031 95.5905532836914 96.85039520263672 95.5905532836914 96.69291687011719 95.5905532836914 C96.53543090820312 95.5905532836914 96.53543090820312 95.5905532836914 96.3779525756836 95.5905532836914 C95.43306732177734 95.43306732177734 94.48818969726562 95.43306732177734 93.70079040527344 95.27558898925781 C89.92125701904297 85.51181030273438 86.61417388916016 75.43307495117188 86.61417388916016 75.43307495117188 L90.23622131347656 73.54330444335938 L88.18898010253906 71.6535415649414 L87.87401580810547 71.33858489990234 C88.50393676757812 69.6063003540039 89.44882202148438 68.031494140625 90.39370727539062 66.77165222167969 C91.33858489990234 65.35433197021484 92.28346252441406 64.40945434570312 92.59842681884766 63.937007904052734 L92.59842681884766 63.937007904052734 C92.75590515136719 63.7795295715332 92.75590515136719 63.7795295715332 92.75590515136719 63.7795295715332 L92.75590515136719 63.937007904052734 C92.75590515136719 64.09449005126953 92.75590515136719 64.09449005126953 92.59842681884766 64.25196838378906 C92.44094848632812 65.03936767578125 92.28346252441406 66.29920959472656 92.28346252441406 67.87401580810547 L92.28346252441406 67.87401580810547 C92.28346252441406 68.66141510009766 92.28346252441406 69.6063003540039 92.44094848632812 70.55117797851562 C92.59842681884766 71.81101989746094 92.75590515136719 73.22834777832031 92.91338348388672 74.80314636230469 L92.91338348388672 74.80314636230469 C93.70079040527344 80.62992095947266 95.11811065673828 87.71653747558594 96.69291687011719 94.17322540283203 C97.00787353515625 94.48818969726562 97.16535949707031 95.11811065673828 97.32283020019531 95.5905532836914 Z"></path>
<path fill="#FFFFFF" fill-opacity="1.0"  filling="0" d="M130.8661346435547 79.6850357055664 C129.9212646484375 80.94488525390625 128.97637939453125 82.20472717285156 127.87400817871094 83.46456909179688 C125.35432434082031 86.14173126220703 122.51969146728516 88.50393676757812 119.37008666992188 90.39370727539062 C119.84251403808594 84.56693267822266 122.20471954345703 78.58267974853516 123.6220474243164 78.58267974853516 C125.66929626464844 78.58267974853516 130.23622131347656 75.74803161621094 130.39370727539062 75.5905532836914 L130.39370727539062 75.5905532836914 C130.39370727539062 75.5905532836914 130.7086639404297 77.16535949707031 130.8661346435547 79.6850357055664 Z"></path>
<path fill="#FFFFFF" fill-opacity="1.0"  filling="0" d="M130.55117797851562 75.5905532836914 L130.55117797851562 75.5905532836914 C130.55117797851562 75.74803161621094 129.4488067626953 78.74015808105469 128.031494140625 83.46456909179688 C125.51181030273438 86.14173126220703 122.67716979980469 88.50393676757812 119.52755737304688 90.39370727539062 C117.9527587890625 91.33858489990234 116.22047424316406 92.28346252441406 114.4881820678711 92.91338348388672 C114.33070373535156 92.91338348388672 114.17322540283203 93.07086181640625 114.0157470703125 93.07086181640625 C113.22834777832031 93.38582611083984 112.59842681884766 93.70079040527344 111.81101989746094 93.85826873779297 C111.18109893798828 94.17322540283203 110.3936996459961 94.3307113647461 109.60629272460938 94.48818969726562 C109.44882202148438 94.48818969726562 109.13386535644531 94.64566802978516 108.97637176513672 94.64566802978516 C108.18897247314453 94.80315399169922 107.24409484863281 94.96063232421875 106.4566879272461 95.11811065673828 C105.51181030273438 95.27558898925781 104.72441101074219 95.43306732177734 103.77953338623047 95.43306732177734 C105.19685363769531 89.44882202148438 106.4566879272461 82.0472412109375 107.40157318115234 73.38582611083984 C107.5590591430664 72.2834701538086 107.5590591430664 71.18110656738281 107.71653747558594 70.07874298095703 C107.87401580810547 68.50393676757812 107.87401580810547 66.92913818359375 108.031494140625 65.19685363769531 L108.031494140625 65.19685363769531 C108.031494140625 65.03936767578125 108.031494140625 65.03936767578125 108.031494140625 64.88189697265625 C108.031494140625 64.88189697265625 108.3464584350586 65.51181030273438 109.76377868652344 66.61417388916016 C111.96849822998047 68.81890106201172 117.63778686523438 72.12598419189453 130.55117797851562 75.5905532836914 Z"></path>
<path fill="#FFFFFF" fill-opacity="1.0"  filling="0" d="M113.54330444335938 75.43307495117188 C113.54330444335938 75.43307495117188 110.07874298095703 85.35433197021484 106.4566879272461 95.27558898925781 C105.51181030273438 95.43306732177734 104.72441101074219 95.5905532836914 103.77953338623047 95.5905532836914 C103.62205505371094 95.5905532836914 103.62205505371094 95.5905532836914 103.46456146240234 95.5905532836914 C103.30708312988281 95.5905532836914 102.99212646484375 95.5905532836914 102.83464813232422 95.5905532836914 C102.99212646484375 95.11811065673828 103.14960479736328 94.48818969726562 103.14960479736328 93.85826873779297 C104.56693267822266 87.40157318115234 106.14173126220703 80.31495666503906 106.92913818359375 74.48818969726562 L106.92913818359375 74.48818969726562 C107.08661651611328 72.91338348388672 107.24409484863281 71.49606323242188 107.40157318115234 70.07874298095703 C107.40157318115234 69.13386535644531 107.5590591430664 68.3464584350586 107.5590591430664 67.5590591430664 C107.5590591430664 67.5590591430664 107.5590591430664 67.5590591430664 107.5590591430664 67.40157318115234 L107.5590591430664 67.40157318115234 C107.5590591430664 65.9842529296875 107.5590591430664 64.88189697265625 107.24409484863281 64.09449005126953 L107.24409484863281 64.09449005126953 L107.24409484863281 63.937007904052734 L107.24409484863281 63.7795295715332 C107.24409484863281 63.7795295715332 107.24409484863281 63.7795295715332 107.40157318115234 63.937007904052734 L107.40157318115234 63.937007904052734 C107.87401580810547 64.40945434570312 108.66141510009766 65.35433197021484 109.60629272460938 66.77165222167969 C110.55117797851562 68.031494140625 111.4960708618164 69.6063003540039 112.1259765625 71.33858489990234 L112.1259765625 71.33858489990234 L110.07874298095703 73.38582611083984 L113.54330444335938 75.43307495117188 Z"></path>
<path fill="#FFFFFF" fill-opacity="1.0"  filling="0" d="M112.91338348388672 50.70866394042969 A12.913385391235352 16.22047233581543 0.0 1 1 87.08661651611328 50.70866394042969 A12.913385391235352 16.22047233581543 0.0 1 1 112.91338348388672 50.70866394042969 Z"></path>
<path fill="#FFFFFF" fill-opacity="1.0"  filling="0" d="M114.33464813232422 45.43582534790039 C115.56929016113281 45.856693267822266 115.9334716796875 48.066532135009766 115.14764404296875 50.37165451049805 C114.36181640625 52.6767692565918 112.72361755371094 54.20393371582031 111.48858642578125 53.7830696105957 C110.25394439697266 53.361812591552734 109.8901596069336 51.1519660949707 110.67598724365234 48.84724044799805 C111.4618148803711 46.54212951660156 113.099609375 45.01496124267578 114.33464813232422 45.43582534790039 Z"></path>
<path fill="#FFFFFF" fill-opacity="1.0"  filling="0" d="M88.52362060546875 53.76220703125 C87.28858184814453 54.18307113647461 85.65078735351562 52.655906677246094 84.86456298828125 50.35078811645508 C84.0787353515625 48.04567337036133 84.44291687011719 45.83583068847656 85.67755889892578 45.41496276855469 C86.91259765625 44.99409866333008 88.5503921508789 46.521263122558594 89.33621978759766 48.826377868652344 C90.1224365234375 51.131103515625 89.75826263427734 53.3409423828125 88.52362060546875 53.76220703125 Z"></path>
<path fill="#324A5E" fill-opacity="1.0"  filling="0" d="M88.34645080566406 53.07086944580078 C81.73228454589844 39.21260070800781 91.02362060546875 34.645668029785156 91.02362060546875 34.645668029785156 L86.61417388916016 37.00787353515625 C99.84252166748047 21.10236358642578 109.29134368896484 34.17323303222656 109.29134368896484 34.17323303222656 C118.4251937866211 41.25984573364258 112.59842681884766 51.968505859375 112.59842681884766 51.968505859375 C112.59842681884766 51.968505859375 111.4960708618164 44.09449005126953 107.5590591430664 40.629920959472656 C107.5590591430664 40.629920959472656 102.83464813232422 45.9842529296875 91.968505859375 41.102359771728516 C91.968505859375 41.102359771728516 89.44882202148438 44.88188934326172 90.39370727539062 50.078739166259766 C90.39370727539062 50.078739166259766 89.29133605957031 49.448822021484375 88.97637939453125 46.77165603637695 C88.81890106201172 46.77165603637695 87.55905151367188 50.23622131347656 88.34645080566406 53.07086944580078 L88.34645080566406 53.07086944580078 Z"></path>
<path fill="#FFFFFF" fill-opacity="1.0"  filling="0" d="M93.07086181640625 63.7795295715332 C93.07086181640625 63.7795295715332 94.17322540283203 70.23622131347656 100.0 73.07086944580078 C100.0 73.07086944580078 96.06298828125 76.06298828125 95.27558898925781 78.58267974853516 C95.27558898925781 78.58267974853516 88.97637939453125 69.29133605957031 93.07086181640625 63.7795295715332 Z"></path>
<path fill="#FFFFFF" fill-opacity="1.0"  filling="0" d="M106.92913818359375 63.7795295715332 C106.92913818359375 63.7795295715332 105.82676696777344 70.23622131347656 100.0 73.07086944580078 C100.0 73.07086944580078 103.93701171875 76.06298828125 104.72441101074219 78.58267974853516 C104.72441101074219 78.58267974853516 111.02362060546875 69.29133605957031 106.92913818359375 63.7795295715332 Z"></path>
<path fill="#FFFFFF" fill-opacity="1.0"  filling="0" d="M114.4881820678711 92.91338348388672 C114.33070373535156 92.91338348388672 114.17322540283203 93.07086181640625 114.0157470703125 93.07086181640625 C113.22834777832031 93.38582611083984 112.59842681884766 93.70079040527344 111.81101989746094 93.85826873779297 L113.7007827758789 91.968505859375 L114.4881820678711 92.91338348388672 Z"></path>
<path fill="#FFFFFF" fill-opacity="1.0"  filling="0" d="M128.50393676757812 149.60629272460938 C125.35432434082031 147.71653747558594 122.51969146728516 145.35433959960938 119.99999237060547 142.67715454101562 C118.89763641357422 141.57479858398438 117.9527587890625 140.31495666503906 117.00788116455078 138.8976287841797 C117.32283020019531 136.37794494628906 117.48031616210938 134.8031463623047 117.48031616210938 134.8031463623047 L117.48031616210938 134.8031463623047 C117.79528045654297 134.96063232421875 122.20471954345703 137.79527282714844 124.25196838378906 137.79527282714844 C125.66929626464844 137.79527282714844 128.031494140625 143.77952575683594 128.50393676757812 149.60629272460938 Z"></path>
<path fill="#FFFFFF" fill-opacity="1.0"  filling="0" d="M164.094482421875 148.50393676757812 L162.20472717285156 151.968505859375 L162.0472412109375 152.44094848632812 C161.2598419189453 152.7559051513672 160.62991333007812 153.07086181640625 159.84251403808594 153.2283477783203 C159.21258544921875 153.54330444335938 158.42520141601562 153.70077514648438 157.63778686523438 153.85826110839844 C157.48031616210938 153.85826110839844 157.1653594970703 154.0157470703125 157.00787353515625 154.0157470703125 C156.220458984375 154.17323303222656 155.2755889892578 154.33070373535156 154.48818969726562 154.48818969726562 C153.54330444335938 154.64566040039062 152.7559051513672 154.80316162109375 151.81101989746094 154.80316162109375 C151.65354919433594 154.80316162109375 151.65354919433594 154.80316162109375 151.49606323242188 154.80316162109375 C151.3385772705078 154.80316162109375 151.02362060546875 154.80316162109375 150.86614990234375 154.80316162109375 C149.92124938964844 154.80316162109375 149.13385009765625 154.96063232421875 148.18896484375 154.96063232421875 C147.2440948486328 154.96063232421875 146.29920959472656 154.96063232421875 145.51181030273438 154.80316162109375 C145.35433959960938 154.80316162109375 145.03936767578125 154.80316162109375 144.88189697265625 154.80316162109375 C144.7244110107422 154.80316162109375 144.7244110107422 154.80316162109375 144.56692504882812 154.80316162109375 C143.62203979492188 154.64566040039062 142.67715454101562 154.64566040039062 141.88975524902344 154.48818969726562 C137.9527587890625 153.85826110839844 134.1732177734375 152.59841918945312 130.8661346435547 150.70864868164062 C129.60630798339844 145.51181030273438 128.18898010253906 140.0 128.97637939453125 139.2126007080078 C129.9212646484375 137.79527282714844 134.48818969726562 131.49606323242188 134.48818969726562 131.49606323242188 L136.22047424316406 131.02362060546875 L139.842529296875 129.9212646484375 L140.47244262695312 129.76377868652344 L140.6299285888672 129.76377868652344 L141.10235595703125 129.60630798339844 L143.62203979492188 128.81890869140625 L147.8740234375 127.55905151367188 L152.28346252441406 128.66140747070312 L154.80316162109375 129.2913360595703 L155.2755889892578 129.4488067626953 L155.4330596923828 129.4488067626953 L156.06298828125 129.60630798339844 L160.0 130.55117797851562 L162.99212646484375 131.33859252929688 L164.094482421875 148.50393676757812 Z"></path>
<path fill="#FFFFFF" fill-opacity="1.0"  filling="0" d="M151.1811065673828 153.2283477783203 L151.49606323242188 154.80316162109375 C151.3385772705078 154.80316162109375 151.02362060546875 154.80316162109375 150.86614990234375 154.80316162109375 C149.92124938964844 154.80316162109375 149.13385009765625 154.96063232421875 148.18896484375 154.96063232421875 C147.2440948486328 154.96063232421875 146.29920959472656 154.96063232421875 145.51181030273438 154.80316162109375 C145.35433959960938 154.80316162109375 145.03936767578125 154.80316162109375 144.88189697265625 154.80316162109375 L145.19683837890625 153.2283477783203 L147.71653747558594 139.05511474609375 L144.88189697265625 135.59054565429688 L142.36221313476562 132.28346252441406 L154.17323303222656 132.28346252441406 L151.65354919433594 135.59054565429688 L148.8188934326172 139.05511474609375 L151.1811065673828 153.2283477783203 Z"></path>
<path fill="#FFFFFF" fill-opacity="1.0"  filling="0" d="M155.59054565429688 125.82677459716797 C155.59054565429688 131.33859252929688 152.28346252441406 132.1259765625 148.031494140625 132.1259765625 C143.93701171875 132.1259765625 140.47244262695312 131.33859252929688 140.47244262695312 125.82677459716797 C140.47244262695312 120.3149642944336 143.77952575683594 111.33857727050781 148.031494140625 111.33857727050781 C152.1259765625 111.4960708618164 155.59054565429688 120.3149642944336 155.59054565429688 125.82677459716797 Z"></path>
<path fill="#FFFFFF" fill-opacity="1.0"  filling="0" d="M144.40943908691406 154.80316162109375 C143.46456909179688 154.64566040039062 142.51968383789062 154.64566040039062 141.73228454589844 154.48818969726562 C137.79527282714844 153.85826110839844 134.0157470703125 152.59841918945312 130.7086639404297 150.70864868164062 C130.0787353515625 150.39370727539062 129.2913360595703 149.92124938964844 128.66140747070312 149.60629272460938 C125.51181030273438 147.71653747558594 122.67716979980469 145.35433959960938 120.15748596191406 142.67715454101562 C118.74015808105469 137.9527587890625 117.63778686523438 134.96063232421875 117.63778686523438 134.8031463623047 L117.63778686523438 134.8031463623047 C130.55117797851562 131.33859252929688 136.22047424316406 128.031494140625 138.58267211914062 125.9842529296875 C140.0 124.88189697265625 140.31495666503906 124.25196838378906 140.31495666503906 124.25196838378906 C140.31495666503906 124.4094467163086 140.31495666503906 124.56692504882812 140.31495666503906 124.56692504882812 C140.47244262695312 126.29920959472656 140.47244262695312 128.031494140625 140.6299285888672 129.60630798339844 C140.6299285888672 130.7086639404297 140.7873992919922 131.65353393554688 140.94488525390625 132.7559051513672 C141.57479858398438 141.41732788085938 142.99212646484375 148.8188934326172 144.40943908691406 154.80316162109375 Z"></path>
<path fill="#FFFFFF" fill-opacity="1.0"  filling="0" d="M145.35433959960938 154.80316162109375 C145.19683837890625 154.80316162109375 144.88189697265625 154.80316162109375 144.7244110107422 154.80316162109375 C144.56692504882812 154.80316162109375 144.56692504882812 154.80316162109375 144.40943908691406 154.80316162109375 C143.46456909179688 154.64566040039062 142.51968383789062 154.64566040039062 141.73228454589844 154.48818969726562 C137.9527587890625 144.56692504882812 134.48818969726562 134.64566040039062 134.48818969726562 134.64566040039062 L138.1102294921875 132.7559051513672 L136.22047424316406 131.02362060546875 L135.905517578125 130.7086639404297 C136.53543090820312 128.97637939453125 137.48031616210938 127.40158081054688 138.42520141601562 126.14173126220703 C139.37008666992188 124.72440338134766 140.31495666503906 123.77952575683594 140.6299285888672 123.30709075927734 L140.6299285888672 123.30709075927734 C140.7873992919922 123.14959716796875 140.7873992919922 123.14959716796875 140.7873992919922 123.14959716796875 L140.7873992919922 123.30709075927734 C140.7873992919922 123.46456909179688 140.7873992919922 123.46456909179688 140.6299285888672 123.6220474243164 C140.47244262695312 124.4094467163086 140.31495666503906 125.66929626464844 140.31495666503906 127.24409484863281 L140.31495666503906 127.24409484863281 C140.31495666503906 128.031494140625 140.31495666503906 128.97637939453125 140.47244262695312 129.9212646484375 C140.6299285888672 131.1811065673828 140.7873992919922 132.59841918945312 140.94488525390625 134.1732177734375 L140.94488525390625 134.1732177734375 C141.73228454589844 140.0 143.1496124267578 147.08660888671875 144.7244110107422 153.54330444335938 C145.03936767578125 153.85826110839844 145.19683837890625 154.33070373535156 145.35433959960938 154.80316162109375 Z"></path>
<path fill="#FFFFFF" fill-opacity="1.0"  filling="0" d="M179.05511474609375 138.8976287841797 C178.1102294921875 140.157470703125 177.16534423828125 141.41732788085938 176.06298828125 142.67715454101562 C173.54330444335938 145.35433959960938 170.7086639404297 147.71653747558594 167.55905151367188 149.60629272460938 C168.031494140625 143.77952575683594 170.39369201660156 137.79527282714844 171.81101989746094 137.79527282714844 C173.8582763671875 137.79527282714844 178.42520141601562 134.96063232421875 178.58267211914062 134.8031463623047 L178.58267211914062 134.8031463623047 C178.58267211914062 134.8031463623047 178.7401580810547 136.37794494628906 179.05511474609375 138.8976287841797 Z"></path>
<path fill="#FFFFFF" fill-opacity="1.0"  filling="0" d="M178.58267211914062 134.8031463623047 L178.58267211914062 134.8031463623047 C178.58267211914062 134.96063232421875 177.48031616210938 137.9527587890625 176.06298828125 142.67715454101562 C173.54330444335938 145.35433959960938 170.7086639404297 147.71653747558594 167.55905151367188 149.60629272460938 C165.9842529296875 150.55117797851562 164.25196838378906 151.49606323242188 162.51968383789062 152.1259765625 C162.36219787597656 152.1259765625 162.20472717285156 152.28346252441406 162.0472412109375 152.28346252441406 C161.2598419189453 152.59841918945312 160.62991333007812 152.91339111328125 159.84251403808594 153.07086181640625 C159.21258544921875 153.38583374023438 158.42520141601562 153.54330444335938 157.63778686523438 153.70077514648438 C157.48031616210938 153.70077514648438 157.1653594970703 153.85826110839844 157.00787353515625 153.85826110839844 C156.220458984375 154.0157470703125 155.2755889892578 154.17323303222656 154.48818969726562 154.33070373535156 C153.54330444335938 154.48818969726562 152.7559051513672 154.64566040039062 151.81101989746094 154.64566040039062 C153.2283477783203 148.6614227294922 154.48818969726562 141.2598419189453 155.4330596923828 132.59841918945312 C155.59054565429688 131.49606323242188 155.59054565429688 130.39370727539062 155.74803161621094 129.2913360595703 C155.905517578125 127.7165298461914 155.905517578125 126.14173126220703 156.06298828125 124.4094467163086 L156.06298828125 124.4094467163086 C156.06298828125 124.25196838378906 156.06298828125 124.25196838378906 156.06298828125 124.09449005126953 C156.06298828125 124.09449005126953 156.37796020507812 124.72440338134766 157.79527282714844 125.82677459716797 C160.0 128.031494140625 165.66928100585938 131.49606323242188 178.58267211914062 134.8031463623047 Z"></path>
<path fill="#FFFFFF" fill-opacity="1.0"  filling="0" d="M161.57479858398438 134.64566040039062 C161.57479858398438 134.64566040039062 158.1102294921875 144.56692504882812 154.48818969726562 154.48818969726562 C153.54330444335938 154.64566040039062 152.7559051513672 154.80316162109375 151.81101989746094 154.80316162109375 C151.65354919433594 154.80316162109375 151.65354919433594 154.80316162109375 151.49606323242188 154.80316162109375 C151.3385772705078 154.80316162109375 151.02362060546875 154.80316162109375 150.86614990234375 154.80316162109375 C151.02362060546875 154.33070373535156 151.1811065673828 153.70077514648438 151.1811065673828 153.07086181640625 C152.59841918945312 146.61416625976562 154.17323303222656 139.52755737304688 154.96063232421875 133.70079040527344 L154.96063232421875 133.70079040527344 C155.11810302734375 132.1259765625 155.2755889892578 130.7086639404297 155.4330596923828 129.2913360595703 C155.4330596923828 128.34645080566406 155.59054565429688 127.55905151367188 155.59054565429688 126.77165222167969 C155.59054565429688 126.77165222167969 155.59054565429688 126.77165222167969 155.59054565429688 126.61417388916016 L155.59054565429688 126.61417388916016 C155.59054565429688 125.19685363769531 155.59054565429688 124.09449005126953 155.2755889892578 123.30709075927734 L155.2755889892578 123.30709075927734 L155.2755889892578 123.14959716796875 L155.2755889892578 122.99212646484375 C155.2755889892578 122.99212646484375 155.2755889892578 122.99212646484375 155.4330596923828 123.14959716796875 L155.4330596923828 123.14959716796875 C155.905517578125 123.6220474243164 156.6929168701172 124.56692504882812 157.63778686523438 125.9842529296875 C158.58267211914062 127.24409484863281 159.52755737304688 128.81890869140625 160.157470703125 130.55117797851562 L160.157470703125 130.55117797851562 L158.1102294921875 132.59841918945312 L161.57479858398438 134.64566040039062 Z"></path>
<path fill="#FFFFFF" fill-opacity="1.0"  filling="0" d="M160.9448699951172 109.9212646484375 A12.913385391235352 16.22047233581543 0.0 1 1 135.1181182861328 109.9212646484375 A12.913385391235352 16.22047233581543 0.0 1 1 160.9448699951172 109.9212646484375 Z"></path>
<path fill="#FFFFFF" fill-opacity="1.0"  filling="0" d="M162.37835693359375 104.64645385742188 C163.6129913330078 105.06732177734375 163.9771728515625 107.27716827392578 163.19094848632812 109.582275390625 C162.40512084960938 111.88740539550781 160.76731872558594 113.41456604003906 159.53228759765625 112.99330139160156 C158.29763793945312 112.57243347167969 157.9334716796875 110.36260223388672 158.71929931640625 108.05747985839844 C159.50552368164062 105.75275421142578 161.14329528808594 104.22559356689453 162.37835693359375 104.64645385742188 Z"></path>
<path fill="#FFFFFF" fill-opacity="1.0"  filling="0" d="M136.599609375 113.04330444335938 C135.36495971679688 113.46417236328125 133.7267608642578 111.93701171875 132.94094848632812 109.63228607177734 C132.15512084960938 107.32716369628906 132.51889038085938 105.11731719970703 133.75393676757812 104.69644927978516 C134.98858642578125 104.27519989013672 136.62677001953125 105.8023681640625 137.41259765625 108.10747528076172 C138.19842529296875 110.41259765625 137.83465576171875 112.62244415283203 136.599609375 113.04330444335938 Z"></path>
<path fill="#324A5E" fill-opacity="1.0"  filling="0" d="M136.37794494628906 112.2834701538086 C129.76377868652344 98.4251937866211 139.05511474609375 93.85826873779297 139.05511474609375 93.85826873779297 L134.64566040039062 96.22046661376953 C147.8740234375 80.31495666503906 157.3228302001953 93.38582611083984 157.3228302001953 93.38582611083984 C166.45669555664062 100.47244262695312 160.62991333007812 111.18109893798828 160.62991333007812 111.18109893798828 C160.62991333007812 111.18109893798828 159.52755737304688 103.30708312988281 155.59054565429688 99.84252166748047 C155.59054565429688 99.84252166748047 150.86614990234375 105.19685363769531 140.0 100.3149642944336 C140.0 100.3149642944336 137.48031616210938 104.094482421875 138.42520141601562 109.29134368896484 C138.42520141601562 109.29134368896484 137.3228302001953 108.66141510009766 137.00787353515625 105.9842529296875 C137.00787353515625 105.9842529296875 135.59054565429688 109.44882202148438 136.37794494628906 112.2834701538086 L136.37794494628906 112.2834701538086 Z"></path>
<path fill="#FFFFFF" fill-opacity="1.0"  filling="0" d="M141.10235595703125 122.99212646484375 C141.10235595703125 122.99212646484375 142.20472717285156 129.4488067626953 148.031494140625 132.28346252441406 C148.031494140625 132.28346252441406 144.094482421875 135.2755889892578 143.3070831298828 137.79527282714844 C143.3070831298828 137.79527282714844 137.00787353515625 128.50393676757812 141.10235595703125 122.99212646484375 Z"></path>
<path fill="#FFFFFF" fill-opacity="1.0"  filling="0" d="M154.96063232421875 122.99212646484375 C154.96063232421875 122.99212646484375 153.85826110839844 129.4488067626953 148.031494140625 132.28346252441406 C148.031494140625 132.28346252441406 151.968505859375 135.2755889892578 152.7559051513672 137.79527282714844 C152.7559051513672 137.79527282714844 159.05511474609375 128.50393676757812 154.96063232421875 122.99212646484375 Z"></path>
<path fill="#FFFFFF" fill-opacity="1.0"  filling="0" d="M162.51968383789062 152.1259765625 C162.36219787597656 152.1259765625 162.20472717285156 152.28346252441406 162.0472412109375 152.28346252441406 C161.2598419189453 152.59841918945312 160.62991333007812 152.91339111328125 159.84251403808594 153.07086181640625 L161.73226928710938 151.1811065673828 L162.51968383789062 152.1259765625 Z"></path>
<path fill="#FFFFFF" fill-opacity="1.0"  filling="0" d="M32.440940856933594 149.60629272460938 C29.291336059570312 147.71653747558594 26.456695556640625 145.35433959960938 23.93701171875 142.67715454101562 C22.83464813232422 141.57479858398438 21.8897705078125 140.31495666503906 20.94488525390625 138.8976287841797 C21.259841918945312 136.37794494628906 21.417320251464844 134.8031463623047 21.417320251464844 134.8031463623047 L21.417320251464844 134.8031463623047 C21.732284545898438 134.96063232421875 26.14173126220703 137.79527282714844 28.188980102539062 137.79527282714844 C29.606300354003906 137.79527282714844 31.968505859375 143.77952575683594 32.440940856933594 149.60629272460938 Z"></path>
<path fill="#FFFFFF" fill-opacity="1.0"  filling="0" d="M68.031494140625 148.50393676757812 L66.14173126220703 151.968505859375 L65.9842529296875 152.44094848632812 C65.19685363769531 152.7559051513672 64.56692504882812 153.07086181640625 63.7795295715332 153.2283477783203 C63.14960479736328 153.54330444335938 62.36220169067383 153.70077514648438 61.57480239868164 153.85826110839844 C61.41732406616211 153.85826110839844 61.10236358642578 154.0157470703125 60.94488525390625 154.0157470703125 C60.1574821472168 154.17323303222656 59.21259689331055 154.33070373535156 58.425193786621094 154.48818969726562 C57.480316162109375 154.64566040039062 56.69291305541992 154.80316162109375 55.7480354309082 154.80316162109375 C55.59054946899414 154.80316162109375 55.59054946899414 154.80316162109375 55.433074951171875 154.80316162109375 C55.27558898925781 154.80316162109375 54.96063232421875 154.80316162109375 54.80315017700195 154.80316162109375 C53.85826873779297 154.80316162109375 53.07086944580078 154.96063232421875 52.12598419189453 154.96063232421875 C51.18110275268555 154.96063232421875 50.23622131347656 154.96063232421875 49.448822021484375 154.80316162109375 C49.29133987426758 154.80316162109375 48.976375579833984 154.80316162109375 48.81889724731445 154.80316162109375 C48.66142272949219 154.80316162109375 48.66142272949219 154.80316162109375 48.503936767578125 154.80316162109375 C47.559059143066406 154.64566040039062 46.614173889160156 154.64566040039062 45.8267707824707 154.48818969726562 C41.88976287841797 153.85826110839844 38.11023712158203 152.59841918945312 34.80314636230469 150.70864868164062 C33.543304443359375 145.51181030273438 32.12599182128906 140.0 32.91339111328125 139.2126007080078 C33.85826873779297 137.79527282714844 38.425201416015625 131.49606323242188 38.425201416015625 131.49606323242188 L40.1574821472168 131.02362060546875 L43.77952575683594 129.9212646484375 L44.40945053100586 129.76377868652344 L44.56692886352539 129.76377868652344 L45.03936767578125 129.60630798339844 L47.559059143066406 128.81890869140625 L51.81102752685547 127.55905151367188 L56.22047424316406 128.66140747070312 L58.74015808105469 129.2913360595703 L59.21259689331055 129.4488067626953 L59.370079040527344 129.4488067626953 L60.0 129.60630798339844 L63.937007904052734 130.55117797851562 L66.92913818359375 131.33859252929688 L68.031494140625 148.50393676757812 Z"></path>
<path fill="#FFFFFF" fill-opacity="1.0"  filling="0" d="M55.11811065673828 153.2283477783203 L55.433074951171875 154.80316162109375 C55.27558898925781 154.80316162109375 54.96063232421875 154.80316162109375 54.80315017700195 154.80316162109375 C53.85826873779297 154.80316162109375 53.07086944580078 154.96063232421875 52.12598419189453 154.96063232421875 C51.18110275268555 154.96063232421875 50.23622131347656 154.96063232421875 49.448822021484375 154.80316162109375 C49.29133987426758 154.80316162109375 48.976375579833984 154.80316162109375 48.81889724731445 154.80316162109375 L49.13386154174805 153.2283477783203 L51.653541564941406 139.05511474609375 L48.81889724731445 135.59054565429688 L46.299217224121094 132.28346252441406 L58.1102409362793 132.28346252441406 L55.59054946899414 135.59054565429688 L52.75590515136719 139.05511474609375 L55.11811065673828 153.2283477783203 Z"></path>
<path fill="#FFFFFF" fill-opacity="1.0"  filling="0" d="M59.527557373046875 125.82677459716797 C59.527557373046875 131.33859252929688 56.22047424316406 132.1259765625 51.968505859375 132.1259765625 C47.874019622802734 132.1259765625 44.40945053100586 131.33859252929688 44.40945053100586 125.82677459716797 C44.40945053100586 120.3149642944336 47.71653366088867 111.33857727050781 51.968505859375 111.33857727050781 C56.062992095947266 111.4960708618164 59.527557373046875 120.3149642944336 59.527557373046875 125.82677459716797 Z"></path>
<path fill="#FFFFFF" fill-opacity="1.0"  filling="0" d="M48.346458435058594 154.80316162109375 C47.401573181152344 154.64566040039062 46.456695556640625 154.64566040039062 45.66929244995117 154.48818969726562 C41.73228454589844 153.85826110839844 37.952754974365234 152.59841918945312 34.645668029785156 150.70864868164062 C34.0157470703125 150.39370727539062 33.22834777832031 149.92124938964844 32.598426818847656 149.60629272460938 C29.448822021484375 147.71653747558594 26.614173889160156 145.35433959960938 24.09449005126953 142.67715454101562 C22.677169799804688 137.9527587890625 21.574806213378906 134.96063232421875 21.574806213378906 134.8031463623047 L21.574806213378906 134.8031463623047 C34.488189697265625 131.33859252929688 40.1574821472168 128.031494140625 42.51968765258789 125.9842529296875 C43.93701171875 124.88189697265625 44.25196838378906 124.25196838378906 44.25196838378906 124.25196838378906 C44.25196838378906 124.4094467163086 44.25196838378906 124.56692504882812 44.25196838378906 124.56692504882812 C44.40945053100586 126.29920959472656 44.40945053100586 128.031494140625 44.56692886352539 129.60630798339844 C44.56692886352539 130.7086639404297 44.72441482543945 131.65353393554688 44.88188934326172 132.7559051513672 C45.51181411743164 141.41732788085938 46.929134368896484 148.8188934326172 48.346458435058594 154.80316162109375 Z"></path>
<path fill="#FFFFFF" fill-opacity="1.0"  filling="0" d="M49.29133987426758 154.80316162109375 C49.13386154174805 154.80316162109375 48.81889724731445 154.80316162109375 48.66142272949219 154.80316162109375 C48.503936767578125 154.80316162109375 48.503936767578125 154.80316162109375 48.346458435058594 154.80316162109375 C47.401573181152344 154.64566040039062 46.456695556640625 154.64566040039062 45.66929244995117 154.48818969726562 C41.88976287841797 144.56692504882812 38.425201416015625 134.64566040039062 38.425201416015625 134.64566040039062 L42.047245025634766 132.7559051513672 L40.1574821472168 131.02362060546875 L39.84252166748047 130.7086639404297 C40.472442626953125 128.97637939453125 41.41732406616211 127.40158081054688 42.36220932006836 126.14173126220703 C43.30708694458008 124.72440338134766 44.25196838378906 123.77952575683594 44.56692886352539 123.30709075927734 L44.56692886352539 123.30709075927734 C44.72441482543945 123.14959716796875 44.72441482543945 123.14959716796875 44.72441482543945 123.14959716796875 L44.72441482543945 123.30709075927734 C44.72441482543945 123.46456909179688 44.72441482543945 123.46456909179688 44.56692886352539 123.6220474243164 C44.40945053100586 124.4094467163086 44.25196838378906 125.66929626464844 44.25196838378906 127.24409484863281 L44.25196838378906 127.24409484863281 C44.25196838378906 128.031494140625 44.25196838378906 128.97637939453125 44.40945053100586 129.9212646484375 C44.56692886352539 131.1811065673828 44.72441482543945 132.59841918945312 44.88188934326172 134.1732177734375 L44.88188934326172 134.1732177734375 C45.66929244995117 140.0 47.08661651611328 147.08660888671875 48.66142272949219 153.54330444335938 C48.976375579833984 153.85826110839844 49.13386154174805 154.33070373535156 49.29133987426758 154.80316162109375 Z"></path>
<path fill="#FFFFFF" fill-opacity="1.0"  filling="0" d="M82.83464050292969 138.8976287841797 C81.88976287841797 140.157470703125 80.94488525390625 141.41732788085938 79.84252166748047 142.67715454101562 C77.32283020019531 145.35433959960938 74.48818969726562 147.71653747558594 71.33858489990234 149.60629272460938 C71.81101989746094 143.77952575683594 74.17322540283203 137.79527282714844 75.5905532836914 137.79527282714844 C77.6377944946289 137.79527282714844 82.20472717285156 134.96063232421875 82.3622055053711 134.8031463623047 L82.3622055053711 134.8031463623047 C82.3622055053711 134.8031463623047 82.67716979980469 136.37794494628906 82.83464050292969 138.8976287841797 Z"></path>
<path fill="#FFFFFF" fill-opacity="1.0"  filling="0" d="M82.51968383789062 134.8031463623047 L82.51968383789062 134.8031463623047 C82.51968383789062 134.96063232421875 81.41732788085938 137.9527587890625 80.0 142.67715454101562 C77.48031616210938 145.35433959960938 74.64567565917969 147.71653747558594 71.49606323242188 149.60629272460938 C69.9212646484375 150.55117797851562 68.18898010253906 151.49606323242188 66.45669555664062 152.1259765625 C66.29920959472656 152.1259765625 66.14173126220703 152.28346252441406 65.9842529296875 152.28346252441406 C65.19685363769531 152.59841918945312 64.56692504882812 152.91339111328125 63.7795295715332 153.07086181640625 C63.14960479736328 153.38583374023438 62.36220169067383 153.54330444335938 61.57480239868164 153.70077514648438 C61.41732406616211 153.70077514648438 61.10236358642578 153.85826110839844 60.94488525390625 153.85826110839844 C60.1574821472168 154.0157470703125 59.21259689331055 154.17323303222656 58.425193786621094 154.33070373535156 C57.480316162109375 154.48818969726562 56.69291305541992 154.64566040039062 55.7480354309082 154.64566040039062 C57.16535568237305 148.6614227294922 58.425193786621094 141.2598419189453 59.370079040527344 132.59841918945312 C59.527557373046875 131.49606323242188 59.527557373046875 130.39370727539062 59.68504333496094 129.2913360595703 C59.84252166748047 127.7165298461914 59.84252166748047 126.14173126220703 60.0 124.4094467163086 L60.0 124.4094467163086 C60.0 124.25196838378906 60.0 124.25196838378906 60.0 124.09449005126953 C60.0 124.09449005126953 60.31496047973633 124.72440338134766 61.73228454589844 125.82677459716797 C63.937007904052734 128.031494140625 69.6063003540039 131.49606323242188 82.51968383789062 134.8031463623047 Z"></path>
<path fill="#FFFFFF" fill-opacity="1.0"  filling="0" d="M65.51181030273438 134.64566040039062 C65.51181030273438 134.64566040039062 62.04724884033203 144.56692504882812 58.425193786621094 154.48818969726562 C57.480316162109375 154.64566040039062 56.69291305541992 154.80316162109375 55.7480354309082 154.80316162109375 C55.59054946899414 154.80316162109375 55.59054946899414 154.80316162109375 55.433074951171875 154.80316162109375 C55.27558898925781 154.80316162109375 54.96063232421875 154.80316162109375 54.80315017700195 154.80316162109375 C54.96063232421875 154.33070373535156 55.11811065673828 153.70077514648438 55.11811065673828 153.07086181640625 C56.53543472290039 146.61416625976562 58.1102409362793 139.52755737304688 58.897640228271484 133.70079040527344 L58.897640228271484 133.70079040527344 C59.055118560791016 132.1259765625 59.21259689331055 130.7086639404297 59.370079040527344 129.2913360595703 C59.370079040527344 128.34645080566406 59.527557373046875 127.55905151367188 59.527557373046875 126.77165222167969 C59.527557373046875 126.77165222167969 59.527557373046875 126.77165222167969 59.527557373046875 126.61417388916016 L59.527557373046875 126.61417388916016 C59.527557373046875 125.19685363769531 59.527557373046875 124.09449005126953 59.21259689331055 123.30709075927734 L59.21259689331055 123.30709075927734 L59.21259689331055 123.14959716796875 L59.21259689331055 122.99212646484375 C59.21259689331055 122.99212646484375 59.21259689331055 122.99212646484375 59.370079040527344 123.14959716796875 L59.370079040527344 123.14959716796875 C59.84252166748047 123.6220474243164 60.629920959472656 124.56692504882812 61.57480239868164 125.9842529296875 C62.51968765258789 127.24409484863281 63.46456527709961 128.81890869140625 64.09449005126953 130.55117797851562 L64.09449005126953 130.55117797851562 L62.04724884033203 132.59841918945312 L65.51181030273438 134.64566040039062 Z"></path>
<path fill="#FFFFFF" fill-opacity="1.0"  filling="0" d="M64.88189697265625 109.9212646484375 A12.913385391235352 16.22047233581543 0.0 1 1 39.055118560791016 109.9212646484375 A12.913385391235352 16.22047233581543 0.0 1 1 64.88189697265625 109.9212646484375 Z"></path>
<path fill="#FFFFFF" fill-opacity="1.0"  filling="0" d="M66.31456756591797 104.65315246582031 C67.54920959472656 105.07401275634766 67.91299438476562 107.28385925292969 67.12716674804688 109.58897399902344 C66.34133911132812 111.8936996459961 64.70354461669922 113.42125701904297 63.468505859375 112.99999237060547 C62.23386001586914 112.57913208007812 61.869686126708984 110.36929321289062 62.655513763427734 108.06417083740234 C63.441341400146484 105.75944519042969 65.07952880859375 104.23188781738281 66.31456756591797 104.65315246582031 Z"></path>
<path fill="#FFFFFF" fill-opacity="1.0"  filling="0" d="M40.483863830566406 113.0523681640625 C39.24882125854492 113.47322082519531 37.61102294921875 111.94606018066406 36.82520294189453 109.64094543457031 C36.03937530517578 107.33621978759766 36.40314865112305 105.12637329101562 37.63779830932617 104.70511627197266 C38.87283706665039 104.28424835205078 40.51102828979492 105.81140899658203 41.296852111816406 108.11653137207031 C42.082679748535156 110.42125701904297 41.718502044677734 112.631103515625 40.483863830566406 113.0523681640625 Z"></path>
<path fill="#324A5E" fill-opacity="1.0"  filling="0" d="M40.31496047973633 112.2834701538086 C33.70079040527344 98.4251937866211 42.99212646484375 93.85826873779297 42.99212646484375 93.85826873779297 L38.582679748535156 96.22046661376953 C51.81102752685547 80.31495666503906 61.25984573364258 93.38582611083984 61.25984573364258 93.38582611083984 C70.39370727539062 100.47244262695312 64.56692504882812 111.18109893798828 64.56692504882812 111.18109893798828 C64.56692504882812 111.18109893798828 63.46456527709961 103.30708312988281 59.527557373046875 99.84252166748047 C59.527557373046875 99.84252166748047 54.80315017700195 105.19685363769531 43.93701171875 100.3149642944336 C43.93701171875 100.3149642944336 41.41732406616211 104.094482421875 42.36220932006836 109.29134368896484 C42.36220932006836 109.29134368896484 41.25984573364258 108.66141510009766 40.944881439208984 105.9842529296875 C40.78740692138672 105.9842529296875 39.527557373046875 109.44882202148438 40.31496047973633 112.2834701538086 L40.31496047973633 112.2834701538086 Z"></path>
<path fill="#FFFFFF" fill-opacity="1.0"  filling="0" d="M45.03936767578125 122.99212646484375 C45.03936767578125 122.99212646484375 46.14173126220703 129.4488067626953 51.968505859375 132.28346252441406 C51.968505859375 132.28346252441406 48.031497955322266 135.2755889892578 47.24409484863281 137.79527282714844 C47.24409484863281 137.79527282714844 40.944881439208984 128.50393676757812 45.03936767578125 122.99212646484375 Z"></path>
<path fill="#FFFFFF" fill-opacity="1.0"  filling="0" d="M58.897640228271484 122.99212646484375 C58.897640228271484 122.99212646484375 57.7952766418457 129.4488067626953 51.968505859375 132.28346252441406 C51.968505859375 132.28346252441406 55.905513763427734 135.2755889892578 56.69291305541992 137.79527282714844 C56.69291305541992 137.79527282714844 62.99212646484375 128.50393676757812 58.897640228271484 122.99212646484375 Z"></path>
<path fill="#FFFFFF" fill-opacity="1.0"  filling="0" d="M66.45669555664062 152.1259765625 C66.29920959472656 152.1259765625 66.14173126220703 152.28346252441406 65.9842529296875 152.28346252441406 C65.19685363769531 152.59841918945312 64.56692504882812 152.91339111328125 63.7795295715332 153.07086181640625 L65.66929626464844 151.1811065673828 L66.45669555664062 152.1259765625 Z"></path>
<path fill="#FFD05B" fill-opacity="1.0"  filling="0" d="M155.74803161621094 62.04724884033203 L149.29135131835938 62.20472717285156 L160.47244262695312 72.91338348388672 L171.18109130859375 61.73228454589844 L164.8818817138672 61.88976287841797 C162.36219787597656 47.24409484863281 147.8740234375 40.000003814697266 136.53543090820312 44.40945053100586 C148.97637939453125 43.46456527709961 156.6929168701172 53.22834777832031 155.74803161621094 62.04724884033203 Z"></path>
<path fill="#FFD05B" fill-opacity="1.0"  filling="0" d="M92.44094848632812 159.68504333496094 L96.85039520263672 154.96063232421875 L81.25984191894531 155.2755889892578 L81.57479858398438 170.86614990234375 L85.82677459716797 166.29920959472656 C97.9527587890625 174.96063232421875 113.38582611083984 169.7637939453125 118.26771545410156 158.7401580810547 C110.55117797851562 168.031494140625 98.11023712158203 166.61416625976562 92.44094848632812 159.68504333496094 Z"></path>
<path fill="#FFD05B" fill-opacity="1.0"  filling="0" d="M47.71653366088867 56.377952575683594 L47.874019622802734 62.83464813232422 L58.582679748535156 51.653541564941406 L47.401573181152344 40.944881439208984 L47.559059143066406 47.24409484863281 C32.91339111328125 49.7637825012207 25.669288635253906 64.25196838378906 30.07874298095703 75.5905532836914 C28.97637939453125 63.14960479736328 38.74015808105469 55.433074951171875 47.71653366088867 56.377952575683594 Z"></path></svg>