<svg xmlns="http://www.w3.org/2000/svg" viewBox="0.0 0.0 200.0 200.0" height="200.0px" width="200.0px"><path fill="#8ac9fe" fill-opacity="1.0"  filling="0" d="M140.09445190429688 197.05987548828125 L34.567726135253906 197.05987548828125 C28.930870056152344 197.05987548828125 24.361190795898438 192.49020385742188 24.361190795898438 186.85333251953125 L24.361190795898438 13.146652221679688 C24.361190795898438 7.509803771972656 28.930870056152344 2.9401168823242188 34.567726135253906 2.9401168823242188 L140.09445190429688 2.9401168823242188 C145.73129272460938 2.9401168823242188 150.3009796142578 7.509803771972656 150.3009796142578 13.146652221679688 L150.3009796142578 186.85333251953125 C150.3009796142578 192.49020385742188 145.73129272460938 197.05987548828125 140.09445190429688 197.05987548828125 Z"></path>
<path fill="#685e68" fill-opacity="1.0"  filling="0" d="M126.62956237792969 2.9401168823242188 L126.62956237792969 14.550483703613281 C126.62956237792969 18.495849609375 123.4303970336914 21.69853973388672 119.48502349853516 21.69853973388672 L55.17831802368164 21.69853973388672 C51.229034423828125 21.69853973388672 48.03025817871094 18.495452880859375 48.03025817871094 14.550483703613281 L48.03025817871094 2.9401168823242188 L126.62956237792969 2.9401168823242188 Z"></path>
<path fill="#fe646f" fill-opacity="1.0"  filling="0" d="M175.63880920410156 138.78350830078125 C175.64273071289062 143.1141357421875 172.14295959472656 146.62564086914062 167.8201904296875 146.63348388671875 L144.61514282226562 146.6687469482422 L93.92537689208984 146.7432098388672 L82.16805267333984 146.7628173828125 L82.16805267333984 52.54350662231445 L93.92537689208984 52.531742095947266 L144.61514282226562 52.472957611083984 L167.64382934570312 52.445526123046875 C171.96661376953125 52.437686920166016 175.47811889648438 55.94137191772461 175.48988342285156 60.26806640625 L175.50555419921875 69.23499298095703 L175.54867553710938 91.1820068359375 L175.63880920410156 138.78350830078125 Z"></path>
<path fill="#fd4755" fill-opacity="1.0"  filling="0" d="M93.92537689208984 52.531742095947266 L93.92537689208984 146.7432098388672 L82.16805267333984 146.7628173828125 L82.16805267333984 52.54350662231445 L93.92537689208984 52.531742095947266 Z"></path>
<path fill="#f9f3f1" fill-opacity="1.0"  filling="0" d="M175.54867553710938 91.18122100830078 L82.16805267333984 91.18122100830078 L82.16805267333984 69.23420715332031 L175.50555419921875 69.23420715332031 L175.54867553710938 91.18122100830078 Z"></path>
<path fill="#60b7ff" fill-opacity="1.0"  filling="0" d="M46.323875427246094 197.0606689453125 L34.56654357910156 197.0606689453125 C28.930870056152344 197.0606689453125 24.361190795898438 192.49098205566406 24.361190795898438 186.8553009033203 L24.361190795898438 13.144699096679688 C24.361190795898438 7.5090179443359375 28.930870056152344 2.9393386840820312 34.56654357910156 2.9393386840820312 L46.323875427246094 2.9393386840820312 C40.68819808959961 2.9393386840820312 36.11851501464844 7.5090179443359375 36.11851501464844 13.144699096679688 L36.11851501464844 186.8553009033203 C36.11851501464844 192.49098205566406 40.68819808959961 197.0606689453125 46.323875427246094 197.0606689453125 Z"></path>
<path fill="#e1d3ce" fill-opacity="1.0"  filling="0" d="M82.16805267333984 69.23499298095703 L93.92537689208984 69.23499298095703 L93.92537689208984 91.1820068359375 L82.16805267333984 91.1820068359375 L82.16805267333984 69.23499298095703 Z"></path>
<path fill="#ffd064" fill-opacity="1.0"  filling="0" d="M159.58299255371094 129.19735717773438 L136.4351806640625 129.19735717773438 C134.60220336914062 129.19735717773438 133.11647033691406 127.71162414550781 133.11647033691406 125.87865447998047 L133.11647033691406 114.38587188720703 C133.11647033691406 112.55290985107422 134.60220336914062 111.06716918945312 136.4351806640625 111.06716918945312 L159.58299255371094 111.06716918945312 C161.4159698486328 111.06716918945312 162.90170288085938 112.55290985107422 162.90170288085938 114.38587188720703 L162.90170288085938 125.87865447998047 C162.90170288085938 127.71162414550781 161.4159698486328 129.19735717773438 159.58299255371094 129.19735717773438 Z"></path>
<path fill="" fill-opacity="1.0"  filling="0" d="M113.52092742919922 194.121337890625 L34.272613525390625 194.121337890625 C30.263763427734375 194.121337890625 27.002662658691406 190.86180114746094 27.002662658691406 186.8553009033203 L27.002662658691406 147.6171875 C27.002662658691406 145.9934844970703 25.68701934814453 144.6778564453125 24.063331604003906 144.6778564453125 C22.439651489257812 144.6778564453125 21.124000549316406 145.9934844970703 21.124000549316406 147.6171875 L21.124000549316406 186.8553009033203 C21.124000549316406 194.10330200195312 27.02265167236328 200.0 34.272613525390625 200.0 L113.52092742919922 200.0 C115.14461517333984 200.0 116.46025848388672 198.68435668945312 116.46025848388672 197.0606689453125 C116.46025848388672 195.43698120117188 115.14461517333984 194.121337890625 113.52092742919922 194.121337890625 Z"></path>
<path fill="" fill-opacity="1.0"  filling="0" d="M127.15589904785156 180.32057189941406 C127.15589904785156 178.6968994140625 125.84025573730469 177.38124084472656 124.21656036376953 177.38124084472656 L49.85068130493164 177.38124084472656 C48.22699737548828 177.38124084472656 46.911354064941406 178.6968994140625 46.911354064941406 180.32057189941406 C46.911354064941406 181.9442596435547 48.22699737548828 183.25990295410156 49.85068130493164 183.25990295410156 L124.21656036376953 183.25990295410156 C125.84025573730469 183.25990295410156 127.15589904785156 181.9442596435547 127.15589904785156 180.32057189941406 Z"></path>
<path fill="" fill-opacity="1.0"  filling="0" d="M178.85247802734375 127.2323226928711 C178.84933471679688 125.610595703125 177.53408813476562 124.29887390136719 175.91314697265625 124.29887390136719 C175.91119384765625 124.29887390136719 175.90924072265625 124.29887390136719 175.9072723388672 124.29887390136719 C174.2835693359375 124.302001953125 172.97067260742188 125.62078094482422 172.97381591796875 127.24407958984375 L172.99734497070312 138.93948364257812 C172.9996795654297 141.6413116455078 170.80850219726562 143.84307861328125 168.11334228515625 143.84738159179688 L85.40327453613281 143.97239685058594 L85.40327453613281 94.121337890625 L172.91268920898438 94.121337890625 L172.95028686523438 113.91870880126953 C172.9534454345703 115.54005432128906 174.26869201660156 116.8521728515625 175.88961791992188 116.8521728515625 L175.8955078125 116.8521728515625 C177.518798828125 116.84903717041016 178.8321075439453 115.5306396484375 178.82894897460938 113.90695190429688 L178.72708129882812 60.412681579589844 C178.71060180664062 54.47836685180664 173.88108825683594 49.659034729003906 167.95774841308594 49.659034729003906 C167.95147705078125 49.659034729003906 167.94442749023438 49.659034729003906 167.93814086914062 49.659034729003906 L152.94285583496094 49.6762809753418 L152.94285583496094 13.144699096679688 C152.94325256347656 5.896697998046875 147.0465545654297 0.0 139.79855346679688 0.0 L34.272613525390625 0.0 C27.02265167236328 0.0 21.124000549316406 5.896697998046875 21.124000549316406 13.144699096679688 L21.124000549316406 134.29220581054688 C21.124000549316406 135.9158935546875 22.439651489257812 137.23153686523438 24.063331604003906 137.23153686523438 C25.68701934814453 137.23153686523438 27.002662658691406 135.9158935546875 27.002662658691406 134.29220581054688 L27.002662658691406 13.144699096679688 C27.002662658691406 9.138191223144531 30.26415252685547 5.878669738769531 34.272613525390625 5.878669738769531 L44.794639587402344 5.878669738769531 L44.794639587402344 14.550865173339844 C44.794639587402344 20.112876892089844 49.32003402709961 24.638267517089844 54.88203811645508 24.638267517089844 L119.18913269042969 24.638267517089844 C124.74957275390625 24.638267517089844 129.27261352539062 20.112876892089844 129.27261352539062 14.550865173339844 L129.27261352539062 5.878669738769531 L139.7981719970703 5.878669738769531 C143.80467224121094 5.878669738769531 147.06419372558594 9.138191223144531 147.06419372558594 13.144699096679688 L147.06419372558594 49.68294143676758 L85.40288543701172 49.753482818603516 L85.40288543701172 43.760780334472656 C85.40288543701172 42.13709259033203 84.08724212646484 40.821449279785156 82.46355438232422 40.821449279785156 C80.83985900878906 40.821449279785156 79.52421569824219 42.13709259033203 79.52421569824219 43.760780334472656 L79.52421569824219 156.63113403320312 C79.52421569824219 158.25482177734375 80.83985900878906 159.57046508789062 82.46355438232422 159.57046508789062 C84.08724212646484 159.57046508789062 85.40288543701172 158.25482177734375 85.40288543701172 156.63113403320312 L85.40288543701172 149.85067749023438 L147.06419372558594 149.7574005126953 L147.06419372558594 186.8553009033203 C147.06419372558594 190.86180114746094 143.80467224121094 194.121337890625 139.7981719970703 194.121337890625 L127.23741149902344 194.121337890625 C125.61372375488281 194.121337890625 124.29808044433594 195.43698120117188 124.29808044433594 197.0606689453125 C124.29808044433594 198.68435668945312 125.61372375488281 200.0 127.23741149902344 200.0 L139.7981719970703 200.0 C147.04617309570312 200.0 152.94285583496094 194.10330200195312 152.94285583496094 186.8553009033203 L152.94285583496094 149.74838256835938 L168.12274169921875 149.7256622314453 C174.0570526123047 149.71546936035156 178.88070678710938 144.87380981445312 178.8756103515625 138.9304656982422 L178.85247802734375 127.2323226928711 Z M123.39433288574219 14.550865173339844 C123.39433288574219 16.87177276611328 121.50807189941406 18.759605407714844 119.18952178955078 18.759605407714844 L54.88203811645508 18.759605407714844 C52.56114196777344 18.759605407714844 50.67330551147461 16.87177276611328 50.67330551147461 14.550865173339844 L50.67330551147461 5.878669738769531 L123.39433288574219 5.878669738769531 L123.39433288574219 14.550865173339844 Z M85.40327453613281 88.24267578125 L85.40327453613281 72.17432403564453 L172.8707275390625 72.17432403564453 L172.90130615234375 88.24267578125 L85.40327453613281 88.24267578125 Z M167.94717407226562 55.53770446777344 L167.95538330078125 55.53770446777344 C170.64663696289062 55.53770446777344 172.84095764160156 57.73005294799805 172.8480224609375 60.42679214477539 L172.859375 66.29605102539062 L85.40327453613281 66.29605102539062 L85.40327453613281 55.63254165649414 L167.94717407226562 55.53770446777344 Z"></path>
<path fill="" fill-opacity="1.0"  filling="0" d="M136.4351806640625 108.12783813476562 C132.98440551757812 108.12783813476562 130.17713928222656 110.93510437011719 130.17713928222656 114.38587188720703 L130.17713928222656 125.87865447998047 C130.17713928222656 129.32943725585938 132.98440551757812 132.13668823242188 136.4351806640625 132.13668823242188 L159.58299255371094 132.13668823242188 C163.03378295898438 132.13668823242188 165.84103393554688 129.32943725585938 165.84103393554688 125.87865447998047 L165.84103393554688 114.38587188720703 C165.84103393554688 110.93510437011719 163.03378295898438 108.12783813476562 159.58299255371094 108.12783813476562 L136.4351806640625 108.12783813476562 Z M159.96237182617188 114.38587188720703 L159.96237182617188 125.87865447998047 C159.96237182617188 126.08755493164062 159.79190063476562 126.2580337524414 159.58299255371094 126.2580337524414 L136.4351806640625 126.2580337524414 C136.22628784179688 126.2580337524414 136.05580139160156 126.08755493164062 136.05580139160156 125.87865447998047 L136.05580139160156 114.38587188720703 C136.05580139160156 114.17698669433594 136.22628784179688 114.00650024414062 136.4351806640625 114.00650024414062 L159.58299255371094 114.00650024414062 C159.79229736328125 114.00650024414062 159.96237182617188 114.17698669433594 159.96237182617188 114.38587188720703 Z"></path></svg>