<svg xmlns="http://www.w3.org/2000/svg" viewBox="0.0 0.0 200.0 200.0" height="200.0px" width="200.0px"><path fill="#eeefee" fill-opacity="1.0"  filling="0" d="M56.90312194824219 147.53280639648438 L56.90312194824219 147.5421905517578 L39.545310974121094 164.89218139648438 L39.09375 163.30313110351562 L34.375 146.66561889648438 L45.204689025878906 135.84375 L55.87968826293945 146.51719665527344 L56.90312194824219 147.53280639648438 Z"></path>
<path fill="#bbbbcd" fill-opacity="1.0"  filling="0" d="M56.90312194824219 147.5421905517578 L39.545310974121094 164.89218139648438 L39.09375 163.30313110351562 L55.87968826293945 146.51719665527344 L56.90312194824219 147.5421905517578 Z"></path>
<path fill="#9a9eaf" fill-opacity="1.0"  filling="0" d="M44.55937194824219 157.83749389648438 L43.78437423706055 158.6125030517578 L38.77812576293945 142.26406860351562 L39.554691314697266 141.4890594482422 L44.55937194824219 157.83749389648438 Z"></path>
<path fill="#9a9eaf" fill-opacity="1.0"  filling="0" d="M49.703121185302734 152.69375610351562 L48.92656326293945 153.47030639648438 L43.921875 137.1203155517578 L44.69688034057617 136.34530639648438 L49.703121185302734 152.69375610351562 Z"></path>
<path fill="#9a9eaf" fill-opacity="1.0"  filling="0" d="M54.845314025878906 147.5515594482422 L54.0703125 148.32656860351562 L49.06562423706055 131.9765625 L49.84062957763672 131.20156860351562 L54.845314025878906 147.5515594482422 Z"></path>
<path fill="#f6c863" fill-opacity="1.0"  filling="0" d="M165.49374389648438 50.7890625 L162.93594360351562 58.92343521118164 A9.8125 9.8125 0.0 0 1 161.06094360351562 62.320308685302734 L157.5890655517578 66.3921890258789 L149.12188720703125 76.34687805175781 A19.292186737060547 19.292186737060547 0.0 0 1 141.875 81.63594055175781 L139.19686889648438 82.75312805175781 A9.410937309265137 9.410937309265137 0.0 0 1 135.97500610351562 83.46406555175781 A9.23281192779541 9.23281192779541 0.0 0 0 133.62030029296875 83.8531265258789 A39.14687728881836 39.14687728881836 0.0 0 0 118.1656265258789 92.8125 L59.73906707763672 149.71249389648438 A1.0703125 1.0703125 0.0 0 1 58.81562042236328 149.99844360351562 L47.44843673706055 147.875 A1.0499999523162842 1.0499999523162842 0.0 0 1 46.61874771118164 147.09375 L43.4375 134.15469360351562 A1.0499999523162842 1.0499999523162842 0.0 0 1 43.685935974121094 133.19375610351562 L95.5296859741211 76.75312805175781 L120.82500457763672 51.453125 A67.02031707763672 67.02031707763672 0.0 0 1 133.6374969482422 42.44219207763672 A108.7890625 108.7890625 0.0 0 1 149.21249389648438 35.23124694824219 A2.059375047683716 2.059375047683716 0.0 0 1 151.29061889648438 35.63749694824219 L164.7062530517578 47.843753814697266 A2.8343749046325684 2.8343749046325684 0.0 0 1 165.49374389648438 50.7890625 Z"></path>
<path fill="#575b6d" fill-opacity="1.0"  filling="0" d="M165.49374389648438 50.7890625 L162.93594360351562 58.92343521118164 A9.8125 9.8125 0.0 0 1 161.06094360351562 62.320308685302734 L157.5890655517578 66.3921890258789 L133.63125610351562 42.44219207763672 A108.7890625 108.7890625 0.0 0 1 149.20623779296875 35.23124694824219 A2.059375047683716 2.059375047683716 0.0 0 1 151.2843780517578 35.63749694824219 L164.6999969482422 47.843753814697266 A2.8343749046325684 2.8343749046325684 0.0 0 1 165.49374389648438 50.7890625 Z"></path>
<path fill="#eab54e" fill-opacity="1.0"  filling="0" d="M137.8484344482422 46.6484375 L144.48593139648438 53.28593826293945 L126.20781707763672 71.56405639648438 L119.5703125 64.92655944824219 L137.8484344482422 46.6484375 Z"></path>
<path fill="#eeefee" fill-opacity="1.0"  filling="0" d="M108.74687194824219 89.80781555175781 L84.91719055175781 114.13749694824219 L84.1500015258789 114.92188262939453 L79.80156707763672 119.36249542236328 L79.02656555175781 120.14842987060547 L74.6859359741211 124.58906555175781 L73.91094207763672 125.3734359741211 L69.5625 129.8156280517578 L68.7953109741211 130.60000610351562 L64.44686889648438 135.03125 L63.671875 135.8249969482422 L62.009376525878906 137.52499389648438 L56.94062805175781 132.44686889648438 L55.37968826293945 130.8859405517578 L55.435935974121094 130.8312530517578 L56.20156478881836 130.04530334472656 L60.55155944824219 125.62344360351562 L61.32656478881836 124.83750915527344 L65.67500305175781 120.40625 L66.44999694824219 119.62187194824219 L70.80000305175781 115.1890640258789 L71.56562042236328 114.40469360351562 L75.9140625 109.9828109741211 L76.69062805175781 109.1968765258789 L81.0390625 104.76563262939453 L81.8140640258789 103.98124694824219 L102.18281555175781 83.2437515258789 L108.74687194824219 89.80781555175781 Z"></path>
<path fill="#575b6d" fill-opacity="1.0"  filling="0" d="M120.94686889648438 63.259376525878906 L128.52969360351562 70.8421859741211 C129.17031860351562 71.48124694824219 129.17031860351562 72.51874542236328 128.52969360351562 73.15937042236328 L106.69532012939453 94.9937515258789 C106.0546875 95.6343765258789 105.01718139648438 95.6343765258789 104.3765640258789 94.9937515258789 L96.7953109741211 87.4124984741211 C96.15469360351562 86.7718734741211 96.15469360351562 85.734375 96.7953109741211 85.09375 L118.62968444824219 63.259376525878906 C119.27030944824219 62.618751525878906 120.30781555175781 62.618751525878906 120.94686889648438 63.259376525878906 Z"></path>
<path fill="#414451" fill-opacity="1.0"  filling="0" d="M119.61563110351562 66.3343734741211 L125.45625305175781 72.17500305175781 C125.68124389648438 72.3984375 125.68124389648438 72.76249694824219 125.45625305175781 72.98750305175781 L124.63749694824219 73.8062515258789 C124.4140625 74.02969360351562 124.04999542236328 74.02969360351562 123.82499694824219 73.8062515258789 L117.984375 67.96562194824219 C117.75936889648438 67.7406234741211 117.75936889648438 67.37655639648438 117.984375 67.15312194824219 L118.80311584472656 66.3343734741211 C119.02812957763672 66.109375 119.39219665527344 66.109375 119.61563110351562 66.3343734741211 Z"></path>
<path fill="#414451" fill-opacity="1.0"  filling="0" d="M115.86405944824219 70.0859375 L121.70468139648438 75.92655944824219 C121.92969512939453 76.1500015258789 121.92969512939453 76.51406860351562 121.70468139648438 76.73905944824219 L120.88593292236328 77.55781555175781 C120.6624984741211 77.78125 120.29843139648438 77.78125 120.07344055175781 77.55781555175781 L114.23281860351562 71.7171859741211 C114.00780487060547 71.4921875 114.00780487060547 71.12812805175781 114.23281860351562 70.90469360351562 L115.05156707763672 70.0859375 C115.27656555175781 69.86093139648438 115.640625 69.86093139648438 115.86405944824219 70.0859375 Z"></path>
<path fill="#414451" fill-opacity="1.0"  filling="0" d="M112.11405944824219 73.8359375 L117.95468139648438 79.67655944824219 C118.1796875 79.90156555175781 118.1796875 80.265625 117.95468139648438 80.48905944824219 L117.13594055175781 81.30780792236328 C116.91093444824219 81.5328140258789 116.54686737060547 81.5328140258789 116.32343292236328 81.30780792236328 L110.4828109741211 75.4671859741211 C110.2578125 75.2421875 110.2578125 74.87968444824219 110.4828109741211 74.6546859741211 L111.30156707763672 73.8359375 C111.5250015258789 73.6109390258789 111.88906860351562 73.6109390258789 112.11405944824219 73.8359375 Z"></path>
<path fill="#414451" fill-opacity="1.0"  filling="0" d="M108.36405944824219 77.5859375 L114.20469665527344 83.42656707763672 C114.4296875 83.65155792236328 114.4296875 84.015625 114.20469665527344 84.23905944824219 L113.38594055175781 85.05781555175781 C113.16093444824219 85.2828140258789 112.796875 85.2828140258789 112.57343292236328 85.05781555175781 L106.7328109741211 79.21719360351562 C106.5078125 78.9937515258789 106.5078125 78.62969207763672 106.7328109741211 78.40469360351562 L107.55155944824219 77.5859375 C107.77499389648438 77.3609390258789 108.1390609741211 77.3609390258789 108.36405944824219 77.5859375 Z"></path>
<path fill="#414451" fill-opacity="1.0"  filling="0" d="M104.61250305175781 81.3375015258789 L110.453125 87.1781234741211 C110.6781234741211 87.40312194824219 110.6781234741211 87.7671890258789 110.453125 87.9906234741211 L109.6343765258789 88.80937957763672 C109.40937805175781 89.03437042236328 109.04531860351562 89.03437042236328 108.82188415527344 88.80937957763672 L102.98124694824219 82.96875 C102.7562484741211 82.7437515258789 102.7562484741211 82.3812484741211 102.98124694824219 82.15625 L103.79999542236328 81.3375015258789 C104.02342987060547 81.11249542236328 104.38749694824219 81.11249542236328 104.61250305175781 81.3375015258789 Z"></path>
<path fill="#414451" fill-opacity="1.0"  filling="0" d="M100.86250305175781 85.08906555175781 L106.703125 90.9296875 C106.9281234741211 91.1546859741211 106.9281234741211 91.51874542236328 106.703125 91.7421875 L105.8843765258789 92.5609359741211 C105.65937805175781 92.78593444824219 105.2953109741211 92.78593444824219 105.0718765258789 92.5609359741211 L99.23124694824219 86.7203140258789 C99.0062484741211 86.49687957763672 99.0062484741211 86.1328125 99.23124694824219 85.9078140258789 L100.04999542236328 85.08906555175781 C100.27344512939453 84.86405944824219 100.63749694824219 84.86405944824219 100.86250305175781 85.08906555175781 Z"></path>
<path fill="#eab54e" fill-opacity="1.0"  filling="0" d="M143.66561889648438 70.08905792236328 A3.0 3.0 0.0 1 1 137.66563415527344 70.08905792236328 A3.0 3.0 0.0 1 1 143.66561889648438 70.08905792236328 Z"></path>
<path fill="#9a9eaf" fill-opacity="1.0"  filling="0" d="M56.94062805175781 132.44686889648438 L55.48125076293945 130.9875030517578 L55.435935974121094 130.8312530517578 L56.20156478881836 130.04530334472656 L56.94062805175781 132.44686889648438 Z"></path>
<path fill="#9a9eaf" fill-opacity="1.0"  filling="0" d="M64.44686889648438 135.03125 L63.671875 135.8249969482422 L60.55155944824219 125.62344360351562 L61.32656478881836 124.83750915527344 L64.44686889648438 135.03125 Z"></path>
<path fill="#9a9eaf" fill-opacity="1.0"  filling="0" d="M66.44999694824219 119.62187194824219 L69.5625 129.8156280517578 L68.7953109741211 130.60000610351562 L65.67500305175781 120.40625 L66.44999694824219 119.62187194824219 Z"></path>
<path fill="#9a9eaf" fill-opacity="1.0"  filling="0" d="M74.6859359741211 124.58906555175781 L73.91094207763672 125.3734359741211 L70.80000305175781 115.1890640258789 L71.56562042236328 114.40469360351562 L74.6859359741211 124.58906555175781 Z"></path>
<path fill="#9a9eaf" fill-opacity="1.0"  filling="0" d="M76.69062805175781 109.1968765258789 L79.80156707763672 119.36249542236328 L79.02656555175781 120.14842987060547 L75.9140625 109.9828109741211 L76.69062805175781 109.1968765258789 Z"></path>
<path fill="#9a9eaf" fill-opacity="1.0"  filling="0" d="M81.8140640258789 103.98124694824219 L84.91719055175781 114.13749694824219 L84.1500015258789 114.92188262939453 L81.0390625 104.76563262939453 L81.8140640258789 103.98124694824219 Z"></path></svg>