<svg xmlns="http://www.w3.org/2000/svg" viewBox="0.0 0.0 200.0 200.0" height="200.0px" width="200.0px"><path fill="#2EA0DA" fill-opacity="1.0"  filling="0" d="M190.62490844726562 10.937416076660156 L9.375091552734375 10.937416076660156 C5.937446594238281 10.937416076660156 3.125030517578125 13.749824523925781 3.125030517578125 17.187477111816406 L3.125030517578125 149.99990844726562 C3.125030517578125 153.43756103515625 5.937446594238281 156.24996948242188 9.375091552734375 156.24996948242188 L190.62530517578125 156.24996948242188 C194.06295776367188 156.24996948242188 196.8753662109375 153.43756103515625 196.8753662109375 149.99990844726562 L196.8753662109375 17.187477111816406 C196.87496948242188 13.749824523925781 194.06256103515625 10.937416076660156 190.62490844726562 10.937416076660156 Z"></path>
<path fill="#183651" fill-opacity="1.0"  filling="0" d="M190.62490844726562 159.375 L9.375091552734375 159.375 C4.062507629394531 159.375 0.0 155.3125 0.0 149.99990844726562 L0.0 17.187477111816406 C0.0 11.874885559082031 4.062507629394531 7.812385559082031 9.375091552734375 7.812385559082031 L190.62530517578125 7.812385559082031 C195.93789672851562 7.812385559082031 200.00039672851562 11.874885559082031 200.00039672851562 17.187477111816406 L200.00039672851562 149.99990844726562 C200.0 154.9998779296875 195.9375 159.375 190.62490844726562 159.375 Z M9.375091552734375 14.062446594238281 C7.500152587890625 14.062446594238281 6.25006103515625 15.312538146972656 6.25006103515625 17.187477111816406 L6.25006103515625 149.99990844726562 C6.25006103515625 151.87484741210938 7.500152587890625 153.12493896484375 9.375091552734375 153.12493896484375 L190.62530517578125 153.12493896484375 C192.500244140625 153.12493896484375 193.75033569335938 151.87484741210938 193.75033569335938 149.99990844726562 L193.75033569335938 17.187477111816406 C193.75033569335938 15.312538146972656 192.500244140625 14.062446594238281 190.62530517578125 14.062446594238281 L9.375091552734375 14.062446594238281 Z"></path>
<path fill="#FFFFFF" fill-opacity="1.0"  filling="0" d="M15.625152587890625 23.437538146972656 L184.375244140625 23.437538146972656 L184.375244140625 125.31266784667969 L15.625152587890625 125.31266784667969 L15.625152587890625 23.437538146972656 Z"></path>
<path fill="#FFFFFF" fill-opacity="1.0"  filling="0" d="M64.06254577636719 156.24996948242188 L136.2500762939453 156.24996948242188 L136.2500762939453 177.18731689453125 L64.06254577636719 177.18731689453125 L64.06254577636719 156.24996948242188 Z"></path>
<path fill="#183651" fill-opacity="1.0"  filling="0" d="M135.93746948242188 180.0001220703125 L64.06254577636719 180.0001220703125 C62.18760681152344 180.0001220703125 60.93751525878906 178.75003051757812 60.93751525878906 176.87509155273438 L60.93751525878906 155.937744140625 C60.93751525878906 154.06280517578125 62.18760681152344 152.81271362304688 64.06254577636719 152.81271362304688 L135.93746948242188 152.81271362304688 C137.81240844726562 152.81271362304688 139.0625 154.06280517578125 139.0625 155.937744140625 L139.0625 176.87509155273438 C139.0625 178.75003051757812 137.81240844726562 180.0001220703125 135.93746948242188 180.0001220703125 Z M67.18757629394531 173.75006103515625 L132.81243896484375 173.75006103515625 L132.81243896484375 159.0623779296875 L67.18757629394531 159.0623779296875 L67.18757629394531 173.75006103515625 Z"></path>
<path fill="#CECFD0" fill-opacity="1.0"  filling="0" d="M47.18769454956055 176.87509155273438 L152.81271362304688 176.87509155273438 L152.81271362304688 189.06259155273438 L47.18769454956055 189.06259155273438 L47.18769454956055 176.87509155273438 Z"></path>
<path fill="#183651" fill-opacity="1.0"  filling="0" d="M152.81271362304688 192.1876220703125 L47.18769454956055 192.1876220703125 C45.3127555847168 192.1876220703125 44.06266403198242 190.93753051757812 44.06266403198242 189.06259155273438 L44.06266403198242 176.87509155273438 C44.06266403198242 175.00015258789062 45.3127555847168 173.75006103515625 47.18769454956055 173.75006103515625 L152.81271362304688 173.75006103515625 C154.68765258789062 173.75006103515625 155.937744140625 175.00015258789062 155.937744140625 176.87509155273438 L155.937744140625 189.06259155273438 C155.93734741210938 190.93753051757812 154.68765258789062 192.1876220703125 152.81271362304688 192.1876220703125 Z M50.31232833862305 185.93756103515625 L149.68727111816406 185.93756103515625 L149.68727111816406 180.0001220703125 L50.31232833862305 180.0001220703125 L50.31232833862305 185.93756103515625 Z"></path>
<path fill="#183651" fill-opacity="1.0"  filling="0" d="M80.93739318847656 134.06253051757812 C78.43721008300781 134.06253051757812 76.25004577636719 136.2500762939453 76.25004577636719 138.74986267089844 L76.25004577636719 138.74986267089844 C76.25004577636719 141.2500457763672 78.43760681152344 143.4372100830078 80.93739318847656 143.4372100830078 C83.43757629394531 143.4372100830078 85.62474060058594 141.24966430664062 85.62474060058594 138.74986267089844 L85.62474060058594 138.74986267089844 C85.62513732910156 136.2500762939453 83.75019836425781 134.06253051757812 80.93739318847656 134.06253051757812 Z"></path>
<path fill="#183651" fill-opacity="1.0"  filling="0" d="M100.00019836425781 134.06253051757812 C97.50001525878906 134.06253051757812 95.31285095214844 136.2500762939453 95.31285095214844 138.74986267089844 L95.31285095214844 138.74986267089844 C95.31285095214844 141.2500457763672 97.50041198730469 143.4372100830078 100.00019836425781 143.4372100830078 C102.49999237060547 143.4372100830078 104.68755340576172 141.24966430664062 104.68755340576172 138.74986267089844 L104.68755340576172 138.74986267089844 C104.68755340576172 136.2500762939453 102.49999237060547 134.06253051757812 100.00019836425781 134.06253051757812 Z"></path>
<path fill="#183651" fill-opacity="1.0"  filling="0" d="M119.06260681152344 134.06253051757812 C116.56242370605469 134.06253051757812 114.37525939941406 136.2500762939453 114.37525939941406 138.74986267089844 L114.37525939941406 138.74986267089844 C114.37525939941406 141.2500457763672 116.56282043457031 143.4372100830078 119.06260681152344 143.4372100830078 C121.56278991699219 143.4372100830078 123.74995422363281 141.24966430664062 123.74995422363281 138.74986267089844 L123.74995422363281 138.74986267089844 C123.74995422363281 136.2500762939453 121.56239318847656 134.06253051757812 119.06260681152344 134.06253051757812 Z"></path>
<path fill="#183651" fill-opacity="1.0"  filling="0" d="M50.62495040893555 92.50004577636719 C49.37485885620117 91.24995422363281 49.37485885620117 89.37501525878906 50.62495040893555 88.12492370605469 L82.18748474121094 56.56239318847656 C83.43757629394531 55.31230163574219 85.31251525878906 55.31230163574219 86.56260681152344 56.56239318847656 L115.62496185302734 85.62474060058594 L143.125 58.12470626831055 C144.37509155273438 56.874610900878906 146.25003051757812 56.874610900878906 147.50010681152344 58.12470626831055 C148.7501983642578 59.37479782104492 148.7501983642578 61.24973678588867 147.50010681152344 62.49982833862305 L117.81251525878906 92.18742370605469 C116.56242370605469 93.43751525878906 114.68749237060547 93.43751525878906 113.4374008178711 92.18742370605469 L84.37504577636719 63.12507247924805 L55.00007247924805 92.50004577636719 C54.06260299682617 93.43751525878906 51.87504196166992 93.43751525878906 50.62495040893555 92.50004577636719 Z"></path>
<path fill="#FBBD5E" fill-opacity="1.0"  filling="0" d="M125.9375228881836 89.99986267089844 A10.312561988830566 10.312561988830566 0.0 1 1 105.31239318847656 89.99986267089844 A10.312561988830566 10.312561988830566 0.0 1 1 125.9375228881836 89.99986267089844 Z"></path>
<path fill="#4FBF9F" fill-opacity="1.0"  filling="0" d="M63.12507247924805 89.99986267089844 A10.312561988830566 10.312561988830566 0.0 1 1 42.49995040893555 89.99986267089844 A10.312561988830566 10.312561988830566 0.0 1 1 63.12507247924805 89.99986267089844 Z"></path>
<path fill="#F06151" fill-opacity="1.0"  filling="0" d="M157.50006103515625 58.74995040893555 A10.312561988830566 10.312561988830566 0.0 1 1 136.87493896484375 58.74995040893555 A10.312561988830566 10.312561988830566 0.0 1 1 157.50006103515625 58.74995040893555 Z"></path>
<path fill="#E0E4E8" fill-opacity="1.0"  filling="0" d="M94.68761444091797 58.74995040893555 A10.312561988830566 10.312561988830566 0.0 1 1 74.06248474121094 58.74995040893555 A10.312561988830566 10.312561988830566 0.0 1 1 94.68761444091797 58.74995040893555 Z"></path>
<path fill="#183651" fill-opacity="1.0"  filling="0" d="M167.1873779296875 49.37485885620117 L173.43743896484375 49.37485885620117 L173.43743896484375 55.62491989135742 L167.1873779296875 55.62491989135742 L167.1873779296875 49.37485885620117 Z"></path>
<path fill="#183651" fill-opacity="1.0"  filling="0" d="M167.1873779296875 71.25007629394531 L173.43743896484375 71.25007629394531 L173.43743896484375 77.50013732910156 L167.1873779296875 77.50013732910156 L167.1873779296875 71.25007629394531 Z"></path>
<path fill="#183651" fill-opacity="1.0"  filling="0" d="M167.1873779296875 92.81267547607422 L173.43743896484375 92.81267547607422 L173.43743896484375 99.06273651123047 L167.1873779296875 99.06273651123047 L167.1873779296875 92.81267547607422 Z"></path>
<path fill="#183651" fill-opacity="1.0"  filling="0" d="M26.56256866455078 49.37485885620117 L32.81262969970703 49.37485885620117 L32.81262969970703 55.62491989135742 L26.56256866455078 55.62491989135742 L26.56256866455078 49.37485885620117 Z"></path>
<path fill="#183651" fill-opacity="1.0"  filling="0" d="M26.56256866455078 71.25007629394531 L32.81262969970703 71.25007629394531 L32.81262969970703 77.50013732910156 L26.56256866455078 77.50013732910156 L26.56256866455078 71.25007629394531 Z"></path>
<path fill="#183651" fill-opacity="1.0"  filling="0" d="M26.56256866455078 92.81267547607422 L32.81262969970703 92.81267547607422 L32.81262969970703 99.06273651123047 L26.56256866455078 99.06273651123047 L26.56256866455078 92.81267547607422 Z"></path></svg>