<svg xmlns="http://www.w3.org/2000/svg" viewBox="0.0 0.0 200.0 200.0" height="200.0px" width="200.0px"><path fill="#ccf8ff" fill-opacity="1.0"  filling="0" d="M46.31200408935547 107.23457336425781 L49.43231964111328 176.11441040039062 C49.952632904052734 187.6195068359375 59.43273162841797 196.68006896972656 70.95033264160156 196.68006896972656 L129.4691925048828 196.68006896972656 C140.98680114746094 196.68006896972656 150.46690368652344 187.6195068359375 150.98721313476562 176.11441040039062 L154.10791015625 107.23457336425781 C154.66456604003906 94.93260192871094 144.84266662597656 84.65602111816406 132.52857971191406 84.65602111816406 L67.89094543457031 84.65602111816406 C55.576866149902344 84.65602111816406 45.75497055053711 94.93260192871094 46.31200408935547 107.23457336425781 Z"></path>
<path fill="#9ff6ff" fill-opacity="1.0"  filling="0" d="M100.4652328491211 110.43888092041016 C117.43635559082031 104.90879821777344 131.58287048339844 92.79666137695312 138.89617919921875 85.61422729492188 C136.88522338867188 84.99468994140625 134.7489013671875 84.65602111816406 132.52857971191406 84.65602111816406 L67.89094543457031 84.65602111816406 C55.576866149902344 84.65602111816406 45.75497055053711 94.93416595458984 46.31200408935547 107.23457336425781 L49.43231964111328 176.11441040039062 C49.952632904052734 187.62106323242188 59.43273162841797 196.68006896972656 70.95033264160156 196.68006896972656 L91.54802703857422 196.68006896972656 C83.25817108154297 178.535888671875 82.32106018066406 152.03897094726562 82.97731018066406 133.81080627441406 C83.36168670654297 123.13578033447266 90.30896759033203 113.7482681274414 100.4652328491211 110.43888092041016 Z"></path>
<path fill="#ff809e" fill-opacity="1.0"  filling="0" d="M107.59728240966797 2.5390625 L92.82225036621094 2.5390625 C84.15660858154297 2.5390625 76.615966796875 8.485549926757812 74.619873046875 16.918777465820312 C71.39720916748047 30.543418884277344 67.26673126220703 52.28720474243164 66.96009063720703 75.22904968261719 C66.87024688720703 81.82554626464844 72.20306396484375 87.21930694580078 78.80074310302734 87.21930694580078 L121.620361328125 87.21930694580078 C128.21803283691406 87.21930694580078 133.5496826171875 81.82554626464844 133.46099853515625 75.22904968261719 C133.15280151367188 52.28720474243164 129.0238800048828 30.543418884277344 125.80122375488281 16.918777465820312 C123.80512237548828 8.485549926757812 116.26292419433594 2.5390625 107.59728240966797 2.5390625 Z"></path>
<path fill="#f46991" fill-opacity="1.0"  filling="0" d="M92.59490966796875 75.22904968261719 C92.90311431884766 52.28720474243164 97.03202056884766 30.543418884277344 100.25468444824219 16.918777465820312 C101.81718444824219 10.31329345703125 106.78399658203125 5.2335968017578125 113.02815246582031 3.3433609008789062 C111.3008041381836 2.819915771484375 109.47579956054688 2.5390625 107.59728240966797 2.5390625 L92.82225036621094 2.5390625 C84.15660858154297 2.5390625 76.61441040039062 8.485549926757812 74.619873046875 16.918777465820312 C71.39720916748047 30.543418884277344 67.26673126220703 52.28720474243164 66.95852661132812 75.22904968261719 C66.87024688720703 81.82554626464844 72.20306396484375 87.21930694580078 78.79956817626953 87.21930694580078 L104.43555450439453 87.21930694580078 C97.83788299560547 87.21930694580078 92.50466918945312 81.82554626464844 92.59490966796875 75.22904968261719 Z"></path>
<path fill="#ffbdcd" fill-opacity="1.0"  filling="0" d="M132.52857971191406 84.65602111816406 L67.89094543457031 84.65602111816406 C55.576866149902344 84.65602111816406 45.75497055053711 94.93260192871094 46.31200408935547 107.23457336425781 L48.80966567993164 162.3858642578125 L48.94247817993164 162.6514892578125 C48.94247817993164 162.6514892578125 62.96086502075195 181.6683349609375 100.2105484008789 181.6683349609375 C137.4590606689453 181.6683349609375 151.47705078125 162.6514892578125 151.47705078125 162.6514892578125 L151.60244750976562 162.55226135253906 L154.10791015625 107.23457336425781 C154.66456604003906 94.93260192871094 144.84266662597656 84.65602111816406 132.52857971191406 84.65602111816406 Z"></path>
<path fill="#ffa4ba" fill-opacity="1.0"  filling="0" d="M100.4652328491211 110.43888092041016 C117.43635559082031 104.90879821777344 131.58560180664062 92.7919692993164 138.90084838867188 85.60954284667969 C136.8883514404297 84.99000549316406 134.7489013671875 84.65602111816406 132.52857971191406 84.65602111816406 L67.89094543457031 84.65602111816406 C55.576866149902344 84.65602111816406 45.75497055053711 94.93260192871094 46.31200408935547 107.23457336425781 L48.80966567993164 162.3858642578125 L48.94247817993164 162.6514892578125 C48.94247817993164 162.6514892578125 59.44054412841797 176.88314819335938 86.3816146850586 180.72378540039062 C82.87496948242188 165.0120391845703 82.49645233154297 147.1819305419922 82.97731018066406 133.81080627441406 C83.36168670654297 123.13578033447266 90.30896759033203 113.7482681274414 100.4652328491211 110.43888092041016 Z"></path>
<path fill="" fill-opacity="1.0"  filling="0" d="M131.71530151367188 150.60926818847656 C133.33444213867188 150.60926818847656 134.64498901367188 149.29833984375 134.64498901367188 147.67958068847656 L134.64498901367188 142.81629943847656 C134.64498901367188 141.1990966796875 133.33444213867188 139.8865966796875 131.71530151367188 139.8865966796875 C130.0980987548828 139.8865966796875 128.7855987548828 141.1990966796875 128.7855987548828 142.81629943847656 L128.7855987548828 147.67958068847656 C128.7855987548828 149.29833984375 130.0980987548828 150.60926818847656 131.71530151367188 150.60926818847656 Z"></path>
<path fill="" fill-opacity="1.0"  filling="0" d="M71.63236236572266 147.67958068847656 L71.63236236572266 142.81629943847656 C71.63236236572266 141.1990966796875 70.32142639160156 139.8865966796875 68.70266723632812 139.8865966796875 C67.08509063720703 139.8865966796875 65.77297973632812 141.1990966796875 65.77297973632812 142.81629943847656 L65.77297973632812 147.67958068847656 C65.77297973632812 149.29833984375 67.08509063720703 150.60926818847656 68.70266723632812 150.60926818847656 C70.32142639160156 150.60926818847656 71.63236236572266 149.29833984375 71.63236236572266 147.67958068847656 Z"></path>
<path fill="" fill-opacity="1.0"  filling="0" d="M89.46208953857422 149.99560546875 C92.62693786621094 152.45068359375 96.41874694824219 153.67764282226562 100.2105484008789 153.67764282226562 C104.00079345703125 153.67764282226562 107.79259490966797 152.45068359375 110.95744323730469 149.99560546875 C112.2359619140625 149.00381469726562 112.4679946899414 147.16357421875 111.4761962890625 145.88504028320312 C110.48595428466797 144.60614013671875 108.64415740966797 144.37449645996094 107.36680603027344 145.36630249023438 C103.15235137939453 148.63465881347656 97.26718139648438 148.63465881347656 93.05428314208984 145.36630249023438 C91.77537536621094 144.37449645996094 89.93357849121094 144.60614013671875 88.9433364868164 145.88504028320312 C87.9515380859375 147.16357421875 88.1835708618164 149.00381469726562 89.46208953857422 149.99560546875 Z"></path>
<path fill="" fill-opacity="1.0"  filling="0" d="M150.26260375976562 89.3083724975586 C146.14111328125 84.99625396728516 140.75633239746094 82.39625549316406 134.90164184570312 81.84077453613281 C135.89772033691406 79.79585266113281 136.42117309570312 77.527099609375 136.3907012939453 75.18920135498047 C136.27468872070312 66.5802001953125 135.6141357421875 57.44190216064453 134.4254608154297 48.027042388916016 C134.2223358154297 46.421958923339844 132.7547607421875 45.28679656982422 131.15240478515625 45.48797607421875 C129.54733276367188 45.691097259521484 128.40904235839844 47.15594482421875 128.6117706298828 48.76102828979492 C129.77310180664062 57.95909118652344 130.41842651367188 66.87786102294922 130.53131103515625 75.267333984375 C130.56333923339844 77.7071762084961 129.60044860839844 80.02632141113281 127.87193298339844 81.72632598876953 L72.54798889160156 81.72632598876953 C70.81752014160156 80.02632141113281 69.85618591308594 77.7161636352539 69.88822174072266 75.267333984375 C70.18900299072266 52.81845474243164 74.17768096923828 31.514114379882812 77.47026824951172 17.5933837890625 C79.15933227539062 10.455482482910156 85.47223663330078 5.46875 92.82225036621094 5.46875 L107.59728240966797 5.46875 C114.94768524169922 5.46875 121.26019287109375 10.45391845703125 122.94926452636719 17.5933837890625 C124.382080078125 23.651206970214844 125.643798828125 29.838722229003906 126.70278930664062 35.984832763671875 C126.9773941040039 37.57936477661133 128.4926300048828 38.64889907836914 130.08717346191406 38.375850677490234 C131.68170166015625 38.10124206542969 132.75161743164062 36.586002349853516 132.47702026367188 34.99147033691406 C131.39810180664062 28.726219177246094 130.11178588867188 22.41839599609375 128.65005493164062 16.244552612304688 C126.33364868164062 6.450004577636719 117.67581176757812 -0.39063262939453125 107.59728240966797 -0.39063262939453125 L92.82225036621094 -0.39063262939453125 C82.74371337890625 -0.39063262939453125 74.08589172363281 6.450004577636719 71.76830291748047 16.244552612304688 C68.40814208984375 30.45044708251953 64.3386001586914 52.20790481567383 64.02883911132812 75.18920135498047 C63.996803283691406 77.532958984375 64.5186767578125 79.800537109375 65.51203918457031 81.84234619140625 C59.66007614135742 82.39781188964844 54.27686309814453 84.99781799316406 50.15693283081055 89.3083724975586 C45.48348617553711 94.19744873046875 43.07840347290039 100.6103515625 43.385040283203125 107.36700439453125 L46.5057487487793 176.246826171875 C47.099117279052734 189.3468475341797 57.8354606628418 199.60977172851562 70.95033264160156 199.60977172851562 L129.4691925048828 199.60977172851562 C142.5828857421875 199.60977172851562 153.3219757080078 189.3468475341797 153.91416931152344 176.246826171875 L157.03448486328125 107.36700439453125 C157.34112548828125 100.6103515625 154.93643188476562 94.19744873046875 150.26260375976562 89.3083724975586 Z M129.4691925048828 193.7503662109375 L70.95033264160156 193.7503662109375 C60.975704193115234 193.7503662109375 52.80889129638672 185.9456787109375 52.358890533447266 175.98159790039062 L52.07958984375 169.8292236328125 C54.30577087402344 171.64797973632812 57.372962951660156 173.51126098632812 60.98937225341797 175.72964477539062 C62.48625183105469 176.64837646484375 64.4288330078125 175.5190887451172 64.95657348632812 174.53509521484375 C65.72258758544922 173.10971069335938 65.18704223632812 171.33352661132812 63.760475158691406 170.56752014160156 C56.69561767578125 166.77415466308594 52.87178039550781 162.75344848632812 51.696781158447266 161.39405822753906 L49.23856735229492 107.10176086425781 C49.00497817993164 101.95956420898438 50.83623123168945 97.07830810546875 54.392879486083984 93.35643005371094 C57.94991683959961 89.63493347167969 62.74250411987305 87.58570861816406 67.89094543457031 87.58570861816406 L132.52857971191406 87.58570861816406 C137.67547607421875 87.58570861816406 142.47000122070312 89.63493347167969 146.0266571044922 93.35643005371094 C149.58367919921875 97.07830810546875 151.41299438476562 101.95956420898438 151.18096923828125 107.10176086425781 L148.72157287597656 161.39874267578125 C146.26611328125 164.25656127929688 132.2418670654297 178.73863220214844 100.208984375 178.73863220214844 C90.57615661621094 178.73863220214844 81.68473052978516 177.42495727539062 73.783935546875 174.830810546875 C72.24565124511719 174.3257293701172 70.59173583984375 175.1636199951172 70.08665466308594 176.70034790039062 C69.58158111572266 178.2382354736328 70.41908264160156 179.89370727539062 71.95580291748047 180.39723205566406 C80.44879150390625 183.18511962890625 89.9534912109375 184.5980224609375 100.208984375 184.5980224609375 C125.93403625488281 184.5980224609375 141.0203857421875 175.850341796875 148.33837890625 169.85813903808594 L148.06063842773438 175.98159790039062 C147.6106414794922 185.9456787109375 139.4442138671875 193.7503662109375 129.4691925048828 193.7503662109375 Z"></path></svg>