<svg xmlns="http://www.w3.org/2000/svg" viewBox="0.0 0.0 200.0 200.0" height="200.0px" width="200.0px"><path fill="url(#a)" fill-opacity="1.0"  filling="0" d="M50.11562728881836 113.6265640258789 A9.0625 9.0625 0.0 1 0 59.17812728881836 122.68907165527344 A9.073437690734863 9.073437690734863 0.0 0 0 50.11562728881836 113.6265640258789 Z M50.11562728881836 126.28280639648438 A3.59375 3.59375 0.0 1 1 53.70937728881836 122.68907165527344 A3.59375 3.59375 0.0 0 1 50.11562728881836 126.28280639648438 Z M149.88438415527344 113.6265640258789 A9.0625 9.0625 0.0 1 0 158.94686889648438 122.68907165527344 A9.07187557220459 9.07187557220459 0.0 0 0 149.88438415527344 113.6265640258789 Z M149.88438415527344 126.28280639648438 A3.59375 3.59375 0.0 1 1 153.47811889648438 122.68907165527344 A3.59375 3.59375 0.0 0 1 149.88438415527344 126.28280639648438 Z M119.07344055175781 119.95625305175781 L68.80937194824219 119.95625305175781 A18.889062881469727 18.889062881469727 0.0 0 0 31.421875 119.95625305175781 L13.671875 119.95625305175781 L13.671875 114.58125305175781 L18.817184448242188 114.58125305175781 A5.8671875 5.8671875 0.0 0 0 24.676559448242188 108.72187805175781 L24.676559448242188 103.7093734741211 A5.8671875 5.8671875 0.0 0 0 18.817184448242188 97.8499984741211 L13.671875 97.8499984741211 L13.671875 95.2828140258789 A3.5218749046325684 3.5218749046325684 0.0 0 1 16.765625 91.79219055175781 L34.265625 89.6796875 A2.739062547683716 2.739062547683716 0.0 0 0 36.453128814697266 88.04374694824219 L45.103118896484375 67.88750457763672 A6.635937690734863 6.635937690734863 0.0 0 1 51.20624923706055 63.86562728881836 L58.921875 63.86562728881836 A2.734375 2.734375 0.0 0 0 58.921875 58.39687728881836 L51.20156478881836 58.39687728881836 A12.1015625 12.1015625 0.0 0 0 40.071876525878906 65.72969055175781 L32.04374694824219 84.4390640258789 L16.106246948242188 86.36250305175781 A8.993749618530273 8.993749618530273 0.0 0 0 8.200004577636719 95.2828140258789 L8.200004577636719 122.69062805175781 A2.734375 2.734375 0.0 0 0 10.9375 125.42500305175781 L31.421875 125.42500305175781 A18.889062881469727 18.889062881469727 0.0 0 0 68.80937194824219 125.42500305175781 L119.07344055175781 125.42500305175781 A2.734375 2.734375 0.0 0 0 119.07344055175781 119.95625305175781 Z M18.817184448242188 103.3187484741211 A0.390625 0.390625 0.0 0 1 19.207809448242188 103.7093734741211 L19.207809448242188 108.72187805175781 A0.390625 0.390625 0.0 0 1 18.817184448242188 109.11250305175781 L13.671875 109.11250305175781 L13.671875 103.3187484741211 L18.817184448242188 103.3187484741211 Z M50.11562728881836 136.13125610351562 A13.446874618530273 13.446874618530273 0.0 1 1 63.5625 122.69375610351562 A13.4609375 13.4609375 0.0 0 1 50.11562728881836 136.1359405517578 L50.11562728881836 136.13125610351562 Z M183.88906860351562 86.3578109741211 L167.4343719482422 84.375 L149.3359375 63.61874771118164 A15.221874237060547 15.221874237060547 0.0 0 0 137.85467529296875 58.39531326293945 L95.46875 58.39531326293945 A2.734375 2.734375 0.0 0 0 95.46875 63.86406326293945 L137.85467529296875 63.86406326293945 A9.74843692779541 9.74843692779541 0.0 0 1 145.21249389648438 67.21249389648438 L164.00311279296875 88.76249694824219 A2.7406249046325684 2.7406249046325684 0.0 0 0 165.73593139648438 89.6796875 L183.23594665527344 91.79219055175781 A3.5218749046325684 3.5218749046325684 0.0 0 1 186.33123779296875 95.2828140258789 L186.33123779296875 97.8499984741211 L181.18594360351562 97.8499984741211 A5.8671875 5.8671875 0.0 0 0 175.32656860351562 103.7093734741211 L175.32656860351562 108.72187805175781 A5.8671875 5.8671875 0.0 0 0 181.18594360351562 114.58125305175781 L186.33123779296875 114.58125305175781 L186.33123779296875 119.95625305175781 L168.578125 119.95625305175781 A18.9140625 18.9140625 0.0 1 0 168.578125 125.42500305175781 L189.0625 125.42500305175781 A2.734375 2.734375 0.0 0 0 191.796875 122.69062805175781 L191.796875 95.2828140258789 A8.993749618530273 8.993749618530273 0.0 0 0 183.88906860351562 86.36250305175781 L183.88906860351562 86.3578109741211 Z M149.88438415527344 136.1359405517578 A13.446874618530273 13.446874618530273 0.0 1 1 163.32968139648438 122.69844055175781 A13.4609375 13.4609375 0.0 0 1 149.88438415527344 136.1359405517578 Z M181.1828155517578 109.10469055175781 A0.390625 0.390625 0.0 0 1 180.7921905517578 108.71406555175781 L180.7921905517578 103.7093734741211 A0.390625 0.390625 0.0 0 1 181.1828155517578 103.3187484741211 L186.328125 103.3187484741211 L186.328125 109.11250305175781 L181.1828155517578 109.10469055175781 Z M70.625 61.12968826293945 A2.7328124046325684 2.7328124046325684 0.0 0 1 73.359375 58.39531326293945 L80.390625 58.39531326293945 A2.734375 2.734375 0.0 0 1 80.390625 63.86406326293945 L73.359375 63.86406326293945 A2.7328124046325684 2.7328124046325684 0.0 0 1 70.625 61.12968826293945 Z M51.718746185302734 68.5531234741211 A2.7359375953674316 2.7359375953674316 0.0 0 0 49.204681396484375 70.2093734741211 L42.485939025878906 85.88593292236328 A2.734375 2.734375 0.0 0 0 44.998435974121094 89.69844055175781 L152.58905029296875 89.69844055175781 A2.734375 2.734375 0.0 0 0 154.65155029296875 85.16719055175781 L140.97967529296875 69.4906234741211 A2.7359375953674316 2.7359375953674316 0.0 0 0 138.9187469482422 68.5531234741211 L51.718746185302734 68.5531234741211 Z M53.52030944824219 74.0218734741211 L78.125 74.0218734741211 L78.125 84.22969055175781 L49.13593673706055 84.22969055175781 L53.52030944824219 74.0218734741211 Z M83.5921859741211 74.0218734741211 L113.98750305175781 74.0218734741211 L113.98750305175781 84.22969055175781 L83.59375 84.22969055175781 L83.5921859741211 74.0218734741211 Z M146.578125 84.22969055175781 L119.45625305175781 84.22969055175781 L119.45625305175781 74.0218734741211 L137.6750030517578 74.0218734741211 L146.578125 84.22969055175781 Z"></path></svg>