<svg xmlns="http://www.w3.org/2000/svg" viewBox="0.0 0.0 200.0 200.0" height="200.0px" width="200.0px"><path fill="#faef93" fill-opacity="1.0"  filling="0" d="M100.0 4.044136047363281 C62.82929611206055 4.044136047363281 32.69609069824219 34.17694854736328 32.69609069824219 71.3480453491211 C32.69609069824219 124.0824203491211 100.0 195.95587158203125 100.0 195.95587158203125 L122.9222640991211 168.06719970703125 C142.47421264648438 142.4718780517578 167.3039093017578 103.6683578491211 167.3039093017578 71.3480453491211 C167.3039093017578 34.17694854736328 137.17071533203125 4.044136047363281 100.0 4.044136047363281 Z"></path>
<path fill="#f6e23d" fill-opacity="1.0"  filling="0" d="M41.111328125 67.794921875 C41.111328125 41.525386810302734 56.16328048706055 18.774215698242188 78.111328125 7.686714172363281 C51.68671417236328 16.770706176757812 32.69609069824219 41.840232849121094 32.69609069824219 71.3480453491211 C32.69609069824219 124.0824203491211 100.0 195.95587158203125 100.0 195.95587158203125 L105.53358459472656 189.2234344482422 C92.66914367675781 174.76718139648438 41.111328125 113.95039367675781 41.111328125 67.794921875 Z"></path>
<path fill="#fff" fill-opacity="1.0"  filling="0" d="M73.4281234741211 147.73086547851562 L71.7515640258789 145.25 L70.16484069824219 142.78750610351562 L75.0902328491211 139.61367797851562 L76.65975952148438 142.04922485351562 L78.28202819824219 144.44960021972656 L73.4281234741211 147.73086547851562 Z"></path>
<path fill="#fff" fill-opacity="1.0"  filling="0" d="M63.904685974121094 132.78085327148438 L68.90859985351562 129.73397827148438 L71.9554672241211 134.73788452148438 L66.9515609741211 137.78475952148438 L63.904685974121094 132.78085327148438 Z"></path>
<path fill="#d15573" fill-opacity="1.0"  filling="0" d="M135.1730499267578 36.568748474121094 C130.83242797851562 32.197265625 125.8726577758789 28.822265625 120.57499694824219 26.4296875 L120.60311889648438 117.0238265991211 C125.88319396972656 114.623046875 130.82969665527344 111.25117492675781 135.1730499267578 106.908203125 C154.5988311767578 87.4847640991211 154.5988311767578 55.99258041381836 135.1730499267578 36.568748474121094 Z"></path>
<path fill="#c21d44" fill-opacity="1.0"  filling="0" d="M128.95428466796875 31.267967224121094 C126.29413604736328 29.357818603515625 123.48593139648438 27.744529724121094 120.57499694824219 26.4296875 L120.60311889648438 117.0238265991211 C123.51171875 115.701171875 126.318359375 114.0824203491211 128.97930908203125 112.17070770263672 L128.95428466796875 31.267967224121094 Z"></path>
<path fill="#7bdaa9" fill-opacity="1.0"  filling="0" d="M64.82695007324219 36.568748474121094 C45.40116882324219 55.99258041381836 45.40116882324219 87.4847640991211 64.82695007324219 106.9085922241211 C69.17147827148438 111.25273895263672 74.23124694824219 114.625 79.51288604736328 117.02617645263672 L79.51288604736328 26.40741729736328 C74.14961242675781 28.813278198242188 69.1546859741211 32.205078125 64.82695007324219 36.568748474121094 Z"></path>
<path fill="#39c17b" fill-opacity="1.0"  filling="0" d="M70.58633422851562 101.14921569824219 C52.11602020263672 82.68085479736328 51.209373474121094 53.30234146118164 67.86328125 33.76094055175781 C66.8199234008789 34.648048400878906 65.80546569824219 35.582420349121094 64.82695007324219 36.56914138793945 C45.40116882324219 55.99296569824219 45.40116882324219 87.48516082763672 64.82695007324219 106.90898895263672 C69.17147827148438 111.25312805175781 74.23124694824219 114.62539672851562 79.51288604736328 117.02656555175781 L79.51288604736328 108.19375610351562 C76.33633422851562 106.22969055175781 73.31953430175781 103.88202667236328 70.58633422851562 101.14921569824219 Z"></path>
<path fill="#e5ecf5" fill-opacity="1.0"  filling="0" d="M120.57499694824219 26.4296875 C107.53711700439453 20.541015625 92.45233917236328 20.603515625 79.51288604736328 26.40741729736328 L79.51288604736328 117.02617645263672 C92.56758117675781 122.96054077148438 107.54883575439453 122.95977020263672 120.60311889648438 117.02421569824219 L120.57499694824219 26.4296875 Z"></path>
<path fill="#cad8eb" fill-opacity="1.0"  filling="0" d="M88.18984985351562 111.19609069824219 L88.18984985351562 23.444923400878906 C85.22538757324219 24.16132354736328 82.3187484741211 25.148826599121094 79.51288604736328 26.40741729736328 L79.51288604736328 117.02617645263672 C92.56758117675781 122.96054077148438 107.54883575439453 122.95977020263672 120.60311889648438 117.02421569824219 L120.60234069824219 114.205078125 C109.85234069824219 116.85234069824219 98.42852020263672 115.85038757324219 88.18984985351562 111.19609069824219 Z"></path>
<path fill="#fff" fill-opacity="1.0"  filling="0" d="M88.30194854736328 36.191795349121094 L94.16132354736328 36.191795349121094 L94.16132354736328 42.051170349121094 L88.30194854736328 42.051170349121094 L88.30194854736328 36.191795349121094 Z"></path>
<path fill="#fff" fill-opacity="1.0"  filling="0" d="M88.30194854736328 47.910545349121094 L94.16132354736328 47.910545349121094 L94.16132354736328 53.769920349121094 L88.30194854736328 53.769920349121094 L88.30194854736328 47.910545349121094 Z"></path>
<path fill="" fill-opacity="1.0"  filling="0" d="M113.4937515258789 175.38436889648438 L118.08399200439453 179.0859375 C119.302734375 177.57501220703125 120.52265167236328 176.04139709472656 121.7105484008789 174.52772521972656 L117.07109069824219 170.8874969482422 C115.89961242675781 172.38046264648438 114.6957015991211 173.8933563232422 113.4937515258789 175.38436889648438 Z"></path>
<path fill="" fill-opacity="1.0"  filling="0" d="M100.0 0.0 C61.02461242675781 0.0 29.315628051757812 31.708595275878906 29.315628051757812 70.68437194824219 C29.315628051757812 93.302734375 40.885154724121094 121.59140014648438 63.70273208618164 154.7648468017578 C82.98983764648438 182.37850952148438 96.48515319824219 196.12890625 100.0 200.0 C103.76640319824219 195.9406280517578 104.57733917236328 195.3386688232422 114.06171417236328 184.0625 L109.52616882324219 180.29452514648438 C105.40351867675781 185.25701904296875 102.041015625 189.06640625 100.00116729736328 191.32968139648438 C94.93047332763672 185.69647216796875 81.6488265991211 170.45977783203125 68.5152359008789 151.35586547851562 C46.728515625 119.66561889648438 35.21288299560547 91.7699203491211 35.21288299560547 70.68437194824219 C35.21288299560547 34.960540771484375 64.27656555175781 5.896873474121094 100.00039672851562 5.896873474121094 C135.72422790527344 5.896873474121094 164.7878875732422 34.96015930175781 164.7878875732422 70.68437194824219 C164.7878875732422 101.98554992675781 140.8273468017578 139.921875 120.72695922851562 166.234375 L125.41289520263672 169.81405639648438 C146.0656280517578 142.7781219482422 170.6847686767578 103.63398742675781 170.6847686767578 70.68437194824219 C170.6843719482422 31.708595275878906 138.97540283203125 0.0 100.0 0.0 Z"></path>
<path fill="" fill-opacity="1.0"  filling="0" d="M137.48085021972656 108.56132507324219 C158.1472625732422 87.892578125 158.1472625732422 54.26250076293945 137.48085021972656 33.59375 C127.46952819824219 23.581642150878906 114.158203125 18.06757354736328 100.0 18.06757354736328 C85.841796875 18.06757354736328 72.5308609008789 23.581642150878906 62.51953125 33.594146728515625 C50.50703430175781 45.607810974121094 44.95937728881836 62.80586242675781 47.68008041381836 79.59843444824219 L53.50117111206055 78.65507507324219 C51.08281326293945 63.72773742675781 56.01289367675781 48.441410064697266 66.6898422241211 37.763671875 C69.63594055175781 34.81719207763672 72.90507507324219 32.312103271484375 76.41523742675781 30.275001525878906 L76.41523742675781 111.8804702758789 C72.90507507324219 109.8433609008789 69.63594055175781 107.33828735351562 66.6898422241211 104.39179992675781 C61.215232849121094 98.91680145263672 57.144142150878906 92.13359069824219 54.916404724121094 84.77460479736328 L49.27226257324219 86.48358917236328 C51.78046798706055 94.7679672241211 56.36093521118164 102.4027328491211 62.51953125 108.56172180175781 C72.5308609008789 118.57383728027344 85.841796875 124.08827209472656 100.0 124.08827209472656 C114.158203125 124.087890625 127.46952819824219 118.57383728027344 137.48085021972656 108.56132507324219 Z M133.310546875 104.39179992675781 C130.39218139648438 107.310546875 127.1566390991211 109.79609680175781 123.68437194824219 111.8226547241211 L123.68437194824219 30.33281707763672 C127.1566390991211 32.359375 130.39218139648438 34.84492492675781 133.310546875 37.763671875 C151.6785125732422 56.13320541381836 151.6785125732422 86.02226257324219 133.310546875 104.39179992675781 Z M82.31210327148438 27.387496948242188 C87.857421875 25.142967224121094 93.837890625 23.964454650878906 100.0 23.964454650878906 C106.19921875 23.964454650878906 112.21446228027344 25.15625 117.787109375 27.427337646484375 L117.787109375 114.7281265258789 C112.21406555175781 116.99922180175781 106.19882202148438 118.1910171508789 100.0 118.1910171508789 C93.8375015258789 118.1910171508789 87.8570327758789 117.01289367675781 82.31210327148438 114.7679672241211 L82.31210327148438 27.387496948242188 Z"></path></svg>