<svg xmlns="http://www.w3.org/2000/svg" viewBox="0.0 0.0 200.0 200.0" height="200.0px" width="200.0px"><path fill="#ffeb99" fill-opacity="1.0"  filling="0" d="M131.82533264160156 178.71841430664062 L28.674354553222656 178.71841430664062 C19.633743286132812 178.71841430664062 12.304855346679688 171.3895263671875 12.304855346679688 162.34695434570312 L12.304855346679688 26.568695068359375 C12.304855346679688 17.52770233154297 19.633743286132812 10.198806762695312 28.674354553222656 10.198806762695312 L131.82533264160156 10.198806762695312 C140.86593627929688 10.198806762695312 148.19482421875 17.52770233154297 148.19482421875 26.568695068359375 L148.19482421875 162.34695434570312 C148.19482421875 171.3895263671875 140.86593627929688 178.71841430664062 131.82533264160156 178.71841430664062 Z"></path>
<path fill="#ffde55" fill-opacity="1.0"  filling="0" d="M131.82533264160156 178.71841430664062 C140.86593627929688 178.71841430664062 148.19482421875 171.3895263671875 148.19482421875 162.34695434570312 L148.19482421875 57.7147331237793 L96.87344360351562 57.7147331237793 C78.54301452636719 57.7147331237793 63.19889831542969 71.67057037353516 61.53718566894531 89.9244384765625 C59.01960754394531 117.58258819580078 52.15321731567383 156.41297912597656 33.570831298828125 178.71841430664062 L131.82533264160156 178.71841430664062 Z"></path>
<path fill="#abebf4" fill-opacity="1.0"  filling="0" d="M37.023948669433594 164.2696075439453 C31.350914001464844 164.2696075439453 26.753265380859375 159.67079162597656 26.753265380859375 153.99893188476562 L26.753265380859375 34.91828918457031 C26.753265380859375 29.246429443359375 31.350914001464844 24.647605895996094 37.023948669433594 24.647605895996094 L123.4757308959961 24.647605895996094 C129.147216796875 24.647605895996094 133.7464141845703 29.246429443359375 133.7464141845703 34.91985321044922 L133.7464141845703 153.99893188476562 C133.7464141845703 159.67079162597656 129.14877319335938 164.2696075439453 123.4757308959961 164.2696075439453 L37.023948669433594 164.2696075439453 Z"></path>
<path fill="#8ed7e8" fill-opacity="1.0"  filling="0" d="M43.014564514160156 164.2696075439453 L123.4757308959961 164.2696075439453 C129.147216796875 164.2696075439453 133.7464141845703 159.67079162597656 133.7464141845703 153.99893188476562 L133.7464141845703 57.7147331237793 L96.87344360351562 57.7147331237793 C78.54301452636719 57.7147331237793 63.19889831542969 71.67057037353516 61.53718566894531 89.9244384765625 C59.50164031982422 112.28298950195312 54.625083923339844 141.9415283203125 43.014564514160156 164.2696075439453 Z"></path>
<path fill="#b2e59c" fill-opacity="1.0"  filling="0" d="M97.00625610351562 35.40813446044922 L63.49342727661133 35.40813446044922 C59.13718795776367 35.40813446044922 55.60477066040039 31.875717163085938 55.60477066040039 27.519088745117188 L55.60477066040039 10.818344116210938 C55.60477066040039 6.46209716796875 59.13718795776367 2.9296798706054688 63.49342727661133 2.9296798706054688 L97.00625610351562 2.9296798706054688 C101.36250305175781 2.9296798706054688 104.89491271972656 6.46209716796875 104.89491271972656 10.818344116210938 L104.89491271972656 27.519088745117188 C104.89491271972656 31.875717163085938 101.36250305175781 35.40813446044922 97.00625610351562 35.40813446044922 Z"></path>
<path fill="#ccf8ff" fill-opacity="1.0"  filling="0" d="M173.511962890625 197.0699462890625 L100.15702819824219 197.0699462890625 C92.16017150878906 197.0699462890625 85.6797103881836 190.58792114257812 85.6797103881836 182.59262084960938 L85.6797103881836 87.31077575683594 C85.6797103881836 79.31507873535156 92.16017150878906 72.83306884765625 100.15702819824219 72.83306884765625 L173.511962890625 72.83306884765625 C181.50765991210938 72.83306884765625 187.98968505859375 79.31507873535156 187.98968505859375 87.31077575683594 L187.98968505859375 182.59262084960938 C187.98968505859375 190.58792114257812 181.50765991210938 197.0699462890625 173.511962890625 197.0699462890625 Z"></path>
<path fill="#c6c5ca" fill-opacity="1.0"  filling="0" d="M164.23464965820312 102.58145141601562 L109.43435668945312 102.58145141601562 C106.19803619384766 102.58145141601562 103.57498931884766 99.95879364013672 103.57498931884766 96.72207641601562 C103.57498931884766 93.48731994628906 106.19803619384766 90.86271667480469 109.43435668945312 90.86271667480469 L164.23464965820312 90.86271667480469 C167.46978759765625 90.86271667480469 170.09400939941406 93.48731994628906 170.09400939941406 96.72207641601562 C170.09400939941406 99.95879364013672 167.46978759765625 102.58145141601562 164.23464965820312 102.58145141601562 Z"></path>
<path fill="#c6c5ca" fill-opacity="1.0"  filling="0" d="M164.23464965820312 128.068115234375 L109.43435668945312 128.068115234375 C106.19803619384766 128.068115234375 103.57498931884766 125.44546508789062 103.57498931884766 122.20875549316406 C103.57498931884766 118.9724349975586 106.19803619384766 116.34939575195312 109.43435668945312 116.34939575195312 L164.23464965820312 116.34939575195312 C167.46978759765625 116.34939575195312 170.09400939941406 118.9724349975586 170.09400939941406 122.20875549316406 C170.09400939941406 125.44546508789062 167.46978759765625 128.068115234375 164.23464965820312 128.068115234375 Z"></path>
<path fill="#c6c5ca" fill-opacity="1.0"  filling="0" d="M164.23464965820312 153.55361938476562 L109.43435668945312 153.55361938476562 C106.19803619384766 153.55361938476562 103.57498931884766 150.93057250976562 103.57498931884766 147.69424438476562 C103.57498931884766 144.4591064453125 106.19803619384766 141.8348846435547 109.43435668945312 141.8348846435547 L164.23464965820312 141.8348846435547 C167.46978759765625 141.8348846435547 170.09400939941406 144.4591064453125 170.09400939941406 147.69424438476562 C170.09400939941406 150.93057250976562 167.46978759765625 153.55361938476562 164.23464965820312 153.55361938476562 Z"></path>
<path fill="#c6c5ca" fill-opacity="1.0"  filling="0" d="M136.83468627929688 179.040283203125 L109.43435668945312 179.040283203125 C106.19803619384766 179.040283203125 103.57498931884766 176.41567993164062 103.57498931884766 173.180908203125 C103.57498931884766 169.94459533691406 106.19803619384766 167.32156372070312 109.43435668945312 167.32156372070312 L136.83468627929688 167.32156372070312 C140.0694580078125 167.32156372070312 142.69406127929688 169.94459533691406 142.69406127929688 173.180908203125 C142.69406127929688 176.41567993164062 140.0694580078125 179.040283203125 136.83468627929688 179.040283203125 Z"></path>
<path fill="#9ad880" fill-opacity="1.0"  filling="0" d="M97.00625610351562 35.40813446044922 C101.36250305175781 35.40813446044922 104.89491271972656 31.875717163085938 104.89491271972656 27.519088745117188 L104.89491271972656 10.818344116210938 C104.89491271972656 6.46209716796875 101.36250305175781 2.9296798706054688 97.00625610351562 2.9296798706054688 L88.46446990966797 2.9296798706054688 C88.29962921142578 10.305839538574219 86.64689636230469 25.171043395996094 76.80824279785156 35.40813446044922 L97.00625610351562 35.40813446044922 Z"></path>
<path fill="" fill-opacity="1.0"  filling="0" d="M173.511962890625 69.90338134765625 L151.12451171875 69.90338134765625 L151.12451171875 26.57025909423828 C151.12451171875 15.926918029785156 142.46670532226562 7.269126892089844 131.82533264160156 7.269126892089844 L107.22342681884766 7.269126892089844 C105.75115966796875 3.042572021484375 101.72734069824219 0.0 97.00625610351562 0.0 L63.49342727661133 0.0 C57.52859878540039 0.0 52.67509078979492 4.8538970947265625 52.67509078979492 10.818344116210938 L52.67509078979492 21.717926025390625 L37.023948669433594 21.717926025390625 C29.745445251464844 21.717926025390625 23.823585510253906 27.639785766601562 23.823585510253906 34.91828918457031 L23.823585510253906 153.99893188476562 C23.823585510253906 161.27743530273438 29.745445251464844 167.1992950439453 37.023948669433594 167.1992950439453 L82.75003051757812 167.1992950439453 L82.75003051757812 175.78872680664062 L28.674354553222656 175.78872680664062 C21.26343536376953 175.78872680664062 15.234535217285156 169.75982666015625 15.234535217285156 162.34852600097656 L15.234535217285156 26.57025909423828 C15.234535217285156 19.15894317626953 21.26343536376953 13.128494262695312 28.674354553222656 13.128494262695312 L43.467689514160156 13.128494262695312 C45.086822509765625 13.128494262695312 46.397369384765625 11.817947387695312 46.397369384765625 10.198806762695312 C46.397369384765625 8.581619262695312 45.086822509765625 7.269126892089844 43.467689514160156 7.269126892089844 L28.674354553222656 7.269126892089844 C18.03296661376953 7.269126892089844 9.375175476074219 15.926918029785156 9.375175476074219 26.57025909423828 L9.375175476074219 162.34852600097656 C9.375175476074219 172.98989868164062 18.03296661376953 181.64808654785156 28.674354553222656 181.64808654785156 L82.75003051757812 181.64808654785156 C82.75003051757812 181.64808654785156 81.64847564697266 199.99961853027344 100.15546417236328 199.99961853027344 L173.511962890625 199.99961853027344 C183.1099853515625 199.99961853027344 190.91778564453125 192.1918182373047 190.91778564453125 182.5937957763672 L190.91778564453125 87.31077575683594 C190.9193572998047 77.7127456665039 183.1099853515625 69.90338134765625 173.511962890625 69.90338134765625 Z M58.534454345703125 10.818344116210938 C58.534454345703125 8.083969116210938 60.75905990600586 5.859367370605469 63.49342727661133 5.859367370605469 L97.00625610351562 5.859367370605469 C99.7406234741211 5.859367370605469 101.9652328491211 8.083969116210938 101.9652328491211 10.818344116210938 L101.9652328491211 27.519088745117188 C101.9652328491211 30.253456115722656 99.7406234741211 32.47844696044922 97.00625610351562 32.47844696044922 L63.49342727661133 32.47844696044922 C60.75905990600586 32.47844696044922 58.534454345703125 30.253456115722656 58.534454345703125 27.519088745117188 L58.534454345703125 10.818344116210938 Z M37.023948669433594 161.33993530273438 C32.97590637207031 161.33993530273438 29.682952880859375 158.04734802246094 29.682952880859375 153.99737548828125 L29.682952880859375 34.91828918457031 C29.682952880859375 30.86986541748047 32.97590637207031 27.577285766601562 37.023948669433594 27.577285766601562 L52.67665100097656 27.577285766601562 C52.708683013916016 33.515953063964844 57.548519134521484 38.33781433105469 63.49342727661133 38.33781433105469 L97.00625610351562 38.33781433105469 C102.95116424560547 38.33781433105469 107.79100036621094 33.515953063964844 107.82302856445312 27.577285766601562 L123.4757308959961 27.577285766601562 C127.52377319335938 27.577285766601562 130.81674194335938 30.871429443359375 130.81674194335938 34.91985321044922 L130.81674194335938 60.11511993408203 C130.81674194335938 61.73230743408203 132.12884521484375 63.044803619384766 133.7464141845703 63.044803619384766 C135.36517333984375 63.044803619384766 136.6761016845703 61.73230743408203 136.6761016845703 60.11511993408203 L136.6761016845703 34.91985321044922 C136.6761016845703 27.639785766601562 130.75384521484375 21.717926025390625 123.4757308959961 21.717926025390625 L107.82460021972656 21.717926025390625 L107.82460021972656 13.128494262695312 L131.82533264160156 13.128494262695312 C139.2362518310547 13.128494262695312 145.26515197753906 19.15894317626953 145.26515197753906 26.568695068359375 L145.26515197753906 69.90338134765625 L100.15702819824219 69.90338134765625 C90.55783081054688 69.90338134765625 82.75003051757812 77.711181640625 82.75003051757812 87.31077575683594 L82.75003051757812 161.33993530273438 L37.023948669433594 161.33993530273438 Z M185.05999755859375 182.59262084960938 C185.05999755859375 188.95980834960938 179.87954711914062 194.1402587890625 173.511962890625 194.1402587890625 L100.15702819824219 194.1402587890625 C93.78985595703125 194.1402587890625 88.6093978881836 188.95980834960938 88.6093978881836 182.59262084960938 L88.6093978881836 87.31077575683594 C88.6093978881836 80.94320678710938 93.78985595703125 75.76274871826172 100.15702819824219 75.76274871826172 L173.511962890625 75.76274871826172 C179.87954711914062 75.76274871826172 185.05999755859375 80.94320678710938 185.05999755859375 87.31077575683594 L185.05999755859375 182.59262084960938 Z"></path>
<path fill="" fill-opacity="1.0"  filling="0" d="M164.23464965820312 87.93302917480469 L109.43435668945312 87.93302917480469 C104.58827209472656 87.93302917480469 100.64530944824219 91.8759994506836 100.64530944824219 96.72207641601562 C100.64530944824219 101.57011413574219 104.58827209472656 105.5111312866211 109.43435668945312 105.5111312866211 L164.23464965820312 105.5111312866211 C169.07955932617188 105.5111312866211 173.023681640625 101.57011413574219 173.023681640625 96.72207641601562 C173.023681640625 91.8759994506836 169.07955932617188 87.93302917480469 164.23464965820312 87.93302917480469 Z M164.23464965820312 99.65176391601562 L109.43435668945312 99.65176391601562 C107.81874084472656 99.65176391601562 106.50466918945312 98.33809661865234 106.50466918945312 96.72207641601562 C106.50466918945312 95.10802459716797 107.81874084472656 93.79239654541016 109.43435668945312 93.79239654541016 L164.23464965820312 93.79239654541016 C165.84909057617188 93.79239654541016 167.16433715820312 95.10802459716797 167.16433715820312 96.72207641601562 C167.16433715820312 98.33809661865234 165.84909057617188 99.65176391601562 164.23464965820312 99.65176391601562 Z"></path>
<path fill="" fill-opacity="1.0"  filling="0" d="M164.23464965820312 113.41970825195312 L109.43435668945312 113.41970825195312 C104.58827209472656 113.41970825195312 100.64530944824219 117.3626708984375 100.64530944824219 122.20875549316406 C100.64530944824219 127.05522155761719 104.58827209472656 130.997802734375 109.43435668945312 130.997802734375 L147.17843627929688 130.997802734375 C148.7975616455078 130.997802734375 150.1081085205078 129.68569946289062 150.1081085205078 128.068115234375 C150.1081085205078 126.450927734375 148.7975616455078 125.13843536376953 147.17843627929688 125.13843536376953 L109.43435668945312 125.13843536376953 C107.81874084472656 125.13843536376953 106.50466918945312 123.82476806640625 106.50466918945312 122.20875549316406 C106.50466918945312 120.59312438964844 107.81874084472656 119.2790756225586 109.43435668945312 119.2790756225586 L164.23464965820312 119.2790756225586 C165.84909057617188 119.2790756225586 167.16433715820312 120.59312438964844 167.16433715820312 122.20875549316406 C167.16433715820312 123.82476806640625 165.84909057617188 125.13843536376953 164.23464965820312 125.13843536376953 L159.31082153320312 125.13843536376953 C157.69325256347656 125.13843536376953 156.38113403320312 126.450927734375 156.38113403320312 128.068115234375 C156.38113403320312 129.68569946289062 157.69325256347656 130.997802734375 159.31082153320312 130.997802734375 L164.23345947265625 130.997802734375 C169.07955932617188 130.997802734375 173.02252197265625 127.05522155761719 173.02252197265625 122.20875549316406 C173.023681640625 117.3626708984375 169.07955932617188 113.41970825195312 164.23464965820312 113.41970825195312 Z"></path>
<path fill="" fill-opacity="1.0"  filling="0" d="M164.23464965820312 138.9051971435547 L109.43435668945312 138.9051971435547 C104.58827209472656 138.9051971435547 100.64530944824219 142.8477783203125 100.64530944824219 147.69424438476562 C100.64530944824219 152.54190063476562 104.58827209472656 156.48329162597656 109.43435668945312 156.48329162597656 L164.23464965820312 156.48329162597656 C169.07955932617188 156.48329162597656 173.023681640625 152.54190063476562 173.023681640625 147.69424438476562 C173.023681640625 142.8477783203125 169.07955932617188 138.9051971435547 164.23464965820312 138.9051971435547 Z M164.23464965820312 150.62393188476562 L109.43435668945312 150.62393188476562 C107.81874084472656 150.62393188476562 106.50466918945312 149.30987548828125 106.50466918945312 147.69424438476562 C106.50466918945312 146.07980346679688 107.81874084472656 144.76455688476562 109.43435668945312 144.76455688476562 L164.23464965820312 144.76455688476562 C165.84909057617188 144.76455688476562 167.16433715820312 146.07980346679688 167.16433715820312 147.69424438476562 C167.16433715820312 149.30987548828125 165.84909057617188 150.62393188476562 164.23464965820312 150.62393188476562 Z"></path>
<path fill="" fill-opacity="1.0"  filling="0" d="M136.83468627929688 164.39187622070312 L109.43435668945312 164.39187622070312 C104.58827209472656 164.39187622070312 100.64530944824219 168.33326721191406 100.64530944824219 173.180908203125 C100.64530944824219 178.02700805664062 104.58827209472656 181.969970703125 109.43435668945312 181.969970703125 L136.83468627929688 181.969970703125 C141.6807861328125 181.969970703125 145.62374877929688 178.02700805664062 145.62374877929688 173.180908203125 C145.62374877929688 168.33326721191406 141.6807861328125 164.39187622070312 136.83468627929688 164.39187622070312 Z M136.83468627929688 176.110595703125 L109.43435668945312 176.110595703125 C107.81874084472656 176.110595703125 106.50466918945312 174.7953643798828 106.50466918945312 173.180908203125 C106.50466918945312 171.56491088867188 107.81874084472656 170.25123596191406 109.43435668945312 170.25123596191406 L136.83468627929688 170.25123596191406 C138.4491424560547 170.25123596191406 139.76437377929688 171.56491088867188 139.76437377929688 173.180908203125 C139.76437377929688 174.7953643798828 138.4491424560547 176.110595703125 136.83468627929688 176.110595703125 Z"></path></svg>