<svg xmlns="http://www.w3.org/2000/svg" viewBox="0.0 0.0 200.0 200.0" height="200.0px" width="200.0px"><path fill="#D5D8DB" fill-opacity="1.0"  filling="0" d="M51.31796646118164 147.55819702148438 L62.06758117675781 131.1574249267578 L103.01679229736328 135.3113250732422 L116.6558609008789 152.08673095703125 L56.1328125 163.20468139648438 L51.31796646118164 147.55819702148438 Z"></path>
<path fill="#E30E08" fill-opacity="1.0"  filling="0" d="M150.9324188232422 18.44921875 L124.3753890991211 6.924613952636719 L124.3753890991211 29.974220275878906 L150.9324188232422 18.44921875 Z"></path>
<path fill="#E3E8EC" fill-opacity="1.0"  filling="0" d="M124.37655639648438 25.87030792236328 L124.37655639648438 128.18983459472656 C103.8890609741211 119.1605453491211 80.4417953491211 118.19921875 61.66328048706055 119.61563110351562 C41.54765701293945 121.130859375 26.797264099121094 125.3843765258789 26.797264099121094 125.3843765258789 L124.37655639648438 25.87030792236328 Z"></path>
<path fill="#FCC400" fill-opacity="1.0"  filling="0" d="M124.375 34.771873474121094 L171.85899353027344 139.46600341796875 L124.375 139.46600341796875 L124.375 34.771873474121094 Z"></path>
<path fill="#D5D8DB" fill-opacity="1.0"  filling="0" d="M124.37655639648438 25.87030792236328 L61.66328048706055 119.61563110351562 C41.54765701293945 121.130859375 26.797264099121094 125.3843765258789 26.797264099121094 125.3843765258789 L124.37655639648438 25.87030792236328 Z"></path>
<path fill="#E3E8EC" fill-opacity="1.0"  filling="0" d="M196.94180297851562 197.03204345703125 L34.17656707763672 197.03204345703125 L3.1046905517578125 144.28164672851562 L3.0730514526367188 144.22616577148438 C3.0691375732421875 144.21835327148438 3.0652313232421875 144.21444702148438 3.0652313232421875 144.21444702148438 L191.4460906982422 157.271484375 L195.220703125 184.568359375 L196.94180297851562 197.03204345703125 Z"></path>
<path fill="#D5D8DB" fill-opacity="1.0"  filling="0" d="M196.94180297851562 197.03204345703125 L34.17656707763672 197.03204345703125 L3.1046905517578125 144.28164672851562 C4.224609375 146.08203125 28.522262573242188 184.568359375 65.03437805175781 184.568359375 L195.220703125 184.568359375 L196.94180297851562 197.03204345703125 Z"></path>
<path fill="#E30E08" fill-opacity="1.0"  filling="0" d="M124.37655639648438 84.5160140991211 L124.37655639648438 99.10820007324219 C124.37655639648438 99.10820007324219 103.0699234008789 92.53633117675781 79.353515625 93.17304229736328 C71.13554382324219 93.39453125 62.6328125 94.48281860351562 54.62421798706055 97.00702667236328 L54.62031555175781 97.00702667236328 L72.2828140258789 78.9921875 L72.2867202758789 78.9921875 C77.98828125 78.46992492675781 83.654296875 78.43437957763672 89.0390625 78.6953125 C108.57344055175781 79.64140319824219 124.37655639648438 84.5160140991211 124.37655639648438 84.5160140991211 Z"></path>
<path fill="#C40606" fill-opacity="1.0"  filling="0" d="M89.0394515991211 78.69609832763672 L79.353515625 93.1734390258789 C71.13554382324219 93.3949203491211 62.6328125 94.48320007324219 54.62421798706055 97.0074234008789 L72.2867202758789 78.9925765991211 C77.9886703491211 78.4703140258789 83.65469360351562 78.43476867675781 89.0394515991211 78.69609832763672 Z"></path>
<path fill="#515B65" fill-opacity="1.0"  filling="0" d="M43.669532775878906 162.611328125 A5.934765338897705 5.934765338897705 0.0 1 1 31.79999542236328 162.611328125 A5.934765338897705 5.934765338897705 0.0 1 1 43.669532775878906 162.611328125 Z"></path>
<path fill="" fill-opacity="1.0"  filling="0" d="M199.869140625 196.54920959472656 L194.38360595703125 156.86367797851562 C194.19140625 155.47265625 193.05039978027344 154.40664672851562 191.64923095703125 154.30975341796875 L175.1789093017578 153.16836547851562 C173.5441436767578 153.05508422851562 172.12655639648438 154.28866577148438 172.013671875 155.92343139648438 L172.013671875 155.92343139648438 C171.900390625 157.55819702148438 173.13397216796875 158.9757843017578 174.76873779296875 159.0886688232422 L188.8347625732422 160.0636749267578 L193.5343780517578 194.06484985351562 L35.870704650878906 194.06484985351562 L8.480857849121094 147.5636749267578 L161.3113250732422 158.15625 C162.9460906982422 158.26953125 164.36367797851562 157.0359344482422 164.4765625 155.4011688232422 L164.4765625 155.4011688232422 C164.58984375 153.7664031982422 163.3562469482422 152.3488311767578 161.7214813232422 152.23593139648438 L127.3421859741211 149.85311889648438 L127.3421859741211 142.43399047851562 L179.44882202148438 142.43399047851562 C181.07382202148438 142.43399047851562 182.49063110351562 141.18203735351562 182.53945922851562 139.5578155517578 C182.59024047851562 137.87734985351562 181.24258422851562 136.49884033203125 179.5730438232422 136.49884033203125 L173.77108764648438 136.49884033203125 L127.34258270263672 34.130462646484375 L127.34258270263672 31.921478271484375 L152.1140594482422 21.171875 C153.19842529296875 20.701560974121094 153.89999389648438 19.63202667236328 153.89999389648438 18.449607849121094 C153.89999389648438 17.267189025878906 153.19842529296875 16.198043823242188 152.1140594482422 15.727340698242188 L127.34258270263672 4.977348327636719 L127.34258270263672 3.091796875 C127.34258270263672 1.466796875 126.09062194824219 0.0500030517578125 124.4664077758789 0.0011749267578125 C122.78593444824219 -0.04961395263671875 121.40742492675781 1.2980499267578125 121.40742492675781 2.9675750732421875 L121.40742492675781 24.657806396484375 L6.8367156982421875 141.50039672851562 L3.2691421508789062 141.2531280517578 C2.1714859008789062 141.173828125 1.1195297241210938 141.71522521972656 0.5402297973632812 142.65274047851562 C-0.0390625 143.58984375 -0.05194854736328125 144.7703094482422 0.5074234008789062 145.7195281982422 L31.617965698242188 198.53826904296875 C32.15117645263672 199.4441375732422 33.12382507324219 200.0 34.17460632324219 200.0 L196.9406280517578 200.0 C198.13436889648438 200.0 199.2468719482422 199.28125 199.71131896972656 198.10116577148438 C199.904296875 197.61053466796875 199.94140625 197.07147216796875 199.869140625 196.54920959472656 Z M127.34296417236328 11.447654724121094 L143.478515625 18.449607849121094 L127.34296417236328 25.451568603515625 L127.34296417236328 11.447654724121094 Z M56.576560974121094 144.9480438232422 L63.56132507324219 134.29141235351562 L101.4917984008789 138.1398468017578 L110.04023742675781 148.6535186767578 L56.576560974121094 144.9480438232422 Z M56.206642150878906 99.62812805175781 C81.9000015258789 91.8316421508789 113.13436889648438 99.14570617675781 121.40742492675781 101.35781860351562 L121.40742492675781 123.76249694824219 C99.9398422241211 115.53633117675781 76.0960922241211 115.38829040527344 59.419925689697266 116.8167953491211 C50.02421569824219 117.62187194824219 41.94452667236328 118.97148132324219 36.076175689697266 120.1578140258789 L56.206642150878906 99.62812805175781 Z M167.2546844482422 136.49844360351562 L127.34258270263672 136.49844360351562 L127.34258270263672 48.49921417236328 L167.2546844482422 136.49844360351562 Z M121.40742492675781 80.62149047851562 C119.06600952148438 80.0218734741211 115.74844360351562 79.2398452758789 111.70391082763672 78.4683609008789 C110.07147979736328 78.15702819824219 108.49882507324219 79.2386703491211 108.21601104736328 80.8765640258789 L108.21601104736328 80.87734985351562 C107.94062805175781 82.47030639648438 108.9921875 83.99335479736328 110.580078125 84.296875 C115.42656707763672 85.22305297851562 119.21797180175781 86.1714859008789 121.40742492675781 86.76094055175781 L121.40742492675781 95.20624542236328 C112.08554077148438 92.79609680175781 87.51171875 87.5257797241211 63.990234375 91.69023895263672 L73.623046875 81.86640930175781 C80.6484375 81.298828125 88.2378921508789 81.40898132324219 96.2476577758789 82.20703125 C97.8597640991211 82.3675765991211 99.30586242675781 81.21562194824219 99.49687957763672 79.6070327758789 L99.49687957763672 79.60664367675781 C99.69219207763672 77.96015930175781 98.50078582763672 76.4671859741211 96.8511734008789 76.3023452758789 C90.9296875 75.7113265991211 85.2152328491211 75.4789047241211 79.763671875 75.60391235351562 L121.40780639648438 33.134376525878906 L121.40780639648438 80.62149047851562 L121.40742492675781 80.62149047851562 Z M28.352340698242188 128.03515625 C34.864845275878906 126.30703735351562 83.287109375 114.36797332763672 121.40742492675781 130.15118408203125 L121.40742492675781 149.44100952148438 L118.1460952758789 149.21524047851562 L105.31991577148438 133.439453125 C104.82266235351562 132.82772827148438 104.1015625 132.4386749267578 103.3167953491211 132.359375 L62.3671875 128.205078125 C61.26601791381836 128.09609985351562 60.19296646118164 128.6046905517578 59.585548400878906 129.53085327148438 L49.788673400878906 144.47813415527344 L14.619529724121094 142.04022216796875 L28.352340698242188 128.03515625 Z"></path>
<path fill="" fill-opacity="1.0"  filling="0" d="M28.832809448242188 162.611328125 C28.832809448242188 167.51992797851562 32.826171875 171.51327514648438 37.734764099121094 171.51327514648438 C42.64335632324219 171.51327514648438 46.637107849121094 167.51992797851562 46.637107849121094 162.611328125 C46.637107849121094 157.70272827148438 42.64374923706055 153.708984375 37.734764099121094 153.708984375 C32.82695770263672 153.708984375 28.832809448242188 157.70272827148438 28.832809448242188 162.611328125 Z M40.70234298706055 162.611328125 C40.70234298706055 164.24725341796875 39.371482849121094 165.57852172851562 37.734764099121094 165.57852172851562 C36.09882736206055 165.57852172851562 34.767578125 164.24765014648438 34.767578125 162.611328125 C34.767578125 160.97500610351562 36.09843826293945 159.64373779296875 37.734764099121094 159.64373779296875 C39.371482849121094 159.64373779296875 40.70234298706055 160.9753875732422 40.70234298706055 162.611328125 Z"></path></svg>