<svg xmlns="http://www.w3.org/2000/svg" viewBox="0.0 0.0 200.0 200.0" height="200.0px" width="200.0px"><path fill="#ff5d5d" fill-opacity="1.0"  filling="0" d="M181.37933349609375 125.30659484863281 L137.14739990234375 125.30659484863281 L137.14739990234375 71.47075653076172 L28.706199645996094 71.47075653076172 L28.706199645996094 165.15963745117188 L48.42217254638672 165.15963745117188 C48.42217254638672 158.50497436523438 53.83427047729492 153.09286499023438 60.488948822021484 153.09286499023438 C67.14323425292969 153.09286499023438 72.55532836914062 158.50653076171875 72.55532836914062 165.15963745117188 L152.54190063476562 165.15963745117188 C152.54190063476562 158.50497436523438 157.95556640625 153.09286499023438 164.6082763671875 153.09286499023438 C171.262939453125 153.09286499023438 176.675048828125 158.50653076171875 176.675048828125 165.15963745117188 L187.53323364257812 165.15963745117188 C192.42501831054688 165.15963745117188 196.39259338378906 161.19363403320312 196.39259338378906 156.30027770996094 L196.39259338378906 138.4522705078125 L181.37933349609375 125.30659484863281 Z"></path>
<path fill="#6289fa" fill-opacity="1.0"  filling="0" d="M164.6082763671875 177.2260284423828 C157.95556640625 177.2260284423828 152.54190063476562 171.81393432617188 152.54190063476562 165.15963745117188 C152.54190063476562 158.50497436523438 157.95556640625 153.09286499023438 164.6082763671875 153.09286499023438 C171.262939453125 153.09286499023438 176.675048828125 158.50497436523438 176.675048828125 165.15963745117188 C176.675048828125 171.81393432617188 171.262939453125 177.2260284423828 164.6082763671875 177.2260284423828 Z"></path>
<path fill="#f0f0fa" fill-opacity="1.0"  filling="0" d="M181.37933349609375 125.30659484863281 L159.28915405273438 105.96483612060547 C156.75477600097656 103.74608612060547 153.5016632080078 102.52381896972656 150.13409423828125 102.52381896972656 L137.14739990234375 102.52381896972656 L137.14739990234375 125.30659484863281 L181.37933349609375 125.30659484863281 Z"></path>
<path fill="#6289fa" fill-opacity="1.0"  filling="0" d="M60.488948822021484 177.2260284423828 C53.83427047729492 177.2260284423828 48.42217254638672 171.81393432617188 48.42217254638672 165.15963745117188 C48.42217254638672 158.50497436523438 53.83427047729492 153.09286499023438 60.488948822021484 153.09286499023438 C67.14323425292969 153.09286499023438 72.55532836914062 158.50497436523438 72.55532836914062 165.15963745117188 C72.55532836914062 171.81393432617188 67.14166259765625 177.2260284423828 60.488948822021484 177.2260284423828 Z"></path>
<path fill="" fill-opacity="1.0"  filling="0" d="M55.64403533935547 115.59762573242188 C55.64403533935547 113.4323959350586 53.88779067993164 111.67615509033203 51.72256088256836 111.67615509033203 L3.921478271484375 111.67615509033203 C1.7562484741210938 111.67615509033203 0.0 113.4323959350586 0.0 115.59762573242188 C0.0 117.76286315917969 1.7562484741210938 119.51910400390625 3.921478271484375 119.51910400390625 L51.72256088256836 119.51910400390625 C53.88779067993164 119.51910400390625 55.64403533935547 117.76286315917969 55.64403533935547 115.59762573242188 Z"></path>
<path fill="" fill-opacity="1.0"  filling="0" d="M199.97657775878906 137.8553924560547 C199.97540283203125 137.82962036132812 199.96914672851562 137.8050079345703 199.96603393554688 137.7792205810547 C199.95079040527344 137.6678924560547 199.935546875 137.5565643310547 199.91094970703125 137.44798278808594 C199.90509033203125 137.42062377929688 199.89572143554688 137.3917236328125 199.88986206054688 137.36399841308594 C199.86524963378906 137.2589111328125 199.837890625 137.1565704345703 199.80587768554688 137.0557861328125 C199.79531860351562 137.02220153808594 199.78126525878906 136.99017333984375 199.76914978027344 136.9581298828125 C199.73712158203125 136.86517333984375 199.70196533203125 136.77218627929688 199.66250610351562 136.68353271484375 C199.64572143554688 136.64407348632812 199.62579345703125 136.6057891845703 199.60586547851562 136.5675048828125 C199.56797790527344 136.4866485595703 199.52813720703125 136.4073486328125 199.48399353027344 136.3311767578125 C199.45938110351562 136.2870330810547 199.43203735351562 136.24407958984375 199.4058837890625 136.2030487060547 C199.36172485351562 136.13275146484375 199.31759643554688 136.0655517578125 199.27032470703125 135.9983673095703 C199.23985290527344 135.9542236328125 199.20626831054688 135.9100799560547 199.17266845703125 135.86712646484375 C199.12539672851562 135.80462646484375 199.07501220703125 135.74679565429688 199.02462768554688 135.68704223632812 C198.98634338378906 135.64447021484375 198.94845581054688 135.6018829345703 198.90859985351562 135.56048583984375 C198.8551025390625 135.5042266845703 198.798828125 135.45071411132812 198.74063110351562 135.39720153808594 C198.71328735351562 135.3714141845703 198.68907165527344 135.34368896484375 198.66134643554688 135.3194580078125 L161.55828857421875 102.83202362060547 C158.30828857421875 99.9878921508789 154.13954162597656 98.42070770263672 149.82119750976562 98.42070770263672 L140.60012817382812 98.42070770263672 L140.60012817382812 71.28755187988281 C140.60012817382812 69.12232971191406 138.8438720703125 67.36607360839844 136.67864990234375 67.36607360839844 L28.392127990722656 67.36607360839844 C26.225341796875 67.36607360839844 24.470657348632812 69.12232971191406 24.470657348632812 71.28755187988281 L24.470657348632812 84.21018981933594 C24.470657348632812 86.37541961669922 26.225341796875 88.13166809082031 28.392127990722656 88.13166809082031 C30.557357788085938 88.13166809082031 32.31360626220703 86.37541961669922 32.31360626220703 84.21018981933594 L32.31360626220703 75.20903015136719 L132.75717163085938 75.20903015136719 L132.75717163085938 161.0565185546875 L75.6756362915039 161.0565185546875 C73.92251586914062 154.13037109375 67.63893127441406 148.98818969726562 60.17449188232422 148.98818969726562 C52.71122360229492 148.98818969726562 46.427650451660156 154.13037109375 44.67452621459961 161.0565185546875 L32.31360626220703 161.0565185546875 L32.31360626220703 146.62921142578125 C32.31360626220703 144.46397399902344 30.557357788085938 142.70773315429688 28.392127990722656 142.70773315429688 C26.225341796875 142.70773315429688 24.470657348632812 144.46397399902344 24.470657348632812 146.62921142578125 L24.470657348632812 164.97799682617188 C24.470657348632812 167.14321899414062 26.225341796875 168.89947509765625 28.392127990722656 168.89947509765625 L44.67452621459961 168.89947509765625 C46.427650451660156 175.82525634765625 52.71122360229492 180.9658660888672 60.17449188232422 180.9658660888672 C67.63736724853516 180.9658660888672 73.92095947265625 175.82525634765625 75.6756362915039 168.89947509765625 L148.79425048828125 168.89947509765625 C150.54893493652344 175.82525634765625 156.83251953125 180.9658660888672 164.2957763671875 180.9658660888672 C171.7586669921875 180.9658660888672 178.042236328125 175.82525634765625 179.7953643798828 168.89947509765625 L187.21878051757812 168.89947509765625 C194.26681518554688 168.89947509765625 199.99961853027344 163.1651153564453 199.99961853027344 156.11865234375 L199.99961853027344 138.26907348632812 C199.99961853027344 138.12844848632812 199.9918212890625 137.9913330078125 199.97657775878906 137.8553924560547 Z M60.17449188232422 173.121337890625 C55.683876037597656 173.121337890625 52.02920150756836 169.46861267089844 52.02920150756836 164.9764404296875 C52.02920150756836 160.48582458496094 55.683876037597656 156.83114624023438 60.17449188232422 156.83114624023438 C64.66667175292969 156.83114624023438 68.31939697265625 160.48582458496094 68.31939697265625 164.9764404296875 C68.31939697265625 169.46861267089844 64.66667175292969 173.121337890625 60.17449188232422 173.121337890625 Z M140.75442504882812 106.26366424560547 L149.82119750976562 106.26366424560547 C152.2379913330078 106.26366424560547 154.57275390625 107.14100646972656 156.39151000976562 108.73240661621094 L170.63404846191406 121.20347595214844 L140.75442504882812 121.20347595214844 L140.75442504882812 106.26366424560547 Z M164.2957763671875 173.121337890625 C159.8035888671875 173.121337890625 156.15048217773438 169.46861267089844 156.15048217773438 164.9764404296875 C156.15048217773438 160.48582458496094 159.8035888671875 156.83114624023438 164.2957763671875 156.83114624023438 C164.85711669921875 156.83114624023438 165.4051513671875 156.88934326171875 165.9344482421875 156.99754333496094 C169.6422576904297 157.75888061523438 172.44068908691406 161.04714965820312 172.44068908691406 164.9764404296875 C172.44068908691406 169.46861267089844 168.78639221191406 173.121337890625 164.2957763671875 173.121337890625 Z M187.21878051757812 161.05496215820312 L179.79693603515625 161.05496215820312 C178.44497680664062 155.68699645996094 174.27349853515625 151.37020874023438 169.01686096191406 149.70068359375 C163.63641357421875 147.99171447753906 157.56494140625 149.42919921875 153.4407196044922 153.24990844726562 C151.18370056152344 155.34051513671875 149.55245971679688 158.07333374023438 148.79269409179688 161.05496215820312 L140.7391815185547 161.05496215820312 L140.7391815185547 129.0464324951172 L179.59262084960938 129.0464324951172 L185.64573669433594 134.34759521484375 L183.6191864013672 134.34759521484375 C181.45394897460938 134.34759521484375 179.6977081298828 136.1038360595703 179.6977081298828 138.26907348632812 C179.6977081298828 140.43429565429688 181.45394897460938 142.1905517578125 183.6191864013672 142.1905517578125 L192.1566619873047 142.1905517578125 L192.1566619873047 156.11708068847656 C192.1566619873047 158.8408966064453 189.9410400390625 161.05496215820312 187.21878051757812 161.05496215820312 Z"></path>
<path fill="" fill-opacity="1.0"  filling="0" d="M28.392127990722656 46.504398345947266 L174.7465362548828 46.504398345947266 L161.5293731689453 59.721561431884766 C159.99734497070312 61.25202560424805 159.99734497070312 63.73600769042969 161.5293731689453 65.26647186279297 C162.29539489746094 66.03248596191406 163.29930114746094 66.41529846191406 164.3016357421875 66.41529846191406 C165.30593872070312 66.41529846191406 166.30984497070312 66.03248596191406 167.07427978515625 65.26647186279297 L186.98675537109375 45.355186462402344 C188.49456787109375 43.84776306152344 188.49456787109375 41.31768798828125 186.98675537109375 39.80870819091797 L167.07427978515625 19.89897918701172 C165.5438232421875 18.367347717285156 163.06101989746094 18.367347717285156 161.5293731689453 19.89897918701172 C159.99734497070312 21.429443359375 159.99734497070312 23.913818359375 161.5293731689453 25.44428253173828 L174.74497985839844 38.661441802978516 L28.392127990722656 38.661441802978516 C26.225341796875 38.661441802978516 24.470657348632812 40.41769027709961 24.470657348632812 42.58292007446289 C24.470657348632812 44.74814987182617 26.225341796875 46.504398345947266 28.392127990722656 46.504398345947266 Z"></path>
<path fill="" fill-opacity="1.0"  filling="0" d="M17.60387420654297 103.83007049560547 L56.826847076416016 103.83007049560547 C58.9920768737793 103.83007049560547 60.74832534790039 102.0738296508789 60.74832534790039 99.90859985351562 C60.74832534790039 97.74337005615234 58.9920768737793 95.98712158203125 56.826847076416016 95.98712158203125 L17.60387420654297 95.98712158203125 C15.438636779785156 95.98712158203125 13.682395935058594 97.74337005615234 13.682395935058594 99.90859985351562 C13.682395935058594 102.0738296508789 15.438636779785156 103.83007049560547 17.60387420654297 103.83007049560547 Z"></path>
<path fill="" fill-opacity="1.0"  filling="0" d="M69.28228759765625 102.08592987060547 C70.18267822265625 103.44843292236328 71.91001892089844 104.11366271972656 73.49517059326172 103.70936584472656 C75.05766296386719 103.31132507324219 76.2557144165039 101.9652328491211 76.43734741210938 100.3570327758789 C76.6217269897461 98.72578430175781 75.74751281738281 97.11914825439453 74.27525329589844 96.39297485351562 C72.78736114501953 95.65586853027344 70.93931579589844 95.96094512939453 69.76744079589844 97.13750457763672 C68.45533752441406 98.45429992675781 68.26315307617188 100.5433578491211 69.28228759765625 102.08592987060547 Z"></path>
<path fill="" fill-opacity="1.0"  filling="0" d="M29.39916229248047 131.01478576660156 C29.39916229248047 133.18002319335938 31.153846740722656 134.9366455078125 33.320640563964844 134.9366455078125 L72.54165649414062 134.9366455078125 C74.70845031738281 134.9366455078125 76.463134765625 133.18002319335938 76.463134765625 131.01478576660156 C76.463134765625 128.8495635986328 74.70845031738281 127.09330749511719 72.54165649414062 127.09330749511719 L33.320640563964844 127.09330749511719 C31.153846740722656 127.09330749511719 29.39916229248047 128.8495635986328 29.39916229248047 131.01478576660156 Z"></path>
<path fill="" fill-opacity="1.0"  filling="0" d="M21.22808074951172 129.51361083984375 C20.591758728027344 127.9737777709961 18.990982055664062 126.98197937011719 17.326133728027344 127.10267639160156 C15.69683837890625 127.22026062011719 14.288253784179688 128.3706512451172 13.836692810058594 129.93939208984375 C13.386695861816406 131.50775146484375 13.987861633300781 133.2550048828125 15.321449279785156 134.20266723632812 C16.642547607421875 135.1409454345703 18.429649353027344 135.1682891845703 19.781600952148438 134.27415466308594 C21.32573699951172 133.25189208984375 21.931602478027344 131.21946716308594 21.22808074951172 129.51361083984375 Z"></path></svg>