<svg xmlns="http://www.w3.org/2000/svg" viewBox="0.0 0.0 200.0 200.0" height="200.0px" width="200.0px"><path fill="#7f7a91" fill-opacity="1.0"  filling="0" d="M125.3515625 163.744140625 C124.828125 164.654296875 123.85936737060547 165.212890625 122.8125 165.212890625 L77.1875 165.212890625 C76.140625 165.212890625 75.171875 164.654296875 74.6484375 163.744140625 C74.125 162.833984375 74.12890625 161.712890625 74.66015625 160.806640625 C79.8828125 151.845703125 80.81640625 137.283203125 80.82421875 137.138671875 C80.91796875 135.591796875 82.19921875 134.384765625 83.75 134.384765625 L116.25 134.384765625 C117.80078125 134.384765625 119.08592987060547 135.591796875 119.17578125 137.138671875 C119.18358612060547 137.283203125 120.1171875 151.845703125 125.33984375 160.806640625 C125.87109375 161.712890625 125.875 162.833984375 125.3515625 163.744140625 Z"></path>
<path fill="#5c5368" fill-opacity="1.0"  filling="0" d="M125.3515625 163.744140625 C124.828125 164.654296875 123.85936737060547 165.212890625 122.8125 165.212890625 L116.5625 165.212890625 C110.4765625 151.904296875 109.76171875 138.634765625 109.6953125 134.384765625 L116.25 134.384765625 C117.80078125 134.384765625 119.08592987060547 135.591796875 119.17578125 137.138671875 C119.18358612060547 137.283203125 120.1171875 151.845703125 125.33984375 160.806640625 C125.87109375 161.712890625 125.875 162.833984375 125.3515625 163.744140625 Z"></path>
<path fill="#e4e9f2" fill-opacity="1.0"  filling="0" d="M136.69140625 117.833984375 C136.24609375 129.396484375 135.71875 136.251953125 135.7109375 136.318359375 C135.60546875 137.705078125 134.53515625 138.826171875 133.15625 138.998046875 C132.9453125 139.025390625 130.80078125 139.291015625 127.0546875 139.599609375 C121.35547637939453 140.076171875 111.94140625 140.654296875 100.0 140.654296875 C80.22265625 140.654296875 67.37890625 139.064453125 66.84375 138.998046875 C65.46484375 138.826171875 64.3984375 137.705078125 64.2890625 136.318359375 C64.28125 136.251953125 63.753910064697266 129.396484375 63.3046875 117.833984375 C63.277347564697266 117.037109375 63.570316314697266 116.263671875 64.125 115.689453125 C64.67578125 115.115234375 65.4375 114.791015625 66.234375 114.791015625 L133.765625 114.791015625 C134.5625 114.791015625 135.32421875 115.115234375 135.875 115.689453125 C136.4296875 116.263671875 136.72265625 117.037109375 136.69140625 117.833984375 Z"></path>
<path fill="#cdd5e0" fill-opacity="1.0"  filling="0" d="M136.69140625 117.833984375 C136.24609375 129.396484375 135.71875 136.251953125 135.7109375 136.318359375 C135.60546875 137.705078125 134.53515625 138.826171875 133.15625 138.998046875 C132.9453125 139.025390625 130.80078125 139.291015625 127.0546875 139.599609375 C127.89844512939453 127.466796875 128.328125 117.88867950439453 128.45703125 114.791015625 L133.765625 114.791015625 C134.5625 114.791015625 135.32421875 115.115234375 135.875 115.689453125 C136.4296875 116.263671875 136.72265625 117.037109375 136.69140625 117.833984375 Z"></path>
<path fill="#7f7a91" fill-opacity="1.0"  filling="0" d="M200.0 90.458984375 C200.0 106.447265625 197.046875 116.90039825439453 196.921875 117.337890625 C196.5703125 118.56055450439453 195.47265625 119.412109375 194.203125 119.458984375 C194.09765625 119.462890625 190.99609375 119.564453125 185.32421875 119.712890625 C171.01171875 120.083984375 140.30859375 120.732421875 100.0 120.732421875 C43.71875 120.732421875 6.16796875 119.470703125 5.796875 119.458984375 C4.52734375 119.412109375 3.4296875 118.56055450439453 3.078125 117.337890625 C2.953125 116.90039825439453 0.0 106.447265625 0.0 90.458984375 C0.0 74.470703125 2.953125 64.013671875 3.078125 63.576171875 C3.4296875 62.357418060302734 4.52734375 61.501956939697266 5.796875 61.458988189697266 C6.16796875 61.447261810302734 43.71875 60.185546875 100.0 60.185546875 C140.30859375 60.185546875 171.01171875 60.833984375 185.32421875 61.205078125 C190.99609375 61.353515625 194.09765625 61.455078125 194.203125 61.458988189697266 C195.47265625 61.501956939697266 196.5703125 62.357418060302734 196.921875 63.576171875 C197.046875 64.013671875 200.0 74.470703125 200.0 90.458984375 Z"></path>
<path fill="#5c5368" fill-opacity="1.0"  filling="0" d="M196.921875 63.576171875 C197.046875 64.013671875 200.0 74.470703125 200.0 90.458984375 C200.0 106.447265625 197.046875 116.90039825439453 196.921875 117.337890625 C196.5703125 118.56055450439453 195.47265625 119.412109375 194.203125 119.458984375 C194.09765625 119.462890625 190.99609375 119.564453125 185.32421875 119.712890625 C186.40625 114.857421875 188.28125 104.41211700439453 188.28125 90.458984375 C188.28125 76.505859375 186.40625 66.064453125 185.32421875 61.205078125 C190.99609375 61.353515625 194.09765625 61.455078125 194.203125 61.458988189697266 C195.47265625 61.501956939697266 196.5703125 62.357418060302734 196.921875 63.576171875 Z"></path>
<path fill="#e4e9f2" fill-opacity="1.0"  filling="0" d="M153.546875 180.029296875 L46.453125 180.029296875 C47.1171875 167.240234375 47.890628814697266 163.462890625 47.98046875 163.072265625 C48.25390625 161.830078125 49.300777435302734 160.908203125 50.56640625 160.791015625 C50.76171875 160.771484375 70.48828125 158.966796875 100.0 158.966796875 C119.58203125 158.966796875 134.859375 159.759765625 142.9765625 160.302734375 C147.09375 160.576171875 149.3671875 160.787109375 149.43359375 160.791015625 C150.69921875 160.908203125 151.74609375 161.830078125 152.01953125 163.072265625 C152.10546875 163.462890625 152.8828125 167.240234375 153.546875 180.029296875 Z"></path>
<path fill="#cdd5e0" fill-opacity="1.0"  filling="0" d="M153.546875 180.029296875 L144.9609375 180.029296875 C143.98828125 169.197265625 143.28125 162.865234375 142.9765625 160.302734375 C147.09375 160.576171875 149.3671875 160.787109375 149.43359375 160.791015625 C150.69921875 160.908203125 151.74609375 161.830078125 152.01953125 163.072265625 C152.10546875 163.462890625 152.8828125 167.240234375 153.546875 180.029296875 Z"></path>
<path fill="#7f7a91" fill-opacity="1.0"  filling="0" d="M160.546875 177.25 L39.453125 177.25 C37.83515548706055 177.25 36.5234375 178.5617218017578 36.5234375 180.1796875 C36.5234375 181.79766845703125 37.83515548706055 183.109375 39.453125 183.109375 L160.546875 183.109375 C162.1652374267578 183.109375 163.4765625 181.79766845703125 163.4765625 180.1796875 C163.4765625 178.5617218017578 162.1652374267578 177.25 160.546875 177.25 Z"></path>
<path fill="#cdd5e0" fill-opacity="1.0"  filling="0" d="M141.587890625 34.116790771484375 C130.47891235351562 23.008201599121094 115.70977020263672 16.890625 100.0 16.890625 C84.29023742675781 16.890625 69.5210952758789 23.008201599121094 58.412109375 34.116790771484375 C57.26797103881836 35.26094055175781 57.26797103881836 37.11601638793945 58.412109375 38.259769439697266 C59.556640625 39.40390396118164 61.41132736206055 39.40390396118164 62.55546951293945 38.259769439697266 C72.55741882324219 28.258201599121094 85.85546875 22.75 100.0 22.75 C114.14453125 22.75 127.44257354736328 28.258201599121094 137.4441375732422 38.260154724121094 C138.0164031982422 38.83203125 138.7664031982422 39.11836242675781 139.51602172851562 39.11836242675781 C140.265625 39.11836242675781 141.015625 38.832427978515625 141.587890625 38.260154724121094 C142.73204040527344 37.11601638793945 142.73204040527344 35.26094055175781 141.587890625 34.116790771484375 Z"></path>
<path fill="#cdd5e0" fill-opacity="1.0"  filling="0" d="M100.0 35.66015625 C89.30390167236328 35.66015625 79.248046875 39.82539367675781 71.68476867675781 47.388671875 C70.54022979736328 48.532814025878906 70.54022979736328 50.38750076293945 71.68437194824219 51.53164291381836 C72.8285140991211 52.675785064697266 74.68359375 52.676170349121094 75.82734680175781 51.53164291381836 C82.28437042236328 45.07500076293945 90.869140625 41.519142150878906 100.0 41.519142150878906 C109.130859375 41.519142150878906 117.71562194824219 45.07500076293945 124.17265319824219 51.53164291381836 C124.74453735351562 52.103511810302734 125.4945297241211 52.38984298706055 126.244140625 52.38984298706055 C126.9937515258789 52.38984298706055 127.74374389648438 52.10390853881836 128.31602478027344 51.53164291381836 C129.4601593017578 50.38750076293945 129.4601593017578 48.53242111206055 128.3156280517578 47.388671875 C120.751953125 39.82539367675781 110.69609069824219 35.66015625 100.0 35.66015625 Z"></path>
<path fill="#85c5ff" fill-opacity="1.0"  filling="0" d="M39.09765625 90.458984375 C39.09765625 96.833984375 33.9140625 102.02147674560547 27.5390625 102.02147674560547 C26.16796875 102.02147674560547 24.85546875 101.783203125 23.6328125 101.341796875 C19.17578125 99.736328125 15.98046875 95.462890625 15.98046875 90.458984375 C15.98046875 85.451171875 19.17578125 81.177734375 23.6328125 79.572265625 C24.85546875 79.130859375 26.16796875 78.892578125 27.5390625 78.892578125 C33.9140625 78.892578125 39.09765625 84.080078125 39.09765625 90.458984375 Z"></path>
<path fill="#7eaef2" fill-opacity="1.0"  filling="0" d="M39.09765625 90.458984375 C39.09765625 96.833984375 33.9140625 102.02147674560547 27.5390625 102.02147674560547 C26.16796875 102.02147674560547 24.85546875 101.783203125 23.6328125 101.341796875 C28.08984375 99.736328125 31.28515625 95.462890625 31.28515625 90.458984375 C31.28515625 85.451171875 28.08984375 81.177734375 23.6328125 79.572265625 C24.85546875 79.130859375 26.16796875 78.892578125 27.5390625 78.892578125 C33.9140625 78.892578125 39.09765625 84.080078125 39.09765625 90.458984375 Z"></path>
<path fill="#ff528c" fill-opacity="1.0"  filling="0" d="M184.02069091796875 90.45781707763672 C184.02069091796875 96.83280944824219 178.8371124267578 102.02030944824219 172.46209716796875 102.02030944824219 C171.0910186767578 102.02030944824219 169.77850341796875 101.78203582763672 168.55584716796875 101.34062957763672 C164.09881591796875 99.73516082763672 160.9035186767578 95.46172332763672 160.9035186767578 90.45781707763672 C160.9035186767578 85.44999694824219 164.09881591796875 81.17655944824219 168.55584716796875 79.57109069824219 C169.77850341796875 79.12969207763672 171.0910186767578 78.89141082763672 172.46209716796875 78.89141082763672 C178.8371124267578 78.89141082763672 184.02069091796875 84.07891082763672 184.02069091796875 90.45781707763672 Z"></path>
<path fill="#c62c7d" fill-opacity="1.0"  filling="0" d="M184.02069091796875 90.45781707763672 C184.02069091796875 96.83280944824219 178.8371124267578 102.02030944824219 172.46209716796875 102.02030944824219 C171.0910186767578 102.02030944824219 169.77850341796875 101.78203582763672 168.55584716796875 101.34062957763672 C173.01287841796875 99.73516082763672 176.20819091796875 95.46172332763672 176.20819091796875 90.45781707763672 C176.20819091796875 85.44999694824219 173.01287841796875 81.17655944824219 168.55584716796875 79.57109069824219 C169.77850341796875 79.12969207763672 171.0910186767578 78.89141082763672 172.46209716796875 78.89141082763672 C178.8371124267578 78.89141082763672 184.02069091796875 84.07891082763672 184.02069091796875 90.45781707763672 Z"></path>
<path fill="#ffe45c" fill-opacity="1.0"  filling="0" d="M135.7578125 90.458984375 C135.7578125 99.244140625 128.61328125 106.392578125 119.83203125 106.392578125 C118.203125 106.392578125 116.62890625 106.14647674560547 115.14453125 105.685546875 C108.64453125 103.68163299560547 103.90625 97.611328125 103.90625 90.458984375 C103.90625 83.302734375 108.64453125 77.236328125 115.14453125 75.232421875 C116.62890625 74.771484375 118.203125 74.525390625 119.83203125 74.525390625 C128.61328125 74.525390625 135.7578125 81.669921875 135.7578125 90.458984375 Z"></path>
<path fill="#f4cb4a" fill-opacity="1.0"  filling="0" d="M135.7578125 90.458984375 C135.7578125 99.244140625 128.61328125 106.392578125 119.83203125 106.392578125 C118.203125 106.392578125 116.62890625 106.14647674560547 115.14453125 105.685546875 C121.64453125 103.68163299560547 126.3828125 97.611328125 126.3828125 90.458984375 C126.3828125 83.302734375 121.64453125 77.236328125 115.14453125 75.232421875 C116.62890625 74.771484375 118.203125 74.525390625 119.83203125 74.525390625 C128.61328125 74.525390625 135.7578125 81.669921875 135.7578125 90.458984375 Z"></path>
<path fill="#ffe45c" fill-opacity="1.0"  filling="0" d="M96.09375 90.45781707763672 C96.09375 99.24296569824219 88.94921875 106.39140319824219 80.16796875 106.39140319824219 C78.5390625 106.39140319824219 76.96484375 106.14530944824219 75.48046875 105.68437194824219 C68.98046875 103.68046569824219 64.2421875 97.61016082763672 64.2421875 90.45781707763672 C64.2421875 83.30155944824219 68.98046875 77.23515319824219 75.48046875 75.23124694824219 C76.96484375 74.77030944824219 78.5390625 74.52421569824219 80.16796875 74.52421569824219 C88.94921875 74.52421569824219 96.09375 81.66875457763672 96.09375 90.45781707763672 Z"></path>
<path fill="#f4cb4a" fill-opacity="1.0"  filling="0" d="M96.09375 90.45781707763672 C96.09375 99.24296569824219 88.94921875 106.39140319824219 80.16796875 106.39140319824219 C78.5390625 106.39140319824219 76.96484375 106.14530944824219 75.48046875 105.68437194824219 C81.98046875 103.68046569824219 86.71875 97.61016082763672 86.71875 90.45781707763672 C86.71875 83.30155944824219 81.98046875 77.23515319824219 75.48046875 75.23124694824219 C76.96484375 74.77030944824219 78.5390625 74.52421569824219 80.16796875 74.52421569824219 C88.94921875 74.52421569824219 96.09375 81.66875457763672 96.09375 90.45781707763672 Z"></path>
<path fill="#5c5368" fill-opacity="1.0"  filling="0" d="M54.084373474121094 90.4593734741211 A2.9296875 2.9296875 0.0 1 1 48.224998474121094 90.4593734741211 A2.9296875 2.9296875 0.0 1 1 54.084373474121094 90.4593734741211 Z"></path>
<path fill="#5c5368" fill-opacity="1.0"  filling="0" d="M151.35000610351562 84.40507507324219 A2.9296875 2.9296875 0.0 1 1 145.49063110351562 84.40507507324219 A2.9296875 2.9296875 0.0 1 1 151.35000610351562 84.40507507324219 Z"></path>
<path fill="#5c5368" fill-opacity="1.0"  filling="0" d="M151.35000610351562 96.5140609741211 A2.9296875 2.9296875 0.0 1 1 145.49063110351562 96.5140609741211 A2.9296875 2.9296875 0.0 1 1 151.35000610351562 96.5140609741211 Z"></path></svg>