<svg xmlns="http://www.w3.org/2000/svg" viewBox="0.0 0.0 200.0 200.0" height="200.0px" width="200.0px"><path fill="#efedff" fill-opacity="1.0"  filling="0" d="M18.239097595214844 152.88467407226562 C21.71722412109375 152.95889282226562 25.172706604003906 154.31944274902344 27.826622009277344 156.97335815429688 C30.659820556640625 159.8065643310547 31.653182983398438 163.78079223632812 30.812164306640625 167.41635131835938 L39.73054885864258 158.4979705810547 L50.93721008300781 158.4979705810547 L50.93721008300781 169.70462036132812 L39.155155181884766 181.4866943359375 L38.95124435424805 181.69448852539062 C34.21998596191406 186.4261474609375 27.85942840576172 188.52928161621094 21.675827026367188 188.0140380859375 L12.762916564941406 183.2261505126953 L12.762916564941406 155.4159393310547 L18.239097595214844 152.88467407226562 Z"></path>
<path fill="#d4d4ff" fill-opacity="1.0"  filling="0" d="M18.239097595214844 152.88467407226562 C14.560577392578125 152.80577087402344 10.856658935546875 154.16632080078125 8.04962158203125 156.97335815429688 C1.2230453491210938 163.7999267578125 1.2230453491210938 174.867919921875 8.04962158203125 181.69448852539062 C11.851585388183594 185.4964599609375 16.706283569335938 187.59957885742188 21.675430297851562 188.01364135742188 C13.029319763183594 178.39410400390625 11.535957336425781 164.15072631835938 18.239097595214844 152.88467407226562 Z"></path>
<path fill="#d4d4ff" fill-opacity="1.0"  filling="0" d="M53.77901077270508 172.54681396484375 L36.89420700073242 155.66201782226562 C32.187950134277344 150.95578002929688 32.187950134277344 143.32566833496094 36.89459991455078 138.61941528320312 L55.1137809753418 120.400634765625 L71.18138885498047 136.4686279296875 L71.18138885498047 155.15538024902344 L53.784481048583984 172.5522918701172 C53.782527923583984 172.5503387451172 53.78057098388672 172.5483856201172 53.77901077270508 172.54681396484375 Z"></path>
<path fill="#efedff" fill-opacity="1.0"  filling="0" d="M70.82123565673828 172.54681396484375 C66.11809539794922 177.24996948242188 58.492305755615234 177.25424194335938 53.784481048583984 172.5522918701172 L52.961822509765625 171.72964477539062 C48.25556182861328 167.02337646484375 48.25556182861328 159.39328002929688 52.96221160888672 154.68701171875 L71.18138885498047 136.46823120117188 L89.0404052734375 154.32765197753906 L70.82123565673828 172.54681396484375 Z"></path>
<path fill="#70dcba" fill-opacity="1.0"  filling="0" d="M194.048828125 72.33529663085938 C193.40234375 71.68881225585938 189.77655029296875 68.06263732910156 184.63943481445312 62.9259033203125 L165.30697631835938 43.59344482421875 L125.7303237915039 43.59344482421875 L60.94855499267578 108.37481689453125 L60.94855499267578 146.70068359375 L65.41106414794922 151.16317749023438 C70.13490295410156 155.88702392578125 74.52084350585938 160.27297973632812 77.2298355102539 162.98196411132812 C84.5286865234375 170.28041076660156 96.11815643310547 171.08236694335938 104.30840301513672 164.80111694335938 C135.36862182617188 140.98191833496094 165.3272705078125 115.04749298095703 193.98202514648438 86.98649597167969 C198.0769500732422 82.97672271728516 198.10116577148438 76.3880386352539 194.048828125 72.33529663085938 Z"></path>
<path fill="#30cd9c" fill-opacity="1.0"  filling="0" d="M165.30657958984375 43.59344482421875 L137.1053466796875 15.392219543457031 C133.05299377441406 11.3394775390625 126.46430969238281 11.363693237304688 122.45414733886719 15.458625793457031 C94.39354705810547 44.1137580871582 68.45912170410156 74.0724105834961 44.6395378112793 105.13224029541016 C38.358280181884766 113.32249450683594 39.16023254394531 124.91195678710938 46.45907211303711 132.2108154296875 L60.948951721191406 146.70068359375 C78.94702911376953 98.70137023925781 117.09358978271484 61.0118408203125 165.30657958984375 43.59344482421875 Z"></path>
<path fill="#d4d4ff" fill-opacity="1.0"  filling="0" d="M94.32636260986328 79.06500244140625 C88.0950927734375 82.27867126464844 83.71227264404297 88.60369110107422 82.60093688964844 95.99588775634766 C82.38532257080078 97.5048828125 79.76812744140625 100.52285766601562 78.03569793701172 102.5201187133789 C72.59857940673828 108.78887939453125 61.912227630615234 121.92485046386719 67.65130615234375 127.81352996826172 C68.90951538085938 129.07212829589844 70.952880859375 129.25454711914062 73.96147155761719 128.34439086914062 C77.61225891113281 127.23970031738281 79.03141021728516 125.98072052001953 86.7239990234375 120.49789428710938 L118.93734741210938 90.50252532958984 C115.36389923095703 80.18727111816406 104.99864196777344 73.4317855834961 94.32636260986328 79.06500244140625 Z"></path>
<path fill="#efedff" fill-opacity="1.0"  filling="0" d="M118.93773651123047 90.50252532958984 C110.6115493774414 89.90798950195312 102.4126968383789 92.80135345458984 96.30331420898438 98.4896469116211 C90.19392395019531 104.17833709716797 86.72439575195312 112.15022277832031 86.72439575195312 120.49789428710938 C88.1517333984375 119.74632263183594 89.69392395019531 121.28929901123047 88.9423599243164 122.71586608886719 C83.76305389404297 129.9818878173828 82.25016021728516 131.66314697265625 81.09586334228516 135.4783935546875 C80.18569946289062 138.48699951171875 80.36851501464844 140.5303497314453 81.62672424316406 141.78855895996094 C88.91619110107422 148.89288330078125 106.78028869628906 131.07290649414062 110.96271514892578 128.1166534423828 C111.92951965332031 127.43345642089844 112.81741333007812 126.92837524414062 113.44475555419922 126.83892059326172 C120.83695983886719 125.7271957397461 127.16197204589844 121.34477233886719 130.37564086914062 115.11311340332031 C135.9498748779297 104.55059051513672 129.33071899414062 94.10409545898438 118.93773651123047 90.50252532958984 Z"></path>
<path fill="" fill-opacity="1.0"  filling="0" d="M127.75181579589844 22.60980987548828 L118.96273803710938 31.398887634277344 C117.81858825683594 32.54302978515625 117.81858825683594 34.39811706542969 118.96273803710938 35.54186248779297 C120.10726928710938 36.68600845336914 121.9615707397461 36.68600845336914 123.1061019897461 35.54186248779297 L131.8951873779297 26.752784729003906 C133.03932189941406 25.608642578125 133.03932189941406 23.753562927246094 131.8951873779297 22.60980987548828 C130.75103759765625 21.465667724609375 128.89634704589844 21.465667724609375 127.75181579589844 22.60980987548828 Z"></path>
<path fill="" fill-opacity="1.0"  filling="0" d="M141.48504638671875 36.34304428100586 L132.69595336914062 45.13212203979492 C131.55181884765625 46.27626037597656 131.55181884765625 48.131343841552734 132.69595336914062 49.27509307861328 C133.8404998779297 50.41963195800781 135.69598388671875 50.41845703125 136.83934020996094 49.27509307861328 L145.62841796875 40.48601531982422 C146.77255249023438 39.34187316894531 146.77255249023438 37.486793518066406 145.62841796875 36.34304428100586 C144.48426818847656 35.198890686035156 142.62957763671875 35.198890686035156 141.48504638671875 36.34304428100586 Z"></path>
<path fill="" fill-opacity="1.0"  filling="0" d="M155.21827697753906 50.07587814331055 L146.42919921875 58.864959716796875 C145.28504943847656 60.009490966796875 145.28504943847656 61.86418151855469 146.42919921875 63.008323669433594 C147.57373046875 64.15208435058594 149.42803955078125 64.1524658203125 150.5725555419922 63.008323669433594 L159.36163330078125 54.21924591064453 C160.50579833984375 53.07471466064453 160.50579833984375 51.22002410888672 159.36163330078125 50.07587814331055 C158.21749877929688 48.93212890625 156.36280822753906 48.93212890625 155.21827697753906 50.07587814331055 Z"></path>
<path fill="" fill-opacity="1.0"  filling="0" d="M168.95188903808594 63.80910873413086 L160.16281127929688 72.59819030761719 C159.0186767578125 73.74272155761719 159.0186767578125 75.597412109375 160.16281127929688 76.7415542602539 C161.30735778808594 77.88530731201172 163.16165161132812 77.88569641113281 164.30618286132812 76.7415542602539 L173.0952606201172 67.95246887207031 C174.23941040039062 66.80793762207031 174.23941040039062 64.9532470703125 173.0952606201172 63.80910873413086 C171.9507293701172 62.66535949707031 170.09603881835938 62.66535949707031 168.95188903808594 63.80910873413086 Z"></path>
<path fill="" fill-opacity="1.0"  filling="0" d="M173.89605712890625 90.47517395019531 C175.04058837890625 91.61893463134766 176.89488220214844 91.61932373046875 178.03941345214844 90.47517395019531 L186.8284912109375 81.68609619140625 C187.97264099121094 80.54156494140625 187.97264099121094 78.68687438964844 186.8284912109375 77.54273223876953 C185.6839599609375 76.39897155761719 183.82925415039062 76.39897155761719 182.68511962890625 77.54273223876953 L173.89605712890625 86.3318099975586 C172.75189208984375 87.4759521484375 172.75189208984375 89.33064270019531 173.89605712890625 90.47517395019531 Z"></path>
<path fill="" fill-opacity="1.0"  filling="0" d="M196.12030029296875 70.26146697998047 L139.1768341064453 13.318382263183594 C133.98971557617188 8.130874633789062 125.54008483886719 8.118766784667969 120.36077880859375 13.406661987304688 C114.64085388183594 19.247695922851562 108.92325592041016 25.23285675048828 103.36661529541016 31.196151733398438 C102.26387786865234 32.37975311279297 102.32910919189453 34.23365783691406 103.51270294189453 35.33678436279297 C104.69669342041016 36.4403076171875 106.55020904541016 36.37428665161133 107.65372467041016 35.19029998779297 C113.17756652832031 29.262557983398438 118.86077880859375 23.312545776367188 124.547119140625 17.50627899169922 C127.42681884765625 14.5660400390625 132.13815307617188 14.565650939941406 135.03347778320312 17.46136474609375 L191.9765625 74.40444946289062 C194.88006591796875 77.30874633789062 194.8640594482422 82.02008056640625 191.93202209472656 84.89118194580078 C163.75657653808594 112.48263549804688 133.67604064941406 138.58543395996094 102.52519989013672 162.47415161132812 C96.02362823486328 167.46087646484375 87.03376770019531 167.24368286132812 80.77203369140625 162.2210235595703 C80.74039459228516 162.19485473632812 80.70796966552734 162.17063903808594 80.67594146728516 162.14602661132812 C79.47359466552734 161.16751098632812 48.20166015625 129.879150390625 47.29892349243164 128.77017211914062 C47.271968841552734 128.73463439941406 47.24540328979492 128.69908142089844 47.21650314331055 128.66432189941406 C42.20945739746094 122.42054748535156 41.96531677246094 113.43186950683594 46.964935302734375 106.91310119628906 C63.568092346191406 85.26266479492188 81.32320404052734 64.02395629882812 99.73808288574219 43.786415100097656 C100.82715606689453 42.589927673339844 100.73965454101562 40.73679733276367 99.54316711425781 39.64773178100586 C98.3466796875 38.559059143066406 96.49315643310547 38.64577865600586 95.40448760986328 39.843048095703125 C76.87944793701172 60.20167922973633 59.01808547973633 81.56734466552734 42.31570816040039 103.34707641601562 C36.17389678955078 111.35530090332031 35.98445129394531 122.12289428710938 41.141876220703125 130.2272186279297 L34.82350158691406 136.54519653320312 C28.969589233398438 142.39988708496094 28.967636108398438 151.87725830078125 34.82350158691406 157.73117065429688 L35.588348388671875 158.4960174560547 L33.400840759277344 160.6835174560547 C31.45709228515625 154.41827392578125 25.04535675048828 149.9456024169922 17.938316345214844 149.9456024169922 C7.4589996337890625 149.9456024169922 0.0 159.30108642578125 0.0 169.33197021484375 C0.0 180.559326171875 8.807052612304688 188.50506591796875 18.448081970214844 190.5042724609375 C20.03948974609375 190.8335723876953 21.58441162109375 189.8089599609375 21.911766052246094 188.2308349609375 C22.240272521972656 186.64605712890625 21.222305297851562 185.09567260742188 19.638320922851562 184.76715087890625 C12.5074462890625 183.28863525390625 5.859382629394531 177.543701171875 5.859382629394531 169.33197021484375 C5.859382629394531 162.5479736328125 10.7418212890625 155.80499267578125 17.938316345214844 155.80499267578125 C23.03168487548828 155.80499267578125 28.17388153076172 159.44796752929688 28.17388153076172 164.8819580078125 C28.17388153076172 168.631591796875 25.51410675048828 172.48431396484375 21.498092651367188 172.48431396484375 C19.88988494873047 172.48431396484375 18.378158569335938 171.858154296875 17.241439819335938 170.72103881835938 C16.096900939941406 169.57728576660156 14.242218017578125 169.57728576660156 13.098068237304688 170.72103881835938 C11.953933715820312 171.86557006835938 11.953933715820312 173.7202606201172 13.098068237304688 174.86441040039062 C15.341827392578125 177.10775756835938 18.325035095214844 178.34332275390625 21.49847412109375 178.34332275390625 C27.363731384277344 178.34332275390625 31.889907836914062 174.16909790039062 33.448890686035156 168.92025756835938 L39.730934143066406 162.63861083984375 L46.79423141479492 169.701904296875 L37.061004638671875 179.43511962890625 C34.93951416015625 181.61050415039062 32.45631408691406 183.1788787841797 29.651229858398438 184.13943481445312 C28.120758056640625 184.66403198242188 27.30474090576172 186.32965087890625 27.828956604003906 187.86053466796875 C28.352783203125 189.38827514648438 30.015296936035156 190.2073974609375 31.55005645751953 189.68280029296875 C35.137962341308594 188.45388793945312 38.3250732421875 186.46209716796875 41.04656219482422 183.74020385742188 L50.937992095947266 173.84527587890625 L51.707523345947266 174.61480712890625 C51.71611785888672 174.62338256835938 51.72627639770508 174.63275146484375 51.73603820800781 174.64254760742188 C57.593082427978516 180.47027587890625 67.04739379882812 180.45855712890625 72.89350128173828 174.61480712890625 L79.21187591552734 168.2964324951172 C87.30252075195312 173.44448852539062 98.0708999633789 173.2733917236328 106.09161376953125 167.12220764160156 C137.42877197265625 143.09051513671875 167.68861389160156 116.83186340332031 196.03164672851562 89.07634735107422 C198.5910186767578 86.57048034667969 200.00039672851562 83.21540069580078 200.00039672851562 79.62866973876953 C200.0 76.09156036376953 198.62225341796875 72.76459503173828 196.12030029296875 70.26146697998047 Z M68.75013732910156 170.47259521484375 C65.18879699707031 174.03314208984375 59.42238235473633 174.04019165039062 55.85479736328125 170.47689819335938 C55.84698486328125 170.46908569335938 55.83917236328125 170.46127319335938 55.83057403564453 170.4526824951172 C54.083309173583984 168.70541381835938 40.69968795776367 155.3214111328125 38.965702056884766 153.58741760253906 C35.40123748779297 150.0237274169922 35.400848388671875 144.25340270996094 38.965702056884766 140.6885528564453 L44.88094711303711 134.77369689941406 L74.66499328613281 164.5577392578125 L68.75013732910156 170.47259521484375 Z"></path>
<path fill="" fill-opacity="1.0"  filling="0" d="M92.98338317871094 76.458740234375 C85.94392395019531 80.08961486816406 80.98960876464844 87.1911849975586 79.71421813964844 95.49002838134766 C78.50015258789062 98.92012023925781 55.5219841003418 119.56898498535156 65.57904052734375 129.8822784423828 C68.03060150146484 132.33541870117188 71.51693725585938 132.1412811279297 74.810302734375 131.1463623046875 C77.44195556640625 130.34986877441406 79.11656188964844 129.44517517089844 81.90328216552734 127.52603149414062 C80.08375549316406 130.16783142089844 79.09820556640625 131.9596405029297 78.29116821289062 134.6276092529297 C75.62983703613281 143.42059326171875 81.57906341552734 146.3756866455078 85.9579849243164 146.3756866455078 C96.57518768310547 146.3756866455078 110.9752197265625 130.902587890625 113.95100402832031 129.72291564941406 C122.2361831665039 128.45494079589844 129.34556579589844 123.49868774414062 132.96588134765625 116.47834777832031 C139.17527770996094 104.71309661865234 132.41744995117188 92.79275512695312 121.2107925415039 88.22712707519531 C116.62327575683594 76.95874786376953 104.70802307128906 70.27162170410156 92.98338317871094 76.458740234375 Z M116.16937255859375 91.45915985107422 C116.46350860595703 92.30760192871094 117.13031005859375 92.97440338134766 117.97874450683594 93.26853942871094 C124.8533706665039 95.65058135986328 129.47213745117188 101.29316711425781 129.47213745117188 107.30958557128906 C129.47213745117188 109.45686340332031 128.90415954589844 111.6217041015625 127.77134704589844 113.76819610595703 C124.98773956298828 119.16546630859375 119.46898651123047 122.96821594238281 113.0318603515625 123.9361801147461 C111.9635009765625 124.088134765625 110.80374145507812 124.63892364501953 109.27169799804688 125.72172546386719 C106.02950286865234 128.01235961914062 93.02947998046875 140.51589965820312 85.95836639404297 140.51589965820312 C84.66969299316406 140.51589965820312 84.03610229492188 140.04324340820312 83.69743347167969 139.7135467529297 C83.14157104492188 139.15769958496094 83.67125701904297 137.07955932617188 83.90016174316406 136.3233184814453 C84.72907257080078 133.58306884765625 85.7454833984375 132.17291259765625 89.11267852783203 127.50064086914062 C89.5970458984375 126.8279800415039 90.12517547607422 126.09517669677734 90.70252227783203 125.28892517089844 C92.03025817871094 125.99360656738281 93.69979095458984 125.5760269165039 94.53182983398438 124.29048156738281 C95.41073608398438 122.93187713623047 95.02245330810547 121.11820983886719 93.66385650634766 120.23890686035156 L90.69627380371094 118.31858825683594 C88.79080200195312 117.08616638183594 86.3454818725586 117.16429138183594 84.5310287475586 118.46078491210938 C77.16265106201172 123.72328186035156 76.12202453613281 124.62641906738281 73.11420440673828 125.5369644165039 C72.38803100585938 125.756103515625 70.27162170410156 126.28617858886719 69.74935913085938 125.76509094238281 C65.83098602294922 121.74398803710938 76.53921508789062 108.7138900756836 80.25445556640625 104.43067932128906 C83.03610229492188 101.2220687866211 85.1892318725586 98.5943374633789 85.49861145019531 96.42831420898438 C86.4697036743164 89.9681396484375 90.27244567871094 84.44938659667969 95.69393920898438 81.65289306640625 C104.69981384277344 76.90054321289062 113.18146514892578 82.83609771728516 116.16937255859375 91.45915985107422 Z"></path>
<path fill="" fill-opacity="1.0"  filling="0" d="M113.77091979980469 57.0255012512207 C112.62678527832031 58.1700325012207 112.62678527832031 60.024723052978516 113.77091979980469 61.16886901855469 C114.91546630859375 62.313011169433594 116.76976013183594 62.3126220703125 117.91390991210938 61.16886901855469 L121.22836303710938 57.854408264160156 C122.37251281738281 56.709877014160156 122.37251281738281 54.855186462402344 121.22836303710938 53.71104049682617 C120.084228515625 52.567291259765625 118.22913360595703 52.567291259765625 117.08538818359375 53.71104049682617 L113.77091979980469 57.0255012512207 Z"></path>
<path fill="" fill-opacity="1.0"  filling="0" d="M151.58389282226562 88.20954895019531 L148.26943969726562 91.52400207519531 C147.12530517578125 92.66854095458984 147.12530517578125 94.52323150634766 148.26943969726562 95.66737365722656 C149.41397094726562 96.8115234375 151.2682647705078 96.81112670898438 152.41241455078125 95.66737365722656 L155.72686767578125 92.35292053222656 C156.87100219726562 91.20838165283203 156.87100219726562 89.35369110107422 155.72686767578125 88.20954895019531 C154.58311462402344 87.0657958984375 152.72802734375 87.0657958984375 151.58389282226562 88.20954895019531 Z"></path>
<path fill="" fill-opacity="1.0"  filling="0" d="M128.84323120117188 68.77748107910156 C127.23267364501953 68.67161560058594 125.83071899414062 69.88529968261719 125.71978759765625 71.49974822998047 C125.2439956665039 78.43218231201172 130.98931884765625 84.19235229492188 137.93817138671875 83.71852111816406 C139.55221557617188 83.60797119140625 140.7713623046875 82.20953369140625 140.66043090820312 80.59507751464844 C140.54949951171875 78.98101043701172 139.14715576171875 77.76148223876953 137.5369873046875 77.87281036376953 C134.12525939941406 78.10249328613281 131.33267211914062 75.28218078613281 131.5651092529297 71.90092468261719 C131.6764373779297 70.28685760498047 130.4576873779297 68.88842010498047 128.84323120117188 68.77748107910156 Z"></path></svg>