<svg xmlns="http://www.w3.org/2000/svg" viewBox="0.0 0.0 200.0 200.0" height="200.0px" width="200.0px"><path fill="#f7b030" fill-opacity="1.0"  filling="0" d="M153.125 75.0 L190.625 75.0 L190.625 106.25 L153.125 106.25 L153.125 75.0 Z"></path>
<path fill="#e37e22" fill-opacity="1.0"  filling="0" d="M190.625 75.0 L153.125 75.0 L159.375 62.5 L184.375 62.5 L190.625 75.0 Z"></path>
<path fill="#e9eef2" fill-opacity="1.0"  filling="0" d="M178.125 90.625 A6.25 6.25 0.0 1 1 165.625 90.625 A6.25 6.25 0.0 1 1 178.125 90.625 Z"></path>
<path fill="#f7b030" fill-opacity="1.0"  filling="0" d="M162.6042938232422 46.875 L181.25 46.875 L181.25 62.5 L162.6042938232422 62.5 L162.6042938232422 46.875 Z"></path>
<path fill="#e37e22" fill-opacity="1.0"  filling="0" d="M162.6042938232422 46.875 L181.25 46.875 L171.92694091796875 28.125 L162.6042938232422 46.875 Z"></path>
<path fill="#eba72e" fill-opacity="1.0"  filling="0" d="M162.5 106.25 L181.25 106.25 L181.25 171.875 L162.5 171.875 L162.5 106.25 Z"></path>
<path fill="#a36f58" fill-opacity="1.0"  filling="0" d="M43.75 171.875 L84.375 109.375 L125.0 171.875 L43.75 171.875 Z"></path>
<path fill="#d49073" fill-opacity="1.0"  filling="0" d="M181.25 171.875 L68.75 171.875 L125.0 90.72265625 L144.42578125 118.75 L148.7578125 125.0 L181.25 171.875 Z"></path>
<path fill="#b37a60" fill-opacity="1.0"  filling="0" d="M124.98046875 90.75 L112.62889862060547 171.875 L68.75 171.875 L124.98046875 90.75 Z"></path>
<path fill="#a36f58" fill-opacity="1.0"  filling="0" d="M131.25 121.875 A3.125 3.125 0.0 0 1 128.125 125.0 L119.765625 125.0 L120.71875 118.75 L128.125 118.75 A3.125 3.125 0.0 0 1 131.25 121.875 Z"></path>
<path fill="#a36f58" fill-opacity="1.0"  filling="0" d="M148.7578125 125.0 L140.625 125.0 A3.125 3.125 0.0 0 1 140.625 118.75 L144.42578125 118.75 L148.7578125 125.0 Z"></path>
<path fill="#a36f58" fill-opacity="1.0"  filling="0" d="M137.5 137.5 L131.25 137.5 A3.125 3.125 0.0 0 1 131.25 131.25 L137.5 131.25 A3.125 3.125 0.0 0 1 137.5 137.5 Z"></path>
<path fill="#a36f58" fill-opacity="1.0"  filling="0" d="M128.125 146.875 A3.125 3.125 0.0 0 1 125.0 150.0 L115.96092987060547 150.0 L116.91015625 143.75 L125.0 143.75 A3.125 3.125 0.0 0 1 128.125 146.875 Z"></path>
<path fill="#a36f58" fill-opacity="1.0"  filling="0" d="M137.5 162.5 L131.25 162.5 A3.125 3.125 0.0 0 1 131.25 156.25 L137.5 156.25 A3.125 3.125 0.0 0 1 137.5 162.5 Z"></path>
<path fill="#a36f58" fill-opacity="1.0"  filling="0" d="M159.375 162.5 L153.125 162.5 A3.125 3.125 0.0 0 1 153.125 156.25 L159.375 156.25 A3.125 3.125 0.0 0 1 159.375 162.5 Z"></path>
<path fill="#a36f58" fill-opacity="1.0"  filling="0" d="M146.875 150.0 L140.625 150.0 A3.125 3.125 0.0 0 1 140.625 143.75 L146.875 143.75 A3.125 3.125 0.0 0 1 146.875 150.0 Z"></path>
<path fill="#c3c6c7" fill-opacity="1.0"  filling="0" d="M53.125 46.875 L46.875 46.875 C43.219139099121094 91.2816390991211 32.220314025878906 124.6988296508789 9.375 171.875 L28.125 171.875 C28.125 161.51953125 37.91874694824219 153.125 50.0 153.125 C62.08124923706055 153.125 71.875 161.51953125 71.875 171.875 L90.625 171.875 C67.77969360351562 124.6988296508789 56.78085708618164 91.2816390991211 53.125 46.875 Z M37.5 140.625 C43.75 131.25 43.75 125.0 43.75 121.875 L56.25 121.875 C56.25 125.0 56.25 131.25 62.5 140.625 L37.5 140.625 Z"></path>
<path fill="#c3c6c7" fill-opacity="1.0"  filling="0" d="M50.0 46.875 A3.125 3.125 0.0 0 1 46.875 43.75 L46.875 31.25 A3.125 3.125 0.0 0 1 53.125 31.25 L53.125 43.75 A3.125 3.125 0.0 0 1 50.0 46.875 Z"></path>
<path fill="#7e8589" fill-opacity="1.0"  filling="0" d="M56.25 46.875 A6.25 6.25 0.0 1 1 43.75 46.875 A6.25 6.25 0.0 1 1 56.25 46.875 Z"></path>
<path fill="#7e8589" fill-opacity="1.0"  filling="0" d="M81.25 146.875 L18.75 146.875 A3.125 3.125 0.0 0 1 18.75 140.625 L81.25 140.625 A3.125 3.125 0.0 0 1 81.25 146.875 Z"></path>
<path fill="#7e8589" fill-opacity="1.0"  filling="0" d="M68.75 115.625 L31.25 115.625 A3.125 3.125 0.0 0 1 31.25 109.375 L68.75 109.375 A3.125 3.125 0.0 0 1 68.75 115.625 Z"></path></svg>