<svg xmlns="http://www.w3.org/2000/svg" viewBox="0.0 0.0 200.0 200.0" height="200.0px" width="200.0px"><path fill="#fb8978" fill-opacity="1.0"  filling="0" d="M51.25150680541992 199.99798583984375 L114.2941665649414 200.0 L90.2092514038086 144.80804443359375 L90.06317901611328 135.8724365234375 L41.687721252441406 135.8724365234375 L41.687721252441406 154.76498413085938 L48.5142822265625 161.3187255859375 C46.44426345825195 164.919921875 44.45875549316406 169.13441467285156 42.82172775268555 173.98190307617188 L51.25150680541992 199.99798583984375 Z"></path>
<path fill="#80dfb5" fill-opacity="1.0"  filling="0" d="M181.5814971923828 200.0 L114.2941665649414 200.0 C99.51026153564453 188.00241088867188 90.06317901611328 169.68893432617188 90.06317901611328 149.16619873046875 C90.06317901611328 147.7042236328125 90.11186981201172 146.24990844726562 90.2092514038086 144.80804443359375 L158.05714416503906 144.80804443359375 C158.05714416503906 144.80804443359375 181.5814971923828 161.8949737548828 181.5814971923828 200.0 Z"></path>
<path fill="#36d39a" fill-opacity="1.0"  filling="0" d="M166.87887573242188 153.95895385742188 C162.12596130371094 147.76620483398438 158.05714416503906 144.80804443359375 158.05714416503906 144.80804443359375 L90.2092514038086 144.80804443359375 C90.11186981201172 146.24990844726562 90.06317901611328 147.70382690429688 90.06317901611328 149.16619873046875 C90.06317901611328 154.60321044921875 90.73239135742188 159.88290405273438 91.98188781738281 164.93359375 C97.79315948486328 165.59315490722656 103.85111236572266 165.92474365234375 110.14728546142578 165.92474365234375 C134.5062255859375 165.92434692382812 152.95693969726562 160.97021484375 166.87887573242188 153.95895385742188 Z"></path>
<path fill="#f67561" fill-opacity="1.0"  filling="0" d="M90.2092514038086 144.80804443359375 L90.06317901611328 135.8724365234375 L41.687721252441406 135.8724365234375 L41.687721252441406 146.91146850585938 C43.34566879272461 148.09657287597656 45.047481536865234 149.2333984375 46.80160903930664 150.3062286376953 C61.24064254760742 159.13763427734375 78.85472106933594 164.25634765625 99.27283477783203 165.5770721435547 L90.2092514038086 144.80804443359375 Z"></path>
<path fill="#fbe29f" fill-opacity="1.0"  filling="0" d="M115.2140884399414 156.38027954101562 A20.507848739624023 20.507848739624023 0.0 1 1 74.1983871459961 156.38027954101562 A20.507848739624023 20.507848739624023 0.0 1 1 115.2140884399414 156.38027954101562 Z"></path>
<path fill="#f8d070" fill-opacity="1.0"  filling="0" d="M94.70623779296875 135.8724365234375 C83.3798828125 135.8724365234375 74.1983871459961 145.05392456054688 74.1983871459961 156.38027954101562 C74.1983871459961 158.28692626953125 74.46398162841797 160.13038635253906 74.9509048461914 161.88168334960938 C85.65955352783203 164.56861877441406 97.41609191894531 165.92434692382812 110.14728546142578 165.92434692382812 C111.06237030029297 165.92434692382812 111.96941375732422 165.91709899902344 112.86800384521484 165.90341186523438 C114.36378479003906 163.05714416503906 115.2140884399414 159.81851196289062 115.2140884399414 156.3798828125 C115.2140884399414 145.05392456054688 106.0325927734375 135.8724365234375 94.70623779296875 135.8724365234375 Z"></path>
<path fill="#5c586f" fill-opacity="1.0"  filling="0" d="M110.14728546142578 153.85191345214844 C58.479679107666016 153.85191345214844 36.94728088378906 130.0655975341797 28.379478454589844 114.45594024658203 C24.801605224609375 107.93722534179688 24.911468505859375 99.96298217773438 28.846275329589844 93.65311431884766 C33.121925354003906 86.79637908935547 35.72796630859375 78.70181274414062 35.72796630859375 69.15533447265625 C35.72796630859375 15.998794555664062 53.74969482421875 0.0 78.55613708496094 0.0 C89.63058471679688 0.0 97.11308288574219 1.4933547973632812 102.00402069091797 3.146881103515625 C107.27967834472656 4.930381774902344 113.01569366455078 4.930381774902344 118.29135131835938 3.146881103515625 C123.18189239501953 1.4933547973632812 130.6643829345703 0.0 141.73883056640625 0.0 C166.54527282714844 0.0 184.5666046142578 15.998794555664062 184.5666046142578 69.15533447265625 C184.5666046142578 78.70181274414062 187.17263793945312 86.79637908935547 191.4482879638672 93.65311431884766 C195.3831024169922 99.96298217773438 195.49295043945312 107.93722534179688 191.91510009765625 114.45594024658203 C183.34768676757812 130.0655975341797 161.81529235839844 153.85191345214844 110.14728546142578 153.85191345214844 Z"></path>
<path fill="#ffdcce" fill-opacity="1.0"  filling="0" d="M132.85311889648438 35.311866760253906 C127.84466552734375 35.24144744873047 123.08893585205078 36.287723541259766 118.81729888916016 38.21810531616211 C113.32273864746094 40.70100402832031 106.97222900390625 40.70100402832031 101.4776611328125 38.21810531616211 C97.20643615722656 36.288124084472656 92.45030212402344 35.24144744873047 87.44184875488281 35.311866760253906 C69.47122955322266 35.56498718261719 54.888526916503906 50.410865783691406 54.94124984741211 68.38310241699219 C54.942054748535156 68.70784759521484 54.94768524169922 69.03179168701172 54.95814514160156 69.3541259765625 C55.400001525878906 83.20845031738281 68.0567398071289 93.48451232910156 81.76619720458984 91.43863677978516 C90.45713806152344 90.14164733886719 98.11388397216797 88.08973693847656 103.27726745605469 86.49295806884766 C107.751708984375 85.10905456542969 112.54286193847656 85.10905456542969 117.01730346679688 86.49295806884766 C122.18067932128906 88.08973693847656 129.83741760253906 90.14164733886719 138.52838134765625 91.43863677978516 C152.23782348632812 93.48451232910156 164.8949737548828 83.20845031738281 165.33642578125 69.3541259765625 C165.3468780517578 69.03138732910156 165.35250854492188 68.70784759521484 165.35333251953125 68.38310241699219 C165.40603637695312 50.410865783691406 150.82374572753906 35.56498718261719 132.85311889648438 35.311866760253906 Z"></path>
<path fill="#423e4f" fill-opacity="1.0"  filling="0" d="M80.30342102050781 82.81327819824219 C78.63621520996094 82.81327819824219 77.28530883789062 81.46197509765625 77.28530883789062 79.795166015625 L77.28530883789062 73.82615661621094 C77.28530883789062 72.15935516357422 78.63621520996094 70.80804443359375 80.30342102050781 70.80804443359375 C81.97062683105469 70.80804443359375 83.321533203125 72.15935516357422 83.321533203125 73.82615661621094 L83.321533203125 79.795166015625 C83.321533203125 81.46237182617188 81.97022247314453 82.81327819824219 80.30342102050781 82.81327819824219 Z"></path>
<path fill="#423e4f" fill-opacity="1.0"  filling="0" d="M139.99154663085938 82.81327819824219 C138.3243408203125 82.81327819824219 136.97344970703125 81.46197509765625 136.97344970703125 79.795166015625 L136.97344970703125 73.82615661621094 C136.97344970703125 72.15935516357422 138.3243408203125 70.80804443359375 139.99154663085938 70.80804443359375 C141.65875244140625 70.80804443359375 143.00965881347656 72.15935516357422 143.00965881347656 73.82615661621094 L143.00965881347656 79.795166015625 C143.00965881347656 81.46237182617188 141.65875244140625 82.81327819824219 139.99154663085938 82.81327819824219 Z"></path>
<path fill="#5c586f" fill-opacity="1.0"  filling="0" d="M85.25432586669922 61.688533782958984 L75.35211181640625 61.688533782958984 C72.22857666015625 61.688533782958984 69.69657897949219 64.22052001953125 69.69657897949219 67.34407043457031 C69.69657897949219 70.46760559082031 72.22857666015625 72.99960327148438 75.35211181640625 72.99960327148438 L85.25432586669922 72.99960327148438 C88.37786865234375 72.99960327148438 90.90985870361328 70.46760559082031 90.90985870361328 67.34407043457031 C90.90985870361328 64.2209243774414 88.37786865234375 61.688533782958984 85.25432586669922 61.688533782958984 Z"></path>
<path fill="#5c586f" fill-opacity="1.0"  filling="0" d="M135.0406494140625 61.688533782958984 L144.94287109375 61.688533782958984 C148.06640625 61.688533782958984 150.598388671875 64.22052001953125 150.598388671875 67.34407043457031 C150.598388671875 70.46760559082031 148.06640625 72.99960327148438 144.94287109375 72.99960327148438 L135.0406494140625 72.99960327148438 C131.91709899902344 72.99960327148438 129.38511657714844 70.46760559082031 129.38511657714844 67.34407043457031 C129.38470458984375 64.2209243774414 131.91709899902344 61.688533782958984 135.0406494140625 61.688533782958984 Z"></path>
<path fill="#423e4f" fill-opacity="1.0"  filling="0" d="M110.14728546142578 104.32233428955078 C106.03540802001953 104.32233428955078 102.12515258789062 102.54125213623047 99.41891479492188 99.43621826171875 C98.32353973388672 98.17947387695312 98.4543228149414 96.27323913574219 99.71106719970703 95.17786407470703 C100.96700286865234 94.08290100097656 102.8740463256836 94.2132797241211 103.9690170288086 95.47001647949219 C105.5291748046875 97.25955963134766 107.78108215332031 98.28611755371094 110.14768981933594 98.28611755371094 C112.51468658447266 98.28611755371094 114.7666015625 97.25995635986328 116.32595825195312 95.47042083740234 C117.42132568359375 94.21368408203125 119.32676696777344 94.08290100097656 120.58431243896484 95.17786407470703 C121.84063720703125 96.27284240722656 121.97183227539062 98.17947387695312 120.87686157226562 99.43621826171875 C118.17022705078125 102.5416488647461 114.25955963134766 104.32233428955078 110.14728546142578 104.32233428955078 Z"></path>
<path fill="#edb798" fill-opacity="1.0"  filling="0" d="M36.604427337646484 140.44546508789062 L54.8941650390625 140.44546508789062 L54.8941650390625 182.1927490234375 L36.604427337646484 182.1927490234375 L36.604427337646484 140.44546508789062 Z"></path>
<path fill="#e8a882" fill-opacity="1.0"  filling="0" d="M36.604427337646484 140.44546508789062 L54.8941650390625 140.44546508789062 L54.8941650390625 159.82012939453125 L36.604427337646484 159.82012939453125 L36.604427337646484 140.44546508789062 Z"></path>
<path fill="#4f4c5f" fill-opacity="1.0"  filling="0" d="M47.123939514160156 61.25472640991211 C47.123939514160156 39.14929962158203 54.58993911743164 18.38751983642578 67.0676040649414 1.35693359375 C48.377864837646484 6.172637939453125 35.72796630859375 24.622528076171875 35.72796630859375 69.15533447265625 C35.72796630859375 78.70181274414062 33.121925354003906 86.79637908935547 28.846275329589844 93.65311431884766 C24.911468505859375 99.96298217773438 24.801605224609375 107.93722534179688 28.379478454589844 114.45594024658203 C36.94728088378906 130.0655975341797 58.479679107666016 153.8515167236328 110.14728546142578 153.8515167236328 C111.27967834472656 153.8515167236328 112.39195251464844 153.8358154296875 113.49537658691406 153.8136749267578 C75.19436645507812 139.5988006591797 47.123939514160156 104.131591796875 47.123939514160156 61.25472640991211 Z"></path>
<path fill="#c7c5cb" fill-opacity="1.0"  filling="0" d="M17.740432739257812 106.97023010253906 L75.81851196289062 106.97023010253906 L75.81851196289062 147.74769592285156 L17.740432739257812 147.74769592285156 L17.740432739257812 106.97023010253906 Z"></path>
<path fill="#b2b0bc" fill-opacity="1.0"  filling="0" d="M79.78470611572266 103.04225158691406 L71.85191345214844 103.04225158691406 C68.41851043701172 103.04225158691406 65.635009765625 105.82575225830078 65.635009765625 109.2591552734375 L65.635009765625 145.45834350585938 C65.635009765625 148.89175415039062 68.41851043701172 151.6752471923828 71.85191345214844 151.6752471923828 L79.78470611572266 151.6752471923828 C83.21810913085938 151.6752471923828 86.0016098022461 148.89175415039062 86.0016098022461 145.45834350585938 L86.0016098022461 109.2591552734375 C86.0016098022461 105.82575225830078 83.21810913085938 103.04225158691406 79.78470611572266 103.04225158691406 Z"></path>
<path fill="#b2b0bc" fill-opacity="1.0"  filling="0" d="M39.54648208618164 106.97023010253906 L17.740432739257812 106.97023010253906 L17.740432739257812 147.74769592285156 L55.16659927368164 147.74769592285156 C45.47323989868164 136.92434692382812 39.5698127746582 122.63742065429688 39.54648208618164 106.97023010253906 Z"></path>
<path fill="#a19dae" fill-opacity="1.0"  filling="0" d="M11.713874816894531 103.04225158691406 L19.64667510986328 103.04225158691406 C23.080078125 103.04225158691406 25.86357879638672 105.82575225830078 25.86357879638672 109.2591552734375 L25.86357879638672 145.45834350585938 C25.86357879638672 148.89175415039062 23.080078125 151.6752471923828 19.64667510986328 151.6752471923828 L11.713874816894531 151.6752471923828 C8.280479431152344 151.6752471923828 5.496978759765625 148.89175415039062 5.496978759765625 145.45834350585938 L5.496978759765625 109.2591552734375 C5.496978759765625 105.82575225830078 8.280082702636719 103.04225158691406 11.713874816894531 103.04225158691406 Z"></path>
<path fill="#ffdcce" fill-opacity="1.0"  filling="0" d="M45.74929428100586 173.708251953125 C36.970218658447266 173.708251953125 29.853118896484375 180.8253631591797 29.853118896484375 189.60443115234375 C29.853118896484375 195.34487915039062 34.50663757324219 199.99798583984375 40.24667739868164 199.99798583984375 L51.25150680541992 199.99798583984375 C56.99195098876953 199.99798583984375 61.64506912231445 195.34446716308594 61.64506912231445 189.60443115234375 C61.645469665527344 180.8253631591797 54.52836990356445 173.708251953125 45.74929428100586 173.708251953125 Z"></path>
<path fill="#ffcabd" fill-opacity="1.0"  filling="0" d="M41.687721252441406 180.07284545898438 C41.687721252441406 177.9971923828125 41.94768142700195 175.98309326171875 42.4313850402832 174.0575408935547 C35.24546813964844 175.58389282226562 29.853118896484375 181.96337890625 29.853118896484375 189.60443115234375 C29.853118896484375 195.34487915039062 34.50663757324219 199.99839782714844 40.24667739868164 199.99839782714844 L51.25150680541992 199.99839782714844 C51.44748306274414 199.99839782714844 51.642250061035156 199.99154663085938 51.835411071777344 199.98109436035156 C45.687721252441406 195.50665283203125 41.687721252441406 188.2583465576172 41.687721252441406 180.07284545898438 Z"></path></svg>