<svg xmlns="http://www.w3.org/2000/svg" viewBox="0.0 0.0 200.0 200.0" height="200.0px" width="200.0px"><path fill="#5de0bf" fill-opacity="1.0"  filling="0" d="M80.3695297241211 183.265625 C79.2464828491211 183.265625 78.81913757324219 184.041015625 79.4203109741211 184.98828125 L85.9039077758789 195.21484375 C86.50508117675781 196.1640625 87.91484069824219 196.93905639648438 89.0367202758789 196.93905639648438 L111.23828125 196.93905639648438 C112.3597640991211 196.93905639648438 113.76953125 196.1640625 114.3707046508789 195.21484375 L120.85429382324219 184.98828125 C121.4554672241211 184.041015625 121.02812194824219 183.265625 119.90507507324219 183.265625 L80.3695297241211 183.265625 Z"></path>
<path fill="#76ffd9" fill-opacity="1.0"  filling="0" d="M139.67578125 185.48748779296875 L139.67578125 182.1242218017578 C139.67578125 181.0011749267578 140.5945281982422 180.0828094482422 141.7160186767578 180.0828094482422 L178.3738250732422 180.0828094482422 L178.3738250732422 103.88945007324219 C178.3738250732422 101.6449203491211 176.53671264648438 99.80780792236328 174.29217529296875 99.80780792236328 L25.982810974121094 99.80780792236328 C23.736724853515625 99.80780792236328 21.900779724121094 101.6449203491211 21.900779724121094 103.88945007324219 L21.900779724121094 180.0828094482422 L58.557029724121094 180.0828094482422 C59.680076599121094 180.0828094482422 60.59883117675781 181.0011749267578 60.59883117675781 182.1242218017578 L60.59883117675781 185.48748779296875 L139.67578125 185.48748779296875 Z"></path>
<path fill="#5de0bf" fill-opacity="1.0"  filling="0" d="M185.10430908203125 194.89764404296875 C185.10430908203125 196.02032470703125 184.18594360351562 196.93905639648438 183.06289672851562 196.93905639648438 L141.7160186767578 196.93905639648438 C140.5945281982422 196.93905639648438 139.67578125 196.02032470703125 139.67578125 194.89764404296875 L139.67578125 182.1242218017578 C139.67578125 181.0011749267578 140.5945281982422 180.0828094482422 141.7160186767578 180.0828094482422 L183.06289672851562 180.0828094482422 C184.18594360351562 180.0828094482422 185.10430908203125 181.0011749267578 185.10430908203125 182.1242218017578 L185.10430908203125 194.89764404296875 Z"></path>
<path fill="#5de0bf" fill-opacity="1.0"  filling="0" d="M37.541019439697266 180.0828094482422 L37.541019439697266 103.88945007324219 C37.541019439697266 101.6449203491211 39.37851333618164 99.80780792236328 41.623043060302734 99.80780792236328 L25.982810974121094 99.80780792236328 C23.736724853515625 99.80780792236328 21.900779724121094 101.6449203491211 21.900779724121094 103.88945007324219 L21.900779724121094 180.0828094482422 L37.541019439697266 180.0828094482422 Z"></path>
<path fill="#5de0bf" fill-opacity="1.0"  filling="0" d="M60.59883117675781 194.89764404296875 C60.59883117675781 196.02032470703125 59.680076599121094 196.93905639648438 58.557029724121094 196.93905639648438 L17.211715698242188 196.93905639648438 C16.089065551757812 196.93905639648438 15.170310974121094 196.02032470703125 15.170310974121094 194.89764404296875 L15.170310974121094 182.1242218017578 C15.170310974121094 181.0011749267578 16.089065551757812 180.0828094482422 17.211715698242188 180.0828094482422 L58.557029724121094 180.0828094482422 C59.680076599121094 180.0828094482422 60.59883117675781 181.0011749267578 60.59883117675781 182.1242218017578 L60.59883117675781 194.89764404296875 Z"></path>
<path fill="#c1c8d2" fill-opacity="1.0"  filling="0" d="M141.7160186767578 180.0828094482422 L151.83123779296875 180.0828094482422 L116.14375305175781 60.2890625 C116.056640625 59.994529724121094 116.2261734008789 59.69258117675781 116.5390625 59.583984375 C130.3984375 54.798828125 139.35391235351562 44.22148513793945 139.35391235351562 32.637107849121094 C139.35391235351562 24.44140625 135.10586547851562 16.837890625 127.3910140991211 11.225784301757812 C120.15390014648438 5.960151672363281 110.62617492675781 3.0609359741210938 100.5660171508789 3.0609359741210938 C90.505859375 3.0609359741210938 80.9800796508789 5.960151672363281 73.74258422851562 11.225784301757812 C66.02774047851562 16.837890625 61.77812576293945 24.44140625 61.77812576293945 32.637107849121094 C61.77812576293945 44.22148513793945 70.73359680175781 54.798828125 84.5933609008789 59.583984375 C84.90585327148438 59.69258117675781 85.07695007324219 59.994529724121094 84.98828125 60.2890625 L49.301170349121094 180.0828094482422 L58.557029724121094 180.0828094482422 C58.93241882324219 180.0828094482422 59.27890396118164 180.1925811767578 59.58086013793945 180.37109375 L94.5082015991211 63.13008117675781 C96.1195297241211 57.71952819824219 93.1871109008789 52.03398513793945 87.83281707763672 50.18632888793945 C78.03945922851562 46.804691314697266 71.71171569824219 39.91679382324219 71.71171569824219 32.637107849121094 C71.71171569824219 21.994140625 84.92578125 13.003517150878906 100.5660171508789 13.003517150878906 C116.20780944824219 13.003517150878906 129.42031860351562 21.994140625 129.42031860351562 32.637107849121094 C129.42031860351562 39.91679382324219 123.0941390991211 46.804691314697266 113.3011703491211 50.18632888793945 C107.9453125 52.03398513793945 105.01249694824219 57.72109603881836 106.6253890991211 63.13008117675781 L141.4734344482422 180.1085968017578 C141.55429077148438 180.09805297851562 141.6335906982422 180.0828094482422 141.7160186767578 180.0828094482422 Z"></path>
<path fill="#00c395" fill-opacity="1.0"  filling="0" d="M28.587493896484375 194.89764404296875 L28.587493896484375 182.1242218017578 C28.587493896484375 181.0011749267578 29.505859375 180.0828094482422 30.627349853515625 180.0828094482422 L17.211715698242188 180.0828094482422 C16.089065551757812 180.0828094482422 15.170310974121094 181.0011749267578 15.170310974121094 182.1242218017578 L15.170310974121094 194.89764404296875 C15.170310974121094 196.02032470703125 16.089065551757812 196.93905639648438 17.211715698242188 196.93905639648438 L30.627349853515625 196.93905639648438 C29.505859375 196.93905639648438 28.587493896484375 196.02032470703125 28.587493896484375 194.89764404296875 Z"></path>
<path fill="#00c395" fill-opacity="1.0"  filling="0" d="M153.076171875 194.89764404296875 L153.076171875 182.1242218017578 C153.076171875 181.0011749267578 153.9949188232422 180.0828094482422 155.1179656982422 180.0828094482422 L141.7160186767578 180.0828094482422 C140.5945281982422 180.0828094482422 139.67578125 181.0011749267578 139.67578125 182.1242218017578 L139.67578125 194.89764404296875 C139.67578125 196.02032470703125 140.5945281982422 196.93905639648438 141.7160186767578 196.93905639648438 L155.1179656982422 196.93905639648438 C153.9949188232422 196.93905639648438 153.076171875 196.02032470703125 153.076171875 194.89764404296875 Z"></path>
<path fill="#434c54" fill-opacity="1.0"  filling="0" d="M183.06289672851562 177.02188110351562 L181.43475341796875 177.02188110351562 L181.43475341796875 103.88945007324219 C181.43475341796875 99.951171875 178.23046875 96.74687194824219 174.29217529296875 96.74687194824219 L158.50390625 96.74687194824219 C156.81289672851562 96.74687194824219 155.44296264648438 98.1171875 155.44296264648438 99.80780792236328 C155.44296264648438 101.4984359741211 156.81289672851562 102.86874389648438 158.50390625 102.86874389648438 L174.29217529296875 102.86874389648438 C174.845703125 102.86874389648438 175.31289672851562 103.33711242675781 175.31289672851562 103.88945007324219 L175.31289672851562 177.02188110351562 L154.11367797851562 177.02188110351562 L132.0234375 102.86874389648438 L143.81094360351562 102.86874389648438 C145.50155639648438 102.86874389648438 146.8718719482422 101.4984359741211 146.8718719482422 99.80780792236328 C146.8718719482422 98.1171875 145.50155639648438 96.74687194824219 143.81094360351562 96.74687194824219 L130.19882202148438 96.74687194824219 L119.7464828491211 61.654685974121094 C133.59530639648438 56.095703125 142.41641235351562 44.906639099121094 142.41641235351562 32.637107849121094 C142.41641235351562 23.435935974121094 137.71954345703125 14.953521728515625 129.19140625 8.750785827636719 C127.82421875 7.755859375 125.90937805175781 8.058204650878906 124.91445922851562 9.425392150878906 C123.9195327758789 10.792579650878906 124.22343444824219 12.707427978515625 125.59062194824219 13.700782775878906 C132.4921875 18.72265625 136.29296875 25.44725799560547 136.29296875 32.637107849121094 C136.29296875 42.89687728881836 128.14804077148438 52.33749771118164 115.5425796508789 56.69101333618164 C113.6796875 57.33203125 112.65547180175781 59.29570007324219 113.2109375 61.16328430175781 L147.72500610351562 177.02188110351562 L143.74844360351562 177.02188110351562 L109.55976867675781 62.255859375 C108.41679382324219 58.42265319824219 110.4996109008789 54.39140701293945 114.298828125 53.07929611206055 C125.34648132324219 49.26601791381836 132.48281860351562 41.24140930175781 132.48281860351562 32.637107849121094 C132.48281860351562 26.53515625 128.8742218017578 20.579681396484375 122.58163452148438 16.29961395263672 C116.55741882324219 12.200775146484375 108.7386703491211 9.942581176757812 100.5660171508789 9.942581176757812 C92.39335632324219 9.942581176757812 84.57499694824219 12.19921875 78.55078125 16.29961395263672 C72.25936889648438 20.579681396484375 68.64921569824219 26.53515625 68.64921569824219 32.637107849121094 C68.64921569824219 41.24140930175781 75.78750610351562 49.26601791381836 86.83320617675781 53.07929611206055 C90.63397979736328 54.39140701293945 92.71562957763672 58.421485900878906 91.57421875 62.255859375 L88.9800796508789 70.9625015258789 C88.4964828491211 72.58280944824219 89.4195327758789 74.2874984741211 91.03984069824219 74.7710952758789 C92.6605453491211 75.25468444824219 94.3648452758789 74.3316421508789 94.8472671508789 72.71133422851562 L97.4410171508789 64.00468444824219 C99.52226257324219 57.01913833618164 95.73983764648438 49.67655944824219 88.83047485351562 47.29140853881836 C80.29023742675781 44.343746185302734 74.77265930175781 38.59101486206055 74.77265930175781 32.637107849121094 C74.77265930175781 23.809768676757812 86.82538604736328 16.066017150878906 100.5660171508789 16.066017150878906 C114.306640625 16.066017150878906 126.359375 23.809768676757812 126.359375 32.637107849121094 C126.359375 38.59101486206055 120.84062194824219 44.343746185302734 112.30156707763672 47.29140853881836 C105.3910140991211 49.678123474121094 101.60820770263672 57.01913833618164 103.6910171508789 64.00468444824219 L113.44609069824219 96.7484359741211 L87.68633270263672 96.7484359741211 L91.19882202148438 84.95625305175781 C91.68241882324219 83.3359375 90.75936889648438 81.63164520263672 89.138671875 81.14921569824219 C87.51835632324219 80.6656265258789 85.8140640258789 81.58866882324219 85.3316421508789 83.20938110351562 L57.38359451293945 177.0234375 L53.405860900878906 177.0234375 L87.92109680175781 61.166404724121094 C88.4781265258789 59.298824310302734 87.45429229736328 57.33320236206055 85.59101867675781 56.69257736206055 C72.984375 52.33906555175781 64.83749389648438 42.89687728881836 64.83749389648438 32.637107849121094 C64.83749389648438 25.448440551757812 68.64022827148438 18.724212646484375 75.54179382324219 13.702346801757812 C82.26171875 8.813278198242188 91.1484375 6.1218719482421875 100.5660171508789 6.1218719482421875 C106.0699234008789 6.1218719482421875 111.3433609008789 7.020698547363281 116.23828125 8.793746948242188 C117.830078125 9.370315551757812 119.58320617675781 8.548042297363281 120.158203125 6.9578094482421875 C120.73359680175781 5.367973327636719 119.91132354736328 3.61328125 118.32266235351562 3.0378875732421875 C112.7578125 1.0222702026367188 106.78242492675781 0.0 100.5660171508789 0.0 C89.8636703491211 0.0 79.69804382324219 3.1066436767578125 71.94218444824219 8.750785827636719 C63.4140625 14.953521728515625 58.71718978881836 23.435935974121094 58.71718978881836 32.637107849121094 C58.71718978881836 44.906639099121094 67.53828430175781 56.09453201293945 81.38750457763672 61.654685974121094 L70.93359375 96.74687194824219 L25.982810974121094 96.74687194824219 C22.044532775878906 96.74687194824219 18.83867645263672 99.951171875 18.83867645263672 103.88945007324219 L18.83867645263672 177.02188110351562 L17.211715698242188 177.02188110351562 C14.398040771484375 177.02188110351562 12.109375 179.310546875 12.109375 182.1242218017578 L12.109375 194.89764404296875 C12.109375 197.71133422851562 14.398040771484375 200.0 17.211715698242188 200.0 L58.557029724121094 200.0 C61.370704650878906 200.0 63.65976333618164 197.71133422851562 63.65976333618164 194.89764404296875 L63.65976333618164 188.54843139648438 L78.0531234741211 188.54843139648438 L83.31758117675781 196.853515625 C84.4742202758789 198.6769561767578 86.87890625 200.0 89.0367202758789 200.0 L111.23828125 200.0 C113.39570617675781 200.0 115.80195617675781 198.6769561767578 116.95547485351562 196.853515625 L122.22148132324219 188.54843139648438 L136.61483764648438 188.54843139648438 L136.61483764648438 194.89764404296875 C136.61483764648438 197.71133422851562 138.90390014648438 200.0 141.7175750732422 200.0 L183.06289672851562 200.0 C185.87655639648438 200.0 188.1652374267578 197.71133422851562 188.1652374267578 194.89764404296875 L188.1652374267578 182.1242218017578 C188.1652374267578 179.310546875 185.87655639648438 177.02188110351562 183.06289672851562 177.02188110351562 Z M24.96172332763672 103.88945007324219 C24.96172332763672 103.33711242675781 25.42890167236328 102.86874389648438 25.982810974121094 102.86874389648438 L69.11015319824219 102.86874389648438 L47.01836013793945 177.02188110351562 L24.96172332763672 177.02188110351562 L24.96172332763672 103.88945007324219 Z M57.53788757324219 193.8781280517578 L18.231246948242188 193.8781280517578 L18.231246948242188 183.1453094482422 L57.53788757324219 183.1453094482422 L57.53788757324219 193.8781280517578 Z M109.52460479736328 182.4265594482422 C107.833984375 182.4265594482422 106.46366882324219 183.796875 106.46366882324219 185.48748779296875 C106.46366882324219 187.17813110351562 107.833984375 188.54843139648438 109.52460479736328 188.54843139648438 L114.97187805175781 188.54843139648438 L111.8011703491211 193.5500030517578 C111.68672180175781 193.67657470703125 111.37383270263672 193.84921264648438 111.2074203491211 193.8781280517578 L89.06718444824219 193.8781280517578 C88.89921569824219 193.84921264648438 88.58633422851562 193.67657470703125 88.47344207763672 193.5500030517578 L85.302734375 188.54843139648438 L92.3812484741211 188.54843139648438 C94.0718765258789 188.54843139648438 95.4437484741211 187.17813110351562 95.4437484741211 185.48748779296875 C95.4437484741211 183.796875 94.0718765258789 182.4265594482422 92.3812484741211 182.4265594482422 L63.65976333618164 182.4265594482422 L63.65976333618164 182.1242218017578 C63.65976333618164 181.21484375 63.41719055175781 180.3621063232422 62.99882507324219 179.6218719482422 L85.86445617675781 102.86874389648438 L115.26953125 102.86874389648438 L137.8816375732422 178.77032470703125 C137.095703125 179.6691436767578 136.61483764648438 180.83944702148438 136.61483764648438 182.1242218017578 L136.61483764648438 182.4265594482422 L109.52460479736328 182.4265594482422 Z M182.04180908203125 193.8781280517578 L142.73672485351562 193.8781280517578 L142.73672485351562 183.1453094482422 L182.04180908203125 183.1453094482422 L182.04180908203125 193.8781280517578 Z"></path></svg>