<svg xmlns="http://www.w3.org/2000/svg" viewBox="0.0 0.0 200.0 200.0" height="200.0px" width="200.0px"><path fill="#6171a3" fill-opacity="1.0"  filling="0" d="M158.34829711914062 187.0561065673828 L85.61835479736328 187.0561065673828 C77.86764526367188 187.0561065673828 71.5845718383789 180.77304077148438 71.5845718383789 173.0223388671875 L71.5845718383789 75.6210708618164 C71.5845718383789 67.870361328125 77.86764526367188 61.58728790283203 85.61835479736328 61.58728790283203 L158.3486785888672 61.58728790283203 C166.09939575195312 61.58728790283203 172.38246154785156 67.870361328125 172.38246154785156 75.6210708618164 L172.38246154785156 173.02194213867188 C172.382080078125 180.77264404296875 166.0989990234375 187.0561065673828 158.34829711914062 187.0561065673828 Z"></path>
<path fill="#475a99" fill-opacity="1.0"  filling="0" d="M71.58418273925781 75.6210708618164 L71.58418273925781 173.02194213867188 C71.58418273925781 180.77264404296875 77.86725616455078 187.05572509765625 85.61796569824219 187.05572509765625 L86.64769744873047 187.05572509765625 C88.7594985961914 185.8427734375 90.75099182128906 184.33920288085938 92.55652618408203 182.5340576171875 L131.4706268310547 143.61956787109375 C136.78919982910156 138.30137634277344 139.71823120117188 131.23037719726562 139.71823120117188 123.708984375 C139.71823120117188 109.57012176513672 129.9682159423828 102.64209747314453 129.0775604248047 101.40493774414062 L129.6850128173828 100.79749298095703 C140.49130249023438 89.9919662475586 140.67803955078125 72.629150390625 130.2662811279297 61.58728790283203 L85.61835479736328 61.58728790283203 C77.86764526367188 61.58728790283203 71.58418273925781 67.870361328125 71.58418273925781 75.6210708618164 Z"></path>
<path fill="#fff" fill-opacity="1.0"  filling="0" d="M143.5152587890625 142.955078125 A21.532133102416992 18.224576950073242 0.0 1 1 100.45099639892578 142.955078125 A21.532133102416992 18.224576950073242 0.0 1 1 143.5152587890625 142.955078125 Z"></path>
<path fill="#d4d4ff" fill-opacity="1.0"  filling="0" d="M138.64825439453125 131.41632080078125 C134.6996612548828 127.335693359375 128.7013702392578 124.73089599609375 121.9835205078125 124.73089599609375 C110.09162139892578 124.73089599609375 100.45137786865234 132.8902130126953 100.45137786865234 142.95547485351562 C100.45137786865234 150.92572021484375 106.49850463867188 157.69631958007812 114.9195556640625 160.17141723632812 L131.4710235595703 143.61996459960938 C134.9196014404297 140.17098999023438 137.35601806640625 135.98330688476562 138.64825439453125 131.41632080078125 Z"></path>
<path fill="#e26e7e" fill-opacity="1.0"  filling="0" d="M81.10293579101562 130.04400634765625 L120.01781463623047 91.1291275024414 C125.6746826171875 85.47225952148438 125.6746826171875 76.30078887939453 120.01781463623047 70.64391326904297 L66.56444549560547 17.190940856933594 C60.90757751464844 11.534065246582031 51.73610305786133 11.534065246582031 46.0792350769043 17.190940856933594 L7.1643524169921875 56.10542297363281 C1.507476806640625 61.76229476928711 1.507476806640625 70.93376159667969 7.1643524169921875 76.59063720703125 L60.61772155761719 130.04400634765625 C66.27420043945312 135.7008819580078 75.44606018066406 135.7008819580078 81.10293579101562 130.04400634765625 Z"></path>
<path fill="#f5ea72" fill-opacity="1.0"  filling="0" d="M82.88855743408203 172.866455078125 L121.80342864990234 133.95159912109375 C127.46031188964844 128.29470825195312 127.46031188964844 119.12324523925781 121.80342864990234 113.46637725830078 L68.35006713867188 60.013004302978516 C62.69319534301758 54.35613250732422 53.52172088623047 54.35613250732422 47.86484909057617 60.013004302978516 L8.949974060058594 98.9278793334961 C3.2930984497070312 104.58476257324219 3.2930984497070312 113.75623321533203 8.949974060058594 119.41310119628906 L62.40333938598633 172.866455078125 C68.06021118164062 178.52334594726562 77.23168182373047 178.52334594726562 82.88855743408203 172.866455078125 Z"></path>
<path fill="#475a99" fill-opacity="1.0"  filling="0" d="M187.92529296875 173.02194213867188 L172.382080078125 173.02194213867188 L172.382080078125 75.6210708618164 L187.92529296875 75.6210708618164 C192.97589111328125 75.6210708618164 197.0701904296875 79.71537780761719 197.0701904296875 84.76597595214844 L197.0701904296875 163.87742614746094 C197.0701904296875 168.92764282226562 192.97589111328125 173.02194213867188 187.92529296875 173.02194213867188 Z"></path>
<path fill="#d4d4ff" fill-opacity="1.0"  filling="0" d="M172.757080078125 115.34339904785156 L168.3299560546875 119.77053833007812 C166.1263427734375 121.9741439819336 162.55393981933594 121.9741439819336 160.35032653808594 119.77053833007812 L155.92318725585938 115.34339904785156 C153.32620239257812 112.74641418457031 151.86756896972656 109.22440338134766 151.86756896972656 105.55198669433594 L151.86756896972656 29.396514892578125 C151.86756896972656 24.714683532714844 155.6626434326172 20.91960906982422 160.34446716308594 20.91960906982422 L168.3358154296875 20.91960906982422 C173.01763916015625 20.91960906982422 176.81272888183594 24.714683532714844 176.81272888183594 29.396514892578125 L176.81272888183594 105.55198669433594 C176.81272888183594 109.22440338134766 175.35366821289062 112.74641418457031 172.757080078125 115.34339904785156 Z"></path>
<path fill="#9ea2e3" fill-opacity="1.0"  filling="0" d="M164.33993530273438 105.58324432373047 C159.8975830078125 105.58324432373047 155.69076538085938 106.048095703125 151.93280029296875 106.87664031982422 C152.2390594482422 110.06271362304688 153.64028930664062 113.06050109863281 155.9228057861328 115.34300994873047 L160.35032653808594 119.77053833007812 C162.55393981933594 121.9741439819336 166.1263427734375 121.9741439819336 168.3299560546875 119.77053833007812 L172.757080078125 115.34339904785156 C175.03961181640625 113.0608901977539 176.44082641601562 110.0631103515625 176.74710083007812 106.87703704833984 C172.9891357421875 106.048095703125 168.78271484375 105.58324432373047 164.33993530273438 105.58324432373047 Z"></path>
<path fill="#eda1ab" fill-opacity="1.0"  filling="0" d="M44.02289581298828 91.45140838623047 C48.74184036254883 96.17034912109375 49.52116775512695 103.04251098632812 45.76320266723633 106.80047607421875 C42.00523376464844 110.55844116210938 35.13346862792969 109.77911376953125 30.41413116455078 105.06016540527344 C25.69519805908203 100.34122467041016 24.91625213623047 93.46906280517578 28.674217224121094 89.71109771728516 C32.43218994140625 85.95352172851562 39.303951263427734 86.73246002197266 44.02289581298828 91.45140838623047 Z"></path>
<path fill="#eda1ab" fill-opacity="1.0"  filling="0" d="M90.33417510986328 137.7724609375 C95.05311584472656 142.49139404296875 95.83244323730469 149.36355590820312 92.07447814941406 153.12152099609375 C88.31651306152344 156.87948608398438 81.44474792480469 156.10015869140625 76.72541046142578 151.38121032714844 C72.0064697265625 146.66226196289062 71.22753143310547 139.79010009765625 74.9854965209961 136.03213500976562 C78.74307250976562 132.27456665039062 85.61522674560547 133.05349731445312 90.33417510986328 137.7724609375 Z"></path>
<path fill="#565e75" fill-opacity="1.0"  filling="0" d="M70.67828369140625 111.11314392089844 C73.1834716796875 113.61833953857422 72.94166564941406 117.9212417602539 70.1388168334961 120.72447967529297 C67.3355712890625 123.52733612060547 63.032657623291016 123.76913452148438 60.52748107910156 121.26396179199219 C58.02268981933594 118.75878143310547 58.264102935791016 114.45586395263672 61.06734848022461 111.65262603759766 C63.87019729614258 108.84977722167969 68.17349243164062 108.60797119140625 70.67828369140625 111.11314392089844 Z"></path>
<path fill="" fill-opacity="1.0"  filling="0" d="M48.1168212890625 86.09259033203125 L44.802223205566406 89.40718078613281 C43.658042907714844 90.5513687133789 43.658042907714844 92.40652465820312 44.802223205566406 93.55071258544922 C45.94602584838867 94.69490051269531 47.80117416381836 94.69490051269531 48.94536209106445 93.55071258544922 L52.259952545166016 90.23612213134766 C53.40414047241211 89.09193420410156 53.40414047241211 87.23677825927734 52.259952545166016 86.09298706054688 C51.11615753173828 84.94801330566406 49.26100158691406 84.94840240478516 48.1168212890625 86.09259033203125 Z M92.40925598144531 137.01422119140625 L95.72384643554688 133.69961547851562 C96.86803436279297 132.55543518066406 96.86803436279297 130.70028686523438 95.72384643554688 129.55648803710938 C94.57965850830078 128.41229248046875 92.7245101928711 128.41229248046875 91.58070373535156 129.55648803710938 L88.26611328125 132.87106323242188 C87.12193298339844 134.0152587890625 87.12193298339844 135.87042236328125 88.26611328125 137.01422119140625 C89.41030883789062 138.15878295898438 91.26506805419922 138.1584014892578 92.40925598144531 137.01422119140625 Z M187.92529296875 72.6912612915039 L179.74252319335938 72.6912612915039 L179.74252319335938 39.827022552490234 C179.74252319335938 38.208988189697266 178.43115234375 36.897216796875 176.81272888183594 36.897216796875 C175.19430541992188 36.897216796875 173.88291931152344 38.208988189697266 173.88291931152344 39.827022552490234 L173.88291931152344 103.36751556396484 C167.732666015625 102.42021179199219 161.02145385742188 102.40888977050781 154.79736328125 103.36751556396484 L154.79736328125 29.39690399169922 C154.79736328125 26.33818817138672 157.28575134277344 23.849807739257812 160.3440704345703 23.849807739257812 L168.33541870117188 23.849807739257812 C170.48590087890625 23.849807739257812 172.46176147460938 25.110794067382812 173.36962890625 27.06165313720703 C174.05166625976562 28.52851104736328 175.79432678222656 29.165260314941406 177.26156616210938 28.48241424560547 C178.72882080078125 27.799972534179688 179.36477661132812 26.05731964111328 178.6823272705078 24.59046173095703 C176.81781005859375 20.580917358398438 172.75592041015625 17.990188598632812 168.3358154296875 17.990188598632812 L160.34446716308594 17.990188598632812 C154.0547637939453 17.990188598632812 148.93814086914062 23.107200622558594 148.93814086914062 29.39690399169922 L148.93814086914062 58.6574821472168 L112.17491149902344 58.6574821472168 L68.63601684570312 15.118980407714844 C61.830657958984375 8.312835693359375 50.81418991088867 8.312446594238281 44.007659912109375 15.118980407714844 L5.092781066894531 54.03346633911133 C-1.6973419189453125 60.823585510253906 -1.6973419189453125 71.87208557128906 5.092781066894531 78.6622085571289 L15.082649230957031 88.6520767211914 L6.878791809082031 96.85592651367188 C0.0730438232421875 103.66167449951172 0.072265625 114.67813873291016 6.878791809082031 121.48467254638672 L46.008914947509766 160.61441040039062 C47.15310287475586 161.7585906982422 49.00825500488281 161.7585906982422 50.15205764770508 160.61441040039062 C51.29624557495117 159.47021484375 51.29624557495117 157.61505126953125 50.15205764770508 156.47125244140625 L11.021934509277344 117.34152221679688 C6.5061187744140625 112.82533264160156 6.505340576171875 105.51565551757812 11.021934509277344 100.99945831298828 L49.93642044067383 62.084571838378906 C54.452232360839844 57.56837463378906 61.76190948486328 57.56837463378906 66.27850341796875 62.084571838378906 L119.73147583007812 115.53794860839844 C124.2476806640625 120.05375671386719 124.24845123291016 127.36341857910156 119.73147583007812 131.88002014160156 L80.81698608398438 170.79489135742188 C76.31133270263672 175.30055236816406 68.98017120361328 175.3001708984375 64.47529602050781 170.79489135742188 L59.983314514160156 166.30291748046875 C58.83912658691406 165.15872192382812 56.98397445678711 165.15872192382812 55.84018325805664 166.30291748046875 C54.69599533081055 167.44711303710938 54.69599533081055 169.30224609375 55.84018325805664 170.44606018066406 L60.33216094970703 174.9380340576172 C63.01000213623047 177.61587524414062 66.40623474121094 179.3135986328125 70.08647155761719 179.85269165039062 C72.7635269165039 185.98809814453125 78.77588653564453 189.9859161376953 85.61874389648438 189.9859161376953 L158.3490753173828 189.9859161376953 C166.70370483398438 189.9859161376953 173.66180419921875 183.91378784179688 175.054443359375 175.9521484375 L187.9260711669922 175.9521484375 C194.5841522216797 175.9521484375 200.0007781982422 170.5355224609375 200.0007781982422 163.87742614746094 L200.0007781982422 84.76597595214844 C200.0 78.1078872680664 194.5833740234375 72.6912612915039 187.92529296875 72.6912612915039 Z M70.42202758789062 57.94144058227539 C63.61627960205078 51.13529968261719 52.59980773925781 51.13490676879883 45.79328155517578 57.94144058227539 L19.225784301757812 84.5089340209961 L9.235923767089844 74.51907348632812 C4.730262756347656 70.01342010498047 4.730262756347656 62.682647705078125 9.235923767089844 58.17699432373047 L48.15080261230469 19.26250457763672 C52.666221618652344 14.746299743652344 59.975894927978516 14.745918273925781 64.49248504638672 19.26250457763672 L117.94546508789062 72.71587371826172 C122.461669921875 77.23168182373047 122.46244812011719 84.5413589477539 117.94546508789062 89.05795288085938 L109.74160766601562 97.26180267333984 L70.42202758789062 57.94144058227539 Z M123.87460327148438 136.0231475830078 C125.98329162597656 133.9144744873047 127.48139953613281 131.35891723632812 128.28729248046875 128.5712890625 C135.55555725097656 130.72412109375 140.58544921875 136.44232177734375 140.58544921875 142.95469665527344 C140.58544921875 151.38824462890625 132.24058532714844 158.24945068359375 121.9831314086914 158.24945068359375 C116.30204010009766 158.24945068359375 110.94673156738281 156.07359313964844 107.43878936767578 152.45860290527344 L123.87460327148438 136.0231475830078 Z M169.45266723632812 173.0223388671875 C169.45266723632812 179.1448516845703 164.47119140625 184.12631225585938 158.34829711914062 184.12631225585938 L85.61796569824219 184.12631225585938 C82.03851318359375 184.12631225585938 78.72510528564453 182.35903930664062 76.66720581054688 179.571044921875 C79.78178405761719 178.83819580078125 82.64088439941406 177.25765991210938 84.96012115478516 174.9384307861328 L103.28666687011719 156.6114959716797 C107.89466094970703 161.35545349121094 114.64884948730469 164.10986328125 121.9831314086914 164.10986328125 C135.47157287597656 164.10986328125 146.445068359375 154.62002563476562 146.445068359375 142.95547485351562 C146.445068359375 133.49765014648438 139.2217254638672 125.29811096191406 128.94239807128906 122.67691040039062 C128.69473266601562 118.41384887695312 126.91926574707031 114.43946075439453 123.87460327148438 111.3947982788086 L113.8847427368164 101.40493774414062 L122.0886001586914 93.20108795166016 C128.8951416015625 86.39533996582031 128.89552307128906 75.37965393066406 122.0889892578125 68.57234191894531 L118.03374481201172 64.51709747314453 L148.93736267089844 64.51709747314453 L148.93736267089844 105.55198669433594 C148.93736267089844 110.0334243774414 150.68234252929688 114.24609375 153.85084533691406 117.41497802734375 L158.27796936035156 121.84211730957031 C161.32029724121094 124.88363647460938 166.07321166992188 125.17544555664062 169.45187377929688 122.65072631835938 L169.45187377929688 173.0223388671875 L169.45266723632812 173.0223388671875 Z M170.68511962890625 113.2718276977539 L166.25799560546875 117.69896697998047 C165.20053100585938 118.75604248046875 163.47975158691406 118.75682830810547 162.4222869873047 117.69896697998047 L157.99514770507812 113.2718276977539 C156.82518005371094 112.10186004638672 155.95443725585938 110.713134765625 155.4192657470703 109.19783782958984 C161.02340698242188 108.30443572998047 167.4068603515625 108.26419830322266 173.26141357421875 109.19783782958984 C172.725830078125 110.71273803710938 171.8551025390625 112.10186004638672 170.68511962890625 113.2718276977539 Z M194.140380859375 163.8770294189453 C194.140380859375 167.30413818359375 191.35198974609375 170.09213256835938 187.92529296875 170.09213256835938 L175.31227111816406 170.09213256835938 L175.31227111816406 116.90753173828125 C178.17294311523438 113.80310821533203 179.74252319335938 109.79903411865234 179.74252319335938 105.55198669433594 L179.74252319335938 78.55087280273438 L187.92529296875 78.55087280273438 C191.35198974609375 78.55087280273438 194.140380859375 81.33888244628906 194.140380859375 84.76597595214844 L194.140380859375 163.8770294189453 Z M72.23030090332031 122.80191040039062 C76.17147827148438 118.86073303222656 76.41368103027344 112.68977355957031 72.77017211914062 109.04627227783203 C69.12666320800781 105.40315246582031 62.956092834472656 105.64456176757812 59.01414108276367 109.58613586425781 C55.072959899902344 113.52769470214844 54.831153869628906 119.69827270507812 58.47465896606445 123.34178161621094 C62.13535690307617 127.00286865234375 68.30748748779297 126.7247314453125 72.23030090332031 122.80191040039062 Z M63.15766906738281 113.72966003417969 C64.69796752929688 112.18936157226562 67.1797103881836 111.74247741699219 68.62664031982422 113.1897964477539 C69.98568725585938 114.54884338378906 69.74348449707031 117.00245666503906 68.08677673339844 118.65916442871094 C66.43006896972656 120.31547546386719 63.97684097290039 120.55767822265625 62.61741256713867 119.19902801513672 C61.259151458740234 117.839599609375 61.50096130371094 115.3863754272461 63.15766906738281 113.72966003417969 Z"></path></svg>