<svg xmlns="http://www.w3.org/2000/svg" viewBox="0.0 0.0 200.0 200.0" height="200.0px" width="200.0px"><path fill="#338727" fill-opacity="1.0"  filling="0" d="M72.56783294677734 110.14549255371094 C70.81275939941406 110.14549255371094 69.38970947265625 108.72283935546875 69.38970947265625 106.96737670898438 C69.38970947265625 81.36781311035156 76.88423156738281 54.34755325317383 92.3013916015625 32.08079528808594 C93.30020904541016 30.638221740722656 95.27989959716797 30.27729034423828 96.72364807128906 31.27729034423828 C98.16661071777344 32.27610778808594 98.52637481689453 34.256187438964844 97.52716064453125 35.69953918457031 C82.87093353271484 56.86785888671875 75.7459487915039 82.70413970947266 75.7459487915039 106.9677734375 C75.7459487915039 108.72283935546875 74.32290649414062 110.14549255371094 72.56783294677734 110.14549255371094 Z"></path>
<path fill="#338727" fill-opacity="1.0"  filling="0" d="M73.54595184326172 83.83421325683594 C72.62447357177734 83.83421325683594 71.71080017089844 83.43577575683594 71.08267974853516 82.66625213623047 L53.56474304199219 61.21863555908203 C52.454586029052734 59.8592643737793 52.656150817871094 57.85731506347656 54.01552200317383 56.746768951416016 C55.37567138671875 55.6366081237793 57.377620697021484 55.83856964111328 58.487388610839844 57.19793701171875 L76.00532531738281 78.64555358886719 C77.115478515625 80.00492858886719 76.91390991210938 82.00687408447266 75.5545425415039 83.11742401123047 C74.96430969238281 83.59944915771484 74.25298309326172 83.83421325683594 73.54595184326172 83.83421325683594 Z"></path>
<path fill="#B0E046" fill-opacity="1.0"  filling="0" d="M120.04821014404297 0.41757965087890625 C119.1814193725586 0.280853271484375 117.65524291992188 0.0851593017578125 115.70095825195312 0.01641082763671875 C98.06388092041016 -0.6039047241210938 84.94631958007812 16.32770538330078 89.9533462524414 33.250328063964844 C90.8385009765625 36.24172592163086 91.7642822265625 38.0968017578125 91.7642822265625 38.0968017578125 C91.7642822265625 38.0968017578125 93.79200744628906 38.53000259399414 96.90958404541016 38.63937759399414 C114.5466537475586 39.25969314575195 127.66421508789062 22.328086853027344 122.65718078613281 5.40545654296875 C122.10250854492188 3.5300750732421875 121.53141021728516 2.101165771484375 121.18257904052734 1.2960891723632812 C120.97946166992188 0.8277359008789062 120.55289459228516 0.49726104736328125 120.04821014404297 0.41757965087890625 Z"></path>
<path fill="#A4C93D" fill-opacity="1.0"  filling="0" d="M96.90997314453125 38.64133071899414 C93.79279327392578 38.53156280517578 91.76388549804688 38.097190856933594 91.76388549804688 38.097190856933594 C91.76388549804688 38.097190856933594 91.1392822265625 36.84368133544922 90.42365264892578 34.738609313964844 C90.90646362304688 34.77454376220703 91.4263916015625 34.80579376220703 91.9830322265625 34.82415008544922 C109.61932373046875 35.44134521484375 122.73531341552734 18.511680603027344 117.7318115234375 1.5890579223632812 C117.5751724243164 1.0546875 117.4150161743164 0.5589828491210938 117.25953674316406 0.10039520263671875 C118.46969604492188 0.19179534912109375 119.42750549316406 0.31992340087890625 120.04782104492188 0.41757965087890625 C120.54977416992188 0.49648284912109375 120.97750854492188 0.8230438232421875 121.17984771728516 1.2890625 C121.52867889404297 2.0929641723632812 122.10211181640625 3.524993896484375 122.65874481201172 5.405853271484375 C127.66226196289062 22.32886505126953 114.54627227783203 39.25851821899414 96.90997314453125 38.64133071899414 Z"></path>
<path fill="#43A838" fill-opacity="1.0"  filling="0" d="M18.407386779785156 13.476539611816406 C19.57495880126953 13.235519409179688 21.63433837890625 12.871849060058594 24.283157348632812 12.653099060058594 C48.18506622314453 10.680839538574219 67.07721710205078 32.823760986328125 61.36550521850586 56.11708068847656 C60.355743408203125 60.23426055908203 59.217857360839844 62.812381744384766 59.217857360839844 62.812381744384766 C59.217857360839844 62.812381744384766 56.49285888671875 63.53034591674805 52.26786804199219 63.8787841796875 C28.365966796875 65.85104370117188 9.47381591796875 43.70812225341797 15.185516357421875 20.41480255126953 C15.818328857421875 17.83355712890625 16.501922607421875 15.857391357421875 16.923797607421875 14.742164611816406 C17.16949462890625 14.092941284179688 17.727310180664062 13.617164611816406 18.407386779785156 13.476539611816406 Z"></path>
<path fill="#338727" fill-opacity="1.0"  filling="0" d="M52.26708984375 63.881126403808594 C56.49169158935547 63.53190994262695 59.217857360839844 62.812381744384766 59.217857360839844 62.812381744384766 C59.217857360839844 62.812381744384766 59.98503875732422 61.07097625732422 60.82175827026367 58.16746520996094 C60.169029235839844 58.24715805053711 59.46472930908203 58.32293701171875 58.71043395996094 58.38348388671875 C34.80931091308594 60.352622985839844 15.919105529785156 38.21164321899414 21.626914978027344 14.9183349609375 C21.805419921875 14.182785034179688 21.99097442626953 13.499580383300781 22.17261505126953 12.8675537109375 C20.535507202148438 13.069114685058594 19.24371337890625 13.304664611816406 18.40777587890625 13.4769287109375 C17.731605529785156 13.616378784179688 17.171836853027344 14.086692810058594 16.926925659179688 14.732391357421875 C16.504653930664062 15.8460693359375 15.818328857421875 17.826919555664062 15.183174133300781 20.415977478027344 C9.475761413574219 43.70889663696289 28.365570068359375 65.8498764038086 52.26708984375 63.881126403808594 Z"></path>
<path fill="#338727" fill-opacity="1.0"  filling="0" d="M134.6770782470703 110.14549255371094 C132.92201232910156 110.14549255371094 131.49896240234375 108.72283935546875 131.49896240234375 106.96737670898438 C131.49896240234375 81.36781311035156 138.9934844970703 54.34755325317383 154.41064453125 32.08079528808594 C155.4094696044922 30.638221740722656 157.38914489746094 30.27729034423828 158.83290100097656 31.27729034423828 C160.27586364746094 32.27610778808594 160.63563537597656 34.256187438964844 159.63641357421875 35.69953918457031 C144.98019409179688 56.86785888671875 137.85520935058594 82.70413970947266 137.85520935058594 106.9677734375 C137.85520935058594 108.72283935546875 136.43215942382812 110.14549255371094 134.6770782470703 110.14549255371094 Z"></path>
<path fill="#338727" fill-opacity="1.0"  filling="0" d="M135.65521240234375 83.83421325683594 C134.73373413085938 83.83421325683594 133.82005310058594 83.43577575683594 133.19192504882812 82.66625213623047 L115.67400360107422 61.21863555908203 C114.5638427734375 59.8592643737793 114.7654037475586 57.85731506347656 116.1247787475586 56.746768951416016 C117.48493194580078 55.6366081237793 119.48687744140625 55.83856964111328 120.59664154052734 57.19793701171875 L138.1145782470703 78.64555358886719 C139.2247314453125 80.00492858886719 139.02316284179688 82.00687408447266 137.66380310058594 83.11742401123047 C137.0735626220703 83.59944915771484 136.36224365234375 83.83421325683594 135.65521240234375 83.83421325683594 Z"></path>
<path fill="#B0E046" fill-opacity="1.0"  filling="0" d="M182.157470703125 0.41757965087890625 C181.29067993164062 0.280853271484375 179.76449584960938 0.0851593017578125 177.81021118164062 0.01641082763671875 C160.17312622070312 -0.6039047241210938 147.0555877685547 16.32770538330078 152.06260681152344 33.250328063964844 C152.94775390625 36.24172592163086 153.87353515625 38.0968017578125 153.87353515625 38.0968017578125 C153.87353515625 38.0968017578125 155.90126037597656 38.53000259399414 159.01882934570312 38.63937759399414 C176.65591430664062 39.25969314575195 189.77346801757812 22.328086853027344 184.76644897460938 5.40545654296875 C184.21176147460938 3.5300750732421875 183.64065551757812 2.101165771484375 183.29183959960938 1.2960891723632812 C183.08871459960938 0.8277359008789062 182.66213989257812 0.49726104736328125 182.157470703125 0.41757965087890625 Z"></path>
<path fill="#A4C93D" fill-opacity="1.0"  filling="0" d="M159.01922607421875 38.64133071899414 C155.90203857421875 38.53156280517578 153.87313842773438 38.097190856933594 153.87313842773438 38.097190856933594 C153.87313842773438 38.097190856933594 153.24853515625 36.84368133544922 152.53289794921875 34.738609313964844 C153.01573181152344 34.77454376220703 153.53564453125 34.80579376220703 154.09228515625 34.82415008544922 C171.72857666015625 35.44134521484375 184.84457397460938 18.511680603027344 179.841064453125 1.5890579223632812 C179.68441772460938 1.0546875 179.52426147460938 0.5589828491210938 179.36880493164062 0.10039520263671875 C180.57894897460938 0.19179534912109375 181.53675842285156 0.31992340087890625 182.15707397460938 0.41757965087890625 C182.65902709960938 0.49648284912109375 183.08676147460938 0.8230438232421875 183.2891082763672 1.2890625 C183.637939453125 2.0929641723632812 184.21136474609375 3.524993896484375 184.76800537109375 5.405853271484375 C189.77151489257812 22.32886505126953 176.655517578125 39.25851821899414 159.01922607421875 38.64133071899414 Z"></path>
<path fill="#43A838" fill-opacity="1.0"  filling="0" d="M80.51664733886719 13.476539611816406 C81.68421936035156 13.235519409179688 83.74359130859375 12.871849060058594 86.39241027832031 12.653099060058594 C110.29431915283203 10.680839538574219 129.18646240234375 32.823760986328125 123.47476959228516 56.11708068847656 C122.46499633789062 60.23426055908203 121.32711029052734 62.812381744384766 121.32711029052734 62.812381744384766 C121.32711029052734 62.812381744384766 118.60211944580078 63.53034591674805 114.37712860107422 63.8787841796875 C90.4752197265625 65.85104370117188 71.58306884765625 43.70812225341797 77.2947769165039 20.41480255126953 C77.92758178710938 17.83355712890625 78.61117553710938 15.857391357421875 79.03305053710938 14.742164611816406 C79.27875518798828 14.092941284179688 79.8365707397461 13.617164611816406 80.51664733886719 13.476539611816406 Z"></path>
<path fill="#338727" fill-opacity="1.0"  filling="0" d="M114.3763427734375 63.881126403808594 C118.60093688964844 63.53190994262695 121.32711029052734 62.812381744384766 121.32711029052734 62.812381744384766 C121.32711029052734 62.812381744384766 122.09429931640625 61.07097625732422 122.93101501464844 58.16746520996094 C122.27827453613281 58.24715805053711 121.57398986816406 58.32293701171875 120.81969451904297 58.38348388671875 C96.91817474365234 60.35184097290039 78.02836608886719 38.21125411987305 83.73616790771484 14.917938232421875 C83.91468811035156 14.182395935058594 84.10022735595703 13.499191284179688 84.28186798095703 12.867164611816406 C82.64476013183594 13.0687255859375 81.35297393798828 13.304267883300781 80.51702880859375 13.476539611816406 C79.84086608886719 13.615989685058594 79.28109741210938 14.0863037109375 79.03617858886719 14.732002258300781 C78.6139144897461 15.845672607421875 77.92758178710938 17.82653045654297 77.29243469238281 20.41558837890625 C71.58502197265625 43.70889663696289 90.47482299804688 65.8498764038086 114.3763427734375 63.881126403808594 Z"></path>
<path fill="#FD7555" fill-opacity="1.0"  filling="0" d="M144.3895721435547 114.36931610107422 C143.84034729003906 114.2181396484375 143.46456909179688 113.71112060546875 143.46456909179688 113.14158630371094 L143.46456909179688 106.00994873046875 C143.46456909179688 105.30370330810547 142.89190673828125 104.73104858398438 142.1856689453125 104.73104858398438 L125.81382751464844 104.73104858398438 C125.107177734375 104.73104858398438 124.5345230102539 105.30370330810547 124.5345230102539 106.00994873046875 L124.5345230102539 113.14158630371094 C124.5345230102539 113.71150207519531 124.15913391113281 114.2185287475586 123.60953521728516 114.36931610107422 C115.2782974243164 116.65953826904297 108.06151580810547 121.63726806640625 102.9447250366211 128.30990600585938 C97.82794189453125 121.63726806640625 90.61115264892578 116.65953826904297 82.27992248535156 114.36931610107422 C81.73070526123047 114.2181396484375 81.35491943359375 113.71112060546875 81.35491943359375 113.14158630371094 L81.35491943359375 106.00994873046875 C81.35491943359375 105.30370330810547 80.78226470947266 104.73104858398438 80.07601928710938 104.73104858398438 L63.70417404174805 104.73104858398438 C62.9979248046875 104.73104858398438 62.42527389526367 105.30370330810547 62.42527389526367 106.00994873046875 L62.42527389526367 113.14158630371094 C62.42527389526367 113.71150207519531 62.04988479614258 114.2185287475586 61.50027084350586 114.36931610107422 C44.94327163696289 118.92047882080078 32.778846740722656 134.08021545410156 32.778846740722656 152.08291625976562 C32.778846740722656 170.39303588867188 45.36163330078125 185.76174926757812 62.3514404296875 190.01956176757812 C65.0373764038086 190.69261169433594 67.31275939941406 192.4742431640625 68.69713592529297 194.8726806640625 L71.54087829589844 199.79843139648438 C71.69596099853516 200.0671844482422 72.08423614501953 200.0671844482422 72.23931884765625 199.79843139648438 L75.08306121826172 194.8726806640625 C76.46743774414062 192.47463989257812 78.7428207397461 190.6929931640625 81.42874908447266 190.01956176757812 C90.1213150024414 187.84103393554688 97.65410614013672 182.749267578125 102.9443359375 175.8480987548828 C108.23455810546875 182.749267578125 115.76774597167969 187.84103393554688 124.45992279052734 190.01956176757812 C127.14584350585938 190.69261169433594 129.42123413085938 192.4742431640625 130.8056182861328 194.8726806640625 L133.64935302734375 199.79843139648438 C133.804443359375 200.0671844482422 134.19271850585938 200.0671844482422 134.34779357910156 199.79843139648438 L137.1915283203125 194.8726806640625 C138.5762939453125 192.47463989257812 140.85128784179688 190.6929931640625 143.5372314453125 190.01956176757812 C160.52703857421875 185.7613525390625 173.1098175048828 170.39263916015625 173.1098175048828 152.08291625976562 C173.11099243164062 134.08021545410156 160.94656372070312 118.92047882080078 144.3895721435547 114.36931610107422 Z"></path>
<path fill="#EF431D" fill-opacity="1.0"  filling="0" d="M173.10943603515625 152.0817413330078 C173.10943603515625 170.39419555664062 160.5274200439453 185.7613525390625 143.5391845703125 190.0191650390625 C140.8516845703125 190.6949462890625 138.5782470703125 192.4761962890625 137.1915283203125 194.8746337890625 L134.34779357910156 199.80039978027344 C134.1954345703125 200.06600952148438 133.8048095703125 200.06600952148438 133.64857482910156 199.80039978027344 L130.80482482910156 194.8746337890625 C129.42202758789062 192.4761962890625 127.14859008789062 190.6949462890625 124.46109008789062 190.0191650390625 C123.89468383789062 189.8785400390625 123.33218383789062 189.7222900390625 122.77359008789062 189.5543212890625 C123.50016021728516 189.1871337890625 124.27359008789062 188.8980712890625 125.07437133789062 188.6949462890625 C144.3204345703125 183.87074279785156 158.57431030273438 166.46063232421875 158.57431030273438 145.71847534179688 C158.57431030273438 133.730224609375 153.81259155273438 122.85132598876953 146.0704345703125 114.8747787475586 C161.7617950439453 119.96070861816406 173.10943603515625 134.69505310058594 173.10943603515625 152.0817413330078 Z"></path>
<path fill="#EF431D" fill-opacity="1.0"  filling="0" d="M110.9501724243164 152.0817413330078 C110.9501724243164 170.39419555664062 98.36817169189453 185.7613525390625 81.37992095947266 190.0191650390625 C78.69242858886719 190.6949462890625 76.41899108886719 192.4761962890625 75.03227233886719 194.8746337890625 L72.18852996826172 199.80039978027344 C72.03618621826172 200.06600952148438 71.64556884765625 200.06600952148438 71.48931884765625 199.80039978027344 L68.64556884765625 194.8746337890625 C67.26275634765625 192.4761962890625 64.98933410644531 190.6949462890625 62.30183410644531 190.0191650390625 C61.73542785644531 189.8785400390625 61.17292785644531 189.7222900390625 60.61433792114258 189.5543212890625 C61.34090042114258 189.1871337890625 62.11433410644531 188.8980712890625 62.91511535644531 188.6949462890625 C82.16117095947266 183.87074279785156 96.41504669189453 166.46063232421875 96.41504669189453 145.71847534179688 C96.41504669189453 133.730224609375 91.65333557128906 122.85132598876953 83.91117095947266 114.8747787475586 C99.60254669189453 119.96070861816406 110.9501724243164 134.69505310058594 110.9501724243164 152.0817413330078 Z"></path>
<path fill="#EF431D" fill-opacity="1.0"  filling="0" d="M122.56148529052734 150.32041931152344 L112.7431411743164 150.32041931152344 C111.12517547607422 150.32041931152344 109.8134536743164 149.00909423828125 109.8134536743164 147.3907470703125 C109.8134536743164 145.7723846435547 111.12517547607422 144.4610595703125 112.7431411743164 144.4610595703125 L122.56148529052734 144.4610595703125 C124.17945098876953 144.4610595703125 125.49116516113281 145.7723846435547 125.49116516113281 147.3907470703125 C125.49116516113281 149.00909423828125 124.17945098876953 150.32041931152344 122.56148529052734 150.32041931152344 Z"></path>
<path fill="#EF431D" fill-opacity="1.0"  filling="0" d="M162.8614044189453 133.062255859375 L153.04345703125 133.062255859375 C151.4254913330078 133.062255859375 150.11376953125 131.75091552734375 150.11376953125 130.132568359375 C150.11376953125 128.5142059326172 151.4254913330078 127.20288848876953 153.04345703125 127.20288848876953 L162.8614044189453 127.20288848876953 C164.47976684570312 127.20288848876953 165.79107666015625 128.5142059326172 165.79107666015625 130.132568359375 C165.79107666015625 131.75091552734375 164.47976684570312 133.062255859375 162.8614044189453 133.062255859375 Z"></path>
<path fill="#EF431D" fill-opacity="1.0"  filling="0" d="M102.94784545898438 175.86294555664062 L110.53767395019531 175.86294555664062 C112.15486907958984 175.86294555664062 113.46736145019531 174.55435180664062 113.46736145019531 172.93325805664062 C113.46736145019531 171.3160858154297 112.15486907958984 170.00357055664062 110.53767395019531 170.00357055664062 L101.73301696777344 170.00357055664062 C100.9322280883789 170.00357055664062 100.2095718383789 170.32388305664062 99.67832946777344 170.84732055664062 L102.94784545898438 175.86294555664062 Z"></path>
<path fill="#EF431D" fill-opacity="1.0"  filling="0" d="M155.64541625976562 169.96139526367188 L146.84268188476562 169.96139526367188 C145.2247314453125 169.96139526367188 143.9130096435547 168.6500701904297 143.9130096435547 167.03170776367188 C143.9130096435547 165.41336059570312 145.2247314453125 164.10202026367188 146.84268188476562 164.10202026367188 L155.64541625976562 164.10202026367188 C157.26336669921875 164.10202026367188 158.57508850097656 165.41336059570312 158.57508850097656 167.03170776367188 C158.57508850097656 168.6500701904297 157.26336669921875 169.96139526367188 155.64541625976562 169.96139526367188 Z"></path>
<path fill="#EF431D" fill-opacity="1.0"  filling="0" d="M60.45222854614258 150.32041931152344 L50.633888244628906 150.32041931152344 C49.01592254638672 150.32041931152344 47.70420455932617 149.00909423828125 47.70420455932617 147.3907470703125 C47.70420455932617 145.7723846435547 49.01592254638672 144.4610595703125 50.633888244628906 144.4610595703125 L60.45222854614258 144.4610595703125 C62.0701904296875 144.4610595703125 63.38190841674805 145.7723846435547 63.38190841674805 147.3907470703125 C63.38190841674805 149.00909423828125 62.0701904296875 150.32041931152344 60.45222854614258 150.32041931152344 Z"></path>
<path fill="#EF431D" fill-opacity="1.0"  filling="0" d="M100.75215148925781 133.062255859375 L90.9342041015625 133.062255859375 C89.31623077392578 133.062255859375 88.00452423095703 131.75091552734375 88.00452423095703 130.132568359375 C88.00452423095703 128.5142059326172 89.31623077392578 127.20288848876953 90.9342041015625 127.20288848876953 L100.75215148925781 127.20288848876953 C102.3705062866211 127.20288848876953 103.68183135986328 128.5142059326172 103.68183135986328 130.132568359375 C103.68183135986328 131.75091552734375 102.3705062866211 133.062255859375 100.75215148925781 133.062255859375 Z"></path>
<path fill="#EF431D" fill-opacity="1.0"  filling="0" d="M40.838592529296875 175.86294555664062 L48.42842102050781 175.86294555664062 C50.04560852050781 175.86294555664062 51.35810852050781 174.55435180664062 51.35810852050781 172.93325805664062 C51.35810852050781 171.3160858154297 50.04560852050781 170.00357055664062 48.42842102050781 170.00357055664062 L39.62375259399414 170.00357055664062 C38.82297134399414 170.00357055664062 38.100318908691406 170.32388305664062 37.569068908691406 170.84732055664062 L40.838592529296875 175.86294555664062 Z"></path>
<path fill="#EF431D" fill-opacity="1.0"  filling="0" d="M93.53614807128906 169.96139526367188 L84.73342895507812 169.96139526367188 C83.11546325683594 169.96139526367188 81.80374908447266 168.6500701904297 81.80374908447266 167.03170776367188 C81.80374908447266 165.41336059570312 83.11546325683594 164.10202026367188 84.73342895507812 164.10202026367188 L93.53614807128906 164.10202026367188 C95.15411376953125 164.10202026367188 96.46583557128906 165.41336059570312 96.46583557128906 167.03170776367188 C96.46583557128906 168.6500701904297 95.15411376953125 169.96139526367188 93.53614807128906 169.96139526367188 Z"></path></svg>