<svg xmlns="http://www.w3.org/2000/svg" viewBox="0.0 0.0 200.0 200.0" height="200.0px" width="200.0px"><path fill="#EDBB57" fill-opacity="1.0"  filling="0" d="M200.0 100.0 C200.0 155.228515625 155.228515625 200.0 100.0 200.0 C89.7183609008789 200.0 79.80390930175781 198.44882202148438 70.46952819824219 195.56719970703125 C68.8695297241211 195.0734405517578 67.2816390991211 194.53866577148438 65.71835327148438 193.96719360351562 C61.08984375 192.27734375 56.62031173706055 190.2570343017578 52.33867263793945 187.92657470703125 C50.06914138793945 186.6980438232422 47.84882736206055 185.3796844482422 45.68984603881836 183.9796905517578 C45.66523361206055 183.96328735351562 45.63671875 183.94686889648438 45.61211013793945 183.9265594482422 C45.21210861206055 183.66952514648438 44.816017150878906 183.408203125 44.424217224121094 183.14297485351562 C37.599998474121094 178.5714874267578 31.3671875 173.1796875 25.869529724121094 167.11444091796875 C21.183982849121094 161.94296264648438 17.028900146484375 156.2734375 13.502349853515625 150.1999969482422 C13.200393676757812 149.68984985351562 12.910545349121094 149.17538452148438 12.620697021484375 148.65704345703125 C4.579689025878906 134.2570343017578 0.0 117.66133117675781 0.0 100.0 C0.0 44.771480560302734 44.771480560302734 0.0 100.0 0.0 C117.66522979736328 0.0 134.2570343017578 4.579689025878906 148.65704345703125 12.616409301757812 C156.142578125 16.791793823242188 163.03671264648438 21.90625 169.17929077148438 27.79608917236328 C188.17538452148438 45.99609375 200.0 71.61640930175781 200.0 100.0 Z"></path>
<path fill="#F4D984" fill-opacity="1.0"  filling="0" d="M172.2449188232422 75.30624389648438 A72.24492645263672 72.24492645263672 0.0 1 1 27.755081176757812 75.30624389648438 A72.24492645263672 72.24492645263672 0.0 1 1 172.2449188232422 75.30624389648438 Z"></path>
<path fill="#E6E6E6" fill-opacity="1.0"  filling="0" d="M172.55899047851562 67.70625305175781 L52.33867263793945 187.92657470703125 C50.06914138793945 186.6980438232422 47.84882736206055 185.3796844482422 45.68984603881836 183.9796905517578 C31.991798400878906 175.09805297851562 20.596092224121094 162.95938110351562 12.620315551757812 148.65740966796875 L133.0652313232422 28.21210479736328 L172.55899047851562 67.70625305175781 Z"></path>
<path fill="#C4C2C6" fill-opacity="1.0"  filling="0" d="M182.26953125 77.41641235351562 L65.71835327148438 193.96719360351562 C61.08984375 192.27734375 56.62031173706055 190.2570343017578 52.33867263793945 187.92657470703125 C50.06914138793945 186.6980438232422 47.84882736206055 185.3796844482422 45.68984603881836 183.9796905517578 C45.66523361206055 183.96328735351562 45.63671875 183.94686889648438 45.61211013793945 183.9265594482422 C45.21210861206055 183.66952514648438 44.816017150878906 183.408203125 44.424217224121094 183.14297485351562 C43.80390548706055 181.77969360351562 42.91796875 180.0 41.599609375 177.63671875 L162.04454040527344 57.191795349121094 L182.26953125 77.41641235351562 Z"></path>
<path fill="#F45367" fill-opacity="1.0"  filling="0" d="M182.91836547851562 83.11836242675781 L70.46952819824219 195.56719970703125 C61.624610900878906 192.8367156982422 53.29804229736328 188.9140625 45.68984603881836 183.9792938232422 L165.84490966796875 63.82421875 L131.64883422851562 29.62812042236328 L148.65704345703125 12.616012573242188 L158.3468780517578 2.9261703491210938 C162.2488250732422 -0.9757766723632812 168.57968139648438 -0.9757766723632812 172.4816436767578 2.9261703491210938 C174.39178466796875 4.836326599121094 175.408203125 7.3914031982421875 175.408203125 9.995704650878906 C175.408203125 11.220314025878906 175.18359375 12.452735900878906 174.72265625 13.636329650878906 L169.1796875 27.79608917236328 L168.5265655517578 29.46562957763672 C166.5593719482422 34.498443603515625 166.96719360351562 40.14727020263672 169.64491271972656 44.84101486206055 L184.55117797851562 71.0003890991211 C186.7960968017578 74.9429702758789 186.13046264648438 79.90625 182.91836547851562 83.11836242675781 Z"></path>
<path fill="#C4C2C6" fill-opacity="1.0"  filling="0" d="M152.77383422851562 77.1558609008789 L150.75350952148438 79.17578125 L116.42929077148438 44.851566314697266 L118.44921875 42.83125305175781 L152.77383422851562 77.1558609008789 Z"></path>
<path fill="#C4C2C6" fill-opacity="1.0"  filling="0" d="M108.0503921508789 121.61953735351562 L106.03008270263672 123.63945007324219 L71.8355484008789 89.4453125 L73.8558578491211 87.42500305175781 L108.0503921508789 121.61953735351562 Z"></path>
<path fill="#C4C2C6" fill-opacity="1.0"  filling="0" d="M63.271095275878906 166.39492797851562 L61.25078201293945 168.4152374267578 L27.056251525878906 134.220703125 L29.076560974121094 132.2003936767578 L63.271095275878906 166.39492797851562 Z"></path>
<path fill="#C4C2C6" fill-opacity="1.0"  filling="0" d="M123.51171875 77.619140625 L121.49140930175781 79.63945007324219 L101.5660171508789 59.71367263793945 L103.5859375 57.693363189697266 L123.51171875 77.619140625 Z"></path>
<path fill="#C4C2C6" fill-opacity="1.0"  filling="0" d="M109.970703125 93.8148422241211 L107.95038604736328 95.83515930175781 L86.697265625 74.5816421508789 L88.7171859741211 72.56172180175781 L109.970703125 93.8148422241211 Z"></path>
<path fill="#C4C2C6" fill-opacity="1.0"  filling="0" d="M77.69062805175781 120.98905944824219 L75.67031860351562 123.00936889648438 L56.96875 104.30781555175781 L58.98905944824219 102.2874984741211 L77.69062805175781 120.98905944824219 Z"></path>
<path fill="#C4C2C6" fill-opacity="1.0"  filling="0" d="M63.760154724121094 136.962890625 L61.739845275878906 138.9832000732422 L42.019142150878906 119.26250457763672 L44.039451599121094 117.24219512939453 L63.760154724121094 136.962890625 Z"></path>
<path fill="#C4C2C6" fill-opacity="1.0"  filling="0" d="M32.91015625 165.5671844482422 L30.889846801757812 167.58749389648438 L13.501953125 150.19960021972656 C13.199996948242188 149.689453125 12.91015625 149.1750030517578 12.620315551757812 148.65664672851562 L14.310157775878906 146.966796875 L32.91015625 165.5671844482422 Z"></path>
<path fill="#4D4D4D" fill-opacity="1.0"  filling="0" d="M74.8441390991211 118.13906860351562 L72.8238296508789 120.15937805175781 L70.97343444824219 122.00741577148438 C70.30155944824219 122.67890930175781 70.3011703491211 123.767578125 70.97265625 124.439453125 L88.03437042236328 141.50469970703125 L92.11211395263672 137.42694091796875 L96.0101547241211 133.52891540527344 L78.9449234008789 116.46719360351562 C78.2730484008789 115.79570770263672 77.18399047851562 115.79608917236328 76.51289367675781 116.46796417236328 L74.8441390991211 118.13906860351562 Z"></path>
<path fill="#4D4D4D" fill-opacity="1.0"  filling="0" d="M121.19413757324219 71.7874984741211 L119.43672180175781 73.546875 L117.4164047241211 75.56718444824219 L115.65507507324219 77.32695007324219 C114.98320007324219 77.9984359741211 114.98280334472656 79.0875015258789 115.65430450439453 79.75859832763672 L132.71600341796875 96.8238296508789 L140.69140625 88.84843444824219 L123.62617492675781 71.7867202758789 C122.9546890258789 71.115234375 121.86563110351562 71.115234375 121.19413757324219 71.7874984741211 Z"></path>
<path fill="#4D4D4D" fill-opacity="1.0"  filling="0" d="M102.5523452758789 90.43086242675781 L100.79023742675781 92.19140625 C100.11796569824219 92.8628921508789 100.11796569824219 93.95195007324219 100.78984832763672 94.62382507324219 L117.85469055175781 111.6851577758789 L121.84257507324219 107.69725799560547 L125.826171875 103.71366882324219 L108.76406860351562 86.65156555175781 C108.09258270263672 85.98007202148438 107.00390625 85.98007202148438 106.33281707763672 86.65156555175781 L104.5726547241211 88.4117202758789 L102.5523452758789 90.43086242675781 Z"></path>
<path fill="#4D4D4D" fill-opacity="1.0"  filling="0" d="M51.326560974121094 178.21209716796875 L45.61211013793945 183.9265594482422 C38.322269439697266 179.19180297851562 31.685546875 173.5304718017578 25.869140625 167.11444091796875 L28.142578125 164.8410186767578 L30.16289520263672 162.82070922851562 L31.82813262939453 161.1511688232422 C32.501564025878906 160.4816436767578 33.587501525878906 160.4777374267578 34.26094055175781 161.1511688232422 L51.326560974121094 178.21209716796875 Z"></path>
<path fill="#4D4D4D" fill-opacity="1.0"  filling="0" d="M57.870704650878906 135.1125030517578 L56.10859298706055 136.873046875 C55.43633270263672 137.54454040527344 55.43633270263672 138.63360595703125 56.10820007324219 139.30548095703125 L73.17304992675781 156.36680603027344 L77.16093444824219 152.37890625 L81.14453125 148.3953094482422 L64.0824203491211 131.3332061767578 C63.41093826293945 130.66171264648438 62.322265625 130.66171264648438 61.65116882324219 131.3332061767578 L59.891014099121094 133.09335327148438 L57.870704650878906 135.1125030517578 Z"></path>
<path fill="#4D4D4D" fill-opacity="1.0"  filling="0" d="M170.681640625 83.0121078491211 A4.106249809265137 4.106249809265137 0.0 1 1 162.46913146972656 83.0121078491211 A4.106249809265137 4.106249809265137 0.0 1 1 170.681640625 83.0121078491211 Z"></path>
<path fill="#4D4D4D" fill-opacity="1.0"  filling="0" d="M158.8449249267578 94.84883117675781 A4.106249809265137 4.106249809265137 0.0 1 1 150.63241577148438 94.84883117675781 A4.106249809265137 4.106249809265137 0.0 1 1 158.8449249267578 94.84883117675781 Z"></path>
<path fill="#4D4D4D" fill-opacity="1.0"  filling="0" d="M147.00820922851562 106.685546875 A4.106249809265137 4.106249809265137 0.0 1 1 138.7957000732422 106.685546875 A4.106249809265137 4.106249809265137 0.0 1 1 147.00820922851562 106.685546875 Z"></path>
<path fill="#4D4D4D" fill-opacity="1.0"  filling="0" d="M135.17147827148438 118.52656555175781 A4.106249809265137 4.106249809265137 0.0 1 1 126.95899200439453 118.52656555175781 A4.106249809265137 4.106249809265137 0.0 1 1 135.17147827148438 118.52656555175781 Z"></path>
<path fill="#4D4D4D" fill-opacity="1.0"  filling="0" d="M123.33476257324219 130.36328125 A4.106249809265137 4.106249809265137 0.0 1 1 115.12226867675781 130.36328125 A4.106249809265137 4.106249809265137 0.0 1 1 123.33476257324219 130.36328125 Z"></path></svg>