<svg xmlns="http://www.w3.org/2000/svg" viewBox="0.0 0.0 200.0 200.0" height="200.0px" width="200.0px"><path fill="#34ABE0" fill-opacity="1.0"  filling="0" d="M200.0 100.0 C200.0 148.17147827148438 165.9386749267578 188.3878936767578 120.58788299560547 197.8777313232422 C116.79179382324219 198.673828125 112.91445922851562 199.2531280517578 108.97578430175781 199.6042938232422 C106.01641082763672 199.865234375 103.02461242675781 200.0 100.0 200.0 C96.6937484741211 200.0 93.42461395263672 199.84063720703125 90.20390319824219 199.52227783203125 C74.93437194824219 198.04061889648438 60.677345275878906 193.1222686767578 48.20000076293945 185.55508422851562 C39.51835632324219 180.2898406982422 31.701950073242188 173.73475646972656 25.012115478515625 166.16326904296875 C9.444923400878906 148.53475952148438 0.0 125.3671875 0.0 100.0 C0.0 44.771480560302734 44.771480560302734 0.0 100.0 0.0 C155.228515625 0.0 200.0 44.771480560302734 200.0 100.0 Z"></path>
<path fill="#72BBE8" fill-opacity="1.0"  filling="0" d="M183.318359375 83.318359375 A83.318359375 83.318359375 0.0 1 1 16.681640625 83.318359375 A83.318359375 83.318359375 0.0 1 1 183.318359375 83.318359375 Z"></path>
<path fill="#E8E8E8" fill-opacity="1.0"  filling="0" d="M100.92656707763672 139.2488250732422 L100.92656707763672 140.00390625 C100.92656707763672 144.7550811767578 103.17147827148438 149.19570922851562 106.91015625 152.13047790527344 C115.23672485351562 158.66912841796875 120.58788299560547 168.8203125 120.58788299560547 180.232421875 L120.58788299560547 197.87734985351562 C113.9429702758789 199.26953125 107.05703735351562 200.0 100.0 200.0 C70.1429672241211 200.0 43.33866882324219 186.91445922851562 25.012115478515625 166.16326904296875 C27.391799926757812 160.62460327148438 31.130470275878906 155.8039093017578 35.812110900878906 152.13047790527344 C39.546871185302734 149.19570922851562 41.79179763793945 144.7550811767578 41.79179763793945 140.00390625 L41.79179763793945 139.2488250732422 C41.79179763793945 134.49765014648438 39.546871185302734 130.05703735351562 35.812110900878906 127.12226867675781 C27.485549926757812 120.5835952758789 22.134376525878906 110.42851257324219 22.134376525878906 99.02031707763672 L22.134376525878906 80.96328735351562 C22.134376525878906 65.90625 31.448829650878906 53.032814025878906 44.632423400878906 47.77968978881836 C48.787498474121094 46.122657775878906 51.55078125 42.14297103881836 51.55078125 37.66952896118164 L51.55078125 24.538673400878906 L91.17108917236328 24.538673400878906 L91.17108917236328 37.66913986206055 C91.17108917236328 42.142581939697266 93.9300765991211 46.12226486206055 98.08944702148438 47.779296875 C111.2691421508789 53.03242111206055 120.5875015258789 65.90585327148438 120.5875015258789 80.962890625 L120.5875015258789 99.0199203491211 C120.5875015258789 110.42813110351562 115.236328125 120.58319854736328 106.9097671508789 127.12187957763672 C103.17147827148438 130.05703735351562 100.92656707763672 134.498046875 100.92656707763672 139.2488250732422 Z"></path>
<path fill="#D6D6D6" fill-opacity="1.0"  filling="0" d="M91.1714859008789 24.54296875 L91.1714859008789 33.412506103515625 L66.29374694824219 33.412506103515625 C65.11836242675781 33.412506103515625 64.0531234741211 33.890235900878906 63.28164291381836 34.65741729736328 C62.51445388793945 35.42890930175781 62.03671646118164 36.494140625 62.03671646118164 37.66952896118164 C62.03671646118164 42.14726638793945 60.73476791381836 46.11836242675781 58.783592224121094 47.77968978881836 C52.579689025878906 53.032814025878906 48.20000076293945 65.90625 48.20000076293945 80.96757507324219 L48.20000076293945 99.02069854736328 C48.20000076293945 110.42890930175781 50.71445083618164 120.58788299560547 54.6328125 127.12265014648438 C56.38788986206055 130.0613250732422 57.449222564697266 134.494140625 57.449222564697266 139.2492218017578 L57.449222564697266 140.00430297851562 C57.449222564697266 144.75546264648438 56.38788986206055 149.1960906982422 54.6328125 152.12655639648438 C50.71445083618164 158.66952514648438 48.20000076293945 168.8203125 48.20000076293945 180.228515625 L48.20000076293945 185.55508422851562 C39.51835632324219 180.2898406982422 31.701950073242188 173.73475646972656 25.012115478515625 166.16326904296875 C27.387496948242188 160.62030029296875 31.126556396484375 155.8039093017578 35.812110900878906 152.12655639648438 C39.546871185302734 149.1960906982422 41.787498474121094 144.7550811767578 41.787498474121094 140.00430297851562 L41.787498474121094 139.2492218017578 C41.787498474121094 134.494140625 39.546871185302734 130.0613250732422 35.812110900878906 127.12265014648438 C27.47734832763672 120.58788299560547 22.134376525878906 110.42890930175781 22.134376525878906 99.02069854736328 L22.134376525878906 80.96757507324219 C22.134376525878906 65.90625 31.444534301757812 53.032814025878906 44.62812423706055 47.77968978881836 C48.783206939697266 46.11836242675781 51.546485900878906 42.146873474121094 51.546485900878906 37.66952896118164 L51.546485900878906 24.54296875 L91.1714859008789 24.54296875 Z"></path>
<path fill="#EF4152" fill-opacity="1.0"  filling="0" d="M94.03047180175781 8.864448547363281 L94.03047180175781 25.427734375 L48.69257736206055 25.427734375 L48.69257736206055 8.864448547363281 C48.69257736206055 3.9679718017578125 52.66015625 0.000396728515625 57.556640625 0.000396728515625 L85.16015625 0.000396728515625 C90.05703735351562 0.000396728515625 94.03047180175781 3.9679718017578125 94.03047180175781 8.864448547363281 Z"></path>
<path fill="#FF525D" fill-opacity="1.0"  filling="0" d="M94.03047180175781 8.864448547363281 L94.03047180175781 25.427734375 L61.802345275878906 25.427734375 L61.802345275878906 8.864448547363281 C61.802345275878906 3.9679718017578125 65.76992797851562 0.000396728515625 70.66641235351562 0.000396728515625 L85.16015625 0.000396728515625 C90.05703735351562 0.000396728515625 94.03047180175781 3.9679718017578125 94.03047180175781 8.864448547363281 Z"></path>
<path fill="#FCFCFC" fill-opacity="1.0"  filling="0" d="M99.5894546508789 106.4390640258789 L99.5894546508789 106.4390640258789 C94.40625 106.4390640258789 90.20429992675781 102.23710632324219 90.20429992675781 97.05390167236328 L90.20429992675781 74.39375305175781 C90.20429992675781 69.2105484008789 94.40625 65.00859069824219 99.5894546508789 65.00859069824219 L99.5894546508789 65.00859069824219 C104.77265167236328 65.00859069824219 108.974609375 69.2105484008789 108.974609375 74.39375305175781 L108.974609375 97.05390167236328 C108.97500610351562 102.23710632324219 104.77304077148438 106.4390640258789 99.5894546508789 106.4390640258789 Z"></path>
<path fill="#FCFCFC" fill-opacity="1.0"  filling="0" d="M108.97538757324219 188.134765625 L108.97538757324219 199.6042938232422 C106.01641082763672 199.865234375 103.02461242675781 200.0 100.0 200.0 C96.6937484741211 200.0 93.42461395263672 199.84063720703125 90.20390319824219 199.52227783203125 L90.20390319824219 188.13436889648438 C90.20390319824219 182.95077514648438 94.4039077758789 178.7507781982422 99.5875015258789 178.7507781982422 C102.1792984008789 178.7507781982422 104.52617645263672 179.7996063232422 106.22421264648438 181.49765014648438 C107.92655944824219 183.1960906982422 108.97538757324219 185.54296875 108.97538757324219 188.134765625 Z"></path>
<path fill="#4BC999" fill-opacity="1.0"  filling="0" d="M131.61758422851562 138.00115966796875 L131.61758422851562 169.80429077148438 C116.71405792236328 169.80429077148438 107.04725646972656 169.72344970703125 100.81562805175781 167.93124389648438 C97.22305297851562 166.89764404296875 94.18047332763672 164.4921875 92.28125 161.27186584472656 L92.28125 161.27186584472656 C92.28125 161.2707061767578 92.28125 161.26913452148438 92.28007507324219 161.26797485351562 C91.09062194824219 157.9773406982422 89.20820617675781 150.4113311767578 92.08710479736328 144.72811889648438 C93.994140625 140.9617156982422 98.87421417236328 140.85195922851562 100.34648132324219 138.00155639648438 L131.6179656982422 138.00155639648438 L131.6179656982422 138.00115966796875 L131.61758422851562 138.00115966796875 Z"></path>
<path fill="#1E9E67" fill-opacity="1.0"  filling="0" d="M105.45938110351562 99.408203125 L121.32577514648438 131.13983154296875 L107.81758117675781 123.85116577148438 C107.81758117675781 123.85116577148438 105.32734680175781 128.35391235351562 100.34608459472656 138.00079345703125 C98.87383270263672 140.85118103027344 97.1839828491211 144.15194702148438 95.27734375 147.91835021972656 C92.3984375 153.6015625 91.0902328491211 157.97694396972656 92.2796859741211 161.267578125 L75.53671264648438 132.8761749267578 C73.87577819824219 130.0574188232422 73.76016235351562 126.58515930175781 75.2339859008789 123.6636734008789 L82.16093444824219 109.9140625 L69.6546859741211 102.62383270263672 L105.45938110351562 99.408203125 Z"></path>
<path fill="#4BC999" fill-opacity="1.0"  filling="0" d="M198.85311889648438 115.17147827148438 C197.62850952148438 123.2367172241211 195.43670654296875 130.9796905517578 192.404296875 138.2898406982422 C191.861328125 139.60000610351562 191.2898406982422 140.89373779296875 190.68983459472656 142.17538452148438 C189.359375 142.685546875 187.96328735351562 143.0203094482422 186.52655029296875 143.09765625 C182.31015014648438 143.33047485351562 179.775390625 139.15899658203125 176.5714874267578 139.3097686767578 L160.9347686767578 112.22811889648438 L188.47772216796875 96.326171875 C192.93475341796875 104.04492950439453 196.4328155517578 110.15937042236328 198.85311889648438 115.17147827148438 Z"></path>
<path fill="#1E9E67" fill-opacity="1.0"  filling="0" d="M192.40390014648438 138.2898406982422 C187.7468719482422 149.5183563232422 181.10195922851562 159.71835327148438 172.90585327148438 168.44102478027344 L161.3425750732422 169.10235595703125 L161.3019561767578 179.0085906982422 C160.60821533203125 179.55157470703125 159.90194702148438 180.08203125 159.19180297851562 180.60467529296875 L140.591796875 154.1796875 L160.138671875 124.57148742675781 L160.58358764648438 139.91445922851562 C160.58358764648438 139.91445922851562 165.7265625 139.82070922851562 176.5714874267578 139.310546875 C179.775390625 139.15936279296875 183.4816436767578 138.9718780517578 187.69375610351562 138.7390594482422 C189.40390014648438 138.64492797851562 190.97540283203125 138.501953125 192.40390014648438 138.2898406982422 Z"></path>
<path fill="#4BC999" fill-opacity="1.0"  filling="0" d="M123.22383117675781 100.31952667236328 L95.6812515258789 84.41796875 C103.1332015991211 71.51093292236328 108.03633117675781 63.180076599121094 112.70468139648438 58.67929458618164 C115.3960952758789 56.08476257324219 119.00077819824219 54.652732849121094 122.7386703491211 54.61796951293945 L122.7386703491211 54.61796951293945 C122.73983764648438 54.618751525878906 122.74102020263672 54.61953353881836 122.74296569824219 54.618751525878906 C126.1875 55.234371185302734 133.68084716796875 57.38632583618164 137.16366577148438 62.72148513793945 C139.47227478027344 66.2562484741211 137.12733459472656 70.53750610351562 138.85975646972656 73.2378921508789 L123.22383117675781 100.31952667236328 Z"></path>
<path fill="#1E9E67" fill-opacity="1.0"  filling="0" d="M169.72576904296875 96.96211242675781 L134.3117218017578 94.83711242675781 L147.3777313232422 86.783203125 C147.3777313232422 86.783203125 144.7234344482422 82.3753890991211 138.859375 73.23750305175781 C137.126953125 70.53750610351562 135.11367797851562 67.4234390258789 132.80506896972656 63.88945770263672 C129.32266235351562 58.554683685302734 126.1871109008789 55.234371185302734 122.74296569824219 54.618751525878906 L155.7019500732422 54.31484603881836 C158.97381591796875 54.28593826293945 162.03826904296875 55.92148208618164 163.83163452148438 58.65898895263672 L172.27578735351562 71.53280639648438 L184.84219360351562 64.3472671508789 L169.72576904296875 96.96211242675781 Z"></path></svg>