<svg xmlns="http://www.w3.org/2000/svg" viewBox="0.0 0.0 200.0 200.0" height="200.0px" width="200.0px"><path fill="#373C41" fill-opacity="1.0"  filling="0" d="M26.151168823242188 180.42303466796875 C11.731246948242188 180.42303466796875 0.0 168.6921844482422 0.0 154.27264404296875 C0.0 139.8527374267578 11.731246948242188 128.12149047851562 26.151168823242188 128.12149047851562 C40.570701599121094 128.12149047851562 52.30195617675781 139.8527374267578 52.30195617675781 154.27264404296875 C52.30195617675781 168.6921844482422 40.570701599121094 180.42303466796875 26.151168823242188 180.42303466796875 Z M26.151168823242188 138.01795959472656 C17.18866729736328 138.01795959472656 9.896873474121094 145.3093719482422 9.896873474121094 154.27227783203125 C9.896873474121094 163.23477172851562 17.188278198242188 170.5261688232422 26.151168823242188 170.5261688232422 C35.113670349121094 170.5261688232422 42.40508270263672 163.23477172851562 42.40508270263672 154.27227783203125 C42.40508270263672 145.3093719482422 35.113670349121094 138.01795959472656 26.151168823242188 138.01795959472656 Z"></path>
<path fill="#55879B" fill-opacity="1.0"  filling="0" d="M122.80937194824219 159.2218780517578 C120.86796569824219 159.2218780517578 119.02616882324219 158.072265625 118.236328125 156.16757202148438 L100.89141082763672 114.3402328491211 C99.84453582763672 111.81562042236328 101.04219055175781 108.92070770263672 103.56718444824219 107.87383270263672 C106.091796875 106.8277359008789 108.98672485351562 108.0250015258789 110.03359985351562 110.54960632324219 L127.37850952148438 152.376953125 C128.42539978027344 154.9015655517578 127.22734069824219 157.79649353027344 124.703125 158.84335327148438 C124.08320617675781 159.09999084472656 123.4410171508789 159.2218780517578 122.80937194824219 159.2218780517578 Z"></path>
<path fill="#55879B" fill-opacity="1.0"  filling="0" d="M59.115238189697266 156.16757202148438 L41.77031707763672 114.3402328491211 C40.72343826293945 111.81562042236328 41.92108917236328 108.92070770263672 44.44609451293945 107.87383270263672 C46.970703125 106.82733917236328 49.86562728881836 108.02461242675781 50.912498474121094 110.54960632324219 L68.2574234008789 152.376953125 C69.3042984008789 154.9015655517578 68.10664367675781 157.79649353027344 65.5816421508789 158.84335327148438 C63.041011810302734 159.896484375 60.15546798706055 158.67617797851562 59.115238189697266 156.16757202148438 Z"></path>
<path fill="#373C41" fill-opacity="1.0"  filling="0" d="M173.84921264648438 180.42303466796875 C159.42929077148438 180.42303466796875 147.69764709472656 168.69180297851562 147.69764709472656 154.27227783203125 C147.69764709472656 139.8523406982422 159.42929077148438 128.12109375 173.84921264648438 128.12109375 C188.26913452148438 128.12109375 200.0 139.8523406982422 200.0 154.27264404296875 C200.0 168.6921844482422 188.26873779296875 180.42303466796875 173.84921264648438 180.42303466796875 Z M173.84921264648438 138.01795959472656 C164.88671875 138.01795959472656 157.59490966796875 145.3093719482422 157.59490966796875 154.27227783203125 C157.59490966796875 163.23477172851562 164.88671875 170.5261688232422 173.84921264648438 170.5261688232422 C182.81170654296875 170.5261688232422 190.10311889648438 163.23477172851562 190.10311889648438 154.27227783203125 C190.10311889648438 145.3093719482422 182.81170654296875 138.01795959472656 173.84921264648438 138.01795959472656 Z"></path>
<path fill="#6C9BAA" fill-opacity="1.0"  filling="0" d="M167.4640655517578 119.361328125 L164.79063415527344 111.7874984741211 C164.02304077148438 109.61250305175781 161.85272216796875 108.25507354736328 159.5632781982422 108.5179672241211 L105.7933578491211 114.65975952148438 C105.93867492675781 114.09180450439453 105.990234375 113.4898452758789 105.919921875 112.8726577758789 C105.6097640991211 110.15741729736328 103.1546859741211 108.20585632324219 100.44180297851562 108.5179672241211 L43.03984832763672 115.0746078491211 C41.38984680175781 115.26289367675781 39.94453048706055 116.26640319824219 39.19140625 117.74609375 L21.740631103515625 152.02694702148438 C20.064842224121094 155.31797790527344 22.46367645263672 159.22030639648438 26.150390625 159.22030639648438 C60.86484146118164 159.22030639648438 107.63477325439453 159.22030639648438 128.2578125 159.22030639648438 C128.28475952148438 159.22030639648438 128.310546875 159.216796875 128.33749389648438 159.21640014648438 C129.62149047851562 159.25 130.9171905517578 158.7890625 131.9113311767578 157.82577514648438 L166.24063110351562 124.5621109008789 C167.63046264648438 123.21640014648438 168.10781860351562 121.1851577758789 167.4640655517578 119.361328125 Z M46.80546569824219 124.6058578491211 L97.7855453491211 118.78282165527344 L82.23867797851562 149.32383728027344 L34.223045349121094 149.32383728027344 L46.80546569824219 124.6058578491211 Z M126.46444702148438 149.3234405517578 C120.98281860351562 149.3234405517578 101.4140625 149.3234405517578 93.34375 149.3234405517578 L105.9261703491211 124.60546875 L156.76992797851562 118.79804229736328 L157.0753936767578 119.6624984741211 L126.46444702148438 149.3234405517578 Z"></path>
<path fill="#55879B" fill-opacity="1.0"  filling="0" d="M169.15313720703125 155.83203125 L150.1609344482422 98.66484069824219 C149.7156219482422 97.32499694824219 149.86407470703125 95.8589859008789 150.568359375 94.63554382324219 C151.27304077148438 93.412109375 152.466796875 92.54804992675781 153.8488311767578 92.2601547241211 L168.55157470703125 89.201171875 C171.22772216796875 88.64453125 173.84765625 90.36250305175781 174.404296875 93.03788757324219 C174.9609375 95.7132797241211 173.24334716796875 98.333984375 170.5675811767578 98.890625 L161.30508422851562 100.81757354736328 L178.54531860351562 152.7117156982422 C179.40704345703125 155.30508422851562 178.00311279296875 158.10626220703125 175.40975952148438 158.9679718017578 C172.82733154296875 159.82577514648438 170.01837158203125 158.4375 169.15313720703125 155.83203125 Z"></path>
<path fill="#B4D7DC" fill-opacity="1.0"  filling="0" d="M115.87187194824219 114.4242172241211 L93.07344055175781 114.4242172241211 C90.3402328491211 114.4242172241211 88.125 112.2085952758789 88.125 109.47577667236328 C88.125 106.74296569824219 90.34062194824219 104.52734375 93.07344055175781 104.52734375 L115.87187194824219 104.52734375 C118.60468292236328 104.52734375 120.8203125 106.74296569824219 120.8203125 109.47577667236328 C120.8203125 112.2085952758789 118.60468292236328 114.4242172241211 115.87187194824219 114.4242172241211 Z"></path>
<path fill="#B4D7DC" fill-opacity="1.0"  filling="0" d="M56.75078201293945 115.2054672241211 L33.95234680175781 115.2054672241211 C31.219139099121094 115.2054672241211 29.00390625 112.9898452758789 29.00390625 110.25702667236328 C29.00390625 107.52381896972656 31.219528198242188 105.30859375 33.95234680175781 105.30859375 L56.75078201293945 105.30859375 C59.483985900878906 105.30859375 61.69921875 107.52421569824219 61.69921875 110.25702667236328 C61.69921875 112.990234375 59.483985900878906 115.2054672241211 56.75078201293945 115.2054672241211 Z"></path>
<path fill="#FFB69E" fill-opacity="1.0"  filling="0" d="M93.40234375 33.75273132324219 A14.17578125 14.17578125 0.0 1 1 65.05078125 33.75273132324219 A14.17578125 14.17578125 0.0 1 1 93.40234375 33.75273132324219 Z"></path>
<path fill="#FFB69E" fill-opacity="1.0"  filling="0" d="M86.23554992675781 115.1820297241211 C87.490234375 111.771484375 85.77265930175781 107.98554229736328 82.37968444824219 106.6832046508789 L66.74336242675781 100.68086242675781 L79.54061889648438 66.82929229736328 C81.42695617675781 61.888671875 79.4261703491211 56.53593444824219 75.0718765258789 54.873050689697266 L61.01132583618164 49.50429916381836 C56.656639099121094 47.841800689697266 51.59765625 50.49882507324219 49.710941314697266 55.439453125 L36.083984375 91.09062194824219 C33.860931396484375 96.9066390991211 36.76953125 103.4242172241211 42.58280944824219 105.65351104736328 L71.4984359741211 116.74336242675781 L61.642967224121094 143.5339813232422 C60.37577819824219 146.978515625 62.141014099121094 150.79843139648438 65.5855484008789 152.0656280517578 C66.34257507324219 152.34414672851562 67.1171875 152.47616577148438 67.8792953491211 152.47616577148438 C70.58515930175781 152.47616577148438 73.1285171508789 150.81092834472656 74.1171875 148.123046875 L86.23554992675781 115.1820297241211 Z"></path>
<path fill="#3C5A73" fill-opacity="1.0"  filling="0" d="M75.08085632324219 103.88202667236328 L66.74336242675781 100.681640625 L79.54061889648438 66.830078125 C81.42695617675781 61.88945007324219 79.4261703491211 56.53671646118164 75.07148742675781 54.87382888793945 L61.01094055175781 49.50507736206055 C56.656246185302734 47.842185974121094 51.597267150878906 50.499610900878906 49.710548400878906 55.44023513793945 L36.08359146118164 91.0914077758789 C33.86054992675781 96.90741729736328 36.76913833618164 103.42500305175781 42.58242416381836 105.654296875 L64.70429992675781 114.138671875 L75.08085632324219 103.88202667236328 Z"></path>
<path fill="#82BE50" fill-opacity="1.0"  filling="0" d="M35.536720275878906 97.22305297851562 C35.15741729736328 95.2347640991211 35.30859375 93.12031555175781 36.083984375 91.09101104736328 L49.710941314697266 55.439842224121094 C51.597267150878906 50.49921798706055 56.656639099121094 47.842185974121094 61.01132583618164 49.50468444824219 L75.0718765258789 54.873435974121094 C79.42655944824219 56.53593444824219 81.42733764648438 61.88906478881836 79.54061889648438 66.8296890258789 L66.74336242675781 100.68124389648438 L35.536720275878906 97.22305297851562 Z"></path>
<path fill="#FFB69E" fill-opacity="1.0"  filling="0" d="M150.015625 33.75273132324219 A14.17578125 14.17578125 0.0 1 1 121.6640625 33.75273132324219 A14.17578125 14.17578125 0.0 1 1 150.015625 33.75273132324219 Z"></path>
<path fill="#FFB69E" fill-opacity="1.0"  filling="0" d="M142.8484344482422 115.1820297241211 C144.10311889648438 111.771484375 142.3855438232422 107.98554229736328 138.99258422851562 106.6832046508789 L123.35624694824219 100.68086242675781 L136.1535186767578 66.82929229736328 C138.0398406982422 61.888671875 136.0390625 56.53593444824219 131.6847686767578 54.873050689697266 L117.62422180175781 49.50429916381836 C113.26953125 47.841800689697266 108.21055603027344 50.49882507324219 106.3238296508789 55.439453125 L92.6968765258789 91.09062194824219 C90.47383117675781 96.9066390991211 93.3824234008789 103.4242172241211 99.1957015991211 105.65351104736328 L128.111328125 116.74336242675781 L118.25585174560547 143.5339813232422 C116.9886703491211 146.978515625 118.75390625 150.79843139648438 122.19844055175781 152.0656280517578 C122.9554672241211 152.34414672851562 123.73007202148438 152.47616577148438 124.4921875 152.47616577148438 C127.19805145263672 152.47616577148438 129.7414093017578 150.81092834472656 130.73007202148438 148.123046875 L142.8484344482422 115.1820297241211 Z"></path>
<path fill="#3C5A73" fill-opacity="1.0"  filling="0" d="M131.69374084472656 103.88202667236328 L123.35624694824219 100.681640625 L136.1535186767578 66.830078125 C138.0398406982422 61.88945007324219 136.0390625 56.53671646118164 131.6843719482422 54.87382888793945 L117.62382507324219 49.50507736206055 C113.26913452148438 47.842185974121094 108.20976257324219 50.499610900878906 106.32343292236328 55.44023513793945 L92.69647979736328 91.0914077758789 C90.47343444824219 96.90741729736328 93.38203430175781 103.42500305175781 99.1953125 105.654296875 L121.31718444824219 114.138671875 L131.69374084472656 103.88202667236328 Z"></path>
<path fill="#FFA50A" fill-opacity="1.0"  filling="0" d="M92.14961242675781 97.22305297851562 C91.77031707763672 95.2347640991211 91.9214859008789 93.12031555175781 92.6968765258789 91.09101104736328 L106.3238296508789 55.439842224121094 C108.21015930175781 50.49921798706055 113.26953125 47.842185974121094 117.62422180175781 49.50468444824219 L131.6847686767578 54.873435974121094 C136.03944396972656 56.53593444824219 138.0402374267578 61.88906478881836 136.1535186767578 66.8296890258789 L123.35624694824219 100.68124389648438 L92.14961242675781 97.22305297851562 Z"></path>
<path fill="#FFB69E" fill-opacity="1.0"  filling="0" d="M158.88827514648438 98.216796875 L133.52032470703125 94.36640930175781 C131.6339874267578 94.080078125 130.01602172851562 92.8687515258789 129.21054077148438 91.1390609741211 L116.00468444824219 62.787109375 C114.67617797851562 59.93476486206055 115.91133117675781 56.545310974121094 118.76406860351562 55.216407775878906 C121.61602020263672 53.88749694824219 125.00586700439453 55.123050689697266 126.33436584472656 57.97539520263672 L138.25038146972656 83.55819702148438 L160.5984344482422 86.94999694824219 C163.7097625732422 87.4222640991211 165.8488311767578 90.32695007324219 165.37657165527344 93.4378890991211 C164.90545654296875 96.54023742675781 162.00743103027344 98.69062042236328 158.88827514648438 98.216796875 Z"></path>
<path fill="#FA870A" fill-opacity="1.0"  filling="0" d="M122.41639709472656 76.55352020263672 L132.7703094482422 71.7945327758789 L126.3335952758789 57.97578048706055 C125.00508117675781 55.123050689697266 121.61485290527344 53.88789367675781 118.76327514648438 55.216796875 C115.91093444824219 56.545310974121094 114.6753921508789 59.93476486206055 116.00390625 62.787498474121094 L122.41639709472656 76.55352020263672 Z"></path>
<path fill="#FFB69E" fill-opacity="1.0"  filling="0" d="M102.27539825439453 98.216796875 L76.90742492675781 94.36640930175781 C75.0210952758789 94.080078125 73.40312194824219 92.8687515258789 72.59765625 91.1390609741211 L59.39179611206055 62.787109375 C58.06328201293945 59.93476486206055 59.298439025878906 56.545310974121094 62.15078353881836 55.216407775878906 C65.00273132324219 53.88749694824219 68.392578125 55.123050689697266 69.7210922241211 57.97539520263672 L81.6371078491211 83.55819702148438 L103.98515319824219 86.94999694824219 C107.09648132324219 87.4222640991211 109.23554992675781 90.32695007324219 108.76327514648438 93.4378890991211 C108.2925796508789 96.54023742675781 105.39453125 98.69062042236328 102.27539825439453 98.216796875 Z"></path>
<path fill="#6EAA50" fill-opacity="1.0"  filling="0" d="M65.80351257324219 76.55352020263672 L76.15742492675781 71.7945327758789 L69.720703125 57.97578048706055 C68.3921890258789 55.123050689697266 65.001953125 53.88789367675781 62.150390625 55.216796875 C59.29804611206055 56.545310974121094 58.0625 59.93476486206055 59.391014099121094 62.787498474121094 L65.80351257324219 76.55352020263672 Z"></path></svg>