<svg xmlns="http://www.w3.org/2000/svg" viewBox="0.0 0.0 200.0 200.0" height="200.0px" width="200.0px"><path fill="#8f6bdd" fill-opacity="1.0"  filling="0" d="M96.0 82.2582015991211 L2.3726577758789062 130.41368103027344 C-0.791015625 132.041015625 -0.791015625 136.5636749267578 2.3726577758789062 138.19102478027344 L96.0 186.3464813232422 C98.51054382324219 187.6374969482422 101.4898452758789 187.6374969482422 104.0003890991211 186.3464813232422 L197.62734985351562 138.19102478027344 C200.791015625 136.5636749267578 200.791015625 132.041015625 197.62734985351562 130.41368103027344 L104.0 82.2582015991211 C101.4898452758789 80.966796875 98.51054382324219 80.966796875 96.0 82.2582015991211 Z"></path>
<path fill="#8042e0" fill-opacity="1.0"  filling="0" d="M63.23984146118164 136.3371124267578 A22.74531364440918 6.983984470367432 0.0 1 1 17.749221801757812 136.3371124267578 A22.74531364440918 6.983984470367432 0.0 1 1 63.23984146118164 136.3371124267578 Z"></path>
<path fill="#8042e0" fill-opacity="1.0"  filling="0" d="M150.37890625 106.11132049560547 L104.0 129.966796875 C101.48828125 131.259765625 98.51171875 131.259765625 96.0 129.966796875 L49.62109375 106.11132049560547 L96.0 82.259765625 C98.51171875 80.966796875 101.48828125 80.966796875 104.0 82.259765625 L150.37890625 106.11132049560547 Z"></path>
<path fill="#8042e0" fill-opacity="1.0"  filling="0" d="M197.62890625 138.189453125 L104.0 186.345703125 C101.48828125 187.638671875 98.51171875 187.638671875 96.0 186.345703125 L67.421875 171.646484375 C74.5 172.646484375 81.91796875 172.873046875 89.51953125 172.224609375 C129.3046875 168.837890625 160.12890625 142.724609375 162.2578125 112.220703125 L197.62890625 130.412109375 C200.7890625 132.041015625 200.7890625 136.564453125 197.62890625 138.189453125 Z"></path>
<path fill="#c3b9f9" fill-opacity="1.0"  filling="0" d="M40.89179611206055 132.5652313232422 L98.2132797241211 103.08280944824219 C99.3343734741211 102.50624084472656 100.66523742675781 102.50624084472656 101.7867202758789 103.08280944824219 L159.1082000732422 132.5656280517578 C160.52108764648438 133.29257202148438 160.52108764648438 135.3125 159.1082000732422 136.03944396972656 L101.7867202758789 165.52188110351562 C100.6656265258789 166.09844970703125 99.33476257324219 166.09844970703125 98.2132797241211 165.52188110351562 L40.89179611206055 136.0390625 C39.478515625 135.31210327148438 39.47890853881836 133.2917938232422 40.89179611206055 132.5652313232422 Z"></path>
<path fill="#ab97f2" fill-opacity="1.0"  filling="0" d="M63.23828125 136.337890625 C63.23828125 138.794921875 59.109378814697266 140.955078125 52.86328125 142.197265625 L40.890621185302734 136.041015625 C39.480472564697266 135.310546875 39.480472564697266 133.291015625 40.890621185302734 132.564453125 L46.6328125 129.611328125 C56.210933685302734 130.431640625 63.23828125 133.130859375 63.23828125 136.337890625 Z"></path>
<path fill="#ab97f2" fill-opacity="1.0"  filling="0" d="M129.02734375 117.09571075439453 L104.0 129.966796875 C101.48828125 131.259765625 98.51171875 131.259765625 96.0 129.966796875 L70.97265625 117.09571075439453 L98.21484375 103.08397674560547 C99.3359375 102.505859375 100.66407012939453 102.505859375 101.78515625 103.08397674560547 L129.02734375 117.09571075439453 Z"></path>
<path fill="#57eae6" fill-opacity="1.0"  filling="0" d="M96.0 13.653121948242188 L2.3726577758789062 61.80859375 C-0.791015625 63.435935974121094 -0.791015625 67.9585952758789 2.3726577758789062 69.5859375 L96.0 117.74140930175781 C98.51054382324219 119.03241729736328 101.4898452758789 119.03241729736328 104.0003890991211 117.74140930175781 L197.62734985351562 69.5859375 C200.791015625 67.9585952758789 200.791015625 63.435935974121094 197.62734985351562 61.80859375 L104.0 13.653121948242188 C101.4898452758789 12.362113952636719 98.51054382324219 12.362113952636719 96.0 13.653121948242188 Z"></path>
<path fill="#3cd3d3" fill-opacity="1.0"  filling="0" d="M197.62890625 69.5843734741211 L104.0 117.74061584472656 C101.48828125 119.03359985351562 98.51171875 119.03359985351562 96.0 117.74061584472656 L67.421875 103.04141235351562 C74.5 104.04141235351562 81.91796875 104.2679672241211 89.51953125 103.6195297241211 C129.3046875 100.23281860351562 160.12890625 74.1195297241211 162.2578125 43.61562728881836 L197.62890625 61.807029724121094 C200.7890625 63.435935974121094 200.7890625 67.9593734741211 197.62890625 69.5843734741211 Z"></path>
<path fill="#8f6bdd" fill-opacity="1.0"  filling="0" d="M40.89179611206055 63.96015930175781 L98.2132797241211 34.47773742675781 C99.3343734741211 33.90117645263672 100.66523742675781 33.90117645263672 101.7867202758789 34.47773742675781 L159.1082000732422 63.96054458618164 C160.52108764648438 64.6875 160.52108764648438 66.7074203491211 159.1082000732422 67.43437194824219 L101.7867202758789 96.91679382324219 C100.6656265258789 97.49335479736328 99.33476257324219 97.49335479736328 98.2132797241211 96.91679382324219 L40.89179611206055 67.4339828491211 C39.478515625 66.7074203491211 39.47890853881836 64.6871109008789 40.89179611206055 63.96015930175781 Z"></path>
<path fill="#8042e0" fill-opacity="1.0"  filling="0" d="M159.109375 67.435546875 L101.78515625 96.916015625 C100.66407012939453 97.494140625 99.3359375 97.494140625 98.21484375 96.916015625 L71.296875 83.072265625 C76.58203125 84.353515625 82.28515625 85.052734375 88.23046875 85.052734375 C115.03515625 85.052734375 136.890625 70.865234375 137.98046875 53.091793060302734 L159.109375 63.958984375 C160.51953125 64.689453125 160.51953125 66.708984375 159.109375 67.435546875 Z"></path>
<path fill="#ffc751" fill-opacity="1.0"  filling="0" d="M102.87499237060547 55.341796875 L68.5894546508789 46.82343673706055 C64.93046569824219 45.914451599121094 61.91288757324219 49.752342224121094 63.66015625 53.093360900878906 L65.52108764648438 56.651954650878906 C54.965232849121094 63.37812423706055 23.553512573242188 87.12187194824219 28.041015625 129.1730499267578 C28.517967224121094 133.64218139648438 32.283592224121094 137.037109375 36.77812957763672 137.037109375 C40.469139099121094 137.037109375 43.771873474121094 134.7335968017578 45.027339935302734 131.26287841796875 C48.81757354736328 120.7835922241211 59.19023132324219 98.7398452758789 81.9847640991211 88.13750457763672 L85.3792953491211 94.62930297851562 C87.1265640258789 97.9703140258789 92.0 97.68241882324219 93.34101867675781 94.15859985351562 L105.90741729736328 61.14140701293945 C106.84062194824219 58.689453125 105.42031860351562 55.974220275878906 102.87499237060547 55.341796875 Z"></path>
<path fill="#ab97f2" fill-opacity="1.0"  filling="0" d="M159.109375 136.041015625 L101.78515625 165.521484375 C100.66407012939453 166.099609375 99.3359375 166.099609375 98.21484375 165.521484375 L82.1875 157.279296875 C108.28125762939453 151.599609375 127.9765625 136.873046875 132.421875 118.837890625 L159.109375 132.564453125 C160.51953125 133.291015625 160.51953125 135.314453125 159.109375 136.041015625 Z"></path>
<path fill="#ffaf40" fill-opacity="1.0"  filling="0" d="M65.53515625 99.318359375 C53.86328125 110.251953125 47.746097564697266 123.740234375 45.027339935302734 131.263671875 C44.3984375 132.998046875 43.26171875 134.443359375 41.81640625 135.451171875 C40.371097564697266 136.458984375 38.625 137.037109375 36.777339935302734 137.037109375 C32.28515625 137.037109375 28.51953125 133.642578125 28.0390625 129.173828125 C27.3203125 122.44335174560547 27.5234375 116.185546875 28.4140625 110.388671875 C41.9921875 110.669921875 54.875 106.595703125 65.53515625 99.318359375 Z"></path>
<path fill="#ffe059" fill-opacity="1.0"  filling="0" d="M55.886329650878906 63.78242492675781 C49.469139099121094 69.21601104736328 41.90703201293945 77.10038757324219 36.21914291381836 87.501953125 C33.43946075439453 92.58515930175781 35.4453125 98.96211242675781 40.646873474121094 101.51288604736328 L40.828514099121094 101.60195922851562 C45.62226486206055 103.95703125 51.43085861206055 102.20703125 54.09375 97.57734680175781 C57.417972564697266 91.79804992675781 62.26679611206055 84.74101257324219 68.96444702148438 78.0257797241211 C72.779296875 74.20039367675781 72.75312805175781 68.00898742675781 68.84257507324219 64.28164672851562 C68.79296875 64.234375 68.74336242675781 64.1871109008789 68.69413757324219 64.1402359008789 C65.146484375 60.75898361206055 59.62656021118164 60.615234375 55.886329650878906 63.78242492675781 Z"></path>
<path fill="#fff370" fill-opacity="1.0"  filling="0" d="M51.045310974121094 84.08203125 C55.179683685302734 87.3218765258789 61.13437271118164 86.75390625 64.56367492675781 82.7750015258789 C65.9320297241211 81.1871109008789 67.39765930175781 79.5972671508789 68.96484375 78.02616882324219 C72.7796859741211 74.20077514648438 72.75350952148438 68.0093765258789 68.84297180175781 64.28202819824219 C68.7933578491211 64.2347640991211 68.74374389648438 64.1875 68.69453430175781 64.140625 C65.1468734741211 60.759376525878906 59.626953125 60.615623474121094 55.886722564697266 63.78242492675781 C53.97734832763672 65.39921569824219 51.966796875 67.2339859008789 49.93437576293945 69.287109375 C45.796871185302734 73.46757507324219 46.254302978515625 80.32890319824219 50.884765625 83.95585632324219 C50.937889099121094 83.99765014648438 50.99140548706055 84.03984069824219 51.045310974121094 84.08203125 Z"></path>
<path fill="#a5f9f3" fill-opacity="1.0"  filling="0" d="M35.866798400878906 59.70195388793945 C38.84648132324219 62.30624771118164 43.11796951293945 62.81718444824219 46.637107849121094 61.00703048706055 C57.37773132324219 55.482421875 80.3558578491211 43.66718673706055 91.6976547241211 37.835548400878906 C95.599609375 35.82929229736328 97.65898895263672 31.44805145263672 96.720703125 27.162109375 C95.3414077758789 20.862503051757812 88.36836242675781 17.57929229736328 82.63398742675781 20.528907775878906 L37.63593292236328 43.67265701293945 C31.57695770263672 46.7890625 30.54296875 55.04179763793945 35.669921875 59.529296875 C35.73554992675781 59.58672332763672 35.801170349121094 59.64453125 35.866798400878906 59.70195388793945 Z"></path>
<path fill="#defffc" fill-opacity="1.0"  filling="0" d="M60.763282775878906 31.77734375 L51.67343521118164 36.45233917236328 C46.50390625 39.111328125 44.834373474121094 45.696876525878906 48.11015701293945 50.499610900878906 C48.14726638793945 50.55390548706055 48.183982849121094 50.60820770263672 48.221092224121094 50.662113189697266 C50.96952819824219 54.69218444824219 56.29023361206055 56.04218673706055 60.62812042236328 53.81132888793945 C63.568359375 52.29922103881836 66.64726257324219 50.71601104736328 69.7242202758789 49.13397979736328 C75.01249694824219 46.41484069824219 76.6343765258789 39.59804916381836 73.09843444824219 34.816795349121094 C73.05899047851562 34.763671875 73.01953125 34.71015930175781 72.98046875 34.65702819824219 C70.15703582763672 30.833984375 64.990234375 29.603515625 60.763282775878906 31.77734375 Z"></path></svg>