<svg xmlns="http://www.w3.org/2000/svg" viewBox="0.0 0.0 200.0 200.0" height="200.0px" width="200.0px"><path fill="#71dbba" fill-opacity="1.0"  filling="0" d="M197.3589630126953 21.971023559570312 C195.82696533203125 11.997581481933594 188.00241088867188 4.17303466796875 178.0289764404297 2.6410446166992188 C147.25070190429688 -2.0865249633789062 78.98953247070312 -5.828575134277344 31.574241638183594 41.58671951293945 C-31.358154296875 104.51871490478516 12.905433654785156 146.87484741210938 51.13199234008789 148.86801147460938 C53.125152587890625 187.09457397460938 95.48128509521484 231.358154296875 158.4132843017578 168.42616271972656 C205.8289794921875 121.01046752929688 202.08692932128906 52.74969482421875 197.3589630126953 21.971023559570312 Z"></path>
<path fill="#eeedff" fill-opacity="1.0"  filling="0" d="M135.24868774414062 16.850296020507812 C140.12796020507812 21.72997283935547 140.93360900878906 28.835411071777344 137.04788208007812 32.721527099609375 C133.16217041015625 36.60723876953125 126.05633544921875 35.801612854003906 121.17706298828125 30.922332763671875 C116.29737854003906 26.04265594482422 115.49175262451172 18.93682098388672 119.37786865234375 15.051109313964844 C123.26358032226562 11.165390014648438 130.3690185546875 11.971023559570312 135.24868774414062 16.850296020507812 Z"></path>
<path fill="#eeedff" fill-opacity="1.0"  filling="0" d="M183.13400268554688 64.74567413330078 C188.013671875 69.62535095214844 188.81932067871094 76.73078155517578 184.93319702148438 80.61689758300781 C181.0474853515625 84.50261688232422 173.94204711914062 83.69698333740234 169.0623779296875 78.81770324707031 C164.18310546875 73.93802642822266 163.37747192382812 66.83259582519531 167.26318359375 62.946475982666016 C171.14889526367188 59.06076431274414 178.25473022460938 59.866397857666016 183.13400268554688 64.74567413330078 Z"></path>
<path fill="#323d40" fill-opacity="1.0"  filling="0" d="M140.1525115966797 25.26880645751953 C139.38027954101562 25.26880645751953 138.60765075683594 24.9742431640625 138.01852416992188 24.38471221923828 C136.83984375 23.206031799316406 136.83984375 21.295372009277344 138.01852416992188 20.11669921875 L141.6309814453125 16.50421905517578 C142.80966186523438 15.325553894042969 144.72073364257812 15.325553894042969 145.89898681640625 16.50421905517578 C147.07766723632812 17.682891845703125 147.07766723632812 19.59355926513672 145.89898681640625 20.772232055664062 L142.28652954101562 24.38471221923828 C141.69699096679688 24.9742431640625 140.92474365234375 25.26880645751953 140.1525115966797 25.26880645751953 Z"></path>
<path fill="#323d40" fill-opacity="1.0"  filling="0" d="M177.74929809570312 62.8655891418457 C176.97706604003906 62.8655891418457 176.20443725585938 62.57102584838867 175.61489868164062 61.98148727416992 C174.43621826171875 60.80281448364258 174.43621826171875 58.89215087890625 175.61489868164062 57.713478088378906 L179.2273712158203 54.10100173950195 C180.40643310546875 52.92232894897461 182.31710815429688 52.92232894897461 183.49578857421875 54.10100173950195 C184.6744384765625 55.2796745300293 184.6744384765625 57.190338134765625 183.49578857421875 58.36901092529297 L179.88330078125 61.98148727416992 C179.29415893554688 62.57102584838867 178.52154541015625 62.8655891418457 177.74929809570312 62.8655891418457 Z"></path>
<path fill="#323d40" fill-opacity="1.0"  filling="0" d="M163.37423706054688 48.938026428222656 C160.11669921875 48.938026428222656 156.9822998046875 47.649898529052734 154.66641235351562 45.333595275878906 C152.1501007080078 42.81770706176758 150.8470916748047 39.33481216430664 151.0913543701172 35.779075622558594 C151.20562744140625 34.116294860839844 152.6470947265625 32.861968994140625 154.30946350097656 32.97504425048828 C155.97264099121094 33.089332580566406 157.22776794433594 34.52998352050781 157.1134796142578 36.19315719604492 C156.98873901367188 38.00764465332031 157.6527099609375 39.783905029296875 158.934814453125 41.06599807739258 C160.21731567382812 42.34848403930664 161.9959716796875 43.01126480102539 163.80764770507812 42.88732147216797 C165.4708251953125 42.773433685302734 166.91146850585938 44.02857208251953 167.02536010742188 45.691749572753906 C167.1392364501953 47.35492706298828 165.88409423828125 48.795169830322266 164.22091674804688 48.909454345703125 C163.93801879882812 48.928367614746094 163.65553283691406 48.938026428222656 163.37423706054688 48.938026428222656 Z"></path>
<path fill="#30cc9b" fill-opacity="1.0"  filling="0" d="M29.51348114013672 116.4857177734375 C29.51348114013672 57.02494812011719 77.71588897705078 8.82293701171875 137.17666625976562 8.82293701171875 C159.82254028320312 8.82293701171875 180.83099365234375 15.820518493652344 198.16983032226562 27.762977600097656 C197.90945434570312 25.71307373046875 197.63623046875 23.77545166015625 197.35934448242188 21.97142791748047 C195.82736206054688 11.99798583984375 188.00282287597656 4.17303466796875 178.02938842773438 2.6414413452148438 C147.25111389160156 -2.0865249633789062 78.98993682861328 -5.828575134277344 31.57464599609375 41.587120056152344 C-21.617713928222656 94.77867126464844 1.7722320556640625 133.26962280273438 33.36901092529297 145.11428833007812 C30.86035919189453 135.99758911132812 29.51348114013672 126.39959716796875 29.51348114013672 116.4857177734375 Z"></path>
<path fill="#eeedff" fill-opacity="1.0"  filling="0" d="M100.9758529663086 137.57705688476562 L86.96700286865234 123.56820678710938 L100.51307678222656 110.02213287353516 L114.52193450927734 124.03099060058594 C115.91911315917969 125.42816925048828 117.8140869140625 126.21328735351562 119.78994750976562 126.21288299560547 L148.088134765625 126.21247863769531 L148.088134765625 111.31307983398438 L122.87565612792969 111.31307983398438 L111.0490951538086 99.48651885986328 L134.75332641601562 75.78229522705078 L124.21770477294922 65.24667358398438 L100.51348114013672 88.9509048461914 L88.68692016601562 77.12434387207031 L88.68692016601562 51.91227340698242 L73.78711700439453 51.91187286376953 L73.7867202758789 80.2100601196289 C73.7867202758789 82.1859130859375 74.57142639160156 84.08087921142578 75.96861267089844 85.47806549072266 L89.97746276855469 99.48692321777344 L76.43138885498047 113.03299713134766 L62.42253112792969 99.0241470336914 C61.02534866333008 97.62696075439453 59.13037872314453 96.84225463867188 57.15492630004883 96.84225463867188 L28.856735229492188 96.84225463867188 L28.857139587402344 111.74205017089844 L54.068809509277344 111.74205017089844 L65.89537048339844 123.56861114501953 L11.310256958007812 178.15371704101562 C8.400802612304688 181.06317138671875 8.400802612304688 185.78028869628906 11.310256958007812 188.6893310546875 C14.219711303710938 191.598388671875 18.93682098388672 191.59878540039062 21.845870971679688 188.6893310546875 L76.43098449707031 134.10421752929688 L88.2575454711914 145.9307861328125 L88.25794982910156 171.14285278320312 L103.1573486328125 171.14285278320312 L103.1573486328125 142.84507751464844 C103.15814208984375 140.8692169189453 102.37303924560547 138.97463989257812 100.9758529663086 137.57705688476562 Z"></path>
<path fill="#696eb1" fill-opacity="1.0"  filling="0" d="M93.68450927734375 51.91187286376953 A12.447888374328613 12.447888374328613 0.0 1 1 68.78873443603516 51.91187286376953 A12.447888374328613 12.447888374328613 0.0 1 1 93.68450927734375 51.91187286376953 Z"></path>
<path fill="#696eb1" fill-opacity="1.0"  filling="0" d="M160.53602600097656 118.76338195800781 A12.447888374328613 12.447888374328613 0.0 1 1 135.64024353027344 118.76338195800781 A12.447888374328613 12.447888374328613 0.0 1 1 160.53602600097656 118.76338195800781 Z"></path>
<path fill="#696eb1" fill-opacity="1.0"  filling="0" d="M108.15614318847656 171.14285278320312 A12.447888374328613 12.447888374328613 0.0 1 1 83.26036071777344 171.14285278320312 A12.447888374328613 12.447888374328613 0.0 1 1 108.15614318847656 171.14285278320312 Z"></path>
<path fill="#696eb1" fill-opacity="1.0"  filling="0" d="M41.305030822753906 104.29175567626953 A12.447888374328613 12.447888374328613 0.0 1 1 16.409255981445312 104.29175567626953 A12.447888374328613 12.447888374328613 0.0 1 1 41.305030822753906 104.29175567626953 Z"></path>
<path fill="#696eb1" fill-opacity="1.0"  filling="0" d="M147.5042266845703 64.94365692138672 A12.447888374328613 12.447888374328613 0.0 1 1 122.60845184326172 64.94365692138672 A12.447888374328613 12.447888374328613 0.0 1 1 147.5042266845703 64.94365692138672 Z"></path>
<path fill="#4c5698" fill-opacity="1.0"  filling="0" d="M74.36820983886719 56.36177062988281 C74.36820983886719 50.09214782714844 79.45069885253906 45.0096549987793 85.72032165527344 45.0096549987793 C88.44547271728516 45.0096549987793 90.94567108154297 45.97102737426758 92.90261840820312 47.57142639160156 C92.29859161376953 45.94446563720703 91.34607696533203 44.417701721191406 90.03863525390625 43.110260009765625 C85.1774673461914 38.24909591674805 77.2957763671875 38.24909591674805 72.43460845947266 43.110260009765625 C67.57344055175781 47.97142791748047 67.57344055175781 55.85311508178711 72.43460845947266 60.71428298950195 C73.76619720458984 62.045875549316406 75.32514953613281 63.01005935668945 76.98591613769531 63.6120719909668 C75.3517074584961 61.645469665527344 74.36820983886719 59.11871337890625 74.36820983886719 56.36177062988281 Z"></path>
<path fill="#4c5698" fill-opacity="1.0"  filling="0" d="M128.18792724609375 69.39315795898438 C128.18792724609375 63.123538970947266 133.27041625976562 58.04104232788086 139.5400390625 58.04104232788086 C142.26519775390625 58.04104232788086 144.76539611816406 59.00241470336914 146.7223358154297 60.60281753540039 C146.11831665039062 58.97584915161133 145.16580200195312 57.449092864990234 143.8583526611328 56.14164733886719 C138.99717712402344 51.280479431152344 131.11549377441406 51.280479431152344 126.25432586669922 56.14164733886719 C121.39315795898438 61.00281524658203 121.39315795898438 68.88450622558594 126.25432586669922 73.74567413330078 C127.5859146118164 75.07726287841797 129.14486694335938 76.04144287109375 130.80563354492188 76.64346313476562 C129.1714324951172 74.67726135253906 128.18792724609375 72.15010070800781 128.18792724609375 69.39315795898438 Z"></path>
<path fill="#4c5698" fill-opacity="1.0"  filling="0" d="M21.988731384277344 108.74124145507812 C21.988731384277344 102.47162628173828 27.07122802734375 97.38912963867188 33.34083557128906 97.38912963867188 C36.06599044799805 97.38912963867188 38.56619644165039 98.35050201416016 40.523136138916016 99.9509048461914 C39.91911315917969 98.32394409179688 38.96659851074219 96.79718017578125 37.659156799316406 95.48973846435547 C32.79798126220703 90.62857055664062 24.916290283203125 90.62857055664062 20.055130004882812 95.48973846435547 C15.193962097167969 100.35090637207031 15.193962097167969 108.23259735107422 20.055130004882812 113.09375762939453 C21.38671875 114.42534637451172 22.94567108154297 115.38954162597656 24.60643768310547 115.9915542602539 C22.971824645996094 114.02535247802734 21.988731384277344 111.49859619140625 21.988731384277344 108.74124145507812 Z"></path>
<path fill="#4c5698" fill-opacity="1.0"  filling="0" d="M88.83983612060547 175.59275817871094 C88.83983612060547 169.32315063476562 93.92233276367188 164.2406463623047 100.19195556640625 164.2406463623047 C102.91709899902344 164.2406463623047 105.41730499267578 165.2020263671875 107.37425231933594 166.8024139404297 C106.77022552490234 165.17544555664062 105.81770324707031 163.64869689941406 104.51026153564453 162.34124755859375 C99.64909362792969 157.48008728027344 91.76741027832031 157.48008728027344 86.90624237060547 162.34124755859375 C82.04507446289062 167.20240783691406 82.04507446289062 175.0841064453125 86.90624237060547 179.94528198242188 C88.23782348632812 181.27685546875 89.79678344726562 182.2410430908203 91.45755004882812 182.84304809570312 C89.8233413696289 180.87646484375 88.83983612060547 178.34970092773438 88.83983612060547 175.59275817871094 Z"></path>
<path fill="#4c5698" fill-opacity="1.0"  filling="0" d="M141.2197265625 123.21287536621094 C141.2197265625 116.9432601928711 146.30221557617188 111.86076354980469 152.57183837890625 111.86076354980469 C155.29698181152344 111.86076354980469 157.79718017578125 112.82213592529297 159.75413513183594 114.42253112792969 C159.1501007080078 112.79557037353516 158.1975860595703 111.26880645751953 156.89015197753906 109.96136474609375 C152.0289764404297 105.10020446777344 144.14727783203125 105.10020446777344 139.28611755371094 109.96136474609375 C134.42494201660156 114.82254028320312 134.42494201660156 122.70423126220703 139.28611755371094 127.56539154052734 C140.61770629882812 128.89697265625 142.17666625976562 129.8611602783203 143.83743286132812 130.4631805419922 C142.20281982421875 128.49658203125 141.2197265625 125.96981811523438 141.2197265625 123.21287536621094 Z"></path></svg>