<svg xmlns="http://www.w3.org/2000/svg" viewBox="0.0 0.0 200.0 200.0" height="200.0px" width="200.0px"><path fill="#c4a2fc" fill-opacity="1.0"  filling="0" d="M112.5 104.6875 A7.8125 7.8125 0.0 1 1 96.875 104.6875 A7.8125 7.8125 0.0 1 1 112.5 104.6875 Z"></path>
<path fill="#c4a2fc" fill-opacity="1.0"  filling="0" d="M85.9468765258789 178.61248779296875 L134.75625610351562 89.12812805175781 A3.253124952316284 3.253124952316284 0.0 0 1 140.24374389648438 89.12812805175781 L156.47813415527344 118.89375305175781 L166.01251220703125 101.61561584472656 A3.253124952316284 3.253124952316284 0.0 0 1 171.48748779296875 101.61561584472656 L195.40625 144.96875 A65.62812042236328 65.62812042236328 0.0 1 0 85.9468765258789 178.61248779296875 Z M104.6875 90.625 A14.0625 14.0625 0.0 1 1 90.625 104.6875 A14.078125 14.078125 0.0 0 1 104.6875 90.625 Z"></path>
<path fill="#c4a2fc" fill-opacity="1.0"  filling="0" d="M160.0281219482422 125.39999389648438 L184.24374389648438 169.796875 A65.421875 65.421875 0.0 0 0 192.9343719482422 153.42813110351562 L168.75 109.59375 L160.0281219482422 125.39999389648438 Z"></path>
<path fill="#c4a2fc" fill-opacity="1.0"  filling="0" d="M137.5 97.1500015258789 L90.78125 182.80624389648438 A65.28125 65.28125 0.0 0 0 179.9875030517578 175.04061889648438 L137.5 97.1500015258789 Z"></path>
<path fill="#151a6a" fill-opacity="1.0"  filling="0" d="M37.5 115.625 L25.0 115.625 L25.0 34.375 L28.125 34.375 A3.125 3.125 0.0 0 0 28.125 28.125 L25.0 28.125 L25.0 18.75 L28.125 18.75 A3.125 3.125 0.0 0 0 28.125 12.5 L25.0 12.5 L25.0 6.25 A3.125 3.125 0.0 0 0 18.75 6.25 L18.75 12.5 L15.625 12.5 A3.125 3.125 0.0 0 0 15.625 18.75 L18.75 18.75 L18.75 28.125 L15.625 28.125 A3.125 3.125 0.0 0 0 15.625 34.375 L18.75 34.375 L18.75 115.625 L6.25 115.625 A3.125 3.125 0.0 0 0 6.25 121.875 L9.375 121.875 L9.375 146.875 A12.5 12.5 0.0 0 0 34.375 146.875 L34.375 121.875 L37.5 121.875 A3.125 3.125 0.0 0 0 37.5 115.625 Z M28.125 146.875 A6.25 6.25 0.0 0 1 15.625 146.875 L15.625 121.875 L28.125 121.875 L28.125 146.875 Z"></path>
<path fill="#151a6a" fill-opacity="1.0"  filling="0" d="M100.0 115.625 L87.5 115.625 L87.5 34.375 L90.625 34.375 A3.125 3.125 0.0 0 0 90.625 28.125 L87.5 28.125 L87.5 18.75 L90.625 18.75 A3.125 3.125 0.0 0 0 90.625 12.5 L87.5 12.5 L87.5 6.25 A3.125 3.125 0.0 0 0 81.25 6.25 L81.25 12.5 L78.125 12.5 A3.125 3.125 0.0 0 0 78.125 18.75 L81.25 18.75 L81.25 28.125 L78.125 28.125 A3.125 3.125 0.0 0 0 78.125 34.375 L81.25 34.375 L81.25 115.625 L68.75 115.625 A3.125 3.125 0.0 0 0 68.75 121.875 L71.875 121.875 L71.875 146.875 A12.5 12.5 0.0 0 0 96.875 146.875 L96.875 121.875 L100.0 121.875 A3.125 3.125 0.0 0 0 100.0 115.625 Z M90.625 146.875 A6.25 6.25 0.0 0 1 78.125 146.875 L78.125 121.875 L90.625 121.875 L90.625 146.875 Z"></path>
<path fill="#151a6a" fill-opacity="1.0"  filling="0" d="M62.5 46.875 L68.75 46.875 A3.125 3.125 0.0 0 0 68.75 40.625 L65.625 40.625 L65.625 15.625 A12.5 12.5 0.0 0 0 40.625 15.625 L40.625 40.625 L37.5 40.625 A3.125 3.125 0.0 0 0 37.5 46.875 L50.0 46.875 L50.0 128.125 L46.875 128.125 A3.125 3.125 0.0 0 0 46.875 134.375 L50.0 134.375 L50.0 143.75 L46.875 143.75 A3.125 3.125 0.0 0 0 46.875 150.0 L50.0 150.0 L50.0 156.25 A3.125 3.125 0.0 0 0 56.25 156.25 L56.25 150.0 L59.375 150.0 A3.125 3.125 0.0 0 0 59.375 143.75 L56.25 143.75 L56.25 134.375 L59.375 134.375 A3.125 3.125 0.0 0 0 59.375 128.125 L56.25 128.125 L56.25 46.875 L62.5 46.875 Z M46.875 40.625 L46.875 15.625 A6.25 6.25 0.0 0 1 59.375 15.625 L59.375 40.625 L46.875 40.625 Z"></path>
<path fill="#151a6a" fill-opacity="1.0"  filling="0" d="M131.25 40.625 L128.125 40.625 L128.125 15.625 A12.5 12.5 0.0 0 0 103.125 15.625 L103.125 40.625 L100.0 40.625 A3.125 3.125 0.0 0 0 100.0 46.875 L112.5 46.875 L112.5 128.125 L109.375 128.125 A3.125 3.125 0.0 0 0 109.375 134.375 L112.5 134.375 L112.5 143.75 L109.375 143.75 A3.125 3.125 0.0 0 0 109.375 150.0 L112.5 150.0 L112.5 156.25 A3.125 3.125 0.0 0 0 118.75 156.25 L118.75 150.0 L121.875 150.0 A3.125 3.125 0.0 0 0 121.875 143.75 L118.75 143.75 L118.75 134.375 L121.875 134.375 A3.125 3.125 0.0 0 0 121.875 128.125 L118.75 128.125 L118.75 46.875 L131.25 46.875 A3.125 3.125 0.0 0 0 131.25 40.625 Z M121.875 40.625 L109.375 40.625 L109.375 15.625 A6.25 6.25 0.0 0 1 121.875 15.625 L121.875 40.625 Z"></path></svg>