<svg xmlns="http://www.w3.org/2000/svg" viewBox="0.0 0.0 200.0 200.0" height="200.0px" width="200.0px"><path fill="#edebdc" fill-opacity="1.0"  filling="0" d="M146.48800659179688 88.0 A60.0 60.0 0.0 1 1 26.487991333007812 88.0 A60.0 60.0 0.0 1 1 146.48800659179688 88.0 Z"></path>
<path fill="#a9ba5a" fill-opacity="1.0"  filling="0" d="M82.48799896240234 166.6666717529297 L82.48799896240234 164.31134033203125 C82.48799896240234 161.84800720214844 84.11066436767578 159.67868041992188 86.4739990234375 158.9840087890625 L93.55667114257812 156.90066528320312 C94.89933013916016 156.50601196289062 95.82132720947266 155.27334594726562 95.82132720947266 153.87400817871094 C95.82132720947266 152.9493408203125 95.4260025024414 152.0800018310547 94.72000122070312 151.482666015625 C91.79467010498047 149.0086669921875 84.47599792480469 140.84201049804688 90.86933135986328 124.8586654663086 L114.40133666992188 124.8586654663086 L114.48799896240234 166.6666717529297 L82.48799896240234 166.6666717529297 Z"></path>
<path fill="#4c241d" fill-opacity="1.0"  filling="0" d="M114.48799896240234 169.33334350585938 L82.48799896240234 169.33334350585938 C81.01533508300781 169.33334350585938 79.82133483886719 168.13934326171875 79.82133483886719 166.6666717529297 L79.82133483886719 164.31134033203125 C79.82133483886719 160.69000244140625 82.24732971191406 157.44667053222656 85.7213363647461 156.42466735839844 L92.8046646118164 154.34133911132812 C93.01200103759766 154.28134155273438 93.1546630859375 154.0886688232422 93.1546630859375 153.87400817871094 C93.1546630859375 153.77267456054688 93.12732696533203 153.62933349609375 92.99866485595703 153.52000427246094 C90.11199951171875 151.07867431640625 81.25132751464844 141.72467041015625 88.3933334350586 123.8673324584961 C88.79800415039062 122.85533905029297 89.77999877929688 122.19133758544922 90.8699951171875 122.19133758544922 L114.40133666992188 122.19133758544922 C115.871337890625 122.19133758544922 117.06533813476562 123.38134002685547 117.06800842285156 124.85267639160156 L117.15533447265625 166.66134643554688 C117.15666961669922 167.3693389892578 116.87667083740234 168.04934692382812 116.37667083740234 168.55067443847656 C115.87466430664062 169.052001953125 115.19666290283203 169.33334350585938 114.48799896240234 169.33334350585938 Z M85.17200469970703 164.0 L111.8166732788086 164.0 L111.73999786376953 127.52467346191406 L92.7179946899414 127.52467346191406 C88.1606674194336 140.5586700439453 93.73999786376953 147.16000366210938 96.44332885742188 149.44667053222656 C97.74266815185547 150.5453338623047 98.4886703491211 152.15867614746094 98.4886703491211 153.87400817871094 C98.4886703491211 156.4393310546875 96.7699966430664 158.7360076904297 94.30866241455078 159.45867919921875 L87.2266616821289 161.54200744628906 C86.1066665649414 161.871337890625 85.2979965209961 162.85667419433594 85.17200469970703 164.0 Z"></path>
<path fill="#a9ba5a" fill-opacity="1.0"  filling="0" d="M63.41533279418945 97.40399932861328 L44.51933288574219 105.50200653076172 C39.91266632080078 107.4766616821289 34.60199737548828 105.0913314819336 33.01666259765625 100.336669921875 L32.039329528808594 97.40399932861328 L30.555999755859375 98.14599609375 C27.0433349609375 99.90267181396484 22.772003173828125 98.47866821289062 21.015335083007812 94.96600341796875 L19.832000732421875 92.59933471679688 C17.823333740234375 88.5826644897461 19.013336181640625 83.70199584960938 22.64533233642578 81.0606689453125 L40.51466751098633 68.0653305053711 C50.970001220703125 60.461334228515625 65.61933135986328 62.83866882324219 73.13333129882812 73.3586654663086 C77.07133483886719 78.87133026123047 82.10133361816406 83.51533508300781 87.9106674194336 87.00067138671875 L88.76333618164062 87.51200103759766 C95.31533813476562 91.44332885742188 102.65599822998047 93.8759994506836 110.2586669921875 94.63666534423828 L125.78067016601562 96.18866729736328 C132.6400146484375 96.87466430664062 139.23133850097656 99.01799774169922 145.4040069580078 102.08800506591797 C153.92466735839844 106.32599639892578 168.32867431640625 110.1500015258789 181.07467651367188 97.40399932861328 C181.07467651367188 97.40399932861328 184.15867614746094 112.82333374023438 152.04200744628906 127.25466918945312 C144.15066528320312 130.80067443847656 135.6366729736328 132.8453369140625 127.00200653076172 133.38467407226562 L101.80532836914062 134.95933532714844 C86.21334075927734 135.9340057373047 72.00599670410156 126.03666687011719 67.51666259765625 111.07333374023438 L63.41533279418945 97.40399932861328 Z"></path>
<path fill="#4c241d" fill-opacity="1.0"  filling="0" d="M99.65066528320312 137.69400024414062 C83.67399597167969 137.69400024414062 69.60932922363281 127.33200073242188 64.96199798583984 111.83999633789062 L61.720001220703125 101.03266143798828 L45.56999969482422 107.95333099365234 C42.68733215332031 109.18799591064453 39.39799880981445 109.1606674194336 36.54132843017578 107.87533569335938 C33.68333435058594 106.5926742553711 31.477333068847656 104.15267181396484 30.486663818359375 101.18000030517578 L30.449996948242188 101.0693359375 C28.457992553710938 101.73467254638672 26.311996459960938 101.7386703491211 24.28333282470703 101.06266021728516 C21.805328369140625 100.23600006103516 19.797332763671875 98.49466705322266 18.62999725341797 96.15933227539062 L17.44666290283203 93.79199981689453 C14.845329284667969 88.58733367919922 16.372665405273438 82.32599639892578 21.0780029296875 78.90533447265625 L38.94533157348633 65.90933227539062 C44.582000732421875 61.809329986572266 51.47266387939453 60.16600036621094 58.35533142089844 61.28333282470703 C65.23399353027344 62.400665283203125 71.2526626586914 66.13866424560547 75.30332946777344 71.809326171875 C79.052001953125 77.0566635131836 83.75533294677734 81.39933013916016 89.28266143798828 84.71533203125 L90.13533782958984 85.22733306884766 C96.30866241455078 88.9306640625 103.35933685302734 91.26799774169922 110.52466583251953 91.98400115966797 L126.04667663574219 93.53600311279297 C132.81600952148438 94.21334075927734 139.72866821289062 96.2873306274414 146.59066772460938 99.70133209228516 C155.24533081054688 104.0060043334961 167.92933654785156 106.77666473388672 179.1893310546875 95.52066802978516 C179.8833465576172 94.8239974975586 180.90133666992188 94.56866455078125 181.84800720214844 94.85400390625 C182.7880096435547 95.13933563232422 183.49667358398438 95.9193344116211 183.6893310546875 96.8826675415039 C183.83267211914062 97.59732818603516 186.80267333984375 114.56133270263672 153.13333129882812 129.6886749267578 C145.00933837890625 133.3386688232422 136.27267456054688 135.47799682617188 127.16734313964844 136.04800415039062 L101.97066497802734 137.62200927734375 C101.19400024414062 137.66934204101562 100.42066192626953 137.69400024414062 99.65066528320312 137.69400024414062 Z M63.41533279418945 94.73799896240234 C63.800662994384766 94.73799896240234 64.18733215332031 94.82132720947266 64.54399871826172 94.98932647705078 C65.232666015625 95.3106689453125 65.75132751464844 95.91133880615234 65.97000122070312 96.63800048828125 L70.07133483886719 110.30733489990234 C74.22466278076172 124.15867614746094 87.22866821289062 133.21200561523438 101.63800048828125 132.29800415039062 L126.83467102050781 130.7239990234375 C135.29800415039062 130.19400024414062 143.41134643554688 128.2086639404297 150.9493408203125 124.82266235351562 C168.0586700439453 117.13400268554688 174.57933044433594 109.31732940673828 177.0366668701172 104.10800170898438 C164.4686737060547 112.18199920654297 151.44134521484375 108.06732940673828 144.2166748046875 104.4766616821289 C137.93267822265625 101.35066986083984 131.64266967773438 99.45467376708984 125.51600646972656 98.8426742553711 L109.9939956665039 97.2906723022461 C102.05133056640625 96.49666595458984 94.23467254638672 93.90533447265625 87.3913345336914 89.79999542236328 L86.53866577148438 89.28800201416016 C80.38133239746094 85.5926742553711 75.13999938964844 80.75533294677734 70.96466064453125 74.90933227539062 C67.74732971191406 70.40399932861328 62.96599578857422 67.43533325195312 57.5013313293457 66.54866027832031 C52.04199981689453 65.65533447265625 46.56266784667969 66.96533203125 42.08466339111328 70.22200012207031 L24.21600341796875 83.21800231933594 C21.627334594726562 85.10066986083984 20.787330627441406 88.54467010498047 22.218666076660156 91.40666961669922 L23.401992797851562 93.77399444580078 C23.933334350585938 94.836669921875 24.84466552734375 95.62667083740234 25.971328735351562 96.00333404541016 C27.099998474121094 96.37732696533203 28.302001953125 96.29266357421875 29.364662170410156 95.7613296508789 L30.849334716796875 95.02066802978516 C31.539329528808594 94.67333221435547 32.347999572753906 94.64599609375 33.06132507324219 94.94266510009766 C33.77466583251953 95.23799896240234 34.32533264160156 95.82933807373047 34.57066345214844 96.56266021728516 L35.54866027832031 99.49466705322266 C36.07599639892578 101.07933807373047 37.20466613769531 102.3280029296875 38.728668212890625 103.0113296508789 C40.253334045410156 103.69467163085938 41.93799591064453 103.7093276977539 43.470664978027344 103.05266571044922 L62.366668701171875 94.95532989501953 C62.70066833496094 94.80999755859375 63.05866241455078 94.73799896240234 63.41533279418945 94.73799896240234 Z"></path>
<path fill="#4c241d" fill-opacity="1.0"  filling="0" d="M32.04132843017578 100.07132720947266 C31.061996459960938 100.07132720947266 30.12066650390625 99.5320053100586 29.65332794189453 98.59732818603516 C28.994667053222656 97.27933502197266 29.527999877929688 95.6780014038086 30.845993041992188 95.01934051513672 L54.378665924072266 83.2526626586914 C55.70000076293945 82.593994140625 57.297996520996094 83.128662109375 57.9566650390625 84.4453353881836 C58.61532974243164 85.76333618164062 58.082000732421875 87.36466217041016 56.763999938964844 88.0233383178711 L33.23133087158203 99.79000091552734 C32.848663330078125 99.98200225830078 32.44132995605469 100.07132720947266 32.04132843017578 100.07132720947266 Z"></path>
<path fill="#a9ba5a" fill-opacity="1.0"  filling="0" d="M102.63533782958984 113.09200286865234 C102.63533782958984 113.09200286865234 87.45133209228516 135.86801147460938 105.63199615478516 155.27801513671875 C106.2093276977539 155.89466857910156 106.55733489990234 156.70401000976562 106.55733489990234 157.54867553710938 C106.55733489990234 159.079345703125 105.5113296508789 160.41134643554688 104.02466583251953 160.7740020751953 L95.59400177001953 162.83132934570312 C92.59732818603516 163.5626678466797 90.4886703491211 166.2480010986328 90.4886703491211 169.33267211914062 L116.29600524902344 169.33267211914062 C119.71600341796875 169.33267211914062 122.4886703491211 166.55999755859375 122.4886703491211 163.1400146484375 L122.4886703491211 156.23333740234375 C122.4886703491211 156.23333740234375 141.8553466796875 140.5453338623047 137.93333435058594 117.01333618164062"></path>
<path fill="#4c241d" fill-opacity="1.0"  filling="0" d="M116.29533386230469 172.0 L90.48799896240234 172.0 C89.01532745361328 172.0 87.82132720947266 170.80601501464844 87.82132720947266 169.33334350585938 C87.82132720947266 165.0066680908203 90.75733184814453 161.26800537109375 94.96066284179688 160.24066162109375 L103.39266967773438 158.18333435058594 C103.68466186523438 158.11199951171875 103.89000701904297 157.85133361816406 103.89000701904297 157.54800415039062 C103.89000701904297 157.4046630859375 103.81466674804688 157.2393341064453 103.6866683959961 157.10400390625 C84.28400421142578 136.38800048828125 100.25200653076172 111.85800170898438 100.4159927368164 111.61333465576172 C101.23133087158203 110.39066314697266 102.88333129882812 110.06133270263672 104.1086654663086 110.87267303466797 C105.3340072631836 111.6866683959961 105.6673355102539 113.3413314819336 104.85599517822266 114.56800079345703 C104.28665924072266 115.42867279052734 91.0979995727539 135.86199951171875 107.57733154296875 153.4560089111328 C108.6373291015625 154.58599853515625 109.22333526611328 156.04067993164062 109.22333526611328 157.54867553710938 C109.22333526611328 160.31668090820312 107.34600067138672 162.70867919921875 104.65666961669922 163.36534118652344 L96.22600555419922 165.42401123046875 C95.4020004272461 165.62466430664062 94.69066619873047 166.06866455078125 94.1606674194336 166.66734313964844 L116.29467010498047 166.66734313964844 C118.2386703491211 166.66734313964844 119.82067108154297 165.08534240722656 119.82067108154297 163.14134216308594 L119.82067108154297 156.23533630371094 C119.82067108154297 155.43466186523438 120.18400573730469 154.67266845703125 120.80532836914062 154.16600036621094 C120.98733520507812 154.017333984375 138.913330078125 139.11801147460938 135.30267333984375 117.4540023803711 C135.0606689453125 116.00067138671875 136.04200744628906 114.62732696533203 137.49400329589844 114.3846664428711 C138.95733642578125 114.1373291015625 140.3206787109375 115.12533569335938 140.56333923339844 116.57600402832031 C144.2146759033203 138.47866821289062 129.25599670410156 153.73333740234375 125.1546630859375 157.45066833496094 L125.1546630859375 163.1406707763672 C125.1546630859375 168.0260009765625 121.1806640625 172.0 116.29533386230469 172.0 Z"></path>
<path fill="#4c241d" fill-opacity="1.0"  filling="0" d="M46.39133071899414 81.71665954589844 A2.5859999656677246 2.5859999656677246 0.0 1 1 41.219329833984375 81.71665954589844 A2.5859999656677246 2.5859999656677246 0.0 1 1 46.39133071899414 81.71665954589844 Z"></path>
<path fill="#a9ba5a" fill-opacity="1.0"  filling="0" d="M71.25933074951172 113.33333587646484 L58.20866775512695 113.33333587646484 C53.944664001464844 113.33333587646484 50.487998962402344 116.79000091552734 50.487998962402344 121.05400085449219 L50.487998962402344 125.33333587646484 C50.487998962402344 127.54266357421875 52.278663635253906 129.3333282470703 54.487998962402344 129.3333282470703 C56.697330474853516 129.3333282470703 58.487998962402344 127.54266357421875 58.487998962402344 125.33333587646484 C58.487998962402344 123.12400817871094 60.278663635253906 121.33333587646484 62.487998962402344 121.33333587646484 L79.10333251953125 121.33333587646484"></path>
<path fill="#4c241d" fill-opacity="1.0"  filling="0" d="M54.487998962402344 132.0 C50.8120002746582 132.0 47.82133483886719 129.00933837890625 47.82133483886719 125.33333587646484 L47.82133483886719 121.05333709716797 C47.82133483886719 115.3253402709961 52.47999954223633 110.66666412353516 58.2079963684082 110.66666412353516 L71.2586669921875 110.66666412353516 C72.73133087158203 110.66666412353516 73.92533111572266 111.86066436767578 73.92533111572266 113.33333587646484 C73.92533111572266 114.80599975585938 72.73133087158203 116.0 71.2586669921875 116.0 L58.2079963684082 116.0 C55.42133331298828 116.0 53.154666900634766 118.26666259765625 53.154666900634766 121.05333709716797 L53.154666900634766 125.33333587646484 C53.154666900634766 126.0693359375 53.75199890136719 126.66667175292969 54.487998962402344 126.66667175292969 C55.2239990234375 126.66667175292969 55.82133483886719 126.0693359375 55.82133483886719 125.33333587646484 C55.82133483886719 121.65733337402344 58.8120002746582 118.66667175292969 62.487998962402344 118.66667175292969 L79.1026611328125 118.66667175292969 C80.57533264160156 118.66667175292969 81.76933288574219 119.86067199707031 81.76933288574219 121.33333587646484 C81.76933288574219 122.80599975585938 80.57533264160156 124.0 79.1026611328125 124.0 L62.487998962402344 124.0 C61.75199890136719 124.0 61.154666900634766 124.59733581542969 61.154666900634766 125.33333587646484 C61.154666900634766 129.00933837890625 58.16400146484375 132.0 54.487998962402344 132.0 Z"></path></svg>