<svg xmlns="http://www.w3.org/2000/svg" viewBox="0.0 0.0 200.0 200.0" height="200.0px" width="200.0px"><path fill="" fill-opacity="1.0"  filling="0" d="M180.49571228027344 137.7484893798828 L174.34011840820312 139.67507934570312 L188.44363403320312 184.80899047851562 L176.6396942138672 180.09007263183594 L169.33450317382812 187.39688110351562 L157.94024658203125 147.50607299804688 L154.8374481201172 148.38832092285156 L151.73464965820312 147.50001525878906 L140.34039306640625 187.3904266357422 L133.0352020263672 180.0836181640625 L121.23127746582031 184.80255126953125 L135.33477783203125 139.6686248779297 L129.17919921875 137.742431640625 L122.57965087890625 158.86404418945312 L122.57965087890625 127.12316131591797 L116.12808990478516 127.12316131591797 L116.12808990478516 158.06565856933594 L6.451560974121094 158.06565856933594 L6.451560974121094 35.48600769042969 L35.48358154296875 35.48600769042969 L35.48358154296875 6.453987121582031 L116.12808990478516 6.453987121582031 L116.12808990478516 85.7847900390625 L122.57965087890625 85.7847900390625 L122.57965087890625 0.0024261474609375 L30.922332763671875 0.0024261474609375 L0.0 30.924354553222656 L0.0 164.5172119140625 L120.8155517578125 164.5172119140625 L111.02490234375 195.83953857421875 L131.47877502441406 187.65533447265625 L143.531494140625 199.70321655273438 L154.8374481201172 160.13539123535156 L166.14340209960938 199.7060546875 L178.19613647460938 187.65855407714844 L198.64999389648438 195.84237670898438 L180.49571228027344 137.7484893798828 Z M11.012809753417969 29.034446716308594 L29.032020568847656 11.013626098632812 L29.032020568847656 29.034446716308594 L11.012809753417969 29.034446716308594 Z"></path>
<path fill="#f0bc5e" fill-opacity="1.0"  filling="0" d="M154.89874267578125 151.61410522460938 C151.9346466064453 151.61410522460938 148.94960021972656 150.81410217285156 146.33349609375 149.20120239257812 C140.2964324951172 150.14596557617188 134.19607543945312 147.61976623535156 130.6283721923828 142.68795776367188 C124.70301818847656 141.2750701904297 120.0123291015625 136.58438110351562 118.59944152832031 130.65902709960938 C113.67729949951172 127.09171295166016 111.13821411132812 120.97563171386719 112.08658599853516 114.97125244140625 C108.8890380859375 109.91685485839844 108.86080932617188 103.19432830810547 112.08941650390625 97.94598388671875 C111.13175964355469 91.93232727050781 113.66924285888672 85.80696868896484 118.6026611328125 82.2392578125 C120.01555633544922 76.31390380859375 124.70584869384766 71.62321472167969 130.631591796875 70.2103271484375 C134.19891357421875 65.2881851196289 140.3057098388672 62.74909591674805 146.31776428222656 63.697471618652344 C151.37538146972656 60.50798416137695 158.10275268554688 60.4716911315918 163.34463500976562 63.70069885253906 C169.37240600585938 62.74586486816406 175.47882080078125 65.28173065185547 179.04974365234375 70.21354675292969 C184.97511291503906 71.62643432617188 189.66580200195312 76.31713104248047 191.0786895751953 82.24248504638672 C196.00244140625 85.81019592285156 198.5399169921875 91.92627716064453 197.591552734375 97.93025970458984 C200.78909301757812 102.98464965820312 200.81732177734375 109.70718383789062 197.58831787109375 114.95552062988281 C198.5459747314453 120.96918487548828 196.00848388671875 127.09454345703125 191.07546997070312 130.66224670410156 C189.66256713867188 136.58761596679688 184.97189331054688 141.27828979492188 179.04653930664062 142.69119262695312 C175.47598266601562 147.6133270263672 169.356689453125 150.14596557617188 163.36036682128906 149.20404052734375 C160.82449340820312 150.8028106689453 157.86968994140625 151.6092529296875 154.89874267578125 151.61410522460938 Z"></path>
<path fill="" fill-opacity="1.0"  filling="0" d="M154.8374481201172 138.71096801757812 C137.0500946044922 138.71096801757812 122.57965087890625 124.23892211914062 122.57965087890625 106.45317077636719 C122.57965087890625 88.66581726074219 137.0500946044922 74.19537353515625 154.8374481201172 74.19537353515625 C172.62481689453125 74.19537353515625 187.09524536132812 88.66581726074219 187.09524536132812 106.45317077636719 C187.09524536132812 124.23892211914062 172.62481689453125 138.71096801757812 154.8374481201172 138.71096801757812 Z M154.8374481201172 80.64692687988281 C140.60812377929688 80.64692687988281 129.0312042236328 92.2238540649414 129.0312042236328 106.45317077636719 C129.0312042236328 120.68087768554688 140.60812377929688 132.25941467285156 154.8374481201172 132.25941467285156 C169.0667724609375 132.25941467285156 180.64369201660156 120.68087768554688 180.64369201660156 106.45317077636719 C180.64369201660156 92.2238540649414 169.0667724609375 80.64692687988281 154.8374481201172 80.64692687988281 Z"></path>
<path fill="" fill-opacity="1.0"  filling="0" d="M154.8374481201172 125.80785369873047 C145.9443817138672 125.80785369873047 138.70855712890625 120.01919555664062 138.70855712890625 112.90473175048828 C138.70855712890625 105.78826141357422 145.9443817138672 100.0016098022461 154.8374481201172 100.0016098022461 C163.73052978515625 100.0016098022461 170.9663543701172 105.78826141357422 170.9663543701172 112.90473175048828 C170.9663543701172 120.01919555664062 163.73052978515625 125.80785369873047 154.8374481201172 125.80785369873047 Z M154.8374481201172 106.45317077636719 C149.5923309326172 106.45317077636719 145.1601104736328 109.40637969970703 145.1601104736328 112.90473175048828 C145.1601104736328 116.40147399902344 149.5923309326172 119.35629272460938 154.8374481201172 119.35629272460938 C160.0825653076172 119.35629272460938 164.51480102539062 116.40147399902344 164.51480102539062 112.90473175048828 C164.51480102539062 109.40637969970703 160.0825653076172 106.45317077636719 154.8374481201172 106.45317077636719 Z"></path>
<path fill="" fill-opacity="1.0"  filling="0" d="M158.063232421875 90.32427215576172 C158.063232421875 92.10570526123047 156.618896484375 93.550048828125 154.8374481201172 93.550048828125 C153.05601501464844 93.550048828125 151.61166381835938 92.10570526123047 151.61166381835938 90.32427215576172 C151.61166381835938 88.54122161865234 153.05601501464844 87.0984878540039 154.8374481201172 87.0984878540039 C156.618896484375 87.0984878540039 158.063232421875 88.54122161865234 158.063232421875 90.32427215576172 Z"></path>
<path fill="" fill-opacity="1.0"  filling="0" d="M145.1601104736328 96.77583312988281 C145.1601104736328 98.55726623535156 143.71575927734375 100.0016098022461 141.934326171875 100.0016098022461 C140.15289306640625 100.0016098022461 138.70855712890625 98.55726623535156 138.70855712890625 96.77583312988281 C138.70855712890625 94.99278259277344 140.15289306640625 93.550048828125 141.934326171875 93.550048828125 C143.71575927734375 93.550048828125 145.1601104736328 94.99278259277344 145.1601104736328 96.77583312988281 Z"></path>
<path fill="" fill-opacity="1.0"  filling="0" d="M170.9663543701172 96.77583312988281 C170.9663543701172 98.55726623535156 169.52200317382812 100.0016098022461 167.74057006835938 100.0016098022461 C165.95913696289062 100.0016098022461 164.51480102539062 98.55726623535156 164.51480102539062 96.77583312988281 C164.51480102539062 94.99278259277344 165.95913696289062 93.550048828125 167.74057006835938 93.550048828125 C169.52200317382812 93.550048828125 170.9663543701172 94.99278259277344 170.9663543701172 96.77583312988281 Z"></path>
<path fill="#f0bc5e" fill-opacity="1.0"  filling="0" d="M58.06404495239258 100.0016098022461 L12.903121948242188 100.0016098022461 L12.903121948242188 41.93756866455078 L58.06404495239258 41.93756866455078 L58.06404495239258 100.0016098022461 Z"></path>
<path fill="" fill-opacity="1.0"  filling="0" d="M64.51560974121094 12.905548095703125 L70.9671630859375 12.905548095703125 L70.9671630859375 19.35710906982422 L64.51560974121094 19.35710906982422 L64.51560974121094 12.905548095703125 Z"></path>
<path fill="" fill-opacity="1.0"  filling="0" d="M77.4187240600586 12.905548095703125 L109.67652893066406 12.905548095703125 L109.67652893066406 19.35710906982422 L77.4187240600586 19.35710906982422 L77.4187240600586 12.905548095703125 Z"></path>
<path fill="" fill-opacity="1.0"  filling="0" d="M64.51560974121094 25.808670043945312 L70.9671630859375 25.808670043945312 L70.9671630859375 32.260223388671875 L64.51560974121094 32.260223388671875 L64.51560974121094 25.808670043945312 Z"></path>
<path fill="" fill-opacity="1.0"  filling="0" d="M77.4187240600586 25.808670043945312 L109.67652893066406 25.808670043945312 L109.67652893066406 32.260223388671875 L77.4187240600586 32.260223388671875 L77.4187240600586 25.808670043945312 Z"></path>
<path fill="" fill-opacity="1.0"  filling="0" d="M64.51560974121094 54.8406867980957 L109.67652893066406 54.8406867980957 L109.67652893066406 61.2922477722168 L64.51560974121094 61.2922477722168 L64.51560974121094 54.8406867980957 Z"></path>
<path fill="" fill-opacity="1.0"  filling="0" d="M64.51560974121094 67.74380493164062 L109.67652893066406 67.74380493164062 L109.67652893066406 74.19537353515625 L64.51560974121094 74.19537353515625 L64.51560974121094 67.74380493164062 Z"></path>
<path fill="" fill-opacity="1.0"  filling="0" d="M64.51560974121094 80.64692687988281 L103.22496795654297 80.64692687988281 L103.22496795654297 87.0984878540039 L64.51560974121094 87.0984878540039 L64.51560974121094 80.64692687988281 Z"></path>
<path fill="" fill-opacity="1.0"  filling="0" d="M12.903121948242188 106.45317077636719 L58.06404495239258 106.45317077636719 L58.06404495239258 112.90473175048828 L12.903121948242188 112.90473175048828 L12.903121948242188 106.45317077636719 Z"></path>
<path fill="" fill-opacity="1.0"  filling="0" d="M12.903121948242188 119.35629272460938 L58.06404495239258 119.35629272460938 L58.06404495239258 125.80785369873047 L12.903121948242188 125.80785369873047 L12.903121948242188 119.35629272460938 Z"></path>
<path fill="" fill-opacity="1.0"  filling="0" d="M12.903121948242188 132.25941467285156 L58.06404495239258 132.25941467285156 L58.06404495239258 138.71096801757812 L12.903121948242188 138.71096801757812 L12.903121948242188 132.25941467285156 Z"></path>
<path fill="" fill-opacity="1.0"  filling="0" d="M12.903121948242188 145.16253662109375 L58.06404495239258 145.16253662109375 L58.06404495239258 151.61410522460938 L12.903121948242188 151.61410522460938 L12.903121948242188 145.16253662109375 Z"></path>
<path fill="" fill-opacity="1.0"  filling="0" d="M64.51560974121094 106.45317077636719 L103.22496795654297 106.45317077636719 L103.22496795654297 112.90473175048828 L64.51560974121094 112.90473175048828 L64.51560974121094 106.45317077636719 Z"></path>
<path fill="" fill-opacity="1.0"  filling="0" d="M64.51560974121094 119.35629272460938 L103.22496795654297 119.35629272460938 L103.22496795654297 125.80785369873047 L64.51560974121094 125.80785369873047 L64.51560974121094 119.35629272460938 Z"></path>
<path fill="" fill-opacity="1.0"  filling="0" d="M64.51560974121094 132.25941467285156 L109.67652893066406 132.25941467285156 L109.67652893066406 138.71096801757812 L64.51560974121094 138.71096801757812 L64.51560974121094 132.25941467285156 Z"></path>
<path fill="" fill-opacity="1.0"  filling="0" d="M64.51560974121094 145.16253662109375 L109.67652893066406 145.16253662109375 L109.67652893066406 151.61410522460938 L64.51560974121094 151.61410522460938 L64.51560974121094 145.16253662109375 Z"></path></svg>