<svg xmlns="http://www.w3.org/2000/svg" viewBox="0.0 0.0 200.0 200.0" height="200.0px" width="200.0px"><path fill="#7f5d46" fill-opacity="1.0"  filling="0" d="M35.0234375 168.3046875 L58.33203125 166.91015625 C55.8359375 167.46875 53.703125 168.77734375 51.699222564697266 170.1484375 C49.3359375 171.76953125 49.992191314697266 175.1640625 52.30859375 176.1484375 L32.10546875 176.1484375 A2.3570311069488525 2.3570311069488525 0.0 0 1 30.015625 172.703125 L31.13671875 170.5546875 A5.008203029632568 5.008203029632568 0.0 0 1 35.0234375 168.3046875 Z"></path>
<path fill="#7f5d46" fill-opacity="1.0"  filling="0" d="M69.65234375 128.59765625 C74.43359375 133.40234375 79.14453125 133.9609375 79.14453125 133.9609375 C79.22265625 134.0703125 79.30859375 134.1796875 79.390625 134.28515625 A40.39960861206055 40.39960861206055 0.0 0 1 87.1953125 152.23046875 A67.0003890991211 67.0003890991211 0.0 0 1 88.0703125 159.20703125 C88.3828125 164.1015625 85.73828125 166.41015625 80.828125 166.5546875 C79.703125 166.58984375 78.40625 166.63671875 77.015625 166.6875 C83.1875 151.6328125 69.65234375 128.59765625 69.65234375 128.59765625 Z"></path>
<path fill="#8f8891" fill-opacity="1.0"  filling="0" d="M75.1953125 105.43359375 C73.13671875 114.19921875 72.97265625 125.73828887939453 79.14453125 133.9609375 C79.14453125 133.9609375 74.43359375 133.40234375 69.65234375 128.59765625 C67.2421875 126.17578125 64.8203125 122.6796875 62.96875 117.63671875 A23.025781631469727 23.025781631469727 0.0 0 0 61.89453125 115.16015625 C61.89453125 115.16015625 68.34765625 117.37109375 75.1953125 105.43359375 Z"></path>
<path fill="#7f5d46" fill-opacity="1.0"  filling="0" d="M33.6875 98.3046875 L33.6328125 98.375 C32.6484375 101.73828887939453 28.1015625 104.67969512939453 27.0625 105.58984375 C21.375 110.58983612060547 20.09375 114.640625 19.875 116.78125 A31.668359756469727 31.668359756469727 0.0 0 1 18.9296875 121.984375 L18.4296875 123.77342987060547 A4.483984470367432 4.483984470367432 0.0 0 1 9.7578125 121.4921875 C10.203125 119.765625 10.98046875 117.84375 12.33203125 116.3671875 C16.453125 111.8671875 22.99609375 96.58984375 27.83203125 90.734375 A20.04765510559082 20.04765510559082 0.0 0 0 33.6875 98.3046875 Z"></path>
<path fill="#7f5d46" fill-opacity="1.0"  filling="0" d="M28.65234375 30.65234375 L28.65234375 30.65625762939453 C26.9765625 34.6640625 28.25390625 37.64453125 28.25390625 37.64453125 A9.934765815734863 9.934765815734863 0.0 0 0 22.7734375 38.046871185302734 C22.7734375 38.046871185302734 16.38671875 30.9609375 21.8203125 22.2890625 C21.8203125 22.2890625 28.2578125 24.890625 28.65234375 30.65234375 Z"></path>
<path fill="#9b7254" fill-opacity="1.0"  filling="0" d="M95.60546875 136.953125 A63.67655944824219 63.67655944824219 0.0 0 0 95.296875 146.53515625 C95.6484375 156.046875 96.21484375 162.85546875 96.72265625 167.4453125 C97.18359375 171.578125 93.9296875 176.421875 89.76171875 176.421875 L53.6875 176.421875 A3.473437547683716 3.473437547683716 0.0 0 1 52.30859375 176.1484375 C49.992191314697266 175.1640625 49.3359375 171.76953125 51.699222564697266 170.1484375 C53.703125 168.77734375 55.8359375 167.46875 58.33203125 166.91015625 A11.61757755279541 11.61757755279541 0.0 0 1 62.050785064697266 166.6875 C66.078125 167.078125 72.1328125 166.87109375 77.015625 166.6875 C78.40625 166.63671875 79.703125 166.58984375 80.828125 166.5546875 C85.73828125 166.41015625 88.3828125 164.1015625 88.0703125 159.20703125 A67.0003890991211 67.0003890991211 0.0 0 0 87.1953125 152.23046875 A40.39960861206055 40.39960861206055 0.0 0 0 79.390625 134.28515625 C79.30859375 134.1796875 79.22265625 134.0703125 79.14453125 133.9609375 C72.97265625 125.73828887939453 73.13671875 114.19921875 75.1953125 105.43359375 C68.34765625 117.37109375 61.89453125 115.16015625 61.89453125 115.16015625 C57.1171875 105.73828125 48.105464935302734 105.1171875 48.105464935302734 105.1171875 C48.105464935302734 105.1171875 43.082035064697266 113.08984375 38.546871185302734 117.07421875 C32.859375 122.07421875 31.578125 126.125 31.359375 128.265625 A31.668359756469727 31.668359756469727 0.0 0 1 30.4140625 133.46875 L29.9140625 135.2578125 A4.483984470367432 4.483984470367432 0.0 0 1 21.2421875 132.9765625 C21.6875 131.25 22.46484375 129.328125 23.81640625 127.8515625 C27.93749237060547 123.3515625 31.3359375 111.38671875 36.16796875 105.53516387939453 A10.044140815734863 10.044140815734863 0.0 0 0 38.33203125 100.85546875 A16.658594131469727 16.658594131469727 0.0 0 1 33.6875 98.3046875 A20.04765510559082 20.04765510559082 0.0 0 1 27.83203125 90.734375 A25.200780868530273 25.200780868530273 0.0 0 1 25.8046875 77.125 C27.078125 67.58203125 19.8046875 61.117191314697266 19.8046875 61.117191314697266 C16.98046875 60.796875 12.8046875 60.9453125 10.16796875 61.679683685302734 A3.567187547683716 3.567187547683716 0.0 0 1 6.421875 60.4140625 L4.90234375 58.480472564697266 A2.8246092796325684 2.8246092796325684 0.0 0 1 5.6015625 54.3515625 C8.30859375 52.63671875 12.26953125 49.7421875 13.69921875 46.7421875 C15.06640625 43.859375 18.38671875 39.6171875 22.7734375 38.046871185302734 A9.934765815734863 9.934765815734863 0.0 0 1 28.25390625 37.64453125 C28.25390625 37.64453125 26.9765625 34.6640625 28.65234375 30.65625762939453 L28.65234375 30.65234375 C29.7109375 28.11328125 31.953125 25.16015625 36.453128814697266 22.2890625 C36.453128814697266 22.2890625 44.38671875 33.65234375 33.98046875 42.996097564697266 C33.98046875 42.996097564697266 38.90234375 46.453125 38.437496185302734 53.75390625 C37.929691314697266 61.7421875 41.23046875 73.91796875 57.992191314697266 68.58984375 C74.75390625 63.26171875 99.0078125 51.09375 119.19921875 75.9453125 C119.19921875 75.9453125 140.0625 101.72265625 134.5390625 132.89453125 C129.015625 164.06640625 141.97265625 168.9453125 195.703125 170.0078125 C156.03125 180.37890625 138.19140625 181.15625 122.55078125 166.91015625 C109.30078125 154.83984375 116.31640625 131.18359375 118.09764862060547 125.93360137939453 A0.38359373807907104 0.38359373807907104 0.0 0 0 117.51953125 125.4921875 A39.38945388793945 39.38945388793945 0.0 0 0 112.125 130.046875 C103.99610137939453 138.0703125 95.60546875 136.953125 95.60546875 136.953125 Z"></path>
<path fill="#af8061" fill-opacity="1.0"  filling="0" d="M36.453128814697266 22.2890625 C31.953125 25.16015625 29.7109375 28.11328125 28.65234375 30.65234375 L28.65234375 30.65625762939453 C26.9765625 34.6640625 28.25390625 37.64453125 28.25390625 37.64453125 A9.934765815734863 9.934765815734863 0.0 0 0 22.7734375 38.046871185302734 C18.38671875 39.6171875 15.06640625 43.859375 13.69921875 46.7421875 C12.26953125 49.7421875 8.30859375 52.63671875 5.6015625 54.3515625 A2.8246092796325684 2.8246092796325684 0.0 0 0 4.90234375 58.480472564697266 L6.421875 60.4140625 A3.567187547683716 3.567187547683716 0.0 0 0 10.16796875 61.679683685302734 L13.146087646484375 58.78632736206055 A89.4839859008789 89.4839859008789 0.0 0 1 20.851951599121094 52.163673400878906 C22.880470275878906 50.59765625 24.879302978515625 48.69219207763672 25.80859375 46.7421875 C27.17578125 43.859375 30.49609375 39.6171875 34.8828125 38.046871185302734 A10.186717987060547 10.186717987060547 0.0 0 1 38.15234375 37.43476867675781 C41.607810974121094 29.67578125 36.453128814697266 22.2890625 36.453128814697266 22.2890625 Z"></path>
<path fill="#af8061" fill-opacity="1.0"  filling="0" d="M95.296875 146.53515625 C95.2125015258789 144.26953125 95.23164367675781 142.19686889648438 95.33085632324219 140.298828125 A23.3515625 23.3515625 0.0 0 0 86.72734069824219 132.33242797851562 A21.015625 21.015625 0.0 0 1 81.76171875 128.59765625 C79.3515625 126.17578125 76.9296875 122.6796875 75.078125 117.63671875 A23.06913948059082 23.06913948059082 0.0 0 0 73.9339828491211 115.02265930175781 L73.93046569824219 115.02265930175781 C73.74922180175781 121.61054992675781 75.05586242675781 128.5128936767578 79.14453125 133.96014404296875 C79.22265625 134.06951904296875 79.30859375 134.17889404296875 79.390625 134.2843780517578 A40.39960861206055 40.39960861206055 0.0 0 1 87.1953125 152.2296905517578 A67.0003890991211 67.0003890991211 0.0 0 1 88.0703125 159.20623779296875 C88.3828125 164.10076904296875 85.73828125 166.40936279296875 80.828125 166.55389404296875 C79.703125 166.58905029296875 78.40625 166.6359405517578 77.015625 166.68670654296875 C76.37187194824219 166.7109375 75.70703125 166.73553466796875 75.02969360351562 166.7589874267578 C79.0250015258789 167.0480499267578 84.58125305175781 166.857421875 89.125 166.68670654296875 C90.515625 166.6359405517578 91.8125 166.58905029296875 92.9375 166.55389404296875 A10.691797256469727 10.691797256469727 0.0 0 0 96.55781555175781 165.8898468017578 C96.0960922241211 161.36094665527344 95.6109390258789 155.02850341796875 95.296875 146.53515625 Z"></path>
<path fill="#af8061" fill-opacity="1.0"  filling="0" d="M47.421871185302734 99.42304229736328 A16.926563262939453 16.926563262939453 0.0 0 1 45.79570388793945 98.3046875 A20.04765510559082 20.04765510559082 0.0 0 1 39.94023895263672 90.734375 A25.200780868530273 25.200780868530273 0.0 0 1 37.91289520263672 77.125 A16.987890243530273 16.987890243530273 0.0 0 0 37.45195388793945 70.3695297241211 A12.364062309265137 12.364062309265137 0.0 0 0 22.355857849121094 61.658592224121094 L22.277740478515625 61.68046569824219 A3.4449219703674316 3.4449219703674316 0.0 0 1 20.345314025878906 61.64921951293945 C22.003517150878906 63.37226486206055 26.865234375 69.1800765991211 25.805076599121094 77.12577819824219 A25.200780868530273 25.200780868530273 0.0 0 0 27.832427978515625 90.73515319824219 A20.04765510559082 20.04765510559082 0.0 0 0 33.687889099121094 98.30547332763672 A16.658594131469727 16.658594131469727 0.0 0 0 38.332420349121094 100.85624694824219 A10.044140815734863 10.044140815734863 0.0 0 1 36.16836166381836 105.53593444824219 C31.336334228515625 111.38750457763672 27.937889099121094 123.35234832763672 23.816802978515625 127.85234069824219 C22.465232849121094 129.3289031982422 21.687889099121094 131.25079345703125 21.242576599121094 132.9773406982422 A4.483984470367432 4.483984470367432 0.0 0 0 29.914451599121094 135.2585906982422 L30.414451599121094 133.46954345703125 A31.668359756469727 31.668359756469727 0.0 0 0 31.359771728515625 128.2664031982422 C31.578514099121094 126.12577819824219 32.859764099121094 122.07499694824219 38.547264099121094 117.07500457763672 C43.082420349121094 113.09062194824219 48.105857849121094 105.11796569824219 48.105857849121094 105.11796569824219 C48.105857849121094 105.11796569824219 48.269920349121094 105.13007354736328 48.55859375 105.17149353027344 C48.58671951293945 105.1324234008789 48.61484909057617 105.09687805175781 48.642189025878906 105.05937194824219 A3.9027345180511475 3.9027345180511475 0.0 0 0 47.421871185302734 99.42304229736328 Z"></path>
<path fill="#af8061" fill-opacity="1.0"  filling="0" d="M63.808597564697266 170.1484375 C65.8125 168.77734375 67.9453125 167.46875 70.44140625 166.91015625 C70.4906234741211 166.8992156982422 70.54180145263672 166.89297485351562 70.5914077758789 166.88241577148438 A79.90547180175781 79.90547180175781 0.0 0 1 62.050785064697266 166.68710327148438 A11.61757755279541 11.61757755279541 0.0 0 0 58.33203125 166.90975952148438 C55.8359375 167.46835327148438 53.703125 168.77694702148438 51.699222564697266 170.14804077148438 C49.3359375 171.76913452148438 49.992191314697266 175.16366577148438 52.30859375 176.14804077148438 A3.473437547683716 3.473437547683716 0.0 0 0 53.6875 176.42147827148438 L65.796875 176.42147827148438 A3.473437547683716 3.473437547683716 0.0 0 1 64.41796875 176.14804077148438 C62.1015625 175.1640625 61.4453125 171.76953125 63.808597564697266 170.1484375 Z"></path>
<path fill="#a4a0a5" fill-opacity="1.0"  filling="0" d="M69.65234375 128.59765625 C74.43359375 133.40234375 79.14453125 133.9609375 79.14453125 133.9609375 C75.05586242675781 128.515625 73.75 121.611328125 73.93046569824219 115.0234375 A19.575389862060547 19.575389862060547 0.0 0 0 71.19609069824219 111.00703430175781 C66.0328140258789 116.57032012939453 61.89453125 115.16015625 61.89453125 115.16015625 A23.025781631469727 23.025781631469727 0.0 0 1 62.96875 117.63671875 C64.8203125 122.6796875 67.2421875 126.17578125 69.65234375 128.59765625 Z"></path></svg>