<svg xmlns="http://www.w3.org/2000/svg" viewBox="0.0 0.0 200.0 200.0" height="200.0px" width="200.0px"><path fill="#555a66" fill-opacity="1.0"  filling="0" d="M111.71875 145.52032470703125 L111.71875 185.3515625 L88.28125 185.3515625 L88.28125 145.52032470703125 L111.71875 145.52032470703125 Z"></path>
<path fill="#707789" fill-opacity="1.0"  filling="0" d="M25.78125 83.7890625 C25.78125 75.48320007324219 32.51445007324219 68.75 40.8203125 68.75 L159.1796875 68.75 C167.4855499267578 68.75 174.21875 75.48320007324219 174.21875 83.7890625 C174.21875 124.77890014648438 140.98983764648438 158.0078125 100.0 158.0078125 C59.010154724121094 158.0078125 25.78125 124.77890014648438 25.78125 83.7890625 Z"></path>
<path fill="#636978" fill-opacity="1.0"  filling="0" d="M88.28125 146.2890625 C88.28125 139.81680297851562 93.5277328491211 134.5703125 100.0 134.5703125 L100.0 68.75 L40.8203125 68.75 C32.51445007324219 68.75 25.78125 75.48320007324219 25.78125 83.7890625 C25.78125 124.77890014648438 59.010154724121094 158.0078125 100.0 158.0078125 C93.5277328491211 158.0078125 88.28125 152.76132202148438 88.28125 146.2890625 Z"></path>
<path fill="#e9edf5" fill-opacity="1.0"  filling="0" d="M100.0 134.5703125 C71.95429992675781 134.5703125 49.21875 111.83476257324219 49.21875 83.7890625 L49.21875 53.7109375 C49.21875 25.665237426757812 71.95429992675781 2.9296875 100.0 2.9296875 C128.0457000732422 2.9296875 150.78125 25.665237426757812 150.78125 53.7109375 L150.78125 83.7890625 C150.78125 111.83476257324219 128.0457000732422 134.5703125 100.0 134.5703125 Z"></path>
<path fill="#dce1eb" fill-opacity="1.0"  filling="0" d="M70.80781555175781 83.7890625 L70.80781555175781 53.7109375 C70.80781555175781 29.369918823242188 87.9351577758789 9.032424926757812 110.7945327758789 4.0832061767578125 C107.31523132324219 3.330078125 103.7046890258789 2.9296875 100.0 2.9296875 C71.95429992675781 2.9296875 49.21875 25.665237426757812 49.21875 53.7109375 L49.21875 83.7890625 C49.21875 111.83476257324219 71.95429992675781 134.5703125 100.0 134.5703125 C103.7046890258789 134.5703125 107.31523132324219 134.169921875 110.7945327758789 133.4167938232422 C87.9351577758789 128.46759033203125 70.80781555175781 108.13007354736328 70.80781555175781 83.7890625 Z"></path>
<path fill="#707789" fill-opacity="1.0"  filling="0" d="M135.15625 197.0703125 L64.84375 197.0703125 C58.371482849121094 197.0703125 53.125 191.82382202148438 53.125 185.3515625 C53.125 178.87930297851562 58.371482849121094 173.6328125 64.84375 173.6328125 L135.15625 173.6328125 C141.62850952148438 173.6328125 146.875 178.87930297851562 146.875 185.3515625 C146.875 191.82382202148438 141.62850952148438 197.0703125 135.15625 197.0703125 Z"></path>
<path fill="#636978" fill-opacity="1.0"  filling="0" d="M76.5625 185.3515625 C76.5625 178.87930297851562 81.8089828491211 173.6328125 88.28125 173.6328125 L64.84375 173.6328125 C58.371482849121094 173.6328125 53.125 178.87930297851562 53.125 185.3515625 C53.125 191.82382202148438 58.371482849121094 197.0703125 64.84375 197.0703125 L88.28125 197.0703125 C81.8089828491211 197.0703125 76.5625 191.82382202148438 76.5625 185.3515625 Z"></path>
<path fill="" fill-opacity="1.0"  filling="0" d="M177.1484375 83.7890625 C177.1484375 73.8812484741211 169.08750915527344 65.8203125 159.1796875 65.8203125 L153.7109375 65.8203125 L153.7109375 53.7109375 C153.7109375 24.09453582763672 129.6160125732422 0.0 100.0 0.0 C70.38398742675781 0.0 46.2890625 24.09453582763672 46.2890625 53.7109375 L46.2890625 65.8203125 L40.8203125 65.8203125 C30.912498474121094 65.8203125 22.8515625 73.880859375 22.8515625 83.7890625 C22.8515625 102.14375305175781 29.40741729736328 119.92851257324219 41.31132888793945 133.8664093017578 C41.890621185302734 134.544921875 42.712890625 134.8933563232422 43.540618896484375 134.8933563232422 C44.21366882324219 134.8933563232422 44.88984298706055 134.6628875732422 45.441795349121094 134.19140625 C46.671878814697266 133.140625 46.81757736206055 131.29139709472656 45.76679611206055 130.06094360351562 C34.76836395263672 117.18281555175781 28.7109375 100.75000762939453 28.7109375 83.7890625 C28.7109375 77.11210632324219 34.142974853515625 71.6796875 40.8203125 71.6796875 L46.2890625 71.6796875 L46.2890625 83.7890625 C46.2890625 113.40546417236328 70.38398742675781 137.5 100.0 137.5 C112.2425765991211 137.5 123.77342987060547 133.48788452148438 133.3464813232422 125.89726257324219 C134.6140594482422 124.89179229736328 134.82696533203125 123.04922485351562 133.82188415527344 121.78125 C132.81678771972656 120.5132827758789 130.97421264648438 120.30078125 129.7058563232422 121.30586242675781 C121.17929077148438 128.0671844482422 110.90742492675781 131.640625 100.0 131.640625 C73.61445617675781 131.640625 52.1484375 110.17460632324219 52.1484375 83.7890625 L52.1484375 53.7109375 C52.1484375 27.325393676757812 73.61445617675781 5.859375 100.0 5.859375 C126.38554382324219 5.859375 147.8515625 27.325393676757812 147.8515625 53.7109375 L147.8515625 83.7890625 C147.8515625 94.69609069824219 144.2781219482422 104.96835327148438 137.51718139648438 113.49491882324219 C136.51211547851562 114.76289367675781 136.72500610351562 116.60546875 137.99256896972656 117.61094665527344 C139.2605438232422 118.61563110351562 141.10311889648438 118.40351867675781 142.1085968017578 117.13554382324219 C149.69882202148438 107.56249237060547 153.7109375 96.0316390991211 153.7109375 83.7890625 L153.7109375 71.6796875 L159.1796875 71.6796875 C165.85702514648438 71.6796875 171.2890625 77.11210632324219 171.2890625 83.7890625 C171.2890625 123.09805297851562 139.30899047851562 155.078125 100.0 155.078125 C83.0390625 155.078125 66.60624694824219 149.02108764648438 53.728126525878906 138.0222625732422 C52.498046875 136.9718780517578 50.64804458618164 137.1171875 49.59765625 138.34765625 C48.546875 139.57772827148438 48.69257736206055 141.42733764648438 49.92265701293945 142.47811889648438 C60.105079650878906 151.17422485351562 72.34101104736328 157.01210021972656 85.3515625 159.52891540527344 L85.3515625 170.703125 L64.84375 170.703125 C56.76640701293945 170.703125 50.1953125 177.2742156982422 50.1953125 185.3515625 C50.1953125 193.4289093017578 56.76640701293945 200.0 64.84375 200.0 L135.15625 200.0 C143.2335968017578 200.0 149.8046875 193.4289093017578 149.8046875 185.3515625 C149.8046875 177.2742156982422 143.2335968017578 170.703125 135.15625 170.703125 L114.6484375 170.703125 L114.6484375 159.5363311767578 C150.20663452148438 152.67343139648438 177.1484375 121.32109069824219 177.1484375 83.7890625 Z M143.9453125 185.3515625 C143.9453125 190.19805908203125 140.00234985351562 194.140625 135.15625 194.140625 L64.84375 194.140625 C59.99765396118164 194.140625 56.0546875 190.19805908203125 56.0546875 185.3515625 C56.0546875 180.50506591796875 59.99765396118164 176.5625 64.84375 176.5625 L135.15625 176.5625 C140.00234985351562 176.5625 143.9453125 180.50506591796875 143.9453125 185.3515625 Z M108.7890625 170.703125 L91.2109375 170.703125 L91.2109375 160.4324188232422 C94.1167984008789 160.76602172851562 97.05078125 160.9375 100.0 160.9375 C102.97187805175781 160.9375 105.90351867675781 160.7624969482422 108.7890625 160.43399047851562 L108.7890625 170.703125 Z"></path>
<path fill="" fill-opacity="1.0"  filling="0" d="M102.9296875 25.390625 A2.9296875 2.9296875 0.0 1 1 97.0703125 25.390625 A2.9296875 2.9296875 0.0 1 1 102.9296875 25.390625 Z"></path>
<path fill="" fill-opacity="1.0"  filling="0" d="M91.2109375 37.109375 A2.9296875 2.9296875 0.0 1 1 85.3515625 37.109375 A2.9296875 2.9296875 0.0 1 1 91.2109375 37.109375 Z"></path>
<path fill="" fill-opacity="1.0"  filling="0" d="M114.6484375 37.109375 A2.9296875 2.9296875 0.0 1 1 108.7890625 37.109375 A2.9296875 2.9296875 0.0 1 1 114.6484375 37.109375 Z"></path>
<path fill="" fill-opacity="1.0"  filling="0" d="M102.9296875 112.109375 A2.9296875 2.9296875 0.0 1 1 97.0703125 112.109375 A2.9296875 2.9296875 0.0 1 1 102.9296875 112.109375 Z"></path>
<path fill="" fill-opacity="1.0"  filling="0" d="M114.6484375 100.390625 A2.9296875 2.9296875 0.0 1 1 108.7890625 100.390625 A2.9296875 2.9296875 0.0 1 1 114.6484375 100.390625 Z"></path>
<path fill="" fill-opacity="1.0"  filling="0" d="M91.2109375 100.390625 A2.9296875 2.9296875 0.0 1 1 85.3515625 100.390625 A2.9296875 2.9296875 0.0 1 1 91.2109375 100.390625 Z"></path>
<path fill="" fill-opacity="1.0"  filling="0" d="M72.67655944824219 65.01094055175781 L72.67655944824219 69.69843292236328 C72.67655944824219 71.31640625 73.98788452148438 72.62812042236328 75.60624694824219 72.62812042236328 C77.224609375 72.62812042236328 78.53593444824219 71.31640625 78.53593444824219 69.69843292236328 L78.53593444824219 65.01094055175781 C78.53593444824219 63.392967224121094 77.224609375 62.08124923706055 75.60624694824219 62.08124923706055 C73.98788452148438 62.08124923706055 72.67655944824219 63.392967224121094 72.67655944824219 65.01094055175781 Z"></path>
<path fill="" fill-opacity="1.0"  filling="0" d="M121.46406555175781 65.01094055175781 L121.46406555175781 69.69843292236328 C121.46406555175781 71.31640625 122.775390625 72.62812042236328 124.39375305175781 72.62812042236328 C126.01211547851562 72.62812042236328 127.32344055175781 71.31640625 127.32344055175781 69.69843292236328 L127.32344055175781 65.01094055175781 C127.32344055175781 63.392967224121094 126.01211547851562 62.08124923706055 124.39375305175781 62.08124923706055 C122.775390625 62.08124923706055 121.46406555175781 63.392967224121094 121.46406555175781 65.01094055175781 Z"></path>
<path fill="" fill-opacity="1.0"  filling="0" d="M108.63984680175781 71.48397827148438 C109.703125 70.26406860351562 109.5757827758789 68.4136734008789 108.3558578491211 67.35039520263672 C107.1351547241211 66.287109375 105.28515625 66.4144515991211 104.22225952148438 67.63436889648438 C103.15624237060547 68.8578109741211 101.61719512939453 69.55937957763672 99.99960327148438 69.55937957763672 C98.38203430175781 69.55937957763672 96.8433609008789 68.8578109741211 95.7769546508789 67.63436889648438 C94.7132797241211 66.4144515991211 92.8628921508789 66.2874984741211 91.64335632324219 67.35039520263672 C90.423828125 68.4136734008789 90.2964859008789 70.26406860351562 91.359375 71.48397827148438 C93.5386734008789 73.984375 96.6878890991211 75.41875457763672 99.99922180175781 75.41875457763672 C103.310546875 75.41875457763672 106.4605484008789 73.984375 108.63984680175781 71.48397827148438 Z"></path></svg>