<svg xmlns="http://www.w3.org/2000/svg" viewBox="0.0 0.0 200.0 200.0" height="200.0px" width="200.0px"><path fill="url(#a)" fill-opacity="1.0"  filling="0" d="M72.58064270019531 25.80644989013672 L72.58064270019531 32.25806427001953 L62.90322494506836 32.25806427001953 L62.90322494506836 77.41935729980469 L72.58064270019531 77.41935729980469 L72.58064270019531 83.8709716796875 L79.03225708007812 83.8709716796875 L79.03225708007812 77.41935729980469 L82.25806427001953 77.41935729980469 C89.37419128417969 77.41935729980469 95.16129302978516 71.63225555419922 95.16129302978516 64.51612854003906 C95.16129302978516 60.66814422607422 93.4681396484375 57.202823638916016 90.7842788696289 54.83871078491211 C93.4681396484375 52.47459411621094 95.16129302978516 49.009273529052734 95.16129302978516 45.16128921508789 C95.16129302978516 38.04515838623047 89.37419128417969 32.25806427001953 82.25806427001953 32.25806427001953 L79.03225708007812 32.25806427001953 L79.03225708007812 25.80644989013672 L72.58064270019531 25.80644989013672 Z M82.25806427001953 70.96774291992188 L69.35484313964844 70.96774291992188 L69.35484313964844 58.06451416015625 L82.25806427001953 58.06451416015625 C85.81613159179688 58.06451416015625 88.70967864990234 60.95806121826172 88.70967864990234 64.51612854003906 C88.70967864990234 68.0741958618164 85.81613159179688 70.96774291992188 82.25806427001953 70.96774291992188 Z M88.70967864990234 45.16128921508789 C88.70967864990234 48.71935272216797 85.81613159179688 51.6129035949707 82.25806427001953 51.6129035949707 L69.35484313964844 51.6129035949707 L69.35484313964844 38.709678649902344 L82.25806427001953 38.709678649902344 C85.81613159179688 38.709678649902344 88.70967864990234 41.60322189331055 88.70967864990234 45.16128921508789 Z M51.948387145996094 31.938308715820312 C46.53144836425781 38.3379020690918 43.54838562011719 46.47016143798828 43.54838562011719 54.83871078491211 C43.54838562011719 74.40322875976562 59.467742919921875 90.32257843017578 79.03225708007812 90.32257843017578 C87.40080261230469 90.32257843017578 95.52822875976562 87.33951568603516 101.92943572998047 81.92257690429688 L106.10040283203125 86.84475708007812 C98.53507995605469 93.24919128417969 88.92217254638672 96.7741928100586 79.03225708007812 96.7741928100586 C55.90967559814453 96.7741928100586 37.09677505493164 77.96128845214844 37.09677505493164 54.83871078491211 C37.09677505493164 44.948787689208984 40.626609802246094 35.33588409423828 47.02943420410156 27.77056121826172 L51.948387145996094 31.938308715820312 Z M143.5483856201172 48.3870964050293 L113.97419738769531 48.3870964050293 L113.34878540039062 45.967742919921875 C109.31048583984375 30.300399780273438 95.19757843017578 19.354835510253906 79.03225708007812 19.354835510253906 C70.66371154785156 19.354835510253906 62.53628921508789 22.33789825439453 56.13507843017578 27.754837036132812 L51.964115142822266 22.832664489746094 C59.52943801879883 16.42823028564453 69.142333984375 12.903228759765625 79.03225708007812 12.903228759765625 C97.29717254638672 12.903228759765625 113.34274291992188 24.722579956054688 118.89314270019531 41.935482025146484 L143.5483856201172 41.935482025146484 L143.5483856201172 48.3870964050293 Z M113.37419128417969 63.709678649902344 L113.99636840820312 61.290321350097656 L130.64515686035156 61.290321350097656 L130.64515686035156 67.74193572998047 L118.9092788696289 67.74193572998047 C117.22863006591797 72.91613006591797 114.53829956054688 77.77056884765625 111.0383071899414 81.90685272216797 L106.11290740966797 77.7391128540039 C109.52943420410156 73.70040130615234 112.0383071899414 68.84757995605469 113.37419128417969 63.709678649902344 Z M150.0 48.3870964050293 L150.0 41.935482025146484 L156.4516143798828 41.935482025146484 L156.4516143798828 48.3870964050293 L150.0 48.3870964050293 Z M137.09677124023438 67.74193572998047 L137.09677124023438 61.290321350097656 L143.5483856201172 61.290321350097656 L143.5483856201172 67.74193572998047 L137.09677124023438 67.74193572998047 Z M162.90322875976562 35.48387145996094 L123.37459564208984 35.48387145996094 L122.49395751953125 33.67096710205078 C114.29718017578125 16.88024139404297 97.6451644897461 6.4516143798828125 79.03225708007812 6.4516143798828125 C52.35161209106445 6.4516143798828125 30.645164489746094 28.158065795898438 30.645164489746094 54.83871078491211 C30.645164489746094 81.51935577392578 52.35161209106445 103.2258071899414 79.03225708007812 103.2258071899414 C97.6451644897461 103.2258071899414 114.29718017578125 92.79717254638672 122.49395751953125 76.00645446777344 L123.37459564208984 74.19355010986328 L162.90322875976562 74.19355010986328 L162.90322875976562 80.64515686035156 L127.36412048339844 80.64515686035156 C119.86532592773438 94.71249389648438 106.97782135009766 104.52539825439453 91.93548583984375 108.12903594970703 L91.93548583984375 129.03225708007812 L127.41935729980469 129.03225708007812 L127.41935729980469 135.48387145996094 L85.48387145996094 135.48387145996094 L85.48387145996094 109.27742004394531 C83.36048126220703 109.52620697021484 81.21209716796875 109.67742156982422 79.03225708007812 109.67742156982422 C76.8443603515625 109.67742156982422 74.7008056640625 109.51371002197266 72.58064270019531 109.2649154663086 L72.58064270019531 167.741943359375 L66.1290283203125 167.741943359375 L66.1290283203125 164.51612854003906 L59.67741775512695 164.51612854003906 L59.67741775512695 177.4193572998047 L66.1290283203125 177.4193572998047 L66.1290283203125 174.19354248046875 L72.58064270019531 174.19354248046875 L72.58064270019531 193.5483856201172 L85.48387145996094 193.5483856201172 L85.48387145996094 167.741943359375 L91.93548583984375 167.741943359375 L91.93548583984375 174.19354248046875 L127.41935729980469 174.19354248046875 L127.41935729980469 180.64517211914062 L91.93548583984375 180.64517211914062 L91.93548583984375 200.0 L66.1290283203125 200.0 L66.1290283203125 183.8709716796875 L59.67741775512695 183.8709716796875 L59.67741775512695 190.32257080078125 L37.09677505493164 190.32257080078125 L37.09677505493164 177.4193572998047 L43.54838562011719 177.4193572998047 L43.54838562011719 183.8709716796875 L53.225807189941406 183.8709716796875 L53.225807189941406 158.06451416015625 L43.54838562011719 158.06451416015625 L43.54838562011719 164.51612854003906 L37.09677505493164 164.51612854003906 L37.09677505493164 151.61289978027344 L59.67741775512695 151.61289978027344 L59.67741775512695 158.06451416015625 L66.1290283203125 158.06451416015625 L66.1290283203125 108.08024597167969 C42.10725402832031 102.25564575195312 24.19355010986328 80.62621307373047 24.19355010986328 54.83871078491211 C24.19355010986328 24.599998474121094 48.79354476928711 0.0 79.03225708007812 0.0 C99.45201873779297 0.0 117.79072570800781 11.071372985839844 127.36412048339844 29.032257080078125 L162.90322875976562 29.032257080078125 L162.90322875976562 35.48387145996094 Z M175.80645751953125 35.48387145996094 L169.35482788085938 35.48387145996094 L169.35482788085938 29.032257080078125 L175.80645751953125 29.032257080078125 L175.80645751953125 35.48387145996094 Z M169.35482788085938 74.19355010986328 L175.80645751953125 74.19355010986328 L175.80645751953125 80.64515686035156 L169.35482788085938 80.64515686035156 L169.35482788085938 74.19355010986328 Z M140.3225860595703 129.03225708007812 L140.3225860595703 135.48387145996094 L133.8709716796875 135.48387145996094 L133.8709716796875 129.03225708007812 L140.3225860595703 129.03225708007812 Z M153.22579956054688 135.48387145996094 L146.77420043945312 135.48387145996094 L146.77420043945312 129.03225708007812 L153.22579956054688 129.03225708007812 L153.22579956054688 135.48387145996094 Z M153.22579956054688 148.38710021972656 L85.48387145996094 148.38710021972656 L85.48387145996094 141.93548583984375 L153.22579956054688 141.93548583984375 L153.22579956054688 148.38710021972656 Z M153.22579956054688 161.29031372070312 L111.29032135009766 161.29031372070312 L111.29032135009766 154.83871459960938 L153.22579956054688 154.83871459960938 L153.22579956054688 161.29031372070312 Z M85.48387145996094 154.83871459960938 L91.93548583984375 154.83871459960938 L91.93548583984375 161.29031372070312 L85.48387145996094 161.29031372070312 L85.48387145996094 154.83871459960938 Z M98.38710021972656 161.29031372070312 L98.38710021972656 154.83871459960938 L104.83870697021484 154.83871459960938 L104.83870697021484 161.29031372070312 L98.38710021972656 161.29031372070312 Z M140.3225860595703 180.64517211914062 L133.8709716796875 180.64517211914062 L133.8709716796875 174.19354248046875 L140.3225860595703 174.19354248046875 L140.3225860595703 180.64517211914062 Z M146.77420043945312 180.64517211914062 L146.77420043945312 174.19354248046875 L153.22579956054688 174.19354248046875 L153.22579956054688 180.64517211914062 L146.77420043945312 180.64517211914062 Z"></path></svg>