<svg xmlns="http://www.w3.org/2000/svg" viewBox="0.0 0.0 200.0 200.0" height="200.0px" width="200.0px"><path fill="#f0bc5e" fill-opacity="1.0"  filling="0" d="M103.125 84.375 L96.875 84.375 C93.4281234741211 84.375 90.625 81.5718765258789 90.625 78.125 L90.625 71.875 L84.375 71.875 C80.9281234741211 71.875 78.125 69.0718765258789 78.125 65.625 L78.125 59.375 C78.125 55.928123474121094 80.9281234741211 53.125 84.375 53.125 L90.625 53.125 L90.625 46.875 C90.625 43.428123474121094 93.4281234741211 40.625 96.875 40.625 L103.125 40.625 C106.5718765258789 40.625 109.375 43.428123474121094 109.375 46.875 L109.375 53.125 L115.625 53.125 C119.0718765258789 53.125 121.875 55.928123474121094 121.875 59.375 L121.875 65.625 C121.875 69.0718765258789 119.0718765258789 71.875 115.625 71.875 L109.375 71.875 L109.375 78.125 C109.375 81.5718765258789 106.5718765258789 84.375 103.125 84.375 Z"></path>
<path fill="" fill-opacity="1.0"  filling="0" d="M153.125 96.875 L153.125 68.75 C153.125 63.58125305175781 148.9187469482422 59.375 143.75 59.375 C142.60311889648438 59.375 141.515625 59.61249923706055 140.4968719482422 59.99062728881836 C139.1906280517578 38.759376525878906 121.5531234741211 21.875 100.0 21.875 C78.4468765258789 21.875 60.80937194824219 38.759376525878906 59.50312805175781 59.99062728881836 C58.484375 59.61249923706055 57.39687728881836 59.375 56.25 59.375 C51.08125305175781 59.375 46.875 63.58125305175781 46.875 68.75 L46.875 96.875 C39.98124694824219 96.875 34.375 102.48124694824219 34.375 109.375 L34.375 138.6437530517578 C34.375 146.6906280517578 36.734378814697266 154.484375 41.20000076293945 161.18124389648438 L46.875 169.69686889648438 L46.875 196.875 L96.875 196.875 L96.875 169.4875030517578 L98.5062484741211 166.22500610351562 C99.07186889648438 165.09375 99.53437805175781 163.9187469482422 100.0 162.74374389648438 C100.46249389648438 163.9187469482422 100.92813110351562 165.0968780517578 101.4937515258789 166.22500610351562 L103.125 169.4875030517578 L103.125 196.875 L153.125 196.875 L153.125 169.69686889648438 L158.8000030517578 161.18124389648438 C163.265625 154.4875030517578 165.625 146.6906280517578 165.625 138.6437530517578 L165.625 109.375 C165.625 102.48124694824219 160.0187530517578 96.875 153.125 96.875 Z M143.75 65.625 C145.47499084472656 65.625 146.875 67.0250015258789 146.875 68.75 L146.875 98.61250305175781 C143.15625 100.78125 140.625 104.76875305175781 140.625 109.375 L140.625 68.75 C140.625 67.0250015258789 142.02500915527344 65.625 143.75 65.625 Z M115.625 125.0 C115.625 126.72499084472656 114.22499084472656 128.125 112.5 128.125 L87.5 128.125 C85.7750015258789 128.125 84.375 126.72499084472656 84.375 125.0 C84.375 123.27500915527344 85.7750015258789 121.875 87.5 121.875 L112.5 121.875 C114.22499084472656 121.875 115.625 123.27500915527344 115.625 125.0 Z M100.0 140.625 C96.5531234741211 140.625 93.75 137.82186889648438 93.75 134.375 L106.25 134.375 C106.25 137.82186889648438 103.4468765258789 140.625 100.0 140.625 Z M71.875 109.375 L65.625 109.375 L65.625 82.8343734741211 C67.52812194824219 85.6343765258789 69.69062805175781 88.1031265258789 71.875 90.34375 L71.875 109.375 Z M78.125 109.375 L78.125 96.4468765258789 C80.84062194824219 99.10625457763672 82.97187805175781 101.4749984741211 83.87812805175781 103.85625457763672 C81.4593734741211 104.87500762939453 79.5875015258789 106.89063262939453 78.69999694824219 109.375 L78.125 109.375 Z M112.5 109.375 C114.22499084472656 109.375 115.625 110.77500915527344 115.625 112.5 C115.625 114.22499084472656 114.22499084472656 115.625 112.5 115.625 L87.5 115.625 C85.7750015258789 115.625 84.375 114.22499084472656 84.375 112.5 C84.375 110.77500915527344 85.7750015258789 109.375 87.5 109.375 L112.5 109.375 Z M116.12187194824219 103.85625457763672 C117.02812957763672 101.4749984741211 119.15937805175781 99.10625457763672 121.875 96.4468765258789 L121.875 109.375 L121.30000305175781 109.375 C120.41250610351562 106.89063262939453 118.54061889648438 104.87187194824219 116.12187194824219 103.85625457763672 Z M128.125 90.34375 C130.30938720703125 88.1031265258789 132.47186279296875 85.6343765258789 134.375 82.8343734741211 L134.375 109.375 L128.125 109.375 L128.125 90.34375 Z M100.0 28.125 C118.953125 28.125 134.375 43.546878814697266 134.375 62.5 C134.375 75.80937957763672 126.55313110351562 83.29374694824219 119.65312957763672 89.9000015258789 C115.25312805175781 94.11249542236328 111.09999084472656 98.14375305175781 109.81874084472656 103.125 L90.18437194824219 103.125 C88.9000015258789 98.140625 84.74687194824219 94.109375 80.3499984741211 89.9000015258789 C73.4468765258789 83.29374694824219 65.625 75.80937957763672 65.625 62.5 C65.625 43.546878814697266 81.046875 28.125 100.0 28.125 Z M53.125 68.75 C53.125 67.0250015258789 54.525001525878906 65.625 56.25 65.625 C57.974998474121094 65.625 59.375 67.0250015258789 59.375 68.75 L59.375 109.375 C59.375 104.76875305175781 56.84375 100.78125 53.125 98.61250305175781 L53.125 68.75 Z M53.125 190.625 L53.125 171.875 L90.625 171.875 L90.625 190.625 L53.125 190.625 Z M92.9156265258789 163.43124389648438 L91.8187484741211 165.625 L51.671875 165.625 L46.396873474121094 157.71563720703125 C42.62187576293945 152.046875 40.625 145.453125 40.625 138.6437530517578 L40.625 109.375 C40.625 105.9281234741211 43.428123474121094 103.125 46.875 103.125 C50.321876525878906 103.125 53.125 105.9281234741211 53.125 109.375 L53.125 128.125 C53.125 131.57186889648438 55.928123474121094 134.375 59.375 134.375 L64.33125305175781 134.375 C66.34687805175781 134.375 68.2406234741211 135.1593780517578 69.66561889648438 136.58438110351562 C71.09062194824219 138.00936889648438 71.875 139.90625 71.875 141.91876220703125 L71.875 146.875 L78.125 146.875 L78.125 141.91876220703125 C78.125 138.234375 76.69062805175781 134.77188110351562 74.08438110351562 132.16561889648438 C71.47811889648438 129.5593719482422 68.015625 128.125 64.33125305175781 128.125 L59.375 128.125 L59.375 115.625 L78.69999694824219 115.625 C79.1156234741211 116.79374694824219 79.74687194824219 117.84687042236328 80.5625 118.75 C79.0625 120.41250610351562 78.125 122.59062194824219 78.125 125.0 C78.125 130.1687469482422 82.33125305175781 134.375 87.5 134.375 C87.5 140.18438720703125 91.49687194824219 145.0343780517578 96.875 146.43125915527344 L96.875 146.6593780517578 C96.875 152.4499969482422 95.5062484741211 158.25 92.9156265258789 163.43124389648438 Z M109.375 190.625 L109.375 171.875 L146.875 171.875 L146.875 190.625 L109.375 190.625 Z M159.375 138.6437530517578 C159.375 145.453125 157.3781280517578 152.046875 153.60000610351562 157.71563720703125 L148.328125 165.625 L108.1812515258789 165.625 L107.08436584472656 163.43124389648438 C104.4937515258789 158.25 103.125 152.4499969482422 103.125 146.6593780517578 L103.125 146.43125915527344 C108.50312805175781 145.0343780517578 112.5 140.18438720703125 112.5 134.375 C117.66874694824219 134.375 121.875 130.1687469482422 121.875 125.0 C121.875 122.59062194824219 120.93437957763672 120.41250610351562 119.4375 118.75 C120.25 117.84687042236328 120.88436889648438 116.79374694824219 121.30000305175781 115.625 L140.625 115.625 L140.625 128.125 L135.66876220703125 128.125 C131.984375 128.125 128.52186584472656 129.5593719482422 125.91561889648438 132.16561889648438 C123.30937194824219 134.77188110351562 121.875 138.234375 121.875 141.91876220703125 L121.875 146.875 L128.125 146.875 L128.125 141.91876220703125 C128.125 139.90313720703125 128.9093780517578 138.00936889648438 130.33438110351562 136.58438110351562 C131.75936889648438 135.1593780517578 133.65625 134.375 135.66876220703125 134.375 L140.625 134.375 C144.07186889648438 134.375 146.875 131.57186889648438 146.875 128.125 L146.875 109.375 C146.875 105.9281234741211 149.67813110351562 103.125 153.125 103.125 C156.57186889648438 103.125 159.375 105.9281234741211 159.375 109.375 L159.375 138.6437530517578 Z"></path>
<path fill="" fill-opacity="1.0"  filling="0" d="M46.875 13.793746948242188 L46.875 46.875 L53.125 46.875 L53.125 13.793746948242188 L57.16562271118164 17.834381103515625 L61.58437728881836 13.415618896484375 L50.0 1.8312530517578125 L38.41562271118164 13.415618896484375 L42.83437728881836 17.834381103515625 L46.875 13.793746948242188 Z"></path>
<path fill="" fill-opacity="1.0"  filling="0" d="M4.040618896484375 44.66562271118164 L8.459381103515625 49.08437728881836 L15.625 41.91874694824219 L15.625 90.625 L21.875 90.625 L21.875 41.91874694824219 L29.040618896484375 49.08437728881836 L33.459381103515625 44.66562271118164 L18.75 29.956253051757812 L4.040618896484375 44.66562271118164 Z"></path>
<path fill="" fill-opacity="1.0"  filling="0" d="M15.625 96.875 L21.875 96.875 L21.875 109.375 L15.625 109.375 L15.625 96.875 Z"></path>
<path fill="" fill-opacity="1.0"  filling="0" d="M15.625 128.125 L21.875 128.125 L21.875 140.625 L15.625 140.625 L15.625 128.125 Z"></path>
<path fill="" fill-opacity="1.0"  filling="0" d="M15.625 115.625 L21.875 115.625 L21.875 121.875 L15.625 121.875 L15.625 115.625 Z"></path>
<path fill="" fill-opacity="1.0"  filling="0" d="M195.95938110351562 44.66562271118164 L181.25 29.956253051757812 L166.54061889648438 44.66562271118164 L170.95938110351562 49.08437728881836 L178.125 41.91874694824219 L178.125 90.625 L184.375 90.625 L184.375 41.91874694824219 L191.54061889648438 49.08437728881836 L195.95938110351562 44.66562271118164 Z"></path>
<path fill="" fill-opacity="1.0"  filling="0" d="M178.125 96.875 L184.375 96.875 L184.375 109.375 L178.125 109.375 L178.125 96.875 Z"></path>
<path fill="" fill-opacity="1.0"  filling="0" d="M178.125 128.125 L184.375 128.125 L184.375 140.625 L178.125 140.625 L178.125 128.125 Z"></path>
<path fill="" fill-opacity="1.0"  filling="0" d="M178.125 115.625 L184.375 115.625 L184.375 121.875 L178.125 121.875 L178.125 115.625 Z"></path>
<path fill="" fill-opacity="1.0"  filling="0" d="M146.875 13.793746948242188 L146.875 46.875 L153.125 46.875 L153.125 13.793746948242188 L157.16561889648438 17.834381103515625 L161.58438110351562 13.415618896484375 L150.0 1.8312530517578125 L138.41561889648438 13.415618896484375 L142.83438110351562 17.834381103515625 L146.875 13.793746948242188 Z"></path></svg>