<svg xmlns="http://www.w3.org/2000/svg" viewBox="0.0 0.0 200.0 200.0" height="200.0px" width="200.0px"><path fill="url(#linear-gradient)" fill-opacity="1.0"  filling="0" d="M60.709373474121094 139.0625 L59.8828125 139.0625 A2.34375 2.34375 0.0 1 0 59.8828125 143.75 L60.70977020263672 143.75 A2.34375 2.34375 0.0 0 0 60.70977020263672 139.0625 L60.709373474121094 139.0625 Z"></path>
<path fill="url(#linear-gradient-2)" fill-opacity="1.0"  filling="0" d="M75.212890625 139.0625 L68.962890625 139.0625 A2.34375 2.34375 0.0 0 0 68.962890625 143.75 L75.212890625 143.75 A2.34375 2.34375 0.0 0 0 75.212890625 139.0625 Z"></path>
<path fill="url(#linear-gradient-3)" fill-opacity="1.0"  filling="0" d="M140.1171875 139.0625 L83.6011734008789 139.0625 A2.34375 2.34375 0.0 0 0 83.6011734008789 143.75 L140.1171875 143.75 A2.34375 2.34375 0.0 0 0 140.1171875 139.0625 Z"></path>
<path fill="url(#linear-gradient)" fill-opacity="1.0"  filling="0" d="M60.709373474121094 125.390625 L59.8828125 125.390625 A2.34375 2.34375 0.0 1 0 59.8828125 130.078125 L60.70977020263672 130.078125 A2.34375 2.34375 0.0 0 0 60.70977020263672 125.390625 L60.709373474121094 125.390625 Z"></path>
<path fill="url(#linear-gradient-2)" fill-opacity="1.0"  filling="0" d="M75.212890625 125.390625 L68.962890625 125.390625 A2.34375 2.34375 0.0 0 0 68.962890625 130.078125 L75.212890625 130.078125 A2.34375 2.34375 0.0 0 0 75.212890625 125.390625 Z"></path>
<path fill="url(#linear-gradient-3)" fill-opacity="1.0"  filling="0" d="M140.1171875 125.390625 L83.6011734008789 125.390625 A2.34375 2.34375 0.0 0 0 83.6011734008789 130.078125 L140.1171875 130.078125 A2.34375 2.34375 0.0 0 0 140.1171875 125.390625 Z"></path>
<path fill="url(#linear-gradient-7)" fill-opacity="1.0"  filling="0" d="M59.197265625 96.6441421508789 A7.957031726837158 7.957031726837158 0.0 0 0 62.919921875 95.720703125 L72.4085922241211 105.52538299560547 A8.012890815734863 8.012890815734863 0.0 1 0 87.32538604736328 106.9527359008789 L96.4410171508789 95.79960632324219 A7.998827934265137 7.998827934265137 0.0 0 0 106.57734680175781 84.0726547241211 L116.03046417236328 72.669921875 A7.975390434265137 7.975390434265137 0.0 0 0 126.75352478027344 70.82695007324219 L133.23788452148438 74.69219207763672 A8.043749809265137 8.043749809265137 0.0 1 0 136.01719665527344 70.89179992675781 L128.39492797851562 66.3472671508789 C128.40078735351562 66.21992492675781 128.4140625 66.09414672851562 128.4140625 65.96524047851562 A8.010937690734863 8.010937690734863 0.0 1 0 112.99101257324219 68.99336242675781 L102.89336395263672 81.171875 A7.99765682220459 7.99765682220459 0.0 0 0 93.029296875 92.56718444824219 L84.6484375 102.82266235351562 A7.96875 7.96875 0.0 0 0 75.61406707763672 102.095703125 L66.25234985351562 92.421875 A8.0078125 8.0078125 0.0 1 0 59.197265625 96.640625 L59.197265625 96.6441421508789 Z M140.802734375 73.9761734008789 A3.3234376907348633 3.3234376907348633 0.0 1 1 137.4792938232422 77.2992172241211 A3.3265624046325684 3.3265624046325684 0.0 0 1 140.802734375 73.9761734008789 Z M120.40116882324219 62.64218521118164 A3.3234376907348633 3.3234376907348633 0.0 1 1 117.078125 65.96524047851562 A3.326953172683716 3.326953172683716 0.0 0 1 120.40116882324219 62.64218521118164 Z M100.0 85.3101577758789 A3.3234376907348633 3.3234376907348633 0.0 1 1 96.67656707763672 88.6332015991211 A3.326953172683716 3.326953172683716 0.0 0 1 100.0 85.3101577758789 Z M79.59882354736328 105.7113265991211 A3.3234376907348633 3.3234376907348633 0.0 1 1 76.275390625 109.0347671508789 A3.326953172683716 3.326953172683716 0.0 0 1 79.59882354736328 105.7113265991211 Z M59.197265625 85.3101577758789 A3.3234376907348633 3.3234376907348633 0.0 1 1 55.87421798706055 88.6332015991211 A3.326953172683716 3.326953172683716 0.0 0 1 59.197265625 85.3101577758789 Z"></path>
<path fill="url(#linear-gradient-7)" fill-opacity="1.0"  filling="0" d="M165.87265014648438 14.84375 L114.55937194824219 14.84375 A16.126953125 16.126953125 0.0 0 0 85.44062805175781 14.84375 L34.127342224121094 14.84375 C28.611328125 14.84375 24.21875 19.419921875 24.21875 24.935546875 L24.21875 184.2578125 A9.833203315734863 9.833203315734863 0.0 0 0 34.127342224121094 194.140625 L165.87265014648438 194.140625 A9.833203315734863 9.833203315734863 0.0 0 0 175.78125 184.2578125 L175.78125 24.935546875 C175.78125 19.419921875 171.388671875 14.84375 165.87265014648438 14.84375 Z M86.212890625 31.25 A2.5687501430511475 2.5687501430511475 0.0 0 0 88.671875 28.765625 L88.671875 21.87187957763672 A11.328125 11.328125 0.0 1 1 111.328125 21.87187957763672 L111.328125 28.765625 A2.5687501430511475 2.5687501430511475 0.0 0 0 113.78905487060547 31.25 L136.71875 31.25 L136.71875 44.921875 L63.28125 44.921875 L63.28125 31.25 L86.212890625 31.25 Z M171.09375 184.2578125 A5.141406059265137 5.141406059265137 0.0 0 1 165.87265014648438 189.453125 L34.127342224121094 189.453125 A5.141406059265137 5.141406059265137 0.0 0 1 28.90625 184.2578125 L28.90625 24.935546875 A5.318359375 5.318359375 0.0 0 1 34.127342224121094 19.53125 L84.0296859741211 19.53125 A17.725780487060547 17.725780487060547 0.0 0 0 83.984375 21.87187957763672 L83.984375 26.5625 L60.9375 26.5625 A2.2265625 2.2265625 0.0 0 0 58.59375 28.765625 L58.59375 35.9375 L48.06171798706055 35.9375 A6.283202648162842 6.283202648162842 0.0 0 0 41.796875 42.20234298706055 L41.796875 52.34375 A2.34375 2.34375 0.0 0 0 46.484375 52.34375 L46.484375 42.20077896118164 A1.580078125 1.580078125 0.0 0 1 48.06015396118164 40.625 L58.59375 40.625 L58.59375 47.1484375 A2.4453125 2.4453125 0.0 0 0 60.9375 49.609375 L139.0625 49.609375 A2.4453125 2.4453125 0.0 0 0 141.40625 47.1484375 L141.40625 40.625 L151.9382781982422 40.625 A1.5820313692092896 1.5820313692092896 0.0 0 1 153.515625 42.20234298706055 L153.515625 146.484375 L141.09375 146.484375 A9.866406440734863 9.866406440734863 0.0 0 0 131.25 156.47186279296875 L131.25 168.359375 L48.06171798706055 168.359375 A1.5820313692092896 1.5820313692092896 0.0 0 1 46.484375 166.78204345703125 L46.484375 68.75 A2.34375 2.34375 0.0 0 0 41.796875 68.75 L41.796875 166.9921875 A6.0546875 6.0546875 0.0 0 0 47.8515625 173.046875 L131.953125 173.046875 A6.840624809265137 6.840624809265137 0.0 0 0 136.8601531982422 171.0730438232422 L156.12655639648438 151.88125610351562 A6.869140148162842 6.869140148162842 0.0 0 0 158.203125 147.00390625 L158.203125 42.19921875 A6.281640529632568 6.281640529632568 0.0 0 0 151.93984985351562 35.9375 L141.40625 35.9375 L141.40625 28.765625 A2.2265625 2.2265625 0.0 0 0 139.0625 26.5625 L116.015625 26.5625 L116.015625 21.87187957763672 A17.725780487060547 17.725780487060547 0.0 0 0 115.9703140258789 19.53125 L165.87265014648438 19.53125 A5.318359375 5.318359375 0.0 0 1 171.09375 24.935546875 L171.09375 184.2578125 Z M150.23985290527344 151.171875 L135.9375 165.556640625 L135.9375 156.47186279296875 A5.174218654632568 5.174218654632568 0.0 0 1 141.09375 151.171875 L150.23985290527344 151.171875 Z"></path>
<path fill="url(#linear-gradient-9)" fill-opacity="1.0"  filling="0" d="M35.546875 29.1640625 A2.34375 2.34375 0.0 0 0 33.203125 31.5078125 L33.203125 34.2734375 A2.34375 2.34375 0.0 1 0 37.890625 34.2734375 L37.890625 31.5078125 A2.34375 2.34375 0.0 0 0 35.546875 29.1640625 Z"></path>
<path fill="url(#linear-gradient-9)" fill-opacity="1.0"  filling="0" d="M35.546875 41.24336242675781 A2.34375 2.34375 0.0 0 0 33.203125 43.58711242675781 L33.203125 82.02030944824219 A2.34375 2.34375 0.0 0 0 37.890625 82.02030944824219 L37.890625 43.58711242675781 A2.34375 2.34375 0.0 0 0 35.546875 41.24336242675781 Z"></path></svg>