<?xml version="1.0" encoding="utf-8"?>
<!-- Generator: Adobe Illustrator 29.6.0, SVG Export Plug-In . SVG Version: 9.03 Build 0)  -->
<svg version="1.1" xmlns="http://www.w3.org/2000/svg" xmlns:xlink="http://www.w3.org/1999/xlink" x="0px" y="0px"
	 viewBox="0 0 200 200" style="enable-background:new 0 0 200 200;" xml:space="preserve">
<g id="Layer_1">
</g>
<g id="Item_x5F_1" style="display:none;">
	<path style="display:inline;fill:#EFEDEE;" d="M178.33,137.398H21.669c-3.043,0-5.511-2.467-5.511-5.511V22.392
		c0-3.043,2.467-5.511,5.511-5.511H178.33c3.043,0,5.511,2.467,5.511,5.511v109.495C183.841,134.93,181.374,137.398,178.33,137.398z
		"/>
</g>
<g id="Item_x5F_2" style="display:none;">
	<path style="display:inline;fill:#D4D2D3;" d="M36.223,131.887V22.392c0-3.043,2.467-5.511,5.511-5.511H21.669
		c-3.043,0-5.511,2.467-5.511,5.511v109.495c0,3.043,2.467,5.511,5.511,5.511h20.064C38.69,137.398,36.223,134.93,36.223,131.887z"
		/>
</g>
<g id="Layer_10" style="display:none;">
	<path style="display:inline;fill:#EFEDEE;" d="M178.33,137.398H21.669c-3.043,0-5.511-2.467-5.511-5.511V22.392
		c0-3.043,2.467-5.511,5.511-5.511H178.33c3.043,0,5.511,2.467,5.511,5.511v109.495C183.841,134.93,181.374,137.398,178.33,137.398z
		"/>
	<path style="display:inline;fill:#D4D2D3;" d="M36.223,131.887V22.392c0-3.043,2.467-5.511,5.511-5.511H21.669
		c-3.043,0-5.511,2.467-5.511,5.511v109.495c0,3.043,2.467,5.511,5.511,5.511h20.064C38.69,137.398,36.223,134.93,36.223,131.887z"
		/>
</g>
<g id="Item_x5F_3" style="display:none;">
	<path style="display:inline;fill:#FFCE1C;" d="M149.596,123.659H50.36c-5,0-9.053-4.053-9.053-9.053l0,0
		c0-5,4.053-9.053,9.053-9.053h99.236c5,0,9.053,4.053,9.053,9.053l0,0C158.649,119.606,154.596,123.659,149.596,123.659z"/>
</g>
<g id="Item_x5F_4" style="display:none;">
	<path style="display:inline;fill:#ECB000;" d="M60.838,114.606L60.838,114.606c0-5,4.053-9.053,9.053-9.053H50.36
		c-5,0-9.053,4.053-9.053,9.053l0,0c0,5,4.053,9.053,9.053,9.053h19.531C64.891,123.659,60.838,119.606,60.838,114.606z"/>
</g>
<g id="Layer_11" style="display:none;">
	<path style="display:inline;fill:#FFCE1C;" d="M149.596,123.659H50.36c-5,0-9.053-4.053-9.053-9.053l0,0
		c0-5,4.053-9.053,9.053-9.053h99.236c5,0,9.053,4.053,9.053,9.053l0,0C158.649,119.606,154.596,123.659,149.596,123.659z"/>
	<path style="display:inline;fill:#ECB000;" d="M60.838,114.606L60.838,114.606c0-5,4.053-9.053,9.053-9.053H50.36
		c-5,0-9.053,4.053-9.053,9.053l0,0c0,5,4.053,9.053,9.053,9.053h19.531C64.891,123.659,60.838,119.606,60.838,114.606z"/>
</g>
<g id="Item_x5F_5" style="display:none;">
	<path style="display:inline;fill:#DC5A64;" d="M142.651,45.582c0,23.556-19.096,42.652-42.652,42.652S57.347,69.138,57.347,45.582
		c0-23.556,19.096-42.652,42.652-42.652S142.651,22.026,142.651,45.582z"/>
</g>
<g id="Item_x5F_6" style="display:none;">
	<path style="display:inline;fill:#BF4E57;" d="M69.067,45.581c0-21.568,16.009-39.394,36.792-42.249
		C103.943,3.069,101.988,2.93,100,2.93c-23.556,0-42.652,19.096-42.652,42.652S76.444,88.233,100,88.233
		c1.988,0,3.944-0.139,5.859-0.402C85.076,84.975,69.067,67.149,69.067,45.581z"/>
</g>
<g id="Layer_9" style="display:none;">
	<path style="display:inline;fill:#DC5A64;" d="M142.651,45.582c0,23.556-19.096,42.652-42.652,42.652S57.347,69.138,57.347,45.582
		c0-23.556,19.096-42.652,42.652-42.652S142.651,22.026,142.651,45.582z"/>
	<path style="display:inline;fill:#BF4E57;" d="M69.067,45.581c0-21.568,16.009-39.394,36.792-42.249
		C103.943,3.069,101.988,2.93,100,2.93c-23.556,0-42.652,19.096-42.652,42.652S76.444,88.233,100,88.233
		c1.988,0,3.944-0.139,5.859-0.402C85.076,84.975,69.067,67.149,69.067,45.581z"/>
</g>
<g id="Item_x5F_7" style="display:none;">
	<path style="display:inline;" d="M183.841,48.511c1.618,0,2.93-1.312,2.93-2.93V22.392c0-4.654-3.786-8.44-8.44-8.44h-45.543
		C124.492,5.356,112.86,0,100,0S75.507,5.356,67.211,13.952H21.669c-4.654,0-8.44,3.786-8.44,8.44v109.495
		c0,4.654,3.786,8.44,8.44,8.44h29.785l14.168,57.444c0.329,1.335,1.526,2.229,2.842,2.229c0.232,0,0.468-0.028,0.704-0.086
		c1.571-0.387,2.53-1.975,2.143-3.546l-4.627-18.761H78.87l2.445,19.821c0.183,1.484,1.446,2.571,2.904,2.571
		c0.12,0,0.241-0.007,0.362-0.023c1.606-0.198,2.747-1.66,2.549-3.266l-2.356-19.104h12.274v19.463c0,1.618,1.312,2.93,2.93,2.93
		c1.618,0,2.93-1.312,2.93-2.93v-19.463h12.274l-2.356,19.104c-0.198,1.606,0.943,3.068,2.549,3.266
		c0.122,0.015,0.243,0.023,0.362,0.023c1.458,0,2.721-1.087,2.904-2.571l2.445-19.821h12.187l-4.627,18.761
		c-0.387,1.571,0.572,3.159,2.143,3.546c0.236,0.058,0.471,0.086,0.704,0.086c1.316,0,2.513-0.894,2.842-2.229l14.168-57.444h29.828
		c4.654,0,8.44-3.786,8.44-8.44V56.519c0-1.618-1.312-2.93-2.93-2.93c-1.618,0-2.93,1.312-2.93,2.93v75.368
		c0,1.423-1.158,2.581-2.581,2.581h-28.383l2.001-8.112c3.38-0.676,6.25-2.778,7.956-5.65h8.222c1.618,0,2.93-1.312,2.93-2.93
		v-85.18c0-1.618-1.312-2.93-2.93-2.93h-25.414c-1.312-3.509-3.045-6.815-5.137-9.855h40.755c1.423,0,2.581,1.158,2.581,2.581
		v23.189C180.911,47.199,182.223,48.511,183.841,48.511z M72.532,74.248c5.948-7.342,9.449-16.307,10.051-25.737H97.07v36.684
		C87.582,84.5,79.01,80.459,72.532,74.248z M60.386,48.511h16.316c-0.57,7.767-3.393,15.157-8.145,21.313
		C63.929,63.837,60.971,56.499,60.386,48.511z M102.929,42.652V5.968c9.487,0.695,18.06,4.737,24.538,10.947
		c-5.948,7.342-9.449,16.307-10.051,25.737H102.929z M97.07,42.652H82.583c-0.602-9.43-4.103-18.396-10.051-25.737
		c6.479-6.21,15.051-10.252,24.538-10.947V42.652z M76.701,42.652H60.386c0.585-7.988,3.544-15.326,8.17-21.313
		C73.308,27.495,76.131,34.885,76.701,42.652z M102.929,48.511h14.487c0.602,9.43,4.104,18.396,10.051,25.737
		c-6.479,6.21-15.051,10.252-24.538,10.947V48.511z M131.443,69.824c-4.752-6.157-7.575-13.546-8.145-21.313h16.316
		C139.028,56.499,136.07,63.837,131.443,69.824z M139.614,42.652h-16.316c0.57-7.767,3.393-15.157,8.145-21.313
		C136.07,27.326,139.028,34.664,139.614,42.652z M21.669,134.468c-1.423,0-2.581-1.158-2.581-2.581V22.392
		c0-1.423,1.158-2.581,2.581-2.581h40.755c-2.092,3.041-3.825,6.346-5.137,9.855H31.873c-1.618,0-2.93,1.312-2.93,2.93v85.181
		c0,1.618,1.312,2.93,2.93,2.93h8.178c1.706,2.872,4.576,4.974,7.956,5.649l2.001,8.112H21.669L21.669,134.468z M121.474,126.589
		l-0.972,7.879h-17.594v-7.879H121.474z M140.524,148.207h-15.812l0.972-7.879h16.784L140.524,148.207z M102.907,140.328h16.872
		l-0.972,7.879h-15.9V140.328z M97.048,148.207h-15.9l-0.972-7.879h16.872V148.207z M126.406,134.468l0.972-7.879h18.478
		l-1.943,7.879H126.406z M97.048,134.468H79.454l-0.972-7.879h18.566V134.468z M72.578,126.589l0.972,7.879H56.044l-1.943-7.879
		H72.578z M74.273,140.328l0.972,7.879H59.432l-1.943-7.879H74.273z M65.238,171.747l-4.361-17.682h15.09l2.18,17.682H65.238z
		 M84.051,171.747l-2.18-17.682h15.178v17.682H84.051z M102.907,171.747v-17.682h15.178l-2.18,17.682H102.907z M121.808,171.747
		l2.18-17.682h15.09l-4.361,17.682H121.808z M165.196,35.526v79.321h-3.623c0.002-0.08,0.006-0.16,0.006-0.241
		c0-6.607-5.376-11.983-11.983-11.983H69.383c-1.618,0-2.93,1.312-2.93,2.93c0,1.618,1.312,2.93,2.93,2.93h80.213
		c3.377,0,6.124,2.747,6.124,6.123c0,3.377-2.747,6.124-6.124,6.124H50.36c-3.377,0-6.123-2.747-6.123-6.124
		c0-3.377,2.747-6.123,6.123-6.123h8.086c1.618,0,2.93-1.312,2.93-2.93c0-1.618-1.312-2.93-2.93-2.93H50.36
		c-6.607,0-11.983,5.375-11.983,11.983c0,0.081,0.005,0.161,0.006,0.241h-3.58V35.526h20.735c-0.732,3.236-1.12,6.601-1.12,10.055
		c0,11.721,4.448,22.422,11.744,30.506c0.117,0.164,0.252,0.319,0.407,0.461c0.024,0.022,0.05,0.041,0.075,0.062
		C74.971,85.557,86.842,91.163,100,91.163c13.157,0,25.028-5.606,33.356-14.552c0.025-0.021,0.05-0.04,0.075-0.062
		c0.155-0.142,0.29-0.297,0.407-0.461c7.295-8.084,11.744-18.785,11.744-30.506c0-3.454-0.388-6.819-1.12-10.055H165.196z"/>
</g>
</svg>
