<?xml version='1.0' encoding='utf-8'?>
<svg xmlns:svg="http://www.w3.org/2000/svg" version="1.1" id="Layer_1" x="0px" y="0px" viewBox="0 0 500 500" style="width: 188px;" xml:space="preserve" data-imageid="paris-93" imageName="Paris" class="illustrations_image"><svg:style type="text/css">
	.st0_paris-93{fill:#FBB03B;}
	.st1_paris-93{fill:#4378C4;}
	.st2_paris-93{fill:#9AC0FF;}
	.st3_paris-93{fill:#4D3706;}
	.st4_paris-93{fill:#68E1FD;}
	.st5_paris-93{opacity:0.51;}
	.st6_paris-93{fill:#344E4F;}
	.st7_paris-93{opacity:0.51;fill:#344E4F;enable-background:new    ;}
</svg:style><svg:path class="st1_paris-93" d="M 270.61307971258543 195.61324377271944 L 270.62318072268647 194.91021346968915 L 270.628231227737 194.5586983181739 L 270.63328173278745 194.20718316665884 L 270.6433827428885 193.50415286362855 L 270.648433247939 193.1526377121133 L 270.6534837529895 192.80112256059823 L 270.6635847630905 192.09809225756794 L 270.66863526814103 191.74657710605268 L 270.6736857731915 191.39506195453762 L 270.68378678329253 190.69203165150734 L 270.68883728834305 190.34051649999208 L 270.6938877933935 189.98900134847702 L 270.70398880349455 189.28597104544673 L 270.7090393085451 188.93445589393147 L 270.71408981359554 188.5829407424164 L 270.7241908236966 187.87991043938612 L 270.7292413287471 187.52839528787086 L 270.73429183379756 187.1768801363558 L 270.7443928438986 186.47384983332552 L 270.7494433489491 186.12233468181026 L 270.7544938539996 185.7708195302952 L 270.7645948641006 185.0677892272649 L 270.76964536915114 184.71627407574965 L 270.7746958742016 184.3647589242346 L 270.78479688430264 183.6617286212043 L 270.78984738935316 183.31021346968905 L 270.7948978944036 182.958698318174 L 270.79585222089725 182.89227719421967 L 270.7953152168026 182.8943511931562 L 270.7901467329752 182.9128420901099 L 270.7830055321701 182.93661991529575 L 270.7772031525408 182.95468791956554 L 270.76916037397456 182.97819057184077 L 270.7627751972167 182.9957690681838 L 270.75384197147906 183.01899902101277 L 270.7469304516408 183.03603049197685 L 270.7371179093214 183.0589902188239 L 270.72974021438705 183.07542685532547 L 270.7190594860755 183.09811882965505 L 270.7112778695441 183.1139227603139 L 270.69974008583 183.1363494555903 L 270.69161734988177 183.1514926263963 L 270.6792336413548 183.17365651608392 L 270.6708317536985 183.18812027008352 L 270.6576132509483 183.2100238276467 L 270.64899215849664 183.22379824540414 L 270.63494999211287 183.24544394430725 L 270.6261666554873 183.25852701032284 L 270.6113119560596 183.27991732403027 L 270.60241961159807 183.2923139828065 L 270.5867635097161 183.31345138478258 L 270.5778111513269 183.32517254438648 L 270.56136477758025 183.3460595080956 L 270.5523968401158 183.3571210403334 L 270.53517132509415 183.37776003923992 L 270.52622754394537 183.38818181544255 L 270.50823401823834 183.40857532301084 L 270.49934943624055 183.41838031411535 L 270.48059903043776 183.43853080380978 L 270.4718041223291 183.44774426381704 L 270.4523079670203 183.46765420910194 L 270.4436288529081 183.4763029526601 L 270.4233980786828 183.49597482699986 L 270.41485680062544 183.50408660502762 L 270.3939025380734 183.5235228818866 L 270.3855173772726 183.53112585397227 L 270.36385075698337 183.55032900681485 L 270.35563657289225 183.55745130533532 L 270.3332687254555 183.57642380762587 L 270.32523730178434 183.58309318613908 L 270.3021793577898 183.60183751134193 L 270.2943397439125 183.6080810683712 L 270.2706028339497 183.62659968995075 L 270.262961673249 183.63244365874925 L 270.23855692790755 183.65073905016982 L 270.23111876723823 183.65620864506403 L 270.20605731710793 183.67428327979002 L 270.1988248936677 183.6794025901762 L 270.17311786933806 183.697258941672 L 270.16609237297814 183.7020508654168 L 270.13975090503885 183.7196914071467 L 270.13293221529995 183.7241776160315 L 270.1059674343407 183.74160482145993 L 270.0993543324913 183.74580575219127 L 270.07177736910165 183.7630220947826 L 270.06536772613225 183.76695695999297 L 270.0371897109019 183.7839649132115 L 270.0309806528683 183.78765172773407 L 270.0022127163869 183.80445376504423 L 269.99620076877284 183.8079093835228 L 269.96685404163 183.8245079783889 L 269.96103525455715 183.82774814096936 L 269.9311208673425 183.84414576685583 L 269.92549092345865 183.84718515033785 L 269.89502000676185 183.863384280709 L 269.8895743136476 183.86623655303518 L 269.85855799805825 183.8822396613554 L 269.85329176687867 183.8849175377806 L 269.8217411829865 183.90072709751425 L 269.8166494950296 183.90324239715542 L 269.7845757734242 183.91886088176688 L 269.77965363602203 183.92122458355013 L 269.747067907293 183.93665446650374 L 269.74231030050174 183.93887676377054 L 269.7160133902993 183.9509923509361 L 269.70449420675834 183.95672300036193 L 269.70270678305394 183.95760777848966 L 269.68443385893465 183.9666075816431 L 269.68266598808844 183.96747397495642 L 269.6643330824583 183.97641379659905 L 269.6625848131989 183.97726211801023 L 269.6441925444241 183.98614257650806 L 269.64246391945716 183.98697313546228 L 269.6240129059036 183.99579484918146 L 269.62230396213226 183.99660795157257 L 269.6037948221661 184.00537153887916 L 269.6021055909226 184.00616748696592 L 269.58353894290997 184.01487356622602 L 269.5818694501684 184.01565265856257 L 269.5632459124754 184.02430184814227 L 269.561596179075 184.0250643795089 L 269.5429163700677 184.0336572977743 L 269.5412864119199 184.03440355912025 L 269.52255094996434 184.04294082443744 L 269.5209407782656 184.04367110282573 L 269.50215028172795 184.0521533335608 L 269.50055990315843 184.05286791212342 L 269.4817149904047 184.06129572664244 L 269.4801444073339 184.06199488453646 L 269.46124569673026 184.07036890120554 L 269.45969490740737 184.07105291357945 L 269.4407430173199 184.0793737507647 L 269.43921201606486 184.0800428887278 L 269.4202075648596 184.0883111647953 L 269.41869634225174 184.08896569539124 L 269.3996399482948 184.09718202870704 L 269.39814849135524 184.09782221489277 L 269.3790407730128 184.105987223823 L 269.3775690653771 184.1066133244546 L 269.3584106410151 184.11472762736537 L 269.3569586631108 184.1153398971841 L 269.3377501510954 184.12340411244145 L 269.33631788031107 184.1240028020655 L 269.3170598990084 184.13201754803555 L 269.31564730985224 184.1326029039582 L 269.29634047762835 184.14056879900704 L 269.29494754189534 184.1411410635929 L 269.27559247711633 184.14905872608662 L 269.27421916403813 184.14961813757668 L 269.2548164850701 184.1574881858814 L 269.2534627614682 184.15803497839798 L 269.23401308667724 184.16585803087972 L 269.2326789171125 184.16639243443433 L 269.2131828648647 184.17416910945926 L 269.2118682117733 184.17469134996665 L 269.19232640043475 184.1824222659008 L 269.1910312242753 184.18293256518993 L 269.1714442722121 184.19061834039942 L 269.17016853159333 184.19111691623246 L 269.1505370571715 184.1987581690834 L 269.1492807089872 184.19924523517284 L 269.12960533057293 184.20684258403128 L 269.12836833012506 184.20731835006197 L 269.1086496660844 184.21487241329402 L 269.1074319672093 184.2153370849446 L 269.08767063590835 184.22284848091635 L 269.0864721910918 184.22330225988514 L 269.0666688108966 184.2307716069627 L 269.0654895713927 184.23121469099206 L 269.0456447606694 184.2386426075415 L 269.04448467660836 184.23907519044715 L 269.024599053723 184.24646229483457 L 269.02345807422245 184.24688456653288 L 269.0035322575412 184.25423147712436 L 269.0024103308064 184.25464362366392 L 268.9824449386953 184.26195095882554 L 268.9813420121266 184.2623531624161 L 268.9613376629518 184.269621540514 L 268.96025368323114 184.2700139795625 L 268.9402109953586 184.2772440189627 L 268.93914590855843 184.277626868101 L 268.9190655003544 184.28481918716966 L 268.9180192520138 184.28519261729366 L 268.89790174184424 184.29234783439685 L 268.8968742770667 184.2927120126974 L 268.87672028329774 184.2998307462012 L 268.8757115468317 184.3001858362006 L 268.8555216878295 184.30726870447108 L 268.85453162415325 184.30761486605755 L 268.8343065182838 184.31466248746085 L 268.83333507167896 184.31499987692635 L 268.8130753373084 184.32201286982854 L 268.81212245194126 184.32234163990296 L 268.7918287074357 184.32932062267014 L 268.7908943274273 184.32964092255918 L 268.7705671911528 184.3365865135574 L 268.7696512606531 184.33689848897765 L 268.7492913509758 184.34381130657306 L 268.7483938142262 184.3441150997909 L 268.72800174951215 184.35099576234958 L 268.72712255091363 184.3512915122168 L 268.7066989495289 184.35814063810477 L 268.70583803370977 184.35842848009375 L 268.68538351402043 184.3652466876772 L 268.68454082588835 184.36552675392048 L 268.66405600626064 184.37231466156544 L 268.6632314910652 184.37258708089078 L 268.642716989865 184.37934530696336 L 268.64191059325714 184.37961020492887 L 268.6213670288507 184.38633936779516 L 268.6205786969285 184.38659686672807 L 268.60000668768186 184.39329758475415 L 268.59923636704997 184.39354780378397 L 268.5786365313292 184.40022069533595 L 268.57788416914536 184.40046375043093 L 268.5572571253166 184.40710943387492 L 268.5565226693361 184.40734543787832 L 268.5358690357655 184.41396453158035 L 268.53515243439443 184.41419359424242 L 268.51447282944787 184.42078671656864 L 268.51377403178043 184.42100894458304 L 268.4930690738242 184.4275767138995 L 268.49238802968745 184.4277922109362 L 268.47165833708755 184.434335245609 L 268.4709949970827 184.43454411234697 L 268.4502411882052 184.44106303074224 L 268.4495955037431 184.44126536490333 L 268.42881819695424 184.44776078538712 L 268.4281901202953 184.44795668176704 L 268.407389933961 184.45442922270544 L 268.40677941825084 184.45461877320517 L 268.3859569707372 184.4610690529643 L 268.38536397003895 184.46125234662148 L 268.3645198797122 184.46768098356742 L 268.36394434903616 184.4678581065873 L 268.34307923426223 184.4742657190861 L 268.3425211296068 184.4744367548681 L 268.3216356087519 184.48082396128592 L 268.3210948871194 184.48098899045655 L 268.3001895785496 184.48735640915945 L 268.29966619798586 184.48751550959705 L 268.2787417200672 184.4938637589511 L 268.2782356396832 184.4940170058149 L 268.2572926107818 184.50034670418623 L 268.2568037907797 184.50049416994267 L 268.2358428292616 184.50680593569734 L 268.2143929551934 184.5132421416496 L 268.19294356940077 184.519656007567 L 268.17149525387083 184.52604821635566 L 268.15004859177293 184.5324194483279 L 268.1286041674803 184.53877038122468 L 268.10716256658776 184.5451016902378 L 268.0857243759279 184.5514140480315 L 268.0642901835928 184.55770812476138 L 268.04286057894575 184.56398458809525 L 268.0214361526396 184.57024410323066 L 268.0000174966267 184.5764873329138 L 267.97860520417737 184.58271493745525 L 267.9571998698884 184.58892757474672 L 267.9358020896982 184.5951259002757 L 267.91441246089295 184.60131056714067 L 267.8930315821246 184.60748222606276 L 267.8716600534076 184.6136415254013 L 267.85029847614436 184.61978911116134 L 267.8289474531163 184.62592562700854 L 267.80760758850323 184.63205171427614 L 267.78627948788477 184.63816801197518 L 267.7649637582443 184.64427515680293 L 267.7436610079812 184.6503737831485 L 267.7223718469067 184.65646452310114 L 267.7010968862527 184.66254800645459 L 267.6798367386757 184.6686248607111 L 267.65859201825674 184.67469571108603 L 267.6373633405026 184.6807611805105 L 267.6373633313949 184.68076114863425 L 267.63736272348126 184.68076135680582 L 267.6161570808912 184.6868202148611 L 267.5949643945979 184.69287598885384 L 267.57378466400223 184.6989292956218 L 267.55261788622374 184.704980751522 L 267.5314640583782 184.71103097178025 L 267.51032317638663 184.7170805708331 L 267.48919523511194 184.7231301622895 L 267.468080229115 184.72918035871584 L 267.44697815139733 184.73523177199792 L 267.4258889941732 184.74128501312165 L 267.4048127489153 184.74734069216228 L 267.3837494064811 184.75339941825013 L 267.36269895600753 184.7594617998916 L 267.3416613865407 184.76552844450296 L 267.32063668565047 184.77159995881306 L 267.29962484012344 184.7776769486668 L 267.2786258359807 184.78376001902404 L 267.25763965817424 184.78984977405142 L 267.2366662907392 184.79594681708272 L 267.21570571674 184.80205175063918 L 267.1947579183737 184.80816517640466 L 267.1738228767163 184.81428769530447 L 267.15290057214327 184.8204199073886 L 267.13199098379835 184.8265624119926 L 267.1110940900622 184.8327158076066 L 267.0902098682191 184.8388806919795 L 267.0693382946584 184.84505766206664 L 267.04847934459525 184.8512473141192 L 267.02763299256105 184.85745024354637 L 267.00679921178835 184.86366704510556 L 266.9859779746224 184.86989831278822 L 266.965169252521 184.8761446398277 L 266.94437301567075 184.882406618823 L 266.9235892333033 184.8886848416532 L 266.9028178737949 184.8949798994561 L 266.8820589042315 184.9012923827696 L 266.8613122907978 184.90762288142366 L 266.8405779985549 184.91397198461823 L 266.81985599153415 184.9203402809052 L 266.7991462325972 184.92672835824249 L 266.7784486836303 184.93313680394533 L 266.757763305423 184.9395662047356 L 266.737090057521 184.9460171467994 L 266.71642889859316 184.95249021568517 L 266.6957797859131 184.95898599647867 L 266.6751426759156 184.9655050736414 L 266.6545175236347 184.97204803120098 L 266.6339042831974 184.97861545260926 L 266.6133029073872 184.98520792089477 L 266.59271334792567 184.99182601858786 L 266.57213555537805 184.99847032776594 L 266.5515694790925 185.00514143008812 L 266.5310150672669 185.01183990678973 L 266.51047226681806 185.01856633874104 L 266.48994102363525 185.0253213063809 L 266.4694212822736 185.0321053898342 L 266.4489129860495 185.03891916889802 L 266.4284160771816 185.0457632230127 L 266.407930496552 185.05263813135943 L 266.38745618388543 185.05954447281877 L 266.36699307758965 185.06648282604348 L 266.3465411148828 185.07345376943493 L 266.3261002317337 185.08045788118295 L 266.30567036279734 185.0874957393082 L 266.2852514415001 185.0945679216536 L 266.26484340001554 185.1016750059137 L 266.2444461691936 185.10881756968038 L 266.22405967865893 185.11599619043096 L 266.20368385668047 185.12321144559567 L 266.18331863030613 185.13046391253323 L 266.16296392527937 185.1377541685832 L 266.14261966600327 185.14508279110234 L 266.12228577563303 185.15245035745542 L 266.10196217600793 185.15985744506395 L 266.081648787606 185.16730463144745 L 266.06134552974254 185.17479249417596 L 266.0410523202602 185.18232161100906 L 266.0207690758112 185.18989255981793 L 266.00049571168904 185.19750591867387 L 265.9802321418887 185.20516226585258 L 265.9599782791505 185.2128621798442 L 265.93973403478356 185.22060623944816 L 265.9194993189571 185.22839502368956 L 265.8992740404017 185.23622911196173 L 265.87905810663574 185.24410908396774 L 265.85885142386655 185.25203551978692 L 265.8386538970023 185.2600089998997 L 265.81846542963694 185.2680301052233 L 265.798285924156 185.27609941709912 L 265.778115281622 185.2842175173687 L 265.7579534018551 185.29238498837177 L 265.73780018339414 185.30060241299267 L 265.71765552354645 185.3088703746712 L 265.6975193183907 185.3171894574325 L 265.67739146272874 185.32556024593848 L 265.6572718501975 185.33398332547353 L 265.63716037317704 185.34245928201432 L 265.6170569228834 185.35098870222356 L 265.6108149180558 185.35365487025507 L 265.6079136396157 185.3551153277042 L 265.59236433997717 185.3630492798854 L 265.576965713465 185.37101401321328 L 265.56171929694585 185.37900867279467 L 265.54662662157784 185.38703237868992 L 265.5316892120583 185.39508422529872 L 265.51690858580275 185.40316328075608 L 265.502286252074 185.41126858632913 L 265.48782371104153 185.41939915582626 L 265.4735224527668 185.42755397502307 L 265.4593839561962 185.43573200105843 L 265.44540968797736 185.443932161908 L 265.43160110129276 185.4521533558257 L 265.4179596345808 185.46039445082937 L 265.40448671019095 185.46865428420665 L 265.39118373293053 185.4769316620685 L 265.378052088606 185.48522535889057 L 265.3650931423596 185.49353411716922 L 265.3523082370296 185.5018566470534 L 265.3396986913365 185.51019162608105 L 265.32726579802977 185.51853769894012 L 265.31501082189163 185.52689347732547 L 265.30293499766975 185.535257539852 L 265.29103952788574 185.54362843206536 L 265.2793255805519 185.55200466653702 L 265.26779428679214 185.56038472305315 L 265.2564467382947 185.56876704896032 L 265.2452839847337 185.5771500595794 L 265.23430703103764 185.58553213878642 L 265.22351683454144 185.59391163974811 L 265.2129143020458 185.6022868858078 L 265.2025002867632 185.61065617155225 L 265.1922755851835 185.61901776404974 L 265.1822409337764 185.62736990434445 L 265.17239700568194 185.63571080910495 L 265.1627444072334 185.64403867257437 L 265.15328367445983 185.6523516687242 L 265.144015269477 185.66064795371264 L 265.13493957684807 185.6689256686046 L 265.12605689984457 185.67718294244406 L 265.1173674567679 185.68541789556357 L 265.1088713771156 185.69362864336347 L 265.1005686979165 185.70181330029152 L 265.0924593599316 185.7099699843487 L 265.08454320402126 185.7180968218688 L 265.07681996753325 185.72619195275533 L 265.06928928078077 185.73425353615067 L 265.0619506637133 185.7422797564744 L 265.0548035227139 185.75026882994624 L 265.0478471476177 185.75821901154004 L 265.04108070899923 185.76612860236426 L 265.0345032557168 185.7739959575318 L 265.028113712852 185.78181949440804 L 265.0219108799721 185.78959770137246 L 265.0158934299005 185.79732914691894 L 265.0100599079276 185.80501248922218 L 265.0044087315881 185.81264648605892 L 264.99893819105864 185.82023000505006 L 264.99364645016277 185.82776203428023 L 264.98853154814503 185.83524169310485 L 264.9835914021786 185.84266824321452 L 264.9788238106828 185.85004109986554 L 264.97422645754216 185.85735984314667 L 264.9697969172088 185.86462422929915 L 264.9655326607679 185.8718342019493 L 264.961431063007 185.87898990315125 L 264.9574894104683 185.88609168421993 L 264.9537049105734 185.8931401161335 L 264.95007470177535 185.90013599948193 L 264.94659586474444 185.90708037384312 L 264.9432654346173 185.91397452637682 L 264.9400804142245 185.92081999963304 L 264.93703778830064 185.92761859836548 L 264.9341345385981 185.934372395278 L 264.931367659863 185.94108373552706 L 264.92873417656455 185.9477552399207 L 264.92623116028375 185.95438980669564 L 264.92385574767036 185.96099061172296 L 264.92160515881403 185.96756110711576 L 264.91947671590117 185.97410501813894 L 264.91746786200844 185.98062633835315 L 264.9155761798713 185.98712932294308 L 264.9137994104373 185.99361848027917 L 264.9121354710639 186.0000985615874 L 264.91058247314845 186.00657454885751 L 264.90913873901815 186.01305164101348 L 264.90780281791933 186.0195352383358 L 264.9065735009077 186.02603092532982 L 264.90544983448683 186.03254445211076 L 264.90443113284965 186.0390817143829 L 264.90419970256033 186.04074426030203 L 264.9081995181423 186.05342239819726 L 264.914000938978 186.07143188487078 L 264.91990621483967 186.08939290222028 L 264.92591494109854 186.10730566180757 L 264.9320267154845 186.12517036935068 L 264.9382411379331 186.1429872246939 L 264.94455781043825 186.16075642179698 L 264.95097633689653 186.17847814870427 L 264.9574963229564 186.1961525875298 L 264.9641173758627 186.21377991443381 L 264.97083910430223 186.23136029960241 L 264.9776611182768 186.24889390730445 L 264.98458302891714 186.26638089579177 L 264.99160444838276 186.28382141742426 L 264.9987249896806 186.30121561858724 L 265.0059442665319 186.31856363973054 L 265.0132618932554 186.33586561544735 L 265.0206774845994 186.35312167442638 L 265.0281906556065 186.3703319394842 L 265.0358010215111 186.38749652766967 L 265.0435081975744 186.40461555022517 L 265.05131179897876 186.42168911267774 L 265.0592114406763 186.43871731482858 L 265.0672067373018 186.45570025088043 L 265.0752973030213 186.47263800942156 L 265.08348275143726 186.489530673529 L 265.0917626954505 186.50637832077783 L 265.10013674716356 186.5231810233337 L 265.10860451778706 186.5399388480455 L 265.11716561750313 186.55665185644997 L 265.1258196553762 186.5733201048669 L 265.1345662392774 186.58994364451655 L 265.1434049757482 186.60652252151422 L 265.1523354699376 186.62305677700405 L 265.16135732550765 186.6395464472264 L 265.17047014453647 186.65599156357806 L 265.17967352744967 186.67239215271954 L 265.18896707293044 186.6887482366389 L 265.1983503778524 186.70505983275348 L 265.20782303719824 186.72132695397994 L 265.21738464400283 186.73754960884435 L 265.22703478926616 186.7537278015344 L 265.2367730619141 186.76986153203032 L 265.24659904871044 186.78595079614695 L 265.256512334247 186.80199558570325 L 265.2665125008241 186.81799588850467 L 265.2765991284561 186.83395168852783 L 265.28677179478683 186.8498629659523 L 265.2970300750854 186.86572969731722 L 265.3073735421559 186.88155185553796 L 265.31780176632367 186.89732941003808 L 265.3283143154074 186.91306232685395 L 265.33891075466227 186.92875056869153 L 265.3495906467806 186.94439409506498 L 265.3603535518248 186.95999286233052 L 265.37119902722753 186.97554682381568 L 265.3821266277668 186.99105592990688 L 265.39313590553877 187.00652012812978 L 265.4042264099454 187.0219393632467 L 265.41539768767313 187.03731357733778 L 265.4266492826674 187.05264270987266 L 265.4379807361618 187.06792669785295 L 265.4493915866145 187.08316547582393 L 265.46088136975595 187.09835897603455 L 265.47244961852715 187.11350712844558 L 265.4840958631235 187.12860986087503 L 265.4958196309682 187.14366709904792 L 265.5076204467186 187.15867876668412 L 265.5194978322774 187.17364478558997 L 265.5314513067785 187.18856507571397 L 265.54348038660345 187.20343955523853 L 265.5555845853744 187.21826814063837 L 265.56776341400786 187.23305074681127 L 265.58001638066116 187.24778728707383 L 265.58884254386163 187.258305973466 L 265.5894760393397 187.2579097372657 L 265.5905670475249 187.25722928793914 L 265.59543966926316 187.25419898490884 L 265.5965714547645 187.25349721136152 L 265.601473139709 187.25046690833122 L 265.60264475309174 187.2497448242925 L 265.60757673797474 187.2467145212622 L 265.60878720165704 187.24597315468714 L 265.6137507232107 187.24294285165684 L 265.614999033019 187.24218324190258 L 265.61999532797546 187.23915293887228 L 265.6212804547721 187.23837613388866 L 265.6263107598636 187.23534583085834 L 265.6276316512034 187.23455288443026 L 265.63269720316214 187.23152258139996 L 265.6340527849957 187.23071455043768 L 265.63915482055376 187.22768424740738 L 265.6405439990159 187.22686218927097 L 265.6456837549056 187.22383188624067 L 265.6471054180835 187.2229968561681 L 265.652284131037 187.2199665531378 L 265.6537371508078 187.21911960172926 L 265.65895605755713 187.21608929869896 L 265.66043929145616 187.21523146948653 L 265.66569962873365 187.21220116645623 L 265.66721192180995 187.2113334935885 L 265.6725149263477 187.2083031905582 L 265.67405511308334 187.207426696559 L 265.6794020216136 187.2043963935287 L 265.68096892779397 187.203512087198 L 265.6863609770489 187.20048178416766 L 265.6879534217038 187.19959065855818 L 265.69339184841556 187.19656035552788 L 265.69500864568676 187.19566338608053 L 265.70049468658755 187.19263308305023 L 265.70213464764055 187.1917312258221 L 265.7076695394626 187.1887009227918 L 265.7093314743476 187.18779511283012 L 265.714916453823 187.18476480979982 L 265.71659917334017 187.18385595962923 L 265.72223547720114 187.18082565659893 L 265.72393779470315 187.17991465485832 L 265.72962665968186 187.17688435182802 L 265.73134739287565 187.17597206201927 L 265.73709005570436 187.17294175898897 L 265.73882802837784 187.1720290183756 L 265.74462572578864 187.16899871534528 L 265.74637976953466 187.1680863339585 L 265.75223373825975 187.1650560309282 L 265.7540026940922 187.16414479073165 L 265.7599141708638 187.16111448770135 L 265.7616968908256 187.1602051418575 L 265.7676671123758 187.1571748388272 L 265.76946246106473 187.1562681110994 L 265.77549266412586 187.1532378080691 L 265.7772949817786 187.15233665008267 L 265.7894161939001 187.14630655008258 L 265.79121563283275 187.1454158619629 L 265.80333684495395 187.13944636183973 L 265.8051284874551 187.13856844428653 L 265.81724969957634 187.13265892567424 L 265.8190332172254 187.13179376944018 L 265.8311544293466 187.12594361397262 L 265.8329294956611 187.1250912052728 L 265.8450507077823 187.11929979458395 L 265.8468169983328 187.11846011517906 L 265.858938210454 187.11272683090277 L 265.8606954030124 187.11189985816858 L 265.8728166151336 187.1062240819388 L 265.8745643897946 187.10540978895017 L 265.8866856019158 187.09979090240074 L 265.8884236412336 187.09898925801073 L 265.90054485335486 187.09342664277565 L 265.90227284244855 187.09263761171084 L 265.91439405456975 187.08713064942395 L 265.91611168126485 187.08635419236415 L 265.92823289338605 187.0809022646594 L 265.9299398483114 187.08013833833985 L 265.9420610604326 187.07474082685113 L 265.9437570371363 187.07398938415656 L 265.9558782492575 187.06864567051778 L 265.95756294431476 187.06790666058143 L 265.969684156436 187.0626161264265 L 265.97135726954644 187.06188949473432 L 265.98347848166765 187.05665152169715 L 265.9851397157571 187.05593721019096 L 265.9972609278783 187.05075117990543 L 265.9989099891915 187.05004912709023 L 266.0110312013127 187.04491442119033 L 266.01266779949106 187.04422456224833 L 266.02478901161226 187.03914056236786 L 266.02641285979684 187.038462829262 L 266.03853407191804 187.03342891703494 L 266.04014488680923 187.0327632386304 L 266.0522660989305 187.02777879569064 L 266.0538636008737 187.02712509786556 L 266.0659848129949 187.02218950584702 L 266.06756872604984 187.0215477116093 L 266.07968993817104 187.01666035214586 L 266.0812599901747 187.01603038175236 L 266.0933812022959 187.01119063647798 L 266.09493712492264 187.0105724075541 L 266.10705833704384 187.00577965810263 L 266.10859986586945 187.00517308575937 L 266.1207210779907 187.00042671376477 L 266.1222479525311 186.99983171072532 L 266.1343691646523 186.99513109782146 L 266.1358811284288 186.9945475745358 L 266.14800234055 186.9898921023566 L 266.1494991411183 186.9893199671296 L 266.1616203532395 186.98470901730897 L 266.1631017422373 186.98414817641958 L 266.1752229543585 186.97958113059144 L 266.1766886875363 186.9790314884173 L 266.1888098996575 186.97450772821554 L 266.19025973691305 186.97396918735433 L 266.2023809490343 186.96948809441287 L 266.20381465443637 186.96896055580652 L 266.2159358665576 186.96452151175927 L 266.21735320837297 186.9640048748148 L 266.22947442049417 186.95960726129567 L 266.2308751712029 186.95910142400916 L 266.2429963833241 186.95474462265204 L 266.2443803196394 186.95424948172854 L 266.2565015317606 186.9499328741674 L 266.257868434632 186.94944832514526 L 266.2699896467532 186.9451712930139 L 266.27133930138916 186.94469723038 L 266.2834605135104 186.94045915531242 L 266.28479270936515 186.93999547262823 L 266.29691392148635 186.93579573625829 L 266.29822845228057 186.93534232627164 L 266.31034966440177 186.9311803102333 L 266.3116463281031 186.9307370650022 L 266.3237675402243 186.92661215092934 L 266.32504613905184 186.92617896193528 L 266.33716735117304 186.92209053146178 L 266.33842769159156 186.92166728972404 L 266.35054890371276 186.91761472448385 L 266.35179079641233 186.9172013206768 L 266.3639120085336 186.9131840023038 L 266.3651352684239 186.91278032686674 L 266.3772564805451 186.90879763699485 L 266.3784609267376 186.9084035802435 L 266.3905821388588 186.9044549005066 L 266.39176759464715 186.90407035274276 L 266.40388880676835 186.90015506477485 L 266.40505509960167 186.8997799163963 L 266.41717631172287 186.8958974018312 L 266.41832327319554 186.89553154343326 L 266.43044448531674 186.89168118390492 L 266.4315719511285 186.89132450638965 L 266.44369316324975 186.88750568353194 L 266.44480097318757 186.88715807820762 L 266.45692218530877 186.8833701736545 L 266.45801018321197 186.88303153233795 L 266.47013139533317 186.8792739277233 L 266.4711994290669 186.87894414283747 L 266.48332064118813 186.8752162197952 L 266.4843685626052 186.87489518446745 L 266.4964897747264 186.87119632463146 L 266.49751743963776 186.87088393278702 L 266.50963865175896 186.86721351779124 L 266.51064591989297 186.86690966424766 L 266.5227671320142 186.86326707572596 L 266.5237538669852 186.86297165628207 L 266.5358750791064 186.8593562758684 L 266.53684114837205 186.85906918739462 L 266.54896236049325 186.8554803967229 L 266.54990763531555 186.85520153724764 L 266.56202884743675 186.85163871795172 L 266.5629532028482 186.85136798674415 L 266.5750744149694 186.847830520458 L 266.5759777297222 186.84756781811342 L 266.5880989418434 186.84405508647092 L 266.5889810983747 186.843800314989 L 266.60110231049595 186.84031169962404 L 266.60196319488625 186.84006476248686 L 266.61408440700745 186.83659964503337 L 266.61492390893454 186.8363604472823 L 266.62704512105574 186.83291820937418 L 266.62786313375335 186.8326866576833 L 266.63998434587455 186.82926668095448 L 266.6407807660914 186.8290426837017 L 266.6529019782126 186.82564434978607 L 266.6536767061645 186.82542781712385 L 266.6657979182857 186.82205050765532 L 266.66655085762153 186.8218413515755 L 266.6786720697428 186.818484448188 L 266.6794031274871 186.8182825825909 L 266.6915243396083 186.81494546691832 L 266.692233426136 186.8147508076709 L 266.7043546382572 186.81143286134713 L 266.7050416672368 186.8112453263478 L 266.717162879358 186.80794593100677 L 266.71782776771784 186.8077654402418 L 266.72994897983904 186.80448397751744 L 266.7305916477208 186.804310453119 L 266.742712859842 186.80104630464518 L 266.7433332305631 186.8008796709447 L 266.7554544426843 186.79763221835535 L 266.7560524426978 186.79747240193603 L 266.76817365481907 186.79424102686505 L 266.7687492136684 186.79408795661362 L 266.7808704257896 186.79087204069492 L 266.7814234760793 186.79072564784735 L 266.7935446882005 186.78752457271486 L 266.7940751655476 186.7873847909054 L 266.8061963776688 186.784197938193 L 266.8067042206762 186.7840647034957 L 266.8188254327974 186.78089145483727 L 266.8193105830104 186.78076470581001 L 266.8314317951316 186.77760444283953 L 266.84401540912626 186.77433622491523 L 266.856576222114 186.77108612634098 L 266.869114184269 186.7678534749919 L 266.881629248584 186.76463760137395 L 266.8941213708257 186.7614378386597 L 266.9065905095256 186.7582535227143 L 266.91903662593165 186.7550839921292 L 266.9314596840032 186.75192858824377 L 266.94385965037026 186.74878665517437 L 266.9562364943221 186.74565753983453 L 266.9685901877793 186.7425405919579 L 266.9809207052792 186.73943516411646 L 266.99322802395795 186.73634061173823 L 267.00551212352775 186.73325629312455 L 267.0177729862742 186.73018156946148 L 267.03001059703047 186.727115804835 L 267.0422249431797 186.72405836623847 L 267.0544160146366 186.72100862358357 L 267.06658380384357 186.71796594970644 L 267.07872830576656 186.7149297203726 L 267.07881836828903 186.7152899582107 L 267.0881346032898 186.7126745101896 L 267.13541560836603 186.70418868875618 L 267.18329272805033 186.70027921089468 L 267.231324056029 186.70098216112655 L 267.2790662626439 186.70629105121384 L 267.3260786868303 186.71615688004565 L 267.3719274034227 186.73048858591903 L 267.41618922828917 186.74915388703934 L 267.45845562432453 186.77198050248268 L 267.49833647225284 186.7987577423505 L 267.5354636714319 186.8292384524396 L 267.5927025225489 186.88102795237725 L 267.59680097543094 186.88477783291418 L 267.6533651891424 186.93711149501215 L 267.6574155930597 186.9409008741147 L 267.7133039326334 186.993771896346 L 267.7173058317475 186.99759995796202 L 267.77251706045126 187.05100153829963 L 267.77647002651514 187.05486747052464 L 267.8310029076167 187.10879280694155 L 267.8349065394223 187.11269580296593 L 267.8887598361896 187.16713809343517 L 267.8926137589781 187.17107735245207 L 267.9457862346789 187.22602979494658 L 267.949590099516 187.2300045230205 L 268.0020805174181 187.28546031551335 L 268.00583400053307 187.28946972640324 L 268.0576411239043 187.34542206686737 L 268.06134392600296 187.3494653828121 L 268.11246651811115 187.40590746922052 L 268.11611836365716 187.40998392167756 L 268.16655518777014 187.46690895200325 L 268.1701558242441 187.47101778234656 L 268.21990564362966 187.52841895456257 L 268.2234548407625 187.53255941473364 L 268.2725164186885 187.5904299268129 L 268.27601396767875 187.5946012799318 L 268.32438606741295 187.65293432984734 L 268.3278317801217 187.65713585077486 L 268.37551316493193 187.71592463649966 L 268.378906873067 187.72015561236043 L 268.42589630622115 187.7793933318675 L 268.4292378605061 187.78365306252627 L 268.47553410527183 187.8433329137886 L 268.478823374604 187.84762071228315 L 268.5244251942493 187.90773589327375 L 268.52766206485217 187.91205108620747 L 268.57256822264475 187.97259479489932 L 268.57575259721085 187.97693672278777 L 268.61996185641857 188.0379021571539 L 268.623093653251 188.04227017473204 L 268.6666047771417 188.10365053274538 L 268.66968392929266 188.10804400923413 L 268.7124956811341 188.16983248886774 L 268.7155221355418 188.17425080819618 L 268.7576332786018 188.23644060742302 L 268.76060699523157 188.24088316841656 L 268.802016292778 188.30346748520964 L 268.80493724376424 188.307933701735 L 268.8456434590649 188.3709057340673 L 268.8485116278602 188.37539503514307 L 268.8885135241829 188.4387479809876 L 268.8913289047106 188.4432598108545 L 268.93062524532314 188.50698686818424 L 268.9333878411416 188.511520686344 L 268.9719773893118 188.57561505313197 L 268.9746872127836 188.58017033434646 L 269.01256873177925 188.64462520856566 L 269.01522580325445 188.6492014428267 L 269.05239805634346 188.71401002245008 L 269.05500240335306 188.7186067149152 L 269.09146415380314 188.78376219791585 L 269.09401581026395 188.7883788688097 L 269.129765821343 188.8538744531605 L 269.1322648267795 188.85851063765202 L 269.1673018617553 188.92433952132603 L 269.1697482605321 188.92899476936864 L 269.2040710826725 188.99515015033884 L 269.2064649232461 188.99982402648897 L 269.2400722958189 189.06629910272835 L 269.24241363000357 189.07099118593365 L 269.27530431627656 189.13777915541522 L 269.27759319852737 189.14248903877535 L 269.3097659617684 189.2095830994721 L 269.3120024484829 189.21431038997818 L 269.3434560519597 189.28170373986313 L 269.34564020079705 189.28644805810924 L 269.3763734077776 189.35413389515534 L 269.37850527699726 189.3588948750307 L 269.40851685074927 189.42686639721097 L 269.41059649856805 189.431643685566 L 269.4398852023594 189.49989409085345 L 269.4419126863295 189.50468734714897 L 269.4704772834279 189.5732098335166 L 269.47245265983344 189.57801872944825 L 269.50029191350677 189.646806494869 L 269.5022152367827 189.65163071397706 L 269.52932791029883 189.72067695642397 L 269.53119923246965 189.72551619368227 L 269.5575840890963 189.79481411112835 L 269.55940345923506 189.79966807251392 L 269.5850592622401 189.86921086293214 L 269.586826725951 189.87407926498366 L 269.6117522386023 189.943860126347 L 269.6134678375228 189.94874269570184 L 269.6376618230881 190.01875482598334 L 269.63932559441315 190.02365129890075 L 269.66278681616024 190.09388789607337 L 269.66439879218956 190.09879801794614 L 269.6871260133863 190.1692522799829 L 269.6886862210927 190.17417580483257 L 269.71067820500696 190.24484092970644 L 269.7121866656273 190.2497776196657 L 269.7334421755269 190.3206468053497 L 269.73489890417545 190.32559643013434 L 269.7554167033281 190.39666287460147 L 269.756821708632 190.4016252109668 L 269.77660056030555 190.47288211219004 L 269.7779538440638 190.47785694338177 L 269.79699251152607 190.54929749933413 L 269.7982940683902 190.5542846145227 L 269.8165913149091 190.62590202317713 L 269.81784113208835 190.63090121688901 L 269.83539572093156 190.70268867621854 L 269.83659377791855 190.70769974774905 L 269.853404472354 190.7796504557267 L 269.85455074067625 190.78467320855387 L 269.8706163039717 190.8567803631526 L 269.87171074696477 190.86181460433605 L 269.887029942388 190.93407140352886 L 269.88807251499196 190.9391169431012 L 269.9026441058109 191.0115165848611 L 269.9036347543921 191.01657323521857 L 269.91745750387446 191.08910891751856 L 269.91839616606836 191.09417649279393 L 269.93146883748204 191.16684141360702 L 269.93235544206243 191.17191972904766 L 269.9446767986752 191.2447070863468 L 269.94551126544565 191.24979595767752 L 269.9570800705253 191.32269894943573 L 269.9578623102362 191.32779819222316 L 269.96867732705056 191.40081001641343 L 269.9694072413392 191.4059194454205 L 269.9794672331562 191.47903330001583 L 269.98014471451336 191.48415272855783 L 269.98944844460067 191.55736181153122 L 269.99007337635993 191.56249105081943 L 269.9986196079854 191.63578856014388 L 269.99919186433937 191.64092741863456 L 270.0069793607709 191.71430655228306 L 270.00749880681207 191.7194548350213 L 270.01452633131737 191.79290879096686 L 270.0149928231041 191.79806629892227 L 270.02125913895105 191.87158827513784 L 270.0216725236006 191.8767548045491 L 270.02717639405705 191.95033799900773 L 270.02753650986386 191.9555133407176 L 270.03227669819756 192.02915095139224 L 270.0325833747782 192.03433489018596 L 270.036558644257 192.10802011504964 L 270.03681170272216 192.11321242899464 L 270.04002081661383 192.18693846602034 L 270.0402200697667 192.19213892580268 L 270.0426617913391 192.2658989729634 L 270.0428070439019 192.27110734123323 L 270.04448013642286 192.34489459650197 L 270.0445711852901 192.35011062721296 L 270.04547441202743 192.4239182885627 L 270.0455110465478 192.42914172632229 L 270.0456431707693 192.50296299172606 L 270.0456251730551 192.5081935711468 L 270.0449849580286 192.58202163857754 L 270.0449121032939 192.58725908363132 L 270.0434983122872 192.66108715106208 L 270.0433703692148 192.6663311744472 L 270.04118176549576 192.740152439851 L 270.04099849663254 192.74540274235844 L 270.0380338434689 192.81921040370818 L 270.03779500565105 192.8244666736011 L 270.0340530663107 192.89825392886985 L 270.0337584111171 192.9035158412733 L 270.02923794886783 192.977275888434 L 270.0288872231042 192.98254310472936 L 270.02358700121385 193.05626914175508 L 270.0231799474254 193.0615413089927 L 270.0170987291617 193.13522653385638 L 270.0166350861757 193.14050328417636 L 270.0097716348066 193.214140894851 L 270.009251138305 193.2194218449219 L 270.0016042170982 193.29300503938052 L 270.0010266002193 193.29828978984898 L 269.9925949724427 193.37181176606455 L 269.99195996641265 193.37709990102843 L 269.9884889620831 193.40476000768044 L 269.9847968843026 193.6617286212043 L 269.9746958742016 194.3647589242346 L 269.9696453691511 194.71627407574965 L 269.9661482832624 194.9596712536065 L 269.96844767344066 194.96398502759504 L 269.9817026998025 194.98766824405968 L 269.9956233483658 195.01141470150057 L 270.01021818649315 195.03523826153557 L 270.02549485493256 195.0591508923164 L 270.0414599468995 195.0831628457542 L 270.0581189169314 195.10728284196585 L 270.07547601770506 195.13151825587943 L 270.0935342624964 195.1558753017345 L 270.11229541051324 195.1803592118708 L 270.1317599721534 195.20497440698904 L 270.1519272311533 195.2297246557557 L 270.17279528064313 195.25461322226707 L 270.1943610703183 195.27964300052162 L 270.2166204620348 195.3048166354011 L 270.2395682915364 195.33013663024198 L 270.263198434173 195.35560544124837 L 270.2875038728328 195.3812255593364 L 270.3124767665699 195.40699958015037 L 270.3381085186282 195.43293026306387 L 270.36438984295665 195.45902058019928 L 270.39131082828777 195.48527375627944 L 270.4188609993112 195.51169330039127 L 270.4470293744463 195.53828303051642 L 270.4758045200002 195.56504709177517 L 270.50517460046575 195.59198996912943 L 270.5351274249714 195.61911649538004 L 270.5656504899291 195.64643185517846 L 270.5967310178151 195.67394158555123 L 270.61201520245595 195.68733367773146 L 270.61307971258543 195.61324377271944 Z" id="element_199" /></svg>