<?xml version='1.0' encoding='utf-8'?>
<svg xmlns:svg="http://www.w3.org/2000/svg" version="1.1" id="Layer_1" x="0px" y="0px" viewBox="0 0 500 500" style="width: 188px;" xml:space="preserve" data-imageid="paris-93" imageName="Paris" class="illustrations_image"><svg:style type="text/css">
	.st0_paris-93{fill:#FBB03B;}
	.st1_paris-93{fill:#4378C4;}
	.st2_paris-93{fill:#9AC0FF;}
	.st3_paris-93{fill:#4D3706;}
	.st4_paris-93{fill:#68E1FD;}
	.st5_paris-93{opacity:0.51;}
	.st6_paris-93{fill:#344E4F;}
	.st7_paris-93{opacity:0.51;fill:#344E4F;enable-background:new    ;}
</svg:style><svg:path class="st1_paris-93" d="M 269.9696453691511 194.71627407574965 L 269.9746958742016 194.3647589242346 L 269.9847968843026 193.6617286212043 L 269.9884889620831 193.40476000768044 L 269.98274239533407 193.45055385697398 L 269.98204973012776 193.45584494346812 L 269.9720449790149 193.52922407711662 L 269.9712943840463 193.53451766461978 L 269.96050121616713 193.60781517394423 L 269.9596924210077 193.61311079391203 L 269.94810959962996 193.68631987688542 L 269.94724233475665 193.69161704230078 L 269.93486862314813 193.7647308968961 L 269.93394262071934 193.7700291018458 L 269.9207767821479 193.84304092603608 L 269.91979177680605 193.8483396453183 L 269.90583257453955 193.92124263707652 L 269.904788304242 193.92654132583047 L 269.8900345015482 193.99932868312962 L 269.8894834738822 193.99921699129516 L 269.88615655302135 194.01684094297062 L 269.8756720628253 194.06046523668397 L 269.86722320465293 194.09874249261205 L 269.85972479763103 194.1360914512482 L 269.85314990933335 194.17252728717813 L 269.84747124975536 194.20806695033983 L 269.8426613166529 194.24272929801688 L 269.83869256417483 194.27653521127178 L 269.8355375938991 194.30950769047516 L 269.8331693663816 194.34167192452406 L 269.83156143025565 194.37305532843007 L 269.8306881648001 194.4036875441892 L 269.830525030766 194.43360040065022 L 269.83104882322715 194.46282782889807 L 269.83223791934535 194.4914057310264 L 269.83407251332 194.51937180173866 L 269.83653483049505 194.5467653038977 L 269.83960931268246 194.57362680111322 L 269.84328276728695 194.59999785240126 L 269.84754447375025 194.6259206756274 L 269.85238624222313 194.65143778827903 L 269.8578024210451 194.67659163506337 L 269.8637898516232 194.7014242129456 L 269.8703477713377 194.7259767041821 L 269.87747766725937 194.75028912796859 L 269.8851830853533 194.77440002022968 L 269.8934694015755 194.79834615001516 L 269.9023435625533 194.82216227917633 L 269.9118138044282 194.84588097013582 L 269.92188935883803 194.86953244449558 L 269.93258015491966 194.89314449311271 L 269.94389652579036 194.91674243652486 L 269.95584892700026 194.94034913265398 L 269.9661482832624 194.9596712536065 L 269.9696453691511 194.71627407574965 Z" id="element_201" /></svg>