<?xml version='1.0' encoding='utf-8'?>
<svg xmlns:svg="http://www.w3.org/2000/svg" version="1.1" id="Layer_1" x="0px" y="0px" viewBox="0 0 500 500" style="width: 188px;" xml:space="preserve" data-imageid="paris-93" imageName="Paris" class="illustrations_image"><svg:style type="text/css">
	.st0_paris-93{fill:#FBB03B;}
	.st1_paris-93{fill:#4378C4;}
	.st2_paris-93{fill:#9AC0FF;}
	.st3_paris-93{fill:#4D3706;}
	.st4_paris-93{fill:#68E1FD;}
	.st5_paris-93{opacity:0.51;}
	.st6_paris-93{fill:#344E4F;}
	.st7_paris-93{opacity:0.51;fill:#344E4F;enable-background:new    ;}
</svg:style><svg:path class="st1_paris-93" d="M 117.26995836317921 188.9636507625789 L 117.23465121149384 188.92850495744128 L 117.1960218800775 188.89704709144198 L 117.15445385351785 188.86958945594944 L 117.1103597896824 188.84640463088257 L 117.06417742314405 188.8277227787308 L 117.01636521966286 188.81372935966397 L 116.96739782486344 188.80456329041576 L 116.91776135228997 188.80031556521658 L 116.86794855761592 188.8010283524677 L 116.81845394691544 188.80669457612316 L 116.76976886755803 188.8172579859357 L 116.7223766304605 188.8326137158694 L 116.67674771211924 188.85260932513518 L 116.63333508405339 188.87704631151487 L 116.59256971602512 188.90568208195023 L 116.55485629767769 188.9382323608347 L 116.52056922106382 188.97437401209996 L 116.49004886394715 189.01374824708142 L 116.46359821077327 189.05596418631745 L 116.44147984485532 189.10060273992332 L 116.42391334163304 189.14722076801812 L 116.41107308888377 189.195355479903 L 116.40308655552427 189.2445290283188 L 116.40003302618982 189.2942532531746 L 116.39599262214941 189.64576840468976 L 116.39195221810901 189.99728355620488 L 116.3879118140686 190.34879870772008 L 116.3838714100282 190.7003138592352 L 116.3798310059878 191.05182901075034 L 116.37579060194739 191.40334416226554 L 116.37175019790699 191.75485931378063 L 116.36770979386658 192.10637446529583 L 116.36366938982619 192.45788961681095 L 116.35962898578578 192.8094047683261 L 116.35558858174537 193.1609199198413 L 116.35154817770497 193.5124350713564 L 116.34750777366456 193.86395022287158 L 116.34346736962416 194.2154653743867 L 116.33942696558375 194.56698052590187 L 116.33538656154334 194.91849567741704 L 116.33134615750295 195.27001082893216 L 116.32730575346254 195.62152598044733 L 116.32326534942214 195.97304113196247 L 116.31518454134132 196.6760714349928 L 116.31114413730093 197.0275865865079 L 116.30710373326052 197.37910173802308 L 116.30306332922012 197.73061688953823 L 116.29902292517971 198.0821320410534 L 116.29498252113932 198.43364719256851 L 116.29094211709891 198.7851623440837 L 116.2869017130585 199.13667749559886 L 116.2828613090181 199.48819264711398 L 116.27882090497769 199.83970779862915 L 116.2747805009373 200.19122295014427 L 116.27074009689689 200.54273810165944 L 116.26669969285648 200.8942532531746 L 116.26265928881608 201.24576840468973 L 116.25861888477567 201.5972835562049 L 116.25457848073528 201.94879870772004 L 116.24649767265446 202.65182901075036 L 116.24245726861406 203.00334416226548 L 116.23841686457365 203.35485931378068 L 116.23437646053326 203.7063744652958 L 116.22629565245244 204.4094047683261 L 116.22225524841204 204.76091991984126 L 116.21821484437163 205.11243507135643 L 116.21417444033123 205.46395022287155 L 116.21013403629082 205.8154653743867 L 116.20609363225041 206.1669805259019 L 116.20205322821002 206.518495677417 L 116.19801282416961 206.87001082893218 L 116.19397242012921 207.2215259804473 L 116.1899320160888 207.57304113196244 L 116.1858916120484 207.92455628347764 L 116.181851208008 208.27607143499276 L 116.17781080396759 208.62758658650793 L 116.1737703999272 208.97910173802308 L 116.16568959184637 209.6821320410534 L 116.16164918780598 210.0336471925685 L 116.15760878376557 210.38516234408368 L 116.15356837972517 210.73667749559883 L 116.14548757164435 211.43970779862914 L 116.14144716760396 211.79122295014426 L 116.13740676356355 212.14273810165946 L 116.13336635952315 212.49425325317458 L 116.12528555144233 213.1972835562049 L 116.12124514740194 213.54879870772004 L 116.11720474336153 213.9003138592352 L 116.11316433932113 214.25182901075033 L 116.10912393528072 214.60334416226547 L 116.10508353124031 214.95485931378067 L 116.10104312719992 215.3063744652958 L 116.0970027231595 215.65788961681096 L 116.09296231911911 216.00940476832608 L 116.0889219150787 216.36091991984128 L 116.0848815110383 216.7124350713564 L 116.07680070295748 217.4154653743867 L 116.07276029891709 217.76698052590186 L 116.06871989487668 218.11849567741703 L 116.06467949083628 218.47001082893215 L 116.06063908679587 218.8215259804473 L 116.05659868275546 219.1730411319625 L 116.05255827871507 219.5245562834776 L 116.04878838786884 219.8525367870987 L 116.19711235407773 219.80329036767293 L 116.35043098561643 219.75238438898484 L 116.50372127916705 219.70148041483995 L 116.65697395285257 219.65057535906217 L 116.81017971850173 219.5996661396503 L 116.96332928454328 219.54874967782501 L 117.11641335495379 219.49782289838961 L 117.26942262913028 219.44688272978655 L 117.4223478023544 219.39592610396048 L 117.57517956505068 219.34494995662556 L 117.72790860334565 219.2939512271033 L 117.88052559934536 219.2429268582561 L 118.03302123007997 219.1918737968702 L 118.18538616827627 219.14078899343073 L 118.33761108244893 219.08966940212792 L 118.48968663617995 219.03851198113853 L 118.64160348877265 218.98731369245016 L 118.79335229482409 218.93607150205204 L 118.94492370436328 218.8847823799393 L 119.09630836272716 218.8334433002095 L 119.24749691076572 218.78205124105122 L 119.39847998441232 218.73060318495223 L 119.54924821506035 218.67909611863772 L 119.69979222918299 218.62752703327016 L 119.85010264862804 218.57589292442321 L 120.00017009027003 218.52419079228 L 120.14998516623398 218.47241764163962 L 120.29953848359764 218.42057048210805 L 120.44882064460629 218.36864632811717 L 120.59782224649254 218.31664219908467 L 120.74653388141003 218.26455511954077 L 120.89494613646174 218.21238211922662 L 121.04304959359486 218.1601202332453 L 121.19083482965935 218.10776650216073 L 121.33829241620393 218.0553179721956 L 121.48541291954258 218.0027716953395 L 121.63218690069 217.95012472951024 L 121.77860491526761 217.89737413873218 L 121.9246575134983 217.84451699329003 L 122.07033524012529 217.79155036991702 L 122.21562863439765 217.73847135196647 L 122.22138815594127 217.73635696479838 L 122.22326534942215 217.57304113196244 L 122.22730575346255 217.2215259804473 L 122.23134615750295 216.87001082893212 L 122.23538656154335 216.518495677417 L 122.23942696558376 216.16698052590183 L 122.24346736962417 215.81546537438666 L 122.24750777366457 215.46395022287155 L 122.25154817770498 215.11243507135637 L 122.25558858174537 214.76091991984126 L 122.25962898578578 214.40940476832606 L 122.26366938982619 214.0578896168109 L 122.26770979386659 213.7063744652958 L 122.271750197907 213.35485931378062 L 122.27579060194739 213.0033441622655 L 122.2798310059878 212.6518290107503 L 122.28387141002821 212.30031385923516 L 122.28791181406861 211.94879870772004 L 122.29195221810902 211.59728355620484 L 122.29599262214941 211.24576840468973 L 122.30003302618982 210.89425325317455 L 122.3029696800058 210.8455862057337 L 122.31063230773627 210.79743654759875 L 122.32294804988489 210.75026210602735 L 122.33979980318092 210.70451143550662 L 122.3610273340465 210.6606195527081 L 122.386428802165 210.6190038001657 L 122.41576267966403 210.58005987800678 L 122.44875004766419 210.54415808146862 L 122.4850772483575 210.51163977997493 L 122.52439886739808 210.48281417125153 L 122.56634101824744 210.45795534134393 L 122.61050489724542 210.43729965849153 L 122.65647057560355 210.42104352563888 L 122.7038009922651 210.4093415129534 L 122.75204610966595 210.40230488810732 L 122.80074719288157 210.40000055829748 L 122.84944117147212 210.4024504340636 L 122.89766504255157 210.40963122095363 L 122.94496027321433 210.42147464101717 L 122.99087716045965 210.43786808202105 L 123.03497910715723 210.45865566821402 L 123.07684677339708 210.48363974245893 L 123.09817600744591 210.49937384518583 L 123.09745556227831 210.4905009802646 L 123.09588099608789 210.467110767557 L 123.09512167255343 210.45275333278022 L 123.09423349272433 210.42967106638605 L 123.09388185669879 210.41470134477643 L 123.0936881019902 210.39193691855317 L 123.09379846018435 210.3763477931345 L 123.09430716935543 210.35391110093963 L 123.09493790917467 210.33770147401418 L 123.09615712098464 210.31560240970512 L 123.09737025059766 210.29877848506922 L 123.09930800380569 210.27702694250348 L 123.10116842908302 210.25960357444845 L 123.1038327624483 210.23820944748346 L 123.10419660634663 210.23825475905142 L 123.10504019548196 210.22918480451577 L 123.1080707046343 210.20800318936415 L 123.11113505057764 210.186654690245 L 123.11420596424892 210.16533848888207 L 123.11728475451068 210.14405377061394 L 123.1203727347836 210.1227997256626 L 123.12347122312222 210.10157554931897 L 123.12658154228576 210.08038044213598 L 123.12970501980561 210.05921361012037 L 123.13284298804645 210.0380742649384 L 123.13599678426424 210.01696162411466 L 123.1391677506573 209.99587491124552 L 123.13924510093621 209.9953623828513 L 123.14235723441259 209.97481335621106 L 123.14243961348343 209.97427142418232 L 123.14556658774602 209.95377619539204 L 123.14565411615474 209.95320472120227 L 123.14879716793568 209.9327626718958 L 123.14888997131875 209.93216152396525 L 123.15205033735026 209.91177203577658 L 123.1521485464538 209.91114108971058 L 123.15532746346804 209.89080354427355 L 123.15543121416208 209.89014268309037 L 123.15862991889124 209.8698564620389 L 123.15873935217465 209.86916557641186 L 123.16195908135091 209.8489300613799 L 123.16207434334925 209.8482090498785 L 123.1653163337048 209.82802362249996 L 123.16543757565985 209.8272723918349 L 123.16870306392687 209.8071364337436 L 123.16883044217758 209.80635489901525 L 123.17212066508824 209.7862677918452 L 123.17225434104272 209.7854558767954 L 123.17557053532923 209.76541700218044 L 123.17571067542742 209.7645746394474 L 123.17905407782195 209.7445833790215 L 123.17920085348929 209.7437105103945 L 123.18257270072401 209.72376624579152 L 123.18272628831458 209.7228628224713 L 123.18612781712167 209.70296493532518 L 123.18628839785177 209.70203091818232 L 123.18972084496343 209.68217879012695 L 123.18988860483394 209.68121414996605 L 123.19335320698235 209.66140716263536 L 123.19352833669126 209.6604118804551 L 123.1970263306086 209.64064941548293 L 123.19720902545211 209.63962348273841 L 123.20074164787057 209.61990492175877 L 123.20093210763201 209.6188483406287 L 123.20450059528375 209.5991730652754 L 123.20469902411307 209.5980858489169 L 123.20830461373029 209.57845324082393 L 123.20851122000896 209.57733541364144 L 123.21215514832384 209.5577448544427 L 123.21237014452004 209.55659645234286 L 123.21605364826476 209.5370473236722 L 123.21627725077524 209.53586839432174 L 123.22000156668197 209.51636007781312 L 123.22023399566166 209.5151506808938 L 123.22400036046261 209.49568255818113 L 123.22424183964142 209.49444276564185 L 123.22805149006876 209.475014218359 L 123.2283022465563 209.47374411466035 L 123.23215641934222 209.45435452444124 L 123.23241668341893 209.45305420679932 L 123.23631661529559 209.43370295527788 L 123.23658662019189 209.43237253389796 L 123.2405335478915 209.41305900270808 L 123.2408135295525 209.4116986010191 L 123.24480868980721 209.39242217179472 L 123.24509888664657 209.39103192666633 L 123.2491435161886 209.37179198104133 L 123.2494441688274 209.37037204300324 L 123.25353950438891 209.35116796261153 L 123.25385085538295 209.34971849605776 L 123.25799813369613 209.33054966253326 L 123.25832042725004 209.32907084591875 L 123.26252088504707 209.30993664089536 L 123.26285436671593 209.30842866692157 L 123.26710924072898 209.2893284720332 L 123.26745415710731 209.28779154782353 L 123.27176468406859 209.26872474470406 L 123.27212128246738 209.2671590919659 L 123.27648869910907 209.2481250622493 L 123.2768572272204 209.24653091742508 L 123.28128277027466 209.2275290427452 L 123.28166347582604 209.22590665714426 L 123.28614838202505 209.20693631913505 L 123.28654151242081 209.20528595905742 L 123.29108701849677 209.1863465393528 L 123.29149282044982 209.1846684861936 L 123.29610016313491 209.1657593664274 L 123.29651888228817 209.16405391676355 L 123.30118929831457 209.14517447856977 L 123.30162117885199 209.14344194423276 L 123.30635590495189 209.12459156924524 L 123.3068011892013 209.1228322773715 L 123.31160146210686 209.1040103472242 L 123.31206039013313 209.10222464029033 L 123.31692744657656 209.08343053661713 L 123.3174002557681 209.08161877245144 L 123.32233533248157 209.06285187688624 L 123.32282225712906 209.0610144286617 L 123.32782659084475 209.04227412283845 L 123.32832786171348 209.04041137904457 L 123.33340268916356 209.02169704459715 L 123.33391853306125 209.01980940898636 L 123.33906509097794 209.0011204275487 L 123.33959573031643 208.9992083190657 L 123.34481525543188 208.98054407227167 L 123.34536090778758 208.9786079249508 L 123.35065463683398 208.95996779443433 L 123.35121551450345 208.95800805728095 L 123.356584684213 208.93939142467593 L 123.35716099376803 208.93740856151982 L 123.36260684087289 208.9188148084602 L 123.36319878271583 208.91680929778087 L 123.3687225439482 208.89823780590052 L 123.36933031186639 208.89621014063295 L 123.37493322395844 208.8776602915658 L 123.37555700468198 208.87561097887522 L 123.38124030436589 208.85708215425518 L 123.3818802771275 208.85501171528847 L 123.38764520113546 208.83650329674944 L 123.38830153723491 208.83441226635955 L 123.3941493222991 208.81592363553546 L 123.39482218467325 208.81381256197906 L 123.40075406752585 208.79534310050377 L 123.40144361032542 208.79321254511248 L 123.40746082769861 208.77476163461995 L 123.40816719587257 208.77261217144638 L 123.41427098449854 208.75417919357048 L 123.41499431338869 208.75201140900583 L 123.42118590999964 208.7335957453805 L 123.42192632494428 208.7314102377503 L 123.42820696627236 208.71301127000945 L 123.42896458222448 208.7108086491364 L 123.4353355050019 208.69242575891388 L 123.43611042615696 208.69020664566565 L 123.44257286711587 208.67183921459545 L 123.44336518655751 208.66960424039783 L 123.44992038243012 208.6512516501138 L 123.45073018178911 208.64900145644705 L 123.4573793693076 208.6306630885831 L 123.45820671843887 208.62839832645145 L 123.46495113433542 208.61007356264153 L 123.46579609101255 208.6077948920221 L 123.47263697201933 208.58948311390012 L 123.47349958164892 208.58719120316832 L 123.48043816449812 208.56889179236813 L 123.4813184598541 208.566587317704 L 123.4883559812779 208.54829965585955 L 123.48925398225663 208.54598330063564 L 123.49639167898722 208.52770676938084 L 123.4973073923859 208.52537922352977 L 123.50454650115546 208.50711320449852 L 123.5054799204738 208.5047751638637 L 123.51282167801452 208.48651903868995 L 123.51377278327874 208.4841712043648 L 123.52121842632279 208.46592435468236 L 123.52218718393803 208.4635674323271 L 123.5297379492176 208.44532923976996 L 123.53072431184144 208.44296393892668 L 123.5383814360887 208.42473378512875 L 123.5393853425353 208.4223608185145 L 123.54715006248246 208.40413808510962 L 123.54817143765021 208.40175816790799 L 123.55604499002942 208.38354223653013 L 123.55708374485775 208.38115608567054 L 123.56506736640121 208.36294633795362 L 123.5661233978534 208.36055467138752 L 123.5742183252933 208.3423504889654 L 123.57529151636865 208.33995402493528 L 123.58349898643715 208.32175478944188 L 123.58458920621047 208.31935424574831 L 123.59291045563977 208.30115933881757 L 123.5940175593275 208.29875543208883 L 123.60245382484977 208.28056423535463 L 123.60357765390653 208.27815768031203 L 123.61213017225396 208.2599695754083 L 123.61327055449536 208.25756108413708 L 123.62194056240014 208.2393754526977 L 123.62309731215278 208.23696573392382 L 123.63188604634708 208.21878195758273 L 123.63305896462683 208.21637171595336 L 123.64196766184284 208.19818917634444 L 123.6431565365589 208.1957791117183 L 123.65218643352881 208.17759719047547 L 123.6743213749017 208.137706827892 L 123.69999999999996 208.09999999999994 L 123.72060412896481 208.074333340605 L 123.73878605020764 208.05315172545338 L 123.73925315655143 208.05260834317352 L 123.75743569616036 208.03148732789884 L 123.75790586396597 208.03094197108226 L 123.77608964030708 208.00988093731843 L 123.77656284470228 208.00933365775208 L 123.79474847614166 207.98833198713302 L 123.79522469134706 207.9877828372784 L 123.81341279625082 207.96683991143803 L 123.81389199557739 207.96628894441625 L 123.83208319231159 207.94540414498843 L 123.83256534816313 207.9448514145602 L 123.85076025509389 207.92402412317887 L 123.85124533896132 207.92346968373332 L 123.8694445744547 207.90269928203242 L 123.86993255691891 207.90214318856678 L 123.88813673934104 207.88142905818015 L 123.88862759007338 207.88087136628192 L 123.90683733779032 207.86021288884353 L 123.90733102555133 207.85965365467496 L 123.92554695692918 207.8390502118187 L 123.92604344957202 207.83848949209587 L 123.94426618297688 207.81794046545562 L 123.94476544744907 207.81737831742993 L 123.96299560124703 207.79688308863965 L 123.96349760359087 207.79631957008073 L 123.981735796148 207.77587752077426 L 123.9822405015079 207.7753126899454 L 124.00048735119032 207.75492320175672 L 124.00099472381149 207.75435711740033 L 124.01925084898528 207.7340195719633 L 124.0197608522221 207.7334522932755 L 124.03802687125335 207.71316607222403 L 124.03853946757255 207.71259765883568 L 124.05681599882735 207.6923621438037 L 124.0573311498132 207.6917926557591 L 124.07561881165763 207.67160722838054 L 124.07613647801807 207.6710367261157 L 124.09443588881825 207.6509007680244 L 124.09495603039342 207.65032931234273 L 124.11326780851542 207.6302422051727 L 124.11379038428161 207.62966985722625 L 124.13211514809153 207.6096309826113 L 124.13264011617309 207.6090578038735 L 124.15097848403703 207.58906654344761 L 124.1515058017098 207.5884925956958 L 124.16985839199383 207.5685483310928 L 124.17038801570051 207.5679736763778 L 124.18875544677073 207.54807578923166 L 124.18928733212464 207.54750048986077 L 124.20767022234713 207.5276483618054 L 124.20820432414591 207.52707248031476 L 124.22660329188678 207.50726549298406 L 124.22713956412233 207.50668909211564 L 124.24555522774766 207.48692662714348 L 124.2460936236188 207.48634976981938 L 124.26452660149471 207.46663120883974 L 124.26506707341561 207.4660539581419 L 124.28351798390814 207.44637868278863 L 124.28406048352669 207.44580110192783 L 124.30252994500196 207.42616849383487 L 124.30307442320763 207.42559064613187 L 124.32156305403174 207.40600008693312 L 124.32210946097219 207.4054220357907 L 124.34061787951121 207.38587290712005 L 124.34116616460719 207.3852947159977 L 124.35969498922722 207.36578639948908 L 124.36024510118538 207.36520813187997 L 124.37879495025253 207.3457400091673 L 124.3793468370823 207.34516172857187 L 124.39791832896263 207.32573318128902 L 124.39847193799231 207.32515495118977 L 124.41706569105195 207.30576536097067 L 124.41762096894479 207.30518724480763 L 124.43623760154978 207.28583599328618 L 124.43679449432186 207.28525805443084 L 124.45543462483833 207.26594452324096 L 124.45599307787501 207.26536682497252 L 124.47465732466904 207.24609039574813 L 124.4752172827439 207.24551300122752 L 124.49390626418158 207.22627305560252 L 124.49446767147514 207.22569602784745 L 124.51318200592256 207.20649194745573 L 124.51374480604113 207.205915349316 L 124.53248511186439 207.1867465157915 L 124.53304924785924 207.18617040992473 L 124.55181614342442 207.16703620490134 L 124.55238155781255 207.16646065374752 L 124.57117566148575 207.14736045885914 L 124.57174229626956 207.14678552461703 L 124.59056422641686 207.12771872149756 L 124.59113202310657 207.1271444660989 L 124.60998239809408 207.1081104363823 L 124.61055129772564 207.10753692147108 L 124.62943073591943 207.0885350467912 L 124.63000067908034 207.08796233369574 L 124.64890979884652 207.06899199568653 L 124.64948072569486 207.06842014539887 L 124.66842014539951 207.04948072569425 L 124.66899199568651 207.04890979884658 L 124.68796233369572 207.0300006790804 L 124.68853504679132 207.02943073591933 L 124.70753692147117 207.01055129772556 L 124.70811043638238 207.009982398094 L 124.727144466099 206.99113202310647 L 124.72771872149752 206.9905642264169 L 124.74678552461697 206.9717422962696 L 124.7473604588592 206.9711756614857 L 124.76646065374759 206.9523815578125 L 124.76703620490142 206.95181614342434 L 124.78617040992482 206.93304924785915 L 124.7867465157916 206.93248511186428 L 124.80591534931611 206.91374480604102 L 124.80649194745583 206.91318200592247 L 124.82569602784754 206.89446767147504 L 124.82627305560274 206.89390626418134 L 124.84551300122774 206.87521728274368 L 124.84609039574835 206.87465732466885 L 124.86536682497275 206.8559930778748 L 124.86594452324094 206.85543462483838 L 124.8852580544308 206.8367944943219 L 124.88583599328588 206.8362376015501 L 124.90518724480731 206.81762096894508 L 124.90576536097103 206.81706569105157 L 124.92515495119014 206.79847193799196 L 124.92573318128896 206.79791832896268 L 124.9451617285718 206.77934683708233 L 124.9457400091675 206.7787949502523 L 124.96520813188019 206.76024510118515 L 124.96578639948918 206.75969498922714 L 124.9852947159978 206.7411661646071 L 124.98587290712001 206.74061787951126 L 125.00542203579066 206.72210946097223 L 125.00600008693345 206.72156305403138 L 125.02559064613222 206.70307442320728 L 125.02616849383482 206.702529945002 L 125.04580110192778 206.6840604835267 L 125.04637868278873 206.68351798390805 L 125.066053958142 206.6650670734155 L 125.06663120883998 206.6645266014945 L 125.08634976981963 206.64609362361858 L 125.08692662714346 206.64555522774768 L 125.10668909211559 206.62713956412236 L 125.10726549298428 206.62660329188657 L 125.127072480315 206.6082043241457 L 125.1276483618055 206.60767022234705 L 125.14750048986087 206.58928733212454 L 125.14807578923178 206.58875544677062 L 125.1679736763779 206.57038801570042 L 125.16854833109277 206.56985839199388 L 125.18849259569575 206.55150580170985 L 125.1890665434477 206.55097848403696 L 125.20905780387359 206.532640116173 L 125.20963098261124 206.53211514809155 L 125.22966985722618 206.51379038428163 L 125.23024220517304 206.51326780851508 L 125.2503293123431 206.4949560303931 L 125.25090076802437 206.4944358888183 L 125.27103672611564 206.4761364780181 L 125.2716072283806 206.47561881165757 L 125.29179265575917 206.45733114981311 L 125.2923621438038 206.45681599882724 L 125.31259765883577 206.43853946757244 L 125.31316607222399 206.43802687125338 L 125.33345229327544 206.41976085222214 L 125.33401957196367 206.41925084898492 L 125.3543571174007 206.40099472381115 L 125.35492320175665 206.4004873511904 L 125.37531268994533 206.38224050150797 L 125.37587752077421 206.381735796148 L 125.39631957008066 206.36349760359087 L 125.39688308864012 206.36299560124655 L 125.41737831743042 206.34476544744862 L 125.41794046545529 206.34426618297718 L 125.43848949209553 206.3260434495723 L 125.4390502118189 206.32554695692897 L 125.45965365467518 206.30733102555112 L 125.46021288884378 206.30683733779009 L 125.48087136628217 206.28862759007316 L 125.48142905818 206.28813673934118 L 125.5021431885666 206.26993255691906 L 125.50269928203286 206.26944457445427 L 125.5234696837338 206.2512453389609 L 125.52402412317868 206.25076025509406 L 125.54485141455999 206.2325653481633 L 125.5454041449884 206.23208319231162 L 125.5662889444162 206.21389199557743 L 125.56683991143849 206.2134127962504 L 125.58778283727888 206.19522469134665 L 125.58833198713326 206.19474847614148 L 125.60933365775232 206.17656284470212 L 125.60988093731825 206.17608964030725 L 125.63094197108207 206.15790586396614 L 125.63148732789907 206.15743569616018 L 125.65260834317374 206.13925315655126 L 125.6531517254533 206.1387860502077 L 125.66005759184235 206.13285817747936 L 125.66495541096374 206.12796856231725 L 125.66554361860729 206.12738231446588 L 125.68381654272655 206.10920049628407 L 125.68439777421096 206.10862310959322 L 125.70273067984108 206.0904412914114 L 125.70330496065098 206.08987266331278 L 125.72169722942587 206.07169084513097 L 125.72226458510643 206.0711308748753 L 125.74071559865997 206.05294905669348 L 125.74127605480429 206.05239764531927 L 125.75978519477043 206.03421582713747 L 125.76033877699598 206.0336728774517 L 125.7789054250086 206.01549105926986 L 125.77945215894675 206.01495647581672 L 125.79807569663977 205.9967746576349 L 125.7986156079159 205.99624834667466 L 125.81729541692323 205.97806652849286 L 125.81782853114179 205.9775483979771 L 125.83656399309733 205.95936657979527 L 125.83709033582969 205.95885653934005 L 125.85588083236735 205.94067472115825 L 125.85640042913406 205.9401726820237 L 125.87524534188776 205.92199086384187 L 125.87575821814839 205.92149673890546 L 125.89465692875203 205.90331492072366 L 125.89516310988911 205.9028286244599 L 125.9141149999766 205.88464680627806 L 125.91461451128583 205.884168254733 L 125.93361896249108 205.86598643655117 L 125.9341118291675 205.8655155473218 L 125.95316822312441 205.84733372914 L 125.95365447025097 205.8468704213519 L 125.97276218859346 205.82868860317006 L 125.97324184113145 205.8282327974543 L 125.99240026549343 205.8100509792725 L 125.9928733482694 205.8096025977465 L 126.01208186028477 205.79142077956467 L 126.01254839798351 205.79097974580824 L 126.03180637928618 205.7727979276264 L 126.03226639643829 205.77236416666352 L 126.05157322866216 205.75418234848172 L 126.05202674963526 205.75375578675954 L 126.07138181441427 205.7355739685777 L 126.07182886340588 205.73515453394495 L 126.09123154237392 205.71697271576315 L 126.09167214339949 205.71656033745344 L 126.11112181819045 205.6983785192716 L 126.11155599507953 205.6979731278802 L 126.13105204732733 205.6797913096984 L 126.13147982371102 205.67939283716748 L 126.15102163504959 205.66121101898565 L 126.15144303435684 205.66081939858205 L 126.17102998642008 205.64263758040022 L 126.17144503186837 205.64225274669914 L 126.19107650629017 205.62407092851734 L 126.19148522087842 205.62369281738447 L 126.2111605992927 205.60551099920264 L 126.21156300579739 205.60513954777412 L 126.23128166983807 205.5869577295923 L 126.23167779080212 205.58659287626165 L 126.2514391221031 205.56841105807982 L 126.25182897983562 205.56805274247574 L 126.2716323600308 205.54987092429394 L 126.27201597659592 205.54951908726866 L 126.29186078731922 205.53133726908683 L 126.29223818453451 205.53099185269605 L 126.31212380741982 205.51281003451422 L 126.31249500684939 205.5124709820026 L 126.33242082353064 205.4942891638208 L 126.35275123858987 205.4757746014257 L 126.37311445527493 205.45726629290377 L 126.39350987599305 205.4387641849747 L 126.4139369028812 205.4202682254844 L 126.43439493779965 205.40177836339276 L 126.45488338232678 205.3832945487603 L 126.4754016377598 205.3648167327305 L 126.4959491051052 205.34634486752145 L 126.51652518508108 205.32787890640742 L 126.53712927810855 205.30941880371068 L 126.55776078431364 205.29096451478438 L 126.57841910352046 205.27251599600342 L 126.59910363524936 205.25407320475168 L 126.61981377871656 205.23563609940803 L 126.64054893282726 205.21720463933852 L 126.66130849617785 205.19877878488114 L 126.682091867051 205.1803584973372 L 126.70289844341208 205.1619437389615 L 126.72372762291172 205.143534472948 L 126.74457880287837 205.12513066342444 L 126.76545138032193 205.1067322754375 L 126.78634475192577 205.08833927494845 L 126.80725831405182 205.069951628818 L 126.82819146273354 205.0515693048017 L 126.84914359367654 205.0331922715392 L 126.8701141022585 205.01482049854457 L 126.89110238352448 204.99645395620033 L 126.91210783218943 204.97809261574645 L 126.93312984263457 204.9597364492743 L 126.95416780890598 204.94138542971902 L 126.97522112471596 204.92303953085022 L 126.9962891834388 204.90469872726723 L 127.0173713781138 204.88636299438895 L 127.03846710143934 204.86803230845112 L 127.05957574577711 204.84970664649552 L 127.08069670314833 204.83138598636634 L 127.10182936523287 204.81307030670393 L 127.12297312337084 204.7947595869371 L 127.1441273685589 204.77645380727995 L 127.16529149145313 204.75815294872362 L 127.18646488236523 204.73985699303367 L 127.2076469312632 204.7215659227439 L 127.22883702777244 204.7032797211505 L 127.25003456117199 204.68499837230996 L 127.27123892039732 204.66672186103207 L 127.29244949403838 204.6484501728771 L 127.31366567033834 204.63018329415237 L 127.33488683719584 204.61192121190658 L 127.35611238216158 204.59366391392857 L 127.377341692441 204.5754113887417 L 127.39857415489203 204.55716362560221 L 127.41980915602446 204.53892061449656 L 127.44104608200263 204.52068234613637 L 127.46228431864066 204.50244881195954 L 127.48352325140768 204.4842200041235 L 127.50476226542284 204.46599591550697 L 127.5260007454571 204.44777653970644 L 127.54723807593487 204.42956187103294 L 127.56847364092984 204.41135190451382 L 127.58970682416907 204.3931466358879 L 127.61093700903054 204.37494606160627 L 127.63216357854203 204.35675017883221 L 127.65338591538541 204.3385589854368 L 127.67096490590733 204.32349120601037 L 127.72517316688932 204.27519393678236 L 127.72668143457918 204.27385557983484 L 127.78487401233099 204.2224279271216 L 127.78629303066064 204.2211786407034 L 127.84486961375511 204.1698047858401 L 127.84620007895406 204.16864207074912 L 127.90513840621195 204.1173183035392 L 127.9063809949593 204.1162398411772 L 127.96565880520131 204.06496245142415 L 127.9668141702526 204.063966097641 L 128.02640920229942 204.01273137514823 L 128.0274779686449 204.0118151544584 L 128.08736796131726 203.9606193890294 L 128.0883507228136 203.959781489211 L 128.1485134149322 203.9086209706492 L 128.14941073136703 203.90785973772418 L 128.20982386175262 203.856730755833 L 128.21063625628966 203.8560446894372 L 128.2712775637629 203.80494353402017 L 128.27200552073478 203.804331283159 L 128.33285274411645 203.75325424401953 L 128.33349670712784 203.75271460321105 L 128.3945275852386 203.70165797015255 L 128.39508795555253 203.70118987595316 L 128.4562802272131 203.65014993877918 L 128.4567573623875 203.649752466695 L 128.51808876641863 203.59872551520888 L 128.51848297918002 203.5983978769817 L 128.5799312544024 203.547380200987 L 128.64178569696122 203.49610963156056 L 128.70363005342125 203.44490957431475 L 128.76544223609926 203.3937759269803 L 128.8271914444022 203.3427118824447 L 128.88883180846722 203.2917331879331 L 128.9503734354732 203.24080941958147 L 129.01179402371878 203.18993705197417 L 129.07307122467668 203.13911268760174 L 129.11601955313395 203.10342540903412 L 129.12326534942216 202.47304113196247 L 129.12730575346257 202.1215259804473 L 129.13134615750295 201.77001082893221 L 129.13942696558377 201.06698052590187 L 129.14346736962418 200.7154653743867 L 129.14750777366459 200.36395022287155 L 129.15154817770497 200.01243507135646 L 129.15558858174538 199.66091991984126 L 129.1596289857858 199.3094047683261 L 129.1677097938666 198.6063744652958 L 129.171750197907 198.25485931378068 L 129.1757906019474 197.9033441622655 L 129.1798310059878 197.55182901075034 L 129.18791181406863 196.84879870772005 L 129.191952218109 196.49728355620493 L 129.20003302618983 195.7942532531746 L 129.2029755620872 195.74553250402806 L 129.21065448225602 195.69733080177653 L 129.2229966105827 195.65010748356113 L 129.2398843330064 195.60431256303227 L 129.26115671831977 195.5603824419536 L 129.2866110517597 195.51873575152047 L 129.3160047667734 195.47976936302217 L 129.34849393244178 195.4444672465407 L 129.2962841148334 195.42519637021766 L 129.2914819568948 195.4233958351569 L 129.15210687766665 195.37032126742056 L 129.14735500154637 195.36848396036726 L 129.0097979186266 195.31449050061929 L 129.00510187077143 195.3126197727255 L 128.86931455160484 195.25773030051127 L 128.8646798324765 195.25582973705016 L 128.73061404450806 195.20006713191503 L 128.7260460883562 195.19814054149774 L 128.59365359903074 195.14152768298712 L 128.58915775424484 195.1395790849324 L 128.45839033100728 195.08213885259164 L 128.4539718412597 195.0801724625411 L 128.32478125155484 195.0219277359156 L 128.3204452379263 195.01994794980763 L 128.19278324919912 194.96092160844276 L 128.1885346934729 194.95893298498456 L 128.06235307316823 194.89914790842568 L 128.0581968024527 194.8971551502181 L 127.93344731801544 194.8366342180106 L 127.92938799083916 194.8346421514997 L 127.80602240971416 194.77340824318898 L 127.80206450370994 194.77142179763007 L 127.68003459334211 194.70949779276145 L 127.67618239461511 194.70752197839153 L 127.55543992244931 194.64493075651046 L 127.55169751668997 194.6429706421288 L 127.4321942501711 194.5797350827806 L 127.42856551555687 194.57779577294332 L 127.31025322212979 194.5139387556734 L 127.30674182401825 194.51202536769978 L 127.18957227112784 194.44756977205347 L 127.18618165853073 194.4456874130439 L 127.0701066136219 194.38065611856666 L 127.06684001741061 194.37880986261703 L 126.9518112479282 194.31322574885414 L 126.94867168070809 194.3114206146451 L 126.83464095409701 194.24530656114203 L 126.83163121165468 194.24354749006378 L 126.71855029535982 194.17692637636583 L 126.71567295957925 194.17521821132817 L 126.60349362104546 194.10811291698076 L 126.6007510641591 194.1064603820345 L 126.48942507083126 194.03889378658297 L 126.48681946086975 194.03730146746778 L 126.37629858019277 193.96929645045756 L 126.37383188747637 193.96776877616634 L 126.2640678868951 193.8993482171428 L 126.26174189140741 193.89788944257893 L 126.15268653836675 193.8290762210874 L 126.1505028378439 193.82769041087008 L 126.04210789978873 193.75850740645598 L 126.04006791835329 193.75719841991216 L 125.93228516272846 193.68766851212084 L 125.9303901599014 193.68643998948798 L 125.82317135415184 193.61658605786485 L 125.8214224340746 193.6154414077113 L 125.71471934564516 193.5452863318017 L 125.71311746635233 193.54422871966167 L 125.6068818626879 193.47379537901102 L 125.6054278452735 193.47282771721692 L 125.49961149381895 193.40213899137055 L 125.49830603135489 193.4012639300605 L 125.3928606995551 193.3303426985638 L 125.39170436562245 193.32956261783121 L 125.28658182092231 193.2584317602296 L 125.2855750776333 193.25774876337908 L 125.18072708747768 193.1864311592179 L 125.17987029287701 193.18584706708955 L 125.07524862471081 193.11436559591417 L 125.07454203945656 193.1138819422343 L 124.97009846072464 193.0422594835901 L 124.96954225396334 193.0418775113093 L 124.86522853211059 192.97013694474168 L 124.76059068894854 192.8980218083778 L 124.65613669887256 192.8259376082238 L 124.55184091110907 192.75392322879523 L 124.4476845961577 192.68202207485243 L 124.34356679532844 192.6102204451907 L 124.23943892908379 192.5385405458459 L 124.13525233993627 192.46700429299415 L 124.0309582901321 192.3956333166955 L 123.92650795820765 192.32444896532226 L 123.82185243497834 192.25347231102623 L 123.71694271848199 192.18272415588405 L 123.61172970844167 192.11222503906765 L 123.50616419994564 192.04199524478955 L 123.40019687686312 191.97205481131914 L 123.29377830462805 191.90242354076548 L 123.18685892301558 191.83312100997307 L 123.07938903860504 191.76416658225028 L 122.9713188174098 191.6955794201578 L 122.86259827756388 191.6273784991873 L 122.7531772823744 191.55958262242012 L 122.6430055337829 191.49221043607454 L 122.5320325664573 191.42528044595014 L 122.42020774257301 191.35881103466681 L 122.30748024748188 191.29282047967124 L 122.19379908639631 191.2273269719294 L 122.07911308211234 191.16234863515717 L 121.96337087401251 191.09790354556108 L 121.84652091833304 191.03400975190647 L 121.7285114897923 190.97068529579673 L 121.60929068465343 190.90794823203134 L 121.48880642526571 190.84581664889646 L 121.36700646601683 190.78430868819007 L 121.24383840081028 190.72344256488591 L 121.11924967190598 190.66323658620797 L 120.99318758019285 190.60370917001822 L 120.86559929673227 190.5448788623203 L 120.73643187550239 190.48676435374497 L 120.6056322672683 190.42938449489898 L 120.4731473343818 190.37275831042302 L 120.33892386642869 190.31690501167864 L 120.20290859653915 190.26184400795984 L 120.06504821819046 190.20759491615365 L 119.925289402358 190.15417756880782 L 119.7835788148268 190.10161202056617 L 119.63986313347371 190.04991855295256 L 119.49408906540523 189.99911767753255 L 119.34620336372728 189.94923013745628 L 119.1961528438178 189.90027690744 L 119.04388439898466 189.8522791922569 L 118.88934501534207 189.80525842380348 L 118.73248178577929 189.75923625683217 L 118.57324192300054 189.71423456347657 L 118.41157277145187 189.67027542665252 L 118.24742181812921 189.62738113247218 L 118.0783606452698 189.58497821330516 L 118.07846304044848 189.5845699619549 L 118.04187159704519 189.5743368087961 L 118.03278130632037 189.57130640270478 L 118.0236075739547 189.56824631577393 L 118.01435394462808 189.5651558209682 L 118.00502379685506 189.5620340818086 L 117.99562034169239 189.55888015081874 L 117.98614662079004 189.55569296717067 L 117.9856178803705 189.55551474528346 L 117.97660550377319 189.55247135350425 L 117.97598609017231 189.55226173222783 L 117.96699968495082 189.54921401188594 L 117.96628840299526 189.54897218613615 L 117.95733167934617 189.54591951886556 L 117.95652714986707 189.54564455212434 L 117.94760381798689 189.54258631955892 L 117.94670447241457 189.54227713693783 L 117.93781824249987 189.53921272071148 L 117.9368223166909 189.53886810089878 L 117.92797689893823 189.53579688264546 L 117.92688242621603 189.53541544864484 L 117.91808153082192 189.5323368099984 L 117.91688633423702 189.53191701856105 L 117.90813367139805 189.5288303411554 L 117.90683535514054 189.52837047076594 L 117.89813463505322 189.52527513623502 L 117.89673057500512 189.52477327351156 L 117.88808550786602 189.5216686634893 L 117.88657284127046 189.5211226878331 L 117.87798713727612 189.51800818395336 L 117.87636275149777 189.51741575025858 L 117.86784012084475 189.5142907341553 L 117.86610064117106 189.5136492533521 L 117.85764479405589 189.51051310665918 L 117.85578657056423 189.50981972385932 L 117.84740121718347 189.50667182821064 L 117.84542031062632 189.5059233981613 L 117.83710916117651 189.5027631351908 L 117.83500132788788 189.5019561947183 L 117.82676809256557 189.49878294605992 L 117.82452876842657 189.49791368315016 L 117.81637715742832 189.49472683043774 L 117.81400144090256 189.49379104953317 L 117.8059351644249 189.49058997440065 L 117.80341779871637 189.48958305744551 L 117.79544056695585 189.4863671415268 L 117.79277592140323 189.48528400424013 L 117.78489144455641 189.48205262916915 L 117.78207349539139 189.48088767194608 L 117.7742854836548 189.47764021935672 L 117.77130779431414 189.47638727212313 L 117.76361995788434 189.47312312364932 L 117.76047565914752 189.47177538391406 L 117.75289170822104 189.4684939211897 L 117.74957347853983 189.4670438844468 L 117.74209712331326 189.4637444891058 L 117.73859716980698 189.4621838706344 L 117.73123212047682 189.45886592431063 L 117.72754216123677 189.45718557132088 L 117.72029212799958 189.45384845564828 L 117.71640337650935 189.45203824859874 L 117.7092720695617 189.4486813452112 L 117.70517522232048 189.44673008702867 L 117.69816635185889 189.44335277756014 L 117.69385158054186 189.4412480693584 L 117.6869688567629 189.4378497354428 L 117.68242580668716 189.43557783726837 L 117.67567293978738 189.43215786053955 L 117.67089073687474 189.42970353557712 L 117.66427143705067 189.42626129766901 L 117.65923870605613 189.42360763830573 L 117.65275668350431 189.42014252085224 L 117.64746158102433 189.41727075504608 L 117.64112054594133 189.4137821396811 L 117.63555081255649 189.4106714161927 L 117.62935447513885 189.4071586845502 L 117.62349751208112 189.403785835855 L 117.61744958252538 189.40024836956883 L 117.6112925596063 189.39658765178203 L 117.60539674810902 189.3930248324861 L 117.59892675105968 189.3890476423458 L 117.5931867678174 189.38545885167406 L 117.58639099502103 189.38113342182018 L 117.5808105502303 189.37751804140652 L 117.57367657087705 189.37280911691462 L 117.56825937473442 189.36916652839292 L 117.5607754626423 189.3640350299194 L 117.55552522534431 189.3603646149236 L 117.5476807851708 189.35476729723436 L 117.54260121691401 189.35106843739837 L 117.53438732199405 189.34495755671009 L 117.52948213297499 189.3412296336678 L 117.52089219616593 189.33455264334106 L 117.51616509658116 189.3307950387264 L 117.50719569721981 189.3234943409988 L 117.50265039726588 189.31970643644567 L 117.49330228758411 189.31171922810165 L 117.48894249745757 189.30790040524394 L 117.47922181001128 189.299158667868 L 117.47505123990865 189.29530830833966 L 117.46497091211775 189.28573900880738 L 117.46099327223561 189.28185649424228 L 117.45057469368757 189.27138207821142 L 117.44679369422246 189.26746679024347 L 117.43606856434748 189.2560060689451 L 117.43248791549594 189.25205738920826 L 117.4215002718183 189.23952693594467 L 117.41812368377688 189.23554424607278 L 117.40693202147837 189.22186042908743 L 117.40376320444362 189.21784311071443 L 117.3924425553757 189.2029248877475 L 117.38948521954416 189.19887232250733 L 117.37812899384517 189.18264490132475 L 117.3753868494134 189.17855647085125 L 117.36410816989536 189.16095588949682 L 117.36158492705991 189.15683097542396 L 117.35051711568693 189.13780956618157 L 117.34821648464433 189.1336475501432 L 117.33751230925948 189.11318011603814 L 117.3354380002063 189.10898037966822 L 117.3252672824474 189.08707073310526 L 117.32342300558017 189.0828326580377 L 117.31396825688272 189.05951996459177 L 117.31235772239798 189.05524293246043 L 117.30380763921448 189.03060710382337 L 117.30243455730881 189.0262904962622 L 117.29497547925357 189.00045574041133 L 117.29384356012348 188.99609893905424 L 117.29275696297353 188.99138634877875 L 117.26995836317921 188.9636507625789 Z" id="element_202" /></svg>