<svg xmlns="http://www.w3.org/2000/svg" viewBox="0.0 0.0 200.0 200.0" height="200.0px" width="200.0px"><path fill="#c8c3ca" fill-opacity="1.0"  filling="0" d="M110.67070770263672 158.1276092529297 L102.34679412841797 158.1276092529297 C93.30351257324219 158.1276092529297 85.43274688720703 151.94482421875 83.29122924804688 143.15907287597656 L76.37409210205078 114.78297424316406 L130.28472900390625 114.78297424316406 L130.28472900390625 138.51397705078125 C130.28472900390625 149.34619140625 121.5033187866211 158.1276092529297 110.67070770263672 158.1276092529297 Z"></path>
<path fill="#b1abb4" fill-opacity="1.0"  filling="0" d="M118.45313262939453 114.78297424316406 L118.45313262939453 138.51397705078125 C118.45313262939453 148.85360717773438 110.45064544677734 157.3187255859375 100.30229187011719 158.06765747070312 C100.79843139648438 158.10552978515625 101.29812622070312 158.1276092529297 101.8021469116211 158.1276092529297 L110.12644958496094 158.1276092529297 C120.95866394042969 158.1276092529297 129.74008178710938 149.34619140625 129.74008178710938 138.51397705078125 L129.74008178710938 114.78297424316406 L118.45313262939453 114.78297424316406 Z"></path>
<path fill="#56988c" fill-opacity="1.0"  filling="0" d="M42.82010269165039 86.5685806274414 L27.05095672607422 86.5685806274414 C13.744758605957031 86.5685806274414 2.9582977294921875 75.78172302246094 2.9582977294921875 62.47591781616211 L2.9582977294921875 46.70638656616211 C24.97332763671875 46.70638656616211 42.82010269165039 64.55314636230469 42.82010269165039 86.5685806274414 Z"></path>
<path fill="#56988c" fill-opacity="1.0"  filling="0" d="M10.402336120605469 93.24593353271484 C5.815223693847656 97.63269805908203 2.9579010009765625 103.81311798095703 2.9579010009765625 110.66124725341797 L2.9579010009765625 126.43077850341797 C15.058067321777344 126.43077850341797 25.89935302734375 121.03912353515625 33.21009063720703 112.52748107910156"></path>
<path fill="#a9e8d1" fill-opacity="1.0"  filling="0" d="M197.04209899902344 84.3970947265625 C197.04209899902344 107.8827896118164 168.4861602783203 126.92179870605469 111.96233367919922 126.92179870605469 C55.4384880065918 126.92179870605469 9.616325378417969 107.8827896118164 9.616325378417969 84.3970947265625 C9.616325378417969 60.9113883972168 55.43809127807617 41.87238693237305 111.9619369506836 41.87238693237305 C168.4857635498047 41.87238693237305 197.04209899902344 60.91099548339844 197.04209899902344 84.3970947265625 Z"></path>
<path fill="#77d1b3" fill-opacity="1.0"  filling="0" d="M197.04209899902344 84.3970947265625 C197.04209899902344 95.18197631835938 168.4861602783203 103.92473602294922 111.96233367919922 103.92473602294922 C55.4384880065918 103.92473602294922 9.616325378417969 95.18158721923828 9.616325378417969 84.3970947265625 C9.616325378417969 73.61259460449219 55.43809127807617 64.86944580078125 111.9619369506836 64.86944580078125 C168.4857635498047 64.86944580078125 197.04209899902344 73.61219787597656 197.04209899902344 84.3970947265625 Z"></path>
<path fill="#77d1b3" fill-opacity="1.0"  filling="0" d="M111.9619369506836 41.87238693237305 C109.96476745605469 41.87238693237305 107.98258209228516 41.8988151550293 106.0134048461914 41.945743560791016 C158.6328125 43.225921630859375 185.21011352539062 61.74117660522461 185.21011352539062 84.3970947265625 C185.21011352539062 107.0530014038086 158.63243103027344 125.5682601928711 106.0134048461914 126.84844207763672 C107.98218536376953 126.89537048339844 109.96476745605469 126.92179870605469 111.9619369506836 126.92179870605469 C168.4857635498047 126.92179870605469 197.0417022705078 107.8827896118164 197.0417022705078 84.3970947265625 C197.04209899902344 60.9113883972168 168.4861602783203 41.87238693237305 111.9619369506836 41.87238693237305 Z"></path>
<path fill="#67b59f" fill-opacity="1.0"  filling="0" d="M111.9619369506836 64.86944580078125 C109.96476745605469 64.86944580078125 107.98258209228516 64.88167572021484 106.0134048461914 64.90296936035156 C158.6328125 65.49099731445312 185.21011352539062 73.99317932128906 185.21011352539062 84.39669799804688 C185.21011352539062 94.80020904541016 158.63243103027344 103.30279541015625 106.0134048461914 103.89042663574219 C107.98218536376953 103.91171264648438 109.96476745605469 103.92394256591797 111.9619369506836 103.92394256591797 C168.4857635498047 103.92394256591797 197.0417022705078 95.18119049072266 197.0417022705078 84.39630126953125 C197.0417022705078 73.61141204833984 168.4861602783203 64.86944580078125 111.9619369506836 64.86944580078125 Z"></path>
<path fill="" fill-opacity="1.0"  filling="0" d="M177.10745239257812 51.726524353027344 C161.63607788085938 43.345027923583984 139.1087188720703 38.91448974609375 111.9619369506836 38.91448974609375 C84.24407196044922 38.91448974609375 58.13964080810547 43.41798782348633 38.457794189453125 51.595985412597656 C36.04020309448242 52.600486755371094 33.755126953125 53.64994430541992 31.59705352783203 54.738059997558594 C23.724708557128906 47.650150299072266 13.566497802734375 43.74848937988281 2.9579010009765625 43.74848937988281 C1.3239517211914062 43.74848937988281 0.0 45.072837829589844 0.0 46.70638656616211 L0.0 62.47591781616211 C0.0 69.10317993164062 2.421142578125 75.47962188720703 6.817359924316406 80.43074798583984 C6.876914978027344 80.49778747558594 6.940406799316406 80.55931854248047 7.00469970703125 80.61965942382812 C6.778717041015625 81.86750030517578 6.658821105957031 83.12716674804688 6.658821105957031 84.3970947265625 C6.658821105957031 86.82966613769531 7.082000732421875 89.22517395019531 7.904685974121094 91.56979370117188 C7.835273742675781 91.62855529785156 7.7678375244140625 91.6900863647461 7.702766418457031 91.75634002685547 C2.7358627319335938 96.83919525146484 0.0 103.55282592773438 0.0 110.66124725341797 L0.0 126.43038940429688 C0.0 128.06393432617188 1.3239517211914062 129.38829040527344 2.9579010009765625 129.38829040527344 C15.000091552734375 129.38829040527344 26.43256378173828 124.33460998535156 34.542320251464844 115.47907257080078 C35.80830383300781 116.06472778320312 37.112144470214844 116.63856506347656 38.45819091796875 117.19780731201172 C49.39018249511719 121.73995208740234 62.30514907836914 125.14666748046875 76.37567138671875 127.27989959716797 L80.41773986816406 143.85989379882812 C82.8897476196289 154.0023193359375 91.90778350830078 161.0858917236328 102.34679412841797 161.0858917236328 L110.67070770263672 161.0858917236328 C123.11676025390625 161.0858917236328 133.24221801757812 150.96043395996094 133.24221801757812 138.51437377929688 L133.24221801757812 128.89886474609375 C144.63330078125 127.79023742675781 154.8411865234375 125.74494934082031 163.7401123046875 122.7760009765625 C165.28965759277344 122.25935363769531 166.126953125 120.58361053466797 165.6094970703125 119.03407287597656 C165.09246826171875 117.48452758789062 163.4198760986328 116.64724731445312 161.86756896972656 117.16427612304688 C148.34524536132812 121.67567443847656 131.5546417236328 123.9635009765625 111.9619369506836 123.9635009765625 C85.00484466552734 123.9635009765625 59.706932067871094 119.62052917480469 40.72748947143555 111.7347640991211 C28.981475830078125 106.85423278808594 20.524261474609375 100.88323211669922 16.10003662109375 94.54464721679688 C21.43805694580078 97.0277099609375 29.061141967773438 99.2066879272461 39.038330078125 101.11038970947266 C58.54625701904297 104.8326187133789 84.44441986083984 106.88224029541016 111.9619369506836 106.88224029541016 C138.85552978515625 106.88224029541016 161.14190673828125 104.87442016601562 176.41253662109375 101.0752944946289 C182.63201904296875 99.52811431884766 187.62652587890625 97.70802307128906 191.3944854736328 95.62803649902344 C187.81858825683594 102.77430725097656 180.75119018554688 108.98983764648438 170.63990783691406 113.69841003417969 C169.1589813232422 114.38780212402344 168.517333984375 116.1475601196289 169.20709228515625 117.62847137451172 C169.896484375 119.10899353027344 171.6558380126953 119.75067138671875 173.1371612548828 119.06128692626953 C190.4597930908203 110.99490356445312 199.99960327148438 98.68373107910156 199.99960327148438 84.39669799804688 C200.0 71.32673645019531 191.8701171875 59.72428512573242 177.10745239257812 51.726524353027344 Z M127.32682800292969 129.3800048828125 L127.32682800292969 138.51397705078125 C127.32682800292969 147.69805908203125 119.85518646240234 155.16970825195312 110.67110443115234 155.16970825195312 L102.3471908569336 155.16970825195312 C94.64403533935547 155.16970825195312 87.98995208740234 149.94290161132812 86.16551971435547 142.45864868164062 L82.6748046875 128.13925170898438 C92.07302856445312 129.28456115722656 101.91060638427734 129.87969970703125 111.96271514892578 129.87969970703125 C117.28299713134766 129.87930297851562 122.40370178222656 129.709716796875 127.32682800292969 129.3800048828125 Z M5.915794372558594 62.47591781616211 L5.915794372558594 49.78180694580078 C13.288055419921875 50.37023162841797 20.284080505371094 53.155784606933594 26.05394744873047 57.79297637939453 C18.044754028320312 62.62972640991211 12.381759643554688 68.10736083984375 9.318954467773438 73.97148895263672 C7.110786437988281 70.56832885742188 5.915794372558594 66.58502960205078 5.915794372558594 62.47591781616211 Z M29.00672149658203 112.6950912475586 C22.8057861328125 118.876708984375 14.633705139160156 122.65571594238281 5.915794372558594 123.35456848144531 L5.915794372558594 110.66124725341797 C5.915794372558594 105.70893859863281 7.619148254394531 101.00431060791016 10.739143371582031 97.22726440429688 C14.440849304199219 102.86896514892578 20.609054565429688 108.105224609375 29.00672149658203 112.6950912475586 Z M174.98486328125 95.33460998535156 C160.17446899414062 99.01896667480469 138.3814697265625 100.96644592285156 111.96233367919922 100.96644592285156 C84.80528259277344 100.96644592285156 59.301109313964844 98.95388793945312 40.147342681884766 95.29950714111328 C17.528106689453125 90.9837417602539 12.574615478515625 85.96595764160156 12.574615478515625 84.39669799804688 C12.574615478515625 82.24018859863281 21.094146728515625 75.08878326416016 58.946556091308594 70.66771697998047 C60.569061279296875 70.47840881347656 61.73092269897461 69.00932312011719 61.541221618652344 67.3868179321289 C61.3519172668457 65.763916015625 59.87770080566406 64.60244750976562 58.26032257080078 64.79214477539062 C43.38170623779297 66.52981567382812 30.897796630859375 68.98723602294922 22.15741729736328 71.89859008789062 C19.875892639160156 72.65857696533203 17.85741424560547 73.44853210449219 16.086624145507812 74.27003479003906 C20.506912231445312 67.92357635498047 28.968856811523438 61.944679260253906 40.72787857055664 57.05902099609375 C59.706932067871094 49.17326736450195 85.00563049316406 44.830284118652344 111.96233367919922 44.830284118652344 C138.12828063964844 44.830284118652344 159.68069458007812 49.01354217529297 174.28994750976562 56.92808532714844 C182.58705139160156 61.423301696777344 188.37307739257812 66.93879699707031 191.46310424804688 73.20243835449219 C187.687255859375 71.10706329345703 182.66908264160156 69.27474212646484 176.41253662109375 67.71849060058594 C161.14190673828125 63.91937255859375 138.85552978515625 61.91154861450195 111.9619369506836 61.91154861450195 C97.01113891601562 61.91154861450195 82.59040832519531 62.50983428955078 69.10081481933594 63.68983840942383 C67.47319030761719 63.83221435546875 66.26951599121094 65.2669906616211 66.41189575195312 66.89422607421875 C66.5546646118164 68.52146911621094 67.99101257324219 69.726318359375 69.61628723144531 69.58275604248047 C82.93510437011719 68.41773986816406 97.18230438232422 67.82695007324219 111.9619369506836 67.82695007324219 C138.38108825683594 67.82695007324219 160.17408752441406 69.77442932128906 174.98446655273438 73.45878601074219 C184.21783447265625 75.75608825683594 194.08419799804688 79.83561706542969 194.08419799804688 84.39630126953125 C194.08419799804688 88.95777130126953 184.21823120117188 93.03730773925781 174.98486328125 95.33460998535156 Z"></path>
<path fill="" fill-opacity="1.0"  filling="0" d="M96.62543487548828 144.8458709716797 C98.2593765258789 144.8458709716797 99.58332824707031 143.52151489257812 99.58332824707031 141.88796997070312 L99.58332824707031 136.4556884765625 C99.58332824707031 134.8221435546875 98.2593765258789 133.49778747558594 96.62543487548828 133.49778747558594 C94.99148559570312 133.49778747558594 93.66753387451172 134.8221435546875 93.66753387451172 136.4556884765625 L93.66753387451172 141.88796997070312 C93.66753387451172 143.52151489257812 94.99148559570312 144.8458709716797 96.62543487548828 144.8458709716797 Z"></path>
<path fill="" fill-opacity="1.0"  filling="0" d="M107.07982635498047 144.8458709716797 C108.71377563476562 144.8458709716797 110.03772735595703 143.52151489257812 110.03772735595703 141.88796997070312 L110.03772735595703 136.4556884765625 C110.03772735595703 134.8221435546875 108.71377563476562 133.49778747558594 107.07982635498047 133.49778747558594 C105.44588470458984 133.49778747558594 104.12193298339844 134.8221435546875 104.12193298339844 136.4556884765625 L104.12193298339844 141.88796997070312 C104.12193298339844 143.52151489257812 105.44588470458984 144.8458709716797 107.07982635498047 144.8458709716797 Z"></path>
<path fill="" fill-opacity="1.0"  filling="0" d="M117.53421783447266 144.8458709716797 C119.16816711425781 144.8458709716797 120.49211120605469 143.52151489257812 120.49211120605469 141.88796997070312 L120.49211120605469 136.4556884765625 C120.49211120605469 134.8221435546875 119.16816711425781 133.49778747558594 117.53421783447266 133.49778747558594 C115.90027618408203 133.49778747558594 114.57632446289062 134.8221435546875 114.57632446289062 136.4556884765625 L114.57632446289062 141.88796997070312 C114.57632446289062 143.52151489257812 115.90027618408203 144.8458709716797 117.53421783447266 144.8458709716797 Z"></path></svg>