<svg xmlns="http://www.w3.org/2000/svg" viewBox="0.0 0.0 200.0 200.0" height="200.0px" width="200.0px"><path fill="#bddbff" fill-opacity="1.0"  filling="0" d="M86.70086669921875 30.102394104003906 C94.04364013671875 47.724143981933594 88.98516845703125 68.07423400878906 74.24838256835938 80.20932006835938 C59.50992202758789 92.34273529052734 38.567501068115234 93.3986587524414 22.683555603027344 82.80936431884766 C6.799613952636719 72.22048950195312 -0.27991485595703125 52.48187255859375 5.252159118652344 34.211143493652344 C10.782989501953125 15.940010070800781 27.623313903808594 3.44378662109375 46.712955474853516 3.44378662109375 C64.19933319091797 3.4504547119140625 79.96914672851562 13.964775085449219 86.70086669921875 30.102394104003906 Z"></path>
<path fill="#bddbff" fill-opacity="1.0"  filling="0" d="M160.01202392578125 96.7489013671875 L160.01202392578125 168.52760314941406 C155.88201904296875 170.896484375 153.3390350341797 175.29638671875 153.3473663330078 180.05703735351562 C153.35861206054688 181.19793701171875 153.52774047851562 182.33010864257812 153.8468017578125 183.42352294921875 C153.68060302734375 183.42352294921875 153.5148162841797 183.38937377929688 153.3473663330078 183.38937377929688 C145.98626708984375 183.38937377929688 140.01806640625 189.35755920410156 140.01806640625 196.71865844726562 L120.02410888671875 196.71865844726562 L120.02410888671875 143.40145874023438 L80.03620910644531 143.40145874023438 L80.03620910644531 196.71865844726562 L53.37760925292969 196.71865844726562 C53.37885284423828 188.8014678955078 47.80762481689453 181.97561645507812 40.04830551147461 180.39068603515625 L40.04830551147461 96.7489013671875 L160.01202392578125 96.7489013671875 Z M150.01504516601562 170.06005859375 L150.01504516601562 150.06610107421875 L130.02108764648438 150.06610107421875 L130.02108764648438 170.06005859375 L150.01504516601562 170.06005859375 Z M120.02410888671875 130.07215881347656 L120.02410888671875 116.74285888671875 C120.02410888671875 114.90258026123047 118.53165435791016 113.41053009033203 116.69178771972656 113.41053009033203 L83.36853790283203 113.41053009033203 C81.52825927734375 113.41053009033203 80.03620910644531 114.90258026123047 80.03620910644531 116.74285888671875 L80.03620910644531 130.07215881347656 C80.03620910644531 131.91409301757812 81.52825927734375 133.40447998046875 83.36853790283203 133.40447998046875 L116.69178771972656 133.40447998046875 C118.53165435791016 133.40447998046875 120.02410888671875 131.91409301757812 120.02410888671875 130.07215881347656 Z M70.03923797607422 170.06005859375 L70.03923797607422 150.06610107421875 L50.04528045654297 150.06610107421875 L50.04528045654297 170.06005859375 L70.03923797607422 170.06005859375 Z"></path>
<path fill="#3d9ae2" fill-opacity="1.0"  filling="0" d="M70.03923797607422 146.73377990722656 L50.04528045654297 146.73377990722656 C48.20500183105469 146.73377990722656 46.712955474853516 148.225830078125 46.712955474853516 150.06610107421875 L46.712955474853516 170.06005859375 C46.712955474853516 171.90200805664062 48.20500183105469 173.39239501953125 50.04528045654297 173.39239501953125 L70.03923797607422 173.39239501953125 C71.87908935546875 173.39239501953125 73.3715591430664 171.90200805664062 73.3715591430664 170.06005859375 L73.3715591430664 150.06610107421875 C73.3715591430664 148.225830078125 71.87908935546875 146.73377990722656 70.03923797607422 146.73377990722656 Z M66.7069091796875 166.7277374267578 L53.37760925292969 166.7277374267578 L53.37760925292969 153.3984375 L66.7069091796875 153.3984375 L66.7069091796875 166.7277374267578 Z"></path>
<path fill="#3d9ae2" fill-opacity="1.0"  filling="0" d="M116.69178771972656 110.07820129394531 L83.36853790283203 110.07820129394531 C79.68798828125 110.07820129394531 76.70388793945312 113.06230163574219 76.70388793945312 116.74285888671875 L76.70388793945312 130.07215881347656 C76.70388793945312 133.75437927246094 79.68798828125 136.73681640625 83.36853790283203 136.73681640625 L116.69178771972656 136.73681640625 C120.37193298339844 136.73681640625 123.35643768310547 133.75437927246094 123.35643768310547 130.07215881347656 L123.35643768310547 116.74285888671875 C123.35643768310547 113.06230163574219 120.37193298339844 110.07820129394531 116.69178771972656 110.07820129394531 Z M116.69178771972656 120.07518005371094 L103.36248779296875 120.07518005371094 L103.36248779296875 116.74285888671875 L116.69178771972656 116.74285888671875 L116.69178771972656 120.07518005371094 Z M96.69783782958984 116.74285888671875 L96.69783782958984 120.07518005371094 L83.36853790283203 120.07518005371094 L83.36853790283203 116.74285888671875 L96.69783782958984 116.74285888671875 Z M83.36853790283203 126.73983001708984 L96.69783782958984 126.73983001708984 L96.69783782958984 130.07215881347656 L83.36853790283203 130.07215881347656 L83.36853790283203 126.73983001708984 Z M103.36248779296875 130.07215881347656 L103.36248779296875 126.73983001708984 L116.69178771972656 126.73983001708984 L116.69178771972656 130.07215881347656 L103.36248779296875 130.07215881347656 Z"></path>
<path fill="#3d9ae2" fill-opacity="1.0"  filling="0" d="M183.04840087890625 176.95590209960938 C182.2186279296875 172.5726318359375 179.66732788085938 168.706298828125 175.9638671875 166.2203826904297 C172.2608184814453 163.7340545654297 167.71469116210938 162.83724975585938 163.34434509277344 163.72906494140625 L163.34434509277344 104.79354858398438 L169.31878662109375 110.76840209960938 C173.38172912597656 114.8309326171875 179.96682739257812 114.8309326171875 184.02809143066406 110.76840209960938 C188.08935546875 106.7071304321289 188.08935546875 100.1220474243164 184.02809143066406 96.05911254882812 L163.34434509277344 75.37702941894531 L163.34434509277344 33.434722900390625 C167.0244903564453 33.434722900390625 170.00900268554688 30.452285766601562 170.00900268554688 26.770065307617188 L170.00900268554688 20.10541534423828 C170.00900268554688 16.42486572265625 167.0244903564453 13.440765380859375 163.34434509277344 13.440765380859375 L130.02108764648438 13.440765380859375 C126.34053039550781 13.440765380859375 123.35643768310547 16.42486572265625 123.35643768310547 20.10541534423828 L123.35643768310547 26.770065307617188 C123.35643768310547 30.452285766601562 126.34053039550781 33.434722900390625 130.02108764648438 33.434722900390625 L130.02108764648438 42.05377197265625 L107.08511352539062 19.106552124023438 C103.1833724975586 15.221054077148438 96.87653350830078 15.221054077148438 92.9764633178711 19.106552124023438 L87.64432525634766 24.438682556152344 C78.13887023925781 6.945648193359375 58.57936477661133 -2.5877227783203125 38.944889068603516 0.702117919921875 C19.308746337890625 3.9906997680664062 3.9246444702148438 19.378135681152344 0.6393890380859375 39.014278411865234 C-2.6458663940429688 58.65000534057617 6.890830993652344 78.20658874511719 24.38720703125 87.7087173461914 L16.031814575195312 96.05911254882812 C11.970550537109375 100.1220474243164 11.970550537109375 106.7071304321289 16.031814575195312 110.76840209960938 C20.094757080078125 114.8309326171875 26.679855346679688 114.8309326171875 30.741127014160156 110.76840209960938 L36.715980529785156 104.79354858398438 L36.715980529785156 174.6665802001953 C33.087493896484375 170.45578002929688 27.21843719482422 168.95205688476562 22.013343811035156 170.89981079101562 C16.80658721923828 172.84754943847656 13.365127563476562 177.83145141601562 13.389701843261719 183.38937377929688 C6.028594970703125 183.38937377929688 0.06040191650390625 189.35755920410156 0.06040191650390625 196.71865844726562 C0.06040191650390625 198.56060791015625 1.5524520874023438 200.05099487304688 3.3927230834960938 200.05099487304688 L196.6676025390625 200.05099487304688 C198.50787353515625 200.05099487304688 199.9999237060547 198.56060791015625 199.9999237060547 196.71865844726562 C199.98660278320312 186.8553924560547 192.79501342773438 178.47085571289062 183.04840087890625 176.95590209960938 Z M153.32113647460938 170.19668579101562 C153.32113647460938 170.15127563476562 153.3473663330078 170.1104736328125 153.3473663330078 170.06005859375 L153.3473663330078 150.06610107421875 C153.3473663330078 148.225830078125 151.85531616210938 146.73377990722656 150.01504516601562 146.73377990722656 L130.02108764648438 146.73377990722656 C128.18081665039062 146.73377990722656 126.68876647949219 148.225830078125 126.68876647949219 150.06610107421875 L126.68876647949219 170.06005859375 C126.68876647949219 171.90200805664062 128.18081665039062 173.39239501953125 130.02108764648438 173.39239501953125 L150.01504516601562 173.39239501953125 C150.6219482421875 173.3778076171875 151.2126007080078 173.19244384765625 151.71829223632812 172.8571319580078 C150.61029052734375 175.09603881835938 150.0279541015625 177.55946350097656 150.01504516601562 180.05703735351562 L150.01504516601562 180.39068603515625 C143.4853515625 181.74276733398438 138.38731384277344 186.85372924804688 137.0514678955078 193.3863525390625 L123.35643768310547 193.3863525390625 L123.35643768310547 143.40145874023438 C123.35643768310547 141.56118774414062 121.86438751220703 140.0691375732422 120.02410888671875 140.0691375732422 L80.03620910644531 140.0691375732422 C78.19593811035156 140.0691375732422 76.70388793945312 141.56118774414062 76.70388793945312 143.40145874023438 L76.70388793945312 193.3863525390625 L56.41377258300781 193.3863525390625 C55.19330596923828 186.24349975585938 50.20940017700195 180.31570434570312 43.38063049316406 177.88478088378906 L43.38063049316406 100.08123016357422 L156.6796875 100.08123016357422 L156.6796875 166.8156280517578 C155.40383911132812 167.7757568359375 154.27291870117188 168.91458129882812 153.32113647460938 170.19668579101562 Z M146.68270874023438 153.3984375 L146.68270874023438 166.7277374267578 L133.35340881347656 166.7277374267578 L133.35340881347656 153.3984375 L146.68270874023438 153.3984375 Z M130.02108764648438 20.10541534423828 L163.34434509277344 20.10541534423828 L163.34434509277344 26.770065307617188 L130.02108764648438 26.770065307617188 L130.02108764648438 20.10541534423828 Z M136.68572998046875 33.434722900390625 L156.6796875 33.434722900390625 L156.6796875 68.7123794555664 L136.68572998046875 48.71842575073242 L136.68572998046875 33.434722900390625 Z M97.6983642578125 23.828453063964844 C98.99506378173828 22.544677734375 101.08442687988281 22.544677734375 102.38278198242188 23.828453063964844 L179.3257598876953 100.77143859863281 C180.78366088867188 102.23223876953125 180.78366088867188 104.59652709960938 179.3257598876953 106.05608367919922 C177.86453247070312 107.50897979736328 175.5035858154297 107.50897979736328 174.0406951904297 106.05608367919922 L107.08511352539062 39.100502014160156 C103.1833724975586 35.21501159667969 96.87653350830078 35.21501159667969 92.9764633178711 39.100502014160156 L92.72279357910156 39.35417938232422 C92.26210021972656 36.49212646484375 91.53648376464844 33.678810119628906 90.55386352539062 30.953384399414062 L97.6983642578125 23.828453063964844 Z M6.7250518798828125 46.76401901245117 C6.7250518798828125 24.679443359375 24.627967834472656 6.776115417480469 46.712955474853516 6.776115417480469 C68.79753112792969 6.776115417480469 86.70086669921875 24.679443359375 86.70086669921875 46.76401901245117 C86.70086669921875 68.8489990234375 68.79753112792969 86.75192260742188 46.712955474853516 86.75192260742188 C24.637550354003906 86.72943115234375 6.749214172363281 68.83900451660156 6.7250518798828125 46.76401901245117 Z M26.028793334960938 106.05608367919922 C24.569236755371094 107.51397705078125 22.205368041992188 107.51397705078125 20.744140625 106.05608367919922 C19.29125213623047 104.59486389160156 19.29125213623047 102.2339096069336 20.744140625 100.77143859863281 L30.911903381347656 90.60492706298828 C33.6373291015625 91.58795928955078 36.45064926147461 92.31523895263672 39.31269454956055 92.77384948730469 L37.69526672363281 94.38961791992188 L26.028793334960938 106.05608367919922 Z M48.16585159301758 93.34368133544922 C72.75299835205078 92.55267333984375 92.49951934814453 72.80447387695312 93.29219818115234 48.21732711791992 L97.6983642578125 43.82240676879883 C98.99506378173828 42.53862762451172 101.08442687988281 42.53862762451172 102.38278198242188 43.82240676879883 L151.96737670898438 93.41658020019531 L48.0925407409668 93.41658020019531 L48.16585159301758 93.34368133544922 Z M7.6214447021484375 193.3863525390625 C9.373832702636719 190.374755859375 13.156852722167969 189.23092651367188 16.285911560058594 190.76504516601562 C17.56468963623047 191.39651489257812 19.10547637939453 191.14285278320312 20.114334106445312 190.1339874267578 C21.124862670898438 189.12680053710938 21.380203247070312 187.58726501464844 20.750389099121094 186.30514526367188 C20.296783447265625 185.40042114257812 20.058929443359375 184.40322875976562 20.054351806640625 183.38937377929688 C20.044357299804688 180.14035034179688 22.389060974121094 177.36117553710938 25.592674255371094 176.8209228515625 C28.798377990722656 176.2823486328125 31.92243194580078 178.14053344726562 32.97669219970703 181.21417236328125 C33.432395935058594 182.62001037597656 34.781150817871094 183.539306640625 36.25695037841797 183.44642639160156 C36.4114875793457 183.44976806640625 36.56602478027344 183.43017578125 36.715980529785156 183.38937377929688 C42.79122543334961 183.39768981933594 48.09587097167969 187.50604248046875 49.622074127197266 193.3863525390625 L7.6214447021484375 193.3863525390625 Z M83.36853790283203 193.3863525390625 L83.36853790283203 146.73377990722656 L116.69178771972656 146.73377990722656 L116.69178771972656 193.3863525390625 L83.36853790283203 193.3863525390625 Z M143.9197998046875 193.3863525390625 C145.28814697265625 189.44879150390625 148.97201538085938 186.78541564941406 153.14035034179688 186.7216796875 C153.25448608398438 186.7216796875 153.59104919433594 186.7720947265625 153.70352172851562 186.77542114257812 C154.7611083984375 186.81790161132812 155.77330017089844 186.35556030273438 156.43560791015625 185.53079223632812 C157.0962371826172 184.70562744140625 157.32699584960938 183.61553955078125 157.0570831298828 182.59378051757812 C156.82090759277344 181.76901245117188 156.69427490234375 180.91635131835938 156.6796875 180.05703735351562 C156.6796875 174.5362091064453 161.1558380126953 170.06005859375 166.67666625976562 170.06005859375 C172.19708251953125 170.06005859375 176.67364501953125 174.5362091064453 176.67364501953125 180.05703735351562 C176.67364501953125 181.89898681640625 178.1656951904297 183.38937377929688 180.00596618652344 183.38937377929688 C186.0812225341797 183.39768981933594 191.3858642578125 187.50604248046875 192.91207885742188 193.3863525390625 L143.9197998046875 193.3863525390625 Z"></path>
<path fill="#3d9ae2" fill-opacity="1.0"  filling="0" d="M50.04528045654297 76.75495147705078 L50.04528045654297 70.09030151367188 C55.56569290161133 70.09030151367188 60.042259216308594 65.61581420898438 60.042259216308594 60.09332275390625 L60.042259216308594 53.428672790527344 C60.042259216308594 47.907840728759766 55.56569290161133 43.43169403076172 50.04528045654297 43.43169403076172 L43.38063049316406 43.43169403076172 C41.54035568237305 43.43169403076172 40.04830551147461 41.94131088256836 40.04830551147461 40.099369049072266 L40.04830551147461 33.434722900390625 C40.04830551147461 31.594444274902344 41.54035568237305 30.102394104003906 43.38063049316406 30.102394104003906 L50.04528045654297 30.102394104003906 C51.88513946533203 30.102394104003906 53.37760925292969 31.594444274902344 53.37760925292969 33.434722900390625 L53.37760925292969 36.76704406738281 L60.042259216308594 36.76704406738281 L60.042259216308594 33.434722900390625 C60.042259216308594 27.91388702392578 55.56569290161133 23.437744140625 50.04528045654297 23.437744140625 L50.04528045654297 16.773094177246094 L43.38063049316406 16.773094177246094 L43.38063049316406 23.437744140625 C37.85980224609375 23.437744140625 33.38365936279297 27.91388702392578 33.38365936279297 33.434722900390625 L33.38365936279297 40.099369049072266 C33.38365936279297 45.621864318847656 37.85980224609375 50.096343994140625 43.38063049316406 50.096343994140625 L50.04528045654297 50.096343994140625 C51.88513946533203 50.096343994140625 53.37760925292969 51.58839416503906 53.37760925292969 53.428672790527344 L53.37760925292969 60.09332275390625 C53.37760925292969 61.935264587402344 51.88513946533203 63.4256477355957 50.04528045654297 63.4256477355957 L43.38063049316406 63.4256477355957 C41.54035568237305 63.4256477355957 40.04830551147461 61.935264587402344 40.04830551147461 60.09332275390625 L40.04830551147461 56.7609977722168 L33.38365936279297 56.7609977722168 L33.38365936279297 60.09332275390625 C33.38365936279297 65.61581420898438 37.85980224609375 70.09030151367188 43.38063049316406 70.09030151367188 L43.38063049316406 76.75495147705078 L50.04528045654297 76.75495147705078 Z"></path>
<path fill="#3d9ae2" fill-opacity="1.0"  filling="0" d="M93.36551666259766 156.7307586669922 L86.70086669921875 156.7307586669922 L86.70086669921875 163.39541625976562 L90.03318786621094 163.39541625976562 L90.03318786621094 170.06005859375 L86.70086669921875 170.06005859375 L86.70086669921875 176.72471618652344 L93.36551666259766 176.72471618652344 C95.20536804199219 176.72471618652344 96.69783782958984 175.2343292236328 96.69783782958984 173.39239501953125 L96.69783782958984 160.06307983398438 C96.69783782958984 158.22280883789062 95.20536804199219 156.7307586669922 93.36551666259766 156.7307586669922 Z"></path></svg>