<svg xmlns="http://www.w3.org/2000/svg" viewBox="0.0 0.0 200.0 200.0" height="200.0px" width="200.0px"><path fill="#c7830b" fill-opacity="1.0"  filling="0" d="M18.75 119.13671875 L181.25 119.13671875 L181.25 181.63671875 L18.75 181.63671875 L18.75 119.13671875 Z"></path>
<path fill="#a86e09" fill-opacity="1.0"  filling="0" d="M18.75 118.75 L181.25 118.75 L181.25 121.875 L18.75 121.875 L18.75 118.75 Z"></path>
<path fill="#ea2b2d" fill-opacity="1.0"  filling="0" d="M68.75 169.13671875 L156.25 169.13671875 L156.25 181.63671875 L68.75 181.63671875 L68.75 169.13671875 Z"></path>
<path fill="#ea2b2d" fill-opacity="1.0"  filling="0" d="M184.375 119.13671875 L15.625 119.13671875 L25.0 69.13671875 L175.0 69.13671875 L184.375 119.13671875 Z"></path>
<path fill="#cb2527" fill-opacity="1.0"  filling="0" d="M177.9296875 84.76171875 L22.0703125 84.76171875 L23.2421875 78.51171875 L176.7578125 78.51171875 L177.9296875 84.76171875 Z"></path>
<path fill="#cb2527" fill-opacity="1.0"  filling="0" d="M180.2734375 97.26171875 L19.7265625 97.26171875 L20.8984375 91.01171875 L179.1015625 91.01171875 L180.2734375 97.26171875 Z"></path>
<path fill="#cb2527" fill-opacity="1.0"  filling="0" d="M182.6171875 109.76171875 L17.3828125 109.76171875 L18.5546875 103.51171875 L181.4453125 103.51171875 L182.6171875 109.76171875 Z"></path>
<path fill="#0a71cd" fill-opacity="1.0"  filling="0" d="M121.875 137.88671875 L103.125 137.88671875 L106.25 118.75 L118.75 118.75 L121.875 137.88671875 Z"></path>
<path fill="#eae9e4" fill-opacity="1.0"  filling="0" d="M103.125 137.88671875 L87.5 137.88671875 L90.625 119.13671875 L106.25 119.13671875 L103.125 137.88671875 Z"></path>
<path fill="#0a71cd" fill-opacity="1.0"  filling="0" d="M75.0 119.13671875 A30.962499618530273 30.962499618530273 0.0 0 1 69.79960632324219 136.31211853027344 L68.75 137.88671875 L87.5 137.88671875 L90.625 119.13671875 L75.0 119.13671875 Z"></path>
<path fill="#eae9e4" fill-opacity="1.0"  filling="0" d="M121.875 137.88671875 L137.5 137.88671875 L134.375 119.13671875 L118.75 119.13671875 L121.875 137.88671875 Z"></path>
<path fill="#0a71cd" fill-opacity="1.0"  filling="0" d="M150.0 119.13671875 A30.962499618530273 30.962499618530273 0.0 0 0 155.20037841796875 136.31211853027344 L156.25 137.88671875 L137.5 137.88671875 L134.375 119.13671875 L150.0 119.13671875 Z"></path>
<path fill="#a6deff" fill-opacity="1.0"  filling="0" d="M75.0 137.88671875 L150.0 137.88671875 L150.0 169.13671875 L75.0 169.13671875 L75.0 137.88671875 Z"></path>
<path fill="#ee9d0d" fill-opacity="1.0"  filling="0" d="M31.25 150.38671875 L56.25 150.38671875 L56.25 181.63671875 L31.25 181.63671875 L31.25 150.38671875 Z"></path>
<path fill="#a86e09" fill-opacity="1.0"  filling="0" d="M31.25 150.38671875 L56.25 150.38671875 L56.25 153.125 L31.25 153.125 L31.25 150.38671875 Z"></path>
<path fill="#ffb15e" fill-opacity="1.0"  filling="0" d="M31.25 137.88671875 L56.25 137.88671875 L56.25 150.38671875 L31.25 150.38671875 L31.25 137.88671875 Z"></path>
<path fill="#cb2527" fill-opacity="1.0"  filling="0" d="M81.25 169.13671875 L93.75 169.13671875 L93.75 181.63671875 L81.25 181.63671875 L81.25 169.13671875 Z"></path>
<path fill="#cb2527" fill-opacity="1.0"  filling="0" d="M106.25 169.13671875 L118.75 169.13671875 L118.75 181.63671875 L106.25 181.63671875 L106.25 169.13671875 Z"></path>
<path fill="#cb2527" fill-opacity="1.0"  filling="0" d="M131.25 169.13671875 L143.75 169.13671875 L143.75 181.63671875 L131.25 181.63671875 L131.25 169.13671875 Z"></path>
<path fill="#92d1f7" fill-opacity="1.0"  filling="0" d="M171.875 134.76171875 A9.375 9.375 0.0 0 0 162.5 144.13671875 L181.25 144.13671875 A9.375 9.375 0.0 0 0 171.875 134.76171875 Z"></path>
<path fill="#a6deff" fill-opacity="1.0"  filling="0" d="M162.5 144.13671875 L181.25 144.13671875 L181.25 162.88671875 L162.5 162.88671875 L162.5 144.13671875 Z"></path>
<path fill="#92d1f7" fill-opacity="1.0"  filling="0" d="M106.25 169.13671875 L150.0 137.88671875 L131.25 137.88671875 L87.5 169.13671875 L106.25 169.13671875 Z"></path>
<path fill="#a86e09" fill-opacity="1.0"  filling="0" d="M184.2472686767578 31.25 A3.125 3.125 0.0 0 1 181.25 29.00390625 L177.45468139648438 16.50390625 A3.125 3.125 0.0 1 1 183.4523468017578 14.74609375 L187.24765014648438 27.24609375 A3.126953125 3.126953125 0.0 0 1 184.2472686767578 31.25 Z"></path>
<path fill="#a86e09" fill-opacity="1.0"  filling="0" d="M173.21524047851562 27.38671875 A3.125 3.125 0.0 0 1 170.21795654296875 25.140625 L168.46014404296875 19.14336395263672 A3.125 3.125 0.0 0 1 174.4578094482422 17.38555145263672 L176.2156219482422 23.3828125 A3.125 3.125 0.0 0 1 173.21563720703125 27.388282775878906 L173.21524047851562 27.38671875 Z"></path>
<path fill="#a86e09" fill-opacity="1.0"  filling="0" d="M164.21875 30.025390625 A3.125 3.125 0.0 0 1 161.2214813232422 27.779296875 L159.4636688232422 21.781639099121094 A3.125 3.125 0.0 0 1 165.4609375 20.023826599121094 L167.21875 26.021484375 A3.1273436546325684 3.1273436546325684 0.0 0 1 164.21875 30.025390625 Z"></path>
<path fill="#a86e09" fill-opacity="1.0"  filling="0" d="M180.25155639648438 51.37617111206055 A3.125 3.125 0.0 0 1 177.25430297851562 49.12968826293945 L175.49649047851562 43.132423400878906 A3.125 3.125 0.0 1 1 181.49374389648438 41.374610900878906 L183.25155639648438 47.37226867675781 A3.1273436546325684 3.1273436546325684 0.0 0 1 180.25115966796875 51.377342224121094 L180.25155639648438 51.37617111206055 Z"></path>
<path fill="#a86e09" fill-opacity="1.0"  filling="0" d="M171.255859375 54.01484298706055 A3.126953125 3.126953125 0.0 0 1 168.25820922851562 51.76874923706055 L166.50039672851562 45.771484375 A3.125 3.125 0.0 1 1 172.49765014648438 44.013671875 L174.25546264648438 50.01093673706055 A3.126953125 3.126953125 0.0 0 1 171.25546264648438 54.01640701293945 L171.255859375 54.01484298706055 Z"></path>
<path fill="#a86e09" fill-opacity="1.0"  filling="0" d="M188.30584716796875 31.25 L192.24765014648438 44.732421875 A3.125 3.125 0.0 1 1 186.25039672851562 46.490234375 L181.7941436767578 31.25 L188.30584716796875 31.25 Z"></path>
<path fill="#d78e0c" fill-opacity="1.0"  filling="0" d="M167.62384033203125 45.44140625 L163.74569702148438 43.322265625 L160.7468719482422 44.20195388793945 L157.228515625 32.20703125 L160.22735595703125 31.327735900878906 L162.3464813232422 27.44921112060547 L183.33709716796875 21.292579650878906 L190.625 29.40898895263672 L188.61444091796875 39.28437042236328 L167.62384033203125 45.44140625 Z"></path>
<path fill="#ee9d0d" fill-opacity="1.0"  filling="0" d="M88.77227020263672 88.109375 A23.966796875 23.966796875 0.0 0 1 82.99101257324219 89.05937957763672 A23.978124618530273 23.978124618530273 0.0 0 0 66.33203125 96.76093292236328 A29.927734375 29.927734375 0.0 0 1 52.7578125 105.18672180175781 L51.71601867675781 105.4921875 A28.125 28.125 0.0 0 1 16.81171417236328 86.4203109741211 L13.293746948242188 74.4253921508789 A28.125 28.125 0.0 0 1 32.365623474121094 39.521484375 A33.84687423706055 33.84687423706055 0.0 0 1 50.43320083618164 39.248050689697266 A21.358983993530273 21.358983993530273 0.0 0 0 66.62539672851562 37.005859375 A32.7890625 32.7890625 0.0 0 1 73.984375 33.828125 A27.21211051940918 27.21211051940918 0.0 0 1 107.7554702758789 52.28125 L107.96366882324219 52.99140930175781 A28.297657012939453 28.297657012939453 0.0 0 1 88.77227020263672 88.109375 Z"></path>
<path fill="#ffb15e" fill-opacity="1.0"  filling="0" d="M39.79804611206055 64.99140930175781 L44.18867111206055 79.99140930175781 C44.916015625 82.47695922851562 43.49101638793945 85.08125305175781 41.005863189697266 85.80859375 L41.005863189697266 85.80859375 C38.52070617675781 86.53633117675781 35.916015625 85.111328125 35.18867492675781 82.62577819824219 L30.798049926757812 67.62577819824219 C30.070701599121094 65.140625 31.495704650878906 62.53632736206055 33.980857849121094 61.80859375 L33.980857849121094 61.80859375 C36.46601486206055 61.08124923706055 39.070701599121094 62.50625228881836 39.79804611206055 64.99140930175781 Z"></path>
<path fill="#ffb15e" fill-opacity="1.0"  filling="0" d="M157.16796875 32.251953125 L160.68048095703125 44.251953125 L94.68047332763672 63.570701599121094 L91.16796875 51.570701599121094 L157.16796875 32.251953125 Z"></path>
<path fill="#a86e09" fill-opacity="1.0"  filling="0" d="M96.52108764648438 60.193359375 A12.5 12.5 0.0 1 1 71.52108764648438 60.193359375 A12.5 12.5 0.0 1 1 96.52108764648438 60.193359375 Z"></path>
<path fill="#936108" fill-opacity="1.0"  filling="0" d="M96.46484375 61.343746185302734 A12.25 12.25 0.0 0 0 96.015625 58.984375 A12.497655868530273 12.497655868530273 0.0 0 0 71.578125 61.3515625 A12.5 12.5 0.0 0 1 96.015625 56.67578125 A12.341405868530273 12.341405868530273 0.0 0 1 96.46484375 61.343746185302734 Z"></path></svg>