<svg xmlns="http://www.w3.org/2000/svg" viewBox="0.0 0.0 200.0 200.0" height="200.0px" width="200.0px"><path fill="url(#SVGID_1_)" fill-opacity="1.0"  filling="0" d="M200.0 46.182029724121094 L200.0 153.8175811767578 C200.0 179.32461547851562 179.32461547851562 200.0 153.81796264648438 200.0 L46.18241882324219 200.0 C20.675392150878906 200.0 0.0 179.32461547851562 0.0 153.81796264648438 L0.0 46.182029724121094 C0.0 20.675392150878906 20.675392150878906 0.0 46.18241882324219 0.0 L153.81796264648438 0.0 C179.32461547851562 0.0 200.0 20.675392150878906 200.0 46.182029724121094 Z"></path>
<path fill="url(#SVGID_2_)" fill-opacity="1.0"  filling="0" d="M46.18241882324219 198.4375 C21.57891082763672 198.4375 1.5625 178.42108154296875 1.5625 153.8175811767578 L1.5625 46.18241882324219 C1.5625 21.57891082763672 21.57891082763672 1.5625 46.18241882324219 1.5625 L153.81796264648438 1.5625 C178.42108154296875 1.5625 198.4375 21.57891082763672 198.4375 46.18241882324219 L198.4375 153.81796264648438 C198.4375 178.42108154296875 178.42108154296875 198.4375 153.8175811767578 198.4375 L46.18241882324219 198.4375 Z"></path>
<path fill="#1A1A1A" fill-opacity="1.0"  filling="0" d="M165.2898406982422 84.2847671508789 C165.2898406982422 82.1078109741211 164.13787841796875 80.0933609008789 162.26171875 78.98906707763672 L105.06952667236328 45.33281326293945 C103.14608764648438 44.201171875 100.76016235351562 44.201171875 98.83672332763672 45.33281326293945 L41.64453125 78.98906707763672 C39.76836395263672 80.0933609008789 38.61640548706055 82.1078109741211 38.61640548706055 84.2847671508789 L38.61640548706055 88.4449234008789 L38.616798400878906 88.4449234008789 L38.61640548706055 88.4449234008789 L38.61640548706055 163.328125 L165.2898406982422 163.328125 L165.2898406982422 88.4453125 L165.28945922851562 88.4453125 L165.2898406982422 88.4453125 L165.2898406982422 84.2847671508789 L165.2898406982422 84.2847671508789 Z"></path>
<path fill="url(#SVGID_3_)" fill-opacity="1.0"  filling="0" d="M200.0 112.52734375 L200.0 153.81640625 C200.0 179.32421875 179.32421875 200.0 153.81640625 200.0 L75.2890625 200.0 L36.6640625 161.375 L161.63241577148438 74.1597671508789 L200.0 112.52734375 Z"></path>
<path fill="url(#SVGID_4_)" fill-opacity="1.0"  filling="0" d="M163.3367156982422 82.3316421508789 C163.3367156982422 80.1546859741211 162.18475341796875 78.1402359008789 160.30859375 77.03594207763672 L103.11640167236328 43.37968826293945 C101.19296264648438 42.248046875 98.8070297241211 42.248046875 96.88359832763672 43.37968826293945 L39.69140625 77.03594207763672 C37.81523895263672 78.13983917236328 36.66328048706055 80.1546859741211 36.66328048706055 82.3316421508789 L36.66328048706055 86.4917984008789 L36.663673400878906 86.4917984008789 L36.66328048706055 86.4917984008789 L36.66328048706055 161.375 L163.3367156982422 161.375 L163.3367156982422 86.4921875 L163.33633422851562 86.4921875 L163.3367156982422 86.4921875 L163.3367156982422 82.3316421508789 L163.3367156982422 82.3316421508789 Z"></path>
<path fill="#FFFFFF" fill-opacity="1.0"  filling="0" d="M163.3367156982422 78.4253921508789 C163.3367156982422 76.2484359741211 162.18475341796875 74.2339859008789 160.30859375 73.12969207763672 L103.11640167236328 39.47343826293945 C101.19296264648438 38.341796875 98.8070297241211 38.341796875 96.88359832763672 39.47343826293945 L39.69140625 73.12969207763672 C37.81523895263672 74.23358917236328 36.66328048706055 76.2484359741211 36.66328048706055 78.4253921508789 L36.66328048706055 82.5855484008789 L36.663673400878906 82.5855484008789 L36.66328048706055 82.5855484008789 L36.66328048706055 157.46875 L163.3367156982422 157.46875 L163.3367156982422 82.5859375 L163.33633422851562 82.5859375 L163.3367156982422 82.5859375 L163.3367156982422 78.4253921508789 L163.3367156982422 78.4253921508789 Z"></path>
<path fill="url(#SVGID_5_)" fill-opacity="1.0"  filling="0" d="M37.05390548706055 157.078125 L37.05390548706055 78.42578125 C37.05390548706055 76.396484375 38.140625 74.49609375 39.88984298706055 73.466796875 L97.08203125 39.810550689697266 C97.96562957763672 39.290626525878906 98.974609375 39.015625 100.00039672851562 39.015625 C101.02578735351562 39.015625 102.03477478027344 39.290626525878906 102.91874694824219 39.810550689697266 L160.11093139648438 73.466796875 C161.8601531982422 74.49609375 162.9464874267578 76.396484375 162.9464874267578 78.42578125 L162.9464874267578 157.078125 L37.05390548706055 157.078125 Z"></path>
<path fill="url(#SVGID_6_)" fill-opacity="1.0"  filling="0" d="M36.812496185302734 77.09765625 L163.3359375 77.09765625 L163.3359375 82.5859375 L36.812496185302734 82.5859375 L36.812496185302734 77.09765625 Z"></path>
<path fill="#666666" fill-opacity="1.0"  filling="0" d="M52.6796875 75.234375 L150.3203125 75.234375 L150.3203125 142.99609375 L52.6796875 142.99609375 L52.6796875 75.234375 Z"></path>
<path fill="#FFFFFF" fill-opacity="1.0"  filling="0" d="M51.1796875 73.546875 L148.8203125 73.546875 L148.8203125 141.30859375 L51.1796875 141.30859375 L51.1796875 73.546875 Z"></path>
<path fill="url(#SVGID_7_)" fill-opacity="1.0"  filling="0" d="M54.464839935302734 77.09765625 L145.53515625 77.09765625 L145.53515625 137.765625 L54.464839935302734 137.765625 L54.464839935302734 77.09765625 Z"></path>
<path fill="#666666" fill-opacity="1.0"  filling="0" d="M36.66328048706055 157.46875 L163.3367156982422 157.46875 L163.3367156982422 153.30859375 L36.66328048706055 82.5859375 L36.66328048706055 157.46875 Z"></path>
<path fill="#FFFFFF" fill-opacity="1.0"  filling="0" d="M163.3367156982422 157.46875 L36.66328048706055 157.46875 L36.66328048706055 82.5859375 L163.3367156982422 157.46875 Z"></path>
<path fill="#FFFFFF" fill-opacity="1.0"  filling="0" d="M37.05390548706055 157.078125 L37.05390548706055 83.27030944824219 L161.90859985351562 157.078125 L37.05390548706055 157.078125 Z"></path>
<path fill="#666666" fill-opacity="1.0"  filling="0" d="M163.3367156982422 157.46875 L36.66328048706055 157.46875 L36.66328048706055 153.30859375 L163.3367156982422 82.5859375 L163.3367156982422 157.46875 Z"></path>
<path fill="#FFFFFF" fill-opacity="1.0"  filling="0" d="M163.3367156982422 157.46875 L36.66328048706055 157.46875 L163.3367156982422 82.5859375 L163.3367156982422 157.46875 Z"></path>
<path fill="#FFFFFF" fill-opacity="1.0"  filling="0" d="M38.091796875 157.078125 L162.9460906982422 83.27030944824219 L162.9460906982422 157.078125 L38.091796875 157.078125 Z"></path>
<path fill="#666666" fill-opacity="1.0"  filling="0" d="M36.66328048706055 151.4347686767578 L36.66328048706055 157.46875 L163.3367156982422 157.46875 L163.3367156982422 151.4347686767578 C163.3367156982422 149.2578125 162.18475341796875 147.24334716796875 160.30859375 146.13906860351562 L103.11640167236328 112.4828109741211 C101.19296264648438 111.35078430175781 98.8070297241211 111.35078430175781 96.88359832763672 112.4828109741211 L39.69140625 146.13906860351562 C37.81523895263672 147.24334716796875 36.66328048706055 149.2578125 36.66328048706055 151.4347686767578 Z"></path>
<path fill="#FFFFFF" fill-opacity="1.0"  filling="0" d="M36.66328048706055 153.30859375 L36.66328048706055 157.46875 L163.3367156982422 157.46875 L163.3367156982422 153.30859375 C163.3367156982422 151.1316375732422 162.18475341796875 149.1171875 160.30859375 148.0128936767578 L103.11640167236328 114.35663604736328 C101.19296264648438 113.224609375 98.8070297241211 113.224609375 96.88359832763672 114.35663604736328 L39.69140625 148.0128936767578 C37.81523895263672 149.1171875 36.66328048706055 151.1316375732422 36.66328048706055 153.30859375 Z"></path>
<path fill="url(#SVGID_8_)" fill-opacity="1.0"  filling="0" d="M37.05390548706055 157.078125 L37.05390548706055 153.30859375 C37.05390548706055 151.27890014648438 38.140625 149.37890625 39.88984298706055 148.349609375 L97.08203125 114.693359375 C97.96562957763672 114.1734390258789 98.974609375 113.89842987060547 100.00039672851562 113.89842987060547 C101.02578735351562 113.89842987060547 102.03477478027344 114.1734390258789 102.91874694824219 114.693359375 L160.11093139648438 148.349609375 C161.8601531982422 149.37890625 162.9464874267578 151.279296875 162.9464874267578 153.30859375 L162.9464874267578 157.078125 L37.05390548706055 157.078125 Z"></path>
<path fill="#FFFFFF" fill-opacity="1.0"  filling="0" d="M96.73046875 105.17851257324219 C96.11796569824219 105.17851257324219 95.5054702758789 104.9449234008789 95.03828430175781 104.47734832763672 L87.54608917236328 96.98515319824219 C86.611328125 96.05078125 86.611328125 94.53515625 87.54608917236328 93.60077667236328 C88.4800796508789 92.666015625 89.99649047851562 92.666015625 90.93046569824219 93.60077667236328 L96.73046875 99.400390625 L111.69296264648438 84.43827819824219 C112.62773132324219 83.5035171508789 114.14257049560547 83.5035171508789 115.07733917236328 84.43827819824219 C116.0121078491211 85.3726577758789 116.0121078491211 86.8882827758789 115.07733917236328 87.8226547241211 L98.42266082763672 104.47734832763672 C97.95547485351562 104.9449234008789 97.34297180175781 105.17851257324219 96.73046875 105.17851257324219 Z"></path></svg>