<svg xmlns="http://www.w3.org/2000/svg" viewBox="0.0 0.0 200.0 200.0" height="200.0px" width="200.0px"><path fill="#60b9fe" fill-opacity="1.0"  filling="0" d="M132.0944061279297 0.13124847412109375 C105.26348876953125 4.898834228515625 84.8880615234375 28.334426879882812 84.8880615234375 56.53487777709961 C84.8880615234375 84.73532104492188 105.26348876953125 108.17131042480469 132.0944061279297 112.93850708007812 C161.5374298095703 110.9752197265625 184.81246948242188 86.47517395019531 184.81246948242188 56.53487777709961 C184.81246948242188 26.594581604003906 161.5374298095703 2.0945358276367188 132.0944061279297 0.13124847412109375 Z"></path>
<path fill="#1ca8ff" fill-opacity="1.0"  filling="0" d="M85.55602264404297 56.53487777709961 C85.55602264404297 27.650054931640625 107.21896362304688 3.8273544311523438 135.18426513671875 0.4207000732421875 C132.9205780029297 0.14492034912109375 130.6158905029297 0.0 128.27760314941406 0.0 C97.05409240722656 0.0 71.74272155761719 25.311378479003906 71.74272155761719 56.53487777709961 C71.74272155761719 87.75837707519531 97.05409240722656 113.06975555419922 128.27760314941406 113.06975555419922 C130.6158905029297 113.06975555419922 132.92018127441406 112.92483520507812 135.18426513671875 112.64905548095703 C107.21934509277344 109.24240112304688 85.55602264404297 85.4197006225586 85.55602264404297 56.53487777709961 Z"></path>
<path fill="#ffcebe" fill-opacity="1.0"  filling="0" d="M178.87222290039062 126.00767517089844 C174.55661010742188 119.04827880859375 166.84291076660156 123.400634765625 166.19094848632812 123.728759765625 L139.35809326171875 134.9518280029297 L138.9471435546875 135.3955841064453 C138.9471435546875 135.3955841064453 134.57720947265625 137.6151123046875 133.7596435546875 137.3448028564453 C132.94244384765625 137.07449340820312 133.08541870117188 136.25689697265625 133.08541870117188 136.25653076171875 C133.08541870117188 136.25418090820312 133.0846405029297 136.25222778320312 133.0846405029297 136.2498779296875 C133.13619995117188 134.06082153320312 132.4862060546875 129.8971405029297 127.11001586914062 128.40220642089844 C116.54632568359375 125.46353149414062 110.74396514892578 123.74946594238281 106.92169189453125 122.83892059326172 L96.89472198486328 122.83892059326172 L78.98804473876953 131.57057189941406 L63.47746658325195 151.02061462402344 L82.05562591552734 163.16009521484375 L84.57711791992188 162.89134216308594 C88.93338012695312 159.7296142578125 94.90760803222656 159.25070190429688 100.5068359375 160.8077392578125 L117.01116943359375 165.39913940429688 C119.90023803710938 166.055419921875 126.459228515625 166.85305786132812 132.72604370117188 162.72805786132812 C132.7291717529297 162.72650146484375 132.73150634765625 162.7249298095703 132.73150634765625 162.7249298095703 C134.47564697265625 161.71478271484375 173.31362915039062 139.22137451171875 175.05776977539062 138.2108154296875 C176.32925415039062 137.3729248046875 182.65701293945312 132.57369995117188 178.87222290039062 126.00767517089844 Z"></path>
<path fill="#ffb1a0" fill-opacity="1.0"  filling="0" d="M66.41458129882812 151.33935546875 C65.64387512207031 150.84912109375 65.44778442382812 149.8166961669922 65.96067810058594 149.0788116455078 C71.77201080322266 140.72097778320312 79.29155731201172 133.65377807617188 88.10955047607422 128.4955596923828 C94.19901275634766 124.93305969238281 97.15214538574219 124.04243469238281 106.92169189453125 122.8385238647461 C103.29161071777344 121.97406005859375 101.44745635986328 121.83422088623047 99.00995635986328 122.060791015625 L99.0091781616211 122.06000518798828 C83.57282257080078 123.79360961914062 80.78883361816406 124.22407531738281 73.4884262084961 128.49517822265625 C64.5255126953125 133.73814392089844 56.9044075012207 140.9530029296875 51.05439758300781 149.49130249023438 L51.05439758300781 150.86865234375 L78.73570251464844 168.47415161132812 L80.22711181640625 168.04721069335938 L80.45640563964844 167.62416076660156 C81.53023529052734 165.64291381835938 82.94039916992188 164.07846069335938 84.57711791992188 162.89016723632812 L66.41458129882812 151.33935546875 Z"></path>
<path fill="#ffb1a0" fill-opacity="1.0"  filling="0" d="M138.86355590820312 138.52371215820312 C138.8709716796875 138.4822998046875 138.87762451171875 138.44052124023438 138.8834686279297 138.39871215820312 L139.35809326171875 134.95144653320312 L134.2799530029297 137.07525634765625 C133.70143127441406 137.31707763671875 133.07525634765625 136.88113403320312 133.08541870117188 136.2557373046875 L132.91744995117188 137.4764404296875 C132.8787841796875 137.6307373046875 132.66432189941406 138.4217529296875 132.15573120117188 139.11395263671875 C131.68698120117188 139.7530059814453 130.91860961914062 140.45379638671875 129.12252807617188 140.21746826171875 C123.10649108886719 139.4197998046875 105.86349487304688 137.23074340820312 105.68965911865234 137.2088623046875 C104.03575134277344 136.9967498779297 102.52519989013672 138.1697998046875 102.31543731689453 139.82293701171875 C102.10567474365234 141.4764404296875 103.2759780883789 142.98739624023438 104.92949676513672 143.19715881347656 C105.10293579101562 143.2190399169922 122.32953643798828 145.40615844726562 128.32955932617188 146.20106506347656 C128.84048461914062 146.26904296875 129.33111572265625 146.3010711669922 129.80377197265625 146.3010711669922 C135.3858184814453 146.3014678955078 138.26980590820312 141.80810546875 138.86355590820312 138.52371215820312 Z"></path>
<path fill="#dbedff" fill-opacity="1.0"  filling="0" d="M81.64664459228516 168.95071411132812 L58.00792694091797 153.91476440429688 C56.82901382446289 154.07452392578125 55.728233337402344 154.74171447753906 55.069637298583984 155.84640502929688 L48.903221130371094 166.19174194335938 L75.4661636352539 182.94918823242188 L77.56734466552734 182.94918823242188 L82.81149291992188 173.563232421875 C83.70758819580078 171.96011352539062 83.19625854492188 169.936279296875 81.64664459228516 168.95071411132812 Z"></path>
<path fill="#b5dcff" fill-opacity="1.0"  filling="0" d="M49.05048751831055 166.10345458984375 L55.14463806152344 155.87921142578125 C55.80518341064453 154.77061462402344 56.921592712402344 154.1092987060547 58.108707427978516 153.97882080078125 L49.58564758300781 148.5573272705078 C47.93798065185547 147.50927734375 45.750091552734375 148.02920532226562 44.75047302246094 149.70654296875 L39.404762268066406 158.6749267578125 L40.00359344482422 160.5772705078125 L49.121971130371094 166.32962036132812 L49.05048751831055 166.10345458984375 Z"></path>
<path fill="#6e60b8" fill-opacity="1.0"  filling="0" d="M78.61225891113281 183.61402893066406 L48.46728515625 164.4397735595703 C47.972747802734375 164.55734252929688 47.52353286743164 164.86166381835938 47.24384307861328 165.33547973632812 L26.798095703125 200.0 L68.84427642822266 200.0 C70.55091857910156 200.0 72.12240600585938 199.07305908203125 72.94818878173828 197.57968139648438 L79.26148223876953 186.16207885742188 C79.75250244140625 185.2745819091797 79.46812438964844 184.15817260742188 78.61225891113281 183.61402893066406 Z"></path>
<path fill="#6353b2" fill-opacity="1.0"  filling="0" d="M47.26766586303711 165.55227661132812 C47.59540939331055 164.99642944335938 48.159080505371094 164.6749267578125 48.75400161743164 164.6221923828125 L39.186405181884766 158.53663635253906 C38.27077865600586 157.9542236328125 37.05475997924805 158.24639892578125 36.50358200073242 159.1807861328125 L15.703933715820312 194.44569396972656 C14.255882263183594 196.90118408203125 16.02581024169922 200.00039672851562 18.876602172851562 200.00039672851562 L26.950050354003906 200.00039672851562 L47.26766586303711 165.55227661132812 Z"></path>
<path fill="#dbedff" fill-opacity="1.0"  filling="0" d="M127.95337677001953 14.190650939941406 C125.744384765625 15.361358642578125 124.234619140625 17.675811767578125 124.234619140625 20.35003662109375 C124.234619140625 23.024261474609375 125.744384765625 25.338714599609375 127.95337677001953 26.509422302246094 C130.24322509765625 25.402389526367188 131.8268280029297 23.064102172851562 131.8268280029297 20.35003662109375 C131.8268280029297 17.635971069335938 130.24362182617188 15.297683715820312 127.95337677001953 14.190650939941406 Z"></path>
<path fill="#b5dcff" fill-opacity="1.0"  filling="0" d="M124.3064956665039 20.35003662109375 C124.3064956665039 17.680503845214844 125.83775329589844 15.373855590820312 128.06666564941406 14.245338439941406 C127.13892364501953 13.775413513183594 126.09282684326172 13.504714965820312 124.98149108886719 13.504714965820312 C121.20101928710938 13.504714965820312 118.13616943359375 16.569564819335938 118.13616943359375 20.35003662109375 C118.13616943359375 24.130516052246094 121.20101928710938 27.19536590576172 124.98149108886719 27.19536590576172 C126.09282684326172 27.19536590576172 127.13892364501953 26.924659729003906 128.06666564941406 26.454734802246094 C125.83775329589844 25.325828552246094 124.3064956665039 23.019187927246094 124.3064956665039 20.35003662109375 Z"></path>
<path fill="#dbedff" fill-opacity="1.0"  filling="0" d="M157.86593627929688 89.0423583984375 L146.67254638671875 71.13880920410156 L126.72563934326172 71.13880920410156 C123.424072265625 71.13880920410156 120.73812866210938 68.45286560058594 120.73812866210938 65.15130615234375 L120.73812866210938 36.93366622924805 C120.73812866210938 35.266868591308594 122.08930206298828 33.915687561035156 123.756103515625 33.915687561035156 C125.42290496826172 33.915687561035156 126.7740707397461 35.266868591308594 126.7740707397461 36.93366622924805 L126.7740707397461 65.10247039794922 L146.69912719726562 65.10247039794922 C148.77685546875 65.10247039794922 150.67489624023438 66.15442657470703 151.7760772705078 67.91615295410156 L162.9835205078125 85.8427505493164 C163.86712646484375 87.25602722167969 163.4378204345703 89.1181411743164 162.0245361328125 90.00173950195312 C160.61009216308594 90.88572692871094 158.74874877929688 90.45486450195312 157.86593627929688 89.0423583984375 Z"></path>
<path fill="#dbedff" fill-opacity="1.0"  filling="0" d="M149.50967407226562 52.991119384765625 L124.98188781738281 52.991119384765625 C123.3150863647461 52.991119384765625 121.96390533447266 51.63994216918945 121.96390533447266 49.97314453125 C121.96390533447266 48.30634307861328 123.3150863647461 46.955169677734375 124.98188781738281 46.955169677734375 L149.50967407226562 46.955169677734375 C151.1764678955078 46.955169677734375 152.52764892578125 48.30634307861328 152.52764892578125 49.97314453125 C152.52764892578125 51.639556884765625 151.1764678955078 52.991119384765625 149.50967407226562 52.991119384765625 Z"></path>
<path fill="#b5dcff" fill-opacity="1.0"  filling="0" d="M127.06002044677734 97.9505844116211 C110.3720932006836 97.9505844116211 96.79550170898438 84.37399291992188 96.79550170898438 67.68567657470703 C96.79550170898438 56.897769927978516 102.60684204101562 46.845401763916016 111.9615478515625 41.450862884521484 C113.4052963256836 40.61765670776367 115.25100708007812 41.11336135864258 116.08382415771484 42.5575065612793 C116.91663360595703 44.00164794921875 116.42092895507812 45.846961975097656 114.97718048095703 46.679779052734375 C107.48575592041016 50.99971008300781 102.83184051513672 59.048553466796875 102.83184051513672 67.68528747558594 C102.83184051513672 81.04508209228516 113.70061492919922 91.91384887695312 127.0604019165039 91.91384887695312 C134.2076873779297 91.91384887695312 140.95535278320312 88.77986145019531 145.57412719726562 83.31500244140625 C146.64990234375 82.04117584228516 148.55380249023438 81.88140869140625 149.82725524902344 82.95797729492188 C151.10031127929688 84.03414916992188 151.26007080078125 85.93844604492188 150.18389892578125 87.21110534667969 C144.41552734375 94.03651428222656 135.9873809814453 97.9505844116211 127.06002044677734 97.9505844116211 Z"></path></svg>