<svg xmlns="http://www.w3.org/2000/svg" viewBox="0.0 0.0 200.0 200.0" height="200.0px" width="200.0px"><path fill="#FAE7CA" fill-opacity="1.0"  filling="0" d="M137.55911254882812 80.20414733886719 L128.964599609375 65.9197998046875 C124.88570404052734 59.14051055908203 117.55329895019531 54.99481964111328 109.64159393310547 54.99481964111328 L34.04759216308594 54.99481964111328 C26.135887145996094 54.99481964111328 18.80309295654297 59.14051055908203 14.724586486816406 65.9197998046875 L6.13006591796875 80.20414733886719 C4.0179595947265625 83.71468353271484 2.9023361206054688 87.73342895507812 2.9023361206054688 91.82990264892578 L2.9023361206054688 170.12896728515625 C2.9023361206054688 182.58364868164062 12.9984130859375 192.67970275878906 25.453079223632812 192.67970275878906 L118.23609924316406 192.67970275878906 C130.69076538085938 192.67970275878906 140.78683471679688 182.58364868164062 140.78683471679688 170.12896728515625 L140.78683471679688 91.82990264892578 C140.78683471679688 87.73342895507812 139.67083740234375 83.71429443359375 137.55911254882812 80.20414733886719 Z M71.84478759765625 80.53617858886719 C68.09205627441406 80.53617858886719 65.0502700805664 77.49398803710938 65.0502700805664 73.74126434326172 C65.0502700805664 69.98854064941406 68.09245300292969 66.94635009765625 71.84478759765625 66.94635009765625 C75.5975112915039 66.94635009765625 78.6393051147461 69.98854064941406 78.6393051147461 73.74126434326172 C78.6393051147461 77.49398803710938 75.59712219238281 80.53617858886719 71.84478759765625 80.53617858886719 Z"></path>
<path fill="#E2D1B7" fill-opacity="1.0"  filling="0" d="M30.25384521484375 170.12896728515625 L30.25384521484375 91.82990264892578 C30.25384521484375 87.73342895507812 31.36986541748047 83.71429443359375 33.48157501220703 80.20414733886719 L42.07609176635742 65.9197998046875 C46.15460205078125 59.14051055908203 53.487396240234375 54.99481964111328 61.399105072021484 54.99481964111328 L34.04759216308594 54.99481964111328 C26.135887145996094 54.99481964111328 18.80309295654297 59.14051055908203 14.724586486816406 65.9197998046875 L6.13006591796875 80.20414733886719 C4.0179595947265625 83.71468353271484 2.9023361206054688 87.73342895507812 2.9023361206054688 91.82990264892578 L2.9023361206054688 170.12896728515625 C2.9023361206054688 182.58364868164062 12.9984130859375 192.67970275878906 25.453079223632812 192.67970275878906 L52.80458450317383 192.67970275878906 C40.349918365478516 192.67970275878906 30.25384521484375 182.583251953125 30.25384521484375 170.12896728515625 Z"></path>
<path fill="#A37F60" fill-opacity="1.0"  filling="0" d="M117.38727569580078 91.82990264892578 L26.301902770996094 91.82990264892578 C22.208160400390625 91.82990264892578 18.889808654785156 95.14825439453125 18.889808654785156 99.24199676513672 L18.889808654785156 170.12857055664062 C18.889808654785156 173.75357055664062 21.828475952148438 176.69224548339844 25.453468322753906 176.69224548339844 L118.23609924316406 176.69224548339844 C121.86109161376953 176.69224548339844 124.79976654052734 173.75357055664062 124.79976654052734 170.12857055664062 L124.79976654052734 99.24199676513672 C124.79936981201172 95.14864349365234 121.48101806640625 91.82990264892578 117.38727569580078 91.82990264892578 Z"></path>
<path fill="#8B6C52" fill-opacity="1.0"  filling="0" d="M30.25384521484375 91.82990264892578 L26.301902770996094 91.82990264892578 C22.208160400390625 91.82990264892578 18.889808654785156 95.14825439453125 18.889808654785156 99.24199676513672 L18.889808654785156 170.12857055664062 C18.889808654785156 173.75357055664062 21.828475952148438 176.6918487548828 25.453468322753906 176.6918487548828 L31.22728729248047 176.6918487548828 C30.59642791748047 174.61451721191406 30.25384521484375 172.41177368164062 30.25384521484375 170.12857055664062 L30.25384521484375 91.82990264892578 Z"></path>
<path fill="#FAE7CA" fill-opacity="1.0"  filling="0" d="M165.8668670654297 23.06909942626953 L149.98721313476562 38.948753356933594 C147.15988159179688 41.77608871459961 147.15988159179688 46.36045837402344 149.98721313476562 49.18818664550781 L168.85787963867188 68.05885314941406 C171.68560791015625 70.88619232177734 176.26959228515625 70.88619232177734 179.09732055664062 68.05885314941406 L194.97657775878906 52.17880630493164 C197.80392456054688 49.35146713256836 197.80392456054688 44.76710510253906 194.97657775878906 41.939369201660156 L176.10630798339844 23.06909942626953 C173.27896118164062 20.241363525390625 168.6942138671875 20.241363525390625 165.8668670654297 23.06909942626953 Z"></path>
<path fill="#E2D1B7" fill-opacity="1.0"  filling="0" d="M176.67269897460938 60.24363327026367 L157.8020477294922 41.37297058105469 C154.97430419921875 38.545631408691406 154.97430419921875 33.961265563964844 157.8020477294922 31.133529663085938 L149.98721313476562 38.948368072509766 C147.15948486328125 41.77608871459961 147.15948486328125 46.360069274902344 149.98721313476562 49.18779373168945 L168.85787963867188 68.05846405029297 C171.68560791015625 70.88580322265625 176.26959228515625 70.88580322265625 179.09732055664062 68.05846405029297 L186.91213989257812 60.24363327026367 C184.08441162109375 63.07097625732422 179.5000457763672 63.07097625732422 176.67269897460938 60.24363327026367 Z"></path>
<path fill="" fill-opacity="1.0"  filling="0" d="M25.481201171875 195.60939025878906 L95.97949981689453 195.60939025878906 C97.59786224365234 195.60939025878906 98.90997314453125 194.2972869873047 98.90997314453125 192.67892456054688 C98.90997314453125 191.06057739257812 97.59786224365234 189.7484588623047 95.97949981689453 189.7484588623047 L25.481201171875 189.7484588623047 C14.662467956542969 189.7484588623047 5.860923767089844 180.94692993164062 5.860923767089844 170.12818908691406 L5.860923767089844 91.82911682128906 C5.860923767089844 88.26545715332031 6.832023620605469 84.76780700683594 8.669120788574219 81.71390533447266 L17.263641357421875 67.42955780029297 C20.791366577148438 61.56667709350586 27.233154296875 57.92410659790039 34.07532501220703 57.92410659790039 L69.60845947265625 57.92410659790039 C69.29322814941406 60.119808197021484 69.09010314941406 62.300270080566406 68.99948120117188 64.4490966796875 C65.0350341796875 65.6776123046875 62.14754104614258 69.37837982177734 62.14754104614258 73.74087524414062 C62.14754104614258 79.10336303710938 66.51042175292969 83.46624755859375 71.87290954589844 83.46624755859375 C77.23540496826172 83.46624755859375 81.59789276123047 79.10336303710938 81.59789276123047 73.74087524414062 C81.59789276123047 69.42252349853516 78.76781463623047 65.75456237792969 74.86587524414062 64.48893737792969 C74.96392059326172 62.329566955566406 75.19126892089844 60.13426208496094 75.53736114501953 57.92410659790039 L109.66971588134766 57.92410659790039 C116.51228332519531 57.92410659790039 122.95445251464844 61.566287994384766 126.48179626464844 67.42955780029297 L135.0762939453125 81.71390533447266 C136.9134063720703 84.76741790771484 137.88449096679688 88.26545715332031 137.88449096679688 91.82911682128906 L137.88449096679688 170.12818908691406 C137.88449096679688 180.94692993164062 129.0829620361328 189.7484588623047 118.26422119140625 189.7484588623047 L107.70175170898438 189.7484588623047 C106.0833969116211 189.7484588623047 104.77128601074219 191.06057739257812 104.77128601074219 192.67892456054688 C104.77128601074219 194.2972869873047 106.0833969116211 195.60939025878906 107.70175170898438 195.60939025878906 L118.26422119140625 195.60939025878906 C132.31460571289062 195.60939025878906 143.7454376220703 184.17855834960938 143.7454376220703 170.12818908691406 L143.7454376220703 91.82911682128906 C143.7454376220703 87.20100402832031 142.48410034179688 82.65804290771484 140.09817504882812 78.69242858886719 L131.50404357910156 64.4076919555664 C126.92280578613281 56.79325485229492 118.55641174316406 52.06318283081055 109.66971588134766 52.06318283081055 L76.72525024414062 52.06318283081055 C78.310791015625 45.72256851196289 80.83617401123047 39.43585968017578 84.15374755859375 33.74290466308594 C90.4049072265625 23.015579223632812 98.86660766601562 15.315597534179688 107.98026275634766 12.060523986816406 C122.90093994140625 6.73162841796875 138.74974060058594 13.242950439453125 153.9313507080078 30.887435913085938 L147.9430694580078 36.87571334838867 C143.9774627685547 40.84132766723633 143.9774627685547 47.29404830932617 147.9430694580078 51.25967025756836 C147.9430694580078 51.25967025756836 166.79812622070312 70.11471557617188 166.81375122070312 70.12994384765625 C170.72975158691406 74.04595184326172 177.2891082763672 74.0389175415039 181.1973114013672 70.12994384765625 C181.1973114013672 70.12994384765625 197.05938720703125 54.26864242553711 197.07696533203125 54.25067901611328 C200.97930908203125 50.34833908081055 200.96798706054688 43.75695037841797 197.07696533203125 39.86671829223633 C197.07696533203125 39.86671829223633 178.2305145263672 21.019882202148438 178.20669555664062 20.996055603027344 C174.28208923339844 17.071449279785156 167.74188232421875 17.07653045654297 163.8231201171875 20.996055603027344 L158.08563232421875 26.733543395996094 C149.69073486328125 17.058563232421875 140.9540252685547 10.437873840332031 132.081787109375 7.0507659912109375 C123.26343536376953 3.6839752197265625 114.4911880493164 3.5121002197265625 106.00994873046875 6.5413970947265625 C95.59630584716797 10.260917663574219 86.03616333007812 18.873008728027344 79.09008026123047 30.792129516601562 C75.25532531738281 37.37297821044922 72.40259552001953 44.7003059387207 70.71236419677734 52.063575744628906 L34.075721740722656 52.063575744628906 C25.189407348632812 52.063575744628906 16.82262420654297 56.79364013671875 12.241775512695312 64.4080810546875 L3.6472625732421875 78.69281768798828 C1.2613296508789062 82.65882873535156 0.0 87.2013931274414 0.0 91.82911682128906 L0.0 170.12818908691406 C0.0 184.17855834960938 11.430839538574219 195.60939025878906 25.481201171875 195.60939025878906 Z M71.87290954589844 77.60531616210938 C69.74205017089844 77.60531616210938 68.00846862792969 75.8717269897461 68.00846862792969 73.74087524414062 C68.00846862792969 71.61002349853516 69.74205017089844 69.87643432617188 71.87290954589844 69.87643432617188 C74.0037612915039 69.87643432617188 75.7369613647461 71.61002349853516 75.7369613647461 73.74087524414062 C75.7369613647461 75.8717269897461 74.0037612915039 77.60531616210938 71.87290954589844 77.60531616210938 Z M167.96725463867188 25.140579223632812 C169.6239013671875 23.484329223632812 172.411376953125 23.490188598632812 174.06216430664062 25.140579223632812 C174.06216430664062 25.140579223632812 192.92306518554688 44.0014762878418 192.93243408203125 44.01124572753906 C194.5582275390625 45.637413024902344 194.61721801757812 48.421390533447266 192.93243408203125 50.10615539550781 C192.93243408203125 50.10615539550781 177.10238647460938 65.93620300292969 177.0531768798828 65.98503112792969 C175.43521118164062 67.60299682617188 172.57192993164062 67.59909057617188 170.95826721191406 65.98503112792969 L152.0876007080078 47.11475372314453 C150.40753173828125 45.434288024902344 150.40753173828125 42.69991683959961 152.0876007080078 41.01945495605469 C152.0876007080078 41.01984405517578 167.9453887939453 25.162452697753906 167.96725463867188 25.140579223632812 Z"></path>
<path fill="" fill-opacity="1.0"  filling="0" d="M39.713985443115234 88.8986587524414 L26.33002471923828 88.8986587524414 C20.626907348632812 88.8986587524414 15.987083435058594 93.53849029541016 15.987083435058594 99.24121856689453 L15.987083435058594 170.1278076171875 C15.987083435058594 175.36294555664062 20.246055603027344 179.6215362548828 25.480812072753906 179.6215362548828 L118.2634506225586 179.6215362548828 C123.49859619140625 179.6215362548828 127.757568359375 175.362548828125 127.757568359375 170.12741088867188 L127.757568359375 99.24160766601562 C127.757568359375 93.53849029541016 123.11773681640625 88.8990478515625 117.41461944580078 88.8990478515625 L51.43545150756836 88.8990478515625 C49.81709289550781 88.8990478515625 48.50498580932617 90.21115112304688 48.50498580932617 91.82951354980469 C48.50498580932617 93.44786834716797 49.81709289550781 94.75997161865234 51.43545150756836 94.75997161865234 L117.4150161743164 94.75997161865234 C119.88648986816406 94.75997161865234 121.89664459228516 96.77052307128906 121.89664459228516 99.24160766601562 L121.89664459228516 170.1278076171875 C121.89664459228516 172.13092041015625 120.26696014404297 173.76100158691406 118.2634506225586 173.76100158691406 L25.481201171875 173.76100158691406 C23.478469848632812 173.76100158691406 21.84839630126953 172.13131713867188 21.84839630126953 170.12818908691406 L21.84839630126953 99.24160766601562 C21.84839630126953 96.77012634277344 23.85894012451172 94.75997161865234 26.33002471923828 94.75997161865234 L39.713985443115234 94.75997161865234 C41.33234405517578 94.75997161865234 42.644447326660156 93.44786834716797 42.644447326660156 91.82951354980469 C42.644447326660156 90.21115112304688 41.33234405517578 88.8986587524414 39.713985443115234 88.8986587524414 Z"></path>
<path fill="" fill-opacity="1.0"  filling="0" d="M44.93155288696289 134.59739685058594 C46.54991149902344 134.59739685058594 47.862022399902344 133.28529357910156 47.862022399902344 131.66693115234375 L47.862022399902344 126.790771484375 C47.862022399902344 125.17202758789062 46.54991149902344 123.86031341552734 44.93155288696289 123.86031341552734 C43.313201904296875 123.86031341552734 42.001094818115234 125.17202758789062 42.001094818115234 126.790771484375 L42.001094818115234 131.66693115234375 C42.000701904296875 133.28529357910156 43.31280517578125 134.59739685058594 44.93155288696289 134.59739685058594 Z"></path>
<path fill="" fill-opacity="1.0"  filling="0" d="M101.74473571777344 131.66693115234375 L101.74473571777344 126.790771484375 C101.74473571777344 125.17202758789062 100.43262481689453 123.86031341552734 98.81426239013672 123.86031341552734 C97.19590759277344 123.86031341552734 95.88380432128906 125.17202758789062 95.88380432128906 126.790771484375 L95.88380432128906 131.66693115234375 C95.88380432128906 133.28529357910156 97.19590759277344 134.59739685058594 98.81426239013672 134.59739685058594 C100.43262481689453 134.59739685058594 101.74473571777344 133.28529357910156 101.74473571777344 131.66693115234375 Z"></path>
<path fill="" fill-opacity="1.0"  filling="0" d="M71.87290954589844 138.2012939453125 C75.902587890625 138.2012939453125 79.68461608886719 136.51849365234375 82.24945068359375 133.58489990234375 C83.31468200683594 132.36614990234375 83.19046783447266 130.51498413085938 81.97172546386719 129.4497528076172 C80.75336456298828 128.384521484375 78.90219116210938 128.5083465576172 77.83656311035156 129.7270965576172 C76.3853988647461 131.38763427734375 74.21157836914062 132.33998107910156 71.87329864501953 132.33998107910156 C69.53501892089844 132.33998107910156 67.3612060546875 131.38723754882812 65.90963745117188 129.72671508789062 C64.84402465820312 128.5083465576172 62.99324035644531 128.38412475585938 61.77449417114258 129.44935607910156 C60.55574035644531 130.5146026611328 60.43152618408203 132.36575317382812 61.49714660644531 133.58450317382812 C64.06082153320312 136.51849365234375 67.84283447265625 138.2012939453125 71.87290954589844 138.2012939453125 Z"></path>
<path fill="" fill-opacity="1.0"  filling="0" d="M166.51687622070312 55.51356887817383 C167.0887451171875 56.0854377746582 167.83914184570312 56.37176513671875 168.58912658691406 56.37176513671875 C169.33914184570312 56.37176513671875 170.08912658691406 56.08583068847656 170.66140747070312 55.51356887817383 L182.4609832763672 43.71397399902344 C183.6055145263672 42.56945037841797 183.6055145263672 40.713985443115234 182.4609832763672 39.56985092163086 C181.31643676757812 38.42531967163086 179.4609832763672 38.42531967163086 178.3168487548828 39.56985092163086 L166.51727294921875 51.36943054199219 C165.37234497070312 52.51356887817383 165.37234497070312 54.368648529052734 166.51687622070312 55.51356887817383 Z"></path>
<path fill="" fill-opacity="1.0"  filling="0" d="M159.12156677246094 48.11787796020508 C159.69345092773438 48.69014358520508 160.44383239746094 48.976470947265625 161.19384765625 48.976470947265625 C161.94383239746094 48.976470947265625 162.69383239746094 48.69053649902344 163.26609802246094 48.11787796020508 L175.065673828125 36.31829071044922 C176.210205078125 35.17375946044922 176.210205078125 33.31829833984375 175.065673828125 32.174156188964844 C173.92115783691406 31.029632568359375 172.06568908691406 31.029632568359375 170.92153930664062 32.174156188964844 L159.12196350097656 43.9737434387207 C157.97743225097656 45.117881774902344 157.97743225097656 46.97373580932617 159.12156677246094 48.11787796020508 Z"></path></svg>