<svg xmlns="http://www.w3.org/2000/svg" viewBox="0.0 0.0 200.0 200.0" height="200.0px" width="200.0px"><path fill="#DFF3FF" fill-opacity="1.0"  filling="0" d="M196.09375 100.0 A96.09375 96.09375 0.0 1 1 3.90625 100.0 A96.09375 96.09375 0.0 1 1 196.09375 100.0 Z"></path>
<path fill="#BAEE83" fill-opacity="1.0"  filling="0" d="M40.476173400878906 152.0457000732422 L19.2109375 152.0457000732422 C27.073440551757812 164.22499084472656 37.613285064697266 174.51251220703125 50.0 182.07461547851562 L50.0 161.5695343017578 C50.0 156.3097686767578 45.735939025878906 152.0457000732422 40.476173400878906 152.0457000732422 Z"></path>
<path fill="#BAEE83" fill-opacity="1.0"  filling="0" d="M160.05508422851562 24.98828125 L127.4703140258789 24.98828125 C115.07733917236328 24.98828125 105.0308609008789 35.034767150878906 105.0308609008789 47.427345275878906 C105.0308609008789 52.03046798706055 101.29960632324219 55.76211166381836 96.69648742675781 55.76211166381836 C88.552734375 55.76211166381836 81.9507827758789 62.36405944824219 81.9507827758789 70.5078125 C81.9507827758789 80.4222640991211 89.9878921508789 88.4593734741211 99.90234375 88.4593734741211 L195.40155029296875 88.4593734741211 C192.33514404296875 62.845699310302734 179.1953125 40.33163833618164 160.05508422851562 24.98828125 Z"></path>
<path fill="#E2F8CC" fill-opacity="1.0"  filling="0" d="M8.285545349121094 71.2425765991211 L44.221092224121094 71.2425765991211 C50.33906173706055 71.2425765991211 55.299217224121094 66.2828140258789 55.299217224121094 60.16484451293945 L55.299217224121094 59.71015548706055 C55.299217224121094 53.592185974121094 60.25898361206055 48.63241958618164 66.376953125 48.63241958618164 C72.49492645263672 48.63241958618164 77.45468139648438 43.67265701293945 77.45468139648438 37.5546875 L77.45468139648438 35.131248474121094 C77.45468139648438 29.013282775878906 72.49492645263672 24.053512573242188 66.376953125 24.053512573242188 L41.12773513793945 24.053512573242188 C25.82733917236328 35.93086242675781 14.210548400878906 52.32695388793945 8.285545349121094 71.2425765991211 Z"></path>
<path fill="#E2F8CC" fill-opacity="1.0"  filling="0" d="M108.63320922851562 88.458984375 L64.49726867675781 88.458984375 C53.6796875 88.458984375 44.90976333618164 97.228515625 44.90976333618164 108.0464859008789 L44.90976333618164 114.33671569824219 C44.90976333618164 124.2593765258789 52.95390319824219 132.3035125732422 62.876564025878906 132.3035125732422 L62.876564025878906 132.3035125732422 C70.48828125 132.3035125732422 76.65898132324219 138.47421264648438 76.65898132324219 146.0859375 L76.65898132324219 170.75350952148438 C76.65898132324219 179.60702514648438 87.5687484741211 183.806640625 93.50546264648438 177.23828125 L93.50546264648438 177.23828125 C95.84765625 174.64688110351562 99.17695617675781 173.16836547851562 102.669921875 173.16836547851562 L102.669921875 173.16836547851562 C109.49217987060547 173.16836547851562 115.02305603027344 167.6378936767578 115.02305603027344 160.81524658203125 L115.02305603027344 142.94960021972656 C115.02305603027344 138.20077514648438 118.87265014648438 134.35076904296875 123.62187194824219 134.35076904296875 L127.59062194824219 134.35076904296875 C132.33944702148438 134.35076904296875 136.189453125 130.5011749267578 136.189453125 125.751953125 L136.189453125 116.01483917236328 C136.189453125 111.2660140991211 132.33984375 107.41600799560547 127.59062194824219 107.41600799560547 L127.59062194824219 107.41600799560547 C122.841796875 107.41600799560547 118.99179077148438 103.56640625 118.99179077148438 98.81718444824219 L118.99179077148438 98.81718444824219 C118.99179077148438 93.09687805175781 114.3539047241211 88.458984375 108.63320922851562 88.458984375 Z"></path>
<path fill="#FFFFFF" fill-opacity="1.0"  filling="0" d="M196.09375 142.25 A53.84375 53.84375 0.0 1 1 88.40625 142.25 A53.84375 53.84375 0.0 1 1 196.09375 142.25 Z"></path>
<path fill="#A5DDFF" fill-opacity="1.0"  filling="0" d="M186.29412841796875 173.22695922851562 C192.466796875 164.46640014648438 196.09375 153.78280639648438 196.09375 142.25155639648438 C196.09375 112.5152359008789 171.98788452148438 88.40937805175781 142.25155639648438 88.40937805175781 C112.5152359008789 88.40937805175781 88.40937805175781 112.515625 88.40937805175781 142.25155639648438 C88.40937805175781 171.98748779296875 112.5152359008789 196.09375 142.25155639648438 196.09375 C154.220703125 196.09375 165.27578735351562 192.18594360351562 174.21563720703125 185.580078125 L196.09375 196.09375 L186.29412841796875 173.22695922851562 Z"></path>
<path fill="" fill-opacity="1.0"  filling="0" d="M100.0 192.1875 L99.87773132324219 192.1875 C97.720703125 192.1875 95.97148132324219 193.93670654296875 95.97148132324219 196.09375 C95.97148132324219 198.25079345703125 97.720703125 200.0 99.87773132324219 200.0 L100.0 200.0 C102.15703582763672 200.0 103.90625 198.25079345703125 103.90625 196.09375 C103.90625 193.93670654296875 102.15703582763672 192.1875 100.0 192.1875 Z"></path>
<path fill="" fill-opacity="1.0"  filling="0" d="M171.31134033203125 92.365234375 L191.86874389648438 92.365234375 C192.07656860351562 94.88359069824219 192.1875 97.42890930175781 192.1875 100.0 C192.1875 102.15703582763672 193.93670654296875 103.90625 196.09375 103.90625 C198.25079345703125 103.90625 200.0 102.15703582763672 200.0 100.0 C200.0 73.2890625 189.59805297851562 48.17695617675781 170.7109375 29.289451599121094 C151.8230438232422 10.401954650878906 126.7109375 0.0 100.0 0.0 C73.2890625 0.0 48.17695617675781 10.401954650878906 29.28907012939453 29.289451599121094 C10.401954650878906 48.17695617675781 0.0 73.2890625 0.0 100.0 C0.0 119.20976257324219 5.544532775878906 137.94296264648438 15.803512573242188 153.95623779296875 C15.875 154.0828094482422 15.953903198242188 154.2042999267578 16.038284301757812 154.32147216796875 C18.396087646484375 157.96641540527344 20.99726104736328 161.4699249267578 23.835548400878906 164.802734375 C39.03202819824219 182.64688110351562 60.05546951293945 194.63751220703125 83.03202819824219 198.56600952148438 C83.25508117675781 198.60391235351562 83.4765625 198.62265014648438 83.6949234008789 198.62265014648438 C85.56328582763672 198.62225341796875 87.2152328491211 197.27774047851562 87.541015625 195.37420654296875 C87.9046859741211 193.24765014648438 86.47500610351562 191.22891235351562 84.34883117675781 190.865234375 C73.3511734008789 188.9851531982422 63.10273361206055 185.21914672851562 53.90585708618164 179.93399047851562 L53.90585708618164 161.56991577148438 C53.90585708618164 154.16445922851562 47.880859375 148.1398468017578 40.47539138793945 148.1398468017578 L21.28125 148.1398468017578 C12.697265625 134.06951904296875 7.8125 117.55508422851562 7.8125 100.0 C7.8125 91.392578125 9.001953125 83.0582046508789 11.21875 75.1488265991211 L44.22148513793945 75.1488265991211 C52.48359298706055 75.1488265991211 59.205467224121094 68.42695617675781 59.205467224121094 60.16484451293945 L59.205467224121094 59.71015548706055 C59.205467224121094 55.75546646118164 62.42265701293945 52.53866958618164 66.376953125 52.53866958618164 C74.63906860351562 52.53866958618164 81.36093139648438 45.816795349121094 81.36093139648438 37.5546875 L81.36093139648438 35.131248474121094 C81.36093139648438 26.869140625 74.63906860351562 20.147262573242188 66.376953125 20.147262573242188 L53.974998474121094 20.147262573242188 C67.52774047851562 12.305465698242188 83.2484359741211 7.8125 100.0 7.8125 C117.40625 7.8125 133.7003936767578 12.663284301757812 147.6042938232422 21.081634521484375 L127.470703125 21.081634521484375 C112.94413757324219 21.081634521484375 101.12539672851562 32.900390625 101.12539672851562 47.427345275878906 C101.12539672851562 49.869144439697266 99.138671875 51.85546875 96.6968765258789 51.85546875 C86.412109375 51.85546875 78.044921875 60.22265625 78.044921875 70.50741577148438 C78.044921875 82.55976867675781 87.85038757324219 92.365234375 99.90274047851562 92.365234375 L113.19218444824219 92.365234375 C96.0472640991211 102.3910140991211 84.50350952148438 120.9976577758789 84.50350952148438 142.25155639648438 C84.50350952148438 153.68710327148438 87.84491729736328 164.35662841796875 93.60234069824219 173.3359375 C92.5042953491211 173.3093719482422 91.4019546508789 173.73983764648438 90.6078109741211 174.619140625 C88.1449203491211 177.34414672851562 85.1265640258789 176.46640014648438 84.2601547241211 176.1339874267578 C83.39335632324219 175.80038452148438 80.56600952148438 174.42657470703125 80.56600952148438 170.75350952148438 L80.56600952148438 146.08631896972656 C80.56600952148438 136.33241271972656 72.630859375 128.3976593017578 62.876953125 128.3976593017578 C55.12382888793945 128.3976593017578 48.81679916381836 122.0902328491211 48.81679916381836 114.33711242675781 L48.81679916381836 108.0464859008789 C48.81679916381836 99.4000015258789 55.8515625 92.365234375 64.498046875 92.365234375 L71.09375 92.365234375 C73.25077819824219 92.365234375 75.0 90.61640930175781 75.0 88.458984375 C75.0 86.30156707763672 73.25077819824219 84.552734375 71.09375 84.552734375 L64.49726867675781 84.552734375 C51.54296875 84.552734375 41.00351333618164 95.091796875 41.00351333618164 108.0464859008789 L41.00351333618164 114.33711242675781 C41.00351333618164 126.3980484008789 50.81562423706055 136.2101593017578 62.87617111206055 136.2101593017578 C68.3218765258789 136.2101593017578 72.75273132324219 140.640625 72.75273132324219 146.08631896972656 L72.75273132324219 170.75350952148438 C72.75273132324219 176.41680908203125 76.1675796508789 181.390625 81.4527359008789 183.42498779296875 C83.06327819824219 184.044921875 84.72734069824219 184.345703125 86.37109375 184.345703125 C90.1214828491211 184.34530639648438 93.7632827758789 182.7781219482422 96.40312957763672 179.857421875 C96.8003921508789 179.41796875 97.0746078491211 178.912109375 97.2367172241211 178.380859375 C107.8304672241211 191.55313110351562 124.07186889648438 200.0 142.25155639648438 200.0 C153.89881896972656 200.0 165.0300750732422 196.583984375 174.595703125 190.09649658203125 L194.40194702148438 199.6144561767578 C194.94140625 199.87344360351562 195.51913452148438 199.99960327148438 196.09259033203125 199.99960327148438 C197.07891845703125 199.99960327148438 198.05233764648438 199.62655639648438 198.7957000732422 198.91445922851562 C199.9714813232422 197.7882843017578 200.3253936767578 196.05117797851562 199.68399047851562 194.5546875 L190.72421264648438 173.64804077148438 C196.80038452148438 164.29452514648438 200.0 153.4871063232422 200.0 142.25155639648438 C200.0 120.9976577758789 188.4562530517578 102.39141082763672 171.31134033203125 92.365234375 Z M40.47578048706055 155.9519500732422 C43.57344055175781 155.9519500732422 46.09375 158.47186279296875 46.09375 161.5695343017578 L46.09375 174.89608764648438 C38.677345275878906 169.56600952148438 32.12030792236328 163.17343139648438 26.621482849121094 155.9519500732422 L40.47578048706055 155.9519500732422 Z M66.3773422241211 27.959373474121094 C70.33163452148438 27.959373474121094 73.548828125 31.176559448242188 73.548828125 35.130859375 L73.548828125 37.554298400878906 C73.548828125 41.50898361206055 70.33163452148438 44.72578048706055 66.3773422241211 44.72578048706055 C58.115230560302734 44.72578048706055 51.39336013793945 51.447654724121094 51.39336013793945 59.70976257324219 L51.39336013793945 60.164451599121094 C51.39336013793945 64.119140625 48.176170349121094 67.3359375 44.22187805175781 67.3359375 L13.796089172363281 67.3359375 C19.71796417236328 51.759765625 29.743751525878906 38.191795349121094 42.548828125 27.958984375 L66.3773422241211 27.958984375 L66.3773422241211 27.959373474121094 Z M99.90234375 84.552734375 C92.1578140258789 84.552734375 85.8570327758789 78.25234985351562 85.8570327758789 70.50741577148438 C85.8570327758789 64.53047180175781 90.71953582763672 59.66796875 96.69648742675781 59.66796875 C103.44609069824219 59.66796875 108.9375 54.17656326293945 108.9375 47.427345275878906 C108.9375 37.20819854736328 117.25116729736328 28.894134521484375 127.4703140258789 28.894134521484375 L158.61093139648438 28.894134521484375 C169.4386749267578 37.83515548706055 178.197265625 49.19647979736328 184.05078125 62.14179229736328 L159.91290283203125 62.14179229736328 C157.755859375 62.14179229736328 156.00665283203125 63.890625 156.00665283203125 66.04804229736328 C156.00665283203125 68.2054672241211 157.755859375 69.95429229736328 159.91290283203125 69.95429229736328 L187.1554718017578 69.95429229736328 C188.78240966796875 74.6605453491211 190.0363311767578 79.5386734008789 190.8859405517578 84.552734375 L99.90234375 84.552734375 L99.90234375 84.552734375 Z M182.7039031982422 174.765625 L188.40274047851562 188.06365966796875 L175.90780639648438 182.05899047851562 C174.603515625 181.43243408203125 173.05859375 181.578125 171.89492797851562 182.4382781982422 C163.2628936767578 188.81640625 153.0124969482422 192.1875 142.25155639648438 192.1875 C114.71678924560547 192.1875 92.31562805175781 169.7863311767578 92.31562805175781 142.25155639648438 C92.31562805175781 115.44023895263672 113.55586242675781 93.5 140.0925750732422 92.365234375 L144.41055297851562 92.365234375 C170.947265625 93.5 192.1875 115.44023895263672 192.1875 142.25155639648438 C192.1875 152.60704040527344 189.04531860351562 162.5398406982422 183.1007843017578 170.97695922851562 C182.31993103027344 172.08554077148438 182.16952514648438 173.51953125 182.7039031982422 174.765625 Z"></path>
<path fill="" fill-opacity="1.0"  filling="0" d="M146.046875 68.80859375 C146.7734375 68.08203125 147.19140625 67.078125 147.19140625 66.046875 C147.19140625 65.01953125 146.77383422851562 64.01171875 146.046875 63.285152435302734 C145.31993103027344 62.558589935302734 144.3125 62.140625 143.28515625 62.140625 C142.25390625 62.140625 141.25 62.558589935302734 140.52383422851562 63.285152435302734 C139.79336547851562 64.01171875 139.37890625 65.01953125 139.37890625 66.046875 C139.37890625 67.078125 139.79336547851562 68.08203125 140.52383422851562 68.80859375 C141.25 69.5390625 142.25428771972656 69.953125 143.28515625 69.953125 C144.31210327148438 69.953125 145.3203125 69.5390625 146.046875 68.80859375 Z"></path>
<path fill="" fill-opacity="1.0"  filling="0" d="M128.0597686767578 128.97030639648438 C128.0597686767578 126.81327819824219 126.310546875 125.0640640258789 124.15351867675781 125.0640640258789 L111.318359375 125.0640640258789 C109.16133117675781 125.0640640258789 107.412109375 126.81327819824219 107.412109375 128.97030639648438 C107.412109375 131.12734985351562 109.16133117675781 132.87655639648438 111.318359375 132.87655639648438 L113.830078125 132.87655639648438 L113.830078125 148.04531860351562 C113.830078125 149.43006896972656 112.703125 150.55703735351562 111.318359375 150.55703735351562 C109.93359375 150.55703735351562 108.80664825439453 149.43006896972656 108.80664825439453 148.04531860351562 C108.80664825439453 145.88827514648438 107.05741882324219 144.13906860351562 104.90039825439453 144.13906860351562 C102.74336242675781 144.13906860351562 100.99414825439453 145.88827514648438 100.99414825439453 148.04531860351562 C100.99414825439453 153.73788452148438 105.6253890991211 158.36953735351562 111.318359375 158.36953735351562 C117.01133728027344 158.36953735351562 121.642578125 153.73828125 121.642578125 148.04531860351562 L121.642578125 132.87655639648438 L124.15391540527344 132.87655639648438 C126.310546875 132.87655639648438 128.0597686767578 131.12774658203125 128.0597686767578 128.97030639648438 Z"></path>
<path fill="" fill-opacity="1.0"  filling="0" d="M142.85000610351562 125.0640640258789 C133.66757202148438 125.0640640258789 126.197265625 132.5343780517578 126.197265625 141.716796875 C126.197265625 150.8992156982422 133.66757202148438 158.36953735351562 142.85000610351562 158.36953735351562 C152.0324249267578 158.36953735351562 159.5027313232422 150.8992156982422 159.5027313232422 141.716796875 C159.5027313232422 132.5343780517578 152.0324249267578 125.0640640258789 142.85000610351562 125.0640640258789 Z M142.85000610351562 150.55703735351562 C137.97540283203125 150.55703735351562 134.009765625 146.59140014648438 134.009765625 141.716796875 C134.009765625 136.84219360351562 137.97540283203125 132.87655639648438 142.85000610351562 132.87655639648438 C147.724609375 132.87655639648438 151.6902313232422 136.84219360351562 151.6902313232422 141.716796875 C151.6902313232422 146.59140014648438 147.724609375 150.55703735351562 142.85000610351562 150.55703735351562 Z"></path>
<path fill="" fill-opacity="1.0"  filling="0" d="M181.14805603027344 142.25155639648438 C182.62265014648438 140.43711853027344 183.50897216796875 138.1257781982422 183.50897216796875 135.61093139648438 C183.50897216796875 129.79531860351562 178.77774047851562 125.0640640258789 172.96209716796875 125.0640640258789 L166.767578125 125.0640640258789 C164.6105499267578 125.0640640258789 162.861328125 126.81327819824219 162.861328125 128.97030639648438 L162.861328125 142.25155639648438 L162.861328125 155.53280639648438 C162.861328125 157.68984985351562 164.6105499267578 159.43905639648438 166.767578125 159.43905639648438 L172.96209716796875 159.43905639648438 C178.77774047851562 159.43905639648438 183.50897216796875 154.7078094482422 183.50897216796875 148.89218139648438 C183.50897216796875 146.37734985351562 182.623046875 144.06600952148438 181.14805603027344 142.25155639648438 Z M170.673828125 132.87655639648438 L172.96209716796875 132.87655639648438 C174.4695281982422 132.87655639648438 175.69647216796875 134.103515625 175.69647216796875 135.61093139648438 C175.69647216796875 137.1183624267578 174.4695281982422 138.34530639648438 172.96209716796875 138.34530639648438 L170.673828125 138.34530639648438 L170.673828125 132.87655639648438 Z M172.96209716796875 151.62655639648438 L170.673828125 151.62655639648438 L170.673828125 146.15780639648438 L172.96209716796875 146.15780639648438 C174.4695281982422 146.15780639648438 175.69647216796875 147.384765625 175.69647216796875 148.89218139648438 C175.69647216796875 150.3996124267578 174.4699249267578 151.62655639648438 172.96209716796875 151.62655639648438 Z"></path></svg>