<svg xmlns="http://www.w3.org/2000/svg" viewBox="0.0 0.0 200.0 200.0" height="200.0px" width="200.0px"><path fill="#A5EBCE" fill-opacity="1.0"  filling="0" d="M200.0 100.0 C200.0 155.228515625 155.228515625 200.0 100.0 200.0 C44.771480560302734 200.0 0.0 155.228515625 0.0 100.0 C0.0 44.771480560302734 44.771480560302734 0.0 100.0 0.0 C155.228515625 0.0 200.0 44.771480560302734 200.0 100.0 Z"></path>
<path fill="#D6A446" fill-opacity="1.0"  filling="0" d="M170.9777374267578 37.109375 C154.97500610351562 37.109375 141.95587158203125 50.12851333618164 141.95587158203125 66.13125610351562 L141.95587158203125 79.88359069824219 C137.20742797851562 77.9585952758789 132.03204345703125 76.3511734008789 126.52461242675781 75.11679077148438 C127.05741882324219 74.20391082763672 127.34375 73.24922180175781 127.34375 72.265625 C127.34375 66.76171875 118.48827362060547 62.14609146118164 106.55156707763672 60.88788986206055 C107.34648895263672 59.664451599121094 107.8125 58.20820236206055 107.8125 56.640625 C107.8125 52.32577896118164 104.3148422241211 48.828125 100.0 48.828125 C95.68515014648438 48.828125 92.1875 52.32577896118164 92.1875 56.640625 C92.1875 58.20820236206055 92.65351104736328 59.664451599121094 93.44843292236328 60.88788986206055 C81.51171875 62.14609146118164 72.65625 66.76171875 72.65625 72.265625 C72.65625 73.24922180175781 72.94258117675781 74.20391082763672 73.47538757324219 75.11679077148438 C62.32304382324219 77.6156234741211 52.53202819824219 81.64570617675781 44.89804458618164 86.74726867675781 L16.78203582763672 43.948829650878906 C16.059768676757812 42.849613189697266 14.832809448242188 42.1875 13.517189025878906 42.1875 L2.239837646484375 42.1875 C1.1531219482421875 42.1875 0.39804840087890625 43.269920349121094 0.7734375 44.289451599121094 L28.18866729736328 118.78202819824219 C28.264846801757812 118.98827362060547 28.37694549560547 119.16522979736328 28.513671875 119.31133270263672 C32.287109375 133.84532165527344 49.49257278442383 145.8957061767578 72.74140930175781 151.2742156982422 C73.5980453491211 156.19100952148438 81.5269546508789 160.2609405517578 92.18710327148438 161.62109375 L92.18710327148438 176.1066436767578 C82.029296875 176.970703125 74.35078430175781 179.47500610351562 72.908203125 182.544921875 C64.4312515258789 184.62265014648438 58.96406173706055 187.658203125 58.61328125 191.0574188232422 C71.22578430175781 196.79922485351562 85.2386703491211 200.0 100.0 200.0 C114.7613296508789 200.0 128.7742156982422 196.79922485351562 141.38632202148438 191.0574188232422 C141.03515625 187.658203125 135.568359375 184.62265014648438 127.0914077758789 182.544921875 C125.64883422851562 179.474609375 117.9703140258789 176.97030639648438 107.8125 176.1066436767578 L107.8125 161.62109375 C118.47343444824219 160.2609405517578 126.40274047851562 156.19061279296875 127.25859832763672 151.2734375 C143.27694702148438 147.56796264648438 156.4285125732422 140.697265625 164.2921905517578 132.0261688232422 C166.44024658203125 132.53475952148438 168.67694091796875 132.81210327148438 170.97811889648438 132.81210327148438 C186.98086547851562 132.8125 200.0 119.7933578491211 200.0 103.7906265258789 L200.0 66.13125610351562 C200.0 50.12851333618164 186.98086547851562 37.109375 170.9777374267578 37.109375 Z M188.28125 103.7906265258789 C188.28125 113.3316421508789 180.51913452148438 121.09375 170.9777374267578 121.09375 C170.96875 121.09375 170.95977783203125 121.09296417236328 170.95077514648438 121.09296417236328 C171.81016540527344 118.56367492675781 172.265625 115.95272827148438 172.265625 113.28125 C172.265625 102.7191390991211 165.2292938232422 93.09062194824219 153.67462158203125 85.8199234008789 L153.67462158203125 66.13125610351562 C153.67462158203125 56.59023666381836 161.4367218017578 48.828125 170.9777374267578 48.828125 L170.97811889648438 48.828125 C180.51913452148438 48.828125 188.28125 56.59023666381836 188.28125 66.13125610351562 L188.28125 103.7906265258789 Z"></path>
<path fill="#D587EB" fill-opacity="1.0"  filling="0" d="M140.6183624267578 17.294921875 C140.77694702148438 20.659767150878906 138.095703125 23.4375 134.765625 23.4375 L83.984375 23.4375 C80.654296875 23.4375 77.9730453491211 26.215232849121094 78.13163757324219 29.580078125 C78.28007507324219 32.73164367675781 80.99491882324219 35.15625 84.1500015258789 35.15625 L115.234375 35.15625 C118.564453125 35.15625 121.2457046508789 37.933982849121094 121.08711242675781 41.298831939697266 C120.93867492675781 44.45038986206055 118.22383117675781 46.875 115.0687484741211 46.875 L58.984375 46.875 C55.74843978881836 46.875 53.125 44.25156021118164 53.125 41.015625 L53.125 41.015625 C53.125 37.77968978881836 50.50156021118164 35.15625 47.265625 35.15625 L5.859375 35.15625 C2.529296875 35.15625 -0.15195465087890625 32.378517150878906 0.0066375732421875 29.013671875 C0.15508270263671875 25.862106323242188 2.8699188232421875 23.4375 6.025001525878906 23.4375 L25.390625 23.4375 C28.626564025878906 23.4375 31.25 20.814064025878906 31.25 17.578125 L31.25 17.578125 C31.25 14.342185974121094 33.873435974121094 11.71875 37.109375 11.71875 L47.265625 11.71875 C50.50156021118164 11.71875 53.125 9.095314025878906 53.125 5.859375 L53.125 5.859375 C53.125 2.6234359741210938 55.74843978881836 0.0 58.984375 0.0 L99.609375 0.0 C102.8453140258789 0.0 105.46875 2.6234359741210938 105.46875 5.859375 L105.46875 5.859375 C105.46875 9.095314025878906 108.0921859741211 11.71875 111.328125 11.71875 L134.59999084472656 11.71875 C137.7550811767578 11.71875 140.4699249267578 14.143356323242188 140.6183624267578 17.294921875 Z"></path>
<path fill="#C9993F" fill-opacity="1.0"  filling="0" d="M196.2890625 66.13125610351562 L196.2890625 103.7906265258789 C196.2890625 113.3316421508789 188.52694702148438 121.09375 178.9855499267578 121.09375 C177.60702514648438 121.09375 176.267578125 120.92695617675781 174.9816436767578 120.62109375 C182.59805297851562 118.8089828491211 188.28125 111.95352172851562 188.28125 103.7906265258789 L188.28125 66.13125610351562 C188.28125 57.968746185302734 182.59805297851562 51.112892150878906 174.98202514648438 49.300777435302734 C176.26797485351562 48.99492263793945 177.607421875 48.828125 178.98593139648438 48.828125 L178.986328125 48.828125 C188.52694702148438 48.828125 196.2890625 56.59023666381836 196.2890625 66.13125610351562 Z M141.95587158203125 66.13125610351562 L141.95587158203125 79.88359069824219 C144.78359985351562 81.03007507324219 147.45977783203125 82.2890625 149.96368408203125 83.64961242675781 L149.96368408203125 66.13125610351562 C149.96368408203125 51.48749923706055 160.8679656982422 39.349220275878906 174.9816436767578 37.392189025878906 C173.671875 37.210548400878906 172.33673095703125 37.109375 170.9777374267578 37.109375 C154.97500610351562 37.109375 141.95587158203125 50.12851333618164 141.95587158203125 66.13125610351562 Z M100.0 72.265625 C109.3648452758789 72.265625 118.31327819824219 73.2769546508789 126.52578735351562 75.1171875 C126.60704040527344 74.97578430175781 126.68476104736328 74.833984375 126.75390625 74.6910171508789 C116.39688110351562 70.17304992675781 103.82811737060547 67.25390625 90.1507797241211 66.56600952148438 C93.71992492675781 63.82500076293945 99.78007507324219 61.76132583618164 107.0210952758789 60.93867492675781 C104.78007507324219 60.68437576293945 100.44180297851562 60.55195236206055 100.66328430175781 60.55429458618164 C99.99531555175781 59.402732849121094 99.609375 58.06757736206055 99.609375 56.640625 C99.609375 53.66914367675781 101.26874542236328 51.085548400878906 103.7109375 49.76484680175781 C102.6070327758789 49.167579650878906 101.3433609008789 48.828125 100.0 48.828125 C95.68515014648438 48.828125 92.1875 52.32577896118164 92.1875 56.640625 C92.1875 58.20820236206055 92.65351104736328 59.664451599121094 93.44843292236328 60.88788986206055 C93.4496078491211 60.88788986206055 93.45077514648438 60.88788986206055 93.45195007324219 60.88749694824219 C81.513671875 62.14530944824219 72.65625 66.76132202148438 72.65625 72.265625 C72.65625 73.24922180175781 72.94258117675781 74.20391082763672 73.47538757324219 75.11679077148438 C81.6875 73.27656555175781 90.63554382324219 72.265625 100.0 72.265625 Z M80.94491577148438 143.07266235351562 C57.694923400878906 137.69375610351562 40.49062728881836 125.6429672241211 36.716796875 111.10858917236328 C36.580074310302734 110.96249389648438 36.46796798706055 110.7855453491211 36.39179611206055 110.57929992675781 L11.222267150878906 42.1875 L2.239837646484375 42.1875 C1.1531219482421875 42.1875 0.39804840087890625 43.269920349121094 0.7734375 44.28984451293945 L28.18866729736328 118.78202819824219 C28.264846801757812 118.98827362060547 28.37694549560547 119.16522979736328 28.513671875 119.31133270263672 C32.287109375 133.845703125 49.491798400878906 145.89688110351562 72.74179077148438 151.275390625 C73.5992202758789 156.19180297851562 81.52969360351562 160.2628936767578 92.1875 161.623046875 L92.1875 176.1062469482422 C82.02851867675781 176.97030639648438 74.349609375 179.47500610351562 72.908203125 182.54531860351562 C64.4312515258789 184.623046875 58.96484375 187.658203125 58.61406326293945 191.0574188232422 C63.875389099121094 193.45274353027344 69.37968444824219 195.40664672851562 75.0816421508789 196.869140625 C72.03789520263672 195.23828125 70.3125 193.37930297851562 70.3125 191.40625 C70.3125 189.58905029296875 71.78125 187.86953735351562 74.390625 186.3347625732422 C78.27656555175781 189.29727172851562 88.27461242675781 191.40625 100.0 191.40625 C101.59921264648438 191.40625 103.1636734008789 191.36483764648438 104.6875 191.28945922851562 C91.82070922851562 190.65390014648438 82.03125 187.45156860351562 82.03125 183.59375 C82.03125 179.73593139648438 91.82070922851562 176.53359985351562 104.6875 175.89804077148438 C103.6656265258789 175.84765625 102.61913299560547 175.81875610351562 101.5625 175.80117797851562 L101.5625 162.0886688232422 C114.626953125 161.7726593017578 125.22773742675781 157.5261688232422 127.05078125 152.06365966796875 L127.05078125 150.6726531982422 C122.14726257324219 152.67498779296875 115.51289367675781 153.90625 108.203125 153.90625 C93.7972640991211 153.90625 82.00155639648438 149.13046264648438 80.94491577148438 143.07266235351562 Z"></path>
<path fill="#EDC555" fill-opacity="1.0"  filling="0" d="M156.2453155517578 99.130859375 C160.05899047851562 102.94452667236328 161.2957000732422 107.8910140991211 159.00741577148438 110.17929077148438 C156.71913146972656 112.46757507324219 151.7726593017578 111.23086547851562 147.958984375 107.41719055175781 C144.1453094482422 103.603515625 142.90859985351562 98.65702819824219 145.19688415527344 96.3687515258789 C147.48516845703125 94.0804672241211 152.431640625 95.31718444824219 156.2453155517578 99.130859375 Z"></path>
<path fill="#723782" fill-opacity="1.0"  filling="0" d="M51.45586013793945 30.258201599121094 L53.964839935302734 34.845703125 C54.036720275878906 34.976951599121094 54.14413833618164 35.084381103515625 54.275394439697266 35.15625 L58.86288833618164 37.66523742675781 C59.40468978881836 37.96172332763672 59.40468978881836 38.73984909057617 58.86288833618164 39.03594207763672 L54.275394439697266 41.544925689697266 C54.14413833618164 41.616798400878906 54.036720275878906 41.72421646118164 53.964839935302734 41.855464935302734 L51.45586013793945 46.44296646118164 C51.15937423706055 46.98476791381836 50.381248474121094 46.98476791381836 50.08515548706055 46.44296646118164 L47.576171875 41.855464935302734 C47.504295349121094 41.72421646118164 47.396873474121094 41.616798400878906 47.265625 41.544925689697266 L42.678123474121094 39.03594207763672 C42.136329650878906 38.73945617675781 42.136329650878906 37.961326599121094 42.678123474121094 37.66523742675781 L47.265625 35.15625 C47.396873474121094 35.084381103515625 47.504295349121094 34.976951599121094 47.576171875 34.845703125 L50.08515548706055 30.258201599121094 C50.381248474121094 29.716407775878906 51.15976333618164 29.716407775878906 51.45586013793945 30.258201599121094 Z"></path>
<path fill="#AD61C8" fill-opacity="1.0"  filling="0" d="M114.24687194824219 11.717971801757812 L109.6597671508789 14.226951599121094 C109.52851867675781 14.298828125 109.42070770263672 14.40625 109.34921264648438 14.537498474121094 L106.84022521972656 19.124610900878906 C106.54375457763672 19.666412353515625 105.765625 19.666412353515625 105.46914672851562 19.124610900878906 L102.96015930175781 14.537498474121094 C102.88866424560547 14.40625 102.78085327148438 14.298439025878906 102.64960479736328 14.226951599121094 L98.0621109008789 11.717971801757812 C97.52030944824219 11.421485900878906 97.52030944824219 10.643356323242188 98.0621109008789 10.346878051757812 L102.64960479736328 7.837890625 C102.78047180175781 7.766014099121094 102.88866424560547 7.658592224121094 102.96015930175781 7.52734375 L105.46914672851562 2.9402313232421875 C105.765625 2.3984375 106.54375457763672 2.3984375 106.84022521972656 2.9402313232421875 L109.34921264648438 7.52734375 C109.42109680175781 7.658592224121094 109.52851867675781 7.766410827636719 109.6597671508789 7.837890625 L114.24687194824219 10.346878051757812 C114.78905487060547 10.643753051757812 114.78905487060547 11.421875 114.24687194824219 11.717971801757812 Z M59.55937576293945 10.347267150878906 L54.972267150878906 7.838279724121094 C54.84101867675781 7.766410827636719 54.73320388793945 7.6589813232421875 54.661720275878906 7.527732849121094 L52.15273666381836 2.9406280517578125 C51.85625076293945 2.398834228515625 51.078121185302734 2.398834228515625 50.78164291381836 2.9406280517578125 L48.27265930175781 7.527732849121094 C48.201168060302734 7.6589813232421875 48.093360900878906 7.766792297363281 47.96210479736328 7.838279724121094 L43.374610900878906 10.347267150878906 C42.83281707763672 10.643753051757812 42.83281707763672 11.421875 43.374610900878906 11.718353271484375 L47.96210479736328 14.227340698242188 C48.09296798706055 14.299217224121094 48.201168060302734 14.406639099121094 48.27265930175781 14.537887573242188 L50.78164291381836 19.125 C51.078121185302734 19.666793823242188 51.85625076293945 19.666793823242188 52.15273666381836 19.125 L54.661720275878906 14.537887573242188 C54.73359298706055 14.406639099121094 54.84101867675781 14.298828125 54.972267150878906 14.227340698242188 L59.55937576293945 11.718353271484375 C60.1015625 11.421875 60.1015625 10.643753051757812 59.55937576293945 10.347267150878906 Z"></path></svg>