<svg xmlns="http://www.w3.org/2000/svg" viewBox="0.0 0.0 200.0 200.0" height="200.0px" width="200.0px"><path fill="#cc66a1" fill-opacity="1.0"  filling="0" d="M158.03359985351562 145.48202514648438 C156.6847686767578 145.48202514648438 155.47030639648438 144.669921875 154.95468139648438 143.4250030517578 C154.4386749267578 142.1785125732422 154.72421264648438 140.74569702148438 155.67617797851562 139.7917938232422 L164.30975341796875 131.15858459472656 C165.6171875 129.89492797851562 167.697265625 129.9132843017578 168.98358154296875 131.19961547851562 C170.2683563232422 132.48593139648438 170.28671264648438 134.56405639648438 169.02304077148438 135.8718719482422 L160.38983154296875 144.50546264648438 C159.765625 145.130859375 158.9171905517578 145.48202514648438 158.03359985351562 145.48202514648438 Z"></path>
<path fill="#3d324c" fill-opacity="1.0"  filling="0" d="M153.333984375 156.849609375 C147.810546875 156.849609375 143.33358764648438 152.37109375 143.33358764648438 146.84921264648438 C143.33358764648438 141.3253936767578 147.810546875 136.8484344482422 153.333984375 136.8484344482422 C158.8562469482422 136.8484344482422 163.3332061767578 141.3253936767578 163.3332061767578 146.84921264648438 C163.3332061767578 152.37109375 158.8562469482422 156.849609375 153.333984375 156.849609375 Z"></path>
<path fill="#cc66a1" fill-opacity="1.0"  filling="0" d="M33.33280944824219 153.515625 C31.492576599121094 153.515625 30.000389099121094 152.0234375 30.000389099121094 150.181640625 L30.000389099121094 133.51602172851562 C30.000389099121094 131.67422485351562 31.492576599121094 130.18202209472656 33.33280944824219 130.18202209472656 C35.17460632324219 130.18202209472656 36.66679763793945 131.67422485351562 36.66679763793945 133.51602172851562 L36.66679763793945 150.181640625 C36.66679763793945 152.0234375 35.17460632324219 153.515625 33.33280944824219 153.515625 Z"></path>
<path fill="#cc66a1" fill-opacity="1.0"  filling="0" d="M33.33280944824219 136.8484344482422 L16.667190551757812 136.8484344482422 C14.825393676757812 136.8484344482422 13.333198547363281 135.3562469482422 13.333198547363281 133.51602172851562 C13.333198547363281 131.67422485351562 14.825393676757812 130.18202209472656 16.667190551757812 130.18202209472656 L31.953514099121094 130.18202209472656 L54.310546875 107.826171875 C55.61835861206055 106.5628890991211 57.69648742675781 106.58124542236328 58.98281478881836 107.86601257324219 C60.269142150878906 109.15234375 60.28593826293945 111.23046875 59.02421951293945 112.53984069824219 L35.69023895263672 135.8718719482422 C35.064842224121094 136.49765014648438 34.21796417236328 136.8484344482422 33.33280944824219 136.8484344482422 Z"></path>
<path fill="#cc66a1" fill-opacity="1.0"  filling="0" d="M176.66641235351562 145.54296875 C174.943359375 145.54608154296875 173.291015625 144.86093139648438 172.07656860351562 143.638671875 L140.9757843017578 112.53984069824219 C139.7140655517578 111.23046875 139.73086547851562 109.15234375 141.01718139648438 107.86601257324219 C142.3035125732422 106.58124542236328 144.3816375732422 106.5628890991211 145.689453125 107.826171875 L176.7898406982422 138.9250030517578 L182.94375610351562 132.52578735351562 C184.2453155517578 131.22109985351562 186.35702514648438 131.2195281982422 187.66171264648438 132.52108764648438 C188.96640014648438 133.82266235351562 188.96795654296875 135.9343719482422 187.66641235351562 137.2390594482422 L181.2667999267578 143.638671875 C180.04922485351562 144.8640594482422 178.39373779296875 145.548828125 176.66641235351562 145.54296875 Z"></path>
<path fill="#285680" fill-opacity="1.0"  filling="0" d="M35.02656555175781 49.22930145263672 C36.80741882324219 49.240230560302734 38.294921875 47.87460708618164 38.43672180175781 46.09843444824219 C39.86953353881836 22.30390167236328 59.495704650878906 3.6878890991210938 83.33280944824219 3.515625 C95.72148132324219 3.521881103515625 107.546875 8.69140625 115.966796875 17.779685974121094 C116.9585952758789 18.913284301757812 118.5835952758789 19.24883270263672 119.943359375 18.598831176757812 C125.4457015991211 15.780464172363281 131.69569396972656 14.766014099121094 137.806640625 15.702735900878906 C150.9460906982422 17.83124542236328 161.16952514648438 28.265235900878906 163.029296875 41.44609069824219 C163.5285186767578 44.99374771118164 163.41561889648438 48.60234069824219 162.69686889648438 52.111717224121094 C162.451171875 53.201171875 162.751953125 54.34257888793945 163.50546264648438 55.16679763793945 C164.2578125 55.990623474121094 165.3671875 56.39492416381836 166.4734344482422 56.24843978881836 C170.0988311767578 55.74960708618164 173.7882843017578 56.02265548706055 177.2996063232422 57.052730560302734 C190.12615966796875 60.87968826293945 198.24374389648438 73.486328125 196.421875 86.74609375 C194.6015625 100.00625610351562 183.3816375732422 109.95625305175781 169.99960327148438 110.18203735351562 L34.359764099121094 110.18203735351562 C18.179298400878906 110.27969360351562 4.667579650878906 97.8667984008789 3.396484375 81.73515319824219 C2.7816390991210938 73.38554382324219 5.650390625 65.15507507324219 11.321868896484375 58.99648666381836 C16.993751525878906 52.838279724121094 24.96172332763672 49.302734375 33.33280944824219 49.22930145263672 L35.02656555175781 49.22930145263672 Z"></path>
<path fill="#4482c3" fill-opacity="1.0"  filling="0" d="M169.99960327148438 110.18203735351562 L103.333984375 110.18203735351562 L103.333984375 8.316017150878906 C108.07344055175781 10.696479797363281 112.35039520263672 13.90234375 115.966796875 17.78241729736328 C116.96015930175781 18.90546417236328 118.57148742675781 19.244529724121094 119.93399047851562 18.615631103515625 C125.43476867675781 15.791404724121094 131.68789672851562 14.776565551757812 137.80078125 15.71484375 C150.93984985351562 17.839065551757812 161.16796875 28.269920349121094 163.0339813232422 41.448829650878906 C163.52694702148438 44.998050689697266 163.4140625 48.605464935302734 162.6999969482422 52.114845275878906 C162.4542999267578 53.20273208618164 162.75469970703125 54.34101867675781 163.50546264648438 55.16523742675781 C164.25625610351562 55.98750305175781 165.36093139648438 56.39336013793945 166.46719360351562 56.24843978881836 C170.09414672851562 55.76171875 173.7839813232422 56.034767150878906 177.2996063232422 57.04960632324219 C190.12149047851562 60.87968826293945 198.23593139648438 73.486328125 196.4140625 86.74296569824219 C194.59375 100.0 183.3800811767578 109.95038604736328 169.99960327148438 110.18203735351562 Z"></path>
<path fill="#bdc3c7" fill-opacity="1.0"  filling="0" d="M80.0003890991211 60.182029724121094 L119.9996109008789 60.182029724121094 C121.8414077758789 60.182029724121094 123.3335952758789 61.67460632324219 123.3335952758789 63.51640701293945 L123.3335952758789 93.51483917236328 L76.66641235351562 93.51483917236328 L76.66641235351562 63.51640701293945 C76.66641235351562 61.67460632324219 78.1585922241211 60.182029724121094 80.0003890991211 60.182029724121094 Z"></path>
<path fill="#95a5a5" fill-opacity="1.0"  filling="0" d="M93.3335952758789 83.5160140991211 C91.49179077148438 83.5160140991211 89.99921417236328 82.0234375 89.99921417236328 80.18203735351562 L89.99921417236328 73.5152359008789 C89.99921417236328 71.67500305175781 91.49179077148438 70.18281555175781 93.3335952758789 70.18281555175781 C95.173828125 70.18281555175781 96.666015625 71.67500305175781 96.666015625 73.5152359008789 L96.666015625 80.18203735351562 C96.666015625 82.0234375 95.173828125 83.5160140991211 93.3335952758789 83.5160140991211 Z"></path>
<path fill="#95a5a5" fill-opacity="1.0"  filling="0" d="M106.66641235351562 83.5160140991211 C104.82617950439453 83.5160140991211 103.333984375 82.0234375 103.333984375 80.18203735351562 L103.333984375 73.5152359008789 C103.333984375 71.67500305175781 104.82617950439453 70.18281555175781 106.66641235351562 70.18281555175781 C108.50820922851562 70.18281555175781 110.00077819824219 71.67500305175781 110.00077819824219 73.5152359008789 L110.00077819824219 80.18203735351562 C110.00077819824219 82.0234375 108.50820922851562 83.5160140991211 106.66641235351562 83.5160140991211 Z"></path>
<path fill="#cc4b4c" fill-opacity="1.0"  filling="0" d="M73.33358764648438 93.51483917236328 L126.6664047241211 93.51483917236328 C128.5078125 93.51483917236328 130.00039672851562 95.00741577148438 130.00039672851562 96.8492202758789 L130.00039672851562 160.18203735351562 L69.9996109008789 160.18203735351562 L69.9996109008789 96.8492202758789 C69.9996109008789 95.00741577148438 71.4921875 93.51483917236328 73.33358764648438 93.51483917236328 Z"></path>
<path fill="#802f34" fill-opacity="1.0"  filling="0" d="M73.33358764648438 156.849609375 L126.6664047241211 156.849609375 C130.34805297851562 156.849609375 133.3328094482422 159.83438110351562 133.3328094482422 163.5164031982422 C133.3328094482422 181.9246063232422 118.4097671508789 196.84921264648438 100.0 196.84921264648438 C81.5902328491211 196.84921264648438 66.66719055175781 181.9246063232422 66.66719055175781 163.5164031982422 C66.66719055175781 159.83438110351562 69.6519546508789 156.849609375 73.33358764648438 156.849609375 Z"></path>
<path fill="#802f34" fill-opacity="1.0"  filling="0" d="M116.66719055175781 146.84921264648438 C114.82539367675781 146.84921264648438 113.33319854736328 145.3566436767578 113.33319854736328 143.5148468017578 L113.33319854736328 106.849609375 C113.33319854736328 105.0078125 114.82539367675781 103.515625 116.66719055175781 103.515625 C118.5074234008789 103.515625 119.9996109008789 105.0078125 119.9996109008789 106.849609375 L119.9996109008789 143.5148468017578 C119.9996109008789 145.3566436767578 118.5074234008789 146.84921264648438 116.66719055175781 146.84921264648438 Z"></path>
<path fill="#802f34" fill-opacity="1.0"  filling="0" d="M83.33280944824219 146.84921264648438 C81.4925765991211 146.84921264648438 80.0003890991211 145.3566436767578 80.0003890991211 143.5148468017578 L80.0003890991211 106.849609375 C80.0003890991211 105.0078125 81.4925765991211 103.515625 83.33280944824219 103.515625 C85.17460632324219 103.515625 86.66680145263672 105.0078125 86.66680145263672 106.849609375 L86.66680145263672 143.5148468017578 C86.66680145263672 145.3566436767578 85.17460632324219 146.84921264648438 83.33280944824219 146.84921264648438 Z"></path>
<path fill="#2c2f38" fill-opacity="1.0"  filling="0" d="M106.66641235351562 176.84921264648438 C106.66641235351562 180.53125 103.6820297241211 183.51602172851562 100.0 183.51602172851562 C96.3179702758789 183.51602172851562 93.3335952758789 180.53125 93.3335952758789 176.84921264648438 C93.3335952758789 173.16757202148438 96.3179702758789 170.1828155517578 100.0 170.1828155517578 C103.6820297241211 170.1828155517578 106.66641235351562 173.16757202148438 106.66641235351562 176.84921264648438 Z"></path>
<path fill="#3d324c" fill-opacity="1.0"  filling="0" d="M189.9992218017578 140.1824188232422 C184.4773406982422 140.1824188232422 180.00039672851562 135.70547485351562 180.00039672851562 130.18202209472656 C180.00039672851562 124.6597671508789 184.4773406982422 120.18281555175781 189.9992218017578 120.18281555175781 C195.52304077148438 120.18281555175781 200.0 124.6597671508789 200.0 130.18202209472656 C200.0 135.70547485351562 195.52304077148438 140.1824188232422 189.9992218017578 140.1824188232422 Z"></path>
<path fill="#3d324c" fill-opacity="1.0"  filling="0" d="M10.000785827636719 143.5148468017578 C4.476951599121094 143.5148468017578 0.0 139.03826904296875 0.0 133.51602172851562 C0.0 127.9921875 4.476951599121094 123.5152359008789 10.000785827636719 123.5152359008789 C15.522659301757812 123.5152359008789 19.999610900878906 127.9921875 19.999610900878906 133.51602172851562 C19.999610900878906 139.03826904296875 15.522659301757812 143.5148468017578 10.000785827636719 143.5148468017578 Z"></path>
<path fill="#3d324c" fill-opacity="1.0"  filling="0" d="M33.33280944824219 166.84881591796875 C29.28907012939453 166.84881591796875 25.64257049560547 164.412109375 24.095306396484375 160.6750030517578 C22.546478271484375 156.93984985351562 23.40234375 152.63827514648438 26.26172637939453 149.77734375 C29.123046875 146.91757202148438 33.42265319824219 146.0617218017578 37.15976333618164 147.6105499267578 C40.896488189697266 149.15780639648438 43.33359146118164 152.8046875 43.33359146118164 156.849609375 C43.33359146118164 162.3718719482422 38.85663604736328 166.84881591796875 33.33280944824219 166.84881591796875 Z"></path></svg>