<svg xmlns="http://www.w3.org/2000/svg" viewBox="0.0 0.0 200.0 200.0" height="200.0px" width="200.0px"><path fill="#ecf2f3" fill-opacity="1.0"  filling="0" d="M89.206787109375 29.151397705078125 L72.05065155029297 29.151397705078125 L72.05065155029297 8.561012268066406 C72.05065155029297 5.980186462402344 74.16600036621094 3.8756866455078125 76.73558807373047 3.8756866455078125 L84.5218505859375 3.8756866455078125 C87.10228729248047 3.8756866455078125 89.206787109375 5.980186462402344 89.206787109375 8.561012268066406 L89.206787109375 29.151397705078125 Z"></path>
<path fill="#ecf2f3" fill-opacity="1.0"  filling="0" d="M127.94974517822266 29.151397705078125 L110.79360961914062 29.151397705078125 L110.79360961914062 8.561012268066406 C110.79360961914062 5.980186462402344 112.89772033691406 3.8756866455078125 115.47854614257812 3.8756866455078125 L123.26480102539062 3.8756866455078125 C125.84524536132812 3.8756866455078125 127.94974517822266 5.980186462402344 127.94974517822266 8.561012268066406 L127.94974517822266 29.151397705078125 Z"></path>
<path fill="#ffda8f" fill-opacity="1.0"  filling="0" d="M65.78132629394531 49.254608154296875 L65.78132629394531 35.420326232910156 C65.78132629394531 31.964759826660156 68.60554504394531 29.151397705078125 72.05026245117188 29.151397705078125 L89.206787109375 29.151397705078125 L110.79360961914062 29.151397705078125 L127.95013427734375 29.151397705078125 C131.3948516845703 29.151397705078125 134.21905517578125 31.964759826660156 134.21905517578125 35.420326232910156 L134.21905517578125 49.254608154296875 L65.78132629394531 49.254608154296875 Z"></path>
<path fill="#ffe6b4" fill-opacity="1.0"  filling="0" d="M82.0627212524414 106.7508773803711 L53.44306945800781 106.7508773803711 L53.44306945800781 76.26934051513672 C53.44306945800781 74.12957000732422 53.36284255981445 73.29048156738281 53.74265670776367 72.84051513671875 C54.13603973388672 72.37543487548828 55.021636962890625 72.32582092285156 56.99823760986328 71.68400573730469 C62.03779983520508 70.05583190917969 65.78132629394531 65.42593383789062 65.78132629394531 59.86585998535156 L65.78132629394531 49.25499725341797 L134.2186737060547 49.25499725341797 L134.2186737060547 59.86585998535156 C134.2186737060547 65.42593383789062 137.9622039794922 70.05583190917969 143.00177001953125 71.68400573730469 C144.9803009033203 72.32621002197266 145.86862182617188 72.37504577636719 146.26393127441406 72.84168243408203 C146.64569091796875 73.29203033447266 146.56817626953125 74.13150787353516 146.56817626953125 76.26934051513672 L146.56817626953125 106.7508773803711 L82.0627212524414 106.7508773803711 Z M85.4961929321289 76.14725494384766 C85.4961929321289 84.12226104736328 92.01976013183594 90.65706634521484 100.005615234375 90.65706634521484 C107.9802474975586 90.65706634521484 114.50381469726562 84.12226104736328 114.50381469726562 76.14725494384766 L114.50381469726562 69.25782775878906 L85.4961929321289 69.25782775878906 L85.4961929321289 76.14725494384766 Z"></path>
<path fill="#ecf2f3" fill-opacity="1.0"  filling="0" d="M100.005615234375 90.65706634521484 C92.01976013183594 90.65706634521484 85.4961929321289 84.12226104736328 85.4961929321289 76.14725494384766 L85.4961929321289 69.25782775878906 L114.50381469726562 69.25782775878906 L114.50381469726562 76.14725494384766 C114.50381469726562 84.12226104736328 107.9802474975586 90.65706634521484 100.005615234375 90.65706634521484 Z"></path>
<path fill="#ffe6b4" fill-opacity="1.0"  filling="0" d="M81.04380798339844 176.35324096679688 L47.20708465576172 171.64584350585938 L50.707218170166016 135.23876953125 C51.21648025512695 135.26083374023438 51.73698806762695 135.28292846679688 52.268733978271484 135.28292846679688 C68.29548645019531 135.28292846679688 81.38719177246094 122.62300109863281 82.0627212524414 106.7508773803711 L117.9372787475586 106.7508773803711 C118.62405395507812 122.62300109863281 131.70489501953125 135.28292846679688 147.7425079345703 135.28292846679688 C148.2630157470703 135.28292846679688 148.7835235595703 135.26083374023438 149.3040313720703 135.23876953125 L152.7929229736328 171.64584350585938 L118.95619201660156 176.35324096679688 L100.005615234375 131.1735382080078 L81.04380798339844 176.35324096679688 Z"></path>
<path fill="#ecf2f3" fill-opacity="1.0"  filling="0" d="M52.268733978271484 135.28292846679688 C51.73698806762695 135.28292846679688 51.21648025512695 135.26083374023438 50.706825256347656 135.23876953125 L53.44268035888672 106.7508773803711 L82.0627212524414 106.7508773803711 C81.38719177246094 122.62300109863281 68.29548645019531 135.28292846679688 52.268733978271484 135.28292846679688 Z"></path>
<path fill="#ecf2f3" fill-opacity="1.0"  filling="0" d="M117.9372787475586 106.7508773803711 L146.56817626953125 106.7508773803711 L149.3040313720703 135.23876953125 C148.7835235595703 135.26083374023438 148.2630157470703 135.28292846679688 147.7425079345703 135.28292846679688 C131.7045135498047 135.28292846679688 118.62405395507812 122.62300109863281 117.9372787475586 106.7508773803711 Z"></path>
<path fill="#ffda8f" fill-opacity="1.0"  filling="0" d="M127.25212097167969 196.12393188476562 L118.95619201660156 176.35324096679688 L152.7929229736328 171.64584350585938 L154.7753448486328 192.29165649414062 L127.25212097167969 196.12393188476562 Z"></path>
<path fill="#ffda8f" fill-opacity="1.0"  filling="0" d="M45.224273681640625 192.29165649414062 L47.20708465576172 171.64584350585938 L81.04380798339844 176.35324096679688 L72.74788665771484 196.12393188476562 L45.224273681640625 192.29165649414062 Z"></path>
<path fill="" fill-opacity="1.0"  filling="0" d="M158.63320922851562 191.9215087890625 L150.44387817382812 106.56600189208984 L150.44387817382812 76.26934051513672 C150.44387817382812 74.17375183105469 150.6376495361328 71.94135284423828 149.152099609375 70.25154876708984 C147.8785400390625 68.80281829833984 145.93023681640625 68.559814453125 144.1931610107422 67.99589538574219 C140.54534912109375 66.81730651855469 138.0943603515625 63.55009078979492 138.0943603515625 59.865478515625 L138.0943603515625 35.420326232910156 C138.0943603515625 31.19853973388672 135.50152587890625 27.57244110107422 131.825439453125 26.04657745361328 L131.825439453125 8.560623168945312 C131.82582092285156 3.8404159545898438 127.98501586914062 0.0 123.26480102539062 0.0 L115.47854614257812 0.0 C110.75794982910156 0.0 106.91753387451172 3.8404159545898438 106.91753387451172 8.560623168945312 L106.91753387451172 25.275314331054688 L93.08209228515625 25.275314331054688 L93.08209228515625 8.560623168945312 C93.08209228515625 3.8404159545898438 89.24205017089844 0.0 84.52145385742188 0.0 L76.73519897460938 0.0 C72.01460266113281 0.0 68.17456817626953 3.8404159545898438 68.17456817626953 8.560623168945312 L68.17456817626953 26.04657745361328 C64.49847412109375 27.57244110107422 61.905635833740234 31.19853973388672 61.905635833740234 35.420326232910156 L61.905635833740234 59.865478515625 C61.905635833740234 63.54970932006836 59.454654693603516 66.81730651855469 55.80104064941406 67.99745178222656 C54.059303283691406 68.56291198730469 52.058284759521484 68.87297058105469 50.79403305053711 70.33023071289062 C49.35459899902344 71.98941040039062 49.567378997802734 74.22529602050781 49.567378997802734 76.26895141601562 L49.567378997802734 106.5648422241211 L41.36680221557617 191.92074584960938 C41.168365478515625 193.98764038085938 42.633758544921875 195.84371948242188 44.69020080566406 196.130126953125 L72.21381378173828 199.96241760253906 C72.39364624023438 199.98760986328125 72.57270812988281 199.9996337890625 72.75021362304688 199.9996337890625 C74.29235076904297 199.9996337890625 75.7120132446289 199.07720947265625 76.32205200195312 197.62344360351562 L100.00524139404297 141.19065856933594 L115.38397979736328 177.85003662109375 C115.39715576171875 177.88143920898438 115.40956115722656 177.91360473632812 115.42350769042969 177.94461059570312 L123.67874145507812 197.623046875 C124.3589096069336 199.24464416503906 126.04793548583984 200.20501708984375 127.787353515625 199.96241760253906 L155.3109588623047 196.130126953125 C157.36624145507812 195.84371948242188 158.83163452148438 193.988037109375 158.63320922851562 191.9215087890625 Z M145.02682495117188 131.26499938964844 C133.69700622558594 130.0953369140625 124.52518463134766 121.68584442138672 122.3028564453125 110.62657165527344 L143.04672241210938 110.62657165527344 L145.02682495117188 131.26499938964844 Z M114.66891479492188 8.560623168945312 C114.66891479492188 8.121894836425781 115.0398178100586 7.751380920410156 115.47854614257812 7.751380920410156 L123.26480102539062 7.751380920410156 C123.70353698730469 7.751380920410156 124.07444763183594 8.122283935546875 124.07444763183594 8.560623168945312 L124.07444763183594 25.275314331054688 L114.66891479492188 25.275314331054688 L114.66891479492188 8.560623168945312 Z M76.73519897460938 7.751380920410156 L84.52145385742188 7.751380920410156 C84.96018981933594 7.751380920410156 85.33070373535156 8.122283935546875 85.33070373535156 8.560623168945312 L85.33070373535156 25.275314331054688 L75.9255599975586 25.275314331054688 L75.9255599975586 8.560623168945312 C75.92594909667969 8.129646301269531 76.30421447753906 7.751380920410156 76.73519897460938 7.751380920410156 Z M58.18962478637695 75.37173461914062 C65.0484390258789 73.15599060058594 69.65702056884766 66.92427062988281 69.65702056884766 59.865478515625 L69.65702056884766 53.13029861450195 L82.43904876708984 53.13029861450195 C84.57959747314453 53.13029861450195 86.31474304199219 51.39514923095703 86.31474304199219 49.254608154296875 C86.31474304199219 47.11406326293945 84.57959747314453 45.37891387939453 82.43904876708984 45.37891387939453 L69.65702056884766 45.37891387939453 L69.65702056884766 35.420326232910156 C69.65702056884766 34.10065460205078 70.7305908203125 33.02709197998047 72.05026245117188 33.02709197998047 L127.95013427734375 33.02709197998047 C129.26980590820312 33.02709197998047 130.34336853027344 34.10065460205078 130.34336853027344 35.420326232910156 L130.34336853027344 45.37891387939453 L117.52800750732422 45.37891387939453 C115.38784790039062 45.37891387939453 113.65231323242188 47.11406326293945 113.65231323242188 49.254608154296875 C113.65231323242188 51.39514923095703 115.38784790039062 53.13029861450195 117.52800750732422 53.13029861450195 L130.34336853027344 53.13029861450195 L130.34336853027344 59.865478515625 C130.34336853027344 66.92427062988281 134.9519500732422 73.15599060058594 141.8045654296875 75.36978912353516 C142.12664794921875 75.47443389892578 142.42428588867188 75.56512451171875 142.69480895996094 75.64495849609375 C142.6936492919922 75.83991241455078 142.69287109375 76.04803466796875 142.69287109375 76.26934051513672 L142.69287109375 102.87519073486328 L57.3183708190918 102.87519073486328 L57.3183708190918 76.26934051513672 C57.3183708190918 76.046875 57.317596435546875 75.83797454833984 57.316429138183594 75.64186096191406 C57.58308029174805 75.56318664550781 57.87453079223633 75.47404479980469 58.18962478637695 75.37173461914062 Z M56.9637451171875 110.62657165527344 L77.6998519897461 110.62657165527344 C75.48567199707031 121.68701934814453 66.31539916992188 130.09725952148438 54.98093795776367 131.26539611816406 L56.9637451171875 110.62657165527344 Z M70.32829284667969 191.87384033203125 L49.437538146972656 188.96514892578125 L50.678924560546875 176.04281616210938 L75.52171325683594 179.49798583984375 L70.32829284667969 191.87384033203125 Z M100.005615234375 127.2978515625 C98.44449615478516 127.2978515625 97.03567504882812 128.23460388183594 96.43184661865234 129.67364501953125 L78.62498474121094 172.10394287109375 L51.42073059082031 168.32009887695312 L54.2282829284668 139.09739685058594 C70.19032287597656 138.18853759765625 83.18163299560547 126.25993347167969 85.56712341308594 110.62657165527344 L114.43443298339844 110.62657165527344 C116.8292236328125 126.25801086425781 129.82247924804688 138.18621826171875 145.77792358398438 139.0970001220703 L148.58160400390625 168.31971740722656 L121.37773132324219 172.10354614257812 L103.57862854003906 129.6744384765625 C102.97557067871094 128.2349853515625 101.5667495727539 127.2982406616211 100.005615234375 127.2978515625 Z M129.67210388183594 191.87384033203125 L124.480224609375 179.49798583984375 L149.32302856445312 176.04281616210938 L150.5628662109375 188.96514892578125 L129.67210388183594 191.87384033203125 Z"></path>
<path fill="" fill-opacity="1.0"  filling="0" d="M100.005615234375 94.53276062011719 C110.13706970214844 94.53276062011719 118.3798828125 86.28489685058594 118.3798828125 76.14725494384766 L118.3798828125 69.25821685791016 C118.3798828125 67.11766815185547 116.64434814453125 65.38252258300781 114.50418853759766 65.38252258300781 L85.49658203125 65.38252258300781 C83.35604095458984 65.38252258300781 81.62089538574219 67.11766815185547 81.62089538574219 69.25821685791016 L81.62089538574219 76.14725494384766 C81.62049865722656 86.28489685058594 89.86798095703125 94.53276062011719 100.005615234375 94.53276062011719 Z M89.37188720703125 73.13390350341797 L110.62812042236328 73.13390350341797 L110.62812042236328 76.14725494384766 C110.62812042236328 82.01078796386719 105.86256408691406 86.78137969970703 100.00524139404297 86.78137969970703 C94.14208984375 86.78137969970703 89.37149810791016 82.01078796386719 89.37149810791016 76.14725494384766 L89.37149810791016 73.13390350341797 L89.37188720703125 73.13390350341797 Z"></path>
<path fill="" fill-opacity="1.0"  filling="0" d="M100.005615234375 53.13029861450195 L99.98353576660156 53.13029861450195 C97.84298706054688 53.13029861450195 96.10784149169922 51.39514923095703 96.10784149169922 49.254608154296875 C96.10784149169922 47.11406326293945 97.84298706054688 45.37891387939453 99.98353576660156 45.37891387939453 C102.1236801147461 45.37891387939453 103.87007141113281 47.11406326293945 103.87007141113281 49.254608154296875 C103.87007141113281 51.39514923095703 102.1457748413086 53.13029861450195 100.005615234375 53.13029861450195 Z"></path></svg>