<svg xmlns="http://www.w3.org/2000/svg" viewBox="0.0 0.0 200.0 200.0" height="200.0px" width="200.0px"><path fill="#eb423f" fill-opacity="1.0"  filling="0" d="M43.75 40.625 L156.25 40.625 L156.25 190.625 L43.75 190.625 L43.75 40.625 Z"></path>
<path fill="#e8e9ea" fill-opacity="1.0"  filling="0" d="M81.25 128.125 L118.75 128.125 L118.75 178.125 L81.25 178.125 L81.25 128.125 Z"></path>
<path fill="#a82a27" fill-opacity="1.0"  filling="0" d="M6.25 65.625 L43.75 65.625 L43.75 190.625 L6.25 190.625 L6.25 65.625 Z"></path>
<path fill="#a3d4f7" fill-opacity="1.0"  filling="0" d="M18.75 78.125 L31.25 78.125 L31.25 90.625 L18.75 90.625 L18.75 78.125 Z"></path>
<path fill="#a3d4f7" fill-opacity="1.0"  filling="0" d="M81.25 78.125 L93.75 78.125 L93.75 90.625 L81.25 90.625 L81.25 78.125 Z"></path>
<path fill="#a3d4f7" fill-opacity="1.0"  filling="0" d="M81.25 53.125 L93.75 53.125 L93.75 65.625 L81.25 65.625 L81.25 53.125 Z"></path>
<path fill="#a3d4f7" fill-opacity="1.0"  filling="0" d="M106.25 78.125 L118.75 78.125 L118.75 90.625 L106.25 90.625 L106.25 78.125 Z"></path>
<path fill="#a3d4f7" fill-opacity="1.0"  filling="0" d="M81.25 103.125 L93.75 103.125 L93.75 115.625 L81.25 115.625 L81.25 103.125 Z"></path>
<path fill="#a3d4f7" fill-opacity="1.0"  filling="0" d="M106.25 103.125 L118.75 103.125 L118.75 115.625 L106.25 115.625 L106.25 103.125 Z"></path>
<path fill="#a3d4f7" fill-opacity="1.0"  filling="0" d="M106.25 53.125 L118.75 53.125 L118.75 65.625 L106.25 65.625 L106.25 53.125 Z"></path>
<path fill="#a3d4f7" fill-opacity="1.0"  filling="0" d="M18.75 103.125 L31.25 103.125 L31.25 115.625 L18.75 115.625 L18.75 103.125 Z"></path>
<path fill="#a3d4f7" fill-opacity="1.0"  filling="0" d="M18.75 128.125 L31.25 128.125 L31.25 140.625 L18.75 140.625 L18.75 128.125 Z"></path>
<path fill="#a3d4f7" fill-opacity="1.0"  filling="0" d="M18.75 153.125 L31.25 153.125 L31.25 165.625 L18.75 165.625 L18.75 153.125 Z"></path>
<path fill="#a82a27" fill-opacity="1.0"  filling="0" d="M156.25 65.625 L193.75 65.625 L193.75 190.625 L156.25 190.625 L156.25 65.625 Z"></path>
<path fill="#1261a0" fill-opacity="1.0"  filling="0" d="M68.75 178.125 L131.25 178.125 L131.25 190.625 L68.75 190.625 L68.75 178.125 Z"></path>
<path fill="#ed6f6d" fill-opacity="1.0"  filling="0" d="M68.75 15.625 L131.25 15.625 L131.25 40.625 L68.75 40.625 L68.75 15.625 Z"></path>
<path fill="#a3d4f7" fill-opacity="1.0"  filling="0" d="M118.75 31.25 L93.75 31.25 A3.125 3.125 0.0 0 1 93.75 25.0 L118.75 25.0 A3.125 3.125 0.0 0 1 118.75 31.25 Z"></path>
<path fill="#a3d4f7" fill-opacity="1.0"  filling="0" d="M84.375 28.125 A3.125 3.125 0.0 1 1 78.125 28.125 A3.125 3.125 0.0 1 1 84.375 28.125 Z"></path>
<path fill="#a3d4f7" fill-opacity="1.0"  filling="0" d="M56.25 53.125 L68.75 53.125 L68.75 65.625 L56.25 65.625 L56.25 53.125 Z"></path>
<path fill="#a3d4f7" fill-opacity="1.0"  filling="0" d="M56.25 78.125 L68.75 78.125 L68.75 90.625 L56.25 90.625 L56.25 78.125 Z"></path>
<path fill="#a3d4f7" fill-opacity="1.0"  filling="0" d="M56.25 103.125 L68.75 103.125 L68.75 115.625 L56.25 115.625 L56.25 103.125 Z"></path>
<path fill="#a3d4f7" fill-opacity="1.0"  filling="0" d="M56.25 128.125 L68.75 128.125 L68.75 140.625 L56.25 140.625 L56.25 128.125 Z"></path>
<path fill="#a3d4f7" fill-opacity="1.0"  filling="0" d="M131.25 53.125 L143.75 53.125 L143.75 65.625 L131.25 65.625 L131.25 53.125 Z"></path>
<path fill="#a3d4f7" fill-opacity="1.0"  filling="0" d="M131.25 78.125 L143.75 78.125 L143.75 90.625 L131.25 90.625 L131.25 78.125 Z"></path>
<path fill="#a3d4f7" fill-opacity="1.0"  filling="0" d="M131.25 103.125 L143.75 103.125 L143.75 115.625 L131.25 115.625 L131.25 103.125 Z"></path>
<path fill="#a3d4f7" fill-opacity="1.0"  filling="0" d="M131.25 128.125 L143.75 128.125 L143.75 140.625 L131.25 140.625 L131.25 128.125 Z"></path>
<path fill="#a3d4f7" fill-opacity="1.0"  filling="0" d="M56.25 153.125 L68.75 153.125 L68.75 165.625 L56.25 165.625 L56.25 153.125 Z"></path>
<path fill="#a3d4f7" fill-opacity="1.0"  filling="0" d="M131.25 153.125 L143.75 153.125 L143.75 165.625 L131.25 165.625 L131.25 153.125 Z"></path>
<path fill="#a3d4f7" fill-opacity="1.0"  filling="0" d="M168.75 78.125 L181.25 78.125 L181.25 90.625 L168.75 90.625 L168.75 78.125 Z"></path>
<path fill="#a3d4f7" fill-opacity="1.0"  filling="0" d="M168.75 103.125 L181.25 103.125 L181.25 115.625 L168.75 115.625 L168.75 103.125 Z"></path>
<path fill="#a3d4f7" fill-opacity="1.0"  filling="0" d="M168.75 128.125 L181.25 128.125 L181.25 140.625 L168.75 140.625 L168.75 128.125 Z"></path>
<path fill="#a3d4f7" fill-opacity="1.0"  filling="0" d="M168.75 153.125 L181.25 153.125 L181.25 165.625 L168.75 165.625 L168.75 153.125 Z"></path></svg>