<svg xmlns="http://www.w3.org/2000/svg" viewBox="0.0 0.0 200.0 200.0" height="200.0px" width="200.0px"><path fill="#6a647f" fill-opacity="1.0"  filling="0" d="M3.927734375 100.71758270263672 C8.018753051757812 79.51718139648438 24.393356323242188 62.803123474121094 45.36992263793945 57.687110900878906 L46.53788757324219 57.40234375 C54.07656478881836 55.56367111206055 61.72773361206055 60.20468521118164 63.45195007324219 67.77030944824219 C69.86250305175781 95.8968734741211 95.0296859741211 116.8882827758789 125.09765625 116.8882827758789 C131.4656219482422 116.8882827758789 137.6160125732422 115.9468765258789 143.412109375 114.19258117675781 C148.69100952148438 112.59765625 154.38201904296875 113.1265640258789 159.2175750732422 115.77577209472656 C169.265625 121.27617645263672 185.47576904296875 132.3359375 193.88632202148438 149.751953125 L145.1281280517578 159.08828735351562 L84.13125610351562 149.751953125 C84.13008117675781 149.7511749267578 84.12890625 149.7507781982422 84.12773895263672 149.75 C78.2890625 139.81875610351562 70.380859375 128.75820922851562 62.144142150878906 124.32227325439453 C58.92304611206055 122.58711242675781 54.939842224121094 124.42733764648438 54.22773361206055 128.01016235351562 C53.29804229736328 132.6511688232422 52.09218978881836 140.0304718017578 51.33749771118164 149.751953125 L31.66015625 159.08749389648438 L11.982032775878906 149.7511749267578 C7.4031219482421875 139.0808563232422 2.9296875 125.06094360351562 2.9296875 111.044921875 C2.9296875 107.45938110351562 3.2925796508789062 104.0093765258789 3.927734375 100.71758270263672 Z"></path>
<path fill="#423e4f" fill-opacity="1.0"  filling="0" d="M23.700782775878906 149.75157165527344 C19.121871948242188 139.0808563232422 14.6484375 125.06094360351562 14.6484375 111.044921875 C14.6484375 107.45938110351562 15.011329650878906 104.0093765258789 15.646873474121094 100.71758270263672 C19.626564025878906 80.0953140258789 35.23046875 63.72148513793945 55.38554763793945 58.134765625 C52.68867111206055 56.978519439697266 49.60429763793945 56.654296875 46.53828048706055 57.401954650878906 L45.37031555175781 57.68671798706055 C24.393753051757812 62.802730560302734 8.019134521484375 79.51679992675781 3.9281234741210938 100.7171859741211 C3.2925796508789062 104.0093765258789 2.9296875 107.45938110351562 2.9296875 111.044921875 C2.9296875 125.06094360351562 7.4031219482421875 139.0808563232422 11.982032775878906 149.75157165527344 L31.66015625 159.08749389648438 L37.51953125 156.3074188232422 L23.700782775878906 149.75157165527344 Z"></path>
<path fill="#ff6e80" fill-opacity="1.0"  filling="0" d="M11.982032775878906 149.75157165527344 C14.156639099121094 154.82421875 16.35468292236328 159.13829040527344 18.105079650878906 162.33984375 C20.155075073242188 166.08984375 24.080078125 168.423828125 28.3515625 168.423828125 L39.224220275878906 168.423828125 C45.46797180175781 168.423828125 50.59883117675781 163.5066375732422 50.87890625 157.27110290527344 C50.999610900878906 154.6296844482422 51.15507888793945 152.12069702148438 51.337890625 149.75157165527344 L11.982032775878906 149.75157165527344 Z"></path>
<path fill="#f6334c" fill-opacity="1.0"  filling="0" d="M29.823829650878906 162.33984375 C28.07343292236328 159.13829040527344 25.875389099121094 154.82421875 23.700782775878906 149.75157165527344 L11.982032775878906 149.75157165527344 C14.156639099121094 154.82421875 16.35468292236328 159.13829040527344 18.105079650878906 162.33984375 C20.155075073242188 166.08984375 24.080078125 168.423828125 28.3515625 168.423828125 L39.224220275878906 168.423828125 C39.389060974121094 168.423828125 39.55234146118164 168.41836547851562 39.71562194824219 168.41171264648438 C35.58320617675781 168.28631591796875 31.816795349121094 165.9855499267578 29.823829650878906 162.33984375 Z"></path>
<path fill="#ff6e80" fill-opacity="1.0"  filling="0" d="M84.13163757324219 149.75157165527344 C90.9742202758789 161.34413146972656 103.45780944824219 168.42420959472656 116.9214859008789 168.42420959472656 L187.96640014648438 168.42420959472656 C194.1867218017578 168.42420959472656 198.55508422851562 162.32852172851562 196.5984344482422 156.42343139648438 C195.828125 154.10507202148438 194.91796875 151.87969970703125 193.88711547851562 149.751953125 L84.13163757324219 149.751953125 L84.13163757324219 149.75157165527344 Z"></path>
<path fill="#ff6e80" fill-opacity="1.0"  filling="0" d="M30.255081176757812 40.00859069824219 C28.377342224121094 46.26601791381836 29.691795349121094 60.312496185302734 35.94921875 62.19023513793945 C42.20664596557617 64.0679702758789 51.037109375 53.06523513793945 52.91484451293945 46.80820846557617 C54.79257583618164 40.55117416381836 51.241798400878906 33.95625305175781 44.984771728515625 32.078514099121094 C38.72773742675781 30.200782775878906 32.132423400878906 33.75117492675781 30.255081176757812 40.00859069824219 Z"></path>
<path fill="#fd5c6f" fill-opacity="1.0"  filling="0" d="M24.421485900878906 81.97773742675781 C24.321487426757812 75.44570922851562 29.41680145263672 62.28984451293945 35.948822021484375 62.189842224121094 C42.48086166381836 62.08984375 47.976566314697266 75.0835952758789 48.076171875 81.61563110351562 C48.17578125 88.14765930175781 42.96171569824219 93.52421569824219 36.429691314697266 93.62421417236328 C29.89765167236328 93.7242202758789 24.521484375 88.509765625 24.421485900878906 81.97773742675781 Z"></path>
<path fill="#ffa2ae" fill-opacity="1.0"  filling="0" d="M13.767578125 56.49570083618164 C20.025001525878906 54.61796951293945 34.07147979736328 55.93241882324219 35.94921875 62.189842224121094 C37.82695388793945 68.447265625 26.82421875 77.2777328491211 20.56719207763672 79.15547180175781 C14.310157775878906 81.033203125 7.715240478515625 77.482421875 5.837501525878906 71.22539520263672 C3.9597625732421875 64.9683609008789 7.510154724121094 58.37343978881836 13.767578125 56.49570083618164 Z"></path>
<path fill="#fd5c6f" fill-opacity="1.0"  filling="0" d="M13.719139099121094 56.68827819824219 C18.338668823242188 61.30781173706055 31.329689025878906 66.80937194824219 35.94921875 62.189842224121094 C40.56875228881836 57.5703125 35.06719207763672 44.57929611206055 30.447654724121094 39.95976257324219 C25.828125 35.340240478515625 18.338668823242188 35.340240478515625 13.719139099121094 39.95976257324219 C9.099609375 44.57929611206055 9.099609375 52.06913757324219 13.719139099121094 56.68827819824219 Z"></path>
<path fill="#ffa2ae" fill-opacity="1.0"  filling="0" d="M55.73672103881836 50.662498474121094 C49.204681396484375 50.5625 36.048828125 55.65781021118164 35.948822021484375 62.189842224121094 C35.84883117675781 68.72187042236328 48.84257888793945 74.21757507324219 55.374610900878906 74.31718444824219 C61.90664291381836 74.41679382324219 67.283203125 69.20272827148438 67.38320922851562 62.67070007324219 C67.48320007324219 56.138671875 62.26875305175781 50.76249694824219 55.73672103881836 50.662498474121094 Z"></path>
<path fill="#f9d171" fill-opacity="1.0"  filling="0" d="M44.718360900878906 62.189842224121094 A8.76953125 8.76953125 0.0 1 1 27.179298400878906 62.189842224121094 A8.76953125 8.76953125 0.0 1 1 44.718360900878906 62.189842224121094 Z"></path>
<path fill="" fill-opacity="1.0"  filling="0" d="M199.40194702148438 155.578125 C198.6066436767578 153.18438720703125 197.6453094482422 150.81991577148438 196.544921875 148.54766845703125 C196.20468139648438 148.15975952148438 188.4210968017578 128.45547485351562 160.5906219482422 113.22030639648438 C155.14413452148438 110.23632049560547 148.5519561767578 109.57266235351562 142.50390625 111.39961242675781 C110.69062805175781 121.03047180175781 76.90351867675781 102.9312515258789 67.24140930175781 71.21367645263672 C74.3511734008789 61.62812805175781 67.62539672851562 47.732425689697266 55.50273513793945 47.65195083618164 C57.91054916381836 39.752342224121094 53.40625 31.498435974121094 45.621097564697266 29.162506103515625 C39.22538757324219 27.24335479736328 32.45976257324219 29.93437957763672 28.971092224121094 35.29804992675781 C23.355857849121094 32.209373474121094 16.144920349121094 33.03788757324219 11.391014099121094 37.79140853881836 C6.54296875 42.63945388793945 5.8484344482421875 49.86640167236328 8.892578125 55.374996185302734 C-0.001953125 61.165626525878906 -0.148834228515625 74.24530792236328 8.80859375 80.119140625 C3.753509521484375 87.978515625 0.9007797241210938 96.5796890258789 0.01406097412109375 105.37382507324219 C-0.1484375 106.9859390258789 1.0269546508789062 108.42460632324219 2.6390609741210938 108.58711242675781 C4.254302978515625 108.75155639648438 5.689842224121094 107.57422637939453 5.8527374267578125 105.96211242675781 C6.7433624267578125 97.11796569824219 9.771484375 89.15625 14.372657775878906 82.3335952758789 C16.686721801757812 82.740234375 19.081642150878906 82.56758117675781 21.24921417236328 81.90507507324219 C21.42656707763672 95.19609069824219 37.575782775878906 101.400390625 46.639060974121094 92.0550765991211 C49.028907775878906 89.59101867675781 50.45859146118164 86.4453125 50.751953125 83.07147979736328 C50.94843673706055 80.90859985351562 50.59883117675781 78.59414672851562 50.083595275878906 76.48397827148438 C54.426170349121094 77.560546875 58.50468826293945 77.5707015991211 62.43789291381836 75.40351867675781 C74.2171859741211 109.06523132324219 110.34024047851562 127.26718139648438 144.20196533203125 117.01679229736328 C148.81640625 115.623046875 153.6359405517578 116.10195922851562 157.77110290527344 118.3675765991211 C165.98477172851562 122.86367797851562 180.3175811767578 132.27655029296875 188.99453735351562 146.88711547851562 L162.669921875 146.88711547851562 C161.0496063232422 146.88711547851562 159.73594665527344 148.20079040527344 159.73594665527344 149.8210906982422 C159.73594665527344 151.44140625 161.0496063232422 152.7550811767578 162.669921875 152.7550811767578 L192.02618408203125 152.7550811767578 C192.70233154296875 154.28399658203125 193.30703735351562 155.84921264648438 193.83164978027344 157.427734375 C195.166015625 161.455078125 192.1921844482422 165.58749389648438 187.97109985351562 165.58749389648438 L116.82186889648438 165.58749389648438 C106.23359680175781 165.58749389648438 96.2261734008789 160.7761688232422 89.6128921508789 152.75546264648438 L150.9347686767578 152.75546264648438 C152.55506896972656 152.75546264648438 153.86874389648438 151.44180297851562 153.86874389648438 149.8214874267578 C153.86874389648438 148.201171875 152.55506896972656 146.88751220703125 150.9347686767578 146.88751220703125 L85.650390625 146.88751220703125 C77.91055297851562 134.01913452148438 70.4144515991211 125.57305145263672 63.35546875 121.7710952758789 C58.38398361206055 119.09296417236328 52.255855560302734 121.95234680175781 51.158203125 127.47578430175781 C50.330467224121094 131.60780334472656 49.222660064697266 138.1999969482422 48.44257736206055 146.88751220703125 L13.674995422363281 146.88751220703125 C9.3203125 136.3464813232422 6.697265625 126.33594512939453 5.873435974121094 117.1050796508789 C5.7292938232421875 115.49102020263672 4.3015594482421875 114.29920959472656 2.6902313232421875 114.443359375 C1.076171875 114.58749389648438 -0.11524200439453125 116.01249694824219 0.02890777587890625 117.62655639648438 C1.4406280517578125 133.44140625 7.734375 150.02734375 15.284767150878906 163.8359375 C17.854293823242188 168.53555297851562 22.773048400878906 171.45547485351562 28.12109375 171.45547485351562 L39.009761810302734 171.45547485351562 C46.84648513793945 171.45547485351562 53.26094055175781 165.318359375 53.61328125 157.48358154296875 C54.13711166381836 146.00625610351562 55.398441314697266 136.18280029296875 56.91328048706055 128.62344360351562 C57.242183685302734 126.96757507324219 59.079689025878906 126.13241577148438 60.572654724121094 126.93672180175781 C66.84492492675781 130.31483459472656 74.0640640258789 138.74179077148438 81.451171875 151.30584716796875 C88.4554672241211 163.28085327148438 101.888671875 171.455078125 116.822265625 171.455078125 L187.97265625 171.455078125 C196.0261688232422 171.455078125 201.94883728027344 163.244140625 199.40194702148438 155.578125 Z M47.994136810302734 152.7546844482422 C47.900390625 154.2253875732422 47.81913757324219 155.7175750732422 47.75078201293945 157.2175750732422 C47.53984069824219 161.9113311767578 43.70038986206055 165.58673095703125 39.009761810302734 165.58673095703125 L28.120704650878906 165.58673095703125 C24.918746948242188 165.58673095703125 21.973052978515625 163.8367156982422 20.433197021484375 161.01992797851562 C18.957427978515625 158.3210906982422 17.55859375 155.55429077148438 16.253517150878906 152.75430297851562 L47.994136810302734 152.75430297851562 L47.994136810302734 152.7546844482422 Z M27.118362426757812 81.90156555175781 C27.101951599121094 80.8187484741211 27.255859375 79.8203125 27.408592224121094 78.90312194824219 C31.438278198242188 76.3023452758789 33.630462646484375 73.826171875 33.80194854736328 73.68632507324219 C36.21875 74.083984375 38.629295349121094 73.7269515991211 40.73905944824219 72.7281265258789 C41.47929382324219 73.1597671508789 42.72187423706055 73.79727172851562 43.13906478881836 73.9964828491211 C43.75039291381836 75.5347671508789 44.298828125 77.2925796508789 44.62773895263672 78.96952819824219 C45.46406173706055 83.19609069824219 44.17851638793945 87.55351257324219 40.158199310302734 89.66015625 C34.24297332763672 92.759765625 27.219139099121094 88.466796875 27.118362426757812 81.90156555175781 Z M39.865230560302734 57.993751525878906 C42.000389099121094 60.129295349121094 42.138671875 63.53828430175781 40.26288986206055 65.82461547851562 C37.99296569824219 68.60624694824219 33.873435974121094 68.5999984741211 31.59375 66.26484680175781 C29.380859375 64.05038452148438 29.253517150878906 60.33515167236328 31.608596801757812 57.980079650878906 C33.85038757324219 55.75468444824219 37.632415771484375 55.76054382324219 39.865230560302734 57.993751525878906 Z M12.739845275878906 59.90625 C16.106643676757812 62.61992645263672 20.658981323242188 64.80233764648438 24.637496948242188 65.91328430175781 C25.314842224121094 67.90507507324219 26.531639099121094 69.6753921508789 28.108200073242188 71.02851104736328 C25.785545349121094 73.103515625 21.88359832763672 75.78085327148438 18.88671875 76.46366882324219 C17.98358917236328 76.66874694824219 17.103515625 76.72773742675781 16.205467224121094 76.6546859741211 C7.21875 75.908203125 5.0226593017578125 64.0191421508789 12.739845275878906 59.90625 Z M28.12773895263672 41.92500305175781 C30.33281707763672 44.218360900878906 32.163665771484375 47.72969055175781 33.235939025878906 50.680076599121094 C28.75702667236328 51.646484375 25.238670349121094 55.189842224121094 24.279693603515625 59.63789367675781 C20.843360900878906 58.39687728881836 17.658981323242188 56.46796798706055 15.946090698242188 54.926170349121094 C13.920310974121094 53.101951599121094 12.930473327636719 50.71875 12.930473327636719 48.24296951293945 C12.930854797363281 40.373050689697266 22.501953125 36.32929229736328 28.12773895263672 41.92500305175781 Z M48.72773361206055 48.65156555175781 C45.99609375 49.39140701293945 43.289066314697266 50.482810974121094 41.06015396118164 51.69218826293945 C40.55976867675781 51.435935974121094 40.04218673706055 51.216800689697266 39.510154724121094 51.03593444824219 C38.39726257324219 47.060935974121094 36.338279724121094 42.74375534057617 33.506248474121094 39.13945007324219 C36.841796875 32.880859375 45.85000228881836 32.833984375 49.221092224121094 39.09453201293945 C50.349609375 41.19062423706055 50.594139099121094 43.60078048706055 49.910152435302734 45.880859375 C49.666011810302734 46.69414138793945 49.26250076293945 47.63749694824219 48.72773361206055 48.65156555175781 Z M64.27656555175781 62.566017150878906 C64.212890625 66.7281265258789 61.13163757324219 70.392578125 57.04609298706055 71.1800765991211 C53.610939025878906 71.8421859741211 48.54804229736328 70.099609375 45.49140930175781 68.615234375 C48.03788757324219 64.80000305175781 48.093360900878906 59.81132888793945 45.68476867675781 55.94843673706055 C47.15117263793945 55.289058685302734 48.70976257324219 54.73554611206055 50.23515701293945 54.324607849121094 C54.638671875 53.135154724121094 58.56719207763672 52.93008041381836 61.76327896118164 56.22500228881836 C63.42031478881836 57.93398666381836 64.31289672851562 60.18593978881836 64.27656555175781 62.566017150878906 Z"></path></svg>