<svg xmlns="http://www.w3.org/2000/svg" viewBox="0.0 0.0 200.0 200.0" height="200.0px" width="200.0px"><path fill="#a95a18" fill-opacity="1.0"  filling="0" d="M68.75 71.875 L75.0 71.875 L75.0 162.5 L68.75 162.5 L68.75 71.875 Z"></path>
<path fill="#a95a18" fill-opacity="1.0"  filling="0" d="M73.818359375 146.197265625 L69.931640625 141.302734375 L98.056640625 119.42772674560547 L101.943359375 124.32227325439453 L73.818359375 146.197265625 Z"></path>
<path fill="#a95a18" fill-opacity="1.0"  filling="0" d="M69.931640625 149.322265625 L44.931636810302734 129.24649047851562 L48.818363189697266 124.3515625 L73.818359375 144.427734375 L69.931640625 149.322265625 Z"></path>
<path fill="#fe9e4a" fill-opacity="1.0"  filling="0" d="M9.375 196.875 C9.375 196.875 37.5 165.625 68.75 162.5 C100.0 159.375 153.125 196.875 153.125 196.875"></path>
<path fill="#90e3f5" fill-opacity="1.0"  filling="0" d="M155.49298095703125 177.4375 L140.87069702148438 186.63592529296875 A4.169921875 4.169921875 0.0 0 1 134.375 184.375 L132.2078094482422 168.89337158203125 A27.21562385559082 27.21562385559082 0.0 0 1 133.16561889648438 151.7058563232422 L140.18710327148438 133.99374389648438 L172.142578125 146.66172790527344 L164.654296875 165.55117797851562 A27.21562385559082 27.21562385559082 0.0 0 1 155.49298095703125 177.4375 Z"></path>
<path fill="#fe9e4a" fill-opacity="1.0"  filling="0" d="M175.42031860351562 70.74140930175781 L189.95156860351562 76.50703430175781 L176.1140594482422 111.38203430175781 L161.58282470703125 105.61640167236328 L175.42031860351562 70.74140930175781 Z"></path>
<path fill="#7bdeef" fill-opacity="1.0"  filling="0" d="M164.4851531982422 106.7621078491211 L173.20391845703125 110.22148132324219 L160.51953125 142.1902313232422 L151.80078125 138.73086547851562 L164.4851531982422 106.7621078491211 Z"></path>
<path fill="#f97d21" fill-opacity="1.0"  filling="0" d="M84.375 182.8125 L78.125 182.8125 A4.6875 4.6875 0.0 0 0 68.75 182.8125 L62.5 182.8125 A10.9375 10.9375 0.0 0 1 84.375 182.8125 Z"></path>
<path fill="#f97d21" fill-opacity="1.0"  filling="0" d="M112.5 187.5 L106.25 187.5 A4.6875 4.6875 0.0 0 0 96.875 187.5 L90.625 187.5 A10.9375 10.9375 0.0 0 1 112.5 187.5 Z"></path>
<path fill="#f97d21" fill-opacity="1.0"  filling="0" d="M59.375 187.5 L53.125 187.5 A4.6875 4.6875 0.0 0 0 43.75 187.5 L37.5 187.5 A10.9375 10.9375 0.0 0 1 59.375 187.5 Z"></path>
<path fill="#fe9e4a" fill-opacity="1.0"  filling="0" d="M143.75 34.375 A9.375 9.375 0.0 1 1 125.0 34.375 A9.375 9.375 0.0 1 1 143.75 34.375 Z"></path>
<path fill="#90e3f5" fill-opacity="1.0"  filling="0" d="M17.439453125 12.504684448242188 L28.125 9.375 L24.995315551757812 20.060546875 L28.125 30.746482849121094 L17.439453125 27.616409301757812 L6.753517150878906 30.746482849121094 L9.883590698242188 20.060546875 L6.753517150878906 9.375 L17.439453125 12.504684448242188 Z"></path>
<path fill="#90e3f5" fill-opacity="1.0"  filling="0" d="M103.125 143.75 L109.375 143.75 L109.375 150.0 L103.125 150.0 L103.125 143.75 Z"></path>
<path fill="#a95a18" fill-opacity="1.0"  filling="0" d="M0.0 193.75 L200.0 193.75 L200.0 200.0 L0.0 200.0 L0.0 193.75 Z"></path>
<path fill="#02878e" fill-opacity="1.0"  filling="0" d="M96.875 47.09062576293945 C96.875 67.8011703491211 71.875 78.125 71.875 78.125 C71.875 78.125 46.875 67.8011703491211 46.875 47.09062576293945 C46.875 26.38007354736328 71.875 3.125 71.875 3.125 C71.875 3.125 96.875 26.379684448242188 96.875 47.09062576293945 Z"></path>
<path fill="#02878e" fill-opacity="1.0"  filling="0" d="M128.22109985351562 116.08476257324219 C116.78632354736328 133.3527374267578 90.2421875 128.1574249267578 90.2421875 128.1574249267578 C90.2421875 128.1574249267578 75.09805297851562 105.74687957763672 86.53125 88.4789047241211 C97.9644546508789 71.2109375 131.6511688232422 65.625 131.6511688232422 65.625 C131.6511688232422 65.625 139.65586853027344 98.81718444824219 128.22109985351562 116.08476257324219 Z"></path>
<path fill="#02878e" fill-opacity="1.0"  filling="0" d="M15.528907775878906 119.20976257324219 C26.96367645263672 136.4777374267578 53.5078125 131.2824249267578 53.5078125 131.2824249267578 C53.5078125 131.2824249267578 68.65194702148438 108.87187957763672 57.21875 91.6039047241211 C45.785545349121094 74.3359375 12.098823547363281 68.75 12.098823547363281 68.75 C12.098823547363281 68.75 4.094139099121094 101.94218444824219 15.528907775878906 119.20976257324219 Z"></path>
<path fill="#90e3f5" fill-opacity="1.0"  filling="0" d="M71.875 59.375 A3.1195311546325684 3.1195311546325684 0.0 0 1 70.0 58.749996185302734 L57.5 49.374996185302734 L61.25 44.375003814697266 L71.875 52.34375 L82.5 44.375003814697266 L86.25 49.374996185302734 L73.75 58.749996185302734 A3.1195311546325684 3.1195311546325684 0.0 0 1 71.875 59.375 Z"></path>
<path fill="#90e3f5" fill-opacity="1.0"  filling="0" d="M71.875 43.75 A3.1207029819488525 3.1207029819488525 0.0 0 1 70.14140319824219 43.22500228881836 L60.76640319824219 36.97500228881836 L64.23320007324219 31.774993896484375 L71.875 36.869144439697266 L79.51640319824219 31.774612426757812 L82.98320007324219 36.97500228881836 L73.60820007324219 43.22500228881836 A3.1207029819488525 3.1207029819488525 0.0 0 1 71.875 43.75 Z"></path>
<path fill="#90e3f5" fill-opacity="1.0"  filling="0" d="M116.78242492675781 112.5 L101.15742492675781 112.40351104736328 A3.125 3.125 0.0 0 1 98.17108917236328 110.134765625 L93.8890609741211 95.10820770263672 L99.9000015258789 93.39530944824219 L103.53984832763672 106.16874694824219 L116.82109832763672 106.25078582763672 L116.78242492675781 112.5 Z"></path>
<path fill="#90e3f5" fill-opacity="1.0"  filling="0" d="M121.68241882324219 100.650390625 L110.43633270263672 99.95585632324219 A3.125 3.125 0.0 0 1 107.67578125 97.85859680175781 L103.99140167236328 87.2105484008789 L109.89765930175781 85.16679382324219 L112.9007797241211 93.8460922241211 L122.06718444824219 94.412109375 L121.68241882324219 100.650390625 Z"></path>
<path fill="#90e3f5" fill-opacity="1.0"  filling="0" d="M26.98711395263672 115.625 L26.948043823242188 109.375 L40.22929763793945 109.29296875 L43.869136810302734 96.51953125 L49.88007354736328 98.232421875 L45.597660064697266 113.25897979736328 A3.125 3.125 0.0 0 1 42.611324310302734 115.52774047851562 L26.98711395263672 115.625 Z"></path>
<path fill="#90e3f5" fill-opacity="1.0"  filling="0" d="M22.087501525878906 103.775390625 L21.702346801757812 97.537109375 L30.868751525878906 96.9710922241211 L33.87187957763672 88.29219055175781 L39.77812576293945 90.3355484008789 L36.093746185302734 100.98359680175781 A3.125 3.125 0.0 0 1 33.33320617675781 103.08085632324219 L22.087501525878906 103.775390625 Z"></path>
<path fill="#232626" fill-opacity="1.0"  filling="0" d="M15.528907775878906 119.20976257324219 C26.96367645263672 136.4777374267578 53.5078125 131.2824249267578 53.5078125 131.2824249267578 L12.099220275878906 68.75 C12.099220275878906 68.75 4.094139099121094 101.94218444824219 15.528907775878906 119.20976257324219 Z"></path>
<path fill="#232626" fill-opacity="1.0"  filling="0" d="M96.875 47.09062576293945 C96.875 26.379684448242188 71.875 3.125 71.875 3.125 L71.875 78.125 C71.875 78.125 96.875 67.8011703491211 96.875 47.09062576293945 Z"></path>
<path fill="#232626" fill-opacity="1.0"  filling="0" d="M128.22109985351562 116.08476257324219 C139.65586853027344 98.81718444824219 131.65078735351562 65.625 131.65078735351562 65.625 L90.2421875 128.1574249267578 C90.2421875 128.1574249267578 116.78632354736328 133.3527374267578 128.22109985351562 116.08476257324219 Z"></path></svg>