<svg xmlns="http://www.w3.org/2000/svg" viewBox="0.0 0.0 200.0 200.0" height="200.0px" width="200.0px"><path fill="#ff4155" fill-opacity="1.0"  filling="0" d="M182.02578735351562 157.203125 C193.35116577148438 140.99334716796875 200.0 121.27461242675781 200.0 100.0 C200.0 44.771480560302734 155.228515625 0.0 100.0 0.0 C44.771480560302734 0.0 0.0 44.771480560302734 0.0 100.0 C0.0 121.27461242675781 6.648826599121094 140.99334716796875 17.974220275878906 157.203125 L182.02578735351562 157.203125 Z"></path>
<path fill="#e9efff" fill-opacity="1.0"  filling="0" d="M182.03125 23.4375 L182.03125 157.203125 C163.95703125 183.07421875 133.953125 200.0 100.0 200.0 C66.046875 200.0 36.042964935302734 183.07421875 17.96875 157.203125 L17.96875 23.4375 L39.51953125 20.359375 L100.0 11.71875 L160.48046875 20.359375 L182.03125 23.4375 Z"></path>
<path fill="#d3dcfb" fill-opacity="1.0"  filling="0" d="M49.08984375 18.9921875 L39.51953125 20.359375 L17.96875 23.4375 L17.96875 157.203125 C36.042964935302734 183.07421875 66.046875 200.0 100.0 200.0 C133.953125 200.0 163.95703125 183.07421875 182.03125 157.203125 C108.60975646972656 157.203125 49.09022903442383 97.6832046508789 49.09022903442383 24.262107849121094 L49.09022903442383 18.9921875 L49.08984375 18.9921875 Z"></path>
<path fill="#3c58a0" fill-opacity="1.0"  filling="0" d="M112.5 46.2890625 C105.392578125 46.2890625 103.50468444824219 59.298439025878906 100.0 59.298439025878906 C96.49531555175781 59.298439025878906 94.607421875 46.2890625 87.5 46.2890625 C80.392578125 46.2890625 55.994529724121094 84.5101547241211 56.39804458618164 115.57577514648438 L100.0 115.57577514648438 L143.60195922851562 115.57577514648438 C144.00546264648438 84.5101547241211 119.607421875 46.2890625 112.5 46.2890625 Z"></path>
<path fill="#2a428c" fill-opacity="1.0"  filling="0" d="M141.4972686767578 97.6761703491211 C96.99335479736328 100.734375 68.4625015258789 70.77656555175781 76.08476257324219 57.503910064697266 C66.80351257324219 71.15469360351562 56.13007354736328 94.9417953491211 56.39804458618164 115.57577514648438 L100.0 115.57577514648438 L143.60195922851562 115.57577514648438 C143.67733764648438 109.76054382324219 142.88360595703125 103.69493103027344 141.4972686767578 97.6761703491211 Z"></path>
<path fill="#4b6bb2" fill-opacity="1.0"  filling="0" d="M162.5 110.49569702148438 C162.5 113.10194396972656 160.78358459472656 115.39374542236328 158.28477478027344 116.13436889648438 C148.97811889648438 118.892578125 125.46913146972656 125.00936889648438 100.0 125.00936889648438 C74.53085327148438 125.00936889648438 51.021873474121094 118.892578125 41.715232849121094 116.13436889648438 C39.21640396118164 115.39374542236328 37.5 113.10194396972656 37.5 110.49569702148438 C37.5 107.24883270263672 40.13203430175781 104.61640167236328 43.379295349121094 104.61640167236328 L156.62109375 104.61640167236328 C159.8679656982422 104.61640167236328 162.5 107.24883270263672 162.5 110.49569702148438 Z"></path>
<path fill="#3c58a0" fill-opacity="1.0"  filling="0" d="M89.80351257324219 114.8128890991211 C89.80351257324219 109.181640625 94.3687515258789 104.61640167236328 100.0 104.61640167236328 L43.379295349121094 104.61640167236328 C40.13241958618164 104.61640167236328 37.5 107.2484359741211 37.5 110.49569702148438 C37.5 113.10194396972656 39.21640396118164 115.39374542236328 41.715232849121094 116.13436889648438 C51.021873474121094 118.892578125 74.53085327148438 125.00936889648438 100.0 125.00936889648438 C94.3687515258789 125.00936889648438 89.80351257324219 120.44453430175781 89.80351257324219 114.8128890991211 Z"></path>
<path fill="#2a428c" fill-opacity="1.0"  filling="0" d="M182.03125 23.4375 L17.96875 23.4375 L17.96875 7.8125 C17.96875 3.4976577758789062 21.466407775878906 0.0 25.78125 0.0 L174.21875 0.0 C178.53359985351562 0.0 182.03125 3.4976577758789062 182.03125 7.8125 L182.03125 23.4375 Z"></path>
<path fill="#1c2e7a" fill-opacity="1.0"  filling="0" d="M44.74883270263672 19.53125 C44.74883270263672 17.37383270263672 46.49765396118164 15.625 48.65508270263672 15.625 L48.65508270263672 7.8125 C46.49765396118164 7.8125 44.74883270263672 6.063667297363281 44.74883270263672 3.90625 C44.74883270263672 1.7488327026367188 46.49765396118164 0.0 48.65508270263672 0.0 L25.78125 0.0 C21.466407775878906 0.0 17.96875 3.4976577758789062 17.96875 7.8125 L17.96875 23.4375 L48.65508270263672 23.4375 C46.49765396118164 23.4375 44.74883270263672 21.68866729736328 44.74883270263672 19.53125 Z"></path>
<path fill="#ff4155" fill-opacity="1.0"  filling="0" d="M169.3359375 11.71875 A3.90625 3.90625 0.0 1 1 161.5234375 11.71875 A3.90625 3.90625 0.0 1 1 169.3359375 11.71875 Z"></path>
<path fill="#ffdd40" fill-opacity="1.0"  filling="0" d="M155.6640625 11.71875 A3.90625 3.90625 0.0 1 1 147.8515625 11.71875 A3.90625 3.90625 0.0 1 1 155.6640625 11.71875 Z"></path>
<path fill="#38c674" fill-opacity="1.0"  filling="0" d="M141.9921875 11.71875 A3.90625 3.90625 0.0 1 1 134.1796875 11.71875 A3.90625 3.90625 0.0 1 1 141.9921875 11.71875 Z"></path>
<path fill="#3c58a0" fill-opacity="1.0"  filling="0" d="M34.5703125 15.625 L118.5546875 15.625 C120.71211242675781 15.625 122.4609375 13.876167297363281 122.4609375 11.71875 C122.4609375 9.561332702636719 120.71211242675781 7.8125 118.5546875 7.8125 L34.5703125 7.8125 C32.41288757324219 7.8125 30.6640625 9.561332702636719 30.6640625 11.71875 C30.6640625 13.876167297363281 32.41288757324219 15.625 34.5703125 15.625 Z"></path>
<path fill="#112360" fill-opacity="1.0"  filling="0" d="M86.3695297241211 140.79141235351562 C85.7222671508789 140.79141235351562 85.08906555175781 140.4699249267578 84.71719360351562 139.88241577148438 C84.1402359008789 138.97109985351562 84.41171264648438 137.7644500732422 85.32343292236328 137.18788146972656 C89.74531555175781 134.3894500732422 94.8207015991211 132.91055297851562 100.00116729736328 132.91055297851562 C105.17890167236328 132.91055297851562 110.251953125 134.38827514648438 114.67304229736328 137.18359375 C115.5843734741211 137.76014709472656 115.85625457763672 138.96640014648438 115.2796859741211 139.8781280517578 C114.7035140991211 140.78944396972656 113.4984359741211 141.06210327148438 112.58515167236328 140.4851531982422 C108.79022979736328 138.08514404296875 104.43907165527344 136.81680297851562 100.0015640258789 136.81680297851562 C95.5621109008789 136.81680297851562 91.208984375 138.08633422851562 87.4124984741211 140.48867797851562 C87.0882797241211 140.69375610351562 86.7269515991211 140.79141235351562 86.3695297241211 140.79141235351562 Z"></path>
<path fill="#1c2e7a" fill-opacity="1.0"  filling="0" d="M89.77812194824219 135.216796875 A17.578125 17.578125 0.0 1 1 54.62187576293945 135.216796875 A17.578125 17.578125 0.0 1 1 89.77812194824219 135.216796875 Z"></path>
<path fill="#1c2e7a" fill-opacity="1.0"  filling="0" d="M145.3781280517578 135.216796875 A17.578125 17.578125 0.0 1 1 110.22187805175781 135.216796875 A17.578125 17.578125 0.0 1 1 145.3781280517578 135.216796875 Z"></path>
<path fill="#112360" fill-opacity="1.0"  filling="0" d="M64.30624389648438 119.51171875 C61.07148361206055 121.1410140991211 58.407814025878906 123.7367172241211 56.699214935302734 126.923828125 L68.2203140258789 152.3367156982422 C69.4996109008789 152.6328125 70.83047485351562 152.79452514648438 72.1996078491211 152.79452514648438 C74.5386734008789 152.79452514648438 76.76875305175781 152.33358764648438 78.8101577758789 151.50430297851562 L64.30624389648438 119.51171875 Z"></path>
<path fill="#112360" fill-opacity="1.0"  filling="0" d="M84.92304992675781 147.33828735351562 C86.56718444824219 145.61289978027344 87.8675765991211 143.55703735351562 88.705078125 141.2761688232422 L78.52226257324219 118.81483459472656 C76.55976867675781 118.05781555175781 74.4292984008789 117.63827514648438 72.1996078491211 117.63827514648438 C71.95390319824219 117.63827514648438 71.71015930175781 117.6468734741211 71.466796875 117.65663146972656 L84.92304992675781 147.33828735351562 Z"></path>
<path fill="#112360" fill-opacity="1.0"  filling="0" d="M119.36836242675781 119.7906265258789 C116.14960479736328 121.55390930175781 113.5425796508789 124.29413604736328 111.9476547241211 127.61328125 L123.06914520263672 152.1453094482422 C124.57499694824219 152.5652313232422 126.16055297851562 152.79452514648438 127.8003921508789 152.79452514648438 C129.9250030517578 152.79452514648438 131.9617156982422 152.41757202148438 133.8468780517578 151.72694396972656 L119.36836242675781 119.7906265258789 Z"></path>
<path fill="#112360" fill-opacity="1.0"  filling="0" d="M133.3289031982422 118.53085327148438 C131.58984375 117.95468139648438 129.732421875 117.638671875 127.80000305175781 117.638671875 C127.33515930175781 117.638671875 126.87617492675781 117.662109375 126.42070007324219 117.6976547241211 L140.06796264648438 147.80078125 C141.7312469482422 146.17889404296875 143.07696533203125 144.23281860351562 143.99609375 142.06094360351562 L133.3289031982422 118.53085327148438 Z"></path></svg>