<svg xmlns="http://www.w3.org/2000/svg" viewBox="0.0 0.0 200.0 200.0" height="200.0px" width="200.0px"><path fill="#eab14d" fill-opacity="1.0"  filling="0" d="M52.92304611206055 2.9296875 L147.078125 2.9296875 L147.078125 15.204689025878906 L52.92304611206055 15.204689025878906 L52.92304611206055 2.9296875 Z"></path>
<path fill="#e49542" fill-opacity="1.0"  filling="0" d="M137.97616577148438 2.9296875 L147.078125 2.9296875 L147.078125 15.204689025878906 L137.97616577148438 15.204689025878906 L137.97616577148438 2.9296875 Z"></path>
<path fill="#eab14d" fill-opacity="1.0"  filling="0" d="M146.6632843017578 192.48907470703125 C146.888671875 195.1750030517578 144.08358764648438 197.09490966796875 141.68125915527344 195.87344360351562 C138.51602172851562 194.26406860351562 136.861328125 191.6015625 131.38711547851562 191.6015625 C123.5414047241211 191.6015625 123.5414047241211 197.0703125 115.6957015991211 197.0703125 C107.849609375 197.0703125 107.849609375 191.6015625 100.0035171508789 191.6015625 C92.1578140258789 191.6015625 92.1578140258789 197.0703125 84.31172180175781 197.0703125 C76.46484375 197.0703125 76.46484375 191.6015625 68.6175765991211 191.6015625 C63.14179992675781 191.6015625 61.48711013793945 194.26483154296875 58.3203125 195.87420654296875 C55.917579650878906 197.09530639648438 53.11328125 195.17538452148438 53.33828353881836 192.48983764648438 C59.51094055175781 118.88945007324219 41.029693603515625 57.8359375 52.92343521118164 15.204689025878906 L147.078125 15.204689025878906 C158.97186279296875 57.835548400878906 140.49063110351562 118.88905334472656 146.6632843017578 192.48907470703125 Z"></path>
<path fill="#e49542" fill-opacity="1.0"  filling="0" d="M147.078125 15.204689025878906 L137.97616577148438 15.204689025878906 C149.8699188232422 57.835548400878906 131.388671875 118.88905334472656 137.56134033203125 192.4894561767578 C137.58242797851562 192.74061584472656 137.5691375732422 192.98162841796875 137.5398406982422 193.2175750732422 C138.96913146972656 194.06875610351562 140.1484375 195.0945281982422 141.6808624267578 195.87384033203125 C144.0832061767578 197.09530639648438 146.88827514648438 195.17538452148438 146.6628875732422 192.4894561767578 C140.49063110351562 118.88905334472656 158.97186279296875 57.835548400878906 147.078125 15.204689025878906 Z"></path>
<path fill="#ffe07d" fill-opacity="1.0"  filling="0" d="M100.00273132324219 191.6015625 C104.49647521972656 191.6015625 106.41719055175781 193.39492797851562 108.71171569824219 194.927734375 L108.71171569824219 15.204689025878906 L91.2890625 15.204689025878906 L91.2890625 194.9308624267578 C93.5859375 193.3972625732422 95.5062484741211 191.6015625 100.00273132324219 191.6015625 Z"></path>
<path fill="" fill-opacity="1.0"  filling="0" d="M100.00039672851562 27.097267150878906 C98.38203430175781 27.097267150878906 97.07070922851562 28.408592224121094 97.07070922851562 30.026954650878906 L97.07070922851562 31.373046875 C97.07070922851562 32.99140930175781 98.38203430175781 34.302734375 100.00039672851562 34.302734375 C101.6187515258789 34.302734375 102.93008422851562 32.99140930175781 102.93008422851562 31.373046875 L102.93008422851562 30.026954650878906 C102.93008422851562 28.408981323242188 101.6187515258789 27.097267150878906 100.00039672851562 27.097267150878906 Z"></path>
<path fill="" fill-opacity="1.0"  filling="0" d="M100.00039672851562 52.804298400878906 C98.38203430175781 52.804298400878906 97.07070922851562 54.115623474121094 97.07070922851562 55.733985900878906 L97.07070922851562 57.080078125 C97.07070922851562 58.69844055175781 98.38203430175781 60.009765625 100.00039672851562 60.009765625 C101.6187515258789 60.009765625 102.93008422851562 58.69844055175781 102.93008422851562 57.080078125 L102.93008422851562 55.733985900878906 C102.93008422851562 54.115623474121094 101.6187515258789 52.804298400878906 100.00039672851562 52.804298400878906 Z"></path>
<path fill="" fill-opacity="1.0"  filling="0" d="M100.00039672851562 78.51054382324219 C98.38203430175781 78.51054382324219 97.07070922851562 79.82186889648438 97.07070922851562 81.44023132324219 L97.07070922851562 82.78633117675781 C97.07070922851562 84.4046859741211 98.38203430175781 85.71601867675781 100.00039672851562 85.71601867675781 C101.6187515258789 85.71601867675781 102.93008422851562 84.4046859741211 102.93008422851562 82.78633117675781 L102.93008422851562 81.44023132324219 C102.93008422851562 79.822265625 101.6187515258789 78.51054382324219 100.00039672851562 78.51054382324219 Z"></path>
<path fill="" fill-opacity="1.0"  filling="0" d="M100.00039672851562 104.2171859741211 C98.38203430175781 104.2171859741211 97.07070922851562 105.52851867675781 97.07070922851562 107.1468734741211 L97.07070922851562 108.49297332763672 C97.07070922851562 110.111328125 98.38203430175781 111.42266082763672 100.00039672851562 111.42266082763672 C101.6187515258789 111.42266082763672 102.93008422851562 110.111328125 102.93008422851562 108.49297332763672 L102.93008422851562 107.1468734741211 C102.93008422851562 105.52851867675781 101.6187515258789 104.2171859741211 100.00039672851562 104.2171859741211 Z"></path>
<path fill="" fill-opacity="1.0"  filling="0" d="M100.00039672851562 129.923828125 C98.38203430175781 129.923828125 97.07070922851562 131.2351531982422 97.07070922851562 132.853515625 L97.07070922851562 134.19961547851562 C97.07070922851562 135.81796264648438 98.38203430175781 137.12930297851562 100.00039672851562 137.12930297851562 C101.6187515258789 137.12930297851562 102.93008422851562 135.81796264648438 102.93008422851562 134.19961547851562 L102.93008422851562 132.853515625 C102.93008422851562 131.2355499267578 101.6187515258789 129.923828125 100.00039672851562 129.923828125 Z"></path>
<path fill="" fill-opacity="1.0"  filling="0" d="M100.00039672851562 155.63046264648438 C98.38203430175781 155.63046264648438 97.07070922851562 156.94180297851562 97.07070922851562 158.56015014648438 L97.07070922851562 159.90625 C97.07070922851562 161.52459716796875 98.38203430175781 162.8359375 100.00039672851562 162.8359375 C101.6187515258789 162.8359375 102.93008422851562 161.52459716796875 102.93008422851562 159.90625 L102.93008422851562 158.56015014648438 C102.93008422851562 156.94180297851562 101.6187515258789 155.63046264648438 100.00039672851562 155.63046264648438 Z"></path>
<path fill="" fill-opacity="1.0"  filling="0" d="M151.0515594482422 59.335548400878906 C149.435546875 59.291015625 148.0749969482422 60.537498474121094 148.0144500732422 62.15390396118164 C147.6027374267578 73.1839828491211 146.6628875732422 84.9222640991211 145.66757202148438 97.349609375 C143.39608764648438 125.7222671508789 140.82110595703125 157.8800811767578 143.74374389648438 192.734375 C143.765625 192.9949188232422 143.6261749267578 193.146484375 143.50546264648438 193.22772216796875 C143.26287841796875 193.3917999267578 143.0714874267578 193.294921875 143.0089874267578 193.26251220703125 C142.29258728027344 192.89804077148438 141.6199188232422 192.42929077148438 140.90740966796875 191.93280029296875 C138.8234405517578 190.48007202148438 136.22967529296875 188.67227172851562 131.38671875 188.67227172851562 C126.54374694824219 188.67227172851562 123.95000457763672 190.48007202148438 121.86563110351562 191.93319702148438 C120.02656555175781 193.21484375 118.69804382324219 194.14102172851562 115.6953125 194.14102172851562 C113.90156555175781 194.14102172851562 112.70625305175781 193.80859375 111.64140319824219 193.26953125 L111.64140319824219 18.134376525878906 L123.42109680175781 18.134376525878906 C123.42070007324219 18.137107849121094 123.4203109741211 18.139450073242188 123.4203109741211 18.142578125 C123.22187805175781 20.397659301757812 123.462890625 23.986328125 125.73945617675781 28.276168823242188 C126.265625 29.267578125 127.28008270263672 29.833206176757812 128.330078125 29.833206176757812 C128.79336547851562 29.83281707763672 129.26327514648438 29.723045349121094 129.70077514648438 29.490623474121094 C131.1300811767578 28.732421875 131.673828125 26.958984375 130.9152374267578 25.52930450439453 C129.14923095703125 22.200782775878906 129.0851593017578 19.646095275878906 129.3156280517578 18.133987426757812 L130.4363250732422 18.133987426757812 C130.5859375 19.730079650878906 131.10975646972656 21.660934448242188 132.4660186767578 23.59844207763672 C133.0359344482422 24.41289520263672 133.94491577148438 24.848434448242188 134.86874389648438 24.848434448242188 C135.44842529296875 24.848434448242188 136.03475952148438 24.676559448242188 136.5460968017578 24.318748474121094 C137.8718719482422 23.390625 138.19415283203125 21.564064025878906 137.26641845703125 20.238670349121094 C136.7527313232422 19.50469207763672 136.48867797851562 18.776168823242188 136.359375 18.133987426757812 L144.82382202148438 18.133987426757812 C147.10977172851562 27.21210479736328 148.1964874267578 37.591796875 148.23281860351562 50.55781173706055 C148.2375030517578 52.17343521118164 149.54803466796875 53.47929763793945 151.16250610351562 53.47929763793945 L151.17071533203125 53.47929763793945 C152.7890625 53.474609375 154.0968780517578 52.15937423706055 154.09219360351562 50.54140853881836 C154.05233764648438 36.19414138793945 152.7511749267578 24.829689025878906 150.00743103027344 14.8203125 L150.00743103027344 2.9296875 C150.00743103027344 1.3113250732421875 148.6960906982422 0.0 147.07774353027344 0.0 L72.5367202758789 0.0 C70.9183578491211 0.0 69.6070327758789 1.3113250732421875 69.6070327758789 2.9296875 C69.6070327758789 4.5480499267578125 70.9183578491211 5.859375 72.5367202758789 5.859375 L144.1484375 5.859375 L144.1484375 12.275001525878906 L55.85312271118164 12.275001525878906 L55.85312271118164 5.859375 L60.82304763793945 5.859375 C62.441410064697266 5.859375 63.75273513793945 4.5480499267578125 63.75273513793945 2.9296875 C63.75273513793945 1.3113250732421875 62.441410064697266 0.0 60.82304763793945 0.0 L52.92343521118164 0.0 C51.30508041381836 0.0 49.993751525878906 1.3113250732421875 49.993751525878906 2.9296875 L49.993751525878906 14.823829650878906 C43.691410064697266 37.82968521118164 45.91484069824219 65.64141082763672 48.491798400878906 97.81757354736328 C50.74609375 125.96601104736328 53.30117416381836 157.8699188232422 50.41875076293945 192.24493408203125 C50.22500228881836 194.55508422851562 51.30078125 196.79452514648438 53.226173400878906 198.08944702148438 C55.16718673706055 199.39492797851562 57.56718444824219 199.5437469482422 59.64765548706055 198.48553466796875 C60.726566314697266 197.9375 61.63984680175781 197.30117797851562 62.4453125 196.7394561767578 C64.2847671508789 195.45742797851562 65.6136703491211 194.53125 68.6171875 194.53125 C71.6207046508789 194.53125 72.94999694824219 195.45742797851562 74.7894515991211 196.7394561767578 C76.87382507324219 198.19219970703125 79.46797180175781 200.0 84.31133270263672 200.0 C88.5472640991211 200.0 90.98320770263672 198.7257843017578 93.83281707763672 196.73907470703125 C95.671875 195.45742797851562 97.0003890991211 194.53125 100.00312042236328 194.53125 C103.00625610351562 194.53125 104.33515167236328 195.45742797851562 106.17461395263672 196.7394561767578 C109.0511703491211 198.74453735351562 111.46601867675781 200.0 115.6957015991211 200.0 C120.5386734008789 200.0 123.13241577148438 198.19219970703125 125.216796875 196.73907470703125 C127.05586242675781 195.45742797851562 128.38436889648438 194.53125 131.38711547851562 194.53125 C134.3898468017578 194.53125 135.71835327148438 195.45742797851562 137.5574188232422 196.73907470703125 C138.36289978027344 197.30078125 139.275390625 197.93670654296875 140.353515625 198.48516845703125 C142.43399047851562 199.54296875 144.83477783203125 199.3953094482422 146.775390625 198.0890655517578 C148.701171875 196.79452514648438 149.7765655517578 194.55429077148438 149.58282470703125 192.244140625 C146.6999969482422 157.86875915527344 149.25469970703125 125.96484375 151.5085906982422 97.81719207763672 C152.5089874267578 85.3257827758789 153.45352172851562 73.52734375 153.87030029296875 62.373046875 C153.93008422851562 60.755859375 152.66796875 59.396480560302734 151.0515594482422 59.335548400878906 Z M94.21875 189.7531280517578 L94.21875 180.2902374267578 C94.21875 178.671875 92.90742492675781 177.3605499267578 91.2890625 177.3605499267578 C89.67070770263672 177.3605499267578 88.359375 178.671875 88.359375 180.2902374267578 L88.359375 193.271484375 C87.29609680175781 193.80938720703125 86.1015625 194.140625 84.3109359741211 194.140625 C81.30780792236328 194.140625 79.978515625 193.21444702148438 78.1390609741211 191.9324188232422 C76.0546875 190.47967529296875 73.4609375 188.671875 68.61679077148438 188.671875 C63.773433685302734 188.671875 61.179298400878906 190.47967529296875 59.09492492675781 191.9324188232422 C58.382423400878906 192.4289093017578 57.708984375 192.8984375 56.992183685302734 193.26251220703125 C56.929691314697266 193.2937469482422 56.73945617675781 193.39022827148438 56.49570083618164 193.22772216796875 C56.375003814697266 193.146484375 56.23554611206055 192.99453735351562 56.25741958618164 192.734375 C59.18046951293945 157.880859375 56.60507583618164 125.72265625 54.33242416381836 97.349609375 C51.866798400878906 66.56327819824219 49.726951599121094 39.83906555175781 55.177734375 18.133987426757812 L63.64140319824219 18.133987426757812 C63.51211166381836 18.776168823242188 63.248043060302734 19.50469207763672 62.734378814697266 20.238670349121094 C61.806644439697266 21.564453125 62.12890625 23.390625 63.454689025878906 24.318748474121094 C63.96601867675781 24.676559448242188 64.55195617675781 24.848434448242188 65.13203430175781 24.848434448242188 C66.05586242675781 24.848434448242188 66.96484375 24.412498474121094 67.5347671508789 23.59844207763672 C68.8910140991211 21.660934448242188 69.41523742675781 19.730079650878906 69.564453125 18.133987426757812 L70.68515014648438 18.133987426757812 C70.9156265258789 19.646095275878906 70.8515625 22.200782775878906 69.08554077148438 25.52930450439453 C68.32734680175781 26.958595275878906 68.8707046508789 28.732032775878906 70.30000305175781 29.490623474121094 C70.7378921508789 29.723045349121094 71.2074203491211 29.833206176757812 71.67070770263672 29.833206176757812 C72.7203140258789 29.83281707763672 73.73515319824219 29.267578125 74.26132202148438 28.276168823242188 C76.53750610351562 23.986328125 76.77851104736328 20.397659301757812 76.58047485351562 18.142578125 C76.580078125 18.139846801757812 76.5796890258789 18.13750457763672 76.5796890258789 18.134376525878906 L88.359375 18.134376525878906 L88.359375 168.57656860351562 C88.359375 170.19491577148438 89.67070770263672 171.50625610351562 91.2890625 171.50625610351562 C92.90742492675781 171.50625610351562 94.21875 170.19491577148438 94.21875 168.57656860351562 L94.21875 18.134376525878906 L105.78202819824219 18.134376525878906 L105.78202819824219 189.7511749267578 C104.27031707763672 189.12109375 102.416015625 188.67227172851562 100.00273132324219 188.67227172851562 C97.58711242675781 188.671875 95.73125457763672 189.12188720703125 94.21875 189.7531280517578 Z"></path></svg>