<svg xmlns="http://www.w3.org/2000/svg" viewBox="0.0 0.0 200.0 200.0" height="200.0px" width="200.0px"><path fill="#e8ad8c" fill-opacity="1.0"  filling="0" d="M23.622207641601562 133.91778564453125 L23.622207641601562 4.7133636474609375 C23.622207641601562 2.26837158203125 25.6043701171875 0.2866058349609375 28.04895782470703 0.2866058349609375 L171.95062255859375 0.2866058349609375 C174.3956298828125 0.2866058349609375 176.37738037109375 2.268768310546875 176.37738037109375 4.7133636474609375 L176.37738037109375 133.91778564453125 L23.622207641601562 133.91778564453125 Z"></path>
<path fill="#e19974" fill-opacity="1.0"  filling="0" d="M135.968994140625 133.91778564453125 C133.32208251953125 116.44438934326172 118.2005615234375 103.0091781616211 100.00019836425781 103.0091781616211 C81.79984283447266 103.0091781616211 66.67830657958984 116.44438934326172 64.03140258789062 133.91778564453125 L135.968994140625 133.91778564453125 Z"></path>
<path fill="#99e6fc" fill-opacity="1.0"  filling="0" d="M70.11357879638672 112.24162292480469 L36.84507369995117 112.24162292480469 C36.193180084228516 112.24162292480469 35.664527893066406 111.71295166015625 35.664527893066406 111.06106567382812 L35.664527893066406 13.509468078613281 C35.664527893066406 12.857574462890625 36.193180084228516 12.328926086425781 36.84507369995117 12.328926086425781 L163.15452575683594 12.328926086425781 C163.80641174316406 12.328926086425781 164.3350830078125 12.857574462890625 164.3350830078125 13.509468078613281 L164.3350830078125 111.06106567382812 C164.3350830078125 111.71295166015625 163.80641174316406 112.24162292480469 163.15452575683594 112.24162292480469 L129.8864288330078 112.24162292480469 L70.11357879638672 112.24162292480469 Z"></path>
<path fill="#01d0fb" fill-opacity="1.0"  filling="0" d="M75.81842803955078 112.24162292480469 L124.18197631835938 112.24162292480469 C117.74897003173828 106.50505065917969 109.2771987915039 103.0091781616211 100.00019836425781 103.0091781616211 C90.72319793701172 103.0091781616211 82.25102996826172 106.50505065917969 75.81842803955078 112.24162292480469 Z"></path>
<path fill="#62dbfb" fill-opacity="1.0"  filling="0" d="M134.07675170898438 88.15778350830078 L119.70101928710938 82.290771484375 L119.70101928710938 72.3678970336914 C125.03215789794922 67.21298217773438 128.35183715820312 59.9912109375 128.35183715820312 51.9894905090332 C128.35183715820312 36.331268310546875 115.6584243774414 23.637863159179688 100.00019836425781 23.637863159179688 C84.34197235107422 23.637863159179688 71.64857482910156 36.331268310546875 71.64857482910156 51.9894905090332 C71.64857482910156 60.190311431884766 75.13441467285156 67.5738525390625 80.7007827758789 72.75044250488281 L80.7007827758789 82.290771484375 L66.32505798339844 88.15778350830078 C63.11137008666992 89.46919250488281 61.011192321777344 92.59497833251953 61.011192321777344 96.06597137451172 L61.011192321777344 112.24162292480469 L139.39102172851562 112.24162292480469 L139.39102172851562 96.06597137451172 C139.390625 92.59497833251953 137.29043579101562 89.46919250488281 134.07675170898438 88.15778350830078 Z"></path>
<path fill="#01d0fb" fill-opacity="1.0"  filling="0" d="M79.09834289550781 88.15778350830078 L93.47406768798828 82.290771484375 L93.47406768798828 72.75044250488281 C87.90769958496094 67.5738525390625 84.42185974121094 60.190311431884766 84.42185974121094 51.9894905090332 C84.42185974121094 38.528587341308594 93.8060302734375 27.267013549804688 106.38664245605469 24.36882781982422 C104.33301544189453 23.895965576171875 102.1971206665039 23.63745880126953 99.99980163574219 23.63745880126953 C84.3415756225586 23.63745880126953 71.6481704711914 36.33087158203125 71.6481704711914 51.98908996582031 C71.6481704711914 60.18990707397461 75.13401794433594 67.57344818115234 80.70037841796875 72.75003814697266 L80.70037841796875 82.29036712646484 L66.32466125488281 88.15738677978516 C63.1109733581543 89.46879577636719 61.01078796386719 92.59457397460938 61.01078796386719 96.0655746459961 L61.01078796386719 112.2412109375 L73.78447723388672 112.2412109375 L73.78447723388672 96.0655746459961 C73.78447723388672 92.59497833251953 75.88506317138672 89.46919250488281 79.09834289550781 88.15778350830078 Z"></path>
<path fill="#dc8758" fill-opacity="1.0"  filling="0" d="M140.19143676757812 143.44406127929688 L195.43716430664062 143.44406127929688 C197.95721435546875 143.44406127929688 200.0 141.40127563476562 200.0 138.8812255859375 L200.0 128.8467559814453 C200.0 126.32670593261719 197.95721435546875 124.283935546875 195.43716430664062 124.283935546875 L137.4618377685547 124.283935546875 L62.53855895996094 124.283935546875 L4.562835693359375 124.283935546875 C2.0427780151367188 124.283935546875 0.0 126.32670593261719 0.0 128.8467559814453 L0.0 138.8812255859375 C0.0 141.40127563476562 2.0427780151367188 143.44406127929688 4.562835693359375 143.44406127929688 L59.80856704711914 143.44406127929688 L140.19143676757812 143.44406127929688 Z"></path>
<path fill="#fef48b" fill-opacity="1.0"  filling="0" d="M134.07675170898438 175.63035583496094 L119.70101928710938 169.76333618164062 L119.70101928710938 154.0950927734375 L80.70037841796875 154.0950927734375 L80.70037841796875 169.76333618164062 L66.32466125488281 175.63035583496094 C63.1109733581543 176.9417724609375 61.01078796386719 180.06756591796875 61.01078796386719 183.53854370117188 L61.01078796386719 197.3856201171875 C61.01078796386719 198.67172241210938 62.053253173828125 199.71420288085938 63.33937454223633 199.71420288085938 L137.06243896484375 199.71420288085938 C138.3485565185547 199.71420288085938 139.39102172851562 198.67172241210938 139.39102172851562 197.3856201171875 L139.39102172851562 183.53854370117188 C139.390625 180.06756591796875 137.29043579101562 176.9417724609375 134.07675170898438 175.63035583496094 Z"></path>
<path fill="#fef48b" fill-opacity="1.0"  filling="0" d="M128.35183715820312 139.38900756835938 A28.351625442504883 28.351625442504883 0.0 1 1 71.64857482910156 139.38900756835938 A28.351625442504883 28.351625442504883 0.0 1 1 128.35183715820312 139.38900756835938 Z"></path>
<path fill="#d77f4a" fill-opacity="1.0"  filling="0" d="M136.38043212890625 139.38900756835938 C136.38043212890625 134.00286865234375 135.20230102539062 128.88729858398438 133.09288024902344 124.283935546875 L66.90791320800781 124.283935546875 C64.798095703125 128.88729858398438 63.620361328125 134.00286865234375 63.620361328125 139.38900756835938 C63.620361328125 140.75982666015625 63.699039459228516 142.1121826171875 63.847557067871094 143.44406127929688 L136.1532440185547 143.44406127929688 C136.30136108398438 142.1121826171875 136.38043212890625 140.75982666015625 136.38043212890625 139.38900756835938 Z"></path>
<path fill="#fef48b" fill-opacity="1.0"  filling="0" d="M128.35183715820312 139.38900756835938 A28.351625442504883 28.351625442504883 0.0 1 1 71.64857482910156 139.38900756835938 A28.351625442504883 28.351625442504883 0.0 1 1 128.35183715820312 139.38900756835938 Z"></path>
<path fill="#fef056" fill-opacity="1.0"  filling="0" d="M75.77587890625 198.58944702148438 L75.77587890625 184.74237060546875 C75.77587890625 181.27139282226562 77.87605285644531 178.14559936523438 81.0897445678711 176.83419799804688 L89.88665771484375 173.24398803710938 C93.26051330566406 171.86712646484375 95.46546173095703 168.58560180664062 95.46546173095703 164.94200134277344 C95.46546173095703 162.80490112304688 94.70599365234375 160.7348175048828 93.31028747558594 159.11593627929688 C91.98362731933594 157.5773162841797 90.82034301757812 155.893798828125 89.84290313720703 154.0950927734375 L80.7007827758789 154.0950927734375 L80.7007827758789 169.76333618164062 L66.32505798339844 175.63035583496094 C63.11137008666992 176.9417724609375 61.011192321777344 180.06756591796875 61.011192321777344 183.53854370117188 L61.011192321777344 197.3856201171875 C61.011192321777344 198.67172241210938 62.05365753173828 199.71420288085938 63.33977508544922 199.71420288085938 L76.06609344482422 199.71420288085938 C75.8814468383789 199.38021850585938 75.77587890625 198.9972686767578 75.77587890625 198.58944702148438 Z"></path>
<path fill="#fef056" fill-opacity="1.0"  filling="0" d="M91.53605651855469 156.83432006835938 C88.3115234375 152.2345428466797 86.41325378417969 146.63768005371094 86.41325378417969 140.59364318847656 C86.41325378417969 126.6919937133789 96.42643737792969 115.13458251953125 109.62883758544922 112.71446990966797 C106.62387084960938 111.63026428222656 103.37886810302734 111.03778076171875 100.00019836425781 111.03778076171875 C84.34197235107422 111.03778076171875 71.64857482910156 123.73118591308594 71.64857482910156 139.389404296875 C71.64857482910156 152.09848022460938 80.01356506347656 162.84664916992188 91.53605651855469 166.4468994140625 L91.53605651855469 156.83432006835938 Z"></path>
<path fill="#fee903" fill-opacity="1.0"  filling="0" d="M78.78645324707031 182.09307861328125 C77.12380981445312 182.09307861328125 75.77587890625 183.44100952148438 75.77587890625 185.1036376953125 L75.77587890625 199.71337890625 L81.79703521728516 199.71337890625 L81.79703521728516 185.1036376953125 C81.79703521728516 183.44100952148438 80.4490966796875 182.09307861328125 78.78645324707031 182.09307861328125 Z"></path>
<path fill="#fef056" fill-opacity="1.0"  filling="0" d="M121.61495208740234 182.09307861328125 C119.951904296875 182.09307861328125 118.6043701171875 183.44100952148438 118.6043701171875 185.1036376953125 L118.6043701171875 199.71337890625 L124.62552642822266 199.71337890625 L124.62552642822266 185.1036376953125 C124.62552642822266 183.44100952148438 123.27799987792969 182.09307861328125 121.61495208740234 182.09307861328125 Z"></path>
<path fill="#01d0fb" fill-opacity="1.0"  filling="0" d="M78.78645324707031 107.9469223022461 C77.12380981445312 107.9469223022461 75.77587890625 106.59899139404297 75.77587890625 104.93634796142578 L75.77587890625 97.6314697265625 C75.77587890625 95.96882629394531 77.12380981445312 94.62089538574219 78.78645324707031 94.62089538574219 C80.4490966796875 94.62089538574219 81.79703521728516 95.96882629394531 81.79703521728516 97.6314697265625 L81.79703521728516 104.93634796142578 C81.79703521728516 106.59939575195312 80.4490966796875 107.9469223022461 78.78645324707031 107.9469223022461 Z"></path>
<path fill="#01d0fb" fill-opacity="1.0"  filling="0" d="M121.61495208740234 108.28973388671875 C119.951904296875 108.28973388671875 118.6043701171875 106.9417953491211 118.6043701171875 105.2791519165039 L118.6043701171875 97.6314697265625 C118.6043701171875 95.96882629394531 119.951904296875 94.62089538574219 121.61495208740234 94.62089538574219 C123.27799987792969 94.62089538574219 124.62552642822266 95.96882629394531 124.62552642822266 97.6314697265625 L124.62552642822266 105.2791519165039 C124.62552642822266 106.94218444824219 123.27799987792969 108.28973388671875 121.61495208740234 108.28973388671875 Z"></path>
<path fill="#b5adb6" fill-opacity="1.0"  filling="0" d="M100.00019836425781 71.30977630615234 C92.24333953857422 71.30977630615234 85.26321411132812 66.68994903564453 82.21771240234375 59.54042434692383 C81.5658187866211 58.01064682006836 82.27792358398438 56.242435455322266 83.80770111083984 55.590946197509766 C85.33707427978516 54.939056396484375 87.10528564453125 55.6507568359375 87.75717163085938 57.180931091308594 C89.8553466796875 62.106239318847656 94.6610336303711 65.28861999511719 100.00019836425781 65.28861999511719 C105.33976745605469 65.28861999511719 110.1450424194336 62.106239318847656 112.24322509765625 57.180931091308594 C112.89470672607422 55.65155792236328 114.6617202758789 54.93865203857422 116.19309997558594 55.590946197509766 C117.7228775024414 56.242435455322266 118.4345703125 58.01064682006836 117.78308868408203 59.54042434692383 C114.73758697509766 66.68994903564453 107.75706481933594 71.30977630615234 100.00019836425781 71.30977630615234 Z"></path>
<path fill="#b5adb6" fill-opacity="1.0"  filling="0" d="M90.8002700805664 46.532310485839844 C89.13762664794922 46.532310485839844 87.78968811035156 45.18437957763672 87.78968811035156 43.521732330322266 L87.78968811035156 40.611106872558594 C87.78968811035156 38.94846725463867 89.13762664794922 37.600528717041016 90.8002700805664 37.600528717041016 C92.4629135131836 37.600528717041016 93.81085205078125 38.94846725463867 93.81085205078125 40.611106872558594 L93.81085205078125 43.521732330322266 C93.81085205078125 45.18437957763672 92.4629135131836 46.532310485839844 90.8002700805664 46.532310485839844 Z"></path>
<path fill="#b5adb6" fill-opacity="1.0"  filling="0" d="M108.52976989746094 46.532310485839844 C106.86672973632812 46.532310485839844 105.51919555664062 45.18437957763672 105.51919555664062 43.521732330322266 L105.51919555664062 40.611106872558594 C105.51919555664062 38.94846725463867 106.86672973632812 37.600528717041016 108.52976989746094 37.600528717041016 C110.19281768798828 37.600528717041016 111.54035186767578 38.94846725463867 111.54035186767578 40.611106872558594 L111.54035186767578 43.521732330322266 C111.54035186767578 45.18437957763672 110.19241333007812 46.532310485839844 108.52976989746094 46.532310485839844 Z"></path>
<path fill="#c8effe" fill-opacity="1.0"  filling="0" d="M35.664527893066406 57.68389892578125 L35.664527893066406 67.87772369384766 L38.083824157714844 64.53517150878906 C48.57789611816406 50.36658477783203 61.10231018066406 33.40216827392578 75.3262939453125 14.091514587402344 L76.59877014160156 12.328926086425781 L69.14617919921875 12.328926086425781 C56.559146881103516 29.415367126464844 45.32004928588867 44.64006042480469 35.664527893066406 57.68389892578125 Z"></path>
<path fill="#c8effe" fill-opacity="1.0"  filling="0" d="M60.08192825317383 73.34051513671875 C58.7452278137207 72.35184478759766 56.860206604003906 72.63323211669922 55.87112808227539 73.96952819824219 C48.20659637451172 84.32711791992188 41.42436599731445 93.46804809570312 35.66492462158203 101.20121765136719 L35.66492462158203 110.99162292480469 L37.99430847167969 108.14682006835938 C38.02321243286133 108.11150360107422 38.051307678222656 108.07577514648438 38.078208923339844 108.03924560546875 C44.32897186279297 99.65739440917969 51.943729400634766 89.39934539794922 60.711334228515625 77.55091094970703 C61.700008392333984 76.21461486816406 61.41822052001953 74.32919311523438 60.08192825317383 73.34051513671875 Z"></path>
<path fill="#c8effe" fill-opacity="1.0"  filling="0" d="M164.33546447753906 13.486991882324219 C164.33546447753906 13.486991882324219 149.9356689453125 33.73896026611328 143.63272094726562 42.30907440185547 C142.6476593017578 43.64857482910156 142.93507385253906 45.533203125 144.2745819091797 46.51826858520508 C144.81166076660156 46.91325378417969 145.43666076660156 47.103519439697266 146.0560302734375 47.103519439697266 C146.98089599609375 47.103519439697266 147.89369201660156 46.678829193115234 148.4837646484375 45.87641143798828 C153.93814086914062 38.45994567871094 159.26043701171875 31.21930694580078 164.33587646484375 24.310630798339844 L164.33587646484375 13.486991882324219 L164.33546447753906 13.486991882324219 Z"></path>
<path fill="#c8effe" fill-opacity="1.0"  filling="0" d="M164.33546447753906 57.314605712890625 L161.68374633789062 61.5113525390625 C156.69822692871094 68.28956604003906 151.60633850097656 75.20867919921875 146.49758911132812 82.14545440673828 C145.51171875 83.48416137695312 145.7979278564453 85.36878204345703 147.1366424560547 86.35465240478516 C147.67413330078125 86.75044250488281 148.2991180419922 86.94110870361328 148.91929626464844 86.94110870361328 C149.84375 86.94110870361328 150.75575256347656 86.51681518554688 151.3458251953125 85.7155990600586 C155.7079620361328 79.79238891601562 160.05361938476562 73.8880386352539 164.33546447753906 68.06719207763672 L164.33546447753906 57.314605712890625 Z"></path></svg>