<svg xmlns="http://www.w3.org/2000/svg" viewBox="0.0 0.0 200.0 200.0" height="200.0px" width="200.0px"><path fill="#b3dafe" fill-opacity="1.0"  filling="0" d="M112.15116882324219 79.55313110351562 C111.26797485351562 79.55313110351562 110.54960632324219 78.83476257324219 110.54960632324219 77.9515609741211 L110.54960632324219 54.91913986206055 L6.374610900878906 54.91913986206055 L6.374610900878906 171.44375610351562 C6.374610900878906 173.64413452148438 8.158203125 175.427734375 10.358596801757812 175.427734375 L183.26678466796875 175.427734375 C185.46719360351562 175.427734375 187.2507781982422 173.64413452148438 187.2507781982422 171.44375610351562 L187.2507781982422 79.55313110351562 L112.15116882324219 79.55313110351562 Z"></path>
<path fill="#fff" fill-opacity="1.0"  filling="0" d="M172.83203125 128.34335327148438 L172.83203125 123.1781234741211 L129.8230438232422 101.32109069824219 C127.369140625 96.5902328491211 122.4300765991211 93.3558578491211 116.7328109741211 93.3558578491211 C108.99882507324219 93.3558578491211 102.6605453491211 99.3128890991211 102.0453109741211 106.8882827758789 L93.09725952148438 104.05741882324219 C89.3082046508789 91.7769546508789 77.8167953491211 82.8753890991211 64.26406860351562 82.99883270263672 C47.805076599121094 83.1484375 34.66133117675781 96.81405639648438 34.66133117675781 113.27381896972656 L34.66133117675781 124.99883270263672 C34.66133117675781 125.26953125 34.669532775878906 125.5386734008789 34.681640625 125.806640625 L35.04413604736328 125.95897674560547 C35.126953125 124.09687042236328 35.53984069824219 122.25390625 36.298828125 120.4691390991211 C38.775390625 114.6429672241211 44.46601867675781 110.87812042236328 50.796485900878906 110.87812042236328 C51.8125 110.87812042236328 52.84414291381836 110.97577667236328 53.86367416381836 111.16757202148438 C59.953125 112.3148422241211 64.9066390991211 117.18006896972656 66.189453125 123.27342987060547 C66.74609375 125.9175796508789 66.646484375 128.54844665527344 65.89375305175781 131.09375 L65.74531555175781 131.59530639648438 L75.744140625 131.59530639648438 C78.5550765991211 131.59530639648438 80.9195327758789 133.6281280517578 81.24336242675781 136.3234405517578 C81.43047332763672 137.87774658203125 80.9613265991211 139.3781280517578 79.9242172241211 140.54727172851562 C78.8980484008789 141.7039031982422 77.4300765991211 142.36758422851562 75.896484375 142.36758422851562 L75.896484375 143.14883422851562 L143.40585327148438 143.14883422851562 L145.06600952148438 142.75820922851562 C156.1847686767578 142.75820922851562 166.4968719482422 137.3484344482422 172.83749389648438 128.447265625 C172.8359375 128.41249084472656 172.83203125 128.37850952148438 172.83203125 128.34335327148438 Z"></path>
<path fill="#ffe5c2" fill-opacity="1.0"  filling="0" d="M116.07695770263672 142.75820922851562 L116.07695770263672 137.5812530517578 C116.07695770263672 132.6691436767578 112.08085632324219 128.6730499267578 107.16874694824219 128.6730499267578 L101.9921875 128.6730499267578 C100.37382507324219 128.6730499267578 99.0625 129.98475646972656 99.0625 131.6027374267578 C99.0625 133.220703125 100.37382507324219 134.5324249267578 101.9921875 134.5324249267578 L107.16913604736328 134.5324249267578 C108.85039520263672 134.5324249267578 110.21796417236328 135.89999389648438 110.21796417236328 137.5812530517578 L110.21796417236328 142.75820922851562 L116.07695770263672 142.75820922851562 Z"></path>
<path fill="#8ac9fe" fill-opacity="1.0"  filling="0" d="M22.111717224121094 171.443359375 L22.111717224121094 54.91913986206055 L6.374610900878906 54.91913986206055 L6.374610900878906 171.44375610351562 C6.374610900878906 173.64413452148438 8.158203125 175.427734375 10.358596801757812 175.427734375 L26.095703125 175.427734375 C23.895309448242188 175.427734375 22.111717224121094 173.6437530517578 22.111717224121094 171.443359375 Z"></path>
<path fill="#ffbd86" fill-opacity="1.0"  filling="0" d="M6.374610900878906 142.75820922851562 L6.374610900878906 171.443359375 C6.374610900878906 173.6437530517578 8.158203125 175.42733764648438 10.358596801757812 175.42733764648438 L183.26678466796875 175.42733764648438 C185.46719360351562 175.42733764648438 187.2507781982422 173.6437530517578 187.2507781982422 171.443359375 L187.2507781982422 142.75820922851562 L6.374610900878906 142.75820922851562 Z"></path>
<path fill="#f6a96c" fill-opacity="1.0"  filling="0" d="M22.111717224121094 171.443359375 L22.111717224121094 142.75820922851562 L6.374610900878906 142.75820922851562 L6.374610900878906 171.443359375 C6.374610900878906 173.6437530517578 8.158203125 175.42733764648438 10.358596801757812 175.42733764648438 L26.095703125 175.42733764648438 C23.895309448242188 175.427734375 22.111717224121094 173.6437530517578 22.111717224121094 171.443359375 Z"></path>
<path fill="#fff" fill-opacity="1.0"  filling="0" d="M88.3570327758789 157.3585968017578 L32.071876525878906 157.3585968017578 C25.66875457763672 157.3585968017578 20.459762573242188 152.14923095703125 20.459762573242188 145.74609375 C20.459762573242188 139.34295654296875 25.66875457763672 134.1339874267578 32.071876525878906 134.1339874267578 L36.36835861206055 134.1339874267578 L36.68203353881836 133.91171264648438 C35.849220275878906 132.09725952148438 35.329689025878906 130.24960327148438 35.126564025878906 128.40545654296875 L34.74687194824219 128.2746124267578 L32.07227325439453 128.2746124267578 C22.43866729736328 128.2746124267578 14.600776672363281 136.1121063232422 14.600776672363281 145.74609375 C14.600776672363281 155.3800811767578 22.438278198242188 163.2179718017578 32.07227325439453 163.2179718017578 L88.3578109741211 163.2179718017578 C89.9761734008789 163.2179718017578 91.2874984741211 161.90625 91.2874984741211 160.2882843017578 C91.2874984741211 158.67031860351562 89.97539520263672 157.3585968017578 88.3570327758789 157.3585968017578 Z"></path>
<path fill="#ffe5c2" fill-opacity="1.0"  filling="0" d="M75.7437515258789 131.2042999267578 L66.26835632324219 131.2042999267578 C67.0 128.73008728027344 67.16522979736328 126.01288604736328 66.57148742675781 123.19296264648438 C65.25078582763672 116.92031860351562 60.23554992675781 111.97032165527344 53.93632507324219 110.78358459472656 C38.91913986206055 107.95429992675781 26.681640625 125.95156860351562 41.09492492675781 140.90390014648438 C42.230079650878906 142.0812530517578 43.789451599121094 142.75820922851562 45.42499923706055 142.75820922851562 L75.896484375 142.75820922851562 C79.30585479736328 142.75820922851562 82.05000305175781 139.76524353027344 81.630859375 136.27694702148438 C81.279296875 133.35040283203125 78.6910171508789 131.2042999267578 75.7437515258789 131.2042999267578 Z"></path>
<path fill="#60b7ff" fill-opacity="1.0"  filling="0" d="M184.3210906982422 79.55313110351562 L184.3210906982422 171.44375610351562 C184.3210906982422 172.02499389648438 183.84805297851562 172.498046875 183.26678466796875 172.498046875 L10.358596801757812 172.498046875 C9.77734375 172.498046875 9.304298400878906 172.02499389648438 9.304298400878906 171.44375610351562 L9.304298400878906 54.91913986206055 L3.4449234008789062 54.91913986206055 L3.4449234008789062 171.44375610351562 C3.4449234008789062 175.255859375 6.546089172363281 178.357421875 10.358596801757812 178.357421875 L183.26718139648438 178.357421875 C187.07968139648438 178.357421875 190.1808624267578 175.255859375 190.1808624267578 171.44375610351562 L190.1808624267578 79.55313110351562 L184.3210906982422 79.55313110351562 Z"></path>
<path fill="#d8ecfe" fill-opacity="1.0"  filling="0" d="M110.54999542236328 35.78437805175781 L2.0339813232421875 35.78437805175781 C0.9105453491210938 35.78437805175781 0.0 36.69491958618164 0.0 37.818359375 L0.0 53.27578353881836 C0.0 54.39921569824219 0.9105453491210938 55.30976486206055 2.0339813232421875 55.30976486206055 L110.54999542236328 55.30976486206055 L110.54999542236328 35.78437805175781 Z"></path>
<path fill="#b3dafe" fill-opacity="1.0"  filling="0" d="M18.1015625 53.27578353881836 L18.1015625 37.818359375 C18.1015625 36.69491958618164 19.012107849121094 35.78437805175781 20.135543823242188 35.78437805175781 L2.0339813232421875 35.78437805175781 C0.9105453491210938 35.78437805175781 0.0 36.69491958618164 0.0 37.818359375 L0.0 53.27578353881836 C0.0 54.39921569824219 0.9105453491210938 55.30976486206055 2.0339813232421875 55.30976486206055 L20.135543823242188 55.30976486206055 C19.012107849121094 55.30976486206055 18.1015625 54.39921569824219 18.1015625 53.27578353881836 Z"></path>
<path fill="#ffbd86" fill-opacity="1.0"  filling="0" d="M116.73320770263672 114.93281555175781 C112.96367645263672 114.93281555175781 109.89727020263672 111.86602020263672 109.89727020263672 108.09687805175781 C109.89727020263672 104.3277359008789 112.96367645263672 101.26093292236328 116.73320770263672 101.26093292236328 C120.50273132324219 101.26093292236328 123.56914520263672 104.3277359008789 123.56914520263672 108.09687805175781 C123.56914520263672 110.31405639648438 122.57890319824219 111.84687805175781 121.74882507324219 112.7421875 C120.9898452758789 113.56015014648438 119.32890319824219 114.93281555175781 116.73320770263672 114.93281555175781 Z"></path>
<path fill="#fe8a56" fill-opacity="1.0"  filling="0" d="M144.22305297851562 127.36133575439453 C142.60467529296875 127.36133575439453 141.29336547851562 126.04961395263672 141.29336547851562 124.43164825439453 L141.29336547851562 120.8460922241211 C141.29336547851562 119.2281265258789 142.60467529296875 117.9164047241211 144.22305297851562 117.9164047241211 C145.84140014648438 117.9164047241211 147.15274047851562 119.2281265258789 147.15274047851562 120.8460922241211 L147.15274047851562 124.43164825439453 C147.15274047851562 126.04961395263672 145.84140014648438 127.36133575439453 144.22305297851562 127.36133575439453 Z"></path>
<path fill="#fff3de" fill-opacity="1.0"  filling="0" d="M198.0078125 79.943359375 L112.15156555175781 79.943359375 C111.05155944824219 79.943359375 110.15937042236328 79.05155944824219 110.15937042236328 77.951171875 L110.15937042236328 23.634765625 C110.15937042236328 22.534767150878906 111.05116271972656 21.642578125 112.15156555175781 21.642578125 L198.0078125 21.642578125 C199.10781860351562 21.642578125 200.0 22.534378051757812 200.0 23.634765625 L200.0 77.9515609741211 C200.0 79.05155944824219 199.10821533203125 79.943359375 198.0078125 79.943359375 Z"></path>
<path fill="#0ed290" fill-opacity="1.0"  filling="0" d="M169.47813415527344 64.0238265991211 L169.47813415527344 39.32421875 C169.47813415527344 37.70624923706055 168.1667938232422 36.39453125 166.54844665527344 36.39453125 C164.93008422851562 36.39453125 163.61875915527344 37.70624923706055 163.61875915527344 39.32421875 L163.61875915527344 64.0238265991211 L169.47813415527344 64.0238265991211 Z"></path>
<path fill="#1e9efd" fill-opacity="1.0"  filling="0" d="M158.00936889648438 64.0238265991211 L158.00936889648438 46.01445007324219 C158.00936889648438 44.396484375 156.6980438232422 43.08476257324219 155.07968139648438 43.08476257324219 C153.46133422851562 43.08476257324219 152.14999389648438 44.396484375 152.14999389648438 46.01445007324219 L152.14999389648438 64.0238265991211 L158.00936889648438 64.0238265991211 Z"></path>
<path fill="#fe653b" fill-opacity="1.0"  filling="0" d="M180.94766235351562 64.0238265991211 L180.94766235351562 53.66015625 C180.94766235351562 52.04218673706055 179.63632202148438 50.73046875 178.01797485351562 50.73046875 C176.3996124267578 50.73046875 175.08828735351562 52.04218673706055 175.08828735351562 53.66015625 L175.08828735351562 64.0238265991211 L180.94766235351562 64.0238265991211 Z"></path>
<path fill="#fe653b" fill-opacity="1.0"  filling="0" d="M135.07110595703125 64.0238265991211 L135.07110595703125 56.527732849121094 C135.07110595703125 54.909767150878906 133.759765625 53.598045349121094 132.14141845703125 53.598045349121094 C130.52305603027344 53.598045349121094 129.21173095703125 54.909767150878906 129.21173095703125 56.527732849121094 L129.21173095703125 64.0238265991211 L135.07110595703125 64.0238265991211 Z"></path>
<path fill="#fac600" fill-opacity="1.0"  filling="0" d="M146.54063415527344 64.0238265991211 L146.54063415527344 53.66015625 C146.54063415527344 52.04218673706055 145.2292938232422 50.73046875 143.61094665527344 50.73046875 C141.99258422851562 50.73046875 140.68125915527344 52.04218673706055 140.68125915527344 53.66015625 L140.68125915527344 64.0238265991211 L146.54063415527344 64.0238265991211 Z"></path>
<path fill="#ffe5c2" fill-opacity="1.0"  filling="0" d="M123.705078125 77.9515609741211 L123.705078125 23.634765625 C123.705078125 22.534767150878906 124.59687042236328 21.642578125 125.697265625 21.642578125 L112.15156555175781 21.642578125 C111.05155944824219 21.642578125 110.15937042236328 22.534378051757812 110.15937042236328 23.634765625 L110.15937042236328 77.9515609741211 C110.15937042236328 79.05155944824219 111.05116271972656 79.94375610351562 112.15156555175781 79.94375610351562 L125.697265625 79.94375610351562 C124.59687042236328 79.943359375 123.705078125 79.05155944824219 123.705078125 77.9515609741211 Z"></path>
<path fill="#ffbd86" fill-opacity="1.0"  filling="0" d="M125.79452514648438 32.20039367675781 A2.9296875 2.9296875 0.0 1 1 119.93515014648438 32.20039367675781 A2.9296875 2.9296875 0.0 1 1 125.79452514648438 32.20039367675781 Z"></path>
<path fill="#ffbd86" fill-opacity="1.0"  filling="0" d="M133.60702514648438 32.20039367675781 A2.9296875 2.9296875 0.0 1 1 127.74765014648438 32.20039367675781 A2.9296875 2.9296875 0.0 1 1 133.60702514648438 32.20039367675781 Z"></path>
<path fill="#ffbd86" fill-opacity="1.0"  filling="0" d="M141.41952514648438 32.20039367675781 A2.9296875 2.9296875 0.0 1 1 135.56015014648438 32.20039367675781 A2.9296875 2.9296875 0.0 1 1 141.41952514648438 32.20039367675781 Z"></path>
<path fill="#60b7ff" fill-opacity="1.0"  filling="0" d="M18.924217224121094 78.357421875 C17.305862426757812 78.357421875 15.994529724121094 77.04570007324219 15.994529724121094 75.427734375 L15.994529724121094 64.67070770263672 C15.994529724121094 63.052730560302734 17.305862426757812 61.74102020263672 18.924217224121094 61.74102020263672 C20.542579650878906 61.74102020263672 21.853904724121094 63.052730560302734 21.853904724121094 64.67070770263672 L21.853904724121094 75.427734375 C21.853904724121094 77.04570007324219 20.542579650878906 78.357421875 18.924217224121094 78.357421875 Z"></path>
<path fill="#60b7ff" fill-opacity="1.0"  filling="0" d="M27.290626525878906 78.357421875 C25.672271728515625 78.357421875 24.360939025878906 77.04570007324219 24.360939025878906 75.427734375 L24.360939025878906 64.67070770263672 C24.360939025878906 63.052730560302734 25.672271728515625 61.74102020263672 27.290626525878906 61.74102020263672 C28.90898895263672 61.74102020263672 30.220314025878906 63.052730560302734 30.220314025878906 64.67070770263672 L30.220314025878906 75.427734375 C30.220314025878906 77.04570007324219 28.90898895263672 78.357421875 27.290626525878906 78.357421875 Z"></path>
<path fill="#60b7ff" fill-opacity="1.0"  filling="0" d="M35.65741729736328 78.357421875 C34.0390625 78.357421875 32.72772979736328 77.04570007324219 32.72772979736328 75.427734375 L32.72772979736328 64.67070770263672 C32.72772979736328 63.052730560302734 34.0390625 61.74102020263672 35.65741729736328 61.74102020263672 C37.275779724121094 61.74102020263672 38.58710479736328 63.052730560302734 38.58710479736328 64.67070770263672 L38.58710479736328 75.427734375 C38.58710479736328 77.04570007324219 37.275779724121094 78.357421875 35.65741729736328 78.357421875 Z"></path>
<path fill="#60b7ff" fill-opacity="1.0"  filling="0" d="M44.02382278442383 78.357421875 C42.40546798706055 78.357421875 41.09413528442383 77.04570007324219 41.09413528442383 75.427734375 L41.09413528442383 64.67070770263672 C41.09413528442383 63.052730560302734 42.40546798706055 61.74102020263672 44.02382278442383 61.74102020263672 C45.64218521118164 61.74102020263672 46.95351028442383 63.052730560302734 46.95351028442383 64.67070770263672 L46.95351028442383 75.427734375 C46.95351028442383 77.04570007324219 45.64218521118164 78.357421875 44.02382278442383 78.357421875 Z"></path>
<path fill="#bb5d4c" fill-opacity="1.0"  filling="0" d="M175.37109375 131.27304077148438 C173.75274658203125 131.27304077148438 172.44140625 129.96131896972656 172.44140625 128.34335327148438 L172.44140625 121.171875 C172.44140625 119.55390930175781 173.75274658203125 118.2421875 175.37109375 118.2421875 C176.98944091796875 118.2421875 178.30078125 119.55390930175781 178.30078125 121.171875 L178.30078125 128.3429718017578 C178.30078125 129.96131896972656 176.98944091796875 131.27304077148438 175.37109375 131.27304077148438 Z"></path>
<path fill="#6e61b6" fill-opacity="1.0"  filling="0" d="M183.03515625 69.4925765991211 L127.12421417236328 69.4925765991211 C125.50586700439453 69.4925765991211 124.19452667236328 68.18086242675781 124.19452667236328 66.5628890991211 C124.19452667236328 64.9449234008789 125.50586700439453 63.633201599121094 127.12421417236328 63.633201599121094 L183.03515625 63.633201599121094 C184.6535186767578 63.633201599121094 185.96484375 64.9449234008789 185.96484375 66.5628890991211 C185.96484375 68.18086242675781 184.6535186767578 69.4925765991211 183.03515625 69.4925765991211 Z"></path></svg>