<svg xmlns="http://www.w3.org/2000/svg" viewBox="0.0 0.0 200.0 200.0" height="200.0px" width="200.0px"><path fill="#802f34" fill-opacity="1.0"  filling="0" d="M88.90690612792969 183.73741149902344 L44.637081146240234 183.73741149902344 L44.637081146240234 170.37298583984375 L75.75508117675781 170.37298583984375 L88.90690612792969 183.73741149902344 Z"></path>
<path fill="#802f34" fill-opacity="1.0"  filling="0" d="M128.05186462402344 170.37298583984375 L155.45181274414062 170.37298583984375 L155.45181274414062 183.73741149902344 L116.47090148925781 183.73741149902344 L128.05186462402344 170.37298583984375 Z"></path>
<path fill="#e64c3c" fill-opacity="1.0"  filling="0" d="M70.2660903930664 160.35073852539062 C68.3115234375 160.34603881835938 66.45327758789062 161.19647216796875 65.17920684814453 162.6800079345703 C63.90670394897461 164.16355895996094 63.346805572509766 166.13026428222656 63.648292541503906 168.06211853027344 C66.8475570678711 187.04278564453125 81.7828369140625 197.10183715820312 99.76468658447266 197.10183715820312 C117.74653625488281 197.10183715820312 132.68142700195312 187.04278564453125 135.88265991210938 168.06211853027344 C136.18374633789062 166.13026428222656 135.62423706054688 164.16355895996094 134.3517303466797 162.6800079345703 C133.07766723632812 161.19647216796875 131.21942138671875 160.34603881835938 129.2648468017578 160.35073852539062 L70.2660903930664 160.35073852539062 Z"></path>
<path fill="#802f34" fill-opacity="1.0"  filling="0" d="M109.78849792480469 150.32655334472656 L89.74205780029297 150.32655334472656 C87.89595031738281 150.32655334472656 86.4002685546875 148.83087158203125 86.4002685546875 146.98475646972656 C86.4002685546875 145.1402130126953 87.89595031738281 143.64453125 89.74205780029297 143.64453125 L109.78849792480469 143.64453125 C111.63304138183594 143.64453125 113.12910461425781 145.1402130126953 113.12910461425781 146.98475646972656 C113.12910461425781 148.83087158203125 111.63304138183594 150.32655334472656 109.78849792480469 150.32655334472656 Z"></path>
<path fill="#e64c3c" fill-opacity="1.0"  filling="0" d="M143.03294372558594 43.07522964477539 C143.12770080566406 44.01884078979492 142.81719970703125 44.956573486328125 142.1809539794922 45.657039642333984 C141.5431365966797 46.35906982421875 140.6390838623047 46.75687026977539 139.6923370361328 46.7506103515625 L129.73587036132812 46.7506103515625 C128.1528778076172 46.74747848510742 126.79149627685547 47.870025634765625 126.49470520019531 49.424041748046875 C125.06950378417969 54.84294891357422 121.43248748779297 59.41456604003906 116.47090148925781 62.02065658569336 C114.36167907714844 63.274757385253906 112.12089538574219 64.29511260986328 109.78849792480469 65.06135559082031 C108.69962310791016 65.45446014404297 107.58333587646484 65.76612091064453 106.44670104980469 65.99555969238281 C105.34882354736328 66.26651000976562 104.2321548461914 66.45601654052734 103.10647583007812 66.56446838378906 C100.89036560058594 66.87652587890625 98.64057159423828 66.87652587890625 96.4244613647461 66.56446838378906 C95.29878997802734 66.45601654052734 94.18054962158203 66.26651000976562 93.082275390625 65.99555969238281 C91.94760131835938 65.7297134399414 90.84502410888672 65.42822265625 89.74205780029297 65.06135559082031 C87.40338897705078 64.29627990722656 85.16143035888672 63.2657470703125 83.0600357055664 61.98698425292969 C78.09532165527344 59.40203857421875 74.45361328125 54.838253021240234 73.03584289550781 49.424041748046875 C72.73905181884766 47.870025634765625 71.37805938720703 46.74747848510742 69.7950668334961 46.7506103515625 L59.838218688964844 46.7506103515625 C58.891475677490234 46.75687026977539 57.986236572265625 46.35906982421875 57.34998321533203 45.657039642333984 C56.712162017822266 44.956573486328125 56.403236389160156 44.01884078979492 56.497989654541016 43.07522964477539 C58.46939468383789 20.649009704589844 77.25115966796875 3.4471054077148438 99.76468658447266 3.4471054077148438 C122.27821350097656 3.4471054077148438 141.0599822998047 20.649009704589844 143.03294372558594 43.07522964477539 Z"></path>
<path fill="#2c2f38" fill-opacity="1.0"  filling="0" d="M89.74205780029297 30.04595947265625 C89.74205780029297 33.736610412597656 86.75029754638672 36.72798156738281 83.0600357055664 36.72798156738281 C79.369384765625 36.72798156738281 76.37763977050781 33.736610412597656 76.37763977050781 30.04595947265625 C76.37763977050781 26.355308532714844 79.369384765625 23.36395263671875 83.0600357055664 23.36395263671875 C86.75029754638672 23.36395263671875 89.74205780029297 26.355308532714844 89.74205780029297 30.04595947265625 Z"></path>
<path fill="#2c2f38" fill-opacity="1.0"  filling="0" d="M123.15291595458984 30.04595947265625 C123.15291595458984 33.736610412597656 120.16154479980469 36.72798156738281 116.47090148925781 36.72798156738281 C112.7802505493164 36.72798156738281 109.78849792480469 33.736610412597656 109.78849792480469 30.04595947265625 C109.78849792480469 26.355308532714844 112.7802505493164 23.36395263671875 116.47090148925781 23.36395263671875 C120.16154479980469 23.36395263671875 123.15291595458984 26.355308532714844 123.15291595458984 30.04595947265625 Z"></path>
<path fill="#802f34" fill-opacity="1.0"  filling="0" d="M89.74205780029297 50.092403411865234 L89.74205780029297 65.06135559082031 C87.40338897705078 64.29627990722656 85.16143035888672 63.2657470703125 83.0600357055664 61.98698425292969 L83.0600357055664 50.092403411865234 C83.0600357055664 48.247859954833984 84.55572509765625 46.7506103515625 86.4002685546875 46.7506103515625 C88.24637603759766 46.7506103515625 89.74205780029297 48.247859954833984 89.74205780029297 50.092403411865234 Z"></path>
<path fill="#802f34" fill-opacity="1.0"  filling="0" d="M116.47090148925781 50.092403411865234 L116.47090148925781 62.02065658569336 C114.36167907714844 63.274757385253906 112.12089538574219 64.29511260986328 109.78849792480469 65.06135559082031 L109.78849792480469 50.092403411865234 C109.78849792480469 48.247859954833984 111.28456115722656 46.7506103515625 113.12910461425781 46.7506103515625 C114.9748306274414 46.7506103515625 116.47090148925781 48.247859954833984 116.47090148925781 50.092403411865234 Z"></path>
<path fill="#802f34" fill-opacity="1.0"  filling="0" d="M103.10647583007812 53.4341926574707 L103.10647583007812 66.56446838378906 C100.89036560058594 66.87652587890625 98.64057159423828 66.87652587890625 96.4244613647461 66.56446838378906 L96.4244613647461 53.4341926574707 C96.4244613647461 51.58808517456055 97.9201431274414 50.092403411865234 99.76468658447266 50.092403411865234 C101.61079406738281 50.092403411865234 103.10647583007812 51.58808517456055 103.10647583007812 53.4341926574707 Z"></path>
<path fill="#802f34" fill-opacity="1.0"  filling="0" d="M50.4169921875 93.52745819091797 L74.57302856445312 93.52745819091797 L74.57302856445312 106.89187622070312 L50.4169921875 106.89187622070312 L50.4169921875 93.52745819091797 Z"></path>
<path fill="#802f34" fill-opacity="1.0"  filling="0" d="M124.9579086303711 93.52745819091797 L149.11395263671875 93.52745819091797 L149.11395263671875 106.89187622070312 L124.9579086303711 106.89187622070312 L124.9579086303711 93.52745819091797 Z"></path>
<path fill="#802f34" fill-opacity="1.0"  filling="0" d="M93.082275390625 65.99555969238281 L106.44670104980469 65.99555969238281 L106.44670104980469 80.83139038085938 L93.082275390625 80.83139038085938 L93.082275390625 65.99555969238281 Z"></path>
<path fill="#802f34" fill-opacity="1.0"  filling="0" d="M109.78849792480469 177.05538940429688 C109.78849792480469 173.36474609375 105.30106353759766 170.37298583984375 99.76468658447266 170.37298583984375 C94.2294921875 170.37298583984375 89.74205780029297 173.36474609375 89.74205780029297 177.05538940429688 C89.74205780029297 180.74603271484375 94.2294921875 183.73741149902344 99.76468658447266 183.73741149902344 C105.30106353759766 183.73741149902344 109.78849792480469 180.74603271484375 109.78849792480469 177.05538940429688 Z"></path>
<path fill="#802f34" fill-opacity="1.0"  filling="0" d="M23.062461853027344 120.25591278076172 C19.52020263671875 120.2453384399414 16.59619140625 117.4845962524414 16.380447387695312 113.94860076904297 L13.940765380859375 69.61730194091797 C13.840141296386719 67.77276611328125 15.253204345703125 66.19447326660156 17.09931182861328 66.09344482421875 C18.94385528564453 65.99125671386719 20.52215576171875 67.40589141845703 20.6231689453125 69.25043487548828 L23.062461853027344 113.5539321899414 L35.21702575683594 105.50896453857422 C36.75264358520508 104.52698516845703 38.79296112060547 104.95689392089844 39.80078125 106.47567749023438 C40.80900192260742 107.99445343017578 40.414329528808594 110.04103088378906 38.912384033203125 111.07469940185547 L26.78522491455078 119.12748718261719 C25.682655334472656 119.86280822753906 24.387046813964844 120.25591278076172 23.062461853027344 120.25591278076172 Z"></path>
<path fill="#7f8c8d" fill-opacity="1.0"  filling="0" d="M11.128334045410156 54.43614196777344 C10.008529663085938 54.43614196777344 8.964302062988281 53.8778076171875 8.344490051269531 52.94633102416992 L0.5598983764648438 41.252220153808594 C-0.3210601806640625 39.927642822265625 -0.14682769775390625 38.16415023803711 0.9772796630859375 37.03847122192383 L7.659294128417969 30.35645294189453 C8.970169067382812 29.0902099609375 11.054725646972656 29.108230590820312 12.344062805175781 30.397567749023438 C13.6318359375 31.685340881347656 13.650238037109375 33.770286560058594 12.384002685546875 35.080772399902344 L7.639717102050781 39.82819366455078 L13.898086547851562 49.24354553222656 C14.918441772460938 50.78072738647461 14.50067138671875 52.853145599365234 12.965042114257812 53.87467575073242 C12.422378540039062 54.24037170410156 11.782989501953125 54.434574127197266 11.128334045410156 54.43614196777344 Z"></path>
<path fill="#7f8c8d" fill-opacity="1.0"  filling="0" d="M22.28094482421875 54.43614196777344 C21.049957275390625 54.434574127197266 19.919578552246094 53.75564956665039 19.34009552001953 52.67108154296875 C18.75865936279297 51.58534240722656 18.8228759765625 50.26820373535156 19.50336456298828 49.24354553222656 L25.77269744873047 39.82819366455078 L21.023712158203125 35.080772399902344 C19.75904083251953 33.770286560058594 19.77587890625 31.685340881347656 21.065216064453125 30.397567749023438 C22.354568481445312 29.108230590820312 24.43755340576172 29.0902099609375 25.748428344726562 30.35645294189453 L32.430442810058594 37.03847122192383 C33.55768585205078 38.16415023803711 33.733482360839844 39.92607879638672 32.852516174316406 41.252220153808594 L25.067535400390625 52.94633102416992 C24.44695281982422 53.8778076171875 23.4007568359375 54.437705993652344 22.28094482421875 54.43614196777344 Z"></path>
<path fill="#802f34" fill-opacity="1.0"  filling="0" d="M113.12910461425781 136.96212768554688 L86.4002685546875 136.96212768554688 C84.55572509765625 136.96212768554688 83.0600357055664 135.46644592285156 83.0600357055664 133.62033081054688 C83.0600357055664 131.77578735351562 84.55572509765625 130.2801055908203 86.4002685546875 130.2801055908203 L113.12910461425781 130.2801055908203 C114.9748306274414 130.2801055908203 116.47090148925781 131.77578735351562 116.47090148925781 133.62033081054688 C116.47090148925781 135.46644592285156 114.9748306274414 136.96212768554688 113.12910461425781 136.96212768554688 Z"></path>
<path fill="#802f34" fill-opacity="1.0"  filling="0" d="M99.76468658447266 173.7151641845703 C97.9201431274414 173.7151641845703 96.4244613647461 172.21908569335938 96.4244613647461 170.37298583984375 L96.4244613647461 120.25591278076172 C96.4244613647461 118.411376953125 97.9201431274414 116.91568756103516 99.76468658447266 116.91568756103516 C101.61079406738281 116.91568756103516 103.10647583007812 118.411376953125 103.10647583007812 120.25591278076172 L103.10647583007812 170.37298583984375 C103.10647583007812 172.21908569335938 101.61079406738281 173.7151641845703 99.76468658447266 173.7151641845703 Z"></path>
<path fill="#802f34" fill-opacity="1.0"  filling="0" d="M176.94537353515625 120.25591278076172 C175.62704467773438 120.25160217285156 174.3392791748047 119.8584976196289 173.244140625 119.12748718261719 L160.8816680908203 110.90515899658203 C159.88128662109375 110.24581146240234 159.3092498779297 109.10173034667969 159.38247680664062 107.90714263916016 C159.45608520507812 106.71138000488281 160.16555786132812 105.64678192138672 161.23953247070312 105.11742401123047 C162.31314086914062 104.58688354492188 163.5899658203125 104.6726303100586 164.5828857421875 105.34098815917969 L176.94537353515625 113.56018829345703 L179.410888671875 69.24729919433594 C179.51309204101562 67.40119934082031 181.0902099609375 65.98812866210938 182.93630981445312 66.09071350097656 C184.78085327148438 66.19132995605469 186.19549560546875 67.77002716064453 186.09291076660156 69.61457061767578 L183.62738037109375 113.9086685180664 C183.43161010742188 117.45875549316406 180.5013427734375 120.2422103881836 176.94537353515625 120.25591278076172 Z"></path>
<path fill="#7f8c8d" fill-opacity="1.0"  filling="0" d="M188.8704833984375 54.43614196777344 C187.63909912109375 54.434574127197266 186.50755310058594 53.7572135925293 185.92611694335938 52.67108154296875 C185.34506225585938 51.58690643310547 185.40771484375 50.26820373535156 186.08978271484375 49.24354553222656 L192.3575439453125 39.82819366455078 L187.61325073242188 35.080772399902344 C186.34701538085938 33.770286560058594 186.3650360107422 31.685340881347656 187.6543731689453 30.397567749023438 C188.9437255859375 29.108230590820312 191.027099609375 29.0902099609375 192.33758544921875 30.35645294189453 L199.01998901367188 37.03847122192383 C200.14566040039062 38.16415023803711 200.32302856445312 39.92607879638672 199.4420623779297 41.252220153808594 L191.6523895263672 52.94633102416992 C191.03297424316406 53.8778076171875 189.98834228515625 54.43614196777344 188.8704833984375 54.43614196777344 Z"></path>
<path fill="#7f8c8d" fill-opacity="1.0"  filling="0" d="M177.71786499023438 54.43614196777344 C176.59808349609375 54.43614196777344 175.55345153808594 53.8778076171875 174.9340362548828 52.94633102416992 L167.14630126953125 41.252220153808594 C166.26535034179688 39.92607879638672 166.44114685058594 38.16415023803711 167.5668182373047 37.03847122192383 L174.24884033203125 30.35645294189453 C175.55970764160156 29.0902099609375 177.64427185058594 29.108230590820312 178.93203735351562 30.397567749023438 C180.22137451171875 31.685340881347656 180.23977661132812 33.770286560058594 178.97354125976562 35.080772399902344 L174.2288818359375 39.82819366455078 L180.49664306640625 49.24354553222656 C181.1787109375 50.26820373535156 181.24172973632812 51.58690643310547 180.66030883789062 52.67108154296875 C180.07925415039062 53.7572135925293 178.94888305664062 54.434574127197266 177.71786499023438 54.43614196777344 Z"></path>
<path fill="#e64c3c" fill-opacity="1.0"  filling="0" d="M126.49470520019531 100.20947265625 C126.49470520019531 89.13790893554688 114.52690124511719 80.16304016113281 99.76468658447266 80.16304016113281 C85.00247192382812 80.16304016113281 73.03584289550781 89.13790893554688 73.03584289550781 100.20947265625 C73.03584289550781 111.28104400634766 85.00247192382812 120.25591278076172 99.76468658447266 120.25591278076172 C114.52690124511719 120.25591278076172 126.49470520019531 111.28104400634766 126.49470520019531 100.20947265625 Z"></path>
<path fill="#e64c3c" fill-opacity="1.0"  filling="0" d="M52.989402770996094 100.20947265625 C52.989402770996094 105.74466705322266 48.50196838378906 110.23367309570312 42.965206146240234 110.23367309570312 C37.43040466308594 110.23367309570312 32.942970275878906 105.74466705322266 32.942970275878906 100.20947265625 C32.942970275878906 94.67427825927734 37.43040466308594 90.1856689453125 42.965206146240234 90.1856689453125 C48.50196838378906 90.1856689453125 52.989402770996094 94.67427825927734 52.989402770996094 100.20947265625 Z"></path>
<path fill="#e64c3c" fill-opacity="1.0"  filling="0" d="M166.58798217773438 100.20947265625 C166.58798217773438 105.74466705322266 162.1005401611328 110.23367309570312 156.56378173828125 110.23367309570312 C151.02857971191406 110.23367309570312 146.54153442382812 105.74466705322266 146.54153442382812 100.20947265625 C146.54153442382812 94.67427825927734 151.02857971191406 90.1856689453125 156.56378173828125 90.1856689453125 C162.1005401611328 90.1856689453125 166.58798217773438 94.67427825927734 166.58798217773438 100.20947265625 Z"></path>
<path fill="#e64c3c" fill-opacity="1.0"  filling="0" d="M26.727279663085938 59.448238372802734 C26.727279663085938 64.98304748535156 22.239837646484375 69.47047424316406 16.70464324951172 69.47047424316406 C11.167877197265625 69.47047424316406 6.680442810058594 64.98304748535156 6.680442810058594 59.448238372802734 C6.680442810058594 53.91147994995117 11.167877197265625 49.424041748046875 16.70464324951172 49.424041748046875 C22.239837646484375 49.424041748046875 26.727279663085938 53.91147994995117 26.727279663085938 59.448238372802734 Z"></path>
<path fill="#e64c3c" fill-opacity="1.0"  filling="0" d="M193.31643676757812 59.448238372802734 C193.31643676757812 64.98304748535156 188.82899475097656 69.47047424316406 183.294189453125 69.47047424316406 C177.75741577148438 69.47047424316406 173.26998901367188 64.98304748535156 173.26998901367188 59.448238372802734 C173.26998901367188 53.91147994995117 177.75741577148438 49.424041748046875 183.294189453125 49.424041748046875 C188.82899475097656 49.424041748046875 193.31643676757812 53.91147994995117 193.31643676757812 59.448238372802734 Z"></path>
<path fill="#2c2f38" fill-opacity="1.0"  filling="0" d="M42.965206146240234 160.35073852539062 C46.655860900878906 160.35073852539062 49.64761734008789 163.34210205078125 49.64761734008789 167.0327606201172 L49.64761734008789 190.4197998046875 C49.64761734008789 194.11007690429688 46.655860900878906 197.10183715820312 42.965206146240234 197.10183715820312 C39.27494812011719 197.10183715820312 36.2831916809082 194.11007690429688 36.2831916809082 190.4197998046875 L36.2831916809082 167.0327606201172 C36.2831916809082 163.34210205078125 39.27494812011719 160.35073852539062 42.965206146240234 160.35073852539062 Z"></path>
<path fill="#2c2f38" fill-opacity="1.0"  filling="0" d="M156.56378173828125 160.35073852539062 C160.25442504882812 160.35073852539062 163.24618530273438 163.34210205078125 163.24618530273438 167.0327606201172 L163.24618530273438 190.4197998046875 C163.24618530273438 194.11007690429688 160.25442504882812 197.10183715820312 156.56378173828125 197.10183715820312 C152.8731231689453 197.10183715820312 149.8817596435547 194.11007690429688 149.8817596435547 190.4197998046875 L149.8817596435547 167.0327606201172 C149.8817596435547 163.34210205078125 152.8731231689453 160.35073852539062 156.56378173828125 160.35073852539062 Z"></path></svg>