<svg xmlns="http://www.w3.org/2000/svg" viewBox="0.0 0.0 200.0 200.0" height="200.0px" width="200.0px"><path fill="#78c2a4" fill-opacity="1.0"  filling="0" d="M115.39346313476562 84.21044921875 L115.40089416503906 84.0116195678711 L70.56560516357422 82.60420227050781 C70.66912078857422 79.31086730957031 72.21989440917969 49.0942497253418 94.54631805419922 2.9304580688476562 L134.9285125732422 22.46080780029297 C116.77822875976562 59.99027633666992 115.40518188476562 83.97294616699219 115.39346313476562 84.21044921875 Z"></path>
<path fill="#66b394" fill-opacity="1.0"  filling="0" d="M134.9285125732422 22.46080780029297 L124.99497985839844 17.656539916992188 C108.73100280761719 52.034461975097656 104.8333740234375 76.09447479248047 103.96111297607422 83.65263366699219 L115.40089416503906 84.0116195678711 L115.39346313476562 84.21044921875 C115.40518188476562 83.97294616699219 116.77822875976562 59.99027633666992 134.9285125732422 22.46080780029297 Z"></path>
<path fill="#f6e266" fill-opacity="1.0"  filling="0" d="M152.92019653320312 76.84759521484375 A29.526779174804688 29.526779174804688 0.0 1 1 93.86663818359375 76.84759521484375 A29.526779174804688 29.526779174804688 0.0 1 1 152.92019653320312 76.84759521484375 Z"></path>
<path fill="#ecbe6b" fill-opacity="1.0"  filling="0" d="M123.39341735839844 47.32081985473633 C121.3227310180664 47.32081985473633 119.30281066894531 47.536048889160156 117.35282897949219 47.94152069091797 C130.76251220703125 50.72978591918945 140.83901977539062 62.610965728759766 140.83901977539062 76.84759521484375 C140.83901977539062 91.08423614501953 130.76251220703125 102.96540832519531 117.35282897949219 105.75367736816406 C119.30320739746094 106.15914916992188 121.32311248779297 106.37438201904297 123.39341735839844 106.37438201904297 C139.70074462890625 106.37438201904297 152.92019653320312 93.15492248535156 152.92019653320312 76.84759521484375 C152.92019653320312 60.54066467285156 139.70074462890625 47.32081985473633 123.39341735839844 47.32081985473633 Z"></path>
<path fill="#f6e266" fill-opacity="1.0"  filling="0" d="M106.13336181640625 76.84759521484375 A29.526779174804688 29.526779174804688 0.0 1 1 47.079803466796875 76.84759521484375 A29.526779174804688 29.526779174804688 0.0 1 1 106.13336181640625 76.84759521484375 Z"></path>
<path fill="#ecbe6b" fill-opacity="1.0"  filling="0" d="M76.60658264160156 47.32081985473633 C74.53589630126953 47.32081985473633 72.51598358154297 47.536048889160156 70.56599426269531 47.94152069091797 C83.9756851196289 50.72978591918945 94.05218505859375 62.610965728759766 94.05218505859375 76.84759521484375 C94.05218505859375 91.08423614501953 83.9756851196289 102.96540832519531 70.56599426269531 105.75367736816406 C72.51637268066406 106.15914916992188 74.53628540039062 106.37438201904297 76.60658264160156 106.37438201904297 C92.91390991210938 106.37438201904297 106.13336181640625 93.15492248535156 106.13336181640625 76.84759521484375 C106.13336181640625 60.54066467285156 92.91352081298828 47.32081985473633 76.60658264160156 47.32081985473633 Z"></path>
<path fill="#ecf4ff" fill-opacity="1.0"  filling="0" d="M175.0942840576172 128.9011993408203 C172.2923583984375 128.9011993408203 169.58221435546875 127.39574432373047 168.17088317871094 124.751220703125 L157.312744140625 104.4118881225586 C157.16197204589844 104.1298599243164 156.86940002441406 103.9540786743164 156.54908752441406 103.9540786743164 L43.45092010498047 103.9540786743164 C43.130611419677734 103.9540786743164 42.83803176879883 104.12947082519531 42.687252044677734 104.4118881225586 L31.829116821289062 124.751220703125 C29.790061950683594 128.57073974609375 25.040481567382812 130.01446533203125 21.220191955566406 127.97541809082031 C17.39990234375 125.93637084960938 15.956550598144531 121.18678283691406 17.995994567871094 117.36650085449219 L28.853736877441406 97.02716827392578 C31.735755920410156 91.6275863647461 37.32908248901367 88.27291870117188 43.45092010498047 88.27291870117188 L156.54908752441406 88.27291870117188 C162.67013549804688 88.27291870117188 168.26385498046875 91.6275863647461 171.14627075195312 97.02716827392578 L182.0040283203125 117.36650085449219 C184.04345703125 121.1860122680664 182.60009765625 125.93598937988281 178.77981567382812 127.97541809082031 C177.60403442382812 128.60316467285156 176.33999633789062 128.90081787109375 175.0942840576172 128.9011993408203 Z"></path>
<path fill="#ddeafb" fill-opacity="1.0"  filling="0" d="M182.0040283203125 117.36650085449219 L171.14627075195312 97.02716827392578 C168.26385498046875 91.6275863647461 162.67013549804688 88.27291870117188 156.54908752441406 88.27291870117188 L147.87725830078125 88.27291870117188 C153.99832153320312 88.27291870117188 159.59164428710938 91.6275863647461 162.4744415283203 97.02716827392578 L173.33218383789062 117.36650085449219 C175.2524871826172 120.9633560180664 174.0829620361328 125.38285827636719 170.75054931640625 127.58949279785156 C172.03648376464844 128.4418182373047 173.55093383789062 128.9011993408203 175.0942840576172 128.9011993408203 C176.33999633789062 128.90081787109375 177.60403442382812 128.60316467285156 178.77981567382812 127.97541809082031 C182.59971618652344 125.93598937988281 184.04345703125 121.1860122680664 182.0040283203125 117.36650085449219 Z"></path>
<path fill="#dd636e" fill-opacity="1.0"  filling="0" d="M156.52682495117188 197.07032775878906 L43.47279357910156 197.07032775878906 C18.30146026611328 197.07032775878906 2.2113189697265625 170.2415771484375 14.065544128417969 148.0362548828125 L37.651344299316406 103.85564422607422 C39.165008544921875 101.0205078125 42.11772155761719 99.24942016601562 45.33176803588867 99.24942016601562 L154.6678466796875 99.24942016601562 C157.8818817138672 99.24942016601562 160.83460998535156 101.0201187133789 162.3482666015625 103.85564422607422 L185.93405151367188 148.0362548828125 C197.78829956054688 170.24119567871094 181.69815063476562 197.07032775878906 156.52682495117188 197.07032775878906 Z"></path>
<path fill="#c63d4f" fill-opacity="1.0"  filling="0" d="M185.93405151367188 148.03585815429688 L162.3482666015625 103.85564422607422 C160.83460998535156 101.0201187133789 157.8818817138672 99.24942016601562 154.6678466796875 99.24942016601562 L142.51205444335938 99.24942016601562 C145.72610473632812 99.24942016601562 148.67881774902344 101.0201187133789 150.19247436523438 103.85564422607422 L173.77828979492188 148.03585815429688 C185.63250732421875 170.24119567871094 169.5423583984375 197.0699462890625 144.37103271484375 197.0699462890625 L156.52682495117188 197.0699462890625 C181.69815063476562 197.07032775878906 197.78829956054688 170.24119567871094 185.93405151367188 148.03585815429688 Z"></path>
<path fill="" fill-opacity="1.0"  filling="0" d="M112.42239379882812 118.93446350097656 C112.42239379882812 117.31610870361328 111.11107635498047 116.00479125976562 109.49272155761719 116.00479125976562 C107.87437438964844 116.00479125976562 106.56304931640625 117.31610870361328 106.56304931640625 118.93446350097656 C106.56304931640625 122.5535888671875 103.6189193725586 125.4977035522461 99.99980926513672 125.4977035522461 C96.38068389892578 125.4977035522461 93.43656921386719 122.5535888671875 93.43656921386719 118.93446350097656 C93.43656921386719 117.31610870361328 92.125244140625 116.00479125976562 90.50689697265625 116.00479125976562 C88.88854217529297 116.00479125976562 87.57722473144531 117.31610870361328 87.57722473144531 118.93446350097656 C87.57722473144531 125.78402709960938 93.15023803710938 131.35704040527344 99.99980926513672 131.35704040527344 C106.84938049316406 131.35704040527344 112.42239379882812 125.784423828125 112.42239379882812 118.93446350097656 Z"></path>
<path fill="" fill-opacity="1.0"  filling="0" d="M188.5184326171875 146.65615844726562 L179.9747314453125 130.65235900878906 C180.03604125976562 130.62110900878906 180.09854125976562 130.5922088623047 180.15948486328125 130.55978393554688 C182.69737243652344 129.20510864257812 184.5559539794922 126.94300842285156 185.39227294921875 124.1902847290039 C186.2285919189453 121.43756866455078 185.94345092773438 118.52391815185547 184.58837890625 115.98643493652344 L178.89895629882812 105.3290786743164 C178.1368408203125 103.90213012695312 176.36264038085938 103.36150360107422 174.93490600585938 104.1243896484375 C173.50758361816406 104.88648986816406 172.96812438964844 106.66108703613281 173.73023986816406 108.08843231201172 L179.41964721679688 118.74578857421875 C180.0372314453125 119.90281677246094 180.16769409179688 121.23092651367188 179.7860565185547 122.48600769042969 C179.4044189453125 123.74146270751953 178.55715942382812 124.77271270751953 177.39974975585938 125.39067840576172 C177.33840942382812 125.4234848022461 177.27474975585938 125.4488754272461 177.21263122558594 125.47856140136719 L164.93223571777344 102.47595977783203 C162.9056854248047 98.67871856689453 158.9721221923828 96.31974792480469 154.6678466796875 96.31974792480469 L45.332157135009766 96.31974792480469 C41.02750015258789 96.31974792480469 37.09431838989258 98.67832946777344 35.0673828125 102.47557067871094 L22.786972045898438 125.47856140136719 C22.724868774414062 125.448486328125 22.660804748535156 125.423095703125 22.599868774414062 125.39067840576172 C21.442848205566406 124.7730941772461 20.59558868408203 123.74146270751953 20.214332580566406 122.48638916015625 C19.833091735839844 121.2313232421875 19.963165283203125 119.90281677246094 20.58074188232422 118.74578857421875 L31.438491821289062 98.40645599365234 C33.809959411621094 93.96273803710938 38.41305923461914 91.20259094238281 43.45130920410156 91.20259094238281 L156.54908752441406 91.20259094238281 C161.39085388183594 91.20259094238281 165.76113891601562 93.68851470947266 168.24002075195312 97.85294342041016 C169.06736755371094 99.24394989013672 170.86619567871094 99.69941711425781 172.25563049316406 98.87168884277344 C173.646240234375 98.04434967041016 174.1024932861328 96.2463150024414 173.27438354492188 94.85608673095703 C169.78219604492188 88.98854064941406 163.37286376953125 85.34286499023438 156.54908752441406 85.34286499023438 L154.7174530029297 85.34286499023438 C155.4647216796875 82.58857727050781 155.8502655029297 79.74640655517578 155.8502655029297 76.84720611572266 C155.8502655029297 60.684410095214844 143.97299194335938 47.2462043762207 128.4890899658203 44.79388427734375 C131.10665893554688 37.866188049316406 134.14999389648438 30.800209045410156 137.5667724609375 23.735801696777344 C137.90505981445312 23.03619384765625 137.9515380859375 22.230728149414062 137.69607543945312 21.497535705566406 C137.4409942626953 20.7635498046875 136.90426635742188 20.161216735839844 136.20506286621094 19.82293701171875 L119.97156524658203 11.972587585449219 C118.51296997070312 11.267120361328125 116.76260375976562 11.878448486328125 116.05830383300781 13.334297180175781 C115.35362243652344 14.790931701660156 115.9637680053711 16.542877197265625 117.42001342773438 17.24755859375 L131.02931213378906 23.829551696777344 C127.7750244140625 30.741226196289062 124.87700653076172 37.6419677734375 122.37936401367188 44.40755081176758 C113.81222534179688 44.668487548828125 105.85797119140625 48.23175048828125 99.98613739013672 54.370384216308594 C95.05647277832031 49.24463653564453 88.4662857055664 45.73176956176758 81.08702850341797 44.70794677734375 C84.86434936523438 32.41699981689453 89.83970642089844 19.711212158203125 95.91975402832031 6.84918212890625 L106.81304168701172 12.117507934570312 C108.27084350585938 12.8214111328125 110.02123260498047 12.211257934570312 110.72630310058594 10.75579833984375 C111.43099212646484 9.299163818359375 110.82083892822266 7.5472259521484375 109.36459350585938 6.842536926269531 L95.82209777832031 0.293365478515625 C94.36389923095703 -0.41210174560546875 92.61351776123047 0.19882965087890625 91.9088363647461 1.6550750732421875 C84.87958526611328 16.189361572265625 79.2143783569336 30.567794799804688 75.047607421875 44.430992126464844 C57.87232208251953 45.24739456176758 44.15013122558594 59.473873138427734 44.15013122558594 76.84799194335938 C44.15013122558594 79.7471923828125 44.53607177734375 82.58935546875 45.28293991088867 85.34364318847656 L43.45130920410156 85.34364318847656 C36.2454948425293 85.34364318847656 29.661544799804688 89.29206085205078 26.269775390625 95.64788055419922 L15.412025451660156 115.98682403564453 C14.05694580078125 118.52468872070312 13.771797180175781 121.4383544921875 14.608123779296875 124.190673828125 C15.444831848144531 126.94338989257812 17.30303192138672 129.2054901123047 19.840904235839844 130.56016540527344 C19.901840209960938 130.59259033203125 19.963951110839844 130.6215057373047 20.02527618408203 130.65274047851562 L11.481575012207031 146.65655517578125 C5.425361633300781 158.0014190673828 5.758567810058594 171.35836791992188 12.372589111328125 182.38760375976562 C18.98699951171875 193.4160614013672 30.612716674804688 200.00039672851562 43.47279357910156 200.00039672851562 L56.152015686035156 200.00039672851562 C57.77037048339844 200.00039672851562 59.081687927246094 198.68907165527344 59.081687927246094 197.07070922851562 C59.081687927246094 195.45236206054688 57.77037048339844 194.14105224609375 56.152015686035156 194.14105224609375 L43.47279357910156 194.14105224609375 C32.69043731689453 194.14105224609375 22.942840576171875 188.62039184570312 17.397552490234375 179.37396240234375 C11.851890563964844 170.12673950195312 11.572593688964844 158.92758178710938 16.650299072265625 149.41632080078125 L40.2360954284668 105.23571014404297 C41.24233627319336 103.3509521484375 43.195064544677734 102.17987060546875 45.332157135009766 102.17987060546875 L154.6678466796875 102.17987060546875 C156.80494689941406 102.17987060546875 158.75726318359375 103.35057067871094 159.76351928710938 105.23571014404297 L183.34970092773438 149.41632080078125 C188.4274139404297 158.927978515625 188.14810180664062 170.12713623046875 182.60244750976562 179.37356567382812 C177.0571746826172 188.62039184570312 167.30917358398438 194.14105224609375 156.52682495117188 194.14105224609375 L67.86522674560547 194.14105224609375 C66.24687957763672 194.14105224609375 64.93555450439453 195.45236206054688 64.93555450439453 197.07070922851562 C64.93555450439453 198.68907165527344 66.24687957763672 200.00039672851562 67.86522674560547 200.00039672851562 L156.52682495117188 200.00039672851562 C169.38690185546875 200.00039672851562 181.01339721679688 193.41644287109375 187.62741088867188 182.38720703125 C194.2418212890625 171.35836791992188 194.57464599609375 158.0010223388672 188.5184326171875 146.65615844726562 Z M149.9905242919922 76.84759521484375 C149.9905242919922 79.76750183105469 149.51708984375 82.61553192138672 148.59600830078125 85.34324645996094 L107.93022918701172 85.34324645996094 C108.677490234375 82.58897399902344 109.06303405761719 79.7468032836914 109.06303405761719 76.84759521484375 C109.06303405761719 70.25740051269531 107.08335876464844 64.12345886230469 103.69509887695312 58.99848556518555 C119.99851989746094 40.95600891113281 149.9905242919922 52.7137565612793 149.9905242919922 76.84759521484375 Z M50.00908660888672 76.84759521484375 C50.00908660888672 62.18206024169922 61.94065475463867 50.25048828125 76.606201171875 50.25048828125 C91.27212524414062 50.25048828125 103.20369720458984 62.18206024169922 103.20369720458984 76.84759521484375 C103.20369720458984 79.7667236328125 102.73845672607422 82.6163101196289 101.81776428222656 85.34324645996094 L51.395015716552734 85.34324645996094 C50.474708557128906 82.6163101196289 50.00908660888672 79.7667236328125 50.00908660888672 76.84759521484375 Z"></path></svg>