<svg xmlns="http://www.w3.org/2000/svg" viewBox="0.0 0.0 200.0 200.0" height="200.0px" width="200.0px"><path fill="#ffb39d" fill-opacity="1.0"  filling="0" d="M133.5890655517578 153.125 L99.94609069824219 153.125 L87.85234069824219 159.19569396972656 L87.85234069824219 188.0703125 L99.94609069824219 194.140625 L133.5890655517578 194.140625 C144.9152374267578 194.140625 154.0968780517578 184.958984375 154.0968780517578 173.6328125 C154.0964813232422 162.30624389648438 144.9152374267578 153.125 133.5890655517578 153.125 Z"></path>
<path fill="#ff8f71" fill-opacity="1.0"  filling="0" d="M99.94609069824219 153.125 L66.40116882324219 153.125 C55.07500076293945 153.125 45.89336013793945 162.30624389648438 45.89336013793945 173.6328125 C45.89336013793945 184.958984375 55.07500076293945 194.140625 66.40116882324219 194.140625 L99.94609069824219 194.140625 C88.61992645263672 182.814453125 88.61992645263672 164.45077514648438 99.94609069824219 153.125 Z"></path>
<path fill="#ff6f4d" fill-opacity="1.0"  filling="0" d="M196.35116577148438 102.74297332763672 C195.251953125 98.13555145263672 192.90780639648438 93.791015625 189.39373779296875 90.2601547241211 C166.5500030517578 67.30742645263672 134.9308624267578 53.097652435302734 99.9886703491211 53.097652435302734 C94.88202667236328 53.097652435302734 89.84687042236328 53.40312576293945 84.8988265991211 53.99296951293945 C55.99843978881836 57.439064025878906 30.099609375 70.65702819824219 10.595703125 90.248046875 C7.070701599121094 93.7886734008789 4.7296905517578125 98.1410140991211 3.6374969482421875 102.75703430175781 L99.98828125 175.15704345703125 L196.35116577148438 102.74297332763672 Z"></path>
<path fill="#efedff" fill-opacity="1.0"  filling="0" d="M94.08671569824219 78.515625 L105.80546569824219 78.515625 L105.80546569824219 109.28515625 L94.08671569824219 109.28515625 L94.08671569824219 78.515625 Z"></path>
<path fill="#ffce71" fill-opacity="1.0"  filling="0" d="M117.78437805175781 60.15625 A17.838281631469727 26.171875 0.0 1 1 82.1078109741211 60.15625 A17.838281631469727 26.171875 0.0 1 1 117.78437805175781 60.15625 Z"></path>
<path fill="#fff1d4" fill-opacity="1.0"  filling="0" d="M106.06562805175781 60.15625 A6.119531631469727 14.453125 0.0 1 1 93.8265609741211 60.15625 A6.119531631469727 14.453125 0.0 1 1 106.06562805175781 60.15625 Z"></path>
<path fill="#ffb39d" fill-opacity="1.0"  filling="0" d="M196.35116577148438 102.74297332763672 C179.48828125 110.046875 161.63360595703125 115.494140625 143.04412841796875 118.82343292236328 C136.49844360351562 119.99569702148438 129.8605499267578 120.90234375 123.14413452148438 121.5386734008789 C122.78046417236328 113.72734069824219 113.537109375 106.9253921508789 106.8375015258789 103.0003890991211 C102.59765625 100.51640319824219 97.3519515991211 100.51602172851562 93.11211395263672 102.99960327148438 C86.41366577148438 106.92304229736328 77.17227172851562 113.72187042236328 76.80586242675781 121.53007507324219 L65.16796875 133.16757202148438 L65.16796875 153.6574249267578 L119.28632354736328 173.44921875 C150.791015625 167.806640625 177.58944702148438 148.59686279296875 193.4250030517578 122.08203125 C196.9894561767578 116.11367797851562 197.884765625 109.171875 196.35116577148438 102.74297332763672 Z"></path>
<path fill="#ff8f71" fill-opacity="1.0"  filling="0" d="M6.632026672363281 122.2152328491211 C25.633201599121094 153.927734375 60.32929229736328 175.15704345703125 99.9886703491211 175.15704345703125 C106.5746078491211 175.15704345703125 113.0234375 174.57070922851562 119.28632354736328 173.44921875 C98.57304382324219 162.35977172851562 83.3218765258789 143.50234985351562 76.7777328491211 121.53359985351562 C51.01093673706055 119.0902328491211 26.419532775878906 112.62069702148438 3.6374969482421875 102.75741577148438 C2.1078109741210938 109.224609375 3.0343780517578125 116.2109375 6.632026672363281 122.2152328491211 Z"></path>
<path fill="#ffdbe0" fill-opacity="1.0"  filling="0" d="M81.94257354736328 149.93905639648438 A10.55859375 8.408203125 0.0 1 1 60.82538986206055 149.93905639648438 A10.55859375 8.408203125 0.0 1 1 81.94257354736328 149.93905639648438 Z"></path>
<path fill="#ffdbe0" fill-opacity="1.0"  filling="0" d="M139.17422485351562 149.93905639648438 A10.55859375 8.408203125 0.0 1 1 118.05703735351562 149.93905639648438 A10.55859375 8.408203125 0.0 1 1 139.17422485351562 149.93905639648438 Z"></path>
<path fill="" fill-opacity="1.0"  filling="0" d="M191.470703125 88.193359375 C172.10391235351562 68.734375 147.1027374267578 55.905860900878906 119.8296890258789 51.69804763793945 C117.52656555175781 40.94023895263672 110.29296875 31.0546875 99.94609069824219 31.0546875 C89.46210479736328 31.0546875 82.3226547241211 41.13242721557617 80.0609359741211 51.70624923706055 C52.50390625 55.978126525878906 27.619140625 68.9964828491211 8.51953125 88.1812515258789 C2.9113311767578125 93.8148422241211 0.0 101.30077362060547 0.0 108.8226547241211 C0.0 114.07186889648438 1.4242172241210938 119.22344207763672 4.119140625 123.72109985351562 C14.2890625 140.6953125 28.507423400878906 154.35546875 45.158206939697266 163.73828125 C37.93281173706055 179.21640014648438 49.28633117675781 197.0703125 66.40156555175781 197.0703125 L133.5890655517578 197.0703125 C139.0078125 197.0703125 144.29336547851562 195.1769561767578 148.4718780517578 191.73983764648438 C149.7214813232422 190.7117156982422 149.90118408203125 188.86563110351562 148.873046875 187.6160125732422 C147.8445281982422 186.36639404296875 145.998046875 186.1875 144.7492218017578 187.21484375 C141.6164093017578 189.7921905517578 137.6535186767578 191.2109375 133.5890655517578 191.2109375 L66.40156555175781 191.2109375 C53.730857849121094 191.2109375 45.15742111206055 178.1042938232422 50.345314025878906 166.48397827148438 C63.93359375 173.2234344482422 78.94804382324219 177.21014404296875 94.58515930175781 177.9582061767578 C94.6328125 177.96054077148438 94.68047332763672 177.9617156982422 94.72734069824219 177.9617156982422 C96.28125 177.9617156982422 97.576171875 176.74063110351562 97.65116882324219 175.171875 C97.728515625 173.5554656982422 96.4808578491211 172.18280029296875 94.8648452758789 172.10546875 C59.58281326293945 170.41876220703125 27.46875 151.29180908203125 9.145317077636719 120.70976257324219 C6.674217224121094 116.58555603027344 5.539451599121094 111.77030944824219 5.9375 106.91407012939453 C28.381637573242188 116.22382354736328 52.04570388793945 122.11445617675781 76.3343734741211 124.43476867675781 C78.0355453491211 124.7035140991211 79.64961242675781 123.4339828491211 79.732421875 121.66796875 C79.96405792236328 116.73710632324219 85.24140930175781 111.00508117675781 94.59297180175781 105.52812957763672 C97.8531265258789 103.61756896972656 101.99296569824219 103.55937194824219 105.35664367675781 105.529296875 C114.71015167236328 111.00859832763672 119.9878921508789 116.74296569824219 120.21757507324219 121.67578125 C120.29491424560547 123.34492492675781 121.755859375 124.61640930175781 123.4203109741211 124.45625305175781 C147.798828125 122.14530944824219 171.54336547851562 116.24140930175781 194.05819702148438 106.89765167236328 C194.46328735351562 111.74102020263672 193.3410186767578 116.50977325439453 190.9089813232422 120.580078125 C172.8835906982422 150.76171875 141.22694396972656 169.9890594482422 106.26406860351562 172.04376220703125 C104.6488265991211 172.138671875 103.4164047241211 173.52499389648438 103.51133728027344 175.14022827148438 C103.60624694824219 176.75546264648438 104.9921875 177.9851531982422 106.60780334472656 177.89337158203125 C121.80000305175781 177.00039672851562 136.3937530517578 173.03555297851562 149.63516235351562 166.462890625 C151.4445343017578 170.50155639648438 151.6203155517578 175.001953125 150.3249969482422 179.02578735351562 C149.82891845703125 180.56600952148438 150.67538452148438 182.21640014648438 152.2156219482422 182.71249389648438 C153.76016235351562 183.20938110351562 155.40740966796875 182.3585968017578 155.90234375 180.82186889648438 C157.6511688232422 175.39178466796875 157.41171264648438 169.24960327148438 154.82147216796875 163.7175750732422 C171.52694702148438 154.2996063232422 185.78515625 140.587890625 195.93984985351562 123.58477020263672 C198.59609985351562 119.13789367675781 200.0 114.0406265258789 200.0 108.8433609008789 C200.0 101.28905487060547 197.05313110351562 93.802734375 191.470703125 88.193359375 Z M91.15702819824219 100.75273132324219 C84.30781555175781 104.82929992675781 76.42499542236328 110.94844055175781 74.37382507324219 118.34765625 C51.18671798706055 115.8871078491211 28.608985900878906 110.07499694824219 7.180473327636719 101.07186889648438 C8.33203125 97.78789520263672 10.203125 94.79570007324219 12.672271728515625 92.31523132324219 C30.41680145263672 74.49140930175781 53.48906707763672 62.14140701293945 79.25117492675781 57.77617263793945 C78.63983917236328 68.46015930175781 82.369140625 80.88164520263672 91.15742492675781 86.5804672241211 L91.15742492675781 100.75273132324219 L91.15702819824219 100.75273132324219 Z M102.87577819824219 98.47772979736328 C100.92500305175781 98.13007354736328 99.04999542236328 98.11797332763672 97.01640319824219 98.48710632324219 L97.01640319824219 88.978515625 C98.93789672851562 89.34843444824219 100.95390319824219 89.34843444824219 102.87577819824219 88.978515625 L102.87577819824219 98.47772979736328 Z M99.94609069824219 83.3984375 C91.8648452758789 83.3984375 85.0374984741211 72.75468444824219 85.0374984741211 60.15625 C85.0374984741211 47.55781173706055 91.8648452758789 36.9140625 99.94609069824219 36.9140625 C108.02733612060547 36.9140625 114.85469055175781 47.55781173706055 114.85469055175781 60.15625 C114.85469055175781 72.75468444824219 108.02733612060547 83.3984375 99.94609069824219 83.3984375 Z M125.576171875 118.35000610351562 C123.51835632324219 110.9296875 115.59765625 104.79647827148438 108.73515319824219 100.7191390991211 L108.73515319824219 86.5804672241211 C117.525390625 80.88007354736328 121.25663757324219 68.49726867675781 120.64102172851562 57.76797103881836 C145.72305297851562 62.02265548706055 169.2781219482422 74.201171875 187.31756591796875 92.32695007324219 C189.78009033203125 94.8011703491211 191.64959716796875 97.78593444824219 192.8046875 101.05937957763672 C171.36874389648438 110.06953430175781 148.78045654296875 115.88594055175781 125.576171875 118.35000610351562 Z"></path>
<path fill="" fill-opacity="1.0"  filling="0" d="M54.70000076293945 19.362106323242188 L67.5640640258789 28.708595275878906 C68.8734359741211 29.66015625 70.70585632324219 29.368743896484375 71.65625 28.060546875 C72.607421875 26.751564025878906 72.31718444824219 24.919143676757812 71.00820922851562 23.968360900878906 L58.144142150878906 14.621879577636719 C56.83633041381836 13.671478271484375 55.00312423706055 13.960548400878906 54.05195236206055 15.269920349121094 C53.10078430175781 16.578903198242188 53.390621185302734 18.41132354736328 54.70000076293945 19.362106323242188 Z"></path>
<path fill="" fill-opacity="1.0"  filling="0" d="M132.56680297851562 28.708595275878906 L145.43124389648438 19.36249542236328 C146.74063110351562 18.41132354736328 147.0304718017578 16.57929229736328 146.0792999267578 15.270309448242188 C145.12890625 13.961326599121094 143.296875 13.671478271484375 141.9871063232422 14.621879577636719 L129.12265014648438 23.967971801757812 C127.81327819824219 24.919143676757812 127.5234375 26.751174926757812 128.474609375 28.060157775878906 C129.42539978027344 29.369529724121094 131.2578125 29.659378051757812 132.56680297851562 28.708595275878906 Z"></path>
<path fill="" fill-opacity="1.0"  filling="0" d="M28.66327667236328 57.306640625 L48.466796875 57.306640625 C50.08515548706055 57.306640625 51.396484375 55.99531555175781 51.396484375 54.376953125 C51.396484375 52.75859069824219 50.08515548706055 51.447265625 48.466796875 51.447265625 L28.66327667236328 51.447265625 C27.044921875 51.447265625 25.73358917236328 52.75859069824219 25.73358917236328 54.376953125 C25.73358917236328 55.99531555175781 27.045310974121094 57.306640625 28.66327667236328 57.306640625 Z"></path>
<path fill="" fill-opacity="1.0"  filling="0" d="M151.6632843017578 57.306640625 L171.466796875 57.306640625 C173.08514404296875 57.306640625 174.396484375 55.99531555175781 174.396484375 54.376953125 C174.396484375 52.75859069824219 173.08514404296875 51.447265625 171.466796875 51.447265625 L151.6632843017578 51.447265625 C150.044921875 51.447265625 148.7335968017578 52.75859069824219 148.7335968017578 54.376953125 C148.7335968017578 55.99531555175781 150.04531860351562 57.306640625 151.6632843017578 57.306640625 Z"></path>
<path fill="" fill-opacity="1.0"  filling="0" d="M141.5246124267578 89.39218139648438 L128.66015625 80.04570770263672 C127.35234069824219 79.09492492675781 125.5191421508789 79.384765625 124.56797790527344 80.69375610351562 C123.61680603027344 82.00273132324219 123.90702819824219 83.83476257324219 125.21601867675781 84.78593444824219 L138.08047485351562 94.1324234008789 C139.3894500732422 95.083984375 141.2218780517578 94.79336547851562 142.1726531982422 93.484375 C143.1238250732422 92.17538452148438 142.833984375 90.34297180175781 141.5246124267578 89.39218139648438 Z"></path>
<path fill="" fill-opacity="1.0"  filling="0" d="M71.46992492675781 80.04570770263672 L58.60586166381836 89.39218139648438 C57.296485900878906 90.3433609008789 57.00663757324219 92.17538452148438 57.95780944824219 93.484375 C58.53125 94.2738265991211 59.42422103881836 94.69257354736328 60.330081939697266 94.69257354736328 C60.92695617675781 94.69257354736328 61.52968978881836 94.51055145263672 62.04961013793945 94.1324234008789 L74.9136734008789 84.78593444824219 C76.2230453491211 83.83476257324219 76.51289367675781 82.00273132324219 75.56172180175781 80.69375610351562 C74.6109390258789 79.3843765258789 72.779296875 79.0941390991211 71.46992492675781 80.04570770263672 Z"></path>
<path fill="" fill-opacity="1.0"  filling="0" d="M100.0 19.921875 C101.61836242675781 19.921875 102.9296875 18.610153198242188 102.9296875 16.9921875 L102.9296875 5.859375 C102.9296875 4.2414093017578125 101.61836242675781 2.9296875 100.0 2.9296875 C98.38163757324219 2.9296875 97.0703125 4.2414093017578125 97.0703125 5.859375 L97.0703125 16.9921875 C97.0703125 18.610153198242188 98.38163757324219 19.921875 100.0 19.921875 Z"></path>
<path fill="" fill-opacity="1.0"  filling="0" d="M80.77734375 137.03594970703125 C79.0609359741211 139.00546264648438 76.01289367675781 139.00350952148438 74.29804992675781 137.03594970703125 C73.23515319824219 135.81640625 71.3843765258789 135.68984985351562 70.16484069824219 136.75234985351562 C68.94491577148438 137.8156280517578 68.818359375 139.666015625 69.8812484741211 140.8859405517578 C73.93241882324219 145.53436279296875 81.1468734741211 145.52969360351562 85.1937484741211 140.8859405517578 C86.25702667236328 139.66639709472656 86.13007354736328 137.8156280517578 84.91015625 136.75234985351562 C83.69062805175781 135.689453125 81.83984375 135.81640625 80.77734375 137.03594970703125 Z"></path>
<path fill="" fill-opacity="1.0"  filling="0" d="M130.1183624267578 140.8859405517578 C131.181640625 139.66639709472656 131.0546875 137.8156280517578 129.83477783203125 136.75234985351562 C128.61483764648438 135.68907165527344 126.76445007324219 135.81600952148438 125.7015609741211 137.03594970703125 C123.98554992675781 139.0046844482422 120.9375 139.00390625 119.22227478027344 137.03594970703125 C118.15937805175781 135.81640625 116.30859375 135.68984985351562 115.08905792236328 136.75234985351562 C113.869140625 137.8156280517578 113.7425765991211 139.666015625 114.80547332763672 140.8859405517578 C118.85702514648438 145.53475952148438 126.07109069824219 145.53009033203125 130.1183624267578 140.8859405517578 Z"></path>
<path fill="" fill-opacity="1.0"  filling="0" d="M108.9339828491211 144.0749969482422 C109.99726104736328 142.85508728027344 109.86991882324219 141.0046844482422 108.65000915527344 139.94140625 C107.42967987060547 138.8781280517578 105.57891082763672 139.00546264648438 104.51641082763672 140.2253875732422 C102.10820770263672 142.98867797851562 97.8285140991211 142.98593139648438 95.42304992675781 140.2253875732422 C94.359375 139.005859375 92.50898742675781 138.87850952148438 91.2894515991211 139.94140625 C90.06991577148438 141.0046844482422 89.94258117675781 142.85508728027344 91.0054702758789 144.0749969482422 C95.74883270263672 149.51797485351562 104.1953125 149.51251220703125 108.9339828491211 144.0749969482422 Z"></path></svg>