<svg xmlns="http://www.w3.org/2000/svg" viewBox="0.0 0.0 200.0 200.0" height="200.0px" width="200.0px"><path fill="#ffcc80" fill-opacity="1.0"  filling="0" d="M196.875 84.375 C196.875 134.42578125 147.25274658203125 196.875 93.75 196.875 C40.24726104736328 196.875 3.125 150.05078125 3.125 100.0 C3.125 49.94921875 40.24726104736328 3.125 93.75 3.125 C147.25274658203125 3.125 196.875 30.859375 196.875 84.375 Z"></path>
<path fill="#fff" fill-opacity="1.0"  filling="0" d="M87.5 78.125 A6.25 6.25 0.0 1 1 75.0 78.125 A6.25 6.25 0.0 1 1 87.5 78.125 Z"></path>
<path fill="#fff" fill-opacity="1.0"  filling="0" d="M143.75 78.125 A6.25 6.25 0.0 1 1 131.25 78.125 A6.25 6.25 0.0 1 1 143.75 78.125 Z"></path>
<path fill="#ffb74d" fill-opacity="1.0"  filling="0" d="M187.0 46.84452819824219 C181.4871063232422 108.17890167236328 129.95663452148438 156.25 67.1875 156.25 A119.77030944824219 119.77030944824219 0.0 0 1 12.6953125 143.21875 C27.01953125 174.03944396972656 56.388671875 196.875 93.75 196.875 C147.25274658203125 196.875 196.875 134.42578125 196.875 84.375 C196.875 69.9878921508789 193.28399658203125 57.467185974121094 187.0 46.84452819824219 Z"></path>
<path fill="#ffe4c0" fill-opacity="1.0"  filling="0" d="M56.25 96.875 A9.375 9.375 0.0 1 1 37.5 96.875 A9.375 9.375 0.0 1 1 56.25 96.875 Z"></path>
<path fill="#ffe4c0" fill-opacity="1.0"  filling="0" d="M175.0 96.875 A9.375 9.375 0.0 1 1 156.25 96.875 A9.375 9.375 0.0 1 1 175.0 96.875 Z"></path>
<path fill="#231f20" fill-opacity="1.0"  filling="0" d="M191.03125 47.61328125 A76.421875 76.421875 0.0 0 0 174.28125 26.76171875 A95.6527328491211 95.6527328491211 0.0 0 0 151.20703125 11.890235900878906 C134.47265625 4.11328125 114.60547637939453 0.00390625 93.75 0.0 L93.734375 0.0 A90.4296875 90.4296875 0.0 0 0 69.84765625 3.171875 A88.25 88.25 0.0 0 0 48.7109375 12.0625 A3.121875047683716 3.121875047683716 0.0 0 0 47.585941314697266 16.335548400878906 A3.125 3.125 0.0 0 0 51.859371185302734 17.4609375 C64.61328125 10.0234375 78.70703125 6.25390625 93.75 6.25 L93.796875 6.25 C120.75390625 6.25 145.53125 13.34375 163.5625 26.2265625 C173.05078125 32.99609375 180.4453125 41.195308685302734 185.5390625 50.59375 C190.984375 60.64453125 193.74609375 72.01171875 193.75 84.375 C193.78515625 107.67188262939453 182.0078125 135.62890625 163.0234375 157.33984375 C153.46875 168.28125 142.375 177.359375 130.9375 183.58984375 C118.5703125 190.33203125 106.06249237060547 193.75 93.7578125 193.75 L93.75 193.75 C69.515625 193.73828125 47.128902435302734 183.57421875 30.7109375 165.12850952148438 C15.16015625 147.64804077148438 6.24609375 123.91015625 6.25 100.0 C6.2421875 74.76953125 15.99609375 50.12109375 33.01171875 32.375 A3.1226563453674316 3.1226563453674316 0.0 0 0 30.75391387939453 27.08984375 A3.089062452316284 3.089062452316284 0.0 0 0 28.5 28.05078125 A99.9476547241211 99.9476547241211 0.0 0 0 16.453125 43.417579650878906 A104.74844360351562 104.74844360351562 0.0 0 0 7.5 60.929298400878906 A105.62110137939453 105.62110137939453 0.0 0 0 6.8359375 137.35546875 A104.8828125 104.8828125 0.0 0 0 15.015625 154.25390625 A100.63359832763672 100.63359832763672 0.0 0 0 26.0390625 169.28085327148438 A94.9515609741211 94.9515609741211 0.0 0 0 39.66796875 181.90625 A90.37968444824219 90.37968444824219 0.0 0 0 55.67578125 191.59765625 A88.720703125 88.720703125 0.0 0 0 93.7109375 200.0 L93.75 200.0 A76.86444854736328 76.86444854736328 0.0 0 0 114.37890625 197.10546875 A93.4124984741211 93.4124984741211 0.0 0 0 133.9296875 189.078125 A119.95781707763672 119.95781707763672 0.0 0 0 160.09375 169.51953125 A141.9968719482422 141.9968719482422 0.0 0 0 180.99609375 143.6328125 A132.154296875 132.154296875 0.0 0 0 194.9140625 114.31250762939453 C198.28125 104.0 199.9921875 93.92578125 200.0 84.375 C200.00390625 70.9609375 196.98828125 58.589847564697266 191.03125 47.61328125 Z"></path>
<path fill="#231f20" fill-opacity="1.0"  filling="0" d="M39.984375 24.929298400878906 A3.1015625 3.1015625 0.0 0 0 41.91796875 24.2578125 L41.92578125 24.25390625 A3.125 3.125 0.0 0 0 39.980472564697266 18.679298400878906 A3.0914063453674316 3.0914063453674316 0.0 0 0 38.07421875 19.33203125 L38.07421875 19.327735900878906 L38.04296875 19.35546875 A3.125 3.125 0.0 0 0 39.984375 24.929298400878906 Z"></path>
<path fill="#231f20" fill-opacity="1.0"  filling="0" d="M90.625 121.875 A3.125 3.125 0.0 0 0 93.75 125.0 L134.375 125.0 A12.51406192779541 12.51406192779541 0.0 0 0 146.875 112.5 A3.125 3.125 0.0 0 0 140.625 112.5 A6.257421493530273 6.257421493530273 0.0 0 1 134.375 118.75 L93.75 118.75 A3.125 3.125 0.0 0 0 90.625 121.875 Z"></path>
<path fill="#231f20" fill-opacity="1.0"  filling="0" d="M81.25 68.75 C80.57344055175781 68.75 64.56327819824219 68.828125 54.51679992675781 75.52499389648438 A3.125 3.125 0.0 1 0 57.98359680175781 80.72500610351562 C62.04375076293945 78.0179672241211 67.53047180175781 76.59297180175781 72.1578140258789 75.84219360351562 A9.375 9.375 0.0 1 0 81.25 68.75 Z M81.25 81.25 A3.125 3.125 0.0 0 1 81.25 75.0 A3.125 3.125 0.0 0 1 81.25 81.25 Z"></path>
<path fill="#231f20" fill-opacity="1.0"  filling="0" d="M110.76679229736328 75.52499389648438 A3.125 3.125 0.0 1 0 114.23358917236328 80.72500610351562 C118.29374694824219 78.0179672241211 123.78046417236328 76.59297180175781 128.40780639648438 75.84219360351562 A9.375 9.375 0.0 1 0 137.5 68.75 C136.8234405517578 68.75 120.81328582763672 68.828125 110.76679229736328 75.52499389648438 Z M140.625 78.125 A3.125 3.125 0.0 1 1 137.5 75.0 A3.1285154819488525 3.1285154819488525 0.0 0 1 140.625 78.125 Z"></path>
<path fill="#231f20" fill-opacity="1.0"  filling="0" d="M162.5 68.75 A3.125 3.125 0.0 0 0 168.75 68.75 A25.02812385559082 25.02812385559082 0.0 0 0 143.75 43.75 A3.125 3.125 0.0 0 0 143.75 50.0 A18.771093368530273 18.771093368530273 0.0 0 1 162.5 68.75 Z"></path>
<path fill="#231f20" fill-opacity="1.0"  filling="0" d="M56.25 43.75 A25.02812385559082 25.02812385559082 0.0 0 0 31.25 68.75 A3.125 3.125 0.0 0 0 37.5 68.75 A18.771093368530273 18.771093368530273 0.0 0 1 56.25 50.0 A3.125 3.125 0.0 0 0 56.25 43.75 Z"></path></svg>