<svg xmlns="http://www.w3.org/2000/svg" viewBox="0.0 0.0 200.0 200.0" height="200.0px" width="200.0px"><path fill="#f0f0f0" fill-opacity="1.0"  filling="0" d="M18.75 43.359375 L181.25 43.359375 L181.25 156.640625 L18.75 156.640625 L18.75 43.359375 Z"></path>
<path fill="#6fa44a" fill-opacity="1.0"  filling="0" d="M18.75 43.36093521118164 L181.25 43.36093521118164 L181.25 81.12031555175781 L18.75 81.12031555175781 L18.75 43.36093521118164 Z"></path>
<path fill="#d60a2e" fill-opacity="1.0"  filling="0" d="M18.75 118.87968444824219 L181.25 118.87968444824219 L181.25 156.63906860351562 L18.75 156.63906860351562 L18.75 118.87968444824219 Z"></path>
<path fill="#f0f0f0" fill-opacity="1.0"  filling="0" d="M26.953125 129.203125 A2.737499952316284 2.737499952316284 0.0 0 1 24.21875 131.9375 L18.75 131.9375 L18.75 126.46875 L24.21875 126.46875 A2.7281250953674316 2.7281250953674316 0.0 0 1 26.953125 129.203125 Z"></path>
<path fill="#f0f0f0" fill-opacity="1.0"  filling="0" d="M164.125 126.46875 L152.46875 126.46875 A2.734375 2.734375 0.0 1 0 152.46875 131.9375 L164.125 131.9375 A2.734375 2.734375 0.0 1 0 164.125 126.46875 Z M140.8125 126.46875 L129.140625 126.46875 A2.734375 2.734375 0.0 0 0 129.140625 131.9375 L140.8125 131.9375 A2.734375 2.734375 0.0 0 0 140.8125 126.46875 Z M117.484375 126.46875 L105.82813262939453 126.46875 A2.734375 2.734375 0.0 0 0 105.82813262939453 131.9375 L117.484375 131.9375 A2.734375 2.734375 0.0 0 0 117.484375 126.46875 Z M94.171875 126.46875 L82.515625 126.46875 A2.734375 2.734375 0.0 0 0 82.515625 131.9375 L94.171875 131.9375 A2.734375 2.734375 0.0 1 0 94.171875 126.46875 Z M70.859375 126.46875 L59.1875 126.46875 A2.734375 2.734375 0.0 1 0 59.1875 131.9375 L70.859375 131.9375 A2.734375 2.734375 0.0 0 0 70.859375 126.46875 Z M47.531246185302734 126.46875 L35.875 126.46875 A2.734375 2.734375 0.0 0 0 35.875 131.9375 L47.531246185302734 131.9375 A2.734375 2.734375 0.0 0 0 47.531246185302734 126.46875 Z"></path>
<path fill="#f0f0f0" fill-opacity="1.0"  filling="0" d="M181.25 126.46875 L181.25 131.9375 L175.78125 131.9375 A2.734375 2.734375 0.0 0 1 175.78125 126.46875 L181.25 126.46875 Z"></path>
<path fill="#f0f0f0" fill-opacity="1.0"  filling="0" d="M26.953125 70.796875 A2.7281250953674316 2.7281250953674316 0.0 0 1 24.21875 73.53125 L18.75 73.53125 L18.75 68.0625 L24.21875 68.0625 A2.737499952316284 2.737499952316284 0.0 0 1 26.953125 70.796875 Z"></path>
<path fill="#f0f0f0" fill-opacity="1.0"  filling="0" d="M164.125 68.0625 L152.46875 68.0625 A2.734375 2.734375 0.0 1 0 152.46875 73.53125 L164.125 73.53125 A2.734375 2.734375 0.0 1 0 164.125 68.0625 Z M140.8125 68.0625 L129.140625 68.0625 A2.734375 2.734375 0.0 0 0 129.140625 73.53125 L140.8125 73.53125 A2.734375 2.734375 0.0 0 0 140.8125 68.0625 Z M117.484375 68.0625 L105.82813262939453 68.0625 A2.734375 2.734375 0.0 0 0 105.82813262939453 73.53125 L117.484375 73.53125 A2.734375 2.734375 0.0 0 0 117.484375 68.0625 Z M94.171875 68.0625 L82.515625 68.0625 A2.734375 2.734375 0.0 0 0 82.515625 73.53125 L94.171875 73.53125 A2.734375 2.734375 0.0 1 0 94.171875 68.0625 Z M70.859375 68.0625 L59.1875 68.0625 A2.734375 2.734375 0.0 1 0 59.1875 73.53125 L70.859375 73.53125 A2.734375 2.734375 0.0 0 0 70.859375 68.0625 Z M47.531246185302734 68.0625 L35.875 68.0625 A2.734375 2.734375 0.0 0 0 35.875 73.53125 L47.531246185302734 73.53125 A2.734375 2.734375 0.0 0 0 47.531246185302734 68.0625 Z"></path>
<path fill="#f0f0f0" fill-opacity="1.0"  filling="0" d="M181.25 68.0625 L181.25 73.53125 L175.78125 73.53125 A2.734375 2.734375 0.0 0 1 175.78125 68.0625 L181.25 68.0625 Z"></path>
<path fill="#d60a2e" fill-opacity="1.0"  filling="0" d="M106.59375 90.43594360351562 A2.734375 2.734375 0.0 0 0 104.66094207763672 95.3125 A7.520312786102295 7.520312786102295 0.0 0 1 102.734375 108.21719360351562 L102.734375 88.54219055175781 A2.734375 2.734375 0.0 0 0 97.265625 88.54219055175781 L97.265625 108.19062042236328 A7.500000476837158 7.500000476837158 0.0 0 1 95.33905792236328 95.3125 A2.734375 2.734375 0.0 0 0 93.40625 90.4437484741211 A15.526562690734863 15.526562690734863 0.0 0 0 79.5953140258789 105.62031555175781 A2.734375 2.734375 0.0 0 0 85.0531234741211 105.98281860351562 A11.551562309265137 11.551562309265137 0.0 0 1 87.08438110351562 99.828125 A12.989062309265137 12.989062309265137 0.0 1 0 112.98749542236328 101.2125015258789 A13.40000057220459 13.40000057220459 0.0 0 0 112.91718292236328 99.8359375 A11.5625 11.5625 0.0 0 1 114.94844055175781 105.98281860351562 A2.734375 2.734375 0.0 0 0 120.40625 105.62031555175781 A15.526562690734863 15.526562690734863 0.0 0 0 106.59375 90.43594360351562 Z"></path>
<path fill="" fill-opacity="1.0"  filling="0" d="M181.25 40.625 L155.46875 40.625 A2.734375 2.734375 0.0 0 0 155.46875 46.09375 L178.515625 46.09375 L178.515625 78.38594055175781 L21.484375 78.38594055175781 L21.484375 46.09375 L131.640625 46.09375 A2.734375 2.734375 0.0 0 0 131.640625 40.625 L18.75 40.625 A2.734375 2.734375 0.0 0 0 16.015625 43.359375 L16.015625 156.640625 A2.734375 2.734375 0.0 0 0 21.484375 156.640625 L21.484375 83.85469055175781 L178.515625 83.85469055175781 L178.515625 116.14530944824219 L30.46875 116.14530944824219 A2.734375 2.734375 0.0 0 0 30.46875 121.61405944824219 L178.515625 121.61405944824219 L178.515625 153.90625 L30.46875 153.90625 A2.734375 2.734375 0.0 0 0 30.46875 159.375 L181.25 159.375 A2.734375 2.734375 0.0 0 0 183.984375 156.640625 L183.984375 43.359375 A2.734375 2.734375 0.0 0 0 181.25 40.625 Z"></path>
<path fill="" fill-opacity="1.0"  filling="0" d="M143.359375 46.09375 L145.1171875 46.09375 A2.734375 2.734375 0.0 0 0 145.1171875 40.625 L143.359375 40.625 A2.734375 2.734375 0.0 0 0 143.359375 46.09375 Z"></path></svg>