<svg xmlns="http://www.w3.org/2000/svg" viewBox="0.0 0.0 200.0 200.0" height="200.0px" width="200.0px"><path fill="#ffeb99" fill-opacity="1.0"  filling="0" d="M34.375 6.25 L165.625 6.25 L165.625 193.75 L34.375 193.75 L34.375 6.25 Z"></path>
<path fill="#91cc04" fill-opacity="1.0"  filling="0" d="M46.875 84.375 L153.125 84.375 L153.125 153.125 L46.875 153.125 L46.875 84.375 Z"></path>
<path fill="#91cc04" fill-opacity="1.0"  filling="0" d="M143.75 15.625 L156.25 15.625 L156.25 28.125 L143.75 28.125 L143.75 15.625 Z"></path>
<path fill="" fill-opacity="1.0"  filling="0" d="M165.625 3.125 L34.375 3.125 A3.125 3.125 0.0 0 0 31.25 6.25 L31.25 193.75 A3.125 3.125 0.0 0 0 34.375 196.875 L165.625 196.875 A3.125 3.125 0.0 0 0 168.75 193.75 L168.75 6.25 A3.125 3.125 0.0 0 0 165.625 3.125 Z M162.5 190.625 L37.5 190.625 L37.5 9.375 L162.5 9.375 L162.5 190.625 Z"></path>
<path fill="" fill-opacity="1.0"  filling="0" d="M46.875 65.625 A3.125 3.125 0.0 0 0 46.875 71.875 L56.25 71.875 L56.25 75.0 A3.125 3.125 0.0 0 0 62.5 75.0 L62.5 71.875 L64.0625 71.875 A10.9375 10.9375 0.0 0 0 64.0625 50.0 L62.5 50.0 L62.5 40.625 L71.875 40.625 A3.125 3.125 0.0 0 0 71.875 34.375 L62.5 34.375 L62.5 31.25 A3.125 3.125 0.0 0 0 56.25 31.25 L56.25 34.375 L54.6875 34.375 A10.9375 10.9375 0.0 0 0 54.6875 56.25 L56.25 56.25 L56.25 65.625 L46.875 65.625 Z M54.6875 50.0 A4.6875 4.6875 0.0 0 1 54.6875 40.625 L56.25 40.625 L56.25 50.0 L54.6875 50.0 Z M62.5 56.25 L64.0625 56.25 A4.6875 4.6875 0.0 0 1 64.0625 65.625 L62.5 65.625 L62.5 56.25 Z"></path>
<path fill="" fill-opacity="1.0"  filling="0" d="M143.75 178.125 L56.25 178.125 A3.125 3.125 0.0 0 0 56.25 184.375 L143.75 184.375 A3.125 3.125 0.0 0 0 143.75 178.125 Z"></path>
<path fill="" fill-opacity="1.0"  filling="0" d="M153.125 81.25 L46.875 81.25 A3.125 3.125 0.0 0 0 43.75 84.375 L43.75 153.125 A3.125 3.125 0.0 0 0 46.875 156.25 L153.125 156.25 A3.125 3.125 0.0 0 0 156.25 153.125 L156.25 84.375 A3.125 3.125 0.0 0 0 153.125 81.25 Z M65.625 150.0 L50.0 150.0 L50.0 103.125 L65.625 103.125 L65.625 150.0 Z M65.625 96.875 L50.0 96.875 L50.0 87.5 L65.625 87.5 L65.625 96.875 Z M90.625 150.0 L71.875 150.0 L71.875 103.125 L90.625 103.125 L90.625 150.0 Z M90.625 96.875 L71.875 96.875 L71.875 87.5 L90.625 87.5 L90.625 96.875 Z M134.375 150.0 L96.875 150.0 L96.875 103.125 L134.375 103.125 L134.375 150.0 Z M134.375 96.875 L96.875 96.875 L96.875 87.5 L134.375 87.5 L134.375 96.875 Z M150.0 150.0 L140.625 150.0 L140.625 103.125 L150.0 103.125 L150.0 150.0 Z M150.0 96.875 L140.625 96.875 L140.625 87.5 L150.0 87.5 L150.0 96.875 Z"></path>
<path fill="" fill-opacity="1.0"  filling="0" d="M87.5 40.625 L128.125 40.625 A3.125 3.125 0.0 0 0 128.125 34.375 L87.5 34.375 A3.125 3.125 0.0 0 0 87.5 40.625 Z"></path>
<path fill="" fill-opacity="1.0"  filling="0" d="M87.5 50.0 L128.125 50.0 A3.125 3.125 0.0 0 0 128.125 43.75 L87.5 43.75 A3.125 3.125 0.0 0 0 87.5 50.0 Z"></path>
<path fill="" fill-opacity="1.0"  filling="0" d="M87.5 59.375 L128.125 59.375 A3.125 3.125 0.0 0 0 128.125 53.125 L87.5 53.125 A3.125 3.125 0.0 0 0 87.5 59.375 Z"></path>
<path fill="" fill-opacity="1.0"  filling="0" d="M143.75 31.25 L156.25 31.25 A3.125 3.125 0.0 0 0 159.375 28.125 L159.375 15.625 A3.125 3.125 0.0 0 0 156.25 12.5 L143.75 12.5 A3.125 3.125 0.0 0 0 140.625 15.625 L140.625 28.125 A3.125 3.125 0.0 0 0 143.75 31.25 Z M146.875 18.75 L153.125 18.75 L153.125 25.0 L146.875 25.0 L146.875 18.75 Z"></path></svg>