<svg xmlns="http://www.w3.org/2000/svg" viewBox="0.0 0.0 200.0 200.0" height="200.0px" width="200.0px"><path fill="#f07281" fill-opacity="1.0"  filling="0" d="M109.10004425048828 23.395004272460938 L90.89957427978516 23.395004272460938 L90.89957427978516 36.40170669555664 C90.89957427978516 41.42750549316406 94.97381591796875 45.502132415771484 100.0 45.502132415771484 C105.02580261230469 45.502132415771484 109.10042572021484 41.42789077758789 109.10042572021484 36.40170669555664 L109.10042572021484 23.395004272460938 L109.10004425048828 23.395004272460938 Z"></path>
<path fill="#eb5569" fill-opacity="1.0"  filling="0" d="M103.90586853027344 44.62478256225586 C102.72227478027344 45.187286376953125 101.39805603027344 45.503692626953125 99.9996109008789 45.503692626953125 C94.97225189208984 45.503692626953125 90.89801025390625 41.4294548034668 90.89801025390625 36.40209197998047 L90.89801025390625 23.39423370361328 L98.71054077148438 23.39423370361328 L98.71054077148438 36.40209197998047 C98.71054077148438 40.0310173034668 100.83555603027344 43.16383743286133 103.90586853027344 44.62478256225586 Z"></path>
<path fill="#548eb5" fill-opacity="1.0"  filling="0" d="M148.53457641601562 27.30127716064453 L51.46465301513672 27.30127716064453 L47.55838394165039 23.04656982421875 L47.55838394165039 7.8121337890625 L51.46465301513672 3.0339889526367188 L148.53457641601562 3.0339889526367188 L152.4408416748047 7.0308837890625 L152.4408416748047 23.24188232421875 L148.53457641601562 27.30127716064453 Z"></path>
<path fill="#497090" fill-opacity="1.0"  filling="0" d="M63.18305969238281 3.0347747802734375 L63.18305969238281 27.300498962402344 L51.464263916015625 27.300498962402344 L47.55799865722656 23.04656982421875 L47.55799865722656 7.8121337890625 L51.464263916015625 3.0347747802734375 L63.18305969238281 3.0347747802734375 Z"></path>
<path fill="#98bce5" fill-opacity="1.0"  filling="0" d="M160.668212890625 188.84254455566406 L148.53457641601562 188.84254455566406 L148.53457641601562 2.9300918579101562 L157.93382263183594 2.9300918579101562 C159.44398498535156 2.9300918579101562 160.668212890625 4.154304504394531 160.668212890625 5.6644744873046875 L160.668212890625 188.84254455566406 Z"></path>
<path fill="#7bacdf" fill-opacity="1.0"  filling="0" d="M148.5349578857422 2.9293060302734375 L156.3474884033203 2.9293060302734375 L156.3474884033203 188.84410095214844 L148.5349578857422 188.84410095214844 L148.5349578857422 2.9293060302734375 Z"></path>
<path fill="#98bce5" fill-opacity="1.0"  filling="0" d="M51.46465301513672 188.84254455566406 L39.33100891113281 188.84254455566406 L39.33100891113281 5.6644744873046875 C39.33100891113281 4.154304504394531 40.55523681640625 2.9300918579101562 42.06539535522461 2.9300918579101562 L51.46465301513672 2.9300918579101562 L51.46465301513672 188.84254455566406 Z"></path>
<path fill="#7bacdf" fill-opacity="1.0"  filling="0" d="M47.14393615722656 2.9293060302734375 L47.14393615722656 188.84410095214844 L39.33140563964844 188.84410095214844 L39.33140563964844 5.663688659667969 C39.33140563964844 4.153526306152344 40.55562210083008 2.9293060302734375 42.06578826904297 2.9293060302734375 L47.14393615722656 2.9293060302734375 Z"></path>
<path fill="#548eb5" fill-opacity="1.0"  filling="0" d="M186.4101104736328 152.93771362304688 C185.66049194335938 152.93771362304688 184.910888671875 152.65216064453125 184.33901977539062 152.08029174804688 C183.19448852539062 150.9365234375 183.19369506835938 149.08145141601562 184.3378448486328 147.9373016357422 C190.6593475341797 141.61227416992188 194.14059448242188 133.20559692382812 194.14059448242188 124.26611328125 C194.14059448242188 115.32897186279297 190.6593475341797 106.92385864257812 184.3378448486328 100.59883880615234 C183.19369506835938 99.45429992675781 183.19448852539062 97.59921264648438 184.33901977539062 96.45584869384766 C185.483154296875 95.31248474121094 187.3382568359375 95.31209564208984 188.48199462890625 96.45702362060547 C195.90936279296875 103.8886947631836 199.99961853027344 113.76490020751953 199.99961853027344 124.26651000976562 C199.99961853027344 134.77044677734375 195.90896606445312 144.64822387695312 188.48199462890625 152.07989501953125 C187.91012573242188 152.65138244628906 187.1601104736328 152.93771362304688 186.4101104736328 152.93771362304688 Z"></path>
<path fill="#548eb5" fill-opacity="1.0"  filling="0" d="M177.8280487060547 144.35565185546875 C177.07803344726562 144.35565185546875 176.32843017578125 144.0697021484375 175.75616455078125 143.4974365234375 C174.61203002929688 142.35330200195312 174.61203002929688 140.4982147216797 175.75656127929688 139.35446166992188 C179.7874298095703 135.32318115234375 182.00775146484375 129.96458435058594 182.00775146484375 124.26611328125 C182.00775146484375 118.57078552246094 179.7870330810547 113.21177673339844 175.75538635253906 109.17659759521484 C174.61163330078125 108.03206634521484 174.61241149902344 106.17698669433594 175.75733947753906 105.03362274169922 C176.90187072753906 103.88986206054688 178.7569580078125 103.89102935791016 179.90032958984375 105.03557586669922 C185.03744506835938 110.1773910522461 187.8671417236328 117.00709533691406 187.8671417236328 124.26651000976562 C187.8671417236328 131.53060913085938 185.03744506835938 138.36070251464844 179.8995361328125 143.49822998046875 C179.32766723632812 144.06932067871094 178.57766723632812 144.35565185546875 177.8280487060547 144.35565185546875 Z"></path>
<path fill="#548eb5" fill-opacity="1.0"  filling="0" d="M13.589897155761719 152.93771362304688 C12.839889526367188 152.93771362304688 12.089889526367188 152.65138244628906 11.517623901367188 152.07911682128906 C4.090248107910156 144.64706420898438 0.0 134.76966857910156 0.0 124.26571655273438 C0.0 113.76451110839844 4.090248107910156 103.88790893554688 11.517623901367188 96.45623779296875 C12.660987854003906 95.31130981445312 14.516067504882812 95.31092071533203 15.660606384277344 96.45506286621094 C16.805137634277344 97.59882354736328 16.80553436279297 99.45390319824219 15.661773681640625 100.59805297851562 C9.340660095214844 106.9234619140625 5.859397888183594 115.32897186279297 5.859397888183594 124.26571655273438 C5.859397888183594 133.20521545410156 9.340660095214844 141.61187744140625 15.66217041015625 147.93692016601562 C16.805923461914062 149.08145141601562 16.80553436279297 150.9365234375 15.660995483398438 152.07989501953125 C15.088729858398438 152.65176391601562 14.339118957519531 152.93771362304688 13.589897155761719 152.93771362304688 Z"></path>
<path fill="#548eb5" fill-opacity="1.0"  filling="0" d="M22.171958923339844 144.35565185546875 C21.422348022460938 144.35565185546875 20.672348022460938 144.0697021484375 20.1004638671875 143.4974365234375 C14.962554931640625 138.35952758789062 12.133247375488281 131.52981567382812 12.133247375488281 124.26571655273438 C12.133247375488281 117.00631713867188 14.962554931640625 110.17660522460938 20.099685668945312 105.0347900390625 C21.24304962158203 103.8902587890625 23.09813690185547 103.88907623291016 24.24267578125 105.0328369140625 C25.38720703125 106.17658996582031 25.388381958007812 108.03128051757812 24.24462890625 109.17582702636719 C20.21257781982422 113.21138763427734 17.99225616455078 118.57078552246094 17.99225616455078 124.26571655273438 C17.99225616455078 129.96458435058594 20.212181091308594 135.32318115234375 24.243453979492188 139.35406494140625 C25.387596130371094 140.4982147216797 25.387596130371094 142.35330200195312 24.243453979492188 143.49705505371094 C23.67157745361328 144.06932067871094 22.92156982421875 144.35565185546875 22.171958923339844 144.35565185546875 Z"></path>
<path fill="#548eb5" fill-opacity="1.0"  filling="0" d="M100.00039672851562 69.56199645996094 C98.38241577148438 69.56199645996094 97.07069396972656 68.2502670288086 97.07069396972656 66.63229370117188 L97.07069396972656 60.56547164916992 C97.07069396972656 58.94749450683594 98.38241577148438 57.635772705078125 100.00039672851562 57.635772705078125 C101.61875915527344 57.635772705078125 102.93009185791016 58.94749450683594 102.93009185791016 60.56547164916992 L102.93009185791016 66.63229370117188 C102.93009185791016 68.2502670288086 101.61875915527344 69.56199645996094 100.00039672851562 69.56199645996094 Z"></path>
<path fill="#548eb5" fill-opacity="1.0"  filling="0" d="M114.27857971191406 62.60649490356445 C113.52896118164062 62.60649490356445 112.77896118164062 62.320552825927734 112.20707702636719 61.748287200927734 L107.91722106933594 57.45842742919922 C106.77268981933594 56.31428146362305 106.77268981933594 54.45958709716797 107.91682434082031 53.3154411315918 C109.06137084960938 52.171295166015625 110.91645812988281 52.1709098815918 112.05982208251953 53.3154411315918 L116.34967803955078 57.60530090332031 C117.49420928955078 58.749446868896484 117.49420928955078 60.60414123535156 116.3500747680664 61.748287200927734 C115.77818298339844 62.320552825927734 115.02819061279297 62.60649490356445 114.27857971191406 62.60649490356445 Z"></path>
<path fill="#548eb5" fill-opacity="1.0"  filling="0" d="M85.72103881835938 62.60649490356445 C84.97142791748047 62.60649490356445 84.22142791748047 62.320552825927734 83.64954376220703 61.748287200927734 C82.50540161132812 60.60414123535156 82.50540161132812 58.74905776977539 83.64954376220703 57.60530090332031 L87.93940734863281 53.3154411315918 C89.08354949951172 52.171295166015625 90.93863677978516 52.171295166015625 92.08238983154297 53.3154411315918 C93.2265396118164 54.45958709716797 93.2265396118164 56.31467056274414 92.08238983154297 57.45842742919922 L87.79253387451172 61.748287200927734 C87.22065734863281 62.320552825927734 86.47064971923828 62.60649490356445 85.72103881835938 62.60649490356445 Z"></path>
<path fill="#548eb5" fill-opacity="1.0"  filling="0" d="M142.46774291992188 197.06991577148438 L166.7354278564453 197.06991577148438 L166.7354278564453 187.670654296875 C166.7354278564453 186.16049194335938 165.51119995117188 184.936279296875 164.00103759765625 184.936279296875 L145.20213317871094 184.936279296875 C143.6919708251953 184.936279296875 142.46774291992188 186.16049194335938 142.46774291992188 187.670654296875 L142.46774291992188 197.06991577148438 Z"></path>
<path fill="#548eb5" fill-opacity="1.0"  filling="0" d="M33.264190673828125 197.06991577148438 L57.53186798095703 197.06991577148438 L57.53186798095703 187.670654296875 C57.53186798095703 186.16049194335938 56.30764389038086 184.936279296875 54.797481536865234 184.936279296875 L35.99858093261719 184.936279296875 C34.48841857910156 184.936279296875 33.264190673828125 186.16049194335938 33.264190673828125 187.670654296875 L33.264190673828125 197.06991577148438 Z"></path>
<path fill="#497090" fill-opacity="1.0"  filling="0" d="M44.9837646484375 184.93783569335938 L44.9837646484375 197.07069396972656 L33.26496887207031 197.07069396972656 L33.26496887207031 187.67222595214844 C33.26496887207031 186.1620635986328 34.48918914794922 184.93783569335938 35.999351501464844 184.93783569335938 L44.9837646484375 184.93783569335938 Z"></path>
<path fill="#497090" fill-opacity="1.0"  filling="0" d="M154.18731689453125 184.93783569335938 L154.18731689453125 197.07069396972656 L142.46852111816406 197.07069396972656 L142.46852111816406 187.67222595214844 C142.46852111816406 186.1620635986328 143.6927490234375 184.93783569335938 145.20291137695312 184.93783569335938 L154.18731689453125 184.93783569335938 Z"></path></svg>