<svg xmlns="http://www.w3.org/2000/svg" viewBox="0.0 0.0 200.0 200.0" height="200.0px" width="200.0px"><path fill="#b27946" fill-opacity="1.0"  filling="0" d="M196.77420043945312 183.8709716796875 L196.77420043945312 193.5483856201172 C196.77420043945312 195.32257080078125 195.32257080078125 196.77420043945312 193.5483856201172 196.77420043945312 L6.4516143798828125 196.77420043945312 C4.677421569824219 196.77420043945312 3.2258071899414062 195.32257080078125 3.2258071899414062 193.5483856201172 L3.2258071899414062 183.8709716796875 L35.48387145996094 183.8709716796875 L196.77420043945312 183.8709716796875 Z"></path>
<path fill="#d3a06c" fill-opacity="1.0"  filling="0" d="M151.61289978027344 132.258056640625 C151.61289978027344 142.93548583984375 160.29031372070312 151.61289978027344 170.96774291992188 151.61289978027344 C176.67742919921875 151.61289978027344 181.83871459960938 149.1290283203125 185.38710021972656 145.16128540039062 L193.5483856201172 145.16128540039062 C195.32257080078125 145.16128540039062 196.77420043945312 146.6129150390625 196.77420043945312 148.38710021972656 L196.77420043945312 183.8709716796875 L35.48387145996094 183.8709716796875 L35.48387145996094 138.70968627929688 L36.4838752746582 138.35482788085938 C39.0 146.03225708007812 46.29032516479492 151.61289978027344 54.83871078491211 151.61289978027344 C65.51612854003906 151.61289978027344 74.19355010986328 142.93548583984375 74.19355010986328 132.258056640625 C74.19355010986328 142.93548583984375 82.8709716796875 151.61289978027344 93.54838562011719 151.61289978027344 C104.22581481933594 151.61289978027344 112.90322875976562 142.93548583984375 112.90322875976562 132.258056640625 C112.90322875976562 142.93548583984375 121.58064270019531 151.61289978027344 132.258056640625 151.61289978027344 C142.93548583984375 151.61289978027344 151.61289978027344 142.93548583984375 151.61289978027344 132.258056640625 Z"></path>
<path fill="#cf9e76" fill-opacity="1.0"  filling="0" d="M35.48387145996094 138.70968627929688 L35.48387145996094 183.8709716796875 L3.2258071899414062 183.8709716796875 L3.2258071899414062 138.70968627929688 L22.580642700195312 138.70968627929688 L35.48387145996094 138.70968627929688 Z"></path>
<path fill="#ccd1d9" fill-opacity="1.0"  filling="0" d="M196.77420043945312 6.4516143798828125 L196.77420043945312 19.354835510253906 C196.77420043945312 21.1290283203125 195.32257080078125 22.580642700195312 193.5483856201172 22.580642700195312 L170.96774291992188 22.580642700195312 L132.258056640625 22.580642700195312 L93.54838562011719 22.580642700195312 L54.83871078491211 22.580642700195312 C37.032257080078125 22.580642700195312 22.580642700195312 37.032257080078125 22.580642700195312 54.83871078491211 L22.580642700195312 138.70968627929688 L3.2258071899414062 138.70968627929688 L3.2258071899414062 54.83871078491211 C3.2258071899414062 26.32257843017578 26.32257843017578 3.2258071899414062 54.83871078491211 3.2258071899414062 L193.5483856201172 3.2258071899414062 C195.32257080078125 3.2258071899414062 196.77420043945312 4.677421569824219 196.77420043945312 6.4516143798828125 Z"></path>
<path fill="#fcd770" fill-opacity="1.0"  filling="0" d="M170.96774291992188 112.90322875976562 C181.64517211914062 112.90322875976562 190.32257080078125 121.58064270019531 190.32257080078125 132.258056640625 C190.32257080078125 137.22581481933594 188.45159912109375 141.74192810058594 185.38710021972656 145.16128540039062 C181.83871459960938 149.1290283203125 176.67742919921875 151.61289978027344 170.96774291992188 151.61289978027344 C160.29031372070312 151.61289978027344 151.61289978027344 142.93548583984375 151.61289978027344 132.258056640625 C151.61289978027344 121.58064270019531 160.29031372070312 112.90322875976562 170.96774291992188 112.90322875976562 Z"></path>
<path fill="#fcd770" fill-opacity="1.0"  filling="0" d="M151.61289978027344 132.258056640625 A19.354839324951172 19.354839324951172 0.0 1 1 112.90322875976562 132.258056640625 A19.354839324951172 19.354839324951172 0.0 1 1 151.61289978027344 132.258056640625 Z"></path>
<path fill="#fcd770" fill-opacity="1.0"  filling="0" d="M112.90322875976562 132.258056640625 A19.354839324951172 19.354839324951172 0.0 1 1 74.19355010986328 132.258056640625 A19.354839324951172 19.354839324951172 0.0 1 1 112.90322875976562 132.258056640625 Z"></path>
<path fill="#fcd770" fill-opacity="1.0"  filling="0" d="M74.19355010986328 132.258056640625 C74.19355010986328 142.93548583984375 65.51612854003906 151.61289978027344 54.83871078491211 151.61289978027344 C46.29032516479492 151.61289978027344 39.0 146.03225708007812 36.4838752746582 138.35482788085938 C35.838714599609375 136.4516143798828 35.48387145996094 134.38710021972656 35.48387145996094 132.258056640625 C35.48387145996094 121.58064270019531 44.161285400390625 112.90322875976562 54.83871078491211 112.90322875976562 C65.51612854003906 112.90322875976562 74.19355010986328 121.58064270019531 74.19355010986328 132.258056640625 Z"></path>
<path fill="" fill-opacity="1.0"  filling="0" d="M193.5483856201172 25.80644989013672 C197.1064453125 25.80644989013672 200.0 22.91290283203125 200.0 19.354835510253906 L200.0 6.4516143798828125 C200.0 2.8935470581054688 197.1064453125 0.0 193.5483856201172 0.0 L54.83871078491211 0.0 C24.599998474121094 0.0 0.0 24.599998474121094 0.0 54.83871078491211 L0.0 193.5483856201172 C0.0 197.1064453125 2.8935470581054688 200.0 6.4516143798828125 200.0 L193.5483856201172 200.0 C197.1064453125 200.0 200.0 197.1064453125 200.0 193.5483856201172 L200.0 148.38710021972656 C200.0 144.8290252685547 197.1064453125 141.93548583984375 193.5483856201172 141.93548583984375 L191.33871459960938 141.93548583984375 C192.741943359375 138.9967803955078 193.5483856201172 135.72581481933594 193.5483856201172 132.258056640625 C193.5483856201172 120.90644836425781 185.11935424804688 111.50968170166016 174.19354248046875 109.93548583984375 L174.19354248046875 25.80644989013672 L193.5483856201172 25.80644989013672 Z M54.83871078491211 6.4516143798828125 L193.5483856201172 6.4516143798828125 L193.5483856201172 19.354835510253906 L54.83871078491211 19.354835510253906 C35.274200439453125 19.354835510253906 19.354835510253906 35.274200439453125 19.354835510253906 54.83871078491211 L19.354835510253906 135.48387145996094 L6.4516143798828125 135.48387145996094 L6.4516143798828125 54.83871078491211 C6.4516143798828125 28.158065795898438 28.158065795898438 6.4516143798828125 54.83871078491211 6.4516143798828125 Z M132.258056640625 116.1290283203125 C141.151611328125 116.1290283203125 148.38710021972656 123.36451721191406 148.38710021972656 132.258056640625 C148.38710021972656 141.151611328125 141.151611328125 148.38710021972656 132.258056640625 148.38710021972656 C123.36451721191406 148.38710021972656 116.1290283203125 141.151611328125 116.1290283203125 132.258056640625 C116.1290283203125 123.36451721191406 123.36451721191406 116.1290283203125 132.258056640625 116.1290283203125 Z M129.03225708007812 109.93548583984375 C122.1806411743164 110.9225845336914 116.3258056640625 114.98387145996094 112.90322875976562 120.68708801269531 C109.48064422607422 114.98387145996094 103.62580871582031 110.9225845336914 96.7741928100586 109.93548583984375 L96.7741928100586 25.80644989013672 L129.03225708007812 25.80644989013672 L129.03225708007812 109.93548583984375 Z M32.51612854003906 135.48387145996094 L25.80644989013672 135.48387145996094 L25.80644989013672 54.83871078491211 C25.80644989013672 39.922576904296875 37.119354248046875 27.60968017578125 51.6129035949707 25.99677276611328 L51.6129035949707 109.93548583984375 C40.68709182739258 111.50968170166016 32.25806427001953 120.90644836425781 32.25806427001953 132.258056640625 C32.25806427001953 133.35484313964844 32.36451721191406 134.42581176757812 32.51612854003906 135.48387145996094 Z M32.25806427001953 180.64517211914062 L6.4516143798828125 180.64517211914062 L6.4516143798828125 141.93548583984375 L32.25806427001953 141.93548583984375 L32.25806427001953 180.64517211914062 Z M54.83871078491211 116.1290283203125 C63.73225784301758 116.1290283203125 70.96774291992188 123.36451721191406 70.96774291992188 132.258056640625 C70.96774291992188 141.151611328125 63.73225784301758 148.38710021972656 54.83871078491211 148.38710021972656 C45.945159912109375 148.38710021972656 38.709678649902344 141.151611328125 38.709678649902344 132.258056640625 C38.709678649902344 123.36451721191406 45.945159912109375 116.1290283203125 54.83871078491211 116.1290283203125 Z M58.06451416015625 109.93548583984375 L58.06451416015625 25.80644989013672 L90.32257843017578 25.80644989013672 L90.32257843017578 109.93548583984375 C83.47096252441406 110.9225845336914 77.61613464355469 114.98387145996094 74.19355010986328 120.68708801269531 C70.77096557617188 114.98387145996094 64.91613006591797 110.9225845336914 58.06451416015625 109.93548583984375 Z M93.54838562011719 116.1290283203125 C102.44193267822266 116.1290283203125 109.67742156982422 123.36451721191406 109.67742156982422 132.258056640625 C109.67742156982422 141.151611328125 102.44193267822266 148.38710021972656 93.54838562011719 148.38710021972656 C84.65483856201172 148.38710021972656 77.41935729980469 141.151611328125 77.41935729980469 132.258056640625 C77.41935729980469 123.36451721191406 84.65483856201172 116.1290283203125 93.54838562011719 116.1290283203125 Z M6.4516143798828125 193.5483856201172 L6.4516143798828125 187.09677124023438 L193.5483856201172 187.09677124023438 L193.5483856201172 193.5483856201172 L6.4516143798828125 193.5483856201172 Z M193.5483856201172 180.64517211914062 L38.709678649902344 180.64517211914062 L38.709678649902344 148.03225708007812 C42.81290054321289 152.22579956054688 48.522579193115234 154.83871459960938 54.83871078491211 154.83871459960938 C63.05806350708008 154.83871459960938 70.24193572998047 150.40966796875 74.19355010986328 143.82904052734375 C78.1451644897461 150.40966796875 85.32903289794922 154.83871459960938 93.54838562011719 154.83871459960938 C101.76774597167969 154.83871459960938 108.95161437988281 150.40966796875 112.90322875976562 143.82904052734375 C116.8548355102539 150.40966796875 124.03871154785156 154.83871459960938 132.258056640625 154.83871459960938 C140.4774169921875 154.83871459960938 147.6613006591797 150.40966796875 151.61289978027344 143.82904052734375 C155.56451416015625 150.40966796875 162.74838256835938 154.83871459960938 170.96774291992188 154.83871459960938 C177.1032257080078 154.83871459960938 182.66773986816406 152.3709716796875 186.741943359375 148.38710021972656 L193.5483856201172 148.38710021972656 L193.5483856201172 180.64517211914062 Z M187.09677124023438 132.258056640625 C187.09677124023438 141.151611328125 179.86129760742188 148.38710021972656 170.96774291992188 148.38710021972656 C162.07418823242188 148.38710021972656 154.83871459960938 141.151611328125 154.83871459960938 132.258056640625 C154.83871459960938 123.36451721191406 162.07418823242188 116.1290283203125 170.96774291992188 116.1290283203125 C179.86129760742188 116.1290283203125 187.09677124023438 123.36451721191406 187.09677124023438 132.258056640625 Z M167.741943359375 109.93548583984375 C160.89031982421875 110.9225845336914 155.03549194335938 114.98387145996094 151.61289978027344 120.68708801269531 C148.19032287597656 114.98387145996094 142.33547973632812 110.9225845336914 135.48387145996094 109.93548583984375 L135.48387145996094 25.80644989013672 L167.741943359375 25.80644989013672 L167.741943359375 109.93548583984375 Z"></path></svg>