<?xml version='1.0' encoding='utf-8'?>
<svg xmlns:svg="http://www.w3.org/2000/svg" version="1.1" id="Layer_1" x="0px" y="0px" viewBox="0 0 500 500" style="width: 188px;" xml:space="preserve" data-imageid="moscow-46" imageName="Moscow" class="illustrations_image"><svg:style type="text/css">
	.st0_moscow-46{fill:#FFFFFF;}
	.st1_moscow-46{fill:#231F20;}
	.st2_moscow-46{fill:#68E1FD;}
	.st3_moscow-46{fill:#D1D3D4;}
</svg:style><svg:path class="st0_moscow-46" d="M 291.666613077398 264.84590792751925 L 291.511047056961 265.09882324792954 L 291.35925060221444 265.3547156132143 L 291.21127144030237 265.6135582929088 L 291.06715730463844 265.87532465161433 L 290.97964883954745 266.04051774122865 L 291.0625855917956 266.0702020168528 L 291.06796042918705 266.0721605071726 L 291.3068796695449 266.16076968846625 L 291.31222597565187 266.1627873271891 L 291.55000371220524 266.25407774385445 L 291.555321012279 266.2561541281521 L 291.7919362205808 266.3501115577692 L 291.79722405292 266.3522462889872 L 292.03265570852307 266.44885650913585 L 292.03791362376353 266.4510491931266 L 292.2721407022208 266.5502979813867 L 292.27736826261764 266.55254822880335 L 292.51036973948203 266.6544213627549 L 292.515566518186 266.6567287893067 L 292.7473213690103 266.76121204652947 L 292.7524869493433 266.7635762732003 L 292.9829741496805 266.87065543127426 L 292.9881081244071 266.87307608450186 L 293.2173066498101 266.9827369210069 L 293.22240862041104 266.9852136328267 L 293.4502974464327 267.0974419253427 L 293.4553670223791 267.09997433349315 L 293.68192512457233 267.2147558596 L 293.6869619226032 267.21734360759274 L 293.9121682765209 267.33466414487043 L 293.9171719199254 267.3373068820235 L 294.1410055011205 267.45715220805187 L 294.1459756190263 267.45984958948844 L 294.3684154030516 267.5822054818474 L 294.37335162972033 267.5849571684593 L 294.59437659212887 267.7098094047288 L 294.5992785662607 267.7126150631058 L 294.81886768260523 267.8399494208656 L 294.8237350466529 267.8428087231911 L 295.0418672924864 267.9726109800212 L 295.0466996919811 267.97552360393513 L 295.2633540428564 268.1077795374154 L 295.2681511257453 268.1107451658445 L 295.4833065572154 268.2454405535549 L 295.4880679732136 268.2484588745118 L 295.7017034608313 268.3855794940322 L 295.70642886078747 268.38865020038327 L 295.87215158536145 268.4976749964109 L 295.9033211896668 268.43913868334835 L 295.9070699171771 268.43223004798705 L 296.0037943289306 268.257268721633 L 296.00764607105884 268.2504288050387 L 296.1070090509238 268.07717540582877 L 296.11096262403873 268.0704053388804 L 296.21293758227324 267.8988864565565 L 296.2169918223989 267.8921873248301 L 296.32155216926105 267.7224295491342 L 296.32570593337203 267.7158023964794 L 296.4328250791199 267.5478323171533 L 296.43707724617667 267.5412781492937 L 296.5467286010683 267.37512235607943 L 296.5510780727951 267.3686421442245 L 296.6632350470886 267.204327226864 L 296.66768074849847 267.19792191131285 L 296.7823167524519 267.03547445954797 L 296.7868576321227 267.02914495327343 L 296.9039460759941 266.8685915568462 L 296.90858110609963 266.8623387490445 L 297.02809540014715 266.7037059976967 L 297.03282357624977 266.69753075728806 L 297.1547371307314 266.5408452407617 L 297.15955747134086 266.5347484198307 L 297.28384369651474 266.3800367278677 L 297.28875524241903 266.3740191650309 L 297.41538754854326 266.2213078873732 L 297.4203893619187 266.2153704110619 L 297.54934115925124 266.06468613745136 L 297.5544323225582 266.05882956909744 L 297.68567702135726 265.91019888927605 L 297.69085663602687 265.90442404639384 L 297.8243676465504 265.7578735501035 L 297.8296348314715 265.75218124925266 L 297.96538556397763 265.6077375262353 L 297.9707394537898 265.60212858585896 L 298.10870331853664 265.45981822585657 L 298.1141430617373 265.454293468983 L 298.25429346898295 265.31414306173735 L 298.2598182258565 265.3087033185367 L 298.4021285858589 265.17073945378985 L 298.4077375262353 265.1653855639777 L 298.5521812492526 265.0296348314715 L 298.55787355010347 265.02436764655044 L 298.7044240463938 264.8908566360269 L 298.710198889276 264.8856770213573 L 298.8588295690974 264.7544323225583 L 298.8646861374512 264.7493411592514 L 299.01537041106167 264.6203893619188 L 299.0213078873732 264.6153875485432 L 299.1740191650309 264.488755242419 L 299.1800367278676 264.4838436965148 L 299.3347484198306 264.3595574713409 L 299.3408452407615 264.35473713073156 L 299.49753075728785 264.23282357624987 L 299.5037059976966 264.22809540014714 L 299.6623387490444 264.1085811060996 L 299.6685915568462 264.10394607599403 L 299.8291449532735 263.9868576321226 L 299.8354744595479 263.9823167524519 L 299.9979219113128 263.86768074849846 L 300.00432722686395 263.8632350470886 L 300.16864214422446 263.7510780727951 L 300.1751223560793 263.74672860106836 L 300.34127814929354 263.6370772461767 L 300.3478323171532 263.63282507911987 L 300.5158023964793 263.525705933372 L 300.5224295491341 263.52155216926104 L 300.69218732483 263.41699182239887 L 300.6988864565564 263.41293758227323 L 300.8704053388803 263.3109626240387 L 300.87717540582867 263.3070090509238 L 301.0504288050386 263.20764607105883 L 301.0572687216329 263.2037943289306 L 301.23223004798695 263.1070699171771 L 301.2391386833482 263.1033211896669 L 301.41578134710437 263.0092619357668 L 301.4227575215166 263.0056174246044 L 301.6010549329331 262.9142499182996 L 301.60809741436844 262.91071084149314 L 301.78802298370323 262.82206167252565 L 301.79513048442436 262.8186292622769 L 301.9766576219356 262.73272502038856 L 301.9838287951937 262.7294005207461 L 302.1669309111394 262.64626779567885 L 302.1741643479872 262.64305245992875 L 302.3588148526254 262.56271784142456 L 302.3661090788646 262.55961292922376 L 302.55228138245354 262.48210300702453 L 302.55963485573585 262.4791097812791 L 302.74730236853344 262.4044511451267 L 302.75471347563797 262.4015708686216 L 302.94384960790234 262.32979010825807 L 302.9513166622059 262.32702404004664 L 303.14189482419516 262.25814774521376 L 303.1494160633606 262.2554971367728 L 303.3414096653328 262.18955189721265 L 303.3489832492313 262.1870179883767 L 303.54236570144445 262.1240303938311 L 303.54998971033666 262.12161440851554 L 303.74473442304895 262.06161104872643 L 303.7524068560417 262.0593141904545 L 303.9484872395111 262.0023216551638 L 303.95620601331 262.00014510241266 L 304.1535954777947 261.9461899813623 L 304.1613584257735 261.94413488274523 L 304.3600303815315 261.8932437656772 L 304.367835253132 261.89131123498237 L 304.56776311042137 261.84351071163854 L 304.5756075709055 261.8417018227434 L 304.7767647399843 261.7970184828657 L 304.7846463705504 261.79533426455123 L 304.9870062616767 261.7537946978816 L 304.9949225599556 261.7522361285703 L 305.1984585833876 261.7138669248506 L 305.2064069643305 261.71243492729434 L 305.4110925303261 261.67726267626654 L 305.41907032749504 261.6759581122111 L 305.62487884631247 261.6440094036172 L 305.63288331358 261.6428330684737 L 305.83978819547724 261.6141344920555 L 305.8478165091456 261.613087109607 L 306.0557911643807 261.5876652551065 L 306.06384042571756 261.58674747228235 L 306.2728582645487 261.5646289294414 L 306.28092550274675 261.5638413111897 L 306.49095993543193 261.5450526697503 L 306.4990421109859 261.5443956940425 L 306.71006654778324 261.5289635437466 L 306.7181605562812 261.52843759674505 L 306.9301484074487 261.51638852733447 L 306.9382510837715 261.51599389875685 L 307.15117575956725 261.5073544999736 L 307.1592838824806 261.50709137868625 L 307.3731187931628 261.5018882402722 L 307.3812290902937 261.50175671014443 L 307.5959476461203 261.50001642184156 L 307.6040523538793 261.50001642184156 L 307.8187709097062 261.5017567101445 L 307.82688120683696 261.50188824027225 L 308.04071611751914 261.5070913786863 L 308.0488242404325 261.50735449997364 L 308.2617489162283 261.5159938987569 L 308.2698515925511 261.5163885273345 L 308.4818394437186 261.5284375967451 L 308.48993345221663 261.52896354374667 L 308.7009578890139 261.5443956940426 L 308.70904006456783 261.54505266975036 L 308.919074497253 261.5638413111898 L 308.9271417354511 261.5646289294415 L 309.1361595742822 261.5867474722824 L 309.14420883561905 261.5876652551066 L 309.3521834908542 261.6130871096071 L 309.3602118045226 261.61413449205554 L 309.5671166864198 261.64283306847375 L 309.57512115368735 261.64400940361725 L 309.7809296725047 261.67595811221116 L 309.78890746967363 261.67726267626654 L 309.9935930356693 261.71243492729434 L 310.0015414166121 261.7138669248506 L 310.2050774400441 261.75223612857025 L 310.2129937383231 261.7537946978816 L 310.41535362944944 261.79533426455123 L 310.42323526001564 261.7970184828657 L 310.6243924290945 261.84170182274346 L 310.63223688957856 261.8435107116386 L 310.8321647468679 261.8913112349824 L 310.83996961846833 261.89324376567725 L 311.03864157422635 261.9441348827453 L 311.0464045222051 261.9461899813623 L 311.2437939866897 262.0001451024126 L 311.2515127604888 262.0023216551639 L 311.4475931439583 262.0593141904546 L 311.455265576951 262.0616110487265 L 311.6500102896632 262.1216144085156 L 311.65763429855537 262.12403039383116 L 311.85101675076857 262.18701798837674 L 311.8585903346671 262.1895518972127 L 312.05058393663927 262.2554971367729 L 312.0581051758046 262.2581477452138 L 312.24868333779386 262.32702404004664 L 312.25615039209765 262.3297901082581 L 312.445286524362 262.4015708686217 L 312.4526976314663 262.4044511451267 L 312.6403651442639 262.479109781279 L 312.64771861754645 262.4821030070246 L 312.8338909211354 262.5596129292239 L 312.84118514737446 262.5627178414246 L 313.0258356520127 262.6430524599288 L 313.0330690888605 262.6462677956789 L 313.2161712048062 262.72940052074614 L 313.2233423780643 262.7327250203886 L 313.4048695155755 262.81862926227694 L 313.41197701629665 262.8220616725257 L 313.59190258563143 262.9107108414932 L 313.59894506706667 262.9142499182996 L 313.7772424784832 263.00561742460434 L 313.78421865289556 263.0092619357668 L 313.9608613166518 263.10332118966693 L 313.967769952013 263.10706991717717 L 314.142731278367 263.20379432893066 L 314.14957119496137 263.20764607105895 L 314.32282459417127 263.3070090509239 L 314.32959466111953 263.3109626240387 L 314.50111354344347 263.41293758227323 L 314.50781267516993 263.4169918223989 L 314.67757045086586 263.5215521692611 L 314.6841976035207 263.5257059333721 L 314.85216768284675 263.6328250791199 L 314.8587218507063 263.6370772461767 L 315.02487764392055 263.74672860106836 L 315.03135785577547 263.75107807279517 L 315.195672773136 263.86323504708866 L 315.20207808868713 263.8676807484985 L 315.364525540452 263.98231675245194 L 315.37085504672643 263.9868576321227 L 315.53140844315374 264.1039460759941 L 315.5376612509556 264.10858110609973 L 315.6962940023033 264.22809540014725 L 315.702469242712 264.2328235762499 L 315.8591547592384 264.3547371307316 L 315.86525158016923 264.3595574713409 L 316.01996327213226 264.4838436965148 L 316.025980834969 264.4887552424191 L 316.1786921126267 264.61538754854325 L 316.18462958893826 264.62038936191885 L 316.33531386254873 264.74934115925146 L 316.34117043090254 264.75443232255833 L 316.48980111072393 264.88567702135737 L 316.49557595360614 264.89085663602697 L 316.64212644989647 265.0243676465505 L 316.6478187507473 265.0296348314716 L 316.79226247376465 265.16538556397774 L 316.797871414141 265.1707394537899 L 316.9401817741434 265.30870331853674 L 316.945706531017 265.3141430617374 L 317.0858569382626 265.45429346898305 L 317.0912966814633 265.4598182258566 L 317.2292605462101 265.602128585859 L 317.23461443602235 265.60773752623544 L 317.2891672187251 265.6657836736784 L 317.44830301981705 265.6176946692372 L 317.45567718794655 265.615527991779 L 317.78921416984593 265.5203068279934 L 317.79662328466344 265.51825308131623 L 318.1316771185847 265.4281470418377 L 318.1391202829685 265.4262066195037 L 318.47562727720435 265.34123858387755 L 318.4831035848297 265.33941190672243 L 318.82100004767256 265.2596047544941 L 318.8285085791487 265.25789227058834 L 319.1677308188913 265.1832688813032 L 319.1752706378855 265.18167106566705 L 319.5157549628204 265.11225431887044 L 319.5233251121784 265.11077167294013 L 319.8650078305982 265.04658444817744 L 319.8726073284738 265.0452174990207 L 320.21542474867107 264.98628267583734 L 320.223052584676 264.9850319751165 L 320.5669410149434 264.9313724330578 L 320.5745961463323 264.93023855573887 L 320.91949189496233 264.8818771743502 L 320.9271732428623 264.8808607171578 L 321.2730126181476 264.8378203759847 L 321.2807190638494 264.83692195560064 L 321.62743837408266 264.7992255341883 L 321.6351687554067 264.7984457851953 L 321.8225123925145 264.78101807476065 L 321.8594321168954 264.71184022516803 L 321.8631169260374 264.70506227273444 L 322.0174480136712 264.42632716118635 L 322.02123750149246 264.4196059301013 L 322.1798724171216 264.14324905454026 L 322.1837661449266 264.1365854636906 L 322.3466764437108 263.86266185869874 L 322.35067398771565 263.8560568455775 L 322.45051826278825 263.69392649925186 L 322.286827193594 263.4750450463749 L 322.1099325750767 263.24599111417655 L 321.929427504901 263.0196032112324 L 321.7453399368407 262.79592967855893 L 321.55769781427057 262.5750188243183 L 321.36652906661703 262.3569189225678 L 321.1718616056615 262.1416782121975 L 320.9737233217599 261.92934489612963 L 320.772142079964 261.7199671407538 L 320.5671457160429 261.51359307559494 L 320.3587620324497 261.3102707932561 L 320.14701879423404 261.1100483496275 L 319.93194372491854 260.91297376437217 L 319.7135645023205 260.719095021664 L 319.49190875441417 260.5284600712564 L 319.26700405517204 260.34111682981285 L 319.03887792044657 260.1571131825441 L 318.80755780391024 259.97649698515164 L 318.57307109304304 259.7993160660555 L 318.33544510525337 259.62561822895765 L 318.09470708409197 259.45545125569174 L 317.85088419558804 259.28886290936265 L 317.6040035247925 259.12590093781904 L 317.3540920724808 258.96661307739794 L 317.1011767520705 258.81104705696094 L 316.84528438678575 258.6592506022144 L 316.58644170709124 258.5112714403023 L 316.3246753483857 258.3671573046384 L 316.06001184905693 258.2269559400053 L 315.7924776488127 258.09071510784474 L 315.52209908741867 257.95848259177694 L 315.248902403817 257.83030620329924 L 314.97291373558807 257.7062337876149 L 314.6941591189248 257.5863132296362 L 314.4126644889568 257.47059246004926 L 314.1284556805848 257.359119461478 L 313.8415584297438 257.25194227467165 L 313.55199837516926 257.14910900471136 L 313.2598010606098 257.0506678271739 L 312.9649919375537 256.9566669942414 L 312.6675963684292 256.86715484070413 L 312.36764365263997 256.78218092931974 L 312.0663656105368 256.70211969846014 L 311.7649950294183 256.6272898528846 L 311.4635690039524 256.55765978544446 L 311.1621337024416 256.49320041687946 L 310.8607353257544 256.4338827884915 L 310.55942011346605 256.3796780587099 L 310.25823434961393 256.3305574992928 L 309.9572243680959 256.2864924912063 L 309.6564365576507 256.24745452020636 L 309.3559173664291 256.2134151721632 L 309.05571330615237 256.18434612816196 L 308.75587095578624 256.16021915940945 L 308.4564369648551 256.141006121994 L 308.15745805624533 256.12667895151793 L 307.85898102859915 256.117209657648 L 307.5610527582937 256.1125703186112 L 307.2637202009314 256.1127330756673 L 306.9670303925118 256.1176701275911 L 306.6710304500724 256.12735372519046 L 306.3757675720496 256.1417561658875 L 306.08128903817794 256.1608497883906 L 305.7876422090689 256.18460696747746 L 305.49487452544145 256.21300010891224 L 305.20303350698686 256.2460016445195 L 304.91216675098406 256.28358402742515 L 304.6223219305691 256.32571972749065 L 304.33354679275527 256.3723812269486 L 304.0458891562371 256.42354101624716 L 303.75939690889163 256.47917159013167 L 303.47411800514135 256.53924544395073 L 303.1901004630999 256.603735070208 L 302.90739236151353 256.6726129553717 L 302.6260418366444 256.74585157691666 L 302.34609707889115 256.8234234006558 L 302.06760632943417 256.9053008782965 L 301.7906178766718 256.99145644528886 L 301.515180052662 257.081862518913 L 301.24134122943946 257.1764914966458 L 300.9691498153067 257.2753157547844 L 300.6986542511562 257.378307647306 L 300.429903006634 257.4854395050354 L 300.16294457647183 257.5966836350043 L 299.89782747667806 257.7120123201195 L 299.634600240877 257.83139781902844 L 299.3733114165758 257.954812366274 L 299.1140095615822 258.0822281726426 L 298.85674324038905 258.21361742579063 L 298.6015610206966 258.34895229106723 L 298.348511469978 258.4882049125821 L 298.09764315216125 258.6313474144795 L 297.8490046243935 258.77835190243695 L 297.60264443390895 258.9291904653791 L 297.3586111150719 259.0838351773614 L 297.11695318646747 259.2422580997026 L 296.87771914821013 259.4044312832601 L 296.6409574793438 259.5703267709273 L 296.40671663545027 259.7399166002761 L 296.1750450463749 259.91317280640607 L 295.9459911141766 260.09006742492335 L 295.7196032112324 260.27057249509903 L 295.495929678559 260.45466006315934 L 295.27501882431835 260.6423021857295 L 295.05691892256783 260.833470933383 L 294.84167821219756 261.02813839433855 L 294.6293448961297 261.22627667824014 L 294.41996714075384 261.42785792003605 L 294.213593075595 261.63285428395716 L 294.01027079325615 261.84123796755034 L 293.81004834962755 262.052981205766 L 293.6129737643722 262.2680562750815 L 293.419095021664 262.48643549767957 L 293.22846007125645 262.7080912455859 L 293.0411168298129 262.932995944828 L 292.85711318254414 263.1611220795535 L 292.6764969851517 263.3924421960898 L 292.49931606605554 263.626928906957 L 292.3256182289577 263.8645548947467 L 292.1554512556918 264.1052929159081 L 291.9888629093627 264.349115804412 L 291.8259009378191 264.5959964752075 L 291.666613077398 264.84590792751925 Z" id="element_155" /></svg>