<?xml version='1.0' encoding='utf-8'?>
<svg xmlns:svg="http://www.w3.org/2000/svg" version="1.1" id="Layer_1" x="0px" y="0px" viewBox="0 0 500 500" style="width: 188px;" xml:space="preserve" data-imageid="moscow-46" imageName="Moscow" class="illustrations_image"><svg:style type="text/css">
	.st0_moscow-46{fill:#FFFFFF;}
	.st1_moscow-46{fill:#231F20;}
	.st2_moscow-46{fill:#68E1FD;}
	.st3_moscow-46{fill:#D1D3D4;}
</svg:style><svg:path class="st1_moscow-46" d="M 404.50001435597034 384.50378890010063 L 404.50010597721285 384.5158792969783 L 404.50022134330203 384.5234792173346 L 404.5004953825415 384.53550715923706 L 404.500727188067 384.5431287801884 L 404.5011824085712 384.55509303038343 L 404.5015316719766 384.5627337759331 L 404.5021668370133 384.57463309768855 L 404.50263450477314 384.58229036427946 L 404.50344837761025 384.5941235208632 L 404.504035323432 384.6017946804423 L 404.50502666733735 384.61356043512205 L 404.5057336915243 384.6212428382108 L 404.50690126976565 384.63293995425437 L 404.5077290987431 384.64063093303355 L 404.50907167458826 384.65225817370884 L 404.51002096058505 384.65995504505395 L 404.51153729730186 384.67151117362874 L 404.51260861819117 384.6792112421459 L 404.51429747904746 384.690695021888 L 404.5154913383369 384.69839558288913 L 404.5173514866005 384.70980577706644 L 404.51866831357364 384.717504119518 L 404.52069851251235 384.7288394913982 L 404.5221386625077 384.7365329007809 L 404.5243376753893 384.7477922136319 L 404.5259014302226 384.7554779747714 L 404.5282680203149 384.766659991861 L 404.52995558882384 384.77433539163883 L 404.5324885193947 384.7854388762348 L 404.5343000381125 384.793101206249 L 404.5369980724298 384.8041249216192 L 404.53893360636573 384.81177148071487 L 404.54179550769715 384.8227141901271 L 404.5438550512361 384.8303422868837 L 404.54687958284956 384.84120275360584 L 404.5490630607332 384.848809708652 L 404.5522489858965 384.8595866959518 L 404.55455625430426 384.8671698442173 L 404.55790233628517 384.8778621153626 L 404.5603331839903 384.88541880819906 L 404.5638381860566 384.8960251264577 L 404.5663923356533 384.90355273364753 L 404.57005502107296 384.91407186228724 L 404.57273213025405 384.92156777390454 L 404.5765512622948 384.93199847619326 L 404.5793509251964 384.9394601043944 L 404.58332526712604 384.9498011435998 L 404.58624701569516 384.9572259242404 L 404.59037533078157 384.96747606363044 L 404.5934186361809 384.97486145778157 L 404.59769968769183 384.98501946062396 L 404.60086396172557 384.99236295596586 L 404.6052965129288 385.00242758552855 L 404.608581109484 385.0097266976333 L 404.6131639236475 385.01969671718393 L 404.616568140116 385.0269489906316 L 404.62129998050744 385.03682316343816 L 404.624823059238 385.04402617290094 L 404.6297026891253 385.0538032622311 L 404.6333438188192 385.0609546133542 L 404.6383700014701 385.07063338247593 L 404.6421283185896 385.0777307127295 L 404.64729981727197 385.08730992491047 L 404.6511744073892 385.09435090427945 L 404.6564899853708 385.10382932278753 L 404.66047988450254 385.1108116544117 L 404.66593830505127 385.12018804251477 L 404.67004250093083 385.127109463203 L 404.67564252731444 385.1363825841688 L 404.6798599606291 385.14324086485647 L 404.6856003561154 385.1524094819528 L 404.6899299216744 385.1592024280593 L 404.6958094495312 385.1682653045541 L 404.7002499973944 385.1749907563014 L 404.7062674208897 385.18394665546236 L 404.71081775740225 385.1906024880857 L 404.71697183980365 385.1994501731807 L 404.72163072860667 385.20603429714845 L 404.72792023318203 385.21477253144525 L 404.73268639611047 385.2212828925681 L 404.73911008612765 385.2299104393347 L 404.74398220407653 385.2363450188924 L 404.7505388428034 385.2448606413964 L 404.7555155564856 385.2512174561848 L 404.7622039071898 385.25961991769407 L 404.7672838178668 385.2658970201094 L 404.7741026438164 385.2741850838918 L 404.7792843139087 385.28038056193833 L 404.78623237837127 385.28855299126167 L 404.79151433204663 385.29466496861477 L 404.7985903982902 385.3027205267469 L 404.80397112194134 385.3087471627678 L 404.81117395323355 385.3166846129764 L 404.8166518959202 385.3226241027726 L 404.8239802555289 385.3304422083256 L 404.82955382935256 385.33629278282353 L 404.83700648054565 385.34399030698876 L 404.84267406094494 385.34975023300984 L 404.8502497669902 385.3573259390551 L 404.8560096930113 385.3629935194544 L 404.8637072171765 385.3704461706475 L 404.8695577916731 385.3760197444699 L 404.8773758972261 385.3833481040786 L 404.88331538702346 385.3888260467664 L 404.8912528372321 385.39602887805864 L 404.8972794732533 385.4014096017101 L 404.9053350313854 385.4084856679536 L 404.9114470087368 385.41376762162747 L 404.9196194380601 385.4207156860901 L 404.9258149161098 385.42589735618503 L 404.9341029798922 385.4327161821345 L 404.9403800823056 385.43779609280995 L 404.9487825438149 385.4444844435142 L 404.9551393586054 385.449461157198 L 404.96365498110936 385.4560177959248 L 404.9700895606624 385.4608899138702 L 404.9787171074289 385.4673136038874 L 404.985227468556 385.472079766819 L 404.99396570285285 385.47836927139434 L 405.00054982681934 385.48302816019645 L 405.00939751191436 385.48918224259785 L 405.0160533445395 385.4937325791116 L 405.0250092437005 385.49975000260685 L 405.0317346954429 385.50419055046683 L 405.0407975719376 385.51007007832374 L 405.0475905180483 385.51439964388544 L 405.0567591351447 385.52014003937177 L 405.0636174158301 385.524357472685 L 405.07289053679585 385.5299574990686 L 405.0798119574852 385.53406169494883 L 405.0891883455883 385.53952011549757 L 405.09617067721047 385.54351001462817 L 405.10564909571855 385.54882559260983 L 405.11269007509156 385.5527001827293 L 405.12226928727256 385.55787168141165 L 405.12936661752406 385.56162999853 L 405.13904538664576 385.5666561811809 L 405.1461967377689 385.5702973108748 L 405.15597382709905 385.5751769407621 L 405.1631768365587 385.5787000194912 L 405.1730510093652 385.5834318598827 L 405.1803032828191 385.5868360763541 L 405.1902733023698 385.5914188905175 L 405.1975724144683 385.5947034870699 L 405.20763704403095 385.59913603827323 L 405.21498053937694 385.6023003123087 L 405.2251385422194 385.60658136381966 L 405.23252393637085 385.60962466921916 L 405.24277407576085 385.6137529843055 L 405.25019885639875 385.61667473287355 L 405.2605398956042 385.6206490748032 L 405.26800152380594 385.6234487377051 L 405.2784322260946 385.6272678697458 L 405.2859281377135 385.6299449789275 L 405.29644726635325 385.63360766434715 L 405.30397487354156 385.63616181394326 L 405.31458119180013 385.6396668160096 L 405.32213788463736 385.642097663715 L 405.33283015578263 385.6454437456959 L 405.3404133040488 385.64775101410385 L 405.35119029134864 385.6509369392671 L 405.3587972463935 385.65312041715043 L 405.3696577131156 385.6561449487639 L 405.37728580987044 385.6582044923024 L 405.3882285192827 385.66106639363386 L 405.3958750783837 385.66300192757114 L 405.40689879375395 385.6656999618884 L 405.41456112376284 385.66751148060496 L 405.42566460835883 385.67004441117587 L 405.4333400081385 385.6717319796852 L 405.444522025228 385.6740985697775 L 405.45220778636804 385.6756623246109 L 405.46346709921903 385.6778613374925 L 405.47116050860217 385.6793014874879 L 405.4824958804824 385.68133168642663 L 405.49019422293316 385.68264851339967 L 405.5016044171104 385.68450866166324 L 405.5093049781119 385.68570252095276 L 405.520788757854 385.68739138180905 L 405.5284888263712 385.68846270269836 L 405.540044954946 385.68997903941516 L 405.5477418262911 385.69092832541196 L 405.5593690669664 385.69227090125713 L 405.5670600457458 385.69309873023457 L 405.57875716178944 385.6942663084759 L 405.58643956487794 385.69497333266287 L 405.5982053195577 385.6959646765682 L 405.6058764791366 385.69655162238996 L 405.6177096357203 385.6973654952271 L 405.625366902309 385.6978331629868 L 405.63726622406443 385.6984683280236 L 405.6449069696165 385.6988175914291 L 405.65687121981153 385.69927281193327 L 405.6644928407629 385.6995046174588 L 405.6765207826653 385.69977865669824 L 405.6841207030216 385.6998940227874 L 405.6962110998993 385.69998564402994 L 405.7 385.7 L 415.2 385.7 L 415.20171517559663 385.69991468434347 L 415.2037889323969 385.6999856437858 L 415.21587922621353 385.6998940225433 L 415.22347979705364 385.69977864114225 L 415.23550701752896 385.6995046019028 L 415.24313106310467 385.6992726936925 L 415.25509335514045 385.6988174731882 L 415.26273951238073 385.698467873217 L 415.27463502087863 385.6978327081803 L 415.2823019195355 385.697364246477 L 415.29412878939723 385.6965503736398 L 415.30181505035824 385.6959618737011 L 415.31357142648557 385.69497052979574 L 415.32127565995967 385.6942608071503 L 415.33295968725434 385.69309322890894 L 415.3406804907162 385.6922610897798 L 415.3522903140799 385.69091851393455 L 415.3600262700038 385.68996275401463 L 415.3715600343383 385.6884464172978 L 415.3793097077867 385.68736582064685 L 415.39076555799375 385.68567695979056 L 415.39852749394004 385.6844702978829 L 415.40990357492126 385.6826101496193 L 415.4176762954145 385.6812761805492 L 415.4289707520716 385.67924598161056 L 415.4367527532273 385.67778344947135 L 415.44796373046216 385.6755844365897 L 415.45575347919726 385.6739920710602 L 415.4668791219115 385.67162548096786 L 415.474675052583 385.66990199709863 L 415.48571350567835 385.6673690665277 L 415.4935140164594 385.66551316477654 L 415.5044634248377 385.6628151304593 L 415.5122668740025 385.6608254969634 L 415.5231253825653 385.65796359563194 L 415.53093008453976 385.65583890276906 L 415.54169583818884 385.6528143711556 L 415.5495000595176 385.6505532783824 L 415.56017120315477 385.6473673532191 L 415.5679731582871 385.6449685082317 L 415.57854783681404 385.64162242625076 L 415.5863456837744 385.63908446647844 L 415.5968220420928 385.63557946441205 L 415.60461387806004 385.63290101885804 L 415.61499006107164 385.6292383334384 L 415.6227739178531 385.6264180248999 L 415.6330480704597 385.6225988928592 L 415.6408219098871 385.61963534054473 L 415.6509921769903 385.61566099861506 L 415.6587538862821 385.6125528211717 L 415.6688184127837 385.60842450608527 L 415.6765657998804 385.60517032506016 L 415.68652273068216 385.6008892735492 L 415.69425351958233 385.5974877173045 L 415.70410099958593 385.5930551661012 L 415.71181282570313 385.58950487420526 L 415.72154899981024 385.5849220600418 L 415.7292394054078 385.58122168814197 L 415.7388624185203 385.5764898477505 L 415.74652884825696 385.5726380729419 L 415.7560368452764 385.56775844305463 L 415.76367664184744 385.56375396978484 L 415.7730677676756 385.55872778713393 L 415.78067816768316 385.5545693536098 L 415.78995056722187 385.5493978549274 L 415.7975286972349 385.5450842400715 L 415.8066805153858 385.53976866208984 L 415.81422338827946 385.53529869303287 L 415.8232527699443 385.52984027248414 L 415.8307572815668 385.52521283259256 L 415.83966237164725 385.51961280620895 L 415.84712529784525 385.51482684365936 L 415.8559042412431 385.50908644817304 L 415.86332223532145 385.5041409850542 L 415.8719731769384 385.4982614571973 L 415.87934276760546 385.4931555991314 L 415.8878638523433 385.4871381756362 L 415.89518144221154 385.4818711218936 L 415.9035708149719 385.47571703949217 L 415.9108326796276 385.470288093611 L 415.9190884853123 385.4639985890356 L 415.9262907731181 385.45840716984236 L 415.93441115662876 385.4519834798251 L 415.94154988917563 385.4462291329262 L 415.949532995414 385.4396724941994 L 415.9566040688556 385.4337549037718 L 415.9644480427234 385.4270665530675 L 415.97144722988645 385.4209855540253 L 415.9791502162855 385.41416672807577 L 415.98607316976484 385.4079223184338 L 415.9936333135968 385.4009742539712 L 416.00047556977427 385.394566607434 L 416.00789101594086 385.3874905411905 L 416.0146480000731 385.3809200198118 L 416.0219168934761 385.3737171885196 L 416.02858392583636 385.3669843554011 L 416.0357044113774 385.3596559957923 L 416.04227671453276 385.3527616276942 L 416.0492469371136 385.3453089765011 L 416.055719644363 385.3382540762696 L 416.06253774888546 385.33067837022435 L 416.0689059138921 385.32346417891927 L 416.07557004525773 385.31576665475404 L 416.08182865286983 385.30839466338495 L 416.08833695598054 385.3005765578319 L 416.09448093429967 385.2930485185215 L 416.1008315540571 385.28511106831286 L 416.1068557876918 385.27742900482144 L 416.1130468689977 385.26937344668937 L 416.1189462135312 385.2615396641121 L 416.12497590128726 385.25336723478875 L 416.1307451988985 385.2453843283235 L 416.13661163800646 385.2370962645411 L 416.14224573421683 385.2289671271629 L 416.1479470695784 385.22056466565357 L 416.15344083104327 385.2122924945822 L 416.1589752075602 385.2037768720782 L 416.16432354085396 385.1953651738641 L 416.16968910342797 385.1867376270976 L 416.1748869746825 385.17819022125826 L 416.1800818682153 385.1694519869614 L 416.18512432354646 385.16077300797906 L 416.1901466929398 385.15192532288404 L 416.1950288795018 385.1431192204919 L 416.19987686965743 385.1341633213309 L 416.2045940571957 385.1252348589667 L 416.20926581301535 385.1161719824719 L 416.21381341574266 385.10712623383546 L 416.218307082128 385.09795761673905 L 416.22268068076374 385.0887999603635 L 416.22699440261647 385.0795268393977 L 416.2311897664064 385.07026295117726 L 416.2353216886283 385.0608865630742 L 416.23933479713486 385.05152240674795 L 416.24328306462763 385.0420439882398 L 416.24711012910257 385.0325858038017 L 416.250872886768 385.0230065916207 L 416.2545103709014 385.0134608816658 L 416.2580857636412 385.0037821125442 L 416.26153040346986 384.9941556266215 L 416.2649165761857 384.98437853729126 L 416.2681653989627 384.974678254308 L 416.2713604965563 384.9648040815015 L 416.2744108383807 384.9550371902773 L 416.27741300575383 384.94506717072665 L 416.28026252777096 384.9352410488038 L 416.2830699098253 384.92517641924115 L 416.2857166128047 384.91529861013277 L 416.2883273544421 384.9051406072903 L 416.2907695915896 384.89521879625795 L 416.29318183771164 384.88496865686795 L 416.29541832553934 384.87501064551543 L 416.2976302210478 384.86466960631 L 416.29966004820375 384.85468328609056 L 416.30166973800044 384.84425258380185 L 416.3034923719354 384.8342459087226 L 416.30529800092194 384.8237267800829 L 416.3069132923152 384.81370773884834 L 416.3085130053933 384.80310142058977 L 416.309921190297 384.7930780083526 L 416.31131313236847 384.7823857372073 L 416.3125148320306 384.77236592725643 L 416.3136971479972 384.76158893995665 L 416.31469336637724 384.7515806555131 L 416.3156642011405 384.740720188791 L 416.31645632013687 384.73073127524395 L 416.3172138185987 384.7197885658317 L 416.3178035910597 384.7098267635239 L 416.3183458981217 384.6988030481537 L 416.3187354387083 384.6888759661031 L 416.3190606992723 384.67777248150713 L 416.3192524732921 384.6678875721149 L 416.31935883225987 384.6567055550253 L 416.3193556425944 384.6468700900977 L 416.3192412448675 384.6356107772467 L 416.3190462171461 384.62583182545916 L 416.31870920762634 384.61449645357897 L 416.3183257738105 384.6047808594899 L 416.3177642973996 384.5933706653126 L 416.3171961779593 384.5837250301733 L 416.31640837955905 384.5722412504312 L 416.31565956442887 384.56267191478827 L 416.3146435889409 384.5511157862135 L 416.31371831745633 384.54162881447894 L 416.31247230978244 384.53000157380364 L 416.31137504979483 384.520602740779 L 416.3098971548367 384.50890562473535 L 416.3086325812124 384.4996004041934 L 416.3069209438717 384.4878346495137 L 416.305493916574 384.4786282047991 L 416.3044964334148 384.4725665966751 L 416.30808422227494 384.432742140327 L 416.31818523237604 384.3206209282055 L 416.32828624247696 384.2084997160846 L 416.33838725257806 384.09637850396314 L 416.348488262679 383.98425729184214 L 416.3585892727801 383.8721360797207 L 416.368690282881 383.76001486759975 L 416.3787912929821 383.6478936554783 L 416.388892303083 383.5357724433573 L 416.3989933131841 383.42365123123585 L 416.40909432328505 383.31153001911485 L 416.41919533338614 383.1994088069934 L 416.42929634348707 383.08728759487246 L 416.43939735358816 382.975166382751 L 416.4494983636891 382.86304517063 L 416.4595993737902 382.75092395850857 L 416.4697003838911 382.6388027463876 L 416.4798013939922 382.5266815342662 L 416.48990240409313 382.4145603221452 L 416.5000034141942 382.3024391100237 L 416.51010442429515 382.19031789790273 L 416.52020543439625 382.0781966857813 L 416.53030644449717 381.96607547366034 L 416.54040745459827 381.8539542615389 L 416.5505084646992 381.7418330494179 L 416.5606094748003 381.62971183729644 L 416.5707104849012 381.5175906251755 L 416.5808114950023 381.40546941305405 L 416.59091250510323 381.29334820093305 L 416.60101351520433 381.1812269888116 L 416.61111452530525 381.0691057766906 L 416.62121553540635 380.95698456456915 L 416.6313165455073 380.8448633524482 L 416.64141755560837 380.73274214032676 L 416.6515185657093 380.62062092820577 L 416.6616195758104 380.5084997160843 L 416.6717205859113 380.3963785039634 L 416.6818215960124 380.2842572918419 L 416.69192260611334 380.17213607972093 L 416.70202361621443 380.0600148675995 L 416.71212462631536 379.9478936554785 L 416.72222563641645 379.83577244335703 L 416.7323266465174 379.7236512312361 L 416.7424276566185 379.61153001911464 L 416.7525286667194 379.49940880699364 L 416.7626296768205 379.3872875948722 L 416.7727306869214 379.27516638275125 L 416.7828316970225 379.1630451706298 L 416.79293270712344 379.0509239585088 L 416.80303371722454 378.93880274638735 L 416.81313472732546 378.8266815342664 L 416.82323573742656 378.71456032214496 L 416.8333367475275 378.60243911002397 L 416.8434377576286 378.4903178979025 L 416.8535387677295 378.3781966857815 L 416.8636397778306 378.26607547366007 L 416.8737407879315 378.1539542615391 L 416.8838417980326 378.0418330494177 L 416.89394280813354 377.9297118372967 L 416.90404381823464 377.8175906251752 L 416.91414482833557 377.7054694130543 L 416.92424583843666 377.59334820093284 L 416.9343468485376 377.48122698881184 L 416.9444478586387 377.3691057766904 L 416.9545488687396 377.2569845645694 L 416.9646498788407 377.14486335244794 L 416.9747508889416 377.032742140327 L 416.9848518990427 376.92062092820555 L 416.99495290914365 376.80849971608455 L 417.00505391924474 376.6963785039631 L 417.01515492934567 376.58425729184216 L 417.02525593944677 376.4721360797207 L 417.0353569495477 376.3600148675997 L 417.0454579596488 376.24789365547826 L 417.0555589697497 376.13577244335727 L 417.0656599798508 376.0236512312358 L 417.07576098995173 375.9115300191149 L 417.0858620000528 375.7994088069934 L 417.09596301015375 375.68728759487243 L 417.10606402025485 375.575166382751 L 417.1161650303558 375.46304517063004 L 417.12626604045687 375.3509239585086 L 417.1363670505578 375.2388027463876 L 417.1464680606589 375.12668153426614 L 417.1565690707598 375.01456032214514 L 417.1666700808609 374.9024391100237 L 417.17677109096184 374.79031789790275 L 417.18687210106293 374.6781966857813 L 417.19697311116386 374.5660754736603 L 417.20707412126495 374.45395426153885 L 417.2171751313659 374.3418330494179 L 417.227276141467 374.22971183729646 L 417.2373771515679 374.11759062517547 L 417.247478161669 374.005469413054 L 417.2575791717699 373.893348200933 L 417.267680181871 373.78122698881157 L 417.27778119197194 373.6691057766906 L 417.287882202073 373.55698456456986 L 417.29798321217413 373.44486335244846 L 417.2999936658746 373.3974832390927 L 417.29996315981407 373.39142273609315 L 417.29991299620383 373.38642321175894 L 417.2998218902664 373.3803633271254 L 417.29972299092276 373.3754147444874 L 417.29957190347443 373.3693560965861 L 417.2994257488011 373.36445833737935 L 417.2992152982081 373.3584015445763 L 417.2990233340334 373.3535544357455 L 417.29875413866165 373.3475001164068 L 417.29851777518746 373.3427034331294 L 417.29819045340315 373.33665220562114 L 417.2979110643066 373.33190567416096 L 417.2975262344758 373.32585815684934 L 417.297205156158 373.32116145739093 L 417.29676343664676 373.31511826864187 L 417.29640196761505 373.3104710380111 L 417.29590397678953 373.3044327961908 L 417.2955033771648 373.29983463048535 L 417.2949497333911 373.29380195395987 L 417.2945112245286 373.2892524110789 L 417.2939025461727 373.2832259182143 L 417.2934273103958 373.27872452035575 L 417.292764215824 373.2727048295182 L 417.29225339624014 373.26825106544453 L 417.2915365038183 373.2622387950001 L 417.29099120424144 373.2578321223757 L 417.2902211323358 373.2518278906904 L 417.2896424172693 373.24746773815474 L 417.28881978424585 373.2414721635948 L 417.2882086789543 373.23715793288244 L 417.2873341031792 373.2311716338138 L 417.2866915938065 373.22690270164134 L 417.2857656936458 373.22092629643015 L 417.28509272740524 373.2167020164038 L 417.28411612122505 373.2107361234162 L 417.28341360663 373.2065558277758 L 417.2823869127965 373.2006010653778 L 417.2816557199292 373.19646406662656 L 417.28057955680833 373.19052105318434 L 417.2798205176394 373.1864266457081 L 417.2786955035973 373.18049599958766 L 417.2779094123222 373.17644346110563 L 417.27673616572497 373.1705258006731 L 417.2759237791296 373.1665143936236 L 417.2747029183434 373.1606103372451 L 417.2738649561892 373.1566393100873 L 417.27259709958 373.1507494761289 L 417.2717342450078 373.14681806457645 L 417.2704200109418 373.14094307140425 L 417.26953291087585 373.1370504995338 L 417.2681729177191 373.1311909655139 L 417.2672621832867 373.1273364468377 L 417.26585704940527 373.12149299033615 L 417.2649232563484 373.1176757287592 L 417.26347360010845 373.1118489681421 L 417.26251728920147 373.10806815887986 L 417.261023728969 373.10225871251333 L 417.26004540642424 373.0985135429119 L 417.25850856056536 373.0927220291621 L 417.25750869843466 373.08901167947164 L 417.25592918531555 373.0832387167045 L 417.2549082218639 373.0795623607292 L 417.2532866598505 373.07380856731083 L 417.25224499994226 373.07016537309903 L 417.2505820074008 373.0644313673957 L 417.2495200228368 373.0608204977577 L 417.2478162181333 373.05510689813525 L 417.2467342479808 373.05152751115355 L 417.2449902494813 373.0458349359783 L 417.24388860039227 373.042286185502 L 417.24210502646304 373.0366152531399 L 417.2409839729277 373.0330962890981 L 417.2391614419347 373.0274476179153 L 417.2380212265551 373.0239575867372 L 417.2361603568644 373.0183317950998 L 417.23500119055905 373.0148698399633 L 417.23310260053677 373.0092675462373 L 417.23192466272644 373.00583280731746 L 417.2299889707387 373.00025462986906 L 417.2287924094958 372.99684624453675 L 417.22682023390865 372.991292801732 L 417.22560516606876 372.98790990470957 L 417.2235971252484 372.9823818149146 L 417.2223636364766 372.979023538374 L 417.22032034878896 372.9735214199548 L 417.2190684936132 372.9701868936009 L 417.2169905774245 372.9647113649237 L 417.21572037921 372.96139971600064 L 417.2136084528862 372.9559513954314 L 417.2123199037862 372.95266174875184 L 417.21017458569355 372.9472412546567 L 417.2088676465147 372.94397273250087 L 417.2066895550192 372.93858068324596 L 417.2053641550818 372.935332405346 L 417.2031539085495 372.9299694192974 L 417.2018099454525 372.92674050268243 L 417.1995681622496 372.92140719820617 L 417.198205501598 372.9181967570655 L 417.19593280009053 372.91289375252774 L 417.19455127516846 372.9097008980532 L 417.19224827372256 372.90442881182 L 417.19084768509015 372.9012526519864 L 417.1885150020718 372.8960121024238 L 417.18709511710904 372.89285174176905 L 417.18473337088443 372.8876433472432 L 417.1832939232592 372.8844978866043 L 417.1809037321944 372.8793222654814 L 417.1794444212674 372.8761908017238 L 417.17702640372846 372.8710485723697 L 417.17554689387117 372.86793019806544 L 417.17310166822426 372.86282197884645 L 417.17160158806547 372.859715781947 L 417.16912977267657 372.85464219122906 L 417.16760871427635 372.8515472547364 L 417.16511092751165 372.84650891088563 L 417.16356844541906 372.843424312443 L 417.1610453056446 372.83842183382563 L 417.15948091590093 372.8353466453659 L 417.15693304148283 372.8303806503479 L 417.15534622049466 372.82731393765613 L 417.15277422979904 372.82238504460355 L 417.1511644131249 372.81932586689635 L 417.14856892451775 372.81443469417536 L 417.14693550556007 372.8113821036888 L 417.1443171374076 372.8065292696655 L 417.1426594659487 372.80348231115124 L 417.14001883661695 372.7986684341917 L 417.13833621728867 372.79562614450526 L 417.13567394514365 372.7908518429755 L 417.1339656357204 372.78781325056326 L 417.13128233912835 372.7830791428295 L 417.1295475487116 372.7800432672606 L 417.1268438460385 372.77534997168885 L 417.1250817330955 372.7723158231774 L 417.1223582427075 372.7676639581337 L 417.1205679129372 372.7646305370265 L 417.11782525320035 372.7600207208771 L 417.11600575726953 372.7569870171982 L 417.11324454654994 372.752419868309 L 417.11139487761744 372.7493848612435 L 417.1086157342812 372.74486099798077 L 417.10673482536913 372.74182365542066 L 417.10393836778235 372.7373436961504 L 417.10202508893406 372.73430297422556 L 417.0992119354628 372.72986753731385 L 417.0972650906984 372.7268223799523 L 417.09443585970877 372.7224320837652 L 417.09245418374513 372.719381422259 L 417.08960949360323 372.7150368851627 L 417.08759164835607 372.71197963779673 L 417.08473211742796 372.70768147815727 L 417.08267668824135 372.7046165498481 L 417.07980293489317 372.7003653860316 L 417.0777084265034 372.6972916680232 L 417.07482106910123 372.6930881183957 L 417.0726859013054 372.6900044880047 L 417.0697855582153 372.68584917093233 L 417.067608061241 372.682754491379 L 417.064695350829 372.67864802522786 L 417.06247376036856 372.67554114554093 L 417.0595493010009 372.6714841486771 L 417.05728175286373 372.6683639036567 L 417.05434616290637 372.6643569944462 L 417.0520306873472 372.6612222048159 L 417.0490845851664 372.6572660016249 L 417.0467191007431 372.65411547422343 L 417.04376310470474 372.65021059541806 L 417.0413454117733 372.6470431236412 L 417.0383801402436 372.64319018758744 L 417.0359079139171 372.64000455190626 L 417.0329339852621 372.6362041769703 L 417.0304047679359 372.6329991457372 L 417.0274228005217 372.62925195028504 L 417.0248339938423 372.6260262807366 L 417.0218446060351 372.62233288313445 L 417.01919346231017 372.6190853226745 L 417.0161972724759 372.6154463412883 L 417.0134808854825 372.6121756290829 L 417.01047851198734 372.6085916822789 L 417.0076938071711 372.6052965512481 L 417.0046858683811 372.6017682573923 L 417.001829592326 372.5984474365571 L 416.9988167066073 372.59497541401555 L 416.995885415828 372.59162763137385 L 416.9928682015466 372.58821249851275 L 416.98985825052546 372.5848364844676 L 416.9868373260475 372.581478859653 L 416.98374485442514 372.5780733510222 L 416.9807208381168 372.5747738526202 L 416.9775417570589 372.57133759739196 L 416.9745152672861 372.5680968437686 L 416.9712452449946 372.56462860671286 L 416.9682169001236 372.5614472162342 L 416.9648513463218 372.55794578535114 L 416.9618217647186 372.5548243763834 L 416.9583558142912 372.5512885705517 L 416.9553256143219 372.5482277614609 L 416.9517722385324 372.5446743856715 L 416.9487114294416 372.5416441857023 L 416.9451756236166 372.5381782352815 L 416.94205421464886 372.53514865367833 L 416.9385527837658 372.5317830998765 L 416.93537139328714 372.52875475500554 L 416.9319031562314 372.525484732714 L 416.92866240260804 372.52245824294124 L 416.9252261473798 372.51927916188333 L 416.9219266489778 372.516255145575 L 416.918521140347 372.5131626739526 L 416.9151635155324 372.51014174947466 L 416.91178750148725 372.5071317984535 L 416.90837236862615 372.5041145841721 L 416.90502458598445 372.50118329339284 L 416.9015525634429 372.49817040767414 L 416.8982317426077 372.495314131619 L 416.8947034487519 372.492306192829 L 416.8914083177211 372.48952148801277 L 416.8878243709171 372.4865191145176 L 416.8845536587117 372.4838027275242 L 416.8809146773255 372.48080653768994 L 416.87766711686555 372.47815539396504 L 416.8739737192634 372.4751660061578 L 416.87074804971496 372.4725771994784 L 416.8670008542628 372.4695952320642 L 416.8637958230297 372.467066014738 L 416.85999544809374 372.46409208608304 L 416.85680981241256 372.4616198597565 L 416.8529568763588 372.4586545882268 L 416.84978940458194 372.4562368952954 L 416.84588452577657 372.45328089925704 L 416.8427339983788 372.45091541483646 L 416.8387777951878 372.4479693126556 L 416.8356430055501 372.44565383709096 L 416.8316360963396 372.44271824713366 L 416.82851585132664 372.4404506990019 L 416.8244588544628 372.43752623963417 L 416.8213519747657 372.4353046491665 L 416.8172455086145 372.43239193875456 L 416.8141508290703 372.43021444178663 L 416.80999551199795 372.4273140986965 L 416.8069118816043 372.4251789308989 L 416.8027083319768 372.4222915734967 L 416.7996346139722 372.42019706510956 L 416.7953834501557 372.4173233117613 L 416.7923185218389 372.41526788256954 L 416.78802036219946 372.4124083516415 L 416.78496311484116 372.41039050639944 L 416.78061857774486 372.4075458162575 L 416.7775679162348 372.4055641402913 L 416.7731776200477 372.40273490930167 L 416.7701324626823 372.4007880645348 L 416.7656970257706 372.3979749110636 L 416.7626563038496 372.39606163221777 L 416.75817634457934 372.393265174631 L 416.75513900202316 372.3913842657213 L 416.7506151387604 372.388605122385 L 416.7475801316871 372.3867554534478 L 416.7430129827979 372.38399424272825 L 416.7399792791206 372.3821747467984 L 416.7353694629711 372.37943208706156 L 416.73233604187243 372.37764175729626 L 416.7276841768288 372.3749182669082 L 416.72465002830717 372.37315615395926 L 416.7199567327354 372.3704524512862 L 416.7169208571722 372.36871766087273 L 416.7121867494384 372.3660343642806 L 416.7091481570227 372.36432605485544 L 416.704373855493 372.3616637827105 L 416.70133156580613 372.359981163382 L 416.69651768884654 372.3573405340502 L 416.69347073033845 372.3556828625947 L 416.6886178963151 372.35306449444215 L 416.68556530582055 372.3514310754802 L 416.68067413309956 372.3488355868731 L 416.67761495540253 372.3472257702043 L 416.67268606235 372.34465377950863 L 416.6696193496521 372.3430669585172 L 416.6646533546341 372.3405190840991 L 416.6615781661723 372.3389546943544 L 416.6565756875549 372.33643155458 L 416.6534910891163 372.33488907248943 L 416.6484527452656 372.3323912857247 L 416.64535780876685 372.3308702273215 L 416.6402842180489 372.32839841193265 L 416.63717802115565 372.3268983317769 L 416.6320698019366 372.3244531061299 L 416.62895142762807 372.3229735962706 L 416.62380919827405 372.32055557873167 L 416.62067773451673 372.31909626780487 L 416.61550211339375 372.31670607674005 L 416.6123566527567 372.3152666291157 L 416.6071482582309 372.3129048828911 L 416.60398789757795 372.3114849979291 L 416.5987473480154 372.30915231491076 L 416.5955711881823 372.3077517262786 L 416.5902991019491 372.3054487248326 L 416.5871062474722 372.3040671999095 L 416.5818032429344 372.30179449840205 L 416.5785928017938 372.30043183775047 L 416.5732594973175 372.29819005454755 L 416.57003058069836 372.29684609144886 L 416.56466759464973 372.2946358449166 L 416.561419316754 372.29331044498093 L 416.5560272674991 372.2911323534854 L 416.55275874534743 372.2898254143082 L 416.5473382512523 372.2876800962155 L 416.5440486045643 372.2863915471122 L 416.53860028399504 372.2842796207885 L 416.5352886350805 372.2830094225772 L 416.5298131064033 372.28093150638847 L 416.5264785800409 372.2796796512095 L 416.5209764616217 372.27763636352194 L 416.5176181850896 372.2764028747533 L 416.51209009529464 372.27439483393283 L 416.5087071982664 372.27317976609083 L 416.5031537554616 372.2712075905037 L 416.499745370128 372.27001102926033 L 416.49416719267964 372.26807533727265 L 416.49073245376263 372.26689739946335 L 416.48513016003665 372.26499880944107 L 416.4816682048987 372.2638396431352 L 416.47604241326127 372.2619787734445 L 416.47255238208595 372.26083855806587 L 416.4669037109032 372.25901602707285 L 416.46338474686434 372.25789497353844 L 416.45771381450226 372.25611139960915 L 416.45416506401597 372.255009750517 L 416.44847248884065 372.25326575201757 L 416.44489310186594 372.2521837818672 L 416.4391795022436 372.2504799771637 L 416.43556863260295 372.249417992599 L 416.42983462689955 372.2477550000575 L 416.4261914326903 372.24671334014994 L 416.420437639272 372.24509177813655 L 416.4167612832999 372.24407081468576 L 416.41098832053274 372.2424913015666 L 416.4072779708323 372.2414914394332 L 416.4014864570824 372.2399545935744 L 416.39774128748655 372.2389762710311 L 416.39193184112 372.23748271079864 L 416.3881510318578 372.23652639989166 L 416.3823242712407 372.2350767436517 L 416.37850700966817 372.2341429505959 L 416.3726635531666 372.23273781671446 L 416.3688090344815 372.2318270822799 L 416.3629495004616 372.2304670891232 L 416.35905692859563 372.2295799890583 L 416.35318193542344 372.2282657549923 L 416.349250523871 372.2274029004201 L 416.3433606899126 372.2261350438109 L 416.3393896627548 372.2252970816567 L 416.3334856063763 372.22407622087053 L 416.3294741993268 372.22326383427514 L 416.32355653889425 372.22209058767794 L 416.3195040004077 372.22130449640196 L 416.31357335428726 372.2201794823599 L 416.3094789468201 372.21942044319263 L 416.3035359333779 372.21834428007173 L 416.2993989346221 372.21761308720363 L 416.2934441722241 372.2165863933701 L 416.2892638765837 372.21588387877506 L 416.28329798359607 372.21490727259487 L 416.27907370356974 372.2142343063543 L 416.27309729835855 372.2133084061936 L 416.2688283661861 372.2126658968209 L 416.26284206711745 372.21179132104584 L 416.2585278364044 372.2111802157542 L 416.2525322618444 372.21035758273075 L 416.24817210931 372.2097788676644 L 416.24216787762475 372.20900879575873 L 416.23776120499514 372.20846349618125 L 416.2317489345507 372.20774660375946 L 416.2272951704858 372.20723578417665 L 416.22127547964817 372.20657268960474 L 416.21677408178084 372.2060974538269 L 416.21074758891626 372.20548877547105 L 416.2061980460446 372.20505026660953 L 416.20016536951914 372.2044966228358 L 416.19556720380905 372.2040960232106 L 416.18952896198874 372.20359803238506 L 416.18488173135364 372.203236563353 L 416.17883854260464 372.20279484384184 L 416.1741418431502 372.2024737655243 L 416.1680943258385 372.2020889356935 L 416.1633477943787 372.201809546597 L 416.15729656687046 372.2014822248127 L 416.152499883593 372.2012458613385 L 416.14644556425435 372.2009766659668 L 416.14159845542355 372.2007847017921 L 416.1355416626205 372.20057425119904 L 416.1306439034137 372.20042809652574 L 416.12458525551244 372.2002770090774 L 416.11963667287455 372.20017810973377 L 416.11357678824106 372.20008700379634 L 416.1085772639067 372.2000368401861 L 416.10251676090706 372.2000063341256 L 416.06397305182514 372.20176206416335 L 416.0639397876472 372.2013020342082 L 415.8764626285447 372.21485826790524 L 415.8687296908432 372.2154777659752 L 415.68207063007947 372.2318896142817 L 415.674352779205 372.23262854327464 L 415.4885340779593 372.2518743633775 L 415.4808339061347 372.25273224381385 L 415.2958778255864 372.2747903928999 L 415.2881978632495 372.27576667680574 L 415.10412666457773 372.30061551206165 L 415.09646937802677 372.3017095871938 L 414.9133053224109 372.32932746580644 L 414.9056731117844 372.3305386599517 L 414.7234384604037 372.3609039391079 L 414.715833657988 372.3622315244334 L 414.53455067202185 372.39532256132 L 414.5269755408872 372.3967657587511 L 414.3466664815147 372.4325609105548 L 414.33912321447394 372.4341188941574 L 414.1598103428746 372.4725965180651 L 414.1523010617594 372.47426841941154 L 413.9740066391123 372.51540687261 L 413.96653339435613 372.5171917851072 L 413.78927968184075 372.5609694247832 L 413.7818444523635 372.56286640794366 L 413.60565371115894 372.60926159128405 L 413.5982584045387 372.6112696749218 L 413.4231528958244 372.6602607591133 L 413.41579934874795 372.66237894744614 L 413.2418013337031 372.71394428967574 L 413.234491312682 372.7161715653192 L 413.0616230524859 372.7702895227735 L 413.0543582548212 372.7726248506116 L 412.8826420106531 372.82927378047754 L 412.87542406564245 372.8317161113954 L 412.70488209868176 372.89087437085976 L 412.6977125690465 372.89342264532814 L 412.5283671404724 372.9550685915777 L 412.52124752399385 372.95772174307757 L 412.35312089498564 373.02183373329916 L 412.34605262633613 373.02459069157595 L 412.1791670580732 373.0911470829563 L 412.17215151082326 373.0940067770972 L 412.00652926448475 373.16298592682324 L 411.9995677532755 373.16594728814863 L 411.8352310900408 373.23732755340706 L 411.8283248729005 373.240389518172 L 411.66529605394885 373.3141492561497 L 411.65844633474603 373.31731076804806 L 411.49674762125665 373.39342833593173 L 411.4899555522652 373.39668834840234 L 411.3296092054175 373.4751421033789 L 411.32287588999105 373.4784995817062 L 411.1639041709642 373.5592678809624 L 411.1572306662914 373.5627218041757 L 410.9996558362648 373.64578300489836 L 410.9930431562054 373.6493323674616 L 410.83688747635824 373.73466482683756 L 410.83033659433494 373.7383086401354 L 410.6756223258466 373.82589071535136 L 410.6691341777865 373.8296280089676 L 410.51588358183614 373.91943805721047 L 410.5094590691478 373.92326788000076 L 410.3576944069148 374.01528425845726 L 410.35133439948413 374.01920567942005 L 410.2010779321478 374.1134067452771 L 410.19478327134965 374.1174188542198 L 410.0460572600892 374.2137829646641 L 410.0398287617929 374.21788487267287 L 409.8926554677876 374.3163903848913 L 409.88649392535547 374.3205812246014 L 409.74089560978473 374.4212064957807 L 409.73480179704615 374.42548542145596 L 409.5908007210891 374.52820880878295 L 409.5847753952834 374.53257499620366 L 409.44239382011943 374.63737485686516 L 409.4364377247978 374.6418275030303 L 409.2956979116062 374.74868219421313 L 409.2898117794833 374.7532205168609 L 409.15073598944326 374.8621083957518 L 409.1449205451881 374.86673163270217 L 409.00753103947903 374.977631056488 L 409.00178700244095 374.98233846481105 L 408.8661060422421 375.0952277906786 L 408.8604341290989 375.1000186456952 L 408.72648397558953 375.21487623083135 L 408.72088490291367 375.2197498249481 L 408.588687817273 375.33655402653955 L 408.583162304005 375.341509667927 L 408.4527405474125 375.46023884316065 L 408.44728931723984 375.46527585427333 L 408.3186651508746 375.5859083603359 L 408.31328893450126 375.5910260762873 L 408.1864846195427 375.71354027036557 L 408.18118415684967 375.71873803715636 L 408.056221954477 375.84311227643724 L 408.050997996563 375.84838944904635 L 407.92790016795556 375.9746020907166 L 407.9227534790525 375.9799580310592 L 407.80154228538953 376.1079874323056 L 407.7964736446465 376.11342150706434 L 407.6771713471073 376.24324602507374 L 407.6721815502364 376.2487576034084 L 407.55481041000024 376.38035559536763 L 407.54990027077866 376.3859440465109 L 407.43448254902484 376.5192938696066 L 407.42965290064564 376.52495856035114 L 407.31621085855346 376.6600385717703 L 407.3114625548217 376.6657788638538 L 407.2000184535704 376.80256742078313 L 407.1953523699347 376.80838266818097 L 407.08592847070366 376.94685812780733 L 407.08134550512193 376.952747673936 L 406.97396406909036 377.09288839344623 L 406.9694651427204 377.09885156828955 L 406.86414843106763 377.2406359048703 L 406.8597344887785 377.2466720220344 L 406.75650476268373 377.3900783328726 L 406.75217677338253 377.3961866865784 L 406.6510562940251 377.5411933288608 L 406.64681525079374 377.54737319088474 L 406.547826279353 377.6939585217982 L 406.54367319939007 377.7002091383682 L 406.44683799704524 377.8483515150995 L 406.44277392140737 377.85467210376027 L 406.3481147493377 378.0043498834962 L 406.34414074247735 378.0107396299505 L 406.2516798618622 378.16193116987785 L 406.24779701095713 378.16838922481764 L 406.1575566829758 378.3210728821233 L 406.1537660970463 378.32759835806235 L 406.065768582878 378.481752489933 L 406.0620713916888 378.48834445805335 L 405.97633895251283 378.64394742167593 L 405.97273630525814 378.6506049086999 L 405.8892912022538 378.8076350612611 L 405.8857842660212 378.8143570463658 L 405.80464876036774 378.97279274505246 L 405.80123871838225 378.9795781568375 L 405.72243507125904 379.1393977588364 L 405.7191231209048 379.14624547236195 L 405.6426735934911 379.30742733486005 L 405.639460944112 379.31433616876956 L 405.56538779758705 379.47685864895345 L 405.5622756680666 379.4838273626993 L 405.4906011636097 379.64766881775597 L 405.4875907797341 379.6546961089384 L 405.41833717852455 379.81983489605454 L 405.41542977013 379.82691939789845 L 405.34861933334713 379.9933338742609 L 405.3458161312578 380.0004741532404 L 405.2814711200808 380.168142676036 L 405.2787733528416 380.17533722966914 L 405.2169160284498 380.3442381560846 L 405.2143249188621 380.3514854109122 L 405.15497754243484 380.52159709813435 L 405.1524943039032 380.5288954079004 L 405.0956791366197 380.7001962131161 L 405.09330496931864 380.70754385717055 L 405.03904427235824 380.8800121375666 L 405.0367803592312 380.887407319501 L 404.9850963937731 381.06102143226417 L 404.9829438963755 381.06846227880413 L 404.9338589235991 381.24320058112124 L 404.9318189778007 381.2506851412845 L 404.88535525888517 381.4265259903424 L 404.8834289704458 381.4340522348835 L 404.83960876657045 381.61097398786893 L 404.8377972066078 381.61853980902225 L 404.796642778952 381.796520823122 L 404.79494697931955 381.80412403465533 L 404.7564805890625 381.98314266705626 L 404.75490153765713 381.990781004652 L 404.7191454459782 382.1708156125409 L 404.7176840819999 382.1784867345086 L 404.68466055007826 382.3595156750723 L 404.68331775926345 382.36721716341015 L 404.6530490482785 382.5492187938354 L 404.65182565813166 382.5569481556401 L 404.6243340292626 382.7399008331138 L 404.62323080431094 382.7476555023514 L 404.59853851873714 382.9315375840602 L 404.59755615583344 382.93931492369745 L 404.5756854747341 383.1241047668283 L 404.57482459843504 383.131902071329 L 404.5557977829895 383.3175780330686 L 404.55505894103595 383.3253925312513 L 404.5388982524235 383.51193296878654 L 404.5382819113506 383.51976182704306 L 404.5250096107505 383.70714509756067 L 404.5245161516543 383.7149854234315 L 404.5141545002458 383.9031898841184 L 404.51378421473515 383.91103873021154 L 404.5063554736976 384.1000427382544 L 404.5061085600569 384.1078971065025 L 404.5016349905695 384.2976790190882 L 404.5015115501601 384.3055358653302 L 404.50001541340225 384.4960740396456 L 404.50033552817183 384.503786466252 L 404.50001435597034 384.50378890010063 Z" id="element_296" /></svg>