<?xml version='1.0' encoding='utf-8'?>
<svg xmlns:svg="http://www.w3.org/2000/svg" version="1.1" id="Layer_1" x="0px" y="0px" viewBox="0 0 500 500" style="width: 188px;" xml:space="preserve" data-imageid="moscow-46" imageName="Moscow" class="illustrations_image"><svg:style type="text/css">
	.st0_moscow-46{fill:#FFFFFF;}
	.st1_moscow-46{fill:#231F20;}
	.st2_moscow-46{fill:#68E1FD;}
	.st3_moscow-46{fill:#D1D3D4;}
</svg:style><svg:path class="st1_moscow-46" d="M 318.8361275794092 421.39869308999226 L 318.84300351943307 421.39788617704926 L 318.84903616990346 421.39758964422623 L 318.8622786915713 421.3956241756614 L 318.8803103165383 421.39350810840097 L 318.8895920807955 421.39157029459057 L 318.8975995613459 421.3903818161648 L 318.9091456536799 421.3874879690189 L 318.92385731774965 421.3844165199906 L 318.93594771462733 421.3813252048393 L 318.94111158030097 421.3799754858483 L 318.9531395222034 421.37676297094316 L 318.95827941733853 421.37536078873967 L 318.97024366753357 421.37202831081277 L 318.97535973798495 421.3705739332274 L 318.9872590597404 421.36712272901093 L 318.9923514739368 421.3656163933823 L 319.0041846305205 421.3620476996085 L 319.00925357818323 421.3604896118528 L 319.021019332863 421.3568046652539 L 319.02606502371935 421.35519499896304 L 319.037762139763 421.35139503627113 L 319.0427848022519 421.34973393184026 L 319.0544120429272 421.34582018978756 L 319.05941192290464 421.34410775356537 L 319.07096805147944 421.340081468884 L 319.0759454109095 421.3383177723492 L 319.0874291906516 421.3341801817715 L 319.09238430630785 421.3323652607245 L 319.10379450048515 421.32811760098247 L 319.10872766261696 421.3262514547664 L 319.12006303449715 421.32189496259235 L 319.12497454551533 421.31997755332117 L 319.1362338583663 421.3155134654472 L 319.14112403150244 421.3135447172553 L 319.152306048592 421.30897427041367 L 319.15717520655136 421.30695406871814 L 319.16827869114735 421.302278499641 L 319.17312716475 421.3002066904155 L 319.1841508801202 421.295427235835 L 319.188979006928 421.2933036248942 L 319.1999217163402 421.28842152154255 L 319.2047298392624 421.2862458738381 L 319.21559030598456 421.28126235844746 L 319.2203787718706 421.2790343973701 L 319.2311557591704 421.2739507066727 L 319.23592491737566 421.27167011336394 L 319.24661718852093 421.2664874840919 L 319.25136738944605 421.2641538967639 L 319.26197370770467 421.2588735656495 L 319.2667053013246 421.25648657890235 L 319.2772244299643 421.2511097826777 L 319.28193776429515 421.2486689468388 L 319.2923684665838 421.24319692223605 L 319.29706388613846 421.2407017426941 L 319.3074049253439 421.23513572644555 L 319.3120827695565 421.2325856629869 L 319.3223329089465 421.2269268918246 L 319.32699351051417 421.2243213579987 L 319.3371515133566 421.2185710686549 L 319.34179519659546 421.21590943111465 L 319.3518598261581 421.2100688603215 L 319.35648690524044 421.20735043821117 L 319.3664569247911 421.2014208227009 L 319.3710677019977 421.19864488701467 L 319.3809418748042 421.19262746351944 L 319.38553663865196 421.1897932365104 L 319.39531372798217 421.18368924176235 L 319.399892751327 421.18079589634453 L 319.40957152044865 421.17460656707595 L 319.4141350585141 421.171653226246 L 319.4237142706951 421.165379799189 L 319.4282625590062 421.1623655354828 L 319.43774097751435 421.1560092473696 L 319.442274229772 421.15293308233106 L 319.45165061787503 421.14649516989374 L 319.45616902372035 421.14335607359084 L 319.46544214468616 421.1368377735617 L 319.4699458674106 421.133634664112 L 319.479114484507 421.1270372132231 L 319.4836036586145 421.1237689563964 L 319.49266653510927 421.11709359138007 L 319.49714126381474 421.113759000222 L 319.5060971629757 421.1070069578103 L 319.5105575155756 421.10360479233464 L 319.51940520067063 421.09677730925983 L 319.5238512098002 421.0933062762043 L 319.5325894440971 421.08640458919854 L 319.53702110285974 421.0828633418596 L 319.54564864962623 421.0758886876551 L 319.5500659086116 421.0722758257944 L 319.5585815311156 421.0652294411233 L 319.56298429525816 421.0615435109908 L 319.5713867567675 421.0544266325853 L 319.57577488209995 421.05066612702336 L 319.58406294588235 421.0434799916156 L 319.5884362360989 421.03964335032356 L 319.59660866542225 421.03238919464576 L 319.600966868342 421.02847480453994 L 319.6090224264741 421.0211538653243 L 319.6133652303154 421.0171600610815 L 319.6213026805241 421.00977357506014 L 319.62562971002757 421.00569863982764 L 319.6334478155806 420.9982478437329 L 319.63775862799287 420.9940900100085 L 319.6454561521581 420.98657614057237 L 319.6497502330099 420.98233359133553 L 319.65732593905517 420.9747578852903 L 319.6616026978236 420.97042875532014 L 319.6690553490167 420.96279244939797 L 319.6733141145891 420.95837482688063 L 319.68064247419784 420.9506791578136 L 319.68488249017383 420.94617108623174 L 319.69208532146604 420.9384172907522 L 319.696305741329 420.9338167710526 L 319.7033818075725 420.92600608589265 L 319.70758168966074 420.92131107903907 L 319.71452975412336 420.9134447409309 L 319.71870805649183 420.9086531707841 L 319.72552688244133 420.9007324164599 L 319.72968245755476 420.89584217308976 L 319.73637080825904 420.8878682392817 L 319.7405023975779 420.88287718269095 L 319.7470590363048 420.8748513061313 L 319.7511652647504 420.86975727045734 L 319.7575889547676 420.86168068787816 L 319.7616683250771 420.8564814861198 L 319.76795782965246 420.8483554342533 L 319.77200871668856 420.84304886350884 L 319.77816279909 420.8348745790872 L 319.7821834440933 420.82945842638526 L 319.7882008675885 420.82123714614073 L 319.792189372395 420.81570919491776 L 319.79806890025185 420.80744215558246 L 319.80202322155554 420.80180019278777 L 319.8077636170419 420.79348863109385 L 319.8116815607089 420.7877304550036 L 319.8172815870925 420.7793756076834 L 319.8211608025723 420.77349903646757 L 319.82661922312104 420.7651021402531 L 319.8304571980284 420.75910502130006 L 319.83577277601 420.75066731292355 L 319.8395668309166 420.74454753298954 L 319.844738329599 420.73607024918323 L 319.84848561312384 420.7298257453595 L 319.85351179577475 420.7213101228555 L 319.8572092800069 420.71493889444844 L 319.86208890989417 420.70638616997894 L 319.8657333862771 420.6998862912461 L 319.87046522666856 420.69129770154336 L 319.8740533023984 420.6846673353617 L 319.8786361165619 420.67604411715786 L 319.8821642116095 420.6692815296106 L 319.88659676281276 420.6606249196378 L 319.8900611076629 420.65372849554086 L 319.89434215917385 420.64503973053127 L 319.89773879340925 420.63800798985665 L 319.90186710849565 420.62928830654255 L 319.90519188032414 420.62211992175355 L 319.9091662222538 420.61337055686704 L 319.91241478910285 420.6060643711329 L 319.91623392114354 420.59728656140624 L 319.91940175145936 420.58984160762884 L 319.92306443687903 420.5810365897941 L 319.926146813264 420.573452110374 L 319.9296518153304 420.56462112116344 L 319.93264383912805 420.5568965884839 L 319.93598992110896 420.5480408646297 L 319.93888651859794 420.5401760020938 L 319.9420724437612 420.53129678032815 L 319.9448683740831 420.52329158384526 L 319.94789290569656 420.5143901009003 L 319.9505827706334 420.50624486071024 L 319.95344467196486 420.4973223533182 L 319.9560229277118 420.48903767592395 L 319.958720962029 420.480095380817 L 319.961181933043 420.4716722109229 L 319.9637148636139 420.4627113648332 L 319.966052758676 420.45415100695425 L 319.96841934876835 420.445172846614 L 319.97062827929847 420.43647698624795 L 319.97282729218006 420.4274827483893 L 319.97490129289775 420.4186534723805 L 319.9769314918364 420.4096443937357 L 319.9788645437821 420.40068420961444 L 319.98072469204567 420.3916615269156 L 319.98251074797685 420.38257338086885 L 319.9841996088332 420.3735383308482 L 319.9858326209625 420.3643256240174 L 319.98734895767933 420.3552794434071 L 319.98882290768154 420.3459460462181 L 319.9901654835267 420.33688997175034 L 319.9914744147259 420.3274402358243 L 319.9926419929672 420.3183755042313 L 319.993780044526 420.3088142716728 L 319.99477138843133 420.29974211968664 L 319.99573283136226 420.2900747293012 L 319.9965467041994 420.28099639365416 L 319.99732597893785 420.27122868384527 L 319.99796114397463 420.2621454012695 L 319.9985528992266 420.2522837092234 L 319.9990081197308 420.243196716451 L 319.99940725223854 420.23324787344 L 319.999681291478 420.22415840720333 L 319.9998829863229 420.21412972964583 L 319.99997460756543 420.20503902667696 L 320.00000000000006 420.2 L 320.00000000000006 366.3 L 319.9997625616951 366.29519426325123 L 319.99997688454704 366.2951922023141 L 319.9993661449709 366.23167961495705 L 319.99918098934563 366.2220573155772 L 319.99735454203403 366.15879763995144 L 319.9969841717446 366.14917973207395 L 319.99395067382284 366.08618100693866 L 319.993395394197 366.07657436559646 L 319.98916350279035 366.01384462971095 L 319.9884239372709 366.00425605038714 L 319.9830023095046 365.94180334251047 L 319.98207939173017 365.93223951925 L 319.97547668472953 365.87007187814146 L 319.9743716489929 365.8605393826626 L 319.96659651988324 365.7986648470812 L 319.9653108900851 365.78917010902444 L 319.9563719959916 365.7275967177296 L 319.9549075732189 365.71814600618796 L 319.944813571267 365.65688179793875 L 319.94317242013824 365.6474812043675 L 319.931931967453 365.5865342179231 L 319.9301164013819 365.5771896405446 L 319.9177381550887 365.5165679146642 L 319.9157507206212 365.50728504441884 L 319.9022433378454 365.44699661786166 L 319.9000867982321 365.43778092597887 L 319.88545893609887 365.37783383750406 L 319.88313625426684 365.3686905647242 L 319.86739656990153 365.309092853091 L 319.86491089098206 365.3000270005455 L 319.84806804150986 365.2407867045131 L 319.8454226750862 365.2318030262785 L 319.82748531763247 365.17292818460595 L 319.8246837198543 365.1640311818913 L 319.8056605115443 365.1055298333379 L 319.8027062672614 365.09672375029214 L 319.7826058652204 365.038603933617 L 319.7795026702671 365.0298927546882 L 319.7583337316203 364.9721625086507 L 319.7550853753835 364.96354995744855 L 319.7328565572563 364.9062173208076 L 319.7294669056383 364.89770686038037 L 319.7061868651559 364.8407798718954 L 319.7026598440451 364.83237470635686 L 319.67833723833286 364.77586140478695 L 319.67467681766846 364.76756448218487 L 319.6493203038516 364.71147290628915 L 319.6455304823661 364.7032869226259 L 319.6191487175699 364.6476251111637 L 319.6152335082806 364.6395525154719 L 319.5878351496303 364.5843285072023 L 319.58379856613186 364.57637150756364 L 319.55539227075286 364.5215933412458 L 319.5512383143553 364.51375391164726 L 319.5218327393727 364.45942962604045 L 319.517565387127 364.45170951398234 L 319.48716918966625 364.3978471478457 L 319.48279238328223 364.39024788256313 L 319.45141422046845 364.33685547465586 L 319.44693185615967 364.32937837589486 L 319.4145803851183 364.27646396497613 L 319.40999630435306 364.2691101521865 L 319.37668018220927 364.21668177701554 L 319.3719981633852 364.2094521789048 L 319.33772604726425 364.1575178782408 L 319.3329497982747 364.15041324257146 L 319.29773034530194 364.09898105517357 L 319.2928634969861 364.0920019587393 L 319.2567053642868 364.0410799233667 L 319.2517514647346 364.0342267820659 L 319.214663309434 363.9838229374778 L 319.2096258191141 363.97709601641134 L 319.1716162983375 363.9272184013669 L 319.16649858601716 363.9206178249003 L 319.12757635688985 363.87127447815874 L 319.1223816963072 363.8648002398872 L 319.0825554159544 363.81599920020767 L 319.07728698320363 363.8096511727741 L 319.0365653087507 363.76140047891585 L 319.03122618033854 363.75517842363445 L 318.98961776891076 363.7074861143566 L 318.98421092044066 363.7013896906029 L 318.94172442916323 363.65426380466465 L 318.93625273460657 363.64829257899913 L 318.8928968206048 363.6017411551597 L 318.8873630521112 363.5958946101518 L 318.8431463725104 363.5499256871703 L 318.837553200715 363.5442032299002 L 318.79248441264036 363.49882484653585 L 318.78683440743015 363.4932258167588 L 318.74092216800705 363.4484460117709 L 318.7352177996981 363.4429696897217 L 318.68847076605175 363.39879650186924 L 318.68271440693906 363.3934421156985 L 318.6351412361948 363.34988358374085 L 318.6293351624411 363.34465031657936 L 318.58094451172417 363.3017144792756 L 318.57509090554197 363.29660147591335 L 318.52589143197764 363.25429637202274 L 318.5199923840781 363.24930274521097 L 318.4699927447917 363.2076364134926 L 318.46405025705695 363.20276124985827 L 318.4132591091736 363.16174172907137 L 318.4072750975361 363.15698409466154 L 318.3557010981813 363.1166194235653 L 318.34967739565997 363.11197836900817 L 318.2973292019588 363.0722765863618 L 318.29126756184974 363.06775115167176 L 318.2381538309276 363.0287202962344 L 318.23205593009664 363.02430951524696 L 318.1781853190788 362.98595762577787 L 318.1720527613592 362.98166053024477 L 318.11743392737094 362.94399564550304 L 318.1112682470213 362.9398112688396 L 318.0559098471879 362.90284142758446 L 318.04971251240704 362.89876880829235 L 317.9936232038537 362.862502049283 L 317.987395620327 362.8585402340545 L 317.93058406017906 362.8229845960501 L 317.9243275746367 362.81913264256286 L 317.8668024200194 362.78429616432265 L 317.8605183238026 362.78055314374564 L 317.80228823184126 362.7464438640288 L 317.7959777644477 362.74280886324016 L 317.7370513922676 362.7094348208058 L 317.73071574487847 362.70590694434543 L 317.6711017496048 362.6732761779528 L 317.6647420685724 362.66985454971405 L 317.6044491073306 362.6379750981223 L 317.59806649761947 362.63465886279795 L 317.5371032275347 362.6035387647663 L 317.53069875611124 362.600327089062 L 317.46907383430874 362.5699743833496 L 317.4626485334636 362.5668664569717 L 317.4003706170688 362.5372891823378 L 317.39392548767347 362.53428421877226 L 317.3310032338115 362.505490413976 L 317.3245392484963 362.50258765106514 L 317.2609813142925 362.4745853548657 L 317.2544994205439 362.47178405519503 L 317.19031446312357 362.4445813063516 L 317.1838155862941 362.4418807574575 L 317.11901226278246 362.4154855947293 L 317.1124973090132 362.4128851091374 L 317.04708427653554 362.3873055712836 L 317.0405541355793 362.3848044863858 L 316.974540051261 362.3600486121656 L 316.9679955992104 362.3576462899468 L 316.9013891201766 362.33372211811934 L 316.8948312220908 362.3314179447425 L 316.82764100546683 362.308333514067 L 316.8210705178936 362.3061268993243 L 316.75330522080475 362.28389024855994 L 316.7467229941998 362.28178062519993 L 316.67839127377135 362.2603997931059 L 316.67179815480404 362.2583866160416 L 316.60290866816126 362.2378696413771 L 316.59630550191685 362.23595238678723 L 316.52686690618503 362.21630730831146 L 316.5202545382526 362.2144854726385 L 316.450275490557 362.19572032911054 L 316.44365476900145 362.19399342796373 L 316.3731439264673 362.1761162581429 L 316.36651570369554 362.1744838251154 L 316.29548172344823 362.1575026677608 L 316.28884685795185 362.1559642531649 L 316.21729839711656 362.1398871470357 L 316.2106577551024 362.1384423165643 L 316.13860347080447 362.1232773004198 L 316.1319579277084 362.12192563374094 L 316.0594064770731 362.1076807463403 L 316.05275691895673 362.10642183563084 L 315.9797169591093 362.0931051157331 L 315.97306428393296 362.0919385641564 L 315.8995444719987 362.0795580505209 L 315.8928895907845 362.078483470658 L 315.81889858388865 362.0670472020439 L 315.8122424217571 362.06606421428114 L 315.737788877025 362.0555802294476 L 315.7311323741158 362.0546884603281 L 315.65622494867273 362.0451647980343 L 315.64956906094324 362.04436387857965 L 315.57421641191445 362.0358085775848 L 315.5675621118243 362.0350981415927 L 315.4917728963351 362.027519240656 L 315.4851211734044 362.02689892297866 L 315.40890404858 362.0203044608592 L 315.4022559098332 362.01977389567077 L 315.3256195327989 362.01417191112785 L 315.31897600308974 362.0137307301843 L 315.2419290309708 362.0091292619771 L 315.23529115318803 362.0087770928761 L 315.1578422431098 362.0051841797638 L 315.1512110782684 362.00492064420985 L 315.0733688873561 362.00234432495154 L 315.0667455145677 362.00216903703193 L 314.9885186999466 362.0006173503869 L 314.98190421628647 362.000529914865 L 314.9033014350819 362.0000108995921 L 314.89669856492 362.0000108995921 L 314.8180957837154 362.0005299148647 L 314.81148130005346 362.0006173503866 L 314.7332544854324 362.00216903703165 L 314.726631112644 362.00234432495125 L 314.6487889217317 362.00492064420956 L 314.6421577568899 362.00518417976355 L 314.5647088468117 362.0087770928759 L 314.55807096902925 362.00912926197685 L 314.4810239969103 362.0137307301841 L 314.4743804672012 362.0141719111276 L 314.3977440901669 362.01977389567054 L 314.3910959514205 362.02030446085894 L 314.31487882659604 362.0268989229783 L 314.308227103665 362.0275192406557 L 314.23243788817575 362.0350981415924 L 314.2257835880853 362.0358085775846 L 314.1504309390565 362.0443638785795 L 314.14377505132774 362.045164798034 L 314.06886762588465 362.0546884603278 L 314.06221112297465 362.0555802294474 L 313.98775757824257 362.06606421428097 L 313.9811014161114 362.0670472020437 L 313.9071104092156 362.0784834706578 L 313.9004555280014 362.0795580505207 L 313.8269357160671 362.0919385641562 L 313.8202830408908 362.0931051157329 L 313.74724308104334 362.1064218356306 L 313.74059352292664 362.1076807463401 L 313.6680420722913 362.12192563374083 L 313.6613965291956 362.1232773004196 L 313.5893422448977 362.1384423165641 L 313.5827016028839 362.1398871470355 L 313.5111531420486 362.1559642531646 L 313.5045182765515 362.1575026677607 L 313.4334842963042 362.1744838251153 L 313.42685607353275 362.1761162581427 L 313.3563452309986 362.19399342796356 L 313.34972450944343 362.1957203291103 L 313.27974546174784 362.2144854726382 L 313.2731330938147 362.2163073083113 L 313.2036944980829 362.2359523867871 L 313.1970913318388 362.2378696413769 L 313.12820184519603 362.25838661604143 L 313.12160872622917 362.26039979310553 L 313.0532770058007 362.28178062519953 L 313.04669477919475 362.2838902485599 L 312.97892948210597 362.3061268993243 L 312.97235899453375 362.30833351406665 L 312.90516877790975 362.3314179447421 L 312.8986108798233 362.3337221181191 L 312.8320044007896 362.35764628994656 L 312.8254599487387 362.3600486121655 L 312.75944586442034 362.38480448638575 L 312.7529157234645 362.38730557128343 L 312.6875026909869 362.4128851091372 L 312.6809877372176 362.41548559472915 L 312.616184413706 362.44188075745734 L 312.6096855368765 362.44458130635144 L 312.5455005794562 362.47178405519486 L 312.53901868570756 362.47458535486555 L 312.47546075150376 362.50258765106497 L 312.4689967661886 362.50549041397585 L 312.4060745123266 362.5342842187721 L 312.39962938293127 362.53728918233764 L 312.33735146653646 362.5668664569715 L 312.3309261656913 362.5699743833494 L 312.26930124388883 362.6003270890618 L 312.26289677246535 362.60353876476614 L 312.2019335023806 362.6346588627978 L 312.19555089266964 362.637975098122 L 312.13525793142776 362.66985454971376 L 312.128898250395 362.67327617795274 L 312.06928425512143 362.7059069443454 L 312.0629486077325 362.70943482080565 L 312.0040222355524 362.74280886324 L 311.997711768159 362.7464438640285 L 311.9394816761976 362.78055314374535 L 311.93319757998046 362.7842961643226 L 311.8756724253632 362.8191326425628 L 311.869415939821 362.82298459604993 L 311.8126043796731 362.8585402340543 L 311.80637679614637 362.86250204928285 L 311.750287487593 362.8987688082922 L 311.7440901528124 362.9028414275841 L 311.6887317529789 362.93981126883926 L 311.6825660726291 362.94399564550287 L 311.6279472386408 362.9816605302446 L 311.6218146809209 362.98595762577787 L 311.5679440699031 363.024309515247 L 311.5618461690727 363.02872029623404 L 311.50873243815056 363.06775115167136 L 311.502670798041 363.0722765863618 L 311.4503226043399 363.11197836900817 L 311.44429890181897 363.11661942356494 L 311.3927249024641 363.1569840946612 L 311.38674089082616 363.16174172907137 L 311.3359497429429 363.20276124985827 L 311.3300072552086 363.2076364134922 L 311.28000761592216 363.24930274521057 L 311.27410856802237 363.25429637202257 L 311.22490909445804 363.2966014759132 L 311.21905548827584 363.3017144792754 L 311.1706648375589 363.3446503165792 L 311.1648587638052 363.3498835837407 L 311.11728559306096 363.39344211569835 L 311.1115292339485 363.39879650186884 L 311.06478220030215 363.4429696897212 L 311.05907783199274 363.4484460117709 L 311.01316559256964 363.49322581675887 L 311.00751558735965 363.4988248465357 L 310.96244679928503 363.5442032299 L 310.95685362748986 363.5499256871699 L 310.91263694788904 363.59589461015133 L 310.90710317939477 363.60174115515997 L 310.86374726539304 363.6482925789995 L 310.85827557083707 363.65426380466425 L 310.81578907955964 363.70138969060247 L 310.81038223108953 363.70748611435613 L 310.7687738196617 363.755178423634 L 310.7634346912493 363.7614004789156 L 310.7227130167964 363.8096511727739 L 310.71744458404544 363.81599920020767 L 310.67761830369267 363.86480023988724 L 310.67242364311033 363.87127447815834 L 310.633501413983 363.92061782489986 L 310.62838370166253 363.92721840136664 L 310.59037418088593 363.9770960164111 L 310.585336690566 363.98382293747756 L 310.54824853526543 364.0342267820657 L 310.5432946357132 364.04107992336645 L 310.5071365030139 364.09200195873905 L 310.50226965469807 364.09898105517334 L 310.4670502017253 364.15041324257123 L 310.46227395273553 364.1575178782409 L 310.42800183661467 364.20945217890494 L 310.42331981779097 364.216681777015 L 310.3900036956471 364.269110152186 L 310.3854196148817 364.2764639649759 L 310.35306814384035 364.32937837589463 L 310.34858577953156 364.33685547465564 L 310.3172076167178 364.3902478825629 L 310.31283081033376 364.3978471478455 L 310.28243461287303 364.4517095139821 L 310.2781672606274 364.45942962604005 L 310.2487616856448 364.5137539116468 L 310.2446077292473 364.52159334124514 L 310.21620143386826 364.57637150756295 L 310.2121648503694 364.5843285072026 L 310.18476649171913 364.63955251547225 L 310.1808512824301 364.64762511116345 L 310.1544695176339 364.7032869226257 L 310.1506796961485 364.71147290628875 L 310.1253231823316 364.7675644821844 L 310.12166276166715 364.77586140478667 L 310.0973401559549 364.8323747063566 L 310.093813134844 364.8407798718953 L 310.0705330943617 364.8977068603803 L 310.06714344274394 364.90621732080683 L 310.0449146246167 364.9635499574477 L 310.04166626837946 364.97216250865097 L 310.02049732973273 365.02989275468855 L 310.01739413477964 365.0386039336167 L 309.9972937327386 365.09672375029174 L 309.99433948845586 365.10552983333724 L 309.9753162801458 365.1640311818906 L 309.9725146823675 365.17292818460567 L 309.95457732491377 365.2318030262782 L 309.95193195849 365.24078670451325 L 309.93508910901784 365.3000270005457 L 309.9326034300986 365.30909285309025 L 309.9168637457332 365.36869056472347 L 309.91454106390097 365.3778338375042 L 309.8999132017678 365.43778092597904 L 309.89775666215473 365.446996617861 L 309.8842492793789 365.50728504441815 L 309.8822618449112 365.51656791466394 L 309.86988359861806 365.5771896405443 L 309.8680680325469 365.58653421792314 L 309.8568275798617 365.6474812043675 L 309.8551864287331 365.65688179793796 L 309.8450924267811 365.71814600618717 L 309.84362800400834 365.7275967177293 L 309.83468910991485 365.7891701090241 L 309.8334034801167 365.79866484708083 L 309.825628351007 365.8605393826621 L 309.82452331527037 365.8700718781416 L 309.8179206082698 365.9322395192502 L 309.8169976904954 365.9418033425096 L 309.81157606272905 366.00425605038623 L 309.8108364972096 366.013844629711 L 309.806604605803 366.07657436559657 L 309.8060493261772 366.0861810069378 L 309.80301582825535 366.14917973207304 L 309.8026454579659 366.15879763995105 L 309.8008190106543 366.2220573155768 L 309.80063385502905 366.23167961495665 L 309.8000231154529 366.29519220231373 L 309.8 366.3 L 309.8 419.6555555555554 L 309.79999999999984 420.2000000000002 L 309.8000143559699 420.2037889001011 L 309.8001059772124 420.21587929697876 L 309.8002213433016 420.22347921733507 L 309.80049538254104 420.2355071592375 L 309.80072718806656 420.24312878018884 L 309.80118240857075 420.2550930303839 L 309.80153167197625 420.26273377593594 L 309.80216683701303 420.2746330976914 L 309.80263450477275 420.2822903642801 L 309.80344837760987 420.29412352086376 L 309.8040353234316 420.3017946804427 L 309.80502666733696 420.31356043512244 L 309.8057336915239 420.32124283821116 L 309.80690126976526 420.33293995425475 L 309.8077290987427 420.34063093303394 L 309.80907167458787 420.35225817370923 L 309.810020960585 420.3599550450567 L 309.81153729730187 420.3715111736315 L 309.81260861819084 420.3792112421463 L 309.8142974790471 420.3906950218884 L 309.81549133833664 420.3983955828899 L 309.8173514866002 420.40980577706716 L 309.8186683135729 420.41750411951597 L 309.82069851251157 420.42883949139616 L 309.82213866250777 420.4365329007836 L 309.8243376753894 420.4477922136346 L 309.82590143022225 420.4554779747717 L 309.82826802031457 420.4666599918613 L 309.8299555888236 420.47433539163967 L 309.8324885193945 420.4854388762356 L 309.834300038112 420.4931012062487 L 309.8369980724293 420.50412492161894 L 309.8389336063654 420.5117714807152 L 309.8417955076968 420.52271419012743 L 309.84385505123663 420.53034228688705 L 309.84687958285014 420.5412027536091 L 309.84906306073293 420.5488097086523 L 309.8522489858962 420.5595866959521 L 309.85455625430376 420.56716984421683 L 309.85790233628467 420.57786211536217 L 309.8603331839903 420.58541880820013 L 309.8638381860566 420.5960251264587 L 309.866392335653 420.6035527336478 L 309.8700550210727 420.6140718622875 L 309.87273213025406 420.6215677739056 L 309.8765512622948 420.63199847619427 L 309.87935092519666 420.639460104396 L 309.88332526712634 420.64980114360145 L 309.8862470156944 420.65722592423936 L 309.8903753307807 420.66747606362935 L 309.89341863618023 420.6748614577808 L 309.89769968769116 420.68501946062327 L 309.90086396172666 420.69236295596926 L 309.90529651292997 420.7024275855319 L 309.90858110948335 420.7097266976325 L 309.91316392364683 420.7196967171832 L 309.9165681401162 420.7269489906329 L 309.9212999805077 420.7368231634394 L 309.9248230592378 420.74402617290116 L 309.92970268912507 420.7538032622313 L 309.93334381881897 420.76095461335444 L 309.9383700014699 420.77063338247615 L 309.94212831858994 420.7777307127308 L 309.9472998172723 420.7873099249117 L 309.95117440738835 420.7943509042785 L 309.95648998536996 420.8038293227866 L 309.960479884503 420.81081165441304 L 309.96593830505174 420.82018804251607 L 309.9700425009306 420.82710946320316 L 309.9756425273142 420.836382584169 L 309.97985996063 420.84324086485856 L 309.9856003561164 420.8524094819549 L 309.9899299216742 420.85920242805946 L 309.99580944953107 420.86826530455426 L 310.00024999739304 420.8749907562997 L 310.00626742088826 420.8839466554607 L 310.01081775740414 420.89060248808886 L 310.0169718398056 420.8994501731838 L 310.0216307286056 420.9060342971473 L 310.02792023318096 420.91477253144416 L 310.0326863961116 420.92128289256993 L 310.03911008612886 420.9299104393365 L 310.0439822040751 420.93634501889085 L 310.0505388428019 420.9448606413948 L 310.05551555648674 420.95121745618655 L 310.062203907191 420.9596199176958 L 310.0672838178654 420.96589702010795 L 310.0741026438149 420.97418508389035 L 310.07928431390985 420.98038056194 L 310.0862323783725 420.98855299126336 L 310.09151433204636 420.99466496861476 L 310.09859039828984 421.0027205267468 L 310.10397112194 421.00874716276655 L 310.1111739532322 421.0166846129752 L 310.1166518959226 421.02262410277547 L 310.12398025553136 421.03044220832845 L 310.12955382935246 421.03629278282364 L 310.13700648054555 421.04399030698886 L 310.14267406094484 421.04975023300995 L 310.1502497669901 421.0573259390552 L 310.1560096930112 421.0629935194545 L 310.1637072171764 421.0704461706476 L 310.1695577916743 421.07601974447124 L 310.17737589722736 421.08334810407996 L 310.1833153870235 421.0888260467666 L 310.1912528372321 421.0960288780588 L 310.1972794732545 421.1014096017113 L 310.20533503138665 421.10848566795477 L 310.21144700873674 421.1137676216275 L 310.2196194380601 421.12071568609014 L 310.22581491610816 421.12589735618377 L 310.23410297989057 421.1327161821333 L 310.2403800823059 421.13779609281033 L 310.24878254381514 421.14448444351456 L 310.25513935860357 421.14946115719675 L 310.26365498110755 421.1560177959236 L 310.27008956066527 421.1608899138725 L 310.2787171074318 421.1673136038897 L 310.28522746855595 421.172079766819 L 310.2939657028528 421.1783692713944 L 310.3005498268181 421.18302816019565 L 310.30939751191306 421.18918224259704 L 310.3160533445376 421.1937325791105 L 310.32500924369856 421.19975000260575 L 310.33173469544585 421.2041905504689 L 310.34079757194064 421.21007007832577 L 310.34759051804826 421.2143996438855 L 310.35675913514467 421.2201400393718 L 310.36361741583005 421.224357472685 L 310.3728905367958 421.22995749906863 L 310.3798119574852 421.2340616949489 L 310.38918834558825 421.2395201154976 L 310.3961706772124 421.24351001462935 L 310.4056490957205 421.24882559261096 L 310.4126900750895 421.2527001827282 L 310.42226928727047 421.25787168141056 L 310.429366617524 421.26162999853005 L 310.4390453866457 421.26665618118096 L 310.44619673776987 421.2702973108754 L 310.4559738271001 421.27517694076266 L 310.4631768365608 421.27870001949225 L 310.47305100936734 421.2834318598837 L 310.48030328281703 421.2868360763531 L 310.4902733023677 421.2914188905166 L 310.49757241447054 421.29470348707093 L 310.5076370440332 421.2991360382742 L 310.514980539376 421.3023003123083 L 310.5251385422184 421.30658136381925 L 310.5325239363695 421.3096246692186 L 310.54277407575955 421.313752984305 L 310.550198856401 421.31667473287445 L 310.56053989560644 421.32064907480407 L 310.56800152380595 421.32344873770506 L 310.5784322260946 421.3272678697458 L 310.5859281377127 421.3299449789272 L 310.5964472663524 421.33360766434686 L 310.6039748735399 421.33616181394274 L 310.61458119179855 421.3396668160091 L 310.62213788463737 421.34209766371504 L 310.63283015578264 421.34544374569595 L 310.64041330404814 421.3477510141037 L 310.6511902913479 421.350936939267 L 310.6587972463941 421.35312041715065 L 310.66965771311624 421.3561449487641 L 310.67728580987284 421.35820449230306 L 310.6882285192851 421.3610663936345 L 310.69587507838133 421.36300192757056 L 310.7068987937516 421.36569996188786 L 310.7145611237652 421.3675114806055 L 310.72566460836117 421.37004441117637 L 310.7333400081385 421.3717319796852 L 310.74452202522804 421.3740985697775 L 310.75220778636805 421.3756623246109 L 310.76346709921904 421.3778613374925 L 310.7711605086017 421.37930148748785 L 310.7824958804819 421.38133168642656 L 310.7901942229335 421.3826485133997 L 310.8016044171108 421.3845086616633 L 310.8093049781119 421.38570252095275 L 310.820788757854 421.38739138180904 L 310.8284888263712 421.38846270269835 L 310.840044954946 421.38997903941515 L 310.8477418262911 421.39092832541195 L 310.8593690669664 421.3922709012571 L 310.8670600457458 421.39309873023456 L 310.87875716178945 421.3942663084759 L 310.88643956487795 421.39497333266286 L 310.8982053195577 421.3959646765682 L 310.9058764791366 421.39655162238995 L 310.9177096357203 421.39736549522706 L 310.925366902309 421.3978331629868 L 310.93726622406444 421.39846832802357 L 310.9449069696165 421.39881759142907 L 310.95687121981155 421.39927281193326 L 310.9644928407629 421.3995046174588 L 310.9765207826653 421.39977865669823 L 310.98412070302163 421.3998940227874 L 310.9962110998993 421.3999856440299 L 311.0 421.4 L 318.8 421.4 L 318.8141430310739 421.3993048042562 L 318.8361275794092 421.39869308999226 Z" id="element_198" /></svg>