<?xml version='1.0' encoding='utf-8'?>
<svg xmlns:svg="http://www.w3.org/2000/svg" version="1.1" id="Layer_1" x="0px" y="0px" viewBox="0 0 500 500" style="width: 188px;" xml:space="preserve" data-imageid="moscow-46" imageName="Moscow" class="illustrations_image"><svg:style type="text/css">
	.st0_moscow-46{fill:#FFFFFF;}
	.st1_moscow-46{fill:#231F20;}
	.st2_moscow-46{fill:#68E1FD;}
	.st3_moscow-46{fill:#D1D3D4;}
</svg:style><svg:path class="st1_moscow-46" d="M 348.10001435597036 352.3037889001011 L 348.1001059772129 352.3158792969788 L 348.10022134330205 352.3234792173351 L 348.1004953825415 352.3355071592375 L 348.100727188067 352.34312878018886 L 348.1011824085712 352.3550930303839 L 348.1015316719766 352.3627337759336 L 348.1021668370133 352.374633097689 L 348.10263450477316 352.3822903642801 L 348.1034483776103 352.3941235208638 L 348.104035323432 352.4017946804427 L 348.10502666733737 352.41356043512246 L 348.10573369152434 352.4212428382112 L 348.1069012697657 352.4329399542548 L 348.1077290987431 352.44063093303396 L 348.1090716745883 352.45225817370925 L 348.1100209605851 352.45995504505436 L 348.1115372973019 352.47151117362915 L 348.1126086181912 352.47921124214633 L 348.1142974790475 352.4906950218884 L 348.115491338337 352.49839558288994 L 348.11735148660057 352.5098057770672 L 348.11866831357366 352.5175041195184 L 348.1206985125124 352.52883949139857 L 348.1221386625077 352.53653290078125 L 348.1243376753893 352.54779221363225 L 348.1259014302226 352.55547797477175 L 348.1282680203149 352.56665999186134 L 348.129955588824 352.5743353916397 L 348.1324885193948 352.5854388762356 L 348.13430003811237 352.5931012062487 L 348.13699807242966 352.60412492161896 L 348.13893360636575 352.6117714807152 L 348.14179550769717 352.62271419012745 L 348.1438550512363 352.6303422868847 L 348.14687958284975 352.64120275360676 L 348.1490630607332 352.6488097086523 L 348.1522489858965 352.6595866959521 L 348.15455625430405 352.66716984421686 L 348.15790233628496 352.6778621153622 L 348.1603331839906 352.68541880820015 L 348.1638381860569 352.6960251264587 L 348.1663923356533 352.7035527336478 L 348.170055021073 352.71407186228754 L 348.17273213025436 352.72156777390563 L 348.1765512622951 352.7319984761943 L 348.1793509251961 352.7394601043938 L 348.1833252671257 352.74980114359926 L 348.1862470156955 352.7572259242416 L 348.19037533078193 352.7674760636316 L 348.1934186361805 352.77486145778084 L 348.19769968769145 352.7850194606233 L 348.200863961726 352.79236295596706 L 348.20529651292924 352.8024275855297 L 348.2085811094836 352.8097266976325 L 348.2131639236471 352.8196967171832 L 348.21656814011646 352.8269489906329 L 348.2212999805079 352.8368231634394 L 348.224823059238 352.8440261729012 L 348.2297026891253 352.85380326223134 L 348.2333438188192 352.86095461335447 L 348.2383700014701 352.87063338247617 L 348.2421283185902 352.8777307127308 L 348.24729981727256 352.88730992491173 L 348.2511744073886 352.8943509042785 L 348.2564899853702 352.90382932278663 L 348.26047988450324 352.91081165441307 L 348.265938305052 352.9201880425161 L 348.27004250093086 352.9271094632032 L 348.27564252731446 352.936382584169 L 348.2798599606291 352.94324086485665 L 348.2856003561154 352.952409481953 L 348.2899299216744 352.9592024280595 L 348.29580944953125 352.9682653045543 L 348.3002499973944 352.97499075630157 L 348.3062674208897 352.98394665546255 L 348.31081775740313 352.99060248808706 L 348.3169718398045 352.999450173182 L 348.3216307286058 353.0060342971473 L 348.32792023318115 353.0147725314442 L 348.3326863961105 353.0212828925683 L 348.3391100861277 353.02991043933486 L 348.34398220407655 353.0363450188926 L 348.3505388428034 353.04486064139655 L 348.3555155564856 353.051217456185 L 348.36220390718984 353.05961991769425 L 348.36728381786685 353.06589702010956 L 348.3741026438164 353.07418508389196 L 348.3792843139087 353.0803805619385 L 348.3862323783713 353.08855299126185 L 348.3915143320478 353.09466496861626 L 348.39859039829133 353.1027205267483 L 348.4039711219402 353.1087471627666 L 348.4111739532324 353.11668461297523 L 348.41665189592146 353.12262410277407 L 348.4239802555302 353.13044220832705 L 348.4295538293526 353.13629278282366 L 348.4370064805457 353.1439903069889 L 348.44267406094497 353.14975023300997 L 348.4502497669902 353.1573259390552 L 348.4560096930113 353.1629935194545 L 348.46370721717653 353.1704461706476 L 348.46955779167314 353.17601974447 L 348.4773758972261 353.18334810407873 L 348.48331538702496 353.1888260467678 L 348.4912528372336 353.19602887806 L 348.49727947325334 353.20140960171017 L 348.5053350313854 353.20848566795365 L 348.5114470087368 353.21376762162754 L 348.51961943806015 353.22071568609016 L 348.52581491610823 353.2258973561838 L 348.53410297989063 353.23271618213334 L 348.54038008230725 353.2377960928114 L 348.54878254381657 353.2444844435156 L 348.5551393586037 353.2494611571968 L 348.5636549811077 353.25601779592364 L 348.57008956066414 353.26088991387155 L 348.57871710743063 353.26731360388874 L 348.585227468556 353.27207976681905 L 348.59396570285287 353.2783692713944 L 348.60054982681936 353.2830281601965 L 348.6093975119144 353.2891822425979 L 348.6160533445377 353.2937325791105 L 348.6250092436987 353.2997500026058 L 348.6317346954448 353.30419055046815 L 348.6407975719395 353.310070078325 L 348.64759051804833 353.3143996438855 L 348.65675913514474 353.32014003937184 L 348.6636174158301 353.32435747268505 L 348.6728905367959 353.32995749906866 L 348.67981195748524 353.3340616949489 L 348.6891883455883 353.33952011549763 L 348.6961706772125 353.3435100146294 L 348.70564909572056 353.348825592611 L 348.71269007508954 353.3527001827282 L 348.72226928727054 353.3578716814106 L 348.7293666175241 353.3616299985301 L 348.7390453866458 353.366656181181 L 348.7461967377689 353.3702973108749 L 348.75597382709907 353.3751769407622 L 348.76317683656083 353.37870001949227 L 348.77305100936735 353.38343185988373 L 348.78030328281704 353.3868360763531 L 348.7902733023677 353.3914188905166 L 348.79757241447055 353.39470348707096 L 348.8076370440332 353.3991360382742 L 348.81498053937696 353.40230031230874 L 348.8251385422194 353.40658136381967 L 348.83252393636866 353.40962466921826 L 348.84277407575865 353.41375298430467 L 348.850198856401 353.41667473287447 L 348.85239222061114 353.41751770224863 L 348.8433732626258 353.31593575441326 L 348.82418134343385 353.09977413825175 L 348.8049894242419 352.8836125220902 L 348.78579750505 352.66745090592843 L 348.74741366666615 352.2351276736053 L 348.72822174747427 352.01896605744355 L 348.7090298282823 351.8028044412821 L 348.68983790909044 351.58664282512035 L 348.65145407070656 351.1543195927972 L 348.6322621515147 350.93815797663547 L 348.61307023232274 350.721996360474 L 348.5938783131308 350.5058347443124 L 348.5746863939389 350.28967312815064 L 348.53630255555504 349.8573498958275 L 348.51711063636316 349.6411882796658 L 348.4979187171712 349.4250266635043 L 348.47872679797933 349.20886504734256 L 348.4595348787874 348.99270343118104 L 348.44034295959545 348.77654181501947 L 348.4211510404036 348.56038019885773 L 348.40195912121163 348.3442185826962 L 348.4000000002892 348.2999829946438 L 348.4000002064112 348.2939224916442 L 348.4000016631491 348.2877605627254 L 348.4000056697535 348.28149776382566 L 348.40001358818506 348.27513458853747 L 348.40002684349633 348.26867146832 L 348.40002816730095 348.26816000027765 L 348.40004692440573 348.2621087727694 L 348.400049206564 348.26149432736133 L 348.4000753840619 348.25544681004965 L 348.40007900637625 348.2547290161219 L 348.4001138409994 348.2486858273729 L 348.4001192518045 348.24786425344894 L 348.4001639802851 348.24182601162863 L 348.4001716957849 348.24090016666895 L 348.4002275548551 348.2348674901435 L 348.4002381606491 348.23383682442653 L 348.4003063870412 348.22781033156195 L 348.40032053983964 348.22667423772543 L 348.4004023702857 348.22065454688783 L 348.4004207998132 348.2194123610872 L 348.4005174710455 348.2134000906428 L 348.40054098212886 348.21205109396027 L 348.4006537308795 348.206046862275 L 348.40068320571976 348.2045902822615 L 348.4008132687209 348.1985947077015 L 348.4008496693461 348.19702972010833 L 348.40099828333007 348.1910434210397 L 348.40104265422156 348.1893691518838 L 348.4012110559204 348.1833927466726 L 348.4012645268138 348.18160827438885 L 348.4014539529598 348.17564238140125 L 348.4015177418057 348.1737467394495 L 348.40172942913097 348.1677919770515 L 348.4018048452165 348.1657841566591 L 348.4020400304532 348.15984114321685 L 348.4021284776662 348.15772009655774 L 348.4023883975466 348.1517894504373 L 348.4024913777774 348.14955409411976 L 348.40277726903355 348.1436364336872 L 348.4028963856968 348.14128565261313 L 348.40320948506104 348.13538159623465 L 348.40334644672026 348.1329142479302 L 348.4036879909247 348.1270244139718 L 348.4038446150038 348.12443933330735 L 348.4042158407805 348.11856434013515 L 348.4043940573375 348.11586034454035 L 348.4047962014189 348.11000081052043 L 348.4049980569501 348.10717670579703 L 348.4054323560682 348.10133324929546 L 348.4056600173232 348.0983878358858 L 348.40612770821025 348.0925610752687 L 348.40638346597353 348.08949315518333 L 348.4068857853617 348.0836837088168 L 348.4071720581629 348.08049209319904 L 348.4077102427844 348.07470057944914 L 348.4080295804941 348.0713840968092 L 348.408604867081 348.06561113404206 L 348.40895995433925 348.06216863919997 L 348.4095735796238 348.05641484578166 L 348.4099672390449 348.05284522956254 L 348.4106204397593 348.04711122385913 L 348.4110556348407 348.0434134236426 L 348.4117496477171 348.03769982402025 L 348.41222948540303 348.0338728349758 L 348.4129655471737 348.0281802598005 L 348.41349327996045 348.02422314714767 L 348.4142726273575 348.0185522147856 L 348.4148516548918 348.0144641267775 L 348.4156755246474 348.00881545559474 L 348.4163093946929 348.00459563749934 L 348.4171790235393 347.9989698458619 L 348.41787143222734 347.99461765480805 L 348.41878805689663 347.98901536108207 L 348.41954284814665 347.98453028180853 L 348.42050770537105 347.9789521043602 L 348.4213288693593 347.97433376589026 L 348.42234319587106 347.96878032308547 L 348.4232348664265 347.9640285162741 L 348.4242998989577 347.95850042647913 L 348.42526634976554 347.95361512235195 L 348.4263833250484 347.94811300393275 L 348.42742896450005 347.943094372893 L 348.4285991192668 347.93761884421576 L 348.4297284838406 347.9324672759233 L 348.4309530548234 347.927018955354 L 348.4321708008461 347.92173507922945 L 348.43345102477707 347.91631458513433 L 348.43476191842893 347.91089929135956 L 348.4360990320403 347.90550724210465 L 348.43750793744823 347.89996170305 L 348.4389031774722 347.8945987170014 L 348.4404150427878 347.88892440878203 L 348.44186964595644 347.88359110430576 L 348.443489487276 347.87778982837045 L 348.4450046903217 347.8724868238327 L 348.4467375733234 347.8665607283952 L 348.44831461297815 347.861288642162 L 348.4501656322451 347.85524024301617 L 348.4518057452412 347.84999969345364 L 348.4537800011142 347.84383189419003 L 348.4554844241838 347.8386234996642 L 348.457586997181 347.8323396107063 L 348.4593569670563 347.8271639895833 L 348.4615928898102 347.82076774584834 L 348.4634296432233 347.8156255164943 L 348.4658038699809 347.80912109326675 L 348.4677086436641 347.8040128740477 L 348.47022601741565 347.79740490071276 L 348.472200048101 347.79233130999484 L 348.47486526549886 347.7856248811363 L 348.4769097899187 347.7805865372856 L 348.47972736409827 347.7737872209233 L 348.4818436189846 347.76878474230585 L 348.4848178406416 347.76189858457144 L 348.4870070627268 347.7569325895534 L 348.49014195960905 347.7499661157632 L 348.49240538562515 347.74503722271066 L 348.49570468095186 347.73799743409444 L 348.4980435476311 347.73310626137345 L 348.501510617766 347.7260006273544 L 348.5039261618405 347.72114779333106 L 348.50756399375814 347.71398423893424 L 348.5100574519602 347.70917036197466 L 348.51386860105487 347.70195725011115 L 348.5164412101166 347.6971829485814 L 348.52042775894887 347.6899290570342 L 348.52308075560245 347.68519494930035 L 348.52724427424835 347.6779094422667 L 348.529978895226 347.6732161466949 L 348.53432040385667 347.6659085409529 L 348.53713788589056 347.66125667590927 L 348.5416578203661 347.6539368015316 L 348.5445594001884 347.6493269853821 L 348.54925758128775 347.6420049413269 L 348.55224449563065 347.6374377924377 L 348.55712010264415 347.6301238972413 L 348.5601935882398 347.6256000339785 L 348.5652451375539 347.6183047720004 L 348.5684064311345 347.6138248127301 L 348.5736317604433 347.60655877642745 L 348.57688209874107 347.60212333951574 L 348.58227835735175 347.5948971684699 L 348.5856189770989 347.59050687228284 L 348.59118262283533 347.58333118961474 L 348.59461476076393 347.57898665251844 L 348.6003415637364 347.57187199959765 L 348.6038664565787 347.5675738399582 L 348.6097515100409 347.5605306102691 L 348.61337039452906 347.5562794464526 L 348.6194081329237 347.54931781951996 L 348.62312224578994 347.54511426989245 L 348.6293064698544 347.53824414630134 L 348.63311704783086 347.534088829229 L 348.63944095657854 347.5273197676648 L 348.64334923639746 347.5232133015136 L 348.6498054656422 347.51655445874025 L 348.6538126840357 347.5124974618764 L 348.6603933508742 347.50595753664413 L 348.66450074457447 347.50195062743364 L 348.6711974973384 347.49553780899765 L 348.6754063030777 347.4915816058067 L 348.68221037587824 347.48530352794035 L 348.68652183038864 347.481398649135 L 348.6934241015696 347.47526235011367 L 348.6978394415833 347.4714094140599 L 348.7048304951106 347.46542130319074 L 348.7093509573599 347.4616209282548 L 348.7164211462097 347.4557867593015 L 348.72104796742667 347.4520395638493 L 348.72818747811607 347.44636441547937 L 348.7329218950329 347.4426710178772 L 348.7401208121942 347.4371592813233 L 348.74496406154316 347.43352029993713 L 348.7522124318005 347.428175673652 L 348.7571657503137 347.424591726848 L 348.764453644404 347.4194172180957 L 348.76951826881356 347.4158889242399 L 348.776835841363 347.41088685713675 L 348.7820130084012 347.4074148345952 L 348.7893505544348 347.4025868643232 L 348.7946415008338 347.3991717314621 L 348.80198950857505 347.39451886400894 L 348.80461088714884 347.39289073474225 L 348.80529655124815 347.3923061928289 L 348.808591682279 347.3895214880127 L 348.81217562908296 347.3865191145175 L 348.81544634128835 347.38380272752414 L 348.81908532267454 347.38080653768986 L 348.8223328831345 347.37815539396496 L 348.82602628073664 347.3751660061577 L 348.8292519502851 347.3725771994783 L 348.83299914573723 347.3695952320641 L 348.83620417697034 347.36706601473793 L 348.8400045519063 347.36409208608296 L 348.8431901875912 347.3616198597536 L 348.84704312364494 347.35865458822394 L 348.8502105954181 347.35623689529535 L 348.8541154742235 347.353280899257 L 348.85726600162127 347.35091541483644 L 348.86122220481224 347.34796931265555 L 348.86435699444627 347.34565383709366 L 348.86836390365676 347.3427182471363 L 348.87148414867715 347.3404506989991 L 348.875541145541 347.3375262396315 L 348.87864802523166 347.33530464916834 L 348.8827544913828 347.3323919387564 L 348.8858491709324 347.3302144417848 L 348.89000448800476 347.32731409869467 L 348.8930881183919 347.3251789309015 L 348.8972916680194 347.32229157349923 L 348.90036538603164 347.32019706510687 L 348.90461654984813 347.3173233117587 L 348.9076814781573 347.3152678825721 L 348.9119796377968 347.31240835164397 L 348.91503688516275 347.3103905063968 L 348.91938142225905 347.3075458162549 L 348.9224320837653 347.30556414029127 L 348.92682237995234 347.30273490930165 L 348.9298675373139 347.30078806453724 L 348.9343029742256 347.297974911066 L 348.93734369615044 347.2960616322177 L 348.9418236554207 347.2932651746309 L 348.9448609979808 347.2913842657188 L 348.9493848612436 347.2886051223826 L 348.952419868313 347.28675545344777 L 348.95698701720215 347.2839942427282 L 348.96002072087714 347.28217474679974 L 348.96463053702655 347.2794320870629 L 348.96766395813376 347.2776417572926 L 348.97231582317744 347.2749182669046 L 348.9753499716889 347.27315615396157 L 348.98004326726067 347.27045245128846 L 348.9830791428295 347.26871766087174 L 348.9878132505633 347.2660343642797 L 348.99085184297553 347.26432605485644 L 348.9956261445053 347.2616637827114 L 348.99866843419176 347.25998116338315 L 349.0034823111513 347.25734053405137 L 349.0065292696655 347.2556828625925 L 349.01138210368885 347.25306449444 L 349.0144346941754 347.25143107548234 L 349.0193258668964 347.2488355868752 L 349.0223850446036 347.24722577020106 L 349.0273139376562 347.2446537795054 L 349.0303806503479 347.24306695851726 L 349.03534664536596 347.24051908409916 L 349.0384218338257 347.23895469435547 L 349.04342431244305 347.23643155458103 L 349.0465089108857 347.23488907248844 L 349.0515472547364 347.23239128572374 L 349.0546421912332 347.23087022732153 L 349.0597157819511 347.2283984119327 L 349.0628219788424 347.2268983317778 L 349.0679301980614 347.22445310613085 L 349.07104857237385 347.2229735962697 L 349.07619080172793 347.2205555787308 L 349.07932226548144 347.21909626780575 L 349.08449788660437 347.21670607674093 L 349.0876433472433 347.2152666291157 L 349.0928517417691 347.2129048828911 L 349.09601210242386 347.2114849979283 L 349.10125265198644 347.20915231491 L 349.1044288118159 347.2077517262794 L 349.1097008980491 347.20544872483345 L 349.11289375253193 347.2040671999078 L 349.1181967570697 347.2017944984004 L 349.1214071982062 347.20043183775056 L 349.1267405026825 347.19819005454764 L 349.1299694192974 347.19684609145065 L 349.13533240534605 347.19463584491837 L 349.1385806832502 347.19331044497926 L 349.1439727325051 347.1911323534838 L 349.14724125465256 347.1898254143083 L 349.1526617487477 347.1876800962156 L 349.1559513954357 347.1863915471123 L 349.16139971600495 347.1842796207886 L 349.16471136491947 347.1830094225773 L 349.1701868935967 347.18093150638856 L 349.1735214199591 347.1796796512096 L 349.1790235383783 347.177636363522 L 349.1823818149104 347.17640287475336 L 349.18790990470535 347.1743948339329 L 349.1912928017363 347.17317976608996 L 349.19684624454106 347.1712075905029 L 349.2002546298691 347.1700110292615 L 349.2058328073175 347.16807533727376 L 349.20926754623736 347.16689739946344 L 349.21486983996334 347.16499880944116 L 349.2183317951042 347.1638396431344 L 349.22395758674156 347.16197877344376 L 349.22744761791535 347.16083855806556 L 349.23309628909817 347.15901602707254 L 349.23661525313565 347.1578949735386 L 349.24228618549773 347.1561113996093 L 349.2458349359827 347.15500975051754 L 349.251527511158 347.1532657520181 L 349.2551068981353 347.15218378186694 L 349.2608204977577 347.15047997716346 L 349.26443136739573 347.14941799259947 L 349.2701653730991 347.147755000058 L 349.2738085673109 347.14671334014974 L 349.27956236072924 347.14509177813636 L 349.28323871670455 347.1440708146847 L 349.2890116794717 347.1424913015656 L 349.2927220291621 347.1414914394349 L 349.29851354291196 347.139954593576 L 349.3022587125134 347.13897627103125 L 349.3080681588799 347.1374827107988 L 349.31184896814216 347.1365263998918 L 349.31767572875924 347.13507674365184 L 349.3214929903362 347.134142950595 L 349.32733644683776 347.1327378167136 L 349.33119096551394 347.1318270822812 L 349.33705049953386 347.1304670891244 L 349.3409430714088 347.12957998905745 L 349.346818064581 347.1282657549915 L 349.35074947612895 347.1274029004203 L 349.35663931008736 347.12613504381113 L 349.36061033724513 347.1252970816569 L 349.3665143936236 347.12407622087073 L 349.37052580067314 347.12326383427535 L 349.3764434611057 347.12209058767814 L 349.38049599959226 347.12130449640216 L 349.3864266457127 347.12017948236013 L 349.39052105317984 347.11942044319284 L 349.39646406662206 347.11834428007194 L 349.4006010653778 347.11761308720384 L 349.40655582777583 347.1165863933703 L 349.41073612342086 347.1158838787745 L 349.41670201640846 347.1149072725944 L 349.4209262964302 347.11423430635455 L 349.4269027016414 347.1133084061939 L 349.4311716338093 347.11266589682185 L 349.43715793287794 347.1117913210467 L 349.4414721635995 347.11118021575385 L 349.44746773815945 347.11035758273044 L 349.4518278906904 347.1097788676646 L 349.45783212237575 347.10900879575894 L 349.4622387950048 347.1084634961815 L 349.46825106544924 347.1077466037597 L 349.47270482951365 347.10723578417696 L 349.4787245203512 347.10657268960506 L 349.48322591821903 347.10609745382715 L 349.4892524110836 347.1054887754713 L 349.49380195395526 347.1050502666098 L 349.49983463048073 347.10449662283605 L 349.5044327961955 347.10409602321045 L 349.5104710380158 347.103598032385 L 349.5151182686419 347.1032365633537 L 349.521161457391 347.10279484384245 L 349.5258581568494 347.1024737655246 L 349.531905674161 347.1020889356938 L 349.5366522056212 347.1018095465973 L 349.5427034331294 347.10148222481297 L 349.5475001164116 347.10124586133855 L 349.55355443575024 347.10097666596687 L 349.55840154457167 347.1007847017926 L 349.56445833737473 347.1005742511995 L 349.5693560965908 347.1004280965259 L 349.5754147444921 347.1002770090776 L 349.58036332712544 347.1001781097341 L 349.586423211759 347.10008700379666 L 349.5914227360932 347.1000368401864 L 349.59748323909275 347.1000063341259 L 349.5974845897398 347.1002746611526 L 349.6040903524204 347.1000167312629 L 349.8914424985115 347.10236755301986 L 349.8996236635776 347.1025014345826 L 350.18589737920547 347.10952957745405 L 350.1940693357473 347.1097970750751 L 350.4792269005804 347.1214660554616 L 350.48738637341916 347.12186674401624 L 350.6 347.1283194741494 L 350.6 331.99999999999994 L 350.59999999999997 331.59999999999997 L 350.59999999999997 312.4000000000005 L 350.60000000000036 312.002051102185 L 350.6003462412268 311.95984996244687 L 350.6013294191088 311.91995990818765 L 350.6029591633425 311.88032953987124 L 350.6052284096364 311.8409599068358 L 350.6081302367628 311.8018520853476 L 350.6116578637877 311.7630071869589 L 350.615804646772 311.7244263665332 L 350.62056407496885 311.6861108299454 L 350.6259297665531 311.6480618413827 L 350.63189546391357 311.610280730252 L 350.6384550285536 311.5727688976078 L 350.64560243562624 311.53552782215644 L 350.6533317681609 311.4985590657229 L 350.6616372110191 311.46186427819663 L 350.6705130446038 311.4254452020297 L 350.6799536384075 311.38930367608054 L 350.6899534443902 311.35344163903375 L 350.7005069902771 311.3178611321944 L 350.7116088727839 311.2825643017945 L 350.7232537508281 311.2475534007469 L 350.73543633876386 311.2128307898701 L 350.74815139966614 311.1783989386275 L 350.76139373870836 311.14426042536627 L 350.7751581966704 311.11041793706784 L 350.78943964359945 311.0768742686523 L 350.804232972645 311.0436323218705 L 350.81953309411267 311.01069510376436 L 350.8353349297492 310.9780657247458 L 350.8516334072663 310.94574739634635 L 350.86842345514145 310.91374342861974 L 350.88569999770516 310.8820572272373 L 350.903457950518 310.85069229032456 L 350.9216922160506 310.81965220505595 L 350.9403976796872 310.78894064401476 L 350.9595692060362 310.75856136138464 L 350.9792016355741 310.7285181889586 L 350.9992897816177 310.6988150320073 L 351.01982842759475 310.66945586507177 L 351.04081232468434 310.64044472760105 L 351.0622361897222 310.61178571960244 L 351.0840947034795 310.5834829971685 L 351.10638250921346 310.5555407680351 L 351.12909421154205 310.5279632871112 L 351.15222437560146 310.5007548520422 L 351.1757675265334 310.4739197987581 L 351.1997181492045 310.44746249713154 L 351.2240706882414 310.42138734664974 L 351.248819548308 310.3956987721903 L 351.2739590946655 310.3704012198592 L 351.2994836539454 310.3454991529666 L 351.3253875151944 310.32099704808115 L 351.35166493113405 310.2968993912217 L 351.3783101196408 310.2732106741822 L 351.4053172654229 310.2499353910083 L 351.43268052194327 310.22707803458536 L 351.4603940134823 310.2046430934291 L 351.4884518373997 310.18263504862705 L 351.5168480666026 310.16105837092454 L 351.5455767521215 310.13991751803536 L 351.57463192589495 310.1192169320953 L 351.60400760366355 310.09896103733394 L 351.63369778802394 310.07915423792747 L 351.6636964715949 310.05980091606426 L 351.69399764032755 310.0409054302018 L 351.7245952768829 310.02247211356377 L 351.75548336417285 310.0045052728166 L 351.78665588892426 309.98700918701 L 351.8181068453724 309.96998810671784 L 351.84983023901947 309.95344625341505 L 351.8818200904238 309.93738781911 L 351.91407043907884 309.92181696619656 L 351.94657534728816 309.9067378275759 L 351.979328904119 309.8921545070029 L 352.01232522931224 309.8780710797152 L 352.0455584772299 309.86449159330425 L 352.0790228407815 309.85142006885104 L 352.11271255529675 309.8388605023376 L 352.14662190240233 309.8268168663059 L 352.1807452137926 309.81529311180435 L 352.215076874936 309.8042931705979 L 352.2496113287067 309.79382095764043 L 352.2843430788779 309.7838803738261 L 352.31926669348763 309.7744753090037 L 352.3543768080754 309.76560964524873 L 352.3896681286965 309.7572872604081 L 352.4251354348277 309.7495120318757 L 352.4607735819537 309.74228784064053 L 352.49657750402224 309.7356185755458 L 352.5325422155622 309.7295081377929 L 352.5686628135803 309.7239604456464 L 352.604934479151 309.7189794393412 L 352.64135247863277 309.7145690861795 L 352.67791216464525 309.71073338577867 L 352.71460897661484 309.7074763754736 L 352.75143844094697 309.70480213584 L 352.78839617085407 309.7027147963109 L 352.82547786574145 309.7012185408691 L 352.86267931017323 309.70031761378357 L 352.90201840321447 309.7 L 353.6919191919086 309.7 L 353.6979488978095 309.7000000000001 L 353.74015003755267 309.7003462412266 L 353.780040091812 309.7013294191086 L 353.81967046012824 309.7029591633423 L 353.859040093164 309.7052284096362 L 353.8981479146518 309.70813023676254 L 353.93699281304015 309.7116578637874 L 353.9755736334664 309.71580464677186 L 354.0138891700542 309.7205640749687 L 354.0519381586175 309.725929766553 L 354.0897192697472 309.7318954639133 L 354.1272311023919 309.73845502855346 L 354.1644721778432 309.7456024356261 L 354.2014409342768 309.75333176816076 L 354.238135721803 309.761637211019 L 354.27455479797027 309.7705130446038 L 354.3106963239185 309.77995363840716 L 354.34655836096584 309.78995344439 L 354.38213886780534 309.8005069902771 L 354.4174356982034 309.81160887278327 L 354.45244659925515 309.8232537508288 L 354.48716921013136 309.8354363387644 L 354.5216010613704 309.8481513996653 L 354.55573957463247 309.8613937387078 L 354.5895820629315 309.8751581966702 L 354.62312573134875 309.8894396435999 L 354.65636767812947 309.904232972645 L 354.6893048962341 309.91953309411196 L 354.72193427525474 309.9353349297495 L 354.7542526036534 309.95163340726623 L 354.78625657138 309.96842345514136 L 354.8179427727625 309.98569999770507 L 354.8493077096752 310.0034579505179 L 354.8803477949441 310.02169221605067 L 354.91105935598455 310.04039767968675 L 354.9414386386154 310.05956920603626 L 354.97148181104103 310.07920163557395 L 355.0011849679918 310.09928978161713 L 355.03054413492924 310.1198284275955 L 355.0595552723986 310.14081232468413 L 355.08821428039596 310.1622361897211 L 355.1165170028336 310.1840947034812 L 355.14445923196365 310.20638250921246 L 355.1720367128886 310.229094211542 L 355.1992451479565 310.2522243756005 L 355.2260802012432 310.2757675265346 L 355.25253750286834 310.29971814920447 L 355.27861265335014 310.32407068824136 L 355.30430122780956 310.348819548308 L 355.32959878014066 310.37395909466545 L 355.35450084703325 310.39948365394537 L 355.3790029519187 310.42538751519436 L 355.4031006087782 310.451664931134 L 355.42678932581765 310.47831011964075 L 355.450064608992 310.5053172654234 L 355.4729219654155 310.5326805219443 L 355.4953569065694 310.56039401348056 L 355.51736495137374 310.5884518374008 L 355.538941629074 310.6168480666007 L 355.56008248196537 310.6455767521227 L 355.58078306790355 310.67463192589344 L 355.6010389626668 310.70400760366476 L 355.6208457620725 310.7336977880241 L 355.6401990839355 310.7636964715947 L 355.6590945697984 310.793997640328 L 355.67752788643594 310.82459527688246 L 355.6954947271834 310.855483364173 L 355.71299081298883 310.8866558889224 L 355.73001189328176 310.91810684537177 L 355.74655374658613 310.94983023902205 L 355.76261218088996 310.9818200904238 L 355.77818303380366 311.01407043907943 L 355.79326217242397 311.04657534728807 L 355.80784549299705 311.07932890411877 L 355.8219289202846 311.112325229312 L 355.835508406697 311.14555847723307 L 355.8485799311469 311.17902284077627 L 355.86113949766224 311.21271255529643 L 355.8731831336949 311.2466219024049 L 355.884706888195 311.2807452137911 L 355.8957068294027 311.31507687493786 L 355.9061790423593 311.3496113287061 L 355.9161196261741 311.38434307887877 L 355.9255246909969 311.41926669349 L 355.93439035475024 311.4543768080716 L 355.94271273959225 311.48966812869804 L 355.95048796812426 311.52513543482775 L 355.9577121593599 311.56077358195597 L 355.9643814244541 311.59657750402124 L 355.9704918622069 311.632542215561 L 355.9760395543536 311.66866281358034 L 355.9810205606588 311.704934479151 L 355.9854309138205 311.7413524786328 L 355.9892666142213 311.7779121646453 L 355.99252362452637 311.81460897661486 L 355.99519786416 311.851438440947 L 355.9972852036891 311.8883961708541 L 355.9987814591309 311.92547786574147 L 355.9996823862164 311.96267931017326 L 356.0 312.0020184032145 L 356.0 344.6440351488694 L 356.04451618740404 344.5831435408546 L 356.0491261541647 344.57693902054115 L 356.20368892296074 344.37223851069825 L 356.2083897068926 344.3661118290137 L 356.36603750411797 344.1638971508578 L 356.37082819628296 344.15784895897485 L 356.5315257750705 343.95815535937305 L 356.53640549890537 343.95218629960584 L 356.70011761238794 343.7550490254254 L 356.7050855225357 343.74915973494547 L 356.87177692384597 343.55461403305355 L 356.8768322047667 343.54880514749044 L 357.04646764703756 343.35688626475434 L 357.0516095114016 343.35115842167727 L 357.22415374776585 343.16190160496404 L 357.22938143464114 343.1562554472301 L 357.4047992182316 342.96969594340703 L 357.41011199106873 342.96413212237167 L 357.5883680750181 342.780305178306 L 357.5937652194434 342.7748243568845 L 357.77482435688455 342.59376521944336 L 357.78030517830604 342.588368075018 L 357.9641321223718 342.4101119910686 L 357.9696959434071 342.4047992182315 L 358.1562554472301 342.2293814346411 L 358.16190160496416 342.2241537477657 L 358.3 342.0982503191421 L 358.3 312.4060606060609 L 358.3000000000003 312.0000000000002 L 358.29998262466967 311.9958316635535 L 358.29940259727607 311.9262586762578 L 358.29926362866144 311.91792423293947 L 358.29752973014143 311.8486053941073 L 358.29725225392536 311.8402843422988 L 358.2943737597705 311.77122892742153 L 358.2939584219919 311.7629248193022 L 358.28994460769337 311.6941421038712 L 358.2893921698879 311.68585839731793 L 358.2842523109372 311.61735765682454 L 358.2835636430938 311.609097710292 L 358.2773070149823 311.5408882202276 L 358.27648308827776 311.53265528825835 L 358.26911896649676 311.46474632411434 L 358.2681608458573 311.4565435534707 L 358.2596985058982 311.38894439073835 L 358.25860734244065 311.38077481715936 L 358.2490560597948 311.31349473133014 L 358.2478330831944 311.30536127690584 L 358.23720213335315 311.2384095434711 L 358.23584864418524 311.2303150146259 L 358.22414730264 311.163700909077 L 358.22266466474093 311.1556479951479 L 358.20990220698303 311.08938079297616 L 358.2082918398725 311.0813720653704 L 358.1944775413934 311.0154610420673 L 358.1927409127969 311.00749895397496 L 358.1778840490879 310.94195338503175 L 358.1760226675981 310.93404027167713 L 358.1601325141506 310.86886943258526 L 358.15814792205913 310.86100751198313 L 358.1412337543644 310.79622067823396 L 358.1391275206979 310.7884120524355 L 358.1211986142474 310.72401849952035 L 358.11897232803136 310.7162651563039 L 358.1000379583165 310.6522741597142 L 358.09769322209564 310.64457797470675 L 358.0777626646077 310.5809988099339 L 358.07530108824227 310.5733615491249 L 358.0543836184726 310.51020349166015 L 358.051806813228 310.50262681427387 L 358.02991170666803 310.4398991396086 L 358.02722127961533 310.4323846013105 L 358.00435781175645 310.37009658493616 L 358.0015553604958 310.36264564133756 L 357.97773280682935 310.30080655874553 L 357.97481991454526 310.29342056917625 L 357.9500475505626 310.2320396958578 L 357.9470257814198 310.22471992737746 L 357.9213128826123 310.1638065388241 L 357.91818377749735 310.15655417044286 L 357.8915396193564 310.0961175421458 L 357.8883046919657 310.08893366922064 L 357.86073854998267 310.0289830766713 L 357.8573992832622 310.0218687154603 L 357.82892043292844 309.9624134341501 L 357.8254782758617 309.95536952649036 L 357.7960959926686 309.8964188319107 L 357.7925523574086 309.8894462499942 L 357.7622759168475 309.8310094176363 L 357.75863217619474 309.8241089688667 L 357.72747085375704 309.76619527422207 L 357.7237283389722 309.7593677061231 L 357.6916914101492 309.70198642468307 L 357.68785140910154 309.69523242984474 L 357.65494814938467 309.63839283710064 L 357.6510119050213 309.63171305813256 L 357.6172515899019 309.5754244295758 L 357.61322029903806 309.56881946406224 L 357.5786122040076 309.5130910751842 L 357.57448701642625 309.50656148061586 L 357.539040416976 309.45140260690783 L 357.5348224348281 309.4449489055749 L 357.4985466064494 309.39036882252833 L 357.49423688394796 309.3839915063654 L 357.45714110213225 309.3299994894717 L 357.45274064553047 309.32369902483515 L 357.41483418576905 309.27030434958556 L 357.41034395361385 309.2640811819567 L 357.3716360913982 309.21129312384267 L 357.3670569950485 309.2051476824385 L 357.32755700586983 309.1529755169514 L 357.32288991027826 309.1469082192461 L 357.2826070696281 309.0953612218772 L 357.2778527943631 309.08937247800293 L 357.2367963777328 309.03845992424374 L 357.2319556982509 309.0325501412875 L 357.19013498113173 308.9822813066293 L 357.185208630276 308.9764508927975 L 357.1426328881594 308.9268350527317 L 357.13762155788567 308.92108442138476 L 357.094300066263 308.87213085140274 L 357.08920440958457 308.8664604249529 L 357.04514644394715 308.818178400546 L 357.0399670770865 308.8125886142051 L 356.9951819129258 308.76498741086465 L 356.98991941767036 308.7594787162407 L 356.9444163304776 308.7125676094582 L 356.9390712567359 308.70714047799794 L 356.8928595220026 308.6609287432646 L 356.88743239054145 308.655583669522 L 356.84052128375885 308.6100805823293 L 356.8350125891356 308.6048180870745 L 356.7874113857952 308.56003292291376 L 356.78182159945385 308.55485355605276 L 356.7335395750469 308.51079559041534 L 356.7278691485973 308.5056999337371 L 356.67891557861526 308.4623784421144 L 356.67316494726856 308.4573671118409 L 356.6235491072028 308.4147913697243 L 356.61771869337076 308.40986501886835 L 356.56744985871256 308.3680443017492 L 356.56154007575634 308.3632036222673 L 356.51062752199715 308.32214720563695 L 356.50463877812285 308.31739293037197 L 356.453091780754 308.2771100897218 L 356.44702448304815 308.27244299412985 L 356.394852317561 308.23294300495127 L 356.38870687615764 308.2283639086021 L 356.3359188180436 308.1896560463864 L 356.3296956504142 308.18516581423086 L 356.2763009751646 308.1472593544695 L 356.27000051052835 308.1428588978679 L 356.2160084936346 308.1057631160522 L 356.2096311774717 308.10145339355074 L 356.1550510944251 308.06517756517206 L 356.1485973930922 308.06095958302416 L 356.09343851938416 308.0255129835739 L 356.0869089248161 308.0213877959928 L 356.03118053593806 307.98677970096224 L 356.02457557042396 307.982748410098 L 355.9682869418672 307.9489880949787 L 355.9616071628994 307.94505185061547 L 355.9047675701553 307.9121485908986 L 355.8980135753166 307.9083085898507 L 355.8406322938766 307.8762716610278 L 355.8338047257783 307.8725291462433 L 355.77589103113365 307.84136782380557 L 355.76899058236336 307.83772408315247 L 355.7105537500055 307.8074476425914 L 355.70358116808916 307.80390400733154 L 355.64463047350944 307.7745217241384 L 355.63758656584986 307.77107956707175 L 355.57813128453967 307.74260071673797 L 355.57101692332867 307.7392614500175 L 355.51106633077933 307.7116953080345 L 355.5038824578545 307.7084603806439 L 355.44344582955745 307.6818162225029 L 355.4361934611755 307.67868711738765 L 355.3752800726221 307.6529742185802 L 355.3679603041422 307.6499524494376 L 355.3065794308237 307.62518008545493 L 355.29919344125443 307.62226719317084 L 355.2373543586624 307.5984446395044 L 355.2299034150638 307.59564218824374 L 355.16761539868946 307.57277872038486 L 355.16010086039137 307.57008829333216 L 355.0973731857261 307.5481931867722 L 355.0897965083395 307.54561638152745 L 355.0266384508747 307.52469891175787 L 355.019001190066 307.5222373353925 L 354.95542202529305 307.50230677790455 L 354.94772584028624 307.49996204168394 L 354.8837348436966 307.481027671969 L 354.8759815004796 307.4788013857528 L 354.8115879475645 307.4608724793023 L 354.8037793217655 307.4587662456356 L 354.73899248801627 307.44185207794095 L 354.73113056741505 307.43986748584973 L 354.6659597283232 307.42397733240216 L 354.6580466149679 307.42211595091226 L 354.5925010460247 307.4072590872033 L 354.5845389579326 307.4055224586068 L 354.5186279346294 307.3917081601277 L 354.5106192070238 307.3900977930172 L 354.44435200485213 307.3773353352593 L 354.4362990909229 307.37585269736024 L 354.36968498537396 307.364151355815 L 354.3615904565288 307.3627978666471 L 354.29463872309407 307.35216691680586 L 354.2865052686694 307.3509439402054 L 354.21922518284015 307.3413926575596 L 354.2110556092616 307.3403014941021 L 354.14345644652934 307.331839154143 L 354.13525367588596 307.3308810335036 L 354.0673447117419 307.32351691172255 L 354.0591117797723 307.32269298501797 L 353.9909022897079 307.3164363569064 L 353.982642343175 307.3157476890631 L 353.9141416026816 307.3106078301124 L 353.9058578961288 307.31005539230694 L 353.8370751806978 307.30604157800843 L 353.82877107257883 307.3056262402298 L 353.7597156577015 307.3027477460749 L 353.75139460589213 307.3024702698588 L 353.68207576706 307.30073637133887 L 353.6737413237421 307.30059740272424 L 353.60416833644643 307.30001737533064 L 353.6 307.3 L 352.80808080808436 307.3 L 352.8000000000034 307.29999999999995 L 352.7958316635535 307.3000173753306 L 352.7262586762578 307.3005974027242 L 352.71792423293994 307.3007363713388 L 352.6486053941078 307.30247026985876 L 352.6402843422984 307.30274774607483 L 352.5712289274211 307.30562624022974 L 352.5629248193021 307.3060415780084 L 352.4941421038711 307.3100553923069 L 352.48585839731834 307.31060783011236 L 352.41735765682495 307.315747689063 L 352.40909771029203 307.31643635690637 L 352.3408882202276 307.3226929850179 L 352.33265528825797 307.3235169117225 L 352.26474632411396 307.33088103350354 L 352.2565435534707 307.3318391541429 L 352.18894439073836 307.34030149410205 L 352.1807748171594 307.3413926575596 L 352.11349473133015 307.35094394020547 L 352.10536127690585 307.35216691680586 L 352.0384095434711 307.3627978666471 L 352.0303150146259 307.364151355815 L 351.96370090907703 307.37585269736024 L 351.9556479951483 307.3773353352592 L 351.88938079297657 307.39009779301705 L 351.8813720653704 307.3917081601277 L 351.8154610420673 307.4055224586068 L 351.80749895397497 307.4072590872033 L 351.74195338503176 307.4221159509123 L 351.73404027167715 307.4239773324021 L 351.66886943258527 307.4398674858496 L 351.66100751198314 307.44185207794106 L 351.596220678234 307.4587662456358 L 351.5884120524355 307.4608724793023 L 351.52401849952037 307.4788013857528 L 351.5162651563039 307.48102767196883 L 351.4522741597142 307.4999620416837 L 351.44457797470676 307.50230677790455 L 351.3809988099339 307.5222373353925 L 351.3733615491249 307.5246989117579 L 351.31020349166016 307.54561638152757 L 351.3026268142743 307.5481931867721 L 351.239899139609 307.570088293332 L 351.2323846013105 307.5727787203848 L 351.1700965849362 307.5956421882437 L 351.1626456413372 307.59844463950446 L 351.10080655874515 307.62226719317096 L 351.09342056917666 307.62518008545476 L 351.0320396958582 307.64995244943736 L 351.0247199273775 307.6529742185803 L 350.9638065388241 307.6786871173878 L 350.95655417044287 307.6818162225028 L 350.8961175421458 307.7084603806437 L 350.88893366922065 307.71169530803445 L 350.8289830766713 307.73926145001747 L 350.8218687154603 307.7426007167379 L 350.7624134341501 307.7710795670717 L 350.75536952649037 307.7745217241384 L 350.6964188319107 307.80390400733154 L 350.6894462499942 307.8074476425915 L 350.63100941763634 307.83772408315264 L 350.6241089688667 307.8413678238054 L 350.5661952742221 307.8725291462431 L 350.5593677061231 307.87627166102794 L 350.5019864246831 307.90830858985095 L 350.49523242984503 307.91214859089837 L 350.43839283710093 307.9450518506152 L 350.4317130581326 307.9489880949788 L 350.3754244295758 307.98274841009817 L 350.36881946406197 307.98677970096224 L 350.31309107518393 308.0213877959928 L 350.30656148061587 308.0255129835739 L 350.25140260690785 308.06095958302416 L 350.2449489055749 308.06517756517206 L 350.19036882252834 308.10145339355074 L 350.18399150636543 308.1057631160522 L 350.1299994894717 308.1428588978679 L 350.12369902483545 308.1472593544695 L 350.07030434958585 308.18516581423086 L 350.06408118195645 308.1896560463864 L 350.0112931238424 308.2283639086021 L 350.0051476824388 308.23294300495144 L 349.9529755169517 308.27244299413 L 349.9469082192461 308.2771100897218 L 349.89536122187724 308.31739293037197 L 349.88937247800294 308.32214720563695 L 349.83845992424375 308.3632036222673 L 349.8325501412875 308.3680443017492 L 349.78228130662933 308.40986501886835 L 349.7764508927975 308.41479136972407 L 349.7268350527317 308.45736711184065 L 349.7210844213848 308.4623784421144 L 349.67213085140276 308.5056999337371 L 349.6664604249529 308.5107955904155 L 349.618178400546 308.55485355605293 L 349.6125886142051 308.5600329229136 L 349.56498741086466 308.6048180870743 L 349.55947871624073 308.6100805823297 L 349.5125676094582 308.65558366952246 L 349.50714047799795 308.6609287432642 L 349.4609287432646 308.7071404779975 L 349.4555836695222 308.7125676094584 L 349.4100805823295 308.75947871624095 L 349.4048180870743 308.76498741086465 L 349.3600329229136 308.8125886142051 L 349.35485355605294 308.818178400546 L 349.3107955904155 308.8664604249529 L 349.3056999337369 308.8721308514029 L 349.2623784421142 308.921084421385 L 349.2573671118409 308.9268350527315 L 349.2147913697243 308.9764508927973 L 349.20986501886836 308.9822813066293 L 349.1680443017492 309.0325501412875 L 349.1632036222673 309.03845992424374 L 349.12214720563696 309.08937247800293 L 349.117392930372 309.0953612218772 L 349.0771100897218 309.1469082192461 L 349.07244299412986 309.1529755169519 L 349.0329430049513 309.2051476824391 L 349.0283639086021 309.21129312384244 L 348.9896560463864 309.2640811819565 L 348.985165814231 309.27030434958573 L 348.9472593544696 309.32369902483526 L 348.9428588978677 309.3299994894719 L 348.905763116052 309.3839915063657 L 348.90145339355075 309.3903688225284 L 348.8651775651721 309.44494890557496 L 348.8609595830243 309.45140260690766 L 348.825512983574 309.50656148061563 L 348.8213877959927 309.5130910751841 L 348.78677970096214 309.5688194640622 L 348.7827484100981 309.57542442957595 L 348.7489880949788 309.6317130581327 L 348.7450518506155 309.63839283710064 L 348.7121485908986 309.69523242984474 L 348.7083085898507 309.7019864246836 L 348.6762716610277 309.75936770612367 L 348.67252914624333 309.7661952742218 L 348.6413678238056 309.8241089688664 L 348.6377240831525 309.8310094176367 L 348.6074476425914 309.8894462499946 L 348.6039040073316 309.89641883191075 L 348.5745217241385 309.9553695264904 L 348.57107956707176 309.96241343415016 L 348.542600716738 310.02186871546036 L 348.53926145001753 310.02898307667135 L 348.5116953080345 310.0889336692207 L 348.5084603806439 310.0961175421455 L 348.4818162225029 310.1565541704426 L 348.47868711738766 310.16380653882453 L 348.4529742185802 310.2247199273779 L 348.4499524494376 310.23203969585785 L 348.42518008545494 310.2934205691763 L 348.4222671931708 310.3008065587457 L 348.39844463950436 310.3626456413378 L 348.39564218824376 310.3700965849363 L 348.3727787203849 310.4323846013106 L 348.37008829333223 310.4398991396086 L 348.3481931867723 310.5026268142738 L 348.34561638152746 310.51020349166055 L 348.3246989117579 310.5733615491253 L 348.3222373353925 310.58099880993404 L 348.30230677790456 310.644577974707 L 348.2999620416839 310.6522741597139 L 348.28102767196896 310.7162651563036 L 348.27880138575284 310.72401849952035 L 348.26087247930235 310.78841205243543 L 348.2587662456356 310.79622067823453 L 348.24185207794096 310.86100751198376 L 348.23986748584974 310.868869432585 L 348.22397733240217 310.93404027167685 L 348.22211595091227 310.94195338503215 L 348.2072590872033 311.0074989539753 L 348.2055224586068 311.01546104206744 L 348.1917081601277 311.0813720653706 L 348.19009779301723 311.0893807929762 L 348.17733533525933 311.1556479951479 L 348.17585269736026 311.16370090907714 L 348.164151355815 311.23031501462606 L 348.1627978666471 311.2384095434712 L 348.15216691680587 311.30536127690596 L 348.1509439402054 311.31349473133065 L 348.1413926575596 311.3807748171599 L 348.1403014941021 311.3889443907384 L 348.131839154143 311.4565435534707 L 348.1308810335036 311.46474632411406 L 348.12351691172256 311.5326552882581 L 348.122692985018 311.5408882202277 L 348.11643635690643 311.60909771029213 L 348.1157476890631 311.61735765682505 L 348.11060783011243 311.68585839731844 L 348.11005539230695 311.69414210387123 L 348.10604157800844 311.7629248193022 L 348.1056262402298 311.7712289274212 L 348.1027477460749 311.8402843422985 L 348.1024702698588 311.8486053941079 L 348.1007363713389 311.91792423294004 L 348.10059740272425 311.92625867625793 L 348.10001737533065 311.9958316635536 L 348.1 312.0 L 348.1 352.3 L 348.1001959420101 352.30378752403885 L 348.10001435597036 352.3037889001011 Z" id="element_192" /></svg>