<?xml version='1.0' encoding='utf-8'?>
<svg xmlns:svg="http://www.w3.org/2000/svg" version="1.1" id="Layer_1" x="0px" y="0px" viewBox="0 0 500 500" style="width: 188px;" xml:space="preserve" data-imageid="moscow-46" imageName="Moscow" class="illustrations_image"><svg:style type="text/css">
	.st0_moscow-46{fill:#FFFFFF;}
	.st1_moscow-46{fill:#231F20;}
	.st2_moscow-46{fill:#68E1FD;}
	.st3_moscow-46{fill:#D1D3D4;}
</svg:style><svg:path class="st0_moscow-46" d="M 299.50768599056926 366.1587034503834 L 299.50494077920683 366.18676885908144 L 299.50279880932214 366.2149260431012 L 299.501263526094 366.24317957714123 L 299.5003389262384 366.271534320569 L 299.50000000000017 366.30271716865286 L 299.5 366.8373737373739 L 299.5 419.0 L 304.9 419.0 L 304.9 366.30271716865263 L 304.89966107376176 366.2715343205689 L 304.89873647390624 366.24317957714317 L 304.89720119067783 366.2149260430994 L 304.89505922079337 366.1867688590817 L 304.89231400943066 366.1587034503814 L 304.88896847916453 366.1307255691609 L 304.88502506217486 366.10283133274277 L 304.8804857352417 366.0750172577858 L 304.87535205700965 366.04728029010903 L 304.8696252069934 366.01961782999683 L 304.86330602580523 365.992027752965 L 304.8563950560898 365.9645084259663 L 304.8488925836793 365.9370587191318 L 304.84079867851267 365.90967801319925 L 304.8321132348761 365.88236620274955 L 304.822836010606 365.85512369558535 L 304.8129666648945 365.82795140844496 L 304.8025047944124 365.8008507593828 L 304.7914499675118 365.7738236571583 L 304.7798017562907 365.74687248790826 L 304.76755976639083 365.7200000995083 L 304.75472366441795 365.6932097839417 L 304.7412932029066 365.6665052579872 L 304.72726824280545 365.6398906425534 L 304.71264877351143 365.61337044101344 L 304.6974349304704 365.58694951678103 L 304.6816270103967 365.5606330703828 L 304.665225484229 365.53442661632926 L 304.6482310079089 365.5083359599694 L 304.63064443109073 365.48236717451704 L 304.6124668039225 365.4565265784389 L 304.59369938202934 365.4308207133485 L 304.57434362985884 365.4052563225574 L 304.5544012224764 365.3798403303171 L 304.5338740460189 365.3545798219272 L 304.5127641968926 365.32948202470556 L 304.49107397988394 365.30455428991326 L 304.468805905289 365.27980407563814 L 304.4459626851935 365.2552389306687 L 304.42254722902925 365.2308664793776 L 304.3985626385034 365.20669440759565 L 304.3740122019991 365.1827304494651 L 304.3488993885486 365.15898237526176 L 304.32322784147823 365.1354579801727 L 304.29700137174433 365.11216507394505 L 304.270223951121 365.0891114714565 L 304.2428997052231 365.0663049840981 L 304.21503290644443 365.0437534119519 L 304.18662796688415 365.02146453674396 L 304.15768943126693 364.9994461154991 L 304.12822196992926 364.9777058748848 L 304.0982303718558 364.95625150616564 L 304.0677195378622 364.93509066077974 L 304.03669447386875 364.91423094643943 L 304.0051602843536 364.8936799237684 L 303.97312216594196 364.8734451033971 L 303.9405854011952 364.85353394351614 L 303.90755535256415 364.8339538478242 L 303.87403745654206 364.8147121638566 L 303.84003721802355 364.795816181666 L 303.8055602048223 364.77727313279706 L 303.7706120424594 364.7590901895914 L 303.7351984090564 364.74127446470686 L 303.69932503052064 364.7238330109298 L 303.6629976758384 364.7067728211638 L 303.6262221526486 364.69010082866333 L 303.5890043029164 364.67382390740914 L 303.5513499988348 364.6579488726712 L 303.51326513893576 364.64248248173567 L 303.47475564430147 364.62743143473705 L 303.43582745498355 364.6128023756333 L 303.3964865266175 364.59860189330385 L 303.35673882713024 364.58483652272633 L 303.3165903336434 364.5715127462608 L 303.2760470295014 364.55863699501117 L 303.2351149014918 364.5462156502778 L 303.19379993711976 364.5342550450524 L 303.15210812208437 364.52276146559757 L 303.1100454378883 364.5117411530825 L 303.0676178595014 364.50120030525136 L 303.0248313532314 364.4911450781617 L 302.9816918746694 364.48158158795303 L 302.9382053667392 364.47251591265285 L 302.89437775791254 364.46395409402885 L 302.85021496046465 364.4559021394587 L 302.8057228688958 364.4483660238405 L 302.76090735843906 364.4413516915251 L 302.7157742836522 364.43486505826877 L 302.67032947715717 364.42891201321316 L 302.6245787484164 364.42349842087526 L 302.57852788269616 364.41863012316355 L 302.53218264004755 364.41431294139795 L 302.48554875441687 364.4105526783447 L 302.4386319329009 364.40735512026316 L 302.391437854989 364.40472603895046 L 302.3439721720437 364.40267119379894 L 302.29624050676483 364.4011963338469 L 302.2482484527875 364.4003071998306 L 302.19999999999783 364.40000951651825 L 302.15175154721237 364.40030719983037 L 302.1037594932367 364.4011963338466 L 302.05602782795296 364.4026711937989 L 302.0085621450104 364.40472603895023 L 301.9613680671033 364.4073551202627 L 301.9144512455803 364.4105526783447 L 301.8678173599531 364.41431294139767 L 301.8214721173039 364.4186301231633 L 301.7754212515835 364.4234984208751 L 301.7296705228417 364.4289120132131 L 301.6842257163505 364.43486505826814 L 301.63909264155916 364.4413516915252 L 301.59427713110256 364.44836602384055 L 301.5497850395367 364.45590213945826 L 301.5056222420891 364.4639540940284 L 301.46179463325876 364.4725159126531 L 301.4183081253301 364.481581587953 L 301.3751686467692 364.49114507816137 L 301.3323821404985 364.5012003052512 L 301.2899545621134 364.51174115308186 L 301.2478918779143 364.5227614655978 L 301.20620006288016 364.5342550450523 L 301.16488509850814 364.5462156502777 L 301.12395297049983 364.55863699501066 L 301.0834096663553 364.5715127462611 L 301.0432611728699 364.5848365227261 L 301.00351347338204 364.5986018933039 L 300.9641725450145 364.61280237563386 L 300.9252443557026 364.62743143473534 L 300.8867348610621 364.64248248173635 L 300.8486500011626 364.65794887267214 L 300.81099569708715 364.6738239074075 L 300.77377784735023 364.6901008286638 L 300.7370023241623 364.7067728211634 L 300.70067496947934 364.72383301092975 L 300.66480159094675 364.74127446470527 L 300.6293879575393 364.75909018959203 L 300.5944397951752 364.7772731327983 L 300.5599627819793 364.79581618166435 L 300.5259625434559 364.8147121638577 L 300.49244464743475 364.8339538478247 L 300.4594145988057 364.8535339435156 L 300.4268778340582 364.87344510339693 L 300.3948397156468 364.89367992376805 L 300.3633055261309 364.91423094643966 L 300.33228046213776 364.93509066077974 L 300.3017696281442 364.95625150616564 L 300.2717780300707 364.9777058748848 L 300.24231056873464 364.99944611549796 L 300.2133720331147 365.0214645367449 L 300.1849670935552 365.0437534119522 L 300.15710029477685 365.0663049840981 L 300.12977604887897 365.0891114714565 L 300.10299862825525 365.1121650739454 L 300.0767721585237 365.1354579801711 L 300.05110061145024 365.15898237526284 L 300.0259877980009 365.18273044946505 L 300.0014373614968 365.2066944075955 L 299.9774527709703 365.23086647937816 L 299.9540373148069 365.2552389306684 L 299.9311940947121 365.27980407563695 L 299.9089260201155 365.30455428991405 L 299.887235803107 365.32948202470607 L 299.86612595398134 365.35457982192696 L 299.84559877752366 365.37984033031717 L 299.8256563701412 365.4052563225575 L 299.8063006179711 365.430820713348 L 299.78753319607836 365.45652657843794 L 299.7693555689082 365.4823671745187 L 299.7517689920911 365.50833595996943 L 299.73477451577025 365.53442661633045 L 299.7183729896044 365.5606330703812 L 299.70256506952967 365.5869495167811 L 299.68735122648866 365.6133704410135 L 299.6727317571954 365.63989064255213 L 299.65870679709326 365.66650525798764 L 299.6452763355817 365.69320978394273 L 299.63244023360926 365.72000009950835 L 299.6201982437109 365.74687248790514 L 299.6085500324881 365.7738236571589 L 299.59749520558665 365.8008507593856 L 299.5870333351052 365.827951408446 L 299.5771639893939 365.8551236955859 L 299.5678867651243 365.8823662027487 L 299.55920132148765 365.9096780131986 L 299.5511074163208 365.9370587191319 L 299.5436049439103 365.9645084259664 L 299.5366939741953 365.9920277529634 L 299.53037479300633 366.0196178299986 L 299.5246479429906 366.04728029010846 L 299.51951426475847 366.075017257786 L 299.5149749378253 366.10283133274277 L 299.5110315208358 366.13072556916 L 299.50768599056926 366.1587034503834 Z" id="element_195" /></svg>