<?xml version='1.0' encoding='utf-8'?>
<svg xmlns:svg="http://www.w3.org/2000/svg" version="1.1" id="Layer_1" x="0px" y="0px" viewBox="0 0 500 500" style="width: 188px;" xml:space="preserve" data-imageid="moscow-46" imageName="Moscow" class="illustrations_image"><svg:style type="text/css">
	.st0_moscow-46{fill:#FFFFFF;}
	.st1_moscow-46{fill:#231F20;}
	.st2_moscow-46{fill:#68E1FD;}
	.st3_moscow-46{fill:#D1D3D4;}
</svg:style><svg:path class="st1_moscow-46" d="M 422.14148746416214 393.70624749949604 L 422.0717904944654 393.6517020449508 L 422.00209352476827 393.59715659040523 L 421.9323965550714 393.5426111358599 L 421.5839117065864 393.2698838631324 L 421.51421473688964 393.2153384085872 L 421.37482079749554 393.10624749949613 L 421.3051238277987 393.0517020449508 L 421.0960329187076 392.88806568131423 L 421.02633594901084 392.833520226769 L 420.7475480702228 392.61533840858704 L 420.67785110052597 392.5607929540417 L 420.5384571611318 392.4517020449506 L 420.4687601914351 392.39715659040536 L 420.1202753429501 392.12442931767794 L 420.050578373253 392.0698838631324 L 419.9808814035563 392.0153384085872 L 419.4930026156772 391.63352022676867 L 419.4233056459805 391.57897477222355 L 418.93542685810155 391.19715659040514 L 418.86572988840464 391.1426111358598 L 418.7960329187078 391.08806568131445 L 418.44754807022275 390.81533840858697 L 418.377851100526 390.76079295404173 L 418.2384571611319 390.6517020449507 L 418.16876019143507 390.59715659040535 L 417.889972312647 390.37897477222333 L 417.82027534295025 390.3244293176781 L 417.6111844338592 390.1607929540416 L 417.54148746416234 390.10624749949625 L 417.4020935247682 389.99715659040515 L 417.33239655507145 389.9426111358599 L 416.98391170658647 389.6698838631325 L 416.9142147368896 389.61533840858715 L 416.84451776719243 389.5607929540415 L 416.7748207974957 389.5062474994963 L 416.35663897931374 389.1789747722234 L 416.28694200961667 389.1244293176779 L 416.21724503991993 389.06988386313265 L 416.08213680510295 388.96414698371063 L 415.989303662308 388.8881795267291 L 415.987323950971 388.8865679046419 L 415.9842657184056 388.88409124538526 L 415.97960124509035 388.88035971332783 L 415.97653682886397 388.8779380886534 L 415.971768139688 388.8742163174334 L 415.9686969214346 388.87184910897497 L 415.96382639809883 388.8681423454843 L 415.96074775945243 388.86582893487576 L 415.95577818557337 388.86214249213214 L 415.95269150816773 388.85988226100756 L 415.9476260741297 388.8562214900155 L 415.94453073959875 388.8540138200086 L 415.9393730441011 388.8503840799629 L 415.93626843407884 388.8482283527077 L 415.93102248239035 388.8446349800057 L 415.92790797851063 388.8425305771361 L 415.92257817706036 388.83897885339064 L 415.91945316095706 388.83692515654053 L 415.91404430823013 388.83342027603464 L 415.9109081615372 388.83141666683787 L 415.90542543513703 388.82796370377565 L 415.9022775394884 388.8260095638662 L 415.8967264794932 388.8226134399308 L 415.89356621652274 388.8207081509426 L 415.8879527051083 388.8173736035346 L 415.8847794564499 388.8155165471014 L 415.87910969384967 388.8122480986658 L 415.87592284113725 388.81043865642175 L 415.8702033183791 388.80724058543996 L 415.8670022432466 388.80547813901876 L 415.8612397115677 388.8023544528664 L 415.858023795649 388.8006383839021 L 415.85222523334966 388.7975927942094 L 415.8489938582786 388.79592248433585 L 415.843166435 388.79295838497615 L 415.83991898241067 388.79133321582725 L 415.83407002147567 388.78845366395745 L 415.83080587300185 388.7868730171671 L 415.82494281232255 388.7840807175827 L 415.8216613495982 388.78254397478486 L 415.81579170148973 388.7798412677003 L 415.81249230614867 388.7783478105288 L 415.80662361666265 388.77573666296325 L 415.8033056703389 388.7742858730521 L 415.797445478643 388.771767873882 L 415.7941083629704 388.7703591328651 L 415.78826416120904 388.76793549150443 L 415.78490725782154 388.7665681810156 L 415.7790864519981 388.7642397296764 L 415.7757091425296 388.76291323134956 L 415.76991901489544 388.76068043075884 L 415.7665206809798 388.75939412622796 L 415.76076835427887 388.757257074583 L 415.75734837755004 388.75601034548197 L 415.75164078155956 388.7539687904324 L 415.7481985436515 388.7527610183951 L 415.74254238428205 388.75081437174964 L 415.73907726682853 388.74964493841003 L 415.73347899815474 388.7477922932933 L 415.72999038278977 388.7466605802852 L 415.7244561820481 388.7449007303463 L 415.72094345040557 388.7438061193037 L 415.7154791963279 388.7421375797006 L 415.71194173004176 388.7410794522574 L 415.706552984343 388.7395004819687 L 415.7029901650471 388.73847821975886 L 415.6976821574256 388.736986844968 L 415.69409336675386 388.73599982962526 L 415.6888709829654 388.73459386770236 L 415.6852556025517 388.7336414808608 L 415.68012337596866 388.7323185647495 L 415.676480787447 388.7314001880429 L 415.67144289347857 388.73015779059597 L 415.6677724784828 388.72927280565835 L 415.66283273217283 388.7281082637624 L 415.65913387233684 388.72725605222763 L 415.65429572856726 388.7261665903561 L 415.650567805525 388.72534653385804 L 415.64583436184193 388.7243292868854 L 415.64207675722724 388.723540767058 L 415.6374507590433 388.7225928021307 L 415.6336628544902 388.72183520060787 L 415.62914670227246 388.72095353787915 L 415.6253278794148 388.72022623629476 L 415.62092363777674 388.7194078684296 L 415.61707327824837 388.7187102484176 L 415.612782686664 388.71795215875903 L 415.60890017209886 388.71728360195334 L 415.60472465687354 388.7165827812603 L 415.60080936890563 388.7159426692948 L 415.5967500563309 388.715296131039 L 415.592801376594 388.71468384554765 L 415.5888591069787 388.71408863973727 L 415.58487641710684 388.7135035623539 L 415.58105175939664 388.71295678787754 L 415.5770344410236 388.7123983002361 L 415.5733277080282 388.7118971157849 L 415.56927514278806 388.7113645995193 L 415.5656864065759 388.710906233086 L 415.56159797610235 388.71039906983015 L 415.5581270835649 388.70998082686623 L 415.55400216949204 388.709498398254 L 415.5506487578901 388.70911766854067 L 415.5464867418517 388.708659356206 L 415.5432502541755 388.7083136195081 L 415.5390505178056 388.70787880508493 L 415.5359302179329 388.70756563567613 L 415.5316921428653 388.7071537007983 L 415.5286871302449 388.70687077092254 L 415.5244100981136 388.706481097224 L 415.5215193221367 388.70622617960163 L 415.51720271457555 388.70585814871635 L 415.51442498835837 388.70562911815904 L 415.51006818700125 388.7052821117208 L 415.5074022005854 388.70507694594704 L 415.50300458706624 388.70475034558984 L 415.50044892012573 388.70456712533297 L 415.49600987607846 388.7042603126907 L 415.4935630098856 388.70409722116193 L 415.48908191694414 388.70380957786847 L 415.4867422457628 388.7036648996659 L 415.482218485561 388.7033958073552 L 415.4799843273676 388.7032679268838 L 415.4754172815395 388.70301676718975 L 415.47328688806186 388.702904166661 L 415.46867593824123 388.7026703212175 L 415.4666475043973 388.7025715782955 L 415.4619920322181 388.7023544287364 L 415.4600637048543 388.7022682138833 L 415.45536309195046 388.70206714184263 L 415.4535329780304 388.7019922154245 L 415.4487866060358 388.7018066025361 L 415.44705278013737 388.70174181172945 L 415.4422600306859 388.70157103962725 L 415.44062054198616 388.7015153151783 L 415.4357807967118 388.7013587654962 L 415.4342336753549 388.7013111183676 L 415.42934631589145 388.7011681727395 L 415.4278895788685 388.70112769068345 L 415.42295398684996 388.70099773074327 L 415.4215856433396 388.70096357483 L 415.41660120039984 388.70084598221166 L 415.41531925665186 388.7008173833424 L 415.4102853444248 388.70071153967973 L 415.4090878081289 388.70068779510717 L 415.40400380824843 388.70059308203423 L 415.40288869261 388.70057355191466 L 415.3977539867101 388.7004893510652 L 415.396719313935 388.7004734550541 L 415.39153328364955 388.70039914806216 L 415.390577088265 388.70038636197586 L 415.3853391152278 388.7003213304753 L 415.38445944689545 388.70031118302506 L 415.3791689127405 388.70025480864973 L 415.3783638388161 388.70024687826253 L 415.3730201251773 388.70019854264643 L 415.37228773300535 388.70019245438 L 415.36689022151666 388.70015153915693 L 415.3662286203552 388.70014696171404 L 415.3607766926504 388.700112848518 L 415.3601840154613 388.7001094913686 L 415.35467705317444 388.7000815618335 L 415.3541514580869 388.7000791724443 L 415.3481285144472 388.7000551693813 L 415.3421127783562 388.700036679415 L 415.3361018720857 388.70002293014494 L 415.3300934471458 388.70001317721784 L 415.32408518492 388.7000067021227 L 415.31807479713825 388.70000281009675 L 415.3120600262089 388.7000008281394 L 415.3060386455499 388.7000001031341 L 415.29999999999995 388.7 L 350.69998316382663 388.70000000028347 L 350.69682370613475 388.7000001164217 L 350.6935106648307 388.7000009193162 L 350.69005015261814 388.70000312959394 L 350.6864477383923 388.70000750696727 L 350.68270851044775 388.7000148440636 L 350.6793602641855 388.700024222616 L 350.67883713053607 388.7000259616042 L 350.6754350864239 388.70003905035315 L 350.6748378806788 388.70004170465853 L 350.6713832754489 388.70005912197007 L 350.6707147034333 388.7000629397626 L 350.6672087738178 388.70008530400287 L 350.66647123704763 388.70009055273124 L 350.6629152197787 388.70011848226636 L 350.66211084587553 388.700125447035 L 350.6585059776854 388.70015956023104 L 350.6576366469725 388.70016854263713 L 350.65398416459334 388.7002094578602 L 350.6530515333676 388.7002207752083 L 350.6493526735316 388.7002691108245 L 350.64835819442476 388.7002830956547 L 350.64461419386413 388.70033947003 L 350.6435591337042 388.7003564699082 L 350.63977122915105 388.7004215014088 L 350.6386566848232 388.70044187893546 L 350.63482611300975 388.7005161859274 L 350.6336530252207 388.7005403189384 L 350.6297810228792 388.7006245197878 L 350.62855018851525 388.70065280171445 L 350.62463799237776 388.70074751478745 L 350.62335007535546 388.7007803551601 L 350.61939892215423 388.7008861988227 L 350.6180544629945 388.7009240239028 L 350.61406558946175 388.7010416165212 L 350.61266501390963 388.70108487004427 L 350.6086396567774 388.70121482998445 L 350.60718328331694 388.7012639740118 L 350.60312267931755 388.70140691963985 L 350.60161072594593 388.7014624355064 L 350.5975161118115 388.70161898518853 L 350.59594870208946 388.7016813745427 L 350.59182131455225 388.7018521466449 L 350.5901984828957 388.7019219325821 L 350.5860395586878 388.7021075454705 L 350.5843612552023 388.70218527374993 L 350.5801720310559 388.7023863457906 L 350.5784381257767 388.7024725861422 L 350.574219838424 388.7026897357013 L 350.5724301251693 388.702785083217 L 350.56818401134257 388.7030189286605 L 350.5663382110894 388.70312400527655 L 350.56206550752063 388.7033751649706 L 350.56016327151684 388.70349062103554 L 350.5558652149384 388.70375971334624 L 350.55390612743275 388.70388622928357 L 350.54958395457675 388.70417387257703 L 350.5475675353234 388.7043121606398 L 350.54322248292203 388.7046189732821 L 350.5411481894089 388.70476977940723 L 350.5367814941943 388.7050963797644 L 350.53464872367795 388.7052604855273 L 350.5302616223824 388.7056074919655 L 350.52806971377134 388.7057857166368 L 350.5236634431269 388.7061537475221 L 350.5214116786305 388.7063469502412 L 350.51698747536943 388.7067366239397 L 350.51467508214176 388.7069457059911 L 350.51023418299627 388.7073576408689 L 350.5078603345686 388.7075835480853 L 350.50340397627076 388.7080183625085 L 350.50096779391976 388.7082620877975 L 350.49649721320185 388.70872040013217 L 350.4939977673505 388.7089829861203 L 350.4895142009447 388.7094654147325 L 350.486950512387 388.70974795655695 L 350.48245519702544 388.7102551198128 L 350.47982623825357 388.7105587680387 L 350.4753204106684 388.7110912843043 L 350.47262510713216 388.7114172479926 L 350.4681100040557 388.71197573563404 L 350.4653472355112 388.71232528554975 L 350.46082409367557 388.7129103629331 L 350.45799269550054 388.71328483491607 L 350.45346275163786 388.71389712040747 L 350.4505615163414 388.71429791888335 L 350.44602600718395 388.7149380308488 L 350.44305368588726 388.71536663251686 L 350.43851384816713 388.71603518932255 L 350.43546915231093 388.7164931469919 L 350.4309262227603 388.7171907670039 L 350.4278078259036 388.7176797136037 L 350.42326304125476 388.718407015188 L 350.4200695810766 388.71892866793945 L 350.4155241780616 388.7196862694623 L 350.41225425857226 388.72024243421856 L 350.4077094739234 388.721030954046 L 350.4043616679314 388.72162352979404 L 350.3998187383809 388.72244358629206 L 350.39639159016224 388.7230745698305 L 350.3918517524421 388.72392678136526 L 350.38834378083897 388.7245982721202 L 350.38380827168146 388.7254832570579 L 350.38021797347847 388.72619746206215 L 350.3756880296158 388.72711583876867 L 350.3720138832571 388.7278750777942 L 350.3674907414215 388.7288274646358 L 350.3637312113312 388.72963417542235 L 350.3592161082547 388.730621190765 L 350.355369649415 388.7314779344082 L 350.35086382182993 388.7325001966181 L 350.3469288851048 388.73340966300725 L 350.3424335697432 388.7344677904504 L 350.3384086076086 388.7354328038144 L 350.33392504120275 388.73652741485694 L 350.3298085142354 388.7375509393239 L 350.3253379335175 388.738682652332 L 350.3211283175304 388.73976779750546 L 350.3166719592326 388.7409372308451 L 350.31236775313516 388.74208725735133 L 350.3079268539896 388.7432950293886 L 350.30352658852524 388.74451335432457 L 350.2991023852642 388.7457600834256 L 350.294604632583 388.7470502856749 L 350.2901983619386 388.7483365902058 L 350.2856017461503 388.74970241553785 L 350.2812146448547 388.7510289138647 L 350.2765178535467 388.7524742797614 L 350.2721511583321 388.7538415902502 L 350.2673529552159 388.75537059034605 L 350.26300790281454 388.75677933136296 L 350.25810714146826 388.7583962394283 L 350.25378496861225 388.7598470293395 L 350.24878060750495 388.76155630265447 L 350.24448255092653 388.7630497598259 L 350.23937366957864 388.7648560418872 L 350.23510096600995 388.766392784685 L 350.229886782622 388.76830090701117 L 350.2256406687952 388.7698815538015 L 350.2203205591319 388.7718965367666 L 350.2161022717792 388.77352170591547 L 350.2106757894938 388.77564875838857 L 350.2064865653474 388.7773190682621 L 350.20095346372625 388.77956358587727 L 350.19679453951835 388.78127965484157 L 350.19115479466655 388.7836472166861 L 350.1870274071293 388.7854096631073 L 350.1812812425632 388.78790602661377 L 350.17718662842884 388.7897154688578 L 350.17133454100883 388.79234656267613 L 350.16727393700944 388.7942036191093 L 350.16131672430237 388.7969755336382 L 350.15729136717016 388.7988808226264 L 350.15123015587375 388.80179979805877 L 350.147241282341 388.8037539379682 L 350.14107755796886 388.80682634942406 L 350.1371264047676 388.80882995862083 L 350.13086204209924 388.8120622982354 L 350.12694984596175 388.8141159950855 L 350.1205871402414 388.8175148506731 L 350.11671513789986 388.8196192535427 L 350.1102568364843 388.82319128356625 L 350.1064262646709 388.8253470108215 L 350.09987559868284 388.82909891545967 L 350.09608769412966 388.83130658546656 L 350.0894484098149 388.83524507348795 L 350.0857044092543 388.83750530461253 L 350.0789807985768 388.84163705584393 L 350.07528193874083 388.84395046645244 L 350.06847886868223 388.8482820896717 L 350.0648263863031 388.8506492981302 L 350.0579493262016 388.8551872843133 L 350.0543444580115 388.8576089089877 L 350.0473995043706 388.8623595798106 L 350.0438434871017 388.8648362390672 L 350.03683738515775 388.86980569068805 L 350.0333314555423 388.87233800289283 L 350.0262716166638 388.87753204525575 L 350.02281701143386 388.8801206287749 L 350.0157115257263 388.88554472055836 L 350.0123094816141 388.88819019375785 L 350.0051671247119 388.89384937346784 L 350.0018188784496 388.89655235471383 L 349.9946491117555 388.9024511683608 L 349.9913559000754 388.90521227601937 L 349.9841688634885 388.91135470214243 L 349.9809319231227 388.9141745545797 L 349.97511505422347 388.91934118075943 L 349.7827549600802 389.0698838631325 L 349.71305799038316 389.12442931767794 L 349.643361020686 389.1789747722235 L 349.2251792025044 389.5062474994961 L 349.15548223280723 389.5607929540417 L 349.08578526311044 389.61533840858704 L 349.01608829341325 389.6698838631326 L 348.66760344492866 389.94261113585975 L 348.59790647523147 389.9971565904053 L 348.4585125358377 390.10624749949613 L 348.3888155661405 390.1607929540417 L 348.17972465704986 390.3244293176779 L 348.11002768735267 390.3789747722235 L 347.831239808565 390.59715659040523 L 347.7615428388678 390.6517020449508 L 347.6221488994741 390.76079295404156 L 347.5524519297769 390.81533840858714 L 347.20396708129226 391.08806568131433 L 347.1342701115953 391.14261113585974 L 347.0645731418981 391.1971565904053 L 346.5766943540197 391.57897477222326 L 346.50699738432235 391.63352022676895 L 346.01911859644383 392.015338408587 L 345.9494216267468 392.0698838631325 L 345.8797246570496 392.12442931767805 L 345.53123980856503 392.3971565904052 L 345.46154283886784 392.45170204495076 L 345.3221488994741 392.5607929540416 L 345.2524519297769 392.61533840858715 L 344.97366405098927 392.8335202267688 L 344.9039670812921 392.8880656813144 L 344.69487617220136 393.0517020449507 L 344.62517920250417 393.10624749949625 L 344.4857852631105 393.215338408587 L 344.4160882934133 393.2698838631326 L 344.06760344492864 393.5426111358598 L 343.99790647523145 393.59715659040535 L 343.9282095055347 393.65170204495064 L 343.8585125358375 393.7062474994962 L 343.61093989630496 393.90000000000003 L 347.4751890211549 393.90000000000003 L 347.4964487554693 393.883325698577 L 347.5479639069847 393.84292165817277 L 347.5994790584996 393.8025176177689 L 347.80553966456046 393.64090145615256 L 347.85705481607533 393.6004974157487 L 348.11463057365137 393.3984772137283 L 348.16614572516625 393.35807317332444 L 348.4237214827423 393.15605297130406 L 348.47523663425716 393.1156489309002 L 348.7328123918332 392.9136287288798 L 348.78432754334807 392.87322468847594 L 349.0419033009241 392.67120448645557 L 349.093418452439 392.6308004460517 L 349.350994210015 392.4287802440313 L 349.4025093615299 392.38837620362744 L 349.60856996759077 392.2267600420111 L 349.66008511910564 392.18635600160724 L 349.9176608766817 391.98433579958686 L 349.96917602819656 391.943931759183 L 350.02069117971143 391.9035277187792 L 350.0722063312269 391.86312367837496 L 350.2267517857726 391.74191155716267 L 350.27826693728747 391.7015075167588 L 350.5358426948635 391.4994873147384 L 350.5873578463784 391.45908327433455 L 350.8449336039544 391.25706307231417 L 350.8964487554693 391.2166590319103 L 351.15402451304533 391.0146388298899 L 351.17268902115495 391.0 L 414.927310978845 391.0 L 414.94597548695486 391.0146388298901 L 415.20355124453044 391.2166590319101 L 415.2550663960458 391.25706307231434 L 415.51264215362136 391.4590832743344 L 415.5641573051367 391.4994873147386 L 415.82173306271227 391.7015075167586 L 415.8732482142276 391.74191155716284 L 416.02779366877337 391.8631236783752 L 416.07930882028825 391.90352771877895 L 416.1308239718032 391.9439317591828 L 416.1823391233185 391.98433579958703 L 416.4399148808941 392.18635600160707 L 416.4914300324094 392.2267600420113 L 416.69749063846984 392.3883762036273 L 416.7490057899852 392.4287802440315 L 417.00658154756076 392.6308004460515 L 417.0580966990761 392.67120448645574 L 417.31567245665167 392.8732246884758 L 417.367187608167 392.91362872888 L 417.6247633657426 393.1156489309 L 417.6762785172579 393.15605297130423 L 417.9338542748335 393.35807317332427 L 417.9853694263488 393.3984772137285 L 418.19143003240924 393.5600933753445 L 418.2429451839246 393.6004974157487 L 418.50052094150016 393.80251761776873 L 418.5520360930155 393.84292165817294 L 418.60355124453093 393.8833256985772 L 418.62481097884506 393.90000000000003 L 422.389060103695 393.90000000000003 L 422.14148746416214 393.70624749949604 Z" id="element_305" /></svg>