<?xml version='1.0' encoding='utf-8'?>
<svg xmlns:svg="http://www.w3.org/2000/svg" version="1.1" id="Layer_1" x="0px" y="0px" viewBox="0 0 500 500" style="width: 188px;" xml:space="preserve" data-imageid="moscow-46" imageName="Moscow" class="illustrations_image"><svg:style type="text/css">
	.st0_moscow-46{fill:#FFFFFF;}
	.st1_moscow-46{fill:#231F20;}
	.st2_moscow-46{fill:#68E1FD;}
	.st3_moscow-46{fill:#D1D3D4;}
</svg:style><svg:path class="st1_moscow-46" d="M 231.3028728168165 236.04647838063107 L 231.25827553288647 236.46071327111326 L 231.2580839200655 236.46252401019092 L 231.2152019836727 236.8749322472395 L 231.21501494205643 236.87676385795817 L 231.173849589933 237.2873553354306 L 231.1736673341795 237.2892079279028 L 231.13421980305765 237.69799253965647 L 231.1340425523342 237.69986621960305 L 231.09631407894608 238.1068538594955 L 231.09614205692554 238.10874872801924 L 231.0601338780034 238.5139492899079 L 231.05996731285498 238.51586544326221 L 231.02568066513092 238.91928882100453 L 231.02551978950459 238.92122635035756 L 230.99295590971082 239.32288243781102 L 230.99280096071595 239.32484142900444 L 230.96196108558468 239.72474012002647 L 230.96181230476176 239.72672065333023 L 230.93269767102515 240.12487184177832 L 230.93255530431057 240.12687399164076 L 230.9051671487008 240.52328757137238 L 230.90503144638453 240.52531140616614 L 230.8793710056338 240.9199972710387 L 230.87924222230947 240.9220428528026 L 230.85531073314993 241.3150108966736 L 230.85518912765716 241.31707828085086 L 230.832987826821 241.7083383975778 L 230.83287366217942 241.7104276327505 L 230.81240378639887 242.09998971619075 L 230.8122973297337 242.10210084381126 L 230.7935601157409 242.48997478782232 L 230.7934616381999 242.49210784194167 L 230.77645832272702 242.87830354038104 L 230.7763680993881 242.8804585473747 L 230.76109991916735 243.26498589409977 L 230.76101822893696 243.2671628723911 L 230.74748642070054 243.65003176125938 L 230.74741354620238 243.65223072104124 L 230.73561934668243 244.03345104591017 L 230.7355555741361 244.0356719888651 L 230.72550022006482 244.41525364359214 L 230.72544583915416 244.41749656261118 L 230.71713056726375 244.7954494410538 L 230.71708587099485 244.7977143199551 L 230.71051191801746 245.17404831597077 L 230.7104772025657 245.17633512921805 L 230.70564580523356 245.5510601366642 L 230.70562136977972 245.5533688490849 L 230.70253376482495 245.92649476181901 L 230.70251991138002 245.92882532832473 L 230.70117733553485 246.30036204020428 L 230.7011743687534 246.30271440551115 L 230.70157805875 246.67267181039358 L 230.70158628573185 246.6750459087462 L 230.70373747830237 247.04343390048894 L 230.70375720838254 247.04582965538586 L 230.70765714025922 247.4126581278464 L 230.70768868478564 247.41507545176972 L 230.7133385927006 247.78035429880552 L 230.71338226480015 247.7827930929544 L 230.72078338548565 248.1465322084229 L 230.72083949981746 248.14899236245145 L 230.7299930700056 248.51120164021017 L 230.7300619425026 248.51368303197154 L 230.74096919892563 248.8743723658779 L 230.74105114652338 248.87687486117383 L 230.75371332591342 249.2360541450853 L 230.753808666267 249.23857759742341 L 230.7682270053563 249.59625672519743 L 230.7683360565445 249.59880097555563 L 230.78451179206522 249.95498984104967 L 230.7846348722831 249.95755471764977 L 230.8025692409674 250.31226321472127 L 230.802706668206 250.31484853281185 L 230.82240090678607 250.66808655531833 L 230.82255299850104 250.67069211696764 L 230.84400834370905 251.02246955876652 L 230.84417541647665 251.02509515266703 L 230.8673931050448 251.37542190761576 L 230.867575474207 251.37806730890037 L 230.8925567428675 251.72695327085643 L 230.89275472216562 251.72961824092766 L 230.9195008076506 252.0770733037485 L 230.91971470884803 252.0797575901218 L 230.9482268478897 252.42579164766488 L 230.94845698038418 252.4284949838259 L 230.97873640971474 252.7731179299487 L 230.97898308014024 252.77584003522696 L 231.01103103649183 253.11906176378693 L 231.01129454831127 253.12180234324535 L 231.0451122684161 253.46363274809994 L 231.0453929215046 253.46639149244186 L 231.08098164209486 253.80684046744852 L 231.0812797323147 253.80961705294283 L 231.11864069012253 254.14869449195902 L 231.11895650889008 254.15148858038458 L 231.15809094064772 254.4892043772678 L 231.15842477449323 254.49201561587702 L 231.19933391693283 254.82837966448474 L 231.19968604705394 254.83120768598863 L 231.24237113690768 255.16622988017824 L 231.24274183871708 255.16907430275225 L 231.28720411271715 255.50276453638128 L 231.28759365538554 255.5056249636934 L 231.33383435026414 255.83799313061925 L 231.33424299625926 255.8408691518809 L 231.38226334874855 256.1719251459611 L 231.3826913533714 256.17481633600175 L 231.43249260020355 256.5045700510937 L 231.43294021112243 256.5074759704594 L 231.48452358902966 256.83593730042054 L 231.4849910458135 256.83885749549654 L 231.53835779152794 257.1660363341844 L 231.53884532517972 257.16897033734415 L 231.56613954204678 257.3302602348109 L 231.591496130624 257.35746845049516 L 231.59345684404303 257.35958454884707 L 231.69174438221427 257.46627702199197 L 231.69371930132576 257.46843344361787 L 231.79065570958753 257.5749020682377 L 231.79264439636975 257.5770993580009 L 231.888235858383 257.6833490810244 L 231.89023784769867 257.6855877739097 L 231.98449054712432 257.79162354226565 L 231.9865053461578 257.7939041620684 L 232.07942546665672 257.8997309226854 L 232.0814525543875 257.902053980646 L 232.17304627962068 258.00767668045296 L 232.17508510633357 258.0100426738333 L 232.26535861996183 258.1154662597589 L 232.26740860680178 258.1178756703649 L 232.3563680924861 258.2231050893379 L 232.3584286310601 258.225558381987 L 232.44608027246136 258.330598580936 L 232.4481507244942 258.33309620187333 L 232.53450070527333 258.4379521277271 L 232.5365804023198 258.4404945029896 L 232.6216349061377 258.54517110267693 L 232.62372314935843 258.54775863641044 L 232.707488359876 258.65226085686004 L 232.7095844198809 258.65489392958983 L 232.79206652075908 258.75922671773037 L 232.79416963752448 258.76190568459083 L 232.87537481242418 258.8660739873511 L 232.8774841952875 258.86879917627556 L 232.95741862786963 258.9728079405843 L 232.95953345560812 258.9755796504609 L 233.0382033295336 259.0794338232468 L 233.04032275053194 259.08225232204506 L 233.11773424946165 259.1859568502369 L 233.11985738197322 259.18882237310976 L 233.1960166895681 259.29238220363624 L 233.19814262207498 259.2952949510032 L 233.27305592199593 259.398715030793 L 233.27518371367262 259.40167516641134 L 233.34885718958054 259.50496044239327 L 233.3509858708656 259.5079680914234 L 233.42342570642145 259.61112351052617 L 233.42555427970188 259.6141787575991 L 233.49676665856654 259.7172092667514 L 233.49889409897824 259.7203121540467 L 233.56888520481263 259.8232227001774 L 233.5710104611601 259.8263732255173 L 233.63978647762514 259.9291687555549 L 233.6419084734259 259.93236687052894 L 233.70947558418248 260.03505233140237 L 233.71159321883468 260.03829793952457 L 233.77795760754373 260.14087827816246 L 233.78006975762327 260.14417123307845 L 233.8452376079457 260.24665139640956 L 233.84734312863142 260.24999150015793 L 233.91132062422813 260.35237643511095 L 233.9134183508565 260.35576343645243 L 233.9762116753884 260.4580580899561 L 233.97830042513877 260.46149168278083 L 234.03991576226682 260.56370100176395 L 234.0419943359745 260.567180823587 L 234.10243786935956 260.6693097549783 L 234.10450505345676 260.6728353855358 L 234.16378296675978 260.7748888762639 L 234.16583753534164 260.7784598362207 L 234.2239560122235 260.8804428332144 L 234.2259967292346 260.88405858299393 L 234.28296195335622 260.985976033182 L 234.2849875748942 260.9896359719294 L 234.3408057299165 261.09149282224047 L 234.34281500664832 261.09519628693187 L 234.39749227623224 261.19699748429474 L 234.39948395591463 261.2007437490008 L 234.45302652372106 261.3024942403442 L 234.45499935381955 261.3062825156597 L 234.50741340350936 261.40798724791233 L 234.50936613390638 261.41181668056004 L 234.56065784914057 261.51348060065067 L 234.56258923492555 261.51735027327254 L 234.61276479936495 261.61897832812986 L 234.61467360369278 261.6228872592677 L 234.66373920099835 261.72448439582047 L 234.6656241980086 261.7284315400998 L 234.71358601184124 261.83000270527674 L 234.71544598962353 261.83398695379606 L 234.76231020364418 261.93553709452584 L 234.76414396723897 261.9395572754605 L 234.80991676510848 262.04109133867195 L 234.81172313952771 262.04514621809307 L 234.85641070490703 262.1466691507149 L 234.85818853816284 262.1507574336303 L 234.9017970547129 262.2522741825912 L 234.9035452208379 262.2563945142094 L 234.94608087221962 262.3579100264381 L 234.94779827426456 262.3620609936535 L 234.98926724413877 262.4635802160787 L 234.9909528171316 262.46776034917985 L 235.03136128915932 262.5692882287304 L 235.0330140030113 262.5734960033297 L 235.07236816085336 262.67503748693423 L 235.0739870231945 262.67927132611123 L 235.11229305051185 262.7808313606985 L 235.1138771094423 262.78508963735595 L 235.15114118989584 262.8866731698547 L 235.15268953663616 262.8909542092775 L 235.18891785388684 262.99256618661644 L 235.19042962531327 262.9968682692279 L 235.22562836302197 263.09851363833576 L 235.2271027440711 263.1028350026378 L 235.2612780858987 263.2045187104433 L 235.26271431182846 263.2088575561326 L 235.29587244143593 263.3105845495645 L 235.2972697999298 263.3149390408114 L 235.32941690097803 263.41671426679846 L 235.3307747340791 263.42108253567255 L 235.36191699022902 263.52291094114344 L 235.36323469609437 263.5272910911755 L 235.39337829100688 263.629177623059 L 235.39465532547055 263.6335677329183 L 235.42380644280652 263.7355173381431 L 235.42504232074282 263.73991546541566 L 235.45320714416323 263.8419330909105 L 235.45440144064366 263.8463372759626 L 235.48158615380942 263.94842786865615 L 235.48273850504543 263.95283613856066 L 235.5089492916174 264.05500464538176 L 235.51005939568503 264.05941501789044 L 235.53530243932417 264.1616663857678 L 235.53637005666806 264.16607687331367 L 235.56065154103524 264.268416049176 L 235.56167649474864 264.2728246628795 L 235.58500260350482 264.3752565936554 L 235.585984779387 264.37966134732375 L 235.60836169619304 264.4821909799422 L 235.60930104258404 264.486589894034 L 235.6307349511009 264.5892221754236 L 235.63163147849755 264.5936132809693 L 235.65212856238614 264.6963531580587 L 235.6529823428429 264.7007345005111 L 235.6725487857641 264.8035869202292 L 235.67335995208427 264.8079565632296 L 235.69200193769902 264.91092647250497 L 235.69182482083306 264.9109585382812 L 235.69269007416005 264.91481496126556 L 235.71077223234016 265.01939787849005 L 235.711346480854 265.0227886143845 L 235.72919798848204 265.1304429559844 L 235.72974701392667 265.13382567026747 L 235.74732087517975 265.2445007302232 L 235.7478457609988 265.2478809222351 L 235.765094980054 265.36152599452726 L 235.76559656650173 265.3649085797698 L 235.78247414753602 265.48147295837884 L 235.7829530655633 265.4848623573093 L 235.7994120127538 265.6042953362158 L 235.79986871142378 265.6076955473469 L 235.81586202894755 265.72994642053135 L 235.81629679772726 265.73336108093963 L 235.83177748976138 265.85837914238255 L 235.832190476726 265.86181157804367 L 235.8471115474475 265.9895461217256 L 235.8475027741999 265.9929993895721 L 235.86181722778588 266.12339970947346 L 235.86218660171997 266.1268766326779 L 235.87584744234744 266.25989202277935 L 235.87619476674922 266.2633952204511 L 235.88915499859527 266.39897497473305 L 235.88947998097433 266.4025068869878 L 235.90169260821605 266.54060029943076 L 235.90199486718095 266.54416320859787 L 235.91341289399534 266.68471957318235 L 235.91369196492494 266.688315621772 L 235.92426839548912 266.8312842324786 L 235.92452373520462 266.83491543841654 L 235.93421157369565 266.9802455892258 L 235.93444256429973 266.9839138587654 L 235.94319481489464 267.1315548436576 L 235.9434007669153 267.13526198230966 L 235.9511704337912 267.2851630952656 L 235.95135058874317 267.2889108170247 L 235.95809067607706 267.44102135202473 L 235.9582442085362 267.4448112871217 L 235.9639077205052 267.5990805381464 L 235.96403373977512 267.60291423951963 L 235.96857368055626 267.75929150054947 L 235.96867123199505 267.7631704491926 L 235.9720406057654 267.9216050142081 L 235.9721086718307 267.92553062352727 L 235.97426048276733 268.085971786509 L 235.97429798383004 268.0899454058014 L 235.97518523611 268.25234246072984 L 235.97519103108053 268.2563653778758 L 235.9748201019575 268.40000000000003 L 246.1919916773229 268.40000000000003 L 246.1848880202525 268.36998680952655 L 246.15137408589226 268.2259031533152 L 246.11777899874355 268.078971517998 L 246.08411279637394 267.92921567920865 L 246.05038538918288 267.7766591534953 L 246.0166065743446 267.621325222962 L 245.98278604793921 267.4632369569849 L 245.9489334156111 267.30241723173225 L 245.91505820190156 267.13888874748915 L 245.88116985847844 266.9726740442377 L 245.84727777139008 266.80379551560037 L 245.81339126747415 266.6322754213381 L 245.7795196200589 266.4581358987113 L 245.74567205398628 266.28139897251515 L 245.71185775013433 266.10208656441364 L 245.67808584939746 265.9202205011086 L 245.64436545628504 265.7358225219649 L 245.61070564211647 265.548914285792 L 245.5771154478996 265.3595173770787 L 245.54360388690358 265.16765331159553 L 245.5101799469916 264.97334354160154 L 245.4768525927031 264.7766094604807 L 245.44363076715663 264.57747240711393 L 245.41052339373894 264.3759536696952 L 245.3775393776758 264.1720744894778 L 245.34468760741512 263.9658560639612 L 245.31197695589933 263.7573195499179 L 245.27941628174023 263.54648606629183 L 245.24701443026137 263.33337669669663 L 245.21478023444757 263.1180124917091 L 245.18272251584472 262.90041447120626 L 245.1508500853503 262.6806036263181 L 245.11917174393108 262.4586009211897 L 245.08769628331913 262.23442729488323 L 245.05643248660505 262.0081036628266 L 245.02538912881997 261.7796509184273 L 244.9945749774369 261.5490899343294 L 244.9639987928592 261.31644156378223 L 244.9336693288485 261.08172664175675 L 244.90359533293966 260.8449659861422 L 244.8737855467996 260.60618039867893 L 244.84424870658088 260.36539066600545 L 244.81499354323105 260.1226175605034 L 244.78602878278875 259.8778818411689 L 244.75736314664653 259.63120425433715 L 244.7290053518159 259.3826055345503 L 244.70096411113911 259.1321064050819 L 244.67324813351135 258.87972757865344 L 244.64586612408814 258.62548975812894 L 244.61882678444613 258.36941363687737 L 244.59213881277768 258.11151989953794 L 244.56581090402415 257.851829222294 L 244.53985175004433 257.5903622735653 L 244.51427003973194 257.3271397142819 L 244.48907445914745 257.0621821983655 L 244.46427369163476 256.79551037313496 L 244.43987641793285 256.52714487972406 L 244.41589131625736 256.2571063532392 L 244.3923270624187 255.98541542337827 L 244.3691923298845 255.7120927144887 L 244.34649578987396 255.43715884604794 L 244.32424611141826 255.16063443279455 L 244.30245196143673 254.88254008510614 L 244.2811220047996 254.60289640926706 L 244.26026490437184 254.32172400753853 L 244.23988932108352 254.0390434786258 L 244.22000391396088 253.75487541766478 L 244.20061734018594 253.46924041665307 L 244.18173825512045 253.18215906441574 L 244.16337531235584 252.89365194699243 L 244.14553716373703 252.60373964768362 L 244.12823245939657 252.3124427472893 L 244.11146984777906 252.0197818242444 L 244.09525797566297 251.72577745474288 L 244.07960548818735 251.43045021299523 L 244.06452102886036 251.1338206711998 L 244.05001323958527 250.83590939988323 L 244.03609076066127 250.53673696778992 L 244.02276223080725 250.23632394228025 L 244.0100362871563 249.9346908891591 L 243.9979215652739 249.63185837305727 L 243.98642669915347 249.32784695735504 L 243.97556032122216 249.02267720437584 L 243.9653310623384 248.71636967542844 L 243.95574755179345 248.40894493100592 L 243.9468184173034 248.1004235307614 L 243.9385522850057 247.79082603366132 L 243.93095777945112 247.48017299805636 L 243.92404352359574 247.1684849818135 L 243.91781813878717 246.85578254227977 L 243.91229024475513 246.5420862364913 L 243.90746845959586 246.22741662119867 L 243.90336139975514 245.9117942528576 L 243.89997143761934 245.59465569790854 L 243.89975626267898 245.59101957803864 L 243.89991929288124 245.59101664845053 L 243.8944865373284 245.28868635452466 L 243.89027368175715 244.98674582424263 L 243.88724855947672 244.6841893605823 L 243.88539731473145 244.3810309056639 L 243.88470608046293 244.07728439873287 L 243.88516097862586 243.77296377604623 L 243.88674812049774 243.46808297057711 L 243.8894536069837 243.16265591188784 L 243.89326352891516 242.8566965259821 L 243.89816396734358 242.55021873510293 L 243.90414099382653 242.2432364576595 L 243.9111806707102 241.935763608031 L 243.91926905140247 241.62781409653124 L 243.92839218064418 241.3194018292073 L 243.9385360947697 241.01054070782155 L 243.94968682196412 240.7012446297374 L 243.96183038251417 240.39152748781785 L 243.9749527890519 240.08140317037476 L 243.98904004679167 239.77088556112034 L 244.00407815376494 239.45998853904825 L 244.02005310104212 239.14872597846846 L 244.03695087295566 238.8371117488917 L 244.05475744731484 238.5251597149812 L 244.0734587956085 238.21288373661204 L 244.09304088321454 237.90029766871862 L 244.1134896695914 237.58741536135545 L 244.13479110847396 237.27425065960213 L 244.1569311480532 236.9608174036375 L 244.17989573116301 236.64712942862514 L 244.2036707954507 236.3332005647715 L 244.22824227355056 236.01904463726197 L 244.25359609324602 235.70467546629308 L 244.2797181776298 235.39010686706055 L 244.306594445262 235.07535264972282 L 244.33421081031628 234.76042661944518 L 244.36255318273192 234.44534257632947 L 244.39160746834432 234.13011431553358 L 244.42135956903402 233.8147556271372 L 244.45179538284987 233.49928029624735 L 244.48290080414793 233.183702102887 L 244.5146617236973 232.8680348221904 L 244.54706402882482 232.55229222415431 L 244.58009360350658 232.2364880738924 L 244.613736328502 231.9206361314238 L 244.6479780814475 231.60475015182482 L 244.68280473696402 231.28884388520405 L 244.71820216676826 230.97293107662088 L 244.75415623976014 230.65702546618186 L 244.79065282212147 230.34114078900757 L 244.82767777740432 230.0252907752598 L 244.86521696662598 229.7094891500831 L 244.90325624834986 229.39374963364153 L 244.94178147876517 229.07808594113382 L 244.98077851176532 228.762511782796 L 245.02023319904066 228.44704086376146 L 245.06013139011776 228.1316868843287 L 245.10045893247013 227.81646353963265 L 245.14120167154775 227.50138451993635 L 245.18234545087574 227.18646351035756 L 245.22387611209427 226.87171419103117 L 245.26577949502234 226.5571502370637 L 245.30804143772983 226.2427853184047 L 245.3506477765607 225.92863310006567 L 245.39358434622932 225.61470724177215 L 245.43683697982922 225.30102139824587 L 245.48039150889753 224.98758921905394 L 245.52423376347815 224.67442434845248 L 245.5683495721246 224.36154042564422 L 245.61272476198155 224.04895108445268 L 245.65734515879103 223.73666995351573 L 245.70219658694597 223.424710656122 L 245.74726486953247 223.11308681011144 L 245.79253582832683 222.8018120280711 L 245.83799528386584 222.49089991700345 L 245.88362905544986 222.18036407844195 L 245.9294229611699 221.8702181083803 L 245.9753628179347 221.5604755971844 L 246.02143444149695 221.25115012949107 L 246.06762364645328 220.94225528426503 L 246.11391624627143 220.63380463465205 L 246.1602980533136 220.32581174784053 L 246.20675487884705 220.0182901849875 L 246.2532725329848 219.71125350158627 L 246.29983682484956 219.40471524633804 L 246.34643356237854 219.09868896237427 L 246.3930485524838 218.79318818611125 L 246.4396676009645 218.48822644771835 L 246.48627651254577 218.18381727072855 L 246.53286109084283 217.87997417211946 L 246.57940713838835 217.5767106619527 L 246.6259004565245 217.2740402438732 L 246.6723268456446 216.97197641330555 L 246.71867210425785 216.6705326632816 L 246.7649232742545 216.36971438317005 L 246.8110651733204 216.06954140786385 L 246.85708334072797 215.77002886276398 L 246.90296357004587 215.4711902031629 L 246.94869165351943 215.17303887637235 L 246.99423565593517 214.87570413728676 L 246.99473434814124 214.87082784228423 L 246.99495350418863 214.87085921740507 L 247.0131446604851 214.74379351044527 L 247.03137414862013 214.61699223839486 L 247.04966098489396 214.49030601966174 L 247.06800271282765 214.36373545766492 L 247.08639687561984 214.23728115514882 L 247.10484101606508 214.11094371473186 L 247.12333267663047 213.98472373836398 L 247.1418693994552 213.85862182731952 L 247.16044872624812 213.73263858287606 L 247.17906819844265 213.60677460524843 L 247.19772535703217 213.481030494685 L 247.21641774271163 213.35540685049423 L 247.23514289579174 213.22990427160596 L 247.2538983561973 213.10452335656126 L 247.27268166350132 212.9792647032647 L 247.29149035694388 212.8541289088386 L 247.3103219753245 212.7291165703185 L 247.3291740571109 212.6042282839066 L 247.34804414039596 212.47946464523457 L 247.36692976287696 212.35482624947855 L 247.3858284618938 212.23031369107923 L 247.4047377743584 212.10592756418325 L 247.42365523684714 211.98166846200692 L 247.4425783855258 211.8575369773025 L 247.4615047561623 211.73353370224538 L 247.48043188409304 211.60965922862556 L 247.49935730434322 211.48591414702742 L 247.51827855148522 211.36229904772708 L 247.53719315955718 211.23881452118874 L 247.55609866253835 211.11546115492797 L 247.5749925934183 210.9922395395512 L 247.5938724854587 210.86915026048757 L 247.61273587107965 210.7461939052155 L 247.63158054426378 210.62336935286345 L 247.65040423188455 210.5006759153574 L 247.66920400995087 210.37811714259684 L 247.68797740896454 210.255693618596 L 247.70672195897245 210.1334059266686 L 247.72543518956036 210.0112546494219 L 247.74411462984688 209.88924036874946 L 247.76275780847703 209.76736366582406 L 247.78136225361567 209.64562512109097 L 247.7999254929407 209.52402531426068 L 247.81844505363588 209.40256482430217 L 247.8369184623837 209.28124422943634 L 247.85534324535774 209.16006410712822 L 247.87371692821495 209.0390250340811 L 247.89203703608743 208.9181275862296 L 247.91030109357456 208.79737233873195 L 247.928506624734 208.67675986596421 L 247.9466511530731 208.5562907415137 L 247.96473220153985 208.4359655381713 L 247.98274729251338 208.31578482792585 L 248.0006939477945 208.1957491819569 L 248.01856968859556 208.07585917062906 L 248.03637203553046 207.95611536348432 L 248.05409850860386 207.836518329237 L 248.07174662720064 207.71706863576662 L 248.0893139100746 207.59776685011173 L 248.10679787533707 207.47861353846397 L 248.1241960404451 207.35960926616227 L 248.14150592218942 207.2407545976862 L 248.15872503668197 207.1220500966507 L 248.17585089934323 207.00349632579994 L 248.19288102488892 206.8850938470021 L 248.20981292731676 206.76684322124328 L 248.2266441198925 206.6487450086225 L 248.24337211513583 206.53079976834647 L 248.25999442480565 206.41300805872447 L 248.27650855988549 206.2953704371628 L 248.29291203056783 206.17788746016078 L 248.3092023462387 206.06055968330566 L 248.32537701546127 205.94338766126856 L 248.34143354595975 205.82637194779943 L 248.3573694446021 205.70951309572396 L 248.37318221738292 205.5928116569394 L 248.38886936940577 205.47626818241034 L 248.40442840486483 205.35988322216605 L 248.41985682702636 205.24365732529762 L 248.43515213820982 205.12759103995367 L 248.45031183976806 205.01168491333976 L 248.46526815735677 204.89644445653212 L 248.4653334320677 204.8959394917142 L 248.48014814382148 204.7808721774121 L 248.48021441446852 204.78035532038766 L 248.49488504692306 204.6654617669572 L 248.49495228530282 204.6649329437201 L 248.5094763649937 204.5502137695274 L 248.5095445418537 204.54967290512073 L 248.5239195953166 204.43512872853185 L 248.52398868033376 204.4345757470458 L 248.5382122341043 204.32020718642687 L 248.53828219586234 204.31964201099927 L 248.55235177647614 204.20544968471637 L 248.552422582443 204.20487223753156 L 248.56633571643573 204.0908567639507 L 248.56640733294026 204.09026696624002 L 248.5801615468475 203.97642896372741 L 248.58023393905555 203.9758267357703 L 248.593826759413 203.86216682269196 L 248.59389989130335 203.861552083816 L 248.6073288446466 203.74807087853804 L 248.60740267898595 203.7474435471218 L 248.62066529185066 203.63414166801033 L 248.62073979016853 203.63350166148393 L 248.6338335890903 203.520379726905 L 248.63390871165305 203.5197269617541 L 248.64683122316754 203.4067855900738 L 248.64690692895203 203.40611998184167 L 248.6596556795949 203.29335979142616 L 248.65973192626177 203.29268125471737 L 248.6723044425686 203.18010286393266 L 248.6723811864346 203.17941131241824 L 248.68477499494105 203.06701533963047 L 248.68485219095137 203.0663106860515 L 248.6969584863277 202.95507475568945 L 248.71803954416026 202.76820870237987 L 248.73916834664658 202.58062106527262 L 248.76023348697248 202.39329892048673 L 248.78123373007526 202.20625276339746 L 248.8021678409066 202.01949308913314 L 248.8230345844334 201.83303039256396 L 248.84383272563872 201.6468751682898 L 248.86456102952275 201.4610379106284 L 248.8852182611038 201.275529113602 L 248.90580318541916 201.09035927092523 L 248.92631456752636 200.90553887599083 L 248.94675117250395 200.72107842185625 L 248.96711176545267 200.5369884012292 L 248.98739511149645 200.35327930645306 L 249.0075999757837 200.16996162949113 L 249.02772512348812 199.98704586191133 L 249.04776931981013 199.8045424948695 L 249.06773132997787 199.62246201909244 L 249.0876099192484 199.44081492486092 L 249.10740385290913 199.25961170199042 L 249.12711189627882 199.07886283981335 L 249.1467328147091 198.8985788271587 L 249.1662653735857 198.7187701523321 L 249.18570833832976 198.53944730309442 L 249.20506047439937 198.3606207666402 L 249.22432054729094 198.18230102957452 L 249.2434873225408 198.00449857788905 L 249.26255956572652 197.82722389693802 L 249.2815360424687 197.65048747141205 L 249.30041551843254 197.47429978531108 L 249.31919675932943 197.29867132191725 L 249.3378785309188 197.1236125637651 L 249.3564595990099 196.94913399261125 L 249.3749387294635 196.77524608940337 L 249.393314688194 196.6019593342463 L 249.41158624117122 196.42928420636804 L 249.42975215442254 196.25723118408357 L 249.44781119403498 196.08581074475657 L 249.46576212615722 195.91503336476129 L 249.4836037170021 195.74490951943972 L 249.5013347328487 195.5754496830595 L 249.51895394004492 195.4066643287682 L 249.53646010500975 195.23856392854609 L 249.55385199423597 195.0711589531566 L 249.57112837429284 194.90445987209364 L 249.58828801182867 194.73847715352815 L 249.6053296735738 194.57322126424947 L 249.62225212634354 194.40870266960596 L 249.63905413704106 194.24493183344183 L 249.65573447266075 194.08191921803007 L 249.67229190029133 193.91967528400335 L 249.68872518711922 193.75821049028 L 249.69797868453503 193.66703956698916 L 249.6950019677828 193.63783135769677 L 249.67881962383612 193.47856721119578 L 249.6627650654176 193.3200740485086 L 249.6468395252196 193.16236046277115 L 249.6310442358397 193.00543504495445 L 249.61538042977867 192.84930638377418 L 249.599849339438 192.69398306559373 L 249.5844521971179 192.5394736743236 L 249.5691902350151 192.385786791314 L 249.55406468522048 192.23293099524437 L 249.53907677971708 192.0809148620036 L 249.52422775037772 191.92974696456733 L 249.5115311630267 191.8 L 245.73857364512324 191.8 L 245.734524488738 191.82940012695292 L 245.7263055336683 191.88876229752253 L 245.7180348628826 191.94818150003454 L 245.7097118649643 192.00765775194242 L 245.70133592851937 192.06719107097578 L 245.692906442246 192.12678147463103 L 245.684422794855 192.18642898072744 L 245.67588437514905 192.24613360683762 L 245.66729057196923 192.30589537065399 L 245.65864077421003 192.36571428987443 L 245.64993437081097 192.42559038224974 L 245.64117075077024 192.48552366548114 L 245.63234930312413 192.5455141573532 L 245.62346941696444 192.6055618756026 L 245.6145304814137 192.66566683808063 L 245.6055008324828 192.72603667581237 L 245.60372313248632 192.7390962171051 L 245.58852602186903 192.86293046998597 L 245.57319230175506 192.9863246376492 L 245.55767520924013 193.1096548400894 L 245.5419741387158 193.23292108304295 L 245.52608848457493 193.35612337250006 L 245.5100176412366 193.47926171450231 L 245.4937610031266 193.60233611528687 L 245.47731796469205 193.7253465811667 L 245.46068792038093 193.84829311867674 L 245.4438702646636 193.97117573440693 L 245.4268643920113 194.093994435152 L 245.40966969691104 194.21674922779758 L 245.39228557384422 194.33944011946232 L 245.374711417318 194.46206711727024 L 245.35694662182806 194.58463022860457 L 245.3389905818774 194.7071294609683 L 245.32084269197486 194.82956482198648 L 245.30250234663205 194.95193631942047 L 245.28396894035268 195.07424396123108 L 245.26524186764078 195.196487755516 L 245.2463205230068 195.31866771046117 L 245.2272043009453 195.44078383448084 L 245.20789259594773 195.56283613612314 L 245.188384802506 195.6848246240428 L 245.16868031509443 195.80674930710583 L 245.14877852818697 195.92861019427423 L 245.1286788362354 196.0504072947327 L 245.10838063368885 196.1721406177608 L 245.0878833149797 196.29381017281153 L 245.06718627451835 196.41541596953292 L 245.0462889067054 196.5369580176886 L 245.02519060593002 196.65843632716022 L 245.00389076654082 196.7798509081076 L 244.98238878288586 196.90120177073024 L 244.96068404927917 197.02248892545157 L 244.93877596001286 197.14371238284005 L 244.91666390935103 197.26487215363744 L 244.89434729153902 197.38596824869796 L 244.87182550077824 197.50700067911947 L 244.84909793125746 197.6279694560639 L 244.82616397711521 197.74887459095322 L 244.8030230324688 197.86971609530474 L 244.7796744913971 197.99049398081513 L 244.75611774793828 198.11120825936405 L 244.73235219609 198.23185894300377 L 244.70837722982046 198.35244604389635 L 244.68419224304566 198.47296957441904 L 244.65979662964227 198.5934295470932 L 244.63518978343473 198.71382597463864 L 244.61037109821842 198.8341588698529 L 244.58533996771015 198.95442824584399 L 244.56009578560537 199.0746341157451 L 244.53463794552863 199.19477649294492 L 244.50896584106113 199.3148553909485 L 244.48307886571826 199.43487082347434 L 244.45697641296908 199.55482280435578 L 244.43065787621026 199.67471134765344 L 244.40412264878765 199.79453646754828 L 244.3773701239853 199.9142981783832 L 244.35039969500832 200.03399649473258 L 244.32321075500818 200.15363143128056 L 244.29580269707157 200.27320300286337 L 244.26817491419771 200.3927112245599 L 244.24032679933222 200.5121561115371 L 244.21225774532937 200.63153767920394 L 244.18396714498328 200.75085594307046 L 244.155454391005 200.8701109188377 L 244.12671887601886 200.98930262240393 L 244.09775999258324 201.10843106977032 L 244.06857713315452 201.22749627718335 L 244.03916969011937 201.34649826099195 L 244.00953705577282 201.46543703773187 L 243.9796786223172 201.58431262411978 L 243.94959378187204 201.70312503700677 L 243.919281926452 201.8218742934583 L 243.88874244799803 201.94056041062305 L 243.85797473832343 202.059183405936 L 243.82697818918254 202.17774329684505 L 243.79575219219655 202.2962401010885 L 243.7642961388963 202.41467383652275 L 243.7326094207199 202.5330445211253 L 243.70069142897646 202.65135217312252 L 243.6685415548921 202.76959681081036 L 243.63615918956793 202.8877784527029 L 243.60354372399965 203.00589711745218 L 243.57069454906858 203.12395282387374 L 243.53761105553673 203.24194559095662 L 243.50429263406104 203.3598754378048 L 243.47073867516025 203.47774238374794 L 243.43694856926015 203.5955464481738 L 243.4029217066352 203.71328765072656 L 243.36865747745577 203.83096601113328 L 243.33415527175626 203.94858154930853 L 243.2994144794487 204.066134285299 L 243.2644344903056 204.1836242393359 L 243.2292146939834 204.30105143174742 L 243.19375447999096 204.41841588305843 L 243.15805323771127 204.53571761391007 L 243.12677521203773 204.6377407487403 L 243.0993239844867 204.70997910457487 L 243.06602590133804 204.79728062923368 L 243.032606597129 204.88457540812283 L 242.999065473741 204.97186220239928 L 242.96540193325924 205.05913977322655 L 242.93161537801817 205.14640688166136 L 242.8977052105729 205.23366228873408 L 242.8636708337065 205.3209047554352 L 242.82951165044494 205.40813304268244 L 242.79522706401903 205.49534591142455 L 242.7608164779354 205.58254212246518 L 242.72627929587773 205.66972043672058 L 242.69161492183537 205.7568796148987 L 242.6568227599684 205.84401841784663 L 242.62190221470908 205.93113560630056 L 242.5868526907162 206.0182299410058 L 242.5516735928936 206.10530018267733 L 242.51636432638543 206.1923450920167 L 242.48092429656285 206.27936342975119 L 242.44535290905617 206.36635395656037 L 242.4096495697409 206.4533154331165 L 242.37381368469997 206.54024662018242 L 242.33784466031506 206.6271462783953 L 242.30174190316478 206.7140131685196 L 242.26550482011888 206.80084605122548 L 242.2291328182473 206.88764368731373 L 242.19262530491648 206.97440483749025 L 242.15598168768736 207.0611282626163 L 242.1192013744401 207.14781272341747 L 242.08228377323152 207.23445698082764 L 242.04522829242472 207.32105979568854 L 242.0080343406174 207.407619928925 L 241.97070132665323 207.49413614152354 L 241.93322865963557 207.58060719450683 L 241.89561574894213 207.66703184890585 L 241.85786200416376 207.75340886590647 L 241.81996683519293 207.83973700665246 L 241.78192965214686 207.92601503242733 L 241.74374986541505 208.0122417045517 L 241.70542688565462 208.0984157844005 L 241.66696012375462 208.18453603348834 L 241.6283489908865 208.27060121336265 L 241.58959289848727 208.3566100856473 L 241.55069125822314 208.44256141212904 L 241.51164348205603 208.52845395461594 L 241.47244898219634 208.61428647504763 L 241.43310717109915 208.7000577355091 L 241.3936174615268 208.78576649809975 L 241.35397926645928 208.87141152513436 L 241.31419199915342 208.9569915790199 L 241.27425507315078 209.04250542224486 L 241.23416790223294 209.12795181748052 L 241.1939299004519 209.21332952752132 L 241.15354048212728 209.2986373152968 L 241.1129990618404 209.38387394388928 L 241.07230505443118 209.469038176546 L 241.03145787503405 209.55412877660905 L 240.99045693899367 209.63914450769715 L 240.94930166197437 209.72408413348262 L 240.9079914598755 209.8089464178728 L 240.86652574885488 209.89373012496623 L 240.82490394534784 209.97843401901895 L 240.7831254660549 210.06305686447445 L 240.74118972793215 210.14759742598906 L 240.69909614820895 210.23205446840043 L 240.65684414434764 210.3164267568136 L 240.61443313410888 210.40071305647484 L 240.5718625354914 210.48491213289694 L 240.52913176675784 210.5690227518123 L 240.4862402464406 210.6530436791659 L 240.44318739331416 210.7369736811746 L 240.39997262641455 210.8208115242932 L 240.35659536504645 210.90455597520483 L 240.31305502874682 210.9882058008961 L 240.269351037331 211.0717597685721 L 240.22548281085702 211.15521664572924 L 240.1814497696276 211.23857520015525 L 240.1372513341823 211.3218341999475 L 240.09288692535486 211.40499241340927 L 240.04835596418383 211.4880486092213 L 240.00365787195264 211.5710015563698 L 239.95879207021244 211.65385002410792 L 239.9137579807415 211.73659278203434 L 239.8685550255496 211.81922860008837 L 239.82318262688796 211.90175624853447 L 239.77764020723933 211.98417449798356 L 239.73192718933424 212.06648211936678 L 239.68604299610735 212.14867788401668 L 239.6399870507235 212.23076056362274 L 239.593758776597 212.31272893019982 L 239.54735759732205 212.3945817562144 L 239.5007829367438 212.47631781446017 L 239.45403421889324 212.5579358781755 L 239.40711086803807 212.63943472095573 L 239.3600123086389 212.72081311683172 L 239.3127379653484 212.80206984027225 L 239.26528726305108 212.8832036661171 L 239.21765962679459 212.96421336969664 L 239.1695596796537 213.04559652003135 L 239.16090968933935 213.0619603662443 L 239.16043749341023 213.0617043793931 L 239.06326840476993 213.24094357348253 L 238.96590672294042 213.4207368312057 L 238.86836943850054 213.60110049777234 L 238.7706735591964 213.78205092055506 L 238.67283610946853 213.9636044488993 L 238.57487412998418 214.14577743391266 L 238.47706407349645 214.32810205755962 L 238.4768046771754 214.3285862282339 L 238.3789278371498 214.51151746901635 L 238.37864482278073 214.51204718578498 L 238.28071789510173 214.69560173958746 L 238.28041165339218 214.6961766615052 L 238.18245133394427 214.88037122421218 L 238.18212227000504 214.88099101107062 L 238.08414525467265 215.0658422785665 L 238.0837937875704 215.0665065906003 L 237.985816772238 215.25203125876962 L 237.98544333455092 215.25273975634917 L 237.887483015103 215.43895452107634 L 237.88708805247745 215.4397068643907 L 237.78916112479845 215.62662842156018 L 237.7887450955075 215.6274242702897 L 237.6908682554819 215.815069315786 L 237.69043162998372 215.81590832876728 L 237.592621573496 216.0042935584748 L 237.5921648339929 216.00517539335831 L 237.49443825692748 216.19431750316159 L 237.493961896924 216.19524181606442 L 237.39633549516537 216.38515750184789 L 237.39584001902534 216.38612394700158 L 237.29833048845796 216.57682990464968 L 237.29781641095997 216.5778381340459 L 237.20044044746828 216.7693510594431 L 237.19990829335882 216.7704007224775 L 237.10268259282734 216.9627373115083 L 237.1021328963717 216.96382805462343 L 237.00507415468485 217.1570050031723 L 237.00450745921438 217.1581364695028 L 236.90763237225667 217.35217047345415 L 236.90704922971312 217.35334230247275 L 236.81037449336895 217.5482500577111 L 236.8097754638445 217.54946188487918 L 236.71331777399837 217.74526008728893 L 236.71270342527168 217.74651154371074 L 236.61647947780807 217.94321688917643 L 236.61585038487604 217.94450760125963 L 236.5198768756794 218.14213678566568 L 236.5192336202838 218.14346637478897 L 236.4235272452386 218.34203609401985 L 236.42287041538816 218.34340417620817 L 236.32744787037882 218.54293112614832 L 236.32677805986594 218.54433731175797 L 236.23165604077698 218.7448381882919 L 236.23097384868973 218.746282081705 L 236.1361690514056 218.94777358071718 L 236.13547508163413 218.9492547800485 L 236.0410042020393 219.15175359742335 L 236.04029906277728 219.15327169423915 L 235.9461787967562 219.35679452586115 L 235.94546309999717 219.35834910491116 L 235.85171014343427 219.56291264666478 L 235.85098450446293 219.56450328562906 L 235.75761555324274 219.77012423339878 L 235.75688059012165 219.77175050264933 L 235.6639123401286 219.97844555231956 L 235.66316867317997 219.98010701469894 L 235.57061782029854 220.18789286215423 L 235.5698660715823 220.1895890727703 L 235.47774931169695 220.39848241389504 L 235.47699010448434 220.40021291993452 L 235.38532413347954 220.61023045061322 L 235.3845580917237 220.61199479117292 L 235.2933596054839 220.82315320729 L 235.292587353287 220.82495091322863 L 235.20187304769667 221.0372669106686 L 235.20109520877497 221.03909750447718 L 235.11088177971857 221.2525877791245 L 235.110098976865 221.2544507748188 L 235.020403120227 221.4691320225579 L 235.01961597477285 221.47102692559102 L 234.9304543864377 221.68691584230638 L 234.92966351771327 221.6888421495037 L 234.84105289356543 221.9059554310798 L 234.8402589183609 221.90791263059575 L 234.75221595428488 222.12626697291702 L 234.75141948631182 222.1282545442143 L 234.66396087819206 222.34786664316522 L 234.6631625275465 222.34988405701714 L 234.57630497126743 222.5707706084822 L 234.57550534389517 222.57281732699792 L 234.48926553534133 222.79499502686156 L 234.4884652325067 222.79707050353426 L 234.40285986756248 223.02055604768097 L 234.40205948532073 223.0226597274601 L 234.31710525987066 223.24746981177432 L 234.3163053885458 223.24960113116018 L 234.23201899847427 223.47575245152638 L 234.2312202221423 223.47791083868918 L 234.14761836333383 223.70542009099182 L 234.1468212593132 223.70760496591276 L 234.06392062765224 223.93648884603633 L 234.06312576600175 223.9386996206729 L 233.98094305737277 224.16897482450182 L 233.98015100039842 224.1712109029746 L 233.89870291068587 224.40289412639336 L 233.89791421245712 224.40515490519653 L 233.81721743754548 224.63826284408958 L 233.81643264342225 224.6405477123223 L 233.73650387919594 224.87509706257413 L 233.73572352536715 224.87740540219454 L 233.6565794677107 225.1134128596896 L 233.6558040807455 225.11574404578843 L 233.57746142554333 225.3532263064112 L 233.57669152195504 225.35557970750764 L 233.49916696509163 225.59455346714256 L 233.49840305091686 225.59692844549804 L 233.4217132882767 225.8374104000296 L 233.42095585866906 225.83980631198145 L 233.34511758613658 226.08181315729408 L 233.34436712497646 226.08422935360738 L 233.26939703843613 226.32777778558557 L 233.2686540179574 226.33021361182185 L 233.19456881329367 226.57532032635004 L 233.19383369372787 226.57777512325288 L 233.12065006682525 226.82445681621556 L 233.11992329606414 226.8269299201107 L 233.04765794280704 227.07520328739233 L 233.0469399560839 227.07769403060368 L 232.97560957235683 227.32757576808874 L 232.97490079194773 227.33008347936556 L 232.90452207363512 227.58159028293846 L 232.90382290857994 227.58411428789725 L 232.8344125515663 227.83726285344252 L 232.83372339741084 227.83980247501748 L 232.76529809758057 228.09460949841954 L 232.7646193361394 228.09716405732496 L 232.697195789377 228.35364623446827 L 232.69652778851824 228.35621504966844 L 232.6301226907082 228.6143890764375 L 232.6294658041601 228.61697146562423 L 232.56409585118683 228.8768540379035 L 232.56345041836636 228.87944931798066 L 232.49913230611438 229.14105713165458 L 232.49849865197842 229.1436646192263 L 232.43524907633216 229.40701437017938 L 232.43462751125116 229.40963338204355 L 232.37246316809507 229.6747417661602 L 232.37185398774935 229.67737161980318 L 232.31079157296793 229.94425533296788 L 232.31019505826671 229.94689534706094 L 232.2502512677444 230.21557108515816 L 232.24966768476722 230.21822058005432 L 232.19085921438852 230.48870503896853 L 232.1902888143495 230.49136333719716 L 232.1326323599988 230.76367321281282 L 232.13207537923276 230.76633963957318 L 232.0755876367946 231.04049162777477 L 232.0750442967658 231.04316551142443 L 232.0197419621246 231.3191763080964 L 232.0192124694567 231.3218569806363 L 231.96511223849697 231.5997432816631 L 231.96459678502498 231.60243007921545 L 231.91171535363117 231.88220858048155 L 231.9112141164739 231.8849008437615 L 231.85956818053043 232.16658824115137 L 231.85908132218375 232.16928531593067 L 231.80868757757514 232.45289830532877 L 231.8082152460253 232.45559954288953 L 231.75909038863597 232.74115482018036 L 231.758632717492 232.74385957775988 L 231.71079344320646 233.03137383882785 L 231.71035055185195 233.03408148005147 L 231.6638135565546 233.3235714207811 L 231.66338555031703 233.32628131608425 L 231.61816752989242 233.61776363235995 L 231.61775450023046 233.6204751593962 L 231.57387215056298 233.91396654710246 L 231.57347417527015 233.9166790911398 L 231.5309441922443 234.21219624616108 L 231.53056133566884 234.21490920046247 L 231.48940041516906 234.51246881868323 L 231.48903272844865 234.5151815848739 L 231.44925756635945 234.8148003621786 L 231.44890508767054 234.81751235059656 L 231.41053237987634 235.1192069828697 L 231.41019513469678 235.12191761290174 L 231.37324157708207 235.42570479602776 L 231.3729195784665 235.42841349642802 L 231.33740186691574 235.73430992629142 L 231.3370951157825 235.73701613548397 L 231.30302994618012 236.04503850796914 L 231.30294323352072 236.0464859618219 L 231.3028728168165 236.04647838063107 Z" id="element_209" /></svg>