<?xml version='1.0' encoding='utf-8'?>
<svg xmlns:svg="http://www.w3.org/2000/svg" version="1.1" id="Layer_1" x="0px" y="0px" viewBox="0 0 500 500" style="width: 188px;" xml:space="preserve" data-imageid="moscow-46" imageName="Moscow" class="illustrations_image"><svg:style type="text/css">
	.st0_moscow-46{fill:#FFFFFF;}
	.st1_moscow-46{fill:#231F20;}
	.st2_moscow-46{fill:#68E1FD;}
	.st3_moscow-46{fill:#D1D3D4;}
</svg:style><svg:path class="st0_moscow-46" d="M 326.2261273722288 98.19439890739702 L 326.19635922859476 98.1436454798453 L 326.1960968347044 98.14319757671983 L 326.16721357294693 98.0938354728735 L 326.13899342015816 98.04550800523764 L 326.11246466892 98.0 L 324.6028713783813 98.0 L 324.557955894104 98.08418301935008 L 324.5564010088092 98.08707437379857 L 324.4947426952378 98.20083291626847 L 324.4931615691066 98.20372724093951 L 324.43120953164185 98.31624966959295 L 324.4296023036206 98.3191461003342 L 324.3673596340929 98.43044478249298 L 324.3657264731672 98.43334243804864 L 324.3031962634071 98.54342974103463 L 324.3015373693793 98.54632772388938 L 324.23872271121724 98.65521601502438 L 324.23703831544356 98.65811341230433 L 324.17394230070994 98.76581505891018 L 324.1722326667914 98.76871094334247 L 324.10885838731673 98.87523831274098 L 324.1071238117386 98.87813174367317 L 324.04347435935324 98.98349720318616 L 324.0417151720727 98.98638722765726 L 323.9777936386073 99.09060314460656 L 323.9760102035804 99.0934887984762 L 323.9118196808652 99.19656754018366 L 323.91001239651536 99.19944784930681 L 323.845555976381 99.30140178309422 L 323.84372527599885 99.30427576454984 L 323.77900605027565 99.40511725773906 L 323.77715240235324 99.40798392109944 L 323.71217346287165 99.50772534101228 L 323.71029737136325 99.51058368965617 L 323.64506180995386 99.60923740361444 L 323.6431638144611 99.61208643608006 L 323.57767472295427 99.7096648114056 L 323.57575539883595 99.71250352277391 L 323.5100158690621 99.80901892678855 L 323.5080758274626 99.81184631009934 L 323.44208895125234 99.9073111101249 L 323.4401288390469 99.910126157819 L 323.3738977082305 100.0045527211773 L 323.3719182078894 100.00735442655561 L 323.3054459142974 100.10075512056848 L 323.30344774366154 100.10354247927116 L 323.2367373791244 100.19592967126043 L 323.2347212910968 100.1987016827535 L 323.16777594744497 100.29008774004099 L 323.1657427295936 100.29284340910944 L 323.0985654986576 100.383240699017 L 323.0965159727317 100.38597903725756 L 323.0291099463419 100.47539992710696 L 323.02704496770065 100.47811995441391 L 322.9594132376875 100.56657681152703 L 322.9573336946419 100.56927755756752 L 322.8894793528359 100.65678274926616 L 322.8873861659042 100.65946325493852 L 322.81931230413585 100.74602914854451 L 322.817206425216 100.7486884674122 L 322.74891613531565 100.83432743024737 L 322.7467985467741 100.83696462994547 L 322.6782949205722 100.92168902933163 L 322.6761666342525 100.92430319293865 L 322.6074527635797 101.00812539619766 L 322.60531481973294 101.01071562356934 L 322.5363937964195 101.09364799802299 L 322.53424726256225 101.09621340707702 L 322.4651221784387 101.17826832004714 L 322.4629681481361 101.18080804800373 L 322.3936420950329 101.26199786681215 L 322.39148168661774 101.26451107137405 L 322.3219577563653 101.3448481633426 L 322.31979211159194 101.34733402381923 L 322.25007339602075 101.42683075626974 L 322.24790367866024 101.42928847463551 L 322.1779932696008 101.50795721488981 L 322.175820663982 101.51038601677547 L 322.10572165326465 101.58823913215537 L 322.1035473627675 101.5906382677655 L 322.03326284222277 101.66768812559283 L 322.03108808772436 101.67005687055145 L 321.9606211491827 101.74631583814802 L 321.95844716746853 101.74865349426234 L 321.8878009027605 101.82413393895001 L 321.8856289448987 101.82643983489723 L 321.8148064458546 101.90115412399781 L 321.81263777554716 101.9034276159243 L 321.7416421339975 101.97738811675961 L 321.7394780259048 101.9796285888008 L 321.66831233368003 102.05284766869265 L 321.66615407173373 102.05505453340173 L 321.5948214206643 102.12754455967199 L 321.59267029636686 102.12971725836536 L 321.5211737782833 102.20149059833582 L 321.5190310890044 102.20362860134966 L 321.44737379573706 102.27469762234216 L 321.4452408430112 102.2768004292008 L 321.37342586639056 102.34717749853716 L 321.37130395422105 102.3492446380353 L 321.29933438607765 102.41894212303735 L 321.297224819251 102.4209731532372 L 321.22510375141525 102.49000342122675 L 321.2230078338363 102.49199792936655 L 321.1507383581386 102.56037334766545 L 321.14865739118375 102.56233094998845 L 321.0762425994546 102.6300638859185 L 321.0741778803554 102.63198422741726 L 321.00162086442526 102.69908704830031 L 320.999573684681 102.70096980238377 L 320.92687753638035 102.76745487554163 L 320.92484918020756 102.76929974362449 L 320.8520169913668 102.83517943637898 L 320.8500087341884 102.836986147397 L 320.77704359663807 102.90227282706996 L 320.77505670361415 102.90404113692657 L 320.70196170918456 102.96874717083983 L 320.6999974337927 102.97047686178212 L 320.62677567431444 103.03461461725749 L 320.6248352569752 103.03630549719287 L 320.5514898242787 103.09988734155219 L 320.54957449103637 103.10153924330223 L 320.47610847695205 103.16457754386731 L 320.47421943820865 103.1661903243669 L 320.400635934567 103.22869744845957 L 320.39877438387066 103.23027098790533 L 320.3250764825021 103.29225930284741 L 320.3232435953957 103.2937935037972 L 320.24943438813074 103.35527537691055 L 320.2476313210554 103.35677016334247 L 320.1737138997244 103.41775796194888 L 320.1719417889871 103.41921327827814 L 320.09791924542066 103.47971936969944 L 320.09617920621633 103.48113517976502 L 320.0220546322448 103.54117193132303 L 320.0203477577429 103.54254821734142 L 319.94612424519676 103.60212799635799 L 319.94445160568483 103.60346475785299 L 319.8701322463946 103.66259993164994 L 319.8684948884813 103.66389718436176 L 319.7940827742773 103.72260012026089 L 319.79248172015576 103.7238578950366 L 319.71797994286857 103.78214096035977 L 319.7164161896339 103.78335930203389 L 319.6418278410939 103.8412348641029 L 319.6403023601194 103.84241383036705 L 319.56563053215706 103.89989425650373 L 319.56414426852416 103.90103391677273 L 319.48939205297 103.95813157429892 L 319.4879459249493 103.95923200857732 L 319.41311641363376 104.01595926481482 L 319.41171131221944 104.01702056256453 L 319.3368075969729 104.07338978483519 L 319.3354443854637 104.07441204385114 L 319.26046955811665 104.13043559947678 L 319.2591490717434 104.13141892477273 L 319.1841062241263 104.18710918107517 L 319.182829269725 104.18805368378207 L 319.10772149366835 104.24342300808313 L 319.10648884939167 104.24432880436518 L 319.0313192367259 104.29938956398671 L 319.0301316517959 104.30025677397609 L 318.9549032943514 104.35502133623989 L 318.9537614888482 104.35585008299358 L 318.8784774784556 104.41033081522149 L 318.8773821431368 104.41112122370447 L 318.80204557162637 104.46533049321829 L 318.800997367781 104.46608268931185 L 318.72561132698326 104.52003286343344 L 318.7246108863097 104.52074697297557 L 318.6491784680551 104.57445041902673 L 318.6482263925668 104.57512656688249 L 318.57275068868586 104.62859565218506 L 318.5718475506376 104.62923396135206 L 318.4963316529607 104.68248105322786 L 318.49547799479524 104.68308164397656 L 318.4199249951528 104.73611910974742 L 318.41912132946493 104.73668209879898 L 318.34353431968754 104.78952230578673 L 318.3427811292003 104.79004780553088 L 318.26716320111836 104.84270312105733 L 318.2664609386741 104.84319123880874 L 318.19081518411804 104.89567403019572 L 318.190164272676 104.89612486749401 L 318.11449378347623 104.94844750206336 L 318.1138946161196 104.94886115401442 L 318.03820248410665 105.00103599908795 L 318.03765542405256 105.00141255375074 L 317.9619447410569 105.05345197665028 L 317.9614501216699 105.05379151446789 L 317.88572397952197 105.10570788251526 L 317.8852821043292 105.1060104757917 L 317.8095435948594 105.15781615630874 L 317.7334069526025 105.20978922904148 L 317.6573173884709 105.2616395226807 L 317.58127820837785 105.31337944976941 L 317.5811642632753 105.31321199078255 L 317.5775119345213 105.31591721075021 L 317.55946168810556 105.32796085470612 L 317.54151368139736 105.33995649475744 L 317.52350761539594 105.35201129096421 L 317.5054447755975 105.36412458932395 L 317.48732644718115 105.37629573581039 L 317.46915391471816 105.38852407656871 L 317.4509284623155 105.40080895781993 L 317.4326513738495 105.4131497257033 L 317.41432393254996 105.42554572655668 L 317.3959474214488 105.43799630661309 L 317.3775231232995 105.45050081205451 L 317.35905232043376 105.46305858910797 L 317.3405362950529 105.47566898384646 L 317.321976329092 105.4883313422798 L 317.3033737042604 105.50104501032558 L 317.28472970208924 105.51380933377442 L 317.26604560403405 105.5266236582179 L 317.2473226913995 105.53948732909718 L 317.2285622452988 105.55239969172877 L 317.2097655470085 105.56536009105717 L 317.1909338774488 105.57836787200961 L 317.17206851790246 105.59142237899694 L 317.15317074923485 105.6045229564484 L 317.13424185269355 105.61766894825475 L 317.1152831094024 105.63085969811411 L 317.09629580055304 105.6440945493952 L 317.0772812074909 105.65737284507235 L 317.05824061165475 105.67069392776244 L 317.03917529462535 105.68405713968586 L 317.020086538161 105.69746182263607 L 317.0009756241001 105.710907318042 L 316.9818438346458 105.72439296676181 L 316.9626924520928 105.73791810926888 L 316.94352275900604 105.751482085519 L 316.9243360383184 105.76508423487418 L 316.9051335730286 105.77872389630934 L 316.8859166466538 105.7924004080834 L 316.86668654289514 105.806113107969 L 316.84744454589094 105.81986133306374 L 316.82819194007436 105.83364441988317 L 316.8089300102818 105.84746170427397 L 316.7896600417678 105.86131252139404 L 316.77038332020044 105.87519620570569 L 316.7511011317064 105.8891120909332 L 316.7318147628105 105.90305951009546 L 316.71252550065634 105.91703779533583 L 316.69323463274446 105.93104627809981 L 316.67394344719304 105.94508428893425 L 316.6546532326653 105.9591511575274 L 316.63536527829564 105.97324621275001 L 316.61608087394956 105.98736878245208 L 316.59680131000005 106.00151819361228 L 316.57752787750985 106.01569377219018 L 316.55826186815074 106.0298948431701 L 316.539004574311 106.04412073046673 L 316.51975728900914 106.05837075697234 L 316.5005213060583 106.07264424441838 L 316.48129792003044 106.08694051338469 L 316.4620884261589 106.10125888335307 L 316.4428941205254 106.11559867255018 L 316.4237163000885 106.12995919790589 L 316.4045562625419 106.14433977513904 L 316.38541530646995 106.15873971862031 L 316.3662947314277 106.17315834128925 L 316.3471958377198 106.18759495479846 L 316.3281199267697 106.20204886921144 L 316.3090683008563 106.21651939317661 L 316.2900422632575 106.23100583379328 L 316.27104311832164 106.24550749653072 L 316.25207217138916 106.26002368526022 L 316.2331307288804 106.27455370215934 L 316.2142200983965 106.28909684760485 L 316.19534158856703 106.3036524202584 L 316.1764965092479 106.31821971688237 L 316.1576861714799 106.3327980323382 L 316.13891188749847 106.34738665954387 L 316.1201749708404 106.36198488935499 L 316.1014767363166 106.37659201054822 L 316.0828185000309 106.39120730976728 L 316.06420157946053 106.40583007141947 L 316.04562729352716 106.42045957757709 L 316.0270969624714 106.43509510803219 L 316.00861190809826 106.44973594005666 L 315.99017345362216 106.46438134847729 L 315.97178292387025 106.47903060546403 L 315.95344164519554 106.49368298054752 L 315.93515094557137 106.50833774048918 L 315.91691215465937 106.52299414917039 L 315.89872660370344 106.53765146761904 L 315.8805956258741 106.55230895367059 L 315.86252055590586 106.56696586219661 L 315.84450273049003 106.58162144472085 L 315.8265434881695 106.596274949434 L 315.80864416934384 106.61092562111713 L 315.79080611638886 106.62557270096862 L 315.77303067371554 106.64021542647619 L 315.75531918773333 106.65485303136442 L 315.73767300697205 106.66948474540801 L 315.7197752344356 106.6843745561841 L 315.7052785131333 106.69598614801428 L 315.6327750117796 106.75188143930465 L 315.5639931026976 106.80643776144728 L 315.49620484557073 106.86174894319686 L 315.4294125050482 106.91780405524266 L 315.3636183759596 106.9745921888531 L 315.29882478336526 107.03210245450424 L 315.23503408256704 107.09032398049854 L 315.1722486589803 107.14924591166735 L 315.11047092796264 107.20885740808194 L 315.0497033345585 107.26914764381499 L 314.9899483531508 107.33010580577199 L 314.931208487062 107.39172109255911 L 314.873486268081 107.45398271341823 L 314.81678425592844 107.51687988722577 L 314.76110503767876 107.58040184154211 L 314.706451227108 107.64453781175605 L 314.6528254640025 107.70927704029292 L 314.6002304134521 107.77460877586536 L 314.5486687650681 107.84052227284675 L 314.49814323219186 107.90700679069693 L 314.4486565510829 107.9740515934591 L 314.4002114800685 108.04164594936134 L 314.35281079870043 108.10977913046963 L 314.30645730688826 108.17844041243978 L 314.2611538240223 108.24761907436161 L 314.216903188137 108.31730439862532 L 314.173708255023 108.3874856709551 L 314.13157189740156 108.45815218044598 L 314.0904970040933 108.52929321971345 L 314.05048647921467 108.6008980851111 L 314.0115432414012 108.67295607702424 L 313.97367022306986 108.7454565002241 L 313.93687036970084 108.818388664324 L 313.90114663918814 108.89174188425434 L 313.8665020012158 108.96550548083954 L 313.8329394366946 109.03966878141857 L 313.8004619372526 109.1142211205246 L 313.76907250477655 109.18915184063873 L 313.7387741510305 109.26445029296048 L 313.7095698973351 109.3401058382377 L 313.68146277430924 109.4161078476562 L 313.65445582169593 109.49244570374108 L 313.6285520882537 109.56910880131828 L 313.6037546317409 109.6460865484621 L 313.58006651896653 109.7233683675107 L 313.55749082593036 109.80094369608057 L 313.5360306380515 109.87880198808432 L 313.5156890504791 109.95693271476839 L 313.4964691684943 110.03532536574505 L 313.4783741079991 110.11396945002336 L 313.461406996098 110.1928544970222 L 313.44557097176755 110.27197005757198 L 313.43086918661544 110.35130570489906 L 313.41730480573295 110.43085103556308 L 313.404881008635 110.51059567036204 L 313.3936009902842 110.5905292552215 L 313.3834679622103 110.67064146197106 L 313.3744851537007 110.7509219891613 L 313.3666558130878 110.83136056270284 L 313.3599832091031 110.91194693653047 L 313.35447063231203 110.99267089316012 L 313.3501213966225 111.07352224412048 L 313.34693884085607 111.15449083036495 L 313.3449263303841 111.23556652256994 L 313.34408725882327 111.31673922126508 L 313.3444250497789 111.39799885697091 L 313.34594315863694 111.47933539013636 L 313.3486450743929 111.56073881098366 L 313.352534321514 111.64219913924953 L 313.35761446182477 111.72370642378175 L 313.36388909640897 111.80525074200595 L 313.37136186752 111.88682219926592 L 313.38003646049026 111.96841092802366 L 313.3899166056309 112.0500070869196 L 313.40100608011437 112.13160085970635 L 313.41330870982324 112.21318245400052 L 313.426828371168 112.29474209994696 L 313.44156899285167 112.37627004870211 L 313.45753455757585 112.45775657078221 L 313.4747291036847 112.53919195429953 L 313.49315672672026 112.62056650301172 L 313.51282158089845 112.7018705342848 L 313.53372788048307 112.78309437690476 L 313.5558799010529 112.86422836877131 L 313.57928198065093 112.94526285446993 L 313.6039385208018 113.02618818271317 L 313.62985398741125 113.1069947037361 L 313.6570329114982 113.18767276651248 L 313.6854798898001 113.26821271596205 L 313.71519958519593 113.34860489000302 L 313.7461967269961 113.42883961662587 L 313.7784761110245 113.5089072108046 L 313.8120425995678 113.5887979714713 L 313.8469011211055 113.66850217835129 L 313.88305666989135 113.74801008885923 L 313.92051430533775 113.8273119349479 L 313.9592791512041 113.9063979199394 L 313.99935639462626 113.98525821542539 L 314.042427921626 114.06706753303625 L 314.05616844023194 114.09527981502436 L 314.0848138592898 114.1591090663166 L 314.11228506080425 114.21668927532897 L 314.1409692861962 114.27340294751079 L 314.1708477308537 114.329268879128 L 314.20190190707905 114.38430444535892 L 314.23411350311915 114.4385255983825 L 314.26746424859647 114.49194688352875 L 314.3019357883187 114.54458147175927 L 314.3375095661233 114.59644120660857 L 314.3741667199049 114.647536663389 L 314.41188798873975 114.69787721863094 L 314.4506536324514 114.74747112743789 L 314.4904433638362 114.79632560680376 L 314.5312362932538 114.84444692276843 L 314.5730108852452 114.89184047971841 L 314.615744926435 114.9385109100791 L 314.65941550397775 114.98446216304613 L 314.70399899360916 115.02969759111267 L 314.7494710562961 115.07422003337233 L 314.79580664249596 115.11803189483362 L 314.8429800029674 115.1611352211088 L 314.89096470516085 115.20353176807683 L 314.9397336541904 115.24522306621203 L 314.98925911754026 115.28621047949073 L 315.0395127526488 115.32649525883028 L 315.0904656366099 115.36607859013345 L 315.1420882973437 115.4049616371142 L 315.1943507456498 115.44314557912362 L 315.2472225076135 115.48063164422526 L 315.30067265694174 115.51742113782424 L 315.3546698468702 115.55351546717073 L 315.4091823413205 115.58891616204663 L 315.4641780451098 115.62362489199484 L 315.51962453296636 115.65764348037374 L 315.57548907725766 115.6909739155843 L 315.63173867430913 115.72361835975664 L 315.68834006925425 115.75557915518479 L 315.74525977933547 115.78685882875332 L 315.8024641157513 115.81746009466424 L 315.8599192039026 115.84738585560618 L 315.91759100219247 115.87663920264913 L 315.9754453193308 115.90522341400704 L 316.03344783023937 115.93314195286803 L 316.09156409056436 115.960398464422 L 316.1497595498729 115.98699677223502 L 316.20799956359514 116.0129408740922 L 316.2662494037493 116.03823493740708 L 316.32447426852434 116.06288329429943 L 316.3826392907499 116.08689043641175 L 316.44070954535545 116.11026100955625 L 316.49865005577766 116.13299980821674 L 316.5564257994618 116.15511176999883 L 316.61400171240484 116.17660197003674 L 316.67134269284554 116.19747561542209 L 316.72841360401657 116.21773803964469 L 316.78517927614234 116.23739469713199 L 316.84160450748175 116.25645115783165 L 316.8976540645965 116.27491310191826 L 316.95329268169075 116.29278631458756 L 317.0084850590832 116.31007668097581 L 317.0631958607163 116.3267901811922 L 317.1173897106477 116.34293288546807 L 317.17103118846444 116.35851094942915 L 317.22408482345094 116.37353060946873 L 317.2765150874805 116.38799817824753 L 317.32828638630804 116.40192004026865 L 317.3793630491868 116.41530264755771 L 317.4297093164714 116.42815251541545 L 317.47928932481017 116.44047621821383 L 317.52806708967825 116.45228038526241 L 317.57600648452467 116.46357169667341 L 317.623071216038 116.4743568792445 L 317.6692247946003 116.4846427023085 L 317.71443049896504 116.49443597354171 L 317.7586513337825 116.50374353468888 L 317.8018499783334 116.51257225718565 L 317.84398872425203 116.52092903763828 L 317.8850293994873 116.52882079314573 L 317.9249332747671 116.53625445643239 L 317.96366094775885 116.54323697079415 L 318.00117219844367 116.54977528487592 L 318.03742580702817 116.55587634735535 L 318.0723793225269 116.5615471016874 L 318.1059887657391 116.56679448122544 L 318.1382082437277 116.57162540527237 L 318.1689894435727 116.57604677709077 L 318.19828095865955 116.58006548563546 L 318.22602737922244 116.58368841416133 L 318.2521680448918 116.58692246126387 L 318.27663530297934 116.58977458430876 L 318.29935202803284 116.5922518834079 L 318.3202280094256 116.59436175974452 L 318.33915455519747 116.59611221296802 L 318.355996193405 116.59751240573775 L 318.3705774728631 116.5985737592788 L 318.382661124298 116.59931215033085 L 318.3919101930006 116.59975251657481 L 318.3978185523209 116.59993908683869 L 318.4029611195329 116.6 L 332.64244551247873 116.6 L 332.6501177856781 116.59820998718547 L 332.7107545677 116.58332777185439 L 332.77109657854356 116.56778259720987 L 332.8311411401688 116.55157842021421 L 332.8908855543688 116.5347191784749 L 332.95032710232067 116.51720879116091 L 333.00946304417204 116.49905115993171 L 333.06829061869763 116.48025016986577 L 333.1268070429923 116.46080969039578 L 333.18500951221506 116.4407335762439 L 333.2428951993949 116.42002566835018 L 333.3004612552651 116.39868979480283 L 333.35770480815984 116.37672977175625 L 333.41462296395014 116.35414940434214 L 333.47121280602664 116.33095248756825 L 333.5274713953254 116.30714280720404 L 333.5833957704033 116.28272414064757 L 333.6389829475329 116.25770025778417 L 333.6942299208621 116.23207492181547 L 333.7491336625947 116.20585189007465 L 333.8036911232202 116.1790349148141 L 333.85789923174866 116.15162774398287 L 333.91175489602574 116.12363412195728 L 333.9652550030348 116.09505779026624 L 334.01839641923624 116.06590248828674 L 334.07117599097194 116.03617195389069 L 334.12359054482596 116.00586992410116 L 334.1756368880766 115.97500013568154 L 334.22731180912643 115.94356632571952 L 334.27861207795684 115.91157223217893 L 334.3295344466349 115.87902159439929 L 334.3800756497878 115.84591815359477 L 334.4302324051132 115.81226565330878 L 334.4800014139112 115.7780678398316 L 334.52937936162266 115.74332846258937 L 334.5783629183483 115.70805127452152 L 334.62694873943184 115.67224003238836 L 334.6751334659872 115.63589849709093 L 334.72291372546164 115.59903043393942 L 334.77028613222757 115.56163961286998 L 334.81724728810286 115.5237298086888 L 334.8637937829468 115.48530480122804 L 334.9099221952076 115.44636837550988 L 334.95562909249486 115.40692432186025 L 335.00091103211076 115.36697643602616 L 335.0457645616385 115.32652851921296 L 335.0901862194409 115.28558437816758 L 335.13417253524057 115.24414782515831 L 335.1777200306222 115.2022226779908 L 335.2208252195601 115.15981275996951 L 335.26348460891893 115.11692189985116 L 335.30569469897347 115.07355393174554 L 335.34745198387344 115.02971269503675 L 335.38875295211835 114.98540203426185 L 335.42959408703376 114.94062579895213 L 335.4699718671989 114.8953878434921 L 335.5098827668854 114.84969202693219 L 335.5493232564744 114.80354221278924 L 335.5882898028509 114.75694226883904 L 335.6267788697939 114.7098960668775 L 335.6647869183347 114.66240748248455 L 335.7023104071056 114.61448039476423 L 335.73934579268416 114.56611868605414 L 335.7758895298845 114.51732624166593 L 335.81193807206904 114.46810694956433 L 335.84748787141444 114.41846470006969 L 335.8825353791634 114.36840338554406 L 335.91707704587714 114.31792690004028 L 335.9511093216316 114.26703913899368 L 335.98462865622884 114.21574399885583 L 336.01763149937403 114.16404537674265 L 336.0501143008145 114.11194717010336 L 336.0820735104916 114.0594532763347 L 336.11350557866484 114.00656759239882 L 336.14440695597267 113.95329401451126 L 336.1747740935511 113.89963643769461 L 336.20460344305036 113.84559875546833 L 336.23389145669495 113.7911848594279 L 336.2626345872738 113.73639863891168 L 336.2908292881575 113.68124398058146 L 336.3184720132467 113.62572476809629 L 336.3455592169462 113.56984488170019 L 336.3720873540766 113.51360819789709 L 336.3980528798051 113.45701858905105 L 336.42345224951464 113.4000799230801 L 336.44828191871295 113.34279606302637 L 336.47253834283924 113.28517086681829 L 336.49621797714457 113.22720818683142 L 336.51931727647786 113.16891186963011 L 336.54183269509224 113.11028575563225 L 336.56376068643294 113.05133367878001 L 336.58509770288146 112.99205946629242 L 336.6058401955281 112.93246693830704 L 336.62598461387296 112.87255990768548 L 336.64552740555246 112.81234217971736 L 336.6644650160409 112.751817551862 L 336.6827938883212 112.69098981355442 L 336.70051046256515 112.62986274595494 L 336.7141363806282 112.58092094839373 L 336.73078541516253 112.50248759098578 L 336.74874089452953 112.41235165929939 L 336.7654065270977 112.32274945298677 L 336.780784592122 112.23367545373922 L 336.7948774158473 112.14512385543078 L 336.807687356278 112.0570885522616 L 336.81921678656335 111.96956312786463 L 336.82946807702666 111.88254084560755 L 336.8384435758856 111.79601464039361 L 336.84614558876757 111.70997711201005 L 336.8525763571153 111.62442052032333 L 336.85773803562466 111.53933678244907 L 336.86163266886865 111.4547174721323 L 336.8642621672995 111.37055382147096 L 336.8656282828382 111.28683672506642 L 336.86573258428086 111.20355674690074 L 336.86457643278214 111.12070412977026 L 336.862160957682 111.03826880761784 L 336.85848703296256 110.95624042055498 L 336.85355525462666 110.87460833267406 L 336.84736591929766 110.79336165260533 L 336.83991900433296 110.71248925666455 L 336.8312141497375 110.6319798144477 L 336.8212506421545 110.5518218167554 L 336.81002740118043 110.47200360553506 L 336.7975429682366 110.39251340563953 L 336.78379549818385 110.31333935803936 L 336.7687827538486 110.23446955421942 L 336.75250210357046 110.15589207136877 L 336.7349505218415 110.07759500796536 L 336.7161245930687 109.99956651941585 L 336.6960205184355 109.92179485333529 L 336.67463412579866 109.84426838410941 L 336.65196088247694 109.76697564626033 L 336.6279959108201 109.68990536644507 L 336.602734006309 109.61304649357517 L 336.57616965797257 109.53638822684741 L 336.548297070867 109.45992004145698 L 336.5191101902802 109.38363171164087 L 336.48860272741683 109.30751333106521 L 336.45676818616954 109.23155533022472 L 336.423599890711 109.15574849093757 L 336.3890910135426 109.08008395779603 L 336.3532346036916 109.00455324660821 L 336.3160236147583 108.9291482498942 L 336.27745093252724 108.85386123952323 L 336.2375094018486 108.7786848665559 L 336.1961918526136 108.70361215857007 L 336.1534911245203 108.62863651446683 L 336.1094000905584 108.55375169716226 L 336.06391167895765 108.47895182418434 L 336.0170188935537 108.40423135653208 L 335.9687148324612 108.32958508598438 L 335.9189927049687 108.25500812105126 L 335.8678458466705 108.18049587186897 L 335.8152677327785 108.10604403418407 L 335.7612519896714 108.03164857270188 L 335.7057924047081 107.95730570398386 L 335.64888293431613 107.88301187902101 L 335.5905177105221 107.8087637657907 L 335.53069104587763 107.73455823178067 L 335.4693974370076 107.66039232679711 L 335.40663156676345 107.58626326603235 L 335.3423883051531 107.51216841358425 L 335.2766627091499 107.43810526651201 L 335.20945002144765 107.36407143945652 L 335.14074566833426 107.29006464995953 L 335.0705452566969 107.21608270442896 L 334.9988445703819 107.14212348491475 L 334.92563956588424 107.06818493658876 L 334.8509263675368 106.99426505602227 L 334.77470126229196 106.9203618802711 L 334.6969606940886 106.84647347667362 L 334.61770125801024 106.77259793348318 L 334.53691969418566 106.69873335120037 L 334.45461288157645 106.624877834664 L 334.3707778316448 106.55102948581542 L 334.2854116820103 106.47718639716179 L 334.19851169010616 106.40334664587446 L 334.11007522687237 106.3295082884915 L 334.02009977053706 106.25566935620225 L 333.9285829005171 106.18182785068346 L 333.835522291409 106.10798174040758 L 333.7409157072204 106.03412895749376 L 333.6447609956705 105.96026739491744 L 333.5470560827611 105.88639490419482 L 333.4477989675065 105.81250929341356 L 333.3469877168451 105.73860832559365 L 333.2446204608315 105.66468971741739 L 333.1406953879581 105.59075113818577 L 333.03521074073535 105.51679020907235 L 332.9281648115145 105.44280450263267 L 332.81955593841485 105.36879154245399 L 332.7093825016158 105.29474880310535 L 332.59764291969276 105.22067371014852 L 332.4843356462752 105.14656364038574 L 332.3694591668298 105.07241592219543 L 332.25301199566144 104.99822783600693 L 332.13497574877425 104.92398596990095 L 332.04250059314387 104.86654093812194 L 332.03748833185045 104.8633860576636 L 331.9443797127547 104.80400765987076 L 331.9395051672684 104.8008590636196 L 331.8469549327531 104.74031442737859 L 331.84221489330776 104.73717495551546 L 331.7502267535694 104.67549314403261 L 331.745617984973 104.67236542384745 L 331.6541956502082 104.60957550032903 L 331.6497149048796 104.60646195558824 L 331.5588620852848 104.54259298324054 L 331.554506114991 104.53949584368694 L 331.46422652076285 104.47457688571626 L 331.4599920871339 104.47149819661477 L 331.3702894284689 104.40555831622738 L 331.3661733123584 104.40249994787624 L 331.27705129945315 104.33556820827845 L 331.2730503092261 104.33253186542322 L 331.184512652277 104.2646373298213 L 331.1806236310926 104.261624560912 L 331.0926740402964 104.19279629251226 L 331.0888938724672 104.1898084987628 L 331.0015360580203 104.12007556077153 L 330.9978616745117 104.11711400497697 L 330.91109934661074 104.04650546060044 L 330.90752772975884 104.04357127568991 L 330.82136459860027 103.97211618813442 L 330.8178927861057 103.96921038542783 L 330.73233256188615 103.89693781789968 L 330.7289576501569 103.89406129505916 L 330.64400404307287 103.82100031076463 L 330.64072318996836 103.81815385942197 L 330.55637991021644 103.74433352156734 L 330.55319033725556 103.74151783462415 L 330.4694610950323 103.66696720641573 L 330.4663600891148 103.66418288500998 L 330.38324859461676 103.58893102965405 L 330.38023350931127 103.5861785897953 L 330.2977434727349 103.51025457049815 L 330.29481172917497 103.50753444937003 L 330.2129468607169 103.43096732933796 L 330.2100959481547 103.42827989127775 L 330.1288599580114 103.35109873371704 L 330.12608743406156 103.34844427587433 L 330.0454840324297 103.27067814399128 L 330.0427875230461 103.26805690167825 L 329.96282042012217 103.18973485867913 L 329.960197619335 103.18714701041775 L 329.8808705253155 103.10829811950886 L 329.87831919476446 103.10574379178973 L 329.799635819846 103.02639711617736 L 329.7971537881348 103.02387638793955 L 329.7191178425139 102.94406099083001 L 329.7167030044108 102.94157389767294 L 329.63931819828406 102.86131884227248 L 329.6369685137935 102.858865380414 L 329.56023855735737 102.77819972992896 L 329.5579520506816 102.7757798599207 L 329.4818806541327 102.69473267755733 L 329.47965541254393 102.69234632777092 L 329.4042462860788 102.61094667673551 L 329.40208045871674 102.60859374663072 L 329.32733731253194 102.52687069012958 L 329.32522910914406 102.52455105331865 L 329.25115565343606 102.44253365455805 L 329.24910334307185 102.44024716167596 L 329.17570328803725 102.35796448386222 L 329.17370519771106 102.355710965258 L 329.1009822535464 102.27319207159738 L 329.0990367668787 102.27097133985579 L 329.0269946437806 102.1882452935546 L 329.02510019962625 102.18605714586013 L 328.9537426077912 102.10315301012466 L 328.9518976988659 102.1009972304801 L 328.88122834849037 102.01794406851663 L 328.8794315200002 102.01582042982521 L 328.80945412128085 101.93264730484002 L 328.80770396956495 101.93055557086453 L 328.73842223269827 101.84729154606393 L 328.736717403887 101.84523147326881 L 328.6681350390695 101.76190561185908 L 328.66647422776737 101.7598769511501 L 328.5985949451957 101.67651831633754 L 328.5969768931916 101.67452081470594 L 328.52980440306226 101.59115846969684 L 328.528227898071 101.58919187177676 L 328.4617659105806 101.50585487977739 L 328.460229785023 101.50391892932981 L 328.39448201036794 101.42063635354647 L 328.39298514018736 101.41873079487222 L 328.32795528856434 101.33553169851119 L 328.32649659209085 101.3336562778107 L 328.2621883736963 101.2505697240783 L 328.2607668105522 101.24872419075668 L 328.1971839355827 101.16577924285917 L 328.19579850564185 101.16396335079553 L 328.132944684294 101.0811890719392 L 328.1315944266905 101.0794025807216 L 328.06947336916085 100.99682803411278 L 328.0681573613534 100.9950707102512 L 328.0067727778385 100.91272495909614 L 328.0054901347332 100.91099657722256 L 327.94484573542945 100.82890868472758 L 327.94359560856185 100.82720902879022 L 327.88369510366596 100.74540805816157 L 327.88247668044977 100.74373692262738 L 327.8233237801582 100.66225193707137 L 327.8221362831979 100.6606091281407 L 327.7637346977072 100.57946919086365 L 327.7625773841842 100.57785452771354 L 327.70493082369103 100.4970887019217 L 327.7038029848242 100.49550201798661 L 327.646915159525 100.41513936688628 L 327.64581612010966 100.41358051118642 L 327.589690740201 100.33365009798389 L 327.5886198582339 100.33211893651841 L 327.5332606339124 100.25264982441998 L 327.5322173003074 100.25114624163702 L 327.47762794176947 100.17216749384896 L 327.47661158016854 100.17069139420597 L 327.4227957976108 100.0922320739346 L 327.42180586430226 100.09078338357217 L 327.3687673679213 100.01287255402376 L 327.36780335187126 100.01145122256735 L 327.31554585186353 99.93411794694818 L 327.31460727486984 99.932723949459 L 327.2631344814319 99.85599729097538 L 327.2622208984156 99.85463063007938 L 327.2115365217441 99.77853965193759 L 327.21064752119173 99.77720036015785 L 327.16075527148314 99.70177412556419 L 327.1598904760512 99.70046226788381 L 327.11079406350206 99.62572984004456 L 327.1099531308098 99.62444551674425 L 327.0616562656167 99.55043595886569 L 327.0608388892445 99.5491793086722 L 327.01334528160396 99.47592168396064 L 327.0125511923226 99.4746928875526 L 326.9658645524312 99.40221625921433 L 326.9650935196967 99.4010155431467 L 326.919217557751 99.329348974388 L 326.91846939149525 99.32817661549221 L 326.8734078176917 99.25734916951937 L 326.87268237045595 99.25620549986078 L 326.82843889499117 99.18624623988009 L 326.8277360644493 99.18513165235714 L 326.78431439751984 99.1160696415749 L 326.7836341294522 99.11498459626522 L 326.7410379812546 99.04684889788771 L 326.7403802730438 99.04579392926381 L 326.6986133537746 98.97861360649732 L 326.6979782585073 98.97758933165828 L 326.65704427836306 98.9113934477091 L 326.65643190964096 98.91040057580145 L 326.61633457881817 98.84521819387588 L 326.61574511640015 98.84425753691083 L 326.5764881450954 98.78011772021515 L 326.5759218415237 98.7791902055368 L 326.5375089399336 98.71612201727731 L 326.53696612832067 98.7152287019777 L 326.4994010066417 98.65326120536066 L 326.4988821098448 98.65240329301254 L 326.46216847827355 98.59156555124429 L 326.4616740197292 98.59074441139991 L 326.4258155884621 98.5310654876867 L 326.4253462050164 98.53028267868581 L 326.3903466842501 98.47179163623395 L 326.3899031414072 98.47104893200175 L 326.3557662413383 98.41377483401752 L 326.3553494514516 98.41307425568866 L 326.3220788822765 98.35704616537835 L 326.32168992633814 98.35639001878448 L 326.2892893982535 98.30163699935439 L 326.2889295521252 98.30102791969836 L 326.25740277532753 98.24757903435477 L 326.2570735414698 98.24702003970827 L 326.22642422615564 98.19490435165747 L 326.2261273722288 98.19439890739702 Z" id="element_130" /></svg>