<?xml version='1.0' encoding='utf-8'?>
<svg xmlns:svg="http://www.w3.org/2000/svg" version="1.1" id="Layer_1" x="0px" y="0px" viewBox="0 0 500 500" style="width: 188px;" xml:space="preserve" data-imageid="moscow-46" imageName="Moscow" class="illustrations_image"><svg:style type="text/css">
	.st0_moscow-46{fill:#FFFFFF;}
	.st1_moscow-46{fill:#231F20;}
	.st2_moscow-46{fill:#68E1FD;}
	.st3_moscow-46{fill:#D1D3D4;}
</svg:style><svg:path class="st1_moscow-46" d="M 249.52422775037772 191.92974696456733 L 249.53907677971708 192.0809148620036 L 249.55406468522048 192.23293099524437 L 249.5691902350151 192.385786791314 L 249.5844521971179 192.5394736743236 L 249.599849339438 192.69398306559373 L 249.61538042977867 192.84930638377418 L 249.6310442358397 193.00543504495445 L 249.6468395252196 193.16236046277115 L 249.6627650654176 193.3200740485086 L 249.67881962383612 193.47856721119578 L 249.6950019677828 193.63783135769677 L 249.71131086447255 193.7978578927985 L 249.72774508102984 193.95863821929402 L 249.7443033844908 194.12016373806006 L 249.76098454180507 194.2824258481338 L 249.7777873198381 194.4454159467838 L 249.794710485373 194.60912542957809 L 249.81175280511246 194.7735456904499 L 249.82891304568082 194.9386681217598 L 249.84618997362585 195.10448411435442 L 249.86358235542062 195.27098505762427 L 249.88108895746535 195.43816233955684 L 249.89870854608913 195.6060073467889 L 249.91643988755166 195.77451146465586 L 249.93428174804498 195.9436660772389 L 249.9522328936951 196.11346256741024 L 249.97029209056362 196.28389231687672 L 249.98845810464925 196.45494670622085 L 250.0067297018895 196.62661711494016 L 250.02510564816197 196.79889492148612 L 250.04358470928597 196.97177150329964 L 250.0621656510239 197.1452382368463 L 250.08084723908263 197.31928649764953 L 250.0996282391149 197.49390766032266 L 250.1185074167205 197.66909309860029 L 250.13748353744776 197.84483418536624 L 250.1565553667946 198.02112229268346 L 250.17572167020992 198.19794879182038 L 250.1949812130947 198.37530505327643 L 250.2143327608031 198.5531824468084 L 250.2337750786437 198.731572341453 L 250.25330693188047 198.910466105551 L 250.272927085734 199.08985510676922 L 250.29263430538236 199.269730712121 L 250.3124273559622 199.45008428798786 L 250.33230500256968 199.63090720013878 L 250.35226601026153 199.8121908137486 L 250.3723091440558 199.9939264934172 L 250.39243316893294 200.17610560318641 L 250.41263684983647 200.3587195065571 L 250.43291895167414 200.54175956650542 L 250.4532782393184 200.7252171454985 L 250.47371347760745 200.90908360550964 L 250.49422343134592 201.0933503080327 L 250.51480686530576 201.27800861409577 L 250.53546254422673 201.46304988427553 L 250.55618923281736 201.64846547870945 L 250.57698569575555 201.8342467571087 L 250.59785069768927 202.02038507877 L 250.61878300323713 202.20687180258773 L 250.63978137698916 202.39369828706464 L 250.6608445835074 202.58085589032282 L 250.68197138732643 202.76833597011483 L 250.703152693295 202.9560602695318 L 250.70520838297665 202.96876367838436 L 250.70475967792805 202.96882603718066 L 250.71995353434775 203.07815394602716 L 250.73520877018177 203.1877865242815 L 250.75052538554561 203.29772129532296 L 250.76590338058332 203.40795578270215 L 250.78134275546714 203.51848751013765 L 250.79684351039714 203.62931400151234 L 250.81240564560096 203.740432780872 L 250.8280291613336 203.85184137242214 L 250.84371405787704 203.96353730052405 L 250.85946033554006 204.075518089695 L 250.87526799465795 204.18778126460265 L 250.89113703559232 204.3003243500655 L 250.90706745873092 204.41314487104847 L 250.9230592644874 204.5262403526625 L 250.93911245330114 204.6396083201608 L 250.9552270256371 204.75324629893825 L 250.97140298198568 204.8671518145284 L 250.9876403228625 204.98132239260207 L 251.0039390488083 205.09575555896538 L 251.02029916038887 205.21044883955835 L 251.03672065819492 205.32539976045294 L 251.05320354284197 205.44060584785063 L 251.0697478149702 205.55606462808308 L 251.08635347524455 205.6717736276078 L 251.10302052435443 205.78773037300905 L 251.11974896301385 205.90393239099507 L 251.1365387919613 206.02037720839755 L 251.1533900119597 206.13706235216983 L 251.17030262379635 206.25398534938574 L 251.1872766282831 206.37114372723906 L 251.20431202625602 206.48853501304126 L 251.22140881857578 206.60615673422177 L 251.23856700612734 206.72400641832587 L 251.25578658982016 206.8420815930141 L 251.27306757058815 206.96037978606168 L 251.2904099493898 207.07889852535706 L 251.3078137272081 207.19763533890128 L 251.32527890505065 207.3165877548075 L 251.3428054839499 207.4357533013001 L 251.36039346496287 207.5551295067132 L 251.37804284917155 207.67471389949117 L 251.39575363768287 207.7945040081877 L 251.41352583162882 207.91449736146402 L 251.43135943216646 208.03469148809032 L 251.44925444047823 208.15508391694377 L 251.46721085777193 208.2756721770085 L 251.48522868528093 208.39645379737502 L 251.50330792426425 208.51742630724024 L 251.52144857600675 208.6385872359066 L 251.53965064181926 208.75993411278176 L 251.55791412303887 208.88146446737883 L 251.57623902102887 209.00317582931524 L 251.59462533717917 209.1250657283135 L 251.61307307290636 209.24713169420002 L 251.631582229654 209.36937125690542 L 251.65015280889264 209.4917819464646 L 251.66878481212038 209.61436129301623 L 251.68747824086267 209.73710682680246 L 251.7062330966729 209.86001607816974 L 251.72504938113252 209.98308657756814 L 251.74392709585118 210.10631585555086 L 251.76286624246717 210.2297014427756 L 251.7818668226476 210.3532408700038 L 251.80092883808862 210.47693166810004 L 251.82005229051586 210.60077136803417 L 251.83923718168458 210.72475750087912 L 251.85848351338004 210.8488875978128 L 251.87779128741775 210.97315919011737 L 251.89716050564397 211.0975698091801 L 251.91659116993583 211.22211698649298 L 251.9360832822017 211.34679825365333 L 251.95563684438173 211.4716111423644 L 251.97525185844793 211.5965531844351 L 251.9949283264048 211.72162191178097 L 252.01466625028948 211.846814856424 L 252.03446563217233 211.97212955049338 L 252.0543264741572 212.0975635262261 L 252.07424877838187 212.22311431596694 L 252.09423254701852 212.34877945216954 L 252.1142777822741 212.4745564673963 L 252.13438448639073 212.60044289431934 L 252.15455266164628 212.72643626572125 L 252.1747823103547 212.85253411449517 L 252.19507343486654 212.97873397364555 L 252.2154260375695 213.10503337628938 L 252.23584012088878 213.23142985565602 L 252.2563156872877 213.35792094508875 L 252.27685273926812 213.48450417804423 L 252.29745127937116 213.6111770880955 L 252.31811131017744 213.7379372089297 L 252.33883283430794 213.8647820743523 L 252.35961585442433 213.99170921828463 L 252.38046037322965 214.11871617476748 L 252.4013663934689 214.24580047796016 L 252.42233391792965 214.37295966214262 L 252.44336294944264 214.50019126171557 L 252.4644534908824 214.62749281120173 L 252.48560554516783 214.7548618452473 L 252.50625087642013 214.87888260242096 L 252.55127047257724 215.17298941308516 L 252.596892899615 215.47103638286504 L 252.6426104921265 215.7697741877297 L 252.68841090406116 216.06918934563683 L 252.73428178847368 216.36926835790618 L 252.78021079909058 216.66999771967238 L 252.82618559024368 216.97136391964705 L 252.87219381706223 217.27335344155642 L 252.91822313518531 217.57595276241486 L 252.96426120100637 217.8791483542702 L 253.0102956714976 218.18292668317437 L 253.05631420432806 218.48727421006706 L 253.1023044577595 218.79217739017747 L 253.14825409073848 219.09762267370795 L 253.19415076283101 219.4035965054586 L 253.23998213429027 219.7100853253188 L 253.2857358659904 220.01707556785544 L 253.33139961952583 220.3245536629875 L 253.3769610571222 220.63250603538893 L 253.42240784174945 220.94091910523167 L 253.46772763702728 221.24977928751852 L 253.5129081073405 221.55907299281915 L 253.5579369177918 221.86878662689168 L 253.60280173424877 222.17890659093158 L 253.64749022333476 222.48941928142324 L 253.6919900524984 222.80031109051967 L 253.7362888899769 223.111568405675 L 253.7803744048619 223.4231776099749 L 253.8242342671131 223.73512508209123 L 253.8678561475728 224.04739719622873 L 253.9112277180191 224.3599803223319 L 253.95433665116818 224.6728608259176 L 253.99717062071943 224.98602506819785 L 254.03971730140103 225.2994594061973 L 254.08196436896387 225.61315019247618 L 254.12389950026702 225.927083775514 L 254.1655103732806 226.241246499468 L 254.20678466713798 226.55562470428376 L 254.24771006217506 226.87020472569446 L 254.28827423997186 227.1849728952244 L 254.32846488339618 227.49991554019007 L 254.36826967664567 227.81501898367432 L 254.4076763053143 228.13026954467756 L 254.44667245641284 228.44565353788664 L 254.4852458184429 228.7611572738544 L 254.52338408144624 229.07676705896378 L 254.56107493704738 229.39246919531726 L 254.59830607853345 229.70824998091715 L 254.63506520089123 230.02409570946816 L 254.67134000088345 230.33999267049063 L 254.7071181771097 230.65592714928394 L 254.74238743007055 230.97188542689656 L 254.7771354622395 231.28785378014044 L 254.81134997813282 231.603818481567 L 254.8450186843785 231.91976579940766 L 254.87812928979977 232.23568199762477 L 254.91066950549396 232.55155333589676 L 254.9426270449093 232.8673660695529 L 254.97398962392813 233.1831064495423 L 255.0047449609645 233.49876072251652 L 255.03488077704228 233.81431513068765 L 255.06438479589679 234.12975591189058 L 255.09324474406907 234.44506929954022 L 255.1214483510016 234.76024152256429 L 255.1489833491498 235.07525880547396 L 255.17583747408452 235.390107368297 L 255.20199846459508 235.70477342647297 L 255.2274540628193 236.01924319102216 L 255.2521920143441 236.3335028683201 L 255.27620006833743 236.6475386602038 L 255.29946597767307 236.96133676394686 L 255.3219774990545 237.27488337216147 L 255.3437223931532 237.5881646728407 L 255.36468842474792 237.9011668493615 L 255.38486336286266 238.2138760803968 L 255.4042349809156 238.5262785399293 L 255.4227910568739 238.83836039728487 L 255.44051937340552 239.15010781704046 L 255.45740771804387 239.46150695906985 L 255.47344388335446 239.7725439785364 L 255.48861566710227 240.08320502580204 L 255.5029108724351 240.39347624654906 L 255.51631730806267 240.70334378171353 L 255.52882278844316 241.0127937674539 L 255.54041513397954 241.32181233521263 L 255.55108217121818 241.63038561171336 L 255.56081173305427 241.9384997189781 L 255.56959165894114 242.24614077428154 L 255.57740979511118 242.55329489028134 L 255.5842539947966 242.85994817494796 L 255.59011211846126 243.16608673167036 L 255.59497203403532 243.47169665921626 L 255.59882161716018 243.7767640518706 L 255.60164875143622 244.08127499940824 L 255.6034413286799 244.38521558717818 L 255.6041872491865 244.6885718962143 L 255.60387442199925 244.99133000321095 L 255.60249076518627 245.2934759807117 L 255.60004096756782 245.59294692563498 L 255.59374462135582 245.907211413673 L 255.58679529609336 246.2230095936636 L 255.57924921965395 246.53785287848203 L 255.5711131735741 246.85172071863104 L 255.56239394064312 247.1645925639859 L 255.55309830489512 247.47644786385268 L 255.5432330516126 247.7872660666824 L 255.5328049673202 248.09702662017986 L 255.52182083978892 248.40570897108918 L 255.510287458039 248.71329256510305 L 255.49821161234144 249.0197568468318 L 255.4856000942287 249.32508125957634 L 255.47245969649887 249.62924524531766 L 255.4587972132239 249.93222824463143 L 255.44461943976955 250.23400969638038 L 255.42993317279723 250.53456903785735 L 255.41474521028945 250.83388570444103 L 255.39906235156428 251.13193912954512 L 255.38289139729474 251.42870874448897 L 255.36623914952958 251.72417397838453 L 255.34911241172418 252.0183142578815 L 255.33151798876605 252.31110900704928 L 255.313462686999 252.60253764731937 L 255.29495331426367 252.89257959718677 L 255.27599667993516 253.18121427201712 L 255.2565995949547 253.4684210839821 L 255.23676887187784 253.75417944177752 L 255.21651132492377 254.03846875038175 L 255.19583377001814 254.32126841094671 L 255.17474302485425 254.60255782047574 L 255.15324590895048 254.8823163716068 L 255.13134924370968 255.160523452412 L 255.10905985249428 255.437158446047 L 255.0863845606969 255.7122007305129 L 255.0633301958147 255.9856296784202 L 255.0399035875462 256.2574246565404 L 255.0161115678707 256.52756502562715 L 254.9919609711556 256.7960301399644 L 254.96745863425818 257.0627993470566 L 254.94261139664462 257.32785198718193 L 254.91742610050056 257.5911673931155 L 254.89190959088376 257.8527248894751 L 254.86606871584252 258.11250379250464 L 254.83991032658508 258.3704834094141 L 254.81344127763583 258.6266430379418 L 254.7866684270161 258.8809619657629 L 254.7595986364312 259.1334194699371 L 254.73223877147447 259.3839948162944 L 254.7045957018509 259.6326672587445 L 254.6766763016161 259.87941603856683 L 254.64848744942782 260.12422038370534 L 254.62003602883078 260.3670595079003 L 254.59132892854348 260.60791260994114 L 254.56237304279603 260.8467588726299 L 254.5331752716759 261.08357746184225 L 254.5037425214982 261.31834752555096 L 254.4740817052228 261.55104819264966 L 254.44419974290454 261.78165857170984 L 254.4141035621695 262.0101577497464 L 254.3838000987329 262.23652479087895 L 254.35329629698347 262.4607387347385 L 254.3225991105973 262.68277859491263 L 254.29171550320495 262.9026233572839 L 254.2606524491444 263.12025197805417 L 254.22941693425003 263.3356433818449 L 254.19801595673513 263.5487764595026 L 254.16645652816163 263.75963006569856 L 254.1347456744751 263.96818301651064 L 254.10289043717313 264.1744140865825 L 254.07089787456283 264.3783020062061 L 254.03877506315715 264.57982545806533 L 254.00652909919654 264.7789630737903 L 253.9741671003574 264.97569343001516 L 253.94169620759294 265.1699950443586 L 253.90912358719623 265.36184637086245 L 253.87645643310188 265.55122579491035 L 253.8437019693737 265.7381116280429 L 253.8108674530406 265.92248210185454 L 253.7779601772062 266.10431536155835 L 253.74498747451634 266.2835894589021 L 253.71195672104818 266.46028234427143 L 253.6788753406367 266.6343718581165 L 253.64575080972836 266.80583572145366 L 253.61259066284103 266.9746515253115 L 253.57940249866803 267.1407967192396 L 253.54619398700018 267.30424859835176 L 253.5129728764973 267.46498428917334 L 253.47974700351327 267.6229807337547 L 253.4465243020863 267.77821467207633 L 253.41331281529614 267.93066262242024 L 253.38012070821435 268.08030085939646 L 253.34695628268804 268.227105389395 L 253.3138279942629 268.3710519230918 L 253.307038842593 268.40000000000003 L 264.6472890045085 268.40000000000003 L 264.6952182249047 268.2833932139536 L 264.69639648206277 268.28050098236105 L 264.81251440035396 267.99290252044364 L 264.8136755434946 267.99000052958945 L 264.92807502241806 267.7014757552673 L 264.9292187715083 267.6985645847669 L 265.0418991926981 267.4091036041826 L 265.0430252801068 267.4061838396828 L 265.15398602519673 267.1157767589788 L 265.155094195951 267.11284899159904 L 265.264334646575 266.82148591691794 L 265.265424658596 266.8185507426806 L 265.37294419638795 266.5262217801649 L 265.37401582070424 266.5232797994188 L 265.4798138272981 266.22997505521107 L 265.48086684823704 266.2270268720479 L 265.58494270526666 265.93273645229067 L 265.5859769206232 265.9297826739557 L 265.68833000972256 265.6344966847915 L 265.6893452309045 265.63153792109074 L 265.7899749337074 265.3352464686622 L 265.7909709858579 265.3322833313672 L 265.88987668399835 265.0349765218167 L 265.89085340609495 265.0320096240672 L 265.98803448120685 264.7336775635374 L 265.9889917261369 264.7307075192446 L 266.08444755985414 264.431340313878 L 266.0853851944669 264.4283677371295 L 266.1791151684234 264.12795549306867 L 266.1800330735587 264.1249809975355 L 266.2720365693883 263.8235138209229 L 266.2729346398818 263.82053801927157 L 266.3632110392185 263.5180060162498 L 266.36408918388446 263.5150295195582 L 266.4526378683621 263.2114227962698 L 266.45349600995235 263.20844621345196 L 266.54031636120493 262.9037548760395 L 266.5411544363468 262.9007788132757 L 266.62624583600814 262.59499296788164 L 266.6270637951195 262.5920180280598 L 266.71042562482353 262.2851277808267 L 266.7112234320065 262.2821545629927 L 266.79285507338716 261.9741500200631 L 266.7936327063011 261.97117911888216 L 266.87353354099224 261.6620503863987 L 266.87429099070647 261.6590823916309 L 266.95246040034203 261.348819575736 L 266.95319767116837 261.3458550717229 L 267.0296350373823 261.0344482785591 L 267.03035214668955 261.0314878437261 L 267.1050568511157 260.718927179436 L 267.1057538291248 260.71597138580955 L 267.1787252533971 260.4022469565357 L 267.1794021429598 260.39929636927667 L 267.2506396687122 260.0843982811616 L 267.251296525073 260.0814534581145 L 267.3207995339393 259.76537181730066 L 267.3214364244807 259.7624333085621 L 267.3892042980949 259.4451582211921 L 267.38982130206944 259.44222656869533 L 267.45585342206545 259.12374814091174 L 267.4564506303125 259.1208238780313 L 267.5207463783242 258.80113221597657 L 267.5213238929743 258.7982158671515 L 267.5838826506356 258.4773010769683 L 267.58444058480296 258.47439315734493 L 267.64526173374776 258.1522453451757 L 267.64580021121145 258.14934636027044 L 267.7048831330737 257.8259556322577 L 267.7054022879485 257.82306607763996 L 267.7627463643621 257.49842253992637 L 267.76324634076127 257.49554290092175 L 267.81885095336 257.1696366596497 L 267.81933190504844 257.16676741106477 L 267.8731964354664 256.8395885723769 L 267.8736585255081 256.83673017824265 L 267.9257823553791 256.5082688482815 L 267.9262257557776 256.5054217616197 L 267.9766082667355 256.17566804652773 L 267.97703315806916 256.1728327091368 L 268.02567373174804 255.84177671505662 L 268.0260803028015 255.83895355731764 L 268.0729783208351 255.50658539039176 L 268.07336676822695 255.50377483109688 L 268.11852161224925 255.17008459746785 L 268.11889214005737 255.16728704366622 L 268.1623031917023 254.83226484947662 L 268.1626560110879 254.82948069634278 L 268.20432265198934 254.4931166477351 L 268.20465798081983 254.49034627845572 L 268.2445795926117 254.1526304815725 L 268.2448976550839 254.149874267253 L 268.28307361940006 253.8107968282368 L 268.28337464566465 253.80805512782666 L 268.319804344139 253.46760615281997 L 268.32008856992593 253.46487931305717 L 268.3547713841925 253.12304890820258 L 268.3550390504396 253.12033726357512 L 268.3879743621321 252.77711553501518 L 268.3882257146163 252.7744194077418 L 268.41941290536886 252.429796461619 L 268.4196481943411 252.42711616164505 L 268.44908664578753 252.08108210410197 L 268.44930612561285 252.07841792911378 L 268.476995219387 251.73096286629294 L 268.47719914818856 251.7283151017471 L 268.50313826592446 251.37942913979106 L 268.503326905234 251.37679805895866 L 268.5275154285655 251.0264713040099 L 268.52768904297926 251.02385716803707 L 268.55012635354024 250.67207972623822 L 268.5502852103819 250.6694827842193 L 268.57097068980624 250.31624476171282 L 268.57111505879647 250.31366525077829 L 268.5900480887182 249.95895675370676 L 268.59017824165164 249.95639489912244 L 268.60735820370456 249.6002060336284 L 268.60747441413497 249.5976620489094 L 268.62290068995304 249.23998292113538 L 268.62300323288594 249.23745700816875 L 268.636675204103 248.8782777242573 L 268.63676435569704 248.87577007343796 L 268.64868140394714 248.5150807395316 L 268.64875744122395 248.5125915299067 L 268.65891894814087 248.150382252148 L 268.6589821487039 248.14791165157268 L 268.6673874959216 247.78417253610414 L 268.66743813768403 247.7817207014044 L 268.6740867068364 247.4164418543686 L 268.6741250677577 247.41400893151393 L 268.6790162404787 247.04718045905338 L 268.67904259831147 247.04476658333635 L 268.682175756235 246.6763785915936 L 268.6821903882803 246.67398388781655 L 268.6835649130402 246.30402648293415 L 268.68356809591296 246.30165106560256 L 268.68318336914314 245.930114353723 L 268.68317537854693 245.92775832724476 L 268.68103078188136 245.55463241451065 L 268.6810118923925 245.5522958733998 L 268.6771068074651 245.17757086595364 L 268.6770772923267 245.17525389503967 L 268.6714111007713 244.798919899024 L 268.6713712316964 244.79662257366547 L 268.663943315147 244.41866969522286 L 268.66389336213126 244.41639208152307 L 268.6547031022217 244.03681042679602 L 268.65464333336575 244.03455258182376 L 268.64369011173 243.65333225695483 L 268.6436207930708 243.65109422896575 L 268.6309039913426 243.26822534009747 L 268.6308253866938 243.26600716875978 L 268.6163443865073 242.8814798220347 L 268.6162567573088 242.87928153865346 L 268.60001094029775 242.49308584021412 L 268.59991454547446 242.49090746796008 L 268.58190329327283 242.103033523949 L 268.5817983891016 242.10087507808535 L 268.56202108334327 241.7113129946451 L 268.56190792332893 241.70917448275637 L 268.5403639456478 241.31791436602944 L 268.5402427804069 241.31579578824937 L 268.51693151243694 240.92282774437837 L 268.51680258959044 240.9207290936178 L 268.4917234129655 240.52604322874524 L 268.4915869770389 240.5239644909193 L 268.4647392733929 240.12755091118768 L 268.4645955657245 240.12549206544134 L 268.43597871669135 239.72734087699325 L 268.43582797534776 239.72530189592638 L 268.40544136256136 239.32540320490432 L 268.4052838222606 239.3233840547943 L 268.37312682735495 238.92172796734084 L 268.37296271939675 238.91972860836327 L 268.33903472400567 238.51630523062096 L 268.3388642762084 238.51432561706878 L 268.3031646619658 238.10912505518013 L 268.3029880986103 238.10716513567985 L 268.26551624715006 237.7001774957874 L 268.2653337889296 237.69823721351253 L 268.2260890818857 237.28945260175885 L 268.22590094586263 237.28753189464092 L 268.1848827648689 236.8769404171685 L 268.18468916443715 236.87503921810483 L 268.1418968911276 236.46263098105626 L 268.1416980359802 236.46074921811453 L 268.0971310519888 236.04651432763245 L 268.09696471033584 236.04499021286227 L 268.062869240795 235.7369678403771 L 268.0625511344727 235.73416629020153 L 268.0269437598387 235.42826986033813 L 268.0266095818855 235.42546786794406 L 267.9895088531411 235.12168068481805 L 267.9891586438445 235.11887887798176 L 267.9505831119724 234.8171842457086 L 267.95021692556435 234.81438326113545 L 267.91018514154723 234.5147644838307 L 267.90980304646206 234.51196496676366 L 267.8683335612827 234.2144053485429 L 267.8679356403999 234.21160795235593 L 267.8250470050411 233.91609079733465 L 267.8246333559099 233.9132961831106 L 267.78034412135435 233.61980479540432 L 267.7799148564016 233.61701363149936 L 267.7342435736321 233.32553131522366 L 267.73379882035056 233.32274427681688 L 267.6867640403497 233.03325433608725 L 267.68630394146754 233.03047210472002 L 267.6379242152182 232.74295784365205 L 267.6374489288479 232.74018110675306 L 267.5877428073328 232.45462582946223 L 267.5872525070997 232.45185527986428 L 267.53623854130154 232.16824229046614 L 267.5357334164506 232.16547862591258 L 267.48343015735213 231.8837912285227 L 267.48291041283295 231.88103515116555 L 267.4293364114169 231.60125664989945 L 267.42880226794637 231.59850886579014 L 267.37397607519546 231.32062256476334 L 267.373427769297 231.31788378333846 L 267.317367936194 231.0418729866665 L 267.31680572021423 231.03914392022767 L 267.2595307977419 230.76499193202608 L 267.25895493984325 230.76227329521703 L 267.20048347898427 230.48996341960137 L 267.1998942631138 230.48725592888323 L 267.1402448148509 230.21677146996902 L 267.1396425406852 230.21407584309398 L 267.0788336560012 229.94540010499676 L 267.0782186388672 229.94271706048275 L 267.01626886874476 229.67583334731805 L 267.01564143951634 229.67316360392618 L 266.9525693349383 229.4080552198095 L 266.9519298399088 229.40539949602262 L 266.8877539518578 229.14204974506958 L 266.8871027525885 229.1394087585783 L 266.82184163204727 228.87780094490435 L 266.8211791051922 228.8751754120969 L 266.75485130314354 228.61529283981764 L 266.7541778402504 228.6126834752783 L 266.6868019076771 228.35450944850922 L 266.6861179149652 228.3519169645249 L 266.61771240284986 228.09543478738155 L 266.61701830096564 228.09285989345955 L 266.54760176029106 227.83805287005748 L 266.54689798403996 227.83549627245287 L 266.47648896578886 227.5823477069076 L 266.4757759638468 227.5798101081651 L 266.404393019002 227.3283033045922 L 266.40367125360433 227.3257854031005 L 266.3313329331485 227.07590366561544 L 266.3306028797593 227.07340615517802 L 266.25732773467513 226.8251327878964 L 266.256589881636 226.82265635731736 L 266.1823964629063 226.57597466435465 L 266.1816513110659 226.5735199970425 L 266.10655816967335 226.3284132825143 L 266.10580623199894 226.32598105610458 L 266.0298319189264 226.0824326241264 L 266.0290737200973 226.08002351012232 L 265.9522367863274 225.8380166648097 L 265.95147286231264 225.8356313282453 L 265.87379185882816 225.59514937371375 L 265.87302275644714 225.5927884728358 L 265.7945162342308 225.35381471320088 L 265.79374251070016 225.35147889917485 L 265.7144290207347 225.1139966385521 L 265.7136512432007 225.1116865551895 L 265.63354933646883 224.87567909769444 L 265.6327680815274 224.8733953812044 L 265.55189630901185 224.63884603095258 L 265.5511121622163 224.6365893097172 L 265.46948907489997 224.40348137082412 L 265.46870263025806 224.40125226519712 L 265.3863467791235 224.16956904177837 L 265.3855586385848 224.16736816391096 L 265.3024885746148 223.93709296008203 L 265.30169934754895 223.9349209137723 L 265.21793362172633 223.70603703364873 L 265.2171439243934 223.70389441421602 L 265.13270108770075 223.47638516191338 L 265.13191154271584 223.47427255610103 L 265.046810146136 223.24812123573483 L 265.0460213819264 223.24603922163553 L 264.9602799764421 223.0212291373213 L 264.9594926267006 223.0191782843303 L 264.87312976329457 222.79569274018363 L 264.87234446642896 222.79367360897726 L 264.7853786960839 222.5714959091136 L 264.7845960946629 222.5695090516535 L 264.69704596836164 222.34862250018844 L 264.696266708559 222.34666845975076 L 264.6081507772842 222.12705636079983 L 264.60737550832135 222.1251356720304 L 264.51871232305575 221.90678132970913 L 264.5179416966442 221.9048945187034 L 264.4287498083706 221.6877812371273 L 264.42798447815414 221.68592882153365 L 264.33828243785524 221.4700399048183 L 264.33752305885344 221.46822239396715 L 264.24732941751193 221.25354114622803 L 264.24657664556526 221.25175904128312 L 264.155909954164 221.03826876663584 L 264.1551644453803 221.03652256076828 L 264.0640432549019 220.82420656332832 L 264.0633056651071 220.82249674191414 L 263.9717485265344 220.61133832579702 L 263.97101951072455 220.60966536663418 L 263.8790449750402 220.3996478359555 L 263.87832518683865 220.39801220950375 L 263.7859518050254 220.18911886837898 L 263.7852418961429 220.18752103801805 L 263.69248821918353 219.9797351905628 L 263.69178883888287 219.9781756128699 L 263.5986734177601 219.77148056319965 L 263.5979852123255 219.76995968824588 L 263.5045265980221 219.56433874047616 L 263.5038502102323 219.56285701213878 L 263.41006695373096 219.35829347038515 L 263.40940302233827 219.35685132667723 L 263.31531367462173 219.15332849505523 L 263.3146628338343 219.15192636846942 L 263.22028594588534 218.94942755109457 L 263.2196488248552 218.94806586896127 L 263.1250029476565 218.7465743699491 L 263.1243801699718 218.74525355480765 L 263.02948385450617 218.5447526782737 L 263.0288760376873 218.54347314825512 L 262.93374783493744 218.34394619831494 L 262.9331555899382 218.34270836753544 L 262.83781405088683 218.14413864830456 L 262.83723798159866 218.14294292726825 L 262.7417016572286 217.94531374286223 L 262.7411423599883 217.9441605388715 L 262.64542980128215 217.7474551934058 L 262.64488786438346 217.74634491098055 L 262.5490176223241 217.55054670857078 L 262.54849362553057 217.54947974987 L 262.4524842511006 217.35457199463167 L 262.4519787651622 217.3535487598828 L 262.3558488093445 217.15951475593144 L 262.35536239551357 217.1585356438597 L 262.2591304092908 216.96535869531084 L 262.2586636188411 216.96442410357236 L 262.162348153196 216.77208751454157 L 262.16190152694054 216.7711978401557 L 262.06552113285585 216.57968491475847 L 262.06509520066425 216.57884055453826 L 261.96866842912266 216.38813459689015 L 261.9682637094383 216.38733594787217 L 261.87180911142264 216.1974202620887 L 261.87142611077644 216.19666772195635 L 261.77496223726945 216.00752561215307 L 261.77460144979165 216.00681957965557 L 261.678146851776 215.81843434994803 L 261.6778087587045 215.81777522531286 L 261.5813819871629 215.63013017981658 L 261.58106705634617 215.6295183651515 L 261.4846866622615 215.44259680798203 L 261.48439534765663 215.4420327076677 L 261.3880798820115 215.25581794294052 L 261.3878126231763 215.25530196401172 L 261.2915806369535 215.0697772958424 L 261.2913378585307 215.06930984835418 L 261.1949900139072 214.8840400782381 L 261.0987880335225 214.69947637491342 L 261.00275084508064 214.51560246365207 L 260.9068973592202 214.33240207404322 L 260.8112464689505 214.14985894026563 L 260.71581704907516 213.9679568013349 L 260.6206279556027 213.78667940132408 L 260.5256980251441 213.60601048955732 L 260.4310460742955 213.42593382076961 L 260.33668004365626 213.2464124994086 L 260.2426015512901 213.06739762082978 L 260.2304403203463 213.04559652003135 L 260.1823403732054 212.96421336969664 L 260.13471273695797 212.8832036661325 L 260.0872620346444 212.80206984025986 L 260.0399876913719 212.72081311685025 L 259.9928891319602 212.6394347209527 L 259.94596578109974 212.55793587816325 L 259.8992170632579 212.47631781446304 L 259.8526424026835 212.39458175622408 L 259.80624122340305 212.31272893019982 L 259.76001294926414 212.23076056360068 L 259.7139570039009 212.14867788403134 L 259.66807281066446 212.0664821193644 L 259.6223597927607 211.98417449798356 L 259.5768173731121 211.90175624853447 L 259.53144497445044 211.81922860008837 L 259.48624201925855 211.73659278203434 L 259.4412079297876 211.65385002410792 L 259.39634212804697 211.571001556369 L 259.3516440358236 211.488048609235 L 259.3071130746439 211.4049924134069 L 259.2627486658025 211.32183419991898 L 259.218550230382 211.23857520017327 L 259.17451718914305 211.15521664572924 L 259.13064896266326 211.07175976856107 L 259.086944971259 210.98820580090725 L 259.04340463494776 210.90455597519363 L 259.0000273735913 210.82081152430447 L 258.95681260668573 210.73697368117433 L 258.91375975356567 210.65304367917796 L 258.8708682332334 210.56902275179507 L 258.82813746450523 210.4849121328904 L 258.78556686589724 210.40071305648698 L 258.74315585565233 210.31642675681354 L 258.7009038517911 210.2320544684005 L 258.65881027206785 210.14759742598895 L 258.61687453394245 210.0630568644691 L 258.5750960546484 209.9784340190112 L 258.5334742511548 209.89373012498612 L 258.4920085401215 209.80894641786657 L 258.4506983380259 209.7240841334832 L 258.40954306100605 209.63914450769644 L 258.36854212496576 209.55412877660854 L 258.3276949455664 209.46903817654095 L 258.2870009381584 209.38387394388684 L 258.2464595178776 209.29863731530705 L 258.2060700995531 209.2133295275317 L 258.1658320977688 209.1279518174841 L 258.1257449268424 209.04250542223025 L 258.08580800084627 208.9569915790192 L 258.04602073354715 208.87141152514803 L 258.0063825384684 208.78576649808917 L 257.96689282890003 208.70005773550722 L 257.9275510178016 208.61428647504295 L 257.8883565179387 208.52845395460432 L 257.8493087417845 208.44256141214595 L 257.8104071015123 208.35661008564614 L 257.77165100911225 208.27060121335975 L 257.7330398762461 208.18453603348982 L 257.69457311434974 208.09841578441018 L 257.6562501345829 208.01224170454697 L 257.618070347851 207.92601503242236 L 257.5800331648063 207.83973700665064 L 257.5421379958305 207.75340886589328 L 257.50438425106455 207.66703184892108 L 257.4667713403569 207.5806071944895 L 257.42929867334664 207.49413614152323 L 257.3919656593847 207.40761992892976 L 257.3547717075762 207.32105979569076 L 257.31771622677235 207.23445698083663 L 257.28079862556854 207.14781272343768 L 257.24401831230506 207.06112826259826 L 257.2073746950862 206.9744048374965 L 257.1708671817567 206.88764368732302 L 257.1344951798713 206.80084605120186 L 257.0982580968283 206.71401316850296 L 257.06215533968845 206.62714627840376 L 257.0261863153083 206.54024662020237 L 256.99035043026373 206.45331543312753 L 256.95464709093363 206.36635395653542 L 256.91907570343466 206.27936342974502 L 256.8836356736177 206.19234509202425 L 256.8483264071075 206.1053001826799 L 256.81314730928693 206.0182299410135 L 256.7780977852939 205.9311356063078 L 256.7431772400258 205.8440184178321 L 256.7083850781662 205.7568796149026 L 256.6737207041134 205.66972043669819 L 256.6391835220839 205.5825421225139 L 256.60477293597216 205.495345911402 L 256.57048834955384 205.40813304267925 L 256.5363291662995 205.32090475545027 L 256.5022947894251 205.23366228872874 L 256.468384621977 205.14640688164886 L 256.4345980667416 205.0591397732285 L 256.4009345262684 204.9718622024234 L 256.3673934028704 204.884575408121 L 256.3339740986663 204.797280629245 L 256.3006760155021 204.70997910454525 L 256.2732247879613 204.63774074873754 L 256.2419467622808 204.53571761388463 L 256.2062455200089 204.41841588305851 L 256.17078530601566 204.30105143174487 L 256.13556550969844 204.18362423935 L 256.10058552055085 204.06613428529806 L 256.0658447282443 203.94858154931103 L 256.0313425225441 203.8309660111333 L 255.99707829336464 203.71328765072653 L 255.9630514307397 203.59554644817382 L 255.9292613248391 203.47774238374618 L 255.89570736593987 203.35987543780837 L 255.86238894446262 203.24194559095488 L 255.82930545093086 203.12395282387232 L 255.79645627600067 203.00589711745377 L 255.76384081043196 202.88777845270292 L 255.73145844510807 202.7695968108115 L 255.69930857102182 202.65135217311666 L 255.66739057928223 202.5330445211337 L 255.63570386110166 202.41467383651553 L 255.6042478078043 202.29624010109214 L 255.5730218108183 202.17774329684863 L 255.5420252616754 202.05918340593198 L 255.51125755200215 201.94056041062402 L 255.48071807354688 201.82187429345436 L 255.45040621812961 201.70312503701373 L 255.4203213776819 201.58431262411648 L 255.3904629442271 201.46543703773187 L 255.36083030988055 201.34649826099195 L 255.3314228668427 201.22749627717238 L 255.3022400074194 201.10843106978166 L 255.27328112398098 200.9893026224036 L 255.24454560899392 200.87011091883366 L 255.21603285501774 200.75085594307524 L 255.1877422546678 200.63153767919226 L 255.15967320067028 200.51215611154814 L 255.1318250858022 200.39271122455992 L 255.10419730292762 200.27320300286007 L 255.07678924499248 200.15363143128388 L 255.0496003049916 200.03399649473258 L 255.02262987601463 199.9142981783832 L 254.99587735121227 199.79453646754828 L 254.9693421237875 199.67471134764378 L 254.94302358703513 199.55482280437525 L 254.91692113428005 199.43487082346667 L 254.8910341589379 199.3148553909443 L 254.86536205447175 199.19477649294706 L 254.83990421439523 199.07463411574827 L 254.81466003228843 198.9544282458377 L 254.78962890178215 198.83415886985605 L 254.76481021656264 198.71382597462625 L 254.74020337036023 198.59342954710573 L 254.7158077569543 198.47296957441904 L 254.69162277017887 198.35244604389317 L 254.6676478039081 198.23185894299476 L 254.6438822520641 198.11120825937633 L 254.62032550860286 197.99049398081513 L 254.59697696753116 197.86971609530474 L 254.57383602288473 197.74887459095322 L 254.5509020687425 197.6279694560639 L 254.52817449922094 197.50700067911535 L 254.50565270845948 197.38596824869038 L 254.48333609064738 197.26487215362903 L 254.46122403998865 197.1437123828488 L 254.43931595071916 197.02248892544256 L 254.4176112171157 196.9012017707395 L 254.3961092334583 196.77985090810293 L 254.37480939406993 196.65843632716022 L 254.35371109329364 196.53695801768345 L 254.332813725481 196.41541596952968 L 254.31211668502306 196.29381017282822 L 254.29161936630967 196.1721406177524 L 254.27132116376407 196.05040729472998 L 254.25122147181338 195.92861019427696 L 254.23131968490506 195.80674930710313 L 254.21161519749438 195.6848246240455 L 254.19210740405094 195.56283613611518 L 254.1727956990576 195.44078383449943 L 254.15367947699144 195.31866771045048 L 254.13475813235874 195.19648775551337 L 254.11603105964866 195.07424396124046 L 254.09749765336883 194.95193631942652 L 254.07915730802276 194.82956482197096 L 254.0610094181207 194.70712946095608 L 254.04305337817362 194.58463022861687 L 254.0252885826823 194.46206711727277 L 254.00771442615462 194.33944011945468 L 253.99033030309138 194.21674922781534 L 253.9731356079872 194.09399443514184 L 253.95612973533633 193.9711757344069 L 253.939312079619 193.8482931186767 L 253.92268203530915 193.72534658117615 L 253.90623899687202 193.60233611527718 L 253.8899823587633 193.47926171450226 L 253.87391151542377 193.35612337249077 L 253.8580258612865 193.23292108306157 L 253.84232479075743 193.1096548400709 L 253.82680769824486 192.98632463764918 L 253.8114739781313 192.8629304699893 L 253.79627686751377 192.73909621710567 L 253.79449916751736 192.72603667581328 L 253.78546951858968 192.66566683810242 L 253.7765305830357 192.60556187560266 L 253.76765069687602 192.54551415735327 L 253.75882924922917 192.48552366547617 L 253.75006562919066 192.4255903822599 L 253.74135922579018 192.36571428987475 L 253.73270942803006 192.30589537064833 L 253.72411562485107 192.24613360683767 L 253.7155772051451 192.1864289807275 L 253.7070935577586 192.12678147466266 L 253.69866407147245 192.06719107091712 L 253.69028813503897 192.0076577519651 L 253.68196513711345 191.94818150000538 L 253.67369446634117 191.88876229758986 L 253.66547551125876 191.8294001269286 L 253.66142635487685 191.8 L 249.5115311630267 191.8 L 249.52422775037772 191.92974696456733 Z" id="element_213" /></svg>