<?xml version='1.0' encoding='utf-8'?>
<svg xmlns:svg="http://www.w3.org/2000/svg" version="1.1" id="Layer_1" x="0px" y="0px" viewBox="0 0 500 500" style="width: 188px;" xml:space="preserve" data-imageid="moscow-46" imageName="Moscow" class="illustrations_image"><svg:style type="text/css">
	.st0_moscow-46{fill:#FFFFFF;}
	.st1_moscow-46{fill:#231F20;}
	.st2_moscow-46{fill:#68E1FD;}
	.st3_moscow-46{fill:#D1D3D4;}
</svg:style><svg:path class="st1_moscow-46" d="M 361.4395349352178 368.8953943060924 L 361.36672606815057 369.0081164348286 L 361.2956105165189 369.12192813795417 L 361.22620454218924 369.2368108216459 L 361.1585243725566 369.35274592194656 L 361.0925862009203 369.4697149085468 L 361.0426502576375 369.5615139119984 L 361.1822442344354 369.6760709402953 L 361.18654047919534 369.6796369575198 L 361.3498234466105 369.8167138791697 L 361.35407962413854 369.82032766645307 L 361.5158989190157 369.9592856577527 L 361.5201146278804 369.96294687926235 L 361.68045355433503 370.10377480962194 L 361.6846283905937 370.10748312720307 L 361.8434702527413 370.25016986603305 L 361.84760380971073 370.25392493875086 L 362.0049319116669 370.3984593554616 L 362.0090237797204 370.4022608391317 L 362.1648214256007 370.5486318031335 L 362.1688711919903 370.55247934983964 L 362.3231216859102 370.7006757305429 L 362.3271289346141 370.704568988143 L 362.4798155806892 370.8545796549581 L 362.4837798922863 370.85851826658103 L 362.63488599463204 371.01033208891823 L 362.6388069462037 371.01431569245125 L 362.78831580893575 371.167921539721 L 362.79219297399493 371.17194976728973 L 362.94008790122865 371.32733650890236 L 362.9439208496767 371.33140898634383 L 363.0901851455278 371.4885654917097 L 363.0939734436407 371.49268183804116 L 363.23859041222465 371.6515969765706 L 363.2423336226671 371.6557568034534 L 363.38528656809933 371.81641944455686 L 363.38898424996756 371.82062235575694 L 363.5302564763638 371.9830213688446 L 363.5339081852604 371.98726695969475 L 363.673482996736 372.1513912141772 L 363.6770882848704 372.15567907103474 L 363.81494898554104 372.3215174363221 L 363.81850740186405 372.32584713603234 L 363.95463729584515 372.49338848153513 L 363.9581483862099 372.497759590894 L 364.0925307776171 372.66699278602255 L 364.0959940849731 372.67140486124674 L 364.22861227792185 372.84231877541134 L 364.2320273425369 372.84677136161116 L 364.36286464114283 373.0193548642222 L 364.3662310008568 373.0238474948839 L 364.49527070923534 373.1980894553518 L 364.49858789974223 373.2026216518268 L 364.625813322009 373.3785109395618 L 364.62908087717125 373.3830822105681 L 364.75447531744175 373.5606076949806 L 364.75769276963206 373.56521753611423 L 364.88123953202177 373.74436808661466 L 364.88440641249485 373.7490159798747 L 365.0060888011194 373.9297804658733 L 365.0092046404144 373.93446587920363 L 365.12900595938925 374.1168331701109 L 365.1320702877581 374.1215555569552 L 365.2499738411989 374.30551452218134 L 365.25298618906544 374.3102733210599 L 365.36897528108756 374.4958128300154 L 365.371935179532 374.50060746411805 L 365.4859931142511 374.6877163862132 L 365.488900095523 374.6925462630161 L 365.60101017705455 374.88121346766127 L 365.6038637751107 374.886077978565 L 365.7140093075703 375.0762923351706 L 365.7168090586388 375.08119085516313 L 365.8249733461419 375.27294123313936 L 365.82771878931 375.27787312048537 L 365.89735607353344 375.40464742559215 L 366.03970395755294 375.1460999603774 L 366.0436715161106 375.1390299334917 L 366.1979580813858 374.8692460833589 L 366.20203709130857 374.8622457959019 L 366.3601624732785 374.5958604858068 L 366.36435113008827 374.58893248415535 L 366.52626276763505 374.32596426508064 L 366.5305592180118 374.31911098991486 L 366.6962045500177 374.0595784128432 L 366.7006068981731 374.05280219826966 L 366.8699333635203 373.79672381418396 L 366.8744396775016 373.7900268873252 L 367.04739471507247 373.53742124720804 L 367.0520030329642 373.5308057282425 L 367.228534081641 373.28169138307675 L 367.23324241763413 373.27515928571495 L 367.413296916299 373.0295547864833 L 367.4181032666008 373.0231080188594 L 367.60162865413594 372.7810319165445 L 367.60653100269263 372.77467228250583 L 367.7934747179804 372.53614312809054 L 367.79847104199064 372.529872328862 L 367.9887805239132 372.294908673329 L 367.9938687991113 372.2887283095278 L 368.1874914865509 372.0573487038599 L 368.1926696922397 372.0512602778388 L 368.3895530240787 371.82348327301867 L 368.39481914789656 371.8174881915113 L 368.59491056301704 371.59333233852163 L 368.6002626054259 371.58743191556266 L 368.8035095427102 371.3669157653863 L 368.80894552118986 371.3611112254842 L 369.01529541952016 371.1442533291038 L 369.0208133724635 371.13854581063566 L 369.2302136707221 370.925364719034 L 369.23581166101985 370.91975527783984 L 369.44820979808895 370.71026954199965 L 369.45388591640204 370.70475915514754 L 369.6692293311639 370.4989873260516 L 369.67498169887784 370.4935768957501 L 369.89321783021467 370.29153752438106 L 369.89904460207555 370.2862278820134 L 370.1201208888696 370.08793951935405 L 370.12602025530174 370.08273142960957 L 370.3498841364353 369.88821262664266 L 370.3558543255417 369.8831067917228 L 370.58245323989695 369.69237609943104 L 370.5884925191472 369.6873731633065 L 370.8177739056065 369.50044913267266 L 370.8238805832141 369.4955496853723 L 371.0557918806595 369.3124508673791 L 371.0619643066569 369.3076554492867 L 371.29645295397074 369.12840039491687 L 371.30268952098646 369.1237095010602 L 371.539702957051 368.94831676129644 L 371.54600210079786 368.9437308456076 L 371.7854877644953 368.7722189714327 L 371.79184796397624 368.76773845096375 L 372.0337532941889 368.6001259933605 L 372.0401730716307 368.59575125243816 L 372.2844455072408 368.4320567623892 L 372.2909234277645 368.4277881566932 L 372.53751040765417 368.2680301851814 L 372.544045078691 368.263868045733 L 372.7928940417426 368.1080651437409 L 372.7994841122069 368.1040097807882 L 373.0505424973026 367.9521804992987 L 373.05718665653035 367.9482322060874 L 373.3104019025525 367.80039509608315 L 373.3170988790175 367.7965541525001 L 373.57241842484825 367.6527277649639 L 373.57916698466477 367.648994441046 L 373.83653826918635 367.50919732696053 L 373.84333721441044 367.50557188625595 L 374.1027076765051 367.369822596604 L 374.1095558432431 367.3663052993809 L 374.37087292179314 367.23462238514514 L 374.37776917813 367.2312134914364 L 374.6409803120176 367.10361550359966 L 374.64792355577356 367.10031527607936 L 374.90146352564045 366.9821847950384 L 374.8751927602312 366.95922536181797 L 374.7689778494915 366.8692359573889 L 374.6613848523772 366.78088088109877 L 374.5524342191174 366.69417916931144 L 374.4421464024504 366.60914982602236 L 374.3305418538779 366.525811821216 L 374.2176410198802 366.44418408951196 L 374.1034643379895 366.3642855290155 L 373.9880322327137 366.2861350003746 L 373.8713651114574 366.20975132614416 L 373.75348336026207 366.1351532903352 L 373.63440733953115 366.0623596382625 L 373.514157379674 365.99138907664434 L 373.39275377671834 365.9222602739858 L 373.27021678784496 365.85499186121643 L 373.1465666269494 365.7896024326429 L 373.0218234601773 365.7261105471809 L 372.8960074014851 365.66453472989247 L 372.76913850819307 365.60489347380866 L 372.6412367766471 365.5472052420887 L 372.5123221379031 365.49148847046814 L 372.3824144535188 365.437761570029 L 372.25153351146696 365.38604293028834 L 372.11969902215804 365.3363509225897 L 371.98693061466565 365.28870390382616 L 371.8532478330909 365.24312022045353 L 371.718670133169 365.19961821282084 L 371.58321687909535 365.15821621979205 L 371.4469073406417 365.11893258366393 L 371.30976069052014 365.08178565534786 L 371.17179600210386 365.04679379982645 L 371.03303224747447 365.0139754018518 L 370.8934882958385 364.9833488718713 L 370.7531829123593 364.95493265216584 L 370.612134757363 364.9287452231594 L 370.4703623860567 364.90480510990125 L 370.3278842486554 364.88313088866255 L 370.18471869101586 364.8637411936349 L 370.0408839557886 364.84665472369215 L 369.89639818403407 364.83189024917283 L 369.7512794174738 364.8194666186611 L 369.60554560114167 364.8094027657031 L 369.45921458670875 364.8017177154407 L 369.3123041362697 364.7964305911036 L 369.16483192671393 364.7935606203238 L 369.0168155546364 364.7931271412259 L 368.8682725417457 364.7951496082493 L 368.7192849347755 364.79964564838843 L 368.57317322177954 364.8065162067433 L 368.4274374195496 364.81564824898174 L 368.2823977460174 364.82700854196804 L 368.1380686835721 364.840578318855 L 367.99446477645097 364.85633889562916 L 367.85160063422825 364.8742716666948 L 367.70949093496404 364.8943581003014 L 367.5681504279847 364.91657973384434 L 367.4275939362571 364.9409181690726 L 367.28783635844263 364.9673550672177 L 367.1488926705349 364.9958721440854 L 367.0107779271489 365.026451165128 L 366.87350726245967 365.0590739405203 L 366.7370958907619 365.0937223202736 L 366.6015591067161 365.1303781893976 L 366.4669122852588 365.1690234631373 L 366.3331708811635 365.2096400823153 L 366.200350428339 365.25221000877633 L 366.0684665388241 365.2967152209667 L 365.93753490149726 365.3431377096638 L 365.8075712805388 365.39145947386334 L 365.6785915136481 365.44166251684226 L 365.5506115100436 365.4937288424019 L 365.42364724824927 365.547640451309 L 365.29771477370304 365.60337933793375 L 365.1728301961663 365.660927487108 L 365.0490096870246 365.72026687117796 L 364.9262694763754 365.7813794473103 L 364.8046258501193 365.8442471549602 L 364.68409514677387 365.90885191364845 L 364.56469375437075 365.9751756208765 L 364.4464381071424 366.04320015033795 L 364.329344682245 366.1129073503037 L 364.2134299963656 366.18427904226957 L 364.09871060233183 366.25729701980725 L 363.98520308570215 366.3319430476338 L 363.8729240613224 366.4081988609155 L 363.76189016991805 366.4860461647649 L 363.65211807466153 366.5654666339759 L 363.5436244578162 366.64644191292956 L 363.43642601735235 366.7289536157473 L 363.33053946365703 366.8129833266087 L 363.2259815162636 366.89851260028837 L 363.1227689006761 366.9855229628564 L 363.02091834521605 367.07399591260446 L 362.9204465779894 367.16391292111757 L 362.82137032390426 367.2552554345527 L 362.72370630181956 367.34800487505436 L 362.627471221723 367.44214264240435 L 362.5326817821145 367.53765011574 L 362.439354667388 367.6345086555421 L 362.3475065454296 367.73269960568234 L 362.25715406527985 367.8322042956819 L 362.16831385493845 367.9330040431061 L 362.0810025193394 368.03508015606485 L 361.9952366384198 368.13841393590565 L 361.9110327653791 368.24298667999386 L 361.82840742507494 368.34877968464406 L 361.74737711260155 368.45577424814866 L 361.6679582920107 368.5639516739592 L 361.5901673952525 368.67329327392 L 361.5140208212469 368.78378037167874 L 361.4395349352178 368.8953943060924 Z" id="element_287" /></svg>