<?xml version='1.0' encoding='utf-8'?>
<svg xmlns:svg="http://www.w3.org/2000/svg" version="1.1" id="Layer_1" x="0px" y="0px" viewBox="0 0 500 500" style="width: 188px;" xml:space="preserve" data-imageid="moscow-46" imageName="Moscow" class="illustrations_image"><svg:style type="text/css">
	.st0_moscow-46{fill:#FFFFFF;}
	.st1_moscow-46{fill:#231F20;}
	.st2_moscow-46{fill:#68E1FD;}
	.st3_moscow-46{fill:#D1D3D4;}
</svg:style><svg:path class="st2_moscow-46 targetColor" d="M 183.5802908201626 263.7617739908159 L 183.52866151097933 263.9623853763669 L 183.4782832439042 264.16539199429417 L 183.42916662765074 264.37082447868255 L 183.3813223198849 264.5787133729789 L 183.33476102254437 264.7890891302271 L 183.28936435543534 265.00258937275044 L 183.24106727830642 265.23630476478314 L 183.19733746498363 265.46684674058326 L 183.15757740633177 265.6968113756026 L 183.12172927540792 265.92618453300133 L 183.08973554447562 266.1549519256091 L 183.06153897197024 266.38309909527965 L 183.03708258803496 266.610611393913 L 183.01630967881093 266.8374739663104 L 182.99916376968378 267.0636717348973 L 182.98558860768378 267.289189386413 L 182.97552814324467 267.5140113605262 L 182.96892651151165 267.73812184046903 L 182.96572801339454 267.9615047455788 L 182.96587709654386 268.18414372577587 L 182.96931833642194 268.40602215785293 L 182.97599641762548 268.62712314355247 L 182.98585611560304 268.84742950930064 L 182.99884227889498 269.06692380750127 L 183.014899812008 269.28558831927836 L 183.03397365902123 269.50340505855326 L 183.05600878800044 269.72035577729275 L 183.0809501762902 269.9364219718607 L 183.1087427967268 270.151584890273 L 183.13933160481315 270.3658255402957 L 183.1726615268708 270.57912469819735 L 183.20867744918522 270.7914629180938 L 183.24732420813763 271.00282054172726 L 183.28854658131277 271.2131777085865 L 183.33228927956756 271.4225143662871 L 183.37849694002264 271.63081028106717 L 183.42711411995492 271.8380450483713 L 183.47808529154352 272.0441981034034 L 183.5313548374305 272.249248731599 L 183.58686704704866 272.4531760789457 L 183.6445661136699 272.6559591621085 L 183.70439613211698 272.85757687828084 L 183.7663010971117 273.05800801480757 L 183.83022490216985 273.25723125840705 L 183.896111339036 273.45522520411254 L 183.96390409757873 273.6519683638077 L 184.03354676611798 273.84743917440073 L 184.10498283212326 274.04161600557853 L 184.17815568325813 274.23447716718834 L 184.25300860871013 274.4260009161873 L 184.32948480078636 274.61616546321386 L 184.4075273567169 274.80494897872694 L 184.4870792806588 274.99232959878765 L 184.56808348583542 275.17828543040787 L 184.65048279682676 275.36279455658166 L 184.73421995191316 275.54583504084945 L 184.81923760555082 275.7273849316376 L 184.90547833084457 275.90742226613844 L 184.99288462207835 276.08592507392194 L 185.0813988972405 276.2628713801969 L 185.17096350057062 276.4382392088264 L 185.261520705047 276.6120065849775 L 185.35301271485704 276.78415153753235 L 185.44538166782857 276.9546521012541 L 185.5385696377942 277.12348631868673 L 185.6325186368643 277.29063224177804 L 185.72717061767872 277.45606793338044 L 185.82246747548947 277.61977146838996 L 185.9183510502428 277.78172093484716 L 186.01476312847106 277.9418944346888 L 186.11164544513176 278.1002700844101 L 186.20893968533562 278.2568260155537 L 186.30658748589443 278.4115403749303 L 186.40453043681137 278.5643913247894 L 186.50271008259273 278.7153570427564 L 186.6010679234327 278.8644157216354 L 186.6995454162415 279.01154556904567 L 186.79808397552196 279.1567248069114 L 186.8966249740836 279.2999316708022 L 186.99510974354044 279.4411444090583 L 187.0934795746838 279.5803412818481 L 187.19167571757865 279.7175005599505 L 187.28963938148624 279.85260052342653 L 187.38731173452544 279.98561946006924 L 187.48463390305963 280.1165356636326 L 187.58154697080897 280.2453274318561 L 187.67799197763978 280.3719730642388 L 187.77390991797128 280.49645085950544 L 187.86924173878938 280.6187391127765 L 187.96392833721052 280.73881611239494 L 188.05791055752923 280.8566601363554 L 188.15112918762205 280.9722494482103 L 188.24352495476978 281.0855622925741 L 188.33503852056256 281.1965768898543 L 188.42561047500206 281.3052714304111 L 188.51518132947447 281.41162406780944 L 188.60369150846506 281.51561291109306 L 188.68060222934213 281.6050325599916 L 189.38326889310477 279.30010687949635 L 189.36197625466937 279.25096887001456 L 189.36063555534267 279.2478458244233 L 189.29559508843505 279.09490770947104 L 189.294275312652 279.09177481853146 L 189.23030647418054 278.93847063085326 L 189.22900770076285 278.93532803597844 L 189.1661117274598 278.7816627225029 L 189.16483403415 278.7785105655415 L 189.10301216274746 278.62448907319737 L 189.10175562621697 278.6213274964379 L 189.04100909344717 278.466954772154 L 189.0397737893042 278.4637839183318 L 188.98010383189933 278.3090649090367 L 188.97888983469676 278.30588492134086 L 188.92029768938897 278.1508245739634 L 188.9191050726309 278.1476355960436 L 188.86159197615243 277.99223885751246 L 188.86042081230096 277.9890410334874 L 188.8039880013839 277.8333128507314 L 188.80283836186484 277.8301063251962 L 188.74748707324142 277.67405164514395 L 188.74635902844972 277.67083656317965 L 188.69209049885214 277.51446033276 L 188.69098411815668 277.51123683994217 L 188.63779958431712 277.3545440060837 L 188.63671493606495 277.35131224849255 L 188.58461563471556 277.1943077581241 L 188.58355278623523 277.19106788235314 L 188.53253995410824 277.03375668240346 L 188.53149897171312 277.0305088355711 L 188.48157384554068 276.8728958729688 L 188.48055479453092 276.8696402027281 L 188.4317186110452 276.71173042440205 L 188.43072155570957 276.70846707895157 L 188.38297555164277 276.55026543183044 L 188.38200055525962 276.54699455992557 L 188.33534596734395 276.38850599093803 L 188.33439309218167 276.3852277419029 L 188.28883115714927 276.22645719797777 L 188.28790046446557 276.2231717217155 L 188.24343241904862 276.06412414978155 L 188.24252396908972 276.0608315967871 L 188.19915105002045 275.9015119437729 L 188.19826490201942 275.8982124651452 L 188.15598834603 275.7386256779796 L 188.155124558204 275.73531942543315 L 188.11394560202655 275.57547045104485 L 188.11310423157366 275.5721575769215 L 188.07302411194044 275.4120513622392 L 188.07220521503595 275.40873201952206 L 188.0332251686791 275.24837351147454 L 188.03242880047054 275.24504785379895 L 187.99455006412225 275.08444199931495 L 187.99377627872403 275.08111018098157 L 187.9570000891165 274.9202619269898 L 187.95624893960388 274.9169241029771 L 187.9205765334693 274.7558383964062 L 187.91984807187137 274.75249472238306 L 187.88528068594186 274.59117651016186 L 187.88457496323366 274.5878271424992 L 187.8511138342415 274.4262813715564 L 187.85043090033588 274.42292646734086 L 187.81807726501316 274.26115808460526 L 187.81741716875138 274.2577978016501 L 187.7861722638303 274.0958117540503 L 187.7855350529721 274.09244625090867 L 187.7554001151849 273.9302474853735 L 187.75478583639776 273.92687692134973 L 187.72576210247655 273.7644703848079 L 187.72517080132423 273.76109491996925 L 187.69725950800125 273.59848555934946 L 187.69669122893148 273.5951053545385 L 187.6698936129389 273.4322981167695 L 187.66934839927043 273.42891333361445 L 187.6436656973404 273.26591316562497 L 187.64314359124916 273.2625239665511 L 187.6185770401139 273.0993358152699 L 187.61807808261872 273.09594236351097 L 187.59462891901038 272.93257117586677 L 187.5941531499573 272.92917363547394 L 187.5718226106081 272.7656243583954 L 187.57137006865497 272.7622228942493 L 187.55015939029707 272.59850047466523 L 187.54973011289633 272.5950952524838 L 187.52964053226188 272.43120463732294 L 187.52923455564343 272.4277958236713 L 187.5102673094647 272.26374195986233 L 187.50988466861773 272.26032972216257 L 187.49204099362683 272.0961175566342 L 187.49168172228087 272.0927020631721 L 187.47496285520998 271.9283365428531 L 187.47462698581558 271.92491796278676 L 187.45903416339692 271.7604040346058 L 187.45872172710529 271.7569825379732 L 187.44425618607104 271.5923251488592 L 187.44396721271323 271.58890090658446 L 187.43063018979555 271.4241050034659 L 187.43036470786112 271.42067818736524 L 187.4181574397922 271.255748717171 L 187.41791547640688 271.25231949995884 L 187.40683919991892 271.0872614096176 L 187.406620780822 271.0838299649111 L 187.39667673264717 270.91864820135163 L 187.3964818821681 270.9152147036746 L 187.38767129903857 270.7499142138256 L 187.38750004007315 270.7464788386125 L 187.37982415872114 270.5810645694027 L 187.3796765127069 270.5776274930013 L 187.37313656986456 270.41210439135943 L 187.37301255675592 270.4086657910324 L 187.3676097891554 270.24303880388715 L 187.367509427398 270.2395988578133 L 187.36324507177156 270.07387293209354 L 187.3631683782762 270.0704318193693 L 187.36004367135598 269.9046119020036 L 187.35999066147235 269.901169802641 L 187.3580068399905 269.73526084055817 L 187.35797752748 269.73181793548474 L 187.35713582816877 269.5658248756135 L 187.3571302251772 269.5623813466699 L 187.35743188476872 269.39630913593896 L 187.35745000179853 269.39286516587543 L 187.358896257025 269.2267187512136 L 187.3589381029072 269.22327452368665 L 187.36153019050082 269.0570588520226 L 187.36159577236631 269.05361455158993 L 187.36533492905926 268.8873345698523 L 187.3654242523102 268.88389038196675 L 187.37031171483463 268.7175510370844 L 187.37042478311523 268.714107148087 L 187.37646178820336 268.5477133869886 L 187.37659860337058 268.54426998410133 L 187.38378638775458 268.3778267537157 L 187.38394694984854 268.37438402503227 L 187.39228675026055 268.207896272288 L 187.3924710574747 268.2044544067634 L 187.401964110647 268.0379270785893 L 187.4021721592981 268.0344862660302 L 187.41281970196277 267.86792430935503 L 187.4130514864611 267.8644847404064 L 187.42485475535037 267.6978931021588 L 187.42511026816916 267.69445496829167 L 187.43807050001521 267.5278385954004 L 187.4383497316607 267.52440208889726 L 187.45246816319573 267.3577659282911 L 187.45277110217674 267.35433124223096 L 187.4680489701329 267.18768024083863 L 187.4683756029306 267.1842475690803 L 187.4848141440401 267.01758667383046 L 187.48516445507778 267.01415621099505 L 187.5027649060728 266.8474903688165 L 187.50289078369096 266.8475036618994 L 187.50305219991742 266.8448376578357 L 187.53117858157916 266.59145205195546 L 187.5316159489224 266.5876449937416 L 187.56143603530813 266.3365658933818 L 187.56190490021373 266.33274386933755 L 187.59339828524247 266.0839514867833 L 187.5938989397927 266.0801155650023 L 187.62704521738343 265.8335901125387 L 187.62757792415778 265.82974139551106 L 187.66235668822947 265.58546308542316 L 187.66292167880513 265.5816027092903 L 187.69931252327677 265.33955175386313 L 187.69990999675417 265.3356808875712 L 187.7378925155448 265.0958374990899 L 187.73852263710413 265.0919573434415 L 187.77807642413265 264.85430173419115 L 187.77873932362834 264.85041352079406 L 187.8198439728138 264.6149259030597 L 187.82053974341304 264.6110308931755 L 187.86317484867442 264.3776914792423 L 187.8639035455467 264.3737909625341 L 187.90804870080296 264.142579964687 L 187.9088103398672 264.13867525786895 L 187.95444513903732 263.9095728883932 L 187.95523969577255 263.90566533378484 L 188.00234373277559 263.67865180496534 L 188.00317114110268 263.6747427689526 L 188.05172400985757 263.4497982930746 L 188.05258416109723 263.4458891644815 L 188.10256545552298 263.2229939538299 L 188.10345819743668 263.21908614220547 L 188.15484751145226 262.9982204090655 L 188.15577264737172 262.99431534289 L 188.20854957489613 262.77545929954664 L 188.2095068629471 262.7715584243631 L 188.2636509978993 262.5546922831015 L 188.26464015032454 262.5507970595774 L 188.32013108662358 262.3359010326826 L 188.3211517692097 262.3320129346102 L 188.3779691007745 262.11906723436726 L 188.37902093238793 262.1151877466054 L 188.43714425313752 261.9041725852995 L 188.4382268053719 261.90030320166994 L 188.49763570922525 261.69119879158603 L 188.4987485061652 261.6873410127263 L 188.55942258704133 261.4801275661495 L 188.56056510514418 261.4762828973345 L 188.62248395696201 261.2709406265499 L 188.6236556250605 261.2671105754885 L 188.6867988417391 261.06361969278123 L 188.68799904116585 261.0598057673985 L 188.75234621662412 260.85814648505357 L 188.75357428145978 260.8543501912645 L 188.81910500961678 260.654502721567 L 188.82036022706112 260.65072556105474 L 188.88705410183582 260.45267011628977 L 188.88833571270226 260.448913584295 L 188.95617232801362 260.2526303767476 L 188.9574795273455 260.2488959598782 L 189.02643847711252 260.05436520183355 L 189.02777041491984 260.05065437590616 L 189.09783129306152 259.85785627964924 L 189.09918707517565 259.8541705075688 L 189.170329475611 259.66308528538474 L 189.17170816465392 259.6594260150741 L 189.24391168130188 259.47003387924786 L 189.24531229776747 259.4664025416329 L 189.31855652454703 259.2786837044497 L 189.31997804798837 259.2750817115121 L 189.39424257881856 259.089016385257 L 189.39568394913812 259.0854451281603 L 189.4709483779379 258.90101352511834 L 189.4724084967744 258.89747437241516 L 189.54865241746276 258.7146567048714 L 189.55013014966877 258.7111510008016 L 189.62733315616472 258.52992748104117 L 189.62882733136908 258.52645654392467 L 189.70696901759158 258.3468073842327 L 189.70847843183967 258.3433725049656 L 189.7875383917077 258.165277917627 L 189.78906180917278 258.1618803582855 L 189.86901963660534 257.98532055558553 L 189.87055579136282 257.98196154814434 L 189.95139108027894 257.80691674236795 L 189.95293867813717 257.80359748753557 L 190.03463102245576 257.63004789096794 L 190.03618874283475 257.62676955714477 L 190.11871773647488 257.4546953820709 L 190.1202842343248 257.4514591044329 L 190.20362947120537 257.2808405631379 L 190.2052033789582 257.27764744284684 L 190.28934445299828 257.1084647476158 L 190.2909243825425 257.1053158511618 L 190.375840887661 256.9375492142797 L 190.37742543233418 256.9344455729518 L 190.46309696245015 256.7680752067039 L 190.4646846990386 256.7650178161954 L 190.55109084807103 256.60002393286663 L 190.55268033881154 256.59701375301046 L 190.6398007006794 256.4333765648859 L 190.64139049525423 256.43041451952115 L 190.72920466387646 256.268114238886 L 190.7307933013944 256.26520121585503 L 190.81928087069008 256.1042180549943 L 190.82086688164748 256.10135490626766 L 190.9100074455355 255.94166907746646 L 190.91158935375057 255.93885661939282 L 191.00136250615 255.78044833493618 L 191.0029388306634 255.7776873486163 L 191.09332416549316 255.62053682078928 L 191.09489342243134 255.61782805256772 L 191.18587053361048 255.46191549365548 L 191.1874312380034 255.45925965573036 L 191.27897971945086 255.30456527801792 L 191.28053038700313 255.30196304915975 L 191.37262983263793 255.1484670649322 L 191.37416898144554 255.14591909131164 L 191.46679898518667 254.9936017128541 L 191.46832513739804 254.99110860897147 L 191.56146529316445 254.83995004856894 L 191.5629769765822 254.83751239828 L 191.65660687829293 254.68749286821765 L 191.65810262791183 254.6851112258535 L 191.75220186948582 254.5362109384163 L 191.7536802289681 254.53388582998724 L 191.84822840432435 254.38608499746036 L 191.84968792740756 254.38381692194287 L 191.94466463046507 254.23709575661135 L 191.9461038823032 254.23488518730943 L 192.04148870698097 254.08922390145835 L 192.04290626541794 254.08707128743455 L 192.13867880563492 253.94245009334904 L 192.1400732624102 253.94035586091937 L 192.2362131120854 253.79675497088442 L 192.2375830739723 253.79471952517162 L 192.3340698270247 253.65211915147236 L 192.33541391690207 253.65014287801156 L 192.43222716725066 253.5085232329331 L 192.43354402510963 253.50660649932456 L 192.53066336667342 253.36594779515192 L 192.53195165056107 253.3640909527548 L 192.62935667725904 253.22437340177308 L 192.6306150641607 253.2225767874354 L 192.72828536991182 253.0837806019297 L 192.72951255657543 253.08204453974906 L 192.8274277352987 252.94414993200442 L 192.82862243900348 252.9424747351142 L 192.92676208461788 252.80546191741573 L 192.9279230438913 252.80384788979194 L 193.0262667503158 252.66769707442472 L 193.02739272560197 252.66614451270854 L 193.1259200867556 252.53083591195764 L 193.12700986103985 252.52934510728937 L 193.22570047084156 252.39485893343985 L 193.22675285023485 252.39343017329878 L 193.32558630260365 252.25974663863576 L 193.32660011689126 252.25838020868372 L 193.42555600574613 252.12547952549224 L 193.42653010890675 252.12417571141341 L 193.5255880281667 251.99203809197857 L 193.52652129886474 251.99079718131534 L 193.62566084244872 251.85940283792223 L 193.62655218450743 251.8582251218996 L 193.72575294633447 251.72755426683327 L 193.72660128919358 251.72644004217088 L 193.82584286318263 251.59647288771643 L 193.82664716234675 251.59542245842272 L 193.9259091424168 251.46613921686523 L 193.9266683799004 251.46515289601115 L 194.02593035997046 251.33653377963566 L 194.02664354474518 251.3356118911034 L 194.12588511873426 251.20763711219504 L 194.12655128718384 251.20677999240033 L 194.22575204901085 251.07942976324418 L 194.22637026540147 251.0786377628253 L 194.32550980898546 250.9518922957064 L 194.32607916595538 250.9511657811801 L 194.42513708521534 250.82500528838355 L 194.42565670429138 250.82434464376232 L 194.52461259314626 250.6987493375732 L 194.525081625294 250.69815496593944 L 194.62391507766282 250.57310505864282 L 194.6243327038745 250.5725773836792 L 194.72302331367624 250.44805308756017 L 194.72338874560484 250.44759255502925 L 194.82191610675844 250.32357408237286 L 194.82222858740363 250.32318116154295 L 194.92057229382817 250.19964872463433 L 195.01897074389308 250.0762577207737 L 195.1170903588584 249.9533818034006 L 195.21491007440375 249.83100173254527 L 195.31240886093636 249.70909829682583 L 195.40956572462773 249.58765231453634 L 195.41586140645285 249.57994134764454 L 195.44610283327663 249.54364519042002 L 195.47624713392824 249.50745140088821 L 195.50632015174344 249.47132699602483 L 195.53632123052003 249.43527079978804 L 195.56624971540467 249.39928163643592 L 195.59610495299688 249.36335833043086 L 195.62588629086486 249.32749970705112 L 195.65559307812396 249.29170459172454 L 195.68522466537362 249.25597181013242 L 195.7147804043157 249.22030018869864 L 195.74425964827668 249.18468855398817 L 195.77366175188985 249.14913573311892 L 195.80298607139224 249.11364055343049 L 195.83223196448063 249.0782018426855 L 195.8613987903289 249.04281842907602 L 195.8904859096822 249.00748914113592 L 195.91949268494753 248.97221280765706 L 195.94841848002898 248.93698825791506 L 195.97726266054764 248.9018143214277 L 196.00602459382546 248.86668982799847 L 196.0347036488253 248.83161360781438 L 196.06329919625082 248.79658449134752 L 196.0918106086122 248.76160130929767 L 196.1202372601287 248.72666289273428 L 196.14857852698887 248.6917680727985 L 196.17683378705203 248.6569156810914 L 196.2050024202143 248.6221045492436 L 196.23308380824065 248.5873335091417 L 196.26107733478517 248.55260139292196 L 196.28898238555996 248.51790703277945 L 196.31679834825445 248.4832492610844 L 196.3445246125959 248.44862691032336 L 196.3721605703761 248.41403881308077 L 196.3997056155088 248.37948380198156 L 196.42715914403672 248.34496070969476 L 196.45452055416706 248.31046836890098 L 196.48178924630713 248.27600561225816 L 196.50896462305698 248.24157127242046 L 196.53604608933347 248.20716418188934 L 196.563033052304 248.17278317310425 L 196.5899249214733 248.13842707833805 L 196.6167211086764 248.1040947297097 L 196.64342102813404 248.06978495911613 L 196.67002409648623 248.03549659819055 L 196.69652973282714 248.00122847825602 L 196.72293735866185 247.96697943037992 L 196.74924639807648 247.93274828514947 L 196.77545627759605 247.89853387285027 L 196.8015664263285 247.86433502327196 L 196.82757627599872 247.83015056565355 L 196.8534852609068 247.79597932872653 L 196.87929281794035 247.76182014068632 L 196.90499838673998 247.72767182895709 L 196.93060140953216 247.6935332203961 L 196.95610133133087 247.6594031410054 L 196.98149759979185 247.6252804161043 L 197.00678966539647 247.59116387005858 L 197.0319769813481 247.55705232639238 L 197.057059003666 247.52294460763235 L 197.0820351911638 247.48883953530455 L 197.1069050054877 247.45473592984789 L 197.13166791111794 247.42063261057464 L 197.15632337541504 247.3865283955669 L 197.18087086859276 247.35242210167044 L 197.20530986375616 247.3183125443967 L 197.22963983691952 247.28419853784828 L 197.2538602669637 247.25007889472715 L 197.27797063573132 247.21595242614595 L 197.30197042797082 247.18181794164815 L 197.3258591313567 247.14767424911776 L 197.34963623647397 247.11352015473747 L 197.37330123686274 247.07935446285617 L 197.3968536290144 247.04517597592235 L 197.4202929122806 247.01098349454102 L 197.44361858902238 246.9767758171783 L 197.466830164447 246.942551740317 L 197.48992714672852 246.9083100581939 L 197.51290904690765 246.8740495628574 L 197.5357753789172 246.8397690440365 L 197.5585256595839 246.80546728904042 L 197.58115940855984 246.7711430827602 L 197.60367614835948 246.73679520750778 L 197.62607540429642 246.70242244300226 L 197.64835670447764 246.66802356626596 L 197.6705195797827 246.63359735153875 L 197.6925635638128 246.59914257023527 L 197.71448819286815 246.56465799085504 L 197.73629300593234 246.53014237887692 L 197.7579775446112 246.49559449672128 L 197.77954135308318 246.46101310369153 L 197.7823428911882 246.45649040848951 L 197.7278770512358 246.51201024220669 L 197.727514134686 246.51237979862884 L 197.66892827610016 246.5719757582248 L 197.668564970479 246.57234494503194 L 197.6099178936501 246.63187968638488 L 197.60955420010797 246.6322485023699 L 197.55084590503603 246.69172202547978 L 197.5504818247272 246.69209046943888 L 197.49171231141221 246.75150277430572 L 197.49134784549483 246.75187084503858 L 197.43251711393683 246.8112219316624 L 197.43215226357242 246.81158962797272 L 197.3732603137714 246.8708794963535 L 197.37289508012546 246.87124681704827 L 197.3139419120814 246.930475467186 L 197.31357629632336 246.93084241107564 L 197.25456191003624 246.99000984297035 L 197.25419591333886 246.99037640886928 L 197.1951203088087 247.04948262252094 L 197.19475393234887 247.04984880924678 L 197.1356171095757 247.10889380465542 L 197.13525035453335 247.10925961103004 L 197.07605231351712 247.16824338819563 L 197.0756851810765 247.16860881304396 L 197.01642592181724 247.2275313719665 L 197.01605841316584 247.22789641411754 L 196.95673793566354 247.28675775479707 L 196.95637005199256 247.28712241308347 L 196.89698835624725 247.34592253551995 L 196.89662009875138 247.34628680877813 L 196.837177184763 247.4050257129716 L 196.83680855464087 247.40538960004142 L 196.7773044224095 247.46406728599183 L 196.77693542086257 247.46443078571764 L 196.7173700703881 247.523047253425 L 196.71700069862243 247.52341036465396 L 196.65737412990495 247.5819656141183 L 196.657004389129 247.58232833570233 L 196.5973166021685 247.64082236692363 L 196.59694649359503 247.64118469771776 L 196.53719748839148 247.69961751069602 L 196.53682701323635 247.69997944955952 L 196.47701678978976 247.75835104429476 L 196.47664594927232 247.75871259009068 L 196.41677450758272 247.81702296658287 L 196.41640330292586 247.8173841181781 L 196.3564706429932 247.87563327642727 L 196.3560990754231 247.8759940326927 L 196.29610519724739 247.9341819726988 L 196.2957332679937 247.9345423325091 L 196.23567817157496 247.99266905427217 L 196.23530588187094 247.9930290165058 L 196.17518956720917 248.05109452002586 L 196.1748169182909 248.0514540835657 L 196.1146393853861 248.1094583688427 L 196.11426637849343 248.10981753257525 L 196.0540276273456 248.16776059960924 L 196.0536542637214 248.16811936242516 L 195.99335429433052 248.2260012112161 L 195.99298057522125 248.22635957200984 L 195.93261938758732 248.28418020255774 L 195.9322453142426 248.28453816022787 L 195.87182290836566 248.34229757253271 L 195.87144848203837 248.34265512598182 L 195.8109648579184 248.40035332004365 L 195.81059007986437 248.40071046817866 L 195.75004523750133 248.45834744399747 L 195.74967010898004 248.45870418572895 L 195.68906404837398 248.5162799433047 L 195.68868857064786 248.51663627754752 L 195.62802129179877 248.57415081688023 L 195.62764546613334 248.57450674255344 L 195.56691696904122 248.6319600636431 L 195.56654079670545 248.63231557966958 L 195.50575108137028 248.68970768251623 L 195.5053745636359 248.6900627878234 L 195.4445236300577 248.747393672427 L 195.4441467682 248.74774836594588 L 195.38323461637876 248.80501803230646 L 195.38285741167556 248.80537231297288 L 195.3218840416113 248.8625807610904 L 195.32150649534384 248.862934627844 L 195.26047190703653 248.92008185771851 L 195.2600940204888 248.92043530950332 L 195.19899821393844 248.97752132113476 L 195.19861998839815 248.9778743568985 L 195.13746296360475 249.03489915028695 L 195.1370844003616 249.03525176898236 L 195.07586615732518 249.09221534412774 L 195.07548725767265 249.09256754471122 L 195.01420779639318 249.14946990161357 L 195.0138285616273 249.14982168304604 L 194.9524878821048 249.20666282170535 L 194.9521083135246 249.20701418295192 L 194.89070641575907 249.2637941033682 L 194.8903265146665 249.26414504339843 L 194.82886339865792 249.32086374557167 L 194.828483166358 249.321214263359 L 194.7669588321064 249.37787174728922 L 194.7665782699066 249.37822184181206 L 194.70499271741195 249.43481810749924 L 194.70461182662302 249.43516777773974 L 194.64296505588536 249.49170282518386 L 194.6425838378205 249.4920520701289 L 194.58087584883978 249.54852589932997 L 194.58049430481537 249.54887471797048 L 194.5187250975916 249.60528732892854 L 194.5183432289266 249.60563572026004 L 194.45651280345982 249.66198711297508 L 194.4561306114756 249.66233507599767 L 194.39423896776577 249.71862525046967 L 194.39385645378704 249.7189727841874 L 194.3319035918342 249.77520174041635 L 194.33152075718786 249.77554884383815 L 194.26950667699194 249.83171658182405 L 194.2691235230083 249.83206325396262 L 194.20704822456938 249.8881697737055 L 194.20666475258022 249.888516013579 L 194.14452823589824 249.94456131507883 L 194.1441444472393 249.9449071217088 L 194.0819467123143 250.00089120496563 L 194.08156260832297 250.0012365773789 L 194.01930365515494 250.05715944239267 L 194.01891923717142 250.05750437962033 L 193.95659906576032 250.11336602639105 L 193.95621433512804 250.11371052746813 L 193.89383294547395 250.16951095599583 L 193.89344790353766 250.16985501996302 L 193.8310052956405 250.22559423024768 L 193.83061994374873 250.225937856149 L 193.76811611760854 250.28161584819063 L 193.76773045711136 250.2819590350755 L 193.70516541272812 250.33757580887408 L 193.70477944497873 250.33791855579597 L 193.64215318235247 250.3934741113515 L 193.64176690870613 250.39381641736867 L 193.57907942783683 250.4493107546812 L 193.57869284965136 250.44965261885648 L 193.51594415053904 250.50508573792595 L 193.51555726917462 250.50542715932676 L 193.45274735181923 250.56079906015322 L 193.4523601686386 250.56114003785143 L 193.3894890330402 250.6164507204348 L 193.38910154940828 250.61679125350707 L 193.32616919556682 250.67204071784747 L 193.32578141285077 250.6723808053751 L 193.2627878407663 250.72756905147241 L 193.26239976033605 250.727908692541 L 193.19934497000855 250.7830357203953 L 193.19895659323558 250.78337491409582 L 193.135840584665 250.83844072370707 L 193.13545191292397 250.83877946913418 L 193.07227468611038 250.8937840605024 L 193.07188572077735 250.89412235675627 L 193.00864727572073 250.94906572988145 L 193.00825801817447 250.94940357606652 L 192.9449583548748 251.00428573094868 L 192.944568806496 251.00462312617424 L 192.8812079249533 251.05944406281336 L 192.8808180871251 251.05978100619322 L 192.81739598733938 251.1145407245893 L 192.81700586144694 251.11487721524213 L 192.75352254341817 251.16957571539518 L 192.75313213084857 251.16991175244448 L 192.68958759457675 251.22454903435448 L 192.68919689671958 251.2248846169282 L 192.62583998451439 251.27924716479242 L 192.4959708198087 251.3909757242047 L 192.36622728176872 251.50258247375905 L 192.23694577278553 251.61381556862435 L 192.10812516145415 251.72471349402574 L 191.97977579489805 251.83530480272685 L 191.8519079709803 251.94561803112566 L 191.72453193603235 252.0556816998445 L 191.5976578833829 252.16552431372244 L 191.47129595179575 252.27517436198463 L 191.34545622370788 252.38466031869154 L 191.22014872363613 252.49401064315776 L 191.09538341626111 252.6032537807766 L 190.97117020488867 252.71241816365102 L 190.84751892955006 252.8215322116847 L 190.72443936519906 252.93062433374655 L 190.60194122002585 253.03972292889898 L 190.48003413353607 253.14885638801488 L 190.35872767487615 253.25805309536875 L 190.23803134105492 253.36734143052547 L 190.1179545551463 253.47674977046594 L 189.99850666472193 253.5863064917379 L 189.87969694016488 253.69603997296014 L 189.7615345731321 253.80597859745257 L 189.64402867508582 253.91615075607683 L 189.5271882760009 254.02658485020103 L 189.41102232302597 254.13730929501 L 189.29553967951074 254.24835252278515 L 189.18074912395377 254.35974298658664 L 189.06665934935197 254.47150916388966 L 188.9532789625492 254.58367956057003 L 188.84061648394933 254.69628271489412 L 188.72868034740762 254.80934720169773 L 188.61747890032822 254.9229016367341 L 188.50702040415277 255.03697468100526 L 188.39731303504715 255.1515950452705 L 188.28836488492132 255.26679149459272 L 188.1801839628415 255.38259285285145 L 188.07277819668718 255.49902800736902 L 187.9661554352441 255.61612591343402 L 187.86032345065482 255.73391559878672 L 187.75528994121237 255.852426168063 L 187.65106253459587 255.9716868070621 L 187.54764879146012 256.09172678690555 L 187.44505620943838 256.21257546798796 L 187.34329222752996 256.3342623037122 L 187.24236423087427 256.45681684396607 L 187.14227955591122 256.58026873829135 L 187.04304549588912 256.70464773874147 L 186.9446693067322 256.8299837023583 L 186.84715821322786 256.95630659325644 L 186.75051941552434 257.0836464842652 L 186.65476009588687 257.2120335581276 L 186.55988742569417 257.341498108213 L 186.46590857265102 257.4720705387039 L 186.37283070814516 257.60378136428113 L 186.28066101475764 257.7366612092217 L 186.1894066937883 257.87074080603014 L 186.09907497289362 258.00605099339253 L 186.0096731136316 258.14262271367664 L 185.9212084189733 258.280487009826 L 185.8336882407002 258.41967502169945 L 185.74711998661112 258.5602179819127 L 185.66151112752289 258.70214721115076 L 185.5768692040068 258.84549411299014 L 185.49320183280315 258.9902901682826 L 185.41051671290438 259.13656692907324 L 185.3288216311947 259.2843560122191 L 185.24812446771375 259.4336890925668 L 185.16843320040886 259.5845978959145 L 185.0897559094236 259.73711419167194 L 185.01210078083932 259.89126978537666 L 184.9354761099127 260.0470965110028 L 184.85989030373133 260.20462622323754 L 184.78535188333174 260.36389078967477 L 184.71186948523652 260.52492208306 L 184.63945186245456 260.6877519735484 L 184.56810788489366 260.85241232115106 L 184.49784653927196 261.0189349682508 L 184.42867692845522 261.18735173243465 L 184.36060827033805 261.35769439945886 L 184.2936498961932 261.52999471662105 L 184.22781124861055 261.70428438634553 L 184.163101878983 261.88059506019357 L 184.0995314446005 262.0589583332548 L 184.03710970540837 262.2394057388826 L 183.97584652042295 262.4219687439072 L 183.91575184387113 262.60667874426065 L 183.8568357210816 262.79356706104807 L 183.7991082841696 262.98266493705916 L 183.74257974754784 263.17400353373273 L 183.68726040329307 263.3676139285996 L 183.63316061643843 263.5635271130756 L 183.5802908201626 263.7617739908159 Z" style="fill: rgb(104, 225, 253);" id="element_338" /></svg>