<?xml version='1.0' encoding='utf-8'?>
<svg xmlns:svg="http://www.w3.org/2000/svg" version="1.1" id="Layer_1" x="0px" y="0px" viewBox="0 0 500 500" style="width: 188px;" xml:space="preserve" data-imageid="moscow-46" imageName="Moscow" class="illustrations_image"><svg:style type="text/css">
	.st0_moscow-46{fill:#FFFFFF;}
	.st1_moscow-46{fill:#231F20;}
	.st2_moscow-46{fill:#68E1FD;}
	.st3_moscow-46{fill:#D1D3D4;}
</svg:style><svg:path class="st1_moscow-46" d="M 254.70378890010073 191.79998564402987 L 254.7158792969784 191.79989402278736 L 254.72347921733464 191.7997786566982 L 254.7355071592371 191.79950461745875 L 254.74312878018844 191.79927281193324 L 254.75509303038348 191.79881759142904 L 254.76273377593432 191.79846832802363 L 254.7746330976898 191.79783316298688 L 254.7822903642809 191.79736549522698 L 254.7941235208646 191.79655162238984 L 254.80179468044113 191.7959646765683 L 254.81356043512088 191.79497333266298 L 254.8212428382107 191.7942663084759 L 254.83293995425433 191.79309873023456 L 254.8406309330336 191.7922709012571 L 254.8522581737089 191.79092832541193 L 254.85995504505522 191.78997903941496 L 254.87151117363 191.78846270269815 L 254.8792112421458 191.78739138180904 L 254.89069502188792 191.78570252095275 L 254.89839558288963 191.7845086616632 L 254.90980577706688 191.78264851339964 L 254.91750411951665 191.7813316864268 L 254.92883949139687 191.7793014874881 L 254.936532900781 191.77786133749248 L 254.947792213632 191.7756623246109 L 254.95547797477172 191.77409856977755 L 254.9666599918613 191.77173197968523 L 254.97433539164123 191.77004441117586 L 254.98543887623723 191.76751148060495 L 254.99310120624637 191.76569996188832 L 255.00412492161658 191.76300192757108 L 255.01177148071613 191.76106639363417 L 255.02271419012837 191.75820449230272 L 255.0303422868853 191.75614494876365 L 255.0412027536074 191.75312041715017 L 255.04880970865057 191.75093693926738 L 255.05958669595037 191.74775101410413 L 255.0671698442185 191.74544374569552 L 255.07786211536379 191.7420976637146 L 255.08541880820067 191.73966681600936 L 255.09602512645927 191.736161813943 L 255.10355273364604 191.73360766434737 L 255.11407186228578 191.72994497892773 L 255.1215677739054 191.72726786974582 L 255.13199847619407 191.72344873770507 L 255.1394601043947 191.72064907480365 L 255.14980114360014 191.716674732874 L 255.1572259242398 191.71375298430524 L 255.16747606362983 191.70962466921887 L 255.17486145778113 191.70658136381945 L 255.18501946062355 191.70230031230852 L 255.19236295596795 191.69913603827368 L 255.2024275855306 191.6947034870704 L 255.20972669763233 191.69141889051653 L 255.219696717183 191.68683607635305 L 255.22694899063268 191.68343185988368 L 255.2368231634392 191.67870001949223 L 255.24402617289994 191.67517694076267 L 255.25380326223015 191.67029731087538 L 255.26095461335484 191.66665618118068 L 255.27063338247652 191.66162999852978 L 255.2777307127285 191.6578716814111 L 255.2873099249095 191.65270018272875 L 255.29435090427992 191.6488255926107 L 255.30382932278803 191.64351001462907 L 255.31081165441236 191.63952011549725 L 255.3201880425154 191.6340616949485 L 255.32710946320358 191.62995749906895 L 255.33638258416937 191.62435747268535 L 255.34324086485685 191.62014003937085 L 255.35240948195323 191.6143996438845 L 255.35920242806088 191.61007007832472 L 255.36826530455565 191.60419055046785 L 255.37499075629958 191.5997500026069 L 255.38394665546056 191.59373257911167 L 255.39060248808568 191.58918224259787 L 255.3994501731807 191.58302816019648 L 255.40603429714807 191.57836927139377 L 255.41477253144492 191.57207976681838 L 255.4212828925703 191.56731360388804 L 255.4299104393368 191.56088991387082 L 255.43634501889008 191.55601779592533 L 255.4448606413941 191.54946115719852 L 255.45121745618582 191.54448444351377 L 255.4596199176951 191.5377960928095 L 255.46589702010866 191.5327161821339 L 255.47418508389106 191.52589735618437 L 255.48038056194056 191.5207156860895 L 255.48855299126387 191.51376762162687 L 255.494664968614 191.50848566795418 L 255.5027205267461 191.5014096017107 L 255.50874716276715 191.49602887805935 L 255.51668461297578 191.48882604676714 L 255.5226241027733 191.48334810407923 L 255.53044220832635 191.47601974447048 L 255.53629278282358 191.47044617064753 L 255.5439903069888 191.46299351945444 L 255.54975023300923 191.45732593905578 L 255.5573259390545 191.44975023301055 L 255.56299351945512 191.44399030698816 L 255.5704461706482 191.4362927828229 L 255.57601974447056 191.43044220832627 L 255.58334810407928 191.42262410277326 L 255.58882604676708 191.41668461297584 L 255.59602887805931 191.40874716276718 L 255.60140960171012 191.40272052674672 L 255.6084856679536 191.39466496861465 L 255.6137676216281 191.38855299126246 L 255.6207156860907 191.38038056193912 L 255.6258973561837 191.37418508389183 L 255.63271618213327 191.36589702010943 L 255.63779609281016 191.35961991769426 L 255.64448444351441 191.35121745618497 L 255.64946115719738 191.34486064139554 L 255.6560177959242 191.33634501889156 L 255.66088991387196 191.3299104393353 L 255.66731360388914 191.32128289256877 L 255.67207976681837 191.3147725314449 L 255.67836927139376 191.30603429714805 L 255.68302816019542 191.29945017318218 L 255.68918224259684 191.2906024880872 L 255.6937325791117 191.28394665546057 L 255.69975000260692 191.2749907562996 L 255.70419055046787 191.26826530455565 L 255.71007007832475 191.2592024280609 L 255.71439964388512 191.2524094819523 L 255.72014003937144 191.24324086485592 L 255.7243574726851 191.23638258416977 L 255.72995749906875 191.22710946320396 L 255.7340616949491 191.2201880425144 L 255.7395201154978 191.21081165441134 L 255.74351001462907 191.203829322788 L 255.7488255926107 191.1943509042799 L 255.75270018272843 191.18730992491 L 255.7578716814108 191.17773071272904 L 255.76162999852951 191.170633382477 L 255.76665618118045 191.1609546133553 L 255.77029731087515 191.15380326223064 L 255.77517694076244 191.14402617290045 L 255.77870001949225 191.1368231634392 L 255.7834318598837 191.12694899063268 L 255.78683607635358 191.11969671718194 L 255.79141889051704 191.10972669763126 L 255.79470348706994 191.10242758553167 L 255.79913603827325 191.09236295596904 L 255.80230031230855 191.08501946062356 L 255.80658136381948 191.07486145778114 L 255.8096246692189 191.06747606362984 L 255.81375298430527 191.05722592423982 L 255.81667473287402 191.04980114360015 L 255.82064907480367 191.0394601043947 L 255.8234487377051 191.03199847619408 L 255.82726786974584 191.02156777390542 L 255.82994497892776 191.0140718622858 L 255.8336076643474 191.00355273364605 L 255.83616181394302 190.99602512645927 L 255.83966681600938 190.98541880820068 L 255.84209766371498 190.97786211536263 L 255.8454437456959 190.96716984421735 L 255.84775101410378 190.95958669595154 L 255.85093693926706 190.94880970865174 L 255.8531204171505 190.94120275360623 L 255.85614494876395 190.93034228688413 L 255.85820449230278 190.92271419012806 L 255.86106639363422 190.9117714807158 L 255.8630019275707 190.90412492161803 L 255.86569996188797 190.89310120624785 L 255.86751148060523 190.88543887623604 L 255.8700444111761 190.87433539164005 L 255.87173197968502 190.86665999186224 L 255.87409856977737 190.85547797477264 L 255.8756623246109 190.8477922136322 L 255.87786133749248 190.83653290078124 L 255.87930148748814 190.82883949139688 L 255.88133168642682 190.81750411951666 L 255.88264851339966 190.80980577706688 L 255.88450866166323 190.79839558288964 L 255.88570252095278 190.79069502188793 L 255.88739138180907 190.7792112421458 L 255.88846270269818 190.77151117362985 L 255.889979039415 190.75995504505502 L 255.89092832541195 190.75225817370887 L 255.89227090125712 190.74063093303357 L 255.89309873023456 190.73293995425442 L 255.8942663084759 190.72124283821083 L 255.894973332663 190.71356043512088 L 255.89596467656833 190.70179468044114 L 255.89655162238986 190.6941235208646 L 255.897365495227 190.6822903642809 L 255.8978331629869 190.6746330976898 L 255.89846832802365 190.66273377593433 L 255.89881759142907 190.65509303038348 L 255.89927281193326 190.64312878018845 L 255.89950461745877 190.6355071592371 L 255.89977865669823 190.62347921733465 L 255.89989402278738 190.6158792969784 L 255.8999856440299 190.60378890010074 L 255.89999999999998 190.60000000000002 L 255.89999999999998 178.02828282828332 L 255.9000000000001 177.90000000000055 L 255.89998564403 177.89621109989938 L 255.8998940227875 177.88412070302172 L 255.89977865669835 177.87652078266547 L 255.8995046174589 177.864492840763 L 255.89927281193337 177.85687121981167 L 255.89881759142918 177.84490696961663 L 255.89846832802377 177.8372662240658 L 255.897833162987 177.82536690231032 L 255.89736549522712 177.8177096357192 L 255.89655162238998 177.80587647913552 L 255.89596467656835 177.79820531955778 L 255.894973332663 177.78643956487804 L 255.894266308476 177.7787571617894 L 255.89309873023467 177.76706004574578 L 255.8922709012572 177.7593690669665 L 255.89092832541203 177.74774182629122 L 255.8899790394151 177.7400449549449 L 255.88846270269823 177.7284888263701 L 255.88739138180915 177.7207887578543 L 255.88570252095286 177.7093049781122 L 255.88450866166332 177.70160441711047 L 255.88264851339974 177.69019422293323 L 255.8813316864269 177.68249588048346 L 255.87930148748822 177.67116050860324 L 255.87786133749236 177.6634670992179 L 255.87566232461074 177.65220778636692 L 255.87409856977763 177.64452202522838 L 255.8717319796853 177.63334000813882 L 255.8700444111762 177.62566460836007 L 255.86751148060532 177.61456112376408 L 255.8656999618881 177.60689879375255 L 255.86300192757085 177.59587507838233 L 255.8610663936343 177.58822851928429 L 255.85820449230286 177.57728580987202 L 255.85614494876404 177.56965771311596 L 255.8531204171506 177.55879724639385 L 255.85093693926703 177.551190291348 L 255.84775101410375 177.54041330404823 L 255.84544374569572 177.53283015578197 L 255.84209766371478 177.52213788463666 L 255.83966681600944 177.5145811917994 L 255.83616181394308 177.5039748735408 L 255.83360766434745 177.49644726635404 L 255.8299449789278 177.4859281377143 L 255.8272678697459 177.47843222609467 L 255.82344873770515 177.468001523806 L 255.8206490748033 177.46053989560428 L 255.81667473287362 177.45019885639883 L 255.8137529843053 177.44277407576027 L 255.80962466921892 177.43252393637025 L 255.8065813638195 177.42513854221895 L 255.80230031230857 177.41498053937653 L 255.79913603827373 177.40763704403213 L 255.79470348707045 177.3975724144695 L 255.79141889051658 177.39027330236775 L 255.7868360763531 177.38030328281707 L 255.78343185988373 177.3730510093674 L 255.77870001949228 177.36317683656088 L 255.77517694076272 177.35597382710014 L 255.77029731087543 177.34619673776993 L 255.76665618118074 177.33904538664524 L 255.76162999852983 177.32936661752356 L 255.75787168141116 177.32226928727158 L 255.7527001827288 177.3126900750906 L 255.74882559261076 177.30564909572016 L 255.74351001462912 177.29617067721205 L 255.7395201154973 177.28918834558772 L 255.73406169494856 177.27981195748467 L 255.7299574990684 177.27289053679553 L 255.72435747268477 177.26361741582974 L 255.72014003937147 177.25675913514416 L 255.71439964388514 177.2475905180478 L 255.71007007832478 177.2407975719392 L 255.7041905504679 177.23173469544443 L 255.69975000260695 177.2250092437005 L 255.69373257911172 177.21605334453952 L 255.68918224259733 177.20939751191352 L 255.6830281601959 177.2005498268185 L 255.6783692713938 177.193965702852 L 255.6720797668184 177.18522746855515 L 255.66731360388917 177.17871710743128 L 255.66088991387198 177.17008956066476 L 255.65601779592424 177.1636549811085 L 255.6494611571974 177.15513935860452 L 255.6444844435138 177.14878254381426 L 255.6377960928095 177.14038008230497 L 255.63271618213392 177.13410297989142 L 255.6258973561844 177.12581491610902 L 255.62071568609073 177.11961943806094 L 255.61376762162814 177.1114470087376 L 255.60848566795298 177.10533503138467 L 255.60140960170946 177.0972794732526 L 255.59602887805997 177.09125283723358 L 255.58882604676776 177.08331538702492 L 255.58334810407865 177.0773758972261 L 255.5760197444699 177.06955779167308 L 255.5704461706482 177.06370721717715 L 255.56299351945512 177.0560096930119 L 255.55732593905515 177.05024976699016 L 255.54975023300992 177.04267406094493 L 255.54399030698818 177.03700648054496 L 255.53629278282293 177.02955382935187 L 255.530442208327 177.02398025553018 L 255.522624102774 177.01665189592143 L 255.51668461297515 177.01117395323232 L 255.5087471627665 177.0039711219401 L 255.50272052674748 176.99859039829062 L 255.4946649686154 176.9915143320471 L 255.48855299126248 176.98623237837194 L 255.48038056193914 176.97928431390935 L 255.47418508389106 176.97410264381568 L 255.46589702010866 176.96728381786616 L 255.4596199176951 176.96220390719057 L 255.45121745618582 176.9555155564863 L 255.44486064139494 176.9505388428022 L 255.43634501889093 176.94398220407535 L 255.42991043933594 176.93911008612858 L 255.42128289256945 176.9326863961114 L 255.41477253144492 176.92792023318168 L 255.40603429714807 176.9216307286063 L 255.3994501731807 176.91697183980358 L 255.39060248808568 176.91081775740219 L 255.38394665546147 176.906267420889 L 255.3749907563005 176.90024999739376 L 255.36826530455565 176.89580944953218 L 255.35920242806088 176.8899299216753 L 255.3524094819523 176.88560035611494 L 255.34324086485591 176.8798599606286 L 255.33638258416977 176.87564252731494 L 255.32710946320395 176.8700425009313 L 255.3201880425144 176.86593830505095 L 255.31081165441134 176.86047988450224 L 255.303829322788 176.85648998537098 L 255.2943509042799 176.85117440738935 L 255.28730992491103 176.84729981727216 L 255.27773071273006 176.84212831858977 L 255.27063338247598 176.83837000146997 L 255.26095461335427 176.83334381881906 L 255.25380326223063 176.8297026891249 L 255.24402617290045 176.82482305923762 L 255.2368231634392 176.8212999805078 L 255.22694899063268 176.81656814011635 L 255.219696717183 176.81316392364698 L 255.20972669763233 176.8085811094835 L 255.2024275855306 176.80529651292963 L 255.19236295596795 176.80086396172635 L 255.1850194606231 176.7976996876913 L 255.17486145778065 176.79341863618038 L 255.1674760636298 176.79037533078116 L 255.15722592423978 176.78624701569478 L 255.14980114360054 176.7833252671262 L 255.1394601043951 176.77935092519655 L 255.13199847619367 176.77655126229482 L 255.12156777390499 176.77273213025407 L 255.11407186228615 176.77005502107244 L 255.10355273364644 176.7663923356528 L 255.0960251264604 176.76383818605743 L 255.0854188082018 176.76033318399104 L 255.07786211536225 176.75790233628493 L 255.06716984421695 176.75455625430402 L 255.05958669595185 176.75224898589636 L 255.04880970865207 176.74906306073308 L 255.04120275360623 176.74687958284952 L 255.03034228688412 176.74385505123607 L 255.02271419012806 176.74179550769725 L 255.0117714807158 176.7389336063658 L 255.00412492161774 176.73699807242926 L 254.99310120624753 176.734300038112 L 254.985438876236 176.7324885193948 L 254.97433539164 176.7299555888239 L 254.96665999186126 176.7282680203148 L 254.9554779747717 176.72590143022248 L 254.94779221363316 176.72433767538936 L 254.93653290078217 176.72213866250775 L 254.92883949139565 176.7206985125117 L 254.91750411951543 176.71866831357303 L 254.90980577706685 176.7173514866004 L 254.8983955828896 176.71549133833682 L 254.89069502188912 176.71429747904745 L 254.879211242147 176.71260861819113 L 254.8715111736288 176.7115372973017 L 254.859955045054 176.7100209605849 L 254.85225817371006 176.70907167458824 L 254.84063093303476 176.70772909874304 L 254.8329399542543 176.70690126976544 L 254.82124283821068 176.7057336915241 L 254.81356043512085 176.70502666733702 L 254.8017946804411 176.7040353234317 L 254.79412352086456 176.70344837761016 L 254.78229036428087 176.70263450477302 L 254.77463309768976 176.70216683701312 L 254.7627337759343 176.70153167197637 L 254.75509303038345 176.70118240857096 L 254.7431287801884 176.70072718806676 L 254.73550715923707 176.70049538254125 L 254.7234792173346 176.7002213433018 L 254.71587929697836 176.70010597721264 L 254.7037889001007 176.70001435597013 L 254.7 176.70000000000005 L 254.3155596017007 176.70000000000005 L 254.31691116809722 176.71892192955153 L 254.32600207718812 176.84619465682414 L 254.33509298627905 176.973467384097 L 254.34418389536995 177.10074011136973 L 254.35327480446085 177.22801283864234 L 254.38054753173358 177.60983102046063 L 254.38963844082448 177.73710374773324 L 254.3987293499154 177.86437647500608 L 254.39999999971084 177.90001700535618 L 254.39999979358882 177.90607750835576 L 254.39999833685096 177.91223943727462 L 254.39999433024653 177.91850223617436 L 254.399986411815 177.92486541146255 L 254.3999731565037 177.93132853168237 L 254.3999718326991 177.93183999972007 L 254.39995307559434 177.93789122722828 L 254.39995079343606 177.93850567263632 L 254.3999246159382 177.944553189948 L 254.39992099362385 177.94527098388045 L 254.3998861590007 177.95131417262948 L 254.39988074819559 177.9521357465511 L 254.399836019715 177.9581739883714 L 254.3998283042152 177.95909983333107 L 254.39977244514495 177.96513250985655 L 254.39976183935102 177.96616317557115 L 254.39969361295894 177.97218966843573 L 254.3996794601604 177.97332576227706 L 254.39959762971432 177.9793454531146 L 254.39957920018682 177.98058763891513 L 254.39948252895454 177.9865999093596 L 254.39945901787124 177.9879489060373 L 254.3993462691206 177.9939531377226 L 254.39931679428025 177.99540971774096 L 254.39918673127906 178.00140529230094 L 254.39915033065407 178.0029702798869 L 254.39900171667014 178.00895657895555 L 254.39895734577848 178.01063084811858 L 254.39878894407963 178.01660725332977 L 254.39873547318638 178.01839172560875 L 254.3985460470404 178.02435761859638 L 254.39848225819435 178.02625326055062 L 254.3982705708691 178.0322080229486 L 254.39819515478356 178.03421584334322 L 254.39795996954683 178.04015885678547 L 254.39787152233384 178.04227990344228 L 254.39761160245348 178.0482105495627 L 254.39750862222255 178.05044590588278 L 254.39722273096635 178.0563635663153 L 254.39710361430335 178.0587143473845 L 254.39679051493914 178.06461840376298 L 254.39665355327998 178.06708575206738 L 254.39631200907556 178.0729755860258 L 254.39615538499606 178.07556066669733 L 254.39578415921926 178.08143565986956 L 254.39560594266254 178.0841396554597 L 254.39520379858118 178.0899991894796 L 254.39500194305012 178.0928232942008 L 254.39456764393202 178.09866675070234 L 254.39433998267685 178.10161216411407 L 254.39387229178982 178.10743892473118 L 254.39361653402653 178.11050684481674 L 254.3931142146384 178.11631629118327 L 254.39282794183734 178.11950790679882 L 254.3922897572159 178.12529942054869 L 254.391970419506 178.1286159031906 L 254.3913951329191 178.13438886595776 L 254.39104004566036 178.1378313608049 L 254.39042642037577 178.14358515422322 L 254.39003276095548 178.1471547704351 L 254.38937956024105 178.1528887761385 L 254.38894436515912 178.15658657635956 L 254.38825035228268 178.16230017598195 L 254.38777051459724 178.16612716502246 L 254.38703445282658 178.17181974019772 L 254.38650672003965 178.175776852852 L 254.3857273726426 178.18144778521412 L 254.38514834510835 178.1855358732222 L 254.38432447535274 178.191184544405 L 254.3836906053071 178.1954043625011 L 254.38282097646072 178.20103015413852 L 254.38212856777267 178.2053823451924 L 254.38121194310338 178.21098463891835 L 254.38045715185314 178.2154697181931 L 254.3794922946287 178.2210478956415 L 254.3786711306415 178.22566623410586 L 254.37765680412977 178.2312196769106 L 254.37676513357331 178.23597148372744 L 254.3757001010421 178.24149957352245 L 254.37473365023396 178.24638487765108 L 254.37361667495108 178.25188699607025 L 254.37257103550007 178.25690562710656 L 254.37140088073335 178.2623811557838 L 254.3702715161604 178.2675327240725 L 254.36904694517764 178.27298104464174 L 254.36782919915342 178.278264920773 L 254.36654897522243 178.28368541486813 L 254.36523808157185 178.28910070863748 L 254.3639009679605 178.2944927578924 L 254.36249206255187 178.3000382969501 L 254.3610968225279 178.30540128299873 L 254.35958495721084 178.3110755912235 L 254.35813035404212 178.31640889569974 L 254.35651051272544 178.32221017162482 L 254.3549953096798 178.3275131761626 L 254.353262426676 178.3334392716072 L 254.3516853870212 178.33871135784042 L 254.34983436775448 178.3447597569855 L 254.34819425475837 178.35000030654805 L 254.34621999888662 178.3561681058077 L 254.34451557581704 178.36137650033353 L 254.34241300281957 178.36766038929227 L 254.3406430329443 178.37283601041523 L 254.33840711018937 178.3792322541532 L 254.33657035677624 178.38437448350726 L 254.33419613002002 178.39087890673102 L 254.33229135633687 178.39598712595006 L 254.32977398258234 178.4025950992927 L 254.32779995189694 178.4076686900106 L 254.32513473450337 178.41437511885832 L 254.3230902100836 178.41941346270903 L 254.32027263589995 178.42621277908123 L 254.31815638101355 178.43121525769865 L 254.31518215935944 178.43810141542644 L 254.3129929372743 178.44306741044448 L 254.30985804039148 178.4500338842359 L 254.30759461437538 178.45496277728844 L 254.3042953190482 178.46200256590564 L 254.30195645236898 178.46689373862662 L 254.29848938223304 178.4739993726478 L 254.29607383815846 178.47885220667112 L 254.29243600624295 178.48601576106378 L 254.2899425480409 178.49082963802337 L 254.2861313989463 178.49804274988693 L 254.28355878988458 178.50281705141666 L 254.2795722410495 178.51007094296904 L 254.27691924439588 178.51480505070285 L 254.2727557257517 178.52209055773338 L 254.27002110477403 178.52678385330515 L 254.26567959614476 178.53409145904487 L 254.26286211411087 178.53874332408856 L 254.25834217963444 178.54606319846783 L 254.25544059981215 178.55067301461727 L 254.25074241871155 178.55799505867438 L 254.24775550436866 178.56256220756353 L 254.24287989735677 178.56987610275758 L 254.2398064117611 178.57439996602037 L 254.23475486244496 178.58169522800145 L 254.23159356886433 178.58617518727172 L 254.2263682395577 178.5934412235714 L 254.2231179012599 178.59787666048314 L 254.21772164264735 178.60510283153144 L 254.21438102290023 178.60949312771848 L 254.2088173771647 178.6166688103854 L 254.2053852392361 178.6210133474817 L 254.1996584362637 178.62812800040246 L 254.19613354342135 178.63242616004192 L 254.19024848996023 178.63946938972975 L 254.18662960547206 178.64372055354627 L 254.18059186707524 178.6506821804814 L 254.176877754209 178.65488573010887 L 254.17069353014682 178.66175585369749 L 254.16688295217034 178.66591117076985 L 254.16055904342159 178.6726802323353 L 254.1566507636027 178.67678669848647 L 254.15019453435787 178.68344554125986 L 254.14618731596434 178.6875025381237 L 254.1396066491246 178.69404246335725 L 254.13549925542432 178.6980493725677 L 254.12880250266295 178.70446219100123 L 254.12459369692368 178.70841839419222 L 254.11778962412313 178.71469647205856 L 254.11347816961273 178.71860135086396 L 254.1065758984279 178.72473764988874 L 254.10216055841414 178.72859058594247 L 254.0951695048906 178.73457869680843 L 254.09510212527007 178.73463534318816 L 254.09057101927783 178.74126372365282 L 254.08851763161073 178.7441881830205 L 254.0814381485716 178.7540155823545 L 254.07928582232992 178.75692829276645 L 254.07221996371723 178.76625987791408 L 254.06996993563308 178.7691602210042 L 254.06293475686627 178.77801993940128 L 254.06058826367192 178.7809072968035 L 254.05359819558706 178.78931890475556 L 254.05115647401462 178.79219265810374 L 254.04422358048186 178.80017949105522 L 254.04168786726356 178.80303902198332 L 254.03482209379362 178.8106238163544 L 254.03219362566165 178.8134685064963 L 254.02540303512868 178.82067326552675 L 254.02268304881517 178.82350249651637 L 254.0159740415872 178.8303483933961 L 254.0131637738244 178.83316154686733 L 254.0065412908817 178.83966885887565 L 254.00364197840173 178.84246531646244 L 253.99710968688427 178.84865338454662 L 253.99412256641932 178.85143252788288 L 253.98768302762312 178.85731973686964 L 253.98460933590542 178.8600809475892 L 253.9782641562959 178.8656847228062 L 253.97510513005759 178.86842738254305 L 253.96885509610829 178.87376419932414 L 253.96561197208158 178.87648768971215 L 253.95945717000677 178.88157309276974 L 253.95613118492383 178.88427679544284 L 253.95007110644065 178.8891254256337 L 253.94666349703365 178.8918087222258 L 253.94069713236252 178.89643434865292 L 253.93720913536364 178.89909662079788 L 253.931335054664 178.90351217658 L 253.92776790680546 178.90615280591177 L 253.92198433116405 178.91037042630714 L 253.918339269178 178.91298879445964 L 253.91264413232602 178.91701985621623 L 253.90892239294465 178.91961534482337 L 253.90331339465067 178.92347050597516 L 253.89951621460617 178.9260424966708 L 253.89399086676355 178.9297317360776 L 253.8901194827881 178.9322796104957 L 253.88467514897354 178.93581226669212 L 253.88073079779932 178.93833540646656 L 253.87536472720157 178.94172021537423 L 253.87134864556077 178.94421800213894 L 253.866058001864 178.94746313345703 L 253.86197142648876 178.9499349488459 L 253.85675331243905 178.9530480408729 L 253.8525974800616 178.95549326651982 L 253.84744895820822 178.95848145933425 L 253.84322510556075 178.96089947687318 L 253.83814321569383 178.9637694437912 L 253.8338525795085 178.96615963485598 L 253.8288343532675 178.9689176121215 L 253.82447817027648 178.97127935834612 L 253.81952064321004 178.97393117311844 L 253.81510015014553 178.97626385613677 L 253.81020037171564 178.97881495271872 L 253.80571680530983 178.98111795416466 L 253.80087184697823 178.98357341860546 L 253.7963264439633 178.98584612011294 L 253.7915334057279 178.98821070318385 L 253.786927402836 178.99045248638677 L 253.78218341840642 178.9927306250176 L 253.77751805236977 178.99494087154983 L 253.77282029317286 178.99713670880067 L 253.7680968007236 178.9993148002962 L 253.76344247889622 179.00143220394514 L 253.75866209676659 179.0035775220378 L 253.75404846735643 179.00562010182705 L 253.7492124322786 179.0077320281508 L 253.74463679466007 179.00970315182275 L 253.7397463433662 179.01178106801146 L 253.73520604212214 179.01368387614585 L 253.7302624113444 179.01572716383347 L 253.725754836576 179.01756458361666 L 253.7207592630466 179.01957262443707 L 253.71628185030517 179.0213473823843 L 253.7112355707563 179.0233195579714 L 253.70678580060678 179.02503419169537 L 253.70169005177058 179.0269698836831 L 253.6972654490465 179.02862675277103 L 253.69212146765523 179.03052534279328 L 253.6877196005076 179.03212663883224 L 253.68252862329334 179.0339875085229 L 253.67814710203976 179.03553526434567 L 253.67291036573477 179.0373577953387 L 253.6685468415293 179.0388538935474 L 253.66326558286573 179.0406374674767 L 253.6589177462938 179.0420836482684 L 253.65359320200386 179.04382764676782 L 253.64925878157737 179.04522551512704 L 253.6438921883932 179.04692931983055 L 253.63956894895722 179.0482803521345 L 253.63416154361104 179.04994334467597 L 253.62984728475584 179.0512488947284 L 253.6244003039798 179.05287045674174 L 253.62009285840028 179.05413176129647 L 253.6146075389266 179.05571127441564 L 253.6103047707814 179.05692945821147 L 253.60478234934223 179.05846630407032 L 253.60048215265257 179.05964238440106 L 253.59492386598012 179.06113594463352 L 253.59062416301035 179.06227083550257 L 253.58503124783678 179.06372049174254 L 253.5807299875477 179.0648150076048 L 253.5751036806052 179.06622014148624 L 253.5707988371153 179.06727500062271 L 253.56514037513605 179.06863499377945 L 253.5608299462884 179.0696508213036 L 253.5551405660046 179.0709650553696 L 253.55082257193237 179.07194238591492 L 253.54510351007616 179.07321024252406 L 253.5407759919036 179.0741495226004 L 253.53502848520722 179.07537038338663 L 253.53068950376067 179.07627197345394 L 253.52491478895627 179.07744522005112 L 253.52056242362815 179.07830939629565 L 253.5147617374479 179.0794344103377 L 253.5103940850946 179.08026136619395 L 253.5045686642707 179.08133752931482 L 253.50018383823064 179.08212737672847 L 253.4943349194953 179.083154070562 L 253.48993104873327 179.08390684100928 L 253.4840598688186 179.08488344718944 L 253.4796350971233 179.08559909247825 L 253.47374289276155 179.08652499263894 L 253.4692953781108 179.08720338548318 L 253.46338338603414 179.08807796125825 L 253.45891130008405 179.08871889564722 L 253.45298075702465 179.08954152867065 L 253.44848228467973 179.09014472004912 L 253.44253442736976 179.09091479195482 L 253.438007766548 179.091479877208 L 253.43204383171965 179.09219676962982 L 253.42748719324817 179.09272330689402 L 253.42150841763365 179.0933864014659 L 253.41692002528183 179.09387386977315 L 253.4109276456133 179.09448254812898 L 253.40630573632197 179.09493034688907 L 253.4003009893316 179.0954839906628 L 253.39564381358133 179.09589143899925 L 253.38962793600132 179.09638942982474 L 253.38493375842182 179.09675576576467 L 253.37890798698436 179.09719748527587 L 253.3741750870946 179.09752186481543 L 253.36814065853187 179.09790669464624 L 253.36336733174238 179.0981881906898 L 253.35732548278656 179.0985155124741 L 253.35251004160074 179.09875311366503 L 253.346462008984 179.09902230903677 L 253.34160278443113 179.09921491848903 L 253.33554980488566 179.0994253690821 L 253.33064514821478 179.09957180302357 L 253.32458845847273 179.09972289047187 L 253.31963674310182 179.09982187681405 L 253.31357757989545 179.09991298275148 L 253.30857720364384 179.09996315959847 L 253.30251680370526 179.09999366565899 L 253.3013285403177 179.0999350835597 L 253.3 179.1 L 253.5 179.1 L 253.5 189.4 L 245.99559479952273 189.4 L 245.99492991743233 189.3248683237842 L 245.991899614402 188.9824440813601 L 245.99088951339192 188.86830266721853 L 245.9888693113717 188.64001983893584 L 245.98785921036162 188.52587842479429 L 245.9858390083414 188.2975955965116 L 245.98482890733132 188.18345418237004 L 245.981798604301 187.84102993994594 L 245.9807885032909 187.72688852580438 L 245.9787683012707 187.4986056975217 L 245.9777582002606 187.38446428338014 L 245.9757379982404 187.15618145509745 L 245.9747278972303 187.0420400409559 L 245.97169759419998 186.6996157985318 L 245.9706874931899 186.58547438439024 L 245.96866729116968 186.35719155610755 L 245.9676571901596 186.243050141966 L 245.96563698813938 186.0147673136833 L 245.9646268871293 185.90062589954175 L 245.96260668510908 185.67234307125906 L 245.961596584099 185.5582016571175 L 245.95856628106867 185.2157774146934 L 245.9575561800586 185.10163600055185 L 245.95553597803837 184.87335317226916 L 245.9545258770283 184.7592117581276 L 245.95250567500807 184.53092892984492 L 245.951495573998 184.4167875157034 L 245.95048547298788 184.30264610156195 L 245.94947537197777 184.18850468742056 L 245.94846527096766 184.0743632732793 L 245.94745516995758 183.96022185913773 L 245.94543496793736 183.73193903085505 L 245.94442486692728 183.6177976167135 L 245.94240466490706 183.3895147884308 L 245.94139456389698 183.27537337428925 L 245.93836426086665 182.93294913186514 L 245.93735415985657 182.8188077177236 L 245.93533395783635 182.5905248894409 L 245.93432385682627 182.47638347529934 L 245.93230365480605 182.24810064701666 L 245.93129355379597 182.1339592328751 L 245.92927335177575 181.9056764045924 L 245.92826325076567 181.79153499045086 L 245.92523294773534 181.44911074802675 L 245.92422284672526 181.3349693338852 L 245.92220264470504 181.1066865056025 L 245.92119254369496 180.99254509146095 L 245.91917234167474 180.76426226317827 L 245.91816224066466 180.6501208490367 L 245.91513193763433 180.3076966066126 L 245.91412183662425 180.19355519247105 L 245.91210163460403 179.96527236418837 L 245.91109153359395 179.8511309500468 L 245.90907133157373 179.62284812176412 L 245.90806123056365 179.50870670762257 L 245.90503092753332 179.16628246519846 L 245.90444435704484 179.1 L 246.10000000000002 179.1 L 246.09748323909295 179.09999366587442 L 246.09142273609336 179.0999631598139 L 246.08642321175907 179.09991299620367 L 246.08036332712555 179.09982189026624 L 246.07541474449 179.0997229909226 L 246.06935609658868 179.0995719034743 L 246.06445833737712 179.09942574880088 L 246.05840154457408 179.0992152982078 L 246.0535544357458 179.0990233340332 L 246.04750011640712 179.09875413866146 L 246.04270343312942 179.09851777518728 L 246.0366522056212 179.09819045340296 L 246.0319056741615 179.0979110643065 L 246.0258581568498 179.09752623447568 L 246.02116145739325 179.09720515615797 L 246.01511826864422 179.09676343664677 L 246.01047103801363 179.0964019676151 L 246.00443279619333 179.0959039767896 L 245.99983463048088 179.0955033771642 L 245.9938019539554 179.09494973339045 L 245.98925241108353 179.0945112245289 L 245.98322591821898 179.09390254617307 L 245.97872452035392 179.09342731039544 L 245.97270482951635 179.09276421582356 L 245.9682510654473 179.09225339624027 L 245.96223879500283 179.09153650381845 L 245.95783212237558 179.09099120424128 L 245.95182789069028 179.0902211323356 L 245.94746773815757 179.08964241726952 L 245.94147216359758 179.08881978424608 L 245.93715793288033 179.08820867895386 L 245.9311716338117 179.08733410317876 L 245.92690270164152 179.08669159380636 L 245.92092629643034 179.0857656936457 L 245.91670201640665 179.08509272740557 L 245.910736123419 179.0841161212254 L 245.90655582777325 179.08341360662942 L 245.90060106537527 179.08238691279587 L 245.89646406662715 179.08165571992913 L 245.8905210531849 179.0805795568083 L 245.8864266457082 179.07982051763926 L 245.8804959995878 179.07869550359717 L 245.87644346110756 179.0779094123224 L 245.87052580067504 179.07673616572524 L 245.86651439362373 179.07592377912948 L 245.86061033724525 179.0747029183433 L 245.8566393100875 179.0738649561891 L 245.8507494761291 179.07259709957995 L 245.84681806457658 179.0717342450077 L 245.84094307140438 179.0704200109417 L 245.83705049953622 179.0695329108763 L 245.8311909655163 179.06817291771955 L 245.82733644683788 179.06726218328663 L 245.8214929903363 179.06585704940522 L 245.81767572875933 179.06492325634832 L 245.81184896814224 179.06347360010835 L 245.8080681588778 179.06251728920083 L 245.80225871251128 179.06102372896834 L 245.79851354291546 179.06004540642505 L 245.79272202916556 179.0585085605662 L 245.78901167946952 179.057508698434 L 245.78323871670239 179.05592918531485 L 245.77956236073027 179.05490822186408 L 245.77380856731196 179.05328665985073 L 245.77016537310047 179.05224499994253 L 245.76443136739707 179.05058200740106 L 245.76082049775493 179.04952002283588 L 245.75510689813254 179.04781621813237 L 245.75152751115806 179.04673424798204 L 245.7458349359828 179.04499024948262 L 245.74228618550066 179.04388860039174 L 245.73661525313855 179.04210502646248 L 245.73309628909755 179.0409839729274 L 245.72744761791475 179.03916144193437 L 245.72395758673804 179.03802122655526 L 245.71833179510062 179.03616035686457 L 245.71486983996485 179.03500119055946 L 245.7092675462389 179.0331026005372 L 245.70583280731975 179.03192466272716 L 245.70025462987135 179.02998897073945 L 245.69684624453689 179.0287924094958 L 245.69129280173215 179.02682023390867 L 245.68790990470913 179.02560516606854 L 245.68238181491412 179.02359712524813 L 245.67902353837462 179.02236363647674 L 245.67352141995548 179.02032034878914 L 245.67018689360052 179.01906849361296 L 245.66471136492325 179.01699057742425 L 245.66139971600123 179.0157203792101 L 245.65595139543203 179.01360845288636 L 245.65266174874986 179.01231990378534 L 245.64724125465474 179.01017458569268 L 245.64397273250185 179.00886764651497 L 245.63858068324691 179.00668955501945 L 245.6353324053503 179.00536415508347 L 245.6299694193017 179.00315390855124 L 245.62674050268163 179.00180994545215 L 245.6214071982054 178.99956816224923 L 245.61819675706562 178.99820550159802 L 245.61289375252784 178.99593280009054 L 245.60970089805306 178.99455127516836 L 245.60442881181984 178.99224827372242 L 245.60125265198556 178.99084768508973 L 245.596012102423 178.9885150020714 L 245.59285174176821 178.98709511710862 L 245.58764334724242 178.98473337088402 L 245.58449788660636 178.98329392326005 L 245.57932226548337 178.98090373219523 L 245.57619080172492 178.97944442126789 L 245.57104857237087 178.97702640372896 L 245.56793019806653 178.97554689387164 L 245.56282197884752 178.97310166822473 L 245.5597157819491 178.97160158806648 L 245.55464219123118 178.9691297726776 L 245.55154725473446 178.9676087142754 L 245.54650891088377 178.9651109275107 L 245.5434243124452 178.96356844542012 L 245.53842183382778 178.96104530564568 L 245.53534664536798 178.95948091590202 L 245.53038065034994 178.95693304148395 L 245.52731393765313 178.9553462204931 L 245.52238504460058 178.95277422979746 L 245.51932586689847 178.95116441312595 L 245.51443469417748 178.94856892451884 L 245.5113821036869 178.94693550555908 L 245.5065292696636 178.94431713740659 L 245.50348231115242 178.94265946594933 L 245.49866843419287 178.94001883661755 L 245.49562614450625 178.9383362172892 L 245.4908518429765 178.9356739451442 L 245.4878132505634 178.93396563572045 L 245.4830791428296 178.9312823391284 L 245.48004326726385 178.92954754871351 L 245.47534997169205 178.92684384604044 L 245.47231582317437 178.92508173309378 L 245.46766395813071 178.92235824270574 L 245.46463053702777 178.92056791293794 L 245.46002072087833 178.9178252532011 L 245.45698701719903 178.91600575727006 L 245.45241986830987 178.9132445465505 L 245.4493848612448 178.91139487761828 L 245.444860997982 178.90861573428205 L 245.44182365542073 178.90673482536923 L 245.43734369615046 178.90393836778244 L 245.43430297422753 178.90202508893537 L 245.42986753731583 178.89921193546414 L 245.4268223799524 178.8972650906985 L 245.42243208376533 178.8944358597089 L 245.41938142225905 178.89245418374523 L 245.41503688516275 178.88960949360333 L 245.41197963779555 178.88759164835534 L 245.40768147815612 178.88473211742723 L 245.40461654984946 178.88267668824233 L 245.40036538603295 178.87980293489414 L 245.39729166802195 178.87770842650266 L 245.39308811839447 178.87482106910048 L 245.39000448800348 178.87268590130464 L 245.38584917093112 178.86978555821452 L 245.38275449138231 178.8676080612434 L 245.37864802523114 178.86469535083145 L 245.37554114554052 178.86247376036835 L 245.37148414867667 178.85954930100067 L 245.36836390365914 178.85728175286556 L 245.36435699444868 178.85434616290826 L 245.36122220481226 178.85203068734464 L 245.3572660016213 178.84908458516375 L 245.35411547422495 178.84671910074425 L 245.35021059541955 178.8437631047059 L 245.3470431236417 178.84134541177374 L 245.34319018758796 178.83838014024406 L 245.34000455190633 178.8359079139172 L 245.33620417697037 178.83293398526223 L 245.33299914573766 178.8304047679364 L 245.32925195028554 178.8274228005222 L 245.32602628073818 178.8248339938437 L 245.322332883136 178.82184460603645 L 245.31908532267315 178.81919346230913 L 245.315446341287 178.81619727247485 L 245.31217562908452 178.81348088548395 L 245.3085916822805 178.81047851198878 L 245.30529655124818 178.80769380717132 L 245.30176825739235 178.8046858683813 L 245.29844743655565 178.80182959232482 L 245.29497541401415 178.79881670660612 L 245.29162763137398 178.7958854158282 L 245.28821249851288 178.7928682015468 L 245.28483648446945 178.78985825052723 L 245.28147885965484 178.78683732604932 L 245.27807335102239 178.78374485442532 L 245.27477385262034 178.78072083811696 L 245.2713375973954 178.7775417570622 L 245.268096843772 178.77451526728947 L 245.26462860670966 178.77124524499166 L 245.26144721623106 178.76821690012065 L 245.25794578535124 178.764851346322 L 245.2548243763835 178.7618217647188 L 245.25128857055353 178.75835581429308 L 245.24822776146272 178.7553256143238 L 245.24467438566683 178.7517722385278 L 245.24164418569745 178.74871142943672 L 245.2381782352799 178.74517562361495 L 245.2351486536767 178.7420542146472 L 245.23178309987964 178.73855278376902 L 245.22875475500862 178.73537139329042 L 245.2254847327139 178.73190315623137 L 245.22245824294114 178.72866240260802 L 245.2192791618833 178.72522614737977 L 245.21625514557493 178.72192664897773 L 245.21316267394954 178.7185211403437 L 245.21014174947163 178.71516351552907 L 245.20713179845345 178.7117875014872 L 245.20411458417206 178.7083723686261 L 245.20118329339567 178.7050245859877 L 245.19817040767694 178.7015525634462 L 245.19531413162022 178.69823174260924 L 245.19230619283022 178.69470344875344 L 245.18952148801017 178.6914083177181 L 245.186519114515 178.68782437091406 L 245.18380272752512 178.6845536587128 L 245.18080653769087 178.68091467732665 L 245.17815539396406 178.67766711686446 L 245.1751660061568 178.67397371926225 L 245.172577199478 178.67074804971455 L 245.16959523206384 178.66700085426243 L 245.167066014738 178.66379582302972 L 245.16409208608303 178.65999544809375 L 245.16161985975756 178.65680981241397 L 245.15865458822785 178.65295687636024 L 245.15623689529428 178.64978940458053 L 245.15328089925595 178.64588452577513 L 245.15091541483505 178.64273399837694 L 245.1479693126542 178.63877779518597 L 245.14565383709333 178.63564300555328 L 245.142718247136 178.63163609634282 L 245.14045069899953 178.6285158513234 L 245.13752623963185 178.62445885445956 L 245.13530464916875 178.62135197476894 L 245.1323919387568 178.61724550861777 L 245.13021444178568 178.61415082906896 L 245.12731409869556 178.6099955119966 L 245.12517893090103 178.60691188160752 L 245.1222915734988 178.60270833198004 L 245.12019706510603 178.59963461396714 L 245.11732331175784 178.59538345015062 L 245.11526788257208 178.5923185218427 L 245.11240835164398 178.58802036220325 L 245.11039050639684 178.5849631148373 L 245.10754581625494 178.580618577741 L 245.10556414029207 178.57756791623598 L 245.10273490930246 178.57317762004894 L 245.10078806453527 178.57013246268303 L 245.09797491106403 178.5656970257713 L 245.09606163221773 178.5626563038496 L 245.09326517463094 178.55817634457932 L 245.09138426572005 178.55513900202118 L 245.0886051223838 178.55061513875842 L 245.08675545344894 178.54758013168902 L 245.08399424272937 178.54301298279984 L 245.08217474679904 178.53997927912172 L 245.0794320870622 178.53536946297228 L 245.07764175729258 178.53233604186624 L 245.07491826690458 178.52768417682256 L 245.07315615396152 178.52465002831107 L 245.07045245128842 178.5199567327393 L 245.06871766087224 178.5169208571713 L 245.06603436428014 178.5121867494375 L 245.06432605485543 178.50914815702268 L 245.06166378271047 178.50437385549296 L 245.05998116338196 178.5013315658061 L 245.05734053405018 178.49651768884652 L 245.05568286259356 178.49347073033644 L 245.05306449444106 178.48861789631312 L 245.05143107548236 178.48556530582457 L 245.0488355868752 178.48067413310358 L 245.0472257702016 178.47761495539743 L 245.04465377950598 178.47268606234488 L 245.04306695851722 178.4696193496521 L 245.04051908409912 178.46465335463407 L 245.03895469435494 178.46157816617327 L 245.0364315545805 178.45657568755587 L 245.03488907248894 178.45349108911526 L 245.03239128572423 178.44845274526455 L 245.0308702273225 178.44535780876885 L 245.02839841193364 178.44028421805092 L 245.02689833177635 178.43717802115455 L 245.0244531061294 178.43206980193554 L 245.02297359627113 178.42895142762916 L 245.0205555787322 178.4238091982751 L 245.0190962678039 178.4206777345146 L 245.0167060767391 178.41550211339163 L 245.01526662911704 178.41235665275968 L 245.0129048828924 178.4071482582339 L 245.01148499792868 178.40398789757703 L 245.00915231491035 178.39874734801447 L 245.00775172627766 178.39557118818018 L 245.00544872483172 178.39029910194697 L 245.00406719990954 178.3871062474722 L 245.00179449840206 178.3818032429344 L 245.00043183775085 178.37859280179464 L 244.99819005454793 178.3732594973184 L 244.99684609144848 178.3700305806975 L 244.99463584491625 178.36466759464884 L 244.99331044498098 178.36141931675394 L 244.99113235348545 178.35602726749903 L 244.9898254143074 178.35275874534528 L 244.98768009621475 178.34733825125016 L 244.9863915471134 178.3440486045672 L 244.98427962078966 178.33860028399798 L 244.98300942257615 178.33528863507757 L 244.98093150638744 178.32981310640034 L 244.97967965121143 178.3264785800459 L 244.9776363635238 178.3209764616267 L 244.97640287475193 178.31761818508588 L 244.9743948339315 178.31209009529087 L 244.97317976609062 178.3087071982657 L 244.97120759050352 178.30315375546095 L 244.97001102926137 178.29974537013078 L 244.96807533727363 178.29416719268238 L 244.96689739946285 178.2907324537611 L 244.9649988094406 178.28513016003515 L 244.96383964313455 178.28166820489648 L 244.9619787734439 178.27604241325903 L 244.96083855806572 178.27255238208522 L 244.9590160270727 178.26690371090243 L 244.9578949735385 178.26338474686426 L 244.9561113996092 178.25771381450218 L 244.95500975051723 178.25416506401655 L 244.9532657520178 178.24847248884126 L 244.9521837818679 178.2448931018681 L 244.95047997716438 178.23917950224572 L 244.949417992599 178.23556863260293 L 244.94775500005753 178.22983462689953 L 244.94671334014916 178.22619143268741 L 244.9450917781358 178.22043763926908 L 244.9440708146858 178.2167612832998 L 244.94249130156663 178.21098832053266 L 244.94149143943383 178.2072779708344 L 244.93995459357498 178.2014864570845 L 244.93897627103112 178.19774128748648 L 244.93748271079866 178.19193184111995 L 244.9365263998917 178.18815103185773 L 244.93507674365173 178.18232427124065 L 244.93414295059537 178.17850700966588 L 244.93273781671394 178.1726635531643 L 244.93182708228048 178.16880903448367 L 244.93046708912374 178.16294950046375 L 244.92957998905834 178.1590569285956 L 244.92826575499234 178.1531819354234 L 244.9274029004196 178.14925052386863 L 244.92613504381046 178.14336068991022 L 244.92529708165713 178.1393896627565 L 244.92407622087092 178.133485606378 L 244.92326383427488 178.12947419932533 L 244.9220905876777 178.12355653889284 L 244.92130449640234 178.11950400040948 L 244.92017948236028 178.11357335428903 L 244.91942044319217 178.10947894681732 L 244.9183442800713 178.10353593337507 L 244.91761308720376 178.0993989346224 L 244.91658639337024 178.09344417222442 L 244.91588387877465 178.08926387658093 L 244.9149072725945 178.0832979835933 L 244.9142343063547 178.0790737035719 L 244.913308406194 178.07309729836072 L 244.91266589682095 178.06882836618595 L 244.91179132104588 178.06284206711732 L 244.91118021575397 178.05852783640236 L 244.91035758273054 178.05253226184237 L 244.90977886766476 178.04817210931196 L 244.90900879575906 178.04216787762667 L 244.90846349618158 178.0377612049971 L 244.90774660375976 178.03174893455264 L 244.90723578417646 178.0272951704836 L 244.9065726896046 178.02127547964602 L 244.90609745382696 178.01677408178097 L 244.90548877547113 178.01074758891642 L 244.90505026660955 178.00619804604432 L 244.9044966228358 178.0001653695188 L 244.90409602321043 177.9955672038066 L 244.90359803238493 177.98952896198628 L 244.90323656335326 177.9848817313557 L 244.90279484384206 177.97883854260667 L 244.90247376552435 177.9741418431501 L 244.90208893569354 177.96809432583842 L 244.90180954659706 177.9633477943787 L 244.90148222481275 177.9572965668705 L 244.90124586133857 177.9524998835928 L 244.90097666596682 177.9464455642541 L 244.90078470179222 177.94159845542583 L 244.90057425119915 177.9355416626228 L 244.90042809652573 177.93064390341124 L 244.90027700907743 177.92458525550992 L 244.9001781097338 177.91963667287436 L 244.90008700379636 177.91357678824085 L 244.90003684018612 177.90857726390655 L 244.9000063341256 177.90251676090696 L 244.90127065008465 177.86437647500594 L 244.91036155917556 177.73710374773333 L 244.9194524682665 177.60983102046052 L 244.9467251955392 177.22801283864246 L 244.95581610463014 177.10074011136962 L 244.96490701372102 176.97346738409698 L 244.97399792281192 176.84619465682425 L 244.98308883190288 176.7189219295514 L 244.9844403982994 176.70000000000005 L 244.80101010101066 176.70000000000005 L 244.7000000000006 176.69999999999993 L 244.69621109989933 176.70001435597 L 244.68412070302168 176.70010597721253 L 244.67652078266542 176.70022134330168 L 244.66449284076296 176.70049538254113 L 244.65687121981162 176.70072718806665 L 244.64490696961659 176.70118240857084 L 244.63726622406574 176.70153167197626 L 244.62536690231028 176.702166837013 L 244.61770963571917 176.7026345047729 L 244.60587647913547 176.70344837761004 L 244.59820531955774 176.70403532343167 L 244.586439564878 176.70502666733702 L 244.57875716178935 176.70573369152402 L 244.56706004574573 176.70690126976535 L 244.55936906696647 176.70772909874282 L 244.54774182629117 176.709071674588 L 244.54004495494485 176.71002096058493 L 244.52848882637005 176.7115372973018 L 244.52078875785426 176.71260861819087 L 244.50930497811214 176.71429747904716 L 244.50160441711043 176.7154913383367 L 244.49019422293318 176.71735148660028 L 244.4824958804834 176.71866831357312 L 244.4711605086032 176.7206985125118 L 244.46346709921787 176.72213866250766 L 244.45220778636687 176.72433767538928 L 244.44452202522834 176.7259014302224 L 244.43334000813877 176.72826802031472 L 244.42566460836002 176.72995558882383 L 244.41456112376403 176.7324885193947 L 244.4068987937525 176.7343000381119 L 244.3958750783823 176.73699807242917 L 244.38822851928424 176.73893360636572 L 244.37728580987198 176.74179550769716 L 244.3696577131159 176.74385505123598 L 244.3587972463938 176.74687958284943 L 244.35119029134796 176.749063060733 L 244.34041330404818 176.75224898589627 L 244.33283015578192 176.7545562543043 L 244.32213788463662 176.75790233628524 L 244.31458119179936 176.76033318399058 L 244.30397487354077 176.76383818605694 L 244.296447266354 176.76639233565257 L 244.28592813771425 176.7700550210722 L 244.27843222609462 176.77273213025413 L 244.26800152380596 176.77655126229487 L 244.26053989560424 176.77935092519672 L 244.25019885639878 176.7833252671264 L 244.24277407576022 176.78624701569473 L 244.2325239363702 176.7903753307811 L 244.2251385422189 176.79341863618052 L 244.21498053937648 176.79769968769145 L 244.20763704403208 176.8008639617263 L 244.19757241446945 176.80529651292957 L 244.1902733023677 176.80858110948344 L 244.18030328281702 176.81316392364693 L 244.17305100936736 176.8165681401163 L 244.16317683656084 176.82129998050775 L 244.1559738271001 176.8248230592373 L 244.14619673776988 176.8297026891246 L 244.1390453866452 176.8333438188193 L 244.12936661752352 176.8383700014702 L 244.12226928727154 176.84212831858886 L 244.11269007509054 176.84729981727122 L 244.1056490957201 176.85117440738927 L 244.096170677212 176.8564899853709 L 244.08918834558767 176.86047988450272 L 244.07981195748462 176.86593830505146 L 244.07289053679548 176.87004250093162 L 244.0636174158297 176.87564252731525 L 244.05675913514412 176.87985996062855 L 244.04759051804774 176.88560035611488 L 244.04079757193915 176.88992992167525 L 244.03173469544438 176.89580944953212 L 244.02500924370045 176.90024999739308 L 244.01605334453947 176.9062674208883 L 244.00939751191348 176.9108177574027 L 244.00054982681846 176.91697183980412 L 243.99396570285197 176.92163072860623 L 243.9852274685551 176.92792023318162 L 243.97871710743124 176.93268639611085 L 243.97008956066472 176.93911008612804 L 243.96365498110845 176.94398220407578 L 243.95513935860447 176.95053884280262 L 243.94878254381422 176.95551555648623 L 243.94038008230493 176.9622039071905 L 243.93410297989138 176.9672838178661 L 243.92581491610898 176.97410264381563 L 243.9196194380609 176.9792843139093 L 243.91144700873755 176.98623237837188 L 243.90533503138462 176.99151433204705 L 243.89727947325255 176.99859039829056 L 243.89125283723354 177.00397112194005 L 243.88331538702488 177.01117395323226 L 243.87737589722605 177.01665189592137 L 243.86955779167303 177.02398025553012 L 243.8637072171771 177.0295538293518 L 243.85600969301186 177.0370064805449 L 243.85024976699012 177.04267406094488 L 243.8426740609449 177.0502497669901 L 243.83700648054491 177.05600969301184 L 243.82955382935182 177.0637072171771 L 243.82398025553013 177.06955779167302 L 243.81665189592138 177.07737589722603 L 243.81117395323227 177.08331538702487 L 243.80397112194007 177.09125283723353 L 243.79859039829057 177.09727947325254 L 243.79151433204706 177.1053350313846 L 243.7862323783719 177.11144700873754 L 243.7792843139093 177.11961943806088 L 243.77410264381564 177.12581491610896 L 243.76728381786612 177.13410297989137 L 243.76220390719052 177.14038008230492 L 243.75551555648624 177.1487825438142 L 243.75053884280214 177.15513935860508 L 243.7439822040753 177.1636549811091 L 243.73911008612853 177.17008956066408 L 243.73268639611135 177.17871710743057 L 243.72792023318164 177.1852274685551 L 243.72163072860624 177.19396570285195 L 243.71697183980353 177.20054982681933 L 243.71081775740214 177.20939751191435 L 243.70626742088896 177.21605334453855 L 243.7002499973937 177.22500924369953 L 243.69580944953213 177.23173469544437 L 243.68992992167526 177.24079757193914 L 243.6856003561149 177.24759051804773 L 243.67985996062856 177.2567591351441 L 243.6756425273149 177.26361741583025 L 243.67004250093126 177.27289053679607 L 243.6659383050509 177.27981195748563 L 243.6604798845022 177.28918834558868 L 243.65648998537094 177.29617067721202 L 243.6511744073893 177.30564909572013 L 243.6472998172721 177.312690075089 L 243.64212831858973 177.32226928726996 L 243.63837000146992 177.32936661752404 L 243.63334381881901 177.33904538664575 L 243.62970268912485 177.3461967377694 L 243.62482305923757 177.35597382709958 L 243.62129998050776 177.36317683656083 L 243.6165681401163 177.37305100936734 L 243.61316392364694 177.380303282817 L 243.60858110948345 177.3902733023677 L 243.60529651292958 177.39757241446944 L 243.6008639617263 177.40763704403207 L 243.59769968769126 177.41498053937693 L 243.59341863618033 177.42513854221937 L 243.59037533078111 177.43252393637022 L 243.58624701569474 177.44277407576024 L 243.58332526712616 177.45019885639948 L 243.5793509251965 177.4605398956049 L 243.57655126229477 177.46800152380635 L 243.57273213025402 177.47843222609504 L 243.5700550210724 177.48592813771387 L 243.56639233565275 177.49644726635358 L 243.56383818605738 177.50397487353962 L 243.560333183991 177.51458119179821 L 243.55790233628488 177.52213788463777 L 243.55455625430398 177.53283015578307 L 243.5522489858963 177.54041330404817 L 243.54906306073303 177.55119029134795 L 243.54687958284947 177.5587972463938 L 243.54385505123602 177.5696577131159 L 243.5417955076972 177.57728580987197 L 243.53893360636576 177.58822851928423 L 243.5369980724292 177.59587507838228 L 243.53430003811195 177.6068987937525 L 243.53248851939475 177.61456112376402 L 243.52995558882387 177.62566460836 L 243.52826802031475 177.63334000813876 L 243.52590143022243 177.64452202522833 L 243.52433767538932 177.65220778636686 L 243.5221386625077 177.66346709921785 L 243.52069851251164 177.67116050860437 L 243.518668313573 177.6824958804846 L 243.51735148660035 177.69019422293317 L 243.51549133833677 177.70160441711042 L 243.5142974790474 177.7093049781109 L 243.51260861819108 177.72078875785303 L 243.51153729730166 177.72848882637123 L 243.51002096058485 177.74004495494603 L 243.5090716745882 177.74774182628997 L 243.507729098743 177.75936906696526 L 243.5069012697654 177.76706004574572 L 243.50573369152406 177.77875716178934 L 243.50502666733698 177.78643956487917 L 243.50403532343165 177.79820531955892 L 243.5034483776101 177.80587647913546 L 243.50263450477297 177.81770963571915 L 243.50216683701308 177.82536690231026 L 243.50153167197632 177.83726622406573 L 243.5011824085709 177.84490696961657 L 243.50072718806672 177.8568712198116 L 243.5004953825412 177.86449284076295 L 243.50022134330175 177.8765207826654 L 243.5001059772126 177.88412070302167 L 243.50001435597008 177.89621109989932 L 243.5 177.90000000000003 L 243.5 190.47171717171673 L 243.4999999999999 190.5999999999995 L 243.50001435596997 190.60378890010068 L 243.50010597721248 190.61587929697833 L 243.50022134330163 190.6234792173346 L 243.5004953825411 190.63550715923705 L 243.5007271880666 190.6431287801884 L 243.5011824085708 190.65509303038343 L 243.5015316719762 190.66273377593427 L 243.50216683701296 190.67463309768974 L 243.50263450477286 190.68229036428085 L 243.50344837761 190.69412352086454 L 243.50403532343162 190.70179468044228 L 243.50502666733698 190.71356043512202 L 243.50573369152397 190.72124283821066 L 243.5069012697653 190.73293995425428 L 243.50772909874277 190.74063093303354 L 243.50907167458794 190.75225817370884 L 243.51002096058488 190.75995504505516 L 243.51153729730174 190.77151117362996 L 243.51260861819082 190.77921124214575 L 243.51429747904712 190.79069502188787 L 243.51549133833666 190.79839558288958 L 243.51735148660023 190.80980577706683 L 243.51866831357307 190.8175041195166 L 243.52069851251176 190.82883949139682 L 243.52213866250761 190.83653290078215 L 243.52433767538923 190.84779221363314 L 243.52590143022235 190.85547797477167 L 243.52826802031467 190.86665999186124 L 243.52995558882378 190.87433539164 L 243.53248851939466 190.88543887623598 L 243.53430003811187 190.8931012062475 L 243.53699807242913 190.90412492161772 L 243.53893360636567 190.91177148071577 L 243.54179550769712 190.92271419012803 L 243.54385505123594 190.9303422868841 L 243.54687958284939 190.9412027536062 L 243.54906306073295 190.94880970865205 L 243.55224898589623 190.95958669595183 L 243.55455625430426 190.9671698442181 L 243.5579023362852 190.9778621153634 L 243.56033318399054 190.98541880820065 L 243.5638381860569 190.99602512645924 L 243.56639233565252 191.00355273364602 L 243.57005502107216 191.01407186228576 L 243.57273213025408 191.0215677739054 L 243.57655126229483 191.03199847619405 L 243.57935092519668 191.03946010439577 L 243.58332526712636 191.04980114360123 L 243.58624701569468 191.0572259242398 L 243.59037533078106 191.0674760636298 L 243.59341863618047 191.0748614577811 L 243.5976996876914 191.08501946062353 L 243.60086396172625 191.09236295596793 L 243.60529651292953 191.10242758553056 L 243.6085811094834 191.1097266976323 L 243.61316392364688 191.119696717183 L 243.61656814011624 191.12694899063266 L 243.6212999805077 191.13682316343917 L 243.62482305923726 191.1440261728999 L 243.62970268912454 191.15380326223013 L 243.63334381881924 191.16095461335482 L 243.63837000147015 191.1706333824765 L 243.64212831858882 191.17773071272848 L 243.64729981727118 191.18730992490947 L 243.65117440738922 191.1943509042799 L 243.65648998537085 191.203829322788 L 243.66047988450268 191.21081165441234 L 243.6659383050514 191.2201880425154 L 243.67004250093157 191.22710946320453 L 243.6756425273152 191.23638258417031 L 243.6798599606285 191.2432408648559 L 243.68560035611483 191.25240948195227 L 243.6899299216752 191.25920242806086 L 243.69580944953208 191.26826530455563 L 243.70024999739303 191.27499075629956 L 243.70626742088825 191.28394665546054 L 243.71081775740265 191.29060248808653 L 243.71697183980407 191.29945017318155 L 243.7216307286062 191.30603429714805 L 243.72792023318158 191.3147725314449 L 243.7326863961108 191.32128289256877 L 243.739110086128 191.3299104393353 L 243.74398220407573 191.33634501889156 L 243.75053884280257 191.34486064139554 L 243.7555155564862 191.3512174561858 L 243.76220390719047 191.35961991769508 L 243.76728381786606 191.36589702010863 L 243.77410264381558 191.37418508389104 L 243.77928431390924 191.38038056193912 L 243.78623237837184 191.38855299126246 L 243.791514332047 191.3946649686154 L 243.79859039829051 191.40272052674746 L 243.80397112194 191.40874716276647 L 243.8111739532322 191.41668461297513 L 243.81665189592132 191.42262410277397 L 243.82398025553007 191.43044220832698 L 243.82955382935177 191.4362927828229 L 243.83700648054486 191.44399030698816 L 243.84267406094483 191.4497502330099 L 243.85024976699006 191.45732593905512 L 243.8560096930118 191.4629935194551 L 243.86370721717705 191.4704461706482 L 243.86955779167297 191.47601974446988 L 243.877375897226 191.48334810407863 L 243.88331538702482 191.48882604676774 L 243.89125283723348 191.49602887805995 L 243.8972794732525 191.50140960170944 L 243.90533503138457 191.50848566795295 L 243.9114470087375 191.51376762162812 L 243.91961943806083 191.5207156860907 L 243.92581491610892 191.52589735618437 L 243.93410297989132 191.5327161821339 L 243.94038008230487 191.5377960928095 L 243.94878254381416 191.54448444351377 L 243.95513935860504 191.54946115719787 L 243.96365498110904 191.5560177959247 L 243.97008956066404 191.56088991387148 L 243.97871710743053 191.56731360388866 L 243.98522746855505 191.57207976681838 L 243.9939657028519 191.57836927139377 L 244.00054982681928 191.58302816019648 L 244.0093975119143 191.58918224259787 L 244.0160533445385 191.59373257911105 L 244.0250092436995 191.5997500026063 L 244.03173469544433 191.60419055046788 L 244.0407975719391 191.61007007832475 L 244.04759051804768 191.61439964388512 L 244.05675913514406 191.62014003937145 L 244.0636174158302 191.62435747268512 L 244.07289053679602 191.62995749906875 L 244.0798119574856 191.6340616949491 L 244.08918834558864 191.63952011549782 L 244.09617067721197 191.64351001462907 L 244.10564909572008 191.6488255926107 L 244.11269007508895 191.6527001827279 L 244.12226928726992 191.65787168141028 L 244.129366617524 191.6616299985301 L 244.1390453866457 191.666656181181 L 244.14619673776934 191.67029731087516 L 244.15597382709953 191.67517694076244 L 244.16317683656078 191.67870001949225 L 244.1730510093673 191.6834318598837 L 244.18030328281696 191.68683607635307 L 244.19027330236764 191.69141889051656 L 244.1975724144694 191.69470348707043 L 244.20763704403203 191.6991360382737 L 244.21498053937688 191.70230031230875 L 244.22513854221933 191.70658136381968 L 244.23252393637017 191.7096246692189 L 244.2427740757602 191.71375298430527 L 244.25019885639944 191.71667473287386 L 244.26053989560486 191.7206490748035 L 244.2680015238063 191.72344873770524 L 244.278432226095 191.727267869746 L 244.28592813771382 191.72994497892762 L 244.29644726635354 191.73360766434726 L 244.30397487353957 191.73616181394263 L 244.31458119179817 191.73966681600902 L 244.32213788463773 191.74209766371513 L 244.33283015578303 191.74544374569604 L 244.34041330404813 191.7477510141037 L 244.3511902913479 191.75093693926698 L 244.35879724639375 191.75312041715054 L 244.36965771311586 191.756144948764 L 244.37728580987192 191.7582044923028 L 244.38822851928418 191.76106639363425 L 244.39587507838223 191.7630019275708 L 244.40689879375245 191.76569996188806 L 244.41456112376397 191.76751148060526 L 244.42566460835997 191.77004441117614 L 244.4333400081387 191.77173197968526 L 244.44452202522828 191.77409856977758 L 244.4522077863668 191.7756623246107 L 244.4634670992178 191.7778613374923 L 244.47116050860433 191.77930148748837 L 244.48249588048455 191.78133168642702 L 244.49019422293313 191.78264851339966 L 244.50160441711037 191.78450866166324 L 244.50930497811086 191.7857025209526 L 244.52078875785298 191.78739138180893 L 244.5284888263712 191.78846270269835 L 244.54004495494598 191.78997903941516 L 244.54774182628992 191.7909283254118 L 244.55936906696522 191.792270901257 L 244.56706004574568 191.79309873023462 L 244.5787571617893 191.79426630847595 L 244.58643956487913 191.79497333266303 L 244.59820531955887 191.79596467656836 L 244.60587647913542 191.7965516223899 L 244.6177096357191 191.79736549522704 L 244.62536690231022 191.79783316298693 L 244.63726622406568 191.7984683280237 L 244.64490696961653 191.7988175914291 L 244.65687121981156 191.7992728119333 L 244.6644928407629 191.7995046174588 L 244.67652078266536 191.79977865669827 L 244.68412070302162 191.7998940227874 L 244.69621109989927 191.79998564402993 L 244.7 191.8 L 254.7 191.8 L 254.70165812409792 191.7999172856873 L 254.70378890010073 191.79998564402987 Z" id="element_216" /></svg>