<?xml version='1.0' encoding='utf-8'?>
<svg xmlns:svg="http://www.w3.org/2000/svg" version="1.1" id="Layer_1" x="0px" y="0px" viewBox="0 0 500 500" style="width: 188px;" xml:space="preserve" data-imageid="moscow-46" imageName="Moscow" class="illustrations_image"><svg:style type="text/css">
	.st0_moscow-46{fill:#FFFFFF;}
	.st1_moscow-46{fill:#231F20;}
	.st2_moscow-46{fill:#68E1FD;}
	.st3_moscow-46{fill:#D1D3D4;}
</svg:style><svg:path class="st0_moscow-46" d="M 262.8955859221217 285.90001948446303 L 262.8713747253669 285.9002332330086 L 262.86255776114444 285.90038883967736 L 262.83841149282927 285.9010280240937 L 262.8296200536828 285.9013381580854 L 262.80554242400365 285.90239968654214 L 262.79678060783687 285.902863034176 L 262.7727753269905 285.90434381484255 L 262.7640470857013 285.9049589279131 L 262.7401178638841 285.90685586895916 L 262.7314269984071 285.9076211755111 L 262.70757754581564 285.9099311851061 L 262.6989277020824 285.9108450003254 L 262.67516172891334 285.91356498663896 L 262.66655639477017 285.91462552378033 L 262.64287761121994 285.91775239498185 L 262.63432011421054 285.91895777626377 L 262.6107322304757 285.92248844052295 L 262.60222573653664 285.9238367079143 L 262.57873246281383 285.9277680734006 L 262.570279975768 285.9292571992445 L 262.54688502225366 285.93358617412747 L 262.5384893841157 285.93521407153656 L 262.51519646100644 285.93993756398584 L 262.506860353047 285.9417020969571 L 262.4836731705393 285.9468170151421 L 262.4753991150199 285.9487160083519 L 262.45232138331045 285.95421926044224 L 262.44411174591613 285.95625050866505 L 262.4211471752013 285.96213900283027 L 262.41300416803085 285.9643002799633 L 262.3901564685073 285.9705709243729 L 262.3820821536414 285.972859992022 L 262.35935503550564 285.97950969484555 L 262.35135132906163 285.98192431045493 L 262.3287485025102 285.988949979862 L 262.3208171791458 285.99148790436493 L 262.29834235437534 285.998886448525 L 262.2904850521747 286.0015454535059 L 262.2681419393816 286.00931378058857 L 262.26036016509727 286.01209165493793 L 262.23815247447817 286.02022667311275 L 262.2304476090598 286.02312122917596 L 262.2083790508113 286.03161984661244 L 262.20075235518004 286.03462892582814 L 262.1788266394986 286.0434880506959 L 262.17127926052706 286.0466095287234 L 262.14950009760923 286.0558260691919 L 262.142033074252 286.05905786053785 L 262.1204041742944 286.0686287247766 L 262.1130184438496 286.07196878691883 L 262.0915435170487 286.0818908830974 L 262.08423992148744 286.0853372201266 L 262.0629226780398 286.0956074564146 L 262.05570197039606 286.0991581221939 L 262.03454612049825 286.1097734067608 L 262.02740897124914 286.11342650763413 L 262.0064182250977 286.12438374864956 L 261.9993652285602 286.12813744568666 L 261.9785432963517 286.13943355132005 L 261.97157497699953 286.1432860621485 L 261.9509255689305 286.1549179405695 L 261.94404238767356 286.15886754077667 L 261.9235692139405 286.17083210015477 L 261.9167715742946 286.1748771243038 L 261.8964783450941 286.18717127280854 L 261.88976659924884 286.1913101150705 L 261.8696570247775 286.20393076087146 L 261.86303147953583 286.20816187529675 L 261.8431092699901 286.22110592656344 L 261.8365701925591 286.2254278270145 L 261.8168390581356 286.23869219191647 L 261.8103866817647 286.2431034516729 L 261.79085033266 286.25668503837966 L 261.78448486211363 286.2611842894332 L 261.76514700852414 286.2750800061143 L 261.7588686253606 286.2796659381847 L 261.739732977483 286.29387269300975 L 261.73354184516575 286.29854405227286 L 261.71461211319655 286.3130587534114 L 261.70850838199016 286.31781434098497 L 261.68978827612585 286.33263389660647 L 261.6837720877986 286.3374725667882 L 261.6652653182358 286.3525938850623 L 261.65933681055816 286.3575145433407 L 261.64104708749346 286.3729345324369 L 261.6352063985213 286.37793613329114 L 261.61713743215114 286.39365170137893 L 261.61138470428443 286.3987332458906 L 261.5935402048054 286.4147413011395 L 261.5878755886409 286.41990183440885 L 261.57025926624954 286.43619928498856 L 261.5646829242144 286.4414378933765 L 261.54729848910733 286.4580216474564 L 261.5418105988512 286.4633374556831 L 261.5246617612249 286.4802044214328 L 261.51926251880496 286.4855965895122 L 261.50235298885593 286.50274367510127 L 261.4970426116858 286.5082113951469 L 261.4803760996107 286.52563550874487 L 261.47515482919096 286.5311780016383 L 261.4587350451862 286.5488760514147 L 261.4536031495875 286.5544925633775 L 261.43743380384973 286.5724614575019 L 261.4323915799898 286.578151256534 L 261.4164763827156 286.59638790317587 L 261.41152415838036 286.6021502754228 L 261.3958668197662 286.6206515827518 L 261.3910049554197 286.62648582876 L 261.37560918566214 286.6452487049456 L 261.3708380760021 286.6511541358613 L 261.3557075852977 286.6701754890731 L 261.3510276605934 286.67615142275116 L 261.33616615913866 286.6954281611586 L 261.33157788631496 286.70147391823076 L 261.3169890843065 286.7210029500034 L 261.31249296780356 286.72711784987723 L 261.2981805754379 286.7468960831847 L 261.2937771578208 286.75307944001327 L 261.2797448852945 286.7731037830251 L 261.275434747624 286.77935490164083 L 261.26168630513354 286.7996222625265 L 261.25747006708735 286.805940434361 L 261.24400916482944 286.82644772129004 L 261.2398874845913 286.83283222026296 L 261.2267178327623 286.853576341405 L 261.2226914066444 286.8600264198406 L 261.209816715441 286.88100428336514 L 261.2058862772737 286.88751916789596 L 261.19331025689235 286.90872768197255 L 261.1894765771528 286.9153065694818 L 261.17720293779007 286.93674264227997 L 261.1734668224835 286.9433846958729 L 261.16149927433594 286.96504523556223 L 261.15786156362384 286.9717495805872 L 261.1462038168881 286.9936314953372 L 261.1426653834644 287.0003972154664 L 261.1313211483369 287.0224974134466 L 261.12788289554595 287.02932354684464 L 261.1168558822232 287.0516389362246 L 261.1135187419324 287.0585244717947 L 261.1028126606111 287.08105196074405 L 261.0995775908329 287.08799583448103 L 261.0891961517095 287.1107323311692 L 261.08606413396484 287.1177334226556 L 261.0760110472359 287.1406758352521 L 261.0729830836859 287.147732964266 L 261.06326205954804 287.1708782009405 L 261.06033916987525 287.1779901242385 L 261.0509539185249 287.2013350931604 L 261.04813713658086 287.20850050142957 L 261.0390913682146 287.23204211076853 L 261.0363817384384 287.23925962576834 L 261.02767916325286 287.2629947836939 L 261.02507773686915 287.27026295560455 L 261.0167220650608 287.2941885702862 L 261.0142298960599 287.30150587529505 L 261.00622483782524 287.32561885490236 L 261.00384297874587 287.33298369302565 L 260.99619224428153 287.3572809457282 L 260.99392174180065 287.36469163890007 L 260.98662904130316 287.38917007286733 L 260.98447093164884 287.39662486331144 L 260.97753997531476 287.42128138671296 L 260.9754952795176 287.42877843561104 L 260.96892977754345 287.45360995661645 L 260.96699949654305 287.4611473430906 L 260.9608031591254 287.48615076986937 L 260.95898826874924 287.4937264902991 L 260.95316480608466 287.5188987310207 L 260.951466251921 287.52651069870103 L 260.94601937420595 287.5518486615352 L 260.9444380663905 287.55949470669907 L 260.9393714838216 287.5849952998152 L 260.9379082917636 287.5926731700201 L 260.93322571453746 287.61833330158777 L 260.9318814616062 287.6260406624901 L 260.92758659991927 287.65185724067885 L 260.9263620581194 287.6595916772006 L 260.9224586221682 287.68556161018 L 260.9213545068305 287.6933206280666 L 260.9178462068116 287.7194408240062 L 260.9168631713265 287.7272218517934 L 260.9137537174365 287.75348921886274 L 260.9128923480606 287.76128961024096 L 260.91018545049604 287.78770105660954 L 260.90944626125895 287.79551809320566 L 260.90714563021635 287.8220705270431 L 260.90652905796117 287.82990142159315 L 260.90463840363714 287.8565917510689 L 260.9041448032232 287.86443365098944 L 260.90266783581416 287.89125878427313 L 260.9022974755112 287.89910877563426 L 260.9012379052138 287.9260656208954 L 260.90099096232126 287.9339207327526 L 260.900352499332 287.96100619816065 L 260.90022905604957 287.96886340727167 L 260.90001541056506 287.9960744009963 L 260.90000000000003 288.0 L 260.90000000000003 318.6 L 260.90240763666395 318.6490085701648 L 260.90960735979843 318.69754516100807 L 260.92152983213396 318.74514233862726 L 260.9380602337444 318.79134171618256 L 260.9590393678259 318.83569836841303 L 260.9842651938488 318.8777851165098 L 261.01349477331866 318.9171966420818 L 261.04644660940676 318.9535533905933 L 261.08280335791824 318.9865052266814 L 261.12221488349024 319.0157348061513 L 261.164301631587 319.0409606321742 L 261.2086582838175 319.06193976625565 L 261.2548576613728 319.0784701678661 L 261.302454838992 319.0903926402016 L 261.35099142983523 319.0975923633361 L 261.40000000000003 319.1 L 265.8 319.1 L 265.8490085701648 319.0975923633361 L 265.89754516100805 319.0903926402016 L 265.94514233862725 319.0784701678661 L 265.99134171618255 319.06193976625565 L 266.035698368413 319.0409606321742 L 266.0777851165098 319.0157348061513 L 266.1171966420818 318.9865052266814 L 266.1535533905933 318.9535533905933 L 266.1865052266814 318.9171966420818 L 266.21573480615126 318.8777851165098 L 266.24096063217416 318.83569836841303 L 266.26193976625564 318.79134171618256 L 266.2784701678661 318.74514233862726 L 266.2903926402016 318.69754516100807 L 266.2975923633361 318.6490085701648 L 266.3 318.6 L 266.3 288.0 L 266.2998070440051 287.99607390197554 L 266.29998457456406 287.9960725074326 L 266.2997708260185 287.96886151370796 L 266.2996470837667 287.96099289166057 L 266.29900789935033 287.93390742625246 L 266.2987598446798 287.926029384798 L 266.2976983162231 287.8990725395369 L 266.2973254808918 287.8911880308747 L 266.29584470022525 287.86436289759104 L 266.2953467067547 287.85647486336046 L 266.29344976570866 287.8297845338847 L 266.29282632586256 287.82189590086756 L 266.2905163162676 287.79534346703014 L 266.28976722928877 287.78745714299936 L 266.2870472429753 287.76104569663073 L 266.28617239359824 287.75316456640337 L 266.28304552239666 287.7268971993341 L 266.28204487864923 287.71902412101855 L 266.2785142143901 287.69290392507895 L 266.2773878252013 287.6850417265272 L 266.27345645971496 287.65907179354775 L 266.2722044523496 287.6512232690545 L 266.26787547746665 287.6254066908657 L 266.26649805479957 287.6175745980776 L 266.2617745623503 287.59191446650993 L 266.26027200000635 287.5841015236074 L 266.2551570818214 287.55860093049125 L 266.2535297251912 287.5508098135892 L 266.2480264731008 287.525471850755 L 266.246274734264 287.51770519159743 L 266.2403862400988 287.4925329508758 L 266.23851059465966 287.4847933347508 L 266.23223995025 287.45978990797204 L 266.23024093412124 287.4520798719262 L 266.2235912312977 287.42724835092076 L 266.22146943743496 287.4195703821995 L 266.21444376802793 287.39491385879796 L 266.2121998431496 287.38727039357445 L 266.2048012989895 287.36279195960714 L 266.2024359402903 287.35518538195606 L 266.1946676132076 287.3308881292536 L 266.1921815650858 287.3233207703725 L 266.18404654691096 287.29920779076514 L 266.18144059773084 287.2916819284553 L 266.17294198029435 287.2677563137737 L 266.17021695919743 287.26027417215647 L 266.16135783432975 287.2365390142309 L 266.1585146081081 287.22910276368935 L 266.1492980676396 287.20556115435033 L 266.14633753769346 287.1981729117073 L 266.1367666734547 287.1748279427853 L 266.13368977284193 287.1674897716857 L 266.12376767666336 287.14434453501127 L 266.1205753672556 287.1370584465071 L 266.11030513096756 287.1141160339106 L 266.10699840072976 287.1068839872462 L 266.0963831161628 287.08414749055805 L 266.09296297655806 287.07697139411965 L 266.0820057355427 287.0544439051704 L 266.0784732190817 287.04732561761364 L 266.0671771134483 287.02501022823367 L 266.0635332713881 287.0179515597597 L 266.0519013929671 286.99585136177944 L 266.0481472931667 286.98885407555 L 266.0361827337886 286.9669721608 L 266.03231945873006 286.9600379744796 L 266.0200253102253 286.93837743479025 L 266.0160539552035 286.93150802219486 L 266.00343330940257 286.9100719493967 L 265.99935498089536 286.90326894224984 L 265.98641092962873 286.88206042817325 L 265.9822267438373 286.8753254179286 L 265.9689623789353 286.85434755440406 L 265.964673460522 286.84768209416154 L 265.95109187381524 286.8269379730195 L 265.9466993548058 286.82034357946475 L 265.93280363812465 286.7998362925357 L 265.92830865701495 286.79331444794997 L 265.9141019021899 286.7730470870643 L 265.9095056032255 286.76659924134105 L 265.894990902087 286.74657489832924 L 265.89029443473333 286.7402024710129 L 265.87547487911183 286.7204242377054 L 265.87067939770606 286.714128620027 L 265.855558079432 286.69459958825433 L 265.8506647430191 286.688382145158 L 265.83524475392295 286.66910540675053 L 265.83025472626207 286.6629674788833 L 265.8145391581743 286.64394612567156 L 265.8094536079344 286.63788903135287 L 265.79344555268545 286.6191261551673 L 265.78826565379455 286.61315119228783 L 265.7719682032149 286.5946498849588 L 265.76669513538377 286.5887583328284 L 265.75011138130384 286.5705216861865 L 265.7447463307151 286.5647148073146 L 265.72787936496536 286.5467459131902 L 265.7224235250985 286.5410249549626 L 265.7052764395095 286.5233269051862 L 265.69973101213054 286.51769310146744 L 265.68230689853254 286.50026898786945 L 265.6766730948138 286.4947235604905 L 265.6589750450374 286.47757647490147 L 265.6532540868104 286.4721206350352 L 265.635285192686 286.4552536692854 L 265.62947831381285 286.4498886186955 L 265.611241667171 286.43330486461565 L 265.60535011504186 286.42803179678566 L 265.58684880771284 286.41173434620595 L 265.5808738448327 286.4065544473145 L 265.5621109686471 286.3905463920655 L 265.55605387432774 286.3854608418251 L 265.53703252111603 286.36974527373735 L 265.5308945932502 286.3647552460776 L 265.5116178548427 286.3493352569814 L 265.50540041174565 286.34444192056793 L 265.485871379973 286.3293206022939 L 265.4795757622946 286.3245251208881 L 265.4597975289871 286.3097055652666 L 265.4534251016713 286.30500909791334 L 265.43340075865956 286.2904943967748 L 265.42695291293575 286.28589809781005 L 265.4066855520501 286.271691342985 L 265.40016370746383 286.2671963618749 L 265.37965642053473 286.25330064519375 L 265.373062026981 286.24890812618503 L 265.352317905839 286.23532653947825 L 265.3456524455946 286.23103762106376 L 265.32467458207003 286.2177732561618 L 265.3179395718276 286.21358907037177 L 265.296731057751 286.2006450191051 L 265.2899280506033 286.19656669059736 L 265.2684919778051 286.1839460447964 L 265.26162256520973 286.1799746897746 L 265.2399620255204 286.1676805412699 L 265.2330278392004 286.1638172662116 L 265.2111459244505 286.1518527068335 L 265.2041486382206 286.1480986070328 L 265.18204844024035 286.1364667286118 L 265.1749897717664 286.13282288655165 L 265.1526743823864 286.12152678091826 L 265.14555609482966 286.11799426445725 L 265.1230286058804 286.1070370234419 L 265.115852509442 286.1036168838371 L 265.09311601275385 286.09300159927017 L 265.08588396608945 286.08969486903237 L 265.0629415534929 286.07942463274435 L 265.0556554649888 286.07623232333657 L 265.0325102283143 286.066310227158 L 265.0251720572147 286.06323332654523 L 265.00182708829277 286.0536624623065 L 264.99443884565005 286.0507019323605 L 264.9708972363111 286.041485391892 L 264.9634609857692 286.0386421656702 L 264.93972582784363 286.0297830408025 L 264.93224368622606 286.02705801970546 L 264.9083180715444 286.018559402269 L 264.90079220923525 286.0159534530891 L 264.87667922962794 286.00781843491427 L 264.8691118707472 286.00533238679253 L 264.84481461804467 285.9975640597098 L 264.83720804039217 285.9951987010102 L 264.8127296064249 285.98780015685014 L 264.8050861412029 285.9855562319722 L 264.7804296178013 285.97853056256514 L 264.7727516490795 285.97640876870224 L 264.74792012807416 285.9697590658787 L 264.74021009202704 285.96776004974964 L 264.7152066652483 285.96148940534005 L 264.70746704912534 285.95961375990134 L 264.6822948084037 285.9537252657361 L 264.674528149244 285.9519735268988 L 264.64919018640984 285.9464702748085 L 264.64139906950993 285.9448429181788 L 264.6158984763938 285.93972799999375 L 264.60808553348915 285.9382254376494 L 264.58242540192145 285.9335019452002 L 264.5745933091356 285.9321245225335 L 264.5487767309468 285.9277955476505 L 264.5409282064513 285.9265435402848 L 264.5149582734719 285.92261217479853 L 264.5070960749223 285.92148578561 L 264.4809758789827 285.9179551213508 L 264.47310280066597 285.9169544776032 L 264.4468354335966 285.91382760640164 L 264.4389543033694 285.9129527570246 L 264.41254285700086 285.9102327707111 L 264.40465653297 285.9094836837323 L 264.3781040991326 285.9071736741373 L 264.37021546611544 285.9065502342912 L 264.3435251366397 285.9046532932452 L 264.33563710240907 285.90415529977463 L 264.3088119691254 285.9026745191081 L 264.3009274604632 285.9023016837768 L 264.2739706152021 285.90124015532007 L 264.2660925737477 285.90099210064955 L 264.23900710833965 285.9003529162332 L 264.2311384862922 285.90022917398136 L 264.2039274925676 285.9000154254358 L 264.2 285.9 L 262.9 285.9 L 262.9 285.9002001547442 L 262.8955859221217 285.90001948446303 Z" id="element_227" /></svg>