<?xml version='1.0' encoding='utf-8'?>
<svg xmlns:svg="http://www.w3.org/2000/svg" version="1.1" id="Layer_1" x="0px" y="0px" viewBox="0 0 500 500" style="width: 188px;" xml:space="preserve" data-imageid="brainstorming-31" imageName="Brainstorming" class="illustrations_image"><svg:style type="text/css">
	.st0_brainstorming-31{fill:#68E1FD;}
	.st1_brainstorming-31{fill:#FFFFFF;}
	.st2_brainstorming-31{fill:#231F20;}
	.st3_brainstorming-31{fill:#D1D3D4;}
</svg:style><svg:path class="st2_brainstorming-31" d="M 300.7170413677474 376.3826513104274 L 300.7231549052077 376.3783572696111 L 300.80045087273936 376.3231990142692 L 300.8064913472789 376.31882016253815 L 300.88293706143503 376.26252844215094 L 300.88890424333414 376.25806548113184 L 300.96448610006075 376.2006532813872 L 300.9703797600944 376.1961068629945 L 301.0450841553375 376.1375871695804 L 301.0509040606234 376.13295789745075 L 301.12471739032895 376.0733436960551 L 301.1304633002938 376.06863212719065 L 301.2033719604079 376.0079364035014 L 301.2090436228881 376.0031430501048 L 301.2810340093566 375.9413787898098 L 301.2866311568219 375.9365041213167 L 301.35768966559084 375.8736843101039 L 301.36321201151236 375.86872875539547 L 301.43332503852776 375.8048663789527 L 301.43877227387867 375.79983032875305 L 301.50792621508646 375.73493837276834 L 301.5132980049917 375.7298221822148 L 301.58147925633796 375.663913632376 L 301.58677523686924 375.6587176237618 L 301.6539701942999 375.59180546575686 L 301.65918996942287 375.586529931441 L 301.7253850288839 375.5186271509579 L 301.7305281675633 375.5132723564374 L 301.79570972500073 375.444391939164 L 301.8007757584655 375.4389581263062 L 301.86493020982533 375.36911305793035 L 301.8699186290011 375.3636004483601 L 301.93303237022934 375.2928037145698 L 301.93794262334217 375.2872125132097 L 302.00000205038475 375.2154770996928 L 302.0048335407419 375.20980749845177 L 302.06582504954486 375.13714639089625 L 302.07057713350025 375.13139857250326 L 302.1304871200096 375.05782475659703 L 302.13515910511995 375.05199889857477 L 302.1939739652816 374.9775253600057 L 302.19856510865776 374.9716216387845 L 302.25627123841775 374.89626136324057 L 302.2607807452855 374.8902799584 L 302.31736454058984 374.8140459315691 L 302.3217915630608 374.8079870302112 L 302.37723941985547 374.73089223778123 L 302.3815830559216 374.72475603902376 L 302.4358813701526 374.64681346668266 L 302.44014066291214 374.64060018626805 L 302.4932758305254 374.5618228197037 L 302.4974497676495 374.55553269471665 L 302.54940818459113 374.475933519617 L 302.55349569804093 374.4695668133024 L 302.6042637602568 374.38915881535536 L 302.60826372626167 374.3827158220292 L 302.65782782969785 374.3015119869227 L 302.66173906900565 374.29499303696133 L 302.7100856096081 374.21300635038324 L 302.71390688801546 374.2064118152874 L 302.76102226173015 374.12365526292575 L 302.7647522909084 374.1169855604372 L 302.81062289368134 374.03347212797973 L 302.8142603323021 374.02672772724594 L 302.85887256007936 373.9424704003807 L 302.86241601525705 373.9356518271433 L 302.9057562639845 373.8506635915582 L 302.9092042930384 373.8437714333585 L 302.9512589586621 373.7580652747414 L 302.9546100712156 373.7511001861109 L 302.99536554968154 373.6646890901497 L 302.9986182100993 373.6576517977802 L 303.03806089735343 373.57054875016297 L 303.0412135275309 373.5634400580224 L 303.0793298195192 373.4756580444369 L 303.08238080202665 373.4684788388144 L 303.1191570946952 373.3800308449486 L 303.1221047762854 373.37278209939956 L 303.1575274655802 373.28368111094136 L 303.16037016106134 373.2763638911086 L 303.19442564292825 373.18662289374595 L 303.1971616394056 373.1792383620278 L 303.2298363097907 373.0888703414485 L 303.23246387127733 373.08141976148136 L 303.2637441261266 372.9904377033735 L 303.26626149852177 372.9829224443022 L 303.29613373378123 372.8913393343536 L 303.2985391502116 372.8837608748527 L 303.3269897618272 372.79158969875135 L 303.32928144834455 372.78394963076875 L 303.3562968322623 372.6912033742025 L 303.3584730138888 372.6835034063859 L 303.38403956605464 372.59019505504267 L 303.38609847316224 372.5824370158189 L 303.41020258952227 372.4885795553866 L 303.4121424645313 372.4807653956554 L 303.43477054103147 372.38637181182196 L 303.43658964540913 372.37850360723274 L 303.45772807799534 372.28358688568613 L 303.4594246995311 372.2756668384611 L 303.4790598841495 372.18023996488915 L 303.4806323444834 372.1722704051573 L 303.49875067707984 372.0763463652479 L 303.50019733945123 372.06832975186495 L 303.51678521597177 371.9719215313062 L 303.5181044931582 371.9638604521191 L 303.53314830954884 371.8669810365987 L 303.5343386719564 371.85887820813645 L 303.54782482416306 371.7615405833424 L 303.54888480802936 371.75339884990063 L 303.5607996919981 371.6556160015209 L 303.5617279076641 371.6474383336182 L 303.5720579193409 371.5492232473407 L 303.5728530595449 371.5410127395296 L 303.5815845948757 371.44237840104216 L 303.5822454430206 371.4341382690595 L 303.58936489795155 371.33509766405007 L 303.5898903362941 371.3268312412859 L 303.595384106771 371.2273973554425 L 303.5957731244777 371.21910808874054 L 303.5996276064467 371.11929390775094 L 303.59999999999997 371.1 L 303.59999999999997 367.33838383838605 L 303.60000000000014 367.30000000000183 L 303.5999827307585 367.2958444081767 L 303.5991279426983 367.19300002721786 L 303.5989898010604 367.1846901977856 L 303.5964345062492 367.08222673033896 L 303.5961586242601 367.073929038747 L 303.59191642675194 366.9718600888666 L 303.5915033863152 366.96357805742645 L 303.585587890164 366.8619172291663 L 303.5850383876665 366.8536542908892 L 303.5774631969263 366.7524151883033 L 303.5767780365357 366.7441746817746 L 303.5675567552605 366.643370908917 L 303.56673684199166 366.6351560737676 L 303.55588307423557 366.5348012346922 L 303.55492940683655 366.52661520766276 L 303.54245675665345 366.42672290642366 L 303.54137042035796 366.41856871803475 L 303.5272924918019 366.3191525586859 L 303.52607465099555 366.31103313049687 L 303.51040504812056 366.21210671709235 L 303.50905693896675 366.20402485955196 L 303.4918092658268 366.1056017961457 L 303.4903321888951 366.0975602070177 L 303.4715200495442 365.9996540976638 L 303.4699153624827 365.9916553610138 L 303.4495523609749 365.8942798097662 L 303.44782147126625 365.88632639549235 L 303.4259212116556 365.78949500640505 L 303.4240655694913 365.78158927028943 L 303.4006416558317 365.68531564741653 L 303.3986627471404 365.67745983167976 L 303.3737287834859 365.58175757907514 L 303.37162812314415 365.57395381340126 L 303.34519771354877 365.478836535119 L 303.34297683880374 365.4710868381295 L 303.31506358732145 365.3765681382236 L 303.3127240514495 365.3688744193731 L 303.28334156213435 365.2749679018976 L 303.28088492835695 365.26733196375625 L 303.2500468052629 365.1740512327651 L 303.24747464094077 365.16647477366666 L 303.2151944881219 365.07383343321385 L 303.2125083592399 365.0663180502301 L 303.1787997807502 364.9743297043697 L 303.1760012467112 364.9668768965913 L 303.14087784660467 364.8755551493773 L 303.1379684553386 364.8681663214624 L 303.1014438376692 364.77752477694884 L 303.09842512106894 364.77020124291647 L 303.0605128898907 364.6802535051573 L 303.05738635957965 364.672996492394 L 303.0181001189466 364.5837561654433 L 303.0148672623817 364.5765668188942 L 302.97422061634785 364.48804750680586 L 302.9708828932607 364.48092689332725 L 302.92888944588003 364.39314220015535 L 302.9254482850571 364.3860913129993 L 302.8821216403837 364.2990548427979 L 302.87857843678165 364.29207460620387 L 302.8339321988694 364.2057999630269 L 302.8302883110677 364.19889123690234 L 302.7843360839707 364.11339202480383 L 302.78059283195137 364.10655560946213 L 302.7333482197236 364.02184543249604 L 302.7295068829785 364.0150820734399 L 302.68098348967396 363.9311745356603 L 302.67704530563265 363.92448492838827 L 302.62725673530537 363.8413936338492 L 302.6232228980732 363.8347784286609 L 302.57218275477715 363.7525169814163 L 302.56805441418254 363.7459767882103 L 302.5157763019718 363.6645587923142 L 302.511554562909 363.65809418535076 L 302.4580520858375 363.57753324485714 L 302.4537380079026 363.57114476748274 L 302.39902477002437 363.49145448644566 L 302.39461936743106 363.48514265575477 L 302.3387089728001 363.40633663822825 L 302.33421321457155 363.40010194965896 L 302.2771192672419 363.32219379969695 L 302.2725340776651 363.31603673154024 L 302.2142701816908 363.23904005319673 L 302.2095964410317 363.23296107101777 L 302.15017620046666 363.15688946834683 L 302.14541474593204 363.1508890293013 L 302.0848517648304 363.07575610635695 L 302.0800033917702 363.06983466339494 L 302.01831127418586 362.99565402423116 L 302.0133767375305 362.989812030183 L 301.95056908751747 362.91659727885377 L 301.94554910343794 362.9108351903852 L 301.8816395250502 362.83859993094455 L 301.87653477283675 362.83291821237714 L 301.8115368701284 362.7616760488791 L 301.80634799428015 362.75607517586775 L 301.7402753713052 362.68583971236626 L 301.73500298382044 362.68032017542447 L 301.6678692446328 362.61110501597364 L 301.66251392749996 362.6056673238462 L 301.5943326761537 362.5374860725 L 301.588894984026 362.53213075536684 L 301.5196798245751 362.46499701617927 L 301.5141602876339 362.4597246286951 L 301.44392482413247 362.39365200572007 L 301.43832395112065 362.38846312987135 L 301.36708178762257 362.323465227163 L 301.3614000690553 362.31836047494966 L 301.2891648096147 362.254450896562 L 301.28340272114605 362.2494309124824 L 301.2101879698168 362.18662326246937 L 301.2043459757687 362.1816887258141 L 301.13016533660493 362.11999660822977 L 301.1242438936431 362.1151482351698 L 301.04911097069873 362.05458525406806 L 301.04311053165287 362.0498237995331 L 300.96703892898194 361.9904035589681 L 300.96095994680314 361.9857298183092 L 300.88396326845964 361.9274659223349 L 300.8778062003029 361.9228807327581 L 300.7998980503409 361.86578678542844 L 300.79366336177145 361.86129102719974 L 300.71485734424493 361.8053806325688 L 300.7085455135541 361.8009752299756 L 300.62885523251697 361.7462619920974 L 300.62246675514285 361.74194791416267 L 300.5419058146493 361.68844543709116 L 300.5354412076859 361.68422369802835 L 300.4540232117898 361.63194558581756 L 300.44748301858357 361.62781724522284 L 300.36522157133896 361.5767771019268 L 300.3586063661506 361.5727432646945 L 300.27551507161144 361.52295469436723 L 300.2688254643393 361.5190165103259 L 300.1849179265597 361.4704931170214 L 300.178154567504 361.46665178027655 L 300.0934443905379 361.41940716804874 L 300.086607975196 361.4156639160293 L 300.0011087630975 361.3697116889323 L 299.9942000369727 361.3660678011305 L 299.9079253937957 361.3214215632183 L 299.9009451572018 361.3178783596163 L 299.8139086870003 361.2745517149429 L 299.8068577998444 361.27111055412 L 299.7190731066725 361.22911710673935 L 299.711952493194 361.22577938365225 L 299.6234331811057 361.1851327376184 L 299.6162438345564 361.18189988105337 L 299.5270035076056 361.14261364042034 L 299.51974649484225 361.1394871101093 L 299.42979875708306 361.1015748789311 L 299.42247522305115 361.098556162331 L 299.3318336785376 361.0620315446616 L 299.32444485062246 361.0591221533954 L 299.23312310340845 361.0239987532888 L 299.22567029563004 361.02120021924986 L 299.13368194976965 360.98749164076014 L 299.1261665667857 360.9848055118781 L 299.03352522633287 360.9525253590593 L 299.0259487672346 360.94995319473713 L 298.9326680362434 360.9191150716431 L 298.9250320981021 360.91665843786575 L 298.8311255806266 360.8872759485506 L 298.8234318617761 360.88493641267866 L 298.7289131618702 360.85702316119637 L 298.7211634648807 360.85480228645133 L 298.62604618659844 360.82837187685595 L 298.61824242092456 360.8262712165142 L 298.52254016831995 360.8013372528597 L 298.5146843525832 360.7993583441684 L 298.4184107297103 360.7759344305088 L 298.41050499359466 360.7740787883445 L 298.31367360450736 360.75217852873385 L 298.30572019023344 360.7504476390252 L 298.2083446389858 360.7300846375174 L 298.20034590233587 360.7284799504559 L 298.10243979298195 360.709667811105 L 298.0943982038537 360.70819073417323 L 297.9959751404475 360.69094306103335 L 297.98789328290735 360.6895949518796 L 297.8889668695028 360.6739253490046 L 297.88084744131373 360.67270750819824 L 297.78143128196496 360.6586295796422 L 297.773277093576 360.6575432433467 L 297.67338479233683 360.6450705931636 L 297.6651987653077 360.6441169257646 L 297.56484392623236 360.63326315800845 L 297.55662909108236 360.6324432447396 L 297.4558253182247 360.62322196346446 L 297.4475848116963 360.62253680307384 L 297.3463457091104 360.6149616123337 L 297.3380827708333 360.61441210983617 L 297.23642194257314 360.60849661368496 L 297.228139911133 360.6080835732482 L 297.1260709612526 360.60384137574005 L 297.11777326966063 360.603565493751 L 297.015309802214 360.6010101989398 L 297.0069999727817 360.60087205730184 L 296.90415559182287 360.6000172692417 L 296.9 360.6 L 213.09999999999997 360.6 L 213.09584596181176 360.6002041958016 L 213.09584440817713 360.60001726924196 L 212.99300002721827 360.6008720573021 L 212.984690197786 360.60101019894006 L 212.88222673033937 360.60356549375126 L 212.8739290387474 360.60384137574033 L 212.771860088867 360.6080835732485 L 212.76357805742708 360.60849661368525 L 212.66191722916693 360.6144121098364 L 212.6536542908896 360.6149616123339 L 212.55241518830368 360.62253680307407 L 212.544174681775 360.6232219634647 L 212.44337090891736 360.6324432447399 L 212.43515607376796 360.63326315800873 L 212.33480123469258 360.6441169257648 L 212.3266152076631 360.64507059316384 L 212.22672290642402 360.65754324334694 L 212.2185687180351 360.6586295796424 L 212.11915255868627 360.67270750819847 L 212.11103313049716 360.67392534900483 L 212.01210671709265 360.6895949518798 L 212.00402485955254 360.6909430610336 L 211.9056017961463 360.70819073417346 L 211.897560207018 360.70966781110525 L 211.79965409766407 360.7284799504561 L 211.7916553610141 360.7300846375176 L 211.6942798097665 360.7504476390254 L 211.6863263954926 360.7521785287341 L 211.58949500640534 360.77407878834475 L 211.58158927028984 360.775934430509 L 211.48531564741688 360.7993583441686 L 211.47745983168005 360.8013372528599 L 211.38175757907544 360.82627121651444 L 211.3739538134015 360.8283718768562 L 211.27883653511924 360.85480228645156 L 211.27108683813 360.8570231611965 L 211.1765681382241 360.8849364126787 L 211.16887441937314 360.8872759485509 L 211.0749679018976 360.9166584378661 L 211.06733196375683 360.91911507164326 L 210.97405123276565 360.94995319473725 L 210.96647477366682 360.9525253590595 L 210.87383343321403 360.9848055118784 L 210.86631805023035 360.98749164076037 L 210.77432970436996 361.0212002192501 L 210.76687689659155 361.02399875328905 L 210.67555514937754 361.0591221533956 L 210.6681663214627 361.0620315446617 L 210.5775247769491 361.0985561623311 L 210.5702012429169 361.1015748789313 L 210.48025350515772 361.1394871101095 L 210.4729964923943 361.1426136404205 L 210.38375616544351 361.18189988105354 L 210.3765668188943 361.1851327376186 L 210.28804750680598 361.2257793836524 L 210.28092689332746 361.2291171067395 L 210.19314220015556 361.2711105541202 L 210.1860913129996 361.27455171494313 L 210.09905484279813 361.31787835961654 L 210.09207460620405 361.32142156321856 L 210.00579996302707 361.36606780113084 L 209.9988912369028 361.36971168893234 L 209.91339202480427 361.4156639160293 L 209.90655560946198 361.41940716804896 L 209.8218454324959 361.4666517802768 L 209.81508207344035 361.47049311702153 L 209.73117453566076 361.519016510326 L 209.72448492838848 361.52295469436746 L 209.64139363384936 361.57274326469474 L 209.63477842866104 361.57677710192695 L 209.55251698141643 361.627817245223 L 209.54597678821023 361.63194558581773 L 209.4645587923141 361.6842236980285 L 209.458094185351 361.68844543709116 L 209.3775332448574 361.7419479141626 L 209.37114476748286 361.7462619920976 L 209.2914544864458 361.8009752299758 L 209.28514265575527 361.80538063256887 L 209.2063366382287 361.8612910271998 L 209.2001019496589 361.86578678542867 L 209.12219379969687 361.92288073275836 L 209.11603673154045 361.92746592233493 L 209.03904005319697 361.9857298183092 L 209.03296107101787 361.9904035589684 L 208.95688946834693 362.04982379953344 L 208.95088902930124 362.05458525406823 L 208.87575610635687 362.11514823516995 L 208.86983466339515 362.1199966082299 L 208.79565402423134 362.18168872581424 L 208.78981203018313 362.1866232624696 L 208.7165972788539 362.24943091248264 L 208.71083519038538 362.2544508965621 L 208.63859993094474 362.31836047494977 L 208.63291821237732 362.3234652271633 L 208.56167604887926 362.38846312987164 L 208.55607517586773 362.39365200572007 L 208.48583971236627 362.459724628695 L 208.48032017542457 362.46499701617967 L 208.41110501597373 362.5321307553673 L 208.4056673238464 362.5374860725001 L 208.33748607250013 362.6056673238463 L 208.33213075536713 362.61110501597386 L 208.26499701617954 362.6803201754247 L 208.25972462869493 362.6858397123664 L 208.19365200571994 362.75607517586786 L 208.18846312987156 362.7616760488793 L 208.12346522716322 362.8329182123773 L 208.1183604749497 362.83859993094484 L 208.054450896562 362.9108351903855 L 208.04943091248256 362.91659727885394 L 207.98662326246952 362.98981203018315 L 207.98168872581417 362.9956540242313 L 207.9199966082298 363.0698346633951 L 207.9151482351697 363.07575610635706 L 207.85458525406798 363.1508890293015 L 207.84982379953334 363.156889468347 L 207.79040355896834 363.2329610710179 L 207.7857298183092 363.2390400531969 L 207.72746592233486 363.3160367315404 L 207.72288073275809 363.3221937996971 L 207.66578678542845 363.40010194965913 L 207.66129102719975 363.40633663822865 L 207.6053806325688 363.4851426557552 L 207.6009752299757 363.4914544864459 L 207.54626199209747 363.57114476748296 L 207.54194791416265 363.5775332448572 L 207.48844543709114 363.65809418535076 L 207.48422369802827 363.66455879231427 L 207.43194558581752 363.7459767882104 L 207.4278172452228 363.7525169814166 L 207.37677710192676 363.8347784286612 L 207.37274326469472 363.84139363384924 L 207.3229546943674 363.9244849283883 L 207.3190165103259 363.9311745356607 L 207.27049311702137 364.01508207344034 L 207.26665178027656 364.021845432496 L 207.21940716804878 364.106555609462 L 207.21566391602923 364.1133920248041 L 207.1697116889322 364.1988912369027 L 207.1660678011305 364.20579996302735 L 207.1214215632183 364.2920746062043 L 207.11787835961644 364.299054842798 L 207.074551714943 364.38609131299944 L 207.07111055412 364.3931422001556 L 207.02911710673933 364.4809268933275 L 207.0257793836522 364.4880475068061 L 206.98513273761836 364.57656681889443 L 206.98189988105338 364.5837561654435 L 206.94261364042035 364.67299649239425 L 206.93948711010933 364.6802535051576 L 206.9015748789311 364.7702012429168 L 206.89855616233083 364.7775247769492 L 206.86203154466145 364.8681663214628 L 206.85912215339548 364.87555514937736 L 206.8239987532889 364.9668768965913 L 206.8212002192498 364.97432970437006 L 206.78749164076007 365.0663180502305 L 206.78480551187815 365.07383343321413 L 206.7525253590593 365.1664747736669 L 206.74995319473706 365.1740512327655 L 206.71911507164305 365.2673319637567 L 206.7166584378658 365.27496790189775 L 206.68727594855062 365.3688744193733 L 206.68493641267855 365.376568138224 L 206.6570231611963 365.4710868381299 L 206.65480228645131 365.4788365351191 L 206.6283718768559 365.5739538134014 L 206.62627121651414 365.5817575790756 L 206.60133725285965 365.6774598316802 L 206.59935834416837 365.68531564741687 L 206.57593443050877 365.7815892702898 L 206.57407878834454 365.78949500640516 L 206.55217852873383 365.8863263954924 L 206.55044763902512 365.89427980976666 L 206.53008463751735 365.9916553610143 L 206.5284799504559 365.9996540976641 L 206.50966781110503 366.09756020701803 L 206.50819073417327 366.10560179614606 L 206.49094306103333 366.2040248595523 L 206.4895949518795 366.2121067170927 L 206.4739253490045 366.3110331304972 L 206.47270750819817 366.31915255868626 L 206.45862957964212 366.41856871803503 L 206.45754324334658 366.4267229064241 L 206.4450705931635 366.52661520766327 L 206.44411692576455 366.53480123469245 L 206.43326315800843 366.6351560737678 L 206.43244324473957 366.6433709089175 L 206.4232219634644 366.7441746817752 L 206.42253680307377 366.7524151883037 L 206.4149616123336 366.8536542908896 L 206.41441210983612 366.8619172291667 L 206.40849661368492 366.96357805742684 L 206.40808357324818 366.971860088867 L 206.40384137574 367.0739290387474 L 206.40356549375096 367.08222673033936 L 206.40101019893976 367.184690197786 L 206.40087205730177 367.19300002721826 L 206.4000172692416 367.2958444081771 L 206.39999999999998 367.3 L 206.39999999999998 370.9626262626247 L 206.39999999999986 370.99999999999807 L 206.4000172794558 371.0041568205827 L 206.40087206751596 371.1069707985421 L 206.40101047335503 371.11529039800166 L 206.40356576816623 371.217663480938 L 206.40384263716192 371.2259805018674 L 206.4080848346701 371.3279003224588 L 206.40850004783627 371.33621098338295 L 206.41441554398747 371.4376651743076 L 206.4149688494394 371.44596574997274 L 206.42254404017956 371.54694194390885 L 206.42323505782952 371.5552287722959 L 206.43245633910468 371.65571460192166 L 206.43328456576089 371.6639840907964 L 206.444138333517 371.7639671887899 L 206.44510314834457 371.77221582177077 L 206.45757579852767 371.8716838208103 L 206.45867646882928 371.8799081629291 L 206.47275439738533 371.9788486956927 L 206.47399008465766 371.98704539843266 L 206.48965968753265 372.0854460975986 L 206.49102945375472 372.0936119033973 L 206.50827712689465 372.1914604016437 L 206.50977994100336 372.19959214785223 L 206.5285920803542 372.2968760778573 L 206.53022682486363 372.3049707001533 L 206.55058982637144 372.40167769459526 L 206.5523553040923 372.4097322298475 L 206.574255563703 372.50584992140443 L 206.57615050452037 372.51386150999656 L 206.59957441817997 372.6093775313467 L 206.60159748584843 372.61734341896465 L 206.62653144950292 372.71224540278615 L 206.62868124841984 372.7201629416819 L 206.65511165801524 372.8144385206529 L 206.6573867399355 372.8223051703979 L 206.6852999914178 372.91594197719667 L 206.68769886207494 372.9237553049438 L 206.71708135139008 373.01674097224844 L 206.71960247699107 373.0244986525188 L 206.75044060008508 373.11682081300745 L 206.75308241364846 373.1245206270253 L 206.78536256646734 373.2161669133762 L 206.78812347397766 373.22380674797535 L 206.82183205246739 373.3147647928667 L 206.82471043882083 373.3223426389932 L 206.8598338389274 373.41260007510306 L 206.86282807364537 373.42011402593783 L 206.8993526913148 373.5096584859445 L 206.90246113400738 373.51710673467625 L 206.9403733651856 373.60592585125784 L 206.94359437074667 373.6133066885323 L 206.98288061137973 373.701388094367 L 206.98621253489887 373.70869990543724 L 207.02685918093272 373.7960312332032 L 207.0303003823135 373.8032724948151 L 207.07229382969413 373.8898413771905 L 207.07584267796716 373.8970106542254 L 207.11916932264063 373.9828047238885 L 207.12282419996413 373.98990066579194 L 207.16747043787635 374.07490755542085 L 207.1712297432214 374.0819288924495 L 207.21718197031842 374.16613623472233 L 207.22104412283002 374.17308177402396 L 207.2682887350578 374.25647720161896 L 207.27225217709696 374.263345823185 L 207.32077557040148 374.34591696878033 L 207.3248387702623 374.3527076212845 L 207.3746273405896 374.4344421175583 L 207.37878879489568 374.4411538141091 L 207.42982893819172 374.5220392937396 L 207.43408717397597 374.52867110757217 L 207.48636528618673 374.6086952032375 L 207.49071886265497 374.6152462633604 L 207.54422133972648 374.6943966077388 L 207.54866884971347 374.7008660945604 L 207.60338208759168 374.77913032033 L 207.607922158714 374.7855174612834 L 207.66383255334495 374.8628832011224 L 207.6684638488569 374.8691872663035 L 207.72555779618654 374.94564215289 L 207.73027901554863 374.95186245073154 L 207.78854291152297 375.0273941167438 L 207.79335279068923 375.0335299897355 L 207.85277303125423 375.10812606785163 L 207.85767034268724 375.11417688832535 L 207.91823332378897 375.18782501122354 L 207.92321687621114 375.1937901772137 L 207.9849089937955 375.26647797757215 L 207.989977631688 375.27235690876967 L 208.05278528170103 375.34407201926655 L 208.0579378845554 375.3498641530711 L 208.1218474629431 375.4205942063846 L 208.1270829442787 375.4262989940726 L 208.19208084698704 375.4960316228809 L 208.1973981531425 375.5016485258958 L 208.2634707761175 375.570371362877 L 208.26886888482443 375.5758998492525 L 208.33600262401202 375.6436005270848 L 208.34148054276378 375.6490400680109 L 208.40966179411004 375.71570621937246 L 208.4152185583297 375.7210562859096 L 208.48443371778055 375.7866755434787 L 208.4900683888057 375.7919356034334 L 208.56030385230716 375.8564955998881 L 208.56601551519012 375.86166511484913 L 208.63725767868817 375.92515348286764 L 208.643045439832 375.9302319054184 L 208.71528069927265 375.9926362776789 L 208.72114368390496 375.99762304878624 L 208.7943584352342 376.0589310579669 L 208.80029578473017 376.0638256045547 L 208.87447642389398 376.12402488333373 L 208.8804872929597 376.12882661604783 L 208.95562021590408 376.1879047971034 L 208.9617037696275 376.1926131082727 L 209.03777537229843 376.25055782428296 L 209.04393078307743 376.25517208608125 L 209.1209274614209 376.3119709697243 L 209.12715390577998 376.31649053253983 L 209.205062055742 376.3721312164939 L 209.2113587110457 376.3765554075109 L 209.26931179140394 376.4166121336775 L 209.28514265575507 376.40538063256884 L 209.2914544864458 376.40097522997564 L 209.37114476748286 376.3462619920974 L 209.3775332448572 376.3419479141626 L 209.4580941853508 376.28844543709107 L 209.4645587923143 376.2842236980282 L 209.54597678821042 376.23194558581747 L 209.55251698141643 376.22781724522287 L 209.63477842866104 376.1767771019268 L 209.64139363384936 376.1727432646946 L 209.72448492838848 376.1229546943673 L 209.73117453566053 376.119016510326 L 209.81508207344012 376.07049311702144 L 209.82184543249613 376.06665178027646 L 209.9065556094622 376.0194071680487 L 209.91339202480404 376.01566391602927 L 209.99889123690258 375.96971168893225 L 210.00579996302707 375.96606780113063 L 210.09207460620405 375.92142156321836 L 210.09905484279813 375.91787835961634 L 210.1860913129996 375.8745517149429 L 210.19314220015556 375.87111055412 L 210.28092689332746 375.8291171067393 L 210.28804750680598 375.8257793836522 L 210.3765668188943 375.78513273761837 L 210.38375616544351 375.78189988105333 L 210.4729964923943 375.7426136404203 L 210.48025350515746 375.73948711010934 L 210.57020124291665 375.70157487893107 L 210.5775247769491 375.6985561623308 L 210.6681663214627 375.66203154466143 L 210.67555514937754 375.65912215339534 L 210.76687689659155 375.6239987532888 L 210.77432970436996 375.62120021924983 L 210.86631805023035 375.5874916407601 L 210.87383343321403 375.58480551187813 L 210.96647477366682 375.55252535905925 L 210.9740512327654 375.54995319473704 L 211.06733196375657 375.519115071643 L 211.07496790189785 375.51665843786566 L 211.1688744193734 375.4872759485505 L 211.17656813822384 375.48493641267856 L 211.27108683812975 375.4570231611963 L 211.27883653511924 375.45480228645124 L 211.3739538134015 375.42837187685586 L 211.38175757907544 375.4262712165141 L 211.47745983168005 375.4013372528596 L 211.48531564741688 375.39935834416826 L 211.58158927028984 375.37593443050866 L 211.58949500640534 375.37407878834443 L 211.6863263954926 375.35217852873376 L 211.6942798097665 375.3504476390251 L 211.7916553610141 375.3300846375173 L 211.79965409766407 375.3284799504558 L 211.897560207018 375.30966781110493 L 211.90560179614602 375.3081907341732 L 212.00402485955226 375.29094306103326 L 212.01210671709265 375.28959495187945 L 212.07896208321228 375.2790052923426 L 212.04134490848108 375.2698605883686 L 211.97423228493702 375.2523797925704 L 211.90758833010042 375.23385535103597 L 211.84141977445705 375.214297014369 L 211.7757334533077 375.1937144854856 L 211.71053630687598 375.1721174260354 L 211.64583537997973 375.1495154627025 L 211.58163782123913 375.1259181933402 L 211.51795088190784 375.10133519293726 L 211.4547819142927 375.07577601937027 L 211.39213836978382 375.0492502189186 L 211.3300277966185 375.02176733156284 L 211.26845783726614 374.99333689599507 L 211.20743622554005 374.96396845435714 L 211.14697078347785 374.9336715567049 L 211.08706941797163 374.9024557651682 L 211.0277401171746 374.87033065779855 L 210.96899094676385 374.83730583212565 L 210.910830046009 374.80339090838265 L 210.85326562373848 374.76859553243173 L 210.79630595417373 374.7329293783618 L 210.73995937271422 374.6964021507951 L 210.68423427160505 374.6590235868496 L 210.62913909560788 374.6208034578232 L 210.57468233763345 374.58175157056644 L 210.52087253435968 374.54187776855224 L 210.4677182618565 374.5011919326489 L 210.4152281312859 374.4597039816445 L 210.36341078457193 374.4174238724386 L 210.31227489019128 374.3743616000116 L 210.26182913899675 374.33052719710275 L 210.21208224015993 374.285930733664 L 210.1630429171593 374.2405823160248 L 210.11471990393488 374.1944920858745 L 210.06712194109676 374.14767021895744 L 210.02025777232984 374.10012692361585 L 209.97413614085661 374.0518724390457 L 209.92876578610648 374.00291703341185 L 209.88415544051327 373.9532710017458 L 209.84031382645463 373.90294466363775 L 209.79724965339412 373.85194836079046 L 209.75497161516344 373.8002924543661 L 209.71348838744646 373.7479873221962 L 209.67280862544118 373.695043355828 L 209.63294096171788 373.6414709574298 L 209.59389400426997 373.5872805365506 L 209.5556763347839 373.53248250676955 L 209.5182965071182 373.4770872822235 L 209.48176304597914 373.4211052739934 L 209.4460844458638 373.3645468864536 L 209.41126917018963 373.3074225134653 L 209.37732565068276 373.24974253452376 L 209.344262287021 373.1915173108575 L 209.31208744669004 373.1327571814118 L 209.2808094651247 373.0734724588396 L 209.25043664609757 373.01367342544023 L 209.22097726236723 372.9533703290689 L 209.19243955660409 372.89257337905906 L 209.1648317425856 372.8312927421463 L 209.13816200666284 372.76953853840644 L 209.1124385095203 372.7073208372654 L 209.0876693882009 372.644649653529 L 209.06386275842695 372.5815349435191 L 209.04102671720312 372.51798660130225 L 209.0191693456959 372.4540144550145 L 208.99829871240715 372.3896282633562 L 208.97842287661274 372.32483771220666 L 208.95954989208892 372.25965241145707 L 208.94168781109613 372.1940818920121 L 208.9248446886275 372.12813560302766 L 208.90902858691433 372.06182290941945 L 208.89424758016054 371.9951530896011 L 208.88050975950932 371.92813533353603 L 208.86782323822493 371.8607787411277 L 208.85619615705752 371.79309232089685 L 208.84563668979197 371.7250849890682 L 208.83615304894337 371.65676556901127 L 208.82775349158246 371.5881427910891 L 208.82044632526205 371.51922529291505 L 208.81423991401996 371.45002162006466 L 208.8091426844236 371.38054022721377 L 208.8051631316285 371.31078947975413 L 208.8023098254143 371.24077765585906 L 208.8005914161667 371.17051294906236 L 208.79999999999998 371.09796209718075 L 208.79999999999998 367.30205656525084 L 208.80062075409995 367.22659778831485 L 208.80242454832845 367.1535763525179 L 208.80541710440238 367.08093910754667 L 208.80958734305491 367.0086916103799 L 208.81492431561324 366.9368394682886 L 208.82141719972904 366.8653883458805 L 208.82905529469284 366.794343971738 L 208.83782801637082 366.7237121446117 L 208.84772489180642 366.6534987391168 L 208.85873555352075 366.58370971097645 L 208.87084973356164 366.5143511017271 L 208.88405725733784 366.44542904291995 L 208.89834803728124 366.3769497598046 L 208.91371206638044 366.30891957447636 L 208.93013941163125 366.2413449084813 L 208.9476202074296 366.1742322849364 L 208.9661446489646 366.10758833009805 L 208.98570298563035 366.04141977445863 L 209.00628551451368 365.9757334533097 L 209.02788257396466 365.91053630687543 L 209.05048453729782 365.84583537997867 L 209.07408180666 365.78163782123823 L 209.09866480706202 365.7179508819093 L 209.12422398063003 365.6547819142916 L 209.15074978108078 365.592138369785 L 209.17823266843632 365.5300277966202 L 209.206663104005 365.4684578372659 L 209.23603154564367 365.4074362255383 L 209.2663284432942 365.34697078347955 L 209.29754423483226 365.28706941797054 L 209.32966934220147 365.22774011717445 L 209.36269416787334 365.16899094676546 L 209.396609091617 365.11083004600954 L 209.43140446756905 365.0532656237371 L 209.46707062163662 364.99630595417614 L 209.50359784920505 364.939959372714 L 209.5409764131513 364.88423427160365 L 209.57919654217667 364.82913909560807 L 209.61824842943318 364.7746823376339 L 209.65812223144857 364.72087253435853 L 209.6988080673503 364.66771826185743 L 209.74029601835554 364.6152281312858 L 209.78257612756067 364.5634107845728 L 209.82563839998892 364.5122748901907 L 209.86947280289627 364.46182913899787 L 209.91406926633698 364.4120822401589 L 209.95941768397475 364.36304291715976 L 210.00550791412653 364.3147199039338 L 210.05232978103973 364.26712194109956 L 210.09987307638508 364.220257772329 L 210.14812756095517 364.1741361408558 L 210.19708296658854 364.1287657861061 L 210.24672899825467 364.0841554405128 L 210.2970553363602 364.04031382645644 L 210.34805163921004 363.99724965339374 L 210.39970754563336 363.9549716151639 L 210.452012677805 363.91348838744557 L 210.50495664417087 363.8728086254421 L 210.5585290425719 363.8329409617167 L 210.61271946344976 363.79389400426976 L 210.66751749323015 363.75567633478414 L 210.72291271777647 363.71829650711817 L 210.778894726006 363.6817630459795 L 210.8354531135448 363.64608444586486 L 210.8925774865371 363.61126917018817 L 210.95025746547526 363.5773256506833 L 211.00848268914243 363.54426228702107 L 211.06724281858803 363.51208744669015 L 211.12652754116027 363.48080946512476 L 211.18632657455774 363.45043664609864 L 211.24662967093332 363.4209772623662 L 211.30742662094147 363.39243955660385 L 211.36870725785272 363.3648317425861 L 211.43046146159472 363.33816200666234 L 211.49267916273337 363.31243850952086 L 211.5553503464726 363.2876693882003 L 211.61846505648066 363.2638627584271 L 211.68201339869705 363.24102671720334 L 211.7459855449865 363.2191693456956 L 211.81037173664402 363.1982987124071 L 211.87516228779214 363.1784228766131 L 211.94034758854346 363.15954989208876 L 212.00591810798892 363.1416878110959 L 212.0718643969704 363.124844688628 L 212.13817709058188 363.10902858691406 L 212.20484691039897 363.0942475801605 L 212.271864666463 363.08050975950954 L 212.33922125887062 363.06782323822523 L 212.406907679107 363.0561961570569 L 212.47491501093194 363.04563668979193 L 212.54323443098605 363.0361530489437 L 212.6118572089122 363.0277534915823 L 212.68077470708604 363.02044632526196 L 212.74997837993186 363.01423991402027 L 212.81945977278667 363.00914268442364 L 212.88921052024804 363.00516313162836 L 212.9592223441398 363.0023098254144 L 213.029487050938 363.0005914161667 L 213.05879289904863 363.00035252231635 L 283.0814270517787 375.20000000000005 L 288.90761404410983 375.20000000000005 L 218.92284102599479 363.00694885364584 L 219.0246558669661 363.00707035106944 L 219.87112051343078 363.0080804520796 L 220.71758515989538 363.00909055308966 L 221.56404980636006 363.0101006540998 L 223.25697909928934 363.01212085611996 L 224.10344374575402 363.0131309571301 L 224.94990839221865 363.0141410581402 L 225.79637303868327 363.01515115915026 L 226.64283768514795 363.0161612601604 L 227.48930233161258 363.0171713611705 L 228.3357669780772 363.01818146218056 L 229.18223162454188 363.0191915631907 L 230.87516091747116 363.02121176521086 L 231.72162556393585 363.022221866221 L 232.56809021040047 363.0232319672311 L 233.4145548568651 363.02424206824116 L 234.26101950332975 363.0252521692513 L 235.10748414979437 363.0262622702614 L 235.95394879625906 363.0272723712715 L 236.8004134427237 363.0282824722816 L 237.6468780891883 363.0292925732917 L 238.493342735653 363.0303026743018 L 240.18627202858227 363.032322876322 L 241.03273667504692 363.0333329773321 L 242.7256659679762 363.0353531793523 L 243.57213061444088 363.0363632803624 L 244.41859526090553 363.0373733813725 L 245.26505990737013 363.0383834823826 L 246.1115245538348 363.0393935833927 L 247.8044538467641 363.0414137854129 L 248.65091849322874 363.042423886423 L 249.49738313969337 363.0434339874331 L 250.34384778615805 363.04444408844324 L 251.1903124326227 363.0454541894533 L 252.0367770790873 363.0464642904634 L 252.88324172555198 363.04747439147354 L 253.7297063720166 363.0484844924836 L 254.57617101848123 363.0494945934937 L 255.42263566494591 363.05050469450384 L 257.11556495787516 363.052524896524 L 257.9620296043399 363.05353499753414 L 259.6549588972691 363.0555551995543 L 260.5014235437338 363.05656530056444 L 261.3478881901984 363.0575754015745 L 262.1943528366631 363.05858550258466 L 263.88728212959234 363.0606057046048 L 264.73374677605705 363.06161580561496 L 265.5802114225217 363.06262590662504 L 266.42667606898624 363.0636360076351 L 267.27314071545095 363.06464610864526 L 268.9660700083802 363.0666663106654 L 269.8125346548449 363.06767641167556 L 271.50546394777416 363.0696966136957 L 272.35192859423887 363.07070671470586 L 273.1983932407035 363.07171681571594 L 274.04485788716806 363.072726916726 L 274.8913225336328 363.07373701773616 L 275.73778718009737 363.07474711874625 L 276.5842518265621 363.0757572197564 L 278.27718111949133 363.07777742177655 L 279.12364576595604 363.0787875227867 L 279.97011041242064 363.07979762379676 L 280.81657505888523 363.08080772480685 L 281.66303970534995 363.081817825817 L 283.3559689982792 363.08383802783715 L 284.2024336447439 363.0848481288473 L 285.89536293767316 363.08686833086745 L 286.74182758413787 363.0878784318776 L 287.58829223060246 363.08888853288767 L 288.43475687706706 363.08989863389775 L 289.28122152353177 363.0909087349079 L 290.12768616999637 363.09191883591797 L 290.9741508164611 363.0929289369281 L 292.6670801093903 363.09494913894827 L 293.513544755855 363.0959592399584 L 295.20647404878423 363.09797944197857 L 296.05293869524894 363.0989895429887 L 296.89764511130585 363.0999975458718 L 296.97340221168366 363.1006207540998 L 297.04642364748224 363.1024245483284 L 297.11906089245525 363.10541710440236 L 297.1913083896203 363.1095873430548 L 297.26316053171234 363.11492431561317 L 297.3346116541206 363.12141719972897 L 297.4056560282605 363.12905529469253 L 297.47628785539024 363.1378280163709 L 297.5465012608817 363.14772489180604 L 297.61629028902377 363.15873555352067 L 297.68564889827417 363.17084973356174 L 297.75457095707867 363.18405725733743 L 297.8230502401943 363.1983480372809 L 297.8910804255246 363.2137120663806 L 297.9586550915178 363.23013941163094 L 298.02576771506494 363.24762020742986 L 298.0924116699014 363.2661446489643 L 298.15858022554255 363.2857029856306 L 298.2242665466902 363.30628551451355 L 298.2894636931241 363.3278825739644 L 298.3541646200229 363.35048453729826 L 298.41836217876175 363.37408180665994 L 298.48204911808887 363.3986648070612 L 298.5452180857085 363.42422398063 L 298.60786163021834 363.4507497810821 L 298.6699722033797 363.47823266843614 L 298.7315421627324 363.5066631040041 L 298.79256377446217 363.53603154564377 L 298.8530292165216 363.56632844329465 L 298.9129305820276 363.5975442348312 L 298.9722598828254 363.6296693422013 L 299.0310090532354 363.6626941678738 L 299.08916995399034 363.6966090916168 L 299.14673437626345 363.7314044675693 L 299.2036940458258 363.76707062163774 L 299.26004062728526 363.80359784920444 L 299.3157657283949 363.84097641315026 L 299.3708609043923 363.8791965421769 L 299.4253176623673 363.918248429434 L 299.4791274656414 363.9581222314484 L 299.5322817381415 363.99880806734944 L 299.58477186871465 364.04029601835583 L 299.636589215427 364.08257612756046 L 299.68772510981063 364.12563839998995 L 299.7381708610008 364.16947280289503 L 299.7879177598401 364.2140692663361 L 299.8369570828414 364.2594176839758 L 299.885280096066 364.30550791412634 L 299.9328780589024 364.35232978104165 L 299.97974222767016 364.3998730763841 L 300.0258638591434 364.4481275609542 L 300.0712342138935 364.4970829665881 L 300.1158445594862 364.54672899825357 L 300.15968617354605 364.59705533636304 L 300.2027503466053 364.6480516392088 L 300.2450283848364 364.69970754563366 L 300.2865116125548 364.7520126778054 L 300.32719137455797 364.80495664417083 L 300.36705903828323 364.8585290425717 L 300.40610599572983 364.9127194634491 L 300.44432366521414 364.96751749322755 L 300.48170349288273 365.02291271777796 L 300.51823695402084 365.0788947260066 L 300.55391555413615 365.1354531135464 L 300.58873082981034 365.1925774865347 L 300.622674349318 365.2502574654776 L 300.655737712978 365.3084826891408 L 300.68791255331035 365.3672428185889 L 300.719190534875 365.4265275411598 L 300.74956335390175 365.4863265745584 L 300.779022737634 365.5466296709337 L 300.8075604433946 365.6074266209382 L 300.8351682574153 365.66870725785594 L 300.8618379933369 365.730461461593 L 300.88756149047964 365.7926791627346 L 300.91233061179906 365.8553503464711 L 300.93613724157245 365.91846505647936 L 300.9589732827976 365.98201339869985 L 300.9808306543042 366.0459855449859 L 301.0017012875932 366.110371736645 L 301.0215771233866 366.1751622877911 L 301.04045010791134 366.24034758854395 L 301.05831218890376 366.3059181079877 L 301.0751553113723 366.3718643969717 L 301.09097141308513 366.43817709057845 L 301.1057524198399 366.50484691040134 L 301.1194902404907 366.571864666464 L 301.1321767617747 366.63922125887063 L 301.143803842943 366.7069076791065 L 301.15436331020754 366.7749150109288 L 301.16384695105677 366.84323443098975 L 301.17224650841763 366.911857208912 L 301.1795536747381 366.9807747070862 L 301.18576008598 367.049978379935 L 301.1908573155762 367.11945977278356 L 301.1948368683716 367.18921052024797 L 301.1976901745856 367.2592223441398 L 301.1994085838333 367.32948705093804 L 301.2 367.4020379028193 L 301.2 371.062626262624 L 301.1999999999998 371.0979434347347 L 301.19937924589976 371.1734022116839 L 301.1975754516712 371.2464236474825 L 301.19458289559714 371.31906089245666 L 301.190412656945 371.39130838961796 L 301.18507568438633 371.4631605317128 L 301.1785828002705 371.5346116541222 L 301.1709447053071 371.60565602826074 L 301.1621719836287 371.67628785539046 L 301.1522751081936 371.7465012608819 L 301.14126444647894 371.8162902890243 L 301.12915026643793 371.8856488982744 L 301.11594274266224 371.9545709570789 L 301.1016519627188 372.0230502401945 L 301.0862879336187 372.09108042552646 L 301.0698605883691 372.15865509151666 L 301.05237979256987 372.22576771506516 L 301.0338553510354 372.29241166990164 L 301.01429701436876 372.3585802255439 L 300.99371448548595 372.4242665466913 L 300.97211742603577 372.4894636931232 L 300.9495154627018 372.55416462002216 L 300.9259181933401 372.61836217876123 L 300.90133519293846 372.68204911808914 L 300.87577601936914 372.7452180857101 L 300.84925021891877 372.80786163021594 L 300.8217673315627 372.8699722033819 L 300.7933368959957 372.93154216273257 L 300.763968454356 372.9925637744623 L 300.73367155670513 373.05302921652174 L 300.70245576516805 373.11293058202875 L 300.67033065779975 373.17225988282325 L 300.63730583212475 373.2310090532378 L 300.6033909083824 373.2891699539916 L 300.56859553243174 373.34673437626157 L 300.53292937836267 373.40369404582503 L 300.4964021507946 373.4600406272866 L 300.4590235868496 373.5157657283951 L 300.4208034578233 373.570860904392 L 300.38175157056565 373.62531766236765 L 300.3418777685526 373.67912746563997 L 300.3011919326491 373.73228173814334 L 300.2597039816449 373.7847718687137 L 300.21742387243944 373.83658921542707 L 300.1743616000089 373.88772510981187 L 300.13052719710487 373.9381708610009 L 300.0859307336638 373.98791775984023 L 300.0405823160241 374.0369570828415 L 299.99449208587356 374.0852800960661 L 299.94767021895825 374.1328780589025 L 299.90012692361614 374.1797422276699 L 299.851872439045 374.2258638591441 L 299.8029170334129 374.2712342138926 L 299.7532710017446 374.31584455948774 L 299.7029446636389 374.3596861735444 L 299.65194836079115 374.40275034660533 L 299.60029245436556 374.44502838483703 L 299.5479873221941 374.4865116125552 L 299.4950433558291 374.527191374558 L 299.44147095742954 374.5670590382823 L 299.387280536548 374.6061059957319 L 299.3324825067706 374.64432366521544 L 299.27708728222507 374.68170349288084 L 299.2211052739931 374.7182369540211 L 299.1645468864541 374.7539155541359 L 299.10742251346505 374.7887308298106 L 299.04974253452235 374.8226743493181 L 298.99151731086005 374.8557377129776 L 298.9327571814093 374.8879125533113 L 298.8734724588425 374.91919053487385 L 298.81367342544036 374.94956335390236 L 298.75337032906737 374.9790227376335 L 298.69257337905844 375.0075604433962 L 298.63129274214424 375.03516825741536 L 298.56953853840895 375.06183799333616 L 298.50732083726535 375.0875614904797 L 298.44464965352927 375.112330611799 L 298.3815349435211 375.1361372415723 L 298.3179866013014 375.15897328279715 L 298.254014455013 375.1808306543046 L 298.1896282633558 375.201701287593 L 298.1248377122068 375.22157712338725 L 298.059652411458 375.2404501079108 L 297.99408189201176 375.258312188904 L 297.92813560302693 375.2751553113727 L 297.9156030403695 375.2781444266526 L 297.98789328290735 375.2895949518796 L 297.9959751404475 375.2909430610334 L 298.0943982038537 375.30819073417325 L 298.10243979298195 375.30966781110504 L 298.20034590233587 375.3284799504559 L 298.2083446389858 375.3300846375174 L 298.30572019023344 375.3504476390252 L 298.31367360450736 375.3521785287339 L 298.41050499359466 375.37407878834455 L 298.4184107297103 375.37593443050883 L 298.5146843525832 375.39935834416843 L 298.52254016831995 375.4013372528597 L 298.61824242092456 375.42627121651424 L 298.62604618659844 375.428371876856 L 298.7211634648807 375.45480228645135 L 298.7289131618702 375.4570231611964 L 298.8234318617761 375.4849364126787 L 298.8311255806266 375.48727594855063 L 298.9250320981021 375.5166584378658 L 298.9326680362434 375.5191150716431 L 299.0259487672346 375.54995319473716 L 299.0335252263331 375.55252535905936 L 299.1261665667859 375.58480551187824 L 299.13368194976965 375.5874916407602 L 299.22567029563004 375.62120021924994 L 299.23312310340845 375.6239987532889 L 299.32444485062246 375.65912215339546 L 299.33183367853735 375.66203154466155 L 299.4224752230509 375.69855616233093 L 299.42979875708306 375.7015748789311 L 299.51974649484225 375.73948711010934 L 299.52700350760585 375.7426136404205 L 299.61624383455666 375.78189988105356 L 299.6234331811057 375.7851327376185 L 299.711952493194 375.82577938365233 L 299.7190731066723 375.8291171067393 L 299.8068577998442 375.8711105541199 L 299.81390868700055 375.87455171494304 L 299.90094515720205 375.9178783596165 L 299.9079253937957 375.92142156321836 L 299.9942000369727 375.9660678011306 L 300.0011087630975 375.96971168893236 L 300.086607975196 376.0156639160294 L 300.0934443905377 376.0194071680487 L 300.1781545675038 376.06665178027646 L 300.18491792655993 376.07049311702156 L 300.2688254643395 376.1190165103261 L 300.27551507161144 376.1229546943673 L 300.3586063661506 376.1727432646946 L 300.36522157133896 376.17677710192686 L 300.44748301858357 376.2278172452229 L 300.4540232117898 376.23194558581764 L 300.5354412076859 376.2842236980284 L 300.5419058146493 376.28844543709124 L 300.62246675514285 376.34194791416274 L 300.62885523251697 376.3462619920975 L 300.69950911000797 376.3947710744582 L 300.7170413677474 376.3826513104274 Z" id="element_279" /></svg>