<?xml version='1.0' encoding='utf-8'?>
<svg xmlns:svg="http://www.w3.org/2000/svg" version="1.1" id="Layer_1" x="0px" y="0px" viewBox="0 0 500 500" style="width: 188px;" xml:space="preserve" data-imageid="brainstorming-31" imageName="Brainstorming" class="illustrations_image"><svg:style type="text/css">
	.st0_brainstorming-31{fill:#68E1FD;}
	.st1_brainstorming-31{fill:#FFFFFF;}
	.st2_brainstorming-31{fill:#231F20;}
	.st3_brainstorming-31{fill:#D1D3D4;}
</svg:style><svg:path class="st1_brainstorming-31" d="M 276.80378891624866 272.3999856439073 L 276.827969606943 272.3998024014223 L 276.835569852531 272.39968702767754 L 276.8596250149088 272.39913894919863 L 276.8672478480545 272.39890709233765 L 276.8911743902853 272.39799665132927 L 276.8988178411298 272.3976472196881 L 276.92261267138315 272.3963768896146 L 276.9302747522911 272.3959088250763 L 276.9539347787366 272.394281079402 L 276.96161348484094 272.39369335710643 L 276.985135615648 272.3917106692958 L 276.9928289253003 272.3910022973341 L 277.01621006863854 272.38866714085145 L 277.02391594375473 272.3878371599543 L 277.0471530077938 272.38515200826396 L 277.0548693941028 272.3841994914919 L 277.0779592870121 272.38116681805826 L 277.0856841141986 272.3800908705044 L 277.10862374414774 272.3767131487918 L 277.1163549258985 272.3755129073049 L 277.139141201057 272.37179261077773 L 277.1468766349941 272.37046724371834 L 277.1695064635315 272.366406845841 L 277.17724403105706 272.3649555528759 L 277.1997143211429 272.3605575271127 L 277.20745188716 272.35897953906556 L 277.22975954696386 272.3542463588809 L 277.23749495953655 272.35254093763655 L 277.2596368972279 272.3474750764948 L 277.26736798710556 272.3456415149829 L 277.289341110854 272.3402454463484 L 277.29706569093315 272.33828306860346 L 277.3188669089082 272.3325592659406 L 277.32658277359826 272.3304674272548 L 277.34820899396954 272.3244183640279 L 277.35591391847976 272.32219645120495 L 277.3773620494167 272.3158246008784 L 277.38505378896633 272.3134720325992 L 277.4063207386385 272.30677986863736 L 277.41399702760805 272.30429609594347 L 277.43507970418506 272.29728609181075 L 277.44273825520423 272.2946705987183 L 277.4636335668556 272.28734522787903 L 277.47127206984317 272.28459753212996 L 277.4919769247384 272.2769592680485 L 277.49959304590396 272.27407892200733 L 277.5201043522126 272.26613023814804 L 277.52769573303397 272.26311682985016 L 277.5480103989256 272.2548601996774 L 277.5555746551054 272.251713354039 L 277.5756895887495 272.24315125101714 L 277.5832243091685 272.23987063121115 L 277.6031364187347 272.2310055288046 L 277.61063916442316 272.2275908378046 L 277.630345358081 272.21842520947763 L 277.63781366119787 272.21487619178487 L 277.65731084711683 272.20541251100195 L 277.6647422099894 272.2017289545419 L 277.6840272963391 272.19196969476735 L 277.6914191905358 272.1881514329785 L 277.7104890854857 272.17809906767667 L 277.71783895097576 272.174145981775 L 277.73669056269546 272.16380298441027 L 277.7439958070884 272.1597150058414 L 277.76262604374745 272.14908384987814 L 277.76988404163785 272.14486096295224 L 277.7882898114057 272.1339441218548 L 277.79549790384664 272.1295863665585 L 277.8136761148929 272.11838631379123 L 277.82083160900083 272.1138937887818 L 277.83877916949507 272.10241299780915 L 277.84587933822945 272.0977858635706 L 277.8635931563412 272.08602680785685 L 277.87063523844665 272.08126529003016 L 277.8881122223454 272.0692304430397 L 277.89509342250324 272.06433483590047 L 277.9123304803586 272.0520266710976 L 277.91924796954953 272.04699734118225 L 277.93624200953104 272.03441833203146 L 277.9430929256402 272.02925572188985 L 277.9598408559173 272.0164083418555 L 277.96662230458105 272.01111297393044 L 277.9831210333234 271.99799969647677 L 277.9898300890576 271.99257217707776 L 278.0060765244348 271.97919547566926 L 278.01271023205686 271.973636499025 L 278.0287012822383 271.959998847126 L 278.03525665857296 271.9543091995172 L 278.05098923172824 271.94041307059194 L 278.0574632676599 271.93459363450376 L 278.07293427195856 271.9204415020168 L 278.0793239348052 271.91449326031756 L 278.0945302784168 271.90008759773315 L 278.10083251464965 271.8940116378453 L 278.11577110574376 271.8793549186278 L 278.1219828440699 271.8731524366564 L 278.13665059081603 271.85824713427024 L 278.14276874562825 271.8519194390632 L 278.1571625561959 271.8367680269727 L 278.1631840313949 271.83031654408273 L 278.1773008139537 271.81492149575223 L 278.18322250714704 271.80834777126836 L 278.19705916986646 271.79271156016233 L 278.2028779769541 271.78601726436705 L 278.2164314280037 271.77014236394973 L 278.22214424813194 271.7633292947854 L 278.2354113956813 271.7472181785213 L 278.2410151365852 271.74028826480225 L 278.2539928888038 271.72394340615557 L 278.25948447250266 271.7168987105213 L 278.27216973756015 271.7003225829565 L 278.27754610642694 271.6931653044901 L 278.28993579249277 271.6763603814715 L 278.2951939156479 271.6690928579905 L 278.3072849308917 271.65206161298255 L 278.3124218109395 271.64468632291874 L 278.3242110635307 271.6274312293857 L 278.32922374358395 271.6199507932607 L 278.3407081416922 271.60247432466707 L 278.3455937126904 271.59489150608596 L 278.35677016448517 271.5771961358959 L 278.36152577274595 271.5695138420709 L 278.3723911863968 271.5516020437489 L 278.37701404139744 271.54382332547635 L 278.3875653250739 271.5256975724868 L 278.39205270740626 271.51782562358017 L 278.4022867692779 271.4994883893874 L 278.4066360387434 271.4915265455284 L 278.4165497869798 271.4729803035968 L 278.4207583907854 271.4649320405765 L 278.43034873355606 271.4461792643704 L 278.43441421455867 271.43804819571085 L 278.4436780600331 271.4190913586947 L 278.447598064988 271.4108812326264 L 278.4565323213357 271.39172280826443 L 278.4603046090928 271.38343750406364 L 278.4689061844835 271.3640799658203 L 278.472528634092 271.3557234894665 L 278.48079443669513 271.3361693108061 L 278.48426505534036 271.32774579000886 L 278.49219199332543 271.3079974443958 L 278.49550892406126 271.2995111229524 L 278.5030939055979 271.27957108385107 L 278.5062554348144 271.2710263153573 L 278.5134953680721 271.250897056232 L 278.51649993263453 271.24229829717905 L 278.5233917257828 271.2219822914942 L 278.5262379197998 271.21333409374336 L 278.5327784810083 271.1928338149633 L 278.535465062167 271.1841408176476 L 278.5416512996052 271.1634587392367 L 278.5441771950254 271.1547256601142 L 278.55000601686277 271.1338642555368 L 278.55237032841995 271.12509588183553 L 278.55783864282614 271.10405762455605 L 278.560040651902 271.0952588033431 L 278.5651453670465 271.0740461668259 L 278.5671845386583 271.06522179496835 L 278.5719225627107 271.0438372526778 L 278.5737985489895 271.03499226642504 L 278.57816679011927 271.0134382918255 L 278.57987943309706 271.0045776560942 L 278.5838747994738 270.98285672264996 L 278.58542413316 270.97398542004277 L 278.58904353295327 270.9521000012183 L 278.5904297846731 270.9432230208583 L 278.5936701260525 270.92117559011785 L 278.5948937170327 270.91229791635885 L 278.59775190816754 270.89009094716687 L 278.5988134533594 270.8812175482558 L 278.6012864024195 270.85885351407666 L 278.60218670956027 270.84998933078975 L 278.60427132471494 270.82747070508776 L 278.6050113926212 270.8186206394898 L 278.60670458204015 270.79594989572934 L 278.60728559815226 270.78711880002106 L 278.60858427000494 270.7642984116666 L 278.60900760718937 270.75549107728847 L 278.6099086696454 270.7325235178042 L 278.61017588228253 270.72374466476475 L 278.61067624351136 270.70063240761516 L 278.61078906289134 270.69188667418365 L 278.6108856310626 270.66863219283306 L 278.6108459601235 270.659924125588 L 278.6105356434067 270.6365298935008 L 278.61034555085155 270.62786393784575 L 278.6096252574162 270.60433242848626 L 278.6092869712503 270.59571291963215 L 278.608153609266 270.57204660646477 L 278.6076695098005 270.56347776095294 L 278.6061199874367 270.539679117442 L 278.60549259980706 270.531165025248 L 278.6035238252335 270.50723652485794 L 278.6027558114837 270.4987811420796 L 278.6007444916564 270.4785462295256 L 278.61401257415474 269.978100622622 L 278.6381839244114 269.4585742592569 L 278.6722477969714 268.9496562509901 L 278.71598382508245 268.4512335017805 L 278.76917202426165 267.9631917614711 L 278.83159290320805 267.4854156221218 L 278.9030275786206 267.0177885285581 L 278.9832578921311 266.5601928045396 L 279.072066527301 266.11250969553726 L 279.16923712439893 265.6746194288061 L 279.2745543904719 265.24640129115204 L 279.3878042021353 264.8277337241865 L 279.50877369843766 264.41849443654365 L 279.63725136122366 264.0185605319387 L 279.7730270805832 263.6278086514054 L 279.91589220318383 263.24611512768917 L 280.06563956170277 262.87335614910955 L 280.22206348392933 262.5094079300631 L 280.3849597807042 262.1541468848115 L 280.5541257123713 261.807449801163 L 280.7293599340344 261.4691940105279 L 280.91046242052573 261.1392575508513 L 281.0972343725447 260.8175193191647 L 281.2894781059518 260.50385921077634 L 281.486996926693 260.1981582424595 L 281.6895949941097 259.90029865761 L 281.89707717568774 259.6101640117988 L 282.10924889644144 259.3276392377101 L 282.3259159860606 259.05261068916866 L 282.5468845269603 258.7849661643636 L 282.77196070605135 258.5245949090741 L 283.0009506728848 258.27138760101315 L 283.2336604063911 258.0252363169012 L 283.4698955920615 257.7860344841585 L 283.7094615110395 257.55367681927817 L 283.95216294210593 257.3280592551353 L 284.19780407718963 257.10907885947194 L 284.44618845060546 256.8966337468095 L 284.69711888192376 256.6906229859084 L 284.95039743204626 256.4909465047717 L 285.20582537179456 256.2975049950248 L 285.4632031622364 256.1101998171994 L 285.72233044563484 255.9289329083827 L 285.983006046028 255.75360669328754 L 286.24502797824374 255.58412399969814 L 286.50819346417876 255.4203879789924 L 286.77229895524664 255.26230203220973 L 287.0371401598548 255.10976974201168 L 287.3025120748902 254.96269481068774 L 287.5682090202882 254.82098100421632 L 287.8340246757734 254.68453210231976 L 288.09975211902054 254.55325185432085 L 288.36518386457936 254.42704394054073 L 288.63011190292934 254.30581193895753 L 288.89432773918435 254.18945929677434 L 289.1576224310747 254.07788930651327 L 289.4197866257823 253.97100508629745 L 289.6806105954213 253.86870956391377 L 289.88636037786495 253.79109592967387 L 289.8728448852706 253.792365548153 L 289.86567707817386 253.79298688628035 L 289.844839171508 253.79464225230672 L 289.8376588548943 253.79516066862197 L 289.81674736266353 253.7965192189245 L 289.80955634342257 253.79693440308623 L 289.78857373909136 253.7979942825667 L 289.7813738652647 253.79830596316876 L 289.7603226222973 253.79906531672884 L 289.7531157821052 253.79927326391913 L 289.7319983739661 253.79973023646056 L 289.7247864946279 253.79983426453478 L 289.70360539478133 253.79998700095933 L 289.7036042117158 253.79982293643252 L 289.7 253.8 L 289.5 253.8 L 289.43405114433165 253.79563166609495 L 289.4099008566368 253.79241822364062 L 289.4020237263309 253.7913062475429 L 289.3780589484635 253.7877285874608 L 289.37017226680865 253.786486750148 L 289.3463948538669 253.78254796426856 L 289.3385021541576 253.78117546644845 L 289.3149139612397 253.7768786466022 L 289.30701880920026 253.7753748095996 L 289.2836216914046 253.77072304761697 L 289.27572767885096 253.76908731480876 L 289.2525234912758 253.76408370252017 L 289.24463422968466 253.76231564038244 L 289.22162482742823 253.75696326961838 L 289.2137439414599 253.7550625683837 L 289.1909311796205 253.74936453097462 L 289.1830623006255 253.74733100489684 L 289.1604480343014 253.74129039267316 L 289.1525947938359 253.73912397989824 L 289.1301808781254 253.73274388469048 L 289.12234690150825 253.73044464673694 L 289.1001351915096 253.72372816037552 L 289.0923240914586 253.72129628123108 L 289.07031644227004 253.71424649554646 L 289.0625318126341 253.71168228038573 L 289.040730079354 253.70430228720838 L 289.0329754889848 253.70160616074563 L 289.01138152671126 253.693899051906 L 289.0036605134894 253.69107155639225 L 288.9822761773209 253.68304042372077 L 288.97459224237565 253.68008221660432 L 288.95341938741035 253.67173015193146 L 288.94577598954515 253.66864200319415 L 288.9248164708813 253.6599720983504 L 288.9172170212324 253.65675488754005 L 288.8964726939683 253.64777023435582 L 288.88892055093305 253.64442494734203 L 288.868393270167 253.6351286376478 L 288.86089173459135 253.63165636311103 L 288.84058335542164 253.62205148873727 L 288.8331356660882 253.61845341442486 L 288.81304804361304 253.608543067202 L 288.80565737303533 253.6048204759719 L 288.7857923623531 253.5946077477304 L 288.77846181289124 253.59076201340952 L 288.75882126910005 253.58024999597984 L 288.7515538693942 253.57628257905617 L 288.7321396475925 253.56547436426877 L 288.72493834935256 253.5613868074596 L 288.7057523046385 253.55028548714492 L 288.69861997975426 253.54607941084637 L 288.67966396722613 253.5346880768349 L 288.67260340523376 253.5303651744963 L 288.6538792799899 253.51868691861847 L 288.6468931858815 253.51424895206173 L 288.62840280302015 253.502286866148 L 288.62149379539284 253.49773566085508 L 288.6032390100122 253.48549283673592 L 288.5964096195516 253.48083027712957 L 288.5783922867501 253.46830980663543 L 288.5716449550597 253.46353783138798 L 288.55386692993545 253.45074280634933 L 288.5472040086682 253.44586340371927 L 288.5296671463196 253.43279691596652 L 288.5230908966481 253.4278121192164 L 288.50579705217336 253.41447726058004 L 288.49930964454086 253.4093891434632 L 288.48226067303824 253.39578900577368 L 288.475864187211 253.39059967813296 L 288.45906194377886 253.37673735322073 L 288.45275836917585 253.37144895671062 L 288.4362047089124 253.35732753640616 L 288.429995945184 253.35194224034325 L 288.41369272318747 253.337564816477 L 288.40758058104905 253.3320848138509 L 288.3915296524178 253.31745447825332 L 288.3855158547051 253.31188198189875 L 288.36971907453733 253.2970018264003 L 288.3638052574703 253.29133906534386 L 288.3482644808643 253.27621218177498 L 288.34245219550616 253.2704613977714 L 288.32716927756024 253.25509087796257 L 288.32145999144376 253.24925432221949 L 288.3064367872562 253.23364325800114 L 288.3008318861682 253.22772318810726 L 288.28607025083727 253.21187467130986 L 288.2805710407383 253.2058733483671 L 288.2660728293622 253.18979047082112 L 288.26068053841755 253.18371015677877 L 288.24644760609465 253.16739601031463 L 288.24116338681836 253.16123896552855 L 288.22719758864685 253.14469664197676 L 288.2220225201052 253.13846512295387 L 288.2083257111834 253.12169771414483 L 288.20326080128535 253.11539397152328 L 288.18983483671155 253.09840456928745 L 288.1848810245289 253.09203084600477 L 288.1717277594014 253.07482254217268 L 288.1668859175264 253.06838107184433 L 288.15400720694333 253.05095695824633 L 288.1492781438616 253.04444996374536 L 288.13667584292136 253.026813132212 L 288.1320603053833 253.02024282443924 L 288.11973626918416 253.00239636680092 L 288.1152349445645 252.99576494364723 L 288.1031910282047 252.97771195173445 L 288.09880454683105 252.97102159721595 L 288.08704260540884 252.9527651628591 L 288.0827715428573 252.9460180464367 L 288.071293431471 252.9275612614663 L 288.06713831080606 252.92075953752126 L 288.055945884554 252.90210549376775 L 288.05190717851116 252.89525130123988 L 288.04100229249144 252.8764030905337 L 288.0370804255816 252.8694985526932 L 288.0264649348927 252.8504592668648 L 288.0226602854436 252.8435064912492 L 288.0123360451836 252.82427922212906 L 288.0086489472705 252.8172803005665 L 287.9986178125378 252.79786813998507 L 287.99504855784477 252.79082514877626 L 287.9853123837376 252.771231188564 L 287.9818612232999 252.76414618873807 L 287.9724218649166 252.74437352072542 L 287.9690890107717 252.7372485584149 L 287.9599483232104 252.71730027443235 L 287.9567339499276 252.7101373813098 L 287.9478937882867 252.6900165731878 L 287.94479803439754 252.6828177670057 L 287.9362602537753 252.66252752657465 L 287.93328322307786 252.65529481174292 L 287.9250496785725 252.63483823083334 L 287.92219144132423 252.62757359906445 L 287.91426398803407 252.60695376950673 L 287.9115245820265 252.5996592005033 L 287.9039050750498 252.578879214128 L 287.9012845065631 252.57155667629704 L 287.89397480099814 252.5506196249345 L 287.8914730456409 252.5432710761339 L 287.8844749965859 252.52218005161464 L 287.8820920000134 252.51480743989976 L 287.8754074625667 252.49356553405426 L 287.87314314109136 252.4861707984487 L 287.86677397035123 252.46478110310738 L 287.864628211433 252.4573661743472 L 287.85857626249765 252.43583178134048 L 287.8565489251276 252.42839858261323 L 287.8508160530954 252.40672258377163 L 287.84890696807616 252.39927303144546 L 287.8434950280453 252.37745851859944 L 287.8417039981615 252.36999452289479 L 287.83661484523026 252.34804458787474 L 287.83494164532766 252.34056805352182 L 287.8301771345944 252.31848578815828 L 287.8286215115636 252.31099861500587 L 287.8241834981265 252.2887871111292 L 287.8227451707955 252.28129119468394 L 287.8186355097529 252.2589535441247 L 287.81731416870224 252.25145077605652 L 287.81353471515234 252.2289900706451 L 287.81233002244954 252.22148233920785 L 287.8088826314907 252.19890167077472 L 287.8077942203577 252.1913908611756 L 287.8046807470881 252.16869332155122 L 287.8037082215022 252.16118131622662 L 287.8009305210202 252.13836999724143 L 287.80007345526104 252.13085867607498 L 287.79763338266486 252.10793666955948 L 287.79689132080904 252.10042790999637 L 287.794790731197 252.07739830778098 L 287.79416318657246 252.06989398487804 L 287.7924039350428 252.0467598787932 L 287.7918903896461 252.0392618651608 L 287.79047433129705 252.01602634703698 L 287.7900742351843 252.00853651270353 L 287.78900322511424 251.98520267437124 L 287.7887159957717 251.97772288655494 L 287.78799188907885 251.95429381984457 L 287.78781691078046 251.94682594262153 L 287.78744156256306 251.92330473936357 L 287.78737818572347 251.91585063325365 L 287.7873534510798 251.89224038527854 L 287.78740099161064 251.884801906732 L 287.787728725639 251.86110570587022 L 287.7878864643144 251.85368470666083 L 287.7885685221131 251.8299056447428 L 287.78883570395357 251.82250397127635 L 287.7898739406208 251.79864514013255 L 287.79024977430214 251.7912646326457 L 287.7916460449363 251.76732912410657 L 287.79212970223 251.75997161580747 L 287.79388586192925 251.7359625217035 L 287.7944764771826 251.7286298377984 L 287.7965943810452 251.70455024996002 L 287.797291050707 251.6972442066096 L 287.7997725538313 251.67309721686726 L 287.80057433602826 251.66581962007567 L 287.8034212935125 251.64160832025985 L 287.8037682333378 251.64164911620801 L 287.8045720160722 251.63253806450126 L 287.80780384724574 251.60880409376873 L 287.8117806392818 251.5773155015378 L 287.8167050221683 251.53566728226255 L 287.82239402432964 251.48439966720332 L 287.8286954820608 251.42385024078163 L 287.83546820329855 251.35428327603998 L 287.84257575441745 251.27593105698242 L 287.84988406631237 251.18901004925473 L 287.8572603740356 251.0937281598528 L 287.86457269747785 250.9902883402881 L 287.871689567234 250.87889051789162 L 287.8784798715018 250.75973269622986 L 287.8848127669806 250.63301161412568 L 287.88673945709616 250.58804150746224 L 287.5830836015812 250.71492486156805 L 287.57675425667753 250.717620888951 L 287.26265499449136 250.85397411615207 L 287.25621038610785 250.85682592048425 L 286.9409424120091 250.99900044606864 L 286.93438367282636 251.0020153618935 L 286.6181998985465 251.15013238561508 L 286.6115286039101 251.15331792253426 L 286.29468194118033 251.30749864414688 L 286.2879001489107 251.31086246418263 L 285.97064350946243 251.4712280834402 L 285.9637538007017 251.47477797375075 L 285.6463400962663 251.64144969040714 L 285.6393456169664 251.6451935309461 L 285.3220277592751 251.81829254475525 L 285.31493226184455 251.82223827048352 L 284.99796316262876 252.0018857811993 L 284.99077104715985 252.00604133848836 L 284.67440361815085 252.19235854586464 L 284.66711997255 252.19673184277917 L 284.3516071254791 252.38983994656985 L 284.3442377637168 252.39443879678316 L 284.02983241031546 252.59445899674213 L 284.0223839079114 252.59929105692672 L 283.70933895991084 252.8063445528079 L 283.7018186856645 252.81141725345432 L 283.390387054796 253.02562524501155 L 283.3828031976818 253.03094571476475 L 283.0732377956769 253.25242940175195 L 283.0655993857414 253.25800438551488 L 282.7581531243313 253.48688496768594 L 282.75047004636497 253.49272073892865 L 282.44539583728096 253.72911941603746 L 282.4376788360024 253.7352216839584 L 282.1352295909759 253.97925965575885 L 282.12749026645923 253.9856334681762 L 281.8279188972215 254.23743193442215 L 281.82016968933226 254.2440815775211 L 281.52372910761466 254.50376173796647 L 281.5159832682998 254.51069063428207 L 281.2229263858337 254.77837368868077 L 281.2151979382424 254.78558429495325 L 280.9257776667591 255.06139144305914 L 280.9180813503596 255.06888514984348 L 280.6325506015904 255.35293759141047 L 280.62490180269793 255.36071462654303 L 280.3435134883742 255.65313356132498 L 280.3359281558045 255.66119289953744 L 280.05893518765754 255.96209952728827 L 280.05142973358966 255.97043880839055 L 279.7790850233509 256.27995432886416 L 279.77167620988484 256.28856978698633 L 279.5042326692855 256.6068153999365 L 279.4969374816294 256.6157018063094 L 279.23464802240085 256.9427987114902 L 279.22748353009035 256.9519493331374 L 278.97060106396395 257.2880187303026 L 278.9635842719842 257.29742530682273 L 278.7123617106912 257.64258839572625 L 278.70550940282635 257.65224113603415 L 278.4601996580982 258.0066191164299 L 278.45352823524365 258.0165067169289 L 278.2143842188116 258.38022078857074 L 278.2079095353268 258.39033047373323 L 277.9751841589222 258.7635018363751 L 277.9689213603611 258.7738194221355 L 277.7428675357153 259.1565692755312 L 277.73683090141844 259.1670792552755 L 277.51770154026275 259.55952879917896 L 277.5119043343228 259.57021445144943 L 277.2999523483886 259.97248488561456 L 277.2944066823943 259.9833284019961 L 277.08988498341284 260.3955409261768 L 277.08460169413894 260.4065235571998 L 276.88776319384164 260.82879937114996 L 276.88275173868834 260.8399015874754 L 276.69384934880645 261.2723618909489 L 276.68911772131094 261.28356355662714 L 276.5084043535758 261.7263295493778 L 276.5039590207529 261.7376101036045 L 276.33168758689595 262.1908029853863 L 276.32753344952613 262.2021416289503 L 276.16395686127856 262.6658825995171 L 276.16009723759345 262.67725848204543 L 276.0054684066867 263.1516687411511 L 276.0019050392297 263.16306114530954 L 275.85647687739504 263.64826189270804 L 275.85320996218826 263.6596504117126 L 275.7172353811571 264.1557628471578 L 275.7142636177208 264.16712755226746 L 275.5879955292244 264.67427287551317 L 275.5853161894868 264.68559447059835 L 275.46900750525646 265.2038938813985 L 275.4666165189866 265.21515384218014 L 275.3605201507537 265.74472854028863 L 275.3584122048525 265.7559092363961 L 275.2627810643484 266.29688042156687 L 275.26094971315183 266.30796522014015 L 275.1760367121078 266.86045409212704 L 275.1744744957884 266.87142744226213 L 275.10053254593583 267.435555200819 L 275.0992311141241 267.4464026987003 L 275.03651312719427 268.0222905435811 L 275.0354633650715 268.032998978647 L 274.9842222527958 268.62076810960565 L 274.98341440711374 268.631325492525 L 274.9439030812235 269.2310971093153 L 274.9433268839729 269.24149268291984 L 274.91579825619937 269.8533879852957 L 274.9154430439525 269.8636122198969 L 274.9001500260271 270.4877524076122 L 274.90000000000003 270.5000000000001 L 274.9000143559701 270.5037889001008 L 274.9001975984551 270.5279696938561 L 274.9003129645443 270.5355696142124 L 274.9008610430232 270.55962549801734 L 274.9010928485487 270.5672471189687 L 274.9020032895571 270.59117561935875 L 274.90235255296255 270.59881636490957 L 274.90362288303606 270.6226150084205 L 274.9040905507959 270.63027227501163 L 274.9057182964702 270.653938588179 L 274.90630524229175 270.66160974775556 L 274.9082879301024 270.68514125711505 L 274.9089949542895 270.69282366020497 L 274.91133011077216 270.71621789229215 L 274.91215793974976 270.7239088710725 L 274.91484309144016 270.7471633524231 L 274.9157923774368 270.754860223767 L 274.9188250508704 270.7779724809166 L 274.91989637175965 270.7856725494336 L 274.92327409347223 270.80864010891787 L 274.924467952762 270.8163406699206 L 274.9281882492892 270.8391610582751 L 274.9295050762617 270.8468594007229 L 274.933565474139 270.8695301444833 L 274.935005624135 270.87722355386956 L 274.9394036498982 270.89974217957155 L 274.94096740473134 270.90742794071014 L 274.945700584916 270.92979197488927 L 274.9473881534251 270.93746737466796 L 274.95245401456685 270.95967434385994 L 274.95426553328406 270.9673366738715 L 274.9596616019186 270.98938410461193 L 274.96159713585524 270.9970306637103 L 274.9673209385181 271.01891608253476 L 274.96938048205675 271.02654417929017 L 274.97542954528365 271.04826511273444 L 274.9776130231673 271.0558720677806 L 274.98398487349385 271.0774260423802 L 274.98629214190163 271.0850091906457 L 274.99298430586344 271.1063937329362 L 274.99541515356947 271.1139504257754 L 275.00242515770225 271.1351630622926 L 275.0049793072975 271.1426906694782 L 275.0123046781368 271.1637289267577 L 275.0149817873185 271.17122483837693 L 275.0226200514 271.1920862429543 L 275.02541971430173 271.19954787115574 L 275.03336839816103 271.2202299495666 L 275.03629014672964 271.22765473020587 L 275.0445467769024 271.2481550089859 L 275.0475900823018 271.25554040313716 L 275.05615218532364 271.275856408822 L 275.0593164593585 271.28319990416645 L 275.0681815617651 271.3033291632917 L 275.0714661583189 271.3106282753934 L 275.0806317866459 271.33056831449477 L 275.0840360031153 271.33782058794446 L 275.0934996838982 271.3575689335575 L 275.0970227626278 271.36477194301824 L 275.10678202240234 271.38432612167867 L 275.110423152097 271.39147747280333 L 275.1204755173988 271.4108350110467 L 275.1242338345178 271.41793234129926 L 275.1345768318825 271.4370907656612 L 275.13845142200023 271.4441317450311 L 275.1490825779635 271.4630885820473 L 275.15307247709535 271.4700709136716 L 275.1639893181928 271.4888236898777 L 275.16809351407204 271.49574511056534 L 275.17929356683925 271.51429135249697 L 275.18351100015406 271.521149633185 L 275.19499179112677 271.5394868673778 L 275.1993213566866 271.5462798134854 L 275.21108041240035 271.56440556647493 L 275.2155209602613 271.57113101821886 L 275.22755580725175 271.5890428165408 L 275.2321061437655 271.59569864916597 L 275.2444143085683 271.613394019356 L 275.2490731973715 271.619978143324 L 275.2616522065223 271.63745461191763 L 275.2664183694517 271.64396497304176 L 275.2792657494861 271.6612200665748 L 275.28413786743255 271.66765464612934 L 275.29725114488616 271.6846858911373 L 275.30222785857046 271.6910427059284 L 275.315604559979 271.707847628947 L 275.3206844706546 271.7141247313605 L 275.33432212255366 271.73070085892533 L 275.3395037926479 271.7368963369742 L 275.35339992157316 271.7532411956209 L 275.35868187524704 271.7593531729723 L 275.372834007734 271.7754642892364 L 275.37821473138416 271.78149092525615 L 275.39262039396857 271.79736582567347 L 275.3980983366577 271.80330531547236 L 275.4127550558752 271.8189415265784 L 275.4183286296969 271.8247921010743 L 275.43323393208306 271.8401871494048 L 275.438901512483 271.8459470754265 L 275.4540529245735 271.861098487517 L 275.4598128505952 271.86676606791696 L 275.4752078989257 271.88167137030314 L 275.4810584734216 271.8872449441248 L 275.49669468452765 271.9019016633423 L 275.50263417432654 271.90737960603144 L 275.51850907474386 271.92178526861585 L 275.5245357107636 271.927165992266 L 275.54064682702773 271.94131812475297 L 275.5467588043791 271.94660007842685 L 275.5631036630258 271.9604962073521 L 275.5692991410747 271.96567787744635 L 275.5858752686395 271.9793155293454 L 275.59215237105303 271.984395440021 L 275.6089572940716 271.99777214142955 L 275.6153141088627 272.00274885511385 L 275.6323453538707 272.01586213256746 L 275.6387799334252 272.0207342505139 L 275.65603502695825 272.0335816305483 L 275.662545388083 272.0383477934782 L 275.6800218566767 272.05092680262896 L 275.6866059806435 272.0555856914313 L 275.7043013508335 272.0678938562341 L 275.7109571834592 272.07244419274826 L 275.72886898178115 272.0844790397387 L 275.7355944335251 272.08891958759966 L 275.7537201865146 272.1006786433134 L 275.76051313262224 272.10500820887324 L 275.778850366815 272.11648899984596 L 275.78570864750304 272.12070643316076 L 275.8042548894347 272.13190648592797 L 275.81117631012233 272.1360106818072 L 275.82992908632843 272.14692752290466 L 275.8369114179527 272.1509174220365 L 275.8558682549689 272.1615485779998 L 275.8629092343394 272.1654231681178 L 275.8820676587014 272.1757661654825 L 275.8891649889534 272.1795244826012 L 275.90852252719674 272.189576847903 L 275.9156738783209 272.19321797759744 L 275.93522805698126 272.202977237372 L 275.942431066443 272.20650031610205 L 275.9621794120561 272.21596399688497 L 275.9694316855048 272.2193682133539 L 275.9893717246061 272.22853384168087 L 275.9966708367088 272.23181843823517 L 276.0168000958341 272.2406835406417 L 276.0241435911781 272.24384781467637 L 276.0444595968629 272.25240991769823 L 276.05184499101415 272.2554532230976 L 276.0723452697942 272.26370985327037 L 276.07977005043347 272.266631601839 L 276.1004521288443 272.2745802856983 L 276.10791375704576 272.2773799486 L 276.12877516162314 272.2850182126815 L 276.13627107324197 272.2876953218631 L 276.1573093305214 272.2950206927024 L 276.16483693770743 272.29757484229776 L 276.1860495742246 272.30458484643054 L 276.1936062670642 272.3070156941367 L 276.2149908093548 272.3137078580985 L 276.2225739576199 272.31601512650616 L 276.24412793221944 272.3223869768327 L 276.2517348872656 272.32457045471637 L 276.2734558207099 272.33061951794326 L 276.2810839174653 272.3326790614819 L 276.3029693362898 272.33840286414477 L 276.31061589538814 272.3403383980814 L 276.33266332612857 272.34573446671595 L 276.3403256561401 272.34754598543316 L 276.3625326253321 272.3526118465749 L 276.3702080251108 272.35429941508403 L 276.39257205928993 272.3590325952687 L 276.4002578204285 272.3605963501018 L 276.4227764461305 272.364994375865 L 276.430469855517 272.36643452586105 L 276.45314059927745 272.37049492373836 L 276.460838941726 272.371811750711 L 276.4836593300805 272.37553204723815 L 276.491359891081 272.3767259065275 L 276.51432745056525 272.38010362824014 L 276.52202751908345 272.3811749491296 L 276.54513977623304 272.3842076225632 L 276.55283664757695 272.38515690855985 L 276.57609112892754 272.38784206025025 L 276.58378210770803 272.38866988922786 L 276.6071763397953 272.39100504571053 L 276.6148587428851 272.3917120698976 L 276.63839025224456 272.39369475770826 L 276.6460614118211 272.3942817035298 L 276.6697277249885 272.3959094492041 L 276.67738499157963 272.39637711696395 L 276.70118363509056 272.39764744703746 L 276.7088243806414 272.3979967104429 L 276.73275288103144 272.3989071514513 L 276.7403745019828 272.3991389569768 L 276.7644303857877 272.3996870354557 L 276.772030306144 272.3998024015449 L 276.7962110998993 272.3999856440299 L 276.8037864409921 272.39965900888575 L 276.80378891624866 272.3999856439073 Z M 290.95726446029937 253.42265023449986 L 291.20562583621404 253.3458365021856 L 291.45117100881055 253.272925923798 L 291.6936883150967 253.20381966925774 L 291.93296595457275 253.13841868906908 L 292.1687920060343 253.07662371867335 L 292.4009544425151 253.01833528354408 L 292.62924114440546 252.96345370486992 L 292.8534399107616 252.91187910569352 L 293.0733384687394 252.86351141740525 L 293.2887244811837 252.81825038647483 L 293.49938555225674 252.77599558134582 L 293.7051092309235 252.73664639942945 L 293.9056830121836 252.70010207411698 L 294.10089433564235 252.6662616817814 L 294.2905305809779 252.6350241487238 L 294.47437905974044 252.60628825802038 L 294.65222700243675 252.57995265626792 L 294.82386153964717 252.55591586019904 L 294.9890696751883 252.53407626317235 L 295.1476382485865 252.51433214152846 L 295.29935388254984 252.49658166084333 L 295.4440029092823 252.48072288208607 L 295.5813712657632 252.4666537677407 L 295.7112443427069 252.45427218794632 L 295.83340676229767 252.44347592674342 L 295.9476420428794 252.434162688559 L 296.05373207817104 252.42623010508086 L 296.15145629968924 252.4195757426876 L 296.2405902722094 252.4140971104902 L 296.32090321670734 252.40969166846392 L 296.39215336174976 252.40625683293592 L 296.4540785069547 252.40368996831214 L 296.50637479530985 252.40188832000257 L 296.548641709469 252.400748686602 L 296.5802061708566 252.40016571715694 L 296.60380334275703 252.3999855345829 L 296.6279696938559 252.39980240154458 L 296.6355696142122 252.39968703545543 L 296.65962549801714 252.39913895697651 L 296.66724711896785 252.39890715145103 L 296.6911756193579 252.39799671044267 L 296.69881636490936 252.39764744703723 L 296.7226150084203 252.39637711696372 L 296.73027227501143 252.39590944920383 L 296.7539385881788 252.39428170352954 L 296.76160974775536 252.393694757708 L 296.78514125711484 252.39171206989735 L 296.79282366020465 252.39100504571027 L 296.8162178922919 252.3886698892276 L 296.82390887107175 252.38784206025008 L 296.84716335242234 252.3851569085597 L 296.85486022376745 252.38420762256288 L 296.87797248091704 252.38117494912925 L 296.8856725494335 252.38010362824008 L 296.9086401089177 252.3767259065275 L 296.9163406699194 252.37553204723795 L 296.9391610582739 252.3718117507108 L 296.94685940072304 252.37049492373805 L 296.9695301444835 252.3664345258607 L 296.9772235538682 252.364994375865 L 296.9997421795702 252.36059635010182 L 297.00742794071056 252.35903259526836 L 297.0297919748897 252.3542994150837 L 297.0374673746678 252.3526118465747 L 297.0596743438598 252.34754598543293 L 297.06733667387135 252.34573446671573 L 297.0893841046118 252.3403383980812 L 297.09703066370986 252.33840286414465 L 297.1189160825344 252.33267906148177 L 297.1265441792904 252.33061951794295 L 297.14826511273463 252.32457045471605 L 297.1558720677799 252.32238697683266 L 297.17742604237947 252.31601512650613 L 297.18500919064513 252.3137078580983 L 297.20639373293574 252.30701569413648 L 297.2139504257747 252.30458484643057 L 297.2351630622919 252.29757484229782 L 297.2426906694781 252.2950206927024 L 297.2637289267576 252.2876953218631 L 297.27122483837724 252.2850182126812 L 297.29208624295455 252.2773799485997 L 297.29954787115514 252.27458028569828 L 297.32022994956606 252.26663160183898 L 297.3276547302058 252.26370985327023 L 297.3481550089858 252.25545322309748 L 297.35554040313707 252.25240991769806 L 297.3758564088219 252.2438478146762 L 297.38319990416636 252.24068354064136 L 297.40332916329163 252.2318184382348 L 297.4106282753928 252.22853384168118 L 297.43056831449417 252.21936821335424 L 297.4378205879449 252.21596399688437 L 297.4575689335579 252.20650031610143 L 297.46477194301764 252.20297723737238 L 297.48432612167807 252.19321797759784 L 297.4914774728038 252.18957684790263 L 297.51083501104716 252.17952448260078 L 297.5179323412986 252.17576616548237 L 297.5370907656606 252.16542316811766 L 297.54413174503105 252.1615485779996 L 297.56308858204727 252.15091742203634 L 297.5700709136706 252.1469275229051 L 297.5888236898767 252.13601068180768 L 297.5957451105663 252.13190648592726 L 297.6142913524979 252.12070643316002 L 297.6211496331844 252.11648899984613 L 297.6394868673772 252.10500820887344 L 297.6462798134853 252.10067864331336 L 297.66440556647484 252.0889195875996 L 297.6711310182188 252.08447903973865 L 297.68904281654073 252.0724441927482 L 297.6956986491663 252.0678938562341 L 297.7133940193563 252.05558569143128 L 297.71997814332326 252.05092680262888 L 297.737454611917 252.0383477934781 L 297.7439649730413 252.03358163054855 L 297.7612200665743 252.02073425051415 L 297.76765464612976 252.01586213256704 L 297.7846858911377 252.0027488551134 L 297.79104270592796 251.99777214142978 L 297.80784762894655 251.98439544002125 L 297.8141247313605 251.97931552934534 L 297.8307008589253 251.9656778774463 L 297.8368963369738 251.96049620735232 L 297.85324119562046 251.9466000784271 L 297.8593531729726 251.9413181247526 L 297.87546428923673 251.9271659922656 L 297.8814909252561 251.92178526861576 L 297.89736582567343 251.90737960603136 L 297.9033053154719 251.90190166334256 L 297.91894152657795 251.8872449441251 L 297.9247921010743 251.88167137030308 L 297.9401871494048 251.8667660679169 L 297.94594707542683 251.86109848751659 L 297.9610984875173 251.8459470754261 L 297.96676606791624 251.84018714940535 L 297.9816713703024 251.8247921010749 L 297.9872449441251 251.81894152657802 L 298.0019016633426 251.80330531547196 L 298.0073796060314 251.79736582567344 L 298.0217852686158 251.78149092525612 L 298.02716599226534 251.7754642892371 L 298.04131812475237 251.75935317297296 L 298.0466000784275 251.75324119562003 L 298.0604962073527 251.73689633697336 L 298.0656778774463 251.73070085892527 L 298.07931552934537 251.71412473136047 L 298.0843954400207 251.70784762894723 L 298.0977721414293 251.69104270592868 L 298.1027488551134 251.6846858911378 L 298.1158621325671 251.66765464612982 L 298.1207342505143 251.66122006657417 L 298.1335816305487 251.64396497304116 L 298.13834779347815 251.63745461191698 L 298.15092680262893 251.61997814332327 L 298.15558569143144 251.6133940193562 L 298.16789385623423 251.5956986491662 L 298.17244419274766 251.58904281654168 L 298.18447903973816 251.57113101821972 L 298.1889195875997 251.56440556647487 L 298.20067864331344 251.54627981348534 L 298.20500820887383 251.53948686737675 L 298.2164889998465 251.521149633184 L 298.22070643316 251.51429135249813 L 298.23190648592725 251.49574511056653 L 298.2360106818078 251.48882368987668 L 298.2469275229052 251.47007091367058 L 298.2509174220365 251.46308858204725 L 298.26154857799975 251.44413174503103 L 298.2654231681171 251.43709076566188 L 298.27576616548185 251.41793234129992 L 298.27952448260135 251.4108350110464 L 298.28957684790316 251.39147747280302 L 298.29321797759746 251.3843261216791 L 298.30297723737203 251.36477194301872 L 298.30650031610196 251.35756893355722 L 298.3159639968849 251.33782058794415 L 298.31936821335415 251.33056831449474 L 298.3285338416811 251.31062827539338 L 298.33181843823496 251.30332916329164 L 298.3406835406415 251.28319990416637 L 298.3438478146764 251.27585640882197 L 298.35240991769825 251.25554040313713 L 298.35545322309764 251.24815500898583 L 298.3637098532704 251.22765473020578 L 298.36663160183906 251.22022994956632 L 298.37458028569836 251.19954787115543 L 298.3773799485999 251.19208624295442 L 298.3850182126814 251.17122483837707 L 298.3876953218632 251.16372892675784 L 298.3950206927025 251.14269066947838 L 298.3975748422978 251.13516306229255 L 298.40458484643057 251.11395042577536 L 298.40701569413665 251.106393732936 L 298.41370785809846 251.08500919064542 L 298.4160151265062 251.07742604237995 L 298.42238697683274 251.05587206778037 L 298.4245704547163 251.0482651127347 L 298.43061951794317 251.02654417929048 L 298.432679061482 251.01891608253442 L 298.4384028641449 250.9970306637099 L 298.4403383980814 250.989384104612 L 298.4457344667159 250.96733667387159 L 298.4475459854332 250.95967434385992 L 298.45261184657494 250.93746737466793 L 298.45429941508405 250.92979197488907 L 298.4590325952687 250.9074279407099 L 298.46059635010175 250.8997421795716 L 298.464994375865 250.87722355386964 L 298.4664345258611 250.86953014448312 L 298.4704949237384 250.8468594007227 L 298.471811750711 250.83916105827393 L 298.4755320472382 250.8163406699194 L 298.4767259065275 250.808640108919 L 298.48010362824016 250.78567254943476 L 298.48117494912964 250.77797248091647 L 298.48420762256325 250.75486022376685 L 298.4851569085599 250.747163352423 L 298.4878420602503 250.7239088710724 L 298.4886698892279 250.716217892292 L 298.49100504571055 250.6928236602048 L 298.49171206989763 250.6851412571149 L 298.4936947577083 250.66160974775542 L 298.49428170352985 250.65393858817887 L 298.49590944920413 250.6302722750115 L 298.49637711696397 250.62261500842038 L 298.4976474470375 250.59881636490945 L 298.4979967104429 250.5911756193586 L 298.4989071514513 250.56724711896854 L 298.4991389569768 250.55962549801723 L 298.49968703545574 250.53556961421233 L 298.49980240154486 250.52796969386074 L 298.4999856440301 250.50378890010538 L 298.4999856440302 250.49621109989928 L 298.49980240154514 250.47203030614395 L 298.49968703545596 250.46443038578764 L 298.49913895697705 250.44037450198275 L 298.49890715145153 250.43275288103143 L 298.49799671044315 250.40882438064136 L 298.4976474470377 250.40118363509052 L 298.4963771169642 250.3773849915796 L 298.49590944920436 250.36972772498848 L 298.4942817035301 250.3460614118211 L 298.4936947577084 250.33839025224336 L 298.4917120698977 250.31485874288387 L 298.4910050457107 250.30717633979518 L 298.48866988922805 250.28378210770796 L 298.4878420602506 250.27609112892875 L 298.48515690856027 250.25283664757816 L 298.4842076225633 250.24513977623192 L 298.48117494912964 250.2220275190823 L 298.4801036282405 250.21432745056632 L 298.4767259065279 250.1913598910821 L 298.4755320472384 250.1836593300806 L 298.47181175071125 250.16083894172607 L 298.4704949237384 250.1531405992762 L 298.466434525861 250.13046985551577 L 298.46499437586516 250.12277644613033 L 298.4605963501019 250.10025782042837 L 298.45903259526887 250.09257205929006 L 298.4542994150842 250.0702080251109 L 298.4526118465751 250.06253262533204 L 298.44754598543335 250.04032565614006 L 298.4457344667161 250.0326633261284 L 298.44033839808156 250.01061589538799 L 298.4384028641451 250.00296933629008 L 298.4326790614822 249.98108391746555 L 298.43061951794334 249.9734558207095 L 298.42457045471645 249.95173488726527 L 298.4223869768329 249.9441279322196 L 298.41601512650635 249.92257395762002 L 298.41370785809823 249.9149908093534 L 298.40701569413636 249.89360626706284 L 298.4045848464311 249.88604957422575 L 298.39757484229835 249.86483693770856 L 298.39502069270264 249.8573093305216 L 298.38769532186336 249.83627107324213 L 298.3850182126816 249.8287751616229 L 298.3773799486001 249.80791375704555 L 298.3745802856981 249.8004521288434 L 298.3666316018387 249.77977005043252 L 298.3637098532705 249.7723452697942 L 298.35545322309775 249.75184499101414 L 298.35240991769837 249.74445959686284 L 298.3438478146765 249.724143591178 L 298.34068354064175 249.71680009583383 L 298.3318184382352 249.69667083670853 L 298.3285338416811 249.6893717246063 L 298.31936821335415 249.66943168550497 L 298.315963996885 249.66217941205582 L 298.3065003161021 249.64243106644275 L 298.30297723737226 249.6352280569815 L 298.2932179775977 249.6156738783211 L 298.28957684790316 249.60852252719667 L 298.27952448260135 249.5891649889533 L 298.27576616548265 249.58206765870133 L 298.26542316811793 249.56290923433934 L 298.2615485779999 249.5558682549689 L 298.25091742203665 249.5369114179527 L 298.2469275229046 249.52992908632808 L 298.23601068180716 249.511176310122 L 298.23190648592754 249.50425488943372 L 298.2207064331603 249.4857086475021 L 298.2164889998466 249.47885036681595 L 298.20500820887395 249.4605131326232 L 298.20067864331355 249.4537201865146 L 298.1889195875998 249.43559443352507 L 298.18447903973885 249.42886898178114 L 298.1724441927484 249.41095718345917 L 298.16789385623383 249.40430135083287 L 298.155585691431 249.38660598064286 L 298.15092680262904 249.38002185667668 L 298.13834779347826 249.36254538808296 L 298.1335816305488 249.35603502695878 L 298.12073425051443 249.33877993342577 L 298.1158621325672 249.33234535387012 L 298.10274885511353 249.31531410886214 L 298.09777214142963 249.30895729407158 L 298.08439544002107 249.292152371053 L 298.0793155293455 249.28587526863944 L 298.06567787744643 249.26929914107464 L 298.0604962073525 249.26310366302621 L 298.04660007842733 249.24675880437957 L 298.04131812475276 249.24064682702732 L 298.02716599226574 249.22453571076315 L 298.02178526861564 249.21850907474348 L 298.00737960603124 249.2026341743262 L 298.0019016633427 249.19669468452798 L 297.9872449441252 249.18105847342193 L 297.9816713703029 249.17520789892535 L 297.9667660679167 249.15981285059488 L 297.9610984875174 249.15405292457382 L 297.94594707542694 249.13890151248333 L 297.9401871494049 249.13323393208302 L 297.9247921010744 249.11832862969683 L 297.91894152657807 249.11275505587483 L 297.90330531547204 249.09809833665736 L 297.89736582567394 249.09262039396887 L 297.8814909252566 249.07821473138443 L 297.87546428923685 249.0728340077343 L 297.8593531729727 249.0586818752473 L 297.85324119562017 249.05339992157246 L 297.8368963369735 249.03950379264728 L 297.8307008589258 249.03432212255396 L 297.814124731361 249.02068447065488 L 297.80784762894666 249.01560455997864 L 297.7910427059281 249.0022278585701 L 297.78468589113714 248.997251144886 L 297.76765464612913 248.98413786743237 L 297.761220066575 248.97926574948622 L 297.743964973042 248.96641836945182 L 297.7374546119171 248.9616522065218 L 297.7199781433234 248.949073197371 L 297.71339401935643 248.9444143085686 L 297.6956986491664 248.9321061437658 L 297.6890428165413 248.927555807252 L 297.67113101821934 248.91552096026152 L 297.66440556647495 248.91108041240025 L 297.6462798134854 248.8993213566865 L 297.63948686737683 248.89499179112613 L 297.6211496331841 248.88351100015348 L 297.6142913524979 248.8792935668398 L 297.59574511056627 248.86809351407254 L 297.58882368987673 248.86398931819218 L 297.57007091367063 248.85307247709477 L 297.5630885820473 248.84908257796351 L 297.5441317450311 248.83845142200025 L 297.53709076566173 248.83457683188277 L 297.5179323412998 248.82423383451803 L 297.5108350110462 248.8204755173985 L 297.4914774728028 248.8104231520967 L 297.48432612167915 248.80678202240253 L 297.4647719430188 248.79702276262796 L 297.45756893355804 248.7934996838984 L 297.437820587945 248.78403600311546 L 297.4305683144943 248.78063178664559 L 297.4106282753929 248.77146615831865 L 297.40332916329174 248.76818156176503 L 297.3831999041665 248.75931645935847 L 297.37585640882156 248.75615218532343 L 297.3555404031367 248.74759008230157 L 297.3481550089859 248.74454677690235 L 297.32765473020584 248.7362901467296 L 297.32022994956714 248.73336839816125 L 297.2995478711563 248.72541971430192 L 297.2920862429537 248.72262005139976 L 297.2712248383763 248.7149817873183 L 297.26372892675863 248.71230467813706 L 297.2426906694792 248.70497930729775 L 297.23516306229203 248.70242515770198 L 297.21395042577484 248.69541515356923 L 297.20639373293585 248.69298430586332 L 297.18500919064525 248.6862921419015 L 297.17742604238015 248.68398487349384 L 297.1558720677806 248.67761302316728 L 297.14826511273475 248.67542954528372 L 297.12654417929053 248.66938048205682 L 297.1189160825345 248.667320938518 L 297.09703066371 248.66159713585512 L 297.0893841046119 248.65966160191857 L 297.06733667387147 248.65426553328405 L 297.0596743438599 248.65245401456684 L 297.0374673746679 248.64738815342508 L 297.0297919748898 248.64570058491609 L 297.00742794071067 248.6409674047314 L 296.9997421795703 248.63940364989796 L 296.9772235538683 248.63500562413478 L 296.9695301444842 248.63356547413915 L 296.9468594007238 248.62950507626178 L 296.939161058274 248.62818824928894 L 296.9163406699195 248.6244679527618 L 296.90864010891784 248.62327409347225 L 296.8856725494336 248.61989637175967 L 296.8779724809178 248.61882505087056 L 296.8548602237682 248.6157923774369 L 296.8471633524219 248.61484309143995 L 296.8239088710713 248.6121579397496 L 296.8162178922926 248.6113301107722 L 296.7928236602054 248.6089949542895 L 296.78514125711496 248.60828793010236 L 296.7616097477555 248.6063052422917 L 296.7539385881789 248.60571829647017 L 296.73027227501154 248.6040905507959 L 296.7226150084204 248.603622883036 L 296.6988163649095 248.6023525529625 L 296.69117561935866 248.60200328955708 L 296.6672471189686 248.6010928485487 L 296.65962549801725 248.60086104302317 L 296.63556961421233 248.60031296454426 L 296.627969693856 248.6001975984551 L 296.6037889001007 248.60001435597007 L 296.59171744107965 248.600525685993 L 296.591709863601 248.60006873108574 L 296.5794165395844 248.60027258577384 L 296.57363418025267 248.6004019290579 L 296.549044028145 248.6010942929581 L 296.54535639980935 248.60121174014927 L 296.50872233134174 248.60251381301546 L 296.5055099274645 248.60263833201878 L 296.45708485436853 248.60467131360485 L 296.4540279942882 248.60480901831923 L 296.39406482829503 248.60769410837912 L 296.39105672609435 248.60784792415993 L 296.31980837893536 248.61170632244745 L 296.3168026012371 248.61187817549276 L 296.2535378740941 248.61568641462188 L 296.2258977198298 248.68260545587944 L 296.1955750890416 248.7581589955834 L 296.165987568341 248.83407492343838 L 296.1371381733292 248.91034808389784 L 296.109029920783 248.98697332182965 L 296.0816658286704 249.0639454826301 L 296.05504891610104 249.14125941255176 L 296.0291822033528 249.21890995884957 L 296.00406871185197 249.29689197009913 L 295.9797114642262 249.3752002963344 L 295.95611348432095 249.45382978932923 L 295.93327779724945 249.53277530281463 L 295.911207429459 249.61203169267577 L 295.8899054087989 249.6915938171819 L 295.8693747646053 249.77145653719086 L 295.84961852779946 249.8516147163471 L 295.830639730987 249.93206322131002 L 295.8124414085856 250.01279692191136 L 295.79502659694896 250.0938106913622 L 295.77839833451037 250.17509940641915 L 295.7625596619243 250.25665794759703 L 295.7475136222424 250.33848119925753 L 295.73326326106536 250.42056404985894 L 295.7198116267382 250.50290139201906 L 295.70716177052753 250.58548812271863 L 295.6996268467445 250.63817906225 L 295.69913914524653 250.6595326007984 L 295.69890500343234 250.66720429573292 L 295.6979965205833 250.690983666834 L 295.69764207728167 250.69869874066006 L 295.6963755604657 250.72229074683548 L 295.69589877207994 250.73004594213708 L 295.6942773131276 250.75344934665463 L 295.6936762411633 250.76124129450534 L 295.691702931905 250.7844548606329 L 295.6909757494601 250.7922800855691 L 295.68865368172635 250.81530257657445 L 295.6877986797255 250.82315750208937 L 295.68513094534677 250.84598768124033 L 295.6841465384791 250.8538686357676 L 295.68113622928576 250.876505266332 L 295.6800209616061 250.88440848969248 L 295.67667116942863 250.90685033493813 L 295.6754237195795 250.9147719852568 L 295.6717375362484 250.93701780845151 L 295.67035672226973 250.94495396947457 L 295.6663372396154 250.96700253388616 L 295.6648220233015 250.9749492227037 L 295.6604723331545 250.99679929159998 L 295.6588218239278 251.00475246671965 L 295.6541450181184 251.02640280336846 L 295.65235847639104 251.03435837309723 L 295.64735764674987 251.0558077407664 L 295.6454344867403 251.063761571887 L 295.64011272509777 251.0850087338443 L 295.63805251708925 251.09295666049772 L 295.63241291527584 251.11400038001096 L 295.6302153872855 251.12193821278646 L 295.62426103713153 251.1427772531235 L 295.62192607599036 251.15070078825133 L 295.61566006932645 251.17133391267998 L 295.6131877211409 251.17923894134552 L 295.6066131497974 251.1996649131336 L 295.6040036198081 251.20754723078306 L 295.59712357561557 251.22776481319838 L 295.5943772274327 251.2356202288561 L 295.58719480222146 251.2556281851665 L 295.58431215645766 251.26345253065094 L 295.5768304420583 251.28324962412418 L 295.57381217435204 251.2910387631614 L 295.56603426259494 251.31062375706534 L 295.56288120105256 251.31837359420797 L 295.5548101837682 251.33774525181042 L 295.55152330583013 251.34545174114155 L 295.54316227484895 251.36460882571032 L 295.53974270361186 251.37226797926644 L 295.53109475076434 251.39120925406934 L 295.5275437507786 251.39881714995028 L 295.5186119678952 251.41754137825518 L 295.5149309404694 251.42509416837592 L 295.5057184193805 251.44360011345057 L 295.5019088974369 251.45109403087665 L 295.4924187299731 251.4693804559889 L 295.48848237246483 251.47681182187003 L 295.4787176504565 251.4948774902877 L 295.47465623642 251.5022427202917 L 295.4646200516975 251.5200863952826 L 295.46043547395607 251.52738200555476 L 295.45013091835006 251.54500245038673 L 295.4458251769123 251.55222506300484 L 295.4352553422531 251.56962104094566 L 295.43083053747813 251.5767673888078 L 295.4199985155962 251.5939376631253 L 295.41545684113004 251.60100459432772 L 295.4043657238559 251.61794792828974 L 295.3997094594156 251.62493240992822 L 295.3883623385796 251.64164756680253 L 295.38359384262594 251.64854668820698 L 295.37199381005865 251.66503243126144 L 295.36711551238255 251.67184340668896 L 295.35526565991444 251.68809849919137 L 295.35028005420776 251.69481866994283 L 295.3381834736692 251.71084187516104 L 295.33309311010737 251.71746871115033 L 295.3207528933288 251.7332587923521 L 295.31556037120805 251.73978989313878 L 295.30297961002003 251.75534561359194 L 295.2976875704859 251.76177870889103 L 295.2848693567188 251.77709883186344 L 295.2794804756357 251.783431781537 L 295.26642790112 251.79851507029642 L 295.26094488209975 251.80474586386686 L 295.2476610386659 251.81959108168118 L 295.2420866062919 251.82571783738285 L 295.2285745857704 251.84032374751982 L 295.2229114790561 251.84634471090237 L 295.2091743732774 251.86071007662986 L 295.2034253393678 251.8666236187619 L 295.1894662401623 251.88074720334768 L 295.1836340283205 251.8865518186269 L 295.1694560275187 251.90043238533883 L 295.16354338339136 251.90612668896554 L 295.14914957282366 251.91976300107137 L 295.14315923304014 251.92534572617885 L 295.12855270453707 251.93873654694647 L 295.1224873916076 251.94420654146634 L 295.1076712369996 251.95735063416353 L 295.1015336545744 251.96270685740902 L 295.0865109656919 251.97560298530362 L 295.08030379414424 251.9808445043438 L 295.0650776628177 251.9934914307036 L 295.05880355519054 251.99861741652933 L 295.04337707325044 252.01101390462216 L 295.0370386515466 252.01602362815393 L 295.02141491082335 252.02816844124763 L 295.01501476265116 252.03306126920577 L 294.99919685497525 252.04495317056814 L 294.9927375305458 252.04972856123518 L 294.97672854774777 252.06136631413403 L 294.9702125572126 252.06602381304373 L 294.95401559112275 252.0774061807469 L 294.9474454022663 252.08194541631056 L 294.9310635447152 252.09307116208583 L 294.92444158096 252.09749184120682 L 294.907877923778 252.10835972832203 L 294.90120656253373 252.11266163199375 L 294.8844641975514 252.1232704237167 L 294.8777457688653 252.12745340264843 L 294.860827787913 252.13780186224696 L 294.854064573424 252.1418658325292 L 294.83697406833227 252.15195272327114 L 294.8301683005188 252.15589766209746 L 294.812908363118 252.1657217472506 L 294.80606222482066 252.1695476887183 L 294.7886359469414 252.17910773155046 L 294.78175157114117 252.18281476255828 L 294.7641620446138 252.19210952633728 L 294.7572415144689 252.19569778258463 L 294.73949183112387 252.20472603057829 L 294.7325371802281 252.2081956926919 L 294.7146304318959 252.21695618816804 L 294.70764364476145 252.22030747795716 L 294.6895829232725 252.22879898418358 L 294.6825659360126 252.23203216103926 L 294.6643543331974 252.2402534412838 L 294.6573090343902 252.24336879873198 L 294.6389496420791 252.25131861626244 L 294.6318778738178 252.25431647866907 L 294.61337378384144 252.26199359675329 L 294.6062773429167 252.2648743162054 L 294.5876316471054 252.27227749811118 L 294.5805122863553 252.2750414514563 L 294.5617280765396 252.28216946045148 L 294.55458750630066 252.28481704652168 L 294.5356678743109 252.29166864587404 L 294.52850776400777 252.29420028287643 L 294.5094558016745 252.30077423585382 L 294.50227778147917 252.30319035895073 L 294.48309658063283 252.30948542882095 L 294.4759022432323 252.31178648788077 L 294.4565948957034 252.3178014379116 L 294.4493857981274 252.31998789544406 L 294.4299553957463 252.3257214889034 L 294.42273306125196 252.32779381817468 L 294.4031826958491 252.3332448183303 L 294.39594861586414 252.3352035016525 L 294.37628137927004 252.34037067177223 L 294.36903701535414 252.34221619897428 L 294.3492559993993 252.34709830232592 L 294.34200278524605 252.34883116939335 L 294.3221110817608 252.35342696924474 L 294.3148504252023 252.35504767713334 L 294.2948511260172 252.35935593675228 L 294.2875844110351 252.36086499036801 L 294.2674806079806 252.36488447302233 L 294.26020919671146 252.3662823803646 L 294.240003981618 252.3700118493221 L 294.23272921634145 252.37129912078663 L 294.2124256810394 252.37473733931515 L 294.20514888614514 252.37591448715054 L 294.1847501224651 252.37906021851788 L 294.17747260638055 252.3801277564333 L 294.15698170615286 252.3829797639073 L 294.14970476323845 252.3839382068232 L 294.12912481829363 252.38649525367163 L 294.12184973068634 252.38734511761007 L 294.1011838328548 252.3896059671008 L 294.0939118722536 252.39034776920968 L 294.0731631133659 252.3923111846105 L 294.06589554276616 252.3929454433139 L 294.04506701465266 252.39461018789262 L 294.0378050900006 252.39513742316427 L 294.01689988449175 252.39650226018873 L 294.00964485627685 252.39692299393934 L 293.9886660652032 252.39798668667734 L 293.9814191799659 252.39830144325168 L 293.9603698951578 252.39906275497108 L 293.9531323969126 252.39927206174715 L 293.9320157102006 252.3997297557157 L 293.9247888417839 252.3998341437994 L 293.90360784499836 252.39998698328498 L 293.9036066603883 252.39982281613695 L 293.9 252.4 L 293.79999999999995 252.4 L 293.7346646692328 252.39571291545968 L 293.710514278477 252.39252987600483 L 293.70385168912696 252.3916061070498 L 293.6798861898324 252.38811883147804 L 293.6731934349931 252.38709863668552 L 293.64941406389204 252.38330898009514 L 293.64269310222323 252.38219087059176 L 293.6191010960478 252.378100688081 L 293.61235396154535 252.37688321969236 L 293.5889505570278 252.37249436635955 L 293.58217935833454 252.3711761433675 L 293.55896579220695 252.36649047431084 L 293.5521727117257 252.3650701532434 L 293.52915022072034 252.36008952356121 L 293.5223375134872 252.35856581699645 L 293.4995073343362 252.353292081787 L 293.4926773266779 252.35166376216225 L 293.47004069611353 252.3460987765238 L 293.46319578407133 252.34436467993473 L 293.4407539388257 252.33851029896556 L 293.43389658633816 252.3366693289385 L 293.4116507631434 252.3305274077369 L 293.40478349999256 252.32857853896124 L 293.38273493558097 252.32215093262548 L 293.3758603550946 252.32009321462866 L 293.3540102861983 252.31338177825697 L 293.34713104271515 252.31121433900782 L 293.32548070606634 252.30422092769854 L 293.3185995121472 252.3019429771169 L 293.2971501444781 252.29466944596825 L 293.2902697678923 252.2922802793325 L 293.269022605935 252.28472848344276 L 293.2621458663915 252.28222748466706 L 293.24110214687823 252.27439927913454 L 293.23423191253914 252.27178592390936 L 293.2133928722021 252.26368316383233 L 293.20653205595994 252.26095702260318 L 293.18589893153126 252.25258156307987 L 293.17905048706723 252.2497423038499 L 293.1586245152792 252.2410959999786 L 293.15179143291823 252.2381433909219 L 293.1315738505029 252.22922809780093 L 293.12475915284915 252.2261620096589 L 293.10475119653876 252.21697958238647 L 293.0979579339502 252.2137999906517 L 293.078160840477 252.20435228432612 L 293.071392086337 252.20105927117504 L 293.0518070924331 252.19134814089458 L 293.0450659382787 252.18794189687452 L 293.02569428067625 252.17796919773747 L 293.01898383117066 252.174450023183 L 292.9998267466019 252.16421761028758 L 292.99315011439006 252.16058591646362 L 292.97420883958716 252.15009564490816 L 292.9675691400254 252.14635195485675 L 292.94884491172047 252.13560567973948 L 292.94224525753214 252.13175062883718 L 292.9237393124575 252.12075020525643 L 292.91718280830605 252.11678454145957 L 292.8988963831938 252.10553182451355 L 292.8923861202153 252.10145640829674 L 292.8743204517976 252.08995325308376 L 292.8678595020953 252.08576905705627 L 292.8500158271044 252.07401731867458 L 292.8436072382517 252.0697254268863 L 292.82598679341976 252.0577269604342 L 292.8196335829651 252.05332856735197 L 292.8022376050243 252.04108522792774 L 292.79594275504763 252.03658163710043 L 292.77877248073014 252.0240952798023 L 292.7725389324568 252.0194879022061 L 292.7555955984948 252.0067603821324 L 292.7494262469913 252.00205073420145 L 292.732711090117 251.98908390645042 L 292.7266087791081 251.98427360781253 L 292.71012303605363 251.97106932748244 L 292.70409055284637 251.96616009838024 L 292.68783546034393 251.95272022056938 L 292.6818755309244 251.94771387901048 L 292.6658523257062 251.9340402588171 L 292.6599676099943 251.9289387174389 L 292.6441775287925 251.91503320996134 L 292.63837061608706 251.9098384726318 L 292.6228148956339 251.89570293296825 L 292.61708830027555 251.89041709114662 L 292.60176817730314 251.87605337439538 L 292.5961243345494 251.87067860324808 L 292.58104104579 251.85608856450744 L 292.5754823079457 251.85062711882185 L 292.5606370901314 251.8358126131901 L 292.55516572291964 251.83026682307693 L 292.54055981278265 251.81522970565229 L 292.53517799199733 251.8096019720831 L 292.52081262626984 251.7943440979639 L 292.5155224346976 251.78863688814135 L 292.5013988501118 251.77316011242584 L 292.4962022747472 251.76737595502195 L 292.4823217080353 251.75168213280838 L 292.4772206375887 251.7458236130829 L 292.4635843254828 251.72991459946957 L 292.45858054819183 251.7239843542974 L 292.44518972742424 251.70786200438258 L 292.4402849291692 251.7018627172053 L 292.427140836472 251.68552888608727 L 292.4223365991989 251.6794632818142 L 292.4094404713043 251.66291982459123 L 292.40473827175765 251.65679066447296 L 292.39209134539783 251.6400394362433 L 292.3874925541564 251.63384951273156 L 292.3750960660635 251.6168923685935 L 292.3706019468842 251.61064450021865 L 292.3584571337905 251.5934832952705 L 292.35406884324857 251.5871803215482 L 292.34217694188624 251.5698169108882 L 292.3378955293107 251.56346168727973 L 292.3262577764118 251.54589792600612 L 292.3220841841013 251.53949331894154 L 292.3107018163982 251.52173106215267 L 292.30663688012504 251.51527994415838 L 292.29551113434974 251.49732104695246 L 292.29155558411475 251.4908262918586 L 292.28068769699956 251.47267260933396 L 292.2768421580614 251.46613708763005 L 292.26623336633844 251.4477904748849 L 292.26249836046946 251.44121704918263 L 292.2521499008709 251.42267936131526 L 292.2485258478554 251.41607088197648 L 292.2384389571135 251.3973439740852 L 292.2349261764613 251.3907032750055 L 292.22510209130814 251.3717890021886 L 292.2217008041646 251.36511889673864 L 292.2121407613324 251.3460191140943 L 292.2088510925872 251.33932239125738 L 292.1995563288082 251.32003895388397 L 292.1963783093698 251.3133183745663 L 292.1873500613761 251.29385313756202 L 292.18428363060684 251.28711143110016 L 292.17552313513073 251.26746624956334 L 292.1725681434274 251.26070611043463 L 292.16407663720094 251.24088283946352 L 292.16123284869593 251.23410692418423 L 292.1530115684514 251.2141074188771 L 292.1502786638354 251.2073183431265 L 292.14232884630496 251.18714445858163 L 292.1397064257375 251.18034479451057 L 292.1320293076533 251.15999838582624 L 292.1295168937628 251.15319065959034 L 292.12211371185697 251.13267358186482 L 292.1197107528013 251.1258602713453 L 292.1125827438062 251.10517437967684 L 292.1102886163971 251.09835791243268 L 292.10343701704477 251.0775050619196 L 292.10125102990185 251.07068781331324 L 292.0946770769245 251.04966985905378 L 292.0925984736629 251.04285415059343 L 292.08630340379267 251.02167294768586 L 292.08433136622335 251.0148610455547 L 292.0783164161925 250.99351844909734 L 292.07645006752773 250.9867125628813 L 292.07071647406843 250.96521042797238 L 292.0689548821179 250.9584127095658 L 292.0635038819623 250.9367528913036 L 292.0618460623088 250.9299654339868 L 292.0566788921891 250.9081497874696 L 292.0551238113424 250.9013746251788 L 292.0502417079908 250.87940500550485 L 292.04878828649856 250.8726441122469 L 292.04419248664715 250.8505223745145 L 292.04283960216395 250.8437776639483 L 292.038531342545 250.82150566325572 L 292.0372778328495 250.81477898843133 L 292.0332583501952 250.79235857987686 L 292.03210301614564 250.78565173310236 L 292.02837354718815 250.76308477178424 L 292.0273151556152 250.7563994846426 L 292.0238769370867 250.73368782565913 L 292.02291422361367 250.72702576914077 L 292.0197684922463 250.70417126759023 L 292.0189001640356 250.69753405235443 L 292.0160481565616 250.67453856333506 L 292.015272894981 250.6679277400792 L 292.0127158481326 250.64479311868928 L 292.01203231133894 250.63821017861804 L 292.00977146184823 250.61493827995588 L 292.00917828728603 250.60838465535474 L 292.0072148718852 250.58497733451858 L 292.0067106786964 250.57845439940556 L 292.0050459341177 250.55491351149368 L 292.00462932546316 250.54842258236692 L 292.0032644884387 250.52474998247763 L 292.00293405372736 250.5182923191142 L 292.00187036098936 250.49448986234572 L 292.00162467801727 250.4880666686937 L 292.0008633662979 250.46413621014435 L 292.00070100329395 250.45774863525125 L 292.0002433093254 250.43369203001924 L 292.000162826906 250.42734116903003 L 292.0000099874204 250.40316027221368 L 292.00033336527235 250.40315822824877 L 292.00002125490664 250.39538974459478 L 292.0029116418247 250.3461189813882 L 292.0157050178871 250.22809154860718 L 292.0163585301351 250.22237018682046 L 292.0304912871513 250.1046568840138 L 292.031209104057 250.09895515169276 L 292.0466738216337 249.98156401761966 L 292.04745540562277 249.97588288362903 L 292.06424466336705 249.85882195704866 L 292.06508946117435 249.85316235837035 L 292.08319583869303 249.7364396780419 L 292.0841032827816 249.73080251966329 L 292.1035193596816 249.61442612434598 L 292.1044888696438 249.60881227922619 L 292.125207225532 249.49279020767915 L 292.1262382094718 249.4872005167809 L 292.1482514239552 249.37154080776335 L 292.1493432798478 249.3659760801562 L 292.1726439325332 249.25068677242737 L 292.17379604955835 249.24514778545353 L 292.1761903442728 249.2339548245787 L 292.06364175133695 249.2596964269254 L 292.0589783505506 249.26078654665835 L 291.792759174812 249.32436426857703 L 291.78799486661137 249.32552679380964 L 291.6774029569496 249.35308734918277 L 291.67880643751874 249.4019757082046 L 291.67890660799503 249.4060413917368 L 291.6833402928695 249.62159288668838 L 291.68340612322595 249.6255581274723 L 291.6860366525782 249.83374859247328 L 291.6860705541287 249.83761502976182 L 291.68705375621386 250.03821195916194 L 291.6870580238306 250.0419810124044 L 291.6865497269036 250.2347519005533 L 291.6865265522757 250.2384247176601 L 291.68468258459154 250.42313705890749 L 291.68463407112 250.4267144476871 L 291.68161026093367 250.60313573638265 L 291.6815384411129 250.60661807149432 L 291.6774906166794 250.7745158019877 L 291.6773974732641 250.7779028957069 L 291.6724814628384 250.9370445623478 L 291.67236895582283 250.9403354807758 L 291.66674058766006 251.09048857791387 L 291.6666106903184 251.0936813729839 L 291.66042579267344 251.23461339496887 L 291.6602805420253 251.2377047028242 L 291.6536949431532 251.36918314400575 L 291.6535365140213 251.3721675643745 L 291.6467060421771 251.49395991910228 L 291.6465368611396 251.496829021878 L 291.63961734457826 251.60870278450167 L 291.63944027416676 251.6114434528128 L 291.6325875411432 251.7131661176821 L 291.6324061939488 251.71575764538653 L 291.6257760727181 251.8070967068511 L 291.62559538053983 251.80950540153725 L 291.61934369935705 251.89022835394675 L 291.61917102144787 251.89239672644996 L 291.6134536085679 251.96227106415412 L 291.61330109080944 251.96409399909058 L 291.6082737744874 252.02288721643905 L 291.6081639858438 252.0241522426111 L 291.6039825943346 252.07163183395357 L 291.6008890795108 252.10659249267385 L 291.59949203369354 252.12328113774856 L 291.5991508341354 252.12912807549412 L 291.5944326351863 252.1744067823708 L 291.59124969879247 252.1955573761567 L 291.59008168531955 252.2029430932342 L 291.58659513117493 252.2239693954359 L 291.5853164669386 252.23133864588877 L 291.58152876850744 252.25223880140786 L 291.5801398427839 252.2595889804828 L 291.57605347353075 252.28036113422095 L 291.57455475059066 252.28768968057062 L 291.57017218397976 252.30833197742965 L 291.56856420012383 252.31563637635756 L 291.56388790961955 252.3361469612391 L 291.5621712700583 252.34342474772487 L 291.55720372912504 252.36380176553072 L 291.5553791047242 252.37105052700707 L 291.5501227868263 252.39129212263893 L 291.5481909107397 252.39850950150384 L 291.54264828934157 252.41861381986345 L 291.54060995354564 252.4257975157419 L 291.53478350211157 252.44576270173096 L 291.53263955386416 252.4529104734679 L 291.5265317458586 252.47273467198815 L 291.52428308409515 252.47984433939286 L 291.5178963929824 252.49952569534602 L 291.51554396467964 252.50659514064571 L 291.5088808639241 252.5261317989335 L 291.5064256604317 252.53315896800018 L 291.4994886234977 252.55254907352435 L 291.49693167687496 252.55953197681117 L 291.48972317722695 252.57877367447344 L 291.4870655565825 252.5857103877261 L 291.47958806768474 252.6048018224282 L 291.47683087555396 252.61169048712205 L 291.46908687087085 252.6306298037657 L 291.4662312396314 252.63746862731858 L 291.4582231926273 252.6562539708055 L 291.455270280974 252.66304122655401 L 291.4470006651133 252.68167074178592 L 291.44395165460816 252.68840476873123 L 291.4354229433552 252.70687660060983 L 291.43227903506227 252.7135558029497 L 291.42349370188145 252.73186809637681 L 291.4202561130949 252.73849094284026 L 291.41121663145066 252.7566418427175 L 291.40788659253565 252.76320686569488 L 291.39859543589216 252.78119451692405 L 291.3951741872454 252.7877003114118 L 291.38563382906716 252.8055228588946 L 291.3821226181949 252.81196808128615 L 291.3723355319462 252.8296236699243 L 291.3687356106888 252.83600703661781 L 291.3587042698341 252.85349381131303 L 291.35501689172094 252.8598140971945 L 291.3447437697245 252.87713020284852 L 291.3409701874867 252.8833862396195 L 291.33045775781295 252.90052982113406 L 291.32659922103926 252.9067204955333 L 291.3158499571525 252.92368969781015 L 291.3119077101092 252.92981394971272 L 291.3009240854739 252.94660691765353 L 291.296899365077 252.95266373808332 L 291.28568385315754 252.96927861658983 L 291.281577887112 252.97526704563765 L 291.2701329613726 252.9917019796116 L 291.26594696647595 252.99762110427875 L 291.25427510038105 253.0138742386219 L 291.25001028098404 253.0197231906116 L 291.23811394799804 253.0357926702256 L 291.2337714946365 253.04157062367318 L 291.2216531682237 253.05745459345982 L 291.21723425641306 253.063160762626 L 291.20489641003786 253.078857367487 L 291.20040219922714 253.0844910044243 L 291.18784730635394 253.09999838926134 L 291.183278939042 253.1055587814615 L 291.1705094731351 253.12087509117632 L 291.1658680741507 253.1263615592014 L 291.15288650867444 253.14148493869578 L 291.14817318460433 253.14689683382008 L 291.1349819930232 253.16182542799567 L 291.1301978317996 253.1671621298495 L 291.1167994875779 253.18189408360809 L 291.1119455582102 253.18715499784597 L 291.0983425348122 253.20168845608924 L 291.09341988727954 253.2068730120679 L 291.07961465816976 253.2212061196976 L 291.07462432343016 253.22631376821593 L 291.0606193620729 253.2404446701338 L 291.0555623522376 253.24547488118472 L 291.0413601320972 253.25940172229244 L 291.0362374407216 253.2643539828811 L 291.02184043526245 253.27807490808044 L 291.0166530377732 253.28294872008897 L 291.00206372045966 253.29646187428165 L 290.99681257470496 253.30125675239714 L 290.9820334190014 253.31456028048487 L 290.9767194659186 253.3192757501944 L 290.9617529452894 253.33236779707892 L 290.9563771096956 253.3370033927296 L 290.94122569760515 253.34988210331264 L 290.93578888908155 253.35443736626235 L 290.9204550589941 253.3671008854456 L 290.91495817289814 253.37157536227505 L 290.89944439827815 253.38402183496027 L 290.893888316831 253.3884150757916 L 290.87819707114284 253.40064264688053 L 290.8725826646264 253.40495420377314 L 290.8567164213344 253.41696101816746 L 290.8510445493745 253.42119044360973 L 290.835005781943 253.4329746462112 L 290.82927729487193 253.4371214917136 L 290.81306847676535 253.44868122742395 L 290.8072842170651 253.4527450422112 L 290.7909078217478 253.46407845593214 L 290.78506862556674 253.46805878573852 L 290.76852712650305 253.47916402237175 L 290.7626338252405 253.4830604083436 L 290.7557520565608 253.48754077603004 L 290.95726446029937 253.42265023449986 Z" id="element_299" /></svg>