<?xml version='1.0' encoding='utf-8'?>
<svg xmlns:svg="http://www.w3.org/2000/svg" version="1.1" id="Layer_1" x="0px" y="0px" viewBox="0 0 500 500" style="width: 188px;" xml:space="preserve" data-imageid="brainstorming-31" imageName="Brainstorming" class="illustrations_image"><svg:style type="text/css">
	.st0_brainstorming-31{fill:#68E1FD;}
	.st1_brainstorming-31{fill:#FFFFFF;}
	.st2_brainstorming-31{fill:#231F20;}
	.st3_brainstorming-31{fill:#D1D3D4;}
</svg:style><svg:path class="st1_brainstorming-31" d="M 392.5 342.6998282712101 L 392.5 342.7 L 349.14717622243626 342.7 L 356.6871762224363 353.3 L 385.2 353.3 L 385.2037889001007 353.30001435597006 L 385.21587929697836 353.3001059772126 L 385.22347921733467 353.30022134330176 L 385.2355071592371 353.3004953825412 L 385.24312878018844 353.30072718806673 L 385.2550930303835 353.3011824085709 L 385.26273377593554 353.3015316719764 L 385.274633097691 353.3021668370132 L 385.2822903642797 353.3026345047729 L 385.29412352086337 353.30344837761004 L 385.3017946804423 353.3040353234318 L 385.31356043512204 353.30502666733713 L 385.32124283821054 353.3057336915241 L 385.3329399542542 353.30690126976543 L 385.3406309330336 353.30772909874287 L 385.3522581737089 353.30907167458804 L 385.359955045054 353.31002096058484 L 385.3715111736288 353.31153729730164 L 385.37921124214597 353.31260861819095 L 385.39069502188806 353.31429747904724 L 385.3983955828896 353.31549133833676 L 385.4098057770668 353.31735148660033 L 385.41750411951756 353.31866831357337 L 385.4288394913978 353.3206985125121 L 385.43653290078095 353.3221386625075 L 385.44779221363194 353.3243376753891 L 385.45547797477195 353.3259014302225 L 385.4666599918615 353.3282680203148 L 385.47433539164115 353.32995558882413 L 385.48543887623714 353.33248851939504 L 385.493101206246 353.3343000381116 L 385.50412492161627 353.33699807242886 L 385.5117714807173 353.33893360636614 L 385.52271419012953 353.3417955076976 L 385.5303422868844 353.3438550512361 L 385.54120275360646 353.34687958284957 L 385.54880970865133 353.3490630607329 L 385.55958669595117 353.35224898589615 L 385.56716984421735 353.3545562543041 L 385.5778621153626 353.357902336285 L 385.58541880819985 353.3603331839904 L 385.5960251264584 353.36383818605674 L 385.6035527336467 353.36639233565285 L 385.6140718622865 353.3700550210725 L 385.6215677739054 353.3727321302542 L 385.63199847619404 353.3765512622949 L 385.63946010439577 353.3793509251968 L 385.6498011436012 353.38332526712645 L 385.6572259242391 353.3862470156945 L 385.6674760636291 353.39037533078084 L 385.6748614577806 353.39341863618034 L 385.68501946062304 353.3976996876913 L 385.69236295596903 353.40086396172677 L 385.70242758553167 353.4052965129301 L 385.7097266976302 353.4085811094825 L 385.71969671718085 353.4131639236459 L 385.72694899063475 353.4165681401173 L 385.7368231634413 353.4212999805088 L 385.74402617290093 353.4248230592379 L 385.7538032622311 353.4297026891252 L 385.7609546133542 353.4333438188191 L 385.7706333824759 353.43837000147 L 385.7777307127274 353.44212831858835 L 385.7873099249084 353.4472998172707 L 385.79435090428143 353.45117440739017 L 385.8038293227895 353.45648998537183 L 385.8108116544117 353.46047988450243 L 385.82018804251476 353.46593830505117 L 385.8271094632041 353.4700425009314 L 385.8363825841699 353.475642527315 L 385.84324086485526 353.47985996062823 L 385.85240948195167 353.48560035611456 L 385.85920242806236 353.48992992167626 L 385.8682653045571 353.49580944953317 L 385.8749907562995 353.50024999739315 L 385.8839466554605 353.5062674208884 L 385.8906024880856 353.51081775740215 L 385.89945017318064 353.51697183980355 L 385.90603429714713 353.52163072860566 L 385.914772531444 353.527920233181 L 385.92128289257107 353.5326863961126 L 385.92991043933756 353.5391100861298 L 385.9363450188906 353.5439822040752 L 385.9448606413946 353.550538842802 L 385.9512174561851 353.5555155564858 L 385.9596199176944 353.56220390719005 L 385.9658970201078 353.5672838178655 L 385.9741850838902 353.57410264381497 L 385.98038056193985 353.5792843139099 L 385.9885529912632 353.58623237837253 L 385.9946649686146 353.5915143320464 L 386.00272052674666 353.5985903982899 L 386.00874716276786 353.60397112194136 L 386.0166846129765 353.6111739532336 L 386.0226241027739 353.6166518959214 L 386.03044220832686 353.6239802555301 L 386.03629278282347 353.6295538293525 L 386.0439903069887 353.6370064805456 L 386.0497502330098 353.6426740609449 L 386.05732593905503 353.65024976699016 L 386.0629935194543 353.65600969301124 L 386.0704461706474 353.66370721717647 L 386.07601974447107 353.6695577916744 L 386.0833481040798 353.6773758972274 L 386.0888260467664 353.6833153870236 L 386.09602887805863 353.6912528372322 L 386.1014096017098 353.6972794732531 L 386.10848566795335 353.70533503138523 L 386.1137676216287 353.71144700873833 L 386.1207156860913 353.71961943806167 L 386.1258973561836 353.7258149161082 L 386.13271618213315 353.7341029798906 L 386.13779609281016 353.74038008230593 L 386.1444844435144 353.7487825438152 L 386.1494611571966 353.7551393586036 L 386.15601779592345 353.7636549811076 L 386.1608899138723 353.7700895606653 L 386.1673136038895 353.7787171074319 L 386.17207976681794 353.78522746855475 L 386.1783692713933 353.79396570285155 L 386.18302816019633 353.8005498268193 L 386.1891822425977 353.8093975119143 L 386.1937325791103 353.81605334453764 L 386.1997500026056 353.8250092436986 L 386.20419055046875 353.8317346954459 L 386.2100700783256 353.8407975719407 L 386.2143996438846 353.8475905180472 L 386.2201400393709 353.85675913514353 L 386.22435747268554 353.8636174158312 L 386.22995749906914 353.872890536797 L 386.2340616949487 353.87981195748523 L 386.23952011549744 353.8891883455883 L 386.2435100146292 353.89617067721247 L 386.2488255926108 353.90564909572055 L 386.252700182728 353.91269007508953 L 386.2578716814104 353.9222692872705 L 386.2616299985299 353.92936661752407 L 386.2666561811808 353.9390453866458 L 386.2702973108747 353.9461967377689 L 386.275176940762 353.95597382709906 L 386.27870001949253 353.96317683656184 L 386.283431859884 353.9730510093684 L 386.2868360763525 353.98030328281607 L 386.29141889051596 353.9902733023667 L 386.29470348707116 353.99757241447145 L 386.2991360382744 354.00763704403414 L 386.30230031230815 354.01498053937604 L 386.3065813638191 354.02513854221843 L 386.3096246692184 354.03252393636956 L 386.3137529843048 354.0427740757596 L 386.31667473287393 354.0501988564002 L 386.32064907480355 354.0605398956056 L 386.3234487377052 354.06800152380674 L 386.3272678697459 354.07843222609546 L 386.329944978927 354.08592813771276 L 386.3336076643467 354.09644726635247 L 386.33616181394336 354.1039748735423 L 386.3396668160097 354.11458119180094 L 386.3420976637148 354.1221378846374 L 386.3454437456957 354.1328301557827 L 386.3477510141035 354.1404133040482 L 386.3509369392668 354.151190291348 L 386.3531204171504 354.15879724639416 L 386.35614494876387 354.1696577131163 L 386.35820449230283 354.1772858098729 L 386.36106639363425 354.18822851928513 L 386.36300192757017 354.1958750783808 L 386.36569996188746 354.206898793751 L 386.3675114806053 354.2145611237652 L 386.37004441117614 354.22566460836117 L 386.3717319796851 354.233340008139 L 386.3740985697774 354.2445220252286 L 386.3756623246107 354.2522077863681 L 386.3778613374923 354.2634670992191 L 386.3793014874876 354.2711605086018 L 386.38133168642634 354.282495880482 L 386.3826485133995 354.29019422293356 L 386.38450866166306 354.30160441711087 L 386.3857025209525 354.309304978112 L 386.3873913818088 354.3207887578541 L 386.3884627026981 354.32848882637126 L 386.3899790394149 354.34004495494605 L 386.3909283254117 354.34774182629116 L 386.3922709012569 354.35936906696645 L 386.3930987302343 354.36706004574563 L 386.39426630847566 354.3787571617892 L 386.39497333266263 354.38643956487795 L 386.395964676568 354.3982053195577 L 386.3965516223897 354.4058764791368 L 386.39736549522684 354.41770963572054 L 386.3978331629867 354.42536690231145 L 386.3984683280234 354.4372662240669 L 386.3988175914288 354.44490696961657 L 386.399272811933 354.4568712198116 L 386.3995046174585 354.46449284076294 L 386.39977865669795 354.4765207826654 L 386.3998940227871 354.4841207030217 L 386.39998564402964 354.49621109989937 L 386.3996691941963 354.49621349796183 L 386.3999856440299 354.5037889001007 L 386.3998940227874 354.51587929697837 L 386.39977865669823 354.5234792173347 L 386.3995046174588 354.5355071592371 L 386.39927281193326 354.54312878018845 L 386.39881759142907 354.5550930303835 L 386.39846832802357 354.56273377593556 L 386.3978331629868 354.574633097691 L 386.39736549522706 354.5822903642797 L 386.39655162238995 354.5941235208634 L 386.3959646765682 354.6017946804423 L 386.39497333266286 354.61356043512205 L 386.3942663084759 354.62124283821055 L 386.39309873023456 354.6329399542542 L 386.3922709012571 354.6406309330336 L 386.39092832541195 354.6522581737089 L 386.38997903941515 354.659955045054 L 386.38846270269835 354.6715111736288 L 386.38739138180904 354.679211242146 L 386.38570252095275 354.6906950218881 L 386.3845086616633 354.6983955828892 L 386.3826485133997 354.7098057770665 L 386.38133168642656 354.7175041195181 L 386.37930148748785 354.7288394913983 L 386.3778613374925 354.73653290078096 L 386.3756623246109 354.74779221363195 L 386.37409856977763 354.75547797477145 L 386.3717319796853 354.76665999186105 L 386.37004441117637 354.7743353916389 L 386.3675114806055 354.7854388762349 L 386.3656999618877 354.79310120624905 L 386.3630019275704 354.80412492161923 L 386.3610663936345 354.8117714807149 L 386.35820449230306 354.82271419012716 L 386.3561449487641 354.83034228688376 L 386.35312041715065 354.8412027536059 L 386.350936939267 354.8488097086521 L 386.3477510141037 354.85958669595186 L 386.3454437456962 354.8671698442166 L 386.34209766371526 354.87786211536195 L 386.3396668160089 354.88541880820225 L 386.3361618139425 354.8960251264608 L 386.33360766434686 354.9035527336476 L 386.3299449789272 354.9140718622873 L 386.3272678697461 354.9215677739046 L 386.32344873770535 354.9319984761933 L 386.32064907480407 354.9394601043936 L 386.31667473287445 354.9498011435991 L 386.31375298430464 354.9572259242414 L 386.30962466921824 354.9674760636314 L 386.30658136381965 354.97486145778066 L 386.3023003123087 354.9850194606231 L 386.2991360382742 354.9923629559669 L 386.29470348707093 355.0024275855295 L 386.2914188905166 355.00972669763235 L 386.2868360763531 355.019696717183 L 386.2834318598837 355.0269489906327 L 386.27870001949225 355.03682316343924 L 386.27517694076266 355.0440261729 L 386.2702973108754 355.0538032622302 L 386.26665618118045 355.0609546133554 L 386.26162999852954 355.07063338247707 L 386.25787168141056 355.07773071272953 L 386.2527001827282 355.0873099249105 L 386.2488255926116 355.0943509042784 L 386.24351001463 355.1038293227865 L 386.2395201154976 355.1108116544118 L 386.2340616949489 355.1201880425149 L 386.22995749906863 355.12710946320425 L 386.224357472685 355.13638258417 L 386.2201400393718 355.1432408648554 L 386.2143996438855 355.1524094819518 L 386.2100700783246 355.1592024280613 L 386.2041905504677 355.1682653045561 L 386.1997500026069 355.1749907562997 L 386.19373257911167 355.18394665546066 L 386.1891822425979 355.1906024880858 L 386.1830281601965 355.1994501731808 L 386.1783692713944 355.2060342971473 L 386.172079766819 355.21477253144417 L 386.16731360388746 355.22128289257125 L 386.1608899138702 355.22991043933774 L 386.15601779592487 355.2363450188908 L 386.14946115719806 355.2448606413948 L 386.1444844435143 355.25121745618526 L 386.13779609281 355.2596199176946 L 386.1327161821346 355.26589702010796 L 386.1258973561851 355.27418508389036 L 386.12071568609014 355.28038056194004 L 386.1137676216275 355.2885529912634 L 386.10848566795363 355.29466496861477 L 386.10140960171015 355.30272052674684 L 386.09602887806 355.30874716276656 L 386.0888260467678 355.3166846129752 L 386.08334810407996 355.32262410277275 L 386.07601974447124 355.3304422083258 L 386.0704461706476 355.3362927828237 L 386.0629935194545 355.3439903069889 L 386.0573259390552 355.34975023301 L 386.04975023300995 355.3573259390553 L 386.04399030698886 355.36299351945456 L 386.03629278282364 355.37044617064765 L 386.0304422083271 355.37601974447 L 386.02262410277405 355.3833481040788 L 386.01668461297515 355.3888260467679 L 386.0087471627665 355.3960288780601 L 386.00272052674677 355.40140960171027 L 385.9946649686147 355.40848566795376 L 385.9885529912633 355.41376762162764 L 385.98038056193997 355.42071568609026 L 385.9741850838932 355.4258973561828 L 385.96589702011084 355.43271618213237 L 385.95961991769457 355.4377960928102 L 385.95121745618525 355.44448444351445 L 385.94486064139477 355.44946115719824 L 385.9363450188908 355.45601779592505 L 385.92991043933773 355.4608899138704 L 385.92128289257124 355.46731360388765 L 385.91477253144416 355.4720797668192 L 385.9060342971473 355.47836927139457 L 385.8994501731826 355.48302816019543 L 385.89060248808755 355.4891822425969 L 385.88394665546065 355.4937325791119 L 385.87499075629967 355.49975000260713 L 385.86826530455727 355.5041905504671 L 385.85920242806253 355.510070078324 L 385.85240948195184 355.5143996438857 L 385.84324086485543 355.52014003937205 L 385.8363825841689 355.52435747268595 L 385.8271094632031 355.52995749906955 L 385.820188042516 355.53406169494843 L 385.810811654413 355.53952011549717 L 385.8038293227897 355.54351001462845 L 385.7943509042816 355.5488255926101 L 385.78730992491063 355.5527001827285 L 385.77773071272964 355.55787168141086 L 385.7706333824761 355.56162999853035 L 385.7609546133544 355.56665618118126 L 385.75380326223126 355.57029731087516 L 385.7440261729011 355.57517694076245 L 385.7368231634383 355.578700019493 L 385.72694899063174 355.58343185988446 L 385.7196967171841 355.58683607635294 L 385.70972669763347 355.5914188905164 L 385.70242758553184 355.59470348707026 L 385.6923629559692 355.59913603827357 L 385.6850194606232 355.60230031230907 L 385.67486145778076 355.60658136382 L 385.6674760636315 355.6096246692186 L 385.6572259242415 355.613752984305 L 385.6498011436014 355.61667473287395 L 385.63946010439594 355.6206490748036 L 385.6319984761942 355.6234487377055 L 385.62156777390555 355.6272678697462 L 385.6140718622852 355.6299449789284 L 385.6035527336455 355.633607664348 L 385.59602512646023 355.6361618139431 L 385.5854188082016 355.6396668160095 L 385.57786211536506 355.64209766371465 L 385.5671698442198 355.6454437456956 L 385.559586695952 355.64775101410413 L 385.54880970865224 355.6509369392674 L 385.54120275360606 355.65312041715106 L 385.5303422868839 355.6561449487645 L 385.5227141901297 355.65820449230284 L 385.51177148071747 355.6610663936343 L 385.50412492161644 355.6630019275716 L 385.4931012062462 355.66569996188883 L 385.4854388762379 355.6675114806053 L 385.47433539164194 355.6700444111762 L 385.4666599918612 355.6717319796858 L 385.4554779747716 355.6740985697781 L 385.4477922136345 355.6756623246109 L 385.4365329007835 355.6778613374926 L 385.42883949139605 355.6793014874888 L 385.41750411951585 355.6813316864274 L 385.40980577706944 355.6826485133997 L 385.3983955828922 355.68450866166336 L 385.39069502188795 355.6857025209533 L 385.3792112421458 355.6873913818096 L 385.37151117362896 355.68846270269887 L 385.35995504505416 355.6899790394157 L 385.35225817371145 355.6909283254122 L 385.34063093303615 355.6922709012574 L 385.3329399542546 355.69309873023514 L 385.321242838211 355.6942663084765 L 385.31356043512227 355.69497333266344 L 385.3017946804425 355.6959646765688 L 385.294123520866 355.69655162239036 L 385.2822903642823 355.69736549522753 L 385.2746330976888 355.69783316298754 L 385.2627337759334 355.69846832802426 L 385.25509303038604 355.6988175914296 L 385.243128780191 355.69927281193384 L 385.23550715923733 355.6995046174594 L 385.2234792173349 355.69977865669887 L 385.2158792969786 355.69989402278804 L 385.2037889001009 355.69998564403056 L 385.2 355.69983509037644 L 385.2 355.7 L 358.394346033757 355.7 L 369.4866287889898 371.2939253588153 L 369.6670123559204 371.296722799296 L 370.29999999999984 371.29999332606366 L 370.9329876440794 371.296722799296 L 371.56344402498144 371.2869454995604 L 372.19128952990525 371.27071277207654 L 372.8164427776909 371.2480760037881 L 373.4388223583037 371.21908661598593 L 374.0583468335293 371.1837960659345 L 374.67493473762784 371.1422558485258 L 375.28850457796653 371.0945174979653 L 375.8989748357949 371.0406325894826 L 376.50626396689637 370.98065274108944 L 377.1102904023977 370.914629615367 L 377.7109725495428 370.84261492130236 L 378.30822879251497 370.76466041617095 L 378.9019774933035 370.68081790746925 L 379.49213699260986 370.5911392549028 L 380.07862561083937 370.49567637242643 L 380.6613616490669 370.3944812303583 L 381.2402633901642 370.2876058575438 L 381.81524909992453 370.1751023435986 L 382.38623702830114 370.0570228412175 L 382.9531454107202 369.9334195685583 L 383.5158924694786 369.80434481170676 L 384.0743964152914 369.66985092720876 L 384.6285754488848 369.52999034470133 L 385.1783477628032 369.3848155696056 L 385.7236315432753 369.2343791859236 L 386.26434497230713 369.0787338591013 L 386.8004062299029 368.91793233898574 L 387.33173349650355 368.7520274628568 L 387.8582449555963 368.58107215854886 L 388.37985879660727 368.4051194476307 L 388.89649321797026 368.2242224486797 L 389.40806643055237 368.0384343805904 L 389.91449666126704 367.84780856597706 L 390.41570215711187 367.6523984345839 L 390.91160118948375 367.4522575267542 L 391.4021120588866 367.2474394969101 L 391.88715310005006 367.03799811703175 L 392.3666426874848 366.82398728011424 L 392.8404992415019 366.60546100358073 L 393.3086412347452 366.38247343261736 L 393.7709871992403 366.15507884340985 L 394.2274557340706 365.92333164620936 L 394.67796551362636 365.68728638822597 L 395.1224352965135 365.4469977562782 L 395.5607839352113 365.2025205791112 L 395.9929303863782 364.9539098293938 L 396.41879372200077 364.70122062523785 L 396.8382931413339 364.4445082312008 L 397.2513479836661 364.18382805868487 L 397.6578777419817 363.91923566560274 L 398.0578020775254 363.65078675520874 L 398.4510408352592 363.3785371739905 L 398.83751406030586 363.1025429084287 L 399.21714201527743 362.82286008054405 L 399.58984519855625 362.53954494201986 L 399.95554436351614 362.25265386670986 L 400.31416053852314 361.96224334143824 L 400.6656150478483 361.6683699547435 L 401.0098295332277 361.37109038349627 L 401.3467259760816 361.0704613770764 L 401.6762267202095 360.7665397389151 L 401.99825449476447 360.4593823051944 L 402.3127324373645 360.1490459204069 L 402.6195841170128 359.83558740962076 L 402.91873355660425 359.5190635471553 L 403.21010525457757 359.199531021561 L 403.4936242054224 358.877046396615 L 403.76921591850595 358.5516660682744 L 404.03680643474337 358.223446217453 L 404.2963223405515 357.89244275857874 L 404.547690778458 357.5587112839692 L 404.7908394537214 357.2223070041124 L 405.0256966362242 356.8832846840996 L 405.2521911569484 356.54169857646826 L 405.4702523982233 356.19760235097226 L 405.67981027704553 355.8510490217795 L 405.88079522068097 355.5020908729048 L 406.0731381338848 355.15077938272105 L 406.2567703571124 354.79716514859547 L 406.43162361515846 354.4412978129381 L 406.59762995590114 354.0832259919092 L 406.75472167886215 353.7229972084247 L 406.9028312536141 353.360657830998 L 407.04189122823374 352.9962530201906 L 407.1718341283043 352.62982668440566 L 407.2925923472337 352.2614214468444 L 407.4040980290063 351.8910786252635 L 407.50628294474245 351.51883822623086 L 407.599078364811 351.1447389552034 L 407.68241492847733 350.7688182436656 L 407.75622251336307 350.39111229410634 L 407.82043010716706 350.01165614335883 L 407.87496568426167 349.6304837442894 L 407.91975608982636 349.24762806541787 L 407.95472693416707 348.86312120750324 L 407.97980249973835 348.476994535737 L 407.99490566319713 348.089278825541 L 407.9999578950327 347.69999975480766 L 407.9949056251904 347.3106883332398 L 407.97980212251656 346.9228764518333 L 407.9547256275952 346.536591161375 L 407.91975299268074 346.1518646509589 L 407.8749596861773 345.7687297340021 L 407.820419874133 345.38721998997266 L 407.7562065160911 345.00736989202926 L 407.6823914729239 344.62921491872487 L 407.59904562411407 344.2527916485813 L 407.50623899183483 343.8781378366713 L 407.40404086920074 343.50529247295367 L 407.29251995012436 343.1342958224495 L 407.1717444584043 342.7651894479142 L 407.04178227383886 342.39801621582643 L 406.90270105348515 342.03282028703643 L 406.7545683463983 341.6696470934012 L 406.5974517005897 341.30854330217574 L 406.4314187611438 340.94955676972694 L 406.25653735884623 340.5927364864651 L 406.07287558887464 340.23813251465265 L 405.8805018793898 339.88579592077883 L 405.67948505013294 339.5357787041574 L 405.46989436123636 339.1881337231033 L 405.2517995527236 338.8429146201117 L 405.0252708751987 338.5001757471201 L 404.7903791123924 338.15997209190516 L 404.54719559624925 337.8223592064322 L 404.2957922153058 337.48739313786484 L 404.03624141708315 337.1551303627395 L 403.7686162052941 336.8256277247906 L 403.49299013248077 336.4989423765763 L 403.2094372889076 336.1751317252594 L 402.9180322882461 335.85425338249473 L 402.6188502506759 335.5363651184708 L 402.3119667839855 335.221524820093 L 401.99745796311004 334.9097904531416 L 401.6754003085719 334.6012200282888 L 401.345870764193 334.2958715707782 L 401.0089466744276 333.9938030935807 L 400.6647057615536 333.69507257376466 L 400.31322610306495 333.39973793194645 L 399.95458610930825 333.1078570144526 L 399.58886450170087 332.8194875781161 L 399.2161402915098 332.53468727735503 L 398.8364927593988 332.2535136534058 L 398.45000143576823 331.97602412546047 L 398.05674608194863 331.7022759835199 L 397.6568066723096 331.4323263827969 L 397.2502633772407 331.1662323394544 L 396.83719654711973 330.9040507275945 L 396.4176866971534 330.6458382772773 L 395.991814493084 330.39165157344365 L 395.5596607379107 330.1415470557251 L 395.1213063592961 329.89558101884376 L 394.676832397933 329.6538096136887 L 394.22631999663554 329.4162888488578 L 393.76985039020246 329.183074592636 L 393.3075048959907 328.9542225753232 L 392.83936490517345 328.7297883918568 L 392.36551187464823 328.50982750467284 L 391.88602731951744 328.29439524673893 L 391.4009928061659 328.08354682474476 L 390.9104899458275 327.8773373223801 L 390.41460038870446 327.67582170371014 L 389.9134058184661 327.4790548165627 L 389.406987947231 327.287091395958 L 388.8954285109433 327.0999860675374 L 388.3788092650614 326.9177933509537 L 387.85721198063897 326.7405676632494 L 387.3307184406854 326.56836332217915 L 386.79941043685295 326.40123454948963 L 386.26336976629693 326.2392354741093 L 385.72267822890103 326.0824201353081 L 385.1774176246113 325.93084248574837 L 384.6276697510225 325.78455639447577 L 384.07351640118134 325.64361564983915 L 383.51503936149305 325.508073962312 L 382.9523204097868 325.37798496723644 L 382.3854413136088 325.2534022275081 L 381.8144838284882 325.13437923614555 L 381.23952969650446 325.0209694188238 L 380.6606606447574 324.91322613629 L 380.07795838411846 324.81120268674255 L 379.49150460791327 324.7149523081115 L 378.9013809907925 324.6245281802906 L 378.30766918759383 324.5399834272918 L 377.7104508323395 324.46137111934945 L 377.1098075371662 324.3887442749498 L 376.5058208914961 324.32215586283087 L 375.8985724610383 324.261658803905 L 375.2881437869925 324.20730597315304 L 374.6746163852068 324.1591502014659 L 374.05807174540934 324.11724427744997 L 373.43859133043287 324.08164094919283 L 372.81625657546977 324.05239292599714 L 372.19114888740927 324.0295528800882 L 371.5633496441216 324.01317344829096 L 370.9329401938011 324.0033072336867 L 370.29739280956676 323.99999320251203 L 370.29462069214503 323.9999710622098 L 370.0624317732972 323.9974728862763 L 369.8314198837829 323.9960162416825 L 369.60047412527234 323.99558792371994 L 369.3695975446355 323.9961867130833 L 369.1387931892699 323.99781139066494 L 368.9080641070051 324.00046073754675 L 368.67741334610963 324.0041335349927 L 368.4468439553702 324.0088285644396 L 368.21635898401087 324.0145446074904 L 367.98596148170003 324.02128044590637 L 367.7556544985788 324.02903486159875 L 367.52544108520107 324.03780663662315 L 367.29532429265 324.04759455316736 L 367.0653071723827 324.05839739355025 L 366.83539277630905 324.07021394021103 L 366.6055841568128 324.08304297570095 L 366.3758843667066 324.0968832826779 L 366.146296459207 324.111733643901 L 365.91682348799554 324.12759284221994 L 365.6874685071599 324.1444596605715 L 365.45823457123447 324.1623328819697 L 365.22912473512025 324.1812112895054 L 365.0001420542284 324.2010936663278 L 364.77128958425754 324.221978795656 L 364.5425703814522 324.24386546075067 L 364.31398750232455 324.2667524449321 L 364.0855440038981 324.290638531551 L 363.85724294353247 324.3155225039991 L 363.62908737897425 324.34140314569834 L 363.4010803683994 324.3682792400894 L 363.1732249703124 324.39614957063725 L 362.94552424364326 324.4250129208139 L 362.7179812476524 324.4548680741036 L 362.4905990420292 324.4857138139849 L 362.26338068674835 324.5175489239432 L 362.0363292421813 324.55037218745093 L 361.8094477690514 324.5841823879676 L 361.5827393284705 324.6189783089285 L 361.3562069817928 324.65475873376187 L 361.1298537908063 324.691522445854 L 360.90368281760004 324.7292682285646 L 360.6776971245633 324.76799486522185 L 360.4518997744441 324.80770113910813 L 360.2262938303027 324.848385833462 L 360.0008823554789 324.89004773147974 L 359.77566841367775 324.932685616295 L 359.550655068838 324.97629827099775 L 359.32584538523435 325.02088447861144 L 359.101242427417 325.0664430220991 L 358.8768492602612 325.11297268434913 L 358.65266894883655 325.160472248198 L 358.42870455855706 325.2089404963945 L 358.20495915508116 325.25837621161645 L 357.98143580434464 325.30877817645967 L 357.75813757250256 325.36014517344677 L 357.5350675259655 325.41247598501525 L 357.3122287314698 325.4657693934969 L 357.08962425585196 325.5200241811672 L 356.86725716631094 325.57523913017894 L 356.6451305301908 325.63141302261164 L 356.4232474150803 325.6885446404431 L 356.2016108888213 325.746632765544 L 355.9802240194052 325.80567617970064 L 355.7590898750622 325.8656736645892 L 355.5382115242158 325.92662400178403 L 355.3175920354894 325.9885259727527 L 355.0972344776801 326.0513783588607 L 354.8771419197587 326.115179941368 L 354.6573174309171 326.179929501413 L 354.4377640804476 326.24562582004455 L 354.2184849378568 326.31226767818606 L 353.9994830728192 326.37985385664604 L 353.78076155509575 326.4483831361411 L 353.56232345467777 326.51785429724896 L 353.34417184163794 326.58826612045226 L 353.1263097862025 326.659617386114 L 352.90874035872594 326.7319068744834 L 352.69146662968376 326.8051333656959 L 352.4744916696981 326.8792956397627 L 352.2578185494592 326.9543924765954 L 352.041450339796 327.03042265598026 L 351.82539011163004 327.1073849575918 L 351.6096409359521 327.1852781610002 L 351.3942058839127 327.26410104563666 L 351.1790880266503 327.3438523908545 L 350.96429043548716 327.4245309758558 L 350.7498161817326 327.5061355797629 L 350.53566833682413 327.58866498156453 L 350.3218499722189 327.67211796015556 L 350.10836415945187 327.75649329431394 L 349.89521397012464 327.8417897627036 L 349.68240247586203 327.928006143891 L 349.4699327483467 328.0151412163302 L 349.25780785928947 328.1031937583745 L 349.04603088042904 328.1921625482755 L 348.83460488353364 328.2820463641823 L 348.6235329404345 328.37284398412635 L 348.4128181228876 328.46455418608036 L 348.21125789842205 328.5533034741867 L 348.20601554113915 328.55584522317235 L 348.20231412678356 328.55762111748027 L 348.19625352072296 328.560498374903 L 348.19250839683247 328.5622574114862 L 348.18644779077187 328.56507345066586 L 348.18265904790684 328.56681470490884 L 348.17659844184624 328.56956952584545 L 348.17276620272366 328.5712920614237 L 348.166705596663 328.57398566411734 L 348.16283001712037 328.5756885338728 L 348.15676941105977 328.57832091832336 L 348.152850681004 328.5800031651953 L 348.1467900749434 328.58257433140284 L 348.1428284192641 328.5842349894217 L 348.1367678132035 328.5867449373862 L 348.13276349264504 328.58838303272995 L 348.12670288658444 328.5908317624514 L 348.122656198587 328.592446314559 L 348.1165955925264 328.5948338260375 L 348.1125068719981 328.5964238487909 L 348.1064462659375 328.59875014202623 L 348.1023158860386 328.6003146449673 L 348.096255279978 328.60257971995964 L 348.0920836527551 328.6041177096017 L 348.0860230466945 328.606321566351 L 348.08181062375616 328.607832047508 L 348.07575001769555 328.6099746860143 L 348.07149729073996 328.6114566632149 L 348.06543668467936 328.6135380834781 L 348.0611441860387 328.61499056240143 L 348.05508357997803 328.61701076442165 L 348.0507518829965 328.6184327534151 L 348.0446912769359 328.6203917371923 L 348.04032099634964 328.6217822488072 L 348.03426039028903 328.62368001434135 L 348.02985218248887 328.62503806692473 L 348.02379157642827 328.6268746142158 L 348.0193461396452 328.6281992335379 L 348.0132855335846 328.62997456258597 L 348.0088036079661 328.6312647835086 L 348.0027430019055 328.63297889431357 L 347.99822536956344 328.6342337624705 L 347.99216476350284 328.6358866550325 L 347.9876122483629 328.63710522856525 L 347.9815516423023 328.6386969028842 L 347.97696510995763 328.6398782541689 L 347.97090450389703 328.6414087102448 L 347.96628486129816 328.6425519276524 L 347.96022425523756 328.6440211654853 L 347.9555724502773 328.6451253551514 L 347.9495118442167 328.6465333747412 L 347.94482886527294 328.6475976623234 L 347.9387682592123 328.6489444636702 L 347.9340551344806 328.6499679961294 L 347.92799452842 328.6512535792332 L 347.9232523252317 328.6522355265831 L 347.9171917191711 328.65345989144384 L 347.9124215431558 328.6543994484973 L 347.9063609370952 328.65556259511504 L 347.90156393121873 328.6564589832108 L 347.89550332515813 328.65756091158545 L 347.8906806687239 328.65841338027354 L 347.8846200626633 328.6594540904052 L 347.8797729700934 328.660261919118 L 347.8737123640328 328.6612414110066 L 347.8688420836528 328.66200391066775 L 347.8627814775922 328.6629221843133 L 347.8578892902404 328.6636386989114 L 347.8518286841798 328.6644957543139 L 347.8469159017453 328.6651656624156 L 347.8408552956847 328.6659614995751 L 347.835923259518 328.66658421577955 L 347.8298626534573 328.667318834696 L 347.82491273273484 328.66789381101603 L 347.81885212667424 328.66856721168944 L 347.8138857166169 328.66909393886397 L 347.8078251105563 328.6697061212943 L 347.8028436305957 328.670184130017 L 347.7967830245351 328.6707350942043 L 347.7917879163854 328.67116395626704 L 347.7857273103248 328.6716537022113 L 347.7807200359863 328.67203303155577 L 347.7746594299257 328.67246155925704 L 347.76964146959557 328.67279101293144 L 347.76358086353497 328.67315832238967 L 347.7585537135011 328.67343760140085 L 347.7524931074405 328.67374369261603 L 347.74745827787325 328.67397254268 L 347.74139767181265 328.67421741565215 L 347.73635668453517 328.67439562783403 L 347.73029607847457 328.6745792825632 L 347.72525046466 328.67470669380555 L 347.7191898585994 328.6748291302916 L 347.7141411565094 328.67490562382704 L 347.70808055044876 328.6749668420701 L 347.70303030303023 328.67499234771964 L 347.69696969696963 328.67499234771964 L 347.69191944955105 328.6749668420701 L 347.68585884349045 328.67490562382704 L 347.6808101413958 328.67482913029147 L 347.6747495353352 328.6747066938054 L 347.66970392153 328.67457928256323 L 347.6636433154694 328.67439562783414 L 347.65860232818727 328.67421741565215 L 347.65254172212667 328.67397254268 L 347.6475068925594 328.67374369261603 L 347.6414462864988 328.67343760140085 L 347.63641913646495 328.67315832238967 L 347.63035853040435 328.67279101293144 L 347.62534057007423 328.67246155925704 L 347.61927996401363 328.67203303155577 L 347.61427268967515 328.6716537022113 L 347.60821208361455 328.67116395626704 L 347.6032169754606 328.6707350942039 L 347.59715636939995 328.67018413001654 L 347.5921748894436 328.66970612129427 L 347.586114283383 328.6690939388639 L 347.5811478733256 328.6685672116894 L 347.575087267265 328.667893811016 L 347.57013734654197 328.6673188346959 L 347.56407674048137 328.66658421577944 L 347.5591447043198 328.6659614995756 L 347.5530840982592 328.66516566241614 L 347.5481713158201 328.6644957543139 L 347.5421107097595 328.6636386989114 L 347.5372185224032 328.6629221843126 L 347.5311579163426 328.662003910667 L 347.5262876359671 328.66124141100653 L 347.5202270299065 328.66026191911794 L 347.5153799373411 328.6594540904059 L 347.5093193312805 328.65841338027434 L 347.50449667483815 328.65756091158477 L 347.4984360687775 328.6564589832101 L 347.4936390629091 328.65556259511584 L 347.4875784568485 328.6543994484981 L 347.4828082808243 328.65345989144294 L 347.4767476747637 328.65223552658216 L 347.47200547157985 328.6512535792331 L 347.46594486551925 328.64996799612936 L 347.461231740791 328.6489444636709 L 347.4551711347304 328.64759766232413 L 347.4504881557788 328.64653337474016 L 347.4444275497182 328.6451253551503 L 347.43977574476236 328.64402116548524 L 347.43371513870176 328.64255192765233 L 347.4290954961029 328.6414087102447 L 347.4230348900423 328.6398782541688 L 347.4184483576976 328.63869690288413 L 347.412387751637 328.6371052285652 L 347.4078352364971 328.63588665503244 L 347.4017746304365 328.63423376247044 L 347.3972569980956 328.63297889431385 L 347.39119639203494 328.63126478350887 L 347.38671446641524 328.6299745625859 L 347.38065386035464 328.6281992335378 L 347.3762084235716 328.62687461421575 L 347.370147817511 328.6250380669247 L 347.36573960971083 328.6236800143413 L 347.35967900365023 328.62178224880716 L 347.35530872306396 328.6203917371922 L 347.34924811700336 328.61843275341505 L 347.34491642002047 328.6170107644212 L 347.33885581395987 328.614990562401 L 347.33456331531664 328.61353808347667 L 347.32850270925604 328.6114566632134 L 347.32424998230834 328.60997468601556 L 347.31818937624774 328.6078320475093 L 347.3139769533054 328.60632156635097 L 347.3079163472448 328.60411770960167 L 347.30374472002336 328.6025797199601 L 347.2976841139627 328.60031464496774 L 347.29355373405855 328.5987501420247 L 347.28749312799795 328.5964238487893 L 347.2834044074773 328.5948338260389 L 347.2773438014167 328.5924463145605 L 347.2732971134117 328.59083176244985 L 347.2672365073511 328.58838303272836 L 347.26323218679636 328.5867449373861 L 347.25717158073576 328.5842349894216 L 347.25320992505647 328.5825743314027 L 347.24714931899587 328.5800031651952 L 347.2432305889401 328.57832091832324 L 347.2371699828795 328.57568853387266 L 347.23329440333526 328.5739856641165 L 347.22723379727466 328.57129206142287 L 347.2234015581553 328.5695695258461 L 347.2173409520946 328.56681470490946 L 347.213552209228 328.56507345066575 L 347.2074916031674 328.5622574114861 L 347.2037464792769 328.56049837490286 L 347.1976858732163 328.55762111748015 L 347.1939844588607 328.55584522317224 L 347.1879238528001 328.5529067475065 L 347.1842662073787 328.55111490756855 L 347.1782056013181 328.54811521365974 L 347.1784100017173 328.54770224142464 L 347.1668804616396 328.54232938047875 L 347.01738551214464 328.4635415016909 L 346.8678905626495 328.38475362290285 L 346.41940571416484 328.14838998653937 L 346.2699107646697 328.06960210775134 L 345.97092086568 327.9120263501757 L 345.82142591618504 327.8332384713878 L 345.67193096668996 327.7544505925998 L 345.52243601719516 327.6756627138121 L 345.3729410677002 327.59687483502415 L 345.2234461182053 327.51808695623635 L 345.07395116871015 327.4392990774483 L 344.92445621921536 327.36051119866056 L 344.7749612697204 327.28172331987264 L 344.6254663202255 327.20293544108483 L 344.47597137073035 327.1241475622968 L 344.32647642123555 327.045359683509 L 344.17698147174065 326.9665718047212 L 344.0274865222455 326.88778392593315 L 343.8779915727507 326.8089960471454 L 343.72849662325575 326.7302081683575 L 343.57900167376084 326.65142028956967 L 343.4295067242657 326.57263241078164 L 343.2800117747709 326.49384453199383 L 342.98102187578104 326.33626877441816 L 342.8315269262859 326.2574808956301 L 342.38304207780124 326.02111725926665 L 342.2335471283061 325.9423293804786 L 341.9345572293164 325.784753622903 L 341.78506227982143 325.7059657441151 L 341.63556733032635 325.6271778653271 L 341.3365774313366 325.4696021077515 L 341.18708248184146 325.39081422896345 L 340.88809258285175 325.23323847138784 L 340.7385976333568 325.1544505925999 L 340.5891026838617 325.07566271381194 L 340.29011278487195 324.9180869562363 L 340.140617835377 324.8392990774484 L 339.9911228858819 324.7605111986604 L 339.8416279363871 324.6817233198727 L 339.69213298689215 324.60293544108475 L 339.54263803739724 324.52414756229695 L 339.3931430879021 324.4453596835089 L 339.2436481384073 324.3665718047211 L 338.94465823941744 324.20899604714543 L 338.7951632899223 324.1302081683574 L 338.6456683404275 324.0514202895696 L 338.34667844143763 323.8938445319939 L 338.1971834919425 323.8150566532059 L 337.8981935929528 323.6574808956303 L 337.74869864345766 323.57869301684224 L 337.59920369396286 323.49990513805443 L 337.300213794973 323.34232938047876 L 337.15071884547785 323.2635415016907 L 336.7022339969932 323.02717786532725 L 336.55273904749805 322.9483899865392 L 336.25374914850835 322.7908142289636 L 336.1042541990134 322.7120263501757 L 335.9547592495183 322.6332384713877 L 335.8052643000235 322.55445059259995 L 335.65576935052854 322.475662713812 L 335.50627440103364 322.3968748350242 L 335.3567794515385 322.3180869562362 L 335.2072845020437 322.23929907744844 L 335.05778955254874 322.1605111986605 L 334.90829460305366 322.08172331987254 L 334.75879965355887 322.0029354410848 L 334.6093047040639 321.92414756229687 L 334.459809754569 321.84535968350906 L 334.31031480507386 321.766571804721 L 334.22469768214125 321.72144926695927 L 347.7574796210902 340.74631512277614 L 347.76220390718964 340.7403800823059 L 347.76728381786666 340.73410297989057 L 347.7741026438162 340.72581491610816 L 347.77928431390984 340.7196194380601 L 347.78623237837246 340.71144700873674 L 347.7915143320452 340.70533503138665 L 347.7985903982887 340.6972794732545 L 347.8039711219412 340.6912528372321 L 347.8111739532334 340.6833153870235 L 347.81665189592 340.67737589722736 L 347.82398025552874 340.6695577916743 L 347.8295538293524 340.6637072171764 L 347.8370064805455 340.6560096930112 L 347.8426740609448 340.6502497669901 L 347.85024976699003 340.64267406094484 L 347.8560096930111 340.63700648054555 L 347.86370721717634 340.62955382935246 L 347.8695577916715 340.62398025553136 L 347.8773758972245 340.6166518959226 L 347.88331538702477 340.6111739532322 L 347.8912528372334 340.60397112194 L 347.89727947325315 340.59859039828984 L 347.9053350313852 340.59151433204636 L 347.9114470087366 340.5862323783725 L 347.91961943805995 340.57928431390985 L 347.92581491610963 340.5741026438149 L 347.93410297989203 340.5672838178654 L 347.94038008230416 340.562203907191 L 347.9487825438134 340.55551555648674 L 347.95513935860515 340.5505388428019 L 347.96365498110913 340.5439822040751 L 347.9700895606635 340.53911008612886 L 347.97871710743004 340.5326863961116 L 347.9852274685558 340.52792023318096 L 347.9939657028527 340.5216307286056 L 348.00054982681615 340.5169718398056 L 348.0093975119111 340.51081775740414 L 348.0160533445393 340.50626742088826 L 348.02500924370025 340.50024999739304 L 348.0317346954457 340.49580944953107 L 348.0407975719405 340.4899299216742 L 348.04759051804507 340.4856003561164 L 348.0567591351414 340.47985996063 L 348.063617415831 340.4756425273142 L 348.0728905367968 340.4700425009306 L 348.0798119574839 340.46593830505174 L 348.08918834558693 340.460479884503 L 348.09617067721337 340.45648998536996 L 348.1056490957215 340.45117440738835 L 348.11269007508827 340.4472998172723 L 348.1222692872692 340.44212831858994 L 348.12936661752383 340.4383700014699 L 348.13904538664553 340.43334381881897 L 348.14619673776866 340.42970268912507 L 348.1559738270988 340.4248230592378 L 348.1631768365606 340.4212999805077 L 348.1730510093671 340.4165681401162 L 348.1803032828168 340.41316392364683 L 348.1902733023675 340.40858110948335 L 348.1975724144681 340.40529651292997 L 348.2076370440307 340.40086396172666 L 348.2149805393767 340.39769968769116 L 348.22513854221916 340.39341863618023 L 348.2325239363706 340.3903753307807 L 348.2427740757606 340.3862470156944 L 348.2501988563985 340.38332526712634 L 348.260539895604 340.37935092519666 L 348.2680015238057 340.3765512622948 L 348.27843222609437 340.37273213025406 L 348.28592813771246 340.3700550210727 L 348.2964472663522 340.366392335653 L 348.3039748735413 340.3638381860566 L 348.31458119179985 340.3603331839903 L 348.3221378846378 340.35790233628467 L 348.33283015578314 340.35455625430376 L 348.3404133040479 340.3522489858962 L 348.3511902913477 340.34906306073293 L 348.35879724639085 340.34687958285014 L 348.36965771311293 340.34385505123663 L 348.37728580987255 340.3417955076968 L 348.3882285192848 340.3389336063654 L 348.39587507838104 340.3369980724293 L 348.4068987937513 340.334300038112 L 348.4145611237644 340.3324885193945 L 348.4256646083603 340.3299555888236 L 348.43334000813866 340.32826802031457 L 348.44452202522825 340.32590143022225 L 348.45220778636536 340.3243376753894 L 348.46346709921636 340.32213866250777 L 348.4711605086038 340.32069851251157 L 348.482495880484 340.3186683135729 L 348.4901942229328 340.3173514866002 L 348.50160441711006 340.31549133833664 L 348.5093049781116 340.3142974790471 L 348.52078875785367 340.31260861819084 L 348.52848882636846 340.31153729730187 L 348.54004495494326 340.310020960585 L 348.54774182629075 340.30907167458787 L 348.55936906696604 340.3077290987427 L 348.5670600457452 340.30690126976526 L 348.5787571617888 340.3057336915239 L 348.58643956487754 340.30502666733696 L 348.5982053195573 340.3040353234316 L 348.6058764791362 340.30344837760987 L 348.6177096357199 340.30263450477275 L 348.6253669023086 340.30216683701303 L 348.63726622406404 340.30153167197625 L 348.6449069696161 340.30118240857075 L 348.65687121981114 340.30072718806656 L 348.6644928407625 340.30049538254104 L 348.6765207826649 340.3002213433016 L 348.6841207030212 340.3001059772124 L 348.6962110998989 340.3000143559699 L 348.69999999999976 340.29999999999984 L 349.1424242424244 340.3 L 392.5 340.3 L 392.5037889001007 340.30001435597006 L 392.51587929697837 340.3001059772126 L 392.5234792173347 340.30022134330176 L 392.5355071592371 340.3004953825412 L 392.54312878018845 340.30072718806673 L 392.5550930303835 340.3011824085709 L 392.56273377593556 340.3015316719764 L 392.574633097691 340.3021668370132 L 392.5822903642797 340.3026345047729 L 392.5941235208634 340.30344837761004 L 392.6017946804423 340.3040353234318 L 392.61356043512205 340.30502666733713 L 392.62124283821055 340.3057336915241 L 392.6329399542542 340.30690126976543 L 392.6406309330336 340.30772909874287 L 392.6522581737089 340.30907167458804 L 392.659955045054 340.31002096058484 L 392.6715111736288 340.31153729730164 L 392.679211242146 340.31260861819095 L 392.6906950218881 340.31429747904724 L 392.6983955828892 340.3154913383367 L 392.7098057770665 340.3173514866003 L 392.7175041195181 340.3186683135734 L 392.7288394913983 340.32069851251214 L 392.73653290078096 340.3221386625075 L 392.74779221363195 340.3243376753891 L 392.75547797477145 340.32590143022236 L 392.76665999186105 340.3282680203147 L 392.7743353916412 340.32995558882413 L 392.7854388762372 340.33248851939504 L 392.79310120624666 340.33430003811173 L 392.80412492161685 340.33699807242897 L 392.8117714807173 340.33893360636614 L 392.82271419012955 340.3417955076976 L 392.83034228688376 340.34385505123595 L 392.8412027536059 340.3468795828494 L 392.8488097086521 340.34906306073304 L 392.85958669595186 340.3522489858963 L 392.8671698442166 340.3545562543039 L 392.87786211536195 340.3579023362848 L 392.8854188081999 340.3603331839904 L 392.8960251264585 340.36383818605674 L 392.9035527336476 340.36639233565313 L 392.9140718622873 340.3700550210728 L 392.9215677739046 340.3727321302539 L 392.9319984761933 340.37655126229464 L 392.93946010439583 340.3793509251968 L 392.9498011436013 340.38332526712645 L 392.9572259242392 340.3862470156945 L 392.9674760636292 340.39037533078084 L 392.97486145778066 340.39341863618034 L 392.9850194606231 340.3976996876913 L 392.9923629559691 340.40086396172677 L 393.00242758553173 340.4052965129301 L 393.00972669763024 340.4085811094825 L 393.0196967171809 340.4131639236459 L 393.0269489906348 340.4165681401173 L 393.03682316344134 340.4212999805088 L 393.0440261729 340.4248230592374 L 393.0538032622302 340.42970268912467 L 393.0609546133554 340.4333438188196 L 393.07063338247707 340.4383700014705 L 393.0777307127275 340.44212831858835 L 393.0873099249085 340.4472998172707 L 393.09435090428036 340.45117440738954 L 393.1038293227885 340.4564899853712 L 393.1108116544118 340.46047988450243 L 393.1201880425149 340.46593830505117 L 393.12710946320425 340.4700425009314 L 393.13638258417 340.475642527315 L 393.1432408648554 340.47985996062823 L 393.1524094819518 340.48560035611456 L 393.1592024280613 340.48992992167547 L 393.1682653045561 340.4958094495324 L 393.1749907562997 340.50024999739315 L 393.18394665546066 340.5062674208884 L 393.1906024880858 340.51081775740215 L 393.1994501731808 340.51697183980355 L 393.2060342971473 340.52163072860566 L 393.21477253144417 340.527920233181 L 393.22128289257125 340.5326863961126 L 393.22991043933774 340.5391100861298 L 393.2363450188908 340.5439822040752 L 393.2448606413948 340.550538842802 L 393.25121745618526 340.5555155564858 L 393.2596199176946 340.56220390719005 L 393.26589702010796 340.5672838178655 L 393.27418508389036 340.57410264381497 L 393.28038056194004 340.5792843139099 L 393.2885529912634 340.58623237837253 L 393.29466496861477 340.5915143320464 L 393.30272052674684 340.5985903982899 L 393.30874716276804 340.60397112194136 L 393.3166846129767 340.6111739532336 L 393.32262410277275 340.61665189592014 L 393.3304422083258 340.62398025552886 L 393.3362927828237 340.6295538293525 L 393.3439903069889 340.6370064805456 L 393.34975023301 340.6426740609449 L 393.3573259390553 340.65024976699016 L 393.36299351945456 340.65600969301124 L 393.37044617064765 340.66370721717647 L 393.37601974447 340.669557791673 L 393.3833481040788 340.67737589722606 L 393.3888260467667 340.6833153870236 L 393.3960288780589 340.6912528372322 L 393.4014096017114 340.6972794732546 L 393.4084856679549 340.7053350313867 L 393.41376762162764 340.7114470087368 L 393.42071568609026 340.71961943806014 L 393.4258973561839 340.7258149161082 L 393.43271618213345 340.7341029798906 L 393.43779609280915 340.74038008230434 L 393.44448444351343 340.7487825438136 L 393.44946115719824 340.75513935860533 L 393.45601779592505 340.7636549811093 L 393.4608899138713 340.7700895606637 L 393.46731360388856 340.7787171074302 L 393.4720797668183 340.78522746855475 L 393.47836927139366 340.79396570285155 L 393.48302816019543 340.80054982681753 L 393.4891822425969 340.80939751191255 L 393.4937325791119 340.81605334453945 L 393.49975000260713 340.82500924370044 L 393.5041905504679 340.831734695444 L 393.5100700783248 340.8407975719388 L 393.514399643885 340.8475905180472 L 393.5201400393713 340.85675913514353 L 393.52435747268595 340.8636174158312 L 393.52995749906955 340.872890536797 L 393.5340616949491 340.87981195748523 L 393.53952011549785 340.8891883455883 L 393.54351001462845 340.8961706772105 L 393.5488255926101 340.90564909571856 L 393.5527001827285 340.91269007508953 L 393.55787168141086 340.9222692872705 L 393.56162999853035 340.92936661752407 L 393.56665618118126 340.9390453866458 L 393.57029731087516 340.9461967377689 L 393.57517694076245 340.95597382709906 L 393.578700019493 340.96317683656184 L 393.58343185988446 340.9730510093684 L 393.58683607635294 340.98030328281607 L 393.5914188905164 340.9902733023667 L 393.59470348707066 340.9975724144693 L 393.59913603827397 341.007637044032 L 393.60230031230867 341.01498053937604 L 393.6065813638196 341.02513854221843 L 393.60962466921893 341.03252393636956 L 393.61375298430534 341.0427740757596 L 393.6166747328736 341.05019885639797 L 393.6206490748033 341.06053989560337 L 393.62344873770576 341.06800152380674 L 393.6272678697465 341.07843222609546 L 393.6299449789284 341.08592813771503 L 393.633607664348 341.09644726635474 L 393.6361618139431 341.10397487354 L 393.6396668160095 341.1145811917986 L 393.64209766371465 341.12213788463515 L 393.6454437456956 341.1328301557804 L 393.64775101410413 341.1404133040482 L 393.6509369392674 341.151190291348 L 393.65312041715106 341.15879724639416 L 393.6561449487645 341.1696577131163 L 393.65820449230284 341.1772858098705 L 393.6610663936343 341.18822851928275 L 393.6630019275715 341.1958750783832 L 393.6656999618887 341.2068987937534 L 393.6675114806054 341.21456112376285 L 393.6700444111763 341.22566460835884 L 393.6717319796858 341.233340008139 L 393.6740985697781 341.2445220252286 L 393.6756623246109 341.2522077863657 L 393.6778613374926 341.2634670992167 L 393.6793014874888 341.27116050860417 L 393.6813316864274 341.28249588048436 L 393.6826485133998 341.2901942229312 L 393.6845086616634 341.3016044171085 L 393.68570252095327 341.309304978112 L 393.68739138180956 341.3207887578541 L 393.68846270269887 341.32848882637126 L 393.6899790394157 341.34004495494605 L 393.6909283254122 341.34774182628877 L 393.6922709012574 341.35936906696406 L 393.69309873023514 341.36706004574563 L 393.6942663084765 341.3787571617892 L 393.69497333266344 341.38643956487795 L 393.6959646765688 341.3982053195577 L 393.69655162239036 341.4058764791344 L 393.69736549522753 341.41770963571815 L 393.69783316298754 341.42536690231145 L 393.69846832802426 341.4372662240669 L 393.6988175914296 341.44490696961424 L 393.69927281193384 341.4568712198093 L 393.6995046174594 341.46449284076294 L 393.69977865669887 341.4765207826654 L 393.69989402278804 341.4841207030217 L 393.69998564403056 341.49621109989937 L 393.69998564403033 341.5037889001266 L 393.6998940227872 341.51587929700423 L 393.69977865669824 341.5234792173347 L 393.6995046174588 341.5355071592371 L 393.69927281193327 341.54312878018845 L 393.6988175914291 341.5550930303835 L 393.6984683280236 341.56273377593556 L 393.6978331629868 341.574633097691 L 393.6973654952271 341.5822903642797 L 393.69655162238996 341.5941235208634 L 393.6959646765682 341.6017946804423 L 393.69497333266287 341.61356043512205 L 393.6942663084759 341.62124283821055 L 393.69309873023457 341.6329399542542 L 393.69227090125713 341.6406309330336 L 393.69092832541196 341.6522581737089 L 393.68997903941516 341.659955045054 L 393.68846270269836 341.6715111736288 L 393.68739138180905 341.679211242146 L 393.68570252095276 341.6906950218881 L 393.6845086616633 341.6983955828892 L 393.6826485133997 341.7098057770665 L 393.6813316864266 341.7175041195181 L 393.67930148748786 341.7288394913983 L 393.6778613374925 341.73653290078096 L 393.6756623246109 341.74779221363195 L 393.67409856977764 341.75547797477145 L 393.6717319796853 341.76665999186105 L 393.67004441117587 341.7743353916412 L 393.66751148060496 341.7854388762372 L 393.66569996188827 341.79310120624666 L 393.66300192757103 341.80412492161685 L 393.66106639363386 341.8117714807173 L 393.6582044923024 341.82271419012955 L 393.65614494876405 341.83034228688376 L 393.6531204171506 341.8412027536059 L 393.65093693926696 341.8488097086521 L 393.6477510141037 341.85958669595186 L 393.6454437456961 341.8671698442166 L 393.6420976637152 341.87786211536195 L 393.6396668160096 341.8854188081999 L 393.63616181394326 341.8960251264585 L 393.63360766434687 341.9035527336476 L 393.6299449789272 341.9140718622873 L 393.6272678697461 341.9215677739046 L 393.62344873770536 341.9319984761933 L 393.6206490748032 341.93946010439583 L 393.61667473287355 341.9498011436013 L 393.6137529843055 341.9572259242392 L 393.60962466921916 341.9674760636292 L 393.60658136381966 341.97486145778066 L 393.6023003123087 341.9850194606231 L 393.59913603827323 341.9923629559691 L 393.5947034870699 342.00242758553173 L 393.5914188905175 342.00972669763024 L 393.5868360763541 342.0196967171809 L 393.5834318598827 342.0269489906348 L 393.5787000194912 342.03682316344134 L 393.5751769407626 342.0440261729 L 393.57029731087533 342.0538032622302 L 393.5666561811804 342.0609546133554 L 393.5616299985295 342.07063338247707 L 393.55787168141165 342.0777307127275 L 393.5527001827293 342.0873099249085 L 393.54882559261046 342.09435090428036 L 393.5435100146288 342.1038293227885 L 393.53952011549757 342.1108116544118 L 393.53406169494883 342.1201880425149 L 393.5299574990686 342.12710946320425 L 393.524357472685 342.13638258417 L 393.52014003937177 342.1432408648554 L 393.51439964388544 342.1524094819518 L 393.51007007832453 342.1592024280613 L 393.5041905504676 342.1682653045561 L 393.49975000260685 342.1749907562997 L 393.4937325791116 342.18394665546066 L 393.48918224259785 342.1906024880858 L 393.48302816019645 342.1994501731808 L 393.47836927139434 342.2060342971473 L 393.472079766819 342.21477253144417 L 393.4673136038874 342.22128289257125 L 393.4608899138702 342.22991043933774 L 393.4560177959248 342.2363450188908 L 393.449461157198 342.2448606413948 L 393.4444844435142 342.25121745618526 L 393.43779609280995 342.2596199176946 L 393.4327161821345 342.26589702010796 L 393.42589735618503 342.27418508389036 L 393.4207156860901 342.28038056194004 L 393.41376762162747 342.2885529912634 L 393.4084856679536 342.29466496861477 L 393.4014096017101 342.30272052674684 L 393.39602887805864 342.30874716276804 L 393.3888260467664 342.3166846129767 L 393.38334810407986 342.32262410277275 L 393.37601974447114 342.3304422083258 L 393.3704461706475 342.3362927828237 L 393.3629935194544 342.3439903069889 L 393.3573259390551 342.34975023301 L 393.34975023300984 342.3573259390553 L 393.34399030698876 342.36299351945456 L 393.33629278282353 342.37044617064765 L 393.330442208327 342.37601974447 L 393.32262410277394 342.3833481040788 L 393.3166846129764 342.3888260467667 L 393.3087471627678 342.3960288780589 L 393.3027205267454 342.4014096017114 L 393.2946649686133 342.4084856679549 L 393.2885529912632 342.41376762162764 L 393.28038056193986 342.42071568609026 L 393.2741850838918 342.4258973561839 L 393.2658970201094 342.43271618213345 L 393.25961991769566 342.43779609280915 L 393.2512174561864 342.44448444351343 L 393.24486064139467 342.44946115719824 L 393.2363450188907 342.45601779592505 L 393.2299104393363 342.4608899138713 L 393.2212828925698 342.46731360388856 L 393.21477253144525 342.4720797668183 L 393.20603429714845 342.47836927139366 L 393.19945017318247 342.48302816019543 L 393.19060248808745 342.4891822425969 L 393.18394665546055 342.4937325791119 L 393.17499075629956 342.49975000260713 L 393.168265304556 342.5041905504679 L 393.1592024280612 342.5100700783248 L 393.1524094819528 342.514399643885 L 393.14324086485647 342.5201400393713 L 393.1363825841688 342.52435747268595 L 393.127109463203 342.52995749906955 L 393.12018804251477 342.5340616949491 L 393.1108116544117 342.53952011549785 L 393.1038293227895 342.54351001462845 L 393.09435090428144 342.5488255926101 L 393.08730992491047 342.5527001827285 L 393.0777307127295 342.55787168141086 L 393.07063338247593 342.56162999853035 L 393.0609546133542 342.56665618118126 L 393.0538032622311 342.57029731087516 L 393.04402617290094 342.57517694076245 L 393.03682316343816 342.578700019493 L 393.0269489906316 342.58343185988446 L 393.01969671718393 342.58683607635294 L 393.0097266976333 342.5914188905164 L 393.0024275855307 342.59470348707066 L 392.992362955968 342.59913603827397 L 392.98501946062396 342.60230031230867 L 392.97486145778157 342.6065813638196 L 392.96747606363044 342.60962466921893 L 392.9572259242404 342.61375298430534 L 392.94980114360203 342.6166747328736 L 392.93946010439663 342.6206490748033 L 392.93199847619326 342.62344873770576 L 392.92156777390454 342.6272678697465 L 392.91407186228497 342.6299449789284 L 392.90355273364526 342.633607664348 L 392.89602512646 342.6361618139431 L 392.8854188082014 342.6396668160095 L 392.87786211536485 342.64209766371465 L 392.8671698442196 342.6454437456956 L 392.8595866959518 342.64775101410413 L 392.848809708652 342.6509369392674 L 392.84120275360584 342.65312041715106 L 392.8303422868837 342.6561449487645 L 392.8227141901295 342.65820449230284 L 392.81177148071725 342.6610663936343 L 392.8041249216168 342.6630019275715 L 392.7931012062466 342.6656999618887 L 392.78543887623715 342.6675114806054 L 392.77433539164116 342.6700444111763 L 392.766659991861 342.6717319796858 L 392.7554779747714 342.6740985697781 L 392.7477922136343 342.6756623246109 L 392.7365329007833 342.6778613374926 L 392.72883949139583 342.6793014874888 L 392.71750411951564 342.6813316864274 L 392.7098057770688 342.6826485133998 L 392.6983955828915 342.6845086616634 L 392.690695021888 342.68570252095327 L 392.6792112421459 342.68739138180956 L 392.67151117362874 342.68846270269887 L 392.65995504505395 342.6899790394157 L 392.65225817371123 342.6909283254122 L 392.64063093303594 342.6922709012574 L 392.63293995425437 342.69309873023514 L 392.6212428382108 342.6942663084765 L 392.61356043512205 342.69497333266344 L 392.6017946804423 342.6959646765688 L 392.5941235208656 342.69655162239036 L 392.58229036428185 342.69736549522753 L 392.57463309768855 342.69783316298754 L 392.5627337759331 342.69846832802426 L 392.55509303038576 342.6988175914296 L 392.5431287801907 342.69927281193384 L 392.53550715923706 342.6995046174594 L 392.5234792173346 342.69977865669887 L 392.5158792969783 342.69989402278804 L 392.50378890010063 342.69998564403056 L 392.5 342.6998282712101 Z M 348.70000000000044 353.2999999999994 L 349.06868686868773 353.3 L 355.45999358888463 353.3 L 334.1607575123997 323.3567768686022 L 334.2120680801146 323.5086142628607 L 334.26156302960953 323.65507890932525 L 334.3605529285994 323.94800820225464 L 334.41004787809436 324.0944728487192 L 334.4595428275893 324.2409374951839 L 334.50903777708425 324.3874021416484 L 334.55853272657924 324.53386678811313 L 334.65752262556913 324.8267960810425 L 334.70701757506407 324.97326072750707 L 334.80600747405396 325.26619002043645 L 334.8555024235489 325.412654666901 L 334.90499737304384 325.5591193133657 L 334.9544923225388 325.7055839598302 L 335.0039872720338 325.85204860629494 L 335.10297717102367 326.14497789922433 L 335.1524721205186 326.2914425456889 L 335.2514620195085 326.58437183861827 L 335.30095696900344 326.7308364850828 L 335.3504519184984 326.87730113154737 L 335.3999468679934 327.0237657780122 L 335.4494418174883 327.17023042447676 L 335.59792666597315 327.6096243638708 L 335.6474216154681 327.75608901033536 L 335.69691656496303 327.9025536568001 L 335.746411514458 328.0490183032646 L 335.795906463953 328.1954829497293 L 335.89489636294286 328.4884122426587 L 335.9443913124378 328.63487688912323 L 336.0433812114277 328.9278061820526 L 336.09287616092263 329.0742708285172 L 336.14237111041757 329.2207354749817 L 336.19186605991257 329.36720012144656 L 336.2413610094075 329.5136647679111 L 336.3403509083974 329.8065940608405 L 336.38984585789234 329.95305870730505 L 336.4888357568822 330.24598800023443 L 336.53833070637717 330.392452646699 L 336.5878256558721 330.53891729316354 L 336.6373206053671 330.68538193962837 L 336.68681555486205 330.8318465860929 L 336.78580545385194 331.1247758790223 L 336.8353004033469 331.27124052548686 L 336.93429030233676 331.56416981841625 L 336.9837852518317 331.7106344648806 L 337.1322701003166 332.15002840427485 L 337.18176504981153 332.2964930507394 L 337.2807549488014 332.5894223436688 L 337.33024989829636 332.73588699013334 L 337.3797448477913 332.8823516365979 L 337.4292397972863 333.0288162830627 L 337.47873474678124 333.1752809295273 L 337.5777246457711 333.46821022245666 L 337.62721959526607 333.6146748689212 L 337.72620949425595 333.9076041618506 L 337.7757044437509 334.054068808315 L 337.87469434274084 334.34699810124454 L 337.9241892922358 334.4934627477091 L 337.96516806726095 334.6147264697224 L 337.96631587770554 334.617339103273 L 337.97013493352915 334.6262663966501 L 337.9727443353733 334.63253364004623 L 337.9763382651228 334.641403818019 L 337.97883017740963 334.6477273327294 L 337.9822038083839 334.6565307379136 L 337.98457946784555 334.66290928720616 L 337.9877381140377 334.6716369533332 L 337.98999875740645 334.67806930047567 L 337.99294815216547 334.68671296176296 L 337.99509501617337 334.6931978700232 L 337.99784124659743 334.7017499631494 L 337.9998755679767 334.7082861957952 L 338.00242501178207 334.7167398552414 L 338.00434802726494 334.7233261755406 L 338.0067072927062 334.7316752230035 L 338.0085202390248 334.7383103942239 L 338.0106961083071 334.74654932277434 L 338.01240022219366 334.7532321081838 L 338.0143995987726 334.7613560620948 L 338.0159961169593 334.7680852249611 L 338.01782597690755 334.77608997575857 L 338.0193161361265 334.78286427934955 L 338.02098348373966 334.79074619892 L 338.0223685207231 334.7975644065034 L 338.0238803483902 334.80532043784916 L 338.0251614998703 334.81218131269287 L 338.0265247521911 334.81980893898907 L 338.0277032549001 334.8267112443609 L 338.0289247969494 334.8342084568511 L 338.0300018876194 334.8411509560189 L 338.03108847721296 334.84851622124023 L 338.0320653925762 334.85549767747176 L 338.0330236563618 334.86272990431587 L 338.0339016331504 334.869749080879 L 338.0347380462855 334.87684758772656 L 338.0355183212317 334.88390324788907 L 338.036239190441 334.89086773037064 L 338.03692300027694 334.89795863740034 L 338.03753445000336 334.9047891368137 L 338.0381230314612 334.91191405397836 L 338.0386309928739 334.918610926748 L 338.0391255826859 334.92576861731555 L 338.03953578527864 334.93233250564316 L 338.03993762017694 334.93952173288136 L 338.0402555856938 334.94595353663743 L 338.0405659024106 334.9531730638141 L 338.04079694086136 334.9594739139168 L 338.04101697612884 334.96672250429975 L 338.0411661836441 334.9728937374982 L 338.0412971741944 334.9801701543553 L 338.0413694325024 334.98621328955056 L 338.04141261506777 334.99351629614955 L 338.0414125923773 334.9994330122636 L 338.0413692036899 335.0067613718723 L 338.04130135678355 335.01255348718655 L 338.04117263357557 335.01990596307286 L 338.04104121093184 335.02557541610895 L 338.0408283899354 335.03295077154064 L 338.0406374357153 335.0384996033674 L 338.0403417536627 335.0458966016123 L 338.0400951124094 335.0513269395953 L 338.0397178060327 335.0587443439212 L 338.03941912795085 335.06405838679717 L 338.0389614339823 335.07149496047185 L 338.0386141806739 335.07669496476575 L 338.0380773358456 335.0841494710571 L 338.0376847864001 335.08923773866104 L 338.0370700274444 335.0967089408369 L 338.03663528478154 335.10168780782726 L 338.0359438484305 335.10917446915533 L 338.0354698458198 335.1140462956522 L 338.0347029688056 335.1215471794004 L 338.0341924764895 335.12631434044613 L 338.03335139554434 335.13382820988227 L 338.03280702739863 335.1384930873053 L 338.03189297925474 335.14601870569714 L 338.0313171994366 335.15058368085573 L 338.0303314208261 335.1581198114711 L 338.02972655037115 335.1625872587679 L 338.02867027802625 335.1701326648747 L 338.02803850134046 335.1745049461103 L 338.0269129719933 335.18205839097624 L 338.026256343232 335.1863378503035 L 338.02506279361484 335.1938980971965 L 338.02438324289517 335.1980870568234 L 338.0231229097401 335.2056528690112 L 338.02242224920155 335.20975362535654 L 338.02109636924087 335.217323766107 L 338.02037629889736 335.22133858662875 L 338.01898610886315 335.22891181920966 L 338.0182482222752 335.2328429395984 L 338.01679495889965 335.24041802727754 L 338.0160407486273 335.24426764916217 L 338.0145256486427 335.2518433552074 L 338.0137565114833 335.2556136442616 L 338.01218081162165 335.2631887319407 L 338.0113980536475 335.2668818162707 L 338.00976299064115 335.2744550488516 L 338.0089678319926 335.2780730178367 L 338.0072746425737 335.2856431585871 L 338.0064682220587 335.28918806189625 L 338.00471814295935 335.29675387408406 L 338.0039015224247 335.3002277210162 L 338.00209579037715 335.3077879679092 L 338.0012699588689 335.3111927269591 L 337.9994098106053 335.31874617182507 L 337.9985756883217 335.3220837704524 L 337.9966623605743 335.3296291765592 L 337.99582080261246 335.33290150115727 L 337.99385553211334 335.34043763177266 L 337.99300733202614 335.34364652776753 L 337.99099135550756 335.3511721461594 L 337.9901372486517 335.3543194183217 L 337.9880718028458 335.36183328775786 L 337.98721246956035 335.3649207005778 L 337.98509879119933 335.372421584326 L 337.9842348597929 335.375450862548 L 337.98207418560895 335.3829375238761 L 337.9812062351771 335.3859103531189 L 337.97899980190243 335.39338155529475 L 337.97812836497894 335.3962995827598 L 337.9758774093457 335.4037540890512 L 337.97500297439103 335.40661892431234 L 337.9727087331314 335.4140554979871 L 337.9718317468638 335.4168687138615 L 337.9694954567099 335.42428611818735 L 337.96861632630174 335.4270492516213 L 337.96623922398584 335.4344462498662 L 337.9653583190947 335.43716080294627 L 337.962941641349 335.44453615837796 L 337.9620592960317 335.447203599327 L 337.95960427958835 335.4545560752133 L 337.9587207940785 335.45717783944275 L 337.95622867566965 335.46450619905147 L 337.9553443180242 335.4670836902653 L 337.952816334382 335.4743866968643 L 337.9519313420145 335.4769212881711 L 337.94936872987125 335.48419770502824 L 337.94848331096017 335.4866907401065 L 337.94588730704794 335.49393933048947 L 337.94500164184547 335.49639212474085 L 337.9423734828965 335.5036116519175 L 337.9414877249133 335.50602549369046 L 337.9388286476598 335.51321472092866 L 337.9379429247584 335.5155908727248 L 337.93525416593246 335.52274856329234 L 337.9343685813175 335.52508826299925 L 337.9316513776514 335.532213180164 L 337.93076601074995 335.5345176423402 L 337.9280215989758 335.54160854936987 L 337.92713650624427 335.54387896648933 L 337.92436612309433 335.5509346266518 L 337.92348133870667 335.5531721704338 L 337.9206862209131 335.56019134699693 L 337.9198017573677 335.5623971697308 L 337.91698314166257 335.5693786259623 L 337.9160989903182 335.57155386180347 L 337.91325811343387 335.57849636097126 L 337.9123742449054 335.5806421273902 L 337.9095123435739 335.58754443276206 L 337.9086287081006 335.5896618318638 L 337.9057470190542 335.59652270670756 L 337.90486354672464 335.59861282671534 L 337.90196330669556 335.60543103429876 L 337.9010799076132 335.6074949509943 L 337.89816235333353 335.6142692545852 L 337.8972789176881 335.6163080327945 L 337.8943452858901 335.6230371956608 L 337.89346168390796 335.6250518908454 L 337.8905132113237 335.63173467625484 L 337.8896292931708 335.6337263360393 L 337.8866672165326 335.6403615072597 L 337.8857828120611 335.64233117314257 L 337.882808368101 335.6489174934418 L 337.8819232865499 335.6508662024389 L 337.87893771200027 335.65740243508475 L 337.8780517415272 335.6593312215755 L 337.87505627312004 335.6658161298357 L 337.87416918028157 335.6677260273468 L 337.8711650547491 335.6741583744893 L 337.87027658381135 335.6760504176744 L 337.86726503788583 335.68242896696694 L 337.86637491002307 335.68430419364427 L 337.8633571804366 335.69062770835467 L 337.8624650928086 335.69248716161854 L 337.8594424162934 335.69875440501465 L 337.8585480409392 335.70059913554235 L 337.85552165422746 335.70680887089196 L 337.85462463683285 335.70863993931323 L 337.8515957766568 335.7147909298842 L 337.8506957351194 335.71660940936124 L 337.84766563821114 335.7227004184213 L 337.820063199642 335.77119533238346 L 337.7872290397704 335.8163126155539 L 337.749572095094 335.85749034998395 L 337.6515263862967 335.95336438921544 L 337.5558680187178 336.0484820508573 L 337.46110033666855 336.1443014686916 L 337.36722374459447 336.2408168863369 L 337.2742386578753 336.3380225470712 L 337.1821455026994 336.4359126935608 L 337.09094471598 336.5344815675429 L 337.00063674519214 336.6337234095898 L 336.9112220483285 336.7336324587414 L 336.8227010936789 336.8342029523288 L 336.73507435974386 336.93542912564874 L 336.64834233507224 337.03730521172054 L 336.56250551810007 337.13982544104243 L 336.4775644169568 337.24298404138693 L 336.3935195493547 337.34677523749747 L 336.3103714423564 337.45119325093196 L 336.22812063221147 337.55623229982507 L 336.1467676641666 337.6618865986851 L 336.06631309226776 337.7681503582028 L 335.98675747915775 337.87501778507027 L 335.9081013958797 337.98248308179564 L 335.8303454216594 338.09054044654886 L 335.7534901437062 338.19918407298763 L 335.67753615698746 338.30840815012505 L 335.6024840640162 338.41820686218296 L 335.52833447462774 338.5285743884685 L 335.4550880057766 338.6395049032255 L 335.3827452812851 338.75099257556417 L 335.31130693164033 338.863031569327 L 335.2407735937608 338.9756160430062 L 335.1711459107839 339.08874014963635 L 335.10242453181985 339.20239803674957 L 335.0346101117406 339.31658384628264 L 334.9677033109501 339.43129171452216 L 334.90170479517946 339.54651577201764 L 334.836615235216 339.6622501436167 L 334.7724353067373 339.7784889483293 L 334.7091656900523 339.8952262993628 L 334.64680706990447 340.0124563040585 L 334.5853601352377 340.1301730639054 L 334.5248255789976 340.2483706744995 L 334.4652040979033 340.36704322556955 L 334.4064963922573 340.4861848009417 L 334.3487031657174 340.6057894785873 L 334.29182512510886 340.7258513306057 L 334.2358629802062 340.8463644232786 L 334.18081744356294 340.96732281703686 L 334.1266892302809 341.08872056656753 L 334.0734790578449 341.21055172079446 L 334.0211876459374 341.33281032291137 L 333.96981571621905 341.455490410509 L 333.9193639921956 341.57858601551465 L 333.86983319900503 341.702091164332 L 333.8212240632641 341.8259998778521 L 333.77353731289367 341.95030617153003 L 333.726773676939 342.0750040554894 L 333.6809338854436 342.2000875344999 L 333.63601866925126 342.3255506081605 L 333.59202875988825 342.4513872708796 L 333.5489648893811 342.57759151204874 L 333.50682779015 342.7041573160154 L 333.4656181948276 342.8310786622865 L 333.4253368361548 342.958349525521 L 333.3859844468344 343.08596387566206 L 333.3475617593987 343.21391567804244 L 333.31006950609975 343.3421988934332 L 333.27350841876756 343.4708074782142 L 333.23787922872515 343.5997353843649 L 333.20318266664333 343.7289765596818 L 333.1694194624555 343.858524947801 L 333.1365903452522 343.98837448830363 L 333.104696043164 344.11851911689166 L 333.07373728328844 344.2489527654005 L 333.04371479158675 344.37966936195204 L 333.0146292927921 344.5106628310814 L 332.98648151033524 344.64192709379995 L 332.9592721662594 344.7734560677275 L 332.9330019811443 344.9052436671979 L 332.9076716740277 345.0372838034013 L 332.88328196235346 345.16957038440427 L 332.8598335618826 345.3020973153835 L 332.8373271866539 345.4348584986196 L 332.8157635489063 345.567847833711 L 332.7951433590397 345.7010592176 L 332.77546732555385 345.83448654473966 L 332.75673615500347 345.96812370718715 L 332.7389505519546 346.10196459470905 L 332.7221112189431 346.23600309489046 L 332.70621885643254 346.3702330932824 L 332.69127416278536 346.50464847345825 L 332.6772778342277 346.63924311715544 L 332.6642305648204 346.7740109043878 L 332.652133046433 346.90894571356415 L 332.64098596872634 347.0440414215365 L 332.6307900191247 347.1792919038055 L 332.62154588280646 347.31469103453304 L 332.6132542426835 347.450232686753 L 332.6059157793985 347.5859107323428 L 332.60015246785343 347.7085033158572 L 332.60509433680255 348.0892788255413 L 332.62019750026144 348.47699453573756 L 332.6452730658328 348.863121207504 L 332.6802439101733 349.2476280654182 L 332.72503431573807 349.6304837442898 L 332.7795698928329 350.01165614336105 L 332.84377748663644 350.3911122941054 L 332.91758507152224 350.7688182436651 L 333.000921635189 351.1447389552048 L 333.0937170552572 351.5188382262308 L 333.19590197099325 351.8910786252632 L 333.30740765276624 352.2614214468454 L 333.4281658716955 352.62982668440605 L 333.55810877176606 352.996253020191 L 333.69716874638567 353.3606578309984 L 333.84527832113764 353.7229972084251 L 334.00237004409826 354.08322599190865 L 334.1683763848418 354.44129781293935 L 334.3432296428874 354.7971651485958 L 334.526861866115 355.1507793827214 L 334.7192047793188 355.5020908729051 L 334.92018972295426 355.8510490217797 L 335.1297476017765 356.19760235097255 L 335.3478088430514 356.54169857646855 L 335.5743033637756 356.88328468409986 L 335.8091605462784 357.2223070041127 L 336.0523092215408 357.5587112839681 L 336.3036776594494 357.89244275858044 L 336.5631935652553 358.2234462174518 L 336.83078408149515 358.5516660682761 L 337.10637579457745 358.8770463966153 L 337.3898947454222 359.1995310215612 L 337.6812664433956 359.51906354715555 L 337.9804158829855 359.83558740961934 L 338.2872675626386 360.14904592041034 L 338.6017455052336 360.459382305193 L 338.9237732797901 360.76653973891524 L 339.2532740239184 361.0704613770767 L 339.5901704667719 361.3710903834962 L 339.9343849521522 361.6683699547442 L 340.2858394614759 361.96224334143784 L 340.6444556364863 362.25265386671214 L 341.01015480144065 362.5395449420178 L 341.382857984723 362.8228600805446 L 341.76248593969405 363.1025429084288 L 342.14895916474063 363.3785371739907 L 342.54219792247443 363.6507867552089 L 342.94212225801715 363.91923566560223 L 343.3486520163347 364.1838280586856 L 343.76170685866595 364.4445082312009 L 344.1812062779991 364.70122062523797 L 344.60706961362166 364.9539098293939 L 345.03921606478855 365.2025205791113 L 345.47756470348634 365.44699775627834 L 345.9220344863735 365.6872863882261 L 346.37254426592926 365.9233316462095 L 346.82901280075953 366.15507884340997 L 347.29135876525464 366.3824734326175 L 347.75950075849966 366.60546100358164 L 348.23335731251325 366.8239872801135 L 348.7128468999498 367.0379981170318 L 349.1978879411156 367.24743949691117 L 349.6883988105138 367.4522575267533 L 350.1842978428855 367.652398434583 L 350.6855033387338 367.84780856597746 L 351.191933569449 368.03843438059107 L 351.70350678202954 368.22422244867977 L 352.2201412033926 368.40511944763074 L 352.74175504440353 368.5810721585489 L 353.2682665034963 368.75202746285686 L 353.799593770097 368.9179323389858 L 354.33565502769267 369.07873385910136 L 354.8763684567258 369.23437918592407 L 355.42165223719405 369.38481556960494 L 355.9714245511127 369.52999034470076 L 356.5256035847109 369.6698509272094 L 357.08410753052243 369.8043448117071 L 357.64685458928074 369.93341956855863 L 358.21376297169763 370.05702284121725 L 358.78475090007527 370.1751023435986 L 359.35973660983564 370.2876058575438 L 359.9386383509329 370.3944812303583 L 360.5213743891605 370.49567637242643 L 361.10786300739 370.5911392549028 L 361.6980225066956 370.68081790746913 L 362.2917712074856 370.764660416171 L 362.889027450457 370.84261492130236 L 363.48970959760214 370.914629615367 L 364.0937360331035 370.98065274108944 L 364.70102516420496 371.0406325894826 L 365.31149542203326 371.0945174979653 L 365.92506526237196 371.1422558485258 L 366.5416531664705 371.1837960659345 L 367.1611776416961 371.21908661598593 L 367.7835572223089 371.2480760037881 L 368.2385518027331 371.26455133511854 L 357.16716340020537 355.7 L 348.7 355.7 L 348.6962110998993 355.69998564402994 L 348.6841207030216 355.6998940227874 L 348.6765207826653 355.69977865669824 L 348.6644928407629 355.6995046174588 L 348.65687121981153 355.69927281193327 L 348.6449069696165 355.6988175914291 L 348.63726622406443 355.6984683280236 L 348.625366902309 355.6978331629868 L 348.6177096357203 355.6973654952271 L 348.6058764791366 355.69655162238996 L 348.5982053195577 355.6959646765682 L 348.58643956487794 355.69497333266287 L 348.57875716178944 355.6942663084759 L 348.5670600457458 355.69309873023457 L 348.5593690669664 355.69227090125713 L 348.5477418262911 355.69092832541196 L 348.540044954946 355.68997903941516 L 348.5284888263712 355.68846270269836 L 348.520788757854 355.68739138180905 L 348.5093049781119 355.68570252095276 L 348.5016044171104 355.68450866166324 L 348.49019422293316 355.68264851339967 L 348.4824958804824 355.68133168642663 L 348.47116050860217 355.6793014874879 L 348.46346709921903 355.6778613374925 L 348.45220778636804 355.6756623246109 L 348.444522025228 355.6740985697775 L 348.4333400081385 355.6717319796852 L 348.42566460835883 355.67004441117587 L 348.41456112376284 355.66751148060496 L 348.40689879375395 355.6656999618884 L 348.3958750783837 355.66300192757114 L 348.3882285192827 355.66106639363386 L 348.37728580987044 355.6582044923024 L 348.3696577131156 355.6561449487639 L 348.3587972463935 355.65312041715043 L 348.35119029134864 355.6509369392671 L 348.3404133040488 355.64775101410385 L 348.33283015578263 355.6454437456959 L 348.32213788463736 355.642097663715 L 348.31458119180013 355.6396668160096 L 348.30397487354156 355.63616181394326 L 348.29644726635325 355.63360766434715 L 348.2859281377135 355.6299449789275 L 348.2784322260946 355.6272678697458 L 348.26800152380594 355.6234487377051 L 348.2605398956042 355.6206490748032 L 348.25019885639875 355.61667473287355 L 348.24277407576085 355.6137529843055 L 348.23252393637085 355.60962466921916 L 348.2251385422194 355.60658136381966 L 348.21498053937694 355.6023003123087 L 348.20763704403095 355.59913603827323 L 348.1975724144683 355.5947034870699 L 348.1902733023698 355.5914188905175 L 348.1803032828191 355.5868360763541 L 348.1730510093652 355.5834318598827 L 348.1631768365587 355.5787000194912 L 348.15597382709905 355.5751769407621 L 348.1461967377689 355.5702973108748 L 348.13904538664576 355.5666561811809 L 348.12936661752406 355.56162999853 L 348.12226928727256 355.55787168141165 L 348.11269007509156 355.5527001827293 L 348.10564909571855 355.54882559260983 L 348.09617067721047 355.54351001462817 L 348.0891883455883 355.53952011549757 L 348.0798119574852 355.53406169494883 L 348.07289053679585 355.5299574990686 L 348.0636174158301 355.524357472685 L 348.0567591351447 355.52014003937177 L 348.0475905180483 355.51439964388544 L 348.0407975719376 355.51007007832374 L 348.0317346954429 355.50419055046683 L 348.0250092437005 355.49975000260685 L 348.0160533445395 355.4937325791116 L 348.00939751191436 355.48918224259785 L 348.00054982681934 355.48302816019645 L 347.99396570285285 355.47836927139434 L 347.985227468556 355.472079766819 L 347.9787171074289 355.4673136038874 L 347.9700895606624 355.4608899138702 L 347.96365498110936 355.4560177959248 L 347.9551393586054 355.449461157198 L 347.9487825438149 355.4444844435142 L 347.9403800823056 355.43779609280995 L 347.9341029798922 355.4327161821345 L 347.9258149161098 355.42589735618503 L 347.9196194380601 355.4207156860901 L 347.9114470087368 355.41376762162747 L 347.9053350313854 355.4084856679536 L 347.8972794732533 355.4014096017101 L 347.8912528372321 355.39602887805864 L 347.88331538702346 355.3888260467664 L 347.8773758972261 355.3833481040786 L 347.8695577916731 355.3760197444699 L 347.8637072171765 355.3704461706475 L 347.8560096930113 355.3629935194544 L 347.8502497669902 355.3573259390551 L 347.84267406094494 355.34975023300984 L 347.83700648054565 355.34399030698876 L 347.82955382935256 355.33629278282353 L 347.8239802555289 355.3304422083256 L 347.8166518959202 355.3226241027726 L 347.81117395323355 355.3166846129764 L 347.80397112194134 355.3087471627678 L 347.7985903982902 355.3027205267469 L 347.79151433204663 355.29466496861477 L 347.78623237837127 355.28855299126167 L 347.7792843139087 355.28038056193833 L 347.7741026438164 355.2741850838918 L 347.7672838178668 355.2658970201094 L 347.7622039071898 355.25961991769407 L 347.7555155564856 355.2512174561848 L 347.7505388428034 355.2448606413964 L 347.74398220407653 355.2363450188924 L 347.73911008612765 355.2299104393347 L 347.73268639611047 355.2212828925681 L 347.72792023318203 355.21477253144525 L 347.72163072860667 355.20603429714845 L 347.71697183980365 355.1994501731807 L 347.71081775740225 355.1906024880857 L 347.7062674208897 355.18394665546236 L 347.7002499973944 355.1749907563014 L 347.6958094495312 355.1682653045541 L 347.6899299216744 355.1592024280593 L 347.6856003561154 355.1524094819528 L 347.6798599606291 355.14324086485647 L 347.67564252731444 355.1363825841688 L 347.67004250093083 355.127109463203 L 347.66593830505127 355.12018804251477 L 347.66047988450254 355.1108116544117 L 347.6564899853708 355.10382932278753 L 347.6511744073892 355.09435090427945 L 347.64729981727197 355.08730992491047 L 347.6421283185896 355.0777307127295 L 347.6383700014701 355.07063338247593 L 347.6333438188192 355.0609546133542 L 347.6297026891253 355.0538032622311 L 347.624823059238 355.04402617290094 L 347.62129998050744 355.03682316343816 L 347.616568140116 355.0269489906316 L 347.6131639236475 355.01969671718393 L 347.608581109484 355.0097266976333 L 347.6052965129288 355.00242758552855 L 347.60086396172557 354.99236295596586 L 347.59769968769183 354.98501946062396 L 347.5934186361809 354.97486145778157 L 347.59037533078157 354.96747606363044 L 347.58624701569516 354.9572259242404 L 347.58332526712604 354.9498011435998 L 347.5793509251964 354.9394601043944 L 347.5765512622948 354.93199847619326 L 347.57273213025405 354.92156777390454 L 347.57005502107296 354.91407186228724 L 347.5663923356533 354.90355273364753 L 347.5638381860566 354.8960251264577 L 347.5603331839903 354.88541880819906 L 347.55790233628517 354.8778621153626 L 347.55455625430426 354.8671698442173 L 347.5522489858965 354.8595866959518 L 347.5490630607332 354.848809708652 L 347.54687958284956 354.84120275360584 L 347.5438550512361 354.8303422868837 L 347.54179550769715 354.8227141901271 L 347.53893360636573 354.81177148071487 L 347.5369980724298 354.8041249216192 L 347.5343000381125 354.793101206249 L 347.5324885193947 354.7854388762348 L 347.52995558882384 354.77433539163883 L 347.5282680203149 354.766659991861 L 347.5259014302226 354.7554779747714 L 347.5243376753893 354.7477922136319 L 347.5221386625077 354.7365329007809 L 347.52069851251235 354.7288394913982 L 347.51866831357364 354.717504119518 L 347.5173514866005 354.70980577706644 L 347.5154913383369 354.69839558288913 L 347.51429747904746 354.690695021888 L 347.51260861819117 354.6792112421459 L 347.51153729730186 354.67151117362874 L 347.51002096058505 354.65995504505395 L 347.50907167458826 354.65225817370884 L 347.5077290987431 354.64063093303355 L 347.50690126976565 354.63293995425437 L 347.5057336915243 354.6212428382108 L 347.50502666733735 354.61356043512205 L 347.504035323432 354.6017946804423 L 347.50344837761025 354.5941235208632 L 347.50263450477314 354.58229036427946 L 347.5021668370133 354.57463309768855 L 347.5015316719766 354.5627337759331 L 347.5011824085712 354.55509303038343 L 347.500727188067 354.5431287801884 L 347.5004953825415 354.53550715923706 L 347.50022134330203 354.5234792173346 L 347.50010597721285 354.5158792969783 L 347.50001435597034 354.50378890010063 L 347.5003308058037 354.50378650203817 L 347.50001435597005 354.4962110998993 L 347.50010597721257 354.48412070302163 L 347.50022134330175 354.4765207826653 L 347.5004953825412 354.4644928407629 L 347.5007271880667 354.45687121981155 L 347.5011824085709 354.4449069696165 L 347.5015316719764 354.43726622406444 L 347.5021668370132 354.425366902309 L 347.5026345047729 354.4177096357203 L 347.50344837761 354.4058764791366 L 347.50403532343176 354.3982053195577 L 347.5050266673371 354.38643956487795 L 347.5057336915241 354.37875716178945 L 347.5069012697654 354.3670600457458 L 347.50772909874286 354.3593690669664 L 347.50907167458803 354.3477418262911 L 347.5100209605848 354.340044954946 L 347.51153729730163 354.3284888263712 L 347.51260861819094 354.320788757854 L 347.51429747904723 354.3093049781119 L 347.5154913383367 354.3016044171108 L 347.51735148660026 354.2901942229335 L 347.5186683135734 354.2824958804819 L 347.5206985125121 354.2711605086017 L 347.5221386625075 354.26346709921904 L 347.52433767538906 354.25220778636805 L 347.52590143022235 354.24452202522855 L 347.52826802031467 354.23334000813895 L 347.5299555888236 354.2256646083611 L 347.53248851939446 354.2145611237651 L 347.5343000381123 354.20689879375095 L 347.5369980724296 354.19587507838077 L 347.5389336063655 354.1882285192851 L 347.5417955076969 354.17728580987284 L 347.5438550512359 354.16965771311624 L 347.54687958284933 354.1587972463941 L 347.549063060733 354.1511902913479 L 347.55224898589626 354.14041330404814 L 347.5545562543038 354.1328301557834 L 347.5579023362847 354.12213788463805 L 347.5603331839911 354.11458119179775 L 347.56383818605747 354.1039748735392 L 347.5663923356531 354.0964472663524 L 347.5700550210728 354.0859281377127 L 347.5727321302539 354.0784322260954 L 347.57655126229463 354.0680015238067 L 347.5793509251959 354.0605398956064 L 347.58332526712553 354.0501988564009 L 347.58624701569533 354.0427740757586 L 347.59037533078174 354.0325239363686 L 347.59341863618033 354.02513854221934 L 347.59769968769126 354.0149805393769 L 347.6008639617258 354.0076370440331 L 347.60529651292904 353.9975724144705 L 347.6085811094834 353.99027330236765 L 347.6131639236469 353.980303282817 L 347.61656814011627 353.9730510093673 L 347.62129998050773 353.96317683656076 L 347.6248230592373 353.9559738271 L 347.6297026891246 353.9461967377698 L 347.6333438188195 353.9390453866446 L 347.63837000147043 353.92936661752293 L 347.6421283185894 353.92226928727047 L 347.6472998172718 353.9126900750895 L 347.6511744073884 353.9056490957216 L 347.65648998537 353.8961706772135 L 347.66047988450237 353.8891883455882 L 347.6659383050511 353.8798119574851 L 347.67004250093134 353.87289053679575 L 347.67564252731495 353.86361741583 L 347.67985996062816 353.8567591351446 L 347.6856003561145 353.8475905180482 L 347.6899299216742 353.8407975719406 L 347.69580944953105 353.8317346954458 L 347.7002499973942 353.8250092436985 L 347.7062674208895 353.8160533445375 L 347.7108177574021 353.8093975119142 L 347.7169718398035 353.8005498268192 L 347.7216307286056 353.7939657028527 L 347.72792023318095 353.78522746855583 L 347.73268639611126 353.77871710743045 L 347.73911008612845 353.77008956066396 L 347.74398220407636 353.7636549811075 L 347.7505388428032 353.7551393586035 L 347.7555155564844 353.7487825438164 L 347.7622039071886 353.74038008230707 L 347.76728381786666 353.73410297989045 L 347.7741026438162 353.72581491610805 L 347.77928431390984 353.71961943805996 L 347.78623237837246 353.7114470087366 L 347.79151433204635 353.70533503138523 L 347.79859039828983 353.69727947325316 L 347.80397112194 353.69125283723344 L 347.8111739532322 353.6833153870248 L 347.81665189592 353.67737589722725 L 347.82398025552874 353.6695577916742 L 347.8295538293524 353.6637072171763 L 347.8370064805455 353.6560096930111 L 347.8426740609448 353.65024976699 L 347.85024976699003 353.6426740609447 L 347.8560096930111 353.63700648054544 L 347.86370721717634 353.62955382935235 L 347.8695577916715 353.62398025553125 L 347.8773758972245 353.6166518959225 L 347.88331538702477 353.6111739532321 L 347.8912528372334 353.6039711219399 L 347.89727947325315 353.59859039828973 L 347.9053350313852 353.59151433204624 L 347.9114470087366 353.58623237837236 L 347.91961943805995 353.57928431390974 L 347.92581491610804 353.5741026438161 L 347.93410297989044 353.56728381786655 L 347.94038008230416 353.56220390719085 L 347.9487825438134 353.55551555648657 L 347.95513935860515 353.55053884280176 L 347.96365498110913 353.54398220407495 L 347.9700895606635 353.5391100861287 L 347.97871710743004 353.53268639611144 L 347.9852274685558 353.5279202331808 L 347.9939657028527 353.52163072860543 L 348.00054982681615 353.5169718398054 L 348.0093975119111 353.51081775740397 L 348.0160533445393 353.5062674208881 L 348.02500924370025 353.50024999739287 L 348.03173469544384 353.4958094495321 L 348.04079757193864 353.4899299216752 L 348.047590518047 353.485600356115 L 348.05675913514335 353.4798599606287 L 348.063617415831 353.47564252731405 L 348.0728905367968 353.47004250093045 L 348.0798119574839 353.46593830505157 L 348.08918834558693 353.46047988450283 L 348.0961706772114 353.4564899853709 L 348.1056490957195 353.45117440738926 L 348.11269007508827 353.4472998172721 L 348.1222692872692 353.4421283185897 L 348.12936661752383 353.43837000146965 L 348.13904538664553 353.43334381881874 L 348.14619673776866 353.42970268912484 L 348.1559738270988 353.42482305923755 L 348.1631768365606 353.42129998050746 L 348.1730510093671 353.416568140116 L 348.1803032828168 353.4131639236466 L 348.1902733023675 353.4085811094831 L 348.1975724144681 353.40529651292974 L 348.2076370440307 353.40086396172643 L 348.2149805393767 353.39769968769093 L 348.22513854221916 353.39341863618 L 348.2325239363684 353.3903753307814 L 348.2427740757584 353.386247015695 L 348.2501988563985 353.38332526712605 L 348.260539895604 353.3793509251964 L 348.2680015238057 353.3765512622945 L 348.27843222609437 353.3727321302538 L 348.28592813771473 353.3700550210716 L 348.29644726635445 353.366392335652 L 348.30397487353895 353.36383818605714 L 348.3145811917975 353.36033318399075 L 348.32213788463554 353.3579023362851 L 348.33283015578087 353.35455625430416 L 348.3404133040479 353.35224898589587 L 348.3511902913477 353.3490630607326 L 348.35879724639324 353.3468795828491 L 348.3696577131153 353.34385505123566 L 348.37728580987016 353.34179550769716 L 348.3882285192824 353.3389336063657 L 348.3958750783834 353.3369980724284 L 348.40689879375367 353.33430003811117 L 348.414561123762 353.3324885193947 L 348.4256646083579 353.3299555888238 L 348.43334000813866 353.3282680203142 L 348.44452202522825 353.3259014302219 L 348.45220778636536 353.3243376753891 L 348.46346709921636 353.3221386625074 L 348.4711605086038 353.3206985125112 L 348.482495880484 353.3186683135726 L 348.4901942229304 353.3173514866003 L 348.50160441710767 353.31549133833664 L 348.5093049781116 353.31429747904673 L 348.52078875785367 353.31260861819044 L 348.52848882637085 353.31153729730113 L 348.54004495494564 353.3100209605843 L 348.54774182628836 353.3090716745878 L 348.55936906696365 353.3077290987426 L 348.5670600457452 353.30690126976486 L 348.5787571617888 353.3057336915235 L 348.58643956487754 353.30502666733656 L 348.5982053195573 353.3040353234312 L 348.6058764791338 353.30344837760964 L 348.6177096357175 353.30263450477247 L 348.625366902311 353.30216683701246 L 348.6372662240664 353.30153167197574 L 348.64490696961377 353.3011824085704 L 348.6568712198088 353.30072718806616 L 348.6644928407625 353.3004953825406 L 348.6765207826649 353.30022134330113 L 348.6841207030212 353.30010597721196 L 348.6962110998989 353.30001435596944 L 348.70000000000044 353.2999999999994 Z" id="element_319" /></svg>