<?xml version='1.0' encoding='utf-8'?>
<svg xmlns:svg="http://www.w3.org/2000/svg" version="1.1" id="Layer_1" x="0px" y="0px" viewBox="0 0 500 500" style="width: 188px;" xml:space="preserve" data-imageid="factory-worker-58" imageName="Factory Worker" class="illustrations_image"><svg:style type="text/css">
	.st0_factory-worker-58{fill:#4AA4E8;}
	.st1_factory-worker-58{fill:#473E39;}
	.st2_factory-worker-58{fill:#E0D6CD;}
	.st3_factory-worker-58{opacity:0.63;fill:url(#SVGID_1_);enable-background:new    ;}
	.st4_factory-worker-58{fill:#68E1FD;}
	.st5_factory-worker-58{opacity:0.61;fill:#3A3935;enable-background:new    ;}
	.st6_factory-worker-58{fill:#EDA421;}
	.st7_factory-worker-58{fill:#754C24;}
	.st8_factory-worker-58{fill:#E05342;}
	.st9_factory-worker-58{fill:#3A3935;}
	.st10_factory-worker-58{opacity:0.63;fill:url(#SVGID_00000002357216511214276740000009219274794042331277_);enable-background:new    ;}
	.st11_factory-worker-58{opacity:0.5;fill:#3A3935;enable-background:new    ;}
	.st12_factory-worker-58{opacity:0.2;fill:#3A3935;enable-background:new    ;}
	.st13_factory-worker-58{opacity:0.63;fill:url(#SVGID_00000062879558210823061030000003876816625058579846_);enable-background:new    ;}
	.st14_factory-worker-58{opacity:0.63;fill:url(#SVGID_00000107563316759563581290000009093506711244094644_);enable-background:new    ;}
	.st15_factory-worker-58{fill:#FFC8A9;}
	.st16_factory-worker-58{fill:#A2C609;}
	.st17_factory-worker-58{opacity:0.3;fill:#3A3935;enable-background:new    ;}
	.st18_factory-worker-58{opacity:0.63;fill:url(#SVGID_00000084514778806881865860000017573732512895611789_);enable-background:new    ;}
</svg:style><svg:path class="st9_factory-worker-58" d="M 274.55050627569324 230.4578805109722 L 274.5720299204165 230.59355351752035 L 274.5935466410887 230.73038848841543 L 274.6150517621821 230.86832458245547 L 274.63654063776943 231.00730106885058 L 274.658008648541 231.14725731749203 L 274.6794511992567 231.28813279080364 L 274.70086371640906 231.42986703589085 L 274.72224164622037 231.57239967794783 L 274.74358045277216 231.7156704137195 L 274.76487561650225 231.85961900669977 L 274.786122632647 232.0041852813316 L 274.80731701005277 232.14930911914502 L 274.8284542699916 232.29493045444318 L 274.8495299451647 232.44098927083968 L 274.8705395787299 232.58742559758142 L 274.89147872359354 232.7341795073698 L 274.91234294152383 232.88119111263535 L 274.9331278026567 233.02840056429892 L 274.9538288847351 233.1757480484211 L 274.9744417727321 233.32317378535149 L 274.99496205829814 233.47061802744994 L 275.0153853393332 233.61802105752557 L 275.0357072196118 233.765323187499 L 275.0559233085084 233.91246475766405 L 275.0760292206361 234.05938613519714 L 275.0960205755705 234.20602771317124 L 275.1158929977057 234.35232991043844 L 275.13564211601295 234.4982331707098 L 275.1552635638407 234.64367796185934 L 275.17475297882083 234.78860477592661 L 275.19410600277615 234.93295412907293 L 275.2133182816022 235.07666656127262 L 275.2323854653012 235.21968263708843 L 275.2513032077457 235.36194294435614 L 275.2700671670294 235.50338809722825 L 275.28867300506664 235.64395873351253 L 275.3071163881938 235.78359551951044 L 275.3253929866527 235.9222391463627 L 275.34349847529637 236.05983033558323 L 275.3614285333704 236.196309837543 L 275.379178844927 236.33161843468858 L 275.3967450989821 236.46569694274646 L 275.4141229900397 236.59848621466173 L 275.4313082180393 236.72992714004118 L 275.4482964892582 236.85996065180777 L 275.465083516697 236.98852772879894 L 275.48166502035576 237.11556939739765 L 275.4980366333938 237.24102601179337 L 275.5141933900065 237.36483332891808 L 275.53013179494644 237.48693836925077 L 275.54584760027757 237.60728237727636 L 275.5613365696643 237.72580667576804 L 275.57659447983343 237.84245267519682 L 275.5916171222941 237.9571618846972 L 275.60640030537337 238.06987592489756 L 275.62093985662824 238.180536542969 L 275.6352316257183 238.28908563034938 L 275.64927148784056 238.39546524370337 L 275.6630553478561 238.4996176298084 L 275.6765791452722 238.6014852552499 L 275.6898388602946 238.70101084203102 L 275.70283052121687 238.79813741049892 L 275.7155502135083 238.89280833140802 L 275.72799409106335 238.98496738944206 L 275.7401583902315 239.0745588612476 L 275.7520394474601 239.1615276119881 L 275.7636337216678 239.24581921573 L 275.7637040691726 239.24632869896 L 275.77493782289184 239.32738010682502 L 275.77501717663625 239.32795022976006 L 275.7859485493368 239.40615777197127 L 275.7860382727092 239.40679668290082 L 275.7966629358285 239.4821009963135 L 275.7967646929711 239.48281846067138 L 275.80707831794655 239.55516018214072 L 275.8071941597721 239.5559680000639 L 275.8171924180409 239.6252877664452 L 275.81732489928106 239.62620032687104 L 275.82700346228074 239.6924387750195 L 275.82715580332456 239.6934738013317 L 275.8365103424924 239.75657156810254 L 275.8366866571525 239.7577511372288 L 275.84571284392587 239.81764885947732 L 275.8459184663638 239.81900081884623 L 275.85461197218 239.87563913342763 L 275.85485393664607 239.87719910935513 L 275.8632104329426 239.9305186531246 L 275.8634981955191 239.93233295959894 L 275.87151335373323 239.9822743694118 L 275.87185990937456 239.98440432529264 L 275.8795294009437 240.0309082380041 L 275.87995306942355 240.03343675600578 L 275.88727256578494 240.07644380847105 L 275.8877999567114 240.07948578045156 L 275.8947651293025 240.1189366095259 L 275.8954362868556 240.12265590109678 L 275.9020428071138 240.15849114363542 L 275.9029206182036 240.16312966349696 L 275.90916415756624 240.19528995635514 L 275.9092924536806 240.19526504918642 L 275.90970966215457 240.19805806756898 L 275.93395208639697 240.3192701887811 L 275.9460732985183 240.3798762493876 L 275.99455814700303 240.62230049181142 L 276.00667935912435 240.6829065524179 L 276.0188005712455 240.74351261302354 L 276.0672854197303 240.98593685544776 L 276.0794066318516 241.04654291605425 L 276.12789148033636 241.28896715847807 L 276.1400126924577 241.34957321908456 L 276.1884975409424 241.59199746150838 L 276.20061875306374 241.65260352211487 L 276.2127399651849 241.7132095827205 L 276.2491036015485 241.89502776453867 L 276.2612248136698 241.95563382514516 L 276.30970966215455 242.19805806756898 L 276.32183087427586 242.25866412817547 L 276.3824369348818 242.56169443120535 L 276.3945581470031 242.62230049181184 L 276.40667935912427 242.68290655241748 L 276.41880057124547 242.74351261302354 L 276.4430429954879 242.86472473423564 L 276.4551642076092 242.92533079484213 L 276.50364905609393 243.16775503726595 L 276.51577026821525 243.22836109787244 L 276.5642551167 243.47078534029626 L 276.5763763288213 243.53139140090275 L 276.60061875306366 243.65260352211445 L 276.61273996518486 243.7132095827205 L 276.62486117730606 243.77381564332654 L 276.6369823894274 243.83442170393303 L 276.6975884500333 244.13745200696292 L 276.70970966215464 244.1980580675694 L 276.7581945106394 244.44048230999323 L 276.7703157227607 244.50108837059972 L 276.80667935912425 244.68290655241748 L 276.81880057124545 244.74351261302354 L 276.83092178336676 244.80411867363 L 276.8794066318515 245.04654291605382 L 276.8915278439728 245.1071489766603 L 276.94001269245757 245.34957321908414 L 276.9521339045789 245.41017927969062 L 277.00061875306363 245.65260352211445 L 277.01273996518484 245.7132095827205 L 277.02486117730615 245.77381564332697 L 277.0733460257909 246.0162398857508 L 277.0854672379122 246.07684594635728 L 277.10970966215456 246.19805806756898 L 277.12155655702685 246.24523040961157 L 277.1379306345081 246.29102853575807 L 277.158676957918 246.33501908970857 L 277.1835992190075 246.3767858189806 L 277.2124615954894 246.41593351362167 L 277.2449909824634 246.45209174581015 L 277.2808795766202 246.48491837496002 L 277.3197877887739 246.514102785163 L 277.3613474571617 246.53936882433413 L 277.4051653311062 246.56047741724976 L 277.4508267920778 246.57722882775263 L 277.49789977694536 246.58946454871844 L 277.545938866294 246.5970688019001 L 277.59448949912377 246.59996963345793 L 277.6430922740491 246.59813959480977 L 277.69128729629955 246.59159600235793 L 277.7386185293889 246.58040077363597 L 277.7846381102762 246.56465984142554 L 277.8289105871869 246.544522151387 L 277.87101703999474 246.52017825268862 L 277.91055904417607 246.49185849497036 L 277.9471624408281 246.45983084870295 L 277.98048087707843 246.42439836956686 L 278.01019908338503 246.38589633084405 L 278.14959302277896 246.18589633084406 L 278.19605766924366 246.11922966417728 L 278.2889869621729 245.98589633084404 L 278.3354516086374 245.9192296641776 L 278.52131019449615 245.65256299751073 L 278.56777484096085 245.58589633084395 L 278.84656271974865 245.18589633084406 L 278.8930273662132 245.11922966417762 L 278.93949201267804 245.05256299751062 L 279.21827989146584 244.65256299751073 L 279.26474453793054 244.58589633084395 L 279.4041384773244 244.38589633084405 L 279.45060312378894 244.3192296641776 L 279.58999706318303 244.1192296641774 L 279.63646170964773 244.05256299751062 L 279.91524958843553 243.65256299751073 L 279.9617142349002 243.58589633084395 L 280.0081788813648 243.51922966417737 L 280.05464352782934 243.45256299751094 L 280.2869667601527 243.1192296641774 L 280.3334314066174 243.05256299751062 L 280.5657546389406 242.7192296641774 L 280.6122192854051 242.65256299751096 L 280.65868393187 242.58589633084395 L 280.9839364571224 242.1192296641774 L 281.0304011035871 242.05256299751062 L 281.12333039651634 241.91922966417738 L 281.14638874062496 241.88614595306507 L 281.11973855397304 241.85798017369368 L 281.11193245241213 241.8495377779682 L 281.04274996330315 241.7729682875328 L 281.0334985426467 241.76243590658484 L 280.97246179005805 241.690951240518 L 280.96137152022106 241.67749431058937 L 280.9086623037837 241.61121505027887 L 280.909074880721 241.61088694451874 L 280.89943802301104 241.59924923156245 L 280.85028595751373 241.53345641924378 L 280.8451742627373 241.5264893664682 L 280.79471249785865 241.45645085256683 L 280.790266888339 241.45017946923744 L 280.7385325260444 241.3759960474262 L 280.7346359748141 241.3703259204894 L 280.68166611706926 241.29209838444123 L 280.6782266280839 241.28695047482015 L 280.6240583768541 241.2047796182079 L 280.62100281231926 241.2000874965083 L 280.5656732695701 241.11407411300488 L 280.5629428737956 241.10978169763843 L 280.5064891414924 241.02002658091666 L 280.5040362535718 241.01608630195324 L 280.44649543368024 240.92269024568606 L 280.44428104388277 240.9190615586968 L 280.38569023836817 240.82212535655702 L 280.383682150758 240.81877353968045 L 280.3240784615859 240.71839798534103 L 280.32224989744344 240.71529316377132 L 280.2616704265793 240.61157905090508 L 280.25999895199766 240.60869540341633 L 280.19848080140696 240.50174352569616 L 280.1969474958778 240.49905863683344 L 280.13452776752604 240.38896978793224 L 280.13311657352045 240.38646411694353 L 280.06983236937305 240.27333909053414 L 280.06852957917704 240.27099553410542 L 280.00441800119955 240.15493512386075 L 280.0032118487945 240.15273865448398 L 279.9383099989523 240.0338436540769 L 279.9371903329849 240.03178101962592 L 279.87153531324356 239.9101522227293 L 279.8704933331104 239.90821169578143 L 279.8041222454354 239.78394989606815 L 279.8031502868707 239.78212106382261 L 279.73610023322743 239.65532705496554 L 279.73519159300395 239.65360064243322 L 279.66749967535793 239.52437521810526 L 279.6666484671078 239.52274293868885 L 279.5983517874245 239.39118689256284 L 279.59755282238325 239.38964132127794 L 279.5286884826282 239.25585544702682 L 279.5279371704623 239.25438991251494 L 279.4585422726009 239.11847500381154 L 279.457834538518 239.1170834960187 L 279.3879461845158 238.9791403465359 L 279.3872783996486 238.97781743749832 L 279.31693369147104 238.837946840909 L 279.31630261413943 238.83668761654934 L 279.24553865375196 238.6949903665264 L 279.2449413796886 238.69379036773412 L 279.1737952690567 238.55036725795043 L 279.1732291890508 238.54922242951852 L 279.10173803014004 238.40417425364697 L 279.1012007938522 238.40308089988173 L 279.0294016886279 238.25650845159518 L 279.0288911735576 238.25546319760798 L 278.95682122398534 238.1074672705793 L 278.9563355087642 238.1064670284419 L 278.88403181680945 237.95714841634398 L 278.88356915813443 237.95619035540966 L 278.8110688257627 237.80564985191538 L 278.8106276384095 237.80473137272605 L 278.7379677675862 237.65306977150829 L 278.7375466070359 237.6521884827949 L 278.66476429972647 237.49950657752652 L 278.6643618470171 237.49866027588607 L 278.59149420518713 237.34505886023996 L 278.5911092536688 237.34424551213476 L 278.5181933792837 237.18982537978383 L 278.51782482300285 237.1890431055606 L 278.4448978180281 237.03390505017765 L 278.44454464151625 237.03315210984894 L 278.3716436079173 236.87739692510692 L 278.37130487718815 236.87667170567232 L 278.2984669169306 236.72040018524407 L 278.29814177152605 236.7197011893635 L 278.2254039865752 236.5630141269219 L 278.2250916325177 236.5623399627717 L 278.1524911248392 236.40533815198967 L 278.1521908283763 236.40468752416703 L 278.0797646999355 236.2474717587174 L 278.0794757819726 236.24684346006316 L 278.0397718523495 236.16034332661138 L 277.982225420437 236.1797317178945 L 277.9781772531199 236.18107641484343 L 277.9182819012747 236.2006888229774 L 277.91347964932504 236.2022345138692 L 277.8577335339524 236.21986753214503 L 277.8519522303726 236.22165779539066 L 277.8004567635113 236.23726319125316 L 277.7933729679993 236.23935289677223 L 277.7462295616885 236.25288243766633 L 277.7373617623746 236.25533928813144 L 277.6946718286531 236.26674474150198 L 277.6832725554293 236.26964706093426 L 277.6451375063362 236.27888019422616 L 277.6299858401638 236.28230042408967 L 277.59650708773796 236.2893130047478 L 277.5754799303459 236.2932498573719 L 277.54675888662644 236.29799365284114 L 277.51586831745414 236.30211144286602 L 277.49200639447986 236.30453822059124 L 277.44304450540585 236.30710144981157 L 277.4241431152158 236.30716297723765 L 277.3812918065452 236.30546333276789 L 277.3387437599685 236.30009796431744 L 277.32490431460167 236.29774600888925 L 277.2699839407833 236.28519319596364 L 277.2168243029317 236.26654182935988 L 277.16610027765597 236.24202869344205 L 277.1574241891512 236.23721502260452 L 277.11616331166135 236.21162693589338 L 277.0775786851108 236.1821576843466 L 277.0420341177996 236.1490851288447 L 277.00986475379307 236.11272110524735 L 277.00261863687444 236.10368121135897 L 276.97209742458523 236.0612343074804 L 276.96251326547554 236.0463174622605 L 276.9495960755845 236.02506914594042 L 276.937723343571 236.00439778587514 L 276.93070147425453 235.99175208142438 L 276.9165896386245 235.96544864299972 L 276.9122030119483 235.9570835741448 L 276.895901541989 235.92527049384688 L 276.8929091825971 235.91933384564888 L 276.87446754759594 235.88213355996373 L 276.8722989547741 235.87770433852452 L 276.85176662401835 235.83523928393825 L 276.8501241383678 235.83180905984065 L 276.8275505811447 235.78420167283934 L 276.8262641117955 235.78146720761254 L 276.8016987973925 235.7288399246822 L 276.8006642509918 235.72660927905292 L 276.774156648696 235.6690845366797 L 276.7733068153316 235.66723035364913 L 276.74490639443036 235.60493058831906 L 276.74419597074063 235.60336506254808 L 276.71395220052136 235.53641271074724 L 276.71334955157073 235.53507335272474 L 276.68131190132067 235.46359085093923 L 276.6807942749766 235.46243198271955 L 276.64701221398303 235.38654176743538 L 276.64656283187713 235.38552922868018 L 276.6110858294274 235.3053537363835 L 276.61069204955925 235.30446147130888 L 276.5735695749406 235.2201231384857 L 276.5732216924418 235.21933092802087 L 276.53450321494154 235.1309521911573 L 276.5341936567963 235.130244105941 L 276.49392864570177 235.03794740152307 L 276.493651416402 235.0373107219842 L 276.4518893410005 234.94121848649803 L 276.4516396324814 234.94064293342387 L 276.4084299620602 234.8408776033555 L 276.40820387383405 234.84035477960154 L 276.3635960776805 234.73703879143707 L 276.3633904125032 234.73656177015263 L 276.31724607223236 234.6293805767832 L 276.2698181144667 234.51892879944583 L 276.2211541514813 234.4053247867747 L 276.1713020793996 234.2886874966456 L 276.1203100259857 234.16913638677494 L 276.06822630954355 234.0467913280692 L 276.0150994062657 233.92177253539663 L 275.9609779240688 233.79420051182126 L 275.90591058146424 233.66419600334535 L 275.8499461903684 233.53187996192082 L 275.79313364201926 233.39737351501466 L 275.7355218953681 233.2607979404204 L 275.67715996744903 233.1222746452814 L 275.6180969253481 232.98192514853469 L 275.55838187946676 232.83987106613574 L 275.49806397784573 232.69623409856686 L 275.4371924013583 232.55113602022797 L 275.37581635962124 232.4046986703847 L 275.3139850875017 232.25704394541447 L 275.2517478421224 232.10829379214087 L 275.1891539002818 231.95857020207785 L 275.1262525562254 231.8079952064459 L 275.0630931197138 231.65669087183997 L 274.9997249143407 231.50477929645214 L 274.9361972760662 231.3523826067695 L 274.87255955193166 231.19962295467528 L 274.80886109893277 231.04662251490188 L 274.74515128302625 230.89350348278236 L 274.6814794782539 230.74038807226322 L 274.61789506596705 230.58739851414305 L 274.55444743413875 230.43465705450637 L 274.5419806545358 230.40462965686658 L 274.55050627569324 230.4578805109722 Z M 274.5505355556409 224.26729694320503 L 274.5064762030079 224.24462369671727 L 274.4603890040924 224.22642279682583 L 274.4127265909829 224.21287299840247 L 274.3639570662783 224.2041073768717 L 274.3145594057537 224.2002120212489 L 274.2650187542383 224.20122518864224 L 274.21582166090616 224.2071369285213 L 274.1674513007738 224.21788918044348 L 274.120382729337 224.2333763442778 L 274.07507821695043 224.25344631732588 L 274.0319827087734 224.27790198815492 L 273.9915194548695 224.30650317247023 L 273.95408585337856 224.33896897201606 L 273.9200495475859 224.37498053333636 L 273.88974481522035 224.41418417930177 L 273.8634692854418 224.4561948826474 L 273.8414810157631 224.50060004740632 L 273.82399595761234 224.54696356110188 L 273.8111858354288 224.5948300778999 L 273.8031764601207 224.64372949065617 L 273.8011291622266 224.67607587110987 L 274.5698763898556 224.27981441356914 L 274.5505355556409 224.26729694320503 Z" id="element_175" /></svg>