<?xml version='1.0' encoding='utf-8'?>
<svg xmlns:svg="http://www.w3.org/2000/svg" version="1.1" id="Layer_1" x="0px" y="0px" viewBox="0 0 500 500" style="width: 188px;" xml:space="preserve" data-imageid="factory-worker-58" imageName="Factory Worker" class="illustrations_image"><svg:style type="text/css">
	.st0_factory-worker-58{fill:#4AA4E8;}
	.st1_factory-worker-58{fill:#473E39;}
	.st2_factory-worker-58{fill:#E0D6CD;}
	.st3_factory-worker-58{opacity:0.63;fill:url(#SVGID_1_);enable-background:new    ;}
	.st4_factory-worker-58{fill:#68E1FD;}
	.st5_factory-worker-58{opacity:0.61;fill:#3A3935;enable-background:new    ;}
	.st6_factory-worker-58{fill:#EDA421;}
	.st7_factory-worker-58{fill:#754C24;}
	.st8_factory-worker-58{fill:#E05342;}
	.st9_factory-worker-58{fill:#3A3935;}
	.st10_factory-worker-58{opacity:0.63;fill:url(#SVGID_00000002357216511214276740000009219274794042331277_);enable-background:new    ;}
	.st11_factory-worker-58{opacity:0.5;fill:#3A3935;enable-background:new    ;}
	.st12_factory-worker-58{opacity:0.2;fill:#3A3935;enable-background:new    ;}
	.st13_factory-worker-58{opacity:0.63;fill:url(#SVGID_00000062879558210823061030000003876816625058579846_);enable-background:new    ;}
	.st14_factory-worker-58{opacity:0.63;fill:url(#SVGID_00000107563316759563581290000009093506711244094644_);enable-background:new    ;}
	.st15_factory-worker-58{fill:#FFC8A9;}
	.st16_factory-worker-58{fill:#A2C609;}
	.st17_factory-worker-58{opacity:0.3;fill:#3A3935;enable-background:new    ;}
	.st18_factory-worker-58{opacity:0.63;fill:url(#SVGID_00000084514778806881865860000017573732512895611789_);enable-background:new    ;}
</svg:style><svg:path class="st7_factory-worker-58" d="M 136.9535240437135 190.56107389027954 L 136.9547449044997 190.56394764362773 L 136.95785198452532 190.57110559500052 L 136.95911984113448 190.57396512592862 L 136.96230541201953 190.58100265377695 L 136.9636196460855 190.58384734391885 L 136.96688084727683 190.5907667715125 L 136.9682408404336 190.59359600250212 L 136.97157503952016 190.6003997205343 L 136.97298017340157 190.60321287400555 L 136.97638496136602 190.6099033257854 L 136.977834617606 190.6126997833722 L 136.9813078036429 190.61927945102082 L 136.98280136387535 190.62205859435707 L 136.98634096993544 190.62852998609236 L 136.9878778157943 190.63129119681193 L 136.99148207090414 190.6376568351989 L 136.9930615840233 190.64039949493574 L 136.99672891847342 190.6466619060797 L 136.99835048048678 190.6493853964677 L 137.00207951994275 190.6555471000734 L 137.00374251248422 190.6582508027465 L 137.0075320720663 190.66431430296575 L 137.00923587676982 190.66699759955785 L 137.0130849551609 190.67296537658916 L 137.01482895366033 190.67562764873412 L 137.01873672728766 190.6815021511201 L 137.02052030121692 190.68414278045188 L 137.02448611852378 190.68992641798968 L 137.0263086495168 190.69254478614218 L 137.03033202534917 190.69823992334815 L 137.03219289503986 190.7008354119553 L 137.0362735051998 190.70644436207348 L 137.03817209522205 190.7090163527691 L 137.04230977114582 190.7145413721859 L 137.04424546313354 190.717089246604 L 137.0484401867906 190.72253252973638 L 137.05041236237773 190.72505566951082 L 137.05466426127663 190.73041934395556 L 137.05667230209704 190.73291713072027 L 137.06098164454275 190.7382032528039 L 137.06302493223035 190.7406750681928 L 137.06739212271015 190.7458856187184 L 137.06947003889886 190.74833084436534 L 137.07389561365449 190.75346772459358 L 137.07600753997824 190.7558857421325 L 137.08049216275177 190.76095076994878 L 137.08263748084443 190.76334096101357 L 137.0871819387732 190.76833586722452 L 137.08936003026872 190.77069761344916 L 137.09396522993117 190.77562403818922 L 137.09617547646343 190.77795672120754 L 137.10084244003622 190.78281621039503 L 137.1030842232391 190.78511921184096 L 137.10781408479315 190.78991321369935 L 137.11008678630063 190.79218591520683 L 137.11488078815674 190.79691577675865 L 137.11718378960268 190.79915755996157 L 137.12204327879473 190.8038245235388 L 137.12437596181306 190.80603477007102 L 137.12930238655082 190.81063996973126 L 137.13166413277546 190.81281806122678 L 137.1366590389864 190.81736251915555 L 137.1390492300512 190.8195078372482 L 137.14411425786747 190.82399246002174 L 137.1465322754064 190.8261043863455 L 137.15166915563464 190.83052996110112 L 137.15411438128157 190.83260787728983 L 137.15932493180455 190.83697506776747 L 137.16179674719342 190.8390183554551 L 137.16708286927755 190.84332769790123 L 137.16958065604223 190.84533573872164 L 137.17494433049185 190.84958763762444 L 137.1774674702663 190.85155981321154 L 137.18291075339314 190.85575453686428 L 137.18545862781124 190.85769022885202 L 137.19098364723297 190.86182790477955 L 137.19355563792863 190.8637264948018 L 137.1991645880455 190.86780710496075 L 137.20176007665262 190.8696679746514 L 137.20745521385777 190.87369135048317 L 137.21007358201027 190.8755138814762 L 137.215857219545 190.87947969878098 L 137.21849784887678 190.88126327271027 L 137.22437235126787 190.88517104634101 L 137.22703462341286 190.88691504484044 L 137.2330024004401 190.8907641232289 L 137.23568569703218 190.89246792793242 L 137.24174919725345 190.89625748751578 L 137.24445289992656 190.89792048005725 L 137.25061460353226 190.90164951951323 L 137.25333809392026 190.90327108152658 L 137.2596005050642 190.9069384159767 L 137.26234316480105 190.90851792909586 L 137.26870880318802 190.9121221842057 L 137.2714700139076 190.91365903006457 L 137.27794140564288 190.91719863612465 L 137.28072054897913 190.9186921963571 L 137.28730021662776 190.922165382394 L 137.29009667421454 190.92361503863398 L 137.2967871259908 190.92701982659662 L 137.29960027946203 190.92842496047805 L 137.3064039975015 190.93175915956823 L 137.3092332284911 190.93311915272497 L 137.31615265607738 190.93638035391277 L 137.31899734621928 190.93769458797877 L 137.32603487407513 190.94088015886723 L 137.32889440500324 190.94214801547636 L 137.33605235637222 190.9452550955003 L 137.3389261097204 190.94647595628652 L 137.34620672442182 190.94950145245946 L 137.349094081824 190.95067469905663 L 137.35649949901912 190.95361528228048 L 137.35939984210924 190.95474029632254 L 137.36693208193776 190.9575923984725 L 137.3698447923497 190.95866856159338 L 137.37750573631513 190.96142837347156 L 137.3804301956828 190.9624550673051 L 137.38822156574696 190.96511853760637 L 137.3911571557043 190.96609514378653 L 137.39908049225767 190.96865797929547 L 137.40202659443852 190.96958387945617 L 137.41008323298317 190.97204154657862 L 137.4130392290215 190.9729161223537 L 137.4212302756843 190.97526385019654 L 137.42419554721403 190.97608648321997 L 137.43252185328686 190.97831926844313 L 137.43549578194182 190.97908934034882 L 137.44395791732387 190.98120195391883 L 137.44693988473804 190.98191884634065 L 137.4555381105407 190.9839058424287 L 137.45852749834793 190.98456893700057 L 137.46726173885398 190.9864246642291 L 137.47025792868826 190.98703334258494 L 137.4791277427255 190.98875195778658 L 137.48213011622067 190.98930560156032 L 137.49113466834808 190.99088108627524 L 137.4941426071381 190.99137907710073 L 137.50328063870296 190.99280525694488 L 137.5062935244217 190.99324697645608 L 137.51556332505476 190.99451754356477 L 137.5185805393361 190.99490237339558 L 137.52797991899348 190.99601091202942 L 137.5310008434714 190.99633823381373 L 137.54052710555422 190.99727824925148 L 137.5435511218626 190.99754744462322 L 137.5532010378115 190.99831239539438 L 137.55622752758424 190.99852284598745 L 137.56599731337175 190.99910617945315 L 137.56902565824277 190.99925726690145 L 137.57891095329214 190.99965245814727 L 137.58194053489532 190.9997435640847 L 137.59193638391574 190.9999441580198 L 137.59496658388503 190.9999746640803 L 137.59999999999988 191.0 L 137.6 191.0 L 137.64589965228797 190.99788876460494 L 137.6914116846938 190.99157288767938 L 137.73615175076267 190.98110570643493 L 137.7797420232503 190.96657561560576 L 137.82181438485208 190.94810532096002 L 137.8620135369321 190.92585080305705 L 137.89999999999955 190.90000000000035 L 137.90808080808037 190.89393939393975 L 137.91616161616184 190.88787878787863 L 137.92424242424286 190.88181818181783 L 137.932323232323 190.87575757575775 L 137.9484848484844 190.86363636363672 L 137.95656565656589 190.8575757575756 L 137.9646464646469 190.8515151515148 L 137.97272727272704 190.84545454545471 L 137.98888888888845 190.83333333333368 L 137.99696969696947 190.8272727272729 L 138.00505050505006 190.82121212121248 L 138.01313131313242 190.81515151515066 L 138.0292929292925 190.80303030303065 L 138.0373737373735 190.79696969696988 L 138.0454545454541 190.79090909090945 L 138.05353535353646 190.78484848484763 L 138.06969696969654 190.77272727272762 L 138.07777777777756 190.76666666666685 L 138.08585858585815 190.76060606060642 L 138.0939393939405 190.7545454545446 L 138.10202020201976 190.7484848484852 L 138.11010101010078 190.74242424242442 L 138.1262626262622 190.7303030303034 L 138.13434343434454 190.72424242424157 L 138.1424242424238 190.71818181818216 L 138.15050505050482 190.7121212121214 L 138.16666666666623 190.70000000000036 L 138.17474747474859 190.69393939393854 L 138.18282828282784 190.68787878787913 L 138.19090909090886 190.68181818181836 L 138.20707070707027 190.66969696969733 L 138.21515151515175 190.66363636363621 L 138.22323232323276 190.65757575757542 L 138.2313131313129 190.65151515151533 L 138.2474747474743 190.6393939393943 L 138.2555555555558 190.63333333333318 L 138.2636363636368 190.62727272727238 L 138.27171717171694 190.6212121212123 L 138.28787878787836 190.60909090909126 L 138.29595959595983 190.60303030303015 L 138.30404040404085 190.59696969696935 L 138.31212121212099 190.59090909090926 L 138.3282828282824 190.57878787878823 L 138.33636363636387 190.57272727272712 L 138.3444444444449 190.56666666666632 L 138.35252525252503 190.56060606060623 L 138.36868686868644 190.5484848484852 L 138.3767676767679 190.5424242424241 L 138.38484848484893 190.5363636363633 L 138.39292929292907 190.5303030303032 L 138.40909090909048 190.51818181818217 L 138.4171717171715 190.5121212121214 L 138.4252525252521 190.50606060606097 L 138.43333333333445 190.49999999999915 L 138.44949494949452 190.48787878787914 L 138.45757575757554 190.48181818181837 L 138.46565656565613 190.47575757575794 L 138.4737373737385 190.46969696969612 L 138.48989898989856 190.4575757575761 L 138.49797979797958 190.45151515151534 L 138.50606060606017 190.4454545454549 L 138.51414141414253 190.43939393939309 L 138.52222222222179 190.43333333333368 L 138.5303030303028 190.4272727272729 L 138.54646464646422 190.41515151515188 L 138.55454545454657 190.40909090909005 L 138.56262626262583 190.40303030303065 L 138.57070707070685 190.39696969696988 L 138.58686868686826 190.38484848484885 L 138.5949494949506 190.37878787878702 L 138.60303030302987 190.37272727272762 L 138.6111111111109 190.36666666666684 L 138.6272727272723 190.3545454545458 L 138.63535353535377 190.3484848484847 L 138.6434343434348 190.3424242424239 L 138.65151515151493 190.3363636363638 L 138.66767676767634 190.32424242424278 L 138.6757575757578 190.31818181818167 L 138.68383838383883 190.31212121212087 L 138.69191919191897 190.30606060606078 L 138.69999999999956 190.30000000000035 L 138.73955067978022 190.26702225526634 L 138.77549969399897 190.2301514498025 L 138.8074657260094 190.18977867783474 L 138.83510970726152 190.14633217947886 L 138.85813841385325 190.10027279833272 L 138.87630757680094 190.05208909323824 L 138.88942447303734 190.00229215606356 L 138.89734996965456 189.95141019047435 L 138.89999999970792 189.8999829091971 L 138.8999997935859 189.89395270613596 L 138.89999833642204 189.88787873781394 L 138.8999943249806 189.88175685163188 L 138.89998638387257 189.8755827334621 L 138.89997305893962 189.86935208697332 L 138.89997156763266 189.86880330467443 L 138.8999528105279 189.86306064184575 L 138.89995018419987 189.8623930276927 L 138.899924006702 189.85670416271395 L 138.8999197510752 189.8559147627343 L 138.89988491645204 189.85027845887333 L 138.89987843143302 189.84936437425964 L 138.89983370295244 189.84377939478424 L 138.89982427600998 189.84273779320003 L 138.89976841693974 189.83720290137802 L 138.8997552166775 189.83603102918588 L 138.89968699028543 189.83054498828508 L 138.8996690602934 189.82924018361135 L 138.89958722984733 189.82380175689957 L 138.89956348292432 189.82236146362993 L 138.89946681169204 189.81696941437502 L 138.89943602454105 189.81539119707696 L 138.8993232757904 189.8100442885467 L 138.8992840842959 189.80832584828028 L 138.89915402129472 189.8030228437425 L 138.89910491650127 189.8011620348137 L 138.89895630251735 189.79590169753624 L 138.89889562743298 189.79389654509546 L 138.89872722573412 189.7886776383461 L 138.898653173093 189.78652635684298 L 138.89846374694704 189.78134764388957 L 138.8983743580664 189.7790486562803 L 138.89816267074116 189.7739089003906 L 138.8980558356153 189.7714608580353 L 138.89782065037858 189.7663588224772 L 138.89769410915233 189.76376062562932 L 138.89743418927196 189.7586950736706 L 138.89728553523344 189.75594589237718 L 138.89699964397724 189.75091558728568 L 138.8968263282116 189.74801488261372 L 138.8965132288474 189.74301858765722 L 138.89631256667812 189.73996613298274 L 138.8959710224737 189.73500261142905 L 138.89574020181425 189.7317985136326 L 138.89536897603745 189.7268665287496 L 138.89510506775576 189.72351124903105 L 138.8947029236744 189.7186095640865 L 138.89440289405553 189.7151039381491 L 138.89396859493743 189.71023131641087 L 138.8936293203043 189.70657657370893 L 138.89316162941728 189.70173177844478 L 138.89277991294034 189.69792956017622 L 138.8922775935522 189.693111354654 L 138.89185018424277 189.68916373013678 L 138.89131199962134 189.6843708776243 L 138.89083561346612 189.6802803587111 L 138.8902603268792 189.67551162247617 L 138.88973167003132 189.67128117564593 L 138.88911804474674 189.66653531895642 L 138.8885338386363 189.6621683746828 L 138.88788063792188 189.65744416080645 L 138.88723764610506 189.65294461985624 L 138.88654363322863 189.64824081206092 L 138.88583868974106 189.64361304837337 L 138.8851026279704 189.63892840992688 L 138.88433266689847 189.63417726974203 L 138.88355331950143 189.62951056391216 L 138.88271540543232 189.62464136084319 L 138.88189153567671 189.6199913508978 L 138.88098289464747 189.61500985672862 L 138.8801132658011 189.61037530593552 L 138.8791313163201 189.60528773695043 L 138.8782146916508 189.6006674085774 L 138.877157075323 189.59548040726582 L 138.87619221809857 189.59087306458073 L 138.8750568293836 189.5855936767648 L 138.87404250287187 189.58099808303544 L 138.8728275174452 189.5756337303306 L 138.87176248491397 189.5710486488248 L 138.8704663861493 189.56560709670143 L 138.86934941086642 189.56103129068697 L 138.867971013915 189.5555206122376 L 138.86680085914827 189.55095284498236 L 138.86533933215674 189.54538138080193 L 138.864114761174 189.54082041557368 L 138.86256964318054 189.53519673007827 L 138.86128941924954 189.53064133014485 L 138.85966063439074 189.52497416491263 L 138.85832352077938 189.52042309354184 L 138.85661138844145 189.51472131810598 L 138.8552161484175 189.51017333856566 L 138.8534213891246 189.50444589946014 L 138.85196678595588 189.4998997750181 L 138.8500905227771 189.4941556435943 L 138.84857531973145 189.48961013751833 L 138.8466190751465 189.48385825733084 L 138.8450420354917 189.4793121328888 L 138.84300772373456 189.47356136739998 L 138.84136761073844 189.46901338785966 L 138.83925752569283 189.4632724691014 L 138.83755310262325 189.4587213977306 L 138.8353699014869 189.45299887669634 L 138.83359993161164 189.44844347676292 L 138.83134661461483 189.4427476762044 L 138.8295098612017 189.43818671097614 L 138.82718974772035 189.43252568116736 L 138.8252849740372 189.42795791391214 L 138.8229016755359 189.42233939195143 L 138.82092764485049 189.41776358593697 L 138.818485035144 189.41219495906935 L 138.81644051072422 189.40760987756357 L 138.81394269405783 189.4020981508476 L 138.81182643917143 189.39750255711823 L 138.8092777166942 189.39205432578126 L 138.80708849460905 189.38744698309617 L 138.80449332975834 189.38206840967283 L 138.80222990374224 189.3774480812998 L 138.79959288713187 189.37214487772556 L 138.79725402045264 189.36751032693246 L 138.79457983476797 189.36228774151445 L 138.7921642906934 189.35763773156907 L 138.78945767611856 189.35250054077963 L 138.7869642179165 189.34783383494977 L 138.78422993852575 189.34278633980318 L 138.78165732946402 189.3381017013567 L 138.77890014104207 189.33314772822 L 138.77624714438846 189.3284439204247 L 138.77347176398925 189.32358682585914 L 138.7707371430116 189.3188626119828 L 138.76794822058417 189.3141052913201 L 138.76513073855028 189.30935943463055 L 138.76233283086177 189.30470433387947 L 138.75943125103947 189.29993559764455 L 138.7566287980784 189.29538472832846 L 138.7536418837355 189.29059187581598 L 138.75083918771517 189.28614683232013 L 138.7477657021195 189.28132862679792 L 138.74496690913642 189.27699060579334 L 138.7418056155558 189.27214581052922 L 138.73901469992754 189.26791563207863 L 138.73576436162975 189.26304301034037 L 138.73298511286978 189.25892114027522 L 138.72964449312266 189.25401945533068 L 138.7268805054883 189.2500060285394 L 138.7234483675597 189.2450740436564 L 138.7207030320465 189.24116888790644 L 138.71717813920415 189.23620536635278 L 138.71445463788743 189.232408026382 L 138.71083575339927 189.2274117314255 L 138.7081370559067 189.22372149293204 L 138.70442294304044 189.2186911878405 L 138.7017518050601 189.21510710123027 L 138.69794122708362 189.21004154927155 L 138.6953001906528 189.20656245284488 L 138.69139191083391 189.20146041728677 L 138.688783306261 189.1980849597383 L 138.68477608786748 189.19294520384864 L 138.6822020370998 189.18967186593275 L 138.67809464339953 189.18449315297931 L 138.67555706460837 189.1813202681653 L 138.6713482588691 189.17610136141596 L 138.6688488721411 189.17302713553372 L 138.6645374176307 189.16776679825622 L 138.66207775150662 189.16478932795664 L 138.65766241149285 189.15948632341886 L 138.65524381027922 189.1566036135189 L 138.65072334802997 189.15125670498867 L 138.64834697964724 189.14846668457366 L 138.64372015843026 189.14307463531873 L 138.641387022729 189.14037517268633 L 138.63665260581215 189.13493674597458 L 138.63436354317963 189.13232566236925 L 138.62952029383072 189.12683962146846 L 138.62727599399852 189.1243147036604 L 138.62232267548538 189.11877981183838 L 138.62012368643136 189.11633882357486 L 138.61505906202177 189.11075384409946 L 138.6129057988764 189.1083945364698 L 138.60772863183817 189.10275823260883 L 138.60562138571962 189.10047835337252 L 138.60033043932063 189.0947894883938 L 138.59826938601626 189.09258679030881 L 138.59286342352428 189.08684412748013 L 138.5908486320051 189.08471637573226 L 138.585326416688 189.07891867832146 L 138.58335785735457 189.07686365705328 L 138.5777181524801 189.0710096883282 L 138.57579570515549 189.0690252063833 L 138.5700372739915 189.0631137296117 L 138.5681607355844 189.061197625502 L 138.56228234139869 189.05522740395173 L 138.5604514332606 189.0533775501547 L 138.5561110034912 189.04901497609626 L 138.43644952666924 188.92645788307163 L 138.3146649079339 188.8019333033731 L 138.19265938124283 188.67740852493074 L 138.07042733343852 188.55289662802562 L 138.07005828914535 188.55252109713774 L 137.94796314115487 188.4284106940558 L 137.94756780010897 188.42800928029445 L 137.8252611709153 188.3039638056521 L 137.82483945491987 188.3035366073156 L 137.70231577922814 188.17956904680076 L 137.70186760016796 188.17911616367542 L 137.57912131268338 188.05523950297598 L 137.5786465726207 188.05476103647592 L 137.45567210804845 187.93098826127982 L 137.4551706993199 187.93048431459616 L 137.33196249236514 187.8068284105913 L 137.33143429767867 187.806299088849 L 137.20798678304658 187.68277304172332 L 137.2074316755799 187.68221845214688 L 137.08373928797565 187.5588352475883 L 137.08315713147564 187.55825549967537 L 136.95921430560446 187.43502812337178 L 136.95860495448824 187.43442332907503 L 136.83440612505524 187.31136476671435 L 136.83376942451378 187.3107350406322 L 136.7093090262242 187.18785827790236 L 136.70864481232763 187.18720373747695 L 136.58391727988658 187.06452176006587 L 136.58322537969343 187.0638425257905 L 136.45822514780616 186.94136831938607 L 136.45750537947407 186.94066451501914 L 136.3322268828457 186.8184110653093 L 136.33147905574805 186.81768281809843 L 136.2059167290838 186.6956631107711 L 136.20514064392847 186.69491055168334 L 136.07928892193348 186.57313757242645 L 136.07848437088782 186.57236083638838 L 135.9523376882673 186.4508475708898 L 135.95150445508676 186.450046797034 L 135.8250572465459 186.32880623098166 L 135.8241951067093 186.32798156290244 L 135.69744180695326 186.2070266819843 L 135.6965505278039 186.20617826800085 L 135.56948557153785 186.0855220579048 L 135.5685649124308 186.0846500513318 L 135.4411827343599 185.96430549774573 L 135.44023244681676 185.96341005717227 L 135.31252748164624 185.84339014578413 L 135.31154730951786 185.84247143535998 L 135.18351399195285 185.72278915185768 L 135.18250367159004 185.7218473415871 L 135.05413643633577 185.60251567165858 L 135.0530956967687 185.6015509377013 L 134.92438897853032 185.4825828670344 L 134.92331754165775 185.4815953920141 L 134.79426577514042 185.3630039062968 L 134.793163355929 185.36199387961622 L 134.6637609758379 185.24379196453646 L 134.6626272825323 185.2427595827001 L 134.53286872357265 185.12496022394572 L 134.53170345791597 185.12390569088737 L 134.40158315479292 185.00652187414636 L 134.40038601226107 185.00544540156528 L 134.2698983996798 184.88849011252552 L 134.26866906972677 184.88739192022655 L 134.13780858239244 184.77087814457593 L 134.1365467487098 184.76975846081635 L 134.00530782132765 184.65369918424284 L 134.00401316211776 184.6525582460841 L 133.8723902293929 184.5369664542756 L 133.87106241765716 184.53580450794044 L 133.73904991429478 184.42069318658486 L 133.7376886181367 184.41951048781806 L 133.60528097884202 184.30489262260332 L 133.6038858617868 184.3036894370371 L 133.47107752126496 184.1895780136511 L 133.46964824259587 184.1883546171738 L 133.33643363555205 184.07476262130447 L 133.33496985066378 184.07351930043203 L 133.2013434118032 183.9604597177673 L 133.19984477257367 183.95919677001663 L 133.06580093660145 183.8466825862444 L 133.06426709178274 183.84540032050947 L 132.9298002934041 183.7334445213177 L 132.92823088903205 183.7321432582449 L 132.79333556295214 183.62075882932143 L 132.79173024277665 183.61943890168627 L 132.6564008237007 183.50863882871906 L 132.65475922963637 183.50730058180133 L 132.51899015226948 183.3970978504783 L 132.51731192486824 183.39574164243638 L 132.38109762391565 183.28614923844546 L 132.3793824028604 183.28477544068696 L 132.24271731302724 183.17580634971603 L 132.24096473764857 183.1744153472657 L 132.1038432936401 183.06608255500268 L 132.10205300345564 183.064674746865 L 131.96446963997695 182.95699123899783 L 131.96264127525475 182.95556703851437 L 131.82459042701106 182.848545800731 L 131.82272362935623 182.84710563593018 L 131.68419973105273 182.74075965391845 L 131.68229414401816 182.73930396785687 L 131.54329163036 182.63364622730472 L 131.54134690008263 182.63217547839952 L 131.401860205775 182.5272189649949 L 131.39987598163603 182.5257336273442 L 131.2598995413841 182.421491326775 L 131.25787547669447 182.4199918904665 L 131.11740372520345 182.31647678842063 L 131.11533947791457 182.31496375982536 L 130.9743668498896 182.21218884199075 L 130.97226208332916 182.21066274404183 L 130.83078301347544 182.1086409961064 L 130.82863739710814 182.10710236855994 L 130.68664632013082 182.0058467762116 L 130.68445953034455 182.00429617588887 L 130.54195088094886 181.90381972481552 L 130.53972260186455 181.90225772582355 L 130.39669081475563 181.80257340171315 L 130.39442073906287 181.8010005956438 L 130.2508602489459 181.70212138418427 L 130.2485480787609 181.70053838028755 L 130.10445332034107 181.60247726716676 L 130.10209876808878 181.6008846924984 L 129.95746417607128 181.50365466340426 L 129.9550669653892 181.50205316294398 L 129.80988697447916 181.40566720356446 L 129.807446841144 181.4040574403052 L 129.66171588604666 181.30852853632817 L 129.65923257891956 181.306911191331 L 129.51294509434007 181.2122523284444 L 129.51041837633295 181.21062810086048 L 129.3635687969765 181.11685226475223 L 129.3609984460355 181.1152218718072 L 129.21358120660724 181.0223420481652 L 129.2109670167126 181.02070622510536 L 129.06297655191773 180.92873539961755 L 129.0603183340989 180.92709489961544 L 128.91174907864257 180.83604605796972 L 128.90904666200584 180.83440165198672 L 128.7598930505933 180.744287779871 L 128.7571462833601 180.74264025647545 L 128.60740275069645 180.65347433957768 L 128.60461150125164 180.65182450471696 L 128.4542724820421 180.563619528725 L 128.4514366399865 180.56196820544798 L 128.30049656893624 180.4747371560498 L 128.29761604614444 180.4730851841803 L 128.14606935795862 180.3868410470638 L 128.14314408963722 180.3851892828215 L 127.99098521902103 180.2999450436746 L 127.98801516476452 180.2982943592426 L 127.83523854642317 180.2140630037532 L 127.8322236912652 180.21241428679056 L 127.67882375990384 180.1292088006466 L 127.67576411535961 180.12756295374462 L 127.52173530568342 180.045396322634 L 127.51863091078022 180.04375426271497 L 127.36396765749437 179.9626394723256 L 127.36081857978675 179.96100212998329 L 127.20551531759645 179.8809521660031 L 127.20232165416175 179.87932048478365 L 127.04637281777214 179.80034833290057 L 127.04313469618285 179.79872326852362 L 126.88653472029912 179.72084191442556 L 126.88325229956796 179.7192244339453 L 126.7259956188953 179.64244686332015 L 126.7226690903882 179.6408379442255 L 126.56475013963178 179.5651771427612 L 126.56137972794612 179.56357777201617 L 126.40279294181113 179.48904672540067 L 126.39937890561298 179.4874578984248 L 126.24011871880458 179.41406959234592 L 126.23666135162088 179.4124923119347 L 126.07672219884425 179.34025973208045 L 126.07322182980776 179.3386950072689 L 125.91259814576811 179.26763113932716 L 125.90905514030648 179.26607998419485 L 125.74774135970895 179.19619781385356 L 125.74415612017802 179.19466124627576 L 125.5821466777278 179.12597375922277 L 125.57851964398036 179.1244527995667 L 125.41580897438263 179.05697298149002 L 125.41214062427257 179.05546865126132 L 125.24872316223252 178.98920948784883 L 125.2450140120462 178.98772280828842 L 125.080884192269 178.922697285228 L 125.07713479708197 178.9212292758638 L 124.9122870542728 178.8574503788434 L 124.90849800822802 178.85600205599974 L 124.74292677709205 178.79348277070727 L 124.73909871359419 178.79205514597544 L 124.57548967008783 178.73179961462722 L 124.4598657279588 178.68770373324972 L 124.45722396073548 178.68670477110723 L 124.33867916165808 178.6422603266628 L 124.33603610490474 178.6412778914732 L 124.2172538532483 178.59750684770216 L 124.2146095694776 178.59654088024106 L 124.09559357543864 178.55344323714343 L 124.09294812507446 178.55249367826656 L 123.97370209884956 178.5100694358423 L 123.97105554025165 178.5091362265297 L 123.85158319203734 178.46738538477888 L 123.84893558152925 178.46646846617918 L 123.72924062152208 178.42539102510173 L 123.72659201341648 178.4244903385742 L 123.60667815181299 178.38408629817016 L 123.60402859844045 178.38320178532706 L 123.4838995454372 178.34347114559642 L 123.4812490971736 178.34260274834384 L 123.36090856296714 178.30354550928658 L 123.35825726826174 178.30269316986417 L 123.2377089630486 178.26430933148035 L 123.23505686845401 178.2634729925009 L 123.11430450243076 178.22576255479046 L 123.11165165263074 178.2249421592776 L 122.9906989359939 178.18790512224055 L 122.98804537383418 178.18710061366647 L 122.86689601678033 178.15073697730284 L 122.86424178329804 178.1499482996244 L 122.74289949602371 178.1142580639342 L 122.74024463047796 178.11348516162874 L 122.61871312317969 178.0784683266119 L 122.61605766308193 178.07771114471163 L 122.49434064595629 178.0433677103682 L 122.49168462710169 178.04262619449418 L 122.3697858103452 178.00895616082414 L 122.36712926684373 178.00823025721922 L 122.24505236065296 177.9752336242226 L 122.24239532496082 177.97452327978337 L 122.1201440395323 177.94220004746015 L 122.11748654248397 177.9415052097683 L 121.99506458801427 177.90985537811846 L 121.99240665885388 177.9091759954712 L 121.86981774553952 177.87819956449476 L 121.86715941195395 177.8775355859343 L 121.74440724999151 177.84723255563128 L 121.74174853814209 177.84658393097374 L 121.6188368377281 177.8169543013441 L 121.61617777228356 177.8163209812075 L 121.49311024361457 177.78736475225128 L 121.49045084778378 177.7867466880825 L 121.36723120105631 177.75846385979966 L 121.36457149662083 177.75786100390113 L 121.24120344203148 177.7302515762917 L 121.238543449379 177.7296638818468 L 121.11503069712427 177.7027278549108 L 121.1123704352823 177.70215527600897 L 120.98871669555878 177.67589264974632 L 120.98605618222616 177.67533514140678 L 120.86226516523037 177.64974591581756 L 120.8596044168132 177.64920343401312 L 120.7356798327417 177.62428760909728 L 120.7330188643845 177.62376011077657 L 120.60896442343382 177.59951768653417 L 120.60630324905514 177.59900512964398 L 120.48212266142185 177.57543610607496 L 120.47946129374634 177.57493844958094 L 120.35515826962697 177.5520428266853 L 120.35249672021982 177.55156003059275 L 120.22807496981092 177.52933780837054 L 120.22541324911234 177.52886983374432 L 120.10087648261046 177.5073210121955 L 120.09821459996806 177.5068678211787 L 119.97356652756976 177.4859924003033 L 119.9709044912742 177.48555395613624 L 119.84614882317602 177.46535193593422 L 119.84348664049348 177.46492820297166 L 119.71862708689196 177.44539958344302 L 119.71596476409883 177.44499052717163 L 119.59100503519052 177.42613530831642 L 119.58834257760805 177.42574089537123 L 119.4632863835895 177.4075590771894 L 119.46062379561641 177.40717927536943 L 119.33547484668418 177.38967085786103 L 119.33281213183247 177.38930563614466 L 119.20757413818308 177.37247061930964 L 119.2049112991106 177.3721199478691 L 119.07958797094064 177.35595833170748 L 119.07692500948642 177.3556221819228 L 118.9515200569924 177.34013396643456 L 118.94885697420983 177.339812310907 L 118.82337410758831 177.3249974960922 L 118.8207109037806 177.32469030865695 L 118.6951538332281 177.31054889451553 L 118.69249050798089 177.3102561502539 L 118.566862943694 177.2967881367859 L 118.56419949591081 177.29650981203682 L 118.43850514808608 177.2837151992422 L 118.43584157602203 177.28345127161336 L 118.31008415485597 177.27133005949213 L 118.3074204561516 177.27108050787024 L 118.18160367184079 177.25963269642244 L 118.17893984355744 177.25939750098337 L 118.05306740629841 177.24862309020895 L 118.05040344495093 177.24840223242666 L 117.92447906494023 177.23830122232565 L 117.9218149665324 177.23809468498126 L 117.79584235396658 177.22866707555366 L 117.79317811402487 177.22847484274354 L 117.66716097910049 177.2197206339893 L 117.6644965927079 177.21954269113272 L 117.53843864562148 177.21146188305192 L 117.53577410745302 177.21129821689823 L 117.40967905840114 177.20389080949082 L 117.40701436275646 177.20374140812595 L 117.28088592193563 177.19700740139194 L 117.2782210627745 177.19687225424457 L 117.1520629403813 177.19081164818397 L 117.14939791135751 177.190690746031 L 117.02321381758848 177.1853035406438 L 117.02054861208359 177.18519687561536 L 116.89434225713526 177.18048307090157 L 116.89167686829414 177.18039063648553 L 116.76545196236307 177.17635023244512 L 116.76278638312667 177.17627202349104 L 116.63654663640942 177.17290502012403 L 116.63388085955025 177.17284103284658 L 116.50762998224336 177.17014743015298 L 116.50496400039944 177.17009766213496 L 116.37870570269945 177.16807746011474 L 116.37603950840817 177.16804191030946 L 116.24977750051163 177.16669510896267 L 116.2471110862454 177.16667377769573 L 116.12084907834887 177.16600037702233 L 116.1181824365479 177.16599326599328 L 115.9919241388479 177.16599326599328 L 115.98925726195588 177.1660003782762 L 115.863006384649 177.16667377894962 L 115.86033926514709 177.16669511899374 L 115.73409951842983 177.16804192034053 L 115.73143214887082 177.16807749396992 L 115.60520724293977 177.1700976959901 L 115.60253961598313 177.17014751040298 L 115.47633326103481 177.1728411130966 L 115.47366536948132 177.17290517686436 L 115.34748127571228 177.17627218023136 L 115.34481311253779 177.17635050329656 L 115.2186549901446 177.18039090733694 L 115.2159865485351 177.18048350101134 L 115.08985810771428 177.18519730572515 L 115.0871893811013 177.18530418268682 L 114.9610943320494 177.19069138807401 L 114.95842531414308 177.19081256236413 L 114.83236736705668 177.19687316842476 L 114.82969805188239 177.19700865544363 L 114.70368091695799 177.20374266217763 L 114.70101129888941 177.20389247868064 L 114.5750386863236 177.21129988608803 L 114.5723687601183 177.21146405018044 L 114.4464443801076 177.21954485826126 L 114.44377414094254 177.21972338939295 L 114.31790170368352 177.22847759814715 L 114.31523114718846 177.22867051710665 L 114.18941436287763 177.23809812653428 L 114.18674348517179 177.2383054554421 L 114.06098606400575 177.2484064655431 L 114.05831486173132 177.24862822784473 L 113.93262051390657 177.25940263861912 L 113.92994898426443 177.25963885907743 L 113.80432141997754 177.27108667052525 L 113.801649560763 177.271337375212 L 113.67609249021052 177.2834585873332 L 113.67342029984707 177.28372380362055 L 113.54793743322553 177.29651841641515 L 113.54526491080122 177.29679817296596 L 113.4198599583072 177.31026618643398 L 113.4171871036094 177.310560513192 L 113.29186377543942 177.32470192733342 L 113.28919058899015 177.32501085551255 L 113.16395259534076 177.33982567032737 L 113.16127907843213 177.34014923240053 L 113.0361301294999 177.35563744788874 L 113.03345628422915 177.35597567757597 L 112.9084000902106 177.37213729373758 L 112.90572591951609 177.37249022599366 L 112.78076619060778 177.38932524282868 L 112.77809169830395 177.38969291382986 L 112.65323214470243 177.40720133133829 L 112.65055733551556 177.4075837784687 L 112.52580166741738 177.42576559665054 L 112.52312654702109 177.4261628584877 L 112.39847847462279 177.4450180773429 L 112.39580304967315 177.44543019364258 L 112.27126628317127 177.4649588131712 L 112.26859056134307 177.46538582485184 L 112.14416881093418 177.48558784505386 L 112.14149280095602 177.4860297941799 L 112.01718977683664 177.50690521505533 L 111.96626563052854 177.51821673086118 L 111.91679716628492 177.5347723979397 L 111.86932284221827 177.55639200990316 L 111.82435941047196 177.58284023995037 L 111.78239629243713 177.6138292023698 L 111.74389025146144 177.64902158613978 L 111.70926042103646 177.68803432651742 L 111.69713920891532 177.70321624466845 L 111.69654040950675 177.7039677256515 L 111.68441919738554 177.71920962531334 L 111.68383692700675 177.7199432144208 L 111.67171571488555 177.73524385886134 L 111.67114968036297 177.73595970723272 L 111.65902846824176 177.75131785971973 L 111.65847838613062 177.75201611533285 L 111.64635717400941 177.76743053913418 L 111.6458227703395 177.7681113467707 L 111.63370155821829 177.78358080515414 L 111.63318256823985 177.78424430638086 L 111.62106135611863 177.79976756261425 L 111.62055752406171 177.8004138957621 L 111.60843631194051 177.81598971311323 L 111.60794739078128 177.8166190132623 L 111.59582617866006 177.83224615499904 L 111.59535192989615 177.8328585539656 L 111.58323071777494 177.84853578335571 L 111.58277091120914 177.84913140968212 L 111.57064969908792 177.86485748999343 L 111.57020411261868 177.86543646894202 L 111.55808290049748 177.88121016344238 L 111.557651319921 177.8817726169871 L 111.54553010779979 177.8975926889443 L 111.54511232661322 177.89813873577253 L 111.532991114492 177.91400394845442 L 111.53258693371224 177.91453370396027 L 111.52046572159102 177.9304428206346 L 111.52007494957168 177.93095639692564 L 111.50795373745046 177.94690818086028 L 111.5075761897147 177.94740568675405 L 111.4954549775935 177.96339890121683 L 111.4950904766687 177.96388044224568 L 111.48296926454748 177.97991385050437 L 111.48261763980462 177.98037952892338 L 111.4704964276834 177.9964518942458 L 111.47015751518887 177.9969018090345 L 111.45803630306766 178.01301189468853 L 111.45770994543815 178.01344614155758 L 111.44558873331694 178.02959271081096 L 111.44527477957806 178.03001138221265 L 111.43315356745686 178.04619319833324 L 111.4328518729137 178.04659638346493 L 111.42073066079249 178.06281220972056 L 111.40831987477898 178.0794485941949 L 111.39592107690021 178.0961011977441 L 111.38353414055567 178.1127688631273 L 111.37115894494673 178.1294504298893 L 111.35879537497446 178.14614473436637 L 111.34644332113793 178.16285060969864 L 111.3341026794401 178.17956688583885 L 111.32177335129886 178.19629238956117 L 111.30945524346126 178.21302594447187 L 111.29714826792296 178.22976637101928 L 111.28485234185321 178.2465124865026 L 111.27256738752486 178.26326310507937 L 111.26029333224542 178.2800170377777 L 111.24803010829837 178.29677309250008 L 111.23577765288164 178.3135300740364 L 111.2235359080581 178.33028678406652 L 111.2113048207027 178.34704202117197 L 111.19908434246017 178.3637945808391 L 111.18687442970304 178.3805432554664 L 111.17467504349295 178.39728683437272 L 111.16248614955167 178.41402410379683 L 111.15030771822823 178.43075384690738 L 111.13813972447603 178.44747484380383 L 111.1259821478308 178.4641858715213 L 111.11383497239467 178.4808857040311 L 111.10169818682027 178.4975731122468 L 111.08957437920184 178.51424329604822 L 111.07746354908873 178.53089501813096 L 111.0653631048058 178.5475306083513 L 111.0532730557915 178.56414882336122 L 111.04119341575628 178.58074841713136 L 111.02912420279702 178.59732814080732 L 111.0170654396826 178.61388674233592 L 111.0050171537374 178.63042296664844 L 110.99297937692148 178.64693555557866 L 110.98095214586907 178.66342324784293 L 110.96893550188113 178.67988477908764 L 110.95692949090767 178.69631888195659 L 110.94493416366511 178.71272428597675 L 110.93294957576234 178.7290997174391 L 110.92097578747497 178.74544389976452 L 110.90901286410696 178.76175555307228 L 110.89706087587825 178.778033394402 L 110.88511989792181 178.79427613779072 L 110.87319001058884 178.810482493936 L 110.86127129924877 178.82665117055325 L 110.84936385454205 178.84278087212195 L 110.83746777237529 178.8588702999887 L 110.82558315402476 178.87491815232931 L 110.81371010624378 178.8909231241119 L 110.80184874132608 178.90688390712617 L 110.78999917721568 178.9227991899567 L 110.77816153757989 178.93866765801246 L 110.76633595199968 178.9544879934065 L 110.75452255598651 178.97025887507522 L 110.74272149116614 178.98597897868208 L 110.73093290532252 179.00164697671568 L 110.71915695267522 179.01726153828548 L 110.70739379383946 179.03282132934757 L 110.69564359610713 179.0483250125134 L 110.68390653349852 179.0637712471711 L 110.67218278699862 179.0791586893726 L 110.66047254464665 179.09448599192388 L 110.64877600174407 179.10975180432933 L 110.6370933610198 179.12495477280308 L 110.62542483282023 179.14009354025853 L 110.61377063528907 179.15516674632295 L 110.60213099455794 179.17017302734922 L 110.59050614494981 179.18511101642326 L 110.578896329228 179.19997934332568 L 110.56730179876674 179.2147766346075 L 110.55572281380996 179.2295015135658 L 110.54415964371228 179.24415260025728 L 110.53261256714978 179.25872851156416 L 110.5210818724123 179.2732278611723 L 110.50926042103767 179.28803432651594 L 110.48076281252182 179.327529486668 L 110.45624289519343 179.3696098267423 L 110.43593331220055 179.41387609160864 L 110.4200267593529 179.45990828624528 L 110.40867415683827 179.50726966062047 L 110.40198321730323 179.55551085354412 L 110.40001742388333 179.60417415617343 L 110.40279542788005 179.65279785472006 L 110.41029087179852 179.70092061115633 L 110.42243263942551 179.74808584035597 L 110.43910553057474 179.79384604213968 L 110.46015135409766 179.83776704712363 L 110.48537042878934 179.87943213608617 L 110.51452347794877 179.91844599376864 L 110.54733389961841 179.9544384595972 L 110.58349039096294 179.98706803973877 L 110.62264990188736 180.0160251471689 L 110.66577401555553 180.0417444829435 L 110.7112602265215 180.0630089609363 L 110.75864982028247 180.0796041354011 L 110.80746488730318 180.09136264908742 L 110.85721314258724 180.09816592098693 L 110.90739289022054 180.09994534218674 L 110.95749808282078 180.09668296776914 L 111.00702342487033 180.0884116977807 L 111.05546946846677 180.07521494544542 L 111.1895403204432 180.03135284831774 L 111.32165228626202 179.9897426851189 L 111.45444633267985 179.9495080455949 L 111.58790720322037 179.910641484674 L 111.72201954869229 179.8731355503269 L 111.85676793068879 179.83698277990834 L 111.9921368250672 179.80217569680778 L 112.1281106255442 179.7687068073586 L 112.26467364721088 179.736568598043 L 112.40181013008744 179.70575353294598 L 112.5395042426253 179.67625405146657 L 112.67774008518539 179.64806256626485 L 112.8165016934337 179.62117146144195 L 112.95577304172255 179.59557309092563 L 113.09553804632615 179.57125977707253 L 113.23578056868416 179.54822380944415 L 113.3764844184673 179.52645744377782 L 113.51763335662625 179.5059529011105 L 113.6592110982963 179.48670236706562 L 113.80120131560892 179.4686979912816 L 113.94358764042364 179.45193188696948 L 114.08635366691996 179.43639613059733 L 114.22948295412068 179.42208276168137 L 114.3729590282605 179.4089837826846 L 114.51676538510841 179.39709115900163 L 114.6608854921255 179.38639681903314 L 114.8053027905621 179.3768926543319 L 114.95000069741845 179.36857051981892 L 115.09496260733707 179.36142223405741 L 115.24017189436175 179.35543957958228 L 115.38561191361916 179.3506143032746 L 115.53126600291509 179.34693811677695 L 115.67711748420645 179.3444026969441 L 115.82314966500245 179.34299968632283 L 115.96934583971164 179.34272069365576 L 116.11568929083029 179.34355729440628 L 116.26216329011697 179.34550103129814 L 116.40875109967114 179.34854341486772 L 116.55543597291262 179.35267592402386 L 116.70220115552247 179.35789000661302 L 116.84902988630941 179.36417707998666 L 116.99590539797609 179.37152853156633 L 117.14281091786951 179.3799357194068 L 117.28972966865297 179.38938997275332 L 117.43664486890668 179.39988259258956 L 117.58353973368158 179.41140485217636 L 117.73039747501831 179.4239479975798 L 117.87720130239956 179.43750324818527 L 118.02393442314799 179.4520617971956 L 118.17058004278583 179.46761481211377 L 118.31712136537907 179.48415343521123 L 118.4635415937833 179.50166878397158 L 118.60982392989463 179.52015195151938 L 118.75595157486876 179.5395940070295 L 118.90190772925487 179.55998599610857 L 119.04767559315279 179.58131894116164 L 119.1932383663051 179.60358384173156 L 119.33857924816624 179.62677167481556 L 119.48368143794451 179.65087339515756 L 119.62852813461649 179.67587993551555 L 119.7731025369109 179.70178220690258 L 119.91738784328155 179.72857109880368 L 120.06136725181473 179.7562374793584 L 120.20502396018885 179.78477219552929 L 120.3483411655233 179.8141660732257 L 120.4913020642901 179.84440991741442 L 120.6338898521224 179.87549451218436 L 120.7760877236802 179.907410620796 L 120.91787887245198 179.94014898569077 L 121.05924649055792 179.97370032847223 L 121.20017376850603 180.0080553498478 L 121.34064389496821 180.0432047295446 L 121.48064005654551 180.07913912619307 L 121.62014543746317 180.1158491771603 L 121.75914321929956 180.15332549835907 L 121.89761658069216 180.19155868401668 L 122.03554869702177 180.23053930640245 L 122.17292274009017 180.27025791551634 L 122.30972187774822 180.31070503872493 L 122.44592927359085 180.35187118037635 L 122.58152808655485 180.3937468213453 L 122.7165014705644 180.4363224185481 L 122.85083257411827 180.47958840439412 L 122.98450453990212 180.5235351861968 L 123.11750050438762 180.56815314553035 L 123.24980359738679 180.61343263751886 L 123.38139694164316 180.65936399008183 L 123.51226365238041 180.7059375031065 L 123.642386836854 180.7531434475597 L 123.77174959388559 180.80097206452777 L 123.90033501343164 180.84941356420026 L 124.0281261760713 180.89845812475085 L 124.15510615256983 180.94809589116906 L 124.28125800336582 180.99831697398093 L 124.4065647781252 181.04911144790861 L 124.53100951523325 181.10046935041308 L 124.6545752413205 181.15238068015168 L 124.77724497079312 181.20483539533322 L 124.90047764808602 181.2584657360008 L 124.90138788719656 181.25886079441133 L 125.0478930052584 181.32227368866853 L 125.19210820617259 181.38592620965466 L 125.3356948335396 181.4505257434308 L 125.47865886757779 181.51606318621572 L 125.62100626220335 181.5825294351764 L 125.76274294519142 181.64991538749425 L 125.90387481848252 181.71821193950325 L 126.04440775840914 181.78740998579764 L 126.18434761607992 181.85750041842462 L 126.32370021771764 181.92847412606545 L 126.46247136507644 182.00032199326998 L 126.6006668358647 182.0730348997082 L 126.73829238422847 182.14660371947036 L 126.87535374123733 182.221019320387 L 127.01185661542179 182.2962725633962 L 127.14780669329798 182.37235430192564 L 127.28320963994838 182.44925538132787 L 127.41807109962218 182.52696663835073 L 127.5523966963079 182.60547890061721 L 127.68619203440448 182.6847829861879 L 127.81946269929043 182.76486970309074 L 127.952214258028 182.84572984895829 L 128.08445225997477 182.92735421063796 L 128.21618223747902 183.00973356388187 L 128.34740970650952 183.09285867302614 L 128.47814016735583 183.17672029074276 L 128.6083791052743 183.26130915778828 L 128.7381319911909 183.34661600281828 L 128.86740428233622 183.4326315421884 L 128.9962014229345 183.51934647982065 L 129.12452884487084 183.60675150708593 L 129.25239196832152 183.69483730269116 L 129.3797962024548 183.78359453264437 L 129.5067469460175 183.87301385017122 L 129.63324958802355 183.96308589573042 L 129.7593095083505 184.05380129699455 L 129.8849320783582 184.14515066887395 L 130.01012266150119 184.23712461356436 L 130.13488661394092 184.3297137206215 L 130.25922928508604 184.42290856701015 L 130.3831560182047 184.51669971723192 L 130.5066721509454 184.6110777234104 L 130.62978301592446 184.70603312545157 L 130.75249394120482 184.8015564511454 L 130.87481025085123 184.897638216349 L 130.99673726540018 184.99426892512693 L 131.11828030239724 185.09143906996567 L 131.23944467680096 185.18913913190448 L 131.36023570151508 185.2873595807876 L 131.4806586877545 185.3860908754037 L 131.60071894554662 185.48532346375237 L 131.72042178411667 185.58504778323552 L 131.839772512267 185.68525426085927 L 131.95877643881218 185.78593331349975 L 132.07743887290965 185.88707534809654 L 132.19576512445116 185.98867076191246 L 132.31376050437808 186.0907099427426 L 132.43143032506094 186.19318326919168 L 132.54877990055346 186.29608111085594 L 132.6658145469698 186.39939382862343 L 132.7825395827446 186.5031117748838 L 132.89896032889814 186.60722529375164 L 133.01508210936973 186.71172472136152 L 133.1309102512111 186.81660038604613 L 133.24645008488216 186.92184260861504 L 133.3617069444577 187.02744170256045 L 133.47668616789952 187.13338797432996 L 133.59139309722505 187.2396717235111 L 133.70583307876097 187.346283243099 L 133.8200114633055 187.45321281968623 L 133.93393360637242 187.56045073373227 L 134.04760486830207 187.66798725971339 L 134.16103061450335 187.77581266639845 L 134.27421621559031 187.8839172170294 L 134.38716704754893 187.99229116953197 L 134.4998884918955 188.100924776721 L 134.61238593577855 188.209808286453 L 134.72466477223037 188.31893194192406 L 134.83673040015404 188.4282859817126 L 134.94858822458727 188.53786064009142 L 135.0602436567287 188.64764614710782 L 135.17170211409714 188.75763272879323 L 135.2829690206654 188.86781060734728 L 135.39404980693138 188.97817000125877 L 135.50494991001887 189.0887011254539 L 135.6156747738484 189.1993941915127 L 135.7262298491144 189.31023940768978 L 135.83662059350507 189.42122697917523 L 135.94685247170432 189.532347108134 L 136.05693095554503 189.64358999389455 L 136.16686152399373 189.75494583296359 L 136.2766496633605 189.86640481926477 L 136.3863008673211 189.97795714418353 L 136.49582063695226 190.0895929966208 L 136.60521448086655 190.20130256314303 L 136.71448791522224 190.3130760280007 L 136.82364646395106 190.42490357336388 L 136.93269565861905 190.5367753791782 L 136.9514184950226 190.556007055659 L 136.9535240437135 190.56107389027954 Z" id="element_215" /></svg>