<?xml version='1.0' encoding='utf-8'?>
<svg xmlns:svg="http://www.w3.org/2000/svg" version="1.1" id="Layer_1" x="0px" y="0px" viewBox="0 0 500 500" style="width: 188px;" xml:space="preserve" data-imageid="navigation-8" imageName="Navigation" class="illustrations_image"><svg:style type="text/css">
	.st0_navigation-8{fill:#FFFFFF;}
	.st1_navigation-8{fill:#093F68;}
	.st2_navigation-8{fill:#68E1FD;}
	.st3_navigation-8{fill:#70CC40;}
	.st4_navigation-8{fill:#FFBC0E;}
	.st5_navigation-8{fill:#F56132;}
	.st6_navigation-8{fill:#FFC9B0;}
	.st7_navigation-8{fill:#725858;}
</svg:style><svg:path class="st0_navigation-8" d="M 316.8682252096485 323.56036283979927 L 316.87534188193194 323.57528865132747 L 316.87926201938666 323.58332461307367 L 316.88667488902786 323.5981817859658 L 316.8906844747454 323.6060435114246 L 316.89839106828 323.62083019058224 L 316.9024835696076 323.6285183651812 L 316.9104814135712 323.6432326955062 L 316.9146505529583 323.6507483478195 L 316.9229371738865 323.66538847421356 L 316.9271769373856 323.672732944603 L 316.93574986181403 323.6872970119678 L 316.94005450501464 323.6944719221295 L 316.94891125947896 323.70895807536675 L 316.95327531108217 323.7159652989246 L 316.96241342211806 323.7303716829361 L 316.9668316853954 323.73721331725477 L 316.97624867953846 323.75153807694227 L 316.9807162319046 323.75821641627465 L 316.9904096356904 323.7724576965398 L 316.9949218266023 323.7789752065781 L 317.00488916656656 323.79313115232264 L 317.00944161397155 323.79949044622583 L 317.0196804166499 323.81355920235154 L 317.0242690021724 323.81976301826285 L 317.0347767941004 323.83374272967137 L 317.0393976571734 323.8397939097611 L 317.05017196488683 323.85368272135423 L 317.05482149598225 323.85958419234953 L 317.0658598460166 323.87338024902897 L 317.07053467915614 323.8791350042344 L 317.0818345980471 323.8928364509019 L 317.08653160272485 323.89844753365435 L 317.0980906170081 323.9120525152116 L 317.1028068896689 323.91752300373537 L 317.11462252588 323.93102966508405 L 317.1193553810672 323.93636265868537 L 317.1314251657418 323.9497691447273 L 317.1361721270297 323.95496775127646 L 317.14849358670347 323.9682722069133 L 317.15325237748556 323.97333953152565 L 317.1658230386941 323.9865401016592 L 317.17059157294995 323.9914792365503 L 317.1834089622289 324.00457406608217 L 317.18818533528827 324.0093880814719 L 317.20124697917333 324.022375315304 L 317.20602945858803 324.0270672513526 L 317.21933288361475 324.0399450343865 L 317.2241199001574 324.04451789405886 L 317.23766263286143 324.0572843711963 L 317.24245277170473 324.06174111399696 L 317.2562323386217 324.0743944301397 L 317.2610243307359 324.0787379666552 L 317.27503825840154 324.09127626670494 L 317.2798309721883 324.09550945387974 L 317.29407678713807 324.1079308827383 L 317.29886922035035 324.112056519846 L 317.31334444912005 324.124359222415 L 317.31813572103215 324.1283800476214 L 317.33283789015735 324.1405621688026 L 317.3376272340589 324.1444808563176 L 317.3525538700752 324.15654054101276 L 317.3573406260586 324.16035969874594 L 317.3724892555017 324.1722950918567 L 317.377272863544 324.17601725952505 L 317.3926410129495 324.18782650595324 L 317.39742100632577 324.1914541536239 L 317.4130062022293 324.2031353982712 L 317.41778220120983 324.20667092526 L 317.43358197014703 324.2182223130281 L 317.43835367601275 324.2216680471435 L 317.45436554451925 324.2330877229342 L 317.4591327338757 324.23644592001847 L 317.47535422848716 324.24773202873337 L 317.480116747847 324.2510048724514 L 317.496545395099 324.2621555589924 L 317.5013031557842 324.26534516088 L 317.51793648221246 324.27635857014866 L 317.52268945549497 324.27946696983923 L 317.5395249876351 324.29034124673734 L 317.544273200157 324.2933704123786 L 317.5613084645446 324.30410370180795 L 317.5660519940029 324.30705553064007 L 317.5832845171736 324.3176459775023 L 317.58802348821814 324.32052229655034 L 317.6054507967076 324.3309680457472 L 317.610185377097 324.33377061264434 L 317.6278049974409 324.3440698090776 L 317.63253539440745 324.3468003129778 L 317.6503448531413 324.35695110154916 L 317.6550713099682 324.35961116412153 L 317.67306813362774 324.3696116897327 L 317.6777909264201 324.3722028662211 L 317.6959726415409 324.3820512737738 L 317.7006920761925 324.3845750541138 L 317.7190562093102 324.39426948850974 L 317.72377261863755 324.39672729848434 L 317.74231669628784 324.40626590462534 L 317.7470304373429 324.40865910706 L 317.7657519860614 324.4180400298477 L 317.7704634375884 324.4203699258222 L 317.78935998391074 324.42959131015834 L 317.79406954395483 324.43185914023906 L 317.8131386144166 324.4409191310254 L 317.8178466980782 324.4431260765111 L 317.83708581921513 324.4520228186493 L 317.8417928565137 324.45417000281145 L 317.8611995548613 324.4629016412033 L 317.8659059887404 324.46499013053614 L 317.8854777908344 324.4735548100834 L 317.89018407526515 324.47558561554223 L 317.9099185076412 324.48398148114654 L 317.91462510582767 324.4859555593767 L 317.93451969502127 324.4941807559398 L 317.93922707771344 324.4960990104987 L 317.9592793502604 324.5041516829224 L 317.9639879941462 324.5060149654824 L 317.984195476582 324.5138932586683 L 317.9889058627638 324.515702370205 L 318.00926608162416 324.52340442905495 L 318.01397869417553 324.5251601210183 L 318.0344891759961 324.5326840904339 L 318.03920450058035 324.5343870658978 L 318.05986277189675 324.54173109078084 L 318.0645812944552 324.5433820055746 L 318.085384881803 324.5505442308268 L 318.0901070873054 324.5521436946475 L 318.1110535172203 324.5591222651706 L 318.1157798884537 324.56067084266925 L 318.1368666874713 324.567463903365 L 318.1415977039029 324.5689621152215 L 318.1628223985589 324.5755678109915 L 318.1675585352065 324.5770161349561 L 318.18891865203653 324.5834326107023 L 318.1936603784253 324.5848314826334 L 318.2151534439649 324.5910568832573 L 318.21990122307625 324.59240669812516 L 318.2415247638611 324.5984391685286 L 318.2462790511446 324.5997402814113 L 318.26803059371036 324.605577966496 L 318.2727918361105 324.60683069355326 L 318.2946689069928 324.6124717382209 L 318.2994375420012 324.6136763576521 L 318.3214376677356 324.6191189068045 L 318.32621412248403 324.6202756597967 L 318.3483348296063 324.62551785833546 L 318.35311951994737 324.62662694998943 L 318.37535833499305 324.63166694281637 L 318.38015166463435 324.63272854307013 L 318.4025061141391 324.637564475087 L 318.4073084737751 324.6385787196237 L 318.4297760842746 324.6432087357321 L 318.434587850725 324.64417572687864 L 318.45716614875477 324.6485979719804 L 318.46198768413774 324.64951777960334 L 318.48467419623347 324.65373039860015 L 318.48950584712924 324.6546030609927 L 318.51229809982664 324.65860419878635 L 318.517140196465 324.6594297235541 L 318.5400357162996 324.6632175250462 L 318.5448885717375 324.66399588998877 L 318.56788488524495 324.66756850008113 L 318.57274879457805 324.668299654078 L 318.5958434282941 324.6716552176723 L 318.6007186678462 324.67233908156663 L 318.6239091483063 324.6754757435646 L 318.62879597484414 324.67611221105375 L 318.6520798285841 324.6790281163572 L 318.6569784785332 324.67961705488847 L 318.6803532320885 324.682310348399 L 318.6852639207467 324.6828516000725 L 318.7087271006531 324.68532042669193 L 318.71365002141783 324.6858138091736 L 318.73719915421094 324.68805631380366 L 318.74213447781267 324.68850162125034 L 318.7657670900281 324.69051594879267 L 318.77071496375805 324.690912952789 L 318.7944285819314 324.6926972481454 L 318.7993891288921 324.69304569865744 L 318.82318127955904 324.6945981067296 L 318.8281545979045 324.69489773307373 L 318.8520228076007 324.69621639876334 L 318.85700896979506 324.6964669105949 L 318.88095076505607 324.6975499788038 L 318.885949817148 324.6977510671256 L 318.90996272450957 324.69859668275535 L 318.9149746853851 324.69874802094665 L 318.9390562313828 324.6993543288992 L 318.9440810920775 324.69945557376997 L 318.968228803247 324.69982071894685 L 318.97326652622195 324.69987151181476 L 318.9974779290988 324.6999936391178 L 318.9974789510516 324.69979103977613 L 319.00201339736515 324.6999959462146 L 319.01716480945566 324.69993493409356 L 319.0211642554509 324.69990283228645 L 319.0363150491753 324.6997206204116 L 319.0402732830183 324.69965734373676 L 319.0554228400105 324.69935516884016 L 319.05933963823355 324.69926169080924 L 319.0744873401275 324.6988407896231 L 319.0783625141739 324.6987180743753 L 319.09350774260344 324.6981796836318 L 319.0973411375737 324.69802868502717 L 319.11248327417286 324.69737404145854 L 319.1162747675709 324.6971957022437 L 319.1314131939735 324.69642604258206 L 319.13516269444165 324.6962212936254 L 319.1502967922816 324.695337854603 L 319.1540042383489 324.69510761419764 L 319.1691333892601 324.69411163254665 L 319.1727987480914 324.69385680577886 L 319.1879223337078 324.6927495182314 L 319.1915455998448 324.6924709964133 L 319.2066630018003 324.69125363970164 L 319.21024419595454 324.6909522998623 L 319.225354795883 324.68962611071856 L 319.22889396369 324.6893028151572 L 319.2439971432254 324.68786903031355 L 319.2474943540598 324.6875246262051 L 319.262589494836 324.68598448239374 L 319.2660448406131 324.6856198014514 L 319.28113132426404 324.6839745354046 L 319.28454491830024 324.68359039358876 L 319.29962212645984 324.68184124203856 L 319.3029941022999 324.6814384393201 L 319.318061416602 324.6795866389988 L 319.3213919269293 324.67916595916245 L 319.3364487290078 324.6772127468021 L 319.3397379445372 324.67677495729754 L 319.3547836160261 324.67472156963044 L 319.3580317244492 324.6742674214609 L 319.3730656469823 324.67211509521917 L 319.3762728519184 324.67164532287217 L 319.39129440712975 324.66939529478805 L 319.39446092713393 324.66891061619765 L 319.4094694966573 324.6665641230033 L 319.41259556422455 324.6660652395509 L 319.427590529694 324.66362351797846 L 319.43067639031375 324.6631111145225 L 319.44565713336306 324.66057540130424 L 319.4487030446071 324.6600501462378 L 319.4636689468702 324.6574216781058 L 319.46667517748443 324.6568842234466 L 319.48162562059525 324.6541642371331 L 319.4845924496581 324.65361521863184 L 319.4995268152506 324.65080495086903 L 319.50245453133044 324.6502449881464 L 319.5173722010384 324.64734567566643 L 319.5202611013917 324.64677537237003 L 319.53516145684915 324.6437882519051 L 319.5380118466614 324.6432081958828 L 319.5528942695022 324.6401345041651 L 319.5557064611334 324.63954526766105 L 319.5705703329915 324.63638624142277 L 319.5733446452738 324.6357883812854 L 319.588189347783 324.6325452572587 L 319.59092610532815 324.6319393151666 L 319.60575102012245 324.6286133300836 L 319.6084505526671 324.6279998327831 L 319.62325506138035 324.6245922233761 L 319.62591770317175 324.62397168292665 L 319.64070118743797 324.6204836859278 L 319.6433272766152 324.61985659996594 L 319.6580891180682 324.61628945210737 L 319.6606789960898 324.61565630411445 L 319.67541857636354 324.6120112421284 L 319.67797258747225 324.61137250170407 L 319.6926892882006 324.6076507623227 L 319.69520777888334 324.6070068854716 L 319.7099009817002 324.6032097054271 L 319.7123843001954 324.60256113484667 L 319.7270533867347 324.59868975087124 L 319.7295018825602 324.59803691624427 L 319.7441462344559 324.59409256507 L 319.7465602579401 324.5934358833669 L 319.761179256826 324.58941980172614 L 319.7635591587004 324.58875967749907 L 319.77815218621043 324.5846731021238 L 319.7804983171684 324.5840099278191 L 319.79506475493656 324.5798540954417 L 319.79737746527775 324.579188251695 L 319.8119166949379 324.5749643990475 L 319.8141963341678 324.57429625499844 L 319.8287077373538 324.5700056188131 L 319.83095465385367 324.5693355324058 L 319.8454376121995 324.5649793494148 L 319.8476521528825 324.56430766770694 L 319.86210604802204 324.5598871746424 L 319.8642885580186 324.55921423411115 L 319.87871277158575 324.5547306677053 L 319.8808635939484 324.5540567945498 L 319.89525750757707 324.54951139153485 L 319.8973769829943 324.54883690198085 L 319.9117399783184 324.544230899089 L 319.91382844484946 324.5435560996885 L 319.92815990350294 324.53889073365184 L 319.9302176963196 324.53821592158374 L 319.9445169999363 324.5334924291345 L 319.9465444510877 324.5328178924991 L 319.96081098130156 324.5280375103695 L 319.96280841948266 324.52736352848365 L 319.9770415579276 324.5225274934058 L 319.9790093082669 324.5218543370928 L 319.9932084365768 324.51696388579893 L 319.9951468204354 324.51629181767504 L 320.00931132024425 324.51134818689735 L 320.0112206550231 324.51067746165586 L 320.02534990796477 324.50568188812645 L 320.0272305069138 324.5050127528217 L 320.0413238946221 324.4999664732728 L 320.04317606668224 324.4992991675918 L 320.0572329707912 324.4942034187556 L 320.0590570204186 324.49353817529584 L 320.07307682256203 324.4883941939046 L 320.07487304958687 324.48773123843876 L 320.08885513139876 324.4825402612245 L 320.09062383085654 324.4818798129741 L 320.1045675739708 324.4766430766691 L 320.1063090359905 324.47598534855604 L 320.1202138220409 324.4707040898925 L 320.12192833168433 324.4700492888075 L 320.135793542305 324.4647247445176 L 320.1374813794651 324.464073071565 L 320.1513063962898 324.4587064783808 L 320.15296783553885 324.45805812914085 L 320.1667520402016 324.4526507237947 L 320.1683873507115 324.452005888556 L 320.182130124846 324.44655890778 L 320.18373957024147 324.44591777179664 L 320.19744029548184 324.4404324523229 L 320.1990241337484 324.43979519604756 L 320.2126821917285 324.4342727746084 L 320.2142406751158 324.4336395739256 L 320.22785544746944 324.4280812872531 L 320.2293888223678 324.4274523137206 L 320.24295969072904 324.42185939854704 L 320.24446819758805 324.4212348196183 L 320.25799454359066 324.4156085126758 L 320.2594784168124 324.4149884919304 L 320.27295962209035 324.40933002995115 L 320.274419089937 324.4087147273167 L 320.2878545361242 324.40302534703284 L 320.2892898206141 324.40241491900946 L 320.30267888934446 324.3966958571533 L 320.30409020617725 324.3960904570233 L 320.31743227908464 324.39034295032695 L 320.3188198375227 324.3897427283804 L 320.3321142962411 324.38396801357595 L 320.33347829902624 324.3833731173191 L 320.34672452518953 324.37757243113884 L 320.3480651684501 324.3769830055034 L 320.36126254369213 324.3711575846795 L 320.3625800168338 324.3705737722369 L 320.3757279227886 324.36472485350157 L 320.3770224084057 324.36414679466566 L 320.3901202267071 324.35827561475105 L 320.39139190047746 324.35770344798516 L 320.4044390127593 324.3518112436234 L 320.40568804332827 324.3512451056494 L 320.41868383122454 324.34533311357274 L 320.41991038011207 324.34477313956813 L 320.43285422525673 324.33884259650875 L 320.4340584467413 324.33828892031005 L 320.44694973076815 324.3323410630001 L 320.4481317717603 324.33179381730946 L 320.46096987630335 324.3258298824811 L 320.46212987623215 324.325289199064 L 320.47491418292526 324.31931042344945 L 320.4760522736068 324.31877643333775 L 320.48878216408383 324.31278405366925 L 320.4898984695941 324.31225688735964 L 320.50257332548904 324.3062521403693 L 320.50366796201297 324.30573192803035 L 320.5162871649597 324.29971605045034 L 320.5173602406493 324.29920292212256 L 320.5299231722817 324.2931771506851 L 320.5309747871005 324.292671236484 L 320.5434808290525 324.2866368079213 L 320.5445110746095 324.2861382382439 L 320.556959608515 324.2800963892881 L 320.5579685678891 324.27960529501996 L 320.570358975382 324.2735572624032 L 320.5713467229355 324.2730737751289 L 320.5836783856498 324.26702079558345 L 320.58464498684447 324.266545047792 L 320.59691728641394 324.26048835805 L 320.59786279758544 324.26002048335835 L 320.6100751156441 324.253961320152 L 320.6109995838023 324.25350145351223 L 320.623151301984 324.24744105357365 L 320.65768502964335 324.2284838684221 L 320.6906190968619 324.206866735602 L 320.7259726322154 324.18161421034915 L 320.7613261675663 324.15636168509855 L 320.79667970292 324.1311091598459 L 320.8673867736274 324.0806041093406 L 320.90274030898047 324.05535158408844 L 320.93809384433416 324.0300990588358 L 321.00880091504155 323.9795940083305 L 321.0441544503946 323.95434148307834 L 321.0795079857483 323.9290889578257 L 321.1502150564557 323.8785839073204 L 321.18556859180876 323.85333138206823 L 321.22092212716274 323.82807885681535 L 321.256275662516 323.80282633156304 L 321.29162919786984 323.7775738063103 L 321.3269827332229 323.75232128105813 L 321.3623362685769 323.72706875580525 L 321.3976898039301 323.70181623055294 L 321.43304333928353 323.67656370530057 L 321.503750409991 323.62605865479514 L 321.53910394534427 323.60080612954283 L 321.5744574806977 323.57555360429046 L 321.6451645514052 323.52504855378504 L 321.6805180867584 323.4997960285327 L 321.7158716221118 323.47454350328036 L 321.82193222817284 323.3987859275224 L 321.8572857635257 323.3735334022705 L 321.963346369587 323.2977758265123 L 321.9986999049398 323.2725233012604 L 322.0694069756476 323.22201825075473 L 322.1047605110007 323.1967657255026 L 322.14011404635437 323.17151320024993 L 322.21082111706176 323.1210081497446 L 322.2461746524148 323.0957556244925 L 322.2815281877688 323.0705030992396 L 322.31688172312204 323.0452505739873 L 322.3522352584759 323.0199980487345 L 322.38758879382897 322.9947455234824 L 322.42294232918294 322.9694929982295 L 322.4582958645362 322.9442404729772 L 322.49364939989005 322.9189879477244 L 322.5290029352431 322.8937354224723 L 322.5643564705971 322.8684828972194 L 322.5997100059503 322.8432303719671 L 322.6350635413042 322.8179778467143 L 322.67041707665726 322.79272532146217 L 322.74112414736476 322.74222027095675 L 322.776477682718 322.71696774570444 L 322.8118312180714 322.69171522045207 L 322.8825382887789 322.64121016994665 L 322.91789182413174 322.61595764469473 L 323.02395243019305 322.54020006893654 L 323.0593059655459 322.5149475436846 L 323.1653665716072 322.43918996792644 L 323.20072010696003 322.4139374426745 L 323.30678071302134 322.33817986691633 L 323.3421342483744 322.3129273416642 L 323.3774877837281 322.28767481641154 L 323.4481948544355 322.23716976590623 L 323.48354838978855 322.2119172406541 L 323.51890192514225 322.18666471540143 L 323.5542554604961 322.16141219014867 L 323.5896089958492 322.1361596648965 L 323.62496253120315 322.11090713964364 L 323.6603160665564 322.08565461439133 L 323.69566960191025 322.06040208913856 L 323.7310231372633 322.0351495638864 L 323.8017302079708 321.984644513381 L 323.83708374332406 321.9593919881287 L 323.87243727867747 321.9341394628763 L 323.9250156775518 321.8965834636803 L 323.9434522025513 321.90754572178815 L 324.0555734146724 321.97421238845476 L 324.0929471520466 321.9964346106772 L 324.1676946267936 322.0408790551214 L 324.2050683641678 322.0631012773439 L 324.2798158389148 322.1075457217881 L 324.317189576289 322.12976794401055 L 324.39193705103605 322.17421238845475 L 324.42931078841025 322.1964346106772 L 324.4666845257832 322.218656832899 L 324.5040582631572 322.2408790551214 L 324.5414320005314 322.2631012773439 L 324.6535532126522 322.3297679440103 L 324.6909269500264 322.3519901662328 L 324.7656744247734 322.396434610677 L 324.8030481621476 322.41865683289944 L 324.87779563689463 322.46310127734364 L 324.9151693742688 322.4853234995661 L 324.9525431116421 322.50754572178806 L 324.9899168490155 322.52976794401013 L 325.02729058639 322.55199016623277 L 325.102038061137 322.59643461067697 L 325.1394117985112 322.61865683289943 L 325.251533010632 322.68532349956587 L 325.2889067480062 322.70754572178834 L 325.3636542227532 322.75199016623253 L 325.4010279601274 322.774212388455 L 325.47577543487444 322.8186568328992 L 325.5131491722483 322.8408790551215 L 325.5878966469956 322.88532349956586 L 325.6252703843698 322.9075457217883 L 325.7000178591168 322.9519901662325 L 325.737391596491 322.974212388455 L 325.8495128086118 323.0408790551214 L 325.886886545986 323.0631012773439 L 325.961634020733 323.1075457217881 L 325.9990077581072 323.12976794401055 L 326.03638149548016 323.15199016623234 L 326.0737552328542 323.17421238845475 L 326.1111289702284 323.1964346106772 L 326.1858764449754 323.2408790551214 L 326.2232501823496 323.2631012773439 L 326.29799765709663 323.3075457217881 L 326.3353713944708 323.32976794401054 L 326.4474926065916 323.396434610677 L 326.4848663439658 323.41865683289944 L 326.5222400813391 323.4408790551214 L 326.5596138187125 323.46310127734347 L 326.59698755608696 323.4853234995661 L 326.671735030834 323.5297679440103 L 326.7091087682082 323.55199016623277 L 326.7838562429552 323.59643461067697 L 326.8212299803294 323.61865683289943 L 326.89597745507643 323.6631012773436 L 326.93335119245063 323.6853234995661 L 327.0454724045714 323.75199016623253 L 327.0828461419456 323.774212388455 L 327.12021987931854 323.7964346106768 L 327.15759361669257 323.8186568328992 L 327.19496735406676 323.84087905512166 L 327.2697148288138 323.88532349956586 L 327.307088566188 323.9075457217883 L 327.3444623035613 323.9297679440103 L 327.3641942543573 323.94090322103824 L 327.397618384445 323.9587792571879 L 327.40490834103014 323.96260127059384 L 327.4385099421861 323.97986697941144 L 327.4458569172514 323.9835660481861 L 327.47962980581457 324.00022328476985 L 327.4870303839396 324.00379803169847 L 327.5209683762492 324.01984865114673 L 327.5284191442782 324.0232978444527 L 327.56251605667325 324.03874370186367 L 327.5700136118273 324.0420662533833 L 327.60426326064686 324.0569092038553 L 327.61180421836076 324.06010416668846 L 327.646200419944 324.07434606531973 L 327.6537814213654 324.0774126309728 L 327.68831799205134 324.0910553328616 L 327.69593571118713 324.0939928279259 L 327.7306064673149 324.1070381881705 L 327.7382576177927 324.1098460705682 L 327.77305637570134 324.1222959442669 L 327.7807377171153 324.12497379909956 L 327.81565829314394 324.13683004135066 L 327.823366636975 324.13937757639394 L 327.8584028474627 324.1506420422957 L 327.8661350625488 324.15305908317464 L 327.90128072383465 324.1637336278253 L 327.9090337413788 324.16602011291195 L 327.94428266980185 324.1761065914098 L 327.9520534879161 324.1782625664844 L 327.9873994998155 324.18776283392776 L 327.99518518759027 324.18978844664144 L 328.0306220993051 324.1987043581285 L 328.03841980039834 324.20059985230466 L 328.0739414282677 324.2089332629338 L 328.08174836403 324.21069897275163 L 328.1173485243929 324.218451737621 L 328.12516199651355 324.2200880817108 L 328.1608345057092 324.22726205591874 L 328.16865189840934 324.22876953141025 L 328.2043905727767 324.235366570055 L 328.21220935454903 324.2367457466096 L 328.24800801042727 324.2427677047895 L 328.2558257353396 324.2440192186479 L 328.2916781890678 324.24946795146116 L 328.29949249763484 324.2505924995365 L 328.33539256555207 324.25546986208144 L 328.3432011852163 324.2564681961279 L 328.3791426836616 324.2607760435028 L 328.38694342886737 324.2616489643813 L 328.4229201741799 324.2653891516844 L 328.43071094608865 324.266137503752 L 328.4667167546075 324.2693118860816 L 328.4744955404586 324.2699365517243 L 328.51052422852274 324.27254698417863 L 328.5182891006655 324.2730488785074 L 328.5543344846142 324.27509721618475 L 328.5620835992328 324.27547728191087 L 328.598139495405 324.2769653799095 L 328.6058710909515 324.27722458241453 L 328.64193131568635 324.2781542958328 L 328.6496437110622 324.27829361844636 L 328.6857020806988 324.2786668023824 L 328.6933936731724 324.278687241877 L 328.7294440040498 324.27850575142924 L 328.73711326697696 324.27840831374317 L 328.77314937543423 324.2776740040098 L 328.780794855754 324.27745970020396 L 328.81681055813027 324.2761744262832 L 328.82443087369694 324.275844268738 L 328.8604199863313 324.2740098857283 L 328.8680138230866 324.2735648845842 L 328.9039701623181 324.2711832475836 L 328.91153627130814 324.2706244074294 L 328.9474536534759 324.2676973715363 L 328.95499084776156 324.2670256883447 L 328.99086308920465 324.26355510865744 L 328.9983702406675 324.2627715669694 L 329.03419115772505 324.2587592985861 L 329.0416671937683 324.2578648689441 L 329.0774306027794 324.25331276696323 L 329.0848745029896 324.2523084035887 L 329.1205742202932 324.2472183231083 L 329.1279850130107 324.24610496182567 L 329.163614854946 324.2404787579442 L 329.17099161382794 324.2392573143425 L 329.20654539673404 324.2330968421582 L 329.21388723726966 324.2317682099923 L 329.2493587774856 324.2250753246034 L 329.2566648535027 324.2236403744268 L 329.2920479673676 324.21641693093153 L 329.29931746754033 324.21487650895756 L 329.3346059713933 324.2071243624543 L 329.3418381157607 324.20547928963964 L 329.3770258259408 324.19720029522654 L 329.38421986243446 324.1954513665751 L 329.41930059528073 324.1866473793506 L 329.4264557963001 324.18479536342625 L 329.46142336815166 324.17546823848846 L 329.4685390271607 324.1735138771384 L 329.5033872543567 324.16366546958574 L 329.5104626825451 324.1616094778609 L 329.5451853814245 324.1512416427915 L 329.55221990440594 324.14908470906784 L 329.5868108913079 324.1381993015801 L 329.5938038459049 324.13594208786253 L 329.62825693716854 324.1245409630546 L 329.6352076682456 324.12218410547126 L 329.66951668020994 324.11026911844147 L 329.6764245376004 324.10781322791144 L 329.71058328660456 324.0953862337581 L 329.7174476221161 324.09283189683225 L 329.7514499244992 324.0798947506536 L 329.75827008900166 324.07724253052476 L 329.7921097611027 324.0637970874191 L 329.7988851017284 324.06104752508725 L 329.8325559598865 324.0470956401528 L 329.83928581731175 324.04424925575205 L 329.8727816778661 324.02979278408714 L 329.87946538371926 324.02685007835487 L 329.9127800630088 324.0118908750577 L 329.9194169373706 324.00885233095534 L 329.95254425173454 323.9933922511243 L 329.9591336007762 323.99025833558665 L 329.9920673665536 323.9742992343199 L 329.9986084802759 323.9710704001469 L 330.0313425138057 323.9546141325428 L 330.03783466392036 323.95129082041024 L 330.07036278154186 323.934339241567 L 330.0768052194781 323.9309218821611 L 330.10912123753025 323.91347684717704 L 330.11551319257836 323.90996586344414 L 330.14761092740036 323.89202922741754 L 330.1539516050011 323.88842503691956 L 330.1858248729319 323.86999865494863 L 330.1921134531007 323.8663016723273 L 330.2237560704795 323.8473873995104 L 330.22999170639974 323.84359803903766 L 330.2613974895655 323.824197730473 L 330.2675793063176 323.8203164087015 L 330.2987420716095 323.8004319194874 L 330.3048691650786 323.7964590579734 L 330.3357827288358 323.77609224320804 L 330.3418541647714 323.77202827131606 L 330.37251234333286 323.7511809860978 L 330.3785271565848 323.7470263438692 L 330.40892376628966 323.72570044329626 L 330.414880960217 323.72145558437785 L 330.4450098174043 323.69965292354857 L 330.4509083634649 323.6953183181699 L 330.4807632844738 323.6730407521825 L 330.48660212199195 323.668616890179 L 330.5161769231615 323.64586627413183 L 330.5219549592884 323.64135366799576 L 330.5512434569577 323.61813185698696 L 330.5569595668176 323.61353104494503 L 330.5859555773257 323.589839894073 L 330.59160860436145 323.5851514431721 L 330.62030594404746 323.560992807535 L 330.62589470055707 323.5562173167344 L 330.6542871857601 323.5315930514306 L 330.65981045364236 323.52673115467707 L 330.68789190070146 323.50164311480484 L 330.6933484323924 323.496695484096 L 330.7211126576467 323.4711455247536 L 330.7265011772717 323.466112873157 L 330.7539419970602 323.4401028494426 L 330.759261201779 323.43498593407924 L 330.7863724324409 323.4085177010913 L 330.79162099401225 323.4033173260467 L 330.8183964518866 323.3763927388834 L 330.8235730184251 323.37110975805695 L 330.850006519851 323.3437306718165 L 330.8551097177932 323.33836599167967 L 330.88119507910966 323.3105342614604 L 330.8862235153847 323.30508884371017 L 330.91195455293087 323.2768063246104 L 330.9169068173262 323.2712811887118 L 330.9422773474411 323.24254973582975 L 330.9471520151636 323.23694596142724 L 330.97215585418644 323.2077674298612 L 330.97695148861595 323.2020861590438 L 331.00158245288577 323.17246240389204 L 331.00629760851217 323.16670484329796 L 331.030549514368 323.1366377196588 L 331.0351827399017 323.13080514241153 L 331.05904940368265 323.10029650538314 L 331.06359924533876 323.0943902528327 L 331.08707448338396 323.0634419575134 L 331.09153948832335 323.05746344077664 L 331.11461711697183 323.0260773422647 L 331.1189958368875 323.0200280435551 L 331.14166967247843 322.98820599694886 L 331.1459606673256 322.98208747066616 L 331.16822452619795 322.9498313310638 L 331.17242636803724 322.9436452046568 L 331.19427406653017 322.91095682715667 L 331.19838534349054 322.904704801717 L 331.21981069794316 322.87158604141734 L 331.24073608579096 322.8361179846642 L 331.2586425249399 322.8026939576373 L 331.26214290401805 322.7960404871813 L 331.27949899734597 322.7624396074525 L 331.2828947246536 322.7557427312155 L 331.2997010905264 322.72197180081156 L 331.3029917768879 322.7152332294287 L 331.3192490336716 322.68129905037665 L 331.32243433975106 322.6745204477388 L 331.33814310581187 322.6404298220657 L 331.341222738192 322.6336128039413 L 331.3563836318959 322.59937253367406 L 331.35935733911555 322.5925186666135 L 331.3739709788287 322.5581355537792 L 331.3768385474119 322.5512463542607 L 331.39090555150034 322.51672720088635 L 331.39366680197253 322.50980413474593 L 331.40718778880233 322.4751557428585 L 331.40984257172585 322.46820022495774 L 331.42281815966317 322.4334293965842 L 331.42536635169785 322.42644279073295 L 331.4377971591088 322.3915563279004 L 331.44023865911356 322.384539947018 L 331.45212530436413 322.3495446517534 L 331.4544600295476 322.3424997582769 L 331.46580313100395 322.3074024326072 L 331.4680310131475 322.3003302391077 L 331.4788311891757 322.2651376850599 L 331.480952170926 322.2580393550953 L 331.4912100398921 322.22275837469647 L 331.4932240711421 322.21563502387363 L 331.5029402514123 322.18027241915075 L 331.5048472857809 322.1731251163798 L 331.5140223957212 322.13768768935995 L 331.5158223871315 322.13051745832786 L 331.5244570451081 322.09501201103785 L 331.5261499444849 322.08781983184855 L 331.5342447688638 322.05225316631555 L 331.53583052094723 322.0450399773273 L 331.5433861300945 322.0094188955783 L 331.5448646703834 322.002185595404 L 331.55188168266517 321.96651689946594 L 331.5532529344936 321.9592643491476 L 331.559731968276 321.9235548410475 L 331.5609958400311 321.91628386638115 L 331.56693751368016 321.88054034814604 L 331.56809389616456 321.873251742169 L 331.57349882804635 321.83748101582586 L 331.5745475919941 321.8301755414375 L 331.57941640047477 321.7943844090134 L 331.5803573942229 321.78706280174003 L 331.5846906976686 321.7512580652619 L 331.5855237449912 321.7439210361536 L 331.5893221617678 321.7081094976485 L 331.5900470598765 321.7007577363023 L 331.5933112083503 321.6649461977971 L 331.5939277260679 321.65758037549114 L 331.59665822460494 321.62177563901304 L 331.59716610071433 321.6143964119641 L 331.5993635676807 321.57860527953994 L 331.5997625094563 321.571213292264 L 331.60142756321807 321.5354425659209 L 331.6017172451439 321.5280384546953 L 331.6028505040672 321.4922949364602 L 331.6030305667463 321.4848793328799 L 331.6036326491972 321.44916982477986 L 331.60370269845845 321.4417433594077 L 331.603774222803 321.40607466346967 L 331.60373382901025 321.3986379695692 L 331.6032754136146 321.3630168878202 L 331.60312411118355 321.3555706051625 L 331.6021363744137 321.3200039396295 L 331.6018736615433 321.3125487183822 L 331.6003572217655 321.2770432710922 L 331.5999825603888 321.26957977575955 L 331.59793803596904 321.2341423487396 L 331.5974508519302 321.22667126217397 L 331.5948788612346 321.1913086574511 L 331.59427854469897 321.1838306849087 L 331.5911797060935 321.14854970450983 L 331.5904656121972 321.141065577756 L 331.58684054404813 321.1058730237083 L 331.58601199379245 321.0983835051432 L 331.58186131446575 321.0632861794735 L 331.5809175958673 321.05579206630733 L 331.5762419237291 321.0207967710427 L 331.5751822932272 321.0132988994619 L 331.56998224664363 320.9784124366293 L 331.5688059307775 320.9709116859881 L 331.56308212811456 320.9361408576146 L 331.56178832547374 320.9286381546103 L 331.5555413850976 320.89398976272287 L 331.5541292685525 320.88648608554945 L 331.5473598088293 320.85196693217506 L 331.54582852805135 320.84446331465335 L 331.53853716734704 320.81008020181906 L 331.53688585162286 320.80257773747695 L 331.52907320830366 320.76833746720973 L 331.5273009696463 320.76083731328896 L 331.51896766207824 320.72674668761584 L 331.5170735986477 320.71925006901444 L 331.50822024519687 320.68531588996245 L 331.5062034450264 320.6778241030622 L 331.49683066405885 320.6440531726583 L 331.4946902090978 320.6365675890464 L 331.48479861897977 320.60296670931757 L 331.4825335894472 320.59548877934975 L 331.4721238085446 320.562064752323 L 331.46973328760595 320.55459600854675 L 331.45880593428495 320.52135563624915 L 331.4562890130393 320.5138976966175 L 331.44484470566596 320.480847781076 L 331.44220048845193 320.47340235196265 L 331.43023984539246 320.44054969520425 L 331.4274674554004 320.43311857416705 L 331.41499109502075 320.4004699782188 L 331.41208968021607 320.39305505651384 L 331.39909822088237 320.3606173234027 L 331.3960669602193 320.35322058818525 L 331.3825610202977 320.32100051993825 L 331.3793991302198 320.3136240561425 L 331.3653793280763 320.28162845478664 L 331.3620860692946 320.2742744466625 L 331.34755302329535 320.24251011422473 L 331.3441277078145 320.2351808464695 L 331.32908203632564 320.20365458497696 L 331.32552403471107 320.19635244346136 L 331.3099663560986 320.1650710549409 L 331.30627510495736 320.1577985269861 L 331.2902060375874 320.1267688134648 L 331.2863810472344 320.11952848763866 L 331.26980120947303 320.08875725114353 L 331.26584207175387 320.0815518165447 L 331.2487520819672 320.05104585910266 L 331.2446584782072 320.0438781041142 L 331.2270589547614 320.01364422775237 L 331.22283066379947 320.0065170382258 L 331.20472222506044 319.97656204497116 L 331.20035913133216 319.9694784018271 L 331.18174239566616 319.9398090937066 L 331.17724449727905 319.932772069907 L 331.1581200830521 319.90339524894773 L 331.153487499827 319.8964080058577 L 331.1338560254052 319.86733047408654 L 331.12908900680753 319.86039625716586 L 331.108951090557 319.8316248166099 L 331.1040500234815 319.8247469504535 L 331.0834062837682 319.7962884031398 L 331.07837170011396 319.78947028584884 L 331.05722275530417 319.76133143380423 L 331.0520553392714 319.7545765306698 L 331.03040180773115 319.7267641759214 L 331.02510240279656 319.7200760124519 L 331.0029449028919 319.69259695702675 L 330.99751451838057 319.68597911130024 L 330.9748536684776 319.65884015722526 L 330.96929348567636 319.6522962515903 L 330.9461299041412 319.6255042008925 L 330.94044128188744 319.6190378930407 L 330.91677558708614 319.5925995477471 L 330.91096006676895 319.5862145211798 L 330.88679287706765 319.56013668331747 L 330.8808521869733 319.55383663723893 L 330.856184120738 319.5281261088348 L 330.85012017968523 319.5219147475172 L 330.82495185528217 319.49657833059825 L 330.8187667754817 319.49045935225905 L 330.7930988112769 319.4655038488524 L 330.7867949003731 319.4594809341111 L 330.76062791473254 319.4349131462437 L 330.7542076769592 319.42898994620015 L 330.72754228824914 319.4048166758989 L 330.7210084246702 319.39899679991646 L 330.6938452512566 319.3752248492085 L 330.68720065905165 319.36951185247256 L 330.6595403193007 319.3461480233848 L 330.65278809005304 319.3405453943044 L 330.6246312023308 319.31759648886396 L 330.61777461931246 319.31210763641576 L 330.589121801985 319.2895804566495 L 330.5821643364048 319.28420869773436 L 330.5530162078382 319.2621100456694 L 330.5459615140684 319.2568585925882 L 330.51631869262883 319.23519527025144 L 330.5091706023904 319.2300672183734 L 330.4790337064439 319.20884602779194 L 330.4717962219886 319.20384434352655 L 330.4411658699012 319.18307208672735 L 330.43384315619323 319.178199595876 L 330.4027199663311 319.15788307488606 L 330.3953163422743 319.15314245147476 L 330.3637009330036 319.13328846832115 L 330.3562208617541 319.1286822239978 L 330.32411385144076 319.10929758070745 L 330.3165619298551 319.1048280547884 L 330.2839639368653 319.0859195533883 L 330.27634488415083 319.0815889036355 L 330.2470766797862 319.06529063361126 L 330.2003539943809 319.0381914760762 L 330.1498489438756 319.00889854678314 L 330.0993438933708 318.97960561749034 L 330.04883884286585 318.95031268819747 L 329.9983337923607 318.92101975890444 L 329.9478287418554 318.8917268296114 L 329.8973236913506 318.8624339003186 L 329.8468186408453 318.83314097102556 L 329.7963135903405 318.80384804173275 L 329.7458085398352 318.7745551124397 L 329.6953034893304 318.7452621831469 L 329.64479843882543 318.71596925385404 L 329.5942933883203 318.686676324561 L 329.543788337815 318.65738339526797 L 329.4932832873102 318.62809046597516 L 329.4427782368049 318.5987975366821 L 329.3922731863001 318.5695046073893 L 329.3417681357948 318.5402116780963 L 329.29126308529 318.5109187488035 L 329.2407580347853 318.4816258195107 L 329.19025298427965 318.45233289021746 L 329.13974793377486 318.42303996092465 L 329.08924288326955 318.3937470316316 L 329.03873783276475 318.3644541023388 L 328.98823278225944 318.3351611730458 L 328.93772773175465 318.30586824375297 L 328.8872226812497 318.2765753144601 L 328.83671763074454 318.24728238516707 L 328.78621258023924 318.21798945587403 L 328.73570752973444 318.1886965265812 L 328.68520247922913 318.1594035972882 L 328.63469742872434 318.1301106679954 L 328.58419237821903 318.10081773870235 L 328.53368732771423 318.07152480940954 L 328.48318227720927 318.0422318801167 L 328.43267722670413 318.01293895082364 L 328.3821721761988 317.9836460215306 L 328.331667125694 317.9543530922378 L 328.2811620751887 317.92506016294476 L 328.1801519741789 317.86647430435903 L 328.12964692367393 317.83718137506617 L 328.0791418731688 317.80788844577313 L 328.0286368226635 317.7785955164801 L 327.9781317721587 317.7493025871873 L 327.9276267216534 317.72000965789425 L 327.8771216711486 317.69071672860144 L 327.8266166206433 317.6614237993084 L 327.7761115701385 317.6321308700156 L 327.7256065196335 317.60283794072274 L 327.6751014691284 317.5735450114297 L 327.62459641862307 317.54425208213667 L 327.5740913681183 317.51495915284386 L 327.52358631761297 317.4856662235508 L 327.47308126710817 317.456373294258 L 327.42257621660286 317.427080364965 L 327.37207116609807 317.39778743567217 L 327.3215661155931 317.3684945063793 L 327.22055601458294 317.30990864779335 L 327.17005096407763 317.2806157185003 L 327.11954591357284 317.2513227892075 L 327.0690408630675 317.22202985991447 L 327.01853581256273 317.19273693062166 L 326.96803076205777 317.1634440013288 L 326.9175257115526 317.13415107203576 L 326.8670206610473 317.1048581427427 L 326.8165156105425 317.0755652134499 L 326.7660105600372 317.0462722841569 L 326.7155055095324 317.0169793548641 L 326.6650004590271 316.98768642557104 L 326.6144954085223 316.95839349627823 L 326.56399035801735 316.92910056698537 L 326.5134853075122 316.89980763769233 L 326.4629802570069 316.8705147083993 L 326.4124752065021 316.8412217791065 L 326.3619701559968 316.81192884981346 L 326.311465105492 316.78263592052065 L 326.2609600549867 316.7533429912276 L 326.21045500448224 316.724050061935 L 326.1599499539769 316.6947571326418 L 326.10944490347157 316.6654642033488 L 326.0589398529668 316.636171274056 L 326.00843480246147 316.60687834476295 L 325.95792975195667 316.57758541547014 L 325.90742470145136 316.5482924861771 L 325.85691965094657 316.5189995568843 L 325.8064146004416 316.48970662759143 L 325.75590954993646 316.4604136982984 L 325.70540449943115 316.43112076900536 L 325.65489944892636 316.40182783971255 L 325.60439439842105 316.3725349104195 L 325.55388934791625 316.3432419811267 L 325.50338429741095 316.3139490518337 L 325.45287924690615 316.28465612254087 L 325.4023741964012 316.255363193248 L 325.35186914589605 316.22607026395497 L 325.30136409539074 316.19677733466193 L 325.2565768182095 316.1708007138968 L 325.2379017995819 316.1592989462657 L 325.23227917921866 316.15588682974015 L 325.20785670738263 316.14128483592174 L 325.2021953939604 316.1379502808282 L 325.1776566692992 316.12371312300365 L 325.1719585737192 316.120456932252 L 325.1473066880634 316.10658337368915 L 325.141573721199 316.10340627838076 L 325.1168117663789 316.08989508234737 L 325.1110458355563 316.0867977423138 L 325.08617690340236 316.07364767207775 L 325.08037990896685 316.070630676618 L 325.05540709130963 316.057840495447 L 325.04958092327917 316.0549043642503 L 325.02450731194904 316.04247283541235 L 325.0186538468025 316.0396180196768 L 324.99348253363 316.0275439064395 L 324.9876036311739 316.0247707901429 L 324.9623377079894 316.0130528557742 L 324.95643520839695 316.0103617571303 L 324.93107776703096 315.998998764898 L 324.92515348797633 315.99638993794485 L 324.8997076202592 315.9853806511168 L 324.8937633542288 315.9828542874632 L 324.86823215199115 315.97219746930716 L 324.86226966370936 315.9697536999934 L 324.83665621878157 315.95944811377717 L 324.8306772428206 315.95708701126784 L 324.8049846470331 315.9471314202593 L 324.7989908855683 315.9448530005377 L 324.77322223075157 315.93524616800465 L 324.76721535146766 315.9330503927585 L 324.74137372945216 315.9237910819687 L 324.7353553636282 315.92167786086645 L 324.7094438662444 315.9127648350878 L 324.7034156069953 315.91073402812344 L 324.67743732607363 315.90216605062375 L 324.67140072676006 315.9002174705245 L 324.645358754131 315.89199330457154 L 324.63931532692413 315.89012671925195 L 324.61321275441816 315.88224512811354 L 324.60716396903945 315.8804602631726 L 324.581003888487 315.8729200101166 L 324.5749511711043 315.8712165513623 L 324.54873667433577 315.86401639965646 L 324.5426814066108 315.8623939956462 L 324.51641558545674 315.8555327085584 L 324.51035910376345 315.85399097315394 L 324.4840450500542 315.84746731395194 L 324.4779886448267 315.84600582886713 L 324.4516294503929 315.83981856081886 L 324.4455743656471 315.83843687816676 L 324.41917312231897 315.83258476453994 L 324.4131205552927 315.8312824093563 L 324.3866803549009 315.8257642134187 L 324.38063145584374 315.8245406861642 L 324.35415539021864 315.81935517118376 L 324.34811126231426 315.81820995021553 L 324.32160242328627 315.81335587946 L 324.31556412269583 315.812288423464 L 324.2890256020955 315.80776456020124 L 324.2829941381268 315.8067743105816 L 324.2564290277845 315.8025794180794 L 324.25040536317175 315.8016658012988 L 324.223816754918 315.79779864282494 L 324.21780180621107 315.796961072691 L 324.19119279187635 315.79342041151335 L 324.18518742993643 315.7926582914077 L 324.1585611013511 315.7894428907941 L 324.1525661519367 315.7887556158392 L 324.1259256009313 315.7858642390574 L 324.119941845376 315.78525119821825 L 324.0932901637809 315.7826826085361 L 324.0873183397597 315.78214318665505 L 324.0606586194055 315.77989614734037 L 324.05469942177086 315.77942972710093 L 324.02803475448786 315.7775030014215 L 324.0220888361837 315.777108965241 L 323.99542231380246 315.77550131646467 L 323.989490286844 315.77517904831313 L 323.9628250011949 315.7738892397077 L 323.95690743770444 315.77363812685263 L 323.930246480618 315.772664921686 L 323.924343913923 315.77248435636176 L 323.89769037722965 315.7718265179017 L 323.8918033030035 315.7717158989035 L 323.8651602785337 315.77137219041776 L 323.8592891559859 315.77133092461975 L 323.83265973557013 315.77130010937617 L 323.82680498867336 315.77132761317444 L 323.800192264142 315.7716084544409 L 323.7943542829052 315.77170415512103 L 323.76776134608883 315.77229541616526 L 323.7619404878377 315.77245875319585 L 323.7353704305667 315.7733591972858 L 323.7295670212873 315.7735896235379 L 323.70302293539214 315.7747980139412 L 323.6972372710575 315.7750949968359 L 323.6707222483686 315.77661009682055 L 323.664954596323 315.7769731194042 L 323.6384717286709 315.7787936922379 L 323.6327223289999 315.7792222541885 L 323.6062747082149 315.78134706313915 L 323.6005437751549 315.7818406817021 L 323.5741344930677 315.78426849003745 L 323.56842221640386 315.78482670089596 L 323.54205436484466 315.7875562718839 L 323.5363609113342 315.78817862996215 L 323.51003758213363 315.7912087268704 L 323.50436309692634 315.79189480707305 L 323.4780873819148 315.7952241931695 L 323.47243198997825 315.79597359105827 L 323.4462069809862 315.7996010296107 L 323.4405707885369 315.80041336202004 L 323.4143995773947 315.8043376162963 L 323.4087826733276 315.80521252188873 L 323.3826683518659 315.8094323551566 L 323.37707080917755 315.8103694949215 L 323.3510164692267 315.8148836704488 L 323.3454383464458 315.81588272814275 L 323.3194470798362 315.82069000919734 L 323.3138884224409 315.8217506917313 L 323.28796332100313 315.826849841581 L 323.28242416284326 315.8279718793518 L 323.25656831840763 315.8333616612644 L 323.25104868310996 315.834544808436 L 323.2252651875071 315.84022398567936 L 323.2197650898895 315.84146802041 L 323.1940570349497 315.8474353562518 L 323.1885764824087 315.8487400808757 L 323.16294695996254 315.8549943385839 L 323.1574859538755 315.85635957973864 L 323.1319380557533 315.862899522581 L 323.1264965928584 315.8643251312907 L 323.1010334108908 315.871149522535 L 323.0956114846609 315.87263537424576 L 323.0702361106782 315.87974297715994 L 323.0648337126965 315.88128897172663 L 323.0395492385293 315.8886785495784 L 323.03416635984206 315.89028461120944 L 323.0089758773207 315.89795492726665 L 323.00361250979626 315.8996210044196 L 322.97851911075117 315.90757082195006 L 322.9731752484174 315.909296887186 L 322.94818202467917 315.91752496945753 L 322.94285766506783 315.9193110192468 L 322.91796770846685 315.92781612952723 L 322.912662853935 315.92966218401443 L 322.8878792563017 315.9384430855716 L 322.8825939153531 315.94034918829465 L 322.85791976851795 315.9494046443963 L 322.85265395711394 315.9513708619607 L 322.8280923529074 315.96069963587473 L 322.82284609577533 315.9627260575817 L 322.79840012602784 315.97232691257585 L 322.7931734579479 315.9744136500095 L 322.76884621448994 315.9842853493517 L 322.7636391815894 315.98643253591575 L 322.7394337562514 315.9965738428737 L 322.7342464172776 315.9987816332859 L 322.7101659018901 316.00919131112744 L 322.70499832948343 316.0114598808642 L 322.68104581587676 316.0221366928572 L 322.67589809782714 316.024466237554 L 322.6520766778319 316.0354089469663 L 322.6469489183379 316.0377996817634 L 322.62326168378445 316.04900705186265 L 322.6181540046803 316.05145921071227 L 322.5946040473991 316.0629300047665 L 322.5895165894009 316.06544383967486 L 322.56610700122235 316.07717682095176 L 322.56103992513255 316.07975260118445 L 322.53777379788727 316.0917465329519 L 322.53272728581436 316.09438454417244 L 322.50960771133265 316.1066381896982 L 322.5045819678689 316.10933873306715 L 322.48161203798134 316.1218508556191 L 322.4766072913993 316.12461424682016 L 322.45379009793623 316.137383609666 L 322.44880660133185 316.14021017789554 L 322.42614523612383 316.15323554430324 L 322.4211832685799 316.1561256311802 L 322.3986808234573 316.1694057644175 L 322.39374069115377 316.1723597228534 L 322.3714002579471 316.18589338618807 L 322.3664822952707 316.188911579184 L 322.3443069658104 316.20269753588394 L 322.3394115364394 316.20578033526544 L 322.31740440255595 316.21981734859844 L 322.3125319005066 316.22296513369486 L 322.2906960540304 316.23725196692874 L 322.28584690468585 316.2404651231804 L 322.2641854374474 316.25500053958297 L 322.2593600985519 316.2582794570848 L 322.2378761023817 316.27306221992393 L 322.23307506500186 316.2764072919 L 322.21177163173024 316.2914361644434 L 322.20694010673395 316.29488779460615 L 322.1594653592594 316.3292312289497 L 322.11199061178615 316.363574663292 L 322.0645158643112 316.3979180976356 L 322.01704111683665 316.4322615319789 L 321.96956636936204 316.4666049663222 L 321.92209162188715 316.5009484006657 L 321.8271421269375 316.5696352693528 L 321.7796673794629 316.60397870369604 L 321.73219263198797 316.63832213803965 L 321.6847178845134 316.6726655723829 L 321.63724313703847 316.70700900672654 L 321.58976838956426 316.7413524410695 L 321.49481889461424 316.8100393097568 L 321.4473441471397 316.8443827441001 L 321.39986939966474 316.8787261784437 L 321.3523946521902 316.91306961278696 L 321.2574451572405 316.981756481474 L 321.2099704097663 317.016099915817 L 321.162495662291 317.05044335016083 L 321.11502091481645 317.0847867845041 L 321.0675461673415 317.1191302188477 L 321.02007141986695 317.153473653191 L 320.9251219249173 317.22216052187804 L 320.8776471774427 317.2565039562213 L 320.8301724299681 317.29084739056464 L 320.7826976824932 317.32519082490813 L 320.73522293501827 317.35953425925175 L 320.6877481875437 317.393877693595 L 320.59279869259404 317.46256456228207 L 320.5453239451195 317.49690799662534 L 320.49784919764454 317.53125143096895 L 320.45037445017 317.5655948653122 L 320.4028997026954 317.59993829965555 L 320.3554249552205 317.63428173399905 L 320.2604754602708 317.7029686026861 L 320.21300071279626 317.73731203702937 L 320.1655259653213 317.771655471373 L 320.11805121784676 317.80599890571625 L 320.0705764703718 317.84034234005986 L 320.0231017228976 317.87468577440285 L 319.9281522279476 317.94337264309013 L 319.880677480473 317.9777160774334 L 319.8332027329981 318.012059511777 L 319.7857279855235 318.0464029461203 L 319.69077849057385 318.11508981480733 L 319.64330374309964 318.1494332491503 L 319.59582899562434 318.18377668349416 L 319.5483542481498 318.21812011783743 L 319.50087950067484 318.25246355218104 L 319.4534047532003 318.2868069865243 L 319.3584552582506 318.35549385521136 L 319.31098051077606 318.38983728955463 L 319.26350576330145 318.42418072389796 L 319.21603101582656 318.45852415824146 L 319.1685562683516 318.49286759258507 L 319.12108152087706 318.52721102692834 L 319.0261320259274 318.5958978956154 L 318.97865727845283 318.63024132995866 L 318.9311825309779 318.6645847643023 L 318.8837077835033 318.69892819864555 L 318.8362330360287 318.7332716329889 L 318.7887582885538 318.7676150673324 L 318.69380879360415 318.8363019360194 L 318.6463340461296 318.8706453703627 L 318.59885929865465 318.9049888047063 L 318.5513845511801 318.9393322390496 L 318.50390980370514 318.9736756733932 L 318.45643505623093 319.0080191077362 L 318.3614855612809 319.07670597642345 L 318.31401081380636 319.1110494107667 L 318.2665360663314 319.14539284511034 L 318.21906131885686 319.1797362794536 L 318.1241118239072 319.24842314814066 L 318.076637076433 319.28276658248365 L 318.0291623289577 319.3171100168275 L 317.98168758148313 319.35145345117076 L 317.9342128340082 319.38579688551437 L 317.8867380865336 319.42014031985764 L 317.79178859158395 319.4888271885447 L 317.7443138441094 319.52317062288796 L 317.6968390966348 319.5575140572313 L 317.6493643491599 319.5918574915748 L 317.60188960168495 319.6262009259184 L 317.5544148542104 319.66054436026167 L 317.50831855905847 319.69389061632904 L 317.479615411259 319.71435849618905 L 317.47256967020087 319.7194758668995 L 317.4429123171581 319.74141322847566 L 317.4359867354579 319.7466295428751 L 317.4067628570452 319.7690405728772 L 317.39995880284704 319.77435232158234 L 317.37117087252864 319.7972289812512 L 317.3644895158934 319.80263271477673 L 317.33614000713374 319.8259669653531 L 317.3295823287911 319.83145930379544 L 317.3016737150545 319.85524310652016 L 317.2952405156385 319.86082074837 L 317.2677752703894 319.8850460644839 L 317.2614671800697 319.890705794566 L 317.23444777677236 319.9153645853098 L 317.22826526519117 319.9211032818618 L 317.20169417731 319.9461875084765 L 317.1956375637651 319.95200214936136 L 317.1695172647645 319.9775037730877 L 317.1635867285397 319.9833914411806 L 317.13791969188395 320.00930242325927 L 317.1321152826688 320.0152603110228 L 317.10690398182237 320.0415726126948 L 317.10122563017035 320.0475980259568 L 317.07647253859756 320.0743036084628 L 317.0709200663344 320.08039396945867 L 317.0466276574996 320.1074847940396 L 317.0412007880601 320.11363764372135 L 317.0173715354277 320.1411056716179 L 317.01206990405257 320.14731867128955 L 316.9887062810869 320.1751558637426 L 316.9835294448507 320.18142679604443 L 316.9606339250161 320.2096251142948 L 316.9555813726429 320.21595188358475 L 316.9331564294037 320.24450328887326 L 316.9282275908422 320.2508839210391 L 316.90627569766286 320.27978037460645 L 316.90146995339376 320.28621301635076 L 316.87999358373867 320.3154464794379 L 316.875310273798 320.32192939706493 L 316.8543119011314 320.35149183091266 L 316.8497503338162 320.35802340867593 L 316.8292324316026 320.387906774525 L 316.8247918918702 320.3944855125381 L 316.8047569335738 320.42468177162937 L 316.8004366910978 320.4313062834106 L 316.7808871501831 320.46180739698485 L 316.7766864670812 320.4684764066372 L 316.7576248170125 320.4992743359353 L 316.75354295522556 320.5059866750154 L 316.73497166946726 320.5370733812781 L 316.73100789779875 320.5438279853674 L 316.7129294498152 320.5751954298355 L 316.70908305062346 320.58199133485107 L 316.691499913879 320.6136314787655 L 316.68777018943183 320.62046781702435 L 316.67068483739087 320.6523726216258 L 316.6670711158765 320.6592486176976 L 316.6504860220034 320.6914100442269 L 316.64698766321305 320.69832501058113 L 316.63090530097213 320.7307350202792 L 316.62752170165015 320.7376883527568 L 316.6119445445058 320.7703389068643 L 316.6086751433776 320.777330079986 L 316.5936056647942 320.81021313974384 L 316.5904499472837 320.8172417018569 L 316.57589062072554 320.85034922850593 L 316.5728481233532 320.8574147968108 L 316.5588014222848 320.89073875159175 L 316.555871736773 320.89784100702076 L 316.5423401346586 320.93137335117444 L 316.5395229117331 320.93851203316314 L 316.5265088820371 320.97224472793044 L 316.52380383493926 320.97941962907385 L 316.51130985112604 321.0133446356955 L 316.5087167588405 321.02055559629076 L 316.49674529437436 321.0546648760077 L 316.4942640045722 321.061911778502 L 316.4828175329176 321.09619729255485 L 316.48044796462216 321.103480055889 L 316.4695289592434 321.13793376551877 L 316.4672711052211 321.14525233937144 L 316.4568820395825 321.17986620581877 L 316.45473596845545 321.1872205647623 L 316.4448793160215 321.22198654926814 L 316.4428451741099 321.22937668681755 L 316.4335234083449 321.2642867506226 L 316.4316014212291 321.2717126732023 L 316.42281701559745 321.30675877754743 L 316.4210074894043 321.31422049835504 L 316.41276291737034 321.34939460448106 L 316.41106623977646 321.35689213725846 L 316.4033639748045 321.3921862064062 L 316.4017806157508 321.39971955912233 L 316.3946231313053 321.4351255525326 L 316.39315364341974 321.44269472096136 L 316.386543412965 321.47820459987497 L 316.38518843168015 321.4858095610947 L 316.37912792868053 321.5214152867525 L 316.37788817204114 321.52905599254564 L 316.37237986996104 321.56474952618834 L 316.37125613810906 321.5724258963565 L 316.3663025104129 321.608199199225 L 316.3652956847373 321.61591111481886 L 316.36089920488934 321.65175614815394 L 316.36001024682787 321.65950344463295 L 316.3561733882925 321.6954121696755 L 316.3554033377722 321.7031946299847 L 316.3521285740138 321.7391590079754 L 316.35147854751295 321.7469763555708 L 316.3487683519959 321.7829883477505 L 316.34823954021294 321.7908402395683 L 316.3460963864016 321.82689180717784 L 316.3456900515135 321.8347778265651 L 316.3441164128722 321.8708609308453 L 316.343833885364 321.8787805804724 L 316.34283223535715 321.9148871826641 L 316.34267491040765 321.9228398774316 L 316.3422477224996 321.9589619387756 L 316.342217055903 321.9669469987353 L 316.3423668035581 322.0030764804724 L 316.34246430716667 322.0110931238001 L 316.34319346384933 322.04722198717104 L 316.343420700519 322.0552693231926 L 316.3447317396935 322.09138952943835 L 316.34509031771876 322.09946655177896 L 316.3469857128496 322.1355700621402 L 316.3474772798715 322.1436756419802 L 316.3499595044229 322.17975441769784 L 316.35058574080085 322.1878872972321 L 316.35365726823727 322.22393329954684 L 316.35441987987207 322.2320920856298 L 316.3580831836578 322.2680972757825 L 316.3589838942613 322.27628043385465 L 316.36324144786073 322.31223677308617 L 316.36428199066734 322.32044262139647 L 316.3691362675449 322.3563420709476 L 316.3703183764646 322.3645687751335 L 316.37577185008456 322.40040329624503 L 316.37709725030436 322.4086488643384 L 316.3831523941312 322.4444104182511 L 316.38462279217146 322.4526726961423 L 316.39128207966945 322.48835324409714 L 316.39289915291334 322.4966299115415 L 316.4001650575469 322.53222141477914 L 316.40193044326094 322.54050998199017 L 316.40980543849435 322.5760044017515 L 316.4117207223701 322.58430220665645 L 316.4202072816678 322.6196915041823 L 316.4222739859174 322.62799571039506 L 316.4313745827438 322.66327184692614 L 316.43359415379143 322.67157944250476 L 316.44331126161075 322.706734379282 L 316.44568505743257 322.7150421763487 L 316.4560211497093 322.7500678746128 L 316.45855042687157 322.7583725098619 L 316.46950797707 322.79326093085376 L 316.4721938775411 322.8015588670522 L 316.4837753591257 322.8363019720127 L 316.4866188969257 322.8445895005112 L 316.49882678336064 322.879179250681 L 316.50182883113985 322.88745249501557 L 316.5146655958897 322.92188085163554 L 316.5178268715128 322.9301357722312 L 316.53129498804185 322.9643946965422 L 316.53461604128944 322.9726270965962 L 316.54871798306203 323.00670854983895 L 316.55219918253937 323.01491408237666 L 316.56693742301985 323.0488100257921 L 316.57057894339147 323.0569842019403 L 316.5859559560443 323.0906865967691 L 316.58975776569986 323.0988247952324 L 316.6057760239893 323.13232560271547 L 316.6097378732724 323.14042308048573 L 316.6263998506629 323.17371426186384 L 316.6305212607664 323.1817661661069 L 316.64782943072225 323.2148396826209 L 316.65210968338755 323.2228410637473 L 316.67006651937317 323.255688876638 L 316.67450464750607 323.2636347024945 L 316.69311262298584 323.2962487730027 L 316.6977074023088 323.304133944129 L 316.716968990747 323.33650623349547 L 316.72171893261236 323.3443255993912 L 316.7416366074734 323.3764480688568 L 316.746539952927 323.3841964451384 L 316.76711618767524 323.4160610559439 L 316.7721709028965 323.42373324233085 L 316.7934081709964 323.45533195571716 L 316.79861194418754 323.4629227547034 L 316.8205127191033 323.4942475319113 L 316.82586295891724 323.50175176800843 L 316.8484297141133 323.5327945702786 L 316.85392354967894 323.5402071096829 L 316.86673557226914 323.557164367219 L 316.8682252096485 323.56036283979927 Z" id="element_31" /></svg>