<svg xmlns="http://www.w3.org/2000/svg" viewBox="0.0 0.0 200.0 200.0" height="200.0px" width="200.0px"><path fill="#e1efff" fill-opacity="1.0"  filling="0" d="M196.66665649414062 30.0 L196.66665649414062 186.66665649414062 A10.0 10.0 0.0 0 1 186.66665649414062 196.66665649414062 L13.333335876464844 196.66665649414062 A10.0 10.0 0.0 0 1 3.3333358764648438 186.66665649414062 L3.3333358764648438 30.0 L6.6666717529296875 26.666671752929688 L193.3333282470703 26.666671752929688 L196.66665649414062 30.0 Z"></path>
<path fill="#3778c6" fill-opacity="1.0"  filling="0" d="M196.66665649414062 13.333335876464844 L196.66665649414062 30.0 L3.3333358764648438 30.0 L3.3333358764648438 13.333335876464844 A10.0 10.0 0.0 0 1 13.333335876464844 3.3333358764648438 L186.66665649414062 3.3333358764648438 A10.0 10.0 0.0 0 1 196.66665649414062 13.333335876464844 Z"></path>
<path fill="#9693eb" fill-opacity="1.0"  filling="0" d="M40.0 43.333335876464844 A13.333333015441895 13.333333015441895 0.0 1 0 53.333335876464844 56.66666793823242 A13.333333015441895 13.333333015441895 0.0 0 0 40.0 43.333335876464844 Z"></path>
<path fill="#9693eb" fill-opacity="1.0"  filling="0" d="M93.33333587646484 56.66666793823242 A13.333333015441895 13.333333015441895 0.0 1 1 66.66667175292969 56.66666793823242 A13.333333015441895 13.333333015441895 0.0 1 1 93.33333587646484 56.66666793823242 Z"></path>
<path fill="#9693eb" fill-opacity="1.0"  filling="0" d="M133.3333282470703 56.66666793823242 A13.333333015441895 13.333333015441895 0.0 1 1 106.66666412353516 56.66666793823242 A13.333333015441895 13.333333015441895 0.0 1 1 133.3333282470703 56.66666793823242 Z"></path>
<path fill="#9693eb" fill-opacity="1.0"  filling="0" d="M160.0 43.333335876464844 A13.333333015441895 13.333333015441895 0.0 1 0 173.3333282470703 56.66666793823242 A13.333333015441895 13.333333015441895 0.0 0 0 160.0 43.333335876464844 Z"></path>
<path fill="#aea8fb" fill-opacity="1.0"  filling="0" d="M53.333335876464844 56.66666793823242 A13.333333015441895 13.333333015441895 0.0 0 1 50.66666793823242 64.66667175292969 L40.0 56.66666793823242 L40.0 43.333335876464844 A13.333333015441895 13.333333015441895 0.0 0 1 53.333335876464844 56.66666793823242 Z"></path>
<path fill="#aea8fb" fill-opacity="1.0"  filling="0" d="M93.33333587646484 56.66666793823242 A13.333333015441895 13.333333015441895 0.0 0 1 80.0 70.0 L80.0 43.333335876464844 A13.333333015441895 13.333333015441895 0.0 0 1 93.33333587646484 56.66666793823242 Z"></path>
<path fill="#aea8fb" fill-opacity="1.0"  filling="0" d="M133.3333282470703 56.66666793823242 L120.0 56.66666793823242 L120.0 43.333335876464844 A13.333333015441895 13.333333015441895 0.0 0 1 133.3333282470703 56.66666793823242 Z"></path>
<path fill="#aea8fb" fill-opacity="1.0"  filling="0" d="M173.3333282470703 56.66666793823242 A13.333333015441895 13.333333015441895 0.0 0 1 152.0 67.33333587646484 L160.0 56.66666793823242 L160.0 43.333335876464844 A13.333333015441895 13.333333015441895 0.0 0 1 173.3333282470703 56.66666793823242 Z"></path>
<path fill="#bfdbf0" fill-opacity="1.0"  filling="0" d="M170.0 100.0 A6.75666618347168 6.75666618347168 0.0 0 0 176.66665649414062 93.33333587646484 A6.686666488647461 6.686666488647461 0.0 0 0 170.0 86.66666412353516 L30.0 86.66666412353516 A6.8333330154418945 6.8333330154418945 0.0 0 0 23.333335876464844 93.33333587646484 A6.686666488647461 6.686666488647461 0.0 0 0 30.0 100.0 L170.0 100.0 Z"></path>
<path fill="#3778c6" fill-opacity="1.0"  filling="0" d="M110.0 93.33333587646484 A10.0 10.0 0.0 1 1 90.0 93.33333587646484 A10.0 10.0 0.0 1 1 110.0 93.33333587646484 Z"></path>
<path fill="#bfdbf0" fill-opacity="1.0"  filling="0" d="M170.0 130.0 A6.666666507720947 6.666666507720947 0.0 0 0 170.0 116.66666412353516 L30.0 116.66666412353516 A6.7833333015441895 6.7833333015441895 0.0 0 0 23.333335876464844 123.33332824707031 A6.686666488647461 6.686666488647461 0.0 0 0 30.0 130.0 L170.0 130.0 Z"></path>
<path fill="#3778c6" fill-opacity="1.0"  filling="0" d="M73.33333587646484 123.33332824707031 A10.0 10.0 0.0 1 1 53.333335876464844 123.33332824707031 A10.0 10.0 0.0 1 1 73.33333587646484 123.33332824707031 Z"></path>
<path fill="#aea8fb" fill-opacity="1.0"  filling="0" d="M20.0 20.0 L16.666671752929688 20.0 A3.3333332538604736 3.3333332538604736 0.0 0 1 16.666671752929688 13.333335876464844 L20.0 13.333335876464844 A3.3333332538604736 3.3333332538604736 0.0 0 1 20.0 20.0 Z"></path>
<path fill="#fde05e" fill-opacity="1.0"  filling="0" d="M36.66666793823242 20.0 L33.333335876464844 20.0 A3.3333332538604736 3.3333332538604736 0.0 0 1 33.333335876464844 13.333335876464844 L36.66666793823242 13.333335876464844 A3.3333332538604736 3.3333332538604736 0.0 0 1 36.66666793823242 20.0 Z"></path>
<path fill="#69e6c3" fill-opacity="1.0"  filling="0" d="M53.333335876464844 20.0 L50.0 20.0 A3.3333332538604736 3.3333332538604736 0.0 0 1 50.0 13.333335876464844 L53.333335876464844 13.333335876464844 A3.3333332538604736 3.3333332538604736 0.0 0 1 53.333335876464844 20.0 Z"></path>
<path fill="#2d629b" fill-opacity="1.0"  filling="0" d="M183.3333282470703 20.0 L163.3333282470703 20.0 A3.3333332538604736 3.3333332538604736 0.0 0 1 163.3333282470703 13.333335876464844 L183.3333282470703 13.333335876464844 A3.3333332538604736 3.3333332538604736 0.0 0 1 183.3333282470703 20.0 Z"></path>
<path fill="#e3c84c" fill-opacity="1.0"  filling="0" d="M46.66666793823242 173.3333282470703 A3.3333332538604736 3.3333332538604736 0.0 0 1 43.333335876464844 170.0 L43.333335876464844 166.66665649414062 A3.3333332538604736 3.3333332538604736 0.0 0 1 50.0 166.66665649414062 L50.0 170.0 A3.3333332538604736 3.3333332538604736 0.0 0 1 46.66666793823242 173.3333282470703 Z"></path>
<path fill="#e3c84c" fill-opacity="1.0"  filling="0" d="M60.0 173.3333282470703 A3.3333332538604736 3.3333332538604736 0.0 0 1 56.66666793823242 170.0 L56.66666793823242 163.3333282470703 A3.3333332538604736 3.3333332538604736 0.0 0 1 63.333335876464844 163.3333282470703 L63.333335876464844 170.0 A3.3333332538604736 3.3333332538604736 0.0 0 1 60.0 173.3333282470703 Z"></path>
<path fill="#e3c84c" fill-opacity="1.0"  filling="0" d="M73.33333587646484 173.3333282470703 A3.3333332538604736 3.3333332538604736 0.0 0 1 70.0 170.0 L70.0 160.0 A3.3333332538604736 3.3333332538604736 0.0 0 1 76.66667175292969 160.0 L76.66667175292969 170.0 A3.3333332538604736 3.3333332538604736 0.0 0 1 73.33333587646484 173.3333282470703 Z"></path>
<path fill="#e3c84c" fill-opacity="1.0"  filling="0" d="M20.0 173.3333282470703 A3.3333332538604736 3.3333332538604736 0.0 0 1 16.666671752929688 170.0 L16.666671752929688 163.3333282470703 A3.3333332538604736 3.3333332538604736 0.0 0 1 23.333335876464844 163.3333282470703 L23.333335876464844 170.0 A3.3333332538604736 3.3333332538604736 0.0 0 1 20.0 173.3333282470703 Z"></path>
<path fill="#e3c84c" fill-opacity="1.0"  filling="0" d="M33.333335876464844 173.3333282470703 A3.3333332538604736 3.3333332538604736 0.0 0 1 30.0 170.0 L30.0 160.0 A3.3333332538604736 3.3333332538604736 0.0 0 1 36.66666793823242 160.0 L36.66666793823242 170.0 A3.3333332538604736 3.3333332538604736 0.0 0 1 33.333335876464844 173.3333282470703 Z"></path>
<path fill="#e3c84c" fill-opacity="1.0"  filling="0" d="M86.66666412353516 173.3333282470703 A3.3333332538604736 3.3333332538604736 0.0 0 1 83.33333587646484 170.0 L83.33333587646484 153.3333282470703 A3.3333332538604736 3.3333332538604736 0.0 0 1 90.0 153.3333282470703 L90.0 170.0 A3.3333332538604736 3.3333332538604736 0.0 0 1 86.66666412353516 173.3333282470703 Z"></path>
<path fill="#e3c84c" fill-opacity="1.0"  filling="0" d="M100.0 173.3333282470703 A3.3333332538604736 3.3333332538604736 0.0 0 1 96.66666412353516 170.0 L96.66666412353516 163.3333282470703 A3.3333332538604736 3.3333332538604736 0.0 0 1 103.33333587646484 163.3333282470703 L103.33333587646484 170.0 A3.3333332538604736 3.3333332538604736 0.0 0 1 100.0 173.3333282470703 Z"></path>
<path fill="#e3c84c" fill-opacity="1.0"  filling="0" d="M113.33333587646484 173.3333282470703 A3.3333332538604736 3.3333332538604736 0.0 0 1 110.0 170.0 L110.0 156.66665649414062 A3.3333332538604736 3.3333332538604736 0.0 0 1 116.66666412353516 156.66665649414062 L116.66666412353516 170.0 A3.3333332538604736 3.3333332538604736 0.0 0 1 113.33333587646484 173.3333282470703 Z"></path>
<path fill="#e3c84c" fill-opacity="1.0"  filling="0" d="M126.66666412353516 173.3333282470703 A3.3333332538604736 3.3333332538604736 0.0 0 1 123.33332824707031 170.0 L123.33332824707031 146.66665649414062 A3.3333332538604736 3.3333332538604736 0.0 0 1 130.0 146.66665649414062 L130.0 170.0 A3.3333332538604736 3.3333332538604736 0.0 0 1 126.66666412353516 173.3333282470703 Z"></path>
<path fill="#e3c84c" fill-opacity="1.0"  filling="0" d="M140.0 173.3333282470703 A3.3333332538604736 3.3333332538604736 0.0 0 1 136.66665649414062 170.0 L136.66665649414062 160.0 A3.3333332538604736 3.3333332538604736 0.0 0 1 143.3333282470703 160.0 L143.3333282470703 170.0 A3.3333332538604736 3.3333332538604736 0.0 0 1 140.0 173.3333282470703 Z"></path>
<path fill="#e3c84c" fill-opacity="1.0"  filling="0" d="M153.3333282470703 173.3333282470703 A3.3333332538604736 3.3333332538604736 0.0 0 1 150.0 170.0 L150.0 153.3333282470703 A3.3333332538604736 3.3333332538604736 0.0 0 1 156.66665649414062 153.3333282470703 L156.66665649414062 170.0 A3.3333332538604736 3.3333332538604736 0.0 0 1 153.3333282470703 173.3333282470703 Z"></path>
<path fill="#e3c84c" fill-opacity="1.0"  filling="0" d="M166.66665649414062 173.3333282470703 A3.3333332538604736 3.3333332538604736 0.0 0 1 163.3333282470703 170.0 L163.3333282470703 146.66665649414062 A3.3333332538604736 3.3333332538604736 0.0 0 1 170.0 146.66665649414062 L170.0 170.0 A3.3333332538604736 3.3333332538604736 0.0 0 1 166.66665649414062 173.3333282470703 Z"></path>
<path fill="#e3c84c" fill-opacity="1.0"  filling="0" d="M180.0 173.3333282470703 A3.3333332538604736 3.3333332538604736 0.0 0 1 176.66665649414062 170.0 L176.66665649414062 143.3333282470703 A3.3333332538604736 3.3333332538604736 0.0 0 1 183.3333282470703 143.3333282470703 L183.3333282470703 170.0 A3.3333332538604736 3.3333332538604736 0.0 0 1 180.0 173.3333282470703 Z"></path>
<path fill="#bfdbf0" fill-opacity="1.0"  filling="0" d="M180.0 186.66665649414062 L20.0 186.66665649414062 A3.3333332538604736 3.3333332538604736 0.0 0 1 20.0 180.0 L180.0 180.0 A3.3333332538604736 3.3333332538604736 0.0 0 1 180.0 186.66665649414062 Z"></path></svg>