<svg xmlns="http://www.w3.org/2000/svg" viewBox="0.0 0.0 200.0 200.0" height="200.0px" width="200.0px"><path fill="#f7f3f1" fill-opacity="1.0"  filling="0" d="M182.5261688232422 126.84062957763672 C167.5554656982422 121.70468139648438 156.5128936767578 108.27422332763672 152.14959716796875 93.03398895263672 C148.46484375 80.16288757324219 148.525390625 66.60078430175781 149.66952514648438 53.196876525878906 L125.31796264648438 53.196876525878906 C124.65507507324219 67.94453430175781 124.7359390258789 82.73750305175781 128.01797485351562 97.07695007324219 C131.62655639648438 112.84414672851562 139.66758728027344 128.22381591796875 152.30548095703125 138.02890014648438 C155.7414093017578 140.6945343017578 160.689453125 140.06289672851562 163.3820343017578 136.64764404296875 C163.76718139648438 136.15936279296875 164.15469360351562 135.66876220703125 164.546875 135.1750030517578 C168.064453125 136.640625 172.6140594482422 137.2765655517578 176.033203125 135.59375 C179.28125 133.99493408203125 181.8195343017578 131.0203094482422 182.90899658203125 127.57030487060547 C183.00469970703125 127.2660140991211 182.82850646972656 126.94413757324219 182.5261688232422 126.84062957763672 Z"></path>
<path fill="#ebe1dc" fill-opacity="1.0"  filling="0" d="M149.66952514648438 53.196876525878906 L125.31796264648438 53.196876525878906 C124.65507507324219 67.94453430175781 124.7359390258789 82.73750305175781 128.01797485351562 97.07695007324219 C128.8113250732422 100.54297637939453 129.8191375732422 103.990234375 131.04257202148438 107.36405944824219 C132.03045654296875 101.0660171508789 134.82266235351562 95.05586242675781 139.02694702148438 90.2613296508789 C142.03866577148438 86.82695007324219 145.76522827148438 84.03202819824219 149.88319396972656 82.05741882324219 C148.5929718017578 72.56562805175781 148.8464813232422 62.84062194824219 149.66952514648438 53.196876525878906 Z"></path>
<path fill="#f7f3f1" fill-opacity="1.0"  filling="0" d="M17.473831176757812 126.84062957763672 C32.44453430175781 121.70468139648438 43.48710632324219 108.27422332763672 47.85039520263672 93.03398895263672 C51.535152435302734 80.16288757324219 51.474605560302734 66.60078430175781 50.330467224121094 53.196876525878906 L74.68203735351562 53.196876525878906 C75.34492492675781 67.94453430175781 75.2640609741211 82.73750305175781 71.9820327758789 97.07695007324219 C68.373046875 112.84414672851562 60.33242416381836 128.22381591796875 47.69452667236328 138.02890014648438 C44.25859451293945 140.6945343017578 39.310550689697266 140.06289672851562 36.61796951293945 136.64764404296875 C36.232810974121094 136.15936279296875 35.845314025878906 135.66876220703125 35.453125 135.1750030517578 C31.935546875 136.640625 27.385940551757812 137.2765655517578 23.966796875 135.59375 C20.71875 133.99493408203125 18.180465698242188 131.0203094482422 17.09101104736328 127.57030487060547 C16.995704650878906 127.2660140991211 17.171485900878906 126.94413757324219 17.473831176757812 126.84062957763672 Z"></path>
<path fill="#ebe1dc" fill-opacity="1.0"  filling="0" d="M50.33086013793945 53.196876525878906 L74.68241882324219 53.196876525878906 C75.3453140258789 67.94453430175781 75.26445007324219 82.73750305175781 71.982421875 97.07695007324219 C71.1890640258789 100.54297637939453 70.1812515258789 103.990234375 68.95780944824219 107.36405944824219 C67.96992492675781 101.0660171508789 65.177734375 95.05586242675781 60.97343444824219 90.2613296508789 C57.96171951293945 86.82695007324219 54.23515319824219 84.03202819824219 50.1171875 82.05741882324219 C51.40742111206055 72.56562805175781 51.15390396118164 62.84062194824219 50.33086013793945 53.196876525878906 Z"></path>
<path fill="#c77e67" fill-opacity="1.0"  filling="0" d="M111.07929992675781 2.9296875 L88.92070007324219 2.9296875 C87.427734375 2.9296875 86.21757507324219 4.139839172363281 86.21757507324219 5.6328125 L86.21757507324219 194.3671875 C86.21757507324219 195.86016845703125 87.427734375 197.0703125 88.92070007324219 197.0703125 L111.07929992675781 197.0703125 C112.572265625 197.0703125 113.78241729736328 195.86016845703125 113.78241729736328 194.3671875 L113.78241729736328 5.6328125 C113.78241729736328 4.139839172363281 112.572265625 2.9296875 111.07929992675781 2.9296875 Z"></path>
<path fill="#ac583e" fill-opacity="1.0"  filling="0" d="M86.21757507324219 69.9437484741211 L86.21757507324219 98.2457046508789 C90.580078125 99.564453125 95.20703125 100.27538299560547 100.0 100.27538299560547 C104.7933578491211 100.27538299560547 109.419921875 99.564453125 113.78241729736328 98.2457046508789 L113.78241729736328 69.9437484741211 C110.0062484741211 72.96835327148438 105.21484375 74.77812957763672 100.0 74.77812957763672 C94.78515625 74.77812957763672 89.9937515258789 72.96835327148438 86.21757507324219 69.9437484741211 Z"></path>
<path fill="#ac583e" fill-opacity="1.0"  filling="0" d="M86.21757507324219 37.83280944824219 L113.7828140258789 37.83280944824219 L113.7828140258789 59.27851867675781 L86.21757507324219 59.27851867675781 L86.21757507324219 37.83280944824219 Z"></path>
<path fill="#c77e67" fill-opacity="1.0"  filling="0" d="M29.522659301757812 49.14570617675781 L29.522659301757812 71.3042984008789 C29.522659301757812 72.7972640991211 30.732810974121094 74.0074234008789 32.22578430175781 74.0074234008789 L167.77383422851562 74.0074234008789 C169.2667999267578 74.0074234008789 170.47695922851562 72.7972640991211 170.47695922851562 71.3042984008789 L170.47695922851562 49.14570617675781 C170.47695922851562 47.652732849121094 169.2667999267578 46.44258117675781 167.77383422851562 46.44258117675781 L146.521484375 46.44258117675781 C138.58047485351562 50.021480560302734 130.734375 50.113277435302734 122.99101257324219 46.44258117675781 L77.12187957763672 46.44258117675781 C69.05000305175781 51.41875076293945 61.142189025878906 51.0625 53.365238189697266 46.44258117675781 L32.226165771484375 46.44258117675781 C30.733200073242188 46.44258117675781 29.522659301757812 47.652732849121094 29.522659301757812 49.14570617675781 Z"></path>
<path fill="#f7f3f1" fill-opacity="1.0"  filling="0" d="M121.83085632324219 46.44258117675781 C120.26171875 57.09335708618164 111.08671569824219 65.26875305175781 100.0 65.26875305175781 C88.91327667236328 65.26875305175781 79.7386703491211 57.09297180175781 78.16914367675781 46.44258117675781 L52.544532775878906 46.44258117675781 C54.21249771118164 71.19999694824219 74.81952667236328 90.76640319824219 100.0 90.76640319824219 C125.18047332763672 90.76640319824219 145.78750610351562 71.19999694824219 147.45547485351562 46.44258117675781 L121.83085632324219 46.44258117675781 Z"></path>
<path fill="" fill-opacity="1.0"  filling="0" d="M183.48748779296875 124.07186889648438 C170.1984405517578 119.4625015258789 159.26913452148438 107.26094055175781 154.96524047851562 92.22969055175781 C153.6062469482422 87.47772979736328 152.72225952148438 82.44570922851562 152.26953125 76.9375 L167.7734375 76.9375 C170.87930297851562 76.9375 173.40625 74.4105453491211 173.40625 71.3046875 L173.40625 49.14453125 C173.40625 46.038673400878906 170.87930297851562 43.51171875 167.7734375 43.51171875 C167.72540283203125 43.51171875 117.8910140991211 43.51289367675781 116.7109375 43.51289367675781 L116.7109375 5.6328125 C116.7109375 2.526947021484375 114.18399047851562 0.0 111.07811737060547 0.0 L88.921875 0.0 C85.81600952148438 0.0 83.2890625 2.526947021484375 83.2890625 5.6328125 L83.2890625 43.51289367675781 C83.236328125 43.51289367675781 36.37890625 43.51171875 32.2265625 43.51171875 C29.120704650878906 43.51171875 26.59375 46.038673400878906 26.59375 49.14453125 L26.59375 71.3046875 C26.59375 74.4105453491211 29.120704650878906 76.9375 32.2265625 76.9375 L47.73046875 76.9375 C47.27773666381836 82.44570922851562 46.39375305175781 87.47734069824219 45.035545349121094 92.2269515991211 C44.343746185302734 94.6382827758789 43.46601867675781 97.02656555175781 42.427730560302734 99.32500457763672 C41.76171875 100.79960632324219 42.41718673706055 102.53477478027344 43.89179992675781 103.2007827758789 C44.283199310302734 103.37773895263672 44.692970275878906 103.4613265991211 45.096092224121094 103.4613265991211 C46.21211242675781 103.4613265991211 47.27851104736328 102.81991577148438 47.767578125 101.73672485351562 C48.921871185302734 99.1812515258789 49.89765930175781 96.525390625 50.668357849121094 93.8402328491211 C52.174217224121094 88.57499694824219 53.14179611206055 83.01992797851562 53.61288833618164 76.9371109008789 L62.43203353881836 76.9371109008789 C63.390625 78.00273132324219 64.39530944824219 79.03398132324219 65.44999694824219 80.02421569824219 C67.2421875 81.7066421508789 69.13984680175781 83.24336242675781 71.12577819824219 84.630859375 C70.64570617675781 88.7777328491211 69.9878921508789 92.6519546508789 69.1246109008789 96.42460632324219 C65.31132507324219 113.09765625 57.06328201293945 127.05038452148438 45.89883041381836 135.71250915527344 C43.74883270263672 137.380859375 40.617191314697266 136.986328125 38.922264099121094 134.83984375 C38.54804611206055 134.36288452148438 37.747657775878906 133.3542938232422 37.747657775878906 133.3542938232422 C36.93320846557617 132.32772827148438 35.535552978515625 131.966796875 34.325775146484375 132.47109985351562 C31.689056396484375 133.56951904296875 27.923828125 134.27618408203125 25.260940551757812 132.96444702148438 C23.394142150878906 132.04647827148438 21.810935974121094 130.53045654296875 20.7734375 128.7214813232422 C28.153518676757812 125.6917953491211 34.81367492675781 120.6761703491211 40.152732849121094 114.10469055175781 C41.17304611206055 112.84883117675781 40.982032775878906 111.00391387939453 39.726173400878906 109.98359680175781 C38.470703125 108.96366882324219 36.62539291381836 109.15390014648438 35.605079650878906 110.41015625 C30.395309448242188 116.82266235351562 23.793357849121094 121.54647827148438 16.512107849121094 124.07186889648438 C14.69921875 124.7007827758789 13.724609375 126.62069702148438 14.29296875 128.44219970703125 C15.617576599121094 132.68984985351562 18.673049926757812 136.25469970703125 22.674217224121094 138.2214813232422 C25.896095275878906 139.80859375 30.180862426757812 139.939453125 34.461334228515625 138.64100646972656 C36.60194778442383 141.23983764648438 39.730079650878906 142.5988311767578 42.880855560302734 142.5988311767578 C45.20038986206055 142.5988311767578 47.53203582763672 141.8621063232422 49.49140548706055 140.341796875 C61.72148513793945 130.8523406982422 70.72265625 115.71953582763672 74.8363265991211 97.73163604736328 C75.560546875 94.568359375 76.1441421508789 91.33906555175781 76.6078109741211 87.9605484008789 C78.763671875 89.08905792236328 80.9957046508789 90.05859375 83.2890625 90.8617172241211 L83.2890625 194.3671875 C83.2890625 197.47305297851562 85.81600952148438 200.0 88.921875 200.0 L111.07811737060547 200.0 C114.18399047851562 200.0 116.7109375 197.47305297851562 116.7109375 194.3671875 L116.7109375 157.5859375 C116.7109375 155.9679718017578 115.39921569824219 154.65625 113.78125 154.65625 C112.16328430175781 154.65625 110.8515625 155.9679718017578 110.8515625 157.5859375 L110.8515625 194.140625 L89.1484375 194.140625 L89.1484375 92.52421569824219 C92.6800765991211 93.2972640991211 96.314453125 93.69609069824219 100.0 93.69609069824219 C103.685546875 93.69609069824219 107.31993103027344 93.2972640991211 110.8515625 92.52421569824219 L110.8515625 143.9140625 C110.8515625 145.53204345703125 112.16328430175781 146.84375 113.78125 146.84375 C115.39921569824219 146.84375 116.7109375 145.53204345703125 116.7109375 143.9140625 L116.7109375 90.86210632324219 C119.0042953491211 90.0589828491211 121.236328125 89.0894546508789 123.3921890258789 87.9609375 C123.85586547851562 91.33944702148438 124.439453125 94.568359375 125.1636734008789 97.73124694824219 C129.27734375 115.71992492675781 138.2785186767578 130.8527374267578 150.50820922851562 140.341796875 C152.46719360351562 141.8621063232422 154.79803466796875 142.5988311767578 157.1171875 142.5988311767578 C160.26678466796875 142.5988311767578 163.39413452148438 141.24061584472656 165.5382843017578 138.6417999267578 C169.818359375 139.94024658203125 174.10311889648438 139.80899047851562 177.3234405517578 138.22305297851562 C181.32656860351562 136.25506591796875 184.3820343017578 132.69024658203125 185.70623779296875 128.44296264648438 C186.275390625 126.62109375 185.30078125 124.70116424560547 183.48748779296875 124.07186889648438 Z M167.546875 71.078125 L142.11172485351562 71.078125 C146.4152374267578 64.59297180175781 149.1648406982422 57.18437576293945 150.1171875 49.37109375 L167.546875 49.37109375 L167.546875 71.078125 Z M118.1167984008789 49.37226867675781 C115.51640319824219 56.95820617675781 108.25 62.33906173706055 100.0 62.33906173706055 C91.75 62.33906173706055 84.48359680175781 56.95820617675781 81.8832015991211 49.37226867675781 L118.1167984008789 49.37226867675781 Z M89.1484375 5.859375 L110.8515625 5.859375 L110.8515625 43.51289367675781 L89.1484375 43.51289367675781 L89.1484375 5.859375 Z M32.453125 71.078125 L32.453125 49.37109375 L49.8828125 49.37109375 C50.83515548706055 57.18437576293945 53.58476638793945 64.59297180175781 57.888282775878906 71.078125 L32.453125 71.078125 Z M55.789066314697266 49.37226867675781 L61.025779724121094 49.37226867675781 C68.00312805175781 69.87265014648438 83.1207046508789 82.9964828491211 99.99960327148438 82.9964828491211 C109.06523132324219 82.9964828491211 117.71992492675781 79.25468444824219 125.0289077758789 72.17578125 C126.19140625 71.0503921508789 126.220703125 69.1953125 125.09492492675781 68.033203125 C123.96952819824219 66.87109375 122.11485290527344 66.84101867675781 120.95234680175781 67.96719360351562 C114.75820922851562 73.96601867675781 107.51289367675781 77.1371078491211 99.99922180175781 77.1371078491211 C86.19140625 77.1371078491211 73.64335632324219 66.36640930175781 67.25077819824219 49.37226867675781 L75.7718734741211 49.37226867675781 C77.0179672241211 54.26679992675781 79.73828125 58.70390701293945 83.59101867675781 62.05898666381836 C88.1371078491211 66.0179672241211 93.9644546508789 68.19844055175781 99.99960327148438 68.19844055175781 C106.0347671508789 68.19844055175781 111.86211395263672 66.0179672241211 116.408203125 62.05898666381836 C120.26054382324219 58.70390701293945 122.9808578491211 54.26679992675781 124.22734069824219 49.37226867675781 L132.74374389648438 49.37226867675781 C131.61953735351562 52.349609375 130.2921905517578 55.17890548706055 128.7703094482422 57.8125 C127.9605484008789 59.213279724121094 128.4402313232422 61.00546646118164 129.8410186767578 61.81484603881836 C130.302734375 62.081642150878906 130.806640625 62.20859146118164 131.30430603027344 62.20859146118164 C132.31640625 62.20859146118164 133.30078125 61.68359375 133.84335327148438 60.744140625 C135.875 57.22812271118164 137.59336853027344 53.41015625 138.97030639648438 49.37226867675781 L144.21054077148438 49.37226867675781 C141.18634033203125 71.17929077148438 122.3433609008789 87.83671569824219 99.99960327148438 87.83671569824219 C77.65585327148438 87.83671569824219 58.81327819824219 71.17929077148438 55.789066314697266 49.37226867675781 Z M174.73672485351562 132.9656219482422 C172.0749969482422 134.27618408203125 168.31015014648438 133.56951904296875 165.673828125 132.47149658203125 C164.4640655517578 131.96719360351562 163.06640625 132.328125 162.251953125 133.3546905517578 C162.251953125 133.3546905517578 161.45156860351562 134.36328125 161.08319091796875 134.8332061767578 C159.38320922851562 136.98712158203125 156.25079345703125 137.3816375732422 154.10076904296875 135.712890625 C142.9367218017578 127.05117797851562 134.6886749267578 113.09844207763672 130.87538146972656 96.42460632324219 C130.01171875 92.6527328491211 129.3542938232422 88.77851104736328 128.8742218017578 84.63163757324219 C130.86016845703125 83.244140625 132.7578125 81.70703125 134.5500030517578 80.0250015258789 C135.6046905517578 79.03475952148438 136.609375 78.00350952148438 137.56797790527344 76.9378890991211 L146.38711547851562 76.9378890991211 C146.8582000732422 83.02070617675781 147.826171875 88.5757827758789 149.33203125 93.841796875 C151.64608764648438 101.92304992675781 155.73748779296875 109.46054077148438 161.1648406982422 115.6402359008789 C166.2734375 121.45703125 172.47811889648438 125.9429702758789 179.22695922851562 128.72109985351562 C178.189453125 130.53009033203125 176.60507202148438 132.04725646972656 174.73672485351562 132.9656219482422 Z"></path></svg>