<svg xmlns="http://www.w3.org/2000/svg" viewBox="0.0 0.0 200.0 200.0" height="200.0px" width="200.0px"><path fill="#e2dff4" fill-opacity="1.0"  filling="0" d="M194.140625 78.515625 L185.240234375 78.515625 C183.15469360351562 70.19062805175781 179.8800811767578 62.28671646118164 175.46444702148438 54.91913986206055 L181.75936889648438 48.62421798706055 C184.0476531982422 46.3359375 184.0476531982422 42.62617111206055 181.75936889648438 40.337890625 L159.662109375 18.240623474121094 C157.37384033203125 15.952339172363281 153.6640625 15.952339172363281 151.3757781982422 18.240623474121094 L145.08087158203125 24.535545349121094 C137.7140655517578 20.11992645263672 129.80899047851562 16.845306396484375 121.484375 14.759765625 L121.484375 5.859375 C121.484375 2.6234359741210938 118.86093139648438 0.0 115.625 0.0 L84.375 0.0 C81.13906860351562 0.0 78.515625 2.6234359741210938 78.515625 5.859375 L78.515625 14.759765625 C70.19100952148438 16.844924926757812 62.28593444824219 20.11992645263672 54.91913986206055 24.535545349121094 L48.62421798706055 18.240623474121094 C46.3359375 15.952339172363281 42.62617111206055 15.952339172363281 40.337890625 18.240623474121094 L18.241012573242188 40.337890625 C15.952735900878906 42.62617111206055 15.952735900878906 46.3359375 18.241012573242188 48.62421798706055 L24.535545349121094 54.91913986206055 C20.11992645263672 62.28633117675781 16.845306396484375 70.19023132324219 14.759765625 78.515625 L5.859375 78.515625 C2.6234359741210938 78.515625 0.0 81.13906860351562 0.0 84.375 L0.0 115.625 C0.0 118.86093139648438 2.6234359741210938 121.484375 5.859375 121.484375 L14.759765625 121.484375 C16.845306396484375 129.80975341796875 20.11992645263672 137.7136688232422 24.535545349121094 145.08087158203125 L18.240623474121094 151.3757781982422 C15.952339172363281 153.6640625 15.952339172363281 157.37384033203125 18.240623474121094 159.662109375 L40.337890625 181.7589874267578 C42.62617111206055 184.04727172851562 46.3359375 184.04727172851562 48.62421798706055 181.7589874267578 L54.91913986206055 175.46405029296875 C62.28633117675781 179.87930297851562 70.19140625 183.154296875 78.515625 185.2394561767578 L78.515625 194.140625 C78.515625 197.37655639648438 81.13906860351562 200.0 84.375 200.0 L115.625 200.0 C118.86093139648438 200.0 121.484375 197.37655639648438 121.484375 194.140625 L121.484375 185.23983764648438 C129.80859375 183.15469360351562 137.7136688232422 179.87969970703125 145.08087158203125 175.46444702148438 L151.3757781982422 181.7589874267578 C153.6640625 184.04727172851562 157.37384033203125 184.04727172851562 159.662109375 181.7589874267578 L181.75936889648438 159.662109375 C184.0476531982422 157.37384033203125 184.0476531982422 153.6640625 181.75936889648438 151.3757781982422 L175.46444702148438 145.08087158203125 C179.8800811767578 137.71327209472656 183.15469360351562 129.80938720703125 185.23983764648438 121.484375 L194.140625 121.484375 C197.37655639648438 121.484375 200.0 118.86093139648438 200.0 115.625 L200.0 84.375 C200.0 81.13906860351562 197.37655639648438 78.515625 194.140625 78.515625 Z"></path>
<path fill="#bebcdd" fill-opacity="1.0"  filling="0" d="M194.140625 78.515625 L185.240234375 78.515625 C183.15469360351562 70.19062805175781 179.8800811767578 62.28671646118164 175.46444702148438 54.91913986206055 L181.75936889648438 48.62421798706055 C184.0476531982422 46.3359375 184.0476531982422 42.62617111206055 181.75936889648438 40.337890625 L159.662109375 18.240623474121094 C157.37384033203125 15.952339172363281 153.6640625 15.952339172363281 151.3757781982422 18.240623474121094 L145.08087158203125 24.535545349121094 C137.7140655517578 20.11992645263672 129.80899047851562 16.845306396484375 121.484375 14.759765625 L121.484375 5.859375 C121.484375 2.6234359741210938 118.86093139648438 0.0 115.625 0.0 L100.0 0.0 L100.0 200.0 L115.625 200.0 C118.86093139648438 200.0 121.484375 197.37655639648438 121.484375 194.140625 L121.484375 185.23983764648438 C129.80859375 183.15469360351562 137.7136688232422 179.87969970703125 145.08087158203125 175.46444702148438 L151.3757781982422 181.7589874267578 C153.6640625 184.04727172851562 157.37384033203125 184.04727172851562 159.662109375 181.7589874267578 L181.75936889648438 159.662109375 C184.0476531982422 157.37384033203125 184.0476531982422 153.6640625 181.75936889648438 151.3757781982422 L175.46444702148438 145.08087158203125 C179.8800811767578 137.71327209472656 183.15469360351562 129.80938720703125 185.23983764648438 121.484375 L194.140625 121.484375 C197.37655639648438 121.484375 200.0 118.86093139648438 200.0 115.625 L200.0 84.375 C200.0 81.13906860351562 197.37655639648438 78.515625 194.140625 78.515625 Z"></path>
<path fill="#ffdd54" fill-opacity="1.0"  filling="0" d="M154.6875 100.0 A54.6875 54.6875 0.0 1 1 45.3125 100.0 A54.6875 54.6875 0.0 1 1 154.6875 100.0 Z"></path>
<path fill="#ffb454" fill-opacity="1.0"  filling="0" d="M154.6875 100.0 C154.6875 69.796875 130.203125 45.3125 100.0 45.3125 L100.0 154.6875 C130.203125 154.6875 154.6875 130.203125 154.6875 100.0 Z"></path>
<path fill="#fff17d" fill-opacity="1.0"  filling="0" d="M100.0 160.546875 C66.61405944824219 160.546875 39.453125 133.38555908203125 39.453125 100.0 C39.453125 66.61445617675781 66.61405944824219 39.453125 100.0 39.453125 C133.38592529296875 39.453125 160.546875 66.61445617675781 160.546875 100.0 C160.546875 133.38555908203125 133.38592529296875 160.546875 100.0 160.546875 Z M100.0 51.171875 C73.076171875 51.171875 51.171875 73.076171875 51.171875 100.0 C51.171875 126.923828125 73.076171875 148.828125 100.0 148.828125 C126.923828125 148.828125 148.828125 126.923828125 148.828125 100.0 C148.828125 73.076171875 126.923828125 51.171875 100.0 51.171875 Z"></path>
<path fill="#ffdd54" fill-opacity="1.0"  filling="0" d="M148.828125 100.0 C148.828125 126.923828125 126.923828125 148.828125 100.0 148.828125 L100.0 160.546875 C133.38592529296875 160.546875 160.546875 133.38555908203125 160.546875 100.0 C160.546875 66.61445617675781 133.38592529296875 39.453125 100.0 39.453125 L100.0 51.171875 C126.923828125 51.171875 148.828125 73.076171875 148.828125 100.0 Z"></path>
<path fill="#fff17d" fill-opacity="1.0"  filling="0" d="M107.78398132324219 96.00234985351562 C106.66679382324219 95.607421875 105.52344512939453 95.1929702758789 104.38359069824219 94.7621078491211 L104.38359069824219 76.296875 C107.25898742675781 76.9066390991211 108.6996078491211 78.38241577148438 108.76679229736328 78.45352172851562 C110.18555450439453 80.072265625 112.64688110351562 80.23828125 114.27031707763672 78.82421875 C115.89726257324219 77.40702819824219 116.06718444824219 74.9398422241211 114.6500015258789 73.3128890991211 C114.45000457763672 73.08358764648438 110.97187805175781 69.20703125 104.38397979736328 68.37149047851562 L104.38397979736328 64.84375 C104.38397979736328 62.68632888793945 102.634765625 60.9375 100.47772979736328 60.9375 C98.3207015991211 60.9375 96.57148742675781 62.68632888793945 96.57148742675781 64.84375 L96.57148742675781 68.84648132324219 C96.005859375 68.97772979736328 95.4320297241211 69.12382507324219 94.8402328491211 69.30194854736328 C89.28788757324219 70.974609375 85.138671875 75.72616577148438 84.01250457763672 81.70234680175781 C82.98515319824219 87.15234375 84.7320327758789 92.4085922241211 88.5707015991211 95.4195327758789 C90.5980453491211 97.009765625 93.11991882324219 98.46601867675781 96.57109069824219 100.0035171508789 L96.57109069824219 123.17031860351562 C93.60469055175781 122.94648742675781 91.5367202758789 122.21406555175781 88.16132354736328 120.005859375 C86.3558578491211 118.82461547851562 83.93476867675781 119.33125305175781 82.75390625 121.1363296508789 C81.57304382324219 122.94178771972656 82.0785140991211 125.36288452148438 83.8843765258789 126.54374694824219 C88.83125305175781 129.77967834472656 92.212890625 130.74960327148438 96.57148742675781 130.99842834472656 L96.57148742675781 135.15625 C96.57148742675781 137.3136749267578 98.3207015991211 139.0625 100.47772979736328 139.0625 C102.634765625 139.0625 104.38397979736328 137.3136749267578 104.38397979736328 135.15625 L104.38397979736328 130.68710327148438 C113.07343292236328 128.97030639648438 118.1484375 121.7992172241211 119.27460479736328 115.10077667236328 C120.72383117675781 106.478515625 116.21328735351562 98.9820327758789 107.78398132324219 96.00234985351562 Z M93.3921890258789 89.27265167236328 C91.8570327758789 88.068359375 91.20468139648438 85.7222671508789 91.6898422241211 83.14961242675781 C92.1226577758789 80.853515625 93.63164520263672 78.095703125 96.57109069824219 76.96484375 L96.57109069824219 91.30937194824219 C95.3753890991211 90.6578140258789 94.29374694824219 89.97969055175781 93.3921890258789 89.27265167236328 Z M111.56953430175781 113.80585479736328 C110.97695922851562 117.33125305175781 108.53515625 121.07734680175781 104.38359069824219 122.57929992675781 L104.38359069824219 103.08280944824219 C104.6488265991211 103.177734375 104.90741729736328 103.271484375 105.18006896972656 103.36797332763672 C112.3128890991211 105.88945007324219 111.87382507324219 111.9945297241211 111.56953430175781 113.80585479736328 Z"></path>
<path fill="#ffdd54" fill-opacity="1.0"  filling="0" d="M107.78398132324219 96.00234985351562 C106.66679382324219 95.607421875 105.52344512939453 95.1929702758789 104.38359069824219 94.7621078491211 L104.38359069824219 76.296875 C107.25898742675781 76.9066390991211 108.6996078491211 78.38241577148438 108.76679229736328 78.45352172851562 C110.18555450439453 80.072265625 112.64688110351562 80.23828125 114.27031707763672 78.82421875 C115.89726257324219 77.40702819824219 116.06718444824219 74.9398422241211 114.6500015258789 73.3128890991211 C114.45000457763672 73.08358764648438 110.97187805175781 69.20703125 104.38397979736328 68.37149047851562 L104.38397979736328 64.84375 C104.38397979736328 62.68632888793945 102.634765625 60.9375 100.47772979736328 60.9375 C100.31600952148438 60.9375 100.15703582763672 60.95039367675781 100.00039672851562 60.96953201293945 L100.00039672851562 139.0304718017578 C100.15703582763672 139.04962158203125 100.31562805175781 139.0625 100.47772979736328 139.0625 C102.634765625 139.0625 104.38397979736328 137.3136749267578 104.38397979736328 135.15625 L104.38397979736328 130.68710327148438 C113.07343292236328 128.97030639648438 118.1484375 121.7992172241211 119.27460479736328 115.10077667236328 C120.72383117675781 106.478515625 116.21328735351562 98.9820327758789 107.78398132324219 96.00234985351562 Z M111.56953430175781 113.80585479736328 C110.97695922851562 117.33125305175781 108.53515625 121.07734680175781 104.38359069824219 122.57929992675781 L104.38359069824219 103.08280944824219 C104.6488265991211 103.177734375 104.90741729736328 103.271484375 105.18006896972656 103.36797332763672 C112.3128890991211 105.88945007324219 111.87382507324219 111.9945297241211 111.56953430175781 113.80585479736328 Z"></path></svg>