<svg xmlns="http://www.w3.org/2000/svg" viewBox="0.0 0.0 200.0 200.0" height="200.0px" width="200.0px"><path fill="#233d91" fill-opacity="1.0"  filling="0" d="M142.85714721679688 11.741683959960938 L131.11546325683594 11.741683959960938 L131.11546325683594 0.0 L0.0 0.0 L0.0 176.51663208007812 L11.741683959960938 176.51663208007812 L11.741683959960938 188.25831604003906 L23.483367919921875 188.25831604003906 L23.483367919921875 200.0 L154.59881591796875 200.0 L154.59881591796875 23.483367919921875 L142.85714721679688 23.483367919921875 L142.85714721679688 11.741683959960938 Z M11.741683959960938 170.64578247070312 L5.870841979980469 170.64578247070312 L5.870841979980469 5.870841979980469 L125.24461364746094 5.870841979980469 L125.24461364746094 11.741683959960938 L11.741683959960938 11.741683959960938 L11.741683959960938 170.64578247070312 Z M23.483367919921875 182.38748168945312 L17.612525939941406 182.38748168945312 L17.612525939941406 17.612525939941406 L136.98629760742188 17.612525939941406 L136.98629760742188 23.483367919921875 L48.68649673461914 23.483367919921875 L23.483367919921875 48.68649673461914 L23.483367919921875 182.38748168945312 Z M46.966732025146484 33.505287170410156 L46.966732025146484 46.966732025146484 L33.505287170410156 46.966732025146484 L46.966732025146484 33.505287170410156 Z M148.7279815673828 29.354209899902344 L148.7279815673828 194.129150390625 L29.354209899902344 194.129150390625 L29.354209899902344 52.83757400512695 L52.83757400512695 52.83757400512695 L52.83757400512695 29.354209899902344 L148.7279815673828 29.354209899902344 Z"></path>
<path fill="#233d91" fill-opacity="1.0"  filling="0" d="M40.11741638183594 63.405086517333984 L137.96478271484375 63.405086517333984 L137.96478271484375 69.27593231201172 L40.11741638183594 69.27593231201172 L40.11741638183594 63.405086517333984 Z"></path>
<path fill="#233d91" fill-opacity="1.0"  filling="0" d="M69.8630142211914 80.626220703125 L120.74363708496094 80.626220703125 L120.74363708496094 86.49706268310547 L69.8630142211914 86.49706268310547 L69.8630142211914 80.626220703125 Z"></path>
<path fill="#233d91" fill-opacity="1.0"  filling="0" d="M69.8630142211914 92.36790466308594 L105.08806610107422 92.36790466308594 L105.08806610107422 98.2387466430664 L69.8630142211914 98.2387466430664 L69.8630142211914 92.36790466308594 Z"></path>
<path fill="#233d91" fill-opacity="1.0"  filling="0" d="M129.3542022705078 154.99021911621094 C123.41917419433594 154.99021911621094 118.59099578857422 159.81878662109375 118.59099578857422 165.75341796875 L118.59099578857422 185.32290649414062 L124.46183776855469 185.32290649414062 L124.46183776855469 178.86495971679688 L134.24658203125 178.86495971679688 L134.24658203125 185.32290649414062 L140.11741638183594 185.32290649414062 L140.11741638183594 165.75341796875 C140.11741638183594 159.81878662109375 135.28924560546875 154.99021911621094 129.3542022705078 154.99021911621094 Z M134.24658203125 172.99412536621094 L124.46183776855469 172.99412536621094 L124.46183776855469 165.75341796875 C124.46183776855469 163.05557250976562 126.65635681152344 160.86105346679688 129.3542022705078 160.86105346679688 C132.05206298828125 160.86105346679688 134.24658203125 163.05557250976562 134.24658203125 165.75341796875 L134.24658203125 172.99412536621094 Z"></path>
<path fill="#233d91" fill-opacity="1.0"  filling="0" d="M40.3131103515625 102.15264129638672 L61.83953094482422 102.15264129638672 L61.83953094482422 80.626220703125 L40.3131103515625 80.626220703125 L40.3131103515625 102.15264129638672 Z M46.18395233154297 86.49706268310547 L55.96868896484375 86.49706268310547 L55.96868896484375 96.28179931640625 L46.18395233154297 96.28179931640625 L46.18395233154297 86.49706268310547 Z"></path>
<path fill="#233d91" fill-opacity="1.0"  filling="0" d="M69.8630142211914 111.9373779296875 L120.74363708496094 111.9373779296875 L120.74363708496094 117.80821990966797 L69.8630142211914 117.80821990966797 L69.8630142211914 111.9373779296875 Z"></path>
<path fill="#233d91" fill-opacity="1.0"  filling="0" d="M69.8630142211914 123.67906188964844 L93.34638214111328 123.67906188964844 L93.34638214111328 129.54989624023438 L69.8630142211914 129.54989624023438 L69.8630142211914 123.67906188964844 Z"></path>
<path fill="#233d91" fill-opacity="1.0"  filling="0" d="M40.3131103515625 133.4637908935547 L61.83953094482422 133.4637908935547 L61.83953094482422 111.9373779296875 L40.3131103515625 111.9373779296875 L40.3131103515625 133.4637908935547 Z M46.18395233154297 117.80821990966797 L55.96868896484375 117.80821990966797 L55.96868896484375 127.59295654296875 L46.18395233154297 127.59295654296875 L46.18395233154297 117.80821990966797 Z"></path>
<path fill="#233d91" fill-opacity="1.0"  filling="0" d="M69.8630142211914 143.24853515625 L116.82974243164062 143.24853515625 L116.82974243164062 149.11936950683594 L69.8630142211914 149.11936950683594 L69.8630142211914 143.24853515625 Z"></path>
<path fill="#233d91" fill-opacity="1.0"  filling="0" d="M69.8630142211914 154.99021911621094 L101.1741714477539 154.99021911621094 L101.1741714477539 160.86105346679688 L69.8630142211914 160.86105346679688 L69.8630142211914 154.99021911621094 Z"></path>
<path fill="#233d91" fill-opacity="1.0"  filling="0" d="M40.3131103515625 164.7749481201172 L61.83953094482422 164.7749481201172 L61.83953094482422 143.24853515625 L40.3131103515625 143.24853515625 L40.3131103515625 164.7749481201172 Z M46.18395233154297 149.11936950683594 L55.96868896484375 149.11936950683594 L55.96868896484375 158.90411376953125 L46.18395233154297 158.90411376953125 L46.18395233154297 149.11936950683594 Z"></path>
<path fill="#233d91" fill-opacity="1.0"  filling="0" d="M181.40899658203125 147.1624298095703 C171.15811157226562 147.1624298095703 162.81800842285156 155.50253295898438 162.81800842285156 165.75341796875 L162.81800842285156 200.0 L200.0 200.0 L200.0 165.75341796875 C200.0 155.50253295898438 191.65988159179688 147.1624298095703 181.40899658203125 147.1624298095703 Z M181.40899658203125 153.03326416015625 C187.4125213623047 153.03326416015625 192.45440673828125 157.21527099609375 193.7835693359375 162.81800842285156 L169.03443908691406 162.81800842285156 C170.36358642578125 157.21527099609375 175.40548706054688 153.03326416015625 181.40899658203125 153.03326416015625 Z M194.129150390625 194.129150390625 L168.6888427734375 194.129150390625 L168.6888427734375 168.6888427734375 L194.129150390625 168.6888427734375 L194.129150390625 194.129150390625 Z"></path>
<path fill="#233d91" fill-opacity="1.0"  filling="0" d="M192.17221069335938 105.1729965209961 L192.17221069335938 10.763206481933594 C192.17221069335938 4.828575134277344 187.34402465820312 0.0 181.40899658203125 0.0 C175.47396850585938 0.0 170.64578247070312 4.828575134277344 170.64578247070312 10.763206481933594 L170.64578247070312 105.1729965209961 L181.40899658203125 137.46263122558594 L192.17221069335938 105.1729965209961 Z M176.51663208007812 10.763206481933594 C176.51663208007812 8.065361022949219 178.71115112304688 5.870841979980469 181.40899658203125 5.870841979980469 C184.10684204101562 5.870841979980469 186.30136108398438 8.065361022949219 186.30136108398438 10.763206481933594 L186.30136108398438 19.569473266601562 L176.51663208007812 19.569473266601562 L176.51663208007812 10.763206481933594 Z M176.51663208007812 25.44031524658203 L186.30136108398438 25.44031524658203 L186.30136108398438 101.7612533569336 L176.51663208007812 101.7612533569336 L176.51663208007812 25.44031524658203 Z M185.1639862060547 107.63209533691406 L181.40899658203125 118.89745330810547 L177.65402221679688 107.63209533691406 L185.1639862060547 107.63209533691406 Z"></path></svg>