<svg xmlns="http://www.w3.org/2000/svg" viewBox="0.0 0.0 200.0 200.0" height="200.0px" width="200.0px"><path fill="#55b8e6" fill-opacity="1.0"  filling="0" d="M162.12930297851562 116.072265625 L100.03828430175781 128.60546875 L39.21054458618164 116.05976867675781 L42.98554611206055 103.5933609008789 C45.941017150878906 94.4839859008789 53.50351333618164 93.470703125 61.98750305175781 90.8890609741211 L83.71875 84.26953125 L117.57344055175781 84.26953125 L139.3507843017578 90.8890609741211 C147.8347625732422 93.470703125 155.39532470703125 94.4839859008789 158.341796875 103.5933609008789 L162.12930297851562 116.072265625 Z"></path>
<path fill="#e8e8e8" fill-opacity="1.0"  filling="0" d="M11.302345275878906 182.8933563232422 L11.302345275878906 116.05976867675781 C11.302345275878906 104.99258422851562 23.220703125 104.13983917236328 23.458984375 110.33944702148438 C23.687110900878906 116.099609375 32.263671875 116.07695770263672 38.09023666381836 116.06132507324219 C38.38359069824219 116.060546875 38.669921875 116.05976867675781 38.94804763793945 116.05976867675781 L161.11758422851562 116.05976867675781 C161.3953094482422 116.05976867675781 161.681640625 116.060546875 161.97500610351562 116.06132507324219 C167.80078125 116.07695770263672 176.37850952148438 116.099609375 176.60507202148438 110.33944702148438 C176.84335327148438 104.13983917236328 188.76171875 104.99258422851562 188.76171875 116.05976867675781 L188.76171875 182.8933563232422 C188.76171875 195.5519561767578 184.7824249267578 199.97695922851562 165.35781860351562 199.97695922851562 L100.03828430175781 200.0 L34.716796875 199.97695922851562 C15.283203125 199.97695922851562 11.302345275878906 195.5519561767578 11.302345275878906 182.8933563232422 Z"></path>
<path fill="#ccc" fill-opacity="1.0"  filling="0" d="M11.302345275878906 182.8933563232422 L11.302345275878906 116.05976867675781 C11.302345275878906 104.99258422851562 23.220703125 104.13983917236328 23.458984375 110.33944702148438 C23.57343292236328 113.17147827148438 25.7109375 114.60429382324219 28.530860900878906 115.33203125 C28.441009521484375 115.95780944824219 28.394927978515625 116.62890625 28.394927978515625 117.34453582763672 L28.394927978515625 184.16757202148438 C28.394927978515625 193.0617218017578 30.362106323242188 197.8957061767578 38.266014099121094 199.98944091796875 L34.716796875 199.97695922851562 C15.283203125 199.97695922851562 11.302345275878906 195.5519561767578 11.302345275878906 182.8933563232422 Z"></path>
<path fill="#ffd9b0" fill-opacity="1.0"  filling="0" d="M173.46640014648438 148.1796875 C173.46640014648438 143.9148406982422 176.9578094482422 140.42343139648438 181.22421264648438 140.42343139648438 L189.88946533203125 140.42343139648438 C194.15274047851562 140.42343139648438 197.9050750732422 143.9269561767578 197.64413452148438 148.1796875 L196.82461547851562 161.6242218017578 C196.5636749267578 165.88906860351562 193.33358764648438 169.38165283203125 189.0703125 169.38165283203125 L183.837890625 169.38165283203125 C172.74258422851562 169.38165283203125 173.08163452148438 159.99609375 173.37579345703125 151.85975646972656 C173.42149353027344 150.5890655517578 173.46640014648438 149.3488311767578 173.46640014648438 148.1796875 Z"></path>
<path fill="#ffd9b0" fill-opacity="1.0"  filling="0" d="M3.137115478515625 148.1796875 C2.8761749267578125 143.9269561767578 6.628509521484375 140.42343139648438 10.893356323242188 140.421875 L19.55859375 140.421875 C23.823440551757812 140.421875 27.314842224121094 143.9148406982422 27.314842224121094 148.1796875 C27.314842224121094 149.3484344482422 27.359764099121094 150.5886688232422 27.405471801757812 151.85897827148438 C27.699607849121094 159.99453735351562 28.038665771484375 169.3800811767578 16.943359375 169.3800811767578 L11.712493896484375 169.3800811767578 C11.575386047363281 169.3800811767578 11.439453125 169.3800811767578 11.302345275878906 169.36953735351562 C7.2433624267578125 169.15274047851562 4.20703125 165.7531280517578 3.9566421508789062 161.6242218017578 L3.137115478515625 148.1796875 Z"></path>
<path fill="#ebab92" fill-opacity="1.0"  filling="0" d="M3.137115478515625 148.1796875 C2.8761749267578125 143.9269561767578 6.628509521484375 140.42343139648438 10.893356323242188 140.421875 L19.55859375 140.421875 C15.293754577636719 140.421875 11.541793823242188 143.92538452148438 11.804290771484375 148.1796875 L12.621871948242188 161.6242218017578 C12.849609375 165.421875 15.431251525878906 168.60662841796875 19.014060974121094 169.2550811767578 C18.365623474121094 169.33438110351562 17.68359375 169.3800811767578 16.943359375 169.3800811767578 L11.712493896484375 169.3800811767578 C11.575386047363281 169.3800811767578 11.439453125 169.3800811767578 11.302345275878906 169.36953735351562 C7.2433624267578125 169.15274047851562 4.20703125 165.7531280517578 3.9566421508789062 161.6242218017578 L3.137115478515625 148.1796875 Z"></path>
<path fill="#ebab92" fill-opacity="1.0"  filling="0" d="M197.64413452148438 148.1796875 L196.82461547851562 161.6242218017578 C196.57421875 165.7531280517578 193.5378875732422 169.15274047851562 189.47891235351562 169.36953735351562 C189.341796875 169.3800811767578 189.20587158203125 169.3800811767578 189.0703125 169.3800811767578 L183.837890625 169.3800811767578 C183.09921264648438 169.3800811767578 182.4050750732422 169.33438110351562 181.7687530517578 169.2550811767578 C185.33944702148438 168.60662841796875 187.931640625 165.421875 188.16055297851562 161.6242218017578 L188.978515625 148.1796875 C189.2394561767578 143.92538452148438 185.48748779296875 140.421875 181.22265625 140.421875 L189.8878936767578 140.421875 C194.15274047851562 140.42343139648438 197.9050750732422 143.9269561767578 197.64413452148438 148.1796875 Z"></path>
<path fill="#507fcf" fill-opacity="1.0"  filling="0" d="M70.67578125 88.240234375 L83.73125457763672 84.26953125 C83.71875 84.28046417236328 84.28788757324219 84.66796875 84.34452819824219 84.7015609741211 C88.17733764648438 87.3062515258789 93.0328140258789 89.58125305175781 97.68359375 90.28632354736328 L97.69609832763672 90.28632354736328 L92.361328125 103.390625 C91.63359069824219 105.18633270263672 86.43632507324219 109.19023895263672 82.52578735351562 104.06053924560547 L70.67578125 88.240234375 Z"></path>
<path fill="#de9376" fill-opacity="1.0"  filling="0" d="M66.51445007324219 45.074607849121094 L70.5855484008789 51.66015625 L67.2074203491211 60.65664291381836 C62.90898132324219 60.714839935302734 58.05195617675781 56.277347564697266 58.05195617675781 51.92265319824219 L58.05195617675781 48.521484375 C58.05195617675781 46.63398361206055 59.599220275878906 45.074607849121094 61.48672103881836 45.074607849121094 L66.51445007324219 45.074607849121094 Z"></path>
<path fill="#ffcc73" fill-opacity="1.0"  filling="0" d="M87.75625610351562 4.742584228515625 L113.01406860351562 4.788276672363281 C124.8062515258789 9.440628051757812 133.43670654296875 20.416404724121094 134.79141235351562 33.55272674560547 L100.447265625 39.3203125 L65.876953125 33.55272674560547 C67.23007202148438 20.3828125 75.90625 9.3828125 87.75625610351562 4.742584228515625 Z"></path>
<path fill="#f59556" fill-opacity="1.0"  filling="0" d="M87.66484069824219 5.7433624267578125 C87.66484069824219 5.4031219482421875 87.69999694824219 5.0734405517578125 87.75625610351562 4.742584228515625 C88.2339859008789 2.05859375 90.5992202758789 0.0 93.41874694824219 0.0 L107.3394546508789 0.0 C110.18203735351562 0.0 112.5472640991211 2.0707015991210938 113.01406860351562 4.7898406982421875 C113.0707015991211 5.0964813232421875 113.09375 5.426177978515625 113.09375 5.7433624267578125 L113.09375 15.696868896484375 C113.09375 18.869140625 110.50116729736328 21.450782775878906 107.3394546508789 21.450782775878906 L93.41874694824219 21.450782775878906 C90.25859069824219 21.450782775878906 87.66484069824219 18.869140625 87.66484069824219 15.696868896484375 L87.66484069824219 5.7433624267578125 Z"></path>
<path fill="#f59556" fill-opacity="1.0"  filling="0" d="M87.75625610351562 4.742584228515625 C87.69999694824219 5.0734405517578125 87.66484069824219 5.4031219482421875 87.66484069824219 5.7433624267578125 L87.66484069824219 9.997650146484375 C80.615234375 15.661712646484375 75.81640625 24.044921875 74.84883117675781 33.55272674560547 L65.876953125 33.55272674560547 C67.23007202148438 20.3828125 75.90625 9.3828125 87.75625610351562 4.742584228515625 Z"></path>
<path fill="#d65036" fill-opacity="1.0"  filling="0" d="M87.66484069824219 15.696868896484375 L87.66484069824219 5.7433624267578125 C87.66484069824219 5.4031219482421875 87.69999694824219 5.0734405517578125 87.75625610351562 4.742584228515625 C88.2339859008789 2.05859375 90.5992202758789 0.0 93.41874694824219 0.0 L101.5855484008789 0.0 C98.7640609741211 0.0 96.39883422851562 2.05859375 95.9214859008789 4.742584228515625 C95.8648452758789 5.0734405517578125 95.8296890258789 5.4031219482421875 95.8296890258789 5.7433624267578125 L95.8296890258789 15.696868896484375 C95.8296890258789 18.869140625 98.423828125 21.450782775878906 101.5855484008789 21.450782775878906 L93.41874694824219 21.450782775878906 C90.25859069824219 21.450782775878906 87.66484069824219 18.869140625 87.66484069824219 15.696868896484375 Z"></path>
<path fill="#de9376" fill-opacity="1.0"  filling="0" d="M134.79141235351562 45.074607849121094 L139.80548095703125 45.074607849121094 C141.69296264648438 45.074607849121094 143.25115966796875 46.63398361206055 143.25115966796875 48.521484375 L143.25115966796875 51.92265319824219 C143.25115966796875 56.277347564697266 138.3957061767578 60.714839935302734 134.0851593017578 60.65664291381836 L130.7082061767578 51.66015625 L134.79141235351562 45.074607849121094 Z"></path>
<path fill="#ffd9b0" fill-opacity="1.0"  filling="0" d="M66.6273422241211 55.86835861206055 L66.51445007324219 45.076168060302734 L100.447265625 39.3203125 L134.79141235351562 45.076168060302734 L134.6648406982422 55.86991882324219 C134.6648406982422 65.57148742675781 127.50078582763672 77.22929382324219 117.57344055175781 84.26953125 C114.9476547241211 86.13593292236328 112.1156234741211 87.681640625 109.17070007324219 88.7847671508789 C107.19140625 89.5250015258789 105.37109375 90.025390625 103.60859680175781 90.28632354736328 C101.619140625 90.59452819824219 99.685546875 90.59452819824219 97.68359375 90.28632354736328 C95.9320297241211 90.025390625 94.13594055175781 89.5250015258789 92.16914367675781 88.796875 C91.873046875 88.68241882324219 91.56484985351562 88.56953430175781 91.27030944824219 88.455078125 C88.65507507324219 87.375 86.12969207763672 85.9527359008789 83.9019546508789 84.3949203491211 C83.88984680175781 84.38397979736328 83.87890625 84.38397979736328 83.8667984008789 84.37187957763672 C83.82109069824219 84.33828735351562 83.77694702148438 84.3031234741211 83.73125457763672 84.26953125 L83.71875 84.26953125 C73.79141235351562 77.22929382324219 66.6273422241211 65.56991577148438 66.6273422241211 55.86835861206055 Z"></path>
<path fill="#f59556" fill-opacity="1.0"  filling="0" d="M65.876953125 33.55272674560547 L135.0187530517578 33.55272674560547 C137.1796875 33.55272674560547 138.94180297851562 35.31640625 138.94180297851562 37.466407775878906 L138.94180297851562 41.16366958618164 C138.94180297851562 43.31210708618164 137.1796875 45.076168060302734 135.0187530517578 45.076168060302734 L65.876953125 45.076168060302734 C63.728515625 45.076168060302734 61.96445083618164 43.31210708618164 61.96445083618164 41.16366958618164 L61.96445083618164 37.466407775878906 C61.96445083618164 35.31640625 63.728515625 33.55272674560547 65.876953125 33.55272674560547 Z"></path>
<path fill="#d65036" fill-opacity="1.0"  filling="0" d="M61.96445083618164 37.466407775878906 C61.96445083618164 35.31640625 63.728515625 33.55272674560547 65.876953125 33.55272674560547 L74.84883117675781 33.55272674560547 C72.69882202148438 33.55272674560547 70.93828582763672 35.31640625 70.93828582763672 37.466407775878906 L70.93828582763672 41.16366958618164 C70.93828582763672 43.30155944824219 72.677734375 45.06367492675781 74.826171875 45.076168060302734 L65.876953125 45.076168060302734 C63.72695541381836 45.076168060302734 61.96445083618164 43.31210708618164 61.96445083618164 41.16366958618164 L61.96445083618164 37.466407775878906 Z"></path>
<path fill="#507fcf" fill-opacity="1.0"  filling="0" d="M103.6195297241211 90.28632354736328 L103.60859680175781 90.28632354736328 C109.5230484008789 88.68241882324219 112.28633117675781 88.03398895263672 117.57344055175781 84.26953125 L130.63983154296875 88.240234375 L118.7789077758789 104.06053924560547 C114.86797332763672 109.19023895263672 109.67108917236328 105.18633270263672 108.943359375 103.390625 L103.6195297241211 90.28632354736328 Z"></path>
<path fill="#f59556" fill-opacity="1.0"  filling="0" d="M60.771095275878906 91.25350952148438 C61.16952896118164 91.1285171508789 61.57851791381836 91.0140609741211 61.98750305175781 90.8890609741211 L70.67578125 88.23867797851562 L82.52578735351562 104.06053924560547 C85.82304382324219 108.3832015991211 90.03125 106.2210922241211 91.70233917236328 104.35625457763672 L91.70233917236328 116.05976867675781 L60.771095275878906 116.05976867675781 L60.771095275878906 91.25350952148438 Z"></path>
<path fill="#f59556" fill-opacity="1.0"  filling="0" d="M109.60234069824219 104.35625457763672 C111.2730484008789 106.2210922241211 115.48163604736328 108.3832015991211 118.7789077758789 104.06053924560547 L130.63983154296875 88.23867797851562 L139.3507843017578 90.8890609741211 C139.7492218017578 91.00350952148438 140.14727783203125 91.1285171508789 140.53359985351562 91.24140930175781 L140.53359985351562 116.05976867675781 L109.60234069824219 116.05976867675781 L109.60234069824219 104.35625457763672 Z"></path>
<path fill="#d65036" fill-opacity="1.0"  filling="0" d="M60.771095275878906 91.25350952148438 C61.16952896118164 91.1285171508789 61.57851791381836 91.0140609741211 61.98750305175781 90.890625 L70.67578125 88.240234375 L75.06562805175781 94.10859680175781 L70.1187515258789 95.55195617675781 C66.775390625 96.51953125 63.59101486206055 97.2808609008789 60.771095275878906 98.396484375 L60.771095275878906 91.25350952148438 Z"></path>
<path fill="#6052c4" fill-opacity="1.0"  filling="0" d="M83.73125457763672 84.26953125 C83.73125457763672 84.26953125 83.73125457763672 84.28046417236328 83.74336242675781 84.28046417236328 C83.74336242675781 84.2925796508789 83.75390625 84.2925796508789 83.75390625 84.2925796508789 C83.77694702148438 84.3046875 83.79960632324219 84.326171875 83.8226547241211 84.33828735351562 L83.845703125 84.361328125 L83.86836242675781 84.37187957763672 L83.9019546508789 84.3949203491211 C83.94766235351562 84.43008422851562 84.0042953491211 84.47577667236328 84.060546875 84.50936889648438 C84.09414672851562 84.53046417236328 84.13983917236328 84.56562805175781 84.17500305175781 84.58866882324219 C84.2542953491211 84.6449203491211 84.32148742675781 84.6910171508789 84.34452819824219 84.7015609741211 L84.3671875 84.724609375 C86.47148895263672 86.146484375 88.8031234741211 87.4312515258789 91.224609375 88.43241882324219 L91.23515319824219 88.43241882324219 C91.24765014648438 88.44453430175781 91.2582015991211 88.44453430175781 91.27030944824219 88.455078125 C91.39570617675781 88.50077819824219 91.52070617675781 88.546875 91.64570617675781 88.6031265258789 L91.66874694824219 88.6031265258789 C92.01054382324219 88.7406234741211 92.35078430175781 88.87616729736328 92.703125 89.00155639648438 L75.06562805175781 94.10859680175781 L70.67578125 88.240234375 L83.7203140258789 84.26953125 L83.73125457763672 84.26953125 Z"></path>
<path fill="#507fcf" fill-opacity="1.0"  filling="0" d="M60.771095275878906 91.25350952148438 L60.771095275878906 98.396484375 C56.39179992675781 100.13749694824219 52.91289138793945 102.7191390991211 51.115234375 108.2582015991211 L48.750389099121094 116.05976867675781 L39.21054458618164 116.05976867675781 L42.996097564697266 103.5933609008789 C45.792972564697266 94.92813110351562 52.78789138793945 93.58515930175781 60.771095275878906 91.25350952148438 Z"></path></svg>