<svg xmlns="http://www.w3.org/2000/svg" viewBox="0.0 0.0 200.0 200.0" height="200.0px" width="200.0px"><path fill="#fabe2c" fill-opacity="1.0"  filling="0" d="M105.859375 5.859375 L105.859375 29.296875 C105.859375 32.53125 103.234375 35.15625 100.0 35.15625 C96.765625 35.15625 94.140625 32.53125 94.140625 29.296875 L94.140625 5.859375 C94.140625 2.625 96.765625 0.0 100.0 0.0 C103.234375 0.0 105.859375 2.625 105.859375 5.859375 Z"></path>
<path fill="#fabe2c" fill-opacity="1.0"  filling="0" d="M105.859375 170.703125 L105.859375 194.140625 C105.859375 197.375 103.234375 200.0 100.0 200.0 C96.765625 200.0 94.140625 197.375 94.140625 194.140625 L94.140625 170.703125 C94.140625 167.46875 96.765625 164.84375 100.0 164.84375 C103.234375 164.84375 105.859375 167.46875 105.859375 170.703125 Z"></path>
<path fill="#ff9100" fill-opacity="1.0"  filling="0" d="M105.859375 5.859375 L105.859375 29.296875 C105.859375 32.53125 103.234375 35.15625 100.0 35.15625 L100.0 0.0 C103.234375 0.0 105.859375 2.625 105.859375 5.859375 Z"></path>
<path fill="#ff9100" fill-opacity="1.0"  filling="0" d="M105.859375 170.703125 L105.859375 194.140625 C105.859375 197.375 103.234375 200.0 100.0 200.0 L100.0 164.84375 C103.234375 164.84375 105.859375 167.46875 105.859375 170.703125 Z"></path>
<path fill="#ff9100" fill-opacity="1.0"  filling="0" d="M194.140625 105.859375 L170.703125 105.859375 C167.46719360351562 105.859375 164.84375 103.2359390258789 164.84375 100.0 C164.84375 96.7640609741211 167.46719360351562 94.140625 170.703125 94.140625 L194.140625 94.140625 C197.37655639648438 94.140625 200.0 96.7640609741211 200.0 100.0 C200.0 103.2359390258789 197.37655639648438 105.859375 194.140625 105.859375 Z"></path>
<path fill="#ff9100" fill-opacity="1.0"  filling="0" d="M194.140625 74.609375 L170.703125 74.609375 C167.46719360351562 74.609375 164.84375 71.98593139648438 164.84375 68.75 C164.84375 65.51406860351562 167.46719360351562 62.890625 170.703125 62.890625 L194.140625 62.890625 C197.37655639648438 62.890625 200.0 65.51406860351562 200.0 68.75 C200.0 71.98593139648438 197.37655639648438 74.609375 194.140625 74.609375 Z"></path>
<path fill="#ff9100" fill-opacity="1.0"  filling="0" d="M194.140625 137.109375 L170.703125 137.109375 C167.46719360351562 137.109375 164.84375 134.48593139648438 164.84375 131.25 C164.84375 128.01406860351562 167.46719360351562 125.390625 170.703125 125.390625 L194.140625 125.390625 C197.37655639648438 125.390625 200.0 128.01406860351562 200.0 131.25 C200.0 134.48593139648438 197.37655639648438 137.109375 194.140625 137.109375 Z"></path>
<path fill="#fabe2c" fill-opacity="1.0"  filling="0" d="M29.296875 105.859375 L5.859375 105.859375 C2.6234359741210938 105.859375 0.0 103.2359390258789 0.0 100.0 C0.0 96.7640609741211 2.6234359741210938 94.140625 5.859375 94.140625 L29.296875 94.140625 C32.532814025878906 94.140625 35.15625 96.7640609741211 35.15625 100.0 C35.15625 103.2359390258789 32.532814025878906 105.859375 29.296875 105.859375 Z"></path>
<path fill="#fabe2c" fill-opacity="1.0"  filling="0" d="M29.296875 74.609375 L5.859375 74.609375 C2.6234359741210938 74.609375 0.0 71.98593139648438 0.0 68.75 C0.0 65.51406860351562 2.6234359741210938 62.890625 5.859375 62.890625 L29.296875 62.890625 C32.532814025878906 62.890625 35.15625 65.51406860351562 35.15625 68.75 C35.15625 71.98593139648438 32.532814025878906 74.609375 29.296875 74.609375 Z"></path>
<path fill="#fabe2c" fill-opacity="1.0"  filling="0" d="M29.296875 137.109375 L5.859375 137.109375 C2.6234359741210938 137.109375 0.0 134.48593139648438 0.0 131.25 C0.0 128.01406860351562 2.6234359741210938 125.390625 5.859375 125.390625 L29.296875 125.390625 C32.532814025878906 125.390625 35.15625 128.01406860351562 35.15625 131.25 C35.15625 134.48593139648438 32.532814025878906 137.109375 29.296875 137.109375 Z"></path>
<path fill="#ff9100" fill-opacity="1.0"  filling="0" d="M131.25 35.15625 C128.01406860351562 35.15625 125.390625 32.532814025878906 125.390625 29.296875 L125.390625 5.859375 C125.390625 2.6234359741210938 128.01406860351562 0.0 131.25 0.0 C134.48593139648438 0.0 137.109375 2.6234359741210938 137.109375 5.859375 L137.109375 29.296875 C137.109375 32.532814025878906 134.48593139648438 35.15625 131.25 35.15625 Z"></path>
<path fill="#fabe2c" fill-opacity="1.0"  filling="0" d="M68.75 35.15625 C65.51406860351562 35.15625 62.890625 32.532814025878906 62.890625 29.296875 L62.890625 5.859375 C62.890625 2.6234359741210938 65.51406860351562 0.0 68.75 0.0 C71.98593139648438 0.0 74.609375 2.6234359741210938 74.609375 5.859375 L74.609375 29.296875 C74.609375 32.532814025878906 71.98593139648438 35.15625 68.75 35.15625 Z"></path>
<path fill="#ff9100" fill-opacity="1.0"  filling="0" d="M131.25 200.0 C128.01406860351562 200.0 125.390625 197.37655639648438 125.390625 194.140625 L125.390625 170.703125 C125.390625 167.46719360351562 128.01406860351562 164.84375 131.25 164.84375 C134.48593139648438 164.84375 137.109375 167.46719360351562 137.109375 170.703125 L137.109375 194.140625 C137.109375 197.37655639648438 134.48593139648438 200.0 131.25 200.0 Z"></path>
<path fill="#fabe2c" fill-opacity="1.0"  filling="0" d="M68.75 200.0 C65.51406860351562 200.0 62.890625 197.37655639648438 62.890625 194.140625 L62.890625 170.703125 C62.890625 167.46719360351562 65.51406860351562 164.84375 68.75 164.84375 C71.98593139648438 164.84375 74.609375 167.46719360351562 74.609375 170.703125 L74.609375 194.140625 C74.609375 197.37655639648438 71.98593139648438 200.0 68.75 200.0 Z"></path>
<path fill="#5e54ac" fill-opacity="1.0"  filling="0" d="M173.58633422851562 32.045318603515625 L173.58633422851562 167.95468139648438 C173.58633422851562 171.0632781982422 171.0632781982422 173.58633422851562 167.95468139648438 173.58633422851562 L32.045318603515625 173.58633422851562 C28.936721801757812 173.58633422851562 26.413673400878906 171.0632781982422 26.413673400878906 167.95468139648438 L26.413673400878906 47.78007888793945 C26.413673400878906 46.28593826293945 27.007034301757812 44.85546875 28.06171417236328 43.796875 L43.796485900878906 28.062103271484375 C44.85508346557617 27.007034301757812 46.285545349121094 26.4140625 47.78007888793945 26.4140625 L167.95468139648438 26.4140625 C171.0632781982422 26.413673400878906 173.58633422851562 28.936721801757812 173.58633422851562 32.045318603515625 Z"></path>
<path fill="#453d81" fill-opacity="1.0"  filling="0" d="M173.58633422851562 32.045318603515625 L173.58633422851562 167.95468139648438 C173.58633422851562 171.0632781982422 171.0632781982422 173.58633422851562 167.95468139648438 173.58633422851562 L100.0 173.58633422851562 L100.0 26.413673400878906 L167.95468139648438 26.413673400878906 C171.0632781982422 26.413673400878906 173.58633422851562 28.936721801757812 173.58633422851562 32.045318603515625 Z"></path>
<path fill="#f0f7ff" fill-opacity="1.0"  filling="0" d="M147.74063110351562 85.61250305175781 L137.39218139648438 84.4644546508789 L143.880859375 76.31875610351562 C145.6609344482422 74.0824203491211 145.4777374267578 70.86210632324219 143.45077514648438 68.84648132324219 L130.95938110351562 56.41093826293945 C128.9324188232422 54.39531326293945 125.71601867675781 54.22304916381836 123.48711395263672 56.01445388793945 L115.5171890258789 62.42109680175781 L114.38789367675781 52.259765625 C114.07382202148438 49.41718673706055 111.67265319824219 47.26679229736328 108.81172180175781 47.26679229736328 L91.1890640258789 47.26679229736328 C88.328125 47.26679229736328 85.92695617675781 49.41718673706055 85.6128921508789 52.259765625 L84.46484375 62.60820007324219 L76.31913757324219 56.119529724121094 C74.08280944824219 54.33945083618164 70.86250305175781 54.52617263793945 68.84687805175781 56.54961013793945 L56.41132736206055 69.041015625 C54.39531326293945 71.0679702758789 54.22343444824219 74.28827667236328 56.01484298706055 76.51327514648438 L62.42148208618164 84.48320007324219 L52.260154724121094 85.61250305175781 C49.417972564697266 85.92655944824219 47.26718521118164 88.3277359008789 47.26718521118164 91.18866729736328 L47.26718521118164 108.81133270263672 C47.26718521118164 111.67227172851562 49.417579650878906 114.07344055175781 52.260154724121094 114.38749694824219 L62.60859298706055 115.5355453491211 L56.11992645263672 123.68124389648438 C54.33984375 125.9175796508789 54.52304458618164 129.13787841796875 56.55000305175781 131.15350341796875 L69.0414047241211 143.5890655517578 C71.068359375 145.60467529296875 74.2886734008789 145.77694702148438 76.513671875 143.9855499267578 L84.48359680175781 137.5789031982422 L85.6128921508789 147.740234375 C85.92695617675781 150.58242797851562 88.328125 152.73321533203125 91.1890640258789 152.73321533203125 L108.81172180175781 152.73321533203125 C111.67265319824219 152.73321533203125 114.07382202148438 150.5828094482422 114.38789367675781 147.740234375 L115.53593444824219 137.39178466796875 L123.681640625 143.880859375 C125.91796875 145.6609344482422 129.13827514648438 145.4777374267578 131.15390014648438 143.45077514648438 L143.58944702148438 130.95938110351562 C145.60546875 128.9324188232422 145.77734375 125.71211242675781 143.98593139648438 123.48711395263672 L137.5792999267578 115.5171890258789 L147.74063110351562 114.38789367675781 C150.5828094482422 114.07382202148438 152.73358154296875 111.67265319824219 152.73358154296875 108.81172180175781 L152.73358154296875 91.1890640258789 C152.73321533203125 88.3277359008789 150.5828094482422 85.92655944824219 147.74063110351562 85.61250305175781 Z M100.0 116.82969665527344 C90.7210922241211 116.82969665527344 83.1703109741211 109.2789077758789 83.1703109741211 100.0 C83.1703109741211 90.7210922241211 90.7210922241211 83.1703109741211 100.0 83.1703109741211 C109.2789077758789 83.1703109741211 116.82969665527344 90.7210922241211 116.82969665527344 100.0 C116.82969665527344 109.2789077758789 109.2789077758789 116.82969665527344 100.0 116.82969665527344 Z"></path>
<path fill="#dfe7f4" fill-opacity="1.0"  filling="0" d="M152.73321533203125 91.18866729736328 L152.73321533203125 108.81133270263672 C152.73321533203125 111.67227172851562 150.5828094482422 114.07344055175781 147.740234375 114.38749694824219 L137.5789031982422 115.51679229736328 L143.9855499267578 123.48672485351562 C145.77694702148438 125.71211242675781 145.60507202148438 128.93203735351562 143.5890655517578 130.958984375 L131.15350341796875 143.4503936767578 C129.13751220703125 145.4773406982422 125.9175796508789 145.6609344482422 123.68124389648438 143.88047790527344 L115.5355453491211 137.3914031982422 L114.38749694824219 147.73983764648438 C114.07344055175781 150.58203125 111.67227172851562 152.73281860351562 108.81133270263672 152.73281860351562 L100.0 152.73281860351562 L100.0 116.82929992675781 C109.2789077758789 116.82929992675781 116.82969665527344 109.27851104736328 116.82969665527344 99.99960327148438 C116.82969665527344 90.720703125 109.2789077758789 83.169921875 100.0 83.169921875 L100.0 47.26640701293945 L108.81133270263672 47.26640701293945 C111.67227172851562 47.26640701293945 114.07344055175781 49.41679763793945 114.38749694824219 52.25937271118164 L115.51679229736328 62.42070007324219 L123.48672485351562 56.014060974121094 C125.71562194824219 54.22265625 128.93203735351562 54.39453125 130.958984375 56.410545349121094 L143.4503936767578 68.8460922241211 C145.4773406982422 70.86210632324219 145.66055297851562 74.08203125 143.88047790527344 76.318359375 L137.39178466796875 84.46406555175781 L147.740234375 85.61211395263672 C150.5828094482422 85.92655944824219 152.73321533203125 88.3277359008789 152.73321533203125 91.18866729736328 Z"></path></svg>