<svg xmlns="http://www.w3.org/2000/svg" viewBox="0.0 0.0 200.0 200.0" height="200.0px" width="200.0px"><path fill="#f0bc5e" fill-opacity="1.0"  filling="0" d="M87.09677124023438 19.81330108642578 C83.02822875976562 18.496368408203125 78.69999694824219 17.766937255859375 74.19355010986328 17.766937255859375 C69.68710327148438 17.766937255859375 65.35887145996094 18.496368408203125 61.290321350097656 19.81330108642578 L61.290321350097656 43.573387145996094 L87.09677124023438 43.573387145996094 L87.09677124023438 19.81330108642578 Z"></path>
<path fill="#f0bc5e" fill-opacity="1.0"  filling="0" d="M58.06451416015625 20.99273681640625 C52.96733474731445 23.122581481933594 48.3870964050293 26.218948364257812 44.54838943481445 30.057662963867188 C44.51532745361328 30.090728759765625 44.4838752746582 30.122177124023438 44.450809478759766 30.155242919921875 C36.321773529052734 23.799591064453125 27.000404357910156 19.250808715820312 17.06452178955078 16.800003051757812 C16.452011108398438 13.090721130371094 16.1290283203125 9.283462524414062 16.1290283203125 5.4782257080078125 L16.1290283203125 4.864112854003906 L21.451210021972656 5.541130065917969 C34.83790588378906 7.2185516357421875 47.51612854003906 12.542335510253906 58.06451416015625 20.99273681640625 Z"></path>
<path fill="#f0bc5e" fill-opacity="1.0"  filling="0" d="M132.258056640625 4.86370849609375 L132.258056640625 5.4782257080078125 C132.258056640625 9.283462524414062 131.93508911132812 13.090721130371094 131.32257080078125 16.800003051757812 C121.3866958618164 19.250808715820312 112.06532287597656 23.799591064453125 103.93628692626953 30.155242919921875 C100.06451416015625 26.25201416015625 95.45121002197266 23.122581481933594 90.32257843017578 20.99273681640625 C100.8709716796875 12.542335510253906 113.54918670654297 7.2185516357421875 126.93588256835938 5.541130065917969 L132.258056640625 4.86370849609375 Z"></path>
<path fill="" fill-opacity="1.0"  filling="0" d="M58.06451416015625 56.47661209106445 C58.06451416015625 58.25806427001953 56.62015914916992 59.70241928100586 54.83871078491211 59.70241928100586 C53.05725860595703 59.70241928100586 51.6129035949707 58.25806427001953 51.6129035949707 56.47661209106445 C51.6129035949707 54.69556427001953 53.05725860595703 53.25080490112305 54.83871078491211 53.25080490112305 C56.62015914916992 53.25080490112305 58.06451416015625 54.69556427001953 58.06451416015625 56.47661209106445 Z"></path>
<path fill="" fill-opacity="1.0"  filling="0" d="M96.7741928100586 56.47661209106445 C96.7741928100586 58.25806427001953 95.32984161376953 59.70241928100586 93.54838562011719 59.70241928100586 C91.76693725585938 59.70241928100586 90.32257843017578 58.25806427001953 90.32257843017578 56.47661209106445 C90.32257843017578 54.69556427001953 91.76693725585938 53.25080490112305 93.54838562011719 53.25080490112305 C95.32984161376953 53.25080490112305 96.7741928100586 54.69556427001953 96.7741928100586 56.47661209106445 Z"></path>
<path fill="" fill-opacity="1.0"  filling="0" d="M70.96774291992188 137.1217803955078 L70.96774291992188 150.02500915527344 L77.41935729980469 150.02500915527344 L77.41935729980469 137.1217803955078 L83.8709716796875 137.1217803955078 L83.8709716796875 130.50645446777344 C119.71855163574219 128.80685424804688 148.38710021972656 99.19355010986328 148.38710021972656 62.92822265625 L148.38710021972656 40.34757995605469 L135.48387145996094 40.34757995605469 L135.48387145996094 33.895965576171875 L129.68104553222656 33.895965576171875 C133.47418212890625 24.93225860595703 135.48387145996094 15.209274291992188 135.48387145996094 5.4782257080078125 L135.48387145996094 1.2096786499023438 L126.545166015625 2.3266143798828125 C113.15846252441406 4.000801086425781 100.49919891357422 9.212898254394531 89.78387451171875 17.370162963867188 C84.91693115234375 15.574592590332031 79.68104553222656 14.541130065917969 74.19355010986328 14.541130065917969 C68.7060546875 14.541130065917969 63.47016525268555 15.574592590332031 58.60322570800781 17.375 C47.887901306152344 9.215721130371094 35.22863006591797 4.000801086425781 21.841934204101562 2.3294296264648438 L12.903228759765625 1.2096786499023438 L12.903228759765625 5.4782257080078125 C12.903228759765625 15.209274291992188 14.91290283203125 24.93225860595703 18.70604705810547 33.895965576171875 L12.903228759765625 33.895965576171875 L12.903228759765625 40.34757995605469 L0.0 40.34757995605469 L0.0 62.92822265625 C0.0 99.19355010986328 28.668540954589844 128.80685424804688 64.51612854003906 130.50645446777344 L64.51612854003906 137.1217803955078 L70.96774291992188 137.1217803955078 Z M30.935081481933594 46.799190521240234 L19.354835510253906 46.799190521240234 L19.354835510253906 40.34757995605469 L33.45201873779297 40.34757995605469 C32.46128845214844 42.422176361083984 31.602821350097656 44.56734085083008 30.935081481933594 46.799190521240234 Z M32.354034423828125 74.62177276611328 L35.48387145996094 70.4572525024414 L35.48387145996094 59.70241928100586 C35.48387145996094 44.11854934692383 44.761287689208984 30.69072723388672 58.06451416015625 24.55725860595703 L58.06451416015625 43.573387145996094 L64.51612854003906 43.573387145996094 L64.51612854003906 22.267333984375 C66.60645294189453 21.72540283203125 68.75806427001953 21.342735290527344 70.96774291992188 21.158462524414062 L70.96774291992188 43.573387145996094 L77.41935729980469 43.573387145996094 L77.41935729980469 21.158462524414062 C79.6290283203125 21.342735290527344 81.7806396484375 21.72540283203125 83.8709716796875 22.267333984375 L83.8709716796875 43.573387145996094 L90.32257843017578 43.573387145996094 L90.32257843017578 24.55725860595703 C103.62580871582031 30.69072723388672 112.90322875976562 44.11854934692383 112.90322875976562 59.70241928100586 L112.90322875976562 70.4572525024414 L116.03306579589844 74.62177276611328 C118.17338562011719 77.47782135009766 119.35484313964844 81.01210021972656 119.35484313964844 84.58467864990234 C119.35484313964844 90.14153289794922 116.59355163574219 95.29999542236328 111.96774291992188 98.38387298583984 L107.86451721191406 101.12298583984375 C105.84516143798828 102.46814727783203 103.74556732177734 103.64797973632812 101.6064453125 104.73468017578125 C102.66814422607422 101.6806411743164 103.2258071899414 98.4483871459961 103.2258071899414 95.18628692626953 C103.2258071899414 79.18024444580078 90.20281982421875 66.1540298461914 74.19355010986328 66.1540298461914 C58.18427276611328 66.1540298461914 45.16128921508789 79.18024444580078 45.16128921508789 95.18628692626953 C45.16128921508789 98.464111328125 45.73145294189453 101.6899185180664 46.79636764526367 104.74273681640625 C44.65081024169922 103.6540298461914 42.54515838623047 102.47136688232422 40.5225830078125 101.12298583984375 L36.41935729980469 98.38387298583984 C31.793540954589844 95.29999542236328 29.032257080078125 90.14153289794922 29.032257080078125 84.58467864990234 C29.032257080078125 81.01210021972656 30.213706970214844 77.47782135009766 32.354034423828125 74.62177276611328 Z M114.9350814819336 40.34757995605469 L129.03225708007812 40.34757995605469 L129.03225708007812 46.799190521240234 L117.45201873779297 46.799190521240234 C116.78427124023438 44.56734085083008 115.9258041381836 42.422176361083984 114.9350814819336 40.34757995605469 Z M74.19355010986328 79.05725860595703 C71.87821960449219 79.05725860595703 69.8681411743164 77.49031829833984 69.30282592773438 75.24274444580078 L68.81290435791016 73.27983856201172 C70.54234313964844 72.85806274414062 72.3350830078125 72.60564422607422 74.19355010986328 72.60564422607422 C76.05201721191406 72.60564422607422 77.84475708007812 72.85806274414062 79.57418823242188 73.27983856201172 L79.08427429199219 75.24274444580078 C78.51895141601562 77.49031829833984 76.50887298583984 79.05725860595703 74.19355010986328 79.05725860595703 Z M56.08790588378906 108.54193115234375 C53.23830795288086 104.67822265625 51.6129035949707 100.0157241821289 51.6129035949707 95.18628692626953 C51.6129035949707 86.90322875976562 56.1129035949707 79.66371154785156 62.780242919921875 75.73548889160156 L63.04798126220703 76.80644989013672 C64.05442810058594 80.84516143798828 67.1290283203125 83.8899154663086 70.96774291992188 85.01612854003906 L70.96774291992188 95.18628692626953 C70.96774291992188 96.96492004394531 69.52177429199219 98.41209411621094 67.74193572998047 98.41209411621094 C65.96209716796875 98.41209411621094 64.51612854003906 96.96492004394531 64.51612854003906 95.18628692626953 L58.06451416015625 95.18628692626953 C58.06451416015625 100.52297973632812 62.40726089477539 104.86371612548828 67.74193572998047 104.86371612548828 C70.22903442382812 104.86371612548828 72.47661590576172 103.8935546875 74.19355010986328 102.348388671875 C75.91048431396484 103.89677429199219 78.15806579589844 104.86371612548828 80.64515686035156 104.86371612548828 C85.9798355102539 104.86371612548828 90.32257843017578 100.52297973632812 90.32257843017578 95.18628692626953 L83.8709716796875 95.18628692626953 C83.8709716796875 96.96492004394531 82.42500305175781 98.41209411621094 80.64515686035156 98.41209411621094 C78.86532592773438 98.41209411621094 77.41935729980469 96.96492004394531 77.41935729980469 95.18628692626953 L77.41935729980469 85.01612854003906 C81.25806427001953 83.89314270019531 84.3326644897461 80.84516143798828 85.339111328125 76.80644989013672 L85.60684967041016 75.73870849609375 C92.2741928100586 79.66371154785156 96.7741928100586 86.90322875976562 96.7741928100586 95.18628692626953 C96.7741928100586 100.06128692626953 95.21330261230469 104.63548278808594 92.34516143798828 108.52620697021484 C86.50927734375 110.35806274414062 80.40564727783203 111.31571960449219 74.19355010986328 111.31571960449219 C67.99717712402344 111.31571960449219 61.906044006347656 110.3641128540039 56.08790588378906 108.54193115234375 Z M70.96774291992188 130.670166015625 L70.96774291992188 117.64918518066406 C72.04193115234375 117.69959259033203 73.11290740966797 117.767333984375 74.19355010986328 117.767333984375 C75.2741928100586 117.767333984375 76.34516143798828 117.69959259033203 77.41935729980469 117.64918518066406 L77.41935729980469 130.670166015625 L70.96774291992188 130.670166015625 Z M141.93548583984375 46.799190521240234 L141.93548583984375 62.92822265625 C141.93548583984375 95.63548278808594 116.16532135009766 122.3616943359375 83.8709716796875 124.05484008789062 L83.8709716796875 117.06452178955078 C93.69314575195312 115.64234161376953 103.08709716796875 112.06048583984375 111.4415283203125 106.49112701416016 L115.54475402832031 103.75201416015625 C121.9709701538086 99.4709701538086 125.80644989013672 92.30242156982422 125.80644989013672 84.58467864990234 C125.80644989013672 79.62621307373047 124.16854858398438 74.71330261230469 121.1899185180664 70.74879455566406 L119.35484313964844 68.30282592773438 L119.35484313964844 59.702823638916016 C119.35484313964844 57.50685501098633 119.1451644897461 55.36491775512695 118.83830261230469 53.2512092590332 L135.48387145996094 53.2512092590332 L135.48387145996094 46.799598693847656 L141.93548583984375 46.799190521240234 Z M127.348388671875 8.729026794433594 L128.96128845214844 8.529037475585938 C128.55201721191406 17.2899169921875 126.36734008789062 25.964111328125 122.60887145996094 33.895965576171875 L111.20040893554688 33.895965576171875 C107.35081481933594 28.39757537841797 102.31532287597656 23.799591064453125 96.46089172363281 20.46532440185547 C105.6544418334961 14.155242919921875 116.23306274414062 10.120155334472656 127.348388671875 8.729026794433594 Z M19.425804138183594 8.526206970214844 L21.03870391845703 8.726211547851562 C32.154029846191406 10.116935729980469 42.73265838623047 14.155242919921875 51.92338943481445 20.460487365722656 C46.06693649291992 23.799591064453125 41.03306198120117 28.39757537841797 37.18346405029297 33.895965576171875 L25.778221130371094 33.895965576171875 C22.019760131835938 25.964111328125 19.8350830078125 17.2899169921875 19.425804138183594 8.526206970214844 Z M6.4516143798828125 62.92822265625 L6.4516143798828125 46.799190521240234 L12.903228759765625 46.799190521240234 L12.903228759765625 53.25080490112305 L29.548789978027344 53.25080490112305 C29.241928100585938 55.36491775512695 29.032257080078125 57.50685501098633 29.032257080078125 59.70241928100586 L29.032257080078125 68.30282592773438 L27.197181701660156 70.74879455566406 C24.218544006347656 74.71330261230469 22.580642700195312 79.62621307373047 22.580642700195312 84.58467864990234 C22.580642700195312 92.30242156982422 26.416122436523438 99.4709701538086 32.84233856201172 103.75201416015625 L36.94556427001953 106.49112701416016 C45.29999542236328 112.06048583984375 54.69395446777344 115.64234161376953 64.51612854003906 117.06452178955078 L64.51612854003906 124.05484008789062 C32.221778869628906 122.3616943359375 6.4516143798828125 95.63548278808594 6.4516143798828125 62.92822265625 Z"></path>
<path fill="" fill-opacity="1.0"  filling="0" d="M183.8709716796875 120.99274444580078 L177.4193572998047 120.99274444580078 L177.4193572998047 130.670166015625 L170.96774291992188 130.670166015625 L170.96774291992188 120.99274444580078 L164.51612854003906 120.99274444580078 L164.51612854003906 137.1217803955078 L170.96774291992188 137.1217803955078 L170.96774291992188 150.02500915527344 L177.4193572998047 150.02500915527344 L177.4193572998047 137.1217803955078 L183.8709716796875 137.1217803955078 L183.8709716796875 120.99274444580078 Z"></path>
<path fill="" fill-opacity="1.0"  filling="0" d="M170.96774291992188 177.44436645507812 C170.96774291992188 185.4475860595703 164.454833984375 191.96047973632812 156.4516143798828 191.96047973632812 C148.44839477539062 191.96047973632812 141.93548583984375 185.4475860595703 141.93548583984375 177.44436645507812 L141.93548583984375 150.02500915527344 C141.93548583984375 139.3524169921875 133.25523376464844 130.670166015625 122.58064270019531 130.670166015625 C111.90605163574219 130.670166015625 103.2258071899414 139.3524169921875 103.2258071899414 150.02500915527344 L103.2258071899414 179.05726623535156 C103.2258071899414 186.17379760742188 97.43870544433594 191.96047973632812 90.32257843017578 191.96047973632812 C83.20645141601562 191.96047973632812 77.41935729980469 186.17379760742188 77.41935729980469 179.05726623535156 L77.41935729980469 169.37985229492188 L70.96774291992188 169.37985229492188 L70.96774291992188 179.05726623535156 C70.96774291992188 189.7318572998047 79.64797973632812 198.412109375 90.32257843017578 198.412109375 C100.99717712402344 198.412109375 109.67742156982422 189.7318572998047 109.67742156982422 179.05726623535156 L109.67742156982422 150.02500915527344 C109.67742156982422 142.90887451171875 115.46450805664062 137.1217803955078 122.58064270019531 137.1217803955078 C129.69677734375 137.1217803955078 135.48387145996094 142.90887451171875 135.48387145996094 150.02500915527344 L135.48387145996094 177.44436645507812 C135.48387145996094 189.00564575195312 144.89031982421875 198.412109375 156.4516143798828 198.412109375 C168.01290893554688 198.412109375 177.4193572998047 189.00564575195312 177.4193572998047 177.44436645507812 L177.4193572998047 169.37985229492188 L170.96774291992188 169.37985229492188 L170.96774291992188 177.44436645507812 Z"></path>
<path fill="" fill-opacity="1.0"  filling="0" d="M70.96774291992188 156.47662353515625 L77.41935729980469 156.47662353515625 L77.41935729980469 162.92822265625 L70.96774291992188 162.92822265625 L70.96774291992188 156.47662353515625 Z"></path>
<path fill="" fill-opacity="1.0"  filling="0" d="M170.96774291992188 156.47662353515625 L177.4193572998047 156.47662353515625 L177.4193572998047 162.92822265625 L170.96774291992188 162.92822265625 L170.96774291992188 156.47662353515625 Z"></path>
<path fill="#f0bc5e" fill-opacity="1.0"  filling="0" d="M174.19354248046875 72.60564422607422 C188.46087646484375 72.60564422607422 200.0 84.14515686035156 200.0 98.41209411621094 C200.0 110.20967864990234 192.1104736328125 120.16451263427734 181.3096923828125 123.223388671875 C179.06048583984375 123.88629150390625 176.6649169921875 124.21855163574219 174.19354248046875 124.21855163574219 C171.72216796875 124.21855163574219 169.32659912109375 123.88629150390625 167.07742309570312 123.223388671875 C156.276611328125 120.16451263427734 148.38710021972656 110.20967864990234 148.38710021972656 98.41209411621094 C148.38710021972656 84.14515686035156 159.92620849609375 72.60564422607422 174.19354248046875 72.60564422607422 Z M183.8709716796875 98.41209411621094 C183.8709716796875 93.0584716796875 179.54879760742188 88.73468017578125 174.19354248046875 88.73468017578125 C168.8383026123047 88.73468017578125 164.51612854003906 93.0584716796875 164.51612854003906 98.41209411621094 C164.51612854003906 103.76773834228516 168.8383026123047 108.08952331542969 174.19354248046875 108.08952331542969 C179.54879760742188 108.08952331542969 183.8709716796875 103.76773834228516 183.8709716796875 98.41209411621094 Z"></path>
<path fill="" fill-opacity="1.0"  filling="0" d="M174.19354248046875 111.3153305053711 C167.07742309570312 111.3153305053711 161.29031372070312 105.52862548828125 161.29031372070312 98.41209411621094 C161.29031372070312 91.29596710205078 167.07742309570312 85.50886535644531 174.19354248046875 85.50886535644531 C181.3096923828125 85.50886535644531 187.09677124023438 91.29596710205078 187.09677124023438 98.41209411621094 C187.09677124023438 105.52862548828125 181.3096923828125 111.3153305053711 174.19354248046875 111.3153305053711 Z M174.19354248046875 91.96047973632812 C170.63548278808594 91.96047973632812 167.741943359375 94.85403442382812 167.741943359375 98.41209411621094 C167.741943359375 101.9705581665039 170.63548278808594 104.86371612548828 174.19354248046875 104.86371612548828 C177.75161743164062 104.86371612548828 180.64517211914062 101.9705581665039 180.64517211914062 98.41209411621094 C180.64517211914062 94.85403442382812 177.75161743164062 91.96047973632812 174.19354248046875 91.96047973632812 Z"></path></svg>