<svg xmlns="http://www.w3.org/2000/svg" viewBox="0.0 0.0 200.0 200.0" height="200.0px" width="200.0px"><path fill="#d4e1f4" fill-opacity="1.0"  filling="0" d="M41.396873474121094 47.486328125 C31.473045349121094 43.89492416381836 25.78125 39.23320007324219 25.78125 34.695701599121094 C25.78125 30.158203125 31.473045349121094 25.49687957763672 41.396873474121094 21.905471801757812 C51.29296875 18.323829650878906 64.21640014648438 16.21991729736328 78.125 15.88671875 C76.8296890258789 15.85546875 75.529296875 15.834373474121094 74.21875 15.834373474121094 C58.83281326293945 15.834373474121094 44.401954650878906 17.990234375 33.584373474121094 21.905471801757812 C23.660545349121094 25.49687957763672 17.96875 30.158981323242188 17.96875 34.695701599121094 C17.96875 39.232421875 23.660545349121094 43.89492416381836 33.584373474121094 47.486328125 C44.401954650878906 51.40117263793945 58.83281326293945 53.55741882324219 74.21875 53.55741882324219 C75.529296875 53.55741882324219 76.8296890258789 53.53593826293945 78.125 53.50508117675781 C64.21601867675781 53.171485900878906 51.29296875 51.06796646118164 41.396873474121094 47.486328125 Z"></path>
<path fill="#d4e1f4" fill-opacity="1.0"  filling="0" d="M41.39453125 87.66796875 C31.47187042236328 84.07734680175781 25.78125 79.4140625 25.78125 74.8746109008789 L25.78125 49.257816314697266 A32.900001525878906 32.900001525878906 0.0 0 1 17.96875 44.04218673706055 L17.96875 74.873046875 C17.96875 79.41288757324219 23.65937042236328 84.07577514648438 33.58203125 87.6664047241211 C44.39687728881836 91.58086395263672 58.828128814697266 93.7359390258789 74.21875 93.7359390258789 C75.529296875 93.7359390258789 76.830078125 93.71484375 78.125 93.68359375 C64.2125015258789 93.35039520263672 51.2890625 91.24765014648438 41.39453125 87.66796875 Z"></path>
<path fill="#d4e1f4" fill-opacity="1.0"  filling="0" d="M41.39453125 127.84648132324219 C31.47187042236328 124.2578125 25.78125 119.59296417236328 25.78125 115.05313110351562 L25.78125 89.4417953491211 A32.890625 32.890625 0.0 0 1 17.96875 84.22577667236328 L17.96875 115.05313110351562 C17.96875 119.59296417236328 23.65937042236328 124.255859375 33.58203125 127.84648132324219 C44.39687728881836 131.7578125 58.828128814697266 133.91445922851562 74.21875 133.91445922851562 C76.22383117675781 133.91445922851562 76.22383117675781 133.91445922851562 78.20976257324219 133.86444091796875 C64.26484680175781 133.5378875732422 51.308204650878906 131.43359375 41.39453125 127.84648132324219 Z"></path>
<path fill="#d4e1f4" fill-opacity="1.0"  filling="0" d="M41.39453125 168.3039093017578 C31.47187042236328 164.7136688232422 25.78125 160.05038452148438 25.78125 155.5105438232422 L25.78125 129.6203155517578 A32.890625 32.890625 0.0 0 1 17.96875 124.404296875 L17.96875 155.5105438232422 C17.96875 160.05038452148438 23.65937042236328 164.7136688232422 33.58203125 168.3039093017578 C44.39687728881836 172.21719360351562 58.828128814697266 174.3722686767578 74.21875 174.3722686767578 C76.2300796508789 174.3722686767578 76.2300796508789 174.3722686767578 78.22187805175781 174.32266235351562 C64.27226257324219 173.99688720703125 51.31132507324219 171.89218139648438 41.39453125 168.3039093017578 Z"></path>
<path fill="#d4e1f4" fill-opacity="1.0"  filling="0" d="M114.0316390991211 168.6328125 A33.892189025878906 33.892189025878906 0.0 0 1 132.421875 118.0078125 L132.421875 116.5492172241211 A33.60234451293945 33.60234451293945 0.0 0 0 110.78514862060547 126.38398742675781 A33.92109298706055 33.92109298706055 0.0 0 0 134.779296875 184.271484375 A34.56132888793945 34.56132888793945 0.0 0 0 138.68983459472656 184.04531860351562 A33.79765701293945 33.79765701293945 0.0 0 1 114.0316390991211 168.6328125 Z"></path>
<path fill="#0635c9" fill-opacity="1.0"  filling="0" d="M31.938278198242188 172.60702514648438 C43.251564025878906 176.70077514648438 58.22539520263672 178.955078125 74.14530944824219 178.955078125 C85.93241882324219 178.955078125 97.3257827758789 177.70858764648438 107.1171875 175.35000610351562 A2.34375 2.34375 0.0 0 0 106.01014709472656 170.79257202148438 C96.5726547241211 173.06600952148438 85.5453109741211 174.26913452148438 74.1226577758789 174.26913452148438 C58.732032775878906 174.26913452148438 44.34882354736328 172.1140594482422 33.53398132324219 168.20077514648438 C23.611328125 164.609375 17.96875 159.94570922851562 17.96875 155.40585327148438 L17.96875 124.29960632324219 C21.09375 127.26836395263672 25.814064025878906 129.93359375 31.938278198242188 132.15118408203125 C43.251564025878906 136.24453735351562 58.22539520263672 138.4992218017578 74.14530944824219 138.4992218017578 A148.90625 148.90625 0.0 0 0 103.2144546508789 135.7578125 A2.34375 2.34375 0.0 0 0 102.27383422851562 131.16366577148438 A144.28125 144.28125 0.0 0 1 74.1226577758789 133.8117218017578 C58.732032775878906 133.8117218017578 44.34882354736328 131.65663146972656 33.53398132324219 127.74336242675781 C23.611328125 124.15156555175781 17.96875 119.48828887939453 17.96875 114.94844055175781 L17.96875 84.12109375 C21.09375 87.08984375 25.814064025878906 89.75468444824219 31.938278198242188 91.97265625 C43.251564025878906 96.06640625 58.22539520263672 98.3207015991211 74.14530944824219 98.3207015991211 C90.06523132324219 98.3207015991211 105.10078430175781 96.06640625 116.41368103027344 91.97265625 C122.5390625 89.75468444824219 127.34375 87.08867645263672 130.46875 84.12109375 L130.46875 114.0625 L135.15625 114.0625 L135.15625 34.591407775878906 C135.15625 27.866790771484375 128.4636688232422 21.758987426757812 116.39961242675781 17.392967224121094 C105.0835952758789 13.297653198242188 90.06172180175781 11.042190551757812 74.14530944824219 11.042190551757812 C58.228904724121094 11.042190551757812 43.26875305175781 13.297653198242188 31.953125 17.392967224121094 C19.888671875 21.7578125 13.28125 27.866790771484375 13.28125 34.591407775878906 L13.28125 155.40585327148438 C13.28125 162.13360595703125 19.87578582763672 168.2421875 31.938278198242188 172.60702514648438 Z M114.8046875 87.56327819824219 C103.99179077148438 91.4761734008789 89.5355453491211 93.6328125 74.14530944824219 93.6328125 C58.75507736206055 93.6328125 44.36015319824219 91.47773742675781 33.545318603515625 87.5648422241211 C23.623046875 83.97265625 17.96875 79.30976867675781 17.96875 74.7699203491211 L17.96875 43.939064025878906 C21.09375 46.907814025878906 25.81523895263672 49.57265853881836 31.940231323242188 51.790626525878906 C43.256248474121094 55.88593292236328 58.22929763793945 58.14140319824219 74.14530944824219 58.14140319824219 C90.06133270263672 58.14140319824219 105.09571075439453 55.88593292236328 116.41093444824219 51.790626525878906 C122.53593444824219 49.57382583618164 127.34296417236328 46.907814025878906 130.46795654296875 43.939064025878906 L130.46795654296875 74.7699203491211 C130.46875 79.30976867675781 124.72930145263672 83.97265625 114.8046875 87.56327819824219 Z M33.486717224121094 21.80078125 C44.304298400878906 17.88593292236328 58.73515701293945 15.729690551757812 74.12109375 15.729690551757812 C89.50703430175781 15.729690551757812 103.9378890991211 17.88593292236328 114.75546264648438 21.80078125 C124.67929077148438 25.390625 130.37109375 30.053909301757812 130.37109375 34.591407775878906 C130.37109375 39.12890625 124.67929077148438 43.789066314697266 114.75546264648438 47.3828125 C103.9378890991211 51.29804611206055 89.50703430175781 53.45390319824219 74.12109375 53.45390319824219 C58.73515701293945 53.45390319824219 44.304298400878906 51.296878814697266 33.486717224121094 47.3828125 C23.562889099121094 43.789066314697266 17.87109375 39.12812423706055 17.87109375 34.591407775878906 C17.87109375 30.0546875 23.562889099121094 25.390625 33.486717224121094 21.80078125 Z"></path>
<path fill="#0635c9" fill-opacity="1.0"  filling="0" d="M90.44180297851562 72.63125610351562 A154.77967834472656 154.77967834472656 0.0 0 1 74.12109375 73.4765625 A151.1261749267578 151.1261749267578 0.0 0 1 53.73046875 72.13555145263672 A2.34375 2.34375 0.0 0 0 53.09531021118164 76.78008270263672 A155.8546905517578 155.8546905517578 0.0 0 0 74.1226577758789 78.1640625 A159.4578094482422 159.4578094482422 0.0 0 0 90.9398422241211 77.291015625 A2.34375 2.34375 0.0 0 0 90.443359375 72.63008117675781 L90.44180297851562 72.63125610351562 Z"></path>
<path fill="#0635c9" fill-opacity="1.0"  filling="0" d="M108.11679077148438 64.1636734008789 A7.000781536102295 7.000781536102295 0.0 1 0 115.11719512939453 71.1644515991211 A7.008593559265137 7.008593559265137 0.0 0 0 108.11679077148438 64.1636734008789 Z M108.11679077148438 73.47773742675781 A2.313281297683716 2.313281297683716 0.0 1 1 110.4300765991211 71.1644515991211 A2.3160154819488525 2.3160154819488525 0.0 0 1 108.11679077148438 73.4765625 L108.11679077148438 73.47773742675781 Z"></path>
<path fill="#0635c9" fill-opacity="1.0"  filling="0" d="M90.44180297851562 112.2152328491211 A154.9011688232422 154.9011688232422 0.0 0 1 74.12109375 113.06171417236328 A151.1046905517578 151.1046905517578 0.0 0 1 53.73046875 111.720703125 A2.34375 2.34375 0.0 0 0 53.09531021118164 116.365234375 A155.8292999267578 155.8292999267578 0.0 0 0 74.1226577758789 117.74921417236328 A159.466796875 159.466796875 0.0 0 0 90.9375 116.875 A2.34375 2.34375 0.0 0 0 90.44140625 112.21406555175781 L90.44180297851562 112.2152328491211 Z"></path>
<path fill="#0635c9" fill-opacity="1.0"  filling="0" d="M101.11601257324219 110.7484359741211 A7.000781536102295 7.000781536102295 0.0 1 0 108.11679077148438 103.74765014648438 A7.008593559265137 7.008593559265137 0.0 0 0 101.11601257324219 110.7484359741211 Z M110.4300765991211 110.7484359741211 A2.313281297683716 2.313281297683716 0.0 1 1 108.11679077148438 108.43515014648438 A2.3160154819488525 2.3160154819488525 0.0 0 1 110.42969512939453 110.7484359741211 L110.4300765991211 110.7484359741211 Z"></path>
<path fill="#0635c9" fill-opacity="1.0"  filling="0" d="M90.44180297851562 151.798828125 A154.7960968017578 154.7960968017578 0.0 0 1 74.12109375 152.6453094482422 A151.0625 151.0625 0.0 0 1 53.73046875 151.30429077148438 A2.34375 2.34375 0.0 0 0 53.09531021118164 155.94882202148438 A155.8546905517578 155.8546905517578 0.0 0 0 74.1226577758789 157.3328094482422 A159.4679718017578 159.4679718017578 0.0 0 0 90.939453125 156.4601593017578 A2.34375 2.34375 0.0 0 0 90.443359375 151.798828125 L90.44180297851562 151.798828125 Z"></path>
<path fill="#1ae5be" fill-opacity="1.0"  filling="0" d="M162.09530639648438 177.65625 A38.73945236206055 38.73945236206055 0.0 0 0 173.3671875 150.37930297851562 A2.334765672683716 2.334765672683716 0.0 0 0 171.0234375 148.04608154296875 L137.109375 148.04608154296875 L137.109375 114.12577819824219 A2.337890625 2.337890625 0.0 0 0 134.7726593017578 111.78202819824219 A38.35078048706055 38.35078048706055 0.0 0 0 107.45976257324219 123.08281707763672 A38.611328125 38.611328125 0.0 1 0 162.09530639648438 177.65625 Z M134.779296875 184.26953125 A33.90078353881836 33.90078353881836 0.0 0 1 132.421875 116.54804992675781 L132.421875 150.3699188232422 A2.3734376430511475 2.3734376430511475 0.0 0 0 134.779296875 152.734375 L168.59922790527344 152.734375 A33.791015625 33.791015625 0.0 0 1 134.779296875 184.2703094482422 L134.779296875 184.26953125 Z"></path>
<path fill="#1ae5be" fill-opacity="1.0"  filling="0" d="M175.515625 109.83280944824219 A38.97382736206055 38.97382736206055 0.0 0 0 148.1374969482422 98.560546875 A2.421875 2.421875 0.0 0 0 145.703125 100.904296875 L145.703125 137.1484375 C145.703125 138.4425811767578 146.93399047851562 139.453125 148.228515625 139.453125 L184.47265625 139.453125 A2.3273439407348633 2.3273439407348633 0.0 0 0 186.81640625 137.12890625 A38.74140548706055 38.74140548706055 0.0 0 0 175.54452514648438 109.8515625 C175.53515625 109.84375762939453 175.525390625 109.84375762939453 175.515625 109.83280944824219 Z M150.390625 134.765625 L150.390625 103.32891082763672 A34.11445236206055 34.11445236206055 0.0 0 1 172.125 113.14219665527344 C177.95742797851562 119.0835952758789 181.48985290527344 126.5625 182.046875 134.765625 L150.390625 134.765625 Z"></path></svg>