<svg xmlns="http://www.w3.org/2000/svg" viewBox="0.0 0.0 200.0 200.0" height="200.0px" width="200.0px"><path fill="#426175" fill-opacity="1.0"  filling="0" d="M158.0046844482422 176.48007202148438 L119.90975952148438 176.48007202148438 C118.2417984008789 176.48007202148438 116.89140319824219 175.1296844482422 116.89140319824219 173.46173095703125 C116.89140319824219 171.7957000732422 118.2417984008789 170.4453125 119.90975952148438 170.4453125 L158.0046844482422 170.4453125 C159.6710968017578 170.4453125 161.02304077148438 171.7957000732422 161.02304077148438 173.46173095703125 C161.02304077148438 175.1296844482422 159.6710968017578 176.48007202148438 158.0046844482422 176.48007202148438 Z"></path>
<path fill="#426175" fill-opacity="1.0"  filling="0" d="M82.04804992675781 176.48007202148438 L42.611717224121094 176.48007202148438 C40.945316314697266 176.48007202148438 39.593360900878906 175.1296844482422 39.593360900878906 173.46173095703125 C39.593360900878906 171.7957000732422 40.945316314697266 170.4453125 42.611717224121094 170.4453125 L82.04960632324219 170.4453125 C83.71562194824219 170.4453125 85.06640625 171.7957000732422 85.06640625 173.46173095703125 C85.06640625 175.1296844482422 83.71562194824219 176.48007202148438 82.04804992675781 176.48007202148438 Z"></path>
<path fill="#426175" fill-opacity="1.0"  filling="0" d="M100.056640625 162.97772216796875 C98.3902359008789 162.97772216796875 97.03828430175781 161.62734985351562 97.03828430175781 159.95938110351562 L97.03828430175781 131.52304077148438 C97.03828430175781 129.85546875 98.3902359008789 128.5050811767578 100.056640625 128.5050811767578 C101.72265625 128.5050811767578 103.0746078491211 129.85546875 103.0746078491211 131.52304077148438 L103.0746078491211 159.95938110351562 C103.0746078491211 161.62734985351562 101.72265625 162.97772216796875 100.056640625 162.97772216796875 Z"></path>
<path fill="#cdd6df" fill-opacity="1.0"  filling="0" d="M122.6546859741211 177.4015655517578 C122.6546859741211 189.88201904296875 112.53827667236328 200.0 100.056640625 200.0 C87.576171875 200.0 77.45820617675781 189.88201904296875 77.45820617675781 177.4015655517578 C77.45820617675781 164.919921875 87.576171875 154.8035125732422 100.056640625 154.8035125732422 C112.53827667236328 154.8035125732422 122.6546859741211 164.919921875 122.6546859741211 177.4015655517578 Z"></path>
<path fill="#426175" fill-opacity="1.0"  filling="0" d="M100.056640625 181.28671264648438 C92.37226867675781 181.28671264648438 86.13749694824219 187.486328125 86.076171875 195.1570281982422 C89.9214859008789 198.19024658203125 94.77851104736328 200.0 100.056640625 200.0 C105.33438110351562 200.0 110.19140625 198.19024658203125 114.03827667236328 195.1570281982422 C113.97539520263672 187.486328125 107.74063110351562 181.28671264648438 100.056640625 181.28671264648438 Z"></path>
<path fill="#426175" fill-opacity="1.0"  filling="0" d="M107.8812484741211 173.46173095703125 C107.8812484741211 177.783203125 104.37773132324219 181.28671264648438 100.056640625 181.28671264648438 C95.73515319824219 181.28671264648438 92.23164367675781 177.783203125 92.23164367675781 173.46173095703125 C92.23164367675781 169.140625 95.73515319824219 165.63711547851562 100.056640625 165.63711547851562 C104.37773132324219 165.63711547851562 107.8812484741211 169.140625 107.8812484741211 173.46173095703125 Z"></path>
<path fill="#cdd6df" fill-opacity="1.0"  filling="0" d="M199.72225952148438 177.4015655517578 C199.72225952148438 189.88201904296875 189.60586547851562 200.0 177.12420654296875 200.0 C164.6437530517578 200.0 154.52578735351562 189.88201904296875 154.52578735351562 177.4015655517578 C154.52578735351562 164.919921875 164.6437530517578 154.8035125732422 177.12420654296875 154.8035125732422 C189.60586547851562 154.8035125732422 199.72225952148438 164.919921875 199.72225952148438 177.4015655517578 Z"></path>
<path fill="#426175" fill-opacity="1.0"  filling="0" d="M177.12420654296875 181.28671264648438 C169.43984985351562 181.28671264648438 163.205078125 187.486328125 163.1437530517578 195.1570281982422 C166.99063110351562 198.19024658203125 171.84609985351562 200.0 177.12420654296875 200.0 C182.40194702148438 200.0 187.25897216796875 198.19024658203125 191.10546875 195.1570281982422 C191.04296875 187.486328125 184.80819702148438 181.28671264648438 177.12420654296875 181.28671264648438 Z"></path>
<path fill="#426175" fill-opacity="1.0"  filling="0" d="M184.94882202148438 173.46173095703125 C184.94882202148438 177.783203125 181.4453125 181.28671264648438 177.12420654296875 181.28671264648438 C172.802734375 181.28671264648438 169.29922485351562 177.783203125 169.29922485351562 173.46173095703125 C169.29922485351562 169.140625 172.802734375 165.63711547851562 177.12420654296875 165.63711547851562 C181.4453125 165.63711547851562 184.94882202148438 169.140625 184.94882202148438 173.46173095703125 Z"></path>
<path fill="#cdd6df" fill-opacity="1.0"  filling="0" d="M45.58711242675781 177.4015655517578 C45.58711242675781 189.88201904296875 35.470703125 200.0 22.98906707763672 200.0 C10.508598327636719 200.0 0.390625 189.88201904296875 0.390625 177.4015655517578 C0.390625 164.919921875 10.508598327636719 154.8035125732422 22.98906707763672 154.8035125732422 C35.470703125 154.8035125732422 45.58711242675781 164.919921875 45.58711242675781 177.4015655517578 Z"></path>
<path fill="#426175" fill-opacity="1.0"  filling="0" d="M22.95819854736328 181.28671264648438 C15.274223327636719 181.22695922851562 8.990631103515625 187.37655639648438 8.869918823242188 195.046875 C12.692192077636719 198.109375 17.533981323242188 199.95742797851562 22.81171417236328 199.99844360351562 C28.08984375 200.041015625 32.960548400878906 198.26797485351562 36.830078125 195.26678466796875 C36.82851791381836 187.59454345703125 30.642578125 181.34609985351562 22.95819854736328 181.28671264648438 Z"></path>
<path fill="#426175" fill-opacity="1.0"  filling="0" d="M30.844139099121094 173.46173095703125 C30.844139099121094 177.783203125 27.34062957763672 181.28671264648438 23.01953125 181.28671264648438 C18.69805145263672 181.28671264648438 15.194526672363281 177.783203125 15.194526672363281 173.46173095703125 C15.194526672363281 169.140625 18.69805145263672 165.63711547851562 23.01953125 165.63711547851562 C27.34062957763672 165.63711547851562 30.844139099121094 169.140625 30.844139099121094 173.46173095703125 Z"></path>
<path fill="#88dbfd" fill-opacity="1.0"  filling="0" d="M147.87890625 43.318355560302734 C146.43399047851562 43.318355560302734 145.0105438232422 43.40351867675781 143.6082000732422 43.56679916381836 C143.52890014648438 19.49140167236328 123.98828125 0.0 99.89453125 0.0 C82.82304382324219 0.0 68.0390625 9.788673400878906 60.84140396118164 24.057029724121094 C35.762107849121094 24.604690551757812 15.599212646484375 45.10507583618164 15.599212646484375 70.31562805175781 C15.599212646484375 95.87109375 36.31601333618164 116.587890625 61.87148666381836 116.587890625 L147.87890625 116.587890625 C168.11212158203125 116.587890625 184.513671875 100.18632507324219 184.513671875 79.953125 C184.513671875 59.71992111206055 168.11212158203125 43.318355560302734 147.87890625 43.318355560302734 Z"></path>
<path fill="#5abfe9" fill-opacity="1.0"  filling="0" d="M147.87890625 43.318355560302734 C146.43399047851562 43.318355560302734 145.0105438232422 43.40351867675781 143.6082000732422 43.56679916381836 C143.52890014648438 19.49140167236328 123.98828125 0.0 99.89453125 0.0 C90.1656265258789 0.0 81.1812515258789 3.1828079223632812 73.91952514648438 8.55859375 C75.083984375 8.465621948242188 76.25898742675781 8.413673400878906 77.44609069824219 8.413673400878906 C101.53945922851562 8.413673400878906 121.080078125 27.905471801757812 121.15937805175781 51.980472564697266 C122.56172180175781 51.81718444824219 123.98516082763672 51.732032775878906 125.43046569824219 51.732032775878906 C145.6632843017578 51.732032775878906 162.0652313232422 68.13359069824219 162.0652313232422 88.36679077148438 C162.0652313232422 99.71328735351562 156.90625 109.85546875 148.80389404296875 116.57577514648438 C168.60977172851562 116.0859375 184.513671875 99.8765640258789 184.513671875 79.953125 C184.513671875 59.71992111206055 168.11212158203125 43.318355560302734 147.87890625 43.318355560302734 Z"></path>
<path fill="#f2f2f2" fill-opacity="1.0"  filling="0" d="M137.19491577148438 81.0835952758789 L62.919532775878906 81.0835952758789 C60.16093444824219 81.0835952758789 57.925392150878906 78.84844207763672 57.925392150878906 76.09101867675781 L57.925392150878906 58.94609069824219 C57.925392150878906 56.18906021118164 60.16093444824219 53.95351791381836 62.919532775878906 53.95351791381836 L137.19491577148438 53.95351791381836 C139.95196533203125 53.95351791381836 142.1875 56.18906021118164 142.1875 58.94609069824219 L142.1875 76.09101867675781 C142.1875 78.84844207763672 139.95196533203125 81.0835952758789 137.19491577148438 81.0835952758789 Z"></path>
<path fill="#cdd6df" fill-opacity="1.0"  filling="0" d="M137.19491577148438 53.95351791381836 L119.73867797851562 53.95351791381836 L119.73867797851562 69.56796264648438 C119.73867797851562 72.32499694824219 117.50350952148438 74.5621109008789 114.7445297241211 74.5621109008789 L57.925392150878906 74.5621109008789 L57.925392150878906 76.09101867675781 C57.925392150878906 78.84844207763672 60.16093444824219 81.0835952758789 62.919532775878906 81.0835952758789 L137.19491577148438 81.0835952758789 C139.95196533203125 81.0835952758789 142.1875 78.84844207763672 142.1875 76.09101867675781 L142.1875 58.94609069824219 C142.1875 56.18906021118164 139.95196533203125 53.95351791381836 137.19491577148438 53.95351791381836 Z"></path>
<path fill="#f2f2f2" fill-opacity="1.0"  filling="0" d="M137.19491577148438 108.21524047851562 L62.919532775878906 108.21524047851562 C60.16093444824219 108.21524047851562 57.925392150878906 105.98007202148438 57.925392150878906 103.2210922241211 L57.925392150878906 86.07772827148438 C57.925392150878906 83.3207015991211 60.16093444824219 81.0835952758789 62.919532775878906 81.0835952758789 L137.19491577148438 81.0835952758789 C139.95196533203125 81.0835952758789 142.1875 83.3207015991211 142.1875 86.07772827148438 L142.1875 103.2210922241211 C142.1875 105.98007202148438 139.95196533203125 108.21524047851562 137.19491577148438 108.21524047851562 Z"></path>
<path fill="#cdd6df" fill-opacity="1.0"  filling="0" d="M137.19491577148438 81.0835952758789 L119.73867797851562 81.0835952758789 L119.73867797851562 96.6996078491211 C119.73867797851562 99.45663452148438 117.50350952148438 101.69218444824219 114.7445297241211 101.69218444824219 L57.925392150878906 101.69218444824219 L57.925392150878906 103.2210922241211 C57.925392150878906 105.98007202148438 60.16093444824219 108.21524047851562 62.919532775878906 108.21524047851562 L137.19491577148438 108.21524047851562 C139.95196533203125 108.21524047851562 142.1875 105.98007202148438 142.1875 103.2210922241211 L142.1875 86.07772827148438 C142.1875 83.3207015991211 139.95196533203125 81.0835952758789 137.19491577148438 81.0835952758789 Z"></path>
<path fill="#f2f2f2" fill-opacity="1.0"  filling="0" d="M137.19491577148438 135.34530639648438 L62.919532775878906 135.34530639648438 C60.16093444824219 135.34530639648438 57.925392150878906 133.1101531982422 57.925392150878906 130.3527374267578 L57.925392150878906 113.20938110351562 C57.925392150878906 110.4507827758789 60.16093444824219 108.21524047851562 62.919532775878906 108.21524047851562 L137.19491577148438 108.21524047851562 C139.95196533203125 108.21524047851562 142.1875 110.4507827758789 142.1875 113.20938110351562 L142.1875 130.3527374267578 C142.1875 133.1101531982422 139.95196533203125 135.34530639648438 137.19491577148438 135.34530639648438 Z"></path>
<path fill="#cdd6df" fill-opacity="1.0"  filling="0" d="M137.19491577148438 108.21524047851562 L119.73867797851562 108.21524047851562 L119.73867797851562 123.8296890258789 C119.73867797851562 126.58710479736328 117.50350952148438 128.822265625 114.7445297241211 128.822265625 L57.925392150878906 128.822265625 L57.925392150878906 130.3527374267578 C57.925392150878906 133.1101531982422 60.16093444824219 135.34530639648438 62.919532775878906 135.34530639648438 L137.19491577148438 135.34530639648438 C139.95196533203125 135.34530639648438 142.1875 133.1101531982422 142.1875 130.3527374267578 L142.1875 113.20819854736328 C142.1875 110.4507827758789 139.95196533203125 108.21524047851562 137.19491577148438 108.21524047851562 Z"></path>
<path fill="#fd715c" fill-opacity="1.0"  filling="0" d="M74.9222640991211 66.70703125 C74.9222640991211 68.72578430175781 73.28633117675781 70.3597640991211 71.2691421508789 70.3597640991211 C69.251953125 70.3597640991211 67.61640930175781 68.72578430175781 67.61640930175781 66.70703125 C67.61640930175781 64.689453125 69.251953125 63.05390548706055 71.2691421508789 63.05390548706055 C73.28633117675781 63.05390548706055 74.9222640991211 64.689453125 74.9222640991211 66.70703125 Z"></path>
<path fill="#fd715c" fill-opacity="1.0"  filling="0" d="M89.37226867675781 66.70703125 C89.37226867675781 68.72578430175781 87.736328125 70.3597640991211 85.7191390991211 70.3597640991211 C83.70038604736328 70.3597640991211 82.06640625 68.72578430175781 82.06640625 66.70703125 C82.06640625 64.689453125 83.70038604736328 63.05390548706055 85.7191390991211 63.05390548706055 C87.736328125 63.05390548706055 89.37226867675781 64.689453125 89.37226867675781 66.70703125 Z"></path>
<path fill="#fd715c" fill-opacity="1.0"  filling="0" d="M74.9222640991211 94.650390625 C74.9222640991211 96.66757202148438 73.28633117675781 98.30313110351562 71.2691421508789 98.30313110351562 C69.251953125 98.30313110351562 67.61640930175781 96.66757202148438 67.61640930175781 94.650390625 C67.61640930175781 92.63163757324219 69.251953125 90.9957046508789 71.2691421508789 90.9957046508789 C73.28633117675781 90.9957046508789 74.9222640991211 92.63163757324219 74.9222640991211 94.650390625 Z"></path>
<path fill="#fd715c" fill-opacity="1.0"  filling="0" d="M89.37226867675781 94.650390625 C89.37226867675781 96.66757202148438 87.736328125 98.30313110351562 85.7191390991211 98.30313110351562 C83.70038604736328 98.30313110351562 82.06640625 96.66757202148438 82.06640625 94.650390625 C82.06640625 92.63163757324219 83.70038604736328 90.9957046508789 85.7191390991211 90.9957046508789 C87.736328125 90.9957046508789 89.37226867675781 92.63163757324219 89.37226867675781 94.650390625 Z"></path>
<path fill="#fd715c" fill-opacity="1.0"  filling="0" d="M74.9222640991211 121.78047180175781 C74.9222640991211 123.79765319824219 73.28633117675781 125.4332046508789 71.2691421508789 125.4332046508789 C69.251953125 125.4332046508789 67.61640930175781 123.79765319824219 67.61640930175781 121.78047180175781 C67.61640930175781 119.76327514648438 69.251953125 118.12734985351562 71.2691421508789 118.12734985351562 C73.28633117675781 118.12734985351562 74.9222640991211 119.76327514648438 74.9222640991211 121.78047180175781 Z"></path>
<path fill="#fd715c" fill-opacity="1.0"  filling="0" d="M89.37226867675781 121.78047180175781 C89.37226867675781 123.79765319824219 87.736328125 125.4332046508789 85.7191390991211 125.4332046508789 C83.70038604736328 125.4332046508789 82.06640625 123.79765319824219 82.06640625 121.78047180175781 C82.06640625 119.76327514648438 83.70038604736328 118.12734985351562 85.7191390991211 118.12734985351562 C87.736328125 118.12734985351562 89.37226867675781 119.76327514648438 89.37226867675781 121.78047180175781 Z"></path></svg>