<svg xmlns="http://www.w3.org/2000/svg" viewBox="0.0 0.0 200.0 200.0" height="200.0px" width="200.0px"><path fill="#f6ee86" fill-opacity="1.0"  filling="0" d="M188.98944091796875 37.92265701293945 C192.65118408203125 31.83984375 191.880859375 23.849998474121094 186.66055297851562 18.63007354736328 C181.4406280517578 13.409767150878906 173.45037841796875 12.639450073242188 167.36798095703125 16.301170349121094 C147.8445281982422 6.326560974121094 127.87226867675781 15.95703125 113.71133422851562 30.11835479736328 C99.5503921508789 44.279300689697266 89.919921875 64.25155639648438 99.8941421508789 83.7750015258789 C96.232421875 89.8578109741211 97.00273132324219 97.84765625 102.22305297851562 103.06757354736328 C107.443359375 108.2874984741211 115.4332046508789 109.05819702148438 121.51561737060547 105.396484375 C141.0390625 115.37109375 161.01132202148438 105.74063110351562 175.17227172851562 91.57929229736328 C189.33319091796875 77.4183578491211 198.96405029296875 57.44609069824219 188.98944091796875 37.92265701293945 Z"></path>
<path fill="#efd176" fill-opacity="1.0"  filling="0" d="M122.4996109008789 22.546478271484375 C119.38436889648438 24.830856323242188 116.439453125 27.38983917236328 113.7109375 30.11835479736328 C99.55000305175781 44.279300689697266 89.9195327758789 64.25155639648438 99.89374542236328 83.7750015258789 C96.2320327758789 89.8578109741211 97.0023422241211 97.84765625 102.22265625 103.06757354736328 C107.44296264648438 108.2874984741211 115.43280792236328 109.05819702148438 121.5152359008789 105.396484375 C136.8992156982422 113.25625610351562 152.56094360351562 108.9417953491211 165.43984985351562 99.83085632324219 C111.83203125 97.634765625 111.5570297241211 44.97500228881836 122.4996109008789 22.546478271484375 Z"></path>
<path fill="#efd176" fill-opacity="1.0"  filling="0" d="M155.90234375 87.81094360351562 A3.016796827316284 3.016796827316284 0.0 1 1 149.86874389648438 87.81094360351562 A3.016796827316284 3.016796827316284 0.0 1 1 155.90234375 87.81094360351562 Z"></path>
<path fill="#efd176" fill-opacity="1.0"  filling="0" d="M170.46835327148438 80.28202819824219 A3.016406297683716 3.016406297683716 0.0 1 1 164.435546875 80.28202819824219 A3.016406297683716 3.016406297683716 0.0 1 1 170.46835327148438 80.28202819824219 Z"></path>
<path fill="#efd176" fill-opacity="1.0"  filling="0" d="M125.08633422851562 43.40703582763672 A3.016406297683716 3.016406297683716 0.0 1 1 119.05352020263672 43.40703582763672 A3.016406297683716 3.016406297683716 0.0 1 1 125.08633422851562 43.40703582763672 Z"></path>
<path fill="#8de1ce" fill-opacity="1.0"  filling="0" d="M114.845703125 101.45077514648438 C110.54100799560547 103.1421890258789 105.56640625 103.0746078491211 105.56640625 92.64570617675781 C105.56640625 87.5191421508789 103.52149200439453 82.861328125 100.20429992675781 79.44453430175781 C102.60897827148438 76.2660140991211 104.03672790527344 72.30976867675781 104.03672790527344 68.02616882324219 C104.03672790527344 63.742576599121094 102.60897827148438 59.78632736206055 100.20429992675781 56.607810974121094 C103.52149200439453 53.19140625 105.56640625 48.533203125 105.56640625 43.40664291381836 C105.56640625 32.95038604736328 97.05976867675781 24.443748474121094 86.603515625 24.443748474121094 L65.85624694824219 24.443748474121094 C60.42538833618164 24.443748474121094 55.52031326293945 26.73828125 52.060157775878906 30.40937042236328 C46.90547180175781 26.388282775878906 40.425777435302734 23.990234375 33.396873474121094 23.990234375 L18.962890625 23.990234375 C8.506645202636719 23.990623474121094 0.0 32.49726104736328 0.0 42.953121185302734 L0.0 92.64570617675781 C0.0 97.65351104736328 2.03515625 102.55156707763672 5.582420349121094 106.08280944824219 C7.338676452636719 107.83202362060547 9.378120422363281 109.1953125 11.596481323242188 110.13008117675781 C7.4226531982421875 114.50782012939453 4.64453125 120.07539367675781 3.7550811767578125 126.27539825439453 C2.7171859741210938 133.50820922851562 4.381248474121094 140.56680297851562 8.236328125 146.3171844482422 C7.778129577636719 146.66250610351562 7.333984375 147.029296875 6.9050750732421875 147.41796875 C3.1519546508789062 150.8191375732422 0.9480438232421875 155.478515625 0.6996078491210938 160.5378875732422 C0.45078277587890625 165.5968780517578 2.1871109008789062 170.4499969482422 5.588279724121094 174.203125 C13.303123474121094 182.71563720703125 25.029296875 187.7976531982422 36.95585632324219 187.7976531982422 C43.06914138793945 187.7976531982422 48.83476638793945 186.296875 53.81913757324219 183.63829040527344 C55.31953048706055 184.84140014648438 57.02851486206055 185.83358764648438 58.919532775878906 186.5535125732422 C61.08554458618164 187.3796844482422 63.35820388793945 187.79843139648438 65.67343139648438 187.79843139648438 C73.486328125 187.79843139648438 80.6050796508789 182.89532470703125 83.39140319824219 175.59609985351562 L87.1917953491211 175.59609985351562 C89.978515625 182.89804077148438 97.0894546508789 187.79843139648438 104.90898132324219 187.79843139648438 C107.20000457763672 187.79843139648438 109.4507827758789 187.3878936767578 111.60469055175781 186.576171875 C112.5992202758789 186.20077514648438 113.5445327758789 185.75 114.4351577758789 185.2332000732422 C116.89881896972656 186.40625 119.65351104736328 187.06289672851562 122.55937957763672 187.06289672851562 C132.3644561767578 187.06289672851562 140.45547485351562 179.58203125 141.4250030517578 170.02813720703125 C142.39453125 179.58203125 150.4855499267578 187.06289672851562 160.29061889648438 187.06289672851562 L181.0378875732422 187.06289672851562 C191.494140625 187.06289672851562 200.00079345703125 178.55624389648438 200.00079345703125 168.10000610351562 C200.00079345703125 162.9734344482422 197.9558563232422 158.3152313232422 194.638671875 154.89881896972656 C197.04336547851562 151.72030639648438 198.470703125 147.76406860351562 198.470703125 143.48046875 C198.470703125 139.19686889648438 197.04296875 135.240234375 194.638671875 132.06211853027344 C197.9558563232422 128.6457061767578 200.00079345703125 123.98749542236328 200.00079345703125 118.86093139648438 C200.00079345703125 108.4046859741211 191.494140625 99.8980484008789 181.0378875732422 99.8980484008789 L160.29061889648438 99.8980484008789 C157.12265014648438 99.8980484008789 154.1339874267578 100.67890930175781 151.50624084472656 102.0582046508789 C148.837890625 100.623046875 145.7890625 99.8082046508789 142.552734375 99.8082046508789 L122.55859375 99.8082046508789 C119.81366729736328 99.80859375 117.20350646972656 100.3968734741211 114.845703125 101.45077514648438 Z"></path>
<path fill="#6a95d6" fill-opacity="1.0"  filling="0" d="M86.6039047241211 89.71601867675781 L68.78633117675781 89.71601867675781 L68.78633117675781 70.95585632324219 L85.07421875 70.95585632324219 C86.69219207763672 70.95585632324219 88.00390625 69.6441421508789 88.00390625 68.02616882324219 C88.00390625 66.408203125 86.69219207763672 65.09648132324219 85.07421875 65.09648132324219 L68.78633117675781 65.09648132324219 L68.78633117675781 46.33633041381836 L86.6039047241211 46.33633041381836 C88.22187805175781 46.33633041381836 89.5335922241211 45.02460861206055 89.5335922241211 43.40664291381836 C89.5335922241211 41.788673400878906 88.22187805175781 40.47695541381836 86.6039047241211 40.47695541381836 L65.85664367675781 40.47695541381836 C64.23867797851562 40.47695541381836 62.92695236206055 41.788673400878906 62.92695236206055 43.40664291381836 L62.92695236206055 92.64570617675781 C62.92695236206055 94.263671875 64.23867797851562 95.57539367675781 65.85664367675781 95.57539367675781 L86.6039047241211 95.57539367675781 C88.22187805175781 95.57539367675781 89.5335922241211 94.263671875 89.5335922241211 92.64570617675781 C89.5335922241211 91.02774047851562 88.22187805175781 89.71601867675781 86.6039047241211 89.71601867675781 Z"></path>
<path fill="#6a95d6" fill-opacity="1.0"  filling="0" d="M43.36679458618164 64.71367645263672 C46.07304382324219 62.099998474121094 47.76132583618164 58.43828201293945 47.76132583618164 54.38749694824219 C47.76132583618164 46.467185974121094 41.31758117675781 40.023433685302734 33.39727020263672 40.023433685302734 L18.962890625 40.023433685302734 C17.344924926757812 40.023433685302734 16.033203125 41.33515167236328 16.033203125 42.953121185302734 L16.033203125 92.64570617675781 C16.033203125 94.234375 17.312110900878906 95.57539367675781 18.975784301757812 95.57539367675781 C19.108596801757812 95.57499694824219 32.303123474121094 95.51641082763672 35.918357849121094 95.51641082763672 C44.90937423706055 95.51641082763672 52.22382354736328 88.20195007324219 52.22382354736328 79.2109375 C52.22343826293945 72.90312194824219 48.62070083618164 67.42422485351562 43.36679458618164 64.71367645263672 Z M21.892578125 45.882808685302734 L33.39727020263672 45.882808685302734 C38.08671951293945 45.882808685302734 41.90195083618164 49.69804382324219 41.90195083618164 54.38749694824219 C41.90195083618164 59.07695388793945 38.08671951293945 62.89218521118164 33.39727020263672 62.89218521118164 C32.221092224121094 62.89218521118164 37.65859603881836 62.88554763793945 21.892578125 62.90546798706055 L21.892578125 45.882808685302734 Z M35.918357849121094 89.65702819824219 C33.358985900878906 89.65702819824219 26.033592224121094 89.68632507324219 21.892578125 89.70352172851562 L21.892578125 68.7894515991211 C33.336326599121094 68.74140930175781 27.473831176757812 68.77655792236328 35.918357849121094 68.76483917236328 C41.67851257324219 68.76483917236328 46.36444854736328 73.451171875 46.36444854736328 79.2109375 C46.36406326293945 84.9710922241211 41.678123474121094 89.65702819824219 35.918357849121094 89.65702819824219 Z"></path>
<path fill="#fff" fill-opacity="1.0"  filling="0" d="M107.6488265991211 167.80078125 L89.15898132324219 118.80586242675781 C89.1488265991211 118.7789077758789 89.1382827758789 118.751953125 89.1273422241211 118.72539520263672 C88.49922180175781 117.19844055175781 87.02734375 116.2125015258789 85.37655639648438 116.2125015258789 C85.37539672851562 116.2125015258789 85.37383270263672 116.2125015258789 85.3726577758789 116.2125015258789 C83.7203140258789 116.21406555175781 82.2484359741211 117.20350646972656 81.62226867675781 118.7328109741211 C81.61328125 118.75508117675781 81.60429382324219 118.77734375 81.5960922241211 118.79961395263672 L62.93671798706055 167.7921905517578 C62.36093521118164 169.30429077148438 63.119529724121094 170.99688720703125 64.63163757324219 171.57266235351562 C66.13711547851562 172.146484375 67.83438110351562 171.39532470703125 68.412109375 169.8777313232422 L72.34062194824219 159.56288146972656 L98.27734375 159.56288146972656 L102.16679382324219 169.869140625 C102.7378921508789 171.38243103027344 104.427734375 172.1472625732422 105.94219207763672 171.57577514648438 C107.45625305175781 171.0050811767578 108.2203140258789 169.314453125 107.6488265991211 167.80078125 Z M74.57266235351562 153.70350646972656 L85.3687515258789 125.3570327758789 L96.06640625 153.70350646972656 L74.57266235351562 153.70350646972656 Z"></path>
<path fill="#fff" fill-opacity="1.0"  filling="0" d="M142.5519561767578 121.701171875 C144.169921875 121.701171875 145.4816436767578 120.38945007324219 145.4816436767578 118.771484375 C145.4816436767578 117.15351104736328 144.169921875 115.841796875 142.5519561767578 115.841796875 L122.55859375 115.841796875 C120.94062805175781 115.841796875 119.62890625 117.15351104736328 119.62890625 118.771484375 L119.62890625 168.10000610351562 C119.62890625 169.71795654296875 120.94062805175781 171.02969360351562 122.55859375 171.02969360351562 C124.17655944824219 171.02969360351562 125.48828125 169.71795654296875 125.48828125 168.10000610351562 L125.48828125 145.8984375 L140.9636688232422 145.8984375 C142.58163452148438 145.8984375 143.8933563232422 144.5867156982422 143.8933563232422 142.96875 C143.8933563232422 141.3507843017578 142.58163452148438 140.0390625 140.9636688232422 140.0390625 L125.48828125 140.0390625 L125.48828125 121.701171875 L142.5519561767578 121.701171875 Z"></path>
<path fill="#fff" fill-opacity="1.0"  filling="0" d="M181.037109375 165.17031860351562 L163.21954345703125 165.17031860351562 L163.21954345703125 146.41015625 L179.50741577148438 146.41015625 C181.12539672851562 146.41015625 182.43710327148438 145.0984344482422 182.43710327148438 143.48046875 C182.43710327148438 141.8625030517578 181.12539672851562 140.55078125 179.50741577148438 140.55078125 L163.21954345703125 140.55078125 L163.21954345703125 121.79061889648438 L181.037109375 121.79061889648438 C182.6550750732422 121.79061889648438 183.966796875 120.4789047241211 183.966796875 118.86093139648438 C183.966796875 117.24296569824219 182.6550750732422 115.9312515258789 181.037109375 115.9312515258789 L160.28985595703125 115.9312515258789 C158.671875 115.9312515258789 157.36016845703125 117.24296569824219 157.36016845703125 118.86093139648438 L157.36016845703125 168.10000610351562 C157.36016845703125 169.71795654296875 158.671875 171.02969360351562 160.28985595703125 171.02969360351562 L181.037109375 171.02969360351562 C182.6550750732422 171.02969360351562 183.966796875 169.71795654296875 183.966796875 168.10000610351562 C183.966796875 166.48202514648438 182.6550750732422 165.17031860351562 181.037109375 165.17031860351562 Z"></path>
<path fill="#fff" fill-opacity="1.0"  filling="0" d="M36.95585632324219 171.76483154296875 C29.47930145263672 171.76483154296875 22.194137573242188 168.65155029296875 17.468353271484375 163.4367218017578 C16.381637573242188 162.23789978027344 16.473045349121094 160.384765625 17.671875 159.29843139648438 C18.87109375 158.2117156982422 20.723831176757812 158.30313110351562 21.810157775878906 159.501953125 C25.444137573242188 163.51171875 31.10625457763672 165.90585327148438 36.95624923706055 165.90585327148438 C43.72421646118164 165.90585327148438 48.14453125 161.60116577148438 48.867576599121094 157.55078125 C49.63905715942383 153.23086547851562 46.500389099121094 149.4328155517578 40.25741958618164 147.12969970703125 C33.86601257324219 144.7722625732422 25.816009521484375 141.3644561767578 25.21484375 140.97305297851562 C16.12383270263672 135.04571533203125 17.9765625 120.73711395263672 29.990234375 117.11836242675781 C41.88554382324219 113.53515625 51.73867416381836 121.66093444824219 52.151954650878906 122.00859832763672 C53.390621185302734 123.04960632324219 53.55078125 124.89805603027344 52.50937271118164 126.13632202148438 C51.46992111206055 127.373046875 49.626564025878906 127.53477478027344 48.38788986206055 126.49922180175781 C48.25468826293945 126.38984680175781 40.46367263793945 120.08319854736328 31.6796875 122.728515625 C24.426956176757812 124.91328430175781 23.602340698242188 132.7238311767578 28.234771728515625 135.943359375 C29.476173400878906 136.49061584472656 35.629295349121094 139.1769561767578 42.28515625 141.6320343017578 C46.88632583618164 143.3292999267578 50.30781173706055 145.76016235351562 52.45468521118164 148.857421875 C54.49258041381836 151.796875 55.24687957763672 155.1589813232422 54.63593673706055 158.58047485351562 C53.293357849121094 166.0968780517578 45.692970275878906 171.76483154296875 36.95585632324219 171.76483154296875 Z"></path>
<path fill="#eda1ab" fill-opacity="1.0"  filling="0" d="M133.64178466796875 77.18632507324219 C137.31484985351562 80.859375 136.55311584472656 87.576171875 131.9406280517578 92.18867492675781 C127.328125 96.8011703491211 120.61133575439453 97.5628890991211 116.93827819824219 93.88945007324219 C113.26524353027344 90.21640014648438 114.02655792236328 83.4996109008789 118.63906860351562 78.88711547851562 C123.25155639648438 74.27461242675781 129.96835327148438 73.51288604736328 133.64178466796875 77.18632507324219 Z"></path>
<path fill="#eda1ab" fill-opacity="1.0"  filling="0" d="M178.9171905517578 31.919525146484375 C182.59024047851562 35.59258270263672 181.82852172851562 42.30937194824219 177.2160186767578 46.921875 C172.603515625 51.53437423706055 165.88671875 52.29609680175781 162.2136688232422 48.623050689697266 C158.54063415527344 44.949607849121094 159.30194091796875 38.23281478881836 163.91445922851562 33.62030792236328 C168.52694702148438 29.0078125 175.24374389648438 28.246482849121094 178.9171905517578 31.919525146484375 Z"></path>
<path fill="#4e5660" fill-opacity="1.0"  filling="0" d="M121.70547485351562 76.33319854736328 L118.2906265258789 72.91874694824219 C117.146484375 71.77461242675781 117.146484375 69.919921875 118.2906265258789 68.775390625 C119.43476104736328 67.63125610351562 121.28984832763672 67.630859375 122.4339828491211 68.775390625 L125.84883117675781 72.1898422241211 C126.99296569824219 73.333984375 126.99296569824219 75.18867492675781 125.84883117675781 76.33280944824219 C124.70468139648438 77.47695922851562 122.849609375 77.47734069824219 121.70547485351562 76.33319854736328 Z"></path>
<path fill="#4e5660" fill-opacity="1.0"  filling="0" d="M157.2449188232422 40.79375457763672 L153.83047485351562 37.37929916381836 C152.68634033203125 36.23515319824219 152.68634033203125 34.38008117675781 153.83047485351562 33.236328125 C154.974609375 32.092193603515625 156.82968139648438 32.092193603515625 157.9734344482422 33.236328125 L161.3878936767578 36.65077590942383 C162.5320281982422 37.794921875 162.5320281982422 39.64999771118164 161.3878936767578 40.79375457763672 C160.244140625 41.937889099121094 158.38906860351562 41.937889099121094 157.2449188232422 40.79375457763672 Z"></path>
<path fill="#4e5660" fill-opacity="1.0"  filling="0" d="M136.55938720703125 63.998050689697266 C134.9453125 63.887107849121094 133.7265625 62.488670349121094 133.83749389648438 60.87421798706055 C133.94842529296875 59.260154724121094 135.3425750732422 58.03866958618164 136.96133422851562 58.15234375 C138.65234375 58.27070617675781 140.3117218017578 57.64960479736328 141.5078125 56.45273208618164 C142.7042999267578 55.25664138793945 143.32342529296875 53.599220275878906 143.20742797851562 51.90547180175781 C143.0964813232422 50.29140853881836 144.3156280517578 48.892967224121094 145.9296875 48.78203201293945 C147.54063415527344 48.66875457763672 148.9421844482422 49.88984298706055 149.05311584472656 51.504295349121094 C149.28515625 54.88788986206055 148.04531860351562 58.20195007324219 145.6511688232422 60.595703125 C143.26016235351562 62.98710632324219 139.9484405517578 64.2300796508789 136.55938720703125 63.998050689697266 Z"></path></svg>