<svg xmlns="http://www.w3.org/2000/svg" viewBox="0.0 0.0 200.0 200.0" height="200.0px" width="200.0px"><path fill="#ffe781" fill-opacity="1.0"  filling="0" d="M187.5046844482422 80.69453430175781 C188.6320343017578 86.3984375 195.99609375 93.9683609008789 195.99609375 100.0 C195.99609375 106.0347671508789 188.6320343017578 113.609375 187.5046844482422 119.31289672851562 C186.34335327148438 125.18319702148438 191.12109375 132.82772827148438 188.88241577148438 138.23086547851562 C186.60116577148438 143.73007202148438 177.7921905517578 145.74569702148438 174.52383422851562 150.63320922851562 C171.2265625 155.5617218017578 172.71133422851562 164.4609375 168.53475952148438 168.63711547851562 C164.3601531982422 172.8117218017578 155.4609375 171.3195343017578 150.53085327148438 174.62460327148438 C145.6453094482422 177.89453125 143.62930297851562 186.69882202148438 138.12850952148438 188.98007202148438 C132.72695922851562 191.21875 125.0824203491211 186.44570922851562 119.20780944824219 187.60977172851562 C113.50390625 188.734375 105.93399047851562 196.09375 99.90234375 196.09375 C93.8675765991211 196.09375 86.29296875 188.734375 80.5894546508789 187.60977172851562 C74.71914672851562 186.44570922851562 67.0746078491211 191.21875 61.67148208618164 188.98007202148438 C56.172264099121094 186.69882202148438 54.15664291381836 177.89453125 49.26913833618164 174.62460327148438 C44.34062194824219 171.3195343017578 35.44141387939453 172.8117218017578 31.265235900878906 168.63711547851562 C27.090621948242188 164.4578094482422 28.582809448242188 155.55429077148438 25.277732849121094 150.63320922851562 C22.0078125 145.74569702148438 13.203514099121094 143.73007202148438 10.922264099121094 138.23086547851562 C8.68359375 132.82772827148438 13.456642150878906 125.18319702148438 12.292572021484375 119.31289672851562 C11.16796875 113.609375 3.80859375 106.0347671508789 3.80859375 100.0 C3.80859375 93.9683609008789 11.16796875 86.3984375 12.292572021484375 80.69453430175781 C13.456642150878906 74.8199234008789 8.68359375 67.1796875 10.922264099121094 61.77383041381836 C13.203514099121094 56.273048400878906 22.0078125 54.25703048706055 25.277732849121094 49.371482849121094 C28.582809448242188 44.441402435302734 27.090621948242188 35.54219055175781 31.265235900878906 31.367576599121094 C35.44453430175781 27.191017150878906 44.34804916381836 28.67578125 49.26913833618164 25.38282012939453 C54.15664291381836 22.11016082763672 56.172264099121094 13.301170349121094 61.67148208618164 11.019920349121094 C67.0746078491211 8.78125 74.71914672851562 13.558982849121094 80.5894546508789 12.397659301757812 C86.29296875 11.270317077636719 93.8675765991211 3.90625 99.90234375 3.90625 C105.93399047851562 3.90625 113.50390625 11.270317077636719 119.20780944824219 12.397659301757812 C125.0824203491211 13.558982849121094 132.72695922851562 8.78125 138.12850952148438 11.019920349121094 C143.62930297851562 13.301170349121094 145.6453094482422 22.11016082763672 150.53085327148438 25.38282012939453 C155.4609375 28.67578125 164.3601531982422 27.191017150878906 168.53475952148438 31.367576599121094 C172.71133422851562 35.54219055175781 171.2265625 44.441402435302734 174.52383422851562 49.371482849121094 C177.7921905517578 54.25703048706055 186.60116577148438 56.273048400878906 188.88241577148438 61.77383041381836 C191.12109375 67.1796875 186.34335327148438 74.8199234008789 187.5046844482422 80.69453430175781 Z"></path>
<path fill="#e87288" fill-opacity="1.0"  filling="0" d="M172.54336547851562 100.0 C172.54336547851562 61.23046875 138.65664672851562 27.34375 99.8871078491211 27.34375 C61.117576599121094 27.34375 27.230857849121094 61.23046875 27.230857849121094 100.0 C27.230857849121094 138.76953125 61.117576599121094 172.65625 99.8871078491211 172.65625 C138.65664672851562 172.65625 172.54336547851562 138.76953125 172.54336547851562 100.0 Z"></path>
<path fill="#ffe781" fill-opacity="1.0"  filling="0" d="M135.0281219482422 94.6488265991211 L117.41796875 111.81172180175781 L121.57421875 136.05038452148438 L99.8125 124.60469055175781 L78.0472640991211 136.05038452148438 L82.2035140991211 111.81172180175781 L64.59335327148438 94.6488265991211 L88.9296875 91.11328125 L99.8125 69.0628890991211 L110.6917953491211 91.11328125 L135.0281219482422 94.6488265991211 Z"></path>
<path fill="" fill-opacity="1.0"  filling="0" d="M42.953514099121094 103.90625 C40.79726791381836 103.90625 39.047264099121094 105.65625762939453 39.047264099121094 107.8125 C39.047264099121094 109.96875 40.79726791381836 111.71875 42.953514099121094 111.71875 C45.109378814697266 111.71875 46.859764099121094 109.96875 46.859764099121094 107.8125 C46.859764099121094 105.65625762939453 45.109378814697266 103.90625 42.953514099121094 103.90625 Z"></path>
<path fill="" fill-opacity="1.0"  filling="0" d="M191.43359375 79.939453125 C191.06289672851562 78.06562805175781 191.69766235351562 75.36640930175781 192.30938720703125 72.7554702758789 C193.234375 68.8203125 194.279296875 64.36172485351562 192.58868408203125 60.276954650878906 C190.86288452148438 56.118751525878906 186.92617797851562 53.68672180175781 183.4519500732422 51.541019439697266 C181.20742797851562 50.154296875 178.884765625 48.71991729736328 177.86874389648438 47.20000076293945 C176.82968139648438 45.646488189697266 176.38241577148438 42.93203353881836 175.95233154296875 40.30781555175781 C175.29452514648438 36.300777435302734 174.54843139648438 31.758201599121094 171.39453125 28.604293823242188 C168.240234375 25.45000457763672 163.69610595703125 24.705467224121094 159.689453125 24.047653198242188 C157.06484985351562 23.617576599121094 154.35195922851562 23.171875 152.80313110351562 22.137496948242188 C151.28009033203125 21.117965698242188 149.84725952148438 18.79570770263672 148.46054077148438 16.54961395263672 C146.31329345703125 13.075386047363281 143.88125610351562 9.135543823242188 139.72186279296875 7.411323547363281 C135.6398468017578 5.719146728515625 131.18124389648438 6.765625 127.2476577758789 7.689064025878906 C124.63516235351562 8.302345275878906 121.93437957763672 8.935546875 120.0621109008789 8.56640625 C118.19921875 8.196868896484375 115.51835632324219 6.600776672363281 112.92578125 5.056640625 C108.75234985351562 2.5710906982421875 104.43555450439453 0.0 100.0 0.0 C95.56132507324219 0.0 91.24296569824219 2.5710906982421875 87.06680297851562 5.056640625 C84.4742202758789 6.600776672363281 81.79336547851562 8.196868896484375 79.9300765991211 8.56640625 C78.05937194824219 8.935546875 75.36015319824219 8.302345275878906 72.74922180175781 7.689064025878906 C68.8140640258789 6.765625 64.35546875 5.719146728515625 60.27226257324219 7.411323547363281 C56.11405944824219 9.137115478515625 53.682029724121094 13.075386047363281 51.535152435302734 16.54961395263672 C50.14960861206055 18.79570770263672 48.715232849121094 21.117965698242188 47.195316314697266 22.135940551757812 C45.646488189697266 23.171875 42.93359375 23.617576599121094 40.30898666381836 24.047653198242188 C36.300777435302734 24.705467224121094 31.758201599121094 25.451568603515625 28.601165771484375 28.60547637939453 C25.45000457763672 31.756637573242188 24.705467224121094 36.294532775878906 24.047653198242188 40.29999923706055 C23.617576599121094 42.926170349121094 23.171875 45.64218521118164 22.12812042236328 47.19844055175781 C21.110549926757812 48.72148132324219 18.78984832763672 50.154296875 16.544921875 51.541019439697266 C13.072265625 53.687889099121094 9.135543823242188 56.118751525878906 7.411323547363281 60.279685974121094 C5.720703125 64.36172485351562 6.764060974121094 68.8187484741211 7.685935974121094 72.75077819824219 C8.297660827636719 75.3617172241211 8.930862426757812 78.0625 8.55859375 79.939453125 C8.191009521484375 81.80390930175781 6.594917297363281 84.48477172851562 5.05078125 87.07890319824219 C2.5679702758789062 91.251953125 0.0 95.56562042236328 0.0 100.0 C0.0 104.4371109008789 2.5679702758789062 108.75390625 5.052345275878906 112.92890167236328 C6.594917297363281 115.52265930175781 8.191009521484375 118.20390319824219 8.55859375 120.07304382324219 C8.929290771484375 121.9437484741211 8.297660827636719 124.64453125 7.685935974121094 127.25508117675781 C6.764060974121094 131.18905639648438 5.720703125 135.64608764648438 7.411323547363281 139.72616577148438 C9.137115478515625 143.88592529296875 13.072265625 146.31640625 16.544921875 148.46328735351562 C18.78984832763672 149.8488311767578 21.110549926757812 151.283203125 22.1328125 152.810546875 C23.171875 154.359375 23.619140625 157.0753936767578 24.049224853515625 159.70156860351562 C24.705467224121094 163.70547485351562 25.45000457763672 168.2433624267578 28.601165771484375 171.39883422851562 C31.753517150878906 174.54998779296875 36.29140853881836 175.29452514648438 40.29531478881836 175.95233154296875 C42.92304611206055 176.38241577148438 45.639060974121094 176.828125 47.195316314697266 177.8718719482422 C48.716796875 178.8894500732422 50.15116882324219 181.2101593017578 51.53788757324219 183.455078125 C53.683589935302734 186.927734375 56.11562728881836 190.86288452148438 60.275386810302734 192.58868408203125 C64.35391235351562 194.279296875 68.81094360351562 193.234375 72.74492645263672 192.31405639648438 C75.35546875 191.70233154296875 78.05781555175781 191.07070922851562 79.931640625 191.44140625 C81.794921875 191.80899047851562 84.47734069824219 193.40509033203125 87.07109069824219 194.94766235351562 C91.24609375 197.43203735351562 95.56289672851562 200.0 100.0 200.0 C104.43437194824219 200.0 108.74922180175781 197.43203735351562 112.92109680175781 194.94921875 C115.51522827148438 193.40509033203125 118.1976547241211 191.80899047851562 120.06367492675781 191.44140625 C121.9375 191.07070922851562 124.6382827758789 191.70233154296875 127.2523422241211 192.31405639648438 C131.1843719482422 193.23593139648438 135.6414031982422 194.279296875 139.72305297851562 192.58868408203125 C143.88125610351562 190.8644561767578 146.31329345703125 186.927734375 148.458984375 183.455078125 C149.845703125 181.2101593017578 151.2785186767578 178.8894500732422 152.8046875 177.87030029296875 C154.35781860351562 176.828125 157.07382202148438 176.38241577148438 159.6999969482422 175.95233154296875 C163.7039031982422 175.29452514648438 168.2433624267578 174.54998779296875 171.39453125 171.39883422851562 C174.54843139648438 168.24649047851562 175.29452514648438 163.7039031982422 175.95233154296875 159.69686889648438 C176.38241577148438 157.0710906982422 176.82968139648438 154.35781860351562 177.8671875 152.8046875 C178.884765625 151.283203125 181.20742797851562 149.8488311767578 183.4519500732422 148.46209716796875 C186.92617797851562 146.31640625 190.86288452148438 143.88436889648438 192.58868408203125 139.724609375 C194.279296875 135.64297485351562 193.234375 131.1843719482422 192.30938720703125 127.25077819824219 C191.69766235351562 124.63984680175781 191.064453125 121.94218444824219 191.43359375 120.07148742675781 C191.8015594482422 118.2066421508789 193.3992156982422 115.5257797241211 194.94180297851562 112.9332046508789 C197.4289093017578 108.75703430175781 200.0 104.43867492675781 200.0 100.0 C200.0 95.564453125 197.4289093017578 91.24765014648438 194.943359375 87.07421875 C193.3992156982422 84.48163604736328 191.80313110351562 81.80078125 191.43359375 79.939453125 Z M188.22930908203125 108.9371109008789 C186.34805297851562 112.09882354736328 184.40078735351562 115.36874389648438 183.76913452148438 118.5531234741211 L183.76913452148438 118.5546875 C183.07186889648438 122.08242797851562 183.90194702148438 125.61640930175781 184.70468139648438 129.0359344482422 C185.3914031982422 131.95819091796875 186.09921264648438 134.9792938232422 185.373046875 136.73397827148438 C184.6144561767578 138.56365966796875 181.93670654296875 140.2160186767578 179.34725952148438 141.81680297851562 C176.39141845703125 143.64178466796875 173.33673095703125 145.52774047851562 171.37460327148438 148.46173095703125 C169.39532470703125 151.42227172851562 168.80938720703125 154.9851531982422 168.2433624267578 158.4304656982422 C167.75350952148438 161.41366577148438 167.24688720703125 164.49884033203125 165.87069702148438 165.8738250732422 C164.4972686767578 167.24688720703125 161.4167938232422 167.75350952148438 158.43670654296875 168.24179077148438 C154.9851531982422 168.8078155517578 151.41757202148438 169.3937530517578 148.45742797851562 171.37890625 C145.5246124267578 173.33984375 143.638671875 176.39453125 141.81210327148438 179.34881591796875 C140.212890625 181.93670654296875 138.560546875 184.61288452148438 136.73086547851562 185.37149047851562 C134.974609375 186.09921264648438 131.955078125 185.3914031982422 129.03280639648438 184.7078094482422 C125.61328125 183.90664672851562 122.0765609741211 183.078125 118.5484390258789 183.77694702148438 C115.3609390258789 184.4054718017578 112.0894546508789 186.35235595703125 108.92655944824219 188.23553466796875 C105.81366729736328 190.087890625 102.28593444824219 192.1875 100.0 192.1875 C97.71133422851562 192.1875 94.181640625 190.08633422851562 91.0660171508789 188.23397827148438 C87.90274047851562 186.35116577148438 84.63125610351562 184.4054718017578 81.44844055175781 183.77694702148438 C77.9375 183.08123779296875 74.43241882324219 183.89453125 70.9625015258789 184.7078094482422 C68.04179382324219 185.3914031982422 65.02070617675781 186.09921264648438 63.266014099121094 185.373046875 C61.43632507324219 184.61288452148438 59.78398132324219 181.93670654296875 58.183204650878906 179.34881591796875 C56.35820007324219 176.39453125 54.472267150878906 173.33984375 51.542579650878906 171.38046264648438 C48.57929992675781 169.3937530517578 45.011722564697266 168.8078155517578 41.560543060302734 168.24179077148438 C38.582027435302734 167.75350952148438 35.499610900878906 167.24844360351562 34.12773895263672 165.87539672851562 C32.75312042236328 164.50039672851562 32.248046875 161.41796875 31.758201599121094 158.43670654296875 C31.192184448242188 154.98672485351562 30.60742950439453 151.41757202148438 28.622268676757812 148.46054077148438 C26.66015625 145.529296875 23.607025146484375 143.64178466796875 20.652732849121094 141.81680297851562 C18.06328582763672 140.2175750732422 15.387107849121094 138.56365966796875 14.628517150878906 136.7355499267578 C13.900779724121094 134.9792938232422 14.608589172363281 131.95782470703125 15.292182922363281 129.03750610351562 C16.093360900878906 125.61640930175781 16.921875 122.08086395263672 16.223052978515625 118.5562515258789 C15.594528198242188 115.36874389648438 13.648834228515625 112.09725952148438 11.766014099121094 108.9339828491211 C9.913673400878906 105.81953430175781 7.8125 102.2886734008789 7.8125 100.0 C7.8125 97.71405792236328 9.912109375 94.18633270263672 11.764457702636719 91.07343292236328 C13.647262573242188 87.9105453491211 15.594528198242188 84.6390609741211 16.22148895263672 81.45429229736328 C16.921875 77.92500305175781 16.093360900878906 74.3882827758789 15.292182922363281 70.96875 C14.608589172363281 68.0464859008789 13.900779724121094 65.02694702148438 14.626953125 63.27070617675781 C15.387107849121094 61.439453125 18.06328582763672 59.787105560302734 20.65117645263672 58.187889099121094 C23.60546875 56.361328125 26.66015625 54.47539138793945 28.619529724121094 51.54570388793945 C30.606246948242188 48.58242416381836 31.192184448242188 45.01484680175781 31.758201599121094 41.56328582763672 C32.246482849121094 38.58320617675781 32.751556396484375 35.50273132324219 34.124610900878906 34.130859375 C35.50273132324219 32.75468444824219 38.589454650878906 32.248046875 41.57577896118164 31.758201599121094 C45.02109146118164 31.192184448242188 48.58242416381836 30.60742950439453 51.541019439697266 28.628517150878906 C54.472267150878906 26.664840698242188 56.35820007324219 23.609771728515625 58.183204650878906 20.655860900878906 C59.78242111206055 18.064842224121094 61.43632507324219 15.387107849121094 63.26445388793945 14.628517150878906 C65.02070617675781 13.900779724121094 68.04179382324219 14.608589172363281 70.96406555175781 15.295318603515625 C74.38203430175781 16.098045349121094 77.91757202148438 16.928123474121094 81.4468765258789 16.230857849121094 C84.63125610351562 15.600387573242188 87.90116882324219 13.653518676757812 91.0628890991211 11.770698547363281 C94.17890930175781 9.915229797363281 97.71133422851562 7.8125 100.0 7.8125 C102.28593444824219 7.8125 105.81523132324219 9.915229797363281 108.927734375 11.769142150878906 C112.0894546508789 13.651954650878906 115.359375 15.599212646484375 118.546875 16.230857849121094 C122.0765609741211 16.928123474121094 125.61172485351562 16.098045349121094 129.03125 15.295318603515625 C131.95352172851562 14.610160827636719 134.974609375 13.900779724121094 136.72930908203125 14.626953125 C138.55899047851562 15.387107849121094 140.212890625 18.064842224121094 141.81210327148438 20.655860900878906 C143.63711547851562 23.609771728515625 145.5246124267578 26.664840698242188 148.458984375 28.631637573242188 C151.41757202148438 30.60742950439453 154.97891235351562 31.192184448242188 158.42422485351562 31.756637573242188 C161.4089813232422 32.246482849121094 164.494140625 32.75312042236328 165.87069702148438 34.129295349121094 C167.2453155517578 35.504295349121094 167.75350952148438 38.589454650878906 168.2433624267578 41.572654724121094 C168.80938720703125 45.01953125 169.3937530517578 48.58242416381836 171.37460327148438 51.542579650878906 C173.33673095703125 54.47539138793945 176.39141845703125 56.361328125 179.34725952148438 58.187889099121094 C181.93670654296875 59.787105560302734 184.61288452148438 61.439453125 185.37149047851562 63.267578125 C186.09921264648438 65.025390625 185.38983154296875 68.0464859008789 184.70468139648438 70.96875 C183.90194702148438 74.3882827758789 183.07186889648438 77.92343139648438 183.76913452148438 81.453125 C184.40078735351562 84.640625 186.34805297851562 87.9105453491211 188.23086547851562 91.072265625 C190.08477783203125 94.18476867675781 192.1875 97.71405792236328 192.1875 100.0 C192.1875 102.2886734008789 190.08477783203125 105.82109832763672 188.22930908203125 108.9371109008789 Z"></path>
<path fill="" fill-opacity="1.0"  filling="0" d="M99.9847640991211 23.4375 C59.153907775878906 23.4375 23.422264099121094 59.03476333618164 23.422264099121094 100.0 C23.422264099121094 140.83087158203125 59.01953125 176.5625 99.9847640991211 176.5625 C140.8156280517578 176.5625 176.54727172851562 140.96524047851562 176.54727172851562 100.0 C176.54727172851562 59.16914367675781 140.9499969482422 23.4375 99.9847640991211 23.4375 Z M99.9847640991211 168.75 C63.36054992675781 168.75 31.234764099121094 136.6242218017578 31.234764099121094 100.0 C31.234764099121094 63.37578201293945 63.36054992675781 31.25 99.9847640991211 31.25 C136.60897827148438 31.25 168.73477172851562 63.37578201293945 168.73477172851562 100.0 C168.73477172851562 136.6242218017578 136.60897827148438 168.75 99.9847640991211 168.75 Z"></path>
<path fill="" fill-opacity="1.0"  filling="0" d="M99.9847640991211 46.875 C102.1421890258789 46.875 103.8910140991211 45.12617492675781 103.8910140991211 42.96875 C103.8910140991211 40.81132507324219 102.1421890258789 39.0625 99.9847640991211 39.0625 C70.59648895263672 39.0625 43.73164367675781 63.13008117675781 39.640628814697266 91.64141082763672 C39.333988189697266 93.7757797241211 40.81718826293945 95.75507354736328 42.953514099121094 96.06172180175781 C43.14101791381836 96.08906555175781 43.32734298706055 96.1015625 43.513668060302734 96.1015625 C45.423828125 96.1015625 47.09452819824219 94.6976547241211 47.37383270263672 92.74922180175781 C50.94140625 67.88320922851562 75.0335922241211 46.875 99.9847640991211 46.875 Z"></path>
<path fill="" fill-opacity="1.0"  filling="0" d="M135.685546875 90.78202819824219 L113.38359069824219 87.54257202148438 L103.41328430175781 67.333984375 C102.755859375 66.0003890991211 101.39765930175781 65.1566390991211 99.91015625 65.1566390991211 C98.423828125 65.1566390991211 97.06562805175781 66.0003890991211 96.408203125 67.333984375 L86.43359375 87.54257202148438 L64.12968444824219 90.78202819824219 C62.65859603881836 90.9957046508789 61.43632507324219 92.02734375 60.97734451293945 93.4417953491211 C60.517967224121094 94.85469055175781 60.90078353881836 96.408203125 61.96601486206055 97.4457015991211 L78.103515625 113.17578125 L74.294921875 135.3914031982422 C74.0433578491211 136.8562469482422 74.64608764648438 138.337890625 75.8499984741211 139.21054077148438 C77.0523452758789 140.0847625732422 78.6468734741211 140.19921875 79.96366882324219 139.50820922851562 L99.91015625 129.01913452148438 L119.8531265258789 139.50820922851562 C121.15625 140.19180297851562 122.7523422241211 140.09414672851562 123.9683609008789 139.21054077148438 C125.17108917236328 138.337890625 125.7734375 136.8562469482422 125.5218734741211 135.38983154296875 L121.7132797241211 113.17578125 L137.85235595703125 97.4457015991211 C138.91757202148438 96.4066390991211 139.30038452148438 94.85469055175781 138.84140014648438 93.44023132324219 C138.38046264648438 92.02734375 137.158203125 90.9957046508789 135.685546875 90.78202819824219 Z M114.7886734008789 109.01484680175781 C113.8687515258789 109.912109375 113.4476547241211 111.20624542236328 113.6656265258789 112.47265625 L116.4839859008789 128.9093780517578 L101.7289047241211 121.1488265991211 C100.59062194824219 120.5503921508789 99.23086547851562 120.5503921508789 98.09258270263672 121.1488265991211 L83.33280944824219 128.9093780517578 L86.15116882324219 112.47265625 C86.36797332763672 111.20624542236328 85.94804382324219 109.9136734008789 85.02812194824219 109.01484680175781 L73.08672332763672 97.376953125 L89.58906555175781 94.97968292236328 C90.861328125 94.7953109741211 91.96171569824219 93.9957046508789 92.5308609008789 92.8421859741211 L99.91015625 77.88983917236328 L107.28594207763672 92.8421859741211 C107.8550796508789 93.9957046508789 108.9554672241211 94.7953109741211 110.22811889648438 94.97968292236328 L126.73046875 97.376953125 L114.7886734008789 109.01484680175781 Z"></path></svg>