<svg xmlns="http://www.w3.org/2000/svg" viewBox="0.0 0.0 200.0 200.0" height="200.0px" width="200.0px"><path fill="url(#SVGID_1_)" fill-opacity="1.0"  filling="0" d="M137.74392700195312 82.487060546875 L61.45137405395508 82.487060546875 C57.66117477416992 82.487060546875 54.588626861572266 79.41451263427734 54.588626861572266 75.62431335449219 C54.588626861572266 71.83412170410156 57.66117477416992 68.76156616210938 61.45137405395508 68.76156616210938 L137.7443084716797 68.76156616210938 C141.53451538085938 68.76156616210938 144.6070556640625 71.83412170410156 144.6070556640625 75.62431335449219 C144.6070556640625 79.41451263427734 141.53411865234375 82.487060546875 137.74392700195312 82.487060546875 Z"></path>
<path fill="url(#SVGID_2_)" fill-opacity="1.0"  filling="0" d="M77.1513671875 68.76156616210938 L89.68470764160156 68.76156616210938 L89.68470764160156 82.487060546875 L77.1513671875 82.487060546875 L77.1513671875 68.76156616210938 Z"></path>
<path fill="url(#SVGID_3_)" fill-opacity="1.0"  filling="0" d="M137.74392700195312 68.76156616210938 L127.93568420410156 68.76156616210938 C131.72589111328125 68.76156616210938 134.79843139648438 71.83412170410156 134.79843139648438 75.62431335449219 C134.79843139648438 79.41451263427734 131.72589111328125 82.487060546875 127.93568420410156 82.487060546875 L137.74392700195312 82.487060546875 C141.53411865234375 82.487060546875 144.60667419433594 79.41451263427734 144.60667419433594 75.62431335449219 C144.60667419433594 71.83412170410156 141.53411865234375 68.76156616210938 137.74392700195312 68.76156616210938 Z"></path>
<path fill="url(#SVGID_4_)" fill-opacity="1.0"  filling="0" d="M198.9341278076172 107.89058685302734 L186.7164764404297 86.72901916503906 C183.68783569335938 81.48352813720703 176.11685180664062 81.48352813720703 173.08822631835938 86.72901916503906 L160.87059020996094 107.89058685302734 C158.2003936767578 112.51529693603516 160.82862854003906 118.1568603515625 165.63922119140625 119.42784118652344 C160.69137573242188 146.56314086914062 139.3811798095703 168.05844116210938 112.34274291992188 173.28628540039062 L112.34274291992188 49.92353057861328 C112.34274291992188 42.88470458984375 86.85254669189453 42.88470458984375 86.85254669189453 49.92353057861328 L86.85254669189453 173.29647827148438 C59.845489501953125 168.09803771972656 38.543922424316406 146.6709747314453 33.53490447998047 119.59881591796875 C38.86117935180664 118.79058074951172 41.94823455810547 112.77372741699219 39.1290168762207 107.89058685302734 L26.91136932373047 86.72901916503906 C23.88274383544922 81.48352813720703 16.311767578125 81.48352813720703 13.28314208984375 86.72901916503906 L1.0658798217773438 107.89058685302734 C-1.9388275146484375 113.09490203857422 1.7650985717773438 119.58588409423828 7.738433837890625 119.688232421875 C10.392547607421875 139.75921630859375 19.502349853515625 158.30784606933594 34.05882263183594 172.86431884765625 C51.557647705078125 190.36312866210938 74.82353210449219 200.0 99.57058715820312 200.0 C124.3176498413086 200.0 147.58352661132812 190.36312866210938 165.0823516845703 172.86431884765625 C179.63763427734375 158.30902099609375 188.74705505371094 139.761962890625 191.4019775390625 119.69294738769531 L192.11959838867188 119.69294738769531 C198.1768798828125 119.69294738769531 201.96237182617188 113.1360855102539 198.9341278076172 107.89058685302734 Z"></path>
<path fill="url(#SVGID_5_)" fill-opacity="1.0"  filling="0" d="M110.13882446289062 46.796077728271484 C105.31529235839844 43.929405212402344 93.87999725341797 43.929405212402344 89.05646514892578 46.796077728271484 C87.6878433227539 47.60784149169922 86.85254669189453 48.650978088378906 86.85254669189453 49.92548751831055 L86.85254669189453 62.20391845703125 C90.67215728759766 64.188232421875 95.0054931640625 65.30979919433594 99.59764862060547 65.30979919433594 L99.62744903564453 65.30979919433594 C101.2266616821289 65.30784606933594 102.53489685058594 66.57764434814453 102.53489685058594 68.17686462402344 L102.53489685058594 157.03921508789062 L86.77882385253906 172.7952880859375 C90.87528991699219 173.588623046875 95.10157012939453 174.01138305664062 99.42431640625 174.02078247070312 L102.53489685058594 170.9102020263672 L102.53489685058594 173.95726013183594 C105.87215423583984 173.81216430664062 109.14666748046875 173.42391967773438 112.34274291992188 172.8043212890625 L112.34274291992188 49.92548751831055 C112.34274291992188 48.650978088378906 111.5074462890625 47.60784149169922 110.13882446289062 46.796077728271484 Z"></path>
<path fill="url(#SVGID_6_)" fill-opacity="1.0"  filling="0" d="M99.59764862060547 55.49960708618164 C84.29608154296875 55.49960708618164 71.84784698486328 43.05097961425781 71.84784698486328 27.749801635742188 C71.84784698486328 12.448623657226562 84.29608154296875 0.0 99.59764862060547 0.0 C114.89922332763672 0.0 127.34745025634766 12.448623657226562 127.34745025634766 27.749801635742188 C127.34745025634766 43.05097961425781 114.89922332763672 55.49960708618164 99.59764862060547 55.49960708618164 Z M99.59764862060547 13.725486755371094 C91.86470794677734 13.725486755371094 85.57333374023438 20.016860961914062 85.57333374023438 27.749801635742188 C85.57333374023438 35.48274230957031 91.86470794677734 41.77411651611328 99.59764862060547 41.77411651611328 C107.33058166503906 41.77411651611328 113.62195587158203 35.48274230957031 113.62195587158203 27.749801635742188 C113.62195587158203 20.016860961914062 107.33058166503906 13.725486755371094 99.59764862060547 13.725486755371094 Z"></path>
<path fill="url(#SVGID_7_)" fill-opacity="1.0"  filling="0" d="M87.05647277832031 34.01567840576172 C85.80548858642578 34.929412841796875 84.61725616455078 35.945098876953125 83.50353240966797 37.05882263183594 C82.53097534179688 38.02745056152344 81.66038513183594 39.0588264465332 80.88784790039062 40.14117431640625 C79.73490142822266 41.745094299316406 78.7937240600586 43.454898834228516 78.0682373046875 45.235294342041016 C80.46823120117188 48.188236236572266 83.46039581298828 50.635292053222656 86.86431121826172 52.39999771118164 C87.01333618164062 51.74117660522461 88.82117462158203 44.623531341552734 98.14666748046875 41.69804000854492 C93.28392028808594 41.19607925415039 89.15058898925781 38.20000076293945 87.05647277832031 34.01567840576172 Z"></path>
<path fill="url(#SVGID_8_)" fill-opacity="1.0"  filling="0" d="M99.59764862060547 0.0 C97.92353057861328 0.0 96.28666687011719 0.157257080078125 94.6937255859375 0.44274139404296875 C107.66275024414062 2.7662734985351562 117.53961181640625 14.122352600097656 117.53961181640625 27.749801635742188 C117.53961181640625 41.37725067138672 107.66313171386719 52.733333587646484 94.6937255859375 55.056861877441406 C96.28705596923828 55.34235382080078 97.92391967773438 55.49960708618164 99.59764862060547 55.49960708618164 C114.89922332763672 55.49960708618164 127.34745025634766 43.05097961425781 127.34745025634766 27.749801635742188 C127.34745025634766 12.448623657226562 114.89922332763672 0.0 99.59764862060547 0.0 Z"></path>
<path fill="url(#SVGID_9_)" fill-opacity="1.0"  filling="0" d="M33.53724670410156 119.59843444824219 C38.86195755004883 118.78863525390625 41.947845458984375 112.77294921875 39.1290168762207 107.89058685302734 L26.91136932373047 86.72901916503906 C23.88274383544922 81.48352813720703 16.311767578125 81.48352813720703 13.28314208984375 86.72901916503906 L12.250198364257812 88.51803588867188 L23.434898376464844 107.89058685302734 C24.139610290527344 109.11137390136719 24.475296020507812 110.40314483642578 24.49921417236328 111.66627502441406 C24.49921417236328 148.697265625 54.6274528503418 174.50979614257812 91.65803527832031 174.50979614257812 C92.98627471923828 174.50979614257812 94.3047103881836 174.4666748046875 95.6141128540039 174.39019775390625 C64.54117584228516 172.57568359375 39.07725524902344 149.538818359375 33.53724670410156 119.59843444824219 Z"></path>
<path fill="url(#SVGID_10_)" fill-opacity="1.0"  filling="0" d="M198.9341278076172 107.89058685302734 L186.7164764404297 86.72901916503906 C183.68783569335938 81.48352813720703 176.11685180664062 81.48352813720703 173.08822631835938 86.72901916503906 L172.0552978515625 88.51803588867188 L183.239990234375 107.89058685302734 C186.26824951171875 113.1360855102539 182.4827423095703 119.69294738769531 176.42587280273438 119.69294738769531 C176.01412963867188 119.69294738769531 175.66824340820312 119.99686431884766 175.61135864257812 120.40431213378906 C172.83724975585938 140.20001220703125 163.7717742919922 158.4807891845703 149.38864135742188 172.86392211914062 C133.75294494628906 188.49960327148438 113.51097869873047 197.85177612304688 91.72392272949219 199.66744995117188 C94.31999969482422 199.88392639160156 96.93647003173828 199.99960327148438 99.57098388671875 199.99960327148438 C124.31803894042969 199.99960327148438 147.58392333984375 190.36273193359375 165.08274841308594 172.86392211914062 C179.63803100585938 158.30862426757812 188.74745178222656 139.76156616210938 191.40234375 119.69255065917969 L192.1199951171875 119.69255065917969 C198.1768798828125 119.69294738769531 201.96237182617188 113.1360855102539 198.9341278076172 107.89058685302734 Z"></path>
<path fill="url(#SVGID_11_)" fill-opacity="1.0"  filling="0" d="M112.34274291992188 88.24705505371094 L112.34274291992188 113.94902038574219 C112.79764556884766 116.63529968261719 112.79764556884766 119.38430786132812 112.34274291992188 122.07058715820312 C111.53490447998047 126.83921813964844 109.29569244384766 131.4078369140625 105.6250991821289 135.07843017578125 L86.85254669189453 153.84706115722656 L72.08392333984375 168.61569213867188 C72.37411499023438 168.74508666992188 72.6682357788086 168.87451171875 72.96235656738281 169.00392150878906 C73.25254821777344 169.12940979003906 73.54666900634766 169.25491333007812 73.8447036743164 169.38040161132812 C74.43293762207031 169.62744140625 75.02902221679688 169.8627471923828 75.62902069091797 170.0941162109375 L76.34666442871094 170.36471557617188 C77.6368637084961 170.8431396484375 78.94666290283203 171.2823486328125 80.27607727050781 171.67843627929688 C80.51136779785156 171.7490234375 80.7505874633789 171.81961059570312 80.98980712890625 171.89019775390625 C81.08392333984375 171.91766357421875 81.17803955078125 171.94509887695312 81.27215576171875 171.9686279296875 C82.15843200683594 172.2196044921875 83.04862976074219 172.4549102783203 83.95059204101562 172.67059326171875 C84.24078369140625 172.7372589111328 84.5309829711914 172.80784606933594 84.82118225097656 172.87059020996094 C84.88391876220703 172.88626098632812 84.94666290283203 172.90196228027344 85.00941467285156 172.91372680664062 C85.287841796875 172.97647094726562 85.5623550415039 173.03529357910156 85.84078216552734 173.0941162109375 C86.16627502441406 173.16470336914062 86.49176788330078 173.22744750976562 86.82117462158203 173.29019165039062 L115.33097839355469 144.7803955078125 C122.4800033569336 137.63137817382812 126.42117309570312 128.12156677246094 126.42117309570312 118.00785064697266 C126.42117309570312 107.89411926269531 122.4800033569336 98.38823699951172 115.33097839355469 91.23529052734375 L112.34274291992188 88.24705505371094 Z"></path>
<path fill="url(#SVGID_12_)" fill-opacity="1.0"  filling="0" d="M86.85254669189453 68.76078033447266 L86.85254669189453 62.75686264038086 L85.41725158691406 61.32156753540039 C81.99372863769531 57.89803695678711 80.6682357788086 53.156864166259766 81.43685913085938 48.71372604370117 C81.92706298828125 45.905879974365234 83.25254821777344 43.21568298339844 85.41725158691406 41.05097579956055 C86.7309799194336 39.73725509643555 88.18980407714844 38.63137435913086 89.76628112792969 37.74509811401367 C92.7309799194336 36.06666564941406 96.09568786621094 35.17646789550781 99.59764862060547 35.17646789550781 C103.09960174560547 35.17646789550781 106.46431732177734 36.06666564941406 109.42902374267578 37.74509811401367 C112.01333618164062 35.196075439453125 113.62117767333984 31.658828735351562 113.62117767333984 27.7490234375 C113.62117767333984 26.552940368652344 113.47216033935547 25.396080017089844 113.18588256835938 24.286270141601562 C108.95842742919922 22.427452087402344 104.35450744628906 21.45098114013672 99.59764862060547 21.45098114013672 C94.84078216552734 21.45098114013672 90.23686218261719 22.427452087402344 86.00941467285156 24.286270141601562 C82.21725463867188 25.95293426513672 78.72705841064453 28.32940673828125 75.71137237548828 31.3450927734375 C74.61725616455078 32.43921661376953 73.63294219970703 33.599998474121094 72.76235961914062 34.819610595703125 C65.46038818359375 44.968624114990234 65.76627349853516 58.93333053588867 73.68000030517578 68.76078033447266 L86.85254669189453 68.76078033447266 Z"></path>
<path fill="url(#SVGID_13_)" fill-opacity="1.0"  filling="0" d="M161.64077758789062 23.164710998535156 C158.9623565673828 20.48627471923828 154.61724853515625 20.48627471923828 151.93490600585938 23.164710998535156 L143.7545166015625 31.3450927734375 C141.0486297607422 34.05097961425781 137.44862365722656 35.541175842285156 133.62118530273438 35.541175842285156 C131.15451049804688 35.541175842285156 128.78587341308594 34.92549133300781 126.68783569335938 33.760780334472656 C125.66431427001953 38.38039016723633 123.48784637451172 42.568626403808594 120.47216033935547 46.00784683227539 C124.47215270996094 48.13725280761719 128.95843505859375 49.266666412353516 133.62118530273438 49.266666412353516 C141.11529541015625 49.266666412353516 148.162353515625 46.34901809692383 153.46038818359375 41.05097579956055 L161.64077758789062 32.87059020996094 C164.32313537597656 30.18824005126953 164.32313537597656 25.84313201904297 161.64077758789062 23.164710998535156 Z"></path>
<path fill="url(#SVGID_14_)" fill-opacity="1.0"  filling="0" d="M115.33097839355469 91.23529052734375 L112.34274291992188 88.24705505371094 L112.34274291992188 100.50901794433594 C115.13176727294922 105.84706115722656 116.61294555664062 111.81255340576172 116.61294555664062 118.00785064697266 C116.61294555664062 128.12156677246094 112.67176055908203 137.63137817382812 105.52275085449219 144.7803955078125 L79.02156829833984 171.2815704345703 C79.43882751464844 171.41567993164062 79.85490417480469 171.55294799804688 80.27607727050781 171.67843627929688 C80.51136779785156 171.7490234375 80.7505874633789 171.81961059570312 80.98980712890625 171.89019775390625 C81.08392333984375 171.91766357421875 81.17803955078125 171.94509887695312 81.27215576171875 171.9686279296875 C82.15843200683594 172.2196044921875 83.04862976074219 172.4549102783203 83.95059204101562 172.67059326171875 C84.24078369140625 172.7372589111328 84.5309829711914 172.80784606933594 84.82118225097656 172.87059020996094 C84.88391876220703 172.88626098632812 84.94666290283203 172.90196228027344 85.00941467285156 172.91372680664062 C85.287841796875 172.97647094726562 85.5623550415039 173.03529357910156 85.84078216552734 173.0941162109375 C86.16627502441406 173.16470336914062 86.49176788330078 173.22744750976562 86.82117462158203 173.29019165039062 L115.33097839355469 144.7803955078125 C122.4800033569336 137.63137817382812 126.42117309570312 128.12156677246094 126.42117309570312 118.00785064697266 C126.42117309570312 107.89411926269531 122.4800033569336 98.38823699951172 115.33097839355469 91.23529052734375 Z"></path>
<path fill="url(#SVGID_15_)" fill-opacity="1.0"  filling="0" d="M113.62117767333984 27.7490234375 C113.62117767333984 31.658828735351562 112.01333618164062 35.196075439453125 109.42902374267578 37.74509811401367 C107.04078674316406 36.39215850830078 104.38980102539062 35.552940368652344 101.61724853515625 35.27842712402344 C103.0054931640625 33.101959228515625 103.8133316040039 30.51764678955078 103.8133316040039 27.7490234375 C103.8133316040039 25.52941131591797 103.29568481445312 23.431373596191406 102.37411499023438 21.56470489501953 C106.14274597167969 21.866661071777344 109.785888671875 22.792152404785156 113.18588256835938 24.286270141601562 C113.47216033935547 25.396080017089844 113.62117767333984 26.552940368652344 113.62117767333984 27.7490234375 Z"></path>
<path fill="url(#SVGID_16_)" fill-opacity="1.0"  filling="0" d="M161.64077758789062 23.164710998535156 C158.9623565673828 20.48627471923828 154.61724853515625 20.48627471923828 151.93490600585938 23.164710998535156 L151.8811798095703 23.218429565429688 C154.5117645263672 25.900779724121094 154.49765014648438 30.205490112304688 151.83255004882812 32.87059020996094 L143.65216064453125 41.05097579956055 C139.5251007080078 45.178043365478516 134.33489990234375 47.8525505065918 128.70079040527344 48.83686065673828 C130.30902099609375 49.119998931884766 131.9533233642578 49.26705551147461 133.62118530273438 49.26705551147461 C141.11529541015625 49.26705551147461 148.162353515625 46.34941482543945 153.46038818359375 41.05137252807617 L161.64077758789062 32.87097930908203 C164.32313537597656 30.18824005126953 164.32313537597656 25.84313201904297 161.64077758789062 23.164710998535156 Z"></path></svg>