<svg xmlns="http://www.w3.org/2000/svg" viewBox="0.0 0.0 200.0 200.0" height="200.0px" width="200.0px"><path fill="#ff9696" fill-opacity="1.0"  filling="0" d="M181.4453125 197.0703125 L18.5546875 197.0703125 C9.925392150878906 197.0703125 2.9296875 190.07461547851562 2.9296875 181.4453125 L2.9296875 72.0703125 C2.9296875 63.44101333618164 9.925392150878906 56.4453125 18.5546875 56.4453125 L181.4453125 56.4453125 C190.07461547851562 56.4453125 197.0703125 63.44101333618164 197.0703125 72.0703125 L197.0703125 181.4453125 C197.0703125 190.07461547851562 190.07461547851562 197.0703125 181.4453125 197.0703125 Z"></path>
<path fill="#ff7d81" fill-opacity="1.0"  filling="0" d="M56.04257583618164 181.4453125 L56.04257583618164 72.0703125 C56.04257583618164 63.44101333618164 63.03828430175781 56.4453125 71.66757202148438 56.4453125 L18.5546875 56.4453125 C9.925392150878906 56.4453125 2.9296875 63.44101333618164 2.9296875 72.0703125 L2.9296875 181.4453125 C2.9296875 190.07461547851562 9.925392150878906 197.0703125 18.5546875 197.0703125 L71.66757202148438 197.0703125 C63.03828430175781 197.0703125 56.04257583618164 190.07461547851562 56.04257583618164 181.4453125 Z"></path>
<path fill="#f2f6fc" fill-opacity="1.0"  filling="0" d="M18.5546875 111.1328125 L18.5546875 165.8203125 C27.183982849121094 165.8203125 34.1796875 172.81600952148438 34.1796875 181.4453125 L165.8203125 181.4453125 C165.8203125 172.81600952148438 172.81600952148438 165.8203125 181.4453125 165.8203125 L181.4453125 111.1328125 C172.81600952148438 111.1328125 165.8203125 104.1371078491211 165.8203125 95.5078125 L34.1796875 95.5078125 C34.1796875 104.1371078491211 27.183982849121094 111.1328125 18.5546875 111.1328125 Z"></path>
<path fill="#e9edf5" fill-opacity="1.0"  filling="0" d="M34.1796875 95.5078125 C34.1796875 104.1371078491211 27.183982849121094 111.1328125 18.5546875 111.1328125 L18.5546875 165.8203125 C27.183982849121094 165.8203125 34.1796875 172.81600952148438 34.1796875 181.4453125 L56.04257583618164 181.4453125 L56.04257583618164 95.5078125 L34.1796875 95.5078125 Z"></path>
<path fill="#fff48f" fill-opacity="1.0"  filling="0" d="M115.625 18.5546875 A15.625 15.625 0.0 1 1 84.375 18.5546875 A15.625 15.625 0.0 1 1 115.625 18.5546875 Z"></path>
<path fill="#ffee6e" fill-opacity="1.0"  filling="0" d="M100.0 18.5546875 C100.0 12.772262573242188 103.14335632324219 7.7273406982421875 107.8125 5.025390625 C105.513671875 3.6949234008789062 102.84687042236328 2.9296875 100.0 2.9296875 C91.3707046508789 2.9296875 84.375 9.925392150878906 84.375 18.5546875 C84.375 27.183982849121094 91.3707046508789 34.1796875 100.0 34.1796875 C102.84687042236328 34.1796875 105.513671875 33.414451599121094 107.8125 32.083984375 C103.14335632324219 29.382034301757812 100.0 24.337112426757812 100.0 18.5546875 Z"></path>
<path fill="" fill-opacity="1.0"  filling="0" d="M131.845703125 74.73320007324219 C132.91015625 73.51445770263672 132.7843780517578 71.6636734008789 131.5656280517578 70.599609375 C130.34725952148438 69.5355453491211 128.49609375 69.6605453491211 127.43203735351562 70.87968444824219 C126.93672180175781 71.4468765258789 126.22305297851562 71.7718734741211 125.47383117675781 71.7718734741211 L125.47148132324219 71.7718734741211 C124.72148132324219 71.77108764648438 124.00703430175781 71.44452667236328 123.51211547851562 70.87577819824219 C122.45038604736328 69.65507507324219 120.59960174560547 69.52616882324219 119.37889862060547 70.58866882324219 C118.15819549560547 71.6507797241211 118.02969360351562 73.50116729736328 119.091796875 74.72187042236328 C120.69883728027344 76.56875610351562 123.02227020263672 77.6292953491211 125.46601104736328 77.63163757324219 L125.47383117675781 77.63163757324219 C127.91523742675781 77.6312484741211 130.23788452148438 76.57499694824219 131.845703125 74.73320007324219 Z"></path>
<path fill="" fill-opacity="1.0"  filling="0" d="M74.52499389648438 77.58320617675781 L74.5328140258789 77.58320617675781 C76.974609375 77.58320617675781 79.296875 76.52694702148438 80.9046859741211 74.6851577758789 C81.96875 73.4664077758789 81.8433609008789 71.6156234741211 80.62421417236328 70.55155944824219 C79.40547180175781 69.48750305175781 77.5542984008789 69.6128921508789 76.4906234741211 70.83203125 C75.99531555175781 71.39921569824219 75.28202819824219 71.7242202758789 74.53241729736328 71.7242202758789 L74.53007507324219 71.7242202758789 C73.78007507324219 71.72343444824219 73.06600952148438 71.3968734741211 72.57148742675781 70.8285140991211 C71.50898742675781 69.607421875 69.65898132324219 69.47929382324219 68.43827819824219 70.5406265258789 C67.21757507324219 71.60234069824219 67.08828735351562 73.453125 68.150390625 74.673828125 C69.75703430175781 76.52030944824219 72.080078125 77.58085632324219 74.52499389648438 77.58320617675781 Z"></path>
<path fill="" fill-opacity="1.0"  filling="0" d="M99.9886703491211 82.1324234008789 C103.3003921508789 82.1324234008789 106.44960021972656 80.69844055175781 108.62850952148438 78.19766235351562 C109.69140625 76.97773742675781 109.56444549560547 75.12734985351562 108.34452819824219 74.0640640258789 C107.12422180175781 73.00117492675781 105.27422332763672 73.12812042236328 104.2109375 74.3480453491211 C103.1449203491211 75.57148742675781 101.6058578491211 76.2730484008789 99.98828125 76.2730484008789 C98.3707046508789 76.2730484008789 96.8316421508789 75.57148742675781 95.765625 74.3480453491211 C94.7027359008789 73.12812042236328 92.85234069824219 73.00077819824219 91.63203430175781 74.0640640258789 C90.412109375 75.126953125 90.28515625 76.97734069824219 91.3480453491211 78.19766235351562 C93.5277328491211 80.69805145263672 96.67694854736328 82.1324234008789 99.9886703491211 82.1324234008789 Z"></path>
<path fill="" fill-opacity="1.0"  filling="0" d="M181.4453125 53.515625 L158.36483764648438 53.515625 L116.9046859741211 26.188278198242188 C117.9609375 23.858200073242188 118.5546875 21.275001525878906 118.5546875 18.5546875 C118.5546875 8.323829650878906 110.23086547851562 0.0 100.0 0.0 C89.7691421508789 0.0 81.4453125 8.323829650878906 81.4453125 18.5546875 C81.4453125 21.275001525878906 82.0386734008789 23.858200073242188 83.0953140258789 26.188278198242188 L41.63554763793945 53.515625 L18.5546875 53.515625 C8.323829650878906 53.515625 0.0 61.839454650878906 0.0 72.0703125 L0.0 132.6171875 C0.0 134.2351531982422 1.3117218017578125 135.546875 2.9296875 135.546875 C4.5476531982421875 135.546875 5.859375 134.2351531982422 5.859375 132.6171875 L5.859375 72.0703125 C5.859375 65.0703125 11.5546875 59.375 18.5546875 59.375 L181.4453125 59.375 C188.4453125 59.375 194.140625 65.0703125 194.140625 72.0703125 L194.140625 181.4453125 C194.140625 188.4453125 188.4453125 194.140625 181.4453125 194.140625 L18.5546875 194.140625 C11.5546875 194.140625 5.859375 188.4453125 5.859375 181.4453125 L5.859375 144.3359375 C5.859375 142.7179718017578 4.5476531982421875 141.40625 2.9296875 141.40625 C1.3117218017578125 141.40625 0.0 142.7179718017578 0.0 144.3359375 L0.0 181.4453125 C0.0 191.67617797851562 8.323829650878906 200.0 18.5546875 200.0 L181.4453125 200.0 C191.67617797851562 200.0 200.0 191.67617797851562 200.0 181.4453125 L200.0 72.0703125 C200.0 61.839454650878906 191.67617797851562 53.515625 181.4453125 53.515625 Z M100.0 5.859375 C107.00000762939453 5.859375 112.6953125 11.5546875 112.6953125 18.5546875 C112.6953125 25.5546875 107.00000762939453 31.25 100.0 31.25 C93.0 31.25 87.3046875 25.5546875 87.3046875 18.5546875 C87.3046875 11.5546875 93.0 5.859375 100.0 5.859375 Z M86.32304382324219 31.078514099121094 C89.71757507324219 34.78242492675781 94.591796875 37.109375 100.0 37.109375 C105.408203125 37.109375 110.28242492675781 34.78242492675781 113.67695617675781 31.078514099121094 L147.71759033203125 53.515625 L52.28242111206055 53.515625 L86.32304382324219 31.078514099121094 Z"></path>
<path fill="" fill-opacity="1.0"  filling="0" d="M31.25 95.5078125 C31.25 102.50782012939453 25.5546875 108.203125 18.5546875 108.203125 C16.936721801757812 108.203125 15.625 109.51484680175781 15.625 111.1328125 L15.625 165.8203125 C15.625 167.4382781982422 16.936721801757812 168.75 18.5546875 168.75 C25.5546875 168.75 31.25 174.4453125 31.25 181.4453125 C31.25 183.0632781982422 32.56172180175781 184.375 34.1796875 184.375 L165.8203125 184.375 C167.4382781982422 184.375 168.75 183.0632781982422 168.75 181.4453125 C168.75 174.4453125 174.4453125 168.75 181.4453125 168.75 C183.0632781982422 168.75 184.375 167.4382781982422 184.375 165.8203125 L184.375 111.1328125 C184.375 109.51484680175781 183.0632781982422 108.203125 181.4453125 108.203125 C174.4453125 108.203125 168.75 102.50782012939453 168.75 95.5078125 C168.75 93.88984680175781 167.4382781982422 92.578125 165.8203125 92.578125 L130.25350952148438 92.578125 C128.6355438232422 92.578125 127.3238296508789 93.88984680175781 127.3238296508789 95.5078125 C127.3238296508789 97.12577819824219 128.6355438232422 98.4375 130.25350952148438 98.4375 L163.12188720703125 98.4375 C164.37850952148438 106.32695007324219 170.6261749267578 112.57461547851562 178.51602172851562 113.8316421508789 L178.51602172851562 163.12188720703125 C170.62655639648438 164.37850952148438 164.37890625 170.6261749267578 163.12188720703125 178.51602172851562 L36.87851333618164 178.51602172851562 C35.621490478515625 170.6261749267578 29.373825073242188 164.37850952148438 21.484375 163.12149047851562 L21.484375 113.8316421508789 C29.373825073242188 112.57499694824219 35.621490478515625 106.32734680175781 36.87851333618164 98.4375 L118.5347671508789 98.4375 C120.15274047851562 98.4375 121.4644546508789 97.12577819824219 121.4644546508789 95.5078125 C121.4644546508789 93.88984680175781 120.15274047851562 92.578125 118.5347671508789 92.578125 L34.1796875 92.578125 C32.56172180175781 92.578125 31.25 93.88984680175781 31.25 95.5078125 Z"></path>
<path fill="" fill-opacity="1.0"  filling="0" d="M67.29023742675781 119.921875 C65.67227172851562 119.921875 64.36054992675781 121.23359680175781 64.36054992675781 122.8515625 L64.36054992675781 154.0753936767578 C64.36054992675781 155.5027313232422 65.3890609741211 156.72227478027344 66.79570007324219 156.96327209472656 C67.0035171508789 156.9988250732422 67.203125 157.03280639648438 70.6324234008789 157.03280639648438 C72.29218292236328 157.03280639648438 74.708984375 157.0246124267578 78.2496109008789 157.0050811767578 C79.8675765991211 156.99609375 81.171875 155.67694091796875 81.16288757324219 154.05899047851562 C81.1539077758789 152.44100952148438 79.8539047241211 151.13436889648438 78.216796875 151.1457061767578 C75.39375305175781 151.16131591796875 72.357421875 151.1828155517578 70.21992492675781 151.171875 L70.21992492675781 122.8515625 C70.21992492675781 121.23359680175781 68.908203125 119.921875 67.29023742675781 119.921875 Z"></path>
<path fill="" fill-opacity="1.0"  filling="0" d="M169.89688110351562 125.78125 C171.5148468017578 125.78125 172.82656860351562 124.46952819824219 172.82656860351562 122.8515625 C172.82656860351562 121.23359680175781 171.5148468017578 119.921875 169.89688110351562 119.921875 L156.7296905517578 119.921875 C155.11172485351562 119.921875 153.8000030517578 121.23359680175781 153.8000030517578 122.8515625 L153.8000030517578 154.1015625 C153.8000030517578 155.7195281982422 155.11172485351562 157.03125 156.7296905517578 157.03125 L169.89688110351562 157.03125 C171.5148468017578 157.03125 172.82656860351562 155.7195281982422 172.82656860351562 154.1015625 C172.82656860351562 152.4835968017578 171.5148468017578 151.171875 169.89688110351562 151.171875 L159.6593780517578 151.171875 L159.6593780517578 141.40625 L168.92617797851562 141.40625 C170.54412841796875 141.40625 171.85586547851562 140.0945281982422 171.85586547851562 138.4765625 C171.85586547851562 136.8585968017578 170.54412841796875 135.546875 168.92617797851562 135.546875 L159.6593780517578 135.546875 L159.6593780517578 125.78125 L169.89688110351562 125.78125 Z"></path>
<path fill="" fill-opacity="1.0"  filling="0" d="M45.72812271118164 125.78125 C48.27226257324219 125.78125 50.72616958618164 126.53047180175781 52.82421875 127.9476547241211 C54.16523361206055 128.85391235351562 55.986328125 128.5007781982422 56.89179992675781 127.15975952148438 C57.79765701293945 125.81913757324219 57.444923400878906 123.998046875 56.10390853881836 123.0921859741211 C53.03359603881836 121.0179672241211 49.445701599121094 119.92147827148438 45.72812271118164 119.92147827148438 C35.49726867675781 119.92147827148438 27.173439025878906 128.2453155517578 27.173439025878906 138.47616577148438 C27.173439025878906 148.70703125 35.49726867675781 157.03085327148438 45.72812271118164 157.03085327148438 C49.789058685302734 157.03085327148438 53.428123474121094 155.70156860351562 56.252342224121094 153.18634033203125 C56.80586242675781 152.693359375 57.33203125 152.150390625 57.816402435302734 151.57305908203125 C58.85624694824219 150.3332061767578 58.69414138793945 148.48553466796875 57.45429229736328 147.44570922851562 C56.21484375 146.40625 54.366798400878906 146.56796264648438 53.32695388793945 147.8078155517578 C53.02421951293945 148.16876220703125 52.697265625 148.50625610351562 52.355079650878906 148.81094360351562 C50.59648132324219 150.37734985351562 48.366798400878906 151.17147827148438 45.72812271118164 151.17147827148438 C38.72812271118164 151.17147827148438 33.032814025878906 145.47616577148438 33.032814025878906 138.47616577148438 C33.032814025878906 131.47618103027344 38.72812271118164 125.78125 45.72812271118164 125.78125 Z"></path>
<path fill="" fill-opacity="1.0"  filling="0" d="M132.60311889648438 126.14765167236328 C137.544921875 124.658203125 142.02500915527344 128.25155639648438 142.1046905517578 128.31640625 C143.3429718017578 129.34686279296875 145.18319702148438 129.18399047851562 146.22108459472656 127.94921875 C147.26211547851562 126.7109375 147.10195922851562 124.86288452148438 145.86328125 123.82148742675781 C145.5847625732422 123.5875015258789 138.9503936767578 118.11602020263672 130.9132843017578 120.53749084472656 C126.96719360351562 121.72616577148438 124.17735290527344 124.82109069824219 123.6328125 128.615234375 C123.12538146972656 132.1515655517578 124.65703582763672 135.55233764648438 127.63008117675781 137.4910125732422 C127.759765625 137.57537841796875 127.89530944824219 137.6492156982422 128.03671264648438 137.7121124267578 C128.21641540527344 137.79257202148438 132.4910125732422 139.6953125 137.3074188232422 141.4718780517578 C140.69100952148438 142.7199249267578 142.4113311767578 144.66717529296875 142.02813720703125 146.81405639648438 C141.6457061767578 148.9562530517578 139.1394500732422 151.17227172851562 135.60781860351562 151.17227172851562 C132.23085021972656 151.17227172851562 128.9714813232422 149.80039978027344 126.8890609741211 147.50233459472656 C125.802734375 146.3035125732422 123.95000457763672 146.21249389648438 122.75077819824219 147.298828125 C121.55195617675781 148.3855438232422 121.46054077148438 150.23788452148438 122.54727172851562 151.43710327148438 C125.72187042236328 154.9402313232422 130.6042938232422 157.03204345703125 135.60821533203125 157.03204345703125 C141.62149047851562 157.03204345703125 146.86172485351562 153.08242797851562 147.796875 147.8445281982422 C148.5050811767578 143.87655639648438 146.65469360351562 138.6746063232422 139.33554077148438 135.97500610351562 C135.33828735351562 134.5007781982422 131.62890625 132.8914031982422 130.66522216796875 132.4679718017578 C129.71914672851562 131.767578125 129.26055908203125 130.6531219482422 129.43359375 129.4484405517578 C129.65274047851562 127.91288757324219 130.837890625 126.67930603027344 132.60311889648438 126.14765167236328 Z"></path>
<path fill="" fill-opacity="1.0"  filling="0" d="M101.28008270263672 119.921875 C91.0492172241211 119.921875 82.72538757324219 128.24569702148438 82.72538757324219 138.4765625 C82.72538757324219 148.70742797851562 91.0492172241211 157.03125 101.28008270263672 157.03125 C111.51093292236328 157.03125 119.83477020263672 148.70742797851562 119.83477020263672 138.4765625 C119.83477020263672 128.24569702148438 111.51093292236328 119.921875 101.28008270263672 119.921875 Z M101.28008270263672 151.171875 C94.28007507324219 151.171875 88.58476257324219 145.4765625 88.58476257324219 138.4765625 C88.58476257324219 131.4765625 94.28007507324219 125.78125 101.28008270263672 125.78125 C108.28007507324219 125.78125 113.97539520263672 131.4765625 113.97539520263672 138.4765625 C113.97539520263672 145.4765625 108.28007507324219 151.171875 101.28008270263672 151.171875 Z"></path></svg>