<svg xmlns="http://www.w3.org/2000/svg" viewBox="0.0 0.0 200.0 200.0" height="200.0px" width="200.0px"><path fill="#ffe1bd" fill-opacity="1.0"  filling="0" d="M115.89765930175781 152.5281219482422 C114.90625 152.17266845703125 113.90117645263672 151.8527374267578 112.88203430175781 151.564453125 C108.78633117675781 150.40118408203125 104.4652328491211 149.775390625 100.0 149.775390625 C73.9273452758789 149.775390625 52.705078125 171.001953125 52.705078125 197.0703125 L147.294921875 197.0703125 C147.294921875 176.7488250732422 134.33360290527344 159.12850952148438 115.89765930175781 152.5281219482422 Z"></path>
<path fill="#fff2cf" fill-opacity="1.0"  filling="0" d="M100.0 2.9296875 C65.4820327758789 2.9296875 37.5 30.911720275878906 37.5 65.4296875 L37.5 81.0546875 L162.5 81.0546875 L162.5 65.4296875 C162.5 30.911720275878906 134.51797485351562 2.9296875 100.0 2.9296875 Z"></path>
<path fill="#ffe1bd" fill-opacity="1.0"  filling="0" d="M155.74571228027344 37.14374923706055 C155.5500030517578 37.14023971557617 155.3562469482422 37.12890625 155.15977478027344 37.12890625 L84.4292984008789 37.12890625 C79.3296890258789 37.12890625 75.10820007324219 33.03984069824219 75.0882797241211 27.94023895263672 C75.0882797241211 27.90741729736328 75.0882797241211 27.874610900878906 75.0882797241211 27.841796875 C75.087890625 14.083206176757812 86.24140930175781 2.9296875 100.0 2.9296875 C65.482421875 2.9296875 37.5 30.911720275878906 37.5 65.4296875 L37.5 81.0546875 L162.5 81.0546875 L162.5 65.4296875 C162.5 55.24882507324219 160.06405639648438 45.637107849121094 155.74571228027344 37.14374923706055 Z"></path>
<path fill="#fff2cf" fill-opacity="1.0"  filling="0" d="M99.99960327148438 181.4453125 C65.4820327758789 181.4453125 37.5 153.46328735351562 37.5 118.94570922851562 L37.5 68.37890625 L162.49920654296875 68.37890625 L162.49920654296875 118.94570922851562 C162.49920654296875 153.46328735351562 134.51719665527344 181.4453125 99.99960327148438 181.4453125 Z"></path>
<path fill="#ffe1bd" fill-opacity="1.0"  filling="0" d="M57.03125 118.94570922851562 L57.03125 68.37890625 L37.5 68.37890625 L37.5 118.94570922851562 C37.5 153.46328735351562 65.4820327758789 181.4453125 99.99960327148438 181.4453125 C103.3218765258789 181.4453125 106.58280944824219 181.18359375 109.76522827148438 180.68399047851562 C79.88671875 175.99569702148438 57.03125 150.14102172851562 57.03125 118.94570922851562 Z"></path>
<path fill="#fed2a4" fill-opacity="1.0"  filling="0" d="M121.103515625 129.361328125 L78.896484375 129.361328125 C66.82070922851562 129.361328125 57.03125 119.5718765258789 57.03125 107.49609375 L57.03125 68.37890625 L142.96875 68.37890625 L142.96875 107.49649047851562 C142.96875 119.572265625 133.17929077148438 129.361328125 121.103515625 129.361328125 Z"></path>
<path fill="#ffbd86" fill-opacity="1.0"  filling="0" d="M75.78125 107.49609375 L75.78125 68.37890625 L57.03125 68.37890625 L57.03125 107.49609375 C57.03125 119.5718765258789 66.82070922851562 129.361328125 78.896484375 129.361328125 L97.646484375 129.361328125 C85.57070922851562 129.361328125 75.78125 119.572265625 75.78125 107.49609375 Z"></path>
<path fill="" fill-opacity="1.0"  filling="0" d="M75.6058578491211 111.37460327148438 C73.98788452148438 111.37460327148438 72.6761703491211 110.06288146972656 72.6761703491211 108.44491577148438 L72.6761703491211 103.75741577148438 C72.6761703491211 102.13945007324219 73.98788452148438 100.82772827148438 75.6058578491211 100.82772827148438 C77.22382354736328 100.82772827148438 78.5355453491211 102.13945007324219 78.5355453491211 103.75741577148438 L78.5355453491211 108.44491577148438 C78.5355453491211 110.06288146972656 77.22382354736328 111.37460327148438 75.6058578491211 111.37460327148438 Z"></path>
<path fill="" fill-opacity="1.0"  filling="0" d="M124.39375305175781 111.37460327148438 C122.7757797241211 111.37460327148438 121.46406555175781 110.06288146972656 121.46406555175781 108.44491577148438 L121.46406555175781 103.75741577148438 C121.46406555175781 102.13945007324219 122.7757797241211 100.82772827148438 124.39375305175781 100.82772827148438 C126.01171875 100.82772827148438 127.32344055175781 102.13945007324219 127.32344055175781 103.75741577148438 L127.32344055175781 108.44491577148438 C127.32344055175781 110.06288146972656 126.01211547851562 111.37460327148438 124.39375305175781 111.37460327148438 Z"></path>
<path fill="" fill-opacity="1.0"  filling="0" d="M100.0 114.16484069824219 C96.68866729736328 114.16484069824219 93.5394515991211 112.7308578491211 91.36016082763672 110.23007202148438 C90.296875 109.01016235351562 90.4242172241211 107.1597671508789 91.64375305175781 106.09648132324219 C92.8636703491211 105.033203125 94.71406555175781 105.16015625 95.77734375 106.38008117675781 C96.84375 107.603515625 98.3828125 108.30506896972656 100.00039672851562 108.30506896972656 C101.61796569824219 108.30506896972656 103.15702819824219 107.603515625 104.22344207763672 106.38008117675781 C105.2867202758789 105.15977478027344 107.1371078491211 105.033203125 108.35704040527344 106.09648132324219 C109.57695007324219 107.1597671508789 109.70391082763672 109.01016235351562 108.640625 110.23007202148438 C106.4605484008789 112.7308578491211 103.31132507324219 114.16484069824219 100.0 114.16484069824219 Z"></path>
<path fill="#db9e82" fill-opacity="1.0"  filling="0" d="M29.215621948242188 68.37890625 C29.215621948242188 59.749610900878906 36.21132278442383 52.75390625 44.84062194824219 52.75390625 L155.15977478027344 52.75390625 C163.7890625 52.75390625 170.78477478027344 59.749610900878906 170.78477478027344 68.37890625 C170.78477478027344 77.00820922851562 163.7890625 84.00390625 155.15977478027344 84.00390625 L44.84062194824219 84.00390625 C36.2109375 84.00390625 29.215621948242188 77.00820922851562 29.215621948242188 68.37890625 Z"></path>
<path fill="#c8866a" fill-opacity="1.0"  filling="0" d="M67.7933578491211 68.37890625 C67.7933578491211 59.749610900878906 74.7890625 52.75390625 83.4183578491211 52.75390625 L44.840232849121094 52.75390625 C36.2109375 52.75390625 29.215232849121094 59.749610900878906 29.215232849121094 68.37890625 C29.215232849121094 77.00820922851562 36.2109375 84.00390625 44.840232849121094 84.00390625 L83.4183578491211 84.00390625 C74.7890625 84.00390625 67.7933578491211 77.00820922851562 67.7933578491211 68.37890625 Z"></path>
<path fill="" fill-opacity="1.0"  filling="0" d="M45.865238189697266 153.1281280517578 C44.853515625 153.1281280517578 43.86992645263672 152.603515625 43.326560974121094 151.6648406982422 C37.59804916381836 141.76327514648438 34.5703125 130.44882202148438 34.5703125 118.94570922851562 L34.5703125 83.13788604736328 C34.5703125 81.5199203491211 35.88203430175781 80.20819854736328 37.5 80.20819854736328 C39.11796951293945 80.20819854736328 40.4296875 81.5199203491211 40.4296875 83.13788604736328 L40.4296875 118.94570922851562 C40.4296875 129.419921875 43.185157775878906 139.71954345703125 48.398433685302734 148.73086547851562 C49.208595275878906 150.13125610351562 48.73046875 151.92344665527344 47.329689025878906 152.73397827148438 C46.86796569824219 153.0011749267578 46.36328125 153.1281280517578 45.865238189697266 153.1281280517578 Z"></path>
<path fill="" fill-opacity="1.0"  filling="0" d="M173.7140655517578 68.37890625 C173.7140655517578 61.37577819824219 169.81289672851562 55.267578125 164.07070922851562 52.109764099121094 C161.07147216796875 37.613670349121094 153.10311889648438 24.418746948242188 141.6203155517578 14.942184448242188 C129.94491577148438 5.306640625 115.1640625 0.0 100.0 0.0 C84.85116577148438 0.0 70.08125305175781 5.297264099121094 58.41093826293945 14.916015625 C46.912109375 24.393753051757812 38.9296875 37.601173400878906 35.928123474121094 52.11054611206055 C30.03984832763672 55.349220275878906 26.087890625 61.69023513793945 26.293746948242188 68.9175796508789 C26.580856323242188 79.00508117675781 35.064453125 86.93359375 45.155860900878906 86.93359375 L54.1015625 86.93359375 L54.1015625 107.49649047851562 C54.1015625 121.19023895263672 65.2027359008789 132.29139709472656 78.896484375 132.29139709472656 L121.103515625 132.29139709472656 C134.79727172851562 132.29139709472656 145.8984375 121.19023895263672 145.8984375 107.49649047851562 L145.8984375 86.93359375 L155.1593780517578 86.93359375 C156.67889404296875 86.93359375 158.15509033203125 86.74609375 159.56951904296875 86.39961242675781 L159.56951904296875 118.94570922851562 C159.56951904296875 151.79257202148438 132.8464813232422 178.515625 99.99922180175781 178.515625 C82.7171859741211 178.515625 66.3140640258789 171.0246124267578 54.98164367675781 157.95938110351562 C53.94023513793945 156.7589874267578 52.1015625 156.5261688232422 50.86562728881836 157.5246124267578 C49.570308685302734 158.57070922851562 49.408592224121094 160.47225952148438 50.48867416381836 161.7214813232422 C52.863670349121094 164.46795654296875 55.44375228881836 166.9894561767578 58.19414138793945 169.27459716796875 C52.681644439697266 177.52655029296875 49.77500534057617 187.0859375 49.77500534057617 197.06991577148438 C49.77500534057617 198.68789672851562 51.08671951293945 199.99960327148438 52.70468521118164 199.99960327148438 L147.29452514648438 199.99960327148438 C148.91250610351562 199.99960327148438 150.22421264648438 198.68789672851562 150.22421264648438 197.06991577148438 C150.22421264648438 187.08438110351562 147.31210327148438 177.51522827148438 141.78750610351562 169.25155639648438 C156.22265625 157.240234375 165.42852783203125 139.14804077148438 165.42852783203125 118.9453125 L165.42852783203125 83.822265625 C170.4191436767578 80.49336242675781 173.7140655517578 74.814453125 173.7140655517578 68.37890625 Z M144.26992797851562 194.140625 L55.72968673706055 194.140625 C56.22616958618164 186.50390625 58.67070388793945 179.22381591796875 62.87773132324219 172.81874084472656 C73.6929702758789 180.27304077148438 86.60429382324219 184.375 99.99960327148438 184.375 C113.76913452148438 184.375 126.5562515258789 180.095703125 137.10821533203125 172.802734375 C141.3234405517578 179.21719360351562 143.7726593017578 186.50350952148438 144.26992797851562 194.140625 Z M140.0390625 107.49609375 C140.0390625 117.9371109008789 131.54452514648438 126.431640625 121.103515625 126.431640625 L78.896484375 126.431640625 C68.4554672241211 126.431640625 59.9609375 117.9371109008789 59.9609375 107.49609375 L59.9609375 86.93359375 L140.0390625 86.93359375 L140.0390625 107.49609375 Z M155.1593780517578 81.07421875 L44.84062194824219 81.07421875 C37.84062957763672 81.07421875 32.14530944824219 75.37890625 32.14530944824219 68.37890625 C32.14530944824219 61.37890625 37.84062957763672 55.68359375 44.84062194824219 55.68359375 L118.5347671508789 55.68359375 C120.15274047851562 55.68359375 121.4644546508789 54.37187576293945 121.4644546508789 52.75390625 C121.4644546508789 51.13594055175781 120.15274047851562 49.82421875 118.5347671508789 49.82421875 L44.84062194824219 49.82421875 C44.03164291381836 49.82421875 43.23672103881836 49.88203048706055 42.45468521118164 49.982810974121094 C49.355857849121094 24.21875 73.0210952758789 5.859375 100.0 5.859375 C126.990234375 5.859375 150.64453125 24.214454650878906 157.54531860351562 49.982810974121094 C156.76327514648438 49.88203048706055 155.96835327148438 49.82421875 155.1593780517578 49.82421875 L130.2531280517578 49.82421875 C128.63516235351562 49.82421875 127.32344055175781 51.13594055175781 127.32344055175781 52.75390625 C127.32344055175781 54.37187576293945 128.63516235351562 55.68359375 130.2531280517578 55.68359375 L155.1593780517578 55.68359375 C162.15936279296875 55.68359375 167.8546905517578 61.37890625 167.8546905517578 68.37890625 C167.8546905517578 75.37890625 162.15975952148438 81.07421875 155.1593780517578 81.07421875 Z"></path></svg>