<svg xmlns="http://www.w3.org/2000/svg" viewBox="0.0 0.0 200.0 200.0" height="200.0px" width="200.0px"><path fill="#ecf4ff" fill-opacity="1.0"  filling="0" d="M169.146484375 200.0 L30.853515625 200.0 C28.630859375 200.0 26.829299926757812 198.1984405517578 26.829299926757812 195.9757843017578 L26.829299926757812 4.0242156982421875 C26.829299926757812 1.8015594482421875 28.630859375 0.0 30.853515625 0.0 L169.14688110351562 0.0 C171.36953735351562 0.0 173.17108154296875 1.8015594482421875 173.17108154296875 4.0242156982421875 L173.17108154296875 195.9757843017578 C173.1707000732422 198.1984405517578 171.369140625 200.0 169.146484375 200.0 Z"></path>
<path fill="#cbe2ff" fill-opacity="1.0"  filling="0" d="M30.853515625 200.0 L169.14688110351562 200.0 C171.369140625 200.0 173.17108154296875 198.1984405517578 173.17108154296875 195.9757843017578 L173.17108154296875 116.21875 C158.8582000732422 132.57264709472656 141.1593780517578 148.12852478027344 120.63984680175781 161.71249389648438 C90.3296890258789 181.77774047851562 58.46484375 194.490234375 29.235549926757812 199.65899658203125 C29.730857849121094 199.876953125 30.27734375 200.0 30.853515625 200.0 Z"></path>
<path fill="#e49542" fill-opacity="1.0"  filling="0" d="M60.16250228881836 55.73202896118164 L60.16250228881836 39.43085479736328 C48.67422103881836 39.43085479736328 39.412498474121094 48.96172332763672 39.85234451293945 60.54804992675781 C40.25233840942383 71.0824203491211 48.836326599121094 79.6664047241211 59.37070083618164 80.06640625 C70.9566421508789 80.5062484741211 80.48788452148438 71.2445297241211 80.48788452148438 59.756248474121094 L64.18671417236328 59.756248474121094 C61.96406555175781 59.756248474121094 60.16250228881836 57.95429992675781 60.16250228881836 55.73202896118164 Z"></path>
<path fill="#c8ea73" fill-opacity="1.0"  filling="0" d="M60.16250228881836 39.43085479736328 L60.16250228881836 55.73202896118164 C60.16250228881836 57.95468521118164 61.96406555175781 59.756248474121094 64.18671417236328 59.756248474121094 L80.48788452148438 59.756248474121094 C80.48788452148438 48.53085708618164 71.38789367675781 39.43085479736328 60.16250228881836 39.43085479736328 Z"></path>
<path fill="#4073c8" fill-opacity="1.0"  filling="0" d="M67.47969055175781 17.03241729736328 L67.47969055175781 21.9921875 C67.47969055175781 24.21484375 69.28125 26.016403198242188 71.50390625 26.016403198242188 L128.49609375 26.016403198242188 C130.71875 26.016403198242188 132.52032470703125 24.21484375 132.52032470703125 21.9921875 L132.52032470703125 17.03241729736328 C132.52032470703125 14.809761047363281 130.71875 13.008201599121094 128.49609375 13.008201599121094 L71.50390625 13.008201599121094 C69.28125 13.008201599121094 67.47969055175781 14.809761047363281 67.47969055175781 17.03241729736328 Z"></path>
<path fill="#4073c8" fill-opacity="1.0"  filling="0" d="M41.463279724121094 176.39804077148438 L41.463279724121094 184.5773468017578 C41.463279724121094 185.91094970703125 42.54413986206055 186.99179077148438 43.87773132324219 186.99179077148438 L58.560935974121094 186.99179077148438 C59.89453125 186.99179077148438 60.97539138793945 185.91094970703125 60.97539138793945 184.5773468017578 L60.97539138793945 176.39804077148438 C60.97539138793945 175.064453125 59.89453125 173.9835968017578 58.560935974121094 173.9835968017578 L43.87773132324219 173.9835968017578 C42.544532775878906 173.9835968017578 41.463279724121094 175.06483459472656 41.463279724121094 176.39804077148438 Z"></path>
<path fill="#e49542" fill-opacity="1.0"  filling="0" d="M73.98358917236328 156.88592529296875 L73.98358917236328 184.5773468017578 C73.98358917236328 185.91094970703125 75.064453125 186.99179077148438 76.39804077148438 186.99179077148438 L91.08125305175781 186.99179077148438 C92.41484069824219 186.99179077148438 93.4957046508789 185.91094970703125 93.4957046508789 184.5773468017578 L93.4957046508789 156.88592529296875 C93.4957046508789 155.55233764648438 92.41484069824219 154.4714813232422 91.08125305175781 154.4714813232422 L76.39804077148438 154.4714813232422 C75.0648422241211 154.4714813232422 73.98358917236328 155.552734375 73.98358917236328 156.88592529296875 Z"></path>
<path fill="#e28424" fill-opacity="1.0"  filling="0" d="M76.39804077148438 186.99179077148438 L91.08125305175781 186.99179077148438 C92.41484069824219 186.99179077148438 93.4957046508789 185.91094970703125 93.4957046508789 184.5773468017578 L93.4957046508789 177.55233764648438 C87.21015167236328 180.75155639648438 80.9124984741211 183.64141845703125 74.63593292236328 186.224609375 C75.07695770263672 186.69570922851562 75.70234680175781 186.99179077148438 76.39804077148438 186.99179077148438 Z"></path>
<path fill="#dd5790" fill-opacity="1.0"  filling="0" d="M106.50390625 132.49569702148438 L106.50390625 184.5773468017578 C106.50390625 185.91094970703125 107.58476257324219 186.99179077148438 108.9183578491211 186.99179077148438 L123.60157012939453 186.99179077148438 C124.93516540527344 186.99179077148438 126.01602172851562 185.91094970703125 126.01602172851562 184.5773468017578 L126.01602172851562 132.49569702148438 C126.01602172851562 131.162109375 124.93516540527344 130.0812530517578 123.60157012939453 130.0812530517578 L108.9183578491211 130.0812530517578 C107.58515930175781 130.0812530517578 106.50390625 131.162109375 106.50390625 132.49569702148438 Z"></path>
<path fill="#da387d" fill-opacity="1.0"  filling="0" d="M126.01640319824219 158.05235290527344 C124.24374389648438 159.28555297851562 122.45664978027344 160.50936889648438 120.63945770263672 161.7121124267578 C115.95976257324219 164.81015014648438 111.24258422851562 167.7296905517578 106.5042953491211 170.4765625 L106.5042953491211 184.5773468017578 C106.5042953491211 185.91094970703125 107.58515930175781 186.99179077148438 108.91874694824219 186.99179077148438 L123.6019515991211 186.99179077148438 C124.935546875 186.99179077148438 126.01640319824219 185.91094970703125 126.01640319824219 184.5773468017578 L126.01640319824219 158.05235290527344 Z"></path>
<path fill="#c8ea73" fill-opacity="1.0"  filling="0" d="M139.02423095703125 116.23554229736328 L139.02423095703125 184.5773468017578 C139.02423095703125 185.91094970703125 140.10507202148438 186.99179077148438 141.4386749267578 186.99179077148438 L156.1218719482422 186.99179077148438 C157.45547485351562 186.99179077148438 158.5363311767578 185.91094970703125 158.5363311767578 184.5773468017578 L158.5363311767578 116.23554229736328 C158.5363311767578 114.90194702148438 157.45547485351562 113.82109069824219 156.1218719482422 113.82109069824219 L141.4386749267578 113.82109069824219 C140.10546875 113.82109069824219 139.02423095703125 114.90194702148438 139.02423095703125 116.23554229736328 Z"></path>
<path fill="#b7e445" fill-opacity="1.0"  filling="0" d="M158.53671264648438 131.5085906982422 C152.4617156982422 137.3332061767578 145.9499969482422 142.998046875 139.0246124267578 148.44178771972656 L139.0246124267578 184.5769500732422 C139.0246124267578 185.91055297851562 140.10546875 186.9914093017578 141.43907165527344 186.9914093017578 L156.1222686767578 186.9914093017578 C157.4558563232422 186.9914093017578 158.53671264648438 185.91055297851562 158.53671264648438 184.5769500732422 L158.53671264648438 131.5085906982422 Z"></path>
<path fill="#9dc6fb" fill-opacity="1.0"  filling="0" d="M160.16250610351562 42.44921875 L100.0 42.44921875 C98.33280944824219 42.44921875 96.9820327758789 41.098045349121094 96.9820327758789 39.431251525878906 C96.9820327758789 37.76445388793945 98.33320617675781 36.41328048706055 100.0 36.41328048706055 L160.16250610351562 36.41328048706055 C161.82968139648438 36.41328048706055 163.1804656982422 37.76445388793945 163.1804656982422 39.431251525878906 C163.1804656982422 41.097652435302734 161.82968139648438 42.44921875 160.16250610351562 42.44921875 Z"></path>
<path fill="#9dc6fb" fill-opacity="1.0"  filling="0" d="M160.16250610351562 55.99921798706055 L100.0 55.99921798706055 C98.33280944824219 55.99921798706055 96.9820327758789 54.648048400878906 96.9820327758789 52.98125076293945 C96.9820327758789 51.314456939697266 98.33320617675781 49.96328353881836 100.0 49.96328353881836 L160.16250610351562 49.96328353881836 C161.82968139648438 49.96328353881836 163.1804656982422 51.314456939697266 163.1804656982422 52.98125076293945 C163.1804656982422 54.648048400878906 161.82968139648438 55.99921798706055 160.16250610351562 55.99921798706055 Z"></path>
<path fill="#9dc6fb" fill-opacity="1.0"  filling="0" d="M160.16250610351562 69.54922485351562 L100.0 69.54922485351562 C98.33280944824219 69.54922485351562 96.9820327758789 68.19805145263672 96.9820327758789 66.53125 C96.9820327758789 64.86445617675781 98.33320617675781 63.51327896118164 100.0 63.51327896118164 L160.16250610351562 63.51327896118164 C161.82968139648438 63.51327896118164 163.1804656982422 64.86445617675781 163.1804656982422 66.53125 C163.1804656982422 68.19805145263672 161.82968139648438 69.54922485351562 160.16250610351562 69.54922485351562 Z"></path>
<path fill="#9dc6fb" fill-opacity="1.0"  filling="0" d="M135.7722625732422 83.09921264648438 L100.0 83.09921264648438 C98.33280944824219 83.09921264648438 96.9820327758789 81.748046875 96.9820327758789 80.08125305175781 C96.9820327758789 78.4144515991211 98.33320617675781 77.06327819824219 100.0 77.06327819824219 L135.7722625732422 77.06327819824219 C137.439453125 77.06327819824219 138.7902374267578 78.4144515991211 138.7902374267578 80.08125305175781 C138.79061889648438 81.748046875 137.439453125 83.09921264648438 135.7722625732422 83.09921264648438 Z"></path>
<path fill="#9dc6fb" fill-opacity="1.0"  filling="0" d="M100.0 103.01797485351562 L45.12187194824219 103.01797485351562 C43.454689025878906 103.01797485351562 42.103912353515625 101.66679382324219 42.103912353515625 100.0 C42.103912353515625 98.33320617675781 43.455078125 96.9820327758789 45.12187194824219 96.9820327758789 L100.0 96.9820327758789 C101.66719055175781 96.9820327758789 103.01797485351562 98.33320617675781 103.01797485351562 100.0 C103.01797485351562 101.66679382324219 101.66719055175781 103.01797485351562 100.0 103.01797485351562 Z"></path>
<path fill="#9dc6fb" fill-opacity="1.0"  filling="0" d="M100.0 116.5679702758789 L45.12187194824219 116.5679702758789 C43.454689025878906 116.5679702758789 42.103912353515625 115.21678924560547 42.103912353515625 113.54999542236328 C42.103912353515625 111.8832015991211 43.455078125 110.53203582763672 45.12187194824219 110.53203582763672 L100.0 110.53203582763672 C101.66719055175781 110.53203582763672 103.01797485351562 111.8832015991211 103.01797485351562 113.54999542236328 C103.01797485351562 115.21678924560547 101.66719055175781 116.5679702758789 100.0 116.5679702758789 Z"></path>
<path fill="#9dc6fb" fill-opacity="1.0"  filling="0" d="M75.60977172851562 130.1183624267578 L45.12187194824219 130.1183624267578 C43.454689025878906 130.1183624267578 42.103912353515625 128.76719665527344 42.103912353515625 127.10039520263672 C42.103912353515625 125.43358612060547 43.455078125 124.0824203491211 45.12187194824219 124.0824203491211 L75.60977172851562 124.0824203491211 C77.27694702148438 124.0824203491211 78.62773132324219 125.43358612060547 78.62773132324219 127.10039520263672 C78.62812042236328 128.76719665527344 77.27694702148438 130.1183624267578 75.60977172851562 130.1183624267578 Z"></path></svg>