<svg xmlns="http://www.w3.org/2000/svg" viewBox="0.0 0.0 200.0 200.0" height="200.0px" width="200.0px"><path fill="#ff4a4a" fill-opacity="1.0"  filling="0" d="M192.75433349609375 176.437744140625 L192.75433349609375 164.33224487304688 L194.259521484375 164.33224487304688 L194.259521484375 78.37857055664062 L193.011962890625 78.37857055664062 L193.011962890625 66.27267456054688 L194.259521484375 66.27267456054688 L194.259521484375 51.98667907714844 C194.259521484375 51.880897521972656 194.23806762695312 51.77589416503906 194.1962890625 51.6786994934082 L182.86367797851562 25.309066772460938 C182.59317016601562 24.679428100585938 181.700439453125 24.679428100585938 181.42953491210938 25.309066772460938 L170.096923828125 51.6786994934082 C170.05514526367188 51.77589416503906 170.03369140625 51.880897521972656 170.03369140625 51.98667907714844 L170.03369140625 66.27267456054688 L171.77113342285156 66.27267456054688 L171.77113342285156 78.37857055664062 L170.03369140625 78.37857055664062 L170.03369140625 164.34707641601562 L171.9538116455078 164.34707641601562 L171.9538116455078 176.45257568359375 L170.03369140625 176.45257568359375 L170.03369140625 199.2200927734375 C170.03369140625 199.65103149414062 170.383056640625 200.00038146972656 170.81399536132812 200.00038146972656 L193.47882080078125 200.00038146972656 C193.90977478027344 200.00038146972656 194.25912475585938 199.65103149414062 194.25912475585938 199.2200927734375 L194.25912475585938 176.437744140625 L192.75433349609375 176.437744140625 Z"></path>
<path fill="#e20059" fill-opacity="1.0"  filling="0" d="M182.86367797851562 25.308670043945312 C182.7395477294922 25.019813537597656 182.48387145996094 24.869918823242188 182.21804809570312 24.846107482910156 L182.21804809570312 200.0 L193.47921752929688 200.0 C193.91015625 200.0 194.259521484375 199.650634765625 194.259521484375 199.21969604492188 L194.259521484375 176.437744140625 L192.75433349609375 176.437744140625 L192.75433349609375 164.33224487304688 L194.259521484375 164.33224487304688 L194.259521484375 78.37857055664062 L193.011962890625 78.37857055664062 L193.011962890625 66.27267456054688 L194.259521484375 66.27267456054688 L194.259521484375 51.98667907714844 C194.259521484375 51.880897521972656 194.23806762695312 51.77589416503906 194.1962890625 51.6786994934082 L182.86367797851562 25.308670043945312 Z"></path>
<path fill="#f4f1f1" fill-opacity="1.0"  filling="0" d="M145.72821044921875 192.77813720703125 L17.20189666748047 192.77813720703125 C14.625602722167969 192.77813720703125 12.517715454101562 190.67025756835938 12.517715454101562 188.09396362304688 L12.517715454101562 11.699546813964844 C12.517715454101562 9.123237609863281 14.625602722167969 7.015357971191406 17.20189666748047 7.015357971191406 L145.72860717773438 7.015357971191406 C148.30490112304688 7.015357971191406 150.4127960205078 9.123237609863281 150.4127960205078 11.699546813964844 L150.4127960205078 188.09396362304688 C150.4123992919922 190.67025756835938 148.3045196533203 192.77813720703125 145.72821044921875 192.77813720703125 Z"></path>
<path fill="#daeaec" fill-opacity="1.0"  filling="0" d="M145.72821044921875 7.015357971191406 L81.4619369506836 7.015357971191406 L81.4619369506836 192.77813720703125 L145.72860717773438 192.77813720703125 C148.30490112304688 192.77813720703125 150.4127960205078 190.67025756835938 150.4127960205078 188.09396362304688 L150.4127960205078 11.699546813964844 C150.4123992919922 9.123237609863281 148.3045196533203 7.015357971191406 145.72821044921875 7.015357971191406 Z"></path>
<path fill="#444" fill-opacity="1.0"  filling="0" d="M138.99197387695312 199.7935028076172 L23.938156127929688 199.7935028076172 C13.903846740722656 199.7935028076172 5.740867614746094 191.86590576171875 5.740867614746094 182.12200927734375 L5.740867614746094 17.671493530273438 C5.740867614746094 7.927604675292969 13.903846740722656 0.0 23.938156127929688 0.0 L138.99234008789062 0.0 C149.02667236328125 0.0 157.18963623046875 7.927604675292969 157.18963623046875 17.671493530273438 L157.18963623046875 182.1216278076172 C157.18963623046875 191.86590576171875 149.02627563476562 199.7935028076172 138.99197387695312 199.7935028076172 Z M23.938156127929688 11.710472106933594 C20.36138916015625 11.710472106933594 17.451332092285156 14.384750366210938 17.451332092285156 17.671493530273438 L17.451332092285156 182.1216278076172 C17.451332092285156 185.40835571289062 20.36138916015625 188.0826416015625 23.938156127929688 188.0826416015625 L138.99234008789062 188.0826416015625 C142.56912231445312 188.0826416015625 145.4791717529297 185.40835571289062 145.4791717529297 182.1216278076172 L145.4791717529297 17.671493530273438 C145.4791717529297 14.384368896484375 142.56912231445312 11.710472106933594 138.99234008789062 11.710472106933594 L23.938156127929688 11.710472106933594 Z"></path>
<path fill="#444" fill-opacity="1.0"  filling="0" d="M87.35894012451172 171.14852905273438 A5.893879413604736 5.893879413604736 0.0 1 1 75.57118225097656 171.14852905273438 A5.893879413604736 5.893879413604736 0.0 1 1 87.35894012451172 171.14852905273438 Z"></path>
<path fill="#444" fill-opacity="1.0"  filling="0" d="M91.29638671875 34.61146545410156 L71.63372802734375 34.61146545410156 C68.40007781982422 34.61146545410156 65.77848815917969 31.989883422851562 65.77848815917969 28.75623321533203 C65.77848815917969 25.5225830078125 68.40007781982422 22.9010009765625 71.63372802734375 22.9010009765625 L91.29638671875 22.9010009765625 C94.53003692626953 22.9010009765625 97.15162658691406 25.5225830078125 97.15162658691406 28.75623321533203 C97.15162658691406 31.989883422851562 94.53043365478516 34.61146545410156 91.29638671875 34.61146545410156 Z"></path>
<path fill="#4d2ee6" fill-opacity="1.0"  filling="0" d="M125.71072387695312 152.59873962402344 L37.219783782958984 152.59873962402344 C33.98612976074219 152.59873962402344 31.364547729492188 149.9771728515625 31.364547729492188 146.74349975585938 L31.364547729492188 103.60565185546875 C31.364547729492188 100.37200164794922 33.98612976074219 97.75041961669922 37.219783782958984 97.75041961669922 L125.71072387695312 97.75041961669922 C128.9443817138672 97.75041961669922 131.5659637451172 100.37200164794922 131.5659637451172 103.60565185546875 L131.5659637451172 146.74349975585938 C131.5659637451172 149.9771728515625 128.9443817138672 152.59873962402344 125.71072387695312 152.59873962402344 Z M43.075016021728516 140.88827514648438 L119.8554916381836 140.88827514648438 L119.8554916381836 109.46089172363281 L43.075016021728516 109.46089172363281 L43.075016021728516 140.88827514648438 Z"></path>
<path fill="#4d2ee6" fill-opacity="1.0"  filling="0" d="M62.04363250732422 62.61393356323242 L36.92702102661133 62.61393356323242 C33.69336700439453 62.61393356323242 31.07178497314453 59.992347717285156 31.07178497314453 56.758697509765625 C31.07178497314453 53.525047302246094 33.69336700439453 50.903465270996094 36.92702102661133 50.903465270996094 L62.04323959350586 50.903465270996094 C65.27690124511719 50.903465270996094 67.89847564697266 53.525047302246094 67.89847564697266 56.758697509765625 C67.89847564697266 59.992347717285156 65.27728271484375 62.61393356323242 62.04363250732422 62.61393356323242 Z"></path>
<path fill="#4d2ee6" fill-opacity="1.0"  filling="0" d="M62.04363250732422 84.69558715820312 L36.92702102661133 84.69558715820312 C33.69336700439453 84.69558715820312 31.07178497314453 82.07400512695312 31.07178497314453 78.84034729003906 C31.07178497314453 75.60670471191406 33.69336700439453 72.98511505126953 36.92702102661133 72.98511505126953 L62.04323959350586 72.98511505126953 C65.27690124511719 72.98511505126953 67.89847564697266 75.60670471191406 67.89847564697266 78.84034729003906 C67.89847564697266 82.07400512695312 65.27728271484375 84.69558715820312 62.04363250732422 84.69558715820312 Z"></path>
<path fill="#292929" fill-opacity="1.0"  filling="0" d="M138.99197387695312 0.0 L81.4619369506836 0.0 L81.4619369506836 11.710472106933594 L138.99234008789062 11.710472106933594 C142.56912231445312 11.710472106933594 145.4791717529297 14.384750366210938 145.4791717529297 17.671493530273438 L145.4791717529297 182.1216278076172 C145.4791717529297 185.40835571289062 142.56912231445312 188.0826416015625 138.99234008789062 188.0826416015625 L81.4619369506836 188.0826416015625 L81.4619369506836 199.79312133789062 L138.99234008789062 199.79312133789062 C149.02667236328125 199.79312133789062 157.18963623046875 191.86550903320312 157.18963623046875 182.1216278076172 L157.18963623046875 17.671493530273438 C157.18963623046875 7.927604675292969 149.02627563476562 0.0 138.99197387695312 0.0 Z"></path>
<path fill="#012f7e" fill-opacity="1.0"  filling="0" d="M125.71072387695312 97.75041961669922 L81.4619369506836 97.75041961669922 L81.4619369506836 109.46089172363281 L119.8554916381836 109.46089172363281 L119.8554916381836 140.88827514648438 L81.4619369506836 140.88827514648438 L81.4619369506836 152.59873962402344 L125.71072387695312 152.59873962402344 C128.9443817138672 152.59873962402344 131.5659637451172 149.9771728515625 131.5659637451172 146.74349975585938 L131.5659637451172 103.60565185546875 C131.5659637451172 100.37200164794922 128.9443817138672 97.75041961669922 125.71072387695312 97.75041961669922 Z"></path>
<path fill="#292929" fill-opacity="1.0"  filling="0" d="M91.29638671875 22.9010009765625 L81.4619369506836 22.9010009765625 L81.4619369506836 34.61146545410156 L91.2967758178711 34.61146545410156 C94.53043365478516 34.61146545410156 97.15200805664062 31.989883422851562 97.15200805664062 28.75623321533203 C97.15200805664062 25.5225830078125 94.53043365478516 22.9010009765625 91.29638671875 22.9010009765625 Z"></path>
<path fill="#292929" fill-opacity="1.0"  filling="0" d="M81.46505737304688 165.254638671875 C81.4638900756836 165.254638671875 81.46271514892578 165.254638671875 81.4619369506836 165.254638671875 L81.4619369506836 177.0424041748047 L81.46505737304688 177.0424041748047 C84.72017669677734 177.0424041748047 87.35894012451172 174.4036407470703 87.35894012451172 171.14852905273438 C87.35894012451172 167.89340209960938 84.72017669677734 165.254638671875 81.46505737304688 165.254638671875 Z"></path>
<path fill="#e6ffff" fill-opacity="1.0"  filling="0" d="M170.03369140625 66.10833740234375 L194.259521484375 66.10833740234375 L194.259521484375 78.51519775390625 L170.03369140625 78.51519775390625 L170.03369140625 66.10833740234375 Z"></path>
<path fill="#cff" fill-opacity="1.0"  filling="0" d="M182.2176513671875 66.10833740234375 L194.259521484375 66.10833740234375 L194.259521484375 78.51519775390625 L182.2176513671875 78.51519775390625 L182.2176513671875 66.10833740234375 Z"></path>
<path fill="#e6ffff" fill-opacity="1.0"  filling="0" d="M170.03369140625 164.05276489257812 L194.259521484375 164.05276489257812 L194.259521484375 176.45960998535156 L170.03369140625 176.45960998535156 L170.03369140625 164.05276489257812 Z"></path>
<path fill="#cff" fill-opacity="1.0"  filling="0" d="M182.2176513671875 164.05316162109375 L194.259521484375 164.05316162109375 L194.259521484375 176.4600067138672 L182.2176513671875 176.4600067138672 L182.2176513671875 164.05316162109375 Z"></path></svg>