<?xml version='1.0' encoding='utf-8'?>
<svg xmlns:svg="http://www.w3.org/2000/svg" version="1.1" id="Layer_1" x="0px" y="0px" viewBox="0 0 500 500" style="width: 188px;" xml:space="preserve" data-imageid="basketball-1-75" imageName="Basketball 1" class="illustrations_image"><svg:style type="text/css">
	.st0_basketball-1-75{fill:#DD6F31;}
	.st1_basketball-1-75{fill:url(#SVGID_1_);}
	.st2_basketball-1-75{fill:url(#SVGID_00000122721058088266752640000018081906498795502720_);}
	.st3_basketball-1-75{fill:#68E1FD;}
	.st4_basketball-1-75{fill:#2E1920;}
	.st5_basketball-1-75{fill:url(#SVGID_00000075149701560721407410000009121914581141629343_);}
	.st6_basketball-1-75{fill:#412E32;}
	.st7_basketball-1-75{fill:#F2F2F2;}
	.st8_basketball-1-75{fill:#FB9328;}
	.st9_basketball-1-75{fill:#EDB29F;}
	.st10_basketball-1-75{opacity:0.59;fill:#3C92A0;enable-background:new    ;}
	.st11_basketball-1-75{opacity:0.3;fill:#2E1920;enable-background:new    ;}
	.st12_basketball-1-75{fill:#66C652;}
	.st13_basketball-1-75{fill:#053855;}
</svg:style><svg:path class="st3_basketball-1-75 targetColor" points="271.1,60.5 271.1,124.4 337.9,162.7 337.9,99.4 &#09;" style="fill: rgb(104, 225, 253);" id="element_135" d="M 271.1 119.26908763060253 L 271.1752095865949 119.16896697322584 L 271.1813834388992 119.16091949532778 L 271.31045035538574 118.99617110333726 L 271.3166776973274 118.98838339333956 L 271.44990930943874 118.82513268402212 L 271.4561805585088 118.81760036135869 L 271.5935397642794 118.6558702142597 L 271.59984597808756 118.64858846427144 L 271.7412956755519 118.48840175893628 L 271.74762854424546 118.48136540236699 L 271.8931316314382 118.32274501834104 L 271.89948346524915 118.31594857603729 L 272.04900284020465 118.15891739286592 L 272.05536655295083 118.15235514551773 L 272.2088651137038 117.99693604274631 L 272.2152342029993 117.99060208562642 L 272.3726748475841 117.83681794280034 L 272.37904337246215 117.83070623553405 L 272.5403889989134 117.67857993219869 L 272.54675155548523 117.67268434368313 L 272.71196506183736 117.52223875938387 L 272.7183167575499 117.5165531080236 L 272.88736104183755 117.3678111223058 L 272.8936974688177 117.3623292117816 L 273.0665354290754 117.21531370419063 L 273.0728526369887 117.21002935500677 L 273.24944717125084 117.06476320508803 L 273.2557416400374 117.05967028216612 L 273.43605564633856 116.91617636946499 L 273.4423242591299 116.91126880606608 L 273.6263206355046 116.76957001012791 L 273.63256065197885 116.7648418283862 L 273.8202022964616 116.6249610287564 L 273.82641132683835 116.62040635711155 L 274.01766113746373 116.48236643333547 L 274.02383711730533 116.47797952114067 L 274.21865799210786 116.3418033527637 L 274.22479915805 116.33757858234036 L 274.4 116.2189646898001 L 274.4 67.2 L 333.1 100.6 L 333.1 155.2 L 305.35446134255403 139.60199700688725 L 305.3327367483402 139.69172842251595 L 305.3325914654785 139.69232688807264 L 305.29047321120845 139.86536025201508 L 305.29032677464625 139.86596024088303 L 305.24799703917296 140.03893238658245 L 305.24784944357225 140.03953389326182 L 305.20530760852967 140.21244482071822 L 305.20515884856417 140.21304783965374 L 305.16240429558616 140.3858975488671 L 305.16225436594226 140.38650207444718 L 305.11928647666275 140.55929056541748 L 305.1191353720398 140.55989659197448 L 305.0759535280928 140.73262386470174 L 305.0758012432033 140.73323138651253 L 305.0324048262225 140.90589744099677 L 305.0322513557929 140.90650645228075 L 304.9886397474124 141.07911128852194 L 304.98848508618335 141.07972178344323 L 304.944657668037 141.2522654014414 L 304.9445018107638 141.25287737410733 L 304.9004579644855 141.42535977386245 L 304.9003009059387 141.42597321832346 L 304.8560400131624 141.59839439983557 L 304.855881748128 141.59900931008636 L 304.8114031904875 141.77136927335542 L 304.81124371376774 141.771985643333 L 304.76654687289704 141.94428438835902 L 304.7663861793105 141.9449022119444 L 304.7214704368435 142.11713973872736 L 304.72130852122564 142.1177590097448 L 304.6761732587962 142.28993531828473 L 304.67601011600027 142.29055603050094 L 304.6306547152424 142.46267112079786 L 304.6304903401391 142.46329326792346 L 304.5849141826866 142.6353471399773 L 304.5847485701654 142.6359707156654 L 304.5389510376522 142.80796336947623 L 304.53878418262104 142.80858836732332 L 304.49276465668106 142.98051980289114 L 304.49259655406746 142.98114621643606 L 304.4463544163347 143.15301643376083 L 304.44618506108566 143.15364425648661 L 304.3997196931939 143.32545325556833 L 304.39954908027687 143.32608248089963 L 304.3604314563386 143.46997791583485 L 337.9 162.7 L 337.9 99.4 L 271.1 60.5 L 271.1 119.26908763060253 Z M 275.03574632085156 126.65657311509902 L 275.02902770238586 126.63698066351667 L 275.01483713680176 126.59566258905564 L 275.0006123370349 126.55430716146597 L 274.9863539234927 126.51291502530141 L 274.9720625167342 126.47148682499294 L 274.9577387370947 126.43002320377182 L 274.94338320507705 126.38852480481394 L 274.9289965410345 126.34699227033235 L 274.91457936535903 126.30542624213295 L 274.90592120781895 126.28049594562412 L 277.43724063599836 127.37158190604629 L 277.58672279840084 127.33081404357289 L 277.6104330812665 127.21657358976587 L 277.62154419237766 127.16303823623002 L 277.65544178688725 126.99971346268376 L 277.6633030233995 127.02546251738279 L 277.66346409223894 127.02599113548287 L 277.6765954053702 127.06917287636892 L 277.6767544894441 127.06969704865433 L 277.68982458433237 127.11284725286974 L 277.68998171251536 127.1133670200779 L 277.7029905891606 127.15648383252437 L 277.70314578976075 127.15699923471004 L 277.71609344816295 127.20008080028931 L 277.716246748934 127.20059187683317 L 277.7291331890932 127.24363634044697 L 277.7292846172463 127.24414313006504 L 277.7421098391624 127.28714863661509 L 277.7422594213754 127.28765117735897 L 277.7424638253392 127.28833921804426 L 279.69117229506236 126.7568732717561 L 279.658101728205 126.72699878974481 L 279.65632799980756 126.72108627461661 L 279.68664278858625 126.71199197216845 L 279.7169698504855 126.70289479279363 L 279.7473098025475 126.69379535711006 L 279.77766326115426 126.68469428686 L 279.80803084202495 126.67559220490993 L 279.8384131602144 126.66648973524947 L 279.868810830113 126.65738750298951 L 279.8992244654462 126.64828613436032 L 279.92965467926985 126.63918625671032 L 279.9601020839727 126.63008849850237 L 279.9905672912691 126.62099348931284 L 280.0210509122025 126.61190185982666 L 280.0515535571379 126.60281424183589 L 280.082075835763 126.59373126823469 L 280.1126183570817 126.58465357301687 L 280.14318172941574 126.57558179126997 L 280.17376656039534 126.56651655917292 L 280.20437345696155 126.55745851398927 L 280.2350030253589 126.54840829406339 L 280.2656558711325 126.53936653881476 L 280.2963325991244 126.5303338887321 L 280.3270338134686 126.52131098536775 L 280.35776011758827 126.51229847133074 L 280.3885121141876 126.50329699028146 L 280.4192904052522 126.49430718692304 L 280.4463905786594 126.48640944994543 L 280.4425183750055 126.50654490894604 L 280.43330114712575 126.55447449392062 L 281.586326308168 126.24001308636363 L 277.15553679233494 123.74910926996684 L 277.1386197833141 123.75550782429342 L 277.1068089308734 123.76755481644717 L 277.0750422951475 123.7796004228676 L 277.04332051465406 123.79164463086916 L 277.0116442279749 123.80368742761112 L 276.9800140742624 123.8157287999025 L 276.94843069321877 123.82776873420637 L 276.9168947245125 123.83980721685943 L 276.8854068087251 123.85184423370765 L 276.8539675865609 123.86387977040437 L 276.82257769918834 123.87591381227662 L 276.79123778830984 123.88794634429495 L 276.7599484959611 123.89997735114649 L 276.72871046461836 123.91200681719023 L 276.6975243373641 123.92403472638934 L 276.6663907575081 123.93606106245312 L 276.63531036894955 123.94808580869366 L 276.6042838160599 123.96010894806642 L 276.5733117436773 123.97213046316821 L 276.56895404882016 123.97382464531903 L 276.57316709214604 123.98363041068517 L 276.57359240360915 123.9846232691187 L 276.591008993753 124.02540265774014 L 276.59142767557483 124.0263858713525 L 276.60878304747564 124.06726358018247 L 276.60919522948967 124.0682372674327 L 276.6264893831475 124.1092114413729 L 276.6268951921533 124.11017571906379 L 276.6441281275681 124.15124450301595 L 276.6445276874093 124.15219948630694 L 276.66169940458104 124.19336102517279 L 276.66209283622356 124.19430682759877 L 276.67920333515224 124.23555926628003 L 276.6795907567591 124.23649599976778 L 276.69664003744475 124.27783748316621 L 276.69702156444885 124.27876525805077 L 276.7140096268915 124.32019393106805 L 276.7143853720677 124.32111285611279 L 276.73131221626727 124.36262686365068 L 276.7316822897993 124.36353704606074 L 276.74854791575586 124.40513453302094 L 276.7489124253049 124.40603607846376 L 276.7628231400812 124.44053811144747 L 274.48752523944614 125.09260519272702 L 274.4859961152723 125.08830633123827 L 274.4709518970693 125.04603119106376 L 274.4558963813748 125.00374218697135 L 274.4408301869032 124.96143994317454 L 274.42681240985434 124.92209593591063 L 274.41294774737435 124.93210260535272 L 274.3986523500928 124.94259257288509 L 274.384468316989 124.95317431186724 L 274.37039494830157 124.96384807461958 L 274.35643154614235 124.97461413245611 L 274.3425774152364 124.98547277559857 L 274.3288318636193 124.99642431309385 L 274.3151942033639 125.00746907267919 L 274.30166375127556 125.0186074006414 L 274.2882398296078 125.02983966162871 L 274.2749217667712 125.04116623843366 L 274.26170889805144 125.05258753173383 L 274.24860056627944 125.06410395983707 L 274.2355961225321 125.07571595836484 L 274.2226949268372 125.0874239798914 L 274.20989634878595 125.09922849362805 L 274.1971997682527 125.11112998496937 L 274.18460457598735 125.12312895511563 L 274.1721101742722 125.13522592059337 L 274.1597159774999 125.14742141280817 L 274.14742141280607 125.15971597750202 L 274.135225920596 125.17211017426946 L 274.1231289551145 125.18460457598856 L 274.1111299849716 125.19719976825037 L 274.1069327147497 125.20167744065833 L 273.083512146679 125.49497479858103 L 273.6913291068186 125.75696486760671 L 273.70157620986936 125.71604838977427 L 273.70773151090106 125.71651338093356 L 273.70425479334654 125.7625362842136 L 273.7185135251994 125.76868228932257 L 273.7158597992379 125.77406277957483 L 273.707544311529 125.79123439041642 L 273.70105581671424 125.80488260364741 L 273.6985793835671 125.83766428390264 L 273.69261472657365 125.88561968910712 L 273.6924430687613 125.88638577146043 L 275.03574632085156 126.65657311509902 Z M 283.7548903778109 131.65572307590054 L 283.7472106391726 131.5974153943174 L 283.73911037803816 131.53739521289037 L 283.7308160487936 131.47737497089312 L 283.72232882204617 131.4173566463923 L 283.71364987035764 131.35734221689026 L 283.70478036821066 131.2973336593148 L 283.6957214919854 131.23733295007227 L 283.6864744199048 131.17734206488953 L 283.67704033203546 131.11736297901828 L 283.6674204102372 131.05739766709942 L 283.6576158381436 130.99744810322278 L 283.64762780111903 130.93751626083653 L 283.6374574862652 130.87760411295795 L 283.6271060823428 130.81771363186317 L 283.6165747798055 130.75784678944714 L 283.6058647707183 130.69800555689812 L 283.594977248781 130.63819190497503 L 283.58391340925994 130.57840780376733 L 283.572674449014 130.51865522296683 L 283.56126156641307 130.4589361315562 L 283.54967596138556 130.39925249818435 L 283.53791883533194 130.33960629082782 L 283.5259913911431 130.27999947700295 L 283.5138948331747 130.22043402373862 L 283.5016303672278 130.16091189758495 L 283.48919920051264 130.10143506453275 L 283.4766025416573 130.04200549015286 L 283.4638416006788 129.9826251395462 L 283.45091758897024 129.9232959773707 L 283.4378317192662 129.86401996776343 L 283.42458520566936 129.80479907454279 L 283.41117926358953 129.74563526100823 L 283.3976151097665 129.68653049011343 L 283.38389396222544 129.62748672434134 L 283.3700170403093 129.56850592590843 L 283.35598556460855 129.50959005652692 L 283.3418007570017 129.4507410776367 L 283.32746384061386 129.3919609502871 L 283.3129760398316 129.33325163525274 L 283.29833858025626 129.2746150928943 L 283.28355268875794 129.2160532834229 L 283.2686195933795 129.15756816656355 L 283.2535405234234 129.09916170194114 L 283.2383167093878 129.0408358488698 L 283.22294938294914 128.98259256632443 L 283.20743977703853 128.92443381326802 L 283.1917891257187 128.8663615482168 L 283.1759986642859 128.8083777296565 L 283.1600696292185 128.75048431587632 L 283.144003258163 128.69268326494372 L 283.12780078996735 128.63497653485138 L 283.1114634646548 128.5773660834423 L 283.0949925234171 128.51985386840715 L 283.07838920867675 128.4624418475178 L 283.06165476397416 128.40513197825024 L 283.0559898375104 128.38591589162868 L 283.0436057994386 128.38861834527066 L 283.0020561052879 128.39770393143854 L 282.96056609416297 128.40679555113022 L 282.9191351557097 128.41589381268687 L 282.87776267867713 128.42499932440361 L 282.83644805143274 128.43411269441634 L 282.7951906615676 128.44323453078897 L 282.7539898959813 128.45236544149546 L 282.7128451409579 128.4615060344034 L 282.6717557821159 128.47065691728608 L 282.63072120436533 128.4798186978327 L 282.589740791973 128.48899198363515 L 282.5488139284569 128.49817738221233 L 282.50793999674227 128.50737550097696 L 282.467118378848 128.51658694730722 L 282.4263484564906 128.52581232841214 L 282.38562961017186 128.53505225153964 L 282.34496121998853 128.544307323795 L 282.30434266535036 128.5535781522068 L 282.26377332469707 128.56286534379333 L 282.22325257605377 128.57216950543844 L 282.18277979636275 128.58149124404665 L 282.14235436212465 128.59083116639883 L 282.1019756490339 128.6001898792383 L 282.06164303184835 128.6095679893044 L 282.0213558848622 128.61896610322563 L 281.9811135813564 128.6283848276507 L 281.94091549408347 128.63782476913866 L 281.9007609948511 128.64728653425962 L 281.8606494548373 128.65677072952482 L 281.82058024435366 128.6662779614457 L 281.780552733028 128.6758088364949 L 281.7405662896928 128.68536396113655 L 281.7006202823707 128.69494394183403 L 281.6607140783159 128.70454938504446 L 281.6208470441134 128.7141808971992 L 281.58101854542093 128.72383908477073 L 281.5412279472036 128.73352455422068 L 281.5014746136133 128.74323791203395 L 281.46175790808775 128.7529797646996 L 281.4220771931575 128.7627507187634 L 281.3824318307163 128.77255138076654 L 281.34282118179794 128.7823823573062 L 281.3032446066338 128.79224425502684 L 281.2637014646944 128.80213768061589 L 281.22419111472493 128.81206324080034 L 281.18471291464607 128.82202154237783 L 281.14526622150885 128.83201319223397 L 281.10585039180694 128.84203879726994 L 281.06646478107024 128.85209896451153 L 281.0271087440386 128.86219430107184 L 280.9877816348993 128.872325414097 L 280.9484828067802 128.88249291090278 L 280.90921161224793 128.89269739885356 L 280.86996740306944 128.9029394854303 L 280.83074953018826 128.9132197782443 L 280.7915573437548 128.92353888503638 L 280.7523901933516 128.93389741362495 L 280.71324742761874 128.94429597201196 L 280.67412839450674 128.9547351683238 L 280.63503244126946 128.9652156108204 L 280.5959589143809 128.9757379079253 L 280.5569071595716 128.98630266822346 L 280.5178765218726 128.99691050045746 L 280.4788663455854 129.0075620135433 L 280.43987597430316 129.01825781657257 L 280.40090475085475 129.02899851883606 L 280.3619520174073 129.0397847298037 L 280.32301711548274 129.05061705912766 L 280.28409938579034 129.06149611669753 L 280.24519816844327 129.07242251258813 L 280.2063128028345 129.0833968571026 L 280.1674426277431 129.0944197607507 L 280.12858698120885 129.10549183429285 L 280.0897452006757 129.1166136887078 L 280.0509166229135 129.1277859352234 L 280.01210058405815 129.13900918531374 L 279.973296419641 129.15028405069904 L 279.93450346451925 129.16161114337444 L 279.89572105297384 129.17299107559023 L 279.8569485187479 129.18442445984883 L 279.8332496602768 129.19144757870382 L 279.827171331198 129.22270755682345 L 279.8201006241271 129.2590711931879 L 279.81302991705655 129.2954348295508 L 279.8059592099857 129.33179846591517 L 279.79888850291513 129.36816210227806 L 279.7954991473065 129.3855930739796 L 283.7548903778109 131.65572307590054 Z M 292.9737602455817 136.94139247613438 L 292.9754373904728 136.9315900629284 L 292.975616277625 136.93055111103658 L 292.97797802384963 136.91692036422555 L 292.97815658187204 136.91589615328485 L 292.98054677293686 136.90226973503647 L 292.9807249624245 136.90125996673873 L 292.9831429799635 136.88763911378516 L 292.9833207638219 136.88664349745403 L 292.9857659894688 136.87302944652745 L 292.98594333280016 136.87204769887384 L 292.98841514818906 136.85844168670647 L 292.9885920181765 136.8574735316348 L 292.9910898049412 136.8438767949588 L 292.9912661707491 136.8429219633239 L 292.99378931052354 136.82933573887144 L 292.9939651431948 136.82839396828837 L 292.9965130176129 136.81481949279166 L 292.99668828997505 136.8138905274334 L 292.9992602806707 136.80032903762458 L 292.9994349672475 136.79941262801964 L 293.00203045585465 136.7858653606309 L 293.0022045327782 136.78496126349245 L 293.00482290093066 136.77142945525603 L 293.0049963458646 136.77053743327994 L 293.00763697519636 136.75702232092797 L 293.0078097672553 136.756142142636 L 293.0104720394003 136.7426449629007 L 293.0106441590785 136.74177640246668 L 293.01332745567055 136.7282983920802 L 293.0134988847744 136.72744122915353 L 293.0162025874475 136.71398362484805 L 293.01637330902656 136.71313764441544 L 293.01909679941457 136.69970168292315 L 293.019266797702 136.69886667513936 L 293.02200945743886 136.68545359319245 L 293.0221787177905 136.68462935324052 L 293.0249399285101 136.67124038757117 L 293.02510843734814 136.67042671551832 L 293.02788758068436 136.65706310285873 L 293.0280553254449 136.6562598035125 L 293.03085178303166 136.64292278059483 L 293.03101875211286 136.64212966337348 L 293.0338319055841 136.6288204669299 L 293.0339980882974 136.6280373457337 L 293.036827319287 136.61475721249641 L 293.0369927058126 136.61398390557497 L 293.0398373959545 136.60073407227617 L 293.0400019772963 136.5999704021134 L 293.0428615082244 136.58675210548526 L 293.0430252761684 136.58599789868114 L 293.0458990295166 136.5728123754558 L 293.0460619765926 136.57206746260528 L 293.0489493339948 136.55891594951498 L 293.0491114534375 136.55818016510545 L 293.0520117965276 136.54506389888238 L 293.05217308224104 136.5443370811833 L 293.055085792653 136.53125729855958 L 293.05524623917614 136.53053928952224 L 293.0581706985438 136.5174972272301 L 293.0583303010208 136.5167878723732 L 293.0612658909782 136.5037847671448 L 293.0614246451219 136.5030839154851 L 293.06437074730275 136.49012100405264 L 293.06452864937313 136.489428507974 L 293.06748464541147 136.47650702706966 L 293.06764169217985 136.47582274226735 L 293.07060696370957 136.4629439286233 L 293.0707631524371 136.46226771399319 L 293.0737370810921 136.44943280434163 L 293.0738924095038 136.44876452189715 L 293.076874376918 136.43597475297025 L 293.0770288431757 136.43531426777278 L 293.08001823098294 136.42257087630273 L 293.08017183366724 136.42191805635872 L 293.0831680235015 136.4092222790777 L 293.0833207615848 136.40857699528382 L 293.08632313507997 136.395930068924 L 293.0864750079098 136.3952921949735 L 293.08948294669983 136.38269535626708 L 293.0896339539763 136.38206476858795 L 293.0912811773588 136.37520580795558 L 293.09002932072775 136.36657193155938 L 293.08702953939536 136.34596127555793 L 293.0840282158857 136.32542187616414 L 293.0810247678354 136.30495319285538 L 293.0792279364404 136.29276064237416 L 292.8943686896679 136.313167546752 L 292.8895460015625 136.31367627093277 L 292.576176308303 136.34519645182547 L 292.57136560784664 136.34565686178436 L 292.2561983243598 136.37428370773594 L 292.2513989007795 136.37469634219045 L 292.01834630409905 136.39360274621248 L 292.9737602455817 136.94139247613438 Z M 297.8419248264537 139.73257067145474 L 297.842452173331 139.7324033801693 L 297.8842775349862 139.71907773268663 L 297.92609103202346 139.7056973567514 L 297.9678927126622 139.69226105148604 L 298.00968262643653 139.67876761641526 L 298.05146082393566 139.66521585153393 L 298.0932273569934 139.65160455723043 L 298.1349822786196 139.63793253429228 L 298.17672564302546 139.6241985838816 L 298.21845750561585 139.61040150752063 L 298.2601779230472 139.59654010705515 L 298.3018869531272 139.58261318466992 L 298.34358465494597 139.56861954282712 L 298.38527108885324 139.55455798425498 L 298.426946316344 139.54042731196742 L 298.4686104002627 139.5262263291758 L 298.5102634046392 139.51195383932466 L 298.5519053947745 139.49760864604235 L 298.5935364372815 139.48318955310626 L 298.6351565999938 139.46869536445337 L 298.6767659520077 139.45412488414428 L 298.71836456377815 139.4394769163078 L 298.7599525069548 139.4247502651763 L 298.80152985453606 139.4099437350085 L 298.8430966807831 139.3950561300972 L 298.88465306126693 139.38008625472872 L 298.9261990728432 139.36503291316833 L 298.96773479370404 139.34989490961703 L 299.00926030329515 139.334671048217 L 299.0507756823888 139.3193601330001 L 299.092281013066 139.3039609678687 L 299.133776378734 139.2884723565635 L 299.1752618640688 139.27289310265851 L 299.21673755507896 139.25722200951066 L 299.258203539032 139.24145788026058 L 299.29965990461403 139.2255995177448 L 299.341106741654 139.2096457245726 L 299.38254414140994 139.19359530298908 L 299.4239721963949 139.17744705491293 L 299.4653910003616 139.1611997819143 L 299.5068006484643 139.14485228512197 L 299.5482012370231 139.1284033652868 L 299.5895928637349 139.1118518226684 L 299.63097562746333 139.09519645708872 L 299.67234962844736 139.07843606781822 L 299.7119650718639 139.06228296945676 L 299.7125473758435 139.05362954865356 L 299.7126480457513 139.0521655990638 L 299.71377305979337 139.03614898975061 L 299.7138765676963 139.0347052678417 L 299.7150498142934 139.0186663973492 L 299.71515603038006 139.01724232242555 L 299.71637689116625 139.00118304585203 L 299.71648569337276 138.99977805234738 L 299.7177535499819 138.98370022479114 L 299.7178648236091 138.98231376164333 L 299.7191790576751 138.96621923820263 L 299.71929269502846 138.96485076825343 L 299.7206526881852 138.94874140402652 L 299.720768588237 138.9473904034508 L 299.7221737221184 138.93126805353597 L 299.7222917901913 138.9299340112762 L 299.7237414464313 138.91380053077174 L 299.7238615939015 138.91248294800218 L 299.725355154134 138.89634019200636 L 299.7254772981529 138.89503858160697 L 299.7270141440118 138.87888840521805 L 299.7271382072454 138.87760229126974 L 299.7287177203645 138.86144654958596 L 299.72884363075093 138.86017546686332 L 299.7304651927643 138.84401601498303 L 299.730592883283 138.84275950850065 L 299.7322558758245 138.8265982015221 L 299.7323852842858 138.8253558260446 L 299.73408908898926 138.80919451906604 L 299.7342201578337 138.80796583866893 L 299.7359641563331 138.79180638678864 L 299.7360968324461 138.79059097441524 L 299.7378804063754 138.7744352327315 L 299.73801464091395 138.7732326697648 L 299.73983717190697 138.75708249337586 L 299.73997292013945 138.75589236921437 L 299.74183378983014 138.73974961321855 L 299.7419710109863 138.73857152487489 L 299.7438696010085 138.72243804437042 L 299.74400825814166 138.72127159606157 L 299.7459439501294 138.70514924614673 L 299.74608400998767 138.70399404891498 L 299.7480561855748 138.68788468468807 L 299.7481976184842 138.68674035600674 L 299.7502056593046 138.67064583256604 L 299.750348439061 138.66951199596218 L 299.7523917267486 138.65343416840594 L 299.75253583051796 138.65231045309952 L 299.7546137467067 138.636251176526 L 299.75475915493604 138.63513721705482 L 299.75687108125976 138.6190983465623 L 299.7570177775966 138.61799378242117 L 299.7582374710446 138.6088877419209 L 299.7567718842552 138.6092906187846 L 299.7557304987771 138.60957567746968 L 299.70724565029224 138.62279119145043 L 299.7062081603048 138.62307278223125 L 299.65772331181995 138.63617637194946 L 299.6566897575764 138.63645451521012 L 299.6082049090915 138.6494467990319 L 299.60717533045454 138.64972151538814 L 299.5586904819697 138.6626031116796 L 299.55766491840967 138.66287442197262 L 299.5091800699248 138.67564594909982 L 299.50815856052003 138.67591387438958 L 299.4596737120352 138.68857595071862 L 299.4586562954688 138.68884051227815 L 299.41017144698395 138.70139375617515 L 299.40915816154273 138.70165497548425 L 299.3606733130579 138.71410000531526 L 299.3596641966325 138.714357904054 L 299.3111793481476 138.72669533818512 L 299.31017443822986 138.7269499382281 L 299.261689589745 138.73918039502541 L 299.260688923429 138.7394317184351 L 299.21220407494417 138.75155581626476 L 299.21120768892143 138.75180388528622 L 299.1627228404366 138.76382224251424 L 299.16173077100166 138.7640670795676 L 299.1132459225168 138.77598031456012 L 299.11225820556103 138.77622194223568 L 299.0637733570762 138.78803067335878 L 299.0627900280899 138.78826911441038 L 299.01430517960506 138.79997396003014 L 299.01332627367685 138.80020923736905 L 298.964841425192 138.81181081585154 L 298.96386697700933 138.81204295254022 L 298.9153821285245 138.8235418822516 L 298.9144121723709 138.82377090149836 L 298.865927323886 138.83516780080464 L 298.8649618936455 138.8353937259565 L 298.81647704516064 138.84668921322384 L 298.8155161743124 138.8469120677617 L 298.76703132582753 138.85810676135614 L 298.7660750474518 138.85832656888772 L 298.71759019896695 138.86942108717537 L 298.7166385457411 138.86963787143006 L 298.6681536972563 138.88063283277702 L 298.66720670145656 138.8808466175998 L 298.6187218529717 138.89174264037214 L 298.61777954647516 138.89195344971716 L 298.5692946979903 138.902751152281 L 298.5683571122734 138.90295901020644 L 298.51987226378856 138.9136590109279 L 298.51893942992854 138.9138639415899 L 298.4704545814437 138.924466858835 L 298.46952653012124 138.92466888648147 L 298.4210416816364 138.93517533861635 L 298.4201184431327 138.93537448758212 L 298.3716335946479 138.9457850929728 L 298.3707151988501 138.94598138767293 L 298.32223035036526 138.9562967646856 L 298.32131682676396 138.95649022961052 L 298.2728319782791 138.9667109966112 L 298.2719233559724 138.9669016563205 L 298.2234385074875 138.9770284316753 L 298.2225348151796 138.97721631079267 L 298.1740499666947 138.9872497128677 L 298.1731512326996 138.987434836075 L 298.1246663842148 138.99737548323634 L 298.1237726364566 138.99755787526828 L 298.0752877879717 139.00740638588204 L 298.074399053986 139.00758607152093 L 298.0259142055011 139.01734306395315 L 298.02503051243815 139.01752006802303 L 297.9765456639533 139.02718616063984 L 297.9756670385773 139.02736050800172 L 297.9271821900924 139.0369363191692 L 297.9263086587855 139.03710803471532 L 297.8778238103007 139.04659418279957 L 297.87695539906326 139.04676329144843 L 297.8284705505784 139.05616039481555 L 297.8276072850319 139.05632692150672 L 297.779122436547 139.06563559852276 L 297.7782643419368 139.06579956821133 L 297.72977949345193 139.07502043724244 L 297.728926594646 139.07518187489487 L 297.68044174616114 139.08431555430707 L 297.67959406765743 139.08447448489486 L 297.63110921917263 139.0935215930543 L 297.63026678509584 139.0936780415504 L 297.581781936611 139.10263919682316 L 297.5809447707185 139.10279318819607 L 297.5324599222336 139.1116690089482 L 297.5316280479177 139.11182056815736 L 297.48314319943285 139.12061167275502 L 297.48231663972007 139.12076082474636 L 297.4338317912352 139.1294678315556 L 297.4330105687929 139.12961460125626 L 297.3845257203081 139.1382381286432 L 297.38370985744285 139.13838254095745 L 297.335225008958 139.14692320728813 L 297.3344145276225 139.14706528709198 L 297.28592967913767 139.15552371073252 L 297.2851246009294 139.15566348286998 L 297.23663975244455 139.16404028218648 L 297.23584009861094 139.16417777146432 L 297.1873552501261 139.17247356482287 L 297.1865610415665 139.1726087960067 L 297.1380761930817 139.1808242017734 L 297.13728745034894 139.18095719958313 L 297.0888026018641 139.18909283612402 L 297.0880193451708 139.1892236252291 L 297.0395344966859 139.19728011091033 L 297.0387567459023 139.19740871592637 L 296.9902718974174 139.20538666911398 L 296.98949967207955 139.2055131145975 L 296.94101482359474 139.21341315365763 L 296.9402481429022 139.21353746410287 L 296.93745255479126 139.21398851569617 L 297.8419248264537 139.73257067145474 Z M 301.9256092131617 142.07396456383373 L 301.93394836441036 142.04933442113503 L 301.94458319947955 142.01776397922458 L 301.9551415427313 141.9862573587083 L 301.96562282386 141.95481401838848 L 301.9760264745824 141.92343341634032 L 301.9863519286085 141.8921150100283 L 301.9965986216634 141.8608582562646 L 302.0067659914992 141.82966261120004 L 302.01685347796547 141.79852753012827 L 302.02686052300663 141.76745246751366 L 302.0367865706238 141.7364368771252 L 302.0466310670255 141.70548021158328 L 302.05639346052584 141.674581922686 L 302.06607320160197 141.64374146123913 L 302.0756697429656 141.61295827683225 L 302.08518253951274 141.58223181799835 L 302.09461104834713 141.55156153213792 L 302.10395472885034 141.52094686528534 L 302.11321304264936 141.49038726220223 L 302.1223854536175 141.45988216636073 L 302.13147142796123 141.42943101963695 L 302.14047043413393 141.3990332625743 L 302.1493819429285 141.3686883340436 L 302.1582054274572 141.3383956712774 L 302.166940363136 141.30815470988307 L 302.17558622774004 141.27796488360937 L 302.18414250135027 141.24782562447962 L 302.1926086664383 141.2177363624375 L 302.2009842077634 141.18769652564933 L 302.2092686124857 141.1577055400301 L 302.21746137007483 141.12776282949517 L 302.225561972376 141.09786781563753 L 302.2335699135253 141.06801991794632 L 302.2414846900562 141.0382185533151 L 302.24930580077233 141.00846313640855 L 302.25703274684173 140.97875307919185 L 302.264665031696 140.94908779119106 L 302.27220216108077 140.91946667916542 L 302.27964364301647 140.88988914711794 L 302.2869889877818 140.86035459620595 L 302.2942377078855 140.83086242469085 L 302.3013893180481 140.80141202784083 L 302.30844333519394 140.77200279777657 L 302.315399278403 140.74263412347315 L 302.32225666888206 140.7133053906742 L 302.32901502994406 140.68401598176 L 302.3356738869654 140.6547652756946 L 302.3422327673559 140.6255526479134 L 302.3486912004966 140.59637747033446 L 302.35504871773577 140.5672391111034 L 302.35976817023453 140.54528524522982 L 302.34574217695047 140.5518640586756 L 302.34518343770264 140.55212571174033 L 302.3290449072084 140.55967111784713 L 302.32845249184726 140.55994762381627 L 302.31227871448584 140.56748375443166 L 302.3116527256905 140.56777490649392 L 302.29544308309585 140.5753005248858 L 302.29478362104715 140.57560610958467 L 302.278537494853 140.58311997902078 L 302.27784465744537 140.58343977630315 L 302.2615614292858 140.59094066005136 L 302.26083531231774 140.59127444332705 L 302.2572129686857 140.59293606611828 L 302.73911715786085 138.73945841544455 L 299.19794051916665 140.51004673479164 L 301.9256092131617 142.07396456383373 Z M 295.9696848117753 135.83596630327895 L 295.96469871143734 135.8369992397361 L 295.79366557574764 135.87152368386637 L 295.79325233044233 135.8797206605103 L 295.7931839766029 135.88104174604936 L 295.7927015479907 135.8901326551403 L 295.79262783245815 135.891487036605 L 295.7921206692023 135.90057794569591 L 295.7920413229331 135.90196554851636 L 295.7915088066675 135.91105645760726 L 295.79142355479223 135.91247720159927 L 295.7908650671508 135.9215681106902 L 295.7907736290871 135.9230219097791 L 295.79018855170375 135.93211281887 L 295.7900906412741 135.93359958085006 L 295.7894783557827 135.94269048994096 L 295.78937368134507 135.94421011617462 L 295.7887335693796 135.95330102526555 L 295.7886218339612 135.95485341044764 L 295.7879532771555 135.96394431953854 L 295.7878341786001 135.9655293513978 L 295.78713655858814 135.9746202604887 L 295.78700978970954 135.97623781952717 L 295.7862824881252 135.9853287286181 L 295.7861477368707 135.98697868783518 L 295.7853901353479 135.99606959692608 L 295.78524708497247 135.9977518215348 L 295.78445856514503 136.0068427306257 L 295.7843068943951 136.00855707777035 L 295.7834868378971 136.01764798686128 L 295.78332622120115 136.01939430537146 L 295.7824740096664 136.02848521446236 L 295.78230411734216 136.03026334453804 L 295.7814191324045 136.03935425362894 L 295.7812396308726 136.04116402657593 L 295.7803212541661 136.05025493566683 L 295.78013180617205 136.05209617365307 L 295.77917941933043 136.061187082744 L 295.7789796841865 136.06305959847384 L 295.7779926688438 136.07215050756474 L 295.7777823026701 136.07405410406776 L 295.7767600404602 136.08314501315866 L 295.7765386964484 136.0850794834771 L 295.77548056900525 136.09417039256803 L 295.7752478976845 136.0961355195337 L 295.77415328664193 136.1052264286246 L 295.77390893616234 136.10722198458052 L 295.77277722315426 136.11631289367142 L 295.7725208395799 136.11833864022398 L 295.7713514062403 136.1274295493149 L 295.77108263385094 136.1294852371094 L 295.76987486181366 136.1385761462003 L 295.7695933434235 136.14066151466218 L 295.76834661432247 136.14975242375309 L 295.76805199160486 136.1518672008772 L 295.766765687074 136.16095810996813 L 295.76645760090196 136.16310201208807 L 295.76513110257514 136.17219292117898 L 295.76480919336973 136.17436565276498 L 295.7634418828809 136.18345656185588 L 295.76310579097236 136.18565781531507 L 295.76169704995544 136.194748724406 L 295.76134641595377 136.19697817990124 L 295.7598956260426 136.20606908899214 L 295.75953009122395 136.20832641424036 L 295.75803663405253 136.21741732333126 L 295.7576558407447 136.21970217348576 L 295.75611909794685 136.22879308257666 L 295.75572268993886 136.23110510003505 L 295.75414204314853 136.24019600912598 L 295.75372966609854 136.24253482342178 L 295.75210449694964 136.25162573251268 L 295.75167579880775 136.25399096018833 L 295.7500054889342 136.26308186927923 L 295.74956012037137 136.26547311378914 L 295.74784405140707 136.27456402288007 L 295.7473816662544 136.27698087449969 L 295.7456192198332 136.2860717835906 L 295.7451394755294 136.28851381934075 L 295.74333003328536 136.29760472843165 L 295.74283259132244 136.30007151206507 L 295.7409755348893 136.309162421156 L 295.740460061282 136.31165350307495 L 295.7385547722938 136.32074441216585 L 295.73802093803357 136.32325932946645 L 295.7360667981241 136.33235023855735 L 295.73551427965657 136.3348885149999 L 295.7335106704598 136.34397942409083 L 295.73293915015387 136.3465405701538 L 295.73088545330376 136.3556314792447 L 295.7302946199266 136.35821499218585 L 295.728190217057 136.36730590127675 L 295.72757976625746 136.3699112651882 L 295.72542403900223 136.3790021742791 L 295.72479367378656 136.38162886020714 L 295.72258600377967 136.39071976929807 L 295.7219354349928 136.3933672353615 L 295.71967520386823 136.4024581444524 L 295.71900415066943 136.40512583600525 L 295.7166907400609 136.41421674509616 L 295.71599893040934 136.41690409486753 L 295.7136317219509 136.42599500395846 L 295.71291889307145 136.42870143228524 L 295.71049726839703 136.43779234137614 L 295.7097631672505 136.44051725642302 L 295.7072865079939 136.44960816551392 L 295.706530891751 136.45235096348898 L 295.70399857954624 136.4614418725799 L 295.7032212160319 136.46420193805932 L 295.701292365111 136.47097591627667 L 295.7015311130742 136.47751797811665 L 295.70193378495964 136.48730102157612 L 295.70238249120985 136.49710214594282 L 295.70287692159167 136.50692051533267 L 295.7034167582717 136.5167552925238 L 295.70400167594795 136.5266056391818 L 295.70463134198786 136.53647071613076 L 295.7053054165562 136.54634968344172 L 295.7060235527543 136.5562417006856 L 295.70678539674867 136.56614592701305 L 295.70759058791333 136.5760615214176 L 295.7084387589546 136.585987642764 L 295.7093295360556 136.59592345005376 L 295.71026253900527 136.60586810250916 L 295.7112373813225 136.6158207595998 L 295.71225367040756 136.62578058137498 L 295.71331100765326 136.63574672836964 L 295.7144089885885 136.64571836184638 L 295.7155472030008 136.65569464383626 L 295.7167252350624 136.66567473722594 L 295.71794266346666 136.67565780593304 L 295.7191990615356 136.68564301484795 L 295.7204939973552 136.69562953001594 L 295.7218270338948 136.70561651869633 L 295.72319772912977 136.71560314944864 L 295.7246056361413 136.7255885920689 L 295.7260503032603 136.7355720178502 L 295.72753127415956 136.745552599479 L 295.7290480879744 136.7555295111485 L 295.73060027941125 136.76550192859366 L 295.7321873788632 136.77546902917842 L 295.7338089125017 136.78542999184242 L 295.73546440239795 136.79538399724512 L 295.73715336660865 136.80533022769404 L 295.7388753192931 136.8152678672753 L 295.7406297707983 136.8251961018022 L 295.7424162277587 136.8351141188571 L 295.7442341932088 136.84502110791522 L 295.7460831666412 136.85491626017028 L 295.74796264412254 136.86479876869285 L 295.74987211838805 136.87466782847122 L 295.7518110788966 136.88452263625996 L 295.75377901195077 136.89436239077165 L 295.75577540076534 136.90418629260822 L 295.75779972553494 136.9139935442037 L 295.75985146353645 136.92378334994194 L 295.7613362714689 136.9307633941313 L 295.80354032927045 136.92330640283768 L 295.85746147861295 136.91371210521461 L 295.911370322416 136.90405225209963 L 295.9652662347364 136.89432625020473 L 296.0191485894539 136.88453350658418 L 296.0730167604522 136.87467342860455 L 296.12687012140503 136.864745423987 L 296.18070804601535 136.85474890076617 L 296.2345299077338 136.84468326734523 L 296.2883350800764 136.8345479324402 L 296.34212293639905 136.8243423051248 L 296.3958928499852 136.81406579481734 L 296.4496441941192 136.80371781126988 L 296.50337634187866 136.79329776461097 L 296.5570886664036 136.7828050652974 L 296.6107805407465 136.77223912414598 L 296.66445133790296 136.7615993523311 L 296.7181004307765 136.75088516139493 L 296.7717271923172 136.740095963223 L 296.8253309953523 136.72923117008165 L 296.87891121277704 136.71829019458266 L 296.9324672173807 136.70727244972176 L 296.9859983819366 136.69617734886404 L 297.03950407925095 136.68500430573704 L 297.0929836821125 136.67375273444432 L 297.14643656330384 136.66242204946676 L 297.19986209558533 136.65101166566922 L 297.25325965174636 136.63952099829334 L 297.3066286046277 136.62794946295574 L 297.3599683270509 136.61629647566707 L 297.4132781918657 136.6045614528249 L 297.46655757199375 136.59274381120775 L 297.5198058403702 136.58084296799126 L 297.5730223700264 136.5688583407333 L 297.6262065339406 136.55678934741104 L 297.67935770529675 136.54463540636587 L 297.73247525723644 136.53239593636312 L 297.7855585630581 136.52007035655015 L 297.83860699610636 136.50765808648498 L 297.89161992978654 136.49515854613668 L 297.94459673770916 136.48257115585486 L 297.9975367934444 136.46989533643085 L 298.0504394708044 136.45713050903436 L 298.1033041436883 136.44427609525343 L 298.1561301860854 136.43133151709756 L 298.20891697216734 136.4182961969784 L 298.2616638762325 136.4051695577268 L 298.3143702727733 136.39195102257926 L 298.36703553637176 136.37864001520762 L 298.4196590418546 136.36523595968322 L 298.47224016418767 136.3517382805066 L 298.524778278554 136.33814640259126 L 298.57727276031983 136.3244597512751 L 298.62972298505906 136.3106777523176 L 298.6821283285822 136.29679983189504 L 298.73448816686516 136.28282541662267 L 298.78680187624917 136.26875393350437 L 298.8390688331642 136.25458481000948 L 298.8912884144102 136.2403174740004 L 298.9434599969774 136.2259513537839 L 298.9955829582348 136.2114858780624 L 299.0476566756996 136.19692047600023 L 299.09968052728937 136.18225457715653 L 299.15165389120915 136.16748761151914 L 299.20357614595065 136.1526190095075 L 299.21360225261424 136.14972528681892 L 297.8463093440974 135.38105976755048 L 297.7114719958521 135.41866238543795 L 297.70634527682273 135.42006277153752 L 297.4270351878708 135.49476469331626 L 297.42193427997665 135.49610015921354 L 297.1402032877773 135.56827481877724 L 297.1351272309679 135.5695469486652 L 296.851014292585 135.63917146646847 L 296.8459621330844 135.64038175743107 L 296.55950620558167 135.70743325392854 L 296.55447699777073 135.70858311938034 L 296.2657170382119 135.77303871502662 L 296.26070984632656 135.77412948802922 L 295.9696848117753 135.83596630327895 Z M 290.3412864757016 131.1618816643638 L 289.8 130.85758091993188 L 289.8 132.89571295471183 L 289.8466999500348 132.8950830648171 L 290.11858408104024 132.8889736325941 L 290.3894396537614 132.88045560255102 L 290.52864002204234 132.87482837376444 L 290.52518637634495 132.84325218453154 L 290.5181156692743 132.77860571988552 L 290.5110449622035 132.71395925523862 L 290.5039742551329 132.64931279059257 L 290.4969035480621 132.58466632594568 L 290.4898328409915 132.52001986129966 L 290.4827621339207 132.45537339665276 L 290.4686207197794 132.32608046736024 L 290.4615500127086 132.26143400271337 L 290.45447930563796 132.19678753806733 L 290.44740859856716 132.13214107342043 L 290.44033789149654 132.06749460877438 L 290.43326718442574 132.0028481441275 L 290.4261964773551 131.93820167948147 L 290.4191257702843 131.87355521483457 L 290.404984356143 131.74426228554208 L 290.3979136490722 131.67961582089518 L 290.3908429420016 131.61496935624913 L 290.3837722349308 131.55032289160226 L 290.3767015278602 131.48567642695622 L 290.3696308207894 131.42102996230932 L 290.36256011371876 131.35638349766327 L 290.35548940664796 131.2917370330164 L 290.3484186995773 131.22709056836993 L 290.34134799250666 131.16244410372389 L 290.3412864757016 131.1618816643638 Z M 285.67250740033444 129.03290906582302 L 285.67859381164726 129.05688515790376 L 285.6846794028541 129.08087912778754 L 285.6855242860735 129.08421313618015 L 286.06039315497645 128.7552465777551 L 285.5232549184616 128.45327789283192 L 285.5261689673298 128.46440784955095 L 285.5322773362343 128.48777499998408 L 285.53838468019575 128.51117436599674 L 285.5444910108075 128.5346053570508 L 285.55059633935747 128.558067381944 L 285.55670067683434 128.58155984882058 L 285.56280403393407 128.6050821651824 L 285.5689064210658 128.62863373789807 L 285.57500784835696 128.65221397321258 L 285.5811083256599 128.67582227675737 L 285.58720786255594 128.69945805355704 L 285.5933064683626 128.7231207080448 L 285.5994041521356 128.74680964405962 L 285.6055009226764 128.77052426486495 L 285.61159678853585 128.79426397315171 L 285.61769175801874 128.8180281710477 L 285.6237858391882 128.8418162601239 L 285.62987903986993 128.86562764140257 L 285.6359713676565 128.88946171536475 L 285.64206282991114 128.9133178819558 L 285.6481534337715 128.93719554059356 L 285.6542431861531 128.9610940901722 L 285.6603320937546 128.98501292907508 L 285.66642016305786 129.00895145516955 L 285.67250740033444 129.03290906582302 Z M 287.94077246079416 132.86954932281924 L 288.2105603462388 132.8804556025511 L 288.48141591895984 132.88897363259414 L 288.75330004996493 132.89508306481713 L 288.7999999999999 132.89571295471188 L 288.7999999999999 130.29540034071547 L 287.5424068465705 129.588405893302 L 287.5285067137487 129.63742215114726 L 287.5093147945567 129.70509891882446 L 287.49012287536476 129.77277568650115 L 287.47093095617294 129.84045245417755 L 287.45173903698094 129.9081292218547 L 287.4325471177891 129.9758059895311 L 287.4133551985971 130.04348275720824 L 287.3941632794052 130.11115952488507 L 287.37497136021335 130.17883629256139 L 287.35577944102135 130.24651306023853 L 287.3173956026376 130.3818665955917 L 287.2982036834456 130.44954336326884 L 287.27901176425365 130.51722013094567 L 287.2598198450618 130.584896898622 L 287.24062792586983 130.65257366629913 L 287.221436006678 130.72025043397554 L 287.202244087486 130.78792720165268 L 287.1638602491022 130.9232807370059 L 287.14466832991025 130.99095750468297 L 287.1062844915265 131.12631104003614 L 287.0870925723345 131.19398780771328 L 287.04870873395066 131.32934134306652 L 287.0295168147587 131.39701811074357 L 287.0103248955669 131.46469487841998 L 286.9911329763749 131.53237164609712 L 286.95274913799113 131.6677251814503 L 286.93355721879914 131.7354019491275 L 286.9143652996072 131.80307871680418 L 286.8951733804154 131.87075548448058 L 286.8759814612234 131.93843225215772 L 286.8375976228396 132.0737857875109 L 286.8184057036476 132.1414625551881 L 286.7992137844558 132.20913932286442 L 286.7800218652638 132.27681609054156 L 286.74163802688 132.41216962589473 L 286.72244610768803 132.47984639357188 L 286.7032541884961 132.5475231612487 L 286.68406226930426 132.61519992892502 L 286.66487035011227 132.68287669660216 L 286.63668823193063 132.78225574492683 L 286.87308131525685 132.80245007737335 L 287.1382066228523 132.8227050663971 L 287.4045564027871 132.8406536054571 L 287.67209141866687 132.85627518101793 L 287.94077246079416 132.86954932281924 Z M 273.42251676745735 122.32830306189923 L 273.3598717555508 122.45499115546228 L 273.3011641697691 122.58208263353289 L 273.24640702135315 122.7095612093468 L 273.1956126283216 122.8374132708342 L 273.1530329904312 122.95401659343892 L 273.1619708294413 122.94853631713899 L 273.16532479920903 122.94649788490882 L 273.1965364154222 122.92769584553746 L 273.19991614408997 122.92567796808801 L 273.23124586822655 122.90713935267152 L 273.2346517532391 122.90514211535265 L 273.26609711183477 122.88686877898932 L 273.2695295557924 122.88489228272063 L 273.3010880753827 122.86688608050873 L 273.30454748572834 122.86493044209074 L 273.33621669284906 122.84719322912855 L 273.33970348153315 122.84525858156253 L 273.3714809027198 122.82779221294832 L 273.3749954858609 122.82587870575455 L 273.4068786476492 122.8086850365866 L 273.4104214451645 122.80679283613338 L 273.44240787409 122.78987372150995 L 273.4459793093212 122.78800301133967 L 273.47806653191964 122.77136030635904 L 273.48166703122854 122.76951128752329 L 273.5138525740354 122.75314684728373 L 273.51748256639064 122.7513197386758 L 273.5497639559417 122.7352354182756 L 273.5534238724742 122.73343045697062 L 273.58226240743613 122.71935416876785 L 273.57965123084546 122.71190971093016 L 273.5693886719814 122.6828936140154 L 273.5590347187682 122.65385375784612 L 273.54859166777743 122.62479103537355 L 273.5380618221682 122.59570633102068 L 273.52744749142016 122.56660052058498 L 273.5167509910959 122.53747447120362 L 273.5059746425825 122.50832904124324 L 273.49512077284265 122.47916508019617 L 273.4841917142086 122.44998342867402 L 273.473189804176 122.42078491838062 L 273.4621173851105 122.39157037183348 L 273.4509768041231 122.36234060251586 L 273.4397704128834 122.33309641484206 L 273.431419507421 122.31141650693264 L 273.42251676745735 122.32830306189923 Z M 284.91542253152033 128.18812524276478 L 284.90229121838985 128.19014544478486 L 284.8891599052582 128.1921656468051 L 284.8760285921269 128.19418584882533 L 284.82843582269345 128.19919074910072 L 284.780582567392 128.19962282104694 L 284.7570568512491 128.19757758576634 L 285.20488412127935 128.84244885460984 L 285.208416980042 128.82983150188602 L 285.2154876871125 128.80457897663433 L 285.2225583941834 128.77932645138097 L 285.2296291012539 128.75407392612928 L 285.23669980832454 128.7288214008769 L 285.24377051539557 128.70356887562323 L 285.25084122246597 128.67831635037186 L 285.257911929537 128.65306382511818 L 285.2649826366074 128.6278112998668 L 285.2720533436784 128.60255877461313 L 285.2791240507488 128.57730624936175 L 285.2861947578198 128.55205372410808 L 285.2932654648902 128.5268011988567 L 285.30033617196096 128.50154867360402 L 285.3074068790319 128.47629614835066 L 285.3144775861024 128.45104362309897 L 285.3215482931733 128.4257910978456 L 285.3286190002438 128.40053857259392 L 285.33568970731477 128.3752860473404 L 285.3423312819173 128.35156613804554 L 285.0223443959632 128.1716757251582 L 285.00734172344033 128.17398382862325 L 284.9942104103087 128.1760040306435 L 284.98107909717714 128.17802423266374 L 284.9679477840461 128.1800444346839 L 284.9548164709151 128.18206463670404 L 284.94168515778347 128.18408483872432 L 284.92855384465247 128.18610504074445 L 284.91542253152033 128.18812524276478 Z" /></svg>