<svg version="1.1" id="Layer_1" xmlns="http://www.w3.org/2000/svg" xmlns:xlink="http://www.w3.org/1999/xlink" x="0px" y="0px" viewBox="0 0 500 500" style="width: 180px;" xml:space="preserve" data-imageid="chicken-54" imageName="Chicken" class="illustrations_image">
<style type="text/css">
	.st0_chicken-54{fill:#16A79E;}
	.st1_chicken-54{fill:#EAE4E4;}
	.st2_chicken-54{opacity:0.41;fill:url(#SVGID_1_);enable-background:new    ;}
	.st3_chicken-54{fill:#68E1FD;}
	.st4_chicken-54{opacity:0.29;fill:#093E3E;enable-background:new    ;}
	.st5_chicken-54{fill:#F49064;}
	.st6_chicken-54{fill:#754C24;}
	.st7_chicken-54{fill:#DD704A;}
	.st8_chicken-54{fill:#DC262A;}
	.st9_chicken-54{fill:#F2552C;}
	.st10_chicken-54{opacity:0.41;fill:url(#SVGID_00000028320033620528730870000016125957951995979450_);enable-background:new    ;}
	.st11_chicken-54{opacity:0.81;fill:#093E3E;enable-background:new    ;}
	.st12_chicken-54{fill:#FFFFFF;}
	.st13_chicken-54{opacity:0.16;fill:#093E3E;enable-background:new    ;}
</style>
<g id="background_chicken-54">
	<path class="st0_chicken-54" d="M249.2,380.8L31.9,252.4c-6.9-3.9-12.9-10.3-6.1-14.4l218-125.7c3.3-2,8.2-3.3,11.6-1.4l228.1,132.4&#xA;&#9;&#9;c6.9,4,8.1,15.2,1.2,19.3L277.8,380.6C269,385.7,258.1,385.8,249.2,380.8z"/>
	<polygon class="st1_chicken-54" points="255.6,252 238.1,316.6 351.2,327.6 358.1,256.1 &#9;"/>
</g>
<g id="cicken_plate_chicken-54">
	
		<linearGradient id="SVGID_1_-chicken-54" gradientUnits="userSpaceOnUse" x1="302.5304" y1="244.9919" x2="235.0803" y2="190.0018" gradientTransform="matrix(1 0 0 -1 0 502)">
		<stop offset="0" style="stop-color:#093E3E"/>
		<stop offset="1" style="stop-color:#16A79E;stop-opacity:0"/>
	</linearGradient>
	<path class="st2_chicken-54" d="M285.5,244l-27.9-8.9l-88.9,50.8c11.6,10,67.4,63.1,80.5,71.4l125.1-78.6C372.9,275.5,287.5,247,285.5,244z"/>
	<ellipse class="st3_chicken-54 targetColor" cx="324.1" cy="248.8" rx="73.8" ry="40.8" style="fill: rgb(104, 225, 253);"/>
	<ellipse class="st4_chicken-54" cx="324.1" cy="248.8" rx="73.8" ry="40.8"/>
	<ellipse class="st3_chicken-54 targetColor" cx="324.1" cy="244.3" rx="73.8" ry="40.8" style="fill: rgb(104, 225, 253);"/>
	<ellipse class="st4_chicken-54" cx="321.9" cy="249.1" rx="44.1" ry="23.6"/>
	<path class="st5_chicken-54" d="M303.5,215.9c-1.2,2-1.1,4.6,0.2,6.5c0.1,0.2,0.2,0.3,0.3,0.4c0.1,0.8,0.2,1.7,0.5,2.5&#xA;&#9;&#9;c-1.2,5.6,7.3,11,11.9,12.8c2.2,0.8,4.2,1.1,6.1,2.3c1.1,0.7,1.7,1.5,3.1,2.1c4.6,2,9,5.9,13.8,7.4c2.3,1.9,4.5,3.8,6.7,5.9&#xA;&#9;&#9;c2.5,4.2,4.9,9.4,8.4,12.1c0.2,0.4,0.5,0.7,0.9,0.8c1.8,0.8,4,2.4,5.9,1c0.1-0.1,0.3-0.2,0.4-0.4c0.4-0.1,0.9-0.3,1.3-0.5&#xA;&#9;&#9;c0.2-0.1,0.3-0.1,0.4-0.2c0.9,0.1,1.8-0.1,2.6-0.5c0.7-0.6,1.4-1.3,1.9-2.2c0.7-0.9,1.7-1.5,2.3-2.4c1.1-1.6,0.7-3.8-0.7-5&#xA;&#9;&#9;c-0.1-0.5-0.2-1-0.4-1.4c0,0,0,0,0-0.1c0.1-0.9-0.3-1.9-1-2.5c-0.3-0.3-0.5-0.5-0.6-0.7s-0.4-0.6-0.6-1c-0.1-0.2-0.2-0.3-0.3-0.5&#xA;&#9;&#9;c-0.4-0.7-0.9-1.3-1.6-1.8c-0.8-0.9-1.5-1.8-2.2-2.7c-3.2-4.4-4.1-7.5-5.1-13.1c-0.9-5.4-3-4.9-5.3-10.4c-1.1-2.8-1.3-5-2.8-7.4&#xA;&#9;&#9;c-1.7-4.1-4.7-7.5-8.6-9.6c-0.6-0.2-1.2-0.4-1.8-0.4c-1.3-0.8-2.7-1.6-4.1-2.2c-0.5-0.5-1.1-1-1.8-1.4c-1.8-1.1-2.7-0.8-4.3-0.6&#xA;&#9;&#9;c-4.7-1.1-9.7-0.6-14.2,1.3c-2.6,0.5-5,1.8-6.9,3.7C306.3,209.7,304.5,213.8,303.5,215.9z"/>
	<path class="st6_chicken-54" d="M303.5,215.9c-0.6,1.1-0.9,2.3-0.8,3.6c0.1,0.6,0.2,1.2,0.5,1.8c0.2,0.6,0.5,1.1,0.9,1.6l0,0&#xA;&#9;&#9;c0.1,0.8,0.2,1.7,0.5,2.5l0,0c-0.3,1.9,0.2,3.7,1.4,5.2c1.1,1.5,2.5,2.8,4,3.9c1.5,1.1,3.1,2.1,4.8,2.9c0.8,0.4,1.7,0.8,2.6,1.1&#xA;&#9;&#9;l2.7,0.8c0.9,0.3,1.8,0.7,2.6,1.1c0.8,0.5,1.5,1.2,2.3,1.6s1.7,0.8,2.5,1.2s1.6,0.9,2.4,1.4c3.2,1.9,6.3,4.1,9.8,5.1h0.1h0&#xA;&#9;&#9;c2.3,1.9,4.6,3.8,6.8,5.8l0,0v0.1c1.3,2.1,2.5,4.3,3.8,6.4c1.2,2.1,2.8,4,4.6,5.5l0.1,0.1l0,0.1c0.1,0.2,0.3,0.4,0.5,0.5l0.9,0.4&#xA;&#9;&#9;c0.6,0.3,1.2,0.6,1.8,0.8c0.6,0.2,1.2,0.3,1.8,0.3c0.3,0,0.5-0.1,0.8-0.2c0.1-0.1,0.2-0.1,0.4-0.2c0.1-0.1,0.2-0.2,0.2-0.3l0.1-0.1&#xA;&#9;&#9;l0.2-0.1c0.6-0.2,1.1-0.4,1.7-0.6l0.1,0h0.1c0.5,0.1,1.1,0,1.6-0.1c0.5-0.2,0.9-0.4,1.2-0.8c0.4-0.4,0.7-0.9,1-1.4&#xA;&#9;&#9;c0.4-0.5,0.8-1,1.3-1.4c0.4-0.3,0.8-0.7,1.1-1.2c0.3-0.4,0.4-0.9,0.5-1.4c0-1-0.4-2-1.2-2.7l-0.1-0.1l-0.1-0.2l-0.4-1.3l0-0.2v-0.1&#xA;&#9;&#9;c0.1-0.5,0-1-0.3-1.4c-0.1-0.2-0.3-0.4-0.5-0.6l-0.7-0.7l0,0l0,0l-0.6-0.9v-0.1l0,0l-0.3-0.7c-0.1-0.2-0.2-0.4-0.3-0.5&#xA;&#9;&#9;c-0.3-0.3-0.6-0.6-1-0.9l-0.1-0.1l0,0l-1.5-1.8l-0.7-0.9l-0.7-1c-0.9-1.3-1.7-2.7-2.3-4.2c-1.1-2.9-1.9-6-2.3-9.1&#xA;&#9;&#9;c-0.2-0.7-0.4-1.4-0.7-2.1c-0.3-0.7-0.7-1.3-1.2-1.9c-1-1.2-1.9-2.6-2.5-4c-0.7-1.4-1.2-2.9-1.6-4.5c-0.4-1.5-0.9-2.9-1.7-4.2l0,0&#xA;&#9;&#9;l0,0c-0.9-2.3-2.2-4.4-4-6.1c-0.9-0.9-1.8-1.7-2.8-2.4c-0.5-0.4-1-0.7-1.6-1c-0.5-0.3-1.1-0.4-1.7-0.4h0l0,0&#xA;&#9;&#9;c-1.3-0.8-2.7-1.6-4.1-2.2l0,0l0,0c-0.4-0.4-0.8-0.8-1.3-1.1c-0.4-0.3-0.9-0.6-1.4-0.8c-0.5-0.2-1-0.3-1.6-0.3&#xA;&#9;&#9;c-0.6,0-1.1,0.1-1.7,0.2h0c-4.7-1.1-9.7-0.7-14.1,1.2l0,0c-1.4,0.3-2.7,0.8-4,1.4c-1.3,0.7-2.4,1.5-3.3,2.6&#xA;&#9;&#9;c-0.8,1.1-1.6,2.4-2.2,3.6C304.7,213.3,304.2,214.6,303.5,215.9z M303.5,215.9c0.6-1.3,1.2-2.6,1.8-3.9c0.6-1.3,1.3-2.5,2.1-3.7&#xA;&#9;&#9;c0.9-1.1,2-2,3.3-2.7c1.3-0.7,2.6-1.2,4-1.5l0,0c2.2-1,4.6-1.6,7-1.8c2.4-0.2,4.9,0,7.2,0.4h0c0.6-0.1,1.1-0.2,1.7-0.2&#xA;&#9;&#9;c0.6,0,1.2,0.1,1.7,0.3c0.5,0.2,1,0.5,1.5,0.8c0.5,0.3,0.9,0.7,1.3,1.1h-0.1c1.4,0.6,2.8,1.4,4.2,2.2h-0.1c0.7,0,1.3,0.1,1.9,0.4&#xA;&#9;&#9;c0.5,0.3,1.1,0.6,1.6,1c1.1,0.7,2.1,1.5,3,2.4c1.8,1.8,3.3,3.9,4.2,6.3V217c0.8,1.4,1.4,2.9,1.8,4.4c0.4,1.5,1,2.9,1.6,4.3&#xA;&#9;&#9;c0.7,1.4,1.5,2.6,2.5,3.8c0.5,0.6,0.9,1.3,1.3,2.1c0.3,0.7,0.6,1.5,0.8,2.3c0.4,3.1,1.2,6.1,2.3,8.9c0.6,1.4,1.4,2.7,2.2,4l0.7,0.9&#xA;&#9;&#9;l0.7,0.9l1.5,1.8l-0.1-0.1c0.5,0.3,0.9,0.7,1.2,1.1c0.2,0.2,0.3,0.5,0.5,0.7l0.3,0.7l0-0.1l0.7,1l0-0.1l0.6,0.6&#xA;&#9;&#9;c0.3,0.3,0.5,0.6,0.7,0.9c0.4,0.7,0.6,1.4,0.5,2.2v-0.3l0.4,1.5l-0.2-0.3c1,0.9,1.6,2.3,1.5,3.7c-0.1,0.7-0.3,1.4-0.7,2&#xA;&#9;&#9;c-0.4,0.5-0.8,1-1.3,1.5c-0.4,0.3-0.8,0.7-1.2,1.2c-0.3,0.5-0.7,1-1.1,1.5c-0.5,0.5-1.1,0.9-1.8,1.1c-0.7,0.2-1.3,0.2-2,0.2l0.2,0&#xA;&#9;&#9;c-0.6,0.3-1.2,0.5-1.8,0.7l0.3-0.2c-0.1,0.2-0.3,0.4-0.5,0.5c-0.2,0.1-0.4,0.2-0.5,0.3c-0.4,0.2-0.8,0.3-1.2,0.3&#xA;&#9;&#9;c-0.8,0-1.5-0.1-2.2-0.4c-0.6-0.3-1.3-0.6-1.9-0.9c-0.3-0.2-0.5-0.3-0.9-0.5c-0.4-0.2-0.7-0.5-0.9-0.9l0.1,0.2&#xA;&#9;&#9;c-1.9-1.7-3.5-3.7-4.7-5.9c-1.3-2.1-2.4-4.3-3.6-6.5l0.1,0.1c-2.1-2.1-4.3-4-6.6-5.9l0.1,0.1c-3.6-1.2-6.7-3.4-9.8-5.4&#xA;&#9;&#9;c-0.8-0.5-1.6-1-2.4-1.4s-1.7-0.8-2.5-1.3s-1.4-1.2-2.2-1.7c-0.8-0.5-1.6-0.9-2.5-1.1l-2.6-0.9c-0.9-0.3-1.7-0.7-2.6-1.1&#xA;&#9;&#9;c-1.7-0.8-3.3-1.8-4.8-2.9c-1.5-1.1-2.9-2.4-4-3.9c-1.2-1.5-1.7-3.4-1.4-5.3l0,0c-0.2-0.8-0.4-1.7-0.5-2.5l0,0&#xA;&#9;&#9;c-0.4-0.5-0.7-1-0.9-1.6c-0.2-0.6-0.4-1.2-0.4-1.8C302.7,218.3,303,217,303.5,215.9z"/>
	<path class="st7_chicken-54" d="M314.2,208.1c3.2,0.1,6.2-0.9,9.4-0.9c0.6,0,1.2,0.4,1.7,0.5c3.2,0.3,3.4,0,5.9-0.5c0.6-0.1,1.2,0.2,1.3,0.8&#xA;&#9;&#9;c0,0,0,0.1,0,0.1l1.6,0.1c0.5,0,0.9,0.3,1,0.8c0.5,2.4,4.5,3.4,5.5,6c0.9,2.2,0.1,4.1,1.5,6.2s2.9,1.3,4.5,2.8&#xA;&#9;&#9;c1.3,1.2,2.4,4.1,3.5,5.6c1.9,2.7,4.1,6,4.9,9.2c0.9,3.5,1.1,5.8,3.5,8.7c1,1,2,2,2.9,3.1c1.2,1.8,0.9,3.5,2.4,5.2&#xA;&#9;&#9;c3,3.6,4.7,6.9,3.7,10.5l0.2-0.3c0.7-0.9,1.7-1.5,2.3-2.4c1.1-1.6,0.7-3.8-0.7-5c-0.1-0.5-0.2-1-0.4-1.4c0,0,0,0,0-0.1&#xA;&#9;&#9;c0.1-0.9-0.3-1.9-1-2.5c-0.3-0.3-0.5-0.5-0.6-0.7s-0.4-0.6-0.6-1c-0.1-0.2-0.2-0.3-0.3-0.5c-0.4-0.7-0.9-1.3-1.6-1.8&#xA;&#9;&#9;c-0.8-0.9-1.5-1.8-2.2-2.7c-3.2-4.4-4.1-7.5-5.1-13.1c-0.9-5.4-3-4.9-5.3-10.4c-1.1-2.8-1.3-5-2.8-7.4c-1.7-4.1-4.7-7.5-8.6-9.6&#xA;&#9;&#9;c-0.6-0.2-1.2-0.4-1.8-0.4c-1.3-0.8-2.7-1.6-4.1-2.2c-0.5-0.5-1.1-1-1.8-1.4c-1.8-1.1-2.7-0.8-4.3-0.6c-4.7-1.1-9.7-0.6-14.2,1.3&#xA;&#9;&#9;c-2.6,0.5-5,1.8-6.9,3.7c-0.8,1-1.5,2-2,3.1C308.2,209.2,310.5,207.9,314.2,208.1z"/>
	<path class="st5_chicken-54" d="M268.9,247.9c-0.2,2.4,1,4.6,3,5.8c0.1,0.1,0.3,0.2,0.5,0.2c0.4,0.7,0.9,1.4,1.5,2.1&#xA;&#9;&#9;c1.3,5.6,11.3,6.8,16.2,6.5c2.3-0.2,4.2-0.8,6.5-0.5c1.2,0.3,2.4,0.5,3.7,0.6c5-0.1,10.6,1.5,15.7,0.8c2.9,0.7,5.7,1.5,8.5,2.4&#xA;&#9;&#9;c4,2.7,8.5,6.4,12.8,7.4c0.3,0.2,0.7,0.4,1.2,0.4c1.9,0,4.7,0.4,5.8-1.6c0.1-0.2,0.1-0.3,0.2-0.5c0.4-0.3,0.7-0.6,1-1&#xA;&#9;&#9;c0.1-0.1,0.2-0.2,0.3-0.4c0.9-0.3,1.6-0.8,2.1-1.6c0.4-0.9,0.7-1.8,0.8-2.8c0.4-1,0.8-2.1,1.1-3.2c0.3-1.9-0.9-3.7-2.8-4.2&#xA;&#9;&#9;c-0.3-0.4-0.6-0.8-1-1.1c0,0,0,0,0-0.1c-0.3-0.9-1-1.6-1.9-1.8c-0.4-0.1-0.6-0.2-0.9-0.3s-0.7-0.4-1-0.6l-0.5-0.4&#xA;&#9;&#9;c-0.6-0.5-1.4-0.8-2.2-0.9c-1.1-0.5-2.2-1-3.1-1.5c-4.8-2.6-6.9-5-10.2-9.7c-3.1-4.5-4.8-3.1-9.3-7.1c-2.2-2-3.3-3.9-5.7-5.5&#xA;&#9;&#9;c-3.3-3-7.5-4.8-11.9-5c-0.6,0-1.2,0.2-1.8,0.4c-1.5-0.2-3.1-0.3-4.7-0.2c-0.7-0.3-1.4-0.4-2.2-0.5c-2-0.2-2.8,0.4-4.1,1.3&#xA;&#9;&#9;c-4.7,1.1-9,3.6-12.2,7.2c-2.2,1.6-3.8,3.8-4.7,6.3C268.7,241.2,268.9,245.7,268.9,247.9z"/>
	<path class="st6_chicken-54" d="M340.1,274.1h-1h-0.8c-0.5,0-1-0.1-1.4-0.4c-3.5-0.8-6.9-3.3-10.2-5.6c-0.9-0.6-1.7-1.2-2.5-1.8&#xA;&#9;&#9;c-2.7-0.9-5.5-1.7-8.3-2.4c-3,0.3-6.1,0.2-9-0.3c-2.2-0.3-4.4-0.5-6.6-0.5c-0.8,0-1.6-0.1-2.4-0.3c-0.4-0.1-0.9-0.2-1.3-0.3&#xA;&#9;&#9;c-1.3-0.1-2.7,0-4,0.2c-0.7,0.1-1.5,0.2-2.4,0.3c-4.8,0.4-15.3-0.8-16.8-6.8c-0.5-0.6-0.9-1.2-1.4-1.9c-0.1-0.1-0.3-0.1-0.4-0.2&#xA;&#9;&#9;c-2.2-1.3-3.5-3.8-3.3-6.3c0-0.4,0-0.9,0-1.4c0-2.5-0.1-5.9,0.5-7.8c0.9-2.6,2.6-4.9,4.8-6.5c3.2-3.7,7.5-6.3,12.3-7.4l0.2-0.1&#xA;&#9;&#9;c1.2-1,2.8-1.5,4.3-1.2c0.8,0.1,1.5,0.2,2.2,0.5c1.5,0,3,0,4.5,0.2h0.1c0.6-0.2,1.2-0.4,1.8-0.4c4.6,0.2,8.9,2,12.3,5.1&#xA;&#9;&#9;c1.3,0.9,2.5,2,3.6,3.3c0.6,0.7,1.3,1.5,2.1,2.2c1.3,1.2,2.9,2.3,4.5,3.1c2,0.9,3.7,2.3,4.9,4.2c3.2,4.6,5.3,7,10,9.5&#xA;&#9;&#9;c0.9,0.5,1.9,0.9,2.9,1.4l0.1,0.1c0.9,0.1,1.7,0.5,2.4,1c0.1,0.1,0.3,0.2,0.4,0.4c0.3,0.1,0.5,0.3,0.8,0.4l0.2,0.1&#xA;&#9;&#9;c0.2,0.1,0.4,0.2,0.8,0.3c1.1,0.3,1.9,1.1,2.3,2.2c0.3,0.3,0.5,0.6,0.8,0.9c2,0.6,3.3,2.7,3,4.8c-0.1,0.7-0.3,1.3-0.6,1.9&#xA;&#9;&#9;c-0.2,0.4-0.4,0.9-0.5,1.3c-0.1,0.2-0.1,0.5-0.1,0.7c-0.1,0.8-0.3,1.5-0.7,2.2c-0.5,0.8-1.3,1.4-2.2,1.8l0,0&#xA;&#9;&#9;c-0.1,0.1-0.1,0.2-0.2,0.2c-0.3,0.3-0.6,0.6-0.9,0.9c0,0.2-0.1,0.3-0.2,0.5C343.7,273.9,341.8,274.1,340.1,274.1z M315.9,262.7h0.1&#xA;&#9;&#9;c2.9,0.7,5.8,1.5,8.6,2.4l0.1,0.1c0.9,0.6,1.7,1.2,2.6,1.8c3.3,2.3,6.7,4.7,9.9,5.5h0.1l0.1,0.1c0.5,0.2,1.1,0.3,1.6,0.3&#xA;&#9;&#9;c1.7,0,3.6,0.1,4.4-1.3c0-0.1,0.1-0.2,0.1-0.3V271l0.2-0.1c0.3-0.3,0.7-0.6,1-0.9l0.2-0.2l0.2-0.3l0.1-0.1c0.7-0.2,1.4-0.7,1.8-1.3&#xA;&#9;&#9;c0.3-0.5,0.5-1.1,0.5-1.8c0-0.3,0.1-0.5,0.2-0.8c0.1-0.5,0.3-1,0.5-1.5c0.2-0.5,0.4-1,0.5-1.6c0.2-1.6-0.8-3.1-2.4-3.5l-0.2-0.1&#xA;&#9;&#9;l-0.1-0.1c-0.3-0.4-0.6-0.7-0.9-1l-0.1-0.1l-0.1-0.2c-0.3-0.7-0.8-1.2-1.5-1.4c-0.3-0.1-0.6-0.2-0.9-0.4l-0.3-0.2&#xA;&#9;&#9;c-0.3-0.2-0.5-0.3-0.8-0.4l-0.6-0.4c-0.5-0.4-1.2-0.7-1.9-0.8H339l-0.2-0.1c-1-0.4-2-0.9-3-1.4c-4.9-2.6-7.1-5.1-10.4-9.9&#xA;&#9;&#9;c-1.1-1.7-2.6-3-4.4-3.8c-1.7-0.8-3.4-1.9-4.8-3.2c-0.8-0.7-1.5-1.5-2.2-2.3c-1-1.2-2.1-2.2-3.4-3.1l-0.1-0.1&#xA;&#9;&#9;c-3.2-2.9-7.2-4.6-11.5-4.8c-0.4,0-0.9,0.1-1.2,0.3l-0.4,0.1h-0.1c-1.5-0.2-3.1-0.3-4.6-0.2h-0.1h-0.1c-0.7-0.2-1.4-0.4-2-0.5&#xA;&#9;&#9;c-1.3-0.2-2.5,0.2-3.5,1.1l-0.5,0.3c-4.6,1-8.8,3.5-11.9,7l-0.1,0.1c-2.1,1.5-3.6,3.6-4.5,6c-0.5,1.8-0.5,5.2-0.5,7.4&#xA;&#9;&#9;c0,0.5,0,1,0,1.4l0,0c-0.2,2.2,0.9,4.2,2.7,5.3c0.1,0.1,0.2,0.1,0.3,0.2l0.2,0.1l0.1,0.2c0.4,0.7,0.9,1.4,1.4,2l0.1,0.1v0.1&#xA;&#9;&#9;c1.2,5.3,11.2,6.3,15.5,6c0.8-0.1,1.5-0.2,2.3-0.3c1.4-0.3,2.9-0.4,4.4-0.2c0.5,0.1,1,0.2,1.5,0.3c0.7,0.2,1.4,0.3,2.1,0.3&#xA;&#9;&#9;c2.3,0,4.5,0.2,6.8,0.5c2.9,0.5,5.9,0.6,8.8,0.3L315.9,262.7z"/>
	<path class="st7_chicken-54" d="M275.1,236.3c3-1.2,5.2-3.5,8.1-4.8c0.6-0.1,1.2-0.3,1.8-0.3c3-1.1,3-1.4,5.1-3c0.5-0.4,1.2-0.3,1.5,0.2&#xA;&#9;&#9;c0,0,0,0.1,0.1,0.1l1.5-0.6c0.4-0.2,1-0.1,1.3,0.3c1.5,2,5.5,1.2,7.5,3c1.8,1.6,1.9,3.7,4,4.9s3.1,0,5.2,0.6&#xA;&#9;&#9;c1.7,0.5,3.9,2.6,5.6,3.6c2.9,1.6,6.3,3.6,8.4,6.2c2.3,2.8,3.5,4.8,6.9,6.3c1.3,0.5,2.7,1,3.9,1.6c1.9,1.1,2.4,2.8,4.4,3.7&#xA;&#9;&#9;c4.3,1.9,7.2,4.2,7.9,7.9c0-0.1,0-0.2,0.1-0.4c0.4-1,0.8-2.1,1.1-3.2c0.3-1.9-0.9-3.7-2.8-4.2c-0.3-0.4-0.6-0.8-1-1.1&#xA;&#9;&#9;c0,0,0,0,0-0.1c-0.3-0.9-1-1.6-1.9-1.8c-0.4-0.1-0.6-0.2-0.9-0.3s-0.7-0.4-1-0.6l-0.5-0.4c-0.6-0.5-1.4-0.8-2.2-0.9&#xA;&#9;&#9;c-1.1-0.5-2.2-1-3.1-1.5c-4.8-2.6-6.9-5-10.2-9.7c-3.1-4.5-4.8-3.1-9.3-7.1c-2.2-2-3.3-3.9-5.7-5.5c-3.3-3-7.5-4.8-11.9-5&#xA;&#9;&#9;c-0.6,0-1.2,0.2-1.8,0.4c-1.5-0.2-3.1-0.3-4.7-0.2c-0.7-0.3-1.4-0.4-2.2-0.5c-2-0.2-2.8,0.4-4.1,1.3c-4.7,1.1-9,3.6-12.2,7.2&#xA;&#9;&#9;c-2.2,1.6-3.8,3.8-4.7,6.3c-0.3,1.2-0.5,2.5-0.5,3.7C270.2,239.9,271.8,237.7,275.1,236.3z"/>
	<path class="st8_chicken-54" d="M303.6,262.7c-1.2-0.9-2.6-1.5-4-1.9c-0.3-0.4-0.8-0.7-1.3-0.8c-4.8-1.2-10.8-1.4-14,3.1&#xA;&#9;&#9;c-2.8,4-0.5,8.2,3.5,10.2c4.6,2.3,11.9,3.5,16.4,0.3C308.1,270.8,307.2,265.4,303.6,262.7z"/>
	<path class="st9_chicken-54" d="M328.4,270.7c-1.7-6-11.1-8.1-17.3-6.1c-0.9-0.1-1.8,0-2.7,0.1c-3.1,0.5-5.8,2.5-5.5,5.9&#xA;&#9;&#9;c0.3,3.7,4.1,6.2,7.3,7.3C314.9,279.5,330.9,279.4,328.4,270.7z"/>
</g>
<g id="chicken_bucket_chicken-54">
	
		<linearGradient id="SVGID_00000026161103456559877500000001025912501356975755_-chicken-54" gradientUnits="userSpaceOnUse" x1="158.6189" y1="226.9414" x2="127.7789" y2="201.7914" gradientTransform="matrix(1 0 0 -1 0 502)">
		<stop offset="0" style="stop-color:#093E3E"/>
		<stop offset="1" style="stop-color:#16A79E;stop-opacity:0"/>
	</linearGradient>
	<path style="opacity:0.41;fill:url(#SVGID_00000026161103456559877500000001025912501356975755_);enable-background:new    ;" d="&#xA;&#9;&#9;M165.1,262.1l-27.9-8.9l-47.7,25.4c11.6,10,54.3,36.7,67.3,45l42.4-28.8C197.9,291.5,167,265,165.1,262.1z"/>
	<path class="st3_chicken-54 targetColor" d="M113.4,152l23.1,113.4c0,0,5.5,22.2,48.1,22.3c46.2,0.1,51.4-27.5,51.4-27.5l18.6-100" style="fill: rgb(104, 225, 253);"/>
	<ellipse class="st3_chicken-54 targetColor" cx="184.1" cy="152" rx="71.2" ry="45" style="fill: rgb(104, 225, 253);"/>
	<ellipse class="st11_chicken-54" cx="184.1" cy="152" rx="71.2" ry="45"/>
	<path class="st12_chicken-54" d="M226.9,219.4c-0.7,3.4-1.6,5.6-4.3,8c-2.4,2.2-7.1,3.7-8.9-0.6c-0.4-1.3-1.7-2-2.9-1.6&#xA;&#9;&#9;c-1,0.3-1.7,1.2-1.7,2.2c-0.4,4-3.8,12-8.8,14.6l0.2-0.2c3-3.6,8.6-13.7,2.3-16.9c-6.1-3.1-13,4.9-14.9,9.8&#xA;&#9;&#9;c-1.5,4.1-0.6,8,1.8,10.4c-2.4,1.6-5.1,2.9-7.8,3.9c-9.6,3.1-15.3-3.9-13.8-13.1c0-0.2,0.1-0.4,0.1-0.6c4.3-1.8,8.4-4.1,12.2-6.8&#xA;&#9;&#9;c4-2.9,15.1-10.9,10.4-16.9c-4.8-6.2-15.2,0.7-18.8,4.7c-3.9,4.5-6.7,9.9-8.1,15.7c-4.4,1.8-9,3.3-13.5,4.8&#xA;&#9;&#9;c-2.9,0.9-1.6,5.5,1.3,4.6c3.8-1.2,7.6-2.5,11.4-3.9c-0.1,1.7-0.1,3.5,0.2,5.2c2.5,17.2,20.3,12.6,31.3,4.7c1.1,0.2,2.2,0.2,3.3,0&#xA;&#9;&#9;c7.6-1.2,12.7-7.7,14.9-14.7c2.1,1.5,4.6,2.1,7.2,1.8c7-0.9,10.2-7.6,11.6-13.8C232.1,217.7,227.6,216.4,226.9,219.4z M178.6,219.7&#xA;&#9;&#9;c0.6-0.6,9.6-8,7.5-0.1c-0.4,1.3-5.2,4.7-5.8,5.1c-2.3,1.6-4.7,3.1-7.2,4.3C174.3,225.5,176.2,222.3,178.6,219.7z M194.9,232.1&#xA;&#9;&#9;c1-2.1,2.8-2.4,5.2-0.9c0.8,1.6-3.8,6.8-4.4,7.5c-0.3,0.3-0.6,0.6-0.9,0.8C192.6,236.7,192.6,234.2,194.9,232.1z"/>
	<path class="st5_chicken-54" d="M261.7,113c-1.5-1.8-3.9-2.6-6.2-2c-0.2,0-0.3,0.1-0.5,0.2c-0.8-0.2-1.7-0.4-2.5-0.4&#xA;&#9;&#9;c-4.9-3.1-12.9,3.1-16.1,6.8c-1.5,1.8-2.5,3.5-4.3,4.9c-1.1,0.6-2.1,1.4-3,2.2c-3.5,3.6-8.6,6.4-11.7,10.4&#xA;&#9;&#9;c-2.5,1.5-5.1,2.9-7.8,4.3c-4.8,0.9-10.5,1.4-14.2,3.7c-0.4,0.1-0.8,0.3-1.1,0.6c-1.4,1.4-3.6,3-3,5.2c0.1,0.2,0.1,0.3,0.2,0.5&#xA;&#9;&#9;c0,0.5,0,0.9,0,1.4c0,0.2,0,0.3,0,0.5c-0.4,0.8-0.6,1.7-0.4,2.6c0.3,0.9,0.8,1.8,1.4,2.5c0.6,1,0.8,2.1,1.4,3c1.2,1.5,3.3,2,4.9,1&#xA;&#9;&#9;c0.5,0.1,1,0.1,1.5,0.1h0.1c0.8,0.4,1.8,0.4,2.7,0c0.3-0.2,0.6-0.3,0.9-0.4s0.8-0.2,1.1-0.3l0.6-0.1c0.8-0.1,1.5-0.4,2.2-0.9&#xA;&#9;&#9;c1.1-0.4,2.2-0.8,3.3-1.1c5.2-1.5,8.4-1.3,14.1-0.2c5.3,1,5.6-1.2,11.6-1.4c3-0.1,5.1,0.5,7.9-0.1c4.4-0.2,8.7-1.9,12-4.8&#xA;&#9;&#9;c0.4-0.4,0.8-1,1-1.5c1.2-0.9,2.4-2,3.5-3.1c0.7-0.3,1.3-0.7,1.9-1.2c1.6-1.3,1.7-2.3,2-3.9c2.7-4.1,3.9-8.9,3.7-13.8&#xA;&#9;&#9;c0.4-2.6,0.1-5.3-1.1-7.8C266.5,117.7,263.2,114.6,261.7,113z"/>
	<path class="st6_chicken-54" d="M196.8,161.2c-1.4,0-2.6-0.7-3.4-1.8c-0.4-0.6-0.7-1.2-0.9-1.8c-0.2-0.4-0.3-0.9-0.6-1.3&#xA;&#9;&#9;c-0.1-0.2-0.3-0.4-0.4-0.6c-0.5-0.6-0.8-1.3-1-2.1c-0.2-1-0.1-2,0.4-2.8l0,0c0-0.1,0-0.2,0-0.3c0-0.4,0-0.8,0-1.3&#xA;&#9;&#9;c-0.1-0.1-0.2-0.3-0.2-0.5c-0.6-2.3,1.2-3.9,2.6-5.2l0.6-0.6c0.4-0.4,0.8-0.6,1.3-0.7c3-1.8,7.2-2.5,11.2-3.2c1-0.2,2.1-0.3,3-0.5&#xA;&#9;&#9;c2.5-1.2,5.1-2.6,7.6-4.1c2-2.3,4.2-4.4,6.7-6.1c1.8-1.3,3.4-2.7,5-4.3c0.6-0.6,1.2-1.1,1.9-1.5c0.4-0.2,0.8-0.5,1.1-0.8&#xA;&#9;&#9;c1-0.9,1.9-1.9,2.7-3c0.5-0.6,0.9-1.2,1.5-1.8c3.2-3.7,11.5-10.1,16.8-6.9c0.8,0.1,1.5,0.2,2.3,0.4c0.1,0,0.3-0.1,0.4-0.1&#xA;&#9;&#9;c2.5-0.6,5.1,0.3,6.8,2.2l0,0c0.3,0.3,0.6,0.6,1,1c1.7,1.7,4.1,4.1,5.1,5.9c1.2,2.5,1.6,5.3,1.1,8c0.3,4.9-1,9.8-3.7,14v0.2&#xA;&#9;&#9;c-0.1,1.6-0.9,3-2.2,3.9c-0.6,0.5-1.2,0.9-1.9,1.2c-1,1.1-2.2,2.1-3.4,3v0.1c-0.2,0.6-0.6,1.1-1,1.5c-3.4,3-7.8,4.8-12.3,5&#xA;&#9;&#9;c-1.6,0.3-3.2,0.3-4.8,0.2c-1-0.1-2.1-0.1-3.1-0.1c-1.8,0.1-3.6,0.4-5.4,1c-2,0.8-4.3,0.9-6.4,0.4c-5.6-1.1-8.7-1.3-13.8,0.2&#xA;&#9;&#9;c-1,0.3-2,0.6-3,1h-0.1c-0.7,0.5-1.5,0.8-2.4,0.9l-0.6,0.1c-0.2,0.1-0.5,0.1-0.9,0.2l-0.2,0.1c-0.2,0.1-0.4,0.2-0.7,0.3&#xA;&#9;&#9;c-1,0.5-2.1,0.5-3.1,0.1c-0.5,0-0.9-0.1-1.2-0.1C198.3,161.1,197.6,161.2,196.8,161.2z M249.4,110.4c-4.5,0-10.2,4.7-12.5,7.4&#xA;&#9;&#9;c-0.5,0.6-1,1.2-1.4,1.8c-0.8,1.2-1.8,2.3-2.9,3.2c-0.4,0.3-0.8,0.6-1.3,0.8c-0.6,0.3-1.2,0.8-1.7,1.3c-1.6,1.6-3.3,3.1-5.2,4.4&#xA;&#9;&#9;c-2.4,1.7-4.6,3.7-6.5,6l-0.2,0.2c-2.6,1.6-5.2,3-7.9,4.3l-0.2,0.1c-1,0.2-2.1,0.4-3.1,0.5c-4,0.6-8.1,1.3-10.9,3.1l-0.1,0.1h-0.1&#xA;&#9;&#9;c-0.3,0-0.5,0.2-0.7,0.4l-0.6,0.6c-1.2,1.1-2.6,2.5-2.2,4c0,0.1,0.1,0.2,0.2,0.3l0.1,0.2v0.2c0,0.4,0,0.9,0,1.3c0,0.1,0,0.2,0,0.3&#xA;&#9;&#9;v0.3v0.1c-0.4,0.7-0.5,1.5-0.4,2.2c0.2,0.6,0.5,1.1,0.8,1.6c0.2,0.2,0.3,0.4,0.5,0.7c0.3,0.5,0.5,0.9,0.7,1.4&#xA;&#9;&#9;c0.2,0.5,0.4,1,0.8,1.5c1,1.3,2.8,1.7,4.2,0.9l0.2-0.1h0.2c0.5,0.1,0.9,0.1,1.4,0.1h0.1l0.2,0.1c0.7,0.3,1.4,0.3,2.1-0.1&#xA;&#9;&#9;c0.3-0.2,0.6-0.3,0.9-0.4l0.3-0.1c0.3-0.1,0.6-0.1,0.9-0.2l0.7-0.1c0.7-0.1,1.3-0.4,1.9-0.8l0.1-0.1l0.2-0.1c1-0.4,2.1-0.8,3.1-1.1&#xA;&#9;&#9;c5.4-1.6,8.6-1.4,14.4-0.3c1.9,0.4,3.9,0.3,5.8-0.4c1.8-0.6,3.7-1,5.7-1c1.2,0,2.2,0,3.2,0.1c1.5,0.2,3.1,0.1,4.6-0.1h0.1&#xA;&#9;&#9;c4.3-0.2,8.4-1.8,11.6-4.7c0.3-0.3,0.5-0.7,0.7-1.1l0.2-0.4l0.1-0.1c1.2-0.9,2.4-1.9,3.4-3l0.2-0.1c0.6-0.3,1.2-0.7,1.8-1.1&#xA;&#9;&#9;c1-0.7,1.7-1.9,1.8-3.2l0.1-0.5c2.6-4,3.8-8.7,3.6-13.4v-0.1c0.4-2.5,0.1-5.1-1-7.4c-0.8-1.6-3.1-4-4.8-5.6c-0.4-0.4-0.7-0.7-1-1&#xA;&#9;&#9;c-1.4-1.7-3.6-2.4-5.7-1.9c-0.1,0-0.2,0.1-0.4,0.1l-0.2,0.1l-0.2-0.1c-0.8-0.2-1.6-0.3-2.4-0.4h-0.1l-0.1-0.1&#xA;&#9;&#9;C251.3,110.7,250.4,110.4,249.4,110.4L249.4,110.4z"/>
	<path class="st7_chicken-54" d="M265.3,125.6c-1.2,3-1.3,6.1-2.4,9.1c-0.2,0.6-0.8,1-1,1.5c-1.4,2.9-1.2,3.1-1.6,5.7c-0.1,0.6-0.6,1-1.2,1&#xA;&#9;&#9;c0,0-0.1,0-0.1,0l-0.7,1.4c-0.2,0.5-0.6,0.7-1.1,0.7c-2.5-0.3-4.8,3-7.5,3.1c-2.4,0.1-3.9-1.3-6.3-0.7s-2.2,2.2-4.1,3.3&#xA;&#9;&#9;c-1.6,0.9-4.6,0.9-6.5,1.4c-3.2,0.9-7.1,1.8-10.4,1.5c-3.6-0.4-5.8-1-9.4,0.3c-1.3,0.6-2.6,1.2-3.9,1.6c-2.1,0.5-3.6-0.3-5.7,0.4&#xA;&#9;&#9;c-4.4,1.6-8.1,2.1-11.2-0.1l0.2,0.3c0.6,1,0.8,2.1,1.4,3c1.2,1.5,3.3,2,4.9,1c0.5,0.1,1,0.1,1.5,0.1h0.1c0.8,0.4,1.8,0.4,2.7,0&#xA;&#9;&#9;c0.3-0.2,0.6-0.3,0.9-0.4s0.8-0.2,1.1-0.3l0.6-0.1c0.8-0.1,1.5-0.4,2.2-0.9c1.1-0.4,2.2-0.8,3.3-1.1c5.2-1.5,8.4-1.3,14.1-0.2&#xA;&#9;&#9;c5.3,1,5.6-1.2,11.6-1.4c3-0.1,5.1,0.5,7.9-0.1c4.4-0.2,8.7-1.9,12-4.8c0.4-0.4,0.8-1,1-1.5c1.2-0.9,2.4-2,3.5-3.1&#xA;&#9;&#9;c0.7-0.3,1.3-0.7,1.9-1.2c1.6-1.3,1.7-2.3,2-3.9c2.7-4.1,3.9-8.9,3.7-13.8c0.4-2.6,0.1-5.3-1.1-7.8c-0.6-1.1-1.4-2.1-2.2-3&#xA;&#9;&#9;C266.3,119.7,266.8,122.3,265.3,125.6z"/>
	<path class="st5_chicken-54" d="M238.9,134.8c0.9-2.2,0.4-4.7-1.1-6.4c-0.1-0.1-0.2-0.3-0.4-0.4c-0.2-0.8-0.5-1.6-0.8-2.4&#xA;&#9;&#9;c0.4-5.8-8.8-9.9-13.6-10.9c-2.3-0.5-4.3-0.5-6.4-1.4c-1.1-0.6-2.2-1.2-3.3-1.6c-4.9-1.3-9.7-4.6-14.8-5.4c-2.6-1.5-5-3.1-7.5-4.8&#xA;&#9;&#9;c-3.1-3.8-6.2-8.6-10-10.8c-0.2-0.3-0.6-0.6-1-0.7c-1.9-0.6-4.3-1.8-6-0.2c-0.1,0.1-0.2,0.3-0.3,0.4c-0.4,0.2-0.8,0.4-1.2,0.6&#xA;&#9;&#9;l-0.4,0.3c-0.9,0-1.8,0.3-2.5,0.9c-0.6,0.7-1.2,1.5-1.6,2.4c-0.6,1-1.5,1.7-2,2.7c-0.8,1.7-0.2,3.8,1.4,4.8&#xA;&#9;&#9;c0.2,0.5,0.4,0.9,0.6,1.3v0.1c0,0.9,0.5,1.8,1.3,2.3c0.3,0.2,0.5,0.4,0.8,0.6s0.5,0.6,0.8,0.9c0.1,0.2,0.2,0.3,0.3,0.5&#xA;&#9;&#9;c0.5,0.7,1.1,1.2,1.8,1.5c0.9,0.8,1.8,1.6,2.6,2.4c3.8,3.8,5.2,6.8,6.9,12.3c1.6,5.2,3.7,4.4,6.8,9.6c1.5,2.6,2,4.7,3.8,6.9&#xA;&#9;&#9;c2.3,3.8,5.8,6.8,10,8.3c0.6,0.2,1.2,0.2,1.8,0.1c1.4,0.6,2.9,1.2,4.4,1.6c0.6,0.4,1.3,0.8,1.9,1.1c1.9,0.8,2.8,0.4,4.4-0.1&#xA;&#9;&#9;c4.8,0.4,9.7-0.8,13.8-3.3c2.5-0.9,4.7-2.5,6.3-4.6C237.1,141.3,238.2,137,238.9,134.8z"/>
	<path class="st6_chicken-54" d="M213.2,152.3c-0.8,0-1.5-0.2-2.2-0.5c-0.7-0.3-1.4-0.7-2-1.1c-1.5-0.4-2.9-0.9-4.2-1.5h-0.1&#xA;&#9;&#9;c-0.6,0.1-1.2,0-1.8-0.2c-4.3-1.6-7.9-4.6-10.2-8.5c-1-1.3-1.8-2.7-2.4-4.2c-0.4-0.9-0.8-1.8-1.4-2.8c-0.9-1.6-2.1-3-3.4-4.3&#xA;&#9;&#9;c-1.6-1.4-2.8-3.3-3.4-5.4c-1.7-5.4-3-8.2-6.8-12c-0.7-0.7-1.5-1.4-2.4-2.2l-0.1-0.1c-0.8-0.4-1.5-1-2-1.7&#xA;&#9;&#9;c-0.1-0.2-0.2-0.3-0.3-0.5s-0.4-0.4-0.6-0.6l-0.2-0.2l-0.6-0.5c-0.9-0.6-1.5-1.6-1.6-2.7c-0.2-0.4-0.4-0.7-0.5-1.1&#xA;&#9;&#9;c-1.8-1.2-2.4-3.5-1.5-5.5c0.3-0.6,0.7-1.2,1.2-1.7c0.3-0.3,0.6-0.7,0.8-1.1c0.1-0.2,0.2-0.4,0.4-0.7c0.3-0.7,0.8-1.4,1.3-1.9&#xA;&#9;&#9;c0.7-0.6,1.7-1,2.7-1l0,0l0.3-0.2c0.4-0.2,0.7-0.4,1.1-0.6c0.1-0.2,0.2-0.3,0.3-0.4c1.7-1.6,4.1-0.8,5.9-0.2l0.8,0.2&#xA;&#9;&#9;c0.5,0.1,0.9,0.4,1.2,0.8c3.1,1.8,5.6,5.2,8.1,8.4c0.6,0.8,1.3,1.7,1.9,2.4c2.3,1.6,4.7,3.2,7.2,4.7c3,0.6,5.8,1.6,8.6,3&#xA;&#9;&#9;c2,0.9,4,1.7,6.1,2.4c0.8,0.2,1.5,0.6,2.2,1c0.4,0.2,0.8,0.5,1.2,0.6c1.3,0.5,2.6,0.8,3.9,1c0.8,0.1,1.5,0.2,2.3,0.4&#xA;&#9;&#9;c4.8,1.1,14.4,5.3,14.1,11.4c0.3,0.7,0.5,1.4,0.7,2.2c0.1,0.1,0.2,0.2,0.3,0.3c1.7,1.9,2.2,4.6,1.2,7l0,0c-0.1,0.4-0.2,0.8-0.4,1.3&#xA;&#9;&#9;c-0.7,2.4-1.7,5.6-2.8,7.3c-1.6,2.2-3.9,3.9-6.5,4.8c-4.2,2.6-9.1,3.8-14.1,3.4l-0.2,0.1C214.7,152.2,213.9,152.3,213.2,152.3z&#xA;&#9;&#9; M205,147.9l0.1,0.1c1.4,0.6,2.8,1.2,4.3,1.6l0.2,0.1c0.6,0.4,1.2,0.8,1.8,1.1c1.1,0.5,2.5,0.5,3.6,0l0.4-0.1h0.1&#xA;&#9;&#9;c4.7,0.4,9.4-0.7,13.5-3.2l0.1-0.1c2.4-0.8,4.5-2.4,6-4.4c1-1.5,2-4.6,2.6-6.9c0.1-0.5,0.3-1,0.4-1.4l0,0c0.8-2,0.4-4.3-1-5.9&#xA;&#9;&#9;c-0.1-0.1-0.2-0.2-0.3-0.3l-0.2-0.1l-0.1-0.2c-0.2-0.8-0.5-1.6-0.8-2.3l-0.1-0.1v-0.2c0.4-5.4-8.8-9.3-13.1-10.3&#xA;&#9;&#9;c-0.8-0.2-1.5-0.3-2.2-0.4c-1.4-0.1-2.9-0.5-4.2-1c-0.5-0.2-0.9-0.4-1.3-0.7c-0.6-0.4-1.2-0.7-1.9-0.9c-2.2-0.7-4.3-1.5-6.3-2.4&#xA;&#9;&#9;c-2.7-1.3-5.5-2.3-8.4-2.9l-0.2-0.1c-2.6-1.5-5.1-3.2-7.5-4.9l-0.1-0.1c-0.6-0.8-1.3-1.7-2-2.5c-2.4-3.2-5-6.5-7.9-8.1l-0.1-0.1&#xA;&#9;&#9;l-0.1-0.1c-0.2-0.2-0.4-0.4-0.7-0.5c-0.2-0.1-0.5-0.2-0.8-0.3c-1.6-0.6-3.4-1.2-4.6,0c-0.1,0.1-0.1,0.2-0.2,0.3l-0.1,0.2l-0.2,0.1&#xA;&#9;&#9;c-0.4,0.2-0.8,0.4-1.2,0.6c-0.1,0-0.2,0.1-0.2,0.1l-0.3,0.2h-0.1c-0.8,0-1.5,0.3-2.1,0.7c-0.4,0.4-0.8,0.9-1,1.5&#xA;&#9;&#9;c-0.1,0.2-0.2,0.5-0.4,0.7c-0.3,0.5-0.6,0.9-1,1.3c-0.4,0.4-0.7,0.9-1,1.4c-0.7,1.5-0.2,3.2,1.2,4.1l0.1,0.1l0.1,0.2&#xA;&#9;&#9;c0.2,0.4,0.4,0.9,0.6,1.3l0.1,0.1v0.2c0,0.7,0.4,1.4,1.1,1.8c0.3,0.2,0.5,0.4,0.8,0.6l0.2,0.2c0.2,0.2,0.4,0.4,0.6,0.7&#xA;&#9;&#9;s0.3,0.4,0.4,0.6c0.4,0.6,0.9,1,1.6,1.3l0.1,0.1l0.2,0.1c0.8,0.7,1.7,1.5,2.4,2.2c3.9,4,5.3,6.9,7,12.5c0.5,1.9,1.6,3.6,3.1,4.9&#xA;&#9;&#9;c1.4,1.3,2.6,2.8,3.6,4.5c0.6,1,1,2,1.4,2.9c0.6,1.4,1.4,2.7,2.3,3.9l0.1,0.1c2.2,3.7,5.6,6.5,9.6,8c0.4,0.1,0.9,0.2,1.3,0.1&#xA;&#9;&#9;L205,147.9z"/>
	<path class="st7_chicken-54" d="M229.5,144c-3.2,0.3-6,1.8-9.1,2.2c-0.6,0-1.2-0.1-1.8-0.2c-3.2,0.1-3.3,0.4-5.7,1.3c-0.6,0.2-1.2-0.1-1.4-0.6&#xA;&#9;&#9;c0,0,0,0,0-0.1l-1.6,0.1c-0.5,0.1-1-0.2-1.2-0.6c-0.9-2.3-4.9-2.8-6.3-5.1c-1.2-2.1-0.7-4.1-2.4-5.9s-3-0.9-4.8-2.1&#xA;&#9;&#9;c-1.5-1-3-3.7-4.3-5.1c-2.3-2.4-5-5.3-6.2-8.4c-1.4-3.4-1.9-5.6-4.8-8.1c-1.2-0.8-2.2-1.7-3.3-2.7c-1.4-1.6-1.4-3.4-3.1-4.8&#xA;&#9;&#9;c-3.5-3.1-5.7-6.1-5.2-9.9c-0.1,0.1-0.1,0.2-0.2,0.3c-0.6,1-1.5,1.7-2,2.7c-0.8,1.7-0.2,3.8,1.4,4.8c0.2,0.5,0.4,0.9,0.6,1.3v0.1&#xA;&#9;&#9;c0,0.9,0.5,1.8,1.3,2.3c0.3,0.2,0.5,0.4,0.8,0.6s0.5,0.6,0.8,0.9c0.1,0.2,0.2,0.3,0.3,0.5c0.5,0.7,1.1,1.2,1.8,1.5&#xA;&#9;&#9;c0.9,0.8,1.8,1.6,2.6,2.4c3.8,3.8,5.2,6.8,6.9,12.3c1.6,5.2,3.7,4.4,6.8,9.6c1.5,2.6,2,4.7,3.8,6.9c2.3,3.8,5.8,6.8,10,8.3&#xA;&#9;&#9;c0.6,0.2,1.2,0.2,1.8,0.1c1.4,0.6,2.9,1.2,4.4,1.6c0.6,0.4,1.3,0.8,1.9,1.1c1.9,0.8,2.8,0.4,4.4-0.1c4.8,0.4,9.7-0.8,13.8-3.3&#xA;&#9;&#9;c2.5-0.9,4.7-2.5,6.3-4.6c0.6-1.1,1.2-2.2,1.6-3.4C235.2,142.1,233.1,143.7,229.5,144z"/>
	<path class="st5_chicken-54" d="M122.5,191.1c0.3,2.3,2,4.3,4.2,5c0.2,0.1,0.3,0.1,0.5,0.1c0.6,0.6,1.2,1.2,1.9,1.7c2.5,5.2,12.6,4.1,17.2,2.7&#xA;&#9;&#9;c2.2-0.7,4-1.7,6.2-2c1.2,0,2.5-0.1,3.7-0.3c4.9-1.3,10.7-0.9,15.4-2.8c3,0,5.9,0.2,8.9,0.4c4.5,1.7,9.7,4.3,14.1,4.3&#xA;&#9;&#9;c0.4,0.2,0.8,0.2,1.2,0.1c1.9-0.4,4.6-0.7,5.3-2.9c0-0.2,0-0.3,0-0.5c0.3-0.4,0.5-0.8,0.8-1.2c0.1-0.1,0.1-0.3,0.2-0.4&#xA;&#9;&#9;c0.8-0.5,1.4-1.2,1.7-2c0.2-0.9,0.3-1.9,0.1-2.9c0-1.1,0.4-2.2,0.3-3.3c-0.2-1.9-1.7-3.4-3.7-3.4c-0.4-0.3-0.8-0.6-1.2-0.9&#xA;&#9;&#9;c0,0,0,0,0-0.1c-0.5-0.8-1.4-1.3-2.3-1.4c-0.4,0-0.7-0.1-0.9-0.1s-0.7-0.2-1.1-0.4l-0.5-0.3c-0.7-0.3-1.5-0.5-2.3-0.4&#xA;&#9;&#9;c-1.2-0.2-2.3-0.5-3.4-0.8c-5.2-1.4-7.9-3.3-12.1-7.2c-4-3.6-5.4-1.9-10.6-4.9c-2.6-1.5-4.1-3.1-6.8-4.1c-3.9-2.2-8.4-2.9-12.8-2.1&#xA;&#9;&#9;c-0.6,0.1-1.1,0.4-1.6,0.8c-1.6,0.2-3.1,0.4-4.6,0.8c-0.7-0.1-1.5-0.1-2.2,0c-2.1,0.2-2.7,1-3.8,2.2c-4.4,2.1-8,5.5-10.3,9.8&#xA;&#9;&#9;c-1.8,2-2.9,4.5-3.1,7.2C120.8,184.6,122,188.9,122.5,191.1z"/>
	<path class="st6_chicken-54" d="M138.3,202.4c-4,0-8-1-9.6-4.1c-0.6-0.5-1.2-1-1.7-1.5c-0.1,0-0.3-0.1-0.4-0.1c-2.4-0.8-4.2-2.9-4.6-5.4l0,0&#xA;&#9;&#9;c-0.1-0.4-0.2-0.9-0.3-1.4c-0.6-2.4-1.4-5.7-1.2-7.7c0.3-2.8,1.4-5.4,3.2-7.5c2.3-4.4,6-7.9,10.4-10l0.1-0.2&#xA;&#9;&#9;c0.9-1.3,2.4-2.1,3.9-2.2c0.8-0.1,1.5-0.1,2.3,0c1.5-0.4,2.9-0.6,4.4-0.8l0.1-0.1c0.5-0.4,1-0.6,1.6-0.7c4.5-0.8,9.1,0,13.1,2.2&#xA;&#9;&#9;c1.5,0.6,2.9,1.4,4.2,2.4c0.8,0.6,1.7,1.2,2.6,1.7c1.6,0.9,3.3,1.6,5.1,2c2.1,0.4,4.1,1.5,5.7,3c4.2,3.8,6.8,5.6,11.9,7&#xA;&#9;&#9;c1,0.3,2,0.5,3.1,0.7h0.1c0.9-0.1,1.8,0.1,2.6,0.5l0.5,0.2l0.8,0.3l0.2,0.1l0.8,0.1c1.1,0.1,2.1,0.7,2.7,1.6c0.4,0.3,0.7,0.5,1,0.7&#xA;&#9;&#9;c2.1,0.2,3.8,1.9,4,4c0,0.7,0,1.3-0.2,2c-0.1,0.5-0.2,0.9-0.2,1.4c0,0.3,0,0.5,0,0.8c0.1,0.8,0,1.6-0.2,2.3c-0.3,0.9-1,1.7-1.8,2.2&#xA;&#9;&#9;l0,0l-0.1,0.3c-0.2,0.4-0.4,0.7-0.7,1.1c0,0.2,0,0.3-0.1,0.5c-0.7,2.3-3,2.7-4.9,3.1c-0.3,0-0.5,0.1-0.8,0.2&#xA;&#9;&#9;c-0.5,0.1-1,0.1-1.5-0.1c-3.6,0-7.4-1.6-11.2-3.2c-1-0.4-1.9-0.8-2.9-1.1c-2.8-0.3-5.7-0.4-8.6-0.4c-2.9,0.9-5.9,1.5-8.9,1.7&#xA;&#9;&#9;c-2.2,0.2-4.4,0.5-6.5,1c-0.8,0.2-1.6,0.3-2.4,0.2c-0.5,0-0.9,0-1.4,0.1c-1.3,0.2-2.6,0.6-3.9,1.1c-0.7,0.3-1.4,0.6-2.2,0.8&#xA;&#9;&#9;C143.9,201.9,141.1,202.4,138.3,202.4z M123.1,191c0.3,2.1,1.8,3.9,3.8,4.6c0.1,0,0.2,0.1,0.4,0.1h0.2l0.2,0.1&#xA;&#9;&#9;c0.6,0.6,1.2,1.1,1.8,1.6l0.1,0.1l0.1,0.1c2.4,4.9,12.3,3.6,16.5,2.3c0.8-0.2,1.5-0.5,2.1-0.8c1.3-0.6,2.7-1,4.2-1.2&#xA;&#9;&#9;c0.5-0.1,1-0.1,1.5-0.1c0.7,0,1.4,0,2.1-0.2c2.2-0.5,4.4-0.8,6.7-1c3-0.2,5.9-0.8,8.7-1.7l0.1-0.1h0.1c3,0,6,0.2,8.9,0.5h0.2&#xA;&#9;&#9;c1,0.4,1.9,0.8,3,1.2c3.7,1.5,7.5,3.1,10.9,3.1h0.2l0.1,0.1c0.3,0.1,0.5,0.1,0.8,0.1l0.8-0.2c1.7-0.3,3.5-0.7,4-2.3&#xA;&#9;&#9;c0-0.1,0-0.2,0-0.3v-0.2l0.1-0.2c0.3-0.4,0.5-0.7,0.7-1.1l0.1-0.2l0.1-0.3l0.1-0.1c0.7-0.4,1.2-1,1.5-1.7c0.2-0.6,0.2-1.2,0.1-1.8&#xA;&#9;&#9;c0-0.3,0-0.6,0-0.8c0-0.5,0.1-1.1,0.2-1.6c0.1-0.5,0.2-1.1,0.1-1.7c-0.1-1.6-1.5-2.9-3.1-2.9h-0.2l-0.1-0.1&#xA;&#9;&#9;c-0.4-0.3-0.7-0.6-1.1-0.8l-0.1-0.1l-0.1-0.2c-0.4-0.6-1.1-1-1.8-1c-0.3,0-0.7-0.1-1-0.1l-0.3-0.1l-0.8-0.3&#xA;&#9;&#9;c-0.3-0.1-0.4-0.2-0.7-0.3c-0.6-0.3-1.3-0.4-2-0.3h-0.1L192,181c-1.1-0.2-2.2-0.4-3.2-0.7c-5.4-1.5-8.1-3.4-12.4-7.3&#xA;&#9;&#9;c-1.4-1.4-3.2-2.3-5.1-2.7c-1.9-0.4-3.7-1.1-5.4-2.1c-1-0.6-1.9-1.2-2.7-1.8c-1.2-0.9-2.6-1.7-4-2.3l-0.1-0.1&#xA;&#9;&#9;c-3.7-2.1-8.1-2.9-12.3-2.1c-0.4,0.1-0.8,0.3-1.2,0.6l-0.4,0.2h-0.1c-1.5,0.2-3,0.4-4.5,0.8h-0.1h-0.1c-0.7-0.1-1.4-0.1-2.1,0&#xA;&#9;&#9;c-1.3,0.1-2.4,0.7-3.1,1.8l-0.4,0.4c-4.3,2-7.8,5.4-10,9.5l-0.1,0.1c-1.7,1.9-2.7,4.3-3,6.8c-0.1,1.8,0.6,5,1.2,7.3&#xA;&#9;&#9;C123,190.1,123.1,190.6,123.1,191L123.1,191z"/>
	<path class="st7_chicken-54" d="M126,178.4c2.6-1.9,4.3-4.6,6.8-6.5c0.5-0.4,1.2-0.4,1.6-0.7c2.7-1.7,2.7-2.1,4.3-4c0.4-0.5,1.1-0.5,1.6-0.2&#xA;&#9;&#9;c0,0,0,0,0,0l1.3-0.9c0.4-0.3,0.9-0.3,1.3,0c1.9,1.6,5.7-0.1,8,1.3c2.1,1.2,2.7,3.2,5,3.9s3-0.7,5.2-0.6c1.8,0.1,4.4,1.7,6.2,2.2&#xA;&#9;&#9;c3.2,1,7,2.1,9.6,4.2c2.9,2.2,4.5,3.9,8.2,4.6c1.4,0.1,2.8,0.4,4.2,0.7c2.1,0.7,2.9,2.2,5.1,2.6c4.6,0.9,8,2.4,9.5,6&#xA;&#9;&#9;c0-0.1,0-0.3,0-0.4c0-1.1,0.4-2.2,0.3-3.3c-0.2-1.9-1.7-3.4-3.7-3.4c-0.4-0.3-0.8-0.6-1.2-0.9c0,0,0,0,0-0.1&#xA;&#9;&#9;c-0.5-0.8-1.4-1.3-2.3-1.4c-0.4,0-0.7-0.1-0.9-0.1s-0.7-0.2-1.1-0.4l-0.5-0.3c-0.7-0.3-1.5-0.5-2.3-0.4c-1.2-0.2-2.3-0.5-3.4-0.8&#xA;&#9;&#9;c-5.2-1.4-7.9-3.3-12.1-7.2c-4-3.6-5.4-1.9-10.6-4.9c-2.6-1.5-4.1-3.1-6.8-4.1c-3.9-2.2-8.4-2.9-12.8-2.1c-0.6,0.1-1.1,0.4-1.6,0.8&#xA;&#9;&#9;c-1.6,0.2-3.1,0.4-4.6,0.8c-0.7-0.1-1.5-0.1-2.2,0c-2.1,0.2-2.7,1-3.8,2.2c-4.4,2.1-8,5.5-10.3,9.8c-1.7,2-2.8,4.5-3.1,7.1&#xA;&#9;&#9;c0,1.2,0.1,2.5,0.4,3.7C122.1,183,123.1,180.5,126,178.4z"/>
	<path class="st5_chicken-54" d="M248.1,155.3c-0.4-2.6-1.6-5.1-3.4-7c-1.7-1.7-5.8-3.5-7.8-4.6c-2-1.3-4.5-1.3-6.6,0c-0.2,0.1-0.3,0.2-0.4,0.3&#xA;&#9;&#9;c-0.8,0.1-1.7,0.2-2.5,0.4c-5.6-1.4-11.3,6.9-13.2,11.4c-0.9,2.1-1.3,4.1-2.5,6c-0.8,0.9-1.5,1.9-2.2,3c-2.2,4.6-6.2,8.8-7.9,13.6&#xA;&#9;&#9;c-1.9,2.2-4,4.4-6.1,6.5c-4.3,2.4-9.6,4.6-12.4,7.9c-0.4,0.2-0.7,0.5-0.9,0.9c-0.9,1.7-2.5,3.9-1.3,5.9c7.3,1.1,14.7,1.5,22,1.9&#xA;&#9;&#9;h0.1c4.2-2.8,7.3-3.6,12.8-4.3s5-2.9,10.6-5c2.8-1,5-1.1,7.5-2.5c4.2-1.5,7.7-4.5,9.9-8.3c0.3-0.5,0.4-1.1,0.4-1.8&#xA;&#9;&#9;c0.9-1.3,1.7-2.6,2.4-4.1c0.5-0.5,1-1.1,1.4-1.7c1.1-1.7,0.9-2.7,0.7-4.3C250.2,164.8,249.9,159.8,248.1,155.3z"/>
	<path class="st6_chicken-54" d="M203.4,202.1l-3.4-0.2c-6.2-0.4-12.7-0.8-18.9-1.8h-0.3l-0.1-0.2c-1.2-2-0.1-4.1,0.9-5.8&#xA;&#9;&#9;c0.1-0.2,0.3-0.5,0.4-0.7c0.2-0.4,0.6-0.8,1-1.1c2.3-2.7,6.1-4.6,9.7-6.5c0.9-0.5,1.8-1,2.7-1.4c2-2,4-4.1,5.9-6.3&#xA;&#9;&#9;c1.1-2.8,2.6-5.5,4.4-7.9c1.3-1.8,2.4-3.7,3.4-5.7c0.4-0.7,0.8-1.4,1.4-2c0.3-0.3,0.6-0.7,0.8-1.1c0.7-1.2,1.3-2.4,1.6-3.7&#xA;&#9;&#9;c0.2-0.7,0.5-1.5,0.8-2.2c1.9-4.5,7.7-13.2,13.7-11.8c0.8-0.2,1.5-0.3,2.3-0.3c0.1-0.1,0.2-0.2,0.4-0.2c2.2-1.4,4.9-1.4,7.1,0&#xA;&#9;&#9;l1.2,0.6c2.2,1.1,5.2,2.6,6.7,4.1c1.9,2,3.2,4.5,3.6,7.3c1.8,4.6,2.1,9.6,0.9,14.4v0.2c0.4,1.5,0,3.1-0.9,4.4&#xA;&#9;&#9;c-0.4,0.6-0.9,1.2-1.4,1.7c-0.7,1.4-1.4,2.7-2.3,3.9v0.1c0,0.6-0.2,1.2-0.5,1.7c-2.3,4-5.9,7-10.2,8.6c-1.4,0.8-3,1.3-4.5,1.7&#xA;&#9;&#9;c-0.9,0.2-1.9,0.5-3,0.9c-1.7,0.6-3.3,1.5-4.8,2.6c-1.7,1.4-3.8,2.2-5.9,2.4c-5.3,0.7-8.4,1.5-12.6,4.2L203.4,202.1z M181.5,199&#xA;&#9;&#9;c6.1,0.9,12.4,1.3,18.5,1.7l3,0.2c4.3-2.8,7.5-3.6,12.9-4.3c2-0.2,3.8-0.9,5.4-2.2c1.5-1.2,3.3-2.1,5.1-2.8&#xA;&#9;&#9;c1.1-0.4,2.1-0.7,3.1-0.9c1.5-0.3,2.9-0.8,4.3-1.6l0.1-0.1c4-1.5,7.4-4.4,9.6-8.1c0.2-0.4,0.3-0.8,0.3-1.2l0.1-0.4l0.1-0.1&#xA;&#9;&#9;c0.9-1.3,1.6-2.6,2.3-4l0.1-0.2c0.5-0.5,1-1,1.4-1.6c0.8-1,1-2.3,0.7-3.6l-0.1-0.4v-0.1c1.2-4.6,0.9-9.4-0.8-13.8v-0.1&#xA;&#9;&#9;c-0.4-2.5-1.5-4.9-3.3-6.7c-1.3-1.3-4.2-2.8-6.4-3.8l-1.3-0.6c-1.8-1.2-4.2-1.2-6,0c-0.1,0.1-0.2,0.1-0.3,0.2l-0.2,0.1H230&#xA;&#9;&#9;c-0.8,0.1-1.6,0.2-2.4,0.4h-0.1h-0.1c-5.2-1.3-10.7,7-12.4,11.1c-0.3,0.7-0.6,1.4-0.8,2.1c-0.4,1.4-1,2.8-1.8,4&#xA;&#9;&#9;c-0.3,0.4-0.6,0.8-0.9,1.2c-0.5,0.5-0.9,1.1-1.2,1.7c-1,2-2.2,3.9-3.5,5.8c-1.8,2.4-3.2,5-4.3,7.7l-0.1,0.2c-2,2.3-4,4.5-6.1,6.5&#xA;&#9;&#9;l-0.1,0.1c-0.9,0.5-1.9,1-2.8,1.5c-3.6,1.9-7.2,3.8-9.4,6.3l-0.1,0.1l-0.1,0.1c-0.3,0.1-0.5,0.3-0.6,0.6l-0.4,0.7&#xA;&#9;&#9;C181.8,196.1,180.9,197.6,181.5,199z"/>
	<path class="st7_chicken-54" d="M248.1,155.3c-0.4-2.6-1.6-5.1-3.4-7c-0.9-0.8-2-1.5-3.1-2.1c1.8,2.4,3,4.8,2.7,8.4c-0.2,3.2,0.7,6.2,0.6,9.4&#xA;&#9;&#9;c-0.1,0.6-0.3,1.2-0.5,1.7c-0.4,3.2-0.1,3.4,0.3,5.9c0.1,0.6-0.3,1.2-0.9,1.3c0,0-0.1,0-0.1,0l-0.2,1.6c0,0.5-0.4,0.9-0.8,1&#xA;&#9;&#9;c-2.4,0.5-3.6,4.4-6.2,5.3c-2.2,0.8-4.1,0-6.2,1.3s-1.4,2.8-2.9,4.4c-1.2,1.3-4.1,2.3-5.7,3.3c-2.8,1.8-6.1,4-9.4,4.6&#xA;&#9;&#9;c-3.6,0.7-5.9,0.9-8.8,3.2c-1,1-2.1,1.9-3.2,2.8c-0.6,0.3-1.1,0.6-1.8,0.7l4.6,0.3h0.1c4.2-2.8,7.3-3.6,12.8-4.3s5-2.9,10.6-5&#xA;&#9;&#9;c2.8-1,5-1.1,7.5-2.5c4.2-1.5,7.6-4.5,9.9-8.3c0.3-0.5,0.4-1.1,0.4-1.8c0.9-1.3,1.7-2.6,2.4-4.1c0.5-0.5,1-1.1,1.4-1.7&#xA;&#9;&#9;c1.1-1.7,0.9-2.7,0.7-4.3C250.2,164.8,249.9,159.8,248.1,155.3z"/>
	<path class="st5_chicken-54" d="M182.1,155.9c0.5-2.3-0.3-4.7-2.2-6.2c-0.1-0.1-0.3-0.2-0.4-0.3c-0.3-0.8-0.7-1.5-1.2-2.3&#xA;&#9;&#9;c-0.5-5.7-10.3-8.3-15.2-8.6c-2.3-0.1-4.3,0.2-6.5-0.4c-1.1-0.5-2.3-0.8-3.6-1.1c-5-0.5-10.3-2.9-15.4-2.9&#xA;&#9;&#9;c-2.8-1.1-5.5-2.3-8.1-3.6c-3.6-3.2-7.5-7.5-11.7-9c-0.3-0.3-0.7-0.5-1.1-0.5c-1.9-0.3-4.6-1-6,0.8c-0.1,0.1-0.2,0.3-0.2,0.5&#xA;&#9;&#9;c-0.4,0.3-0.8,0.5-1.1,0.8l-0.3,0.3c-0.9,0.2-1.7,0.6-2.3,1.3c-0.5,0.8-0.9,1.7-1.1,2.6c-0.6,1-1,2-1.5,3c-0.5,1.8,0.4,3.8,2.2,4.5&#xA;&#9;&#9;c0.2,0.4,0.5,0.8,0.8,1.2c0,0,0,0,0,0.1c0.2,0.9,0.8,1.7,1.7,2.1c0.3,0.1,0.6,0.3,0.8,0.4c0.3,0.2,0.6,0.5,0.9,0.7l0.4,0.4&#xA;&#9;&#9;c0.6,0.6,1.2,1,2,1.2c1,0.6,2,1.2,2.9,1.9c4.4,3.2,6.2,5.8,8.8,11c2.5,4.8,4.4,3.7,8.2,8.3c1.9,2.3,2.7,4.3,4.9,6.2&#xA;&#9;&#9;c2.9,3.4,6.8,5.7,11.2,6.5c0.6,0.1,1.2,0,1.8-0.2c1.5,0.4,3.1,0.7,4.6,0.9c0.7,0.3,1.4,0.6,2.1,0.8c2,0.5,2.9-0.1,4.3-0.8&#xA;&#9;&#9;c4.8-0.4,9.4-2.4,13.1-5.5c2.4-1.3,4.3-3.2,5.5-5.6C181.4,162.6,181.8,158.1,182.1,155.9z"/>
	<path class="st6_chicken-54" d="M158.9,177.4c-0.5,0-1-0.1-1.6-0.2c-0.7-0.2-1.5-0.4-2.1-0.8c-1.5-0.2-3-0.4-4.4-0.8h-0.1&#xA;&#9;&#9;c-0.6,0.2-1.2,0.2-1.8,0.1c-4.5-0.8-8.6-3.2-11.5-6.7c-1.2-1.1-2.2-2.3-3.1-3.7c-0.6-0.8-1.1-1.6-1.8-2.5c-1.1-1.4-2.5-2.6-4-3.6&#xA;&#9;&#9;c-1.9-1.1-3.3-2.8-4.2-4.8c-2.6-5-4.3-7.6-8.6-10.8c-0.8-0.6-1.7-1.2-2.7-1.8l-0.2-0.1c-0.8-0.2-1.6-0.7-2.2-1.3&#xA;&#9;&#9;c-0.2-0.2-0.3-0.3-0.4-0.4s-0.4-0.3-0.7-0.5l-0.2-0.2l-0.7-0.4c-1-0.5-1.8-1.4-2-2.4c-0.2-0.3-0.5-0.7-0.7-1&#xA;&#9;&#9;c-1.9-0.9-2.9-3.1-2.4-5.1c0.2-0.6,0.5-1.3,0.9-1.8c0.3-0.4,0.5-0.8,0.6-1.2c0.1-0.2,0.2-0.5,0.2-0.7c0.2-0.8,0.5-1.5,1-2.1&#xA;&#9;&#9;c0.6-0.7,1.5-1.3,2.5-1.4l0,0c0.1-0.1,0.2-0.2,0.2-0.2c0.3-0.3,0.7-0.5,1-0.8c0.1-0.2,0.1-0.3,0.2-0.5c1.4-1.9,3.8-1.5,5.7-1.2&#xA;&#9;&#9;l0.8,0.1c0.5,0.1,1,0.3,1.3,0.6c3.3,1.3,6.4,4.2,9.4,6.9c0.8,0.7,1.5,1.4,2.3,2.1c2.5,1.2,5.2,2.4,7.9,3.4h0.1c3,0.1,6,0.6,8.8,1.5&#xA;&#9;&#9;c2.1,0.6,4.3,1.1,6.5,1.4c0.8,0.1,1.6,0.3,2.4,0.6c0.4,0.2,0.9,0.3,1.3,0.4c1.3,0.3,2.7,0.4,4,0.3c0.8,0,1.5,0,2.4,0&#xA;&#9;&#9;c4.9,0.3,15,2.8,15.8,9c0.4,0.6,0.8,1.3,1.1,2c0.1,0.1,0.2,0.2,0.4,0.3c2,1.6,2.9,4.2,2.4,6.7c0,0.4-0.1,0.9-0.2,1.4&#xA;&#9;&#9;c-0.3,2.4-0.7,5.8-1.6,7.6c-1.2,2.5-3.2,4.5-5.7,5.8c-3.7,3.2-8.4,5.2-13.3,5.6l-0.2,0.1C160.9,177.1,159.9,177.4,158.9,177.4z&#xA;&#9;&#9; M150.8,174.3h0.1c1.5,0.4,3,0.7,4.5,0.8l0.2,0.1c0.6,0.3,1.3,0.6,2,0.7c1.2,0.4,2.5,0.2,3.6-0.6l0.5-0.2c4.7-0.4,9.2-2.3,12.8-5.4&#xA;&#9;&#9;l0.1-0.1c2.3-1.2,4.1-3.1,5.2-5.3c0.8-1.7,1.2-4.9,1.5-7.3c0.1-0.5,0.1-1,0.2-1.4l0,0c0.5-2.1-0.3-4.3-2-5.6&#xA;&#9;&#9;c-0.1-0.1-0.2-0.2-0.3-0.2l-0.2-0.1l-0.1-0.2c-0.3-0.8-0.7-1.5-1.2-2.2l-0.1-0.1v-0.1c-0.5-5.4-10.2-7.8-14.6-8&#xA;&#9;&#9;c-0.8-0.1-1.6,0-2.3,0c-1.5,0.1-2.9,0-4.3-0.3c-0.5-0.1-1-0.3-1.4-0.5c-0.6-0.3-1.3-0.5-2-0.6c-2.2-0.3-4.5-0.8-6.6-1.4&#xA;&#9;&#9;c-2.8-0.9-5.8-1.4-8.7-1.5h-0.1h-0.1c-2.8-1.1-5.6-2.3-8.2-3.6l-0.1-0.1c-0.8-0.7-1.6-1.4-2.4-2.1c-2.9-2.7-6-5.6-9.1-6.7h-0.1&#xA;&#9;&#9;l-0.1-0.1c-0.2-0.2-0.5-0.3-0.8-0.3l-0.8-0.1c-1.7-0.3-3.6-0.6-4.6,0.7c-0.1,0.1-0.1,0.2-0.1,0.3l-0.1,0.2l-0.2,0.1&#xA;&#9;&#9;c-0.4,0.2-0.7,0.5-1.1,0.8l-0.2,0.2l-0.3,0.2h-0.1c-0.8,0.1-1.5,0.5-2,1.1c-0.4,0.5-0.6,1.1-0.8,1.7c-0.1,0.3-0.2,0.5-0.3,0.8&#xA;&#9;&#9;c-0.2,0.5-0.4,1-0.7,1.4c-0.3,0.5-0.6,1-0.7,1.5c-0.4,1.6,0.4,3.2,1.9,3.8l0.2,0.1l0.1,0.2c0.2,0.4,0.5,0.8,0.8,1.2l0.1,0.1v0.2&#xA;&#9;&#9;c0.2,0.7,0.7,1.3,1.3,1.6c0.4,0.2,0.6,0.3,0.9,0.5l0.3,0.2c0.2,0.2,0.4,0.4,0.7,0.5s0.3,0.3,0.5,0.5c0.5,0.5,1.1,0.8,1.8,1l0.1,0.1&#xA;&#9;&#9;l0.2,0.1c0.9,0.6,1.9,1.2,2.7,1.8c4.5,3.3,6.3,6,9,11.2c0.8,1.8,2.2,3.3,3.9,4.3c1.6,1.1,3.1,2.4,4.3,3.9c0.7,0.8,1.3,1.7,1.9,2.6&#xA;&#9;&#9;c0.8,1.3,1.8,2.5,2.9,3.5l0.1,0.1c2.8,3.3,6.6,5.5,10.8,6.3c0.4,0.1,0.9,0,1.3-0.1L150.8,174.3z"/>
	<path class="st7_chicken-54" d="M174.3,166.5c-3.1,0.8-5.6,2.7-8.7,3.7c-0.6,0.2-1.2,0-1.8,0.1c-3.1,0.6-3.2,1-5.4,2.2&#xA;&#9;&#9;c-0.5,0.3-1.2,0.1-1.5-0.4c0,0,0-0.1,0-0.1l-1.6,0.4c-0.5,0.1-1,0-1.2-0.4c-1.3-2.1-5.3-1.9-7.1-4c-1.5-1.8-1.4-3.9-3.3-5.4&#xA;&#9;&#9;s-3.1-0.4-5.1-1.3c-1.6-0.7-3.5-3.1-5.1-4.3c-2.6-2-5.8-4.5-7.5-7.3c-1.9-3.1-2.8-5.2-6-7.2c-1.3-0.6-2.5-1.3-3.7-2.1&#xA;&#9;&#9;c-1.7-1.4-2-3.1-3.9-4.2c-4-2.5-6.6-5.1-6.8-8.9l-0.1,0.4c-0.6,1-1,2-1.5,3c-0.5,1.8,0.4,3.8,2.2,4.5c0.2,0.4,0.5,0.8,0.8,1.2&#xA;&#9;&#9;c0,0,0,0,0,0.1c0.2,0.9,0.8,1.7,1.7,2.1c0.3,0.1,0.6,0.3,0.8,0.4c0.3,0.2,0.6,0.5,0.9,0.7l0.4,0.4c0.6,0.6,1.2,1,2,1.2&#xA;&#9;&#9;c1,0.6,2,1.2,2.9,1.9c4.4,3.2,6.2,5.8,8.8,11c2.5,4.8,4.4,3.7,8.2,8.3c1.9,2.3,2.7,4.3,4.9,6.2c2.9,3.4,6.8,5.7,11.2,6.5&#xA;&#9;&#9;c0.6,0.1,1.2,0,1.8-0.2c1.5,0.4,3.1,0.7,4.6,0.9c0.7,0.3,1.4,0.6,2.1,0.8c2,0.5,2.9-0.1,4.3-0.8c4.8-0.4,9.4-2.4,13.1-5.5&#xA;&#9;&#9;c2.4-1.3,4.3-3.2,5.5-5.6c0.5-1.2,0.8-2.4,1-3.6C179.7,163.6,177.9,165.6,174.3,166.5z"/>
	<path class="st5_chicken-54" d="M117.3,138.7c0.5,2.3,2.3,4.1,4.6,4.6c0.2,0,0.3,0.1,0.5,0.1c0.6,0.6,1.3,1.1,2.1,1.5c3,5,12.9,3,17.4,1.2&#xA;&#9;&#9;c2.1-0.9,3.8-2,6-2.5c1.2-0.1,2.5-0.3,3.7-0.6c4.8-1.7,10.6-1.8,15.1-4.1c3-0.2,5.9-0.3,8.9-0.3c4.7,1.3,10,3.5,14.4,3.1&#xA;&#9;&#9;c0.4,0.1,0.8,0.1,1.2,0c1.8-0.6,4.6-1,5-3.3c0-0.2,0-0.4,0-0.5c0.2-0.4,0.5-0.8,0.6-1.2c0.1-0.2,0.1-0.3,0.2-0.4&#xA;&#9;&#9;c0.7-0.5,1.3-1.3,1.5-2.1c0.1-1,0.1-1.9-0.1-2.9c-0.1-1.1,0.3-2.2,0.1-3.3c-0.3-1.9-2-3.2-3.9-3.1c-0.4-0.3-0.8-0.5-1.3-0.8v-0.1&#xA;&#9;&#9;c-0.6-0.7-1.5-1.2-2.4-1.1c-0.4,0-0.7,0-0.9,0s-0.8-0.2-1.1-0.3l-0.6-0.2c-0.7-0.3-1.5-0.4-2.3-0.3c-1.2-0.1-2.4-0.3-3.4-0.5&#xA;&#9;&#9;c-5.3-1-8.1-2.6-12.7-6.1c-4.3-3.3-5.6-1.5-11-4c-2.7-1.2-4.3-2.7-7.1-3.5c-4.1-1.8-8.6-2.2-12.9-1c-0.6,0.2-1.1,0.5-1.6,0.9&#xA;&#9;&#9;c-1.5,0.3-3,0.7-4.5,1.2c-0.7,0-1.5,0-2.2,0.2c-2,0.4-2.6,1.3-3.6,2.6c-4.2,2.5-7.5,6.2-9.4,10.7c-1.6,2.2-2.5,4.8-2.6,7.4&#xA;&#9;&#9;C115.1,132.3,116.6,136.6,117.3,138.7z"/>
	<path class="st6_chicken-54" d="M132.1,148.7c-3.3,0-6.4-0.8-8-3.3c-0.7-0.4-1.3-0.9-1.9-1.4c-0.1,0-0.3,0-0.4-0.1c-2.5-0.6-4.4-2.5-5.1-5l0,0&#xA;&#9;&#9;l-0.4-1.3c-0.8-2.3-1.9-5.5-1.9-7.6c0-2.8,0.9-5.5,2.6-7.7c2-4.5,5.3-8.3,9.6-10.8l0.1-0.2c0.8-1.3,2.2-2.2,3.7-2.5&#xA;&#9;&#9;c0.7-0.2,1.5-0.2,2.3-0.2c1.4-0.5,2.9-0.9,4.4-1.2l0.1-0.1c0.5-0.4,1-0.7,1.6-0.9c4.4-1.2,9.1-0.8,13.2,1.1c1.6,0.5,3,1.1,4.4,2&#xA;&#9;&#9;c0.8,0.5,1.7,1,2.7,1.5c1.7,0.8,3.4,1.3,5.2,1.5c2.2,0.2,4.2,1.1,5.9,2.5c4.5,3.4,7.2,5,12.4,6c1,0.2,2.1,0.3,3.2,0.4h0.1&#xA;&#9;&#9;c0.9-0.1,1.8-0.1,2.6,0.2l0.5,0.2c0.2,0,0.5,0.1,0.9,0.2h0.2c0.2,0,0.4,0,0.8,0c1.1,0,2.2,0.5,2.9,1.3c0.3,0.2,0.7,0.4,1,0.6&#xA;&#9;&#9;c2.1,0,4,1.5,4.3,3.6c0.1,0.7,0.1,1.3,0,2c-0.1,0.5-0.1,0.9-0.1,1.4c0,0.2,0.1,0.5,0.1,0.8c0.2,0.8,0.2,1.5,0,2.3&#xA;&#9;&#9;c-0.3,0.9-0.8,1.8-1.6,2.4l0,0c0,0.1-0.1,0.2-0.1,0.3c-0.2,0.4-0.4,0.7-0.6,1.1c0,0.2,0,0.3,0,0.5c-0.5,2.3-2.8,3-4.7,3.5l-0.8,0.2&#xA;&#9;&#9;c-0.5,0.2-1,0.2-1.5,0.1c-3.5,0.3-7.6-1-11.5-2.2c-1-0.3-2-0.6-2.9-0.9c-2.8,0-5.7,0.1-8.6,0.3c-2.8,1.2-5.7,2-8.7,2.5&#xA;&#9;&#9;c-2.2,0.4-4.3,0.9-6.4,1.6c-0.8,0.3-1.6,0.4-2.4,0.4c-0.5,0-0.9,0.1-1.4,0.2c-1.3,0.3-2.6,0.8-3.8,1.5c-0.7,0.3-1.4,0.7-2.1,1&#xA;&#9;&#9;C139,147.8,135.5,148.6,132.1,148.7z M117.9,138.5c0.5,2.1,2.1,3.8,4.2,4.2c0.1,0,0.3,0.1,0.4,0.1h0.2l0.2,0.1c0.6,0.5,1.3,1,2,1.5&#xA;&#9;&#9;l0.1,0.1l0.1,0.1c2.8,4.6,12.6,2.6,16.6,0.9c0.7-0.3,1.4-0.6,2.1-1c1.3-0.7,2.6-1.2,4.1-1.6c0.5-0.1,1-0.2,1.5-0.2&#xA;&#9;&#9;c0.7,0,1.4-0.1,2.1-0.4c2.2-0.7,4.4-1.2,6.6-1.6c2.9-0.4,5.8-1.3,8.5-2.4l0.2-0.1c3-0.2,6-0.3,8.9-0.3h0.2c1,0.3,2,0.6,3.1,0.9&#xA;&#9;&#9;c3.8,1.2,7.8,2.4,11.1,2.1h0.1h0.1c0.3,0.1,0.6,0.1,0.8,0l0.8-0.2c1.6-0.5,3.5-1,3.8-2.6c0-0.1,0-0.2,0-0.3v-0.2l0.1-0.2&#xA;&#9;&#9;c0.2-0.4,0.4-0.8,0.6-1.2l0.1-0.2l0.1-0.3l0.1-0.1c0.6-0.4,1.1-1.1,1.3-1.8c0.1-0.6,0.1-1.2,0-1.8c0-0.3-0.1-0.5-0.1-0.8&#xA;&#9;&#9;c0-0.5,0-1.1,0.1-1.6c0.1-0.6,0.1-1.1,0-1.7c-0.3-1.6-1.7-2.7-3.4-2.6h-0.2l-0.2-0.1c-0.4-0.3-0.8-0.5-1.2-0.7l-0.1-0.1l-0.1-0.2&#xA;&#9;&#9;c-0.5-0.6-1.2-0.9-1.9-0.9c-0.3,0-0.7,0-1,0l-0.3-0.1c-0.3-0.1-0.6-0.1-0.9-0.2l-0.7-0.2c-0.6-0.2-1.3-0.3-2-0.2H186h-0.3&#xA;&#9;&#9;c-1.1-0.1-2.2-0.2-3.3-0.4c-5.5-1-8.3-2.7-13-6.2c-1.5-1.3-3.4-2-5.4-2.2c-1.9-0.3-3.8-0.8-5.5-1.6c-1-0.5-1.9-1-2.8-1.5&#xA;&#9;&#9;c-1.3-0.8-2.7-1.5-4.1-1.9h-0.1c-3.9-1.8-8.3-2.1-12.5-1c-0.4,0.1-0.8,0.4-1.1,0.7l-0.3,0.3h-0.1c-1.5,0.3-3,0.7-4.4,1.2h-0.1h-0.1&#xA;&#9;&#9;c-0.7,0-1.4,0.1-2.1,0.2c-1.3,0.2-2.4,1-3,2.1l-0.4,0.4c-4.1,2.4-7.3,6-9.2,10.4l-0.1,0.1c-1.5,2.1-2.4,4.5-2.4,7.1&#xA;&#9;&#9;c0,1.8,1.1,4.9,1.8,7.2C117.6,137.6,117.8,138.1,117.9,138.5L117.9,138.5z"/>
	<path class="st7_chicken-54" d="M119.7,125.7c2.4-2.1,3.9-4.9,6.2-7.1c0.4-0.4,1.1-0.5,1.6-0.9c2.6-1.9,2.5-2.3,3.9-4.4c0.3-0.5,1-0.6,1.5-0.3&#xA;&#9;&#9;c0,0,0,0,0.1,0l1.2-1c0.4-0.3,0.9-0.4,1.3-0.1c2.1,1.4,5.6-0.6,8.1,0.6c2.2,1,2.9,2.9,5.3,3.5s3-1,5.2-1.1c1.8-0.1,4.5,1.3,6.4,1.7&#xA;&#9;&#9;c3.2,0.7,7.1,1.5,9.9,3.3c3.1,2,4.8,3.5,8.5,3.9c1.4,0,2.8,0.1,4.2,0.3c2.1,0.5,3.1,1.9,5.3,2.2c4.7,0.5,8.2,1.7,10,5.1&#xA;&#9;&#9;c0-0.1,0-0.2-0.1-0.4c-0.1-1.1,0.3-2.2,0.1-3.3c-0.3-1.9-2-3.2-3.9-3.1c-0.4-0.3-0.8-0.5-1.3-0.8v-0.1c-0.6-0.7-1.5-1.2-2.4-1.1&#xA;&#9;&#9;c-0.4,0-0.7,0-0.9,0s-0.8-0.2-1.1-0.3l-0.6-0.2c-0.8-0.3-1.6-0.4-2.4-0.2c-1.2-0.1-2.4-0.3-3.4-0.5c-5.3-1-8.1-2.6-12.7-6.1&#xA;&#9;&#9;c-4.3-3.3-5.6-1.5-11-4c-2.7-1.2-4.3-2.7-7.1-3.5c-4.1-1.8-8.6-2.2-12.9-1c-0.6,0.2-1.1,0.5-1.6,0.9c-1.5,0.3-3,0.7-4.5,1.2&#xA;&#9;&#9;c-0.7,0-1.5,0-2.2,0.2c-2,0.4-2.6,1.3-3.6,2.6c-4.2,2.5-7.5,6.2-9.4,10.7c-1.6,2.2-2.5,4.8-2.6,7.4c0.1,1.2,0.3,2.5,0.7,3.7&#xA;&#9;&#9;C116.2,130.7,116.9,128.1,119.7,125.7z"/>
	<path class="st5_chicken-54" d="M162.5,114.7c-1.2,2-1.1,4.6,0.2,6.5c0.1,0.2,0.2,0.3,0.3,0.4c0.1,0.8,0.2,1.7,0.5,2.5&#xA;&#9;&#9;c-1.2,5.6,7.3,11,11.9,12.8c2.2,0.8,4.2,1.1,6.1,2.3c1,0.8,2,1.5,3.1,2.1c4.6,2,9,5.9,13.8,7.4c2.3,1.9,4.5,3.8,6.7,5.9&#xA;&#9;&#9;c2.5,4.2,4.9,9.4,8.4,12.1c0.2,0.4,0.5,0.7,0.9,0.8c1.7,0.8,4,2.4,5.9,1.1c0.1-0.1,0.3-0.2,0.4-0.4c0.5-0.1,0.9-0.3,1.3-0.4&#xA;&#9;&#9;l0.4-0.2c0.9,0.1,1.8-0.1,2.6-0.5c0.7-0.6,1.4-1.3,1.9-2.1c0.7-0.9,1.7-1.4,2.3-2.4c1.1-1.6,0.7-3.8-0.7-5c-0.1-0.5-0.2-1-0.4-1.4&#xA;&#9;&#9;c0,0,0,0,0-0.1c0.1-0.9-0.3-1.9-1-2.5c-0.2-0.2-0.4-0.4-0.6-0.7c-0.2-0.3-0.4-0.6-0.7-1c-0.1-0.2-0.2-0.3-0.3-0.5&#xA;&#9;&#9;c-0.4-0.7-0.9-1.3-1.6-1.8c-0.8-0.9-1.5-1.8-2.2-2.7c-3.2-4.4-4.1-7.4-5.1-13.1c-0.9-5.4-3-4.9-5.3-10.4c-1.1-2.8-1.3-5-2.8-7.4&#xA;&#9;&#9;c-1.7-4.1-4.7-7.5-8.7-9.6c-0.6-0.3-1.2-0.4-1.8-0.4c-1.3-0.8-2.7-1.6-4.1-2.2c-0.5-0.5-1.1-1-1.8-1.4c-1.8-1.1-2.7-0.8-4.3-0.6&#xA;&#9;&#9;c-4.7-1.1-9.7-0.6-14.2,1.3c-2.6,0.5-5,1.8-6.9,3.7C165.2,108.5,163.5,112.6,162.5,114.7z"/>
	<path class="st6_chicken-54" d="M218.5,169.8c-1.3-0.1-2.6-0.6-3.8-1.3l-0.7-0.4c-0.5-0.2-0.8-0.6-1.1-1c-2.8-2.2-4.8-5.9-6.8-9.5&#xA;&#9;&#9;c-0.5-0.9-1-1.8-1.5-2.7c-2-1.9-4.2-3.9-6.5-5.7c-2.8-1.1-5.5-2.5-8-4.2c-1.8-1.2-3.8-2.3-5.7-3.2c-0.7-0.3-1.4-0.8-2-1.3&#xA;&#9;&#9;c-0.3-0.3-0.7-0.6-1.1-0.8c-1.2-0.7-2.4-1.2-3.7-1.5c-0.7-0.2-1.5-0.4-2.2-0.8c-4.5-1.7-13.4-7.3-12.3-13.3&#xA;&#9;&#9;c-0.2-0.7-0.3-1.5-0.4-2.3c-0.1-0.1-0.2-0.2-0.3-0.4c-1.4-2.1-1.5-4.9-0.2-7.1l0,0c0.2-0.4,0.4-0.8,0.6-1.3c1-2.2,2.4-5.3,3.8-6.8&#xA;&#9;&#9;c1.9-2,4.4-3.3,7.2-3.8c4.5-2,9.6-2.4,14.4-1.3h0.2c1.5-0.4,3.1-0.2,4.4,0.7c0.6,0.4,1.2,0.9,1.8,1.4c1.4,0.6,2.7,1.3,4,2.1h0.1&#xA;&#9;&#9;c0.6,0,1.2,0.2,1.7,0.4c4,2.2,7.2,5.6,8.9,9.9c0.8,1.4,1.4,2.9,1.8,4.5c0.3,0.9,0.6,1.9,1,2.9c0.7,1.7,1.6,3.3,2.8,4.7&#xA;&#9;&#9;c1.4,1.7,2.3,3.7,2.6,5.9c0.9,5.6,1.8,8.6,4.9,12.9c0.6,0.8,1.3,1.6,2,2.5l0.1,0.1c0.7,0.5,1.3,1.2,1.7,2c0.1,0.2,0.2,0.4,0.3,0.5&#xA;&#9;&#9;s0.3,0.4,0.5,0.7l0.1,0.2l0.6,0.6c0.8,0.7,1.3,1.8,1.1,2.9c0.1,0.4,0.2,0.8,0.3,1.2c1.6,1.5,1.9,3.8,0.7,5.6&#xA;&#9;&#9;c-0.4,0.6-0.9,1.1-1.4,1.5c-0.4,0.3-0.7,0.6-1,1c-0.2,0.2-0.3,0.4-0.4,0.6c-0.4,0.7-1,1.2-1.6,1.7c-0.8,0.5-1.8,0.7-2.8,0.6l0,0&#xA;&#9;&#9;l-0.3,0.1c-0.4,0.1-0.8,0.3-1.2,0.4c-0.1,0.1-0.2,0.2-0.4,0.4C220,169.6,219.3,169.8,218.5,169.8z M163,114.9L163,114.9&#xA;&#9;&#9;c-1.1,1.9-1,4.2,0.2,6c0.1,0.1,0.1,0.2,0.2,0.3l0.1,0.2v0.2c0.1,0.8,0.2,1.6,0.4,2.4v0.1v0.2c-1.2,5.3,7.4,10.5,11.5,12.1&#xA;&#9;&#9;c0.7,0.3,1.5,0.5,2.2,0.7c1.4,0.4,2.7,0.9,4,1.6c0.4,0.3,0.8,0.6,1.2,0.9c0.5,0.5,1.1,0.8,1.8,1.1c2,1,4,2.1,5.9,3.3&#xA;&#9;&#9;c2.4,1.7,5.1,3.1,7.9,4.1l0.2,0.1c2.4,1.9,4.6,3.9,6.7,5.9l0.1,0.1c0.5,0.9,1.1,1.8,1.6,2.8c2,3.5,4,7.1,6.6,9.2l0.1,0.1l0.1,0.1&#xA;&#9;&#9;c0.1,0.2,0.4,0.4,0.6,0.6c0.2,0.1,0.5,0.2,0.8,0.4c1.5,0.8,3.2,1.6,4.6,0.7c0.1-0.1,0.1-0.2,0.2-0.2l0.1-0.2l0.2-0.1&#xA;&#9;&#9;c0.4-0.1,0.8-0.3,1.2-0.4l0.2-0.1l0.3-0.1h0.1c0.8,0.1,1.6,0,2.2-0.4c0.5-0.4,0.9-0.8,1.2-1.4l0.5-0.7c0.3-0.4,0.7-0.8,1.1-1.1&#xA;&#9;&#9;c0.4-0.4,0.8-0.8,1.2-1.2c0.9-1.4,0.6-3.2-0.6-4.2l-0.1-0.1v-0.2c-0.1-0.5-0.2-0.9-0.4-1.3v-0.1V156c0.1-0.7-0.2-1.4-0.8-1.9&#xA;&#9;&#9;c-0.3-0.3-0.5-0.5-0.7-0.7l-0.2-0.3c-0.2-0.2-0.3-0.5-0.5-0.7c-0.1-0.3-0.2-0.4-0.3-0.6c-0.3-0.6-0.8-1.1-1.4-1.5l-0.1-0.1&#xA;&#9;&#9;l-0.2-0.2c-0.7-0.8-1.4-1.7-2.1-2.6c-3.3-4.5-4.2-7.6-5.2-13.4c-0.2-2-1.1-3.8-2.4-5.3c-1.2-1.5-2.2-3.2-2.9-5&#xA;&#9;&#9;c-0.4-1.1-0.7-2.1-1-3c-0.4-1.5-0.9-2.9-1.7-4.2l-0.1-0.1c-1.6-4-4.6-7.3-8.4-9.3c-0.4-0.2-0.8-0.3-1.3-0.3h-0.4l-0.1-0.1&#xA;&#9;&#9;c-1.3-0.8-2.6-1.6-4-2.2l-0.2-0.1c-0.5-0.5-1.1-0.9-1.7-1.3c-1-0.7-2.4-0.9-3.6-0.6l-0.4,0.1h-0.1c-4.6-1.1-9.4-0.7-13.8,1.1h-0.1&#xA;&#9;&#9;c-2.5,0.5-4.8,1.7-6.6,3.5c-1.2,1.4-2.6,4.3-3.6,6.5C163.4,114.1,163.2,114.6,163,114.9z"/>
	<path class="st7_chicken-54" d="M173.1,106.9c3.2,0.2,6.2-0.9,9.4-0.9c0.6,0,1.2,0.4,1.7,0.5c3.2,0.3,3.4,0,5.9-0.5c0.6-0.1,1.2,0.2,1.3,0.8&#xA;&#9;&#9;c0,0,0,0.1,0,0.1l1.6,0.1c0.5,0,0.9,0.3,1.1,0.8c0.6,2.4,4.5,3.4,5.5,6c0.9,2.2,0.1,4.1,1.5,6.2s2.9,1.3,4.5,2.8&#xA;&#9;&#9;c1.3,1.2,2.4,4.1,3.5,5.6c1.9,2.7,4.1,6,4.9,9.2c0.9,3.6,1.1,5.8,3.5,8.7c1,1,2,2,2.9,3.1c1.2,1.8,0.9,3.5,2.4,5.2&#xA;&#9;&#9;c3.1,3.6,4.8,6.9,3.7,10.6l0.2-0.3c0.7-0.9,1.7-1.4,2.3-2.4c1.1-1.6,0.7-3.8-0.7-5c-0.1-0.5-0.2-1-0.4-1.4c0,0,0,0,0-0.1&#xA;&#9;&#9;c0.1-0.9-0.3-1.9-1-2.5c-0.2-0.2-0.4-0.4-0.6-0.7c-0.2-0.3-0.4-0.6-0.7-1c-0.1-0.2-0.2-0.3-0.3-0.5c-0.4-0.7-0.9-1.3-1.6-1.8&#xA;&#9;&#9;c-0.8-0.9-1.5-1.8-2.2-2.7c-3.2-4.4-4.1-7.4-5.1-13.1c-0.9-5.4-3-4.9-5.3-10.4c-1.1-2.8-1.3-5-2.8-7.4c-1.7-4.1-4.7-7.5-8.7-9.6&#xA;&#9;&#9;c-0.6-0.3-1.2-0.4-1.8-0.4c-1.3-0.8-2.7-1.6-4.1-2.2c-0.5-0.5-1.1-1-1.8-1.4c-1.8-1.1-2.7-0.8-4.3-0.6c-4.7-1.1-9.7-0.6-14.2,1.3&#xA;&#9;&#9;c-2.6,0.5-5,1.8-6.9,3.7c-0.8,1-1.5,2-2,3.1C167.2,108,169.5,106.7,173.1,106.9z"/>
	<path class="st5_chicken-54" d="M165,164.1c0,1.2,0.1,2.5,0.3,3.7c1.3,4.9,0.9,10.7,2.7,15.5c0,3-0.2,5.9-0.5,8.9c-0.4,1.2-0.9,2.4-1.4,3.6&#xA;&#9;&#9;c6.4,0.1,12.8,0.6,19.1,1c1.3-3,3.1-5.2,5.9-8.3c3.7-4,1.9-5.4,4.9-10.6c1.5-2.6,3.1-4.1,4.1-6.7c2.2-3.9,3-8.4,2.2-12.8&#xA;&#9;&#9;c-0.1-0.6-0.4-1.1-0.8-1.6c-0.2-1.6-0.4-3.1-0.8-4.6c0.1-0.7,0.1-1.5,0-2.2c-0.2-2.1-1-2.7-2.2-3.8c-2.1-4.4-5.5-8-9.8-10.3&#xA;&#9;&#9;c-2-1.8-4.5-2.9-7.1-3.2c-2.4-0.2-6.7,1-8.9,1.5c-2.3,0.3-4.3,2-5,4.2c-0.1,0.2-0.1,0.3-0.1,0.5c-0.6,0.6-1.2,1.2-1.7,1.9&#xA;&#9;&#9;c-5.2,2.5-4.1,12.6-2.7,17.2C163.8,160.1,164.8,161.8,165,164.1z"/>
	<path class="st6_chicken-54" d="M185.6,197.3h-0.4l-5.5-0.3c-4.5-0.3-9.1-0.6-13.6-0.7h-0.9l0.6-1.4c0.4-1,0.8-1.9,1.2-2.9&#xA;&#9;&#9;c0.3-2.8,0.4-5.7,0.5-8.6c-0.9-2.9-1.5-5.9-1.7-8.9c-0.2-2.2-0.5-4.4-1-6.5c-0.2-0.8-0.3-1.6-0.2-2.4c0-0.5,0-0.9,0-1.4l0,0&#xA;&#9;&#9;c-0.2-1.3-0.6-2.6-1.1-3.9c-0.3-0.7-0.6-1.4-0.8-2.2c-1.4-4.6-2.6-15.1,2.9-17.9c0.5-0.6,1-1.2,1.5-1.7c0-0.1,0-0.3,0.1-0.4&#xA;&#9;&#9;c0.8-2.4,2.9-4.2,5.4-4.6l1.4-0.3c2.4-0.6,5.7-1.4,7.7-1.2c2.8,0.3,5.4,1.4,7.4,3.3c4.3,2.4,7.8,6,9.9,10.5l0.1,0.1&#xA;&#9;&#9;c1.3,0.9,2.1,2.4,2.2,3.9c0.1,0.8,0.1,1.5,0,2.3c0.4,1.5,0.6,2.9,0.8,4.4l0.1,0.1c0.4,0.5,0.6,1,0.7,1.6c0.8,4.5,0,9.1-2.2,13.1&#xA;&#9;&#9;c-0.6,1.5-1.4,2.9-2.4,4.2c-0.6,0.8-1.2,1.7-1.7,2.6c-0.9,1.6-1.6,3.3-2,5.1c-0.4,2.1-1.5,4.1-3,5.7c-2.7,3-4.5,5.2-5.8,8.2&#xA;&#9;&#9;L185.6,197.3z M167,195.1c4.3,0.1,8.6,0.4,12.8,0.6c1.7,0.1,3.4,0.2,5.1,0.3c1.5-3,3.4-5.7,5.8-8.1c1.4-1.4,2.3-3.2,2.7-5.1&#xA;&#9;&#9;c0.4-1.9,1.1-3.7,2.1-5.4c0.5-0.9,1.1-1.8,1.8-2.7c0.9-1.2,1.7-2.6,2.3-4l0.1-0.1c2.1-3.7,2.9-8.1,2.1-12.3&#xA;&#9;&#9;c-0.1-0.4-0.3-0.8-0.6-1.2l-0.2-0.4v-0.1c-0.1-1.5-0.4-3-0.8-4.5V152v-0.1c0.1-0.7,0.1-1.4,0-2.1c-0.1-1.3-0.7-2.4-1.8-3.1&#xA;&#9;&#9;l-0.4-0.4c-2-4.3-5.3-7.8-9.5-10.1l-0.1-0.1c-1.9-1.7-4.3-2.7-6.8-3c-1.8-0.1-5,0.6-7.3,1.2l-1.4,0.3c-2.1,0.3-3.9,1.8-4.6,3.8&#xA;&#9;&#9;c0,0.1-0.1,0.2-0.1,0.4v0.2l-0.2,0.1c-0.6,0.6-1.1,1.2-1.6,1.8l-0.1,0.1l-0.1,0.1c-4.9,2.3-3.7,12.3-2.4,16.5&#xA;&#9;&#9;c0.2,0.8,0.5,1.5,0.8,2.1c0.6,1.3,1,2.7,1.2,4.2l0,0c0.1,0.5,0.1,1,0.1,1.5c0,0.7,0,1.4,0.2,2.1c0.5,2.2,0.8,4.4,1,6.7&#xA;&#9;&#9;c0.2,3,0.7,5.9,1.7,8.7v0.1v0.1c0,3-0.2,6-0.5,8.9v0.2C167.7,193.2,167.4,194.1,167,195.1z"/>
	<path class="st7_chicken-54" d="M185.3,137.5c1.9,2.6,4.5,4.3,6.5,6.8c0.4,0.5,0.4,1.2,0.7,1.6c1.7,2.7,2,2.7,4,4.3c0.5,0.4,0.6,1.1,0.2,1.5&#xA;&#9;&#9;c0,0,0,0-0.1,0.1l0.9,1.3c0.3,0.4,0.3,0.9,0,1.3c-1.6,1.9,0.1,5.7-1.3,8c-1.2,2.1-3.2,2.6-3.9,5s0.7,3,0.6,5.2&#xA;&#9;&#9;c-0.1,1.8-1.7,4.4-2.3,6.2c-1,3.2-2.1,7-4.2,9.6s-3.8,4.4-4.5,7.8l3.3,0.2c1.3-3,3.1-5.2,5.9-8.3c3.7-4,1.9-5.4,4.9-10.6&#xA;&#9;&#9;c1.5-2.6,3.1-4.1,4.1-6.7c2.2-3.9,3-8.4,2.2-12.8c-0.1-0.6-0.4-1.1-0.8-1.6c-0.2-1.6-0.4-3.1-0.8-4.6c0.1-0.7,0.1-1.5,0-2.2&#xA;&#9;&#9;c-0.2-2.1-1-2.7-2.2-3.8c-2.1-4.4-5.5-8-9.8-10.3c-2-1.8-4.5-2.9-7.1-3.2c-1.2,0-2.5,0.1-3.7,0.4&#xA;&#9;&#9;C180.7,133.6,183.2,134.6,185.3,137.5z"/>
	<path class="st5_chicken-54" d="M185.3,154.5C185.3,154.5,185.3,154.5,185.3,154.5c-0.2,1,0,1.9,0.6,2.6c0.2,0.3,0.4,0.5,0.6,0.8&#xA;&#9;&#9;s0.3,0.7,0.5,1c0.1,0.2,0.1,0.4,0.2,0.6c0.3,0.8,0.7,1.4,1.3,1.9c0.6,1,1.3,2,1.9,3c2.6,4.7,3.2,7.9,3.4,13.7c0.2,5.4,2.4,5.2,4,11&#xA;&#9;&#9;c0.8,2.9,0.6,5.1,1.8,7.7c0.8,3,2.4,5.8,4.5,8.1l1.7-0.1c0.3-0.2,0.5-0.3,0.8-0.5c11.9-5.6,24.8-7,37.6-9.8&#xA;&#9;&#9;c0.3-0.1,0.7-0.1,1.1-0.2c1.9-5.4-5.9-11.9-10.2-14.1c-2.1-1.1-4-1.6-5.8-3.1c-1.1-0.8-1.5-1.7-2.8-2.4c-4.3-2.6-8.1-7-12.8-9.1&#xA;&#9;&#9;c-2.1-2.1-4-4.4-5.9-6.7c-1.9-4.5-3.7-9.9-6.8-13.1c-0.1-0.4-0.4-0.7-0.8-0.9c-1.6-1-3.7-2.8-5.8-1.8c-0.2,0.1-0.3,0.2-0.4,0.3&#xA;&#9;&#9;c-0.5,0.1-0.9,0.2-1.4,0.3l-0.5,0.1c-0.9-0.2-1.8-0.2-2.6,0.2c-0.8,0.5-1.5,1.1-2.1,1.9c-0.8,0.8-1.9,1.2-2.6,2.1&#xA;&#9;&#9;c-1.2,1.5-1.2,3.6,0.1,5C185.1,153.5,185.2,154,185.3,154.5z"/>
	<path class="st6_chicken-54" d="M203.8,205.4l-0.2-0.2c-2.2-2.3-3.8-5.2-4.7-8.3c-0.6-1.5-1-3.1-1.2-4.7c-0.2-1-0.3-1.9-0.6-3&#xA;&#9;&#9;c-0.5-1.8-1.2-3.4-2.1-5c-1.2-1.8-1.8-4-1.8-6.1c-0.2-5.6-0.7-8.8-3.3-13.4c-0.5-0.9-1.1-1.8-1.7-2.7l-0.1-0.1&#xA;&#9;&#9;c-0.7-0.6-1.2-1.3-1.5-2.1c-0.1-0.2-0.1-0.4-0.2-0.5s-0.3-0.5-0.4-0.8l-0.1-0.2c-0.1-0.1-0.3-0.4-0.5-0.6c-0.7-0.8-1-1.9-0.8-3&#xA;&#9;&#9;c-0.1-0.4-0.1-0.8-0.2-1.2c-1.4-1.6-1.4-4,0-5.7c0.5-0.5,1-0.9,1.6-1.3c0.4-0.3,0.8-0.5,1.1-0.9c0.2-0.2,0.4-0.4,0.5-0.6&#xA;&#9;&#9;c0.5-0.6,1.1-1.1,1.8-1.5c0.9-0.4,1.9-0.5,2.8-0.3l0,0c0.1,0,0.2-0.1,0.3-0.1c0.4-0.1,0.8-0.2,1.2-0.3c0.1-0.1,0.3-0.2,0.4-0.3&#xA;&#9;&#9;c2.1-1.1,4.1,0.3,5.7,1.4l0.7,0.4c0.4,0.3,0.8,0.6,1,1.1c2.5,2.6,4.1,6.5,5.6,10.2c0.4,1,0.8,1.9,1.2,2.8c1.8,2.2,3.7,4.4,5.7,6.5&#xA;&#9;&#9;c2.7,1.4,5.2,3.1,7.5,5.1c1.7,1.5,3.4,2.8,5.3,4c0.7,0.4,1.3,1,1.9,1.6c0.3,0.3,0.6,0.6,1,0.9c1.1,0.8,2.3,1.5,3.5,2&#xA;&#9;&#9;c0.7,0.3,1.4,0.6,2.1,1c4.3,2.3,12.6,9,10.5,14.9l-0.1,0.4h-0.4c-0.3,0-0.7,0.1-1,0.1c-3.1,0.7-6.2,1.3-9.3,1.9&#xA;&#9;&#9;c-9.4,1.8-19.2,3.6-28.1,7.9c-0.3,0.1-0.5,0.3-0.7,0.4l-0.1,0.1h-0.2l-1,0.1L203.8,205.4z M191.1,144.3c-0.4,0-0.8,0.1-1.1,0.3&#xA;&#9;&#9;c-0.5,0.3-1,0.7-1.4,1.2c-0.2,0.2-0.4,0.4-0.6,0.6c-0.4,0.4-0.8,0.7-1.3,1c-0.5,0.3-0.9,0.7-1.3,1.1c-1.1,1.2-1,3.1,0.1,4.2&#xA;&#9;&#9;l0.1,0.1v0.2c0,0.5,0.1,0.9,0.2,1.4v0.1l-0.1,0.2c-0.1,0.7,0.1,1.5,0.5,2c0.2,0.3,0.4,0.5,0.6,0.8l0.2,0.3c0.1,0.3,0.2,0.5,0.4,0.8&#xA;&#9;&#9;s0.2,0.4,0.2,0.7c0.2,0.6,0.6,1.2,1.2,1.7l0.1,0.1l0.1,0.2c0.6,0.9,1.2,1.9,1.7,2.8c2.7,4.9,3.2,8.1,3.5,13.9c0,2,0.6,3.9,1.7,5.6&#xA;&#9;&#9;c1,1.6,1.8,3.4,2.3,5.3c0.3,1,0.5,2.1,0.6,3.1c0.2,1.5,0.6,3,1.2,4.4v0.1c0.7,2.8,2.2,5.4,4.2,7.6h0.4l0.9-0.1&#xA;&#9;&#9;c0.2-0.2,0.5-0.3,0.8-0.4c9.1-4.3,18.9-6.2,28.4-8c3-0.6,6.2-1.2,9.3-1.8c0.2-0.1,0.5-0.1,0.7-0.1c1.3-5-6.2-11-10-13&#xA;&#9;&#9;c-0.7-0.4-1.4-0.7-2.1-1c-1.3-0.6-2.5-1.3-3.7-2.2c-0.4-0.3-0.8-0.6-1.1-1c-0.5-0.5-1-1-1.6-1.4c-1.9-1.2-3.7-2.5-5.4-4&#xA;&#9;&#9;c-2.2-2-4.7-3.7-7.3-5l-0.2-0.1c-2.1-2.2-4.1-4.4-5.9-6.7l-0.1-0.1c-0.4-0.9-0.8-1.9-1.2-2.9c-1.5-3.7-3.1-7.6-5.4-9.9l-0.1-0.1&#xA;&#9;&#9;v-0.1c-0.1-0.3-0.3-0.5-0.5-0.6l-0.7-0.5c-1.4-1-3-2-4.4-1.3c-0.1,0.1-0.2,0.1-0.2,0.2l-0.1,0.1h-0.2c-0.4,0.1-0.9,0.2-1.3,0.3&#xA;&#9;&#9;l-0.3,0.1l-0.3,0.1h-0.1C191.9,144.4,191.5,144.3,191.1,144.3z"/>
	<path class="st7_chicken-54" d="M185.3,154.5C185.3,154.5,185.3,154.5,185.3,154.5c-0.2,1,0,1.9,0.6,2.6c0.2,0.3,0.4,0.5,0.6,0.8&#xA;&#9;&#9;s0.3,0.7,0.5,1c0.1,0.2,0.1,0.4,0.2,0.6c0.3,0.8,0.7,1.4,1.3,1.9c0.6,1,1.3,2,1.9,3c2.6,4.7,3.2,7.9,3.4,13.7c0.2,5.4,2.4,5.2,4,11&#xA;&#9;&#9;c0.8,2.9,0.6,5.1,1.8,7.7c0.8,3,2.4,5.8,4.5,8.1l1.7-0.1c0.3-0.2,0.5-0.3,0.8-0.5c1.1-0.5,2.2-1,3.4-1.5c-0.8-0.7-1.5-1.7-1.8-2.7&#xA;&#9;&#9;c-0.6-2.3,0.4-4.1-0.7-6.3s-2.7-1.7-4.1-3.3c-1.2-1.3-1.9-4.3-2.8-6c-1.6-2.9-3.4-6.5-3.7-9.8c-0.4-3.6-0.3-5.9-2.4-9&#xA;&#9;&#9;c-0.9-1.1-1.7-2.3-2.4-3.5c-0.9-2-0.5-3.6-1.7-5.5c-2.6-3.9-3.9-7.4-2.4-10.9l-0.3,0.3c-0.8,0.8-1.9,1.2-2.6,2.1&#xA;&#9;&#9;c-1.2,1.5-1.2,3.6,0.1,5C185.1,153.5,185.2,154,185.3,154.5z"/>
	<path class="st3_chicken-54 targetColor" d="M114.4,161.5l10,44.5c0,0,121.3,4.2,121,3.7s9.6-52.9,9.6-52.9s-15.6,31.5-68.5,31.9&#xA;&#9;&#9;C138.5,188.9,114.4,161.5,114.4,161.5z" style="fill: rgb(104, 225, 253);"/>
	<path class="st13_chicken-54" d="M187.2,198.2c28.9-1,46.4-12.2,65-24.9c2.4-13,2.8-16.2,2.8-16.2s-15.6,31.5-68.5,31.8&#xA;&#9;&#9;c-48,0.3-72-27.1-72-27.1l3.1,13.5C128.1,184.3,160.8,199.1,187.2,198.2z"/>
</g>
<g id="chicken_chicken-54">
	<path class="st5_chicken-54" d="M203.3,279.1c0-2.4-1.3-4.5-3.4-5.6c-0.2-0.1-0.3-0.2-0.5-0.2c-0.5-0.7-1.1-1.3-1.6-2&#xA;&#9;&#9;c-1.7-5.5-11.8-6-16.6-5.2c-2.3,0.4-4.2,1.1-6.4,1c-1.2-0.2-2.5-0.3-3.7-0.3c-5,0.5-10.7-0.7-15.7,0.4c-2.9-0.5-5.8-1.1-8.7-1.8&#xA;&#9;&#9;c-4.2-2.4-8.9-5.7-13.3-6.4c-0.4-0.2-0.8-0.3-1.2-0.3c-1.9,0.1-4.7,0-5.7,2c-0.1,0.2-0.1,0.3-0.1,0.5c-0.3,0.3-0.6,0.6-0.9,1&#xA;&#9;&#9;c-0.1,0.1-0.2,0.3-0.3,0.4c-0.8,0.3-1.5,0.9-2,1.7c-0.3,0.9-0.5,1.8-0.6,2.8c-0.3,1.1-0.6,2.2-0.8,3.2c-0.1,1.9,1.2,3.6,3.1,4&#xA;&#9;&#9;c0.3,0.4,0.6,0.7,1,1c0,0,0,0,0,0.1c0.4,0.9,1.1,1.5,2.1,1.7c0.4,0.1,0.6,0.2,0.9,0.3s0.7,0.4,1,0.5c0.2,0.1,0.3,0.2,0.5,0.3&#xA;&#9;&#9;c0.7,0.4,1.4,0.7,2.2,0.7c1.1,0.4,2.2,0.8,3.2,1.3c4.9,2.2,7.3,4.4,10.9,8.9c3.4,4.2,5,2.7,9.8,6.4c2.4,1.9,3.6,3.7,6.1,5&#xA;&#9;&#9;c3.5,2.7,7.9,4.1,12.3,4c0.6-0.1,1.2-0.2,1.7-0.5c1.6,0.1,3.1,0,4.7-0.1c0.7,0.2,1.5,0.3,2.2,0.3c2.1,0.1,2.8-0.6,4-1.6&#xA;&#9;&#9;c4.7-1.4,8.7-4.3,11.7-8.1c2-1.7,3.5-4,4.2-6.6C204,285.8,203.4,281.4,203.3,279.1z"/>
	<path class="st6_chicken-54" d="M203.3,279.1c0-1.2-0.4-2.4-1.1-3.5c-0.4-0.5-0.8-0.9-1.3-1.3c-0.5-0.4-1-0.7-1.6-0.9l0,0&#xA;&#9;&#9;c-0.5-0.7-1.1-1.3-1.6-2l0,0c-0.7-1.7-2-3.1-3.8-3.8c-1.7-0.7-3.5-1.2-5.4-1.4c-1.9-0.2-3.7-0.3-5.6-0.2c-0.9,0.1-1.8,0.2-2.8,0.4&#xA;&#9;&#9;l-2.7,0.6c-0.9,0.2-1.9,0.3-2.8,0.3c-1,0-1.9-0.3-2.8-0.3s-1.8,0.2-2.8,0.2s-1.9,0-2.8,0c-3.7-0.1-7.5-0.4-11,0.4h-0.1&#xA;&#9;&#9;c-2.9-0.4-5.9-1-8.8-1.7h-0.1l0,0c-2.2-1.2-4.3-2.5-6.4-3.7c-2.1-1.2-4.4-2.1-6.7-2.5h-0.1l-0.1-0.1c-0.2-0.1-0.4-0.2-0.7-0.2l-1,0&#xA;&#9;&#9;c-0.7,0-1.3,0.1-2,0.2c-0.6,0.1-1.2,0.3-1.7,0.6c-0.2,0.2-0.4,0.3-0.6,0.6c-0.1,0.1-0.1,0.2-0.2,0.3c0,0.1-0.1,0.2-0.1,0.3v0.1&#xA;&#9;&#9;l-0.1,0.2c-0.4,0.4-0.8,0.9-1.1,1.4l-0.1,0.1l-0.1,0.1c-0.5,0.2-0.9,0.5-1.3,0.9c-0.3,0.4-0.6,0.8-0.7,1.3&#xA;&#9;&#9;c-0.1,0.5-0.1,1.1-0.2,1.7c-0.1,0.6-0.3,1.2-0.5,1.8c-0.2,0.5-0.3,1-0.3,1.6c0,0.5,0.1,1,0.3,1.5c0.5,0.9,1.3,1.6,2.3,1.8h0.2&#xA;&#9;&#9;l0.2,0.1l1,1l0.1,0.1v0.1c0.2,0.5,0.5,0.9,0.9,1.1c0.2,0.1,0.5,0.2,0.7,0.3l0.9,0.3l0,0h0.1l1,0.5h0.1l0,0l0.6,0.4&#xA;&#9;&#9;c0.2,0.1,0.4,0.2,0.6,0.3c0.4,0.1,0.8,0.2,1.3,0.3h0.1h0.1l2.2,0.9l1.1,0.4l1.1,0.5c1.4,0.7,2.8,1.5,4.1,2.5c2.4,2,4.6,4.3,6.5,6.8&#xA;&#9;&#9;c0.5,0.5,1,1,1.6,1.5c0.6,0.4,1.3,0.8,2,1.1c1.5,0.6,2.9,1.3,4.2,2.2c1.3,0.9,2.5,1.9,3.6,3.1c1,1.1,2.2,2.1,3.6,2.9l0,0l0,0&#xA;&#9;&#9;c1.9,1.6,4.1,2.7,6.5,3.3c1.2,0.3,2.4,0.5,3.6,0.6c0.6,0.1,1.2,0.1,1.9,0.1c0.6,0,1.2-0.2,1.7-0.5l0,0h0.1c1.5,0.1,3.1,0.1,4.6-0.1&#xA;&#9;&#9;h0.1c0.5,0.1,1.1,0.2,1.6,0.3c0.5,0.1,1.1,0.1,1.6,0c0.5-0.1,1.1-0.3,1.5-0.5c0.5-0.3,0.9-0.6,1.3-1l0,0l0,0&#xA;&#9;&#9;c4.6-1.4,8.7-4.2,11.7-8.1l0,0c1.1-0.9,2-2,2.8-3.2c0.8-1.2,1.3-2.5,1.5-3.9c0.2-1.4,0.2-2.8,0.1-4.2&#xA;&#9;&#9;C203.5,281.9,203.4,280.5,203.3,279.1z M203.3,279.1c0.1,1.4,0.3,2.8,0.4,4.2c0.1,1.4,0.1,2.8,0,4.2c-0.2,1.4-0.7,2.8-1.5,4&#xA;&#9;&#9;c-0.8,1.2-1.7,2.3-2.8,3.2l0,0c-1.4,2-3.2,3.7-5.2,5c-2,1.4-4.2,2.4-6.5,3.2l0,0c-0.4,0.4-0.9,0.7-1.4,1c-0.5,0.3-1,0.5-1.6,0.6&#xA;&#9;&#9;c-0.6,0.1-1.1,0.1-1.7,0c-0.6,0-1.1-0.1-1.7-0.3h0.1c-1.6,0.2-3.1,0.2-4.7,0.2h0.1c-0.6,0.3-1.2,0.5-1.9,0.6c-0.6,0-1.3,0-1.9-0.1&#xA;&#9;&#9;c-1.3-0.1-2.5-0.3-3.8-0.6c-2.5-0.6-4.8-1.8-6.8-3.4h0.1c-1.4-0.8-2.7-1.8-3.8-2.9c-1.1-1.1-2.3-2.1-3.6-2.9&#xA;&#9;&#9;c-1.3-0.8-2.7-1.5-4.1-2.1c-0.8-0.3-1.5-0.7-2.1-1.1c-0.7-0.5-1.3-1-1.8-1.6c-1.9-2.5-4-4.7-6.4-6.6c-1.2-0.9-2.5-1.7-3.9-2.3&#xA;&#9;&#9;l-1-0.5l-1.1-0.4l-2.2-0.8h0.1c-0.5,0-1.1-0.2-1.6-0.4c-0.3-0.1-0.5-0.2-0.8-0.4l-0.6-0.4h0.1l-1.1-0.5h0.1l-0.9-0.2&#xA;&#9;&#9;c-0.4-0.1-0.7-0.2-1-0.4c-0.7-0.4-1.2-1-1.5-1.7l0.2,0.2l-1.1-1.1l0.3,0.2c-1.4-0.3-2.5-1.2-3.2-2.5c-0.3-0.6-0.4-1.3-0.4-2&#xA;&#9;&#9;c0-0.7,0.2-1.3,0.4-1.9c0.2-0.5,0.4-1.1,0.4-1.6c0.1-0.6,0.1-1.2,0.2-1.8c0.2-0.7,0.5-1.3,1-1.8c0.5-0.5,1-0.8,1.6-1.1l-0.2,0.2&#xA;&#9;&#9;c0.4-0.5,0.8-1,1.3-1.5l-0.2,0.3c0-0.2,0.1-0.4,0.2-0.6c0.1-0.2,0.2-0.4,0.3-0.5c0.2-0.3,0.5-0.6,0.9-0.8c0.6-0.4,1.4-0.7,2.1-0.8&#xA;&#9;&#9;c0.7-0.1,1.4-0.2,2.1-0.2c0.4,0,0.6,0,1.1,0c0.4,0,0.9,0.1,1.2,0.4l-0.2-0.1c2.5,0.5,4.8,1.4,7,2.8c2.2,1.2,4.2,2.6,6.4,3.8h-0.1&#xA;&#9;&#9;c2.9,0.7,5.8,1.4,8.7,1.8h-0.1c3.7-0.8,7.5-0.3,11.2-0.2c0.9,0,1.9,0,2.8,0s1.8-0.2,2.8-0.1s1.9,0.3,2.8,0.3c0.9,0,1.8-0.1,2.7-0.2&#xA;&#9;&#9;l2.7-0.6c0.9-0.2,1.8-0.3,2.8-0.3c1.9-0.1,3.7-0.1,5.6,0.2c1.9,0.2,3.7,0.7,5.4,1.4c1.8,0.7,3.1,2.1,3.8,3.9l0,0&#xA;&#9;&#9;c0.6,0.6,1.1,1.3,1.6,2l0,0c0.6,0.3,1.1,0.6,1.6,1c0.5,0.4,0.9,0.8,1.3,1.3C203,276.6,203.3,277.8,203.3,279.1z"/>
	<path class="st7_chicken-54" d="M197.9,291.1c-2.9,1.5-4.9,3.9-7.7,5.4c-0.6,0.2-1.2,0.3-1.7,0.5c-2.9,1.3-2.9,1.6-4.9,3.3&#xA;&#9;&#9;c-0.5,0.4-1.2,0.4-1.6-0.1c0,0,0,0,0,0l-1.4,0.7c-0.4,0.2-1,0.2-1.3-0.2c-1.7-1.8-5.6-0.8-7.8-2.5c-1.9-1.5-2.2-3.5-4.4-4.6&#xA;&#9;&#9;s-3.1,0.3-5.3-0.2c-1.8-0.4-4.1-2.3-5.8-3.1c-3-1.4-6.6-3.2-8.9-5.6c-2.5-2.6-3.8-4.5-7.4-5.8c-1.4-0.3-2.7-0.8-4-1.3&#xA;&#9;&#9;c-1.9-1-2.6-2.6-4.7-3.4c-4.4-1.6-7.5-3.6-8.5-7.3c0,0.1,0,0.3-0.1,0.4c-0.3,1.1-0.6,2.2-0.8,3.2c-0.1,1.9,1.2,3.6,3.1,4&#xA;&#9;&#9;c0.3,0.4,0.6,0.7,1,1c0,0,0,0,0,0.1c0.4,0.9,1.1,1.5,2.1,1.7c0.4,0.1,0.6,0.2,0.9,0.3s0.7,0.4,1,0.5c0.2,0.1,0.3,0.2,0.5,0.3&#xA;&#9;&#9;c0.7,0.4,1.4,0.7,2.2,0.7c1.1,0.4,2.2,0.8,3.2,1.3c4.9,2.2,7.3,4.4,10.9,8.9c3.4,4.2,5,2.7,9.8,6.4c2.4,1.9,3.6,3.7,6.1,5&#xA;&#9;&#9;c3.5,2.7,7.9,4.1,12.3,4c0.6-0.1,1.2-0.2,1.7-0.5c1.6,0.1,3.1,0,4.7-0.1c0.7,0.2,1.5,0.3,2.2,0.3c2.1,0.1,2.8-0.6,4-1.6&#xA;&#9;&#9;c4.7-1.4,8.7-4.3,11.7-8.1c2-1.7,3.5-4,4.2-6.6c0.2-1.2,0.3-2.5,0.2-3.7C202.5,287.2,201.2,289.5,197.9,291.1z"/>
</g>
</svg>