<?xml version="1.0" encoding="utf-8"?>
<!-- Generator: Adobe Illustrator 29.5.1, SVG Export Plug-In . SVG Version: 9.03 Build 0)  -->
<svg version="1.1" xmlns="http://www.w3.org/2000/svg" xmlns:xlink="http://www.w3.org/1999/xlink" x="0px" y="0px"
	 viewBox="0 0 500 500" style="enable-background:new 0 0 500 500;" xml:space="preserve">
<g id="Layer_1" style="display:none;">
</g>
<g id="Item_x5F_1" style="display:none;">
</g>
<g id="Layer_5" style="display:none;">
</g>
<g id="Layer_6" style="display:none;">
</g>
<g id="Layer_7" style="display:none;">
</g>
<g id="Item_x5F_2" style="display:none;">
</g>
<g id="Item_x5F_1_x5F_Item_x5F_136" style="display:none;">
	<path style="display:inline;fill:#5297A4;" d="M243,397.2L23.8,267.6c-7-3.9-13-10.4-6.2-14.6l220-126.8c3.3-2,8.3-3.4,11.7-1.4
		l230.1,133.6c7,4,8.2,15.4,1.2,19.4L271.9,397C263,402.2,252,402.3,243,397.2z"/>
</g>
<g id="Item_x5F_1_x5F_Item_x5F_135" style="display:none;">
	<path style="display:inline;fill:#94C14C;" d="M248.9,136.9c-16.1-7.3-32.7,3.5-49.2,16.9c-18.4,14-47.6,41.8-54.6,56.7
		c10.2,1.9,44.7,19,54.6,18.5c29.3-1.5,58.3-8.3,58.3-8.3l87.1-20.9C345.1,199.8,273.2,147.9,248.9,136.9z"/>
</g>
<g id="Item_x5F_1_x5F_Item_x5F_137" style="display:none;">
	<polygon style="display:inline;fill:#80AD1F;" points="177.1,174.7 38.9,258.9 127.2,315.3 442.7,283.7 467.6,269.1 322.6,189.3 	
		"/>
</g>
<g id="Item_x5F_1_x5F_Item_x5F_133" style="display:none;">
	<path style="display:inline;fill:#94C14C;" d="M127.2,315.3c1.1-1.3,57.8-81.6,79.3-85.3s95.8-38.5,126.9-23.3s109.3,77,109.3,77
		s-156,97.4-183.9,101.2S127.2,315.3,127.2,315.3z"/>
</g>
<g id="Item_x5F_1_x5F_Item_x5F_134" style="display:none;">
	<path style="display:inline;opacity:0.4;fill:#80AD1F;enable-background:new    ;" d="M248.9,136.9c-16.1-7.3-32.7,3.5-49.2,16.9
		c-18.4,14-47.6,41.8-54.6,56.7c10.2,1.9,44.7,19,54.6,18.5c29.3-1.5,58.3-8.3,58.3-8.3l87.1-20.9
		C345.1,199.8,273.2,147.9,248.9,136.9z"/>
</g>
<g id="Item_x5F_2_x5F_Item_x5F_1" style="display:none;">
	<polygon style="display:inline;fill:#FFE7D4;" points="217.9,117 240.5,104.6 246.1,103.1 249.9,106.1 274,118.6 256.7,131.7 
		243.2,134.5 234.3,131.2 225.4,124.8 	"/>
</g>
<g id="Item_x5F_2_x5F_Item_x5F_2" style="display:none;">
	<polygon style="display:inline;fill:#EABC9D;" points="224.9,124 244.1,112.7 265.4,123.8 252.3,131.7 246.4,133 239.9,132.1 	"/>
</g>
<g id="Item_x5F_2_x5F_Item_x5F_3" style="display:none;">
	<polygon style="display:inline;fill:#DDA37C;" points="226.1,125.2 244.1,114.9 265.4,126 252.3,133.8 246.4,135.2 239.9,134.2 	
		"/>
</g>
<g id="Item_x5F_2_x5F_Item_x5F_4" style="display:none;">
	<polygon style="display:inline;fill:#153E42;" points="225.4,109.8 230.9,112.9 237.7,109.4 231.9,106.1 	"/>
</g>
<g id="Item_x5F_2_x5F_Item_x5F_5" style="display:none;">
	<path style="display:inline;fill:#EABC9D;" d="M225.4,109.8v3.7l5.5,3c0,0-0.1-3.7,0-3.7S225.4,109.8,225.4,109.8z"/>
</g>
<g id="Item_x5F_2_x5F_Item_x5F_6" style="display:none;">
	<polygon style="display:inline;fill:#EABC9D;" points="230.9,116.6 237.7,112.9 237.7,109.4 230.9,112.9 	"/>
</g>
<g id="Item_x5F_2_x5F_Item_x5F_7" style="display:none;">
	<polygon style="display:inline;fill:#153E42;" points="237.8,103.1 243.3,106.1 249.9,102.7 244.2,99.4 	"/>
</g>
<g id="Item_x5F_2_x5F_Item_x5F_8" style="display:none;">
	<path style="display:inline;fill:#EABC9D;" d="M237.8,103.1v3.7l5.4,3v-3.6L237.8,103.1z"/>
</g>
<g id="Item_x5F_2_x5F_Item_x5F_9" style="display:none;">
	<polygon style="display:inline;fill:#EABC9D;" points="243.2,109.7 249.9,106.1 249.9,102.7 243.2,106.1 	"/>
</g>
<g id="Item_x5F_2_x5F_Item_x5F_10" style="display:none;">
	<polygon style="display:inline;fill:#153E42;" points="262.2,109 256.7,112.1 249.9,108.6 255.7,105.3 	"/>
</g>
<g id="Item_x5F_2_x5F_Item_x5F_11" style="display:none;">
	<path style="display:inline;fill:#EABC9D;" d="M262.2,109v3.7l-5.5,3c0,0,0.1-3.7,0-3.7S262.2,109,262.2,109z"/>
</g>
<g id="Item_x5F_2_x5F_Item_x5F_12" style="display:none;">
	<polygon style="display:inline;fill:#EABC9D;" points="256.7,115.8 249.9,112.1 249.9,108.6 256.7,112.1 	"/>
</g>
<g id="Item_x5F_2_x5F_Item_x5F_13" style="display:none;">
	<polygon style="display:inline;fill:#68E1FD;" points="227.9,111.4 230.4,112.7 230.4,125.8 244.9,134.1 260.3,125.5 260.3,115.1 
		238.5,107.3 	"/>
</g>
<g id="Item_x5F_2_x5F_Item_x5F_14" style="display:none;">
	<polygon style="display:inline;fill:#68E1FD;" points="230.4,125.8 244.9,134.1 244.8,118 237.8,107.7 227.9,111.4 230.4,112.7 	
		"/>
</g>
<g id="Item_x5F_2_x5F_Item_x5F_15" style="display:none;">
	<polygon style="display:inline;opacity:0.27;fill:#153E42;enable-background:new    ;" points="230.4,125.8 244.9,134.1 244.8,118 
		237.8,107.7 227.9,111.4 230.4,112.7 	"/>
</g>
<g id="Item_x5F_2_x5F_Item_x5F_16" style="display:none;">
	<path style="display:inline;fill:#153E42;" d="M252.9,99.1c0,0-4.9,4.2-9.9,3.8l-15,8.6l9.8-3.7L252.9,99.1z"/>
</g>
<g id="Item_x5F_2_x5F_Item_x5F_17" style="display:none;">
	<path style="display:inline;fill:#FFE7D4;" d="M247.7,122.3c0,0-7.2-6.8-10-14.6l15.1-8.7c0,0,5,9.8,10,14.6L247.7,122.3z"/>
</g>
<g id="Item_x5F_2_x5F_Item_x5F_18" style="display:none;">
	<polygon style="display:inline;fill:#68E1FD;" points="211.9,117.7 218.6,121.6 218.6,125 225.3,128.9 225.3,125.6 232.4,129.5 
		232.4,132.9 239.1,136.8 239.1,133 246.1,137 251.5,134 251.5,137 259,133 259,129.7 265.6,126.1 265.6,129.4 272,125.8 272,122.5 
		278.6,118.9 278.6,161.1 246.5,178.6 211.9,159.6 	"/>
</g>
<g id="Item_x5F_2_x5F_Item_x5F_19" style="display:none;">
	<path style="display:inline;fill:#153E42;" d="M248.3,159v-9.2c0-0.2,0.7-4.4,3.6-5.8s4.5,0.3,4.7,1s0,9.3,0,9.3L248.3,159z"/>
</g>
<g id="Item_x5F_2_x5F_Item_x5F_20" style="display:none;">
	<path style="display:inline;fill:#153E42;" d="M258.2,153.9v-9.2c0-0.2,0.7-4.4,3.6-5.8s4.5,0.3,4.7,1s0,9.3,0,9.3L258.2,153.9z"/>
</g>
<g id="Item_x5F_2_x5F_Item_x5F_21" style="display:none;">
	<path style="display:inline;fill:#153E42;" d="M268.4,148.7v-9.2c0-0.2,0.7-4.4,3.6-5.8s4.5,0.3,4.6,1s0,9.3,0,9.3L268.4,148.7z"/>
</g>
<g id="Item_x5F_2_x5F_Item_x5F_22" style="display:none;">
	<path style="display:inline;fill:#153E42;" d="M242.2,157.9v-9.2c0-0.2-0.7-4.4-3.6-5.8s-4.5,0.3-4.7,1s0,9.3,0,9.3L242.2,157.9z"
		/>
</g>
<g id="Item_x5F_2_x5F_Item_x5F_23" style="display:none;">
	<path style="display:inline;fill:#153E42;" d="M232.2,152.8v-9.2c0-0.2-0.7-4.4-3.6-5.8s-4.5,0.3-4.6,1s0,9.3,0,9.3L232.2,152.8z"
		/>
</g>
<g id="Item_x5F_2_x5F_Item_x5F_24" style="display:none;">
	<path style="display:inline;fill:#153E42;" d="M222.1,147.6v-9.2c0-0.2-0.7-4.4-3.6-5.8s-4.5,0.3-4.7,1s0,9.3,0,9.3L222.1,147.6z"
		/>
</g>
<g id="Item_x5F_2_x5F_Item_x5F_25" style="display:none;">
	<polygon style="display:inline;fill:#153E42;" points="211.9,117.7 217.1,114.8 223.8,118.6 218.6,121.6 	"/>
</g>
<g id="Item_x5F_2_x5F_Item_x5F_26" style="display:none;">
	<polygon style="display:inline;fill:#153E42;" points="218.7,125 223.8,122.2 230.5,126 225.3,128.9 	"/>
</g>
<g id="Item_x5F_2_x5F_Item_x5F_27" style="display:none;">
	<polygon style="display:inline;fill:#EABC9D;" points="218.6,121.6 218.6,125 223.8,122.2 223.8,118.6 	"/>
</g>
<g id="Item_x5F_2_x5F_Item_x5F_28" style="display:none;">
	<polygon style="display:inline;fill:#153E42;" points="225.7,125.6 230.8,122.7 237.6,126.5 232.4,129.5 	"/>
</g>
<g id="Item_x5F_2_x5F_Item_x5F_29" style="display:none;">
	<polygon style="display:inline;fill:#153E42;" points="232.4,132.9 237.6,130.1 244.3,133.9 239.1,136.8 	"/>
</g>
<g id="Item_x5F_2_x5F_Item_x5F_30" style="display:none;">
	<polygon style="display:inline;fill:#EABC9D;" points="232.4,129.5 232.4,132.9 237.6,130.1 237.6,126.5 	"/>
</g>
<g id="Item_x5F_2_x5F_Item_x5F_31" style="display:none;">
	<path style="display:inline;fill:#153E42;" d="M251.7,137c0.1,0,7.3-4,7.3-4l-5-2.9l-4.7,2.6L251.7,137z"/>
</g>
<g id="Item_x5F_2_x5F_Item_x5F_32">
	<polygon style="fill:#153E42;" points="239.3,133 244.6,130.1 251.5,134 246.1,137 	"/>
</g>
<g id="Item_x5F_2_x5F_Item_x5F_33" style="display:none;">
	<polygon style="display:inline;fill:#EABC9D;" points="254,130.1 254,126.9 259,129.7 259,133 	"/>
</g>
<g id="Item_x5F_2_x5F_Item_x5F_34" style="display:none;">
	<polygon style="display:inline;fill:#153E42;" points="254,126.9 260.5,123.4 265.6,126.1 259,129.7 	"/>
</g>
<g id="Item_x5F_2_x5F_Item_x5F_35" style="display:none;">
	<polygon style="display:inline;fill:#153E42;" points="260.4,126.6 267,122.9 272,125.8 265.4,129.4 	"/>
</g>
<g id="Item_x5F_2_x5F_Item_x5F_36" style="display:none;">
	<polygon style="display:inline;fill:#EABC9D;" points="267,122.9 267,119.8 272,122.5 272,125.8 	"/>
</g>
<g id="Item_x5F_2_x5F_Item_x5F_37" style="display:none;">
	<polygon style="display:inline;fill:#153E42;" points="267,119.8 273.5,116.2 278.6,118.9 272,122.5 	"/>
</g>
<g id="Item_x5F_2_x5F_Item_x5F_38" style="display:none;">
	<path style="display:inline;fill:#FFE7D4;" d="M294.9,178.4l-21.5,14.4c0,0-19.4-14.4-20.6-21s-2.2-8.8-2.2-8.8l21.5-10.4
		L294.9,178.4z"/>
</g>
<g id="Item_x5F_2_x5F_Item_x5F_39" style="display:none;">
	<path style="display:inline;fill:#FFE7D4;" d="M247.8,153l1.7-0.8c0,0,4.7,23.6,27,34.4l0.5,14.9l-17.4-17.6l-8.9-14.1L247.8,153z"
		/>
</g>
<g id="Item_x5F_2_x5F_Item_x5F_40" style="display:none;">
	<path style="display:inline;fill:#68E1FD;" d="M247.8,153c0.2,0.7,6.1,24.4,27.8,34.8v16.6c0,0-23.3-12.4-27.8-29.8V153z"/>
</g>
<g id="Item_x5F_2_x5F_Item_x5F_41" style="display:none;">
	<path style="display:inline;opacity:0.27;fill:#153E42;enable-background:new    ;" d="M247.8,153c0.2,0.7,6.1,24.4,27.8,34.8v16.6
		c0,0-23.3-12.4-27.8-29.8V153z"/>
</g>
<g id="Item_x5F_2_x5F_Item_x5F_42" style="display:none;">
	<path style="display:inline;fill:#FFE7D4;" d="M271,135.2l1.7-0.8c0,0,11.5,21.9,33.8,32.7l-6.3,16.6l-17.4-17.6l-8.9-14.1
		L271,135.2z"/>
</g>
<g id="Item_x5F_2_x5F_Item_x5F_43" style="display:none;">
	<path style="display:inline;fill:#68E1FD;" d="M271,135.2c0.2,0.7,13,22.8,34.7,33.2l2.1,16.1c0,0-31.8-15.9-35.6-29.3L271,135.2z"
		/>
</g>
<g id="Item_x5F_2_x5F_Item_x5F_44" style="display:none;">
	<path style="display:inline;opacity:0.27;fill:#153E42;enable-background:new    ;" d="M271,135.2c0.2,0.7,13,22.8,34.7,33.2
		l2.1,16.1c0,0-31.8-15.9-35.6-29.3L271,135.2z"/>
</g>
<g id="Item_x5F_2_x5F_Item_x5F_45" style="display:none;">
	<polygon style="display:inline;fill:#FFE7D4;" points="271.8,172.2 302.2,155.5 309.8,153.5 314.9,157.5 347.3,174.4 324.1,192 
		305.9,195.8 293.9,191.4 281.9,182.7 	"/>
</g>
<g id="Item_x5F_2_x5F_Item_x5F_46" style="display:none;">
	<polygon style="display:inline;fill:#DDA37C;" points="281.1,181.7 307.1,166.4 335.8,181.4 318.1,192 310.2,193.8 301.4,192.5 	
		"/>
</g>
<g id="Item_x5F_2_x5F_Item_x5F_47" style="display:none;">
	<polygon style="display:inline;fill:#EABC9D;" points="282.8,183.3 307.1,169.4 335.8,184.4 318.1,194.9 310.2,196.8 301.4,195.4 	
		"/>
</g>
<g id="Item_x5F_2_x5F_Item_x5F_48" style="display:none;">
	<polygon style="display:inline;fill:#153E42;" points="281.9,162.6 289.4,166.7 298.5,162.1 290.6,157.5 	"/>
</g>
<g id="Item_x5F_2_x5F_Item_x5F_49" style="display:none;">
	<path style="display:inline;fill:#DDA37C;" d="M281.9,162.6v5l7.4,4.1c0,0-0.1-5,0-5S281.9,162.6,281.9,162.6z"/>
</g>
<g id="Item_x5F_2_x5F_Item_x5F_50" style="display:none;">
	<polygon style="display:inline;fill:#EABC9D;" points="289.3,171.7 298.5,166.7 298.5,162.1 289.3,166.7 	"/>
</g>
<g id="Item_x5F_2_x5F_Item_x5F_51" style="display:none;">
	<polygon style="display:inline;fill:#153E42;" points="298.6,153.5 305.9,157.5 314.9,153 307.2,148.5 	"/>
</g>
<g id="Item_x5F_2_x5F_Item_x5F_52" style="display:none;">
	<path style="display:inline;fill:#DDA37C;" d="M298.6,153.5v5l7.2,4c0,0-0.1-4.9,0-4.9S298.6,153.5,298.6,153.5z"/>
</g>
<g id="Item_x5F_2_x5F_Item_x5F_53" style="display:none;">
	<polygon style="display:inline;fill:#EABC9D;" points="305.9,162.4 314.9,157.5 314.9,153 305.9,157.5 	"/>
</g>
<g id="Item_x5F_2_x5F_Item_x5F_54" style="display:none;">
	<polygon style="display:inline;fill:#153E42;" points="331.4,161.5 324,165.6 314.9,161 322.7,156.4 	"/>
</g>
<g id="Item_x5F_2_x5F_Item_x5F_55" style="display:none;">
	<path style="display:inline;fill:#EABC9D;" d="M331.4,161.5v5l-7.4,4.1c0,0,0.1-5,0-5S331.4,161.5,331.4,161.5z"/>
</g>
<g id="Item_x5F_2_x5F_Item_x5F_56" style="display:none;">
	<polygon style="display:inline;fill:#DDA37C;" points="324.1,170.6 314.9,165.6 314.9,161 324.1,165.6 	"/>
</g>
<g id="Item_x5F_2_x5F_Item_x5F_57" style="display:none;">
	<polygon style="display:inline;fill:#68E1FD;" points="263.8,173.2 272.7,178.4 272.7,183.1 281.8,188.3 281.8,183.8 291.2,189 
		291.2,193.7 300.3,198.9 300.3,193.8 309.8,199.2 317,195.1 317,199.2 327.1,193.7 327.1,189.4 336,184.5 336,188.9 344.6,184.1 
		344.6,179.7 353.6,174.8 353.6,231.6 310.3,255.2 263.8,229.6 	"/>
</g>
<g id="Item_x5F_2_x5F_Item_x5F_58" style="display:none;">
	<path style="display:inline;fill:#153E42;" d="M312.7,228.8v-12.4c0-0.2,0.9-5.9,4.9-7.8s6,0.4,6.3,1.4s0,12.5,0,12.5L312.7,228.8z
		"/>
</g>
<g id="Item_x5F_2_x5F_Item_x5F_59" style="display:none;">
	<path style="display:inline;fill:#153E42;" d="M326.1,221.9v-12.4c0-0.2,0.9-5.9,4.9-7.8s6.1,0.4,6.3,1.4s0,12.5,0,12.5
		L326.1,221.9z"/>
</g>
<g id="Item_x5F_2_x5F_Item_x5F_60" style="display:none;">
	<path style="display:inline;fill:#153E42;" d="M339.8,215v-12.4c0-0.2,0.9-5.9,4.8-7.8s6.1,0.4,6.3,1.4s0,12.5,0,12.5L339.8,215z"
		/>
</g>
<g id="Item_x5F_2_x5F_Item_x5F_61" style="display:none;">
	<path style="display:inline;fill:#153E42;" d="M304.5,227.3V215c0-0.2-0.9-5.9-4.9-7.8s-6.1,0.4-6.3,1.4s0,12.5,0,12.5L304.5,227.3
		z"/>
</g>
<g id="Item_x5F_2_x5F_Item_x5F_62" style="display:none;">
	<path style="display:inline;fill:#153E42;" d="M291.1,220.4V208c0-0.2-0.9-5.9-4.8-7.8s-6.1,0.4-6.3,1.4s0,12.5,0,12.5L291.1,220.4
		z"/>
</g>
<g id="Item_x5F_2_x5F_Item_x5F_63" style="display:none;">
	<path style="display:inline;fill:#153E42;" d="M277.4,213.5v-12.4c0-0.2-0.9-5.9-4.9-7.8s-6,0.4-6.3,1.4s0,12.5,0,12.5L277.4,213.5
		z"/>
</g>
<g id="Item_x5F_2_x5F_Item_x5F_64" style="display:none;">
	<polygon style="display:inline;fill:#153E42;" points="263.8,173.2 270.7,169.3 279.8,174.4 272.7,178.4 	"/>
</g>
<g id="Item_x5F_2_x5F_Item_x5F_65" style="display:none;">
	<polygon style="display:inline;fill:#153E42;" points="272.8,183.1 279.8,179.2 288.8,184.3 281.8,188.3 	"/>
</g>
<g id="Item_x5F_2_x5F_Item_x5F_66" style="display:none;">
	<polygon style="display:inline;fill:#DDA37C;" points="272.7,178.4 272.7,183.1 279.8,179.2 279.8,174.4 	"/>
</g>
<g id="Item_x5F_2_x5F_Item_x5F_67" style="display:none;">
	<polygon style="display:inline;fill:#153E42;" points="282.3,183.8 289.2,179.9 298.3,185 291.2,189 	"/>
</g>
<g id="Item_x5F_2_x5F_Item_x5F_68" style="display:none;">
	<polygon style="display:inline;fill:#153E42;" points="291.3,193.7 298.3,189.8 307.3,194.9 300.3,198.9 	"/>
</g>
<g id="Item_x5F_2_x5F_Item_x5F_69" style="display:none;">
	<polygon style="display:inline;fill:#DDA37C;" points="291.2,189 291.2,193.7 298.3,189.8 298.3,185 	"/>
</g>
<g id="Item_x5F_2_x5F_Item_x5F_70" style="display:none;">
	<path style="display:inline;fill:#153E42;" d="M317.2,199.2c0.1,0,9.8-5.4,9.8-5.4l-6.7-3.9l-6.4,3.6L317.2,199.2z"/>
</g>
<g id="Item_x5F_2_x5F_Item_x5F_71" style="display:none;">
	<polygon style="display:inline;fill:#153E42;" points="300.6,193.8 307.7,189.8 317,195.1 309.8,199.2 	"/>
</g>
<g id="Item_x5F_2_x5F_Item_x5F_72" style="display:none;">
	<polygon style="display:inline;fill:#DDA37C;" points="320.4,189.8 320.4,185.6 327.1,189.4 327.1,193.7 	"/>
</g>
<g id="Item_x5F_2_x5F_Item_x5F_73" style="display:none;">
	<polygon style="display:inline;fill:#153E42;" points="320.4,185.6 329.1,180.8 336,184.5 327.1,189.4 	"/>
</g>
<g id="Item_x5F_2_x5F_Item_x5F_74" style="display:none;">
	<polygon style="display:inline;fill:#153E42;" points="329,185.2 337.9,180.1 344.6,184.1 335.7,188.9 	"/>
</g>
<g id="Item_x5F_2_x5F_Item_x5F_75" style="display:none;">
	<polygon style="display:inline;fill:#DDA37C;" points="337.9,180.1 337.9,175.9 344.6,179.7 344.6,184.1 	"/>
</g>
<g id="Item_x5F_2_x5F_Item_x5F_76" style="display:none;">
	<polygon style="display:inline;fill:#153E42;" points="337.9,175.9 346.7,171.1 353.6,174.8 344.6,179.7 	"/>
</g>
<g id="Item_x5F_2_x5F_Item_x5F_77" style="display:none;">
	<path style="display:inline;fill:#FFE7D4;" d="M242.8,257.5l28.2,18.9c0,0,25.5-18.9,27.1-27.5c1.6-8.6,2.8-11.5,2.8-11.5
		l-28.2-13.7L242.8,257.5z"/>
</g>
<g id="Item_x5F_2_x5F_Item_x5F_78" style="display:none;">
	<path style="display:inline;fill:#FFE7D4;" d="M304.6,224.1l-2.2-1.1c0,0-6.2,31-35.4,45.1l-0.7,19.6l22.9-23.1l11.6-18.5
		L304.6,224.1z"/>
</g>
<g id="Item_x5F_2_x5F_Item_x5F_79" style="display:none;">
	<path style="display:inline;fill:#68E1FD;" d="M304.6,224.1c-0.3,0.9-8,32-36.5,45.6v21.8c0,0,30.6-16.3,36.5-39.1V224.1z"/>
</g>
<g id="Item_x5F_2_x5F_Item_x5F_80" style="display:none;">
	<path style="display:inline;opacity:0.27;fill:#153E42;enable-background:new    ;" d="M304.6,224.1c-0.3,0.9-8,32-36.5,45.6v21.8
		c0,0,30.6-16.3,36.5-39.1V224.1z"/>
</g>
<g id="Item_x5F_2_x5F_Item_x5F_81" style="display:none;">
	<path style="display:inline;fill:#FFE7D4;" d="M274.1,200.8l-2.2-1.1c0,0-15.1,28.8-44.3,43l8.3,21.7l22.9-23.1l11.6-18.5
		L274.1,200.8z"/>
</g>
<g id="Item_x5F_2_x5F_Item_x5F_82" style="display:none;">
	<path style="display:inline;fill:#68E1FD;" d="M274.1,200.8c-0.3,0.9-17,30-45.5,43.6l-2.7,21.1c0,0,41.8-20.8,46.7-38.5
		L274.1,200.8z"/>
</g>
<g id="Item_x5F_2_x5F_Item_x5F_83" style="display:none;">
	<path style="display:inline;opacity:0.27;fill:#153E42;enable-background:new    ;" d="M274.1,200.8c-0.3,0.9-17,30-45.5,43.6
		l-2.7,21.1c0,0,41.8-20.8,46.7-38.5L274.1,200.8z"/>
</g>
<g id="Item_x5F_2_x5F_Item_x5F_84" style="display:none;">
	<polygon style="display:inline;fill:#FFE7D4;" points="180.5,264.9 214.8,246 223.3,243.7 229.1,248.3 265.6,267.4 239.4,287.2 
		218.9,291.4 205.4,286.5 191.9,276.7 	"/>
</g>
<g id="Item_x5F_2_x5F_Item_x5F_85" style="display:none;">
	<polygon style="display:inline;fill:#EABC9D;" points="191,275.6 220.3,258.4 252.7,275.2 232.7,287.2 223.8,289.2 213.9,287.8 	
		"/>
</g>
<g id="Item_x5F_2_x5F_Item_x5F_86" style="display:none;">
	<polygon style="display:inline;fill:#DDA37C;" points="192.9,277.4 220.3,261.7 252.7,278.6 232.7,290.5 223.8,292.5 213.9,291.1 	
		"/>
</g>
<g id="Item_x5F_2_x5F_Item_x5F_87" style="display:none;">
	<polygon style="display:inline;fill:#153E42;" points="191.9,254 200.3,258.7 210.5,253.4 201.7,248.3 	"/>
</g>
<g id="Item_x5F_2_x5F_Item_x5F_88" style="display:none;">
	<path style="display:inline;fill:#EABC9D;" d="M191.9,254v5.7l8.3,4.6c0,0-0.1-5.6,0-5.6S191.9,254,191.9,254z"/>
</g>
<g id="Item_x5F_2_x5F_Item_x5F_89" style="display:none;">
	<polygon style="display:inline;fill:#EABC9D;" points="200.2,264.3 210.5,258.7 210.5,253.4 200.2,258.7 	"/>
</g>
<g id="Item_x5F_2_x5F_Item_x5F_90" style="display:none;">
	<polygon style="display:inline;fill:#153E42;" points="210.7,243.7 219,248.3 229.1,243.2 220.4,238.1 	"/>
</g>
<g id="Item_x5F_2_x5F_Item_x5F_91" style="display:none;">
	<path style="display:inline;fill:#EABC9D;" d="M210.7,243.7v5.6l8.1,4.5c0,0-0.1-5.5,0-5.5S210.7,243.7,210.7,243.7z"/>
</g>
<g id="Item_x5F_2_x5F_Item_x5F_92" style="display:none;">
	<polygon style="display:inline;fill:#EABC9D;" points="218.9,253.8 229.1,248.3 229.1,243.2 218.9,248.3 	"/>
</g>
<g id="Item_x5F_2_x5F_Item_x5F_93" style="display:none;">
	<polygon style="display:inline;fill:#153E42;" points="247.7,252.8 239.3,257.5 229.1,252.2 237.9,247.1 	"/>
</g>
<g id="Item_x5F_2_x5F_Item_x5F_94" style="display:none;">
	<path style="display:inline;fill:#EABC9D;" d="M247.7,252.8v5.7l-8.3,4.5c0,0,0.1-5.6,0-5.6S247.7,252.8,247.7,252.8z"/>
</g>
<g id="Item_x5F_2_x5F_Item_x5F_95" style="display:none;">
	<polygon style="display:inline;fill:#EABC9D;" points="239.4,263 229.1,257.5 229.1,252.2 239.4,257.5 	"/>
</g>
<g id="Item_x5F_2_x5F_Item_x5F_96" style="display:none;">
	<polygon style="display:inline;fill:#68E1FD;" points="171.4,266 181.5,271.9 181.5,277.1 191.7,283 191.7,277.9 202.4,283.8 
		202.4,289.1 212.6,295 212.6,289.2 223.4,295.3 231.5,290.7 231.5,295.3 242.8,289.1 242.8,284.2 252.9,278.8 252.9,283.7 
		262.6,278.2 262.6,273.3 272.7,267.8 272.7,331.8 223.9,358.5 171.4,329.6 	"/>
</g>
<g id="Item_x5F_2_x5F_Item_x5F_97" style="display:none;">
	<path style="display:inline;fill:#153E42;" d="M226.6,328.7v-13.9c0-0.2,1.1-6.7,5.5-8.8s6.8,0.4,7.1,1.5s0,14.1,0,14.1
		L226.6,328.7z"/>
</g>
<g id="Item_x5F_2_x5F_Item_x5F_98" style="display:none;">
	<path style="display:inline;fill:#153E42;" d="M241.7,320.9V307c0-0.2,1-6.7,5.5-8.8s6.8,0.4,7.1,1.5s0,14.1,0,14.1L241.7,320.9z"
		/>
</g>
<g id="Item_x5F_2_x5F_Item_x5F_99" style="display:none;">
	<path style="display:inline;fill:#153E42;" d="M257.2,313.1v-13.9c0-0.2,1-6.7,5.5-8.8s6.8,0.4,7.1,1.5s0,14.1,0,14.1L257.2,313.1z
		"/>
</g>
<g id="Item_x5F_2_x5F_Item_x5F_100" style="display:none;">
	<path style="display:inline;fill:#153E42;" d="M217.3,327v-13.9c0-0.2-1.1-6.7-5.5-8.8s-6.8,0.4-7.1,1.5s0,14.1,0,14.1L217.3,327z"
		/>
</g>
<g id="Item_x5F_2_x5F_Item_x5F_101" style="display:none;">
	<path style="display:inline;fill:#153E42;" d="M202.2,319.2v-13.9c0-0.2-1.1-6.7-5.5-8.8s-6.8,0.4-7.1,1.5s0,14.1,0,14.1
		L202.2,319.2z"/>
</g>
<g id="Item_x5F_2_x5F_Item_x5F_102" style="display:none;">
	<path style="display:inline;fill:#153E42;" d="M186.8,311.5v-13.9c0-0.2-1-6.7-5.5-8.8s-6.8,0.4-7.1,1.5s0,14.1,0,14.1L186.8,311.5
		z"/>
</g>
<g id="Item_x5F_2_x5F_Item_x5F_103" style="display:none;">
	<polygon style="display:inline;fill:#153E42;" points="171.4,266 179.2,261.6 189.5,267.4 181.5,271.9 	"/>
</g>
<g id="Item_x5F_2_x5F_Item_x5F_104" style="display:none;">
	<polygon style="display:inline;fill:#153E42;" points="181.6,277.1 189.4,272.8 199.7,278.5 191.7,283 	"/>
</g>
<g id="Item_x5F_2_x5F_Item_x5F_105" style="display:none;">
	<polygon style="display:inline;fill:#EABC9D;" points="181.5,271.9 181.5,277.1 189.4,272.8 189.4,267.4 	"/>
</g>
<g id="Item_x5F_2_x5F_Item_x5F_106" style="display:none;">
	<polygon style="display:inline;fill:#153E42;" points="192.3,277.9 200.1,273.6 210.3,279.3 202.4,283.8 	"/>
</g>
<g id="Item_x5F_2_x5F_Item_x5F_107" style="display:none;">
	<polygon style="display:inline;fill:#153E42;" points="202.5,289.1 210.3,284.7 220.5,290.5 212.6,295 	"/>
</g>
<g id="Item_x5F_2_x5F_Item_x5F_108" style="display:none;">
	<polygon style="display:inline;fill:#EABC9D;" points="202.4,283.8 202.4,289.1 210.3,284.7 210.3,279.3 	"/>
</g>
<g id="Item_x5F_2_x5F_Item_x5F_109" style="display:none;">
	<path style="display:inline;fill:#153E42;" d="M231.7,295.3c0.1,0,11.1-6.1,11.1-6.1l-7.6-4.4l-7.1,4L231.7,295.3z"/>
</g>
<g id="Item_x5F_2_x5F_Item_x5F_110" style="display:none;">
	<polygon style="display:inline;fill:#153E42;" points="212.9,289.2 221,284.7 231.5,290.7 223.4,295.3 	"/>
</g>
<g id="Item_x5F_2_x5F_Item_x5F_111" style="display:none;">
	<polygon style="display:inline;fill:#EABC9D;" points="235.3,284.7 235.3,280 242.8,284.2 242.8,289.1 	"/>
</g>
<g id="Item_x5F_2_x5F_Item_x5F_112" style="display:none;">
	<polygon style="display:inline;fill:#153E42;" points="235.3,280 245.2,274.6 252.9,278.8 242.8,284.2 	"/>
</g>
<g id="Item_x5F_2_x5F_Item_x5F_113" style="display:none;">
	<polygon style="display:inline;fill:#153E42;" points="245,279.5 255.1,273.8 262.6,278.2 252.6,283.7 	"/>
</g>
<g id="Item_x5F_2_x5F_Item_x5F_114" style="display:none;">
	<polygon style="display:inline;fill:#EABC9D;" points="255.1,273.8 255.1,269.1 262.6,273.3 262.6,278.2 	"/>
</g>
<g id="Item_x5F_2_x5F_Item_x5F_115" style="display:none;">
	<polygon style="display:inline;fill:#153E42;" points="255.1,269.1 265,263.7 272.7,267.8 262.6,273.3 	"/>
</g>
<g id="Item_x5F_2_x5F_Item_x5F_116" style="display:none;">
	<polygon style="display:inline;fill:#68E1FD;" points="192.5,249.3 196.6,251.3 196.6,273.6 221.2,287.7 247.3,273 247.3,255.5 
		210.4,242.2 	"/>
</g>
<g id="Item_x5F_2_x5F_Item_x5F_117" style="display:none;">
	<polygon style="display:inline;fill:#68E1FD;" points="196.6,273.6 221.2,287.7 221,260.3 209.1,242.9 192.5,249.3 196.6,251.3 	
		"/>
</g>
<g id="Item_x5F_2_x5F_Item_x5F_118" style="display:none;">
	<polygon style="display:inline;opacity:0.27;fill:#153E42;enable-background:new    ;" points="196.6,273.6 221.2,287.7 221,260.3 
		209.1,242.9 192.5,249.3 196.6,251.3 	"/>
</g>
<g id="Item_x5F_2_x5F_Item_x5F_119" style="display:none;">
	<path style="display:inline;fill:#153E42;" d="M234.7,228.3c0,0-8.2,7.2-16.7,6.5l-25.6,14.5L209,243L234.7,228.3z"/>
</g>
<g id="Item_x5F_2_x5F_Item_x5F_120" style="display:none;">
	<path style="display:inline;fill:#FFE7D4;" d="M226,267.6c0,0-12.2-11.5-16.9-24.6l25.6-14.7c0,0,8.5,16.6,16.9,24.8L226,267.6z"/>
</g>
<g id="Layer_7_x5F_Item_x5F_121" style="display:none;">
	<path style="display:inline;opacity:0.5;fill:#153E42;enable-background:new    ;" d="M161.7,216.9c-0.1-0.3-0.1-0.6-0.2-0.9
		c-0.9-4-4.6-19.9-11.1-19.5c1.9,8.4,4.8,17.3,3.2,25.9c-0.5,3-1.7,5.9-3.4,8.3c0.9,0,1.7,0.1,2.5,0.1c3.7,0,9-2.2,9.8-6.2
		C163.1,222.1,162.2,219.3,161.7,216.9z"/>
</g>
<g id="Layer_7_x5F_Item_x5F_122" style="display:none;">
	<path style="display:inline;fill:#2C9135;" d="M161.3,216.1c-1-4.5-5.6-24.3-13.8-18.5c-4.2,3-5.4,7.6-7,12.2
		c-1.5,3.8-2.4,7.7-2.6,11.8c-0.1,8.2,8.2,9.2,14.6,9.2c3.7,0,9-2.2,9.8-6.2c0.5-2.4-0.4-5.3-0.9-7.6
		C161.4,216.6,161.3,216.3,161.3,216.1z"/>
</g>
<g id="Layer_7_x5F_Item_x5F_123" style="display:none;">
	<path style="display:inline;fill:#BC532A;" d="M149.7,210h0.9c1,0,1.8,0.8,1.8,1.8V238c0,1-0.8,1.8-1.8,1.8h-0.9
		c-1,0-1.8-0.8-1.8-1.8v-26.2C147.9,210.8,148.7,210,149.7,210z"/>
</g>
<g id="Layer_7_x5F_Item_x5F_124" style="display:none;">
	<path style="display:inline;opacity:0.68;fill:none;enable-background:new    ;" d="M152.3,239.4l-2.4-3.1l-18.2,8.2
		c1.8,0.9,4.4,2.5,6.9,3.9C143.5,245.9,147.7,242.5,152.3,239.4z"/>
</g>
<g id="Layer_6_x5F_Item_x5F_125" style="display:none;">
	<path style="display:inline;opacity:0.5;fill:#153E42;enable-background:new    ;" d="M128.4,231.5c-0.1-0.4-0.2-0.8-0.3-1.2
		c-1.3-5.6-6.5-28.2-15.7-27.6c2.7,11.9,6.7,24.4,4.6,36.6c-0.7,4.2-2.3,8.3-4.8,11.8c1.2,0.1,2.4,0.1,3.6,0.1
		c5.2,0,12.7-3.1,13.9-8.8C130.4,238.9,129.1,234.9,128.4,231.5z"/>
</g>
<g id="Layer_6_x5F_Item_x5F_126" style="display:none;">
	<path style="display:inline;fill:#2C9135;" d="M127.8,230.3c-1.5-6.4-8-34.4-19.5-26.1c-5.9,4.2-7.6,10.8-10,17.2
		c-2,5.3-3.6,11-3.7,16.7c-0.2,11.6,11.7,13.1,20.7,13c5.2,0,12.7-3.1,13.9-8.8c0.7-3.4-0.5-7.5-1.2-10.8
		C128,231.1,127.9,230.7,127.8,230.3z"/>
</g>
<g id="Layer_6_x5F_Item_x5F_127" style="display:none;">
	<path style="display:inline;fill:#BC532A;" d="M111,221.7h2.3c1.1,0,2,0.9,2,2v38.1c0,1.1-0.9,2-2,2H111c-1.1,0-2-0.9-2-2v-38.1
		C108.9,222.6,109.8,221.7,111,221.7z"/>
</g>
<g id="Layer_6_x5F_Item_x5F_128" style="display:none;">
	<path style="display:inline;opacity:0.68;fill:none;enable-background:new    ;" d="M115.1,263.3l-3.4-4.4l-25.8,11.6
		c2.5,1.3,6.2,3.5,9.7,5.6C102.6,272.5,108.6,267.7,115.1,263.3z"/>
</g>
<g id="Layer_5_x5F_Item_x5F_129" style="display:none;">
	<path style="display:inline;opacity:0.68;fill:none;enable-background:new    ;" d="M392.2,278.5l-1.7-2.1l-12.7,5.7
		c1.2,0.6,3,1.7,4.8,2.7C386,282.9,389.2,280.8,392.2,278.5z"/>
</g>
<g id="Layer_5_x5F_Item_x5F_130" style="display:none;">
	<path style="display:inline;fill:#BC532A;" d="M390.5,258h0.7c0.7,0,1.2,0.6,1.2,1.2v18.3c0,0.7-0.6,1.2-1.2,1.2h-0.7
		c-0.7,0-1.2-0.6-1.2-1.2v-18.3C389.2,258.5,389.8,258,390.5,258z"/>
</g>
<g id="Layer_5_x5F_Item_x5F_131" style="display:none;">
	<path style="display:inline;fill:#2C9135;" d="M398.5,262.2c-0.7-3.1-3.9-16.9-9.6-12.9c-2.9,2.1-3.7,5.3-4.9,8.5
		c-1.1,2.6-1.7,5.4-1.8,8.2c-0.1,5.7,5.8,6.4,10.2,6.4c2.6,0,6.2-1.5,6.9-4.3c0.4-1.7-0.2-3.7-0.6-5.3
		C398.6,262.6,398.6,262.4,398.5,262.2z"/>
</g>
<g id="Layer_5_x5F_Item_x5F_132" style="display:none;">
	<path style="display:inline;opacity:0.5;fill:#153E42;enable-background:new    ;" d="M398.8,262.8c0-0.2-0.1-0.4-0.1-0.6
		c-0.6-2.8-3.2-13.9-7.8-13.6c1.4,5.9,3.3,12,2.3,18c-0.3,2.1-1.2,4.1-2.4,5.8c0.6,0,1.2,0,1.8,0c2.6,0,6.3-1.5,6.9-4.3
		C399.8,266.5,399.1,264.5,398.8,262.8z"/>
</g>
</svg>
