<?xml version='1.0' encoding='utf-8'?>
<svg xmlns:svg="http://www.w3.org/2000/svg" id="_0343_taxi_driver" viewBox="0 0 500 500" data-imageid="taxi-driver-25" imageName="Taxi Driver" class="illustrations_image" style="width: 180px;"><svg:style>.cls-1_taxi-driver-25{fill:url(#linear-gradient);}.cls-1_taxi-driver-25,.cls-2_taxi-driver-25,.cls-3_taxi-driver-25,.cls-4_taxi-driver-25,.cls-5_taxi-driver-25,.cls-6_taxi-driver-25,.cls-7_taxi-driver-25,.cls-8_taxi-driver-25,.cls-9_taxi-driver-25,.cls-10_taxi-driver-25,.cls-11_taxi-driver-25,.cls-12_taxi-driver-25,.cls-13_taxi-driver-25,.cls-14_taxi-driver-25,.cls-15_taxi-driver-25,.cls-16_taxi-driver-25,.cls-17_taxi-driver-25,.cls-18_taxi-driver-25,.cls-19_taxi-driver-25,.cls-20_taxi-driver-25,.cls-21_taxi-driver-25,.cls-22_taxi-driver-25,.cls-23_taxi-driver-25,.cls-24_taxi-driver-25{stroke-width:0px;}.cls-2_taxi-driver-25{opacity:.18;}.cls-2_taxi-driver-25,.cls-9_taxi-driver-25,.cls-10_taxi-driver-25,.cls-11_taxi-driver-25{isolation:isolate;}.cls-2_taxi-driver-25,.cls-10_taxi-driver-25,.cls-11_taxi-driver-25,.cls-24_taxi-driver-25{fill:#68e1fd;}.cls-3_taxi-driver-25{fill:url(#linear-gradient-11-taxi-driver-25);}.cls-4_taxi-driver-25{fill:url(#linear-gradient-12-taxi-driver-25);}.cls-5_taxi-driver-25{fill:url(#linear-gradient-13-taxi-driver-25);}.cls-6_taxi-driver-25{fill:url(#linear-gradient-10-taxi-driver-25);}.cls-7_taxi-driver-25{fill:url(#linear-gradient-15-taxi-driver-25);}.cls-8_taxi-driver-25{fill:url(#linear-gradient-14-taxi-driver-25);}.cls-9_taxi-driver-25{opacity:.2;}.cls-9_taxi-driver-25,.cls-22_taxi-driver-25{fill:#fff;}.cls-10_taxi-driver-25{opacity:.37;}.cls-11_taxi-driver-25{opacity:.74;}.cls-12_taxi-driver-25{fill:url(#linear-gradient-4-taxi-driver-25);}.cls-13_taxi-driver-25{fill:url(#linear-gradient-2-taxi-driver-25);}.cls-14_taxi-driver-25{fill:url(#linear-gradient-3-taxi-driver-25);}.cls-15_taxi-driver-25{fill:url(#linear-gradient-8-taxi-driver-25);}.cls-16_taxi-driver-25{fill:url(#linear-gradient-9-taxi-driver-25);}.cls-17_taxi-driver-25{fill:url(#linear-gradient-7-taxi-driver-25);}.cls-18_taxi-driver-25{fill:url(#linear-gradient-5-taxi-driver-25);}.cls-19_taxi-driver-25{fill:url(#linear-gradient-6-taxi-driver-25);}.cls-20_taxi-driver-25{fill:#090909;}.cls-21_taxi-driver-25{fill:#c14834;}.cls-23_taxi-driver-25{fill:#ffaa71;}</svg:style><svg:path class="cls-22_taxi-driver-25" d="M 236.81 124.89000000000001 L 236.81 138.33 L 236.8124076366639 138.37900857016479 L 236.8196073597984 138.42754516100808 L 236.8315298321339 138.47514233862725 L 236.84806023374435 138.52134171618255 L 236.86903936782582 138.56569836841302 L 236.89426519384872 138.6077851165098 L 236.92349477331862 138.64719664208184 L 236.95644660940673 138.6835533905933 L 236.99280335791818 138.7165052266814 L 237.0322148834902 138.7457348061513 L 237.074301631587 138.7709606321742 L 237.11865828381747 138.79193976625567 L 237.16485766137276 138.80847016786612 L 237.21245483899193 138.82039264020162 L 237.26099142983523 138.82759236333612 L 237.31 138.83 L 241.37 138.83 L 241.41900857016478 138.82759236333612 L 241.46754516100808 138.82039264020162 L 241.51514233862724 138.80847016786612 L 241.56134171618254 138.79193976625567 L 241.60569836841302 138.7709606321742 L 241.6477851165098 138.7457348061513 L 241.68719664208183 138.7165052266814 L 241.72355339059328 138.6835533905933 L 241.75650522668138 138.64719664208184 L 241.78573480615128 138.6077851165098 L 241.8109606321742 138.56569836841302 L 241.83193976625566 138.52134171618255 L 241.8484701678661 138.47514233862725 L 241.8603926402016 138.42754516100808 L 241.86759236333612 138.37900857016479 L 241.87 138.33 L 241.87 124.89000000000001 L 245.4 124.89000000000001 L 245.44900857016478 124.88759236333611 L 245.49754516100808 124.88039264020163 L 245.54514233862724 124.86847016786612 L 245.59134171618254 124.85193976625565 L 245.63569836841302 124.8309606321742 L 245.6777851165098 124.80573480615129 L 245.71719664208183 124.77650522668138 L 245.75355339059328 124.74355339059329 L 245.78650522668138 124.70719664208184 L 245.81573480615128 124.66778511650982 L 245.8409606321742 124.62569836841301 L 245.86193976625566 124.58134171618256 L 245.8784701678661 124.53514233862725 L 245.8903926402016 124.48754516100809 L 245.89759236333612 124.4390085701648 L 245.9 124.39000000000001 L 245.9 122.65000000000002 L 245.89759236333612 122.60099142983523 L 245.8903926402016 122.55245483899195 L 245.8784701678661 122.50485766137278 L 245.86193976625566 122.45865828381747 L 245.8409606321742 122.41430163158702 L 245.81573480615128 122.37221488349022 L 245.78650522668138 122.3328033579182 L 245.75355339059328 122.29644660940674 L 245.71719664208183 122.26349477331866 L 245.6777851165098 122.23426519384874 L 245.63569836841302 122.20903936782584 L 245.59134171618254 122.18806023374438 L 245.54514233862724 122.17152983213391 L 245.49754516100808 122.1596073597984 L 245.44900857016478 122.15240763666392 L 245.4 122.15000000000002 L 233.27 122.15000000000002 L 233.22099142983524 122.15240763666392 L 233.17245483899194 122.1596073597984 L 233.12485766137277 122.17152983213391 L 233.07865828381748 122.18806023374438 L 233.034301631587 122.20903936782584 L 232.99221488349022 122.23426519384874 L 232.95280335791819 122.26349477331866 L 232.91644660940673 122.29644660940674 L 232.88349477331863 122.3328033579182 L 232.85426519384873 122.37221488349022 L 232.82903936782583 122.41430163158702 L 232.80806023374436 122.45865828381747 L 232.7915298321339 122.50485766137278 L 232.7796073597984 122.55245483899195 L 232.7724076366639 122.60099142983523 L 232.77 122.65000000000002 L 232.77 124.39000000000001 L 232.7724076366639 124.4390085701648 L 232.7796073597984 124.48754516100809 L 232.7915298321339 124.53514233862725 L 232.80806023374436 124.58134171618256 L 232.82903936782583 124.62569836841301 L 232.85426519384873 124.66778511650982 L 232.88349477331863 124.70719664208184 L 232.91644660940673 124.74355339059329 L 232.95280335791819 124.77650522668138 L 232.99221488349022 124.80573480615129 L 233.034301631587 124.8309606321742 L 233.07865828381748 124.85193976625565 L 233.12485766137277 124.86847016786612 L 233.17245483899194 124.88039264020163 L 233.22099142983524 124.88759236333611 L 233.27 124.89000000000001 L 236.81 124.89000000000001 Z" id="element_16" /></svg>