<?xml version='1.0' encoding='utf-8'?>
<svg xmlns:svg="http://www.w3.org/2000/svg" version="1.1" id="Layer_1" x="0px" y="0px" viewBox="0 0 500 500" style="width: 188px;" xml:space="preserve" data-imageid="noodles-82" imageName="Noodles" class="illustrations_image"><svg:style type="text/css">
	.st0_noodles-82{fill:#55823D;}
	.st1_noodles-82{opacity:0.32;fill:url(#SVGID_1_);enable-background:new    ;}
	.st2_noodles-82{fill:#994F31;}
	.st3_noodles-82{opacity:0.32;fill:url(#SVGID_00000034052073941215362130000012509523182609799317_);enable-background:new    ;}
	.st4_noodles-82{fill:#68E1FD;}
	.st5_noodles-82{opacity:0.68;enable-background:new    ;}
	.st6_noodles-82{opacity:0.29;enable-background:new    ;}
	.st7_noodles-82{fill:#E28362;}
	.st8_noodles-82{fill:#FFFFFF;}
	.st9_noodles-82{fill:none;}
	.st10_noodles-82{fill:#FED337;}
	.st11_noodles-82{fill:#F4B322;}
	.st12_noodles-82{fill:#FFF2D4;}
</svg:style><svg:path class="st0_noodles-82" d="M 305.1308417911496 216.07773120562976 L 305.2531751031329 216.118745151348 L 305.3765069525091 216.16181674182263 L 305.500750461096 216.20687784607014 L 305.62582015453177 216.25385948604128 L 305.7516318666321 216.30269196812057 L 305.87810264682645 216.35330499525898 L 306.0051506716466 216.4056277624934 L 306.1326951609089 216.45958903826042 L 306.26065629884664 216.5151172335471 L 306.3889551603529 216.57214046067196 L 306.51751364235156 216.63058658324354 L 306.6462544000496 216.6903832585495 L 306.77510078803857 216.75145797356504 L 306.9039768058323 216.81373807545293 L 307.0328070477776 216.87715079746053 L 307.1615166568603 216.9416232808083 L 307.2900312822876 217.00708259323454 L 307.41827704050496 217.07345574466282 L 307.5461804793707 217.1406697004121 L 307.6736685453286 217.20865139235872 L 307.8006685531893 217.27732772827926 L 307.9271081584897 217.34662559973907 L 308.0529153320313 217.41647188864695 L 308.1780183365412 217.4867934727391 L 308.3023457052823 217.55751723015874 L 308.4258262222921 217.62857004318099 L 308.54838890435127 217.6998788013421 L 308.66996298427347 217.77137040392 L 308.79047789563555 217.84297176199158 L 308.90986325866527 217.91460980004388 L 309.0280488672631 217.98621145724846 L 309.1449646770223 218.05770368842792 L 309.2605407942374 218.12901346480865 L 309.3747074656611 218.2000677744988 L 309.4873950691374 218.27079362284812 L 309.5985341049708 218.3411180326747 L 309.70805518775285 218.41096804424214 L 309.81588903911825 218.48027071534193 L 309.9219664807123 218.5489531210758 L 310.0262184279161 218.6169423537283 L 310.1285758838662 218.68416552247297 L 310.2289699340964 218.7505497531605 L 310.3273317413033 218.8160221878932 L 310.42359254074245 218.8805099847496 L 310.5176836357897 218.9439403173753 L 310.60953639386906 219.00624037459895 L 310.69908224267607 219.06733736004503 L 310.78625266661334 219.12715849170795 L 310.8709792035301 219.1856310015647 L 310.9531934416678 219.24268213517655 L 311.0328270167679 219.29823915126292 L 311.1098116094517 219.3522293213352 L 311.18407894276663 219.40457992933082 L 311.25556077982185 219.4552182712022 L 311.3241889217276 219.50407165462184 L 311.38989520558255 219.55106739863197 L 311.45261150273444 219.59613283340698 L 311.5122697169716 219.63919529989192 L 311.56880178331477 219.68018214980412 L 311.6221396664869 219.71902074534302 L 311.6722153600456 219.75563845932479 L 311.7189608856128 219.78996267534285 L 311.762308292725 219.8219207883445 L 311.80218965928066 219.85144020562134 L 311.83853709324427 219.87844834871672 L 311.87128273692645 219.90287265726099 L 311.9003587754378 219.9246405959808 L 311.9256974556069 219.9436796696899 L 311.947231129738 219.95991745729944 L 311.9648923704442 219.9732817003006 L 311.9786143430363 219.98370058864109 L 311.98826301268065 219.99105112305287 L 311.9962429556936 219.99715445110724 L 312.03736652032734 220.02546874780063 L 312.0811089052523 220.0495405305867 L 312.1270339381825 220.06912977038272 L 312.17468368280197 220.0840411352808 L 312.2235830050256 220.09412593827798 L 312.2732443107454 220.09928361989205 L 312.3231724078202 220.09946275087918 L 312.37286944382896 220.09466154505483 L 312.4218398703501 220.0849278771045 L 312.4695953842669 220.07035880520658 L 312.5156597968276 220.05109960322778 L 312.559573781908 220.02734231214095 L 312.6008994561302 219.99932382511003 L 312.639224745168 219.96732352533652 L 312.67416749269944 219.93166050022117 L 312.70537927103595 219.8926903596197 L 312.73254885542985 219.8508016899191 L 312.7554053274171 219.80641217929193 L 312.77372077625046 219.75996445276567 L 312.78731257148564 219.71192165863678 L 312.79604518406063 219.66276285023952 L 312.7998315377085 219.6129782091192 L 312.79863387722827 219.56306415724202 L 312.79661367520816 219.53579142997035 L 312.7945934731879 219.50851870269656 L 312.79257327116767 219.4812459754238 L 312.79055306914756 219.45397324815218 L 312.7885328671273 219.4267005208784 L 312.78247226106674 219.34488233906126 L 312.78045205904647 219.31760961178747 L 312.77641165500614 219.263064157243 L 312.77439145298587 219.2357914299693 L 312.77035104894554 219.1812459754249 L 312.76833084692527 219.15397324815112 L 312.7622702408647 219.07215506633398 L 312.76025003884445 219.04488233906017 L 312.7582298368242 219.0176096117875 L 312.7562096348041 218.9903368845158 L 312.75418943278385 218.96306415724203 L 312.7501490287435 218.90851870269762 L 312.74812882672325 218.88124597542384 L 312.746108624703 218.85397324815108 L 312.7440884226828 218.8267005208784 L 312.7420682206627 218.79942779360672 L 312.7400480186424 218.77215506633294 L 312.7360076146021 218.71760961178853 L 312.7339874125818 218.69033688451475 L 312.7299470085415 218.63579142997028 L 312.7279268065212 218.60851870269659 L 312.7238864024809 218.55397324815218 L 312.7218662004606 218.5267005208784 L 312.7158055944001 218.4448823390612 L 312.7137853923798 218.4176096117875 L 312.7097449883395 218.3630641572431 L 312.7077247863192 218.3357914299693 L 312.7036843822789 218.2812459754249 L 312.7016641802586 218.2539732481511 L 312.6996439782384 218.22670052087835 L 312.69762377621817 218.19942779360568 L 312.69560357419806 218.172155066334 L 312.6935833721778 218.14488233906022 L 312.68954296813746 218.0903368845158 L 312.6875227661172 218.06306415724202 L 312.68348236207686 218.00851870269756 L 312.6814621600566 217.98124597542386 L 312.67540155399604 217.89942779360672 L 312.67338135197576 217.87215506633294 L 312.66934094793544 217.81760961178847 L 312.66732074591516 217.79033688451477 L 312.66328034187484 217.73579142997036 L 312.66126013985456 217.70851870269658 L 312.65721973581424 217.65397324815217 L 312.65519953379396 217.6267005208784 L 312.65317933177374 217.59942779360563 L 312.6511591297535 217.57215506633295 L 312.6491389277334 217.54488233906127 L 312.64711872571314 217.5176096117875 L 312.6430783216728 217.46306415724308 L 312.64105811965254 217.4357914299693 L 312.6390379176323 217.40851870269654 L 312.6370177156122 217.38124597542492 L 312.63499751359194 217.35397324815114 L 312.6289369075314 217.272155066334 L 312.6269167055111 217.2448823390602 L 312.6228763014708 217.19033688451574 L 312.6208560994505 217.16306415724205 L 312.6168156954102 217.10851870269764 L 312.6147954933899 217.08124597542385 L 312.6087348873294 216.9994277936067 L 312.6067146853091 216.9721550663329 L 312.6046944832889 216.94488233906023 L 312.6026742812688 216.91760961178855 L 312.60065407924867 216.89033688451693 L 312.59863387722856 216.86306415724414 L 312.59296402688307 216.81641490444267 L 312.5829397267152 216.77050397550389 L 312.568649523373 216.7257369108434 L 312.5502196450798 216.68250914689506 L 312.52781288663596 216.64120252314152 L 312.5016271714192 216.6021819092501 L 312.4718938030881 216.56579198210582 L 312.43887542243067 216.53235418121167 L 312.26339745120737 216.37060836883836 L 312.25968539283724 216.36722114409594 L 312.0847831204449 216.2092275771645 L 312.08102057831013 216.20586311105208 L 311.90671873939243 216.05157850393613 L 311.90290631940013 216.04823822235534 L 311.7292296486007 215.8976192894285 L 311.72536801101427 215.89430461438894 L 311.5523412429768 215.7473080700248 L 311.5484311024105 215.74402041718338 L 311.3760789717786 215.60060297575552 L 311.37212109705064 215.59734375192122 L 311.20046833846794 215.4574621278033 L 311.1964635523058 215.45423272841475 L 311.025534900416 215.31784363598035 L 311.02148407901313 215.31464544256593 L 310.8513042684599 215.1817055961887 L 310.8472083408824 215.1785399738196 L 310.67780210630934 215.0490060878731 L 310.67366205374947 215.04587438261703 L 310.5050541298002 214.9197031714749 L 310.50087098467895 214.916606707863 L 310.3330861059972 214.79375488589884 L 310.3288609509138 214.7906949644132 L 310.1619238521432 214.67111924600064 L 310.1576578186754 214.66809714059553 L 309.9915932344596 214.55175424010815 L 309.9872875018147 214.54877119577299 L 309.8221201667974 214.43561782758442 L 309.8177759603184 214.43267505795964 L 309.6535306091431 214.32266793644348 L 309.6491491986735 214.31976662149964 L 309.485850565984 214.21286246102952 L 309.481433264095 214.21000374481886 L 309.31910608453495 214.1061592597684 L 309.31465424462135 214.10334424825876 L 309.15332325283424 214.00251615300152 L 309.14883826708564 213.99974591200248 L 308.98852819771525 213.9018909209121 L 308.9840114949677 213.89916647410084 L 308.8247470826577 213.80424130155095 L 308.8202001261354 213.8015636286075 L 308.6620061055294 213.70952498897168 L 308.65743039048294 213.706895023831 L 308.50033149622453 213.61769963148288 L 308.49572854747714 213.61511826071066 L 308.3397495142101 213.52872283002384 L 308.33512088361715 213.52619089132276 L 308.180286445985 213.44255213667083 L 308.17563370982106 213.44007041752343 L 308.02196860246755 213.35914505328003 L 308.01729335874813 213.35671428973316 L 307.8648223163169 213.2784590302719 L 307.86012618206706 213.27607990586662 L 307.7088739392017 213.20045146556112 L 307.70415854768225 213.19812461041266 L 307.5541498390265 213.12507970363652 L 307.54941683692715 213.1228056936655 L 307.4006763971246 213.0523010347923 L 307.3959274417381 213.05008039111067 L 307.2484800054324 212.98207269451404 L 307.243716761818 212.9799058829655 L 307.0975870636528 212.9143518630191 L 307.0928112018027 212.9122392938752 L 306.94802397642167 212.84909566495256 L 306.94323716843786 212.84703769276229 L 306.7998171504846 212.78626116923706 L 306.79502106778176 212.78425809283087 L 306.6529929919 212.72580538907664 L 306.6481893024393 212.72385745171965 L 306.5075779032726 212.66768528211009 L 306.50276826884283 212.6657926718047 L 306.36359828103497 212.61185775071337 L 306.35878435458335 212.61002060064413 L 306.22108051277786 212.55827964244466 L 306.2162639358075 212.55649803156393 L 306.0800509746481 212.5069077506299 L 306.0752333746838 212.50518170437724 L 305.94053602881417 212.4576988150823 L 305.93571901695094 212.45602830623312 L 305.80256202101464 212.41060952295086 L 305.79774718955116 212.4089944725873 L 305.66615527819187 212.36559650969133 L 305.6613441983596 212.36403678828918 L 305.65409601640147 212.36172741930156 L 305.6607343851215 212.47535110016062 L 305.6614052325782 212.49108633969757 L 305.6678580888627 212.7312916784643 L 305.66803232761066 212.7471847879027 L 305.66683970554266 212.98899540504237 L 305.66650487520724 213.00499005147057 L 305.65751032816553 213.24843810201995 L 305.65665965426325 213.26447623633734 L 305.6397067356268 213.50959387533317 L 305.6383393363238 213.52561674151352 L 305.61327159947155 213.77243612399252 L 305.61139251797346 213.78838530100933 L 305.5780535162843 214.03693858200828 L 305.57567357624777 214.05275701527282 L 305.5339068631006 214.30307634982844 L 305.5310423547237 214.3187093296441 L 305.4806914834974 214.57082687279316 L 305.47736369753125 214.58622292110257 L 305.41827222160475 214.84017082788185 L 305.4145068565417 214.855282461054 L 305.34651832929393 215.11109288650016 L 305.34234480276757 215.1258772303629 L 305.2653027775774 215.38358232951276 L 305.2607534761663 215.39800157239497 L 305.1745015064127 215.65763350028524 L 305.171495034913 215.666410432523 L 305.0970679768618 215.87728656451944 L 305.0940252688297 215.88566863023362 L 305.03395653070993 216.04665574597814 L 305.1308417911496 216.07773120562976 Z" id="element_313" /></svg>