<?xml version='1.0' encoding='utf-8'?>
<svg xmlns:svg="http://www.w3.org/2000/svg" version="1.1" id="Layer_1" x="0px" y="0px" viewBox="0 0 500 500" style="width: 188px;" xml:space="preserve" data-imageid="noodles-82" imageName="Noodles" class="illustrations_image"><svg:style type="text/css">
	.st0_noodles-82{fill:#55823D;}
	.st1_noodles-82{opacity:0.32;fill:url(#SVGID_1_);enable-background:new    ;}
	.st2_noodles-82{fill:#994F31;}
	.st3_noodles-82{opacity:0.32;fill:url(#SVGID_00000034052073941215362130000012509523182609799317_);enable-background:new    ;}
	.st4_noodles-82{fill:#68E1FD;}
	.st5_noodles-82{opacity:0.68;enable-background:new    ;}
	.st6_noodles-82{opacity:0.29;enable-background:new    ;}
	.st7_noodles-82{fill:#E28362;}
	.st8_noodles-82{fill:#FFFFFF;}
	.st9_noodles-82{fill:none;}
	.st10_noodles-82{fill:#FED337;}
	.st11_noodles-82{fill:#F4B322;}
	.st12_noodles-82{fill:#FFF2D4;}
</svg:style><svg:path class="st10_noodles-82" d="M 289.042797684717 187.3451056361234 L 289.0416456568745 187.34477613928803 L 288.65826197823526 187.23561958033042 L 288.6571079872053 187.2352925131796 L 288.2734880927191 187.12706288499282 L 288.2723321425355 187.1267382578175 L 287.8884772689347 187.01943679713372 L 287.88731936372454 187.019114620245 L 287.5032307477412 186.91274256379643 L 287.5020708917252 186.91242284752514 L 287.11774977009156 186.80698143204393 L 287.11658796758513 186.80666418673968 L 286.7320355770334 186.70215464895801 L 286.7308718324465 186.70183988498877 L 286.3460894097087 186.59826346163888 L 286.34492372754744 186.59795118939013 L 285.95991250935595 186.49530911720413 L 285.9587448942221 186.4949993470782 L 285.573506117309 186.3932928627883 L 285.5723365739014 186.39298560520362 L 285.18687147499884 186.292215945542 L 285.18570000811354 186.2919112109326 L 284.8000098239538 186.19207961263146 L 284.79883643848484 186.19177741144583 L 284.4129224058001 186.09288511123734 L 284.41174710674 186.09258545393814 L 284.02561046226236 185.99463368855447 L 284.0244332547027 185.99433658561748 L 283.6380752351644 185.89732659179083 L 283.63689612429636 185.89703205370438 L 283.2503179664296 185.80096506816693 L 283.24913695754447 185.80067310543103 L 282.86233989808136 185.70555036491498 L 282.8611569965713 185.7052609880406 L 282.474142272244 185.61108372927808 L 282.4729574836024 185.61079694878632 L 282.08572633114323 185.51756640850957 L 282.0845396609651 185.51728223493097 L 281.6970933171061 185.42499964987215 L 281.6959047710891 185.42471809374587 L 281.30824447256254 185.33338470063714 L 281.30705405650684 185.33310577251004 L 280.9191810400449 185.2427228080836 L 280.9179887598543 185.24244651850952 L 280.5299042621892 185.15301521949758 L 280.5287101238714 185.1527415790366 L 280.14041538173524 185.0642631821713 L 280.13921939140215 185.06399220138871 L 279.7507156415271 184.97646794340227 L 279.74951780539584 184.97619963286795 L 279.3608062845141 184.8896307504925 L 279.35960660890686 184.8893651207799 L 278.9706885537507 184.80375285074768 L 278.96948704509566 184.80348991243307 L 278.58036369239716 184.71883549147623 L 278.57916035722906 184.71857525513772 L 278.18983294372043 184.63487991998844 L 278.1886277886805 184.63462239620526 L 277.7990975510939 184.55188738359575 L 277.79789058293096 184.55163258294732 L 277.40815875799865 184.46985912960974 L 277.4069499835692 184.46960706267467 L 277.0170178080233 184.3887964053412 L 277.0158072342919 184.3885470826965 L 276.62567594486467 184.30870045809937 L 276.62446357890474 184.30845389031958 L 276.2341344123282 184.2295725351909 L 276.232920261322 184.22932873284702 L 275.8423944543285 184.15141388391902 L 275.8411785255681 184.1511728575778 L 275.4504573148898 184.07422575158262 L 275.4492396157769 184.07398751180537 L 275.0583242381459 183.99800938547526 L 275.0571047761928 183.99777394281722 L 274.6659964683413 183.92276603288428 L 274.6647752511706 183.92253339789335 L 274.2734752498308 183.84849694108985 L 274.2722522851768 183.84826712430586 L 273.8807618270809 183.77520335736392 L 273.879537122789 183.77497636931764 L 273.48785744466915 183.70288652896946 L 273.4866310086966 183.70266238018152 L 273.094763347285 183.63154770315927 L 273.0935351877015 183.63132640413926 L 272.70148077973033 183.56118812717514 L 272.700250904718 183.56096968842067 L 272.3080109869195 183.4918090482469 L 272.3067794047736 183.49159348024247 L 271.91435521387984 183.42341171359115 L 271.9131219330086 183.4231990268073 L 271.52051470575185 183.35599737041068 L 271.51927973467735 183.35578757530286 L 271.12649070778974 183.28956726589308 L 271.1252540551478 183.2893603729007 L 270.7322844653616 183.22412264720995 L 270.73104613990233 183.22391866675534 L 270.3378972239496 183.1596647615158 L 270.33665723453754 183.1594637040032 L 269.94333022915055 183.0961948559471 L 269.94208858476514 183.0959967317615 L 269.54858472667604 183.03371417762096 L 269.5473414364117 183.03351899712732 L 269.1536619623527 182.97222397363456 L 269.15241703541915 182.9720317471764 L 268.7585631821224 182.9117254910636 L 268.75731662784494 182.91153622896235 L 268.3632896320426 182.85221997696166 L 268.36204145986227 182.85203368951517 L 267.9678425582866 182.79370867835883 L 267.9665927777607 182.79352537584066 L 267.86354392453785 182.77854437254337 L 267.9892689764141 183.03022708463945 L 267.99328779555464 183.03845997342023 L 268.1477894491686 183.3624662848768 L 268.15179523074363 183.3710763491211 L 268.30003963788 183.69779110405747 L 268.3040117275759 183.70677884598643 L 268.4457806050044 184.03628243199447 L 268.4496973311868 184.04564648733952 L 268.58477239567725 184.37801929201106 L 268.58861120235696 184.38775622077688 L 268.7167741706791 184.72307863170383 L 268.7205117854585 184.73318272128003 L 268.84154437438207 185.07153512605424 L 268.84515701191026 185.08199821380214 L 268.9588409382052 185.42346100001544 L 268.96230453837615 185.4342723229604 L 269.06842151881204 185.77892587820472 L 269.0717120174381 185.79007195767025 L 269.1700437687848 186.13799666953742 L 269.1731373968263 186.14946123841062 L 269.26346563585366 186.5007374944925 L 269.26633924156056 186.51250147421626 L 269.3484456850383 186.86720966210476 L 269.3510770716708 186.8792511954438 L 269.3997376009554 187.11587478283914 L 269.45816206930243 187.1330063897264 L 269.4611427457914 187.1338904763169 L 269.6896514838196 187.20244120140268 L 269.6925496065265 187.2033201897154 L 269.9207231901332 187.27327955275712 L 269.923540156892 187.27415234802334 L 270.1513575616301 187.3454752082963 L 270.15409473518173 187.34634077176378 L 270.38153493660417 187.41898198854335 L 270.38419364289115 187.41983933423475 L 270.6112356165508 187.49375376679626 L 270.61381714318316 187.49460195836917 L 270.84043986463297 187.56974446598795 L 270.842945459507 187.5705826136978 L 271.06912790429976 187.64690805564922 L 271.0715587743513 187.6477353134149 L 271.29727991804 187.72519854897425 L 271.2996372281163 187.7260141115464 L 271.52487604625384 187.804569999989 L 271.5271609180877 187.80537310021893 L 271.75189638622686 187.8849765008202 L 271.7541098974975 187.88576640702843 L 271.9783209911913 187.96637217906365 L 271.98046417465895 187.96714819250565 L 272.20412986946025 188.04871119525015 L 272.20620371215983 188.04947264767642 L 272.4293029836215 188.1319477404056 L 272.43130842610225 188.13269399171335 L 272.65382024977725 188.21603603370247 L 272.65575818537775 188.21676646967654 L 272.8776615368189 188.30093032020096 L 272.8795328109631 188.30164435033896 L 273.1008066657233 188.38658486867405 L 273.10261207522814 188.38728192409425 L 273.32323540886034 188.4729539695153 L 273.3249757012439 188.47363350094247 L 273.54492748930096 188.55999193272484 L 273.54660336207894 188.5606534085507 L 273.7658625801138 188.64765308596972 L 273.7674746800761 188.64829599038458 L 273.98602030364174 188.73589177271563 L 273.98951666673116 188.7373084904268 L 274.1385788630232 188.7983637939982 L 274.13961381501014 188.79878905928794 L 274.2898138049102 188.8607032733601 L 274.2907031716369 188.8610708825601 L 274.4420156021351 188.92378464398828 L 274.4427639659474 188.92409552573315 L 274.5951634840341 188.9875494713726 L 274.5957750025093 188.98780456230617 L 274.7492362551747 189.0519393290121 L 274.74971468863174 189.05213956821117 L 274.9045610593838 189.117042117541 L 275.0602918003269 189.18245377939604 L 275.21688426815354 189.24831611569599 L 275.3743272190749 189.31457560711084 L 275.5326337132689 189.38118904927074 L 275.6917313015691 189.44807733440854 L 275.851596327406 189.51518199399314 L 276.012204876478 189.58244455129804 L 276.1735327886648 189.64980652271882 L 276.335555668885 189.71720941957884 L 276.4982488967999 189.78459475030465 L 276.6615876353891 189.85190402291892 L 276.82554683880335 189.91907874796436 L 276.9901012593746 189.98606044176213 L 277.1552254537328 190.05279062994782 L 277.32089378847064 190.11921085143354 L 277.487080445112 190.18526266267014 L 277.6537594243991 190.25088764219825 L 277.8209045504416 190.31602739568712 L 277.98848947411864 190.38062356120824 L 278.1564876763366 190.44461781497236 L 278.3248724708818 190.50795187742165 L 278.4936170071509 190.57056751978058 L 278.6626942726341 190.63240657101557 L 278.8320770953025 190.6934109252579 L 279.001738146042 190.75352254973993 L 279.17164994101927 190.81268349320092 L 279.3417848442623 190.8708358948594 L 279.51211507035595 190.9279219939119 L 279.68261268752383 190.98388413964307 L 279.8532496209751 191.03866480209456 L 280.02399765684424 191.09220658338478 L 280.1948284466572 191.1444522296355 L 280.3657135125281 191.19534464354132 L 280.5366242532469 191.24482689759319 L 280.7075319512535 191.2928422479076 L 280.8784077808806 191.33933414871473 L 281.0492228177721 191.38424626740436 L 281.21994804985263 191.42752250014786 L 281.3905543899437 191.46910698801275 L 281.56101269021576 191.50894413349315 L 281.73129375871525 191.5469786173665 L 281.9013683781756 191.58315541575075 L 282.0712073273285 191.61741981720718 L 282.24078140491986 191.6497174396987 L 282.41006145670747 191.67999424719156 L 282.57901840561834 191.7081965656262 L 282.747623285293 191.7342710979535 L 282.9158472772081 191.7581649378775 L 283.0836617515748 191.77982558190192 L 283.2510383120957 191.79920093920975 L 283.41794884472586 191.81623933886866 L 283.58436557044297 191.83088953378635 L 283.7502611019797 191.84310070079243 L 283.9156085043975 191.85282243617635 L 284.08038135928007 191.86000474596858 L 284.24455383216724 191.86459803022015 L 284.408100742727 191.86655306052143 L 284.5709976370607 191.86582095000347 L 284.73322086123216 191.862353115088 L 284.89474763510674 191.85610122830926 L 285.05555612521886 191.847017161614 L 285.2156255153312 191.8350529196705 L 285.3749360730461 191.82016056288336 L 285.53346921078503 191.80229212001225 L 285.6912075391404 191.78139949055478 L 285.8481349106523 191.75743433733652 L 286.0042364518595 191.73034797009802 L 286.1594985815854 191.70009122122087 L 286.3139090133945 191.6666143151365 L 286.46745674035674 191.62986673335163 L 286.6201320005195 191.58979707740505 L 286.7719262217793 191.54635293244104 L 286.92283194531154 191.4994807343834 L 287.07284272725303 191.4491256439263 L 287.2219530189097 191.39523143069871 L 287.3701580264387 191.33774037097655 L 287.51745355163433 191.27659316220735 L 287.60589819672754 191.2374019361342 L 287.6307632739569 191.1423695333802 L 287.6324654555236 191.1360339484362 L 287.6719896640407 190.99268298136315 L 287.6737463797371 190.9864684327131 L 287.71513990894823 190.84356701778844 L 287.7169466839821 190.8374746885946 L 287.76018047068084 190.6950203523539 L 287.7620328982136 190.68905115424954 L 287.8070778791937 190.54704142322848 L 287.8089716326366 190.5411960094036 L 287.8557987446917 190.3996284101378 L 287.85772958862213 190.39390718896934 L 287.90630976854607 190.25277924799443 L 287.90827356826674 190.24718239707104 L 287.95857775285316 190.10649164092268 L 287.9605704826358 190.10101912131344 L 288.01256960867835 189.96076307652726 L 288.01458735873825 189.95541464716604 L 288.06825236303075 189.81559084027765 L 288.0702913452903 189.81036607234262 L 288.12559316462637 189.67097202988765 L 288.1276497173337 189.66587032106463 L 288.18455928850716 189.52690356957876 L 288.18662987977734 189.52192415811862 L 288.2451181395818 189.38338222413745 L 288.24719936993677 189.378524202619 L 288.30723725516594 189.24040461267816 L 288.3093258591469 189.23566694141098 L 288.3708843065945 189.09796722204612 L 288.3729771535246 189.09334874205013 L 288.4360270999844 188.95606641979688 L 288.43812119395756 188.95156586531257 L 288.5026335762232 188.81469846670657 L 288.50472605539653 188.8103144771939 L 288.5706718102618 188.67385952877078 L 288.57275994552174 188.6695906603721 L 288.64011000978024 188.53354568866752 L 288.6421912028574 188.52939042510837 L 288.710916513303 188.39375295665795 L 288.7129882943998 188.3897097195772 L 288.783059787826 188.25447728091655 L 288.78511981282605 188.25054443961253 L 288.8565084260267 188.11571455727727 L 288.858554473341 188.1118904378784 L 288.9312311431098 187.97746063840424 L 288.9332611102212 187.97374353246 L 289.00719677335184 187.8397113423825 L 289.00920867310924 187.83609951488648 L 289.08437426639546 187.70246246074132 L 289.08636622310235 187.69895415760365 L 289.16273268333777 187.56570976592644 L 289.1647029286859 187.56230322090218 L 289.2422411926644 187.42944901822858 L 289.2441880615464 187.42614245933052 L 289.2559466893995 187.40634576081584 L 289.042797684717 187.3451056361234 Z M 254.02756646647802 181.38185605336088 L 254.0262673260922 181.38178342313617 L 253.62670348030858 181.3599667460088 L 253.62540315379806 181.3598974447604 L 253.2257131613318 181.33911776756813 L 253.22441166258963 181.33905180386148 L 252.82459676017297 181.31931036333646 L 252.82329410320702 181.31924774566818 L 252.58684515339948 181.30819089655287 L 252.61333241715593 181.31301359031121 L 252.66000973664836 181.32629451747133 L 252.70517966509954 181.3440380443177 L 252.74841667374534 181.36607701581352 L 252.78931344312602 181.3922038111672 L 252.8274847002884 181.42217229974895 L 252.86257084829617 181.45570015979413 L 252.89424135385622 181.49247153804956 L 252.9221978611475 181.53214002530711 L 252.94617700251803 181.57433191979365 L 252.96595287957166 181.61864974767354 L 252.98133919127116 181.66467600749897 L 252.99219098900966 181.7119771033327 L 252.99840604211644 181.7601074294911 L 252.99992580093348 181.80861356842595 L 252.99673594838927 181.85703856219962 L 252.9888665348749 181.9049262173121 L 252.97639169515034 181.95182540232716 L 252.95942894994926 181.9972942978105 L 252.93813809886066 182.04090455854296 L 252.9165932083716 182.07594544866325 L 252.91684690197928 182.07611349172058 L 252.8286918075187 182.20920071534957 L 252.8274100055697 182.2111261555013 L 252.7386989999931 182.3437162127929 L 252.73739211886746 182.34565965191888 L 252.64812025524603 182.47774512248003 L 252.64678792764911 182.47970637756254 L 252.5569502590542 182.61127984100008 L 252.55559211623026 182.6132587191486 L 252.4651836957331 182.7443127550695 L 252.46379936773204 182.7463090532316 L 252.37281524840387 182.87683624124273 L 252.37140436436223 182.8788497459156 L 252.29758998290308 182.98364275175283 L 252.42157127394992 183.23268750285416 L 252.4241353587579 183.23791410228907 L 252.5908788058809 183.58286622529445 L 252.59348951129624 183.58835195604405 L 252.7559099610751 183.9350497265251 L 252.75855842123264 183.94079745690811 L 252.9164784025992 184.28930394820617 L 252.9191551720133 184.2953161270744 L 253.07239721389936 184.6456944125307 L 253.0750922696795 184.6519729901188 L 253.22347890101682 185.00428614307475 L 253.22618165233658 185.01083248854692 L 253.36953540205704 185.3651435823438 L 253.37223470782732 185.37195839886343 L 253.51037810486267 185.7283305068425 L 253.51306230051992 185.73541374519468 L 253.64581787380197 186.0939099406973 L 253.64847480804832 186.10126071271057 L 253.77566508650887 186.46194406907804 L 253.77828216872348 186.46956056230616 L 253.89972968129433 186.83249415287978 L 253.9022939401733 186.8403735482103 L 254.0178212157863 187.2056204463314 L 254.02031936955848 187.21375884037766 L 254.12974893714537 187.58138211938754 L 254.13216747545346 187.58977445367694 L 254.23532186394607 187.9598371869169 L 254.23764714117866 187.9684771860058 L 254.2603409264558 188.0559101130304 L 254.28093419419633 188.0428629094671 L 254.288611944799 188.03809523617477 L 254.49275582209867 187.91386971393885 L 254.5005195300816 187.9092409846131 L 254.7057158664686 187.78940338816085 L 254.7135573432609 187.7849183551027 L 254.91978511428817 187.6694235437095 L 254.92769592309264 187.66508649771765 L 255.1349341043131 187.55388933065885 L 255.14290560428378 187.54970407984655 L 255.35113317125024 187.44275941639742 L 255.35915656322493 187.43872926927298 L 255.56835249149034 187.33599196870895 L 255.57641886471163 187.33211972168607 L 255.78656212982887 187.23354464328239 L 255.7946625090822 187.22983257270891 L 256.0057320866042 187.13537457574097 L 256.0138574791954 187.1318244344609 L 256.225832344675 187.04143837820402 L 256.23397378669216 187.03805139658888 L 256.4468329156823 186.95169214031839 L 256.4549815170077 186.94846903163514 L 256.6687038850613 186.86609143462638 L 256.6768508726376 186.86303240454058 L 256.8914154553075 186.7845913260689 L 256.8995522142083 186.78169608602298 L 257.11493798704737 186.7071463853637 L 257.1230560989534 186.70441416951945 L 257.3392420375146 186.63371070594792 L 257.34733331625733 186.63114029133865 L 257.56429839609353 186.56423792413017 L 257.57235491999046 186.5618276536362 L 257.79007811665457 186.49868124206617 L 257.7980922574219 186.49642904980502 L 257.84294160851624 186.48422707042656 L 257.7806116132879 186.3565579056022 L 257.70025135416796 186.19755723804943 L 257.6174578876645 186.0390640086813 L 257.5322809951058 185.8810714772283 L 257.44477086390566 185.72357316108562 L 257.3549780800894 185.5665627925378 L 257.2629536183472 185.41003427895424 L 257.16874882998275 185.25398166588718 L 257.07241542923975 185.09839910321622 L 256.97400547827493 184.94328081412982 L 256.8735713711976 184.78862106701837 L 256.7711658174125 184.63441415007892 L 256.6668418245439 184.48065434853737 L 256.5606526811231 184.32733592428497 L 256.4526519393272 184.17445309791557 L 256.34289339779116 184.02200003280254 L 256.2314310847936 183.86997082128698 L 256.118319241722 183.718359472531 L 256.00361230714736 183.56715990220982 L 255.8873649013359 183.41636592355837 L 255.76963181144887 183.2659712398946 L 255.6504679773206 183.1159694382804 L 255.52992847793692 182.96635398431718 L 255.4080685185801 182.81711821788866 L 255.28494341864308 182.66825534973157 L 255.16060860013732 182.51975845876157 L 255.03511957685075 182.37162049001097 L 254.90853194420308 182.22383425315965 L 254.78090136965383 182.07639242142494 L 254.65228358382524 181.92928753094787 L 254.5227343721321 181.78251198038978 L 254.392309567051 181.6360580308551 L 254.2610650408634 181.4899178059228 L 254.1706587358142 181.39004260580361 L 254.02756646647802 181.38185605336088 Z M 162.05080332048544 204.9837197919968 L 162.0487659201362 204.98535065346474 L 161.75117260096343 205.2248397181757 L 161.74913000489312 205.22649236438468 L 161.45361996108187 205.46687434973148 L 161.4515722403548 205.46854908435165 L 161.15815474739645 205.70981966177158 L 161.1561019785469 205.71151679168165 L 160.86478631193282 205.95367163261213 L 160.86272857714332 205.95539146784193 L 160.57352401236483 206.1984262437203 L 160.57146139964684 206.20016909738774 L 160.28437721219532 206.44407947965138 L 160.28230981557465 206.44584566789257 L 159.99735528094152 206.69062732797877 L 159.99528320064644 206.69241716987196 L 159.71246759432302 206.93806577921816 L 159.71039093697632 206.93987959670056 L 159.429723534454 207.1863908267441 L 159.42764241326827 207.18822894452154 L 159.14913249003843 207.43559846669976 L 159.14704702501453 207.43746121214895 L 158.87070385656853 207.6856846978992 L 158.86861417469748 207.68757240096193 L 158.59444703652665 207.9366455217216 L 158.59235327199437 207.93855851479083 L 158.32037143959013 208.1884769419973 L 158.31827373398554 208.19041555979481 L 158.04848648283925 208.44117496488542 L 158.0463849853645 208.4431395443306 L 157.77880159096753 208.69473559874268 L 157.77669645865137 208.69672647881197 L 157.51132619649505 208.94915485398292 L 157.50921759440845 208.9511723755599 L 157.2460697399842 209.20442874292706 L 157.24395784145835 209.20647324864245 L 156.98304167025753 209.46055327964322 L 156.9809266571037 209.46262511370463 L 156.72225144461765 209.71752447977633 L 156.72013350734863 209.71962398778754 L 156.46370852906875 209.97533836036754 L 156.4615878671223 209.9774658891366 L 156.2074223985399 210.23399093966225 L 156.20529922050284 210.23614683699822 L 155.95340253710938 210.4934782369069 L 155.9512770609431 210.4956628514049 L 155.7016584382299 210.75379627213397 L 155.699530891496 210.75600995294815 L 155.45219960495442 211.01494106593498 L 155.45007022504063 211.01718416253902 L 155.20503555016208 211.27690863922095 L 155.20290458450825 211.27918150115553 L 154.96017579678403 211.53969501296993 L 154.95804350310698 211.54199798957754 L 154.71762987802853 211.80329620796178 L 154.71549652454647 211.8056296481071 L 154.47740733760511 212.06770824449853 L 154.47527320325983 212.07007249627605 L 154.23951772994698 212.33292714211203 L 154.23738310462448 212.33532255253843 L 154.00397062043146 212.59894891925632 L 154.00183580517975 212.60137583394908 L 153.77077558559796 212.86576959298623 L 153.7686408928418 212.86822835582691 L 153.53994221336256 213.13338517862073 L 153.53780796711416 213.13587613140353 L 153.31148010322892 213.40179168939133 L 153.30934663929472 213.40431517145572 L 153.08539886649478 213.67098513607488 L 153.08326653267648 213.67354148392332 L 152.86170812645324 213.94096152661118 L 152.8595772827436 213.9435510735103 L 152.64041751858844 214.21171686570426 L 152.63828853736032 214.21433994127014 L 152.42153669076458 214.48324715440754 L 152.41940995695253 214.48590408417513 L 152.2050753034076 214.75554838969333 L 152.20295121468158 214.7582394946689 L 151.9910430296788 215.02861656400526 L 151.9889219966087 215.0313421602028 L 151.77944955563947 215.30244766479467 L 151.77733200184997 215.30520806275527 L 151.57030458040566 215.57703767404004 L 151.56819094272024 215.57983317833518 L 151.3636178162922 215.8523825677502 L 151.3615085448654 215.85521347646807 L 151.159398988945 216.12847831545068 L 151.15729454738195 216.13134491966613 L 150.95765783746057 216.40532087965374 L 150.95555870292316 216.40822346288172 L 150.75840411449215 216.68290621531165 L 150.75631077778988 216.68584505294456 L 150.56164758634065 216.96123026925417 L 150.55956055200633 216.96420562798286 L 150.3673980330302 217.24028897960952 L 150.36531781937813 217.24330111682912 L 150.17566524836653 217.52007827521018 L 150.1735923875332 217.52312743840983 L 149.98645903997743 217.80059407498268 L 149.9843940779427 217.80368050112097 L 149.7997892293342 218.08183228732295 L 149.7977327259225 218.08495620218812 L 149.61566565175255 218.36378880945662 L 149.6136181806121 218.36695042701402 L 149.43409815637216 218.64645952678634 L 149.4320603049322 218.64965904851118 L 149.25509660611357 218.92984031222474 L 149.25306897551715 218.93307792642372 L 149.07867087761124 219.21392702551586 L 149.07665408262343 219.2172029066359 L 148.9048308611216 219.49871551254398 L 148.90282553001106 219.50202982047114 L 148.7335864604047 219.7842016046325 L 148.73159323479817 219.78755448398044 L 148.5649475925786 220.07038111783248 L 148.5629671272866 220.0737726972228 L 148.39892418794523 220.35724985220287 L 148.39695715075823 220.36068024353727 L 148.2355261897864 220.64480359108273 L 148.23357326123985 220.6482728888095 L 148.07476355412894 220.93303810035766 L 148.0728254272364 220.93654638073343 L 147.91664624947782 221.22194912772176 L 147.9147236294315 221.2254964480692 L 147.76118425651654 221.51153240193497 L 147.7592778603529 221.51511879990002 L 147.60838756777298 221.80178363208063 L 147.60649812400433 221.80540912488834 L 147.4582661872508 222.0926985068211 L 147.45639443546014 222.09636309053442 L 147.3108301300244 222.38427269365678 L 147.30897682042425 222.3879763424381 L 147.16608942179764 222.67650183818733 L 147.1642553147505 222.6802445035668 L 147.0240540984244 222.96938156338032 L 147.02223996392607 222.97316317353096 L 146.88473420539185 223.2629074688461 L 146.88294082251517 223.2667279278694 L 146.74813979726417 223.55707513012356 L 146.74636795356386 223.56093431734766 L 146.6142809370875 223.85188009797818 L 146.61253142796548 223.85577786726998 L 146.4831676957551 224.14731789771417 L 146.48144132378573 224.15125407680952 L 146.3548101513327 224.44338402850482 L 146.35310772554854 224.44735841835745 L 146.2292183883442 224.7400739627412 L 146.2275407234812 224.7440863368949 L 146.106402497017 225.03738314540445 L 146.10475041272073 225.0414332493891 L 145.98637257248797 225.33530699346178 L 145.9847468924797 225.33939454421818 L 145.8691387139698 225.6338408952914 L 145.86754026517434 225.63796558062546 L 145.75471102387863 225.93298021013658 L 145.75314063551343 225.9371416882075 L 145.64309960692327 226.23272026759386 L 145.64155810955037 226.23691816643793 L 145.53431456915715 226.53305636713688 L 145.53280279369864 226.53729028422998 L 145.42836601699372 226.83398377767892 L 145.4145048387854 226.88044060707185 L 145.40520803218547 226.92802147135163 L 145.4005630009077 226.97627904011546 L 145.40061341510696 227.02475962093888 L 145.40535880081532 227.07300742475465 L 145.414754544398 227.12056885094327 L 145.4287123119875 227.1669967518487 L 145.46519848789836 227.2699657335749 L 145.46561663996314 227.27114115575202 L 145.50234830721212 227.3739870826261 L 145.5027708761109 227.375165583812 L 145.53974865306418 227.47788783746782 L 145.54017566755158 227.4790694002472 L 145.5774001725753 227.58166736231868 L 145.57783166137483 227.5828519688765 L 145.61530351283506 227.68532502099757 L 145.61573950463472 227.6865126531166 L 145.65345932089755 227.7888601769211 L 145.6538998443445 227.79005081597757 L 145.69186824377599 227.89227219309947 L 145.6923133274723 227.8934658200618 L 145.7305309284386 227.995560432135 L 145.7309806009355 227.99675702755874 L 145.7694480218027 228.09872425621714 L 145.769902311596 228.0999238002435 L 145.80862017073014 228.20176302712096 L 145.80907910625518 228.20296549947372 L 145.8480480220224 228.30467610620423 L 145.84851163164834 228.30588148618605 L 145.88773222241468 228.4074628544035 L 145.88820053443982 228.40867112089444 L 145.9276734185714 228.51012263223268 L 145.9281464612172 228.5113337636863 L 145.96787225708013 228.6126547997793 L 145.96835005848632 228.61386877422075 L 146.00832938444668 228.7150587167024 L 146.0088119726653 228.7162755117253 L 146.04904544708918 228.81733374222952 L 146.0495328500793 228.81855333499382 L 146.09002109133274 228.91947923515448 L 146.09051333695461 228.92070160238387 L 146.13125696340379 229.02149455383494 L 146.13175407941316 229.0227196718143 L 146.17275370942411 229.1233790561896 L 146.17325572346638 229.12460690076253 L 146.21451197540523 229.22513209969605 L 146.21501891500947 229.22636264626283 L 146.25653240724225 229.32675304138846 L 146.25704429981565 229.32798626490433 L 146.29881565070852 229.42824123785596 L 146.29933252352964 229.42947711282764 L 146.34136235144868 229.5295960452392 L 146.34188423166196 229.53083454572402 L 146.38417315497324 229.6308168192294 L 146.38470006958252 229.63205791883288 L 146.4272487066521 229.731902915066 L 146.42778068251454 229.73314658694028 L 146.47058965170856 229.83285368753505 L 146.47112671552813 229.83409990437644 L 146.5141966352127 229.93366849096677 L 146.51473881353377 229.9349172250143 L 146.55807030207492 230.03434667923406 L 146.55861762127617 230.0355979022684 L 146.60221129704004 230.13488760575154 L 146.60276378332748 230.13614128909245 L 146.6466202646801 230.23529062347288 L 146.64717794408088 230.23654673797887 L 146.69129784938843 230.3355550848905 L 146.6918607477437 230.33681360095616 L 146.73624469537222 230.4356803420329 L 146.73681283833105 230.43694122958897 L 146.78146144664663 230.53566574646467 L 146.78203485965858 230.53692897497567 L 146.8269487470273 230.63551064928433 L 146.8275274553363 230.63677618774886 L 146.8727072401243 230.73521440112432 L 146.87329126876097 230.73648221807244 L 146.9187375693343 230.83477635214862 L 146.91932694310958 230.83604641564236 L 146.96504037783436 230.93419585205322 L 146.96563512133233 230.93546812968512 L 147.0116163085746 231.0334722500645 L 147.0122164461455 231.0347467089576 L 147.0584660042714 231.13260489493945 L 147.05907156002408 231.13388150174558 L 147.10559010739968 231.2315931349638 L 147.10620110519528 231.23287185586474 L 147.1529892601867 231.33043631795323 L 147.1536057236305 231.33171711865893 L 147.2006641046038 231.42913379125162 L 147.20128605703874 231.43041663700123 L 147.24861528236 231.52768490173202 L 147.24924274685907 231.52896975729328 L 147.2968434348944 231.62608899579604 L 147.29747643425296 231.62737582546484 L 147.34534920336847 231.72434541937352 L 147.3459877600974 231.72563418697516 L 147.39413322865914 231.82245351792366 L 147.39477736497724 231.82374418681255 L 147.44319615135134 231.92041263643478 L 147.44384588917774 231.92170516949483 L 147.49253861173025 232.0182221194247 L 147.4931939726772 232.01951647907052 L 147.54216124977427 232.11588131094192 L 147.54282225513904 232.11717745911838 L 147.59206470514673 232.21338955456525 L 147.59273137590478 232.2146874527496 L 147.64224961718915 232.31074619340583 L 147.6429219739862 232.31204580260822 L 147.6927166249134 232.40795057010772 L 147.69339468805757 232.40925185087164 L 147.74346636699366 232.50500202684833 L 147.74415015644828 232.50630493925306 L 147.79449948175935 232.60189990534084 L 147.79518901713516 232.6032044090023 L 147.8458166071873 232.69864354683506 L 147.84651190773462 232.69994960090708 L 147.89741838089392 232.79523229211875 L 147.89811946549526 232.7965398552954 L 147.94930544012783 232.8916654815199 L 147.95001232728987 232.89297451203683 L 148.0014784217618 232.98794245490805 L 148.0021911296079 232.98925291054476 L 148.05393796228523 233.0840625516966 L 148.05465650854782 233.08537438977882 L 148.1066846977967 233.18002511084524 L 148.10740909980933 233.18133828824674 L 148.15971926399584 233.27582947086157 L 148.16044953868547 233.27714394400675 L 148.21304229617567 233.37147496980396 L 148.21377846005532 233.3727906946712 L 148.26665442921535 233.46696094528468 L 148.26739649837594 233.468277877408 L 148.32055629757187 233.56228673447166 L 148.3213042876748 233.56360482894436 L 148.3747485352727 233.6574516740921 L 148.3755024615423 233.6587708855701 L 148.4292317759083 233.75245510043584 L 148.42999165312375 233.75377538314015 L 148.48400665262392 233.84729634935778 L 148.48477249511197 233.84861765707848 L 148.53907379811238 233.94197475628192 L 148.53984561973968 233.94329704238194 L 148.59443384460644 234.0364896562051 L 148.59521165877183 234.0378128736235 L 148.65008742387104 234.1308403837003 L 148.6508712434981 234.13216448495646 L 148.70603516719584 234.2250262729208 L 148.7068250047254 234.22635121011862 L 148.7622777053878 234.3190466576044 L 148.76307357277014 234.32037238243603 L 148.81881566876322 234.41290087107717 L 148.81961757745128 234.41422733482858 L 148.8756496871412 234.50658824625899 L 148.87645764808244 234.50791539981324 L 148.93278038983524 234.6001081156668 L 148.93359441346476 234.6014359095097 L 148.99020840564654 234.69345981142033 L 148.9910285018797 234.6947881956452 L 149.04793436285658 234.78664266524686 L 149.04876054108166 234.78797158955948 L 149.10595888921972 234.87965600848602 L 149.1067911582908 234.8809854222101 L 149.1642826119561 234.97249917209544 L 149.16512098018597 234.97382902417797 L 149.22290615774463 235.06517148665603 L 149.22375063289778 235.0665017256732 L 149.2818301527159 235.1576722823779 L 149.2826807420013 235.1590028565403 L 149.34105522244496 235.2500008891055 L 149.34191193250945 235.25133174626478 L 149.40058199194473 235.34215663632446 L 149.4014448288662 235.34348772397922 L 149.46041108565922 235.43413885316724 L 149.46128005493964 235.43547011846914 L 149.52054312745645 235.5259468684194 L 149.5214182340153 235.52727825817988 L 149.58097874062202 235.61758001052632 L 149.58185998879006 235.61891147122353 L 149.6417185478528 235.70903760760007 L 149.64260594136493 235.71036908538483 L 149.70276317124973 235.80031898742533 L 149.7036567132395 235.80165042812936 L 149.7641132323125 235.89142347746775 L 149.76501292530494 235.89275482660955 L 149.8257693519322 235.98235040487975 L 149.8266751978385 235.9836816076731 L 149.8877321503861 236.07309909650903 L 149.88864415049719 236.07443009786988 L 149.95000224733127 236.1636688789054 L 149.95092040231154 236.16499962345924 L 150.01258026179815 236.2540590783283 L 150.01350457168047 236.2553895104189 L 150.0754668121857 236.3442690207554 L 150.07639727636519 236.34559908445212 L 150.13866251625518 236.43429803188997 L 150.13959913348347 236.4356276709957 L 150.20216799112424 236.5241454371688 L 150.20311075950502 236.52547459522953 L 150.26598385326272 236.6138105617718 L 150.26693277024518 236.6151391820834 L 150.33011071848588 236.70329273062876 L 150.3310657808606 236.70462075624687 L 150.39454920195038 236.7925912684292 L 150.42490662742455 236.8306130091966 L 150.45881577611325 236.86550420704953 L 150.4959555655358 236.89693448057767 L 150.53597432258377 236.9246062195317 L 150.57849311348005 236.94825740286623 L 150.62310933186657 236.96766407979175 L 150.6694005110452 236.98264249034344 L 150.7169283242746 236.99305080538656 L 150.76524273524396 236.998790469583 L 150.81388625942387 236.99980713460232 L 150.86239829594348 236.9960911737408 L 150.87218633450007 236.99437271297452 L 150.86563918341545 236.98504362100542 L 150.86505008982462 236.98420238042894 L 150.81893152224904 236.9181997358833 L 150.81834153345096 236.91735351473645 L 150.77234231053103 236.85123152553516 L 150.77175146361424 236.85038032738817 L 150.725872203716 236.7841383751652 L 150.72528053595053 236.78328220393317 L 150.6795218574401 236.7169196703224 L 150.67892940627598 236.71605853027194 L 150.63329192751942 236.64957479690727 L 150.63269873058144 236.64870869265812 L 150.58718306994487 236.58210314117346 L 150.56134782907242 236.5399672330561 L 150.53979891196934 236.4954864664766 L 150.52274688555343 236.44909548870157 L 150.51035837502565 236.40124761277465 L 150.5027544356791 236.35241038793308 L 150.50000936999794 236.30306103091377 L 150.50215000160475 236.25368176279306 L 150.50915541315146 236.2047550969259 L 150.52095715071485 236.15675912402924 L 150.53743989269938 236.11016284048125 L 150.55844257671112 236.06542156548696 L 150.58375997339147 236.02297249189112 L 150.61314469183165 235.9832304141145 L 150.64630959697246 235.94658367495785 L 150.6829306153665 235.9133903708801 L 150.72264990188737 235.88397485283102 L 150.76487937019354 235.85873104636798 L 150.80938534956772 235.83775974316308 L 150.85573691927473 235.8212639938967 L 150.9034852889999 235.80940351554395 L 150.98012582623306 235.7943260750479 L 151.05456833872734 235.77902257086922 L 151.12890107161718 235.7630840513382 L 151.20311974943684 235.74651322951294 L 151.27722008542386 235.72931282557244 L 151.35119778197836 235.71148556702593 L 151.42504853105916 235.69303418892017 L 151.49876801462378 235.67396143402084 L 151.57235190502868 235.65427005298773 L 151.64579586547904 235.63396280452176 L 151.71909555039628 235.61304245551918 L 151.7922466058733 235.59151178118697 L 151.86524467003966 235.5693735651693 L 151.93808537349304 235.54663059964074 L 152.0107643396621 235.523285685407 L 152.0832771852282 235.4993416319736 L 152.15561952048077 235.47480125762343 L 152.22778694972635 235.44966738946349 L 152.29977507162644 235.42394286348423 L 152.371579479599 235.39763052458454 L 152.44319576215096 235.37073322661 L 152.514619503253 235.34325383236472 L 152.58584628268363 235.3151952136232 L 152.65687167636716 235.286560251135 L 152.72769125671536 235.25735183461686 L 152.79830059296452 235.2275728627374 L 152.86869525147813 235.19722624310623 L 152.93887079609937 235.16631489223283 L 153.00882278844023 235.1348417355034 L 153.07854678818777 235.10280970714174 L 153.14803835341922 235.07022175015814 L 153.21729304089877 235.03708081629733 L 153.28630640633696 235.0033898659969 L 153.35507400472494 234.96915186830222 L 153.42359139056254 234.93436980082507 L 153.49185411816796 234.89904664965502 L 153.55985774193414 234.86318540929037 L 153.62759781658238 234.8267890825638 L 153.6950698974373 234.78986068055036 L 153.7622695406654 234.75240322248823 L 153.8291923035439 234.71441973567647 L 153.89583374467426 234.67591325539786 L 153.9621894242466 234.63688682480694 L 154.02825490427773 234.59734349482667 L 154.09402574882265 234.55728632405544 L 154.15949752420767 234.51671837865604 L 154.22466579927672 234.47564273223023 L 154.2895261455733 234.43406246572798 L 154.35407413759353 234.391980667307 L 154.41830535297092 234.34940043223037 L 154.48221537269865 234.30632486273473 L 154.54579978134785 234.26275706789576 L 154.6090541672382 234.21870016352088 L 154.67197412267208 234.17415727199338 L 154.73455524411625 234.12913152214784 L 154.7967931323957 234.0836260491319 L 154.85868339289408 234.0376439942585 L 154.920221635728 233.99118850487173 L 154.98140347596117 233.94426273417858 L 155.042224533758 233.89686984112018 L 155.1026804345978 233.84901299019256 L 155.16276680941598 233.80069535131804 L 155.22247929483322 233.75192009964243 L 155.28181353328205 233.70269041540809 L 155.34076517321589 233.65300948375545 L 155.39932986925686 233.60288049456852 L 155.45750328239293 233.55230664227352 L 155.51528108011652 233.50129112568106 L 155.57265893660625 233.44983714778544 L 155.6296325328945 233.3979479155696 L 155.68619755701963 233.34562663981683 L 155.74234970419283 233.2928765349031 L 155.79808467693923 233.23970081860602 L 155.8533981852892 233.18610271185898 L 155.90828594688463 233.13208543857877 L 155.96274368716536 233.0776522254088 L 156.01676713950948 233.02280630149784 L 156.0703520453598 232.96755089828514 L 156.12349415438567 232.91188924924134 L 156.17618922462785 232.85582458961625 L 156.2284330226086 232.7993601562143 L 156.2802213234927 232.74249918710606 L 156.33154991119187 232.6852449213901 L 156.38241457852166 232.62760059888637 L 156.43281112729133 232.569569459893 L 156.4827353684419 232.51115474487705 L 156.53218312215236 232.4523596941892 L 156.58115021795206 232.3931875477586 L 156.62963249481822 232.33364154479167 L 156.6776258012855 232.2737249234427 L 156.72512599551612 232.21344092051785 L 156.77212894542447 232.15279277109678 L 156.81863052871495 232.09178370824657 L 156.86462663297993 232.03041696264413 L 156.91011315576586 231.9686957622212 L 156.9550860046272 231.90662333180748 L 156.99954109717015 231.84420289277017 L 157.04347436110905 231.78143766261564 L 157.08804439570673 231.7166405461405 L 157.0910446937828 231.71232734311897 L 157.16389318515044 231.60876596395374 L 157.2331195118497 231.50729997997664 L 157.30084535988928 231.40496819640416 L 157.3671030321951 231.30177938781497 L 157.43192446840052 231.19774260684358 L 157.4953412721319 231.0928672020091 L 157.5573847392135 230.98716283213997 L 157.61808588641233 230.88063947748478 L 157.67747548039108 230.7733074476043 L 157.73558406653325 230.66517738622863 L 157.792441997343 230.5562602732883 L 157.84807946019484 230.4465674242778 L 157.9025265041847 230.3361104872342 L 157.95581306591242 230.22490143754567 L 158.0079689940607 230.11295257080172 L 158.05902407260774 230.00027649402662 L 158.10900804265947 229.88688611538527 L 158.1579506227666 229.77279463275914 L 158.20588152776867 229.65801552125507 L 158.2528304860976 229.5425625199873 L 158.29882725558826 229.42644961824848 L 158.34390163781796 229.3096910412645 L 158.38808349101467 229.19230123570617 L 158.43140274159038 229.07429485510426 L 158.47388939436237 228.95568674530597 L 158.5155735415581 228.83649193002208 L 158.5564853706369 228.71672559668895 L 158.59665517104904 228.5964030826182 L 158.63611334001195 228.4755398615141 L 158.67489038734698 228.3541515305323 L 158.71301693951344 228.23225379776974 L 158.75052374288907 228.10986247031272 L 158.7874416663702 227.98699344289116 L 158.82380170339042 227.8636626870827 L 158.8596349734093 227.73988624114273 L 158.894972722947 227.61568020044203 L 158.9298463262254 227.49106070852142 L 158.964287285484 227.3660439487308 L 158.99832723100073 227.24064613653266 L 159.03199792090084 227.11488351234476 L 159.0653312407758 226.9887723350001 L 159.09835920316027 226.8623288757891 L 159.13111394691816 226.73556941302004 L 159.16362773654978 226.60851022716932 L 159.19593296144558 226.4811675966276 L 159.22806213517777 226.3535577937735 L 159.2600478947452 226.22569708178514 L 159.29192299987716 226.09760171184178 L 159.3237203323991 225.9692879207525 L 159.35547289562476 225.840771929204 L 159.38721381382138 225.71206994047327 L 159.4189838085929 225.58316781971564 L 159.4508176779821 225.4540760871225 L 159.48274009173974 225.32484688983976 L 159.51478471436062 225.1954963477883 L 159.546838029885 225.0666312247695 L 159.54698532996187 225.0660405640962 L 159.57919447374127 224.9372187267038 L 159.5793758422992 224.93649562670376 L 159.59385212232456 224.8789618066232 L 158.94561457845145 223.38475224711289 L 158.4617931838142 221.50153252239346 L 158.3 219.6 L 158.4617931838142 217.69846747760653 L 158.70546568350196 216.75 L 158.4617931838142 215.80153252239347 L 158.3 213.9 L 158.4617931838142 211.99846747760654 L 158.94561457845145 210.11524775288711 L 159.7468047193978 208.26847726126343 L 160.85764770762077 206.47594141211727 L 162.13477724931633 204.91686067569586 L 162.05080332048544 204.9837197919968 Z M 203.10942178623273 195.49598155371027 L 203.10815298924672 195.49752564845596 L 203.01063884659962 195.61571562304903 L 204.75816332746703 195.97673706928106 L 207.73893035735352 196.79072747164193 L 210.56715982945863 197.76948952133063 L 213.2156143478985 198.90359720476292 L 214.9666606002616 199.81993300193037 L 215.17855017974864 199.72955826289632 L 215.1875670555766 199.72581601779584 L 215.4103088083765 199.635911153419 L 215.41942322111413 199.63233568917806 L 215.6453495592841 199.54625047214702 L 215.65454860376025 199.54284828364575 L 215.88370652312327 199.4606420771053 L 215.89297692876045 199.45741882935155 L 216.12541342513939 199.37915099644644 L 216.1347416500901 199.37611148849712 L 216.37050371930795 199.3018413923721 L 216.37987604750862 199.2989895316207 L 216.61901068538828 199.22877653542056 L 216.62841332490464 199.22611532258415 L 216.87096752726907 199.16001878945363 L 216.88038670829727 199.15755031434313 L 217.12640747096938 199.095629607427 L 217.13582954189198 199.09335505533673 L 217.38536386069472 199.03566953777977 L 217.39477538067808 199.03358920609548 L 217.64787025143443 198.98019824104244 L 217.65725807817466 198.97831156545212 L 217.91396049670752 198.92927451604777 L 217.9233118680949 198.9275801055484 L 218.1836688302272 198.8829563349375 L 218.19297143888429 198.88145201467714 L 218.45702994043896 198.8413008860044 L 218.46627200029477 198.83998374687647 L 218.73407903709472 198.8043646232867 L 218.7668210467 198.80110205747266 L 218.85473003145623 198.7952557152627 L 218.85717289351757 198.79509925925672 L 218.94514062305248 198.78968144474797 L 218.94758163911553 198.78953709656722 L 219.03560563996476 198.78454780975977 L 219.0380448404648 198.78441553025493 L 219.12612263916398 198.7798547711487 L 219.12856005498878 198.77973452268196 L 219.21668917807352 198.775602291277 L 219.21912484053053 198.77549403772247 L 219.30730281453648 198.77179033401876 L 219.30973675532604 198.77169404076196 L 219.39796110678884 198.76841886475952 L 219.40039335797343 198.76833449869696 L 219.4886616134287 198.76548785039574 L 219.4910922074064 198.76541537993407 L 219.57940189338981 198.76299725933413 L 219.58183086286374 198.76293665438894 L 219.67017950591088 198.76094706149027 L 219.67260688386202 198.7608982934848 L 219.76099201050855 198.75933722828736 L 219.76341783016815 198.75930027015085 L 219.8518369669497 198.75816773265467 L 219.854261261771 198.7581425588204 L 219.94271193522323 198.75743854902547 L 219.9451347388543 198.75742513542866 L 220.0336144755128 198.757149653335 L 220.03603582176856 198.7571479774105 L 220.12454214816898 198.7573010230181 L 220.12696207100507 198.75731106369756 L 220.21549251368305 198.7578926370064 L 220.21791104716846 198.75791437471563 L 220.30646313265964 198.75892447572573 L 220.30888031094946 198.7589578923815 L 220.39745156578945 198.76039652109284 L 220.39986742309947 198.76044160009957 L 220.48845537382394 198.7623087565122 L 220.49086994440276 198.7623654827585 L 220.5794721175473 198.76466116687234 L 220.58188543565214 198.7647295267272 L 220.67049935775245 198.76745373854232 L 220.6729114576207 198.7675337198512 L 220.71336195171926 198.76897273214897 L 220.67637596393786 198.7222393869863 L 220.66974410583012 198.71367057075344 L 220.5617525485885 198.5709699186864 L 220.55541077193158 198.5624015500695 L 220.45078745478912 198.41784765482691 L 220.44473259904265 198.40929460093423 L 220.3434286710782 198.26296537664356 L 220.33765656455645 198.25444164002005 L 220.23962317484873 198.10641500080885 L 220.23412874564153 198.0979336748213 L 220.13931704326936 197.948287534817 L 220.13409443024972 197.93986077390298 L 220.0424555642919 197.78867304723317 L 220.03749822632838 197.78031205089164 L 219.9489833458637 197.62766065168375 L 219.9442841676457 197.61937566092158 L 219.85884442175293 197.46533850330314 L 219.85439581492412 197.45713880814287 L 219.77198235268204 197.30179380624142 L 219.76777635125904 197.29368776284562 L 219.6883403217465 197.1371128307886 L 219.6843686710681 197.12910788675453 L 219.60786122336384 196.97138093866945 L 219.60411546205682 196.9634836650808 L 219.53048774523964 196.80468261509517 L 219.52695927990825 196.7968987439914 L 219.45616244305694 196.6371015062327 L 219.45284261558905 196.62943597224387 L 219.38482780778236 196.46872046083965 L 219.38170795532548 196.46117744584424 L 219.31642632564225 196.29962157492199 L 219.3134978334339 196.2922045547051 L 219.25090053095292 196.12988623839232 L 219.24815487829053 196.12259803039987 L 219.18819305209055 195.95959518282402 L 219.1856218518063 195.9524379942337 L 219.12824665096616 195.7888285295223 L 219.12584168282646 195.78180400497092 L 219.0710042564249 195.61766583725148 L 219.06875749491016 195.61077510566648 L 219.016408992026 195.4461861490665 L 219.01431262896614 195.43942986915783 L 218.96440419867815 195.2744680378048 L 218.96245066122478 195.2678464418656 L 218.91493345261176 195.10258964988705 L 218.9131154170222 195.09610258563484 L 218.86794057916293 194.93062874715827 L 218.86625098085693 194.92427571742616 L 218.8233696628302 194.758662746579 L 218.82180170316062 194.75244294672734 L 218.78116505404523 194.58676875763717 L 218.77971220419644 194.58068111061343 L 218.7412713730712 194.41502361740774 L 218.7399273754728 194.40906680642743 L 218.70363351141646 194.2435039232337 L 218.70239237902766 194.2376764220921 L 218.668196631119 194.07228606303784 L 218.6670526449097 194.0665861640967 L 218.63490616222757 193.90144624330938 L 218.6338538671499 193.89587208322237 L 218.60370779877303 193.73106051482955 L 218.6027419984877 193.7256100980903 L 218.5745474934949 193.5612047962194 L 218.57366324408838 193.55587601663336 L 218.54737145155843 193.39195489541197 L 218.5465640544588 193.38674555559578 L 218.5221261234705 193.22338652915136 L 218.52139111774466 193.21829435817668 L 218.49875819737682 193.05557534063675 L 218.49809135156886 193.0505980099325 L 218.47721459090022 192.8885969154245 L 218.4766118945488 192.88373205305686 L 218.4574424426582 192.72252679570835 L 218.45690009761083 192.71777199915502 L 218.43938910357704 192.55744049309348 L 218.43890351520272 192.55279334062445 L 218.4230021281045 192.39341349997738 L 218.42256989648925 192.38887156075336 L 218.40822926540542 192.2305212996483 L 218.40784717660233 192.2260821426434 L 218.39501845061167 192.0688393752078 L 218.3946834680038 192.0645005770548 L 218.3833177961851 191.90844321741616 L 218.3830270520093 191.90420236927116 L 218.37307558344136 191.749408331557 L 218.37282637051163 191.7452630450711 L 218.36424025427326 191.59181024340896 L 218.36403001793354 191.5877581558928 L 218.35676040310346 191.4357245044101 L 218.35658673343335 191.43176328326484 L 218.3505847690904 191.28122669608913 L 218.35044539338034 191.2773540425813 L 218.3456622286033 191.12839243384008 L 218.3455550041118 191.12460608628095 L 218.34194178797944 190.97729737010172 L 218.34186469497902 190.9735951064974 L 218.33937257657016 190.82801719700765 L 218.33932371168623 190.82439683723229 L 218.33790384007963 190.68062764855952 L 218.33788140992314 190.6770870561051 L 218.33748493419762 190.5352045023768 L 218.33748724928876 190.5317415857261 L 218.3380653185231 190.39182358106981 L 218.33809078750346 190.3884362947343 L 218.33959455077644 190.2505607532775 L 218.33964167490254 190.24724709854 L 218.3420222812929 190.11149193441017 L 218.34208964920546 190.10824995980647 L 218.3452982477921 189.97469308713113 L 218.34538453055197 189.97152088870496 L 218.3493722704136 189.84024022161162 L 218.34947621679655 189.83713594296677 L 218.35419424701197 189.7082093955829 L 218.35431467905224 189.7051712277643 L 218.35971414870025 189.57867671421747 L 218.35984995747364 189.57570289544057 L 218.36588201563302 189.4517183298582 L 218.36603215726944 189.4488071451093 L 218.372647953019 189.32741044161892 L 218.3728114449343 189.32456022214583 L 218.37996212735283 189.20582929487497 L 218.3801380446902 189.20303841758405 L 218.38777476285645 189.08705118066018 L 218.38796223512665 189.08431806743607 L 218.39603613811946 188.9711524349867 L 218.39623434603104 188.96847555194915 L 218.40469658292915 188.85820943810177 L 218.40490475539804 188.8555872948106 L 218.41370647528024 188.74829861369273 L 218.41392388660952 188.74572976231502 L 218.42301623855465 188.64149642805413 L 218.42324220577547 188.6389794625039 L 218.43257633886228 188.53787938922753 L 218.43281021922604 188.53541294428666 L 218.44233728253334 188.43752404612226 L 218.44257847114716 188.43510679655674 L 218.4522496137537 188.34050698763187 L 218.4524975413494 188.33813764731002 L 218.462263912334 188.24690484175215 L 218.46251804316233 188.24458216278083 L 218.47233079160378 188.15679427471747 L 218.4725906214447 188.15451704660603 L 218.4824008964218 188.07025199016465 L 218.48266595070123 188.06801903903641 L 218.49242490129276 187.98735472834457 L 218.492694733296 187.98516491621612 L 218.5023535085807 187.90817926540126 L 218.50262769775088 187.90603148955933 L 218.51213744680763 187.83280241274898 L 218.51241559711468 187.83069560527343 L 218.52172746902218 187.7613010165951 L 218.52200920738562 187.7592341440857 L 218.53107435122274 187.69375195766688 L 218.53135932596138 187.69172402129033 L 218.54012889080684 187.63023215125853 L 218.5404167700801 187.62824218727027 L 218.54884190501275 187.57081854775296 L 218.54913237519207 187.56886562879464 L 218.55716422929063 187.51558813391935 L 218.55745699316205 187.5136713715786 L 218.5650467155054 187.4646179354728 L 218.56534149011873 187.4627364850445 L 218.57244022978557 187.41798502183576 L 218.57273674360428 187.4161380910596 L 218.57929564967344 187.37576651487532 L 218.57959363830543 187.37395338036552 L 218.58556385985568 187.3380396053333 L 218.5858630587729 187.33625964494877 L 218.59119574488307 187.30488158519606 L 218.59149587522117 187.30313434662338 L 218.59614217497 187.27636991627767 L 218.59644291156096 187.27465527812703 L 218.60035397402726 187.25258239131585 L 218.60065486002657 187.2509010017684 L 218.60378183428915 187.23359757261923 L 218.60408199273417 187.231952342912 L 218.6063760278718 187.21949628555237 L 218.60667272231342 187.21789986313752 L 218.6080849674049 187.2103690916949 L 218.6083548982225 187.2089411483824 L 218.60883650234658 187.2064135769843 L 218.6206142799371 187.157910832926 L 218.63716910214592 187.11082399731575 L 218.65833600134673 187.0656222871227 L 218.68390405089383 187.02275613417527 L 218.71361846699128 186.98265269664006 L 218.7471831475952 186.94571160242086 L 218.7842636230497 186.91230096689532 L 218.82449038905312 186.882753724671 L 218.86746258874214 186.8573643119161 L 218.91275200720204 186.83638573232358 L 218.95990733859767 186.82002703594762 L 219.00845868340426 186.80845123603459 L 219.05792223092254 186.8017736846076 L 219.10780508041816 186.80006092299192 L 219.15761015284232 186.80333001873527 L 219.18051588081977 186.8071537870192 L 219.10942075597717 186.7718852306136 L 218.96866645198455 186.70367920647428 L 218.82790690285486 186.63714753066733 L 218.6871449633217 186.57234937754248 L 218.54638353231582 186.5093434892853 L 218.40562551689905 186.44818814721054 L 218.26487379135665 186.3889411434403 L 218.1241311510066 186.33165975341265 L 218.0864972001253 186.3168824992905 L 218.0063068741501 186.4453798720888 L 217.91801872756577 186.59102677079434 L 217.83179605259727 186.73768344652436 L 217.74769895796143 186.8853992904116 L 217.66578702317773 187.03422441522855 L 217.58611933708812 187.18420973246037 L 217.50875454643187 187.3354070268359 L 217.43375091479072 187.48786902673035 L 217.36116639202143 187.64164946868178 L 217.29105869398902 187.79680315426336 L 217.22348539215054 187.95338599746887 L 217.15850401220862 188.111455060822 L 217.09617214074046 188.27106857847622 L 217.0365475383487 188.43228596480088 L 216.9796882576016 188.59516780710018 L 216.92565276371366 188.75977584148566 L 216.87450005569093 188.9261729112745 L 216.82628978549624 189.0944229076847 L 216.7810823726686 189.26459069312963 L 216.73893911183816 189.43674200785176 L 216.69992227065157 189.61094336114073 L 216.66409517578793 189.78726190890995 L 216.63152228503657 189.96576531974395 L 216.60226924373748 190.14652163198818 L 216.5764029243221 190.3295991046681 L 216.55399144815306 190.5150660652523 L 216.53510418936628 190.70299075734567 L 216.51981176093 190.89344119131337 L 216.50818598360985 191.08648500080474 L 216.50029983899535 191.28218930778883 L 216.49622740812262 191.48062059847064 L 216.49604379755257 191.681844612035 L 216.49978647654112 191.88384409126834 L 216.50262153950487 191.945295030998 L 216.5060666775279 192.01223742505647 L 216.50986565349749 192.0791039412291 L 216.51401892780783 192.14589135477968 L 216.51852695614264 192.2125964425902 L 216.52339018945068 192.27921598331923 L 216.52860907391332 192.34574675742184 L 216.5341840509219 192.41218554731336 L 216.54011555704852 192.47852913742872 L 216.546404024023 192.54477431435458 L 216.55304987870778 192.61091786692865 L 216.56005354307428 192.67695658634207 L 216.56741543418312 192.7428872662772 L 216.57513596416098 192.80870670299882 L 216.58321554018877 192.8744116955341 L 216.59165456447565 192.93999904572365 L 216.60045343425165 193.00546555841476 L 216.60961254175373 193.0708080415835 L 216.61913227421178 193.13602330644915 L 216.62901301384773 193.20110816766777 L 216.63925513786293 193.26605944342882 L 216.6498590184436 193.33087395565872 L 216.66082502275535 193.39554853013777 L 216.67215351295047 193.4600799966824 L 216.68384484617854 193.524465189327 L 216.695899374592 193.58870094646147 L 216.70831744536585 193.65278411103085 L 216.7210994007212 193.71671153073416 L 216.73424557793854 193.7804800581534 L 216.7477563093986 193.84408655100205 L 216.7616319226147 193.9075278723098 L 216.77587274026166 193.97080089057235 L 216.7904790802378 194.0339024800332 L 216.80545125570478 194.09682952083975 L 216.82078957514628 194.15957889926378 L 216.83649434243756 194.22214750794345 L 216.85256585690905 194.28453224607495 L 216.86900441343295 194.3467300196736 L 216.88581030250037 194.40873774177322 L 216.90298381031954 194.4705523326786 L 216.9205252189138 194.53217072019288 L 216.93843480624005 194.59358983988952 L 216.95671284629867 194.65480663532747 L 216.97535960926487 194.71581805831224 L 216.99437536162392 194.7766210691411 L 217.01376036632985 194.83721263689517 L 217.03351488295135 194.89758973965928 L 217.05363916784057 194.9577493647847 L 217.07413347432708 195.01768850919638 L 217.094998052887 195.07740417959292 L 217.1162331513712 195.1368933927882 L 217.13783901519938 195.19615317591973 L 217.1598158875954 195.25518056674065 L 217.18216400983283 195.31397261390387 L 217.2048836214771 195.37252637720195 L 217.22797496066642 195.43083892787277 L 217.2514382643728 195.48890734881817 L 217.27527376871916 195.54672873492677 L 217.29948170927278 195.60430019329962 L 217.3240623213685 195.66161884351155 L 217.3490158404544 195.7186818178867 L 217.37434250244246 195.7754862617461 L 217.40004254407603 195.83202933365334 L 217.42611620330453 195.88830820563888 L 217.45256371969967 195.9443200634731 L 217.47938533485498 196.00006210686306 L 217.50658129282343 196.05553154968905 L 217.5341518405577 196.11072562020544 L 217.5620972283764 196.16564156125207 L 217.59041771043826 196.22027663044037 L 217.61911354522772 196.27462810031957 L 217.6481849960745 196.32869325856714 L 217.67763233166525 196.38246940812064 L 217.70745582658566 196.43595386732497 L 217.73765576186432 196.48914397004106 L 217.76823242554883 196.54203706576982 L 217.7991861132705 196.59463051971449 L 217.83051712885174 196.64692171287535 L 217.86222578488974 196.69890804206287 L 217.8943124033935 196.7505869199595 L 217.92677731639125 196.80195577509198 L 217.95962086657718 196.8530120518282 L 217.99284340795842 196.9037532103343 L 218.02644530649604 196.9541767264849 L 218.06042694078357 197.00428009179288 L 218.09478870270232 197.05406081326723 L 218.12953099809755 197.10351641326625 L 218.16465424744385 197.15264442930103 L 218.20015888654856 197.20144241385873 L 218.23604536719856 197.24990793411422 L 218.27231415786176 197.29803857168716 L 218.30896574434277 197.34583192230664 L 218.34600063048296 197.3932855955071 L 218.3834193387915 197.4403972142075 L 218.4212224111231 197.48716441432674 L 218.45941040933263 197.53358484434563 L 218.49798391588686 197.57965616479567 L 218.5369435345243 197.6253760477871 L 218.57772482805441 197.672396651007 L 218.6084218624378 197.7115704899235 L 218.63507242033796 197.7536019702567 L 218.6574124589459 197.79807466131973 L 218.67522064231179 197.8445479459099 L 218.6883205342508 197.8925613857635 L 218.69658234640062 197.94163928338955 L 218.6999242241113 197.99129539508547 L 218.69831305742764 198.04103774844063 L 218.6917648091291 198.09037351659734 L 218.68034435657697 198.13881390097748 L 218.6641648489362 198.18587897409856 L 218.64338658613977 198.2311024344986 L 218.6182154307027 198.27403622665994 L 218.5889007681204 198.31425498015975 L 218.5557330360596 198.35136022406587 L 218.51904084682081 198.3849843348237 L 218.47918773158224 198.4147941785196 L 218.43656853868194 198.44049441143522 L 218.39160552162213 198.46183040619223 L 218.34474415555457 198.47859077449587 L 218.29644872369522 198.49060946148367 L 218.2471977173964 198.49776739092906 L 218.19747909545046 198.49999364499962 L 218.19144899545034 198.49996324200015 L 218.1864002417479 198.49991229399058 L 218.18043074162475 198.49982190948023 L 218.1753866967429 198.49972008166057 L 218.1694771781306 198.49957095237156 L 218.1644410466081 198.49941846943437 L 218.15859089114053 198.49921183209887 L 218.1535659253375 198.49900903467065 L 218.14777451464863 198.49874612602085 L 218.14276400851648 198.49849347262645 L 218.1370307242402 198.49817552939453 L 218.13203800694686 198.49787359798623 L 218.12636223071704 198.49750185690436 L 218.12139066014402 198.49715134593896 L 218.11577177359462 198.49672704373933 L 218.11082472976526 198.49632877279228 L 218.10526211453018 198.49585314620708 L 218.10034299299653 198.49540805611403 L 218.09483603070964 198.49488234187544 L 218.08994823597126 198.494391494399 L 218.0844963082665 198.4938169292392 L 218.07964324724787 198.49328150625934 L 218.07424573575915 198.4926593269105 L 218.06943081138684 198.49208062914087 L 218.06408709774806 198.49141207233518 L 218.05931370271705 198.49079151757778 L 218.0540231685621 198.49007782004745 L 218.04929467925615 198.48941694098755 L 218.04405670621895 198.4886593394647 L 218.0393764769526 198.4879597810361 L 218.0341904466671 198.487159512253 L 218.02956180413338 198.48642302857124 L 218.02442709823345 198.48558132926 L 218.0198533363791 198.48480978017022 L 218.01476933649866 198.48392788706306 L 218.01025371168802 198.4831232343012 L 218.00521979946097 198.48220238413026 L 218.00076552611864 198.48136668714847 L 217.99578108317888 198.48040811664598 L 217.99139132982287 198.47954352811186 L 217.98645573780433 198.47854847400998 L 217.9821336235878 198.47765723502613 L 217.97724626412437 198.47662693405707 L 217.97299485584495 198.4757113691206 L 217.96815511057054 198.4746470580165 L 217.96397742023348 198.47370956976525 L 217.959184670782 198.4726124852583 L 217.9550836536651 198.47165554902213 L 217.9503372816705 198.47052692784453 L 217.94631583497403 198.46955308605067 L 217.94161522207017 198.4683941649346 L 217.93767618410106 198.4674060213861 L 217.93302071192187 198.46621803706375 L 217.92916686187365 198.46521825113595 L 217.92455591205302 198.46400244033947 L 217.92078997035705 198.46299372111986 L 217.9162229245289 198.46175132058147 L 217.91254755374962 198.46073642097352 L 217.90802379354787 198.4594686674254 L 217.9044415998877 198.458450378262 L 217.89996050694623 198.45715850843632 L 217.89647404228822 198.45613965261057 L 217.89203499824097 198.45482490323948 L 217.88864676277396 198.4538083298885 L 217.88424914925483 198.45247193770425 L 217.88096159457822 198.45146051643903 L 217.87660479322113 198.45010371817375 L 217.87342032607296 198.44910033341645 L 217.86910371851178 198.44772436580234 L 217.8660247049186 198.4467319111877 L 217.86174767278726 198.44533801095696 L 217.8587764427525 198.44435938384572 L 217.8545383676849 198.4429487877305 L 217.85167722035874 198.44198688382883 L 217.84747748398883 198.44056082856133 L 217.84472869325313 198.4396185366306 L 217.84056667721475 198.438178258943 L 217.83793249772773 198.43725845561704 L 217.83380758365487 198.43580519224153 L 217.83129025729536 198.4349107369316 L 217.82720182682186 198.43344572460038 L 217.82480358950357 198.4325794544721 L 217.8207510242634 198.4311039299173 L 217.81847411312916 198.43026865493476 L 217.81445679475615 198.4287838548886 L 217.81230345568028 198.42798235288726 L 217.8083207658084 198.4264895140819 L 217.80629326120837 198.42572452585375 L 217.80234458147152 198.42422488502137 L 217.80044519842468 198.42349910939058 L 217.79652991045674 198.4219939032634 L 217.79476096900535 198.42130999208322 L 217.79087845444025 198.41980045739342 L 217.7892423161746 198.41916101047036 L 217.78539195664627 198.41764838395008 L 217.78389103345685 198.41705594382026 L 217.78007221059914 198.4155414622017 L 217.7787089735516 198.41499850870633 L 217.77492106899848 198.4134834087217 L 217.77369805736168 198.41299235335205 L 217.76994045274702 198.4114778717335 L 217.76886028309005 198.41104105167082 L 217.76513236004777 198.40952842515054 L 217.76419773535497 198.40914809693382 L 217.76049887551898 198.407638562244 L 217.75971259431145 198.40731689501249 L 217.75604217931567 198.4058116888853 L 217.75540714469096 198.40555075711006 L 217.75176455616926 198.4040511162777 L 217.75128378471902 198.40385289191335 L 217.7473450348488 198.40222639708702 L 217.74359423462374 198.40067453511946 L 217.73666355517855 198.3978042395069 L 217.73034786261735 198.39519406810015 L 217.72830985864053 198.3943571187185 L 217.7019329903079 198.39028854933608 L 217.65886553187033 198.379667657765 L 217.6169088634088 198.3652715719897 L 217.61174913136213 198.36297186078352 L 217.61166674896822 198.3631744666492 L 217.47579388915904 198.30792665128507 L 217.47053029407957 198.30575138330738 L 217.33564310981987 198.2491054422109 L 217.3303991260039 198.2468679729304 L 217.19650380095462 198.18883379995899 L 217.19128048133476 198.18653436131015 L 217.0583831991568 198.12712185032126 L 217.0531815871392 198.12476069483063 L 216.92128853149345 198.06397973968177 L 216.9161096604 198.06155714003282 L 216.78522701494742 197.9994176345814 L 216.7800719074856 197.99693388316405 L 216.65020585588707 197.93344572126756 L 216.64507552364324 197.93090112971112 L 216.5162322495597 197.86607420522702 L 216.5111276925217 197.8634691039209 L 216.38331337961404 197.79731331070664 L 216.37823558571995 197.7946480483083 L 216.25145641764908 197.72717328022134 L 216.24640636236379 197.72444822315433 L 216.12066852279062 197.65566437405215 L 216.11564716871007 197.65287990599447 L 215.99095684129554 197.58279686973452 L 215.98596513777954 197.57995339110013 L 215.86232850618453 197.50858106153984 L 215.8573673890175 197.5056789889539 L 215.73479063690297 197.4330272599508 L 215.72986102798214 197.43006702572026 L 215.60835033900895 197.35614579113175 L 215.60345314606164 197.35312784271343 L 215.48301470389072 197.27794699639696 L 215.4781508202189 197.27487179586365 L 215.35879080851117 197.19844123167675 L 215.35396111276265 197.1953092551829 L 215.23568571517902 197.117638866983 L 215.2308910711477 197.11445060423256 L 215.1137064713491 197.03555028587706 L 215.10894772780054 197.0323062395932 L 214.99286010944783 196.95218588493964 L 214.9881380999706 196.948886570338 L 214.87315364672475 196.8675560732438 L 214.86846918960944 196.86420201751216 L 214.75459408513134 196.7816712718348 L 214.7499479832723 196.77826301361782 L 214.63718841122287 196.69454191321475 L 214.63258145204557 196.69108000210696 L 214.52094359608571 196.60617844083563 L 214.5163765514974 196.60266343688295 L 214.40586659528802 196.51659130860085 L 214.4013402216504 196.51302378181148 L 214.29196434885242 196.42579098037606 L 214.28747938697694 196.42217151024235 L 214.1792437812513 196.33378792951103 L 214.17480095641542 196.33011710454332 L 214.067711801423 196.2405926383736 L 214.0633118234051 196.23687105564534 L 213.95737530280678 196.1462155978947 L 213.95301886594123 196.142443862602 L 213.848241163398 196.05066730712787 L 213.84392894664825 196.04684603216273 L 213.740316245821 195.95395827282258 L 213.73604891286845 195.95008807836066 L 213.63360739741805 195.85609900901193 L 213.62938559676726 195.85218052211536 L 213.5281214503547 195.75710003661553 L 213.52394581545374 195.75313389085238 L 213.42386522173985 195.65697188305893 L 213.4197363711128 195.65295871813754 L 213.3208455137585 195.55572508190787 L 213.31676405115218 195.5516655433297 L 213.21906911381845 195.45337017252135 L 213.2150356283587 195.44926491124914 L 213.11854279470637 195.3499176997195 L 213.1145578610654 195.34576737186356 L 213.01927331475545 195.2453782134701 L 213.01533749332816 195.24118347999215 L 212.9212674180215 195.13976226859236 L 212.9173812551091 195.1355237950266 L 212.82453183446657 195.03308042447793 L 212.82069586246703 195.02879888066954 L 212.72907328014963 194.92534324482946 L 212.72528801775448 194.92101930469215 L 212.63489845742308 194.8165612974181 L 212.6311644098174 194.81219563870738 L 212.5420140551329 194.70674515385682 L 212.53833171419976 194.7023384579625 L 212.4504267488231 194.59590538939293 L 212.44679659334938 194.59145834114767 L 212.36014320094148 194.48405258271652 L 212.356565696826 194.47956587022273 L 212.27117006104774 194.37119731578744 L 212.2676456615084 194.36667163025984 L 212.18351396602074 194.2573501736779 L 212.18004311180212 194.25278620930416 L 212.09718154026592 194.14252174443303 L 212.09376465984377 194.13792019824848 L 212.01217939591996 194.0267226189456 L 212.00881690570424 194.02208419072593 L 211.92851413305377 193.9099633908488 L 211.92520643758746 193.9052887830168 L 211.84619233987118 193.79225465642284 L 211.84293983202443 193.78754457396954 L 211.7652205929033 193.67360701451622 L 211.762023654063 193.66886216493776 L 211.6856054571979 193.55403106648254 L 211.68246445745038 193.54925215972926 L 211.60735348650226 193.4335374161296 L 211.6042687848097 193.42872516456902 L 211.53047122343943 193.3121366696824 L 211.52744316780823 193.3072917880736 L 211.45496519967676 193.18983943575745 L 211.45199412731833 193.18496264123883 L 211.38084193608657 193.06665632535064 L 211.37792817356856 193.06174833743668 L 211.3081079428974 192.9425979518339 L 211.30525180628592 192.9376594924235 L 211.23676971983627 192.8176749309636 L 211.23397151482797 192.81270672435718 L 211.16683375626076 192.69189788089759 L 211.16409377830456 192.68690065382344 L 211.0983065312807 192.56527742222164 L 211.0956250656886 192.56025190386958 L 211.03119451386902 192.43782417798303 L 211.0285718359154 192.43277110004527 L 210.96550416296097 192.30954877373142 L 210.96294053797052 192.30446887044985 L 210.90124192754217 192.18046183756618 L 210.89873761096555 192.17535584578442 L 210.83841424672423 192.05057400018836 L 210.83596948420208 192.04544265940953 L 210.77702754980868 191.9198958949586 L 210.77464257722247 191.91473994740505 L 210.71708825633786 191.78843815795665 L 210.71476329984856 191.78325834863338 L 210.6586027761337 191.65621142804497 L 210.6563380522081 191.65100850480542 L 210.6015775093239 191.5232263469345 L 210.59937322474747 191.5180010605459 L 210.54601884635483 191.38949355924993 L 210.54387519823229 191.38424666345995 L 210.49193316799213 191.25502371259634 L 210.48985034373547 191.24975596419867 L 210.4393268453087 191.11982745762492 L 210.43730502261198 191.11453961652288 L 210.3882062396595 190.98391544809644 L 210.38624558646154 190.9786082773643 L 210.3385777026443 190.84729834094261 L 210.33667837707927 190.84197260688418 L 210.29044757605814 190.70998679632478 L 210.28860972639333 190.70464326852638 L 210.24382219182922 190.57199147768665 L 210.24204595639162 190.56663092906655 L 210.1987078719455 190.43332305180397 L 210.19699337903657 190.42794625865548 L 210.1551109283693 190.2939921888275 L 210.15345829616865 190.2885999308552 L 210.11303766294117 190.15400956231935 L 210.11144699939922 190.14860262266802 L 210.0724943672724 190.01338584928166 L 210.070965769993 190.00796501455753 L 210.03348732262782 189.87213173017818 L 210.0320208787409 189.86669779046147 L 209.9960227997982 189.73025788894657 L 209.99461858582282 189.724811637793 L 209.9601070589636 189.58777501300005 L 209.95876514066265 189.5823172474348 L 209.92574634954775 189.44469379322118 L 209.92446678177402 189.43922531371965 L 209.89294691006435 189.3010249239429 L 209.89172973659907 189.29554653440093 L 209.8617149679556 189.15677910291848 L 209.86056022134034 189.15129161061165 L 209.83205673942393 189.01196703128093 L 209.8309644407859 189.00647124680938 L 209.80397842925748 188.8665994134879 L 209.80294858812937 188.86109615070978 L 209.77748623064986 188.720686957255 L 209.77651884478496 188.71517703320566 L 209.7525863250153 188.574240373475 L 209.75168138019876 188.56872460827336 L 209.7292848817998 188.42727037612428 L 209.72844235165616 188.42174959286297 L 209.70758805828885 188.27978768215297 L 209.70680790408758 188.27426270677643 L 209.68750199941286 188.13180301136296 L 209.68678416987228 188.12627467252938 L 209.66903283755101 187.9833270862699 L 209.66837726864122 187.97779621519794 L 209.6636284541167 187.93572844194475 L 209.6346146503182 187.95954388640004 L 209.50057717331623 188.07222418802817 L 209.36726253975766 188.18690585613265 L 209.23465959091197 188.30353421359197 L 209.102757109917 188.42205421703673 L 208.97154379905368 188.54241048316428 L 208.8410082601771 188.6645473145676 L 208.71113897801948 188.78840872489891 L 208.58192430612903 188.91393846319076 L 208.45335245515045 189.0410800372537 L 208.32541148325447 189.16977673601392 L 208.19808928838358 189.29997165083208 L 208.0713736022234 189.4316076956398 L 207.9452519855576 189.56462762601862 L 207.81971182492364 189.69897405711296 L 207.6947403303371 189.83458948045111 L 207.57032453391378 189.9714162797112 L 207.44645128930657 190.10939674539787 L 207.323107271739 190.24847308856198 L 207.20027897857452 190.3885874535436 L 207.07795273031428 190.5296819297829 L 206.95611467186535 190.67169856281757 L 206.83475077407664 190.81457936442055 L 206.71384683538489 190.95826632201806 L 206.5933884835649 191.10270140736378 L 206.47336117747588 191.24782658456877 L 206.35375020876626 191.39358381751276 L 206.2345407035156 191.53991507664318 L 206.11571762367146 191.68676234532356 L 205.99726576838012 191.83406762559724 L 205.87916977507132 191.98177294352854 L 205.7614141202555 192.12982035416445 L 205.64398312014484 192.2781519459683 L 205.52686093080078 192.4267098450881 L 205.41003154816457 192.57543621899967 L 205.29347880746906 192.7242732801455 L 205.17718638247948 192.8731632889879 L 205.0611377842613 193.02204855683937 L 204.94531635940308 193.17087144854423 L 204.8297052878742 193.3195743847559 L 204.71428347434815 193.46810512751793 L 204.5990019163688 193.61644715318917 L 204.48387884450588 193.7644972051324 L 204.36889664948026 193.91219797478473 L 204.25437122999614 194.05906476533073 L 204.25403753444215 194.05949221652634 L 204.139701334982 194.2057888735362 L 204.13928350928185 194.206322747907 L 204.02511983396116 194.3519911449681 L 204.02461638430663 194.3526324494701 L 203.91060853724093 194.49761446016987 L 203.9100177632582 194.49836426413538 L 203.79614904856302 194.64260176206128 L 203.7954690356489 194.64346119608996 L 203.68172275743981 194.78689605482938 L 203.6809513683939 194.7878663091311 L 203.5673108307864 194.93044040227144 L 203.56644569671957 194.9315227243932 L 203.45289420382923 195.07317792552195 L 203.45193271432873 195.07437361738405 L 203.3384535702711 195.21505180008856 L 203.33739286280988 195.2163622142386 L 203.22396937170043 195.35600525210629 L 203.22280632027844 195.35743178709194 L 203.10942178623273 195.49598155371027 Z M 228.7749099384467 200.83537070794856 L 228.77079426526234 200.84055908230116 L 228.75401757066996 200.8614231258576 L 228.76279467809712 200.86568339881217 L 228.76515859173765 200.86683850084373 L 228.8820127779215 200.92431944228548 L 228.8842359796917 200.92541990005714 L 229.00149828749582 200.98382591717143 L 229.00358517326737 200.98487143997167 L 229.1212481822986 201.0441641940609 L 229.12320288928836 201.04515458715585 L 229.24125917915367 201.10529573952226 L 229.24308559509632 201.10623089167004 L 229.36152774540255 201.16718210361606 L 229.36322951756398 201.16806197590142 L 229.4820501079181 201.22978490872933 L 229.48363065189707 201.2306095246047 L 229.60282226190594 201.29306583961687 L 229.60428477016475 201.2938352760344 L 229.7238399794353 201.35698663453317 L 229.7251874295287 201.35770101407152 L 229.8450988176678 201.42150907735925 L 229.84633398013585 201.4221685612504 L 229.96659412675046 201.48659499062938 L 229.96771957265847 201.48719977260433 L 230.08832105735544 201.5522062293769 L 230.08933916546397 201.5527565302536 L 230.21027456785023 201.61830467572216 L 230.21118753140777 201.61880073866828 L 230.33244943109025 201.68485223413515 L 230.3332592642447 201.68529432054507 L 230.45484024083026 201.75181082731257 L 230.45554878465663 201.7521992132427 L 230.5774414177522 201.81914239261317 L 230.57805034590055 201.8194773657277 L 230.70024721511305 201.8868088790035 L 230.70075803908023 201.8870907359866 L 230.82366579804795 201.95500128886601 L 230.94676740394578 202.02317099430752 L 231.07005648939227 202.09156182594617 L 231.1935265423275 202.16013576004818 L 231.3171709095251 202.2288547747651 L 231.4410100844586 202.29769601256635 L 231.56502842562602 202.3666165789937 L 231.68920012916925 202.43556799871106 L 231.81351807123374 202.50451225497582 L 231.93797499851482 202.57341133289898 L 232.06256353051535 202.6422272203863 L 232.18727616109794 202.71092190907365 L 232.31210525980242 202.7794573955093 L 232.437043073051 202.84779568264295 L 232.56208172511498 202.91589878154616 L 232.68721321881407 202.98372871334485 L 232.81242943609888 203.05124751144325 L 232.93772213844886 203.11841722400192 L 233.06308296708957 203.1851999166707 L 233.18850344306003 203.25155767559616 L 233.31397496725575 203.3174526107705 L 233.43948882023528 203.38284685961327 L 233.5650361621056 203.4477025909546 L 233.69060803220293 203.51198200927473 L 233.8161953488571 203.57564735935452 L 233.94178890917405 203.63866093130386 L 234.06737938874113 203.70098506592407 L 234.1929573415416 203.7625821605506 L 234.31851319993382 203.8234146753034 L 234.44403727472113 203.88344513975855 L 234.56951975559662 203.94263616017616 L 234.69495071167094 204.0009504271376 L 234.82032009245523 204.05835072376252 L 234.945617729173 204.11479993443172 L 235.07083333657545 204.17026105408075 L 235.19595651522005 204.2246971980233 L 235.32097675452263 204.27807161241424 L 235.44588343637164 204.33034768522296 L 235.57066583971798 204.38148895785181 L 235.69531314599973 204.4314591372846 L 235.8198144457266 204.48022210883528 L 235.94415874617036 204.52774194939695 L 236.068334980483 204.5739829412268 L 236.1923320182287 204.61890958615396 L 236.31613867759802 204.6624866201866 L 236.43974373941865 204.70467902841625 L 236.563135963147 204.74545206011817 L 236.68630410498145 204.78477124391006 L 236.80923693833864 204.8226024028355 L 236.9319232767883 204.85891166916318 L 237.05435199967795 204.8936654987066 L 237.17651208053167 204.92683068439226 L 237.29839261846658 204.95837436881925 L 237.41998287262822 204.98826405545094 L 237.54127229982328 205.01646761809846 L 237.66225059537408 205.04295330828222 L 237.78290773714713 205.06768976001456 L 237.90323403281218 205.09064599154624 L 238.02322017008376 205.1117914035323 L 238.14285726983323 205.13109577309362 L 238.26213694174615 205.1485292432025 L 238.31728814530715 205.15573330890624 L 238.4617440142933 204.96675913932134 L 238.61531261873643 204.7655002557438 L 238.76856847947192 204.56414727485247 L 238.92141736264705 204.36268415294583 L 239.07376507031023 204.16109508395752 L 239.22551744493364 203.95936449845087 L 239.37658037489106 203.75747706271437 L 239.5268598009728 203.55541767782205 L 239.67626172386218 203.35317147872794 L 239.82469221267522 203.1507238332253 L 239.97205741451828 202.94806034078928 L 240.11826356520473 202.7451668310634 L 240.2632170010238 202.54202936207534 L 240.4068241717663 202.3386342178275 L 240.54899165485227 202.13496790538792 L 240.68962617078176 201.93101715106397 L 240.82863459976133 201.72676889573307 L 240.96592399966121 201.52221028895102 L 241.1014016251952 201.31732868180035 L 241.2349749484377 201.11211161808004 L 241.3665516805212 200.9065468237945 L 241.4960397946016 200.7006221944846 L 241.62334754990252 200.494325780305 L 241.74838351683593 200.28764576840592 L 241.87105660300966 200.08057046239108 L 241.99127607994316 199.8730882585395 L 242.10895161029967 199.66518761840973 L 242.2239932753357 199.45685703753128 L 242.33631160221432 199.2480850098908 L 242.44581759081268 199.0388599878438 L 242.55242273951575 198.82917033723018 L 242.6560390694652 198.6190042874125 L 242.75657914660692 198.4083498761016 L 242.85395610085868 198.19719488878846 L 242.9480836415631 197.98552679284924 L 243.03887606840254 197.77333266632715 L 243.12624827680506 197.5605991217002 L 243.21011575687893 197.34731222497265 L 243.29039458484425 197.13345741068406 L 243.3670014059287 196.91901939361725 L 243.439853407734 196.70398207815722 L 243.5088682830862 196.48832846662634 L 243.57396418155835 196.27204056796555 L 243.63505964893534 196.05509930856076 L 243.69207355413482 195.83748444713146 L 243.74492500334657 195.61917449582947 L 243.79353324145504 195.4001466499036 L 243.8378175411959 195.18037672832122 L 243.87769708088715 194.95983912785405 L 243.91309081202803 194.73850679305775 L 243.94391731851837 194.5163512044355 L 243.97009466970576 194.29334238684058 L 243.99154026990203 194.06944893983118 L 244.00817070739714 193.84463809119643 L 244.01990160630325 193.61887577431847 L 244.02664748476946 193.39212672941844 L 244.02832162319493 193.1643546279558 L 244.02483594601222 192.93552221877172 L 244.01610092041113 192.70559149378488 L 244.00202547502022 192.47452387033167 L 243.98251694107046 192.2422803866726 L 243.95748101794612 192.0088219066131 L 243.92682176431387 191.77410932884814 L 243.89044161524114 191.53810379642758 L 243.84824142491738 191.300766901756 L 243.8001205337907 191.06206088260424 L 243.74597685822354 190.82194880509854 L 243.69620447425697 190.6224672972385 L 243.6525425069185 190.64395193498123 L 243.6487449191042 190.64580072225797 L 243.50143135905725 190.71674957410676 L 243.49761173833645 190.71856930307746 L 243.34935145980373 190.7884347775343 L 243.34551068497564 190.7902248364939 L 243.19629874102847 190.85899951316574 L 243.1924377093517 190.8607593125732 L 243.04226915306134 190.92843577106692 L 243.03838877922817 190.930164744358 L 242.88725866366585 190.99673556428053 L 242.88335987873367 190.9984331686379 L 242.7312632569707 191.06389092959608 L 242.72734700725755 191.06555664667195 L 242.57427893236516 191.1298939282728 L 242.57034617830823 191.13152726486413 L 242.41630170335773 191.19473664671446 L 242.41235341834292 191.19633713538585 L 242.25732759640556 191.2584111970926 L 242.25336476556637 191.2599783967479 L 242.09735264971343 191.32090971791797 L 242.09337626870706 191.3224432143162 L 241.93637291200977 191.38222437455647 L 241.93238398577103 191.38372378077264 L 241.77438444130073 191.44234735969007 L 241.77038398277782 191.44381231651877 L 241.61138330360572 191.50127089372023 L 241.60737233248403 191.50270107002035 L 241.44736557168144 191.55898722511276 L 241.44334511309526 191.56038231809413 L 241.28232732373343 191.61548863068435 L 241.27829840697288 191.61684836613404 L 241.11626464212307 191.67076741582903 L 241.1122282993371 191.67209154827867 L 240.94917361207058 191.7248159146853 L 240.94513087697274 191.7261042275178 L 240.78105032036083 191.777626490243 L 240.77700222693852 191.77887879574004 L 240.6118908540524 191.82919153439073 L 240.6078384352857 191.83040767372097 L 240.44191152530624 191.87943839199596 L 240.32082836146208 191.9153389346323 L 240.31774172517044 191.9162433162307 L 240.1962584504273 191.9514139182822 L 240.19316979983458 191.95229736893944 L 240.0715102907554 191.9866733705637 L 240.06841978441878 191.9875359229402 L 239.94658775120016 192.02111794250325 L 239.94349554540216 192.02195963095787 L 239.8214946982406 192.0547482868258 L 239.81840094698205 192.05556914735027 L 239.69623499607414 192.08756505788918 L 239.69313985106865 192.08836512804328 L 239.5708125066109 192.11956891161927 L 239.56771611728152 192.1203482304661 L 239.4452310894705 192.15076050544528 L 239.44213360294762 192.1515191134873 L 239.3194946019799 192.1811404982357 L 239.316396163102 192.18187843735086 L 239.19360689917409 192.21070955023464 L 239.19050765048797 192.21142686361355 L 239.0675718337964 192.23946832299876 L 239.06447191556154 192.24016505508214 L 238.94139325630292 192.26741747933485 L 238.9382928064958 192.26809367575154 L 238.81507501486664 192.2945576832379 L 238.81197416918627 192.29521339074392 L 238.6886209553831 192.32088959983 L 238.68551984726003 192.32152486624787 L 238.5620349214794 192.34641389529972 L 238.55893368208444 192.3470287694586 L 238.43532075452293 192.3711312368424 L 238.43221951277707 192.37172576851947 L 238.30848229363122 192.39504229260123 L 238.3053811762188 192.39561653246304 L 238.18152337568515 192.41814773160885 L 238.17842250706687 192.4187017311541 L 238.05444783534196 192.4404482237301 L 238.05134733776913 192.4409820352331 L 237.92725950504953 192.46194443960536 L 237.92415949858062 192.46245811606025 L 237.79996221506286 192.48263705059486 L 237.7968628175804 192.48313064566085 L 237.67255979346103 192.50252672872392 L 237.66946112068987 192.50300029667142 L 237.54505606616544 192.52161414662902 L 237.54195823169272 192.52206774228657 L 237.41745485695975 192.53989997750477 L 237.41435797225546 192.54033365620714 L 237.28975998751056 192.55738489505208 L 237.28666416194855 192.55779871258918 L 237.16197527738822 192.5740695734269 L 237.1588806182704 192.57446358599358 L 237.03410454409118 192.58995468719024 L 237.03101115666954 192.5903289513376 L 236.90615160306803 192.60504091125924 L 236.90305959057082 192.60539548384614 L 236.77812026774353 192.61932892085883 L 236.7750297314006 192.61966385900513 L 236.65001434954405 192.63281939147504 L 236.6469253886124 192.63313475251567 L 236.52183765792321 192.6455129988088 L 236.51875036971614 192.64580884024855 L 236.3935940003908 192.65741041873108 L 236.3905084803043 192.657686798201 L 236.2652871825394 192.66851232723897 L 236.26220352408262 192.66876930245343 L 236.13692100807467 192.67881940041292 L 236.1338393028989 192.6790570291279 L 236.00849927884445 192.68833231437503 L 236.00541961677362 192.68855065434747 L 235.88002579486925 192.6970517452483 L 235.8769482639315 192.69725085419643 L 235.7515043543737 192.7049783691171 L 235.74842904083232 192.70515830468216 L 235.62293875381772 192.71211286198871 L 235.6198657422046 192.71227368169733 L 235.49433278792966 192.71845589975587 L 235.4912621610777 192.71859766098387 L 235.36569024973906 192.72400815816053 L 235.36262208881516 192.7241309180978 L 235.2370149306093 192.72877031275863 L 235.2339493151497 192.72887412837488 L 235.10831062027316 192.73274303888599 L 235.10524762821657 192.7328279668978 L 234.97958110686594 192.73592701162525 L 234.9765208145894 192.7359931084641 L 234.8508301769612 192.738322905774 L 234.84777265931535 192.73837022755555 L 234.72206161560612 192.73993139581398 L 234.7190069459506 192.7399599983083 L 234.59327920635695 192.74075315588138 L 234.59022745659695 192.74076309448424 L 234.46448673131536 192.74078885973805 L 234.46143797193776 192.74078018944346 L 234.3356879711648 192.74003918074408 L 234.33264227127538 192.74001195611785 L 234.2068867052076 192.7385047918314 L 234.20384413256784 192.73845906698557 L 234.07808671140177 192.7361863654781 L 234.0750473324665 192.73612219404694 L 233.94929176639874 192.73308457368458 L 233.94625564635305 192.73300200880104 L 233.82050564558008 192.72920008794983 L 233.81747284837817 192.72909918222354 L 233.69173212309659 192.7245335792496 L 233.68870271149905 192.72441438474573 L 233.5629749719054 192.71908571801518 L 233.55994900751708 192.71894828623434 L 233.43423796380785 192.71285717411322 L 233.43121550711714 192.71270155597253 L 233.30552486948895 192.70584861682696 L 233.30250597990553 192.70567486264198 L 233.17683945855492 192.69806071483808 L 233.1738241944479 192.6978688743059 L 233.04818549957133 192.68949413620967 L 233.04517391830922 192.68928425839312 L 232.91956676010335 192.68014954837076 L 232.9165589180907 192.67992168168325 L 232.79098700675203 192.6700276181008 L 232.78798295947007 192.66978181029268 L 232.66245000519515 192.6591290115162 L 232.6594498072394 192.65886530966185 L 232.53395952022478 192.6474543940575 L 232.5309632253437 192.64717284454326 L 232.4055193157859 192.6350044304771 L 232.40252697691997 192.6347050789906 L 232.2771331550156 192.6217797848287 L 232.27414482433596 192.62146267634884 L 232.1488048002815 192.6077811204573 L 232.1458205292282 192.60744629924523 L 232.02053801322023 192.59300909999016 L 232.0175578525408 192.59265660958138 L 231.89233655477588 192.57746438532885 L 231.88936055456404 192.5770942685262 L 231.7642041852387 192.5611476376423 L 231.7612323949723 192.56075993650978 L 231.6361446642831 192.54405951736064 L 231.63317713286247 192.54365427321824 L 231.50816175100593 192.5262006841699 L 231.50519852679201 192.52577793758954 L 231.38025920396473 192.50757179700815 L 231.37730033481634 192.5071315878101 L 231.25244078121483 192.48817351406169 L 231.24948631452787 192.4877158813124 L 231.12471024034866 192.4680064927631 L 231.12176022309166 192.46753147477352 L 230.99707133853133 192.44707138978941 L 230.9941258172842 192.4465790241145 L 230.86952783253932 192.42536886106166 L 230.86658685353038 192.42485918450063 L 230.74208347879744 192.4028995617452 L 230.73914708793933 192.40237261034247 L 230.6147420334149 192.37966414625046 L 230.61181027634262 192.37911995529797 L 230.48750725222325 192.35566326823553 L 230.48458017432947 192.35510187227533 L 230.3603828908117 192.33089758060854 L 230.35746053728357 192.33031901343662 L 230.23337270456395 192.30536773553158 L 230.2304551204185 192.30477203020232 L 230.10648044869362 192.2790743844251 L 230.10356767881396 192.27846157325678 L 229.9797098782803 192.25201817797344 L 229.97680196745068 192.25138829255428 L 229.85306474830483 192.224199766131 L 229.85016174124496 192.2235528373262 L 229.72654881368348 192.195619798129 L 229.7236507550844 192.19495585608857 L 229.6001658293038 192.16627892248357 L 229.59727276386118 192.16559799665083 L 229.473919550058 192.1361777870041 L 229.47103152250708 192.13547990612525 L 229.3478137308779 192.10531703880292 L 229.34493078602608 192.1046022309369 L 229.22185212676743 192.07369732430504 L 229.2189743095283 192.0729656168347 L 229.09603849283675 192.04131928925938 L 229.09316584826294 192.04057070890303 L 228.970376584335 192.00818357875036 L 228.96750915765043 192.00741815157429 L 228.84487015668267 191.97429083721036 L 228.8420079933146 191.97350858864183 L 228.71952296550361 191.93964170843273 L 228.71666611111502 191.93884266327416 L 228.59433876665727 191.904236835586 L 228.59148726717692 191.90342101802918 L 228.469321316269 191.86807686122802 L 228.46647521792383 191.86724429487 L 228.34447437076227 191.83116242732197 L 228.34163372010642 191.83031313518052 L 228.2198016868878 191.79349417525168 L 228.21696653083342 191.79262817978255 L 228.09530702175425 191.755072745839 L 228.09247740760094 191.754190068953 L 227.9709941328578 191.7158987793608 L 227.96817010832152 191.71499944244226 L 227.84686677811092 191.67597291556757 L 227.83834544430886 191.6727682637768 L 227.83822958381057 191.67310710462402 L 227.70183492608135 191.62646941871483 L 227.69474489426042 191.62398546385884 L 227.55828654482383 191.57502395817863 L 227.55151029717612 191.57253727477286 L 227.41498578256773 191.52131564102905 L 227.4085157115052 191.51883690896787 L 227.27192255826068 191.46541883886783 L 227.26575074583755 191.46295779781428 L 227.12908648049253 191.40740698306544 L 227.123204802143 191.40497247838158 L 226.98646695123313 191.3473526106913 L 226.98086716696926 191.3449526432116 L 226.84405325703017 191.2853274142873 L 226.83872709084997 191.2829691924333 L 226.70183464841728 191.22140229398244 L 226.6967738567816 191.2190922869656 L 226.55980040839094 191.1556474106955 L 226.5549968386817 191.1533914017814 L 226.4179399108687 191.0881322393995 L 226.41338555076084 191.0859353784093 L 226.27624267006118 191.01892562162297 L 226.27192968873658 191.01679247603022 L 226.13469838168587 190.94809581654692 L 226.1306191637833 190.94603042067885 L 225.99329695691716 190.87571055020592 L 225.9894441300748 190.87371645219508 L 225.8520285499289 190.80183706243997 L 225.848395006715 190.79991736867927 L 225.71088357982495 190.72654215134938 L 225.70746249479916 190.72469956829815 L 225.56985274770057 190.64989221510083 L 225.56663759028066 190.64812908836223 L 225.4289270495092 190.57195329100492 L 225.42591159325698 190.57027164165467 L 225.2880977853483 190.49279109184477 L 225.28527611422575 190.49119265003853 L 225.25060757423307 190.471404568267 L 225.16552867126617 190.62622392841877 L 225.0442855348823 190.8570141958885 L 224.93068776390186 191.0838020428722 L 224.82458715616028 191.306603082154 L 224.72583416417075 191.52543375653923 L 224.6342778746364 191.7403115368355 L 224.54976600789965 191.95125513702797 L 224.47214494146846 192.15828474488578 L 224.4012597618975 192.36142226528966 L 224.33695434928472 192.56069157245238 L 224.2790714983843 192.75611876605512 L 224.22745307984007 192.94773242504945 L 224.18194024422456 193.13556385163747 L 224.14237367042105 193.31964729676147 L 224.10859385837588 193.5000201574721 L 224.08044146440855 193.67672313584063 L 224.05775767512543 193.8498003488266 L 224.04038461363976 194.01929937874522 L 224.02816576935666 194.1852712549158 L 224.0209464402271 194.3477703586186 L 224.01857417427223 194.50685424581854 L 224.02089919554956 194.66258338506037 L 224.02777479876772 194.81502081146894 L 224.03905769662802 194.96423170166844 L 224.05460830479325 195.11028287843442 L 224.07429095119647 195.25324225767966 L 224.09797399916454 195.3931782537967 L 224.1255298773743 195.53015916182724 L 224.15683501380153 195.66425253664016 L 224.1917696751998 195.7955245895567 L 224.2302177180105 195.92403962217855 L 224.2720662605573 196.04985951515374 L 224.31720528967213 196.17304328669994 L 224.3655272172956 196.29364673201835 L 224.41692640399194 196.41172215067726 L 224.47129866660921 196.52731816472962 L 224.5285407866982 196.64047962641735 L 224.5885500347534 196.75124761063896 L 224.65122372321167 196.85965948448563 L 224.71645879853693 196.96574904392088 L 224.78415147994457 197.0695467062963 L 224.85419694956155 197.17107974678572 L 224.9264890961777 197.27037256678256 L 225.00092031251972 197.3674469830004 L 225.07738134401555 197.46232252693886 L 225.15576118559213 197.555016745752 L 225.235947021968 197.64554549697274 L 225.3178242062358 197.73392323104258 L 225.40127627125895 197.82016325710137 L 225.48618496832117 197.90427798877346 L 225.57243032771734 197.9862791679415 L 225.65989073630442 198.06617806548945 L 225.7484430275029 198.14398565884008 L 225.83796257980862 198.21971278681357 L 225.92832342035456 198.29337028276518 L 226.0193983306803 198.36496908738386 L 226.1110589523817 198.43452034275256 L 226.20317589070515 198.50203546933764 L 226.29561881472063 198.56752622773038 L 226.38825655296228 198.63100476685526 L 226.48095718377755 198.69248366032429 L 226.57358811995329 198.75197593256206 L 226.66601618730405 198.80949507613752 L 226.75810769717913 198.86505506167535 L 226.8497285129015 198.91867034153387 L 226.94074411034293 198.9703558483574 L 227.0310196328287 199.02012698942835 L 227.12041994067727 199.06799963766068 L 227.20880965571718 199.11399011996193 L 227.29605320107606 199.1581152035538 L 227.38201483667135 199.20039208081624 L 227.46655869065887 199.24083835304702 L 227.54954878728148 199.27947201355673 L 227.63084907138128 199.31631143036992 L 227.7103234299148 199.35137532879645 L 227.78783571079848 199.3846827740875 L 227.86324973930692 199.41625315431517 L 227.9364293323584 199.4461061636342 L 228.00723831090284 199.47426178601395 L 228.07554051063457 199.50074027951248 L 228.14119979132926 199.52556216118245 L 228.20408004492108 199.5487481926134 L 228.26404520274622 199.57031936622198 L 228.32095924200308 199.59029689224968 L 228.37468619199595 199.60870218660463 L 228.42509014053172 199.6255568595921 L 228.4720352411748 199.64088270567112 L 228.51538572281336 199.6547016945805 L 228.55500590353284 199.6670359642731 L 228.59076021372059 199.67790781688657 L 228.62251323789815 199.68733972008445 L 228.65012979900237 199.69535431974126 L 228.67347514756943 199.7019744797193 L 228.69241545347302 199.70722339878327 L 228.7068193876996 199.71112500452398 L 228.71656545963802 199.71370581181264 L 228.72162775239798 199.7150168084008 L 228.72300065929434 199.71536525319252 L 228.77054024883617 199.7299829540039 L 228.81639238371542 199.74925136021284 L 228.86010336810764 199.77297981558354 L 228.9012406923565 199.80093353276857 L 228.93939731255253 199.83283591647313 L 228.9741956781345 199.86837130029886 L 229.00529146766124 199.9071880701867 L 229.0323769957894 199.94890214355328 L 229.05518425774568 199.9931007696957 L 229.07348758116947 200.0393466138599 L 229.08710585908656 200.08718208456304 L 229.0959043419189 200.13613386135066 L 229.09979597079928 200.1857175781887 L 229.0987422389978 200.23544261614853 L 229.0927535729367 200.28481695796313 L 229.08188922902337 200.3333520564193 L 229.0662567073226 200.3805676684146 L 229.0460106878692 200.42599660684718 L 229.0454889930101 200.42702618638913 L 229.04383411399294 200.43026289984996 L 229.04226367024313 200.43330711611733 L 229.04037331319103 200.43693496467066 L 229.03774608179123 200.4419270341255 L 229.03575306508947 200.44567531967942 L 229.03206100728048 200.45254845878398 L 229.0299766685053 200.45638832751663 L 229.02521174552794 200.465075752733 L 229.0230362447589 200.46900026509138 L 229.017190417854 200.47943519288168 L 229.01492118983813 200.48344242301786 L 229.0079864202465 200.49555806984426 L 229.0056198577061 200.49964771812319 L 228.99758810666853 200.5133773004478 L 228.99512005036453 200.51754968850756 L 228.98598327912185 200.53282642279257 L 228.98340919427335 200.53708211448142 L 228.9731593640664 200.55383921718894 L 228.97047441256498 200.55817884710436 L 228.9591034846345 200.57634953469653 L 228.95630255684682 200.58077371701674 L 228.9438024924337 200.60029120595573 L 228.94088022166278 200.6048004776558 L 228.92724298200778 200.62559798440373 L 228.9241937511298 200.63019276408394 L 228.90941129747375 200.65220350510293 L 228.90622924212192 200.6568840589818 L 228.89029353570567 200.68004125073404 L 228.88697254625265 200.68480766166067 L 228.86987554831697 200.70904452060827 L 228.86640927195384 200.7138966579216 L 228.84814294373956 200.73914640052672 L 228.84452478749324 200.74408388956945 L 228.82508109024116 200.77027973229423 L 228.82130422557444 200.77530192287682 L 228.80067512052537 200.80237708218337 L 228.79673249005194 200.80748301559805 L 228.7749099384467 200.83537070794856 Z" id="element_286" /></svg>