<?xml version='1.0' encoding='utf-8'?>
<svg xmlns:svg="http://www.w3.org/2000/svg" id="_0376_explosion" viewBox="0 0 500 500" data-imageid="explosion-21" imageName="Explosion" class="illustrations_image" style="width: 188px;"><svg:style>.cls-1_explosion-21{fill:url(#linear-gradient);}.cls-1_explosion-21,.cls-2_explosion-21,.cls-3_explosion-21,.cls-4_explosion-21,.cls-5_explosion-21,.cls-6_explosion-21,.cls-7_explosion-21,.cls-8_explosion-21,.cls-9_explosion-21,.cls-10_explosion-21,.cls-11_explosion-21,.cls-12_explosion-21,.cls-13_explosion-21,.cls-14_explosion-21,.cls-15_explosion-21,.cls-16_explosion-21,.cls-17_explosion-21,.cls-18_explosion-21,.cls-19_explosion-21,.cls-20_explosion-21,.cls-21_explosion-21,.cls-22_explosion-21,.cls-23_explosion-21,.cls-24_explosion-21,.cls-25_explosion-21{stroke-width:0px;}.cls-2_explosion-21{opacity:.18;}.cls-2_explosion-21,.cls-15_explosion-21,.cls-24_explosion-21,.cls-25_explosion-21{fill:#68e1fd;}.cls-2_explosion-21,.cls-15_explosion-21,.cls-25_explosion-21{isolation:isolate;}.cls-3_explosion-21{fill:url(#linear-gradient-11-explosion-21);}.cls-4_explosion-21{fill:url(#linear-gradient-12-explosion-21);}.cls-5_explosion-21{fill:url(#linear-gradient-13-explosion-21);}.cls-6_explosion-21{fill:url(#linear-gradient-10-explosion-21);}.cls-7_explosion-21{fill:url(#linear-gradient-17-explosion-21);}.cls-8_explosion-21{fill:url(#linear-gradient-16-explosion-21);}.cls-9_explosion-21{fill:url(#linear-gradient-19-explosion-21);}.cls-10_explosion-21{fill:url(#linear-gradient-15-explosion-21);}.cls-11_explosion-21{fill:url(#linear-gradient-21-explosion-21);}.cls-12_explosion-21{fill:url(#linear-gradient-18-explosion-21);}.cls-13_explosion-21{fill:url(#linear-gradient-14-explosion-21);}.cls-14_explosion-21{fill:url(#linear-gradient-20-explosion-21);}.cls-15_explosion-21{opacity:.4;}.cls-16_explosion-21{fill:url(#linear-gradient-4-explosion-21);}.cls-17_explosion-21{fill:url(#linear-gradient-2-explosion-21);}.cls-18_explosion-21{fill:url(#linear-gradient-3-explosion-21);}.cls-19_explosion-21{fill:url(#linear-gradient-8-explosion-21);}.cls-20_explosion-21{fill:url(#linear-gradient-9-explosion-21);}.cls-21_explosion-21{fill:url(#linear-gradient-7-explosion-21);}.cls-22_explosion-21{fill:url(#linear-gradient-5-explosion-21);}.cls-23_explosion-21{fill:url(#linear-gradient-6-explosion-21);}.cls-25_explosion-21{opacity:.5;}</svg:style><svg:path class="cls-25_explosion-21 targetColor" d="M 284.7442543913328 282.5876915147477 L 284.785339410467 282.61780564926454 L 284.8292752306223 282.64358322871317 L 284.9267210540813 282.69426856505834 L 285.02199523941283 282.7447624544529 L 285.11680766417106 282.7959523202466 L 285.21115534939713 282.8478346647883 L 285.30503531267794 282.9004059903439 L 285.3984445682079 282.9536627990183 L 285.4913801268474 283.0076015926773 L 285.5838389962339 283.0622188729018 L 285.67581818083096 283.1175111409087 L 285.7673146820142 283.17347489749517 L 285.85832549814455 283.2301066429779 L 285.9488476246583 283.28740287714544 L 286.0388780541588 283.3453600992139 L 286.1284137764417 283.40397480774266 L 286.2174517786815 283.46324350065737 L 286.3059890454149 283.52316267514266 L 286.3940225586757 283.5837288276378 L 286.48154929807356 283.6449384537971 L 286.5685662408995 283.7067880484734 L 286.6550703621538 283.7692741056484 L 286.74105863469754 283.83239311845375 L 286.8265280293089 283.8961415791283 L 286.9114755147559 283.9605159789885 L 286.9958980579375 284.02551280845444 L 287.07979262389 284.0911285569764 L 287.163156175943 284.1573597130791 L 287.2459856757801 284.22420276433627 L 287.3282780835189 284.2916541973634 L 287.4100303577931 284.3597104978147 L 287.49123945586973 284.4283681504134 L 287.571902333679 284.49762363891256 L 287.65201594594623 284.56747344614485 L 287.7315772462545 284.637914054018 L 287.8105831871246 284.70894194352803 L 287.88903072008884 284.7805535947706 L 287.9669167957939 284.85274548698175 L 288.0442383640458 284.9255140985316 L 288.12099237394034 284.9988559069987 L 288.1971757738543 285.07276738911884 L 288.27278551160515 285.14724502089666 L 288.3478185344821 285.22228527759944 L 288.42227178931194 285.29788463378674 L 288.49614222255263 285.3740395633721 L 288.56942678033414 285.450746539636 L 288.64212240854675 285.52800203529074 L 288.71422605291303 285.6058025225337 L 288.78573465901144 285.6841444730525 L 288.8566451723689 285.76302435810817 L 288.9269545385344 285.8424386486029 L 288.9966597030749 285.9223838150654 L 289.06575761171104 286.00285632779713 L 289.13424521029594 286.0838526568454 L 289.20211944491905 286.1653692721232 L 289.26937726193194 286.24740264344473 L 289.33601560798536 286.3299492405759 L 289.4020314300972 286.41300553332843 L 289.4674216756874 286.49656799161727 L 289.5321832925932 286.5806330854985 L 289.5963132291388 286.66519728527965 L 289.659808434157 286.7502570615736 L 289.7226658570096 286.83580888535585 L 289.78488244763986 286.92184922806825 L 289.8464551565709 287.00837456165453 L 289.90738093497225 287.0953813586952 L 289.96765673462073 287.18286609239857 L 290.0272795079803 287.27082523676535 L 290.08624620817045 287.3592552665982 L 290.14455378902755 287.4481526576525 L 290.20219920505 287.5375138866179 L 290.25917941147657 287.62733543130713 L 290.31549136423746 287.7176137706545 L 290.37113201998795 287.80834538484766 L 290.4260983360947 287.89952675538996 L 290.48038727062385 287.99115436517025 L 290.5339957823483 288.0832246985691 L 290.58692083074203 288.17573424154966 L 290.6391593759467 288.2686794817065 L 290.6907083787588 288.36205690835243 L 290.74156480064323 288.45586301266155 L 290.79172560366044 288.55009428765993 L 290.8411877504922 288.6447472284016 L 290.8899482043572 288.73981833194557 L 290.93800392904484 288.8353040975626 L 290.98535188881874 288.9312010266951 L 291.0319890484227 289.0275056231235 L 291.0779123730275 289.1242143930217 L 291.1231188281692 289.2213238449976 L 291.16760537973204 289.31883049023327 L 291.21136899388654 289.4167308425372 L 291.2544066370135 289.51502141836716 L 291.2967152757016 289.613698737025 L 291.33829187662286 289.71275932057966 L 291.37913340653745 289.8121996940942 L 291.4192368321658 289.91201638554475 L 291.4585991201792 290.01220592603056 L 291.49721723707194 290.11276484969864 L 291.53508814914744 290.21368969395786 L 291.5722088223883 290.3149769994044 L 291.6092246892831 290.41843576466835 L 291.6280648348228 290.46390326429554 L 291.6512837704275 290.5072982598099 L 291.6786565283311 290.5482002980361 L 291.70991789447277 290.58621308000824 L 291.74476497815044 290.62096830070186 L 291.7828601467222 290.65212921753357 L 291.8238342969217 290.6793939130525 L 291.86729043109153 290.70249822021185 L 291.9128075036854 290.7212182818782 L 291.9599445007689 290.73537271977784 L 292.0082447129943 290.7448243918673 L 292.0572401606474 290.7494817210998 L 292.1064561278929 290.7492995827127 L 292.15541576228605 290.744279741441 L 292.20364469498554 290.73447083441846 L 292.2506756369029 290.7199678999336 L 292.29605290625653 290.7009114566057 L 292.3393368436628 290.6774861419031 L 292.38010807198594 290.6499189231945 L 292.4179715596744 290.6184768986672 L 292.4525604482128 290.5834647094186 L 292.458422953114 290.5769148785311 L 292.4650884988236 290.5695602637317 L 292.4752805080213 290.55843215168323 L 292.48879113457116 290.54383817308184 L 292.50559748877157 290.52588195316036 L 292.5256750585448 290.5046688770897 L 292.54899872511317 290.4803049431928 L 292.57554307731607 290.4528964051514 L 292.60528253145833 290.4225496330687 L 292.63819138332724 290.38937105078844 L 292.67424383296293 290.3534671037728 L 292.71341399686924 290.31494424094507 L 292.7556759142379 290.27390890311705 L 292.8010035498579 290.23046751495184 L 292.8493707953847 290.1847264786107 L 292.90075146939364 290.13679216854655 L 292.9551193170736 290.0867709265548 L 293.01244800937434 290.0347690572153 L 293.07271114210647 289.98089282322974 L 293.1358822349178 289.9252484407123 L 293.2019347303 289.867942074285 L 293.2708419926128 289.8090798319861 L 293.34257730732463 289.74876775982113 L 293.41711388030865 289.68711183610253 L 293.4944248374405 289.62421796537757 L 293.5744832244126 289.5601919720343 L 293.6572620068893 289.4951395935017 L 293.7427340709711 289.4291664730933 L 293.83087222415 289.36237815238053 L 293.9216491966758 289.2948800631944 L 294.0150376434945 289.22677751917166 L 294.11101014676007 289.15817570689296 L 294.20953921909273 289.0891796765423 L 294.31059730751895 289.01989433219865 L 294.4141567982671 288.9504244217052 L 294.5201900225489 288.88087452611194 L 294.62866926331793 288.8113490487912 L 294.7395667631111 288.7419522042544 L 294.8528547332006 288.67278800664144 L 294.9685053640258 288.6039602580316 L 295.08649083705336 288.5355725366245 L 295.20678333819575 288.4677281848682 L 295.3293550728976 288.400530297642 L 295.4541782829353 288.3340817106533 L 295.5812252651473 288.2684849891285 L 295.71046839205076 288.203842417039 L 295.84188013451427 288.1402559870033 L 295.97543308654423 288.0778273910798 L 296.1110999922305 288.0166580126907 L 296.2488537748358 287.9568489199513 L 296.38866756805544 287.89850086067014 L 296.5305147494987 287.8417142592862 L 296.674368976093 287.78658921616034 L 296.8202042215717 287.7332255094386 L 296.9679948155933 287.68172259995146 L 297.11771548450463 287.63217963940895 L 297.2693413932786 287.58469548231506 L 297.42284818835964 287.5393687019126 L 297.5782120409213 287.4962976105085 L 297.7354096901112 287.45558028445146 L 297.8944184856041 287.4173145940502 L 298.05521642890295 287.381598238605 L 298.21778221255556 287.3485287867121 L 298.3820952566404 287.31820372185416 L 298.5481357415479 287.29072049325663 L 298.71588463629666 287.266176571819 L 298.8853237213934 287.2446695108498 L 299.05643560542984 287.2262970111634 L 299.22920373451717 287.2111569899774 L 299.40361239370463 287.19934765290026 L 299.5796466997174 287.19096756814474 L 299.757292584367 287.18611574197814 L 299.9365367680948 287.1848916942941 L 300.1173667234685 287.1873955330821 L 300.299770628379 287.1937280264987 L 300.48373730911 287.20399067119206 L 300.6692561736156 287.2182857555201 L 300.8563171355632 287.2367164163329 L 301.04491052993706 287.2593866880519 L 301.23502702126115 287.28640154289576 L 301.4266575057307 287.3178669212573 L 301.61979300859474 287.35388975140756 L 301.8144245784825 287.39457795795033 L 302.0105431803016 287.4400404586732 L 302.2081395884672 287.49038714971203 L 302.4072042822189 287.5457288792113 L 302.60772734476313 287.6061774099345 L 302.80969836783754 287.67184537151996 L 303.0131063631365 287.74284620329485 L 303.2179396819768 287.8192940887953 L 303.42418594419985 287.90130388324883 L 303.63183197721503 287.98899103543636 L 303.8408637657098 288.0824715053797 L 304.05126641242634 288.1818616793752 L 304.263024110034 288.2872782838317 L 304.4761201239512 288.39883829933507 L 304.6905367857515 288.5166588762714 L 304.91052276359517 288.64331409914263 L 304.91070713076886 288.6429938739512 L 304.9468390673917 288.66228576896646 L 304.99305570990697 288.68130627409926 L 305.04094029794027 288.695617943805 L 305.09001441510526 288.7050777897532 L 305.1397877603935 288.709591298333 L 305.1897630467871 288.7091133749419 L 305.2394409696682 288.7036487945272 L 305.2883251953869 288.6932521538792 L 305.33592732014625 288.6780273261532 L 305.3817717496589 288.65812642306963 L 305.4254004508249 288.63374827516094 L 305.4663775279539 288.60513644525 L 305.5042935778126 288.5725767950062 L 305.538769779985 288.5363946288928 L 305.5694616816787 288.4969514440403 L 305.5960626391634 288.4546413185172 L 305.6183068814577 288.40988697408403 L 305.63597216565523 288.3631355527676 L 305.6488819973602 288.3148541494508 L 305.65690739404846 288.2655251451138 L 305.6599681737358 288.21564138735044 L 305.65803375607857 288.1657012663132 L 305.6511234679028 288.1162037352817 L 305.6508706901508 288.11488017419384 L 305.6499265063577 288.1100647285037 L 305.6491365539822 288.1061380316814 L 305.6480215076557 288.1007489184318 L 305.64664695197746 288.09428506553695 L 305.6454319147052 288.08872696641475 L 305.6434253270452 288.07979193710935 L 305.6421142947933 288.07410932732824 L 305.6394282464721 288.0627691012742 L 305.63801904318854 288.05697391485427 L 305.63460610552704 288.0432944717135 L 305.6330950276123 288.03739128635095 L 305.6289077719313 288.0214386057855 L 305.6272905196477 288.0154296926302 L 305.62228151726805 287.99726975430195 L 305.62055347331795 287.99115657663253 L 305.61467529556035 287.97085536020336 L 305.6128316332677 287.964639138349 L 305.60603685145304 287.94226262348093 L 305.6040725874124 287.93594458893807 L 305.59631377286144 287.91155875529296 L 305.59422379910296 287.9051402835265 L 305.5854535231365 287.8788111107664 L 305.58323263150965 287.8722938007816 L 305.57340346544845 287.8440872685684 L 305.57104636948986 287.8374729969019 L 305.56011088465476 287.80745508489747 L 305.557612241368 287.80074604627794 L 305.54552300907983 287.76898273414423 L 305.5428774418676 287.762181474634 L 305.5295870334471 287.72873874203304 L 305.526789156874 287.7218481874861 L 305.51225014364195 287.68679201407974 L 305.509294590428 287.6798154953114 L 305.4934595437053 287.64321186076165 L 305.4903409941816 287.63615313604794 L 305.47316248528904 287.5980680200167 L 305.4698756994463 287.590931295137 L 305.4513062997045 287.55143067728625 L 305.4478461518828 287.5442206230622 L 305.42783843261276 287.5033704830538 L 305.424199948798 287.49609225016576 L 305.4027064813204 287.4539585676617 L 305.3988848789651 287.44661779846774 L 305.37585823460086 287.40326655313 L 305.3718489647936 287.39586939010223 L 305.34724171486346 287.35136656159267 L 305.3430405066205 287.3439196519856 L 305.3168052224452 287.29833121996614 L 305.31240812880293 287.29084171628676 L 305.2844973817033 287.24423366041947 L 305.27990082722994 287.23670921629076 L 305.25026718852683 287.1891475162375 L 305.24546801778047 287.18159627724464 L 305.2140640587946 287.1331469126673 L 305.20905958518676 287.1255775018292 L 305.175837877239 287.0763064523898 L 305.17062593167617 287.06872794992177 L 305.13553904608733 287.0187011952822 L 305.1301180247063 287.0111231124112 L 305.09311853279706 286.96040663223346 L 305.08748744304404 286.9528388788917 L 305.04852791613536 286.9014986528377 L 305.0426864203773 286.89395149914867 L 305.0017194297899 286.84205350688035 L 304.9956678856399 286.8345375384989 L 304.9526460026945 286.78214775967814 L 304.9463854991808 286.7746738271219 L 304.9012612951983 286.7218582414107 L 304.89479368394205 286.71443740369574 L 304.8475197302432 286.66126199075603 L 304.84084765081224 286.65390545375726 L 304.7913765187179 286.6004361932509 L 304.7845034173853 286.59315524336216 L 304.7327876782162 286.53945811495123 L 304.725717819432 286.53226404875994 L 304.67171004450904 286.4784050321063 L 304.6644485144747 286.4713090829065 L 304.6081012751186 286.41735415767215 L 304.60065397700464 286.410367419784 L 304.5419198445362 286.3563825656308 L 304.53429348500185 286.3495159175641 L 304.47312503074187 286.295567114154 L 304.4653270976035 286.28883114175136 L 304.4016768928728 286.2349843687463 L 304.3937156239223 286.22838928947033 L 304.32753624004164 286.1747105265323 L 304.3194205832179 286.168266116094 L 304.25066459150815 286.11482134288497 L 304.2424041568036 286.10853686538815 L 304.1710241285855 286.05539206156993 L 304.16262913225125 286.0492762043014 L 304.0885776388456 285.996497349536 L 304.08005884063607 285.99055816345634 L 304.0032884533637 285.9382112374057 L 303.9946570877112 285.93245608428055 L 303.91512037789283 285.8806070666066 L 303.9063880800382 285.87504257359024 L 303.8240376189948 285.82375744395495 L 303.8152163472 285.81838946627227 L 303.7300047062522 285.76773420433756 L 303.72110666130465 285.76256779654636 L 303.63298641177335 285.7126083819741 L 303.6240239550156 285.7076477780932 L 303.53294766822154 285.65845019054547 L 303.52393323937065 285.6536987931594 L 303.4298534866346 285.605329012298 L 303.420799522598 285.6007893905468 L 303.32366887524086 285.5533133960338 L 303.3145877311094 285.54898729223555 L 303.2143587604519 285.5024710637328 L 303.2052626337396 285.4983594082094 L 303.10188791110255 285.4528689253789 L 303.0927887702039 285.4489718589191 L 302.9862208669081 285.40457310142267 L 302.9771303846106 285.40089000469186 L 302.86732187197686 285.35764895219154 L 302.858251364726 285.35417848130186 L 302.74515481407514 285.3121611134596 L 302.73611518753165 285.30890124084226 L 302.61968317018443 285.26817353731997 L 302.61068487146406 285.2651215969992 L 302.49086995874126 285.2257495374588 L 302.4819229355721 285.2229022738083 L 302.35867769879457 285.18495183791174 L 302.3497913656836 285.182305456981 L 302.2230683761721 285.14584262439024 L 302.2142515875353 285.14339284691505 L 302.08400341661064 285.108483597292 L 302.0752644466978 285.10622571254885 L 301.9414436656809 285.07293602555546 L 301.932790195028 285.07086494528363 L 301.7953493752395 285.0392608005818 L 301.7867884832814 285.0373711122647 L 301.64568019604206 285.0075184895164 L 301.6372183594566 285.00580450840016 L 301.49239517608737 284.9777693872674 L 301.48403827238246 284.97622520657643 L 301.33545276420404 284.9500735667211 L 301.3272060800245 284.94869310561955 L 301.17481081835774 284.9244909267036 L 301.16667906196835 284.92326797563925 L 301.01042661813403 284.90108123732455 L 301.0024139355231 284.90000950047374 L 300.84225688084206 284.8799041824223 L 300.8343668749036 284.8789773170346 L 300.67025778069655 284.86101939890835 L 300.66249353295444 284.860231051423 L 300.4943849705422 284.8444865128838 L 300.486749064911 284.8438303517533 L 300.31459360561445 284.83036517246325 L 300.3070881537247 284.8298349176806 L 300.13083836886454 284.8187150773015 L 300.12346503650167 284.81830452667384 L 299.9430734973988 284.80959600486773 L 299.93583353166775 284.8092990571246 L 299.7512528096429 284.80306783355326 L 299.74414706648395 284.80287850840887 L 299.5553297328579 284.7991905627344 L 299.54835870460806 284.7991030180527 L 299.3552573307017 284.79802432993694 L 299.3484211734131 284.7980328761669 L 299.15098833054714 284.7996294252719 L 299.14428689083286 284.79972853733614 L 298.9424751503281 284.80406630332374 L 298.9359079915306 284.80425063015025 L 298.72966992470793 284.8113955926824 L 298.7232363522294 284.8116599645776 L 298.5125245304095 284.8216781033163 L 298.50622361607196 284.8220175373722 L 298.2909906105757 284.8349748319793 L 298.28482121590855 284.835384535711 L 298.0650195980567 284.8513469658485 L 298.05898039644035 284.8518223392475 L 297.83456273755377 284.87085588457734 L 297.8286522351659 284.8713925207613 L 297.59957110656535 284.8935631609454 L 297.593787662103 284.89415684557554 L 297.35999563510927 284.91953056027586 L 297.35433747827244 284.9201772699023 L 297.11578712420635 284.94882003878075 L 297.1102523729495 284.9495159382653 L 296.8668962631318 284.9814937409838 L 296.86148293969825 284.9822351801384 L 296.61327364544974 285.017613996359 L 296.60797969121705 285.0183975059268 L 296.35486978385865 285.0572433153113 L 296.34969307302896 285.0580656024062 L 296.0916351238813 285.10044438461665 L 296.08657347606203 285.1013023277233 L 295.823520056446 285.1472800624216 L 295.8185712481646 285.1481707060529 L 295.550474929401 285.19781337290095 L 295.5456367046074 285.1987339219932 L 295.272450058017 285.252107500653 L 295.26772013762593 285.2530553147745 L 295.25379181607616 285.2559163240224 L 295.2429955110318 285.24567450633026 L 295.24104868979526 285.243837547288 L 295.2076008762862 285.21244605868503 L 295.2056787784485 285.2106516114998 L 295.16965429527374 285.1771964497404 L 295.167743955091 285.17543158905596 L 295.12916827893343 285.13997910482175 L 295.1272598176814 285.1382342395883 L 295.086158425224 285.1008507835608 L 295.08424410125 285.0991186343634 L 295.0406424691758 285.05987055722426 L 295.0387160545201 285.05814548909325 L 294.99263965951195 285.0170991415241 L 294.99069601906365 285.01537671608816 L 294.94217033780455 284.97259844877055 L 294.94020513802604 284.97087511612426 L 294.889255647199 284.9264312797398 L 294.8872651500189 284.9247041618151 L 294.83391732630685 284.8786611070454 L 294.83189824035446 284.8769278424055 L 294.7761775604403 284.82935191993215 L 294.77412693171976 284.8276105507139 L 294.71605887228657 284.7785681112185 L 294.71397400249623 284.7768169995712 L 294.65358404022686 284.7263743937353 L 294.6514624248057 284.72461215928655 L 294.58877603638314 284.67283573779173 L 294.58661531683964 284.67106121034 L 294.5216579789469 284.6180173238679 L 294.51945590569085 284.61622950728207 L 294.4522530950108 284.56198450651425 L 294.45000749800295 284.5601825509952 L 294.38058469121864 284.5048027866133 L 294.3782934565135 284.5029859672811 L 294.3066761303079 284.44653778996667 L 294.304337181087 284.44470549029717 L 294.230550812143 284.38725525073187 L 294.22816209321417 284.3854069497602 L 294.15223215821476 284.3270209986255 L 294.14979162320077 284.32515626110666 L 294.0717435988289 284.26590094908425 L 294.069249199482 284.26401941801566 L 293.98910856242065 284.2039610957872 L 293.9865582396204 284.2020624868328 L 293.9043504665525 284.1412675050797 L 293.90174214265795 284.13935160255176 L 293.8174927102665 284.07788631195575 L 293.814824282571 284.0759529660885 L 293.72855866753895 284.01388371733117 L 293.72582800263206 284.01193284264417 L 293.6375716816423 283.9493259864071 L 293.6347766105295 283.94735756099783 L 293.5445550602651 283.88427944796257 L 293.5416933741327 283.88229351360917 L 293.4495320712766 283.81881049445735 L 293.44660151781494 283.8168071574344 L 293.35252593905 283.7529855828476 L 293.3495242192712 283.750965015384 L 293.2535598412805 283.6868712360438 L 293.2504846067836 283.6848336783631 L 293.15265690625006 283.6205340449511 L 293.14950575690176 283.61847980785205 L 293.0498402105083 283.5540406710499 L 293.0466106925222 283.5519701389943 L 292.9451327769519 283.4874578494835 L 292.9418223813514 283.4853714841613 L 292.8385575732871 283.42085239262354 L 292.8351637347595 283.4187507369807 L 292.7301375108841 283.3542911940976 L 292.72665760702756 283.3521748768067 L 292.6198954440242 283.2878412332597 L 292.61632679500343 283.2857109736222 L 292.507854169555 283.221569580093 L 292.50419403819353 283.2194261933657 L 292.39403642698295 283.1555434005358 L 292.3902820193114 283.15338780366835 L 292.2784648990217 283.0898299622195 L 292.27461336532355 283.0876631799985 L 292.16116221263763 283.0244966406122 L 292.15721064902704 283.02231981219916 L 292.0421509406279 282.959610925557 L 292.0380963912092 282.95742531141286 L 291.92145360377975 282.8952404281965 L 291.91729306343734 282.8930474173776 L 291.7990926736606 282.83145288826853 L 291.79482309153383 282.8292540060794 L 291.6750905760927 282.76831618175925 L 291.67070885980115 282.76611309774233 L 291.5494696953786 282.7058983288928 L 291.54497271606044 282.70369286513073 L 291.4222523793395 282.64426750243325 L 291.41763697757176 282.6420616421313 L 291.2934609452353 282.5834920362675 L 291.2887239379169 282.58128793258237 L 291.163117686648 282.5236404342339 L 291.15825587491815 282.521440419301 L 291.0312448813997 282.46478137914943 L 291.0262550596742 282.46258797325385 L 290.8978648005891 282.4069837419808 L 290.8927437668014 282.40479966281106 L 290.7629997188327 282.35031659109814 L 290.7577442859605 282.3481447630026 L 290.6266719257911 282.29484920153135 L 290.62127893475645 282.2926927646919 L 290.48890373906937 282.2406510641439 L 290.4833700730948 282.2385133835636 L 290.34971751857296 282.1877918946205 L 290.34404011907566 282.1856765688087 L 290.209135682402 282.13634164215205 L 290.20331156649945 282.134252511373 L 290.067180724357 282.08637049768447 L 290.06120700405444 282.0843116516211 L 289.92387523312607 282.0379489015822 L 289.9177491362426 282.03592468624583 L 289.77924191321137 281.99114755053813 L 289.77296080608875 281.9891625742396 L 289.6333036076376 281.9460374035448 L 289.62686501966374 281.94409654172273 L 289.4860833224755 281.9026896867224 L 289.47948497242345 281.9007980854052 L 289.33760425318127 281.8611758967808 L 289.3308440773507 281.8593389744432 L 289.1878898127374 281.8215678028765 L 289.18096599485557 281.81979125043557 L 289.0369636615542 281.7839374466081 L 289.0298746643469 281.78222722528625 L 288.8848497390404 281.7483571398796 L 288.8775943373637 281.7467194766546 L 288.73157229673495 281.71489946035035 L 288.7241496120998 281.71334084070156 L 288.57715593283183 281.68363724418134 L 288.56956546911465 281.6821644018406 L 288.4216256278905 281.65464357578594 L 288.41386730796256 281.65326347920234 L 288.26500678146505 281.6279917742949 L 288.2570809844296 281.6267116095336 L 288.1073252493417 281.6037553764549 L 288.0992328479894 281.60258252626676 L 287.9486073809942 281.58200811569844 L 287.94034977904835 281.58095013452544 L 287.7888800568287 281.56282389714914 L 287.7804592254726 281.5618884818652 L 287.62817072471154 281.5462767683625 L 287.6195892378368 281.5454717245999 L 287.4665074352172 281.5324408856523 L 287.457768502776 281.5317740896213 L 287.30391887498087 281.5213904759105 L 287.2950263737718 281.52086983169283 L 287.14043439748406 281.51319979390036 L 287.13139289865467 281.51283318628015 L 286.97608405055735 281.5079430750876 L 286.9668988430811 281.5077383180788 L 286.81089859985707 281.5056944841678 L 286.80157570921796 281.50565926550144 L 286.6449095475503 281.50652805955355 L 286.63545574886933 281.5066698815034 L 286.4781491454409 281.51051765420027 L 286.4685719702993 281.5108437712446 L 286.3106504017931 281.51773687326784 L 286.30095813804155 281.51825422720685 L 286.1424470811405 281.52825900923796 L 286.1326487650522 281.52897416251136 L 285.9735736964393 281.54215697523193 L 285.96367909665565 281.5430760432956 L 285.80406549301387 281.55950323738733 L 285.79408508584004 281.5606318211167 L 285.6339584238524 281.58036974726116 L 285.62390335960475 281.5817128664418 L 285.46328911595407 281.6048278753205 L 285.45317117621954 281.60638990435757 L 285.29209482758887 281.6329483466522 L 285.281926373446 281.6347329536791 L 285.1204133965183 281.66480118007115 L 285.1102073079519 281.66681127065664 L 284.94828317941005 281.70045563182777 L 284.94832202249125 281.7006425764406 L 284.9048576613727 281.71152983213386 L 284.8586582838174 281.7280602337443 L 284.81430163158694 281.7490393678258 L 284.77221488349016 281.7742651938487 L 284.73280335791816 281.80349477331856 L 284.6964466094067 281.83644660940666 L 284.6634947733186 281.87280335791814 L 284.6342651938487 281.91221488349015 L 284.6090393678258 281.95430163158693 L 284.58806023374433 281.9986582838174 L 284.5715298321339 282.0448576613727 L 284.55960735979835 282.0924548389919 L 284.5524076366639 282.14099142983514 L 284.54999999999995 282.18999999999994 L 284.5524076366639 282.23900857016474 L 284.55960735979835 282.287545161008 L 284.5715298321339 282.3351423386272 L 284.58806023374433 282.3813417161825 L 284.6090393678258 282.42569836841295 L 284.6342651938487 282.46778511650973 L 284.6634947733186 282.50719664208174 L 284.6964466094067 282.5435533905932 L 284.7064466094067 282.55355339059327 L 284.7442543913328 282.5876915147477 Z" style="fill: rgb(104, 225, 253);" id="element_368" /></svg>