<?xml version='1.0' encoding='utf-8'?>
<svg xmlns:svg="http://www.w3.org/2000/svg" id="_0376_explosion" viewBox="0 0 500 500" data-imageid="explosion-21" imageName="Explosion" class="illustrations_image" style="width: 188px;"><svg:style>.cls-1_explosion-21{fill:url(#linear-gradient);}.cls-1_explosion-21,.cls-2_explosion-21,.cls-3_explosion-21,.cls-4_explosion-21,.cls-5_explosion-21,.cls-6_explosion-21,.cls-7_explosion-21,.cls-8_explosion-21,.cls-9_explosion-21,.cls-10_explosion-21,.cls-11_explosion-21,.cls-12_explosion-21,.cls-13_explosion-21,.cls-14_explosion-21,.cls-15_explosion-21,.cls-16_explosion-21,.cls-17_explosion-21,.cls-18_explosion-21,.cls-19_explosion-21,.cls-20_explosion-21,.cls-21_explosion-21,.cls-22_explosion-21,.cls-23_explosion-21,.cls-24_explosion-21,.cls-25_explosion-21{stroke-width:0px;}.cls-2_explosion-21{opacity:.18;}.cls-2_explosion-21,.cls-15_explosion-21,.cls-24_explosion-21,.cls-25_explosion-21{fill:#68e1fd;}.cls-2_explosion-21,.cls-15_explosion-21,.cls-25_explosion-21{isolation:isolate;}.cls-3_explosion-21{fill:url(#linear-gradient-11-explosion-21);}.cls-4_explosion-21{fill:url(#linear-gradient-12-explosion-21);}.cls-5_explosion-21{fill:url(#linear-gradient-13-explosion-21);}.cls-6_explosion-21{fill:url(#linear-gradient-10-explosion-21);}.cls-7_explosion-21{fill:url(#linear-gradient-17-explosion-21);}.cls-8_explosion-21{fill:url(#linear-gradient-16-explosion-21);}.cls-9_explosion-21{fill:url(#linear-gradient-19-explosion-21);}.cls-10_explosion-21{fill:url(#linear-gradient-15-explosion-21);}.cls-11_explosion-21{fill:url(#linear-gradient-21-explosion-21);}.cls-12_explosion-21{fill:url(#linear-gradient-18-explosion-21);}.cls-13_explosion-21{fill:url(#linear-gradient-14-explosion-21);}.cls-14_explosion-21{fill:url(#linear-gradient-20-explosion-21);}.cls-15_explosion-21{opacity:.4;}.cls-16_explosion-21{fill:url(#linear-gradient-4-explosion-21);}.cls-17_explosion-21{fill:url(#linear-gradient-2-explosion-21);}.cls-18_explosion-21{fill:url(#linear-gradient-3-explosion-21);}.cls-19_explosion-21{fill:url(#linear-gradient-8-explosion-21);}.cls-20_explosion-21{fill:url(#linear-gradient-9-explosion-21);}.cls-21_explosion-21{fill:url(#linear-gradient-7-explosion-21);}.cls-22_explosion-21{fill:url(#linear-gradient-5-explosion-21);}.cls-23_explosion-21{fill:url(#linear-gradient-6-explosion-21);}.cls-25_explosion-21{opacity:.5;}</svg:style><svg:path class="cls-15_explosion-21 targetColor" d="M 333.15087030455595 335.6866672728812 L 333.1557102181192 335.6852442424071 L 333.23761503302677 335.6607130205879 L 333.2424363251708 335.65924247816145 L 333.32398941344564 335.6339179544837 L 333.3287915712717 335.6324001905491 L 333.409988480678 335.6062866935755 L 333.41477100381434 335.60472200245886 L 333.49560728211617 335.577823860752 L 333.5003696825972 335.5762125402171 L 333.5808408775587 335.5485340823397 L 333.5855826796875 335.54687643315407 L 333.6656843390729 335.5184219876687 L 333.6704050792647 335.5167183131816 L 333.7501327508381 335.48749220865096 L 333.7548319774475 335.4857428143836 L 333.83418120897306 335.4557493793703 L 333.838858482107 335.4539545726183 L 333.91782482134886 335.4231981356849 L 333.9224797126633 335.42135822513353 L 334.00105870738554 335.3898431148428 L 334.0056907998677 335.38795841019663 L 334.0838779978345 335.35568895511113 L 334.0884868855725 335.3537597667371 L 334.166277834548 335.3207402954195 L 334.17086312248784 335.3187669340038 L 334.2482533702362 335.2850017750167 L 334.25281467392585 335.2829845512376 L 334.3297997682112 335.24847803314367 L 334.33433671353504 335.24641725735756 L 334.41091220212155 335.21117370871946 L 334.4154244250235 335.2090696906638 L 334.4915858556753 335.17309344004417 L 334.4960730018733 335.1709464885541 L 334.5718159223545 335.1342418645155 L 334.57627764704466 335.1320522872578 L 334.65159760511943 335.09462361836296 L 334.6560335726743 335.0923917215842 L 334.7309261161068 335.0542433363957 L 334.73533599976486 335.0519694246872 L 334.8097966763192 335.0131056517677 L 334.814180157869 335.0107900278455 L 334.8882045153093 334.9712151957576 L 334.892561284766 334.96885816026 L 334.96614487085645 334.92857659756646 L 334.9704746261358 334.9261784488658 L 335.0436129886406 334.88519448412916 L 335.0479154352267 334.88275551816076 L 335.1206041219099 334.8410734799437 L 335.1248789725207 334.83859399005013 L 335.19711353114644 334.7962182069152 L 335.2013605053936 334.7936984837079 L 335.2731364837261 334.7506332842178 L 335.27735530777727 334.74807361545214 L 335.34866825358057 334.70432332816955 L 335.35285865981456 334.7017239986385 L 335.42370412085285 334.65729295212606 L 335.4278658475185 334.6546542435674 L 335.49823937155594 334.60954676638767 L 335.5023721624267 334.6068689574085 L 335.5722692972274 334.56108937812417 L 335.5763729012594 334.5583727441394 L 335.6457891945875 334.51192539131307 L 335.6498633655752 334.5091702045007 L 335.7187943651949 334.4620594066951 L 335.72283886143214 334.45926593596465 L 335.79128011510755 334.4114960217423 L 335.7952946990449 334.4086645327215 L 335.8632417545402 334.3602398306451 L 335.8672261924504 334.3573705856776 L 335.93467459752964 334.30829542430985 L 335.9386286591729 334.3053886824696 L 336.0055739616003 334.255667390373 L 336.0094974198923 334.25272340749376 L 336.07593516743196 334.20236031323105 L 336.0798277981187 334.19937934194786 L 336.1457535385348 334.14837877408166 L 336.14961511986934 334.1453610638876 L 336.215024400926 334.0937273509806 L 336.21885471335173 334.09067314829684 L 336.2837430828131 334.03841061891154 L 336.2875419086498 334.035320167172 L 336.35190491428006 333.98243314987116 L 336.3556720374202 333.9793066896173 L 336.41950522698346 333.9257995129635 L 336.42324043258975 333.92263728195553 L 336.4865393538501 333.8685142745115 L 336.4902424280633 333.8653165078495 L 336.55300262878495 333.8105819981777 L 336.5566733584357 333.80734892843765 L 336.61889038638276 333.75200724510086 L 336.62252855871424 333.7487391024794 L 336.68419796165085 333.69279457404025 L 336.68780336404643 333.68949158651424 L 336.7489206897368 333.6329485415353 L 336.75249310945685 333.62961093503105 L 336.813053905665 333.57247370207506 L 336.8165931295923 333.56910170064936 L 336.87659294408246 333.51137460827886 L 336.88009875847575 333.5079684343115 L 336.9395331390121 333.4496558110892 L 336.9430053292712 333.4462156854833 L 337.0018698236178 333.3873218599718 L 337.0053081740545 333.38384800236815 L 337.0635983299755 333.32437730313006 L 337.0670026235969 333.32086993212897 L 337.1247139888565 333.260826687727 L 337.12808400715977 333.2572860211187 L 337.18521212952203 333.19667456011547 L 337.1885476522952 333.19310081512305 L 337.24508807952435 333.13192546608116 L 337.2483888846633 333.1283188596085 L 337.3043371645234 333.0665839510906 L 337.307603027855 333.06294469998244 L 337.3629547081103 333.0006545605512 L 337.3661854032319 332.9969828818568 L 337.4209360316464 332.93414184007486 L 337.424131329772 332.930437951325 L 337.47827645411 332.867050335755 L 337.4814361239332 332.86331445524024 L 337.5349712919587 332.79938459444475 L 337.53809509952333 332.7956169415063 L 337.59101585900055 332.731149164048 L 337.59410356758843 332.7273499593701 L 337.6464054662815 332.6623485938116 L 337.6494568363089 332.65851805972386 L 337.701135421982 332.5929874346279 L 337.70415021091213 332.58912579541055 L 337.75520103132936 332.5230702393397 L 337.7581789935963 332.51917772153604 L 337.8085975965218 332.45260156305295 L 337.81153848346906 332.4486783957851 L 337.86132041666696 332.3815859634524 L 337.86422397649824 332.37763237874344 L 337.91336478773275 332.3100280011238 L 337.9162307654803 332.30604423421926 L 337.9647260025155 332.23793223987525 L 337.96755414001706 332.2339185295746 L 338.0153993506171 332.1653032470689 L 338.01818938651235 332.161259836054 L 338.06538011844134 332.0921455939493 L 338.06813178818044 332.0880727291179 L 338.1146635892026 332.01846385597673 L 338.11737662506977 332.01436178877753 L 338.1632450429492 331.9442626131626 L 338.1659191741011 331.9401315999315 L 338.21111975660193 331.86954645040544 L 338.21375470912193 331.8653867527019 L 338.2582830040084 331.7943199578273 L 338.26087850097514 331.79013184277153 L 338.30473005601124 331.7185877311111 L 338.3072858175824 331.7143714717215 L 338.3504561805324 331.6423543718379 L 338.35297192404556 331.63811024736435 L 338.39545664267354 331.5656244878201 L 338.3979320827598 331.5613527840802 L 338.4397267048299 331.48840269343805 L 338.442161553546 331.48410370314645 L 338.48326162682235 331.410693609969 L 338.4856555937955 331.40636763306827 L 338.5260566660423 331.3325018659182 L 338.52840945863323 331.3281492099021 L 338.5681070776146 331.25383209734196 L 338.5704184010954 331.2494530775763 L 338.6094081145755 331.17468894816875 L 338.61167767232166 331.1702838882083 L 338.6499550280646 331.095077070516 L 338.6521825217649 331.09064630241363 L 338.68974306753483 331.01500112499923 L 338.69192819741534 331.0105449896108 L 338.7287674809764 330.934465781037 L 338.73090994604036 330.92998462831673 L 338.76702351515667 330.85347571714607 L 338.76912301343947 330.8489699064372 L 338.8045064158752 330.7720356212323 L 338.8065626447148 330.76750552154664 L 338.8412114282341 330.6901501908702 L 338.84322408455586 330.6855961811601 L 338.8771337969229 330.6078241335748 L 338.8791025775407 330.60324660299267 L 338.91226876651956 330.5250621670611 L 338.91419336844825 330.5204615152136 L 338.9466115818031 330.4418690194983 L 338.94849170258885 330.4372456566824 L 338.9801574880839 330.3582494297462 L 338.9819928261463 330.3536037771761 L 339.0129017315456 330.2742081475815 L 339.0146919865331 330.2695406376052 L 339.04483955960075 330.1897499339149 L 339.04658443276065 330.1850610102115 L 339.0759662212609 330.1048795609881 L 339.0776654158206 330.10016967875504 L 339.10627696751754 330.01960181256123 L 339.10793018907896 330.01487143868434 L 339.13576705173676 329.9339214840827 L 339.1373740086821 329.92917109729075 L 339.1644317300649 329.84784338284396 L 339.15857454821224 329.84589469910514 L 338.69000000000005 330.18382716049376 L 338.40598623533526 329.2860180128739 L 338.4024360632769 329.28096823803486 L 338.1526284686475 329.4565918986275 L 337.90378768580854 329.62253285563526 L 337.65089779059474 329.78248484304993 L 337.39407288351833 329.9365344560547 L 337.13342870044403 330.08476686404845 L 336.8690826534666 330.22726602895114 L 336.6011538422822 330.36411491689495 L 336.3297630396144 330.495395699702 L 336.0550326544766 330.6211899433777 L 335.7770866770555 330.74157878165937 L 335.496050608919 330.8566430733676 L 335.21205138200816 330.96646354295416 L 334.92521726954203 331.0711209041856 L 334.6356777917644 331.1706959672813 L 334.3435636188831 331.26526973024426 L 334.04900647337473 331.35492345529974 L 333.7521390333739 331.4397387315617 L 333.4530948385048 331.51979752515683 L 333.1520081993385 331.59518221804336 L 332.8490141111628 331.665975636827 L 332.54424817276686 331.7322610727734 L 332.2378465105142 331.7941222942197 L 331.92994570798976 331.85164355246553 L 331.6206827411453 331.9049095821853 L 331.3101949190667 331.95400559724783 L 330.99861983004956 331.99901728280435 L 330.68609529290336 332.04003078435403 L 330.3727593131004 332.07713269445304 L 330.058750043658 332.11041003760135 L 329.74420575026267 332.1399502538155 L 329.4292647803788 332.16584118128776 L 329.11406553615524 332.18817103846595 L 328.7987464506076 332.2070284058656 L 328.4834459668898 332.2225022078386 L 328.1683025203878 332.2346816944943 L 327.85345452332547 332.2436564239307 L 327.5390403515624 332.2495162449001 L 327.22519833349116 332.2523512799985 L 326.9120667407021 332.2522519094521 L 326.5997837802436 332.2493087555507 L 326.28848758827604 332.2436126677595 L 325.9783162250669 332.2352547085306 L 325.6694076709382 332.2243261398184 L 325.36189982332286 332.21091841030335 L 325.05593049453535 332.1951231433078 L 324.75163741034834 332.17703212539567 L 324.4491582092071 332.15673729563696 L 324.148630441879 332.13433073550476 L 323.8501915717009 332.1099046593971 L 323.5539789751854 332.083551405746 L 323.26012994285543 332.0553634286807 L 322.96878168056895 332.02543329024274 L 322.68007131087626 331.9938536530907 L 322.3941358746891 331.9607172736956 L 322.11111233310305 331.9261169959895 L 321.8311375693123 331.8901457454375 L 321.55434839064753 331.85289652351435 L 321.2808815307394 331.8144624025654 L 321.0108736516752 331.7749365210149 L 320.7444613462366 331.73441207891284 L 320.4817811402385 331.6929823338053 L 320.22296949477715 331.65074059688385 L 319.9681628086707 331.6077802294396 L 319.71749742067396 331.5641946395394 L 319.47110961202924 331.52007727900326 L 319.2291356087957 331.4755216405766 L 318.99171158434535 331.4306212553492 L 318.7589736617587 331.385469690365 L 318.5310579165605 331.34016054649265 L 318.3081003791708 331.2947874564306 L 318.09023703779854 331.24944408298006 L 317.87760384124925 331.20422411747575 L 317.6703367020196 331.1592212784451 L 317.46857149970504 331.1145293105003 L 317.27244408467317 331.0702419834544 L 317.0820902821042 331.0264530916836 L 316.89764589697205 330.9832564538731 L 316.7192467193679 330.94074591302166 L 316.54702853129726 330.89901533698145 L 316.3811271147061 330.85815861950437 L 316.2216782617398 330.81826968206997 L 316.0688177874499 330.77944247660054 L 315.92268154667744 330.7417709895628 L 315.78340545639907 330.7053492478893 L 315.65112552593695 330.67027132748353 L 315.52597789919406 330.6366313656134 L 315.4080989145696 330.60452357901806 L 315.29762519282923 330.5740422909868 L 315.194693768981 330.545281972571 L 315.0994422976308 330.5183373073412 L 315.01200938431185 330.4933032965419 L 314.9325351443096 330.4702754372444 L 314.86116219653763 330.44935004025893 L 314.7980375490425 330.4306248349669 L 314.7433164820287 330.41420021831664 L 314.69717145519513 330.4001821285391 L 314.6598158455457 330.38868973180473 L 314.6315833264793 330.3798812530621 L 314.6113092671707 330.3734441211481 L 314.5632111692969 330.3607685061932 L 314.5140916531365 330.3529345183369 L 314.4644368247222 330.35001968580116 L 314.41473808774714 330.3520528549141 L 314.3654872804406 330.35901390463533 L 314.31717180814417 330.37083394568157 L 314.27026981975644 330.38739600228206 L 314.2252454757838 330.40853616981695 L 314.182544354826 330.43404523688156 L 314.1425890439546 330.4636707557249 L 314.1057749566259 330.49711954057153 L 314.0724664195136 330.53406056910353 L 314.042993066989 330.5741282583871 L 314.01764657892977 330.6169260828251 L 313.9966777941413 330.66203049833024 L 313.9802942279572 330.7089951338835 L 313.968658018586 330.7573552089975 L 313.96188432252796 330.80663213336663 L 313.96004017494096 330.85633824318467 L 313.96314382623405 330.9059816272576 L 313.97116456145454 330.9550709951501 L 313.9840230042551 331.0031205391886 L 314.0015919024332 331.049654742205 L 314.02369738726907 331.09421308344133 L 314.05012069419877 331.13635459604427 L 314.0806003277943 331.1756622310462 L 314.1148346496251 331.2117469846459 L 314.1524848633905 331.2442517479427 L 314.193178367781 331.2728548410269 L 314.5910507452646 331.5239125253077 L 314.5945039104818 331.52607186120787 L 314.98752607169195 331.7696158409502 L 314.99104680052744 331.77177745098885 L 315.37923537951184 332.0079095710879 L 315.3828247919692 332.01007242727553 L 315.76619642277575 332.23889453262655 L 315.7698556282715 332.24105755165704 L 316.14842694494814 332.46267148715526 L 316.1521570395509 332.4648335288845 L 316.5259446761454 332.6793411394252 L 316.52974673963314 332.6815010054069 L 316.8987673301933 332.8890041358853 L 316.9026424229228 332.8911605679752 L 317.26691260149664 333.0917610632864 L 317.270861761082 333.0939127423279 L 317.63039816171727 333.2877124473673 L 317.6344223995161 333.28985799197415 L 317.9892416562607 333.47695875163686 L 317.99334195366225 333.47909671708584 L 318.343460700564 333.6596003762672 L 318.3476380050833 333.66172925351873 L 318.69307287619 333.8357376571139 L 318.69732809736365 333.83785587197684 L 319.03809572672327 334.0054708648811 L 319.0424297318109 334.0075767773388 L 319.3785467534712 334.16890020444737 L 319.38296036296634 334.1709921081655 L 319.71444341097526 334.32612581437354 L 319.71893739392726 334.32820193640714 L 320.0458031023326 334.47724776661 L 320.05037817149014 334.4793062673312 L 320.37264317433977 334.6223660664241 L 320.3772999811213 334.6244050396909 L 320.6949809124631 334.76158065256897 L 320.69972004176606 334.7635981261554 L 321.0128335356478 334.8949913977139 L 321.01765550051016 334.8969853340241 L 321.3262181909798 335.0226981091584 L 321.3311234271082 335.02466640624584 L 321.63515194821355 335.14480052985107 L 321.64014080839655 335.1467410227631 L 321.93965179418547 335.26139833973446 L 321.9447245426122 335.26330880220524 L 322.2397346271326 335.37259115743797 L 322.2448914336403 335.37446930394844 L 322.53541725093993 335.4784785423379 L 322.5406581852181 335.4803220305645 L 322.8267163693448 335.5791599970057 L 322.8320413951211 335.58096643067347 L 323.11364858012286 335.6747349700619 L 323.1190575493688 335.67650190222207 L 323.3962303692934 335.7653028594528 L 323.40172301647914 335.76702779619825 L 323.67447810537436 335.85096301616653 L 323.6800540418153 335.85264342079836 L 323.94840803372915 335.9318147483994 L 323.95406674206123 335.93344804605545 L 324.21803627104146 336.00795732618457 L 324.2237770998721 336.00954090893765 L 324.48337879996666 336.07948998649005 L 324.4892009587441 336.08102121891926 L 324.7444514640007 336.1465119387901 L 324.7503540181516 336.14798816402634 L 325.0012699626182 336.209122371111 L 325.0072518290035 336.21054091735317 L 325.253849846728 336.26742045654674 L 325.259909789466 336.2687786440399 L 325.5022065144961 336.3215053602377 L 325.50834314120925 336.3228005087013 L 325.7463552075929 336.37147624679847 L 325.7525669661258 336.37270568328535 L 325.9863110079109 336.4174322881773 L 325.99259618357837 336.4185933553421 L 326.22208883481267 336.4594726719239 L 326.22844554822296 336.46056273667017 L 326.45370344295435 336.49769660983713 L 326.4601296484662 336.4987130723098 L 326.6811694207426 336.53220334695703 L 326.68766290559586 336.5331436498399 L 326.90450118946507 336.5630921708628 L 326.9110595736401 336.56395380893525 L 327.12371300314993 336.590462421229 L 327.13033373998934 336.5912429511301 L 327.3388189491877 336.6144134995899 L 327.3454993268236 336.61511054973374 L 327.5498329497584 336.63504487925485 L 327.55657009337585 336.63565615983487 L 327.7567687640949 336.65245611531253 L 327.7635596390591 336.65297942832893 L 327.95963999161023 336.6667468546583 L 327.96648140747425 336.6671801038972 L 328.1584600759053 336.6780168459736 L 328.1653486913172 336.6783580468657 L 328.3532423096761 336.68636594958434 L 328.360174638182 336.6866132388643 L 328.5439998405165 336.6918941471204 L 328.55097225726246 336.6920457922108 L 328.7307456776205 336.69470155089965 L 328.7377544269371 336.6947559589384 L 328.91349269936654 336.69488841295515 L 328.9205339032143 336.6948441393879 L 329.0922536617629 336.6925551336278 L 329.09932332900877 336.6924108902869 L 329.2670412077245 336.6878022696452 L 329.2741352442063 336.6875569322394 L 329.437867877137 336.68073054161135 L 329.44498209646986 336.6803831565526 L 329.6047461176633 336.6714408408334 L 329.6118762527227 336.6709906313335 L 329.7676882962268 336.66003423541844 L 329.77483001124995 336.65948060679125 L 329.92670671111256 336.6466119755755 L 329.93385561433365 336.64595451968876 L 330.08181360460264 336.63127549806757 L 330.0889652613462 336.63051399689493 L 330.23302117606937 336.6141264297636 L 330.24017112221196 336.61326085799544 L 330.3803415954372 336.5952665902491 L 330.3874853511401 336.5942971169304 L 330.5237870169153 336.57479799346436 L 330.53092010053746 336.5737249826361 L 330.66336959291044 336.55282284834556 L 330.6704875349935 336.55164685867845 L 330.7991014880121 336.52944355845864 L 330.8061998452426 336.52816534187457 L 330.9309948929547 336.5047627206207 L 330.93806926199494 336.50338321991194 L 331.05906203844836 336.4788831225193 L 331.06610806954035 336.47740346798196 L 331.18331520878303 336.45190773934576 L 331.19032861902326 336.45032924445695 L 331.30376675510297 336.42393972947235 L 331.310743341291 336.4222638856487 L 331.42042910825563 336.3950824292111 L 331.42736475923465 336.39331089969494 L 331.533314791132 336.3654393466994 L 331.5402054995228 336.3635739596306 L 331.64243643040083 336.3351141549725 L 331.64927830366565 336.33315689570696 L 331.7478067675721 336.30421068428143 L 331.7545960383268 336.3021636870288 L 331.8494386693096 336.27283291373107 L 331.85617170482675 336.27069845258643 L 331.94734513693373 336.2410849623118 L 331.9540184477811 336.23886544176514 L 332.04153931506016 336.2090710794088 L 332.0481495628273 336.2067690244159 L 332.13203449932627 336.1768956348731 L 332.13857850340406 336.17451368057806 L 332.21884414317077 336.144663108744 L 332.2253188865463 336.14220398994695 L 332.3019818636286 336.1124780807169 L 332.30838449768254 336.10994462117833 L 332.3814614461283 336.0804452194475 L 332.3877892943994 336.07784032113113 L 332.45729684825653 336.04866927179484 L 332.4635474091744 336.0459959041429 L 332.5295022024907 336.01725505209623 L 332.53567315103186 336.01451624145204 L 332.59809181785516 335.9863074315904 L 332.6041810061233 335.9835062508717 L 332.66308018050154 335.9559313280901 L 332.66908563715526 335.953070886853 L 332.7244819531362 335.9262316960469 L 332.73040188161144 335.9233151310843 L 332.782311973243 335.8973135171488 L 332.7881447486113 335.89434398382883 L 332.83658524994127 335.8692817916592 L 332.8423294141729 335.86626245627434 L 332.88731695924923 335.8422415307658 L 332.89297121446054 335.83917556429986 L 332.93452243733105 335.81629775034764 L 332.9400856362599 335.81318832431975 L 332.97821717097236 335.79155546681915 L 332.98368830333385 335.788405752316 L 333.01841678393623 335.76811969616216 L 333.02379495610325 335.7649328680866 L 333.05513701664336 335.7460954581748 L 333.06042141966395 335.7428747085947 L 333.0883936941896 335.72558778982017 L 333.09358354973546 335.72233635844503 L 333.11820267229456 335.70670177570304 L 333.12329713329717 335.7034230153357 L 333.1445797379376 335.68954261352144 L 333.14742809869193 335.687660510964 L 333.15087030455595 335.6866672728812 Z" style="fill: rgb(104, 225, 253);" id="element_394" /></svg>