<?xml version='1.0' encoding='utf-8'?>
<svg xmlns:svg="http://www.w3.org/2000/svg" id="_0376_explosion" viewBox="0 0 500 500" data-imageid="explosion-21" imageName="Explosion" class="illustrations_image" style="width: 188px;"><svg:style>.cls-1_explosion-21{fill:url(#linear-gradient);}.cls-1_explosion-21,.cls-2_explosion-21,.cls-3_explosion-21,.cls-4_explosion-21,.cls-5_explosion-21,.cls-6_explosion-21,.cls-7_explosion-21,.cls-8_explosion-21,.cls-9_explosion-21,.cls-10_explosion-21,.cls-11_explosion-21,.cls-12_explosion-21,.cls-13_explosion-21,.cls-14_explosion-21,.cls-15_explosion-21,.cls-16_explosion-21,.cls-17_explosion-21,.cls-18_explosion-21,.cls-19_explosion-21,.cls-20_explosion-21,.cls-21_explosion-21,.cls-22_explosion-21,.cls-23_explosion-21,.cls-24_explosion-21,.cls-25_explosion-21{stroke-width:0px;}.cls-2_explosion-21{opacity:.18;}.cls-2_explosion-21,.cls-15_explosion-21,.cls-24_explosion-21,.cls-25_explosion-21{fill:#68e1fd;}.cls-2_explosion-21,.cls-15_explosion-21,.cls-25_explosion-21{isolation:isolate;}.cls-3_explosion-21{fill:url(#linear-gradient-11-explosion-21);}.cls-4_explosion-21{fill:url(#linear-gradient-12-explosion-21);}.cls-5_explosion-21{fill:url(#linear-gradient-13-explosion-21);}.cls-6_explosion-21{fill:url(#linear-gradient-10-explosion-21);}.cls-7_explosion-21{fill:url(#linear-gradient-17-explosion-21);}.cls-8_explosion-21{fill:url(#linear-gradient-16-explosion-21);}.cls-9_explosion-21{fill:url(#linear-gradient-19-explosion-21);}.cls-10_explosion-21{fill:url(#linear-gradient-15-explosion-21);}.cls-11_explosion-21{fill:url(#linear-gradient-21-explosion-21);}.cls-12_explosion-21{fill:url(#linear-gradient-18-explosion-21);}.cls-13_explosion-21{fill:url(#linear-gradient-14-explosion-21);}.cls-14_explosion-21{fill:url(#linear-gradient-20-explosion-21);}.cls-15_explosion-21{opacity:.4;}.cls-16_explosion-21{fill:url(#linear-gradient-4-explosion-21);}.cls-17_explosion-21{fill:url(#linear-gradient-2-explosion-21);}.cls-18_explosion-21{fill:url(#linear-gradient-3-explosion-21);}.cls-19_explosion-21{fill:url(#linear-gradient-8-explosion-21);}.cls-20_explosion-21{fill:url(#linear-gradient-9-explosion-21);}.cls-21_explosion-21{fill:url(#linear-gradient-7-explosion-21);}.cls-22_explosion-21{fill:url(#linear-gradient-5-explosion-21);}.cls-23_explosion-21{fill:url(#linear-gradient-6-explosion-21);}.cls-25_explosion-21{opacity:.5;}</svg:style><svg:path class="cls-24_explosion-21 targetColor" d="M 338.0178331815941 289.2684130519873 L 338.0185252715378 289.26800321167946 L 338.0286470278212 289.2619983307098 L 338.0294233593541 289.26153681216056 L 338.04609342703424 289.251606295897 L 338.0468963785523 289.2511269522081 L 338.06995150898115 289.2373343068483 L 338.0707751689253 289.2368404806513 L 338.1000521134548 289.21924921239275 L 338.1008952844079 289.21874145672274 L 338.13623079438986 289.19741507176303 L 338.1370933848327 289.19689327704884 L 338.1783242116191 289.1718952815856 L 338.1792065156034 289.17135909956545 L 338.22616941054616 289.14275299979624 L 338.22707189682825 289.14220196696033 L 338.27960361127913 289.11005126908265 L 338.280526846542 289.1094848509769 L 338.338464131853 289.0738530611884 L 338.33940874868705 289.07327067024204 L 338.4025883562101 289.0342212947403 L 338.40355503865123 289.03362229764815 L 338.4718137197382 288.99121884263064 L 338.47280319659177 288.99060256304034 L 338.54597770259454 288.9449085347048 L 338.5469907445709 288.94427425354246 L 338.62491782684145 288.8953531580863 L 338.62595524570827 288.8947001125666 L 338.70847165559843 288.8426154561875 L 338.7095343045057 288.84194283799206 L 338.7964767933674 288.78675812688755 L 338.79756556790255 288.7860650797593 L 338.8887708870877 288.72784382012696 L 338.88988672682785 288.72712943699923 L 338.9851916276883 288.66593513503665 L 338.9863355181218 288.6651984547561 L 339.0855767520095 288.6010946166608 L 339.08674972675703 288.6003346203225 L 339.1897640450239 288.5333847522921 L 339.1909671883184 288.5326003591893 L 339.29759134231625 288.46286796742146 L 339.29882579172545 288.46205803059297 L 339.4088965328063 288.3896066212851 L 339.4101634821835 288.3887699226388 L 339.52351756169924 288.3136630019886 L 339.5248182643698 288.3127982469649 L 339.6412924336722 288.23509932116986 L 339.64262820585225 288.23420513290927 L 339.7620592162934 288.153977708167 L 339.763431440757 288.15305262113037 L 339.8856560436887 288.0703602036384 L 339.8870661736846 288.0694026566325 L 340.01192112045874 287.9843087525885 L 340.0133706838979 287.98331708112994 L 340.1406927258664 287.89588519673146 L 340.1421833297887 287.89485762468433 L 340.2718092183035 287.80515126612886 L 340.2733425536385 287.8040858965377 L 340.40510904005146 287.71216857002287 L 340.4066868866925 287.7110633750518 L 340.54043072235555 287.61699858677525 L 340.54205495455886 287.61585139665823 L 340.67761289082387 287.5197026528174 L 340.6792854829498 287.5185111437071 L 340.81649427116866 287.4203419504997 L 340.818217303783 287.4191036310894 L 340.9569136953077 287.31897749471284 L 340.9586893616525 287.31768969149556 L 341.09871010783485 287.21567011814756 L 341.1005407206868 287.21432995914813 L 341.24172257287876 287.1104804550262 L 341.24361057180147 287.109084851833 L 341.3857902813549 287.00346892313473 L 341.38773824035337 287.0020145510266 L 341.53075255862024 286.8946957039496 L 341.5327631942 286.89317897988946 L 341.67644887253215 286.78422072063125 L 341.67852505215467 286.7826377788707 L 341.822718841904 286.67210361362885 L 341.82486359282825 286.6704502786287 L 341.9694022453467 286.5584037136008 L 341.97161876382717 286.55667546993755 L 342.11633903046663 286.4431800113212 L 342.118630691269 286.4413719702032 L 342.26336932338137 286.3264911241959 L 342.2657396895511 286.3245979861636 L 342.41033343848824 286.20839525896304 L 342.4127862712878 286.20641127228794 L 342.5570718884017 286.0889501700916 L 342.55961115729326 286.08686908432645 L 342.7034253939358 285.96821311333196 L 342.7060552864477 285.9660281273875 L 342.84923489397073 285.84624079379245 L 342.851959825231 285.84394449783423 L 342.9943415549865 285.72308930783606 L 342.9971661766374 285.72067361820035 L 343.1385867799772 285.5988140779968 L 343.1415159881016 285.59627016421524 L 343.28181221637766 285.47346978000377 L 343.28485115795206 285.47078798291454 L 343.42385976251626 285.34711026089275 L 343.4270138397735 285.344280000677 L 343.5645715719777 285.2197884470425 L 343.5678464438817 285.21679811988713 L 343.70379005507783 285.09155624083746 L 343.70719163489395 285.0883931027676 L 343.8413578764339 284.9624644045004 L 343.8448923240999 284.9591144407583 L 343.9771179473356 284.83256242947107 L 343.9807916549844 284.8290102076525 L 344.1109134112678 284.7018983895428 L 344.11473297981547 284.69812689453113 L 344.24258762049834 284.57051877579664 L 344.24655982465464 284.56650922438206 L 344.371984101089 284.4384683112202 L 344.37611583945454 284.43419994417025 L 344.4989465029923 284.3057897427787 L 344.50324472904043 284.3012395920628 L 344.6233185310334 284.17252360863915 L 344.6277901596983 284.16766623754336 L 344.7449438514985 284.0387079782851 L 344.7495956347533 284.0335151923424 L 344.8636659677125 283.90437816344723 L 344.8685043308821 283.8988186905345 L 344.9793280563523 283.76956639819986 L 344.98435888489337 283.76360553692564 L 345.09177275422644 283.63430148734915 L 345.09700111828715 283.62790072414293 L 345.200841882835 283.4986084235222 L 345.2062716840144 283.491725020851 L 345.3063760951289 283.36250797538355 L 345.31200961648517 283.3550945365669 L 345.4082144255183 283.2260162524504 L 345.4140517620518 283.21802027301635 L 345.5061937203554 283.08914425644826 L 345.5122320630273 283.08050767840234 L 345.60014792195324 282.95189743558024 L 345.60638066409496 282.94255622998986 L 345.6899071749952 282.81427526711144 L 345.69632280621767 282.8041590828762 L 345.77529672044415 282.67627090613894 L 345.78187747080705 282.66530283962203 L 345.85613553971154 282.53787095522347 L 345.86285573744715 282.52596751754226 L 345.93223471238167 282.3990554316801 L 345.9390588241995 282.38612681865675 L 346.00339545651593 282.25979803752847 L 346.0102757938112 282.24574884184915 L 346.06940683486147 282.1200668716523 L 346.0762809367411 282.10479741662283 L 346.13004313787707 281.9798257635551 L 346.1368308887921 281.96323427973937 L 346.1850610013656 281.8390364499982 L 346.19166161427876 281.8210223528481 L 346.2341963896418 281.6976618526312 L 346.24048549154696 281.67813039814916 L 346.27716168105144 281.555670733654 L 346.2829888794457 281.53453930977366 L 346.31364323444353 281.41304398719785 L 346.31883071571764 281.3902502121127 L 346.3432999875606 281.26978273765377 L 346.3476428799733 281.24529434798296 L 346.36576382001346 281.12591822783855 L 346.3690331991777 281.09974441687837 L 346.38064255876685 280.981523157246 L 346.3825920064038 280.9537265542419 L 346.3875265368939 280.8367236613192 L 346.3879029828581 280.807431561311 L 346.38599943560104 280.6917105412955 L 346.3845585186422 280.66112341324043 L 346.3756536449898 280.54674777232975 L 346.3721789741222 280.51514269325247 L 346.3561095254265 280.4021759376442 L 346.35043409322867 280.3699026856517 L 346.3270368208415 280.2584083215433 L 346.31906367643757 280.22587663729155 L 346.2881753317109 280.11591817088066 L 346.27789388721527 280.0835762053328 L 346.2393512215009 279.97521714281703 L 346.22684567787974 279.9435230726956 L 346.1804854425296 279.8368269202725 L 346.16593299330765 279.8062175445389 L 346.11159193967364 279.70124780840604 L 346.09525043869957 279.6721089502623 L 346.03276531813367 279.56892913661727 L 346.01495236173287 279.54157241362606 L 345.9441599255869 279.44024602866637 L 345.9252270271885 279.4148950670999 L 345.8459640268144 279.31548561702317 L 345.8262702031631 279.29227261998034 L 345.73837338991274 279.19484361098415 L 345.71826195339435 279.17381510204956 L 345.62156807861965 279.07843004033145 L 345.6013491058879 279.0595592018169 L 345.4956949209408 278.96628159357454 L 345.4756343081398 278.9494841308474 L 345.3608565643722 278.85837748227794 L 345.34090137210256 278.84333503751964 L 345.2216908710096 278.75805968425226 L 345.20003765571323 278.7434107138313 L 345.08120540915826 278.6674688546724 L 345.05753831140873 278.6532486977106 L 344.939101386296 278.5864666336252 L 344.9134173253357 278.57295138296047 L 344.79539278856913 278.51515541491347 L 344.76775539117745 278.50264625867504 L 344.6501603096614 278.4536626876315 L 344.6207114443213 278.4424710765709 L 344.50356288495965 278.4021262034957 L 344.4725289868187 278.3925539448791 L 344.35584401651573 278.3606740707372 L 344.3235346658319 278.3529900911792 L 344.2073303514917 278.3294015169356 L 344.17412747977244 278.3238183141944 L 344.0584208882991 278.30834734081407 L 344.0247586510874 278.30500093677875 L 343.909566849385 278.29747386522655 L 343.8759042467154 278.29641094208273 L 343.7612443016881 278.29665407332374 L 343.7280343973928 278.2978287735742 L 343.61392337594475 278.30566840857335 L 343.58158381328946 278.3089492976083 L 343.46803878232475 278.3242117373305 L 343.4369278910748 278.3293973100403 L 343.3239659174976 278.3519088554506 L 343.2943672327291 278.3587484166791 L 343.1820053834434 278.3883353687423 L 343.154121423452 278.3965515563571 L 343.04237676536206 278.4330402160383 L 343.0163311133199 278.4423498598587 L 342.9052207133298 278.48556652812283 L 342.8810662789429 278.49569760030545 L 342.77060720395673 278.54546857811744 L 342.7483381377931 278.5561722291431 L 342.638547454715 278.612323817468 L 342.61811240325886 278.62338153974315 L 342.50900717899293 278.68574003954575 L 342.490322132394 278.69696667979736 L 342.38191943384436 278.7653583920428 L 342.36487907403523 278.77660203703863 L 342.25719596810603 278.8508532626917 L 342.2416830016307 278.86199304179667 L 342.134736555226 278.9419300818225 L 342.12062893702887 278.95287278247184 L 342.01443621705283 279.0383219378353 L 342.00161243190445 279.0489981163093 L 341.89619050526125 279.13978568797535 L 341.88453320227444 279.1501457438018 L 341.7798991358681 279.2460980327354 L 341.7692974491309 279.25610853450206 L 341.66546830986556 279.35705184166824 L 341.6558191815359 279.3666922559568 L 341.5528120363157 279.47245288232045 L 341.5440208151684 279.48171276384824 L 341.44185273089744 279.5921170103743 L 341.4338332673221 279.6009936524251 L 341.33252131090455 279.71586782007853 L 341.32519571896273 279.7243643308802 L 341.22475695730265 279.84353472062605 L 341.2180551705793 279.85165847534546 L 341.11850667058087 279.9749513881486 L 341.11236588282384 279.9827128012619 L 341.0137247113911 280.1099545380874 L 341.0080887651302 280.11736610244657 L 340.9103719891673 280.2483829642593 L 340.90519075464243 280.2554585081096 L 340.80841544105357 280.3900767958745 L 340.8036442125657 280.39683091542787 L 340.70782742825486 280.53487693010993 L 340.7034263542485 280.54132456187585 L 340.6085851661199 280.68262460444004 L 340.60451872182824 280.68878070771586 L 340.51067019678595 280.8331610791272 L 340.50690670322155 280.83904040457344 L 340.4140679081697 280.98632740579677 L 340.41057909796154 280.9919443307429 L 340.3187670998043 281.1419642627433 L 340.31552772832833 281.1473326778185 L 340.22475959396974 281.2999118415608 L 340.22174709302107 281.3050450764853 L 340.1320398893653 281.46000977293454 L 340.1292340599995 281.4649205519221 L 340.04060485395064 281.62209708204324 L 340.0379875948783 281.6267975013692 L 339.95045345334046 281.7860121661272 L 339.9480085212612 281.79051368808484 L 339.86158651113857 281.9515927884446 L 339.8592993095526 281.95590624722183 L 339.77400649774927 282.1186760841484 L 339.77186389101166 282.1228117002021 L 339.6877173444317 282.2870985746604 L 339.6857074940939 282.2910659749671 L 339.60272427964145 282.4566961879221 L 339.60083650040974 282.4605044301168 L 339.5190336849889 282.6273042825335 L 339.5172583179109 282.6309618814384 L 339.4366529684258 282.79875767428166 L 339.43498126918706 282.80227262970607 L 339.3555904525419 282.97089066394085 L 339.3540144930033 282.97427048892285 L 339.27585527610216 283.1435370655142 L 339.274367857432 283.146788814405 L 339.1974573071789 283.31653023431784 L 339.1960518831396 283.3196605302775 L 339.12040706643876 283.4897030944768 L 339.1190776755691 283.4927181560808 L 339.04471565932465 283.66288816553146 L 339.0434568649143 283.66579383229293 L 338.9703947160302 283.83591758796 L 338.96920155292787 283.8387193446421 L 338.8974563383085 284.0086231474905 L 338.8963242657265 284.01132614713737 L 338.8259130522758 284.1808362981321 L 338.8248379118585 284.18344538380006 L 338.7557777664806 284.352388183906 L 338.75475574500257 284.35490790909006 L 338.6870637346017 284.5231096592722 L 338.6860913307387 284.5255443070586 L 338.6197845222188 284.692831308282 L 338.6188585169066 284.69518490926686 L 338.55395397717194 284.8613834624963 L 338.5530714071309 284.8636598115175 L 338.48958620308554 285.0285962177181 L 338.4887443371394 285.0307988894621 L 338.4266955356875 285.19429944959876 L 338.42589185355416 285.1964318131379 L 338.3652965215998 285.3583228281755 L 338.36452869486925 285.36038806050175 L 338.3054038993165 285.52049583140536 L 338.30466977436873 285.52249693001977 L 338.24703258212185 285.68064775775434 L 338.24633016476645 285.68258755237156 L 338.1901976427294 285.83860773790195 L 338.1895250843743 285.84048890133454 L 338.1349142994513 285.99420474562584 L 338.1342698846342 285.99602980389443 L 338.08119790372933 286.14726760791154 L 338.0805800388621 286.14903894964465 L 338.0290639288795 286.29762501435255 L 338.02847113207525 286.29934489951825 L 337.978527959919 286.4451055258819 L 337.97795885178647 286.446776093904 L 337.92960568436075 286.58953758288834 L 337.9290589796652 286.59116086018656 L 337.8823128838741 286.7307495127565 L 337.8817873839725 286.73232741975545 L 337.8366654267202 286.86856953687607 L 337.8361600126938 286.8701038945168 L 337.7926792608843 287.00282577715296 L 337.79219288729524 287.00431831294605 L 337.75037040783275 287.1333462620628 L 337.74990209704515 287.13479861570795 L 337.7097549568337 287.25995893227014 L 337.7093037938412 287.26137266087727 L 337.670849059785 287.38249164584994 L 337.6704141874993 287.3838682287778 L 337.6336689265024 287.50077218312595 L 337.63324954145696 287.5021130264663 L 337.59823082042357 287.6146282511548 L 337.5978261688578 287.61593469186874 L 337.56455105469195 287.72388748786256 L 337.5641604289829 287.7251607975846 L 337.5326459885888 287.8283774658487 L 337.53226872400614 287.82961885434867 L 337.5025320242878 287.92792569584805 L 337.5021674960504 287.9291363141447 L 337.474225603912 288.0223596298443 L 337.47387322453864 288.0235405729243 L 337.4477432068843 288.11150666378904 L 337.44740242383807 288.1126589728605 L 337.4231013475719 288.19519413985546 L 337.4227716412185 288.19631880399857 L 337.4003165732446 288.2732493480886 L 337.39999745518037 288.27434730503995 L 337.3794054624029 288.34549952719 L 337.37909647426915 288.3465716627744 L 337.3603846235922 288.4117718639495 L 337.36008533662164 288.41281900919313 L 337.3432706949493 288.47189349035824 L 337.34298071076614 288.47291641428524 L 337.3280803450026 288.52569147640526 L 337.32779929886885 288.5266908700186 L 337.3148302759182 288.5729928140585 L 337.3145578453554 288.5739692544884 L 337.30353723212176 288.6136243814132 L 337.3032731590842 288.61457824556265 L 337.2942180224717 288.64741285633727 L 337.2939621759544 288.6483440832473 L 337.2868895828671 288.6741844788367 L 337.2866421749321 288.67509175735375 L 337.2815691922742 288.6937642387229 L 337.28133186358286 288.69464093742806 L 337.2782755582584 288.70597180554194 L 337.27806553374893 288.70675295749345 L 337.2770429726621 288.71056851331696 L 337.26664715220335 288.7587413538695 L 337.26104414740587 288.8077036045035 L 337.26028839024315 288.8569796075985 L 337.26438722273167 288.9060906574971 L 337.273300825605 288.95455965102616 L 337.286942605149 289.00191572245086 L 337.30518003444115 289.0476988178325 L 337.32783594082065 289.0914641643527 L 337.3546902270824 289.1327865911846 L 337.38548200967364 289.17126465993505 L 337.4199121531205 289.2065245645313 L 337.4576461760646 289.2382237626657 L 337.49831750067636 289.2660543035198 L 337.54153101387925 289.28974581943953 L 337.586866905787 289.30906815249836 L 337.63388474806584 289.3238335904312 L 337.68212777259976 289.33389869021863 L 337.73112730889335 289.33916567160435 L 337.7804073371042 289.33958336700925 L 337.82948911247155 289.33514771861326 L 337.87789581621826 289.3259018177762 L 337.925157187741 289.31193548641465 L 337.97081409309004 289.2933844044016 L 338.0144229853558 289.2704287914657 L 338.0178331815941 289.2684130519873 Z" style="fill: rgb(104, 225, 253);" id="element_363" /></svg>