<?xml version='1.0' encoding='utf-8'?>
<svg xmlns:svg="http://www.w3.org/2000/svg" id="_0376_explosion" viewBox="0 0 500 500" data-imageid="explosion-21" imageName="Explosion" class="illustrations_image" style="width: 188px;"><svg:style>.cls-1_explosion-21{fill:url(#linear-gradient);}.cls-1_explosion-21,.cls-2_explosion-21,.cls-3_explosion-21,.cls-4_explosion-21,.cls-5_explosion-21,.cls-6_explosion-21,.cls-7_explosion-21,.cls-8_explosion-21,.cls-9_explosion-21,.cls-10_explosion-21,.cls-11_explosion-21,.cls-12_explosion-21,.cls-13_explosion-21,.cls-14_explosion-21,.cls-15_explosion-21,.cls-16_explosion-21,.cls-17_explosion-21,.cls-18_explosion-21,.cls-19_explosion-21,.cls-20_explosion-21,.cls-21_explosion-21,.cls-22_explosion-21,.cls-23_explosion-21,.cls-24_explosion-21,.cls-25_explosion-21{stroke-width:0px;}.cls-2_explosion-21{opacity:.18;}.cls-2_explosion-21,.cls-15_explosion-21,.cls-24_explosion-21,.cls-25_explosion-21{fill:#68e1fd;}.cls-2_explosion-21,.cls-15_explosion-21,.cls-25_explosion-21{isolation:isolate;}.cls-3_explosion-21{fill:url(#linear-gradient-11-explosion-21);}.cls-4_explosion-21{fill:url(#linear-gradient-12-explosion-21);}.cls-5_explosion-21{fill:url(#linear-gradient-13-explosion-21);}.cls-6_explosion-21{fill:url(#linear-gradient-10-explosion-21);}.cls-7_explosion-21{fill:url(#linear-gradient-17-explosion-21);}.cls-8_explosion-21{fill:url(#linear-gradient-16-explosion-21);}.cls-9_explosion-21{fill:url(#linear-gradient-19-explosion-21);}.cls-10_explosion-21{fill:url(#linear-gradient-15-explosion-21);}.cls-11_explosion-21{fill:url(#linear-gradient-21-explosion-21);}.cls-12_explosion-21{fill:url(#linear-gradient-18-explosion-21);}.cls-13_explosion-21{fill:url(#linear-gradient-14-explosion-21);}.cls-14_explosion-21{fill:url(#linear-gradient-20-explosion-21);}.cls-15_explosion-21{opacity:.4;}.cls-16_explosion-21{fill:url(#linear-gradient-4-explosion-21);}.cls-17_explosion-21{fill:url(#linear-gradient-2-explosion-21);}.cls-18_explosion-21{fill:url(#linear-gradient-3-explosion-21);}.cls-19_explosion-21{fill:url(#linear-gradient-8-explosion-21);}.cls-20_explosion-21{fill:url(#linear-gradient-9-explosion-21);}.cls-21_explosion-21{fill:url(#linear-gradient-7-explosion-21);}.cls-22_explosion-21{fill:url(#linear-gradient-5-explosion-21);}.cls-23_explosion-21{fill:url(#linear-gradient-6-explosion-21);}.cls-25_explosion-21{opacity:.5;}</svg:style><svg:path class="cls-24_explosion-21 targetColor" d="M 174.22881094663614 297.5416142355004 L 174.27661247275543 297.5481139653529 L 174.32481789030922 297.54997678739414 L 174.37297845846152 297.5471853607449 L 174.42064585387632 297.53976567059925 L 174.4673763441279 297.52778678632995 L 174.51273491837466 297.5113602185268 L 174.55629933684446 297.49063888095225 L 174.59766406143487 297.46581566707795 L 174.63644403083885 297.43712165445305 L 174.6722782450532 297.4048239536196 L 174.7048331259024 297.3692232215992 L 174.73380562229408 297.3306508630983 L 174.75892603130043 297.28946594548466 L 174.77996050880378 297.24605185625484 L 174.7967132463349 297.20081273410705 L 174.80902829384036 297.1541697068422 L 174.81679101141052 297.10655697111514 L 174.8199291364544 297.0584177505284 L 174.81841345638705 297.010200169695 L 174.81225808056746 296.962353082678 L 174.80152030895545 296.9153218946397 L 174.7863000987105 296.86954441559607 L 174.78498270067135 296.86614023812086 L 174.78463580237016 296.8652463945458 L 174.78070327229437 296.85514228230824 L 174.7803115577914 296.85413902223286 L 174.77379339174158 296.83749760551495 L 174.77338535248813 296.83645926034546 L 174.76431104652676 296.81344316942915 L 174.76388941560745 296.812377325728 L 174.75228846579714 296.7831491908953 L 174.75185361615988 296.782057348413 L 174.73775551856318 296.746779799946 L 174.7373072575191 296.7456620284629 L 174.7207415081985 296.7044976966435 L 174.72027943463334 296.70335356547275 L 174.7012755296515 296.6564650805831 L 174.70079913764144 296.65529393054095 L 174.6793865730608 296.60284392286286 L 174.67889528865882 296.60164496516614 L 174.65510356054205 296.5437960649818 L 174.65459675617564 296.5425684223743 L 174.62845536058518 296.4794832599656 L 174.62793236057934 296.47822598516603 L 174.59947079357784 296.410067190815 L 174.59893087565212 296.4087792748974 L 174.56817863330207 296.3357094788861 L 174.56762102801054 296.3343898547405 L 174.53460760637452 296.25657168735086 L 174.53403149535328 296.2552192305104 L 174.49878639049385 296.17281532202446 L 174.49819090392594 296.1714288499707 L 174.46074361190566 296.08460183067047 L 174.46012782539893 296.0831801011776 L 174.42050784228033 295.9920926013451 L 174.4198707732508 295.99063431016424 L 174.37810759509645 295.8954489600814 L 174.37744819869417 295.89395273812687 L 174.33357132156658 295.7948321680758 L 174.33288848615115 295.7932965782097 L 174.28692740611294 295.69040341847233 L 174.28621994826287 295.6888269519279 L 174.23820416137656 295.5823238327863 L 174.23747082040882 295.5807049052655 L 174.18742982273696 295.47075445700165 L 174.18666925469606 295.46909140444785 L 174.13463254230123 295.3558562573437 L 174.1338433133742 295.3541473313943 L 174.07984038231893 295.2377901157319 L 174.07902096162144 295.2360334788459 L 174.02308130796828 295.1167168249073 L 174.02223005963916 295.1149105451548 L 173.96438317945066 294.99279708322194 L 173.96349835398414 294.9909391287245 L 173.9037737433229 294.8661914890794 L 173.90285346805896 294.8642797220876 L 173.8412806229875 294.73706053501223 L 173.8403228916691 294.7350927056024 L 173.77693130824997 294.6055646013789 L 173.77593396954674 294.6035383407563 L 173.71075314384248 294.47186394966656 L 173.7097138887257 294.46977676305494 L 173.64277331679892 294.33611871538096 L 173.6416896646399 294.3339679744864 L 173.5730188425531 294.19848890051026 L 173.57188812580173 294.1962718355468 L 173.50151654961746 294.05913436555045 L 173.5003358968977 294.05684805681375 L 173.42829306267856 293.9182148210792 L 173.4270593801187 293.9158561900637 L 173.35337478392722 293.775889818873 L 173.3520847345217 293.773455618933 L 173.2767878724204 293.6323187425681 L 173.27543785319025 293.62980554912554 L 173.19855822124174 293.48766079786844 L 173.19714433793538 293.4850649981854 L 173.11871143220222 293.34207500231815 L 173.11722947124437 293.33939278486247 L 173.03727278778905 293.19572017466703 L 173.03571818514845 293.192947518116 L 172.95426722003359 293.04875492387447 L 172.95263502663926 293.04588758582116 L 172.86971927592737 292.9013376378154 L 172.86800411921692 292.8983711432707 L 172.78365307897056 292.75362647178287 L 172.78184912010335 292.7505561016009 L 172.69609228638507 292.6057793369129 L 172.69419317259252 292.6026001163053 L 172.6070600414649 292.4579538886992 L 172.60505885295055 292.45466057606404 L 172.51657892047612 292.3103075158218 L 172.5144681112046 292.30689459217626 L 172.42467087344593 292.16299732957987 L 172.4224422050845 292.1594589889703 L 172.33135715810414 292.0161801543018 L 172.32900162629943 292.01251029567504 L 172.23665826615994 291.87001251921646 L 172.23416601824124 291.86620474036107 L 172.14059384100514 291.72465065239436 L 172.13795408411758 291.720698246733 L 172.04318258584746 291.5802504775402 L 172.04038348442424 291.5761464347524 L 171.94444216118265 291.4369676146155 L 171.94147072257607 291.43270462632756 L 171.84438907042554 291.29495738552856 L 171.84123101743785 291.2905278576183 L 171.74303853244095 291.15437482643927 L 171.7396781614346 291.14977089989384 L 171.6404043396539 291.0153747086167 L 171.63682436289074 291.01058829135235 L 171.53649870038876 290.8781115702592 L 171.53268007127252 290.87313438290187 L 171.43133206411184 290.7427397622746 L 171.42725378410242 290.7375634016033 L 171.32491292834558 290.60941351172403 L 171.32055183453198 290.6040295363492 L 171.21724762624154 290.47828700749983 L 171.21257815893009 290.47268705137594 L 171.1083400941686 290.3495145138385 L 171.10333404445217 290.3436904344548 L 170.9981916192822 290.22325051851135 L 170.99281785747968 290.21719458805063 L 170.88680056796375 290.0996499239832 L 170.88102475518082 290.09335507342746 L 170.77416209738152 289.978868291518 L 170.7679463843939 289.97232841958066 L 170.66026785437379 289.86106215011114 L 170.6535705747729 289.8542725109719 L 170.5451056685945 289.74638938422436 L 170.5378810368938 289.7393470702284 L 170.42865925061966 289.6350097164849 L 170.42085708109462 289.62771425408613 L 170.31090791078734 289.52708530362855 L 170.30247337954742 289.5195393826248 L 170.1918263212695 289.42278146573534 L 170.18269980278177 289.4149918227988 L 170.0713843525958 289.3222675697593 L 170.0615013729175 289.3142460467132 L 169.94954702688602 289.22571808780566 L 169.938838389454 289.21748288205487 L 169.82627464363955 289.1333138475614 L 169.81466679951043 289.12489096511683 L 169.7015231499756 289.04524348531936 L 169.68893890239167 289.0366683941634 L 169.575244845199 288.961705099344 L 169.56160449686416 288.9530245601953 L 169.44738952807617 288.8829080806359 L 169.43261259585384 288.8741821009726 L 169.31790621153314 288.80907506695524 L 169.30191384292652 288.8003788801374 L 169.18674553913561 288.74044392194406 L 169.16946376103232 288.7318698351223 L 169.0538630338338 288.67726958303507 L 169.03522693722468 288.6689284663241 L 168.9192232826811 288.6198255506249 L 168.8991821860742 288.6118476612162 L 168.78280510024805 288.5684047121871 L 168.76132862781873 288.56093947276224 L 168.64460760677264 288.5233191206852 L 168.6216924572449 288.51653342237654 L 168.5046569970414 288.48489829753356 L 168.48033396814193 288.4789729032028 L 168.36301356484358 288.45348563587595 L 168.33735415584542 288.4486093541363 L 168.21977830551475 288.4294325746075 L 168.19289999121224 288.4257940888095 L 168.0750981899118 288.41309042736077 L 168.04716731275076 288.4108680064623 L 167.92916905654315 288.40480009337574 L 167.90040030306218 288.40414985425787 L 167.7822350880099 288.4048803198154 L 167.75288677243182 288.4059241729382 L 167.63458409459744 288.41361564742186 L 167.60494898787087 288.4164304137499 L 167.486538343317 288.43124552744166 L 167.45693049845116 288.43585482492534 L 167.33844138324028 288.4579562081072 L 167.30918016562705 288.4643264729066 L 167.19064207582173 288.49387675586064 L 167.16203520429391 288.5019181859883 L 167.04347763595675 288.53907999899644 L 167.0158052897995 288.54865240520996 L 166.89725773899298 288.5935883785543 L 166.87075959985037 288.60451110719896 L 166.7522515626371 288.6573838711614 L 166.72711809026868 288.6694483463274 L 166.6086790627112 288.73042053118996 L 166.5850475214276 288.7434036958361 L 166.46670699958847 288.8126379318809 L 166.444661976268 288.82631497406766 L 166.32644945620976 288.9039738915766 L 166.30602702268902 288.91812903327747 L 166.18797200047422 289.00437526253256 L 166.16916636385992 289.0188099141782 L 166.0512983355511 289.1138060854615 L 166.03406978362625 289.1283441815789 L 165.916418245286 289.23225292517236 L 165.9007013582376 289.2467436543536 L 165.78329580592847 289.35972760053926 L 165.76881835185577 289.3742431243723 L 165.6563928108628 289.4916841502828 L 165.64181481681177 289.5075854646458 L 165.5389682612655 289.6247445774553 L 165.52421824897428 289.64234670038377 L 165.4307775982058 289.75920522543635 L 165.4160146331179 289.7786206474166 L 165.33180680645827 289.89515991005624 L 165.31722677842797 289.9164767406839 L 165.24207869520828 290.0326780662547 L 165.22791381119237 290.0559478023479 L 165.1616523907436 290.1717925161938 L 165.1481670072132 290.1970167456711 L 165.09061916886648 290.3124861731362 L 165.07810103315148 290.33960363661987 L 165.0290936962378 290.45467910304825 L 165.0178401615453 290.48355513556265 L 164.97720024539575 290.59821796629836 L 164.96749989154495 290.62863870549603 L 164.93505431549056 290.74287022588305 L 164.92716554218654 290.77454384553266 L 164.90274122555837 290.88832538091503 L 164.89687050716623 290.92089180460704 L 164.8802943692953 291.03420468032886 L 164.87657756398232 291.06725377532956 L 164.86767652419974 291.1800793167348 L 164.8661665424409 291.21317577876897 L 164.86476752007772 291.3254953112018 L 164.86543064274412 291.3582068763356 L 164.8713605571313 291.4700017251399 L 164.87408198312275 291.5019265446609 L 164.88716775359146 291.6131780351808 L 164.89176508833933 291.6439673207333 L 164.91183363422053 291.7546567783129 L 164.91807560551527 291.78403004797633 L 164.94495384614007 291.89413879795956 L 164.95258094245838 291.9218907624441 L 164.98609579715782 292.0314001301751 L 164.99483979926507 292.0573998799658 L 165.03481818737018 292.16629119078857 L 165.0444184374601 292.1904754566734 L 165.09068727830194 292.29873003593195 L 165.1009026124892 292.32109274838655 L 165.15328882539885 292.42869192142496 L 165.16390505444528 292.44927218425073 L 165.22223555875374 292.55619727641306 L 165.23306903996652 292.57506741729014 L 165.29717075500488 292.6812997539204 L 165.30806892643227 292.69855454468114 L 165.37776877153155 292.80407545112337 L 165.38860858357447 292.8198230644223 L 165.46373347806576 292.92461386602054 L 165.4744185560943 292.9389687328795 L 165.55479541930862 293.04301075497784 L 165.56525261373264 293.05608822621394 L 165.65070836500107 293.15936279415644 L 165.66088415558937 293.17127536827513 L 165.75124571424294 293.2737638074057 L 165.76110276849727 293.2846186349447 L 165.85619705386702 293.38630227060753 L 165.86571110887158 293.3961996475006 L 165.9653650402886 293.4970598050397 L 165.97452218455965 293.50609239951797 L 166.07856268135498 293.60611040427733 L 166.0873570523538 293.6143630055527 L 166.19561103385848 293.7135201828764 L 166.2040429104767 293.72106980470187 L 166.31633729602174 293.8193474799339 L 166.32441154629487 293.82626369260623 L 166.4405732552114 293.9236431910907 L 166.4482980918513 293.9299885893179 L 166.56815404347034 294.0264512363988 L 166.5755400391021 294.03228197736706 L 166.6989171527547 294.1278090983885 L 166.70597646991666 294.1331754649571 L 166.83270166493386 294.2277483852631 L 166.83944746094167 294.23269534450895 L 166.96934765665455 294.32629538944354 L 166.97579362908198 294.33086312784053 L 167.10869574482155 294.4234716227478 L 167.11485578890378 294.42769604707564 L 167.25058674400114 294.51929431729957 L 167.25647469833444 294.52320751575485 L 167.3948614121206 294.61377688663947 L 167.40049087347617 294.61740754822534 L 167.5413602652822 294.70692934511476 L 167.54674445711072 294.7103031377095 L 167.68992344626767 294.79875868594775 L 167.6950751286073 294.8018985948895 L 167.8403906344462 294.88926921982056 L 167.84532204550743 294.8921958496566 L 167.9926009873594 294.9784628766246 L 167.997323809136 294.9811947190766 L 168.146393106332 295.0663394734255 L 168.15091844824843 295.0688931447429 L 168.30160502011958 295.15289695181684 L 168.3059434160511 295.15528740264324 L 168.45807418192842 295.23813158778614 L 168.46223559697702 295.2403722885083 L 168.61563747619155 295.3220381770643 L 168.61963132043365 295.3241412814028 L 168.7741312323165 295.4046101987159 L 168.7779663793757 295.4065866880732 L 168.93339124325786 295.48583995948746 L 168.93707605207803 295.4876997703282 L 169.09325278729057 295.5657187211877 L 169.09679512586968 295.56747085748157 L 169.25355065174367 295.6442368131303 L 169.2569579219018 295.64588944566356 L 169.41411915776825 295.7213837314456 L 169.41739832026244 295.7229442855979 L 169.57479218545245 295.79714822685725 L 169.57794978493203 295.79862346024885 L 169.73540319877662 295.87151838232955 L 169.73844538822055 295.87291445357505 L 169.8957852700508 295.9444816818212 L 169.89871783442976 295.9458042114716 L 170.0557711035767 296.01602507122726 L 170.05859948257407 296.0172791958499 L 170.21519305836875 296.08613501245895 L 170.21792236804842 296.0873254326821 L 170.37388316982188 296.1547975314888 L 170.37651822318966 296.15592855474057 L 170.531673170273 296.2219982610888 L 170.53421849669942 296.2230738396598 L 170.68839450842364 296.28772247889367 L 170.69085437193604 296.2887462438809 L 170.84387836763221 296.3519551413445 L 170.84625678409125 296.3529304329607 L 170.99795568309042 296.414680913998 L 171.00025643628598 296.4156108086702 L 171.15045715791922 296.47588419862524 L 171.15268381462852 296.47677153325486 L 171.30121327822684 296.5355491574717 L 171.30336920227927 296.5363965511816 L 171.45005432717377 296.59365973500434 L 171.4521426925774 296.5944696086586 L 171.5968103980991 296.6501996774312 L 171.59883420127676 296.6509742711776 L 171.74131140675672 296.7051525502441 L 171.74327347794753 296.7058939393004 L 171.88338710271677 296.75850175400495 L 171.8852901165941 296.759211862883 L 172.02286707998374 296.8102305385695 L 172.02471356553573 296.81091115390535 L 172.15958078687677 296.86032201591803 L 172.16137313660636 296.860974798063 L 172.2933575352299 296.9087591717457 L 172.29509801370588 296.90938566524477 L 172.42402650894292 296.9555248759417 L 172.42571726076133 296.95612651902263 L 172.55141677194294 297.0006018920777 L 172.55305982912174 297.00118002524846 L 172.67535727557896 297.0439728860058 L 172.6769545644363 297.0445287598561 L 172.79567686550018 297.08562043365976 L 172.79723021304017 297.0861552159448 L 172.9122042880418 297.1255270281388 L 172.9137154278801 297.1260418102159 L 173.0247681961505 297.1636750861443 L 173.02623877400617 297.16417088882724 L 173.1331971548764 297.200046953834 L 173.1346287336416 297.20052473271545 L 173.2373196464427 297.2346249121447 L 173.2387137108532 297.23508556243746 L 173.33696407491624 297.2673911816332 L 173.3383220358108 297.2678355425653 L 173.43195877046682 297.2983279268716 L 173.43328196863243 297.29875678566725 L 173.52213199321247 297.32741726042815 L 173.52342170277043 297.3278313558931 L 173.60731193660558 297.3546412464526 L 173.6085693678609 297.35504127216734 L 173.68732673028217 297.3799819038695 L 173.68855303189233 297.380368510974 L 173.7620044422308 297.4034212091629 L 173.76320070240914 297.40379500867175 L 173.83117307999584 297.4249410986914 L 173.8323403262279 297.4253026632098 L 173.89466059039387 297.44452347040425 L 173.89579978662397 297.44487333496227 L 173.95229485670032 297.46215018467564 L 173.9534068958251 297.46248884607905 L 174.00390369114282 297.47780306365524 L 174.00498937795402 297.4781309769732 L 174.04931481784422 297.49146388775637 L 174.05037483050802 297.4917814565527 L 174.0883558343017 297.5031143858869 L 174.08939063120712 297.5034219367111 L 174.12085411823534 297.5127362099403 L 174.12186368123557 297.5130339199032 L 174.14663657082937 297.52031086237145 L 174.1476195270121 297.52059850876424 L 174.1655287385026 297.5258194458156 L 174.16647795907522 297.5260951472129 L 174.1773504117934 297.5292414041914 L 174.17819567971335 297.52948520111386 L 174.18185829299034 297.53053810336377 L 174.22881094663614 297.5416142355004 Z" style="fill: rgb(104, 225, 253);" id="element_364" /></svg>