<?xml version='1.0' encoding='utf-8'?>
<svg xmlns:svg="http://www.w3.org/2000/svg" id="_0376_explosion" viewBox="0 0 500 500" data-imageid="explosion-21" imageName="Explosion" class="illustrations_image" style="width: 188px;"><svg:style>.cls-1_explosion-21{fill:url(#linear-gradient);}.cls-1_explosion-21,.cls-2_explosion-21,.cls-3_explosion-21,.cls-4_explosion-21,.cls-5_explosion-21,.cls-6_explosion-21,.cls-7_explosion-21,.cls-8_explosion-21,.cls-9_explosion-21,.cls-10_explosion-21,.cls-11_explosion-21,.cls-12_explosion-21,.cls-13_explosion-21,.cls-14_explosion-21,.cls-15_explosion-21,.cls-16_explosion-21,.cls-17_explosion-21,.cls-18_explosion-21,.cls-19_explosion-21,.cls-20_explosion-21,.cls-21_explosion-21,.cls-22_explosion-21,.cls-23_explosion-21,.cls-24_explosion-21,.cls-25_explosion-21{stroke-width:0px;}.cls-2_explosion-21{opacity:.18;}.cls-2_explosion-21,.cls-15_explosion-21,.cls-24_explosion-21,.cls-25_explosion-21{fill:#68e1fd;}.cls-2_explosion-21,.cls-15_explosion-21,.cls-25_explosion-21{isolation:isolate;}.cls-3_explosion-21{fill:url(#linear-gradient-11-explosion-21);}.cls-4_explosion-21{fill:url(#linear-gradient-12-explosion-21);}.cls-5_explosion-21{fill:url(#linear-gradient-13-explosion-21);}.cls-6_explosion-21{fill:url(#linear-gradient-10-explosion-21);}.cls-7_explosion-21{fill:url(#linear-gradient-17-explosion-21);}.cls-8_explosion-21{fill:url(#linear-gradient-16-explosion-21);}.cls-9_explosion-21{fill:url(#linear-gradient-19-explosion-21);}.cls-10_explosion-21{fill:url(#linear-gradient-15-explosion-21);}.cls-11_explosion-21{fill:url(#linear-gradient-21-explosion-21);}.cls-12_explosion-21{fill:url(#linear-gradient-18-explosion-21);}.cls-13_explosion-21{fill:url(#linear-gradient-14-explosion-21);}.cls-14_explosion-21{fill:url(#linear-gradient-20-explosion-21);}.cls-15_explosion-21{opacity:.4;}.cls-16_explosion-21{fill:url(#linear-gradient-4-explosion-21);}.cls-17_explosion-21{fill:url(#linear-gradient-2-explosion-21);}.cls-18_explosion-21{fill:url(#linear-gradient-3-explosion-21);}.cls-19_explosion-21{fill:url(#linear-gradient-8-explosion-21);}.cls-20_explosion-21{fill:url(#linear-gradient-9-explosion-21);}.cls-21_explosion-21{fill:url(#linear-gradient-7-explosion-21);}.cls-22_explosion-21{fill:url(#linear-gradient-5-explosion-21);}.cls-23_explosion-21{fill:url(#linear-gradient-6-explosion-21);}.cls-25_explosion-21{opacity:.5;}</svg:style><svg:path class="cls-24_explosion-21 targetColor" d="M 248.1278256860082 104.20040125213497 L 248.12407720571068 104.19679205920337 L 247.89065121021858 103.97436886800148 L 247.8868031207603 103.97074079818834 L 247.64893991570702 103.7488422287783 L 247.64499013442668 103.74519705121773 L 247.4026746935162 103.52396854330419 L 247.39862116625883 103.52030815624724 L 247.15183846319513 103.29989514953486 L 247.14767917224907 103.2962215843285 L 246.89641418073614 103.07676951852198 L 246.89214715333756 103.07308494332426 L 246.6363848470794 102.85473925812826 L 246.63200816448904 102.85104598130437 L 246.3717335171896 102.63395211642354 L 246.367245324342 102.63025258956533 L 246.10244330970528 102.41455598470435 L 246.09784182542467 102.41085280521071 L 245.82849741715464 102.19669890007425 L 245.8237809449258 102.19299481322753 L 245.54987911672646 101.98052904752025 L 245.54504605600204 101.97682694798995 L 245.26657178157734 101.76619476141653 L 245.2616206395954 101.76249769411989 L 244.97855889264937 101.55384452638499 L 244.97348829672603 101.55015568663138 L 244.6858240509626 101.34362697743968 L 244.68063276121688 101.33994971028561 L 244.3883509903401 101.13569089934177 L 244.38303791279682 101.13202869808144 L 244.0861235905106 100.93018522509013 L 244.0806877905185 100.92654172880933 L 243.77912589052687 100.7272590334752 L 243.77356660641706 100.72363802359602 L 243.46734210242394 100.52706154562377 L 243.46165875932428 100.52346694137262 L 243.15075662503372 100.32974212046689 L 243.1449488487418 100.32617797320127 L 242.82935405785776 100.13545024906675 L 242.8234216886662 100.13192073540382 L 242.50311921489265 99.94433554774518 L 242.49706232124737 99.94084496144151 L 242.1720371382883 99.7565477499634 L 242.16585603015136 99.75310049250545 L 241.83609311171077 99.57223669691254 L 241.82978835348933 99.56883726678812 L 241.49527267327116 99.39155232678509 L 241.48884509616553 99.38820530741935 L 241.14956162787382 99.21464466271087 L 241.14301234148917 99.21135470906378 L 240.79894605882782 99.04166379935451 L 240.79227646189074 99.03843562319445 L 240.4434123385638 98.87275988818905 L 240.43662412857802 98.869598242073 L 240.08294713828948 98.70808312147615 L 240.07604231996626 98.7049927814873 L 239.71753743642003 98.54778371500367 L 239.71051832871805 98.54476946231632 L 239.3471705256182 98.39201188965058 L 239.34003976723153 98.38907849101246 L 238.97183401828198 98.24091785186927 L 238.9645945714231 98.2380700391139 L 238.59151585032785 98.09465177319792 L 238.58417100266007 98.09189422191848 L 238.2062042831231 97.9533637689344 L 238.19875764771209 97.95070107647298 L 237.81588790343739 97.81720387612546 L 237.80834341660682 97.81464053904945 L 237.42055562129838 97.68632203104315 L 237.41291753829435 97.68386242229951 L 237.0201966656561 97.56086804633912 L 237.01246955404838 97.55851639229284 L 236.61480057778437 97.44099158808301 L 236.60698930855682 97.43875194565904 L 236.204357202371 97.32684215290442 L 236.19646693868282 97.32471838706388 L 235.78885667627918 97.21856904546918 L 235.78089285990734 97.21656480725635 L 235.36828941498982 97.11632135652621 L 235.36025775049472 97.11444006192677 L 234.9426460967674 97.02024794176587 L 234.9345525334565 97.0184927516156 L 234.51191764462325 96.9304974017286 L 234.500525482108 96.92872375505698 L 234.50060757138013 96.92827826160668 L 234.07628165740928 96.85008944558193 L 234.06173069706486 96.84762964656443 L 233.63910157964847 96.78258525303212 L 233.62454496227136 96.78056345431958 L 233.20368103269914 96.72840111054718 L 233.1891558791644 96.7268159731245 L 232.77012552872603 96.68727330637951 L 232.75566802913113 96.68612027777836 L 232.3385396491163 96.65893491532823 L 232.32418463614874 96.65820639650406 L 231.9090266178472 96.64311596561626 L 231.89480718406193 96.64280153324069 L 231.4816879187633 96.6395436611827 L 231.4676350863462 96.63963033583819 L 231.0566229653402 96.64794264987746 L 231.04276541434663 96.64841519948993 L 230.63392882892296 96.66803532689396 L 230.62029268730797 96.66887659422042 L 230.21370002875634 96.69954216225666 L 230.2003087249222 96.70073340532927 L 229.79602838453226 96.74218204126521 L 229.78290256076482 96.74370327630812 L 229.3810029298263 96.79567260741122 L 229.36816041298104 96.79750294479209 L 228.96870988278366 96.8597305983298 L 228.95616570699102 96.86184856346114 L 228.55923266882445 96.93407216670097 L 228.54699914384219 96.93645599934939 L 228.1526519889961 97.01841317955879 L 228.1407388071361 97.02104110663082 L 227.7490459269002 97.11246949107726 L 227.73746030117195 97.11531996953256 L 227.34849008683597 97.21595718548352 L 227.33723691301307 97.2190091134978 L 226.95105775586666 97.32859278822075 L 226.94013979153982 97.3318256840229 L 226.55682008287272 97.45009344478531 L 226.54623813712237 97.4534875936936 L 226.16584626822421 97.58017706776293 L 226.15559939626291 97.58371363882596 L 225.77820375842344 97.71856245346969 L 225.76828945635683 97.72222358778089 L 225.39395844086573 97.8649693702665 L 225.3843728365469 97.86873824348098 L 225.01317483469387 98.01911862107592 L 225.00391287145644 98.02297948293604 L 224.63591627453116 98.1807320829078 L 224.6269718853482 98.184670276707 L 224.2622450846404 98.34953272632305 L 224.25361135494805 98.35353469123525 L 223.8922227417474 98.52524461776305 L 223.88389205977828 98.52929787686521 L 223.52591002537443 98.70759290757225 L 223.51787421936592 98.71168604421682 L 223.16336715504866 98.89630380637055 L 223.15561761711794 98.9004264313471 L 222.80465391417687 99.09110455221499 L 222.79718171099867 99.09524726389473 L 222.44982976072356 99.29172337074428 L 222.44262573141359 99.29587771014276 L 222.0989539250941 99.49788943024141 L 222.09200876689414 99.50204783267931 L 221.75208549581995 99.70933279329454 L 221.74538983832136 99.71348853808797 L 221.40928349378223 99.92578436648726 L 221.40282796250838 99.92993152586912 L 221.07060693579393 100.14697584931993 L 221.0643822060083 100.15110923758296 L 220.73611488840825 100.37263968335277 L 220.73011173002865 100.37675480701657 L 220.40586651283272 100.60250900237284 L 220.40007582731874 100.60660201201264 L 220.0799211018166 100.83631758422285 L 220.07433395186618 100.840385228456 L 219.75833810934753 101.07379980478763 L 219.75294574219376 101.07783938679377 L 219.44117717394832 101.31469059451429 L 219.43597103899347 101.3186999313662 L 219.1284981363109 101.55872539774305 L 219.1234698977739 101.56270278274559 L 218.8203610519439 101.80564013504627 L 218.81550259713615 101.80958430321658 L 218.51682619944842 102.05517116870855 L 218.51212964322755 102.05908126548505 L 218.2179540849718 102.3070552714358 L 218.21341177086103 102.31093082466806 L 217.92380544332693 102.56102959834503 L 217.91940994172526 102.5648704935971 L 217.63444123620255 102.81683166226779 L 217.63018534005357 102.82063812145572 L 217.3499226478319 103.07419931238759 L 217.34579936605925 103.0779718757743 L 217.07031107842832 103.33287071623481 L 217.06631362739546 103.3366102278134 L 216.79566813564497 103.59258434507004 L 216.79178992884272 103.59629194138707 L 216.52605562426237 103.8530789627073 L 216.5222902603784 103.85675606520607 L 216.26153553425792 104.11409361785736 L 216.2578767837355 104.11774192885909 L 216.00217002736454 104.37536764010892 L 215.99861181750856 104.37898914259988 L 215.7480214221768 104.63664063971572 L 215.74455782081864 104.64023760116892 L 215.4991521778158 104.89765251141823 L 215.49577737550015 104.90122749195477 L 215.25562487611595 105.15814344260504 L 215.25233316671995 105.16169930789255 L 215.01750220224406 105.41785392621122 L 215.014287961886 105.42139386561227 L 214.78484692360811 105.67652477886685 L 214.78170458764075 105.68005232948941 L 214.55772186685056 105.93389716494735 L 214.5546459046662 105.93741624242524 L 214.3361898926534 106.18971262735401 L 214.3331747799488 106.19322756440117 L 214.12031386800308 106.44371312606825 L 214.11735405605856 106.44722872012433 L 213.91015663546966 106.69564108579718 L 213.90724651688706 106.69916265742394 L 213.7057809789446 106.94523945437004 L 213.70291484915302 106.94877291849834 L 213.50724958514678 107.19225177398515 L 213.50442159882286 107.19580372667062 L 213.3146250000425 107.43642226796561 L 213.31182912138806 107.44000009203995 L 213.12796957912323 107.67749594641062 L 213.12519952469293 107.68110794035849 L 212.9473454302334 107.91521873507229 L 212.94459460269124 107.91887427070826 L 212.77281434732663 108.14933763303266 L 212.77007575811294 108.15304734920281 L 212.604437733133 108.37960090640527 L 212.60170391152977 108.38337694814149 L 212.4422765082242 108.60575832748951 L 212.43953939367185 108.60961464303263 L 212.40583354315723 108.65758173699928 L 212.98088485291538 108.55202104348061 L 212.98224696725808 108.55177295257947 L 213.77055838466651 108.40931993551979 L 213.77191852559963 108.40907608954798 L 214.5630855576176 108.26836383487183 L 214.56444384421715 108.2681241903354 L 215.3584430547698 108.12916667311649 L 215.35979960433949 108.12893118835422 L 216.1566075573519 107.99174238366618 L 216.1579624854688 107.99151101880527 L 216.95755574486617 107.85610490172176 L 216.95890916542464 107.85587761863515 L 217.7612642951321 107.72226816422986 L 217.7626163203866 107.72204492649523 L 218.56770988432925 107.5902461098418 L 218.56906062493616 107.59002688270222 L 219.37686918703918 107.46005267887433 L 219.37821875209698 107.45983742920033 L 220.18871887628552 107.33170181327164 L 220.19006737337418 107.33149050952487 L 221.00323562357335 107.20520745656903 L 221.00458315879226 107.20500006876725 L 221.8203960989272 107.08058355385792 L 221.82174277693235 107.08038005354139 L 222.64017697092822 106.95784405175226 L 222.64152289496795 106.95764441195148 L 223.4625549067499 106.83700289835618 L 223.46390017869984 106.83680709356075 L 224.28750657219297 106.71807404323296 L 224.28885129259 106.71788204936192 L 225.11500863171952 106.60107143737531 L 225.11635289979432 106.60088323174836 L 225.94503774848528 106.48600903317657 L 225.94638166219463 106.4858245944866 L 226.77757058437223 106.37290078440331 L 226.77891424042963 106.37272009268996 L 227.612583800019 106.26176064616884 L 227.61392729392486 106.26158368279314 L 228.45005405485114 106.15260257490785 L 228.45139748092197 106.15242932252787 L 229.28995800711027 106.04544052835205 L 229.2913014585069 106.04527097089944 L 230.13227231388242 105.94028846550677 L 230.1336158826374 105.94012258816437 L 230.97697363112522 105.83716034662852 L 230.97831740816954 105.83699813580876 L 231.82403861369485 105.73607013320337 L 231.82538268888376 105.73591157652764 L 232.67344391537168 105.63703178792639 L 232.6747883775096 105.63687687420519 L 233.52516618888527 105.54005927468175 L 233.5265111257501 105.53990799389568 L 234.37918208593868 105.4451665585237 L 234.38052758430544 105.44501890180524 L 235.23546825723201 105.35236760565837 L 235.23681440289545 105.35222356527441 L 236.0940013524852 105.26167638342635 L 236.095348230282 105.26153595276146 L 236.9547580204601 105.17310686028584 L 236.95610571429026 105.1729700338262 L 237.81771490898177 105.08667300579671 L 237.8190635018292 105.08653977911483 L 238.68284866495935 105.0023887906051 L 238.68419823891205 105.0022591603451 L 239.5501359344059 104.92026818642881 L 239.55148657067528 104.9201421502924 L 240.41955336245803 104.84032516604323 L 240.42090514139767 104.84020272277623 L 241.29107759339442 104.7625737032678 L 241.29243059451827 104.7624548526474 L 242.16468527065416 104.6870277729534 L 242.16603957265397 104.68691251577577 L 243.04035303685419 104.61370135096988 L 243.04170871761656 104.61358968903863 L 243.91805753380623 104.54260841419449 L 243.9194146704288 104.5425003503094 L 244.79777540253303 104.47376294050066 L 244.79913407134046 104.47365847844706 L 245.67948328328438 104.40717890874741 L 245.68084355984345 104.4070780532861 L 246.56315781555227 104.34287029876918 L 246.56451977468654 104.3427730556267 L 247.44877563808535 104.2808510913662 L 247.45013935388928 104.2807574672257 L 248.16124344420106 104.23291405514452 L 248.1278256860082 104.20040125213497 Z" style="fill: rgb(104, 225, 253);" id="element_383" /></svg>