<?xml version='1.0' encoding='utf-8'?>
<svg xmlns:svg="http://www.w3.org/2000/svg" id="_0376_explosion" viewBox="0 0 500 500" data-imageid="explosion-21" imageName="Explosion" class="illustrations_image" style="width: 188px;"><svg:style>.cls-1_explosion-21{fill:url(#linear-gradient);}.cls-1_explosion-21,.cls-2_explosion-21,.cls-3_explosion-21,.cls-4_explosion-21,.cls-5_explosion-21,.cls-6_explosion-21,.cls-7_explosion-21,.cls-8_explosion-21,.cls-9_explosion-21,.cls-10_explosion-21,.cls-11_explosion-21,.cls-12_explosion-21,.cls-13_explosion-21,.cls-14_explosion-21,.cls-15_explosion-21,.cls-16_explosion-21,.cls-17_explosion-21,.cls-18_explosion-21,.cls-19_explosion-21,.cls-20_explosion-21,.cls-21_explosion-21,.cls-22_explosion-21,.cls-23_explosion-21,.cls-24_explosion-21,.cls-25_explosion-21{stroke-width:0px;}.cls-2_explosion-21{opacity:.18;}.cls-2_explosion-21,.cls-15_explosion-21,.cls-24_explosion-21,.cls-25_explosion-21{fill:#68e1fd;}.cls-2_explosion-21,.cls-15_explosion-21,.cls-25_explosion-21{isolation:isolate;}.cls-3_explosion-21{fill:url(#linear-gradient-11-explosion-21);}.cls-4_explosion-21{fill:url(#linear-gradient-12-explosion-21);}.cls-5_explosion-21{fill:url(#linear-gradient-13-explosion-21);}.cls-6_explosion-21{fill:url(#linear-gradient-10-explosion-21);}.cls-7_explosion-21{fill:url(#linear-gradient-17-explosion-21);}.cls-8_explosion-21{fill:url(#linear-gradient-16-explosion-21);}.cls-9_explosion-21{fill:url(#linear-gradient-19-explosion-21);}.cls-10_explosion-21{fill:url(#linear-gradient-15-explosion-21);}.cls-11_explosion-21{fill:url(#linear-gradient-21-explosion-21);}.cls-12_explosion-21{fill:url(#linear-gradient-18-explosion-21);}.cls-13_explosion-21{fill:url(#linear-gradient-14-explosion-21);}.cls-14_explosion-21{fill:url(#linear-gradient-20-explosion-21);}.cls-15_explosion-21{opacity:.4;}.cls-16_explosion-21{fill:url(#linear-gradient-4-explosion-21);}.cls-17_explosion-21{fill:url(#linear-gradient-2-explosion-21);}.cls-18_explosion-21{fill:url(#linear-gradient-3-explosion-21);}.cls-19_explosion-21{fill:url(#linear-gradient-8-explosion-21);}.cls-20_explosion-21{fill:url(#linear-gradient-9-explosion-21);}.cls-21_explosion-21{fill:url(#linear-gradient-7-explosion-21);}.cls-22_explosion-21{fill:url(#linear-gradient-5-explosion-21);}.cls-23_explosion-21{fill:url(#linear-gradient-6-explosion-21);}.cls-25_explosion-21{opacity:.5;}</svg:style><svg:path class="cls-24_explosion-21 targetColor" d="M 251.68273110208844 82.11084070072785 L 251.6801331132038 82.10909363671549 L 251.58585723535583 82.04612387172551 L 251.58320443303384 82.04436416983461 L 251.47942321714058 81.97599699641694 L 251.47671439502494 81.97422507254022 L 251.36350761031218 81.90069516062647 L 251.36074149936297 81.89891143769611 L 251.23818891505647 81.82045345721794 L 251.23536419693605 81.81865837709043 L 251.1035455822616 81.73550699797946 L 251.1006608973655 81.73370102931266 L 250.95965602154885 81.64609092150052 L 250.95670997415453 81.64427456547449 L 250.80659860642152 81.55244039889286 L 250.8035897682314 81.55061419372689 L 250.64445167780772 81.45479063830737 L 250.64137859058584 81.4529551630908 L 250.4732935466973 81.35337688876506 L 250.47015472440137 81.35153276689486 L 250.29320249627375 81.24843444359452 L 250.28999642692563 81.2465823459923 L 250.1042567837847 81.140198643649 L 250.10098193123196 81.13833929186093 L 249.90653464230348 81.02890488040632 L 249.90318944797443 81.0270390496503 L 249.70011428248418 80.914788599016 L 249.6966971672069 80.91291712121559 L 249.4850738943807 80.79808530133326 L 249.481583260319 80.79620906816197 L 249.2614916493826 80.67903054896325 L 249.25792588212965 80.6771505149137 L 249.02944570230878 80.55785996633023 L 249.02580317317202 80.55597715181415 L 248.7890141936925 80.43480924377755 L 248.78529326219856 80.43292473825792 L 248.54027525228614 80.31011414069985 L 248.53647426893232 80.30822910585303 L 248.28330699781282 80.18401048870511 L 248.27942430708833 80.1821261616057 L 248.01818754398747 80.05673419479959 L 248.014221487688 80.05485189111981 L 247.74499500183157 79.92852124458715 L 247.74094392268785 79.92664236179773 L 247.46380748330165 79.79960770547015 L 247.4596697289438 79.7977337260286 L 247.17470310525357 79.67022972983773 L 247.17047703253095 79.668362224346 L 246.87775999376248 79.5406235582235 L 246.87344397343884 79.53876418853524 L 246.57305628881792 79.41102552241273 L 246.56864871065966 79.40917604466664 L 246.26067014941202 79.28167204847577 L 246.25616942768835 79.27983431602969 L 245.94067975903982 79.1527996597021 L 245.9360843384496 79.15097562593836 L 245.61316333162594 79.02464497940569 L 245.60847169366727 79.02283670037644 L 245.27819911789422 78.89744473357034 L 245.27340978768808 78.89565437044743 L 244.93586541219145 78.77143575329953 L 244.93097696577098 78.76966557459079 L 244.58624055977654 78.64685497703272 L 244.5812516318487 78.64510736052361 L 244.2294029645822 78.52393945248701 L 244.22431225676658 78.52221688686284 L 243.86543109745384 78.40292633827936 L 243.86023738699913 78.40123142438051 L 243.4944035048659 78.2840529051818 L 243.4891056538401 78.28238835684168 L 243.11639881811217 78.16755653695935 L 243.11099578305803 78.16592518137134 L 242.73149576296112 78.05367473073704 L 242.72598660500245 78.052079508295 L 242.3397731697624 77.94264509684038 L 242.3341570651407 77.94108906039429 L 241.94130998398322 77.834705358051 L 241.93558623499783 77.83319167151842 L 241.53618527714875 77.73009334821808 L 241.53035332346502 77.72862528449008 L 241.1244782581501 77.62904701016433 L 241.11853768843352 77.62762794824461 L 240.70626828487852 77.5318043928251 L 240.7002188487029 77.53043781414094 L 240.2816348761336 77.43860364755929 L 240.27547649610258 77.43729313138408 L 239.8506577237448 77.34968302357196 L 239.84439050775657 77.34843224150134 L 239.413416704836 77.26528086239037 L 239.40704095841068 77.26409357181682 L 238.96999189415317 77.18563559133864 L 238.96350813273222 77.18451562787422 L 238.5204635763635 77.11098571596047 L 238.5138725374804 77.10993698476311 L 238.0649122582263 77.04156981134543 L 238.05821491343727 77.04059627731114 L 237.60341868052348 76.97762651232118 L 237.59661624697716 76.9767321891137 L 237.13606382962953 76.91939450248309 L 237.12915778114495 76.91858344038255 L 236.6629289485892 76.86711250204291 L 236.65592102610384 76.86638877460727 L 236.1840955475658 76.82101925449028 L 236.17698776880636 76.82038694403651 L 235.69964541351175 76.78135351207379 L 235.69244008173544 76.78081669400129 L 235.20966061891005 76.74835402012447 L 235.20236033055963 76.74791674611923 L 234.71422352942926 76.72225950025997 L 234.70683118054174 76.7219257804365 L 234.21341681033215 76.70330863252642 L 234.20593560154234 76.70308241658239 L 233.7073234314793 76.69174003655314 L 233.6997568714602 76.69162519403281 L 233.19602667076947 76.68779225181603 L 233.18837857795862 76.68779255159727 L 232.679610115866 76.6917037171246 L 232.67188461833328 76.6918228062663 L 232.15815766406456 76.70371274946937 L 232.1503591973903 76.70395413157492 L 231.63175352017117 76.72405752238538 L 231.62388682321756 76.72442453565803 L 231.10048219227392 76.75297604400751 L 231.0925523007505 76.75347183919162 L 230.56442848530804 76.79070613501177 L 230.55644072305515 76.79133365342979 L 230.02367749233966 76.83748540665225 L 230.01563746027654 76.83824735856186 L 229.47831458351382 76.89355123911827 L 229.4702281462278 76.89445008262521 L 228.9284253926436 76.9591407604472 L 228.92029866262482 76.96017868121689 L 228.37409580144492 77.03449082623611 L 228.36593512100538 77.03566971825148 L 227.81541192145554 77.11983800039957 L 227.80722384240246 77.12115944801234 L 227.25246007370848 77.21541853722091 L 227.244251334879 77.2168837987384 L 226.68532676626666 77.32146836493912 L 226.6771042690633 77.3230783579799 L 226.11409866975836 77.4382230711044 L 226.10586945185946 77.43997835994155 L 225.53886259108768 77.5659178899215 L 225.5306337985395 77.56781867501297 L 224.95970544552665 77.70478769177997 L 224.95148430345228 77.70683380166284 L 224.37671422742417 77.85506697514853 L 224.3685080096135 77.85725786084532 L 223.78997597979588 78.01698986098137 L 223.78179197746076 78.01932459303596 L 223.19957776307942 78.19079008975397 L 223.19142325307894 78.19326735797955 L 222.60560662335965 78.37670102121119 L 222.59748883621185 78.37931913719599 L 222.00814956038036 78.5749556368729 L 222.0000756483847 78.57771253925085 L 221.40729349566683 78.78578654530466 L 221.39927050146366 78.7886798077587 L 220.80312524108516 79.00942599012104 L 220.79516006697332 79.01245283204801 L 220.19573146815998 79.24610586065053 L 220.18783084648467 79.24926316037833 L 219.58519867846223 79.49605770515268 L 219.57736914336792 79.49934201556468 L 218.97161317536217 79.75951274644248 L 218.96386103618485 79.76292031283073 L 218.3550610374216 80.03670189974363 L 218.34739235396955 80.04022867968331 L 217.73562809367453 80.32785579256294 L 217.72804865361476 80.33149747757483 L 217.11339990101376 80.63320478635285 L 217.10591519954988 80.6369568251003 L 216.48846172386868 80.95297899970832 L 216.48107694585897 80.95683662245953 L 215.86089851632332 81.28740833282923 L 215.85361852095093 81.2913665769055 L 215.23079490678666 81.63672249296849 L 215.2236242148553 81.64077622889457 L 214.59823518528813 82.0011510205825 L 214.59117796917937 82.00529497865494 L 213.96330329343513 82.38092331589938 L 213.95755388207618 82.3844156544388 L 213.58040526087797 82.61699279818521 L 213.5754483846376 82.62008970167024 L 213.20277259088746 82.85596564300378 L 213.1978659785914 82.85911136496436 L 212.8296362988741 83.09823014175379 L 212.8247815650048 83.1014229360631 L 212.46097128590526 83.34372858617714 L 212.45616996698374 83.34696666567014 L 212.09675237508682 83.59240322697754 L 212.09200592769463 83.59568476781546 L 211.73695430958514 83.84419627818494 L 211.7322641086869 83.84751942426874 L 211.38155175094977 84.09904992156906 L 211.37691908851818 84.1024127889789 L 211.0305192777382 84.35690631107879 L 211.02594536167965 84.36030699251833 L 210.6838313844417 84.61770757728652 L 210.67931733782032 84.62114414650989 L 210.34146248070925 84.88139583181514 L 210.33700934126432 84.88486634801627 L 210.00338689086502 85.14791317172732 L 209.99899561081568 85.15141568387173 L 209.66957885371298 85.4172016838573 L 209.66525029984183 85.42073423493778 L 209.34001252262058 85.68920344906662 L 209.3357474766271 85.69276408026478 L 209.01466196587216 85.96386054640563 L 209.01046112498474 85.96744730114335 L 208.69350116728097 86.24111505716496 L 208.68936514511597 86.24472598503061 L 208.37650402704824 86.5209090688017 L 208.37243335470242 86.52454222933719 L 208.06364436285557 86.8031846787265 L 208.0596394902187 86.80683814506342 L 207.7548959111776 87.0878839979397 L 207.75095720844993 87.09155586027342 L 207.45023232879944 87.3749491545054 L 207.44636008819916 87.37863752339807 L 207.1496271945241 87.66432229685451 L 207.14582163216903 87.66802530635916 L 206.8530540110543 87.95594559690876 L 206.849315269002 87.95966140750802 L 206.56048620703245 88.24976125301957 L 206.5568143554625 88.2534880543743 L 206.27189713922297 88.54571149271649 L 206.26829217874544 88.54944750622097 L 205.98726009482078 88.84373857526258 L 205.98372195889507 88.84748205640341 L 205.70654829387018 89.14378479401316 L 205.70307685131843 89.14753403453174 L 205.4297348917781 89.44579247857837 L 205.42632994937753 89.44954580843708 L 205.15679298190668 89.74970399678935 L 205.15345428704683 89.75345978594214 L 204.8876955982303 90.05546175646874 L 204.8844228416195 90.05921841643976 L 204.62241571804213 90.36300820700947 L 204.6192085364505 90.36676419228209 L 204.36092626469716 90.67228584076365 L 204.3577842437223 90.67603964998457 L 204.10320011037783 90.9832371942467 L 204.10012278722093 90.98698737125054 L 203.84921007887021 91.29580484916198 L 203.84619694511116 91.29954998382091 L 203.59892894833902 91.60993143325042 L 203.5959794526988 91.61367016215671 L 203.35232945409012 91.925559620973 L 203.34944300517125 91.92929062795979 L 203.10938429131087 92.24263213403164 L 203.10656026030583 92.2463541505402 L 202.87006611777863 92.5610917417363 L 202.86730384113795 92.56480354703668 L 202.63434755652878 92.88088126122581 L 202.63164633858116 92.88458168249912 L 202.40220119847487 93.20194355755 L 202.39956031399208 93.20563146984003 L 202.1735996049735 93.52422154362142 L 202.17101830167422 93.52789586966388 L 201.94851531032828 93.84765818004449 L 201.94599281131516 93.85131788998177 L 201.72692082422662 94.17219647483036 L 201.72445633035193 94.1758405858207 L 201.50878863410574 94.497779483006 L 201.50638132626182 94.50140705873363 L 201.29409120744276 94.82435030612439 L 201.29174024877332 94.827960456221 L 201.0828009939663 95.15185209168595 L 201.08050553199692 95.15544397106872 L 200.8748904277868 95.48022803247659 L 200.87264959647158 95.48380084061235 L 200.67033192944314 95.8094213658319 L 200.66814485112593 95.81297434593431 L 200.46909790786412 96.13937537283427 L 200.46696369515445 96.14290781100051 L 200.27116076224408 96.47003337744962 L 200.2690785198058 96.47354460174489 L 200.07649288383172 96.80133874561187 L 200.07446171008502 96.80482812510698 L 199.8850666576321 97.13323488426062 L 199.88308564636947 97.13670182802984 L 199.69685446402258 97.46566524033882 L 199.6949227059385 97.46910919642389 L 199.5118286802825 97.79857329975698 L 199.50994526441866 97.8019937541026 L 199.32996168203837 98.13190258632855 L 199.3281256971453 98.13529906169528 L 199.15122584462563 98.4655966606828 L 199.14943638044255 98.46896871554189 L 198.9755935443683 98.79959911915974 L 198.9738496928226 98.80294634657511 L 198.80303715977865 99.13385359269203 L 198.8013380161073 99.13717561919336 L 198.63352907267853 99.46830374567809 L 198.6318737364737 99.47160023012931 L 198.46704166924494 99.80289327485058 L 198.46542924542547 99.80616390731768 L 198.3035473409816 100.13756590814423 L 198.30197694069355 100.14081040876539 L 198.1430184856194 100.47226540356597 L 198.14148922706738 100.47548352142783 L 197.9854275079478 100.80693554807117 L 197.98393851716042 100.81012706009338 L 197.8307468205803 101.14152015644821 L 197.8292972321116 101.14468486627959 L 197.6789488446558 101.47596307021468 L 197.6775378022261 101.47910080714259 L 197.53000601047944 101.81020815652664 L 197.52863266755728 101.81331877440276 L 197.38389075810463 102.14419930710453 L 197.38255427843353 102.14728268328733 L 197.24057553785974 102.47788043717557 L 197.2392750959316 102.48093647149277 L 197.10003281082155 102.8111954844362 L 197.09876759229988 102.81422409816729 L 196.9622350492384 103.14408840803466 L 196.9610042513335 103.14708954291596 L 196.82715473690547 103.47650318757601 L 196.82595756870452 103.47947680482774 L 196.6947643694948 103.8083838221492 L 196.693600052249 103.8113299015272 L 196.5650364548424 104.13967432937882 L 196.56390422221384 104.14259286825036 L 196.43794351319528 104.47031874450089 L 196.43684261146592 104.47320975694535 L 196.31345807742022 104.8002611194635 L 196.31238776566494 104.80312463539904 L 196.191552693177 105.12944552205357 L 196.19051224340348 105.13228158638883 L 196.07219991905808 105.45781603504847 L 196.0711886163152 105.46062470686114 L 195.95537232669727 105.78531675539463 L 195.9543894691543 105.78809810713487 L 195.84104250084866 106.11189179341096 L 195.84008739984725 106.1146459101319 L 195.72918303943874 106.43748527201932 L 195.72825501951957 106.44021225063263 L 195.61976655359308 106.76204132600012 L 195.61886495249914 106.76474127455742 L 195.51276566763954 107.08550410127373 L 195.51188983629737 107.08817713827341 L 195.40815301908947 107.40781775420726 L 195.40730232157068 107.41046400792662 L 195.30590125859936 107.72892645094676 L 195.30507507206343 107.73154605879796 L 195.20598304991356 108.04877436677313 L 195.2051807645338 108.05136747468413 L 195.10837106979022 108.36730568548307 L 195.10759208866418 108.3698724473017 L 195.01303800791175 108.68446459879314 L 195.01228174695734 108.68700517571472 L 194.91995656678094 109.00019530576742 L 194.91922245461996 109.00270986578434 L 194.8290994616044 109.31444201226702 L 194.82838693943398 109.3169307296411 L 194.74043942016417 109.6271489304225 L 194.73974794161813 109.62961198517758 L 194.65394918267887 109.93826027812645 L 194.6532782136793 109.9406978555627 L 194.56960150165548 110.24772027854777 L 194.5689505202561 110.25013256877509 L 194.48736914173256 110.55547315966511 L 194.48673763795432 110.55786035715636 L 194.40722487951595 110.86146315382007 L 194.40661235517666 110.8638254569823 L 194.3291415034083 111.16563449728844 L 194.32854747194563 111.16797210805248 L 194.25309181343212 111.46793142986978 L 194.25251579972243 111.47024455329634 L 194.17904862104862 111.76829819449352 L 194.1784901612211 111.77058703839602 L 194.1069847489719 112.06667903684186 L 194.1064433902193 112.0689438114239 L 194.0368730309795 112.36301820498713 L 194.0363483313658 112.36525912249613 L 193.96868631172032 112.65725994904547 L 193.96817783998634 112.65947722343817 L 193.95485089702916 112.71820442225624 L 194.2350110923038 112.64587421783907 L 194.23609604511523 112.64559540674769 L 194.9454003729565 112.46416522903957 L 194.94685112601175 112.46379645940802 L 195.65959697033398 112.28375766724189 L 195.66104221509715 112.28339489013342 L 196.3772061398255 112.10476145858294 L 196.3786460557276 112.10440456718123 L 197.09820462478723 111.92719047132006 L 197.09963938788246 111.92683936246674 L 197.82256916519853 111.75105857736854 L 197.823998948256 111.75071315144638 L 198.55027649775363 111.57637965218481 L 198.5517014703465 111.57603981300561 L 199.28130335595083 111.40316757465433 L 199.28272368454293 111.40283322935143 L 200.01562647017911 111.23143622698412 L 200.01704231820895 111.2311072859092 L 200.7532225678021 111.06119949459952 L 200.75463409576446 111.06087587122363 L 201.49406837323977 110.89247126604522 L 201.49547573876498 110.89215287686368 L 202.23814060804753 110.72526543289023 L 202.23954396597838 110.7249521973314 L 202.98541599099335 110.55959588963655 L 202.98681549346 110.55928772997433 L 203.73587123813252 110.39547653363176 L 203.7372670346248 110.3951733749014 L 204.48948306288003 110.23292126498477 L 204.4908753003181 110.23262303490218 L 205.24622817608113 110.07194398648514 L 205.2476169988839 110.0716506153693 L 206.0060832860799 109.91255860352553 L 206.00746883623134 109.91227002422403 L 206.76902509878548 109.75477902402717 L 206.7704075158994 109.75449517184464 L 207.53503031773676 109.59861915836838 L 207.53640973911922 109.5983399709978 L 208.30407564416498 109.44409291931579 L 208.3054522048754 109.44381833677238 L 209.0761377770547 109.2912142219583 L 209.07751160996472 109.29094418651619 L 209.85119341320268 109.13999698364366 L 209.85256464905382 109.13973143977479 L 210.6292192472756 108.99045512391753 L 210.63058801473474 108.99019401823321 L 211.41019197186546 108.84260256446483 L 211.41155839757926 108.84234584565937 L 212.1940882775441 108.69645322905356 L 212.1954524861913 108.69620084785019 L 212.40583354315723 108.65758173699928 L 212.43953939367185 108.60961464303263 L 212.4422765082242 108.60575832748951 L 212.60170391152977 108.38337694814149 L 212.604437733133 108.37960090640527 L 212.77007575811294 108.15304734920281 L 212.77281434732663 108.14933763303266 L 212.94459460269124 107.91887427070826 L 212.9473454302334 107.91521873507229 L 213.12519952469293 107.68110794035849 L 213.12796957912323 107.67749594641062 L 213.31182912138806 107.44000009203995 L 213.3146250000425 107.43642226796561 L 213.50442159882286 107.19580372667062 L 213.50724958514678 107.19225177398515 L 213.70291484915302 106.94877291849834 L 213.7057809789446 106.94523945437004 L 213.90724651688706 106.69916265742394 L 213.91015663546966 106.69564108579718 L 214.11735405605856 106.44722872012433 L 214.12031386800308 106.44371312606825 L 214.3331747799488 106.19322756440117 L 214.3361898926534 106.18971262735401 L 214.5546459046662 105.93741624242524 L 214.55772186685056 105.93389716494735 L 214.78170458764075 105.68005232948941 L 214.78484692360811 105.67652477886685 L 215.014287961886 105.42139386561227 L 215.01750220224406 105.41785392621122 L 215.25233316671995 105.16169930789255 L 215.25562487611595 105.15814344260504 L 215.49577737550015 104.90122749195477 L 215.4991521778158 104.89765251141823 L 215.74455782081864 104.64023760116892 L 215.7480214221768 104.63664063971572 L 215.99861181750856 104.37898914259988 L 216.00217002736454 104.37536764010892 L 216.2578767837355 104.11774192885909 L 216.26153553425792 104.11409361785736 L 216.5222902603784 103.85675606520607 L 216.52605562426237 103.8530789627073 L 216.79178992884272 103.59629194138707 L 216.79566813564497 103.59258434507004 L 217.06631362739546 103.3366102278134 L 217.07031107842832 103.33287071623481 L 217.34579936605925 103.0779718757743 L 217.3499226478319 103.07419931238759 L 217.63018534005357 102.82063812145572 L 217.63444123620255 102.81683166226779 L 217.91940994172526 102.5648704935971 L 217.92380544332693 102.56102959834503 L 218.21341177086103 102.31093082466806 L 218.2179540849718 102.3070552714358 L 218.51212964322755 102.05908126548505 L 218.51682619944842 102.05517116870855 L 218.81550259713615 101.80958430321658 L 218.8203610519439 101.80564013504627 L 219.1234698977739 101.56270278274559 L 219.1284981363109 101.55872539774305 L 219.43597103899347 101.3186999313662 L 219.44117717394832 101.31469059451429 L 219.75294574219376 101.07783938679377 L 219.75833810934753 101.07379980478763 L 220.07433395186618 100.840385228456 L 220.0799211018166 100.83631758422285 L 220.40007582731874 100.60660201201264 L 220.40586651283272 100.60250900237284 L 220.73011173002865 100.37675480701657 L 220.73611488840825 100.37263968335277 L 221.0643822060083 100.15110923758296 L 221.07060693579393 100.14697584931993 L 221.40282796250838 99.92993152586912 L 221.40928349378223 99.92578436648726 L 221.74538983832136 99.71348853808797 L 221.75208549581995 99.70933279329454 L 222.09200876689414 99.50204783267931 L 222.0989539250941 99.49788943024141 L 222.44262573141359 99.29587771014276 L 222.44982976072356 99.29172337074428 L 222.79718171099867 99.09524726389473 L 222.80465391417687 99.09110455221499 L 223.15561761711794 98.9004264313471 L 223.16336715504866 98.89630380637055 L 223.51787421936592 98.71168604421682 L 223.52591002537443 98.70759290757225 L 223.88389205977828 98.52929787686521 L 223.8922227417474 98.52524461776305 L 224.25361135494805 98.35353469123525 L 224.2622450846404 98.34953272632305 L 224.6269718853482 98.184670276707 L 224.63591627453116 98.1807320829078 L 225.00391287145644 98.02297948293604 L 225.01317483469387 98.01911862107592 L 225.3843728365469 97.86873824348098 L 225.39395844086573 97.8649693702665 L 225.76828945635683 97.72222358778089 L 225.77820375842344 97.71856245346969 L 226.15559939626291 97.58371363882596 L 226.16584626822421 97.58017706776293 L 226.54623813712237 97.4534875936936 L 226.55682008287272 97.45009344478531 L 226.94013979153982 97.3318256840229 L 226.95105775586666 97.32859278822075 L 227.33723691301307 97.2190091134978 L 227.34849008683597 97.21595718548352 L 227.73746030117195 97.11531996953256 L 227.7490459269002 97.11246949107726 L 228.1407388071361 97.02104110663082 L 228.1526519889961 97.01841317955879 L 228.54699914384219 96.93645599934939 L 228.55923266882445 96.93407216670097 L 228.95616570699102 96.86184856346114 L 228.96870988278366 96.8597305983298 L 229.36816041298104 96.79750294479209 L 229.3810029298263 96.79567260741122 L 229.78290256076482 96.74370327630812 L 229.79602838453226 96.74218204126521 L 230.2003087249222 96.70073340532927 L 230.21370002875634 96.69954216225666 L 230.62029268730797 96.66887659422042 L 230.63392882892296 96.66803532689396 L 231.04276541434663 96.64841519948993 L 231.0566229653402 96.64794264987746 L 231.4676350863462 96.63963033583819 L 231.4816879187633 96.6395436611827 L 231.89480718406193 96.64280153324069 L 231.9090266178472 96.64311596561626 L 232.32418463614874 96.65820639650406 L 232.3385396491163 96.65893491532823 L 232.75566802913113 96.68612027777836 L 232.77012552872603 96.68727330637951 L 233.1891558791644 96.7268159731245 L 233.20368103269914 96.72840111054718 L 233.62454496227136 96.78056345431958 L 233.63910157964847 96.78258525303212 L 234.06173069706486 96.84762964656443 L 234.07628165740928 96.85008944558193 L 234.50060757138013 96.92827826160668 L 234.500525482108 96.92872375505698 L 234.51191764462325 96.9304974017286 L 234.9345525334565 97.0184927516156 L 234.9426460967674 97.02024794176587 L 235.36025775049472 97.11444006192677 L 235.36828941498982 97.11632135652621 L 235.78089285990734 97.21656480725635 L 235.78885667627918 97.21856904546918 L 236.19646693868282 97.32471838706388 L 236.204357202371 97.32684215290442 L 236.60698930855682 97.43875194565904 L 236.61480057778437 97.44099158808301 L 237.01246955404838 97.55851639229284 L 237.0201966656561 97.56086804633912 L 237.41291753829435 97.68386242229951 L 237.42055562129838 97.68632203104315 L 237.80834341660682 97.81464053904945 L 237.81588790343739 97.81720387612546 L 238.19875764771209 97.95070107647298 L 238.2062042831231 97.9533637689344 L 238.58417100266007 98.09189422191848 L 238.59151585032785 98.09465177319792 L 238.9645945714231 98.2380700391139 L 238.97183401828198 98.24091785186927 L 239.34003976723153 98.38907849101246 L 239.3471705256182 98.39201188965058 L 239.71051832871805 98.54476946231632 L 239.71753743642003 98.54778371500367 L 240.07604231996626 98.7049927814873 L 240.08294713828948 98.70808312147615 L 240.43662412857802 98.869598242073 L 240.4434123385638 98.87275988818905 L 240.79227646189074 99.03843562319445 L 240.79894605882782 99.04166379935451 L 241.14301234148917 99.21135470906378 L 241.14956162787382 99.21464466271087 L 241.48884509616553 99.38820530741935 L 241.49527267327116 99.39155232678509 L 241.82978835348933 99.56883726678812 L 241.83609311171077 99.57223669691254 L 242.16585603015136 99.75310049250545 L 242.1720371382883 99.7565477499634 L 242.49706232124737 99.94084496144151 L 242.50311921489265 99.94433554774518 L 242.8234216886662 100.13192073540382 L 242.82935405785776 100.13545024906675 L 243.1449488487418 100.32617797320127 L 243.15075662503372 100.32974212046689 L 243.46165875932428 100.52346694137262 L 243.46734210242394 100.52706154562377 L 243.77356660641706 100.72363802359602 L 243.77912589052687 100.7272590334752 L 244.0806877905185 100.92654172880933 L 244.0861235905106 100.93018522509013 L 244.38303791279682 101.13202869808144 L 244.3883509903401 101.13569089934177 L 244.68063276121688 101.33994971028561 L 244.6858240509626 101.34362697743968 L 244.97348829672603 101.55015568663138 L 244.97855889264937 101.55384452638499 L 245.2616206395954 101.76249769411989 L 245.26657178157734 101.76619476141653 L 245.54504605600204 101.97682694798995 L 245.54987911672646 101.98052904752025 L 245.8237809449258 102.19299481322753 L 245.82849741715464 102.19669890007425 L 246.09784182542467 102.41085280521071 L 246.10244330970528 102.41455598470435 L 246.367245324342 102.63025258956533 L 246.3717335171896 102.63395211642354 L 246.63200816448904 102.85104598130437 L 246.6363848470794 102.85473925812826 L 246.89214715333756 103.07308494332426 L 246.89641418073614 103.07676951852198 L 247.14767917224907 103.2962215843285 L 247.15183846319513 103.29989514953486 L 247.39862116625883 103.52030815624724 L 247.4026746935162 103.52396854330419 L 247.64499013442668 103.74519705121773 L 247.64893991570702 103.7488422287783 L 247.8868031207603 103.97074079818834 L 247.89065121021858 103.97436886800148 L 248.12407720571068 104.19679205920337 L 248.1278256860082 104.20040125213497 L 248.16124344420106 104.23291405514452 L 248.33631338890325 104.22113526829526 L 248.33767893475593 104.22104527078776 L 249.22574770531017 104.16373681226106 L 249.22711515388818 104.16365044995723 L 250.1170552239078 104.10866970690792 L 250.11842464719797 104.10858698931008 L 251.0102125806082 104.05594793681183 L 251.0115840499196 104.0558688743467 L 251.90519641064552 104.00558548747317 L 251.90656999662096 104.00551009148462 L 252.80198334858773 103.95759634530947 L 252.80335912121498 103.95752462805204 L 253.70055002834772 103.91199449764895 L 253.70192805696996 103.91192647228144 L 254.60087308319385 103.86879393272403 L 254.60225343651996 103.86872961330361 L 255.5029291457601 103.8280086396656 L 255.50431189187412 103.82794804114224 L 256.4066948480557 103.78965260849725 L 256.4080800544262 103.78959574670844 L 257.3121468214743 103.75373983013014 L 257.31353455496316 103.75368672179606 L 258.2192616968029 103.72028429635813 L 258.2206520236734 103.72023495907692 L 259.12801610423 103.689299999853 L 259.12940909015487 103.68925445209652 L 260.03838667335344 103.66080093416029 L 260.0397823834221 103.66075919527013 L 260.9503500331878 103.63480109369526 L 260.95174853191367 103.63476318387899 L 261.8638828121716 103.61131447373913 L 261.86528416349836 103.61128041406683 L 262.7789616381737 103.59035507043563 L 262.7803659054816 103.59032488283674 L 263.6955631384994 103.57193688078789 L 263.6969703846108 103.57191058804818 L 264.61366393989636 103.55607390265533 L 264.6150742270813 103.55605152841436 L 265.53324066855964 103.54278013475115 L 265.53465405854064 103.54276170349965 L 266.45426995013696 103.5320695766398 L 266.45568650409336 103.53205511371752 L 267.3767284097327 103.52395622873463 L 267.378148188305 103.52394576032832 L 268.3005926719126 103.5184540922961 L 268.3020157352058 103.51844764543766 L 269.22583936070686 103.51557716942975 L 269.2272657682942 103.51557477199466 L 270.1524450996137 103.51533946308473 L 270.15387491053934 103.51534114379065 L 271.0803865116025 103.51775497705235 L 271.08181978438387 103.51776076545781 L 272.00964021911585 103.52283771596483 L 272.0110770117459 103.52284764246821 L 272.94018284407184 103.53060168529417 L 272.9416232140208 103.53061578113282 L 273.8719910078658 103.54106089135142 L 273.8734350120826 103.54107918860095 L 274.8050413313718 103.55422934128583 L 274.80648902628474 103.55425187285941 L 275.7393104349433 103.57012104308426 L 275.7407618764608 103.57014784273231 L 276.67477493841386 103.58875000557077 L 276.6762301819246 103.58878110788059 L 277.6114114610973 103.61013023840634 L 277.6128640675163 103.61016551162709 L 278.54199339775363 103.63407819215138 L 278.54330816031734 103.63411376017969 L 279.46947854697135 103.66038835182619 L 279.4707943546212 103.66042741363702 L 280.39399757342284 103.68905055969819 L 280.39531444617023 103.68909312503955 L 281.31554227285045 103.72005146880781 L 281.3168602312183 103.7200975477408 L 282.2341044415081 103.7533777325086 L 282.2354235065386 103.75342733541581 L 283.149675876169 103.78901600447554 L 283.1509960694309 103.78906914206948 L 284.0622483741328 103.82695293871359 L 284.063569717729 103.8270096220454 L 284.97181373323355 103.86717518956634 L 284.97313624980904 103.86723543003468 L 285.8783637518471 103.90966941172486 L 285.8796874645966 103.90973322108508 L 286.78189022889916 103.95442226023692 L 286.7832151615757 103.95448965061026 L 287.68238496387374 104.0014203905162 L 287.68371114079645 104.00149137439936 L 288.579839756821 104.05065045835184 L 288.58116720288376 104.05072504862679 L 289.4742464083658 104.10209911991821 L 289.475575149046 104.10217732986207 L 290.36559671971645 104.15575303178488 L 290.36692678108363 104.15583487508027 L 291.2538824926736 104.2115988509269 L 291.2552139013985 104.2116843416723 L 292.13909552963884 104.26962323473515 L 292.14042831300264 104.26971238745566 L 293.02122763362445 104.32981284102718 L 293.02256181952805 104.32990567068556 L 293.90027060826225 104.3921543280582 L 293.901606225236 104.39225085006605 L 294.7762162578136 104.4566343545322 L 294.7775533350269 104.45673458476158 L 295.6490563871788 104.52323957961367 L 295.65039495445046 104.52334353440882 L 296.51878280190783 104.59195666293931 L 296.52012288971594 104.59206435912887 L 297.3853873082096 104.66277226463016 L 297.3867289477021 104.66288371953956 L 298.24886171296316 104.7356730453041 L 298.2502049359687 104.73578827676829 L 299.10919782372804 104.81064566608849 L 299.11054266276676 104.81076469246504 L 299.9663874487554 104.88767678863333 L 299.96773393705 104.88779962881581 L 300.82042239699894 104.96675307512464 L 300.8217705684862 104.96687974855641 L 301.67129447812647 105.04786118829817 L 301.67264436746905 105.04799171498645 L 302.51899550253154 105.1309877914536 L 302.5203471451296 105.131122191984 L 303.3635172813453 105.21611954846897 L 303.364870713349 105.21625784402032 L 304.204851626449 105.3032431238155 L 304.2062068847707 105.30338533617514 L 305.0429903504859 105.39234518257301 L 305.0443474728133 105.39249133415245 L 305.8779252668747 105.48341239044541 L 305.8792842916833 105.48356250429642 L 306.7096481898219 105.5764314137769 L 306.7110091563888 105.57658551360804 L 307.5381509343356 105.67138891956846 L 307.5395138827531 105.67154702976207 L 308.3634253162391 105.76827157549488 L 308.3647902874285 105.76843372112452 L 309.1854631521846 105.86706604992214 L 309.1868301879104 105.86723225677049 L 310.00425625966767 105.96775901192535 L 310.00562540255237 105.96792930650267 L 310.8197964570418 106.07033713130718 L 310.8211677505808 106.07051154087023 L 311.6320755635333 106.17478707861684 L 311.6334490521101 106.17496563118833 L 312.4410853992567 106.28109552516946 L 312.4424611281584 106.28127824955808 L 313.2468177852301 106.38924914306617 L 313.24819580066384 106.38943606888715 L 314.0492645433916 106.49923460521461 L 314.05064489250026 106.49942576291097 L 314.84841749661507 106.61103858535024 L 314.84980022749454 106.61123400621447 L 315.6442684687274 106.72464775805797 L 315.64565363044363 106.72484747425445 L 316.4368092845255 106.84004879879463 L 316.43819692713174 106.84025284338276 L 317.2260317697937 106.95722838391201 L 317.2274219443487 106.95743679086983 L 318.0119277513216 107.07617319068062 L 318.013320509908 107.07638599492935 L 318.7944890569229 107.19686989731407 L 318.79588445266575 107.19708713474314 L 319.5737075154536 107.31930518299426 L 319.57510560253974 107.31952689048727 L 320.3495749568316 107.44346572789718 L 320.35097579052956 107.44369194335853 L 321.12208321205634 107.56933821321968 L 321.1234868487361 107.56956897560207 L 321.89122411322876 107.69690932120687 L 321.89263061038247 107.69714467053952 L 322.6569894935721 107.82616573518041 L 322.65839890983534 107.82640571259824 L 323.41937118745284 107.95709413956766 L 323.4207835826262 107.95733878734131 L 324.17836103040264 108.08968121993168 L 324.1797764654736 108.08993058149849 L 324.9339508591399 108.22391366300225 L 324.93536939630565 108.22416778299811 L 325.68613251159275 108.35977815670765 L 325.68755421428347 108.36003708099992 L 326.43489782692245 108.4972613902077 L 326.4363227598247 108.49752516592908 L 327.1802386455465 108.63635005392752 L 327.1816668746278 108.63661872951106 L 327.92214680916345 108.77703083959258 L 327.923578401697 108.77730446480771 L 328.66061416077747 108.91929044026477 L 328.66204918536755 108.91956906625455 L 329.39563254472375 109.06311555037955 L 329.39707107133194 109.06339922969897 L 330.12719380669495 109.20849286578434 L 330.1286359066666 109.20878165244 L 330.8552897937674 109.35540908377817 L 330.856735539859 109.35570303326912 L 331.57991235442853 109.50385090315254 L 331.58136182083587 109.50415007251245 L 332.30105333860513 109.6538050242335 L 332.30250660099153 109.65410947207427 L 333.01870459769157 109.80525814892542 L 333.0201617332174 109.80556793548207 L 333.732857984579 109.95819698075576 L 333.7343190719316 109.95851216793292 L 334.443505353686 110.11260822492154 L 334.4449704731104 110.11292887634144 L 335.15063856098845 110.26847858833743 L 335.1521077943188 110.26880476938933 L 335.8542494640515 110.42579477968513 L 335.8557228947431 110.42612655757664 L 336.5543299220615 110.58454350946465 L 336.5558076352239 110.58488095327452 L 337.2508717958589 110.74471149004721 L 337.2523538782895 110.74505467078002 L 337.94386694797214 110.9062854357298 L 337.9453534881907 110.90663442637248 L 338.63330724265194 111.06925206279176 L 338.63479833093567 111.06960693837196 L 339.3191845459065 111.2335980895532 L 339.3206802743266 111.23395892719971 L 340.001490725538 111.39931023643531 L 340.0029911879962 111.39967711544047 L 340.6802176511792 111.56637522602288 L 340.68172294344583 111.56674822790721 L 341.35535719433136 111.73477978312884 L 341.35686741408404 111.7351589917078 L 342.0269012284031 111.90451063486111 L 342.0284164752661 111.90489613631426 L 342.69484162874977 112.07555451069165 L 342.69636200433484 112.07594639363418 L 343.3591702727139 112.24789814252807 L 343.3606958806615 112.2482964980848 L 343.8794692970711 112.38462891831634 L 343.8797421789811 112.37250214567541 L 343.88083926923605 112.31713152265961 L 343.88178761293443 112.26175765472101 L 343.8825872672863 112.20638084373783 L 343.8832382895021 112.15100139176457 L 343.8837407367976 112.0956196007374 L 343.8840946663897 112.04023577281811 L 343.8843001355002 111.98485021008986 L 343.88435720135453 111.92946321482508 L 343.8842659211833 111.87407508920388 L 343.88402635222235 111.81868613560295 L 343.88363855171264 111.76329665632332 L 343.8831025769021 111.70790695383477 L 343.88241848504435 111.65251733054994 L 343.8815863334014 111.59712808905951 L 343.8806061792411 111.54173953187322 L 343.8794780798407 111.48635196164989 L 343.87820209248457 111.4309656810365 L 343.87677827446765 111.37558099279782 L 343.8752066830922 111.32019819967813 L 343.87348737567123 111.26481760451588 L 343.8716204095272 111.20943951016997 L 343.8696058419933 111.1540642195643 L 343.8674437304134 111.0986920356683 L 343.8651341321437 111.04332326151477 L 343.86267710455 110.98795820015135 L 343.86007270501074 110.93259715467397 L 343.85732099091587 110.87724042821874 L 343.8544220196736 110.82188832407454 L 343.85137584869426 110.76654114536146 L 343.8481825354129 110.71119919546115 L 343.8448421372694 110.65586277763573 L 343.8413547117233 110.60053219529188 L 343.8377203162485 110.54520775187238 L 343.83393900832647 110.48988975075565 L 343.83001084546316 110.43457849550525 L 343.82593588517443 110.37927428964419 L 343.82171418498933 110.3239774367078 L 343.8173458024593 110.26868824035803 L 343.8128307951491 110.21340700425822 L 343.8081692206362 110.15813403206378 L 343.803361136518 110.1028696275104 L 343.7984066004129 110.04761409441728 L 343.7933056699451 109.99236773651347 L 343.7880584027685 109.9371308576993 L 343.78266485654683 109.88190376182548 L 343.77712508896366 109.82668675280088 L 343.77143915772456 109.77148013460773 L 343.7656071205441 109.7162842111693 L 343.75962903516364 109.66109928652537 L 343.7535049593447 109.60592566475715 L 343.74723495085686 109.55076364988236 L 343.74081906749836 109.49561354603595 L 343.7342573670858 109.44047565737395 L 343.7275499074499 109.38535028803847 L 343.7206967464485 109.33023774226406 L 343.7136979419511 109.27513832424805 L 343.70655355185255 109.22005233825979 L 343.69926363406756 109.16498008859564 L 343.69182824652813 109.10992187955596 L 343.68424744719033 109.05487801549569 L 343.67652129403047 108.9998488007955 L 343.66864984503906 108.94483453981454 L 343.6606331582332 108.8898355369788 L 343.6524712916574 108.83485209678439 L 343.6441643033569 108.77988452361434 L 343.6357122514191 108.7249331220168 L 343.62711519394827 108.66999819653222 L 343.61837318905145 108.61508005160654 L 343.6094862948899 108.56017899191549 L 343.60045456961365 108.50529532195185 L 343.5912780714133 108.45042934634812 L 343.5819568584974 108.39558136973388 L 343.5724909890918 108.34075169673446 L 343.56288052145385 108.28594063204892 L 343.55312551385214 108.23114848033674 L 343.54322602457165 108.17637554624582 L 343.53318211194915 108.12162213460732 L 343.52299383430056 108.06688855003566 L 343.5126612499994 108.01217509735567 L 343.5021844174205 107.95748208129851 L 343.49156339497546 107.90280980668823 L 343.48079824108396 107.84815857829167 L 343.46988901418564 107.79352870088299 L 343.45883577276766 107.7389204793767 L 343.4476385753025 107.6843342185196 L 343.4362974803174 107.62977022323396 L 343.42481254633805 107.57522879833846 L 343.4131838319219 107.52071024871456 L 343.40127375906775 107.46557775061282 L 343.39322677867796 107.41671301947152 L 343.3900531750707 107.36729193001518 L 343.39178408149843 107.31779930626331 L 343.3984025176594 107.26872067399131 L 343.40984355627546 107.22053749769198 L 343.4259949600327 107.17372245737826 L 343.4466982826369 107.12873481156237 L 343.47175042318105 107.0860158919007 L 343.500905618579 107.04598477370232 L 343.5338778545162 107.00903416477355 L 343.5703436712687 106.97552655292964 L 343.6099453368631 106.9457906499662 L 343.6522943564505 106.9201181669757 L 343.69697528346484 106.8987609526432 L 343.7435497951807 106.88192852259475 L 343.7915609926866 106.8697860040358 L 343.8405378830925 106.86245251584292 L 343.88999999999976 106.86000000000001 L 343.9390085701625 106.8624076366637 L 343.98754516100365 106.86960735979754 L 344.03514233862086 106.88152983213199 L 344.0631276002065 106.89154311883934 L 344.0857383139243 106.89567904723759 L 344.08817234205594 106.89613050713933 L 344.18396659722885 106.91414369688806 L 344.186424988137 106.91461234677938 L 344.28223402225944 106.93312530000307 L 344.2847169423797 106.93361158856712 L 344.3805328403658 106.95262931403113 L 344.3830404512966 106.95313369966146 L 344.47885529806035 106.97266120613112 L 344.4813877561836 106.97318415702652 L 344.57719363663904 106.99322645326717 L 344.57975109272405 106.99376844751829 L 344.67554009178514 107.01433054229526 L 344.6781226905778 107.01489206796263 L 344.7738868931587 107.03597897004127 L 344.77649477295455 107.03656052522388 L 344.87222626396914 107.05817724336953 L 344.8748595561692 107.05877933626272 L 344.97055042053165 107.0809308792407 L 344.9732092491838 107.08155402818329 L 345.06885157180807 107.10424540475897 L 345.0715360531288 107.10489013826758 L 345.16712191892896 107.12812635720627 L 345.16983216081104 107.1287932139971 L 345.2653536547011 107.15257928406417 L 345.2680897562016 107.15326881305991 L 345.36353896309555 107.17760974302067 L 345.3663010139089 107.17832250334293 L 345.46167001872084 107.20322330196274 L 345.4644580986326 107.20395986290734 L 345.5597389862765 107.22942553895152 L 345.5625531646012 107.230186479947 L 345.65773801999114 107.25622204218091 L 345.6605783549915 107.25700795272766 L 345.7556592630415 107.28361840991663 L 345.7585258013318 107.2844298895066 L 345.85349484695587 107.31162025041597 L 345.85638762288687 107.31245790843089 L 345.9512368909991 107.340233181826 L 345.95415592602706 107.34109763741321 L 346.0488775015414 107.3694628320594 L 346.05182280357946 107.37035471398364 L 346.14640877141 107.39931483864625 L 346.1493803341638 107.40023478511623 L 346.24382277922456 107.42979484856059 L 346.24682058151217 107.43074350702886 L 346.3411115887171 107.46090851802032 L 346.3441355937729 107.46188654495496 L 346.4382672480362 107.49266151225886 L 346.44131740280073 107.49366957288558 L 346.5352817890363 107.52505950526724 L 346.5383580234313 107.52609827327993 L 346.63214722655323 107.55810817950471 L 346.6352494527444 107.55917833674397 L 346.7288555576667 107.59181322557721 L 346.731983669313 107.59291546167384 L 346.8253987609497 107.62618034188087 L 346.82855263244295 107.6273153538643 L 346.9217687957081 107.66121523421046 L 346.92494828140104 107.66238372607936 L 347.01795760120865 107.69692361533 L 347.0211625346349 107.69812629758397 L 347.113957095899 107.7333112045044 L 347.1171872889869 107.73454879363578 L 347.2097591766215 107.77038372699138 L 347.21301441889943 107.7716569449343 L 347.30535571781866 107.80814691349039 L 347.3086357756204 107.80945648702735 L 347.4007385707382 107.84660649954925 L 347.4040431864027 107.84795315967195 L 347.4958995626331 107.88576822492503 L 347.49922845370634 107.88715270614956 L 347.5908304959634 107.92563783289916 L 347.5941833544026 107.92706087253366 L 347.68552314760035 107.9662210695451 L 347.6888996389814 107.96768340690818 L 347.77996926803394 108.0075236829468 L 347.78336903076905 108.00902605853686 L 347.8741605805903 108.04955142236801 L 347.87758322515157 108.05109457698047 L 347.9680887806556 108.09231003736949 L 347.9715338888159 108.09389471116339 L 348.0617455349167 108.1358052768756 L 348.0652126590039 108.13743220838668 L 348.1551224806156 108.18004288818744 L 348.1586111427869 108.18171281328839 L 348.2482112248235 108.22502861594303 L 348.25172091636284 108.22674226674977 L 348.34100334373835 108.27076820102364 L 348.34453352438067 108.27252630474801 L 348.43349038200904 108.31726737940645 L 348.4370404792927 108.3190706571541 L 348.52566385208814 108.36453188096242 L 348.52923326074546 108.36638104647832 L 348.6175152336218 108.4125674282019 L 348.62110331500224 108.41446318655996 L 348.7090359728737 108.46137973496411 L 348.7126420544158 108.46332278120698 L 348.80021748219633 108.51097450505705 L 348.803840856941 108.51296552278151 L 348.8910511395446 108.56135743084285 L 348.8946910657026 108.56339709073595 L 348.98152828804336 108.61253419177388 L 348.98518398861887 108.61462315010031 L 349.07164023561074 108.66451045288018 L 349.07531089808225 108.6666493499211 L 349.1613782546394 108.71729186320825 L 349.1650630307097 108.71948132165704 L 349.25073358174603 108.7708840542168 L 349.2544315871587 108.77312467753117 L 349.3396974175883 108.82529263812889 L 349.34340773201995 108.82758500884434 L 349.4282609267568 108.88052320624534 L 349.4319825937887 108.8828678842528 L 349.51641523774686 108.93658132722244 L 349.52014726491905 108.93897884801336 L 349.60415144301265 108.99347254531698 L 349.60789280196843 108.99592341820161 L 349.69146059911134 109.05120237860454 L 349.69521022583046 109.05370708490472 L 349.7783337269368 109.10977631717229 L 349.78209052207035 109.1123353083987 L 349.86476181205416 109.16919982129627 L 349.86852464135603 109.17181351731057 L 349.95073580513133 109.22947831960347 L 349.954503499997 109.23214710677455 L 350.0362466224778 109.29061720722811 L 350.0400179805899 109.29334143658716 L 350.12128514669024 109.35262184396674 L 350.1250589327756 109.35540182936796 L 350.20584222740945 109.4154975524389 L 350.2096171741102 109.41833356873306 L 350.2899086821917 109.47924961626067 L 350.29368349105414 109.48214189748956 L 350.37347529749735 109.5438832782392 L 350.37724864007726 109.54683201585652 L 350.45653282979606 109.60940373859353 L 350.4603033488842 109.61240907972187 L 350.53907200679276 109.67581615321158 L 350.54283831776365 109.67887819894459 L 350.62108352877596 109.74312563195235 L 350.6248442210545 109.74624443570762 L 350.70255807008454 109.81133723699877 L 350.7063117087356 109.8145128029324 L 350.7834862806974 109.88045598127228 L 350.7872314081344 109.88368826276309 L 350.8638587879421 109.95048682691701 L 350.86759392575607 109.95377572513055 L 350.94366619832357 110.0214346838639 L 350.94738984922435 110.02478004640062 L 351.0228990994658 110.0933044084787 L 351.02660974934156 110.0967060281228 L 351.1015480621709 110.16610080231095 L 351.1052441822519 110.16955841587962 L 351.17960364258323 110.2398286109432 L 351.1832836917155 110.24334189825343 L 351.2570563844627 110.31449252295778 L 351.2607188114765 110.31806110591093 L 351.3338968215539 110.39009716902137 L 351.3375400677313 110.39372061082207 L 351.41011548005264 110.46664712110395 L 351.4137379816764 110.47032492561095 L 351.4857028811558 110.54414689182961 L 351.4893030721428 110.54787850305647 L 351.5606495436943 110.62260093397725 L 351.56422585829665 110.62638573573986 L 351.63494598683434 110.70201364012809 L 351.63849686240593 110.70585095585274 L 351.7085827328438 110.78238934247378 L 351.7121066126574 110.78627843516523 L 351.7815503099095 110.86373231278439 L 351.78504564601894 110.86767238516305 L 351.8538392549993 110.94604676254569 L 351.85730451113255 110.95003695735492 L 351.9254401167551 111.02933684326638 L 351.9288737712289 111.03337624375388 L 351.9963434584078 111.11360664695948 L 351.99974400705383 111.11769427753698 L 352.0665398607031 111.19886020680208 L 352.0699058197893 111.20299503387969 L 352.1360199248229 111.28510149796963 L 352.1393498339626 111.28928243097025 L 352.2047742752946 111.37233443865034 L 352.20806670032914 111.37656033120075 L 352.2727935628736 111.46056289123636 L 352.2760470987153 111.46483254253366 L 352.34006846738623 111.54979066369013 L 352.3432817408112 111.55410282004082 L 352.4065897005226 111.64002151108348 L 352.4097613728989 111.64437486761119 L 352.47234800856484 111.73125913730539 L 352.47547677850696 111.735652339824 L 352.5373341750414 111.82350719693505 L 352.54041878097496 111.82793884397803 L 352.60153902329205 111.91676929727129 L 352.60457824592294 111.92123794227597 L 352.66478939042014 112.01080499997968 L 352.6867003427165 112.04331598272987 L 352.68745583625656 112.04444025012403 L 352.70943909090283 112.07724995105127 L 352.7101921107902 112.07837712395447 L 352.7320831670522 112.11124155028078 L 352.73283370461473 112.11237163094479 L 352.7546323769828 112.14529059716037 L 352.7553804234593 112.14642358780355 L 352.77708652642343 112.17939690839854 L 352.77783207295863 112.18053281119657 L 352.79944542100907 112.21356030066116 L 352.8001884586571 112.21469911775203 L 352.82170886628404 112.24778059057638 L 352.8224493860075 112.2489223240578 L 352.84387666770107 112.28205759473211 L 352.84461466036873 112.28320224665632 L 352.86594863061913 112.31639112967072 L 352.86668408700905 112.31753870204899 L 352.8879245603065 112.35078101189369 L 352.8886574711045 112.35193150669241 L 352.9098042619391 112.38522705785756 L 352.91053461773714 112.38638047699459 L 352.9315875405991 112.41972908397038 L 352.93231533189845 112.42088542931896 L 352.95327420127785 112.45428690659556 L 352.95399941848495 112.45544617997665 L 352.9748640488721 112.48890034204422 L 352.97558668230374 112.49006254523326 L 352.9963568881887 112.52356920658197 L 352.9970769280658 112.52473434129799 L 353.01775252393884 112.55829331641803 L 353.0184699603923 112.55946138433157 L 353.0390507607435 112.5930724877131 L 353.0397655838101 112.59424349043842 L 353.06025140312966 112.62790653657161 L 353.06096360275257 112.62908047566633 L 353.08135425553075 112.66279527904138 L 353.08206382156277 112.66397215600986 L 353.10235912228967 112.69773853111691 L 353.10306604448925 112.6989183474032 L 353.123265807655 112.73273610873244 L 353.1239700756872 112.73391886571952 L 353.14407411578213 112.76778782776111 L 353.1447757192219 112.7689735267758 L 353.164783850736 112.80289350401992 L 353.16548277906287 112.80408214632183 L 353.1853948164864 112.83805295325867 L 353.1860910590891 112.83924454004688 L 353.2059068169122 112.87326599116658 L 353.20660036308624 112.87446052357396 L 353.2263196557991 112.90853243336672 L 353.22701049474796 112.90972991246043 L 353.2466331368407 112.94385209541642 L 353.24732125767486 112.9450525221943 L 353.2668470636378 112.97922479280366 L 353.2675324553771 112.98042816819736 L 353.28696123970025 113.0146503409503 L 353.28764389127053 113.01585666581721 L 353.3069754684442 113.05012855520388 L 353.3076553686814 113.05133783033287 L 353.32688955319566 113.08565925084346 L 353.32756669084205 113.08687147694638 L 353.3467032971871 113.12124224307105 L 353.347377660895 113.12245742078794 L 353.366416503561 113.15687734701686 L 353.3670880818906 113.1580954769096 L 353.38602897536776 113.19256437773295 L 353.3866977567884 113.19378546028666 L 353.4055405155669 113.22830315019462 L 353.40620648845663 113.22952718581415 L 353.4249509270266 113.26409347929687 L 353.4256140796733 113.26532046830756 L 353.4442600125249 113.29993517985524 L 353.4449203331252 113.30116512249849 L 353.4634675747487 113.3358280666013 L 353.46412505141035 113.33706096303753 L 353.4825734162958 113.37177195418562 L 353.48322803703513 113.3730078044871 L 353.5015773396728 113.40776665717065 L 353.50222909241825 113.40900546132619 L 353.5204791472982 113.44381199003537 L 353.5211280198872 113.44505374794252 L 353.5392786414997 113.47990776716753 L 353.53992462168173 113.48115247863619 L 353.557975624517 113.51605380286718 L 353.5586186999534 113.51730146761705 L 353.5765698985015 113.55224991134418 L 353.57721005676433 113.55350052900015 L 353.5950612655154 113.58849590671362 L 353.5956984940893 113.58974947680733 L 353.6134495275336 113.62479160299729 L 353.61408381381574 113.62604812496521 L 353.63173448644346 113.66113681412186 L 353.63236581774436 113.66239628730344 L 353.64991594404563 113.69753135391692 L 353.6505443075887 113.69879377755248 L 353.6679937020537 113.733975036113 L 353.6686190849766 113.73524040934319 L 353.6859675620955 113.77046767434088 L 353.6865899514499 113.77173599620424 L 353.70383732571287 113.80700908212931 L 353.7044567084652 113.80828035156105 L 353.72160279436247 113.84359907290364 L 353.72221915739533 113.84487328873607 L 353.73926376941694 113.88023745998638 L 353.73987709952706 113.88151462094157 L 353.75682005216333 113.91692405658976 L 353.75743033606585 113.91820416128691 L 353.77427144380687 113.95365867582315 L 353.77487866813243 113.95494172276852 L 353.7916177454684 113.99044113068298 L 353.79222189676597 113.9917271182739 L 353.808858758187 114.02727123405677 L 353.8094598229226 114.02856016057602 L 353.82599428291894 114.06414879871745 L 353.8265922474788 114.06544066233663 L 353.84302412054063 114.10107363732682 L 353.84361897122943 114.10236843610032 L 353.8599480718469 114.13804556242941 L 353.8605397948893 114.1393432942946 L 353.87676593755253 114.1750643864528 L 353.8773545190944 114.17636504922895 L 353.8934775182936 114.21212992170639 L 353.8940629444014 114.21343351309145 L 353.9100826146268 114.24924198037834 L 353.9106648712903 114.25054849795085 L 353.92658102703194 114.28640037453734 L 353.9271601001624 114.28770981574958 L 353.94297255591056 114.32360491612586 L 353.94354843134397 114.32491727830782 L 353.9592570015888 114.36085541696404 L 353.9598296650848 114.36217069731788 L 353.9754341643165 114.39815168874424 L 353.97600360156036 114.39946988434507 L 353.99150384426906 114.43549354303173 L 353.9920700408718 114.43681465082463 L 354.0074658415476 114.47288079126174 L 354.00802878304637 114.47420480805914 L 354.02331995617965 114.5103132447369 L 354.02387962804124 114.51164016722319 L 354.039065988122 114.54779071463177 L 354.0396223757395 114.54912053935189 L 354.05470373725797 114.58531301198147 L 354.0552568259553 114.58664573534809 L 354.07023300340165 114.62287994768882 L 354.07078277843283 114.62421556597641 L 354.08565358629716 114.66049133251848 L 354.08620003284665 114.66182984186072 L 354.1009652856193 114.6981469770943 L 354.1015083888058 114.69948837348942 L 354.1161679009768 114.73584669190467 L 354.11670764585017 114.73719097120347 L 354.1312612319097 114.77359028729057 L 354.1317976034552 114.77493744520362 L 354.1462450778935 114.81137757345275 L 354.1467780610319 114.81272760554613 L 354.1611192383391 114.84920836044745 L 354.16164881792673 114.85056126213838 L 354.175883512593 114.88708245818208 L 354.17640967342356 114.88843822474027 L 354.1905376999391 114.9249996764165 L 354.19106042674616 114.92635830296476 L 354.2050815996011 114.96295982476371 L 354.20560087705604 114.96432130626981 L 354.2195150107406 115.00096271268164 L 354.2200308234571 115.00232704396423 L 354.23383773246144 115.03900814947913 L 354.2343500649944 115.04037532520118 L 354.24804956380865 115.0770959443093 L 354.24855840065607 115.07846595897793 L 354.26215030377045 115.11522590616947 L 354.26265562937465 115.11659875413496 L 354.27613975127935 115.15339784390007 L 354.2766415500287 115.15477351935507 L 354.29001770521387 115.19161156618394 L 354.290515961443 115.19299006315968 L 354.3037839643988 115.22986688154248 L 354.30427866239063 115.2312481939092 L 354.31743832760725 115.26816359833607 L 354.3179294515947 115.26954771980256 L 354.33098059356223 115.30650152476372 L 354.3314681277273 115.3078884488701 L 354.34441056093607 115.34488046885569 L 354.34489448941514 115.3462701889823 L 354.35772802835515 115.3833002384825 L 354.35820833523564 115.38469274783573 L 354.3709327943972 115.42176064134073 L 354.37140946372347 115.42315593296391 L 354.38312835946743 115.4576251690121 L 354.3935201591028 115.46097920774871 L 354.3926412968155 115.45840567867086 L 354.3921893791341 115.45708835204614 L 354.379298074495 115.41968039841535 L 354.37884259267395 115.4183646328791 L 354.3658478353878 115.38099464692631 L 354.3653887930251 115.37968044492943 L 354.3522907067651 115.3423486740011 L 354.3518281073983 115.34103603797858 L 354.3386268158377 115.3037427294211 L 354.3381606629425 115.30243166178948 L 354.32485628975445 115.26517706294933 L 354.3243865867468 115.2638675661134 L 354.31097925560454 115.226651924337 L 354.31050600583904 115.22534400068616 L 354.29699584041583 115.18816756331994 L 354.29651904718565 115.18686121522931 L 354.28290617115465 115.14972422961972 L 354.28242583769344 115.14841945945548 L 354.2687103747279 115.11132217294896 L 354.26822650420775 115.1100189830645 L 354.2544085779809 115.07296164300746 L 354.2539211735138 115.07166003574736 L 354.24000090769886 115.03464288948626 L 354.2395099723358 115.03334286718497 L 354.22548749060593 114.99636616206622 L 354.22499302733786 114.99506772705166 L 354.2108684533663 114.95813171042174 L 354.2103704651246 114.95683486501632 L 354.1961439225846 114.91993978422164 L 354.1956424122391 114.91864453073924 L 354.18131402480395 114.88179063312623 L 354.18080899516497 114.88049697387645 L 354.16637888650774 114.84368450679156 L 354.1658703403261 114.84239244408187 L 354.15133863412 114.80562165487153 L 354.15082657408703 114.80433119100701 L 354.13619339400543 114.76760232701766 L 354.13567782275186 114.76631346429916 L 354.1209432924679 114.72962677287724 L 354.1204242125654 114.72833951360566 L 354.1055884557523 114.6916952420976 L 354.10506586971394 114.69040958857569 L 354.0901290100449 114.65380798432793 L 354.0896029203242 114.65252393885862 L 354.0745650814725 114.61596524921758 L 354.0740354904634 114.6146828141039 L 354.05889679610215 114.57816728641605 L 354.0583637061421 114.57688646396943 L 354.0431242799446 114.54041434558118 L 354.04258769331005 114.53913513811145 L 354.02724765894953 114.50270667636924 L 354.02670757786024 114.5014290861945 L 354.01126705900987 114.46504452844478 L 354.01072348562724 114.46376855788857 L 353.9951826059602 114.42742815147776 L 353.9946355423882 114.42615380287127 L 353.9789944255778 114.38985779514582 L 353.97844387386266 114.3885850708278 L 353.96270264358213 114.35233370913413 L 353.96214860571206 114.35106261145027 L 353.9463073856345 114.31485614313483 L 353.9457498635428 114.31358667444579 L 353.9298087773416 114.27742534685501 L 353.92924777290244 114.27615750952623 L 353.91320694425065 114.24004157000655 L 353.9126424592838 114.23877536642013 L 353.8965020118547 114.20270506231799 L 353.895934048123 114.20144049486694 L 353.87969410558986 114.16541607352879 L 353.87912266480004 114.16415314461895 L 353.86278335083597 114.12817485339119 L 353.8622084346405 114.12691356544558 L 353.8457698729188 114.09098165167467 L 353.84519148291315 114.0897220071282 L 353.828653797107 114.05383671816057 L 353.82807193483393 114.05257871946914 L 353.8114352486166 114.01674030265123 L 353.810849915563 114.01548395228482 L 353.79411435260766 113.97969265496307 L 353.79352555020665 113.97843795541127 L 353.77669123418656 113.9426940249321 L 353.77609896381756 113.94144097870351 L 353.7591660184059 113.90574466241338 L 353.75857028139507 113.90449327203736 L 353.74153883026503 113.86884481728268 L 353.7409396278857 113.8675950853097 L 353.7238097947106 113.83199473943694 L 353.72320712818333 113.83074666843949 L 353.70597903663634 113.79519467879506 L 353.70537290712855 113.79394827136647 L 353.6880466808828 113.75844488529683 L 353.68743708951246 113.75720014405924 L 353.6700128522413 113.7217456089108 L 353.669399800072 113.72050253650501 L 353.65187767544853 113.68509709962422 L 353.6512611634953 113.68385569872163 L 353.6336412751928 113.64849960745491 L 353.633021304419 113.64725988075085 L 353.6153037761107 113.61195338244465 L 353.61468034743007 113.61071533266319 L 353.5968653027892 113.57545867466396 L 353.5962384170655 113.57422230455656 L 353.5783259797652 113.53901573421071 L 353.57769563781306 113.53778104655805 L 353.55968593152664 113.50262481121204 L 353.5590521341124 113.50139180882601 L 353.54094528251306 113.46628615582627 L 353.54030803035386 113.46505484154764 L 353.52210415711477 113.43000001824059 L 353.5214634508816 113.4287703949448 L 353.50316267967605 113.3937666486769 L 353.50251851999053 113.39253871926826 L 353.48412097449165 113.35758629738594 L 353.483473361931 113.35636006480672 L 353.46497916581205 113.3214592146564 L 353.4643281009054 113.32023468187974 L 353.44573737783963 113.28538565080787 L 353.44508286107083 113.28416282084277 L 353.4263957347314 113.2493658561958 L 353.4257377665403 113.24814473208978 L 353.4069543606005 113.21340008121412 L 353.4062929413806 113.21218066604833 L 353.38741337951365 113.17748857629043 L 353.386748509615 113.17627087318482 L 353.367772915494 113.14163159189111 L 353.36710459522374 113.14041560400547 L 353.348033092522 113.1058293785224 L 353.34736132214374 113.1046151090551 L 353.3281940345345 113.0700821867291 L 353.32751881426884 113.06886963891733 L 353.3082558654252 113.03439026709484 L 353.3075771954522 113.03317944421931 L 353.2882187090475 112.99875387024674 L 353.2875365895052 112.99754477562853 L 353.26808268921263 112.96317324685235 L 353.2673971201977 112.96196588385395 L 353.2478479296904 112.92764864762059 L 353.24715891126186 112.92644301965201 L 353.2275145542132 112.8921803233079 L 353.22682208638753 112.89097643381807 L 353.2070826864706 112.85676852470964 L 353.20638676922795 112.85556637719678 L 353.186552450116 112.82141350267047 L 353.18585308339755 112.82021310067694 L 353.1659239687638 112.78611550807919 L 353.1652211524725 112.78491685519303 L 353.14519736599016 112.75087479187029 L 353.1444910999937 112.74967789172956 L 353.12437276533603 112.71569160502824 L 353.1236630494639 112.71449646131573 L 353.1034502903041 112.68056619858228 L 353.1027371243517 112.67937281503201 L 353.08243006436294 112.64549882361287 L 353.0817134480905 112.64430720400847 L 353.0613122109461 112.61048973125007 L 353.06059214407935 112.6092998794244 L 353.04009685345244 112.57553917267319 L 353.03937333568393 112.57435109251117 L 353.01878411524774 112.54064739911355 L 353.0180571462372 112.53946109455184 L 352.997374119665 112.5058146618543 L 352.9966436990399 112.50463013688206 L 352.9758669900049 112.47104121223099 L 352.9751331173613 112.46985847089039 L 352.95426284953663 112.43632730163225 L 352.9535255244402 112.4351463480201 L 352.9325618214991 112.40167318150132 L 352.93182104348585 112.40049401976962 L 352.91076402910164 112.36707910333665 L 352.9100197976775 112.36590173769137 L 352.88886959552326 112.33254531869063 L 352.88812191016723 112.33136975339657 L 352.8668786439163 112.2980720791745 L 352.866127504078 112.29689831855032 L 352.84479129740356 112.26365963645335 L 352.84403670250725 112.26248768487777 L 352.8226076790825 112.22930824225236 L 352.82184962852546 112.22813810416122 L 352.80032791202365 112.19501814835378 L 352.7995664051781 112.19384982824214 L 352.7779521192724 112.16078960659911 L 352.7771871554861 112.15962310902172 L 352.75548042384975 112.12662286888956 L 352.754712002447 112.12545819846221 L 352.7329129487532 112.09251818718734 L 352.73214106903526 112.09135534858628 L 352.71024981695734 112.05847581351513 L 352.7094744782023 112.05731481147674 L 352.6874911514133 112.02449599995576 L 352.6867123528803 112.0233368392823 L 352.6647953800644 111.99081390987196 L 352.60457824592294 111.90123794227596 L 352.60153902329205 111.89676929727128 L 352.54041878097496 111.80793884397802 L 352.5373341750414 111.80350719693504 L 352.47547677850696 111.71565233982399 L 352.47234800856484 111.71125913730538 L 352.4097613728989 111.62437486761118 L 352.4065897005226 111.62002151108346 L 352.3432817408112 111.53410282004081 L 352.34006846738623 111.52979066369012 L 352.2760470987153 111.44483254253365 L 352.2727935628736 111.44056289123635 L 352.20806670032914 111.35656033120074 L 352.2047742752946 111.35233443865033 L 352.1393498339626 111.26928243097024 L 352.1360199248229 111.26510149796962 L 352.0699058197893 111.18299503387968 L 352.0665398607031 111.17886020680207 L 351.99974400705383 111.09769427753697 L 351.9963434584078 111.09360664695947 L 351.9288737712289 111.01337624375387 L 351.9254401167551 111.00933684326637 L 351.85730451113255 110.93003695735491 L 351.8538392549993 110.92604676254568 L 351.78504564601894 110.84767238516304 L 351.7815503099095 110.84373231278438 L 351.7121066126574 110.76627843516522 L 351.7085827328438 110.76238934247377 L 351.63849686240593 110.68585095585273 L 351.63494598683434 110.68201364012808 L 351.56422585829665 110.60638573573985 L 351.5606495436943 110.60260093397724 L 351.4893030721428 110.52787850305646 L 351.4857028811558 110.5241468918296 L 351.4137379816764 110.45032492561094 L 351.41011548005264 110.44664712110394 L 351.3375400677313 110.37372061082206 L 351.3338968215539 110.37009716902136 L 351.2607188114765 110.29806110591092 L 351.2570563844627 110.29449252295777 L 351.1832836917155 110.22334189825342 L 351.17960364258323 110.2198286109432 L 351.1052441822519 110.14955841587961 L 351.1015480621709 110.14610080231094 L 351.02660974934156 110.07670602812279 L 351.0228990994658 110.07330440847869 L 350.94738984922435 110.00478004640061 L 350.94366619832357 110.00143468386389 L 350.86759392575607 109.93377572513054 L 350.8638587879421 109.930486826917 L 350.7872314081344 109.86368826276308 L 350.7834862806974 109.86045598127227 L 350.7063117087356 109.79451280293239 L 350.70255807008454 109.79133723699876 L 350.6248442210545 109.72624443570761 L 350.62108352877596 109.72312563195234 L 350.54283831776365 109.65887819894458 L 350.53907200679276 109.65581615321157 L 350.4603033488842 109.59240907972186 L 350.45653282979606 109.58940373859352 L 350.37724864007726 109.52683201585651 L 350.37347529749735 109.5238832782392 L 350.29368349105414 109.46214189748954 L 350.2899086821917 109.45924961626066 L 350.2096171741102 109.39833356873305 L 350.20584222740945 109.39549755243888 L 350.1250589327756 109.33540182936795 L 350.12128514669024 109.33262184396673 L 350.0400179805899 109.27334143658715 L 350.0362466224778 109.2706172072281 L 349.954503499997 109.21214710677454 L 349.95073580513133 109.20947831960346 L 349.86852464135603 109.15181351731056 L 349.86476181205416 109.14919982129626 L 349.78209052207035 109.09233530839869 L 349.7783337269368 109.08977631717228 L 349.69521022583046 109.0337070849047 L 349.69146059911134 109.03120237860453 L 349.60789280196843 108.9759234182016 L 349.60415144301265 108.97347254531697 L 349.52014726491905 108.91897884801335 L 349.51641523774686 108.91658132722243 L 349.4319825937887 108.8628678842528 L 349.4282609267568 108.86052320624533 L 349.34340773201995 108.80758500884433 L 349.3396974175883 108.80529263812888 L 349.2544315871587 108.75312467753116 L 349.25073358174603 108.75088405421678 L 349.1650630307097 108.69948132165703 L 349.1613782546394 108.69729186320824 L 349.07531089808225 108.64664934992109 L 349.07164023561074 108.64451045288017 L 348.98518398861887 108.5946231501003 L 348.98152828804336 108.59253419177386 L 348.8946910657026 108.54339709073594 L 348.8910511395446 108.54135743084284 L 348.803840856941 108.4929655227815 L 348.80021748219633 108.49097450505704 L 348.7126420544158 108.44332278120697 L 348.7090359728737 108.4413797349641 L 348.62110331500224 108.39446318655995 L 348.6175152336218 108.39256742820189 L 348.52923326074546 108.34638104647831 L 348.52566385208814 108.3445318809624 L 348.4370404792927 108.29907065715409 L 348.43349038200904 108.29726737940643 L 348.34453352438067 108.252526304748 L 348.34100334373835 108.25076820102363 L 348.25172091636284 108.20674226674976 L 348.2482112248235 108.20502861594302 L 348.1586111427869 108.16171281328837 L 348.1551224806156 108.16004288818743 L 348.0652126590039 108.11743220838667 L 348.0617455349167 108.11580527687559 L 347.9715338888159 108.07389471116338 L 347.9680887806556 108.07231003736948 L 347.87758322515157 108.03109457698046 L 347.8741605805903 108.029551422368 L 347.78336903076905 107.98902605853685 L 347.77996926803394 107.98752368294679 L 347.6888996389814 107.94768340690817 L 347.68552314760035 107.94622106954509 L 347.5941833544026 107.90706087253365 L 347.5908304959634 107.90563783289915 L 347.49922845370634 107.86715270614955 L 347.4958995626331 107.86576822492502 L 347.4040431864027 107.82795315967194 L 347.4007385707382 107.82660649954924 L 347.3086357756204 107.78945648702734 L 347.30535571781866 107.78814691349038 L 347.21301441889943 107.7516569449343 L 347.2097591766215 107.75038372699137 L 347.1171872889869 107.71454879363577 L 347.113957095899 107.7133112045044 L 347.0211625346349 107.67812629758396 L 347.01795760120865 107.67692361532998 L 346.92494828140104 107.64238372607934 L 346.9217687957081 107.64121523421045 L 346.82855263244295 107.6073153538643 L 346.8253987609497 107.60618034188086 L 346.731983669313 107.57291546167383 L 346.7288555576667 107.5718132255772 L 346.6352494527444 107.53917833674396 L 346.63214722655323 107.5381081795047 L 346.5383580234313 107.50609827327992 L 346.5352817890363 107.50505950526723 L 346.44131740280073 107.47366957288557 L 346.4382672480362 107.47266151225885 L 346.3441355937729 107.44188654495495 L 346.3411115887171 107.44090851802031 L 346.24682058151217 107.41074350702885 L 346.24382277922456 107.40979484856058 L 346.1493803341638 107.38023478511622 L 346.14640877141 107.37931483864624 L 346.05182280357946 107.35035471398363 L 346.0488775015414 107.34946283205939 L 345.95415592602706 107.3210976374132 L 345.9512368909991 107.32023318182598 L 345.85638762288687 107.29245790843088 L 345.85349484695587 107.29162025041596 L 345.7585258013318 107.26442988950659 L 345.7556592630415 107.26361840991662 L 345.6605783549915 107.23700795272765 L 345.65773801999114 107.2362220421809 L 345.5625531646012 107.21018647994698 L 345.5597389862765 107.2094255389515 L 345.4644580986326 107.18395986290733 L 345.46167001872084 107.18322330196273 L 345.3663010139089 107.15832250334292 L 345.36353896309555 107.15760974302066 L 345.2680897562016 107.1332688130599 L 345.2653536547011 107.13257928406416 L 345.16983216081104 107.10879321399709 L 345.16712191892896 107.10812635720626 L 345.0715360531288 107.08489013826757 L 345.06885157180807 107.08424540475896 L 344.9732092491838 107.06155402818328 L 344.97055042053165 107.06093087924069 L 344.8748595561692 107.0387793362627 L 344.87222626396914 107.03817724336952 L 344.77649477295455 107.01656052522387 L 344.7738868931587 107.01597897004126 L 344.6781226905778 106.99489206796262 L 344.67554009178514 106.99433054229524 L 344.57975109272405 106.97376844751828 L 344.57719363663904 106.97322645326716 L 344.4813877561836 106.95318415702651 L 344.47885529806035 106.95266120613111 L 344.3830404512966 106.93313369966145 L 344.3805328403658 106.93262931403112 L 344.2847169423797 106.91361158856711 L 344.28223402225944 106.91312530000306 L 344.186424988137 106.89461234677937 L 344.18396659722885 106.89414369688805 L 344.08817234205594 106.87613050713932 L 344.0857383139249 106.87567904723768 L 343.98996675278784 106.85816061219853 L 343.9783035224739 106.85616950441646 L 343.8819186143167 106.84088637004241 L 343.8801713112 106.84061247860046 L 343.7837444778218 106.82567216638742 L 343.7819965235438 106.8254045037621 L 343.6855286924938 106.81080701371008 L 343.6837801039693 106.81054557919121 L 343.58727220279656 106.79629091130018 L 343.5855229968665 106.79603570416705 L 343.4889759531202 106.78212385843703 L 343.48722614655367 106.78187487795965 L 343.39064088778287 106.76830585439063 L 343.38889049727834 106.76806309983093 L 343.2922679510323 106.75483689842291 L 343.29051699321866 106.75460036903583 L 343.19385808704646 106.74171698978881 L 343.19210657848504 106.74148668482354 L 343.0954122399358 106.72894612773753 L 343.09366019712155 106.72872204643862 L 342.9969313537444 106.71652431151361 L 342.9951787931073 106.71630645312194 L 342.8984163724514 106.70445154035795 L 342.89666331035846 106.70423990411199 L 342.7998682399729 106.69272781350898 L 342.79811469272886 106.69252239864561 L 342.70128790016287 106.68135313020362 L 342.6995338840125 106.68115393595929 L 342.60267629681516 106.67032748967829 L 342.6009218279441 106.67013451528992 L 342.5040343736645 106.65965089116993 L 342.5022794682017 106.65946413587592 L 342.4053630743891 106.64932333391694 L 342.4036077484075 106.64914279695805 L 342.306663342611 106.63934481716007 L 342.3049076121294 106.6391704977803 L 342.207936121898 106.62971534014333 L 342.20618000288323 106.6295472375909 L 342.1091823557662 106.62043490211492 L 342.1074258641335 106.62027301564295 L 342.01040298768 106.61150350232799 L 342.0086461392959 106.61134783119543 L 341.9115989610549 106.60292114004146 L 341.9098417717379 106.60277168351384 L 341.8127712192587 106.59468781452088 L 341.81101370478154 106.59454457187107 L 341.71392070561325 106.58680352503912 L 341.7121628817041 106.58666649554804 L 341.61504836339583 106.5792682708771 L 341.6132902457401 106.57913745383446 L 341.51615513584096 106.57208205132451 L 341.5143967400831 106.57195744602944 L 341.4172419661423 106.5652448656805 L 341.41548330788714 106.56512647144223 L 341.31830979745376 106.55875671325428 L 341.3165508922685 106.55864452939272 L 341.2193595728917 106.5526175933658 L 341.2176004363074 106.55251161921215 L 341.12039223553626 106.54682750534622 L 341.1186328830495 106.54672774024353 L 341.02140872843324 106.5413864485386 L 341.019649175508 106.5412928918423 L 340.92240999459574 106.53629442229838 L 340.9206502566649 106.53620707337674 L 340.8233969770057 106.53155142599383 L 340.8216370694728 106.53147028422849 L 340.72437061861586 106.52715745900657 L 340.72261055685686 106.52708252379297 L 340.62533186235135 106.52311252073206 L 340.62357166171626 106.5230437914798 L 340.5262816511113 106.51941661057988 L 340.52452132692594 106.51935408671318 L 340.42722092777063 106.51606972797428 L 340.42546049533854 106.51601340893231 L 340.32815063518206 106.5130718723544 L 340.3263901097856 106.51302175759156 L 340.22907171617703 106.51042304317467 L 340.22731111308013 106.51037913216096 L 340.12998511356864 106.50812323990507 L 340.1282244480174 106.50808553212633 L 340.03089177015215 106.50617246203144 L 340.0291310573775 106.50614095698957 L 339.93179262870757 106.50457070905568 L 339.93003188392646 106.50454540626889 L 339.832688632001 106.503317980496 L 339.83092787041835 106.50329887949894 L 339.73358072278654 106.50241427588706 L 339.7318199595968 106.50240137623103 L 339.6344698438078 106.50185959478017 L 339.6327090941972 106.50185289603321 L 339.53535693780003 106.50165393674334 L 339.53359621694744 106.50165343849034 L 339.43624294749134 106.50179730136148 L 339.434482270571 106.50180300320422 L 339.337128815605 106.50228968823636 L 339.3353681977875 106.50230158979359 L 339.23801548486085 106.50313109698673 L 339.2362549413153 106.50314919789413 L 339.1389038979771 106.50432152724828 L 339.1371434438726 106.50434582715847 L 339.039794997672 106.50586097867362 L 339.03803464817975 106.5058914772561 L 338.9406897266658 106.50774945093225 L 338.9389294969604 106.50778614787332 L 338.8415890276824 106.50998694371047 L 338.8398289329438 106.51002983871314 L 338.74249384345075 106.51257345671131 L 338.7407338988663 106.51262254949508 L 338.6434051167074 106.51550898965424 L 338.64164533747277 106.51556427995507 L 338.54432379019715 106.51879354227525 L 338.5425641915191 106.51885502984526 L 338.44525080667586 106.52242711432643 L 338.4434914037731 106.5224947989337 L 338.3461871089114 106.52640970557589 L 338.3444279170167 106.52648358700422 L 338.24713363968567 106.5307413158074 L 338.24537467404764 106.53082139385604 L 338.14809134179643 106.53542194482023 L 338.14633261768097 106.53550821930351 L 338.04906115805875 106.54045159242871 L 338.0473026907512 106.54054406317577 L 337.9500440313071 106.54583025846196 L 337.94828583611326 106.54592892531633 L 337.8510409043963 106.55155794276354 L 337.8492829966451 106.55166280558278 L 337.7520527202046 106.55763464519099 L 337.75029511524883 106.55774570384622 L 337.6530804216338 106.56406036561542 L 337.6513231348522 106.56417761999094 L 337.55412495161175 106.57083510392115 L 337.55236799841106 106.57095855391387 L 337.4551872530944 106.5779588600051 L 337.45343064891046 106.57808850552405 L 337.35626826906673 106.58543163377627 L 337.3545120293664 106.58556747474215 L 337.2573689425447 106.59325342515537 L 337.25561308282744 106.59339546149982 L 337.1584902165769 106.60142423407406 L 337.1567347523768 106.60157246573922 L 337.05963303424664 106.60994406047445 L 337.0578779811333 106.61009848741226 L 336.96079833867253 106.6188129043085 L 336.9590437122536 106.61897352648002 L 336.8619870730115 106.62803076553726 L 336.8602328889337 106.62819758291205 L 336.76320018045925 106.6375976441303 L 336.76144645441 106.6377706566857 L 336.6644386042525 106.64751354006495 L 336.66268535196207 106.64769274778531 L 336.56570328767054 106.65777845332556 L 336.56395052491297 106.65796385620149 L 336.4669951740366 106.66839238390274 L 336.46524291663155 106.66858398193038 L 336.3683152067195 106.67935533179265 L 336.3665634705345 106.6795531249727 L 336.2696643291358 106.69066729699595 L 336.26791313008624 106.69087128533305 L 336.1710434847501 106.70232827951732 L 336.1692928388025 106.70253846301891 L 336.07245361707805 106.71433827936418 L 336.0707035402505 106.71455465803983 L 335.9738956696869 106.7266972965461 L 335.9721461780511 106.72691987040649 L 335.8753705861975 106.73940533107377 L 335.87362169588016 106.73963410012965 L 335.7768793102856 106.75246238295793 L 335.77513103746963 106.75269734721932 L 335.6784227856833 106.76586845220861 L 335.6766751466099 106.76610961168365 L 335.580001956181 106.77962353883393 L 335.5782549671506 106.77987089352791 L 335.4816177656282 106.79372764283922 L 335.4798714430025 106.79398119275346 L 335.38327115793567 106.80818076422577 L 335.38152551813835 106.80844050935664 L 335.2849630770764 106.82298290298993 L 335.28321813659505 106.82324884332763 L 335.186694467087 106.83813405912194 L 335.18495024247477 106.8384061946494 L 335.08846627206975 106.8536342326047 L 335.086722779946 106.85391256329642 L 334.9902794361932 106.86948342341273 L 334.9885366932454 106.86976794923362 L 334.89213490369394 106.88568163151095 L 334.89039292667934 106.88597235241501 L 334.79403361887836 106.90222885685333 L 334.7922924246245 106.90252577278257 L 334.6959765261231 106.9191250993819 L 334.69423613153 106.91942821026493 L 334.692580056031 106.91971965123649 L 334.6795524379139 106.85939122475207 L 334.6789800131866 106.85677442784427 L 334.6483874226552 106.71869546455564 L 334.64779121928626 106.71603878580396 L 334.6130402404643 106.56313832934673 L 334.6124194118909 106.56044131205749 L 334.57339218420134 106.39301926998593 L 334.5727458397638 106.39028139043481 L 334.52932450262955 106.20863767030318 L 334.52865171095425 106.20585836395027 L 334.4807184037984 106.01029287331285 L 334.4800181941555 106.00747154976513 L 334.4274550564011 105.79828419617618 L 334.4267264190057 105.79542024837221 L 334.3694155900756 105.572910939386 L 334.36865747580254 105.57000374965413 L 334.3064810951199 105.33447239282496 L 334.3056924148748 105.33152133717914 L 334.23853262186253 105.08326784006124 L 334.23771224574466 105.08027229148723 L 334.16545117982577 104.81959656163488 L 334.164597936159 104.81655589278677 L 334.08711773675657 104.54375783775424 L 334.0862304110357 104.54067142331796 L 334.00341321757264 104.25605095065954 L 334.00249055135725 104.25291816954248 L 333.9142185032566 103.95677518681241 L 333.91325919303347 103.95359542425825 L 333.8194144297182 103.64622983901081 L 333.8184171257483 103.64300248870988 L 333.7188817866415 103.32471420849937 L 333.7178450918054 103.32143867474127 L 333.61250131632994 102.9925276071219 L 333.6114237849834 102.98920330702656 L 333.50015371256245 102.64996935955263 L 333.4990338494128 102.64659572540404 L 333.3817196194692 102.29733880562983 L 333.3805558784842 102.2939152873367 L 333.25707963044107 101.93493530281647 L 333.2558704138004 101.9314613705131 L 333.1261142870807 101.56305822880111 L 333.12485794418325 101.55953337560688 L 332.98870407820993 101.18200698425741 L 332.9873989047487 101.17843072920607 L 332.8447294389449 100.79208099577338 L 332.8433736760622 100.78845288692227 L 332.69407074985077 100.39357971896065 L 332.69266258339036 100.38989933669404 L 332.5366083361944 99.98680264175773 L 332.5351458960641 99.98306960228933 L 332.3722224673065 99.57204928793263 L 332.37070382697 99.56826324701913 L 332.2007933560739 99.14961922079628 L 332.19921653218864 99.14577987766754 L 332.022201158577 98.71981204713283 L 332.0205641107995 98.71591914864678 L 331.8363259738953 98.28292742135446 L 331.8346266048738 98.27898076638083 L 331.64304784410007 97.8392650498852 L 331.64128399967825 97.835264493924 L 331.4422467544579 97.3891246957793 L 331.44041622411373 97.38507015581622 L 331.2338026338699 96.93280618357674 L 331.2319031514154 96.92869764317656 L 331.017595355571 96.47060940439655 L 331.01562460014105 96.46644691903582 L 330.79350473811917 96.00283432126956 L 330.7914603354778 95.9986180239043 L 330.5614105467013 95.52978097470606 L 330.55929007089696 95.52551108157158 L 330.321192494789 95.05174948849564 L 330.3189934701893 95.04742630512979 L 330.07273024617274 94.56904007573038 L 330.07045014991417 94.56466400321135 L 329.81590341741213 94.0819530450428 L 329.8135396822969 94.07752458642696 L 329.5505915807323 93.59078880704348 L 329.54814159860945 93.58630857398744 L 329.2766742674054 93.09584788094334 L 329.274135393071 93.0913166004881 L 328.9940309716504 92.59743090133763 L 328.99140052730377 92.59284942283053 L 328.70254115508965 92.09583862512797 L 328.699816435382 92.09120792725177 L 328.4020842517973 91.59137193855138 L 328.39926252950784 91.58669313642612 L 328.0925396739757 91.08433186428218 L 328.08961820635096 91.07960621659844 L 327.7737868182943 90.5750195685652 L 327.77076285408367 90.57024848470394 L 327.4457050729255 90.06373636833568 L 327.4425758601435 90.05892141542128 L 327.10817382530684 89.55078373827229 L 327.1049366197506 89.54592664810095 L 326.7610724706584 89.03646331772546 L 326.7577245452045 89.03156599350437 L 326.4042804212798 88.52107691745668 L 326.40081907597994 88.51614144028206 L 326.0376771166458 88.00492652611642 L 326.03409968963473 87.99995516111302 L 325.661142034314 87.48831431638371 L 325.65744591353774 87.48330951842169 L 325.2745547016536 86.97154265068299 L 325.2707373374157 86.96650706958107 L 324.87779470839104 86.45491408638723 L 324.87385362670886 86.44985057150699 L 324.4707417199667 85.93873138041228 L 324.46667453671694 85.93364298454136 L 324.05327549168027 85.42329749310007 L 324.04907992750276 85.41818747551964 L 323.62527588359467 84.90891559128602 L 323.6209497795118 84.90378741991191 L 323.18662287615524 84.39588905044023 L 323.1821642098494 84.39074640292787 L 322.73719658646735 83.88452145577241 L 322.73260348914613 83.8793682194719 L 322.27687728516156 83.37511660218692 L 322.2721480589234 83.36995687283722 L 321.8055454137594 82.86797849297699 L 321.80067854935817 82.86281657203004 L 321.3230816024377 82.36341133714883 L 321.3180757973277 82.35825172761918 L 320.8293666880737 81.86171954527126 L 320.8242208645998 81.85656694601354 L 320.3242817324354 81.36320772375319 L 320.31899505601655 81.35806702207927 L 319.8077080403647 80.86818066746075 L 319.80227993750583 80.86305693002043 L 319.27952717778953 80.37694335059801 L 319.2739573537368 80.37184181246114 L 318.739620989379 79.88980091578908 L 318.7339094452258 79.88472696768504 L 318.18787161564956 79.40705866131762 L 318.1820186646843 79.4020178350069 L 317.62416150931256 78.92902202649839 L 317.61816779239297 78.92401997827488 L 317.04837345064885 78.45599657517955 L 317.04223995037813 78.45103906752533 L 316.4603905616845 77.98828797739745 L 316.45411861516516 77.98338085883992 L 315.8600963189451 77.52620198923374 L 315.8536876288812 77.52135117248264 L 315.24737456455773 77.07004443095245 L 315.24083120848644 77.06525586942459 L 314.6221095154825 76.62012116352466 L 314.6154339529205 76.6154008263939 L 313.98418577065917 76.17673806367848 L 313.97738084796373 76.17209190961903 L 313.33348831586795 75.74020099764242 L 313.3265572686322 75.73563494746342 L 312.669902526125 75.31081579377987 L 312.6628489789469 75.30633570217677 L 311.9933141654513 74.88888821434054 L 311.9861421289458 74.884499841015 L 311.30360938388475 74.47472392658038 L 311.296323248838 74.47043290700329 L 310.6006747116345 74.06862847352453 L 310.59327924023586 74.06444028963541 L 309.88439705031294 73.67090724466681 L 309.8768973644383 73.66682719581806 L 309.15466366121905 73.28186544691386 L 309.14706522778033 73.27789862137692 L 308.4113621506876 72.90180807609138 L 308.40367076410627 72.89795932344663 L 307.65438045256315 72.53103988933405 L 307.64660221446877 72.52731379406328 L 306.8836068078982 72.16986537867791 L 306.8757481041965 72.1662662352706 L 306.0989297420215 71.81858874616672 L 306.090997217518 71.81512053603616 L 305.3002380391617 71.47751388076804 L 305.292238569967 71.4741802512534 L 304.48742071485225 71.14694433737532 L 304.4793613788307 71.14374858307897 L 303.6603669863805 70.82718331814517 L 303.65225503193494 70.8241283648233 L 302.8189662415724 70.51853365638806 L 302.8108090550863 70.51562204757653 L 301.9631080062343 70.22129780319413 L 301.95491307851125 70.21853168971226 L 301.09268191059294 69.93577781693696 L 301.0844568026478 69.93315894936866 L 300.2075776550861 69.66227535575473 L 300.1991394598936 69.65991912371672 L 300.19918471980344 69.65976296084827 L 299.31804611201346 69.40438692727511 L 299.3097228529063 69.40205244001402 L 298.4348288150891 69.1648028190209 L 298.42643943090644 69.16260575066461 L 297.5578453686638 68.9431638982047 L 297.5493969869307 68.9411074761263 L 296.68715830586433 68.73915474815276 L 296.6786582711887 68.73724184222564 L 295.82283037690047 68.55245959469164 L 295.81428621974146 68.55069269994827 L 294.9649245178331 68.38276228880697 L 294.9563439215403 68.3811435107694 L 294.11350381761355 68.22974629197395 L 294.1048945840685 68.22827733484532 L 293.2686314837252 68.09309466434891 L 293.26000149794254 68.09177682221424 L 292.4303708067845 67.97249005597001 L 292.4217280008447 67.97132420711073 L 291.59878512447364 67.86761470107187 L 291.5901374411742 67.86660130545187 L 290.7739377851919 67.77815041557153 L 290.7652931418016 67.77728951550601 L 289.95589211180976 67.70377859773737 L 289.94725836431127 67.70306982170759 L 289.14471136591186 67.64418023200379 L 289.13609627410244 67.64362280153573 L 288.3404587128971 67.59903589584995 L 288.33186990670214 67.5986286353307 L 287.54319718829265 67.56802576961611 L 287.53464213561915 67.56776711888186 L 286.75298966560734 67.55082964909163 L 286.7444756420365 67.55071767858504 L 285.96989882602406 67.54712696067232 L 285.96143288660613 67.54715938893592 L 285.193987130195 67.55659677885389 L 285.18557608357196 67.55677099210048 L 284.4253167923638 67.57891784580228 L 284.41696717740365 67.57923091928406 L 283.66394975700024 67.61376859272286 L 283.65566782208435 67.6142173136066 L 282.9099476780875 67.66082716273557 L 282.9017393631505 67.66140805418446 L 282.16337190116195 67.71977143495678 L 282.1552428225388 67.720480781117 L 281.42428344816045 67.79027904948583 L 281.4162388862578 67.79111292108021 L 280.6927430050913 67.8720274329987 L 280.6847878948578 67.8729817132387 L 279.96881091250486 67.96469382466003 L 279.96094983664244 67.96576423520041 L 279.25254715870506 68.06795530207773 L 279.2447843435291 68.06913742875577 L 278.5440113756089 68.18148880704226 L 278.53635068943777 68.18277812516385 L 277.8432628371366 68.30497117081266 L 277.8357077910671 68.30636306977047 L 277.15036045998664 68.43807913873478 L 277.14291421089104 68.43956894576816 L 276.4653628066332 68.58048939400112 L 276.45802816220066 68.5820723969337 L 275.78832809036714 68.7318785803885 L 275.7811075159982 68.73355004920487 L 275.11931418219075 68.89192332383465 L 275.11220980954874 68.89367853098433 L 274.4583786193692 69.06030025274227 L 274.451392256389 69.06213449208379 L 273.8055786154392 69.23668601692303 L 273.7987117575923 69.23859462124561 L 273.1609710714739 69.42075730511935 L 273.1542249140945 69.42273566220238 L 272.52461258840935 69.61219086106375 L 272.51798803989016 69.61423442825537 L 271.89655948023994 69.81066349805758 L 271.8900571759151 69.81276781537215 L 271.2768677879017 70.01585211206833 L 271.27048810444455 70.01801281382069 L 270.66559329366976 70.227433693364 L 270.6593363638447 70.22964651837214 L 270.0627915359102 70.44508533671575 L 270.056657263529 70.44734613711701 L 269.46851782403667 70.6684842502141 L 269.4625058989842 70.67078899895012 L 268.88282725353577 70.89730776275385 L 268.8769371667429 70.89965255978844 L 268.3057747209401 71.13123333025197 L 268.3000057791948 71.13361440759252 L 267.73741493863946 71.36993854066903 L 267.7317662791408 71.37235226626684 L 267.1778024494347 71.61310111790948 L 267.17227305400786 71.61554399851812 L 266.62699164075275 71.86039892468007 L 266.6215803496543 71.86286760775211 L 266.0850367584521 72.1115099643865 L 266.07974228370847 72.11400123908994 L 265.55199192016073 72.36611238214996 L 265.5468128583915 72.36862317958504 L 265.0279111281001 72.62388446502386 L 265.02284597279055 72.626411857719 L 264.5128482813573 72.88450464148978 L 264.50789543455255 72.88704584225381 L 264.0068571875792 73.14765148030972 L 264.00201497097976 73.15020384051405 L 263.50999157406807 73.41300368880823 L 263.5052582395166 73.41556469616935 L 263.02230509826836 73.68024011065499 L 263.0176788376231 73.68280738658389 L 262.54385135764016 73.94903972321414 L 262.5393303120346 73.95161101979515 L 262.0746838989187 74.21908163452319 L 262.07026616741587 74.22165483118054 L 261.61485622676867 74.49004507995953 L 261.6105398744187 74.49261817986567 L 261.16442181184215 74.76160941864877 L 261.16020487715923 74.76418054492333 L 260.723434098255 75.03345412966371 L 260.7193146001291 75.03602152140962 L 260.29194651049903 75.30525880806044 L 260.28792245456407 75.30782081627697 L 259.87001245980986 75.5767031607914 L 259.8660818442876 75.57925824420211 L 259.45768535001105 75.84746700253329 L 259.4538461710562 75.8500137233616 L 259.0550185828592 76.11723025146273 L 259.05126883942773 76.11976727118447 L 258.66206556291195 76.3856729250087 L 258.6584032611785 76.38819900010814 L 258.2788797019457 76.65247513560865 L 258.27530285929384 76.65498911335996 L 257.9055144229459 76.91731708648989 L 257.9020210715582 76.91981790078431 L 257.5420231636968 77.17987906749684 L 257.53861135376724 77.18236573473192 L 257.1884593799942 77.43984145098021 L 257.18512718258967 77.4423130660257 L 256.8448765485068 77.69688468776292 L 256.8416220581001 77.69934042001448 L 256.5113281693091 77.95068930319378 L 256.50814950600744 77.95312839272493 L 256.18786776811015 78.2009358932995 L 256.18476307960304 78.20335764711803 L 255.87454889820123 78.44730512104101 L 255.87151636144756 78.44970890945665 L 255.571425142143 78.68947771268122 L 255.56846296482126 78.69186296578732 L 255.27855011321574 78.92713445426665 L 255.2756565349563 78.92950065853823 L 254.9959774566516 79.15995618822546 L 254.99315075007237 79.16230288323399 L 254.72376085067023 79.38762381008232 L 254.72099932223523 79.38995058532521 L 254.46195400733745 79.60981826528779 L 254.45925599805796 79.61212475712972 L 254.2106106732663 79.82622054615969 L 254.2079745592647 79.82850643487998 L 253.96978463018098 80.03651168893055 L 253.96720882313858 80.03877669586763 L 253.73952969536458 80.24037277089192 L 253.73701264287493 80.24261665567414 L 253.51989972201238 80.43748490762535 L 253.51743990786667 80.4397074654704 L 253.3109485995174 80.62752925030168 L 253.30854454395183 80.6297303093613 L 253.1127302537176 80.81018698302582 L 253.1103805136621 80.81236640174112 L 252.92529864714467 80.98513932019202 L 252.9230018165246 80.987296984609 L 252.74870777932574 81.15206750379949 L 252.74646248949276 81.15420332476687 L 252.58301168721428 81.31065280065008 L 252.5808166076192 81.31276671077849 L 252.42826444586288 81.46057649930759 L 252.42611828515035 81.4626684494933 L 252.28452016951795 81.60151990662146 L 252.2824216773423 81.60358986180361 L 252.15183301343563 81.73316434348399 L 252.14978098351807 81.73521227705474 L 252.03025717693885 81.85519113924053 L 252.02825045231893 81.85721702504253 L 251.919846908669 81.96728162368686 L 251.91788439099415 81.96928542353147 L 251.82065651587524 82.06911711458753 L 251.8187371825314 82.07109875702989 L 251.7418825673826 82.15088766402354 L 251.68273110208844 82.11084070072785 Z" style="fill: rgb(104, 225, 253);" id="element_382" /></svg>