<?xml version='1.0' encoding='utf-8'?>
<svg xmlns:svg="http://www.w3.org/2000/svg" version="1.1" id="Layer_1" x="0px" y="0px" viewBox="0 0 500 500" style="width: 188px;" xml:space="preserve" data-imageid="seattle-89" imageName="Seattle" class="illustrations_image"><svg:style type="text/css">
	.st0_seattle-89{fill:#398DE7;}
	.st1_seattle-89{fill:#006D29;}
	.st2_seattle-89{opacity:0.41;fill:url(#SVGID_1_);enable-background:new    ;}
	.st3_seattle-89{fill:#873230;}
	.st4_seattle-89{fill:#5FC963;}
	.st5_seattle-89{opacity:0.33;fill:#1E4549;enable-background:new    ;}
	.st6_seattle-89{fill:#F9B176;}
	.st7_seattle-89{fill:#C8BEBC;}
	.st8_seattle-89{opacity:0.3;fill:#FFFFFF;enable-background:new    ;}
	.st9_seattle-89{opacity:0.5;fill:#1E4549;enable-background:new    ;}
	.st10_seattle-89{fill:#FFFFFF;}
	.st11_seattle-89{fill:#1E4549;}
	.st12_seattle-89{fill:#CCCCCC;}
	.st13_seattle-89{opacity:0.68;fill:url(#SVGID_00000042718003868574976250000008420252642133879231_);enable-background:new    ;}
	.st14_seattle-89{opacity:0.68;fill:url(#SVGID_00000016064703512781818860000005791289198883302075_);enable-background:new    ;}
	.st15_seattle-89{opacity:0.68;fill:url(#SVGID_00000116927080317452283010000015494206433425771439_);enable-background:new    ;}
	.st16_seattle-89{opacity:0.68;fill:url(#SVGID_00000086649938191305984080000016147358011694235533_);enable-background:new    ;}
	.st17_seattle-89{fill:#68E1FD;}
	.st18_seattle-89{opacity:0.41;fill:url(#SVGID_00000021806540584255643560000008840838120913610926_);enable-background:new    ;}
	.st19_seattle-89{opacity:0.41;fill:url(#SVGID_00000181768750576374275190000003503029057688303262_);enable-background:new    ;}
	.st20_seattle-89{opacity:0.41;fill:url(#SVGID_00000088120519511962348400000000982865437613748155_);enable-background:new    ;}
	.st21_seattle-89{opacity:0.68;fill:url(#SVGID_00000141454188708226108510000004981936349966510522_);enable-background:new    ;}
	.st22_seattle-89{opacity:0.68;fill:url(#SVGID_00000082369544609449826930000017811291582864951729_);enable-background:new    ;}
	.st23_seattle-89{opacity:0.68;fill:url(#SVGID_00000069394525465164303150000003061584850069511824_);enable-background:new    ;}
	.st24_seattle-89{opacity:0.4;fill:#1E4549;enable-background:new    ;}
	.st25_seattle-89{opacity:0.68;fill:url(#SVGID_00000044179426939273591630000001501825202323530667_);enable-background:new    ;}
	.st26_seattle-89{opacity:0.68;fill:url(#SVGID_00000103259329360607754140000005208119482887869358_);enable-background:new    ;}
	.st27_seattle-89{opacity:0.68;fill:url(#SVGID_00000091729443015361077680000008735085039118257080_);enable-background:new    ;}
	.st28_seattle-89{opacity:0.68;fill:url(#SVGID_00000009561799934092399460000003530713919234959499_);enable-background:new    ;}
	.st29_seattle-89{opacity:0.68;fill:url(#SVGID_00000174582639290617977650000014090475001585431218_);enable-background:new    ;}
	.st30_seattle-89{opacity:0.68;fill:url(#SVGID_00000116213016049503352180000018029602500477441702_);enable-background:new    ;}
	.st31_seattle-89{opacity:0.6;fill:#1E4549;enable-background:new    ;}
	.st32_seattle-89{opacity:0.6;}
	.st33_seattle-89{opacity:0.5;}
</svg:style><svg:path class="st11_seattle-89" d="M 212.4499712167779 282.70250917511044 L 212.40044455746647 282.7100115166027 L 212.35191710630906 282.72243172572274 L 212.3048759187962 282.7396451445522 L 212.25979313323532 282.7614790071626 L 212.21712123204017 282.7877141736155 L 212.17728850030036 282.8180873294042 L 212.14069472721215 282.8522936282625 L 212.107707193514 282.8899897518156 L 212.07865698519996 282.9307973553636 L 212.05383567050868 282.9743068652139 L 212.03349237354024 283.02008158944983 L 212.01783127387236 283.0676621008764 L 212.00700955727095 283.1165708481535 L 211.99589844615983 283.1822274138101 L 211.98478733504874 283.24788397946674 L 211.9625651128265 283.3791971107798 L 211.95145400171538 283.44485367643654 L 211.9403428906043 283.5105102420928 L 211.92923177949316 283.5761668077495 L 211.91812066838204 283.6418233734062 L 211.90700955727098 283.70747993906247 L 211.8847873350487 283.83879307037574 L 211.8736762239376 283.9044496360325 L 211.86256511282653 283.97010620168874 L 211.85145400171538 284.03576276734543 L 211.84034289060426 284.1014193330022 L 211.8292317794932 284.1670758986584 L 211.81812066838205 284.2327324643151 L 211.80700955727093 284.2983890299719 L 211.79589844615984 284.3640455956283 L 211.78478733504875 284.4297021612847 L 211.7736762239376 284.49535872694156 L 211.7625651128265 284.561015292598 L 211.75145400171542 284.6266718582544 L 211.74034289060427 284.69232842391125 L 211.71812066838206 284.82364155522424 L 211.70700955727096 284.88929812088065 L 211.69589844615982 284.9549546865375 L 211.6736762239376 285.0862678178505 L 211.6625651128265 285.15192438350715 L 211.64034289060427 285.2832375148202 L 211.62923177949318 285.34889408047684 L 211.60700955727094 285.4802072117899 L 211.59589844615982 285.54586377744664 L 211.58478733504876 285.6115203431029 L 211.5736762239376 285.6771769087596 L 211.5625651128265 285.74283347441633 L 211.55145400171543 285.80849004007257 L 211.52923177949316 285.93980317138585 L 211.51812066838204 286.0054597370426 L 211.50700955727098 286.07111630269884 L 211.49589844615983 286.13677286835554 L 211.4847873350487 286.2024294340123 L 211.47367622393764 286.26808599966853 L 211.4625651128265 286.3337425653252 L 211.45145400171538 286.399399130982 L 211.44034289060428 286.4650556966384 L 211.4292317794932 286.5307122622948 L 211.41812066838204 286.59636882795166 L 211.40700955727095 286.6620253936081 L 211.39589844615986 286.7276819592645 L 211.3847873350487 286.79333852492135 L 211.3625651128265 286.92465165623435 L 211.3514540017154 286.99030822189076 L 211.34034289060426 287.0559647875476 L 211.32923177949317 287.12162135320403 L 211.31812066838208 287.18727791886045 L 211.30700955727093 287.2529344845173 L 211.28478733504872 287.3842476158303 L 211.27367622393763 287.44990418148694 L 211.2514540017154 287.5812173128 L 211.2403428906043 287.64687387845663 L 211.21812066838206 287.7781870097697 L 211.20700955727094 287.84384357542643 L 211.19589844615987 287.9095001410827 L 211.1736762239376 288.04081327239595 L 211.16256511282648 288.1064698380527 L 211.15145400171542 288.17212640370894 L 211.14034289060427 288.23778296936564 L 211.12923177949315 288.3034395350224 L 211.1181206683821 288.36909610067863 L 211.10700955727094 288.4347526663353 L 211.09589844615982 288.5004092319921 L 211.08478733504873 288.5660657976485 L 211.07367622393764 288.6317223633049 L 211.0625651128265 288.69737892896177 L 211.0514540017154 288.7630354946182 L 211.0403428906043 288.8286920602746 L 211.02923177949316 288.89434862593146 L 211.00700955727095 289.02566175724445 L 210.99589844615986 289.09131832290086 L 210.9847873350487 289.1569748885577 L 210.97367622393762 289.22263145421414 L 210.96256511282652 289.28828801987055 L 210.95145400171538 289.3539445855274 L 210.92923177949316 289.4852577168404 L 210.91812066838207 289.55091428249705 L 210.90700955727095 289.6165708481535 L 210.9012004934345 289.66537266614387 L 210.90021055641355 289.7145090344113 L 210.90404931043588 289.7635052243588 L 210.9126796675689 289.8118878617154 L 210.92601824604313 289.8591895000179 L 210.94393617584092 289.9049531368225 L 210.96626034376783 289.9487366290107 L 210.99277506597718 289.99011696453346 L 211.02322417178897 290.0286943493215 L 211.05731347867007 290.0640960698755 L 211.0947136344645 290.09598009421956 L 211.13506329941282 290.124038376426 L 211.17797263721855 290.147999832786 L 211.20224556752146 290.1600294236647 L 211.20540205613932 290.16157996674644 L 211.2297355863192 290.1734271396282 L 211.23288579242785 290.17494726088245 L 211.25727930411858 290.1866132524995 L 211.26042254998657 290.18810307133145 L 211.28487542482205 290.1995891184159 L 211.28801104363362 290.2010487700832 L 211.3125226632478 290.2123561093673 L 211.3156499995384 290.21378574452496 L 211.34021974556515 290.22491561274086 L 211.3433381556081 290.2263153969623 L 211.36796540968132 290.2372690308422 L 211.3710742618548 290.23863914413386 L 211.39575840560843 290.2494177804099 L 211.3988570807354 290.25075841671617 L 211.42359749580336 290.2613632921205 L 211.42668538745744 290.26267465881705 L 211.45148145547358 290.273107010082 L 211.45455797027236 290.2743893274693 L 211.47940907287062 290.2846503913269 L 211.48247363071513 290.2859038921064 L 211.50737914952944 290.29599490528886 L 211.51043118383978 290.29721983404505 L 211.53539050050404 290.3071420332847 L 211.5384294584257 290.30833864596303 L 211.5634419545738 290.3180932679919 L 211.5664672971377 290.31926183136665 L 211.59153235440354 290.32885011291694 L 211.59454355668345 290.3299909040683 L 211.61966055670098 290.3394140818723 L 211.62265710793648 290.3405273876603 L 211.64782543233957 290.34978669845003 L 211.65080683602525 290.3508728149868 L 211.67602586644784 290.3599694954946 L 211.67899164041987 290.36102872762746 L 211.70426075849582 290.3699640145854 L 211.7072104349666 290.37099667537325 L 211.7325290223299 290.37977180551354 L 211.7354621479266 290.38077821571824 L 211.76005266933976 290.3891305410684 L 211.67158109199877 290.3185364105086 L 211.57507707522402 290.22095177560163 L 211.4990372278159 290.1193131449799 L 211.44419385507257 290.01459935421775 L 211.41107512865395 289.9078188543625 L 211.39999999999998 289.8 L 211.41107512865395 289.6921811456375 L 211.44419385507257 289.5854006457823 L 211.4990372278159 289.4806868550201 L 211.57507707522402 289.3790482243984 L 211.67158109199877 289.2814635894914 L 211.78761989170414 289.1888727436785 L 211.9220759572657 289.10216738742 L 212.07365440327092 289.0221825406948 L 212.2408954464236 288.949688501301 L 212.4221884640549 288.88538342646723 L 212.6157875053002 288.8298866092168 L 212.81982810556028 288.7837325142376 L 213.03234524231473 288.74736563069456 L 213.25129225936288 288.72113619155647 L 213.474560577242 288.7052968006606 L 213.7 288.7 L 213.925439422758 288.7052968006606 L 214.1487077406371 288.72113619155647 L 214.36765475768524 288.74736563069456 L 214.5801718944397 288.7837325142376 L 214.78421249469977 288.8298866092168 L 214.97781153594508 288.88538342646723 L 215.15910455357638 288.949688501301 L 215.32634559672906 289.0221825406948 L 215.4779240427343 289.10216738742 L 215.61238010829584 289.1888727436785 L 215.7284189080012 289.2814635894914 L 215.82492292477596 289.3790482243984 L 215.90096277218407 289.4806868550201 L 215.9558061449274 289.5854006457823 L 215.98892487134603 289.6921811456375 L 216.0 289.8 L 215.98892487134603 289.9078188543625 L 215.9558061449274 290.01459935421775 L 215.90096277218407 290.1193131449799 L 215.82492292477593 290.22095177560163 L 215.7284189080012 290.3185364105086 L 215.61238010829584 290.41112725632155 L 215.4779240427343 290.49783261258 L 215.32634559672906 290.5778174593052 L 215.15910455357638 290.650311498699 L 215.1457159795863 290.6550604584968 L 215.16076983908235 290.6526429220826 L 215.16684765721223 290.65162841469106 L 215.20099950112836 290.6457112695636 L 215.20722235256574 290.64459252789595 L 215.24041511067432 290.6384082486171 L 215.2467851054073 290.6371786155877 L 215.27903238176233 290.6307364776488 L 215.28555140559277 290.6293889630592 L 215.31686680424824 290.6226982419516 L 215.32353648193478 290.62122551918924 L 215.35393360694468 290.6142954904043 L 215.3607552621454 290.6126898956551 L 215.3902477175638 290.6055298346842 L 215.39722232951846 290.6037833691363 L 215.4258237193993 290.5964025514708 L 215.43295187635508 290.59450688702975 L 215.4606758047524 290.58691458816105 L 215.46795765420347 290.58486107723974 L 215.4948177251713 290.5770665726592 L 215.50225292103457 290.57484626265136 L 215.5282627386269 290.5668588278503 L 215.53585038558245 290.5644624809297 L 215.56102355385326 290.5562913913996 L 215.56876214919504 290.55370951030557 L 215.59311227219834 290.54536404153765 L 215.60099964560243 290.54258690204284 L 215.62454032739228 290.5340763295286 L 215.6325735792524 290.5310940202475 L 215.65531842388276 290.52242761947826 L 215.66349386287985 290.519230089697 L 215.68545647440476 290.5104171361641 L 215.6937695552679 290.5069942522829 L 215.7149635377413 290.4980440214777 L 215.72340880023452 290.49438563261526 L 215.74384775771054 290.4853074000292 L 215.7524187681398 290.4814034131987 L 215.77211630467232 290.4722064543231 L 215.7808056013056 290.46804691947335 L 215.79977532094873 290.45874050979967 L 215.80857436501762 290.4543157147825 L 215.8268298718253 290.444909129802 L 215.83572900582047 290.4402097051418 L 215.85328390384674 290.43071222034587 L 215.86227231907802 290.4257292533476 L 215.87914021237688 290.41615014422763 L 215.8882059277508 290.41087530169057 L 215.90440042037625 290.4012238437379 L 215.9135302744624 290.395649502139 L 215.9290649704685 290.385934970845 L 215.93824462888594 290.38005435246885 L 215.95313313232663 290.370286023325 L 215.96234711237452 290.36409333640324 L 215.97660302730384 290.35428048490076 L 215.98583474157203 290.3477710654039 L 215.99947167204397 290.3379229670342 L 216.00870349249274 290.3310934193193 L 216.02173504256132 290.32121934957377 L 216.03094838610673 290.31406768276133 L 216.04338815982598 290.3041769171314 L 216.05256359604599 290.29670267372126 L 216.06442519746986 290.2868044876982 L 216.0735425783842 290.2790088607603 L 216.08483961156676 290.26911252983547 L 216.09387822284597 290.260998464944 L 216.1046242918412 290.2511132646089 L 216.11356302401182 290.24268554275096 L 216.12377173287373 290.2328207484968 L 216.13258927031896 290.2240860463765 L 216.14227422310157 290.21425093369476 L 216.1509492479445 290.2052178581509 L 216.1601240487018 290.1954217025329 L 216.16863545585335 290.18610079638967 L 216.17731370863933 290.1763528733268 L 216.18564082773543 290.1667565906059 L 216.19383613660415 290.15706617558953 L 216.2019589559852 290.147208824902 L 216.20968492499063 290.13758519342343 L 216.21758431255498 290.12748284928324 L 216.22485454575113 290.1179352768339 L 216.23251246138713 290.1076056596238 L 216.23934056282803 290.09814342169506 L 216.24674025714936 290.08760574811043 L 216.25313983088898 290.0782381201937 L 216.2602660253389 290.0675129269356 L 216.26625067543128 290.0582491845222 L 216.27308971929833 290.0473581289698 L 216.27867304979748 290.03820754755105 L 216.28521305040218 290.0271731899066 L 216.2904086653621 290.01814504497395 L 216.2966395885418 290.0069906169616 L 216.30146109201652 289.9980941840064 L 216.30737483099168 289.986843349626 L 216.31183582703517 289.9780879041396 L 216.3174262388049 289.9667645180903 L 216.32154033147117 289.95815933556406 L 216.32680324090364 289.9467872049167 L 216.33058403424673 289.93834156084205 L 216.3355172070624 289.9269442151707 L 216.33897830513627 289.91866738503893 L 216.34358139181901 289.9072678598531 L 216.34673639867773 289.89916911915566 L 216.35101085219975 289.88778975663513 L 216.3538733718973 289.8798783808633 L 216.35782234264713 289.8685406513363 L 216.36040597923747 289.86082591598154 L 216.36403419104218 289.8495502625647 L 216.3663525485794 289.8420414431183 L 216.36966615989917 289.830847151177 L 216.3717328424372 289.8235535231304 L 216.37473929687326 289.81245861539435 L 216.37656790846617 289.8053894542389 L 216.379275778659 289.79441061150675 L 216.3808799233608 289.78757519273375 L 216.38329875206736 289.7767276995856 L 216.38469203393203 289.7701352986865 L 216.38683217577707 289.7594330128861 L 216.38802819885862 289.7530929053523 L 216.38990066580558 289.7425482492845 L 216.39091303415802 289.7364697106072 L 216.39252934729726 289.7260936827198 L 216.39337166497458 289.7202859883905 L 216.39474371473796 289.7100881924665 L 216.3954295857942 289.7045606179766 L 216.39656950223363 289.69454930803147 L 216.39711253072278 289.68931112887225 L 216.39803256504496 289.6794932676502 L 216.39844635502104 289.6745537593131 L 216.3991587731946 289.6649350886035 L 216.39945692871163 289.6603035265798 L 216.3999739176391 289.65088864835644 L 216.40017004275103 289.6465743081376 L 216.4005036293197 289.6373667765343 L 216.4006113280806 289.63337893361165 L 216.4007733113959 289.62438135982035 L 216.40080618785976 289.6207292896853 L 216.40080808528737 289.61194346605436 L 216.40077974350817 289.60863644419817 L 216.40063275219583 289.60006350226337 L 216.40055679622762 289.59711080417753 L 216.40027177451194 289.588751441843 L 216.4001618084087 289.5861623430188 L 216.3997492889765 289.5780172092886 L 216.39961891679224 289.5758009852174 L 216.39908918602433 289.5678714700849 L 216.3989520118131 289.5660373962582 L 216.39831537036966 289.558327641444 L 216.3981849981854 289.55688499335304 L 216.39745268856453 289.54940855392124 L 216.3973427224613 289.54836660705746 L 216.39653159913988 289.5411795019834 L 216.39645564317166 289.5405475318381 L 216.39564858143962 289.53417804493125 L 216.39562023966062 289.53396532699594 L 216.39277444537987 289.5153043922002 L 216.38166333426875 289.4506579275538 L 216.37055222315772 289.38601146290756 L 216.34833000093542 289.2567185336144 L 216.33721888982438 289.1920720689682 L 216.3261077787132 289.12742560432145 L 216.3149966676021 289.062779139675 L 216.30388555649102 288.99813267502867 L 216.29277444537988 288.93348621038206 L 216.28166333426876 288.8688397457356 L 216.27055222315764 288.8041932810891 L 216.25944111204657 288.73954681644284 L 216.24833000093543 288.6749003517962 L 216.2372188898243 288.6102538871497 L 216.22610777871324 288.54560742250345 L 216.2149966676021 288.48096095785684 L 216.20388555649097 288.41631449321034 L 216.19277444537994 288.3516680285641 L 216.17055222315764 288.22237509927095 L 216.1594411120466 288.15772863462473 L 216.1372188898243 288.02843570533156 L 216.12610777871328 287.96378924068534 L 216.10388555649098 287.8344963113922 L 216.09277444537986 287.76984984674573 L 216.0816633342688 287.7052033820994 L 216.07055222315765 287.6405569174528 L 216.05944111204653 287.5759104528063 L 216.04833000093547 287.51126398816 L 216.03721888982432 287.4466175235134 L 216.0261077787132 287.3819710588669 L 216.01499666760213 287.3173245942206 L 216.00388555649099 287.252678129574 L 215.99277444537987 287.1880316649275 L 215.9816633342688 287.12338520028123 L 215.97055222315765 287.0587387356346 L 215.95944111204653 286.9940922709881 L 215.9483300009355 286.9294458063419 L 215.9261077787132 286.80015287704873 L 215.91499666760208 286.7355064124023 L 215.90388555649102 286.67085994775596 L 215.89277444537987 286.60621348310934 L 215.88166333426875 286.5415670184629 L 215.8705522231577 286.47692055381657 L 215.85944111204654 286.41227408916996 L 215.84833000093542 286.3476276245235 L 215.83721888982436 286.2829811598772 L 215.8261077787132 286.21833469523057 L 215.8149966676021 286.15368823058407 L 215.80388555649102 286.0890417659378 L 215.79277444537988 286.0243953012912 L 215.78166333426876 285.9597488366447 L 215.7705522231577 285.8951023719984 L 215.75944111204655 285.8304559073518 L 215.7372188898243 285.70116297805885 L 215.72610777871327 285.63651651341263 L 215.7149966676021 285.5718700487659 L 215.70388555649097 285.50722358411946 L 215.6927744453799 285.4425771194731 L 215.68166333426876 285.3779306548265 L 215.67055222315764 285.31328419018007 L 215.65944111204658 285.24863772553374 L 215.64833000093543 285.1839912608871 L 215.6372188898243 285.1193447962407 L 215.62610777871325 285.05469833159435 L 215.6149966676021 284.99005186694774 L 215.60388555649098 284.9254054023013 L 215.59277444537992 284.86075893765496 L 215.58166333426877 284.79611247300835 L 215.55944111204653 284.6668195437154 L 215.5483300009355 284.6021730790692 L 215.5261077787132 284.472880149776 L 215.51499666760216 284.4082336851298 L 215.49277444537987 284.27894075583663 L 215.48166333426883 284.2142942911904 L 215.47055222315765 284.1496478265437 L 215.45944111204653 284.08500136189724 L 215.44833000093547 284.0203548972509 L 215.43721888982432 283.9557084326043 L 215.4261077787132 283.89106196795785 L 215.41499666760214 283.8264155033115 L 215.403885556491 283.7617690386649 L 215.39277444537987 283.69712257401847 L 215.38166333426875 283.63247610937196 L 215.3705522231577 283.5678296447257 L 215.35944111204654 283.5031831800791 L 215.34833000093542 283.4385367154326 L 215.33721888982438 283.37389025078636 L 215.3149966676021 283.2445973214932 L 215.30388555649105 283.179950856847 L 215.29277444537988 283.11530439220024 L 215.28185160203077 283.06651204690917 L 215.2661102398361 283.01905458193164 L 215.24570777251012 282.97340657219576 L 215.2208482248457 282.93002449806653 L 215.19178019246525 282.8893421805396 L 215.158794355863 282.85176644302874 L 215.12222057359838 282.8176730431294 L 215.0824245837085 282.7874029150405 L 215.03980434632558 282.76125876022036 L 214.99478606407334 282.73950202037054 L 214.94781992003828 282.72235026301706 L 214.89937557593612 282.709975005834 L 214.8499374754919 282.7025000014658 L 214.8 282.7 L 214.3629529627989 282.7 L 214.3666842796235 282.70111823261846 L 214.46127194099637 282.73619372798237 L 214.54852813742386 282.77573593128807 L 214.6276125440353 282.8193640295018 L 214.69776353476306 282.86665786018824 L 214.75830551721802 282.9171619579044 L 214.80865543901353 282.97038994058096 L 214.84832840287865 283.0258291936473 L 214.87694233648386 283.0829458067903 L 214.89422167200664 283.1411897158022 L 214.89999999999998 283.2 L 214.89422167200664 283.25881028419775 L 214.87694233648386 283.3170541932097 L 214.84832840287865 283.37417080635265 L 214.80865543901353 283.429610059419 L 214.75830551721802 283.4828380420956 L 214.69776353476306 283.53334213981174 L 214.62761254403526 283.5806359704982 L 214.54852813742386 283.6242640687119 L 214.46127194099637 283.6638062720176 L 214.3666842796235 283.6988817673815 L 214.2656760841912 283.729152758609 L 214.1592201188381 283.75432771950676 L 214.04834161270534 283.7741642014393 L 213.93410838641935 283.7884711682419 L 213.81762056839545 283.7971108360033 L 213.7 283.8 L 213.58237943160452 283.7971108360033 L 213.46589161358062 283.7884711682419 L 213.35165838729463 283.7741642014393 L 213.24077988116187 283.75432771950676 L 213.13432391580878 283.729152758609 L 213.03331572037646 283.6988817673815 L 212.9387280590036 283.6638062720176 L 212.85147186257612 283.6242640687119 L 212.7723874559647 283.5806359704982 L 212.70223646523692 283.53334213981174 L 212.64169448278196 283.4828380420956 L 212.59134456098644 283.429610059419 L 212.55167159712133 283.37417080635265 L 212.5230576635161 283.3170541932097 L 212.50577832799334 283.25881028419775 L 212.5 283.2 L 212.50577832799334 283.1411897158022 L 212.5230576635161 283.0829458067903 L 212.55167159712133 283.0258291936473 L 212.59134456098644 282.97038994058096 L 212.64169448278196 282.9171619579044 L 212.70223646523692 282.86665786018824 L 212.7723874559647 282.8193640295018 L 212.85147186257612 282.77573593128807 L 212.9387280590036 282.73619372798237 L 213.03331572037646 282.70111823261846 L 213.0370470372011 282.7 L 212.5 282.7 L 212.4499712167779 282.70250917511044 Z" id="element_282" /></svg>