<?xml version='1.0' encoding='utf-8'?>
<svg xmlns:svg="http://www.w3.org/2000/svg" version="1.1" id="Layer_1" x="0px" y="0px" viewBox="0 0 500 500" style="width: 188px;" xml:space="preserve" data-imageid="seattle-89" imageName="Seattle" class="illustrations_image"><svg:style type="text/css">
	.st0_seattle-89{fill:#398DE7;}
	.st1_seattle-89{fill:#006D29;}
	.st2_seattle-89{opacity:0.41;fill:url(#SVGID_1_);enable-background:new    ;}
	.st3_seattle-89{fill:#873230;}
	.st4_seattle-89{fill:#5FC963;}
	.st5_seattle-89{opacity:0.33;fill:#1E4549;enable-background:new    ;}
	.st6_seattle-89{fill:#F9B176;}
	.st7_seattle-89{fill:#C8BEBC;}
	.st8_seattle-89{opacity:0.3;fill:#FFFFFF;enable-background:new    ;}
	.st9_seattle-89{opacity:0.5;fill:#1E4549;enable-background:new    ;}
	.st10_seattle-89{fill:#FFFFFF;}
	.st11_seattle-89{fill:#1E4549;}
	.st12_seattle-89{fill:#CCCCCC;}
	.st13_seattle-89{opacity:0.68;fill:url(#SVGID_00000042718003868574976250000008420252642133879231_);enable-background:new    ;}
	.st14_seattle-89{opacity:0.68;fill:url(#SVGID_00000016064703512781818860000005791289198883302075_);enable-background:new    ;}
	.st15_seattle-89{opacity:0.68;fill:url(#SVGID_00000116927080317452283010000015494206433425771439_);enable-background:new    ;}
	.st16_seattle-89{opacity:0.68;fill:url(#SVGID_00000086649938191305984080000016147358011694235533_);enable-background:new    ;}
	.st17_seattle-89{fill:#68E1FD;}
	.st18_seattle-89{opacity:0.41;fill:url(#SVGID_00000021806540584255643560000008840838120913610926_);enable-background:new    ;}
	.st19_seattle-89{opacity:0.41;fill:url(#SVGID_00000181768750576374275190000003503029057688303262_);enable-background:new    ;}
	.st20_seattle-89{opacity:0.41;fill:url(#SVGID_00000088120519511962348400000000982865437613748155_);enable-background:new    ;}
	.st21_seattle-89{opacity:0.68;fill:url(#SVGID_00000141454188708226108510000004981936349966510522_);enable-background:new    ;}
	.st22_seattle-89{opacity:0.68;fill:url(#SVGID_00000082369544609449826930000017811291582864951729_);enable-background:new    ;}
	.st23_seattle-89{opacity:0.68;fill:url(#SVGID_00000069394525465164303150000003061584850069511824_);enable-background:new    ;}
	.st24_seattle-89{opacity:0.4;fill:#1E4549;enable-background:new    ;}
	.st25_seattle-89{opacity:0.68;fill:url(#SVGID_00000044179426939273591630000001501825202323530667_);enable-background:new    ;}
	.st26_seattle-89{opacity:0.68;fill:url(#SVGID_00000103259329360607754140000005208119482887869358_);enable-background:new    ;}
	.st27_seattle-89{opacity:0.68;fill:url(#SVGID_00000091729443015361077680000008735085039118257080_);enable-background:new    ;}
	.st28_seattle-89{opacity:0.68;fill:url(#SVGID_00000009561799934092399460000003530713919234959499_);enable-background:new    ;}
	.st29_seattle-89{opacity:0.68;fill:url(#SVGID_00000174582639290617977650000014090475001585431218_);enable-background:new    ;}
	.st30_seattle-89{opacity:0.68;fill:url(#SVGID_00000116213016049503352180000018029602500477441702_);enable-background:new    ;}
	.st31_seattle-89{opacity:0.6;fill:#1E4549;enable-background:new    ;}
	.st32_seattle-89{opacity:0.6;}
	.st33_seattle-89{opacity:0.5;}
</svg:style><svg:path class="st11_seattle-89" d="M 383.5120543251047 237.60951860672094 L 383.5137617210308 237.61083852509563 L 383.5283049700705 237.62203126053078 L 383.5300387309497 237.623359573282 L 383.5487275062653 237.63761322086899 L 383.55048397626666 237.6389467375648 L 383.5733139492956 237.65620007906057 L 383.5750918415986 237.65753748518202 L 383.6020586837782 237.67772930234352 L 383.6038575009427 237.67906990551103 L 383.6349568837103 237.70213898009524 L 383.6367764530608 237.70348234126263 L 383.6720040478537 237.72936745502653 L 383.67384435024485 237.7307132525546 L 383.71319582850055 237.75935318725516 L 383.71505692486096 237.76070115860836 L 383.7585279580167 237.7920346960025 L 383.7604099541579 237.79338460982626 L 383.8079962136511 237.82735053167096 L 383.80989924189936 237.82870217323023 L 383.8615963991674 237.86523926128248 L 383.8635206080988 237.86659242433822 L 383.91932433457896 237.90563946035493 L 383.92126988294143 237.90699394236987 L 383.98117585007117 237.94848970810807 L 383.9831429030004 237.94984530727936 L 384.047146782217 237.99372858449598 L 384.04913550877046 237.99508509784008 L 384.1172329715113 238.04129466829207 L 384.1192435429913 238.04265189036192 L 384.1914302606938 238.09112653580627 L 384.1934628494597 238.0924842578032 L 384.26973449356115 238.14316275999684 L 384.2717892721523 238.14452076913548 L 384.3521415140901 238.19734190983542 L 384.35421865455197 238.19869998887674 L 384.4386471657635 238.25360254983988 L 384.44074683910804 238.25496047673778 L 384.52924729103063 238.31188323972117 L 384.53136966679085 238.3132407873508 L 384.62393773086177 238.37212253411133 L 384.6260829767062 238.3734794700528 L 384.722714324363 238.43425898234747 L 384.72488260575346 238.4356150687115 L 384.82557290843334 238.49823112829728 L 384.8277643883159 238.49958612158454 L 384.9325093174563 238.56397751021834 L 384.9347241559681 238.56533116120062 L 385.0435193830064 238.63143666063945 L 385.04575773720035 238.6327887142626 L 385.15859893357384 238.70054710626343 L 385.16086095715065 238.70189730156514 L 385.2777437942967 238.7712473678849 L 385.2800296373433 238.77259543792638 L 385.4009497866993 238.84347596032205 L 385.40325959543105 238.84482163213193 L 385.5282127284344 238.91717139236047 L 385.53054664493794 238.91851438688846 L 385.6595284330259 238.99227216670684 L 385.66188659500403 238.99361219878864 L 385.7948927096141 239.06871677995383 L 385.79727525012765 239.0700535582835 L 385.93430136269706 239.14644372255245 L 385.93670840990757 239.14777694966529 L 386.07775019187375 239.22539147879496 L 386.08018186878223 239.2267208510578 L 386.2252349915825 239.30549852680517 L 386.22769141576777 239.30682373441624 L 386.3767515508396 239.38670333853827 L 386.3792328341921 239.38802406553467 L 386.5322956529727 239.46894437978833 L 386.5348019014283 239.47026030406323 L 386.69186307535506 239.55216011020545 L 386.69439438862304 239.55347090353297 L 386.8554495891334 239.63628898332075 L 386.85800606042466 239.63759431139067 L 387.02305095895593 239.72126944658095 L 387.0256326747067 239.72256896904173 L 387.19466294269625 239.8070399413915 L 387.19726998229083 239.8083333119035 L 387.37028129117607 239.89353890316968 L 387.37291372666584 239.89482576946688 L 387.549901747884 239.98070476140649 L 387.5525596437066 239.9819847653692 L 387.7335200486952 240.06847593973916 L 387.73620346138955 240.06974871747548 L 387.92113192158587 240.15679085603276 L 387.9238408995073 240.1580560379713 L 388.11273308634867 240.2455879224729 L 388.1154676693836 240.24684513346577 L 388.3083192543074 240.3348055456686 L 388.3110794735849 240.33605440510465 L 388.50788612802853 240.42438212676572 L 388.51067200563494 240.4256222486958 L 388.7114294010358 240.514256061572 L 388.71424094972576 240.51548705484424 L 388.91894475752105 240.60436574069263 L 388.92178198043314 240.6055872091005 L 389.1304278720604 240.694649549678 L 389.13329076243014 240.69586109211886 L 389.3458744093266 240.78504586918243 L 389.3487629502039 240.78624707982885 L 389.56528002380696 240.87549307513544 L 389.56819418777366 240.8766835436181 L 389.7886403595207 240.9659295389247 L 389.7915801084127 240.9671088505278 L 390.0159510497411 241.05629362759137 L 390.01891633437197 241.05746136346002 L 390.24720771671906 241.14652370403752 L 390.25019847660883 241.14767944139825 L 390.482405971412 241.23655812724664 L 390.48542213451964 241.23770143963995 L 390.7215414132162 241.32633525251617 L 390.72458289567794 241.32746571004205 L 390.9646096297053 241.41579343170312 L 390.9676763355786 241.41691060127926 L 391.2116061963741 241.50487101348207 L 391.21469801738715 241.5059744591146 L 391.4625266763881 241.5935063436162 L 391.4656434916987 241.59459562668377 L 391.71736662034255 241.68163776524105 L 391.7205082963022 241.68271244479064 L 391.97612156602634 241.7692036191606 L 391.9792879559554 241.7702632522169 L 392.238787038197 241.85614224415647 L 392.2419779821676 241.85718638604305 L 392.5053585483642 241.94239197730926 L 392.5085738729943 241.94342018198267 L 392.7758315945832 242.02789115433245 L 392.7790711128408 242.028902974728 L 393.05020166125945 242.11257810991827 L 393.05346517227866 242.11357309830777 L 393.32846421896426 242.19639117809555 L 393.3317515078743 242.1973688864573 L 393.6106147242643 242.27926869259952 L 393.6139255620306 242.28022867299876 L 393.89664861956237 242.36114898725242 L 393.89998276284274 242.3620907922336 L 394.1865613329536 242.44197039635563 L 394.189918523968 242.4428935793447 L 394.48034827809533 242.5216712550921 L 394.4837282445116 242.52257537080925 L 394.7780048540928 242.60018989993893 L 394.7814073089286 242.60107450482093 L 395.0795264454009 242.6774646690899 L 395.082951086942 242.67832932172163 L 395.3849084217429 242.75343390288683 L 395.38835493347926 242.75427816444136 L 395.6941461380461 242.82803594425974 L 395.6976141886261 242.82885937894628 L 396.00723493439625 242.90120913917482 L 396.0107241775998 242.9020113146941 L 396.32417013601054 242.97289183708978 L 396.32768021074156 242.973672325096 L 396.64494705323034 243.04302239141578 L 396.6484775835291 243.04378076798426 L 396.9695609815332 243.11153915998509 L 396.9731115766096 243.11227500608524 L 397.2980072015664 243.17838050552407 L 397.30157745585393 243.1790934074963 L 397.63028097920085 243.2434847961301 L 397.63387047243225 243.24417434616623 L 397.96637756560665 243.306790405752 L 397.969985862912 243.30745620237818 L 398.3062921973512 243.36823571467284 L 398.3099188493774 243.36887736323382 L 398.65002009651874 243.42775910999435 L 398.6536646395727 243.42837622313837 L 398.99755647085357 243.48529898612176 L 399.0012184270676 243.4858911842851 L 399.34889651392535 243.54079374524824 L 399.35257539144607 243.54136065713797 L 399.7040354053181 243.5941817978379 L 399.7077306985188 243.5947230609125 L 400.0629683108424 243.64540156310616 L 400.0666795005584 243.6459168240521 L 400.425690382771 243.69439146949642 L 400.42941693655865 243.6948803847003 L 400.79219676009757 243.74108995515232 L 400.79593813251745 243.74155219116713 L 401.1624825688201 243.78543546838372 L 401.16623820174175 243.7858707023881 L 401.5365429222454 243.8273664681263 L 401.5403122451774 243.82777438837584 L 401.9143729213195 243.86682142439258 L 401.9181553517605 243.8672017306618 L 402.29596765497837 243.90373881871403 L 402.29976259879214 243.9040912227282 L 402.68132220052314 243.9380571445729 L 402.68512905233507 243.93838137042835 L 403.0704316240166 243.9697149078225 L 403.0742497676324 243.9700106923944 L 403.4632909807018 243.99865062709495 L 403.51343873782866 243.99981936769757 L 403.5634512387091 243.99595759930293 L 403.6128251248262 243.9871041892737 L 403.66106346509963 243.97334824411857 L 403.7076807573252 243.95482821266592 L 403.75220781458626 243.93173049262435 L 403.794196487458 243.9042875545542 L 403.8332241744761 243.87277560213187 L 403.86889807547436 243.83751179225527 L 403.9008591449826 243.7988510429694 L 403.92878570589465 243.7571824613392 L 403.9523966870377 243.7129254272213 L 403.971454452056 243.6665253723511 L 403.98576719113856 243.61844929722633 L 403.9951908515189 243.56918107090868 L 403.9996305873158 243.51921656104915 L 404.0006406883258 243.4929539347865 L 404.0016507893358 243.46669130852607 L 404.00266089034596 243.4404286822623 L 404.00367099135605 243.41416605599971 L 404.0046810923661 243.38790342973817 L 404.00670129438635 243.33537817721185 L 404.0077113953964 243.3091155509503 L 404.00872149640657 243.28285292468655 L 404.00973159741665 243.25659029842504 L 404.01175179943687 243.20406504589872 L 404.01276190044695 243.17780241963717 L 404.0137720014571 243.15153979337347 L 404.01478210246717 243.1252771671108 L 404.01579220347725 243.09901454084928 L 404.01781240549747 243.04648928832296 L 404.01882250650755 243.02022666206142 L 404.0198326075177 242.99396403579772 L 404.02084270852777 242.96770140953504 L 404.02185280953785 242.94143878327353 L 404.02387301155807 242.8889135307472 L 404.02488311256815 242.86265090448566 L 404.0258932135783 242.83638827822196 L 404.02690331458837 242.81012565196036 L 404.0289235166086 242.75760039943407 L 404.02993361761867 242.73133777317253 L 404.0319538196389 242.6788125206462 L 404.03296392064897 242.6525498943846 L 404.0349841226692 242.6000246418583 L 404.03599422367927 242.57376201559677 L 404.0370043246894 242.54749938933307 L 404.0380144256995 242.5212367630704 L 404.03902452670957 242.49497413680888 L 404.0410447287298 242.44244888428256 L 404.04205482973987 242.416186258021 L 404.04306493075 242.3899236317573 L 404.0440750317601 242.36366100549571 L 404.0460952337803 242.31113575296942 L 404.0471053347904 242.28487312670788 L 404.0491255368106 242.23234787418156 L 404.0501356378207 242.20608524791996 L 404.0521558398409 242.15355999539366 L 404.053165940851 242.12729736913212 L 404.0551861428712 242.0747721166058 L 404.0561962438813 242.0485094903442 L 404.0572063448914 242.02224686408053 L 404.0582164459015 241.995984237819 L 404.0602366479217 241.94345898529266 L 404.0612467489318 241.91719635903112 L 404.06225684994195 241.89093373276737 L 404.063266950952 241.86467110650477 L 404.0642770519621 241.83840848024323 L 404.0662972539823 241.7858832277169 L 404.0673073549924 241.7596206014553 L 404.0693275570126 241.70709534892902 L 404.0703376580227 241.68083272266747 L 404.0723578600429 241.62830747014115 L 404.073367961053 241.60204484387955 L 404.07437806206315 241.57578221761588 L 404.0753881630732 241.54951959135434 L 404.07740836509345 241.49699433882802 L 404.0784184661035 241.47073171256648 L 404.07942856711367 241.44446908630272 L 404.08043866812375 241.41820646004012 L 404.08144876913383 241.39194383377858 L 404.08346897115405 241.33941858125226 L 404.08447907216413 241.31315595499072 L 404.08548917317427 241.28689332872696 L 404.08649927418435 241.26063070246437 L 404.08750937519443 241.23436807620283 L 404.08952957721465 241.1818428236765 L 404.09053967822473 241.15558019741496 L 404.09154977923487 241.1293175711512 L 404.09255988024495 241.1030549448897 L 404.09360668081837 241.07583812998078 L 404.0903212956436 241.09790315132014 L 404.0783109369499 241.14566621981135 L 404.0616598918464 241.19201600001153 L 404.0405297127307 241.23650279533538 L 404.0151254096235 241.27869498431966 L 403.9856934611125 241.31818320831732 L 403.9525194229583 241.35458434319239 L 403.91592515756497 241.38754521648133 L 403.8762657111942 241.41674603395637 L 403.8339258692222 241.44190348234503 L 403.78931642285966 241.4627734781031 L 403.7432503118995 241.47904002770204 L 403.69581662618754 241.49073330246293 L 403.6474682032088 241.49774166962825 L 403.59866661321524 241.49999822207678 L 403.4380916770358 241.49957000355857 L 403.4354272668243 241.4995557988458 L 403.27491664071835 241.49827238002334 L 403.2722560868562 241.4982440270578 L 403.1118128626542 241.4961072630294 L 403.10915623986176 241.49606482236695 L 402.94878350939416 241.49307656823086 L 402.9461308907022 241.49302010070983 L 402.78583174579944 241.4891822115643 L 402.78318320256034 241.48911177827233 L 402.6229607350529 241.4844261092157 L 402.6203163369515 241.48434177145705 L 402.46017363866986 241.47881017758752 L 402.45753345373635 241.47871199685102 L 402.2974736165109 241.4723363332669 L 402.29483771113297 241.47222437119402 L 402.13486382679423 241.46500649299358 L 402.13223226573047 241.46488081134746 L 401.9723474261089 241.45682257362898 L 401.9697202725027 241.45668323426366 L 401.8099275694287 241.4477864921254 L 401.80730488482277 241.44763355695562 L 401.64760741012685 241.43790016549588 L 401.64498925447765 241.43773369646746 L 401.4853900999902 241.42716551078448 L 401.48277653168367 241.4269855698453 L 401.32327878923525 241.41558444503738 L 401.32066986510245 241.41539109410863 L 401.16127662652343 241.40315888527402 L 401.1586724018571 241.40295218622225 L 400.9993867589779 241.38989074845927 L 400.99678728754844 241.38967076306892 L 400.8376123321997 241.37578195147577 L 400.8350176662736 241.37554874142214 L 400.67595649028556 241.36083441109716 L 400.67336668064166 241.36058803791994 L 400.5144223758449 241.34505004396138 L 400.51183747179294 241.34479056903896 L 400.35301313001787 241.32843076654507 L 400.3504331794171 241.32815825106908 L 400.19173189249426 241.3109784951382 L 400.18915694177116 241.31069300008878 L 400.0305818015309 241.2926951458191 L 400.02801189569925 241.29239673194076 L 399.86956599397206 241.27358263443062 L 399.8670011766511 241.2732713622084 L 399.7086876052674 241.25364287655603 L 399.70612791870263 241.2533188061926 L 399.54794976949296 241.23287778749628 L 399.5453952545751 241.2325409788893 L 399.38735561936994 241.21128928224732 L 399.3848063156557 241.2109397949675 L 399.2269082862853 241.18887927547814 L 399.22436423201697 241.18851716874758 L 399.066610900312 241.1656496815091 L 399.06407213243915 241.16527501418076 L 398.90646659023 241.14160241429144 L 398.9039331444298 241.14121524482852 L 398.7464784835469 241.11673938738662 L 398.7439503942451 241.11633977384278 L 398.5866497065189 241.0910625139466 L 398.58412700691116 241.09065051394683 L 398.4269833841722 241.06457370669463 L 398.4244661062459 241.06414937741647 L 398.2674826403246 241.03727487790653 L 398.26497081488003 241.03683827606184 L 398.10815059760677 241.0091679393924 L 398.10564425427947 241.00871912120985 L 397.9489903774848 240.98025480247924 L 397.94648954476656 240.97979382368706 L 397.79000510028095 240.95053737799353 L 397.7875098055429 240.95006429380302 L 397.6311978851967 240.92001757624482 L 397.6287081547109 240.91953244133433 L 397.47257185033465 240.88869730700975 L 397.4700877092966 240.88820017550904 L 397.3141301127207 240.85657847951637 L 397.3116515852713 240.85606940499164 L 397.1558757883263 240.82366300242913 L 397.1534028975752 240.8231420378686 L 396.9978119920914 240.7899527838345 L 396.9953447601386 240.78941998163427 L 396.8399418379466 240.75544973122692 L 396.8374802859054 240.75490514317752 L 396.6822684388356 240.72015575149516 L 396.67981258685575 240.71959942876873 L 396.5247949067386 240.68407275090965 L 396.522344774028 240.68350474404716 L 396.367524352694 240.6472026351096 L 396.3650799575423 240.64662299400896 L 396.21045988682187 240.6095473090912 L 396.2080212466232 240.60895608299592 L 396.05360461834675 240.57110867719626 L 396.0511717496217 240.57050591468393 L 395.89696165561975 240.53188864310064 L 395.89453457403886 240.53127439207287 L 395.74053410614187 240.4918891098042 L 395.7381128265486 240.49126341747618 L 395.584325076587 240.45111197962044 L 395.58190961301943 240.45047489251135 L 395.4283376728237 240.40955915416677 L 395.4259280385389 240.4089107180907 L 395.2725749999395 240.3672325343556 L 395.27017120743454 240.36657279441258 L 395.11704016226184 240.32413402038517 L 395.11464222329795 240.32346302095314 L 394.96173626338253 240.28026551173176 L 394.95934418900697 240.2795832964585 L 394.8066664061792 240.2356289071414 L 394.8042802067478 240.2349355189371 L 394.6518336928382 240.19022610462255 L 394.6494533780386 240.18952158565295 L 394.49724122487754 240.14405900143922 L 394.4948668037513 240.14334339311898 L 394.34289210316933 240.09712949410434 L 394.3405235841344 240.0964028370908 L 394.1887894279619 240.04943947837356 L 394.1864268188347 240.04870181256098 L 394.0349362989022 240.00099084923934 L 394.03257960692105 240.00024221375375 L 393.88133581505895 239.95178550092606 L 393.8789850469048 239.95102593411997 L 393.7279910749436 239.90182532688445 L 393.7256462367636 239.90105486633271 L 393.5749051765337 239.8511122197877 L 393.5725662739622 239.85033090228285 L 393.42208121729414 239.79964807152655 L 393.41974825547567 239.7988559330756 L 393.2695222941998 239.74743477320632 L 393.26719527780995 239.7466318490268 L 393.1172315037568 239.69447421514283 L 393.1149104370248 239.6936605396601 L 392.9652119420248 239.64076828685967 L 392.9628968287551 239.63994389370419 L 392.81346670463876 239.5863188770856 L 392.81115754823236 239.58548379909053 L 392.66199888683 239.53112787375204 L 392.6596956903061 239.5302821429513 L 392.5108115834483 239.4751971639912 L 392.50851434946577 239.4743408116181 L 392.359907888983 239.41852863413467 L 392.3576166198617 239.41766169062038 L 392.2092908975843 239.36112416971187 L 392.2070055953258 239.36024666468458 L 392.0589637030844 239.30298565544928 L 392.05668436939385 239.30209761773384 L 391.90892939901875 239.24411497527004 L 391.90665603532483 239.24321643288735 L 391.75919107864655 239.18451401229328 L 391.75692368612334 239.18360499246086 L 391.6097518349723 239.1241846488348 L 391.607490414559 239.12326517796677 L 391.4606147607656 239.06312876640703 L 391.4583593131874 239.06219887011497 L 391.3117829485823 239.0013482457198 L 391.30953347437134 239.00040794881414 L 391.1632594907848 238.93884496668184 L 391.16101599029963 238.93789429317258 L 391.0150474795622 238.87562080840138 L 391.01280995300874 238.8746597815004 L 390.8671500069509 238.81167764918862 L 390.86491845440196 238.81070629131133 L 390.7195701648541 238.7470173665572 L 390.7173445862693 238.74603569932484 L 390.5723110450619 238.68164183722666 L 390.57009144030786 238.68064988146884 L 390.4253757392714 238.61555293712487 L 390.42316210814096 238.61455071288265 L 390.27876733910585 238.54875254139117 L 390.27655968133803 238.54774006792 L 390.13248893613473 238.4812425243793 L 390.1302872514333 238.48021982015234 L 389.98654362189234 238.41302475966066 L 389.98434790994645 238.41199184237314 L 389.84093448789815 238.3441011200288 L 389.83874474839956 238.34305800660107 L 389.6956646256745 238.2744734775023 L 389.69348085833826 238.27342018408496 L 389.5507371267669 238.20414370333006 L 389.5485593313492 238.203080245308 L 389.4061550827619 238.13311366799522 L 389.4039832590795 238.13204005999282 L 389.26192158530677 238.06138524122048 L 389.2597557332542 238.06030149710617 L 389.11803972612654 237.9889602919725 L 389.1158798456962 237.98786642486482 L 388.974512597044 237.91584068846808 L 388.97235868834355 237.91473671074084 L 388.8313432899973 237.84202829817937 L 388.8291953532673 237.8409142214675 L 388.6885348970574 237.76752498783952 L 388.6863929326905 237.76640082304553 L 388.54609051044747 237.69233262344932 L 388.5439545190053 237.6911983807495 L 388.40401322255957 237.61645307028334 L 388.40188320479143 237.6153087591349 L 388.2623061259731 237.53988819289708 L 388.22040332293227 237.51451863428906 L 388.18118404339884 237.48517059313596 L 388.1450247076496 237.45212574717138 L 388.11227236711784 237.41570125546133 L 388.0832413734498 237.37624671436285 L 388.05821036140884 237.33414080215505 L 388.0374195745842 237.28978764454638 L 388.021068559572 237.24361293594185 L 388.0093142507592 237.19605985369705 L 388.0022694640933 237.14758480457405 L 388.00000181429283 237.09865304422325 L 388.00253306589235 237.04973421173528 L 388.00983892435005 237.00129782212124 L 388.0218492692227 236.9538087599839 L 388.0384488271704 236.90772281763063 L 388.0594782783312 236.86348232045307 L 388.0847357854476 236.8215118815596 L 388.11397893106744 236.78221432640785 L 388.1469270442273 236.7459668265513 L 388.15341901991843 236.74009789570368 L 374.8 228.6 L 374.7586672835542 228.1040074026503 L 374.74090823060664 228.10167629329055 L 374.69234535590397 228.10005859700985 L 374.64385477073364 228.10316228682734 L 374.59589441431285 228.1109580518721 L 374.54891721844257 228.1233722698826 L 374.50336683007464 228.14028770248652 L 374.4596734215636 228.1615446023858 L 374.4182496281707 228.1869422219906 L 374.37948665118705 228.2162407092555 L 374.3437505634755 228.24916337281292 L 374.311378852323 228.28539929501318 L 374.2826772322514 228.32460626819284 L 374.2579167578868 228.36641402644275 L 374.2373312641521 228.4104277423543 L 374.2211151579585 228.45623175572172 L 374.2094215822501 228.50339349898678 L 374.20236096974065 228.55146758235438 L 374.2 228.6 L 374.2 230.79999999999998 L 374.2022919921437 230.8478198590104 L 374.2091469556631 230.89520130705617 L 374.2205020444679 230.9417099525105 L 374.2362531554608 230.98691940557347 L 374.2562558829512 231.03041518740008 L 374.28032684256215 231.07179853002938 L 374.30824535249224 231.11069003227664 L 374.3397554567198 231.1467331380714 L 374.3745682715995 231.17959740535235 L 374.4123646343385 231.20898153554992 L 374.5042838262577 231.2736280001964 L 374.596203018177 231.3382744648429 L 374.6881222100959 231.40292092948923 L 374.87196059393443 231.53221385878226 L 374.96387978585375 231.59686032342876 L 375.05579897777284 231.66150678807517 L 375.14771816969187 231.72615325272156 L 375.2396373616112 231.79079971736812 L 375.3315565535305 231.85544618201462 L 375.607314129288 232.04938557595398 L 375.69923332120715 232.1140320406004 L 375.97499089696475 232.30797143453984 L 376.0669100888841 232.37261789918634 L 376.158829280803 232.43726436383267 L 376.2507484727223 232.50191082847923 L 376.3426676646416 232.56655729312573 L 376.5265060484799 232.6958502224186 L 376.61842524039895 232.760496687065 L 376.7103444323184 232.8251431517116 L 376.9861020080759 233.01908254565095 L 377.078021199995 233.08372901029736 L 377.35377877575263 233.2776684042368 L 377.44569796767195 233.3423148688833 L 377.53761715959087 233.40696133352964 L 377.7214555434294 233.53625426282267 L 377.8133747353487 233.60090072746917 L 377.997213119187 233.73019365676205 L 378.08913231110614 233.79484012140847 L 378.36488988686375 233.98877951534791 L 378.45680907878307 234.05342597999442 L 378.548728270702 234.11807244464075 L 378.7325666545405 234.24736537393377 L 378.8244858464598 234.31201183858028 L 378.9164050383789 234.3766583032267 L 379.00832423029794 234.44130476787308 L 379.10024342221726 234.50595123251964 L 379.1921626141366 234.57059769716614 L 379.37600099797487 234.69989062645902 L 379.4679201898939 234.7645370911054 L 379.55983938181333 234.829183555752 L 379.83559695757083 235.02312294969136 L 379.92751614949 235.08776941433777 L 380.1113545333284 235.21706234363074 L 380.2032737252477 235.28170880827724 L 380.387112109086 235.41100173757013 L 380.479031301005 235.47564820221652 L 380.57095049292445 235.5402946668631 L 380.84670806868195 235.73423406080246 L 380.9386272606011 235.79888052544888 L 381.2143848363587 235.99281991938832 L 381.306304028278 236.05746638403483 L 381.39822322019694 236.12211284868116 L 381.58206160403546 236.25140577797418 L 381.6739807959548 236.31605224262069 L 381.76589998787387 236.3806987072671 L 381.8578191797929 236.4453451719135 L 381.9497383717122 236.50999163656004 L 382.04165756363153 236.57463810120655 L 382.2254959474698 236.70393103049943 L 382.31741513938897 236.76857749514585 L 382.5931727151466 236.9625168890853 L 382.6850919070659 237.0271633537318 L 382.777011098985 237.0918098183782 L 382.868930290904 237.1564562830246 L 382.96084948282333 237.22110274767115 L 383.05276867474265 237.28574921231765 L 383.23660705858094 237.41504214161054 L 383.3285262505 237.47968860625693 L 383.4204454424194 237.54433507090351 L 383.50173816146093 237.6015079722075 L 383.5120543251047 237.60951860672094 Z" id="element_156" /></svg>