<?xml version='1.0' encoding='utf-8'?>
<svg xmlns:svg="http://www.w3.org/2000/svg" version="1.1" id="Layer_1" x="0px" y="0px" viewBox="0 0 500 500" style="width: 188px;" xml:space="preserve" data-imageid="seattle-89" imageName="Seattle" class="illustrations_image"><svg:style type="text/css">
	.st0_seattle-89{fill:#398DE7;}
	.st1_seattle-89{fill:#006D29;}
	.st2_seattle-89{opacity:0.41;fill:url(#SVGID_1_);enable-background:new    ;}
	.st3_seattle-89{fill:#873230;}
	.st4_seattle-89{fill:#5FC963;}
	.st5_seattle-89{opacity:0.33;fill:#1E4549;enable-background:new    ;}
	.st6_seattle-89{fill:#F9B176;}
	.st7_seattle-89{fill:#C8BEBC;}
	.st8_seattle-89{opacity:0.3;fill:#FFFFFF;enable-background:new    ;}
	.st9_seattle-89{opacity:0.5;fill:#1E4549;enable-background:new    ;}
	.st10_seattle-89{fill:#FFFFFF;}
	.st11_seattle-89{fill:#1E4549;}
	.st12_seattle-89{fill:#CCCCCC;}
	.st13_seattle-89{opacity:0.68;fill:url(#SVGID_00000042718003868574976250000008420252642133879231_);enable-background:new    ;}
	.st14_seattle-89{opacity:0.68;fill:url(#SVGID_00000016064703512781818860000005791289198883302075_);enable-background:new    ;}
	.st15_seattle-89{opacity:0.68;fill:url(#SVGID_00000116927080317452283010000015494206433425771439_);enable-background:new    ;}
	.st16_seattle-89{opacity:0.68;fill:url(#SVGID_00000086649938191305984080000016147358011694235533_);enable-background:new    ;}
	.st17_seattle-89{fill:#68E1FD;}
	.st18_seattle-89{opacity:0.41;fill:url(#SVGID_00000021806540584255643560000008840838120913610926_);enable-background:new    ;}
	.st19_seattle-89{opacity:0.41;fill:url(#SVGID_00000181768750576374275190000003503029057688303262_);enable-background:new    ;}
	.st20_seattle-89{opacity:0.41;fill:url(#SVGID_00000088120519511962348400000000982865437613748155_);enable-background:new    ;}
	.st21_seattle-89{opacity:0.68;fill:url(#SVGID_00000141454188708226108510000004981936349966510522_);enable-background:new    ;}
	.st22_seattle-89{opacity:0.68;fill:url(#SVGID_00000082369544609449826930000017811291582864951729_);enable-background:new    ;}
	.st23_seattle-89{opacity:0.68;fill:url(#SVGID_00000069394525465164303150000003061584850069511824_);enable-background:new    ;}
	.st24_seattle-89{opacity:0.4;fill:#1E4549;enable-background:new    ;}
	.st25_seattle-89{opacity:0.68;fill:url(#SVGID_00000044179426939273591630000001501825202323530667_);enable-background:new    ;}
	.st26_seattle-89{opacity:0.68;fill:url(#SVGID_00000103259329360607754140000005208119482887869358_);enable-background:new    ;}
	.st27_seattle-89{opacity:0.68;fill:url(#SVGID_00000091729443015361077680000008735085039118257080_);enable-background:new    ;}
	.st28_seattle-89{opacity:0.68;fill:url(#SVGID_00000009561799934092399460000003530713919234959499_);enable-background:new    ;}
	.st29_seattle-89{opacity:0.68;fill:url(#SVGID_00000174582639290617977650000014090475001585431218_);enable-background:new    ;}
	.st30_seattle-89{opacity:0.68;fill:url(#SVGID_00000116213016049503352180000018029602500477441702_);enable-background:new    ;}
	.st31_seattle-89{opacity:0.6;fill:#1E4549;enable-background:new    ;}
	.st32_seattle-89{opacity:0.6;}
	.st33_seattle-89{opacity:0.5;}
</svg:style><svg:path class="st31_seattle-89" d="M 126.5 251.2 L 126.50249911206465 251.2499286140759 L 126.50997146601418 251.29935811934462 L 126.52234236484894 251.3477943963142 L 126.53948814351881 251.39475325424814 L 126.56123740513449 251.4397652713528 L 126.58737273432756 251.48238048732816 L 126.61763287063202 251.52217290137267 L 126.651715320161 251.55874473067828 L 126.68927937947127 251.59173038684563 L 126.72994954138754 251.62080013046955 L 126.77331924874055 251.645663367362 L 126.87965327567451 251.69974875753556 L 126.88364844731494 251.70175840994327 L 126.99052107111442 251.75491996117643 L 126.99452776976429 251.756890741562 L 127.10192662310743 251.80912288855998 L 127.10594518597372 251.8110551593296 L 127.21385790153872 251.86235233679758 L 127.21788867872942 251.8642464374332 L 127.32630288919445 251.91460308007635 L 127.33034624308308 251.91645932695766 L 127.4392495811263 251.96586986948114 L 127.44330588572477 251.96768855571057 L 127.55268598402436 252.0161474328196 L 127.55675562436643 252.0179288280504 L 127.66660011560057 252.06543047445012 L 127.67068348713084 252.06717482471564 L 127.78098000397772 252.11371367511123 L 127.78507751194793 252.11542120265523 L 127.89581368708569 252.1609916917519 L 127.89992574595556 252.16266259485903 L 128.0110892120624 252.20725915736193 L 128.015216244903 252.20889361018746 L 128.1267946346571 252.25251068080178 L 128.13093707255632 252.25410883320018 L 128.24291801863583 252.29674084663108 L 128.24707630010408 252.29830282398325 L 128.35944743518718 252.33994421493594 L 128.36362200556192 252.34147011797432 L 128.4763709623268 252.38211532115398 L 128.48056227317375 252.38360522578535 L 128.59367668429857 252.4232486758971 L 128.59788519280846 252.42470263302286 L 128.71135269097138 252.46333876477195 L 128.71557885935226 252.46475680010647 L 128.8293870772315 252.50238004819803 L 128.83363137209062 252.5037621620835 L 128.94776794236432 252.54036696122273 L 128.95203083408387 252.54171312844244 L 129.0664833894302 252.57729391333453 L 129.07076535153024 252.57860408292333 L 129.1855215246274 252.61315528827342 L 129.1898230331166 252.61442938332632 L 129.30487045664276 252.64794544383963 L 129.30919198935632 252.64918336131913 L 129.42451829598963 252.68165871170083 L 129.4288603319102 252.68286032224273 L 129.54445315432883 252.71428939719797 L 129.54881617288976 252.71545454491667 L 129.66466314377195 252.74583177915065 L 129.66904762414288 252.7469602814451 L 129.78513637616672 252.776280109663 L 129.78954279651734 252.77737175702325 L 129.90586096236106 252.80562861393025 L 129.91028979910286 252.80668316974604 L 130.02682501144463 252.8338714900473 L 130.0312767384478 252.83488869041966 L 130.14801662996575 252.86100290882038 L 130.15249171775184 252.86198246237754 L 130.2694239211242 252.8870170135829 L 130.27392283603 252.88795860130148 L 130.39103498393493 252.91190792001663 L 130.39555818724773 252.91281119504987 L 130.5128379123634 252.93566971598003 L 130.51738585942633 252.9365343034945 L 130.63482079443088 252.95829646134482 L 130.63939393371476 252.95912195836732 L 130.7569717112864 252.97978218784297 L 130.76157048342924 252.98056816311947 L 130.87927873624616 253.00012089892564 L 130.88390357305647 253.0008668927944 L 131.0017299337968 253.01930656963629 L 131.00638125722136 253.02001209391702 L 131.12431335856334 253.03733314649978 L 131.12899157961533 253.0379976844016 L 131.24701705423706 253.05419454743043 L 131.25172257188717 253.05481755348066 L 131.36982905246686 253.06988466166072 L 131.37456225249224 253.07046556165744 L 131.49273737170807 253.08439734969392 L 131.49749862550047 253.08493554068502 L 131.6157300160306 253.09772644328308 L 131.62051967936213 253.09822129357465 L 131.73879497388475 253.1098657454395 L 131.74361338563054 253.11031659463708 L 131.86192021682382 253.12080903047388 L 131.86676769764014 253.1212151895593 L 131.98509369818225 253.13055004407323 L 131.98997054914054 253.1309107955213 L 132.10830335170962 253.1390825034175 L 132.11320985288594 253.13939710135517 L 132.23153709016023 253.14640009733887 L 132.23647349917914 253.14666776775195 L 132.35478280383677 253.15249648652832 L 132.35974935437127 253.15271642751873 L 132.47802835909044 253.15736530379297 L 132.48302525931706 253.157536685891 L 132.60126159677594 253.16100015436822 L 132.60628902778492 253.1611221209043 L 132.72447033066166 253.16339461628974 L 132.72952844482597 253.16346628382982 L 132.84764234579876 253.16454224082867 L 132.8527312651009 253.16456269967816 L 132.97076539684792 253.16443655299554 L 132.97588521116484 253.164404867776 L 133.09382720636427 253.16307105211712 L 133.09897797171655 253.16298626242101 L 133.21681546304654 253.16043921249104 L 133.22199719980992 253.16030033361895 L 133.33971781994865 253.15653448412306 L 133.3449305110329 253.15634050790882 L 133.46252189265857 253.1513502935522 L 133.46776548165678 253.15110018928027 L 133.58521525744754 253.14488004476812 L 133.59048964675804 253.14457276018868 L 133.70778544939208 253.13711712022618 L 133.71309049831967 253.13675158267284 L 133.83021996047515 253.1280548819651 L 133.8355554833124 253.1276299995799 L 133.9525062376675 253.11768667283218 L 133.95787200176707 253.11720133590265 L 134.07463168099997 253.10600581782006 L 134.08002740483704 253.10545890023351 L 134.1965836416259 253.0930056255213 L 134.20200899286326 253.09239598634016 L 134.31834941988626 253.07867938970347 L 134.323804013444 253.0780058748665 L 134.43991626337933 253.0630203910105 L 134.44539965952015 253.06228183516336 L 134.56127136504597 253.04602189879324 L 134.56678306748307 253.04521712725227 L 134.68240186127758 253.0276771730732 L 134.68794131531305 253.02680500392594 L 134.80329483005437 253.0079794666431 L 134.80886142075943 253.0070387129877 L 134.92393728912577 252.9869220273063 L 134.9295303395718 252.9859114996322 L 135.04431619424136 252.96449810025737 L 135.0499349637915 252.96341660896968 L 135.16441843744238 252.94070093060662 L 135.1700621201174 252.9395472886936 L 135.28423084542786 252.9155237660475 L 135.289898568356 252.91429679189284 L 135.40374017800414 252.88895985966886 L 135.40943099996784 252.88765838000748 L 135.5229331266319 252.8610024729108 L 135.52864603672506 252.85962532592626 L 135.64179631308318 252.83164487866208 L 135.64753022949145 252.83019091722406 L 135.7603162882218 252.80088036449752 L 135.7660700571388 252.79934845953503 L 135.87847953091955 252.76870223605135 L 135.88425192561604 252.7670912800572 L 135.9962724471254 252.73510382052152 L 136.00206216718027 252.73341273118288 L 136.11368136909638 252.7000784703004 L 136.11948703981042 252.69830619424704 L 136.23069255481147 252.66361956672296 L 136.2365127268119 252.6617650833863 L 136.34729218757604 252.62572052392576 L 136.3531253366297 252.62378284949835 L 136.4634663758351 252.58637479280657 L 136.46931090288456 252.58435298429006 L 136.57920115320948 252.54557586507218 L 136.5850553846427 252.54346902440344 L 136.6944824787652 252.50331727736463 L 136.70034466693428 252.5011245556039 L 136.80929623753264 252.45959261544937 L 136.81516456153497 252.45731321701643 L 136.9236282412873 252.41439551845136 L 136.9295008080174 252.4120287053926 L 137.03746422960185 252.36771968312215 L 137.04333907508754 252.3652647793907 L 137.15078987118235 252.31955886812005 L 137.15666496221428 252.317015263849 L 137.2635907654976 252.26990689828332 L 137.26946400155973 252.2672740540317 L 137.37585244470972 252.2187576688762 L 137.3817216602175 252.21603511982633 L 137.48756037591235 252.16610514978618 L 137.49342334276503 252.1632925098686 L 137.5986999636829 252.11194338964896 L 137.6045543941316 252.10904035557164 L 137.7092565529507 252.05626651987768 L 137.7151001027858 252.0532728750348 L 137.81921543218428 251.99906875857172 L 137.82504570423924 251.99598437680658 L 137.92856183689526 251.94034441427956 L 137.93437638486554 251.93716926347633 L 138.03728095345727 251.88008788959056 L 138.04307728602885 251.8768220350686 L 138.14535792323449 251.81829368452924 L 138.15113350851416 251.81493729221418 L 138.25277784701188 251.7549563997264 L 138.25853011724976 251.75150973907222 L 138.35952578971774 251.69007073934122 L 138.36525214630853 251.68653418597842 L 138.46558678542493 251.62363151370934 L 138.51154674645196 251.59107368202834 L 138.55355339059318 251.55355339059335 L 138.58650522668137 251.5171966420818 L 138.61573480615127 251.47778511650978 L 138.64096063217417 251.435698368413 L 138.66193976625564 251.39134171618252 L 138.6784701678661 251.34514233862723 L 138.6903926402016 251.29754516100806 L 138.6975923633361 251.24900857016476 L 138.7 251.2 L 138.7 242.86999944679386 L 136.77493289114514 243.10208838815328 L 134.69756680305258 243.25040268472364 L 132.6 243.3 L 130.5024331969474 243.25040268472364 L 128.42506710885485 243.10208838815328 L 126.5 242.86999944679386 L 126.5 251.2 Z" id="element_321" /></svg>