<?xml version='1.0' encoding='utf-8'?>
<svg xmlns:svg="http://www.w3.org/2000/svg" version="1.1" id="Layer_1" x="0px" y="0px" viewBox="0 0 500 500" style="width: 188px;" xml:space="preserve" data-imageid="seattle-89" imageName="Seattle" class="illustrations_image"><svg:style type="text/css">
	.st0_seattle-89{fill:#398DE7;}
	.st1_seattle-89{fill:#006D29;}
	.st2_seattle-89{opacity:0.41;fill:url(#SVGID_1_);enable-background:new    ;}
	.st3_seattle-89{fill:#873230;}
	.st4_seattle-89{fill:#5FC963;}
	.st5_seattle-89{opacity:0.33;fill:#1E4549;enable-background:new    ;}
	.st6_seattle-89{fill:#F9B176;}
	.st7_seattle-89{fill:#C8BEBC;}
	.st8_seattle-89{opacity:0.3;fill:#FFFFFF;enable-background:new    ;}
	.st9_seattle-89{opacity:0.5;fill:#1E4549;enable-background:new    ;}
	.st10_seattle-89{fill:#FFFFFF;}
	.st11_seattle-89{fill:#1E4549;}
	.st12_seattle-89{fill:#CCCCCC;}
	.st13_seattle-89{opacity:0.68;fill:url(#SVGID_00000042718003868574976250000008420252642133879231_);enable-background:new    ;}
	.st14_seattle-89{opacity:0.68;fill:url(#SVGID_00000016064703512781818860000005791289198883302075_);enable-background:new    ;}
	.st15_seattle-89{opacity:0.68;fill:url(#SVGID_00000116927080317452283010000015494206433425771439_);enable-background:new    ;}
	.st16_seattle-89{opacity:0.68;fill:url(#SVGID_00000086649938191305984080000016147358011694235533_);enable-background:new    ;}
	.st17_seattle-89{fill:#68E1FD;}
	.st18_seattle-89{opacity:0.41;fill:url(#SVGID_00000021806540584255643560000008840838120913610926_);enable-background:new    ;}
	.st19_seattle-89{opacity:0.41;fill:url(#SVGID_00000181768750576374275190000003503029057688303262_);enable-background:new    ;}
	.st20_seattle-89{opacity:0.41;fill:url(#SVGID_00000088120519511962348400000000982865437613748155_);enable-background:new    ;}
	.st21_seattle-89{opacity:0.68;fill:url(#SVGID_00000141454188708226108510000004981936349966510522_);enable-background:new    ;}
	.st22_seattle-89{opacity:0.68;fill:url(#SVGID_00000082369544609449826930000017811291582864951729_);enable-background:new    ;}
	.st23_seattle-89{opacity:0.68;fill:url(#SVGID_00000069394525465164303150000003061584850069511824_);enable-background:new    ;}
	.st24_seattle-89{opacity:0.4;fill:#1E4549;enable-background:new    ;}
	.st25_seattle-89{opacity:0.68;fill:url(#SVGID_00000044179426939273591630000001501825202323530667_);enable-background:new    ;}
	.st26_seattle-89{opacity:0.68;fill:url(#SVGID_00000103259329360607754140000005208119482887869358_);enable-background:new    ;}
	.st27_seattle-89{opacity:0.68;fill:url(#SVGID_00000091729443015361077680000008735085039118257080_);enable-background:new    ;}
	.st28_seattle-89{opacity:0.68;fill:url(#SVGID_00000009561799934092399460000003530713919234959499_);enable-background:new    ;}
	.st29_seattle-89{opacity:0.68;fill:url(#SVGID_00000174582639290617977650000014090475001585431218_);enable-background:new    ;}
	.st30_seattle-89{opacity:0.68;fill:url(#SVGID_00000116213016049503352180000018029602500477441702_);enable-background:new    ;}
	.st31_seattle-89{opacity:0.6;fill:#1E4549;enable-background:new    ;}
	.st32_seattle-89{opacity:0.6;}
	.st33_seattle-89{opacity:0.5;}
</svg:style><svg:path class="st11_seattle-89" cx="213.7" cy="289.8" rx="2.3" ry="1.1" id="element_284" d="M 215.98892487134603 289.6921811456375 L 215.9558061449274 289.5854006457823 L 215.90096277218407 289.4806868550201 L 215.82492292477596 289.3790482243984 L 215.7284189080012 289.2814635894914 L 215.61238010829584 289.1888727436785 L 215.4779240427343 289.10216738742 L 215.32634559672906 289.0221825406948 L 215.15910455357638 288.949688501301 L 214.97781153594508 288.88538342646723 L 214.78421249469977 288.8298866092168 L 214.5801718944397 288.7837325142376 L 214.36765475768524 288.74736563069456 L 214.1487077406371 288.72113619155647 L 213.925439422758 288.7052968006606 L 213.7 288.7 L 213.474560577242 288.7052968006606 L 213.25129225936288 288.72113619155647 L 213.03234524231473 288.74736563069456 L 212.81982810556028 288.7837325142376 L 212.6157875053002 288.8298866092168 L 212.4221884640549 288.88538342646723 L 212.2408954464236 288.949688501301 L 212.07365440327092 289.0221825406948 L 211.9220759572657 289.10216738742 L 211.78761989170414 289.1888727436785 L 211.67158109199877 289.2814635894914 L 211.57507707522402 289.3790482243984 L 211.4990372278159 289.4806868550201 L 211.44419385507257 289.5854006457823 L 211.41107512865395 289.6921811456375 L 211.39999999999998 289.8 L 211.41107512865395 289.9078188543625 L 211.44419385507257 290.01459935421775 L 211.4990372278159 290.1193131449799 L 211.57507707522402 290.22095177560163 L 211.67158109199877 290.3185364105086 L 211.78761989170414 290.41112725632155 L 211.9220759572657 290.49783261258 L 212.07365440327092 290.5778174593052 L 212.2408954464236 290.650311498699 L 212.4221884640549 290.7146165735328 L 212.6157875053002 290.7701133907832 L 212.81982810556028 290.8162674857624 L 213.03234524231473 290.85263436930546 L 213.25129225936288 290.87886380844355 L 213.474560577242 290.8947031993394 L 213.7 290.90000000000003 L 213.925439422758 290.8947031993394 L 214.1487077406371 290.87886380844355 L 214.36765475768524 290.85263436930546 L 214.5801718944397 290.8162674857624 L 214.78421249469977 290.7701133907832 L 214.97781153594508 290.7146165735328 L 215.15910455357638 290.650311498699 L 215.32634559672906 290.5778174593052 L 215.4779240427343 290.49783261258 L 215.61238010829584 290.41112725632155 L 215.7284189080012 290.3185364105086 L 215.82492292477593 290.22095177560163 L 215.90096277218407 290.1193131449799 L 215.9558061449274 290.01459935421775 L 215.98892487134603 289.9078188543625 L 216.0 289.8 L 215.98892487134603 289.6921811456375 Z" /></svg>