<?xml version='1.0' encoding='utf-8'?>
<svg xmlns:svg="http://www.w3.org/2000/svg" version="1.1" id="Layer_1" x="0px" y="0px" viewBox="0 0 500 500" style="width: 188px;" xml:space="preserve" data-imageid="seattle-89" imageName="Seattle" class="illustrations_image"><svg:style type="text/css">
	.st0_seattle-89{fill:#398DE7;}
	.st1_seattle-89{fill:#006D29;}
	.st2_seattle-89{opacity:0.41;fill:url(#SVGID_1_);enable-background:new    ;}
	.st3_seattle-89{fill:#873230;}
	.st4_seattle-89{fill:#5FC963;}
	.st5_seattle-89{opacity:0.33;fill:#1E4549;enable-background:new    ;}
	.st6_seattle-89{fill:#F9B176;}
	.st7_seattle-89{fill:#C8BEBC;}
	.st8_seattle-89{opacity:0.3;fill:#FFFFFF;enable-background:new    ;}
	.st9_seattle-89{opacity:0.5;fill:#1E4549;enable-background:new    ;}
	.st10_seattle-89{fill:#FFFFFF;}
	.st11_seattle-89{fill:#1E4549;}
	.st12_seattle-89{fill:#CCCCCC;}
	.st13_seattle-89{opacity:0.68;fill:url(#SVGID_00000042718003868574976250000008420252642133879231_);enable-background:new    ;}
	.st14_seattle-89{opacity:0.68;fill:url(#SVGID_00000016064703512781818860000005791289198883302075_);enable-background:new    ;}
	.st15_seattle-89{opacity:0.68;fill:url(#SVGID_00000116927080317452283010000015494206433425771439_);enable-background:new    ;}
	.st16_seattle-89{opacity:0.68;fill:url(#SVGID_00000086649938191305984080000016147358011694235533_);enable-background:new    ;}
	.st17_seattle-89{fill:#68E1FD;}
	.st18_seattle-89{opacity:0.41;fill:url(#SVGID_00000021806540584255643560000008840838120913610926_);enable-background:new    ;}
	.st19_seattle-89{opacity:0.41;fill:url(#SVGID_00000181768750576374275190000003503029057688303262_);enable-background:new    ;}
	.st20_seattle-89{opacity:0.41;fill:url(#SVGID_00000088120519511962348400000000982865437613748155_);enable-background:new    ;}
	.st21_seattle-89{opacity:0.68;fill:url(#SVGID_00000141454188708226108510000004981936349966510522_);enable-background:new    ;}
	.st22_seattle-89{opacity:0.68;fill:url(#SVGID_00000082369544609449826930000017811291582864951729_);enable-background:new    ;}
	.st23_seattle-89{opacity:0.68;fill:url(#SVGID_00000069394525465164303150000003061584850069511824_);enable-background:new    ;}
	.st24_seattle-89{opacity:0.4;fill:#1E4549;enable-background:new    ;}
	.st25_seattle-89{opacity:0.68;fill:url(#SVGID_00000044179426939273591630000001501825202323530667_);enable-background:new    ;}
	.st26_seattle-89{opacity:0.68;fill:url(#SVGID_00000103259329360607754140000005208119482887869358_);enable-background:new    ;}
	.st27_seattle-89{opacity:0.68;fill:url(#SVGID_00000091729443015361077680000008735085039118257080_);enable-background:new    ;}
	.st28_seattle-89{opacity:0.68;fill:url(#SVGID_00000009561799934092399460000003530713919234959499_);enable-background:new    ;}
	.st29_seattle-89{opacity:0.68;fill:url(#SVGID_00000174582639290617977650000014090475001585431218_);enable-background:new    ;}
	.st30_seattle-89{opacity:0.68;fill:url(#SVGID_00000116213016049503352180000018029602500477441702_);enable-background:new    ;}
	.st31_seattle-89{opacity:0.6;fill:#1E4549;enable-background:new    ;}
	.st32_seattle-89{opacity:0.6;}
	.st33_seattle-89{opacity:0.5;}
</svg:style><svg:path class="st11_seattle-89" cx="243.9" cy="272.5" rx="2.3" ry="1.1" id="element_291" d="M 246.18892487134605 272.3921811456375 L 246.15580614492742 272.28540064578226 L 246.1009627721841 272.1806868550201 L 246.02492292477598 272.0790482243984 L 245.92841890800122 271.9814635894914 L 245.81238010829586 271.88887274367846 L 245.6779240427343 271.80216738742 L 245.52634559672907 271.7221825406948 L 245.3591045535764 271.649688501301 L 245.1778115359451 271.5853834264672 L 244.9842124946998 271.5298866092168 L 244.78017189443972 271.4837325142376 L 244.56765475768526 271.44736563069455 L 244.3487077406371 271.42113619155646 L 244.125439422758 271.4052968006606 L 243.9 271.4 L 243.674560577242 271.4052968006606 L 243.4512922593629 271.42113619155646 L 243.23234524231475 271.44736563069455 L 243.0198281055603 271.4837325142376 L 242.81578750530022 271.5298866092168 L 242.62218846405491 271.5853834264672 L 242.4408954464236 271.649688501301 L 242.27365440327094 271.7221825406948 L 242.1220759572657 271.80216738742 L 241.98761989170416 271.88887274367846 L 241.8715810919988 271.9814635894914 L 241.77507707522403 272.0790482243984 L 241.69903722781592 272.1806868550201 L 241.6441938550726 272.28540064578226 L 241.61107512865397 272.3921811456375 L 241.6 272.5 L 241.61107512865397 272.6078188543625 L 241.6441938550726 272.71459935421774 L 241.69903722781592 272.8193131449799 L 241.77507707522403 272.9209517756016 L 241.8715810919988 273.0185364105086 L 241.98761989170416 273.11112725632154 L 242.1220759572657 273.19783261258 L 242.27365440327094 273.2778174593052 L 242.4408954464236 273.350311498699 L 242.62218846405491 273.4146165735328 L 242.81578750530022 273.4701133907832 L 243.0198281055603 273.5162674857624 L 243.23234524231475 273.55263436930545 L 243.4512922593629 273.57886380844354 L 243.674560577242 273.5947031993394 L 243.9 273.6 L 244.125439422758 273.5947031993394 L 244.3487077406371 273.57886380844354 L 244.56765475768526 273.55263436930545 L 244.78017189443972 273.5162674857624 L 244.9842124946998 273.4701133907832 L 245.1778115359451 273.4146165735328 L 245.3591045535764 273.350311498699 L 245.52634559672907 273.2778174593052 L 245.6779240427343 273.19783261258 L 245.81238010829586 273.11112725632154 L 245.92841890800122 273.0185364105086 L 246.02492292477598 272.9209517756016 L 246.1009627721841 272.8193131449799 L 246.15580614492742 272.71459935421774 L 246.18892487134605 272.6078188543625 L 246.20000000000002 272.5 L 246.18892487134605 272.3921811456375 Z" /></svg>