<?xml version='1.0' encoding='utf-8'?>
<svg xmlns:svg="http://www.w3.org/2000/svg" version="1.1" id="Layer_1" x="0px" y="0px" viewBox="0 0 500 500" style="width: 188px;" xml:space="preserve" data-imageid="seattle-89" imageName="Seattle" class="illustrations_image"><svg:style type="text/css">
	.st0_seattle-89{fill:#398DE7;}
	.st1_seattle-89{fill:#006D29;}
	.st2_seattle-89{opacity:0.41;fill:url(#SVGID_1_);enable-background:new    ;}
	.st3_seattle-89{fill:#873230;}
	.st4_seattle-89{fill:#5FC963;}
	.st5_seattle-89{opacity:0.33;fill:#1E4549;enable-background:new    ;}
	.st6_seattle-89{fill:#F9B176;}
	.st7_seattle-89{fill:#C8BEBC;}
	.st8_seattle-89{opacity:0.3;fill:#FFFFFF;enable-background:new    ;}
	.st9_seattle-89{opacity:0.5;fill:#1E4549;enable-background:new    ;}
	.st10_seattle-89{fill:#FFFFFF;}
	.st11_seattle-89{fill:#1E4549;}
	.st12_seattle-89{fill:#CCCCCC;}
	.st13_seattle-89{opacity:0.68;fill:url(#SVGID_00000042718003868574976250000008420252642133879231_);enable-background:new    ;}
	.st14_seattle-89{opacity:0.68;fill:url(#SVGID_00000016064703512781818860000005791289198883302075_);enable-background:new    ;}
	.st15_seattle-89{opacity:0.68;fill:url(#SVGID_00000116927080317452283010000015494206433425771439_);enable-background:new    ;}
	.st16_seattle-89{opacity:0.68;fill:url(#SVGID_00000086649938191305984080000016147358011694235533_);enable-background:new    ;}
	.st17_seattle-89{fill:#68E1FD;}
	.st18_seattle-89{opacity:0.41;fill:url(#SVGID_00000021806540584255643560000008840838120913610926_);enable-background:new    ;}
	.st19_seattle-89{opacity:0.41;fill:url(#SVGID_00000181768750576374275190000003503029057688303262_);enable-background:new    ;}
	.st20_seattle-89{opacity:0.41;fill:url(#SVGID_00000088120519511962348400000000982865437613748155_);enable-background:new    ;}
	.st21_seattle-89{opacity:0.68;fill:url(#SVGID_00000141454188708226108510000004981936349966510522_);enable-background:new    ;}
	.st22_seattle-89{opacity:0.68;fill:url(#SVGID_00000082369544609449826930000017811291582864951729_);enable-background:new    ;}
	.st23_seattle-89{opacity:0.68;fill:url(#SVGID_00000069394525465164303150000003061584850069511824_);enable-background:new    ;}
	.st24_seattle-89{opacity:0.4;fill:#1E4549;enable-background:new    ;}
	.st25_seattle-89{opacity:0.68;fill:url(#SVGID_00000044179426939273591630000001501825202323530667_);enable-background:new    ;}
	.st26_seattle-89{opacity:0.68;fill:url(#SVGID_00000103259329360607754140000005208119482887869358_);enable-background:new    ;}
	.st27_seattle-89{opacity:0.68;fill:url(#SVGID_00000091729443015361077680000008735085039118257080_);enable-background:new    ;}
	.st28_seattle-89{opacity:0.68;fill:url(#SVGID_00000009561799934092399460000003530713919234959499_);enable-background:new    ;}
	.st29_seattle-89{opacity:0.68;fill:url(#SVGID_00000174582639290617977650000014090475001585431218_);enable-background:new    ;}
	.st30_seattle-89{opacity:0.68;fill:url(#SVGID_00000116213016049503352180000018029602500477441702_);enable-background:new    ;}
	.st31_seattle-89{opacity:0.6;fill:#1E4549;enable-background:new    ;}
	.st32_seattle-89{opacity:0.6;}
	.st33_seattle-89{opacity:0.5;}
</svg:style><svg:path class="st31_seattle-89" d="M 112.91881447854945 260.1168826182683 L 112.92623426184849 260.1297834589273 L 113.00111045980397 260.25560086160425 L 113.00868966762769 260.2679270816451 L 113.0880650972633 260.39292638598323 L 113.0957669306916 260.4046864755013 L 113.1796013982114 260.5288509856162 L 113.18739206781514 260.5400566350066 L 113.27564537942321 260.66336965501387 L 113.28349417142412 260.67403517105873 L 113.37612613332453 260.7964800050738 L 113.38400540017639 260.8066217691666 L 113.48097581857319 260.92818172130507 L 113.48886090873988 260.93781769723336 L 113.59012958983716 261.0584760716107 L 113.59799873064053 261.06762536680736 L 113.70352548064233 261.1873654675392 L 113.71135962670834 261.19604794889335 L 113.82110425181875 261.3148530800952 L 113.82888691004295 261.3230890432332 L 113.94280921646602 261.44094250902054 L 113.95052625673598 261.4487523984082 L 114.06858605067579 261.5656375028966 L 114.07622550992312 261.57304167904715 L 114.19838259758373 261.6889417263522 L 114.20593448319018 261.6959602758053 L 114.24223155027073 261.7290030832198 L 114.33531606172772 261.1360276881056 L 114.454331565299 260.3779427095052 L 114.57637586074048 259.6006479678022 L 114.70132527628887 258.8049374358655 L 114.79193770749143 258.22795847166094 L 113.32536040575683 257.25024027050455 L 113.23543224934613 257.7823151959344 L 113.13846255237644 258.3560525696718 L 113.04149285540673 258.92978994340916 L 112.94452315843704 259.50352731714656 L 112.85904321824599 260.0092836299436 L 112.91881447854945 260.1168826182683 Z M 117.57013616101328 263.8635075726082 L 117.57551817619755 263.8660182139886 L 117.77443366513445 263.9573753111308 L 117.77972523374186 263.9597684861443 L 117.98185375288905 264.0497732166449 L 117.98705780264413 264.05205515435625 L 118.19235915820566 264.1406908223308 L 118.1974786098286 264.1428673589371 L 118.40591260800853 264.23011726850103 L 118.41095036330731 264.23219387166245 L 118.62247681030973 264.3180413269314 L 118.62743574228617 264.32002311881155 L 118.84201444431513 264.40445142390104 L 118.84689738901632 264.4063432029225 L 119.0644881522759 264.489335661948 L 119.06929790215926 264.4911419232875 L 119.28986053285351 264.5726818403646 L 119.29459983146094 264.5744067952219 L 119.51809413579393 264.6544774744661 L 119.52276567355011 264.6561250681479 L 119.74915145772592 264.73470981367484 L 119.75375786870732 264.7362837425433 L 119.98299493893002 264.8133658584684 L 119.98753879846 264.8148695858032 L 120.21958696093363 264.890432376242 L 120.22407078388822 264.8918691470726 L 120.45888984481685 264.9658959161407 L 120.46331608453019 264.9672687711006 L 120.70086585011792 265.03974282291347 L 120.7052368977979 265.04105461117285 L 120.94547717424877 265.1119592498461 L 120.94979535882271 265.11321264117527 L 121.1926859523408 265.18253117082435 L 121.1969535406594 265.1837286668411 L 121.44245425744876 265.25144439158163 L 121.44667345479145 265.2525883362324 L 121.69474410105616 265.31868456017986 L 121.69891705188142 265.3197771495041 L 121.94951743382555 265.38423717677404 L 121.95364622272515 265.3852804679972 L 122.20673614655276 265.44808760270513 L 122.21082279936788 265.44908352270534 L 122.46636207128303 265.51022106896687 L 122.47040855635082 265.51117142215645 L 122.72835698255757 265.5706226840871 L 122.73236521205818 265.57152915974825 L 122.99268259876065 265.62927744146344 L 122.99665443014008 265.6301416205756 L 123.25930058354227 265.686170226191 L 123.26323782099189 265.6869935877845 L 123.52817254729791 265.7412858214156 L 123.53207694326942 265.742069748484 L 123.79926004868331 265.79460891424634 L 123.80313330542658 265.7953546992479 L 124.07252459615243 265.846124101257 L 124.07636836726219 265.84683295123426 L 124.34792764950406 265.89581589360563 L 124.35174354146473 265.8964889349494 L 124.62543062142667 265.94366872179864 L 124.62922019514636 265.9443070046803 L 124.90499487903246 265.98966694012285 L 124.90875965135693 265.9902714426197 L 125.18658174537126 266.0337948307712 L 125.1903231905756 266.0343664627046 L 125.4701525009222 266.0760366076805 L 125.4738720521688 266.07657621418775 L 125.75566838505176 266.1163764201037 L 125.75936743581698 266.11688478496166 L 126.04309059744035 266.15479835593305 L 126.04677050290046 266.1552762046508 L 126.33238029946833 266.1912864447933 L 126.33604237784729 266.1917344474903 L 126.6234986155637 266.22582466091933 L 126.62714414943525 266.2262434350025 L 126.9164066345043 266.2583969258337 L 126.92003687205276 266.2587870384893 L 127.21106541067847 266.28898711083815 L 127.21468156691093 266.28934908134903 L 127.5074359652974 266.317579039331 L 127.51103922321052 266.3179133412327 L 127.80547928756182 266.3441564889635 L 127.8090707992628 266.3444635520496 L 128.105156335783 266.3687031936446 L 128.10873722356018 266.36898340583116 L 128.4064280384533 266.391202845406 L 128.40999939580246 266.3914565544656 L 128.70925529527264 266.4116390961358 L 128.7128181878736 266.411866611309 L 129.01359897812486 266.42999555919 L 129.01715444477145 266.4301971526833 L 129.31941993200786 266.44625581089076 L 129.32296898549214 266.446431719268 L 129.62667897591777 266.46040339191734 L 129.63022260386566 266.46055381739217 L 129.93533690368457 266.472421808599 L 129.93887606934751 266.4725469202349 L 130.2453544847638 266.4822945341147 L 130.2488901277634 266.4823944689388 L 130.5566924649811 266.4900050096072 L 130.56022550200973 266.49007987364365 L 130.86931156723293 266.49553664521613 L 130.87284289270923 266.49558651444454 L 131.18317249214198 266.4988728210366 L 131.18670297882292 266.4988977422803 L 131.4982359186693 266.49999688800756 L 131.5017639091904 266.4999968886149 L 131.81332725203623 266.4988977428875 L 131.8168563694191 266.4988728373575 L 132.1272763533622 266.4955865307654 L 132.1308049652975 266.4955367203176 L 132.4400401598097 266.4900799487451 L 132.4435691655081 266.4900052144208 L 132.75157814006133 266.4823946737525 L 132.75510845984684 266.48229496678306 L 133.06184978391292 266.4725473529032 L 133.0653823598368 266.47242259387804 L 133.37081460288766 266.4605546026712 L 133.3743503993919 266.460404680635 L 133.67843213089938 266.44643300798566 L 133.68197213552418 266.44625777946055 L 133.98466192496022 266.4301991212531 L 133.9882071491003 266.4299984091796 L 134.28946356593676 266.4118694612986 L 134.29301504564617 266.4116430538904 L 134.59279665935495 266.39146051222025 L 134.5963554561991 266.3912081617257 L 134.89462083625205 266.36898872215085 L 134.8981880382097 266.3687101435153 L 135.19489575407871 266.3444705019202 L 135.19847247649352 266.3441653713419 L 135.4935810976505 266.31792222361116 L 135.49716848423287 266.3175901769825 L 135.7906365801497 266.28936021900046 L 135.79423580402766 266.2890008502275 L 136.08602194417622 266.2588007778787 L 136.08963420899906 266.2584136370691 L 136.3796969628512 266.2262601462379 L 136.38332350394145 266.2258447377481 L 136.67162144096912 266.19175452431904 L 136.67526352652735 266.1913103046507 L 136.9617552162024 266.15530006450825 L 136.96541414856102 266.1548264400425 L 137.25005816035534 266.11691286907103 L 137.25373527728172 266.1164091936293 L 137.53649018066716 266.0766089877134 L 137.54018685671792 266.07607455993093 L 137.8210112211664 266.03440441495496 L 137.82472886908565 266.0338384754545 L 138.10358126406905 265.99031508730303 L 138.10732133623645 265.9897168156526 L 138.38416033122667 265.94435688021 L 138.38792432114545 265.9437253916497 L 138.66270848561433 265.8965456048005 L 138.66649792944244 265.89587994672 L 138.9391858328619 265.84689700434865 L 138.9430023109784 265.84619615249784 L 139.2135525228203 265.7954267504888 L 139.21739766142477 265.7946896049004 L 139.48576875116103 265.7421504391381 L 139.48964422389895 265.7413758197414 L 139.75579476100143 265.6870835861103 L 139.75970229060962 265.68627022801195 L 140.02359084455023 265.63024162239657 L 140.0275322045134 265.62938817080374 L 140.28911734476398 265.5716398890885 L 140.29309436097176 265.5707448938476 L 140.55233465700422 265.511293631917 L 140.556349209399 265.5103555416381 L 140.81320323068522 265.44921799537656 L 140.81725725488266 265.4482351511134 L 141.07168357089452 265.38542801640546 L 141.07577905976484 265.3843986448566 L 141.32773623997426 265.3199386175867 L 141.3318752451597 265.31886082378315 L 141.5813218590385 265.2527645998357 L 141.58550649238688 265.25163635927566 L 141.832401109407 265.1839206345351 L 141.83663354429257 265.18273978472655 L 142.0809347339259 265.11342125507747 L 142.08521720642665 265.11218548644325 L 142.326883538145 265.04128084777 L 142.33121834803669 265.03998769387255 L 142.570208391312 264.96751364205966 L 142.57459790283966 264.9661604690934 L 142.81087022714382 264.8921337000253 L 142.8153168695161 264.8907176955286 L 143.04883004432097 264.8151549050898 L 143.05333631187185 264.8136730658213 L 143.28404890664933 264.73659094989625 L 143.2886173585987 264.735040068821 L 143.51648794282067 264.65645532329404 L 143.52112120255424 264.6548319756213 L 143.7461083456926 264.57476129637706 L 143.75080909947522 264.5730618245915 L 143.97287137100184 264.49152190751437 L 143.97764236601446 264.48974240534113 L 144.19673833540122 264.40674994631564 L 144.20158237698834 264.40488624155927 L 144.41767061370712 264.3204579364698 L 144.42259056169257 264.31850557267023 L 144.63562963521528 264.2326581174013 L 144.6406283991342 264.23061233424966 L 144.85057687893269 264.14336242468573 L 144.85565741199613 264.141218137151 L 145.0624738675423 264.05258246917646 L 145.0676391591318 264.0503342452982 L 145.27128215989754 263.9603295147976 L 145.27653522635714 263.95797155211005 L 145.47696334181435 263.8666144549678 L 145.48230721527224 263.8641405555366 L 145.67947901489276 263.7714477876372 L 145.68491672981443 263.76885133170407 L 145.87879078307017 263.674839588932 L 145.88432536020272 263.6721135071892 L 146.07486023656557 263.57679948542886 L 146.0804946638895 263.57393622997495 L 146.26764893283138 263.4773366251109 L 146.27338614309286 263.4743281391747 L 146.45711837408558 263.3764596470913 L 146.46296121842465 263.37329733366454 L 146.6432299809401 263.2741766502464 L 146.6491811980882 263.2708513398172 L 146.82594506159833 263.17049516094863 L 146.83200724204556 263.1669970786107 L 147.00522477602217 263.0654221001762 L 147.01140032051407 263.06174083246844 L 147.18103009442913 262.9589637503525 L 147.18732116608044 262.955088212301 L 147.35332174940578 262.85112572238813 L 147.35973021867136 262.8470441253465 L 147.49438264746584 262.75983797144016 L 147.4434310236215 262.4373425097393 L 147.3219006323992 261.668297068684 L 147.19726735651471 260.8798001646667 L 147.06965672707875 260.0726600195005 L 146.93919427630638 259.24768486195535 L 146.81968315935345 258.4921510792323 L 146.05529547788316 258.93858560172555 L 144.82289680818843 259.527564927611 L 143.46315441386017 260.0613846722382 L 141.98916335746654 260.5349038596506 L 140.41511897864615 260.9435622412217 L 138.75618018522718 261.28342421334145 L 137.02832346465843 261.5512167194309 L 135.2481890217016 261.7443607712662 L 133.43292052416277 261.8609962860448 L 131.6 261.90000000000003 L 129.76707947583722 261.8609962860448 L 127.95181097829838 261.7443607712662 L 126.17167653534155 261.5512167194309 L 124.44381981477281 261.28342421334145 L 122.78488102135384 260.9435622412217 L 121.21083664253344 260.5349038596506 L 119.73684558613982 260.0613846722382 L 118.37710319181156 259.527564927611 L 118.13748947497838 259.4130504211581 L 118.12810349062956 259.4725168737899 L 118.0007255973421 260.2796640142399 L 117.87630839184423 261.06816772622193 L 117.7549780226445 261.83721979381653 L 117.63686063832223 262.586012000645 L 117.52208238734889 263.3137361310032 L 117.44475029889769 263.80410744954895 L 117.57013616101328 263.8635075726082 Z M 150.51036084784405 259.42050638792745 L 150.51644671726015 259.4046645122052 L 150.56400916965885 259.27428913306954 L 150.5696662517062 259.2579056950138 L 150.61239802819983 259.1268290887305 L 150.61757740541398 259.1099342758341 L 150.65543707547445 258.9781731382879 L 150.6600912790249 258.9608045446924 L 150.69303741212406 258.82837557176754 L 150.6971215199691 258.8105781685238 L 150.7251126855789 258.67749805610487 L 150.7285854576702 258.6593239295837 L 150.7306622774239 258.6472472242982 L 150.4114335934654 258.84942539080527 L 150.49867472371113 259.4049374358655 L 150.50370716202403 259.43698531819706 L 150.51036084784405 259.42050638792745 Z M 150.80000000000004 253.80000000000004 L 150.79759236333615 253.75099142983527 L 150.79039264020165 253.70245483899197 L 150.77847016786615 253.6548576613728 L 150.7619397662557 253.6086582838175 L 150.74096063217422 253.56430163158703 L 150.71573480615132 253.52221488349025 L 150.68650522668142 253.48280335791821 L 150.65355339059332 253.44644660940676 L 150.61719664208186 253.41349477331866 L 150.57778511650983 253.38426519384876 L 150.53569836841305 253.35903936782586 L 150.49134171618257 253.3380602337444 L 150.44514233862728 253.32152983213393 L 150.3975451610081 253.30960735979843 L 150.3490085701648 253.30240763666393 L 150.30000000000004 253.30000000000004 L 150.24329184625375 253.30000000000004 L 150.29999999999998 253.8 L 150.21081012881965 254.58639371314644 L 150.80000000000004 254.2206896551724 L 150.80000000000004 253.80000000000004 Z" id="element_316" /></svg>