<?xml version='1.0' encoding='utf-8'?>
<svg xmlns:svg="http://www.w3.org/2000/svg" version="1.1" id="Layer_1" x="0px" y="0px" viewBox="0 0 500 500" style="width: 188px;" xml:space="preserve" data-imageid="seattle-89" imageName="Seattle" class="illustrations_image"><svg:style type="text/css">
	.st0_seattle-89{fill:#398DE7;}
	.st1_seattle-89{fill:#006D29;}
	.st2_seattle-89{opacity:0.41;fill:url(#SVGID_1_);enable-background:new    ;}
	.st3_seattle-89{fill:#873230;}
	.st4_seattle-89{fill:#5FC963;}
	.st5_seattle-89{opacity:0.33;fill:#1E4549;enable-background:new    ;}
	.st6_seattle-89{fill:#F9B176;}
	.st7_seattle-89{fill:#C8BEBC;}
	.st8_seattle-89{opacity:0.3;fill:#FFFFFF;enable-background:new    ;}
	.st9_seattle-89{opacity:0.5;fill:#1E4549;enable-background:new    ;}
	.st10_seattle-89{fill:#FFFFFF;}
	.st11_seattle-89{fill:#1E4549;}
	.st12_seattle-89{fill:#CCCCCC;}
	.st13_seattle-89{opacity:0.68;fill:url(#SVGID_00000042718003868574976250000008420252642133879231_);enable-background:new    ;}
	.st14_seattle-89{opacity:0.68;fill:url(#SVGID_00000016064703512781818860000005791289198883302075_);enable-background:new    ;}
	.st15_seattle-89{opacity:0.68;fill:url(#SVGID_00000116927080317452283010000015494206433425771439_);enable-background:new    ;}
	.st16_seattle-89{opacity:0.68;fill:url(#SVGID_00000086649938191305984080000016147358011694235533_);enable-background:new    ;}
	.st17_seattle-89{fill:#68E1FD;}
	.st18_seattle-89{opacity:0.41;fill:url(#SVGID_00000021806540584255643560000008840838120913610926_);enable-background:new    ;}
	.st19_seattle-89{opacity:0.41;fill:url(#SVGID_00000181768750576374275190000003503029057688303262_);enable-background:new    ;}
	.st20_seattle-89{opacity:0.41;fill:url(#SVGID_00000088120519511962348400000000982865437613748155_);enable-background:new    ;}
	.st21_seattle-89{opacity:0.68;fill:url(#SVGID_00000141454188708226108510000004981936349966510522_);enable-background:new    ;}
	.st22_seattle-89{opacity:0.68;fill:url(#SVGID_00000082369544609449826930000017811291582864951729_);enable-background:new    ;}
	.st23_seattle-89{opacity:0.68;fill:url(#SVGID_00000069394525465164303150000003061584850069511824_);enable-background:new    ;}
	.st24_seattle-89{opacity:0.4;fill:#1E4549;enable-background:new    ;}
	.st25_seattle-89{opacity:0.68;fill:url(#SVGID_00000044179426939273591630000001501825202323530667_);enable-background:new    ;}
	.st26_seattle-89{opacity:0.68;fill:url(#SVGID_00000103259329360607754140000005208119482887869358_);enable-background:new    ;}
	.st27_seattle-89{opacity:0.68;fill:url(#SVGID_00000091729443015361077680000008735085039118257080_);enable-background:new    ;}
	.st28_seattle-89{opacity:0.68;fill:url(#SVGID_00000009561799934092399460000003530713919234959499_);enable-background:new    ;}
	.st29_seattle-89{opacity:0.68;fill:url(#SVGID_00000174582639290617977650000014090475001585431218_);enable-background:new    ;}
	.st30_seattle-89{opacity:0.68;fill:url(#SVGID_00000116213016049503352180000018029602500477441702_);enable-background:new    ;}
	.st31_seattle-89{opacity:0.6;fill:#1E4549;enable-background:new    ;}
	.st32_seattle-89{opacity:0.6;}
	.st33_seattle-89{opacity:0.5;}
</svg:style><svg:path class="st17_seattle-89 targetColor" points="242.6,98.2 213.8,82.4 213.8,212.1 242.6,229.1 &#09;" style="fill: rgb(104, 225, 253);" id="element_233" d="M 213.8 82.4 L 213.8 91.6 L 242.6 106.44536082474225 L 242.6 98.2 L 213.8 82.4 Z M 213.8 101.0 L 242.6 115.9443298969072 L 242.6 108.74432989690722 L 213.8 93.8 L 213.8 101.0 Z M 213.8 111.3 L 242.6 126.19315068493151 L 242.6 118.14536082474226 L 213.8 103.3 L 213.8 111.3 Z M 213.8 120.6 L 242.6 135.58775510204083 L 242.6 128.4931506849315 L 213.8 113.6 L 213.8 120.6 Z M 213.8 129.7 L 242.6 144.59655172413792 L 242.6 137.78979591836733 L 213.8 122.9 L 213.8 129.7 Z M 213.8 139.0 L 242.6 153.8931506849315 L 242.6 146.89655172413794 L 213.8 132.0 L 213.8 139.0 Z M 213.8 148.3 L 242.6 163.2 L 242.6 156.1931506849315 L 213.8 141.3 L 213.8 148.3 Z M 213.8 157.9 L 242.6 172.74536082474228 L 242.6 165.44809688581316 L 213.8 150.5 L 213.8 157.9 Z M 213.8 167.5 L 242.6 182.44061433447098 L 242.6 175.04536082474226 L 213.8 160.2 L 213.8 167.5 Z M 213.8 176.9 L 242.6 191.7393220338983 L 242.6 184.740614334471 L 213.8 169.8 L 213.8 176.9 Z M 213.8 187.2 L 242.6 202.1 L 242.6 193.98648648648648 L 213.8 179.1 L 213.8 187.2 Z M 213.8 196.5 L 228.69884203326407 204.2310142509377 L 228.70450022926278 204.21120287157822 L 228.70682561155022 204.20330755041087 L 228.72154932042758 204.1547934325977 L 228.7356971329569 204.11446604716224 L 228.7532370653729 204.07549414207324 L 228.75932817749407 204.06337292995198 L 228.76022604426703 204.0615950251659 L 228.7663777562651 204.04947381304467 L 228.76726982608875 204.04772461536842 L 228.77348151959765 204.03560340324722 L 228.77436758816066 204.03388258439384 L 228.78063864481433 204.02176137227264 L 228.7815185159287 204.02006860601048 L 228.78784831736104 204.00794739388925 L 228.78872180273038 204.00628235621653 L 228.7951097305753 203.99416114409533 L 228.79597664956276 203.99252351340957 L 228.80242208545417 203.98040230128834 L 228.8032822648582 203.97879175853575 L 228.80978459043004 203.96667054641455 L 228.81063786425665 203.96508677524182 L 228.81719646114274 203.9529655631206 L 228.81804267039226 203.95140824999547 L 228.8246569202266 203.93928703787424 L 228.82549591266996 203.93775587222348 L 228.83216519708643 203.92563466010228 L 228.83299682705615 203.92412933441935 L 228.83972052768863 203.91200812229815 L 228.84054465586965 203.91052833224973 L 228.84732215435207 203.8984071201285 L 228.8481386475759 203.89695256465404 L 228.85496932554216 203.88483135253284 L 228.85577805658522 203.88340173393507 L 228.86266129566928 203.87128052181384 L 228.86346214305556 203.86987554584178 L 228.87039732489126 203.85775433372058 L 228.8711901727013 203.85637370964128 L 228.87817667892256 203.84425249752007 L 228.87896141660244 203.8428959381905 L 228.8859986288432 203.83077472606928 L 228.88677515102086 203.82944194799674 L 228.893862450915 203.81732073587554 L 228.89463065721827 203.81601145927553 L 228.90176742639974 203.8038902471543 L 228.9025272212816 203.80260419599765 L 228.90971284138425 203.79048298387644 L 228.9104641339498 203.78921988593504 L 228.91769798660758 203.77709867381384 L 228.91844069044603 203.7758582607 L 228.92572215729285 203.76373704857878 L 228.92645619031396 203.7625190557786 L 228.93378465298372 203.7503978436574 L 228.93450993725634 203.74920201056324 L 228.94188477738294 203.737080798442 L 228.94260123898292 203.7359068683717 L 228.95002183820026 203.7237856562505 L 228.95072940705577 203.72263337647365 L 228.9581951469978 203.71051216435245 L 228.95889375674085 203.70938128610862 L 228.96640401904142 203.6972600739874 L 228.96709360687098 203.69615035248893 L 228.97464777316407 203.68402914036773 L 228.97532827969536 203.68294033482758 L 228.9829257316148 203.67081912270635 L 228.98359710075604 203.6697509963246 L 228.9912372199358 203.6576297842034 L 228.99189939874503 203.65658210418923 L 228.999581566819 203.64446089206803 L 229.0002345053841 203.64343342962724 L 229.00795810398617 203.631312217506 L 229.00860175529724 203.63030474784455 L 229.01636616606135 203.61818353572335 L 229.0170004858872 203.61719583804748 L 229.02480509044722 203.60507462592625 L 229.02543003722536 203.6041064834244 L 229.03327421721525 203.5919852713032 L 229.03388975192888 203.5910364711523 L 229.0417728889825 203.57891525903108 L 229.04237897505962 203.57798559237125 L 229.0503004508109 203.56586438025005 L 229.05089705400954 203.56495364218443 L 229.0588562500924 203.55283243006323 L 229.05944333840213 203.55194041963622 L 229.06743963645047 203.539819207515 L 229.06801717999042 203.53894572769934 L 229.07604996163815 203.52682451557814 L 229.07661793255792 203.52596937326066 L 229.08468657943894 203.51384816113944 L 229.08524495182874 203.51301116709683 L 229.09334884557694 203.50088995497563 L 229.0938975953728 203.50007092386042 L 229.10203611762213 203.48794971173922 L 229.1025752225176 203.48714846205993 L 229.11074775490195 203.4750272499387 L 229.11127719426702 203.47424360403238 L 229.11948311842028 203.46212239191118 L 229.1200028732143 203.46135617592802 L 229.12824157077043 203.4492349638068 L 229.12875162346464 203.44848600768452 L 229.1370224760575 203.43636479556332 L 229.1375228105572 203.43563293300446 L 229.1458251998207 203.42351172088323 L 229.146315801392 203.42279678932985 L 229.15464910896006 203.41067557720865 L 229.1551299641574 203.4099774178186 L 229.16349357166396 203.39785620569737 L 229.16396466825893 203.39717466332218 L 229.17235795733785 203.38505345120097 L 229.17281928425567 203.38438837435578 L 229.1812416365409 203.37226716223458 L 229.18169318379165 203.3716184030786 L 229.19014398091707 203.35949719095737 L 229.1905857395387 203.35886460526072 L 229.19906436313823 203.34674339313952 L 229.1994963251298 203.34612684026726 L 229.20800215683732 203.33400562814603 L 229.20842431510775 203.3334049710226 L 229.21695673655722 203.3212837589014 L 229.21736908486236 203.32069886399512 L 229.22592747768763 203.3085776518739 L 229.2263300105855 203.30800838915877 L 229.23491375642058 203.29588717703757 L 229.23530646920713 203.29533341998496 L 229.2439149496858 203.28321220786373 L 229.24429783836018 203.28267383339582 L 229.25293043511644 203.27055262127462 L 229.2533034963187 203.27002950975947 L 229.26195959098644 203.25790829763827 L 229.2623228219594 203.25740033285342 L 229.2710017961725 203.2452791207322 L 229.27135519471807 203.2447861898393 L 229.28005643011045 203.2326649777181 L 229.28039999454128 203.23218697124634 L 229.28912287274687 203.2200657591251 L 229.2894566018504 203.2196025709406 L 229.29820050450306 203.2074813588194 L 229.29852439750007 203.20703288610414 L 229.30728870623378 203.19491167398292 L 229.30760276274148 203.19447781721104 L 229.31638685919012 203.18235660508984 L 229.3166910791834 203.18193726800797 L 229.32549434498085 203.16981605588674 L 229.32578872876434 203.16941114548297 L 229.33461054554454 203.15728993336177 L 229.34373484310638 203.14477814773588 L 229.3528666201569 203.13228061242793 L 229.362005259413 203.1197972440454 L 229.37115014379506 203.10732796235612 L 229.38030065639512 203.0948726902744 L 229.38945618045378 203.08243135383768 L 229.39861609933308 203.0700038821909 L 229.4077797964935 203.05759020756773 L 229.41694665547098 203.04519026527402 L 229.4261160598553 203.03280399367134 L 229.43528739327147 203.02043133415947 L 229.44446003935738 203.008072231165 L 229.45363338174943 202.99572663212254 L 229.46280680406136 202.9833944874662 L 229.47197968987345 202.9710757506102 L 229.48115142271305 202.95877037794247 L 229.49032138604287 202.94647832881037 L 229.49948896324742 202.93419956551088 L 229.50865353762225 202.92193405327893 L 229.51781449236194 202.90968176027985 L 229.52697121055084 202.89744265759973 L 229.53612307515198 202.8852167192405 L 229.54526946900378 202.87300392210662 L 229.55440977480586 202.86080424600806 L 229.56354337512178 202.84861767364322 L 229.5726696523632 202.83644419060772 L 229.58178798879607 202.82428378537708 L 229.59089776652831 202.8121364493145 L 229.59999836751265 202.80000217666176 L 229.63039835959256 202.76325881242659 L 229.6641605946342 202.7295787616729 L 229.70097793970115 202.6992684097119 L 229.74051546971242 202.6726034879159 L 229.78241351423515 202.6498265654076 L 229.82629092938384 202.63114484242374 L 229.8717485650625 202.61672826542755 L 229.9183728960079 202.6067079811166 L 229.96573978360317 202.60117514338938 L 230.01341833424007 202.60018008412393 L 230.06097481913125 202.60373185531202 L 230.10797661991379 202.61179814671377 L 230.1539961641513 202.62430557978175 L 230.19861481493368 202.6411403751811 L 230.24142667919077 202.66214938783307 L 230.28204230007623 202.68714150006602 L 230.2863873852324 202.6904243444663 L 230.29682014750907 202.68096863991178 L 230.5332893009412 202.50559116309236 L 230.785809789522 202.35423620695494 L 231.05194970290472 202.22836140246613 L 231.3291459682366 202.12917899280336 L 231.6147290339516 202.0576441587903 L 231.9059485790113 202.01444581998342 L 232.2 202.0 L 232.49405142098868 202.01444581998342 L 232.7852709660484 202.0576441587903 L 233.0708540317634 202.12917899280336 L 233.34805029709526 202.22836140246613 L 233.61419021047797 202.35423620695494 L 233.86671069905879 202.50559116309236 L 234.10317985249094 202.68096863991178 L 234.32132034355962 202.87867965644037 L 234.5190313600882 203.09682014750905 L 234.69440883690763 203.3332893009412 L 234.84576379304505 203.58580978952202 L 234.97163859753385 203.85194970290473 L 235.07082100719663 204.1291459682366 L 235.14235584120968 204.4147290339516 L 235.18555418001657 204.7059485790113 L 235.2 205.0 L 235.18555418001657 205.2940514209887 L 235.14235584120968 205.5852709660484 L 235.13394003117102 205.6188687630444 L 235.16112371536624 205.62667226116943 L 235.20625645724442 205.6445241237509 L 235.24944572423414 205.66666775949486 L 235.29028456056312 205.6928945174791 L 235.3283881576589 205.7229572730985 L 235.36339748005125 205.7565727566247 L 235.39498264842462 205.79342422234717 L 235.4228460479436 205.83316443314573 L 235.44672513256245 205.8754189323717 L 235.4663948988948 205.9197895722082 L 235.481670006334 205.96585826526314 L 235.49240652344574 206.0131909240452 L 235.49850328417835 206.06134155120247 L 235.49990284111163 206.10985644198317 L 235.49659200676143 206.15827845932006 L 235.48860197784035 206.2061513412566 L 235.47600804130317 206.25302400012686 L 235.46049055648658 206.30129386333383 L 235.45793073981588 206.3090391967021 L 235.4416866748421 206.3568762036453 L 235.43900204303986 206.36457538253651 L 235.42203943666803 206.4119752046532 L 235.4192312609774 206.41962519660356 L 235.40155815196667 206.4665835053311 L 235.39862778213947 206.4741813730797 L 235.38025220924905 206.52069383985537 L 235.37720106722608 206.52823674422933 L 235.35813106921515 206.5742990404906 L 235.35496064273102 206.58178424278793 L 235.33520425835877 206.6273920399721 L 235.33191609451006 206.63481690384452 L 235.31148136253572 206.67996587338897 L 235.30807706134868 206.68732786623173 L 235.28697202053135 206.7320136795738 L 235.2834532285663 206.7393103734294 L 235.26168591766523 206.78352870200644 L 235.2580543216879 206.79075777400152 L 235.23563277946224 206.83450428925096 L 235.2318901002195 206.84166352157044 L 235.20882236542846 206.8849338949296 L 235.20497035155273 206.892021174356 L 235.1812644629555 206.9348110772622 L 235.17730488503065 206.94182439429113 L 235.1529688813864 206.98412949818177 L 235.14890352619693 206.9910669457397 L 235.12394544626486 207.03288292205218 L 235.11977611125369 207.03974269383727 L 235.094203993793 207.08106521400887 L 235.08993248174812 207.08784560247807 L 235.06375436551795 207.1286703379462 L 235.05938247950715 207.13536973197256 L 235.03260640326675 207.1756923541746 L 235.02813594183303 207.1823092364063 L 235.00076994434153 207.22212541677956 L 234.99620269698022 207.22865836071392 L 234.96825481699682 207.2679637706958 L 234.9635925599172 207.27441143750906 L 234.93507083620113 207.3132017485369 L 234.9303153283868 207.31956288368673 L 234.90122779969718 207.3578337671979 L 234.89638077927444 207.36410719682314 L 234.86673548437048 207.401854324255 L 234.86179866528295 207.40803895140712 L 234.84984585393875 207.4227722472328 L 242.6 211.4443298969072 L 242.6 204.34809688581316 L 213.8 189.4 L 213.8 196.5 Z M 213.8 205.6 L 231.7 214.85650684931505 L 231.7 208.71501007319148 L 231.6782689652942 208.71251715226987 L 231.67017251746103 208.71152137091119 L 231.62148834897275 208.70513014511377 L 231.61339776860447 208.7040007133162 L 231.56469443076736 208.69679571774267 L 231.55661272660112 208.69553250181204 L 231.50789825817438 208.68750940789977 L 231.49982850627714 208.68611237323736 L 231.45111094601995 208.67726685242366 L 231.44305628546314 208.67573606874151 L 231.39434367213468 208.6660637924638 L 231.38630730020824 208.66439943876478 L 231.33760767256769 208.65389607846038 L 231.32959283955643 208.65209844774742 L 231.28091423636297 208.6407596748537 L 231.27292423988658 208.6388291785285 L 231.2242746998994 208.62665066448284 L 231.21631287884324 208.62458783639931 L 231.16770044082156 208.61156525263905 L 231.15977016887524 208.6093707527747 L 231.11120287157823 208.5954997707372 L 231.10330755041088 208.59317438844977 L 231.0547934325977 208.5784506795724 L 231.0469759998739 208.57600804130334 L 230.99870613666673 208.56049055648674 L 230.9909608032979 208.55793073981587 L 230.94312379635468 208.54168667484208 L 230.93542461746347 208.53900204303986 L 230.88802479534678 208.52203943666802 L 230.88037480339642 208.5192312609774 L 230.83341649466888 208.50155815196666 L 230.8258186269203 208.49862778213947 L 230.7793061601446 208.48025220924904 L 230.77176325577065 208.47720106722608 L 230.7257009595094 208.45813106921514 L 230.71821575721205 208.454960642731 L 230.67260796002788 208.43520425835877 L 230.66518309615546 208.43191609451006 L 230.62003412661102 208.4114813625357 L 230.61267213376826 208.40807706134868 L 230.56798632042617 208.38697202053135 L 230.5606896265706 208.38345322856628 L 230.51647129799355 208.36168591766523 L 230.50924222599846 208.3580543216879 L 230.46549571074902 208.33563277946223 L 230.45833647842954 208.33189010021948 L 230.4150661050704 208.30882236542845 L 230.407978825644 208.30497035155273 L 230.3651889227378 208.2812644629555 L 230.35817560570885 208.27730488503065 L 230.3158705018182 208.2529688813864 L 230.30893305426028 208.24890352619693 L 230.2671170779478 208.22394544626485 L 230.2602573061627 208.21977611125368 L 230.2189347859911 208.194203993793 L 230.2121543975219 208.18993248174812 L 230.17132966205378 208.16375436551795 L 230.16463026802742 208.15938247950714 L 230.12430764582538 208.13260640326675 L 230.11769076359369 208.12813594183302 L 230.07787458322042 208.10076994434152 L 230.07134163928606 208.0962026969802 L 230.0320362293042 208.0682548169968 L 230.02558856249092 208.0635925599172 L 229.98679825146309 208.03507083620113 L 229.98043711631325 208.0303153283868 L 229.9421662328021 208.00122779969718 L 229.93589280317684 207.99638077927443 L 229.89814567574498 207.96673548437047 L 229.89196104859286 207.96179866528294 L 229.85474200580296 207.93160364292387 L 229.8486472050798 207.92657871192256 L 229.81196057549448 207.8958420008675 L 229.80595655620922 207.89073061481764 L 229.76980666839114 207.85946025382583 L 229.76389432074828 207.8542640373257 L 229.72828550326005 207.82246806515627 L 229.72246565688408 207.817188608473 L 229.68740223828837 207.7848750638852 L 229.68167566650055 207.77951392119905 L 229.64716197536 207.74669084295203 L 229.64152939949398 207.74124953091086 L 229.6075697643712 207.70792495776382 L 229.6020318581 207.70240495433617 L 229.56863060755762 207.66858692504832 L 229.5631880012195 207.66298966867544 L 229.5303494638202 207.62868622200588 L 229.52500274872423 207.62301311104446 L 229.49273125303063 207.58823228575247 L 229.48748098571934 207.5824846781949 L 229.4557808602941 207.54723451303963 L 229.45062756675915 207.5414137265159 L 229.41950314016486 207.50570226025656 L 229.41444731998695 207.49980957229496 L 229.38390292078628 207.46364484369067 L 229.37894505119982 207.45768149224332 L 229.34898500795543 207.42107154005333 L 229.344125547813 207.41503872426495 L 229.3147541890875 207.37799158724843 L 229.3099935827194 207.37189046846692 L 229.2812152370754 207.33441418538303 L 229.2765539180322 207.32824588840163 L 229.24837291403242 207.2903484980096 L 229.2438113086977 207.2841141125284 L 229.2162319749047 207.24580365358742 L 229.2117705059692 207.23950423588568 L 229.18479717094567 207.2007887471549 L 229.18043626073722 207.1944253219693 L 229.1540732530458 207.1553128422079 L 229.14981332670192 207.14888640480123 L 229.1240649749052 207.10938497276842 L 229.11990646338177 207.10289649118104 L 229.0947770960424 207.063014145636 L 229.090720438954 207.05646456311484 L 229.0662143846347 207.01620934281678 L 229.0622600329164 207.00959958040852 L 229.0383816201797 206.9689795241166 L 229.0345300385627 206.96231048341403 L 229.0112835959713 206.9213336298874 L 229.00753526527163 206.9146061959288 L 228.98492512138816 206.87328058392674 L 228.9812805405952 206.86649562822686 L 228.95931102398228 206.82482929650848 L 228.9557707121464 206.81798768022173 L 228.9344461513667 206.77598866754627 L 228.93101064927876 206.76909124474895 L 228.91033537289488 206.72676758987555 L 228.90700524455062 206.719815210956 L 228.8869835811252 206.67717495264387 L 228.8837594149718 206.67016846779498 L 228.8643956930675 206.6272196448033 L 228.86127810302503 206.62015990760503 L 228.84257665120452 206.57691055869302 L 228.83956627745775 206.56979842977455 L 228.83037931765926 206.54761820497902 L 213.8 198.8 L 213.8 205.6 Z M 213.8 208.39851208280677 L 214.14923373880325 208.3467081512797 L 214.61918727083557 208.3236208147129 L 213.8 207.9 L 213.8 208.39851208280677 Z M 231.7 222.66597222222222 L 231.7 217.15650684931506 L 223.2799304770262 212.80229281517452 L 223.65463626417903 213.42745165278782 L 224.06163146535948 214.28797070605862 L 224.3823212566024 215.1842386306317 L 224.61361721991133 216.10762387644357 L 224.7532918487203 217.04923373880325 L 224.79999999999998 218.0 L 224.77168610884206 218.5763424948026 L 231.7 222.66597222222222 Z M 242.6 229.1 L 242.6 222.7931506849315 L 232.7 217.6736301369863 L 232.7 222.95531600417053 L 232.7656760841912 222.970847241391 L 232.8629529627989 223.0 L 233.4 223.0 L 233.44993747549194 223.00250000146585 L 233.4993755759361 223.00997500583404 L 233.54781992003828 223.02235026301705 L 233.59478606407336 223.03950202037055 L 233.63980434632558 223.06125876022037 L 233.6824245837085 223.08740291504049 L 233.72222057359838 223.1176730431294 L 233.758794355863 223.15176644302875 L 233.79178019246524 223.1893421805396 L 233.82084822484572 223.23002449806654 L 233.84570777251014 223.2734065721958 L 233.8661102398361 223.31905458193168 L 233.8818516020308 223.36651204690918 L 233.89277444537987 223.41530439220028 L 233.90388555649102 223.47995085684693 L 233.91499666760208 223.5445973214932 L 233.93721888982435 223.67389025078634 L 233.9483300009354 223.7385367154326 L 233.95944111204653 223.80318318007906 L 233.97055222315768 223.86782964472573 L 233.98166333426875 223.932476109372 L 233.99277444537987 223.99712257401845 L 233.99702537512084 224.02185525614772 L 242.6 229.1 Z M 242.6 213.64536082474228 L 232.90069826043683 208.6457207528025 L 232.89509332273363 208.64702990341556 L 232.84886468599382 208.65744648634515 L 232.84119876597126 208.6591107499707 L 232.79477410718053 208.66880879150222 L 232.7870693684587 208.67035521238918 L 232.7404567263762 208.67933038396 L 232.73271453037876 208.68075801020828 L 232.7 208.686524491276 L 232.7 215.3736301369863 L 242.6 220.4931506849315 L 242.6 213.64536082474228 Z" /></svg>