<svg xmlns="http://www.w3.org/2000/svg" viewBox="0.0 0.0 200.0 200.0" height="200.0px" width="200.0px"><path fill="" fill-opacity="1.0"  filling="0" d="M64.93984985351562 195.79061889648438 L70.9097671508789 195.79843139648438 A1.713281273841858 1.713281273841858 0.0 0 0 72.49687194824219 194.7316436767578 C75.04960632324219 188.52694702148438 83.16093444824219 167.65469360351562 84.50936889648438 150.11953735351562 C80.9781265258789 151.24765014648438 78.26445007324219 152.1875 76.8765640258789 152.6785125732422 C75.091796875 169.62579345703125 67.93789672851562 188.46914672851562 64.93984985351562 195.79061889648438 Z"></path>
<path fill="" fill-opacity="1.0"  filling="0" d="M158.583984375 183.6398468017578 C156.17733764648438 185.6484375 152.3859405517578 189.53359985351562 151.57382202148438 192.16015625 C152.90194702148438 192.31640625 155.5773468017578 192.3855438232422 158.10626220703125 192.4089813232422 A3.083203077316284 3.083203077316284 0.0 0 1 158.15545654296875 191.9289093017578 C158.9929656982422 187.50860595703125 164.88046264648438 182.2890625 166.34805297851562 181.04647827148438 C166.44100952148438 180.37188720703125 166.5089874267578 177.99139404296875 164.9601593017578 170.82852172851562 C162.96405029296875 161.5984344482422 156.2101593017578 158.58438110351562 148.38751220703125 155.0945281982422 C142.97930908203125 152.6808624267578 137.38633728027344 150.185546875 133.10195922851562 145.3679656982422 A12.183202743530273 12.183202743530273 0.0 0 1 131.5496063232422 143.1414031982422 C130.1042938232422 142.52774047851562 127.96484375 142.0441436767578 124.78085327148438 141.95587158203125 A8.383984565734863 8.383984565734863 0.0 0 0 125.58710479736328 143.03164672851562 C129.3683624267578 147.2839813232422 134.6105499267578 149.62265014648438 139.67811584472656 151.88436889648438 C147.64413452148438 155.43907165527344 155.88125610351562 159.1144561767578 158.25430297851562 170.08749389648438 C160.60702514648438 180.96914672851562 159.59259033203125 182.44296264648438 159.1589813232422 183.07264709472656 A2.106250047683716 2.106250047683716 0.0 0 1 158.583984375 183.6398468017578 Z"></path>
<path fill="" fill-opacity="1.0"  filling="0" d="M12.662887573242188 44.668357849121094 C11.551956176757812 44.820308685302734 10.575393676757812 44.941795349121094 9.866798400878906 45.025390625 A19.97773551940918 19.97773551940918 0.0 0 0 9.762107849121094 47.08086395263672 A4.708593845367432 4.708593845367432 0.0 0 0 12.662887573242188 44.668357849121094 Z"></path>
<path fill="" fill-opacity="1.0"  filling="0" d="M11.391792297363281 52.734375 C12.299606323242188 53.68476486206055 13.635543823242188 54.06757736206055 15.473045349121094 53.90625 L25.422264099121094 53.025390625 A1.7578125 1.7578125 0.0 1 1 25.732421875 56.527347564697266 L15.783203125 57.408203125 C15.220703125 57.45780944824219 15.220703125 57.45780944824219 14.686714172363281 57.45780944824219 C14.40625 57.45780944824219 14.133201599121094 57.4453125 13.866409301757812 57.42461013793945 C14.157035827636719 58.54960632324219 15.034767150878906 59.9140625 17.431243896484375 60.738670349121094 C19.84765625 61.569923400878906 21.763671875 62.73086166381836 23.125778198242188 64.1890640258789 A5.988671779632568 5.988671779632568 0.0 0 1 24.607810974121094 69.4507827758789 C23.631248474121094 74.3062515258789 23.9765625 88.57733917236328 27.169921875 102.7425765991211 C31.419525146484375 121.591796875 38.320701599121094 131.33633422851562 44.314064025878906 136.373046875 C42.423439025878906 129.4953155517578 42.546875 123.68827819824219 44.69688034057617 119.06562805175781 C47.32577896118164 113.41289520263672 52.052734375 111.7339859008789 52.25234603881836 111.66484069824219 A1.7578125 1.7578125 0.0 0 1 53.40546798706055 114.98515319824219 C53.236717224121094 115.04609680175781 49.80624771118164 116.33515167236328 47.846092224121094 120.630859375 C45.677734375 125.3828125 46.12343215942383 131.853515625 49.15937042236328 139.8605499267578 A13.676172256469727 13.676172256469727 0.0 0 1 54.12031555175781 149.3562469482422 L57.021095275878906 185.2937469482422 A1.7578125 1.7578125 0.0 0 1 55.741798400878906 187.1296844482422 C53.05234146118164 187.88125610351562 52.48749923706055 188.51718139648438 51.98905944824219 189.078125 C51.839847564697266 189.24649047851562 51.69648361206055 189.40509033203125 51.54218673706055 189.5546875 L48.18008041381836 192.81600952148438 A1.7359373569488525 1.7359373569488525 0.0 0 0 49.374996185302734 195.79922485351562 L59.98476791381836 195.79922485351562 A1.714453101158142 1.714453101158142 0.0 0 0 61.574607849121094 194.732421875 A207.1921844482422 207.1921844482422 0.0 0 0 70.6128921508789 167.4343719482422 C74.27030944824219 152.67266845703125 74.77616882324219 141.451171875 72.1171875 134.08203125 A1.7578125 1.7578125 0.0 1 1 75.4242172241211 132.888671875 C77.0648422241211 137.4367218017578 77.50898742675781 142.95547485351562 77.1859359741211 148.841796875 C86.1117172241211 145.7429656982422 115.66719055175781 136.10116577148438 129.9464874267578 139.0164031982422 C127.05156707763672 128.07577514648438 131.08828735351562 111.69999694824219 131.30038452148438 110.85664367675781 A1.7578125 1.7578125 0.0 0 1 134.7097625732422 111.7132797241211 C133.06915283203125 118.25859069824219 130.04844665527344 136.64413452148438 135.72891235351562 143.0320281982422 C139.5105438232422 147.2843780517578 144.75234985351562 149.623046875 149.81991577148438 151.884765625 C157.7863311767578 155.439453125 166.0234375 159.11485290527344 168.39608764648438 170.087890625 C170.7492218017578 180.96954345703125 169.73477172851562 182.443359375 169.30117797851562 183.0730438232422 A2.106250047683716 2.106250047683716 0.0 0 1 168.72616577148438 183.64218139648438 C166.3152313232422 185.654296875 162.51522827148438 189.54922485351562 161.7121124267578 192.17578125 C167.701171875 193.22772216796875 172.6628875732422 193.060546875 174.4402313232422 191.73672485351562 C176.6902313232422 189.49179077148438 185.52694702148438 161.0671844482422 184.3976593017578 140.09024047851562 C183.9679718017578 132.08242797851562 182.02578735351562 126.5152359008789 178.78515625 123.99375915527344 A1.7578125 1.7578125 0.0 0 1 180.94415283203125 121.2203140258789 C183.15350341796875 122.9390640258789 184.85040283203125 125.533203125 186.02227783203125 128.9777374267578 C187.38946533203125 116.70156860351562 184.9796905517578 100.62577819824219 174.2703094482422 86.6128921508789 C167.96954345703125 78.3707046508789 152.15586853027344 66.17538452148438 117.0394515991211 77.14726257324219 C111.58163452148438 78.8519515991211 97.99844360351562 82.03007507324219 89.7593765258789 74.71992492675781 C89.63163757324219 74.60624694824219 89.4859390258789 74.48046875 89.3257827758789 74.341796875 C86.4585952758789 71.85820007324219 78.84297180175781 65.2621078491211 79.68789672851562 52.200782775878906 C80.4964828491211 39.700782775878906 77.15116882324219 30.052337646484375 69.74453735351562 23.514060974121094 A29.121484756469727 29.121484756469727 0.0 0 0 60.22265625 17.9375 C59.89297103881836 22.162887573242188 58.64921951293945 26.537109375 55.580078125 30.139450073242188 A1.7578125 1.7578125 0.0 0 1 52.903907775878906 27.859764099121094 C59.066410064697266 20.626174926757812 56.32890319824219 8.914451599121094 55.298828125 4.502738952636719 C55.26250076293945 4.348442077636719 55.26250076293945 4.348442077636719 55.22890853881836 4.205078125 C51.302345275878906 6.5792999267578125 49.96484375 11.978515625 49.521480560302734 15.916801452636719 C49.521480560302734 15.935157775878906 49.51679611206055 15.953125 49.515628814697266 15.971481323242188 A31.355077743530273 31.355077743530273 0.0 0 0 49.32773208618164 20.517578125 A1.7578125 1.7578125 0.0 1 1 45.81757736206055 20.712890625 C45.808982849121094 20.558982849121094 45.75898742675781 19.537887573242188 45.82733917236328 18.02031707763672 C30.946876525878906 21.47539520263672 26.890228271484375 34.36719512939453 25.82733917236328 39.94804763793945 L25.78241729736328 40.18046951293945 C25.488677978515625 41.655860900878906 24.151954650878906 42.67499923706055 17.94140625 43.83515548706055 C17.4765625 43.921875 17.00390625 44.00507736206055 16.532028198242188 44.08476257324219 A8.22421932220459 8.22421932220459 0.0 0 1 10.217971801757812 50.5859375 A5.3203125 5.3203125 0.0 0 0 11.391792297363281 52.734375 Z M40.261722564697266 33.24883270263672 A4.396874904632568 4.396874904632568 0.0 1 1 35.86836242675781 37.64570236206055 A4.400000095367432 4.400000095367432 0.0 0 1 40.261722564697266 33.24883270263672 Z"></path>
<path fill="" fill-opacity="1.0"  filling="0" d="M40.261722564697266 38.52695083618164 A0.8812500238418579 0.8812500238418579 0.0 1 0 39.38398361206055 37.64570236206055 A0.8804687261581421 0.8804687261581421 0.0 0 0 40.261722564697266 38.52695083618164 Z"></path>
<path fill="" fill-opacity="1.0"  filling="0" d="M177.06561279296875 84.474609375 A61.70077896118164 61.70077896118164 0.0 0 1 185.46875 99.3636703491211 A35.87539291381836 35.87539291381836 0.0 0 0 189.17071533203125 90.99492645263672 C191.5691375732422 82.67460632324219 189.9187469482422 75.40898132324219 184.26483154296875 69.40117645263672 C177.40469360351562 62.109375 163.3484344482422 58.3203125 155.88632202148438 61.753517150878906 C152.595703125 63.267578125 150.970703125 66.0062484741211 151.033203125 69.89726257324219 C162.13360595703125 71.484375 170.8757781982422 76.3753890991211 177.06561279296875 84.474609375 Z"></path></svg>