<svg xmlns="http://www.w3.org/2000/svg" viewBox="0.0 0.0 200.0 200.0" height="200.0px" width="200.0px"><path fill="#548eb5" fill-opacity="1.0"  filling="0" d="M175.0 75.0 L175.0 200.0 L25.0 200.0 L25.0 75.0 C31.90234375 75.0 37.5 69.40234375 37.5 62.5 L37.5 28.01953887939453 L41.40625 26.66015625 L41.40625 23.4375 L37.5 21.984375 L37.5 2.734375 C37.5 1.2265625 38.7265625 0.0 40.234375 0.0 L59.765625 0.0 C61.27734375 0.0 62.5 1.2265625 62.5 2.734375 L62.5 21.984375 L59.5703125 25.0 C59.5703125 26.15625 62.578125 26.8984375 62.7265625 28.01171875 C64.390625 40.4296875 75.02734375 50.0 87.89453125 50.0 L112.10546875 50.0 C124.97265625 50.0 135.609375 40.4296875 137.2734375 28.01171875 C137.421875 26.8984375 141.40625 25.76171875 141.40625 24.60546875 L137.5 21.984375 L137.5 2.734375 C137.5 1.2265625 138.72265625 0.0 140.234375 0.0 L159.765625 0.0 C161.2734375 0.0 162.5 1.2265625 162.5 2.734375 L162.5 21.984375 L158.59375 23.53515625 L158.59375 26.66015625 L162.5 28.01953887939453 L162.5 62.5 C162.5 65.953125 163.8984375 69.078125 166.16015625 71.33984375 C168.421875 73.6015625 171.546875 75.0 175.0 75.0 Z"></path>
<path fill="#497090" fill-opacity="1.0"  filling="0" d="M50.0 0.0 L50.0 62.5 C50.0 68.63671875 45.58203125 73.7421875 39.750003814697266 74.80078125 C38.45703125 75.03515625 37.5 76.12109375 37.5 77.43359375 L37.5 200.0 L25.00390625 200.0 L25.0 199.96484375 L25.0 75.0 C31.90234375 75.0 37.5 69.40234375 37.5 62.5 L37.5 28.01953887939453 L41.40625 26.66015625 L41.40625 23.4375 L37.5 21.984375 L37.5 2.734375 C37.5 1.2265625 38.7265625 0.0 40.234375 0.0 L50.0 0.0 Z"></path>
<path fill="#497090" fill-opacity="1.0"  filling="0" d="M150.0 0.0 L150.0 24.609375 C150.0 25.765625 149.921875 26.90234375 149.7734375 28.01953887939453 C148.10546875 40.4296875 137.4765625 50.0 124.609375 50.0 L112.10546875 50.0 C124.97265625 50.0 135.609375 40.4296875 137.2734375 28.01171875 C137.421875 26.8984375 141.40625 25.76171875 141.40625 24.60546875 L137.5 21.984375 L137.5 2.734375 C137.5 1.2265625 138.72265625 0.0 140.234375 0.0 L150.0 0.0 Z"></path>
<path fill="#ffb952" fill-opacity="1.0"  filling="0" d="M66.01602172851562 137.49960327148438 L40.23515701293945 137.49960327148438 C38.72500228881836 137.49960327148438 37.50078201293945 136.275390625 37.50078201293945 134.76522827148438 L37.50078201293945 115.234375 C37.50078201293945 113.7242202758789 38.72500228881836 112.5 40.23515701293945 112.5 L66.01602172851562 112.5 C67.52616882324219 112.5 68.75039672851562 113.7242202758789 68.75039672851562 115.234375 L68.75039672851562 134.76522827148438 C68.75039672851562 136.275390625 67.52616882324219 137.49960327148438 66.01602172851562 137.49960327148438 Z"></path>
<path fill="#ffb952" fill-opacity="1.0"  filling="0" d="M66.01602172851562 174.99920654296875 L40.23515701293945 174.99920654296875 C38.72500228881836 174.99920654296875 37.50078201293945 173.77500915527344 37.50078201293945 172.26483154296875 L37.50078201293945 152.73397827148438 C37.50078201293945 151.2238311767578 38.72500228881836 149.99960327148438 40.23515701293945 149.99960327148438 L66.01602172851562 149.99960327148438 C67.52616882324219 149.99960327148438 68.75039672851562 151.2238311767578 68.75039672851562 152.73397827148438 L68.75039672851562 172.26483154296875 C68.75039672851562 173.77500915527344 67.52616882324219 174.99920654296875 66.01602172851562 174.99920654296875 Z"></path>
<path fill="#ffb952" fill-opacity="1.0"  filling="0" d="M159.76522827148438 137.49960327148438 L133.984375 137.49960327148438 C132.47421264648438 137.49960327148438 131.25 136.275390625 131.25 134.76522827148438 L131.25 115.234375 C131.25 113.7242202758789 132.47421264648438 112.5 133.984375 112.5 L159.76522827148438 112.5 C161.275390625 112.5 162.49960327148438 113.7242202758789 162.49960327148438 115.234375 L162.49960327148438 134.76522827148438 C162.49960327148438 136.275390625 161.275390625 137.49960327148438 159.76522827148438 137.49960327148438 Z"></path>
<path fill="#ffb952" fill-opacity="1.0"  filling="0" d="M159.76522827148438 174.99920654296875 L133.984375 174.99920654296875 C132.47421264648438 174.99920654296875 131.25 173.77500915527344 131.25 172.26483154296875 L131.25 152.73397827148438 C131.25 151.2238311767578 132.47421264648438 149.99960327148438 133.984375 149.99960327148438 L159.76522827148438 149.99960327148438 C161.275390625 149.99960327148438 162.49960327148438 151.2238311767578 162.49960327148438 152.73397827148438 L162.49960327148438 172.26483154296875 C162.49960327148438 173.77500915527344 161.275390625 174.99920654296875 159.76522827148438 174.99920654296875 Z"></path>
<path fill="#98bce5" fill-opacity="1.0"  filling="0" d="M68.75039672851562 156.24960327148438 L131.25 156.24960327148438 L131.25 168.74960327148438 L68.75039672851562 168.74960327148438 L68.75039672851562 156.24960327148438 Z"></path>
<path fill="#7bacdf" fill-opacity="1.0"  filling="0" d="M25.000778198242188 156.24960327148438 L37.50078201293945 156.24960327148438 L37.50078201293945 168.74960327148438 L25.000778198242188 168.74960327148438 L25.000778198242188 156.24960327148438 Z"></path>
<path fill="#98bce5" fill-opacity="1.0"  filling="0" d="M162.49960327148438 156.24960327148438 L174.99960327148438 156.24960327148438 L174.99960327148438 168.74960327148438 L162.49960327148438 168.74960327148438 L162.49960327148438 156.24960327148438 Z"></path>
<path fill="#98bce5" fill-opacity="1.0"  filling="0" d="M68.75039672851562 118.75 L131.25 118.75 L131.25 131.25 L68.75039672851562 131.25 L68.75039672851562 118.75 Z"></path>
<path fill="#7bacdf" fill-opacity="1.0"  filling="0" d="M25.000778198242188 118.75 L37.50078201293945 118.75 L37.50078201293945 131.25 L25.000778198242188 131.25 L25.000778198242188 118.75 Z"></path>
<path fill="#98bce5" fill-opacity="1.0"  filling="0" d="M162.49960327148438 118.75 L174.99960327148438 118.75 L174.99960327148438 131.25 L162.49960327148438 131.25 L162.49960327148438 118.75 Z"></path>
<path fill="#98bce5" fill-opacity="1.0"  filling="0" d="M112.5 199.99920654296875 L87.5 199.99920654296875 L87.5 183.98358154296875 C87.5 182.4734344482422 88.7242202758789 181.24920654296875 90.234375 181.24920654296875 L109.765625 181.24920654296875 C111.2757797241211 181.24920654296875 112.5 182.4734344482422 112.5 183.98358154296875 L112.5 199.99920654296875 Z"></path>
<path fill="#98bce5" fill-opacity="1.0"  filling="0" d="M134.76522827148438 100.0 L65.23477172851562 100.0 C63.724605560302734 100.0 62.50039291381836 98.7757797241211 62.50039291381836 97.265625 L62.50039291381836 90.234375 C62.50039291381836 88.7242202758789 63.724605560302734 87.5 65.23477172851562 87.5 L134.76522827148438 87.5 C136.275390625 87.5 137.49960327148438 88.7242202758789 137.49960327148438 90.234375 L137.49960327148438 97.265625 C137.49960327148438 98.7757797241211 136.275390625 100.0 134.76522827148438 100.0 Z"></path>
<path fill="#98bce5" fill-opacity="1.0"  filling="0" d="M134.76522827148438 74.9921875 L65.23477172851562 74.9921875 C63.724605560302734 74.9921875 62.50039291381836 73.7679672241211 62.50039291381836 72.2578125 L62.50039291381836 65.2265625 C62.50039291381836 63.71640396118164 63.724605560302734 62.4921875 65.23477172851562 62.4921875 L134.76522827148438 62.4921875 C136.275390625 62.4921875 137.49960327148438 63.71640396118164 137.49960327148438 65.2265625 L137.49960327148438 72.2578125 C137.49960327148438 73.7679672241211 136.275390625 74.9921875 134.76522827148438 74.9921875 Z"></path>
<path fill="#ffb952" fill-opacity="1.0"  filling="0" d="M62.7265625 28.01171875 C62.65234375 28.015625 62.578125 28.01953887939453 62.5 28.01953887939453 L37.5 28.01953887939453 L37.5 21.984375 L62.5 21.984375 L62.5 24.60546875 C62.5 25.76171875 62.578125 26.8984375 62.7265625 28.01171875 Z"></path>
<path fill="#f4a94a" fill-opacity="1.0"  filling="0" d="M37.5 21.984375 L50.0 21.984375 L50.0 28.01953887939453 L37.5 28.01953887939453 L37.5 21.984375 Z"></path>
<path fill="#ffb952" fill-opacity="1.0"  filling="0" d="M162.5 21.984375 L162.5 28.01953887939453 L137.5 28.01953887939453 C137.421875 28.01953887939453 137.34765625 28.015625 137.2734375 28.01171875 C137.421875 26.8984375 137.5 25.76171875 137.5 24.60546875 L137.5 21.984375 L162.5 21.984375 Z"></path>
<path fill="#f4a94a" fill-opacity="1.0"  filling="0" d="M150.0 21.984375 L150.0 24.609375 C150.0 25.765625 149.921875 26.90234375 149.7734375 28.01953887939453 L137.5 28.01953887939453 C137.421875 28.01953887939453 137.34765625 28.015625 137.2734375 28.01171875 L137.2734375 27.99609375 C137.30859375 27.734375 137.33984375 27.47265625 137.3671875 27.20703125 C137.37109375 27.16796875 137.375 27.125 137.37890625 27.08203125 C137.40625 26.83203125 137.42578125 26.578125 137.44140625 26.32421875 C137.4609375 26.0390625 137.4765625 25.75390625 137.484375 25.46875 C137.49609375 25.18359375 137.5 24.8984375 137.5 24.609375 L137.5 21.984375 L150.0 21.984375 Z"></path></svg>