<svg xmlns="http://www.w3.org/2000/svg" viewBox="0.0 0.0 200.0 200.0" height="200.0px" width="200.0px"><path fill="#f27182" fill-opacity="1.0"  filling="0" d="M88.7265625 48.10038757324219 L90.24609375 51.734375 L158.564453125 91.0472640991211 L155.5324249267578 96.94844055175781 C156.07928466796875 97.42304992675781 156.23477172851562 98.23124694824219 155.86328125 98.884765625 L154.9480438232422 100.4937515258789 L156.31797790527344 102.9398422241211 L181.75546264648438 100.09882354736328 L182.5359344482422 99.3414077758789 L172.48983764648438 76.875 C171.7394561767578 75.1968765258789 169.39999389648438 75.083984375 168.4914093017578 76.681640625 L164.62655639648438 83.47695922851562 C164.203125 84.22148132324219 163.25665283203125 84.48163604736328 162.51211547851562 84.05819702148438 L96.34687042236328 46.425785064697266 C94.02499389648438 45.10546875 91.29961395263672 45.20390701293945 89.1402359008789 46.419918060302734 L88.7265625 48.10038757324219 Z"></path>
<path fill="#ffeb7e" fill-opacity="1.0"  filling="0" d="M52.93828201293945 1.0128936767578125 L49.050392150878906 1.0128936767578125 L35.868751525878906 8.820701599121094 L29.823043823242188 23.686721801757812 L29.823043823242188 39.444923400878906 L38.64375305175781 52.82461166381836 L45.878517150878906 56.98710632324219 L52.937889099121094 57.924217224121094 C65.4957046508789 54.54999923706055 74.7421875 43.09140396118164 74.7421875 29.46875 C74.7421875 15.846099853515625 65.4957046508789 4.387107849121094 52.93828201293945 1.0128936767578125 Z"></path>
<path fill="#ffeb7e" fill-opacity="1.0"  filling="0" d="M54.224998474121094 75.25 L36.322654724121094 75.25 C34.968360900878906 75.25 33.87031555175781 76.34805297851562 33.87031555175781 77.70234680175781 L33.87031555175781 197.02694702148438 L56.677734375 197.02694702148438 L56.677734375 77.70234680175781 C56.677734375 76.34805297851562 55.57968521118164 75.25 54.224998474121094 75.25 Z"></path>
<path fill="#ffc365" fill-opacity="1.0"  filling="0" d="M92.4828109741211 95.97265625 L74.580078125 95.97265625 C73.22577667236328 95.97265625 72.12773132324219 97.07070922851562 72.12773132324219 98.42500305175781 L72.12773132324219 197.0265655517578 L94.9351577758789 197.0265655517578 L94.9351577758789 98.42500305175781 C94.9351577758789 97.07070922851562 93.8375015258789 95.97265625 92.4828109741211 95.97265625 Z"></path>
<path fill="#ffa90f" fill-opacity="1.0"  filling="0" d="M130.74063110351562 116.6957015991211 L112.837890625 116.6957015991211 C111.48359680175781 116.6957015991211 110.38555145263672 117.79374694824219 110.38555145263672 119.1484375 L110.38555145263672 197.02694702148438 L133.19296264648438 197.02694702148438 L133.19296264648438 119.14805603027344 C133.19296264648438 117.79374694824219 132.0949249267578 116.6957015991211 130.74063110351562 116.6957015991211 Z"></path>
<path fill="#ffc365" fill-opacity="1.0"  filling="0" d="M92.4828109741211 95.97265625 L74.580078125 95.97265625 C73.22577667236328 95.97265625 72.12773132324219 97.07070922851562 72.12773132324219 98.42500305175781 L72.12773132324219 197.0265655517578 L94.9351577758789 197.0265655517578 L94.9351577758789 98.42500305175781 C94.9351577758789 97.07070922851562 93.8375015258789 95.97265625 92.4828109741211 95.97265625 Z"></path>
<path fill="#ffc365" fill-opacity="1.0"  filling="0" d="M92.4828109741211 95.97265625 L74.580078125 95.97265625 C73.22577667236328 95.97265625 72.12773132324219 97.07070922851562 72.12773132324219 98.42500305175781 L72.12773132324219 197.0265655517578 L94.9351577758789 197.0265655517578 L94.9351577758789 98.42500305175781 C94.9351577758789 97.07070922851562 93.8375015258789 95.97265625 92.4828109741211 95.97265625 Z"></path>
<path fill="#f27182" fill-opacity="1.0"  filling="0" d="M168.99842834472656 137.4187469482422 L151.095703125 137.4187469482422 C149.7414093017578 137.4187469482422 148.64337158203125 138.5167999267578 148.64337158203125 139.87109375 L148.64337158203125 197.02694702148438 L171.45077514648438 197.02694702148438 L171.45077514648438 139.87109375 C171.45077514648438 138.5167999267578 170.35272216796875 137.4187469482422 168.99842834472656 137.4187469482422 Z"></path>
<path fill="#ffe02f" fill-opacity="1.0"  filling="0" d="M47.726173400878906 75.25 L36.322654724121094 75.25 C34.96797180175781 75.25 33.87031555175781 76.34805297851562 33.87031555175781 77.70234680175781 L33.87031555175781 197.02694702148438 L45.27422332763672 197.02694702148438 L45.27422332763672 77.70234680175781 C45.273826599121094 76.34765625 46.37187576293945 75.25 47.726173400878906 75.25 Z"></path>
<path fill="#ffb640" fill-opacity="1.0"  filling="0" d="M85.9839859008789 95.9730453491211 L74.5804672241211 95.9730453491211 C73.22577667236328 95.9730453491211 72.12812042236328 97.07109069824219 72.12812042236328 98.42538452148438 L72.12812042236328 197.02694702148438 L83.53202819824219 197.02694702148438 L83.53202819824219 98.42538452148438 C83.53164672851562 97.07070922851562 84.62968444824219 95.9730453491211 85.9839859008789 95.9730453491211 Z"></path>
<path fill="#ff9b00" fill-opacity="1.0"  filling="0" d="M124.24179077148438 116.6957015991211 L112.837890625 116.6957015991211 C111.48359680175781 116.6957015991211 110.38555145263672 117.79374694824219 110.38555145263672 119.14805603027344 L110.38555145263672 197.0265655517578 L121.78945922851562 197.0265655517578 L121.78945922851562 119.14805603027344 C121.78945922851562 117.79374694824219 122.88750457763672 116.6957015991211 124.24179077148438 116.6957015991211 Z"></path>
<path fill="#ed5469" fill-opacity="1.0"  filling="0" d="M162.49920654296875 137.4187469482422 L151.09530639648438 137.4187469482422 C149.7410125732422 137.4187469482422 148.64297485351562 138.5167999267578 148.64297485351562 139.87109375 L148.64297485351562 197.02694702148438 L160.046875 197.02694702148438 L160.046875 139.87109375 C160.046875 138.5167999267578 161.14492797851562 137.4187469482422 162.49920654296875 137.4187469482422 Z"></path>
<path fill="#dbedff" fill-opacity="1.0"  filling="0" d="M180.0496063232422 200.0 L25.271484375 200.0 C23.629295349121094 200.0 22.298439025878906 198.66876220703125 22.298439025878906 197.0265655517578 C22.298439025878906 195.38436889648438 23.62969207763672 194.05352783203125 25.271484375 194.05352783203125 L180.0496063232422 194.05352783203125 C181.69180297851562 194.05352783203125 183.02264404296875 195.384765625 183.02264404296875 197.0265655517578 C183.02264404296875 198.66876220703125 181.69140625 200.0 180.0496063232422 200.0 Z"></path>
<path fill="#ffe02f" fill-opacity="1.0"  filling="0" d="M31.133987426757812 29.468360900878906 C31.133987426757812 15.845314025878906 40.38046646118164 4.387107849121094 52.937889099121094 1.0128936767578125 C50.493751525878906 0.35585784912109375 47.92578125 0.0 45.273826599121094 0.0 C28.998825073242188 0.0 15.805473327636719 13.193359375 15.805473327636719 29.468360900878906 C15.805473327636719 45.74335861206055 28.999221801757812 58.93672180175781 45.273826599121094 58.93672180175781 C47.92578125 58.93672180175781 50.493751525878906 58.58085632324219 52.93828201293945 57.923828125 C40.38046646118164 54.54961013793945 31.133987426757812 43.09140396118164 31.133987426757812 29.468360900878906 Z"></path>
<path fill="#ed5469" fill-opacity="1.0"  filling="0" d="M182.5359344482422 99.341796875 L157.908203125 102.2125015258789 C156.3683624267578 102.39218139648438 155.21328735351562 101.03125762939453 155.43243408203125 99.64179229736328 L151.998046875 105.68006896972656 C151.0890655517578 107.27774047851562 152.38241577148438 109.23086547851562 154.2082061767578 109.0179672241211 L182.20858764648438 105.75391387939453 C183.71368408203125 105.57852172851562 184.61563110351562 103.99296569824219 183.99725341796875 102.609375 L182.5359344482422 99.341796875 Z"></path>
<path fill="#ed5469" fill-opacity="1.0"  filling="0" d="M156.05703735351562 98.2445297241211 L159.5632781982422 92.0796890258789 C159.98672485351562 91.33515167236328 159.7265625 90.388671875 158.98202514648438 89.96524047851562 L92.8167953491211 52.33281326293945 C90.5933609008789 51.068359375 89.2874984741211 48.806644439697266 89.1402359008789 46.420310974121094 C87.94804382324219 47.091793060302734 86.92578125 48.09882736206055 86.24530792236328 49.40702819824219 C84.43046569824219 52.89531326293945 85.6988296508789 57.19414520263672 89.1167984008789 59.13827896118164 L155.2820281982422 96.77070617675781 C155.82305908203125 97.078125 156.10391235351562 97.66250610351562 156.05703735351562 98.2445297241211 Z"></path>
<path fill="#ffa90f" fill-opacity="1.0"  filling="0" d="M48.24726486206055 26.846092224121094 L48.24726486206055 16.187110900878906 C50.137107849121094 17.126174926757812 51.42031478881836 18.928909301757812 51.42031478881836 20.996490478515625 C51.42031478881836 22.638671875 52.751564025878906 23.969528198242188 54.39335632324219 23.969528198242188 C56.03554916381836 23.969528198242188 57.36640548706055 22.638282775878906 57.36640548706055 20.996490478515625 C57.36640548706055 15.65625 53.482032775878906 11.159370422363281 48.24687194824219 9.901954650878906 L48.24687194824219 9.719917297363281 C48.24687194824219 8.077735900878906 46.915626525878906 6.746879577636719 45.273826599121094 6.746879577636719 C43.63163757324219 6.746879577636719 42.300392150878906 8.078125 42.300392150878906 9.719917297363281 L42.300392150878906 9.901954650878906 C37.06562423706055 11.159370422363281 33.18085479736328 15.65625 33.18085479736328 20.996490478515625 C33.18085479736328 26.336715698242188 37.06562423706055 30.833587646484375 42.300392150878906 32.09062957763672 L42.300392150878906 42.75 C40.41054153442383 41.810943603515625 39.127342224121094 40.00819778442383 39.127342224121094 37.94062042236328 C39.127342224121094 36.29844284057617 37.79609298706055 34.96757507324219 36.153907775878906 34.96757507324219 C34.51171875 34.96757507324219 33.18085479736328 36.298828125 33.18085479736328 37.94062042236328 C33.18085479736328 43.28086471557617 37.06562423706055 47.77773666381836 42.300392150878906 49.03515625 L42.300392150878906 49.21718978881836 C42.300392150878906 50.859375 43.63163757324219 52.19023132324219 45.273826599121094 52.19023132324219 C46.916019439697266 52.19023132324219 48.24687194824219 50.858985900878906 48.24687194824219 49.21718978881836 L48.24687194824219 49.03515625 C53.48163986206055 47.77773666381836 57.36640548706055 43.28086471557617 57.36640548706055 37.94062042236328 C57.36640548706055 32.60038757324219 53.482032775878906 28.103515625 48.24726486206055 26.846092224121094 Z M39.127342224121094 20.996490478515625 C39.127342224121094 18.928909301757812 40.41054153442383 17.126174926757812 42.300392150878906 16.187110900878906 L42.300392150878906 25.805465698242188 C40.41054153442383 24.866798400878906 39.127342224121094 23.063674926757812 39.127342224121094 20.996490478515625 Z M48.24726486206055 42.75 L48.24726486206055 33.131256103515625 C50.137107849121094 34.0703125 51.42031478881836 35.873046875 51.42031478881836 37.94062042236328 C51.42031478881836 40.0078125 50.137107849121094 41.810943603515625 48.24726486206055 42.75 Z"></path></svg>