<svg xmlns="http://www.w3.org/2000/svg" viewBox="0.0 0.0 200.0 200.0" height="200.0px" width="200.0px"><path fill="#FDDD85" fill-opacity="1.0"  filling="0" d="M129.9765625 84.82734680175781 L129.9765625 36.331642150878906 C129.9765625 17.884765625 115.02226257324219 2.9304656982421875 96.57539367675781 2.9304656982421875 L96.57539367675781 2.9304656982421875 C78.1285171508789 2.9304656982421875 63.174217224121094 17.884765625 63.174217224121094 36.331642150878906 L63.174217224121094 84.82734680175781 L76.9976577758789 84.82734680175781 L76.9976577758789 35.59062194824219 C76.9976577758789 24.77812957763672 85.76288604736328 16.01288604736328 96.57539367675781 16.01288604736328 L96.57539367675781 16.01288604736328 C107.38788604736328 16.01288604736328 116.15312194824219 24.77812957763672 116.15312194824219 35.59062194824219 L116.15312194824219 84.82695007324219 L129.9765625 84.82695007324219 L129.9765625 84.82734680175781 Z"></path>
<path fill="#EBEBEC" fill-opacity="1.0"  filling="0" d="M149.3445281982422 197.05624389648438 L43.80624771118164 197.05624389648438 C38.36679458618164 197.05624389648438 33.95703125 192.646484375 33.95703125 187.20703125 L33.95703125 93.95976257324219 C33.95703125 88.52030944824219 38.36679458618164 84.11054992675781 43.80624771118164 84.11054992675781 L149.3445281982422 84.11054992675781 C154.78399658203125 84.11054992675781 159.19375610351562 88.52030944824219 159.19375610351562 93.95976257324219 L159.19375610351562 187.20703125 C159.19375610351562 192.646484375 154.78399658203125 197.05624389648438 149.3445281982422 197.05624389648438 Z"></path>
<path fill="#D7D8D9" fill-opacity="1.0"  filling="0" d="M159.19296264648438 93.9609375 L159.19296264648438 187.20782470703125 C159.19296264648438 192.64688110351562 154.78594970703125 197.05780029296875 149.34295654296875 197.05780029296875 L129.8515625 197.05780029296875 C135.29061889648438 197.05780029296875 139.69766235351562 192.64688110351562 139.69766235351562 187.20782470703125 L139.69766235351562 93.9609375 C139.69766235351562 88.5218734741211 135.29061889648438 84.1109390258789 129.8515625 84.1109390258789 L149.34295654296875 84.1109390258789 C154.78594970703125 84.11054992675781 159.19296264648438 88.5218734741211 159.19296264648438 93.9609375 Z"></path>
<path fill="#3494D0" fill-opacity="1.0"  filling="0" d="M161.333984375 123.05000305175781 L126.01094055175781 123.05000305175781 C123.42070007324219 123.05000305175781 121.30117797851562 120.93046569824219 121.30117797851562 118.34022521972656 L121.30117797851562 105.7808609008789 C121.30117797851562 103.19062805175781 123.42070007324219 101.07109832763672 126.01094055175781 101.07109832763672 L161.333984375 101.07109832763672 C163.92422485351562 101.07109832763672 166.0437469482422 103.19062805175781 166.0437469482422 105.7808609008789 L166.0437469482422 118.34022521972656 C166.0437469482422 120.93046569824219 163.92422485351562 123.05000305175781 161.333984375 123.05000305175781 Z"></path>
<path fill="#3494D0" fill-opacity="1.0"  filling="0" d="M161.333984375 152.09335327148438 L126.01094055175781 152.09335327148438 C123.42070007324219 152.09335327148438 121.30117797851562 149.9738311767578 121.30117797851562 147.3835906982422 L121.30117797851562 134.82421875 C121.30117797851562 132.23399353027344 123.42070007324219 130.11444091796875 126.01094055175781 130.11444091796875 L161.333984375 130.11444091796875 C163.92422485351562 130.11444091796875 166.0437469482422 132.23399353027344 166.0437469482422 134.82421875 L166.0437469482422 147.3835906982422 C166.0437469482422 149.9738311767578 163.92422485351562 152.09335327148438 161.333984375 152.09335327148438 Z"></path>
<path fill="#3494D0" fill-opacity="1.0"  filling="0" d="M161.333984375 181.13633728027344 L126.01094055175781 181.13633728027344 C123.42070007324219 181.13633728027344 121.30117797851562 179.01678466796875 121.30117797851562 176.42657470703125 L121.30117797851562 163.8671875 C121.30117797851562 161.27694702148438 123.42070007324219 159.15740966796875 126.01094055175781 159.15740966796875 L161.333984375 159.15740966796875 C163.92422485351562 159.15740966796875 166.0437469482422 161.27694702148438 166.0437469482422 163.8671875 L166.0437469482422 176.42657470703125 C166.0437469482422 179.01718139648438 163.92422485351562 181.13633728027344 161.333984375 181.13633728027344 Z"></path>
<path fill="#0E80AD" fill-opacity="1.0"  filling="0" d="M166.0437469482422 105.77930450439453 L166.0437469482422 118.33866882324219 C166.0437469482422 120.92890930175781 163.92422485351562 123.0484390258789 161.333984375 123.0484390258789 L149.55975341796875 123.0484390258789 C152.14999389648438 123.0484390258789 154.26953125 120.92890930175781 154.26953125 118.33866882324219 L154.26953125 105.77930450439453 C154.26953125 103.1890640258789 152.14999389648438 101.06953430175781 149.55975341796875 101.06953430175781 L161.333984375 101.06953430175781 C163.92422485351562 101.06953430175781 166.0437469482422 103.1890640258789 166.0437469482422 105.77930450439453 Z"></path>
<path fill="#0E80AD" fill-opacity="1.0"  filling="0" d="M166.0437469482422 134.82266235351562 L166.0437469482422 147.3820343017578 C166.0437469482422 149.97225952148438 163.92422485351562 152.091796875 161.333984375 152.091796875 L149.55975341796875 152.091796875 C152.14999389648438 152.091796875 154.26953125 149.97225952148438 154.26953125 147.3820343017578 L154.26953125 134.82266235351562 C154.26953125 132.232421875 152.14999389648438 130.11288452148438 149.55975341796875 130.11288452148438 L161.333984375 130.11288452148438 C163.92422485351562 130.11288452148438 166.0437469482422 132.232421875 166.0437469482422 134.82266235351562 Z"></path>
<path fill="#0E80AD" fill-opacity="1.0"  filling="0" d="M166.0437469482422 163.86602783203125 L166.0437469482422 176.42538452148438 C166.0437469482422 179.015625 163.92422485351562 181.13516235351562 161.333984375 181.13516235351562 L149.55975341796875 181.13516235351562 C152.14999389648438 181.13516235351562 154.26953125 179.015625 154.26953125 176.42538452148438 L154.26953125 163.86602783203125 C154.26953125 161.27578735351562 152.14999389648438 159.15625 149.55975341796875 159.15625 L161.333984375 159.15625 C163.92422485351562 159.15625 166.0437469482422 161.27578735351562 166.0437469482422 163.86602783203125 Z"></path>
<path fill="" fill-opacity="1.0"  filling="0" d="M168.9871063232422 118.34022521972656 L168.9871063232422 105.7808609008789 C168.9871063232422 101.83242797851562 165.98086547851562 98.57344055175781 162.13711547851562 98.1703109741211 L162.13711547851562 93.95976257324219 C162.13711547851562 86.9058609008789 156.3984375 81.16718292236328 149.34414672851562 81.16718292236328 L132.919921875 81.16718292236328 L132.919921875 36.34492111206055 C132.92031860351562 16.304298400878906 116.61563110351562 0.0 96.57499694824219 0.0 C76.53437042236328 0.0 60.23007583618164 16.304298400878906 60.23007583618164 36.34492111206055 L60.23007583618164 50.109375 C60.23007583618164 51.73515701293945 61.54765319824219 53.053123474121094 63.173831939697266 53.053123474121094 C64.80000305175781 53.053123474121094 66.11758422851562 51.73554229736328 66.11758422851562 50.109375 L66.11758422851562 36.34492111206055 C66.11758422851562 19.550392150878906 79.7808609008789 5.887107849121094 96.57539367675781 5.887107849121094 C113.36991882324219 5.887107849121094 127.03319549560547 19.550392150878906 127.03319549560547 36.34492111206055 L127.03319549560547 81.16718292236328 L119.09687805175781 81.16718292236328 L119.09687805175781 35.603904724121094 C119.09687805175781 23.185546875 108.99374389648438 13.082420349121094 96.57539367675781 13.082420349121094 C84.15702819824219 13.082420349121094 74.05390930175781 23.185546875 74.05390930175781 35.603904724121094 L74.05390930175781 81.16718292236328 L66.1171875 81.16718292236328 L66.1171875 71.82656860351562 C66.1171875 70.2007827758789 64.79960632324219 68.8828125 63.173439025878906 68.8828125 C61.54726791381836 68.8828125 60.22969055175781 70.20039367675781 60.22969055175781 71.82656860351562 L60.22969055175781 81.16718292236328 L43.80546951293945 81.16718292236328 C36.75117492675781 81.16718292236328 31.012496948242188 86.9058609008789 31.012496948242188 93.95976257324219 L31.012496948242188 187.20703125 C31.012496948242188 194.26132202148438 36.75117492675781 200.0 43.80546951293945 200.0 L104.5546875 200.0 C106.18046569824219 200.0 107.49844360351562 198.68243408203125 107.49844360351562 197.05624389648438 C107.49844360351562 195.4304656982422 106.18086242675781 194.1125030517578 104.5546875 194.1125030517578 L43.80624771118164 194.1125030517578 C39.998435974121094 194.1125030517578 36.900390625 191.01446533203125 36.900390625 187.20663452148438 L36.900390625 93.95976257324219 C36.900390625 90.1519546508789 39.998435974121094 87.05429077148438 43.80624771118164 87.05429077148438 L149.34375 87.05429077148438 C153.15155029296875 87.05429077148438 156.24960327148438 90.1519546508789 156.24960327148438 93.95976257324219 L156.24960327148438 98.1273422241211 L126.01055145263672 98.1273422241211 C121.79061889648438 98.1273422241211 118.357421875 101.5609359741211 118.357421875 105.78047180175781 L118.357421875 118.33984375 C118.357421875 122.55976104736328 121.791015625 125.99296569824219 126.01055145263672 125.99296569824219 L156.25 125.99296569824219 L156.25 127.1703109741211 L126.01094055175781 127.1703109741211 C121.791015625 127.1703109741211 118.3578109741211 130.60391235351562 118.3578109741211 134.82382202148438 L118.3578109741211 147.38320922851562 C118.3578109741211 151.60311889648438 121.79141235351562 155.0363311767578 126.01094055175781 155.0363311767578 L156.25 155.0363311767578 L156.25 156.21368408203125 L126.01094055175781 156.21368408203125 C121.791015625 156.21368408203125 118.3578109741211 159.6472625732422 118.3578109741211 163.86679077148438 L118.3578109741211 176.42617797851562 C118.3578109741211 180.64608764648438 121.79141235351562 184.0792999267578 126.01094055175781 184.0792999267578 L156.25 184.0792999267578 L156.25 187.20623779296875 C156.25 191.01406860351562 153.15194702148438 194.1121063232422 149.34414672851562 194.1121063232422 L125.48828125 194.1121063232422 C123.86250305175781 194.1121063232422 122.54452514648438 195.4296875 122.54452514648438 197.0558624267578 C122.54452514648438 198.681640625 123.86211395263672 199.99960327148438 125.48828125 199.99960327148438 L149.3445281982422 199.99960327148438 C156.39883422851562 199.99960327148438 162.1374969482422 194.2609405517578 162.1374969482422 187.20663452148438 L162.1374969482422 184.03671264648438 C165.9812469482422 183.63397216796875 168.9875030517578 180.375 168.9875030517578 176.42617797851562 L168.9875030517578 163.86679077148438 C168.9875030517578 159.91836547851562 165.9812469482422 156.6593780517578 162.1374969482422 156.25625610351562 L162.1374969482422 154.99298095703125 C165.9812469482422 154.59024047851562 168.9875030517578 151.33123779296875 168.9875030517578 147.38243103027344 L168.9875030517578 134.82421875 C168.9875030517578 130.8757781982422 165.9812469482422 127.6167984008789 162.1374969482422 127.21366882324219 L162.1374969482422 125.95039367675781 C165.98086547851562 125.54766082763672 168.9871063232422 122.28866577148438 168.9871063232422 118.34022521972656 Z M79.94062042236328 35.603904724121094 C79.94062042236328 26.431640625 87.40274047851562 18.969528198242188 96.57499694824219 18.969528198242188 C105.74726867675781 18.969528198242188 113.20938110351562 26.431640625 113.20938110351562 35.603904724121094 L113.20938110351562 81.16718292236328 L79.94062042236328 81.16718292236328 L79.94062042236328 35.603904724121094 L79.94062042236328 35.603904724121094 Z M124.24491882324219 118.34022521972656 L124.24491882324219 105.7808609008789 C124.24491882324219 104.82343292236328 125.05351257324219 104.01484680175781 126.01094055175781 104.01484680175781 L161.333984375 104.01484680175781 C162.29141235351562 104.01484680175781 163.10000610351562 104.82343292236328 163.10000610351562 105.7808609008789 L163.10000610351562 118.34022521972656 C163.10000610351562 119.29766082763672 162.29141235351562 120.10624694824219 161.333984375 120.10624694824219 L126.01094055175781 120.10624694824219 C125.05390930175781 120.10624694824219 124.24491882324219 119.29766082763672 124.24491882324219 118.34022521972656 Z M163.10000610351562 163.86758422851562 L163.10000610351562 176.4269561767578 C163.10000610351562 177.38436889648438 162.29141235351562 178.19296264648438 161.333984375 178.19296264648438 L126.01094055175781 178.19296264648438 C125.05351257324219 178.19296264648438 124.24491882324219 177.38436889648438 124.24491882324219 176.4269561767578 L124.24491882324219 163.86758422851562 C124.24491882324219 162.91015625 125.05351257324219 162.1015625 126.01094055175781 162.1015625 L161.333984375 162.1015625 C162.29141235351562 162.1015625 163.10000610351562 162.91015625 163.10000610351562 163.86758422851562 Z M163.10000610351562 134.82421875 L163.10000610351562 147.3835906982422 C163.10000610351562 148.34100341796875 162.29141235351562 149.1496124267578 161.333984375 149.1496124267578 L126.01094055175781 149.1496124267578 C125.05351257324219 149.1496124267578 124.24491882324219 148.34100341796875 124.24491882324219 147.3835906982422 L124.24491882324219 134.82421875 C124.24491882324219 133.86679077148438 125.05351257324219 133.05819702148438 126.01094055175781 133.05819702148438 L161.333984375 133.05819702148438 C162.29141235351562 133.05819702148438 163.10000610351562 133.86679077148438 163.10000610351562 134.82421875 Z"></path></svg>