<svg xmlns="http://www.w3.org/2000/svg" viewBox="0.0 0.0 200.0 200.0" height="200.0px" width="200.0px"><path fill="#FFD278" fill-opacity="1.0"  filling="0" d="M50.201171875 156.25 C48.15195083618164 156.25 46.484375 154.5828094482422 46.484375 152.53359985351562 L46.484375 136.71875 L63.28125 136.71875 L63.28125 152.53359985351562 C63.28125 154.5828094482422 61.61367416381836 156.25 59.564453125 156.25 L50.201171875 156.25 Z"></path>
<path fill="#FFBF4D" fill-opacity="1.0"  filling="0" d="M54.8828125 152.53359985351562 L54.8828125 136.71875 L46.484375 136.71875 L46.484375 152.53359985351562 C46.484375 154.5828094482422 48.15195083618164 156.25 50.201171875 156.25 L58.599609375 156.25 C56.55038833618164 156.25 54.8828125 154.5828094482422 54.8828125 152.53359985351562 Z"></path>
<path fill="#ABAAB0" fill-opacity="1.0"  filling="0" d="M37.48906326293945 62.109375 L36.69062805175781 61.562503814697266 C27.902732849121094 55.54140853881836 22.65625 45.59687423706055 22.65625 34.9609375 C22.65625 17.191017150878906 37.113285064697266 2.734375 54.8828125 2.734375 C72.65234375 2.734375 87.109375 17.191017150878906 87.109375 34.9609375 C87.109375 45.59687423706055 81.8628921508789 55.54140853881836 73.07500457763672 61.562503814697266 L72.27656555175781 62.109375 L37.48906326293945 62.109375 Z"></path>
<path fill="#929296" fill-opacity="1.0"  filling="0" d="M36.27499771118164 34.9609375 C36.27499771118164 19.52734375 47.18281173706055 6.599220275878906 61.69219207763672 3.46484375 C59.495704650878906 2.990631103515625 57.21914291381836 2.734375 54.8828125 2.734375 C37.113285064697266 2.734375 22.65625 17.191017150878906 22.65625 34.9609375 C22.65625 45.59687423706055 27.902732849121094 55.54140853881836 36.69062805175781 61.562503814697266 L37.48906326293945 62.109375 L51.107810974121094 62.109375 L50.30937957763672 61.562503814697266 C41.521095275878906 55.54140853881836 36.27499771118164 45.59687423706055 36.27499771118164 34.9609375 Z"></path>
<path fill="#676775" fill-opacity="1.0"  filling="0" d="M48.359375 142.578125 C44.34453201293945 142.578125 41.025386810302734 139.4375 40.80351638793945 135.4285125732422 L37.48906326293945 75.390625 L72.2769546508789 75.390625 L68.96211242675781 135.4285125732422 C68.740234375 139.43789672851562 65.4214859008789 142.578125 61.40625 142.578125 L48.359375 142.578125 Z"></path>
<path fill="#4C4C59" fill-opacity="1.0"  filling="0" d="M72.27656555175781 75.390625 L47.715232849121094 75.390625 L37.48867416381836 75.390625 L40.803123474121094 135.4285125732422 C41.025001525878906 139.4375 44.344139099121094 142.578125 48.359375 142.578125 L58.5859375 142.578125 C54.57109069824219 142.578125 51.251953125 139.4375 51.03007507324219 135.4285125732422 L48.27656173706055 85.55390930175781 C48.21797180175781 84.48906707763672 49.06523132324219 83.59335327148438 50.13164138793945 83.59335327148438 L71.8238296508789 83.59335327148438 L72.27656555175781 75.390625 Z"></path>
<path fill="#FF3F62" fill-opacity="1.0"  filling="0" d="M54.8828125 110.9375 C52.40585708618164 110.9375 50.390625 108.9222640991211 50.390625 106.4453125 L50.390625 93.1640625 C50.390625 90.6871109008789 52.40585708618164 88.671875 54.8828125 88.671875 C57.35976791381836 88.671875 59.375 90.6871109008789 59.375 93.1640625 L59.375 106.4453125 C59.375 108.9222640991211 57.35976791381836 110.9375 54.8828125 110.9375 Z"></path>
<path fill="#FFD278" fill-opacity="1.0"  filling="0" d="M37.109375 75.78125 C33.232421875 75.78125 30.078125 72.626953125 30.078125 68.75 C30.078125 64.873046875 33.232421875 61.71875 37.109375 61.71875 L72.65625 61.71875 C76.533203125 61.71875 79.6875 64.873046875 79.6875 68.75 C79.6875 72.626953125 76.533203125 75.78125 72.65625 75.78125 L37.109375 75.78125 Z"></path>
<path fill="#FFBF4D" fill-opacity="1.0"  filling="0" d="M43.69687271118164 68.75 C43.69687271118164 64.873046875 46.85116958618164 61.71875 50.72812271118164 61.71875 L37.109375 61.71875 C33.232421875 61.71875 30.078125 64.873046875 30.078125 68.75 C30.078125 72.626953125 33.232421875 75.78125 37.109375 75.78125 L50.72812271118164 75.78125 C46.85116958618164 75.78125 43.69687271118164 72.626953125 43.69687271118164 68.75 Z"></path>
<path fill="#535257" fill-opacity="1.0"  filling="0" d="M165.4453125 121.875 C162.744140625 121.875 160.546875 119.677734375 160.546875 116.97618103027344 L160.546875 108.0078125 C160.546875 103.37694549560547 164.314453125 99.609375 168.9453125 99.609375 C173.576171875 99.609375 177.34375 103.37694549560547 177.34375 108.0078125 L177.34375 116.97618103027344 C177.34375 119.67733764648438 175.146484375 121.875 172.4453125 121.875 L165.4453125 121.875 Z"></path>
<path fill="#2B2B2E" fill-opacity="1.0"  filling="0" d="M168.05313110351562 116.97618103027344 L168.05313110351562 108.0078125 C168.05313110351562 104.7265625 169.94882202148438 101.88671112060547 172.6984405517578 100.5054702758789 C171.56719970703125 99.9371109008789 170.29531860351562 99.609375 168.9453125 99.609375 C164.314453125 99.609375 160.546875 103.37694549560547 160.546875 108.0078125 L160.546875 116.97618103027344 C160.546875 119.67733764648438 162.744140625 121.875 165.4453125 121.875 L172.4453125 121.875 C172.53085327148438 121.875 172.6140594482422 121.86640930175781 172.6984405517578 121.86211395263672 C170.115234375 121.72930145263672 168.05313110351562 119.59219360351562 168.05313110351562 116.97618103027344 Z"></path>
<path fill="#929296" fill-opacity="1.0"  filling="0" d="M72.73906707763672 23.949996948242188 L69.40312194824219 20.61406707763672 C68.14961242675781 19.360939025878906 66.11758422851562 19.360939025878906 64.86445617675781 20.61406707763672 L61.52851486206055 23.949996948242188 C60.275386810302734 25.20311737060547 60.275386810302734 27.23554229736328 61.52851486206055 28.488670349121094 L64.86445617675781 31.824615478515625 C66.11758422851562 33.077735900878906 68.1500015258789 33.077735900878906 69.40312194824219 31.824615478515625 L72.73906707763672 28.488670349121094 C73.9921875 27.235153198242188 73.9921875 25.20311737060547 72.73906707763672 23.949996948242188 Z"></path>
<path fill="#929296" fill-opacity="1.0"  filling="0" d="M72.73906707763672 43.4453125 L69.40312194824219 40.109371185302734 C68.14961242675781 38.85625076293945 66.11758422851562 38.85625076293945 64.86445617675781 40.109371185302734 L61.52851486206055 43.4453125 C60.275386810302734 44.69844055175781 60.275386810302734 46.730857849121094 61.52851486206055 47.983978271484375 L64.86445617675781 51.31991958618164 C66.11758422851562 52.57304763793945 68.1500015258789 52.57304763793945 69.40312194824219 51.31991958618164 L72.73906707763672 47.983978271484375 C73.9921875 46.730857849121094 73.9921875 44.698829650878906 72.73906707763672 43.4453125 Z"></path>
<path fill="#929296" fill-opacity="1.0"  filling="0" d="M57.22187805175781 33.325782775878906 L53.88593673706055 29.989845275878906 C52.63241958618164 28.736724853515625 50.60039138793945 28.736724853515625 49.34727096557617 29.989845275878906 L46.011329650878906 33.325782775878906 C44.758201599121094 34.57891082763672 44.758201599121094 36.611331939697266 46.011329650878906 37.86445236206055 L49.34727096557617 41.20038604736328 C50.60039138793945 42.453514099121094 52.632816314697266 42.453514099121094 53.88593673706055 41.20038604736328 L57.22187805175781 37.86445236206055 C58.474998474121094 36.610939025878906 58.474998474121094 34.57891082763672 57.22187805175781 33.325782775878906 Z"></path>
<path fill="" fill-opacity="1.0"  filling="0" d="M62.109375 93.1640625 C62.109375 89.1792984008789 58.86758041381836 85.9375 54.8828125 85.9375 C50.89804458618164 85.9375 47.65625 89.1792984008789 47.65625 93.1640625 L47.65625 106.4453125 C47.65625 110.4300765991211 50.89804458618164 113.671875 54.8828125 113.671875 C58.86758041381836 113.671875 62.109375 110.4300765991211 62.109375 106.4453125 L62.109375 93.1640625 Z M56.25 106.4453125 C56.25 107.19921875 55.636714935302734 107.8125 54.8828125 107.8125 C54.128910064697266 107.8125 53.515625 107.19921875 53.515625 106.4453125 L53.515625 93.1640625 C53.515625 92.41015625 54.128910064697266 91.796875 54.8828125 91.796875 C55.636714935302734 91.796875 56.25 92.41015625 56.25 93.1640625 L56.25 106.4453125 Z"></path>
<path fill="" fill-opacity="1.0"  filling="0" d="M171.875 97.2691421508789 L171.875 87.31523132324219 C171.875 70.00312042236328 158.05117797851562 55.638282775878906 140.740234375 55.47031021118164 C123.2593765258789 55.300785064697266 108.984375 69.47187805175781 108.984375 86.9140625 L108.984375 168.16641235351562 C108.984375 182.20703125 97.83476257324219 193.923828125 83.79531860351562 194.13751220703125 C69.50625610351562 194.35546875 57.8125 182.794921875 57.8125 168.5546875 L57.8125 158.984375 L59.564453125 158.984375 C63.12734603881836 158.984375 66.015625 156.09608459472656 66.015625 152.533203125 L66.015625 144.2218780517578 C69.21914672851562 142.615234375 71.48164367675781 139.3859405517578 71.69140625 135.5792999267578 L72.4195327758789 122.39335632324219 C72.5121078491211 120.71444702148438 71.17578125 119.3023452758789 69.49453735351562 119.3023452758789 L69.49453735351562 119.3023452758789 C67.939453125 119.3023452758789 66.65507507324219 120.517578125 66.56953430175781 122.0703125 L65.8414077758789 135.25625610351562 C65.7113265991211 137.60977172851562 63.76327896118164 139.453125 61.40625 139.453125 L48.359375 139.453125 C46.002342224121094 139.453125 44.05429458618164 137.609375 43.924217224121094 135.25625610351562 L40.791404724121094 78.515625 L68.9742202758789 78.515625 L67.51094055175781 105.015625 C67.41836547851562 106.69453430175781 68.75468444824219 108.10663604736328 70.4359359741211 108.10663604736328 L70.4359359741211 108.10663604736328 C71.99101257324219 108.10663604736328 73.275390625 106.89140319824219 73.3609390258789 105.33866882324219 L74.85624694824219 78.26250457763672 C79.18476867675781 77.26171875 82.421875 73.37812805175781 82.421875 68.75 C82.421875 65.50234985351562 80.82695770263672 62.62148666381836 78.3804702758789 60.84492111206055 C85.630859375 54.263668060302734 89.84375 44.904296875 89.84375 34.9609375 C89.84375 15.683204650878906 74.1605453491211 0.0 54.8828125 0.0 C35.605079650878906 0.0 19.921875 15.683204650878906 19.921875 34.9609375 C19.921875 44.904296875 24.134765625 54.263668060302734 31.385162353515625 60.84492111206055 C28.938674926757812 62.62148666381836 27.34375 65.50234985351562 27.34375 68.75 C27.34375 73.37812805175781 30.58086395263672 77.26171875 34.90898895263672 78.26250457763672 L38.07382583618164 135.5792999267578 C38.28398513793945 139.3859405517578 40.54648971557617 142.615234375 43.75 144.2218780517578 L43.75 152.53359985351562 C43.75 156.0964813232422 46.63827896118164 158.984375 50.200782775878906 158.984375 L51.953125 158.984375 L51.953125 168.15350341796875 C51.953125 185.4656219482422 65.7769546508789 199.83047485351562 83.087890625 199.99844360351562 C100.5687484741211 200.16796875 114.84375 185.99688720703125 114.84375 168.5546875 L114.84375 87.3023452758789 C114.84375 73.26132202148438 125.99336242675781 61.544918060302734 140.03280639648438 61.33124923706055 C154.32186889648438 61.11328125 166.015625 72.673828125 166.015625 86.9140625 L166.015625 97.2691421508789 C161.2941436767578 98.55859375 157.8125 102.88320922851562 157.8125 108.0078125 L157.8125 116.97618103027344 C157.8125 121.19180297851562 161.23007202148438 124.609375 165.44569396972656 124.609375 L166.015625 124.609375 L166.015625 130.93203735351562 C166.015625 132.5363311767578 167.251953125 133.93515014648438 168.85546875 133.98321533203125 C170.5144500732422 134.03280639648438 171.875 132.70272827148438 171.875 131.0546875 L171.875 124.609375 L172.4453125 124.609375 C176.66094970703125 124.609375 180.078125 121.19219207763672 180.078125 116.9765625 L180.078125 108.0078125 C180.078125 102.88320922851562 176.59649658203125 98.55859375 171.875 97.2691421508789 Z M25.78125 34.9609375 C25.78125 18.9140625 38.83632278442383 5.859375 54.8828125 5.859375 C70.92929077148438 5.859375 83.984375 18.9140625 83.984375 34.9609375 C83.984375 44.580078125 79.24844360351562 53.544532775878906 71.3089828491211 58.984375 L38.456642150878906 58.984375 C30.517181396484375 53.544532775878906 25.78125 44.580078125 25.78125 34.9609375 Z M37.109375 72.65625 C34.955467224121094 72.65625 33.203125 70.9039077758789 33.203125 68.75 C33.203125 66.5960922241211 34.955467224121094 64.84375 37.109375 64.84375 L72.65625 64.84375 C74.8101577758789 64.84375 76.5625 66.5960922241211 76.5625 68.75 C76.5625 70.9039077758789 74.8101577758789 72.65625 72.65625 72.65625 L37.109375 72.65625 Z M50.201171875 153.125 C49.874996185302734 153.125 49.609375 152.85977172851562 49.609375 152.53359985351562 L49.609375 145.3125 L60.15625 145.3125 L60.15625 152.53359985351562 C60.15625 152.85977172851562 59.890628814697266 153.125 59.564453125 153.125 L50.201171875 153.125 Z M174.21875 116.97618103027344 C174.21875 117.95391082763672 173.4230499267578 118.75 172.4453125 118.75 L165.4453125 118.75 C164.4675750732422 118.75 163.671875 117.95429992675781 163.671875 116.97618103027344 L163.671875 108.0078125 C163.671875 105.0999984741211 166.03750610351562 102.734375 168.9453125 102.734375 C171.85311889648438 102.734375 174.21875 105.0999984741211 174.21875 108.0078125 L174.21875 116.97618103027344 L174.21875 116.97618103027344 Z"></path>
<path fill="" fill-opacity="1.0"  filling="0" d="M58.203125 123.6328125 A3.3203125 3.3203125 0.0 1 1 51.5625 123.6328125 A3.3203125 3.3203125 0.0 1 1 58.203125 123.6328125 Z"></path></svg>