<svg xmlns="http://www.w3.org/2000/svg" viewBox="0.0 0.0 200.0 200.0" height="200.0px" width="200.0px"><path fill="#c6a575" fill-opacity="1.0"  filling="0" d="M173.875 110.76171112060547 L173.87109375 110.765625 A66.2542953491211 66.2542953491211 0.0 0 0 168.23046875 116.02734375 A1.6140625476837158 1.6140625476837158 0.0 0 1 165.66796875 115.76171875 C165.03515625 114.67578125 165.41796875 111.67578887939453 165.41796875 111.67578887939453 C165.9453125 108.67188262939453 160.60546875 106.28124237060547 160.43359375 106.20703887939453 C163.0234375 105.296875 165.44140625 104.58203887939453 167.33984375 104.85546875 C170.0625 105.24609375 171.84765625 107.8828125 173.875 110.76171112060547 Z"></path>
<path fill="#c6a575" fill-opacity="1.0"  filling="0" d="M141.73828125 101.83984375 L141.734375 101.83984375 C127.65234375 106.30859375 122.15234375 95.296875 122.15234375 95.296875 L122.15234375 95.29296875 C123.046875 95.02734375 123.95702362060547 94.80078125 124.875 94.61328125 C128.2265625 93.93359375 133.546875 93.77734375 135.828125 94.6953125 L135.83203125 94.6953125 A43.923439025878906 43.923439025878906 0.0 0 1 141.73828125 101.83984375 Z"></path>
<path fill="#c6a575" fill-opacity="1.0"  filling="0" d="M54.3828125 92.16015625 C57.05078125 97.59375 56.960941314697266 99.65234375 59.0625 101.83984375 C59.0625 101.83984375 55.64453125 107.69140625 41.878902435302734 108.86328125 C29.265625 109.93359375 19.046875 118.94921875 15.7578125 122.58203125 A3.692578077316284 3.692578077316284 0.0 0 1 13.87109375 123.703125 L7.77734375 125.13671875 A2.8156251907348633 2.8156251907348633 0.0 0 1 4.46484375 121.46875 C5.67578125 118.10936737060547 8.3046875 113.56640625 14.01171875 110.01563262939453 C24.36328125 103.57421875 24.36328125 103.57421875 31.24609375 100.734375 C39.98828125 97.1328125 52.792964935302734 90.01171875 52.792964935302734 90.01171875 L52.8203125 89.984375 A8.245312690734863 8.245312690734863 0.0 0 1 54.3828125 92.16015625 Z"></path>
<path fill="#e2bc7f" fill-opacity="1.0"  filling="0" d="M155.0625 74.73828125 C157.5703125 75.19921875 161.77734375 76.46875 167.07421875 79.94921875 C184.0703125 91.1171875 194.00390625 74.39453125 195.44921875 70.6015625 C196.89453125 66.80859375 191.890625 59.171875 186.546875 69.50390625 C181.203125 79.8359375 171.08203125 72.171875 160.73046875 67.28125 A22.183984756469727 22.183984756469727 0.0 0 0 143.16015625 66.6015625 A4.473046779632568 4.473046779632568 0.0 0 1 140.0859375 66.67578125 C136.5625 65.4765625 127.59375762939453 63.242183685302734 117.99609375 67.27734375 C105.64453887939453 72.47265625 93.34375 71.0859375 93.34375 71.0859375 L93.33984375 71.0859375 C88.69140625 61.0859375 82.0078125 67.46484375 75.453125 64.30859375 C70.42578125 61.890625 58.82421875 61.074222564697266 51.54296875 60.796875 C46.22265625 60.59375 40.140628814697266 61.22265625 36.640625 65.2265625 C33.15234375 69.21875 34.32421875 68.22265625 32.6328125 72.5703125 C31.40234375 75.73046875 31.1171875 75.8984375 29.04296875 77.30859375 C25.625 79.625 26.40234375 84.0 31.9765625 85.94140625 C32.80078125 86.2265625 32.484375 91.53515625 38.027347564697266 87.40625 C40.781246185302734 85.35546875 48.789058685302734 85.90234375 52.8203125 89.984375 A8.245312690734863 8.245312690734863 0.0 0 1 54.3828125 92.16015625 C57.05078125 97.59375 56.960941314697266 99.65234375 59.0625 101.83984375 C59.92578125 102.74217987060547 61.16796875 103.6640625 63.12890625 104.85546875 A23.53125 23.53125 0.0 0 0 63.640625 108.42578125 L35.8515625 130.6640625 A2.578125 2.578125 0.0 0 1 34.28125 131.234375 C32.48046875 131.265625 28.1796875 131.62890625 25.0546875 134.21484375 A2.590625047683716 2.590625047683716 0.0 0 0 26.609375 138.796875 L37.699222564697266 139.234375 A2.569140672683716 2.569140672683716 0.0 0 0 39.44140625 138.65625 C42.148433685302734 136.44921875 51.59375 129.01171875 57.417972564697266 127.55859375 C63.49609375 126.0390625 75.375 122.73828125 79.1875 108.86328125 L79.19140625 108.86328125 C79.19140625 108.86328125 96.38671875 112.92186737060547 109.20703125 102.30859375 A36.69843673706055 36.69843673706055 0.0 0 1 122.15234375 95.29296875 C123.046875 95.02734375 123.95702362060547 94.80078125 124.875 94.61328125 C128.2265625 93.93359375 133.546875 93.77734375 135.828125 94.6953125 L135.83203125 94.6953125 A43.923439025878906 43.923439025878906 0.0 0 1 141.73828125 101.83984375 A28.838672637939453 28.838672637939453 0.0 0 1 143.4609375 104.85546875 C146.84375 111.7265625 154.1484375 108.40234375 160.43359375 106.20703887939453 C163.0234375 105.296875 165.44140625 104.58203887939453 167.33984375 104.85546875 C170.0625 105.24609375 171.84765625 107.8828125 173.875 110.76171112060547 C176.359375 114.30077362060547 179.21484375 118.19921875 184.62890625 118.7265625 A7.193750381469727 7.193750381469727 0.0 0 0 189.3828125 117.59375 C191.609375 116.078125 193.26953125 112.9296875 184.61328125 107.3203125 C176.97265625 102.3671875 177.35546875 95.078125 173.8046875 94.0546875 C170.25390625 93.03125 159.76953125 98.9453125 158.640625 87.1875 A20.026952743530273 20.026952743530273 0.0 0 0 154.1328125 76.28125 A0.9609375 0.9609375 0.0 0 1 155.0625 74.73828125 Z"></path>
<path fill="#f2cd97" fill-opacity="1.0"  filling="0" d="M31.9765625 85.94140625 C32.80078125 86.2265625 32.484375 91.53515625 38.027347564697266 87.40625 C39.248050689697266 86.49726867675781 41.50078201293945 86.0999984741211 43.98163986206055 86.29296875 C43.89531707763672 86.1097640991211 43.80546951293945 85.98046875 43.6953125 85.94140625 C38.12109375 84.0 37.343753814697266 79.625 40.761722564697266 77.30859375 C42.8359375 75.8984375 43.12109375 75.73046875 44.351566314697266 72.5703125 C46.04296875 68.22265625 44.87109375 69.21875 48.359375 65.2265625 C50.51483917236328 62.76055145263672 53.650779724121094 61.577735900878906 56.98359680175781 61.078125 C55.034767150878906 60.94921875 53.179298400878906 60.859375 51.54296875 60.796875 C46.22265625 60.59375 40.140628814697266 61.22265625 36.640625 65.2265625 C33.15234375 69.21875 34.32421875 68.22265625 32.6328125 72.5703125 C31.40234375 75.73046875 31.1171875 75.8984375 29.04296875 77.30859375 C25.625 79.625 26.40234375 84.0 31.9765625 85.94140625 Z"></path>
<path fill="#f2cd97" fill-opacity="1.0"  filling="0" d="M74.22772979736328 104.69140625 A3.053515672683716 3.053515672683716 0.0 0 0 73.43281555175781 103.95976257324219 A15.483983993530273 15.483983993530273 0.0 0 1 70.78125 101.83984375 C68.6796875 99.65234375 68.76953125 97.59375 66.1015625 92.16015625 A8.245312690734863 8.245312690734863 0.0 0 0 64.5390625 89.984375 C60.507808685302734 85.90234375 52.499996185302734 85.35546875 49.746097564697266 87.40625 C49.62382888793945 87.4976577758789 49.50741958618164 87.5785140991211 49.390625 87.66093444824219 A11.441797256469727 11.441797256469727 0.0 0 1 52.8203125 89.984375 A8.245312690734863 8.245312690734863 0.0 0 1 54.3828125 92.16015625 C57.05078125 97.59375 56.960941314697266 99.65234375 59.0625 101.83984375 C59.92578125 102.74217987060547 61.16796875 103.6640625 63.12890625 104.85546875 A23.53125 23.53125 0.0 0 0 63.640625 108.42578125 L35.8515625 130.6640625 A2.578125 2.578125 0.0 0 1 34.28125 131.234375 C32.48046875 131.265625 28.1796875 131.62890625 25.0546875 134.21484375 A2.590625047683716 2.590625047683716 0.0 0 0 26.609375 138.796875 L37.699222564697266 139.234375 L38.027347564697266 138.84375 A103.9281234741211 103.9281234741211 0.0 0 1 58.93046951293945 119.8828125 L73.60897827148438 109.82852172851562 A3.706249952316284 3.706249952316284 0.0 0 0 74.22772979736328 104.69140625 Z"></path>
<path fill="#c6a575" fill-opacity="1.0"  filling="0" d="M61.562503814697266 67.48046875 C60.45234298706055 65.62812805175781 58.164058685302734 64.72695922851562 54.726566314697266 64.76953125 A24.10820198059082 24.10820198059082 0.0 0 0 50.667972564697266 65.205078125 A2.34375 2.34375 0.0 0 0 48.85234069824219 67.9742202758789 L55.00312423706055 78.0132827758789 A2.34375 2.34375 0.0 0 0 58.304298400878906 77.7183609008789 C60.65078353881836 74.90937805175781 63.544921875 70.791015625 61.562503814697266 67.48046875 Z"></path></svg>