<svg xmlns="http://www.w3.org/2000/svg" viewBox="0.0 0.0 200.0 200.0" height="200.0px" width="200.0px"><path fill="#F06151" fill-opacity="1.0"  filling="0" d="M155.818359375 3.5251312255859375 L51.53156661987305 3.5251312255859375 L3.1350784301757812 52.23397445678711 L3.1350784301757812 180.87518310546875 C3.1350784301757812 189.30569458007812 10.004188537597656 196.48715209960938 18.747039794921875 196.48715209960938 L155.818359375 196.48715209960938 C164.24887084960938 196.48715209960938 171.43032836914062 189.6180419921875 171.43032836914062 180.87518310546875 L171.43032836914062 19.13709259033203 C171.1179656982422 10.706588745117188 164.24887084960938 3.5251312255859375 155.818359375 3.5251312255859375 Z"></path>
<path fill="#183651" fill-opacity="1.0"  filling="0" d="M155.818359375 199.6095428466797 L18.74664306640625 199.6095428466797 C8.442787170410156 199.6095428466797 0.01229095458984375 191.17904663085938 0.01229095458984375 180.87518310546875 L0.01229095458984375 52.23397445678711 C0.01229095458984375 51.297298431396484 0.32464599609375 50.672977447509766 0.9489669799804688 50.04825973510742 L49.34585189819336 1.339813232421875 C49.97016906738281 0.7154922485351562 50.594886779785156 0.40312957763671875 51.53156661987305 0.40312957763671875 L155.50640869140625 0.40312957763671875 C165.81024169921875 0.40312957763671875 174.24075317382812 8.833633422851562 174.24075317382812 19.137481689453125 L174.24075317382812 180.8759765625 C174.2403564453125 191.179443359375 165.81024169921875 199.6095428466797 155.818359375 199.6095428466797 Z M6.257469177246094 53.483009338378906 L6.257469177246094 180.87518310546875 C6.257469177246094 187.74429321289062 11.877540588378906 193.36476135253906 18.747039794921875 193.36476135253906 L155.818359375 193.36476135253906 C162.68746948242188 193.36476135253906 168.30792236328125 187.74468994140625 168.30792236328125 180.87518310546875 L168.30792236328125 19.13709259033203 C168.30792236328125 12.267990112304688 162.6878662109375 6.64752197265625 155.818359375 6.64752197265625 L52.78059768676758 6.64752197265625 L6.257469177246094 53.483009338378906 Z"></path>
<path fill="#FFFFFF" fill-opacity="1.0"  filling="0" d="M18.74664306640625 183.99798583984375 C17.185646057128906 183.99798583984375 15.624252319335938 182.74893188476562 15.624252319335938 180.87559509277344 L15.624252319335938 57.23011779785156 L56.83967208862305 16.01470184326172 L155.818359375 16.01470184326172 C157.37936401367188 16.01470184326172 158.94076538085938 17.26373291015625 158.94076538085938 19.13709259033203 L158.94076538085938 180.87559509277344 C158.94076538085938 182.43658447265625 157.69171142578125 183.99798583984375 155.818359375 183.99798583984375 L18.74664306640625 183.99798583984375 L18.74664306640625 183.99798583984375 Z"></path>
<path fill="#FFFFFF" fill-opacity="1.0"  filling="0" d="M3.1350784301757812 52.23397445678711 L35.91999816894531 52.23397445678711 C44.350502014160156 52.23397445678711 51.531959533691406 45.364871978759766 51.531959533691406 36.622013092041016 L51.531959533691406 3.5251312255859375 L3.1350784301757812 52.23397445678711 Z"></path>
<path fill="#183651" fill-opacity="1.0"  filling="0" d="M35.91999816894531 55.35636520385742 L3.1350784301757812 55.35636520385742 C1.8860397338867188 55.35636520385742 0.6370010375976562 54.7320442199707 0.32505035400390625 53.483009338378906 C-0.29927825927734375 52.23397445678711 0.01268768310546875 50.98493576049805 0.9493637084960938 50.04825973510742 L49.34585189819336 1.339813232421875 C50.282527923583984 0.40312957763671875 51.53156661987305 0.0907745361328125 52.78059768676758 0.7154922485351562 C54.02963638305664 1.339813232421875 54.653961181640625 2.2764892578125 54.653961181640625 3.5255279541015625 L54.653961181640625 36.31044387817383 C54.653961181640625 46.92626190185547 46.22345733642578 55.35636520385742 35.91999816894531 55.35636520385742 Z M10.628501892089844 49.11198043823242 L35.91960144042969 49.11198043823242 C42.78871154785156 49.11198043823242 48.4091682434082 43.49190902709961 48.4091682434082 36.622413635253906 L48.4091682434082 11.018951416015625 L10.628501892089844 49.11198043823242 Z"></path>
<path fill="#FFFFFF" fill-opacity="1.0"  filling="0" d="M116.78904724121094 112.80806732177734 L172.36700439453125 168.38601684570312 C177.987060546875 174.00608825683594 187.04226684570312 174.00608825683594 192.662353515625 168.38601684570312 C198.2824249267578 162.76596069335938 198.2824249267578 153.7107391357422 192.662353515625 148.09066772460938 L137.08441162109375 92.5127182006836 L116.78904724121094 112.80806732177734 Z"></path>
<path fill="#183651" fill-opacity="1.0"  filling="0" d="M170.18128967285156 170.5717315673828 L114.60333251953125 114.99378967285156 C113.35429382324219 113.7447509765625 113.35429382324219 111.87139129638672 114.60333251953125 110.62235260009766 L134.898681640625 90.3270034790039 C136.14772033691406 89.07796478271484 138.0210723876953 89.07796478271484 139.27011108398438 90.3270034790039 L194.8480682373047 145.9049530029297 C201.71717834472656 152.77406311035156 201.71717834472656 163.70223999023438 194.8480682373047 170.5717315673828 C187.9789581298828 177.4408416748047 177.05039978027344 177.4408416748047 170.18128967285156 170.5717315673828 Z M121.16048431396484 112.80806732177734 L174.55270385742188 166.2003173828125 C178.9241485595703 170.5717315673828 186.10560607910156 170.5717315673828 190.47662353515625 166.2003173828125 C194.8480682373047 161.82887268066406 194.8480682373047 154.64739990234375 190.47662353515625 150.27638244628906 L137.08441162109375 96.88375091552734 L121.16048431396484 112.80806732177734 Z"></path>
<path fill="#2CA0DA" fill-opacity="1.0"  filling="0" d="M152.6963653564453 77.52546691894531 A50.89455795288086 50.89455795288086 0.0 1 1 50.90724182128906 77.52546691894531 A50.89455795288086 50.89455795288086 0.0 1 1 152.6963653564453 77.52546691894531 Z"></path>
<path fill="#183651" fill-opacity="1.0"  filling="0" d="M101.80181121826172 131.54202270507812 C71.82731628417969 131.54202270507812 47.78485870361328 107.18760681152344 47.78485870361328 77.52507781982422 C47.78485870361328 47.862545013427734 72.13927459716797 23.50811767578125 101.80181121826172 23.50811767578125 C131.7762908935547 23.50811767578125 155.81875610351562 47.862545013427734 155.81875610351562 77.52507781982422 C155.818359375 107.49996948242188 131.7762908935547 131.54202270507812 101.80181121826172 131.54202270507812 Z M101.80181121826172 29.75330352783203 C75.26166534423828 29.75330352783203 54.02963638305664 51.297691345214844 54.02963638305664 77.52546691894531 C54.02963638305664 103.75325775146484 75.57402801513672 125.29763793945312 101.80181121826172 125.29763793945312 C128.0295867919922 125.29763793945312 149.573974609375 103.75325775146484 149.573974609375 77.52546691894531 C149.573974609375 51.297691345214844 128.341552734375 29.75330352783203 101.80181121826172 29.75330352783203 Z"></path>
<path fill="#FFFFFF" fill-opacity="1.0"  filling="0" d="M140.206787109375 77.52546691894531 A38.404991149902344 38.404991149902344 0.0 1 1 63.39681625366211 77.52546691894531 A38.404991149902344 38.404991149902344 0.0 1 1 140.206787109375 77.52546691894531 Z"></path>
<path fill="#183651" fill-opacity="1.0"  filling="0" d="M24.367111206054688 167.13699340820312 L81.194091796875 167.13699340820312 L81.194091796875 173.38177490234375 L24.367111206054688 173.38177490234375 L24.367111206054688 167.13699340820312 Z"></path>
<path fill="#183651" fill-opacity="1.0"  filling="0" d="M24.367111206054688 154.64781188964844 L81.194091796875 154.64781188964844 L81.194091796875 160.89259338378906 L24.367111206054688 160.89259338378906 L24.367111206054688 154.64781188964844 Z"></path>
<path fill="#183651" fill-opacity="1.0"  filling="0" d="M24.367111206054688 142.15823364257812 L81.194091796875 142.15823364257812 L81.194091796875 148.40301513671875 L24.367111206054688 148.40301513671875 L24.367111206054688 142.15823364257812 Z"></path>
<path fill="#183651" fill-opacity="1.0"  filling="0" d="M152.68209838867188 132.86875915527344 L148.26626586914062 128.4533233642578 L152.68209838867188 124.03750610351562 L157.09751892089844 128.4533233642578 L152.68209838867188 132.86875915527344 Z"></path>
<path fill="#183651" fill-opacity="1.0"  filling="0" d="M166.2950439453125 146.65573120117188 L161.87962341308594 142.23989868164062 L166.2950439453125 137.82447814941406 L170.71087646484375 142.23989868164062 L166.2950439453125 146.65573120117188 Z"></path>
<path fill="#183651" fill-opacity="1.0"  filling="0" d="M179.92779541015625 160.0010986328125 L175.51199340820312 155.5852813720703 L179.92779541015625 151.16986083984375 L184.34323120117188 155.5852813720703 L179.92779541015625 160.0010986328125 Z"></path>
<path fill="#E1E6E7" fill-opacity="1.0"  filling="0" d="M101.80181121826172 116.24242401123047 C114.60333251953125 116.24242401123047 126.15623474121094 109.99764251708984 133.02532958984375 100.00614166259766 C130.83963012695312 94.69803619384766 125.84386444091797 90.63896179199219 119.59907531738281 90.3270034790039 C115.5400161743164 96.88414764404297 108.98287200927734 100.94322204589844 101.48944854736328 100.94322204589844 C93.99602508544922 100.94322204589844 87.75123596191406 96.88414764404297 83.37980651855469 90.3270034790039 C77.4473876953125 90.63935852050781 72.13927459716797 94.38607025146484 69.95356750488281 100.00614166259766 C77.4473876953125 109.68568420410156 88.9998779296875 116.24242401123047 101.80181121826172 116.24242401123047 Z"></path>
<path fill="#FBBD5E" fill-opacity="1.0"  filling="0" d="M117.41375732421875 71.9050064086914 A15.611961364746094 21.232030868530273 0.0 1 1 86.1898422241211 71.9050064086914 A15.611961364746094 21.232030868530273 0.0 1 1 117.41375732421875 71.9050064086914 Z"></path>
<path fill="#173651" fill-opacity="1.0"  filling="0" d="M118.66241455078125 56.917762756347656 C118.35004425048828 52.85869216918945 115.2276611328125 50.360618591308594 111.79330444335938 48.48726272583008 C105.54851531982422 45.364871978759766 97.74273681640625 45.364871978759766 91.49795532226562 48.48726272583008 C88.06319427490234 50.360618591308594 85.25316619873047 52.85869216918945 84.62884521484375 56.917762756347656 C84.62884521484375 56.917762756347656 79.9454574584961 60.35251235961914 86.1898422241211 75.02739715576172 C86.1898422241211 75.02739715576172 84.62884521484375 68.7826156616211 89.3122329711914 65.34825897216797 C89.3122329711914 65.34825897216797 87.12652587890625 58.479156494140625 93.05895233154297 58.479156494140625 C93.05895233154297 58.479156494140625 98.05469512939453 61.28919219970703 101.17709350585938 60.66487121582031 C104.29948425292969 61.28919219970703 109.29522705078125 58.479156494140625 109.29522705078125 58.479156494140625 C115.5400161743164 58.479156494140625 113.04193878173828 65.34825897216797 113.04193878173828 65.34825897216797 C117.72532653808594 69.094970703125 116.16433715820312 75.02739715576172 116.16433715820312 75.02739715576172 C123.65815734863281 60.35211944580078 118.66241455078125 56.917762756347656 118.66241455078125 56.917762756347656 Z"></path></svg>