<svg xmlns="http://www.w3.org/2000/svg" viewBox="0.0 0.0 200.0 200.0" height="200.0px" width="200.0px"><path fill="#bddbff" fill-opacity="1.0"  filling="0" d="M166.66665649414062 20.0 C166.66665649414062 21.840835571289062 165.17416381835938 23.333335876464844 163.3333282470703 23.333335876464844 L130.0 23.333335876464844 C128.15916442871094 23.333335876464844 126.66666412353516 21.840835571289062 126.66666412353516 20.0 L126.66666412353516 13.333335876464844 C126.66666412353516 11.492500305175781 128.15916442871094 10.0 130.0 10.0 L163.3333282470703 10.0 C165.17416381835938 10.0 166.66665649414062 11.492500305175781 166.66665649414062 13.333335876464844 L166.66665649414062 20.0 Z"></path>
<path fill="#bddbff" fill-opacity="1.0"  filling="0" d="M181.66665649414062 91.66666412353516 C184.42874145507812 94.42874908447266 184.42874145507812 98.90458679199219 181.66665649414062 101.66666412353516 C178.90457153320312 104.42874908447266 174.42874145507812 104.42874908447266 171.66665649414062 101.66666412353516 L104.7004165649414 34.70042419433594 C103.45375061035156 33.45208740234375 101.76249694824219 32.75083923339844 100.0 32.75083923339844 C98.23750305175781 32.75083923339844 96.54624938964844 33.45208740234375 95.2995834350586 34.70042419433594 L28.333335876464844 101.66666412353516 C25.571250915527344 104.42874908447266 21.095420837402344 104.42874908447266 18.333335876464844 101.66666412353516 C15.571250915527344 98.90458679199219 15.571250915527344 94.42874908447266 18.333335876464844 91.66666412353516 L95.2995834350586 14.700424194335938 C96.54624938964844 13.45208740234375 98.23750305175781 12.750839233398438 100.0 12.750839233398438 C101.76249694824219 12.750839233398438 103.45375061035156 13.45208740234375 104.7004165649414 14.700424194335938 L181.66665649414062 91.66666412353516 Z"></path>
<path fill="#bddbff" fill-opacity="1.0"  filling="0" d="M50.0 143.3333282470703 L70.0 143.3333282470703 L70.0 163.3333282470703 L50.0 163.3333282470703 L50.0 143.3333282470703 Z"></path>
<path fill="#bddbff" fill-opacity="1.0"  filling="0" d="M196.66665649414062 190.0 L140.0 190.0 C140.0 182.63665771484375 145.97000122070312 176.66665649414062 153.3333282470703 176.66665649414062 C153.49917602539062 176.66665649414062 153.66708374023438 176.69915771484375 153.83291625976562 176.69915771484375 C153.51416015625 175.60540771484375 153.34458923339844 174.47250366210938 153.3333282470703 173.3333282470703 C153.3333282470703 165.97000122070312 159.30332946777344 160.0 166.66665649414062 160.0 C174.02999877929688 160.0 180.0 165.97000122070312 180.0 173.3333282470703 C189.20416259765625 173.3333282470703 196.66665649414062 180.79583740234375 196.66665649414062 190.0 Z"></path>
<path fill="#bddbff" fill-opacity="1.0"  filling="0" d="M40.0 173.66708374023438 C47.76041793823242 175.25082397460938 53.334999084472656 182.07833862304688 53.333335876464844 190.0 L3.3333358764648438 190.0 C3.3333358764648438 184.47750854492188 7.8108367919921875 180.0 13.333335876464844 180.0 C14.863334655761719 180.00958251953125 16.368751525878906 180.37417602539062 17.73291778564453 181.06625366210938 C17.04083251953125 179.70208740234375 16.676246643066406 178.1966552734375 16.666671752929688 176.66665649414062 C16.652084350585938 171.78707885742188 20.169174194335938 167.61541748046875 24.980422973632812 166.80499267578125 C29.791671752929688 165.99456787109375 34.48249816894531 168.78582763671875 36.066246032714844 173.39999389648438 C36.26625061035156 173.39999389648438 36.4666633605957 173.3333282470703 36.66666793823242 173.3333282470703 C37.78667068481445 173.32501220703125 38.90458679199219 173.4375 40.0 173.66708374023438 Z"></path>
<path fill="#bddbff" fill-opacity="1.0"  filling="0" d="M176.66665649414062 136.66665649414062 C176.66665649414062 132.98500061035156 173.68167114257812 130.0 170.0 130.0 C166.31832885742188 130.0 163.3333282470703 132.98500061035156 163.3333282470703 136.66665649414062 C163.3333282470703 140.34832763671875 166.31832885742188 143.3333282470703 170.0 143.3333282470703 C173.67666625976562 143.32208251953125 176.65541076660156 140.3433380126953 176.66665649414062 136.66665649414062 Z M160.0 117.79957580566406 C169.98040771484375 114.2579116821289 180.992919921875 119.1016616821289 185.1270751953125 128.850830078125 C189.26251220703125 138.60208129882812 185.08792114257812 149.88458251953125 175.603759765625 154.59625244140625 C166.11831665039062 159.30833435058594 154.6062469482422 155.81875610351562 149.33250427246094 146.6341552734375 L143.3008270263672 146.6341552734375 L136.66665649414062 140.0 L130.0 140.0 L130.0 146.50082397460938 L123.16749572753906 146.50082397460938 L116.66666412353516 140.0 L106.66666412353516 140.0 L100.0 146.66665649414062 L90.0 146.66665649414062 L90.0 126.66666412353516 L149.36666870117188 126.66666412353516 C151.75625610351562 122.5504150390625 155.52249145507812 119.41082763671875 160.0 117.79957580566406 Z"></path>
<path fill="#3d9ae2" fill-opacity="1.0"  filling="0" d="M70.0 140.0 L50.0 140.0 C48.1591682434082 140.0 46.66666793823242 141.49249267578125 46.66666793823242 143.3333282470703 L46.66666793823242 163.3333282470703 C46.66666793823242 165.17416381835938 48.1591682434082 166.66665649414062 50.0 166.66665649414062 L70.0 166.66665649414062 C71.84083557128906 166.66665649414062 73.33333587646484 165.17416381835938 73.33333587646484 163.3333282470703 L73.33333587646484 143.3333282470703 C73.33333587646484 141.49249267578125 71.84083557128906 140.0 70.0 140.0 Z M66.66667175292969 160.0 L53.333335876464844 160.0 L53.333335876464844 146.66665649414062 L66.66667175292969 146.66665649414062 L66.66667175292969 160.0 Z"></path>
<path fill="#3d9ae2" fill-opacity="1.0"  filling="0" d="M183.0437469482422 170.22958374023438 C182.0833282470703 165.26040649414062 178.91583251953125 160.99624633789062 174.43667602539062 158.63916015625 C185.11082458496094 154.82749938964844 191.50082397460938 143.89498901367188 189.58499145507812 132.72291564941406 C187.66915893554688 121.5512466430664 178.00125122070312 113.37249755859375 166.66665649414062 113.33333587646484 C165.5500030517578 113.34165954589844 164.43667602539062 113.43083953857422 163.3333282470703 113.60041046142578 L163.3333282470703 98.04666137695312 L169.30999755859375 104.0233383178711 C173.37249755859375 108.0858383178711 179.96083068847656 108.0858383178711 184.02333068847656 104.0233383178711 C188.08583068847656 99.9608383178711 188.08583068847656 93.37249755859375 184.02333068847656 89.30999755859375 L163.3333282470703 68.62000274658203 L163.3333282470703 26.666671752929688 C167.01499938964844 26.666671752929688 170.0 23.681671142578125 170.0 20.0 L170.0 13.333335876464844 C170.0 9.65167236328125 167.01499938964844 6.6666717529296875 163.3333282470703 6.6666717529296875 L130.0 6.6666717529296875 C126.31832885742188 6.6666717529296875 123.33332824707031 9.65167236328125 123.33332824707031 13.333335876464844 L123.33332824707031 20.0 C123.33332824707031 23.681671142578125 126.31832885742188 26.666671752929688 130.0 26.666671752929688 L130.0 35.28666687011719 L107.0704116821289 12.356674194335938 C103.16583251953125 8.45208740234375 96.83416748046875 8.45208740234375 92.9295883178711 12.356674194335938 L15.976669311523438 89.30999755859375 C11.920417785644531 93.37583923339844 11.920417785644531 99.9574966430664 15.976669311523438 104.0233383178711 C20.092918395996094 107.95750427246094 26.573753356933594 107.95750427246094 30.69000244140625 104.0233383178711 L36.66666793823242 98.04666137695312 L36.66666793823242 167.9395751953125 C33.037086486816406 163.728759765625 27.16625213623047 162.22500610351562 21.95958709716797 164.17332458496094 C16.751251220703125 166.1199951171875 13.308746337890625 171.10665893554688 13.333335876464844 176.66665649414062 C5.970001220703125 176.66665649414062 0.0 182.63665771484375 0.0 190.0 C0.0 191.8408203125 1.4925003051757812 193.3333282470703 3.3333358764648438 193.3333282470703 L196.66665649414062 193.3333282470703 C198.50750732421875 193.3333282470703 200.0 191.8408203125 200.0 190.0 C199.98707580566406 180.13333129882812 192.79290771484375 171.7449951171875 183.0437469482422 170.22958374023438 Z M183.3333282470703 136.66665649414062 C183.31875610351562 144.20249938964844 178.24874877929688 150.79083251953125 170.96832275390625 152.73583984375 C163.68832397460938 154.6808319091797 156.00750732421875 151.49749755859375 152.2362518310547 144.97415161132812 C151.64041137695312 143.94207763671875 150.5404052734375 143.3074951171875 149.3504180908203 143.3074951171875 L144.6824951171875 143.3074951171875 L139.01707458496094 137.63999938964844 C138.39373779296875 137.01832580566406 137.54708862304688 136.6683349609375 136.66665649414062 136.66665649414062 L130.0 136.66665649414062 C128.15916442871094 136.66665649414062 126.66666412353516 138.15916442871094 126.66666412353516 140.0 L126.66666412353516 143.17041015625 L124.55082702636719 143.17041015625 L119.02333068847656 137.64332580566406 C118.39833068847656 137.01832580566406 117.5504150390625 136.66665649414062 116.66666412353516 136.66665649414062 L106.66666412353516 136.66665649414062 C105.78291320800781 136.66665649414062 104.93499755859375 137.01832580566406 104.30999755859375 137.64332580566406 L98.61958312988281 143.3333282470703 L93.33333587646484 143.3333282470703 L93.33333587646484 130.0 L149.36666870117188 130.0 C150.55667114257812 129.9983367919922 151.65541076660156 129.36373901367188 152.24917602539062 128.3333282470703 C156.02874755859375 121.81791687011719 163.70750427246094 118.64749908447266 170.98291015625 120.59749603271484 C178.2566680908203 122.54875183105469 183.32040405273438 129.13583374023438 183.3333282470703 136.66665649414062 Z M106.66666412353516 123.33332824707031 L93.33333587646484 123.33332824707031 L93.33333587646484 113.33333587646484 L106.66666412353516 113.33333587646484 L106.66666412353516 123.33332824707031 Z M93.33333587646484 150.0 L100.0 150.0 C100.88375091552734 150.0 101.7316665649414 149.64833068847656 102.3566665649414 149.02333068847656 L106.66666412353516 144.7133331298828 L106.66666412353516 160.0 L93.33333587646484 160.0 L93.33333587646484 150.0 Z M147.54083251953125 123.33332824707031 L113.33333587646484 123.33332824707031 L113.33333587646484 110.0 C113.33333587646484 108.15916442871094 111.84083557128906 106.66666412353516 110.0 106.66666412353516 L90.0 106.66666412353516 C88.15916442871094 106.66666412353516 86.66666412353516 108.15916442871094 86.66666412353516 110.0 L86.66666412353516 163.3333282470703 C86.66666412353516 165.17416381835938 88.15916442871094 166.66665649414062 90.0 166.66665649414062 L110.0 166.66665649414062 C111.84083557128906 166.66665649414062 113.33333587646484 165.17416381835938 113.33333587646484 163.3333282470703 L113.33333587646484 143.3333282470703 L115.28665924072266 143.3333282470703 L120.81375122070312 148.86082458496094 C121.43875122070312 149.48582458496094 122.28666687011719 149.8370819091797 123.17041778564453 149.8370819091797 L130.0 149.8370819091797 C131.84083557128906 149.8370819091797 133.3333282470703 148.34458923339844 133.3333282470703 146.50375366210938 L133.3333282470703 143.3333282470703 L135.28665161132812 143.3333282470703 L140.95375061035156 149.00082397460938 C141.57875061035156 149.62582397460938 142.42666625976562 149.97708129882812 143.3104248046875 149.97708129882812 L147.52291870117188 149.97708129882812 C149.85208129882812 153.29583740234375 153.00291442871094 155.95375061035156 156.66665649414062 157.69041442871094 L156.66665649414062 160.08624267578125 C152.48541259765625 163.20791625976562 150.01458740234375 168.11541748046875 150.0 173.3333282470703 L150.0 173.66708374023438 C143.4683380126953 175.0195770263672 138.36917114257812 180.1316680908203 137.0329132080078 186.66665649414062 L56.367088317871094 186.66665649414062 C55.146671295166016 179.52166748046875 50.16291809082031 173.59207153320312 43.333335876464844 171.16041564941406 L43.333335876464844 93.33333587646484 L156.66665649414062 93.33333587646484 L156.66665649414062 115.64291381835938 C153.01124572753906 117.37458801269531 149.86666870117188 120.02458190917969 147.54083251953125 123.33332824707031 Z M130.0 13.333335876464844 L163.3333282470703 13.333335876464844 L163.3333282470703 20.0 L130.0 20.0 L130.0 13.333335876464844 Z M136.66665649414062 26.666671752929688 L156.66665649414062 26.666671752929688 L156.66665649414062 61.95333480834961 L136.66665649414062 41.95333480834961 L136.66665649414062 26.666671752929688 Z M25.976669311523438 99.30999755859375 C24.497085571289062 100.72249603271484 22.169586181640625 100.72249603271484 20.69000244140625 99.30999755859375 C19.236671447753906 97.84666442871094 19.236671447753906 95.48666381835938 20.69000244140625 94.0233383178711 L97.6433334350586 17.073753356933594 C98.9454116821289 15.77166748046875 101.0545883178711 15.77166748046875 102.3566665649414 17.073753356933594 L179.30999755859375 94.0233383178711 C180.76333618164062 95.48666381835938 180.76333618164062 97.84666442871094 179.30999755859375 99.30999755859375 C177.83041381835938 100.72249603271484 175.50291442871094 100.72249603271484 174.02333068847656 99.30999755859375 L107.0704116821289 32.35667419433594 C103.16583251953125 28.45208740234375 96.83416748046875 28.45208740234375 92.9295883178711 32.35667419433594 L25.976669311523438 99.30999755859375 Z M97.6433334350586 37.07374572753906 C98.9454116821289 35.77166748046875 101.0545883178711 35.77166748046875 102.3566665649414 37.07374572753906 L151.9533233642578 86.66666412353516 L48.04666519165039 86.66666412353516 L97.6433334350586 37.07374572753906 Z M7.5633392333984375 186.66665649414062 C9.314582824707031 183.65249633789062 13.100418090820312 182.50665283203125 16.230422973632812 184.04290771484375 C17.50958251953125 184.67457580566406 19.051246643066406 184.42208862304688 20.06041717529297 183.4129180908203 C21.070838928222656 182.40415954589844 21.32666778564453 180.86416625976562 20.696670532226562 179.5833282470703 C20.24250030517578 178.67832946777344 20.00499725341797 177.67916870117188 20.0 176.66665649414062 C19.99041748046875 173.416259765625 22.33416748046875 170.63626098632812 25.540420532226562 170.0958251953125 C28.74500274658203 169.55581665039062 31.871673583984375 171.41583251953125 32.92625427246094 174.49041748046875 C33.390419006347656 175.89041137695312 34.734588623046875 176.80499267578125 36.20624542236328 176.7237548828125 C36.36249542236328 176.72540283203125 36.51708221435547 176.70748901367188 36.66666793823242 176.66665649414062 C42.74416732788086 176.67332458496094 48.04999923706055 180.78457641601562 49.57666778564453 186.66665649414062 L7.5633392333984375 186.66665649414062 Z M143.89666748046875 186.66665649414062 C145.26541137695312 182.7279052734375 148.95001220703125 180.06332397460938 153.1199951171875 180.0 C153.23416137695312 180.0 153.5691680908203 180.0504150390625 153.68333435058594 180.05374145507812 C154.7395782470703 180.09457397460938 155.75375366210938 179.632080078125 156.41458129882812 178.80706787109375 C157.07666015625 177.98165893554688 157.30792236328125 176.89291381835938 157.0362548828125 175.87081909179688 C156.80332946777344 175.04376220703125 156.67958068847656 174.19125366210938 156.66665649414062 173.3333282470703 C156.66665649414062 167.81082153320312 161.1441650390625 163.3333282470703 166.66665649414062 163.3333282470703 C172.1891632080078 163.3333282470703 176.66665649414062 167.81082153320312 176.66665649414062 173.3333282470703 C176.66665649414062 175.17416381835938 178.15916442871094 176.66665649414062 180.0 176.66665649414062 C186.07749938964844 176.67332458496094 191.38333129882812 180.78457641601562 192.91000366210938 186.66665649414062 L143.89666748046875 186.66665649414062 Z"></path>
<path fill="#3d9ae2" fill-opacity="1.0"  filling="0" d="M170.0 146.66665649414062 C175.52249145507812 146.66665649414062 180.0 142.1891632080078 180.0 136.66665649414062 C180.0 131.1441650390625 175.52249145507812 126.66666412353516 170.0 126.66666412353516 C164.47750854492188 126.66666412353516 160.0 131.1441650390625 160.0 136.66665649414062 C160.0 142.1891632080078 164.47750854492188 146.66665649414062 170.0 146.66665649414062 Z M170.0 133.3333282470703 C171.8408203125 133.3333282470703 173.3333282470703 134.82583618164062 173.3333282470703 136.66665649414062 C173.3333282470703 138.50750732421875 171.8408203125 140.0 170.0 140.0 C168.15916442871094 140.0 166.66665649414062 138.50750732421875 166.66665649414062 136.66665649414062 C166.66665649414062 134.82583618164062 168.15916442871094 133.3333282470703 170.0 133.3333282470703 Z"></path></svg>