<svg xmlns="http://www.w3.org/2000/svg" viewBox="0.0 0.0 200.0 200.0" height="200.0px" width="200.0px"><path fill="#53a3ec" fill-opacity="1.0"  filling="0" d="M172.7456817626953 200.0 C183.91429138183594 200.0 192.36941528320312 189.99636840820312 190.61810302734375 178.96580505371094 C186.20684814453125 151.18109130859375 173.13119506835938 125.28974151611328 152.98672485351562 105.14527893066406 L146.05714416503906 98.21529388427734 L113.37464904785156 98.21529388427734 L113.37464904785156 130.89779663085938 L120.30462646484375 137.82777404785156 C122.79879760742188 140.32192993164062 125.12716674804688 142.95010375976562 127.28330993652344 145.6961669921875 C139.66600036621094 161.46560668945312 128.2189178466797 184.5927734375 108.16900634765625 184.5927734375 L49.04667663574219 184.5927734375 C44.792755126953125 184.5927734375 41.34446334838867 188.04104614257812 41.34446334838867 192.29498291015625 L41.34446334838867 192.2969970703125 C41.34446334838867 196.5509033203125 44.792755126953125 199.9991912841797 49.04667663574219 199.9991912841797 L146.05673217773438 199.9991912841797 L146.05673217773438 200.0 L172.7456817626953 200.0 Z"></path>
<path fill="#88c5fd" fill-opacity="1.0"  filling="0" d="M87.62213134765625 166.48411560058594 L59.45311737060547 166.48411560058594 L59.45311737060547 144.351318359375 C59.45311737060547 132.14727783203125 49.52434539794922 122.21852111816406 37.32032012939453 122.21852111816406 L15.187522888183594 122.21852111816406 L15.187522888183594 94.04949951171875 L37.32032012939453 94.04949951171875 C65.0567398071289 94.04949951171875 87.62213134765625 116.61488342285156 87.62213134765625 144.351318359375 L87.62213134765625 166.48411560058594 Z"></path>
<path fill="#d4d4ff" fill-opacity="1.0"  filling="0" d="M157.628173828125 24.043861389160156 L133.48330688476562 24.043861389160156 L121.91107177734375 35.615692138671875 L121.91107177734375 59.760562896728516 L146.05593872070312 59.760562896728516 L157.628173828125 48.18872833251953 L157.628173828125 24.043861389160156 Z"></path>
<path fill="#53a3ec" fill-opacity="1.0"  filling="0" d="M42.23701858520508 76.83380126953125 C24.950103759765625 94.1207275390625 24.950103759765625 122.1476821899414 42.23701858520508 139.43460083007812 C59.52394485473633 156.72152709960938 87.55130767822266 156.72152709960938 104.83782958984375 139.43460083007812 L113.37423706054688 130.898193359375 L113.37423706054688 68.29698181152344 L50.7734375 68.29698181152344 L42.23701858520508 76.83380126953125 Z"></path>
<path fill="#4293dd" fill-opacity="1.0"  filling="0" d="M66.38188934326172 100.97867584228516 L74.91830444335938 92.44225311279297 L50.7734375 68.29737854003906 L42.23701858520508 76.83380126953125 C24.950103759765625 94.1207275390625 24.950103759765625 122.1476821899414 42.23701858520508 139.43460083007812 C46.51629638671875 143.71388244628906 51.454322814941406 146.93199157714844 56.723941802978516 149.09255981445312 C50.15613555908203 133.07444763183594 53.37424087524414 113.98591613769531 66.38188934326172 100.97867584228516 Z"></path>
<path fill="#efedff" fill-opacity="1.0"  filling="0" d="M146.0591583251953 59.76337814331055 L146.05633544921875 59.760562896728516 L146.0551300048828 59.75935363769531 L121.9114761352539 35.615692138671875 L121.91026306152344 35.61448669433594 C111.29134368896484 24.995567321777344 94.0748519897461 24.995567321777344 83.4559326171875 35.61448669433594 L50.7734375 68.29698181152344 L74.91830444335938 92.44184875488281 L113.37464904785156 130.89779663085938 L146.05714416503906 98.21529388427734 C156.67526245117188 87.59757995605469 156.6756591796875 70.38269805908203 146.0591583251953 59.76337814331055 Z"></path>
<path fill="#d4d4ff" fill-opacity="1.0"  filling="0" d="M146.0551300048828 59.75975799560547 L121.9114761352539 35.61609649658203 L121.91026306152344 35.61488342285156 C111.29134368896484 24.99597930908203 94.0748519897461 24.99597930908203 83.4559326171875 35.61488342285156 L50.7734375 68.29737854003906 L74.91830444335938 92.44225311279297 L107.6008071899414 59.75975799560547 C118.21971893310547 49.14084243774414 135.43621826171875 49.14084243774414 146.0551300048828 59.75975799560547 Z"></path>
<path fill="#53a3ec" fill-opacity="1.0"  filling="0" d="M157.6277618408203 48.18872833251953 L133.48289489746094 24.043861389160156 C127.98269653320312 18.543655395507812 127.98269653320312 9.625747680664062 133.48289489746094 4.12554931640625 C138.98390197753906 -1.3750534057617188 147.90060424804688 -1.3750534057617188 153.401611328125 4.12554931640625 L177.54647827148438 28.270416259765625 C183.04669189453125 33.77062225341797 183.04669189453125 42.68852615356445 177.54647827148438 48.18872833251953 C172.04627990722656 53.688934326171875 163.12918090820312 53.689334869384766 157.6277618408203 48.18872833251953 Z"></path>
<path fill="#4293dd" fill-opacity="1.0"  filling="0" d="M153.4020233154297 4.12554931640625 C147.9010009765625 -1.3750534057617188 138.98431396484375 -1.3750534057617188 133.48330688476562 4.12554931640625 C127.98309326171875 9.625747680664062 127.98309326171875 18.543655395507812 133.48330688476562 24.043861389160156 L149.5798797607422 40.140438079833984 C144.07968139648438 34.640235900878906 144.07968139648438 25.722328186035156 149.5798797607422 20.222129821777344 C155.0804901123047 14.721931457519531 163.99717712402344 14.721527099609375 169.49819946289062 20.22173309326172 L153.4020233154297 4.12554931640625 Z"></path>
<path fill="#ff8e9e" fill-opacity="1.0"  filling="0" d="M76.33279418945312 61.874046325683594 C80.15694427490234 65.69818115234375 80.788330078125 71.26679992675781 77.74285125732422 74.31227111816406 C74.6973876953125 77.35734558105469 69.12876892089844 76.72635650634766 65.30462646484375 72.90221405029297 C61.48088455200195 69.07806396484375 60.84949493408203 63.509456634521484 63.89456558227539 60.463985443115234 C66.94003295898438 57.418914794921875 72.50865173339844 58.049896240234375 76.33279418945312 61.874046325683594 Z"></path>
<path fill="#ff8e9e" fill-opacity="1.0"  filling="0" d="M119.774658203125 105.32313537597656 C123.598388671875 109.14727783203125 124.22978210449219 114.71589660644531 121.1847152709961 117.76136779785156 C118.13922882080078 120.80644226074219 112.57062530517578 120.17544555664062 108.74647521972656 116.35130310058594 C104.92233276367188 112.52716827392578 104.29094696044922 106.95854949951172 107.33641052246094 103.91307830810547 C110.38189697265625 100.86800384521484 115.95050048828125 101.49899291992188 119.774658203125 105.32313537597656 Z"></path>
<path fill="#4293dd" fill-opacity="1.0"  filling="0" d="M15.187522888183594 128.25473022460938 C11.853919982910156 128.25473022460938 9.15130615234375 125.55211639404297 9.15130615234375 122.21852111816406 L9.15130615234375 94.04949951171875 C9.15130615234375 90.71589660644531 11.853919982910156 88.01327514648438 15.187522888183594 88.01327514648438 C18.5211181640625 88.01327514648438 21.223739624023438 90.71589660644531 21.223739624023438 94.04949951171875 L21.223739624023438 122.21852111816406 C21.223739624023438 125.5525131225586 18.521530151367188 128.25473022460938 15.187522888183594 128.25473022460938 Z"></path>
<path fill="#4293dd" fill-opacity="1.0"  filling="0" d="M87.62213134765625 172.52032470703125 L59.45311737060547 172.52032470703125 C56.11951446533203 172.52032470703125 53.416900634765625 169.81771850585938 53.416900634765625 166.48411560058594 C53.416900634765625 163.15049743652344 56.11951446533203 160.44789123535156 59.45311737060547 160.44789123535156 L87.62213134765625 160.44789123535156 C90.95573425292969 160.44789123535156 93.6583480834961 163.15049743652344 93.6583480834961 166.48411560058594 C93.6583480834961 169.81771850585938 90.95613861083984 172.52032470703125 87.62213134765625 172.52032470703125 Z"></path>
<path fill="#313d40" fill-opacity="1.0"  filling="0" d="M81.56096649169922 60.30342102050781 L78.14647674560547 63.7179069519043 C76.9674072265625 64.89657592773438 76.9674072265625 66.80724334716797 78.14607238769531 67.98591613769531 C79.32434844970703 69.1641845703125 81.2358169555664 69.16499328613281 82.41407775878906 67.98591613769531 L85.82856750488281 64.57142639160156 C87.00764465332031 63.392757415771484 87.00764465332031 61.482093811035156 85.82897186279297 60.30342102050781 C84.65029907226562 59.12474822998047 82.7392349243164 59.12474822998047 81.56096649169922 60.30342102050781 Z"></path>
<path fill="#313d40" fill-opacity="1.0"  filling="0" d="M121.36862182617188 95.84265899658203 C120.18952941894531 94.66398620605469 118.27887725830078 94.66398620605469 117.1001968383789 95.84265899658203 L113.68571472167969 99.25714874267578 C112.50703430175781 100.4358139038086 112.50703430175781 102.34687805175781 113.68571472167969 103.52515411376953 C114.86478424072266 104.70381927490234 116.77545928955078 104.70381927490234 117.9541244506836 103.52515411376953 L121.36862182617188 100.11066436767578 C122.546875 98.9323959350586 122.546875 97.02133178710938 121.36862182617188 95.84265899658203 Z"></path>
<path fill="#313d40" fill-opacity="1.0"  filling="0" d="M102.6297836303711 85.19396209716797 C99.13803100585938 85.43822479248047 96.23702239990234 82.5400390625 96.4776611328125 79.04225158691406 C96.59195709228516 77.37947082519531 95.33641815185547 75.93843078613281 93.67364501953125 75.82414245605469 C92.00442504882812 75.71308135986328 90.57022094726562 76.96539306640625 90.45553588867188 78.628173828125 C89.96337890625 85.79275512695312 95.91307830810547 91.7066421508789 103.04306030273438 91.21609497070312 C104.70623779296875 91.101806640625 105.9617691040039 89.66116333007812 105.84748840332031 87.9983901977539 C105.73359680175781 86.33521270751953 104.28772735595703 85.08370208740234 102.6297836303711 85.19396209716797 Z"></path></svg>