<svg xmlns="http://www.w3.org/2000/svg" viewBox="0.0 0.0 200.0 200.0" height="200.0px" width="200.0px"><path fill="#F0E4D6" fill-opacity="1.0"  filling="0" d="M143.96583557128906 144.8275604248047 L137.93148803710938 120.68975830078125 L110.34526062011719 120.68975830078125 L104.3109130859375 144.8275604248047 L89.65589904785156 144.8275604248047 L89.65589904785156 151.72401428222656 L158.62086486816406 151.72401428222656 L158.62086486816406 144.8275604248047 L143.96583557128906 144.8275604248047 Z"></path>
<path fill="#F0E4D6" fill-opacity="1.0"  filling="0" d="M48.27676010131836 106.89645385742188 C48.27676010131836 114.51361083984375 54.45252227783203 120.68936920166016 62.069679260253906 120.68936920166016 L186.20706176757812 120.68936920166016 C193.82421875 120.68936920166016 200.0 114.51361083984375 200.0 106.89645385742188 L200.0 96.55157470703125 L48.27676010131836 96.55157470703125 L48.27676010131836 106.89645385742188 Z"></path>
<path fill="#87CED9" fill-opacity="1.0"  filling="0" d="M186.20706176757812 0.000396728515625 L62.069679260253906 0.000396728515625 C54.45252227783203 0.000396728515625 48.27676010131836 6.176155090332031 48.27676010131836 13.793312072753906 L48.27676010131836 96.55157470703125 L200.00038146972656 96.55157470703125 L200.00038146972656 13.793693542480469 C200.0 6.176155090332031 193.82421875 0.000396728515625 186.20706176757812 0.000396728515625 Z"></path>
<path fill="#7DC6D1" fill-opacity="1.0"  filling="0" d="M186.20706176757812 0.000396728515625 L185.05865478515625 0.000396728515625 L88.50746154785156 96.55196380615234 L200.0 96.55196380615234 L200.0 13.793693542480469 C200.0 6.176155090332031 193.82421875 0.000396728515625 186.20706176757812 0.000396728515625 Z"></path>
<path fill="#61ACC9" fill-opacity="1.0"  filling="0" d="M58.621253967285156 10.34527587890625 L65.51771545410156 10.34527587890625 L65.51771545410156 17.241737365722656 L58.621253967285156 17.241737365722656 L58.621253967285156 10.34527587890625 Z"></path>
<path fill="#61ACC9" fill-opacity="1.0"  filling="0" d="M72.41456604003906 10.34527587890625 L79.31101989746094 10.34527587890625 L79.31101989746094 17.241737365722656 L72.41456604003906 17.241737365722656 L72.41456604003906 10.34527587890625 Z"></path>
<path fill="#61ACC9" fill-opacity="1.0"  filling="0" d="M86.20747375488281 10.34527587890625 L93.10392761230469 10.34527587890625 L93.10392761230469 17.241737365722656 L86.20747375488281 17.241737365722656 L86.20747375488281 10.34527587890625 Z"></path>
<path fill="#61ACC9" fill-opacity="1.0"  filling="0" d="M58.621253967285156 24.13819122314453 L65.51771545410156 24.13819122314453 L65.51771545410156 72.41378021240234 L58.621253967285156 72.41378021240234 L58.621253967285156 24.13819122314453 Z"></path>
<path fill="#61ACC9" fill-opacity="1.0"  filling="0" d="M58.621253967285156 79.31062316894531 L189.65512084960938 79.31062316894531 L189.65512084960938 86.20707702636719 L58.621253967285156 86.20707702636719 L58.621253967285156 79.31062316894531 Z"></path>
<path fill="#61ACC9" fill-opacity="1.0"  filling="0" d="M72.41456604003906 62.06928634643555 L79.31101989746094 62.06928634643555 L79.31101989746094 72.41416931152344 L72.41456604003906 72.41416931152344 L72.41456604003906 62.06928634643555 Z"></path>
<path fill="#61ACC9" fill-opacity="1.0"  filling="0" d="M86.20747375488281 55.172828674316406 L93.10392761230469 55.172828674316406 L93.10392761230469 72.41416931152344 L86.20747375488281 72.41416931152344 L86.20747375488281 55.172828674316406 Z"></path>
<path fill="#61ACC9" fill-opacity="1.0"  filling="0" d="M100.00039672851562 58.62086868286133 L106.8968505859375 58.62086868286133 L106.8968505859375 72.41378021240234 L100.00039672851562 72.41378021240234 L100.00039672851562 58.62086868286133 Z"></path>
<path fill="#61ACC9" fill-opacity="1.0"  filling="0" d="M113.79368591308594 48.27598571777344 L120.69013977050781 48.27598571777344 L120.69013977050781 72.41378021240234 L113.79368591308594 72.41378021240234 L113.79368591308594 48.27598571777344 Z"></path>
<path fill="#61ACC9" fill-opacity="1.0"  filling="0" d="M127.58660125732422 41.3795280456543 L134.48306274414062 41.3795280456543 L134.48306274414062 72.41378021240234 L127.58660125732422 72.41378021240234 L127.58660125732422 41.3795280456543 Z"></path>
<path fill="#61ACC9" fill-opacity="1.0"  filling="0" d="M141.3795166015625 48.27598571777344 L148.27598571777344 48.27598571777344 L148.27598571777344 72.41378021240234 L141.3795166015625 72.41378021240234 L141.3795166015625 48.27598571777344 Z"></path>
<path fill="#61ACC9" fill-opacity="1.0"  filling="0" d="M155.17282104492188 34.483070373535156 L162.06927490234375 34.483070373535156 L162.06927490234375 72.41378021240234 L155.17282104492188 72.41378021240234 L155.17282104492188 34.483070373535156 Z"></path>
<path fill="#61ACC9" fill-opacity="1.0"  filling="0" d="M168.96572875976562 27.58661651611328 L175.86221313476562 27.58661651611328 L175.86221313476562 72.41416931152344 L168.96572875976562 72.41416931152344 L168.96572875976562 27.58661651611328 Z"></path>
<path fill="#61ACC9" fill-opacity="1.0"  filling="0" d="M182.759033203125 24.13819122314453 L189.65548706054688 24.13819122314453 L189.65548706054688 72.41378021240234 L182.759033203125 72.41378021240234 L182.759033203125 24.13819122314453 Z"></path>
<path fill="#4398D1" fill-opacity="1.0"  filling="0" d="M108.79371643066406 187.58596801757812 L100.00077819824219 175.86181640625 L100.00077819824219 141.37913513183594 C99.99726104736328 121.60694122314453 87.042236328125 104.17224884033203 68.1110610961914 98.46562957763672 L79.31101989746094 76.93134307861328 L75.86259460449219 74.7176742553711 C71.56261444091797 71.98330688476562 66.15559387207031 71.65909576416016 61.55913162231445 73.86260223388672 C57.524776458740234 75.79032897949219 52.8349494934082 75.79032897949219 48.80058670043945 73.86260223388672 C44.20060729980469 71.65557861328125 38.786956787109375 71.97979736328125 34.48345947265625 74.7176742553711 L31.0350341796875 76.93134307861328 L42.2349967956543 98.46562957763672 C23.30420684814453 104.17264556884766 10.348785400390625 121.60694122314453 10.34527587890625 141.37913513183594 L10.34527587890625 175.86181640625 L1.552337646484375 187.58596801757812 C-1.0199127197265625 191.01370239257812 -0.32343292236328125 195.87579345703125 3.1038970947265625 198.4480438232422 C4.448814392089844 199.455078125 6.0796661376953125 199.9995880126953 7.7589569091796875 199.9995880126953 L102.58631896972656 199.9995880126953 C106.87262725830078 199.9995880126953 110.34487915039062 196.52734375 110.34487915039062 192.2410430908203 C110.34526062011719 190.56173706054688 109.80034637451172 188.930908203125 108.79371643066406 187.58596801757812 Z"></path>
<path fill="#3E8FC9" fill-opacity="1.0"  filling="0" d="M100.00039672851562 175.86181640625 L100.00039672851562 141.37913513183594 C100.00741577148438 132.1893310546875 97.16954040527344 123.22412109375 91.8761978149414 115.71009063720703 C67.10755157470703 157.05836486816406 29.90418243408203 183.827392578125 3.58709716796875 198.76522827148438 C4.8320159912109375 199.56875610351562 6.280052185058594 199.99609375 7.759346008300781 199.9995880126953 L102.58670043945312 199.9995880126953 C106.87301635742188 199.9995880126953 110.34526062011719 196.52734375 110.34526062011719 192.2410430908203 C110.34526062011719 190.56173706054688 109.80034637451172 188.92738342285156 108.79371643066406 187.58596801757812 L100.00039672851562 175.86181640625 Z"></path>
<path fill="#FDB62F" fill-opacity="1.0"  filling="0" d="M68.96614074707031 144.8275604248047 L68.96614074707031 140.87600708007812 C68.9591064453125 135.441650390625 64.55912780761719 131.0416717529297 59.1247673034668 131.03463745117188 L58.621253967285156 131.03463745117188 L58.621253967285156 124.13818359375 L51.72480010986328 124.13818359375 L51.72480010986328 131.03463745117188 L51.221282958984375 131.03463745117188 C45.786930084228516 131.03463745117188 41.37991714477539 135.441650390625 41.37991714477539 140.87600708007812 C41.37991714477539 144.60372924804688 43.4869384765625 148.0138702392578 46.82130432128906 149.6794891357422 L60.438438415527344 156.48960876464844 C61.89350891113281 157.21734619140625 62.48334503173828 158.98609924316406 61.755619049072266 160.441162109375 C61.25913619995117 161.43765258789062 60.24195098876953 162.0688934326172 59.1247673034668 162.0688934326172 L51.221282958984375 162.0688934326172 C49.597068786621094 162.0653839111328 48.27988815307617 160.74819946289062 48.27637481689453 159.12399291992188 L48.27637481689453 158.62046813964844 L41.37991714477539 158.62046813964844 L41.37991714477539 159.12399291992188 C41.38694381713867 164.55833435058594 45.786930084228516 168.95831298828125 51.221282958984375 168.96536254882812 L51.72480010986328 168.96536254882812 L51.72480010986328 175.86181640625 L58.621253967285156 175.86181640625 L58.621253967285156 168.96536254882812 L59.1247673034668 168.96536254882812 C64.55912780761719 168.96536254882812 68.96614074707031 164.56185913085938 68.96614074707031 159.12399291992188 C68.96614074707031 155.39627075195312 66.85911560058594 151.98611450195312 63.524749755859375 150.32049560546875 L49.90761947631836 143.5103759765625 C48.452545166015625 142.7826385498047 47.862701416015625 141.01390075683594 48.59043502807617 139.55882263183594 C49.0869140625 138.56234741210938 50.10761642456055 137.9311065673828 51.221282958984375 137.9311065673828 L59.1247673034668 137.9311065673828 C60.74898147583008 137.9346160888672 62.066162109375 139.25180053710938 62.069679260253906 140.87600708007812 L62.069679260253906 144.8275604248047 L68.96614074707031 144.8275604248047 Z"></path>
<path fill="#FDB62F" fill-opacity="1.0"  filling="0" d="M141.37991333007812 174.13760375976562 A12.069092750549316 12.069092750549316 0.0 1 1 117.24172973632812 174.13760375976562 A12.069092750549316 12.069092750549316 0.0 1 1 141.37991333007812 174.13760375976562 Z"></path>
<path fill="#FDB62F" fill-opacity="1.0"  filling="0" d="M175.86257934570312 187.930908203125 A12.069092750549316 12.069092750549316 0.0 1 1 151.72439575195312 187.930908203125 A12.069092750549316 12.069092750549316 0.0 1 1 175.86257934570312 187.930908203125 Z"></path>
<path fill="#FDB62F" fill-opacity="1.0"  filling="0" d="M13.794090270996094 65.51731872558594 L13.794090270996094 65.51731872558594 C12.614799499511719 58.44508361816406 7.0734100341796875 52.90370178222656 0.0011749267578125 51.724403381347656 L0.0011749267578125 51.724403381347656 C7.0734100341796875 50.54511260986328 12.614799499511719 45.003726959228516 13.794090270996094 37.93149948120117 L13.794090270996094 37.93149948120117 C14.973381042480469 45.003726959228516 20.5147705078125 50.54511260986328 27.587005615234375 51.724403381347656 L27.587005615234375 51.724403381347656 C20.5147705078125 52.90370178222656 14.973381042480469 58.44508361816406 13.794090270996094 65.51731872558594 Z"></path>
<path fill="#E0D2C1" fill-opacity="1.0"  filling="0" d="M139.65570068359375 127.58621978759766 L137.93148803710938 120.68975830078125 L110.34526062011719 120.68975830078125 L108.62106323242188 127.58621978759766 L139.65570068359375 127.58621978759766 Z"></path></svg>