<svg xmlns="http://www.w3.org/2000/svg" viewBox="0.0 0.0 200.0 200.0" height="200.0px" width="200.0px"><path fill="#FFCE54" fill-opacity="1.0"  filling="0" d="M162.50115966796875 44.92265701293945 C150.11561584472656 44.92265701293945 140.03945922851562 34.84648132324219 140.03945922851562 22.461334228515625 C140.03945922851562 10.076171875 150.11561584472656 0.0 162.50115966796875 0.0 C174.88633728027344 0.0 184.96209716796875 10.076171875 184.96209716796875 22.461334228515625 C184.96209716796875 34.84648132324219 174.8859405517578 44.92265701293945 162.50115966796875 44.92265701293945 Z"></path>
<path fill="#F6BB42" fill-opacity="1.0"  filling="0" d="M162.50115966796875 0.0 C160.47381591796875 0.0 158.5105438232422 0.2746124267578125 156.64102172851562 0.7804718017578125 C166.19296264648438 3.3648452758789062 173.2421875 12.103118896484375 173.2421875 22.461334228515625 C173.2421875 32.81953430175781 166.1925811767578 41.55781173706055 156.640625 44.14218521118164 C158.51016235351562 44.64805221557617 160.47381591796875 44.92265701293945 162.50079345703125 44.92265701293945 C174.8859405517578 44.92265701293945 184.96173095703125 34.84648132324219 184.96173095703125 22.461334228515625 C184.96173095703125 10.076171875 174.8859405517578 0.0 162.50115966796875 0.0 Z"></path>
<path fill="#DCA746" fill-opacity="1.0"  filling="0" d="M162.50115966796875 44.92265701293945 C150.11561584472656 44.92265701293945 140.03945922851562 34.84648132324219 140.03945922851562 22.461334228515625 L140.03945922851562 34.181251525878906 C140.03945922851562 46.566402435302734 150.11561584472656 56.642578125 162.50115966796875 56.642578125 C174.88633728027344 56.642578125 184.96209716796875 46.566402435302734 184.96209716796875 34.181251525878906 L184.96209716796875 22.461334228515625 C184.96209716796875 34.84648132324219 174.8859405517578 44.92265701293945 162.50115966796875 44.92265701293945 Z"></path>
<path fill="#FFCE54" fill-opacity="1.0"  filling="0" d="M43.36054229736328 48.044921875 C34.20624542236328 48.044921875 26.75897979736328 40.597652435302734 26.75897979736328 31.442970275878906 C26.75897979736328 22.288284301757812 34.20624542236328 14.841011047363281 43.36054229736328 14.841011047363281 C52.51445007324219 14.841011047363281 59.96211242675781 22.288284301757812 59.96211242675781 31.442970275878906 C59.96211242675781 40.597652435302734 52.51445007324219 48.044921875 43.36054229736328 48.044921875 Z"></path>
<path fill="#DCA746" fill-opacity="1.0"  filling="0" d="M43.36054229736328 48.044921875 C34.20624542236328 48.044921875 26.75897979736328 40.597652435302734 26.75897979736328 31.442970275878906 L26.75897979736328 43.161720275878906 C26.75897979736328 52.316402435302734 34.20624542236328 59.763671875 43.36054229736328 59.763671875 C52.51445007324219 59.763671875 59.96211242675781 52.316402435302734 59.96211242675781 43.161720275878906 L59.96211242675781 31.442970275878906 C59.96211242675781 40.597652435302734 52.51445007324219 48.044921875 43.36054229736328 48.044921875 Z"></path>
<path fill="#DCA746" fill-opacity="1.0"  filling="0" d="M43.36054229736328 38.278907775878906 C41.7421875 38.278907775878906 40.43085479736328 36.96757507324219 40.43085479736328 35.349220275878906 L40.43085479736328 27.536720275878906 C40.43085479736328 25.918357849121094 41.7421875 24.607032775878906 43.36054229736328 24.607032775878906 C44.978904724121094 24.607032775878906 46.29022979736328 25.918746948242188 46.29022979736328 27.536720275878906 L46.29022979736328 35.349220275878906 C46.29022979736328 36.96757507324219 44.978904724121094 38.278907775878906 43.36054229736328 38.278907775878906 Z"></path>
<path fill="#DCA746" fill-opacity="1.0"  filling="0" d="M162.2644500732422 29.29804229736328 C160.64608764648438 29.29804229736328 159.3347625732422 27.986717224121094 159.3347625732422 26.36835479736328 L159.3347625732422 18.55585479736328 C159.3347625732422 16.937889099121094 160.64608764648438 15.626167297363281 162.2644500732422 15.626167297363281 C163.8828125 15.626167297363281 165.19415283203125 16.937889099121094 165.19415283203125 18.55585479736328 L165.19415283203125 26.36835479736328 C165.19415283203125 27.986717224121094 163.88241577148438 29.29804229736328 162.2644500732422 29.29804229736328 Z"></path>
<path fill="#DADDE1" fill-opacity="1.0"  filling="0" d="M23.002342224121094 88.41484069824219 C23.0078125 88.46172332763672 23.014846801757812 88.5082015991211 23.022659301757812 88.5550765991211 C23.030075073242188 88.60077667236328 23.037498474121094 88.646484375 23.047271728515625 88.69218444824219 C23.057029724121094 88.73905944824219 23.06914520263672 88.78515625 23.08124542236328 88.83125305175781 C23.09296417236328 88.8765640258789 23.10546875 88.9214859008789 23.119529724121094 88.966796875 C23.133590698242188 89.01171875 23.149612426757812 89.05624389648438 23.166015625 89.10038757324219 C23.18280792236328 89.14570617675781 23.199996948242188 89.19062805175781 23.219146728515625 89.23554229736328 C23.237106323242188 89.27812194824219 23.257423400878906 89.3199234008789 23.277732849121094 89.36210632324219 C23.29961395263672 89.4066390991211 23.321487426757812 89.4515609741211 23.346092224121094 89.49569702148438 C23.367965698242188 89.53594207763672 23.39141082763672 89.57461547851562 23.416015625 89.61405944824219 C23.442581176757812 89.6578140258789 23.470703125 89.70195007324219 23.5 89.7445297241211 C23.52617645263672 89.78280639648438 23.554298400878906 89.81953430175781 23.58281707763672 89.8570327758789 C23.614059448242188 89.89765930175781 23.645706176757812 89.93866729736328 23.679298400878906 89.978515625 C23.69219207763672 89.9937515258789 23.703514099121094 90.0101547241211 23.716796875 90.0250015258789 C23.737503051757812 90.048828125 23.760543823242188 90.0687484741211 23.78203582763672 90.091796875 C23.801956176757812 90.11288452148438 23.81952667236328 90.1351547241211 23.83984375 90.1558609008789 L29.987503051757812 96.30352020263672 C33.87812042236328 92.6324234008789 37.90546798706055 89.5718765258789 41.75273132324219 87.0503921508789 C61.466407775878906 74.1324234008789 84.76679992675781 69.529296875 99.99882507324219 69.529296875 C115.23125457763672 69.529296875 138.5324249267578 74.13203430175781 158.24649047851562 87.0503921508789 C162.13632202148438 89.59921264648438 166.21054077148438 92.6988296508789 170.140625 96.423828125 L176.29180908203125 90.2730484008789 C176.31407165527344 90.2503890991211 176.3328094482422 90.2265625 176.35467529296875 90.20352172851562 C176.37344360351562 90.18359375 176.39373779296875 90.166015625 176.41172790527344 90.14569854736328 C176.42538452148438 90.13008117675781 176.4367218017578 90.1136703491211 176.4503936767578 90.09765625 C176.48397827148438 90.05781555175781 176.51602172851562 90.017578125 176.54766845703125 89.9761734008789 C176.57577514648438 89.93866729736328 176.60391235351562 89.9019546508789 176.63046264648438 89.8636703491211 C176.65975952148438 89.82109069824219 176.6875 89.7777328491211 176.71444702148438 89.73397827148438 C176.73828125 89.69414520263672 176.7624969482422 89.65507507324219 176.78475952148438 89.61444854736328 C176.80899047851562 89.57109069824219 176.83087158203125 89.52694702148438 176.8527374267578 89.482421875 C176.87344360351562 89.4398422241211 176.89373779296875 89.3968734741211 176.91250610351562 89.353515625 C176.93124389648438 89.310546875 176.94766235351562 89.26640319824219 176.9640655517578 89.22265625 C176.98086547851562 89.17695617675781 176.99766540527344 89.1312484741211 177.01211547851562 89.0843734741211 C177.02578735351562 89.0414047241211 177.03790283203125 88.9976577758789 177.04962158203125 88.95390319824219 C177.06210327148438 88.9058609008789 177.07461547851562 88.85820770263672 177.08477783203125 88.8101577758789 C177.09375 88.76641082763672 177.1015625 88.7222671508789 177.1085968017578 88.67813110351562 C177.11679077148438 88.62968444824219 177.12460327148438 88.58125305175781 177.1300811767578 88.53202819824219 C177.13516235351562 88.48750305175781 177.13827514648438 88.44257354736328 177.1414031982422 88.39726257324219 C177.14453125 88.3492202758789 177.14764404296875 88.3011703491211 177.14804077148438 88.25312042236328 C177.14883422851562 88.2066421508789 177.14764404296875 88.1605453491211 177.14608764648438 88.11445617675781 C177.14492797851562 88.06758117675781 177.14297485351562 88.02069854736328 177.1394500732422 87.97383117675781 C177.13555908203125 87.92655944824219 177.1296844482422 87.87968444824219 177.12420654296875 87.8324203491211 C177.1179656982422 87.787109375 177.11248779296875 87.7417984008789 177.1042938232422 87.69648742675781 C177.09609985351562 87.6484375 177.0859375 87.6011734008789 177.07501220703125 87.55390930175781 C177.0652313232422 87.509765625 177.0546875 87.4652328491211 177.04296875 87.421875 C177.0300750732422 87.375 177.01522827148438 87.32890319824219 177.0 87.2828140258789 C176.9855499267578 87.23905944824219 176.97109985351562 87.19491577148438 176.95428466796875 87.15194702148438 C176.9375 87.107421875 176.91836547851562 87.06366729736328 176.8992156982422 87.02030944824219 C176.87969970703125 86.9761734008789 176.85975646972656 86.93203735351562 176.83828735351562 86.88906860351562 C176.8175811767578 86.8480453491211 176.7957000732422 86.80781555175781 176.77264404296875 86.76718139648438 C176.748046875 86.7230453491211 176.72265625 86.67890167236328 176.69570922851562 86.63593292236328 C176.67147827148438 86.59843444824219 176.64608764648438 86.56172180175781 176.6203155517578 86.52461242675781 C176.59024047851562 86.48124694824219 176.55938720703125 86.43827819824219 176.52655029296875 86.396484375 C176.4992218017578 86.361328125 176.4699249267578 86.32734680175781 176.44061279296875 86.2933578491211 C176.40545654296875 86.2523422241211 176.36953735351562 86.21249389648438 176.33203125 86.17304992675781 C176.318359375 86.15898132324219 176.30703735351562 86.14375305175781 176.29257202148438 86.12969207763672 C176.2722625732422 86.109375 176.25039672851562 86.091796875 176.22930908203125 86.0726547241211 C176.20742797851562 86.05195617675781 176.18788146972656 86.03007507324219 176.1652374267578 86.009765625 C172.6515655517578 82.892578125 168.78399658203125 79.94491577148438 164.6691436767578 77.2484359741211 C142.79843139648438 62.91679763793945 116.92227172851562 57.810546875 99.99882507324219 57.810546875 C83.076171875 57.810546875 57.20038986206055 62.91679763793945 35.32929229736328 77.2484359741211 C31.266014099121094 79.91094207763672 27.44414520263672 82.818359375 23.970703125 85.88906860351562 C23.947265625 85.9097671508789 23.92694854736328 85.93241882324219 23.904296875 85.95391082763672 C23.883201599121094 85.97421264648438 23.860549926757812 85.9917984008789 23.83984375 86.0121078491211 C23.826560974121094 86.025390625 23.815231323242188 86.04023742675781 23.801956176757812 86.05351257324219 C23.764060974121094 86.09296417236328 23.728515625 86.13320922851562 23.693359375 86.1742172241211 C23.6640625 86.20819854736328 23.635154724121094 86.2421875 23.607421875 86.27734375 C23.57421875 86.3187484741211 23.54375457763672 86.3617172241211 23.513282775878906 86.40508270263672 C23.48749542236328 86.44219207763672 23.461326599121094 86.4789047241211 23.4375 86.51718139648438 C23.41094207763672 86.55937194824219 23.38593292236328 86.60234069824219 23.361717224121094 86.64570617675781 C23.338279724121094 86.68672180175781 23.315231323242188 86.728515625 23.29413604736328 86.77031707763672 C23.273048400878906 86.8121109008789 23.25390625 86.85469055175781 23.235549926757812 86.89726257324219 C23.215232849121094 86.94219207763672 23.19609832763672 86.98750305175781 23.178123474121094 87.033203125 C23.162498474121094 87.0746078491211 23.1484375 87.1167984008789 23.134765625 87.15898132324219 C23.118743896484375 87.20703125 23.103126525878906 87.25508117675781 23.08984375 87.30351257324219 C23.078514099121094 87.3453140258789 23.068359375 87.3871078491211 23.058990478515625 87.42890167236328 C23.04804229736328 87.478515625 23.036720275878906 87.52851867675781 23.028121948242188 87.5785140991211 C23.02031707763672 87.62109375 23.015235900878906 87.6640625 23.009368896484375 87.70703125 C23.002731323242188 87.75663757324219 22.99687957763672 87.8062515258789 22.992965698242188 87.85624694824219 C22.98944854736328 87.900390625 22.98828125 87.9449234008789 22.986724853515625 87.98945617675781 C22.985153198242188 88.03828430175781 22.98358917236328 88.08671569824219 22.984375 88.13554382324219 C22.985153198242188 88.1812515258789 22.98828125 88.2269515991211 22.991409301757812 88.2730484008789 C22.993751525878906 88.3207015991211 22.99687957763672 88.36796569824219 23.002342224121094 88.41484069824219 Z"></path>
<path fill="#CCD1D9" fill-opacity="1.0"  filling="0" d="M88.28164672851562 48.044921875 C89.7890625 48.044921875 91.208984375 47.66289138793945 92.45039367675781 46.99140930175781 L104.1195297241211 57.90976333618164 C107.08984375 58.04336166381836 110.26874542236328 58.320701599121094 113.60429382324219 58.760154724121094 L96.38789367675781 42.65116882324219 C96.82734680175781 41.60624694824219 97.07070922851562 40.45936965942383 97.07070922851562 39.25625228881836 C97.07070922851562 34.41015625 93.12773132324219 30.467185974121094 88.28164672851562 30.467185974121094 C83.435546875 30.467185974121094 79.49258422851562 34.41015625 79.49258422851562 39.25625228881836 C79.49258422851562 44.101951599121094 83.43515014648438 48.044921875 88.28164672851562 48.044921875 Z"></path>
<path fill="#48CFAD" fill-opacity="1.0"  filling="0" d="M150.78280639648438 200.0 L49.21758270263672 200.0 C26.063278198242188 200.0 7.2253875732421875 181.162109375 7.2253875732421875 158.0078125 L7.2253875732421875 150.19610595703125 C7.2253875732421875 116.7054672241211 26.001174926757812 97.3714828491211 41.75273132324219 87.0503921508789 C61.466407775878906 74.1324234008789 84.76679992675781 69.529296875 99.99882507324219 69.529296875 C115.23125457763672 69.529296875 138.5324249267578 74.13203430175781 158.24649047851562 87.0503921508789 C173.99844360351562 97.37187957763672 192.77499389648438 116.7054672241211 192.77499389648438 150.19610595703125 L192.77499389648438 158.0078125 C192.77499389648438 181.162109375 173.93710327148438 200.0 150.78280639648438 200.0 Z"></path>
<path fill="#37BC9B" fill-opacity="1.0"  filling="0" d="M158.24609375 87.0503921508789 C138.53164672851562 74.1324234008789 115.2308578491211 69.529296875 99.9984359741211 69.529296875 C97.0230484008789 69.529296875 93.736328125 69.70780944824219 90.2320327758789 70.08711242675781 C104.6675796508789 71.6480484008789 122.8499984741211 76.65547180175781 138.712890625 87.0503921508789 C154.46484375 97.37187957763672 173.24139404296875 116.7054672241211 173.24139404296875 150.19610595703125 L173.24139404296875 158.0078125 C173.24139404296875 181.162109375 154.4035186767578 200.0 131.24920654296875 200.0 L150.78240966796875 200.0 C173.9367218017578 200.0 192.77459716796875 181.162109375 192.77459716796875 158.0078125 L192.77459716796875 150.19610595703125 C192.77499389648438 116.7054672241211 173.998046875 97.3714828491211 158.24609375 87.0503921508789 Z"></path>
<path fill="#DADDE1" fill-opacity="1.0"  filling="0" d="M86.38906860351562 58.76054763793945 C89.72578430175781 58.32109451293945 92.9058609008789 58.04336166381836 95.8765640258789 57.90976333618164 L107.5503921508789 46.99140930175781 C108.79179382324219 47.66328430175781 110.21171569824219 48.044921875 111.71914672851562 48.044921875 C116.56523895263672 48.044921875 120.50820922851562 44.101951599121094 120.50820922851562 39.255859375 C120.50820922851562 34.409759521484375 116.56523895263672 30.466796875 111.71914672851562 30.466796875 C106.873046875 30.466796875 102.93008422851562 34.409759521484375 102.93008422851562 39.255859375 C102.93008422851562 40.458984375 103.17343139648438 41.60624694824219 103.61288452148438 42.65116882324219 L86.38906860351562 58.76054763793945 Z"></path></svg>