<svg xmlns="http://www.w3.org/2000/svg" viewBox="0.0 0.0 200.0 200.0" height="200.0px" width="200.0px"><path fill="#edbf66" fill-opacity="1.0"  filling="0" d="M193.96054077148438 93.15194702148438 L6.039848327636719 93.15194702148438 C4.322265625 93.15194702148438 2.9296875 91.7593765258789 2.9296875 90.04180145263672 L2.9296875 78.708984375 C2.9296875 76.99140930175781 4.322265625 75.59883117675781 6.039848327636719 75.59883117675781 L193.96054077148438 75.59883117675781 C195.67813110351562 75.59883117675781 197.07070922851562 76.99140930175781 197.07070922851562 78.708984375 L197.07070922851562 90.04180145263672 C197.0703125 91.759765625 195.67813110351562 93.15194702148438 193.96054077148438 93.15194702148438 Z"></path>
<path fill="#877f87" fill-opacity="1.0"  filling="0" d="M165.1902313232422 123.00468444824219 L165.1902313232422 56.734378814697266 C165.1902313232422 45.047264099121094 162.28280639648438 33.543357849121094 156.7292938232422 23.259765625 C153.48475646972656 17.251564025878906 149.3839874267578 11.746482849121094 144.55548095703125 6.918357849121094 C143.27694702148438 5.6394500732421875 141.0871124267578 6.3703155517578125 140.83242797851562 8.160552978515625 L138.39178466796875 25.321876525878906 C135.15975952148438 48.04726791381836 133.53749084472656 70.97225952148438 133.53749084472656 93.92655944824219 L133.53749084472656 104.5218734741211 C133.53749084472656 106.0882797241211 134.59140014648438 107.45858764648438 136.10507202148438 107.86054229736328 L146.7960968017578 110.70039367675781 C148.3097686767578 111.10234069824219 149.36367797851562 112.47265625 149.36367797851562 114.0390625 L149.36367797851562 126.21953582763672 L165.1902313232422 123.00468444824219 Z"></path>
<path fill="#b5adb7" fill-opacity="1.0"  filling="0" d="M113.18086242675781 126.69686889648438 L113.18086242675781 64.3160171508789 C113.18086242675781 50.31523895263672 109.7421875 42.53242111206055 106.77930450439453 36.22382736206055 C104.9261703491211 32.27851104736328 102.56913757324219 28.582809448242188 99.6851577758789 25.314453125 C96.34765625 21.532424926757812 92.47734832763672 18.484375 88.19609069824219 17.787109375 C87.21952819824219 17.62812042236328 86.33124542236328 18.38593292236328 86.3003921508789 19.375 L83.4742202758789 109.01093292236328 C83.42265319824219 110.64374542236328 84.50390625 112.09648895263672 86.08280944824219 112.51600646972656 L95.6734390258789 115.06366729736328 C97.2125015258789 115.4722671508789 98.2835922241211 116.8656234741211 98.2835922241211 118.45781707763672 L98.2835922241211 129.72344970703125 L113.18086242675781 126.69686889648438 Z"></path>
<path fill="#e3e0e4" fill-opacity="1.0"  filling="0" d="M61.43789291381836 129.11952209472656 L61.43789291381836 73.369140625 C61.43789291381836 63.537109375 58.99179458618164 53.859764099121094 54.3203125 45.208595275878906 C51.59101486206055 40.153907775878906 48.141014099121094 35.523048400878906 44.07929611206055 31.461326599121094 C43.003509521484375 30.38555145263672 41.16132736206055 31.000389099121094 40.947265625 32.50664520263672 L38.894142150878906 46.943748474121094 C36.17499923706055 66.06132507324219 34.810546875 85.3472671508789 34.810546875 104.65742492675781 L34.810546875 113.5707015991211 C34.810546875 114.88829040527344 35.697265625 116.041015625 36.970699310302734 116.3792953491211 L45.964454650878906 118.76835632324219 C47.237892150878906 119.10663604736328 48.124610900878906 120.25938415527344 48.124610900878906 121.57695007324219 L48.124610900878906 131.82382202148438 L61.43789291381836 129.11952209472656 Z"></path>
<path fill="#d6a74b" fill-opacity="1.0"  filling="0" d="M193.96054077148438 75.59921264648438 L184.19491577148438 75.59921264648438 C185.91250610351562 75.59921264648438 187.30508422851562 76.9917984008789 187.30508422851562 78.7093734741211 L187.30508422851562 90.04218292236328 C187.30508422851562 91.759765625 185.91250610351562 93.15234375 184.19491577148438 93.15234375 L193.96054077148438 93.15234375 C195.67813110351562 93.15234375 197.07070922851562 91.759765625 197.07070922851562 90.04218292236328 L197.07070922851562 78.7093734741211 C197.0703125 76.99140930175781 195.67813110351562 75.59921264648438 193.96054077148438 75.59921264648438 Z"></path>
<path fill="#777078" fill-opacity="1.0"  filling="0" d="M146.9636688232422 23.259765625 C152.51678466796875 33.543357849121094 155.4246063232422 45.047264099121094 155.4246063232422 56.734378814697266 L155.4246063232422 121.9375 L164.51406860351562 121.9375 L164.51406860351562 56.734378814697266 C164.51406860351562 45.047264099121094 161.6066436767578 33.543357849121094 156.05313110351562 23.259765625 C152.80859375 17.251564025878906 148.7078094482422 11.746482849121094 143.87930297851562 6.918357849121094 C142.6007843017578 5.6394500732421875 140.4109344482422 6.3703155517578125 140.15625 8.160552978515625 L139.57733154296875 12.229690551757812 C142.3761749267578 15.663276672363281 144.85389709472656 19.352737426757812 146.9636688232422 23.259765625 Z"></path>
<path fill="#a59da7" fill-opacity="1.0"  filling="0" d="M89.9195327758789 25.314453125 C92.80351257324219 28.582809448242188 95.1605453491211 32.27851104736328 97.013671875 36.22382736206055 C99.9765625 42.53242111206055 103.41523742675781 50.314842224121094 103.41523742675781 64.3160171508789 L103.41523742675781 125.76054382324219 L113.18086242675781 125.76054382324219 L113.18086242675781 64.3160171508789 C113.18086242675781 50.31523895263672 109.7421875 42.53242111206055 106.77930450439453 36.22382736206055 C104.9261703491211 32.27851104736328 102.56913757324219 28.582809448242188 99.6851577758789 25.314453125 C96.34765625 21.532424926757812 92.47734832763672 18.484375 88.19609069824219 17.787109375 C87.21952819824219 17.62812042236328 86.33124542236328 18.38593292236328 86.3003921508789 19.375 L86.22734832763672 21.689453125 C87.5191421508789 22.763282775878906 88.75273132324219 23.9921875 89.9195327758789 25.314453125 Z"></path>
<path fill="#d4cfd5" fill-opacity="1.0"  filling="0" d="M51.67226791381836 73.369140625 L51.67226791381836 125.76016235351562 L61.43789291381836 125.76016235351562 L61.43789291381836 73.369140625 C61.43789291381836 63.537109375 58.99179458618164 53.859764099121094 54.3203125 45.208595275878906 C51.59101486206055 40.153907775878906 48.141014099121094 35.523048400878906 44.07929611206055 31.461326599121094 C43.003509521484375 30.38555145263672 41.16132736206055 31.000389099121094 40.947265625 32.50664520263672 L40.13203430175781 38.23906326293945 C41.763282775878906 40.455078125 43.244140625 42.781639099121094 44.55508041381836 45.208984375 C49.22616958618164 53.859764099121094 51.67226791381836 63.53750228881836 51.67226791381836 73.369140625 Z"></path>
<path fill="#fdd27a" fill-opacity="1.0"  filling="0" d="M162.63905334472656 193.72811889648438 C155.3074188232422 193.72811889648438 149.36407470703125 187.78475952148438 149.36407470703125 180.453125 L149.36407470703125 119.9281234741211 L165.1902313232422 119.9281234741211 L165.1902313232422 191.17733764648438 C165.1902313232422 192.5859375 164.0480499267578 193.72811889648438 162.63905334472656 193.72811889648438 Z"></path>
<path fill="#fdd27a" fill-opacity="1.0"  filling="0" d="M110.62969207763672 185.91561889648438 C103.81094360351562 185.91561889648438 98.283203125 180.3878936767578 98.283203125 173.56915283203125 L98.283203125 123.80078125 L113.18047332763672 123.80078125 L113.18047332763672 183.36444091796875 C113.18086242675781 184.7734375 112.0386734008789 185.91561889648438 110.62969207763672 185.91561889648438 Z"></path>
<path fill="#fdd27a" fill-opacity="1.0"  filling="0" d="M58.88671875 183.7078094482422 C52.94258117675781 183.7078094482422 48.12382507324219 178.88906860351562 48.12382507324219 172.94493103027344 L48.12382507324219 125.53242492675781 L61.43789291381836 125.53242492675781 L61.43789291381836 181.15663146972656 C61.43789291381836 182.5656280517578 60.29570007324219 183.7078094482422 58.88671875 183.7078094482422 Z"></path>
<path fill="#edbf66" fill-opacity="1.0"  filling="0" d="M155.4246063232422 119.9281234741211 L155.4246063232422 191.17733764648438 C155.4246063232422 191.31210327148438 155.4109344482422 191.44375610351562 155.39102172851562 191.57266235351562 C157.4753875732422 192.93399047851562 159.9640655517578 193.72811889648438 162.6394500732422 193.72811889648438 C164.04843139648438 193.72811889648438 165.1906280517578 192.5859375 165.1906280517578 191.17694091796875 L165.1906280517578 119.9281234741211 L155.4246063232422 119.9281234741211 Z"></path>
<path fill="#edbf66" fill-opacity="1.0"  filling="0" d="M103.41523742675781 123.80078125 L103.41523742675781 183.36444091796875 C103.41523742675781 183.4363250732422 103.41016387939453 183.5070343017578 103.404296875 183.57774353027344 C105.43592834472656 185.046875 107.93086242675781 185.91561889648438 110.62969207763672 185.91561889648438 C112.0386734008789 185.91561889648438 113.18086242675781 184.7734375 113.18086242675781 183.36444091796875 L113.18086242675781 123.80078125 L103.41523742675781 123.80078125 Z"></path>
<path fill="#edbf66" fill-opacity="1.0"  filling="0" d="M51.67226791381836 125.53242492675781 L51.67226791381836 180.9308624267578 C53.58124923706055 182.65625 56.11093521118164 183.7078094482422 58.88671875 183.7078094482422 C60.29570007324219 183.7078094482422 61.43789291381836 182.5656280517578 61.43789291381836 181.15663146972656 L61.43789291381836 125.53242492675781 L51.67226791381836 125.53242492675781 Z"></path>
<path fill="" fill-opacity="1.0"  filling="0" d="M193.96054077148438 72.66952514648438 L168.1199188232422 72.66952514648438 L168.1199188232422 56.734378814697266 C168.1199188232422 48.24687194824219 166.66366577148438 39.89336013793945 163.79180908203125 31.90625 C163.24453735351562 30.383590698242188 161.56600952148438 29.59296417236328 160.0437469482422 30.140625 C158.52108764648438 30.687889099121094 157.73085021972656 32.36640930175781 158.2781219482422 33.888671875 C160.9207000732422 41.237892150878906 162.2605438232422 48.92461395263672 162.2605438232422 56.734378814697266 L162.2605438232422 116.9984359741211 L152.29376220703125 116.9984359741211 L152.29376220703125 114.0390625 C152.29376220703125 111.1484375 150.34259033203125 108.6109390258789 147.54843139648438 107.8687515258789 L136.857421875 105.02890014648438 C136.6277313232422 104.96796417236328 136.46717834472656 104.75936889648438 136.46717834472656 104.5218734741211 L136.46717834472656 93.92655944824219 C136.46717834472656 71.18827819824219 138.0906219482422 48.24492263793945 141.2921905517578 25.734375 L143.5226593017578 10.051559448242188 C147.70391845703125 14.420700073242188 151.275390625 19.32538604736328 154.15118408203125 24.651954650878906 C154.919921875 26.075782775878906 156.69766235351562 26.606643676757812 158.12109375 25.83788299560547 C159.544921875 25.069137573242188 160.07577514648438 23.291793823242188 159.30702209472656 21.867965698242188 C155.92578125 15.606246948242188 151.65936279296875 9.879295349121094 146.626953125 4.8468780517578125 C145.2453155517578 3.4652328491210938 143.23516845703125 2.9910125732421875 141.38241577148438 3.6097640991210938 C139.52890014648438 4.228126525878906 138.20663452148438 5.814064025878906 137.931640625 7.748435974121094 L135.4910125732422 24.909767150878906 C133.24649047851562 40.69140625 131.76992797851562 56.68281173706055 131.0734405517578 72.669921875 L116.11054992675781 72.669921875 L116.11054992675781 64.31640625 C116.11054992675781 49.201171875 112.09062194824219 40.642189025878906 109.43086242675781 34.978904724121094 C107.40078735351562 30.65625762939453 104.86054229736328 26.752731323242188 101.88163757324219 23.376953125 C97.4937515258789 18.403907775878906 93.17109680175781 15.629684448242188 88.66679382324219 14.896095275878906 C87.37850952148438 14.686325073242188 86.05742645263672 15.044143676757812 85.0453109741211 15.877738952636719 C84.0234375 16.719528198242188 83.4136734008789 17.9609375 83.37187957763672 19.283203125 L81.68867492675781 72.669921875 L64.35624694824219 72.669921875 C64.2417984008789 62.62265396118164 61.673439025878906 52.66093444824219 56.89765930175781 43.81718444824219 C54.031639099121094 38.509376525878906 50.41562271118164 33.65546417236328 46.150386810302734 29.390235900878906 C44.863285064697266 28.10272979736328 42.990230560302734 27.66015625 41.26250076293945 28.236724853515625 C39.535152435302734 28.812889099121094 38.302345275878906 30.291015625 38.04609680175781 32.094146728515625 L35.99296569824219 46.53125 C34.762107849121094 55.185543060302734 33.80781555175781 63.91523361206055 33.12773895263672 72.66952514648438 L6.039848327636719 72.66952514648438 C2.7093734741210938 72.66952514648438 0.0 75.37890625 0.0 78.708984375 L0.0 90.04180145263672 C0.0 93.37226867675781 2.7093734741210938 96.08163452148438 6.039848327636719 96.08163452148438 L31.974220275878906 96.08163452148438 C31.9140625 98.94258117675781 31.880470275878906 101.80195617675781 31.880470275878906 104.65702819824219 L31.880470275878906 113.5703125 C31.880470275878906 116.212890625 33.6640625 118.53202819824219 36.21796798706055 119.21054077148438 L45.19413757324219 121.5765609741211 L45.19413757324219 122.60234069824219 L45.19413757324219 142.82266235351562 C45.19413757324219 144.4406280517578 46.505855560302734 145.75234985351562 48.12382507324219 145.75234985351562 C49.741790771484375 145.75234985351562 51.05351638793945 144.4406280517578 51.05351638793945 142.82266235351562 L51.05351638793945 128.4617156982422 L58.5078125 128.4617156982422 L58.5078125 180.7683563232422 C54.36367416381836 180.5703125 51.05351638793945 177.13671875 51.05351638793945 172.9441375732422 L51.05351638793945 154.54141235351562 C51.05351638793945 152.92343139648438 49.741790771484375 151.61172485351562 48.12382507324219 151.61172485351562 C46.505855560302734 151.61172485351562 45.19413757324219 152.92343139648438 45.19413757324219 154.54141235351562 L45.19413757324219 172.9441375732422 C45.19413757324219 180.494140625 51.33671569824219 186.63671875 58.88671875 186.63671875 C61.90898513793945 186.63671875 64.36758422851562 184.17813110351562 64.36758422851562 181.15625 L64.36758422851562 96.08163452148438 L80.95077514648438 96.08163452148438 L80.54609680175781 108.9183578491211 C80.451171875 111.93006896972656 82.4183578491211 114.57344055175781 85.3304672241211 115.34687042236328 L94.92070007324219 117.89413452148438 C95.17578125 117.96171569824219 95.353515625 118.193359375 95.353515625 118.45703125 L95.353515625 173.56875610351562 C95.353515625 181.9921875 102.20625305175781 188.84490966796875 110.6292953491211 188.84490966796875 C113.65156555175781 188.84490966796875 116.11015319824219 186.38632202148438 116.11015319824219 183.3640594482422 L116.11015319824219 96.08163452148438 L130.607421875 96.08163452148438 L130.607421875 104.52149200439453 C130.607421875 107.41250610351562 132.55899047851562 109.94961547851562 135.35272216796875 110.69140625 L146.04336547851562 113.53125762939453 C146.27305603027344 113.5921859741211 146.43359375 113.80077362060547 146.43359375 114.03866577148438 L146.43359375 180.45274353027344 C146.43359375 189.38829040527344 153.703125 196.65740966796875 162.63827514648438 196.65740966796875 C165.66055297851562 196.65740966796875 168.119140625 194.19882202148438 168.119140625 191.1765594482422 L168.119140625 96.08163452148438 L193.9597625732422 96.08163452148438 C197.28985595703125 96.08163452148438 199.99920654296875 93.37226867675781 199.99920654296875 90.04180145263672 L199.99920654296875 78.708984375 C200.0 75.37890625 197.29061889648438 72.66952514648438 193.96054077148438 72.66952514648438 Z M6.039848327636719 90.22225952148438 C5.9402313232421875 90.22225952148438 5.859375 90.14140319824219 5.859375 90.04180145263672 L5.859375 78.708984375 C5.859375 78.609375 5.9402313232421875 78.52851867675781 6.039848327636719 78.52851867675781 L32.71406555175781 78.52851867675781 C32.466796875 82.42500305175781 32.27265167236328 86.32421875 32.13554382324219 90.22225952148438 L6.039848327636719 90.22225952148438 Z M51.05351638793945 122.60273742675781 L51.05351638793945 121.57695007324219 C51.05351638793945 118.93437194824219 49.269920349121094 116.615234375 46.71601486206055 115.93672180175781 L37.73984146118164 113.5707015991211 L37.73984146118164 104.65742492675781 C37.73984146118164 85.55078125 39.10390853881836 66.27188110351562 41.79413986206055 47.35624694824219 L43.53437423706055 35.120704650878906 C46.73984146118164 38.58671951293945 49.495704650878906 42.44023513793945 51.742576599121094 46.60117721557617 C56.16875457763672 54.79765701293945 58.50820541381836 64.0542984008789 58.50820541381836 73.36953735351562 L58.50820541381836 122.60313415527344 L51.05351638793945 122.60313415527344 L51.05351638793945 122.60273742675781 Z M64.36758422851562 90.22225952148438 L64.36758422851562 78.52851867675781 L81.5042953491211 78.52851867675781 L81.13554382324219 90.22225952148438 L64.36758422851562 90.22225952148438 Z M110.25117492675781 182.978515625 C105.23359680175781 182.779296875 101.2132797241211 178.63516235351562 101.2132797241211 173.5695343017578 L101.2132797241211 126.73046875 L110.25117492675781 126.73046875 L110.25117492675781 182.978515625 Z M101.2132797241211 120.87109375 L101.2132797241211 118.45742797851562 C101.2132797241211 115.5406265258789 99.244140625 112.98046875 96.4253921508789 112.23163604736328 L86.83515930175781 109.68437194824219 C86.57186889648438 109.61445617675781 86.3941421508789 109.37539672851562 86.4027328491211 109.10311889648438 L89.1792984008789 21.037887573242188 C91.82500457763672 21.909767150878906 94.6128921508789 23.993751525878906 97.4886703491211 27.252731323242188 C100.10000610351562 30.212112426757812 102.333984375 33.64921569824219 104.12773132324219 37.46913528442383 C106.71211242675781 42.97187423706055 110.25155639648438 50.5078125 110.25155639648438 64.31562805175781 L110.25155639648438 120.87109375 L101.2132797241211 120.87109375 Z M116.11054992675781 78.52890014648438 L130.8566436767578 78.52890014648438 C130.7332000732422 82.4296875 130.654296875 86.32852172851562 130.62460327148438 90.22265625 L116.11054992675781 90.22265625 L116.11054992675781 78.52890014648438 Z M162.2605438232422 190.79141235351562 C156.73085021972656 190.59140014648438 152.29376220703125 186.0304718017578 152.29376220703125 180.45274353027344 L152.29376220703125 122.8578109741211 L162.2605438232422 122.8578109741211 L162.2605438232422 190.79141235351562 Z M194.140625 90.04218292236328 C194.140625 90.14179992675781 194.0597686767578 90.22265625 193.96054077148438 90.22265625 L168.1199188232422 90.22265625 L168.1199188232422 78.52890014648438 L193.96054077148438 78.52890014648438 C194.0597686767578 78.52890014648438 194.140625 78.6097640991211 194.140625 78.7093734741211 L194.140625 90.04218292236328 Z"></path></svg>