<svg xmlns="http://www.w3.org/2000/svg" viewBox="0.0 0.0 200.0 200.0" height="200.0px" width="200.0px"><path fill="#ffdfcf" fill-opacity="1.0"  filling="0" d="M150.33529663085938 98.5069580078125 L150.33529663085938 103.25811004638672 L154.98167419433594 106.87044525146484 C159.4225311279297 110.32278442382812 162.01974487304688 115.63247680664062 162.01974487304688 121.25730895996094 L162.01974487304688 127.23916625976562 C162.01974487304688 129.13963317871094 160.47915649414062 130.68063354492188 158.57827758789062 130.68063354492188 L121.83760070800781 130.68063354492188 L127.79126739501953 112.29660034179688 C128.96151733398438 110.22164916992188 130.5395965576172 108.3703384399414 132.4686737060547 106.870849609375 L137.11505126953125 103.25851440429688 L137.11505126953125 98.50735473632812 L137.11505126953125 87.68567657470703 L150.8301544189453 87.68567657470703 L150.33529663085938 98.5069580078125 Z"></path>
<path fill="#ffcebf" fill-opacity="1.0"  filling="0" d="M138.60206604003906 106.87044525146484 L139.4974822998047 106.17448425292969 C141.86419677734375 104.33448028564453 143.24844360351562 101.5047378540039 143.24844360351562 98.5069580078125 L143.24844360351562 87.68527221679688 L137.11505126953125 87.68527221679688 L137.11505126953125 98.5069580078125 L137.11505126953125 103.25811004638672 L132.4686737060547 106.87044525146484 C130.5395965576172 108.36994934082031 128.96151733398438 110.22124481201172 127.79126739501953 112.29618835449219 L121.83760070800781 130.68023681640625 L127.97098541259766 130.68023681640625 L133.92465209960938 112.29618835449219 C135.09490966796875 110.22164916992188 136.6733856201172 108.3703384399414 138.60206604003906 106.87044525146484 Z"></path>
<path fill="#ffdfcf" fill-opacity="1.0"  filling="0" d="M144.06488037109375 100.0 C149.87185668945312 100.0 154.5791015625 95.29277038574219 154.5791015625 89.48580169677734 L154.5791015625 82.20834350585938 C154.5791015625 76.4013671875 149.87185668945312 71.69413757324219 144.06488037109375 71.69413757324219 C138.25791931152344 71.69413757324219 133.55068969726562 76.4013671875 133.55068969726562 82.20834350585938 L133.55068969726562 89.48580169677734 C133.55068969726562 95.29277038574219 138.25791931152344 100.0 144.06488037109375 100.0 Z"></path>
<path fill="#99e6fc" fill-opacity="1.0"  filling="0" d="M115.08563232421875 103.25851440429688 L127.62926483154297 114.13056945800781 C133.7827911376953 119.46404266357422 137.3177490234375 127.20612335205078 137.3177490234375 135.34959411621094 L137.3177490234375 140.11647033691406 C137.3177490234375 142.10720825195312 135.7038116455078 143.7211456298828 133.71307373046875 143.7211456298828 L63.0848274230957 143.7211456298828 L44.5162239074707 143.7211456298828 L44.5162239074707 129.355224609375 L100.20149230957031 95.88958740234375 L115.08563232421875 103.25851440429688 Z"></path>
<path fill="#baafb9" fill-opacity="1.0"  filling="0" d="M121.83800506591797 65.99435424804688 L121.83800506591797 57.75901412963867 C121.83800506591797 50.951438903808594 116.31916809082031 45.43260192871094 109.51158142089844 45.43260192871094 L92.4735107421875 45.43260192871094 L89.03888702392578 40.48680114746094 C88.48196411132812 39.68486785888672 87.38787078857422 39.47249221801758 86.57142639160156 40.007652282714844 C81.57525634765625 43.28228759765625 78.56538391113281 48.85432434082031 78.56538391113281 54.828128814697266 L78.56538391113281 65.99435424804688 L80.75881958007812 68.9393539428711 L91.07234191894531 82.64598083496094 C91.07234191894531 82.64598083496094 118.75115966796875 75.39190673828125 118.75115966796875 75.3709487915039 C118.7507553100586 75.3495864868164 121.83800506591797 65.99435424804688 121.83800506591797 65.99435424804688 Z"></path>
<path fill="#aa9ea9" fill-opacity="1.0"  filling="0" d="M91.46363067626953 68.9393539428711 L89.27020263671875 65.99435424804688 L89.27020263671875 54.828128814697266 C89.27020263671875 51.30082702636719 90.32682037353516 47.91778564453125 92.21479034423828 45.060646057128906 L89.03849029541016 40.48680114746094 C88.4815673828125 39.68486785888672 87.3874740600586 39.47249221801758 86.57102966308594 40.007652282714844 C81.5748519897461 43.28228759765625 78.56497955322266 48.85432434082031 78.56497955322266 54.828128814697266 L78.56497955322266 65.99435424804688 L80.75840759277344 68.9393539428711 L91.07192993164062 82.64598083496094 C91.07192993164062 82.64598083496094 95.06307220458984 81.59983825683594 100.01329803466797 80.30143737792969 L91.46363067626953 68.9393539428711 Z"></path>
<path fill="#ffdfcf" fill-opacity="1.0"  filling="0" d="M84.8079833984375 96.8224868774414 C80.94902038574219 92.91517639160156 78.56497955322266 87.54785919189453 78.56497955322266 81.62200164794922 L78.56497955322266 65.99395751953125 C92.98932647705078 62.23292541503906 107.41366577148438 62.23292541503906 121.83760070800781 65.99395751953125 L121.83760070800781 68.62503051757812 L121.83760070800781 93.43341064453125 L96.98811340332031 105.40156555175781 L84.8079833984375 96.8224868774414 Z"></path>
<path fill="#ffcebf" fill-opacity="1.0"  filling="0" d="M95.53214263916016 93.08684539794922 C91.67318725585938 89.17952728271484 89.28913879394531 83.81221008300781 89.28913879394531 77.88636016845703 L89.28913879394531 63.89240264892578 C85.71469116210938 64.36268615722656 82.13983917236328 65.062255859375 78.56497955322266 65.99435424804688 L78.56497955322266 81.62240600585938 C78.56497955322266 87.54785919189453 80.94902038574219 92.91517639160156 84.8079833984375 96.82289123535156 L96.98851776123047 105.40238189697266 L106.50736236572266 100.81805419921875 L95.53214263916016 93.08684539794922 Z"></path>
<path fill="#ffdfcf" fill-opacity="1.0"  filling="0" d="M69.63247680664062 108.37840270996094 C69.10014343261719 107.84526062011719 68.53636932373047 107.339111328125 67.93391418457031 106.870849609375 L63.28752899169922 103.25851440429688 L63.28752899169922 98.50735473632812 L63.28752899169922 85.84727478027344 L50.06729507446289 85.84727478027344 L50.06729507446289 98.50735473632812 L50.06729507446289 103.25851440429688 L45.42091751098633 106.870849609375 C40.98005294799805 110.32319641113281 38.382835388183594 115.63288116455078 38.382835388183594 121.2577133178711 L38.382835388183594 131.88998413085938 L38.382835388183594 141.5950164794922 L74.29296875 121.11908721923828 L69.63247680664062 108.37840270996094 Z"></path>
<path fill="#ffcebf" fill-opacity="1.0"  filling="0" d="M44.5162239074707 131.88958740234375 L44.5162239074707 121.25730895996094 C44.5162239074707 115.63247680664062 47.11384201049805 110.32278442382812 51.55430221557617 106.87044525146484 L54.54805374145508 104.5428237915039 C55.59056854248047 103.73241424560547 56.20028305053711 102.485595703125 56.20028305053711 101.16502380371094 L56.20028305053711 98.5069580078125 L56.20028305053711 85.84687042236328 L50.06689453125 85.84687042236328 L50.06689453125 98.5069580078125 L50.06689453125 103.25811004638672 L45.420509338378906 106.87044525146484 C40.979652404785156 110.32278442382812 38.38243103027344 115.63247680664062 38.38243103027344 121.25730895996094 L38.38243103027344 131.88958740234375 L38.38243103027344 141.5946044921875 L44.51581954956055 138.09751892089844 L44.51581954956055 131.88958740234375 L44.5162239074707 131.88958740234375 Z"></path>
<path fill="#ffcebf" fill-opacity="1.0"  filling="0" d="M139.68365478515625 89.48580169677734 L139.68365478515625 82.20834350585938 C139.68365478515625 77.46847534179688 142.82046508789062 73.46241760253906 147.13116455078125 72.14990997314453 C146.16079711914062 71.85452270507812 145.131591796875 71.69413757324219 144.06448364257812 71.69413757324219 C138.25750732421875 71.69413757324219 133.55027770996094 76.4013671875 133.55027770996094 82.20834350585938 L133.55027770996094 89.48580169677734 C133.55027770996094 95.29277038574219 138.25750732421875 100.0 144.06448364257812 100.0 C145.131591796875 100.0 146.16482543945312 99.84001922607422 147.1352081298828 99.54463195800781 C142.82492065429688 98.23211669921875 139.68365478515625 94.22566986083984 139.68365478515625 89.48580169677734 Z"></path>
<path fill="#f37c7c" fill-opacity="1.0"  filling="0" d="M100.0 0.0 C155.22869873046875 0.0 200.0 44.77130889892578 200.0 100.0 C200.0 155.22869873046875 155.22869873046875 200.0 100.0 200.0 C44.77130889892578 200.0 0.0 155.22869873046875 0.0 100.0 C0.0 44.77130889892578 44.77130889892578 0.0 100.0 0.0 Z M98.63792419433594 178.69032287597656 C143.7880401611328 179.45599365234375 180.55612182617188 141.70059204101562 178.62583923339844 96.58673858642578 C178.1422576904297 85.27906799316406 175.2730255126953 74.59197998046875 170.509765625 65.00907135009766 C169.76828002929688 63.522064208984375 167.8621826171875 63.07072067260742 166.5404052734375 64.07817840576172 L47.68889617919922 154.57989501953125 C46.36308670043945 155.58734130859375 46.29861068725586 157.54986572265625 47.539794921875 158.662109375 C61.148502349853516 170.84022521972656 79.0167236328125 178.3558349609375 98.63792419433594 178.69032287597656 Z M152.31109619140625 45.42010498046875 C153.6369171142578 44.41265106201172 153.70140075683594 42.450130462646484 152.460205078125 41.3379020690918 C138.85150146484375 29.15978240966797 120.9832763671875 21.6441650390625 101.3620834350586 21.3096923828125 C56.211971282958984 20.544021606445312 19.443885803222656 58.299415588378906 21.374168395996094 103.41728973388672 C21.857749938964844 114.72093200683594 24.72698211669922 125.40802764892578 29.49022674560547 134.99093627929688 C30.231712341308594 136.4779510498047 32.1378173828125 136.92929077148438 33.45960235595703 135.9218292236328 L152.31109619140625 45.42010498046875 Z"></path>
<path fill="#ffdfcf" fill-opacity="1.0"  filling="0" d="M56.67781448364258 100.0 C62.48478698730469 100.0 67.1920166015625 95.29277038574219 67.1920166015625 89.48580169677734 L67.1920166015625 82.20834350585938 C67.1920166015625 76.4013671875 62.48478698730469 71.69413757324219 56.67781448364258 71.69413757324219 C50.870845794677734 71.69413757324219 46.16360855102539 76.4013671875 46.16360855102539 82.20834350585938 L46.16360855102539 89.48580169677734 C46.1632080078125 95.29277038574219 50.870845794677734 100.0 56.67781448364258 100.0 Z"></path>
<path fill="#ffcebf" fill-opacity="1.0"  filling="0" d="M52.29659652709961 89.48580169677734 L52.29659652709961 82.20834350585938 C52.29659652709961 77.46847534179688 55.43905258178711 73.4608154296875 59.74974822998047 72.14830017089844 C58.77936553955078 71.85291290283203 57.744510650634766 71.69413757324219 56.67741394042969 71.69413757324219 C50.87044143676758 71.69413757324219 46.1632080078125 76.4013671875 46.1632080078125 82.20834350585938 L46.1632080078125 89.48580169677734 C46.1632080078125 95.29277038574219 50.87044143676758 100.0 56.67741394042969 100.0 C57.744510650634766 100.0 58.77936553955078 99.83961486816406 59.74974822998047 99.54422760009766 C55.43905258178711 98.2317123413086 52.29659652709961 94.22566986083984 52.29659652709961 89.48580169677734 Z"></path></svg>