<svg xmlns="http://www.w3.org/2000/svg" viewBox="0.0 0.0 200.0 200.0" height="200.0px" width="200.0px"><path fill="#f0f2fa" fill-opacity="1.0"  filling="0" d="M155.078125 198.41172790527344 C154.81094360351562 198.41172790527344 154.54257202148438 198.41015625 154.275390625 198.40548706054688 L140.72109985351562 198.21173095703125 L140.541015625 165.23907470703125 L140.6984405517578 198.21017456054688 L56.78085708618164 196.99571228027344 L56.883201599121094 195.35821533203125 C57.56210708618164 184.626953125 57.15937423706055 173.80508422851562 55.68827819824219 163.19140625 C57.142578125 173.85118103027344 57.541011810302734 184.724609375 56.849609375 195.50938415527344 L56.75507354736328 196.994140625 L42.69882583618164 196.7926025390625 C40.88437271118164 196.76524353027344 39.28202438354492 196.66603088378906 38.02812194824219 195.74142456054688 C36.07030487060547 194.28555297851562 35.890228271484375 191.53750610351562 35.987884521484375 188.7847900390625 C36.376949310302734 177.36680603027344 36.779685974121094 165.55625915527344 39.79804229736328 154.2863311767578 C42.15858840942383 145.4621124267578 47.24140548706055 133.29766845703125 58.033592224121094 125.46524810791016 C60.37577819824219 123.76719665527344 62.917964935302734 122.32969665527344 65.37773132324219 120.93946838378906 C67.7230453491211 119.61212158203125 70.1507797241211 118.24024200439453 72.390625 116.65196228027344 C74.0785140991211 115.45429992675781 75.57538604736328 114.15391540527344 76.8402328491211 112.78829193115234 L78.439453125 111.06250762939453 L79.4097671508789 113.2066421508789 C81.25898742675781 117.29141235351562 83.4242172241211 121.23125457763672 85.8460922241211 124.91445922851562 C86.43476104736328 125.81016540527344 87.80976867675781 127.90547180175781 89.75507354736328 127.90547180175781 C89.7718734741211 127.90547180175781 89.884765625 127.90547180175781 89.92460632324219 127.9039077758789 C90.62187194824219 127.86563110351562 91.2750015258789 127.56485748291016 91.9097671508789 126.98516845703125 L94.62578582763672 124.51016235351562 L93.95429229736328 149.03125 C93.91484069824219 150.45469665527344 93.8707046508789 152.07070922851562 94.314453125 153.53985595703125 C94.80741882324219 155.17111206054688 95.88789367675781 156.40274047851562 97.20468139648438 156.82969665527344 C97.56913757324219 156.94728088378906 97.94296264648438 157.0070343017578 98.3109359741211 157.0070343017578 C100.24102020263672 157.0070343017578 101.91484069824219 155.48556518554688 102.6519546508789 154.07110595703125 C103.6988296508789 152.06134033203125 103.7261734008789 149.58633422851562 103.7476577758789 147.5968780517578 L104.01445007324219 125.19219970703125 L106.333984375 126.55039978027344 C106.857421875 126.85704040527344 107.38516235351562 127.08282470703125 107.89961242675781 127.22187805175781 C108.474609375 127.38203430175781 109.0667953491211 127.46133422851562 109.6664047241211 127.46133422851562 C112.24687957763672 127.46133422851562 115.07734680175781 126.01172637939453 117.4332046508789 123.48477172851562 C118.4996109008789 122.34024810791016 119.45195007324219 121.06328582763672 120.37344360351562 119.82734680175781 C121.560546875 118.22813415527344 122.7828140258789 116.58321380615234 124.27812194824219 115.20391082763672 C124.27812194824219 115.20234680175781 125.1664047241211 114.03515625 125.1664047241211 114.03515625 L126.37344360351562 114.78594207763672 C128.42578125 116.06134033203125 130.685546875 117.00743103027344 132.8703155517578 117.92149353027344 L132.9343719482422 117.94883728027344 C134.30157470703125 118.51953887939453 135.71328735351562 119.11172485351562 137.05743408203125 119.77383422851562 C147.5753936767578 124.98165130615234 155.978515625 135.94961547851562 160.1121063232422 149.86251831054688 C163.83828735351562 162.40704345703125 164.0382843017578 175.66836547851562 164.23046875 188.49337768554688 C164.2746124267578 191.4140625 164.15859985351562 194.39845275878906 162.2605438232422 196.33322143554688 C160.47500610351562 198.1597900390625 157.7546844482422 198.41172790527344 155.078125 198.41172790527344 Z"></path>
<path fill="#fff" fill-opacity="1.0"  filling="0" d="M53.626949310302734 125.68828582763672 C53.28046417236328 106.63282012939453 53.23476028442383 78.13282012939453 56.81913757324219 50.75390625 C57.30585861206055 47.033592224121094 57.93320083618164 42.639060974121094 58.91093444824219 38.253910064697266 L59.20859146118164 36.91875457763672 L60.57109069824219 37.037498474121094 C71.693359375 38.00507736206055 82.96952819824219 38.496490478515625 94.08711242675781 38.496490478515625 C108.72343444824219 38.496490478515625 123.5062484741211 37.654300689697266 138.0281219482422 35.994140625 L139.38125610351562 35.83984375 L139.71875 37.159767150878906 C139.95352172851562 38.07968521118164 140.1671905517578 38.98163986206055 140.3503875732422 39.84062194824219 C142.6300811767578 50.49726486206055 142.64999389648438 61.52812576293945 142.66954040527344 72.19688415527344 L142.7781219482422 123.17032623291016 L140.36563110351562 121.62306213378906 C139.28985595703125 120.93360137939453 138.18048095703125 120.30470275878906 137.07110595703125 119.75547790527344 C135.70391845703125 119.07969665527344 134.27110290527344 118.4800796508789 132.8859405517578 117.90157318115234 C130.31015014648438 116.82266998291016 127.89765930175781 115.81563568115234 125.67890930175781 114.30821228027344 C122.1390609741211 111.90782165527344 118.7027359008789 107.72695922851562 119.00625610351562 103.79804992675781 L119.0445327758789 103.31133270263672 L119.35273742675781 102.93125915527344 C120.4789047241211 101.54727172851562 121.5269546508789 100.0015640258789 122.46562194824219 98.33672332763672 C125.2640609741211 93.4921875 126.91484069824219 87.70586395263672 127.52070617675781 80.63671875 C127.552734375 80.23672485351562 127.62890625 79.69375610351562 127.71758270263672 79.06484985351562 L127.7281265258789 78.98554992675781 C128.15391540527344 75.93241882324219 128.5078125 72.7906265258789 127.783203125 70.87422180175781 L127.60469055175781 70.40117645263672 L127.7359390258789 69.9140625 C127.6304702758789 68.65859985351562 127.8746109008789 67.1875 128.08984375 65.88906860351562 L128.103515625 65.8082046508789 C128.23046875 65.02227020263672 128.36288452148438 64.2105484008789 128.4210968017578 63.45508575439453 C128.591796875 61.15273666381836 128.6789093017578 58.830078125 128.6789093017578 56.56289291381836 C128.6789093017578 52.62773895263672 127.50390625 49.923831939697266 124.98164367675781 48.05156707763672 C122.61054992675781 46.29219436645508 119.50077819824219 45.92734146118164 116.52070617675781 45.70625686645508 C112.3824234008789 45.40234375 108.11758422851562 45.24843978881836 103.84375 45.24843978881836 C97.40585327148438 45.24843978881836 90.798828125 45.59648895263672 84.20429992675781 46.28437423706055 C80.6640625 46.656639099121094 76.9789047241211 47.21054458618164 74.27070617675781 49.45976257324219 C67.5980453491211 55.01250457763672 69.65780639648438 67.91523742675781 70.53828430175781 73.4253921508789 L70.89374542236328 73.92266082763672 L70.81913757324219 74.52383422851562 C69.845703125 82.22500610351562 71.73320007324219 90.3257827758789 75.9964828491211 96.75 C77.41719055175781 98.88594055175781 79.1078109741211 100.86211395263672 81.01953125 102.6246109008789 L81.64530944824219 103.20117950439453 L81.5003890991211 104.0406265258789 C80.447265625 110.11054992675781 75.333984375 114.53243255615234 72.38007354736328 116.62891387939453 C70.10663604736328 118.24180603027344 67.58711242675781 119.66407012939453 65.3656234741211 120.919921875 L65.32577514648438 120.94102478027344 C62.87382507324219 122.33125305175781 60.33632278442383 123.76719665527344 58.02304458618164 125.44844818115234 C57.400386810302734 125.89727020263672 56.78241729736328 126.375 56.18281173706055 126.86758422851562 L53.68671798706055 128.91993713378906 L53.626949310302734 125.68828582763672 Z"></path>
<path fill="#fff" fill-opacity="1.0"  filling="0" d="M93.52734375 29.290626525878906 C83.77851867675781 29.290626525878906 73.92108917236328 28.802345275878906 64.22734069824219 27.83984375 L62.06523132324219 27.624610900878906 L62.95624542236328 25.64374542236328 C64.2210922241211 22.828514099121094 65.69844055175781 20.239059448242188 67.34297180175781 17.947265625 C73.73359680175781 9.036323547363281 84.0484390258789 3.0031280517578125 94.9339828491211 1.8097610473632812 C96.28594207763672 1.661712646484375 97.6683578491211 1.5871124267578125 99.04179382324219 1.5871124267578125 C108.6929702758789 1.5871124267578125 118.28007507324219 5.244529724121094 125.34648132324219 11.62109375 C129.11367797851562 15.023826599121094 132.33047485351562 19.28398895263672 134.9074249267578 24.284378051757812 L135.9191436767578 26.246482849121094 L133.73126220703125 26.548828125 C120.4742202758789 28.367576599121094 106.9488296508789 29.290626525878906 93.52734375 29.290626525878906 Z"></path>
<path fill="#fff" fill-opacity="1.0"  filling="0" d="M109.66484832763672 127.43516540527344 C109.06523132324219 127.43516540527344 108.4761734008789 127.35586547851562 107.91484069824219 127.20039367675781 C104.2328109741211 126.18399047851562 102.48125457763672 122.23828887939453 101.89961242675781 120.58868408203125 C101.39453125 119.16797637939453 101.06953430175781 117.73360443115234 100.72616577148438 116.21719360351562 L100.7171859741211 116.17266845703125 C100.46992492675781 115.07891082763672 100.25312042236328 114.16328430175781 99.99687957763672 113.24453735351562 L99.427734375 111.20156860351562 L101.5472640991211 111.26250457763672 C101.806640625 111.27031707763672 102.06758117675781 111.27774047851562 102.330078125 111.27774047851562 C105.5542984008789 111.27774047851562 108.53125 110.66876220703125 111.181640625 109.46797943115234 C113.13008117675781 108.58907318115234 114.998046875 107.33047485351562 116.734375 105.72344970703125 L118.5699234008789 104.02813720703125 L119.29179382324219 106.4195327758789 C119.96758270263672 108.66250610351562 121.68437194824219 111.08087158203125 124.001953125 113.05703735351562 L125.31718444824219 114.181640625 L124.0660171508789 115.37618255615234 C122.66836547851562 116.71133422851562 121.49491882324219 118.283203125 120.35977172851562 119.80274200439453 C119.4000015258789 121.09375762939453 118.4921875 122.31602478027344 117.4195327758789 123.46797943115234 C115.10000610351562 125.95196533203125 112.2007827758789 127.43516540527344 109.66484832763672 127.43516540527344 Z"></path>
<path fill="#fff" fill-opacity="1.0"  filling="0" d="M98.29570007324219 156.97618103027344 C97.92500305175781 156.97618103027344 97.5601577758789 156.91836547851562 97.21211242675781 156.80703735351562 C95.90312194824219 156.37969970703125 94.83203125 155.15586853027344 94.33905792236328 153.53555297851562 C93.90116882324219 152.08126831054688 93.94062805175781 150.54766845703125 93.9789047241211 149.06329345703125 L94.67461395263672 123.72267150878906 C94.67461395263672 123.72267150878906 94.67461395263672 123.72267150878906 94.67304992675781 123.72267150878906 C94.67147827148438 123.72267150878906 94.66719055175781 123.70313262939453 94.6624984741211 123.68321228027344 L94.5542984008789 123.12149810791016 L94.83319854736328 122.62422180175781 C95.94258117675781 120.63594818115234 96.98320007324219 118.611328125 97.921875 116.60313415527344 L99.84453582763672 112.49688720703125 L100.86054992675781 116.91445922851562 C101.1796875 118.30274963378906 101.47538757324219 119.46094512939453 101.87382507324219 120.59767150878906 C102.3421859741211 121.92227172851562 102.951171875 123.10195922851562 103.68672180175781 124.09962463378906 L103.99609375 124.52071380615234 L103.724609375 147.59219360351562 C103.6988296508789 149.69923400878906 103.67108917236328 152.06446838378906 102.62890625 154.05899047851562 C101.89961242675781 155.46250915527344 100.2320327758789 156.97618103027344 98.29570007324219 156.97618103027344 Z"></path>
<path fill="#fff" fill-opacity="1.0"  filling="0" d="M89.76445007324219 127.88398742675781 C88.0433578491211 127.88398742675781 86.77812194824219 126.28945922851562 85.8671875 124.89766693115234 C83.1328125 120.73672485351562 80.7464828491211 116.29336547851562 78.7734375 111.6929702758789 L78.43632507324219 110.90547180175781 L78.9183578491211 110.19728088378906 C79.93632507324219 108.70352172851562 80.6898422241211 107.150390625 81.15702819824219 105.57696533203125 L81.79609680175781 103.42578125 L83.5921859741211 104.7730484008789 C87.3792953491211 107.61251068115234 91.783203125 109.63438415527344 96.32577514648438 110.6171875 C96.96054077148438 110.75118255615234 97.60273742675781 110.86875915527344 98.228515625 110.96211242675781 L100.21366882324219 111.25782012939453 L99.4398422241211 113.1089859008789 C97.75702667236328 117.14024353027344 95.77030944824219 121.08164978027344 93.5347671508789 124.82461547851562 C92.71406555175781 126.19923400878906 91.55899047851562 127.78945922851562 89.9124984741211 127.87930297851562 C89.865234375 127.88243103027344 89.8148422241211 127.88398742675781 89.76445007324219 127.88398742675781 Z"></path>
<path fill="#644c4c" fill-opacity="1.0"  filling="0" d="M102.33477020263672 111.2535171508789 C100.38436889648438 111.2535171508789 98.3628921508789 111.03047943115234 96.32891082763672 110.58946228027344 C88.0843734741211 108.81329345703125 80.68085479736328 103.76289367675781 76.017578125 96.73477172851562 C71.56991577148438 90.03594207763672 69.7265625 81.626953125 70.95780944824219 73.66328430175781 L71.15625 72.384765625 L72.45038604736328 72.34024047851562 C72.49140930175781 72.33906555175781 72.53437805175781 72.33906555175781 72.57538604736328 72.33906555175781 C74.470703125 72.33906555175781 76.35820007324219 73.79141235351562 77.6078109741211 75.00898742675781 L77.68710327148438 75.0855484008789 C79.33203125 76.69219207763672 81.18124389648438 78.49883270263672 83.376953125 78.49883270263672 C83.5296859741211 78.49883270263672 83.6851577758789 78.49140930175781 83.83944702148438 78.47461700439453 C85.33476257324219 78.306640625 86.55078125 77.30860137939453 87.72578430175781 76.34297180175781 L88.34843444824219 75.83476257324219 L88.77851104736328 75.48828125 L88.79374694824219 75.48828125 C92.28827667236328 72.76289367675781 96.38983917236328 70.08828735351562 100.6636734008789 70.08828735351562 C102.79218292236328 70.08828735351562 104.8675765991211 70.75508117675781 106.83281707763672 72.06719207763672 C107.408203125 72.453125 107.94218444824219 72.87734985351562 108.50820922851562 73.3277359008789 L107.57304382324219 74.57891082763672 L108.54180145263672 73.35352325439453 C109.92890930175781 74.45234680175781 111.36328125 75.5875015258789 113.11015319824219 75.822265625 C113.34687805175781 75.85469055175781 113.58633422851562 75.86992645263672 113.82304382324219 75.86992645263672 C116.24922180175781 75.86992645263672 118.3042984008789 74.16094207763672 120.1171875 72.65312957763672 C120.39961242675781 72.41836547851562 120.67890930175781 72.189453125 120.95195007324219 71.9664077758789 C121.1761703491211 71.78788757324219 121.39453125 71.603515625 121.623046875 71.40664672851562 C122.84375 70.36601257324219 123.8617172241211 69.55547332763672 124.94219207763672 69.3359375 C125.19375610351562 69.28398895263672 125.4195327758789 69.26133728027344 125.634765625 69.26133728027344 C126.21172332763672 69.26133728027344 126.6953125 69.43827819824219 127.07499694824219 69.78907012939453 C128.31405639648438 70.95625305175781 128.48046875 73.44648742675781 127.70234680175781 78.98554992675781 L127.69180297851562 79.06327819824219 C127.60624694824219 79.69219207763672 127.53125 80.23359680175781 127.498046875 80.63359832763672 C126.890625 87.70156860351562 125.23945617675781 93.48750305175781 122.4457015991211 98.32305145263672 C120.361328125 102.009765625 116.70820617675781 106.94415283203125 111.173828125 109.4468765258789 C108.5234375 110.64610290527344 105.54960632324219 111.2535171508789 102.33477020263672 111.2535171508789 Z M99.826171875 80.99687957763672 C98.21484375 82.52735137939453 96.81719207763672 83.85157012939453 94.39102172851562 84.11250305175781 C94.2183609008789 84.12930297851562 94.05194854736328 84.14141082763672 93.88594055175781 84.15391540527344 C93.150390625 84.21328735351562 92.423828125 84.2710952758789 91.84257507324219 84.66484832763672 C91.22148132324219 85.08438110351562 90.904296875 85.7925796508789 90.6968765258789 86.36172485351562 C89.08085632324219 90.77930450439453 91.1910171508789 96.2417984008789 95.39961242675781 98.54297637939453 C96.84765625 99.33477020263672 98.54413604736328 99.75273895263672 100.306640625 99.75273895263672 C103.3843765258789 99.75273895263672 106.41484069824219 98.46485137939453 108.4136734008789 96.30430603027344 C110.671875 93.86602020263672 111.57852172851562 90.62032318115234 111.189453125 86.38164520263672 C110.98320770263672 84.14297485351562 110.04961395263672 83.70508575439453 108.50507354736328 83.70508575439453 C108.17265319824219 83.70508575439453 107.83984375 83.7281265258789 107.546875 83.74922180175781 C107.1640625 83.7769546508789 106.7320327758789 83.80742645263672 106.2972640991211 83.80742645263672 C105.7386703491211 83.80742645263672 105.2582015991211 83.75547790527344 104.82772827148438 83.64883422851562 C102.7984390258789 83.14375305175781 101.451171875 81.87109375 100.29765319824219 80.57266235351562 L100.28515625 80.56953430175781 L99.826171875 80.99687957763672 Z"></path>
<path fill="#5b5d6d" fill-opacity="1.0"  filling="0" d="M94.12850952148438 38.462890625 C83.1175765991211 38.462890625 71.98944854736328 37.98672103881836 61.05194854736328 37.04844284057617 L59.20273208618164 36.88984680175781 L59.675777435302734 35.09375 C60.25703048706055 32.87968444824219 60.92851257324219 30.75390625 61.668357849121094 28.779693603515625 L62.09101486206055 27.650390625 L63.29023361206055 27.77422332763672 C73.32148742675781 28.802345275878906 83.48710632324219 29.32421875 93.50273895263672 29.32421875 C107.09219360351562 29.32421875 120.80703735351562 28.375396728515625 134.2667999267578 26.503128051757812 C134.2804718017578 26.498435974121094 135.728515625 25.885162353515625 135.728515625 25.885162353515625 L136.34805297851562 27.298049926757812 C137.29257202148438 29.453903198242188 138.1300811767578 31.712501525878906 138.8367156982422 34.013275146484375 L139.38751220703125 35.814064025878906 L137.5183563232422 36.02461242675781 C123.201171875 37.64179611206055 108.60272979736328 38.462890625 94.12850952148438 38.462890625 Z"></path>
<path fill="#efb17c" fill-opacity="1.0"  filling="0" d="M83.3968734741211 78.47148895263672 C81.1859359741211 78.47148895263672 79.34101104736328 76.66797637939453 77.71444702148438 75.07774353027344 L77.63827514648438 75.00468444824219 C75.83320617675781 73.2437515258789 74.07695007324219 72.31758117675781 72.54960632324219 72.31758117675781 C72.36015319824219 72.31758117675781 72.17109680175781 72.33281707763672 71.98788452148438 72.36172485351562 L70.41796875 72.61367797851562 L70.193359375 71.04023742675781 C68.63554382324219 60.119537353515625 69.97538757324219 53.06563186645508 74.2874984741211 49.476566314697266 C76.98202514648438 47.23359680175781 80.6640625 46.681251525878906 84.2054672241211 46.308990478515625 C90.779296875 45.620704650878906 97.37226104736328 45.27265548706055 103.80233764648438 45.27265548706055 C108.0855484008789 45.27265548706055 112.36250305175781 45.42851638793945 116.5191421508789 45.73359680175781 C119.49140930175781 45.948829650878906 122.5921859741211 46.30742263793945 124.96484375 48.068363189697266 C127.44766235351562 49.910160064697266 128.654296875 52.68867111206055 128.654296875 56.56132888793945 C128.654296875 58.865238189697266 128.56600952148438 61.18632888793945 128.39219665527344 63.45820617675781 C128.34024047851562 64.20000457763672 128.21484375 64.96562194824219 128.08242797851562 65.77461242675781 L128.06405639648438 65.88438415527344 C127.94648742675781 66.6031265258789 127.84257507324219 67.24687194824219 127.775390625 67.88320922851562 L127.60469055175781 69.49453735351562 L126.00077819824219 69.26563262939453 C125.8804702758789 69.24726867675781 125.75390625 69.2398452758789 125.62578582763672 69.2398452758789 C125.40742492675781 69.2398452758789 125.1722640991211 69.26406860351562 124.923828125 69.31289672851562 C123.7640609741211 69.552734375 122.56913757324219 70.56875610351562 121.609375 71.38516235351562 C121.38984680175781 71.57734680175781 121.1578140258789 71.7710952758789 120.94258117675781 71.94375610351562 C120.7320327758789 72.11445617675781 120.51679992675781 72.29141235351562 120.298828125 72.47305297851562 L120.09883117675781 72.63789367675781 C118.27851867675781 74.14688110351562 116.2339859008789 75.84375762939453 113.80156707763672 75.84532165527344 C113.57266235351562 75.84532165527344 113.34062194824219 75.82852172851562 113.1148452758789 75.79961395263672 C111.3617172241211 75.56016540527344 109.9351577758789 74.42617797851562 108.55390167236328 73.32929992675781 C108.0 72.88984680175781 107.42813110351562 72.43789672851562 106.84491729736328 72.04883575439453 C104.8050765991211 70.68476867675781 102.78008270263672 70.0210952758789 100.65312194824219 70.0210952758789 C96.25703430175781 70.0210952758789 91.96484375 72.94609832763672 88.34687805175781 75.80860137939453 C88.1332015991211 75.9765625 87.92265319824219 76.14883422851562 87.71366882324219 76.32148742675781 C86.537109375 77.287109375 85.3226547241211 78.28359985351562 83.83320617675781 78.44844055175781 C83.68827819824219 78.46367645263672 83.5433578491211 78.47148895263672 83.3968734741211 78.47148895263672 Z"></path>
<path fill="#efb17c" fill-opacity="1.0"  filling="0" d="M100.28984832763672 99.72071075439453 C98.53515625 99.72071075439453 96.84765625 99.30587005615234 95.4085922241211 98.51992797851562 C91.2125015258789 96.2281265258789 89.10820007324219 90.77774047851562 90.71797180175781 86.369140625 C91.02460479736328 85.53008270263672 91.37422180175781 85.00977325439453 91.853515625 84.68476867675781 C92.4378890991211 84.29102325439453 93.15780639648438 84.23633575439453 93.85546875 84.1812515258789 C94.064453125 84.1675796508789 94.23359680175781 84.15391540527344 94.4000015258789 84.13711547851562 C96.3515625 83.927734375 97.67460632324219 83.029296875 99.17304229736328 81.64531707763672 L100.24726104736328 80.6519546508789 L101.30937957763672 81.66055297851562 C102.4156265258789 82.71172332763672 103.53242492675781 83.3511734008789 104.82344055175781 83.67149353027344 C105.25663757324219 83.78008270263672 105.740234375 83.8316421508789 106.30351257324219 83.8316421508789 C106.74453735351562 83.8316421508789 107.18827819824219 83.79961395263672 107.5453109741211 83.77383422851562 C108.0062484741211 83.7417984008789 108.3695297241211 83.71562957763672 108.677734375 83.71562957763672 C110.91914367675781 83.71562957763672 111.0777359008789 85.45234680175781 111.16328430175781 86.38477325439453 C111.55859375 90.6753921508789 110.6781234741211 93.82188415527344 108.39375305175781 96.28907012939453 C106.40702819824219 98.43594360351562 103.376953125 99.72071075439453 100.28984832763672 99.72071075439453 Z"></path>
<path fill="" fill-opacity="1.0"  filling="0" d="M165.81875610351562 188.50079345703125 C165.62655639648438 175.55859375 165.42813110351562 162.17657470703125 161.634765625 149.41250610351562 C158.26251220703125 138.06759643554688 152.1085968017578 128.61485290527344 144.28399658203125 122.48673248291016 C144.3312530517578 122.33594512939453 144.36328125 122.17852783203125 144.36328125 122.01250457763672 L144.25820922851562 72.19219207763672 C144.23672485351562 61.43476486206055 144.2140655517578 50.31132888793945 141.9035186767578 39.51093673706055 C140.0789031982422 30.982810974121094 135.91015625 19.017189025878906 126.4097671508789 10.442962646484375 C117.94453430175781 2.8031234741210938 106.11249542236328 -1.0132904052734375 94.76171875 0.232025146484375 C83.43672180175781 1.4738235473632812 72.705078125 7.751556396484375 66.05233764648438 17.024215698242188 C61.920310974121094 22.784378051757812 59.41327667236328 29.461715698242188 57.736324310302734 36.41054916381836 C57.71171569824219 36.482425689697266 57.69648361206055 36.55859375 57.68280792236328 36.636329650878906 C56.58866882324219 41.22148132324219 55.85038757324219 45.919925689697266 55.24452590942383 50.549224853515625 C51.55937194824219 78.72148132324219 51.681636810302734 108.50508880615234 52.09491729736328 128.47149658203125 C44.299217224121094 136.2824249267578 40.296871185302734 146.28439331054688 38.26445007324219 153.87734985351562 C35.20507049560547 165.30899047851562 34.79608917236328 177.21719360351562 34.40077209472656 188.73126220703125 C34.332420349121094 190.72422790527344 34.190223693847656 194.86993408203125 37.07889938354492 197.01251220703125 C38.84413528442383 198.32150268554688 41.058197021484375 198.35353088378906 42.67421340942383 198.37814331054688 L154.25430297851562 199.9937744140625 C154.51055908203125 199.99688720703125 154.76837158203125 200.0 155.029296875 200.0 C157.99569702148438 200.0 161.203125 199.6871337890625 163.400390625 197.44259643554688 C165.71954345703125 195.07305908203125 165.86602783203125 191.72657775878906 165.81875610351562 188.50079345703125 Z M63.13163757324219 29.325775146484375 C73.22383117675781 30.36328125 83.36328125 30.885154724121094 93.5042953491211 30.885154724121094 C107.21601867675781 30.885154724121094 120.92578125 29.937896728515625 134.5124969482422 28.047271728515625 C134.65585327148438 28.025779724121094 134.78866577148438 27.981643676757812 134.9152374267578 27.926559448242188 C135.89492797851562 30.151565551757812 136.6945343017578 32.359375 137.3445281982422 34.471092224121094 C112.1031265258789 37.32304763793945 86.49609375 37.66484451293945 61.18632507324219 35.49335479736328 C61.73398208618164 33.41523742675781 62.373435974121094 31.350784301757812 63.13163757324219 29.325775146484375 Z M68.611328125 18.858200073242188 C74.74960327148438 10.301170349121094 84.654296875 4.508979797363281 95.10507202148438 3.361328125 C105.57695007324219 2.2125015258789062 116.490234375 5.734375 124.29961395263672 12.780860900878906 C128.29296875 16.384765625 131.2804718017578 20.655860900878906 133.51914978027344 25.0 C110.6246109008789 28.143356323242188 87.37812805175781 28.570709228515625 64.3828125 26.283203125 C65.54413604736328 23.6953125 66.93280792236328 21.20038604736328 68.611328125 18.858200073242188 Z M58.36796569824219 50.95820617675781 C58.88827896118164 46.97734832763672 59.50468444824219 42.78242111206055 60.435543060302734 38.59257888793945 C71.61250305175781 39.564456939697266 82.84765625 40.05742263793945 94.08711242675781 40.05742263793945 C108.83163452148438 40.05742263793945 123.58086395263672 39.216800689697266 138.20663452148438 37.54413986206055 C138.4367218017578 38.449222564697266 138.64297485351562 39.328128814697266 138.8230438232422 40.16875076293945 C141.06289672851562 50.646881103515625 141.0859375 61.60273742675781 141.1085968017578 72.19844055175781 L141.20938110351562 120.30782318115234 C140.087890625 119.59063720703125 138.93905639648438 118.93633270263672 137.7624969482422 118.35313415527344 C136.35116577148438 117.65430450439453 134.89219665527344 117.04570770263672 133.48086547851562 116.45664978027344 C130.998046875 115.4175796508789 128.6515655517578 114.43789672851562 126.5546875 113.01563262939453 C123.4390640258789 110.90235137939453 120.3125 107.19921875 120.564453125 103.91680908203125 C121.74063110351562 102.47032165527344 122.83320617675781 100.86211395263672 123.82656860351562 99.10430145263672 C126.73633575439453 94.06758117675781 128.453125 88.06914520263672 129.0773468017578 80.76797485351562 C129.109375 80.39414978027344 129.185546875 79.84297180175781 129.27383422851562 79.20391082763672 C129.7531280517578 75.7828140258789 130.08438110351562 72.53711700439453 129.24493408203125 70.32148742675781 C129.2863311767578 70.1597671508789 129.3074188232422 69.9921875 129.29376220703125 69.8179702758789 C129.20547485351562 68.73320770263672 129.421875 67.41796875 129.630859375 66.14375305175781 C129.7683563232422 65.29844665527344 129.91172790527344 64.42422485351562 129.9757843017578 63.57890701293945 C130.15274047851562 61.25508117675781 130.2414093017578 58.894535064697266 130.23985290527344 56.56289291381836 C130.23985290527344 52.15156173706055 128.82383728027344 48.95625305175781 125.91094207763672 46.79570388793945 C123.201171875 44.783206939697266 119.84257507324219 44.386329650878906 116.63671875 44.14960861206055 C106.1019515991211 43.37773513793945 95.13554382324219 43.57304763793945 84.041015625 44.732818603515625 C80.2613296508789 45.12773513793945 76.3167953491211 45.724613189697266 73.27265930175781 48.255863189697266 C65.91484069824219 54.37773895263672 68.07109069824219 67.89688110351562 68.9925765991211 73.67109680175781 C69.03241729736328 73.91796875 69.13163757324219 74.13945770263672 69.26718139648438 74.33008575439453 C68.24336242675781 82.421875 70.173828125 90.80508422851562 74.693359375 97.61367797851562 C76.19648742675781 99.87657165527344 77.970703125 101.94258117675781 79.9574203491211 103.77500915527344 C79.00546264648438 109.2652359008789 74.2890625 113.35742950439453 71.47382354736328 115.3550796508789 C69.30390167236328 116.89610290527344 66.90975952148438 118.24961853027344 64.59648132324219 119.55860137939453 C62.09257507324219 120.97461700439453 59.50312423706055 122.43946838378906 57.101558685302734 124.18203735351562 C56.443748474121094 124.65977478027344 55.80741882324219 125.154296875 55.189449310302734 125.66056060791016 C54.82929229736328 105.87305450439453 54.87382507324219 77.65977478027344 58.36796569824219 50.95820617675781 Z M71.7421875 70.81914520263672 C70.89374542236328 64.87890625 70.0804672241211 55.00938034057617 75.28671264648438 50.677345275878906 C77.6519546508789 48.71054458618164 81.0699234008789 48.208595275878906 84.36874389648438 47.863670349121094 C95.2789077758789 46.72382736206055 106.05780792236328 46.53007507324219 116.40625 47.29023742675781 C119.15116882324219 47.49140930175781 122.0015640258789 47.814842224121094 124.03398132324219 49.324222564697266 C126.11836242675781 50.87109375 127.09062957763672 53.17070770263672 127.09062957763672 56.56289291381836 C127.091796875 58.81484603881836 127.00508117675781 61.096099853515625 126.8355484008789 63.34062576293945 C126.78242492675781 64.0503921508789 126.65547180175781 64.81953430175781 126.52265930175781 65.63398742675781 C126.4097671508789 66.32070922851562 126.29688262939453 67.01797485351562 126.21914672851562 67.716796875 C125.7582015991211 67.65156555175781 125.22734832763672 67.65742492675781 124.62149047851562 67.78242492675781 C123.05899047851562 68.10000610351562 121.693359375 69.26289367675781 120.59648895263672 70.19648742675781 C120.375 70.38438415527344 120.16445922851562 70.56562805175781 119.9644546508789 70.72618103027344 C119.68086242675781 70.95352172851562 119.39530944824219 71.18984985351562 119.10391235351562 71.43242645263672 C117.2730484008789 72.95390319824219 115.380859375 74.52696228027344 113.32109832763672 74.24922180175781 C112.00273895263672 74.07070922851562 110.798828125 73.11563110351562 109.5230484008789 72.10546875 C108.94609069824219 71.64765930175781 108.349609375 71.17461395263672 107.7132797241211 70.74883270263672 C100.333984375 65.8125 93.57929992675781 69.67461395263672 87.37812805175781 74.58203125 C87.158203125 74.75430297851562 86.93867492675781 74.93437957763672 86.71875 75.11445617675781 C85.67500305175781 75.97187805175781 84.689453125 76.78086853027344 83.66093444824219 76.89531707763672 C82.00390625 77.07969665527344 80.37577819824219 75.49453735351562 78.80546569824219 73.9625015258789 L78.7171859741211 73.87539672851562 C76.30780792236328 71.52422332763672 73.88008117675781 70.47578430175781 71.7421875 70.81914520263672 Z M72.501953125 73.90156555175781 C74.01445007324219 73.849609375 75.75703430175781 75.38750457763672 76.51835632324219 76.13086700439453 L76.60663604736328 76.21601867675781 C78.50507354736328 78.068359375 80.8656234741211 80.37422180175781 84.00898742675781 80.02461242675781 C85.96484375 79.80821228027344 87.4281234741211 78.6070327758789 88.71757507324219 77.54960632324219 C88.923828125 77.3804702758789 89.12812805175781 77.21250915527344 89.3324203491211 77.05078125 C95.41913604736328 72.23516082763672 100.578125 69.76484680175781 105.96484375 73.36719512939453 C106.494140625 73.72148895263672 107.01445007324219 74.13477325439453 107.5667953491211 74.57266235351562 C109.046875 75.74610137939453 110.72383117675781 77.07656860351562 112.89961242675781 77.36953735351562 C116.330078125 77.83203125 118.98516082763672 75.626953125 121.1167984008789 73.85547637939453 C121.39453125 73.62383270263672 121.6675796508789 73.39765930175781 121.9375 73.1812515258789 C122.15898895263672 73.00273132324219 122.39375305175781 72.8042984008789 122.63789367675781 72.5953140258789 C123.4605484008789 71.896484375 124.4828109741211 71.02500915527344 125.25039672851562 70.86797332763672 C125.81640625 70.7535171508789 125.9644546508789 70.8921890258789 126.01171875 70.93828582763672 C127.10586547851562 71.96367645263672 126.41445922851562 76.90742492675781 126.15508270263672 78.76875305175781 C126.05899047851562 79.45117950439453 125.9765625 80.04141235351562 125.93827819824219 80.49922180175781 C125.35546875 87.33047485351562 123.7730484008789 92.90000915527344 121.09219360351562 97.54023742675781 C119.1148452758789 101.03750610351562 115.67695617675781 105.69609832763672 110.53007507324219 108.02149200439453 C105.5374984741211 110.27851867675781 100.2320327758789 109.83438110351562 96.6597671508789 109.06368255615234 C88.80937194824219 107.36993408203125 81.759765625 102.5621109008789 77.31796264648438 95.87109375 C73.0589828491211 89.45625305175781 71.32577514648438 81.50196075439453 72.501953125 73.90156555175781 Z M95.9945297241211 112.14141082763672 C96.6171875 112.27734375 97.29023742675781 112.40078735351562 97.998046875 112.50625610351562 C96.34257507324219 116.47032165527344 94.39530944824219 120.34141540527344 92.19218444824219 124.02500915527344 C91.61836242675781 124.98477172851562 90.7484359741211 126.26797485351562 89.82539367675781 126.31836700439453 C89.0703125 126.36563110351562 88.2066421508789 125.61485290527344 87.1734390258789 124.04492950439453 C84.48163604736328 119.94648742675781 82.1441421508789 115.58673095703125 80.2093734741211 111.07930755615234 C81.32344055175781 109.44375610351562 82.142578125 107.74687957763672 82.6539077758789 106.02110290527344 C86.5921859741211 108.97813415527344 91.154296875 111.09766387939453 95.9945297241211 112.14141082763672 Z M95.5414047241211 149.07383728027344 L96.23554992675781 123.76406860351562 C96.240234375 123.63438415527344 96.22187805175781 123.5093765258789 96.19609069824219 123.38555908203125 C97.3160171508789 121.38672637939453 98.3671875 119.34219360351562 99.337890625 117.26367950439453 C99.630859375 118.54102325439453 99.951171875 119.84101867675781 100.40274047851562 121.11836242675781 C100.9261703491211 122.60274505615234 101.61444854736328 123.91680145263672 102.43086242675781 125.02891540527344 L102.1636734008789 147.57540893554688 C102.140625 149.49337768554688 102.1148452758789 151.66915893554688 101.2464828491211 153.33712768554688 C100.5738296508789 154.6281280517578 99.0234375 155.7511749267578 97.69609832763672 155.31915283203125 C96.7269515991211 155.0050811767578 96.10000610351562 153.95664978027344 95.8343734741211 153.08087158203125 C95.46524047851562 151.86172485351562 95.50469207763672 150.44415283203125 95.5414047241211 149.07383728027344 Z M103.37226104736328 120.06993103027344 C102.89453125 118.71797180175781 102.57734680175781 117.31250762939453 102.23983764648438 115.82656860351562 C102.0171890258789 114.83907318115234 101.7835922241211 113.83047485351562 101.5015640258789 112.82500457763672 C101.77616882324219 112.83399963378906 102.0523452758789 112.83868408203125 102.3316421508789 112.83868408203125 C105.31600952148438 112.83868408203125 108.61054992675781 112.34571838378906 111.82695007324219 110.89179992675781 C113.94062805175781 109.93672180175781 115.94258117675781 108.58008575439453 117.7964859008789 106.86953735351562 C118.6265640258789 109.62813568115234 120.6480484008789 112.24806213378906 122.984375 114.2457046508789 C121.49649047851562 115.66758728027344 120.28202819824219 117.29296875 119.10859680175781 118.869140625 C118.17031860351562 120.12930297851562 117.28359985351562 121.31954193115234 116.2734375 122.40312957763672 C114.306640625 124.51172637939453 111.18632507324219 126.48477172851562 108.3296890258789 125.69570922851562 C105.357421875 124.87500762939453 103.8726577758789 121.48750305175781 103.37226104736328 120.06993103027344 Z M161.14805603027344 195.23907470703125 C159.63125610351562 196.78945922851562 156.93203735351562 196.88125610351562 154.29843139648438 196.84454345703125 L142.2761688232422 196.67071533203125 L142.103515625 165.23126220703125 C142.0988311767578 164.36172485351562 141.40625 163.658203125 140.52110290527344 163.66563415527344 C139.6515655517578 163.67031860351562 138.94961547851562 164.37969970703125 138.9542999267578 165.24961853027344 L139.125 196.6246337890625 L58.44413757324219 195.45587158203125 C59.12773132324219 184.6343994140625 58.72343444824219 173.71368408203125 57.23710632324219 162.97618103027344 C57.11679458618164 162.11407470703125 56.32187271118164 161.51446533203125 55.460933685302734 161.63165283203125 C54.59882354736328 161.75079345703125 53.99765396118164 162.54571533203125 54.11679458618164 163.40782165527344 C55.58163833618164 173.98829650878906 55.97538757324219 184.74884033203125 55.29179382324219 195.41172790527344 L42.71992111206055 195.22853088378906 C41.17890167236328 195.20704650878906 39.833194732666016 195.13555908203125 38.954288482666016 194.48399353027344 C37.58241653442383 193.46603393554688 37.46796417236328 191.169921875 37.54726028442383 188.83984375 C37.93632507324219 177.50079345703125 38.339054107666016 165.77774047851562 41.30546569824219 154.69219970703125 C43.60194778442383 146.11056518554688 48.52890396118164 134.29258728027344 58.95077896118164 126.7320327758789 C61.208980560302734 125.09454345703125 63.719139099121094 123.67384338378906 66.1468734741211 122.30078887939453 C68.53047180175781 120.95195770263672 70.9945297241211 119.55704498291016 73.29570007324219 117.92461395263672 C75.083984375 116.65508270263672 76.65234375 115.28789520263672 77.986328125 113.85039520263672 C79.85546875 117.98399353027344 82.052734375 121.98633575439453 84.5414047241211 125.77345275878906 C85.21405792236328 126.79766082763672 86.970703125 129.47071838378906 89.75663757324219 129.47071838378906 C89.8359375 129.47071838378906 89.91719055175781 129.4679718017578 89.998046875 129.46328735351562 C91.197265625 129.3976593017578 92.1675796508789 128.86798095703125 92.96562957763672 128.1417999267578 L92.39335632324219 148.98672485351562 C92.35078430175781 150.53244018554688 92.30351257324219 152.2843780517578 92.81914520263672 153.99180603027344 C93.46015167236328 156.11251831054688 94.91875457763672 157.72853088378906 96.71953582763672 158.31446838378906 C97.25508117675781 158.48829650878906 97.7874984741211 158.5695343017578 98.3109359741211 158.5695343017578 C100.76445007324219 158.5695343017578 102.98749542236328 156.81016540527344 104.0390625 154.79296875 C105.25508117675781 152.45822143554688 105.287109375 149.77110290527344 105.31172180175781 147.61367797851562 L105.544921875 127.90078735351562 C106.166015625 128.26251220703125 106.814453125 128.5460968017578 107.4906234741211 128.732421875 C108.19844055175781 128.927734375 108.92656707763672 129.02383422851562 109.66796875 129.02383422851562 C112.6753921508789 129.02383422851562 115.87812805175781 127.44609832763672 118.5777359008789 124.55156707763672 C119.705078125 123.34141540527344 120.68633270263672 122.02461242675781 121.63398742675781 120.75039672851562 C122.8316421508789 119.14219665527344 123.9625015258789 117.62227630615234 125.33711242675781 116.34962463378906 C125.4164047241211 116.27656555175781 125.48672485351562 116.19727325439453 125.54765319824219 116.11328887939453 C127.69766235351562 117.45000457763672 130.015625 118.42188262939453 132.26641845703125 119.36173248291016 C133.6320343017578 119.93243408203125 135.04336547851562 120.52305603027344 136.36483764648438 121.17774200439453 C146.4921875 126.19023895263672 154.60195922851562 136.80860900878906 158.615234375 150.31134033203125 C162.28477478027344 162.65704345703125 162.48008728027344 175.81954956054688 162.66952514648438 188.54844665527344 C162.70742797851562 191.10861206054688 162.6222686767578 193.73477172851562 161.14805603027344 195.23907470703125 Z"></path>
<path fill="" fill-opacity="1.0"  filling="0" d="M94.650390625 99.91289520263672 C96.3851547241211 100.86211395263672 98.33984375 101.31680297851562 100.306640625 101.31680297851562 C103.72773742675781 101.31680297851562 107.18241882324219 99.93750762939453 109.5625 97.36640930175781 C112.13671875 94.58477020263672 113.1773452758789 90.94375610351562 112.744140625 86.23672485351562 C112.33984375 81.84219360351562 109.14921569824219 82.0679702758789 107.43399047851562 82.18984985351562 C106.67109680175781 82.24336242675781 105.880859375 82.29961395263672 105.20625305175781 82.13203430175781 C103.6820297241211 81.75196075439453 102.609375 80.81836700439453 101.46796417236328 79.533203125 C101.185546875 79.21601867675781 100.78750610351562 79.025390625 100.36328125 79.0054702758789 C99.9359359741211 78.98554992675781 99.5238265991211 79.13984680175781 99.21406555175781 79.4296875 L98.7578125 79.86133575439453 C97.2289047241211 81.30937957763672 96.12422180175781 82.35469055175781 94.22616577148438 82.55781555175781 C94.0703125 82.57461547851562 93.91015625 82.58672332763672 93.75 82.59883117675781 C92.92460632324219 82.66289520263672 91.89765167236328 82.74063110351562 90.9683609008789 83.37109375 C89.96562194824219 84.05000305175781 89.49569702148438 85.09688568115234 89.2289047241211 85.826171875 C87.3597640991211 90.939453125 89.79179382324219 97.2593765258789 94.650390625 99.91289520263672 Z M92.1859359741211 86.9078140258789 C92.36601257324219 86.41524505615234 92.55078125 86.10234832763672 92.73358917236328 85.978515625 C92.9703140258789 85.81680297851562 93.48905944824219 85.77734375 93.99102020263672 85.73906707763672 C94.181640625 85.72383117675781 94.37265014648438 85.71015930175781 94.5601577758789 85.69023895263672 C97.11445617675781 85.41719055175781 98.75468444824219 84.15547180175781 100.23359680175781 82.79414367675781 C101.33203125 83.83477020263672 102.650390625 84.74140930175781 104.44647979736328 85.18828582763672 C105.60625457763672 85.47657012939453 106.74296569824219 85.39571380615234 107.65703582763672 85.33164978027344 C109.4878921508789 85.20195770263672 109.486328125 85.20040130615234 109.60859680175781 86.5250015258789 C109.9593734741211 90.34414672851562 109.21015930175781 93.1089859008789 107.25077819824219 95.22539520263672 C104.49844360351562 98.19961547851562 99.62773132324219 99.04336547851562 96.16093444824219 97.14961242675781 C92.6742172241211 95.24375915527344 90.8539047241211 90.55313110351562 92.1859359741211 86.9078140258789 Z"></path></svg>