<svg xmlns="http://www.w3.org/2000/svg" viewBox="0.0 0.0 200.0 200.0" height="200.0px" width="200.0px"><path fill="#cbb0f2" fill-opacity="1.0"  filling="0" d="M148.20703125 70.40312194824219 L129.90664672851562 88.7035140991211 C123.34219360351562 95.2679672241211 118.89179992675781 103.60624694824219 117.037109375 112.81680297851562 C113.95195770263672 128.13632202148438 106.47969055175781 142.0749969482422 95.42890930175781 153.12579345703125 L93.17460632324219 155.3800811767578 C79.87968444824219 168.6750030517578 62.23554611206055 176.81405639648438 43.49297332763672 178.29803466796875 C38.31757736206055 178.70782470703125 34.454689025878906 183.2351531982422 34.86405944824219 188.41055297851562 C35.04765319824219 190.73046875 36.05859375 192.78671264648438 37.58477020263672 194.3125 C39.462886810302734 196.19061279296875 42.12109375 197.26522827148438 44.9765625 197.0390625 C68.17460632324219 195.20233154296875 90.01289367675781 185.12890625 106.46797180175781 168.673828125 L108.7222671508789 166.41952514648438 C122.39999389648438 152.74180603027344 131.64805603027344 135.48983764648438 135.466796875 116.52812957763672 C136.58827209472656 110.9593734741211 139.26210021972656 105.93476104736328 143.20001220703125 101.99726867675781 L163.34375 81.853515625 L148.20703125 70.40312194824219 Z"></path>
<path fill="#b696ef" fill-opacity="1.0"  filling="0" d="M108.72071075439453 166.41952514648438 L106.466796875 168.67343139648438 C90.01289367675781 185.12734985351562 68.17578125 195.20352172851562 44.9765625 197.0402374267578 C42.12070846557617 197.26678466796875 39.463279724121094 196.189453125 37.58515548706055 194.31134033203125 C36.12968826293945 192.85586547851562 35.13789367675781 190.9140625 34.894920349121094 188.720703125 C35.47773742675781 188.7898406982422 36.07968521118164 188.80078125 36.69023513793945 188.75390625 C59.889060974121094 186.91717529296875 81.7265625 176.8410186767578 98.18046569824219 160.38711547851562 L100.43437194824219 158.13320922851562 C114.11249542236328 144.455078125 123.3597640991211 127.20313262939453 127.1800765991211 108.24101257324219 C128.3015594482422 102.67266082763672 130.97811889648438 97.6484375 134.9140625 93.71211242675781 L153.9089813232422 74.7171859741211 L163.3445281982422 81.85429382324219 L143.20037841796875 101.9984359741211 C139.2644500732422 105.93437194824219 136.587890625 110.95858764648438 135.46640014648438 116.52734375 C131.646484375 135.4894561767578 122.39883422851562 152.74180603027344 108.72071075439453 166.41952514648438 Z"></path>
<path fill="#cbb0f2" fill-opacity="1.0"  filling="0" d="M118.14570617675781 36.65546798706055 L98.001953125 56.79922103881836 C94.064453125 60.736717224121094 89.0394515991211 63.41093826293945 83.470703125 64.53202819824219 C64.50898742675781 68.35078430175781 47.25703048706055 77.59883117675781 33.57929229736328 91.27656555175781 L31.324996948242188 93.5308609008789 C14.869918823242188 109.98593139648438 4.7960968017578125 131.82382202148438 2.9597625732421875 155.0222625732422 C2.7335968017578125 157.8777313232422 3.808197021484375 160.5359344482422 5.686332702636719 162.4140625 C7.212104797363281 163.93984985351562 9.268363952636719 164.951171875 11.588279724121094 165.134765625 C16.763282775878906 165.54452514648438 21.291015625 161.68124389648438 21.700782775878906 156.505859375 C23.18476104736328 137.76329040527344 31.323829650878906 120.119140625 44.618751525878906 106.82421875 L46.873046875 104.5699234008789 C57.923828125 93.5191421508789 71.86250305175781 86.04727172851562 87.18203735351562 82.96171569824219 C96.392578125 81.1070327758789 104.7308578491211 76.65702819824219 111.29530334472656 70.09219360351562 L129.595703125 51.79179763793945 L118.14570617675781 36.65546798706055 Z"></path>
<path fill="#615260" fill-opacity="1.0"  filling="0" d="M165.10116577148438 43.937503814697266 L187.005859375 22.032806396484375 C187.73985290527344 21.298828125 188.9304656982422 21.298828125 189.66444396972656 22.032806396484375 L190.4621124267578 22.830467224121094 C199.2722625732422 31.640625 199.2722625732422 45.92461013793945 190.4621124267578 54.734375 L163.34375 81.85273742675781 L165.10116577148438 43.937503814697266 Z"></path>
<path fill="#817782" fill-opacity="1.0"  filling="0" d="M118.1460952758789 81.8531265258789 C130.626953125 94.333984375 150.8625030517578 94.333984375 163.34375 81.8531265258789 C175.82461547851562 69.37226867675781 175.82461547851562 49.136722564697266 163.34375 36.655853271484375 L161.48281860351562 34.794921875 C160.0144500732422 33.326568603515625 160.0144500732422 30.946090698242188 161.48281860351562 29.47772979736328 L177.96640014648438 12.994140625 C178.70037841796875 12.260154724121094 178.70037841796875 11.069526672363281 177.96640014648438 10.335548400878906 L177.1687469482422 9.537887573242188 C168.35858154296875 0.7277374267578125 154.07461547851562 0.7277374267578125 145.26483154296875 9.537887573242188 L118.14647674560547 36.65625 C105.66522979736328 49.136722564697266 105.66522979736328 69.37226867675781 118.1460952758789 81.8531265258789 Z"></path>
<path fill="#736572" fill-opacity="1.0"  filling="0" d="M163.3445281982422 81.85469055175781 C150.865234375 94.333984375 130.62734985351562 94.33671569824219 118.14530944824219 81.85469055175781 C116.642578125 80.35195922851562 115.31952667236328 78.736328125 114.181640625 77.0347671508789 C126.60273742675781 85.36797332763672 143.57891845703125 84.04218292236328 154.5554656982422 73.06562805175781 C160.794921875 66.826171875 163.91641235351562 58.64453125 163.9191436767578 50.46601104736328 C163.91641235351562 42.287498474121094 160.7980499267578 34.10858917236328 154.55819702148438 27.869140625 L152.6964874267578 26.007423400878906 C151.22695922851562 24.537887573242188 151.22695922851562 22.157028198242188 152.69375610351562 20.690231323242188 L169.0539093017578 4.330078125 C172.0148468017578 5.423828125 174.791015625 7.1613311767578125 177.1691436767578 9.539451599121094 L177.96444702148438 10.334762573242188 C178.69921875 11.069526672363281 178.7019500732422 12.260154724121094 177.96719360351562 12.994529724121094 L161.48281860351562 29.478904724121094 C160.01602172851562 30.945709228515625 160.01602172851562 33.326568603515625 161.48281860351562 34.793357849121094 L163.3445281982422 36.65507888793945 C169.583984375 42.89453125 172.70547485351562 51.076171875 172.70819091796875 59.25468826293945 C172.705078125 67.43359375 169.583984375 75.615234375 163.3445281982422 81.85469055175781 Z"></path>
<path fill="#fcf1f2" fill-opacity="1.0"  filling="0" d="M126.93437194824219 73.06484985351562 C119.3070297241211 65.4375 119.3070297241211 53.07109451293945 126.93437194824219 45.443748474121094 C134.5617218017578 37.81640625 146.92811584472656 37.81640625 154.5554656982422 45.443748474121094 C162.18280029296875 53.07109451293945 162.18280029296875 65.4375 154.5554656982422 73.06484985351562 C146.92811584472656 80.69219207763672 134.5617218017578 80.69219207763672 126.93437194824219 73.06484985351562 Z"></path>
<path fill="" fill-opacity="1.0"  filling="0" d="M124.86288452148438 75.13750457763672 C129.2414093017578 79.51602172851562 134.9933624267578 81.7054672241211 140.7453155517578 81.7054672241211 C146.49725341796875 81.7054672241211 152.2488250732422 79.51640319824219 156.62774658203125 75.13750457763672 C165.38514709472656 66.38008117675781 165.38514709472656 52.13046646118164 156.62774658203125 43.373046875 C152.3855438232422 39.130859375 146.7453155517578 36.79413604736328 140.74569702148438 36.79413604736328 C134.74609375 36.79413604736328 129.10585021972656 39.13047409057617 124.86328125 43.373046875 C116.1050796508789 52.13046646118164 116.1050796508789 66.37969207763672 124.86288452148438 75.13750457763672 Z M140.74493408203125 42.66093826293945 C144.99569702148438 42.66093826293945 149.248046875 44.27968978881836 152.48397827148438 47.515625 C158.95663452148438 53.988670349121094 158.95663452148438 64.52108764648438 152.48397827148438 70.994140625 C146.01132202148438 77.466796875 135.47889709472656 77.466796875 129.005859375 70.994140625 C125.87031555175781 67.85859680175781 124.14336395263672 63.689453125 124.14336395263672 59.25507354736328 C124.14336395263672 54.82070541381836 125.86991882324219 50.65156173706055 129.005859375 47.516014099121094 C132.2429656982422 44.279300689697266 136.4933624267578 42.66093826293945 140.74493408203125 42.66093826293945 Z"></path>
<path fill="" fill-opacity="1.0"  filling="0" d="M192.5343780517578 20.759376525878906 L191.73672485351562 19.96172332763672 C189.9464874267578 18.095703125 186.72500610351562 18.095703125 184.9347686767578 19.96172332763672 L167.74453735351562 37.151954650878906 C167.01522827148438 36.26445388793945 166.23867797851562 35.40742492675781 165.41561889648438 34.58477020263672 L163.55429077148438 32.72344207763672 C163.2140655517578 32.298828125 163.2140655517578 31.974220275878906 163.55429077148438 31.549606323242188 L180.03866577148438 15.065620422363281 C181.9132843017578 13.190231323242188 181.9132843017578 10.139450073242188 180.0382843017578 8.263671875 L179.24063110351562 7.466407775878906 C174.42657470703125 2.6515579223632812 168.025390625 0.0 161.21719360351562 0.0 C154.40859985351562 0.0 148.0078125 2.6515579223632812 143.193359375 7.4656219482421875 L131.19140625 19.46758270263672 C130.04725646972656 20.611717224121094 130.04725646972656 22.466796875 131.19140625 23.61054229736328 C132.33554077148438 24.755081176757812 134.1906280517578 24.75469207763672 135.33438110351562 23.61054229736328 L147.33633422851562 11.608978271484375 C151.0441436767578 7.901557922363281 155.9738311767578 5.859375 161.21719360351562 5.859375 C166.46054077148438 5.859375 171.39022827148438 7.901176452636719 175.09805297851562 11.608978271484375 L175.1531219482422 11.6640625 L159.41171264648438 27.40546417236328 C158.14804077148438 28.668746948242188 157.4519500732422 30.34882354736328 157.4519500732422 32.13594055175781 C157.4519500732422 33.92304992675781 158.1476593017578 35.60273742675781 159.41131591796875 36.86601638793945 L161.2726593017578 38.72734451293945 C166.755859375 44.210548400878906 169.775390625 51.50039291381836 169.775390625 59.25468826293945 C169.775390625 67.00898742675781 166.755859375 74.298828125 161.2726593017578 79.78202819824219 C155.78945922851562 85.2652359008789 148.49960327148438 88.2847671508789 140.7453155517578 88.2847671508789 C132.9910125732422 88.2847671508789 125.7007827758789 85.2652359008789 120.21797180175781 79.78202819824219 C114.73515319824219 74.298828125 111.7152328491211 67.00898742675781 111.7152328491211 59.25468826293945 C111.7152328491211 51.50039291381836 114.73477172851562 44.210548400878906 120.21797180175781 38.72734451293945 L125.66758728027344 33.277740478515625 C126.81172180175781 32.13359069824219 126.81172180175781 30.278518676757812 125.66758728027344 29.134765625 C124.5234375 27.990631103515625 122.66836547851562 27.990631103515625 121.52461242675781 29.134765625 L95.93085479736328 54.72773361206055 C92.4027328491211 58.25625228881836 87.8941421508789 60.65312576293945 82.8929672241211 61.660545349121094 C63.363670349121094 65.59375 45.59491729736328 75.1187515258789 31.508209228515625 89.20586395263672 L29.25390625 91.46015930175781 C12.305862426757812 108.40780639648438 1.9304656982421875 130.8996124267578 0.03867340087890625 154.7921905517578 C-0.246490478515625 158.3957061767578 1.056640625 161.92929077148438 3.6144561767578125 164.48672485351562 C5.684761047363281 166.5574188232422 8.434371948242188 167.8249969482422 11.356643676757812 168.05624389648438 C11.686325073242188 168.08241271972656 12.013282775878906 168.09530639648438 12.338676452636719 168.09530639648438 C18.69921875 168.09530639648438 24.11054229736328 163.18594360351562 24.62109375 156.73828125 C26.050003051757812 138.689453125 33.88749694824219 121.69921875 46.69023895263672 108.896484375 L48.94453430175781 106.6421890258789 C59.586326599121094 96.0003890991211 73.00898742675781 88.8050765991211 87.76094055175781 85.8343734741211 C95.91719055175781 84.19180297851562 103.47343444824219 80.6015625 109.80194854736328 75.3949203491211 C111.42617797851562 78.5 113.52617645263672 81.37617492675781 116.07500457763672 83.92500305175781 C118.62266540527344 86.47265625 121.49726104736328 88.5718765258789 124.60078430175781 90.19609069824219 C119.39375305175781 96.52460479736328 115.80859375 104.078125 114.16523742675781 112.23905944824219 C111.19414520263672 126.99140167236328 103.99922180175781 140.4140625 93.3570327758789 151.0554656982422 L91.1031265258789 153.30975341796875 C83.65312194824219 160.759765625 74.8941421508789 166.49258422851562 65.06875610351562 170.349609375 C63.562889099121094 170.94100952148438 62.82109451293945 172.64102172851562 63.412113189697266 174.1472625732422 C63.865234375 175.3019561767578 64.9703140258789 176.0070343017578 66.13983917236328 176.0070343017578 C66.49609375 176.0070343017578 66.85820007324219 175.94180297851562 67.20977020263672 175.80352783203125 C77.78984069824219 171.650390625 87.22265625 165.47616577148438 95.2464828491211 157.45274353027344 L97.5003890991211 155.1984405517578 C108.96054077148438 143.73828125 116.7093734741211 129.283203125 119.90937042236328 113.39570617675781 C121.482421875 105.58280944824219 125.06758117675781 98.4066390991211 130.3000030517578 92.55546569824219 C133.6374969482422 93.5980453491211 137.14883422851562 94.1441421508789 140.7453155517578 94.1441421508789 C143.06484985351562 94.1441421508789 145.349609375 93.91875457763672 147.5753936767578 93.47930145263672 L141.12850952148438 99.92578125 C136.78164672851562 104.27265167236328 133.83045959472656 109.81405639648438 132.59490966796875 115.94999694824219 C128.890625 134.3445281982422 119.91914367675781 151.08047485351562 106.650390625 164.3488311767578 L104.396484375 166.60311889648438 C88.43359375 182.5656280517578 67.24922180175781 192.337890625 44.74491882324219 194.11953735351562 C42.855464935302734 194.2703094482422 40.99922180175781 193.5847625732422 39.65585708618164 192.24179077148438 C38.570308685302734 191.15625 37.905860900878906 189.7136688232422 37.78398132324219 188.18048095703125 C37.64765167236328 186.45742797851562 38.19023513793945 184.78475952148438 39.312110900878906 183.4699249267578 C40.43398666381836 182.1550750732422 42.000389099121094 181.35586547851562 43.72344207763672 181.2195281982422 C47.030860900878906 180.95782470703125 50.35663986206055 180.48867797851562 53.60898208618164 179.826171875 C55.19453430175781 179.5031280517578 56.21758270263672 177.9558563232422 55.89492416381836 176.37030029296875 C55.571876525878906 174.78515625 54.02617645263672 173.76171875 52.439064025878906 174.08438110351562 C49.419532775878906 174.69961547851562 46.331642150878906 175.134765625 43.26093673706055 175.37811279296875 C39.97773361206055 175.63787841796875 36.99257278442383 177.16094970703125 34.85468292236328 179.666015625 C32.716796875 182.17147827148438 31.682815551757812 185.35897827148438 31.942581176757812 188.64218139648438 C32.173828125 191.564453125 33.44140625 194.31405639648438 35.512115478515625 196.38436889648438 C37.837886810302734 198.7101593017578 40.970706939697266 199.99884033203125 44.228519439697266 199.99884033203125 C44.55352020263672 199.99884033203125 44.87968826293945 199.98593139648438 45.206642150878906 199.9601593017578 C69.099609375 198.068359375 91.59101867675781 187.693359375 108.53905487060547 170.74569702148438 L110.79296875 168.4914093017578 C124.88007354736328 154.404296875 134.4050750732422 136.6359405517578 138.33828735351562 117.10624694824219 C139.34530639648438 112.10508728027344 141.74258422851562 107.59648132324219 145.2707061767578 104.068359375 L192.533203125 56.80586242675781 C197.34844970703125 51.992576599121094 200.0 45.591400146484375 200.0 38.783203125 C200.0 31.974998474121094 197.34844970703125 25.573440551757812 192.5343780517578 20.759376525878906 Z M86.6039047241211 80.09062194824219 C70.716796875 83.28984069824219 56.26171875 91.0386734008789 44.80117416381836 102.49922180175781 L42.546875 104.7535171508789 C28.759368896484375 118.541015625 20.318748474121094 136.83868408203125 18.780075073242188 156.27578735351562 C18.498435974121094 159.83241271972656 15.374221801757812 162.4972686767578 11.819145202636719 162.2156219482422 C10.285545349121094 162.09414672851562 8.843360900878906 161.42929077148438 7.7578125 160.34375 C6.4148406982421875 159.0007781982422 5.73046875 157.1457061767578 5.880073547363281 155.2546844482422 C7.662109375 132.75079345703125 17.43437957763672 111.5660171508789 33.396873474121094 95.6031265258789 L35.65116882324219 93.34883117675781 C48.919532775878906 80.0804672241211 65.65547180175781 71.109375 84.04961395263672 67.4046859741211 C90.18594360351562 66.16874694824219 95.72734069824219 63.21796798706055 100.0738296508789 58.871097564697266 L106.5210952758789 52.423828125 C106.0816421508789 54.64960861206055 105.85625457763672 56.93476867675781 105.85625457763672 59.25468826293945 C105.85625457763672 62.849998474121094 106.4019546508789 66.36054992675781 107.44414520263672 69.697265625 C101.59297180175781 74.9292984008789 94.412109375 78.51835632324219 86.6039047241211 80.09062194824219 Z M188.39102172851562 52.663673400878906 L174.9695281982422 66.08515930175781 C175.4089813232422 63.85976791381836 175.63436889648438 61.574607849121094 175.63436889648438 59.25507354736328 C175.63436889648438 53.13125228881836 174.05819702148438 47.25312423706055 171.11367797851562 42.06913757324219 L188.33554077148438 24.847267150878906 L188.39102172851562 24.902740478515625 C192.0988311767578 28.61016082763672 194.140625 33.53984069824219 194.140625 38.783203125 C194.140625 44.02656555175781 192.0988311767578 48.95585632324219 188.39102172851562 52.663673400878906 Z"></path>
<path fill="" fill-opacity="1.0"  filling="0" d="M140.74493408203125 63.16132354736328 C142.845703125 63.20429611206055 144.6941375732422 61.35468292236328 144.65118408203125 59.25507354736328 C144.65118408203125 58.21171951293945 144.2449188232422 57.230464935302734 143.50701904296875 56.49296569824219 C141.98475646972656 54.970314025878906 139.5066375732422 54.96992492675781 137.98202514648438 56.49335861206055 C136.4597625732422 58.01640701293945 136.4601593017578 60.494529724121094 137.982421875 62.017189025878906 C138.720703125 62.75507736206055 139.70155334472656 63.16132354736328 140.74493408203125 63.16132354736328 Z"></path></svg>