<svg xmlns="http://www.w3.org/2000/svg" viewBox="0.0 0.0 200.0 200.0" height="200.0px" width="200.0px"><path fill="#e0ef9b" fill-opacity="1.0"  filling="0" d="M58.545204162597656 63.08425521850586 C49.48467254638672 63.07644271850586 40.67531204223633 58.372154235839844 35.819854736328125 49.96162796020508 C30.964004516601562 41.55109405517578 31.294471740722656 31.56946563720703 35.817901611328125 23.719100952148438 C44.8780403137207 23.726516723632812 53.68739700317383 28.431198120117188 58.54324722290039 36.84172821044922 C63.39909744262695 45.252262115478516 63.068626403808594 55.23387908935547 58.545204162597656 63.08425521850586 Z"></path>
<path fill="#e0ef9b" fill-opacity="1.0"  filling="0" d="M140.9856719970703 37.5401611328125 C145.84112548828125 29.12963104248047 154.65048217773438 24.425338745117188 163.71102905273438 24.417137145996094 C168.23443603515625 32.26751708984375 168.56491088867188 42.2491340637207 163.7090606689453 50.65966796875 C158.85321044921875 59.070587158203125 150.04385375976562 63.774879455566406 140.9837188720703 63.78268814086914 C136.4602813720703 55.93231201171875 136.12982177734375 45.9506950378418 140.9856719970703 37.5401611328125 Z"></path>
<path fill="#d1aee5" fill-opacity="1.0"  filling="0" d="M100.00020599365234 176.28131103515625 C78.57719421386719 176.28131103515625 61.18230438232422 159.03524780273438 60.94050598144531 137.66966247558594 C60.93894577026367 137.51925659179688 60.93816375732422 137.36888122558594 60.93816375732422 137.21849060058594 C60.93816375732422 122.09547424316406 69.53189849853516 108.97948455810547 82.10218811035156 102.48808288574219 C87.46428680419922 99.71895599365234 93.5498275756836 98.15528106689453 100.00059509277344 98.15528106689453 C106.46971130371094 98.15528106689453 112.57127380371094 99.72793579101562 117.94430541992188 102.51152038574219 C130.48959350585938 109.01112365722656 139.0626220703125 122.11343383789062 139.0626220703125 137.2180938720703 C139.0626220703125 137.3938751220703 139.0614471435547 137.56927490234375 139.05911254882812 137.7442626953125 C138.7774658203125 159.07586669921875 121.39820861816406 176.28131103515625 100.00020599365234 176.28131103515625 Z"></path>
<path fill="#e0c9ed" fill-opacity="1.0"  filling="0" d="M60.93777847290039 137.2180938720703 C60.93777847290039 137.36888122558594 60.93855667114258 137.51925659179688 60.94050598144531 137.66848754882812 L60.70378875732422 137.80325317382812 C55.2612190246582 140.57669067382812 49.19131088256836 142.0614471435547 42.96866989135742 142.0614471435547 C21.394882202148438 142.0614471435547 3.9062423706054688 124.57241821289062 3.9062423706054688 102.9986343383789 C3.9062423706054688 81.42484283447266 21.39527130126953 63.935813903808594 42.96866989135742 63.935813903808594 C49.562015533447266 63.935813903808594 55.77372360229492 65.56941223144531 61.220977783203125 68.45416259765625 C73.37799072265625 74.89204406738281 81.72796630859375 87.56037902832031 82.01976013183594 102.20526885986328 L82.10179901123047 102.4876937866211 C69.53150939941406 108.97908782958984 60.93777847290039 122.09507751464844 60.93777847290039 137.2180938720703 Z"></path>
<path fill="#d1aee5" fill-opacity="1.0"  filling="0" d="M61.220977783203125 68.45455932617188 C62.27253723144531 59.781131744384766 66.2010498046875 51.71122741699219 72.37798309326172 45.53428649902344 C87.63304138183594 30.279624938964844 112.3661880493164 30.279624938964844 127.6212387084961 45.5346794128418 C133.79856872558594 51.71200942993164 137.72708129882812 59.78152847290039 138.7786407470703 68.45416259765625 C126.6341323852539 74.88578796386719 118.2888412475586 87.53538513183594 117.98103332519531 102.16191864013672 L117.94392395019531 102.51152038574219 C112.57088470458984 99.72793579101562 106.46932983398438 98.15528106689453 100.00020599365234 98.15528106689453 C93.54943084716797 98.15528106689453 87.46389770507812 99.71895599365234 82.10179901123047 102.48808288574219 L82.01976013183594 102.2056655883789 C81.72796630859375 87.56077575683594 73.37799072265625 74.89244079589844 61.220977783203125 68.45455932617188 Z"></path>
<path fill="#e0c9ed" fill-opacity="1.0"  filling="0" d="M138.77902221679688 68.45455932617188 C144.22628784179688 65.56979370117188 150.43800354003906 63.935813903808594 157.03134155273438 63.93620681762695 C178.604736328125 63.93620681762695 196.09378051757812 81.42523956298828 196.09378051757812 102.9990234375 C196.09378051757812 124.57281494140625 178.604736328125 142.06182861328125 157.03134155273438 142.06182861328125 C150.85479736328125 142.06182861328125 144.79074096679688 140.59738159179688 139.32669067382812 137.81887817382812 L139.0587158203125 137.7442626953125 C139.06106567382812 137.56927490234375 139.06222534179688 137.39349365234375 139.06222534179688 137.2180938720703 C139.06222534179688 122.11343383789062 130.48959350585938 109.01112365722656 117.94392395019531 102.51152038574219 L117.98103332519531 102.16191864013672 C118.2888412475586 87.5357666015625 126.634521484375 74.88578796386719 138.77902221679688 68.45455932617188 Z"></path>
<path fill="#e0c9ed" fill-opacity="1.0"  filling="0" d="M107.66542053222656 154.94540405273438 C108.66659545898438 159.14382934570312 106.07440185546875 163.35867309570312 101.8763656616211 164.35943603515625 C97.67794036865234 165.36062622070312 93.46349334716797 162.76882934570312 92.46231842041016 158.57040405273438 C91.4611587524414 154.3723602294922 94.05294799804688 150.15753173828125 98.25137329101562 149.15635681152344 C102.44940948486328 148.15557861328125 106.66425323486328 150.74737548828125 107.66542053222656 154.94540405273438 Z"></path>
<path fill="#fff" fill-opacity="1.0"  filling="0" d="M39.065162658691406 109.92049407958984 C39.065162658691406 114.2353286743164 35.56751251220703 117.73297882080078 31.25267791748047 117.73297882080078 C26.937835693359375 117.73297882080078 23.44019317626953 114.2353286743164 23.44019317626953 109.92049407958984 C23.44019317626953 105.60566711425781 26.937835693359375 102.1080093383789 31.25267791748047 102.1080093383789 C35.56751251220703 102.1080093383789 39.065162658691406 105.60566711425781 39.065162658691406 109.92049407958984 Z"></path>
<path fill="#fff" fill-opacity="1.0"  filling="0" d="M175.7836456298828 101.3267593383789 C175.7836456298828 105.64159393310547 172.2860107421875 109.13924407958984 167.97116088867188 109.13924407958984 C163.6563262939453 109.13924407958984 160.15867614746094 105.64159393310547 160.15867614746094 101.3267593383789 C160.15867614746094 97.01192474365234 163.6563262939453 93.51427459716797 167.97116088867188 93.51427459716797 C172.2860107421875 93.51427459716797 175.7836456298828 97.01192474365234 175.7836456298828 101.3267593383789 Z"></path>
<path fill="#e0c9ed" fill-opacity="1.0"  filling="0" d="M115.91462707519531 54.39012908935547 C116.60914611816406 58.648719787597656 113.7200927734375 62.6639404296875 109.46150207519531 63.358863830566406 C105.20292663574219 64.05339050292969 101.18730926513672 61.16433334350586 100.4927749633789 56.9057502746582 C99.79785919189453 52.64716339111328 102.68730926513672 48.63154983520508 106.94589233398438 47.937015533447266 C111.2044677734375 47.24209976196289 115.21971130371094 50.13154602050781 115.91462707519531 54.39012908935547 Z"></path>
<path fill="#c193dc" fill-opacity="1.0"  filling="0" d="M160.84930419921875 60.20105743408203 C163.30125427246094 58.05770492553711 165.42193603515625 55.50575256347656 167.0918731689453 52.612789154052734 C172.45513916015625 43.322181701660156 172.45631408691406 31.771034240722656 167.09500122070312 22.466751098632812 C166.39773559570312 21.25659942626953 165.1071014404297 20.510894775390625 163.71023559570312 20.510894775390625 C163.70944213867188 20.510894775390625 163.7078857421875 20.510894775390625 163.70672607421875 20.510894775390625 C152.9680633544922 20.52027130126953 142.96536254882812 26.297218322753906 137.60208129882812 35.58704376220703 C135.60287475585938 39.0499267578125 134.34934997558594 42.82726287841797 133.84036254882812 46.68545913696289 C132.77044677734375 45.31358337402344 131.61654663085938 44.0053825378418 130.38296508789062 42.772186279296875 C122.26695251464844 34.656578063964844 111.47674560546875 30.186660766601562 99.99903106689453 30.186660766601562 C99.99824523925781 30.186660766601562 99.9994125366211 30.186660766601562 99.9986343383789 30.186660766601562 C88.5220947265625 30.186660766601562 77.730712890625 34.656578063964844 69.61549377441406 42.771793365478516 C68.24752807617188 44.1397590637207 66.98268127441406 45.60498809814453 65.8162841796875 47.142879486083984 C65.4197998046875 42.885467529296875 64.12370300292969 38.69719314575195 61.92527389526367 34.888999938964844 C56.5620002746582 25.598777770996094 46.55889892578125 19.82183837890625 35.82024383544922 19.81285858154297 C35.819068908691406 19.81285858154297 35.81829071044922 19.81285858154297 35.81712341308594 19.81285858154297 C34.42063903808594 19.81285858154297 33.13001251220703 20.558555603027344 32.43236541748047 21.768707275390625 C27.070648193359375 31.073379516601562 27.07221221923828 42.62453079223633 32.435882568359375 51.91474151611328 C34.28352355957031 55.11513137817383 36.682350158691406 57.8983268737793 39.47140884399414 60.172542572021484 C17.40856170654297 61.95769500732422 0.0 80.48265838623047 0.0 102.9990234375 C0.0 126.69233703613281 19.27574920654297 145.96807861328125 42.96866989135742 145.96807861328125 C47.90420913696289 145.96807861328125 52.83661651611328 145.0985565185547 57.48309326171875 143.43487548828125 C60.50457000732422 164.19265747070312 78.418212890625 180.1875457763672 100.00020599365234 180.1875457763672 C121.58219146728516 180.1875457763672 139.4962158203125 164.19265747070312 142.51730346679688 143.4344940185547 C147.16416931152344 145.09815979003906 152.0969696044922 145.96807861328125 157.03134155273438 145.96807861328125 C180.72427368164062 145.96807861328125 200.0 126.69194793701172 200.0 102.9990234375 C200.0 80.59242248535156 182.76058959960938 62.13972473144531 160.84930419921875 60.20105743408203 Z M144.3684844970703 39.493675231933594 C147.9512939453125 33.28783416748047 154.32977294921875 29.198379516601562 161.38368225097656 28.448387145996094 C164.26141357421875 34.93196105957031 163.9090576171875 42.501094818115234 160.32626342773438 48.706939697265625 C157.65203857421875 53.33856964111328 153.4196319580078 56.789737701416016 148.51260375976562 58.55496597290039 L151.3141632080078 53.702632904052734 C152.39306640625 51.83427429199219 151.75283813476562 49.44521713256836 149.8844757080078 48.366703033447266 C148.01651000976562 47.288578033447266 145.6270751953125 47.92803192138672 144.54855346679688 49.796390533447266 L141.7469940185547 54.64872360229492 C140.8216094970703 49.51630783081055 141.6942596435547 44.12530517578125 144.3684844970703 39.493675231933594 Z M75.1404800415039 48.29600143432617 C81.78070068359375 41.655784606933594 90.60920715332031 37.9991455078125 99.99980926513672 37.9991455078125 C109.39041900634766 37.9991455078125 118.21891021728516 41.65616989135742 124.85914611816406 48.29639434814453 C129.77865600585938 53.21591567993164 133.15170288085938 59.58582305908203 134.4934844970703 66.40182495117188 C131.7978057861328 68.06822967529297 129.2681121826172 70.04439544677734 126.95327758789062 72.31431579589844 C120.16539001464844 78.97016143798828 115.85173034667969 87.5099868774414 114.51268005371094 96.77325439453125 C109.97673797607422 95.14044189453125 105.09081268310547 94.24826049804688 99.99980926513672 94.24826049804688 C94.90841674804688 94.24826049804688 90.0220947265625 95.14044189453125 85.48616790771484 96.77325439453125 C84.14827728271484 87.51780700683594 79.84164428710938 78.98422241210938 73.06236267089844 72.32994079589844 C70.74283599853516 70.05299377441406 68.20767974853516 68.07135009765625 65.50534057617188 66.40104675292969 C66.84674835205078 59.58699417114258 70.22369384765625 53.21318054199219 75.1404800415039 48.29600143432617 Z M38.14484786987305 27.749954223632812 C45.1987419128418 28.499557495117188 51.57724380493164 32.589393615722656 55.16005325317383 38.79524230957031 C57.83426284790039 43.42687225341797 58.70652770996094 48.817874908447266 57.78192138671875 53.95029067993164 L54.98036575317383 49.097957611083984 C53.90184783935547 47.22959518432617 51.512794494628906 46.58897399902344 49.64443588256836 47.668270111083984 C47.776084899902344 48.74678039550781 47.13584899902344 51.135841369628906 48.21474838256836 53.00419235229492 L51.01631164550781 57.85653305053711 C46.1088981628418 56.0912971496582 41.876487731933594 52.64013671875 39.20266342163086 48.008506774902344 C35.619850158691406 41.80265426635742 35.267120361328125 34.23352813720703 38.14484786987305 27.749954223632812 Z M7.8124847412109375 102.9990234375 C7.8124847412109375 83.61351013183594 23.58354949951172 67.84245300292969 42.96866989135742 67.84245300292969 C61.307308197021484 67.84245300292969 76.631103515625 82.23538970947266 78.0174331665039 100.31230163574219 C66.00260925292969 107.49628448486328 57.77020263671875 120.37750244140625 57.08074951171875 135.19778442382812 C52.64638137817383 137.13723754882812 47.80889129638672 138.15597534179688 42.96866989135742 138.15597534179688 C23.58354949951172 138.1555938720703 7.8124847412109375 122.38452911376953 7.8124847412109375 102.9990234375 Z M100.00020599365234 172.37506103515625 C80.61508178710938 172.37506103515625 64.84402465820312 156.60360717773438 64.84402465820312 137.21849060058594 C64.84402465820312 117.8329849243164 80.61508178710938 102.06153106689453 100.00020599365234 102.06153106689453 C119.38532257080078 102.06153106689453 135.15638732910156 117.8329849243164 135.15638732910156 137.21849060058594 C135.15599060058594 156.60360717773438 119.38532257080078 172.37506103515625 100.00020599365234 172.37506103515625 Z M157.03134155273438 138.1555938720703 C152.19229125976562 138.1555938720703 147.35400390625 137.13645935058594 142.91964721679688 135.19662475585938 C142.2298126220703 120.37633514404297 133.99740600585938 107.49549865722656 121.98258209228516 100.31153106689453 C123.36891174316406 82.23773193359375 138.7005157470703 67.84166717529297 157.03134155273438 67.84166717529297 C176.41647338867188 67.84166717529297 192.18753051757812 83.61312103271484 192.18753051757812 102.99823760986328 C192.18753051757812 122.38336181640625 176.41647338867188 138.1555938720703 157.03134155273438 138.1555938720703 Z"></path></svg>