<svg xmlns="http://www.w3.org/2000/svg" viewBox="0.0 0.0 200.0 200.0" height="200.0px" width="200.0px"><path fill="#db7230" fill-opacity="1.0"  filling="0" d="M45.45511245727539 163.49432373046875 L118.18124389648438 163.49432373046875 C123.20326232910156 163.49432373046875 127.2732925415039 167.5643310546875 127.2732925415039 172.58465576171875 C127.2732925415039 177.60667419433594 123.20326232910156 181.67669677734375 118.18124389648438 181.67669677734375 L45.45511245727539 181.67669677734375 C40.433101654052734 181.67669677734375 36.363067626953125 177.60667419433594 36.363067626953125 172.58465576171875 C36.363067626953125 167.5643310546875 40.433101654052734 163.49432373046875 45.45511245727539 163.49432373046875 Z"></path>
<path fill="#e18850" fill-opacity="1.0"  filling="0" d="M118.18124389648438 36.22102737426758 L118.18124389648438 145.3119354248047 L154.5460205078125 145.3119354248047 C179.64971923828125 145.3119354248047 199.99942016601562 124.96221923828125 199.99942016601562 99.8585205078125 L199.99942016601562 81.67613983154297 C199.99942016601562 56.572444915771484 179.64971923828125 36.22102737426758 154.5460205078125 36.22102737426758 L118.18124389648438 36.22102737426758 Z M154.5460205078125 118.03919982910156 L145.4539794921875 118.03919982910156 L145.4539794921875 63.493751525878906 L154.5460205078125 63.493751525878906 C164.58663940429688 63.493751525878906 172.72669982910156 71.63551330566406 172.72669982910156 81.67613983154297 L172.72669982910156 99.8585205078125 C172.72669982910156 109.8991470336914 164.58663940429688 118.03919982910156 154.5460205078125 118.03919982910156 Z"></path>
<path fill="#c35422" fill-opacity="1.0"  filling="0" d="M172.72669982910156 127.1312484741211 C172.72669982910156 132.1515655517578 168.65667724609375 136.22158813476562 163.6363525390625 136.22158813476562 C158.6160430908203 136.22158813476562 154.5460205078125 132.1515655517578 154.5460205078125 127.1312484741211 C154.5460205078125 122.1092300415039 158.6160430908203 118.03919982910156 163.6363525390625 118.03919982910156 C168.65667724609375 118.03919982910156 172.72669982910156 122.1092300415039 172.72669982910156 127.1312484741211 Z"></path>
<path fill="#c35422" fill-opacity="1.0"  filling="0" d="M181.81874084472656 108.94886016845703 C176.79843139648438 108.94886016845703 172.72669982910156 104.87883758544922 172.72669982910156 99.8585205078125 L172.72669982910156 81.67613983154297 C172.71688842773438 71.63849639892578 164.58364868164062 63.50355529785156 154.5460205078125 63.493751525878906 C149.52740478515625 63.49034118652344 145.46078491210938 59.422019958496094 145.46078491210938 54.403411865234375 C145.46078491210938 49.384803771972656 149.52740478515625 45.31647872924805 154.5460205078125 45.313072204589844 C174.61917114257812 45.334800720214844 190.88565063476562 61.60298156738281 190.90908813476562 81.67613983154297 L190.90908813476562 99.8585205078125 C190.90908813476562 104.87883758544922 186.83905029296875 108.94886016845703 181.81874084472656 108.94886016845703 Z"></path>
<path fill="#e8a073" fill-opacity="1.0"  filling="0" d="M9.090339660644531 18.04034423828125 L154.5460205078125 18.04034423828125 C159.5663299560547 18.04034423828125 163.6363525390625 22.110366821289062 163.6363525390625 27.13068389892578 L163.6363525390625 136.22158813476562 C163.6363525390625 156.30496215820312 147.35667419433594 172.58465576171875 127.2732925415039 172.58465576171875 L36.363067626953125 172.58465576171875 C16.279693603515625 172.58465576171875 0.0 156.30496215820312 0.0 136.22158813476562 L0.0 27.13068389892578 C0.0 22.110366821289062 4.070030212402344 18.04034423828125 9.090339660644531 18.04034423828125 Z"></path>
<path fill="#f4ba93" fill-opacity="1.0"  filling="0" d="M127.2732925415039 136.22158813476562 L127.2732925415039 27.13068389892578 C127.2732925415039 22.110366821289062 123.20326232910156 18.04034423828125 118.18124389648438 18.04034423828125 L9.090339660644531 18.04034423828125 C4.070030212402344 18.04034423828125 0.0 22.110366821289062 0.0 27.13068389892578 L0.0 136.22158813476562 C0.0 156.30496215820312 16.279693603515625 172.58465576171875 36.363067626953125 172.58465576171875 L90.90852355957031 172.58465576171875 C110.99189758300781 172.58465576171875 127.2732925415039 156.30496215820312 127.2732925415039 136.22158813476562 Z"></path>
<path fill="#250700" fill-opacity="1.0"  filling="0" d="M9.090339660644531 45.313072204589844 L154.5460205078125 45.313072204589844 L154.5460205078125 136.22158813476562 C154.5460205078125 151.28465270996094 142.33465576171875 163.49432373046875 127.2732925415039 163.49432373046875 L36.363067626953125 163.49432373046875 C21.30170440673828 163.49432373046875 9.090339660644531 151.28465270996094 9.090339660644531 136.22158813476562 L9.090339660644531 45.313072204589844 Z"></path>
<path fill="#3e190c" fill-opacity="1.0"  filling="0" d="M127.2732925415039 45.313072204589844 L9.090339660644531 45.313072204589844 L9.090339660644531 136.22158813476562 C9.090339660644531 151.28465270996094 21.30170440673828 163.49432373046875 36.363067626953125 163.49432373046875 L114.73210144042969 163.49432373046875 C122.67059326171875 156.65269470214844 127.24645233154297 146.7019805908203 127.2732925415039 136.22158813476562 L127.2732925415039 45.313072204589844 Z"></path>
<path fill="#953c1c" fill-opacity="1.0"  filling="0" d="M9.090339660644531 90.7664794921875 L154.5460205078125 90.7664794921875 L154.5460205078125 118.03919982910156 L9.090339660644531 118.03919982910156 L9.090339660644531 90.7664794921875 Z"></path>
<path fill="#f9dcc9" fill-opacity="1.0"  filling="0" d="M9.090339660644531 45.313072204589844 L154.5460205078125 45.313072204589844 L154.5460205078125 90.7664794921875 L9.090339660644531 90.7664794921875 L9.090339660644531 45.313072204589844 Z"></path>
<path fill="#6e2200" fill-opacity="1.0"  filling="0" d="M127.2732925415039 90.7664794921875 L154.5460205078125 90.7664794921875 L154.5460205078125 118.03919982910156 L127.2732925415039 118.03919982910156 L127.2732925415039 90.7664794921875 Z"></path>
<path fill="#f4ba93" fill-opacity="1.0"  filling="0" d="M127.2732925415039 45.313072204589844 L154.5460205078125 45.313072204589844 L154.5460205078125 90.7664794921875 L127.2732925415039 90.7664794921875 L127.2732925415039 45.313072204589844 Z"></path>
<path fill="#fcede3" fill-opacity="1.0"  filling="0" d="M54.54545593261719 49.85738754272461 C54.54545593261719 52.36775588989258 52.50979995727539 54.403411865234375 49.99943161010742 54.403411865234375 C47.48906326293945 54.403411865234375 45.45511245727539 52.36775588989258 45.45511245727539 49.85738754272461 C45.45511245727539 47.34701919555664 47.48906326293945 45.313072204589844 49.99943161010742 45.313072204589844 C52.50979995727539 45.313072204589844 54.54545593261719 47.34701919555664 54.54545593261719 49.85738754272461 Z"></path>
<path fill="#fcede3" fill-opacity="1.0"  filling="0" d="M72.72784423828125 58.949432373046875 C72.72784423828125 61.459800720214844 70.69219207763672 63.493751525878906 68.18181610107422 63.493751525878906 C65.67144775390625 63.493751525878906 63.63579559326172 61.459800720214844 63.63579559326172 58.949432373046875 C63.63579559326172 56.439064025878906 65.67144775390625 54.403411865234375 68.18181610107422 54.403411865234375 C70.69219207763672 54.403411865234375 72.72784423828125 56.439064025878906 72.72784423828125 58.949432373046875 Z"></path>
<path fill="#fcede3" fill-opacity="1.0"  filling="0" d="M72.72784423828125 77.13011169433594 C72.72784423828125 79.64048767089844 70.69219207763672 81.67613983154297 68.18181610107422 81.67613983154297 C65.67144775390625 81.67613983154297 63.63579559326172 79.64048767089844 63.63579559326172 77.13011169433594 C63.63579559326172 74.61974334716797 65.67144775390625 72.58580017089844 68.18181610107422 72.58580017089844 C70.69219207763672 72.58580017089844 72.72784423828125 74.61974334716797 72.72784423828125 77.13011169433594 Z"></path>
<path fill="#fcede3" fill-opacity="1.0"  filling="0" d="M109.09090423583984 58.949432373046875 C109.09090423583984 61.459800720214844 107.05525970458984 63.493751525878906 104.54488372802734 63.493751525878906 C102.03451538085938 63.493751525878906 100.00056457519531 61.459800720214844 100.00056457519531 58.949432373046875 C100.00056457519531 56.439064025878906 102.03451538085938 54.403411865234375 104.54488372802734 54.403411865234375 C107.05525970458984 54.403411865234375 109.09090423583984 56.439064025878906 109.09090423583984 58.949432373046875 Z"></path>
<path fill="#fcede3" fill-opacity="1.0"  filling="0" d="M109.09090423583984 77.13011169433594 C109.09090423583984 79.64048767089844 107.05525970458984 81.67613983154297 104.54488372802734 81.67613983154297 C102.03451538085938 81.67613983154297 100.00056457519531 79.64048767089844 100.00056457519531 77.13011169433594 C100.00056457519531 74.61974334716797 102.03451538085938 72.58580017089844 104.54488372802734 72.58580017089844 C107.05525970458984 72.58580017089844 109.09090423583984 74.61974334716797 109.09090423583984 77.13011169433594 Z"></path>
<path fill="#f9dcc9" fill-opacity="1.0"  filling="0" d="M136.36363220214844 49.85738754272461 C136.36363220214844 52.36775588989258 134.32797241210938 54.403411865234375 131.81761169433594 54.403411865234375 C129.3072509765625 54.403411865234375 127.2732925415039 52.36775588989258 127.2732925415039 49.85738754272461 C127.2732925415039 47.34701919555664 129.3072509765625 45.313072204589844 131.81761169433594 45.313072204589844 C134.32797241210938 45.313072204589844 136.36363220214844 47.34701919555664 136.36363220214844 49.85738754272461 Z"></path>
<path fill="#f9dcc9" fill-opacity="1.0"  filling="0" d="M154.5460205078125 58.949432373046875 C154.5460205078125 61.459800720214844 152.51036071777344 63.493751525878906 150.0 63.493751525878906 C147.4896240234375 63.493751525878906 145.4539794921875 61.459800720214844 145.4539794921875 58.949432373046875 C145.4539794921875 56.439064025878906 147.4896240234375 54.403411865234375 150.0 54.403411865234375 C152.51036071777344 54.403411865234375 154.5460205078125 56.439064025878906 154.5460205078125 58.949432373046875 Z"></path>
<path fill="#f9dcc9" fill-opacity="1.0"  filling="0" d="M154.5460205078125 77.13011169433594 C154.5460205078125 79.64048767089844 152.51036071777344 81.67613983154297 150.0 81.67613983154297 C147.4896240234375 81.67613983154297 145.4539794921875 79.64048767089844 145.4539794921875 77.13011169433594 C145.4539794921875 74.61974334716797 147.4896240234375 72.58580017089844 150.0 72.58580017089844 C152.51036071777344 72.58580017089844 154.5460205078125 74.61974334716797 154.5460205078125 77.13011169433594 Z"></path>
<path fill="#f9dcc9" fill-opacity="1.0"  filling="0" d="M136.36363220214844 68.0397720336914 C136.36363220214844 70.55014038085938 134.32797241210938 72.58580017089844 131.81761169433594 72.58580017089844 C129.3072509765625 72.58580017089844 127.2732925415039 70.55014038085938 127.2732925415039 68.0397720336914 C127.2732925415039 65.52940368652344 129.3072509765625 63.493751525878906 131.81761169433594 63.493751525878906 C134.32797241210938 63.493751525878906 136.36363220214844 65.52940368652344 136.36363220214844 68.0397720336914 Z"></path>
<path fill="#fcede3" fill-opacity="1.0"  filling="0" d="M90.90852355957031 68.0397720336914 C90.90852355957031 70.55014038085938 88.87457275390625 72.58580017089844 86.36420440673828 72.58580017089844 C83.85382843017578 72.58580017089844 81.81817626953125 70.55014038085938 81.81817626953125 68.0397720336914 C81.81817626953125 65.52940368652344 83.85382843017578 63.493751525878906 86.36420440673828 63.493751525878906 C88.87457275390625 63.493751525878906 90.90852355957031 65.52940368652344 90.90852355957031 68.0397720336914 Z"></path>
<path fill="#fcede3" fill-opacity="1.0"  filling="0" d="M54.54545593261719 68.0397720336914 C54.54545593261719 70.55014038085938 52.50979995727539 72.58580017089844 49.99943161010742 72.58580017089844 C47.48906326293945 72.58580017089844 45.45511245727539 70.55014038085938 45.45511245727539 68.0397720336914 C45.45511245727539 65.52940368652344 47.48906326293945 63.493751525878906 49.99943161010742 63.493751525878906 C52.50979995727539 63.493751525878906 54.54545593261719 65.52940368652344 54.54545593261719 68.0397720336914 Z"></path>
<path fill="#fcede3" fill-opacity="1.0"  filling="0" d="M36.363067626953125 58.949432373046875 C36.363067626953125 61.459800720214844 34.329124450683594 63.493751525878906 31.818748474121094 63.493751525878906 C29.308380126953125 63.493751525878906 27.272727966308594 61.459800720214844 27.272727966308594 58.949432373046875 C27.272727966308594 56.439064025878906 29.308380126953125 54.403411865234375 31.818748474121094 54.403411865234375 C34.329124450683594 54.403411865234375 36.363067626953125 56.439064025878906 36.363067626953125 58.949432373046875 Z"></path>
<path fill="#fcede3" fill-opacity="1.0"  filling="0" d="M90.90852355957031 49.85738754272461 C90.90852355957031 52.36775588989258 88.87457275390625 54.403411865234375 86.36420440673828 54.403411865234375 C83.85382843017578 54.403411865234375 81.81817626953125 52.36775588989258 81.81817626953125 49.85738754272461 C81.81817626953125 47.34701919555664 83.85382843017578 45.313072204589844 86.36420440673828 45.313072204589844 C88.87457275390625 45.313072204589844 90.90852355957031 47.34701919555664 90.90852355957031 49.85738754272461 Z"></path>
<path fill="#b77b65" fill-opacity="1.0"  filling="0" d="M27.272727966308594 118.03919982910156 C32.29303741455078 118.03919982910156 36.363067626953125 122.1092300415039 36.363067626953125 127.1312484741211 L36.363067626953125 136.22158813476562 C36.363067626953125 141.24191284179688 32.29303741455078 145.3119354248047 27.272727966308594 145.3119354248047 C22.252418518066406 145.3119354248047 18.182388305664062 141.24191284179688 18.182388305664062 136.22158813476562 L18.182388305664062 127.1312484741211 C18.182388305664062 122.1092300415039 22.252418518066406 118.03919982910156 27.272727966308594 118.03919982910156 Z"></path>
<path fill="#fdf6f1" fill-opacity="1.0"  filling="0" d="M27.272727966308594 36.22102737426758 C32.29303741455078 36.22102737426758 36.363067626953125 40.291053771972656 36.363067626953125 45.313072204589844 C36.363067626953125 50.33338165283203 32.29303741455078 54.403411865234375 27.272727966308594 54.403411865234375 C22.252418518066406 54.403411865234375 18.182388305664062 50.33338165283203 18.182388305664062 45.313072204589844 C18.182388305664062 40.291053771972656 22.252418518066406 36.22102737426758 27.272727966308594 36.22102737426758 Z"></path>
<path fill="#fdf6f1" fill-opacity="1.0"  filling="0" d="M27.272727966308594 63.493751525878906 C32.29303741455078 63.493751525878906 36.363067626953125 67.56378173828125 36.363067626953125 72.58580017089844 L36.363067626953125 99.8585205078125 C36.363067626953125 104.87883758544922 32.29303741455078 108.94886016845703 27.272727966308594 108.94886016845703 C22.252418518066406 108.94886016845703 18.182388305664062 104.87883758544922 18.182388305664062 99.8585205078125 L18.182388305664062 72.58580017089844 C18.182388305664062 67.56378173828125 22.252418518066406 63.493751525878906 27.272727966308594 63.493751525878906 Z"></path></svg>