<svg xmlns="http://www.w3.org/2000/svg" viewBox="0.0 0.0 200.0 200.0" height="200.0px" width="200.0px"><path fill="url(#linear-gradient)" fill-opacity="1.0"  filling="0" d="M112.50936889648438 58.578128814697266 A2.734375 2.734375 0.0 0 1 116.37657165527344 54.7109375 L125.2828140258789 63.6171875 A2.734375 2.734375 0.0 1 1 121.4156265258789 67.484375 L112.50936889648438 58.578128814697266 Z M87.84062194824219 102.36250305175781 A2.734375 2.734375 0.0 0 0 89.7734375 97.6953125 L82.66874694824219 90.5921859741211 A2.734375 2.734375 0.0 0 0 78.80155944824219 94.4593734741211 L85.90625 101.5625 A2.723437547683716 2.723437547683716 0.0 0 0 87.84062194824219 102.36250305175781 Z M8.493751525878906 186.3625030517578 L6.5968780517578125 193.38436889648438 L15.0234375 191.10781860351562 A138.99844360351562 138.99844360351562 0.0 0 0 65.8046875 165.2546844482422 L57.19687271118164 156.64688110351562 A2.734375 2.734375 0.0 0 1 61.064064025878906 152.77969360351562 L70.0218734741211 161.7375030517578 C73.5999984741211 158.62030029296875 73.5999984741211 158.62030029296875 76.97187805175781 155.25936889648438 L77.6953125 154.5343780517578 L63.671875 140.5124969482422 A2.734375 2.734375 0.0 0 1 67.5390625 136.64532470703125 L81.64530944824219 150.75157165527344 A128.125 128.125 0.0 0 1 94.30155944824219 140.5343780517578 A141.453125 141.453125 0.0 0 1 113.22969055175781 129.390625 A122.66405487060547 122.66405487060547 0.0 0 0 141.65467834472656 109.90467834472656 L126.20625305175781 94.45780944824219 A2.734375 2.734375 0.0 0 1 130.0734405517578 90.59062194824219 L145.61093139648438 106.12655639648438 L156.92343139648438 94.8140640258789 A2.734375 2.734375 0.0 0 1 160.79061889648438 98.68124389648438 L149.43594360351562 110.03593444824219 A128.31875610351562 128.31875610351562 0.0 0 1 134.84375 122.5625 L135.484375 125.3499984741211 A34.342185974121094 34.342185974121094 0.0 0 1 129.1906280517578 154.08749389648438 A2.734375 2.734375 0.0 1 1 124.86094665527344 150.74842834472656 A28.890625 28.890625 0.0 0 0 130.15625 126.57344055175781 L130.01718139648438 125.96562194824219 A128.5 128.5 0.0 0 1 115.6640625 134.2890625 L113.94532012939453 135.1374969482422 L113.88594055175781 135.16876220703125 L111.74374389648438 142.25155639648438 A62.374996185302734 62.374996185302734 0.0 0 0 109.84844207763672 169.86093139648438 L111.04999542236328 177.46719360351562 A8.84218692779541 8.84218692779541 0.0 0 1 104.4359359741211 187.3562469482422 C102.58749389648438 187.80313110351562 99.65312194824219 187.84063720703125 98.3421859741211 186.21563720703125 A17.889062881469727 17.889062881469727 0.0 0 1 96.875 183.6640625 A67.1875 67.1875 0.0 0 1 88.3359375 152.12655639648438 C84.8656234741211 155.11563110351562 84.8656234741211 155.11563110351562 81.6015625 158.35781860351562 L80.83281707763672 159.1281280517578 A144.4718780517578 144.4718780517578 0.0 0 1 16.442184448242188 196.38751220703125 L3.4234390258789062 199.90313720703125 A2.734375 2.734375 0.0 0 1 0.0703125 196.5500030517578 L3.2078170776367188 184.93438720703125 A155.46875 155.46875 0.0 0 1 9.59375 166.1484375 A2.734375 2.734375 0.0 1 1 14.646873474121094 168.23593139648438 A150.3234405517578 150.3234405517578 0.0 0 0 8.493751525878906 186.3625030517578 Z M107.05937194824219 138.8625030517578 A122.6390609741211 122.6390609741211 0.0 0 0 93.86563110351562 147.65469360351562 A61.77656173706055 61.77656173706055 0.0 0 0 101.65312194824219 181.0 C101.99063110351562 181.60311889648438 102.04999542236328 182.1062469482422 102.84687042236328 182.11563110351562 A2.8640623092651367 2.8640623092651367 0.0 0 0 104.26875305175781 181.53436279296875 A3.3484373092651367 3.3484373092651367 0.0 0 0 105.6484375 178.32656860351562 L104.4468765258789 170.72030639648438 A67.859375 67.859375 0.0 0 1 106.5093765258789 140.67498779296875 L107.05937194824219 138.8625030517578 Z M17.96562957763672 157.4562530517578 A2.734375 2.734375 0.0 0 0 20.385940551757812 155.99842834472656 L20.946868896484375 154.9484405517578 A2.734375 2.734375 0.0 0 0 16.134376525878906 152.3515625 L15.551559448242188 153.4453125 A2.7359375953674316 2.7359375953674316 0.0 0 0 17.96562957763672 157.45782470703125 L17.96562957763672 157.4562530517578 Z M199.9812469482422 9.629692077636719 A9.568750381469727 9.568750381469727 0.0 0 1 197.15936279296875 16.439064025878906 L190.46875 23.1328125 A42.40312576293945 42.40312576293945 0.0 0 1 188.11563110351562 70.72343444824219 A2.7109375 2.7109375 0.0 0 1 187.70468139648438 71.265625 L187.68280029296875 71.28437805175781 A42.45781326293945 42.45781326293945 0.0 0 1 184.2453155517578 75.22030639648438 L169.0890655517578 90.3765640258789 A2.734375 2.734375 0.0 0 1 165.22186279296875 86.5093765258789 L171.49374389648438 80.23750305175781 L163.4375 72.1875 A2.734375 2.734375 0.0 0 1 167.3046875 68.3203125 L175.36407470703125 76.37968444824219 L180.38436889648438 71.359375 C180.98126220703125 70.76249694824219 181.52969360351562 70.13594055175781 182.07656860351562 69.5093765258789 L167.1125030517578 54.54531478881836 A2.734375 2.734375 0.0 0 1 170.9796905517578 50.678123474121094 L185.38438415527344 65.08280944824219 A36.92812728881836 36.92812728881836 0.0 0 0 184.71719360351562 24.315628051757812 A2.734375 2.734375 0.0 0 1 185.03750610351562 20.832809448242188 L193.29531860351562 12.574996948242188 A4.160937786102295 4.160937786102295 0.0 1 0 187.4093780517578 6.6906280517578125 L179.234375 14.864059448242188 A2.7328124046325684 2.7328124046325684 0.0 0 1 175.70938110351562 15.154685974121094 A36.80937576293945 36.80937576293945 0.0 0 0 128.0859375 19.060935974121094 L127.22030639648438 19.926559448242188 L139.47811889648438 32.1875 A2.734375 2.734375 0.0 1 1 135.61093139648438 36.0546875 L123.3515625 23.795310974121094 L115.3656234741211 31.78125 L90.99063110351562 56.30156326293945 A121.55155944824219 121.55155944824219 0.0 0 0 81.27655792236328 68.24687957763672 L95.91719055175781 82.88594055175781 A2.734375 2.734375 0.0 1 1 92.04999542236328 86.75312805175781 L78.14375305175781 72.84687805175781 A137.04063415527344 137.04063415527344 0.0 0 0 69.57344055175781 88.046875 A128.28125 128.28125 0.0 0 1 57.89374542236328 107.5703125 C57.86562728881836 107.6109390258789 57.8359375 107.65000915527344 57.8046875 107.69062042236328 A128.4015655517578 128.4015655517578 0.0 0 1 44.484375 123.265625 A132.8546905517578 132.8546905517578 0.0 0 0 27.245315551757812 144.38436889648438 A2.734375 2.734375 0.0 0 1 22.676559448242188 141.37657165527344 A138.4171905517578 138.4171905517578 0.0 0 1 40.61406326293945 119.375 A123.2640609741211 123.2640609741211 0.0 0 0 49.3046875 109.73124694824219 L27.5 113.0640640258789 L25.504684448242188 114.5 A18.353124618530273 18.353124618530273 0.0 0 0 18.275001525878906 133.25 A2.7328124046325684 2.7328124046325684 0.0 0 1 16.173431396484375 136.49688720703125 A2.692187547683716 2.692187547683716 0.0 0 1 15.598442077636719 136.55938720703125 A2.734375 2.734375 0.0 0 1 12.923439025878906 134.390625 A23.814062118530273 23.814062118530273 0.0 0 1 20.724998474121094 111.3125 L7.443748474121094 106.5328140258789 A2.734375 2.734375 0.0 0 1 9.296875 101.38749694824219 L26.703125 107.65312957763672 L54.1015625 103.47343444824219 A122.8499984741211 122.8499984741211 0.0 0 0 64.6312484741211 85.66094207763672 A137.1015625 137.1015625 0.0 0 1 82.2093734741211 58.03437042236328 C81.33906555175781 58.06875228881836 80.4671859741211 58.126564025878906 79.59687805175781 58.126564025878906 A67.8734359741211 67.8734359741211 0.0 0 1 46.5703125 49.55312728881836 L44.357810974121094 48.31562805175781 A2.734375 2.734375 0.0 0 1 43.09843826293945 46.79374694824219 A8.75 8.75 0.0 0 1 52.765625 35.38750457763672 L60.37187576293945 36.58906173706055 A62.368751525878906 62.368751525878906 0.0 0 0 87.98750305175781 34.6875 L111.9781265258789 27.431251525878906 L122.59530639648438 16.814064025878906 A47.65625 47.65625 0.0 0 0 82.8828125 25.581253051757812 A2.734375 2.734375 0.0 0 1 79.54374694824219 21.25 A53.09062576293945 53.09062576293945 0.0 0 1 123.98749542236328 11.518753051757812 L127.4359359741211 12.309371948242188 A42.21562576293945 42.21562576293945 0.0 0 1 176.96719360351562 9.400001525878906 L183.54843139648438 2.8203125 A9.629687309265137 9.629687309265137 0.0 0 1 199.98748779296875 9.629692077636719 L199.9812469482422 9.629692077636719 Z M87.37031555175781 52.165626525878906 C88.2953109741211 51.17655944824219 89.2203140258789 50.1875 90.17343139648438 49.234378814697266 L103.78593444824219 35.625 L89.56719207763672 39.92344284057617 A67.84375 67.84375 0.0 0 1 59.531246185302734 41.984378814697266 L51.91875076293945 40.781246185302734 A3.2921876907348633 3.2921876907348633 0.0 0 0 48.125 44.150001525878906 L49.251564025878906 44.77499771118164 A62.373435974121094 62.373435974121094 0.0 0 0 87.37031555175781 52.165626525878906 Z M112.50936889648438 99.58906555175781 L125.59062194824219 112.671875 A2.734375 2.734375 0.0 0 0 129.4578094482422 108.8046875 L116.37500762939453 95.72343444824219 A2.734375 2.734375 0.0 0 0 112.5078125 99.59062194824219 L112.50936889648438 99.58906555175781 Z M153.4609375 31.79999542236328 A2.7328124046325684 2.7328124046325684 0.0 0 0 153.4609375 27.93280792236328 L144.49374389648438 18.964065551757812 A2.734375 2.734375 0.0 0 0 140.625 22.831253051757812 L149.59219360351562 31.79999542236328 A2.7328124046325684 2.7328124046325684 0.0 0 0 153.45936584472656 31.79999542236328 L153.4609375 31.79999542236328 Z"></path></svg>