<svg xmlns="http://www.w3.org/2000/svg" viewBox="0.0 0.0 200.0 200.0" height="200.0px" width="200.0px"><path fill="#f2b394" fill-opacity="1.0"  filling="0" d="M100.0 3.90625 C63.741798400878906 3.90625 34.34883117675781 33.299217224121094 34.34883117675781 69.55741882324219 L34.34883117675781 96.5386734008789 L34.34883117675781 135.20858764648438 L34.34883117675781 146.31640625 C34.34883117675781 173.8074188232422 56.635154724121094 196.09375 84.1265640258789 196.09375 C111.61797332763672 196.09375 133.904296875 173.8074188232422 133.904296875 146.31600952148438 C133.904296875 134.89688110351562 138.46524047851562 123.96874237060547 146.52264404296875 115.876953125 C158.34414672851562 104.00507354736328 165.6511688232422 87.634765625 165.6511688232422 69.55741882324219 C165.65078735351562 33.299217224121094 136.25820922851562 3.90625 100.0 3.90625 Z"></path>
<path fill="" fill-opacity="1.0"  filling="0" d="M84.1265640258789 200.0 C54.525394439697266 200.0 30.442581176757812 175.91757202148438 30.442581176757812 146.31600952148438 L30.442581176757812 69.5570297241211 C30.442581176757812 31.203125 61.64609146118164 0.0 100.0 0.0 C111.97539520263672 0.0 123.78593444824219 3.0945281982421875 134.154296875 8.949607849121094 C136.03280639648438 10.010162353515625 136.69570922851562 12.392967224121094 135.63516235351562 14.271873474121094 C134.57460021972656 16.150390625 132.19180297851562 16.813278198242188 130.31289672851562 15.752731323242188 C121.11405944824219 10.557815551757812 110.63241577148438 7.8125 100.0 7.8125 C65.95390319824219 7.8125 38.25507736206055 35.51093292236328 38.25507736206055 69.5570297241211 L38.25507736206055 146.31600952148438 C38.25507736206055 171.609375 58.83281326293945 192.1875 84.12617492675781 192.1875 C109.419921875 192.1875 129.99765014648438 171.60977172851562 129.99765014648438 146.31600952148438 C129.99765014648438 133.81874084472656 134.88320922851562 122.0296859741211 143.75428771972656 113.12069702148438 C155.35546875 101.46992492675781 161.74453735351562 85.99882507324219 161.74453735351562 69.55741882324219 C161.74453735351562 58.76445007324219 158.92031860351562 48.14413833618164 153.57656860351562 38.84453201293945 C152.501953125 36.97382736206055 153.14688110351562 34.586326599121094 155.017578125 33.511329650878906 C156.88905334472656 32.437110900878906 159.27578735351562 33.081642150878906 160.35076904296875 34.95233917236328 C166.37342834472656 45.43437194824219 169.55703735351562 57.400779724121094 169.55703735351562 69.55741882324219 C169.55703735351562 88.07929992675781 162.359375 105.50820922851562 149.29061889648438 118.63319396972656 C141.8874969482422 126.06835174560547 137.81015014648438 135.8996124267578 137.81015014648438 146.31600952148438 C137.810546875 175.91757202148438 113.72813415527344 200.0 84.1265640258789 200.0 Z"></path>
<path fill="" fill-opacity="1.0"  filling="0" d="M67.287109375 149.0886688232422 C58.754295349121094 149.0886688232422 51.8125 142.14688110351562 51.8125 133.6144561767578 C51.8125 131.45703125 53.56132888793945 129.7082061767578 55.71875 129.7082061767578 C57.87617111206055 129.7082061767578 59.625 131.45703125 59.625 133.6144561767578 C59.625 137.8390655517578 63.06210708618164 141.2761688232422 67.287109375 141.2761688232422 C70.87930297851562 141.2761688232422 73.80195617675781 138.353515625 73.80195617675781 134.7609405517578 C73.80195617675781 123.36015319824219 69.6917953491211 112.33515930175781 62.228126525878906 103.7171859741211 C55.51132583618164 95.96171569824219 51.8125 86.0406265258789 51.8125 75.78125 C51.8125 57.21210861206055 66.91952514648438 42.105472564697266 85.48828125 42.105472564697266 C104.05702209472656 42.105472564697266 119.1640625 57.212501525878906 119.1640625 75.78125 C119.1640625 77.93866729736328 117.41523742675781 79.6875 115.2578125 79.6875 C113.10038757324219 79.6875 111.3515625 77.93866729736328 111.3515625 75.78125 C111.3515625 61.519920349121094 99.74922180175781 49.917972564697266 85.48828125 49.917972564697266 C71.22695922851562 49.917972564697266 59.625 61.52031326293945 59.625 75.78125 C59.625 84.1624984741211 62.64687728881836 92.26718139648438 68.13359069824219 98.60234069824219 C76.82695007324219 108.640625 81.61445617675781 121.48164367675781 81.61445617675781 134.7609405517578 C81.61445617675781 142.6609344482422 75.1871109008789 149.0886688232422 67.287109375 149.0886688232422 Z"></path>
<path fill="" fill-opacity="1.0"  filling="0" d="M69.6019515991211 175.42694091796875 C69.291015625 175.42694091796875 68.97538757324219 175.38946533203125 68.66015625 175.3117218017578 C67.962890625 175.13906860351562 67.26171875 174.9453125 66.57656860351562 174.736328125 C64.5132827758789 174.10626220703125 63.351173400878906 171.92303466796875 63.980857849121094 169.85977172851562 C64.6109390258789 167.79647827148438 66.794921875 166.63516235351562 68.857421875 167.26406860351562 C69.41015625 167.43280029296875 69.97538757324219 167.5890655517578 70.53788757324219 167.72811889648438 C72.63203430175781 168.24688720703125 73.90937042236328 170.36483764648438 73.3910140991211 172.45858764648438 C72.95039367675781 174.2375030517578 71.35586547851562 175.42694091796875 69.6019515991211 175.42694091796875 Z"></path>
<path fill="" fill-opacity="1.0"  filling="0" d="M87.71562194824219 175.31680297851562 C85.98046875 175.31680297851562 84.396484375 174.15234375 83.93827819824219 172.39492797851562 C83.3941421508789 170.3074188232422 84.64530944824219 168.173828125 86.7328109741211 167.6296844482422 C87.92733764648438 167.318359375 89.11640930175781 166.93475341796875 90.26640319824219 166.4894561767578 C92.27851867675781 165.71054077148438 94.5406265258789 166.71054077148438 95.31953430175781 168.72225952148438 C96.09843444824219 170.73397827148438 95.09883117675781 172.99649047851562 93.08671569824219 173.775390625 C91.6597671508789 174.32772827148438 90.18515014648438 174.80352783203125 88.7035140991211 175.18984985351562 C88.3734359741211 175.275390625 88.0414047241211 175.31680297851562 87.71562194824219 175.31680297851562 Z M106.42695617675781 163.52967834472656 C105.53398132324219 163.52967834472656 104.63671875 163.2253875732422 103.90234375 162.6023406982422 C102.25703430175781 161.20703125 102.0542984008789 158.7421875 103.4496078491211 157.0968780517578 C104.24883270263672 156.154296875 105.0023422241211 155.1570281982422 105.68866729736328 154.13243103027344 C106.88945007324219 152.34024047851562 109.31640625 151.86093139648438 111.10820770263672 153.06210327148438 C112.900390625 154.26327514648438 113.37969207763672 156.689453125 112.17851257324219 158.4816436767578 C111.32891082763672 159.74961853027344 110.396484375 160.9835968017578 109.40742492675781 162.14999389648438 C108.63554382324219 163.06094360351562 107.5347671508789 163.52967834472656 106.42695617675781 163.52967834472656 Z M114.97811889648438 143.14178466796875 C114.8609390258789 143.14178466796875 114.74336242675781 143.13671875 114.62460327148438 143.12579345703125 C112.47577667236328 142.93280029296875 110.8902359008789 141.03477478027344 111.08319854736328 138.8859405517578 C111.1714859008789 137.90469360351562 111.21601867675781 136.90350341796875 111.21601867675781 135.91094970703125 L111.21601867675781 135.08047485351562 C111.21601867675781 132.92303466796875 112.96484375 131.17422485351562 115.12226867675781 131.17422485351562 C117.2796859741211 131.17422485351562 119.02851867675781 132.92303466796875 119.02851867675781 135.08047485351562 L119.02851867675781 135.9113311767578 C119.02851867675781 137.13671875 118.97305297851562 138.3718719482422 118.86445617675781 139.583984375 C118.68202209472656 141.61444091796875 116.97773742675781 143.14178466796875 114.97811889648438 143.14178466796875 Z"></path>
<path fill="" fill-opacity="1.0"  filling="0" d="M115.12226867675781 120.67109680175781 C112.96484375 120.67109680175781 111.21601867675781 118.92227172851562 111.21601867675781 116.76484680175781 L111.21601867675781 114.81172180175781 C111.21601867675781 113.44413757324219 111.9312515258789 112.1761703491211 113.1015625 111.46874237060547 C113.61210632324219 111.1597671508789 114.123046875 110.83711242675781 114.61913299560547 110.50898742675781 C116.41913604736328 109.31953430175781 118.84257507324219 109.814453125 120.03164672851562 111.61445617675781 C121.19921875 113.38125610351562 120.7437515258789 115.74921417236328 119.02381896972656 116.9605484008789 C118.92147827148438 119.02696228027344 117.21366882324219 120.67109680175781 115.12226867675781 120.67109680175781 Z"></path>
<path fill="" fill-opacity="1.0"  filling="0" d="M129.0867156982422 105.97969055175781 C128.28085327148438 105.97969055175781 127.46796417236328 105.73124694824219 126.76992797851562 105.21601104736328 C125.03437805175781 103.93476867675781 124.66563415527344 101.48906707763672 125.94688415527344 99.7535171508789 C126.6500015258789 98.80078125 127.32344055175781 97.80781555175781 127.94804382324219 96.80195617675781 C129.08633422851562 94.9691390991211 131.49453735351562 94.4066390991211 133.32733154296875 95.54452514648438 C135.16015625 96.68280792236328 135.72303771972656 99.0914077758789 134.5847625732422 100.923828125 C133.85040283203125 102.1058578491211 133.05899047851562 103.2730484008789 132.23281860351562 104.3929672241211 C131.46640014648438 105.43047332763672 130.2843780517578 105.97969055175781 129.0867156982422 105.97969055175781 Z M137.5460968017578 86.99102020263672 C137.28750610351562 86.99102020263672 137.025390625 86.9652328491211 136.76211547851562 86.9117202758789 C134.64804077148438 86.48086547851562 133.28359985351562 84.41796875 133.71444702148438 82.3042984008789 C133.9503936767578 81.146484375 134.14218139648438 79.962890625 134.28477478027344 78.78593444824219 C134.5441436767578 76.64453125 136.4921875 75.11796569824219 138.63241577148438 75.37773132324219 C140.77383422851562 75.6371078491211 142.3000030517578 77.5835952758789 142.04061889648438 79.72538757324219 C141.873046875 81.109375 141.6472625732422 82.501953125 141.36993408203125 83.86405944824219 C140.99258422851562 85.7144546508789 139.3644561767578 86.99102020263672 137.5460968017578 86.99102020263672 Z M137.23828125 66.20703125 C135.46522521972656 66.20703125 133.86016845703125 64.99179077148438 133.4382781982422 63.19062805175781 C133.1687469482422 62.039451599121094 132.84844970703125 60.884769439697266 132.486328125 59.75820541381836 C131.82656860351562 57.70429992675781 132.9562530517578 55.50390625 135.01016235351562 54.844139099121094 C137.06405639648438 54.183982849121094 139.2644500732422 55.314064025878906 139.92422485351562 57.36796951293945 C140.3503875732422 58.69453048706055 140.7273406982422 60.05390930175781 141.044921875 61.40937042236328 C141.537109375 63.509769439697266 140.23281860351562 65.611328125 138.13241577148438 66.103515625 C137.8332061767578 66.1734390258789 137.533203125 66.20703125 137.23828125 66.20703125 Z M128.244140625 47.47226333618164 C127.08477020263672 47.47226333618164 125.93710327148438 46.958587646484375 125.1664047241211 45.974998474121094 C124.4359359741211 45.04257583618164 123.65898132324219 44.12812423706055 122.85664367675781 43.25741958618164 C121.3949203491211 41.67070388793945 121.49609375 39.199607849121094 123.08281707763672 37.737892150878906 C124.66914367675781 36.27617263793945 127.1402359008789 36.376953125 128.6023406982422 37.96406555175781 C129.54530334472656 38.98749923706055 130.4582061767578 40.06171798706055 131.31640625 41.15703201293945 C132.64686584472656 42.855464935302734 132.34881591796875 45.310546875 130.650390625 46.641014099121094 C129.935546875 47.200782775878906 129.0867156982422 47.47226333618164 128.244140625 47.47226333618164 Z M112.21914672851562 34.230079650878906 C111.61797332763672 34.230079650878906 111.0078125 34.09101867675781 110.43671417236328 33.797264099121094 C109.38359069824219 33.255859375 108.29649353027344 32.751556396484375 107.20547485351562 32.29766082763672 C105.21366882324219 31.469139099121094 104.27031707763672 29.182815551757812 105.09883117675781 27.190628051757812 C105.9273452758789 25.19843292236328 108.2132797241211 24.255859375 110.20586395263672 25.083984375 C111.490234375 25.618362426757812 112.76953125 26.21210479736328 114.00859069824219 26.849220275878906 C115.92733764648438 27.835548400878906 116.68321228027344 30.19062042236328 115.69686889648438 32.108985900878906 C115.0035171508789 33.45625305175781 113.6363296508789 34.230079650878906 112.21914672851562 34.230079650878906 Z"></path>
<path fill="" fill-opacity="1.0"  filling="0" d="M92.0941390991211 28.944923400878906 C92.04179382324219 28.944923400878906 91.98906707763672 28.944137573242188 91.93632507324219 28.941795349121094 C91.3414077758789 28.91796875 90.736328125 28.90625 90.1382827758789 28.90625 C87.9808578491211 28.90625 86.2320327758789 27.157424926757812 86.2320327758789 25.0 C86.2320327758789 22.84258270263672 87.9808578491211 21.09375 90.1382827758789 21.09375 C90.83906555175781 21.09375 91.5484390258789 21.107810974121094 92.2464828491211 21.135543823242188 C94.40234375 21.221092224121094 96.080078125 23.03827667236328 95.9945297241211 25.193748474121094 C95.91093444824219 27.296485900878906 94.1800765991211 28.944923400878906 92.0941390991211 28.944923400878906 Z"></path>
<path fill="" fill-opacity="1.0"  filling="0" d="M146.25 26.87109375 C145.22265625 26.87109375 144.21484375 26.453125 143.48828125 25.7265625 C142.76171875 25.0 142.34375 23.9921875 142.34375 22.96484375 C142.34375 21.93359375 142.76171875 20.9296875 143.48828125 20.203125 C144.21484375 19.47265625 145.21875 19.05859375 146.25 19.05859375 C147.27734375 19.05859375 148.28515625 19.47265625 149.01171875 20.203125 C149.73828125 20.9296875 150.15625 21.93359375 150.15625 22.96484375 C150.15625 23.9921875 149.73828125 25.0 149.01171875 25.7265625 C148.28515625 26.453125 147.27734375 26.87109375 146.25 26.87109375 Z"></path></svg>