<svg xmlns="http://www.w3.org/2000/svg" viewBox="0.0 0.0 200.0 200.0" height="200.0px" width="200.0px"><path fill="#934cf5" fill-opacity="1.0"  filling="0" d="M200.0 100.0 A100.0 100.0 0.0 1 1 0.0 100.0 A100.0 100.0 0.0 1 1 200.0 100.0 Z"></path>
<path fill="#3e436d" fill-opacity="1.0"  filling="0" d="M161.78125 28.9609375 L161.78125 169.16015625 A8.984375 8.984375 0.0 0 1 152.796875 178.14453125 L47.207035064697266 178.14453125 A8.984375 8.984375 0.0 0 1 38.222660064697266 169.16015625 L38.222660064697266 46.4375 A8.984375 8.984375 0.0 0 1 40.85546875 40.078128814697266 L58.3203125 22.60546875 A8.984375 8.984375 0.0 0 1 64.6796875 19.97265625 L152.79296875 19.97265625 A8.984375 8.984375 0.0 0 1 161.78125 28.9609375 Z"></path>
<path fill="#32314b" fill-opacity="1.0"  filling="0" d="M70.91015625 169.16015625 A8.984375 8.984375 0.0 0 0 79.89453125 178.14453125 L47.19921875 178.14453125 A8.984375 8.984375 0.0 0 1 38.21484375 169.16015625 L38.21484375 46.4375 A8.984375 8.984375 0.0 0 1 40.847660064697266 40.078128814697266 L58.3203125 22.60546875 A8.984375 8.984375 0.0 0 1 64.6796875 19.97265625 L97.375 19.97265625 A8.984375 8.984375 0.0 0 0 91.015625 22.60546875 L73.546875 40.078128814697266 A8.984375 8.984375 0.0 0 0 70.91015625 46.4375 L70.91015625 169.16015625 Z"></path>
<path fill="#32314b" fill-opacity="1.0"  filling="0" d="M161.78125 28.9609375 L161.78125 53.878902435302734 L64.7890625 53.878902435302734 A4.734375 4.734375 0.0 0 0 60.054691314697266 58.59375 L60.054691314697266 64.5703125 A3.80859375 3.80859375 0.0 0 1 56.25 68.3984375 L38.21875 68.3984375 L38.21875 46.4375 A8.984375 8.984375 0.0 0 1 40.8515625 40.078128814697266 L58.3203125 22.60546875 A8.984375 8.984375 0.0 0 1 64.6796875 19.97265625 L152.79296875 19.97265625 A8.984375 8.984375 0.0 0 1 161.78125 28.9609375 Z"></path>
<path fill="#f6c752" fill-opacity="1.0"  filling="0" d="M141.03515625 27.01171875 L154.20703125 27.01171875 A1.9453125 1.9453125 0.0 0 1 156.15234375 28.95703125 L156.15234375 49.31640625 A1.9453125 1.9453125 0.0 0 1 154.20703125 51.26171875 L141.03515625 51.26171875 A1.9453125 1.9453125 0.0 0 1 139.08984375 49.31640625 L139.08984375 28.95703125 A1.9453125 1.9453125 0.0 0 1 141.03515625 27.01171875 Z"></path>
<path fill="#f6c752" fill-opacity="1.0"  filling="0" d="M121.27734375 27.01171875 L134.44921875 27.01171875 A1.9453125 1.9453125 0.0 0 1 136.39453125 28.95703125 L136.39453125 49.31640625 A1.9453125 1.9453125 0.0 0 1 134.44921875 51.26171875 L121.27734375 51.26171875 A1.9453125 1.9453125 0.0 0 1 119.33203125 49.31640625 L119.33203125 28.95703125 A1.9453125 1.9453125 0.0 0 1 121.27734375 27.01171875 Z"></path>
<path fill="#f6c752" fill-opacity="1.0"  filling="0" d="M101.515625 27.01171875 L114.6875 27.01171875 A1.9453125 1.9453125 0.0 0 1 116.63280487060547 28.95703125 L116.63280487060547 49.31640625 A1.9453125 1.9453125 0.0 0 1 114.6875 51.26171875 L101.515625 51.26171875 A1.9453125 1.9453125 0.0 0 1 99.5703125 49.31640625 L99.5703125 28.95703125 A1.9453125 1.9453125 0.0 0 1 101.515625 27.01171875 Z"></path>
<path fill="#f6c752" fill-opacity="1.0"  filling="0" d="M81.7578125 27.01171875 L94.9296875 27.01171875 A1.9453125 1.9453125 0.0 0 1 96.875 28.95703125 L96.875 49.31640625 A1.9453125 1.9453125 0.0 0 1 94.9296875 51.26171875 L81.7578125 51.26171875 A1.9453125 1.9453125 0.0 0 1 79.8125 49.31640625 L79.8125 28.95703125 A1.9453125 1.9453125 0.0 0 1 81.7578125 27.01171875 Z"></path>
<path fill="#f6c752" fill-opacity="1.0"  filling="0" d="M62.0 27.01171875 L75.171875 27.01171875 A1.9453125 1.9453125 0.0 0 1 77.1171875 28.95703125 L77.1171875 49.31640625 A1.9453125 1.9453125 0.0 0 1 75.171875 51.26171875 L62.0 51.26171875 A1.9453125 1.9453125 0.0 0 1 60.054691314697266 49.31640625 L60.054691314697266 28.95703125 A1.9453125 1.9453125 0.0 0 1 62.0 27.01171875 Z"></path>
<path fill="#f6c752" fill-opacity="1.0"  filling="0" d="M42.769527435302734 41.75390625 L55.941410064697266 41.75390625 A1.9453125 1.9453125 0.0 0 1 57.88671875 43.69921875 L57.88671875 64.05859375 A1.9453125 1.9453125 0.0 0 1 55.941410064697266 66.00390625 L42.769527435302734 66.00390625 A1.9453125 1.9453125 0.0 0 1 40.824222564697266 64.05859375 L40.824222564697266 43.69921875 A1.9453125 1.9453125 0.0 0 1 42.769527435302734 41.75390625 Z"></path>
<path fill="#27273d" fill-opacity="1.0"  filling="0" d="M153.97265625 129.18359375 L161.78515625 131.13671875 L161.78515625 78.23046875 L153.97265625 80.16015625 A2.51171875 2.51171875 0.0 0 0 152.06640625 82.59765625 L152.06640625 126.73828125 A2.5078125 2.5078125 0.0 0 0 153.97265625 129.18359375 Z"></path>
<path fill="#b0d46c" fill-opacity="1.0"  filling="0" d="M59.09375 78.23046875 L142.26953125 78.23046875 A5.3515625 5.3515625 0.0 0 1 147.62109375 83.58203125 L147.62109375 161.5859375 A5.3515625 5.3515625 0.0 0 1 142.26953125 166.9375 L59.09375 166.9375 A5.3515625 5.3515625 0.0 0 1 53.7421875 161.5859375 L53.7421875 83.58203125 A5.3515625 5.3515625 0.0 0 1 59.09375 78.23046875 Z"></path>
<path fill="#9fbc61" fill-opacity="1.0"  filling="0" d="M70.91015625 78.23046875 L70.91015625 166.9375 L59.09375 166.9375 A5.3515625 5.3515625 0.0 0 1 53.7421875 161.5859375 L53.7421875 83.59375 A5.3515625 5.3515625 0.0 0 1 59.09375 78.2421875 L70.91015625 78.23046875 Z"></path>
<path fill="#cbe88b" fill-opacity="1.0"  filling="0" d="M142.4375 101.75390625 A6.04296875 6.04296875 0.0 1 1 130.3515625 101.75390625 A6.04296875 6.04296875 0.0 1 1 142.4375 101.75390625 Z"></path>
<path fill="#cbe88b" fill-opacity="1.0"  filling="0" d="M140.67578125 89.16015625 A4.28125 4.28125 0.0 1 1 132.11328125 89.16015625 A4.28125 4.28125 0.0 1 1 140.67578125 89.16015625 Z"></path></svg>