<svg xmlns="http://www.w3.org/2000/svg" viewBox="0.0 0.0 200.0 200.0" height="200.0px" width="200.0px"><path fill="#c49a8b" fill-opacity="1.0"  filling="0" d="M73.12577819824219 131.681640625 L73.12577819824219 186.4421844482422 C73.12577819824219 191.677734375 77.36991882324219 195.921875 82.60546875 195.921875 C87.84101867675781 195.921875 92.08515930175781 191.677734375 92.08515930175781 186.4421844482422 L92.08515930175781 131.681640625 L73.12577819824219 131.681640625 Z"></path>
<path fill="#faf1a9" fill-opacity="1.0"  filling="0" d="M118.7816390991211 62.950782775878906 L46.42890548706055 62.950782775878906 C30.215621948242188 62.950782775878906 17.072654724121094 76.0941390991211 17.072654724121094 92.30742645263672 L17.072654724121094 126.20390319824219 C17.072654724121094 129.2292938232422 19.525001525878906 131.681640625 22.550392150878906 131.681640625 L142.66015625 131.681640625 C145.685546875 131.681640625 148.1378936767578 129.22889709472656 148.1378936767578 126.20390319824219 L148.1378936767578 92.30742645263672 C148.13827514648438 76.0941390991211 134.9949188232422 62.950782775878906 118.7816390991211 62.950782775878906 Z"></path>
<path fill="#fff" fill-opacity="1.0"  filling="0" d="M29.586326599121094 97.9332046508789 C29.40741729736328 97.9332046508789 29.226173400878906 97.92070007324219 29.043357849121094 97.89530944824219 C26.906639099121094 97.5980453491211 25.415237426757812 95.625 25.712112426757812 93.48828125 C26.33203125 89.02851104736328 28.10272979736328 84.77265930175781 30.83281707763672 81.1800765991211 C32.138282775878906 79.46249389648438 34.58866882324219 79.1285171508789 36.306644439697266 80.43359375 C38.02422332763672 81.73905944824219 38.35820007324219 84.189453125 37.05312728881836 85.90742492675781 C35.13203430175781 88.4351577758789 33.886322021484375 91.42852020263672 33.45038604736328 94.5640640258789 C33.17890930175781 96.51836395263672 31.505081176757812 97.9332046508789 29.586326599121094 97.9332046508789 Z"></path>
<path fill="#fff" fill-opacity="1.0"  filling="0" d="M42.83086013793945 80.44999694824219 C41.32695007324219 80.44999694824219 39.89374542236328 79.57695007324219 39.25117111206055 78.111328125 C38.384765625 76.13554382324219 39.28398513793945 73.8316421508789 41.26015853881836 72.9652328491211 C41.878517150878906 72.69413757324219 42.513282775878906 72.44452667236328 43.148048400878906 72.22305297851562 C45.18437194824219 71.5132827758789 47.41250228881836 72.587890625 48.122657775878906 74.625 C48.83320236206055 76.662109375 47.757816314697266 78.88945007324219 45.72108840942383 79.5999984741211 C45.27655792236328 79.75508117675781 44.83125305175781 79.9300765991211 44.39726638793945 80.12031555175781 C43.886722564697266 80.3441390991211 43.35429763793945 80.44999694824219 42.83086013793945 80.44999694824219 Z"></path>
<path fill="#fff" fill-opacity="1.0"  filling="0" d="M60.41132736206055 89.73046875 C64.61328125 90.70038604736328 67.23359680175781 94.8929672241211 66.26406860351562 99.09492492675781 C65.29414367675781 103.296875 61.1015625 105.91719055175781 56.89960861206055 104.94764709472656 C52.69765853881836 103.97773742675781 50.07734298706055 99.78515625 51.046871185302734 95.58319854736328 C52.01679611206055 91.38125610351562 56.209373474121094 88.76094055175781 60.41132736206055 89.73046875 Z"></path>
<path fill="#d789b9" fill-opacity="1.0"  filling="0" d="M57.37109375 48.95077896118164 L35.463287353515625 48.95077896118164 C33.273826599121094 48.95077896118164 31.498825073242188 47.175777435302734 31.498825073242188 44.986331939697266 L31.498825073242188 38.50507736206055 C31.498825073242188 36.31562423706055 33.273826599121094 34.540626525878906 35.463287353515625 34.540626525878906 L57.370704650878906 34.540626525878906 L57.370704650878906 48.95077896118164 L57.37109375 48.95077896118164 Z"></path>
<path fill="#fff" fill-opacity="1.0"  filling="0" d="M129.91912841796875 112.2691421508789 L107.1996078491211 112.2691421508789 C104.5210952758789 112.2691421508789 102.34961700439453 110.09765625 102.34961700439453 107.41914367675781 L102.34961700439453 93.95742797851562 C102.34961700439453 91.2789077758789 104.5210952758789 89.107421875 107.1996078491211 89.107421875 L129.91912841796875 89.107421875 C132.59765625 89.107421875 134.76913452148438 91.2789077758789 134.76913452148438 93.95742797851562 L134.76913452148438 107.41914367675781 C134.76913452148438 110.09765625 132.59765625 112.2691421508789 129.91912841796875 112.2691421508789 Z"></path>
<path fill="#dfb5a7" fill-opacity="1.0"  filling="0" d="M118.7816390991211 62.950782775878906 L100.4808578491211 62.950782775878906 C113.77656555175781 62.950782775878906 124.5550765991211 73.72929382324219 124.5550765991211 87.0250015258789 L124.5550765991211 89.107421875 L129.91912841796875 89.107421875 C132.59765625 89.107421875 134.76913452148438 91.2789077758789 134.76913452148438 93.95742797851562 L134.76913452148438 107.41914367675781 C134.76913452148438 110.09765625 132.59765625 112.26874542236328 129.91912841796875 112.26874542236328 L124.5550765991211 112.26874542236328 L124.5550765991211 114.822265625 C124.5550765991211 117.3031234741211 122.54375457763672 119.314453125 120.0628890991211 119.314453125 L21.564453125 119.314453125 C19.083595275878906 119.314453125 17.072265625 117.3031234741211 17.072265625 114.822265625 L17.072265625 126.2035140991211 C17.072265625 129.228515625 19.524612426757812 131.68124389648438 22.54999542236328 131.68124389648438 L142.66015625 131.68124389648438 C145.685546875 131.68124389648438 148.1378936767578 129.228515625 148.1378936767578 126.2035140991211 L148.1378936767578 92.3070297241211 C148.13827514648438 76.0941390991211 134.9949188232422 62.950782775878906 118.7816390991211 62.950782775878906 Z"></path>
<path fill="#e1bdfc" fill-opacity="1.0"  filling="0" d="M134.76913452148438 107.41914367675781 L134.76913452148438 93.95742797851562 C134.76913452148438 91.2789077758789 132.59765625 89.107421875 129.91912841796875 89.107421875 L124.5550765991211 89.107421875 L124.5550765991211 112.2691421508789 L129.91912841796875 112.2691421508789 C132.59765625 112.2691421508789 134.76913452148438 110.09765625 134.76913452148438 107.41914367675781 Z"></path>
<path fill="#af30fa" fill-opacity="1.0"  filling="0" d="M73.48554992675781 131.57772827148438 L92.08476257324219 131.57772827148438 L92.08476257324219 150.1769561767578 L73.48554992675781 150.1769561767578 L73.48554992675781 131.57772827148438 Z"></path>
<path fill="#faf1a9" fill-opacity="1.0"  filling="0" d="M173.6144561767578 37.06758117675781 L176.96444702148438 46.48711013793945 C177.10781860351562 46.890235900878906 177.39178466796875 47.21015548706055 177.75 47.371482849121094 L186.11874389648438 51.14218521118164 C187.30117797851562 51.67499923706055 187.30117797851562 53.55859375 186.11874389648438 54.091407775878906 L177.75 57.86172103881836 C177.39178466796875 58.023048400878906 177.10781860351562 58.34257507324219 176.96444702148438 58.74609375 L173.6144561767578 68.1656265258789 C173.14102172851562 69.4964828491211 171.4675750732422 69.4964828491211 170.994140625 68.1656265258789 L167.64413452148438 58.74609375 C167.5007781982422 58.34257507324219 167.216796875 58.023048400878906 166.85858154296875 57.86172103881836 L158.48983764648438 54.091407775878906 C157.3074188232422 53.55859375 157.3074188232422 51.67499923706055 158.48983764648438 51.14218521118164 L166.85858154296875 47.371482849121094 C167.216796875 47.21015548706055 167.5007781982422 46.890628814697266 167.64413452148438 46.48711013793945 L170.994140625 37.06758117675781 C171.4675750732422 35.73710632324219 173.14102172851562 35.73710632324219 173.6144561767578 37.06758117675781 Z"></path>
<path fill="#faf1a9" fill-opacity="1.0"  filling="0" d="M100.48164367675781 0.740234375 L102.96640014648438 7.7273406982421875 C103.0726547241211 8.026565551757812 103.28359985351562 8.263671875 103.5492172241211 8.383201599121094 L109.75703430175781 11.180076599121094 C110.63397979736328 11.575386047363281 110.63397979736328 12.97265625 109.75703430175781 13.367584228515625 L103.5492172241211 16.164451599121094 C103.28359985351562 16.284378051757812 103.0726547241211 16.521484375 102.96640014648438 16.8203125 L100.48164367675781 23.807418823242188 C100.13047790527344 24.794532775878906 98.88906860351562 24.794532775878906 98.53789520263672 23.807418823242188 L96.052734375 16.8203125 C95.94648742675781 16.521095275878906 95.7359390258789 16.283981323242188 95.46992492675781 16.164451599121094 L89.2621078491211 13.367584228515625 C88.38516235351562 12.972267150878906 88.38516235351562 11.575004577636719 89.2621078491211 11.180076599121094 L95.46992492675781 8.383201599121094 C95.73554229736328 8.263275146484375 95.94648742675781 8.026168823242188 96.052734375 7.7273406982421875 L98.53789520263672 0.740234375 C98.88906860351562 -0.2468719482421875 100.13047790527344 -0.2468719482421875 100.48164367675781 0.740234375 Z"></path>
<path fill="#f6e06e" fill-opacity="1.0"  filling="0" d="M164.91757202148438 9.233200073242188 A7.314843654632568 7.314843654632568 0.0 1 1 150.2878875732422 9.233200073242188 A7.314843654632568 7.314843654632568 0.0 1 1 164.91757202148438 9.233200073242188 Z"></path>
<path fill="#f6e06e" fill-opacity="1.0"  filling="0" d="M123.61640930175781 33.541404724121094 C125.03124237060547 34.558990478515625 125.353515625 36.531246185302734 124.33555603027344 37.94648742675781 C123.3179702758789 39.361328125 121.345703125 39.68359375 119.93046569824219 38.666015625 C118.515625 37.64804458618164 118.193359375 35.67578125 119.2113265991211 34.26094055175781 C120.22891235351562 32.845703125 122.201171875 32.523826599121094 123.61640930175781 33.541404724121094 Z"></path>
<path fill="#3c122c" fill-opacity="1.0"  filling="0" d="M118.78202819824219 58.873046875 L62.65156173706055 58.873046875 L62.65156173706055 34.541015625 C62.65156173706055 32.288673400878906 60.825782775878906 30.462890625 58.57343673706055 30.462890625 C58.36874771118164 30.462890625 58.16875076293945 30.482818603515625 57.97226333618164 30.512107849121094 C57.775390625 30.482818603515625 57.57577896118164 30.462890625 57.370704650878906 30.462890625 L35.463287353515625 30.462890625 C31.028518676757812 30.462890625 27.420700073242188 34.070709228515625 27.420700073242188 38.505470275878906 L27.420700073242188 44.986717224121094 C27.420700073242188 49.42148208618164 31.028518676757812 53.029685974121094 35.463287353515625 53.029685974121094 L54.49531173706055 53.029685974121094 L54.49531173706055 58.87343978881836 L46.42851257324219 58.87343978881836 C27.992584228515625 58.87343978881836 12.994140625 73.87226867675781 12.994140625 92.30781555175781 L12.994140625 126.20429992675781 C12.994140625 131.4734344482422 17.280860900878906 135.76014709472656 22.54999542236328 135.76014709472656 L69.0472640991211 135.76014709472656 L69.0472640991211 186.4425811767578 C69.0472640991211 193.91836547851562 75.1292953491211 200.00038146972656 82.60507202148438 200.00038146972656 C90.08085632324219 200.00038146972656 96.16288757324219 193.91836547851562 96.16288757324219 186.4425811767578 L96.16288757324219 135.759765625 L142.66015625 135.759765625 C147.92929077148438 135.759765625 152.2160186767578 131.47305297851562 152.2160186767578 126.20390319824219 L152.2160186767578 92.30742645263672 C152.21641540527344 73.8714828491211 137.21759033203125 58.873046875 118.78202819824219 58.873046875 Z M35.57695007324219 44.87265396118164 L35.57695007324219 38.61874771118164 L54.49531173706055 38.61874771118164 L54.49531173706055 44.87265396118164 L35.57695007324219 44.87265396118164 Z M21.150779724121094 126.20390319824219 L21.150779724121094 92.30742645263672 C21.150779724121094 78.36874389648438 32.490623474121094 67.029296875 46.42890548706055 67.029296875 L54.495704650878906 67.029296875 L54.495704650878906 87.91445922851562 C50.867576599121094 89.4945297241211 48.32344055175781 93.11328125 48.32344055175781 97.31640625 C48.32344055175781 102.9683609008789 52.921875 107.5667953491211 58.573829650878906 107.5667953491211 C64.22578430175781 107.5667953491211 68.82421875 102.96875 68.82421875 97.31640625 C68.82421875 93.11328125 66.28047180175781 89.4945297241211 62.651954650878906 87.91445922851562 L62.651954650878906 67.029296875 L96.115234375 67.029296875 C89.025390625 73.16484069824219 84.52656555175781 82.21797180175781 84.52656555175781 92.30742645263672 L84.52656555175781 126.20390319824219 C84.52656555175781 126.67930603027344 84.5625 127.146484375 84.63008117675781 127.603515625 L22.550392150878906 127.603515625 C21.77851104736328 127.603515625 21.150779724121094 126.97578430175781 21.150779724121094 126.20390319824219 Z M58.57343673706055 91.95977020263672 C61.526954650878906 91.95977020263672 63.930076599121094 94.36249542236328 63.930076599121094 97.31640625 C63.930076599121094 100.27030944824219 61.527339935302734 102.67304229736328 58.57343673706055 102.67304229736328 C55.61953353881836 102.67304229736328 53.216796875 100.27030944824219 53.216796875 97.31640625 C53.216796875 94.36249542236328 55.61991882324219 91.95977020263672 58.57343673706055 91.95977020263672 Z M82.60546875 191.84375 C79.626953125 191.84375 77.20390319824219 189.4207000732422 77.20390319824219 186.4421844482422 L77.20390319824219 135.759765625 L88.00663757324219 135.759765625 L88.00663757324219 186.4421844482422 C88.00663757324219 189.4207000732422 85.58358764648438 191.84375 82.60546875 191.84375 Z M144.06015014648438 126.20390319824219 C144.06015014648438 126.97578430175781 143.43243408203125 127.603515625 142.66055297851562 127.603515625 L94.0824203491211 127.603515625 C93.310546875 127.603515625 92.68281555175781 126.97578430175781 92.68281555175781 126.20390319824219 L92.68281555175781 92.30742645263672 C92.68281555175781 78.36874389648438 104.02265930175781 67.029296875 117.96131896972656 67.029296875 L118.78202819824219 67.029296875 C132.72030639648438 67.029296875 144.06015014648438 78.369140625 144.06015014648438 92.30742645263672 L144.06015014648438 126.20390319824219 Z"></path>
<path fill="#3c122c" fill-opacity="1.0"  filling="0" d="M129.91912841796875 86.6605453491211 L107.1996078491211 86.6605453491211 C103.17617797851562 86.6605453491211 99.90312194824219 89.9339828491211 99.90312194824219 93.95742797851562 L99.90312194824219 107.41914367675781 C99.90312194824219 111.44258117675781 103.17655944824219 114.71562194824219 107.1996078491211 114.71562194824219 L129.91912841796875 114.71562194824219 C133.9425811767578 114.71562194824219 137.2160186767578 111.44218444824219 137.2160186767578 107.41914367675781 L137.2160186767578 93.95742797851562 C137.2160186767578 89.9339828491211 133.9425811767578 86.6605453491211 129.91912841796875 86.6605453491211 Z M128.60195922851562 91.5542984008789 L119.51641082763672 98.0453109741211 C118.9437484741211 98.45429992675781 118.17461395263672 98.45391082763672 117.60234832763672 98.0453109741211 L108.51679992675781 91.5542984008789 L128.60195922851562 91.5542984008789 Z M129.91912841796875 109.822265625 L107.1996078491211 109.822265625 C105.8746109008789 109.822265625 104.796875 108.74452209472656 104.796875 107.41952514648438 L104.796875 94.91093444824219 L114.7578125 102.02734375 C115.89492797851562 102.83983612060547 117.22734069824219 103.24609375 118.55976867675781 103.24609375 C119.89179992675781 103.24609375 121.224609375 102.83983612060547 122.361328125 102.02734375 L132.322265625 94.91093444824219 L132.322265625 107.41952514648438 C132.322265625 108.744140625 131.244140625 109.822265625 129.91912841796875 109.822265625 Z"></path>
<path fill="#3c122c" fill-opacity="1.0"  filling="0" d="M35.570701599121094 105.20156860351562 C34.21952819824219 105.20156860351562 33.12382507324219 106.2972640991211 33.12382507324219 107.64842987060547 L33.12382507324219 112.2691421508789 C33.12382507324219 113.62031555175781 34.21952819824219 114.71601867675781 35.570701599121094 114.71601867675781 C36.921871185302734 114.71601867675781 38.017578125 113.62031555175781 38.017578125 112.2691421508789 L38.017578125 107.64842987060547 C38.017578125 106.296875 36.922264099121094 105.20156860351562 35.570701599121094 105.20156860351562 Z"></path>
<path fill="#3c122c" fill-opacity="1.0"  filling="0" d="M47.617183685302734 111.83944702148438 C46.26601791381836 111.83944702148438 45.17031478881836 112.93516540527344 45.17031478881836 114.28633117675781 L45.17031478881836 118.90703582763672 C45.17031478881836 120.2582015991211 46.26601791381836 121.35389709472656 47.617183685302734 121.35389709472656 C48.968360900878906 121.35389709472656 50.064064025878906 120.2582015991211 50.064064025878906 118.90703582763672 L50.064064025878906 114.28633117675781 C50.064064025878906 112.93476867675781 48.96875 111.83944702148438 47.617183685302734 111.83944702148438 Z"></path></svg>