<?xml version='1.0' encoding='utf-8'?>
<svg xmlns:svg="http://www.w3.org/2000/svg" version="1.1" id="Layer_1" x="0px" y="0px" viewBox="0 0 500 500" style="width: 188px;" xml:space="preserve" data-imageid="fast-food-1-34" imageName="Fast Food 1" class="illustrations_image"><svg:style type="text/css">
	.st0_fast-food-1-34{fill:#FFA87D;}
	.st1_fast-food-1-34{fill:url(#SVGID_1_);}
	.st2_fast-food-1-34{fill:url(#SVGID_00000132769408366859602690000016569575826099449219_);}
	.st3_fast-food-1-34{fill:url(#SVGID_00000122687438591356440740000017815444327971554208_);}
	.st4_fast-food-1-34{fill:#68E1FD;}
	.st5_fast-food-1-34{opacity:0.33;enable-background:new    ;}
	.st6_fast-food-1-34{fill:#D4A397;}
	.st7_fast-food-1-34{fill:#FFFFF2;}
	.st8_fast-food-1-34{opacity:0.2;enable-background:new    ;}
	.st9_fast-food-1-34{opacity:0.3;enable-background:new    ;}
	.st10_fast-food-1-34{opacity:0.8;enable-background:new    ;}
	.st11_fast-food-1-34{fill:#FBC144;}
	.st12_fast-food-1-34{opacity:0.15;enable-background:new    ;}
	.st13_fast-food-1-34{fill:#FF2624;}
	.st14_fast-food-1-34{opacity:0.29;enable-background:new    ;}
	.st15_fast-food-1-34{fill:#F48F3B;}
	.st16_fast-food-1-34{opacity:0.5;enable-background:new    ;}
	.st17_fast-food-1-34{fill:#99CE45;}
	.st18_fast-food-1-34{opacity:0.8;fill:#FFFFF2;enable-background:new    ;}
</svg:style><svg:path class="st7_fast-food-1-34" cx="223.9" cy="122.9" rx="33.2" ry="22.1" id="element_6" d="M 256.94013292551693 120.73382119871671 L 256.4620713093873 118.58850388344356 L 255.67041914630934 116.48470863267639 L 254.57280047937473 114.44269614473151 L 253.1797859763654 112.48213211614546 L 251.5047911284445 110.62189785026679 L 249.56394705164288 108.87990841998344 L 247.37594513539338 107.2729401357773 L 244.96185703423305 105.81646898068352 L 242.3449317362508 104.52452156811376 L 239.55037166262312 103.40954005790135 L 236.605089954521 102.48226233150056 L 233.53745128484815 101.7516185803182 L 232.34345061019795 101.55253113007558 L 232.30219908529628 101.75540513900944 L 232.17801751008875 102.36798069024346 L 232.05448426318898 102.97914648698824 L 231.93167614406437 103.58844998433146 L 231.80966994341927 104.19543867217922 L 231.68854244379008 104.79966007325774 L 231.56837042039967 105.40066173971056 L 231.44923064169336 105.9979912511772 L 231.331199869991 106.5911962122049 L 231.24189749847957 107.04107319575239 L 231.38934467316514 107.06311882972398 L 233.77323255501932 107.57225519932618 L 236.06203581011076 108.21841252903533 L 238.23371201190574 108.9953679705408 L 240.26734673142207 109.89563901821384 L 242.14335495461293 110.91055556972717 L 243.8436696967586 112.03034342387986 L 245.35191599740568 113.24421841149812 L 246.65356862018757 114.54049025287964 L 247.73609193879122 115.90667514157761 L 248.58906066189098 117.32961597028128 L 249.20426023440336 118.79560904095162 L 249.5757659481427 120.29053603892477 L 249.70000000000002 121.8 L 249.5757659481427 123.30946396107522 L 249.20426023440336 124.80439095904838 L 248.58906066189098 126.27038402971871 L 247.7360919387912 127.69332485842239 L 246.65356862018757 129.05950974712036 L 245.35191599740568 130.35578158850188 L 243.8436696967586 131.56965657612014 L 242.14335495461293 132.68944443027283 L 240.26734673142207 133.70436098178615 L 238.23371201190574 134.6046320294592 L 236.06203581011076 135.38158747096466 L 233.77323255501932 136.02774480067382 L 231.38934467316514 136.53688117027602 L 228.9333303080161 136.90409331820973 L 226.42884222050264 137.12584479075184 L 223.9 137.2 L 221.37115777949734 137.12584479075184 L 218.86666969198387 136.90409331820973 L 216.41065532683487 136.53688117027602 L 214.02676744498066 136.02774480067382 L 211.73796418988925 135.38158747096466 L 209.56628798809427 134.6046320294592 L 207.53265326857795 133.70436098178615 L 205.65664504538708 132.68944443027283 L 203.95633030324137 131.56965657612014 L 202.44808400259433 130.35578158850186 L 201.14643137981244 129.05950974712036 L 200.0639080612088 127.69332485842237 L 199.21093933810903 126.27038402971871 L 198.59573976559665 124.80439095904838 L 198.2242340518573 123.30946396107522 L 198.1 121.8 L 198.22423405185734 120.29053603892476 L 198.59573976559665 118.79560904095162 L 199.21093933810903 117.32961597028128 L 200.0639080612088 115.90667514157761 L 201.14643137981244 114.54049025287964 L 202.44808400259433 113.24421841149812 L 203.9563303032414 112.03034342387986 L 205.65664504538708 110.91055556972717 L 207.53265326857795 109.89563901821384 L 209.56628798809427 108.9953679705408 L 211.73796418988925 108.21841252903533 L 214.0267674449807 107.57225519932618 L 216.41065532683487 107.06311882972398 L 218.8666696919839 106.69590668179025 L 221.37115777949734 106.47415520924817 L 223.9 106.39999999999999 L 224.27857386679315 106.4111012162326 L 224.6020591635549 104.90509744575286 L 224.7838773453731 104.05863279928823 L 224.9656955271913 103.21216815282361 L 225.05660461810035 102.78893582959125 L 225.23842279991854 101.9424711831266 L 225.32933189082763 101.51923885989429 L 225.47277473361123 100.85143273626842 L 223.9 100.80000000000001 L 220.6458309410586 100.90641754054445 L 217.42300130906455 101.22464530308861 L 214.26254871515187 101.7516185803182 L 211.19491004547902 102.48226233150056 L 208.2496283373769 103.40954005790135 L 205.4550682637492 104.52452156811376 L 202.838142965767 105.81646898068351 L 200.42405486460663 107.2729401357773 L 198.23605294835713 108.87990841998344 L 196.2952088715555 110.6218978502668 L 194.62021402363462 112.48213211614545 L 193.22719952062528 114.44269614473151 L 192.12958085369067 116.48470863267639 L 191.33792869061276 118.58850388344356 L 190.85986707448308 120.73382119871671 L 190.7 122.9 L 190.85986707448308 125.0661788012833 L 191.33792869061276 127.21149611655645 L 192.12958085369067 129.31529136732362 L 193.22719952062528 131.3573038552685 L 194.62021402363462 133.31786788385455 L 196.2952088715555 135.1781021497332 L 198.23605294835713 136.92009158001656 L 200.42405486460663 138.5270598642227 L 202.83814296576696 139.9835310193165 L 205.4550682637492 141.27547843188626 L 208.24962833737686 142.39045994209866 L 211.194910045479 143.31773766849943 L 214.26254871515187 144.04838141968182 L 217.42300130906455 144.5753546969114 L 220.6458309410586 144.89358245945556 L 223.9 145.0 L 227.1541690589414 144.89358245945556 L 230.37699869093547 144.5753546969114 L 233.53745128484815 144.04838141968182 L 236.605089954521 143.31773766849943 L 239.55037166262312 142.39045994209866 L 242.3449317362508 141.27547843188626 L 244.96185703423305 139.9835310193165 L 247.37594513539338 138.5270598642227 L 249.56394705164286 136.9200915800166 L 251.5047911284445 135.1781021497332 L 253.1797859763654 133.31786788385455 L 254.57280047937473 131.3573038552685 L 255.67041914630934 129.31529136732362 L 256.4620713093873 127.21149611655645 L 256.94013292551693 125.0661788012833 L 257.1 122.9 L 256.94013292551693 120.73382119871671 Z" /></svg>