<?xml version='1.0' encoding='utf-8'?>
<svg xmlns:svg="http://www.w3.org/2000/svg" version="1.1" id="Layer_1" x="0px" y="0px" viewBox="0 0 500 500" style="width: 188px;" xml:space="preserve" data-imageid="fast-food-1-34" imageName="Fast Food 1" class="illustrations_image"><svg:style type="text/css">
	.st0_fast-food-1-34{fill:#FFA87D;}
	.st1_fast-food-1-34{fill:url(#SVGID_1_);}
	.st2_fast-food-1-34{fill:url(#SVGID_00000132769408366859602690000016569575826099449219_);}
	.st3_fast-food-1-34{fill:url(#SVGID_00000122687438591356440740000017815444327971554208_);}
	.st4_fast-food-1-34{fill:#68E1FD;}
	.st5_fast-food-1-34{opacity:0.33;enable-background:new    ;}
	.st6_fast-food-1-34{fill:#D4A397;}
	.st7_fast-food-1-34{fill:#FFFFF2;}
	.st8_fast-food-1-34{opacity:0.2;enable-background:new    ;}
	.st9_fast-food-1-34{opacity:0.3;enable-background:new    ;}
	.st10_fast-food-1-34{opacity:0.8;enable-background:new    ;}
	.st11_fast-food-1-34{fill:#FBC144;}
	.st12_fast-food-1-34{opacity:0.15;enable-background:new    ;}
	.st13_fast-food-1-34{fill:#FF2624;}
	.st14_fast-food-1-34{opacity:0.29;enable-background:new    ;}
	.st15_fast-food-1-34{fill:#F48F3B;}
	.st16_fast-food-1-34{opacity:0.5;enable-background:new    ;}
	.st17_fast-food-1-34{fill:#99CE45;}
	.st18_fast-food-1-34{opacity:0.8;fill:#FFFFF2;enable-background:new    ;}
</svg:style><svg:path class="st14_fast-food-1-34" d="M 261.52400452151386 290.19054966094205 L 261.4284293660371 290.35951355504164 L 261.3327305921091 290.5285224014515 L 261.2369081960048 290.6975780549988 L 261.14096217418006 290.86668237026726 L 261.04489252292495 291.0358372022079 L 260.948699238878 291.20504440523433 L 260.8523823185531 291.37430583405586 L 260.75594175884436 291.54362334279045 L 260.65937755656597 291.71299878577446 L 260.5626897086505 291.88243401721473 L 260.4658300409253 292.05201522902183 L 260.44396422497726 292.094984459371 L 260.42633857250377 292.1398598985193 L 260.41311696461224 292.1862243002585 L 260.40442233415564 292.2336465741928 L 260.40033552271814 292.28168579396316 L 260.4008945289602 292.3298952969257 L 260.40609415531185 292.3778268371646 L 260.41588605629903 292.4250347532267 L 260.43017918805367 292.4710801118258 L 260.44884065482836 292.51553478898904 L 260.4716969446441 292.5579854507004 L 260.4985355425831 292.5980373960282 L 260.5291069067258 292.6353182270051 L 260.5631267883604 292.66948131113753 L 260.60027887489156 292.70020900435156 L 260.6402177308756 292.7272156044071 L 260.68257200983567 292.75025000732194 L 260.7269479069949 292.76909804210516 L 260.7729328208237 292.78358446209165 L 260.82009918935734 292.79357457436436 L 260.86800846561323 292.7989754921115 L 260.91621519514587 292.7997369982768 L 260.9642711578265 292.79585201247136 L 261.01172953533774 292.78735665680637 L 261.05814906563404 292.77432992003384 L 261.1030981457412 292.7568929231195 L 261.1326409404946 292.74376055329975 L 261.15834039262114 292.73285174741756 L 261.18399255866314 292.72247738724667 L 261.2096008264591 292.71263444477756 L 261.23516921409293 292.7033198354436 L 261.26070238951405 292.6945304626915 L 261.2862056856867 292.6862632659446 L 261.31168511074 292.6785152715703 L 261.33714735246707 292.6712836464188 L 261.36259977682573 292.6645657533339 L 261.38805041984733 292.658359208042 L 261.4135079728036 292.6526619366482 L 261.43898176023924 292.6474722329939 L 261.4644817109008 292.6427888150017 L 261.49001832148343 292.63861087915507 L 261.5156026134613 292.6349381522028 L 261.541246083214 292.63177093922474 L 261.5669606459936 292.62911016719306 L 261.5927585742905 292.6269574232414 L 261.6186524313527 292.6253149869234 L 261.644655000672 292.6241858558492 L 261.67077921245374 292.6235737641997 L 261.697038068018 292.62348319376446 L 261.7234445632822 292.6239193772897 L 261.7500116123736 292.6248882940798 L 261.77675197250306 292.6263966579519 L 261.8036781711147 292.62845189779244 L 261.8308024364179 292.6310621311185 L 261.85813663205914 292.63423613115776 L 261.88569219693426 292.6379832881049 L 261.9134800906494 292.64231356527006 L 261.9415107453475 292.64723745094375 L 261.96979402419316 292.6527659068185 L 261.99833918684413 292.6589103138528 L 262.02715486202936 292.66568241645626 L 262.05624902720393 292.6730942658543 L 262.0856289951353 292.6811581634474 L 262.11530140720856 292.68988660494057 L 262.1452722330184 292.69929222591446 L 262.1755467759108 292.70938774947933 L 262.20612968385683 292.72018593650427 L 262.23702496520997 292.73169953888856 L 262.26823600871046 292.74394125620256 L 262.2997656070972 292.75692369593446 L 262.33161598387954 292.7706593375731 L 262.3637888224625 292.7851605005269 L 262.39628529728674 292.8004393159926 L 262.42910610623693 292.81650770263354 L 262.4622515040198 292.83337734605607 L 262.4957213359192 292.8510596818733 L 262.5295150715661 292.86956588218976 L 262.5636318384052 292.888906845317 L 262.5980704544794 292.90909318845013 L 262.6328294603234 292.93013524308526 L 262.6679071497221 292.9520430529117 L 262.7033015991646 292.974826373922 L 262.7390106958756 292.9984946765017 L 262.77503216427857 293.0230571492188 L 262.81136359090476 293.0485227041329 L 262.8480024475902 293.07489998331846 L 262.88494611311864 293.1021973665113 L 262.9221918930968 293.13042297952717 L 262.9597370383291 293.1595847034488 L 262.9975787615509 293.18969018428703 L 263.0357142526249 293.2207468430054 L 263.0741406923535 293.2527618858543 L 263.11285526480486 293.28574231475955 L 263.15185516840734 293.3196949378149 L 263.19113762575944 293.35462637968374 L 263.2306998922805 293.3905430918732 L 263.2705392638343 293.42745136286834 L 263.310653083273 293.46535732795525 L 263.3510387461504 293.504266978848 L 263.3916937055005 293.5441861729216 L 263.4326154759295 293.5851206421898 L 263.47380163693475 293.62707600186104 L 263.515249835613 293.67005775855347 L 263.5569577888028 293.7140713181443 L 263.5989232846771 293.7591219932085 L 263.64114418391756 293.8052150101265 L 263.68361842039025 293.85235551572566 L 263.7263440015974 293.90054858370837 L 263.7693190086208 293.949799220517 L 263.8125415959345 294.0001123710182 L 263.8560099908775 294.0514929237444 L 263.8997224929735 294.10394571588023 L 263.9436774729866 294.15747553784234 L 263.9878733718884 294.21208713764014 L 264.03230869966103 294.267785224914 L 264.0769820339758 294.32457447468323 L 264.121892018792 294.38245953085067 L 264.1670373629094 294.4414450094957 L 264.21241683838406 294.5015355018361 L 264.25802927896694 294.5627355770554 L 264.30387357851316 294.6250497849294 L 264.3499486892925 294.6884826581541 L 264.3962536203827 294.75303871461807 L 264.44278743599466 294.8187224594159 L 264.48702891613925 294.88193718584984 L 264.50785813701214 294.91322082680205 L 264.53167347333647 294.9490821542775 L 264.55541888351314 294.98493333462443 L 264.5790937945 295.020775574429 L 264.6026976353354 295.05661008108984 L 264.62622983711066 295.09243806279613 L 264.6496898330415 295.128260728658 L 264.6730770583927 295.16407928861537 L 264.6963909505391 295.1998949535567 L 264.71963094888093 295.2357089352148 L 264.74279649506286 295.2715224465341 L 264.7658870326664 295.307336701226 L 264.7889020074854 295.34315291422735 L 264.8118408673897 295.3789723015244 L 264.83470306228935 295.41479608013117 L 264.85748804432274 295.45062546842405 L 264.8801952675881 295.48646168575954 L 264.9028241883844 295.52230595289586 L 264.92537426504106 295.55815949176855 L 264.9478449580001 295.5940235256661 L 264.97023572979236 295.629899279242 L 264.99254604498265 295.66578797847575 L 265.01477537023857 295.7016908508372 L 265.0369231742848 295.7376091252675 L 265.05898892783193 295.77354403212007 L 265.0809721037127 295.80949680344196 L 265.1028721766816 295.8454686727079 L 265.1246886236004 295.88146087518754 L 265.1464209232094 295.9174746476359 L 265.16806855629716 295.9535112286397 L 265.1896310056029 295.98957185852873 L 265.21110775574243 296.02565777932216 L 265.2324982933032 296.06177023496423 L 265.2538021067348 296.09791047121666 L 265.27501868634005 296.134079735723 L 265.2961475242872 296.1702792781105 L 265.3171881145658 296.2065103500003 L 265.3381399529152 296.2427742049701 L 265.3590025368531 296.2790720986916 L 265.3797753656447 296.3154052889692 L 265.40045794021086 296.3517750356721 L 265.4210497631312 296.38818260083565 L 265.44155033866537 296.4246292487963 L 265.46195917259337 296.46111624600917 L 265.4822757723028 296.4976448613053 L 265.50249964662646 296.53421636570516 L 265.52263030594884 296.5708320327168 L 265.54266726203036 296.6074931381274 L 265.5626100279995 296.6442009600977 L 265.58245811837514 296.6809567793173 L 265.60221104894816 296.71776187890066 L 265.62186833672376 296.7546175443975 L 265.64142949995244 296.7915250639685 L 265.6608940579937 296.8284857282514 L 265.6802615313171 296.8655008304847 L 265.6995314414265 296.9025716664879 L 265.7187033107882 296.9396995346504 L 265.73777666285065 296.97688573609696 L 265.75675102188245 297.01413157450395 L 265.77562591299727 297.0514383562775 L 265.79440086203954 297.0888073904619 L 265.8130753955786 297.1262399888623 L 265.8316490407688 297.16373746590017 L 265.85012132539674 297.2013011388445 L 265.8684917776908 297.2389323275654 L 265.8867599263812 297.2766323547936 L 265.9049253005087 297.3144025458684 L 265.92298742948736 297.352244229007 L 265.94094584293754 297.3901587350992 L 265.9588000706537 297.42814739778044 L 265.9765496425603 297.4662115534813 L 265.9941940885832 297.5043525412965 L 266.01173293865315 297.54257170313565 L 266.02916572257334 297.58087038357934 L 266.04649196999173 297.6192499299633 L 266.06371121028224 297.65771169225906 L 266.0808229725336 297.69625702319286 L 266.09782678542933 297.7348872781208 L 266.11472217720507 297.7736038150743 L 266.1315086755532 297.8124079946859 L 266.14818580758026 297.8513011802317 L 266.16475309968934 297.8902847375001 L 266.1812100775698 297.9293600349073 L 266.1975562660685 297.96852844333176 L 266.2137911891686 298.00779133620136 L 266.2299143698597 298.04715008931714 L 266.2459253301251 298.08660608095465 L 266.2618235908493 298.12616069177346 L 266.2776086717188 298.1658153046993 L 266.29328009122946 298.2055713050726 L 266.3088373665193 298.24543008035346 L 266.32428001339093 298.2853930203015 L 266.3396075461848 298.325461516773 L 266.3548194777517 298.3656369637663 L 266.3699153193528 298.4059207572781 L 266.38489458063464 298.44631429534655 L 266.39975676954475 298.4868189779376 L 266.4145013922771 298.5274362069032 L 266.42942144872103 298.5689846947988 L 266.4491105344492 298.61609879651536 L 266.47350221456185 298.6609590753671 L 266.5023420937211 298.7030976568269 L 266.53532938367584 298.7420750525687 L 266.57212004036137 298.77748474415193 L 266.6123303521392 298.8089574228446 L 266.6555409417545 298.83616484136365 L 266.70130114027035 298.85882323736075 L 266.74913368736236 298.87669629294885 L 266.79853970895056 298.889597599402 L 266.8490039202535 298.8973926013227 L 266.8999999999999 298.90000000000003 L 266.94925599621416 298.89756793188167 L 266.9980328166762 298.89029538734786 L 267.0458559471862 298.8782531156934 L 267.0922601513002 298.86155826741816 L 267.1367939962765 298.8403732545551 L 267.17902424473687 298.8149041706817 L 267.2185400693178 298.7853987859855 L 267.25495704931063 298.7521441368882 L 267.2879209104114 298.7154637336774 L 267.31711097119745 298.6757144133098 L 267.34224326280406 298.63328286800464 L 267.3630732914505 298.58858188339616 L 267.63580056417777 297.9188849136992 L 267.9085278369051 297.24918794400224 L 268.4539823823596 295.9097940046083 L 268.7267096550869 295.2400970349113 L 268.99943692781414 294.57040006521436 L 269.27216420054145 293.9007030955174 L 269.380959728287 293.6335496329422 L 269.26796484510436 293.53897146305155 L 269.26365697957164 293.5353241761153 L 269.1278947042318 293.4190580560842 L 269.1236442322852 293.4153763409555 L 268.99308179740683 293.3009931456724 L 268.98888975484533 293.2972788746881 L 268.863462231989 293.1848861998528 L 268.85932957617854 293.18114125962876 L 268.73897203690456 293.0708467009412 L 268.7348996464782 293.06707298840166 L 268.61954716234703 292.95898414156164 L 268.6155358371672 292.9551835600382 L 268.50512347973927 292.84940802074567 L 268.5011739411101 292.8455824761585 L 268.3956367819457 292.74222784011334 L 268.3917496730729 292.7383792372565 L 268.29102278373267 292.6375531001585 L 268.2871986704258 292.63368333911035 L 268.19121712246994 292.5354932966595 L 268.18745649407197 292.5316042693296 L 268.096155359061 292.4361579172257 L 268.09245862961103 292.4322515040691 L 268.00577297910536 292.3396564380121 L 268.00214048871567 292.335734504922 L 267.92000539427573 292.24609832061185 L 267.91643741073005 292.24216271602376 L 267.8387879439162 292.15559300916016 L 267.8352846644824 292.1516455613929 L 267.7620558968551 292.0682499276759 L 267.75861745031784 292.06429244254764 L 267.6897444534375 291.98417847767706 L 267.68637090236575 291.9802127364492 L 267.6217887477928 291.9034880361248 L 267.61848009106393 291.8995157938427 L 267.55812385035875 291.8262879537645 L 267.55488002598713 291.82231093810026 L 267.49868477071016 291.75268755396814 L 267.49550565905605 291.7487074647248 L 267.4434064607677 291.68279613223865 L 267.44029188826147 291.6788146417663 L 267.39222381852215 291.61672295662595 L 267.3891735621298 291.61274171156094 L 267.3450716924999 291.5545772694663 L 267.34208548532337 291.55059789448524 L 267.30188488736337 291.4964682911362 L 267.2989624260843 291.49249239595264 L 267.26259817135457 291.442505227049 L 267.25973912682974 291.4385344189014 L 267.22714628689073 291.3927972801431 L 267.2243503204622 291.3888331861586 L 267.19546396687423 291.3474536732456 L 267.19273075768797 291.3434979817228 L 267.1674859620116 291.3065836903549 L 267.164815257197 291.30263823117633 L 267.14314709099256 291.27029675705336 L 267.1405388077728 291.26636367079306 L 267.12238234260076 291.238702609615 L 267.11983680316115 291.2347847430964 L 267.10512711058186 291.2119116905631 L 267.102645675313 291.20801367147476 L 267.0913178268869 291.1900362232861 L 267.0889050419848 291.18616811495195 L 267.0808941092723 291.1731938668078 L 267.0785684407642 291.16938944468814 L 267.0738094953257 291.16152599228843 L 267.0717431100556 291.1580804203927 L 267.07017122345155 291.15543535943726 L 267.0453001577756 291.107961663489 L 267.0256532690219 291.05809863633317 L 267.0114562859312 291.0064191685924 L 267.00287232171485 290.95351702049635 L 267.0 290.9 L 267.0 289.92584344674043 L 266.48667026056654 289.97804065488526 L 266.4787641939867 289.9787811926544 L 265.86550931069814 290.0313140716948 L 265.85750132630835 290.0319353047632 L 265.254694356498 290.0738310503014 L 265.2465888065957 290.07432828864046 L 264.6541617299935 290.10584414097053 L 264.64596336168313 290.10621283220695 L 264.06384815801914 290.1276060316228 L 264.0555621110089 290.12784178993434 L 263.48369076001296 290.13936957672996 L 263.4753225614353 290.1394682122325 L 262.9136270428374 290.1413878267018 L 262.9051825989477 290.1413453750388 L 262.3535948924779 290.13391405747586 L 262.34508047711773 290.1337268092963 L 261.80353256250584 290.11720179999503 L 261.79495480225916 290.1168663299832 L 261.5716603894837 290.10621296910796 L 261.52400452151386 290.19054966094205 Z" id="element_59" /></svg>