<?xml version='1.0' encoding='utf-8'?>
<svg xmlns:svg="http://www.w3.org/2000/svg" version="1.1" id="Layer_1" x="0px" y="0px" viewBox="0 0 500 500" style="width: 188px;" xml:space="preserve" data-imageid="fast-food-1-34" imageName="Fast Food 1" class="illustrations_image"><svg:style type="text/css">
	.st0_fast-food-1-34{fill:#FFA87D;}
	.st1_fast-food-1-34{fill:url(#SVGID_1_);}
	.st2_fast-food-1-34{fill:url(#SVGID_00000132769408366859602690000016569575826099449219_);}
	.st3_fast-food-1-34{fill:url(#SVGID_00000122687438591356440740000017815444327971554208_);}
	.st4_fast-food-1-34{fill:#68E1FD;}
	.st5_fast-food-1-34{opacity:0.33;enable-background:new    ;}
	.st6_fast-food-1-34{fill:#D4A397;}
	.st7_fast-food-1-34{fill:#FFFFF2;}
	.st8_fast-food-1-34{opacity:0.2;enable-background:new    ;}
	.st9_fast-food-1-34{opacity:0.3;enable-background:new    ;}
	.st10_fast-food-1-34{opacity:0.8;enable-background:new    ;}
	.st11_fast-food-1-34{fill:#FBC144;}
	.st12_fast-food-1-34{opacity:0.15;enable-background:new    ;}
	.st13_fast-food-1-34{fill:#FF2624;}
	.st14_fast-food-1-34{opacity:0.29;enable-background:new    ;}
	.st15_fast-food-1-34{fill:#F48F3B;}
	.st16_fast-food-1-34{opacity:0.5;enable-background:new    ;}
	.st17_fast-food-1-34{fill:#99CE45;}
	.st18_fast-food-1-34{opacity:0.8;fill:#FFFFF2;enable-background:new    ;}
</svg:style><svg:path class="st12_fast-food-1-34" d="M 99.8777851165098 138.18426519384872 L 99.83569836841299 138.1590393678258 L 99.79134171618254 138.13806023374434 L 99.74514233862723 138.1215298321339 L 99.69754516100807 138.1096073597984 L 99.64900857016478 138.10240763666388 L 99.6 138.1 L 92.1 138.1 L 92.05160676910896 138.102347415154 L 92.0036679342321 138.1093676191843 L 91.95663362475923 138.12099469475763 L 91.91094547689362 138.13711946758042 L 91.86703248683786 138.15759053150836 L 91.82530698266524 138.1822156701987 L 91.78616075269895 138.2107636619565 L 91.74996136675276 138.2429664508279 L 91.71704872477522 138.27852166355456 L 91.68773186530449 138.3170954487558 L 91.66228606370129 138.3583256116799 L 91.64095024740679 138.40182501508988 L 91.62392475249496 138.44718521435075 L 91.61136944258485 138.49398029258595 L 91.60340220777542 138.54177085989238 L 91.60009785769759 138.59010817906236 L 91.60148741907715 138.63853837907382 L 91.66411368170341 139.44863938917484 L 91.72673994432967 140.25874039927584 L 91.78936620695593 141.06884140937686 L 91.8519924695822 141.87894241947785 L 91.91461873220845 142.68904342957887 L 91.97724499483472 143.4991444396799 L 92.03987125746099 144.3092454497809 L 92.10249752008724 145.1193464598819 L 92.16512378271351 145.9294474699829 L 92.22775004533977 146.73954848008393 L 92.29037630796603 147.54964949018495 L 92.3530025705923 148.35975050028594 L 92.41562883321856 149.16985151038696 L 92.47825509584482 149.97995252048796 L 92.60350762109735 151.60015454069 L 92.66613388372362 152.410255550791 L 92.72876014634987 153.22035656089201 L 92.79138640897614 154.030457570993 L 92.8540126716024 154.84055858109403 L 92.91663893422866 155.65065959119505 L 92.97926519685493 156.46076060129604 L 93.04189145948119 157.27086161139707 L 93.10451772210745 158.08096262149806 L 93.22977024735998 159.7011646417001 L 93.29239650998623 160.5112656518011 L 93.3550227726125 161.32136666190212 L 93.41764903523877 162.1314676720031 L 93.48027529786502 162.94156868210413 L 93.54290156049129 163.75166969220516 L 93.60552782311755 164.56177070230615 L 93.66815408574381 165.37187171240717 L 93.73078034837008 166.18197272250816 L 93.79340661099634 166.99207373260919 L 93.8560328736226 167.80217474271018 L 93.98128539887513 169.42237676291222 L 94.04391166150138 170.23247777301322 L 94.16916418675392 171.85267979321526 L 94.23179044938017 172.66278080331625 L 94.29441671200644 173.47288181341727 L 94.3570429746327 174.28298282351827 L 94.41966923725896 175.0930838336193 L 94.48229549988523 175.90318484372028 L 94.54492176251149 176.7132858538213 L 94.60754802513775 177.52338686392233 L 94.67017428776401 178.33348787402332 L 94.79542681301655 179.95368989422536 L 94.8580530756428 180.76379090432636 L 94.92067933826907 181.57389191442735 L 94.98330560089533 182.3839929245284 L 95.04593186352159 183.1940939346294 L 95.10855812614786 184.00419494473041 L 95.17118438877412 184.8142959548314 L 95.23381065140038 185.62439696493243 L 95.29643691402664 186.43449797503342 L 95.35906317665291 187.24459898513445 L 95.42168943927916 188.05469999523547 L 95.48431570190543 188.86480100533646 L 95.5469419645317 189.67490201543748 L 95.60956822715795 190.48500302553848 L 95.67219448978422 191.2951040356395 L 95.73482075241049 192.1052050457405 L 95.79744701503674 192.9153060558415 L 95.860073277663 193.72540706594253 L 95.92269954028927 194.53550807604353 L 95.98532580291553 195.34560908614455 L 96.04795206554179 196.15571009624557 L 96.11057832816806 196.96581110634656 L 96.17320459079431 197.77591211644759 L 96.23583085342058 198.58601312654858 L 96.29845711604685 199.3961141366496 L 96.3610833786731 200.2062151467506 L 96.48633590392564 201.82641716695264 L 96.5489621665519 202.63651817705363 L 96.61158842917816 203.44661918715465 L 96.67421469180442 204.25672019725567 L 96.73684095443069 205.06682120735667 L 96.79946721705694 205.87692221745766 L 96.87344177101515 206.833818867046 L 96.96220810645806 206.8105761347014 L 97.11471027994848 206.77069592378854 L 97.26837900858527 206.7305639562964 L 97.42309645345337 206.6902135595801 L 97.57874479428398 206.64967805673754 L 97.73520623109889 206.6089907662528 L 97.89236298603007 206.56818500160318 L 98.05009730534027 206.52729407082518 L 98.20829146166821 206.48635127603524 L 98.36682775652983 206.44538991289838 L 98.52558852310885 206.4044432700395 L 98.68445612937833 206.3635446283886 L 98.84331298159766 206.32272726045218 L 99.0020415282409 206.28202442950038 L 99.16052426441753 206.24146938865897 L 99.31864373686234 206.20109537989174 L 99.4762825495774 206.16093563285943 L 99.63332337023249 206.12102336363571 L 99.78964893744154 206.08139177326024 L 99.94514206906082 206.04207404610355 L 100.09968567167913 206.00310334801537 L 100.25316275150443 205.96451282422188 L 100.40545642689302 205.92633559693212 L 100.55644994281786 205.88860476260527 L 100.70602668763375 205.85135338882276 L 100.85407021257915 205.81461451069654 L 101.00046425454595 205.77842112673338 L 101.14509276277816 205.74280619405636 L 101.28733685454782 205.70792570876264 L 101.28783993031011 205.707802622867 L 101.42805639966646 205.67357327706742 L 101.4285902311567 205.67344327000396 L 101.56666097017633 205.6398984554674 L 101.56722846452118 205.63976093142549 L 101.70303536528064 205.60693403992093 L 101.70363980761233 205.60678833340364 L 101.83706476218819 205.57471275669997 L 101.8377098790948 205.57455812216944 L 101.96863477956362 205.54326725203558 L 101.9693248157499 205.5431028516901 L 102.09763155418827 205.51263007989502 L 102.0983713656706 205.51245496918318 L 102.22394183415506 205.48283368749577 L 102.22473700230296 205.4826467978767 L 102.34745309291009 205.45391039806591 L 102.34831006497396 205.45371051640865 L 102.4680536697803 205.42589239024343 L 102.4689799333673 205.42567813410463 L 102.58563294444944 205.39881167335386 L 102.58663724590137 205.39858146118692 L 102.7000815553359 205.37270005761957 L 102.70117417543952 205.37245207273128 L 102.81129167530295 205.34758911811625 L 102.81248478067322 205.34732126489385 L 102.91915736304216 205.3235101510001 L 102.92046545852061 205.3232200015789 L 103.02357501547161 205.30049412017533 L 103.02501553306415 205.3001788492998 L 103.12444395667379 205.27857159215537 L 103.12603803153574 205.27822789753705 L 103.22166721388056 205.25777265642066 L 103.22344072036628 205.25739666148053 L 103.31515255352286 205.23812682816109 L 103.31713750870786 205.23771396385686 L 103.40481388475277 205.21966293010337 L 103.40705038055775 205.21920779301547 L 103.49057319156755 205.20240895059678 L 103.4931121024637 205.20190513657346 L 103.57236324051496 205.18639187725856 L 103.57527009451788 205.1858317959343 L 103.65013145168716 205.17163751149207 L 103.65349208980771 205.17101220195406 L 103.72384555817159 205.15817028415347 L 103.72777462106708 205.15746928771543 L 103.79350209270213 205.1460131283254 L 103.79815612021923 205.14522455890514 L 103.85913948720199 205.13518754969456 L 103.86473782183536 205.1342987058024 L 103.9208589762424 205.12571423854024 L 103.92771843255285 205.12471360697825 L 103.97885926646074 205.11761507343343 L 103.98745429516607 205.1164978950492 L 104.0334967006514 205.11091868699066 L 104.04456955013333 205.1097019259562 L 104.08539541927264 205.10567543515285 L 104.1001712164982 205.1044390773098 L 104.13566244136805 205.10199869553057 L 104.15630279957524 205.10100747664777 L 104.18634127225222 205.1001865956616 L 104.23358383476648 205.10112914893492 L 104.28052646030504 205.10652711402673 L 104.30266578493902 205.11122342765088 L 104.30278038707331 205.11067782388997 L 104.33375269560914 205.11718344741428 L 104.36896021440202 205.1261869826972 L 104.3627445562155 205.00537461256354 L 104.31553297721369 204.08976994596833 L 104.26702707025325 203.15120377499875 L 104.21726888026343 202.1906530522407 L 104.16630045193172 201.20909472654043 L 104.11416382968531 200.20750574273703 L 104.06090105767082 199.18686304137103 L 104.00655417973209 198.14814355836705 L 103.95116523938587 197.09232422468781 L 103.89477627979502 196.02038196595615 L 103.83742934373916 194.93329370204185 L 103.77916647358226 193.83203634660953 L 103.72002971123699 192.717586806623 L 103.66006109812525 191.59092198180124 L 103.59930267513464 190.4530187640205 L 103.53779648257 189.3048540366561 L 103.47558456009988 188.14740467385676 L 103.41270894669685 186.98164753974325 L 103.34921168057106 185.80855948752202 L 103.28513479909607 184.6291173585032 L 103.22052033872589 183.4442979810104 L 103.15541033490202 182.25507816916857 L 103.08984682194904 181.06243472155322 L 103.02387183295718 179.86734441968292 L 102.95752739964962 178.6707840263323 L 102.89085555223268 177.4737302836415 L 102.82389831922585 176.2771599109914 L 102.75669772726853 175.0820496026113 L 102.68929580090003 173.88937602487812 L 102.62173456230788 172.70011581326003 L 102.55405603103948 171.51524556884874 L 102.48630222367058 170.33574185441407 L 102.41851515342279 169.16258118990228 L 102.3507368297212 167.9967400472852 L 102.2830092576803 166.83919484464693 L 102.21537443750515 165.69092193937468 L 102.14787436379046 164.5528976202896 L 102.08055102469731 163.42609809852178 L 102.01344640098185 162.31149949688773 L 101.94660246484418 161.21007783747672 L 101.88006117855782 160.12280902708267 L 101.8138644928299 159.05066884003296 L 101.74805434482812 157.99463289785498 L 101.68267265579475 156.95567664507902 L 101.61776132814263 155.93477532029382 L 101.5533622418997 154.93290392133153 L 101.48951725032576 153.9510371631445 L 101.42626817447044 152.99014942651957 L 101.36365679636462 152.05121469521865 L 101.30172485043224 151.13520647837944 L 101.24051401256116 150.24309771398168 L 101.24047664604541 150.24255740824563 L 101.18006588606318 149.3758606477625 L 101.18002453895211 149.37527245221793 L 101.12042198345118 148.53446667997662 L 101.12037600464956 148.5338239351575 L 101.06162370252413 147.71988616958214 L 101.06157229445604 147.7191809218747 L 101.00371229460033 146.93308818138954 L 101.00365447045355 146.93231085278262 L 100.94672882176175 146.17504015581193 L 100.94666334710628 146.1741791071396 L 100.89071409847261 145.4467074721075 L 100.89063941026697 145.4457484174602 L 100.83570861058564 144.74905286279096 L 100.83562270282448 144.74797807240955 L 100.78175240098967 144.08303561652738 L 100.78165266007456 144.08182281341416 L 100.7288849049805 143.4496104747433 L 100.7287678674863 143.4482312784336 L 100.67714470802721 142.84972607539825 L 100.6770056954317 142.8481437604043 L 100.62656918050176 142.28432271142867 L 100.6264017328518 142.28248890085038 L 100.57719391134523 141.75432902435873 L 100.57698888080964 141.7521786787484 L 100.52905180162065 141.2606569931649 L 100.52879584739884 141.25810057485378 L 100.48217155942162 140.80419409860264 L 100.48184453909022 140.80110486611636 L 100.436575091219 140.38579061762184 L 100.43614530372723 140.38198312214615 L 100.3922727448562 140.0062381198324 L 100.39168770893863 140.00142989829902 L 100.34925408796201 139.66623116059037 L 100.34842127209484 139.65997009880056 L 100.30746863790682 139.36629464412113 L 100.30621120038681 139.35781010555573 L 100.2667816018816 139.10663495232976 L 100.26472343401912 139.0945007230651 L 100.22685892009093 138.88680288971682 L 100.22307175916536 138.86806653789625 L 100.18681437870842 138.70482304284985 L 100.17843834708117 138.67231013842286 L 100.14383014898965 138.55449800010263 L 100.11817373669787 138.48609550969945 L 100.08525676986599 138.41469174652954 L 100.06297468717119 138.37191416119518 L 100.03667450766098 138.3314825699083 L 100.00660097165515 138.2937732149899 L 99.97303393301611 138.2591370065764 L 99.93628575492632 138.22789625717218 L 99.9051020682483 138.20387788757682 L 99.90478493799434 138.20428962620198 L 99.8777851165098 138.18426519384872 Z" id="element_32" /></svg>