<svg xmlns="http://www.w3.org/2000/svg" viewBox="0.0 0.0 200.0 200.0" height="200.0px" width="200.0px"><path fill="#ffff6f" fill-opacity="1.0"  filling="0" d="M32.301177978515625 134.51913452148438 L7.836326599121094 158.98397827148438 C1.2996063232421875 165.5207061767578 1.2996063232421875 176.1183624267578 7.836326599121094 182.65469360351562 C14.373046875 189.19140625 24.970703125 189.19140625 31.50702667236328 182.65469360351562 L55.97187423706055 158.18984985351562 L32.301177978515625 134.51913452148438 Z"></path>
<path fill="#f90" fill-opacity="1.0"  filling="0" d="M5.764839172363281 184.72616577148438 C-1.9214859008789062 177.03945922851562 -1.9214859008789062 164.59921264648438 5.764839172363281 156.91250610351562 L30.229690551757812 132.44766235351562 C31.373443603515625 131.30430603027344 33.228515625 131.3035125732422 34.372657775878906 132.44766235351562 L58.04374694824219 156.11874389648438 C59.1875 157.26287841796875 59.1875 159.11758422851562 58.04374694824219 160.26133728027344 L33.57891082763672 184.72616577148438 C25.910545349121094 192.39413452148438 13.433204650878906 192.39453125 5.764839172363281 184.72616577148438 Z M32.301177978515625 138.66171264648438 L9.908203125 161.05508422851562 C4.511329650878906 166.45156860351562 4.5109405517578125 175.18594360351562 9.908203125 180.5832061767578 C15.291801452636719 185.96719360351562 24.052345275878906 185.96719360351562 29.435935974121094 180.5832061767578 L51.82929611206055 158.18984985351562 L32.301177978515625 138.66171264648438 Z"></path>
<path fill="#f90" fill-opacity="1.0"  filling="0" d="M24.289451599121094 142.501953125 L32.28202819824219 134.50936889648438 L55.94921875 158.1769561767578 L47.95663833618164 166.1691436767578 L24.289451599121094 142.501953125 Z"></path>
<path fill="#ffceff" fill-opacity="1.0"  filling="0" d="M164.77032470703125 118.56600952148438 L162.6378936767578 120.6949234008789 L143.29998779296875 101.3570327758789 L151.55313110351562 93.1078109741211 C156.298828125 88.36210632324219 156.298828125 80.6714859008789 151.55703735351562 75.9296875 C146.8113250732422 71.18827819824219 139.12460327148438 71.18827819824219 134.37890625 75.9296875 L126.12577819824219 84.18280792236328 L106.30742645263672 64.36445617675781 L114.560546875 56.115234375 C119.30625915527344 51.369529724121094 119.30625915527344 43.67890167236328 114.560546875 38.937110900878906 C109.81874084472656 34.19140625 102.13203430175781 34.19140625 97.3863296508789 38.937110900878906 L89.1332015991211 47.19023895263672 L69.7953109741211 27.852340698242188 L71.927734375 25.719924926757812 C97.5660171508789 0.08164215087890625 139.1320343017578 0.08164215087890625 164.77032470703125 25.719924926757812 C190.40859985351562 51.35820388793945 190.41250610351562 92.923828125 164.77032470703125 118.56600952148438 Z"></path>
<path fill="#ffceff" fill-opacity="1.0"  filling="0" d="M127.75038146972656 155.5859375 L111.580078125 171.75625610351562 C99.6734390258789 183.66445922851562 80.9222640991211 183.10662841796875 69.53750610351562 171.75625610351562 L55.972267150878906 158.19100952148438 L32.302734375 134.521484375 L18.737503051757812 120.95625305175781 C7.125389099121094 109.3441390991211 7.125389099121094 90.5179672241211 18.737503051757812 78.9097671508789 L34.907814025878906 62.73945617675781 L54.245704650878906 82.07734680175781 L45.992576599121094 90.3304672241211 C41.24687957763672 95.076171875 41.24687957763672 102.76289367675781 45.98867416381836 107.50859069824219 C48.36328125 109.87968444824219 51.47265625 111.06289672851562 54.57773208618164 111.06289672851562 C57.68671798706055 111.06289672851562 60.79570007324219 109.87539672851562 63.16679763793945 107.50469207763672 L71.419921875 99.2515640258789 L91.23828125 119.0699234008789 L82.98515319824219 127.32304382324219 C80.61445617675781 129.6941375732422 79.43086242675781 132.80313110351562 79.42694854736328 135.912109375 C79.42694854736328 139.02110290527344 80.61054992675781 142.1300811767578 82.98515319824219 144.5011749267578 C87.7269515991211 149.24298095703125 95.4136734008789 149.24298095703125 100.15937042236328 144.4972686767578 L108.41250610351562 136.248046875 L127.75038146972656 155.5859375 Z"></path>
<path fill="#ff9bff" fill-opacity="1.0"  filling="0" d="M34.899993896484375 62.73906326293945 L69.78164672851562 27.857032775878906 L89.1167984008789 47.19218444824219 L54.23515319824219 82.07421875 L34.899993896484375 62.73906326293945 Z"></path>
<path fill="#ff9bff" fill-opacity="1.0"  filling="0" d="M71.4039077758789 99.25077819824219 L106.2855453491211 64.369140625 L126.10077667236328 84.18437194824219 L91.2191390991211 119.06640625 L71.4039077758789 99.25077819824219 Z"></path>
<path fill="#ff9bff" fill-opacity="1.0"  filling="0" d="M108.38788604736328 136.25701904296875 L143.27188110351562 101.37305450439453 L162.6066436767578 120.70820617675781 L127.72305297851562 155.59219360351562 L108.38788604736328 136.25701904296875 Z"></path>
<path fill="#e207b9" fill-opacity="1.0"  filling="0" d="M164.97265625 57.11406326293945 A4.121874809265137 4.121874809265137 0.0 1 1 156.72891235351562 57.11406326293945 A4.121874809265137 4.121874809265137 0.0 1 1 164.97265625 57.11406326293945 Z"></path>
<path fill="#e207b9" fill-opacity="1.0"  filling="0" d="M137.49884033203125 29.640235900878906 A4.121874809265137 4.121874809265137 0.0 1 1 129.2550811767578 29.640235900878906 A4.121874809265137 4.121874809265137 0.0 1 1 137.49884033203125 29.640235900878906 Z"></path>
<path fill="#ff9bff" fill-opacity="1.0"  filling="0" d="M114.560546875 56.115234375 L106.30742645263672 64.36445617675781 L71.4203109741211 99.2515640258789 L63.16718292236328 107.50469207763672 C60.796485900878906 109.87539672851562 57.687110900878906 111.06289672851562 54.578125 111.06289672851562 C51.473045349121094 111.06289672851562 48.36405944824219 109.87968444824219 45.98905944824219 107.50859069824219 C41.24726486206055 102.76289367675781 41.24726486206055 95.0765609741211 45.99296951293945 90.3304672241211 L97.3863296508789 38.937110900878906 C102.13203430175781 34.19140625 109.81874084472656 34.19140625 114.560546875 38.937110900878906 C119.30625915527344 43.67890167236328 119.30625915527344 51.369529724121094 114.560546875 56.115234375 Z"></path>
<path fill="#ff9bff" fill-opacity="1.0"  filling="0" d="M151.552734375 93.107421875 L143.2996063232422 101.35663604736328 L108.41250610351562 136.24765014648438 L100.15937042236328 144.4968719482422 C95.4136734008789 149.24258422851562 87.7269515991211 149.24258422851562 82.98515319824219 144.5007781982422 C80.61054992675781 142.1300811767578 79.42694854736328 139.02110290527344 79.42694854736328 135.91171264648438 C79.43086242675781 132.802734375 80.61445617675781 129.69374084472656 82.98515319824219 127.32266235351562 L134.37890625 75.9292984008789 C139.12460327148438 71.1878890991211 146.8113250732422 71.1878890991211 151.55703735351562 75.9292984008789 C156.29843139648438 80.67109680175781 156.29843139648438 88.3617172241211 151.552734375 93.107421875 Z"></path>
<path fill="#ff63ed" fill-opacity="1.0"  filling="0" d="M177.8269500732422 38.775390625 L164.77108764648438 25.71953582763672 C190.4089813232422 51.357425689697266 190.4089813232422 92.92460632324219 164.77108764648438 118.5625 L111.580078125 171.75350952148438 C99.96992492675781 183.36367797851562 81.14570617675781 183.36367797851562 69.5355453491211 171.75350952148438 L82.5914077758789 184.8093719482422 C94.20156860351562 196.41954040527344 113.02578735351562 196.41954040527344 124.63593292236328 184.8093719482422 L177.8269500732422 131.6183624267578 C203.46484375 105.98046875 203.46484375 64.41328430175781 177.8269500732422 38.775390625 Z"></path>
<path fill="#e207b9" fill-opacity="1.0"  filling="0" d="M143.35821533203125 59.47578048706055 C144.5027313232422 60.61991882324219 146.35704040527344 60.61991882324219 147.5011749267578 59.47578048706055 C148.64492797851562 58.33163833618164 148.64492797851562 56.476951599121094 147.5011749267578 55.33320236206055 L135.15780639648438 42.989845275878906 C134.013671875 41.845703125 132.1589813232422 41.845703125 131.0148468017578 42.989845275878906 C129.87109375 44.13359069824219 129.87109375 45.98867416381836 131.0148468017578 47.13241958618164 L143.35821533203125 59.47578048706055 Z"></path>
<path fill="#e207b9" fill-opacity="1.0"  filling="0" d="M179.8984375 36.70390701293945 L166.84259033203125 23.6484375 C166.84024047851562 23.646095275878906 166.83749389648438 23.643753051757812 166.8347625732422 23.64141082763672 C140.03515625 -3.150390625 96.66093444824219 -3.1562423706054688 69.85624694824219 23.648048400878906 C68.078125 25.42656707763672 19.205467224121094 74.29960632324219 16.666793823242188 76.837890625 C3.9011688232421875 89.59883117675781 3.899993896484375 110.26054382324219 16.666404724121094 123.02772521972656 C19.265235900878906 125.6265640258789 77.48554992675781 183.84649658203125 80.51953125 186.880859375 C93.283203125 199.6437530517578 113.94180297851562 199.64608764648438 126.70703125 186.880859375 L179.8984375 133.68984985351562 C206.69882202148438 106.88905334472656 206.70236206054688 63.50859451293945 179.8984375 36.70390701293945 Z M85.0570297241211 129.39413452148438 C90.89569854736328 123.55546569824219 97.5882797241211 116.8628921508789 136.44921875 78.0015640258789 C140.0789031982422 74.3753890991211 145.93319702148438 74.4515609741211 149.4855499267578 78.00078582763672 C153.06640625 81.5816421508789 153.08868408203125 87.4292984008789 149.4816436767578 91.03632354736328 C144.70547485351562 95.8050765991211 102.64883422851562 137.865234375 98.08866882324219 142.42578125 C94.49531555175781 146.01913452148438 88.64921569824219 146.02188110351562 85.0550765991211 142.427734375 C81.43086242675781 138.8097686767578 81.4800796508789 132.97109985351562 85.0570297241211 129.39413452148438 Z M69.7953109741211 31.994918823242188 L84.990234375 47.189842224121094 L54.24609375 77.93437194824219 L39.05078125 62.73945617675781 L69.7953109741211 31.994918823242188 Z M99.4574203491211 41.00859069824219 C103.06016540527344 37.404685974121094 108.8882827758789 37.404685974121094 112.4898452758789 41.009376525878906 C116.0859375 44.601951599121094 116.10000610351562 50.43241882324219 112.48944854736328 54.04375076293945 C112.47772979736328 54.05546951293945 113.80352020263672 52.724998474121094 61.09609603881836 105.4332046508789 C57.48945617675781 109.03907012939453 51.66054916381836 109.0316390991211 48.06132888793945 105.4378890991211 C44.46992111206055 101.84335327148438 44.47109603881836 95.99531555175781 48.064453125 92.4019546508789 C53.90312576293945 86.5628890991211 60.59648513793945 79.86991882324219 99.4574203491211 41.00859069824219 Z M91.23828125 114.92695617675781 L75.56327819824219 99.2515640258789 C78.54023742675781 96.27460479736328 103.26171875 71.552734375 106.30742645263672 68.5074234008789 L121.9828109741211 84.18280792236328 L91.23828125 114.92695617675781 Z M127.74921417236328 151.44140625 L112.55546569824219 136.2472686767578 C116.19023132324219 132.6121063232422 139.6531219482422 109.146484375 143.2996063232422 105.49922180175781 C163.89178466796875 126.0914077758789 154.2062530517578 116.40585327148438 158.49493408203125 120.69453430175781 C154.20938110351562 124.98085021972656 128.24453735351562 150.9460906982422 127.74921417236328 151.44140625 Z M162.69882202148438 27.79100799560547 C187.30078125 52.39297103881836 187.00625610351562 92.19140625 162.69960021972656 116.49140167236328 L162.638671875 116.552734375 L147.443359375 101.357421875 L153.625 95.17890930175781 C159.50352478027344 89.29960632324219 159.50547790527344 79.73515319824219 153.6277313232422 73.857421875 C147.75 67.9847640991211 138.1863250732422 67.9847640991211 132.3074188232422 73.85820007324219 L126.12577819824219 80.03984069824219 L110.4507827758789 64.3648452758789 L116.6324234008789 58.18632888793945 C122.52227020263672 52.29570388793945 122.529296875 42.75859451293945 116.6332015991211 36.86640167236328 C110.78828430175781 31.018356323242188 101.25273132324219 30.928123474121094 95.3148422241211 36.86562728881836 L89.1332015991211 43.04726028442383 L73.93827819824219 27.852340698242188 L73.99960327148438 27.79100799560547 C98.5101547241211 3.2796859741210938 138.18399047851562 3.2765655517578125 162.69882202148438 27.79100799560547 Z M20.80976104736328 80.98124694824219 L34.908203125 66.88241577148438 L50.103126525878906 82.07734680175781 C49.33867645263672 82.841796875 44.404296875 87.77616882324219 43.92148208618164 88.25897979736328 C38.045310974121094 94.13594055175781 38.04296875 103.69999694824219 43.91952896118164 109.58125305175781 C49.814449310302734 115.46640014648438 59.34492492675781 115.46875 65.23905944824219 109.5757827758789 L71.42070770263672 103.3941421508789 L87.0960922241211 119.06952667236328 L80.91445922851562 125.25157165527344 C75.0523452758789 131.1140594482422 74.99882507324219 140.6667938232422 80.91484069824219 146.572265625 C86.8148422241211 152.47227478027344 96.380859375 152.42031860351562 102.23125457763672 146.56875610351562 L108.41288757324219 140.39022827148438 L123.60702514648438 155.58436584472656 L109.50936889648438 169.6824188232422 C99.0757827758789 180.10977172851562 82.10859680175781 180.1828155517578 71.6078109741211 169.6824188232422 C71.60586547851562 169.6804656982422 71.6039047241211 169.67889404296875 71.6019515991211 169.67694091796875 L20.80976104736328 118.884765625 C10.335548400878906 108.41132354736328 10.330467224121094 91.45625305175781 20.80976104736328 80.98124694824219 Z M175.75546264648438 129.546875 L122.5640640258789 182.73788452148438 C112.17460632324219 193.12811279296875 95.36328125 193.23046875 84.85546875 182.9269561767578 C95.3335952758789 184.7566375732422 106.09257507324219 181.3898468017578 113.65156555175781 173.82696533203125 C115.724609375 171.75390625 105.76445007324219 181.7156219482422 165.50430297851562 121.97187042236328 C166.11483764648438 121.08047485351562 186.92889404296875 103.85977172851562 186.92889404296875 72.1410140991211 C186.92889404296875 64.44218444824219 185.66912841796875 56.937110900878906 183.24649047851562 49.86093521118164 C199.74453735351562 73.95780944824219 197.6867218017578 107.61602020263672 175.75546264648438 129.546875 Z"></path></svg>