<svg xmlns="http://www.w3.org/2000/svg" viewBox="0.0 0.0 200.0 200.0" height="200.0px" width="200.0px"><path fill="#e5efef" fill-opacity="1.0"  filling="0" d="M150.1840057373047 85.1066665649414 A57.333335876464844 57.333335876464844 0.0 1 1 35.517333984375 85.1066665649414 A57.333335876464844 57.333335876464844 0.0 1 1 150.1840057373047 85.1066665649414 Z"></path>
<path fill="#4c241d" fill-opacity="1.0"  filling="0" d="M89.95532989501953 44.87733459472656 C89.2733383178711 44.87733459472656 88.59066772460938 44.616668701171875 88.06999969482422 44.09599685668945 L80.5286636352539 36.554664611816406 C79.48733520507812 35.513336181640625 79.48733520507812 33.82533264160156 80.5286636352539 32.78399658203125 C81.56999969482422 31.742660522460938 83.25799560546875 31.742660522460938 84.29933166503906 32.78399658203125 L91.84066772460938 40.32533264160156 C92.88199615478516 41.366668701171875 92.88199615478516 43.054664611816406 91.84066772460938 44.09599685668945 C91.3193359375 44.617332458496094 90.6373291015625 44.87733459472656 89.95532989501953 44.87733459472656 Z"></path>
<path fill="#4c241d" fill-opacity="1.0"  filling="0" d="M82.413330078125 44.87733459472656 C81.73133087158203 44.87733459472656 81.04866027832031 44.616668701171875 80.52799987792969 44.09599685668945 C79.48666381835938 43.054664611816406 79.48666381835938 41.366668701171875 80.52799987792969 40.32533264160156 L88.0693359375 32.78399658203125 C89.11066436767578 31.742660522460938 90.79866790771484 31.742660522460938 91.83999633789062 32.78399658203125 C92.88134002685547 33.82533264160156 92.88134002685547 35.513336181640625 91.83999633789062 36.554664611816406 L84.29866790771484 44.09599685668945 C83.77799987792969 44.617332458496094 83.09532928466797 44.87733459472656 82.413330078125 44.87733459472656 Z"></path>
<path fill="#4c241d" fill-opacity="1.0"  filling="0" d="M118.18400573730469 150.44000244140625 A2.6666667461395264 2.6666667461395264 0.0 1 1 112.85066986083984 150.44000244140625 A2.6666667461395264 2.6666667461395264 0.0 1 1 118.18400573730469 150.44000244140625 Z"></path>
<path fill="#4c241d" fill-opacity="1.0"  filling="0" d="M38.183998107910156 46.44000244140625 A2.6666667461395264 2.6666667461395264 0.0 1 1 32.85066223144531 46.44000244140625 A2.6666667461395264 2.6666667461395264 0.0 1 1 38.183998107910156 46.44000244140625 Z"></path>
<path fill="#bf7e68" fill-opacity="1.0"  filling="0" d="M142.1840057373047 27.773330688476562 L158.1840057373047 27.773330688476562 L158.1840057373047 161.10667419433594 L142.1840057373047 161.10667419433594 L142.1840057373047 27.773330688476562 Z"></path>
<path fill="#4c241d" fill-opacity="1.0"  filling="0" d="M158.1840057373047 163.77334594726562 L142.1840057373047 163.77334594726562 C140.71133422851562 163.77334594726562 139.517333984375 162.58067321777344 139.517333984375 161.10667419433594 L139.517333984375 27.773330688476562 C139.517333984375 26.299331665039062 140.71133422851562 25.106666564941406 142.1840057373047 25.106666564941406 L158.1840057373047 25.106666564941406 C159.65667724609375 25.106666564941406 160.85067749023438 26.299331665039062 160.85067749023438 27.773330688476562 L160.85067749023438 161.10667419433594 C160.85067749023438 162.58067321777344 159.65667724609375 163.77334594726562 158.1840057373047 163.77334594726562 Z M144.85067749023438 158.44000244140625 L155.517333984375 158.44000244140625 L155.517333984375 30.44000244140625 L144.85067749023438 30.44000244140625 L144.85067749023438 158.44000244140625 Z"></path>
<path fill="#b5a19c" fill-opacity="1.0"  filling="0" d="M168.85067749023438 59.77333450317383 L118.18400573730469 59.77333450317383 L118.18400573730469 35.77333068847656 L168.85067749023438 35.77333068847656 C174.74200439453125 35.77333068847656 179.517333984375 40.54866409301758 179.517333984375 46.44000244140625 L179.517333984375 49.106666564941406 C179.517333984375 54.99800109863281 174.74200439453125 59.77333450317383 168.85067749023438 59.77333450317383 Z"></path>
<path fill="#4c241d" fill-opacity="1.0"  filling="0" d="M168.85067749023438 62.44000244140625 L118.18400573730469 62.44000244140625 C116.71133422851562 62.44000244140625 115.517333984375 61.24733352661133 115.517333984375 59.77333450317383 L115.517333984375 35.77333068847656 C115.517333984375 34.29933166503906 116.71133422851562 33.106666564941406 118.18400573730469 33.106666564941406 L168.85067749023438 33.106666564941406 C176.20201110839844 33.106666564941406 182.1840057373047 39.088661193847656 182.1840057373047 46.44000244140625 L182.1840057373047 49.106666564941406 C182.1840057373047 56.45866775512695 176.20266723632812 62.44000244140625 168.85067749023438 62.44000244140625 Z M120.85066986083984 57.106666564941406 L168.85067749023438 57.106666564941406 C173.2620086669922 57.106666564941406 176.85067749023438 53.51799774169922 176.85067749023438 49.106666564941406 L176.85067749023438 46.44000244140625 C176.85067749023438 42.028663635253906 173.2620086669922 38.44000244140625 168.85067749023438 38.44000244140625 L120.85066986083984 38.44000244140625 L120.85066986083984 57.106666564941406 Z"></path>
<path fill="#4c241d" fill-opacity="1.0"  filling="0" d="M150.1840057373047 89.1066665649414 C148.71133422851562 89.1066665649414 147.517333984375 87.91400146484375 147.517333984375 86.44000244140625 L147.517333984375 73.1066665649414 C147.517333984375 71.63265991210938 148.71133422851562 70.44000244140625 150.1840057373047 70.44000244140625 C151.65667724609375 70.44000244140625 152.85067749023438 71.63265991210938 152.85067749023438 73.1066665649414 L152.85067749023438 86.44000244140625 C152.85067749023438 87.91400146484375 151.65667724609375 89.1066665649414 150.1840057373047 89.1066665649414 Z"></path>
<path fill="#4c241d" fill-opacity="1.0"  filling="0" d="M150.1840057373047 161.10667419433594 C148.71133422851562 161.10667419433594 147.517333984375 159.91400146484375 147.517333984375 158.44000244140625 L147.517333984375 145.10667419433594 C147.517333984375 143.63267517089844 148.71133422851562 142.44000244140625 150.1840057373047 142.44000244140625 C151.65667724609375 142.44000244140625 152.85067749023438 143.63267517089844 152.85067749023438 145.10667419433594 L152.85067749023438 158.44000244140625 C152.85067749023438 159.91400146484375 151.65667724609375 161.10667419433594 150.1840057373047 161.10667419433594 Z"></path>
<path fill="#4c241d" fill-opacity="1.0"  filling="0" d="M150.1840057373047 107.7733383178711 C148.71133422851562 107.7733383178711 147.517333984375 106.5806655883789 147.517333984375 105.1066665649414 L147.517333984375 97.1066665649414 C147.517333984375 95.6326675415039 148.71133422851562 94.44000244140625 150.1840057373047 94.44000244140625 C151.65667724609375 94.44000244140625 152.85067749023438 95.6326675415039 152.85067749023438 97.1066665649414 L152.85067749023438 105.1066665649414 C152.85067749023438 106.5806655883789 151.65667724609375 107.7733383178711 150.1840057373047 107.7733383178711 Z"></path>
<path fill="#6b4f5b" fill-opacity="1.0"  filling="0" d="M72.85066223144531 166.44000244140625 L67.517333984375 70.44000244140625 L78.18399810791016 70.44000244140625 L72.85066223144531 166.44000244140625 Z"></path>
<path fill="#4c241d" fill-opacity="1.0"  filling="0" d="M72.85066223144531 169.10667419433594 C71.43533325195312 169.10667419433594 70.26599884033203 168.0 70.18799591064453 166.5886688232422 L64.85466003417969 70.58866882324219 C64.81399536132812 69.8566665649414 65.07599639892578 69.14066314697266 65.58000183105469 68.6066665649414 C66.08399963378906 68.07533264160156 66.78466796875 67.77333068847656 67.517333984375 67.77333068847656 L78.18399810791016 67.77333068847656 C78.91732788085938 67.77333068847656 79.6173324584961 68.07533264160156 80.12133026123047 68.6066665649414 C80.62533569335938 69.14066314697266 80.88666534423828 69.8566665649414 80.84666442871094 70.58866882324219 L75.5133285522461 166.5886688232422 C75.43533325195312 168.0 74.26599884033203 169.10667419433594 72.85066223144531 169.10667419433594 Z M70.33666229248047 73.1066665649414 L72.85066223144531 118.3673324584961 L75.36466217041016 73.1066665649414 L70.33666229248047 73.1066665649414 Z"></path>
<path fill="#6b4f5b" fill-opacity="1.0"  filling="0" d="M88.85066986083984 70.44000244140625 L56.85066604614258 70.44000244140625 C56.85066604614258 66.0219955444336 60.43266677856445 62.44000244140625 64.85066223144531 62.44000244140625 L80.85066223144531 62.44000244140625 C85.26933288574219 62.44000244140625 88.85066986083984 66.0219955444336 88.85066986083984 70.44000244140625 Z"></path>
<path fill="#4c241d" fill-opacity="1.0"  filling="0" d="M88.85066986083984 73.1066665649414 L56.85066604614258 73.1066665649414 C55.37799835205078 73.1066665649414 54.183998107910156 71.91400146484375 54.183998107910156 70.44000244140625 C54.183998107910156 64.55732727050781 58.96933364868164 59.77333450317383 64.85066223144531 59.77333450317383 L80.85066223144531 59.77333450317383 C86.73200225830078 59.77333450317383 91.517333984375 64.55732727050781 91.517333984375 70.44000244140625 C91.517333984375 71.91400146484375 90.32333374023438 73.1066665649414 88.85066986083984 73.1066665649414 Z M60.23332977294922 67.77333068847656 L85.4679946899414 67.77333068847656 C84.54467010498047 66.17932891845703 82.82066345214844 65.1066665649414 80.85066223144531 65.1066665649414 L64.85066223144531 65.1066665649414 C62.88066482543945 65.1066665649414 61.15666580200195 66.17999267578125 60.23332977294922 67.77333068847656 Z"></path>
<path fill="#6b4f5b" fill-opacity="1.0"  filling="0" d="M63.86399841308594 172.2259979248047 L31.04132843017578 81.85333251953125 L41.253334045410156 78.77400207519531 L63.86399841308594 172.2259979248047 Z"></path>
<path fill="#4c241d" fill-opacity="1.0"  filling="0" d="M63.86399841308594 174.89334106445312 C62.7686653137207 174.89334106445312 61.749332427978516 174.21600341796875 61.35733413696289 173.13800048828125 L28.53466796875 82.76533508300781 C28.28466796875 82.07533264160156 28.328659057617188 81.31466674804688 28.657333374023438 80.65866088867188 C28.986000061035156 80.0026626586914 29.569992065429688 79.51266479492188 30.272003173828125 79.302001953125 L40.4839973449707 76.22132873535156 C41.18466567993164 76.00533294677734 41.94333267211914 76.09599304199219 42.5793342590332 76.45799255371094 C43.214664459228516 76.82266235351562 43.67333221435547 77.43466186523438 43.84599685668945 78.14533233642578 L66.4566650390625 171.5986785888672 C66.78866577148438 172.97332763671875 65.98933410644531 174.36932373046875 64.63399505615234 174.77867126464844 C64.37799835205078 174.85667419433594 64.11799621582031 174.89334106445312 63.86399841308594 174.89334106445312 Z M34.50999450683594 83.593994140625 L49.9839973449707 126.20066833496094 L39.32533264160156 82.14066314697266 L34.50999450683594 83.593994140625 Z"></path>
<path fill="#6b4f5b" fill-opacity="1.0"  filling="0" d="M51.46599578857422 75.69466400146484 L20.828659057617188 84.93333435058594 C19.553329467773438 80.70333099365234 21.947998046875 76.23999786376953 26.177993774414062 74.96399688720703 L41.49666213989258 70.34466552734375 C45.727333068847656 69.06932830810547 50.19066619873047 71.46399688720703 51.46599578857422 75.69466400146484 Z"></path>
<path fill="#4c241d" fill-opacity="1.0"  filling="0" d="M20.82733154296875 87.59866333007812 C19.68133544921875 87.59866333007812 18.624000549316406 86.8566665649414 18.27532958984375 85.70266723632812 C17.452667236328125 82.97332763671875 17.7413330078125 80.09066772460938 19.089332580566406 77.57733154296875 C20.436660766601562 75.06666564941406 22.681991577148438 73.23332977294922 25.409332275390625 72.41065979003906 L40.727333068847656 67.79066467285156 C46.35333251953125 66.08000183105469 52.323997497558594 69.2933349609375 54.01933288574219 74.92599487304688 C54.444000244140625 76.33466339111328 53.64533233642578 77.8219985961914 52.235328674316406 78.24600219726562 L21.598663330078125 87.482666015625 C21.341995239257812 87.56266021728516 21.082664489746094 87.59866333007812 20.82733154296875 87.59866333007812 Z M43.801334381103516 72.66932678222656 C43.2933349609375 72.66932678222656 42.77666473388672 72.74199676513672 42.26466751098633 72.89866638183594 L26.947998046875 77.51599884033203 C25.58466339111328 77.92733001708984 24.461997985839844 78.84666442871094 23.787994384765625 80.10199737548828 C23.563995361328125 80.51866149902344 23.398666381835938 80.95599365234375 23.2933349609375 81.40399932861328 L47.45732879638672 74.1173324584961 C46.478668212890625 73.20066833496094 45.16999816894531 72.66932678222656 43.801334381103516 72.66932678222656 Z"></path>
<path fill="#6b4f5b" fill-opacity="1.0"  filling="0" d="M81.81932830810547 172.2259979248047 L114.64199829101562 81.85333251953125 L104.43000030517578 78.77400207519531 L81.81932830810547 172.2259979248047 Z"></path>
<path fill="#4c241d" fill-opacity="1.0"  filling="0" d="M81.81932830810547 174.89334106445312 C81.5653305053711 174.89334106445312 81.30532836914062 174.85667419433594 81.04999542236328 174.77867126464844 C79.69466400146484 174.3699951171875 78.89533233642578 172.9739990234375 79.22733306884766 171.5986785888672 L101.83800506591797 78.14533233642578 C102.0113296508789 77.43466186523438 102.46932983398438 76.82266235351562 103.10466766357422 76.45799255371094 C103.74266815185547 76.09599304199219 104.50067138671875 76.00199890136719 105.20000457763672 76.22132873535156 L115.41199493408203 79.302001953125 C116.11400604248047 79.51266479492188 116.69866943359375 80.0026626586914 117.02666473388672 80.65866088867188 C117.35466766357422 81.31466674804688 117.39933776855469 82.07533264160156 117.14933776855469 82.76533508300781 L84.32666778564453 173.13800048828125 C83.93399810791016 174.21600341796875 82.91466522216797 174.89334106445312 81.81932830810547 174.89334106445312 Z M106.3586654663086 82.14066314697266 L95.70000457763672 126.20066833496094 L111.17400360107422 83.593994140625 L106.3586654663086 82.14066314697266 Z"></path>
<path fill="#6b4f5b" fill-opacity="1.0"  filling="0" d="M94.21733856201172 75.69466400146484 L124.85466766357422 84.93333435058594 C126.1300048828125 80.70333099365234 123.73533630371094 76.23999786376953 119.50533294677734 74.96399688720703 L104.1866683959961 70.34466552734375 C99.95600128173828 69.06932830810547 95.49266815185547 71.46399688720703 94.21733856201172 75.69466400146484 Z"></path>
<path fill="#4c241d" fill-opacity="1.0"  filling="0" d="M124.85600280761719 87.59866333007812 C124.60066986083984 87.59866333007812 124.34200286865234 87.56200408935547 124.08534240722656 87.48400115966797 L93.44733428955078 78.24732971191406 C92.7699966430664 78.04399871826172 92.20133209228516 77.5806655883789 91.86666870117188 76.95532989501953 C91.53333282470703 76.3326644897461 91.4593276977539 75.60133361816406 91.663330078125 74.92399597167969 C93.35999298095703 69.29666137695312 99.32466888427734 66.09599304199219 104.95532989501953 67.78866577148438 L120.27467346191406 72.41133117675781 C123.00267028808594 73.23399353027344 125.2473373413086 75.06732940673828 126.59466552734375 77.57799530029297 C127.94200134277344 80.0913314819336 128.23133850097656 82.9739990234375 127.40867614746094 85.70333099365234 C127.05934143066406 86.8566665649414 126.00067138671875 87.59866333007812 124.85600280761719 87.59866333007812 Z M98.22467041015625 74.1199951171875 L122.39000701904297 81.40399932861328 C122.28466796875 80.95599365234375 122.11933898925781 80.51866149902344 121.89533996582031 80.10199737548828 C121.22066497802734 78.84666442871094 120.09866333007812 77.92733001708984 118.73533630371094 77.51599884033203 L103.4173355102539 72.89599609375 C101.53333282470703 72.32799530029297 99.5693359375 72.85932922363281 98.22467041015625 74.1199951171875 Z"></path></svg>