<svg xmlns="http://www.w3.org/2000/svg" viewBox="0.0 0.0 200.0 200.0" height="200.0px" width="200.0px"><path fill="#ffd54f" fill-opacity="1.0"  filling="0" d="M14.66015625 197.0703125 L14.63671875 197.0703125 C8.171096801757812 197.0703125 2.9296875 191.8289031982422 2.9296875 185.36328125 L2.9296875 180.6640625 L26.3671875 180.6640625 L26.3671875 185.36328125 C26.3671875 191.8289031982422 21.125778198242188 197.0703125 14.66015625 197.0703125 Z"></path>
<path fill="#ffc328" fill-opacity="1.0"  filling="0" d="M14.6484375 180.6640625 L14.6484375 185.3515625 C14.6484375 189.6882781982422 12.290626525878906 193.47225952148438 8.7890625 195.49844360351562 C10.513282775878906 196.49609375 12.513282775878906 197.06991577148438 14.6484375 197.06991577148438 C21.120704650878906 197.06991577148438 26.3671875 191.82342529296875 26.3671875 185.35116577148438 L26.3671875 180.66366577148438 L14.6484375 180.66366577148438 L14.6484375 180.6640625 Z"></path>
<path fill="#f74f68" fill-opacity="1.0"  filling="0" d="M26.3671875 180.6640625 L2.9296875 180.6640625 L2.9296875 116.65702819824219 C2.9296875 114.79296875 4.441017150878906 113.28164672851562 6.305084228515625 113.28164672851562 L22.991798400878906 113.28164672851562 C24.855857849121094 113.28164672851562 26.3671875 114.79296875 26.3671875 116.65702819824219 L26.3671875 180.6640625 Z"></path>
<path fill="#e83a53" fill-opacity="1.0"  filling="0" d="M22.991798400878906 113.28164672851562 L11.273040771484375 113.28164672851562 C13.137107849121094 113.28164672851562 14.6484375 114.79296875 14.6484375 116.65702819824219 L14.6484375 180.6640625 L26.3671875 180.6640625 L26.3671875 116.65702819824219 C26.3671875 114.79296875 24.855857849121094 113.28164672851562 22.991798400878906 113.28164672851562 Z"></path>
<path fill="#546e7a" fill-opacity="1.0"  filling="0" d="M21.63671875 113.28164672851562 L7.57421875 113.28164672851562 L7.57421875 103.5546875 C7.57421875 102.4546890258789 8.466018676757812 101.56289672851562 9.566017150878906 101.56289672851562 L19.644920349121094 101.56289672851562 C20.744918823242188 101.56289672851562 21.63671875 102.4546890258789 21.63671875 103.5546875 L21.63671875 113.28164672851562 Z"></path>
<path fill="#ffd54f" fill-opacity="1.0"  filling="0" d="M185.36328125 197.0703125 L185.33984375 197.0703125 C178.8742218017578 197.0703125 173.6328125 191.8289031982422 173.6328125 185.36328125 L173.6328125 180.6640625 L197.0703125 180.6640625 L197.0703125 185.36328125 C197.0703125 191.8289031982422 191.8289031982422 197.0703125 185.36328125 197.0703125 Z"></path>
<path fill="#ffc328" fill-opacity="1.0"  filling="0" d="M185.3515625 180.6640625 L185.3515625 185.3515625 C185.3515625 189.6882781982422 182.99374389648438 193.47225952148438 179.4921875 195.49844360351562 C181.21640014648438 196.49609375 183.21640014648438 197.06991577148438 185.3515625 197.06991577148438 C191.82382202148438 197.06991577148438 197.0703125 191.82342529296875 197.0703125 185.35116577148438 L197.0703125 180.66366577148438 L185.3515625 180.66366577148438 L185.3515625 180.6640625 Z"></path>
<path fill="#f74f68" fill-opacity="1.0"  filling="0" d="M197.0703125 180.6640625 L173.6328125 180.6640625 L173.6328125 116.65702819824219 C173.6328125 114.79296875 175.14413452148438 113.28164672851562 177.00820922851562 113.28164672851562 L193.69491577148438 113.28164672851562 C195.55899047851562 113.28164672851562 197.0703125 114.79296875 197.0703125 116.65702819824219 L197.0703125 180.6640625 Z"></path>
<path fill="#e83a53" fill-opacity="1.0"  filling="0" d="M193.69491577148438 113.28164672851562 L181.97616577148438 113.28164672851562 C183.84024047851562 113.28164672851562 185.3515625 114.79296875 185.3515625 116.65702819824219 L185.3515625 180.6640625 L197.0703125 180.6640625 L197.0703125 116.65702819824219 C197.0703125 114.79296875 195.55899047851562 113.28164672851562 193.69491577148438 113.28164672851562 Z"></path>
<path fill="#546e7a" fill-opacity="1.0"  filling="0" d="M192.33984375 113.28164672851562 L178.27734375 113.28164672851562 L178.27734375 103.5546875 C178.27734375 102.4546890258789 179.1691436767578 101.56289672851562 180.26914978027344 101.56289672851562 L190.34803771972656 101.56289672851562 C191.4480438232422 101.56289672851562 192.33984375 102.4546890258789 192.33984375 103.5546875 L192.33984375 113.28164672851562 Z"></path>
<path fill="" fill-opacity="1.0"  filling="0" d="M197.0703125 165.41796875 C198.6882781982422 165.41796875 200.0 164.1062469482422 200.0 162.48867797851562 L200.0 116.6656265258789 C200.0 113.7339859008789 197.98553466796875 111.27030944824219 195.26992797851562 110.568359375 L195.26992797851562 103.56484985351562 C195.26992797851562 100.85116577148438 193.06211853027344 98.64375305175781 190.3484344482422 98.64375305175781 L188.15899658203125 98.64375305175781 C187.63906860351562 73.17852020263672 184.17657470703125 42.096092224121094 164.73397827148438 20.716018676757812 C149.25430297851562 3.76171875 125.93046569824219 -3.3859405517578125 102.23164367675781 1.514068603515625 C97.17070770263672 0.3917999267578125 91.8558578491211 -0.01250457763671875 86.4144515991211 0.32773590087890625 C86.3324203491211 0.33281707763671875 86.25077819824219 0.341400146484375 86.16914367675781 0.353515625 C65.20468139648438 3.4519577026367188 45.79961395263672 16.614456176757812 31.528900146484375 37.416015625 C19.022262573242188 55.646484375 11.772659301757812 77.79414367675781 11.405860900878906 98.64335632324219 L9.56640625 98.64335632324219 C6.8527374267578125 98.64335632324219 4.644927978515625 100.85078430175781 4.644927978515625 103.564453125 L4.644927978515625 110.5902328491211 C1.9722671508789062 111.32148742675781 0.0 113.76445007324219 0.0 116.6656265258789 L0.0 124.59297180175781 C0.0 126.2109375 1.3117218017578125 127.52226257324219 2.9296875 127.52226257324219 C4.5476531982421875 127.52226257324219 5.859375 126.2105484008789 5.859375 124.59297180175781 L5.859375 116.6656265258789 C5.859375 116.419921875 6.0593719482421875 116.21992492675781 6.305084228515625 116.21992492675781 L22.991798400878906 116.21992492675781 C23.237503051757812 116.21992492675781 23.4375 116.419921875 23.4375 116.6656265258789 L23.4375 177.73672485351562 L5.859375 177.73672485351562 L5.859375 137.1281280517578 C5.859375 135.51016235351562 4.5476531982421875 134.19883728027344 2.9296875 134.19883728027344 C1.3117218017578125 134.19883728027344 0.0 135.51016235351562 0.0 137.1281280517578 L0.0 185.36483764648438 C0.0 193.43475341796875 6.566017150878906 200.0 14.63671875 200.0 L14.660552978515625 200.0 C22.730865478515625 200.0 29.296875 193.43475341796875 29.296875 185.36483764648438 L29.296875 116.6656265258789 C29.296875 113.7339859008789 27.282424926757812 111.27030944824219 24.566795349121094 110.568359375 L24.566795349121094 103.56484985351562 C24.566795349121094 100.85116577148438 22.358985900878906 98.64375305175781 19.645309448242188 98.64375305175781 L17.265625 98.64375305175781 C17.631637573242188 78.9507827758789 24.50897979736328 58.00625228881836 36.360939025878906 40.730464935302734 C49.67070388793945 21.32929229736328 67.6175765991211 9.058982849121094 86.9039077758789 6.167579650878906 C87.18359375 6.150779724121094 87.4613265991211 6.144142150878906 87.7406234741211 6.131645202636719 C77.78047180175781 10.510162353515625 68.93437194824219 17.083206176757812 62.06953048706055 25.331642150878906 C48.13554382324219 41.71249771118164 32.927345275878906 74.2777328491211 51.435546875 91.92852020263672 C60.72304916381836 100.78398132324219 73.4886703491211 105.6214828491211 87.498046875 105.6214828491211 C87.9097671508789 105.6214828491211 88.32421875 105.6171875 88.73828125 105.6089859008789 C102.72773742675781 105.32538604736328 116.10546875 100.09375 125.44062042236328 91.2562484741211 L125.4703140258789 91.22773742675781 C131.1980438232422 85.6500015258789 135.5554656982422 79.24765014648438 138.42227172851562 72.19882202148438 C139.0320281982422 70.69999694824219 138.31092834472656 68.99101257324219 136.81211853027344 68.38164520263672 C135.31329345703125 67.77304077148438 133.60430908203125 68.49336242675781 132.99453735351562 69.9917984008789 C130.4367218017578 76.28125 126.53515625 82.00859069824219 121.39765930175781 87.015625 C113.10859680175781 94.8558578491211 101.16327667236328 99.49726104736328 88.6195297241211 99.751953125 C75.6796875 100.0054702758789 63.912498474121094 95.7300796508789 55.47929382324219 87.68905639648438 C47.07538986206055 79.67460632324219 48.056251525878906 67.7699203491211 50.358985900878906 59.193748474121094 C53.07461166381836 49.08086013793945 59.120704650878906 37.84101486206055 66.552734375 29.103126525878906 C75.51445007324219 18.335159301757812 88.146484375 10.689064025878906 102.1800765991211 7.515625 C113.15780639648438 10.2734375 122.59648132324219 17.015625 128.81015014648438 26.5625 C134.97381591796875 36.03242111206055 137.53555297851562 47.41875076293945 136.02304077148438 58.62460708618164 C135.806640625 60.228126525878906 136.93124389648438 61.703128814697266 138.53475952148438 61.919532775878906 C140.13827514648438 62.136722564697266 141.61367797851562 61.01171875 141.830078125 59.408206939697266 C143.53045654296875 46.8125 140.650390625 34.01249694824219 133.72108459472656 23.366798400878906 C128.84024047851562 15.867576599121094 122.19609069824219 9.899215698242188 114.43008422851562 5.9074249267578125 C132.11679077148438 5.247657775878906 148.7371063232422 11.884765625 160.4031219482422 24.661720275878906 C168.7820281982422 33.87577819824219 174.56875610351562 45.566402435302734 178.0949249267578 60.40156555175781 C181.3132781982422 73.94258117675781 182.0867156982422 88.2210922241211 182.29962158203125 98.64375305175781 L180.26992797851562 98.64375305175781 C177.55624389648438 98.64375305175781 175.3484344482422 100.85116577148438 175.3484344482422 103.56484985351562 L175.3484344482422 110.59062194824219 C172.67617797851562 111.3218765258789 170.70352172851562 113.76484680175781 170.70352172851562 116.666015625 L170.70352172851562 185.365234375 C170.703125 193.43475341796875 177.26913452148438 200.0 185.33984375 200.0 L185.36367797851562 200.0 C193.4343719482422 200.0 200.00038146972656 193.43475341796875 200.00038146972656 185.36483764648438 L200.00038146972656 175.0597686767578 C200.00038146972656 173.44178771972656 198.6886749267578 172.13046264648438 197.07070922851562 172.13046264648438 C195.45272827148438 172.13046264648438 194.14102172851562 173.4421844482422 194.14102172851562 175.0597686767578 L194.14102172851562 177.736328125 L176.56289672851562 177.736328125 L176.56289672851562 116.6656265258789 C176.56289672851562 116.419921875 176.7628936767578 116.21992492675781 177.0085906982422 116.21992492675781 L193.6953125 116.21992492675781 C193.94102478027344 116.21992492675781 194.14102172851562 116.419921875 194.14102172851562 116.6656265258789 L194.14102172851562 162.48867797851562 C194.140625 164.1062469482422 195.4523468017578 165.41796875 197.0703125 165.41796875 Z M23.4375 185.36483764648438 C23.4375 190.2039031982422 19.5 194.14102172851562 14.66015625 194.14102172851562 L14.63671875 194.14102172851562 C9.796875 194.14102172851562 5.859375 190.2039031982422 5.859375 185.36483764648438 L5.859375 183.59530639648438 L23.4375 183.59530639648438 L23.4375 185.36483764648438 Z M18.707420349121094 110.36093139648438 L10.504302978515625 110.36093139648438 L10.504302978515625 104.5023422241211 L18.707420349121094 104.5023422241211 L18.707420349121094 110.36093139648438 Z M194.140625 183.59530639648438 L194.140625 185.36483764648438 C194.140625 190.2039031982422 190.203125 194.14102172851562 185.36328125 194.14102172851562 L185.33944702148438 194.14102172851562 C180.49960327148438 194.14102172851562 176.56210327148438 190.2039031982422 176.56210327148438 185.36483764648438 L176.56210327148438 183.59530639648438 L194.140625 183.59530639648438 Z M181.20742797851562 110.36093139648438 L181.20742797851562 104.5023422241211 L189.41055297851562 104.5023422241211 L189.41055297851562 110.36093139648438 L181.20742797851562 110.36093139648438 Z"></path></svg>