<svg xmlns="http://www.w3.org/2000/svg" viewBox="0.0 0.0 200.0 200.0" height="200.0px" width="200.0px"><path fill="#2e58ff" fill-opacity="1.0"  filling="0" d="M65.33332824707031 31.99932861328125 A2.6666667461395264 2.6666667461395264 0.0 1 1 60.0 31.99932861328125 A2.6666667461395264 2.6666667461395264 0.0 1 1 65.33332824707031 31.99932861328125 Z"></path>
<path fill="#2e58ff" fill-opacity="1.0"  filling="0" d="M153.33334350585938 39.999332427978516 C148.9219970703125 39.999332427978516 145.33334350585938 36.41066360473633 145.33334350585938 31.99932861328125 C145.33334350585938 27.587997436523438 148.9219970703125 23.99932861328125 153.33334350585938 23.99932861328125 C157.7446746826172 23.99932861328125 161.33334350585938 27.587997436523438 161.33334350585938 31.99932861328125 C161.33334350585938 36.41066360473633 157.7446746826172 39.999332427978516 153.33334350585938 39.999332427978516 Z M153.33334350585938 29.332664489746094 C151.86334228515625 29.332664489746094 150.6666717529297 30.529327392578125 150.6666717529297 31.99932861328125 C150.6666717529297 33.469329833984375 151.86334228515625 34.66600036621094 153.33334350585938 34.66600036621094 C154.8033447265625 34.66600036621094 156.0 33.469329833984375 156.0 31.99932861328125 C156.0 30.529327392578125 154.8033447265625 29.332664489746094 153.33334350585938 29.332664489746094 Z"></path>
<path fill="#2e58ff" fill-opacity="1.0"  filling="0" d="M111.55599975585938 142.96267700195312 C110.8740005493164 142.96267700195312 110.19133758544922 142.70199584960938 109.67066192626953 142.18133544921875 L101.67066192626953 134.18133544921875 C100.62933349609375 133.1400146484375 100.62933349609375 131.45199584960938 101.67066192626953 130.41065979003906 C102.71199798583984 129.3693389892578 104.4000015258789 129.3693389892578 105.44133758544922 130.41065979003906 L113.44133758544922 138.41067504882812 C114.482666015625 139.45199584960938 114.482666015625 141.1400146484375 113.44133758544922 142.18133544921875 C112.92066192626953 142.70266723632812 112.23799896240234 142.96267700195312 111.55599975585938 142.96267700195312 Z"></path>
<path fill="#2e58ff" fill-opacity="1.0"  filling="0" d="M103.55599975585938 142.96267700195312 C102.8740005493164 142.96267700195312 102.19133758544922 142.70199584960938 101.67066192626953 142.18133544921875 C100.62933349609375 141.1400146484375 100.62933349609375 139.45199584960938 101.67066192626953 138.41067504882812 L109.67066192626953 130.41065979003906 C110.71199798583984 129.3693389892578 112.4000015258789 129.3693389892578 113.44133758544922 130.41065979003906 C114.482666015625 131.45199584960938 114.482666015625 133.1400146484375 113.44133758544922 134.18133544921875 L105.44133758544922 142.18133544921875 C104.92066192626953 142.70266723632812 104.23799896240234 142.96267700195312 103.55599975585938 142.96267700195312 Z"></path>
<path fill="#cceaff" fill-opacity="1.0"  filling="0" d="M30.666664123535156 178.66600036621094 L38.5966682434082 149.33267211914062 L30.666664123535156 109.3326644897461 L38.02666473388672 62.30733108520508 C38.35466384887695 60.21066665649414 40.145999908447266 58.66600036621094 42.25066375732422 58.66600036621094 C44.61199951171875 58.66600036621094 46.52666473388672 60.59733581542969 46.52666473388672 62.97999954223633 L46.666664123535156 90.6659927368164 L49.57599639892578 90.6659927368164 C55.19133377075195 90.6659927368164 59.743995666503906 95.2586669921875 59.743995666503906 100.92333221435547 L59.743995666503906 117.3326644897461 C59.743995666503906 117.3326644897461 72.96066284179688 122.66600036621094 70.31732940673828 141.33267211914062 C67.67399597167969 159.99932861328125 62.387332916259766 157.33267211914062 62.387332916259766 178.66600036621094"></path>
<path fill="#2e58ff" fill-opacity="1.0"  filling="0" d="M30.667999267578125 181.33401489257812 C30.437332153320312 181.33401489257812 30.204666137695312 181.30267333984375 29.971328735351562 181.239990234375 C28.549331665039062 180.8560028076172 27.707992553710938 179.39134216308594 28.092666625976562 177.97067260742188 L35.85932922363281 149.23867797851562 L28.05066680908203 109.85066986083984 C27.989334106445312 109.54467010498047 27.982666015625 109.22933197021484 28.03266143798828 108.92000579833984 L35.39332580566406 61.89400100708008 C35.927330017089844 58.478668212890625 38.81132888793945 55.999332427978516 42.2513313293457 55.999332427978516 C46.0793342590332 55.999332427978516 49.194000244140625 59.13066482543945 49.194000244140625 62.97999954223633 L49.31999969482422 87.99932861328125 L49.57533264160156 87.99932861328125 C56.65199661254883 87.99932861328125 62.409996032714844 93.79733276367188 62.409996032714844 100.92400360107422 L62.409996032714844 115.74533081054688 C66.2613296508789 118.0840072631836 75.26666259765625 125.39800262451172 72.95799255371094 141.7060089111328 C71.77932739257812 150.02000427246094 70.07133483886719 154.32733154296875 68.56466674804688 158.1280059814453 C66.6806640625 162.88067626953125 65.05266571044922 166.98468017578125 65.05266571044922 178.66600036621094 C65.05266571044922 180.138671875 63.858665466308594 181.33267211914062 62.38600158691406 181.33267211914062 C60.913333892822266 181.33267211914062 59.71933364868164 180.138671875 59.71933364868164 178.66600036621094 C59.71933364868164 165.96533203125 61.60733413696289 161.20401000976562 63.605995178222656 156.16200256347656 C65.0719985961914 152.4666748046875 66.58799743652344 148.64401245117188 67.67599487304688 140.95867919921875 C70.0 124.54733276367188 58.856666564941406 119.85066986083984 58.745330810546875 119.80532836914062 C57.73599624633789 119.39933776855469 57.07599639892578 118.42000579833984 57.07599639892578 117.3326644897461 L57.07599639892578 100.92400360107422 C57.07599639892578 96.73799896240234 53.711334228515625 93.3326644897461 49.57466506958008 93.3326644897461 L46.666664123535156 93.3326644897461 C45.19933319091797 93.3326644897461 44.007999420166016 92.14666748046875 44.0 90.67932891845703 L43.86066436767578 62.99333190917969 C43.86066436767578 62.07133483886719 43.13933181762695 61.33333206176758 42.2513313293457 61.33333206176758 C41.455997467041016 61.33333206176758 40.78799819946289 61.916664123535156 40.66133499145508 62.720001220703125 L33.374664306640625 109.2786636352539 L41.211997985839844 148.81533813476562 C41.29132843017578 149.21800231933594 41.2773323059082 149.63333129882812 41.17066192626953 150.02867126464844 L33.24066162109375 179.36199951171875 C32.91932678222656 180.55001831054688 31.843994140625 181.33401489257812 30.667999267578125 181.33401489257812 Z"></path>
<path fill="#cceaff" fill-opacity="1.0"  filling="0" d="M46.666664123535156 87.99932861328125 L46.666664123535156 119.99932861328125 L52.0 133.33267211914062"></path>
<path fill="#2e58ff" fill-opacity="1.0"  filling="0" d="M52.0013313293457 136.00067138671875 C50.942665100097656 136.00067138671875 49.94133377075195 135.36534118652344 49.52333450317383 134.32333374023438 L44.19000244140625 120.99000549316406 C44.064666748046875 120.67466735839844 44.0 120.33866882324219 44.0 119.99932861328125 L44.0 87.99932861328125 C44.0 86.52666473388672 45.194000244140625 85.3326644897461 46.666664123535156 85.3326644897461 C48.13933181762695 85.3326644897461 49.33333206176758 86.52666473388672 49.33333206176758 87.99932861328125 L49.33333206176758 119.48600769042969 L54.476661682128906 132.34133911132812 C55.02333450317383 133.7100067138672 54.358001708984375 135.26068115234375 52.990665435791016 135.8086700439453 C52.66533279418945 135.93800354003906 52.330665588378906 136.00067138671875 52.0013313293457 136.00067138671875 Z"></path>
<path fill="#cceaff" fill-opacity="1.0"  filling="0" d="M169.33334350585938 175.99932861328125 L161.40333557128906 146.66600036621094 L169.33334350585938 106.6659927368164 L161.9733428955078 59.640663146972656 C161.6453399658203 57.54399871826172 159.85400390625 55.999332427978516 157.74932861328125 55.999332427978516 C155.38800048828125 55.999332427978516 153.4733428955078 57.930667877197266 153.4733428955078 60.313331604003906 L153.33334350585938 87.99932861328125 L150.42401123046875 87.99932861328125 C144.8086700439453 87.99932861328125 140.25601196289062 92.59200286865234 140.25601196289062 98.25666046142578 L140.25601196289062 114.6659927368164 C140.25601196289062 114.6659927368164 127.03933715820312 119.99932861328125 129.6826629638672 138.66600036621094 C132.3260040283203 157.33267211914062 137.6126708984375 154.66600036621094 137.6126708984375 175.99932861328125"></path>
<path fill="#2e58ff" fill-opacity="1.0"  filling="0" d="M169.33200073242188 178.66734313964844 C168.156005859375 178.66734313964844 167.08067321777344 177.8833465576172 166.75933837890625 176.69467163085938 L158.829345703125 147.36134338378906 C158.72267150878906 146.96533203125 158.7080078125 146.5500030517578 158.7880096435547 146.14801025390625 L166.62533569335938 106.61133575439453 L159.3386688232422 60.05266571044922 C159.21267700195312 59.249332427978516 158.544677734375 58.66600036621094 157.74867248535156 58.66600036621094 C156.8606719970703 58.66600036621094 156.13934326171875 59.40399932861328 156.13934326171875 60.313331604003906 L156.0 88.01266479492188 C155.99200439453125 89.4800033569336 154.80067443847656 90.6659927368164 153.33334350585938 90.6659927368164 L150.42466735839844 90.6659927368164 C146.2880096435547 90.6659927368164 142.92333984375 94.07067108154297 142.92333984375 98.25733184814453 L142.92333984375 114.6659927368164 C142.92333984375 115.75333404541016 142.26333618164062 116.732666015625 141.25399780273438 117.13866424560547 C140.81134033203125 117.32466888427734 130.02200317382812 122.05000305175781 132.32333374023438 138.29200744628906 C133.41200256347656 145.97666931152344 134.92733764648438 149.8000030517578 136.39334106445312 153.49533081054688 C138.39199829101562 158.5366668701172 140.27999877929688 163.29867553710938 140.27999877929688 175.99932861328125 C140.27999877929688 177.47201538085938 139.08599853515625 178.66600036621094 137.61334228515625 178.66600036621094 C136.1406707763672 178.66600036621094 134.94667053222656 177.47201538085938 134.94667053222656 175.99932861328125 C134.94667053222656 164.31866455078125 133.3193359375 160.21400451660156 131.43466186523438 155.46133422851562 C129.92799377441406 151.66067504882812 128.22000122070312 147.35333251953125 127.04133605957031 139.03933715820312 C124.732666015625 122.73066711425781 133.73800659179688 115.41666412353516 137.58934020996094 113.07866668701172 L137.58934020996094 98.25733184814453 C137.58934020996094 91.13134002685547 143.3473358154297 85.3326644897461 150.42401123046875 85.3326644897461 L150.67933654785156 85.3326644897461 L150.80532836914062 60.29999542236328 C150.80532836914062 56.46399688720703 153.92001342773438 53.332664489746094 157.7480010986328 53.332664489746094 C161.18800354003906 53.332664489746094 164.07200622558594 55.8120002746582 164.6060028076172 59.227333068847656 L171.9666748046875 106.25333404541016 C172.0159912109375 106.5633316040039 172.00933837890625 106.878662109375 171.94866943359375 107.18399810791016 L164.1400146484375 146.57200622558594 L171.9066619873047 175.3040008544922 C172.29067993164062 176.72467041015625 171.4493408203125 178.1893310546875 170.02801513671875 178.57333374023438 C169.7966766357422 178.63601684570312 169.5626678466797 178.66734313964844 169.33200073242188 178.66734313964844 Z"></path>
<path fill="#cceaff" fill-opacity="1.0"  filling="0" d="M153.33334350585938 85.3326644897461 L153.33334350585938 117.3326644897461 L148.0 130.66600036621094"></path>
<path fill="#2e58ff" fill-opacity="1.0"  filling="0" d="M147.99867248535156 133.33401489257812 C147.66934204101562 133.33401489257812 147.3346710205078 133.27133178710938 147.00933837890625 133.14266967773438 C145.64199829101562 132.59466552734375 144.97666931152344 131.0439910888672 145.52334594726562 129.6753387451172 L150.6666717529297 116.8193359375 L150.6666717529297 85.3326644897461 C150.6666717529297 83.86000061035156 151.8606719970703 82.66600036621094 153.33334350585938 82.66600036621094 C154.80599975585938 82.66600036621094 156.0 83.86000061035156 156.0 85.3326644897461 L156.0 117.3326644897461 C156.0 117.67266845703125 155.93466186523438 118.0086669921875 155.80999755859375 118.32333374023438 L150.47666931152344 131.6566619873047 C150.0586700439453 132.69866943359375 149.05734252929688 133.33401489257812 147.99867248535156 133.33401489257812 Z"></path>
<path fill="#92ceff" fill-opacity="1.0"  filling="0" d="M125.20199584960938 29.416000366210938 C118.83067321777344 24.355331420898438 110.76866912841797 21.332664489746094 102.0 21.332664489746094 C81.38133239746094 21.332664489746094 64.66666412353516 38.047332763671875 64.66666412353516 58.66600036621094 C64.66666412353516 79.28466796875 81.38133239746094 95.99932861328125 102.0 95.99932861328125 C122.61866760253906 95.99932861328125 139.33334350585938 79.28466796875 139.33334350585938 58.66600036621094 C139.33334350585938 50.679996490478516 136.8260040283203 43.27933120727539 132.55467224121094 37.20866775512695"></path>
<path fill="#2e58ff" fill-opacity="1.0"  filling="0" d="M102.0 98.6659927368164 C79.94400024414062 98.6659927368164 62.0 80.72200012207031 62.0 58.66600036621094 C62.0 36.61000061035156 79.94400024414062 18.666000366210938 102.0 18.666000366210938 C111.128662109375 18.666000366210938 119.72533416748047 21.660659790039062 126.86067199707031 27.32733154296875 C128.01333618164062 28.243995666503906 128.2060089111328 29.92133331298828 127.2906723022461 31.074661254882812 C126.371337890625 32.227333068847656 124.69400024414062 32.417327880859375 123.5433349609375 31.504669189453125 C117.3626708984375 26.59466552734375 109.91199493408203 23.99932861328125 102.00067138671875 23.99932861328125 C82.8846664428711 23.99932861328125 67.33399963378906 39.54999542236328 67.33399963378906 58.66600036621094 C67.33399963378906 77.78199768066406 82.8846664428711 93.3326644897461 102.00067138671875 93.3326644897461 C121.11666870117188 93.3326644897461 136.66734313964844 77.78199768066406 136.66734313964844 58.66600036621094 C136.66734313964844 51.4839973449707 134.4913330078125 44.59466552734375 130.37466430664062 38.7426643371582 C129.52732849121094 37.53799819946289 129.8159942626953 35.875335693359375 131.02200317382812 35.02799987792969 C132.225341796875 34.17932891845703 133.88934326171875 34.469329833984375 134.73666381835938 35.675331115722656 C139.48800659179688 42.42932891845703 142.0 50.37933349609375 142.0 58.66600036621094 C142.0 80.72200012207031 124.05599975585938 98.6659927368164 102.0 98.6659927368164 Z"></path>
<path fill="#fff" fill-opacity="1.0"  filling="0" d="M98.39199829101562 85.93399810791016 L76.0 61.332664489746094 L89.33333587646484 61.332664489746094 L96.27466583251953 68.73133087158203 L111.27266693115234 39.999332427978516 L124.0 39.999332427978516 L98.39199829101562 85.93399810791016 Z"></path>
<path fill="#2e58ff" fill-opacity="1.0"  filling="0" d="M98.39199829101562 88.60066986083984 C97.64599609375 88.60066986083984 96.92867279052734 88.28800201416016 96.4193344116211 87.72933197021484 L74.02732849121094 63.12799835205078 C73.3179931640625 62.34666442871094 73.13399505615234 61.220664978027344 73.56133270263672 60.253997802734375 C73.98866271972656 59.287330627441406 74.94400024414062 58.66533279418945 76.0 58.66533279418945 L89.33333587646484 58.66533279418945 C90.06999969482422 58.66533279418945 90.7733383178711 58.970001220703125 91.2786636352539 59.507999420166016 L95.64867401123047 64.16666412353516 L108.90799713134766 38.76399612426758 C109.3673324584961 37.884002685546875 110.27933502197266 37.332000732421875 111.27266693115234 37.332000732421875 L124.0 37.332000732421875 C124.9453353881836 37.332000732421875 125.81999969482422 37.83333206176758 126.2993392944336 38.64866638183594 C126.77867126464844 39.46399688720703 126.78866577148438 40.47133255004883 126.32933807373047 41.297332763671875 L100.7213363647461 87.23200225830078 C100.30333709716797 87.98200225830078 99.55066680908203 88.48467254638672 98.697998046875 88.58200073242188 C98.5953369140625 88.59600067138672 98.49333953857422 88.60066986083984 98.39199829101562 88.60066986083984 Z M82.03266906738281 63.999332427978516 L97.86865997314453 81.39799499511719 L119.46133422851562 42.66600036621094 L112.88866424560547 42.66600036621094 L98.64000701904297 69.96533203125 C98.23999786376953 70.73066711425781 97.4939956665039 71.25599670410156 96.6373291015625 71.37266540527344 C95.78067016601562 71.49666595458984 94.92133331298828 71.18666076660156 94.32999420166016 70.5546646118164 L88.17867279052734 63.99866485595703 L82.03266906738281 63.99866485595703 L82.03266906738281 63.999332427978516 Z"></path></svg>