<svg xmlns="http://www.w3.org/2000/svg" viewBox="0.0 0.0 200.0 200.0" height="200.0px" width="200.0px"><path fill="#B78855" fill-opacity="1.0"  filling="0" d="M94.07109832763672 127.56680297851562 L94.072265625 127.56640625 C93.6781234741211 127.22969055175781 93.3687515258789 126.84335327148438 93.1527328491211 126.404296875 C89.77616882324219 119.54883575439453 106.90077209472656 103.84101867675781 135.2566375732422 89.87422180175781 C141.6218719482422 86.73905944824219 147.85311889648438 82.84687805175781 153.73046875 80.5882797241211 C144.6730499267578 58.330078125 120.8109359741211 42.39921569824219 95.822265625 42.39921569824219 C64.04336547851562 42.39921569824219 3.4207077026367188 68.16133117675781 3.4207077026367188 99.94023132324219 C3.4207077026367188 149.50115966796875 64.04336547851562 157.48126220703125 95.822265625 157.48126220703125 C104.23397827148438 157.48126220703125 112.51835632324219 155.67538452148438 120.15351104736328 152.431640625 C108.34765625 147.3425750732422 101.02110290527344 138.66444396972656 94.07109832763672 127.56680297851562 Z"></path>
<path fill="#A3764A" fill-opacity="1.0"  filling="0" d="M10.7578125 99.9398422241211 C10.7578125 76.7496109008789 40.98750305175781 56.56093978881836 70.9613265991211 46.099609375 C39.79452896118164 54.318748474121094 3.4203109741210938 75.32382202148438 3.4203109741210938 99.9398422241211 C3.4203109741210938 129.97030639648438 25.678512573242188 144.7332000732422 50.29023361206055 151.7062530517578 C28.50782012939453 143.19061279296875 10.7578125 127.65272521972656 10.7578125 99.9398422241211 Z"></path>
<path fill="#B78855" fill-opacity="1.0"  filling="0" d="M193.09805297851562 75.619140625 L90.94609832763672 127.56680297851562 C106.64453125 152.6335906982422 140.2019500732422 165.37149047851562 166.888671875 152.22694396972656 C194.01718139648438 138.8644561767578 204.26914978027344 103.57032012939453 193.09805297851562 75.619140625 Z"></path>
<path fill="#A3764A" fill-opacity="1.0"  filling="0" d="M174.7390594482422 147.0234375 C148.37890625 160.0070343017578 115.3167953491211 147.73594665527344 99.3828125 123.2757797241211 L90.94609832763672 127.5660171508789 C106.64453125 152.6328125 140.2019500732422 165.37069702148438 166.888671875 152.22616577148438 C170.29061889648438 150.55078125 173.4265594482422 148.52969360351562 176.28866577148438 146.22227478027344 C175.77774047851562 146.49688720703125 175.2624969482422 146.765625 174.7390594482422 147.0234375 Z"></path>
<path fill="#E0B377" fill-opacity="1.0"  filling="0" d="M192.72500610351562 75.8285140991211 C196.10235595703125 82.68437194824219 175.85116577148438 99.56640625 147.4929656982422 113.53515625 C119.13475799560547 127.50390625 93.408203125 133.2703094482422 90.0308609008789 126.4144515991211 C86.6539077758789 119.55859375 106.90507507324219 102.67694854736328 135.26327514648438 88.70780944824219 C163.62149047851562 74.73905944824219 189.34805297851562 68.97265625 192.72500610351562 75.8285140991211 Z"></path>
<path fill="#CC9A5E" fill-opacity="1.0"  filling="0" d="M97.6167984008789 126.404296875 C94.240234375 119.54883575439453 114.490234375 102.66914367675781 142.845703125 88.70234680175781 C160.60626220703125 79.9546890258789 177.33319091796875 74.42500305175781 188.18438720703125 73.1976547241211 C178.97500610351562 71.5960922241211 157.96014404296875 77.5191421508789 135.255859375 88.70234680175781 C106.89960479736328 102.66914367675781 86.650390625 119.54883575439453 90.02694702148438 126.404296875 C91.2886734008789 128.9660186767578 95.6714859008789 129.7648468017578 102.1449203491211 129.03280639648438 C99.85311889648438 128.6339874267578 98.28984069824219 127.77069854736328 97.6167984008789 126.404296875 Z"></path>
<path fill="" fill-opacity="1.0"  filling="0" d="M52.46757888793945 92.90351104736328 L52.46757888793945 95.81875610351562 C52.46757888793945 97.4371109008789 53.77890396118164 98.7484359741211 55.39726638793945 98.7484359741211 C57.015628814697266 98.7484359741211 58.32695388793945 97.4371109008789 58.32695388793945 95.81875610351562 L58.32695388793945 92.90351104736328 C58.32695388793945 91.28515625 57.015628814697266 89.97382354736328 55.39726638793945 89.97382354736328 C53.77890396118164 89.97382354736328 52.46757888793945 91.28515625 52.46757888793945 92.90351104736328 Z"></path>
<path fill="" fill-opacity="1.0"  filling="0" d="M81.7109375 92.90351104736328 L81.7109375 95.81875610351562 C81.7109375 97.4371109008789 83.02226257324219 98.7484359741211 84.640625 98.7484359741211 C86.25898742675781 98.7484359741211 87.5703125 97.4371109008789 87.5703125 95.81875610351562 L87.5703125 92.90351104736328 C87.5703125 91.28515625 86.25898742675781 89.97382354736328 84.640625 89.97382354736328 C83.02226257324219 89.97382354736328 81.7109375 91.28515625 81.7109375 92.90351104736328 Z"></path>
<path fill="" fill-opacity="1.0"  filling="0" d="M95.37616729736328 64.57109069824219 L95.37616729736328 67.486328125 C95.37616729736328 69.10469055175781 96.6875 70.416015625 98.30585479736328 70.416015625 C99.9242172241211 70.416015625 101.23554229736328 69.10469055175781 101.23554229736328 67.486328125 L101.23554229736328 64.57109069824219 C101.23554229736328 62.95273208618164 99.9242172241211 61.64140701293945 98.30585479736328 61.64140701293945 C96.6875 61.64140701293945 95.37616729736328 62.95273208618164 95.37616729736328 64.57109069824219 Z"></path>
<path fill="" fill-opacity="1.0"  filling="0" d="M25.957420349121094 92.90351104736328 L25.957420349121094 95.81875610351562 C25.957420349121094 97.4371109008789 27.268753051757812 98.7484359741211 28.887107849121094 98.7484359741211 C30.505462646484375 98.7484359741211 31.816795349121094 97.4371109008789 31.816795349121094 95.81875610351562 L31.816795349121094 92.90351104736328 C31.816795349121094 91.28515625 30.505462646484375 89.97382354736328 28.887107849121094 89.97382354736328 C27.268753051757812 89.97382354736328 25.957420349121094 91.28515625 25.957420349121094 92.90351104736328 Z"></path>
<path fill="" fill-opacity="1.0"  filling="0" d="M38.802345275878906 124.87968444824219 L38.802345275878906 127.794921875 C38.802345275878906 129.4132843017578 40.11367416381836 130.724609375 41.732032775878906 130.724609375 C43.35038757324219 130.724609375 44.661720275878906 129.4132843017578 44.661720275878906 127.794921875 L44.661720275878906 124.87968444824219 C44.661720275878906 123.26133728027344 43.35038757324219 121.94999694824219 41.732032775878906 121.94999694824219 C40.11367416381836 121.94999694824219 38.802345275878906 123.26171875 38.802345275878906 124.87968444824219 Z"></path>
<path fill="" fill-opacity="1.0"  filling="0" d="M69.0625 121.94999694824219 C67.44413757324219 121.94999694824219 66.1328125 123.26133728027344 66.1328125 124.87968444824219 L66.1328125 127.794921875 C66.1328125 129.4132843017578 67.44413757324219 130.724609375 69.0625 130.724609375 C70.68085479736328 130.724609375 71.9921875 129.4132843017578 71.9921875 127.794921875 L71.9921875 124.87968444824219 C71.9921875 123.26171875 70.68046569824219 121.94999694824219 69.0625 121.94999694824219 Z"></path>
<path fill="" fill-opacity="1.0"  filling="0" d="M71.9921875 64.57109069824219 C71.9921875 62.95273208618164 70.68085479736328 61.64140701293945 69.0625 61.64140701293945 C67.44413757324219 61.64140701293945 66.1328125 62.95273208618164 66.1328125 64.57109069824219 L66.1328125 67.486328125 C66.1328125 69.10469055175781 67.44413757324219 70.416015625 69.0625 70.416015625 C70.68085479736328 70.416015625 71.9921875 69.10469055175781 71.9921875 67.486328125 L71.9921875 64.57109069824219 Z"></path>
<path fill="" fill-opacity="1.0"  filling="0" d="M163.6554718017578 133.455078125 L160.86367797851562 134.6710968017578 C157.9621124267578 135.93515014648438 158.8820343017578 140.28749084472656 162.03515625 140.28749084472656 C162.8078155517578 140.28749084472656 162.9796905517578 140.140625 165.99569702148438 138.8269500732422 C167.47930908203125 138.1808624267578 168.15780639648438 136.45468139648438 167.51171875 134.97109985351562 C166.865234375 133.48788452148438 165.13983154296875 132.8097686767578 163.6554718017578 133.455078125 Z"></path>
<path fill="" fill-opacity="1.0"  filling="0" d="M136.52227783203125 133.45155334472656 L133.84609985351562 134.60662841796875 C132.36053466796875 135.248046875 131.67617797851562 136.9718780517578 132.3175811767578 138.45741271972656 C132.7957000732422 139.564453125 133.87460327148438 140.2265625 135.00897216796875 140.2265625 C135.39610290527344 140.2265625 135.79022216796875 140.14923095703125 136.16876220703125 139.98594665527344 L138.84490966796875 138.83087158203125 C140.33047485351562 138.189453125 141.01483154296875 136.4656219482422 140.37342834472656 134.98008728027344 C139.732421875 133.49530029296875 138.009765625 132.810546875 136.52227783203125 133.45155334472656 Z"></path>
<path fill="" fill-opacity="1.0"  filling="0" d="M195.66641235351562 112.94532012939453 C197.27108764648438 113.2132797241211 198.7742156982422 112.1285171508789 199.04061889648438 110.54100799560547 C201.10586547851562 98.228515625 199.822265625 85.77656555175781 195.328125 74.5316390991211 C195.02108764648438 73.7640609741211 194.42498779296875 73.19961547851562 193.7156219482422 72.9097671508789 C186.95428466796875 65.85664367675781 163.89686584472656 73.52461242675781 154.802734375 76.86991882324219 C146.03125 58.07305145263672 127.03827667236328 43.86249923706055 105.61991882324219 40.32304382324219 C104.02342987060547 40.05937576293945 102.515625 41.13983917236328 102.25196075439453 42.73593521118164 C101.98788452148438 44.332420349121094 103.06836700439453 45.840232849121094 104.66484069824219 46.103904724121094 C124.07461547851562 49.31172180175781 141.2882843017578 62.07421875 149.32852172851562 78.9765625 C118.02616882324219 91.56171417236328 76.5738296508789 117.83203125 88.14570617675781 129.41445922851562 C88.6285171508789 129.8984375 95.69609069824219 142.83749389648438 112.19960021972656 152.029296875 C106.6640625 153.70468139648438 101.01406860351562 154.55157470703125 95.3324203491211 154.55157470703125 C53.41875076293945 154.55117797851562 5.859375 142.05352783203125 5.859375 99.94023132324219 C5.859375 71.7457046508789 59.841407775878906 47.30585861206055 91.64179992675781 45.44102096557617 C93.25703430175781 45.34648513793945 94.48945617675781 43.96015548706055 94.3949203491211 42.34453582763672 C94.30078125 40.72929763793945 92.921875 39.50039291381836 91.2984390258789 39.591407775878906 C58.35078430175781 41.523826599121094 0.0 66.8628921508789 0.0 99.94023132324219 C0.0 145.76327514648438 49.48593521118164 160.41055297851562 95.3316421508789 160.41055297851562 C103.5796890258789 160.41055297851562 111.75312805175781 158.7921905517578 119.6460952758789 155.60546875 C136.68710327148438 162.55429077148438 153.83633422851562 161.6796875 167.6925811767578 154.85546875 C179.97967529296875 148.80352783203125 189.74765014648438 137.9582061767578 195.19570922851562 124.31875610351562 C195.7957000732422 122.81600952148438 195.064453125 121.11133575439453 193.5617218017578 120.5113296508789 C192.0597686767578 119.912109375 190.3546905517578 120.642578125 189.75430297851562 122.14530944824219 C173.2488250732422 163.4656219482422 123.05546569824219 163.24649047851562 97.42694854736328 132.2117156982422 C121.8671875 132.2937469482422 178.7265625 104.08905792236328 192.4968719482422 84.97773742675781 C194.37930297851562 92.908203125 194.65469360351562 101.27031707763672 193.26211547851562 109.572265625 C192.99453735351562 111.16757202148438 194.07070922851562 112.67772674560547 195.66641235351562 112.94532012939453 Z M179.6320343017578 89.759765625 C171.26211547851562 96.7367172241211 159.21133422851562 104.244140625 145.69921875 110.89961242675781 C145.69921875 110.89961242675781 145.69921875 110.89961242675781 145.69883728027344 110.89961242675781 C112.75390625 127.12734985351562 92.27655792236328 128.28164672851562 92.09648132324219 124.79960632324219 C92.0308609008789 123.52304077148438 93.63789367675781 119.546875 102.126953125 112.4703140258789 C123.18241882324219 94.9195327758789 165.70938110351562 75.86406707763672 184.31016540527344 75.86406707763672 C187.92733764648438 75.86406707763672 189.36093139648438 76.64726257324219 189.59375 77.1207046508789 C189.98712158203125 77.91796875 189.0 81.9507827758789 179.6320343017578 89.759765625 Z"></path></svg>