<svg xmlns="http://www.w3.org/2000/svg" viewBox="0.0 0.0 200.0 200.0" height="200.0px" width="200.0px"><path fill="#e9e4f2" fill-opacity="1.0"  filling="0" d="M134.50515747070312 22.47021484375 C128.10133361816406 14.681617736816406 116.49209594726562 10.732421875 100.00019073486328 10.732421875 C83.50828552246094 10.732421875 71.8990478515625 14.681617736816406 65.49523162841797 22.47021484375 C58.80695724487305 30.60460662841797 60.5226936340332 39.79556655883789 60.59888458251953 40.18317413330078 L66.35250854492188 39.066837310791016 C66.30015563964844 38.783939361572266 65.12989044189453 32.07183074951172 70.08718872070312 26.11463165283203 C75.27033996582031 19.886253356933594 85.61397552490234 16.593894958496094 100.00019073486328 16.593894958496094 C114.38640594482422 16.593894958496094 124.73043823242188 19.8858642578125 129.91319274902344 26.11463165283203 C134.87049865722656 32.07221984863281 133.69984436035156 38.78433609008789 133.6478729248047 39.066837310791016 L136.5264434814453 39.61661148071289 L139.40150451660156 40.18317413330078 C139.4777069091797 39.79556655883789 141.1934356689453 30.60460662841797 134.50515747070312 22.47021484375 Z"></path>
<path fill="#9887af" fill-opacity="1.0"  filling="0" d="M79.92012786865234 55.16214370727539 L72.5078125 55.8459358215332 L49.516754150390625 57.963741302490234 C49.426883697509766 57.9715576171875 49.33700942993164 57.975460052490234 49.24714660644531 57.975460052490234 C48.54772186279297 57.975460052490234 47.867835998535156 57.72538757324219 47.336429595947266 57.264320373535156 C46.73469543457031 56.74463653564453 46.367401123046875 56.002235412597656 46.32441711425781 55.20903778076172 C45.921958923339844 48.05070114135742 46.0938835144043 43.2602424621582 46.0977897644043 43.06097412109375 C46.140769958496094 41.966896057128906 46.78548812866211 40.99005126953125 47.77014923095703 40.52117156982422 C48.047576904296875 40.3883171081543 54.64324188232422 37.297576904296875 63.270751953125 36.691925048828125 C65.66989135742188 36.52391052246094 67.9400863647461 36.570796966552734 69.975830078125 36.72319030761719 C75.25470733642578 37.12565231323242 78.93937683105469 38.26270294189453 79.15037536621094 38.32521438598633 C80.20927429199219 38.65734100341797 80.98684692382812 39.55604553222656 81.16658782958984 40.650108337402344 C81.75659942626953 44.27225875854492 82.22940063476562 48.08586502075195 82.5693359375 51.985443115234375 C82.71000671386719 53.59528350830078 81.52606201171875 55.013668060302734 79.92012786865234 55.16214370727539 Z"></path>
<path fill="#9887af" fill-opacity="1.0"  filling="0" d="M153.67596435546875 55.20903778076172 C153.63299560546875 56.002235412597656 153.26568603515625 56.74463653564453 152.66395568847656 57.264320373535156 C152.13255310058594 57.72538757324219 151.45266723632812 57.975460052490234 150.7532501220703 57.975460052490234 C150.6633758544922 57.975460052490234 150.57350158691406 57.9715576171875 150.483642578125 57.963741302490234 L143.1611785888672 57.28776550292969 L120.08026123046875 55.16214370727539 C118.47431945800781 55.013668060302734 117.29037475585938 53.59528350830078 117.43104553222656 51.985443115234375 C117.77098846435547 48.08586502075195 118.24378204345703 44.27225875854492 118.83380126953125 40.650108337402344 C119.01353454589844 39.55604553222656 119.79110717773438 38.65734100341797 120.85001373291016 38.32521438598633 C121.14306640625 38.235347747802734 128.10601806640625 36.09019088745117 136.72962951660156 36.691925048828125 C139.37103271484375 36.87948226928711 141.82485961914062 37.297576904296875 143.9622039794922 37.7938117980957 C148.80345153808594 38.91522979736328 152.0387725830078 40.42738723754883 152.23023986816406 40.52117156982422 C153.2148895263672 40.99005126953125 153.859619140625 41.966896057128906 153.90260314941406 43.06097412109375 C153.906494140625 43.2602424621582 154.07843017578125 48.05070114135742 153.67596435546875 55.20903778076172 Z"></path>
<path fill="#756391" fill-opacity="1.0"  filling="0" d="M153.67596435546875 55.20903778076172 C153.63299560546875 56.002235412597656 153.26568603515625 56.74463653564453 152.66395568847656 57.264320373535156 C152.13255310058594 57.72538757324219 151.45266723632812 57.975460052490234 150.7532501220703 57.975460052490234 C150.6633758544922 57.975460052490234 150.57350158691406 57.9715576171875 150.483642578125 57.963741302490234 L143.1611785888672 57.28776550292969 C144.29042053222656 47.21061706542969 144.11068725585938 40.411766052246094 143.9622039794922 37.7938117980957 C148.80345153808594 38.91522979736328 152.0387725830078 40.42738723754883 152.23023986816406 40.52117156982422 C153.2148895263672 40.99005126953125 153.859619140625 41.966896057128906 153.90260314941406 43.06097412109375 C153.906494140625 43.2602424621582 154.07843017578125 48.05070114135742 153.67596435546875 55.20903778076172 Z"></path>
<path fill="#756391" fill-opacity="1.0"  filling="0" d="M79.92012786865234 55.16214370727539 L72.5078125 55.8459358215332 C71.53878784179688 44.819297790527344 70.48379516601562 39.0519905090332 69.975830078125 36.72319030761719 C75.25470733642578 37.12565231323242 78.93937683105469 38.26270294189453 79.15037536621094 38.32521438598633 C80.20927429199219 38.65734100341797 80.98684692382812 39.55604553222656 81.16658782958984 40.650108337402344 C81.75659942626953 44.27225875854492 82.22940063476562 48.08586502075195 82.5693359375 51.985443115234375 C82.71000671386719 53.59528350830078 81.52606201171875 55.013668060302734 79.92012786865234 55.16214370727539 Z"></path>
<path fill="#76ddac" fill-opacity="1.0"  filling="0" d="M196.02423095703125 176.59982299804688 C195.828857421875 177.74859619140625 194.97314453125 178.67074584960938 193.84390258789062 178.9520721435547 C193.7305908203125 178.98333740234375 190.44448852539062 179.7882537841797 184.65371704101562 180.93701171875 C169.55950927734375 183.93399047851562 137.44078063964844 189.267578125 100.00019073486328 189.267578125 C48.19606018066406 189.267578125 6.5745697021484375 179.0575714111328 6.1564788818359375 178.9520721435547 C5.0037994384765625 178.66683959960938 4.136360168457031 177.7095184326172 3.9644317626953125 176.52947998046875 C-4.917060852050781 115.30855560302734 3.88629150390625 61.95318603515625 3.9761581420898438 61.42177963256836 C4.1715240478515625 60.273006439208984 5.027244567871094 59.34695816040039 6.1564788818359375 59.06562423706055 C6.5745697021484375 58.96403503417969 48.19606018066406 48.754032135009766 100.00019073486328 48.754032135009766 C137.3587188720703 48.754032135009766 169.4227294921875 54.064170837402344 184.55604553222656 57.06504440307617 C190.4093017578125 58.22163009643555 193.7266845703125 59.038272857666016 193.84390258789062 59.06562423706055 C194.99658203125 59.354774475097656 195.864013671875 60.31208419799805 196.03594970703125 61.49211120605469 C204.91741943359375 122.71304321289062 196.11410522460938 176.06451416015625 196.02423095703125 176.59982299804688 Z"></path>
<path fill="#f6f4f9" fill-opacity="1.0"  filling="0" d="M148.64715576171875 119.00885009765625 C148.64715576171875 145.83306884765625 126.82440185546875 167.65582275390625 100.00019073486328 167.65582275390625 C98.21842193603516 167.65582275390625 96.45619201660156 167.55813598632812 94.7252197265625 167.37057495117188 C70.37047576904297 164.73309326171875 51.35322189331055 144.05130004882812 51.35322189331055 119.00885009765625 C51.35322189331055 93.96640014648438 70.37047576904297 73.28460693359375 94.7252197265625 70.64712524414062 C96.45619201660156 70.45956420898438 98.21842193603516 70.36188507080078 100.00019073486328 70.36188507080078 C126.82440185546875 70.36188507080078 148.64715576171875 92.18463897705078 148.64715576171875 119.00885009765625 Z"></path>
<path fill="#e9e4f2" fill-opacity="1.0"  filling="0" d="M148.64715576171875 119.00885009765625 C148.64715576171875 145.83306884765625 126.82440185546875 167.65582275390625 100.00019073486328 167.65582275390625 C98.21842193603516 167.65582275390625 96.45619201660156 167.55813598632812 94.7252197265625 167.37057495117188 C119.07997131347656 164.73309326171875 138.0972137451172 144.05130004882812 138.0972137451172 119.00885009765625 C138.0972137451172 93.96640014648438 119.07997131347656 73.28460693359375 94.7252197265625 70.64712524414062 C96.45619201660156 70.45956420898438 98.21842193603516 70.36188507080078 100.00019073486328 70.36188507080078 C126.82440185546875 70.36188507080078 148.64715576171875 92.18463897705078 148.64715576171875 119.00885009765625 Z"></path>
<path fill="#ff928d" fill-opacity="1.0"  filling="0" d="M128.32875061035156 119.00885009765625 C128.32875061035156 123.85791778564453 124.38619232177734 127.80047607421875 119.53712463378906 127.80047607421875 L108.79180908203125 127.80047607421875 L108.79180908203125 138.5457763671875 C108.79180908203125 143.3948516845703 104.84925842285156 147.33740234375 100.00019073486328 147.33740234375 C95.15113067626953 147.33740234375 91.20857238769531 143.3948516845703 91.20857238769531 138.5457763671875 L91.20857238769531 127.80047607421875 L80.4632568359375 127.80047607421875 C75.61419677734375 127.80047607421875 71.671630859375 123.85791778564453 71.671630859375 119.00885009765625 C71.671630859375 114.1636962890625 75.61419677734375 110.21723175048828 80.4632568359375 110.21723175048828 L91.20857238769531 110.21723175048828 L91.20857238769531 99.47191619873047 C91.20857238769531 94.62675476074219 95.15113067626953 90.6802978515625 100.00019073486328 90.6802978515625 C104.84925842285156 90.6802978515625 108.79180908203125 94.62675476074219 108.79180908203125 99.47191619873047 L108.79180908203125 110.21723175048828 L119.53712463378906 110.21723175048828 C124.38619232177734 110.21723175048828 128.32875061035156 114.1636962890625 128.32875061035156 119.00885009765625 Z"></path>
<path fill="#ea5e5e" fill-opacity="1.0"  filling="0" d="M128.32875061035156 119.00885009765625 C128.32875061035156 123.85791778564453 124.38619232177734 127.80047607421875 119.53712463378906 127.80047607421875 L108.79180908203125 127.80047607421875 C113.64087677001953 127.80047607421875 117.58343505859375 123.85791778564453 117.58343505859375 119.00885009765625 C117.58343505859375 114.1636962890625 113.64087677001953 110.21723175048828 108.79180908203125 110.21723175048828 L119.53712463378906 110.21723175048828 C124.38619232177734 110.21723175048828 128.32875061035156 114.1636962890625 128.32875061035156 119.00885009765625 Z"></path>
<path fill="#59b292" fill-opacity="1.0"  filling="0" d="M182.2389678955078 119.01001739501953 A2.9305403232574463 2.9305403232574463 0.0 1 1 176.3778839111328 119.01001739501953 A2.9305403232574463 2.9305403232574463 0.0 1 1 182.2389678955078 119.01001739501953 Z"></path>
<path fill="#59b292" fill-opacity="1.0"  filling="0" d="M179.89413452148438 72.9028549194336 A2.9305403232574463 2.9305403232574463 0.0 1 1 174.03305053710938 72.9028549194336 A2.9305403232574463 2.9305403232574463 0.0 1 1 179.89413452148438 72.9028549194336 Z"></path>
<path fill="#59b292" fill-opacity="1.0"  filling="0" d="M179.89492797851562 165.1171875 A2.9305403232574463 2.9305403232574463 0.0 1 1 174.03384399414062 165.1171875 A2.9305403232574463 2.9305403232574463 0.0 1 1 179.89492797851562 165.1171875 Z"></path>
<path fill="#59b292" fill-opacity="1.0"  filling="0" d="M23.62249755859375 119.01001739501953 A2.9305403232574463 2.9305403232574463 0.0 1 1 17.76141357421875 119.01001739501953 A2.9305403232574463 2.9305403232574463 0.0 1 1 23.62249755859375 119.01001739501953 Z"></path>
<path fill="#59b292" fill-opacity="1.0"  filling="0" d="M25.967323303222656 72.9028549194336 A2.9305403232574463 2.9305403232574463 0.0 1 1 20.106239318847656 72.9028549194336 A2.9305403232574463 2.9305403232574463 0.0 1 1 25.967323303222656 72.9028549194336 Z"></path>
<path fill="#59b292" fill-opacity="1.0"  filling="0" d="M25.966156005859375 165.1171875 A2.9305403232574463 2.9305403232574463 0.0 1 1 20.105064392089844 165.1171875 A2.9305403232574463 2.9305403232574463 0.0 1 1 25.966156005859375 165.1171875 Z"></path>
<path fill="#59b292" fill-opacity="1.0"  filling="0" d="M196.02423095703125 176.59982299804688 C195.828857421875 177.74859619140625 194.97314453125 178.67074584960938 193.84390258789062 178.9520721435547 C193.7305908203125 178.98333740234375 190.44448852539062 179.7882537841797 184.65371704101562 180.93701171875 C194.18385314941406 123.0530014038086 186.38470458984375 68.3886489868164 184.55604553222656 57.06504440307617 C190.4093017578125 58.22163009643555 193.7266845703125 59.038272857666016 193.84390258789062 59.06562423706055 C194.99658203125 59.354774475097656 195.864013671875 60.31208419799805 196.03594970703125 61.49211120605469 C204.91741943359375 122.71304321289062 196.11410522460938 176.06451416015625 196.02423095703125 176.59982299804688 Z"></path></svg>