<svg xmlns="http://www.w3.org/2000/svg" viewBox="0.0 0.0 200.0 200.0" height="200.0px" width="200.0px"><path fill="#ffda2d" fill-opacity="1.0"  filling="0" d="M196.092041015625 80.0780029296875 C196.092041015625 47.360084533691406 179.51199340820312 19.460906982421875 156.91983032226562 8.676155090332031 C154.01593017578125 8.108573913574219 151.0526580810547 7.8124847412109375 148.0467987060547 7.8124847412109375 C134.6909637451172 7.8124847412109375 121.17457580566406 13.624588012695312 111.35115051269531 23.405433654785156 C108.68670654296875 20.82379150390625 105.85311889648438 18.52106475830078 102.88085174560547 16.52692413330078 C101.76093292236328 17.472625732421875 100.67460632324219 18.46324920654297 99.6324234008789 19.500747680664062 C94.97696685791016 14.987083435058594 89.80548095703125 11.321853637695312 84.2726821899414 8.679275512695312 C81.36760711669922 8.110137939453125 78.40120697021484 7.8124847412109375 75.39066314697266 7.8124847412109375 C43.03133773803711 7.8124847412109375 15.625129699707031 41.91750717163086 15.625129699707031 83.98424530029297 C15.625129699707031 116.70528411865234 32.20518493652344 144.60446166992188 54.79889678955078 155.38922119140625 C57.701236724853516 155.95834350585938 60.664512634277344 156.2528839111328 63.671932220458984 156.2528839111328 L67.768798828125 156.2528839111328 L75.56761932373047 160.15911865234375 L58.58013916015625 181.24972534179688 C55.27506637573242 185.65635681152344 55.56803512573242 191.68838500976562 58.94186019897461 195.76220703125 C61.45787048339844 195.15516662597656 67.7566909790039 193.71142578125 69.53129577636719 191.40594482421875 L96.24649047851562 156.2528839111328 L102.94023132324219 156.2528839111328 L116.25074768066406 157.35289001464844 L143.77297973632812 192.5075225830078 C143.8917236328125 192.66650390625 144.01556396484375 192.82040405273438 144.14056396484375 192.97157287597656 C145.6604766845703 192.61141967773438 145.54446411132812 194.74774169921875 146.8749237060547 193.75282287597656 C152.0538330078125 189.86923217773438 153.10031127929688 182.52236938476562 149.2218017578125 177.34347534179688 L132.237060546875 156.2528839111328 L137.49993896484375 156.2528839111328 C169.85769653320312 156.2528839111328 196.092041015625 122.14785766601562 196.092041015625 80.0780029296875 Z M94.14063262939453 111.7217025756836 C87.8707275390625 118.94824981689453 84.2773666381836 128.5185546875 76.17191314697266 128.5185546875 C71.5621566772461 128.5185546875 66.276611328125 135.30564880371094 62.09419631958008 132.75721740722656 C43.675472259521484 131.4724578857422 27.34386444091797 107.87639617919922 27.34386444091797 80.0780029296875 C27.34386444091797 51.49211120605469 44.616878509521484 27.343704223632812 63.671932220458984 27.343704223632812 C68.28012084960938 27.343704223632812 72.78441619873047 28.758155822753906 76.96683502197266 31.305023193359375 C84.5015869140625 31.831199645996094 90.23126983642578 43.24641418457031 96.09375762939453 50.00304412841797 C90.22657775878906 61.87139129638672 88.28126525878906 68.83074951171875 88.28126525878906 83.98424530029297 C88.28126525878906 99.13929748535156 89.45314025878906 101.17484283447266 94.14063262939453 111.7217025756836 Z M118.84294128417969 136.72166442871094 L118.84294128417969 136.71697998046875 C119.77379608154297 135.45799255371094 120.66950225830078 134.15525817871094 121.53160858154297 132.81541442871094 L107.12420654296875 132.81541442871094 L107.12420654296875 132.81072998046875 C117.22575378417969 119.12832641601562 123.43746185302734 100.54594421386719 123.43746185302734 80.0780029296875 C123.43746185302734 64.8084945678711 119.82731628417969 50.58898162841797 113.6796646118164 38.66712951660156 C119.63668823242188 31.605422973632812 128.32339477539062 27.343704223632812 136.32806396484375 27.343704223632812 C140.9378204345703 27.343704223632812 145.44212341308594 28.759719848632812 149.6229705810547 31.307769775390625 C168.0432586669922 32.592918395996094 184.37330627441406 56.18897247314453 184.37330627441406 83.98268127441406 C184.37330627441406 112.57325744628906 168.27215576171875 136.72166442871094 149.2186737060547 136.72166442871094 L118.84294128417969 136.72166442871094 Z"></path>
<path fill="" fill-opacity="1.0"  filling="0" d="M7.8126373291015625 84.37799072265625 C7.8126373291015625 86.53541564941406 6.063812255859375 88.28423309326172 3.9063949584960938 88.28423309326172 C1.7489776611328125 88.28423309326172 0.000152587890625 86.53541564941406 0.000152587890625 84.37799072265625 C0.000152587890625 82.22018432617188 1.7489776611328125 80.47174835205078 3.9063949584960938 80.47174835205078 C6.063812255859375 80.47174835205078 7.8126373291015625 82.22018432617188 7.8126373291015625 84.37799072265625 Z"></path>
<path fill="" fill-opacity="1.0"  filling="0" d="M136.32806396484375 0.0 C123.12770080566406 0.0 109.94256591796875 5.1331939697265625 99.6078109741211 14.184349060058594 C89.02423095703125 5.0140533447265625 76.39144134521484 0.0 63.671932220458984 0.0 C30.17432403564453 0.0 5.7833404541015625 31.971817016601562 0.9599151611328125 66.28114318847656 C0.6595306396484375 68.41707611083984 2.148590087890625 70.39168548583984 4.284912109375 70.69247436523438 C6.419677734375 70.99285888671875 8.395454406738281 69.50536346435547 8.69622802734375 67.36747741699219 C13.468879699707031 33.415184020996094 37.10322570800781 7.8124847412109375 63.671932220458984 7.8124847412109375 C94.59220123291016 7.8124847412109375 119.53121948242188 41.27805709838867 119.53121948242188 80.0780029296875 C119.53121948242188 98.28031921386719 114.42107391357422 115.53340911865234 105.11170959472656 128.9091796875 L83.5664291381836 128.9091796875 C94.87149047851562 119.51114654541016 103.90624237060547 101.66312408447266 103.90624237060547 80.0780029296875 C103.90624237060547 55.18194580078125 88.66876983642578 23.437461853027344 63.671932220458984 23.437461853027344 C39.25009536743164 23.437461853027344 23.43761444091797 53.813194274902344 23.43761444091797 80.0780029296875 C23.43761444091797 106.2560806274414 39.193843841552734 136.72166442871094 63.671932220458984 136.72166442871094 L137.49993896484375 136.72166442871094 C161.90341186523438 136.72166442871094 176.56082153320312 106.24983215332031 176.56082153320312 80.0780029296875 C176.56082153320312 65.56239318847656 172.39988708496094 51.597572326660156 164.8405303955078 40.75618362426758 C157.16709899902344 29.749954223632812 146.77415466308594 23.437461853027344 136.32806396484375 23.437461853027344 C128.78395080566406 23.437461853027344 120.82379150390625 26.713623046875 114.55387878417969 32.21752166748047 C111.80740356445312 27.628868103027344 108.68827056884766 23.428482055664062 105.22928619384766 19.659347534179688 C114.0198974609375 12.188652038574219 125.38590240478516 7.8124847412109375 136.32806396484375 7.8124847412109375 C150.8300018310547 7.8124847412109375 164.66357421875 15.208564758300781 175.28073120117188 28.639022827148438 C186.18307495117188 42.43157196044922 192.185791015625 60.69951629638672 192.185791015625 80.0780029296875 C192.185791015625 119.92637634277344 167.65420532226562 151.95758056640625 137.49993896484375 151.95758056640625 C134.86947631835938 151.95758056640625 65.579345703125 151.9560089111328 63.671932220458984 151.95758056640625 C39.38603210449219 151.95758056640625 17.405982971191406 131.18104553222656 10.218887329101562 100.87562561035156 C9.72161865234375 98.7760238647461 7.6157684326171875 97.47914123535156 5.5161590576171875 97.97640991210938 C3.4165573120117188 98.47406005859375 2.1196823120117188 100.57953643798828 2.6169509887695312 102.67913818359375 C10.264595031738281 134.92245483398438 33.41533660888672 157.902099609375 59.7336540222168 160.001708984375 C59.7336540222168 160.001708984375 47.683677673339844 174.9630126953125 47.65633010864258 174.99972534179688 C42.49422836303711 181.8829345703125 43.88602066040039 191.6774444580078 50.75397872924805 196.85321044921875 C57.15045166015625 201.80474853515625 67.071533203125 201.01141357421875 72.64105224609375 193.76962280273438 L98.18437957763672 160.15911865234375 L101.0374984741211 160.15911865234375 L127.36675262451172 193.78955078125 C132.5468292236328 200.6407012939453 142.3401641845703 202.0262451171875 149.2171173095703 196.87782287597656 C156.10968017578125 191.7126007080078 157.51319885253906 181.89816284179688 152.34835815429688 175.00128173828125 C152.32061767578125 174.96456909179688 152.29327392578125 174.9278564453125 152.26437377929688 174.89309692382812 L140.33197021484375 160.07513427734375 C170.11239624023438 158.39663696289062 199.99984741210938 127.41073608398438 199.99984741210938 80.0780029296875 C199.99984741210938 58.947566986083984 193.39752197265625 38.96009826660156 181.4100341796875 23.79449462890625 C170.27566528320312 9.71209716796875 154.41123962402344 0.0 136.32806396484375 0.0 Z M86.70197296142578 113.54669952392578 C82.61565399169922 103.25765228271484 80.46878051757812 91.8182144165039 80.46878051757812 80.0780029296875 C80.46878051757812 68.33934783935547 82.61565399169922 56.90147399902344 86.70197296142578 46.6124267578125 C92.65001678466797 55.81201934814453 96.09375762939453 67.87255096435547 96.09375762939453 80.0780029296875 C96.09375762939453 92.28345489501953 92.65001678466797 104.34710693359375 86.70197296142578 113.54669952392578 Z M63.671932220458984 128.9091796875 C43.921180725097656 128.9091796875 31.250106811523438 101.51351165771484 31.250106811523438 80.0780029296875 C31.250106811523438 58.70655059814453 43.88758087158203 31.24994659423828 63.671932220458984 31.24994659423828 C69.6746597290039 31.24994659423828 75.81175231933594 34.22221374511719 81.16761016845703 39.65736389160156 C75.59222412109375 51.88429641723633 72.65629577636719 65.79598999023438 72.65629577636719 80.0780029296875 C72.65629577636719 94.361572265625 75.59222412109375 108.27482604980469 81.16761016845703 120.50138092041016 C75.81175231933594 125.93653106689453 69.6746597290039 128.9091796875 63.671932220458984 128.9091796875 Z M158.43194580078125 45.22376251220703 C164.9885711669922 54.62960433959961 168.7483367919922 67.33232116699219 168.7483367919922 80.0780029296875 C168.7483367919922 100.50648498535156 157.58975219726562 128.9091796875 137.49993896484375 128.9091796875 L114.41207885742188 128.9091796875 C122.78746032714844 114.96857452392578 127.34370422363281 97.912353515625 127.34370422363281 80.0780029296875 C127.34370422363281 65.70732116699219 124.24761962890625 51.68429183959961 118.3698959350586 39.335487365722656 C123.41168212890625 34.30150604248047 130.0995635986328 31.24994659423828 136.32806396484375 31.24994659423828 C144.18313598632812 31.24994659423828 152.23977661132812 36.34330368041992 158.43194580078125 45.22376251220703 Z M66.43521118164062 189.02392578125 C63.632083892822266 192.66650390625 58.6516227722168 193.09970092773438 55.52389907836914 190.6657257080078 C55.50553512573242 190.6520538330078 55.48717498779297 190.63681030273438 55.46881866455078 190.6247100830078 C52.03874206542969 188.05206298828125 51.327415466308594 183.17823791503906 53.86960220336914 179.73605346679688 L69.637939453125 160.15911865234375 L88.36994171142578 160.15911865234375 L66.43521118164062 189.02392578125 Z M144.5343017578125 190.6247100830078 C141.08587646484375 193.2047882080078 136.1737823486328 192.50320434570312 133.5858917236328 189.06063842773438 C133.57064819335938 189.0407257080078 110.96052551269531 160.15911865234375 110.96052551269531 160.15911865234375 L130.367919921875 160.15911865234375 L146.1319580078125 179.7344970703125 C148.67257690429688 183.18136596679688 147.9612579345703 188.05517578125 144.5343017578125 190.6247100830078 Z"></path></svg>