<svg xmlns="http://www.w3.org/2000/svg" viewBox="0.0 0.0 200.0 200.0" height="200.0px" width="200.0px"><path fill="#9bc9ff" fill-opacity="1.0"  filling="0" d="M140.625 178.125 L140.625 53.125 L34.375 53.125 L34.375 178.125 A12.5 12.5 0.0 0 0 46.875 190.625 L153.125 190.625 A12.5 12.5 0.0 0 1 140.625 178.125 Z M115.625 118.75 C115.625 134.2843780517578 87.5 165.625 87.5 165.625 C87.5 165.625 59.375 134.2843780517578 59.375 118.75 A28.125 28.125 0.0 0 1 115.625 118.75 Z M62.5 65.625 A9.375 9.375 0.0 1 1 53.125 75.0 A9.375 9.375 0.0 0 1 62.5 65.625 Z M112.5 84.375 A9.375 9.375 0.0 1 1 121.875 75.0 A9.375 9.375 0.0 0 1 112.5 84.375 Z"></path>
<path fill="#9bc9ff" fill-opacity="1.0"  filling="0" d="M96.875 118.75 A9.375 9.375 0.0 1 1 78.125 118.75 A9.375 9.375 0.0 1 1 96.875 118.75 Z"></path>
<path fill="#1e81ce" fill-opacity="1.0"  filling="0" d="M165.625 50.0 L143.75 50.0 L143.75 34.375 A28.071874618530273 28.071874618530273 0.0 0 0 101.5625 10.056251525878906 A28.071874618530273 28.071874618530273 0.0 0 0 59.375 34.375 L59.375 50.0 L34.375 50.0 A3.125 3.125 0.0 0 0 31.25 53.125 L31.25 178.125 A15.643750190734863 15.643750190734863 0.0 0 0 46.875 193.75 L153.125 193.75 A15.643750190734863 15.643750190734863 0.0 0 0 168.75 178.125 L168.75 53.125 A3.125 3.125 0.0 0 0 165.625 50.0 Z M115.625 12.5 A21.899999618530273 21.899999618530273 0.0 0 1 137.5 34.375 L137.5 50.0 L115.625 50.0 L115.625 34.375 A28.02812385559082 28.02812385559082 0.0 0 0 107.09062957763672 14.234375 A21.76875114440918 21.76875114440918 0.0 0 1 115.625 12.5 Z M101.5625 17.643753051757812 A21.831249237060547 21.831249237060547 0.0 0 1 109.375 34.375 L109.375 50.0 L93.75 50.0 L93.75 34.375 A21.831249237060547 21.831249237060547 0.0 0 1 101.5625 17.643753051757812 Z M65.625 34.375 A21.875 21.875 0.0 0 1 96.03437805175781 14.234375 A28.02812385559082 28.02812385559082 0.0 0 0 87.5 34.375 L87.5 50.0 L65.625 50.0 L65.625 34.375 Z M37.5 178.125 L37.5 56.25 L59.375 56.25 L59.375 62.94375228881836 A12.5 12.5 0.0 1 0 65.625 62.94375228881836 L65.625 56.25 L109.375 56.25 L109.375 62.94375228881836 A12.5 12.5 0.0 1 0 115.625 62.94375228881836 L115.625 56.25 L137.5 56.25 L137.5 178.125 A15.462499618530273 15.462499618530273 0.0 0 0 140.7062530517578 187.5 L46.875 187.5 A9.375 9.375 0.0 0 1 37.5 178.125 Z M62.5 78.125 A3.125 3.125 0.0 0 0 65.625 75.0 L65.625 69.6187515258789 A6.25 6.25 0.0 1 1 59.375 69.6187515258789 L59.375 75.0 A3.125 3.125 0.0 0 0 62.5 78.125 Z M112.5 78.125 A3.125 3.125 0.0 0 0 115.625 75.0 L115.625 69.6187515258789 A6.25 6.25 0.0 1 1 109.375 69.6187515258789 L109.375 75.0 A3.125 3.125 0.0 0 0 112.5 78.125 Z M162.5 178.125 A9.375 9.375 0.0 0 1 143.75 178.125 L143.75 56.25 L162.5 56.25 L162.5 178.125 Z"></path>
<path fill="#1e81ce" fill-opacity="1.0"  filling="0" d="M118.75 118.75 A31.25 31.25 0.0 0 0 56.25 118.75 C56.25 135.0 82.21562194824219 164.41250610351562 85.17500305175781 167.71249389648438 A3.125 3.125 0.0 0 0 89.82499694824219 167.71249389648438 C92.78437805175781 164.41250610351562 118.75 135.0 118.75 118.75 Z M62.5 118.75 A25.0 25.0 0.0 0 1 112.5 118.75 C112.5 129.44375610351562 96.1656265258789 150.74374389648438 87.5 160.87811279296875 C78.8343734741211 150.74374389648438 62.5 129.44375610351562 62.5 118.75 Z"></path>
<path fill="#1e81ce" fill-opacity="1.0"  filling="0" d="M87.5 106.25 A12.5 12.5 0.0 1 0 100.0 118.75 A12.5 12.5 0.0 0 0 87.5 106.25 Z M87.5 125.0 A6.25 6.25 0.0 1 1 93.75 118.75 A6.25 6.25 0.0 0 1 87.5 125.0 Z"></path>
<path fill="#1e81ce" fill-opacity="1.0"  filling="0" d="M121.875 168.75 L53.125 168.75 A3.125 3.125 0.0 0 0 53.125 175.0 L121.875 175.0 A3.125 3.125 0.0 0 0 121.875 168.75 Z"></path>
<path fill="#1e81ce" fill-opacity="1.0"  filling="0" d="M153.125 112.5 A3.125 3.125 0.0 0 0 156.25 109.375 L156.25 65.625 A3.125 3.125 0.0 0 0 150.0 65.625 L150.0 109.375 A3.125 3.125 0.0 0 0 153.125 112.5 Z"></path>
<path fill="#1e81ce" fill-opacity="1.0"  filling="0" d="M153.125 181.25 A3.125 3.125 0.0 0 0 156.25 178.125 L156.25 134.375 A3.125 3.125 0.0 0 0 150.0 134.375 L150.0 178.125 A3.125 3.125 0.0 0 0 153.125 181.25 Z"></path>
<path fill="#1e81ce" fill-opacity="1.0"  filling="0" d="M156.25 121.875 A3.125 3.125 0.0 1 1 150.0 121.875 A3.125 3.125 0.0 1 1 156.25 121.875 Z"></path></svg>