<svg xmlns="http://www.w3.org/2000/svg" viewBox="0.0 0.0 200.0 200.0" height="200.0px" width="200.0px"><path fill="#ffb431" fill-opacity="1.0"  filling="0" d="M189.66561889648438 87.23828125 L162.9597625732422 33.110939025878906 A8.73984432220459 8.73984432220459 0.0 0 0 151.0597686767578 29.111717224121094 L122.11327362060547 44.21875 L116.88945007324219 53.750003814697266 L106.32461547851562 52.457027435302734 L14.223045349121094 100.52265930175781 A9.231640815734863 9.231640815734863 0.0 0 0 10.334373474121094 112.76172637939453 L37.04023361206055 166.88906860351562 A8.740234375 8.740234375 0.0 0 0 48.94062423706055 170.88827514648438 L141.04217529296875 122.82304382324219 L146.26602172851562 113.29180145263672 L156.8308563232422 114.58477020263672 L185.77618408203125 99.478515625 A9.231249809265137 9.231249809265137 0.0 0 0 189.66561889648438 87.23828125 Z"></path>
<path fill="#348ed8" fill-opacity="1.0"  filling="0" d="M190.625 75.0 L190.625 137.5 A9.377344131469727 9.377344131469727 0.0 0 1 181.25 146.875 L146.875 146.875 L137.5 140.625 L128.125 146.875 L18.75 146.875 A9.377344131469727 9.377344131469727 0.0 0 1 9.375 137.5 L9.375 75.0 A9.377344131469727 9.377344131469727 0.0 0 1 18.75 65.625 L128.125 65.625 L137.5 71.875 L146.875 65.625 L181.25 65.625 A9.377344131469727 9.377344131469727 0.0 0 1 190.625 75.0 Z"></path>
<path fill="#266ba3" fill-opacity="1.0"  filling="0" d="M134.375 87.5 L140.625 87.5 L140.625 96.875 L134.375 96.875 L134.375 87.5 Z"></path>
<path fill="#266ba3" fill-opacity="1.0"  filling="0" d="M134.375 71.875 L140.625 71.875 L140.625 81.25 L134.375 81.25 L134.375 71.875 Z"></path>
<path fill="#266ba3" fill-opacity="1.0"  filling="0" d="M134.375 103.125 L140.625 103.125 L140.625 112.5 L134.375 112.5 L134.375 103.125 Z"></path>
<path fill="#266ba3" fill-opacity="1.0"  filling="0" d="M134.375 118.75 L140.625 118.75 L140.625 128.125 L134.375 128.125 L134.375 118.75 Z"></path>
<path fill="#266ba3" fill-opacity="1.0"  filling="0" d="M134.375 134.375 L140.625 134.375 L140.625 143.75 L134.375 143.75 L134.375 134.375 Z"></path>
<path fill="#ffb431" fill-opacity="1.0"  filling="0" d="M56.74609375 87.77734375 L60.390628814697266 99.21875 L48.660160064697266 101.78515625 L46.09375 113.515625 L34.65234375 109.87109375 L26.5625 118.75 L18.47265625 109.87109375 L9.375 112.76953125 L9.375 75.0 A9.377344131469727 9.377344131469727 0.0 0 1 18.75 65.625 L58.6484375 65.625 L56.74609375 71.59765625 L65.625 79.6875 L56.74609375 87.77734375 Z"></path>
<path fill="#fade8d" fill-opacity="1.0"  filling="0" d="M19.451950073242188 94.86406707763672 L35.072265625 76.1195297241211 L39.87187194824219 80.119140625 L24.251564025878906 98.8636703491211 L19.451950073242188 94.86406707763672 Z"></path>
<path fill="#fade8d" fill-opacity="1.0"  filling="0" d="M18.75 78.125 L25.0 78.125 L25.0 84.375 L18.75 84.375 L18.75 78.125 Z"></path>
<path fill="#fade8d" fill-opacity="1.0"  filling="0" d="M34.375 90.625 L40.625 90.625 L40.625 96.875 L34.375 96.875 L34.375 90.625 Z"></path>
<path fill="#266ba3" fill-opacity="1.0"  filling="0" d="M47.500003814697266 123.75 L52.499996185302734 120.0 L61.874996185302734 132.5 L56.875003814697266 136.25 L47.500003814697266 123.75 Z"></path>
<path fill="#266ba3" fill-opacity="1.0"  filling="0" d="M47.49843978881836 132.50665283203125 L56.873435974121094 120.00664520263672 L61.873435974121094 123.75663757324219 L52.498435974121094 136.2566375732422 L47.49843978881836 132.50665283203125 Z"></path>
<path fill="#266ba3" fill-opacity="1.0"  filling="0" d="M66.25 123.75 L71.25 120.0 L80.625 132.5 L75.625 136.25 L66.25 123.75 Z"></path>
<path fill="#266ba3" fill-opacity="1.0"  filling="0" d="M66.24922180175781 132.50701904296875 L75.62422180175781 120.00702667236328 L80.62421417236328 123.75702667236328 L71.24921417236328 136.25701904296875 L66.24922180175781 132.50701904296875 Z"></path>
<path fill="#266ba3" fill-opacity="1.0"  filling="0" d="M85.0 123.75 L90.0 120.0 L99.375 132.5 L94.375 136.25 L85.0 123.75 Z"></path>
<path fill="#266ba3" fill-opacity="1.0"  filling="0" d="M85.0 132.5078125 L94.375 120.0078125 L99.375 123.7578125 L90.0 136.2578125 L85.0 132.5078125 Z"></path>
<path fill="#266ba3" fill-opacity="1.0"  filling="0" d="M103.75 123.75 L108.75 120.0 L118.125 132.5 L113.125 136.25 L103.75 123.75 Z"></path>
<path fill="#266ba3" fill-opacity="1.0"  filling="0" d="M103.75039672851562 132.50820922851562 L113.12539672851562 120.00820922851562 L118.1253890991211 123.75820922851562 L108.7503890991211 136.25820922851562 L103.75039672851562 132.50820922851562 Z"></path>
<path fill="#2d7dbe" fill-opacity="1.0"  filling="0" d="M81.25 103.125 L118.75 103.125 L118.75 109.375 L81.25 109.375 L81.25 103.125 Z"></path>
<path fill="#2d7dbe" fill-opacity="1.0"  filling="0" d="M81.25 90.625 L118.75 90.625 L118.75 96.875 L81.25 96.875 L81.25 90.625 Z"></path>
<path fill="#2d7dbe" fill-opacity="1.0"  filling="0" d="M81.25 78.125 L93.75 78.125 L93.75 84.375 L81.25 84.375 L81.25 78.125 Z"></path>
<path fill="#2d7dbe" fill-opacity="1.0"  filling="0" d="M100.0 78.125 L118.75 78.125 L118.75 84.375 L100.0 84.375 L100.0 78.125 Z"></path>
<path fill="#2d7dbe" fill-opacity="1.0"  filling="0" d="M150.0 103.125 L178.125 103.125 L178.125 109.375 L150.0 109.375 L150.0 103.125 Z"></path>
<path fill="#2d7dbe" fill-opacity="1.0"  filling="0" d="M150.0 90.625 L178.125 90.625 L178.125 96.875 L150.0 96.875 L150.0 90.625 Z"></path>
<path fill="#2d7dbe" fill-opacity="1.0"  filling="0" d="M150.0 78.125 L178.125 78.125 L178.125 84.375 L150.0 84.375 L150.0 78.125 Z"></path>
<path fill="#2d7dbe" fill-opacity="1.0"  filling="0" d="M150.0 128.125 L178.125 128.125 L178.125 134.375 L150.0 134.375 L150.0 128.125 Z"></path>
<path fill="#2d7dbe" fill-opacity="1.0"  filling="0" d="M150.0 115.625 L178.125 115.625 L178.125 121.875 L150.0 121.875 L150.0 115.625 Z"></path>
<path fill="#fade8d" fill-opacity="1.0"  filling="0" d="M96.875 187.5 L103.125 187.5 L103.125 193.75 L96.875 193.75 L96.875 187.5 Z"></path>
<path fill="#fade8d" fill-opacity="1.0"  filling="0" d="M96.875 156.25 L103.125 156.25 L103.125 181.25 L96.875 181.25 L96.875 156.25 Z"></path>
<path fill="#fade8d" fill-opacity="1.0"  filling="0" d="M96.875 18.75 L103.125 18.75 L103.125 46.875 L96.875 46.875 L96.875 18.75 Z"></path>
<path fill="#fade8d" fill-opacity="1.0"  filling="0" d="M96.875 6.25 L103.125 6.25 L103.125 12.5 L96.875 12.5 L96.875 6.25 Z"></path>
<path fill="#fade8d" fill-opacity="1.0"  filling="0" d="M184.74374389648438 177.47540283203125 L188.83749389648438 172.75039672851562 L195.8671875 178.8410186767578 L191.7734375 183.56600952148438 L184.74374389648438 177.47540283203125 Z"></path>
<path fill="#fade8d" fill-opacity="1.0"  filling="0" d="M162.91757202148438 158.58087158203125 L167.01132202148438 153.85586547851562 L185.25390625 169.6613311767578 L181.16015625 174.38632202148438 L162.91757202148438 158.58087158203125 Z"></path>
<path fill="#fade8d" fill-opacity="1.0"  filling="0" d="M15.305862426757812 30.72069549560547 L19.39960479736328 25.995704650878906 L52.06875228881836 54.300392150878906 L47.97500228881836 59.025390625 L15.305862426757812 30.72069549560547 Z"></path>
<path fill="#fade8d" fill-opacity="1.0"  filling="0" d="M4.208984375 21.110939025878906 L8.302734375 16.385940551757812 L15.190628051757812 22.353904724121094 L11.096878051757812 27.078903198242188 L4.208984375 21.110939025878906 Z"></path>
<path fill="#fade8d" fill-opacity="1.0"  filling="0" d="M173.00350952148438 32.62617492675781 L191.76132202148438 16.374610900878906 L195.85507202148438 21.099609375 L177.09725952148438 37.351173400878906 L173.00350952148438 32.62617492675781 Z"></path>
<path fill="#fade8d" fill-opacity="1.0"  filling="0" d="M4.2218780517578125 178.9347686767578 L22.979690551757812 162.68319702148438 L27.073440551757812 167.408203125 L8.315620422363281 183.65975952148438 L4.2218780517578125 178.9347686767578 Z"></path>
<path fill="#fade8d" fill-opacity="1.0"  filling="0" d="M125.23945617675781 157.6105499267578 L130.8269500732422 154.81680297851562 L149.56797790527344 192.298828125 L143.98046875 195.09259033203125 L125.23945617675781 157.6105499267578 Z"></path>
<path fill="#fade8d" fill-opacity="1.0"  filling="0" d="M50.302345275878906 7.659759521484375 L55.88984680175781 4.8660125732421875 L80.87812805175781 54.841796875 L75.2906265258789 57.63554382324219 L50.302345275878906 7.659759521484375 Z"></path>
<path fill="#fade8d" fill-opacity="1.0"  filling="0" d="M50.24492263793945 192.32382202148438 L61.17695617675781 170.458984375 L66.76445770263672 173.25274658203125 L55.832420349121094 195.11758422851562 L50.24492263793945 192.32382202148438 Z"></path>
<path fill="#fade8d" fill-opacity="1.0"  filling="0" d="M134.6648406982422 23.651954650878906 L144.03515625 4.910545349121094 L149.62265014648438 7.704292297363281 L140.25233459472656 26.445701599121094 L134.6648406982422 23.651954650878906 Z"></path></svg>