<svg xmlns="http://www.w3.org/2000/svg" viewBox="0.0 0.0 200.0 200.0" height="200.0px" width="200.0px"><path fill="#463d43" fill-opacity="1.0"  filling="0" d="M90.0953140258789 28.595314025878906 C90.4164047241211 30.17890167236328 89.38671875 31.717971801757812 87.79219055175781 32.038673400878906 C86.2085952758789 32.34883117675781 84.6695327758789 31.319137573242188 84.34844207763672 29.735549926757812 C84.34844207763672 29.724609375 82.84257507324219 23.224998474121094 76.50898742675781 24.221092224121094 C71.537109375 25.018356323242188 67.93867492675781 25.140235900878906 64.8382797241211 24.287498474121094 C61.527339935302734 23.390625 59.025001525878906 21.497268676757812 56.42304229736328 18.308204650878906 C55.404300689697266 17.057029724121094 55.59257888793945 15.21875 56.84375 14.200004577636719 C58.09492492675781 13.181251525878906 59.933204650878906 13.369529724121094 60.95195388793945 14.620704650878906 C62.76797103881836 16.846481323242188 64.384765625 18.119918823242188 66.36640930175781 18.662498474121094 C68.5589828491211 19.260154724121094 71.42695617675781 19.116798400878906 75.5902328491211 18.462890625 C87.5374984741211 16.569923400878906 90.0843734741211 28.562110900878906 90.0953140258789 28.595314025878906 Z M45.150779724121094 129.5460968017578 C46.590232849121094 128.826171875 48.33984375 129.40196228027344 49.07070541381836 130.8527374267578 C49.79023361206055 132.2921905517578 49.203514099121094 134.0421905517578 47.764060974121094 134.76133728027344 L41.009765625 138.138671875 L44.829689025878906 165.24493408203125 C44.94062805175781 166.064453125 44.70780944824219 166.8835906982422 44.1875 167.51522827148438 L29.394134521484375 185.3976593017578 C28.364456176757812 186.6378936767578 26.515235900878906 186.81484985351562 25.275001525878906 185.78515625 C24.034759521484375 184.75546264648438 23.857810974121094 182.90625 24.88750457763672 181.666015625 L38.861328125 164.77969360351562 L34.93046569824219 136.865234375 C34.76445770263672 135.65859985351562 35.373435974121094 134.42929077148438 36.52499771118164 133.86444091796875 L45.150779724121094 129.5460968017578 Z M54.872657775878906 70.40625 C55.71406555175781 71.79023742675781 55.271095275878906 73.583984375 53.898048400878906 74.42578125 C52.525001525878906 75.267578125 50.72031021118164 74.83554077148438 49.87851333618164 73.451171875 L40.632808685302734 58.248435974121094 C39.97968292236328 57.16328048706055 40.10116958618164 55.82344055175781 40.85429763793945 54.89335632324219 L44.674217224121094 49.611717224121094 L32.195701599121094 36.777732849121094 C31.077346801757812 35.615234375 31.099609375 33.766021728515625 32.262107849121094 32.64765930175781 C33.413673400878906 31.518356323242188 35.26289367675781 31.540626525878906 36.392189025878906 32.703125 L50.56562423706055 47.296875 C51.54022979736328 48.28242111206055 51.68398666381836 49.86562728881836 50.84218978881836 51.02851486206055 L46.634769439697266 56.86406326293945 L54.872657775878906 70.40625 Z M45.87031555175781 86.041015625 C47.44258117675781 86.40625 48.428123474121094 87.978515625 48.062889099121094 89.55078125 C47.68632507324219 91.123046875 46.11406326293945 92.10859680175781 44.54180145263672 91.74336242675781 L36.879302978515625 89.9496078491211 L24.43359375 109.1832046508789 C23.957420349121094 109.9140625 23.182418823242188 110.40117645263672 22.307418823242188 110.50077819824219 L3.240234375 112.63789367675781 C1.634765625 112.81523895263672 0.1953125 111.6527328491211 0.01796722412109375 110.046875 C-0.15937042236328125 108.44139862060547 0.9921875 107.00194549560547 2.59765625 106.82461547851562 L20.292190551757812 104.84258270263672 L32.992576599121094 85.2105484008789 C33.61250305175781 84.0921859741211 34.908203125 83.48320007324219 36.214839935302734 83.78202819824219 L45.87031555175781 86.041015625 Z M152.20272827148438 134.76133728027344 C150.76329040527344 134.0417938232422 150.1765594482422 132.2921905517578 150.89608764648438 130.8527374267578 C151.6160125732422 129.40234375 153.37657165527344 128.826171875 154.81602478027344 129.5460968017578 L163.44180297851562 133.86444091796875 C164.56015014648438 134.41836547851562 165.2023468017578 135.625 165.0363311767578 136.865234375 L161.10546875 164.77969360351562 L175.0792999267578 181.666015625 C176.10897827148438 182.90625 175.93202209472656 184.75546264648438 174.69180297851562 185.78515625 C173.44061279296875 186.81484985351562 171.6023406982422 186.6378936767578 170.57264709472656 185.3976593017578 L155.779296875 167.51522827148438 C155.26992797851562 166.90585327148438 155.01522827148438 166.09765625 155.13711547851562 165.24493408203125 L158.95703125 138.138671875 L152.20272827148438 134.76133728027344 Z M150.0769500732422 73.451171875 C149.24649047851562 74.83515930175781 147.44140625 75.2671890258789 146.06875610351562 74.42578125 C144.6847686767578 73.58438110351562 144.2527313232422 71.79023742675781 145.09414672851562 70.40625 L153.33242797851562 56.86406326293945 L149.125 51.02851486206055 C148.3054656982422 49.88788986206055 148.416015625 48.3046875 149.40155029296875 47.296875 L163.57461547851562 32.703125 C164.7042999267578 31.54022979736328 166.55313110351562 31.518356323242188 167.70468139648438 32.64765930175781 C168.86758422851562 33.766021728515625 168.8894500732422 35.615234375 167.76016235351562 36.777732849121094 L155.2921905517578 49.611328125 L159.1125030517578 54.892967224121094 C159.86563110351562 55.82304763793945 159.9871063232422 57.16289138793945 159.333984375 58.248050689697266 L150.0769500732422 73.451171875 Z M155.4250030517578 91.74336242675781 C153.84141540527344 92.1089859008789 152.26913452148438 91.1234359741211 151.90390014648438 89.55078125 C151.53866577148438 87.978515625 152.52383422851562 86.40625 154.0964813232422 86.041015625 L163.751953125 83.78202819824219 C165.04727172851562 83.48320007324219 166.35430908203125 84.0921859741211 166.97421264648438 85.2105484008789 L179.67462158203125 104.84258270263672 L197.39102172851562 106.82461547851562 C198.99649047851562 107.00194549560547 200.1589813232422 108.45234680175781 199.98202514648438 110.05780792236328 C199.80508422851562 111.66328430175781 198.3542938232422 112.8148422241211 196.7488250732422 112.63749694824219 L177.6925811767578 110.50039672851562 C176.8175811767578 110.40078735351562 176.0207061767578 109.935546875 175.533203125 109.18280792236328 L163.08749389648438 89.94921875 L155.4250030517578 91.74336242675781 Z M115.61836242675781 29.735549926757812 C115.29727172851562 31.319137573242188 113.75820922851562 32.34883117675781 112.17460632324219 32.038673400878906 C110.580078125 31.717575073242188 109.5503921508789 30.17852020263672 109.8714828491211 28.595314025878906 C109.8714828491211 28.562110900878906 112.4292984008789 16.5703125 124.36563110351562 18.463668823242188 C128.52890014648438 19.1171875 131.40780639648438 19.260940551757812 133.6003875732422 18.663284301757812 C135.58242797851562 18.120704650878906 137.19921875 16.847267150878906 139.01522827148438 14.621482849121094 C140.0339813232422 13.370307922363281 141.8718719482422 13.182029724121094 143.123046875 14.200782775878906 C144.37460327148438 15.219535827636719 144.56289672851562 17.057418823242188 143.54412841796875 18.308982849121094 C140.93084716796875 21.498046875 138.439453125 23.39141082763672 135.12890625 24.288284301757812 C132.0285186767578 25.141014099121094 128.43008422851562 25.019142150878906 123.45820617675781 24.22187042236328 C117.12422180175781 23.224998474121094 115.61836242675781 29.724609375 115.61836242675781 29.735549926757812 Z"></path>
<path fill="#fc636e" fill-opacity="1.0"  filling="0" d="M99.98358917236328 174.28045654296875 C68.23750305175781 173.93710327148438 42.60390853881836 144.62734985351562 42.60390853881836 108.53008270263672 C42.60390853881836 93.49336242675781 46.98905944824219 79.60781860351562 54.51836013793945 68.57929992675781 C59.81875228881836 60.801170349121094 64.51679992675781 60.82070541381836 70.90547180175781 60.84726333618164 C71.2835922241211 60.84882736206055 71.66757202148438 60.85038757324219 72.05781555175781 60.85038757324219 L127.90937805175781 60.85038757324219 C128.2996063232422 60.85038757324219 128.68359375 60.84882736206055 129.0617218017578 60.84726333618164 C135.45037841796875 60.82070541381836 140.1484375 60.801170349121094 145.44882202148438 68.57929992675781 C152.97811889648438 79.60781860351562 157.36328125 93.49336242675781 157.36328125 108.53008270263672 C157.36288452148438 144.62734985351562 131.7179718017578 173.93710327148438 99.98358917236328 174.28045654296875 Z"></path>
<path fill="#da4a54" fill-opacity="1.0"  filling="0" d="M99.98358917236328 174.28045654296875 C98.33358764648438 174.25820922851562 96.70585632324219 174.15859985351562 95.10038757324219 173.99258422851562 C124.5433578491211 170.88125610351562 147.59686279296875 142.75625610351562 147.59686279296875 108.5296859741211 C147.59686279296875 93.49296569824219 143.21209716796875 79.607421875 135.68280029296875 68.57890319824219 C130.98789978027344 61.68046569824219 126.7578125 60.916404724121094 121.40975952148438 60.849998474121094 L127.90937805175781 60.849998474121094 C128.2996063232422 60.849998474121094 128.68359375 60.84843826293945 129.0617218017578 60.84687805175781 C135.45037841796875 60.8203125 140.1484375 60.800777435302734 145.44882202148438 68.57890319824219 C152.97811889648438 79.607421875 157.36328125 93.49296569824219 157.36328125 108.5296859741211 C157.36288452148438 144.62734985351562 131.7179718017578 173.93710327148438 99.98358917236328 174.28045654296875 Z"></path>
<path fill="#d94650" fill-opacity="1.0"  filling="0" d="M99.98358917236328 174.28045654296875 C98.998046875 174.26953125 98.0234375 174.22500610351562 97.0492172241211 174.15859985351562 L97.0492172241211 62.345314025878906 L99.98358917236328 62.345314025878906 L102.90664672851562 62.345314025878906 L102.90664672851562 174.1589813232422 C101.943359375 174.22500610351562 100.9691390991211 174.26913452148438 99.98358917236328 174.28045654296875 Z"></path>
<path fill="#463d43" fill-opacity="1.0"  filling="0" d="M119.4164047241211 34.17578125 C131.109375 39.468753814697266 138.9597625732422 49.62265396118164 138.9597625732422 62.345314025878906 L61.00703048706055 62.345314025878906 C61.00703048706055 49.62265396118164 68.8578109741211 39.468753814697266 80.55078125 34.17578125 C82.3890609741211 29.29296875 90.39453125 25.627731323242188 99.98358917236328 25.627731323242188 C109.57266235351562 25.627731323242188 117.56718444824219 29.292579650878906 119.4164047241211 34.17578125 Z"></path>
<path fill="#463d43" fill-opacity="1.0"  filling="0" d="M99.98358917236328 100.28046417236328 C92.9742202758789 100.28046417236328 87.2718734741211 94.5667953491211 87.2718734741211 87.56913757324219 C87.2718734741211 80.55976867675781 92.974609375 74.84648132324219 99.98358917236328 74.84648132324219 C106.98163604736328 74.84648132324219 112.69491577148438 80.56015014648438 112.69491577148438 87.56913757324219 C112.69491577148438 94.5667953491211 106.98163604736328 100.28046417236328 99.98358917236328 100.28046417236328 Z"></path>
<path fill="#463d43" fill-opacity="1.0"  filling="0" d="M132.4269561767578 123.05742645263672 C125.4175796508789 123.05742645263672 119.71524047851562 117.34375 119.71524047851562 110.3460922241211 C119.71524047851562 103.33671569824219 125.41796875 97.6343765258789 132.4269561767578 97.6343765258789 C139.42538452148438 97.6343765258789 145.138671875 103.33711242675781 145.138671875 110.3460922241211 C145.138671875 117.3441390991211 139.4250030517578 123.05742645263672 132.4269561767578 123.05742645263672 Z"></path>
<path fill="#463d43" fill-opacity="1.0"  filling="0" d="M67.53984069824219 123.05742645263672 C60.54179763793945 123.05742645263672 54.828514099121094 117.34375 54.828514099121094 110.3460922241211 C54.828514099121094 103.33671569824219 60.54179763793945 97.6343765258789 67.53984069824219 97.6343765258789 C74.53788757324219 97.6343765258789 80.2515640258789 103.33711242675781 80.2515640258789 110.3460922241211 C80.2515640258789 117.3441390991211 74.53788757324219 123.05742645263672 67.53984069824219 123.05742645263672 Z"></path>
<path fill="#463d43" fill-opacity="1.0"  filling="0" d="M129.27108764648438 137.130859375 C132.33828735351562 140.18710327148438 131.39727783203125 146.0890655517578 127.17811584472656 150.3078155517578 C122.9593734741211 154.5261688232422 117.05741882324219 155.46759033203125 114.00155639648438 152.400390625 C110.93437957763672 149.3445281982422 111.86444854736328 143.43124389648438 116.08320617675781 139.21249389648438 C120.30194854736328 134.99375915527344 126.21483612060547 134.0636749267578 129.27108764648438 137.130859375 Z"></path>
<path fill="#463d43" fill-opacity="1.0"  filling="0" d="M70.6957015991211 137.130859375 C73.751953125 134.0636749267578 79.6539077758789 134.99375915527344 83.87226867675781 139.21249389648438 C88.09101867675781 143.43124389648438 89.03242492675781 149.3445281982422 85.96484375 152.400390625 C82.9085922241211 155.46759033203125 76.99609375 154.5261688232422 72.7769546508789 150.3078155517578 C68.55859375 146.0890655517578 67.62890625 140.18710327148438 70.6957015991211 137.130859375 Z"></path>
<path fill="#40363d" fill-opacity="1.0"  filling="0" d="M109.6500015258789 34.17578125 C108.1328125 30.15625 102.43046569824219 26.95624542236328 95.099609375 25.959373474121094 C96.66093444824219 25.749221801757812 98.29961395263672 25.627342224121094 99.9828109741211 25.627342224121094 C103.75859832763672 25.627342224121094 107.28007507324219 26.203125 110.29179382324219 27.18866729736328 C112.3402328491211 27.853126525878906 114.1449203491211 28.728126525878906 115.61796569824219 29.735549926757812 C117.46719360351562 31.02031707763672 118.79609680175781 32.525779724121094 119.41600799560547 34.17578125 C131.1085968017578 39.468753814697266 138.95938110351562 49.62265396118164 138.95938110351562 62.345314025878906 L129.193359375 62.345314025878906 C129.193359375 61.84687805175781 129.1824188232422 61.337501525878906 129.16015625 60.85038757324219 C128.56210327148438 48.82538986206055 120.87773132324219 39.25820541381836 109.6500015258789 34.17578125 Z"></path></svg>