<?xml version='1.0' encoding='utf-8'?>
<svg xmlns:svg="http://www.w3.org/2000/svg" version="1.1" id="Layer_1" x="0px" y="0px" viewBox="0 0 500 500" style="width: 188px;" xml:space="preserve" data-imageid="fast-food-1-79-f48e6" imageName="Fast Food 1" class="illustrations_image"><svg:style type="text/css">
	.st0_fast-food-1-79-f48e6{fill:#FFFFFF;}
	.st1_fast-food-1-79-f48e6{fill:#093F68;}
	.st2_fast-food-1-79-f48e6{fill:#68E1FD;}
	.st3_fast-food-1-79-f48e6{fill:#FFBC0E;}
	.st4_fast-food-1-79-f48e6{fill:#F56132;}
</svg:style><svg:path x="155.1" y="142.2" transform="matrix(1 -3.316120e-03 3.316120e-03 1 -0.621 0.5496)" class="st3_fast-food-1-79-f48e6" width="20.7" height="90.8" id="element_496" d="M 173.32121509383722 150.15323927919573 L 173.31515448777662 148.39566352161998 L 173.3121241847463 147.51687564283213 L 173.30172116528826 144.5 L 157.30172711057384 144.5 L 157.31211823949613 147.5134273874709 L 157.31514854252646 148.39221526625877 L 157.33636066373856 154.54373041777393 L 157.3373881709511 154.84170750940996 L 157.70144932936805 154.80282719152078 L 157.9095301374488 154.78060496929857 L 158.32569175361047 154.7361605248541 L 158.53377256169122 154.7139383026319 L 158.7418533697721 154.69171608040966 L 158.94993417785284 154.66949385818745 L 159.3660957940145 154.625049413743 L 159.57417660209526 154.6028271915208 L 159.99033821825694 154.55838274707634 L 160.1984190263377 154.53616052485413 L 160.40649983441855 154.51393830263189 L 160.6145806424993 154.49171608040967 L 161.03074225866098 154.44727163596522 L 161.23882306674173 154.425049413743 L 161.4261826432132 154.40504013858586 L 161.44081001616345 154.4023790965869 L 161.44651527929628 154.40137529173248 L 161.46166483628852 154.39880020920637 L 161.4673624635469 154.39786555594588 L 161.48251016544083 154.39547041795234 L 161.48819810606798 154.3946045606537 L 161.50334333449757 154.39238813046052 L 161.5090195756607 154.39159064596072 L 161.52416171225983 154.38955168683577 L 161.52982428216302 154.38882208666874 L 161.5449627085656 154.38695936187978 L 161.55060967939613 154.3862970946489 L 161.56574377723607 154.38460936746378 L 161.571373267883 154.38401382135152 L 161.5865024187942 154.38249985503805 L 161.59211259737873 154.38197036043152 L 161.60723618299514 154.38062891825751 L 161.61282526918887 154.38016475047806 L 161.62794267114435 154.37899459571133 L 161.6335089382692 154.37859497783217 L 161.64861953819766 154.37759487374052 L 161.65416131511847 154.37725897947698 L 161.66926449465385 154.37642768932827 L 161.67478016744667 154.3761546459863 L 161.68987530822287 154.37549093304835 L 161.69536332163543 154.37527982451599 L 161.71044980528634 154.37478245205656 L 161.71590866399035 154.37463232182412 L 161.7309858721499 154.37430005311109 L 161.73641414176893 154.3742099073072 L 161.75148145607102 154.37404150560835 L 161.75687776401975 154.37401031603727 L 161.77193456609828 154.37400454462042 L 161.77729760220973 154.3740312517889 L 161.79234327369863 154.37418687392184 L 161.79767179066718 154.37427039004322 L 161.81270571320033 154.37458616899386 L 161.8179985268204 154.37472538095824 L 161.8330200820317 154.3752000799943 L 161.8382760712834 154.37539385229468 L 161.8532846408068 154.37602623468402 L 161.85850274774035 154.37627341228784 L 161.87349771320976 154.3770622412983 L 161.8786769426839 154.37736165245667 L 161.89365768573322 154.37830569135602 L 161.89879710499577 154.3786561503421 L 161.9137630072589 154.37975416239817 L 161.91886174537737 154.38015447216716 L 161.9338121884882 154.3814052206478 L 161.93886943564613 154.38185417541285 L 161.9538038012386 154.38325642358583 L 161.95881880790918 154.38375281130442 L 161.97373647761717 154.38530532243757 L 161.97870855361364 154.38584792720286 L 161.9936089090711 154.38754946456405 L 161.99853742248996 154.38813706889744 L 162.01341984533076 154.38998639575442 L 162.01830422140722 154.3906177827979 L 162.03316809326526 154.3926136624185 L 162.03800781312688 154.39328761802113 L 162.05285251563612 154.3954288136732 L 162.0576471149868 154.39614412837278 L 162.0724720297811 154.39842940332412 L 162.07722109751026 154.39918487422125 L 162.09202560622356 154.40161299173965 L 162.0967287829616 154.40240742426522 L 162.1115122672278 154.40497714761855 L 162.11616924383688 154.40580935719174 L 162.1309310852899 154.40851944964777 L 162.13554160132932 154.40938826323034 L 162.15028118160302 154.41223748805692 L 162.15484502373675 154.41314174559767 L 162.1695617244651 154.4161288660626 L 162.17407872486228 154.41706742184138 L 162.18877192767914 154.4201912012125 L 162.1932419623731 154.42116292507785 L 162.2079110489124 154.42442212662294 L 162.21233403616588 154.42542590513347 L 162.22697838806153 154.42881929212035 L 162.231354286707 154.42985402958504 L 162.2459732855929 154.43338036528158 L 162.25030209337478 154.4344449847058 L 162.2648951208849 154.43810303237976 L 162.26917687281681 154.4391964763223 L 162.28374331058495 154.44298499924153 L 162.2879780772948 154.44410623057772 L 162.30251730695494 154.44802399201004 L 162.30670519305957 154.44917199461366 L 162.32121659624562 154.45321775782685 L 162.3253577387424 154.45439153717035 L 162.33984069708822 154.45856406543226 L 162.34393526375274 154.45976264910456 L 162.3583891588923 154.464060705683 L 162.36243734671854 154.46528314383755 L 162.37686156028568 154.46970549200032 L 162.3808635939481 154.4709508577306 L 162.39525750757682 154.47549626074556 L 162.39921363791532 154.4767636503914 L 162.41357663323944 154.48143087152633 L 162.4174871357928 154.48271940492123 L 162.43181859444627 154.48750720744397 L 162.43568376800442 154.48881602809766 L 162.44998307162115 154.493723175276 L 162.4538032368338 154.49505145050725 L 162.4680697670477 154.50007670560905 L 162.47184526504773 154.50142362661816 L 162.48607840349268 154.5065657529112 L 162.48980959458393 154.50793053481172 L 162.50400872289387 154.5131882955638 L 162.50769598526782 154.514570177365 L 162.52186048507662 154.51994233584398 L 162.52550421356312 154.5213405803881 L 162.53963346650474 154.52682589986182 L 162.54323407138426 154.52823979372988 L 162.5573274590926 154.53383703746607 L 162.56088536494153 154.53526589084439 L 162.57494226905047 154.54097382211094 L 162.57845791362013 154.5424169686215 L 162.5924777157636 154.54823435068622 L 162.5959515489208 154.54969114719458 L 162.60993363073268 154.55561674332526 L 162.61336611343012 154.5570865697169 L 162.62730985654434 154.56311914318135 L 162.63070145983775 154.56460140211522 L 162.64460624588824 154.5707397161813 L 162.64795744999526 154.57223383282164 L 162.6618226606159 154.57847665075712 L 162.66513395401915 154.5799820724879 L 162.67895897084387 154.58632815756064 L 162.68223084942764 154.58784435367906 L 162.6960150540903 154.59429246915687 L 162.69924802032745 154.59581893055747 L 162.71299079446203 154.60236783970817 L 162.71618535663427 154.60390407855138 L 162.72988608187464 154.61055254464276 L 162.73304275333282 154.61209809401353 L 162.74670081131288 154.61884488031342 L 162.74982010977467 154.62039929387097 L 162.76343488212837 154.62724316364722 L 162.7665173290125 154.62880601526786 L 162.7800881973737 154.63574573178823 L 162.7831343171741 154.6373166152047 L 162.7966606631767 154.64435094173703 L 162.7996709828642 154.6459294701705 L 162.81315218814217 154.65305716998262 L 162.81612723660737 154.65464297577623 L 162.82956268279457 154.66186281213595 L 162.8325029903155 154.6634555463829 L 162.84589205904587 154.67076628255802 L 162.84879815679733 154.67236561473544 L 162.86214022970475 154.67976601399383 L 162.86501264928495 154.68137163159062 L 162.87830710800336 154.68886045720004 L 162.8811463810069 154.69047206535666 L 162.89439260717015 154.69804808058495 L 162.89719926476957 154.6996654017252 L 162.91039664001164 154.70732736984021 L 162.9131712125829 154.7089501433169 L 162.92631911853766 154.7166968275864 L 162.92906213530523 154.71832480932827 L 162.94215995360662 154.7261549730201 L 162.94487194230842 154.72778793518148 L 162.9579190545903 154.73570034156342 L 162.96060054117837 154.73733807218738 L 162.9735963290747 154.7453314845273 L 162.97624783742782 154.74697378720919 L 162.98919168257245 154.75504696877488 L 162.99181373423534 154.75669366233646 L 163.0047050182622 154.76484537639573 L 163.00729813220897 154.7664962945694 L 163.02013623675202 154.7747253043901 L 163.02270092916362 154.77638029550843 L 163.0354852358567 154.78468536435835 L 163.03802201991857 154.786344291053 L 163.05075191039563 154.79472418219996 L 163.05326129612104 154.79638692111521 L 163.06593615201598 154.80484039782704 L 163.0684186460733 154.80650683933473 L 163.08103784902002 154.81503266487923 L 163.08349395458936 154.8167027128119 L 163.09605688622176 154.82529965045688 L 163.098487102858 154.82697322184586 L 163.11099314481004 154.83564003485918 L 163.11339796832797 154.83731705968816 L 163.1258465022335 154.8460525113376 L 163.12822642459892 154.84773293230168 L 163.14061683209187 154.85653578585507 L 163.14297234133468 154.85821955813716 L 163.15530400404896 154.86708857686233 L 163.15763558418035 154.8687756679152 L 163.1699078837499 154.87770961507994 L 163.1722160147006 154.8794000044264 L 163.18442833275927 154.88839764329856 L 163.1867134903157 154.89009132233372 L 163.1988652084974 154.89915141618107 L 163.19875365790574 154.89930103177844 L 163.20225149395216 154.90169856339244 L 163.21431159089136 154.91085038154336 L 163.21876388448302 154.91426856109103 L 163.23070216330223 154.92354096062974 L 163.2350811164353 154.92698133749775 L 163.24689819550065 154.93637246332597 L 163.25120352231986 154.93983291236788 L 163.26290001999737 154.94934090938736 L 163.26713152560626 154.95281933732264 L 163.27870806026206 154.96244235043508 L 163.28286563773915 154.9659366992302 L 163.29432282773934 154.97567287333737 L 163.29840645498973 154.9791811233105 L 163.3097449187004 154.98902860331407 L 163.3137546551897 154.99254877598042 L 163.32497501097694 155.00250570678216 L 163.32891099434855 155.00603586742483 L 163.34001386057847 155.01610039392648 L 163.34387630319557 155.01963865391076 L 163.3548622982342 155.029808921014 L 163.35865148365139 155.03335343983608 L 163.36952122586487 155.04362759244262 L 163.37323750526383 155.04717657953157 L 163.38399161301825 155.0575527625432 L 163.3876354016053 155.06110447880278 L 163.39827449326674 155.0715808371212 L 163.4018462666763 155.0751335962449 L 163.41237096061084 155.08570827477186 L 163.41587125130746 155.08926044431664 L 163.42628216588122 155.0999315879538 L 163.4297115595948 155.10348159020148 L 163.44000931317387 155.11424734385062 L 163.44336844536159 155.11779365644637 L 163.453553656312 155.12865216500919 L 163.45684320867844 155.13219332140682 L 163.46691649536635 155.14314272978507 L 163.4701371924436 155.14667731950024 L 163.4800991732351 155.15771577259562 L 163.48325177903658 155.1612424412823 L 163.4931030722977 155.17236808399656 L 163.49618838704424 155.17588553334645 L 163.50592961114117 155.18709651058128 L 163.50894846809314 155.19060349808657 L 163.51858024139187 155.20189795474374 L 163.52153350375525 155.20539329329108 L 163.53105644462192 155.2167693742723 L 163.53394500257528 155.22025193162614 L 163.543359729376 155.23170778183314 L 163.5461844971926 155.23517647998503 L 163.55549162829342 155.24671024431953 L 163.55825354157489 155.25016405872907 L 163.56745369534192 155.2617738820928 L 163.57015370836737 155.26521184083174 L 163.5792475031667 155.27689586812642 L 163.58188658635342 155.28031705092963 L 163.59087464055114 155.292073427057 L 163.59345377803157 155.29547696429432 L 163.6023367099938 155.30730383415607 L 163.6048568973164 155.31068890574403 L 163.61363532540918 155.32258441424193 L 163.61609756733807 155.3259502484711 L 163.62477210992753 155.33791254050684 L 163.62717741838182 155.34125841284919 L 163.63574869383402 155.35328563332453 L 163.63809808591904 155.35661086516606 L 163.6465667126001 155.3687011589827 L 163.64886120877068 155.37200511634612 L 163.65722780504666 155.3841566284058 L 163.6594684273647 155.38743872062093 L 163.6677336116017 155.39964959582537 L 163.66992138211796 155.40290927419974 L 163.67808577268212 155.4151776574507 L 163.68022171191166 155.41841441390633 L 163.688285927169 155.43073845010548 L 163.69037105267589 155.43395181581522 L 163.69833571099255 155.4463296498643 L 163.7003710360746 155.44951919388353 L 163.70823675581667 155.4619489706843 L 163.7102232882831 155.46511429857753 L 163.71799068781664 155.47759416303168 L 163.71992942886243 155.48073491551 L 163.72759912655357 155.49326301251926 L 163.72949106972268 155.4963788640852 L 163.73706368393746 155.50895333855132 L 163.73890981416685 155.5120439961483 L 163.7463859632714 155.52466299297296 L 163.7481872560281 155.5277281946686 L 163.75556755838852 155.5403898587536 L 163.75732497887358 155.54342937242282 L 163.76461005285594 155.55613184866985 L 163.7663245552895 155.55914547070964 L 163.77351501925986 155.5718869040204 L 163.77518754623557 155.57487445808582 L 163.7822840185601 155.58765299336204 L 163.78391550046976 155.59061432913276 L 163.79091859951447 155.6034281112762 L 163.79250995402887 155.6063631032369 L 163.7994202981599 155.61921027714928 L 163.80097242977993 155.62211882341663 L 163.80779063736338 155.63499753399967 L 163.80930443702124 155.6378795551677 L 163.81603112642316 155.6507879473231 L 163.81750747113736 155.65364338533936 L 163.82414326072387 155.66657960396887 L 163.82558301330894 155.66940842105112 L 163.83212852144612 155.68237061105648 L 163.83353253026297 155.68517278862942 L 163.83998837531692 155.6981590949123 L 163.84135747407421 155.70093463259056 L 163.84772427441104 155.71394320005277 L 163.84905928200152 155.71669211464467 L 163.85533765598726 155.72972108818786 L 163.8566393763652 155.73244341273804 L 163.86282994236598 155.74549093726398 L 163.86409916446064 155.74818672012992 L 163.87020254084257 155.76125094054035 L 163.87144003850352 155.76392024449913 L 163.87745684363267 155.7769993056957 L 163.8786633756067 155.77964220708606 L 163.88459422784913 155.7927342539706 L 163.88577053778096 155.79535084185764 L 163.89161605550282 155.80845401933178 L 163.89276287197197 155.81104439472546 L 163.8985236735393 155.824156847691 L 163.89964171010564 155.82672112276316 L 163.9053184138846 155.83984099612178 L 163.90640836917308 155.84237929349231 L 163.91200159352968 155.85550473214576 L 163.9130641513172 155.85801718415863 L 163.9185745146176 155.87114633300862 L 163.91961034395408 155.8736330810747 L 163.92503846456432 155.88676408502295 L 163.9260482198981 155.88922527896293 L 163.9313947161843 155.9023562829112 L 163.93237903750824 155.90479208034105 L 163.93764452783648 155.91792122919105 L 163.93860404084742 155.92033179493393 L 163.94378914358379 155.93345723358738 L 163.9447244598507 155.93584273910503 L 163.9498297933613 155.94896261246365 L 163.9507415105069 155.95132323532002 L 163.95576769315784 155.96443568828556 L 163.95665639504966 155.96677161163578 L 163.96160404520697 155.9798747891099 L 163.96247030215233 155.98218620120178 L 163.96734003818216 155.99527824808632 L 163.96818440713702 155.9975653418032 L 163.97297684740542 156.0106444029998 L 163.97379987218346 156.01290737540953 L 163.97851563505657 156.02597159581995 L 163.97931784654727 156.02821064775583 L 163.98395755039112 156.04125817228177 L 163.9847394667786 156.0434735079345 L 163.98930372995935 156.05650248147768 L 163.99006585695122 156.05869430802505 L 163.9945552978349 156.07170287548726 L 163.99529812888323 156.0738714027126 L 163.99971336583596 156.0868577089955 L 164.0004373823726 156.08900314895948 L 164.00477903376049 156.10196533896482 L 164.00548470542532 156.1040879056703 L 164.00975338961442 156.11702412429983 L 164.01044117448666 156.1191240333791 L 164.01463750984308 156.1320324255345 L 164.01530785467585 156.1341098939615 L 164.01943245956568 156.14698860454453 L 164.02008580001524 156.14904385034598 L 164.0241392928046 156.16189102425832 L 164.0247760536659 156.1639242662613 L 164.02875905272083 156.17673804840473 L 164.0293796481537 156.17874950597087 L 164.03329277184034 156.19152804124712 L 164.0338976056033 156.19351793404846 L 164.03774147228768 156.20625936735922 L 164.0383309379621 156.2082279151415 L 164.04210616601034 156.2209303913885 L 164.0426806472294 156.22287781376656 L 164.04638785500762 156.23553947785155 L 164.04694772567873 156.23746599410376 L 164.050587531553 156.25008499092846 L 164.0511331560774 156.25199081979846 L 164.05470617841385 156.26456529426457 L 164.0552379119099 156.26645065379518 L 164.05874476907454 156.27897875080444 L 164.0592629575877 156.28084385814554 L 164.06270426794666 156.2933237225997 L 164.06320924866668 156.29516879385957 L 164.06658563058608 156.30759857066033 L 164.06707773205525 156.3094238207449 L 164.07038980390115 156.321801654794 L 164.07086934622018 156.32360729725784 L 164.07411772635865 156.33593133345698 L 164.07458502138928 156.3377175803603 L 164.0777703281865 156.34998596361126 L 164.07822567975347 156.35175302539588 L 164.08134853157543 156.3639639006003 L 164.0817922356586 156.3657119859461 L 164.08485325087145 156.37786349800578 L 164.09719198867782 156.44708377947552 L 164.1941616856475 157.35819489058667 L 164.209254025452 157.5 L 166.5 157.5 L 166.5 170.29999999999998 L 173.39068668252963 170.29999999999998 L 173.3878817605039 169.48657261252907 L 173.3757605483827 165.97142109737757 L 173.37273024535236 165.0926332185897 L 173.34545751807966 157.1835423094988 L 173.34242721504933 156.30475443071094 L 173.33939691201903 155.42596655192304 L 173.33636660898873 154.54717867313514 L 173.32424539686752 151.03202715798363 L 173.32121509383722 150.15323927919573 Z" /></svg>