<?xml version='1.0' encoding='utf-8'?>
<svg xmlns:svg="http://www.w3.org/2000/svg" version="1.1" id="Layer_1" x="0px" y="0px" viewBox="0 0 500 500" style="width: 188px;" xml:space="preserve" data-imageid="fast-food-1-79-f48e6" imageName="Fast Food 1" class="illustrations_image"><svg:style type="text/css">
	.st0_fast-food-1-79-f48e6{fill:#FFFFFF;}
	.st1_fast-food-1-79-f48e6{fill:#093F68;}
	.st2_fast-food-1-79-f48e6{fill:#68E1FD;}
	.st3_fast-food-1-79-f48e6{fill:#FFBC0E;}
	.st4_fast-food-1-79-f48e6{fill:#F56132;}
</svg:style><svg:path x="144.7" y="183.1" transform="matrix(0.1031 -0.9947 0.9947 0.1031 -21.9818 362.6056)" class="st3_fast-food-1-79-f48e6" width="90.8" height="20.7" id="element_502" d="M 144.7 183.1 L 144.7 185.48213135210358 L 145.0168399489999 185.4406037859725 L 145.22492075708075 185.4133310586998 L 146.47340560556555 185.24969469506343 L 146.6814864136464 185.22242196779072 L 148.138052070212 185.0315128768816 L 148.34613287829288 185.0042401496089 L 149.80269853485848 184.8133310586998 L 150.01077934293934 184.78605833142709 L 150.6350217671817 184.7042401496089 L 150.65417812207892 184.70210407161358 L 150.68444992489435 184.69931812625035 L 150.6923225100063 184.69865628348555 L 150.72252938438214 184.69635699223613 L 150.73040985228926 184.6958197165586 L 150.76054808802894 184.6940039875926 L 150.76843323899953 184.6935913922267 L 150.79849912590657 184.69225613371358 L 150.8063858003032 184.69196822190213 L 150.83637562818097 184.69111034201148 L 150.84426071190003 184.69094701037244 L 150.87417077055207 184.69056341727384 L 150.88205120014572 184.69052445945638 L 150.91187777937543 184.6906120613193 L 150.91975054683596 184.69069717193267 L 150.94948993644678 184.69125287692668 L 150.9573520936278 184.6914616557126 L 150.98700058342322 184.69248237200728 L 150.99484924609496 184.69281432822643 L 151.0244031258784 184.6942969639913 L 151.03223547740902 184.69475152099406 L 151.06169103698394 184.69669298439862 L 151.0695043316356 184.69726948435033 L 151.0988578608055 184.6996666835642 L 151.1066494266378 184.70036439229406 L 151.13589721520606 184.7032142354867 L 151.1436644566049 184.70403234743299 L 151.17280279437503 184.70733174277402 L 151.18054319417885 184.70826938599384 L 151.20956837095426 184.71201524165278 L 151.2172794922107 184.71307148287138 L 151.24618779779485 184.71726070701774 L 151.2538672851358 184.71843455668807 L 151.2826550093322 184.72306405749143 L 151.29030058997895 184.7243544748389 L 151.31896402259096 184.72942116046877 L 151.32657350700634 184.73082705849723 L 151.35510893783746 184.7363278371232 L 151.36268022002517 184.73784808755752 L 151.39108393887884 184.7437798673491 L 151.39861499635788 184.74541330549496 L 151.42688329303755 184.75177299462172 L 151.43437218648776 184.75351842411928 L 151.4625013507969 184.76030293075073 L 151.46994622341091 184.7621591282077 L 151.497932545153 184.76936536051343 L 151.50533162169305 184.77133107999674 L 151.53317139067147 184.77895594614625 L 151.5405229762626 184.78102992352063 L 151.56821248228084 184.78907033168346 L 151.5755149609512 184.79125128878195 L 151.60305049381273 184.7997041471277 L 151.61030232679315 184.8019907957401 L 151.6376801763014 184.81085301243823 L 151.64487990012307 184.81324405811412 L 151.67209635608148 184.82251254133425 L 151.67924258046048 184.8250066869817 L 151.70629393267254 184.83467834489335 L 151.71338533822842 184.83727429417664 L 151.74026787649757 184.8473460349493 L 151.74730321230632 184.85004249547305 L 151.77401322643598 184.86051122727636 L 151.78099130743496 184.8633069135518 L 151.8075250872286 184.87416954455523 L 151.8144447915103 184.87706318075305 L 151.8407986267714 184.8883166191262 L 151.84765889275175 184.89130694160136 L 151.87382907328373 184.9029480955137 L 151.88062889679432 184.9060338551149 L 151.90661171240063 184.91805963273603 L 151.91335014369386 184.9212395968888 L 151.93914188417799 184.93364690638825 L 151.94581802487903 184.93691986096024 L 151.9714149800444 184.94970561050755 L 151.97802798005432 184.95307036145445 L 152.0034264397044 184.96623145921916 L 152.009975494074 184.96968683401505 L 152.03517174801223 184.9832201881667 L 152.04165609379308 184.9867650370199 L 152.0666464318229 185.00066755572803 L 152.0730653449198 185.00430075259175 L 152.09784605684467 185.01856934402593 L 152.10419884886647 185.02228978740033 L 152.12876622448985 185.0369213597301 L 152.13505223962414 185.0407279732683 L 152.1594025687495 185.0557194346632 L 152.16562118066165 185.05961116758107 L 152.18975075309243 185.07495942621063 L 152.19590136186306 185.07893525350778 L 152.2198064674027 185.09463721754156 L 152.22588849651112 185.09869614003853 L 152.24956542496307 185.11474871764605 L 152.25557831832975 185.1188897618464 L 152.27902335949747 185.1352898611972 L 152.28496657858508 185.13951207897517 L 152.30817602227205 185.15625660823883 L 152.31404904326132 185.16055907636428 L 152.33701917927092 185.1776449437103 L 152.3428214903115 185.18202676321266 L 152.36554860844726 185.19945087681063 L 152.3712797069953 185.20391117219194 L 152.39376009706064 185.2216704402114 L 152.3994194873046 185.22620835851143 L 152.42164943910296 185.24429968912187 L 152.42723662948768 185.24891439884487 L 152.44921243282255 185.2673347002159 L 152.45472693367145 185.27202539012117 L 152.47644487834623 185.2907715704223 L 152.48188619959174 185.29553744818895 L 152.50334257540993 185.3146064155897 L 152.50871022443565 185.31944670636142 L 152.52990132120064 185.3388353690314 L 152.5351948007919 185.3437493138402 L 152.55611690830725 185.3634545799489 L 152.56133571473168 185.3684414340401 L 152.58198512280075 185.38846021175706 L 152.58712874400084 185.3935192428022 L 152.60750174242708 185.413848440297 L 152.61256965634416 185.41897892651477 L 152.6326625349311 185.43961545195694 L 152.63765420796065 185.44481668014583 L 152.65746325651165 185.46575744170488 L 152.6623781420882 185.47102870518844 L 152.68189965040676 185.49227061103397 L 152.68673718772666 185.49761120753087 L 152.70596744561624 185.51915116583237 L 152.71072705850068 185.52456039525583 L 152.72966235576473 185.5463953141829 L 152.73434345166314 185.55187247637483 L 152.75298007810508 185.57399926409695 L 152.7575820472443 185.57954365650457 L 152.77591629266763 185.60195922119132 L 152.78043850734954 185.60757013649456 L 152.79846666155768 185.6302713863155 L 152.80290847560383 185.63594811000675 L 152.82062682840024 185.65893195313137 L 152.82498757675404 185.66467376106493 L 152.84239241794216 185.68793710566285 L 152.84667141641788 185.69374326156512 L 152.8637590358012 185.7172830158058 L 152.86795558099885 185.72315276877615 L 152.88472226838078 185.7469658408292 L 152.88883563774954 185.75289842281308 L 152.90527768293353 185.776981720848 L 152.9093071350028 185.7829763441149 L 152.92542082779235 185.80732677630127 L 152.9293656025605 185.81338263092024 L 152.945147232759 185.83799710542758 L 152.94900655224328 185.84411335675114 L 152.96445240965423 185.868988781749 L 152.96822547860617 185.87516456792048 L 152.98333185303304 185.9002978515784 L 152.98701785981757 185.90653228106848 L 153.00178104106377 185.93192033155603 L 153.0053791586976 185.93821248073016 L 153.01979543656657 185.96385220621684 L 153.02330482392483 185.9702011169589 L 153.03737048822006 185.99608942561426 L 153.04079029140254 186.00249410300262 L 153.05450163192748 186.02862790299622 L 153.0578309857855 186.03508731304782 L 153.0711842923436 186.0614635125492 L 153.0744223221671 186.06797658004209 L 153.08741388456178 186.0945920872208 L 153.0905597079221 186.10115769360448 L 153.10318581595683 186.12800941663005 L 153.10623854470387 186.13462639803583 L 153.1184954881821 186.16171124507784 L 153.1214542305898 186.1683783904361 L 153.133338299315 186.19569326966402 L 153.13620216237447 186.20240931894716 L 153.1477096461501 186.22995113853062 L 153.1504777380001 186.2367147811206 L 153.16160492662956 186.2644804492291 L 153.1642763591226 186.27129032243147 L 153.17501954240942 186.29927674723453 L 153.1775934338067 186.3061314349473 L 153.18794890155425 186.33433552461452 L 153.1904243793363 186.34123355615117 L 153.2003884213481 186.36965221885205 L 153.2027646251423 186.376592067951 L 153.21233353122176 186.4052222118551 L 153.21460961582764 186.41220229586133 L 153.22377967577822 186.4410408291382 L 153.22595481428687 186.44805950838278 L 153.23472231791206 186.47710333920196 L 153.23679570490773 186.48415891658658 L 153.24515694201094 186.51340495311757 L 153.2471277968395 186.5204956739009 L 153.25507905722418 186.5499408243133 L 153.2569466273212 186.55706487612434 L 153.26448420079083 186.5867060485877 L 153.26624776505173 186.59386156165814 L 153.27336794140973 186.62369566434194 L 153.27502681359033 186.63088071197336 L 153.2817258826402 186.6609046530472 L 153.28327941477193 186.66811725231315 L 153.28955366631706 186.69832793994655 L 153.29575709350573 186.7350007366292 L 153.4149490126976 187.64409164572018 L 153.46161255248097 188.0 L 156.89999999999998 188.0 L 156.89999999999998 203.79999999999998 L 158.70000000000002 203.79999999999998 L 158.70000000000002 183.1 L 144.7 183.1 Z M 184.10000000000002 183.1 L 184.10000000000002 190.3 L 188.24707990671746 190.3 L 188.31565104708048 189.61956329947475 L 188.40757023899965 188.70744208735357 L 188.49948943091886 187.79532087523233 L 188.59140862283803 186.88319966311113 L 188.68332781475723 185.97107845098992 L 188.77524700667644 185.0589572388687 L 188.8671661985956 184.1468360267475 L 188.95908539051482 183.23471481462627 L 188.97266130206629 183.1 L 184.10000000000002 183.1 Z M 193.7961083422006 183.1 L 193.75299389247436 183.52428538026032 L 193.6641050035855 184.39903285500776 L 193.5752161146966 185.27378032975525 L 193.4863272258077 186.14852780450272 L 193.3974383369188 187.0232752792502 L 193.30854944802994 187.89802275399765 L 193.21966055914103 188.77277022874517 L 193.13077167025216 189.6475177034926 L 193.06446861933685 190.3 L 198.42340409102752 190.3 L 198.68449666268324 187.78770925495732 L 198.77540575359234 186.91296178020983 L 198.95722393541052 185.1634668307149 L 199.0481330263196 184.2887193559674 L 199.13904211722868 183.41397188121994 L 199.1716719894109 183.1 L 193.7961083422006 183.1 Z M 203.9154370970526 183.1 L 203.88418143716814 183.400253839103 L 203.78923194221863 184.31237505122422 L 203.69428244726913 185.2244962633454 L 203.59933295231966 186.1366174754666 L 203.40943396242065 187.96085989970905 L 203.31448446747117 188.87298111183023 L 203.21953497252167 189.78510232395146 L 203.16593543592305 190.3 L 203.5497899239884 190.3 L 203.59965694667028 189.8209582821092 L 203.7895559365693 187.99671585786675 L 203.8845054315188 187.0845946457455 L 203.97945492646826 186.17247343362433 L 204.16935391636727 184.3482310093819 L 204.26430341131675 183.4361097972607 L 204.29929158511797 183.1 L 203.9154370970526 183.1 Z M 209.03825872652445 183.1 L 208.88823061004405 184.54360387635583 L 208.79732151913495 185.41835135110333 L 208.61550333731677 187.16784630059826 L 208.52459424640767 188.04259377534575 L 208.3427760645895 189.79208872484068 L 208.28999082814107 190.3 L 209.13206717742992 190.3 L 209.21367277419233 189.49692674095178 L 209.3025616630812 188.6221792662043 L 209.3914505519701 187.74743179145685 L 209.48033944085898 186.87268431670938 L 209.5692283297479 185.9979368419619 L 209.65811721863676 185.12318936721445 L 209.74700610752566 184.24844189246693 L 209.83589499641454 183.3736944177195 L 209.86370690029366 183.1 L 209.03825872652445 183.1 Z M 214.41958675994925 183.1 L 214.24596511453572 184.82286094294943 L 214.15404592261655 185.73498215507064 L 214.06212673069734 186.64710336719185 L 213.97020753877817 187.55922457931308 L 213.78636915493976 189.3834670035555 L 213.6944499630206 190.2955882156767 L 213.6940053646004 190.3 L 224.3716719894109 190.3 L 224.4299512081378 189.73922440647243 L 224.70267848086507 187.11498198223003 L 224.79358757177417 186.24023450748254 L 224.97540575359236 184.4907395579876 L 225.06631484450145 183.61599208324012 L 225.11993988779432 183.1 L 214.41958675994925 183.1 Z M 229.7649387581822 183.1 L 229.74377739676413 183.30328414213324 L 229.64882790181463 184.2154053542545 L 229.45892891191562 186.0396477784969 L 229.36397941696615 186.95176899061812 L 229.17408042706714 188.77601141486056 L 229.12296597662083 189.26703640159482 L 229.12297866004533 189.26702426368078 L 229.13935969310833 189.25151687884374 L 229.14331385699762 189.24781401287234 L 229.15984824485125 189.2324977031575 L 229.16384376269247 189.22883656480437 L 229.1805290318724 189.21371318531 L 229.18456619113778 189.21009361955848 L 229.20139986817958 189.19516502538286 L 229.20547898244527 189.19158690027655 L 229.22245859388462 189.17685494651798 L 229.2265800019907 189.17331815436134 L 229.24370307436325 189.15878469611806 L 229.24786713955268 189.15528915465782 L 229.26513119939403 189.1409560470281 L 229.26933830841435 189.13750170062892 L 229.28674088226012 189.12337079871105 L 229.29099144442964 189.11995761952377 L 229.3085300588155 189.10603077841603 L 229.3128245050505 189.1026587675391 L 229.33049668651208 189.08893784233976 L 229.33483546831752 189.08560703097112 L 229.35263874339046 189.07209387677844 L 229.3570223318062 189.06880432736276 L 229.37495422702614 189.05550079927502 L 229.37938311152706 189.05225260664477 L 229.3974411534296 189.03916055976026 L 229.4019158407795 189.0359538522687 L 229.42009755590033 189.02307514168567 L 229.4246185689541 189.01991008233378 L 229.44292148382877 189.00724656315052 L 229.44748936027995 189.00412335070615 L 229.46591100144417 188.99167687802094 L 229.4705262925131 188.988595748131 L 229.48906418650247 188.97636817704208 L 229.4937274555699 188.97332940333058 L 229.5123791289201 188.96132258893624 L 229.51709095008766 188.95832648409697 L 229.53585392933428 188.9465422814955 L 229.54061488592137 188.94358919836878 L 229.55948669760002 188.93202946265845 L 229.56429738057196 188.92911979529063 L 229.58327555121832 188.9177863815697 L 229.5881365575314 188.91492056625992 L 229.6072186136811 188.9038153296267 L 229.61213054455268 188.90099384595024 L 229.63131401274137 188.89011864150294 L 229.63627747183958 188.8873420133088 L 229.65555987860284 188.87669869614575 L 229.6605754701411 188.87396749253182 L 229.67995434201464 188.86355791775125 L 229.68502266876453 188.86087275400197 L 229.70449553228391 188.8506987767022 L 229.70961719348676 188.84806031519383 L 229.72918157518765 188.8381237904731 L 229.7343571643715 188.83553274153547 L 229.75401059078953 188.82583552449208 L 229.75924069348295 188.82329264722375 L 229.77898069115378 188.81383659295594 L 229.78426588249886 188.8113426959844 L 229.80408997795809 188.80212965959046 L 229.8094308202091 188.79968560177505 L 229.82933653999237 188.79071743835325 L 229.83473357991178 188.7883241294175 L 229.85471845055474 188.77960269406614 L 229.8601722166895 188.777261095158 L 229.8802337647278 188.76878824297532 L 229.8857447645776 188.76649936714105 L 229.90588051654683 188.75827695322533 L 229.9114492336121 188.7560418657929 L 229.93165671604794 188.7480717452424 L 229.93728360676235 188.74589156410258 L 229.95756034620038 188.73817559201564 L 229.9632458367454 188.7360514877914 L 229.9835893597213 188.72859151926622 L 229.98933384272877 188.72652471535815 L 230.00974167577817 188.71932260549306 L 230.01554550690682 188.71731437799528 L 230.03601517656534 188.7103719818885 L 230.0418786709789 188.70842365935408 L 230.06240770378218 188.70174283210392 L 230.06833113250175 188.69985579515904 L 230.08891705498544 188.69343839186376 L 230.0949006411462 188.6916140726487 L 230.11554097984592 188.68546194840658 L 230.12158489484733 188.68370182983654 L 230.1422771762987 188.67781683974584 L 230.14838153586348 188.67612245457585 L 230.16912328660217 188.67050645373487 L 230.17310571733714 188.6694553844988 L 230.19715598003575 188.50459175164883 L 230.32947921235896 187.59752104457814 L 230.4618024446822 186.6904503375074 L 230.59412567700545 185.7833796304367 L 230.72644890932867 184.87630892336603 L 230.8587721416519 183.9692382162953 L 230.98557638033196 183.1 L 229.7649387581822 183.1 Z M 235.5 184.94814729262166 L 235.3695481420411 185.84565607537886 L 235.24328551577847 186.71434294406575 L 235.11702288951585 187.58302981275259 L 234.9907602632532 188.45171668143948 L 234.9692074553229 188.6 L 235.5 188.6 L 235.5 184.94814729262166 Z" /></svg>