<?xml version='1.0' encoding='utf-8'?>
<svg xmlns:svg="http://www.w3.org/2000/svg" id="_0233_global_warming_1" viewBox="0 0 500 500" data-imageid="global-warming-1-26" imageName="Global Warming 1" class="illustrations_image" style="width: 188px;"><svg:style>.cls-1_global-warming-1-26,.cls-2_global-warming-1-26,.cls-3_global-warming-1-26,.cls-4_global-warming-1-26{fill:#fff;}.cls-5_global-warming-1-26{fill:#a5a5a5;}.cls-6_global-warming-1-26{opacity:.15;}.cls-6_global-warming-1-26,.cls-7_global-warming-1-26{fill:#ffd200;}.cls-2_global-warming-1-26{opacity:.38;}.cls-8_global-warming-1-26{opacity:.39;}.cls-8_global-warming-1-26,.cls-9_global-warming-1-26{fill:#e6e6e6;}.cls-3_global-warming-1-26{opacity:.1;}.cls-10_global-warming-1-26{fill:#000001;opacity:.09;}.cls-4_global-warming-1-26{opacity:.44;}.cls-11_global-warming-1-26{fill:#24285b;}.cls-12_global-warming-1-26{fill:#68e1fd;}</svg:style><svg:path class="cls-1_global-warming-1-26" cx="236.76" cy="282.05" r="2.67" id="element_21" d="M 239.41714322021477 281.7882942353201 L 239.3786966986766 281.52910884021696 L 239.315030696405 281.2749399117306 L 239.22675835180513 281.0282352355852 L 239.1147297758101 280.7913707126746 L 238.9800238648478 280.5666274778377 L 238.8239379104785 280.3561699312831 L 238.64797510576807 280.16202489423193 L 238.4538300687169 279.9860620895215 L 238.24337252216233 279.8299761351522 L 238.0186292873254 279.6952702241899 L 237.7817647644148 279.58324164819487 L 237.5350600882694 279.49496930359504 L 237.28089115978307 279.4313033013234 L 237.02170576467992 279.39285677978523 L 236.76 279.38 L 236.49829423532006 279.39285677978523 L 236.23910884021691 279.4313033013234 L 235.98493991173058 279.49496930359504 L 235.7382352355852 279.58324164819487 L 235.50137071267457 279.6952702241899 L 235.27662747783765 279.8299761351522 L 235.06616993128307 279.9860620895215 L 234.8720248942319 280.16202489423193 L 234.6960620895215 280.3561699312831 L 234.5399761351522 280.5666274778377 L 234.40527022418988 280.7913707126746 L 234.29324164819485 281.0282352355852 L 234.204969303595 281.2749399117306 L 234.14130330132338 281.52910884021696 L 234.1028567797852 281.7882942353201 L 234.09 282.05 L 234.1028567797852 282.3117057646799 L 234.14130330132338 282.57089115978306 L 234.204969303595 282.8250600882694 L 234.29324164819485 283.0717647644148 L 234.40527022418988 283.3086292873254 L 234.5399761351522 283.5333725221623 L 234.6960620895215 283.74383006871693 L 234.8720248942319 283.9379751057681 L 235.06616993128307 284.1139379104785 L 235.27662747783765 284.2700238648478 L 235.50137071267457 284.4047297758101 L 235.7382352355852 284.51675835180515 L 235.98493991173058 284.605030696405 L 236.23910884021691 284.6686966986766 L 236.49829423532006 284.7071432202148 L 236.76 284.72 L 237.02170576467992 284.7071432202148 L 237.28089115978307 284.6686966986766 L 237.5350600882694 284.605030696405 L 237.7817647644148 284.51675835180515 L 238.0186292873254 284.4047297758101 L 238.24337252216233 284.2700238648478 L 238.4538300687169 284.1139379104785 L 238.64797510576807 283.9379751057681 L 238.8239379104785 283.74383006871693 L 238.9800238648478 283.5333725221623 L 239.1147297758101 283.3086292873254 L 239.22675835180513 283.0717647644148 L 239.315030696405 282.8250600882694 L 239.3786966986766 282.57089115978306 L 239.41714322021477 282.3117057646799 L 239.42999999999998 282.05 L 239.41714322021477 281.7882942353201 Z" /></svg>