<?xml version='1.0' encoding='utf-8'?>
<svg xmlns:svg="http://www.w3.org/2000/svg" id="_0233_global_warming_1" viewBox="0 0 500 500" data-imageid="global-warming-1-26" imageName="Global Warming 1" class="illustrations_image" style="width: 188px;"><svg:style>.cls-1_global-warming-1-26,.cls-2_global-warming-1-26,.cls-3_global-warming-1-26,.cls-4_global-warming-1-26{fill:#fff;}.cls-5_global-warming-1-26{fill:#a5a5a5;}.cls-6_global-warming-1-26{opacity:.15;}.cls-6_global-warming-1-26,.cls-7_global-warming-1-26{fill:#ffd200;}.cls-2_global-warming-1-26{opacity:.38;}.cls-8_global-warming-1-26{opacity:.39;}.cls-8_global-warming-1-26,.cls-9_global-warming-1-26{fill:#e6e6e6;}.cls-3_global-warming-1-26{opacity:.1;}.cls-10_global-warming-1-26{fill:#000001;opacity:.09;}.cls-4_global-warming-1-26{opacity:.44;}.cls-11_global-warming-1-26{fill:#24285b;}.cls-12_global-warming-1-26{fill:#68e1fd;}</svg:style><svg:path class="cls-11_global-warming-1-26" cx="296.83" cy="288.36" r="7.41" id="element_547" d="M 304.20431882464095 287.63369299015795 L 304.09761892778795 286.9143807138605 L 303.92092788777563 286.20899054154444 L 303.67594733590863 285.5243157661747 L 303.36503656882127 284.8669501801194 L 302.99118982716186 284.24322457332477 L 302.55800745941787 283.6591457643474 L 302.0696612485923 283.1203387514077 L 301.5308542356526 282.63199254058213 L 300.94677542667523 282.19881017283814 L 300.3230498198806 281.82496343117873 L 299.6656842338253 281.51405266409137 L 298.98100945845556 281.26907211222436 L 298.2756192861395 281.09238107221205 L 297.55630700984204 280.98568117535905 L 296.83 280.95 L 296.1036929901579 280.98568117535905 L 295.3843807138605 281.09238107221205 L 294.6789905415444 281.26907211222436 L 293.9943157661747 281.51405266409137 L 293.33695018011935 281.82496343117873 L 292.71322457332474 282.19881017283814 L 292.12914576434736 282.63199254058213 L 291.59033875140767 283.1203387514077 L 291.1019925405821 283.6591457643474 L 290.6688101728381 284.24322457332477 L 290.2949634311787 284.8669501801194 L 289.98405266409134 285.5243157661747 L 289.73907211222433 286.20899054154444 L 289.562381072212 286.9143807138605 L 289.455681175359 287.63369299015795 L 289.41999999999996 288.36 L 289.455681175359 289.0863070098421 L 289.562381072212 289.8056192861395 L 289.73907211222433 290.5110094584556 L 289.98405266409134 291.1956842338253 L 290.2949634311787 291.85304981988065 L 290.6688101728381 292.47677542667526 L 291.1019925405821 293.06085423565264 L 291.59033875140767 293.5996612485923 L 292.12914576434736 294.0880074594179 L 292.71322457332474 294.5211898271619 L 293.33695018011935 294.8950365688213 L 293.981741180895 295.19999999999993 L 299.67825881910494 295.19999999999993 L 300.3230498198806 294.8950365688213 L 300.94677542667523 294.5211898271619 L 301.5308542356526 294.0880074594179 L 302.0696612485923 293.5996612485923 L 302.55800745941787 293.06085423565264 L 302.99118982716186 292.47677542667526 L 303.36503656882127 291.85304981988065 L 303.67594733590863 291.1956842338253 L 303.92092788777563 290.5110094584556 L 304.09761892778795 289.8056192861395 L 304.20431882464095 289.0863070098421 L 304.24 288.36 L 304.20431882464095 287.63369299015795 Z" /></svg>