<?xml version="1.0" encoding="utf-8"?>
<!-- Generator: Adobe Illustrator 29.6.0, SVG Export Plug-In . SVG Version: 9.03 Build 0)  -->
<svg version="1.1" xmlns="http://www.w3.org/2000/svg" xmlns:xlink="http://www.w3.org/1999/xlink" x="0px" y="0px"
	 viewBox="0 0 500 500" style="enable-background:new 0 0 500 500;" xml:space="preserve">
<g id="_0380_fitness_2" style="display:none;">
</g>
<g id="Item_x5F_1">
	<path id="field_fitness-2-76" style="fill:#FF912E;" d="M243.09,405.53L26,277.25c-6.91-3.88-12.84-10.26-6.1-14.42l217.9-125.61
		c3.27-2,8.23-3.35,11.56-1.43l227.87,132.27c6.91,4,8.16,15.23,1.26,19.25l-206.78,118
		C262.88,410.438,251.998,410.521,243.09,405.53z"/>
</g>
<g id="Item_x5F_2" style="display:none;">
	<g id="fitness_fitness-2-76" style="display:inline;">
		<polygon style="fill:#68E1FD;" points="128.55,298.32 198.54,343.28 373.36,243.48 300.3,199.33 		"/>
		<path style="fill:none;" d="M269.74,281l-34.83-14.7l-77.5,30.61L209,329.24c16.26-9.15,32.5-18.52,48.87-27.68
			C262.652,295.217,266.638,288.313,269.74,281z"/>
		<path style="fill:#162D71;" d="M263.23,96.51c-3.679,2.805-7.613,5.259-11.75,7.33c-0.36,0.17-2.69,1.58-2.8,1.56
			c-0.3-0.08-0.7-3.35-0.78-3.68l-1.71-8.08c-0.39-1.85-3.22-1-2.83,0.82c0.76,3.64,1,8.37,2.51,11.76c0.58,1.26,1.1,2,2.7,2
			c2.33,0,5.42-2.28,7.37-3.36c3.071-1.743,6.015-3.701,8.81-5.86C266.24,97.91,264.74,95.37,263.23,96.51z"/>
		<path style="fill:#253479;" d="M318.61,126.76c-3.93,1.84-9,4.54-13.4,5c-1.54,0.15-1.12,0.54-2-0.73
			c-0.41-0.792-0.71-1.637-0.89-2.51c-0.742-2.399-1.228-4.869-1.45-7.37c-0.16-1.73-2.91-1.65-2.73,0.12
			c0.34,3.51,0.93,12.22,4.85,13.56c2,0.68,5.41-1.12,7.26-1.73c3.349-1.147,6.631-2.483,9.83-4
			C321.64,128.33,320.2,126,318.61,126.76z"/>
		<path style="fill:#FFCDC0;" d="M218.88,179.48c0,0-25.57,46.57-21.26,56.85s29.87,22.33,32.82,27.18s12.59,2.41,13.18,0
			S223.76,235,220.37,231c0,0,37-37.13,37.23-55.15s-13.35-21.06-19.72-22.1S218.88,179.48,218.88,179.48z"/>
		<path style="fill:#162D71;" d="M205,279.84c0,0-0.74,4.09,1,5c4.004,2.31,8.658,3.234,13.24,2.63c6.82-0.91,11.82-5.59,14.48-5.59
			s11.94-2.28,13.44-4s0-5.66,0-5.66"/>
		<path style="fill:#75BF34;" d="M229.94,262.69c0,0-1.26,2.23-2.52,4.63s-20.71,9.44-22.09,11.84s3.28,5.73,10.66,6.3
			s15.45-6.3,19.21-6.3s10.65-1.71,12.37-4.46s-3.9-11.19-3.9-11.19S233.87,268.81,229.94,262.69z"/>
		<path style="fill:#163791;" d="M207.47,247c7.781,0.831,15.647-0.271,22.9-3.21c-4.44-5.84-8.61-11.12-10-12.75
			c0,0,37-37.13,37.23-55.16s-13.34-21.05-19.73-22.08s-19,25.77-19,25.77s-25.57,46.57-21.26,56.85
			C199.07,239.81,202.93,243.46,207.47,247z"/>
		<path style="fill:#FFCDC0;" d="M252.26,90.8c-0.463-0.03-0.927-0.03-1.39,0c-3.69,0.14-6.47,2.87-9.61,4.45
			c-7.67,3.75-28.26,14.14-47.43,27.07s-15.57,24.31-15.57,24.31l18.11-5.21c0,0,5.6-5.27,8.25-8.38s39.52-29.94,41.91-30.9
			s9.58-1.26,14.85-2.63c3.78-1,1.16-3.78-0.87-5.14C258.08,92.547,255.253,91.324,252.26,90.8z"/>
		
			<rect x="208.073" y="142.512" transform="matrix(0.1571 -0.9876 0.9876 0.1571 63.847 360.833)" style="fill:#253479;" width="70.48" height="1"/>
		<path style="fill:#FFCDC0;" d="M242.45,184.48c0,0-25.56,46.57-21.26,56.85s29.87,22.33,32.81,27.17s12.58,2.42,13.18,0
			S247.33,240,244,236c0,0,37-37.13,37.23-55.16s-13.36-21.05-19.72-22.1S242.45,184.48,242.45,184.48z"/>
		<path style="fill:#162D71;" d="M235.16,295c0,0-1.88,5.27,4.7,6.19s14.08,1.53,18.65-2.07s17.37-16.58,17.19-18.42
			c-0.182-1.436-0.469-2.856-0.86-4.25"/>
		<path style="fill:#75BF34;" d="M254,268.52c-0.845,3.592-2.289,7.017-4.27,10.13c-2.92,4.11-14.94,13.73-14.6,16.36
			s5.84,4.12,11.68,4.12s14.94-4.64,19.58-10.82s9.09-8.58,8.4-11.84s-8.48-10.07-8.48-10.07S263.61,270.23,254,268.52z"/>
		
			<rect x="198.247" y="214.716" transform="matrix(0.2587 -0.966 0.966 0.2587 1.841 432.8298)" style="fill:#253479;" width="169.32" height="1"/>
		<path style="fill:#1C3BA3;" d="M227.88,249.46c7.3-0.28,15.59-2,21.91-6c-2.73-3.53-5-6.3-5.92-7.45c0,0,37-37.13,37.23-55.16
			s-13.35-21-19.72-22.1s-19,25.78-19,25.78s-25.58,46.57-21.28,56.85C222.21,244,224.72,246.74,227.88,249.46z"/>
		<path style="fill:#68E1FD;" d="M185,160.09c-0.91-1.35-10.61-14.44-5.51-18.33s20-2.44,28.59,0s29.8,4.65,37,4.87
			s29.58,13.72,30.8,18.5s-49.45,15.53-61.37,17.9S190.94,173,190.94,173"/>
		<path style="fill:#FFCDC0;" d="M180.64,156.42c1.26-0.15,5.27-3,11.73,0s7.19,16.37,5.75,18.56s-14.61-6.23-14.61-6.23"/>
		<path style="fill:#3F4144;" d="M161.31,182.24c0.21,0.07-6.37,5-12.39,0s-7.42-25.48,8.81-31.47s29.09,8.17,28.84,14
			s-4,7.82-4,7.82"/>
		<path style="fill:#FFCDC0;" d="M157.75,180.83c0,0,15.64,6.82,21.86,4s6.22-9.83,4.81-11.63c0,0-3.21-6.82-7.23-5.41
			s-1.26,4.81-1.26,4.81S160.35,170.81,157.75,180.83z"/>
		<circle style="fill:#3F4144;" cx="158.45" cy="145.64" r="10.72"/>
		<path style="fill:#FFCDC0;" d="M239.32,171.8c0,0-14.38,5.76-21.08,0s0.17-17.62,19.57-24.33s57.54-16.36,59.19-18.77
			s1.43-8.15,3.77-9.58s17.49,5.27,15.81,8.38c-1.68,3.11-12.87,6.27-12.87,6.27L239.32,171.8z"/>
	</g>
</g>
</svg>
