<?xml version='1.0' encoding='utf-8'?>
<svg xmlns:svg="http://www.w3.org/2000/svg" version="1.1" id="Layer_1" x="0px" y="0px" viewBox="0 0 500 500" style="width: 180px;" xml:space="preserve" data-imageid="toronto-61" imageName="Toronto" class="illustrations_image"><svg:style type="text/css">
	.st0_toronto-61{fill:#9D602A;}
	.st1_toronto-61{fill:#706767;}
	.st2_toronto-61{fill:#E5E1E1;}
	.st3_toronto-61{fill:#68E1FD;}
	.st4_toronto-61{fill:#A6916D;}
	.st5_toronto-61{opacity:0.49;fill:#39726F;enable-background:new    ;}
	.st6_toronto-61{opacity:0.81;fill:#39726F;enable-background:new    ;}
	.st7_toronto-61{opacity:0.59;fill:#FFFFFF;enable-background:new    ;}
	.st8_toronto-61{fill:#1E4549;}
	.st9_toronto-61{opacity:0.33;fill:#1E4549;enable-background:new    ;}
	.st10_toronto-61{fill:#CCCCCC;}
	.st11_toronto-61{fill:#E0E0E0;}
	.st12_toronto-61{fill:#39726F;}
</svg:style><svg:path class="st3_toronto-61 targetColor" points="181.8,163.9 186.9,167.7 190.8,163.9 185.1,159.8 &#09;" style="fill: rgb(104, 225, 253);" id="element_126" d="M 186.38634059596703 168.55799418217634 L 186.47538879248245 168.6053757907358 L 186.56875723739682 168.64354556446574 L 186.66549594430495 168.67211514125773 L 186.7646206357402 168.69079383714907 L 186.86512275780214 168.69939160391542 L 186.96597974178744 168.6978209627351 L 187.06616540841517 168.68609789425096 L 187.16466040878882 168.66434167597367 L 187.26046259586147 168.6327736686811 L 187.3525972208795 168.59171506416126 L 187.44012685105926 168.54158361721505 L 187.52216090758904 168.48288939516894 L 187.59786472691044 168.41622958814492 L 191.49786472691045 164.61622958814493 L 191.563935948587 164.54529207840832 L 191.62282805421023 164.46829041273335 L 191.67398760306088 164.38594821709307 L 191.71693382140504 164.29903930528656 L 191.7512631205831 164.2083804069952 L 191.77665288974885 164.11482349253575 L 191.79286452761673 164.01924776643804 L 191.79974568472616 163.9225514050882 L 191.79723169515123 163.8256431160832 L 191.78534618420105 163.72943359861787 L 191.76420084640003 163.6348269851559 L 191.7339943958345 163.54271234481195 L 191.69501069872987 163.45395532829204 L 191.64761610580734 163.3693900329093 L 191.59225600948957 163.28981116412402 L 191.52945065830903 163.21596656726987 L 191.45979026785346 163.14855019965015 L 191.38392947419328 163.08819560904837 L 185.68392947419326 158.98819560904838 L 185.60154694926283 158.93486957186494 L 185.5143342530375 158.88987521363285 L 185.42313129145728 158.8536458546183 L 185.32881639889882 158.8265304033536 L 185.2322978793352 158.80878999645716 L 185.13450525887217 158.80059548374538 L 185.03638033390374 158.8020257828552 L 184.93886810109785 158.81306711922434 L 184.84290765656203 158.8336131587477 L 184.74942315183452 158.86346603183316 L 184.6593148937996 158.9023382389936 L 184.5734506742404 158.94985541962433 L 184.4926574125294 159.00555995730042 L 184.417713191943 159.0689153868728 L 184.34933976629407 159.13931156092107 L 184.28819560904836 159.21607052580674 L 184.23486957186492 159.29845305073718 L 184.18987521363283 159.3856657469625 L 184.15364585461828 159.47686870854272 L 184.12653040335357 159.57118360110118 L 184.10878999645715 159.6677021206648 L 184.10059548374537 159.76549474112784 L 184.10202578285518 159.86361966609627 L 184.11306711922433 159.96113189890215 L 184.1336131587477 160.05709234343797 L 184.16346603183314 160.15057684816549 L 184.20233823899358 160.2406851062004 L 184.2498554196243 160.3265493257596 L 184.3055599573004 160.4073425874706 L 184.36891538687277 160.482286808057 L 184.43931156092106 160.55066023370594 L 184.51607052580673 160.61180439095165 L 189.24831400710366 164.01569882486697 L 186.81326601536492 166.38830968861242 L 182.3974813225355 163.0981171723866 L 182.31600602501717 163.04341504674318 L 182.22956130740036 162.99696230245658 L 182.13897967957118 162.95920630484795 L 182.0451334921226 162.9305106648138 L 181.94892653514125 162.91115173705427 L 181.851285334215 162.90131595862633 L 181.75315022748484 162.90109805345307 L 181.65546630967467 162.9105001200804 L 181.5591743303125 162.929431611467 L 181.46520163379813 162.95771020700184 L 181.37445322856968 162.99506356835124 L 181.28780307137762 163.041131962226 L 181.20608565060354 163.09547172480953 L 181.13008794968073 163.15755953448306 L 181.0605418680137 163.22679745169876 L 180.9981171723866 163.30251867746452 L 180.94341504674318 163.38399397498284 L 180.8969623024566 163.47043869259966 L 180.85920630484796 163.56102032042884 L 180.8305106648138 163.65486650787741 L 180.81115173705427 163.75107346485876 L 180.80131595862633 163.84871466578502 L 180.80109805345307 163.94684977251518 L 180.8105001200804 164.04453369032535 L 180.82943161146702 164.14082566968753 L 180.85771020700184 164.2347983662019 L 180.89506356835125 164.32554677143034 L 180.941131962226 164.4121969286224 L 180.99547172480953 164.49391434939648 L 181.05755953448306 164.5699120503193 L 181.12679745169876 164.63945813198632 L 181.20251867746452 164.70188282761342 L 186.30251867746452 168.5018828276134 L 186.38634059596703 168.55799418217634 Z" /></svg>