<?xml version='1.0' encoding='utf-8'?>
<svg xmlns:svg="http://www.w3.org/2000/svg" version="1.1" id="Layer_1" x="0px" y="0px" viewBox="0 0 500 500" style="width: 180px;" xml:space="preserve" data-imageid="toronto-61" imageName="Toronto" class="illustrations_image"><svg:style type="text/css">
	.st0_toronto-61{fill:#9D602A;}
	.st1_toronto-61{fill:#706767;}
	.st2_toronto-61{fill:#E5E1E1;}
	.st3_toronto-61{fill:#68E1FD;}
	.st4_toronto-61{fill:#A6916D;}
	.st5_toronto-61{opacity:0.49;fill:#39726F;enable-background:new    ;}
	.st6_toronto-61{opacity:0.81;fill:#39726F;enable-background:new    ;}
	.st7_toronto-61{opacity:0.59;fill:#FFFFFF;enable-background:new    ;}
	.st8_toronto-61{fill:#1E4549;}
	.st9_toronto-61{opacity:0.33;fill:#1E4549;enable-background:new    ;}
	.st10_toronto-61{fill:#CCCCCC;}
	.st11_toronto-61{fill:#E0E0E0;}
	.st12_toronto-61{fill:#39726F;}
</svg:style><svg:path class="st1_toronto-61" d="M 156.56710484630653 230.918747580477 L 156.51457959378138 230.89450515623463 L 156.46205434125622 230.87026273199226 L 156.40952908873098 230.84602030774982 L 156.36499366445352 230.82800731924087 L 156.31893510329397 230.8143515250673 L 156.27177859426473 230.80517898851667 L 156.22395946206976 230.80057438574167 L 156.17591914841014 230.8005802240733 L 156.12810113682096 230.80519644961507 L 156.08094685865842 230.81438044774052 L 156.0348916180323 230.82804743648964 L 155.99036057330153 230.8460712492323 L 155.94776481223028 230.868285499374 L 155.90749755703663 230.89448511635152 L 155.8699305343668 230.92442823873913 L 155.83541054370522 230.95783844698934 L 155.80425625589982 230.99440731519627 L 155.776755271356 231.03379725832545 L 155.75316146505736 231.07564464862568 L 155.73369264292197 231.11956317245398 L 155.71852853112983 231.16514739652496 L 155.70780911698316 231.21197651066296 L 155.70163335661508 231.2596182125057 L 155.70005826147772 231.30763269829808 L 155.70813906955854 231.83692562759094 L 155.71217947359892 232.10157209223746 L 155.71621987763933 232.36621855688392 L 155.72026028167974 232.6308650215304 L 155.72834108976056 233.16015795082328 L 155.73238149380094 233.4248044154698 L 155.7444056708418 234.21238801164404 L 155.788940491084 234.19733104144845 L 155.87230793987024 234.16761972873098 L 155.95662443347817 234.1360303029997 L 156.04190585373775 234.10252514249697 L 156.12816736982472 234.06706666789376 L 156.2154234661884 234.02961738837675 L 156.3036879744538 233.99013994306367 L 156.39297410847644 233.948597137638 L 156.48329450181086 233.90495197617523 L 156.57466124685217 233.85916768824 L 156.6670859350348 233.8112077513786 L 156.76357483870322 233.7594286174683 L 156.80633384973288 233.73902991177212 L 156.8508315491489 233.72276968529778 L 156.89666844724647 233.7107939184703 L 156.94343303131535 233.70321012686054 L 156.9907054601024 233.7000863959361 L 157.03806133304604 233.7014507698062 L 157.0850755004431 233.70729099944856 L 157.13132588034102 233.71755465267793 L 157.17639724788876 233.73214958487 L 157.21988496312625 233.75094476621356 L 157.26139860374516 233.77377145806494 L 157.30056547020706 233.80042472784316 L 157.32477728532808 233.81863715514663 L 157.32590709564604 233.81948951887088 L 157.3500576925239 233.83776316441725 L 157.3511859695298 233.83861939542598 L 157.37527534816465 233.8569542592154 L 157.37640206006625 233.85781434511728 L 157.40043022045805 233.87621042714972 L 157.40155533550265 233.87707435524584 L 157.42552227765142 233.89553165552132 L 157.42664576412957 233.896399412805 L 157.4505514880353 233.91491793132354 L 157.45167331428416 233.91578950448036 L 157.47551781994684 233.9343692412419 L 157.47663795435568 233.93524461665132 L 157.50042124177534 233.9538855716559 L 157.50153965278983 233.954764735392 L 157.52526172196644 233.97346690863964 L 157.52637837808967 233.97434984646924 L 157.55003922902324 233.9931132379599 L 157.55115409882384 233.9939999353467 L 157.5747537315144 234.01282454508038 L 157.57586678362935 234.01371498718441 L 157.59940519807685 234.03260081516115 L 157.6005164012138 234.0334949868385 L 157.6239935974183 234.05244203305827 L 157.62510292036265 234.05333991886408 L 157.64851889832406 234.0723481833269 L 157.6496263099394 234.07324976751366 L 157.67298106965782 234.0923192502195 L 157.67408653889527 234.0932245167421 L 157.69738008037064 234.11235521769098 L 157.69848357626853 234.11326415020446 L 157.72171589950085 234.1324560693964 L 157.72281739118893 234.13336865125697 L 157.7459884961782 234.1526217886919 L 157.74708795288583 234.15353800296182 L 157.7701978396321 234.17285235863983 L 157.77129523068737 234.1737721880844 L 157.79434389919058 234.19314776200542 L 157.79543919402803 234.1940711890974 L 157.81842664428822 234.21350798126147 L 157.81951981245106 234.2144349881811 L 157.8424460444682 234.2339329985882 L 157.84353705561333 234.23486356722543 L 157.86640206938742 234.25442279587554 L 157.86749089328825 234.25535690783062 L 157.89029468881932 234.2749773547238 L 157.89138129537136 234.27591499131012 L 157.9141238726594 234.29559665644632 L 157.9152082318834 234.29653779869147 L 157.93788959092842 234.31628068207073 L 157.9389716729745 234.31722531071833 L 157.96159181377647 234.3370294123406 L 157.9626715889285 234.3379775078524 L 157.9852305114874 234.35784282771772 L 157.98630795016575 234.35879437027467 L 158.00880565448165 234.37872090838303 L 158.00988072724888 234.3796758778884 L 158.03231721332173 234.39966363423977 L 158.03338989088567 234.4006220103207 L 158.05576515871547 234.42067098491512 L 158.05683541193238 234.4216327469239 L 158.07914946151917 234.44174293976138 L 158.0802172613991 234.44270806677892 L 158.10247009274283 234.46287947785942 L 158.10353541045262 234.46384794869672 L 158.12572702355334 234.48408057802027 L 158.1267898304204 234.48505237122066 L 158.14892022527806 234.50534621878722 L 158.14998049279484 234.50632131262907 L 158.17204966940946 234.52667637843868 L 158.17310736923588 234.52765475093685 L 158.19511532760748 234.5480710349895 L 158.19617043157626 234.54905266389903 L 158.21811717170482 234.5695301661947 L 158.21916965182461 234.57051502901277 L 158.24105517371012 234.5910537495515 L 158.24210500216796 234.59204182351888 L 158.26392930581045 234.61264176230063 L 158.2649764549781 234.61363302440674 L 158.28673954037757 234.63429418143153 L 158.28778398281287 234.6352886084152 L 158.30948584996926 234.65601098368305 L 158.3105275584191 234.65700855203426 L 158.33216820733247 234.6777921455451 L 158.3332071547397 234.67879283151126 L 158.35478658541007 234.69963764326516 L 158.35582274491392 234.70064142285085 L 158.37734095734123 234.7215474528478 L 158.37837430228132 234.72255430181826 L 158.39983129646558 234.74352155005823 L 158.4008618003867 234.74453144394343 L 158.42225757632792 234.76555991042645 L 158.4232852129814 234.7665728245222 L 158.4446197706796 234.78766250924824 L 158.44564451402906 234.7886784186216 L 158.46691785348423 234.80982932159068 L 158.46793967770714 234.8108482010813 L 158.48915179891924 234.83206032229344 L 158.49017067840919 234.83308214651566 L 158.51132158137827 234.8543554859708 L 158.51233749075163 234.85538022932025 L 158.5334271754777 234.87671478701844 L 158.53444008957368 234.87774242367217 L 158.5554685560567 234.8991381996134 L 158.55647844994215 234.90016870353477 L 158.57744569818212 234.92162569771907 L 158.57845254715207 234.92265904265867 L 158.59935857714902 234.94417725508595 L 158.60036235673496 234.94521341459003 L 158.62120716848887 234.9667928452604 L 158.622207854455 234.96783179266762 L 158.64299144796587 234.989472441581 L 158.64398901631708 234.99051415003083 L 158.66471139158492 235.01221601718723 L 158.66570581856837 235.0132604596223 L 158.68636697559316 235.03502354502174 L 158.6873582376995 235.03607069418962 L 158.70795817648124 235.0578949978321 L 158.70894625044886 235.0589448262902 L 158.72948497098758 235.08083034817574 L 158.73046983380516 235.08188282829502 L 158.75094733610086 235.10382956842358 L 158.75192896501065 235.10488467239264 L 158.77234524906328 235.12689263076422 L 158.77332362156164 235.12795033059083 L 158.79367868737125 235.15001950720549 L 158.79465378121245 235.15107977472152 L 158.81494762877904 235.17321016957916 L 158.81591942197988 235.17427297644673 L 158.83615205130343 235.19646458954745 L 158.83712052214074 235.19752990725723 L 158.85729193322123 235.21978273860097 L 158.85825706023877 235.2208505384809 L 158.87836725307625 235.24316458806769 L 158.87932901508503 235.2442348412846 L 158.89937798967946 235.2666101091144 L 158.90033636576038 235.26768278667834 L 158.92032412211177 235.29011927275118 L 158.92127909161712 235.29119434551842 L 158.9412056297255 235.31369204983432 L 158.94215717228244 235.31476948851267 L 158.96202249214775 235.33732841107158 L 158.96297058765956 235.3384081862236 L 158.98277468928183 235.36102832702556 L 158.98371931792923 235.36211040907142 L 159.00346220130848 235.3847917681164 L 159.00440334355383 235.38587612734065 L 159.02408500869004 235.40861870462868 L 159.02502264527635 235.40970531118072 L 159.04464309216954 235.4325091067118 L 159.04557720412458 235.43359793061262 L 159.06513643277475 235.45646294438671 L 159.06606700141174 235.45755395553158 L 159.08556501181886 235.48048018754872 L 159.08649201873897 235.4815733557121 L 159.105928810903 235.5045608059723 L 159.1068522379945 235.50565610080918 L 159.12622781191556 235.52870476931238 L 159.12714764136058 235.52980216036823 L 159.14646199703856 235.5529120471145 L 159.14737821130802 235.55401150382158 L 159.16663134874298 235.57718260881086 L 159.167543930604 235.57828410049947 L 159.18673584979592 235.6015164237318 L 159.18764478230895 235.60261991962912 L 159.20677548325784 235.6259134611045 L 159.20768074978048 235.627018930342 L 159.22675023248632 235.65037369006038 L 159.22765181667347 235.6514811016762 L 159.2466600811363 235.67489707963762 L 159.2475579669417 235.67600640258152 L 159.2665050131615 235.69948359878597 L 159.26739918483904 235.70059480192316 L 159.28628501281577 235.72413321637066 L 159.28717545491958 235.72524626848534 L 159.3060000646533 235.74884590117588 L 159.3068867620403 235.74996077097677 L 159.32565015353097 235.77362162191034 L 159.32653309136083 235.77473827803385 L 159.34523526460845 235.79846034721047 L 159.34611442834407 235.79957875822438 L 159.36475538334867 235.82336204564405 L 159.3656307587583 235.82448218005317 L 159.38421049551985 235.84832668571585 L 159.38508206867667 235.8494485119647 L 159.4036005871952 235.87335423587044 L 159.40446834447894 235.87447772234867 L 159.4229256447544 235.89844466449742 L 159.42378957285024 235.89956977954165 L 159.4421856548827 235.92359793993344 L 159.44304574078504 235.92472465183562 L 159.46138060457443 235.94881403047046 L 159.4622368355827 235.9499423074758 L 159.4805104811291 235.97409290435365 L 159.48136284485403 235.9752227146725 L 159.4855204449761 235.9807498771877 L 159.48847410302224 235.98414198523952 L 159.50340362960233 236.00211925658857 L 159.50855771097312 236.0086292086755 L 159.52273928631354 236.02743525486824 L 159.52753718881576 236.0341195861929 L 159.5408647850862 236.0536457589877 L 159.5453102189164 236.06050137771967 L 159.55769311811937 236.08062400706933 L 159.56178979347408 236.0876478213781 L 159.5731556189556 236.10823211246873 L 159.5769072460314 236.1154210305239 L 159.58720400711587 236.13632553723232 L 159.59061429610927 236.1436764672034 L 159.59981131522153 236.16475780170336 L 159.60288397632908 236.17226765175988 L 159.61097168500544 236.19338507789817 L 159.6137104284237 236.2010507562097 L 159.62069913034568 236.22207034777378 L 159.6231076662712 236.22988876250986 L 159.62902545466625 236.25068687777386 L 159.6311074932956 236.258654937104 L 159.6359975656332 236.27912085311058 L 159.63775681716288 236.2872354652044 L 159.64167444875366 236.3072731122783 L 159.64311462338026 236.31553118530528 L 159.64612404714433 236.33506000960872 L 159.64724885506433 236.3434584517384 L 159.649420256061 236.36241350093746 L 159.65023340747103 236.37094922033944 L 159.65164018856456 236.38928059054683 L 159.65214539366113 236.39795049539057 L 159.65286181293573 236.41562229645862 L 159.6530627819154 236.42442329491374 L 159.65316201105796 236.44141229043578 L 159.65306245411728 236.4503412906718 L 159.6526150647199 236.4666353539037 L 159.65221869205538 236.47568926409016 L 159.65129154574623 236.49128576763414 L 159.65060206755444 236.50046149594058 L 159.64925756588903 236.51536572640694 L 159.64827869236655 236.52466018100287 L 159.6465743320129 236.53888384370669 L 159.64530977335625 236.5482939327617 L 159.64329794914931 236.5618537882778 L 159.64175141555504 236.57137641996144 L 159.63947941623715 236.5842930752608 L 159.6376546179018 236.5939251577426 L 159.63516476482735 236.60622201987073 L 159.63306541194746 236.6159604613202 L 159.63039529811533 236.62766285100534 L 159.62802510088747 236.6375045595921 L 159.62520789521272 236.6486389751716 L 159.62257056383342 236.6585808590651 L 159.619635352854 236.66917437686985 L 159.61673459751984 236.6792133442397 L 159.61370674324874 236.6892931396547 L 159.6105462741562 236.69942609867041 L 159.60744777242277 236.70901907147757 L 159.60403129976848 236.7192429303087 L 159.60258134632872 236.72344640988098 L 159.60905838324186 237.29126664593377 L 159.61208868627216 237.55692321159032 L 159.6151189893025 237.82257977724683 L 159.6272402014237 238.88520603987317 L 159.630270504454 239.1508626055297 L 159.6423917165752 240.213488868156 L 159.64542201960552 240.4791454338125 L 159.64845232263582 240.7448019994691 L 159.66360383778732 242.07308482775196 L 159.66663414081762 242.3387413934085 L 159.67269474687822 242.87005452472164 L 159.67572504990855 243.13571109037815 L 159.68481595899945 243.93268078734792 L 159.68784626202975 244.19833735300446 L 159.70299777718125 245.5266201812873 L 159.70602808021158 245.7922767469438 L 159.72117959536308 247.1205595752267 L 159.72420989839338 247.38621614088325 L 159.73040020075885 247.9288993149231 L 159.73994262494156 247.9309607891205 L 159.79070147107274 247.94197751405432 L 159.8420714858328 247.9531757947708 L 159.89405920290773 247.964555142804 L 159.9466711235617 247.9761150710462 L 159.99991371772143 247.98785509330943 L 160.053793425029 247.9997747239287 L 160.09889480273944 248.00978274154832 L 160.1225286836702 248.01407765526668 L 160.15529048297256 248.02002432772682 L 160.1877250488669 248.02590305815886 L 160.2198329550258 248.031712510392 L 160.2516147538401 248.03745134895348 L 160.28307097520388 248.0431182392361 L 160.3142021259827 248.04871184781754 L 160.34500868882165 248.05423084269185 L 160.37549112148827 248.05967389362942 L 160.40564985550705 248.06503967244603 L 160.43548529554576 248.07032685344393 L 160.4649978179851 248.07553411374815 L 160.49418777012087 248.0806601337992 L 160.5230554687797 248.08570359778867 L 160.55160119916957 248.09066319418716 L 160.57982521363618 248.09553761630977 L 160.60772773037272 248.10032556293163 L 160.63530893201076 248.1050257389455 L 160.6625689642865 248.10963685609937 L 160.68950793440695 248.114157633755 L 160.71612590965447 248.1185867997649 L 160.74242291583758 248.12292309140548 L 160.76839893541293 248.12716525634562 L 160.79405390606206 248.1313120537863 L 160.8193877186935 248.1353622556083 L 160.84440021571146 248.13931464767487 L 160.8690911890818 248.14316803121966 L 160.89346037839695 248.14692122436242 L 160.91750746881203 248.15057306374086 L 160.94123208899055 248.1541224062909 L 160.9632194355787 248.15735987547123 L 160.9515479261025 247.13804804788143 L 160.9485176230722 246.87340158323494 L 160.936396410951 245.8148157246491 L 160.93336610792068 245.5501692600027 L 160.92730550186008 245.0208763307097 L 160.92427519882978 244.75622986606322 L 160.90609338064797 243.16835107818446 L 160.90306307761765 242.90370461353803 L 160.88488125943584 241.3158258256592 L 160.88185095640554 241.05117936101271 L 160.87579035034494 240.5218864317198 L 160.8727600473146 240.2572399670734 L 160.8606388351934 239.1986541084875 L 160.8576085321631 238.934007643841 L 160.8454873200419 237.87542178525516 L 160.84245701701158 237.61077532060875 L 160.83639641095098 237.08148239131577 L 160.83336610792068 236.81683592666928 L 160.81518428973888 235.22895713879052 L 160.81215398670855 234.9643106741441 L 160.8013852040092 234.02383698506478 L 160.77194996668348 234.0099851086762 L 160.7204348151684 233.98574268443383 L 160.66891966365347 233.9615002601915 L 160.61740451213802 233.93725783594894 L 160.51437420910779 233.88877298746414 L 160.46285905759277 233.8645305632218 L 160.35982875456233 233.81604571473687 L 160.3083136030471 233.79180329049439 L 160.25679845153203 233.767560866252 L 160.2052833000171 233.7433184420097 L 160.15376814850165 233.71907601776712 L 160.05073784547142 233.67059116928232 L 159.9992226939564 233.64634874503997 L 159.94770754244112 233.62210632079749 L 159.8961923909259 233.597863896555 L 159.79316208789567 233.5493790480702 L 159.74164693638065 233.52513662382785 L 159.6386166333502 233.47665177534293 L 159.587101481835 233.45240935110044 L 159.53558633032014 233.42816692685818 L 159.48407117880475 233.40392450261567 L 159.43255602728954 233.37968207837318 L 159.3295257242593 233.33119722988837 L 159.27801057274428 233.30695480564603 L 159.17498026971384 233.2584699571611 L 159.12346511819862 233.23422753291862 L 159.07194996668377 233.20998510867636 L 159.02043481516833 233.1857426844338 L 158.9174045121381 233.137257835949 L 158.86588936062287 233.1130154117065 L 158.81437420910802 233.08877298746424 L 158.76285905759264 233.06453056322172 L 158.71134390607742 233.04028813897924 L 158.65982875456234 233.01604571473686 L 158.6083136030474 232.99180329049454 L 158.55679845153196 232.96756086625197 L 158.45376814850172 232.91907601776717 L 158.4022529969865 232.89483359352468 L 158.35073784547166 232.87059116928242 L 158.2992226939562 232.84634874503985 L 158.19619239092597 232.79786389655504 L 158.14467723941095 232.7736214723127 L 158.04164693638052 232.72513662382778 L 157.9901317848653 232.7008941995853 L 157.93861663335022 232.67665177534292 L 157.8871014818353 232.6524093511006 L 157.83558633031984 232.62816692685803 L 157.7325560272896 232.57968207837322 L 157.68104087577458 232.55543965413088 L 157.57801057274415 232.50695480564596 L 157.52649542122893 232.48271238140347 L 157.47498026971385 232.4584699571611 L 157.42346511819883 232.43422753291875 L 157.3204348151684 232.38574268443384 L 157.26891966365318 232.36150026019135 L 157.21740451213833 232.3372578359491 L 157.16588936062294 232.31301541170657 L 157.11437420910772 232.28877298746409 L 157.01134390607749 232.24028813897928 L 156.95982875456247 232.21604571473694 L 156.85679845153203 232.16756086625202 L 156.8052833000168 232.14331844200953 L 156.75376814850196 232.11907601776727 L 156.70225299698657 232.09483359352475 L 156.65073784547135 232.07059116928227 L 156.59922269395628 232.0463487450399 L 156.54770754244106 232.0221063207974 L 156.4961923909262 231.99786389655515 L 156.44467723941082 231.97362147231263 L 156.3931620878956 231.94937904807014 L 156.34164693638053 231.92513662382777 L 156.2901317848656 231.90089419958545 L 156.23861663335015 231.87665177534288 L 156.18710148183507 231.8524093511005 L 156.14367424283526 231.82929838831973 L 156.1027282799074 231.80203174555396 L 156.06465995680048 231.770873368452 L 156.02983778123007 231.7361248752998 L 155.99859883766237 231.6981226373055 L 155.97124552428022 231.65723452246974 L 155.9480426257184 231.61385633456234 L 155.92921474990402 231.56840798167553 L 155.9149441538146 231.5213294114439 L 155.9053689791999 231.47307635227767 L 155.90058191534686 231.42411590183582 L 155.90062930183183 231.3749220054428 L 155.90551067994576 231.32597086821895 L 155.9151787971345 231.27773634533514 L 155.9295400644115 231.2306853550161 L 155.94845546231474 231.18527335869393 L 155.9717418866384 231.14193995206554 L 155.99917392091194 231.10110460973297 L 156.0304860184693 231.06316262461937 L 156.06537507298478 231.0284812814675 L 156.1035033525929 230.9973963014622 L 156.14450176918905 230.97020859239342 L 156.18797345126413 230.94718133581847 L 156.23349758568665 230.9285374394209 L 156.28063349124417 230.91445737922666 L 156.328924884511 230.90507745256636 L 156.3779042967476 230.90048845869413 L 156.42709759907618 230.9007348198359 L 156.47602859212714 230.90581415117472 L 156.52855384465238 230.91389495925554 L 156.57060932816378 230.9203650336419 L 156.56710484630653 230.918747580477 Z" id="element_47" /></svg>