<?xml version='1.0' encoding='utf-8'?>
<svg xmlns:svg="http://www.w3.org/2000/svg" version="1.1" id="Layer_1" x="0px" y="0px" viewBox="0 0 500 500" style="width: 180px;" xml:space="preserve" data-imageid="toronto-61" imageName="Toronto" class="illustrations_image"><svg:style type="text/css">
	.st0_toronto-61{fill:#9D602A;}
	.st1_toronto-61{fill:#706767;}
	.st2_toronto-61{fill:#E5E1E1;}
	.st3_toronto-61{fill:#68E1FD;}
	.st4_toronto-61{fill:#A6916D;}
	.st5_toronto-61{opacity:0.49;fill:#39726F;enable-background:new    ;}
	.st6_toronto-61{opacity:0.81;fill:#39726F;enable-background:new    ;}
	.st7_toronto-61{opacity:0.59;fill:#FFFFFF;enable-background:new    ;}
	.st8_toronto-61{fill:#1E4549;}
	.st9_toronto-61{opacity:0.33;fill:#1E4549;enable-background:new    ;}
	.st10_toronto-61{fill:#CCCCCC;}
	.st11_toronto-61{fill:#E0E0E0;}
	.st12_toronto-61{fill:#39726F;}
</svg:style><svg:path class="st1_toronto-61" d="M 252.84619189893195 268.21982978306124 L 252.86769066131143 268.21384585276655 L 252.88917626142145 268.20785181474065 L 252.91064871767057 268.20184830628534 L 252.93210804762984 268.1958359637548 L 252.95355426802476 268.18981542256273 L 252.97498739473983 268.1837873171862 L 252.99640744279998 268.1777522811751 L 253.01781442637667 268.17171094715496 L 253.03920835877545 268.16566394683446 L 253.0605892524364 268.1596119110092 L 253.08195711892913 268.15355546956664 L 253.10331196894256 268.1474952514922 L 253.1246538122923 268.14143188487077 L 253.14598265791054 268.13536599689184 L 253.16729851384272 268.12929821385336 L 253.18860138724986 268.12322916116335 L 253.20989128439942 268.1171594633445 L 253.2311682106687 268.11108974403516 L 253.25243217054333 268.1050206259914 L 253.27368316760908 268.09895273109026 L 253.294921204562 268.09288668032855 L 253.31614628319588 268.08682309382635 L 253.337358404408 268.08076259082674 L 253.35820811747556 268.07366744848963 L 253.3584012756515 268.074245754722 L 253.40385582110602 268.059063630449 L 253.40443008299948 268.05887143647954 L 253.44988462845404 268.0436280939635 L 253.45045819133142 268.0434353614657 L 253.49591273678595 268.0281308007066 L 253.49648559926462 268.02793753202985 L 253.54194014471918 268.0125717530277 L 253.54251230543073 268.01237795052214 L 253.58796685088527 267.99695095327695 L 253.58853830847363 267.9967566192939 L 253.6339928539282 267.98126840380564 L 253.63456360705055 267.98107354069754 L 253.68001815250508 267.9655241069663 L 253.68058819983298 267.9653287170861 L 253.72604274528754 267.94971806511177 L 253.72661208550255 267.9495221508142 L 253.77206663095708 267.93385028059686 L 253.77263526275672 267.9336538442366 L 253.81808980821128 267.9179207557762 L 253.81865773030407 267.9177237997093 L 253.8641122757586 267.9019294930059 L 253.86467948686806 267.9017320195884 L 253.9101340323226 267.88587649464193 L 253.9107005311817 267.88567850623184 L 253.95615507663626 267.8697617630424 L 253.95672086199488 267.8695632619967 L 254.0021754074494 267.8535853005642 L 254.00274047806758 267.8533862892416 L 254.04819502352214 267.83734710956605 L 254.04875937817397 267.8371475903251 L 254.0942139236285 267.8210471924065 L 254.09477756110022 267.82084716760653 L 254.14023210655478 267.8046855514449 L 254.14079502564567 267.8044850234454 L 254.1862495711002 267.7882621890408 L 254.18681177062322 267.78806116020127 L 254.23226631607778 267.7717771075536 L 254.23282779485777 267.771575580234 L 254.2782823403123 267.7552303093433 L 254.27884309718672 267.75502828590396 L 254.32429764264128 267.7386217967702 L 254.32485767646102 267.73841927957113 L 254.37031222191555 267.7219515721943 L 254.3708715315431 267.72174856359607 L 254.41632607699762 267.70521963797626 L 254.41688466130998 267.70501614033856 L 254.46233920676454 267.6884259964757 L 254.46289706465066 267.6882220121585 L 254.5083516101052 267.67157065005256 L 254.5089087404639 267.6713661814168 L 254.55436328591847 267.6546536010679 L 254.55491968766722 267.65444865047186 L 254.60037423312176 267.63767485187986 L 254.60092990518467 267.63746942168405 L 254.64638445063923 267.620634404849 L 254.64693939195578 267.62042849741226 L 254.69239393741032 267.6035322623342 L 254.6929481469329 267.60332588001506 L 254.73840269238747 267.586368426694 L 254.73895616908018 267.5861615718507 L 254.78441071453472 267.5691429002866 L 254.78496345737395 267.5689355752771 L 254.8304180028285 267.55185568546995 L 254.83097001080336 267.5516478926515 L 254.8764245562579 267.5345067846013 L 254.8769758283708 267.53429852633025 L 254.92243037382534 267.51709620003703 L 254.92298090909043 267.5168874786691 L 254.968435454545 267.4996239341328 L 254.96898525198762 267.49941475202365 L 255.01443979744215 267.48208998924434 L 255.01498885610187 267.4818803487481 L 255.06044340155643 267.4644943677258 L 255.0609917204859 267.46428427119554 L 255.10644626594043 267.44683707193013 L 255.10699384420093 267.4466265217192 L 255.1524483896555 267.42911810421083 L 255.15299522632478 267.42890710267017 L 255.1984497717793 267.4113374669187 L 255.19899586594474 267.41112601639935 L 255.2444504113993 267.39349516240486 L 255.24499576216166 267.3932832652561 L 255.2904503076162 267.3755911930186 L 255.2909949140878 267.375378851589 L 255.33644945954237 267.3576255611084 L 255.3369933208479 267.35741277774525 L 255.38244786630244 267.3395982690217 L 255.38299098158018 267.3393850460705 L 255.4284455270347 267.3215093191038 L 255.42898789543173 267.32129565891006 L 255.4744424408863 267.3033587137004 L 255.47498406156518 267.30314461860695 L 255.5204386070197 267.2851464551543 L 255.5209794791543 267.2849319275028 L 255.56643402460887 267.266872545807 L 255.56697414738346 267.2666575879385 L 255.612428692838 267.24853698799967 L 255.6129680654495 267.24832160225316 L 255.65842261090407 267.23013978407135 L 255.65896123256323 267.2299239727838 L 255.70441577801776 267.21168093635896 L 255.70495364794493 267.2114647018666 L 255.7504081933995 267.1931604471987 L 255.75094531082829 267.1929437918355 L 255.79639985628282 267.17457831892455 L 255.79693622045735 267.17436124502336 L 255.84239076591192 267.15593455386943 L 255.84292637609053 267.15571706376033 L 255.88838092154506 267.13722915436335 L 255.88891577699619 267.13701125037545 L 255.93437032245072 267.11846212273537 L 255.93490442245337 267.11824380719617 L 255.98035896790793 267.0996334613131 L 255.98089231175567 267.0994147365473 L 256.02634685721017 267.08074317242125 L 256.02687944420757 267.08052404075175 L 256.0723339896621 267.0617912583826 L 256.07286581912325 267.0615717221312 L 256.1183203645778 267.04277772151903 L 256.11885143583106 267.0425577830043 L 256.1643059812856 267.0237025641491 L 256.16483629366985 267.02348222568816 L 256.21029083912435 267.0045657885899 L 256.21082039198967 267.0043450524976 L 256.25627493744423 266.9853673971563 L 256.256803730153 266.9851462657453 L 256.3022582756076 266.96610739216095 L 256.302786307533 266.96588586774163 L 256.3482408529875 266.9467857759143 L 256.3487681235149 266.94656386079464 L 256.39422266896946 266.92740255072425 L 256.39474917749607 266.92718024720966 L 256.4402037229506 266.90795771889617 L 256.4407294688823 266.9077350292909 L 256.4861840143368 266.8884512827345 L 256.48670899709515 266.8882282093383 L 256.5321635425497 266.8688832445388 L 256.5326877615636 266.86865978965096 L 256.57814230701814 266.84925360660844 L 256.57866576173103 266.8490297725241 L 256.6241203071856 266.82956237123847 L 256.624642997049 266.8293381602516 L 256.6700975425035 266.809809540723 L 256.6706194669827 266.80958495512397 L 256.7160740124373 266.7899951173523 L 256.7165951710074 266.7897701594292 L 256.76204971646195 266.7701191034146 L 256.76257010861104 266.7698937754522 L 256.8080246540656 266.75018150119445 L 256.8085442792897 266.74995580547613 L 256.8539988247442 266.7301823129754 L 256.8545176825532 266.7299562517805 L 256.89997222800775 266.7101215410367 L 256.90049031792154 266.70989511664203 L 256.9459448633761 266.6899991876552 L 256.94646218492574 266.6897724023349 L 256.99191673038024 266.669815255105 L 256.99243328310706 266.6695881111303 L 257.0378878285616 266.64956974565735 L 257.0384036120185 266.6493422452964 L 257.08385815747306 266.62926266158047 L 257.08437317122457 266.62903480709804 L 257.12982771667913 266.60889400513906 L 257.1303419602996 266.6086657987973 L 257.1757965057541 266.58846377859527 L 257.1763099788281 266.58823522265357 L 257.22176452428266 266.5679719842085 L 257.2222772264072 266.5677430809223 L 257.26773177186175 266.5474186242342 L 257.26824370264285 266.5471893758565 L 257.3136982480974 266.52680370092537 L 257.31420940715384 266.52657410970517 L 257.35966395260834 266.506127216531 L 257.3601743395673 266.505897284715 L 257.4056288850219 266.4853891732978 L 257.40613849952274 266.48515890312854 L 257.4515930449773 266.4645895734683 L 257.4521018866695 266.4643589671855 L 257.497556432124 266.4437284192822 L 257.4980645006663 266.44349747912247 L 257.5435190461209 266.4228057129762 L 257.5440263411854 266.4225744411716 L 257.58948088663993 266.4018214567823 L 257.5899874079073 266.4015898555624 L 257.63544195336186 266.38077565292997 L 257.6359477005216 266.3805437245214 L 257.68140224597613 266.359668303646 L 257.68190721873214 266.35943605027006 L 257.7273617641867 266.3384994111516 L 257.7278659622498 266.33826683502764 L 257.77332050770434 266.3172689776661 L 257.7738239307965 266.3170360810095 L 257.81927847625104 266.295977005405 L 257.8197811241059 266.2957437904267 L 257.8652356695604 266.2746234965791 L 257.8657375419196 266.2743899654876 L 257.91119208737416 266.253208453397 L 257.9535886377547 266.2309208776581 L 257.9936580523574 266.2046788211478 L 258.03103262161454 266.17472310233944 L 258.06536936605346 266.1413286192947 L 258.0963531837547 266.1048018269753 L 258.1 266.099557765054 L 258.1 259.24618342849715 L 258.0989316375121 259.17620568554037 L 258.09489123347174 258.91155922089376 L 258.0908508294313 258.64691275624745 L 258.0868104253909 258.38226629160096 L 258.08277002135054 258.1176198269544 L 258.0787296173101 257.85297336230803 L 258.0746892132697 257.5883268976615 L 258.0706488092293 257.3236804330151 L 258.0666084051889 257.0590339683686 L 258.0625680011485 256.7943875037221 L 258.0585275971081 256.5297410390757 L 258.0544871930677 256.26509457442916 L 258.05044678902726 256.0004481097828 L 258.0423659809465 255.47115518048972 L 258.03832557690606 255.20650871584337 L 258.0342851728657 254.9418622511968 L 258.03024476882524 254.67721578655042 L 258.0221639607445 254.14792285725738 L 258.01812355670404 253.88327639261104 L 258.01408315266366 253.61862992796446 L 258.0100427486232 253.35398346331812 L 258.00196194054246 252.82469053402508 L 257.997921536502 252.5600440693787 L 257.98984072842126 252.03075114008567 L 257.9858003243808 251.76610467543932 L 257.98175992034044 251.50145821079275 L 257.9777195163 251.2368117461464 L 257.96963870821924 250.70751881685337 L 257.9655983041788 250.442872352207 L 257.9615579001384 250.17822588756042 L 257.957517496098 249.91357942291407 L 257.9494366880172 249.38428649362103 L 257.9453962839768 249.1196400289747 L 257.9413558799364 248.8549935643281 L 257.93731547589596 248.59034709968174 L 257.9292346678152 248.0610541703887 L 257.92519426377476 247.79640770574235 L 257.9211538597344 247.53176124109578 L 257.91711345569394 247.26711477644943 L 257.9090326476132 246.7378218471564 L 257.90499224357274 246.47317538251002 L 257.90095183953235 246.20852891786345 L 257.8969114354919 245.9438824532171 L 257.88883062741115 245.41458952392406 L 257.8847902233707 245.14994305927772 L 257.88074981933033 244.88529659463114 L 257.8767094152899 244.6206501299848 L 257.8726690112495 244.3560036653383 L 257.86862860720913 244.09135720069173 L 257.8645882031687 243.82671073604538 L 257.85650739508793 243.29741780675235 L 257.8524669910475 243.032771342106 L 257.8484265870071 242.76812487745943 L 257.8443861829667 242.50347841281305 L 257.8363053748859 241.97418548352002 L 257.8322649708455 241.70953901887367 L 257.8282245668051 241.4448925542271 L 257.82418416276465 241.18024608958075 L 257.8161033546839 240.6509531602877 L 257.81206295064345 240.38630669564134 L 257.80802254660307 240.12166023099476 L 257.80398214256263 239.85701376634842 L 257.80249485275334 239.75959628384118 L 257.80052308698845 239.76298939659114 L 257.7958568125711 239.77085294540328 L 257.7913749982025 239.77825066507526 L 257.78653021897674 239.78608378492348 L 257.78191854772905 239.79338874968175 L 257.77689281682245 239.80118832041418 L 257.77215190706164 239.80839805679443 L 257.76694283980726 239.8161606819972 L 257.76207330989945 239.823272716535 L 257.7566786057115 239.83099471624456 L 257.7516810740228 239.8380065754756 L 257.74609853964125 239.84568398008517 L 257.7409736245378 239.85259319054504 L 257.7352011985997 239.86022173609354 L 257.72994951844754 239.8670258243179 L 257.72398529730873 239.87460094937327 L 257.7186074704739 239.88129744189774 L 257.71244973521 239.8888142862073 L 257.70694638005864 239.8954007095675 L 257.70059362452 239.90285411469387 L 257.69496535941823 239.90932799542549 L 257.6884163192078 239.91671250755516 L 257.68266376252166 239.9230713721938 L 257.67591744472884 239.9303812473114 L 257.6700412148245 239.93662262239272 L 257.6630969282674 239.94385183405961 L 257.65709764351084 239.94997324611919 L 257.62427870429553 239.98058287131795 L 257.5888473344267 240.00812647230336 L 257.5510889735447 240.0323821543085 L 257.51130780782677 240.05315451046152 L 257.4658835623105 240.07433602255205 L 257.4202433919336 240.09558458255563 L 257.3746526773283 240.1167754637112 L 257.3291095480494 240.13790865496316 L 257.2836121350685 240.15898414406112 L 257.2381585707921 240.18000191755615 L 257.19274698908515 240.20096196079555 L 257.14737552528817 240.22186425792069 L 257.1020423162374 240.2427087918644 L 257.0567455002854 240.2634955443488 L 257.01148321731563 240.28422449588635 L 256.9662536087654 240.30489562577768 L 256.92105481763804 240.32550891211494 L 256.8758849885255 240.34606433178146 L 256.83074226761954 240.3665618604565 L 256.78562480273234 240.387001472617 L 256.7405307433077 240.4073831415436 L 256.6954582404397 240.4277068393247 L 256.650405446885 240.44797253686332 L 256.60537051707524 240.46818020388451 L 256.56035160713304 240.48832980894252 L 256.51534687488174 240.50842131943043 L 256.47035447985786 240.52845470158974 L 256.42537258332237 240.54842992052093 L 256.42491088543477 240.5486346659379 L 256.3803993482694 240.56834694019562 L 256.3799296358171 240.5685546674535 L 256.33543293943796 240.58820572346818 L 256.3349552340098 240.58841639431824 L 256.29047152331856 240.6080062320899 L 256.28998584826235 240.60821980719484 L 256.2455132681607 240.62774842672346 L 256.24501964859303 240.6279648656715 L 256.2005563439828 240.64743226695708 L 256.2000548067915 240.6476515282793 L 256.1555989225744 240.66705771132186 L 256.1550894964264 240.6672797525085 L 256.1106391775041 240.686624717308 L 256.11012189284963 240.6868494948261 L 256.06567528412387 240.7061332413826 L 256.0651501731983 240.70636071069544 L 256.0207054195708 240.72558323900887 L 256.0201725163994 240.7258133545946 L 255.97572776277187 240.74497466466502 L 255.9751871031694 240.745207380038 L 255.93074049444363 240.76430747186535 L 255.9301921160182 240.7645427395959 L 255.88574179709587 240.78358161318025 L 255.8851857392441 240.78381938491864 L 255.84072985502698 240.80279704025992 L 255.8401661589379 240.80303726675703 L 255.79570285432766 240.82195370385529 L 255.7951315629771 240.8221963349876 L 255.7506589828755 240.84105155384285 L 255.75008014102355 240.8412965386365 L 255.70559643033232 240.86009053924866 L 255.70501008452118 240.8603378259036 L 255.66051338814202 240.87907060827274 L 255.65991958668818 240.8793201441896 L 255.6154080495228 240.89799170831571 L 255.61480684251225 240.89824344012175 L 255.57027860946243 240.91685378600482 L 255.56967004874357 240.91710765958078 L 255.52512326471103 240.9356567872208 L 255.52450740388622 240.935912747729 L 255.47994021377266 240.954400657126 L 255.479317108188 240.95465864903886 L 255.43472765689515 240.97308534019282 L 255.43409736363213 240.97334530732118 L 255.38948379606174 240.9917107802321 L 255.3888463739239 240.9919726657554 L 255.34420683497765 241.0102769204233 L 255.343562344479 241.01054066691944 L 255.29889497905867 241.0287837033443 L 255.29824348241033 241.02904925281996 L 255.2535464354176 241.0472310710018 L 255.25288799651236 241.0474983649241 L 255.20815941284897 241.0656189648629 L 255.2074940972468 241.06588794419025 L 255.16273212181449 241.083947325886 L 255.16205999672542 241.08421793110043 L 255.11726277442588 241.10221609455314 L 255.11658390869135 241.10248826569276 L 255.07174958442639 241.12042521090243 L 255.0710640485013 241.12069888759387 L 255.02619076717255 241.1385746145605 L 255.02549863310628 241.13884973605167 L 254.9805845396155 241.15666424477527 L 254.9798858810287 241.1569407499695 L 254.93492912027764 241.17469404045008 L 254.93422401234164 241.17497186793915 L 254.88922272923202 241.19266394017666 L 254.88851124864712 241.19294302827421 L 254.84346358808062 241.2105738822687 L 254.8427458130497 241.21085416904504 L 254.7976499199281 241.2284238047965 L 254.79692593013243 241.22870522811255 L 254.75177994935743 241.24621364562094 L 254.75104982593277 241.2464961431616 L 254.70585190240612 241.26394334242698 L 254.70511572791227 241.26422685173702 L 254.65986400653566 241.28161283275938 L 254.65912186493114 241.28189729127664 L 254.6138144906063 241.29922205405595 L 254.6130664672191 241.29950739914597 L 254.5677015848478 241.31677094368223 L 254.5669477663452 241.31705711267293 L 254.52152352082913 241.33425943896617 L 254.52076399518683 241.3345463691822 L 254.47527853142773 241.3516874772324 L 254.47451338789898 241.35197510602893 L 254.42896485079854 241.36905499583608 L 254.42819417988247 241.36934326063306 L 254.38258071434248 241.3863619321972 L 254.38180460774814 241.38665077051385 L 254.33612435867028 241.40360822383494 L 254.3353429092863 241.4038975733225 L 254.2895940215723 241.42079380840056 L 254.2888073234293 241.42108360687666 L 254.2429879419809 241.43791862371168 L 254.2421960902172 241.43820880919307 L 254.1963043599361 241.45498260778504 L 254.1955074507619 241.4552731185204 L 254.14954151654987 241.47198569886936 L 254.1487396472086 241.47227647337257 L 254.10269765396734 241.48892783547848 L 254.10189092270016 241.48921881255995 L 254.0557710153314 241.50580895642284 L 254.05495952133683 241.50610007522212 L 254.00875984474231 241.52262900084193 L 254.0079436881402 241.5229202008581 L 253.9616623872216 241.53938790823491 L 253.9608416690096 241.53967912935894 L 253.91447688866867 241.5560856184927 L 253.9136517106874 241.55637680103598 L 253.8672015958259 241.5727220719267 L 253.8663720607138 241.57301315665265 L 253.81983475623343 241.58929720930036 L 253.81900096738815 241.58958813745298 L 253.77237461819064 241.60581097185764 L 253.77153667972806 241.60610168519003 L 253.72481943071512 241.62226330135164 L 253.72397744742665 241.62255374215445 L 253.67716744350003 241.63865414007302 L 253.67632152081086 241.63894425120208 L 253.62941690687225 241.65498343087762 L 253.62856715079852 241.6552731557806 L 253.5815660717497 241.6712511172131 L 253.58071258885653 241.67154039995566 L 253.53361318959918 241.68745714314514 L 253.532756086957 241.68774592843653 L 253.48555651239286 241.70360145338296 L 253.48469589753523 241.70388968660052 L 253.43739429256604 241.71968399330393 L 253.43653027344453 241.71997162051758 L 253.389124782972 241.73570470897792 L 253.38825746791605 241.73599167697242 L 253.3407462368419 241.75166354718976 L 253.33987573451034 241.75194980348869 L 253.29225690773634 241.76756045546296 L 253.2913833270792 241.76784594834862 L 253.24365504950703 241.78339538207987 L 253.24277849971782 241.78368006061552 L 253.1949389162492 241.79916827610376 L 253.19405950672282 241.79945209015318 L 253.1461067622595 241.81487908739834 L 253.14522460255031 241.81516198764433 L 253.09715684199404 241.83052776664647 L 253.09627204176917 241.8308097046105 L 253.04808741002162 241.8461142653696 L 253.04720007902 241.8463951934283 L 252.99889672098294 241.86163853594437 L 252.99800696897188 241.86191840734637 L 252.94958302954703 241.8771005316194 L 252.9494455054315 241.87666189343412 L 252.9373584044075 241.88076259082698 L 252.91614628319536 241.88682309382656 L 252.89492120456268 241.89288668032842 L 252.87368316760976 241.89895273109022 L 252.8524321705428 241.90502062599163 L 252.83116821066938 241.91108974403508 L 252.8098912843989 241.91715946334472 L 252.78860138724994 241.9232291611634 L 252.7672985138434 241.9292982138533 L 252.74598265791062 241.93536599689196 L 252.7246538122924 241.9414318848709 L 252.70331196894205 241.94749525149248 L 252.6819571189286 241.95355546956688 L 252.66058925243706 241.95961191100912 L 252.63920835877613 241.9656639468344 L 252.61781442637616 241.9717109471552 L 252.59640744280006 241.97775228117516 L 252.5749873947399 241.98378731718628 L 252.55355426802544 241.98981542256266 L 252.53210804762932 241.99583596375504 L 252.51064871767124 242.0018483062853 L 252.48917626142153 242.00785181474075 L 252.46769066131088 242.0138458527668 L 252.44619189893203 242.01982978306128 L 252.42467995505078 242.02580296736633 L 252.4031548096079 242.03176476646206 L 252.38161644173155 242.03771454015774 L 252.3600648297402 242.04365164728483 L 252.33849995115244 242.04957544568825 L 252.3169217826973 242.0554852922171 L 252.2953303003192 242.06138054271685 L 252.2737254791887 242.06726055201958 L 252.2521072937141 242.07312467393385 L 252.23047571754762 242.07897226123598 L 252.2088307235981 242.08480266565917 L 252.18717228404074 242.0906152378834 L 252.1655003703312 242.09640932752404 L 252.1438149532106 242.10218428312254 L 252.1433281239385 242.10231366049558 L 252.1221160027264 242.107939452133 L 252.12161560945023 242.10807188718633 L 252.1004034882381 242.11367418091228 L 252.0998894996456 242.11380963725938 L 252.07867737843347 242.11938781470778 L 252.07814976255364 242.11952625484034 L 252.05693764134153 242.12507969764508 L 252.05639636555895 242.12522108292112 L 252.03518424434682 242.13074917271612 L 252.0346292754152 242.13089346334735 L 252.01341715420307 242.1363955817665 L 252.01284845826441 242.13654273680484 L 251.9916363370523 242.1420182654821 L 251.99105387964303 242.14216824280908 L 251.9698417584309 242.14761656337828 L 251.96924550451286 242.1477693196879 L 251.94803338330075 242.15318981378303 L 251.94742329726304 242.15334530457247 L 251.9262111760509 242.1587373538274 L 251.92558722173624 242.15889553338087 L 251.9043751005241 242.1642585194295 L 251.9037372412459 242.1644193408048 L 251.8825251200338 242.16975264528105 L 251.88187331859166 242.1699160602964 L 251.86066119737953 242.17521906483418 L 251.85999541608055 242.1753850240534 L 251.83878329486842 242.18065711028663 L 251.83810349554676 242.18082556300504 L 251.81689137433466 242.1860661125676 L 251.8161975183714 242.1862370067975 L 251.79498539715928 242.1914454013233 L 251.7942774455062 242.19161868377893 L 251.77306532429407 242.1967943049019 L 251.77234323748974 242.19696992098588 L 251.75113111627763 242.20211215033993 L 251.75039485447547 242.2022900441272 L 251.72918273326334 242.20739826334622 L 251.72843225625425 242.2075783775691 L 251.70722013504212 242.21265196828702 L 251.7064554022727 242.21283424432153 L 251.6852432810606 242.2178725881722 L 251.68446425166695 242.21805696602078 L 251.66325213045482 242.2230594446382 L 251.6624587632783 242.2232458629167 L 251.64124664206616 242.22821185793475 L 251.64043889568654 242.2284002538556 L 251.61922677447444 242.23332914690815 L 251.61840460723377 242.23351945626575 L 251.59719248602164 242.23841062898674 L 251.59635585605213 242.23860278614208 L 251.57514373484003 242.2434556201654 L 251.5742926000921 242.24364955803088 L 251.55308047887996 242.24846343499044 L 251.5522147971542 242.248659085014 L 251.53100267594206 242.25343338654375 L 251.5301224049129 242.25363067869503 L 251.5089102837008 242.2583647864288 L 251.50801538095675 242.25856364918192 L 251.48680325974462 242.26325694475372 L 251.48589368280926 242.2634573050745 L 251.46468156159713 242.26810917011815 L 251.4637572679718 242.26831095344698 L 251.4425451467597 242.27292076959642 L 251.4416060939499 242.27312389983484 L 251.42039397273777 242.277691048724 L 251.41944011829065 242.27789544821928 L 251.39822799707852 242.28241931148207 L 251.39725929861504 242.28262490101335 L 251.37604717740294 242.28710486028362 L 251.37506359266 242.2873115590462 L 251.35385147144788 242.2917469959579 L 251.35285295830943 242.29195472155035 L 251.33164083709732 242.29634501773742 L 251.33062735363256 242.2965536861476 L 251.30941523242043 242.3008982232439 L 251.30838673692736 242.3011077488343 L 251.28717461571523 242.30540590847374 L 251.28613106675772 242.3056162039687 L 251.26491894554562 242.30986736778522 L 251.26386030199052 242.31007834425864 L 251.2426481807784 242.31428189388612 L 251.2415744018447 242.3144934607472 L 251.22036228063257 242.31864877781956 L 251.21927332592853 242.3188608428017 L 251.19806120471642 242.32296730895288 L 251.19695703428323 242.32317977810166 L 251.1757449130711 242.3272367749655 L 251.17462548743242 242.3274495526263 L 251.1534133662203 242.33145646183675 L 251.15227864642245 242.33166945064477 L 251.13106652521034 242.33562565383573 L 251.12991647287217 242.335838754705 L 251.10870435166004 242.3397436335104 L 251.10753892901897 242.3399567456239 L 251.08632680780687 242.34380968167764 L 251.08514597776798 242.34402270247807 L 251.06393385655585 242.34782307741403 L 251.06273758274315 242.34803590259457 L 251.04152546153102 242.3517830980467 L 251.040313708335 242.35199562154347 L 251.0191015871229 242.35568901914564 L 251.01787431975484 242.35590113312983 L 250.9966621985427 242.359540114516 L 250.99541938308522 242.35975170938744 L 250.97420726187312 242.36333565619145 L 250.97294886533737 242.3635466205721 L 250.95173674412524 242.36707491442792 L 250.9504627345001 242.36728513515752 L 250.92925061328796 242.37075715769902 L 250.92796095960176 242.3709665198298 L 250.90674883838966 242.37438165269091 L 250.90544351076161 242.374590039485 L 250.88423138954948 242.37794766429963 L 250.88291035925164 242.3781549572258 L 250.8616982380395 242.38145445562785 L 250.8603614775517 242.38166053436055 L 250.8391493563396 242.38490128798392 L 250.83779683941106 242.38510603040223 L 250.81658471819892 242.38828742088083 L 250.81521641990915 242.38849070306912 L 250.79400429869705 242.39161211203685 L 250.7926201955171 242.39181380828617 L 250.77140807430496 242.39487461737698 L 250.77132439283014 242.39429468523008 L 250.75047433719914 242.39744581743577 L 250.7016835112265 242.39999716578194 L 250.6942763118511 242.4000221061299 L 250.68855347106046 242.40007991719025 L 250.68283232484018 242.4001762535338 L 250.67711372007295 242.4003110920235 L 250.6713985031922 242.40048440026328 L 250.66568751998807 242.40069613659557 L 250.65998161547648 242.4009462500957 L 250.65428163372906 242.40123468056692 L 250.6485884177001 242.40156135853456 L 250.642902809089 242.40192620523783 L 250.63722564814736 242.40232913262344 L 250.63155777352517 242.40277004333663 L 250.62590002210248 242.40324883071196 L 250.62025322881092 242.40376537876477 L 250.61461822644685 242.40431956218254 L 250.60899584551854 242.40491124631302 L 250.60338691402313 242.40554028715871 L 250.59779225729767 242.40620653136378 L 250.59221269778973 242.40690981620966 L 250.58664905489343 242.4076499696032 L 250.5811021447195 242.40842681007322 L 250.57557277991123 242.4092401467617 L 250.57006176941633 242.41008977942133 L 250.56456991826502 242.41097549841362 L 250.55909802736724 242.41189708470466 L 250.5536468932578 242.4128543098705 L 250.54821730788728 242.41384693609658 L 250.5428100583409 242.4148747161913 L 250.53742592662493 242.41593739358976 L 250.5320656893945 242.4170347023702 L 250.5267301176885 242.4181663672722 L 250.52141997666484 242.41933210371732 L 250.51613602529753 242.42053161784182 L 250.51087901613212 242.4217646065194 L 250.50564969495662 242.4230307574073 L 250.5004488005051 242.42432974898944 L 250.49527706415253 242.42566125062652 L 250.4901352095976 242.42702492261378 L 250.4850239525253 242.42842041625036 L 250.47994400025908 242.4298473739175 L 250.47489605145978 242.43130542915074 L 250.46988079571827 242.43279420674864 L 250.46489891321352 242.43431332287173 L 250.45995107436508 242.4358623851507 L 250.45503793939776 242.43744099283035 L 250.4501601580152 242.43904873689027 L 250.4453183689535 242.44068520021318 L 250.4405131995888 242.44234995774787 L 250.4357452655442 242.4440425766838 L 250.43101517024087 242.44576261665765 L 250.42632350447033 242.4475096299663 L 250.42167084597318 242.44928316179215 L 250.41705775897427 242.45108275045942 L 250.41248479375272 242.45290792769404 L 250.40795248616288 242.45475821891964 L 250.40346135717644 242.45663314356372 L 250.39901191242765 242.458532215382 L 250.39460464171952 242.46045494281893 L 250.39024001855338 242.46240082938073 L 250.3859184996594 242.46436937403027 L 250.3816405244883 242.46636007162343 L 250.3774065147576 242.4683724133459 L 250.37321687393418 242.47040588720614 L 250.36907198678233 242.47245997852525 L 250.36497221885756 242.474534170482 L 250.36091791602936 242.47662794467482 L 250.35690940401972 242.47874078170736 L 250.35294698791614 242.48087216182103 L 250.349030951723 242.48302156554226 L 250.3451615579039 242.48518847437097 L 250.34133904692447 242.48737237150712 L 250.33756363684648 242.48957274258822 L 250.33383552288538 242.49178907648846 L 250.3301548770298 242.494020866125 L 250.32652184764504 242.49626760931744 L 250.32293655910794 242.49852880967495 L 250.3193991114853 242.5008039775035 L 250.3159095801941 242.50309263077304 L 250.3124680157178 242.50539429610058 L 250.30907444336648 242.50770850975508 L 250.3057288630146 242.5100348187314 L 250.3024312489459 242.5123727818063 L 250.2991815496552 242.51472197067991 L 250.2959796877628 242.51708197109602 L 250.29282555993143 242.51945238401808 L 250.28971903683131 242.52183282682998 L 250.2866599631559 242.52422293455962 L 250.28364815770425 242.5266223611131 L 250.28068341348344 242.5290307805553 L 250.277765497907 242.53144788837713 L 250.27489415301142 242.53387340281117 L 250.27206909575665 242.53630706614175 L 250.26929001839778 242.53874864601838 L 250.26655658889638 242.5411979367976 L 250.26386845142187 242.54365476086966 L 250.2612252269099 242.54611896999552 L 250.25862651369457 242.54859044663834 L 250.25607188823287 242.55106910526814 L 250.25176628703971 242.5553315062057 L 250.21737886575596 242.58635560766163 L 250.18594524256108 242.60982604550736 L 250.1865820010451 242.61147100492445 L 250.18837289125275 242.61592227551296 L 250.19032478079234 242.62059867753484 L 250.19244205194641 242.62549663147132 L 250.1947287896431 242.6306124741389 L 250.19718879283624 242.63594248105738 L 250.19982558643335 242.6414828866513 L 250.20264243359435 242.6472299024108 L 250.20564234820293 242.65317973305116 L 250.2088281074341 242.65932859092212 L 250.21220226424057 242.66567270866756 L 250.21576715969434 242.67220835033282 L 250.21952493510267 242.67893182103887 L 250.22347754380965 242.685839475303 L 250.22762676267087 242.6929277241909 L 250.23197420309583 242.70019304129752 L 250.2365213217223 242.7076319678224 L 250.24126943059363 242.71524111665465 L 250.24621970691797 242.72301717571412 L 250.25137320234032 242.7309569105315 L 250.25673085175586 242.73905716619547 L 250.26229348167075 242.74731486874353 L 250.2680618180808 242.75572702600817 L 250.27403649394006 242.76429072807315 L 250.28021805614318 242.7730031472652 L 250.2866069721513 242.78186153790057 L 250.29320363614414 242.79086323564078 L 250.29597751526032 242.79459004601796 L 250.3148402002313 242.81819847159616 L 250.31523520896818 242.81869350476447 L 250.33938508441892 242.84899797792173 L 250.3397903049232 242.84950714837305 L 250.36387772539877 242.87981409499466 L 250.3642931151432 242.88033745857618 L 250.38831746227743 242.91064811539434 L 250.38874297595993 242.9111857275392 L 250.41270363138676 242.94150133128608 L 250.41313922090865 242.94205324697418 L 250.43703556626198 242.97237503438197 L 250.43748118070383 242.97294130809595 L 250.4613125976176 243.00327051589684 L 250.46176818321717 243.00385120157796 L 250.48553405332527 243.03418906650413 L 250.4859995534558 243.0347842175068 L 250.5096992583921 243.06513197629044 L 250.5101746135398 243.0657416453334 L 250.53380753493826 243.09610053470666 L 250.53429268268565 243.09672477382887 L 250.55785820218014 243.12709603052397 L 250.5583530771824 243.12773489102963 L 250.58185057640688 243.15811975177874 L 250.5823551103771 243.1587732841909 L 250.60578397096543 243.18917298572617 L 250.60629809265473 243.18984123973132 L 250.62965769624086 243.220257018785 L 250.63018133142398 243.22094004318214 L 250.65347105964176 243.25137313648636 L 250.65400413109947 243.2520709791293 L 250.67722336558288 243.28252262341627 L 250.67776579309051 243.28323533116108 L 250.7009139154734 243.31370676316297 L 250.7014656157854 243.31443438180767 L 250.7245420077017 243.34492683825667 L 250.72510289454175 243.34566941248514 L 250.74810693762538 243.37618413011342 L 250.748676921675 243.37694170343477 L 250.77160799755987 243.4074799189745 L 250.7721869864497 243.4082525336625 L 250.7950444767697 243.4388154838459 L 250.79563237507196 243.4396031808778 L 250.818415661461 243.47019210243704 L 250.81901237068269 243.47099492142962 L 250.8417208347747 243.5016110510969 L 250.84232625335406 243.50242903024406 L 250.8649592767829 243.53307360475148 L 250.86557330008583 243.5339067807588 L 250.88813026448548 243.56458103683863 L 250.88875278480438 243.5654294448578 L 250.91123307180868 243.5961346192422 L 250.91186397836174 243.59699829280297 L 250.93426696960466 243.6277356222241 L 250.93490614854073 243.62861459317048 L 250.95723122565613 243.65938531436055 L 250.95787856005512 243.66027961277774 L 250.98012510467694 243.69108496246892 L 250.98078047455908 243.69199461661887 L 251.0029478683212 243.72283583154336 L 251.00361115065192 243.72376086779113 L 251.02569877518826 243.75463918468105 L 251.02636984389082 243.7555796274284 L 251.0483770808353 243.78649628301602 L 251.04905580680042 243.78745215462735 L 251.07098203778696 243.8184083856448 L 251.07166828888816 243.81937970637787 L 251.09351289555065 243.85037674955734 L 251.09420653665987 243.85136353749064 L 251.11596890063223 243.88240262956433 L 251.11666979363883 243.88340490052576 L 251.13834929655494 243.91448727822583 L 251.13905730038513 243.9155050457189 L 251.16065332387893 243.94663194577754 L 251.161368294521 243.9476652209116 L 251.18288022022637 243.978837880061 L 251.18360201075342 243.97988667147527 L 251.20502922030428 244.0111063264476 L 251.2057576809045 244.0121706402417 L 251.22709955593479 244.04343852776915 L 251.2278345339402 244.0445183674287 L 251.2490904560838 244.07583572424346 L 251.24983179600352 244.07693109056805 L 251.27100114689432 244.1082991534023 L 251.27174869044975 244.10941004443345 L 251.2928308517217 244.14083005001933 L 251.29358443788553 244.14195646097022 L 251.3145787911725 244.17342964603998 L 251.31533825620696 244.1745715692206 L 251.3362441831429 244.2060991705064 L 251.33700936064542 244.20725659525684 L 251.3578262428642 244.23883984949083 L 251.35859696381186 244.2400127621086 L 251.3793241829474 244.271652906023 L 251.38010027574555 244.27284128969427 L 251.40073721343177 244.30453956002125 L 251.40151850396583 244.305743394753 L 251.42206454183662 244.33750102822472 L 251.42285085352566 244.33872029077637 L 251.44330537321497 244.37053852412507 L 251.44409652706906 244.37177318794326 L 251.46445891021074 244.40365325790108 L 251.4652547248889 244.404903293052 L 251.48552435311692 244.43684643635112 L 251.48632464499212 244.43811180946096 L 251.50650089994033 244.47011926283358 L 251.50730548316147 244.47139993702095 L 251.5273877464638 244.50347293719923 L 251.52819643302524 244.50476887201748 L 251.54818408631564 244.53690865573364 L 251.5489966861282 244.53821980711186 L 251.5688891110405 244.57042761109807 L 251.5697054320024 244.5717539312803 L 251.58950201017058 244.60403099226872 L 251.59032185824648 244.60537242976315 L 251.6100219713044 244.63771998448598 L 251.6108451506009 244.63907648400613 L 251.63044818018253 244.67149576919553 L 251.63127449303252 244.67286727161382 L 251.6507798207717 244.705359524002 L 251.65160906781577 244.7067459662966 L 251.67101607534642 244.73931242261574 L 251.67184805562025 244.74071373782473 L 251.69115612457634 244.773355634807 L 251.6919906356015 244.77477175198732 L 251.71119914761687 244.80749032636493 L 251.71203598548834 244.80892117054347 L 251.73114432219694 244.84171765904856 L 251.73198328168195 244.8431631511914 L 251.75099082471763 244.87603879055615 L 251.75183169934766 244.87749884752495 L 251.77073783034442 244.9104548744816 L 251.7715804125173 244.9119294090061 L 251.79038451310896 244.94496706028679 L 251.79122859418695 244.94645598092941 L 251.80993004600748 244.97957649326634 L 251.8107754164227 244.9810797043994 L 251.82937360110597 245.01428431452473 L 251.83022005046374 245.0158017163032 L 251.84871434964367 245.04909166094913 L 251.84956166683045 245.0506231492914 L 251.86795146214098 245.0839996651901 L 251.8687994354334 245.08554513176105 L 251.88708410850842 245.11900945564471 L 251.88793252568408 245.12056878784162 L 251.90611145815745 245.15412215644244 L 251.9069601066063 245.15569523738327 L 251.925032680112 245.18933888743342 L 251.92588134695208 245.19092559595325 L 251.943846943124 245.22466076418488 L 251.9446954153161 245.2262609748318 L 251.9625534157881 245.26008889797714 L 251.96340148025214 245.26170248101226 L 251.9811512666582 245.2956243958035 L 251.98199871039216 245.29725121720787 L 251.99963966436616 245.33126836037715 L 252.00048627456496 245.33290828185991 L 252.01801777774077 245.36702189013943 L 252.0188633419154 245.36867476914924 L 252.036284775927 245.40288607927116 L 252.03712908202783 245.40455176901742 L 252.05443982850906 245.43886201771394 L 252.05528266504447 245.44054036718234 L 252.0724821056293 245.47495079118568 L 252.07332326178997 245.47664164516752 L 252.09041077811227 245.5111534812098 L 252.09125004389355 245.51285668033097 L 252.10822501758722 245.54747116514443 L 252.10906218390994 245.54918654589537 L 252.12592399660892 245.58390491621213 L 252.12675885544522 245.5856323109911 L 252.1435068887834 245.6204558035434 L 252.14433923327732 245.62219504069412 L 252.1609728688886 245.6571248922141 L 252.16180249347897 245.6588757960727 L 252.1783211129973 245.69391324329257 L 252.17914781354145 245.6956756342407 L 252.1955507986007 245.73082191389264 L 252.19637437249386 245.73259560840776 L 252.21266110472794 245.76785195722397 L 252.21348135102565 245.76963676794054 L 252.2296512120685 245.80500442265316 L 252.23046793160668 245.80680015842572 L 252.24652030309218 245.84228035576695 L 252.24733329860572 245.8440868217358 L 252.26326756216775 245.87968079843782 L 252.26407663840786 245.8814977960991 L 252.2798921756804 245.9172067888941 L 252.2806971395329 245.91903411617793 L 252.29639333214982 245.9548593617981 L 252.29719399274828 245.9566968131437 L 252.3127702223435 245.9926395483212 L 252.3135663911838 245.99448691476206 L 252.3290220393912 246.0305483762291 L 252.32981353044212 246.03240544547708 L 252.34514797889565 246.06858686996583 L 252.3459346087097 246.07045342650443 L 252.3476383321241 246.07451910282532 L 252.35238588115527 246.08300966051047 L 252.3573967077149 246.0923988281794 L 252.36629113581034 246.1098822391999 L 252.37089384074977 246.1193864229618 L 252.3790691554875 246.13714459308716 L 252.38327054083368 246.14676131947766 L 252.39069766737234 246.1647034769175 L 252.39450453515227 246.1744302724723 L 252.40116583896696 246.19246445426657 L 252.40458499120766 246.2022988455212 L 252.41047428111096 246.22033412484194 L 252.41351251983943 246.23027363833214 L 252.41863461063906 246.24822221202882 L 252.42129873788232 246.25826437429012 L 252.4256686271464 246.27604340778316 L 252.42796544493143 246.28618574535128 L 252.43160718153194 246.3037188979197 L 252.43354349188576 246.31395893733026 L 252.43648882750153 246.3311775213165 L 252.43807143245112 246.34151278910508 L 252.4403583506417 246.35835654713472 L 252.44159405221413 246.368784569837 L 252.44326526430893 246.38520208175981 L 252.4441608645311 246.39572038591143 L 252.44498408576553 246.40764006978424 L 252.4937696182936 246.39246153254516 L 252.4999417385223 246.39236730170194 L 252.50802254660312 246.92166023099486 L 252.5120629506435 247.18630669564138 L 252.5161033546839 247.4509531602878 L 252.52822456680514 248.2448925542272 L 252.53226497084552 248.5095390188737 L 252.54034577892634 249.03883194816657 L 252.54438618296675 249.30347841281306 L 252.54842658700716 249.56812487745952 L 252.55246699104754 249.83277134210604 L 252.56862860720918 250.89135720069183 L 252.57266901124956 251.15600366533837 L 252.5888306274112 252.21458952392416 L 252.59287103145158 252.47923598857068 L 252.596911435492 252.74388245321708 L 252.6009518395324 253.00852891786357 L 252.60903264761322 253.5378218471565 L 252.6130730516536 253.802468311803 L 252.62519426377483 254.59640770574234 L 252.62923466781524 254.86105417038883 L 252.63327507185562 255.12570063503534 L 252.64539628397685 255.91964002897467 L 252.64943668801726 256.1842864936212 L 252.65347709205764 256.4489329582677 L 252.65751749609805 256.7135794229141 L 252.66155790013846 256.97822588756054 L 252.66559830417887 257.24287235220703 L 252.66963870821928 257.50751881685346 L 252.67367911225966 257.7721652815 L 252.67771951630007 258.03681174614644 L 252.68175992034048 258.3014582107929 L 252.6858003243809 258.56610467543936 L 252.6898407284213 258.8307511400858 L 252.69388113246168 259.09539760473234 L 252.6979215365021 259.3600440693787 L 252.7060023445829 259.8893369986717 L 252.7100427486233 260.1539834633182 L 252.7140831526637 260.4186299279646 L 252.7181235567041 260.68327639261105 L 252.72216396074452 260.94792285725754 L 252.72620436478493 261.21256932190397 L 252.73024476882532 261.4772157865505 L 252.73428517286573 261.74186225119695 L 252.73832557690613 262.0065087158434 L 252.74236598094654 262.27115518048987 L 252.74640638498695 262.5358016451363 L 252.75044678902734 262.80044810978285 L 252.75448719306775 263.0650945744293 L 252.75852759710816 263.3297410390757 L 252.76256800114857 263.5943875037222 L 252.76660840518898 263.85903396836864 L 252.77064880922936 264.1236804330152 L 252.77468921326977 264.38832689766156 L 252.77872961731018 264.65297336230805 L 252.7827700213506 264.9176198269545 L 252.786810425391 265.18226629160097 L 252.79085082943138 265.4469127562475 L 252.7948912334718 265.7115592208939 L 252.7989316375122 265.9762056855404 L 252.8029720415526 266.2408521501868 L 252.80701244559302 266.5054986148333 L 252.8110528496334 266.7701450794798 L 252.81913365771422 267.2994380087727 L 252.82317406175463 267.56408447341914 L 252.82721446579504 267.82873093806563 L 252.83125486983542 268.0933774027121 L 252.83324034488874 268.22342601870423 L 252.84619189893195 268.21982978306124 Z" id="element_66" /></svg>