<?xml version='1.0' encoding='utf-8'?>
<svg xmlns:svg="http://www.w3.org/2000/svg" version="1.1" id="Layer_1" x="0px" y="0px" viewBox="0 0 500 500" style="width: 180px;" xml:space="preserve" data-imageid="toronto-61" imageName="Toronto" class="illustrations_image"><svg:style type="text/css">
	.st0_toronto-61{fill:#9D602A;}
	.st1_toronto-61{fill:#706767;}
	.st2_toronto-61{fill:#E5E1E1;}
	.st3_toronto-61{fill:#68E1FD;}
	.st4_toronto-61{fill:#A6916D;}
	.st5_toronto-61{opacity:0.49;fill:#39726F;enable-background:new    ;}
	.st6_toronto-61{opacity:0.81;fill:#39726F;enable-background:new    ;}
	.st7_toronto-61{opacity:0.59;fill:#FFFFFF;enable-background:new    ;}
	.st8_toronto-61{fill:#1E4549;}
	.st9_toronto-61{opacity:0.33;fill:#1E4549;enable-background:new    ;}
	.st10_toronto-61{fill:#CCCCCC;}
	.st11_toronto-61{fill:#E0E0E0;}
	.st12_toronto-61{fill:#39726F;}
</svg:style><svg:path class="st1_toronto-61" d="M 248.90813906955847 226.83692562759094 L 248.91217947359885 227.10157209223746 L 248.91621987763926 227.36621855688392 L 248.92026028167967 227.6308650215304 L 248.9283410897605 228.16015795082328 L 248.93238149380088 228.4248044154698 L 248.9445027059221 229.21874380940918 L 248.94854310996251 229.4833902740556 L 248.9525835140029 229.74803673870213 L 248.96874513016454 230.8066225972879 L 248.97278553420492 231.07126906193443 L 248.97682593824533 231.3359155265809 L 248.98086634228574 231.60056199122738 L 248.98894715036656 232.12985492052024 L 248.99298755440694 232.39450138516676 L 249.00914917056858 233.45308724375255 L 249.01318957460896 233.7177337083991 L 249.0293511907706 234.77631956698488 L 249.03339159481098 235.0409660316314 L 249.0374319988514 235.30561249627786 L 249.0414724028918 235.57025896092435 L 249.04955321097262 236.0995518902172 L 249.053593615013 236.36419835486373 L 249.06571482713423 237.1581377488031 L 249.06975523117464 237.42278421344955 L 249.07379563521502 237.68743067809606 L 249.0852573066288 238.43817015569704 L 249.10974890408517 238.43222175276824 L 249.11189891389301 238.43170460074043 L 249.19398629108292 238.4121516588122 L 249.19614268807393 238.4116430582325 L 249.27828819167644 238.39246051759298 L 249.28045092289315 238.39196053858612 L 249.36265393454212 238.37314901760135 L 249.3648229457563 238.3726577300532 L 249.44708284708568 238.35421784708927 L 249.4492580827926 238.35373532062653 L 249.53157425543628 238.33566769404956 L 249.53375565885187 238.33519399801858 L 249.61612748444378 238.31749924619467 L 249.61831499750082 238.31703444964072 L 249.66051689526026 238.30816610275255 L 249.6485173743339 237.25620810154098 L 249.6454870713036 236.99055153588444 L 249.64245676827326 236.72489497022792 L 249.62730525312176 235.396612141945 L 249.62427495009146 235.13095557628847 L 249.61518404100056 234.33398587931876 L 249.61215373797023 234.06832931366225 L 249.60912343493993 233.80267274800565 L 249.60336046529724 233.297452409329 L 249.60228659722603 233.29426241367702 L 249.59857557619023 233.28249387634986 L 249.59310859361568 233.26390885797466 L 249.58986320224662 233.25203086984936 L 249.5851051028193 233.23318266454592 L 249.5823259594831 233.22119646235464 L 249.5783013194859 233.20216291592502 L 249.57598904254857 233.19006973639992 L 249.57271349595092 233.17093117061376 L 249.57086870377861 233.15873225048708 L 249.56834864111013 233.13956978110687 L 249.5669719520689 233.12726635711076 L 249.5652045393647 233.1081602012431 L 249.56429657182068 233.09575351010974 L 249.56327008144135 233.07678136405917 L 249.5628314537606 233.06427264252076 L 249.56252587867766 233.04550820399896 L 249.5625572092263 233.03289868878767 L 249.56294511558553 233.01441038431483 L 249.5634470227296 233.00170131216285 L 249.56449458367328 232.98355127324362 L 249.5654676857789 232.9707438808831 L 249.56713583341417 232.95298719352533 L 249.56858074884747 232.9400827176885 L 249.5708263808469 232.92276695079576 L 249.57274372797391 232.90976662821478 L 249.57552090988233 232.89293162946885 L 249.57791130706917 232.8798366968759 L 249.58117241975933 232.8635146310763 L 249.5840364853721 232.85032632520355 L 249.58773327784183 232.83454192031277 L 249.5910716302466 232.82126147789245 L 249.5951561496428 232.80603243855708 L 249.5989694072057 232.79266109632135 L 249.60339478939477 232.77799864288937 L 249.6076835704818 232.76453763757038 L 249.61240468475768 232.75044712996015 L 249.61716960773504 232.7368976982901 L 249.6221435577371 232.72337930784573 L 249.62738524097082 232.70974268655684 L 249.6325717304059 232.696792084084 L 249.6382907922621 232.68306950990842 L 249.6436523684699 232.6706785440708 L 249.64984942731465 232.6568712537407 L 249.65535161839017 232.64502859990796 L 249.66202729258958 232.63113783015555 L 249.6676386548725 232.61982959548078 L 249.67479356279262 232.60585658303822 L 249.6804856554699 232.59506685850474 L 249.68812041547687 232.58101284010422 L 249.6938677180781 232.57072419454855 L 249.701982948538 232.55659040692225 L 249.70776273563948 232.54678432134537 L 249.7163590549184 232.53257200122547 L 249.72215124053758 232.52322924434645 L 249.7312292670016 232.50893962846519 L 249.73701622927928 232.50004057626828 L 249.74657658129448 232.48567490135775 L 249.7523429761662 232.47719980465132 L 249.7623862720987 232.46275930744375 L 249.76811884291024 232.45468851216904 L 249.7786457011261 232.44017442939662 L 249.78433308958572 232.43248855475264 L 249.79534412845106 232.41790212314754 L 249.80097669093524 232.41058220266342 L 249.81247252881613 232.39592465895782 L 249.81804216091777 232.388952249454 L 249.83002341618032 232.3742248303801 L 249.83552338741987 232.3675820934897 L 249.84799067843016 232.35278603577964 L 249.85341547832158 232.346455796279 L 249.86636942344572 232.33159233666498 L 249.87171461949674 232.32555812146032 L 249.8851558371008 232.31062849667458 L 249.8904179448796 232.30487455784618 L 249.90434705332967 232.2898800046208 L 249.90952341841208 232.2843913294773 L 249.92394103607427 232.26933308454454 L 249.9290297274155 232.26409539527117 L 249.93992483116455 232.25304391544785 L 249.9845224857497 232.20568860216227 L 250.03330919117462 232.15394904068003 L 250.08215017688028 232.10221448512442 L 250.1310442123827 232.05048491121877 L 250.17999006709584 231.9987602952606 L 250.22898651032932 231.94704061411764 L 250.27803231128755 231.89532584522271 L 250.32712623906596 231.84361596657166 L 250.37626706265098 231.7919109567176 L 250.4254535509166 231.74021079476904 L 250.47468447262304 231.6885154603853 L 250.5239585964157 231.63682493377294 L 250.5732746908229 231.58513919568256 L 250.62263152425396 231.53345822740582 L 250.6720278649986 231.48178201077138 L 250.72146248122453 231.43011052814254 L 250.77093414097652 231.3784437624138 L 250.82044161217482 231.32678169700793 L 250.86998366261426 231.27512431587286 L 250.91955905996227 231.2234716034794 L 250.9691665717581 231.17182354481824 L 251.0188049654122 231.12018012539681 L 251.06847300820306 231.06854133123846 L 251.11816946727936 231.01690714887735 L 251.16789310965584 230.9652775653587 L 251.2176427022141 230.91365256823497 L 251.26741701170124 230.8620321455641 L 251.317214804729 230.81041628590742 L 251.36703484777237 230.758804978328 L 251.41687590716975 230.7071982123879 L 251.4667367491216 230.65559597814706 L 251.51661613968943 230.60399826616157 L 251.56651284479594 230.55240506748132 L 251.61642563022383 230.500816373649 L 251.66635326161497 230.4492321766988 L 251.71629450447034 230.39765246915445 L 251.7662481241494 230.34607724402807 L 251.8162128858696 230.29450649481896 L 251.86618755470496 230.24294021551327 L 251.91617089558775 230.19137840058104 L 251.96616167330603 230.13982104497723 L 252.01615865250412 230.0882681441398 L 252.0661605976826 230.03671969398886 L 252.11616627319785 229.98517569092616 L 252.1661744432608 229.93363613183507 L 252.21618387193854 229.88210101407864 L 252.26619332315255 229.8305703355005 L 252.3162015606797 229.77904409442345 L 252.3662073481506 229.7275222896504 L 252.41620837370374 229.6760060283978 L 252.46620339739061 229.62449531385613 L 252.51619226328614 229.57298903278067 L 252.566173730896 229.52148718970608 L 252.61614656426374 229.46998978482108 L 252.66610952589988 229.41849682022365 L 252.71606137872402 229.36700829792053 L 252.7660008846407 229.31552422129565 L 252.8159268059891 229.2640445936164 L 252.86583790500202 229.2125694185923 L 252.9157329437603 229.1610987004227 L 252.96561068365514 229.10963244435277 L 253.0154698867977 229.0581706552203 L 253.0653093145756 229.00671333894653 L 253.11512772823477 228.9552605019371 L 253.16492388914838 228.9038121508061 L 253.2146965585281 228.8523682926755 L 253.2644444971661 228.8009289354438 L 253.31416646595633 228.74949408724945 L 253.36386122554703 228.69806375683166 L 253.41352753645472 228.6466379534151 L 253.46316415926924 228.59521668649973 L 253.5127698539832 228.54379996655769 L 253.56234338100867 228.4923878039824 L 253.61188350009715 228.44098021021108 L 253.66138897118435 228.38957719685126 L 253.710858554028 228.33817877605946 L 253.7602910081717 228.286784960582 L 253.809685093133 228.23539576356256 L 253.85903956821934 228.18401119873712 L 253.90835319251732 228.13263128044866 L 253.9576247252367 228.08125602329244 L 254.00685292517508 228.0298854426776 L 254.05603655126927 227.97851955425622 L 254.10517436204154 227.9271583745051 L 254.15426511616482 227.87580192013982 L 254.20330757203408 227.8244502085669 L 254.25230048797266 227.77310325767246 L 254.30124262214042 227.72176108592333 L 254.35013273260424 227.67042371229758 L 254.39896957729053 227.61909115633955 L 254.44775191412072 227.56776343802238 L 254.49647850072955 227.51644057804953 L 254.545148094722 227.46512259759 L 254.59375945364732 227.4138095183111 L 254.64231133482107 227.36250136257172 L 254.6908024955648 227.31119815317538 L 254.7392316931034 227.25989991348467 L 254.7875976844011 227.20860666760092 L 254.83600723426486 227.15720375367772 L 254.84556295989526 227.14733247299762 L 254.8508269152714 227.14204210566888 L 254.85538915735017 227.13741218214247 L 254.8601269308612 227.13255877817318 L 254.86502774597324 227.1274924858674 L 254.87008000360248 227.1222232630403 L 254.87527285848253 227.11676052630102 L 254.88059610606763 227.1111132295132 L 254.88604008865616 227.10528993019437 L 254.89159561694092 227.09929884611 L 254.89725390412082 227.09314790375106 L 254.90300651024222 227.08684478013046 L 254.90884529491896 227.08039693905985 L 254.91476237705646 227.0738116627361 L 254.92075010024715 227.06709607956856 L 254.92680100300083 227.06025718874636 L 254.93290779293523 227.05330188217889 L 254.93906332437115 227.04623696415587 L 254.94526057870337 227.039069169218 L 254.95149264721516 227.0318051784369 L 254.95775271586953 227.02445163449894 L 254.96403405188323 227.0170151557034 L 254.96502423033616 227.01583359754022 L 254.95653613191556 227.01363754718014 L 254.9429709015382 227.01018619930286 L 254.92938913064378 227.0067889552356 L 254.91578989029844 227.00344569908498 L 254.9021722492799 227.00015631942134 L 254.88853527432036 226.99692070937314 L 254.87487803032354 226.99373876670768 L 254.86119958057427 226.99061039390375 L 254.84749898692104 226.98753549821157 L 254.83377531003956 226.98451399172473 L 254.82002760961402 226.98154579142653 L 254.80625494459696 226.97863081924763 L 254.79245637337135 226.97576900209532 L 254.77863095402574 226.972960271901 L 254.7647777445469 226.97020456564306 L 254.7508958030364 226.96750182536908 L 254.7369841879391 226.96485199821345 L 254.72304195827417 226.96225503640923 L 254.70906817381262 226.95971089728354 L 254.69506189533303 226.957219543262 L 254.68102218482488 226.95478094185646 L 254.66694810565335 226.95239506564118 L 254.65283872284786 226.95006189224426 L 254.6386931032388 226.94778140430725 L 254.6245103156952 226.94555358945684 L 254.61028943129554 226.94337844025983 L 254.59602952355021 226.9412559541816 L 254.58172966855693 226.93918613352892 L 254.56738894524386 226.93716898540123 L 254.55300643545516 226.93520452161445 L 254.53858122423756 226.9332927586491 L 254.52411239991167 226.93143371756398 L 254.50959905431 226.92962742392896 L 254.49504028290053 226.9278739077384 L 254.48043518492463 226.92617320332334 L 254.46578286360676 226.924525349269 L 254.45108242621805 226.92293038831178 L 254.43633298428662 226.92138836724993 L 254.4215336536511 226.919899336835 L 254.4066835546833 226.91846335167764 L 254.39178181226737 226.91708047012753 L 254.37682755606167 226.9157507541782 L 254.36181992049745 226.91447426934528 L 254.34675804490726 226.91325108455524 L 254.33164107361318 226.91208127202935 L 254.3164681560568 226.91096490716922 L 254.3012384467798 226.90990206843014 L 254.28595110557146 226.90889283720668 L 254.2706052975346 226.90793729771065 L 254.25520019309724 226.90703553684614 L 254.2397349680878 226.906187644088 L 254.2242088038003 226.90539371135978 L 254.20862088699434 226.90465383290825 L 254.19297040996256 226.90396810518192 L 254.17725657053506 226.90333662670673 L 254.1614785721077 226.90275949796396 L 254.14563562366476 226.9022368212684 L 254.12972693975982 226.90176870064644 L 254.1137517405675 226.90135524171725 L 254.0977092518464 226.90099655157255 L 254.08159870490698 226.9006927386585 L 254.06541933669243 226.9004439126615 L 254.04917038963862 226.90025018439084 L 254.0328511117444 226.90011166566757 L 254.0164607565218 226.90002846921274 L 254.0003324998669 226.9000012716325 L 253.97273122395626 226.9000845263134 L 253.9454905114537 226.90032966354735 L 253.9182695580083 226.90073532985292 L 253.89106705788902 226.9012991527865 L 253.86388173182965 226.9020187638099 L 253.83671232680393 226.9028917972197 L 253.80955761563087 226.90391588910492 L 253.7824163966746 226.9050886763286 L 253.7552874933844 226.90640779554127 L 253.7281697538153 226.90787088222532 L 253.7010620501754 226.9094755697671 L 253.6739632782644 226.91121948856474 L 253.6468723568617 226.91310026517132 L 253.6197882271865 226.91511552146474 L 253.5927098522259 226.9172628738588 L 253.5656362160731 226.91953993254623 L 253.53856632328905 226.9219443007728 L 253.5114991981318 226.92447357415472 L 253.48443388391271 226.92712534001834 L 253.45736944220207 226.92989717678523 L 253.43030495214654 226.93278665337917 L 253.40323950966396 226.93579132867697 L 253.37617222669118 226.93890875098518 L 253.34910223045688 226.9421364575443 L 253.32202866267693 226.94547197407192 L 253.29495067878366 226.94891281433064 L 253.2678674471877 226.95245647972098 L 253.2407781484769 226.9561004589092 L 253.21368197470304 226.95984222747023 L 253.18657812858123 226.96367924756805 L 253.15946582277556 226.9676089676486 L 253.13234427915108 226.9716288221611 L 253.1052127280619 226.97573623129668 L 253.07807040761944 226.97992860075092 L 253.05091656301227 226.9842033214993 L 253.02375044583553 226.98855776959013 L 252.99657131336593 226.99298930596416 L 252.96937842796768 226.99749527627029 L 252.94217105643023 227.00207301070807 L 252.91494846940608 227.0067198238684 L 252.8877099406796 227.0114330146161 L 252.86045474677408 227.01620986592823 L 252.83318216621288 227.02104764480274 L 252.80589147914085 227.0259436021151 L 252.77858196672133 227.0308949725241 L 252.7512529106415 227.03589897436675 L 252.72390359266964 227.0409528095519 L 252.69653329429508 227.04605366344438 L 252.66914129604947 227.0511987048149 L 252.6417268774175 227.05638508568498 L 252.61428931631008 227.06160994125784 L 252.58682788868762 227.06687038982466 L 252.55934186825357 227.07216353266074 L 252.5318305262952 227.07748645389523 L 252.50429313120802 227.08283622044323 L 252.47672894836973 227.08820988187202 L 252.4491372400349 227.0936044702631 L 252.4215172646629 227.09901700018563 L 252.39386827752176 227.1044444684199 L 252.36618952990506 227.10988385395194 L 252.33848305420412 227.11533157020637 L 252.31076994287363 227.12078026443106 L 252.28302487321787 227.12623169771325 L 252.25524708289058 227.13168278543966 L 252.22743580558148 227.13713042447557 L 252.19959027104483 227.14257149299488 L 252.17170970517174 227.1480028503018 L 252.1437933300823 227.15342133664714 L 252.1158403642605 227.15882377303672 L 252.08785002271975 227.16420696103344 L 252.08734540416745 227.164303738141 L 252.05982151720065 227.169567682554 L 252.05926062912638 227.16967462047907 L 252.03175405641014 227.1749026996588 L 252.03113672312054 227.17501963222188 L 252.00364684628877 227.18020875433785 L 252.00297288963316 227.18033549506998 L 251.97549909031974 227.18548256829175 L 251.974768330037 227.18561891021136 L 251.94730998987586 227.19072084270846 L 251.94652224397552 227.19086655809596 L 251.9190787446006 227.19592025803794 L 251.91823382978498 227.19607509820818 L 251.89080455283013 227.20107747376457 L 251.88990228495817 227.20124116883753 L 251.86248661205735 227.2061891281779 L 251.86152680664182 227.20636138685134 L 251.8341241194289 227.21125183814522 L 251.83310659218333 227.21143234746668 L 251.80571627229224 227.2162621988836 L 251.80464083971194 227.21645062402703 L 251.77726226877658 227.22121678373657 L 251.77612874876556 227.22141276778208 L 251.74876130841983 227.22611214395377 L 251.74756952095893 227.22631530767416 L 251.7202125928368 227.23094480847752 L 251.7189623606962 227.2311547501318 L 251.6916153264315 227.23571128373638 L 251.69030647592547 227.23592757887334 L 251.66296871715213 227.2404080534487 L 251.6616010789384 227.24063025472168 L 251.63427197729035 227.24503157843736 L 251.63284538721322 227.2452592154329 L 251.60552432432436 227.24957829645845 L 251.6040386243029 227.2498108755404 L 251.5767249818071 227.25404462204534 L 251.57518002076827 227.25428162621748 L 251.54787318029952 227.25842694637134 L 251.54626881515597 227.2586678351603 L 251.51896815834812 227.2627216371327 L 251.51730425501543 227.26296584649498 L 251.4900091635024 227.2669250384554 L 251.488285597968 227.2671719807093 L 251.4609954533837 227.27103347082726 L 251.45921211281785 227.27128253461368 L 251.4319262967962 227.27504323105882 L 251.43008308069474 227.27529378133536 L 251.40280097486962 227.27895059227714 L 251.40089779625842 227.27920197034436 L 251.37361878226375 227.28275180395235 L 251.37165556892518 227.2830033275202 L 251.3443790283949 227.28644309196395 L 251.3423557241439 227.2866940552581 L 251.3150810387119 227.29002065870714 L 251.31299760470947 227.29027033261977 L 251.28572415600962 227.29348068324364 L 251.28358057210866 227.29372831553226 L 251.25630774177492 227.29681932150052 L 251.22837820199854 227.2991940280606 L 251.17723025688062 227.30210168848276 L 251.1752123143222 227.30221231363728 L 251.12479836975461 227.30487386435516 L 251.12270674494027 227.30497989722258 L 251.07302618255693 227.30739410150392 L 251.0708576698622 227.30749476124913 L 251.021909871297 227.3096603823618 L 251.01966108965942 227.30975480540445 L 250.9714454365463 227.31167060661625 L 250.96911281845718 227.3117578378693 L 250.92162869243006 227.31342258244803 L 250.91920847220834 227.31350156557085 L 250.8724552549011 227.31491401678434 L 250.86994345622233 227.31498358333158 L 250.82392052926886 227.31614250444764 L 250.82131295191334 227.31620136178074 L 250.77601969694763 227.31710551606722 L 250.7733119027307 227.3171522338797 L 250.72874770138657 227.31780038460437 L 250.7259349992532 227.3178333798922 L 250.68209923316462 227.3182242903229 L 250.67917666341248 227.31824181061057 L 250.6360687142133 227.31837424401513 L 250.63303103184126 227.31837434862527 L 250.59065028116544 227.3182470682715 L 250.58749193833825 227.31822760739811 L 250.54583776781968 227.3178393765538 L 250.5425528954597 227.31779796787146 L 250.50162468673227 227.31714754980445 L 250.49820707526536 227.3170815523116 L 250.458004209963 227.31616771028973 L 250.45444728927546 227.316074195049 L 250.41496914903212 227.31489569234003 L 250.41126596772185 227.3147714097389 L 250.37251193417134 227.3133270096107 L 250.36865513820828 227.31316835272074 L 250.3306245929846 227.3114568184411 L 250.32660640396534 227.31125978200902 L 250.28929872870236 227.30927987684578 L 250.28511092191872 227.30904001139612 L 250.24852549825033 227.30679049861706 L 250.24415938089754 227.30650285909508 L 250.20829559045768 227.30398250196805 L 250.20374198037302 227.30364159029307 L 250.1685992047956 227.30084915208587 L 250.16384841026826 227.30044885293083 L 250.12942603118717 227.2973830969113 L 250.1244678324987 227.29691660596666 L 250.09076523154786 227.2935762954026 L 250.08558886509982 227.29303603933403 L 250.05260542391315 227.28941993749325 L 250.04719957000952 227.2887974847585 L 250.0149346702209 227.28490435490883 L 250.00928744583345 227.284190316573 L 249.9777404690768 227.28001892198225 L 249.97183942725115 227.27920284166598 L 249.9410097551604 227.274751945602 L 249.93484189309342 227.27382217772748 L 249.90472890730246 227.26909054345802 L 249.89828068558822 227.2680341190374 L 249.86888376773092 227.26302050983034 L 249.86214114379035 227.2618229891866 L 249.8334596755007 227.25652616830976 L 249.82640815487488 227.25517148036843 L 249.79844151778673 227.24959021108958 L 249.79106622765875 227.24806047923985 L 249.763813803406 227.24219352482683 L 249.75609959356987 227.24046887989377 L 249.72956076378648 227.2343150036144 L 249.72149234118774 227.23237338523268 L 249.69566648750757 227.22593135035476 L 249.68722859147647 227.22374829906826 L 249.66211509553347 227.21701686885964 L 249.6532927218603 227.2145653126504 L 249.62889096528838 227.20754325037885 L 249.61966964832618 227.20479329114517 L 249.59597901275922 227.19747936007857 L 249.58634517561052 227.19439806790322 L 249.56336504268242 227.18679103130933 L 249.55330642623568 227.18334225730564 L 249.53103617758035 227.17544087845232 L 249.52054235929631 227.1715851005622 L 249.4989813765477 227.16338814271725 L 249.48804438945143 227.159082363176 L 249.4671920542434 227.15058858960722 L 249.4558071149137 227.1457863077701 L 249.4356628088802 227.13699448174535 L 249.4238291601362 227.1316457715306 L 249.4043922649111 227.12255465631765 L 249.39211413370853 227.1166063833178 L 249.3733840309258 227.10721474218448 L 249.36067169414042 227.10061096100188 L 249.3426477654339 227.09091755721604 L 249.32951870524573 227.08360013398968 L 249.31220033224938 227.0736037308191 L 249.2986804482545 227.06551323798917 L 249.28206701260217 227.0552125987017 L 249.26819183951332 227.04628952721086 L 249.252282722839 227.0356834150743 L 249.2380985813054 227.02586974156495 L 249.2228931652429 227.0149569198471 L 249.20845815006606 227.00419805073668 L 249.19395581624937 226.9929772827054 L 249.17934050394297 226.98122437158128 L 249.16554063400596 226.96969442050434 L 249.15082837385586 226.9569070187713 L 249.13773034943247 226.94506664791652 L 249.12301699429958 226.93121560157616 L 249.11062019702368 226.9190635742114 L 249.0960131379473 226.90413402482483 L 249.0843169494528 226.89166910421784 L 249.06993334729688 226.87566339545305 L 249.05893714921774 226.86288434487173 L 249.04490131074903 226.84582458668794 L 249.0346044847191 226.83273016940007 L 249.02104440945183 226.8146601816672 L 249.01144633710507 226.80124916094059 L 248.9984895588773 226.78223551915283 L 248.98958962184759 226.76850665825532 L 248.97735857306165 226.74863860546404 L 248.9691561529829 226.73459066766344 L 248.95776337200252 226.71397874197336 L 248.95025785050862 226.69961049053745 L 248.93980141395107 226.67838384022076 L 248.93299217267597 226.6636940384174 L 248.9235517474619 226.64199654084405 L 248.91743816803947 226.62698395194104 L 248.9090720343678 226.60496939418533 L 248.90439567743243 226.59173344333493 L 248.90813906955847 226.83692562759094 Z" id="element_31" /></svg>