<?xml version='1.0' encoding='utf-8'?>
<svg xmlns:svg="http://www.w3.org/2000/svg" version="1.1" id="Layer_1" x="0px" y="0px" viewBox="0 0 500 500" style="width: 180px;" xml:space="preserve" data-imageid="toronto-61" imageName="Toronto" class="illustrations_image"><svg:style type="text/css">
	.st0_toronto-61{fill:#9D602A;}
	.st1_toronto-61{fill:#706767;}
	.st2_toronto-61{fill:#E5E1E1;}
	.st3_toronto-61{fill:#68E1FD;}
	.st4_toronto-61{fill:#A6916D;}
	.st5_toronto-61{opacity:0.49;fill:#39726F;enable-background:new    ;}
	.st6_toronto-61{opacity:0.81;fill:#39726F;enable-background:new    ;}
	.st7_toronto-61{opacity:0.59;fill:#FFFFFF;enable-background:new    ;}
	.st8_toronto-61{fill:#1E4549;}
	.st9_toronto-61{opacity:0.33;fill:#1E4549;enable-background:new    ;}
	.st10_toronto-61{fill:#CCCCCC;}
	.st11_toronto-61{fill:#E0E0E0;}
	.st12_toronto-61{fill:#39726F;}
</svg:style><svg:path class="st1_toronto-61" d="M 260.1151187405641 207.71750750767416 L 260.1120884375338 207.45286104302772 L 260.1090581345035 207.18821457838123 L 260.0999672254126 206.39427518444185 L 260.0969986165174 206.34529739330006 L 260.08924363925803 206.29684641816428 L 260.0767769783048 206.24938886841107 L 260.0597186944177 206.20338178618746 L 260.0382330681956 206.15926824484532 L 260.01252701796415 206.1174730819027 L 260.0000040546439 206.1009857618399 L 260.0000255829578 206.10955461656704 L 260.00009658578745 206.11900892898333 L 260.00021317939337 206.12837234265822 L 260.0003739708966 206.1376479207955 L 260.00057759755356 206.14683876124704 L 260.00082272653003 206.15594799635798 L 260.00110805457155 206.1649787928539 L 260.0014323075662 206.17393435175327 L 260.0017942399934 206.18281790829096 L 260.0021926342537 206.19163273185322 L 260.0026262998765 206.2003821259983 L 260.0030940726004 206.20906942851468 L 260.00359481330975 206.21769801135974 L 260.00412740684885 206.2262712809532 L 260.0046907606755 206.23479267824092 L 260.00528380336544 206.24326567885342 L 260.0059054829694 206.251693793474 L 260.00655476519944 206.2600805681289 L 260.0072306314372 206.26842958444553 L 260.0079320765862 206.27674446022618 L 260.0086581067129 206.2850288497356 L 260.0094077365238 206.29328644436794 L 260.0101799866165 206.30152097305785 L 260.0109738805488 206.30973620301577 L 260.01178844165344 206.3179359400894 L 260.01262268968287 206.3261240297432 L 260.0134756371553 206.33430435739135 L 260.0143462854961 206.34248084915686 L 260.0152336209179 206.35065747254663 L 260.01613661002006 206.35883823697372 L 260.0170541951148 206.36702719426404 L 260.0179852892678 206.37522843912276 L 260.0189287710464 206.383446109564 L 260.0198834789428 206.39168438709277 L 260.02084820545065 206.39994749651117 L 260.02182169091344 206.40823970642623 L 260.02280261682296 206.4165653277367 L 260.0237883056444 206.4249177543275 L 260.02477285730015 206.43326370610188 L 260.0257603182664 206.44165464540146 L 260.0267491073381 206.45009502642293 L 260.0277375505374 206.45858934024375 L 260.0277975601464 206.45910747535987 L 260.0287238725511 206.46714211210585 L 260.02879842639436 206.4677925183758 L 260.0297061878164 206.47575789811958 L 260.029795135917 206.47654392178248 L 260.030682491258 206.4844412812562 L 260.03078555453135 206.4853662905849 L 260.031650648693 206.49319686652078 L 260.03176740904803 206.49426424613995 L 260.03260838693217 206.50202927527013 L 260.0327382770986 206.50324241949923 L 260.0335532836069 206.51094313855594 L 260.0336955767274 206.51230544365902 L 260.0344827567616 206.5199430893744 L 260.0346365558024 206.52145794463254 L 260.03539405426426 206.52903375373882 L 260.0355582813121 206.53070453127373 L 260.03628424310324 206.53821974050305 L 260.03645762861527 206.54004978365833 L 260.0371501986375 206.5475056297429 L 260.03733127074923 206.54949824002873 L 260.03798859390423 206.5568959597007 L 260.03817566789013 206.55905438207785 L 260.03879588907967 206.5663952120694 L 260.03898705710515 206.56872261858769 L 260.039568321231 206.57600779563106 L 260.03976144253204 206.5785072672571 L 260.04030189449577 206.58573802808442 L 260.0404945861509 206.5884125345942 L 260.0409923708544 206.59559011593768 L 260.04118199934805 206.59844249399285 L 260.041635261693 206.60556813258466 L 260.04181893546036 206.60860106168283 L 260.0422258203484 206.61567599425518 L 260.042400383545 206.61889197071676 L 260.0427590358779 206.6259174340018 L 260.04292106362186 206.62931874294242 L 260.04322962830145 206.6362959736723 L 260.0433754236589 206.63988465897228 L 260.0436320455868 206.64681489387925 L 260.04375763858843 206.6505927261906 L 260.0439604626664 206.65747720200685 L 260.04406161166736 206.66144564506445 L 260.04420878279706 206.6682855985221 L 260.04428097848626 206.67244577369962 L 260.0443706415695 206.67924244153087 L 260.0444091139587 206.68359509112867 L 260.0444394138971 206.69034971006573 L 260.04443914260264 206.69489515935902 L 260.0444082242981 206.70160896613405 L 260.044363952431 206.7063470847992 L 260.0442699607852 206.7130213161444 L 260.0441762127374 206.71795147928663 L 260.0440172926519 206.72458737193415 L 260.04386839604166 206.7297084213066 L 260.04364269241836 206.73630721198865 L 260.0434328044098 206.7416174180657 L 260.04313846215035 206.74818034351446 L 260.0428616003132 206.75367736889012 L 260.0424967643193 206.76020566583776 L 260.0421468421148 206.76588653083425 L 260.04170965728827 206.77238143601298 L 260.0412805241906 206.77824248721177 L 260.04076913543315 206.78470523735373 L 260.04025462159206 206.79074211986617 L 260.0396671738053 206.79717395170357 L 260.03906113904884 206.80338158602842 L 260.03839577713467 206.80978373629344 L 260.03769216396944 206.81615630077258 L 260.0369470328294 206.8225300061974 L 260.03613992300455 206.82906092564164 L 260.03531316754055 206.83540742295844 L 260.0343968415402 206.84208936464225 L 260.0334866066538 206.8484098905832 L 260.03245560542376 206.85523476798738 L 260.0314600360168 206.86153055928472 L 260.030309224019 206.86848954456536 L 260.02922646499314 206.8747618379512 L 260.0279510936279 206.88184538342927 L 260.0267792898849 206.88809541563586 L 260.02537506015824 206.8952932848542 L 260.02411235659986 206.90152229261366 L 260.0225754798781 206.90882360101173 L 260.02122002140607 206.9150328210563 L 260.0195472770097 206.92242608632668 L 260.01809720852566 206.92861675538848 L 260.0162859969167 206.93608995721277 L 260.01473946332237 206.942263312024 L 260.01278785365525 206.94980396068885 L 260.01114299985244 206.95596123798174 L 260.0090497707043 206.9635564511802 L 260.00730474159474 206.96969888768692 L 260.00506941381695 206.9773354744753 L 260.0032223543023 206.98346430692797 L 260.0014211955666 206.98927173810384 L 260.0039821425627 207.15701376634846 L 260.0080225466031 207.4216602309948 L 260.0120629506435 207.68630669564138 L 260.0121919535709 207.69475638738743 L 260.0325017214368 207.70015843680787 L 260.05684717410816 207.70627668531628 L 260.08206407648754 207.71226061135704 L 260.1081405233672 207.71809925287818 L 260.11514244030167 207.71957728475255 L 260.1151187405641 207.71750750767416 Z" id="element_3" /></svg>