<?xml version='1.0' encoding='utf-8'?>
<svg xmlns:svg="http://www.w3.org/2000/svg" version="1.1" id="Layer_1" x="0px" y="0px" viewBox="0 0 500 500" style="width: 180px;" xml:space="preserve" data-imageid="toronto-61" imageName="Toronto" class="illustrations_image"><svg:style type="text/css">
	.st0_toronto-61{fill:#9D602A;}
	.st1_toronto-61{fill:#706767;}
	.st2_toronto-61{fill:#E5E1E1;}
	.st3_toronto-61{fill:#68E1FD;}
	.st4_toronto-61{fill:#A6916D;}
	.st5_toronto-61{opacity:0.49;fill:#39726F;enable-background:new    ;}
	.st6_toronto-61{opacity:0.81;fill:#39726F;enable-background:new    ;}
	.st7_toronto-61{opacity:0.59;fill:#FFFFFF;enable-background:new    ;}
	.st8_toronto-61{fill:#1E4549;}
	.st9_toronto-61{opacity:0.33;fill:#1E4549;enable-background:new    ;}
	.st10_toronto-61{fill:#CCCCCC;}
	.st11_toronto-61{fill:#E0E0E0;}
	.st12_toronto-61{fill:#39726F;}
</svg:style><svg:path class="st1_toronto-61" d="M 170.85347709205763 241.84893295826765 L 170.84943668801725 241.58428649362114 L 170.84135587993643 241.0549935643282 L 170.83731547589602 240.79034709968172 L 170.8332750718556 240.52570063503532 L 170.82923466781523 240.2610541703888 L 170.8130730516536 239.20246831180302 L 170.8090326476132 238.9378218471565 L 170.8049922435728 238.67317538251 L 170.79287103145157 237.87923598857068 L 170.7888306274112 237.61458952392417 L 170.77670941528996 236.82065012998478 L 170.77266901124955 236.55600366533835 L 170.76862860720917 236.29135720069183 L 170.75246699104753 235.23277134210605 L 170.74842658700715 234.96812487745953 L 170.74438618296674 234.70347841281304 L 170.7322649708455 233.90953901887372 L 170.72822456680512 233.6448925542272 L 170.7161033546839 232.85095316028782 L 170.71206295064349 232.58630669564138 L 170.7080225466031 232.32166023099487 L 170.70666121874467 232.2324932562683 L 170.7052339288771 232.23568919571 L 170.70355328183618 232.23941153833303 L 170.69941301167205 232.248482556648 L 170.69772497290842 232.2521418110339 L 170.69350122332193 232.26120169875924 L 170.69180557804455 232.26480136523173 L 170.68750020413404 232.27384764890306 L 170.68579665435735 232.27739111016464 L 170.68141151122106 232.2864213163176 L 170.67969967968946 232.2899118446163 L 170.67523662242567 232.29892349978653 L 170.6735160559116 232.30236426386787 L 170.66897693961857 232.31135489459098 L 170.66724711164886 232.31474896640393 L 170.6626337914249 232.32371609921555 L 170.6608941044628 232.32706646039378 L 170.65620843540614 232.3360076218296 L 170.6544582225211 232.33931716995022 L 170.64970205973006 232.34822988654582 L 170.64794058577445 232.35150144118393 L 170.64311578434726 232.36038323947497 L 170.64134224667345 232.36361954803934 L 170.63645066170838 232.37246795456144 L 170.63466419042695 232.37567169795236 L 170.6297076770223 232.38448423924117 L 170.62790733482163 232.38765803732377 L 170.6228877480757 232.39643223991493 L 170.62107252961664 232.3995786568125 L 170.61599172462766 232.40831204724165 L 170.61416055551106 232.4114335964713 L 170.6090203873773 232.42012370127406 L 170.60717212268932 232.42322285073035 L 170.6019744465091 232.43186719644234 L 170.60010786894023 232.4349463732418 L 170.59485453981176 232.44354248639866 L 170.59296835735535 232.44660408157748 L 170.58766123037697 232.45514948871485 L 170.5857540735773 232.4581958618232 L 170.58039500384726 232.46668808947675 L 170.57846542261063 232.46972157303586 L 170.57305626522717 232.4781581477412 L 170.57110272516184 232.48118105160066 L 170.56564533522328 232.48955949989337 L 170.56366621349363 232.49257411548643 L 170.5581624460982 232.50089196390223 L 170.55615602677543 232.50390056839626 L 170.55060773702144 232.51215534347077 L 170.54857220589258 232.51516020383104 L 170.5429812488783 232.52334943209985 L 170.54091468769496 232.5263528090513 L 170.53528291851867 232.53447401705006 L 170.53318329863419 232.53747816895708 L 170.52751257239413 232.54552888322146 L 170.52537774775766 232.5485360698702 L 170.51966991955211 232.5565138169358 L 170.51749761901488 232.55952630321266 L 170.51175454394215 232.56742860961512 L 170.5095423628034 232.57044866910098 L 170.50376589596172 232.57827306137594 L 170.501511286727 232.58130297980304 L 170.49570328321468 232.58904698448615 L 170.4934035454685 232.59208906308783 L 170.4875658603838 232.59975020671467 L 170.48521812972885 232.60280676541532 L 170.47935261817005 232.6103825745216 L 170.4769538541249 232.61345595497852 L 170.47106237119024 232.6209439560998 L 170.4686093439938 232.62403652451772 L 170.46269374478157 232.6314342441897 L 170.46018302095402 232.6345483939369 L 170.45424516056255 232.6418533586952 L 170.45167308715884 232.64499151261577 L 170.44571482068633 232.652201248996 L 170.44307750809818 232.6553658613936 L 170.43710069064295 232.6624778959314 L 170.43439399380838 232.66567145416485 L 170.42840048046867 232.67268331339588 L 170.42561997836896 232.67590833897407 L 170.41961162424306 232.68281754943393 L 170.41675259749636 232.68607659854803 L 170.41073125768253 232.69288068677238 L 170.40778866408255 232.696176350119 L 170.4017561936791 232.70287284264347 L 170.39872464147004 232.70620774441895 L 170.39268289557523 232.71279416777915 L 170.38955661426775 232.71617096366026 L 170.3835074479798 232.72264484439188 L 170.38028025647566 232.72606621831108 L 170.37422552489292 232.7324250829497 L 170.37089079667416 232.73589374242582 L 170.36483235489487 232.7421351175071 L 170.3613829800275 232.74565378723526 L 170.35532268314995 232.75177519929483 L 170.35530175353793 232.75175447864066 L 170.31975053320664 232.78439510469576 L 170.28069482758198 232.81377580133295 L 170.23895728107647 232.83920316235262 L 170.2052280117471 232.85547074489284 L 170.20602808021155 232.9256100802772 L 170.20905838324185 233.19126664593375 L 170.21208868627215 233.45692321159032 L 170.21511898930248 233.72257977724684 L 170.22420989839338 234.5195494742166 L 170.22724020142368 234.78520603987315 L 170.24239171657518 236.113488868156 L 170.2454220196055 236.37914543381248 L 170.26057353475701 237.7074282620954 L 170.26360383778731 237.97308482775193 L 170.27269474687822 238.77005452472164 L 170.27572504990854 239.03571109037816 L 170.27875535293884 239.30136765603478 L 170.28178565596914 239.56702422169133 L 170.29693717112065 240.89530704997418 L 170.29996747415095 241.16096361563072 L 170.30299777718125 241.4266201812873 L 170.30358391450207 241.47800488641292 L 170.3194913963745 241.49861621974838 L 170.35020687780934 241.53823734943433 L 170.38098523973014 241.57776419325356 L 170.41182656612733 241.6171980361212 L 170.44273094084733 241.6565401619041 L 170.47369844758055 241.695791853435 L 170.5047291698285 241.7349543925007 L 170.53582319088002 241.77402905984187 L 170.56698059379957 241.8130171351686 L 170.59820146137648 241.85191989712698 L 170.62948587607468 241.89073862326728 L 170.66083392012828 241.9294745901933 L 170.69224567534405 241.9681290733482 L 170.72372122319058 242.00670334715605 L 170.75526064476483 242.04519868501154 L 170.78686402069502 242.08361635919204 L 170.8185314312201 242.12195764098593 L 170.85026295607733 242.16022380058703 L 170.85837845073198 242.1699719514362 L 170.85347709205763 241.84893295826765 Z" id="element_43" /></svg>