<?xml version='1.0' encoding='utf-8'?>
<svg xmlns:svg="http://www.w3.org/2000/svg" version="1.1" id="Layer_1" x="0px" y="0px" viewBox="0 0 500 500" style="width: 180px;" xml:space="preserve" data-imageid="toronto-61" imageName="Toronto" class="illustrations_image"><svg:style type="text/css">
	.st0_toronto-61{fill:#9D602A;}
	.st1_toronto-61{fill:#706767;}
	.st2_toronto-61{fill:#E5E1E1;}
	.st3_toronto-61{fill:#68E1FD;}
	.st4_toronto-61{fill:#A6916D;}
	.st5_toronto-61{opacity:0.49;fill:#39726F;enable-background:new    ;}
	.st6_toronto-61{opacity:0.81;fill:#39726F;enable-background:new    ;}
	.st7_toronto-61{opacity:0.59;fill:#FFFFFF;enable-background:new    ;}
	.st8_toronto-61{fill:#1E4549;}
	.st9_toronto-61{opacity:0.33;fill:#1E4549;enable-background:new    ;}
	.st10_toronto-61{fill:#CCCCCC;}
	.st11_toronto-61{fill:#E0E0E0;}
	.st12_toronto-61{fill:#39726F;}
</svg:style><svg:path class="st1_toronto-61" d="M 132.61215398670853 308.06431067414405 L 132.61518428973886 308.3289571387905 L 132.61821459276916 308.5936036034369 L 132.62124489579946 308.8582500680834 L 132.62427519882976 309.12289653272984 L 132.63033580489036 309.6521894620228 L 132.63336610792066 309.91683592666925 L 132.63639641095097 310.18148239131574 L 132.63942671398127 310.4461288559622 L 132.64245701701157 310.7107753206087 L 132.6454873200419 310.97542178525515 L 132.6485176230722 311.2400682499016 L 132.6515479261025 311.5047147145481 L 132.6545782291328 311.7693611791945 L 132.6576085321631 312.034007643841 L 132.6606388351934 312.2986541084874 L 132.6636691382237 312.5633005731339 L 132.666699441254 312.82794703778035 L 132.6727600473146 313.3572399670734 L 132.67579035034493 313.62188643171976 L 132.67882065337523 313.88653289636625 L 132.68185095640553 314.1511793610127 L 132.68488125943583 314.41582582565917 L 132.68791156246613 314.6804722903056 L 132.69094186549643 314.9451187549521 L 132.69397216852673 315.2097652195985 L 132.70003277458733 315.7390581488915 L 132.70306307761763 316.003704613538 L 132.70609338064796 316.2683510781844 L 132.70912368367826 316.53299754283086 L 132.71215398670856 316.79764400747734 L 132.71518428973886 317.0622904721238 L 132.72124489579946 317.59158340141676 L 132.72427519882976 317.8562298660632 L 132.72730550186006 318.1208763307097 L 132.73033580489036 318.3855227953561 L 132.73336610792066 318.65016926000266 L 132.736396410951 318.91481572464903 L 132.7424570170116 319.444108653942 L 132.7454873200419 319.70875511858844 L 132.7485176230722 319.97340158323493 L 132.7515479261025 320.23804804788136 L 132.7545782291328 320.50269451252785 L 132.7576085321631 320.7673409771743 L 132.7636691382237 321.2966339064673 L 132.76669944125402 321.5612803711137 L 132.76972974428432 321.8259268357602 L 132.77276004731462 322.0905733004066 L 132.77579035034492 322.3552197650531 L 132.77882065337522 322.61986622969954 L 132.78488125943582 323.1491591589925 L 132.78791156246612 323.41380562363895 L 132.79094186549642 323.67845208828544 L 132.79397216852672 323.94309855293193 L 132.79700247155705 324.20774501757836 L 132.80003277458735 324.4723914822248 L 132.80306307761765 324.7370379468713 L 132.80609338064795 325.0016844115177 L 132.81215398670855 325.5309773408107 L 132.81518428973885 325.7956238054571 L 132.81821459276915 326.0602702701036 L 132.82124489579945 326.32491673475005 L 132.82427519882975 326.5895631993966 L 132.82730550186008 326.85420966404297 L 132.83336610792068 327.38350259333595 L 132.83639641095098 327.6481490579824 L 132.83942671398128 327.91279552262887 L 132.84245701701158 328.1774419872753 L 132.84548732004188 328.4420884519218 L 132.84851762307218 328.7067349165682 L 132.85457822913278 329.23602784586126 L 132.8576085321631 329.50067431050763 L 132.8606388351934 329.7653207751541 L 132.8636691382237 330.02996723980056 L 132.866699441254 330.29461370444704 L 132.8697297442843 330.5592601690935 L 132.8727600473146 330.82390663373997 L 132.87579035034491 331.0885530983864 L 132.88185095640551 331.6178460276794 L 132.88488125943582 331.88249249232587 L 132.88791156246614 332.1471389569723 L 132.89094186549644 332.41178542161873 L 132.89397216852674 332.6764318862652 L 132.89700247155704 332.94107835091137 L 132.9000327745872 333.20572481555797 L 132.90309994803633 333.2555908118186 L 132.91112822156464 333.30490178382473 L 132.92403744008203 333.3531654058739 L 132.9416987166529 333.3998998091109 L 132.9639357193162 333.44463839255496 L 132.99052643160155 333.48693448169087 L 133.02120536916394 333.52636578811195 L 133.0556662304062 333.5625386256904 L 133.09356495462478 333.5950918411788 L 133.13452315714667 333.6237004200007 L 133.15823411981552 333.6385569346823 L 133.18136617434357 333.65312239093817 L 133.20440298081786 333.6676978586113 L 133.22734733001744 333.6822831110469 L 133.25020200835525 333.6968779190203 L 133.27296979776565 333.71148205032273 L 133.29565347566526 333.726095269389 L 133.31825581481544 333.74071733685827 L 133.34077958332256 333.75534800921815 L 133.36322754464317 333.769987038451 L 133.38560245725768 333.7846341714604 L 133.4079070749775 333.7992891499092 L 133.4301441465571 333.81395170960195 L 133.4523164159329 333.82862158027746 L 133.47442662191318 333.8432984850408 L 133.49647749829305 333.85798214007514 L 133.5184717738534 333.8726722542803 L 133.54041217214393 333.88736852876866 L 133.56230141154492 333.9020706565495 L 133.58414220532953 333.9167783222184 L 133.60593726125114 333.93149120133137 L 133.62768928221675 333.9462089605154 L 133.649400965191 333.960931256391 L 133.67107500239922 333.9756577360553 L 133.69271408005966 333.9903880358996 L 133.71432087931436 334.00512178192554 L 133.73589807562306 334.0198585890269 L 133.7574483389925 334.03459806084885 L 133.7789743334823 334.0493397891631 L 133.80047871782375 334.064083354016 L 133.82196414495473 334.078828323146 L 133.8434332618906 334.0935742516435 L 133.86488870953673 334.10832068158334 L 133.88633312354006 334.1230671423852 L 133.90776913228993 334.13781314922915 L 133.92919936087864 334.1525582055843 L 133.95063691248558 334.16730901430265 L 133.97207863738527 334.1820610816011 L 133.99352247646178 334.19681065347095 L 134.01497102397937 334.211557167697 L 134.03642686749154 334.2263000472272 L 134.05789258771503 334.2410387000038 L 134.07937075839757 334.25577251880856 L 134.10086394617298 334.27050088111906 L 134.122374710417 334.2852231489866 L 134.14390560309474 334.29993866892806 L 134.16545916859945 334.31464677183317 L 134.18703794358132 334.32934677288586 L 134.20864445678285 334.3440379715126 L 134.229856681056 334.3584318851413 L 134.23028122885347 334.3587196513372 L 134.2514946898588 334.3730826466613 L 134.25195077217 334.3733910801629 L 134.27316794337187 334.3877225388163 L 134.273655590643 334.3880515099658 L 134.2948789455058 334.40235081358253 L 134.29539817952744 334.4027001769146 L 134.3166301915155 334.4169667071285 L 134.3171810252208 334.4173363014038 L 134.3384241677985 334.4315694398488 L 134.33900660506188 334.43195908810935 L 134.3602633516936 334.4461582164193 L 134.36087738712465 334.4465677260644 L 134.38215021127473 334.4607322258732 L 134.3827958300069 334.4611613887529 L 134.40408720513972 334.4752906416945 L 134.40476438262814 334.4757392342321 L 134.42607678220807 334.4898326219404 L 134.42678548400647 334.49030040526253 L 134.44812138149786 334.50435730937147 L 134.44886156305265 334.50484402947166 L 134.4702234319199 334.51886383161514 L 134.4709950383545 334.5193692195322 L 134.49238535206192 334.5333513013441 L 134.49318831796433 334.5338750733636 L 134.5146095499763 334.54781881647784 L 134.51544379918866 334.54836067435576 L 134.53689842296956 334.56226546040625 L 134.53776386838118 334.56282509161457 L 134.5592543573954 334.5766903022352 L 134.56015090073265 334.5772673802255 L 134.58167972844453 334.59109239705026 L 134.58260726007762 334.59168658154715 L 134.6041768999515 334.6054707862098 L 134.60513529869002 334.6060817235154 L 134.62674822419032 334.61982449765 L 134.62773735710064 334.62045182097967 L 134.64939604169166 334.63415254622 L 134.65041576390797 334.63479587605167 L 134.67212268105413 334.64845393403175 L 134.67317283561115 334.6491128784841 L 134.6949304587768 334.6627276508378 L 134.69601087643494 334.6634018060592 L 134.71782167908444 334.6769726744204 L 134.7189321781837 334.6776616250101 L 134.7407986337814 334.6911879710127 L 134.74193902008798 334.69189129045003 L 134.7638636020983 334.705372495728 L 134.7650336686779 334.70608974683086 L 134.78701885056512 334.71952519301806 L 134.78821837766085 334.7202559284148 L 134.81026663288938 334.7336449971452 L 134.8114953878176 334.73438875976717 L 134.8336091898518 334.74773083267456 L 134.83486692690678 334.7484871562629 L 134.85704874921103 334.7617816149813 L 134.85833520959804 334.762550024618 L 134.8805875256367 334.7757962507813 L 134.88190243740618 334.7765762634269 L 134.90422772064363 334.7897736386689 L 134.90557079865218 334.79056476372125 L 134.92797152255275 334.80371266967603 L 134.92934246844504 334.8045144095444 L 134.9518211064731 334.8176122278458 L 134.95321960867452 334.81842407853344 L 134.97577863429447 334.8314711908153 L 134.977204368025 334.8322926425152 L 134.99984625470117 334.84528843041153 L 135.0012988820226 334.8461189681202 L 135.0240261032194 334.8590628132648 L 135.0255052730795 334.8599019173925 L 135.0483203022612 334.87279320141937 L 135.04982565058637 334.87364034842415 L 135.07273096121742 334.8864784529672 L 135.07426211100776 334.8873331159849 L 135.0972601765525 334.900117422678 L 135.09881673800635 334.90097907216284 L 135.12191003192913 334.9137089626399 L 135.12349160259086 334.9145770670094 L 135.1466825983561 334.92725192290436 L 135.14828876328755 334.92812594918837 L 135.17157993435956 334.9407451521351 L 135.17321026633167 334.94162456662485 L 135.19660408617483 334.9541874982573 L 135.1982581458846 334.955071767156 L 135.22175708796328 334.96757780910804 L 135.2234344242721 334.9684663991798 L 135.24704096205068 334.98091493308533 L 135.24874111224815 334.98180731230264 L 135.27245771919095 334.9941977197956 L 135.27418020928067 334.995093357982 L 135.2980093588521 335.0074250206963 L 135.29975370385927 335.008323390164 L 135.32369786952364 335.02059568973345 L 135.3254635738217 335.02149626591165 L 135.34952522904345 335.03370858397034 L 135.35131178671375 335.0346108460314 L 135.36867908714248 335.04333824128935 L 135.54082147201296 335.1365243380454 L 135.54152992328673 335.13690710771556 L 135.72050145680373 335.23341766786245 L 135.72121078541767 335.2337994367258 L 135.90030475542073 335.3300039056576 L 135.901014956671 335.3303846695622 L 136.08023136316012 335.42628304727873 L 136.08094243231648 335.42666280209124 L 136.26028127529167 335.5222550885926 L 136.26099320759886 335.52263383019897 L 136.44045448706015 335.6179200254852 L 136.44116727773775 335.6182977497908 L 136.6207509936851 335.7132778538618 L 136.62146463792703 335.71365455679137 L 136.80117079036046 335.8083285696472 L 136.801885283336 335.80870424714516 L 136.98171387225548 335.9030721687858 L 136.982429209109 335.9034468168167 L 137.16238023451456 335.99750864724217 L 137.16309641036554 335.99788226179055 L 137.3431698722572 336.0916380010009 L 137.34388688220102 336.09201057807167 L 137.52408278057874 336.18546022606677 L 137.5248006196858 336.1858317616852 L 137.7051189545496 336.27897531846514 L 137.70583761786642 336.2793458086774 L 137.8862783892163 336.37218327424216 L 137.88699787176532 336.3725527151152 L 138.06756107960123 336.4650840894647 L 138.06828137638067 336.46545247708644 L 138.24896702070268 336.5576777602208 L 138.2496881266875 336.55804509070055 L 138.43049620749557 336.64996428261975 L 138.43121811763675 336.6503305520883 L 138.61214863493092 336.7419436527923 L 138.61287134415613 336.74230885740195 L 138.79392429793634 336.8336158668908 L 138.79464780115023 336.83398000281585 L 138.97582319141654 336.92498092108946 L 138.97654748350004 336.9253439845258 L 139.1578453102524 337.0160388115843 L 139.1585703860644 337.01640079875057 L 139.33999064930288 337.1067895345939 L 139.34071650367898 337.10715044173077 L 139.52225920340348 337.19723308635884 L 139.5229858311566 337.19759290972956 L 139.7046509673672 337.2873694631425 L 139.70537836328856 337.28772819903315 L 139.88716593598522 337.37719866123086 L 139.88789409484306 337.37755630595024 L 140.0698041040258 337.46672067693277 L 140.0705330205667 337.4670772268129 L 140.25256546623552 337.5559355065803 L 140.25329513518452 337.55629095797656 L 140.43545001733938 337.64484314652873 L 140.4361804333993 337.6451974958196 L 140.61845775204026 337.7334435931566 L 140.61918890989267 337.7337968367444 L 140.80158866501972 337.82173684286624 L 140.80232055932527 337.82208897717715 L 140.98484275093836 337.9097228920838 L 140.98557537633604 337.9100739135676 L 141.16822000443523 337.99740173725905 L 141.16895335554347 337.99775164238997 L 141.35172042012871 338.08477337486624 L 141.3524544915452 338.08512216014265 L 141.5353439926165 338.17183780140374 L 141.53607877891835 338.1721854633484 L 141.71909071647573 338.2585950133943 L 141.71982621221983 338.2589415485546 L 141.9029605862633 338.34504500738535 L 141.90369678598628 338.3453904123336 L 142.08695359651583 338.43118777994914 L 142.08769049473455 338.4315320512824 L 142.27106974175015 338.51702332768275 L 142.27180733296166 338.5173664620231 L 142.45530901646333 338.6025516472083 L 142.45604729514537 338.6028936412035 L 142.63967141513314 338.68777273517344 L 142.64041037574353 338.68811358549596 L 142.82415693221733 338.7726865882508 L 142.82489656919563 338.77302629159925 L 143.00876556215553 338.8572932031389 L 143.00950586992198 338.85763175623754 L 143.19349729936798 338.94159257656196 L 143.1942382723237 338.94192997616045 L 143.37835213825574 339.02558470526975 L 143.37909377078427 339.0259209481444 L 143.5633300732024 339.1092695860385 L 143.56407235966844 339.1096046689914 L 143.74843109857264 339.19264721567026 L 143.7491740333227 339.19298113552975 L 143.93365520871296 339.27571759099345 L 143.93439878607597 339.27605034461453 L 144.11900239795233 339.3584807088631 L 144.1197466122398 339.35881229312747 L 144.3044726606022 339.4409365661608 L 144.30521750610754 339.44126697797645 L 144.49006599095603 339.5230851597947 L 144.4908114619563 339.523414396097 L 144.67578238329085 339.6049264867 L 144.6765284740454 339.605254544451 L 144.86162183186605 339.6864605438388 L 144.86236853661774 339.6867874200278 L 145.04758433092442 339.76768732820045 L 145.04833164389973 339.7680130198442 L 145.2336698746925 339.84860683680165 L 145.23441779010133 339.84893134094415 L 145.41987845738018 339.9292190666864 L 145.4206269694165 339.92954238039925 L 145.60621007318144 340.00952401492634 L 145.6069591760232 340.0098461353088 L 145.79266471627417 340.0895216786207 L 145.79341440408385 340.08984260279993 L 145.97924238082092 340.16921205489666 L 145.9799926477454 340.1695317800277 L 146.16594306096854 340.24859514090923 L 146.16669390113964 340.2489136641751 L 146.35276675084884 340.3276709338415 L 146.35351815838337 340.3279882524536 L 146.53971344457867 340.4064394309048 L 146.54046541357863 340.40675554210276 L 146.72678313626 340.48490062933877 L 146.72753566081315 340.48521553039063 L 146.91397581998058 340.5630545264114 L 146.9147288941598 340.5633682146136 L 147.1012914898133 340.64090111941925 L 147.10204510767824 340.64121359209724 L 147.2887301398178 340.7184404056877 L 147.28948429541393 340.7187516601955 L 147.4762917640396 340.79567238257073 L 147.47704645139837 340.795982416291 L 147.6639763565101 340.8725970474511 L 147.66473156965054 340.8729058577961 L 147.85178391124833 340.949214397741 L 147.8525396441755 340.94952198215145 L 148.03971442225938 341.0255244308812 L 148.04047066896624 341.02583078682756 L 148.22776788353616 341.10152714434207 L 148.22852463800228 341.10183226932367 L 148.4159442890583 341.17722253562306 L 148.4167015452517 341.1775264271691 L 148.60424363279378 341.25261060225324 L 148.60500138466958 341.252913257922 L 148.79266590869776 341.32769134179097 L 148.79342415019957 341.32799275917057 L 148.9812111107138 341.40246475182437 L 148.98196983577358 341.40276492853263 L 149.1698792327739 341.47693082997125 L 149.170638435312 341.47722976365577 L 149.35867026879836 341.55108957387927 L 149.35942994272443 341.55138726221765 L 149.5475842126969 341.6249409812259 L 149.54834435190892 341.6252374219254 L 149.73662105836743 341.6984850497185 L 149.7373816567533 341.6987802405169 L 149.868856720646 341.7496827713465 L 149.866699441254 341.5612803711137 L 149.86366913822368 341.2966339064673 L 149.85760853216308 340.7673409771743 L 149.85457822913278 340.50269451252785 L 149.85154792610248 340.23804804788136 L 149.84851762307218 339.97340158323493 L 149.84548732004188 339.70875511858844 L 149.84245701701158 339.444108653942 L 149.83639641095098 338.91481572464903 L 149.83336610792065 338.65016926000266 L 149.83033580489035 338.3855227953561 L 149.82730550186005 338.1208763307097 L 149.82427519882975 337.8562298660632 L 149.82124489579945 337.59158340141676 L 149.81518428973885 337.0622904721238 L 149.81215398670855 336.79764400747734 L 149.80912368367825 336.53299754283086 L 149.80609338064795 336.2683510781844 L 149.80306307761762 336.003704613538 L 149.80003277458732 335.7390581488915 L 149.79397216852672 335.2097652195985 L 149.79094186549642 334.9451187549521 L 149.78791156246612 334.6804722903056 L 149.78488125943582 334.41582582565917 L 149.78185095640552 334.1511793610127 L 149.77882065337522 333.88653289636625 L 149.77579035034492 333.62188643171976 L 149.7727600473146 333.3572399670734 L 149.766699441254 332.82794703778035 L 149.7636691382237 332.5633005731339 L 149.7606388351934 332.2986541084874 L 149.7576085321631 332.034007643841 L 149.7545782291328 331.7693611791945 L 149.7515479261025 331.5047147145481 L 149.7485176230722 331.2400682499016 L 149.7454873200419 330.97542178525515 L 149.74245701701156 330.7107753206087 L 149.73942671398126 330.4461288559622 L 149.73639641095096 330.18148239131574 L 149.73336610792066 329.91683592666925 L 149.73033580489036 329.6521894620228 L 149.72427519882976 329.12289653272984 L 149.72124489579946 328.8582500680834 L 149.71821459276916 328.5936036034369 L 149.71518428973886 328.3289571387905 L 149.71215398670853 328.06431067414405 L 149.70912368367823 327.79966420949756 L 149.70609338064793 327.5350177448511 L 149.70306307761763 327.27037128020464 L 149.70003277458733 327.00572481555815 L 149.70620520946898 327.0056541388229 L 149.79899228830195 327.0048105053734 L 149.79756258062508 326.99577503640484 L 149.79565838859608 326.98260850392177 L 149.79401353479327 326.9700587640993 L 149.79244462671562 326.95669535649034 L 149.79114853138833 326.9442068349109 L 149.7899294750738 326.93067146073105 L 149.78898028312366 326.91824415739467 L 149.78812380823157 326.90456363237337 L 149.7875196645604 326.89219754728 L 149.78703642795136 326.878400368459 L 149.78677547746085 326.8660955016087 L 149.78667385675638 326.85221157978475 L 149.78675424434826 326.83996793117745 L 149.78704016689522 326.82602828673265 L 149.7874600374712 326.8138458563684 L 149.78813685096347 326.79988228512417 L 149.78889434942528 326.78776107300297 L 149.78996273913538 326.773805790176 L 149.79105601038475 326.7617457962979 L 149.79251396635854 326.7478310676501 L 149.7939411552972 326.73583229201495 L 149.79578399105148 326.72199006197945 L 149.79754324258116 326.71005250458734 L 149.7997636649271 326.69631403132234 L 149.80185312394954 326.6844376921733 L 149.80444135165894 326.6708331992171 L 149.8068591630758 326.6590180783111 L 149.80980309033615 326.645576431739 L 149.81254739904924 326.63382252907604 L 149.81583279809857 326.6205709479793 L 149.8189017490096 326.6088782635593 L 149.82251250513838 326.59584207009345 L 149.825904243149 326.5842106039166 L 149.8298226143949 326.5714130175637 L 149.83353528440693 326.5598427696298 L 149.83774217783505 326.5473047484695 L 149.84177392475019 326.5357957187787 L 149.846249181176 326.5235358487584 L 149.85059814989597 326.51208803731055 L 149.8553208292382 326.5001224688143 L 149.8599851646647 326.48873587560956 L 149.86493382475786 326.47707830512087 L 149.86991167179264 326.4657529301591 L 149.87506463439806 326.4544146235148 L 149.88035413794285 326.44315046679617 L 149.88568973674026 326.4321403196018 L 149.89128904169675 326.42093738112607 L 149.8967858482284 326.4102620111486 L 149.90269309949838 326.39912029091596 L 149.90833012415047 326.388784157022 L 149.91454346663562 326.3777036550324 L 149.92030033295617 326.36770919695164 L 149.92681791155823 326.35668991320506 L 149.932675003162 326.34703770669864 L 149.93949496278267 326.3360796411951 L 149.94543354305037 326.3267685634176 L 149.95255402859144 326.3158717161571 L 149.95855633411503 326.3068991164864 L 149.96597549047817 326.296063487469 L 149.97202479979987 326.2874253596364 L 149.9797407718868 326.276650948862 L 149.98582145151352 326.26834210082876 L 149.993832384226 326.25762890829736 L 149.99992991421175 326.2496431269247 L 150.00823395245152 326.2389911526364 L 150.0143349339797 326.23132136084234 L 150.02293022264845 326.22073060479704 L 150.02902237014322 326.2133690094072 L 150.0379070541427 326.20283947160493 L 150.0439791743256 326.1957777007249 L 150.05315139855753 326.1853093811656 L 150.05919335884974 326.1785386102457 L 150.0686512682158 326.16813150892955 L 150.07465395663726 326.16164257519864 L 150.08439569603925 326.15129669212547 L 150.09035097463868 326.1450801973062 L 150.1003746889783 326.13479553247606 L 150.10627534254996 326.1288419340334 L 150.1165791767289 326.1186184874463 L 150.122418858404 326.1129181787669 L 150.13300095732401 326.1027559504229 L 150.13877413236088 326.09729933052 L 150.1496326409237 326.08719832041896 L 150.15533452985972 326.0819758538167 L 150.16646759296708 326.07193606195875 L 150.17209411502756 326.06693832954073 L 150.18349987758117 326.0569597559258 L 150.18904759516357 326.05217749747334 L 150.20072420206515 326.04226014210144 L 150.20619026683227 326.03768429136613 L 150.21813586298356 326.0278281542373 L 150.2235179640682 326.0234498672811 L 150.23573069437091 326.01365494839524 L 150.2410270090143 326.00946562595607 L 150.25350501837016 325.9997319253133 L 150.25871416519516 325.99572322992555 L 150.27145559850592 325.9860507475258 L 150.27657659362188 325.982214616015 L 150.28957959578926 325.9726033518583 L 150.29461181173426 325.96893200387154 L 150.30787452765998 325.9593819579579 L 150.31281765523718 325.9558679010527 L 150.32633822982294 325.94637907338205 L 150.331192242781 325.94301510519364 L 150.34496882092856 325.93358749576606 L 150.3497339433865 325.93036670372624 L 150.36376466999758 325.92100031254165 L 150.36844134657534 325.91791607151373 L 150.38272436655163 325.9086108985722 L 150.38731323501696 325.9056568668107 L 150.40184669326027 325.8964129121122 L 150.40634855960465 325.8935830258313 L 150.4211306010166 325.88440028937583 L 150.42554641681104 325.8816887562097 L 150.44057518629344 325.87256723799726 L 150.44066597434193 325.8727168219394 L 150.47729649966 325.8523358949655 L 150.48941781484226 325.8463057949654 L 150.49122631683613 325.84541065117577 L 150.50334825038445 325.8394411510526 L 150.5051579082458 325.838554503706 L 150.51728107852628 325.8326449850937 L 150.51909144087017 325.8317670157255 L 150.53121646624894 325.825916860258 L 150.53302707777374 325.8250477441153 L 150.54515457661688 325.8192563334264 L 150.5469649785233 325.81839623928187 L 150.5590955691969 325.8126629550056 L 150.56090529956364 325.81181204500723 L 150.5730396004338 325.80613626877744 L 150.57484819464702 325.8052946982872 L 150.58698682407982 325.7996758117378 L 150.5887938152374 325.79884372919724 L 150.60093739159893 325.7932811139621 L 150.6027423109485 325.79245866075684 L 150.61489145260484 325.78695169847 L 150.61669382994532 325.78613900882635 L 150.62884915526257 325.7806870811216 L 150.6306485193975 325.77988428199285 L 150.64281064674176 325.77448677050415 L 150.64460652589034 325.7736939814912 L 150.65677607362767 325.7683502678524 L 150.65856799587945 325.7675676011184 L 150.670745582376 325.76227706696346 L 150.672533076103 325.7615046271811 L 150.68471931972482 325.75626665414393 L 150.68650191403427 325.7555045384382 L 150.69869743314746 325.7503185081527 L 150.70047465829623 325.74956680607335 L 150.71268007126687 325.7444321001734 L 150.71445145911196 325.7436908936647 L 150.72666738430615 325.7386068937842 L 150.72843246871813 325.7378762571822 L 150.74065952450195 325.73284234495515 L 150.74241784179466 325.73212234499056 L 150.75465664653424 325.7271379020508 L 150.756407735881 325.7264285978678 L 150.76865890794238 325.7214930058493 L 150.77040231179026 325.72079444903676 L 150.78266646953958 325.7159070895733 L 150.78440173402777 325.7152193242041 L 150.79667949583109 325.71037957892975 L 150.79840617116628 325.7097026416271 L 150.8106981553897 325.7049098921756 L 150.8124157962722 325.7042438121684 L 150.8247226212818 325.6994974401738 L 150.82643078725775 325.69884223938976 L 150.83875307141966 325.69414162648593 L 150.8404513272731 325.6934973196367 L 150.85278968895335 325.6888418474575 L 150.8544776050708 325.68820844214196 L 150.86683266263552 325.6835974923213 L 150.86850981535403 325.6829749891418 L 150.88088218716933 325.6784079433137 L 150.88254815911807 325.67779633600105 L 150.89493846355 325.6732725757993 L 150.89659284399207 325.67267185134244 L 150.90900169940673 325.668190758401 L 150.91064408454005 325.6676008971974 L 150.92307210930355 325.66316185315014 L 150.92470210258858 325.6625828291498 L 150.937149915067 325.6581852156307 L 150.93876712749804 325.65761699650466 L 150.95123534605747 325.65326019514754 L 150.95283939645827 325.65270274245006 L 150.96532863946481 325.6483861348889 L 150.96691915474483 325.6478394042364 L 150.97943004056455 325.64356237210507 L 150.98100665597173 325.6430263133572 L 150.99353980297076 325.63878823828964 L 150.99510216233128 325.6382627957367 L 151.00765818887567 325.6340630593668 L 151.00920594481178 325.6335481719243 L 151.02178546926763 325.6293861558859 L 151.02331828341244 325.62888175729074 L 151.03592192414587 325.6247568432179 L 151.03743946731973 325.624262862236 L 151.05006784269682 325.62017443176245 L 151.05156979510917 325.61969079238736 L 151.06422352349597 325.6156382271472 L 151.06570957487807 325.6151648488189 L 151.07838927464073 325.61114753044586 L 151.079859124426 325.6106843282523 L 151.0925654139306 325.60670163838046 L 151.09401877135335 325.6062485232825 L 151.10675226896592 325.6022998435456 L 151.10818885321058 325.60185672258206 L 151.1209501772973 325.59794143461414 L 151.1223697175723 325.59750821112726 L 151.1351594864992 325.5936256965621 L 151.13656172215295 325.593202270406 L 151.14938055428613 325.5893519108776 L 151.15076523485914 325.58893817864106 L 151.16361374856473 325.5851193557834 L 151.1649806338563 325.58471521100387 L 151.1778594475003 325.58092730645075 L 151.1792083076203 325.58053263982754 L 151.19211803956892 325.57677503521285 L 151.19344865496714 325.57638973482085 L 151.2063899235864 325.5726618117786 L 151.20770208506303 325.57228576328225 L 151.22067550871904 325.56858690344626 L 151.2219690174436 325.56821999030467 L 151.23497521450244 325.5645495753089 L 151.2362498819989 325.56419167898383 L 151.24928947082668 325.5605490904622 L 151.2505451189526 325.5602000906218 L 151.2636187179154 325.5565847102081 L 151.26485517884547 325.55624448492193 L 151.27796340630937 325.5526556942502 L 151.27918052247492 325.55232412018984 L 151.29232399680603 325.54876130089394 L 151.29352162084942 325.5484382535221 L 151.30670096041382 325.5449007872359 L 151.30787895512896 325.54458614099184 L 151.32109477829272 325.54107340934934 L 151.32225301654364 325.54076703783323 L 151.33550594167292 325.53727842246826 L 151.33664430631498 325.53698019861673 L 151.34993495177582 325.5335150811632 L 151.35105333556183 325.5332248774218 L 151.3643823197203 325.5297826395137 L 151.3654806251896 325.5295003280058 L 151.37884856641185 325.52608035127696 L 151.3799267057961 325.5258058039608 L 151.39333422244817 325.52240747004515 L 151.3943921175412 325.5221405588725 L 151.40783982798922 325.51876324940395 L 151.40887741002382 325.51850384646923 L 151.42236593263385 325.51514694308173 L 151.4233831421482 325.5148949207664 L 151.43691309528637 325.5115578050938 L 151.43790988198862 325.511313036203 L 151.45148188402098 325.5079950898792 L 151.4524582066383 325.5077574477757 L 151.46607287593096 325.50445805243464 L 151.46702870206667 325.5042274111623 L 151.48068665698574 325.5009459484379 L 151.48162196294876 325.5007221828455 L 151.4953238218603 325.4974580343717 L 151.4962385925195 325.4972410202228 L 151.50998497378959 325.4939935676335 L 151.51087920239513 325.4937831817176 L 151.5246707243899 325.4905518066466 L 151.5255444124214 325.4903479268767 L 151.53938169350693 325.487132010958 L 151.54023485047537 325.48693451647233 L 151.55411850901774 325.48373344133984 L 151.55495115230875 325.4835422125869 L 151.56888180667403 325.48035535987447 L 151.56969396136543 325.4801702786983 L 151.58367222991978 325.4769970300399 L 151.58446392859418 325.47681797975923 L 151.59849042970362 325.47365771678875 L 151.59926171227016 325.4734845822685 L 151.61333706430082 325.4703366866199 L 151.6140879778036 325.47016935433953 L 151.62821279912157 325.4670332076466 L 151.6289433975668 325.46687156575837 L 151.64311830653813 325.46374654965507 L 151.64382865069106 325.4635904880435 L 151.65805426568193 325.4604759841638 L 151.65874442288316 325.46032539449527 L 151.67302136225956 325.457220784473 L 151.67369140624155 325.4570755602404 L 151.68802028836964 325.4539802257095 L 151.6886702990659 325.4538402622733 L 151.70305174231174 325.45075358486764 L 151.7036818056617 325.4506187794928 L 151.7181164283914 325.4475401408464 L 151.71872663615292 325.4474103927334 L 151.73321505673255 325.44433917448004 L 151.73380550630557 325.44421438478906 L 151.74834834310124 325.4411499685627 L 151.7489191373289 325.44103004043814 L 151.76351700870669 325.4379718078727 L 151.7640682556872 325.4378566464619 L 151.7787217800132 325.4348039791913 L 151.77925359292493 325.4346934916558 L 151.79396338856526 325.431645771314 L 151.79447588547208 325.4315398668424 L 151.80924257079278 325.4284964750631 L 151.80973587447946 325.4283950648737 L 151.82456006784665 325.42535538329105 L 151.8399166253915 325.42222179088753 L 151.85531299345323 325.41909499477435 L 151.87074992623027 325.41597429390407 L 151.88622818191416 325.4128589892535 L 151.90174852253273 325.4097483838113 L 151.93818894121088 325.40383531664224 L 152.01091621393815 325.39477511973405 L 152.084058970087 325.3857251761049 L 152.15720601218135 325.37673751403486 L 152.2303573432754 325.36781276244636 L 152.3035129664102 325.35895155038077 L 152.37667288461057 325.35015450699865 L 152.44983710088795 325.3414222615801 L 152.52300561823205 325.33275544352495 L 152.59617843961635 325.32415468235314 L 152.66935556799118 325.31562060770494 L 152.74253700628663 325.30715384934115 L 152.81572275740663 325.29875503714334 L 152.88891282423188 325.290424801114 L 152.9621072096146 325.28216377137704 L 153.0353059163804 325.2739725781777 L 153.10850894732278 325.2658518518829 L 153.18171630520598 325.25780222298164 L 153.25492799275858 325.24982432208475 L 153.3281440126762 325.24191877992536 L 153.4013643676179 325.234086227359 L 153.40186178747697 325.23403327053245 L 153.47458906020424 325.226327295364 L 153.47509082028816 325.22627438627876 L 153.54781809301542 325.21864261504123 L 153.5483241958644 325.218589766555 L 153.6210514685917 325.2110328176145 L 153.62156191670167 325.2109800427082 L 153.69428918942893 325.2034985344308 L 153.69480398525144 325.2034458462082 L 153.7675312579787 325.19604039696003 L 153.7680504039194 325.19598780864834 L 153.8407776766467 325.18865903679557 L 153.84130117506058 325.18860656174564 L 153.91402844778784 325.1813550856542 L 153.91455630098292 325.18130273733993 L 153.9872835737102 325.17412917537604 L 153.98781578394014 325.1740769673951 L 154.06054305666743 325.1669819379248 L 154.06107962613302 325.1669298839985 L 154.13380689886029 325.15991400538786 L 154.1343478297071 325.15986211936115 L 154.20707510243437 325.15292600997634 L 154.2076203967495 325.15287430581793 L 154.28034766947678 325.14601858402494 L 154.28089732928942 325.14596707582723 L 154.35362460201668 325.1391923599922 L 154.35417862929424 325.1391410619713 L 154.4269059020215 325.13244797046036 L 154.42746429866793 325.1323968969563 L 154.50019157139522 325.1257860481355 L 154.50075433924943 325.1257352136122 L 154.5734816119767 325.11920722584756 L 154.5740487528123 325.11915664489214 L 154.64677602553957 325.1127121365499 L 154.64734754105945 325.1126618238736 L 154.72007481378674 325.1063014133198 L 154.72065070562323 325.1062513837575 L 154.7933779783505 325.09997568935813 L 154.7939582480648 325.09992595786804 L 154.86668552079206 325.0937355979893 L 154.86727016986862 325.0936861796533 L 154.9399974425959 325.0875817726612 L 154.94058647244265 325.0875326826844 L 155.0133137451699 325.0815148469451 L 155.01390715711764 325.0814661006557 L 155.0866344298449 325.07553545453527 L 155.08723222514143 325.0754870673849 L 155.15995949786873 325.0696442292495 L 155.1605616776794 325.0695962168125 L 155.23328895040666 325.06384180502806 L 155.23389551581332 325.0637941830015 L 155.30662278854058 325.05812881593425 L 155.30723374053596 325.05808160013794 L 155.37996101326326 325.05250589615395 L 155.3805763527513 325.05245910252984 L 155.45330362547855 325.0469736799951 L 155.45392335327296 325.04692732460734 L 155.52665062600022 325.041532801888 L 155.5272747428204 325.04148690092256 L 155.6000020155477 325.0361838963848 L 155.60063052201696 325.0361384661492 L 155.67335779474422 325.03092759815905 L 155.67399069138858 325.0308826550822 L 155.74671796411585 325.02576454200573 L 155.7473552513615 325.0257201026374 L 155.8200825240888 325.02069536284074 L 155.82072420225865 325.0206514438514 L 155.8934514749859 325.01572069570057 L 155.8940975443003 325.0156773138808 L 155.96682481702757 325.010841175742 L 155.9674752775979 325.0107983480025 L 156.04020255032518 325.00605743824167 L 156.04085740215586 325.00601518161244 L 156.11358467488316 325.0013701185958 L 156.11424391786616 325.0013284502259 L 156.18697119059343 324.9967798523195 L 156.18763482450782 324.99673878947675 L 156.2603620972351 324.99228727504664 L 156.2610301217449 324.99224683511676 L 156.3337573944722 324.98789302252914 L 156.33442980912108 324.98785322301563 L 156.40715708184834 324.98359773063646 L 156.40783388606278 324.9835585891599 L 156.48056115879004 324.97940203535535 L 156.48124235187117 324.97936356965283 L 156.55396962459847 324.97530657278895 L 156.55465520572463 324.97526880071354 L 156.6273824784519 324.9713119791565 L 156.62807244667195 324.9712749186767 L 156.7007997193992 324.96741889079254 L 156.70149407363377 324.9673825599916 L 156.77422134636106 324.96362794414637 L 156.7749200853991 324.9635923612215 L 156.84764735812635 324.9599397757814 L 156.84835048062052 324.9599049590434 L 156.9210777533478 324.9563550223744 L 156.92178525781546 324.95632099024675 L 156.99451253054275 324.95287432071495 L 156.9952244153624 324.95284109173303 L 157.06795168808966 324.94949830770463 L 157.06866795149634 324.94946590051507 L 157.1413952242236 324.94622762035607 L 157.14211586430983 324.94619605371594 L 157.21484313703712 324.9430628957924 L 157.2155681517493 324.9430321885682 L 157.28829542447656 324.9400047712464 L 157.28902481161 324.93997494241364 L 157.36175208433727 324.9370538840594 L 157.36248584153938 324.9370249527013 L 157.43521311426667 324.93421087168093 L 157.43595123902725 324.93418285698766 L 157.5086785117545 324.93147637166715 L 157.5094210014102 324.93144929293476 L 157.58214827413747 324.9288510216802 L 157.58289512586515 324.92882489831004 L 157.65562239859244 324.9263354594876 L 157.6563736094074 324.9263103109848 L 157.72910088213467 324.9239303229605 L 157.72985644888905 324.9239061689333 L 157.80258372161632 324.9216362500732 L 157.8033436409961 324.9216131102318 L 157.87607091372337 324.91945387890206 L 157.87683518224682 324.9194317730573 L 157.9495624549741 324.917383847624 L 157.9503310689861 324.91736279568653 L 158.02305834171335 324.9154267945157 L 158.02383129738834 324.91540681649457 L 158.0965585701156 324.9135833579524 L 158.0973358634497 324.9135644739541 L 158.170063136177 324.9118541764067 L 158.1708447629886 324.91183640663365 L 158.24357203571586 324.910239888447 L 158.24435799164235 324.91022325319653 L 158.3170852643696 324.90874113273674 L 158.31787554486573 324.9087256523996 L 158.39060281759302 324.90735854803285 L 158.39139741792513 324.9073442430919 L 158.4641246906524 324.9060927731842 L 158.46492360590113 324.9060796642132 L 158.5376508786284 324.9049444471306 L 158.53845410368268 324.9049325547926 L 158.61118137640997 324.9039142089013 L 158.61198890596333 324.90390355394726 L 158.6847161786906 324.90300269761326 L 158.6855280072437 324.90299330088044 L 158.75825527997097 324.9022105524699 L 158.75907140182338 324.9022024348806 L 158.83179867455064 324.9015384127596 L 158.83261908380334 324.9015315953194 L 158.90534635653063 324.900986917854 L 158.90617104707854 324.90098142165044 L 158.9788983198058 324.9005567072067 L 158.97972728534145 324.900552553407 L 159.05245455806872 324.90024842035115 L 159.05328779207247 324.90024563020137 L 159.12601506479976 324.90006269689934 L 159.12685256054473 324.900061291722 L 159.199579833272 324.90000017654 L 159.26009789513424 324.90362489687686 L 159.2824690651515 324.9063334538155 L 159.30302126475775 324.9086621529424 L 159.32368087745482 324.91084507814685 L 159.3444458090901 324.9128828589897 L 159.3653139371223 324.9147761547875 L 159.38628311262383 324.9165256546703 L 159.4073511623432 324.9181320775746 L 159.42851589059376 324.9195961721547 L 159.44977508108255 324.92091871663143 L 159.47112649872312 324.9221005185851 L 159.4925678912293 324.9231424146854 L 159.51409699079252 324.9240452703827 L 159.53571151557293 324.9248099795503 L 159.55740917108864 324.9254374640872 L 159.57918765171786 324.9259286734943 L 159.60104464188396 324.926284584412 L 159.62297781731792 324.92650620013745 L 159.6449848462756 324.9265945501191 L 159.6670633905352 324.9265506894307 L 159.68921110657325 324.9263756982319 L 159.7114256463793 324.92607068121487 L 159.7337046585238 324.925636767041 L 159.75604578893453 324.9250751077706 L 159.77844668173182 324.92438687828695 L 159.80090497995084 324.92357327571824 L 159.82341832635166 324.9226355188533 L 159.84598436398443 324.92157484756467 L 159.86860073683073 324.92039252222895 L 159.8912650904444 324.9190898231479 L 159.9139750723618 324.9176680499837 L 159.93672833278814 324.9161285211817 L 159.95952252487263 324.914472573422 L 159.98235530526298 324.91270156105855 L 160.00522433446582 324.91081685557623 L 160.02812727718234 324.908819845057 L 160.05106180277647 324.906711933641 L 160.07402558535554 324.90449454102884 L 160.09701630433213 324.9021691019479 L 160.1200316444912 324.8997370656723 L 160.14306929629527 324.8971998955289 L 160.1661269561373 324.89455906841647 L 160.18920232653042 324.89181607433954 L 160.21229311622372 324.88897241596067 L 160.23539704049773 324.8860296081395 L 160.2585118211737 324.88298917751615 L 160.2816351869341 324.87985266206346 L 160.30476487319683 324.8766216107074 L 160.32789862253176 324.87329758288297 L 160.35103418449123 324.86988214817956 L 160.37416931581794 324.86637688594345 L 160.397301780638 324.8627833848888 L 160.42042935026896 324.85910324277654 L 160.44354980355564 324.8553380660207 L 160.46666092676253 324.85148946937255 L 160.48976051366733 324.8475590755814 L 160.5128463656628 324.8435485150614 L 160.53591629174167 324.8394594255868 L 160.55896810853423 324.83529345198593 L 160.5819996403696 324.8310522458388 L 160.6050087193518 324.8267374651795 L 160.62799318523238 324.8223507742441 L 160.6509508857043 324.8178938431459 L 160.67387967611984 324.81336834766836 L 160.69677741980104 324.8087759689505 L 160.7196419878967 324.80411839326695 L 160.74247125941378 324.7993973117818 L 160.76526312142147 324.7946144202716 L 160.78801546881277 324.789771418948 L 160.81072620460162 324.7848700121728 L 160.8333932397678 324.77991190827584 L 160.8560144934103 324.7748988193121 L 160.87858789276177 324.76983246085456 L 160.90111137322376 324.7647145517879 L 160.9235828784063 324.7595468141068 L 160.94600036027475 324.75433097269485 L 160.96836177904964 324.7490687551655 L 160.99066510353123 324.7437618916086 L 161.0129083108409 324.7384121144788 L 161.0350893868196 324.7330211583338 L 161.057206326028 324.72759075967014 L 161.07925713166546 324.72212265678496 L 161.10123981600861 324.71661858951455 L 161.12315240021348 324.7110802991334 L 161.14499291474587 324.70550952810123 L 161.1667593992139 324.69990801996425 L 161.18844990280888 324.6942775191059 L 161.2100624843917 324.6886197705915 L 161.23159521247908 324.6829365200429 L 161.25304616580232 324.677229513368 L 161.27441343316127 324.671500496678 L 161.295695114035 324.66575121600823 L 161.31688931840782 324.6599834172521 L 161.3379941674063 324.6541988458804 L 161.34677318860219 324.6517759035861 L 161.34678669373676 324.65101276135346 L 161.3467768659526 324.64836254243806 L 161.3467019747895 324.64532114993546 L 161.34654683311206 324.64187790307835 L 161.34629627997572 324.6380240339183 L 161.34593533941884 324.633752574282 L 161.3454493574223 324.6290582296941 L 161.34482411717138 324.623937244625 L 161.34404593335594 324.6183872630357 L 161.34310172668808 324.6124071875657 L 161.3419790801656 324.60599704030943 L 161.34066627880568 324.5991578274701 L 161.3391523347018 324.5918914097585 L 161.33742699928808 324.5842003799318 L 161.33548076464902 324.5760879483814 L 161.33330485565236 324.5675578374422 L 161.330891214539 324.5586141846649 L 161.32823247948934 324.5492614551652 L 161.32532195850035 324.53950436283645 L 161.32215359977752 324.52934780017597 L 161.31872195968134 324.5187967763157 L 161.31502216908987 324.5078563626926 L 161.31104989896295 324.4965316459387 L 161.30680132568105 324.4848276872862 L 161.30227309669624 324.4727494880167 L 161.29746229688172 324.46030196034445 L 161.29236641587818 324.44748990314775 L 161.28698331670213 324.4343179821056 L 161.2813112057441 324.4207907136383 L 161.2753486043154 324.40691245230624 L 161.26909432176836 324.39268738113196 L 161.26254743025376 324.3781195045407 L 161.25570724111057 324.36321264354564 L 161.2485732828309 324.3479704327882 L 161.2411452806432 324.33239631933026 L 161.23342313754827 324.3164935627024 L 161.22540691684597 324.3002652362055 L 161.21709682602662 324.2837142291466 L 161.20849320194773 324.26684324983177 L 161.19959649727545 324.24965482927513 L 161.19040726802953 324.2321513253281 L 161.1809261622496 324.21433492730023 L 161.17115390961303 324.1962076607897 L 161.16109131200437 324.1777713927814 L 161.15073923495885 324.1590278369221 L 161.14009859983219 324.13997855876505 L 161.12917037676527 324.1206249811718 L 161.11795557830123 324.10096838967814 L 161.10645525357313 324.0810099377413 L 161.09467048309628 324.0607506519938 L 161.0826023740909 324.0401914374303 L 161.0702520561959 324.01933308234817 L 161.05762067770937 323.9981762633304 L 161.04470940212258 323.97672154992574 L 161.0315194051065 323.95496940934754 L 161.01805187171087 323.93292021083647 L 161.0043079939821 323.9105742300757 L 160.99028896870934 323.88793165322187 L 160.97563585671153 323.8644145871372 L 160.97608663607676 323.864133713643 L 160.95913599958632 323.83587906464817 L 160.93514445337559 323.79103825160547 L 160.91134486771176 323.74683771561894 L 160.8874245353775 323.70269193507585 L 160.86338403515487 323.6586009274478 L 160.83922394624133 323.6145647105195 L 160.81494484825117 323.57058330238385 L 160.79054732120835 323.52665672142155 L 160.7660319455771 323.4827849863495 L 160.74139930221676 323.43896811613246 L 160.7166499724149 323.3952061300361 L 160.69178453786532 323.3514990475811 L 160.66680358068356 323.30784688856517 L 160.64170768340233 323.2642496730483 L 160.61649742894554 323.2207074213026 L 160.59117340066837 323.17722015387665 L 160.56573618233514 323.13378789155115 L 160.54018635807776 323.09041065526407 L 160.51452451250717 323.04708846629535 L 160.4887512305676 323.00382134601506 L 160.4628670976347 322.9606093160455 L 160.43687269948865 322.9174523982116 L 160.41076862230162 322.87435061451595 L 160.38455545263753 322.8313039871351 L 160.35823377747218 322.788312538449 L 160.3318041841389 322.7453762909492 L 160.30526726040478 322.70249526735927 L 160.27862359437458 322.65966949047686 L 160.25187377459773 322.61689898334305 L 160.22501838995487 322.5741837690574 L 160.19805802971453 322.5315238708671 L 160.17099328356286 322.4889193122111 L 160.14382474152268 322.44637011658983 L 160.11655299397628 322.40387630760006 L 160.08917863175694 322.36143790907533 L 160.0617022459485 322.3190549447727 L 160.03412442809662 322.27672743869874 L 160.00644577005625 322.23445541487246 L 159.9786668640791 322.19223889745825 L 159.95078830272124 322.15007791062436 L 159.92281067895138 322.1079724787056 L 159.89473458605698 322.0659226260607 L 159.86656061765672 322.0239283770905 L 159.8382893677658 321.98198975633505 L 159.8099214307035 321.94010678833473 L 159.7814574011138 321.89827949766124 L 159.75289787403477 321.85650790901894 L 159.72424344477457 321.81479204706267 L 159.69549470899818 321.77313193652486 L 159.66665226273705 321.7315276022284 L 159.6377167022548 321.68997906889314 L 159.60868862422757 321.6484863613956 L 159.57956862558115 321.6070495045356 L 159.55035730362164 321.5656685232227 L 159.52105525588027 321.52434344225685 L 159.4916630803048 321.48307428659837 L 159.462181375043 321.4418610810646 L 159.4326107386061 321.40070385055907 L 159.40295176979575 321.35960261997064 L 159.37320506769245 321.31855741415734 L 159.34337123168154 321.27756825798383 L 159.31345086143935 321.2366351763031 L 159.28344455693028 321.1957581939525 L 159.25335291836703 321.15493733570173 L 159.2231765462853 321.11417262635456 L 159.19291604150345 321.0734640906952 L 159.16257200505893 321.03281175340385 L 159.13214503829892 320.9922156391801 L 159.10163574284303 320.9516757726933 L 159.07104472054777 320.91119217853736 L 159.0403725735462 320.87076488128406 L 159.00961990423292 320.83039390546475 L 158.97878731521232 320.79007927550396 L 158.9478754094472 320.74982101591536 L 158.91688479000496 320.7096191509712 L 158.88581606030615 320.6694737050284 L 158.85466982397983 320.62938470234167 L 158.8234466848673 320.5893521670703 L 158.7921472470699 320.549376123341 L 158.76077211494885 320.50945659524973 L 158.72932189303668 320.46959360674964 L 158.69779718610167 320.42978718173543 L 158.66619859917623 320.3900373440809 L 158.6345267375001 320.3503441175684 L 158.60278220647288 320.3107075258315 L 158.57096561178162 320.2711275925166 L 158.539077559303 320.23160434116227 L 158.50711865507392 320.1921377951647 L 158.47508950540532 320.1527279779209 L 158.4429907167504 320.11337491266755 L 158.4108228958277 320.0740786226341 L 158.37858664947578 320.0348391308667 L 158.3462825847415 319.9956564603388 L 158.3139113089475 319.9565306340336 L 158.2814734294692 319.91746167467664 L 158.24896955396252 319.8784496050131 L 158.21640029022737 319.83949444764465 L 158.18376624623676 319.80059622506684 L 158.15106803017648 319.7617549597183 L 158.13794335777308 319.7462176156284 L 158.11890180608685 319.72861545091615 L 158.0778518898123 319.6910078536107 L 158.03662458542036 319.65357510334303 L 157.9952211108673 319.6163178725527 L 157.95364268534365 319.5792368333275 L 157.9118905293478 319.5423326574636 L 157.86996586464335 319.50560601642144 L 157.82786991424038 319.46905758130293 L 157.78560390238738 319.4326880228398 L 157.74316905455836 319.3964980113764 L 157.7005665974415 319.3604882168556 L 157.65779775891124 319.3246593087896 L 157.6148637680337 319.2890119562609 L 157.57176585505138 319.25354682790424 L 157.52850525133522 319.21826459186343 L 157.48508318942848 319.1831659158232 L 157.44150090299036 319.14825146695944 L 157.39775962678533 319.11352191192736 L 157.35386059668855 319.07897791686224 L 157.30980504965584 319.0446201473524 L 157.26559422372918 319.0104492684405 L 157.22122935799607 318.9764659445887 L 157.1767116926122 318.9426708396935 L 157.1320424687206 318.9090646170212 L 157.0872229285428 318.8756479392744 L 157.0422543152564 318.8424214684976 L 156.99713787307903 318.80938586613706 L 156.95187484716942 318.77654179296553 L 156.90646648367795 318.7438899091174 L 156.8609140296907 318.7114308740455 L 156.815218733239 318.6791653465265 L 156.76938184330626 318.6470939846632 L 156.72340460976093 318.6152174458354 L 156.6772882833969 318.5835363867267 L 156.63103411587096 318.55205146327864 L 156.58464335973784 318.5207633307139 L 156.53811726842324 318.48967264351575 L 156.49145709618332 318.45878005539834 L 156.444664098125 318.42808621932016 L 156.39773953017203 318.3975917874586 L 156.35068464908232 318.3672974112207 L 156.30350071239525 318.3372037412064 L 156.25618897845874 318.3073114272252 L 156.20875070637317 318.27762111825854 L 156.16118715600717 318.24813346246845 L 156.1134995880267 318.2188491072138 L 156.06568926375348 318.1897686989617 L 156.01775744531477 318.1608928833775 L 155.96970539552746 318.13222230525287 L 155.92153437788963 318.10375760849905 L 155.87324565660646 318.0754994361617 L 155.82484049658171 318.04744843041306 L 155.7763201633303 318.0196052325007 L 155.72768592308884 317.9919704828088 L 155.6789390426989 317.9645448207905 L 155.63008078961764 317.9373288849719 L 155.58111243194688 317.91032331296765 L 155.53203523839827 317.88352874145886 L 155.48285047823575 317.8569458061609 L 155.43355942135418 317.8305751418643 L 155.38416333816244 317.80441738236993 L 155.33466349969135 317.7784731605453 L 155.28506117744104 317.7527431082421 L 155.23535764350453 317.72722785635955 L 155.18555417045528 317.701928034784 L 155.1356520313778 317.67684427240334 L 155.0856524998686 317.651977197106 L 155.03555684997278 317.62732743574696 L 154.98536635624887 317.60289561417864 L 154.93508229363144 317.57868235718155 L 154.88470593760584 317.5546882885477 L 154.83423856398184 317.53091403096954 L 154.78368144903453 317.5073602061061 L 154.73303586944473 317.48402743455256 L 154.6823031022507 317.4609163358163 L 154.6314844249152 317.43802752834586 L 154.58058111520052 317.4153616294724 L 154.52959445125566 317.3929192554476 L 154.47852571155727 317.37070102141513 L 154.42737617489448 317.34870754140235 L 154.37614712034323 317.3269394283078 L 154.32483982733692 317.3053972939293 L 154.27345557549458 317.28408174888943 L 154.22199564474388 317.26299340268605 L 154.1704613152723 317.2421328636697 L 154.11885386748298 317.22150073902384 L 154.0671745819492 317.2010976347453 L 154.0154247395324 317.1809241556898 L 153.96360562120864 317.1609809055013 L 153.91171850815797 317.1412684866458 L 153.85976468167658 317.1217875003761 L 153.80774542323215 317.10253854675125 L 153.75566201439895 317.0835222246106 L 153.7035157368671 317.0647391315758 L 153.6513078723584 317.04618986401937 L 153.599039702737 317.0278750171028 L 153.5467125098557 317.0097951847208 L 153.49432757562133 316.99195095952336 L 153.44084881581273 316.97399462082575 L 153.44093422431726 316.97374025154835 L 153.43477421788083 316.9719114757274 L 153.24392634521476 316.90509176345313 L 153.2431578611897 316.9048219987812 L 153.05243242500973 316.83769619529176 L 153.0516642760519 316.8374251419033 L 152.861061276358 316.76999324719867 L 152.8602934687409 316.7697209067392 L 152.66981290553306 316.7019829208194 L 152.66904544552503 316.701709294966 L 152.47868731880328 316.63366521783104 L 152.4779202126659 316.633390308292 L 152.28768452243023 316.56504013994186 L 152.2869177764194 316.5647639484568 L 152.09680452266974 316.4961076888914 L 152.09603814303512 316.4958302172314 L 151.9060473257716 316.4268678664509 L 151.90528131875567 316.4265891164179 L 151.7154129379782 316.3573206744222 L 151.7146473098166 316.3570406478495 L 151.5249013655252 316.28746611463856 L 151.52413612244703 316.2871848133907 L 151.33451261464168 316.21730418896465 L 151.33374776286743 316.21702161493675 L 151.1442466915482 316.14683489929547 L 151.14348223729183 316.14655105441415 L 150.95410360245864 316.0760582475577 L 150.95333955192558 316.07577313378016 L 150.76408335357846 316.0049742357086 L 150.76331971296563 316.00468785502284 L 150.5741859511046 315.933582865736 L 150.57342272660128 315.9332952201612 L 150.38441140122632 315.8618841396592 L 150.38364859901247 315.8615952312448 L 150.1947597101236 315.7898780595276 L 150.19399733637064 315.78958789035397 L 150.0052308839678 315.71756462742167 L 150.00446894483727 315.7172731995994 L 149.81582492892053 315.64494384545185 L 149.81506343056546 315.64465116112245 L 149.6265418511348 315.57201571575973 L 149.62578079969785 315.57172177709487 L 149.43738165675325 315.49878024051696 L 149.43662105836736 315.49848504971857 L 149.24834435190886 315.4252374219255 L 149.24758421269684 315.424940981226 L 149.05942994272436 315.3513872622177 L 149.0586702687983 315.35108957387934 L 148.87063843531192 315.27722976365584 L 148.86987923277383 315.2769308299713 L 148.68196983577351 315.2027649285327 L 148.68121111071372 315.20246475182444 L 148.4934241501995 315.12799275917064 L 148.4926659086977 315.12769134179104 L 148.3050013846695 315.05291325792206 L 148.3042436327937 315.0526106022533 L 148.11670154525163 314.97752642716915 L 148.11594428905823 314.9772225356231 L 147.92852463800222 314.90183226932373 L 147.9277678835361 314.90152714434214 L 147.74047066896617 314.8258307868276 L 147.7397144222593 314.8255244308813 L 147.55253964417543 314.7495219821515 L 147.55178391124826 314.74921439774107 L 147.36473156965047 314.6729058577962 L 147.36397635651002 314.6725970474512 L 147.1770464513983 314.59598241629106 L 147.17629176403952 314.5956723825708 L 146.98948429541386 314.51875166019556 L 146.98873013981773 314.5184404056878 L 146.80204510767817 314.4412135920973 L 146.80129148981322 314.4409011194193 L 146.61472889415973 314.3633682146137 L 146.6139758199805 314.3630545264115 L 146.42753566081308 314.2852155303907 L 146.42678313625993 314.28490062933884 L 146.24046541357856 314.2067555421028 L 146.2397134445786 314.2064394309049 L 146.0535181583833 314.1279882524537 L 146.05276675084878 314.12767093384156 L 145.86669390113957 314.0489136641752 L 145.86594306096848 314.0485951409093 L 145.67999264774534 313.96953178002775 L 145.67924238082085 313.96921205489673 L 145.49341440408378 313.8898426028 L 145.4926647162741 313.8895216786208 L 145.30695917602313 313.8098461353089 L 145.30621007318138 313.8095240149264 L 145.12062696941643 313.7295423803993 L 145.1198784573801 313.7292190666865 L 144.93441779010126 313.6489313409442 L 144.93366987469244 313.6486068368017 L 144.74833164389966 313.5680130198443 L 144.74758433092435 313.5676873282005 L 144.56236853661767 313.4867874200279 L 144.56162183186598 313.48646054383886 L 144.37652847404533 313.40525454445105 L 144.37578238329078 313.40492648670005 L 144.19081146195623 313.32341439609706 L 144.19006599095596 313.32308515979474 L 144.00521750610747 313.2412669779765 L 144.00447266060212 313.2409365661609 L 143.81974661223973 313.15881229312754 L 143.81900239795226 313.1584807088632 L 143.6343987860759 313.0760503446146 L 143.6336552087129 313.0757175909935 L 143.44917403332263 312.9929811355298 L 143.44843109857257 312.99264721567033 L 143.26407235966838 312.90960466899145 L 143.26333007320233 312.9092695860386 L 143.0790937707842 312.82592094814447 L 143.07835213825567 312.8255847052698 L 142.89423827232363 312.7419299761605 L 142.8934972993679 312.741592576562 L 142.7095058699219 312.6576317562376 L 142.70876556215546 312.657293203139 L 142.52489656919556 312.5730262915993 L 142.52415693221727 312.57268658825086 L 142.34041037574346 312.488113585496 L 142.33967141513307 312.4877727351735 L 142.1560472951453 312.40289364120355 L 142.15530901646326 312.4025516472084 L 141.9718073329616 312.3173664620232 L 141.97106974175009 312.3170233276828 L 141.78769049473448 312.23153205128244 L 141.78695359651576 312.2311877799492 L 141.60369678598622 312.14539041233365 L 141.60296058626324 312.1450450073854 L 141.41982621221976 312.0589415485547 L 141.41909071647567 312.0585950133944 L 141.23607877891828 311.97218546334847 L 141.23534399261644 311.9718378014038 L 141.05245449154512 311.8851221601427 L 141.05172042012865 311.8847733748663 L 140.8689533555434 311.79775164239004 L 140.86822000443516 311.7974017372591 L 140.68557537633598 311.71007391356767 L 140.6848427509383 311.70972289208385 L 140.5023205593252 311.6220889771772 L 140.50158866501965 311.6217368428663 L 140.3191889098926 311.53379683674444 L 140.3184577520402 311.5334435931567 L 140.13618043339923 311.4451974958197 L 140.1354500173393 311.4448431465288 L 139.95329513518445 311.3562909579766 L 139.95256546623546 311.35593550658035 L 139.77053302056663 311.26707722681294 L 139.76980410402572 311.26672067693283 L 139.587894094843 311.1775563059503 L 139.58716593598515 311.17719866123093 L 139.4053783632885 311.0877281990332 L 139.40465096736713 311.0873694631426 L 139.22298583115654 310.99759290972963 L 139.2222592034034 310.9972330863589 L 139.0407165036789 310.90715044173083 L 139.0399906493028 310.90678953459394 L 138.85857038606434 310.81640079875064 L 138.85784531025234 310.81603881158435 L 138.67654748349997 310.72534398452586 L 138.67582319141647 310.7249809210895 L 138.49464780115017 310.6339800028159 L 138.49392429793627 310.63361586689086 L 138.31287134415606 310.542308857402 L 138.31214863493085 310.5419436527924 L 138.13121811763668 310.45033055208836 L 138.1304962074955 310.4499642826198 L 137.94968812668742 310.3580450907006 L 137.9489670207026 310.3576777602209 L 137.7682813763806 310.2654524770865 L 137.76756107960117 310.2650840894648 L 137.58699787176525 310.1725527151153 L 137.58627838921623 310.17218327424223 L 137.40583761786635 310.0793458086775 L 137.40511895454952 310.0789753184652 L 137.22480061968574 309.9858317616853 L 137.22408278057867 309.98546022606683 L 137.04388688220095 309.89201057807173 L 137.04316987225712 309.89163800100096 L 136.86309641036547 309.7978822617906 L 136.8623802345145 309.79750864724224 L 136.68242920910893 309.7034468168168 L 136.68171387225541 309.70307216878587 L 136.50188528333592 309.6087042471452 L 136.5011707903604 309.60832856964726 L 136.32146463792697 309.51365455679144 L 136.32075099368504 309.5132778538619 L 136.14116727773768 309.4182977497909 L 136.14045448706008 309.4179200254853 L 135.9609932075988 309.32263383019904 L 135.9602812752916 309.32225508859267 L 135.7809424323164 309.2266628020913 L 135.78023136316006 309.2262830472788 L 135.60101495667092 309.13038466956226 L 135.60030475542067 309.13000390565765 L 135.4212107854176 309.0337994367259 L 135.42050145680366 309.0334176678625 L 135.24152992328666 308.9369071077156 L 135.2408214720129 308.93652433804544 L 135.0686790871424 308.8433382412894 L 135.05131178671368 308.83461084603147 L 135.04952522904338 308.8337085839704 L 135.02546357382164 308.8214962659117 L 135.02369786952357 308.8205956897335 L 134.9997537038592 308.80832339016405 L 134.99800935885204 308.80742502069637 L 134.9741802092806 308.79509335798207 L 134.97245771919088 308.79419771979565 L 134.9487411122481 308.7818073123027 L 134.9470409620506 308.7809149330854 L 134.92343442427205 308.7684663991799 L 134.92175708796321 308.7675778091081 L 134.89825814588454 308.7550717671561 L 134.89660408617476 308.75418749825735 L 134.8732102663316 308.7416245666249 L 134.8715799343595 308.74074515213516 L 134.84828876328748 308.72812594918844 L 134.84668259835604 308.72725192290443 L 134.8234916025908 308.7145770670095 L 134.82191003192906 308.71370896263994 L 134.79881673800628 308.7009790721629 L 134.79726017655244 308.7001174226781 L 134.7742621110077 308.687333115985 L 134.77273096121735 308.68647845296726 L 134.7498256505863 308.6736403484242 L 134.74832030226113 308.67279320141944 L 134.72550527307942 308.6599019173926 L 134.7240261032185 308.6590628132644 L 134.70129888202172 308.64611896811977 L 134.69984625470192 308.64528843041205 L 134.67720436802577 308.6322926425158 L 134.6757786342944 308.6314711908154 L 134.65321960867445 308.6184240785335 L 134.65182110647302 308.6176122278459 L 134.62934246844497 308.6045144095445 L 134.62797152255268 308.6037126696761 L 134.6055707986521 308.5905647637213 L 134.60422772064356 308.589773638669 L 134.58190243740611 308.57657626342694 L 134.58058752563664 308.57579625078137 L 134.55833520959797 308.5625500246181 L 134.55704874921096 308.5617816149814 L 134.53486692690672 308.548487156263 L 134.53360918985175 308.54773083267463 L 134.51149538781752 308.53438875976724 L 134.5102666328893 308.53364499714525 L 134.4882183776608 308.5202559284149 L 134.48701885056505 308.5195251930181 L 134.46503366867782 308.5060897468309 L 134.46386360209823 308.50537249572807 L 134.44193902008791 308.4918912904501 L 134.44079863378053 308.49118797101227 L 134.41893217818284 308.4776616250096 L 134.41782167908516 308.47697267442095 L 134.39601087643567 308.4634018060598 L 134.39493045877674 308.46272765083785 L 134.3731728356111 308.4491128784842 L 134.37212268105407 308.4484539340318 L 134.3504157639079 308.43479587605174 L 134.3493960416908 308.43415254621954 L 134.32773735709978 308.42045182097917 L 134.32674822419025 308.41982449765 L 134.30513529868995 308.4060817235154 L 134.30417689995144 308.40547078620983 L 134.28260726007755 308.39168658154716 L 134.28167972844525 308.3910923970507 L 134.26015090073338 308.37726738022604 L 134.25925435739452 308.37669030223475 L 134.2377638683803 308.36282509161407 L 134.2368984229695 308.36226546040626 L 134.2154437991886 308.3483606743558 L 134.21460954997625 308.34781881647785 L 134.19318831796426 308.33387507336363 L 134.19238535206185 308.3333513013441 L 134.17099503835442 308.31936921953223 L 134.17022343191982 308.31886383161515 L 134.14886156305258 308.30484402947167 L 134.1481213814978 308.3043573093715 L 134.1267854840064 308.29030040526254 L 134.126076782208 308.28983262194043 L 134.10476438262808 308.2757392342321 L 134.10408720514042 308.27529064169505 L 134.0827958300076 308.26116138875346 L 134.0821502112739 308.26073222587274 L 134.0608773871238 308.2465677260639 L 134.06026335169352 308.2461582164193 L 134.03900660506181 308.23195908810936 L 134.03842416779844 308.2315694398488 L 134.01718102522074 308.2173363014038 L 134.01663019151542 308.2169667071285 L 133.99539817952737 308.2027001769146 L 133.99487894550572 308.20235081358254 L 133.97365559064292 308.1880515099658 L 133.9731679433718 308.18772253881633 L 133.95195077216994 308.1733910801629 L 133.95149468985872 308.1730826466613 L 133.9302812288534 308.1587196513372 L 133.92985668105592 308.1584318851413 L 133.90864445678278 308.1440379715126 L 133.88703794358125 308.12934677288587 L 133.8654591685994 308.1146467718332 L 133.84390560309467 308.0999386689281 L 133.82237471041694 308.0852231489866 L 133.80086394617214 308.0705008811185 L 133.77937075839824 308.0557725188091 L 133.75789258771496 308.0410387000038 L 133.73642686749147 308.0263000472272 L 133.7149710239793 308.011557167697 L 133.6935224764617 307.99681065347096 L 133.67207863738446 307.98206108160053 L 133.6506369124855 307.9673090143026 L 133.62919936087857 307.95255820558424 L 133.60776913231325 307.9378131492452 L 133.58633312351307 307.9230671423667 L 133.56488870954598 307.90832068158966 L 133.54343326189053 307.89357425164343 L 133.52196414495467 307.87882832314597 L 133.50047871782368 307.864083354016 L 133.47897433348223 307.8493397891631 L 133.45744833899244 307.8345980608488 L 133.435898075623 307.81985858902686 L 133.4143208793143 307.8051217819255 L 133.39271408010026 307.7903880359273 L 133.3710750023609 307.77565773602925 L 133.34940096521302 307.7609312564059 L 133.32768928217536 307.74620896048737 L 133.30593726127046 307.7314912013444 L 133.28414220532946 307.7167783222183 L 133.26230141155395 307.7020706565555 L 133.24041217212647 307.6873685287569 L 133.21847177386164 307.67267225428577 L 133.19647749829298 307.65798214007503 L 133.1744266219131 307.6432984850407 L 133.15231641592203 307.62862158027025 L 133.13014414658616 307.613951709621 L 133.10790707495934 307.59928914989723 L 133.0856024572576 307.5846341714603 L 133.0702286885389 307.5745701484557 L 133.03643507479683 307.59164178929296 L 133.00070009997197 307.60971254592425 L 132.96499455813893 307.6277852920185 L 132.92931653886512 307.6458594576491 L 132.89366413459803 307.6639344696063 L 132.85803543904814 307.68200975218485 L 132.8224285489608 307.7000847262554 L 132.78684156217187 307.7181588102234 L 132.751272580079 307.7362314187475 L 132.71571970518974 307.7543019639604 L 132.68018104403447 307.7723698539658 L 132.6446546999017 307.79043449651095 L 132.60922430498448 307.80845180357585 L 132.61215398670853 308.06431067414405 Z" id="element_100" /></svg>