<?xml version='1.0' encoding='utf-8'?>
<svg xmlns:svg="http://www.w3.org/2000/svg" version="1.1" id="Layer_1" x="0px" y="0px" viewBox="0 0 500 500" style="width: 180px;" xml:space="preserve" data-imageid="toronto-61" imageName="Toronto" class="illustrations_image"><svg:style type="text/css">
	.st0_toronto-61{fill:#9D602A;}
	.st1_toronto-61{fill:#706767;}
	.st2_toronto-61{fill:#E5E1E1;}
	.st3_toronto-61{fill:#68E1FD;}
	.st4_toronto-61{fill:#A6916D;}
	.st5_toronto-61{opacity:0.49;fill:#39726F;enable-background:new    ;}
	.st6_toronto-61{opacity:0.81;fill:#39726F;enable-background:new    ;}
	.st7_toronto-61{opacity:0.59;fill:#FFFFFF;enable-background:new    ;}
	.st8_toronto-61{fill:#1E4549;}
	.st9_toronto-61{opacity:0.33;fill:#1E4549;enable-background:new    ;}
	.st10_toronto-61{fill:#CCCCCC;}
	.st11_toronto-61{fill:#E0E0E0;}
	.st12_toronto-61{fill:#39726F;}
</svg:style><svg:path class="st1_toronto-61" d="M 240.3220826087529 244.21564639255314 L 240.33314959871134 244.2222919795787 L 240.33290357115303 244.22268131931415 L 240.3903521265877 244.25898361917424 L 240.44764903754384 244.2952268657823 L 240.50489763474985 244.33147458139013 L 240.56209979537013 244.36772617799912 L 240.61925739609012 244.403981066538 L 240.67637231296928 244.4402386567582 L 240.73344642149587 244.47649835725787 L 240.79048159663756 244.5127595755033 L 240.84747971233645 244.54902171749762 L 240.90444264262038 244.5852841884778 L 240.9613722603386 244.6215463921011 L 241.01827043801268 244.65780773097725 L 241.07513904757795 244.6940676064958 L 241.13197996011144 244.73032541864416 L 241.1887950463381 244.7665805663231 L 241.24558617674953 244.80283244741514 L 241.30235521990366 244.8390804576927 L 241.35910404535673 244.87532399268326 L 241.4158345210788 244.91156244601373 L 241.47254851504897 244.9477952104236 L 241.52924789331945 244.98402167652335 L 241.58593601710604 245.02024218933127 L 241.64261652863112 245.05645727224228 L 241.69928802743175 245.09266422557346 L 241.75595237774667 245.12886243468807 L 241.8126114431917 245.16505128363522 L 241.86926708675483 245.2012301551448 L 241.92592117079496 245.23739843062572 L 241.982575557038 245.27355549016247 L 242.0392321065726 245.30970071251215 L 242.09589267984825 245.3458334751038 L 242.15255913667056 245.38195315403595 L 242.20923333619774 245.4180591240757 L 242.26591713693563 245.4541507586575 L 242.32261239673554 245.49022742988404 L 242.3793209727876 245.5262885085248 L 242.43604472161778 245.5623333640176 L 242.49278549908277 245.59836136446924 L 242.54954516036483 245.63437187665656 L 242.60632555996733 245.6703642660285 L 242.6631285517091 245.70633789670805 L 242.71995598872002 245.74229213149533 L 242.77680972343427 245.7782263318698 L 242.8336916075868 245.814139857995 L 242.89060349220526 245.85003206872076 L 242.94754722760626 245.8859023215892 L 243.00452466338882 245.92174997283874 L 243.0615376484275 245.95757437740892 L 243.11858803086807 245.99337488894724 L 243.1756776581193 246.0291508598139 L 243.23280837684854 246.0649016410896 L 243.28998203297414 246.1006265825817 L 243.34720047165962 246.13632503283216 L 243.40446553730652 246.17199633912492 L 243.4617790735487 246.20763984749487 L 243.51914292324545 246.24325490273648 L 243.5765589284737 246.27884084841224 L 243.63402893052333 246.3143970268638 L 243.69155476988917 246.34992277922106 L 243.74913828626396 246.3854174454127 L 243.8067813185328 246.42088036417815 L 243.8644857047656 246.45631087307814 L 243.92225328221025 246.49170830850701 L 243.98008588728672 246.52707200570535 L 244.037985355579 246.5624012987719 L 244.09595352183038 246.5976955206784 L 244.1535601977107 246.6326918465532 L 244.1539922199348 246.63295400328147 L 244.21166196915644 246.66790889862818 L 244.2121032829323 246.66817607733844 L 244.26983796059352 246.70308892379092 L 244.27028854300065 246.70336107252038 L 244.3280900041997 246.73823125171256 L 244.32854983145066 246.73850831742848 L 244.38641993128587 246.7733352109943 L 244.38688897871933 246.77361713960894 L 244.44482957228894 246.80840012918225 L 244.44530781436276 246.8086868655682 L 244.50332075676505 246.84342533278294 L 244.50380816705166 246.84371682079046 L 244.5618953133849 246.87841014728056 L 244.56239186456492 246.87870632975384 L 244.6205550699274 246.91335389715317 L 244.6210607337829 246.913654715947 L 244.67930185327288 246.94825590588945 L 244.67981660068293 246.94856130188745 L 244.73813748939867 246.983115496007 L 244.7386612903337 246.9834254091394 L 244.7970638033735 247.01793198906992 L 244.79759662688986 247.0182463583319 L 244.85608261935198 247.0527047057073 L 244.85662443358618 247.05302346917736 L 244.91519576056888 247.08743296563154 L 244.91574653273392 247.0877560604913 L 244.9744050493355 247.12211608765818 L 244.9749647457155 247.12244345021153 L 245.03371230703425 247.15675338972503 L 245.0342808929799 247.1570849554181 L 245.09311935411404 247.1913441889121 L 245.0936967940387 247.1916798923536 L 245.15262801008654 247.22588780146202 L 245.1532142674619 247.2262275764437 L 245.21224009352167 247.26038354280047 L 245.21283513087448 247.2607273223186 L 245.27195742204452 247.2948307275576 L 245.27256120095277 247.29517844383383 L 245.33178181233131 247.32922866958899 L 245.33239429342078 247.32958025409215 L 245.39171508010614 247.36357668199736 L 245.39233622304775 247.36393206546552 L 245.45175904013814 247.3978740771547 L 245.4523888036462 247.39823318961808 L 245.51191550623992 247.43212016672513 L 245.5125538480678 247.43248293752765 L 245.57218629126317 247.4663142616865 L 245.5728331682032 247.46668061950982 L 245.6325732070984 247.50045567235435 L 245.6332285749795 247.50082554524064 L 245.6930780646729 247.53454370840478 L 245.69374187835882 247.53491702378028 L 245.75370267394865 247.56857767889792 L 245.75437488733738 247.5689543635968 L 245.8144488439219 247.60255689230186 L 245.81512940994557 247.60293687259076 L 245.87531838262305 247.63648065651714 L 245.87600725324629 247.63686385811874 L 245.93631309711503 247.67034827890038 L 245.93701022333642 247.67073462701867 L 245.99743479349468 247.70415906628946 L 245.9981401253465 247.7045484856344 L 246.0586852768926 247.73791232502828 L 246.10977951725883 247.76240260374027 L 246.16331648928593 247.7809549021467 L 246.21860869363258 247.79333097941227 L 246.2367905118144 247.79633067332105 L 246.23840884808834 247.79659494636016 L 246.25659066627014 247.79953342202592 L 246.25821157923616 247.7997926582317 L 246.276393397418 247.8026699156544 L 246.27801684002605 247.8029240903091 L 246.29619865820786 247.80574012948875 L 246.29782458301315 247.80598921828934 L 246.31600640119498 247.80874403922599 L 246.31763476036454 247.8089880182906 L 246.33581657854637 247.8116816209842 L 246.33744732386103 247.81192046685746 L 246.35562914204283 247.81455285130804 L 246.35726222490965 247.8147865409682 L 246.37544404309148 247.81735770717574 L 246.3770794145438 247.81758621803976 L 246.3952612327256 247.82009616600425 L 246.39689884343358 247.82031947593399 L 246.4150806616154 247.82276820565545 L 246.41672046189342 247.82298629296386 L 246.43490228007525 247.82537380444228 L 246.43654421988512 247.82558664789843 L 246.45472603806692 247.8279129411338 L 246.4563700670274 247.8281205199689 L 246.47455188520922 247.83038559496126 L 246.47619795260414 247.83058788887428 L 246.49437977078594 247.83279174562358 L 246.4960278255678 247.83298873478614 L 246.51420964374964 247.83513137329243 L 246.5158596345515 247.83532303835463 L 246.53404145273333 247.83740445861787 L 246.53569332787194 247.83759078071307 L 246.55387514605374 247.83961098273326 L 246.5555288535393 247.8397919434833 L 246.57371067172113 247.84175092726048 L 246.57536615926668 247.84192650878077 L 246.59354797744848 247.8438242743149 L 246.5952051924733 247.84399445921895 L 246.61338701065512 247.84583100651005 L 246.61504590029776 247.84599577791448 L 246.6332277184796 247.84777110696254 L 246.6348882296014 247.8479304484914 L 246.6530700477832 247.84964455929642 L 246.65473212697853 247.84979845508573 L 246.67291394516036 247.85145134764772 L 246.67457753876656 247.85159978235012 L 246.69275935694836 247.85319145666907 L 246.69442441105048 247.85333441545743 L 246.7126062292323 247.85486487153332 L 246.7142726896729 247.85500234010524 L 246.73245450785473 247.85647157793812 L 246.73412232024526 247.8566035425199 L 246.75230413842706 247.85801156210974 L 246.75397324815114 247.8581380094598 L 246.77215506633297 247.8594848108066 L 246.77382541856068 247.85960572821955 L 246.79200723674248 247.86089131132331 L 246.79367877643455 247.86100668663317 L 246.81186059461638 247.8622310514939 L 246.81353326653462 247.86234087307759 L 246.83171508471645 247.86350401969528 L 246.8333888334355 247.86360827647604 L 246.8515706516173 247.8647102048507 L 246.85324542152898 247.86480888630078 L 246.8714272397108 247.86584959643238 L 246.87310297503507 247.86594269257625 L 246.89128479321687 247.86692218446484 L 246.89296143801323 247.86700968588198 L 246.91114325619506 247.86792795952755 L 246.91282075437033 247.86800985735505 L 246.93100257255213 247.86886691275754 L 246.9326808678648 247.86894319869236 L 246.95086268604663 247.86973903585184 L 246.95254172212518 247.86980970215353 L 246.970723540307 247.87054432106999 L 246.97240326065477 247.87060936056267 L 246.99058507883657 247.87128276123605 L 246.99226542683581 247.8713421673103 L 247.01044724501764 247.8719543497407 L 247.01212816395278 247.87200811635574 L 247.03030998213458 247.87255908054306 L 247.03199141518493 247.8726072022281 L 247.05017323336676 247.8730969481724 L 247.0518551236306 247.87313942002845 L 247.07003694181242 247.8735679477297 L 247.07171923230655 247.87360476543083 L 247.08990105048835 247.87397207488905 L 247.0915836841649 247.87400323468367 L 247.10976550234673 247.87430932589885 L 247.11144842209626 247.87433482461068 L 247.12963024027806 247.87457969758285 L 247.1313133889466 247.87459953261194 L 247.14949520712844 247.87478318734102 L 247.15117852751675 247.8747973566644 L 247.16936034569855 247.8749197931505 L 247.17104378058684 247.8749282953228 L 247.18922559876867 247.87498951356582 L 247.1909090909091 247.87499234771965 L 247.20909090909092 247.87499234771965 L 247.21077440123133 247.87498951356582 L 247.22895621941313 247.8749282953228 L 247.23063965430143 247.8749197931505 L 247.24882147248326 247.8747973566644 L 247.25050479287157 247.87478318734102 L 247.26868661105337 247.87459953261194 L 247.2703697597219 247.87457969758285 L 247.28855157790372 247.87433482461068 L 247.29023449765327 247.87430932589885 L 247.3084163158351 247.87400323468367 L 247.31009894951166 247.87397207488905 L 247.32828076769346 247.87360476543083 L 247.3299630581876 247.8735679477297 L 247.34814487636942 247.87313942002845 L 247.34982676663327 247.8730969481724 L 247.36800858481507 247.8726072022281 L 247.36969001786616 247.87255908054303 L 247.387871836048 247.8720081163557 L 247.38955275498162 247.8719543497407 L 247.40773457316342 247.87134216731033 L 247.40941492116417 247.87128276123602 L 247.427596739346 247.8706093605626 L 247.4292764596922 247.87054432106999 L 247.44745827787403 247.86980970215356 L 247.4491373139534 247.8697390358518 L 247.4673191321352 247.86894319869234 L 247.46899742744858 247.8688669127575 L 247.48717924563041 247.868009857355 L 247.4888567438042 247.86792795952755 L 247.507038561986 247.867009685882 L 247.50871520678305 247.86692218446484 L 247.52689702496488 247.86594269257625 L 247.5285727602892 247.86584959643238 L 247.54675457847102 247.86480888630078 L 247.54842934838348 247.86471020485064 L 247.56661116656528 247.86360827647596 L 247.56828491528276 247.8635040196953 L 247.5864667334646 247.86234087307764 L 247.58813940538445 247.86223105149384 L 247.60632122356625 247.8610066866331 L 247.60799276325744 247.8608913113233 L 247.62617458143927 247.85960572821952 L 247.62784493366632 247.85948481080663 L 247.64602675184813 247.85813800945985 L 247.64769586157286 247.85801156210974 L 247.6658776797547 247.8566035425199 L 247.66754549214528 247.85647157793812 L 247.6857273103271 247.85500234010524 L 247.68739377076852 247.85486487153327 L 247.70557558895032 247.85333441545734 L 247.70724064305156 247.85319145666904 L 247.7254224612334 247.8515997823501 L 247.72708605483973 247.8514513476477 L 247.74526787302153 247.8497984550857 L 247.7469299522167 247.8496445592964 L 247.76511177039853 247.84793044849138 L 247.76677228152047 247.8477711069625 L 247.78495409970228 247.84599577791445 L 247.7866129893441 247.8458310065101 L 247.80479480752592 247.84399445921903 L 247.80645202255144 247.84382427431493 L 247.82463384073327 247.8419265087808 L 247.82628932827896 247.84175092726048 L 247.84447114646076 247.8397919434833 L 247.84612485394692 247.8396109827332 L 247.86430667212875 247.837590780713 L 247.86595854726676 247.83740445861784 L 247.88414036544856 247.8353230383546 L 247.88579035624957 247.83513137329248 L 247.9039721744314 247.83298873478623 L 247.9056202292147 247.8327917456235 L 247.92380204739652 247.83058788887416 L 247.92544811479013 247.8303855949613 L 247.94362993297193 247.828120519969 L 247.9452739619337 247.82791294113372 L 247.96345578011554 247.82558664789832 L 247.96509771992487 247.82537380444222 L 247.98327953810667 247.8229862929638 L 247.98491933838457 247.82276820565542 L 248.0031011565664 247.82031947593396 L 248.00473876727438 247.82009616600422 L 248.02292058545618 247.81758621803974 L 248.0245559569085 247.81735770717572 L 248.04273777509033 247.81478654096819 L 248.04437085795703 247.814552851308 L 248.06255267613886 247.81192046685743 L 248.06418342145375 247.81168162098413 L 248.08236523963555 247.80898801829053 L 248.083993598805 247.80874403922596 L 248.10217541698682 247.8059892182893 L 248.10380134179212 247.80574012948873 L 248.12198315997392 247.80292409030906 L 248.123606602582 247.80266991565438 L 248.14178842076382 247.79979265823167 L 248.141791506967 247.79979216464835 L 248.15059753170928 247.79970633583153 L 248.15245113835962 247.79968483298236 L 248.16780929084663 247.79947819564686 L 248.1696093822817 247.7994507348143 L 248.18502380608302 247.79918782616448 L 248.1867713510566 247.79915496457284 L 248.20224080944004 247.7988370213409 L 248.20393674755283 247.79879928654702 L 248.2194600037862 247.79842754546516 L 248.22110524585534 247.79838543688177 L 248.2366810632065 247.79796113468214 L 248.2382764916374 247.79791512502322 L 248.25390363337414 247.797439498438 L 248.2554501025606 247.79739003508863 L 248.27112733195068 247.79686432085003 L 248.27262566869175 247.79681182716445 L 248.28835174900308 247.79623726200464 L 248.28980275291667 247.79618213853647 L 248.30557644741702 247.7955599591876 L 248.30698089137186 247.79550258485406 L 248.32280096332906 247.79483402804837 L 248.32415959388013 247.79477476123256 L 248.34002480656198 247.7940610637022 L 248.34133834438256 247.79400024329632 L 248.35724746105691 247.7932426417735 L 248.35851660137902 247.79318058816506 L 248.37446838531366 247.79238031938192 L 248.37569379835583 247.7923173353869 L 248.39168701281858 247.79147563607566 L 248.39286934422222 247.79141200781973 L 248.4089027524809 247.79053011471257 L 248.41004262373625 247.79046611246403 L 248.4261149890587 247.7895452622931 L 248.42721299792038 247.78948114124958 L 248.44332308357437 247.78852257074706 L 248.44437980447552 247.7884585717778 L 248.46052637372892 247.78746351767592 L 248.46154235819048 247.7873998680219 L 248.47772417431108 247.78636956705284 L 248.47869995133277 247.78630648098755 L 248.49491577758837 247.78524216988342 L 248.49585185402813 247.7851798493355 L 248.5121004536866 247.78408276482855 L 248.51299731464925 247.78402139996712 L 248.52927745097836 247.78289277878952 L 248.53013556016532 247.78283254857675 L 248.5464459964329 247.7816736274607 L 248.54726579650307 247.78161470017005 L 248.56360529597694 247.78042671584768 L 248.56438720887786 247.78036924955194 L 248.58075453482584 247.7791534387555 L 248.58149896213115 247.77909758178356 L 248.59789287782107 247.77785518124514 L 248.5986002010307 247.7778010726122 L 248.61501946973036 247.77653331906407 L 248.6156900505877 247.77648108887203 L 248.6321334355649 247.77518921904633 L 248.63276761632807 247.77513898886113 L 248.64923388085063 247.77382423949007 L 248.64983198457998 247.7737761226912 L 248.66631989191578 247.77243973050693 L 248.66688222272455 247.7723938326154 L 248.68339053614133 247.77103703435012 L 248.68391737944796 247.770993453332 L 248.70093648497203 247.76957631226674 L 248.71793855127171 247.76814372983378 L 248.73492257228284 247.76669701967643 L 248.7518875240898 247.76523748888806 L 248.76883236510247 247.76376643821462 L 248.7857560362207 247.76228516223787 L 248.80265746097717 247.76079494954215 L 248.81953554567963 247.75929708286216 L 248.83638917952166 247.75779283921585 L 248.85321723469656 247.75628349001906 L 248.8700185664806 247.75477030118552 L 248.88679201332044 247.7532545332099 L 248.90353639688672 247.75173744123634 L 248.92025052213046 247.7502202751108 L 248.9369331773151 247.7487042794187 L 248.95359146295786 247.74718993663728 L 248.9702241393575 247.74567848292577 L 248.98682162234152 247.74417190710412 L 249.00338264286424 247.74267143533217 L 249.01990591380422 247.74117828861716 L 249.03639013188828 247.73969368259026 L 249.05283397641284 247.73821882755658 L 249.06923611054438 247.73675492829605 L 249.08559517989636 247.7353031840921 L 249.10190981334736 247.73386478854223 L 249.11817862241253 247.73244092948025 L 249.1344002015533 247.73103278879765 L 249.150573127565 247.72964154232747 L 249.16669595967775 247.72826835964693 L 249.1827672395266 247.7269144038729 L 249.19878549063992 247.72558083147842 L 249.2147492184018 247.7242687920479 L 249.23065690998 247.7229794280151 L 249.24650703380115 247.7217138744163 L 249.26229803952884 247.72047325857926 L 249.27802835783092 247.71925869980657 L 249.2936963999383 247.71807130905026 L 249.3093005574504 247.71691218854193 L 249.32483920211516 247.7157824313984 L 249.34031068545838 247.71468312121138 L 249.35571333838743 247.71361533160965 L 249.37104547098826 247.71258012577727 L 249.38630537214175 247.71157855595348 L 249.40149130905485 247.71061166290505 L 249.41660152711435 247.70968047534288 L 249.4316342492753 247.7087860093329 L 249.4465876758062 247.7079292676461 L 249.4614599838667 247.7071112390801 L 249.47624932708848 247.70633289773835 L 249.49095383511232 247.7055952022686 L 249.50557161328905 247.70489909504695 L 249.5201007420906 247.70424550132896 L 249.5345392768264 247.70363532833557 L 249.5488852470855 247.70306946429946 L 249.5631366564003 247.70254877744625 L 249.57729148173783 247.70207411492524 L 249.5913476731213 247.70164630167434 L 249.6053031531489 247.7012661392251 L 249.61915581665477 247.70093440443694 L 249.63290353020125 247.70065184816585 L 249.64654413180807 247.7004191938547 L 249.6600754304529 247.70023713605187 L 249.6734952058624 247.7001063388444 L 249.68680120807247 247.70002743421168 L 249.69999931026425 247.70000100396155 L 249.7132256544651 247.70002752725927 L 249.72661559709104 247.70010708786904 L 249.74017365307802 247.70023965890366 L 249.7538962452086 247.70042515580647 L 249.76777987224503 247.70066345591437 L 249.7818211051317 247.70095440136993 L 249.7960165832737 247.70129780179093 L 249.81036301114403 247.70169343672285 L 249.82485715498058 247.70214105788978 L 249.83949583973987 247.70264039126457 L 249.85427594613697 247.70319113897037 L 249.86919440797104 247.7037929810345 L 249.88424820946054 247.7044455769983 L 249.89943438282862 247.70514856740428 L 249.9147500059334 247.70590157516307 L 249.9301922001709 247.7067042068212 L 249.94575812826625 247.70755605372014 L 249.96144499242013 247.70845669307792 L 249.9772500324107 247.70940568898166 L 249.9931705238371 247.71040259330695 L 250.00920377645144 247.71144694656758 L 250.02534713258464 247.71253827870268 L 250.0415979656893 247.71367610980747 L 250.05795367884542 247.71485995080278 L 250.07441170353775 247.71608930406884 L 250.09096949827975 247.71736366401782 L 250.10762454744307 247.71868251763448 L 250.12437436018368 247.72004534498095 L 250.1412164692391 247.72145161965184 L 250.15814842999882 247.72290080921294 L 250.17516781950897 247.72439237560076 L 250.19227223549635 247.72592577549105 L 250.20945929553875 247.7275004606501 L 250.22672663623376 247.72911587825826 L 250.24407191236108 247.7307714712066 L 250.26149279622652 247.73246667838683 L 250.27898697674817 247.73420093493357 L 250.29655215904 247.73597367249397 L 250.31418606349717 247.737784319429 L 250.33188642544846 247.7396323010529 L 250.34965099429974 247.74151703980374 L 250.36747753317675 247.7434379554499 L 250.3853638182609 247.7453944652491 L 250.40330763840913 247.74738598412387 L 250.4213067946165 247.74941192480762 L 250.43935909940802 247.75147169796938 L 250.45746237668703 247.75356471237896 L 250.47561446111175 247.75569037500807 L 250.49381319773715 247.75784809115135 L 250.5120564416643 247.76003726453888 L 250.53034205768802 247.7622572974401 L 250.54866791986163 247.76450759074888 L 250.56703191134844 247.76678754409608 L 250.58543192391343 247.76909655591024 L 250.6038658577153 247.771434023509 L 250.62233162103814 247.77379934317577 L 250.64082712999 247.776191910227 L 250.65935030822777 247.77861111907643 L 250.6778990867826 247.7810563633072 L 250.69647140370927 247.78352703571574 L 250.71506520395485 247.78602252837987 L 250.73367843918973 247.78854223271753 L 250.7523090673364 247.7910855395001 L 250.77095505276267 247.79365183895214 L 250.78961436580022 247.7962405207553 L 250.80828498271478 247.7988509741105 L 250.8269648854428 247.80148258776435 L 250.84565206155477 247.80413475006435 L 250.86434450392406 247.80680684896925 L 250.88304021078048 247.80949827211114 L 250.90173718546865 247.81220840681328 L 250.92043343631596 247.8149366401202 L 250.9391269765071 247.8176823588271 L 250.95781582396165 247.82044494950688 L 250.97649800141204 247.82322379856484 L 250.99517153590853 247.82601829220658 L 251.01383445913245 247.82882781652376 L 251.03248480698346 247.83165175746998 L 251.0511206197537 247.83448950092267 L 251.06973994187595 247.83734043267953 L 251.08834082190518 247.84020393848832 L 251.10692131240793 247.8430794040612 L 251.12547947000996 247.84596621511213 L 251.14401335519747 247.84886375735493 L 251.16252103241757 247.85177141654626 L 251.1810005697573 247.85468857846158 L 251.1994500394133 247.8576146289945 L 251.2178675169716 247.86054895406707 L 251.2362510819953 247.86349093974576 L 251.25459881764326 247.8664399722035 L 251.27290881064715 247.86939543773647 L 251.29117915154404 247.87235672282225 L 251.309407934504 247.8753232141114 L 251.32759325715443 247.87829429841753 L 251.34573322098785 247.88126936280142 L 251.36382593094586 247.88424779452046 L 251.38186949572912 247.88722898109532 L 251.3998620276702 247.89021231030506 L 251.41793629235076 247.89321957370618 L 251.46510528202666 247.89878087238546 L 251.51258913953242 247.89984148843996 L 251.55995940061803 247.89639185154226 L 251.60678862605553 247.8884630890305 L 251.65265425857993 247.8761267450348 L 251.69714243577832 247.85949413490863 L 251.739851724522 247.8387153407893 L 251.7803967432448 247.81397785735197 L 251.81841163938225 247.78550489997656 L 251.85355339059333 247.75355339059325 L 251.88413915035355 247.720057984068 L 251.9115635509927 247.68392858872315 L 251.9356008972672 247.64546253950465 L 251.95605336845549 247.6049764013745 L 251.97275264636804 247.56280336406866 L 251.97437009238865 247.55810658221174 L 251.97463309543468 247.55738719811228 L 251.97519838472294 247.5559213943317 L 251.97607358043942 247.55375829201134 L 251.97726287319946 247.55094340522322 L 251.97876765097868 247.54751877483926 L 251.98058702475888 247.54352314528282 L 251.98271826664012 247.53899216563477 L 251.98515717324474 247.5339586016966 L 251.9878983659312 247.52845254966036 L 251.99093553790706 247.52250164509812 L 251.9942616570133 247.51613126308257 L 251.99786913164493 247.5093647069197 L 252.00174994611328 247.50222338414326 L 252.0058957707715 247.49472696917684 L 252.01029805132248 247.48689355267462 L 252.0149480810303 247.47873977783826 L 252.0198370588168 247.47028096443015 L 252.02495613590034 247.4615312209809 L 252.0302964528914 247.45250354628266 L 252.03584916921082 247.44320992072312 L 252.04160548618216 247.43366138837217 L 252.04755666491008 247.42386813067262 L 252.05369403997602 247.41383953232682 L 252.06000902968637 247.40358424013175 L 252.0664931435026 247.39311021539302 L 252.07313798717124 247.38242478048767 L 252.07993526598105 247.3715346600765 L 252.08687678649653 247.36044601741548 L 252.09395445698007 247.3491644862753 L 252.10116028681716 247.33769519868062 L 252.1084864373977 247.32604272563893 L 252.11596738630212 247.31414398279867 L 252.12355266448887 247.30207061336944 L 252.13123470844252 247.28982574014486 L 252.13867159130027 247.27794703059246 L 252.13900603908854 247.2774120771072 L 252.14644292194632 247.26549997578584 L 252.1468592568992 247.2648319371174 L 252.15428933772995 247.25288891749148 L 252.15478703643416 247.25208723720095 L 252.1622035132109 247.24011577273487 L 252.16278212029957 247.2391795015173 L 252.1701781909953 247.22718206567535 L 252.17083731244574 247.2261098621535 L 252.17820617503347 247.2140889284001 L 252.17894547076187 247.212879057781 L 252.18628032321456 247.2008370995805 L 252.18709949885687 247.1994874302788 L 252.19439353914754 247.18742692109555 L 252.19529233693748 247.18593491935286 L 252.20253876303914 247.17385833265124 L 252.20351695164055 247.1722210552271 L 252.21070896152617 247.16013086447145 L 252.2117663246771 247.15834494943957 L 252.21889711631965 247.1462436280943 L 252.2200334401193 247.14430528378034 L 252.22709621149184 247.13219530530978 L 252.22831127012 247.13010029743597 L 252.23529921919547 247.1179841353045 L 252.2365927588453 247.11572777237723 L 252.24349908359673 247.1036079000492 L 252.24487080436572 247.101185017046 L 252.25168870276613 247.0890639079858 L 252.25313823820443 247.08646884843336 L 252.25986090822676 247.07434897610534 L 252.2613878022169 247.07157557264244 L 252.26800844183416 247.05945941051098 L 252.26961212244328 247.0565009640467 L 252.27612392962848 247.04439098557614 L 252.27780367950453 247.04124024323914 L 252.28419985223067 247.02913892189386 L 252.2859547750955 247.02578805396936 L 252.29222851133557 247.01369786321374 L 252.29405749406152 247.01013843935758 L 252.3002019917885 246.99806185265595 L 252.30210366149737 246.9942848177513 L 252.30811211868428 246.98222430856805 L 252.31008479426413 246.97821995866582 L 252.31595040888396 246.9661780004653 L 252.31799204625025 246.96193595940872 L 252.323708016276 246.94991502565532 L 252.32581614667265 246.9454242230971 L 252.33137567007728 246.93342678725514 L 252.33354733066258 246.92867543896907 L 252.33894360541913 246.91670397450295 L 252.3411752613549 246.91167956609257 L 252.34640148543633 246.89973654646667 L 252.34868894267672 246.89442582183847 L 252.35373831405605 246.88251372051712 L 252.35607662205868 246.87690267674515 L 252.36094233870892 246.86502396719274 L 252.3633256823275 246.85909785775752 L 252.3680009422216 246.84725501343837 L 252.37042252212666 246.84099836223064 L 252.37490052323767 246.82919385660918 L 252.37735242440132 246.82259048544893 L 252.38162636470219 246.81082679198948 L 252.3840994126749 246.80385986502455 L 252.38816249013868 246.7921394571915 L 252.3906460952539 246.784791545915 L 252.39449150785353 246.7731168971727 L 252.39697349792235 246.7653700705148 L 252.40059444363084 246.75374365432762 L 252.40306088638448 246.74557959871169 L 252.40645056317481 246.73400388854398 L 252.40888558052123 246.72540406345857 L 252.41203718636643 246.71388153277474 L 252.41442276363355 246.70482736780627 L 252.41732949650662 246.69336049007066 L 252.41964529116183 246.6838336297655 L 252.42230034903574 246.67242487844246 L 252.42452350501478 246.66240748144972 L 252.42692008586255 246.65105933000362 L 252.42902506155863 246.6405344287572 L 252.43115636335324 246.6292493506524 L 252.43311478351077 246.61820127722876 L 252.4349740042252 246.60698174592966 L 252.43675454842577 246.5953966283613 L 252.43833488603303 246.58424511733222 L 252.43990322899833 246.5721114486233 L 252.44119788147142 246.56103043132865 L 252.44251670291652 246.54833971029592 L 252.44351886822847 246.5373316602 L 252.4445479521892 246.52407909904645 L 252.44525082831294 246.5131464896137 L 252.44594727340652 246.4993317776686 L 252.4463440583151 246.48847708236335 L 252.44666262083405 246.4741051885869 L 252.44674651250043 246.46333088087349 L 252.4466401030384 246.44841286994 L 252.44640429943559 246.43772142328285 L 252.44582465037138 246.42227525124002 L 252.44526234947236 246.41166913910345 L 252.4441608645311 246.39572038591143 L 252.44326526430893 246.38520208175981 L 252.44159405221413 246.368784569837 L 252.4403583506417 246.35835654713472 L 252.43807143245112 246.34151278910508 L 252.43648882750153 246.3311775213165 L 252.43354349188576 246.31395893733026 L 252.43160718153194 246.3037188979197 L 252.42796544493143 246.28618574535128 L 252.4256686271464 246.27604340778316 L 252.42129873788232 246.25826437429012 L 252.41863461063906 246.24822221202882 L 252.41351251983943 246.23027363833214 L 252.41047428111096 246.22033412484194 L 252.40458499120766 246.2022988455212 L 252.40116583896696 246.19246445426657 L 252.39450453515227 246.1744302724723 L 252.39069766737234 246.1647034769175 L 252.38327054083368 246.14676131947766 L 252.3790691554875 246.13714459308716 L 252.37089384074977 246.1193864229618 L 252.36629113581034 246.1098822391999 L 252.3573967077149 246.0923988281794 L 252.35238588115527 246.08300966051047 L 252.3476383321241 246.07451910282532 L 252.3459346087097 246.07045342650443 L 252.34514797889565 246.06858686996583 L 252.32981353044212 246.03240544547708 L 252.3290220393912 246.0305483762291 L 252.3135663911838 245.99448691476206 L 252.3127702223435 245.9926395483212 L 252.29719399274828 245.9566968131437 L 252.29639333214982 245.9548593617981 L 252.2806971395329 245.91903411617793 L 252.2798921756804 245.9172067888941 L 252.26407663840786 245.8814977960991 L 252.26326756216775 245.87968079843782 L 252.24733329860572 245.8440868217358 L 252.24652030309218 245.84228035576695 L 252.23046793160668 245.80680015842572 L 252.2296512120685 245.80500442265316 L 252.21348135102565 245.76963676794054 L 252.21266110472794 245.76785195722397 L 252.19637437249386 245.73259560840776 L 252.1955507986007 245.73082191389264 L 252.17914781354145 245.6956756342407 L 252.1783211129973 245.69391324329257 L 252.16180249347897 245.6588757960727 L 252.1609728688886 245.6571248922141 L 252.14433923327732 245.62219504069412 L 252.1435068887834 245.6204558035434 L 252.12675885544522 245.5856323109911 L 252.12592399660892 245.58390491621213 L 252.10906218390994 245.54918654589537 L 252.10822501758722 245.54747116514443 L 252.09125004389355 245.51285668033097 L 252.09041077811227 245.5111534812098 L 252.07332326178997 245.47664164516752 L 252.0724821056293 245.47495079118568 L 252.05528266504447 245.44054036718234 L 252.05443982850906 245.43886201771394 L 252.03712908202783 245.40455176901742 L 252.036284775927 245.40288607927116 L 252.0188633419154 245.36867476914924 L 252.01801777774077 245.36702189013943 L 252.00048627456496 245.33290828185991 L 251.99963966436616 245.33126836037715 L 251.98199871039216 245.29725121720787 L 251.9811512666582 245.2956243958035 L 251.96340148025214 245.26170248101226 L 251.9625534157881 245.26008889797714 L 251.9446954153161 245.2262609748318 L 251.943846943124 245.22466076418488 L 251.92588134695208 245.19092559595325 L 251.925032680112 245.18933888743342 L 251.9069601066063 245.15569523738327 L 251.90611145815745 245.15412215644244 L 251.88793252568408 245.12056878784162 L 251.88708410850842 245.11900945564471 L 251.8687994354334 245.08554513176105 L 251.86795146214098 245.0839996651901 L 251.84956166683045 245.0506231492914 L 251.84871434964367 245.04909166094913 L 251.83022005046374 245.0158017163032 L 251.82937360110597 245.01428431452473 L 251.8107754164227 244.9810797043994 L 251.80993004600748 244.97957649326634 L 251.79122859418695 244.94645598092941 L 251.79038451310896 244.94496706028679 L 251.7715804125173 244.9119294090061 L 251.77073783034442 244.9104548744816 L 251.75183169934766 244.87749884752495 L 251.75099082471763 244.87603879055615 L 251.73198328168195 244.8431631511914 L 251.73114432219694 244.84171765904856 L 251.71203598548834 244.80892117054347 L 251.71119914761687 244.80749032636493 L 251.6919906356015 244.77477175198732 L 251.69115612457634 244.773355634807 L 251.67184805562025 244.74071373782473 L 251.67101607534642 244.73931242261574 L 251.65160906781577 244.7067459662966 L 251.6507798207717 244.705359524002 L 251.63127449303252 244.67286727161382 L 251.63044818018253 244.67149576919553 L 251.6108451506009 244.63907648400613 L 251.6100219713044 244.63771998448598 L 251.59032185824648 244.60537242976315 L 251.58950201017058 244.60403099226872 L 251.5697054320024 244.5717539312803 L 251.5688891110405 244.57042761109807 L 251.5489966861282 244.53821980711186 L 251.54818408631564 244.53690865573364 L 251.52819643302524 244.50476887201748 L 251.5273877464638 244.50347293719923 L 251.50730548316147 244.47139993702095 L 251.50650089994033 244.47011926283358 L 251.48632464499212 244.43811180946096 L 251.48552435311692 244.43684643635112 L 251.4652547248889 244.404903293052 L 251.46445891021074 244.40365325790108 L 251.44409652706906 244.37177318794326 L 251.44330537321497 244.37053852412507 L 251.42285085352566 244.33872029077637 L 251.42206454183662 244.33750102822472 L 251.40151850396583 244.305743394753 L 251.40073721343177 244.30453956002125 L 251.38010027574555 244.27284128969427 L 251.3793241829474 244.271652906023 L 251.35859696381186 244.2400127621086 L 251.3578262428642 244.23883984949083 L 251.33700936064542 244.20725659525684 L 251.3362441831429 244.2060991705064 L 251.31533825620696 244.1745715692206 L 251.3145787911725 244.17342964603998 L 251.29358443788553 244.14195646097022 L 251.2928308517217 244.14083005001933 L 251.27174869044975 244.10941004443345 L 251.27100114689432 244.1082991534023 L 251.24983179600352 244.07693109056805 L 251.2490904560838 244.07583572424346 L 251.2278345339402 244.0445183674287 L 251.22709955593479 244.04343852776915 L 251.2057576809045 244.0121706402417 L 251.20502922030428 244.0111063264476 L 251.18360201075342 243.97988667147527 L 251.18288022022637 243.978837880061 L 251.161368294521 243.9476652209116 L 251.16065332387893 243.94663194577754 L 251.13905730038513 243.9155050457189 L 251.13834929655494 243.91448727822583 L 251.11666979363883 243.88340490052576 L 251.11596890063223 243.88240262956433 L 251.09420653665987 243.85136353749064 L 251.09351289555065 243.85037674955734 L 251.07166828888816 243.81937970637787 L 251.07098203778696 243.8184083856448 L 251.04905580680042 243.78745215462735 L 251.0483770808353 243.78649628301602 L 251.02636984389082 243.7555796274284 L 251.02569877518826 243.75463918468105 L 251.00361115065192 243.72376086779113 L 251.0029478683212 243.72283583154336 L 250.98078047455908 243.69199461661887 L 250.98012510467694 243.69108496246892 L 250.95787856005512 243.66027961277774 L 250.95723122565613 243.65938531436055 L 250.93490614854073 243.62861459317048 L 250.93426696960466 243.6277356222241 L 250.91186397836174 243.59699829280297 L 250.91123307180868 243.5961346192422 L 250.88875278480438 243.5654294448578 L 250.88813026448548 243.56458103683863 L 250.86557330008583 243.5339067807588 L 250.8649592767829 243.53307360475148 L 250.84232625335406 243.50242903024406 L 250.8417208347747 243.5016110510969 L 250.81901237068269 243.47099492142962 L 250.818415661461 243.47019210243704 L 250.79563237507196 243.4396031808778 L 250.7950444767697 243.4388154838459 L 250.7721869864497 243.4082525336625 L 250.77160799755987 243.4074799189745 L 250.748676921675 243.37694170343477 L 250.74810693762538 243.37618413011342 L 250.72510289454175 243.34566941248514 L 250.7245420077017 243.34492683825667 L 250.7014656157854 243.31443438180767 L 250.7009139154734 243.31370676316297 L 250.67776579309051 243.28323533116108 L 250.67722336558288 243.28252262341627 L 250.65400413109947 243.2520709791293 L 250.65347105964176 243.25137313648636 L 250.63018133142398 243.22094004318214 L 250.62965769624086 243.220257018785 L 250.60629809265473 243.18984123973132 L 250.60578397096543 243.18917298572617 L 250.5823551103771 243.1587732841909 L 250.58185057640688 243.15811975177874 L 250.5583530771824 243.12773489102963 L 250.55785820218014 243.12709603052397 L 250.53429268268565 243.09672477382887 L 250.53380753493826 243.09610053470666 L 250.5101746135398 243.0657416453334 L 250.5096992583921 243.06513197629044 L 250.4859995534558 243.0347842175068 L 250.48553405332527 243.03418906650413 L 250.46176818321717 243.00385120157796 L 250.4613125976176 243.00327051589684 L 250.43748118070383 242.97294130809595 L 250.43703556626198 242.97237503438197 L 250.41313922090865 242.94205324697418 L 250.41270363138676 242.94150133128608 L 250.38874297595993 242.9111857275392 L 250.38831746227743 242.91064811539434 L 250.3642931151432 242.88033745857618 L 250.36387772539877 242.87981409499466 L 250.3397903049232 242.84950714837305 L 250.33938508441892 242.84899797792173 L 250.31523520896818 242.81869350476447 L 250.3148402002313 242.81819847159616 L 250.29597751526032 242.79459004601796 L 250.29320363614414 242.79086323564078 L 250.2866069721513 242.78186153790057 L 250.28021805614318 242.7730031472652 L 250.27403649394006 242.76429072807315 L 250.2680618180808 242.75572702600817 L 250.26229348167075 242.74731486874353 L 250.25673085175586 242.73905716619547 L 250.25137320234032 242.7309569105315 L 250.24621970691797 242.72301717571412 L 250.24126943059363 242.71524111665465 L 250.2365213217223 242.7076319678224 L 250.23197420309583 242.70019304129752 L 250.22762676267087 242.6929277241909 L 250.22347754380965 242.685839475303 L 250.21952493510267 242.67893182103887 L 250.21576715969434 242.67220835033282 L 250.21220226424057 242.66567270866756 L 250.2088281074341 242.65932859092212 L 250.20564234820293 242.65317973305116 L 250.20264243359435 242.6472299024108 L 250.19982558643335 242.6414828866513 L 250.19718879283624 242.63594248105738 L 250.1947287896431 242.6306124741389 L 250.19244205194641 242.62549663147132 L 250.19032478079234 242.62059867753484 L 250.18837289125275 242.61592227551296 L 250.1865820010451 242.61147100492445 L 250.18594524256108 242.60982604550736 L 250.21737886575596 242.58635560766163 L 250.25176628703971 242.5553315062057 L 250.25607188823287 242.55106910526814 L 250.25862651369457 242.54859044663834 L 250.2612252269099 242.54611896999552 L 250.26386845142187 242.54365476086966 L 250.26655658889638 242.5411979367976 L 250.26929001839778 242.53874864601838 L 250.27206909575665 242.53630706614175 L 250.27489415301142 242.53387340281117 L 250.277765497907 242.53144788837713 L 250.28068341348344 242.5290307805553 L 250.28364815770425 242.5266223611131 L 250.2866599631559 242.52422293455962 L 250.28971903683131 242.52183282682998 L 250.29282555993143 242.51945238401808 L 250.2959796877628 242.51708197109602 L 250.2991815496552 242.51472197067991 L 250.3024312489459 242.5123727818063 L 250.3057288630146 242.5100348187314 L 250.30907444336648 242.50770850975508 L 250.3124680157178 242.50539429610058 L 250.3159095801941 242.50309263077304 L 250.3193991114853 242.5008039775035 L 250.32293655910794 242.49852880967495 L 250.32652184764504 242.49626760931744 L 250.3301548770298 242.494020866125 L 250.33383552288538 242.49178907648846 L 250.33756363684648 242.48957274258822 L 250.34133904692447 242.48737237150712 L 250.3451615579039 242.48518847437097 L 250.349030951723 242.48302156554226 L 250.35294698791614 242.48087216182103 L 250.35690940401972 242.47874078170736 L 250.36091791602936 242.47662794467482 L 250.36497221885756 242.474534170482 L 250.36907198678233 242.47245997852525 L 250.37321687393418 242.47040588720614 L 250.3774065147576 242.4683724133459 L 250.3816405244883 242.46636007162343 L 250.3859184996594 242.46436937403027 L 250.39024001855338 242.46240082938073 L 250.39460464171952 242.46045494281893 L 250.39901191242765 242.458532215382 L 250.40346135717644 242.45663314356372 L 250.40795248616288 242.45475821891964 L 250.41248479375272 242.45290792769404 L 250.41705775897427 242.45108275045942 L 250.42167084597318 242.44928316179215 L 250.42632350447033 242.4475096299663 L 250.43101517024087 242.44576261665765 L 250.4357452655442 242.4440425766838 L 250.4405131995888 242.44234995774787 L 250.4453183689535 242.44068520021318 L 250.4501601580152 242.43904873689027 L 250.45503793939776 242.43744099283035 L 250.45995107436508 242.4358623851507 L 250.46489891321352 242.43431332287173 L 250.46988079571827 242.43279420674864 L 250.47489605145978 242.43130542915074 L 250.47994400025908 242.4298473739175 L 250.4850239525253 242.42842041625036 L 250.4901352095976 242.42702492261378 L 250.49527706415253 242.42566125062652 L 250.5004488005051 242.42432974898944 L 250.50564969495662 242.4230307574073 L 250.51087901613212 242.4217646065194 L 250.51613602529753 242.42053161784182 L 250.52141997666484 242.41933210371732 L 250.5267301176885 242.4181663672722 L 250.5320656893945 242.4170347023702 L 250.53742592662493 242.41593739358976 L 250.5428100583409 242.4148747161913 L 250.54821730788728 242.41384693609658 L 250.5536468932578 242.4128543098705 L 250.55909802736724 242.41189708470466 L 250.56456991826502 242.41097549841362 L 250.57006176941633 242.41008977942133 L 250.57557277991123 242.4092401467617 L 250.5811021447195 242.40842681007322 L 250.58664905489343 242.4076499696032 L 250.59221269778973 242.40690981620966 L 250.59779225729767 242.40620653136378 L 250.60338691402313 242.40554028715871 L 250.60899584551854 242.40491124631302 L 250.61461822644685 242.40431956218254 L 250.62025322881092 242.40376537876477 L 250.62590002210248 242.40324883071196 L 250.63155777352517 242.40277004333663 L 250.63722564814736 242.40232913262344 L 250.642902809089 242.40192620523783 L 250.6485884177001 242.40156135853456 L 250.65428163372906 242.40123468056692 L 250.65998161547648 242.4009462500957 L 250.66568751998807 242.40069613659557 L 250.6713985031922 242.40048440026328 L 250.67711372007295 242.4003110920235 L 250.68283232484018 242.4001762535338 L 250.68855347106046 242.40007991719025 L 250.6942763118511 242.4000221061299 L 250.7016835112265 242.39999716578194 L 250.75047433719914 242.39744581743577 L 250.77132439283014 242.39429468523008 L 250.77140807430496 242.39487461737698 L 250.7926201955171 242.39181380828617 L 250.79400429869705 242.39161211203685 L 250.81521641990915 242.38849070306912 L 250.81658471819892 242.38828742088083 L 250.83779683941106 242.38510603040223 L 250.8391493563396 242.38490128798392 L 250.8603614775517 242.38166053436055 L 250.8616982380395 242.38145445562785 L 250.88291035925164 242.3781549572258 L 250.88423138954948 242.37794766429963 L 250.90544351076161 242.374590039485 L 250.90674883838966 242.37438165269091 L 250.92796095960176 242.3709665198298 L 250.92925061328796 242.37075715769902 L 250.9504627345001 242.36728513515752 L 250.95173674412524 242.36707491442792 L 250.97294886533737 242.3635466205721 L 250.97420726187312 242.36333565619145 L 250.99541938308522 242.35975170938744 L 250.9966621985427 242.359540114516 L 251.01787431975484 242.35590113312983 L 251.0191015871229 242.35568901914564 L 251.040313708335 242.35199562154347 L 251.04152546153102 242.3517830980467 L 251.06273758274315 242.34803590259457 L 251.06393385655585 242.34782307741403 L 251.08514597776798 242.34402270247807 L 251.08632680780687 242.34380968167764 L 251.10753892901897 242.3399567456239 L 251.10870435166004 242.3397436335104 L 251.12991647287217 242.335838754705 L 251.13106652521034 242.33562565383573 L 251.15227864642245 242.33166945064477 L 251.1534133662203 242.33145646183675 L 251.17462548743242 242.3274495526263 L 251.1757449130711 242.3272367749655 L 251.19695703428323 242.32317977810166 L 251.19806120471642 242.32296730895288 L 251.21927332592853 242.3188608428017 L 251.22036228063257 242.31864877781956 L 251.2415744018447 242.3144934607472 L 251.2426481807784 242.31428189388612 L 251.26386030199052 242.31007834425864 L 251.26491894554562 242.30986736778522 L 251.28613106675772 242.3056162039687 L 251.28717461571523 242.30540590847374 L 251.30838673692736 242.3011077488343 L 251.30941523242043 242.3008982232439 L 251.33062735363256 242.2965536861476 L 251.33164083709732 242.29634501773742 L 251.35285295830943 242.29195472155035 L 251.35385147144788 242.2917469959579 L 251.37506359266 242.2873115590462 L 251.37604717740294 242.28710486028362 L 251.39725929861504 242.28262490101335 L 251.39822799707852 242.28241931148207 L 251.41944011829065 242.27789544821928 L 251.42039397273777 242.277691048724 L 251.4416060939499 242.27312389983484 L 251.4425451467597 242.27292076959642 L 251.4637572679718 242.26831095344698 L 251.46468156159713 242.26810917011815 L 251.48589368280926 242.2634573050745 L 251.48680325974462 242.26325694475372 L 251.50801538095675 242.25856364918192 L 251.5089102837008 242.2583647864288 L 251.5301224049129 242.25363067869503 L 251.53100267594206 242.25343338654375 L 251.5522147971542 242.248659085014 L 251.55308047887996 242.24846343499044 L 251.5742926000921 242.24364955803088 L 251.57514373484003 242.2434556201654 L 251.59635585605213 242.23860278614208 L 251.59719248602164 242.23841062898674 L 251.61840460723377 242.23351945626575 L 251.61922677447444 242.23332914690815 L 251.64043889568654 242.2284002538556 L 251.64124664206616 242.22821185793475 L 251.6624587632783 242.2232458629167 L 251.66325213045482 242.2230594446382 L 251.68446425166695 242.21805696602078 L 251.6852432810606 242.2178725881722 L 251.7064554022727 242.21283424432153 L 251.70722013504212 242.21265196828702 L 251.72843225625425 242.2075783775691 L 251.72918273326334 242.20739826334622 L 251.75039485447547 242.2022900441272 L 251.75113111627763 242.20211215033993 L 251.77234323748974 242.19696992098588 L 251.77306532429407 242.1967943049019 L 251.7942774455062 242.19161868377893 L 251.79498539715928 242.1914454013233 L 251.8161975183714 242.1862370067975 L 251.81689137433466 242.1860661125676 L 251.83810349554676 242.18082556300504 L 251.83878329486842 242.18065711028663 L 251.85999541608055 242.1753850240534 L 251.86066119737953 242.17521906483418 L 251.88187331859166 242.1699160602964 L 251.8825251200338 242.16975264528105 L 251.9037372412459 242.1644193408048 L 251.9043751005241 242.1642585194295 L 251.92558722173624 242.15889553338087 L 251.9262111760509 242.1587373538274 L 251.94742329726304 242.15334530457247 L 251.94803338330075 242.15318981378303 L 251.96924550451286 242.1477693196879 L 251.9698417584309 242.14761656337828 L 251.99105387964303 242.14216824280908 L 251.9916363370523 242.1420182654821 L 252.01284845826441 242.13654273680484 L 252.01341715420307 242.1363955817665 L 252.0346292754152 242.13089346334735 L 252.03518424434682 242.13074917271612 L 252.05639636555895 242.12522108292112 L 252.05693764134153 242.12507969764508 L 252.07814976255364 242.11952625484034 L 252.07867737843347 242.11938781470778 L 252.0998894996456 242.11380963725938 L 252.1004034882381 242.11367418091228 L 252.12161560945023 242.10807188718633 L 252.1221160027264 242.107939452133 L 252.1433281239385 242.10231366049558 L 252.1438149532106 242.10218428312254 L 252.1655003703312 242.09640932752404 L 252.18717228404074 242.0906152378834 L 252.2088307235981 242.08480266565917 L 252.23047571754762 242.07897226123598 L 252.2521072937141 242.07312467393385 L 252.2737254791887 242.06726055201958 L 252.2953303003192 242.06138054271685 L 252.3169217826973 242.0554852922171 L 252.33849995115244 242.04957544568825 L 252.3600648297402 242.04365164728483 L 252.38161644173155 242.03771454015774 L 252.4031548096079 242.03176476646206 L 252.42467995505078 242.02580296736633 L 252.44619189893203 242.01982978306128 L 252.46769066131088 242.0138458527668 L 252.48917626142153 242.00785181474075 L 252.51064871767124 242.0018483062853 L 252.53210804762932 241.99583596375504 L 252.55355426802544 241.98981542256266 L 252.5749873947399 241.98378731718628 L 252.59640744280006 241.97775228117516 L 252.61781442637616 241.9717109471552 L 252.63920835877613 241.9656639468344 L 252.66058925243706 241.95961191100912 L 252.6819571189286 241.95355546956688 L 252.70331196894205 241.94749525149248 L 252.7246538122924 241.9414318848709 L 252.74598265791062 241.93536599689196 L 252.7672985138434 241.9292982138533 L 252.78860138724994 241.9232291611634 L 252.8098912843989 241.91715946334472 L 252.83116821066938 241.91108974403508 L 252.8524321705428 241.90502062599163 L 252.87368316760976 241.89895273109022 L 252.89492120456268 241.89288668032842 L 252.91614628319536 241.88682309382656 L 252.9373584044075 241.88076259082698 L 252.9494455054315 241.87666189343412 L 252.94958302954703 241.8771005316194 L 252.99800696897188 241.86191840734637 L 252.99889672098294 241.86163853594437 L 253.04720007902 241.8463951934283 L 253.04808741002162 241.8461142653696 L 253.09627204176917 241.8308097046105 L 253.09715684199404 241.83052776664647 L 253.14522460255031 241.81516198764433 L 253.1461067622595 241.81487908739834 L 253.19405950672282 241.79945209015318 L 253.1949389162492 241.79916827610376 L 253.24277849971782 241.78368006061552 L 253.24365504950703 241.78339538207987 L 253.2913833270792 241.76784594834862 L 253.29225690773634 241.76756045546296 L 253.33987573451034 241.75194980348869 L 253.3407462368419 241.75166354718976 L 253.38825746791605 241.73599167697242 L 253.389124782972 241.73570470897792 L 253.43653027344453 241.71997162051758 L 253.43739429256604 241.71968399330393 L 253.48469589753523 241.70388968660052 L 253.48555651239286 241.70360145338296 L 253.532756086957 241.68774592843653 L 253.53361318959918 241.68745714314514 L 253.58071258885653 241.67154039995566 L 253.5815660717497 241.6712511172131 L 253.62856715079852 241.6552731557806 L 253.62941690687225 241.65498343087762 L 253.67632152081086 241.63894425120208 L 253.67716744350003 241.63865414007302 L 253.72397744742665 241.62255374215445 L 253.72481943071512 241.62226330135164 L 253.77153667972806 241.60610168519003 L 253.77237461819064 241.60581097185764 L 253.81900096738815 241.58958813745298 L 253.81983475623343 241.58929720930036 L 253.8663720607138 241.57301315665265 L 253.8672015958259 241.5727220719267 L 253.9136517106874 241.55637680103598 L 253.91447688866867 241.5560856184927 L 253.9608416690096 241.53967912935894 L 253.9616623872216 241.53938790823491 L 254.0079436881402 241.5229202008581 L 254.00875984474231 241.52262900084193 L 254.05495952133683 241.50610007522212 L 254.0557710153314 241.50580895642284 L 254.10189092270016 241.48921881255995 L 254.10269765396734 241.48892783547848 L 254.1487396472086 241.47227647337257 L 254.14954151654987 241.47198569886936 L 254.1955074507619 241.4552731185204 L 254.1963043599361 241.45498260778504 L 254.2421960902172 241.43820880919307 L 254.2429879419809 241.43791862371168 L 254.2888073234293 241.42108360687666 L 254.2895940215723 241.42079380840056 L 254.3353429092863 241.4038975733225 L 254.33612435867028 241.40360822383494 L 254.38180460774814 241.38665077051385 L 254.38258071434248 241.3863619321972 L 254.42819417988247 241.36934326063306 L 254.42896485079854 241.36905499583608 L 254.47451338789898 241.35197510602893 L 254.47527853142773 241.3516874772324 L 254.52076399518683 241.3345463691822 L 254.52152352082913 241.33425943896617 L 254.5669477663452 241.31705711267293 L 254.5677015848478 241.31677094368223 L 254.6130664672191 241.29950739914597 L 254.6138144906063 241.29922205405595 L 254.65912186493114 241.28189729127664 L 254.65986400653566 241.28161283275938 L 254.70511572791227 241.26422685173702 L 254.70585190240612 241.26394334242698 L 254.75104982593277 241.2464961431616 L 254.75177994935743 241.24621364562094 L 254.79692593013243 241.22870522811255 L 254.7976499199281 241.2284238047965 L 254.8427458130497 241.21085416904504 L 254.84346358808062 241.2105738822687 L 254.88851124864712 241.19294302827421 L 254.88922272923202 241.19266394017666 L 254.93422401234164 241.17497186793915 L 254.93492912027764 241.17469404045008 L 254.9798858810287 241.1569407499695 L 254.9805845396155 241.15666424477527 L 255.02549863310628 241.13884973605167 L 255.02619076717255 241.1385746145605 L 255.0710640485013 241.12069888759387 L 255.07174958442639 241.12042521090243 L 255.11658390869135 241.10248826569276 L 255.11726277442588 241.10221609455314 L 255.16205999672542 241.08421793110043 L 255.16273212181449 241.083947325886 L 255.2074940972468 241.06588794419025 L 255.20815941284897 241.0656189648629 L 255.25288799651236 241.0474983649241 L 255.2535464354176 241.0472310710018 L 255.29824348241033 241.02904925281996 L 255.29889497905867 241.0287837033443 L 255.343562344479 241.01054066691944 L 255.34420683497765 241.0102769204233 L 255.3888463739239 240.9919726657554 L 255.38948379606174 240.9917107802321 L 255.43409736363213 240.97334530732118 L 255.43472765689515 240.97308534019282 L 255.479317108188 240.95465864903886 L 255.47994021377266 240.954400657126 L 255.52450740388622 240.935912747729 L 255.52512326471103 240.9356567872208 L 255.56967004874357 240.91710765958078 L 255.57027860946243 240.91685378600482 L 255.61480684251225 240.89824344012175 L 255.6154080495228 240.89799170831571 L 255.65991958668818 240.8793201441896 L 255.66051338814202 240.87907060827274 L 255.70501008452118 240.8603378259036 L 255.70559643033232 240.86009053924866 L 255.75008014102355 240.8412965386365 L 255.7506589828755 240.84105155384285 L 255.7951315629771 240.8221963349876 L 255.79570285432766 240.82195370385529 L 255.8401661589379 240.80303726675703 L 255.84072985502698 240.80279704025992 L 255.8851857392441 240.78381938491864 L 255.88574179709587 240.78358161318025 L 255.9301921160182 240.7645427395959 L 255.93074049444363 240.76430747186535 L 255.9751871031694 240.745207380038 L 255.97572776277187 240.74497466466502 L 256.0201725163994 240.7258133545946 L 256.0207054195708 240.72558323900887 L 256.0651501731983 240.70636071069544 L 256.06567528412387 240.7061332413826 L 256.11012189284963 240.6868494948261 L 256.1106391775041 240.686624717308 L 256.1550894964264 240.6672797525085 L 256.1555989225744 240.66705771132186 L 256.2000548067915 240.6476515282793 L 256.2005563439828 240.64743226695708 L 256.24501964859303 240.6279648656715 L 256.2455132681607 240.62774842672346 L 256.28998584826235 240.60821980719484 L 256.29047152331856 240.6080062320899 L 256.3349552340098 240.58841639431824 L 256.33543293943796 240.58820572346818 L 256.3799296358171 240.5685546674535 L 256.3803993482694 240.56834694019562 L 256.42491088543477 240.5486346659379 L 256.42537258332237 240.54842992052093 L 256.47035447985786 240.52845470158974 L 256.51534687488174 240.50842131943043 L 256.56035160713304 240.48832980894252 L 256.60537051707524 240.46818020388451 L 256.650405446885 240.44797253686332 L 256.6954582404397 240.4277068393247 L 256.7405307433077 240.4073831415436 L 256.78562480273234 240.387001472617 L 256.83074226761954 240.3665618604565 L 256.8758849885255 240.34606433178146 L 256.92105481763804 240.32550891211494 L 256.9662536087654 240.30489562577768 L 257.01148321731563 240.28422449588635 L 257.0567455002854 240.2634955443488 L 257.1020423162374 240.2427087918644 L 257.14737552528817 240.22186425792069 L 257.19274698908515 240.20096196079555 L 257.2381585707921 240.18000191755615 L 257.2836121350685 240.15898414406112 L 257.3291095480494 240.13790865496316 L 257.3746526773283 240.1167754637112 L 257.4202433919336 240.09558458255563 L 257.4658835623105 240.07433602255205 L 257.51130780782677 240.05315451046152 L 257.5510889735447 240.0323821543085 L 257.5888473344267 240.00812647230336 L 257.62427870429553 239.98058287131795 L 257.65709764351084 239.94997324611919 L 257.6630969282674 239.94385183405961 L 257.6700412148245 239.93662262239272 L 257.67591744472884 239.9303812473114 L 257.68266376252166 239.9230713721938 L 257.6884163192078 239.91671250755516 L 257.69496535941823 239.90932799542549 L 257.70059362452 239.90285411469387 L 257.70694638005864 239.8954007095675 L 257.71244973521 239.8888142862073 L 257.7186074704739 239.88129744189774 L 257.72398529730873 239.87460094937327 L 257.72994951844754 239.8670258243179 L 257.7352011985997 239.86022173609354 L 257.7409736245378 239.85259319054504 L 257.74609853964125 239.84568398008517 L 257.7516810740228 239.8380065754756 L 257.7566786057115 239.83099471624456 L 257.76207330989945 239.823272716535 L 257.76694283980726 239.8161606819972 L 257.77215190706164 239.80839805679443 L 257.77689281682245 239.80118832041418 L 257.78191854772905 239.79338874968175 L 257.78653021897674 239.78608378492348 L 257.7913749982025 239.77825066507526 L 257.7958568125711 239.77085294540328 L 257.80052308698845 239.76298939659114 L 257.8048744261117 239.75550139546985 L 257.8093646842716 239.74761026996202 L 257.81358492978353 239.74003446085575 L 257.8179016828055 239.73211835223972 L 257.82199021634 239.72445720861285 L 257.82613598015166 239.7165184617661 L 257.83009218334263 239.70877445708302 L 257.8340694622685 239.70081517873956 L 257.8378927167498 239.69299078646458 L 257.8417039884128 239.6850128562587 L 257.84539367581846 239.67711054985625 L 257.8490413773178 239.66911563172252 L 257.85259687928163 239.66113788465694 L 257.85608339457934 239.65312743852806 L 257.8595040927353 239.64507672426367 L 257.86283174122394 239.637052017931 L 257.86611701720585 239.62893080993226 L 257.86928804338214 239.62089293103364 L 257.872437278824 239.6127037027648 L 257.8754538430242 239.60465357080707 L 257.8784664195599 239.5963987957326 L 257.88133058968714 239.58833717412392 L 257.88420588895053 239.58001932570812 L 257.8869196331418 239.57194683374348 L 257.8896570367669 239.56356838545074 L 257.8922222169544 239.5554855101814 L 257.894821106575 239.54704893547608 L 257.8972394728625 239.53895604350393 L 257.89969923011256 239.53046381585037 L 257.90197241593484 239.52236116497212 L 257.9042924224483 239.51381575783475 L 257.9064219404664 239.50570350850626 L 257.9086015778771 239.4971073953494 L 257.9105888165414 239.48898562203723 L 257.91262746648334 239.48034127632525 L 257.91447368724977 239.47220997864383 L 257.9163707313568 239.46351987384108 L 257.9180770664971 239.45537898755057 L 257.91983188640313 239.44664559712143 L 257.92139933738883 239.4384950049308 L 257.9230113147278 239.42972080233963 L 257.92444075114844 239.4215603445553 L 257.92590926755423 239.41274780326648 L 257.9272014265486 239.40457728827357 L 257.9285258636551 239.39572888175144 L 257.92968134983 239.38754809634835 L 257.9308610892711 239.3786662980573 L 257.93188037509253 239.37047501763834 L 257.9329147985022 239.36156230104274 L 257.93379822514555 239.3533602996224 L 257.9346867141577 239.3444191381866 L 257.93543449279895 239.3362061983315 L 257.93617642904746 239.32723906551988 L 257.9367886425984 239.3190149881218 L 257.9373834077172 239.3100243573987 L 257.9378600129943 239.30178897134252 L 257.9383069886172 239.2927773161723 L 257.93864781894507 239.28453048791818 L 257.93894638670616 239.2755002817652 L 257.9391511549625 239.2672419247551 L 257.93930069649554 239.25819564108377 L 257.93936899859597 239.24992572512852 L 257.9393688955349 239.2408658374032 L 257.93930021437177 239.23258439789717 L 257.9391498483506 239.22351337958222 L 257.93894355819225 239.21522052661888 L 257.9386423108448 239.20614085117862 L 257.93829768220934 239.19783677858584 L 257.9378449351695 239.18875091948468 L 257.9373611401844 239.18043591368246 L 257.9367562750861 239.17134634438474 L 257.93613239334945 239.1630207931286 L 257.93537479182663 239.1539299870987 L 257.93460981678436 239.14559438805503 L 257.9336988604709 239.13650481875732 L 257.93279170632604 239.12815978790857 L 257.93172677685584 239.1190739288074 L 257.93067628602296 239.11072020863242 L 257.92945676502995 239.10164053319215 L 257.9282617161491 239.0932790006159 L 257.9268869852672 239.0842079823009 L 257.92554610179224 239.07583965638108 L 257.9240155426553 239.06677976865575 L 257.92252750202243 239.05840581793709 L 257.9208404962644 239.04935953426576 L 257.91920393965154 239.04098128378752 L 257.9173598689064 239.03195107763457 L 257.91557341158557 239.02357001552355 L 257.91357165748707 239.01455836035333 L 257.9116338997771 239.00617614398075 L 257.90947384395923 238.99718551325765 L 257.90738338275673 238.9888039748324 L 257.90506440685346 238.97983684202075 L 257.9028198477508 238.97145799363548 L 257.9003413333959 238.9625168321997 L 257.89794130336605 238.95414287024764 L 257.8953026321936 238.94523015365203 L 257.8927457927949 238.93686346246136 L 257.88994634643865 238.92798166417032 L 257.8872314075571 238.91962481895908 L 257.8842705676511 238.91077641243695 L 257.8813963016783 238.9024321813039 L 257.87827344985635 238.8936196400151 L 257.875238706316 238.88529098509366 L 257.87195322421206 238.8765167825025 L 257.8687569447301 238.86820686005825 L 257.865308213978 238.8594734696291 L 257.86194944756636 238.85118562913433 L 257.85833684980014 238.8424955243316 L 257.8548147683365 238.83423330634596 L 257.8510376851899 238.82558896063395 L 257.8473515990625 238.8173560935649 L 257.84340941216965 238.80875998040804 L 257.83955878591945 238.80056037592203 L 257.8354508769141 238.79201496878466 L 257.83143534484924 238.78385271600757 L 257.8271610953653 238.77536048835404 L 257.8229804769586 238.76723984664918 L 257.81853926863005 238.75880327194383 L 257.8141935836179 238.75072866233165 L 257.8095847980786 238.7423502140389 L 257.80507428113026 238.7343262092336 L 257.8002973000141 238.7260083608178 L 257.7956224148154 238.71803967383354 L 257.79067661975637 238.70978489875907 L 257.7858380723694 238.70187637010622 L 257.7807228450013 238.69368714183742 L 257.7757215963825 238.68584372537407 L 257.77043631833936 238.6777225173753 L 257.765273595811 238.66994926475786 L 257.7598176487266 238.6618985504935 L 257.75449495634297 238.6542005944204 L 257.74886772185135 238.64622284735478 L 257.7433868494073 238.6386053835076 L 257.73758770914225 238.63070307710515 L 257.73195073980247 238.62317134505543 L 257.725979075398 238.61534695278047 L 257.72018839171335 238.60790621581668 L 257.7140435848033 238.6001622111336 L 257.7081018730847 238.59281773526473 L 257.701783305303 238.58515659163785 L 257.69569355815725 238.57791362379712 L 257.6892006111378 238.57033781469084 L 257.6829661281796 238.56320156043438 L 257.67629818355636 238.5557135593131 L 257.6699225701081 238.54868916004347 L 257.66307900951495 238.54129144037148 L 257.6565661733356 238.53438395038907 L 257.6495463784064 238.5270789856308 L 257.6429005243724 238.52029334915227 L 257.6357038767411 238.51308361277202 L 257.62892949946286 238.50642464111232 L 257.62155538076337 238.4993126065745 L 257.614657255183 238.49278495573287 L 257.6071050470492 238.48577309650187 L 257.6000882170383 238.4793812453352 L 257.59235730110413 238.47247203487532 L 257.58522706611956 238.46622026406055 L 257.57731682401896 238.4594161758362 L 257.5700787239205 238.45330854783595 L 257.56198853728733 238.44661205531148 L 257.55464833543556 238.44065239553683 L 257.5463775859037 238.4340659721766 L 257.5389412506337 238.4282578514942 L 257.53048931983705 238.42178397076262 L 257.5229630045193 238.41613068955644 L 257.5143292740919 238.40977182491778 L 257.5067192958776 238.4042763987916 L 257.4979031474532 238.39803502371032 L 257.4902159650088 238.39270017104522 L 257.48121678022153 238.38657875898548 L 257.4397848696068 238.36124811532278 L 257.39609107337606 238.34005620893157 L 257.3505475541872 238.3232029426177 L 257.3035839230959 238.31084729288673 L 257.2187355413085 238.29287963549453 L 257.21637162115104 238.29238500931035 L 257.13152385772963 238.27484526125332 L 257.1291569288829 238.2743619285618 L 257.0443104021937 238.25724947147384 L 257.04194058722885 238.25677746654833 L 256.9570959156379 238.24009168206334 L 256.95472333750826 238.2396310375872 L 256.86988113938173 238.2233713073391 L 256.8675059213906 238.22292205439882 L 256.7826668150945 238.20708776002152 L 256.7802890808631 238.20664992810012 L 256.69545368476355 238.19124045122751 L 256.6930735581982 238.19081406819888 L 256.60824249066127 238.17582879046492 L 256.6058600959223 238.17541388258903 L 256.52103397531414 238.16085218562756 L 256.51864943678135 238.16044877754575 L 256.43382888146795 238.14631004299073 L 256.4314423237105 238.1459181577226 L 256.34662795205804 238.13220176720793 L 256.3442394998 238.13182142614804 L 256.25943193017457 238.11852676130763 L 256.2570417082638 238.11815798422353 L 256.1722415590314 238.10528442669124 L 256.16984969240536 238.10492723172172 L 256.0850575819322 238.09247416313153 L 256.0826641955877 238.0921285667862 L 255.99788074223983 238.08009536877196 L 255.99548596119843 238.07976138593074 L 255.91071178334192 238.0681474401264 L 255.90831573261892 238.06782508404044 L 255.82355144861984 238.0566297720799 L 255.82115425319122 238.0563190543726 L 255.73640048141573 238.0455417578898 L 255.73400226618662 238.045242688559 L 255.64925962500075 238.03488278918778 L 255.6468605147725 238.0345953766083 L 255.5621296225424 238.0246522559826 L 255.55972974198144 238.02437650690962 L 255.47501121707313 238.01484954666333 L 255.47261069067858 238.01458546623635 L 255.3879051514582 238.00547404800344 L 255.3855041035313 238.00522163975117 L 255.30081216836493 237.9965251451655 L 255.2984107229763 237.996284411011 L 255.21373301023004 237.98800222170647 L 255.21133129118928 237.98777316197328 L 255.1266684192292 237.9799046595838 L 255.1242665500541 237.97968727300264 L 255.0396191372463 237.97223183916213 L 255.03721724113163 237.9720261228781 L 254.9525859058422 237.9649831392205 L 254.95018410562983 237.9647890888012 L 254.86556946622485 237.9581579369604 L 254.86316788437318 237.9579755464045 L 254.77857055921876 237.9517556080144 L 254.77616931777354 237.95158486976072 L 254.69158992523577 237.9457755264552 L 254.68918914579945 237.94561643139264 L 254.60462830424441 237.94021706480564 L 254.60222810794832 237.94006960228361 L 254.51768643574212 237.93507959404903 L 254.5152869432166 237.9349437518884 L 254.43076505872534 237.93036248364015 L 254.42836639007197 237.93023824814495 L 254.3438649116617 237.92606510151697 L 254.34146718642546 237.92595245748646 L 254.2569867324623 237.9221868141126 L 254.2545900696021 237.92208574485406 L 254.17013125845213 237.91872698636828 L 254.16773577631642 237.91863747371028 L 254.08329922634573 237.91568498174647 L 254.08090504264328 237.91560700605262 L 253.99649137221797 237.91306016224468 L 253.99409860399214 237.91299370242805 L 253.90970843147832 237.91085188840992 L 253.9073171950823 237.91079692194782 L 253.822951138846 237.90905951935335 L 253.82056154991497 237.90901602230272 L 253.73622022832237 237.90768241276587 L 253.73383240175053 237.90765035977898 L 253.64951643316763 237.90671992493367 L 253.6471304830834 237.90669928927466 L 253.56284048587636 237.90617141075472 L 253.56045652561656 237.906162164316 L 253.47619311815143 237.9060362237554 L 253.4738112602399 237.90603833707516 L 253.3895750608828 237.90631371610783 L 253.38719541700684 237.90632715838743 L 253.30298704412382 237.9070032386472 L 253.3006097251099 237.90702797776933 L 253.2164297970671 237.9081041408902 L 253.21405491286197 237.9081401434373 L 253.12990404802548 237.9096157710531 L 253.12753170767152 237.909663002326 L 253.0434105244074 237.9115374760707 L 253.04104083602425 237.9115959001081 L 252.95694995269858 237.91386860161558 L 252.95458302346134 237.91393818121324 L 252.87052305844026 237.9166084921174 L 252.86815899456002 237.9166891888483 L 252.78413056620957 237.91975649078307 L 252.78176947291465 237.9198482650174 L 252.69777319960096 237.92331193961667 L 252.69541518111706 237.9234147505424 L 252.6114516812062 237.9272741794401 L 252.60909684074005 237.9273879850838 L 252.52516673259814 237.93164254991382 L 252.52281517231802 237.93176730716166 L 252.43891907431112 237.93641638955793 L 252.4365708953321 237.93655205417704 L 252.3527094258263 237.94159503577342 L 252.3503647281912 237.94174156243344 L 252.2665385055526 237.9471778248639 L 252.26419738821937 237.9473351671588 L 252.18040703081408 237.9531640920572 L 252.17806959163752 237.9533322025273 L 252.09431571783162 237.95955317152757 L 252.09198205355125 237.95973200168166 L 252.0082652817108 237.96634439641772 L 252.00593548793555 237.96653389675555 L 251.9222564364267 237.9735370988613 L 251.91993060762184 237.97373721889616 L 251.83628989481062 237.9811306100055 L 251.8339681242848 237.98134129828685 L 251.75036636853736 237.9891242600337 L 251.7480487484309 237.98934546417 L 251.6644865681133 237.99751737818823 L 251.66217318938595 237.99774904487006 L 251.57865120286428 238.00630929279365 L 251.57634215528478 238.00655136781663 L 251.49286098092512 238.01549933127944 L 251.4905563530603 238.01575175956748 L 251.40711660922875 238.02508682020343 L 251.40481648843374 238.02534954583197 L 251.3214187934964 238.03507108527498 L 251.31912326590583 238.03534405149426 L 251.2357682382288 238.04545145137823 L 251.23347738874756 238.04573460063676 L 251.15016564669693 238.05622724259558 L 251.14787955899249 238.0565205165634 L 251.06461172093432 238.06739778223098 L 251.06233047742847 238.06770112182323 L 250.97910716172888 238.07896239283352 L 250.97683084359232 238.07927573823366 L 250.8936526686174 238.09092039622053 L 250.8913813557616 238.091243686904 L 250.80824893987742 238.10327111350136 L 250.80598271095005 238.10360428825877 L 250.72289667252272 238.11601386510054 L 250.72063560490167 238.11635686206122 L 250.6375965622973 238.12914797078133 L 250.63534073208675 238.12950072743647 L 250.55234930367138 238.14267274966878 L 250.5500987856964 238.14303520289488 L 250.46715558983615 238.15658752027335 L 250.46491045764077 238.15695960635531 L 250.38201611270173 238.1708916005138 L 250.3797764385442 238.17127325516805 L 250.2969315628925 238.1855843077405 L 250.29469741774412 238.18597546613805 L 250.21190262974577 238.20066495875835 L 250.20967408328772 238.2010655555477 L 250.12693000130886 238.2161328698498 L 250.12470712193175 238.21654283917974 L 250.04201436433848 238.2319873567975 L 250.0397972191405 238.2324066323398 L 249.95715640429887 238.24822773490718 L 249.954945059086 238.24865624987905 L 249.87235680536213 238.2648533190299 L 249.87015132464725 238.26529100621661 L 249.78761625040727 238.28186342358487 L 249.78541669741168 238.28231021536172 L 249.7029354210216 238.29925736258127 L 249.70074185767484 238.2997131909359 L 249.61831499750082 238.31703444964072 L 249.61612748444378 238.31749924619467 L 249.53375565885187 238.33519399801858 L 249.53157425543628 238.33566769404956 L 249.4492580827926 238.35373532062653 L 249.44708284708568 238.35421784708927 L 249.3648229457563 238.3726577300532 L 249.36265393454212 238.37314901760135 L 249.28045092289315 238.39196053858612 L 249.27828819167644 238.39246051759298 L 249.19614268807393 238.4116430582325 L 249.19398629108292 238.4121516588122 L 249.11189891389301 238.43170460074043 L 249.10974890408517 238.43222175276824 L 249.0277202716739 238.45214447761904 L 249.02557670073833 238.45267011075217 L 248.94360743147186 238.47296200015944 L 248.94147034983536 238.47349604385707 L 248.8595610620797 238.49415647945474 L 248.8574305189116 238.49469886299798 L 248.77558183103292 238.51572722641998 L 248.73448510441443 238.52818984820237 L 248.694609386398 238.54413302834686 L 248.6026901944789 238.58554716976099 L 248.51077100255964 238.62696131117514 L 248.41885181064038 238.66837545258932 L 248.32693261872137 238.70978959400338 L 248.23501342680206 238.75120373541756 L 248.1430942348828 238.79261787683174 L 248.0511750429638 238.8340320182458 L 247.95925585104442 238.87544615966002 L 247.8673366591253 238.91686030107414 L 247.7754174672062 238.95827444248823 L 247.68349827528684 238.99968858390244 L 247.59157908336772 239.04110272531656 L 247.4996598914486 239.08251686673069 L 247.40774069952934 239.12393100814484 L 247.31582150761025 239.16534514955893 L 247.22390231569088 239.20675929097314 L 247.13198312377176 239.24817343238726 L 247.04006393185264 239.28958757380138 L 246.94814473993338 239.33100171521554 L 246.76430635609506 239.4138299980438 L 246.6723871641758 239.45524413945796 L 246.48854878033748 239.53807242228623 L 246.39662958841822 239.57948656370039 L 246.30471039649896 239.62090070511456 L 246.21279120457996 239.66231484652863 L 246.12087201266064 239.7037289879428 L 246.02895282074138 239.745143129357 L 245.93703362882238 239.78655727077106 L 245.845114436903 239.82797141218526 L 245.75319524498389 239.8693855535994 L 245.6612760530648 239.91079969501348 L 245.56935686114542 239.9522138364277 L 245.4774376692263 239.9936279778418 L 245.3855184773072 240.03504211925593 L 245.29359928538793 240.07645626067008 L 245.1097609015496 240.15928454349836 L 245.01784170963035 240.2006986849125 L 244.9259225177111 240.2421128263267 L 244.83400332579208 240.28352696774076 L 244.74208413387277 240.32494110915493 L 244.6501649419535 240.36635525056911 L 244.5582457500345 240.40776939198318 L 244.46632655811513 240.4491835333974 L 244.374407366196 240.4905976748115 L 244.28248817427692 240.5320118162256 L 244.19056898235755 240.5734259576398 L 244.09864979043854 240.61484009905388 L 244.00673059851917 240.6562542404681 L 243.91481140660005 240.6976683818822 L 243.82289221468096 240.7390825232963 L 243.7309730227616 240.7804966647105 L 243.63905383084247 240.82191080612463 L 243.54713463892338 240.86332494753873 L 243.455215447004 240.90473908895294 L 243.3632962550849 240.94615323036706 L 243.27137706316577 240.98756737178118 L 243.1794578712465 241.02898151319533 L 242.9956194874082 241.1118097960236 L 242.90370029548893 241.15322393743776 L 242.81178110356967 241.19463807885194 L 242.71986191165067 241.236052220266 L 242.62794271973135 241.27746636168018 L 242.5360235278121 241.31888050309436 L 242.4441043358931 241.36029464450843 L 242.3521851439737 241.40170878592264 L 242.2602659520546 241.44312292733676 L 242.1683467601355 241.48453706875085 L 242.07642756821613 241.52595121016506 L 241.98450837629701 241.56736535157918 L 241.8925891843779 241.6087794929933 L 241.80066999245864 241.65019363440746 L 241.61683160862032 241.73302191723573 L 241.52491241670106 241.77443605864988 L 241.4329932247818 241.81585020006406 L 241.3410740328628 241.85726434147813 L 241.24915484094348 241.8986784828923 L 241.15723564902436 241.94009262430643 L 241.0653164571051 241.98150676572058 L 240.88147807326678 242.06433504854886 L 240.78955888134752 242.105749189963 L 240.69763968942826 242.1471633313772 L 240.60572049750925 242.18857747279125 L 240.51380130558994 242.22999161420543 L 240.42188211367068 242.2714057556196 L 240.32996292175167 242.31281989703368 L 240.3 242.32631967496573 L 240.3 244.19927497727087 L 240.3220826087529 244.21564639255314 Z" id="element_73" /></svg>