<svg xmlns="http://www.w3.org/2000/svg" viewBox="0.0 0.0 200.0 200.0" height="200.0px" width="200.0px"><path fill="#083D77" fill-opacity="1.0"  filling="0" d="M146.5261688232422 180.21054077148438 L146.5261688232422 154.5261688232422 L188.71328735351562 154.5261688232422 L184.43203735351562 167.3683624267578 L188.71328735351562 180.21054077148438 L146.5261688232422 180.21054077148438 Z"></path>
<path fill="#DDB247" fill-opacity="1.0"  filling="0" d="M146.5261688232422 142.3156280517578 L146.5261688232422 116.63163757324219 L188.71328735351562 116.63163757324219 L184.43203735351562 129.4738311767578 L188.71328735351562 142.3156280517578 L146.5261688232422 142.3156280517578 Z"></path>
<path fill="#083D77" fill-opacity="1.0"  filling="0" d="M146.5261688232422 104.42108917236328 L146.5261688232422 78.7367172241211 L188.71328735351562 78.7367172241211 L184.43203735351562 91.57890319824219 L188.71328735351562 104.42108917236328 L146.5261688232422 104.42108917236328 Z"></path>
<path fill="#C13530" fill-opacity="1.0"  filling="0" d="M152.54296875 61.89492416381836 L142.5929718017578 61.89492416381836 L142.5929718017578 29.406646728515625 L11.543746948242188 29.406646728515625 L11.368354797363281 180.92071533203125 C11.368354797363281 189.81600952148438 18.605079650878906 197.05233764648438 27.5 197.05233764648438 L143.025390625 197.05233764648438 C151.9207000732422 197.05233764648438 159.15740966796875 189.8156280517578 159.15740966796875 180.92071533203125 L159.15740966796875 68.5093765258789 C159.15780639648438 64.86250305175781 156.1902313232422 61.89492416381836 152.54296875 61.89492416381836 Z"></path>
<path fill="#B22626" fill-opacity="1.0"  filling="0" d="M40.923828125 180.92071533203125 L41.099212646484375 29.407028198242188 L11.543746948242188 29.407028198242188 L11.368354797363281 180.92071533203125 C11.368354797363281 189.81600952148438 18.605079650878906 197.05233764648438 27.5 197.05233764648438 L57.05546569824219 197.05233764648438 C48.16093444824219 197.052734375 40.923828125 189.81600952148438 40.923828125 180.92071533203125 Z"></path>
<path fill="#EBEBD3" fill-opacity="1.0"  filling="0" d="M41.052734375 62.31562423706055 C24.68476104736328 62.31562423706055 11.368354797363281 48.99960708618164 11.368354797363281 32.631256103515625 C11.368354797363281 16.26288604736328 24.68476104736328 2.947265625 41.052734375 2.947265625 L140.3996124267578 2.947265625 C143.7781219482422 2.947265625 146.5261688232422 5.6953125 146.5261688232422 9.073829650878906 L146.5261688232422 61.89453125 L41.052734375 62.31562423706055 Z"></path>
<path fill="#DDDCC5" fill-opacity="1.0"  filling="0" d="M70.7367172241211 54.32538986206055 C54.368751525878906 54.32538986206055 41.05234146118164 41.009376525878906 41.05234146118164 24.641014099121094 C41.05234146118164 16.169532775878906 44.62382888793945 8.520706176757812 50.33476257324219 3.1070327758789062 C50.396095275878906 3.048828125 50.355857849121094 2.9468765258789062 50.271095275878906 2.9468765258789062 L41.55078125 2.9468765258789062 C24.492965698242188 2.9468765258789062 10.5546875 17.092185974121094 11.405082702636719 34.128517150878906 C12.187889099121094 49.80390548706055 25.185935974121094 62.31562423706055 41.05234146118164 62.31562423706055 L146.4324188232422 61.89492416381836 C146.484375 61.89492416381836 146.52577209472656 61.85273361206055 146.52577209472656 61.801170349121094 L146.52577209472656 54.11797332763672 C146.52577209472656 54.06562805175781 146.48321533203125 54.023826599121094 146.431640625 54.02421951293945 L70.7367172241211 54.32538986206055 Z"></path>
<path fill="#EBEBD3" fill-opacity="1.0"  filling="0" d="M87.36835479736328 163.36834716796875 C66.35702514648438 163.36834716796875 49.26327896118164 146.2746124267578 49.26327896118164 125.26329040527344 C49.26327896118164 104.251953125 66.35702514648438 87.158203125 87.36835479736328 87.158203125 C108.37968444824219 87.158203125 125.47344207763672 104.251953125 125.47344207763672 125.26329040527344 C125.47344207763672 146.2746124267578 108.37968444824219 163.36834716796875 87.36835479736328 163.36834716796875 Z"></path>
<path fill="#DDB247" fill-opacity="1.0"  filling="0" d="M87.36835479736328 163.36834716796875 C76.3207015991211 163.36834716796875 65.81953430175781 158.55548095703125 58.55781555175781 150.16366577148438 L57.81328201293945 149.30352783203125 L57.74296951293945 148.16876220703125 C57.70390701293945 147.54296875 57.68398666381836 146.91954040527344 57.68398666381836 146.31600952148438 C57.68398666381836 136.1750030517578 63.03398513793945 126.52617645263672 71.6460952758789 121.13554382324219 L73.5464859008789 119.94609832763672 L75.37734985351562 121.23983764648438 C78.90742492675781 123.7339859008789 83.05390930175781 125.052734375 87.36835479736328 125.052734375 C91.6832046508789 125.052734375 95.8296890258789 123.73359680175781 99.36054992675781 121.23828125 L101.1917953491211 119.94453430175781 L103.09217834472656 121.13398742675781 C111.7035140991211 126.5238265991211 117.05313110351562 136.1726531982422 117.05313110351562 146.31561279296875 C117.05313110351562 146.92266845703125 117.033203125 147.546875 116.994140625 148.16952514648438 L116.92304992675781 149.30389404296875 L116.1792984008789 150.1632843017578 C108.91719055175781 158.55548095703125 98.416015625 163.36834716796875 87.36835479736328 163.36834716796875 Z"></path>
<path fill="#F4D35E" fill-opacity="1.0"  filling="0" d="M87.36835479736328 125.47383117675781 C75.64374542236328 125.47383117675781 66.1050796508789 115.9351577758789 66.1050796508789 104.21054077148438 C66.1050796508789 99.6820297241211 67.51094055175781 95.36054992675781 70.1703109741211 91.71366882324219 L70.6871109008789 91.00508117675781 L71.6851577758789 90.54531860351562 C71.96952819824219 90.4136734008789 72.25390625 90.28242492675781 72.54296875 90.16015625 L72.6328125 90.12226867675781 C77.30741882324219 88.15546417236328 82.26484680175781 87.158203125 87.3687515258789 87.158203125 C92.5179672241211 87.158203125 97.5179672241211 88.1742172241211 102.23125457763672 90.177734375 L102.31640625 90.21484375 C102.57695007324219 90.32734680175781 102.82499694824219 90.44140625 103.0726547241211 90.5562515258789 L104.05038452148438 91.0062484741211 L104.56757354736328 91.71484375 C107.2265625 95.36172485351562 108.6324234008789 99.68281555175781 108.6324234008789 104.21133422851562 C108.63163757324219 115.9351577758789 99.09296417236328 125.47383117675781 87.36835479736328 125.47383117675781 Z"></path>
<path fill="#CE982C" fill-opacity="1.0"  filling="0" d="M104.86210632324219 122.33905792236328 C104.28788757324219 121.91796112060547 103.69882202148438 121.51445007324219 103.0914077758789 121.1343765258789 L101.1910171508789 119.94491577148438 L99.3597640991211 121.2386703491211 C95.82929992675781 123.73359680175781 91.68241882324219 125.052734375 87.3675765991211 125.052734375 C83.052734375 125.052734375 78.90702819824219 123.7339859008789 75.3765640258789 121.23983764648438 L73.54570007324219 119.94609832763672 L71.64530944824219 121.13554382324219 C71.03788757324219 121.51561737060547 70.4488296508789 121.91914367675781 69.87422180175781 122.34062194824219 C73.7152328491211 127.890625 80.12187194824219 131.53553771972656 87.3671875 131.53553771972656 C94.61406707763672 131.53515625 101.021484375 127.88984680175781 104.86210632324219 122.33905792236328 Z"></path>
<path fill="" fill-opacity="1.0"  filling="0" d="M87.36835479736328 84.21054077148438 C64.73164367675781 84.21054077148438 46.31562042236328 102.6265640258789 46.31562042236328 125.26329040527344 C46.31562042236328 147.89999389648438 64.73164367675781 166.31600952148438 87.36835479736328 166.31600952148438 C110.00508117675781 166.31600952148438 128.4210968017578 147.89999389648438 128.4210968017578 125.26329040527344 C128.4210968017578 102.6265640258789 110.00508117675781 84.21054077148438 87.36835479736328 84.21054077148438 Z M122.10507202148438 125.26329040527344 C122.10507202148438 130.203125 121.06172180175781 134.90155029296875 119.1949234008789 139.16015625 C117.41249084472656 131.2921905517578 112.7457046508789 124.26054382324219 106.064453125 119.57539367675781 C109.5082015991211 115.39218139648438 111.57890319824219 110.03907012939453 111.57890319824219 104.2109375 C111.57890319824219 102.79804229736328 111.45508575439453 101.40702819824219 111.21991729736328 100.044921875 C117.91523742675781 106.380859375 122.10507202148438 115.33946228027344 122.10507202148438 125.26329040527344 Z M100.91289520263672 93.2769546508789 L100.9124984741211 93.27734375 C100.92304992675781 93.28202819824219 100.93360137939453 93.2867202758789 100.94413757324219 93.291015625 C101.2476577758789 93.42031860351562 101.5453109741211 93.56094360351562 101.84491729736328 93.6988296508789 C104.08320617675781 96.76836395263672 105.2632827758789 100.38633728027344 105.2632827758789 104.21054077148438 C105.2632827758789 114.0777359008789 97.2359390258789 122.10546875 87.36835479736328 122.10546875 C77.50077819824219 122.10546875 69.47344207763672 114.078125 69.47344207763672 104.21054077148438 C69.47344207763672 100.38671875 70.65351867675781 96.7679672241211 72.89179992675781 93.69843292236328 C73.21249389648438 93.55078125 73.53125 93.39960479736328 73.857421875 93.26132202148438 C73.859375 93.26054382324219 73.8617172241211 93.259765625 73.86367797851562 93.25897979736328 C78.01679992675781 91.5 82.58085632324219 90.52616882324219 87.36796569824219 90.52616882324219 C92.17070007324219 90.52616882324219 96.7484359741211 91.50702667236328 100.91289520263672 93.2769546508789 Z M63.52031326293945 100.04179382324219 C63.28437423706055 101.40469360351562 63.157814025878906 102.7964859008789 63.157814025878906 104.21054077148438 C63.157814025878906 110.0386734008789 65.228515625 115.39179992675781 68.67147827148438 119.5746078491211 C61.994140625 124.25898742675781 57.32577896118164 131.29766845703125 55.54219055175781 139.162109375 C53.67500305175781 134.90274047851562 52.63164138793945 130.20352172851562 52.63164138793945 125.26329040527344 C52.63164138793945 115.3375015258789 56.82265853881836 106.37773132324219 63.52031326293945 100.04179382324219 Z M87.36835479736328 160.0 C76.88554382324219 160.0 67.47969055175781 155.3253936767578 61.10468673706055 147.95977783203125 C61.0703125 147.408203125 61.052345275878906 146.8582000732422 61.052345275878906 146.31600952148438 C61.052345275878906 137.2703094482422 65.7796859741211 128.78164672851562 73.4332046508789 123.99061584472656 C77.376953125 126.77734375 82.18281555175781 128.42147827148438 87.36796569824219 128.42147827148438 C92.55390930175781 128.42147827148438 97.36054229736328 126.77696228027344 101.30429077148438 123.9898452758789 C108.96133422851562 128.78280639648438 113.68359375 137.26014709472656 113.68359375 146.31600952148438 C113.68359375 146.8582000732422 113.66600799560547 147.408203125 113.6312484741211 147.95938110351562 C107.25703430175781 155.3253936767578 97.85116577148438 160.0 87.36835479736328 160.0 Z"></path>
<path fill="" fill-opacity="1.0"  filling="0" d="M188.4210968017578 107.36836242675781 C189.4363250732422 107.36836242675781 190.38946533203125 106.88047790527344 190.98280334472656 106.05703735351562 C191.57656860351562 105.23359680175781 191.73828125 104.17461395263672 191.41680908203125 103.21171569824219 L187.5390625 91.57890319824219 L191.41680908203125 79.94609069824219 C191.73788452148438 78.98320770263672 191.57656860351562 77.9242172241211 190.98280334472656 77.10078430175781 C190.38946533203125 76.2777328491211 189.4363250732422 75.7894515991211 188.4210968017578 75.7894515991211 L162.10546875 75.7894515991211 L162.10546875 68.5093765258789 C162.10546875 63.23710632324219 157.8156280517578 58.947265625 152.54335021972656 58.947265625 L149.4738311767578 58.947265625 L149.4738311767578 9.07421875 C149.4738311767578 4.070701599121094 145.4031219482422 0.0 140.3996124267578 0.0 L41.052734375 0.0 C23.059371948242188 0.0 8.421096801757812 14.638671875 8.421096801757812 32.63164520263672 L8.421096801757812 180.92108154296875 C8.421096801757812 191.44140625 16.979690551757812 200.0 27.5 200.0 L143.025390625 200.0 C152.78866577148438 200.0 160.857421875 192.62734985351562 161.9695281982422 183.15780639648438 L188.4210968017578 183.15780639648438 C189.4363250732422 183.15780639648438 190.38946533203125 182.669921875 190.98280334472656 181.84649658203125 C191.57656860351562 181.02304077148438 191.73828125 179.9640655517578 191.41680908203125 179.0011749267578 L187.5390625 167.3683624267578 L191.41680908203125 155.7355499267578 C191.73788452148438 154.77264404296875 191.57656860351562 153.7136688232422 190.98280334472656 152.89022827148438 C190.38946533203125 152.0671844482422 189.4363250732422 151.5789031982422 188.4210968017578 151.5789031982422 L162.10546875 151.5789031982422 L162.10546875 145.26327514648438 L188.4210968017578 145.26327514648438 C189.4363250732422 145.26327514648438 190.38946533203125 144.775390625 190.98280334472656 143.9519500732422 C191.57656860351562 143.12850952148438 191.73828125 142.0695343017578 191.41680908203125 141.1066436767578 L187.5390625 129.4738311767578 L191.41680908203125 117.84101867675781 C191.73788452148438 116.87812805175781 191.57656860351562 115.81914520263672 190.98280334472656 114.9957046508789 C190.38946533203125 114.17266082763672 189.4363250732422 113.68437957763672 188.4210968017578 113.68437957763672 L162.10546875 113.68437957763672 L162.10546875 107.36875915527344 L188.4210968017578 107.36875915527344 L188.4210968017578 107.36836242675781 Z M162.10508728027344 82.10507202148438 L184.0398406982422 82.10507202148438 L181.21444702148438 90.580078125 C180.99844360351562 91.228515625 180.99844360351562 91.9292984008789 181.21444702148438 92.57772827148438 L184.0398406982422 101.052734375 L162.10508728027344 101.052734375 L162.10508728027344 82.10507202148438 Z M155.78945922851562 180.92071533203125 C155.78945922851562 187.9695281982422 150.0749969482422 193.68399047851562 143.02578735351562 193.68399047851562 L27.5 193.68399047851562 C20.451171875 193.68399047851562 14.736717224121094 187.9695281982422 14.736717224121094 180.92071533203125 L14.736717224121094 51.89687728881836 C20.680465698242188 59.993751525878906 30.26055145263672 65.2632827758789 41.05234146118164 65.2632827758789 L96.42108917236328 65.2632827758789 C98.16522979736328 65.2632827758789 99.57890319824219 63.84921646118164 99.57890319824219 62.105472564697266 L99.57890319824219 62.105472564697266 C99.57890319824219 60.361324310302734 98.16484069824219 58.94765853881836 96.42108917236328 58.94765853881836 L41.451560974121094 58.94765853881836 C27.010154724121094 58.94765853881836 14.959373474121094 47.47969055175781 14.739456176757812 33.04023742675781 C14.515625 18.342971801757812 26.40625 6.3156280517578125 41.052734375 6.3156280517578125 L140.3996124267578 6.3156280517578125 C141.9230499267578 6.3156280517578125 143.15780639648438 7.550392150878906 143.15780639648438 9.073829650878906 L143.15780639648438 16.841796875 L45.39531326293945 16.841796875 C43.666015625 16.841796875 42.158203125 18.17461395263672 42.10663986206055 19.902732849121094 C42.05312728881836 21.69140625 43.48671340942383 23.157424926757812 45.26327896118164 23.157424926757812 L143.158203125 23.157424926757812 L143.158203125 29.473045349121094 L45.39531326293945 29.473045349121094 C43.666015625 29.473045349121094 42.158203125 30.805862426757812 42.10663986206055 32.53398895263672 C42.05312728881836 34.322654724121094 43.48671340942383 35.788673400878906 45.26327896118164 35.788673400878906 L143.158203125 35.788673400878906 L143.158203125 42.10429763793945 L45.39531326293945 42.10429763793945 C43.666015625 42.10429763793945 42.158203125 43.437110900878906 42.10663986206055 45.16523361206055 C42.05312728881836 46.95351028442383 43.48671340942383 48.419921875 45.26327896118164 48.419921875 L143.158203125 48.419921875 L143.158203125 58.94609069824219 L113.65898895263672 58.94609069824219 C111.91484832763672 58.94609069824219 110.50116729736328 60.36015701293945 110.50116729736328 62.103904724121094 L110.50116729736328 62.103904724121094 C110.50116729736328 63.84804916381836 111.91522979736328 65.26171875 113.65898895263672 65.26171875 L152.5437469482422 65.26171875 C154.3367156982422 65.26171875 155.7902374267578 66.7152328491211 155.7902374267578 68.5082015991211 L155.78945922851562 180.92071533203125 L155.78945922851562 180.92071533203125 Z M184.0398406982422 157.89492797851562 L181.21444702148438 166.36993408203125 C180.99844360351562 167.0183563232422 180.99844360351562 167.71914672851562 181.21444702148438 168.3671875 L184.0398406982422 176.84219360351562 L162.10508728027344 176.84219360351562 L162.10508728027344 157.89453125 L184.0398406982422 157.89492797851562 L184.0398406982422 157.89492797851562 Z M184.0398406982422 120.0 L181.21444702148438 128.47500610351562 C180.99844360351562 129.12344360351562 180.99844360351562 129.82421875 181.21444702148438 130.47265625 L184.0398406982422 138.94766235351562 L162.10508728027344 138.94766235351562 L162.10508728027344 120.0 L184.0398406982422 120.0 L184.0398406982422 120.0 Z"></path></svg>