<svg xmlns="http://www.w3.org/2000/svg" viewBox="0.0 0.0 200.0 200.0" height="200.0px" width="200.0px"><path fill="#fed2a4" fill-opacity="1.0"  filling="0" d="M199.55433654785156 62.98048782348633 L184.20394897460938 65.0894775390625 L196.03871154785156 74.22932434082031 C194.04769897460938 78.4484634399414 191.58636474609375 82.55003356933594 188.42152404785156 86.65159606933594 L172.48519897460938 88.52542114257812 L178.8133087158203 96.26018524169922 C167.6820526123047 105.86840057373047 154.0496368408203 111.49301147460938 140.92579650878906 111.49301147460938 C135.53634643554688 111.49301147460938 130.2628936767578 110.55472564697266 125.10665893554688 108.79808807373047 L118.42813110351562 106.57191467285156 L117.49102783203125 113.60160827636719 C116.31915283203125 121.68753814697266 113.38946533203125 129.45864868164062 109.17070007324219 136.2563018798828 L90.5394515991211 135.90396118164062 L101.55469512939453 145.98248291015625 C101.55469512939453 146.09848022460938 101.4375 146.21568298339844 101.4375 146.21568298339844 L94.40624237060547 153.24693298339844 C96.63397979736328 155.00357055664062 98.5078125 156.87857055664062 100.38282012939453 158.40318298339844 C104.71797180175781 162.03482055664062 109.0546875 164.846923828125 117.95977020263672 164.846923828125 C124.40351867675781 164.846923828125 129.6769561767578 170.12037658691406 129.6769561767578 176.56411743164062 C129.6769561767578 183.0094451904297 124.40351867675781 188.2828826904297 117.95977020263672 188.2828826904297 L109.0546875 188.2828826904297 C105.88984680175781 188.2828826904297 103.0777359008789 187.9305419921875 100.38282012939453 187.4617919921875 C80.46249389648438 183.5953826904297 72.49452209472656 166.95553588867188 70.73670959472656 165.19772338867188 L42.81013107299805 192.7352294921875 C35.66130065917969 199.88250732421875 25.349578857421875 201.99148559570312 15.740982055664062 198.00711059570312 C-1.4832382202148438 190.9774169921875 -3.12347412109375 171.05709838867188 5.4304351806640625 155.3559112548828 L18.202308654785156 158.63638305664062 L12.577705383300781 145.62974548339844 C14.686683654785156 143.52114868164062 17.147621154785156 141.645751953125 19.726531982421875 140.00552368164062 L31.67731475830078 142.34927368164062 L30.2718505859375 134.61605834960938 L59.37030029296875 117.58597564697266 L50.93553161621094 104.93011474609375 C41.209354400634766 90.40081024169922 37.80974197387695 73.05901336669922 41.209354400634766 55.95079803466797 C42.84959030151367 47.51446533203125 46.13044738769531 39.3906364440918 50.465213775634766 32.594154357910156 L63.003501892089844 37.98360824584961 L58.78436279296875 21.93164825439453 C62.29998779296875 18.298439025878906 66.39998626708984 15.017585754394531 70.85427856445312 12.203910827636719 L79.99413299560547 18.180862426757812 L81.28202819824219 6.697265625 C98.9761734008789 -1.85546875 98.7425765991211 0.37070465087890625 99.796875 0.0183563232421875 L100.61640930175781 0.0183563232421875 C108.70195770263672 0.48671722412109375 114.67735290527344 5.056640625 117.02110290527344 12.673835754394531 C119.83321380615234 22.282424926757812 116.55274200439453 36.109779357910156 104.3671875 44.19415283203125 C102.96015930175781 45.13243865966797 101.67070770263672 46.06915283203125 100.38282012939453 47.006263732910156 C80.93124389648438 60.951194763183594 66.63514709472656 73.5273666381836 78.23632049560547 96.61097717285156 L82.80624389648438 105.86840057373047 L94.99217987060547 93.68128204345703 C96.9847640991211 91.69026947021484 98.74101257324219 89.69886016845703 100.38282012939453 87.82347106933594 C108.23204040527344 78.5660400390625 112.21758270263672 70.5976791381836 113.62305450439453 67.5523681640625 C116.67031860351562 61.45783233642578 118.31055450439453 58.998069763183594 122.88047790527344 58.998069763183594 C126.62969970703125 58.998069763183594 129.6769561767578 62.04533386230469 129.6769561767578 65.7945556640625 L129.6769561767578 82.6676025390625 L135.76954650878906 82.43401336669922 C145.4957275390625 81.96409606933594 153.2683868408203 73.9961166381836 153.2683868408203 64.2715072631836 C153.2683868408203 56.06837844848633 162.05587768554688 36.96915054321289 170.84494018554688 32.633995056152344 C180.45355224609375 27.830474853515625 192.28831481933594 31.57813262939453 197.20901489257812 41.4214973449707 C200.37542724609375 47.86525344848633 200.9597930908203 55.247676849365234 199.55433654785156 62.98048782348633 Z"></path>
<path fill="#ffbd86" fill-opacity="1.0"  filling="0" d="M101.43905639648438 146.21568298339844 L100.38282012939453 147.27035522460938 L100.38282012939453 144.92660522460938 L101.55469512939453 145.98248291015625 C101.55469512939453 146.09848022460938 101.43905639648438 146.21568298339844 101.43905639648438 146.21568298339844 Z"></path>
<path fill="#ffbd86" fill-opacity="1.0"  filling="0" d="M104.36874389648438 44.19415283203125 C102.96172332763672 45.13087463378906 101.67227172851562 46.069549560546875 100.38282012939453 47.006263732910156 L100.38282012939453 0.0183563232421875 L100.61796569824219 0.0183563232421875 C108.70352172851562 0.48671722412109375 114.67890930175781 5.056640625 117.02265930175781 12.673835754394531 C119.83477783203125 22.282424926757812 116.55430603027344 36.10860824584961 104.36874389648438 44.19415283203125 Z"></path>
<path fill="#ffbd86" fill-opacity="1.0"  filling="0" d="M129.67852783203125 176.56411743164062 C129.67852783203125 183.0094451904297 124.40508270263672 188.28131103515625 117.96095275878906 188.28131103515625 L109.0546875 188.28131103515625 C105.89141082763672 188.28131103515625 103.07929992675781 187.9305419921875 100.3843765258789 187.4617919921875 L100.3843765258789 158.40318298339844 C104.71953582763672 162.03482055664062 109.0546875 164.846923828125 117.96095275878906 164.846923828125 C124.40508270263672 164.846923828125 129.67852783203125 170.12037658691406 129.67852783203125 176.56411743164062 Z"></path>
<path fill="#ffbd86" fill-opacity="1.0"  filling="0" d="M199.55433654785156 62.98048782348633 L184.20394897460938 65.0894775390625 L196.03871154785156 74.22932434082031 C194.04769897460938 78.4484634399414 191.58636474609375 82.55003356933594 188.42152404785156 86.65159606933594 L172.48519897460938 88.52542114257812 L178.8133087158203 96.26018524169922 C167.6820526123047 105.86840057373047 154.0496368408203 111.49301147460938 140.92579650878906 111.49301147460938 C135.53634643554688 111.49301147460938 130.2628936767578 110.55472564697266 125.10665893554688 108.79808807373047 L118.42813110351562 106.57191467285156 L117.49102783203125 113.60160827636719 C116.31915283203125 121.68753814697266 113.38946533203125 129.45864868164062 109.17070007324219 136.2563018798828 L100.38282012939453 136.13909912109375 L100.38282012939453 87.82190704345703 C108.23359680175781 78.5660400390625 112.21758270263672 70.5976791381836 113.62305450439453 67.55079650878906 C116.67031860351562 61.45783233642578 118.31055450439453 58.998069763183594 122.88047790527344 58.998069763183594 C126.62969970703125 58.998069763183594 129.6769561767578 62.04376983642578 129.6769561767578 65.79298400878906 L129.6769561767578 82.6676025390625 L135.7711181640625 82.43244934082031 C145.4957275390625 81.96409606933594 153.2683868408203 73.9961166381836 153.2683868408203 64.26994323730469 C153.2683868408203 56.06837844848633 162.05587768554688 36.967586517333984 170.84494018554688 32.63243103027344 C180.45355224609375 27.82891845703125 192.28831481933594 31.57813262939453 197.20901489257812 41.4214973449707 C200.37542724609375 47.86525344848633 200.9597930908203 55.247676849365234 199.55433654785156 62.98048782348633 Z"></path>
<path fill="#ffbd86" fill-opacity="1.0"  filling="0" d="M86.0625 34.559776306152344 C86.89881896972656 34.97618103027344 87.78514862060547 35.17149353027344 88.66132354736328 35.17149353027344 C90.81718444824219 35.17149353027344 92.88788604736328 33.98126220703125 93.91327667236328 31.915245056152344 C95.353515625 29.020713806152344 94.1695327758789 25.50196075439453 91.26874542236328 24.066024780273438 C88.8031234741211 22.841018676757812 86.88046264648438 20.753517150878906 85.85663604736328 18.189849853515625 L81.27304077148438 6.715232849121094 C79.63710021972656 7.5011749267578125 78.07460021972656 8.242973327636719 76.11405944824219 9.223831176757812 C74.29335021972656 10.133201599121094 72.56912994384766 11.178520202636719 70.86170959472656 12.2421875 L74.97421264648438 22.538681030273438 C77.06912994384766 27.784774780273438 81.00428771972656 32.05274200439453 86.0625 34.559776306152344 Z"></path>
<path fill="#ffbd86" fill-opacity="1.0"  filling="0" d="M63.7269401550293 46.69493865966797 C64.22888946533203 46.82618713378906 64.73240661621094 46.88868713378906 65.23592376708984 46.88868713378906 C67.82225036621094 46.88868713378906 70.19647216796875 45.161346435546875 70.89530181884766 42.53555679321289 C71.72381591796875 39.41211700439453 69.86521911621094 36.20157241821289 66.73592376708984 35.36680603027344 C65.04803466796875 34.91992950439453 63.6351432800293 33.68360900878906 62.95935821533203 32.07109832763672 L58.74803161621094 21.962112426757812 C55.62303161621094 25.175399780273438 52.87771987915039 28.736732482910156 50.46678161621094 32.54689025878906 L52.145294189453125 36.57852554321289 C54.21131134033203 41.53282928466797 58.53709030151367 45.309391021728516 63.7269401550293 46.69493865966797 Z"></path>
<path fill="#f6a96c" fill-opacity="1.0"  filling="0" d="M188.43832397460938 86.59534454345703 L172.49923706054688 82.60940551757812 C169.3465118408203 81.8039321899414 166.1820526123047 83.73127746582031 165.3992462158203 86.87307739257812 C164.60861206054688 90.00706481933594 166.52072143554688 93.18831634521484 169.6609649658203 93.97269439697266 L178.7965087890625 96.25706481933594 C180.17425537109375 95.07464599609375 181.64691162109375 94.07347106933594 182.9527587890625 92.76565551757812 C184.94418334960938 90.77619934082031 186.77386474609375 88.71175384521484 188.43832397460938 86.59534454345703 Z"></path>
<path fill="#f6a96c" fill-opacity="1.0"  filling="0" d="M177.11642456054688 63.436737060546875 C176.32737731933594 66.57267761230469 178.2379150390625 69.75393676757812 181.37973022460938 70.5367431640625 L196.00082397460938 74.1929931640625 C197.69886779785156 70.46369171142578 198.82659912109375 66.71603393554688 199.52699279785156 63.001976013183594 L184.21798706054688 59.17502212524414 C181.05316162109375 58.36174011230469 177.89456176757812 60.29650115966797 177.11642456054688 63.436737060546875 Z"></path>
<path fill="#ffbd86" fill-opacity="1.0"  filling="0" d="M29.26325225830078 170.68795776367188 C29.4066162109375 170.7000732421875 29.548797607421875 170.70631408691406 29.692161560058594 170.70631408691406 C32.736297607421875 170.70631408691406 35.30583190917969 168.35317993164062 35.52849578857422 165.26959228515625 C35.763641357421875 162.04380798339844 33.33747100830078 159.23912048339844 30.110130310058594 159.00592041015625 C25.469894409179688 158.667236328125 21.150360107421875 156.37818908691406 18.25543975830078 152.72817993164062 L12.605438232421875 145.608642578125 C9.712074279785156 148.50942993164062 7.292152404785156 151.81138610839844 5.375740051269531 155.34811401367188 L9.077308654785156 160.01138305664062 C13.998405456542969 166.22622680664062 21.356216430664062 170.11569213867188 29.26325225830078 170.68795776367188 Z"></path>
<path fill="#ffbd86" fill-opacity="1.0"  filling="0" d="M41.32380676269531 153.12974548339844 L41.404666900634766 153.12974548339844 C44.60309982299805 153.12974548339844 47.21677780151367 150.56021118164062 47.262481689453125 147.34967041015625 C47.30818557739258 144.1176300048828 44.723419189453125 141.45669555664062 41.48396301269531 141.41098022460938 C37.59294891357422 141.35435485839844 34.0179443359375 139.546142578125 31.672630310058594 136.4457550048828 L30.276535034179688 134.6039581298828 L27.197235107421875 136.38755798339844 C24.501136779785156 137.28482055664062 22.026138305664062 138.56646728515625 19.677703857421875 140.01919555664062 L22.33434295654297 143.522705078125 C26.872238159179688 149.5195770263672 33.79528045654297 153.01959228515625 41.32380676269531 153.12974548339844 Z"></path>
<path fill="#ffbd86" fill-opacity="1.0"  filling="0" d="M109.17188262939453 136.25474548339844 C107.06328582763672 139.65316772460938 104.60195922851562 143.0527801513672 101.55469512939453 145.98248291015625 L86.79218292236328 141.059814453125 C83.74491119384766 140.1230926513672 82.10468292236328 136.7250518798828 83.15897369384766 133.6777801513672 C84.09569549560547 130.63052368164062 87.49530792236328 128.99183654785156 90.541015625 130.04458618164062 L109.17188262939453 136.25474548339844 Z"></path>
<path fill="#f6a96c" fill-opacity="1.0"  filling="0" d="M109.17188262939453 136.25474548339844 C107.06328582763672 139.65316772460938 104.60195922851562 143.0527801513672 101.55469512939453 145.98248291015625 L100.3843765258789 145.62974548339844 L100.3843765258789 133.3266143798828 L109.17188262939453 136.25474548339844 Z"></path></svg>