<svg xmlns="http://www.w3.org/2000/svg" viewBox="0.0 0.0 200.0 200.0" height="200.0px" width="200.0px"><path fill="#ff9568" fill-opacity="1.0"  filling="0" d="M50.554786682128906 81.96070861816406 C50.030174255371094 81.58453369140625 50.16728210449219 80.77085876464844 50.78642654418945 80.58766174316406 C53.523929595947266 79.77749633789062 55.49463653564453 77.18140411376953 55.34698486328125 74.14859008789062 C55.17979431152344 70.72006225585938 52.225101470947266 68.08489990234375 48.79267120361328 68.08489990234375 L23.194961547851562 68.08489990234375 C19.757850646972656 68.08489990234375 16.80042266845703 70.72631072998047 16.63909149169922 74.1595230102539 C16.46643829345703 77.82514953613281 19.387535095214844 80.85093688964844 23.01488494873047 80.85093688964844 L24.72856903076172 80.85093688964844 C26.275047302246094 80.85093688964844 27.78247833251953 81.33570861816406 29.03911590576172 82.23687744140625 L86.80720520019531 123.6756362915039 C87.7864990234375 124.37798309326172 87.7864990234375 125.8346176147461 86.80720520019531 126.5369644165039 L29.03833770751953 167.97572326660156 C27.781692504882812 168.87689208984375 26.274269104003906 169.36166381835938 24.72777557373047 169.36166381835938 L23.194183349609375 169.36166381835938 C19.75707244873047 169.36166381835938 16.799644470214844 172.00308227539062 16.63831329345703 175.436279296875 C16.465652465820312 179.10191345214844 19.386756896972656 182.12770080566406 23.01410675048828 182.12770080566406 L48.79228591918945 182.12770080566406 C52.225101470947266 182.12770080566406 55.17979431152344 179.49293518066406 55.34659194946289 176.06402587890625 C55.49463653564453 173.03082275390625 53.523929595947266 170.43508911132812 50.786033630371094 169.62493896484375 C50.16689682006836 169.44174194335938 50.02978515625 168.62808227539062 50.55439758300781 168.25189208984375 L93.36853790283203 137.5401153564453 L94.69745635986328 135.59402465820312 L94.69745635986328 115.6076431274414 L93.36853790283203 112.6720962524414 L50.554786682128906 81.96070861816406 Z"></path>
<path fill="#ff7c42" fill-opacity="1.0"  filling="0" d="M29.07036590576172 175.436279296875 C29.232086181640625 172.00308227539062 32.18951416015625 169.36166381835938 35.626243591308594 169.36166381835938 L37.15983581542969 169.36166381835938 C38.70632553100586 169.36166381835938 40.21375274658203 168.87689208984375 41.470394134521484 167.97572326660156 L94.69823455810547 129.79400634765625 L94.69823455810547 120.41859436035156 L41.470394134521484 82.23687744140625 C40.21413803100586 81.33570861816406 38.70632553100586 80.85093688964844 37.15983581542969 80.85093688964844 L35.44615936279297 80.85093688964844 C31.818817138671875 80.85093688964844 28.898101806640625 77.82476043701172 29.07036590576172 74.1595230102539 C29.232086181640625 70.72631072998047 32.18951416015625 68.08489990234375 35.626243591308594 68.08489990234375 L23.194580078125 68.08489990234375 C19.75745391845703 68.08489990234375 16.800033569335938 70.72631072998047 16.638702392578125 74.1595230102539 C16.466049194335938 77.82514953613281 19.38714599609375 80.85093688964844 23.014503479003906 80.85093688964844 L24.728172302246094 80.85093688964844 C26.274658203125 80.85093688964844 27.782081604003906 81.33570861816406 29.038726806640625 82.23687744140625 L86.80681610107422 123.6756362915039 C87.7861099243164 124.37798309326172 87.7861099243164 125.8346176147461 86.80681610107422 126.5369644165039 L29.03833770751953 167.97572326660156 C27.781692504882812 168.87689208984375 26.274269104003906 169.36166381835938 24.72777557373047 169.36166381835938 L23.194183349609375 169.36166381835938 C19.75707244873047 169.36166381835938 16.799644470214844 172.00308227539062 16.63831329345703 175.436279296875 C16.465652465820312 179.10191345214844 19.386756896972656 182.12770080566406 23.01410675048828 182.12770080566406 L35.445770263671875 182.12770080566406 C31.81842041015625 182.12770080566406 28.89771270751953 179.10153198242188 29.07036590576172 175.436279296875 Z"></path>
<path fill="#ff9568" fill-opacity="1.0"  filling="0" d="M176.30894470214844 169.36166381835938 L174.77536010742188 169.36166381835938 C173.22885131835938 169.36166381835938 171.721435546875 168.87689208984375 170.46517944335938 167.97572326660156 L112.69709777832031 126.5369644165039 C111.71780395507812 125.8346176147461 111.71780395507812 124.37798309326172 112.69709777832031 123.6756362915039 L170.46517944335938 82.23687744140625 C171.721435546875 81.33570861816406 173.22885131835938 80.85093688964844 174.77536010742188 80.85093688964844 L176.30894470214844 80.85093688964844 C179.74606323242188 80.85093688964844 182.7034912109375 78.20953369140625 182.86520385742188 74.77632141113281 C183.03785705566406 71.11068725585938 180.11715698242188 68.08489990234375 176.48941040039062 68.08489990234375 L150.71124267578125 68.08489990234375 C147.27841186523438 68.08489990234375 144.32371520996094 70.71967315673828 144.1565399169922 74.148193359375 C144.00848388671875 77.1810073852539 145.97918701171875 79.77711486816406 148.7170867919922 80.58726501464844 C149.3362274169922 80.77046966552734 149.4733428955078 81.58414459228516 148.94873046875 81.96031188964844 L106.13459014892578 112.6720962524414 L104.95880126953125 114.06507110595703 L104.95880126953125 135.4600372314453 L106.13459014892578 137.54049682617188 L148.94873046875 168.25228881835938 C149.4733428955078 168.62844848632812 149.3362274169922 169.442138671875 148.7170867919922 169.62533569335938 C145.97918701171875 170.43548583984375 144.00888061523438 173.03158569335938 144.1565399169922 176.0644073486328 C144.32371520996094 179.49293518066406 147.27841186523438 182.12770080566406 150.71124267578125 182.12770080566406 L176.48941040039062 182.12770080566406 C180.11676025390625 182.12770080566406 183.0374755859375 179.10191345214844 182.86520385742188 175.436279296875 C182.7034912109375 172.00308227539062 179.74606323242188 169.36166381835938 176.30894470214844 169.36166381835938 Z"></path>
<path fill="#ff7c42" fill-opacity="1.0"  filling="0" d="M160.2479705810547 81.96070861816406 C160.7725830078125 81.58453369140625 160.63548278808594 80.77085876464844 160.01632690429688 80.58766174316406 C157.27842712402344 79.77749633789062 155.30812072753906 77.18140411376953 155.45578002929688 74.14859008789062 C155.6229705810547 70.72006225585938 158.57766723632812 68.08528900146484 162.01046752929688 68.08528900146484 L150.71124267578125 68.08528900146484 C147.27841186523438 68.08528900146484 144.32371520996094 70.72006225585938 144.1565399169922 74.14859008789062 C144.00848388671875 77.18140411376953 145.97918701171875 79.77749633789062 148.7170867919922 80.58766174316406 C149.3362274169922 80.77085876464844 149.4733428955078 81.58453369140625 148.94873046875 81.96070861816406 L106.13459014892578 112.67249298095703 L104.95880126953125 114.0654525756836 L104.95880126953125 121.6873550415039 L160.2479705810547 81.96070861816406 Z"></path>
<path fill="#ff7c42" fill-opacity="1.0"  filling="0" d="M155.45578002929688 176.0644073486328 C155.3077392578125 173.03158569335938 157.27842712402344 170.43548583984375 160.01632690429688 169.62533569335938 C160.63548278808594 169.442138671875 160.7725830078125 168.62844848632812 160.2479705810547 168.25228881835938 L104.95919036865234 128.586181640625 L104.95919036865234 135.46043395996094 L106.13497161865234 137.5408935546875 L148.94912719726562 168.252685546875 C149.47373962402344 168.62884521484375 149.3366241455078 169.44252014160156 148.7174835205078 169.625732421875 C145.97958374023438 170.43588256835938 144.00926208496094 173.031982421875 144.15692138671875 176.06480407714844 C144.32411193847656 179.4933319091797 147.27880859375 182.1280975341797 150.71163940429688 182.1280975341797 L162.01046752929688 182.1280975341797 C158.57766723632812 182.12770080566406 155.6229705810547 179.49293518066406 155.45578002929688 176.0644073486328 Z"></path>
<path fill="#ffe559" fill-opacity="1.0"  filling="0" d="M159.82257080078125 0.0 L106.32443237304688 0.0 C102.79903411865234 0.0 99.94160461425781 2.8578109741210938 99.94160461425781 6.382820129394531 L99.94160461425781 184.5745849609375 C99.94160461425781 186.0433349609375 98.7509765625 187.2339630126953 97.28182983398438 187.2339630126953 L93.52596282958984 187.2339630126953 C90.08885192871094 187.2339630126953 87.1318130493164 189.8753662109375 86.9700927734375 193.30819702148438 C86.79743957519531 196.9738311767578 89.7181396484375 199.99960327148438 93.34588623046875 199.99960327148438 L112.55021667480469 199.99960327148438 C115.98694610595703 199.99960327148438 118.94438171386719 197.3582000732422 119.10609436035156 193.92498779296875 C119.27874755859375 190.2593536376953 116.35804748535156 187.2335662841797 112.73029327392578 187.2335662841797 L108.79435729980469 187.2335662841797 C107.32559967041016 187.2335662841797 106.13459014892578 186.04295349121094 106.13459014892578 184.57418823242188 L106.16818237304688 60.545433044433594 C106.16818237304688 59.69581985473633 106.85723876953125 59.00675964355469 107.70724487304688 59.00675964355469 L159.82257080078125 59.00675964355469 C172.826904296875 59.00675964355469 183.36871337890625 48.464935302734375 183.36871337890625 35.46061706542969 L183.36871337890625 23.54613494873047 C183.36871337890625 10.541816711425781 172.826904296875 0.0 159.82257080078125 0.0 Z M177.17575073242188 35.46100616455078 C177.17575073242188 41.4145393371582 172.34918212890625 46.24110412597656 166.3956298828125 46.24110412597656 L114.24632263183594 46.24149703979492 L114.24592590332031 46.24149703979492 L136.25340270996094 46.24149703979492 L107.67365264892578 46.24149703979492 C106.82363891601562 46.24149703979492 106.13459014892578 45.552433013916016 106.13459014892578 44.702430725097656 L106.13459014892578 15.425422668457031 C106.13459014892578 13.9566650390625 107.3252182006836 12.766036987304688 108.79435729980469 12.766036987304688 L159.01788330078125 12.766036987304688 L159.82257080078125 12.766036987304688 L166.395263671875 12.766036987304688 C172.34918212890625 12.766036987304688 177.17535400390625 17.592613220214844 177.17535400390625 23.54613494873047 L177.17535400390625 35.46100616455078 L177.17575073242188 35.46100616455078 Z"></path>
<path fill="#ffd500" fill-opacity="1.0"  filling="0" d="M177.98043823242188 35.46100616455078 L177.98043823242188 23.54613494873047 C177.98043823242188 17.59221649169922 173.15386962890625 12.766036987304688 167.20033264160156 12.766036987304688 L159.82257080078125 12.766036987304688 C165.7764892578125 12.766036987304688 170.60269165039062 17.592613220214844 170.60269165039062 23.54613494873047 L170.60269165039062 35.46100616455078 C170.60269165039062 41.4145393371582 165.77609252929688 46.24110412597656 159.82257080078125 46.24110412597656 L115.05061340332031 46.24149703979492 L115.05101013183594 46.24149703979492 L167.20033264160156 46.24110412597656 C173.15423583984375 46.24110412597656 177.98043823242188 41.4145393371582 177.98043823242188 35.46100616455078 Z"></path>
<path fill="#ffd500" fill-opacity="1.0"  filling="0" d="M87.7751693725586 193.30857849121094 C87.9368896484375 189.8753662109375 90.89431762695312 187.23434448242188 94.33104705810547 187.23434448242188 L98.0869140625 187.23434448242188 C99.5556640625 187.23434448242188 100.74668884277344 186.04373168945312 100.74668884277344 184.57496643066406 L100.74668884277344 6.382820129394531 C100.74668884277344 2.8574295043945312 103.60449981689453 0.0 107.12950897216797 0.0 L99.75175476074219 0.0 C96.22636413574219 0.0 93.36893463134766 2.8578109741210938 93.36893463134766 6.382820129394531 L93.36893463134766 184.5745849609375 C93.36893463134766 186.0433349609375 92.17830657958984 187.2339630126953 90.70915985107422 187.2339630126953 L86.95330047607422 187.2339630126953 C83.51617431640625 187.2339630126953 80.55914306640625 189.8753662109375 80.39742279052734 193.30819702148438 C80.22476959228516 196.9738311767578 83.14547729492188 199.99960327148438 86.77322387695312 199.99960327148438 L94.15097045898438 199.99960327148438 C90.52322387695312 200.0 87.6025161743164 196.9738311767578 87.7751693725586 193.30857849121094 Z"></path></svg>