<svg xmlns="http://www.w3.org/2000/svg" viewBox="0.0 0.0 200.0 200.0" height="200.0px" width="200.0px"><path fill="#e1b378" fill-opacity="1.0"  filling="0" d="M20.295310974121094 32.58124542236328 L100.0 32.58124542236328 L100.0 152.63751220703125 L20.295310974121094 152.63751220703125 L20.295310974121094 32.58124542236328 Z"></path>
<path fill="#e1b378" fill-opacity="1.0"  filling="0" d="M100.0 32.58124542236328 L179.70468139648438 32.58124542236328 L179.70468139648438 152.63751220703125 L100.0 152.63751220703125 L100.0 32.58124542236328 Z"></path>
<path fill="#bd8d5a" fill-opacity="1.0"  filling="0" d="M100.00312042236328 32.584373474121094 L100.00312042236328 46.023441314697266 L82.62187194824219 76.5078125 L20.290626525878906 76.5078125 L20.290626525878906 32.584373474121094 L100.00312042236328 32.584373474121094 Z"></path>
<path fill="#bd8d5a" fill-opacity="1.0"  filling="0" d="M179.6984405517578 32.584373474121094 L179.6984405517578 76.5078125 L117.3671875 76.5078125 L100.00312042236328 46.023441314697266 L100.00312042236328 32.584373474121094 L179.6984405517578 32.584373474121094 Z"></path>
<path fill="#2f3a5a" fill-opacity="1.0"  filling="0" d="M100.0 154.20156860351562 L20.295310974121094 154.20156860351562 A1.5625 1.5625 0.0 0 1 18.732810974121094 152.63906860351562 L18.732810974121094 32.58281707763672 A1.5625 1.5625 0.0 0 1 20.295310974121094 31.02031707763672 L100.0 31.02031707763672 A1.5625 1.5625 0.0 0 1 101.5625 32.58281707763672 L101.5625 152.63906860351562 A1.5625 1.5625 0.0 0 1 100.0 154.20156860351562 Z M21.857810974121094 151.07656860351562 L98.4375 151.07656860351562 L98.4375 34.14531707763672 L21.857810974121094 34.14531707763672 L21.857810974121094 151.07656860351562 Z"></path>
<path fill="#2f3a5a" fill-opacity="1.0"  filling="0" d="M179.70468139648438 154.20156860351562 L100.0 154.20156860351562 A1.5625 1.5625 0.0 0 1 98.4375 152.63906860351562 L98.4375 32.58281707763672 A1.5625 1.5625 0.0 0 1 100.0 31.02031707763672 L179.70468139648438 31.02031707763672 A1.5625 1.5625 0.0 0 1 181.26718139648438 32.58281707763672 L181.26718139648438 152.63906860351562 A1.5625 1.5625 0.0 0 1 179.70468139648438 154.20156860351562 Z M101.5625 151.07656860351562 L178.14218139648438 151.07656860351562 L178.14218139648438 34.14531707763672 L101.5625 34.14531707763672 L101.5625 151.07656860351562 Z"></path>
<path fill="#e1b378" fill-opacity="1.0"  filling="0" d="M100.0 32.58124542236328 L117.37187194824219 63.0625 L198.4375 63.0625 L179.70468139648438 32.58124542236328 L100.0 32.58124542236328 Z"></path>
<path fill="#e1b378" fill-opacity="1.0"  filling="0" d="M100.0 32.58124542236328 L82.62812805175781 63.0625 L1.5625 63.0625 L20.295310974121094 32.58124542236328 L100.0 32.58124542236328 Z"></path>
<path fill="#2f3a5a" fill-opacity="1.0"  filling="0" d="M198.4375 64.625 L117.37187194824219 64.625 A1.5625 1.5625 0.0 0 1 116.0140609741211 63.84375 L98.6421890258789 33.35624694824219 A1.5625 1.5625 0.0 0 1 100.0 31.012496948242188 L179.70468139648438 31.012496948242188 A1.5625 1.5625 0.0 0 1 181.0359344482422 31.7578125 L199.76873779296875 62.23750305175781 A1.5625 1.5625 0.0 0 1 198.4375 64.625 Z M118.28125 61.5 L195.6453094482422 61.5 L178.82968139648438 34.14531707763672 L102.6890640258789 34.14531707763672 L118.28125 61.5 Z"></path>
<path fill="#2f3a5a" fill-opacity="1.0"  filling="0" d="M82.62812805175781 64.625 L1.5625 64.625 A1.5625 1.5625 0.0 0 1 0.2312469482421875 62.24531555175781 L18.965621948242188 31.764068603515625 A1.5625 1.5625 0.0 0 1 20.296875 31.01874542236328 L100.0 31.01874542236328 A1.5625 1.5625 0.0 0 1 101.35781860351562 33.36249542236328 L83.9859390258789 63.8359375 A1.5625 1.5625 0.0 0 1 82.62812805175781 64.625 Z M4.356254577636719 61.5 L81.71875 61.5 L97.3109359741211 34.14531707763672 L21.170310974121094 34.14531707763672 L4.356254577636719 61.5 Z"></path>
<path fill="#2f3a5a" fill-opacity="1.0"  filling="0" d="M34.84375 143.24844360351562 A1.5625 1.5625 0.0 0 1 33.28125 141.68594360351562 L33.28125 115.35781860351562 A1.5625 1.5625 0.0 0 1 36.40625 115.35781860351562 L36.40625 141.68594360351562 A1.5625 1.5625 0.0 0 1 34.84375 143.24844360351562 Z"></path>
<path fill="#2f3a5a" fill-opacity="1.0"  filling="0" d="M40.70781326293945 121.83280944824219 A1.5625 1.5625 0.0 0 1 39.51250457763672 121.27812194824219 L34.84375 115.74531555175781 L30.171875 121.27812194824219 A1.5625 1.5625 0.0 1 1 27.78594207763672 119.26250457763672 L33.65156555175781 112.31562805175781 A1.6124999523162842 1.6124999523162842 0.0 0 1 36.037498474121094 112.31562805175781 L41.90312576293945 119.26250457763672 A1.5625 1.5625 0.0 0 1 40.7109375 121.83280944824219 L40.70781326293945 121.83280944824219 Z"></path>
<path fill="#2f3a5a" fill-opacity="1.0"  filling="0" d="M54.282814025878906 143.24844360351562 A1.5625 1.5625 0.0 0 1 52.720314025878906 141.68594360351562 L52.720314025878906 115.35781860351562 A1.5625 1.5625 0.0 0 1 55.845314025878906 115.35781860351562 L55.845314025878906 141.68594360351562 A1.5625 1.5625 0.0 0 1 54.282814025878906 143.24844360351562 Z"></path>
<path fill="#2f3a5a" fill-opacity="1.0"  filling="0" d="M60.15625 121.83280944824219 A1.5625 1.5625 0.0 0 1 58.9609375 121.27812194824219 L54.2890625 115.74531555175781 L49.617183685302734 121.27812194824219 A1.5625 1.5625 0.0 1 1 47.23125076293945 119.26250457763672 L53.09687423706055 112.31562805175781 A1.6124999523162842 1.6124999523162842 0.0 0 1 55.482810974121094 112.31562805175781 L61.34843826293945 119.26250457763672 A1.5625 1.5625 0.0 0 1 60.15625 121.83280944824219 Z"></path>
<path fill="#d9e2e9" fill-opacity="1.0"  filling="0" d="M197.9171905517578 148.4890594482422 A18.928125381469727 18.928125381469727 0.0 1 1 160.06094360351562 148.4890594482422 A18.928125381469727 18.928125381469727 0.0 1 1 197.9171905517578 148.4890594482422 Z"></path>
<path fill="#2f3a5a" fill-opacity="1.0"  filling="0" d="M178.99063110351562 168.9796905517578 A20.4921875 20.4921875 0.0 1 1 199.4812469482422 148.4890594482422 A20.514062881469727 20.514062881469727 0.0 0 1 178.99063110351562 168.9796905517578 Z M178.99063110351562 131.1218719482422 A17.3671875 17.3671875 0.0 1 0 196.3562469482422 148.4890594482422 A17.385936737060547 17.385936737060547 0.0 0 0 178.99063110351562 131.1218719482422 Z"></path>
<path fill="#2f3a5a" fill-opacity="1.0"  filling="0" d="M176.73126220703125 155.3125 A1.5625 1.5625 0.0 0 1 175.62655639648438 154.8546905517578 L170.06407165527344 149.2937469482422 A1.5625 1.5625 0.0 0 1 172.2734375 147.08438110351562 L176.73126220703125 151.54061889648438 L186.1374969482422 142.13438415527344 A1.5625 1.5625 0.0 0 1 188.3468780517578 144.34375 L177.8359375 154.84375 A1.5625 1.5625 0.0 0 1 176.73126220703125 155.3125 Z"></path></svg>