<svg xmlns="http://www.w3.org/2000/svg" viewBox="0.0 0.0 200.0 200.0" height="200.0px" width="200.0px"><path fill="#fe5f51" fill-opacity="1.0"  filling="0" d="M56.95040512084961 143.071044921875 L36.86838150024414 176.56243896484375 L61.5953254699707 172.79641723632812 L70.69688415527344 196.09368896484375 L95.8648452758789 153.778076171875 L56.95040512084961 143.071044921875 Z"></path>
<path fill="#fe5f51" fill-opacity="1.0"  filling="0" d="M143.0374755859375 143.071044921875 L104.11054229736328 153.75814819335938 L129.05584716796875 196.09368896484375 L138.1577911376953 172.79641723632812 L162.8843536376953 176.56243896484375 L143.0374755859375 143.071044921875 Z"></path>
<path fill="#f5b955" fill-opacity="1.0"  filling="0" d="M95.8648452758789 153.778076171875 L91.7359390258789 155.590576171875 C89.7125015258789 156.54759216308594 87.53203582763672 157.03118896484375 85.26289367675781 157.03118896484375 C80.49766540527344 157.03118896484375 75.93828582763672 154.76986694335938 73.06836700439453 150.97650146484375 L68.29844665527344 144.7065887451172 C67.79024505615234 144.0351104736328 67.02110290527344 143.63705444335938 66.18048095703125 143.60189819335938 L58.367984771728516 143.203857421875 C57.88868713378906 143.1792449951172 57.41564178466797 143.13665771484375 56.95040512084961 143.071044921875 C50.387516021728516 142.16009521484375 45.17384338378906 137.1597137451172 44.0367431640625 130.492919921875 L42.69260025024414 122.60113525390625 C42.55978775024414 121.7972183227539 42.07619094848633 121.09370422363281 41.3726806640625 120.6604995727539 L34.521507263183594 116.59371185302734 C28.341819763183594 112.93785095214844 25.56018829345703 105.59371185302734 27.76331329345703 98.74254608154297 L30.227760314941406 91.08277893066406 C30.485572814941406 90.30152893066406 30.380104064941406 89.44996643066406 29.9468994140625 88.73434448242188 L25.732452392578125 81.89840698242188 C21.969566345214844 75.7780990600586 22.91565704345703 67.9886474609375 28.0289306640625 62.95310592651367 L33.73127746582031 57.344120025634766 C34.31721496582031 56.75037384033203 34.622291564941406 55.953887939453125 34.56409454345703 55.12849426269531 L33.993385314941406 47.112876892089844 C33.474639892578125 39.929283142089844 37.939476013183594 33.45624542236328 44.84572219848633 31.367568969726562 L52.40040588378906 29.09687042236328 C53.17384719848633 28.875770568847656 53.82228469848633 28.297264099121094 54.153533935546875 27.543739318847656 L57.321109771728516 20.226951599121094 C59.75939178466797 14.621086120605469 65.26641845703125 11.004684448242188 71.35626220703125 11.004684448242188 C72.34961700439453 11.004684448242188 73.34883880615234 11.102340698242188 74.32266998291016 11.300773620605469 L74.78321838378906 11.385932922363281 C80.06446075439453 12.41015625 82.08008575439453 12.797653198242188 82.46289825439453 12.832809448242188 C83.59532165527344 12.828117370605469 83.98594665527344 12.555068969726562 86.119140625 10.737503051757812 C87.18867492675781 9.823432922363281 88.517578125 8.69140625 90.41914367675781 7.276954650878906 C93.13359832763672 5.10546875 96.53633117675781 3.90625 100.00625610351562 3.90625 C103.49726867675781 3.90625 106.912109375 5.11328125 109.619140625 7.304298400878906 L115.71952819824219 12.230079650878906 C116.16522216796875 12.582420349121094 116.73593139648438 12.805076599121094 117.29882049560547 12.843353271484375 C119.962890625 12.3671875 121.84920501708984 12.007034301757812 123.23162841796875 11.741798400878906 C126.02069854736328 11.207420349121094 127.06756591796875 11.007804870605469 128.63475036621094 11.007804870605469 C134.7366943359375 11.007804870605469 140.25115966796875 14.628517150878906 142.6820068359375 20.230072021484375 L145.84178161621094 27.519134521484375 C146.18515014648438 28.29296112060547 146.8140411376953 28.858978271484375 147.61053466796875 29.10155487060547 L155.15740966796875 31.370689392089844 C162.0636444091797 33.45349884033203 166.5284881591797 39.929283142089844 166.0093536376953 47.12068557739258 L165.43865966796875 55.13591766357422 C165.37615966796875 55.95701217651367 165.6769256591797 56.75037384033203 166.25506591796875 57.321075439453125 L171.9788818359375 62.96833801269531 C177.08746337890625 67.99607849121094 178.02886962890625 75.7780990600586 174.2706756591797 81.88629913330078 L170.0531005859375 88.73902893066406 C169.6226348876953 89.44097900390625 169.5206756591797 90.30152893066406 169.77536010742188 91.08277893066406 L172.23980712890625 98.75035095214844 C174.44293212890625 105.59371185302734 171.6613006591797 112.93785095214844 165.47848510742188 116.60151672363281 L158.63787841796875 120.6604995727539 C157.93161010742188 121.08159637451172 157.44332885742188 121.79253387451172 157.31051635742188 122.60581970214844 L155.9632568359375 130.492919921875 C154.82928466796875 137.1597137451172 149.6109161376953 142.16009521484375 143.0374755859375 143.071044921875 C142.56756591796875 143.13665771484375 142.0960693359375 143.1792449951172 141.61521911621094 143.203857421875 L133.80271911621094 143.594482421875 C132.96678161621094 143.6323699951172 132.22341918945312 144.0229949951172 131.70936584472656 144.69915771484375 L126.93475341796875 150.9917449951172 C124.05233764648438 154.77455139160156 119.49295806884766 157.03118896484375 114.73983764648438 157.03118896484375 C112.48632049560547 157.03118896484375 110.30585479736328 156.54290771484375 108.26718139648438 155.57846069335938 L104.11054229736328 153.75814819335938 L100.8804702758789 152.34368896484375 L99.1226577758789 152.34368896484375 L95.8648452758789 153.778076171875 Z"></path>
<path fill="#fff" fill-opacity="1.0"  filling="0" d="M99.99374389648438 29.68749237060547 C72.66524505615234 29.68749237060547 49.2125244140625 51.692169189453125 49.2125244140625 80.46871948242188 C49.2125244140625 108.46870422363281 71.99414825439453 131.2499542236328 99.99374389648438 131.2499542236328 C125.52030181884766 131.2499542236328 148.18865966796875 111.99956512451172 150.61013793945312 84.57496643066406 C150.7202911376953 83.21833038330078 150.7749786376953 81.85114288330078 150.7749786376953 80.46871948242188 C150.7749786376953 52.46873474121094 127.99374389648438 29.68749237060547 99.99374389648438 29.68749237060547 Z"></path>
<path fill="#f5b955" fill-opacity="1.0"  filling="0" d="M127.33749389648438 96.09371948242188 L127.33749389648438 99.99996185302734 L72.65000915527344 99.99996185302734 L72.65000915527344 96.09371948242188 C72.65000915527344 80.99215698242188 84.89219665527344 68.7499771118164 99.99374389648438 68.7499771118164 C107.54374694824219 68.7499771118164 114.37968444824219 71.81246948242188 119.32968139648438 76.75778198242188 C124.27537536621094 81.70777893066406 127.33749389648438 88.54371643066406 127.33749389648438 96.09371948242188 Z"></path>
<path fill="#f5b955" fill-opacity="1.0"  filling="0" d="M99.99374389648438 53.12498092651367 C104.310546875 53.12498092651367 107.80624389648438 56.62068557739258 107.80624389648438 60.93748092651367 C107.80624389648438 65.2542724609375 104.310546875 68.7499771118164 99.99374389648438 68.7499771118164 C95.6773452758789 68.7499771118164 92.1812515258789 65.2542724609375 92.1812515258789 60.93748092651367 C92.1812515258789 56.62068557739258 95.6773452758789 53.12498092651367 99.99374389648438 53.12498092651367 Z"></path>
<path fill="" fill-opacity="1.0"  filling="0" d="M60.93126678466797 53.12498092651367 C63.0875129699707 53.12498092651367 64.83750915527344 51.37498474121094 64.83750915527344 49.21873474121094 C64.83750915527344 47.026153564453125 63.0449333190918 45.31248474121094 60.93126678466797 45.31248474121094 C58.77540588378906 45.31248474121094 57.02501678466797 47.0624885559082 57.02501678466797 49.21873474121094 C57.02501678466797 51.35818862915039 58.758609771728516 53.12498092651367 60.93126678466797 53.12498092651367 Z"></path>
<path fill="" fill-opacity="1.0"  filling="0" d="M68.74375915527344 96.09371948242188 C66.58634185791016 96.09371948242188 64.83750915527344 97.84254455566406 64.83750915527344 99.99996185302734 C64.83750915527344 102.15738677978516 66.58634185791016 103.90621185302734 68.74375915527344 103.90621185302734 L131.24374389648438 103.90621185302734 C133.40155029296875 103.90621185302734 135.14999389648438 102.15738677978516 135.14999389648438 99.99996185302734 C135.14999389648438 97.84254455566406 133.40155029296875 96.09371948242188 131.24374389648438 96.09371948242188 C131.24374389648438 82.34410858154297 122.40155029296875 70.78239440917969 110.2660140991211 66.56950378417969 C111.1878890991211 64.8972396850586 111.71249389648438 62.97771453857422 111.71249389648438 60.93748092651367 C111.71249389648438 54.475372314453125 106.45585632324219 49.21873474121094 99.99374389648438 49.21873474121094 C93.5316390991211 49.21873474121094 88.2750015258789 54.475372314453125 88.2750015258789 60.93748092651367 C88.2750015258789 62.98357391357422 88.80313110351562 64.90779113769531 89.72930145263672 66.58474731445312 C77.52539825439453 70.84060668945312 68.74375915527344 82.45856475830078 68.74375915527344 96.09371948242188 Z M96.0875015258789 60.93748092651367 C96.0875015258789 58.78279113769531 97.8394546508789 57.03123092651367 99.99374389648438 57.03123092651367 C102.1468734741211 57.03123092651367 103.89999389648438 58.78279113769531 103.89999389648438 60.93748092651367 C103.89999389648438 63.092166900634766 102.1468734741211 64.8437271118164 99.99374389648438 64.8437271118164 C97.8394546508789 64.8437271118164 96.0875015258789 63.092166900634766 96.0875015258789 60.93748092651367 Z M99.99374389648438 72.6562271118164 C112.92265319824219 72.6562271118164 123.43124389648438 83.1175537109375 123.43124389648438 96.09371948242188 L76.55625915527344 96.09371948242188 C76.55625915527344 83.17106628417969 87.06953430175781 72.6562271118164 99.99374389648438 72.6562271118164 Z"></path>
<path fill="" fill-opacity="1.0"  filling="0" d="M22.407455444335938 83.94918823242188 L26.358230590820312 90.35621643066406 L24.044944763183594 97.54644775390625 C21.278549194335938 106.14762115478516 24.769561767578125 115.36245727539062 32.527374267578125 119.95386505126953 L38.92658996582031 123.7503433227539 L40.185569763183594 131.149169921875 C41.2750244140625 137.5409698486328 45.399627685546875 142.77337646484375 51.020721435546875 145.3628387451172 L33.517601013183594 174.55422973632812 C31.8238525390625 177.3819580078125 34.19026184082031 180.92181396484375 37.45587921142578 180.42453002929688 L59.094154357910156 177.1300048828125 L67.05782318115234 197.51593017578125 C68.24024963378906 200.54327392578125 72.39219665527344 200.88507080078125 74.05391693115234 198.0909423828125 L98.583984375 156.84799194335938 L99.943359375 156.24993896484375 L100.0625 156.24993896484375 L101.3871078491211 156.83119201660156 L125.69139099121094 198.0772705078125 C127.33905029296875 200.8741455078125 131.50779724121094 200.5538330078125 132.69491577148438 197.51593017578125 L140.66014099121094 177.1300048828125 L162.29685974121094 180.42453002929688 C165.55154418945312 180.92025756835938 167.9230194091797 177.40150451660156 166.24606323242188 174.57102966308594 L148.94412231445312 145.37493896484375 C154.5913848876953 142.7870635986328 158.72653198242188 137.5503387451172 159.81442260742188 131.15072631835938 L161.0777130126953 123.75621032714844 L167.4698944091797 119.96285247802734 C175.23512268066406 115.36245727539062 178.72457885742188 106.14762115478516 175.95974731445312 97.55543518066406 L173.6448974609375 90.35504913330078 L177.59841918945312 83.9339599609375 C182.31637573242188 76.26168823242188 181.13238525390625 66.4960708618164 174.72222900390625 60.189823150634766 L169.37261962890625 54.907012939453125 L169.9066162109375 47.403106689453125 C170.55816650390625 38.375770568847656 164.9581756591797 30.246078491210938 156.2835693359375 27.630462646484375 L149.22772216796875 25.50975799560547 L146.2648162841797 18.676559448242188 C143.2144317626953 11.645309448242188 136.29452514648438 7.1015625 128.63475036621094 7.1015625 C125.98435974121094 7.1015625 124.72850036621094 7.530082702636719 117.69412994384766 8.804298400878906 C113.88710021972656 6.28515625 109.42851257324219 0.0 100.00625610351562 0.0 C91.29180145263672 0.0 86.65469360351562 5.426177978515625 82.28437805175781 8.845703125 C75.21368408203125 7.5636749267578125 74.11485290527344 7.0968780517578125 71.35626220703125 7.0968780517578125 C63.71173095703125 7.0968780517578125 56.796112060546875 11.639450073242188 53.73673629760742 18.67382049560547 L50.77970886230469 25.50507354736328 L43.71330642700195 27.627723693847656 C35.044944763183594 30.250381469726562 29.446510314941406 38.3788948059082 30.098068237304688 47.3890495300293 L30.632057189941406 54.913265228271484 L25.288314819335938 60.16990280151367 C18.87073516845703 66.4886474609375 17.684791564941406 76.26481628417969 22.407455444335938 83.94918823242188 Z M71.42657470703125 187.2268829345703 L65.23282623291016 171.3760986328125 C64.56915283203125 169.67298889160156 62.81134033203125 168.66009521484375 61.00626754760742 168.9346923828125 L44.48712921142578 171.45071411132812 L59.05900192260742 147.14955139160156 L65.49688720703125 147.47767639160156 L69.95235443115234 153.33392333984375 C73.55664825439453 158.09642028808594 79.28009033203125 160.93743896484375 85.26289367675781 160.93743896484375 C85.88711547851562 160.93743896484375 86.50352478027344 160.90383911132812 87.11719512939453 160.84603881835938 L71.42657470703125 187.2268829345703 Z M138.74647521972656 168.93626403808594 C136.93983459472656 168.66127014160156 135.18357849121094 169.67454528808594 134.51991271972656 171.3760986328125 L128.34335327148438 187.18704223632812 L112.81757354736328 160.83822631835938 C113.45233917236328 160.90228271484375 114.09296417236328 160.93899536132812 114.73983764648438 160.93899536132812 C120.70468139648438 160.93899536132812 126.42381286621094 158.10540771484375 130.04763793945312 153.35385131835938 L134.51092529296875 147.46987915039062 L140.91326904296875 147.14955139160156 L155.31912231445312 171.4600830078125 L138.74647521972656 168.93626403808594 Z M30.76799774169922 65.73786926269531 L36.47151184082031 60.128883361816406 C36.48518371582031 60.11521530151367 36.499244689941406 60.10115051269531 36.511348724365234 60.08748245239258 C37.88752365112305 58.69451141357422 38.597286224365234 56.78553009033203 38.45978927612305 54.852325439453125 L37.88908767700195 46.832401275634766 C37.50314712524414 41.48553466796875 40.828147888183594 36.66366195678711 45.96876907348633 35.108970642089844 L53.50783157348633 32.844520568847656 C55.39103317260742 32.293739318847656 56.92736053466797 30.937103271484375 57.739471435546875 29.095306396484375 L60.90392303466797 21.78514862060547 C62.71993637084961 17.60858917236328 66.82266998291016 14.910934448242188 71.35781860351562 14.910934448242188 C73.76876068115234 14.910934448242188 79.91954040527344 16.52069854736328 82.10469818115234 16.722259521484375 C82.22813415527344 16.73436737060547 82.35469818115234 16.74022674560547 82.47695922851562 16.739059448242188 C85.1089859008789 16.72968292236328 86.44258117675781 15.594528198242188 88.65508270263672 13.708587646484375 C93.02383422851562 9.979293823242188 95.7183609008789 7.8125 100.00625610351562 7.8125 C105.99374389648438 7.8125 108.58592987060547 11.996482849121094 113.26600646972656 15.269523620605469 C114.77967834472656 16.480857849121094 116.72225952148438 16.91600799560547 117.98554229736328 16.68866729736328 C125.89100646972656 15.275382995605469 126.80975341796875 14.914054870605469 128.63475036621094 14.914054870605469 C133.18006896972656 14.914054870605469 137.28631591796875 17.611717224121094 139.09764099121094 21.78514862060547 L142.27146911621094 29.106239318847656 C143.07420349121094 30.91131591796875 144.60585021972656 32.27069854736328 146.4859161376953 32.84295654296875 L154.0296630859375 35.112098693847656 C159.17654418945312 36.66210174560547 162.49996948242188 41.48553466796875 162.1124725341797 46.844512939453125 L161.54489135742188 54.84021759033203 C161.39529418945312 56.80076217651367 162.1109161376953 58.71873474121094 163.51168823242188 60.10115051269531 L169.23825073242188 65.75310516357422 C173.0421600341797 69.4960708618164 173.7425537109375 75.2898178100586 170.9456787109375 79.83863830566406 L166.7191162109375 86.70191955566406 C165.69216918945312 88.38199615478516 165.45269775390625 90.41911315917969 166.05545043945312 92.27731323242188 L168.5226287841797 99.94644927978516 C170.16287231445312 105.04605865478516 168.0921630859375 110.51168060302734 163.48434448242188 113.24293518066406 L156.63592529296875 117.30659484863281 C154.9331817626953 118.32261657714844 153.77342224121094 120.024169921875 153.45896911621094 121.9483871459961 L152.1116943359375 129.83706665039062 C151.28787231445312 134.68783569335938 147.52029418945312 138.4077606201172 142.70779418945312 139.16322326660156 C142.5628662109375 139.1753387451172 142.41795349121094 139.19837951660156 142.2730255126953 139.227294921875 C141.99998474121094 139.26087951660156 141.7222442626953 139.2866668701172 141.41990661621094 139.30191040039062 L133.61952209472656 139.6909637451172 C131.63905334472656 139.78431701660156 129.81092834472656 140.7456512451172 128.59646606445312 142.33705139160156 L123.82811737060547 148.623779296875 C121.67967987060547 151.44174194335938 118.28163146972656 153.12493896484375 114.73983764648438 153.12493896484375 C113.064453125 153.12493896484375 111.44882202148438 152.7632293701172 109.93788146972656 152.047607421875 C109.90312194824219 152.0308074951172 109.8695297241211 152.01556396484375 109.83436584472656 152.00033569335938 C102.45195007324219 148.87533569335938 102.28280639648438 148.43743896484375 100.8804702758789 148.43743896484375 L99.1226577758789 148.43743896484375 C97.7066421508789 148.43743896484375 97.349609375 148.96087646484375 90.16563415527344 152.012451171875 C88.65196228027344 152.68392944335938 87.26367950439453 153.12493896484375 85.26289367675781 153.12493896484375 C81.71250915527344 153.12493896484375 78.31875610351562 151.440185546875 76.17656707763672 148.6112823486328 L71.41407775878906 142.352294921875 C70.20431518554688 140.7499542236328 68.35626220703125 139.7827606201172 66.38047790527344 139.70033264160156 C55.367984771728516 139.12338256835938 59.551971435546875 139.3921356201172 57.34571838378906 139.1753387451172 C52.51173782348633 138.4429168701172 48.71837615966797 134.7089385986328 47.88673782348633 129.83706665039062 L46.546897888183594 121.96636962890625 C46.231266021728516 120.05308532714844 45.09299087524414 118.3655776977539 43.421897888183594 117.33550262451172 C43.403541564941406 117.32339477539062 43.38518142700195 117.31246185302734 43.36564254760742 117.30034637451172 L36.509788513183594 113.23238372802734 C31.9078369140625 110.50856018066406 29.84026336669922 105.04293060302734 31.480491638183594 99.93902587890625 L33.9371337890625 92.30660247802734 C34.551979064941406 90.44332885742188 34.3140869140625 88.40309143066406 33.27189636230469 86.68356323242188 L29.05901336669922 79.85231018066406 C26.2574462890625 75.29293823242188 26.95940399169922 69.4870834350586 30.76799774169922 65.73786926269531 Z"></path>
<path fill="" fill-opacity="1.0"  filling="0" d="M99.99374389648438 135.1562042236328 C130.14842224121094 135.1562042236328 154.6812286376953 110.62300872802734 154.6812286376953 80.46871948242188 C154.6812286376953 50.31443405151367 130.14842224121094 25.78124237060547 99.99374389648438 25.78124237060547 C89.181640625 25.78124237060547 78.73399353027344 28.935150146484375 69.78438568115234 34.903106689453125 C67.98868560791016 36.09920883178711 67.50352478027344 38.5238151550293 68.70118713378906 40.319908142089844 C69.89766693115234 42.11404800415039 72.32228088378906 42.59959411621094 74.11798095703125 41.40155029296875 C81.77930450439453 36.29452133178711 90.72891235351562 33.59374237060547 99.99374389648438 33.59374237060547 C125.84062194824219 33.59374237060547 146.86874389648438 54.621856689453125 146.86874389648438 80.46871948242188 C146.86874389648438 106.31558990478516 125.84062194824219 127.34370422363281 99.99374389648438 127.34370422363281 C74.14688110351562 127.34370422363281 53.11876678466797 106.31558990478516 53.11876678466797 80.46871948242188 C53.11876678466797 73.89216613769531 54.629703521728516 67.42379760742188 56.12657928466797 63.92966842651367 C56.97618865966797 61.94607162475586 56.057830810546875 59.64958953857422 54.07579803466797 58.79958724975586 C52.093379974365234 57.949981689453125 49.795719146728516 58.869903564453125 48.94572067260742 60.85193634033203 C46.73478317260742 66.01091766357422 45.3062744140625 73.71208190917969 45.3062744140625 80.46871948242188 C45.3062744140625 110.62300872802734 69.83790588378906 135.1562042236328 99.99374389648438 135.1562042236328 Z"></path></svg>