<svg xmlns="http://www.w3.org/2000/svg" viewBox="0.0 0.0 200.0 200.0" height="200.0px" width="200.0px"><path fill="#798b9b" fill-opacity="1.0"  filling="0" d="M93.75 159.375 L106.25 159.375 L106.25 193.75 L93.75 193.75 L93.75 159.375 Z"></path>
<path fill="#ccdce5" fill-opacity="1.0"  filling="0" d="M15.625 15.625 L184.375 15.625 L184.375 168.75 L15.625 168.75 L15.625 15.625 Z"></path>
<path fill="#0093ba" fill-opacity="1.0"  filling="0" d="M9.375 9.375 L190.625 9.375 L190.625 21.875 L9.375 21.875 L9.375 9.375 Z"></path>
<path fill="#ef5249" fill-opacity="1.0"  filling="0" d="M59.375 43.75 A28.037109375 28.037109375 0.0 0 0 39.48828125 51.98828125 L59.375 71.875 L59.375 43.75 Z"></path>
<path fill="#88bf40" fill-opacity="1.0"  filling="0" d="M59.375 71.875 L39.48828125 51.98828125 A28.125 28.125 0.0 1 0 79.296875 91.7265625 L59.375 71.875 Z"></path>
<path fill="#ffc119" fill-opacity="1.0"  filling="0" d="M71.875 65.625 L91.796875 85.4765625 A28.125 28.125 0.0 0 0 71.875 37.5 L71.875 65.625 Z"></path>
<path fill="#ef5249" fill-opacity="1.0"  filling="0" d="M125.0 125.0 L137.5 125.0 L137.5 153.125 L125.0 153.125 L125.0 125.0 Z"></path>
<path fill="#ffc119" fill-opacity="1.0"  filling="0" d="M137.5 112.5 L150.0 112.5 L150.0 153.125 L137.5 153.125 L137.5 112.5 Z"></path>
<path fill="#88bf40" fill-opacity="1.0"  filling="0" d="M150.0 100.0 L162.5 100.0 L162.5 153.125 L150.0 153.125 L150.0 100.0 Z"></path>
<path fill="" fill-opacity="1.0"  filling="0" d="M190.625 6.25 L9.375 6.25 A3.125 3.125 0.0 0 0 6.25 9.375 L6.25 21.875 A3.125 3.125 0.0 0 0 9.375 25.0 L12.5 25.0 L12.5 168.75 A3.125 3.125 0.0 0 0 15.625 171.875 L90.625 171.875 L90.625 193.75 L96.875 193.75 L96.875 171.875 L103.125 171.875 L103.125 193.75 L109.375 193.75 L109.375 171.875 L184.375 171.875 A3.125 3.125 0.0 0 0 187.5 168.75 L187.5 25.0 L190.625 25.0 A3.125 3.125 0.0 0 0 193.75 21.875 L193.75 9.375 A3.125 3.125 0.0 0 0 190.625 6.25 Z M181.25 165.625 L18.75 165.625 L18.75 25.0 L181.25 25.0 L181.25 165.625 Z M187.5 18.75 L12.5 18.75 L12.5 12.5 L187.5 12.5 L187.5 18.75 Z"></path>
<path fill="" fill-opacity="1.0"  filling="0" d="M34.375 101.2945327758789 L39.609371185302734 96.0601577758789 A31.215625762939453 31.215625762939453 0.0 0 0 81.5093765258789 93.93319702148438 A3.125 3.125 0.0 0 0 81.501953125 89.5132827758789 L62.5 70.57733917236328 L62.5 43.75 A3.125 3.125 0.0 0 0 59.375 40.625 A31.23164176940918 31.23164176940918 0.0 0 0 35.19023895263672 91.640625 L29.040237426757812 97.79023742675781 A3.125 3.125 0.0 0 0 28.125 100.0 L28.125 143.75 L34.375 143.75 L34.375 101.2945327758789 Z M56.25 64.22225952148438 L44.1171875 52.08906555175781 A24.87382698059082 24.87382698059082 0.0 0 1 56.25 47.0703125 L56.25 64.22225952148438 Z M34.375 71.875 A24.869140625 24.869140625 0.0 0 1 39.68515396118164 56.496482849121094 L56.742183685302734 73.5546875 A3.110546827316284 3.110546827316284 0.0 0 0 57.169532775878906 74.09024047851562 L74.74102020263672 91.5999984741211 A24.966014862060547 24.966014862060547 0.0 0 1 44.05781173706055 91.61328125 L52.20976638793945 83.4613265991211 L47.79023361206055 79.04179382324219 L39.638282775878906 87.1937484741211 A24.8671875 24.8671875 0.0 0 1 34.375 71.875 Z"></path>
<path fill="" fill-opacity="1.0"  filling="0" d="M28.125 150.0 L34.375 150.0 L34.375 156.25 L28.125 156.25 L28.125 150.0 Z"></path>
<path fill="" fill-opacity="1.0"  filling="0" d="M89.5914077758789 87.69023132324219 A3.125 3.125 0.0 0 0 94.009765625 87.68281555175781 A31.25 31.25 0.0 0 0 71.875 34.375 A3.125 3.125 0.0 0 0 68.75 37.5 L68.75 65.625 A3.125 3.125 0.0 0 0 69.6695327758789 67.83867645263672 L89.5914077758789 87.69023132324219 Z M75.0 40.8203125 A25.006250381469727 25.006250381469727 0.0 0 1 91.65351104736328 80.921875 L75.0 64.32734680175781 L75.0 40.8203125 Z"></path>
<path fill="" fill-opacity="1.0"  filling="0" d="M50.0 125.0 L56.25 125.0 L56.25 131.25 L50.0 131.25 L50.0 125.0 Z"></path>
<path fill="" fill-opacity="1.0"  filling="0" d="M62.5 125.0 L100.0 125.0 L100.0 131.25 L62.5 131.25 L62.5 125.0 Z"></path>
<path fill="" fill-opacity="1.0"  filling="0" d="M43.75 137.5 L100.0 137.5 L100.0 143.75 L43.75 143.75 L43.75 137.5 Z"></path>
<path fill="" fill-opacity="1.0"  filling="0" d="M43.75 150.0 L93.75 150.0 L93.75 156.25 L43.75 156.25 L43.75 150.0 Z"></path>
<path fill="" fill-opacity="1.0"  filling="0" d="M118.75 37.5 L125.0 37.5 L125.0 43.75 L118.75 43.75 L118.75 37.5 Z"></path>
<path fill="" fill-opacity="1.0"  filling="0" d="M131.25 37.5 L156.25 37.5 L156.25 43.75 L131.25 43.75 L131.25 37.5 Z"></path>
<path fill="" fill-opacity="1.0"  filling="0" d="M112.5 50.0 L156.25 50.0 L156.25 56.25 L112.5 56.25 L112.5 50.0 Z"></path>
<path fill="" fill-opacity="1.0"  filling="0" d="M112.5 62.5 L150.0 62.5 L150.0 68.75 L112.5 68.75 L112.5 62.5 Z"></path>
<path fill="" fill-opacity="1.0"  filling="0" d="M165.625 100.0 A3.125 3.125 0.0 0 0 162.5 96.875 L150.0 96.875 A3.125 3.125 0.0 0 0 146.875 100.0 L146.875 109.375 L137.5 109.375 A3.125 3.125 0.0 0 0 134.375 112.5 L134.375 121.875 L125.0 121.875 A3.125 3.125 0.0 0 0 121.875 125.0 L121.875 150.0 L115.625 150.0 L115.625 156.25 L171.875 156.25 L171.875 150.0 L165.625 150.0 L165.625 100.0 Z M128.125 128.125 L134.375 128.125 L134.375 150.0 L128.125 150.0 L128.125 128.125 Z M140.625 125.0 L140.625 115.625 L146.875 115.625 L146.875 150.0 L140.625 150.0 L140.625 125.0 Z M153.125 150.0 L153.125 103.125 L159.375 103.125 L159.375 150.0 L153.125 150.0 Z"></path>
<path fill="" fill-opacity="1.0"  filling="0" d="M153.125 78.125 L153.125 90.625 L159.375 90.625 L159.375 79.41952514648438 L170.95977783203125 67.83476257324219 A3.125 3.125 0.0 0 0 171.875 65.625 L171.875 46.875 L165.625 46.875 L165.625 64.33047485351562 L154.04022216796875 75.91523742675781 A3.125 3.125 0.0 0 0 153.125 78.125 Z"></path>
<path fill="" fill-opacity="1.0"  filling="0" d="M165.625 34.375 L171.875 34.375 L171.875 40.625 L165.625 40.625 L165.625 34.375 Z"></path></svg>