<svg xmlns="http://www.w3.org/2000/svg" viewBox="0.0 0.0 200.0 200.0" height="200.0px" width="200.0px"><path fill="#FEA832" fill-opacity="1.0"  filling="0" d="M41.015625 0.0 L41.015625 200.0 L158.984375 200.0 L158.984375 0.0 L41.015625 0.0 Z"></path>
<path fill="#FE9923" fill-opacity="1.0"  filling="0" d="M100.390625 0.0 L164.84375 0.0 L164.84375 200.0 L100.390625 200.0 L100.390625 0.0 Z"></path>
<path fill="#994C0F" fill-opacity="1.0"  filling="0" d="M188.28125 0.0 L11.71875 0.0 L10.016403198242188 0.0 C4.483207702636719 0.0 0.0 4.483985900878906 0.0 10.015625 L0.0 188.28125 C0.0 194.7527313232422 5.2472686767578125 200.0 11.71875 200.0 L188.28125 200.0 C194.7527313232422 200.0 200.0 194.7527313232422 200.0 188.28125 L200.0 11.71875 C200.0 5.246482849121094 194.7527313232422 0.0 188.28125 0.0 Z M35.15625 188.28125 L11.71875 188.28125 L11.71875 176.5625 L35.15625 176.5625 L35.15625 188.28125 Z M35.15625 164.84375 L11.71875 164.84375 L11.71875 141.40625 L35.15625 141.40625 L35.15625 164.84375 Z M35.15625 129.6875 L11.71875 129.6875 L11.71875 105.46875 L35.15625 105.46875 L35.15625 129.6875 Z M35.15625 93.75 L11.71875 93.75 L11.71875 70.3125 L35.15625 70.3125 L35.15625 93.75 Z M35.15625 58.59375 L11.71875 58.59375 L11.71875 35.15625 L35.15625 35.15625 L35.15625 58.59375 Z M35.15625 23.4375 L11.71875 23.4375 L11.71875 11.71875 L35.15625 11.71875 L35.15625 23.4375 Z M46.875 12.109375 L153.125 12.109375 L153.125 93.75 L46.875 93.75 L46.875 12.109375 Z M46.875 187.890625 L46.875 105.46875 L153.125 105.46875 L153.125 187.890625 L46.875 187.890625 Z M188.28125 188.28125 L164.84375 188.28125 L164.84375 176.5625 L188.28125 176.5625 L188.28125 188.28125 Z M188.28125 164.84375 L164.84375 164.84375 L164.84375 141.40625 L188.28125 141.40625 L188.28125 164.84375 Z M188.28125 129.6875 L164.84375 129.6875 L164.84375 105.46875 L188.28125 105.46875 L188.28125 129.6875 Z M188.28125 93.75 L164.84375 93.75 L164.84375 70.3125 L188.28125 70.3125 L188.28125 93.75 Z M188.28125 58.59375 L164.84375 58.59375 L164.84375 35.15625 L188.28125 35.15625 L188.28125 58.59375 Z M188.28125 23.4375 L164.84375 23.4375 L164.84375 11.71875 L188.28125 11.71875 L188.28125 23.4375 Z"></path>
<path fill="#713708" fill-opacity="1.0"  filling="0" d="M188.28125 0.0 L100.0 0.0 L100.0 12.109375 L153.125 12.109375 L153.125 93.75 L100.390625 93.75 L100.390625 105.46875 L153.125 105.46875 L153.125 187.890625 L100.0 187.890625 L100.0 200.0 L188.28125 200.0 C194.7527313232422 200.0 200.0 194.7527313232422 200.0 188.28125 L200.0 11.71875 C200.0 5.246482849121094 194.7527313232422 0.0 188.28125 0.0 Z M188.28125 188.28125 L164.84375 188.28125 L164.84375 176.5625 L188.28125 176.5625 L188.28125 188.28125 Z M188.28125 164.84375 L164.84375 164.84375 L164.84375 141.40625 L188.28125 141.40625 L188.28125 164.84375 Z M188.28125 129.6875 L164.84375 129.6875 L164.84375 105.46875 L188.28125 105.46875 L188.28125 129.6875 Z M188.28125 93.75 L164.84375 93.75 L164.84375 70.3125 L188.28125 70.3125 L188.28125 93.75 Z M188.28125 58.59375 L164.84375 58.59375 L164.84375 35.15625 L188.28125 35.15625 L188.28125 58.59375 Z M188.28125 23.4375 L164.84375 23.4375 L164.84375 11.71875 L188.28125 11.71875 L188.28125 23.4375 Z"></path></svg>