<svg xmlns="http://www.w3.org/2000/svg" viewBox="0.0 0.0 200.0 200.0" height="200.0px" width="200.0px"><path fill="#ebe7f2" fill-opacity="1.0"  filling="0" d="M151.06405639648438 127.88202667236328 L48.935935974121094 127.88202667236328 A1.953125 1.953125 0.0 0 1 48.935935974121094 123.97577667236328 L151.06405639648438 123.97577667236328 A1.953125 1.953125 0.0 0 1 151.06405639648438 127.88202667236328 Z"></path>
<path fill="#f9b087" fill-opacity="1.0"  filling="0" d="M81.5335922241211 140.80780029296875 A3.5250000953674316 3.5250000953674316 0.0 0 1 84.4742202758789 139.43594360351562 C86.74530792236328 139.43594360351562 87.94062805175781 140.54530334472656 88.2367172241211 142.92813110351562 A0.78125 0.78125 0.0 0 0 89.01171875 143.61328125 L90.4078140258789 143.61328125 A0.78125 0.78125 0.0 0 0 91.1890640258789 142.75390625 A6.724999904632568 6.724999904632568 0.0 0 0 89.1695327758789 138.328125 A6.647655963897705 6.647655963897705 0.0 0 0 84.47734069824219 136.70079040527344 A6.796875 6.796875 0.0 0 0 80.7515640258789 137.7414093017578 A6.681250095367432 6.681250095367432 0.0 0 0 78.25936889648438 140.68359375 A10.11093807220459 10.11093807220459 0.0 0 0 77.4242172241211 144.8796844482422 L77.4242172241211 147.01171875 A10.01171875 10.01171875 0.0 0 0 78.27188110351562 151.15234375 A6.739062786102295 6.739062786102295 0.0 0 0 80.7242202758789 154.06640625 A6.57421875 6.57421875 0.0 0 0 84.375 155.109375 A6.911718845367432 6.911718845367432 0.0 0 0 89.0726547241211 153.546875 A6.656250476837158 6.656250476837158 0.0 0 0 91.1875 149.0789031982422 A0.78125 0.78125 0.0 0 0 90.40625 148.21328735351562 L89.0101547241211 148.21328735351562 A0.78125 0.78125 0.0 0 0 88.23516082763672 148.8984375 A4.280468940734863 4.280468940734863 0.0 0 1 87.1117172241211 151.5546875 A3.9000000953674316 3.9000000953674316 0.0 0 1 84.375 152.37657165527344 A3.3843748569488525 3.3843748569488525 0.0 0 1 81.51094055175781 150.9929656982422 A6.567187786102295 6.567187786102295 0.0 0 1 80.38203430175781 146.93670654296875 L80.38203430175781 144.93124389648438 A6.521093845367432 6.521093845367432 0.0 0 1 81.5335922241211 140.80780029296875 Z"></path>
<path fill="#f9b087" fill-opacity="1.0"  filling="0" d="M104.39531707763672 145.69375610351562 A15.707813262939453 15.707813262939453 0.0 0 0 100.87030792236328 144.36561584472656 A8.621874809265137 8.621874809265137 0.0 0 1 97.9390640258789 143.11563110351562 A1.6984375715255737 1.6984375715255737 0.0 0 1 97.2359390258789 141.6882781982422 A1.8406249284744263 1.8406249284744263 0.0 0 1 98.03984069824219 140.11875915527344 A4.126562595367432 4.126562595367432 0.0 0 1 100.5640640258789 139.43594360351562 A3.6929688453674316 3.6929688453674316 0.0 0 1 103.1304702758789 140.26016235351562 A2.674999952316284 2.674999952316284 0.0 0 1 104.0171890258789 142.38125610351562 A0.78125 0.78125 0.0 0 0 104.7984390258789 143.16250610351562 L106.19453430175781 143.16250610351562 A0.78125 0.78125 0.0 0 0 106.97578430175781 142.38125610351562 A5.404687881469727 5.404687881469727 0.0 0 0 106.1460952758789 139.45391845703125 A5.572656154632568 5.572656154632568 0.0 0 0 103.82968139648438 137.41171264648438 A7.367968559265137 7.367968559265137 0.0 0 0 100.5640640258789 136.7023468017578 A7.143750190734863 7.143750190734863 0.0 0 0 96.1343765258789 138.03750610351562 A4.564062595367432 4.564062595367432 0.0 0 0 96.2679672241211 145.48126220703125 A12.878124237060547 12.878124237060547 0.0 0 0 100.22969055175781 147.1593780517578 A9.119531631469727 9.119531631469727 0.0 0 1 103.44375610351562 148.51719665527344 A2.038281202316284 2.038281202316284 0.0 0 1 103.2796859741211 151.68124389648438 A4.380468845367432 4.380468845367432 0.0 0 1 100.6656265258789 152.37657165527344 A4.750781059265137 4.750781059265137 0.0 0 1 97.6968765258789 151.53671264648438 A2.5093748569488525 2.5093748569488525 0.0 0 1 96.7046890258789 149.4187469482422 A0.78125 0.78125 0.0 0 0 95.9234390258789 148.6374969482422 L94.5390625 148.6374969482422 A0.78125 0.78125 0.0 0 0 93.7578125 149.4187469482422 A5.259375095367432 5.259375095367432 0.0 0 0 94.6390609741211 152.41015625 A5.647656440734863 5.647656440734863 0.0 0 0 97.17578125 154.42735290527344 A8.822656631469727 8.822656631469727 0.0 0 0 100.66407012939453 155.109375 A7.378125190734863 7.378125190734863 0.0 0 0 105.2171859741211 153.78125 A4.466406345367432 4.466406345367432 0.0 0 0 107.07579040527344 150.04998779296875 A4.65625 4.65625 0.0 0 0 106.37889862060547 147.50233459472656 A5.557812213897705 5.557812213897705 0.0 0 0 104.39531707763672 145.69375610351562 Z"></path>
<path fill="#f9b087" fill-opacity="1.0"  filling="0" d="M121.8828125 147.5 A5.567187309265137 5.567187309265137 0.0 0 0 119.8984375 145.6921844482422 A15.692968368530273 15.692968368530273 0.0 0 0 116.37342834472656 144.3640594482422 A8.62890625 8.62890625 0.0 0 1 113.44218444824219 143.11407470703125 A1.7007813453674316 1.7007813453674316 0.0 0 1 112.73905944824219 141.68670654296875 A1.8406249284744263 1.8406249284744263 0.0 0 1 113.54297637939453 140.1171875 A4.12890625 4.12890625 0.0 0 1 116.0679702758789 139.4343719482422 A3.690624952316284 3.690624952316284 0.0 0 1 118.63359069824219 140.25860595703125 A2.674999952316284 2.674999952316284 0.0 0 1 119.52030944824219 142.3796844482422 A0.78125 0.78125 0.0 0 0 120.30155944824219 143.1609344482422 L121.6976547241211 143.1609344482422 A0.78125 0.78125 0.0 0 0 122.4789047241211 142.3796844482422 A5.41015625 5.41015625 0.0 0 0 121.65000915527344 139.45233154296875 A5.575000286102295 5.575000286102295 0.0 0 0 119.33280944824219 137.41015625 A7.3671875 7.3671875 0.0 0 0 116.0679702758789 136.70079040527344 A7.146093845367432 7.146093845367432 0.0 0 0 111.63749694824219 138.03594970703125 A4.564062595367432 4.564062595367432 0.0 0 0 111.7710952758789 145.4796905517578 A12.890625 12.890625 0.0 0 0 115.7328109741211 147.15780639648438 A9.119531631469727 9.119531631469727 0.0 0 1 118.9468765258789 148.515625 A2.038281202316284 2.038281202316284 0.0 0 1 118.78282165527344 151.6796875 A4.379687309265137 4.379687309265137 0.0 0 1 116.16954040527344 152.375 A4.753125190734863 4.753125190734863 0.0 0 1 113.2007827758789 151.53515625 A2.5093748569488525 2.5093748569488525 0.0 0 1 112.20938110351562 149.4171905517578 A0.78125 0.78125 0.0 0 0 111.42813110351562 148.6359405517578 L110.04296875 148.6359405517578 A0.78125 0.78125 0.0 0 0 109.26171875 149.4171905517578 A5.264843463897705 5.264843463897705 0.0 0 0 110.1429672241211 152.40858459472656 A5.65234375 5.65234375 0.0 0 0 112.6796875 154.42578125 A8.828125 8.828125 0.0 0 0 116.16874694824219 155.10780334472656 A7.379687786102295 7.379687786102295 0.0 0 0 120.72187805175781 153.77969360351562 A4.467968463897705 4.467968463897705 0.0 0 0 122.57968139648438 150.04843139648438 A4.662499904632568 4.662499904632568 0.0 0 0 121.8828125 147.5 Z"></path>
<path fill="#846f75" fill-opacity="1.0"  filling="0" d="M151.06405639648438 29.34687042236328 L82.02265930175781 29.34687042236328 A1.953125 1.953125 0.0 0 0 80.6421890258789 29.919525146484375 L47.554683685302734 63.00625228881836 A1.953125 1.953125 0.0 0 0 46.982810974121094 64.38749694824219 L46.982810974121094 168.70001220703125 A1.953125 1.953125 0.0 0 0 48.935935974121094 170.65313720703125 L151.06405639648438 170.65313720703125 A1.953125 1.953125 0.0 0 0 153.01718139648438 168.70001220703125 L153.01718139648438 31.29999542236328 A1.953125 1.953125 0.0 0 0 151.06405639648438 29.34687042236328 Z M80.06953430175781 36.015625 L80.06953430175781 62.43437576293945 L53.650779724121094 62.43437576293945 L80.06953430175781 36.015625 Z M149.11093139648438 166.74688720703125 L50.889060974121094 166.74688720703125 L50.889060974121094 66.34062194824219 L82.02265930175781 66.34062194824219 A1.953125 1.953125 0.0 0 0 83.97578430175781 64.38749694824219 L83.97578430175781 33.25312042236328 L149.11093139648438 33.25312042236328 L149.11093139648438 166.74688720703125 Z"></path>
<path fill="#846f75" fill-opacity="1.0"  filling="0" d="M82.2359390258789 84.17578125 L82.2359390258789 88.5703125 C82.2359390258789 92.24844360351562 80.3257827758789 92.7203140258789 78.66250610351562 92.7203140258789 A0.859375 0.859375 0.0 0 0 77.8031234741211 93.5796890258789 L77.8031234741211 95.5765609741211 A0.859375 0.859375 0.0 0 0 78.66250610351562 96.43594360351562 C80.3257827758789 96.43594360351562 82.2359390258789 96.91171264648438 82.2359390258789 100.62265014648438 L82.2359390258789 104.86640930175781 A10.225000381469727 10.225000381469727 0.0 0 0 84.0406265258789 111.14453125 A9.970312118530273 9.970312118530273 0.0 0 0 89.34062957763672 114.58202362060547 A0.8820312023162842 0.8820312023162842 0.0 0 0 90.39765930175781 114.0492172241211 L90.95468139648438 112.5132827758789 A0.859375 0.859375 0.0 0 0 90.41719055175781 111.40155792236328 C87.66796875 110.48516082763672 86.31015014648438 108.41094207763672 86.2640609741211 105.0609359741211 L86.2640609741211 100.68047332763672 C86.2640609741211 98.05390930175781 85.4468765258789 96.05781555175781 83.83671569824219 94.7484359741211 L83.63671875 94.58671569824219 L83.83749389648438 94.43047332763672 C85.4476547241211 93.1421890258789 86.2640609741211 91.13125610351562 86.2640609741211 88.45390319824219 L86.2640609741211 84.3648452758789 C86.2640609741211 80.7445297241211 87.5999984741211 78.5570297241211 90.35000610351562 77.67890930175781 A0.859375 0.859375 0.0 0 0 90.90547180175781 76.58515930175781 L90.40625 75.06796264648438 A0.859375 0.859375 0.0 0 0 89.58984375 74.47500610351562 A0.8898438215255737 0.8898438215255737 0.0 0 0 89.33749389648438 74.51249694824219 A9.967968940734863 9.967968940734863 0.0 0 0 84.0374984741211 77.97343444824219 A10.26406192779541 10.26406192779541 0.0 0 0 82.2359390258789 84.17578125 Z"></path>
<path fill="#846f75" fill-opacity="1.0"  filling="0" d="M109.58281707763672 77.69609069824219 C112.33203125 78.61250305175781 113.6898422241211 80.6859359741211 113.73515319824219 84.0367202758789 L113.73515319824219 88.41719055175781 C113.73515319824219 91.04375457763672 114.5523452758789 93.03984832763672 116.16327667236328 94.34843444824219 L116.36250305175781 94.5101547241211 L116.16171264648438 94.67109680175781 C114.55156707763672 95.96015930175781 113.73515319824219 97.9710922241211 113.73515319824219 100.64765167236328 L113.73515319824219 104.73672485351562 C113.73515319824219 108.35704040527344 112.39922332763672 110.54452514648438 109.6507797241211 111.42343139648438 A0.8539062738418579 0.8539062738418579 0.0 0 0 109.14530944824219 111.85234832763672 A0.8695312738418579 0.8695312738418579 0.0 0 0 109.09375 112.51406860351562 L109.59375 114.03125762939453 A0.859375 0.859375 0.0 0 0 110.6617202758789 114.58672332763672 A9.966405868530273 9.966405868530273 0.0 0 0 115.96171569824219 111.1265640258789 A10.268750190734863 10.268750190734863 0.0 0 0 117.76406860351562 104.92735290527344 L117.76406860351562 100.53282165527344 C117.76406860351562 96.85469055175781 119.67344665527344 96.3828125 121.33672332763672 96.3828125 A0.859375 0.859375 0.0 0 0 122.19609069824219 95.5234375 L122.19609069824219 93.52655792236328 A0.859375 0.859375 0.0 0 0 121.33672332763672 92.66718292236328 C119.67344665527344 92.66718292236328 117.76406860351562 92.19062042236328 117.76406860351562 88.47968292236328 L117.76406860351562 84.2367172241211 A10.221874237060547 10.221874237060547 0.0 0 0 115.9585952758789 77.9585952758789 A9.9609375 9.9609375 0.0 0 0 110.65859985351562 74.5210952758789 A0.8843749761581421 0.8843749761581421 0.0 0 0 109.60155487060547 75.05390930175781 L109.04531860351562 76.58984375 A0.859375 0.859375 0.0 0 0 109.58281707763672 77.7015609741211 L109.58281707763672 77.69609069824219 Z"></path></svg>