<svg xmlns="http://www.w3.org/2000/svg" viewBox="0.0 0.0 200.0 200.0" height="200.0px" width="200.0px"><path fill="#00acea" fill-opacity="1.0"  filling="0" d="M181.16116333007812 154.76116943359375 L181.16116333007812 183.03921508789062 L130.54078674316406 183.03921508789062 L130.54078674316406 168.58468627929688 C130.56234741210938 160.54234313964844 126.8690185546875 152.941162109375 120.53294372558594 147.98861694335938 L120.63882446289062 147.85096740722656 C123.81568908691406 136.8321533203125 133.9015655517578 128.61215209960938 146.0431365966797 128.61215209960938 L155.09803771972656 128.61215209960938 C169.5160675048828 128.63528442382812 181.18429565429688 140.34312438964844 181.16116333007812 154.76116943359375 Z"></path>
<path fill="#fedb41" fill-opacity="1.0"  filling="0" d="M170.47802734375 73.61528778076172 C170.47802734375 73.61528778076172 169.9878387451172 71.7568588256836 169.10980224609375 69.47920989990234 C168.2305908203125 67.19960021972656 166.95608520507812 64.50979614257812 165.387451171875 62.847835540771484 C162.0450897216797 59.56509780883789 157.54273986816406 57.73607635498047 152.85842895507812 57.75725555419922 C148.16627502441406 57.69293975830078 143.64744567871094 59.528228759765625 140.32940673828125 62.847835540771484 C137.01136779785156 66.16587829589844 135.1745147705078 70.68470001220703 135.23883056640625 75.37686157226562 C135.22352600097656 70.69999694824219 133.40078735351562 66.21018981933594 130.14862060546875 62.847835540771484 C126.8058853149414 59.56509780883789 122.30392456054688 57.73607635498047 117.6196060180664 57.75725555419922 C112.92745208740234 57.69293975830078 108.40823364257812 59.528228759765625 105.09019470214844 62.847835540771484 C101.77255249023438 66.16587829589844 99.93568420410156 70.68470001220703 100.0 75.37686157226562 C99.98470306396484 70.69999694824219 98.16039276123047 66.21018981933594 94.90980529785156 62.847835540771484 C91.56706237792969 59.56509780883789 87.06510162353516 57.73607635498047 82.3803939819336 57.75725555419922 C77.688232421875 57.69293975830078 73.16941833496094 59.528228759765625 69.85137939453125 62.847835540771484 C66.53334045410156 66.16587829589844 64.69686889648438 70.68470001220703 64.76117706298828 75.37686157226562 C64.74588012695312 70.69999694824219 62.92117691040039 66.21018981933594 59.67059326171875 62.847835540771484 C56.32823944091797 59.56509780883789 51.82588577270508 57.73607635498047 47.141571044921875 57.75725555419922 C42.4647102355957 57.77411651611328 37.97490692138672 59.59725570678711 34.612548828125 62.847835540771484 C31.478439331054688 66.17646789550781 29.52196502685547 73.61528778076172 29.52196502685547 73.61528778076172 C29.52196502685547 34.69215393066406 61.075294494628906 3.1372528076171875 100.0 3.1372528076171875 C138.92469787597656 3.1372528076171875 170.47802734375 34.69215393066406 170.47802734375 73.61528778076172 Z"></path>
<path fill="#00acea" fill-opacity="1.0"  filling="0" d="M168.086669921875 100.21607208251953 L168.086669921875 100.34469604492188 C168.086669921875 110.02587890625 160.27725219726562 117.89371490478516 150.5960693359375 117.96430206298828 L150.34156799316406 117.96430206298828 C140.5454864501953 117.9686279296875 132.60116577148438 110.03057861328125 132.59646606445312 100.23607635498047 L132.59646606445312 100.2082290649414 C132.59803771972656 90.41529083251953 140.53294372558594 82.47685241699219 150.32470703125 82.47097778320312 L150.3494110107422 82.47097778320312 C160.14234924316406 82.47097778320312 168.08197021484375 90.4074478149414 168.086669921875 100.20077514648438 L168.086669921875 100.21607208251953 Z"></path>
<path fill="#00efd1" fill-opacity="1.0"  filling="0" d="M130.54078674316406 183.03921508789062 L130.54078674316406 196.86273193359375 L69.27372741699219 196.86273193359375 L69.27372741699219 168.58468627929688 C69.27098083496094 168.5552978515625 69.27098083496094 168.52627563476562 69.27372741699219 168.49880981445312 C69.29843139648438 154.07920837402344 81.00470733642578 142.41098022460938 95.42274475097656 142.4356689453125 L104.4745101928711 142.4356689453125 C118.89411163330078 142.45567321777344 130.56666564941406 154.16351318359375 130.54078674316406 168.58468627929688 L130.54078674316406 183.03921508789062 Z"></path>
<path fill="#00efd1" fill-opacity="1.0"  filling="0" d="M117.65176391601562 113.85411071777344 L117.65176391601562 113.86351776123047 C117.65019226074219 123.65489959716797 109.71489715576172 131.59451293945312 99.92195892333984 131.59921264648438 L99.90666198730469 131.59921264648438 C90.11019897460938 131.60391235351562 82.16471099853516 123.66744232177734 82.16156768798828 113.8709716796875 L82.16156768798828 113.8466567993164 C82.16156768798828 104.05489349365234 90.09803771972656 96.11528778076172 99.88980102539062 96.10901641845703 L99.91412353515625 96.10901641845703 C109.70587921142578 96.11058044433594 117.64549255371094 104.04705810546875 117.65176391601562 113.83882141113281 L117.65176391601562 113.85411071777344 Z"></path>
<path fill="#00acea" fill-opacity="1.0"  filling="0" d="M79.17294311523438 147.662353515625 L79.36902618408203 147.92117309570312 C73.0054931640625 152.85214233398438 69.27843475341797 160.4474334716797 69.27372741699219 168.49880981445312 C69.27098083496094 168.52627563476562 69.27098083496094 168.5552978515625 69.27372741699219 168.58468627929688 L69.27372741699219 183.03921508789062 L18.838829040527344 183.03921508789062 L18.838829040527344 154.67529296875 C18.86353302001953 140.2572479248047 30.569808959960938 128.5874481201172 44.98784255981445 128.61215209960938 L53.95686340332031 128.61215209960938 C65.6678466796875 128.6337127685547 75.95137023925781 136.40313720703125 79.17294311523438 147.662353515625 Z"></path>
<path fill="#00acea" fill-opacity="1.0"  filling="0" d="M67.21490478515625 100.20077514648438 L67.21490478515625 100.21607208251953 C67.14784240722656 104.94038391113281 65.24823760986328 109.45294189453125 61.91804122924805 112.80313110351562 C58.622745513916016 116.11528015136719 54.141963958740234 117.97175598144531 49.469810485839844 117.96430206298828 C39.675296783447266 117.9686279296875 31.729415893554688 110.03057861328125 31.724708557128906 100.23607635498047 L31.724708557128906 100.2082290649414 C31.72785186767578 90.41529083251953 39.66313552856445 82.47685241699219 49.45451736450195 82.47097778320312 L49.479217529296875 82.47097778320312 C59.27098083496094 82.47097778320312 67.21058654785156 90.4074478149414 67.21490478515625 100.20077514648438 Z"></path>
<path fill="#083863" fill-opacity="1.0"  filling="0" d="M99.88980102539062 92.97176361083984 C88.36078643798828 93.04548645019531 79.05490112304688 102.41254425048828 79.05647277832031 113.94155883789062 C79.05960845947266 125.4701919555664 88.37019348144531 134.83450317382812 99.8988265991211 134.90194702148438 L99.92352294921875 134.90194702148438 C111.42784118652344 134.90194702148438 120.78901672363281 125.4501953125 120.78901672363281 113.92156219482422 C120.77371978759766 102.37725067138672 111.43373107910156 93.01490020751953 99.88980102539062 92.97176361083984 Z M99.92195892333984 128.62744140625 L99.8988265991211 128.62744140625 C91.83528900146484 128.6211700439453 85.30313873291016 122.08194732666016 85.3062744140625 114.01803588867188 C85.30941009521484 105.95606994628906 91.84745025634766 99.4207763671875 99.90980529785156 99.4207763671875 C107.97333526611328 99.4207763671875 114.51136779785156 105.95606994628906 114.5145034790039 114.01803588867188 C114.51764678955078 122.08194732666016 107.98391723632812 128.6211700439453 99.92195892333984 128.62744140625 Z"></path>
<path fill="#083863" fill-opacity="1.0"  filling="0" d="M150.39842224121094 79.3337173461914 C138.84352111816406 79.31529235839844 129.4623565673828 88.66861724853516 129.4439239501953 100.22352600097656 C129.42706298828125 111.77842712402344 138.77920532226562 121.15959930419922 150.3341064453125 121.17646789550781 L150.6188201904297 121.17646789550781 C161.98077392578125 121.17646789550781 171.37254333496094 111.70783996582031 171.37254333496094 100.34469604492188 L171.37254333496094 100.19921112060547 C171.37254333496094 88.69332885742188 161.93019104003906 79.3337173461914 150.39842224121094 79.3337173461914 Z M165.09803771972656 100.34469604492188 C165.09803771972656 108.27528381347656 158.50038146972656 114.9019546508789 150.5960693359375 114.9019546508789 L150.3341064453125 114.9019546508789 C142.27333068847656 114.83293914794922 135.78431701660156 108.2584228515625 135.82273864746094 100.19763946533203 C135.85922241210938 92.13529205322266 142.40823364257812 85.62195587158203 150.4686279296875 85.62666320800781 C158.53097534179688 85.63097381591797 165.07058715820312 92.15372467041016 165.09803771972656 100.21607208251953 L165.09803771972656 100.34469604492188 Z"></path>
<path fill="#083863" fill-opacity="1.0"  filling="0" d="M15.686279296875 154.67529296875 L15.686279296875 183.03921508789062 C15.686279296875 184.79489135742188 17.08470916748047 186.2301788330078 18.838829040527344 186.27450561523438 L66.2745132446289 186.27450561523438 L66.2745132446289 196.86273193359375 C66.24392700195312 197.68077087402344 66.54548645019531 198.47567749023438 67.11097717285156 199.06549072265625 C67.67608642578125 199.6568603515625 68.4556884765625 199.99371337890625 69.27372741699219 199.99998474121094 L130.54078674316406 199.99998474121094 C132.28392028808594 200.00469970703125 133.70391845703125 198.60430908203125 133.72549438476562 196.86273193359375 L133.72549438476562 186.27450561523438 L181.16116333007812 186.27450561523438 C182.915283203125 186.2301788330078 184.313720703125 184.79489135742188 184.313720703125 183.03921508789062 L184.313720703125 154.763916015625 C184.31214904785156 138.61959838867188 171.24234008789062 125.52391052246094 155.09803771972656 125.49018859863281 L146.0431365966797 125.49018859863281 C134.33961486816406 125.540771484375 123.75764465332031 132.45567321777344 119.01176452636719 143.15411376953125 C114.59882354736328 140.58038330078125 109.58352661132812 139.22195434570312 104.4745101928711 139.21568298339844 L95.37216186523438 139.21568298339844 C90.2803955078125 139.21881103515625 85.27882385253906 140.56234741210938 80.87176513671875 143.11410522460938 C76.17646789550781 132.43411254882812 65.6250991821289 125.52391052246094 53.95686340332031 125.49018859863281 L44.943145751953125 125.49018859863281 C28.811370849609375 125.48234558105469 15.718437194824219 138.54156494140625 15.686279296875 154.67529296875 Z M146.0431365966797 131.7646942138672 L155.0933380126953 131.7646942138672 C167.77410888671875 131.79214477539062 178.03921508789062 142.08038330078125 178.03921508789062 154.76116943359375 L178.03921508789062 180.0 L133.72549438476562 180.0 L133.72549438476562 168.5874481201172 C133.74705505371094 160.38311767578125 130.30470275878906 152.54901123046875 124.24470520019531 147.0160675048828 C127.63922119140625 137.89999389648438 136.3144989013672 131.82901000976562 146.0431365966797 131.7646942138672 Z M81.36353302001953 150.3568572998047 C85.35372161865234 147.201171875 90.29098510742188 145.487060546875 95.37843322753906 145.4901885986328 L104.46980285644531 145.4901885986328 C117.18274688720703 145.5470428466797 127.4572525024414 155.8717498779297 127.45098114013672 168.58468627929688 L127.45098114013672 193.72547912597656 L72.54901885986328 193.72547912597656 L72.54901885986328 168.501953125 C72.50901794433594 161.41253662109375 75.76588439941406 154.7074432373047 81.36353302001953 150.3568572998047 Z M44.94941711425781 131.7646942138672 L53.95058822631836 131.7646942138672 C63.64745330810547 131.8074493408203 72.29608154296875 137.87057495117188 75.6435317993164 146.97137451171875 C69.62313842773438 152.46469116210938 66.19804382324219 160.24195861816406 66.20549011230469 168.391357421875 C66.20079040527344 168.490966796875 66.2745132446289 168.5874481201172 66.2745132446289 168.68548583984375 L66.2745132446289 180.0 L21.960792541503906 180.0 L21.960792541503906 154.67999267578125 C21.98980712890625 142.0082244873047 32.278038024902344 131.7541046142578 44.94941711425781 131.7646942138672 Z"></path>
<path fill="#083863" fill-opacity="1.0"  filling="0" d="M49.37177276611328 79.3337173461914 C37.81882858276367 79.35803985595703 28.47138214111328 88.7454833984375 28.495689392089844 100.3003921508789 C28.521568298339844 111.85489654541016 37.90745544433594 121.2007827758789 49.46235656738281 121.17646789550781 L49.469810485839844 121.17646789550781 C54.95725631713867 121.17489624023438 60.21294403076172 118.97215270996094 64.05960845947266 115.05803680419922 C67.98863220214844 111.14273834228516 70.19607543945312 105.82273864746094 70.19607543945312 100.27411651611328 L70.19607543945312 100.19607543945312 C70.21137237548828 88.6827392578125 60.885494232177734 79.339599609375 49.37177276611328 79.3337173461914 Z M59.69804382324219 110.62351989746094 C56.99607849121094 113.35646057128906 53.31333541870117 114.89724731445312 49.469810485839844 114.9019546508789 L49.463924407958984 114.9019546508789 C41.38314437866211 114.91411590576172 34.82078552246094 108.37763977050781 34.80236053466797 100.2956771850586 C34.78392791748047 92.21489715576172 41.31882858276367 85.64783477783203 49.39960861206055 85.62666320800781 C57.480003356933594 85.60352325439453 64.05020141601562 92.13372039794922 64.07765197753906 100.2145004272461 C64.02117919921875 104.11920928955078 62.45098114013672 107.85096740722656 59.69804382324219 110.62351989746094 Z"></path>
<path fill="#083863" fill-opacity="1.0"  filling="0" d="M173.61529541015625 73.61528778076172 C173.61529541015625 32.95960235595703 140.65725708007812 0.0 100.0 0.0 C59.34274673461914 0.0 26.38471221923828 32.95960235595703 26.38471221923828 73.61528778076172 C26.383148193359375 75.19293975830078 27.553726196289062 76.52430725097656 29.117652893066406 76.72784423828125 C30.68157196044922 76.93019104003906 32.15373229980469 75.94038391113281 32.5552978515625 74.41646575927734 C33.0423583984375 72.57489776611328 34.75177001953125 67.34234619140625 36.835296630859375 65.062744140625 C39.607845306396484 62.400390625 43.29804229736328 60.90822982788086 47.141571044921875 60.894508361816406 C50.977256774902344 60.87607192993164 54.66745376586914 62.36195373535156 57.42039489746094 65.03372192382812 C60.10431671142578 67.80784606933594 61.609806060791016 71.51490020751953 61.623924255371094 75.37686157226562 C61.623924255371094 77.10940551757812 63.028629302978516 78.51411437988281 64.76117706298828 78.51411437988281 C66.49372863769531 78.51411437988281 67.8984375 77.10940551757812 67.8984375 75.37686157226562 C67.83529663085938 71.51646423339844 69.34117889404297 67.79568481445312 72.07098388671875 65.06587982177734 C74.80078887939453 62.33607482910156 78.52039337158203 60.83176040649414 82.3803939819336 60.894508361816406 C86.21647644042969 60.87450408935547 89.90666198730469 62.360782623291016 92.65921783447266 65.03372192382812 C95.3431396484375 67.80784606933594 96.8505859375 71.51490020751953 96.86274719238281 75.37686157226562 C96.86274719238281 77.10940551757812 98.26744842529297 78.51411437988281 100.0 78.51411437988281 C101.73255157470703 78.51411437988281 103.13725280761719 77.10940551757812 103.13725280761719 75.37686157226562 C103.07450866699219 71.51646423339844 104.58039093017578 67.79724884033203 107.31019592285156 65.06744384765625 C110.04000091552734 62.337642669677734 113.75921630859375 60.83176040649414 117.6196060180664 60.894508361816406 C121.45529174804688 60.87607192993164 125.14549255371094 62.36195373535156 127.89842224121094 65.03372192382812 C130.58197021484375 67.80784606933594 132.08941650390625 71.51490020751953 132.1015625 75.37686157226562 C132.1015625 77.10940551757812 133.5062713623047 78.51411437988281 135.23883056640625 78.51411437988281 C136.97137451171875 78.51411437988281 138.37608337402344 77.10940551757812 138.37608337402344 75.37686157226562 C138.31332397460938 71.51646423339844 139.8192138671875 67.79568481445312 142.54901123046875 65.06587982177734 C145.27882385253906 62.33607482910156 148.998046875 60.83176040649414 152.85842895507812 60.894508361816406 C156.69412231445312 60.87450408935547 160.38430786132812 62.360782623291016 163.1372528076172 65.03215026855469 C164.11764526367188 66.08627319335938 165.1976318359375 68.06509399414062 166.18429565429688 70.60665893554688 C166.9823455810547 72.67921447753906 167.44195556640625 74.40117645263672 167.44627380371094 74.41646575927734 C167.84783935546875 75.94038391113281 169.31842041015625 76.93019104003906 170.88235473632812 76.72784423828125 C172.44627380371094 76.52430725097656 173.61685180664062 75.19293975830078 173.61685180664062 73.61528778076172 L173.61529541015625 73.61528778076172 Z M152.85842895507812 54.619998931884766 C147.38040161132812 54.62313461303711 142.11843872070312 56.75411605834961 138.17999267578125 60.5607795715332 C138.13412475585938 60.60509490966797 138.08822631835938 60.649410247802734 138.0454864501953 60.69685745239258 C136.98980712890625 61.813720703125 136.04940795898438 63.032936096191406 135.23883056640625 64.3380355834961 C134.42861938476562 63.032936096191406 133.48822021484375 61.813720703125 132.43411254882812 60.69685745239258 C132.41098022460938 60.674110412597656 132.38980102539062 60.649410247802734 132.36509704589844 60.62666702270508 C124.19255065917969 52.64235305786133 111.15058898925781 52.61333084106445 102.94117736816406 60.5607795715332 C102.89529418945312 60.60509490966797 102.84941101074219 60.649410247802734 102.80470275878906 60.69685745239258 C101.7509765625 61.813720703125 100.81019592285156 63.032936096191406 100.0 64.3380355834961 C99.18980407714844 63.032936096191406 98.2490234375 61.813720703125 97.19529724121094 60.69685745239258 C97.17215728759766 60.674110412597656 97.14901733398438 60.649410247802734 97.12627410888672 60.62823486328125 C88.95372772216797 52.64235305786133 75.911376953125 52.61333084106445 67.70236206054688 60.5607795715332 C67.65608215332031 60.60509490966797 67.61019897460938 60.649410247802734 67.56588745117188 60.69685745239258 C66.51176452636719 61.813720703125 65.57137298583984 63.032936096191406 64.76117706298828 64.3380355834961 C63.95058822631836 63.032936096191406 63.01020050048828 61.813720703125 61.95451354980469 60.69685745239258 C61.93333435058594 60.674110412597656 61.91019821166992 60.649410247802734 61.88705825805664 60.62666702270508 C54.35647201538086 53.25685501098633 42.53843307495117 52.58745193481445 34.223533630371094 59.05960464477539 C41.055301666259766 28.224708557128906 68.39019775390625 6.2760772705078125 99.97254943847656 6.262351989746094 C131.55332946777344 6.248626708984375 158.90626525878906 28.175689697265625 165.76431274414062 59.004310607910156 C162.06509399414062 56.15646743774414 157.52745056152344 54.615684509277344 152.85842895507812 54.619998931884766 Z"></path></svg>