<svg xmlns="http://www.w3.org/2000/svg" viewBox="0.0 0.0 200.0 200.0" height="200.0px" width="200.0px"><path fill="#365e7d" fill-opacity="1.0"  filling="0" d="M61.289058685302734 119.73164367675781 C62.77265548706055 118.45819854736328 64.9984359741211 118.63554382324219 66.26054382324219 120.119140625 C67.53398132324219 121.5921859741211 67.35664367675781 123.81757354736328 65.873046875 125.09101867675781 L45.974998474121094 142.12109375 C44.49140930175781 143.38320922851562 42.265625 143.21717834472656 41.00312423706055 141.7335968017578 C39.72969055175781 140.25 39.90703201293945 138.02423095703125 41.390621185302734 136.76211547851562 L61.289058685302734 119.73164367675781 Z"></path>
<path fill="#365e7d" fill-opacity="1.0"  filling="0" d="M133.56210327148438 124.81405639648438 C132.02304077148438 123.49609375 131.83477783203125 121.17109680175781 133.1632843017578 119.62109375 C134.4812469482422 118.07069396972656 136.81719970703125 117.89375305175781 138.35662841796875 119.2113265991211 L159.1847686767578 137.02734375 C160.7238311767578 138.35586547851562 160.912109375 140.68125915527344 159.58358764648438 142.2316436767578 C158.2550811767578 143.7820281982422 155.92929077148438 143.958984375 154.37930297851562 142.6300811767578 L133.56210327148438 124.81405639648438 Z"></path>
<path fill="#365e7d" fill-opacity="1.0"  filling="0" d="M103.73164367675781 163.91250610351562 C103.73164367675781 165.97225952148438 102.05976867675781 167.64413452148438 100.0 167.64413452148438 C97.94023895263672 167.64413452148438 96.26836395263672 165.97225952148438 96.26836395263672 163.91250610351562 L96.26836395263672 124.2828140258789 C96.26836395263672 122.22343444824219 97.94023895263672 120.5511703491211 100.0 120.5511703491211 C102.05937957763672 120.5511703491211 103.73164367675781 122.2230453491211 103.73164367675781 124.2828140258789 L103.73164367675781 163.91250610351562 Z"></path>
<path fill="#477b9e" fill-opacity="1.0"  filling="0" d="M100.0 128.5457000732422 C63.857810974121094 128.5457000732422 34.370704650878906 117.2515640258789 34.370704650878906 103.39961242675781 C34.370704650878906 89.5472640991211 63.857810974121094 78.2421875 100.0 78.2421875 C136.1531219482422 78.2421875 165.62928771972656 89.5472640991211 165.62928771972656 103.39961242675781 C165.62928771972656 117.2515640258789 136.1531219482422 128.5457000732422 100.0 128.5457000732422 Z"></path>
<path fill="#365e7d" fill-opacity="1.0"  filling="0" d="M100.0 78.24179077148438 C136.24179077148438 78.24179077148438 165.62928771972656 89.50273132324219 165.62928771972656 103.39921569824219 C165.62928771972656 108.4371109008789 161.75390625 113.13241577148438 155.087890625 117.0628890991211 C155.4753875732422 116.04414367675781 155.68594360351562 115.0035171508789 155.68594360351562 113.94023895263672 C155.68594360351562 102.15898895263672 130.76092529296875 92.6031265258789 100.0 92.6031265258789 C69.25039672851562 92.6031265258789 44.314064025878906 102.15898895263672 44.314064025878906 113.94023895263672 C44.314064025878906 115.0035171508789 44.52460861206055 116.04414367675781 44.912113189697266 117.0628890991211 C38.24609375 113.13241577148438 34.370704650878906 108.4375 34.370704650878906 103.39961242675781 C34.370704650878906 89.50273132324219 63.758201599121094 78.24179077148438 100.0 78.24179077148438 Z"></path>
<path fill="#a5cdff" fill-opacity="1.0"  filling="0" d="M86.35820007324219 56.816017150878906 L113.6421890258789 56.816017150878906 C125.03594207763672 56.816017150878906 134.35977172851562 66.13945007324219 134.35977172851562 77.533203125 L134.35977172851562 124.82539367675781 C124.36094665527344 127.18399047851562 112.6015625 128.5457000732422 100.00039672851562 128.5457000732422 C87.41015625 128.5457000732422 75.63984680175781 127.18359375 65.6519546508789 124.82539367675781 L65.6519546508789 77.533203125 C65.65155792236328 66.1390609741211 74.96406555175781 56.816017150878906 86.35820007324219 56.816017150878906 Z"></path>
<path fill="#8abfff" fill-opacity="1.0"  filling="0" d="M124.59297180175781 77.533203125 C124.59297180175781 66.1390609741211 115.26953125 56.816017150878906 103.8753890991211 56.816017150878906 L113.64179992675781 56.816017150878906 C125.03594207763672 56.816017150878906 134.359375 66.13945007324219 134.359375 77.533203125 L134.359375 124.82539367675781 C131.2589874267578 125.55586242675781 127.99258422851562 126.1875 124.59297180175781 126.71875 L124.59297180175781 77.533203125 Z"></path>
<path fill="#71aaf0" fill-opacity="1.0"  filling="0" d="M121.00546264648438 127.2281265258789 C119.10078430175781 127.47187805175781 117.15194702148438 127.693359375 115.15898895263672 127.8707046508789 C115.14804077148438 127.77108764648438 115.14804077148438 127.68241882324219 115.14804077148438 127.58280944824219 L115.14804077148438 89.21562194824219 C115.14804077148438 87.59883117675781 116.45468139648438 86.28125 118.08241271972656 86.28125 C119.69882202148438 86.28125 121.00546264648438 87.5992202758789 121.00546264648438 89.21562194824219 L121.00546264648438 127.2281265258789 Z"></path>
<path fill="#71aaf0" fill-opacity="1.0"  filling="0" d="M84.84101104736328 127.87030792236328 C82.8589859008789 127.69297790527344 80.91015625 127.47148132324219 78.9945297241211 127.22773742675781 L78.9945297241211 89.21484375 C78.9945297241211 87.59805297851562 80.3125 86.28047180175781 81.92890930175781 86.28047180175781 C83.54531860351562 86.28047180175781 84.8519515991211 87.59843444824219 84.8519515991211 89.21484375 L84.8519515991211 127.58202362060547 C84.85234069824219 127.6820297241211 84.85234069824219 127.77069854736328 84.84101104736328 127.87030792236328 Z"></path>
<path fill="#ebd2ff" fill-opacity="1.0"  filling="0" d="M100.0 189.37969970703125 C83.30195617675781 189.37969970703125 69.693359375 182.703125 69.693359375 174.51992797851562 C69.693359375 166.326171875 83.30195617675781 159.6492156982422 100.0 159.6492156982422 C116.69805145263672 159.6492156982422 130.31797790527344 166.326171875 130.31797790527344 174.51992797851562 C130.31797790527344 182.70272827148438 116.69805145263672 189.37969970703125 100.0 189.37969970703125 Z"></path>
<path fill="#ccf49f" fill-opacity="1.0"  filling="0" d="M30.317970275878906 165.7394561767578 C13.619926452636719 165.7394561767578 0.0 159.0625 0.0 150.87969970703125 C0.0 142.69686889648438 13.619926452636719 136.01992797851562 30.317970275878906 136.01992797851562 C47.00468826293945 136.01992797851562 60.624610900878906 142.69686889648438 60.624610900878906 150.87969970703125 C60.624610900878906 159.0625 47.00508117675781 165.7394561767578 30.317970275878906 165.7394561767578 Z"></path>
<path fill="#a5cdff" fill-opacity="1.0"  filling="0" d="M169.693359375 165.7394561767578 C152.9949188232422 165.7394561767578 139.37539672851562 159.0625 139.37539672851562 150.87969970703125 C139.37539672851562 142.69686889648438 152.9953155517578 136.01992797851562 169.693359375 136.01992797851562 C186.3914031982422 136.01992797851562 200.0 142.69686889648438 200.0 150.87969970703125 C200.0 159.0625 186.3914031982422 165.7394561767578 169.693359375 165.7394561767578 Z"></path>
<path fill="#ffcbbe" fill-opacity="1.0"  filling="0" d="M118.30351257324219 40.472267150878906 C118.30351257324219 50.53750228881836 110.06562805175781 58.77578353881836 100.0 58.77578353881836 C89.93437194824219 58.77578353881836 81.70742797851562 50.53750228881836 81.70742797851562 40.472267150878906 L81.70742797851562 20.862503051757812 C81.70742797851562 15.2265625 86.31367492675781 10.620315551757812 91.94999694824219 10.620315551757812 L108.06132507324219 10.620315551757812 C113.697265625 10.620315551757812 118.30351257324219 15.2265625 118.30351257324219 20.862503051757812 L118.30351257324219 40.472267150878906 Z"></path>
<path fill="#d09080" fill-opacity="1.0"  filling="0" d="M81.70742797851562 20.862503051757812 C81.70742797851562 15.226173400878906 86.31367492675781 10.620315551757812 91.94999694824219 10.620315551757812 L108.06132507324219 10.620315551757812 C113.697265625 10.620315551757812 118.30351257324219 15.2265625 118.30351257324219 20.862503051757812 L118.30351257324219 30.673049926757812 C118.30351257324219 30.673049926757812 106.58867645263672 34.935935974121094 97.80781555175781 27.240234375 C95.92304992675781 25.595703125 95.59257507324219 25.782814025878906 93.73750305175781 26.832809448242188 L93.6441421508789 26.885940551757812 C91.17460632324219 28.292190551757812 86.8671875 29.908981323242188 81.70742797851562 27.99335479736328 L81.70742797851562 20.862503051757812 Z"></path>
<path fill="#8abfff" fill-opacity="1.0"  filling="0" d="M190.23358154296875 150.87969970703125 C190.23358154296875 143.48281860351562 179.22695922851562 137.3488311767578 164.81015014648438 136.20819091796875 C166.39373779296875 136.0753936767578 168.03240966796875 136.01992797851562 169.693359375 136.01992797851562 C186.435546875 136.01992797851562 200.0 142.67462158203125 200.0 150.87969970703125 C200.0 159.0847625732422 186.435546875 165.7394561767578 169.693359375 165.7394561767578 C168.03240966796875 165.7394561767578 166.39337158203125 165.68399047851562 164.81015014648438 165.55117797851562 C179.2273406982422 164.41055297851562 190.23358154296875 158.27618408203125 190.23358154296875 150.87969970703125 Z"></path>
<path fill="#d7bef0" fill-opacity="1.0"  filling="0" d="M120.55155944824219 174.52032470703125 C120.55155944824219 167.12344360351562 109.53398895263672 160.9890594482422 95.11679077148438 159.8488311767578 C96.7113265991211 159.71600341796875 98.33906555175781 159.6496124267578 100.0 159.6496124267578 C116.7425765991211 159.6496124267578 130.31797790527344 166.30430603027344 130.31797790527344 174.52032470703125 C130.31797790527344 182.72540283203125 116.74217987060547 189.38006591796875 100.0 189.38006591796875 C98.33906555175781 189.38006591796875 96.7113265991211 189.3136749267578 95.11679077148438 189.19180297851562 C109.53398895263672 188.04022216796875 120.55155944824219 181.9167938232422 120.55155944824219 174.52032470703125 Z"></path>
<path fill="#b3e59f" fill-opacity="1.0"  filling="0" d="M50.85820388793945 150.87969970703125 C50.85820388793945 143.48281860351562 39.851558685302734 137.3488311767578 25.435157775878906 136.20819091796875 C27.018753051757812 136.0753936767578 28.646484375 136.01992797851562 30.318359375 136.01992797851562 C47.04960632324219 136.01992797851562 60.625 142.67462158203125 60.625 150.87969970703125 C60.625 159.0847625732422 47.04960632324219 165.7394561767578 30.318359375 165.7394561767578 C28.646095275878906 165.7394561767578 27.018356323242188 165.68399047851562 25.435157775878906 165.55117797851562 C39.851558685302734 164.41055297851562 50.85820388793945 158.27618408203125 50.85820388793945 150.87969970703125 Z"></path>
<path fill="#f7beaf" fill-opacity="1.0"  filling="0" d="M107.96133422851562 40.472267150878906 L107.96133422851562 31.69140625 C113.61992645263672 32.37812805175781 118.30351257324219 30.673049926757812 118.30351257324219 30.673049926757812 L118.30351257324219 40.472267150878906 C118.30351257324219 46.85038757324219 114.99296569824219 52.486331939697266 110.02108764648438 55.764060974121094 C107.130859375 57.668357849121094 103.6871109008789 58.77578353881836 100.0 58.77578353881836 C98.20625305175781 58.77578353881836 96.46757507324219 58.509765625 94.82890319824219 58.02265548706055 C99.6898422241211 56.58320236206055 103.72030639648438 53.16171646118164 105.990234375 48.710548400878906 C107.2417984008789 46.230079650878906 107.96133422851562 43.42890930175781 107.96133422851562 40.472267150878906 Z"></path>
<path fill="#be694f" fill-opacity="1.0"  filling="0" d="M107.96133422851562 20.862503051757812 C107.96133422851562 15.226173400878906 103.34375 10.620315551757812 97.7191390991211 10.620315551757812 L108.06132507324219 10.620315551757812 C113.697265625 10.620315551757812 118.30351257324219 15.2265625 118.30351257324219 20.862503051757812 L118.30351257324219 30.673049926757812 C118.30351257324219 30.673049926757812 113.61992645263672 32.37812805175781 107.96133422851562 31.69140625 L107.96133422851562 20.862503051757812 Z"></path></svg>