<svg xmlns="http://www.w3.org/2000/svg" viewBox="0.0 0.0 200.0 200.0" height="200.0px" width="200.0px"><path fill="#7acdf9" fill-opacity="1.0"  filling="0" d="M39.92656326293945 21.437713623046875 A18.502134323120117 18.502134323120117 0.0 1 1 2.9222946166992188 21.437713623046875 A18.502134323120117 18.502134323120117 0.0 1 1 39.92656326293945 21.437713623046875 Z"></path>
<path fill="#f5e2a2" fill-opacity="1.0"  filling="0" d="M159.38436889648438 156.20425415039062 A23.0162410736084 23.0162410736084 0.0 1 1 113.35189056396484 156.20425415039062 A23.0162410736084 23.0162410736084 0.0 1 1 159.38436889648438 156.20425415039062 Z"></path>
<path fill="#fbf1cf" fill-opacity="1.0"  filling="0" d="M110.78311157226562 28.91864776611328 C139.01190185546875 57.14743423461914 151.22335815429688 68.17840576171875 179.20761108398438 69.32450103759766 L69.31122589111328 179.22048950195312 C68.16512298583984 151.2362518310547 57.134151458740234 139.02479553222656 28.905364990234375 110.79600524902344 C6.295372009277344 88.18601989746094 6.295372009277344 51.528236389160156 28.905364990234375 28.918251037597656 C51.515350341796875 6.30865478515625 88.17312622070312 6.30865478515625 110.78311157226562 28.91864776611328 Z"></path>
<path fill="#f5e2a2" fill-opacity="1.0"  filling="0" d="M50.69424819946289 15.205619812011719 C42.73674774169922 17.98767852783203 35.26519012451172 22.55841827392578 28.905364990234375 28.918251037597656 C6.295372009277344 51.528236389160156 6.295372009277344 88.18601989746094 28.905364990234375 110.79600524902344 C57.134151458740234 139.02479553222656 68.16512298583984 151.2362518310547 69.31122589111328 179.22048950195312 L94.53959655761719 153.99212646484375 C62.57365798950195 123.70159912109375 43.716835021972656 49.90283203125 50.69424819946289 15.205619812011719 Z"></path>
<path fill="#a2ddfd" fill-opacity="1.0"  filling="0" d="M141.54983520507812 141.5631103515625 C120.3335952758789 162.7789306640625 97.7470474243164 181.9498291015625 79.58203125 194.158935546875 C71.71867370605469 199.44412231445312 61.06036376953125 197.3538818359375 55.775543212890625 189.4909210205078 C50.49073028564453 181.62796020507812 52.57942199707031 170.96885681152344 60.44355773925781 165.68443298339844 C76.61012268066406 154.81869506835938 97.86111450195312 136.7318115234375 117.29021453857422 117.3031005859375 C136.71929931640625 97.8740005493164 154.805419921875 76.62340545654297 165.67153930664062 60.456844329833984 C170.95753479003906 52.593875885009766 181.61544799804688 50.50400924682617 189.47842407226562 55.78882598876953 C197.34136962890625 61.07364273071289 199.43124389648438 71.73233795166016 194.14642333984375 79.59530639648438 C181.93653869628906 97.76033020019531 162.7664337158203 120.34649658203125 141.54983520507812 141.5631103515625 Z"></path>
<path fill="#7acdf9" fill-opacity="1.0"  filling="0" d="M113.35189056396484 167.8660888671875 C103.42562103271484 160.8546905517578 98.58728790283203 140.94082641601562 101.48263549804688 132.4524688720703 C86.88444519042969 145.86627197265625 72.29718780517578 157.71755981445312 60.44355773925781 165.684814453125 C52.57942199707031 170.96923828125 50.49073028564453 181.62832641601562 55.775543212890625 189.49130249023438 C61.06036376953125 197.35426330566406 71.71906280517578 199.44451904296875 79.58203125 194.15931701660156 C89.78564453125 187.3006591796875 101.38458251953125 178.24588012695312 113.35189056396484 167.8660888671875 Z"></path>
<path fill="#a2ddfd" fill-opacity="1.0"  filling="0" d="M100.2798843383789 20.594345092773438 C77.95506286621094 6.775459289550781 48.27547073364258 9.548530578613281 28.905364990234375 28.91864776611328 C9.535255432128906 48.288753509521484 6.762176513671875 77.96833801269531 20.58106231689453 100.29315948486328 C33.499542236328125 83.22307586669922 53.624351501464844 82.6125259399414 68.11199951171875 68.12488555908203 C82.59963989257812 53.63724136352539 83.20979309082031 33.51243591308594 100.2798843383789 20.594345092773438 Z"></path>
<path fill="#7acdf9" fill-opacity="1.0"  filling="0" d="M50.69150924682617 15.220466613769531 C42.736351013183594 18.00212860107422 35.264015197753906 22.559982299804688 28.90575408935547 28.918251037597656 C9.535636901855469 48.28836441040039 6.762565612792969 77.96794891357422 20.581451416015625 100.29277801513672 C30.05615234375 87.77312469482422 43.40589141845703 84.10316467285156 55.56616973876953 77.3226318359375 C49.592281341552734 53.735679626464844 47.59733581542969 30.627647399902344 50.69150924682617 15.220466613769531 Z"></path>
<path fill="#e7889d" fill-opacity="1.0"  filling="0" d="M77.5984115600586 109.00302124023438 C81.63478088378906 113.03938293457031 80.79805755615234 120.42070007324219 75.72925567626953 125.48950958251953 C70.66046142578125 130.55831909179688 63.27913284301758 131.39503479003906 59.242374420166016 127.3586654663086 C55.20600891113281 123.32229614257812 56.0427360534668 115.94058227539062 61.111534118652344 110.87178802490234 C66.18032836914062 105.80298614501953 73.56165313720703 104.96626281738281 77.5984115600586 109.00302124023438 Z"></path>
<path fill="#e7889d" fill-opacity="1.0"  filling="0" d="M108.98973083496094 77.6113052368164 C113.0261001586914 81.64767456054688 120.40742492675781 80.81094360351562 125.47662353515625 75.74214172363281 C130.54541015625 70.67334747314453 131.38214111328125 63.29202651977539 127.34577941894531 59.255653381347656 C123.30941009521484 55.21929168701172 115.92769622802734 56.05601501464844 110.85889434814453 61.12481689453125 C105.79010009765625 66.19361877441406 104.953369140625 73.57493591308594 108.98973083496094 77.6113052368164 Z"></path>
<path fill="#4e5660" fill-opacity="1.0"  filling="0" d="M95.077880859375 80.29180145263672 C90.50479125976562 75.71870422363281 86.76217651367188 78.60193634033203 82.6754150390625 82.6886978149414 C78.58865356445312 86.77545928955078 75.70542907714844 90.51807403564453 80.27851867675781 95.0911636352539 C84.85160827636719 99.66425323486328 91.87159729003906 100.05840301513672 95.95835876464844 95.97164154052734 C100.04512023925781 91.8848876953125 99.6509780883789 84.8648910522461 95.077880859375 80.29180145263672 Z"></path>
<path fill="#fbf1cf" fill-opacity="1.0"  filling="0" d="M53.7302131652832 34.97534942626953 C60.0849609375 32.067893981933594 64.275634765625 27.0975341796875 64.275634765625 21.451385498046875 C64.275634765625 18.23181915283203 62.90803527832031 15.233741760253906 60.55918502807617 12.710281372070312 C48.970008850097656 14.582565307617188 37.840606689453125 19.9833984375 28.905364990234375 28.91864776611328 C19.970115661621094 37.853885650634766 14.569282531738281 48.98368453979492 12.696998596191406 60.57286071777344 C15.220466613769531 62.92171096801758 18.218544006347656 64.28929901123047 21.43810272216797 64.28929901123047 C27.084243774414062 64.28929901123047 32.054603576660156 60.0986328125 34.962059020996094 53.74388122558594 C41.320716857910156 55.948204040527344 47.547733306884766 55.320465087890625 51.42745590209961 51.441131591796875 C55.307186126708984 47.56101608276367 55.93492126464844 41.3339958190918 53.7302131652832 34.97534942626953 Z"></path>
<path fill="#f5e2a2" fill-opacity="1.0"  filling="0" d="M50.69150924682617 15.220466613769531 C42.735965728759766 18.00135040283203 35.264015197753906 22.559982299804688 28.90575408935547 28.918251037597656 C19.970504760742188 37.853492736816406 14.569679260253906 48.98329162597656 12.697395324707031 60.57246398925781 C15.220848083496094 62.92131805419922 18.21892547607422 64.28890991210938 21.438491821289062 64.28890991210938 C27.084640502929688 64.28890991210938 32.05500030517578 60.09824752807617 34.96244812011719 53.74349594116211 C40.9273567199707 55.811485290527344 46.776634216308594 55.386871337890625 50.680965423583984 52.12355422973633 C48.81414794921875 37.944122314453125 48.72274398803711 25.023681640625 50.69150924682617 15.220466613769531 Z"></path>
<path fill="" fill-opacity="1.0"  filling="0" d="M191.11163330078125 53.35716247558594 C181.92092895507812 47.18014907836914 169.41806030273438 49.631736755371094 163.2390899658203 58.82244873046875 C162.2711181640625 60.262699127197266 161.24298095703125 61.74552536010742 160.16290283203125 63.26272964477539 C144.80140686035156 58.285335540771484 133.1278533935547 47.1199951171875 112.8546142578125 26.84674072265625 C106.08032989501953 20.072853088378906 98.06697082519531 15.119674682617188 89.03681182861328 12.1251220703125 C87.49967956542969 11.614952087402344 85.84302520751953 12.448173522949219 85.33403778076172 13.983734130859375 C84.82466125488281 15.519683837890625 85.65670013427734 17.177513122558594 87.1926498413086 17.686508178710938 C89.9590835571289 18.60369873046875 92.61731719970703 19.729881286621094 95.16499328613281 21.050209045410156 C80.52462005615234 34.477294921875 79.12694549560547 52.96653366088867 66.04010009765625 66.05298614501953 C52.92200469970703 79.17108154296875 34.479637145996094 80.5171890258789 21.033409118652344 95.18218231201172 C16.178672790527344 85.85201263427734 14.296623229980469 75.63980102539062 15.030616760253906 65.71782684326172 C23.018585205078125 69.59247589111328 31.575706481933594 65.77993774414062 36.46012496948242 57.238059997558594 C50.71377944946289 60.72676467895508 60.716609954833984 50.73291778564453 57.22555923461914 36.472625732421875 C65.90338134765625 31.510467529296875 69.51903533935547 22.913894653320312 65.70845794677734 15.049369812011719 C68.50808715820312 14.838813781738281 71.33975982666016 14.836860656738281 74.18236541748047 15.060691833496094 C75.79331970214844 15.186477661132812 77.20622253417969 13.982948303222656 77.3327865600586 12.369651794433594 C77.4597396850586 10.756744384765625 76.25465393066406 9.345794677734375 74.64173889160156 9.219230651855469 C62.99631881713867 8.302421569824219 51.77589797973633 10.760261535644531 42.077754974365234 15.738044738769531 C37.74138641357422 -0.009765625 17.922439575195312 -5.3695831298828125 6.269981384277344 6.282875061035156 C-5.351226806640625 17.904083251953125 -0.01483917236328125 37.73513412475586 15.700157165527344 42.083614349365234 C4.2422332763671875 64.36039733886719 7.2293701171875 93.26302337646484 26.834251403808594 112.86750793457031 C47.10749053955078 133.1407470703125 58.27283477783203 144.81430053710938 63.25022888183594 160.17617797851562 C61.733028411865234 161.2562713623047 60.25019836425781 162.28439331054688 58.80995178222656 163.25238037109375 C49.596187591552734 169.44384765625 47.151634216308594 181.9107666015625 53.34466552734375 191.12490844726562 C59.512691497802734 200.30078125 72.01164245605469 202.7769775390625 81.21720123291016 196.58981323242188 C91.36299896240234 189.77059936523438 102.86898040771484 180.8037109375 114.7425308227539 170.53448486328125 C125.18013000488281 186.26626586914062 148.2334747314453 185.90573120117188 158.27537536621094 170.11611938476562 C159.14413452148438 168.7508544921875 158.74099731445312 166.93991088867188 157.37574768066406 166.07154846191406 C156.00973510742188 165.20278930664062 154.19915771484375 165.6059112548828 153.3311767578125 166.97116088867188 C145.318603515625 179.5701141357422 126.92350006103516 179.3279266357422 119.20272827148438 166.63209533691406 C128.50399780273438 158.3960723876953 138.12831115722656 149.28114318847656 147.63934326171875 139.57557678222656 C152.8233642578125 143.09515380859375 156.01441955566406 148.76512145996094 156.41285705566406 154.889404296875 C156.5179443359375 156.5011444091797 157.90818786621094 157.72732543945312 159.52694702148438 157.6226348876953 C161.14141845703125 157.51715087890625 162.36526489257812 156.12339782714844 162.2601776123047 154.508544921875 C161.76251220703125 146.8612060546875 157.9116973876953 139.8552703857422 151.7667236328125 135.31851196289062 C169.82705688476562 116.49684143066406 185.85533142089844 97.18219757080078 196.57887268066406 81.22813415527344 C202.76878356933594 72.01671600341797 200.32577514648438 59.54941177368164 191.11163330078125 53.35716247558594 Z M59.39589309692383 15.890388488769531 C64.04515075683594 22.245140075683594 59.911521911621094 28.925682067871094 52.51144790649414 32.311256408691406 C51.138389587402344 32.93938446044922 50.467681884765625 34.508544921875 50.96221923828125 35.93511962890625 C55.01069641113281 47.61140441894531 47.618438720703125 55.03139877319336 35.92144775390625 50.97549819946289 C34.49486541748047 50.48213577270508 32.92571258544922 51.151283264160156 32.297584533691406 52.52473449707031 C28.91082763671875 59.92792892456055 22.2154541015625 64.05609130859375 15.86773681640625 59.40214157104492 C20.046287536621094 37.586307525634766 37.2464599609375 20.171295166015625 59.39589309692383 15.890388488769531 Z M10.412994384765625 10.42626953125 C19.416595458984375 1.42266845703125 34.66986846923828 6.507881164550781 36.76715850830078 18.811508178710938 C29.368255615234375 23.609603881835938 23.312339782714844 29.813568115234375 18.781044006347656 36.777313232421875 C6.411781311035156 34.65424346923828 1.481658935546875 19.35761260986328 10.412994384765625 10.42626953125 Z M30.97686767578125 108.72450256347656 C28.42254638671875 106.17018127441406 26.15259552001953 103.40803527832031 24.178756713867188 100.47754669189453 C36.57379150390625 85.68872833251953 55.72397994995117 84.65629577636719 70.18350219726562 70.19639587402344 C84.60395050048828 55.775936126708984 85.70943450927734 36.558170318603516 100.46426391601562 24.19164276123047 C103.39749908447266 26.165489196777344 106.15338134765625 28.431922912597656 108.71121978759766 30.989761352539062 C128.31297302246094 50.59151077270508 140.7912139892578 62.53498458862305 156.54489135742188 68.21316528320312 C133.95326232910156 98.37283325195312 98.35838317871094 133.96693420410156 68.20027923583984 156.55776977539062 C62.5220947265625 140.80450439453125 50.579010009765625 128.3262481689453 30.97686767578125 108.72450256347656 Z M191.71437072753906 77.96092224121094 C166.5203857421875 115.444091796875 115.71987915039062 166.33990478515625 77.94763946533203 191.7276611328125 C71.43780517578125 196.10308837890625 62.582252502441406 194.36634826660156 58.206817626953125 187.85690307617188 C53.821231842041016 181.33184814453125 55.550540924072266 172.50167846679688 62.07756423950195 168.1160888671875 C96.78376007080078 144.789306640625 144.93072509765625 96.56695556640625 168.10243225097656 62.09162521362305 C172.47824096679688 55.581790924072266 181.33535766601562 53.846229553222656 187.84323120117188 58.220489501953125 C194.36752319335938 62.60490798950195 196.10073852539062 71.43468475341797 191.71437072753906 77.96092224121094 Z M105.83580780029297 63.313507080078125 C106.97956085205078 64.457275390625 108.83466339111328 64.45805358886719 109.97880554199219 63.313507080078125 C111.12335205078125 62.16935348510742 111.12335205078125 60.31465530395508 109.97920227050781 59.170501708984375 L106.23151397705078 55.42280578613281 C105.08735656738281 54.278656005859375 103.23226165771484 54.278656005859375 102.08849334716797 55.42280578613281 C100.94395446777344 56.566959381103516 100.94395446777344 58.42166519165039 102.08810424804688 59.56581497192383 L105.83580780029297 63.313507080078125 Z M98.02986145019531 98.04315185546875 C103.25218200683594 92.8204345703125 102.85726165771484 83.92816162109375 97.14938354492188 78.21990203857422 C90.07549285888672 71.14561462402344 83.67855072021484 77.5429458618164 80.60391235351562 80.61680603027344 C77.5296630859375 83.69104766845703 71.13311767578125 90.0879898071289 78.20701599121094 97.16227722167969 C83.78753662109375 102.74280548095703 92.66692352294922 103.4064712524414 98.02986145019531 98.04315185546875 Z M84.74691772460938 84.76020050048828 C87.55242156982422 81.9547119140625 89.16063690185547 80.88008117675781 90.42705535888672 80.88008117675781 C91.35831451416016 80.88008117675781 92.10480499267578 81.46173095703125 93.00637817382812 82.3629150390625 C96.42984771728516 85.78638458251953 96.82477569580078 90.96183013916016 93.88685607910156 93.89974212646484 C90.82745361328125 96.95993041992188 85.61997985839844 96.28882598876953 82.35041809082031 93.01927185058594 C80.22305297851562 90.89229583740234 79.8785171508789 89.62899780273438 84.74691772460938 84.76020050048828 Z M59.55253601074219 102.10139465332031 C58.40838623046875 100.95684051513672 56.55328369140625 100.95723724365234 55.40952682495117 102.10139465332031 C54.26537322998047 103.24553680419922 54.26537322998047 105.1002426147461 55.40952682495117 106.24478912353516 L59.15721893310547 109.99248504638672 C60.30098342895508 111.13662719726562 62.15607452392578 111.13662719726562 63.300228118896484 109.99248504638672 C64.44438171386719 108.84832763671875 64.44438171386719 106.99362182617188 63.300228118896484 105.84908294677734 L59.55253601074219 102.10139465332031 Z"></path></svg>