<svg xmlns="http://www.w3.org/2000/svg" viewBox="0.0 0.0 200.0 200.0" height="200.0px" width="200.0px"><path fill="#ffca55" fill-opacity="1.0"  filling="0" d="M163.3333282470703 136.66500854492188 L196.66665649414062 136.66500854492188 L196.66665649414062 196.66500854492188 L163.3333282470703 196.66500854492188 L163.3333282470703 136.66500854492188 Z"></path>
<path fill="#ffca55" fill-opacity="1.0"  filling="0" d="M110.0 136.66500854492188 L143.3333282470703 136.66500854492188 L143.3333282470703 196.66500854492188 L110.0 196.66500854492188 L110.0 136.66500854492188 Z"></path>
<path fill="#ed8c4a" fill-opacity="1.0"  filling="0" d="M90.0 196.66500854492188 L56.66666793823242 196.66500854492188 L56.66666793823242 26.665000915527344 L46.66666793823242 26.665000915527344 L73.33333587646484 3.3316726684570312 L100.0 26.665000915527344 L90.0 26.665000915527344 L90.0 196.66500854492188 Z"></path>
<path fill="#64c1e2" fill-opacity="1.0"  filling="0" d="M116.10041046142578 59.43208312988281 C114.33250427246094 57.66458511352539 113.33333587646484 55.26541519165039 113.33333587646484 52.765419006347656 C113.33333587646484 50.164581298828125 114.39958190917969 47.797916412353516 116.10041046142578 46.09874725341797 C117.79957580566406 44.39791488647461 120.16583251953125 43.331668853759766 122.76707458496094 43.331668853759766 C125.26707458496094 43.331668853759766 127.66583251953125 44.33124542236328 129.43374633789062 46.09874725341797 C127.66583251953125 44.33124542236328 126.66666412353516 41.93208312988281 126.66666412353516 39.43208312988281 C126.66666412353516 36.83124542236328 127.73291015625 34.46458435058594 129.43374633789062 32.765419006347656 C131.13291931152344 31.06458282470703 133.49917602539062 29.998336791992188 136.10040283203125 29.998336791992188 C138.60040283203125 29.998336791992188 140.99917602539062 30.99791717529297 142.76707458496094 32.765419006347656 C140.99917602539062 30.99791717529297 140.0 28.59874725341797 140.0 26.09874725341797 C140.0 23.49791717529297 141.06625366210938 21.131248474121094 142.76707458496094 19.432083129882812 C144.46624755859375 17.731246948242188 146.83250427246094 16.665000915527344 149.43374633789062 16.665000915527344 C151.93374633789062 16.665000915527344 154.33250427246094 17.664588928222656 156.10040283203125 19.432083129882812 L196.66665649414062 59.99833679199219 L196.66665649414062 76.66500091552734 L150.0 123.3316650390625 L140.0 113.3316650390625 L123.33332824707031 113.3316650390625 L106.66666412353516 96.66500091552734 L106.66666412353516 76.66500091552734 L76.10041809082031 46.09874725341797 C74.3324966430664 44.33124542236328 73.33333587646484 41.93208312988281 73.33333587646484 39.43208312988281 C73.33333587646484 36.83124542236328 74.39958190917969 34.46458435058594 76.10041809082031 32.765419006347656 C77.7995834350586 31.06458282470703 80.16583251953125 29.998336791992188 82.76708984375 29.998336791992188 C85.26708984375 29.998336791992188 87.66583251953125 30.99791717529297 89.43375396728516 32.765419006347656 L116.10041046142578 59.43208312988281 Z"></path>
<path fill="#ffca55" fill-opacity="1.0"  filling="0" d="M3.3333358764648438 136.66500854492188 L36.66666793823242 136.66500854492188 L36.66666793823242 196.66500854492188 L3.3333358764648438 196.66500854492188 L3.3333358764648438 136.66500854492188 Z"></path>
<path fill="#0d2c33" fill-opacity="1.0"  filling="0" d="M158.45375061035156 17.07208251953125 C156.04000854492188 14.658332824707031 152.8370819091797 13.331672668457031 149.430419921875 13.331672668457031 C142.38916015625 13.331672668457031 136.66665649414062 19.054168701171875 136.66665649414062 26.095420837402344 C136.66665649414062 26.311668395996094 136.7170867919922 26.515419006347656 136.73001098632812 26.72834014892578 C136.51707458496094 26.715423583984375 136.31040954589844 26.665000915527344 136.09707641601562 26.665000915527344 C129.0558319091797 26.665000915527344 123.33332824707031 32.38750457763672 123.33332824707031 39.428749084472656 C123.33332824707031 39.64500427246094 123.38375091552734 39.84874725341797 123.39666748046875 40.06167221069336 C123.18374633789062 40.04875183105469 122.97708129882812 39.99833679199219 122.76374816894531 39.99833679199219 C116.97250366210938 39.99833679199219 112.13041687011719 43.89792251586914 110.57291412353516 49.18791961669922 L93.33333587646484 31.95166778564453 L93.33333587646484 29.998336791992188 L100.0 29.998336791992188 C101.38999938964844 29.998336791992188 102.63333892822266 29.13916778564453 103.12000274658203 27.838333129882812 C103.6066665649414 26.537925720214844 103.24041748046875 25.071670532226562 102.19708251953125 24.15833282470703 L75.53041076660156 0.8249969482421875 C74.274169921875 -0.27500152587890625 72.39749908447266 -0.27500152587890625 71.13916015625 0.8249969482421875 L44.472503662109375 24.15833282470703 C43.42917251586914 25.071670532226562 43.05999755859375 26.537925720214844 43.54999542236328 27.838333129882812 C44.03333282470703 29.13916778564453 45.276668548583984 29.998336791992188 46.66666793823242 29.998336791992188 L53.333335876464844 29.998336791992188 L53.333335876464844 196.66500854492188 C53.333335876464844 198.50416564941406 54.82749938964844 199.99832153320312 56.66666793823242 199.99832153320312 L90.0 199.99832153320312 C91.83916473388672 199.99832153320312 93.33333587646484 198.50416564941406 93.33333587646484 196.66500854492188 L93.33333587646484 68.04541778564453 L103.33333587646484 78.04541778564453 L103.33333587646484 96.66500091552734 C103.33333587646484 97.54875183105469 103.68333435058594 98.3983383178711 104.30999755859375 99.02166748046875 L120.9766616821289 115.68833923339844 C121.5999984741211 116.31500244140625 122.4495849609375 116.66500091552734 123.33332824707031 116.66500091552734 L138.6199951171875 116.66500091552734 L147.64332580566406 125.68833923339844 C148.29251098632812 126.3379135131836 149.14707946777344 126.66500091552734 150.0 126.66500091552734 C150.8529052734375 126.66500091552734 151.70748901367188 126.3379135131836 152.35665893554688 125.68833923339844 L199.02333068847656 79.02166748046875 C199.64999389648438 78.3983383178711 200.0 77.54875183105469 200.0 76.66500091552734 L200.0 59.99833679199219 C200.0 59.114585876464844 199.64999389648438 58.26499938964844 199.02333068847656 57.641666412353516 L158.45375061035156 17.07208251953125 Z M86.66666412353516 193.3316650390625 L60.0 193.3316650390625 L60.0 26.665000915527344 C60.0 24.824172973632812 58.505836486816406 23.33167266845703 56.66666793823242 23.33167266845703 L55.5404167175293 23.33167266845703 L73.33333587646484 7.7620849609375 L91.12625122070312 23.33167266845703 L90.0 23.33167266845703 C88.16083526611328 23.33167266845703 86.66666412353516 24.824172973632812 86.66666412353516 26.665000915527344 L86.66666412353516 27.332496643066406 C85.41666412353516 26.928749084472656 84.1129150390625 26.665000915527344 82.76374816894531 26.665000915527344 C75.72249603271484 26.665000915527344 70.0 32.38750457763672 70.0 39.428749084472656 C70.0 42.83541488647461 71.32666778564453 46.04166793823242 73.74041748046875 48.45208740234375 L86.66666412353516 61.378753662109375 L86.66666412353516 193.3316650390625 Z M193.3333282470703 75.28500366210938 L150.0 118.61833190917969 L142.35665893554688 110.9749984741211 C141.73333740234375 110.34833526611328 140.88375854492188 109.99833679199219 140.0 109.99833679199219 L124.71333312988281 109.99833679199219 L110.0 95.28500366210938 L110.0 84.71208190917969 L114.30999755859375 89.02166748046875 L119.02333068847656 84.30833435058594 L78.45375061035156 43.738746643066406 C77.30000305175781 42.58458709716797 76.66667175292969 41.054588317871094 76.66667175292969 39.428749084472656 C76.66667175292969 36.06458282470703 79.39958190917969 33.33167266845703 82.76374816894531 33.33167266845703 C84.38958740234375 33.33167266845703 85.91958618164062 33.964996337890625 87.0737533569336 35.118751525878906 L127.64332580566406 75.6883316040039 L132.35665893554688 70.9749984741211 L118.45375061035156 57.072086334228516 C117.29999542236328 55.91791915893555 116.66666412353516 54.38792037963867 116.66666412353516 52.7620849609375 C116.66666412353516 49.397918701171875 119.39958190917969 46.665000915527344 122.76374816894531 46.665000915527344 C124.38958740234375 46.665000915527344 125.91958618164062 47.29833221435547 127.07374572753906 48.45208740234375 L140.97665405273438 62.35499954223633 L145.69000244140625 57.641666412353516 L131.78707885742188 43.738746643066406 C130.63333129882812 42.58458709716797 130.0 41.054588317871094 130.0 39.428749084472656 C130.0 36.06458282470703 132.73291015625 33.33167266845703 136.09707641601562 33.33167266845703 C137.72291564941406 33.33167266845703 139.25291442871094 33.964996337890625 140.40707397460938 35.118751525878906 L154.30999755859375 49.02166748046875 L159.02333068847656 44.30833435058594 L145.12042236328125 30.405418395996094 C143.96665954589844 29.251251220703125 143.3333282470703 27.72125244140625 143.3333282470703 26.095420837402344 C143.3333282470703 22.731246948242188 146.06625366210938 19.998336791992188 149.430419921875 19.998336791992188 C151.05624389648438 19.998336791992188 152.58624267578125 20.631668090820312 153.74041748046875 21.785423278808594 L193.3333282470703 61.378753662109375 L193.3333282470703 75.28500366210938 Z"></path>
<path fill="#0d2c33" fill-opacity="1.0"  filling="0" d="M3.3333358764648438 199.99832153320312 L36.66666793823242 199.99832153320312 C38.505836486816406 199.99832153320312 40.0 198.50416564941406 40.0 196.66500854492188 L40.0 136.66500854492188 C40.0 134.82415771484375 38.505836486816406 133.3316650390625 36.66666793823242 133.3316650390625 L3.3333358764648438 133.3316650390625 C1.494171142578125 133.3316650390625 0.0 134.82415771484375 0.0 136.66500854492188 L0.0 196.66500854492188 C0.0 198.50416564941406 1.494171142578125 199.99832153320312 3.3333358764648438 199.99832153320312 Z M6.6666717529296875 139.9983367919922 L33.333335876464844 139.9983367919922 L33.333335876464844 193.3316650390625 L6.6666717529296875 193.3316650390625 L6.6666717529296875 139.9983367919922 Z"></path>
<path fill="#0d2c33" fill-opacity="1.0"  filling="0" d="M143.3333282470703 199.99832153320312 C145.17250061035156 199.99832153320312 146.66665649414062 198.50416564941406 146.66665649414062 196.66500854492188 L146.66665649414062 136.66500854492188 C146.66665649414062 134.82415771484375 145.17250061035156 133.3316650390625 143.3333282470703 133.3316650390625 L110.0 133.3316650390625 C108.16083526611328 133.3316650390625 106.66666412353516 134.82415771484375 106.66666412353516 136.66500854492188 L106.66666412353516 196.66500854492188 C106.66666412353516 198.50416564941406 108.16083526611328 199.99832153320312 110.0 199.99832153320312 L143.3333282470703 199.99832153320312 Z M113.33333587646484 139.9983367919922 L140.0 139.9983367919922 L140.0 193.3316650390625 L113.33333587646484 193.3316650390625 L113.33333587646484 139.9983367919922 Z"></path>
<path fill="#0d2c33" fill-opacity="1.0"  filling="0" d="M196.66665649414062 133.3316650390625 L163.3333282470703 133.3316650390625 C161.49417114257812 133.3316650390625 160.0 134.82415771484375 160.0 136.66500854492188 L160.0 196.66500854492188 C160.0 198.50416564941406 161.49417114257812 199.99832153320312 163.3333282470703 199.99832153320312 L196.66665649414062 199.99832153320312 C198.50582885742188 199.99832153320312 200.0 198.50416564941406 200.0 196.66500854492188 L200.0 136.66500854492188 C200.0 134.82415771484375 198.50582885742188 133.3316650390625 196.66665649414062 133.3316650390625 Z M193.3333282470703 193.3316650390625 L166.66665649414062 193.3316650390625 L166.66665649414062 139.9983367919922 L193.3333282470703 139.9983367919922 L193.3333282470703 193.3316650390625 Z"></path>
<path fill="#0d2c33" fill-opacity="1.0"  filling="0" d="M40.0 39.99833679199219 L46.66666793823242 39.99833679199219 L46.66666793823242 76.66500091552734 L40.0 76.66500091552734 L40.0 39.99833679199219 Z"></path>
<path fill="#0d2c33" fill-opacity="1.0"  filling="0" d="M40.0 83.3316650390625 L46.66666793823242 83.3316650390625 L46.66666793823242 89.99833679199219 L40.0 89.99833679199219 L40.0 83.3316650390625 Z"></path>
<path fill="#0d2c33" fill-opacity="1.0"  filling="0" d="M23.333335876464844 53.331668853759766 L30.0 53.331668853759766 L30.0 89.99833679199219 L23.333335876464844 89.99833679199219 L23.333335876464844 53.331668853759766 Z"></path>
<path fill="#0d2c33" fill-opacity="1.0"  filling="0" d="M23.333335876464844 96.66500091552734 L30.0 96.66500091552734 L30.0 103.3316650390625 L23.333335876464844 103.3316650390625 L23.333335876464844 96.66500091552734 Z"></path></svg>