<svg xmlns="http://www.w3.org/2000/svg" viewBox="0.0 0.0 200.0 200.0" height="200.0px" width="200.0px"><path fill="#22d7ff" fill-opacity="1.0"  filling="0" d="M200.0 100.0 C200.0 122.671875 192.453125 143.58203125 179.734375 160.35546875 L177.70703125 161.36328125 C128.76171875 185.69921875 71.2421875 185.6953125 22.30078125 161.34765625 L20.2421875 160.32421875 C7.5390625 143.5546875 0.0 122.65625 0.0 100.0 C0.0 81.9453125 4.78515625 65.01171875 13.15625 50.390625 C30.390625 20.28515625 62.828125 0.0 100.0 0.0 C137.171875 0.0 169.609375 20.28515625 186.84375 50.390625 C195.21484375 65.01171875 200.0 81.9453125 200.0 100.0 Z"></path>
<path fill="#00b3ff" fill-opacity="1.0"  filling="0" d="M200.0 100.0 C200.0 122.671875 192.453125 143.58203125 179.734375 160.35546875 L177.70703125 161.36328125 C128.76171875 185.69921875 71.2421875 185.6953125 22.30078125 161.34765625 L20.2421875 160.32421875 C7.5390625 143.5546875 0.0 122.65625 0.0 100.0 C0.0 81.9453125 4.78515625 65.01171875 13.15625 50.390625 C27.2109375 74.94140625 51.37890625 92.96484375 79.98046875 98.7734375 C86.44140625 100.08985137939453 93.125 100.77734375 99.97265625 100.78125 L100.0 100.78125 C106.84374237060547 100.78125 113.5234375 100.09375 119.98046875 98.78125 C148.59765625 92.98046875 172.78125 74.953125 186.84375 50.390625 C195.21484375 65.01171875 200.0 81.9453125 200.0 100.0 Z"></path>
<path fill="#ffa87a" fill-opacity="1.0"  filling="0" d="M61.3046875 131.18359375 L55.03125 189.33984375 C41.328125 182.4296875 29.4296875 172.45703125 20.2421875 160.32421875 C22.41796875 154.0859375 25.98046875 148.49609375 30.5546875 143.921875 C38.421875 136.05078125 49.296875 131.18359375 61.3046875 131.18359375 Z"></path>
<path fill="#e3835a" fill-opacity="1.0"  filling="0" d="M179.734375 160.35546875 C170.54296875 172.484375 158.64453125 182.453125 144.9375 189.35546875 L138.66015625 131.18359375 C157.6640625 131.18359375 173.81640625 143.37109375 179.734375 160.35546875 Z"></path>
<path fill="#e3835a" fill-opacity="1.0"  filling="0" d="M146.17733764648438 65.88827514648438 C151.859375 65.88827514648438 156.4656219482422 70.49453735351562 156.4656219482422 76.17655944824219 C156.4656219482422 86.5257797241211 148.07577514648438 94.91561889648438 137.7265625 94.91561889648438 L137.7265625 65.86601257324219 L146.17733764648438 65.88827514648438 Z"></path>
<path fill="#ffa87a" fill-opacity="1.0"  filling="0" d="M53.783203125 65.88827514648438 C48.101173400878906 65.88827514648438 43.49492263793945 70.49453735351562 43.49492263793945 76.17655944824219 C43.49492263793945 86.5257797241211 51.884765625 94.91561889648438 62.233985900878906 94.91561889648438 L62.233985900878906 65.86601257324219 L53.783203125 65.88827514648438 Z"></path>
<path fill="#e3835a" fill-opacity="1.0"  filling="0" d="M79.98046875 88.51875305175781 L79.98046875 133.9699249267578 C79.98046875 145.0128936767578 88.9332046508789 153.97030639648438 99.9808578491211 153.97030639648438 C111.02383422851562 153.97030639648438 119.98125457763672 145.0124969482422 119.98125457763672 133.9699249267578 L119.98125457763672 88.51875305175781 L79.98046875 88.51875305175781 Z"></path>
<path fill="#ffa87a" fill-opacity="1.0"  filling="0" d="M79.98046875 88.51875305175781 L79.98046875 133.9699249267578 C79.98046875 145.0128936767578 88.9332046508789 153.97030639648438 99.9808578491211 153.97030639648438 L99.9808578491211 88.51875305175781 L79.98046875 88.51875305175781 Z"></path>
<path fill="#ffc0a4" fill-opacity="1.0"  filling="0" d="M153.80859375 146.328125 L153.80859375 184.30078125 C150.9453125 186.1328125 147.98828125 187.8203125 144.9375 189.35546875 C131.42578125 196.1640625 116.16015625 200.0 100.0 200.0 L99.97265625 200.0 C83.8125 199.99609375 68.54296875 196.15625 55.03125 189.33984375 C51.980472564697266 187.80078125 49.015628814697266 186.109375 46.15625 184.27734375 L46.15625 146.328125 C46.15625 137.96484375 52.9375 131.18359375 61.300777435302734 131.18359375 L79.98046875 131.18359375 L79.98046875 88.51953125 L119.98046875 88.51953125 L119.98046875 131.18359375 L138.6640625 131.18359375 C147.02734375 131.18359375 153.80859375 137.96484375 153.80859375 146.328125 Z"></path>
<path fill="#ffa87a" fill-opacity="1.0"  filling="0" d="M153.80859375 146.328125 L153.80859375 184.30078125 C150.9453125 186.1328125 147.98828125 187.8203125 144.9375 189.35546875 C131.42578125 196.1640625 116.16015625 200.0 100.0 200.0 L99.97265625 200.0 L99.97265625 88.51953125 L119.98046875 88.51953125 L119.98046875 131.18359375 L138.6640625 131.18359375 C147.02734375 131.18359375 153.80859375 137.96484375 153.80859375 146.328125 Z"></path>
<path fill="#ffa87a" fill-opacity="1.0"  filling="0" d="M79.98007202148438 88.52030944824219 L99.9742202758789 88.52030944824219 L99.9742202758789 131.1843719482422 L79.98007202148438 131.1843719482422 L79.98007202148438 88.52030944824219 Z"></path>
<path fill="#e3835a" fill-opacity="1.0"  filling="0" d="M99.9742202758789 88.52030944824219 L119.97929382324219 88.52030944824219 L119.97929382324219 131.1843719482422 L99.9742202758789 131.1843719482422 L99.9742202758789 88.52030944824219 Z"></path>
<path fill="#ffc0a4" fill-opacity="1.0"  filling="0" d="M59.76640701293945 67.8203125 L59.76640701293945 82.98125457763672 C59.76640701293945 105.18241882324219 77.76406860351562 123.1917953491211 99.9730453491211 123.19570922851562 L99.9808578491211 123.19570922851562 C122.18203735351562 123.19570922851562 140.19140625 105.18633270263672 140.19140625 82.98125457763672 L140.19140625 67.8203125 C140.19140625 65.53593444824219 140.0046844482422 63.294921875 139.62734985351562 61.11796951293945 C137.0050811767578 45.45234298706055 125.31680297851562 32.86210632324219 110.14765930175781 28.901168823242188 C106.90156555175781 28.058982849121094 103.48906707763672 27.61016082763672 99.9808578491211 27.61016082763672 C99.9769515991211 27.61016082763672 99.9769515991211 27.61016082763672 99.9730453491211 27.61016082763672 C96.45703125 27.61016082763672 93.04804992675781 28.058982849121094 89.8023452758789 28.90937042236328 C74.63359069824219 32.86249542236328 62.95703125 45.452735900878906 60.33086013793945 61.11835861206055 C59.957035064697266 63.295310974121094 59.76640701293945 65.53593444824219 59.76640701293945 67.8203125 Z"></path>
<path fill="#ffa87a" fill-opacity="1.0"  filling="0" d="M140.1796875 67.8203125 L140.1796875 82.98125457763672 C140.1796875 105.18241882324219 122.18203735351562 123.1917953491211 99.9730453491211 123.19570922851562 L99.9730453491211 27.609764099121094 C103.48906707763672 27.609764099121094 106.8980484008789 28.05859375 110.14374542236328 28.90898895263672 C125.3125 32.86210632324219 136.9890594482422 45.45234298706055 139.615234375 61.11796951293945 C139.98867797851562 63.295310974121094 140.1796875 65.53593444824219 140.1796875 67.8203125 Z"></path>
<path fill="#464f6e" fill-opacity="1.0"  filling="0" d="M140.109375 49.907814025878906 L140.109375 67.13749694824219 L138.76132202148438 66.09297180175781 C135.0207061767578 63.199214935302734 132.83554077148438 58.736331939697266 132.83554077148438 54.01132583618164 L132.83554077148438 53.689456939697266 C127.77031707763672 53.689456939697266 123.67070007324219 49.58554458618164 123.67070007324219 44.52460861206055 L123.67070007324219 43.65507888793945 C117.37694549560547 49.94413757324219 108.888671875 53.537498474121094 100.0 53.68476486206055 C99.81132507324219 53.689456939697266 99.6273422241211 53.689456939697266 99.43867492675781 53.689456939697266 L67.71211242675781 53.689456939697266 C67.71211242675781 58.59843444824219 65.3519515991211 63.20820617675781 61.37226867675781 66.07929992675781 L59.90937423706055 67.13749694824219 L59.90937423706055 59.06757736206055 C59.90937423706055 38.86562728881836 76.28788757324219 22.487106323242188 96.4898452758789 22.487106323242188 L118.44452667236328 22.487106323242188 C121.32929992675781 22.487106323242188 123.67108917236328 24.828903198242188 123.67108917236328 27.713668823242188 L123.67108917236328 33.46484375 C132.748046875 33.46484375 140.109375 40.826171875 140.109375 49.907814025878906 Z"></path>
<path fill="#303c5a" fill-opacity="1.0"  filling="0" d="M140.109375 49.907814025878906 L140.109375 67.13749694824219 L138.76132202148438 66.09297180175781 C135.0207061767578 63.199214935302734 132.83554077148438 58.736331939697266 132.83554077148438 54.01132583618164 L132.83554077148438 53.689456939697266 C127.77031707763672 53.689456939697266 123.67070007324219 49.58554458618164 123.67070007324219 44.52460861206055 L123.67070007324219 43.65507888793945 C117.37694549560547 49.94413757324219 108.888671875 53.537498474121094 100.0 53.68476486206055 L100.0 22.48749542236328 L118.44452667236328 22.48749542236328 C121.32929992675781 22.48749542236328 123.67108917236328 24.829299926757812 123.67108917236328 27.714065551757812 L123.67108917236328 33.46484375 C132.748046875 33.46484375 140.109375 40.826171875 140.109375 49.907814025878906 Z"></path>
<path fill="#fc5b5b" fill-opacity="1.0"  filling="0" d="M116.15234375 61.996097564697266 L83.8046875 61.996097564697266 C76.04296875 61.996097564697266 71.9609375 52.77734375 77.1875 47.0390625 C81.125 42.71875 86.2890625 39.511714935302734 92.17578125 37.9765625 C94.69140625 37.320316314697266 97.3125 36.984371185302734 99.97265625 36.984371185302734 L99.98046875 36.984371185302734 C102.6328125 36.984371185302734 105.2578125 37.320316314697266 107.78125762939453 37.972652435302734 C113.66796875 39.5078125 118.83203125 42.714847564697266 122.76953125 47.0390625 C127.99610137939453 52.77734375 123.9140625 61.996097564697266 116.15234375 61.996097564697266 Z"></path>
<path fill="#ff3d3b" fill-opacity="1.0"  filling="0" d="M116.15234375 61.996097564697266 L99.97265625 61.996097564697266 L99.97265625 36.984371185302734 L99.98046875 36.984371185302734 C102.6328125 36.984371185302734 105.2578125 37.320316314697266 107.78125762939453 37.972652435302734 C113.66796875 39.5078125 118.83203125 42.714847564697266 122.76953125 47.0390625 C127.99610137939453 52.77734375 123.9140625 61.996097564697266 116.15234375 61.996097564697266 Z"></path>
<path fill="#fe3244" fill-opacity="1.0"  filling="0" d="M46.41679382324219 21.161331176757812 L57.187496185302734 28.087493896484375 C58.79218673706055 29.119529724121094 58.90742111206055 31.42304229736328 57.413673400878906 32.61015319824219 L51.68281173706055 37.16328048706055 L59.29999923706055 42.61406707763672 C60.22773361206055 43.27812194824219 59.52265930175781 44.73124694824219 58.42695236206055 44.41328048706055 L45.174217224121094 40.567970275878906 C43.00273513793945 39.937889099121094 42.447654724121094 37.11992645263672 44.21796798706055 35.713279724121094 L48.43085861206055 32.36601257324219 L39.156246185302734 28.775390625 C37.898826599121094 28.288673400878906 37.64531707763672 26.620704650878906 38.700782775878906 25.782028198242188 L44.388282775878906 21.263275146484375 C44.97265625 20.79804229736328 45.78866958618164 20.757423400878906 46.41679382324219 21.161331176757812 Z"></path>
<path fill="#fe3244" fill-opacity="1.0"  filling="0" d="M24.435157775878906 66.21133422851562 L39.22148513793945 69.4234390258789 C41.42460632324219 69.9019546508789 43.44570541381836 68.07344055175781 43.18906021118164 65.83358764648438 L42.205078125 57.24101638793945 L53.12382507324219 59.05117416381836 C54.45390319824219 59.271484375 55.07890701293945 57.468360900878906 53.89765548706055 56.818359375 L39.611328125 48.95781326293945 C37.27070236206055 47.669921875 34.45195007324219 49.56093978881836 34.755859375 52.21523666381836 L35.47929382324219 58.53202819824219 L24.72930145263672 53.782814025878906 C23.271873474121094 53.139060974121094 21.666404724121094 54.32070541381836 21.84765625 55.90351867675781 L22.82421875 64.4312515258789 C22.925003051757812 65.30819702148438 23.572662353515625 66.02421569824219 24.435157775878906 66.21133422851562 Z"></path>
<path fill="#bc0e5c" fill-opacity="1.0"  filling="0" d="M153.5832061767578 21.161331176757812 L142.8125 28.087493896484375 C141.2078094482422 29.119529724121094 141.0925750732422 31.42304229736328 142.58633422851562 32.61015319824219 L148.3171844482422 37.16328048706055 L140.6999969482422 42.61406707763672 C139.7722625732422 43.27812194824219 140.47735595703125 44.73124694824219 141.5730438232422 44.41328048706055 L154.82577514648438 40.567970275878906 C156.9972686767578 39.937889099121094 157.55235290527344 37.11992645263672 155.7820281982422 35.713279724121094 L151.5691375732422 32.36601257324219 L160.84375 28.775390625 C162.10116577148438 28.288673400878906 162.35467529296875 26.620704650878906 161.29922485351562 25.782028198242188 L155.61172485351562 21.263275146484375 C155.02734375 20.79804229736328 154.21133422851562 20.757423400878906 153.5832061767578 21.161331176757812 Z"></path>
<path fill="#bc0e5c" fill-opacity="1.0"  filling="0" d="M175.56484985351562 66.21133422851562 L160.77850341796875 69.4234390258789 C158.5753936767578 69.9019546508789 156.55429077148438 68.07344055175781 156.81094360351562 65.83358764648438 L157.794921875 57.24101638793945 L146.87615966796875 59.05117416381836 C145.54608154296875 59.271484375 144.92108154296875 57.468360900878906 146.1023406982422 56.818359375 L160.388671875 48.95781326293945 C162.7292938232422 47.669921875 165.5480499267578 49.56093978881836 165.244140625 52.21523666381836 L164.5207061767578 58.53202819824219 L175.27069091796875 53.782814025878906 C176.72811889648438 53.139060974121094 178.33358764648438 54.32070541381836 178.15234375 55.90351867675781 L177.17578125 64.4312515258789 C177.07501220703125 65.30819702148438 176.42733764648438 66.02421569824219 175.56484985351562 66.21133422851562 Z"></path>
<path fill="#4c3147" fill-opacity="1.0"  filling="0" d="M92.0257797241211 80.2718734741211 C93.0699234008789 82.7914047241211 91.87422180175781 85.6800765991211 89.35507202148438 86.7242202758789 C86.8355484008789 87.76875305175781 83.9468765258789 86.57266235351562 82.9027328491211 84.05351257324219 C81.85859680175781 81.53437805175781 83.0542984008789 78.64569854736328 85.57343292236328 77.60116577148438 C88.09257507324219 76.5570297241211 90.98163604736328 77.75273132324219 92.0257797241211 80.2718734741211 Z"></path>
<path fill="#4c3147" fill-opacity="1.0"  filling="0" d="M116.05546569824219 78.693359375 C117.98320007324219 80.6207046508789 117.98320007324219 83.74609375 116.05546569824219 85.673828125 C114.12812805175781 87.6015625 111.00273132324219 87.6015625 109.07499694824219 85.673828125 C107.14765930175781 83.74609375 107.14765930175781 80.6207046508789 109.07499694824219 78.693359375 C111.00273132324219 76.765625 114.12812805175781 76.765625 116.05546569824219 78.693359375 Z"></path>
<path fill="#e3835a" fill-opacity="1.0"  filling="0" d="M100.00703430175781 96.68280792236328 C98.3246078491211 96.68280792236328 96.96054077148438 95.31875610351562 96.96054077148438 93.6363296508789 L96.96054077148438 78.71211242675781 C96.96054077148438 77.0296859741211 98.3246078491211 75.66561889648438 100.00703430175781 75.66561889648438 C101.6898422241211 75.66561889648438 103.05390167236328 77.0296859741211 103.05390167236328 78.71211242675781 L103.05390167236328 93.6363296508789 C103.05390167236328 95.31875610351562 101.6898422241211 96.68280792236328 100.00703430175781 96.68280792236328 Z"></path>
<path fill="#4c3147" fill-opacity="1.0"  filling="0" d="M95.37890625 66.2320327758789 C94.31327819824219 69.39140319824219 91.6851577758789 71.9398422241211 88.1949234008789 72.72734832763672 C84.70468139648438 73.51484680175781 81.23672485351562 72.3421859741211 78.9175796508789 69.94686889648438 L95.37890625 66.2320327758789 Z"></path>
<path fill="#4c3147" fill-opacity="1.0"  filling="0" d="M104.62108612060547 66.2320327758789 C105.68672180175781 69.39140319824219 108.31484985351562 71.9398422241211 111.80508422851562 72.72734832763672 C115.29531860351562 73.51484680175781 118.76327514648438 72.3421859741211 121.08242797851562 69.94686889648438 L104.62108612060547 66.2320327758789 Z"></path>
<path fill="#4c3147" fill-opacity="1.0"  filling="0" d="M105.06680297851562 112.03984069824219 C111.03632354736328 112.03984069824219 113.16484069824219 104.04844665527344 107.9339828491211 101.171875 C105.58047485351562 99.8773422241211 102.87617492675781 99.1410140991211 100.0 99.1410140991211 C97.1234359741211 99.1410140991211 94.4195327758789 99.8773422241211 92.0660171508789 101.171875 C86.83515930175781 104.04844665527344 88.96366882324219 112.03984069824219 94.9332046508789 112.03984069824219 L105.06680297851562 112.03984069824219 Z"></path></svg>