<svg xmlns="http://www.w3.org/2000/svg" viewBox="0.0 0.0 200.0 200.0" height="200.0px" width="200.0px"><path fill="#f4f4f7" fill-opacity="1.0"  filling="0" d="M161.29217529296875 171.43594360351562 L38.70781707763672 171.43594360351562 L38.70781707763672 24.373435974121094 L58.984375 14.990631103515625 L141.015625 14.990631103515625 L161.29217529296875 24.373435974121094 L161.29217529296875 171.43594360351562 Z"></path>
<path fill="#e2e2eb" fill-opacity="1.0"  filling="0" d="M74.4140625 14.990631103515625 L125.5859375 14.990631103515625 A0.0 0.0 0.0 0 1 125.5859375 14.990631103515625 L125.5859375 24.85468292236328 A17.1875 17.1875 0.0 0 1 108.3984375 42.04218292236328 L91.6015625 42.04218292236328 A17.1875 17.1875 0.0 0 1 74.4140625 24.85468292236328 L74.4140625 14.990631103515625 A0.0 0.0 0.0 0 1 74.4140625 14.990631103515625 Z"></path>
<path fill="#6cf" fill-opacity="1.0"  filling="0" d="M58.984375 14.990631103515625 L74.4140625 14.990631103515625 L74.4140625 171.43594360351562 L58.984375 171.43594360351562 L58.984375 14.990631103515625 Z"></path>
<path fill="#6cf" fill-opacity="1.0"  filling="0" d="M92.28437805175781 42.04062271118164 L107.71405792236328 42.04062271118164 L107.71405792236328 171.43594360351562 L92.28437805175781 171.43594360351562 L92.28437805175781 42.04062271118164 Z"></path>
<path fill="#ffdd46" fill-opacity="1.0"  filling="0" d="M119.82500457763672 72.89999389648438 L146.77813720703125 72.89999389648438 L146.77813720703125 94.4625015258789 A9.375 9.375 0.0 0 1 142.10780334472656 102.57030487060547 L133.30157470703125 107.6796875 L124.4937515258789 102.57030487060547 A9.375 9.375 0.0 0 1 119.82500457763672 94.4625015258789 L119.82500457763672 72.89999389648438 Z"></path>
<path fill="#6cf" fill-opacity="1.0"  filling="0" d="M133.30157470703125 107.67188262939453 L125.5859375 103.19686889648438 L125.5859375 171.43594360351562 L141.015625 171.43594360351562 L141.015625 103.19686889648438 L133.30157470703125 107.67188262939453 Z"></path>
<path fill="#6cf" fill-opacity="1.0"  filling="0" d="M125.5859375 14.990631103515625 L141.015625 14.990631103515625 L141.015625 72.90156555175781 L125.5859375 72.90156555175781 L125.5859375 14.990631103515625 Z"></path>
<path fill="#515165" fill-opacity="1.0"  filling="0" d="M38.70781707763672 171.43594360351562 L161.29217529296875 171.43594360351562 L161.29217529296875 185.01092529296875 L38.70781707763672 185.01092529296875 L38.70781707763672 171.43594360351562 Z"></path>
<path fill="#515165" fill-opacity="1.0"  filling="0" d="M2.734375 58.45468521118164 L13.681251525878906 91.78437805175781 L25.15937042236328 85.4765625 L11.856254577636719 49.812496185302734 L2.734375 58.45468521118164 Z"></path>
<path fill="#e2e2eb" fill-opacity="1.0"  filling="0" d="M25.15937042236328 85.4765625 L38.70781707763672 78.03125 L38.70781707763672 24.373435974121094 L11.856254577636719 49.812496185302734 L25.15937042236328 85.4765625 Z"></path>
<path fill="#515165" fill-opacity="1.0"  filling="0" d="M197.265625 58.45468521118164 L188.1437530517578 49.812496185302734 L174.84063720703125 85.4765625 L186.31875610351562 91.78437805175781 L197.265625 58.45468521118164 Z"></path>
<path fill="#e2e2eb" fill-opacity="1.0"  filling="0" d="M161.29217529296875 24.373435974121094 L161.29217529296875 78.03125 L174.84063720703125 85.4765625 L188.1437530517578 49.812496185302734 L161.29217529296875 24.373435974121094 Z"></path>
<path fill="" fill-opacity="1.0"  filling="0" d="M74.4140625 136.328125 A2.734375 2.734375 0.0 0 0 77.1484375 133.59375 L77.1484375 128.125 A2.734375 2.734375 0.0 0 0 71.6796875 128.125 L71.6796875 133.59375 A2.734375 2.734375 0.0 0 0 74.4140625 136.328125 Z"></path>
<path fill="" fill-opacity="1.0"  filling="0" d="M199.14688110351562 56.47031021118164 L183.83438110351562 41.959373474121094 A2.734375 2.734375 0.0 0 0 180.0734405517578 45.931251525878906 L184.953125 50.55156326293945 L173.390625 81.55624389648438 L164.02655029296875 76.40625 L164.02655029296875 30.731246948242188 L169.49530029296875 35.91094207763672 A2.734375 2.734375 0.0 1 0 173.25625610351562 31.940628051757812 L163.17343139648438 22.387496948242188 A7.721874713897705 7.721874713897705 0.0 0 0 162.44061279296875 21.892189025878906 L142.1640625 12.517189025878906 A2.9546875953674316 2.9546875953674316 0.0 0 0 141.015625 12.264060974121094 L58.984375 12.264060974121094 A2.9546875953674316 2.9546875953674316 0.0 0 0 57.8359375 12.517189025878906 L37.55937957763672 21.892189025878906 A8.028124809265137 8.028124809265137 0.0 0 0 36.826560974121094 22.387496948242188 L0.8531265258789062 56.47031021118164 A2.7359375953674316 2.7359375953674316 0.0 0 0 0.1359405517578125 59.30781555175781 L11.082809448242188 92.63749694824219 A2.7515625953674316 2.7515625953674316 0.0 0 0 14.998435974121094 94.1796875 L35.97344207763672 82.65625 L35.97344207763672 185.0124969482422 A2.734375 2.734375 0.0 0 0 38.70781707763672 187.7468719482422 L161.29217529296875 187.7468719482422 A2.734375 2.734375 0.0 0 0 164.02655029296875 185.0124969482422 L164.02655029296875 82.65625 L185.0 94.1796875 A2.7515625953674316 2.7515625953674316 0.0 0 0 188.91561889648438 92.63749694824219 L199.8625030517578 59.30781555175781 A2.7359375953674316 2.7359375953674316 0.0 0 0 199.14688110351562 56.47031021118164 Z M158.55780029296875 78.0328140258789 L158.55780029296875 168.703125 L143.75 168.703125 L143.75 104.74531555175781 A12.1328125 12.1328125 0.0 0 0 149.51251220703125 94.453125 L149.51251220703125 72.89999389648438 A2.7359375953674316 2.7359375953674316 0.0 0 0 146.77813720703125 70.16561889648438 L143.75 70.16561889648438 L143.75 19.268753051757812 L158.55780029296875 26.12030792236328 L158.55780029296875 78.0328140258789 Z M110.45000457763672 168.70156860351562 L110.45000457763672 44.67031478881836 A19.859375 19.859375 0.0 0 0 122.8515625 38.5234375 L122.8515625 70.16561889648438 L119.82500457763672 70.16561889648438 A2.734375 2.734375 0.0 0 0 117.09062957763672 72.89999389648438 L117.09062957763672 94.453125 A12.131250381469727 12.131250381469727 0.0 0 0 122.8515625 104.74531555175781 L122.8515625 168.70156860351562 L110.45000457763672 168.70156860351562 Z M95.02030944824219 44.77499771118164 L104.98125457763672 44.77499771118164 L104.98125457763672 168.70156860351562 L95.02030944824219 168.70156860351562 L95.02030944824219 44.77499771118164 Z M144.04376220703125 75.63436889648438 L144.04376220703125 94.453125 A6.659375190734863 6.659375190734863 0.0 0 1 140.734375 100.19843292236328 L133.30157470703125 104.51094055175781 L125.8671875 100.19843292236328 A6.657812595367432 6.657812595367432 0.0 0 1 122.55937957763672 94.453125 L122.55937957763672 75.63436889648438 L144.04376220703125 75.63436889648438 Z M128.3203125 107.9437484741211 L131.9296875 110.03750610351562 A2.7328124046325684 2.7328124046325684 0.0 0 0 134.671875 110.03750610351562 L138.28125 107.9437484741211 L138.28125 168.70156860351562 L128.3203125 168.70156860351562 L128.3203125 107.9437484741211 Z M138.28125 70.16561889648438 L128.3203125 70.16561889648438 L128.3203125 17.725006103515625 L138.28125 17.725006103515625 L138.28125 70.16561889648438 Z M122.8515625 24.853118896484375 A14.46875 14.46875 0.0 0 1 108.3984375 39.30624771118164 L91.6015625 39.30624771118164 A14.46875 14.46875 0.0 0 1 77.1484375 24.853118896484375 L77.1484375 17.725006103515625 L122.8515625 17.725006103515625 L122.8515625 24.853118896484375 Z M71.6796875 17.725006103515625 L71.6796875 110.3515625 A2.734375 2.734375 0.0 0 0 77.1484375 110.3515625 L77.1484375 38.5234375 A19.859375 19.859375 0.0 0 0 89.55155944824219 44.67031478881836 L89.55155944824219 168.70156860351562 L77.1484375 168.70156860351562 L77.1484375 151.3671875 A2.734375 2.734375 0.0 0 0 71.6796875 151.3671875 L71.6796875 168.70156860351562 L61.71875 168.70156860351562 L61.71875 17.725006103515625 L71.6796875 17.725006103515625 Z M41.44219207763672 168.70156860351562 L41.44219207763672 26.12030792236328 L56.25 19.268753051757812 L56.25 168.70156860351562 L41.44219207763672 168.70156860351562 Z M5.873435974121094 59.248435974121094 L10.737503051757812 54.63906478881836 L21.770309448242188 84.21875 L15.251564025878906 87.80155944824219 L5.873435974121094 59.248435974121094 Z M26.615623474121094 81.5625 L15.053123474121094 50.55781173706055 L35.97344207763672 30.729690551757812 L35.97344207763672 76.40625 L26.615623474121094 81.5625 Z M158.55780029296875 182.28125 L41.44219207763672 182.28125 L41.44219207763672 174.1765594482422 L158.55780029296875 174.1765594482422 L158.55780029296875 182.28125 Z M184.74844360351562 87.80780792236328 L178.2296905517578 84.21875 L182.95469665527344 71.55155944824219 L189.2624969482422 54.640625 L194.12655639648438 59.249996185302734 L184.74844360351562 87.80780792236328 Z"></path></svg>