<svg xmlns="http://www.w3.org/2000/svg" viewBox="0.0 0.0 200.0 200.0" height="200.0px" width="200.0px"><path fill="#dce1eb" fill-opacity="1.0"  filling="0" d="M150.1953125 88.28125 L126.7578125 88.28125 L126.7578125 41.40625 L150.1953125 41.40625 L150.1953125 88.28125 Z"></path>
<path fill="#dce1eb" fill-opacity="1.0"  filling="0" d="M49.8046875 41.40625 L73.2421875 41.40625 L73.2421875 88.28125 L49.8046875 88.28125 L49.8046875 41.40625 Z"></path>
<path fill="#f2f6fc" fill-opacity="1.0"  filling="0" d="M185.3515625 53.125 L14.6484375 53.125 C8.176170349121094 53.125 2.9296875 47.878517150878906 2.9296875 41.40625 C2.9296875 34.933982849121094 8.176170349121094 29.6875 14.6484375 29.6875 L185.3515625 29.6875 C191.82382202148438 29.6875 197.0703125 34.933982849121094 197.0703125 41.40625 C197.0703125 47.878517150878906 191.82382202148438 53.125 185.3515625 53.125 Z"></path>
<path fill="#e9edf5" fill-opacity="1.0"  filling="0" d="M38.0859375 41.40625 C38.0859375 34.933982849121094 43.332420349121094 29.6875 49.8046875 29.6875 L14.6484375 29.6875 C8.176170349121094 29.6875 2.9296875 34.933982849121094 2.9296875 41.40625 C2.9296875 47.878517150878906 8.176170349121094 53.125 14.6484375 53.125 L49.8046875 53.125 C43.332420349121094 53.125 38.0859375 47.878517150878906 38.0859375 41.40625 Z"></path>
<path fill="#e0b8ff" fill-opacity="1.0"  filling="0" d="M100.0 170.3125 L150.1953125 170.3125 C176.08358764648438 170.3125 197.0703125 149.32577514648438 197.0703125 123.4375 C197.0703125 97.5492172241211 176.08358764648438 76.5625 150.1953125 76.5625 L100.0 76.5625 L92.1875 123.4375 L100.0 170.3125 Z"></path>
<path fill="#fff48f" fill-opacity="1.0"  filling="0" d="M100.0 170.3125 L49.8046875 170.3125 C23.916404724121094 170.3125 2.9296875 149.32577514648438 2.9296875 123.4375 C2.9296875 97.5492172241211 23.916404724121094 76.5625 49.8046875 76.5625 L100.0 76.5625 L100.0 170.3125 Z"></path>
<path fill="#ffee6e" fill-opacity="1.0"  filling="0" d="M26.3671875 123.4375 C26.3671875 97.5492172241211 47.353904724121094 76.5625 73.2421875 76.5625 L49.8046875 76.5625 C23.916404724121094 76.5625 2.9296875 97.5492172241211 2.9296875 123.4375 C2.9296875 149.32577514648438 23.916404724121094 170.3125 49.8046875 170.3125 L73.2421875 170.3125 C47.353904724121094 170.3125 26.3671875 149.32577514648438 26.3671875 123.4375 Z"></path>
<path fill="#ff9696" fill-opacity="1.0"  filling="0" d="M51.46484375 123.4375 L68.0374984741211 106.8648452758789 C71.0882797241211 103.8140640258789 71.0882797241211 98.8671875 68.0374984741211 95.81640625 C64.9867172241211 92.765625 60.03984069824219 92.765625 56.98906326293945 95.81640625 L34.89179992675781 117.9136734008789 C31.841018676757812 120.9644546508789 31.841018676757812 125.91133117675781 34.89179992675781 128.9621124267578 L56.98906326293945 151.0593719482422 C60.03984069824219 154.1101531982422 64.9867172241211 154.1101531982422 68.0374984741211 151.0593719482422 C71.0882797241211 148.00860595703125 71.0882797241211 143.0617218017578 68.0374984741211 140.0109405517578 L51.46484375 123.4375 Z"></path>
<path fill="#fff48f" fill-opacity="1.0"  filling="0" d="M148.53515625 123.4375 L131.96249389648438 106.8648452758789 C128.91172790527344 103.8140640258789 128.91172790527344 98.8671875 131.96249389648438 95.81640625 C135.01327514648438 92.765625 139.9601593017578 92.765625 143.0109405517578 95.81640625 L165.1082000732422 117.9136734008789 C168.1589813232422 120.9644546508789 168.1589813232422 125.91133117675781 165.1082000732422 128.9621124267578 L143.0109405517578 151.0593719482422 C139.9601593017578 154.1101531982422 135.01327514648438 154.1101531982422 131.96249389648438 151.0593719482422 C128.91172790527344 148.00860595703125 128.91172790527344 143.0617218017578 131.96249389648438 140.0109405517578 L148.53515625 123.4375 Z"></path>
<path fill="#ff7d81" fill-opacity="1.0"  filling="0" d="M51.46484375 123.4375 C51.46484375 128.6457061767578 47.24258041381836 132.8679656982422 42.03437423706055 132.8679656982422 C40.505863189697266 132.8679656982422 39.06366729736328 132.501953125 37.787109375 131.8566436767578 L56.98906326293945 151.05859375 C60.03984069824219 154.109375 64.9867172241211 154.109375 68.0374984741211 151.05859375 C71.0882797241211 148.0078125 71.0882797241211 143.06094360351562 68.0374984741211 140.01016235351562 L51.46484375 123.4375 Z"></path>
<path fill="#ffee6e" fill-opacity="1.0"  filling="0" d="M148.53515625 123.4375 C148.53515625 128.6457061767578 152.75741577148438 132.8679656982422 157.9656219482422 132.8679656982422 C159.494140625 132.8679656982422 160.93634033203125 132.501953125 162.212890625 131.8566436767578 L143.0109405517578 151.05859375 C139.9601593017578 154.109375 135.01327514648438 154.109375 131.96249389648438 151.05859375 C128.91172790527344 148.0078125 128.91172790527344 143.06094360351562 131.96249389648438 140.01016235351562 L148.53515625 123.4375 Z"></path>
<path fill="" fill-opacity="1.0"  filling="0" d="M153.12071228027344 73.7210922241211 L153.12071228027344 56.0546875 L165.2273406982422 56.0546875 C166.845703125 56.0546875 168.1570281982422 54.74296951293945 168.1570281982422 53.125 C168.1570281982422 51.50703048706055 166.845703125 50.1953125 165.2273406982422 50.1953125 L14.6484375 50.1953125 C9.801956176757812 50.1953125 5.859375 46.25273513793945 5.859375 41.40625 C5.859375 36.55976486206055 9.801956176757812 32.6171875 14.6484375 32.6171875 L185.3515625 32.6171875 C190.19766235351562 32.6171875 194.140625 36.55976486206055 194.140625 41.40625 C194.140625 46.25273513793945 190.19766235351562 50.1953125 185.3515625 50.1953125 L176.9460906982422 50.1953125 C175.32772827148438 50.1953125 174.0164031982422 51.50703048706055 174.0164031982422 53.125 C174.0164031982422 54.74296951293945 175.32772827148438 56.0546875 176.9460906982422 56.0546875 L185.3515625 56.0546875 C193.4289093017578 56.0546875 200.0 49.48359680175781 200.0 41.40625 C200.0 33.32890319824219 193.4289093017578 26.7578125 185.3515625 26.7578125 L14.6484375 26.7578125 C6.571098327636719 26.7578125 0.0 33.32890319824219 0.0 41.40625 C0.0 49.48359680175781 6.571098327636719 56.0546875 14.6484375 56.0546875 L46.875 56.0546875 L46.875 73.72148895263672 C20.771095275878906 75.24336242675781 0.0 96.958984375 0.0 123.4375 C0.0 150.89999389648438 22.342185974121094 173.2421875 49.8046875 173.2421875 L150.1953125 173.2421875 C177.65780639648438 173.2421875 200.0 150.89999389648438 200.0 123.4375 C200.0 96.9574203491211 179.2265625 75.24101257324219 153.12071228027344 73.7210922241211 Z M147.26133728027344 73.6328125 L129.71640014648438 73.6328125 L129.71640014648438 56.0546875 L147.26133728027344 56.0546875 L147.26133728027344 73.6328125 Z M76.171875 73.6328125 L76.171875 56.0546875 L123.8570327758789 56.0546875 L123.8570327758789 73.6328125 L76.171875 73.6328125 Z M70.3125 56.0546875 L70.3125 73.6328125 L52.734375 73.6328125 L52.734375 56.0546875 L70.3125 56.0546875 Z M150.1953125 167.3828125 L102.9296875 167.3828125 L102.9296875 144.921875 C102.9296875 143.3039093017578 101.61836242675781 141.9921875 100.0 141.9921875 C98.38203430175781 141.9921875 97.0703125 143.3039093017578 97.0703125 144.921875 L97.0703125 167.3828125 L49.8046875 167.3828125 C25.57305145263672 167.3828125 5.859375 147.66912841796875 5.859375 123.4375 C5.859375 99.20585632324219 25.57305145263672 79.4921875 49.8046875 79.4921875 L97.0703125 79.4921875 L97.0703125 133.203125 C97.0703125 134.8210906982422 98.38203430175781 136.1328125 100.0 136.1328125 C101.61836242675781 136.1328125 102.9296875 134.8210906982422 102.9296875 133.203125 L102.9296875 79.4921875 L150.1953125 79.4921875 C174.42694091796875 79.4921875 194.140625 99.20585632324219 194.140625 123.4375 C194.140625 147.66912841796875 174.42694091796875 167.3828125 150.1953125 167.3828125 Z"></path>
<path fill="" fill-opacity="1.0"  filling="0" d="M73.25546264648438 101.34062957763672 C73.25546264648438 98.4710922241211 72.13827514648438 95.7738265991211 70.1089859008789 93.74491882324219 C68.080078125 91.71601867675781 65.38241577148438 90.59844207763672 62.51327896118164 90.59844207763672 C59.64413833618164 90.59844207763672 56.94648742675781 91.71562957763672 54.917579650878906 93.74491882324219 L32.820701599121094 115.841796875 C28.632423400878906 120.03008270263672 28.632423400878906 126.84491729736328 32.820701599121094 131.03359985351562 L54.917579650878906 153.13046264648438 C56.94648742675781 155.1593780517578 59.64413833618164 156.27694702148438 62.51327896118164 156.27694702148438 C65.3828125 156.27694702148438 68.080078125 155.15977478027344 70.1089859008789 153.130859375 C72.13789367675781 151.10195922851562 73.25546264648438 148.404296875 73.25546264648438 145.53475952148438 C73.25546264648438 142.66561889648438 72.13827514648438 139.96795654296875 70.1089859008789 137.93905639648438 L55.60781478881836 123.4375 L70.1089859008789 108.93633270263672 C72.13827514648438 106.90742492675781 73.25546264648438 104.20977020263672 73.25546264648438 101.34062957763672 Z M65.96601867675781 104.7933578491211 L49.39335632324219 121.36601257324219 C48.24922180175781 122.51016235351562 48.24922180175781 124.365234375 49.39335632324219 125.50898742675781 L65.96601867675781 142.08163452148438 C66.88827514648438 143.00390625 67.39608764648438 144.23007202148438 67.39608764648438 145.53436279296875 C67.39608764648438 146.83868408203125 66.88827514648438 148.06483459472656 65.96601867675781 148.98712158203125 C64.06210327148438 150.89102172851562 60.964454650878906 150.89102172851562 59.060550689697266 148.98712158203125 L36.96367263793945 126.89022827148438 C35.05976104736328 124.986328125 35.05976104736328 121.888671875 36.96367263793945 119.98477172851562 L59.060550689697266 97.88789367675781 C60.01250076293945 96.93594360351562 61.26288604736328 96.46015930175781 62.51327896118164 96.46015930175781 C63.763671875 96.46015930175781 65.01406860351562 96.93632507324219 65.96601867675781 97.88789367675781 C66.88827514648438 98.8101577758789 67.39608764648438 100.03632354736328 67.39608764648438 101.34062957763672 C67.39608764648438 102.6449203491211 66.88827514648438 103.87109375 65.96601867675781 104.7933578491211 Z"></path>
<path fill="" fill-opacity="1.0"  filling="0" d="M145.08242797851562 93.74491882324219 C143.05389404296875 91.71601867675781 140.35586547851562 90.59844207763672 137.48672485351562 90.59844207763672 C134.61758422851562 90.59844207763672 131.91952514648438 91.71562957763672 129.89102172851562 93.7445297241211 C127.86210632324219 95.7734375 126.74453735351562 98.4710922241211 126.74453735351562 101.34062957763672 C126.74453735351562 104.20977020263672 127.86170959472656 106.90742492675781 129.890625 108.93633270263672 L144.39219665527344 123.4375 L129.890625 137.93865966796875 C127.86210632324219 139.9675750732422 126.74453735351562 142.66522216796875 126.74453735351562 145.53436279296875 C126.74453735351562 148.40390014648438 127.86170959472656 151.10116577148438 129.890625 153.1300811767578 C131.91952514648438 155.1589813232422 134.61758422851562 156.27655029296875 137.48672485351562 156.27655029296875 C140.35586547851562 156.27655029296875 143.05389404296875 155.1589813232422 145.08242797851562 153.1300811767578 L167.1796875 131.033203125 C171.3679656982422 126.84491729736328 171.3679656982422 120.03008270263672 167.1796875 115.84140014648438 L145.08242797851562 93.74491882324219 Z M163.03631591796875 126.89022827148438 L140.93905639648438 148.98712158203125 C140.01718139648438 149.9093780517578 138.791015625 150.41717529296875 137.48672485351562 150.41717529296875 C136.18243408203125 150.41717529296875 134.9558563232422 149.9093780517578 134.03359985351562 148.98712158203125 C133.11172485351562 148.06483459472656 132.60391235351562 146.83868408203125 132.60391235351562 145.53436279296875 C132.60391235351562 144.23007202148438 133.11172485351562 143.00390625 134.03399658203125 142.08163452148438 L150.60702514648438 125.50898742675781 C151.15625 124.95976257324219 151.46484375 124.21446228027344 151.46484375 123.4375 C151.46484375 122.66053771972656 151.15625 121.91523742675781 150.60702514648438 121.36601257324219 L134.03399658203125 104.7933578491211 C133.11172485351562 103.87109375 132.60391235351562 102.6449203491211 132.60391235351562 101.34062957763672 C132.60391235351562 100.03632354736328 133.11172485351562 98.8101577758789 134.03399658203125 97.88789367675781 C134.9558563232422 96.96562194824219 136.18243408203125 96.45781707763672 137.48672485351562 96.45781707763672 C138.791015625 96.45781707763672 140.01718139648438 96.96562194824219 140.93905639648438 97.88789367675781 L163.03631591796875 119.98477172851562 C164.94024658203125 121.888671875 164.94024658203125 124.986328125 163.03631591796875 126.89022827148438 Z"></path></svg>