<svg xmlns="http://www.w3.org/2000/svg" viewBox="0.0 0.0 200.0 200.0" height="200.0px" width="200.0px"><path fill="#73c6be" fill-opacity="1.0"  filling="0" d="M170.3125 100.18437194824219 A70.3671875 70.3671875 0.0 1 1 29.578125 100.18437194824219 A70.3671875 70.3671875 0.0 1 1 170.3125 100.18437194824219 Z"></path>
<path fill="#ffe36e" fill-opacity="1.0"  filling="0" d="M63.86562728881836 125.3203125 A6.612499713897705 6.612499713897705 0.0 0 0 69.0374984741211 126.8203125 A6.685937404632568 6.685937404632568 0.0 1 0 77.5531234741211 136.8828125 A6.5390625 6.5390625 0.0 0 0 78.66250610351562 134.9765625 A6.562499523162842 6.562499523162842 0.0 0 0 85.7562484741211 138.7890625 A6.698437690734863 6.698437690734863 0.0 0 0 94.9124984741211 148.0078125 A0.734375 0.734375 0.0 0 1 95.0531234741211 147.9140625 A6.685937404632568 6.685937404632568 0.0 0 0 107.06875610351562 147.5390625 A6.665624618530273 6.665624618530273 0.0 0 0 116.9124984741211 147.0703125 A6.765625 6.765625 0.0 0 0 119.95938110351562 148.0078125 A6.696874618530273 6.696874618530273 0.0 0 0 125.16249084472656 136.6953125 A6.684374809265137 6.684374809265137 0.0 0 0 132.31875610351562 125.7109375 A6.371875286102295 6.371875286102295 0.0 0 0 131.69374084472656 123.3984375 A6.623437404632568 6.623437404632568 0.0 0 0 137.69375610351562 115.57030487060547 A6.665624618530273 6.665624618530273 0.0 0 0 135.00625610351562 102.61719512939453 A6.381250381469727 6.381250381469727 0.0 0 0 136.80313110351562 101.28905487060547 A6.674999713897705 6.674999713897705 0.0 0 0 136.53750610351562 91.8359375 A1.0203125476837158 1.0203125476837158 0.0 0 0 136.28750610351562 91.6328125 C131.83438110351562 100.11717987060547 127.49063110351562 105.74219512939453 121.08438110351562 102.6328125 A16.40625 16.40625 0.0 0 1 115.0843734741211 97.1328125 A7.03125 7.03125 0.0 0 1 109.7718734741211 97.9296875 A19.11406135559082 19.11406135559082 0.0 0 1 99.2406234741211 90.6796875 C97.6468734741211 94.1640625 95.2093734741211 96.1171875 91.2249984741211 95.6953125 A13.906249046325684 13.906249046325684 0.0 0 1 87.3187484741211 94.6328125 A6.8359375 6.8359375 0.0 0 1 82.6624984741211 99.3046875 C78.74063110351562 100.6953125 73.30313110351562 100.0859375 68.2406234741211 97.7578125 A5.112500190734863 5.112500190734863 0.0 0 0 68.1781234741211 98.6015625 A6.6640625 6.6640625 0.0 0 0 70.45938110351562 103.6171875 A6.646875381469727 6.646875381469727 0.0 0 0 71.20938110351562 105.8984375 A6.610937595367432 6.610937595367432 0.0 0 0 65.6468734741211 114.0390625 A6.609375 6.609375 0.0 0 0 63.068748474121094 115.8828125 A6.690625190734863 6.690625190734863 0.0 0 0 63.86562728881836 125.3203125 Z"></path>
<path fill="#fca956" fill-opacity="1.0"  filling="0" d="M83.62968444824219 116.45624542236328 A2.7359375953674316 2.7359375953674316 0.0 0 0 86.12187194824219 114.84375 A3.882812261581421 3.882812261581421 0.0 0 1 91.25936889648438 112.9140625 A2.734375 2.734375 0.0 1 0 93.51875305175781 107.93281555175781 A9.3515625 9.3515625 0.0 0 0 81.140625 112.5843734741211 A2.737499952316284 2.737499952316284 0.0 0 0 83.62968444824219 116.44999694824219 L83.62968444824219 116.45624542236328 Z"></path>
<path fill="#fca956" fill-opacity="1.0"  filling="0" d="M112.3734359741211 123.50468444824219 A3.8874998092651367 3.8874998092651367 0.0 0 1 116.8843765258789 126.62968444824219 A2.7328124046325684 2.7328124046325684 0.0 0 0 119.5703125 128.8781280517578 A2.7828125953674316 2.7828125953674316 0.0 0 0 120.06249237060547 128.83438110351562 A2.734375 2.734375 0.0 0 0 122.2640609741211 125.6546859741211 A9.36093807220459 9.36093807220459 0.0 0 0 111.3968734741211 118.125 A2.734375 2.734375 0.0 0 0 112.3734359741211 123.5062484741211 L112.3734359741211 123.50468444824219 Z"></path>
<path fill="#fca956" fill-opacity="1.0"  filling="0" d="M93.5218734741211 124.27969360351562 A2.518749952316284 2.518749952316284 0.0 1 0 91.00312805175781 126.7984390258789 A2.518749952316284 2.518749952316284 0.0 0 0 93.5218734741211 124.27969360351562 Z"></path>
<path fill="#fca956" fill-opacity="1.0"  filling="0" d="M111.8843765258789 109.84375762939453 A2.518749952316284 2.518749952316284 0.0 1 0 109.36563110351562 112.36250305175781 A2.518749952316284 2.518749952316284 0.0 0 0 111.8843765258789 109.84375762939453 Z"></path>
<path fill="#fca956" fill-opacity="1.0"  filling="0" d="M112.99531555175781 137.01406860351562 A2.518749952316284 2.518749952316284 0.0 1 0 110.4765625 139.53125 A2.518749952316284 2.518749952316284 0.0 0 0 112.99531555175781 137.01406860351562 Z"></path>
<path fill="#ea9357" fill-opacity="1.0"  filling="0" d="M77.0218734741211 59.585933685302734 C74.4281234741211 55.4765625 71.35000610351562 53.4296875 66.9593734741211 54.9921875 C58.70937728881836 57.914058685302734 50.849998474121094 71.8515625 55.19375228881836 84.1015625 A24.431249618530273 24.431249618530273 0.0 0 0 68.2406234741211 97.7578125 C73.30313110351562 100.0859375 78.74063110351562 100.6953125 82.6624984741211 99.3046875 A6.8359375 6.8359375 0.0 0 0 87.3187484741211 94.6328125 A24.920312881469727 24.920312881469727 0.0 0 1 75.9437484741211 83.7734375 A23.160938262939453 23.160938262939453 0.0 0 1 72.9906234741211 70.1328125 A22.578125 22.578125 0.0 0 1 77.0218734741211 59.585933685302734 Z"></path>
<path fill="#fca956" fill-opacity="1.0"  filling="0" d="M103.1468734741211 56.6484375 C102.4749984741211 52.273441314697266 100.5218734741211 49.398433685302734 96.1624984741211 48.9453125 C90.0843734741211 48.3046875 81.89688110351562 52.5703125 77.0218734741211 59.585933685302734 A22.578125 22.578125 0.0 0 0 72.9906234741211 70.1328125 A23.160938262939453 23.160938262939453 0.0 0 0 75.9437484741211 83.7734375 A24.920312881469727 24.920312881469727 0.0 0 0 87.3187484741211 94.6328125 A13.906249046325684 13.906249046325684 0.0 0 0 91.2249984741211 95.6953125 C95.2093734741211 96.1171875 97.6468734741211 94.1640625 99.2406234741211 90.6796875 A26.637500762939453 26.637500762939453 0.0 0 1 94.1156234741211 80.1484375 L94.1156234741211 80.1328125 A22.21875 22.21875 0.0 0 1 93.9281234741211 70.8203125 A23.954687118530273 23.954687118530273 0.0 0 1 103.1468734741211 56.6484375 Z"></path>
<path fill="#ea9357" fill-opacity="1.0"  filling="0" d="M112.6781234741211 72.3671875 A24.015625 24.015625 0.0 0 1 125.20938110351562 61.007808685302734 C125.1156234741211 56.1171875 123.52188110351562 52.7265625 118.9281234741211 51.8203125 C114.33438110351562 50.9140625 108.2249984741211 52.7578125 103.1468734741211 56.6484375 A23.954687118530273 23.954687118530273 0.0 0 0 93.9281234741211 70.8203125 A22.21875 22.21875 0.0 0 0 94.1156234741211 80.1328125 L94.1156234741211 80.1484375 A26.637500762939453 26.637500762939453 0.0 0 0 99.2406234741211 90.6796875 A19.11406135559082 19.11406135559082 0.0 0 0 109.7718734741211 97.9296875 A7.03125 7.03125 0.0 0 0 115.0843734741211 97.1328125 A25.565624237060547 25.565624237060547 0.0 0 1 112.10000610351562 91.3046875 A25.904687881469727 25.904687881469727 0.0 0 1 110.81875610351562 78.1953125 A22.206249237060547 22.206249237060547 0.0 0 1 112.6781234741211 72.3671875 Z"></path>
<path fill="#fca956" fill-opacity="1.0"  filling="0" d="M121.08438110351562 102.6328125 C127.49063110351562 105.74219512939453 131.83438110351562 100.11717987060547 136.28750610351562 91.6328125 C137.31875610351562 89.6796875 138.35000610351562 87.5859375 139.41250610351562 85.3984375 C145.10000610351562 73.7265625 149.56875610351562 64.1953125 141.69375610351562 60.367183685302734 C137.47500610351562 58.304683685302734 131.10000610351562 58.554683685302734 125.20938110351562 61.007808685302734 A24.015625 24.015625 0.0 0 0 112.6781234741211 72.3671875 A22.206249237060547 22.206249237060547 0.0 0 0 110.81875610351562 78.1953125 A25.904687881469727 25.904687881469727 0.0 0 0 112.10000610351562 91.3046875 A25.565624237060547 25.565624237060547 0.0 0 0 115.0843734741211 97.1328125 A16.40625 16.40625 0.0 0 0 121.08438110351562 102.6328125 Z"></path></svg>