<svg xmlns="http://www.w3.org/2000/svg" viewBox="0.0 0.0 200.0 200.0" height="200.0px" width="200.0px"><path fill="#b6c4cf" fill-opacity="1.0"  filling="0" d="M19.03125 14.937889099121094 L19.03125 55.687110900878906 C19.03125 56.60273361206055 19.773826599121094 57.345314025878906 20.689453125 57.345314025878906 L60.822654724121094 57.345314025878906 C61.73828125 57.345314025878906 62.48086166381836 56.60273361206055 62.48086166381836 55.687110900878906 L62.48086166381836 14.937889099121094 C62.48086166381836 14.021873474121094 61.73828125 13.279685974121094 60.822654724121094 13.279685974121094 L20.689453125 13.279685974121094 C19.7734375 13.279685974121094 19.03125 14.022270202636719 19.03125 14.937889099121094 Z M48.222267150878906 44.56211471557617 L33.724220275878906 44.56211471557617 C32.808204650878906 44.56211471557617 32.066009521484375 43.81953430175781 32.066009521484375 42.903907775878906 L32.066009521484375 27.72148895263672 C32.066009521484375 26.80547332763672 32.80859375 26.063278198242188 33.724220275878906 26.063278198242188 L48.222267150878906 26.063278198242188 C49.13788986206055 26.063278198242188 49.880470275878906 26.805862426757812 49.880470275878906 27.72148895263672 L49.880470275878906 42.903907775878906 C49.880470275878906 43.81953430175781 49.138282775878906 44.56211471557617 48.222267150878906 44.56211471557617 Z"></path>
<path fill="#b6c4cf" fill-opacity="1.0"  filling="0" d="M78.123046875 14.937889099121094 L78.123046875 55.687110900878906 C78.123046875 56.60273361206055 78.8656234741211 57.345314025878906 79.78125 57.345314025878906 L119.91484069824219 57.345314025878906 C120.83085632324219 57.345314025878906 121.57304382324219 56.60273361206055 121.57304382324219 55.687110900878906 L121.57304382324219 14.937889099121094 C121.57304382324219 14.021873474121094 120.83045959472656 13.279685974121094 119.91484069824219 13.279685974121094 L79.78125 13.279685974121094 C78.865234375 13.279685974121094 78.123046875 14.022270202636719 78.123046875 14.937889099121094 Z M107.3140640258789 44.56211471557617 L92.81600952148438 44.56211471557617 C91.9000015258789 44.56211471557617 91.1578140258789 43.81953430175781 91.1578140258789 42.903907775878906 L91.1578140258789 27.72148895263672 C91.1578140258789 26.80547332763672 91.900390625 26.063278198242188 92.81600952148438 26.063278198242188 L107.3140640258789 26.063278198242188 C108.2300796508789 26.063278198242188 108.97225952148438 26.805862426757812 108.97225952148438 27.72148895263672 L108.97225952148438 42.903907775878906 C108.97225952148438 43.81953430175781 108.2300796508789 44.56211471557617 107.3140640258789 44.56211471557617 Z"></path>
<path fill="#8d9ca8" fill-opacity="1.0"  filling="0" d="M49.880470275878906 29.640625 L91.1578140258789 29.640625 L91.1578140258789 41.85702896118164 L49.880470275878906 41.85702896118164 L49.880470275878906 29.640625 Z"></path>
<path fill="#8d9ca8" fill-opacity="1.0"  filling="0" d="M32.066009521484375 41.85702896118164 L0.78125 41.85702896118164 C0.349609375 41.85702896118164 0.0 41.507423400878906 0.0 41.07577896118164 L0.0 30.421875 C0.0 29.990234375 0.349609375 29.640625 0.78125 29.640625 L32.066009521484375 29.640625 L32.066009521484375 41.85702896118164 Z"></path>
<path fill="#8d9ca8" fill-opacity="1.0"  filling="0" d="M93.3304672241211 57.345314025878906 L106.79999542236328 57.345314025878906 L106.79999542236328 98.7933578491211 L93.3304672241211 98.7933578491211 L93.3304672241211 57.345314025878906 Z"></path>
<path fill="#b6c4cf" fill-opacity="1.0"  filling="0" d="M137.21484375 14.937889099121094 L137.21484375 55.687110900878906 C137.21484375 56.60273361206055 137.95741271972656 57.345314025878906 138.873046875 57.345314025878906 L179.00625610351562 57.345314025878906 C179.92227172851562 57.345314025878906 180.66445922851562 56.60273361206055 180.66445922851562 55.687110900878906 L180.66445922851562 14.937889099121094 C180.66445922851562 14.021873474121094 179.921875 13.279685974121094 179.00625610351562 13.279685974121094 L138.873046875 13.279685974121094 C137.95741271972656 13.279685974121094 137.21484375 14.022270202636719 137.21484375 14.937889099121094 Z M166.40585327148438 44.56211471557617 L151.90780639648438 44.56211471557617 C150.9921875 44.56211471557617 150.24960327148438 43.81953430175781 150.24960327148438 42.903907775878906 L150.24960327148438 27.72148895263672 C150.24960327148438 26.80547332763672 150.9921875 26.063278198242188 151.90780639648438 26.063278198242188 L166.40585327148438 26.063278198242188 C167.32186889648438 26.063278198242188 168.06405639648438 26.805862426757812 168.06405639648438 27.72148895263672 L168.06405639648438 42.903907775878906 C168.06405639648438 43.81953430175781 167.32186889648438 44.56211471557617 166.40585327148438 44.56211471557617 Z"></path>
<path fill="#8d9ca8" fill-opacity="1.0"  filling="0" d="M108.97225952148438 29.640625 L150.24960327148438 29.640625 L150.24960327148438 41.85702896118164 L108.97225952148438 41.85702896118164 L108.97225952148438 29.640625 Z"></path>
<path fill="#8d9ca8" fill-opacity="1.0"  filling="0" d="M168.064453125 41.88320541381836 L199.21875 41.88320541381836 C199.650390625 41.88320541381836 200.0 41.53358840942383 200.0 41.10195541381836 L200.0 30.395706176757812 C200.0 29.964065551757812 199.650390625 29.614456176757812 199.21875 29.614456176757812 L168.064453125 29.614456176757812 L168.064453125 41.88320541381836 Z"></path>
<path fill="#fd9468" fill-opacity="1.0"  filling="0" d="M146.46209716796875 139.3992156982422 A47.266014099121094 47.32109451293945 0.0 1 1 51.930076599121094 139.3992156982422 A47.266014099121094 47.32109451293945 0.0 1 1 146.46209716796875 139.3992156982422 Z"></path>
<path fill="#fe7d43" fill-opacity="1.0"  filling="0" d="M116.2281265258789 95.2464828491211 C120.49336242675781 102.35586547851562 122.9476547241211 110.67852020263672 122.9476547241211 119.57539367675781 C122.9476547241211 145.7101593017578 101.78593444824219 166.896484375 75.681640625 166.896484375 C69.67655944824219 166.896484375 63.93437194824219 165.77264404296875 58.64961242675781 163.72813415527344 C66.91288757324219 177.50234985351562 81.978515625 186.72030639648438 99.19609069824219 186.72030639648438 C125.30039978027344 186.72030639648438 146.46209716796875 165.5339813232422 146.46209716796875 139.3992156982422 C146.46209716796875 119.27655792236328 133.91561889648438 102.08984375 116.2281265258789 95.2464828491211 Z"></path>
<path fill="#fee45a" fill-opacity="1.0"  filling="0" d="M134.39100646972656 139.3992156982422 A35.194923400878906 35.23163986206055 0.0 1 1 64.00117492675781 139.3992156982422 A35.194923400878906 35.23163986206055 0.0 1 1 134.39100646972656 139.3992156982422 Z"></path>
<path fill="#fed230" fill-opacity="1.0"  filling="0" d="M122.49336242675781 113.01602172851562 C122.79022979736328 115.16015625 122.947265625 117.3492202758789 122.947265625 119.57539367675781 C122.947265625 145.20547485351562 102.5941390991211 166.07382202148438 77.1871109008789 166.87030029296875 C83.21875 171.72265625 90.87382507324219 174.630859375 99.19609069824219 174.630859375 C118.60234832763672 174.630859375 134.39100646972656 158.82577514648438 134.39100646972656 139.39883422851562 C134.39100646972656 128.908203125 129.78515625 119.47578430175781 122.49336242675781 113.01602172851562 Z"></path>
<path fill="#fd9468" fill-opacity="1.0"  filling="0" d="M111.98516082763672 137.7160186767578 C113.5269546508789 135.7472686767578 114.4496078491211 133.2667999267578 114.4496078491211 130.56640625 C114.4496078491211 125.2613296508789 110.85391235351562 120.7828140258789 105.9722671508789 119.43242645263672 L105.9722671508789 116.76211547851562 C105.9722671508789 115.09492492675781 104.62108612060547 113.744140625 102.95429229736328 113.744140625 C101.2874984741211 113.744140625 99.93633270263672 115.09532165527344 99.93633270263672 116.76211547851562 L99.93633270263672 119.013671875 L96.46015930175781 119.013671875 L96.46015930175781 116.76211547851562 C96.46015930175781 115.09492492675781 95.1089859008789 113.744140625 93.44219207763672 113.744140625 C91.775390625 113.744140625 90.4242172241211 115.09532165527344 90.4242172241211 116.76211547851562 L90.4242172241211 119.013671875 L89.1683578491211 119.013671875 L88.751953125 119.013671875 L83.7203140258789 119.013671875 C82.05352020263672 119.013671875 80.70234680175781 120.3648452758789 80.70234680175781 122.0316390991211 C80.70234680175781 123.69844055175781 82.05352020263672 125.04961395263672 83.7203140258789 125.04961395263672 L85.73359680175781 125.04961395263672 L85.73359680175781 139.13827514648438 L85.73359680175781 153.2265625 L83.7203140258789 153.2265625 C82.05352020263672 153.2265625 80.70234680175781 154.57772827148438 80.70234680175781 156.24453735351562 C80.70234680175781 157.91171264648438 82.05352020263672 159.2624969482422 83.7203140258789 159.2624969482422 L88.751953125 159.2624969482422 L89.1683578491211 159.2624969482422 L90.4242172241211 159.2624969482422 L90.4242172241211 161.5144500732422 C90.4242172241211 163.181640625 91.775390625 164.5324249267578 93.44219207763672 164.5324249267578 C95.1089859008789 164.5324249267578 96.46015930175781 163.18124389648438 96.46015930175781 161.5144500732422 L96.46015930175781 159.2624969482422 L99.93633270263672 159.2624969482422 L99.93633270263672 161.5144500732422 C99.93633270263672 163.181640625 101.2874984741211 164.5324249267578 102.95429229736328 164.5324249267578 C104.62108612060547 164.5324249267578 105.9722671508789 163.18124389648438 105.9722671508789 161.5144500732422 L105.9722671508789 159.2624969482422 L106.1371078491211 159.2624969482422 C112.50743103027344 159.2624969482422 117.68984985351562 154.07968139648438 117.68984985351562 147.6726531982422 C117.69023132324219 143.4363250732422 115.39569854736328 139.7265625 111.98516082763672 137.7160186767578 Z M108.4136734008789 130.603515625 C108.4136734008789 133.6457061767578 105.93867492675781 136.12069702148438 102.89686584472656 136.12069702148438 L91.7699203491211 136.12069702148438 L91.7699203491211 125.04999542236328 L102.89686584472656 125.04999542236328 C105.93867492675781 125.04999542236328 108.4136734008789 127.52461242675781 108.4136734008789 130.603515625 Z M106.13750457763672 153.2273406982422 L91.7699203491211 153.2273406982422 L91.7699203491211 142.1570281982422 L102.89686584472656 142.1570281982422 L106.13750457763672 142.1570281982422 C109.17929077148438 142.1570281982422 111.654296875 144.6316375732422 111.654296875 147.71054077148438 C111.654296875 150.7527313232422 109.17929077148438 153.2273406982422 106.13750457763672 153.2273406982422 Z"></path></svg>