<?xml version='1.0' encoding='utf-8'?>
<svg xmlns:svg="http://www.w3.org/2000/svg" id="_0380_fitness_2" data-name="0380_fitness_2" viewBox="0 0 500 500" data-imageid="fitness-2-76" imageName="Fitness 2" class="illustrations_image" style="width: 180px;"><svg:style>.cls-1_fitness-2-76{fill:#ff912e;}.cls-2_fitness-2-76{fill:#68e1fd;}.cls-3_fitness-2-76{fill:url(#linear-gradient);}.cls-4_fitness-2-76{fill:#162d71;}.cls-5_fitness-2-76{fill:#253479;}.cls-6_fitness-2-76{fill:#ffcdc0;}.cls-7_fitness-2-76{fill:#75bf34;}.cls-8_fitness-2-76{fill:#163791;}.cls-9_fitness-2-76{fill:#1c3ba3;}.cls-10_fitness-2-76{fill:#3f4144;}</svg:style><svg:path class="cls-6_fitness-2-76" d="M 216.2350157147384 183.36749489709877 L 216.23473566268788 183.36802744415297 L 216.003836135841 183.80774809727123 L 216.00355027233016 183.80829330543912 L 215.7635120366935 184.26678810961803 L 215.7632201838537 184.26734643074414 L 215.5143861234249 184.7441030078405 L 215.51408809604155 184.74467491580262 L 215.2568010948182 185.23918088767314 L 215.2564967000097 185.2397668796393 L 214.99109964198945 185.75150986814077 L 214.99078867885865 185.7521104659359 L 214.71762444803906 186.2805780929251 L 214.7173067072974 186.28119384451327 L 214.43671818767615 186.82587373184697 L 214.43639345124208 186.82650521293328 L 214.14872352681672 187.38688498246825 L 214.14839156738705 187.38753279823018 L 213.85398312215523 187.96310007182316 L 213.85364370274945 187.96376485877917 L 213.55283962070877 188.55400725828696 L 213.55249249418554 188.55468968631422 L 213.2456356593336 189.15909483359357 L 213.24528056787796 189.15979560810715 L 212.9327138642124 189.77785112501482 L 212.93235053879258 189.7785709893221 L 212.61441685031096 190.4097644977149 L 212.61404501010355 190.4105042355612 L 212.29108722080358 191.05432335729583 L 212.29070657258544 191.05508379561851 L 211.96306756646464 191.7110161525518 L 211.96267780396974 191.71179816446292 L 211.63070046502574 192.3793313784516 L 211.6303012682658 192.38013588647019 L 211.2943284804963 193.05875757937102 L 211.29391951504314 193.0595855589296 L 210.95429416244562 193.7487833525994 L 210.95387507867338 193.7496358358521 L 210.61094004524554 194.4488973521476 L 210.61051047753185 194.44977543210908 L 210.26460864727127 195.15858829288703 L 210.26416821315468 195.15949312793686 L 209.915642470059 195.87734495505407 L 209.9151907693522 195.87827777384325 L 209.56438399741901 196.60465618915646 L 209.56392061127585 196.60561829595892 L 209.21117569450277 197.34001092132493 L 209.21070018443814 197.3410037018804 L 208.85636000682277 198.08289815915592 L 208.85587191368495 198.08392308705749 L 208.50027935922495 198.83280699809936 L 208.49977820211956 198.8338656417847 L 208.1432761548125 199.58922662844964 L 208.1427614299788 199.59032065886333 L 207.7856927738223 200.35164634300813 L 207.78516395346307 200.3527775420093 L 207.42787157245473 201.1195555454907 L 207.4273281035213 201.12072581509207 L 207.07015488165877 201.89244375976688 L 207.0695961845954 201.89365513230018 L 206.71288500587627 202.6698006400251 L 206.71231047332859 202.67105528934275 L 206.35640422175047 203.4511159819746 L 206.35581321724516 203.45241623580952 L 206.00105477680566 204.2358797352051 L 206.00044663341177 204.23722808883028 L 205.6471788881085 205.0235820168463 L 205.64655290709334 205.02498114819264 L 205.29511874092395 205.81371312668585 L 205.29447419042125 205.8151659131003 L 204.9452164873833 206.6057635639275 L 204.94455260109672 206.60727310077974 L 204.5978142451879 207.39922404579772 L 204.59713022115935 207.40079366717254 L 204.2532540963772 208.19358552823806 L 204.25254909585814 208.1952188299867 L 203.9118780862003 208.98833922895648 L 203.91115123267463 208.99004009441953 L 203.5740282221387 209.7829766531504 L 203.57327860055955 209.78474928191363 L 203.24004647314314 210.57698962226232 L 203.23927312946137 210.57883856236094 L 202.91027476916213 211.36987030618425 L 202.90947671024765 211.3718004902361 L 202.58505500106315 212.16111125939076 L 202.5842311951438 212.1631280452159 L 202.26472902107167 212.95020546155868 L 202.26387839885038 212.95231467793062 L 201.94963864388825 213.73664636331833 L 201.94876010054028 213.73885436159827 L 201.64012564868574 214.51992793788764 L 201.63921804699118 214.52224165041724 L 201.57389198701384 214.69 L 201.59893850131604 214.69 L 201.6292180469912 214.61224165041727 L 201.63012564868578 214.60992793788768 L 201.93876010054032 213.8288543615983 L 201.9396386438883 213.82664636331836 L 202.25387839885042 213.04231467793065 L 202.2547290210717 213.0402054615587 L 202.57423119514382 212.25312804521593 L 202.5750550010632 212.2511112593908 L 202.89947671024768 211.46180049023613 L 202.90027476916217 211.45987030618429 L 203.2292731294614 210.66883856236097 L 203.23004647314318 210.66698962226235 L 203.56327860055956 209.87474928191367 L 203.56402822213875 209.8729766531504 L 203.9011512326747 209.08004009441953 L 203.90187808620033 209.0783392289565 L 204.24254909585818 208.28521882998672 L 204.24325409637723 208.2835855282381 L 204.58713022115938 207.49079366717257 L 204.58781424518793 207.48922404579776 L 204.93455260109675 206.69727310077977 L 204.93521648738334 206.69576356392753 L 205.2844741904213 205.90516591310032 L 205.285118740924 205.9037131266859 L 205.63655290709337 205.11498114819267 L 205.63717888810854 205.11358201684632 L 205.9904466334118 204.3272280888303 L 205.9910547768057 204.32587973520515 L 206.34581321724517 203.54241623580958 L 206.34640422175048 203.54111598197463 L 206.70231047332862 202.76105528934278 L 206.7028850058763 202.75980064002516 L 207.05959618459542 201.98365513230024 L 207.06015488165878 201.98244375976688 L 207.41732810352133 201.21072581509208 L 207.41787157245477 201.20955554549073 L 207.7751639534631 200.44277754200934 L 207.77569277382233 200.44164634300816 L 208.13276142997884 199.68032065886337 L 208.13327615481253 199.67922662844967 L 208.4897782021196 198.92386564178474 L 208.49027935922499 198.9228069980994 L 208.845871913685 198.17392308705752 L 208.8463600068228 198.17289815915595 L 209.20070018443818 197.43100370188043 L 209.2011756945028 197.43001092132496 L 209.55392061127588 196.69561829595895 L 209.55438399741905 196.6946561891565 L 209.90519076935223 195.96827777384328 L 209.90564247005904 195.9673449550541 L 210.2541682131547 195.2494931279369 L 210.2546086472713 195.24858829288706 L 210.60051047753188 194.5397754321091 L 210.6009400452456 194.53889735214761 L 210.94387507867347 193.8396358358521 L 210.94429416244566 193.83878335259942 L 211.28391951504315 193.14958555892963 L 211.28432848049633 193.14875757937105 L 211.62030126826585 192.47013588647022 L 211.62070046502578 192.46933137845164 L 211.95267780396978 191.80179816446295 L 211.95306756646468 191.80101615255182 L 212.28070657258547 191.14508379561855 L 212.2810872208036 191.14432335729586 L 212.6040450101036 190.50050423556124 L 212.604416850311 190.49976449771492 L 212.9223505387926 189.86857098932214 L 212.92271386421243 189.86785112501485 L 213.235280567878 189.24979560810718 L 213.23563565933364 189.2490948335936 L 213.54249249418558 188.64468968631425 L 213.5428396207088 188.644007258287 L 213.8436437027495 188.0537648587792 L 213.84398312215527 188.0531000718232 L 214.1383915673871 187.47753279823021 L 214.13872352681676 187.47688498246828 L 214.42639345124212 186.91650521293332 L 214.4267181876762 186.915873731847 L 214.70730670729745 186.3711938445133 L 214.7076244480391 186.37057809292514 L 214.9807886788587 185.84211046593595 L 214.9810996419895 185.8415098681408 L 215.24649670000974 185.32976687963932 L 215.24680109481824 185.32918088767317 L 215.50408809604158 184.83467491580265 L 215.50438612342495 184.83410300784053 L 215.75322018385373 184.35734643074417 L 215.75351203669354 184.35678810961807 L 215.9935502723302 183.89829330543915 L 215.99383613584104 183.89774809727126 L 216.22473566268792 183.458027444153 L 216.22501571473845 183.4574948970988 L 216.3796578572671 183.16385638046077 L 216.3377747643031 183.17237334490142 L 216.2350157147384 183.36749489709877 Z M 201.03919876353066 216.0749919694014 L 201.03822952872937 216.07754057121198 L 200.7484682901833 216.84576555134697 L 200.74746644678623 216.84844485830965 L 200.46468204733824 217.6113622167734 L 200.46364639589422 217.61418224386424 L 200.18818171954186 218.37127960251348 L 200.1871110758015 218.37425138156203 L 199.91930900654245 219.12501636225355 L 199.9182022222201 219.12815206966204 L 199.65840564405192 219.8720722942526 L 199.65726163392947 219.87538539762747 L 199.40581343084978 220.61194848797385 L 199.40463120798637 220.61545391483722 L 199.16187426399284 221.34414749279617 L 199.1606529853061 221.34786182511874 L 198.92693018439624 222.06817351254705 L 198.9256692095378 222.0721152115232 L 198.70132343570933 222.78353263027762 L 198.7000224030142 222.78772229655897 L 198.48539654026467 223.4897330684963 L 198.4840554646766 223.49419374403584 L 198.27949239700365 224.1862854910128 L 198.27811179635583 224.1910430097503 L 198.08395440775706 224.87270335362368 L 198.08253546573587 224.87778674947822 L 197.8991266402089 225.5485033121048 L 197.8976714169025 225.5539452941196 L 197.72535403844495 226.21320569735613 L 197.72386574279645 226.2190432033308 L 197.5629826954059 226.86633506903408 L 197.56146603842512 226.87260991050192 L 197.4123602060992 227.50742086052864 L 197.410821859724 227.51418047332857 L 197.2738361264603 228.13599812953558 L 197.2722853209842 228.14329644520421 L 197.1477625707804 228.75160842944825 L 197.146211874432 228.75950688270336 L 197.03449499128567 229.3538008168412 L 197.03296132966878 229.36236950267826 L 196.93439319757755 229.94213300856666 L 196.9328991892712 229.95145199750309 L 196.84782269223265 230.5161726969988 L 196.8463984010475 230.52633350641162 L 196.7751564230593 231.07549902137143 L 196.77384165839186 231.0866062208731 L 196.76653058508538 231.15490635651312 L 196.83639840104755 230.61633350641165 L 196.8378226922327 230.60617269699884 L 196.92289918927125 230.04145199750312 L 196.9243931975776 230.0321330085667 L 197.02296132966882 229.4523695026783 L 197.0244949912857 229.44380081684122 L 197.13621187443204 228.8495068827034 L 197.13776257078044 228.84160842944826 L 197.26228532098426 228.23329644520422 L 197.26383612646035 228.22599812953564 L 197.400821859724 227.60418047332863 L 197.40236020609925 227.59742086052867 L 197.55146603842516 226.96260991050195 L 197.55298269540594 226.9563350690341 L 197.7138657427965 226.30904320333084 L 197.71535403844499 226.30320569735616 L 197.88767141690255 225.64394529411962 L 197.88912664020893 225.63850331210483 L 198.0725354657359 224.96778674947825 L 198.0739544077571 224.9627033536237 L 198.26811179635587 224.28104300975033 L 198.2694923970037 224.27628549101283 L 198.47405546467664 223.58419374403587 L 198.4753965402647 223.57973306849632 L 198.69002240301424 222.877722296559 L 198.69132343570936 222.87353263027765 L 198.91566920953784 222.16211521152323 L 198.91693018439628 222.15817351254708 L 199.15065298530612 221.43786182511877 L 199.15187426399288 221.43414749279617 L 199.39463120798644 220.70545391483722 L 199.39581343084984 220.7019484879739 L 199.6472616339295 219.96538539762753 L 199.64840564405196 219.96207229425264 L 199.90820222222013 219.21815206966207 L 199.9093090065425 219.21501636225358 L 200.17711107580155 218.46425138156206 L 200.1781817195419 218.4612796025135 L 200.45364639589425 217.70418224386427 L 200.45468204733828 217.70136221677342 L 200.73746644678627 216.93844485830968 L 200.73846829018333 216.93576555134703 L 201.02822952872938 216.16754057121204 L 201.02919876353067 216.1649919694014 L 201.21132250679335 215.69 L 201.18681426676076 215.69 L 201.03919876353066 216.0749919694014 Z M 207.49940536269722 247.58167158191986 L 207.5016374127079 247.58336823594087 L 207.91963137127118 247.89925393715257 L 207.9217615201016 247.90085482978446 L 208.34327181744294 248.2158827335543 L 208.34530304801459 248.21739283461645 L 208.77005846876634 248.5315074735061 L 208.77199356819523 248.53293133714237 L 209.19972289698975 248.84607724371344 L 209.2015644599313 248.84741904018847 L 209.63199648140096 249.15954074700258 L 209.6337469134803 249.160804291212 L 210.0666104122575 249.47184633083072 L 210.06827193344168 249.47303510781828 L 210.50329569415874 249.78294201280323 L 210.50487034195368 249.7840592005448 L 210.94178314924298 250.0927755034576 L 210.94327278161472 250.09382399314143 L 211.3818034201086 250.4012942265437 L 211.38320971804538 250.40227664054885 L 211.82308697237627 250.7084453370022 L 211.8244114420171 250.70936404475006 L 212.2653640968173 251.01417573681613 L 212.2666080710827 251.0150328686468 L 212.7083649109846 251.31843208888716 L 212.70952955064786 251.3192295480883 L 213.15181936028387 251.62116082906456 L 213.15290565442717 251.62190030216044 L 213.5954572184296 251.92230817643426 L 213.5964659842273 251.92299114182077 L 214.03900808722855 252.2218201419537 L 214.03993996900084 252.2224478769459 L 214.48220139563324 252.5196425354996 L 214.48305686310988 252.52021612183907 L 214.92476639800583 252.81572097137513 L 214.92554574373446 252.81624129922403 L 215.36643217152633 253.11000087230408 L 215.36713550735493 253.1104686427341 L 215.80692761267503 253.40242747191976 L 215.8075548652286 253.40284319788307 L 216.24598143270936 253.69294581573592 L 216.24653233777136 253.6933098214831 L 216.6833221520451 253.98150076056476 L 216.68379624774278 253.9818131794526 L 217.1186780934419 254.26803697232467 L 217.55177737387623 254.55249892215443 L 217.9823478949702 254.83483088072182 L 218.41011733182276 255.11497691058338 L 218.83481312006975 255.3928808564151 L 219.25615806722584 255.6684834720167 L 219.67384459525712 255.94170556735816 L 220.08763693873138 256.21251482615344 L 220.49726123245003 256.4808539189619 L 220.9024432575418 256.7466651935478 L 221.30290841053744 257.00989064321294 L 221.69838166720584 257.2704718690132 L 222.08858754274638 257.52835003637585 L 222.4732500449415 257.78346582322234 L 222.85209262196122 258.03575935988715 L 223.22483810188464 258.2851701578591 L 223.5912086239292 258.5316370260401 L 223.95092555955625 258.7750979716647 L 224.30370942217033 259.01549008295206 L 224.6492797632148 259.25274938937366 L 224.9873550530321 259.4868106950653 L 225.31765254357887 259.71760737907135 L 225.63988811040474 259.9450711550468 L 225.95377607055278 260.1691317808288 L 226.2590289726691 260.38971670576956 L 226.5553573552287 260.60675064040515 L 226.84246946836015 260.8201550286178 L 227.12007095467442 261.0298473967659 L 227.38786448466325 261.235740546655 L 227.64554934305016 261.43774154912387 L 227.89282096483313 261.63575048186414 L 228.12937042367145 261.8296588370862 L 228.3548838834391 262.01934750124866 L 228.56904203749667 262.2046841775192 L 228.7715195846355 262.38552008048515 L 228.9619848317792 262.56168567889017 L 229.14009958358778 262.7329851947874 L 229.26960211868203 262.86310171942887 L 229.28280507945775 262.83947122331824 L 229.29941570546103 262.8097565555241 L 229.31544144744714 262.7811023232861 L 229.33087452201244 262.75352124920823 L 229.34570714557444 262.7270260562586 L 229.35993153437394 262.7016294677637 L 229.37353990447244 262.67734420741226 L 229.38652447175104 262.6541829992548 L 229.3988774519043 262.6321585677134 L 229.4105910604331 262.6112836375932 L 229.42165751262831 262.59157093410965 L 229.43206902355138 262.5730331829217 L 229.44181780800088 262.55568311018953 L 229.45089608045686 262.5395334426723 L 229.4592960549988 262.5245969078718 L 229.46700994516107 262.51088623428734 L 229.47402996369019 262.49841415184426 L 229.48034832210726 262.4871933926673 L 229.48595722985164 262.47723669259534 L 229.4908488925011 262.4685567943304 L 229.49501550761434 262.46116645479475 L 229.49844925342438 262.4550784651416 L 229.5011422503999 262.450305718786 L 229.5030863690297 262.4468615516056 L 229.5042707290367 262.44476416820277 L 229.50465510539905 262.4440837078498 L 229.51002973372746 262.4471197114566 L 229.56063146686546 263.00614044427846 L 230.35135371333075 262.41677228001106 L 230.3564956347474 262.4133569335112 L 230.473035700491 262.58881200372673 L 230.5882785292021 262.7510536682322 L 230.7064051072005 262.9066577064262 L 230.82733307172919 263.0557739425333 L 230.95098519845996 263.19855179786316 L 231.07728930721848 263.3351395188849 L 231.20617803035262 263.46568340543496 L 231.33758844604114 263.5903270684134 L 231.47146158601285 263.70921074601273 L 231.60774183392206 263.8224707051729 L 231.746376236501 263.9302387507973 L 231.88731375403043 264.032641859588 L 232.03050447924142 264.12980194863104 L 232.17589885438764 264.22183578173434 L 232.32344691488234 264.3088550095481 L 232.47309758479022 264.39096633322066 L 232.62479804512532 264.4682717763015 L 232.77849319048812 264.54086904587007 L 232.93412518409886 264.60885196187724 L 233.09163311554187 264.6723109329938 L 233.25095276064562 264.7313334580892 L 233.41201643845866 264.7860046341979 L 233.57475295714738 264.8364076544847 L 233.73908763806247 264.8826242826464 L 233.90494240608203 264.9247352934535 L 234.07223593359126 264.96282087215775 L 234.24088382588175 264.99696096841257 L 234.4107988362762 265.0272356027708 L 234.58189110058325 265.0537251259168 L 234.75406838173518 265.0765104323648 L 234.92723631696978 265.0956731315379 L 235.10129866127608 265.1112956799147 L 235.27615752240558 265.1234614784082 L 235.45171358371383 265.13225493929264 L 235.62786631243978 265.13776152699575 L 235.80451415187173 265.1400677768813 L 235.9815546965411 265.1392612958608 L 236.1588848503855 265.1354307483283 L 236.3364009680346 265.1286658305249 L 236.5139989800226 265.1190572360476 L 236.69157450266925 265.10669661484013 L 236.86902293380325 265.09167652763546 L 237.0462395353767 265.0740903974972 L 237.2231195042124 265.05403245980233 L 237.39955803198873 265.0315977117558 L 237.57545035565516 265.0068818622886 L 237.75069179935673 264.9799812829999 L 237.92517780881371 264.9509929606528 L 238.09880397917735 264.92001445157064 L 238.27146607713246 264.8871438381981 L 238.44306005810915 264.8524796879673 L 238.6134820792064 264.8161210145708 L 238.7826285085229 264.7781672416533 L 238.95039593134246 264.73871816892455 L 239.11668115385638 264.6978739405978 L 239.28138120452434 264.65573501614926 L 239.44439333378864 264.612402143224 L 239.60561501223887 264.56797633263295 L 239.76494392755097 264.5225588353162 L 239.92227798046468 264.4762511211503 L 240.07751528003217 264.42915485946855 L 240.23055413820433 264.381371901211 L 240.38129306403488 264.33300426254897 L 240.5296307574865 264.28415410991823 L 240.67546610311317 264.23492374630155 L 240.81869816349828 264.1854155987277 L 240.95922617278842 264.13573220680445 L 241.09694953001616 264.085976212323 L 241.23176779269374 264.0362503496997 L 241.36358067036298 263.9866574373045 L 241.4922880182826 263.93730036955185 L 241.61778983132916 263.88828210966784 L 241.73998623800148 263.8397056831229 L 241.8587774946112 263.791674171647 L 241.97406397976093 263.7442907077414 L 242.0857461888643 263.6976584697382 L 242.1937247290753 263.65188067721925 L 242.29790031425165 263.6070605869082 L 242.39817376031326 263.563301488848 L 242.49444598068095 263.52070670296354 L 242.5866179821187 263.47937957583565 L 242.67459086067655 263.4394234777897 L 242.7582657980768 263.4009418001151 L 242.83754405833125 263.3640379524822 L 242.91232698479962 263.3288153604312 L 242.98251599778393 263.2953774628575 L 243.0480125927977 263.2638277093945 L 243.10871834001858 263.2342695574089 L 243.16453488529885 263.2068064683734 L 243.21536395428495 263.18154190278256 L 243.26110736200417 263.15857931231346 L 243.30166703331903 263.13802212630577 L 243.33694504749204 263.11997372541737 L 243.36684374203278 263.10453738350077 L 243.39126598650216 263.091816118105 L 243.4101160684778 263.0819122117218 L 243.42313772295114 263.075012993935 L 243.43410355361237 263.06914529992105 L 243.4785440755032 263.04810755691926 L 243.524836011884 263.03153639996935 L 243.57253171109804 263.019592075249 L 243.6211699468403 263.01239008660554 L 243.67028037830175 263.010000078612 L 243.71938809845275 263.01244516309134 L 243.76801822648252 263.0197016956207 L 243.8157004999851 263.0316995041774 L 243.86197382248463 263.0483225677157 L 243.9063907223241 263.0694101381113 L 243.94852167979982 263.0947582946265 L 243.987959280697 263.12412191586117 L 244.0243221560612 263.1572170501227 L 244.05725867010722 263.1937236612916 L 244.08645032060264 263.23328872363066 L 244.0881571965244 263.2358575709656 L 244.08852666441268 263.23641442690615 L 244.09359386534766 263.2440627188244 L 244.09400672705974 263.244686894807 L 244.1023541127625 263.25732725618013 L 244.1027793850347 263.2579723249735 L 244.1143268152598 263.2755173806728 L 244.11476122062544 263.2761785504461 L 244.12802817354859 263.29640585043467 L 244.12643468136184 263.2731718705969 L 244.11285873209258 263.1647817042667 L 244.10596459350526 263.1237008128824 L 244.0802151183435 263.0016574942765 L 244.0726779488546 262.97081659583176 L 244.03499054528106 262.8354032747833 L 244.02774552656683 262.81166829754824 L 243.9783557920623 262.66316812389044 L 243.97172174159633 262.64446891637573 L 243.9108652736416 262.48316503994175 L 243.90490987674838 262.4681214789429 L 243.83282227282425 262.294297049566 L 243.82751526672666 262.2819704581668 L 243.74443212431385 262.0959086256801 L 243.739709604913 262.08564572874377 L 243.64586652149234 261.8876296429805 L 243.6416576552489 261.87896527214906 L 243.53729022830112 261.6692780829424 L 243.53352784845922 261.66187379702524 L 243.4188716754651 261.44079865420844 L 243.41549593509345 261.4344032857791 L 243.2907866135338 261.20222333918537 L 243.28774569028144 261.196647098071 L 243.15321881763703 260.95364549753344 L 243.15046843301772 260.9487426107183 L 243.0896553419181 260.84175015312377 L 242.821168269874 260.6661918587177 L 242.39983535508557 260.3907005074657 L 241.97514995333023 260.11290475694506 L 241.54738853162934 259.8328632760039 L 241.11682390140456 259.55063227965354 L 240.68372863427464 259.2662677648631 L 240.2488512511175 258.98013921067513 L 240.2483750750237 258.97982552032977 L 239.81158836288648 258.6917264189188 L 239.81103535279308 258.6913611341175 L 239.37261077438995 258.4013470147584 L 239.37198139067166 258.400929999343 L 238.93219040871662 258.1090563913109 L 238.93148491383644 258.1085873180528 L 238.49059899104356 257.8149097506225 L 238.48981745637943 257.8143881034047 L 238.04810805546282 257.5189621058514 L 238.04725036693344 257.5183871802355 L 237.60498895060712 257.22126828183406 L 237.60405481320112 257.2206391840728 L 237.16151284417919 256.92188291409826 L 237.1605017854758 256.9211985586268 L 236.71795072647234 256.62086044635424 L 236.71686209923362 256.6201195517729 L 236.2745734129627 256.3182551264772 L 236.2734063968696 256.31745621001846 L 235.83165154604526 256.0141210009746 L 235.83040514864106 256.01326237142575 L 235.38945559597738 255.70851190790884 L 235.3881286528805 255.70759165694406 L 234.9482558610916 255.40148146822904 L 234.94684703553497 255.40049746008347 L 234.50832246733486 255.09308307544532 L 234.50683024908793 255.0920329348443 L 234.06992536719068 254.78336988355807 L 234.0683480709223 254.78225098179436 L 233.63333433804203 254.47239479313498 L 233.6316701011847 254.4712042321657 L 233.19881898003544 254.1602104354082 L 233.19706576021537 254.15894502981817 L 232.76664871351122 253.84686915423754 L 232.76480428561976 253.84552541089474 L 232.33709277607477 253.532422985766 L 232.33515472906473 253.53099708096508 L 231.91042021939296 253.21692363556318 L 231.90838595290035 253.21541138942823 L 231.4868999058159 252.90042245302823 L 231.4847666267253 252.89881930091212 L 231.06680050494222 252.58297040278896 L 231.06456522403997 252.58127136337703 L 230.65039049027231 252.2646180328057 L 230.64805001916068 252.2628176725933 L 230.23793813612258 251.94541543884884 L 230.23548908460788 251.9435078326255 L 229.82971151501334 251.6254122249829 L 229.82715028922715 251.62339091191566 L 229.42597849579028 251.30465745964992 L 229.42330129736226 251.30251539451376 L 229.0270067427971 250.98319962689988 L 229.0242095694688 250.9809291259601 L 228.6330637164895 250.66108657227304 L 228.63014236464713 250.65867925327777 L 228.24441667596764 250.33836544279254 L 228.24136674567802 250.3358121584882 L 227.8613326840125 250.01508262047983 L 227.85814958727838 250.01237338501983 L 227.78620336375744 249.95061720593077 L 227.77237788896306 249.94828012576394 L 227.72465983813728 249.9352572294164 L 227.67846201336914 249.91758326012305 L 227.63423652656698 249.89543118299702 L 227.59241618748604 249.86901778785278 L 227.55341026806514 249.83860156760736 L 227.45785242455503 249.75617134764423 L 227.4570365774742 249.75546604467763 L 227.36188129028955 249.67302444677844 L 227.36105594023272 249.67230779081268 L 227.26630784711915 249.5898556806899 L 227.26547290939462 249.58912747035092 L 227.17113664809784 249.50666571371713 L 227.17029203729538 249.5059257429024 L 227.0763722455611 249.42345520547013 L 227.07551787557938 249.42270326323305 L 226.98201919115323 249.3402248107148 L 226.9811549752295 249.33946068114582 L 226.8880820358572 249.25697517925414 L 226.88720788659907 249.25619864135913 L 226.7945653300263 249.17370695580652 L 226.79368115944624 249.17291778338188 L 226.70147362341868 249.0904207798809 L 226.70057934297074 249.0896187413855 L 226.60881146523408 249.00711728564866 L 226.60790698585402 249.00630214407286 L 226.51658340415395 248.92379710181268 L 226.51566863630188 248.92296861454432 L 226.42479398838407 248.84046085147335 L 226.42386884208977 248.83961877015943 L 226.3334477656999 248.75710915199016 L 226.33251215061284 248.7562532223968 L 226.24254928349663 248.6737426148418 L 226.24160310893748 248.6728725767093 L 226.1521030888406 248.59036184548108 L 226.15114626385827 248.58947743237678 L 226.06211372852636 248.50696744318788 L 226.06114616195737 248.5060683823546 L 225.97258574913616 248.42356000091755 L 225.97160734966923 248.42264601311945 L 225.8835236971044 248.34014010514676 L 225.8825343733485 248.3392109045109 L 225.79493211878574 248.2567083357151 L 225.7939317793432 248.25576362956994 L 225.70681556052818 248.17326526566356 L 225.70580411407224 248.1723047543736 L 225.61917856875064 248.08981146106916 L 225.61815592410832 248.08883483786641 L 225.53202569002585 248.00634748087646 L 225.53099175626565 248.00535443168764 L 225.44536147116796 247.92287387672468 L 225.44431615769358 247.92186407999534 L 225.35919045932636 247.83939119277193 L 225.35813367597603 247.8383643192868 L 225.273517202085 247.75589996551543 L 225.27244885923753 247.75485567821534 L 225.18834624756835 247.67240072360855 L 225.1872662562547 247.67133867740336 L 225.10368214455303 247.5888939876737 L 225.10259041657503 247.58781382925142 L 225.01952944258662 247.50538027011137 L 225.0184258906446 247.5042816377458 L 224.93589269211506 247.42186007490798 L 224.9347772299393 247.42074259825895 L 224.85277644461436 247.3383338974358 L 224.8516489871091 247.33719719735063 L 224.77018525273442 247.2548022242547 L 224.76904571612639 247.2536459125628 L 224.68812367044768 247.17126553290663 L 224.68697197244555 247.1700892122123 L 224.6065962532085 247.08772429170844 L 224.60543231317072 247.08652755518037 L 224.52560755812098 247.00417895954126 L 224.52443129723417 247.0029613906995 L 224.44516214411746 246.9206299856378 L 224.44397348558346 246.91939115813653 L 224.36526457214543 246.83707780936464 L 224.36406344138098 246.8358172867742 L 224.28591940536734 246.75352286000472 L 224.2847057302129 246.75224019558885 L 224.20713120936932 246.6699655565343 L 224.2059049203117 246.66866029302764 L 224.12890455238386 246.58640630740052 L 224.1276655827894 246.5850779767818 L 224.05124400552302 246.50284551029466 L 224.04999229188485 246.50149363355987 L 223.97415414302557 246.41928355192525 L 223.9728896252237 246.41790763885817 L 223.94720480749962 246.38985512782534 L 223.75465424677057 246.4366793358183 L 223.75224105727213 246.43725983226994 L 223.52270700692858 246.49187228339636 L 223.5202909655555 246.4924407935281 L 223.29048864492458 246.54591315571454 L 223.28806981121272 246.54646966551715 L 223.0580048830462 246.59880062110634 L 223.05558331660004 246.59934511686646 L 222.82526145012076 246.65053337632742 L 222.82283721061208 246.65106584462768 L 222.59226408137428 246.70111014658755 L 222.58983722854094 246.70163057430688 L 222.35901851829058 246.75052968558208 L 222.35658911193448 246.75103805989627 L 222.12553050846896 246.79879077552275 L 222.12309860845528 246.7992870839045 L 221.89180580548341 246.84589222716752 L 221.88937147173874 246.84637645738684 L 221.6578501687405 246.89183287985006 L 221.65541346125104 246.89230501997469 L 221.42366936333707 246.9366116015082 L 221.42123034214805 246.93707163990365 L 221.189269159919 246.98022728871186 L 221.18682788513217 246.980675214042 L 220.95465533453813 247.02267886669034 L 220.95221186631116 247.02311466791744 L 220.71983366851066 247.06396528935872 L 220.71738806705488 247.0643889557439 L 220.484809948274 247.10408553934363 L 220.48236227385374 247.10449706044687 L 220.24958996524495 247.14303862800827 L 220.24714027817532 247.14343799368902 L 220.01417951567635 247.180823595477 L 220.01172787632214 247.18121079589412 L 219.77858440051455 247.2174395106587 L 219.77613086928864 247.21781453627085 L 219.5428104252563 247.25288547126988 L 219.54035506261835 247.25324831283575 L 219.30686339980608 247.28716060385693 L 219.3044062662605 247.28751125243548 L 219.07074913833216 247.32026406381755 L 219.06829029442753 247.32060251076805 L 218.8344734591244 247.3521950354216 L 218.8320129654509 247.3525212724042 L 218.59804218444975 247.38295273183127 L 218.59558010163852 247.38326675080683 L 218.3614611404096 247.41253639512027 L 218.35899752913107 247.4128381883508 L 218.12473615679605 247.44094529629285 L 218.12227107775786 247.44123485634162 L 217.88787306694772 247.4681787353014 L 217.88540658089414 247.4684560550331 L 217.65087770760687 247.49423604106389 L 217.64840987531662 247.49450111364487 L 217.41375591877488 247.51911657148042 L 217.41128680105982 247.5193693903788 L 217.17651354356855 247.54281971344898 L 217.17404320127235 247.54306027243484 L 216.93915642807636 247.56534488288054 L 216.93668492207274 247.56557317602605 L 216.70169042121398 247.5866915247135 L 216.69921781240546 247.5869075463931 L 216.46412137458051 247.60685911292737 L 216.4616477238967 247.6070628578179 L 216.2264551423141 247.62584715055573 L 216.22398051071022 247.62603861363652 L 215.98869758094764 247.64365516969835 L 215.98622202940322 247.64383434625145 L 215.75085454926463 247.66028273153296 L 215.74837813878193 247.66044961714306 L 215.51293190815488 247.67572942632583 L 215.51045469975693 247.67588401688062 L 215.27493552046946 247.68999487344198 L 215.2724575751995 247.69013716513203 L 215.03687125087717 247.7030787213546 L 215.03439262979623 247.70320871067355 L 214.79874496571938 247.71498064765356 L 214.79626572990517 247.71509833139834 L 214.56056253286548 247.7257003590536 L 214.55808274341103 247.72580573432415 L 214.32232982156862 247.73523759140124 L 214.3198495395804 247.73533065560102 L 214.08405270232083 247.7435921096816 L 214.0815719889177 247.74367286051725 L 213.84573704670854 247.75076370802392 L 213.84325596301974 247.75083214350565 L 213.60738872726768 247.75675220970692 L 213.60490733443163 247.75680832814834 L 213.36901361733902 247.76155746716285 L 213.3665319765019 247.76160126718105 L 213.1306175909237 247.7651793619813 L 213.12813576323762 247.76521084249703 L 212.89220652253803 247.76761780491216 L 212.88972456915988 247.76763696514968 L 212.65378628706924 247.76887273586775 L 212.65130426915886 247.76887957535487 L 212.41536275963028 247.7689441239242 L 212.4128807383492 247.7689386424924 L 212.1769418154153 247.76783196732242 L 212.17445985192487 247.7678141651068 L 211.9385293295545 247.76553629346796 L 211.9360474850152 247.76550617090717 L 211.7001311769703 247.76205715893045 L 211.6976495125392 247.76201471676677 L 211.4617532322314 247.75739464944218 L 211.45927180906125 247.7573398887215 L 211.2234013694086 247.751548879896 L 211.2209202486461 247.75148180196769 L 210.98508146192995 247.7445199943423 L 210.98260070471474 247.74444060085926 L 210.7467993824365 247.73630816598583 L 210.74431904989885 247.73621645890452 L 210.50856100263658 247.72691359718115 L 210.5060811558965 247.72680957876136 L 210.2703721931621 247.7163365194277 L 210.26789289332748 247.71622019223264 L 210.0322388234231 247.7045771933641 L 210.02976013158855 247.70444856026026 L 209.7941667614638 247.69163590876173 L 209.7916887387088 247.69149497291892 L 209.5561618738176 247.6775129845177 L 209.55368458120515 247.67735974940882 L 209.31823002536242 247.66220876864682 L 209.31575352393764 247.6620432380479 L 209.0803770791766 247.64572363827313 L 209.0779014299651 247.64554581626305 L 208.84260889639418 247.62805799962052 L 208.84013416040028 247.62786789058123 L 208.60493133606013 247.60921228800282 L 208.60245757426603 247.60900989661891 L 208.36735025498672 247.589186967813 L 208.36487752835046 247.5889722990718 L 208.12987150760864 247.5679825325118 L 208.12739987706277 247.5677555917031 L 207.89250094583892 247.54559950461547 L 207.89003047228888 247.54536029733154 L 207.65524441892455 247.522038435683 L 207.6527751632474 247.52178696781831 L 207.4181077733027 247.4972999063024 L 207.38174874770553 247.49171536356167 L 207.49940536269722 247.58167158191986 Z M 221.10957549451234 231.10477364834122 L 221.1086684123849 231.10367894512743 L 221.06344624587317 231.04926067398185 L 221.04613165881193 231.06688174637776 L 221.08998509037008 231.1195786617419 L 221.09043150073433 231.1201158579154 L 221.1448795420082 231.185730096413 L 221.14529769511677 231.18623467681175 L 221.20132343563594 231.25393052108242 L 221.20171617765618 231.25440566687936 L 221.21077758497307 231.26538207944765 L 221.21138430051982 231.26300651973042 L 221.2183448216336 231.23642135816263 L 221.10957549451234 231.10477364834122 Z" id="element_86" /></svg>