<?xml version='1.0' encoding='utf-8'?>
<svg xmlns:svg="http://www.w3.org/2000/svg" version="1.1" id="Layer_1" x="0px" y="0px" viewBox="0 0 500 500" style="width: 180px;" xml:space="preserve" data-imageid="summer-landscape-48" imageName="Summer Landscape" class="illustrations_image"><svg:style type="text/css">
	.st0_summer-landscape-48{fill:#FFC745;}
	.st1_summer-landscape-48{fill:#68E1FD;}
	.st2_summer-landscape-48{opacity:0.56;fill:#01B1C8;enable-background:new    ;}
	.st3_summer-landscape-48{opacity:0.64;}
	.st4_summer-landscape-48{fill:#636560;}
	.st5_summer-landscape-48{opacity:0.63;}
	.st6_summer-landscape-48{fill:url(#SVGID_1_);}
	.st7_summer-landscape-48{fill:#6A9546;}
	.st8_summer-landscape-48{fill:#D8876A;}
	.st9_summer-landscape-48{fill:#85B23B;}
	.st10_summer-landscape-48{fill:#A55942;}
	.st11_summer-landscape-48{fill:#7F3726;}
</svg:style><svg:path class="st0_summer-landscape-48" d="M 384.9 346.8 L 385.0 346.8 L 385.0517565738046 346.79731404270143 L 385.1029570838205 346.78928502827205 L 385.15305144051354 346.77599921907154 L 385.20150143867176 346.7575993555647 L 385.2477865397904 346.73428312274217 L 386.24980674181063 346.162565951025 L 387.2518269438308 345.5908487793078 L 388.25384714585095 345.01913160759074 L 390.25788754989145 343.8756972641563 L 391.2599077519116 343.30398009243913 L 393.26394815595205 342.16054574900477 L 394.2659683579722 341.58882857728764 L 396.27000876201265 340.4453942338533 L 397.2720289640328 339.8736770621361 L 398.27404916605303 339.3019598904189 L 399.2760693680732 338.73024271870185 L 400.2780895700934 338.1585255469846 L 403.28415017615407 336.44337403183306 L 404.28617037817423 335.8716568601159 L 405.2881905801944 335.2999396883988 L 406.2902107822147 334.72822251668157 L 407.29223098423483 334.1565053449644 L 409.2962713882753 333.01307100153 L 410.29829159029543 332.4413538298129 L 413.3043521963561 330.72620231466135 L 414.30637239837625 330.15448514294417 L 415.3083926003965 329.582767971227 L 416.31041280241664 329.0110507995099 L 417.31243300443685 328.4393336277927 L 419.3164734084773 327.2958992843583 L 420.31849361049746 326.72418211264113 L 421.3205138125176 326.15246494092406 L 422.3225340145379 325.5807477692068 L 423.32455421655806 325.00903059748964 L 426.3306148226187 323.2938790823381 L 427.3326350246389 322.72216191062097 L 429.3366754286793 321.5787275671866 L 430.3386956306995 321.0070103954694 L 431.3407158327197 320.43529322375224 L 432.34273603473986 319.86357605203517 L 433.34475623676013 319.29185888031793 L 434.3467764387803 318.72014170860075 L 436.35081684282073 317.5767073651664 L 437.3528370448409 317.0049901934492 L 438.35485724686106 316.43327302173213 L 439.35687744888133 315.8615558500149 L 440.3588976509015 315.2898386782977 L 442.36293805494194 314.14640433486335 L 443.3649582569621 313.5746871631462 L 446.37101886302275 311.8595356479947 L 447.3730390650429 311.2878184762775 L 448.37505926706314 310.7161013045603 L 449.3770794690833 310.14438413284324 L 450.3790996711035 309.572666961126 L 453.3851602771642 307.85751544597446 L 454.38718047918434 307.28579827425733 L 456.3912208832248 306.14236393082297 L 457.39324108524494 305.5706467591058 L 459.3972814892854 304.4272124156714 L 460.39930169130554 303.85549524395424 L 461.4013218933257 303.28377807223717 L 462.403342095346 302.71206090051993 L 463.40536229736614 302.14034372880275 L 464.40738249938636 301.56862655708557 L 465.4094027014065 300.9969093853685 L 466.41142290342674 300.42519221365126 L 468.4154633074672 299.2817578702169 L 469.41748350948734 298.7100406984997 L 470.4195037115076 298.1383235267826 L 471.4215239135278 297.5666063550654 L 473.4255643175682 296.42317201163104 L 474.4275845195884 295.85145483991386 L 475.4296047216086 295.2797376681967 L 476.43162492362876 294.7080204964796 L 477.433645125649 294.13630332476237 L 479.4376855296894 292.992868981328 L 480.4397057317096 292.4211518096108 L 482.44374613575 291.27771746617645 L 483.4457663377702 290.70600029445933 L 484.4477865397904 290.13428312274215 L 484.45831606986707 290.1281037351489 L 484.66789940448865 290.0016419950049 L 484.6790342971947 289.9947225173591 L 484.88355259516266 289.86388274528883 L 484.8945292804343 289.85665541105703 L 485.093998619267 289.7215285068759 L 485.10479869029916 289.7140029009975 L 485.2992351475149 289.574679764521 L 485.30984097444565 289.56686669887426 L 485.49926062756293 289.4234382299178 L 485.50965548815134 289.4153496470053 L 485.6940744146884 289.26790674538427 L 485.7042426119775 289.25955560804107 L 485.88367688945283 289.1081891735709 L 485.89360385444013 289.0995893428983 L 486.068069560372 288.94439027539437 L 486.0777419381139 288.93555637938675 L 486.24725515002075 288.77661557866446 L 486.25666086805956 288.76756287415935 L 486.42123766345975 288.6049712400342 L 486.4303659819264 288.5957154706988 L 486.5900224383383 288.42956390298616 L 486.5988639815593 288.4201211560449 L 486.7536161765013 288.25050055456023 L 486.7621629463942 288.2408871188653 L 486.9120269573846 288.06788838342396 L 486.9202723293399 288.0581206113058 L 487.06526423389715 287.88183464172323 L 487.07320293621746 287.87192881681364 L 487.2133388118599 287.69244651290524 L 487.22096689013244 287.6824187258439 L 487.3562628143785 287.4998309874251 L 487.36357758240143 287.48969702103426 L 487.4940496327694 287.3040947479205 L 487.5010496118205 287.29386997309365 L 487.6267138658288 287.1053440651004 L 487.6333987141748 287.0950433483008 L 487.7542712493418 286.90368470524334 L 487.7606416839177 286.8933223281729 L 487.8767385777618 286.6992218498668 L 487.8827962899333 286.6888114415457 L 487.9941336199728 286.4920600278062 L 487.9998811872193 286.4816145090168 L 488.1064750309726 286.28230305965945 L 488.11191582621825 286.2718345994471 L 488.2137822612038 286.0700540142873 L 488.21892036137115 286.0595739980056 L 488.3160754651072 285.8554151768587 L 488.32091556030326 285.8449341850643 L 488.4133754103083 285.6384880277458 L 488.41792271486696 285.62801582511787 L 488.50570338865924 285.41937323144316 L 488.5099635550722 285.4089187648139 L 488.5930811301702 285.19817063459834 L 488.5970601667529 285.1877420391147 L 488.6755307206749 284.9749792721738 L 488.67923491362825 284.9645838845968 L 488.75307452389274 284.7498973807459 L 488.7565103642534 284.73954175888576 L 488.8257351083787 284.52302241794035 L 488.8289092241903 284.5127123652651 L 488.8935351796947 284.29445108704056 L 488.89645427359636 284.2841916815283 L 488.95649751799834 284.06427936584004 L 488.95916831030195 284.0540749922138 L 489.01464492111984 283.83260253887727 L 489.0170740983434 283.8224569234272 L 489.0680001530956 283.5995152322578 L 489.07019432183597 283.5894314795297 L 489.11658589804085 283.3651114503428 L 489.1185515439964 283.35509208105515 L 489.1604247191722 283.12948461366625 L 489.16216817107437 283.1195316032934 L 489.1995390227397 282.8927275975179 L 489.2010664209128 282.8828424150556 L 489.2339510265859 282.65493277070885 L 489.2352682958256 282.6451164172189 L 489.2636827330249 282.41619203411636 L 489.2647955594713 282.4064450807053 L 489.28875590571505 282.1765968586624 L 489.28966971738834 282.1669194836293 L 489.309192050195 281.93623832246146 L 489.3099120008633 281.9266303473957 L 489.32501239775127 281.6952071469183 L 489.32554335380564 281.6856680715908 L 489.33623789229324 281.4535937316193 L 489.3365844223191 281.44412276755406 L 489.3428891799248 281.21148818790385 L 489.34305554667117 281.2020842905561 L 489.3449866009132 280.9689803710427 L 489.3449767553841 280.95964227055345 L 489.3425501837809 280.72615991099207 L 489.3423677611892 280.7168861415087 L 489.3355996412592 280.483116241715 L 489.33524795860825 280.47390516930153 L 489.3241543678697 280.2399386290907 L 489.32363642294763 280.2307884782713 L 489.30823343891905 279.99671619745885 L 489.30755191051566 279.98762507644904 L 489.28785561071527 279.75353795485046 L 489.2870128598909 279.74450387955653 L 489.2630393218372 279.51049281698715 L 489.2620373940969 279.50151373384864 L 489.23380269530816 279.2676696301239 L 489.2326433235549 279.2587434378988 L 489.20016354154956 279.0251571928341 L 489.1988481497095 279.01628176341757 L 489.1621393620059 278.7830442768284 L 489.16066906924 278.77421747520884 L 489.1197473533565 278.5414196469105 L 489.11812297879084 278.532639350364 L 489.0730044122459 278.300372080172 L 489.0712264801693 278.2916361967934 L 489.02192714048124 278.0599903845232 L 489.01999588597755 278.0512968711991 L 488.9665318506647 277.820363416666 L 488.9644472256629 277.8117102965833 L 488.9068345722437 277.5815800996028 L 488.90459625198275 277.5729654793853 L 488.84285105797557 277.34372943977274 L 488.84045844789625 277.33515152633754 L 488.7745967908194 277.1069005439084 L 488.772049033911 277.0983576611216 L 488.70208699128295 276.87118263569135 L 488.69938297592165 276.86267324089715 L 488.6253366252606 276.63666507228106 L 488.62247499359296 276.62818777277687 L 488.5443604124175 276.40343736079046 L 488.5413395693512 276.394990930298 L 488.4591728351795 276.17158917475666 L 488.45599095805807 276.1631725699463 L 488.3697881484087 275.94121037066543 L 488.3664431974516 275.93282274776163 L 488.27622038984276 275.7123910045567 L 488.27271011944975 275.70403173605786 L 488.17848339139994 275.4852213487443 L 488.17480536241897 275.47689004025887 L 488.0765907914465 275.259791908652 L 488.0727423845195 275.2514884158546 L 487.9705560481428 275.03619343976993 L 487.9665344782445 275.02791788545056 L 487.8603924539819 274.81451696470344 L 487.85619478627626 274.80626975587495 L 487.7461131516461 274.5948537902808 L 487.74173631878466 274.5866356352826 L 487.62773115130534 274.3772955246569 L 487.6231719722962 274.3691074501785 L 487.5052593494861 274.16193409433663 L 487.50051455026 274.15377746225556 L 487.3787105496375 273.94886176101295 L 487.3737767854339 273.9407382849226 L 487.24809748451736 273.7381711380947 L 487.24297136420734 273.7300828993685 L 487.1134328405152 273.52995520677064 L 487.1081109529667 273.5219046699827 L 486.9747292840172 273.3243073314303 L 486.96920822659666 273.31629735892903 L 486.83199948990824 273.12132127423763 L 486.82627589919053 273.1133551396337 L 486.68525617228164 272.92109120861863 L 486.67932675701866 272.913172608926 L 486.5345121174076 272.72371173140266 L 486.52837369377914 272.71584479754404 L 486.37978021898425 272.52927787332794 L 486.3734297481159 272.52146717868675 L 486.2210735156556 272.3378851075932 L 486.21450814335145 272.3301356742719 L 486.0584052307441 272.14962935611635 L 486.0516223293368 272.1419466585439 L 485.8917888141008 271.96460699314173 L 485.8847860262647 271.95699695865096 L 485.7212379859184 271.78291484581774 L 485.7140132702403 271.7753838518103 L 485.54676678230203 271.6046501913613 L 485.5393184603336 271.5972050586681 L 485.36838960232177 271.4299107504188 L 485.3607164067772 271.4225587324758 L 485.18612125621024 271.25879467624156 L 485.17822237989566 271.2515434437101 L 484.99997701429186 271.0914005393064 L 484.9918521592859 271.08425815979973 L 484.80997265616367 270.927827307042 L 484.80162208268865 270.92080221965256 L 484.6161245195663 270.76817431835616 L 484.60754909392546 270.7612753027358 L 484.4184495483215 270.61254125271614 L 484.4096507892037 270.6057773925223 L 484.2169653386364 270.4610280935949 L 484.2079454610372 270.4544087342029 L 484.01169018302494 270.31373508618304 L 484.002452138975 270.30726978664995 L 483.80264311103616 270.1707626893531 L 483.7931906262993 270.16446116873556 L 483.58984392595227 270.0322115219772 L 483.58018153183 270.02608360021776 L 483.3733132365932 269.89818230381326 L 483.3634462959723 269.89223783754096 L 483.15307248336404 269.7687757913057 L 483.15095722280955 269.7676708530821 L 483.15101344660235 269.7675739952029 L 480.8227306183195 268.4160588436877 L 478.4944477900367 267.0645436921726 L 476.16616496175385 265.71302854065743 L 473.8378821334711 264.36151338914226 L 471.5095993051882 263.00999823762714 L 469.18131647690535 261.65848308611197 L 466.85303364862256 260.30696793459686 L 464.5247508203397 258.9554527830817 L 462.19646799205697 257.6039376315665 L 459.86818516377406 256.2524224800514 L 457.5399023354913 254.90090732853622 L 452.88333667892556 252.19787702550593 L 450.5550538506428 250.84636187399076 L 448.2267710223599 249.49484672247561 L 445.8984881940771 248.14333157096047 L 443.57020536579427 246.79181641944533 L 441.24192253751147 245.44030126793018 L 438.9136397092286 244.088786116415 L 436.58535688094577 242.73727096489986 L 434.257074052663 241.38575581338472 L 431.9287912243801 240.03424066186957 L 429.60050839609727 238.6827255103544 L 427.2722255678145 237.33121035883926 L 424.9439427395316 235.9796952073241 L 422.6156599112488 234.62818005580897 L 421.9950880716299 234.26795223740976 L 421.7313075792476 235.04033831480578 L 421.3754059296447 236.1072473914796 L 421.02428658895565 237.1857930568176 L 420.678324527542 238.27573761532955 L 420.3378946555744 239.37684335587795 L 420.0033718202535 240.48887255355103 L 419.67513080301217 241.6115874716191 L 419.35354631661687 242.7447503638865 L 419.0389930022654 243.88812347715768 L 418.7318454266139 245.04146905409428 L 418.43247807880505 246.20454933628017 L 418.141265367451 247.37712656771973 L 417.8585816176617 248.55896299851926 L 417.58480106805683 249.74982088906353 L 417.3202978678321 250.94946251452498 L 417.06544607389935 252.1576501697192 L 416.8206196481021 253.37414617443795 L 416.5861924545454 254.59871287923306 L 416.3625382570941 255.83111267155567 L 416.15003071702955 257.07110798248857 L 415.9490433909436 258.3184612938817 L 415.7599497288867 259.57293514603145 L 415.58312307283313 260.8342921458032 L 415.41893665548696 262.10229497537097 L 415.2677635995089 263.37670640138924 L 415.1299769172008 264.6572892847154 L 415.00594951071264 265.94380659064745 L 414.89605417283417 267.23602139966124 L 414.8006635884362 268.53369691861207 L 414.72015033662785 269.8365964923853 L 414.65488689369477 271.1444836160374 L 414.6052456368995 272.45712194717635 L 414.57159884919895 273.77427531882915 L 414.5543187249621 275.09570775242815 L 414.5537773767474 276.4211834710663 L 414.5703468432078 277.7504669127979 L 414.60439909818376 279.08332274401357 L 414.65630606103576 280.41951587258114 L 414.72643960826707 281.7588114608744 L 414.81517158646716 283.10097493832166 L 414.9228738266093 284.4457720135343 L 415.04991815969913 285.7929686856161 L 415.1970687310665 287.1459382150183 L 415.19697749392475 287.1459481380781 L 415.1999499153894 287.1929231290741 L 415.1982402985296 287.24191187088553 L 415.19174195542246 287.2904977860353 L 415.1805173434531 287.33821390176377 L 415.1646743454927 287.3846016051959 L 415.1443652330063 287.429215051197 L 415.11978520252916 287.4716254475146 L 415.0911704995787 287.5114251760204 L 415.05879614803285 287.54823171044114 L 415.02297330679926 287.5816912929255 L 414.98404627918 287.6114823341092 L 414.98032649795795 287.61405009930326 L 414.9779039988174 287.6157118641671 L 414.96680278156373 287.6232791192091 L 414.96407402092336 287.6251260661085 L 414.945678557257 287.63748875018837 L 414.9428438913014 287.63937979946587 L 414.9172413708412 287.65633385177347 L 414.9143209430321 287.65825311887585 L 414.881598555397 287.6795944786011 L 414.8785960877777 287.6815374018442 L 414.8388410225864 287.7070620081769 L 414.8357563893553 287.70902659267927 L 414.78905583622685 287.7385303848093 L 414.78588757598504 287.7405154476576 L 414.7323287245382 287.7737943647749 L 414.72907477817535 287.77579901508483 L 414.66874481802904 287.81264899637927 L 414.66540279997196 287.8146724400041 L 414.59838892074504 287.8548894246655 L 414.59495623485435 287.8569308768491 L 414.5213456261657 287.90031080406743 L 414.5178195210358 287.90236944407917 L 414.43769937250426 287.94870825304423 L 414.4340769703043 287.9507831970379 L 414.3475344715488 287.99987682693956 L 414.34381278433375 288.0019671093566 L 414.25093512497307 288.05361149938483 L 414.2471110647501 288.05571605854925 L 414.14798543440315 288.1097071478939 L 414.1440558200229 288.1118248136896 L 414.03876940830855 288.1679585415405 L 414.0347309708013 288.1700880240817 L 413.9233709673385 288.22816032962874 L 413.9192203546028 288.2303002083341 L 413.8018739490103 288.29010703076716 L 413.7976077304217 288.29225574349726 L 413.6743621123184 288.3535930220063 L 413.6699767836146 288.35574885407743 L 413.5409191426194 288.4184125278522 L 413.53641113133676 288.42057360081185 L 413.40162865706856 288.4843596090423 L 413.3969943287277 288.4865238691517 L 413.2565742108053 288.5512281510277 L 413.2518098760318 288.5533933574241 L 413.1058393040741 288.61881185213554 L 413.10094122680647 288.6209755646815 L 412.9495073904323 288.6869042114182 L 412.94447179737244 288.6890637782603 L 412.78766188620074 288.7552985162122 L 412.7824849776538 288.75745106109565 L 412.6203861813034 288.82378782945267 L 412.6150641435522 288.8259302388565 L 412.447763651642 288.8921649768084 L 412.4422926710056 288.89429388698403 L 412.26987767315444 288.96022253372075 L 412.2642539518703 288.9623343177435 L 412.086811637697 289.02775281245493 L 412.08103141177855 289.0298435674126 L 411.8986489709021 289.09454784928863 L 411.8927085301071 289.0966133837624 L 411.7054731521462 289.1603993919928 L 411.6993688621956 289.1624352140081 L 411.50736773676937 289.2250988877829 L 411.5010960639376 289.2271001934369 L 411.30441638066475 289.2884374719459 L 411.29797391886314 289.2903991349473 L 411.0967028673625 289.3502059573804 L 411.090086367802 289.35212251976805 L 410.88431113769246 289.4101948253151 L 410.87751754120717 289.41206048965336 L 410.66732532210773 289.4681942175042 L 410.66035179417526 289.4700028408858 L 410.4458297757046 289.52399393023046 L 410.43867374417346 289.5257390204466 L 410.21990911595066 289.57738341047485 L 410.21256831143734 289.5790581247457 L 409.9896482630811 289.6281517546474 L 409.982120761944 289.6297489013288 L 409.7551324830732 289.67608771029387 L 409.7474167528137 289.6775997540047 L 409.51644743304735 289.720979681223 L 409.50854237991683 289.72239875184835 L 409.27367920887366 289.76261573650976 L 409.2655842273854 289.7639336425511 L 409.02691439468435 289.8007836238455 L 409.01862941864056 289.8019918705841 L 408.7762401139004 289.8352707877014 L 408.76776566845547 289.83636060063145 L 408.52174408129525 289.8658643927615 L 408.51308133546473 289.86682674672426 L 408.2635146555032 289.89235135305694 L 408.2546654744354 289.8931770074605 L 408.00164089129146 289.91451836718574 L 407.9926078874971 289.9151979076405 L 407.7362125907896 289.9321519599481 L 407.72699917343334 289.9326758465591 L 407.4673203527812 289.94503853063895 L 407.4579307740268 289.9453971531002 L 407.1950556190488 289.9529644081422 L 407.18549501636915 289.95314814764725 L 406.9195107166842 289.9557159128413 L 406.90978514996715 289.95571521067933 L 406.64077889519416 289.95307942521526 L 406.6308953774271 289.9528848577529 L 406.35895435718487 289.9448414608206 L 406.3489208774706 289.9444438203806 L 406.0741322813781 289.93078875117 L 406.06395781904564 289.93017913211725 L 405.7864088367216 289.9107083298182 L 405.77610336533775 289.90987821894987 L 405.49588118640116 289.8843876227522 L 405.4854556665816 289.88332899287434 L 405.2026474806513 289.851614541968 L 405.1921138406953 289.8503199473313 L 404.9068068373901 289.8121775809061 L 404.8961779409577 289.8106402529758 L 404.6084593098966 289.76586591022163 L 404.59774891016474 289.76407985208766 L 404.3077058409665 289.71246947219447 L 404.2969285209792 289.71042954978805 L 404.00464820326266 289.65177907194567 L 403.9938193025058 289.64948110013904 L 403.69938892589 289.5835864635373 L 403.68852445345715 289.5810272851631 L 403.39203120756076 289.507684428992 L 403.3811477426414 289.50486198484185 L 403.08267881708343 289.42386684829114 L 403.0717933978782 289.42078023624435 L 402.77143598227747 289.331928758504 L 402.7605659847942 289.3285782800935 L 402.4584072687695 289.23166640035333 L 402.4475702772995 289.22805359330397 L 402.14369745046986 289.1228772507539 L 402.13291112183293 289.1190049063179 L 401.82741137381714 289.00536004014776 L 401.81669329770494 289.001232204404 L 401.5096538181219 288.87891475380377 L 401.4990213760399 288.8745367124767 L 401.1905293545083 288.74334261663614 L 401.1799995799143 288.7387208634033 L 400.8701422060533 288.5984460615123 L 400.8597316482926 288.59358825019547 L 400.5485961117209 288.44402868144397 L 400.53832070628664 288.4389435628975 L 400.22599419662316 288.2798951664754 L 400.2158691441073 288.2745925113804 L 399.90243885097084 288.1058512264775 L 399.8924785068305 288.10034173560183 L 399.57803161984 287.921703501408 L 399.5682493968031 287.9159987051917 L 399.2528731055774 287.72725946089696 L 399.2432813901477 287.72137161044856 L 398.92706288430566 287.52232729524263 L 398.9176729684397 287.5162692469902 L 398.60069943760027 287.306715800063 L 398.5915214662113 287.30050089637837 L 398.2738800999933 287.0802342569198 L 398.26492303452335 287.0738762050315 L 397.9467010225456 286.84269231223146 L 397.93797262045143 286.8362050636689 L 397.61925715233286 286.5938998567172 L 397.6107639619576 286.5872974893852 L 397.2916422273171 286.3336669074718 L 397.28338959729734 286.32696351225826 L 396.9639487857537 286.061803494573 L 396.9559408878347 286.0550130681525 L 396.6362681890068 285.7781195538853 L 396.6285080529197 285.7712558991099 L 396.30869065642645 285.48242482745053 L 396.3011802153268 285.4755014624321 L 395.98130531078704 285.1745287725705 L 395.9740454556504 285.167558849264 L 395.6542002326831 284.8542404803901 L 395.6471908740157 284.8472367132054 L 395.3274625222396 284.521368604509 L 395.32070265746785 284.5143432092033 L 395.00117836650185 284.1757212998743 L 394.99466615145786 284.16868594273524 L 394.6754331109209 283.8171061719636 L 394.66916593393285 283.8100719290744 L 394.35031133344376 283.44533023604987 L 394.344285890656 283.43830756224344 L 394.0258969198336 283.06019988615594 L 394.020109290521 283.05319859311305 L 393.70227313898425 282.66152087315254 L 393.6967188597796 282.6545501159876 L 393.37952271714727 282.24909829134384 L 393.37419685425465 282.24216656293333 L 393.0577279101457 281.82273657279626 L 393.05262512877516 281.8158517050553 L 392.7369705728084 281.3822394886148 L 392.73208520321833 281.3754086599008 L 392.4173322250127 280.92741015634675 L 392.4126583246926 280.92063990416693 L 392.09889411386683 280.4580510526892 L 392.0944255255262 280.45134729090546 L 391.98841751084984 280.2895041419051 L 391.89418458305585 280.2768501214445 L 391.89043483545936 280.2763321309726 L 391.7514154197947 280.2565914118747 L 391.74766746965673 280.2560447140548 L 391.60890529428605 280.2352669950218 L 391.60515927766846 280.23469155687576 L 391.46666052625267 280.21287869300596 L 391.4629165796004 280.21227448055674 L 391.3246874358004 280.1894283269484 L 391.32094569603964 280.1887953052206 L 391.18299234351633 280.164917716972 L 391.1792529481531 280.164255849995 L 391.0415815705674 280.1393486822045 L 391.03784465778534 280.13865793301966 L 390.90046143879823 280.1127230407854 L 390.89672714756006 280.11200337145624 L 390.75963827083234 280.08504260987655 L 390.7559067409774 280.0842939815022 L 390.6191183901701 280.05630920567535 L 390.61538976251626 280.05553157840757 L 390.4789081212902 280.02652464343186 L 390.4751825377332 280.0257179764954 L 390.33901378974934 279.9956907374691 L 390.3352913933638 279.9948549891858 L 390.199441722283 279.9638093012071 L 390.1957226574238 279.96294442902325 L 390.060198246907 279.9308821471906 L 390.05648265930796 279.92998810770746 L 389.92128969301615 279.89691108711895 L 389.9175777298934 279.89598783612814 L 389.7827223914874 279.86189793188214 L 389.77901420163727 279.86094542440287 L 389.64450267477804 279.8258444915976 L 389.64079840867936 279.82486268191894 L 389.50663687702774 279.7887525756527 L 389.5029366869396 279.78774141737875 L 389.36913133415663 279.75062399274987 L 389.3654353742196 279.7495834388488 L 389.2319923839661 279.7114605509555 L 389.22830081029934 279.71039055381226 L 389.0952263662362 279.67126405775275 L 389.091539337038 279.67016456922585 L 388.9588396228262 279.63003632009855 L 388.9551572984679 279.6289072915796 L 388.8228384977683 279.5877791444827 L 388.8191610408941 279.586620526961 L 388.6872293373676 279.5444943369927 L 388.68355691298825 279.5433060811224 L 388.5520184902959 279.5001837033811 L 388.5483512658841 279.498965759553 L 388.41721230768667 279.45484904913695 L 388.4135504532692 279.4536013675536 L 388.28281714322765 279.408492179561 L 388.27916083147875 279.4072147103156 L 388.148839353254 279.36111489984484 L 388.14518875958476 279.35980759300423 L 388.0152852968377 279.3127190151535 L 388.0116405994859 279.3113818208448 L 387.8821613358774 279.2633063307124 L 387.8785227159943 279.2619391992133 L 387.74947383518537 279.2128786518975 L 387.7458414769214 279.2114815337304 L 387.6172291625729 279.16143778432945 L 387.61360325316156 279.16001063035986 L 387.48543368893445 279.10898553397203 L 387.4818144187735 279.10752829550967 L 387.35409378832867 279.0555237072333 L 387.3504813510592 279.0540363361379 L 387.22321583805757 279.0010541110712 L 387.2196104306426 278.99953655986207 L 387.09280621874507 278.9455785531033 L 387.08920804154263 278.94403077507195 L 386.96287131441005 278.8890988417195 L 386.959280571245 278.88752079104586 L 386.83341751253835 278.83161678619786 L 386.8298344107736 278.8300084180716 L 386.7044512041538 278.7731341968264 L 386.700875954755 278.7714954675698 L 386.57597878388293 278.7136528850257 L 386.57241160148226 278.7119837522217 L 386.44800665001884 278.65317466347693 L 386.4444477529755 278.6514750861 L 386.32054120458173 278.59170134625276 L 386.3169908150396 278.5899712848034 L 386.19358885337624 278.52923474895215 L 386.1900471973148 278.5274741655941 L 386.0671560060428 278.46577668883697 L 386.06362331333 278.46398554753955 L 385.9412490761104 278.4013289849748 L 385.93772558054735 278.39950725165664 L 385.8158744810409 278.3358934583826 L 385.81236042040325 278.33404110105926 L 385.69103864227094 278.2694719321742 L 385.687534258348 278.26758892110917 L 385.56674798525074 278.2020662317114 L 385.5632535238788 278.2001525395696 L 385.4430089394775 278.13367818475734 L 385.43952465056964 278.13173378676225 L 385.31982793852524 278.06430962163375 L 385.3163540760959 278.06233449572676 L 385.1972114200692 277.99396237538036 L 385.1937482422534 277.9919565023822 L 385.0751658259054 277.92263828191614 L 385.07171359497545 277.92060164569267 L 384.9536976019671 277.8503391802052 L 384.95025658434247 277.8482717678344 L 384.8328131983347 277.77706691242383 L 384.82938366458615 277.77496871436455 L 384.71251906923976 277.7028233241292 L 384.70910129408935 277.7006943343931 L 384.5928216730653 277.62761026443115 L 384.58941593538214 277.6254504807574 L 384.47372747234135 277.5514295861672 L 384.47033405512764 277.54923901019623 L 384.355242933731 277.474283146076 L 384.3518621241065 277.4720617835277 L 384.23737452801504 277.3961728049757 L 384.23400661719404 277.3939206658281 L 384.12012873006853 277.31710042794265 L 384.11677401332946 277.314817526611 L 384.00351201883086 277.2370678844904 L 384.00017079548206 277.2347542400092 L 383.8875308772713 277.1560770487516 L 383.8842034506088 277.1537326849558 L 383.77219179234675 277.07412979965966 L 383.76887846960545 277.07175474536695 L 383.6575012549531 276.9912280211304 L 383.65420234725417 276.9888223103258 L 383.54346575987233 276.90737360224716 L 383.54018158215894 276.9049372742642 L 383.43009180570857 276.82256843744176 L 383.42682267667954 276.8201015371471 L 383.3173858948216 276.7368144266791 L 383.3141321368559 276.7343170046549 L 383.20535453325124 276.6501134756396 L 383.2021164723252 276.64758558836587 L 383.09400423063477 276.56246749590156 L 383.0907821962343 276.5599092059386 L 382.9833415001189 276.4738784051236 L 382.9801358251407 276.4712897812907 L 382.8733728582614 276.38434812722323 L 382.87018387891214 276.3817292447801 L 382.76410482492986 276.2938785925585 L 382.76093288061367 276.29122953338117 L 382.65554392318916 276.2024717381036 L 382.6523893563892 276.1997925908605 L 382.54769667918356 276.11012950762535 L 382.5445598353379 276.1074203679509 L 382.44056962201194 276.0168538518564 L 382.4374508493789 276.0141148225214 L 382.3341692835935 275.92264672866577 L 382.3310689331126 275.91987791974543 L 382.2285021985287 275.827510103227 L 382.2254206236723 275.8247116322658 L 382.12357490395084 275.73144594818285 L 382.1205124605691 275.7286179403557 L 382.01939393937096 275.63445624380654 L 382.0163509855289 275.63159883207555 L 381.91596584651506 275.53654297815837 L 381.9129427423238 275.5336563034274 L 381.81329716915513 275.43770814724047 L 381.8102942765939 275.43479235850236 L 381.7113944529313 275.33795375514404 L 381.7084121356632 275.33500900962514 L 381.61026424516757 275.23728181419364 L 381.60730286834814 275.23430827749195 L 381.5099130946805 275.13569434508554 L 381.5069730247602 275.13269219130495 L 381.4103475515813 275.0331933770219 L 381.4074291560986 275.03016278889754 L 381.31157416706947 274.92978094783615 L 381.3086778144403 274.9267221168572 L 381.21359949322175 274.8254591041158 L 381.2107255525194 274.82237223063834 L 381.11643008277247 274.7202299013151 L 381.1135789235038 274.717115194671 L 381.0200724888893 274.61409540386427 L 381.0172444807624 274.6109530824607 L 380.92453326494126 274.5070576852687 L 380.92172877762795 274.5038879766807 L 380.82981896426116 274.39911882820167 L 380.82703836715484 274.3959219692583 L 380.73593613990323 274.29028092459066 L 380.733179801868 274.2870571614497 L 380.6428913443925 274.1805460756916 L 380.64015963351073 274.17729566390943 L 380.5506911294723 274.0699163921592 L 380.54798441278393 274.0666395967492 L 380.45934204584347 273.95839399410505 L 380.4566606890832 273.9550910895891 L 380.3688506429015 273.8459810111494 L 380.3661950102279 273.84265228159614 L 380.27922346846606 273.73267958245907 L 380.2765939221915 273.72932532151884 L 380.1904670685103 273.61849185678267 L 380.187863968822 273.6151123677057 L 380.10258798688244 273.5034199924688 L 380.1030331878636 273.5030800860898 L 380.08847809503266 273.48398894649625 L 380.06347166681064 273.44380938112164 L 380.0423760416671 273.40144555780597 L 380.0253802126857 273.35727700877675 L 380.01263644338576 273.3116994345747 L 380.00425890361237 273.265121159022 L 380.00032264670307 273.2179594710999 L 380.0008629370943 273.17063688650853 L 380.00587493439167 273.1235773624012 L 380.2349535899047 271.6424258444557 L 380.45593630398224 270.13693269535503 L 380.6692402813794 268.6059490832378 L 380.87497295303245 267.050333131939 L 381.07324245371 265.47094184938504 L 381.2641575245381 263.8686312405887 L 381.44782743047915 262.244256408012 L 381.6243618902538 260.59867164087433 L 381.7938710166848 258.9327304944314 L 381.9564652657247 257.2472858608672 L 382.112255392838 255.5431900322047 L 382.2613524155291 253.8212947567033 L 382.4038675811008 252.0824512891054 L 382.5399123388224 250.32751043569536 L 382.66959831585507 248.55732259463673 L 382.79303729637616 246.77273779216162 L 382.91034120343244 244.97460571510246 L 383.02162208313206 243.1637757401662 L 383.12699209084445 241.3410969602928 L 383.2265634791252 239.50741820844777 L 383.32044858713283 237.6635880790671 L 383.4087598313223 235.81045494763265 L 383.4916096972702 233.9488669880769 L 383.56911073244885 232.07967218891358 L 383.6413755398524 230.20371836767086 L 383.7085167723497 228.32185318416 L 383.7706471276869 226.43492415232157 L 383.8278793440368 224.54377865133569 L 383.88032619604866 222.64926393555322 L 383.9281004913277 220.75222714354726 L 383.971315067289 218.8535153066006 L 384.01008278834996 216.9539753562899 L 384.0445165434177 215.05445413145023 L 384.07472924363464 213.15579838467818 L 384.0870129384948 212.26317803865282 L 383.03485183044074 211.65242248005137 L 380.7065690021579 210.30090732853623 L 378.3782861738751 208.94939217702108 L 376.05000334559224 207.5978770255059 L 373.7217205173094 206.24636187399076 L 369.0651548607438 203.54333157096048 L 366.73687203246095 202.19181641944533 L 364.4085892041781 200.84030126793016 L 362.0803063758953 199.488786116415 L 359.75202354761245 198.13727096489987 L 357.4237407193296 196.7857558133847 L 355.0954578910468 195.43424066186958 L 352.76717506276395 194.0827255103544 L 350.4388922344811 192.73121035883926 L 348.1106094061983 191.37969520732412 L 345.78232657791557 190.02818005580895 L 343.45404374963266 188.6766649042938 L 341.1257609213498 187.32514975277866 L 338.797478093067 185.9736346012635 L 336.46919526478416 184.62211944974837 L 334.1409124365013 183.2706042982332 L 329.4843467799357 180.5675739952029 L 327.15606395165287 179.21605884368773 L 324.82778112337 177.8645436921726 L 322.4994982950872 176.51302854065744 L 320.17121546680437 175.16151338914227 L 317.8429326385215 173.80999823762713 L 315.5146498102388 172.45848308611198 L 313.1863669819559 171.10696793459684 L 310.8580841536731 169.7554527830817 L 308.5298013253902 168.40393763156652 L 306.20151849710743 167.0524224800514 L 301.5449528405417 164.34939217702106 L 299.21667001225893 162.99787702550594 L 296.8883871839761 161.64636187399077 L 294.5601043556932 160.29484672247563 L 292.23182152741043 158.94333157096048 L 289.9035386991277 157.5918164194453 L 287.5752558708448 156.24030126793016 L 285.24697304256193 154.88878611641502 L 282.91869021427914 153.53727096489988 L 280.5904073859963 152.18575581338473 L 278.26212455771343 150.83424066186956 L 273.60555890114784 148.13121035883927 L 271.277276072865 146.77969520732412 L 268.94899324458214 145.42818005580895 L 266.62071041629935 144.0766649042938 L 264.2924275880165 142.72514975277863 L 261.96414475973364 141.3736346012635 L 259.63586193145085 140.02211944974837 L 257.3075791031681 138.6706042982332 L 254.97929627488523 137.31908914671806 L 252.6510134466024 135.9675739952029 L 252.64938079016207 135.96663038696957 L 252.54586414220097 135.90706215078671 L 252.53757944497252 135.90239903219526 L 252.43310371120387 135.84489490202506 L 252.42480216332032 135.84042712540437 L 252.3193877498251 135.78496978699633 L 252.31107861491373 135.78069708584195 L 252.20474592777296 135.72726922494545 L 252.19643819455726 135.72319078246545 L 252.08920763985196 135.67177508483 L 252.08090998649217 135.66788956448175 L 251.97280197030335 135.61846871585675 L 251.96452273317158 135.6147742944325 L 251.85555766158024 135.5673309805674 L 251.8473048085494 135.56382538326625 L 251.73750308763658 135.5183422899105 L 251.72928419587976 135.51502282684456 L 251.61866623172642 135.4714826397476 L 251.6104884699551 135.4683462433556 L 251.49907466864232 135.42673164826687 L 251.4909447836483 135.42377491113876 L 251.37875555125703 135.3840685938077 L 251.37067985857132 135.38128780646505 L 251.25773560118265 135.34347245264112 L 251.24971997961646 135.34086364085897 L 251.1360411033113 135.3049219362916 L 251.12809099311409 135.30248089759718 L 251.01369790397354 135.26839552803585 L 251.00581830831163 135.26611786706684 L 250.89073141241664 135.23387151826094 L 250.882926901861 135.2317526807151 L 250.76716660529263 135.20132803841412 L 250.7594413249957 135.19936334337268 L 250.64302803383492 135.17074309332605 L 250.63538571306765 135.16892776377637 L 250.5183398333955 135.14209459173352 L 250.51078379712646 135.14042378316395 L 250.39312573502397 135.11536037487434 L 250.38565891722456 135.11382920185267 L 250.2674090787727 135.09051824306573 L 250.26003403714915 135.08912180375057 L 250.14121282842896 135.06754598021575 L 250.13393176029535 135.06627937878307 L 250.01455958738782 135.04642137624984 L 250.0073743464162 135.04527974324552 L 249.88747161540238 135.02712224746327 L 249.88038372900178 135.0261007581179 L 249.75997084596264 135.00962645483614 L 249.75298153306872 135.00872034539887 L 249.63207890408526 134.993911920367 L 249.62518909315378 134.99311650253196 L 249.50381712430706 134.97995664149946 L 249.49702747133801 134.97926731501283 L 249.37520656870905 134.96773870372908 L 249.3685174751399 134.96715096727388 L 249.24626804480965 134.95723629148839 L 249.23967967514798 134.9567457519523 L 249.1170221231975 134.94842769741447 L 249.1105344222713 134.94803007765066 L 248.98748915478157 134.94129133010995 L 248.98110186451592 134.9409824753024 L 248.85768928756798 134.93580572050826 L 248.85140196320665 134.93558160325517 L 248.72764248288152 134.93194952695706 L 248.72145450859165 134.93180625118313 L 248.59736853097033 134.92970153913043 L 248.59127913477982 134.9296353429377 L 248.4668870659433 134.92904068087992 L 248.4608953339797 134.92904793844204 L 248.33621758000902 134.92994601212862 L 248.3303224700116 134.9300232347302 L 248.20537943698776 134.93239672991055 L 248.199579791081 134.93254056622732 L 248.074391885085 134.9363721686509 L 248.068686441811 134.93657940436097 L 247.94327406892387 134.94185179977723 L 247.93766147453144 134.94211935658862 L 247.8120450408342 134.94881523074702 L 247.80652385983865 134.94914016491995 L 247.68072377141232 134.95724220356988 L 247.67529249643601 134.95762170400684 L 247.54932915936155 134.9671125928978 L 247.5439862202783 134.967543978868 L 247.41788004063676 134.9784064037494 L 247.41262381303758 134.9788871223093 L 247.28639519690998 134.9911037689306 L 247.28122400991919 134.99163139209557 L 247.15489336338652 135.0051849462062 L 247.14980550685144 135.00575716792412 L 247.02339323599472 135.02063031527354 L 247.01838696708018 135.0212449482454 L 246.89191347798044 135.03742037458306 L 246.88698702719572 135.03807534697086 L 246.76047272593394 135.0555357380462 L 246.75562430262087 135.0562290901049 L 246.6290895952781 135.07495713166733 L 246.6243173925924 135.07568701233217 L 246.49778268524958 135.09566539013116 L 246.4930848846623 135.09643005358913 L 246.36657058340052 135.11764145337415 L 246.36194535875086 135.11843925564392 L 246.23547186965112 135.1408663631644 L 246.23091739077643 135.14169575870676 L 246.1045051199197 135.1653212597121 L 246.10001955589118 135.16618079808944 L 245.97368890935851 135.19098737832914 L 245.96927043135065 135.19187570092976 L 245.84304181522305 135.21784604615326 L 245.83868859903848 135.21876188299495 L 245.71258241939694 135.24587867895167 L 245.70829264767332 135.24682084557608 L 245.58232931059885 135.27506677801546 L 245.5781011747202 135.27603417248258 L 245.45230108629383 135.3053919271541 L 245.44813278802795 135.30638352714607 L 245.32251635433073 135.33683578979912 L 245.31840610721207 135.33785064983942 L 245.19299373432494 135.36938010622347 L 245.18893976480325 135.3704173550176 L 245.06375185880725 135.4030066908821 L 245.05975240718033 135.40406552878372 L 244.9348093741565 135.4376974298781 L 244.93086269530139 135.43877712648495 L 244.8061849413307 135.4734342785587 L 244.80228930525234 135.47453417044042 L 244.67789723641582 135.51019925924294 L 244.67405092862364 135.51131874780378 L 244.5499649510023 135.54797445908451 L 244.54616627273245 135.5491130085614 L 244.42240679240732 135.5867420280698 L 244.4186540606985 135.5878991636686 L 244.29524148375057 135.62648417715414 L 244.2915330313885 135.62765948332367 L 244.16848776389878 135.66718317653576 L 244.1648219392365 135.66837629538128 L 244.04216438728602 135.70882135406939 L 244.03853955395272 135.71003198390537 L 243.91629012362247 135.7513810938189 L 243.91270466012602 135.75260898786237 L 243.79088375749703 135.7948448347508 L 243.78733605673094 135.79608979995527 L 243.66596408788422 135.83919506956804 L 243.6624525565449 135.84045696559875 L 243.54154992756148 135.8844143436853 L 243.5380729854816 135.88569308203682 L 243.41766010244243 135.9304852543466 L 243.41421618184665 135.93178079760372 L 243.29431345083282 135.97739044988617 L 243.29090099552232 135.9787028111285 L 243.1715288226148 136.02511262913305 L 243.16814628708173 136.02644187148653 L 243.04932507836153 136.07363454096264 L 243.04597092684145 136.07498077729778 L 242.92772108838957 136.12293898399489 L 242.92439379385124 136.12430237677617 L 242.80673573174872 136.17300880644373 L 242.8034337748283 136.17438956773114 L 242.68638789515617 136.22382690611857 L 242.6831097630346 136.22522529772564 L 242.56669647187383 136.27537623058242 L 242.56344065710235 136.27679256439453 L 242.44768036053398 136.3276397774701 L 242.44444535980813 136.32907441592693 L 242.32935846391314 136.3806005949707 L 242.32614277679644 136.3820539517192 L 242.21174968765587 136.43424178248065 L 242.20855181525653 136.43571432320292 L 242.0948729389514 136.48854649143146 L 242.09169138254964 136.49003873485606 L 241.97874712516094 136.54349792630117 L 241.97558038479056 136.54501044540402 L 241.86339115239932 136.5990793458151 L 241.86023772538195 136.60061276922 L 241.74882392406914 136.65527406434657 L 241.7456823035034 136.65682907793348 L 241.6350643393501 136.7120654535249 L 241.63193301255288 136.7136428022593 L 241.52213129164002 136.7694369440651 L 241.51900873854458 136.77103743405743 L 241.41004366695324 136.82737202782698 L 241.406928358459 136.82899652863895 L 241.29882034227018 136.8858542601217 L 241.2957107385485 136.8875037073322 L 241.1884801838432 136.94486726227765 L 241.18537473259812 136.94654266032578 L 241.07904204545736 137.00439472448332 L 241.0759391801397 137.006097149808 L 240.97052476664447 137.06442040892708 L 240.9674229046235 137.06615101342194 L 240.86294717085482 137.12492815325206 L 240.85984471154643 137.12668816805945 L 240.75632806358533 137.18590187434998 L 240.75322338653746 137.18769261401917 L 240.65068623046494 137.24732557251957 L 240.6475776934042 137.24914843955636 L 240.54604043530128 137.30918333601613 L 240.54292637214314 137.31103982585364 L 240.44634364408395 137.36909453056413 L 239.33920951266327 138.00720638449212 L 237.11698729044107 139.2880144653002 L 236.00587617932996 139.92841850570426 L 234.89476506821887 140.5688225461083 L 230.45032062377442 143.13043870772444 L 229.3392095126633 143.7708427481285 L 224.89476506821885 146.33245890974464 L 223.78365395710776 146.97286295014868 L 222.67254284599665 147.61326699055275 L 217.11698729044107 150.81528719257292 L 216.00587617932996 151.455691232977 L 214.89476506821885 152.09609527338102 L 213.78365395710776 152.73649931378506 L 211.56143173488553 154.01730739459313 L 210.45032062377442 154.6577114349972 L 207.11698729044107 156.5789235562093 L 206.00587617933 157.21932759661334 L 204.89476506821885 157.85973163701738 L 203.78365395710776 158.5001356774214 L 202.67254284599662 159.14053971782548 L 201.56143173488553 159.7809437582295 L 197.11698729044107 162.34255991984566 L 196.00587617932996 162.98296396024972 L 194.89476506821885 163.62336800065376 L 193.78365395710776 164.2637720410578 L 190.45032062377442 166.1849841622699 L 189.3392095126633 166.82538820267396 L 184.89476506821885 169.3870043642901 L 183.78365395710773 170.02740840469417 L 182.67254284599662 170.66781244509818 L 181.5614317348855 171.30821648550224 L 177.11698729044107 173.8698326471184 L 176.00587617933 174.51023668752242 L 174.89476506821885 175.1506407279265 L 173.78365395710776 175.79104476833052 L 172.67254284599662 176.43144880873456 L 171.56143173488553 177.0718528491386 L 170.4503206237744 177.71225688954266 L 169.3392095126633 178.35266092994667 L 168.2280984015522 178.99306497035073 L 167.11698729044107 179.63346901075477 L 166.00587617933 180.2738730511588 L 164.89476506821885 180.91427709156284 L 163.78365395710776 181.55468113196687 L 162.67254284599662 182.19508517237094 L 161.56143173488553 182.83548921277495 L 160.45032062377442 183.475893253179 L 156.00587617932996 186.03750941479515 L 154.89476506821885 186.67791345519922 L 153.78365395710776 187.31831749560325 L 152.67254284599662 187.9587215360073 L 151.56143173488553 188.59912557641132 L 150.45032062377442 189.23952961681536 L 149.3392095126633 189.87993365721942 L 148.2280984015522 190.52033769762343 L 147.11698729044107 191.1607417380275 L 142.67254284599662 193.72235789964364 L 141.5614317348855 194.3627619400477 L 140.4503206237744 195.00316598045174 L 139.3392095126633 195.64357002085578 L 137.11698729044107 196.92437810166385 L 136.00587617932996 197.5647821420679 L 134.89476506821885 198.20518618247192 L 133.78365395710773 198.84559022287598 L 132.67254284599662 199.48599426328002 L 131.56143173488553 200.12639830368406 L 131.3391885790201 200.2544911771556 L 131.7069454424292 200.10382215286737 L 131.70840159007759 200.10322824558855 L 132.3651425534301 199.83657240032846 L 132.3666284822832 199.83597184250712 L 133.0288067386763 199.56957756610367 L 133.03032324254113 199.56897035302018 L 133.69777183313025 199.30298605333522 L 133.69931973664478 199.30237218469276 L 134.37187170258517 199.03694626958824 L 134.37345186227665 199.03632575012165 L 135.0509402447237 198.77160662745945 L 135.05255355013097 198.7709794675814 L 135.73481139024005 198.50711554522346 L 135.73645876510108 198.50648176171265 L 136.4233191040275 198.24362144752084 L 136.4250015075334 198.2429810642562 L 137.11629738643256 197.98127276609245 L 137.11801581454884 197.98062581483893 L 137.81358027457614 197.7202179405651 L 137.81533576143298 197.71956446181542 L 138.51500184374368 197.4606054192935 L 138.51679546309657 197.45994546317158 L 139.2203962088461 197.2025836602634 L 139.22222907560845 197.20191728749532 L 139.9295975259521 196.9463011320628 L 139.93147079780147 196.94562841502128 L 140.6424399938946 196.69190631492634 L 140.6443548729541 196.69122733875545 L 141.35875785595212 196.43954770186002 L 141.3607155905488 196.43886256568754 L 142.07838540160705 196.1893737998535 L 142.0803872881091 196.188682618098 L 142.80115696838294 195.94153313118724 L 142.80320435311697 195.9408360349688 L 143.5269069437617 195.69617423484328 L 143.52900122501143 195.6954713735065 L 144.25546976718243 195.4534456680281 L 144.25761239727063 195.4527372107869 L 144.98667993212328 195.21349600781747 L 144.98887241957792 195.21278214553215 L 145.72037198826757 194.97647385293368 L 145.72261590007236 194.97575480003186 L 146.45638054375436 194.74252782566623 L 146.45867750768502 194.741803822219 L 147.19454026751472 194.51180657394812 L 147.19689197456066 194.5110778879151 L 147.93468589169342 194.28445877360082 L 147.93709409856407 194.28372570325794 L 148.6766522141552 194.06063313076226 L 148.67911874587045 194.05989600732755 L 149.42027410107542 193.84047838451232 L 149.42280085363768 193.839737574986 L 150.16538648961173 193.62414330971313 L 150.16797543275757 193.6233992199497 L 150.9118243906561 193.4117767200811 L 150.91447757068292 193.41102979811248 L 151.6594228916613 193.20352747151006 L 151.66214243432444 193.20277821114016 L 152.408017159538 192.99954446566582 L 152.41080527301176 192.99879341035836 L 153.15744244361588 192.799976653874 L 153.1603014215101 192.79922440095734 L 153.90753407866012 192.6049730413249 L 153.91046630308225 192.60422024653911 L 154.6581274879335 192.41468269162047 L 154.6611354325839 192.4139300740332 L 155.40905818629176 192.22925473169028 L 155.41214441957692 192.22850307901084 L 156.16016178329676 192.04883835710552 L 156.16332897144278 192.04808853142723 L 156.91127398632997 191.87358283782143 L 156.91452489647443 191.87283578182507 L 157.66223060368426 191.70363752438072 L 157.66556810692137 191.7028942680337 L 158.41286754760924 191.53915185461267 L 158.4162946219582 191.53841352239962 L 159.16302083727945 191.38027536086386 L 159.16654057054077 191.37954317958773 L 159.91252660165077 191.22715767779908 L 159.91614219410974 191.2264329849915 L 160.66122108216385 191.07994855081193 L 160.66493584909338 191.0792328037956 L 161.40894063524692 190.938797845087 L 161.41275800915477 190.9380926307318 L 162.1555217345631 190.80385555535608 L 162.15944526711945 190.8031626005731 L 162.900800972938 190.67527181639213 L 162.90483433651045 190.67459299941032 L 163.64461506389446 190.55319691428605 L 163.64876205260614 190.5525342767553 L 164.38680084271104 190.4377812985496 L 164.391065372926 190.4371370585143 L 165.12719526690714 190.3291755950891 L 165.13158137703326 190.32855216087415 L 165.86563541604596 190.2275306200914 L 165.87014726553124 190.22693060513961 L 166.6019584907309 190.13299739486112 L 166.60660035811236 190.1324236335579 L 167.33600181065432 190.04572716164563 L 167.34077809049978 190.04518272615917 L 168.06760281153936 189.965871400475 L 168.07251801010463 189.96535961863432 L 168.79659904079725 189.89358184704022 L 168.80165777019704 189.893106321261 L 169.52282815169798 189.8290105116188 L 169.52803512236795 189.82857513887538 L 170.24612789583261 189.77230969904704 L 170.2514879070335 189.77191869187067 L 170.96633611361725 189.72363202971806 L 170.97185404170665 189.72328993818124 L 171.68329072256483 189.6831304615663 L 171.6889715067347 189.6828421961873 L 172.39682970302263 189.6509583129719 L 172.4026783281714 189.65072916844187 L 173.1067910810445 189.62726928648797 L 173.11281255742583 189.62710496608585 L 173.81301290803938 189.61221749325532 L 173.81921224730058 189.6121241337708 L 174.51533323681 189.60595747792553 L 174.52171542400686 189.60594167485763 L 175.2135900935675 189.60864424385957 L 175.22016005471977 189.60871307659636 L 175.90762144548694 189.62043327830736 L 175.91438401021952 189.62059433492186 L 176.5972651633486 189.64148057720388 L 176.60422502214985 189.641741978418 L 177.28235897879622 189.67194266913293 L 177.28952063442404 189.6723130909102 L 177.962740435743 189.71197663791992 L 177.97010814831597 189.71246533204248 L 178.63824683546292 189.76174014320895 L 178.64582456079833 189.76235695508058 L 179.3087151749286 189.82139143826564 L 179.31650649573376 189.8221468210575 L 179.97398207800273 189.89108938412312 L 179.98199012759142 189.891994408245 L 180.63388371915443 189.97099345905306 L 180.64211109745915 189.97205981579432 L 181.28825573947157 190.0612637622067 L 181.2967044212501 190.06250376024875 L 181.93693315486726 190.1620610101274 L 181.9456043901733 190.16348756349075 L 182.57975025655057 190.27354652469757 L 182.58864446375222 190.275173130558 L 183.21654050404493 190.39588221095485 L 183.2256571559383 190.3977229156521 L 183.84713641130188 190.52923052310095 L 183.85647391518322 190.5312998745831 L 184.47136942677292 190.67375441694583 L 184.4809249997026 190.67606740185394 L 185.08906980867388 190.82961728699243 L 185.09883934959066 190.83218925060964 L 185.7000664970988 190.99698288638584 L 185.7100444579128 190.99982943376844 L 186.30418698511318 191.17601522804424 L 186.3143662434203 191.17915210483963 L 186.90125719146826 191.3668784654769 L 186.91162892806344 191.37032141722776 L 187.49110133811436 191.56973675208846 L 187.50165492302247 191.57350136124748 L 188.0735418362317 191.7847540781935 L 188.084264727491 191.7888555786358 L 188.6483991850139 192.01209408552904 L 188.6592768449022 192.01654715506157 L 189.2154918878941 192.25191985976394 L 189.22650772164366 192.25673839199192 L 189.77463639125992 192.50439370236532 L 189.78577171351108 192.50959056027577 L 190.3256470509071 192.7696768841821 L 190.33688108515867 192.77526363891766 L 190.86833613148974 193.04792938421886 L 190.87964604756053 193.05391604370485 L 191.40251384398204 193.33930961826277 L 191.4138748379668 193.3457043515612 L 191.9279884256341 193.64397416323783 L 191.9393738459774 193.6507830276606 L 192.44456626604585 193.96207748431777 L 192.45594778816343 193.96930416335547 L 192.95205208178837 194.29377167285512 L 192.96339993213863 194.30141723377136 L 193.45024914047545 194.6392062039754 L 193.46153236916663 194.6472688843839 L 193.93895953337065 194.9985277231542 L 193.95014633234808 195.00700275594923 L 194.4179844935747 195.37187987114774 L 194.42904255526764 195.38075935672262 L 194.88712475467216 195.75940315621122 L 194.89802166381943 195.76867598993397 L 195.34618094255723 196.1612348815746 L 195.35688459192204 196.1708867429863 L 195.79495399114845 196.57750913464085 L 195.8054330101279 196.58752254283976 L 196.23324557099832 197.00835684237012 L 196.2434697548818 197.01871127962644 L 196.66085851855155 197.45390589489452 L 196.67006568936014 197.46437755460934 L 196.67036874513641 197.46410270524166 L 197.3059970411565 198.16496233716956 L 197.31488540051424 198.17503138163244 L 197.91328867620555 198.871559977457 L 197.9221793583946 198.88220368547155 L 198.48427155884002 199.5744167043451 L 198.4931232748279 199.5856417182693 L 199.01981834511037 200.2735546193441 L 199.02858613963414 200.28536196043004 L 199.52079802483652 200.9689902028584 L 199.52943376629378 200.9813744120548 L 199.988076411499 201.66073345498899 L 199.9965294743084 201.67368179837223 L 200.4225168245994 202.34878710096453 L 200.43073496650874 202.36227889134673 L 200.82498096696838 203.0331459127494 L 200.8329113906428 203.0471520022753 L 201.19632998635402 203.71379620164066 L 201.20392055932606 203.72827869918902 L 201.53742569537175 204.3907155356693 L 201.54462628636148 204.40562779663955 L 201.84913190782459 205.06387272938707 L 201.8558957823029 205.07915965351006 L 202.13231583426622 205.73322814167713 L 202.13860103996882 205.74882679710748 L 202.3878494675154 206.3987342998463 L 202.3936201334325 206.41457487012065 L 202.61661088164516 207.0603368465836 L 202.62183835341853 207.07634387304614 L 202.81948536738022 207.71797578238542 L 202.82414910888346 207.73406965104152 L 202.99736633367704 208.37158695240944 L 203.0014545386468 208.38768555374 L 203.15115591935523 209.02110370628884 L 203.15466579699583 209.0371241820152 L 203.28176527870198 209.66645864489723 L 203.28470300095796 209.68231912893347 L 203.39011452874473 210.30758536130102 L 203.3924948516026 210.32320662400932 L 203.47713237055297 210.94442008501463 L 203.478977964367 210.95972699996057 L 203.5437554195638 211.57690314875595 L 203.54509596149882 211.59182591789147 L 203.59092729802498 212.20498021362917 L 203.59179839156698 212.219455307843 L 203.61959755450542 212.82860320967532 L 203.6200395459291 212.84257400422086 L 203.6307204803627 213.44773097130007 L 203.63077724038453 213.4611480771487 L 203.62525389139626 214.06232956862706 L 203.6249716231108 214.0751508792132 L 203.60415793578346 214.67237235424307 L 203.60358405900382 214.684562841018 L 203.56839397842043 215.27783975875158 L 203.5675761275064 215.28937105789916 L 203.5189235987498 215.8787188774888 L 203.51790875755972 215.8895687142157 L 203.45670772571285 216.47500289481363 L 203.45554151078167 216.48515439149546 L 203.3827059209274 217.06669039225397 L 203.38143201325158 217.07613130334758 L 203.29787581047285 217.65378458341897 L 203.29653552783853 217.66250649452243 L 203.20317265721826 218.236292513059 L 203.20180465295107 218.2442900348107 L 203.0995490595721 218.81422425096468 L 203.09818912974004 218.82149423146845 L 202.98795475868533 219.38759210439216 L 202.98663573781505 219.39413287717886 L 202.8693365341675 219.95640986602456 L 202.8680882590213 219.96222054463001 L 202.74463816786385 220.52069210854998 L 202.7434874893389 220.52577193386085 L 202.6148004557544 221.08045353200743 L 202.61377128012037 221.08480127469113 L 202.48076124919177 221.6357083662165 L 202.47987459135223 221.6393217838169 L 202.3434555081624 222.18646982787342 L 202.34272954115173 222.18934517445922 L 202.2038153507836 222.73274963019915 L 202.20326543712494 222.73488121571947 L 202.06277008466142 223.2745575422951 L 202.06240877639308 223.2759373389441 L 201.92124620691706 223.81190099550767 L 201.92108320200393 223.81251828937175 L 201.78018839540326 224.34470528254042 L 201.64058006383848 224.87273460798409 L 201.5032558450544 225.39629446734625 L 201.36912816240502 225.9153781385865 L 201.23910554623706 226.4299752829939 L 201.11409215404305 226.94007193809358 L 200.99498718221463 227.4456506271891 L 200.8826841663343 227.9466906197027 L 200.778070173045 228.44316838529596 L 200.68202489581628 228.93505829416057 L 200.59541968053142 229.42233362439276 L 200.51911652564644 229.90496794396165 L 200.45396712664032 230.38293693634583 L 200.40081206561732 230.85622073239853 L 200.36048028317276 231.32480679156143 L 200.33378900773462 231.78869333811826 L 200.3215443513533 232.24789329759108 L 200.32454280039806 232.70243859155505 L 200.34357382123144 233.1523845374556 L 200.37942374893132 233.59781397257152 L 200.4328810173912 234.03884059790497 L 200.50474261548538 234.47561095000387 L 200.59582142604063 234.90830439602047 L 200.70695385412688 235.33713064820387 L 200.83900693373963 235.76232452981506 L 200.99288398609596 236.18413808363 L 201.1695279500988 236.60283054114873 L 201.3699217439498 237.01865707226264 L 201.59508541976263 237.43185750452457 L 201.84607035751543 237.84264625563907 L 202.1239511945967 238.25120453731685 L 202.42981649271906 238.65767550847028 L 202.76475924061378 239.06216258093156 L 203.12986817825873 239.4647306282727 L 203.5262206628294 239.86540951234943 L 203.95487746330497 240.26419916907037 L 204.41687955211276 240.66107548037346 L 204.91324671517646 241.05599626345958 L 205.44497764982205 241.44890687688223 L 206.01305115903105 241.83974512676804 L 206.6184280593552 242.22844532038098 L 207.26205347217748 242.61494144069817 L 207.94485924005102 242.99916950049044 L 208.66776628412015 243.38106918219637 L 209.4316867846516 243.76058488921797 L 210.23752611961834 244.13766633425445 L 211.08618453537494 244.51226877890613 L 211.9785585500331 244.884353021912 L 212.91554210659424 245.2538852150493 L 213.89802750188983 245.62083656836788 L 214.926906120938 245.98518299115796 L 216.00306900664737 246.3469047024486 L 217.12740729293154 246.70598583474725 L 218.30081252638124 247.06241404696755 L 219.5241768984217 247.4161801567192 L 220.79839340645302 247.76727779787024 L 222.12406641738744 248.1156270228913 L 222.68019007904104 248.25439425783716 L 223.23421825864537 248.38324076694389 L 223.78706249215833 248.50253550935568 L 224.33875081695234 248.61242652072303 L 224.88931123146514 248.71306137192175 L 225.4387716519621 248.8045871747298 L 225.98715987064733 248.88715059135552 L 226.53450351562074 248.96089784762282 L 227.0808300130856 249.02597474955644 L 227.62616655225187 249.08252670307238 L 228.17054005315572 249.13069873641965 L 228.71397713780527 249.17063552501577 L 229.25650410471252 249.2024814182668 L 229.79814690706084 249.2263804679765 L 230.33893113454386 249.24247645792954 L 230.87888199888252 249.25091293424538 L 231.41802432299232 249.25183323611387 L 231.95638253374776 249.24538052654123 L 232.49398065811374 249.23169782276247 L 233.03084232259317 249.2109280260067 L 233.56699075564458 249.1832139503371 L 234.10244879294316 249.14869835032187 L 234.63723888519024 249.10752394733046 L 235.17138310814977 249.0598334542924 L 235.7049031747524 249.00576959878077 L 236.23782044885647 248.94547514433594 L 236.77015596051584 248.87909290995864 L 237.30193042237613 248.80676578775353 L 237.83316424705436 248.7286367587094 L 238.3638775651657 248.64484890665116 L 238.89409024385523 248.55554543039705 L 239.42382190554758 248.46086965419676 L 239.9530919468468 248.36096503650867 L 240.48191955726898 248.25597517723207 L 241.01032373781612 248.14604382346556 L 241.53832331912974 248.03131487392255 L 242.06593697926925 247.9119323820814 L 242.59318326082365 247.78804055822397 L 243.12008058748657 247.65978377043035 L 243.64664727994037 247.52730654465876 L 244.1729015709696 247.39075356402742 L 244.69886161985798 247.25026966738028 L 245.2245455260131 247.10599984724337 L 245.74997134177804 246.95808924727314 L 246.2751570845101 246.80668315926187 L 246.8001207478313 246.65192701980985 L 247.32488031215195 246.49396640671375 L 247.84945375445224 246.3329470351506 L 248.37385905730181 246.16901475373209 L 248.89811421725597 246.00231554045268 L 249.42223725248337 245.83299549863597 L 249.94624620990052 245.66120085284885 L 250.47015917151464 245.48707794492884 L 250.99399426038156 245.31077323004067 L 251.51776964584064 245.1324332729143 L 252.04150354839132 244.95220474418235 L 252.56521424397607 244.77023441692936 L 253.08892006782116 244.5866691634341 L 253.6126394178933 244.40165595211118 L 254.1363907579347 244.21534184468882 L 254.66019262004792 244.02787399365585 L 255.1840636070267 243.8393996399256 L 255.70802239419413 243.65006611081887 L 256.2320877311779 243.46002081822408 L 256.7562784428887 243.26941125721177 L 257.28061343094356 243.07838500466136 L 257.80511167417654 242.88708971840106 L 258.32983172837794 242.69565873375385 L 258.8547748856156 242.50424642354346 L 259.3799387458979 242.31300862443968 L 259.90534263635146 242.12209335492727 L 260.43043696294563 241.9318544698001 L 260.43100596014676 241.9316487145155 L 260.95625611499594 241.7420720994721 L 260.95694819538346 241.7418228846796 L 261.48237334783647 241.55305632921576 L 261.4831888936843 241.5527641300804 L 262.00880821309 241.36495542369195 L 262.0097476784864 241.36462080005566 L 262.5355803341935 241.17791773223843 L 262.5366442430188 241.1775413303767 L 263.06270940437633 240.99209169062647 L 263.06389834795215 240.99167424526163 L 263.59021518430876 240.80762582307426 L 263.591529818702 240.80716815963498 L 264.1181174994066 240.62466874450624 L 264.11955854237107 240.62417178162195 L 264.6464362367725 240.4433691630477 L 264.64800446430615 240.44283391526395 L 265.1751913417532 240.26387588273994 L 265.1768875842513 240.26330346343838 L 265.7044028140928 240.08633780646048 L 265.70622795207123 240.08572943096564 L 266.234090703656 239.91090393902965 L 266.23604566302237 239.91026092788059 L 266.7642751056993 239.73772339048233 L 266.76636085254387 239.73704717284585 L 267.2949761556618 239.56694537948113 L 267.2971936905438 239.56623749667827 L 267.8262140234515 239.3987192368429 L 267.8285643751521 239.39798134595856 L 268.3580089071984 239.23319440914835 L 268.36049312591456 239.23242828668845 L 268.8903810264483 239.07052046239923 L 268.89300017639994 239.0697280079572 L 269.42335061476996 238.91084708568476 L 269.42610576619603 238.91003032557302 L 269.9569379117512 238.75432409481323 L 269.95983013226913 238.75348518561248 L 270.49116315435816 238.60110143586112 L 270.49419349966684 238.60024266783356 L 271.0260465676387 238.45132918858644 L 271.0292160715433 238.45045298889542 L 271.56160835474674 238.30515756964834 L 271.56491801849324 238.30426650532053 L 272.0978686862771 238.16273693556934 L 272.10131946718354 238.16183371613118 L 272.6348476888967 238.02421778537172 L 272.638440488278 238.02330526508575 L 273.17256543326914 237.88975076281378 L 273.17630108365665 237.88883194243596 L 273.7110419212747 237.7594866581473 L 273.71492117294014 237.75856468612133 L 274.250297072534 237.63357640931181 L 274.254320579336 237.6326545823118 L 274.79035071025453 237.51217110247717 L 274.7963480601813 237.5108617011807 L 275.37523065204215 237.38819229721346 L 275.37883557890086 237.38744224630622 L 275.9638573093159 237.26796670320044 L 275.9674343653322 237.26724976615634 L 276.5584288938229 237.15103981437858 L 276.5619813617341 237.15035461657627 L 277.1587823478219 237.03748198659315 L 277.1623133737318 237.03682729107948 L 277.76475447693815 236.92736371335755 L 277.7682670813755 236.92673841077746 L 278.3761819612218 236.82075561578336 L 278.37967904936477 236.8201587154298 L 278.9929013653725 236.71772843363007 L 278.9963857365088 236.71715905549516 L 279.6147491481994 236.61835301735638 L 279.6182235044862 236.61781038507897 L 280.2415616713812 236.5227003210678 L 280.245028625964 236.5221837556866 L 280.87317520758467 236.43084139626956 L 280.87663729212704 236.43035031070207 L 281.509425947995 236.34284738634577 L 281.51288561966714 236.3423812805224 L 282.15015000930373 236.25878952169342 L 282.15360965727376 236.2583479782859 L 282.79518344020045 236.17873911545084 L 282.7986453916668 236.17832179614047 L 283.44436222740507 236.1027675597659 L 283.44782875320567 236.10237420200482 L 284.09752230127697 236.03094632255736 L 284.10099562110673 236.03057673678066 L 284.75449954103243 235.96334694472688 L 284.75798182829755 235.96300101197954 L 285.41512977959917 235.90004103778602 L 285.4186231659333 235.8997187077323 L 286.0792488081322 235.84110028186564 L 286.0827553875979 235.84080157115264 L 286.7466923802157 235.7865964240794 L 286.75021421321037 235.78632141503067 L 287.4172962157683 235.7366012772175 L 287.4208353326525 235.73635011683453 L 288.0908960046721 235.69118671874796 L 288.0944544091358 235.6909596180006 L 288.7673274101386 235.65042469010723 L 288.7709070823185 235.650221923497 L 289.44642607182584 235.61438719626346 L 289.4500289711848 235.6142091016447 L 290.1280276087182 235.5831463055375 L 290.1316556766959 235.58299328418403 L 290.8119676217768 235.55677414966982 L 290.81562278421995 235.55664666657617 L 291.4980816963697 235.53534292412152 L 291.50176586574617 235.5352415085288 L 292.18620540448626 235.5189248886003 L 292.1899204818883 235.51885013473876 L 292.8761743067402 235.507592367803 L 292.87992218367805 235.50754493584347 L 293.56782395416326 235.50141775236705 L 293.57160651415063 235.50139836957536 L 294.2609898897905 235.50047350002484 L 294.2648090097203 235.50048296211307 L 294.95550765003634 235.50483213695503 L 294.95936520134416 235.50487130962438 L 295.6512127658578 235.51456625932548 L 295.6551106154685 235.51463607999654 L 296.34794076370116 235.52974853502326 L 296.3518807747542 235.5298500147486 L 297.0455271662273 235.55045170556764 L 297.0495111985703 235.5505859311228 L 297.7438074928054 235.57674858820067 L 297.7478374032501 235.5769167243488 L 298.44261725976855 235.6087120781521 L 298.44669490209486 235.60891537007808 L 299.14179198041813 235.64641515107343 L 299.1459192051161 235.6466549269821 L 299.8411671647657 235.68993086563606 L 299.8453458184993 235.69020853950929 L 300.54057831899655 235.73933236628847 L 300.54481024377344 235.7396494407946 L 301.2398609446399 235.79469288616556 L 301.24414797666867 235.7950509557144 L 301.93885053742576 235.85608575014376 L 301.94319450564063 235.8564865040779 L 302.63738258580975 235.92358437803222 L 302.6417853100409 235.92402960394577 L 303.3352925691435 235.99726228789163 L 303.3397558579081 235.99775387506412 L 304.0324159554656 236.07719309946816 L 304.03694160335414 236.07773304240035 L 304.72858819888813 236.16345053772912 L 304.733177983519 236.1640409397648 L 305.4236447365508 236.25610843648485 L 305.42830041506085 236.25675151350018 L 306.11742098511195 236.3552407420782 L 306.1221442901537 236.35593882621677 L 306.8097523367455 236.46092151711926 L 306.81454497195665 236.4616770605486 L 307.5004741546107 236.57322494424218 L 307.5053377895204 236.57404052290212 L 308.189421767758 236.6922253298534 L 308.1943580320938 236.69310364716392 L 308.87643046543656 236.81799710783943 L 308.8814409427947 236.81894099832994 L 309.56133549076395 236.95061484319632 L 309.56642171160337 236.95162727601306 L 310.2439720337206 237.09015323553686 L 310.24913546764236 237.09123731778018 L 310.92417522342896 237.23668712242804 L 310.92941727070104 237.23784610226377 L 311.6017801196785 237.39029148250225 L 311.6071021019682 237.39152875198585 L 312.276621703658 237.55104143828152 L 312.2820248539332 237.55236053582473 L 312.9485348678568 237.71901225864417 L 312.9540203194212 237.72041687104803 L 313.61735440509995 237.8942793608579 L 313.6229231797293 237.89577332482543 L 314.28291499668467 238.07691831209223 L 314.28856799183535 238.0785056151268 L 314.9450511995888 238.26700483031718 L 314.9507891746553 238.268689610903 L 315.60359743272835 238.46461478448353 L 315.60942099433225 238.46640133143458 L 316.2583879622463 238.66982419387182 L 316.26429754854973 238.67171694472688 L 316.9092568858262 238.88270922648746 L 316.91525274986924 238.88471276481872 L 317.5560381160295 239.1033461963692 L 317.56212030810735 239.1054652478627 L 318.19856536267304 239.33181155966966 L 318.2047337117796 239.33405098682732 L 318.83667211427206 239.5681819093574 L 318.84292620865506 239.57054670466135 L 319.47019161859566 239.81253396838108 L 319.4765307854873 239.81502924575565 L 320.09895686239764 240.06494458113167 L 320.10538014700603 240.06757556553146 L 320.72280055040744 240.3254907030303 L 320.72930669427956 240.32826271798066 L 321.34155508369355 240.59424938806896 L 321.3481425025867 240.59716784098373 L 321.9550525375347 240.87129777412804 L 321.9617192989647 240.87436813923225 L 322.5631246389681 241.1567130658992 L 322.569868439633 241.15994086459074 L 323.1656027442134 241.45057251524688 L 323.1724208875296 241.45396329374174 L 323.7623178162083 241.75295339885366 L 323.7692071902282 241.756512702975 L 324.35310040252665 242.06393299300925 L 324.36005745854936 242.06766634000314 L 324.9377806139891 242.38358854542642 L 324.94480134621165 242.38750139271514 L 325.51618810431404 242.71199724399398 L 325.52326803090875 242.71609495481266 L 326.08815205119527 243.04923618241364 L 326.09528619723835 243.05352398832096 L 326.65350113923046 243.39538232271067 L 326.6606840219373 243.3998652830137 L 327.2120635451564 243.75051245465872 L 327.2192891619113 243.75519541285337 L 327.76366692587897 244.11470315222033 L 327.77092874557025 244.11959068961548 L 328.3081384098077 244.4880307271709 L 328.31542936799383 244.49312711394026 L 328.8453045920227 244.8705711801508 L 328.8526170904623 244.8758803241388 L 329.37499153380395 245.26240014947098 L 329.38231744487547 245.26792554316702 L 329.89702476705145 245.66359285808747 L 329.9043554435698 245.66933752427576 L 330.4112293041014 246.07422405925107 L 330.41855559500056 246.08019049593585 L 330.91742965340933 246.4943679814326 L 330.9247419257109 246.50055810673345 L 331.41544984151835 246.92409827321822 L 331.4227380089318 246.9305133710181 L 331.9051134416592 247.36348794895747 L 331.91236700007016 247.37012861616773 L 332.3862436092391 247.81260933602832 L 332.393451679235 247.81947543240642 L 332.85866312436684 248.27153402465478 L 332.8658145008177 248.27862462616227 L 333.32219444143396 248.740332821265 L 333.32927765000807 248.7476461779911 L 333.7766597456301 249.21907570641483 L 333.7836631059628 249.22660920609903 L 334.22188101611215 249.70783179831028 L 334.22879271118194 249.71558193648406 L 334.65768009538 250.20666932294947 L 334.664488246473 250.2146316806681 L 335.08387876424126 250.71565559185424 L 335.09057151071494 250.72382482191526 L 335.50029882157475 251.23485698828873 L 335.5068644044637 251.24322681071962 L 335.9067621679367 251.764338962747 L 335.91318901629717 251.77290217020547 L 336.30309089190473 252.30416603835332 L 336.31195544008574 252.3166403074114 L 336.6416901919509 252.7960169737792 L 336.652600342971 252.81257207146956 L 336.9633147722346 253.3050315092305 L 336.97329360750183 253.32154486864928 L 337.26543479284777 253.82676305397155 L 337.27449721573817 253.84313478070038 L 337.5485122358505 254.3607876897521 L 337.5566854441841 254.37692762702386 L 337.81302137774685 254.90669123597328 L 337.8203425972763 254.9225201409933 L 338.0594465229734 255.46407042600853 L 338.06596069571674 255.47952054187246 L 338.28827969223227 256.0325334791217 L 338.2940372563718 256.04754857869676 L 338.5000184023896 256.6117001443482 L 338.50507326414447 256.6262351446756 L 338.69516363834873 257.20120131489733 L 338.69957139970364 257.2152215684913 L 338.87421808077823 257.8006783194516 L 338.8780345543372 257.81415868537334 L 339.0376846209661 258.4097819932403 L 339.0409646368395 258.4227057796486 L 339.1860651677068 259.0281716205904 L 339.18886165803156 259.04052947503084 L 339.3198597318212 259.6555138252157 L 339.3222230659417 259.66730263204414 L 339.43956576133763 260.29148146764015 L 339.44154329784027 260.30270329570124 L 339.54567769352656 260.93575259287667 L 339.54731351296346 260.94641372212857 L 339.63868668762404 261.5880094570515 L 339.64002147057 261.59811950086737 L 339.7190805028889 262.24793764970605 L 339.720151520824 262.2575087802314 L 339.7873434894852 262.9152253191539 L 339.788184679951 262.9242715962004 L 339.8439566636385 263.58956250137504 L 339.84459876550864 263.59809930056275 L 339.8893978429064 264.27064054815753 L 339.8898685719669 264.2786840809801 L 339.92414182175895 264.95815164716333 L 339.92446607083275 264.9657185639642 L 339.9486605717031 265.65178842490394 L 339.9488606231183 265.6588954910482 L 339.9634234537509 266.3512436229127 L 339.96351919498045 266.3579074584339 L 339.96889743405933 267.0562098373913 L 339.9689065698644 267.0624467108394 L 339.9655472960735 267.76637931305794 L 339.9654855524915 267.7722049809944 L 339.95383584451486 268.48144378264215 L 339.9537171616123 268.48687336708946 L 339.93422409813394 269.2010943443346 L 339.93406080965195 269.20614224139683 L 339.90717146935583 269.9250213704076 L 339.90697446828455 269.92970118417134 L 339.87313592985464 270.65291444111585 L 339.87291481962814 270.65723893778437 L 339.8325741617484 271.3844622988308 L 339.8323373932205 271.38844337681115 L 339.785941694575 272.1193528181277 L 339.78569668924644 272.1230014904739 L 339.7336930285192 272.8572729882287 L 339.7334462886867 272.86059937444344 L 339.6762817445616 273.5979089048047 L 339.67603895116923 273.6009222295155 L 339.6141606023304 274.34094576865135 L 339.6139267013513 274.343654365119 L 339.5477816264826 275.0860678891977 L 339.54756090466077 275.0884792059803 L 339.4775961824463 275.8329586911699 L 339.4773923331953 275.8350793005814 L 339.404055042319 276.58130072305016 L 339.40387122252093 276.5831363303016 L 339.3276084416668 277.3307756662177 L 339.3274473200445 277.3323311183476 L 339.24870612789647 278.0810643438791 L 339.2485699255532 278.08234363774824 L 339.1677974007954 278.8318467290634 L 339.1676879244308 278.83285301783434 L 339.08533114574715 279.5828019511013 L 339.0852498139663 279.58353754873826 L 339.0017037230852 280.33407468354494 L 338.9174974257335 281.08414103780547 L 338.8330743552769 281.83344787010174 L 338.74887451338327 282.5817340590908 L 338.6653559479544 283.3285752010034 L 338.58296520677726 284.0736449318359 L 338.5021484658708 284.81661600992163 L 338.4233515077347 285.5571602987047 L 338.34701969236727 286.29494874610543 L 338.27359792039965 287.0296513615497 L 338.20353058778255 287.76093718981474 L 338.13726153109036 288.48847428324103 L 338.07523396256414 289.2119296721099 L 338.01789039374694 289.93096933447987 L 337.96567254649506 290.64525816621153 L 337.9190212499713 291.3544599526514 L 337.8783763220929 292.0582373439493 L 337.84417643384666 292.7562518358751 L 337.81685895476255 293.4481637593932 L 337.79685977787534 294.1336322824714 L 337.7846131225882 294.8123154285671 L 337.78055131407797 295.4838701175616 L 337.78510453831944 296.1479522358505 L 337.79870057249843 296.8042167440711 L 337.82176449164257 297.45231783226694 L 337.85471835383134 298.091909134436 L 337.8979808684939 298.72264401611335 L 337.9519670552127 299.3441759506044 L 338.0170879042964 299.95615900115763 L 338.09375005532377 300.5582484276053 L 338.1823555159994 301.1501014361428 L 338.2833014510708 301.73137808986087 L 338.396980079549 302.30174239396337 L 338.52377872776674 302.8608635632518 L 338.6640800950294 303.40841746852203 L 338.8182627965917 303.9440882427554 L 338.9867022535225 304.4675700063107 L 339.16977199803233 304.97856864232557 L 339.36784545312605 305.47680352079817 L 339.5812982233594 305.96200903379923 L 339.810510896394 306.4339357702899 L 340.0558723014028 306.8923511332378 L 340.3177831017091 307.3370391929119 L 340.596659521096 307.7677995877797 L 340.89293692659226 308.1844453358748 L 341.20707293054085 308.5867995082058 L 341.5395496489927 308.97469083732955 L 341.890874777596 309.3479484746311 L 342.26158122860585 309.7063962462176 L 342.65222520992603 310.0498468619833 L 343.06338280131996 310.37809657931274 L 343.49564526439843 310.69092079616445 L 343.9496134773466 310.98807094817727 L 344.4258919819569 311.2692729279068 L 344.9250831526085 311.5342270619674 L 345.44778194422577 311.7826095081489 L 345.99457156564443 312.0140747994 L 346.5682947892299 312.2291116890929 L 347.40212943593707 312.5127635941582 L 348.23914912766804 312.7792713095 L 349.07676231249354 313.0281944438725 L 349.91493853692384 313.2599629120468 L 350.7536466449153 313.4750055798424 L 351.5928546868038 313.67375035052623 L 352.4325298439099 313.8566242589046 L 353.27263836921975 314.024053570817 L 354.1131455440506 314.1764638857802 L 354.9540156502532 314.3142802406668 L 355.79521195716916 314.43792721248207 L 356.636696722364 314.54782901853827 L 357.478431204763 314.6444096125446 L 358.32037568896357 314.7280927754384 L 359.162489519111 314.7993022000065 L 360.00473114090215 314.85846156862954 L 360.84705815025967 314.9059946237192 L 361.6894273471709 314.94232523062465 L 362.5317947933911 314.967877432993 L 363.374115872764 314.98307550072485 L 364.2163453530363 314.9883439708048 L 365.058437448195 314.98410768139377 L 365.90034588045927 314.9707917996509 L 366.7420239412256 314.94882184381134 L 367.5834245502967 314.91862370008255 L 368.42450031315747 314.88062363493253 L 369.2652035755245 314.8352483033628 L 370.10548647537627 314.78292475372086 L 370.9453009918917 314.72408042961973 L 371.7845989914412 314.65914316947624 L 372.62333227035845 314.5885412041762 L 373.46145259479533 314.5127031533036 L 374.298911737382 314.43205802037863 L 375.1356615109491 314.3470351874785 L 375.97165379937195 314.2580644095924 L 376.8068405855703 314.16557580903464 L 377.6411739768359 314.06999987019447 L 378.47460622770984 313.97176743486244 L 379.3070897599917 313.8713096984215 L 380.13857718095835 313.76905820698863 L 380.9690212985111 313.66544485584564 L 381.79837513484546 313.56090188913237 L 382.62659193714757 313.4558619011259 L 383.4536881232656 313.350749856949 L 384.27961842293433 313.24599908112094 L 385.103638647628 313.142131098159 L 385.10427371699507 313.14205146038205 L 385.92671587142377 313.0394517462733 L 385.92760834092803 313.0393412256278 L 386.74842481090275 312.9384432550023 L 386.74957687460335 312.938302995888 L 387.56872004593504 312.8395402433756 L 387.5701341374191 312.8393717913961 L 388.3875563959188 312.74317773162693 L 388.38923518042645 312.74298304858775 L 389.2048889119051 312.64979115619167 L 389.20683527518315 312.64957263698363 L 390.02067286545173 312.55981638659074 L 390.0228898990322 312.5595768778788 L 390.83486373390167 312.473689744119 L 390.8373547164644 312.4734325647136 L 391.6474171817457 312.3918480222169 L 391.650185556184 312.391576984957 L 392.45828903768813 312.3147285083534 L 392.46133838346094 312.31444794327047 L 393.2674352669989 312.2427690071899 L 393.2707692673229 312.24248378565636 L 394.07481193870564 312.1764078647289 L 394.0784343421136 312.1761234242146 L 394.8803751871521 312.11608399307016 L 394.88428976293227 312.11580636204286 L 395.6840811674375 312.0622368953115 L 395.6882916544609 312.0619727177159 L 396.4858860042438 312.0153066900275 L 396.49039605270457 312.01506324866546 L 397.2857457335761 311.9757341346501 L 397.29055883919585 311.9755193726613 L 398.08361623696703 311.94396064694894 L 398.0887356672787 311.9437831864594 L 398.8794531677605 311.92042832367997 L 398.88488188016595 311.92029748054466 L 399.67321186916934 311.9055799553282 L 399.67895242059126 311.90550574875147 L 400.4648472839272 311.89985903572796 L 400.4709017320346 311.89985219140306 L 401.254313855514 311.90370976520245 L 401.26068365170494 311.9037817104774 L 402.0415654211389 311.9175770457298 L 402.04825129572043 311.91773989518765 L 402.8265550969199 311.9419064665228 L 402.83355693723104 311.94217299627616 L 403.6092351560069 311.9771442783243 L 403.61655187858565 311.97752788726905 L 404.3895569007489 312.02373735466 L 404.3971863190612 312.02425201093797 L 405.16747053042286 312.0821331383018 L 405.17540922011517 312.0827933092903 L 405.9429250064862 312.152779571257 L 405.9511681706225 312.1536001355597 L 406.7158679178138 312.2361250067592 L 406.72440925505765 312.2371211469287 L 407.4862453488803 312.332618101991 L 407.49507692809175 312.33380517708264 L 408.25400175435664 312.44270769063775 L 408.2631138995475 312.44410108819085 L 409.01907984406563 312.56684263486875 L 409.0284610340667 312.5684576025347 L 409.781420482649 312.7054716569653 L 409.79105727014894 312.7073231147526 L 410.5409626086065 312.859043151566 L 410.5508395633847 312.8611454865377 L 411.2976431775284 313.02800498036385 L 411.3077428586768 313.0303718265754 L 412.0513971343176 313.21280425204424 L 412.0617000959913 313.2154482595156 L 412.8021574189402 313.41388709125715 L 412.812642253662 313.4168196887784 L 413.5498550097299 313.6316984014226 L 413.5604984324807 313.63492955893776 L 414.2944190074787 313.8666816271147 L 414.305195982726 313.87021962424336 L 415.035776762465 314.11927852258293 L 415.0466606749436 314.1231297304459 L 415.77385404523466 314.3899289335781 L 415.7848169137296 314.3940976174223 L 416.50857526038357 314.67907059997714 L 416.5195879920496 314.6835587500835 L 417.2398637008775 314.987138986691 L 417.2508963818503 314.99194618464855 L 417.9676418386631 315.3145671499386 L 417.9786640549806 315.31969047656304 L 418.6918316455892 315.6617856451657 L 418.7028128268622 315.6672196351366 L 419.41235493707774 316.0292224816818 L 419.4232647140534 316.03495912841765 L 420.1291337296867 316.41730312753543 L 420.13994229592373 316.4233319399901 L 420.84209060278585 316.8264505663104 L 420.85276907020426 316.8327586773701 L 421.55114905410613 317.257085405523 L 421.56166979222485 317.2636577296251 L 421.6583138750144 317.3257113270641 L 421.66172931134633 317.3268788423124 L 421.70901008947015 317.34578112930006 L 421.754123208545 317.36939415368687 L 421.7966007970867 317.39747302305585 L 421.85418411987814 317.4399031220616 L 421.9117744921061 317.4823401085857 L 421.9693712944549 317.5247852200131 L 421.9762285878765 317.5298392057964 L 422.2562338389775 317.70962603424044 L 422.2665707882222 317.71644546986533 L 422.9572712836365 318.1844888255732 L 422.96740023415543 318.1915364965022 L 423.65418956404244 318.68208837793253 L 423.6640883929444 318.6893439057315 L 424.346918943115 319.20283778751434 L 424.3565678048268 319.2102795866848 L 425.03539196109205 319.7471489434501 L 425.04477342751835 319.7547545301309 L 425.71954357568916 320.31543283650865 L 425.75610848763756 320.349020306809 L 425.78916201186127 320.3860685926447 L 425.8183782259426 320.42621238147586 L 425.84346904504497 320.46905583772934 L 425.85097644601336 320.48540580692014 L 425.866146666081 320.49772241436546 L 425.8666616375254 320.49814108385925 L 425.9226567483108 320.5437266198641 L 425.9231780939047 320.5441516299382 L 425.9791286823316 320.58982621066025 L 425.9796563636498 320.5902575765223 L 426.035561811352 320.6360224386936 L 426.0360957893487 320.63646017552605 L 426.0919554779601 320.6823165558789 L 426.092495712963 320.6827606788255 L 426.1483090241176 320.7287098140921 L 426.1488554758299 320.72916033825106 L 426.20462179116157 320.7752034651635 L 426.2051744186581 320.7756604055759 L 426.26089311980076 320.82179876086633 L 426.261451881528 320.82226213250686 L 426.3171223501155 320.8684969529076 L 426.31768720388703 320.86896677067205 L 426.37330882155334 320.91529929291517 L 426.37387972455275 320.91577557161327 L 426.4294518729318 320.962207032431 L 426.4300287817082 320.96268978677347 L 426.4855508424338 321.009221422898 L 426.4861337129016 321.00971066748644 L 426.54160506760775 321.05634371565 L 426.54219385504615 321.0568394649666 L 426.5976138853667 321.10357516190123 L 426.59820854441847 321.10407743029776 L 426.65357663198733 321.15091701273576 L 426.65417711665776 321.1514258144223 L 426.7094926431089 321.19837051909576 L 426.7100989067662 321.19888586813033 L 426.7653612537335 321.24593693177155 L 426.7659732491072 321.2464588420482 L 426.82118179822453 321.2936175013893 L 426.82179947740514 321.2941459866268 L 426.87695361030643 321.34141347839994 L 426.87757692474685 321.3419485521317 L 426.93267602306605 321.3893261130691 L 426.9333049235806 321.38986778863097 L 426.98834836895156 321.43735665546484 L 426.98898280571467 321.43790494598255 L 427.0439699797713 321.48550635544495 L 427.0446099023211 321.486061273825 L 427.09954018669737 321.53377646264823 L 427.10018554393343 321.534338021564 L 427.1550583202632 321.58216822648023 L 427.15570906044854 321.5827364383615 L 427.2105237103657 321.6306828961029 L 427.21117978112693 321.63125777312337 L 427.2659356862655 321.6793217204221 L 427.2665970345958 321.6799032744893 L 427.32129357658954 321.72808594807753 L 427.32196014884653 321.7286741908177 L 427.3765967093294 321.77697682742763 L 427.3772684512399 321.77757177017713 L 427.4318444118459 321.82599560654097 L 427.46750242096584 321.86096907134566 L 427.49949328975146 321.8993255723485 L 427.5274977958016 321.94068236738553 L 427.5512364948246 321.98462677571627 L 427.5704725090867 322.0307202959783 L 427.58501389110734 322.07850298179414 L 427.5947155390165 322.12749803136745 L 427.59948064446047 322.1772165452727 L 427.59926165860867 322.2271624049614 L 427.59406076662174 322.27683722330414 L 427.58392986584704 322.32574531777055 L 427.5689700479584 322.3733986566208 L 427.54933059020783 322.4193217287536 L 427.52520746585594 322.4630562886158 L 427.49684138864296 322.5041659288282 L 427.4645154108154 322.54224043489637 L 427.42855209867594 322.5768998785561 L 427.3893103138401 322.6077984089053 L 427.3471816323187 322.6346277034937 L 426.92091900605607 322.87705194591797 L 426.49465637979347 323.1194761883422 L 426.06839375353076 323.3619004307665 L 425.6421311272682 323.60432467319066 L 425.21586850100556 323.8467489156149 L 424.78960587474296 324.08917315803916 L 424.3633432484803 324.3315974004634 L 423.9370806222177 324.57402164288766 L 423.51081799595505 324.8164458853119 L 423.08455536969245 325.05887012773616 L 422.6582927434298 325.3012943701604 L 422.23203011716714 325.5437186125847 L 421.80576749090454 325.78614285500885 L 421.37950486464194 326.0285670974331 L 420.9532422383793 326.27099133985735 L 420.5269796121167 326.5134155822816 L 420.10071698585404 326.75583982470584 L 419.67445435959144 326.9982640671301 L 419.2481917333288 327.24068830955434 L 418.8219291070661 327.48311255197865 L 418.3956664808035 327.7255367944028 L 417.96940385454093 327.96796103682703 L 417.5431412282783 328.2103852792513 L 417.1168786020157 328.45280952167553 L 416.690615975753 328.6952337640998 L 416.2643533494904 328.93765800652403 L 415.4118280969651 329.4225064913726 L 414.9855654707025 329.6649307337967 L 414.5593028444399 329.907354976221 L 413.70677759191466 330.39220346106947 L 412.8542523393894 330.87705194591797 L 412.0017270868641 331.3619004307665 L 411.57546446060155 331.60432467319066 L 411.1492018343389 331.8467489156149 L 410.7229392080763 332.08917315803916 L 410.29667658181364 332.3315974004634 L 409.87041395555104 332.57402164288766 L 409.4441513292884 332.8164458853119 L 409.0178887030258 333.05887012773616 L 408.59162607676313 333.3012943701604 L 408.1653634505005 333.5437186125847 L 407.7391008242379 333.78614285500885 L 407.3128381979753 334.0285670974331 L 406.8865755717126 334.27099133985735 L 406.46031294545 334.5134155822816 L 406.0340503191874 334.75583982470584 L 405.6077876929248 334.9982640671301 L 405.1815250666621 335.24068830955434 L 404.75526244039946 335.48311255197865 L 404.32899981413686 335.7255367944028 L 403.90273718787427 335.96796103682703 L 403.4764745616116 336.2103852792513 L 403.050211935349 336.45280952167553 L 402.62394930908636 336.6952337640998 L 402.19768668282376 336.93765800652403 L 401.7714240565611 337.1800822489483 L 401.34516143029845 337.4225064913726 L 400.91889880403585 337.6649307337967 L 400.49263617777325 337.907354976221 L 399.640110925248 338.39220346106947 L 399.2138482989854 338.6346277034937 L 398.78758567272274 338.87705194591797 L 398.36132304646014 339.1194761883422 L 397.9350604201975 339.36190043076647 L 397.50879779393483 339.6043246731908 L 397.08253516767223 339.8467489156149 L 396.65627254140963 340.08917315803916 L 396.230009915147 340.3315974004634 L 395.8037472888844 340.57402164288766 L 395.3774846626217 340.8164458853119 L 394.9512220363591 341.05887012773616 L 394.52495941009647 341.3012943701604 L 394.0986967838338 341.5437186125847 L 393.6724341575712 341.78614285500885 L 393.2461715313086 342.0285670974331 L 392.81990890504596 342.27099133985735 L 392.39364627878336 342.5134155822816 L 391.9673836525207 342.75583982470584 L 391.5411210262581 342.9982640671301 L 391.11485839999546 343.24068830955434 L 390.6885957737328 343.48311255197865 L 390.2623331474702 343.7255367944028 L 389.8360705212076 343.96796103682703 L 389.40980789494495 344.2103852792513 L 388.98354526868235 344.45280952167553 L 388.5572826424197 344.6952337640998 L 388.1310200161571 344.93765800652403 L 387.70475738989444 345.1800822489483 L 387.2784947636318 345.4225064913726 L 386.8522321373692 345.6649307337967 L 386.4259695111066 345.907354976221 L 385.99970688484393 346.1497792186452 L 385.57344425858133 346.39220346106947 L 385.15469118375256 346.63035686855505 L 385.14891739970153 346.6339099664326 L 385.1357860865681 346.6419907745148 L 385.1226547734389 346.6500715825942 L 385.1095234603068 346.6581523906755 L 385.0963921471763 346.66623319875583 L 385.08326083404415 346.67431400683716 L 385.0701295209123 346.6823948149183 L 385.05699820778153 346.69047562299875 L 385.04386689465105 346.69855643107906 L 385.0307355815189 346.7066372391604 L 385.0044729552557 346.72279885532237 L 384.99134164212495 346.7308796634028 L 384.97821032899446 346.7389604714831 L 384.96507901586233 346.7470412795644 L 384.95194770273184 346.75512208764474 L 384.9388163895984 346.7632028957269 L 384.9256850764692 346.7712837038063 L 384.9125537633371 346.77936451188765 L 384.8994224502066 346.78744531996796 L 384.88629113707447 346.7955261280493 L 384.88058795279255 346.7990357799151 L 384.9 346.8 Z M 408.64596294155183 226.51908914671804 L 406.31768011326903 225.1675739952029 L 403.9893972849862 223.81605884368776 L 403.881519927685 223.75343849485088 L 403.95702982861314 224.77360808155632 L 403.9570828414812 224.77433143361847 L 404.0834323481797 226.51567497823717 L 404.08348308925855 226.51638121736056 L 404.2064748680814 228.24536733401123 L 404.20652345232065 228.24605705614857 L 404.3261946052333 229.96188372401073 L 404.32624114067386 229.9625574979396 L 404.44262876964183 231.66442269619293 L 404.442673357898 231.66508106503565 L 404.55581456488676 233.35218277285972 L 404.55585730159146 233.35282625550292 L 404.6657891885665 235.02436245207738 L 404.6658301637802 235.0249915444991 L 404.77258983270696 236.68016020900353 L 404.7726291312952 236.68077538551407 L 404.8762536841393 238.31877449712812 L 404.87629138612135 238.319376211532 L 404.91819836363936 238.99472481568534 L 405.27869672057494 238.1232405572249 L 405.2798633732724 238.1204442575915 L 405.7834973046688 236.9235241329701 L 405.7847258846357 236.92062982061728 L 406.29612031047765 235.72633156822292 L 406.29741531783156 235.72333432191073 L 406.8164910872593 234.53264547239112 L 406.81785742831966 234.52954007590816 L 407.3445353904736 233.34344815991113 L 407.34597842118484 233.34022908350624 L 407.88017942520526 232.15972163167956 L 407.8817049997973 232.15638301280435 L 408.4233498948245 230.98244755579574 L 408.4249644203955 230.9789831792903 L 408.9739740555698 229.81260724774756 L 408.9756845533683 229.80901052565935 L 409.53197977783003 228.6511816502302 L 409.5337939521173 228.64744560153474 L 410.0972956150068 227.49915131286704 L 410.0992219304934 227.49526854345703 L 410.1507280168462 227.3925709995353 L 408.64596294155183 226.51908914671804 Z" id="element_97" /></svg>