<svg xmlns="http://www.w3.org/2000/svg" viewBox="0.0 0.0 200.0 200.0" height="200.0px" width="200.0px"><path fill="#9AADAF" fill-opacity="1.0"  filling="0" d="M39.0 13.456642150878906 L160.99609375 13.456642150878906 L160.99609375 138.86679077148438 L39.0 138.86679077148438 L39.0 13.456642150878906 Z"></path>
<path fill="#8A9FA0" fill-opacity="1.0"  filling="0" d="M140.609375 13.456642150878906 L160.99609375 13.456642150878906 L160.99609375 138.86679077148438 L140.609375 138.86679077148438 L140.609375 13.456642150878906 Z"></path>
<path fill="#AFE5FE" fill-opacity="1.0"  filling="0" d="M100.0 23.239845275878906 C72.486328125 23.239845275878906 50.18241882324219 45.54413986206055 50.18241882324219 73.05741882324219 C50.18241882324219 100.5707015991211 72.486328125 122.87539672851562 100.0 122.87539672851562 C127.513671875 122.87539672851562 149.81756591796875 100.57109832763672 149.81756591796875 73.05781555175781 C149.81756591796875 45.54452896118164 127.513671875 23.239845275878906 100.0 23.239845275878906 Z M100.0 88.1792984008789 C91.6484375 88.1792984008789 84.8785171508789 81.40898132324219 84.8785171508789 73.05781555175781 C84.8785171508789 64.7066421508789 91.6484375 57.935935974121094 100.0 57.935935974121094 C108.3515625 57.935935974121094 115.12187957763672 64.70625305175781 115.12187957763672 73.05741882324219 C115.12187957763672 81.40859985351562 108.3515625 88.1792984008789 100.0 88.1792984008789 Z"></path>
<path fill="#DFEAEF" fill-opacity="1.0"  filling="0" d="M168.2058563232422 13.456642150878906 L31.794143676757812 13.456642150878906 C29.922264099121094 13.456642150878906 28.40508270263672 11.939064025878906 28.40508270263672 10.067573547363281 L28.40508270263672 6.318748474121094 C28.40508270263672 4.446876525878906 29.922653198242188 2.9296875 31.794143676757812 2.9296875 L168.2058563232422 2.9296875 C170.07772827148438 2.9296875 171.59490966796875 4.447265625 171.59490966796875 6.318748474121094 L171.59490966796875 10.067573547363281 C171.59490966796875 11.939064025878906 170.07772827148438 13.456642150878906 168.2058563232422 13.456642150878906 Z"></path>
<path fill="#BFCFD6" fill-opacity="1.0"  filling="0" d="M168.2058563232422 2.9296875 L151.20703125 2.9296875 L151.20703125 13.45703125 L168.2062530517578 13.45703125 C170.078125 13.45703125 171.59530639648438 11.939453125 171.59530639648438 10.067970275878906 L171.59530639648438 6.3191375732421875 C171.59490966796875 4.446876525878906 170.07772827148438 2.9296875 168.2058563232422 2.9296875 Z"></path>
<path fill="#76D8FD" fill-opacity="1.0"  filling="0" d="M101.0062484741211 20.310935974121094 L101.0062484741211 55.00702667236328 C109.3480453491211 55.01836013793945 116.10741424560547 61.783592224121094 116.10741424560547 70.12812805175781 C116.10741424560547 78.47265625 109.34844207763672 85.2378921508789 101.0062484741211 85.24922180175781 L101.0062484741211 119.9453125 C128.51014709472656 119.93399047851562 150.80313110351562 97.6343765258789 150.80313110351562 70.12812805175781 C150.80313110351562 42.62187576293945 128.51014709472656 20.321876525878906 101.0062484741211 20.310935974121094 Z"></path>
<path fill="#DFEAEF" fill-opacity="1.0"  filling="0" d="M162.72186279296875 197.0703125 L37.27812957763672 197.0703125 C32.37773132324219 197.0703125 28.40508270263672 193.09765625 28.40508270263672 188.197265625 L28.40508270263672 81.93086242675781 C28.40508270263672 77.03047180175781 32.37773132324219 73.05781555175781 37.27812957763672 73.05781555175781 L162.72186279296875 73.05781555175781 C167.6222686767578 73.05781555175781 171.59490966796875 77.03047180175781 171.59490966796875 81.93086242675781 L171.59490966796875 188.197265625 C171.59490966796875 193.09765625 167.6222686767578 197.0703125 162.72186279296875 197.0703125 Z"></path>
<path fill="#BFCFD6" fill-opacity="1.0"  filling="0" d="M162.72186279296875 73.05781555175781 L151.16561889648438 73.05781555175781 C151.1921844482422 73.33671569824219 151.20703125 73.619140625 151.20703125 73.90508270263672 L151.20703125 180.17149353027344 C151.20703125 185.07186889648438 147.234375 189.04452514648438 142.333984375 189.04452514648438 L28.446090698242188 189.04452514648438 C28.872657775878906 193.54727172851562 32.66327667236328 197.0703125 37.27812957763672 197.0703125 L162.72186279296875 197.0703125 C167.6222686767578 197.0703125 171.59490966796875 193.09765625 171.59490966796875 188.197265625 L171.59490966796875 81.93086242675781 C171.59490966796875 77.03047180175781 167.6222686767578 73.05781555175781 162.72186279296875 73.05781555175781 Z"></path>
<path fill="" fill-opacity="1.0"  filling="0" d="M149.81756591796875 91.79765319824219 L50.18241882324219 91.79765319824219 C48.564453125 91.79765319824219 47.25312423706055 93.109375 47.25312423706055 94.72695922851562 C47.25312423706055 96.34492492675781 48.564453125 97.65625 50.18241882324219 97.65625 L149.81756591796875 97.65625 C151.435546875 97.65625 152.74688720703125 96.34452819824219 152.74688720703125 94.72695922851562 C152.74688720703125 93.10897827148438 151.435546875 91.79765319824219 149.81756591796875 91.79765319824219 Z"></path>
<path fill="" fill-opacity="1.0"  filling="0" d="M112.38750457763672 110.25469207763672 L50.18241882324219 110.25469207763672 C48.564453125 110.25469207763672 47.25312423706055 111.56639862060547 47.25312423706055 113.18399047851562 C47.25312423706055 114.80155944824219 48.564453125 116.11328125 50.18241882324219 116.11328125 L112.38789367675781 116.11328125 C114.005859375 116.11328125 115.31719207763672 114.80155944824219 115.31719207763672 113.18399047851562 C115.31719207763672 111.56639862060547 114.0054702758789 110.25469207763672 112.38750457763672 110.25469207763672 Z"></path>
<path fill="" fill-opacity="1.0"  filling="0" d="M149.81756591796875 110.25469207763672 L128.01133728027344 110.25469207763672 C126.39335632324219 110.25469207763672 125.08203125 111.56639862060547 125.08203125 113.18399047851562 C125.08203125 114.80155944824219 126.39335632324219 116.11328125 128.01133728027344 116.11328125 L149.81756591796875 116.11328125 C151.435546875 116.11328125 152.74688720703125 114.80155944824219 152.74688720703125 113.18399047851562 C152.74688720703125 111.56639862060547 151.435546875 110.25469207763672 149.81756591796875 110.25469207763672 Z"></path>
<path fill="" fill-opacity="1.0"  filling="0" d="M162.72186279296875 70.12812805175781 L152.66445922851562 70.12812805175781 C151.13905334472656 42.40077590942383 128.10195922851562 20.310546875 100.0 20.310546875 C71.8984375 20.310546875 48.861324310302734 42.40077590942383 47.335933685302734 70.12812805175781 L37.27812957763672 70.12812805175781 C30.769920349121094 70.12812805175781 25.47539520263672 75.42265319824219 25.47539520263672 81.93086242675781 L25.47539520263672 188.197265625 C25.47539520263672 194.70547485351562 30.77031707763672 200.0 37.27812957763672 200.0 L162.72186279296875 200.0 C169.23007202148438 200.0 174.52459716796875 194.70547485351562 174.52459716796875 188.197265625 L174.52459716796875 81.93086242675781 C174.52459716796875 75.42265319824219 169.23007202148438 70.12812805175781 162.72186279296875 70.12812805175781 Z M100.0 26.169532775878906 C124.8714828491211 26.169532775878906 145.28163146972656 45.632423400878906 146.7980499267578 70.12812805175781 L117.81367492675781 70.12812805175781 C116.41015625 61.562503814697266 108.95663452148438 55.00664138793945 100.0 55.00664138793945 C91.0433578491211 55.00664138793945 83.58984375 61.562503814697266 82.18632507324219 70.1285171508789 L53.20234298706055 70.1285171508789 C54.71875 45.632423400878906 75.12890625 26.169532775878906 100.0 26.169532775878906 Z M111.83399200439453 70.12812805175781 L88.16561889648438 70.12812805175781 C89.48125457763672 64.8160171508789 94.28671264648438 60.865234375 99.99960327148438 60.865234375 C105.712890625 60.865234375 110.51875305175781 64.8160171508789 111.83399200439453 70.12812805175781 Z M168.66561889648438 188.197265625 C168.66561889648438 191.474609375 165.9992218017578 194.14102172851562 162.7214813232422 194.14102172851562 L37.27812957763672 194.14102172851562 C34.000389099121094 194.14102172851562 31.333984375 191.474609375 31.333984375 188.197265625 L31.333984375 81.93086242675781 C31.333984375 78.65351867675781 34.000389099121094 75.98710632324219 37.27812957763672 75.98710632324219 L50.18241882324219 75.98710632324219 L84.87812042236328 75.98710632324219 L115.1214828491211 75.98710632324219 L149.81756591796875 75.98710632324219 L162.7214813232422 75.98710632324219 C165.9992218017578 75.98710632324219 168.66561889648438 78.65351867675781 168.66561889648438 81.93086242675781 L168.66561889648438 188.197265625 Z"></path>
<path fill="" fill-opacity="1.0"  filling="0" d="M168.2058563232422 0.0 L31.794143676757812 0.0 C28.310157775878906 0.0 25.47539520263672 2.8343734741210938 25.47539520263672 6.318748474121094 L25.47539520263672 10.067573547363281 C25.47539520263672 13.551559448242188 28.310157775878906 16.385940551757812 31.794143676757812 16.385940551757812 L36.072265625 16.385940551757812 L36.072265625 57.43398666381836 C36.072265625 59.05195617675781 37.38359069824219 60.36328125 39.00156021118164 60.36328125 C40.619529724121094 60.36328125 41.93085861206055 59.05155944824219 41.93085861206055 57.43398666381836 L41.93085861206055 16.385940551757812 L158.068359375 16.385940551757812 L158.068359375 57.43398666381836 C158.068359375 59.05195617675781 159.3796844482422 60.36328125 160.99765014648438 60.36328125 C162.61561584472656 60.36328125 163.9269561767578 59.05155944824219 163.9269561767578 57.43398666381836 L163.9269561767578 16.385940551757812 L168.205078125 16.385940551757812 C171.68905639648438 16.385940551757812 174.52383422851562 13.551559448242188 174.52383422851562 10.067573547363281 L174.52383422851562 6.318748474121094 C174.52459716796875 2.8343734741210938 171.68984985351562 0.0 168.2058563232422 0.0 Z M168.66561889648438 10.067573547363281 C168.66561889648438 10.321090698242188 168.45938110351562 10.52734375 168.20547485351562 10.52734375 L160.99765014648438 10.52734375 L39.001953125 10.52734375 L31.794143676757812 10.52734375 C31.540626525878906 10.52734375 31.333984375 10.321090698242188 31.333984375 10.067573547363281 L31.333984375 6.318748474121094 C31.333984375 6.065238952636719 31.54022979736328 5.858978271484375 31.794143676757812 5.858978271484375 L168.2058563232422 5.858978271484375 C168.45938110351562 5.858978271484375 168.666015625 6.065238952636719 168.666015625 6.318748474121094 L168.666015625 10.067573547363281 L168.66561889648438 10.067573547363281 Z"></path></svg>