<svg xmlns="http://www.w3.org/2000/svg" viewBox="0.0 0.0 200.0 200.0" height="200.0px" width="200.0px"><path fill="#f2beca" fill-opacity="1.0"  filling="0" d="M98.8492202758789 142.43832397460938 C94.47698974609375 146.81057739257812 87.3875961303711 146.81057739257812 83.0153579711914 142.43832397460938 L57.576499938964844 116.99946594238281 C53.20426559448242 112.62724304199219 53.20426559448242 105.5382308959961 57.576499938964844 101.16560363769531 L16.954551696777344 60.543663024902344 C-0.443359375 77.94157409667969 -0.443359375 106.1487808227539 16.954551696777344 123.54669189453125 L76.46853637695312 183.0606689453125 C93.86644744873047 200.4585723876953 122.07364654541016 200.4585723876953 139.4715576171875 183.0606689453125 L98.8492202758789 142.43832397460938 Z"></path>
<path fill="#f9e6b9" fill-opacity="1.0"  filling="0" d="M144.520751953125 3.9136428833007812 C116.03775787353516 3.9136428833007812 92.9480972290039 27.003692626953125 92.9480972290039 55.486671447753906 C92.9480972290039 68.89789581298828 98.06837463378906 81.11264038085938 106.45932006835938 90.28523254394531 C104.23316192626953 94.36566162109375 100.34569549560547 97.40978240966797 95.70393371582031 98.5054702758789 C99.3304672241211 102.1238021850586 104.33551025390625 104.36089324951172 109.86320495605469 104.36089324951172 C113.83465576171875 104.36089324951172 117.533447265625 103.20114135742188 120.64787292480469 101.20935821533203 C127.78649139404297 104.944091796875 135.9059600830078 107.05931854248047 144.520751953125 107.05931854248047 C173.00372314453125 107.05931854248047 196.09378051757812 83.9692611694336 196.09378051757812 55.48628234863281 C196.09378051757812 27.00330352783203 173.00372314453125 3.9136428833007812 144.520751953125 3.9136428833007812 Z"></path>
<path fill="#f9dfe5" fill-opacity="1.0"  filling="0" d="M137.77157592773438 181.36068725585938 L100.54920196533203 144.13832092285156 C96.6379165649414 140.22702026367188 96.6379165649414 133.8856658935547 100.54920196533203 129.97476196289062 C104.46050262451172 126.06346130371094 110.80186462402344 126.06346130371094 114.7127685546875 129.97476196289062 L151.9351348876953 167.19712829589844 C155.846435546875 171.10841369628906 155.846435546875 177.44976806640625 151.9351348876953 181.36068725585938 C148.02423095703125 185.27197265625 141.682861328125 185.27197265625 137.77157592773438 181.36068725585938 Z"></path>
<path fill="#f9dfe5" fill-opacity="1.0"  filling="0" d="M18.654541015625 62.24365234375 L55.87690734863281 99.46601104736328 C59.788204193115234 103.3773193359375 66.12956237792969 103.3773193359375 70.04045867919922 99.46601104736328 C73.9517593383789 95.55471801757812 73.9517593383789 89.21336364746094 70.04045867919922 85.30245971679688 L32.81809997558594 48.0800895690918 C28.90679931640625 44.168792724609375 22.565452575683594 44.168792724609375 18.654541015625 48.0800895690918 C14.743240356445312 51.99100112915039 14.743240356445312 58.33235168457031 18.654541015625 62.24365234375 Z"></path>
<path fill="#df5d7b" fill-opacity="1.0"  filling="0" d="M117.47525024414062 127.21227264404297 C112.04715728759766 121.78419494628906 103.21520233154297 121.78459167480469 97.78712463378906 127.21227264404297 C94.06254577636719 130.93685913085938 92.89457702636719 136.26416015625 94.28128814697266 140.9949951171875 C91.53717041015625 142.41217041015625 88.07548522949219 141.97348022460938 85.77783966064453 139.6758575439453 L60.33897399902344 114.23738861083984 C58.04094696044922 111.93934631347656 57.60306167602539 108.4776611328125 59.020240783691406 105.7335433959961 C60.3038215637207 106.10971069335938 61.63115310668945 106.29878234863281 62.95887756347656 106.29878234863281 C66.52369689941406 106.29878234863281 70.08850860595703 104.94175720214844 72.80294036865234 102.22809600830078 C78.23102569580078 96.80001831054688 78.23102569580078 87.96805572509766 72.80294036865234 82.54035949707031 L35.58058166503906 45.3176155090332 C30.152503967285156 39.8895263671875 21.320533752441406 39.889923095703125 15.892448425292969 45.3176155090332 C12.053810119628906 49.156646728515625 10.933509826660156 54.697227478027344 12.524513244628906 59.53273391723633 C4.429649353027344 68.45845031738281 0.0 79.91148376464844 0.0 92.04497528076172 C0.0 104.98823547363281 5.040191650390625 117.15650177001953 14.192466735839844 126.30876922607422 L73.7060546875 185.82275390625 C83.15286254882812 195.2691650390625 95.56136322021484 199.9925537109375 107.96985626220703 199.9925537109375 C119.62523651123047 199.9925537109375 131.2798309326172 195.8246307373047 140.48052978515625 187.49032592773438 C141.89810180664062 187.95672607421875 143.3754425048828 188.19383239746094 144.85354614257812 188.19383239746094 C148.41836547851562 188.19383239746094 151.98316955566406 186.83682250976562 154.69760131835938 184.1231689453125 C160.1256866455078 178.69508361816406 160.1256866455078 169.8631134033203 154.69760131835938 164.4354248046875 L117.47525024414062 127.21227264404297 Z M21.4166259765625 50.84178924560547 C23.798248291015625 48.459774017333984 27.67400360107422 48.459774017333984 30.056015014648438 50.84178924560547 L67.27837371826172 88.06454467773438 C68.4322738647461 89.21843719482422 69.06781768798828 90.75241088867188 69.06781768798828 92.38442993164062 C69.06781768798828 94.01605987548828 68.43266296386719 95.55003356933594 67.27837371826172 96.70392608642578 C66.12448120117188 97.85782623291016 64.59050750732422 98.49337005615234 62.95887756347656 98.49337005615234 C61.32686233520508 98.49337005615234 59.79288864135742 97.85821533203125 58.63899230957031 96.70392608642578 L21.416236877441406 59.481563568115234 C19.03461456298828 57.09954833984375 19.03461456298828 53.22379684448242 21.4166259765625 50.84178924560547 Z M79.23062896728516 180.298583984375 L19.716644287109375 120.78459167480469 C4.8011322021484375 105.86909484863281 3.923797607421875 82.15052795410156 17.08580780029297 66.19987487792969 L52.414432525634766 101.52850341796875 C49.080867767333984 107.30266571044922 49.880855560302734 114.82878112792969 54.814414978027344 119.76194763183594 L80.2532730102539 145.20082092285156 C85.18682861328125 150.13436889648438 92.71294403076172 150.93397521972656 98.48672485351562 147.6007843017578 L133.81692504882812 182.93060302734375 C126.55486297607422 188.93560791015625 117.51353454589844 192.20278930664062 107.96985626220703 192.20278930664062 C97.11369323730469 192.20278930664062 86.9071273803711 187.97508239746094 79.23062896728516 180.298583984375 Z M149.17303466796875 178.59860229492188 C148.01914978027344 179.75250244140625 146.48516845703125 180.38803100585938 144.85354614257812 180.38803100585938 C143.22152709960938 180.38803100585938 141.68756103515625 179.75286865234375 140.53366088867188 178.59860229492188 L103.30934143066406 141.374267578125 C100.92929077148438 138.9922637939453 100.93006134033203 135.11807250976562 103.31090545654297 132.73684692382812 C104.50191497802734 131.54583740234375 106.06636047363281 130.95053100585938 107.63079071044922 130.95053100585938 C109.19522857666016 130.95053100585938 110.75967407226562 131.54583740234375 111.95068359375 132.73684692382812 L149.17303466796875 169.9595947265625 C150.32693481445312 171.11349487304688 150.96249389648438 172.6474609375 150.96249389648438 174.27947998046875 C150.96249389648438 175.9107208251953 150.32693481445312 177.4447021484375 149.17303466796875 178.59860229492188 Z"></path>
<path fill="#df5d7b" fill-opacity="1.0"  filling="0" d="M144.3426055908203 37.34502029418945 C148.94219970703125 37.34502029418945 152.68434143066406 40.578975677490234 152.68434143066406 44.55433654785156 C152.68434143066406 46.71174621582031 154.4331512451172 48.46055603027344 156.59056091308594 48.46055603027344 C158.7479705810547 48.46055603027344 160.4967803955078 46.71174621582031 160.4967803955078 44.55433654785156 C160.4967803955078 37.523921966552734 155.2749481201172 31.607948303222656 148.2488250732422 29.97906494140625 L148.2488250732422 28.814613342285156 C148.2488250732422 26.657211303710938 146.50001525878906 24.90839385986328 144.3426055908203 24.90839385986328 C142.18521118164062 24.90839385986328 140.43638610839844 26.657211303710938 140.43638610839844 28.814613342285156 L140.43638610839844 29.97906494140625 C133.4102783203125 31.607948303222656 128.18844604492188 37.52353286743164 128.18844604492188 44.55433654785156 C128.18844604492188 52.83747482299805 135.43527221679688 59.57648468017578 144.3426055908203 59.57648468017578 C148.94219970703125 59.57648468017578 152.68434143066406 62.81044387817383 152.68434143066406 66.78580474853516 C152.68434143066406 70.76116180419922 148.94219970703125 73.9955062866211 144.3426055908203 73.9955062866211 C139.7430419921875 73.9955062866211 136.00088500976562 70.76116180419922 136.00088500976562 66.78580474853516 C136.00088500976562 64.6283950805664 134.25205993652344 62.87958526611328 132.09466552734375 62.87958526611328 C129.937255859375 62.87958526611328 128.18844604492188 64.6283950805664 128.18844604492188 66.78580474853516 C128.18844604492188 73.81660461425781 133.4102783203125 79.73218536376953 140.43638610839844 81.36107635498047 L140.43638610839844 81.93959045410156 C140.43638610839844 84.09699249267578 142.18521118164062 85.84580993652344 144.3426055908203 85.84580993652344 C146.50001525878906 85.84580993652344 148.2488250732422 84.09699249267578 148.2488250732422 81.93959045410156 L148.2488250732422 81.36107635498047 C155.2749481201172 79.73218536376953 160.4967803955078 73.81660461425781 160.4967803955078 66.78580474853516 C160.4967803955078 58.50266647338867 153.24996948242188 51.76404571533203 144.3426055908203 51.76404571533203 C139.7430419921875 51.76404571533203 136.00088500976562 48.52969741821289 136.00088500976562 44.55433654785156 C136.00088500976562 40.578975677490234 139.74264526367188 37.34502029418945 144.3426055908203 37.34502029418945 Z"></path>
<path fill="#df5d7b" fill-opacity="1.0"  filling="0" d="M144.5211181640625 0.00742340087890625 C113.92996215820312 0.00742340087890625 89.04226684570312 24.895111083984375 89.04226684570312 55.486671447753906 C89.04226684570312 68.34164428710938 93.46137237548828 80.68412780761719 101.54646301269531 90.57350158691406 C99.80546569824219 92.61880493164062 97.44845581054688 94.08011627197266 94.80706024169922 94.70394134521484 C93.42778015136719 95.02972412109375 92.3328628540039 96.07698059082031 91.94654083251953 97.44063568115234 C91.56021881103516 98.8042984008789 91.94263458251953 100.27030181884766 92.9461441040039 101.27108001708984 C97.46836853027344 105.78276062011719 103.47653198242188 108.26750183105469 109.86437225341797 108.26750183105469 C113.67957305908203 108.26750183105469 117.4100112915039 107.36321258544922 120.77678680419922 105.63627624511719 C128.15367126464844 109.1284408569336 136.31729125976562 110.96592712402344 144.52191162109375 110.96592712402344 C175.11306762695312 110.96592712402344 200.00076293945312 86.07823181152344 200.00076293945312 55.487064361572266 C200.0 24.895111083984375 175.11228942871094 0.00742340087890625 144.5211181640625 0.00742340087890625 Z M144.5211181640625 103.1530990600586 C136.73681640625 103.1530990600586 129.314208984375 101.33475494384766 122.45918273925781 97.74806213378906 C121.89044189453125 97.45079803466797 121.26896667480469 97.30314636230469 120.64866638183594 97.30314636230469 C119.91506958007812 97.30314636230469 119.18344116210938 97.50978088378906 118.54359436035156 97.91876220703125 C115.94947814941406 99.578125 112.94832611083984 100.45506286621094 109.86358642578125 100.45506286621094 C107.66908264160156 100.45506286621094 105.54096984863281 100.0199203491211 103.57770538330078 99.19023895263672 C106.16986846923828 97.38673400878906 108.3432846069336 94.98870849609375 109.88858032226562 92.15630340576172 C110.68780517578125 90.69147491455078 110.46826934814453 88.88015747070312 109.34171295166016 87.64891815185547 C101.28904724121094 78.84586334228516 96.85431671142578 67.424072265625 96.85431671142578 55.487064361572266 C96.85431671142578 29.20367431640625 118.23735046386719 7.82025146484375 144.520751953125 7.82025146484375 C170.8041229248047 7.82025146484375 192.18756103515625 29.202896118164062 192.18756103515625 55.486671447753906 C192.18756103515625 81.77044677734375 170.8045196533203 103.1530990600586 144.5211181640625 103.1530990600586 Z"></path></svg>