<svg xmlns="http://www.w3.org/2000/svg" viewBox="0.0 0.0 200.0 200.0" height="200.0px" width="200.0px"><path fill="#eceaec" fill-opacity="1.0"  filling="0" d="M0.13202667236328125 110.48593139648438 C0.13202667236328125 137.30039978027344 23.60625457763672 160.48593139648438 50.0 160.48593139648438 L150.0 160.48593139648438 C176.39373779296875 160.48593139648438 199.8679656982422 136.24374389648438 199.8679656982422 110.48593139648438 C198.00860595703125 84.5660171508789 176.39373779296875 64.1148452758789 150.0 64.1148452758789 L50.0 64.1148452758789 C23.60625457763672 64.115234375 1.9914093017578125 84.56640625 0.13202667236328125 110.48593139648438 Z"></path>
<path fill="#dad8db" fill-opacity="1.0"  filling="0" d="M0.47304534912109375 46.371482849121094 C0.47304534912109375 52.626956939697266 7.574615478515625 60.48750305175781 14.115623474121094 60.48750305175781 L185.8839874267578 60.48750305175781 C192.4250030517578 60.48750305175781 199.52655029296875 52.76953125 199.52655029296875 46.371482849121094 C197.92498779296875 40.334373474121094 192.4250030517578 35.884765625 185.8839874267578 35.884765625 L14.115623474121094 35.884765625 C7.574615478515625 35.884765625 2.0749969482421875 40.33476638793945 0.47304534912109375 46.371482849121094 C0.47304534912109375 46.37187576293945 0.47304534912109375 46.37187576293945 0.47304534912109375 46.371482849121094 Z"></path>
<path fill="#eacc73" fill-opacity="1.0"  filling="0" d="M72.04375457763672 130.90740966796875 L75.64765930175781 134.97421264648438 C83.12422180175781 134.97421264648438 94.2542953491211 128.6339874267578 94.2542953491211 119.71015930175781 C92.27812194824219 110.9710922241211 83.12460327148438 108.07539367675781 75.64765930175781 108.07539367675781 C74.38203430175781 108.07539367675781 73.15312194824219 108.23242950439453 71.9769515991211 108.52265167236328 L72.04375457763672 130.90740966796875 Z"></path>
<path fill="#e3bd57" fill-opacity="1.0"  filling="0" d="M75.64765930175781 131.34530639648438 C74.4046859741211 131.34530639648438 73.19999694824219 131.18829345703125 72.04375457763672 130.90740966796875 L66.88749694824219 132.421875 L67.6039047241211 136.31094360351562 C69.93984985351562 137.7624969482422 72.6949234008789 138.60311889648438 75.64726257324219 138.60311889648438 C84.07734680175781 138.60311889648438 94.64726257324219 134.92811584472656 94.64726257324219 123.33905792236328 C94.64726257324219 122.02851867675781 94.505859375 120.82421875 94.25390625 119.71015930175781 C92.27812194824219 128.44921875 83.12422180175781 131.34530639648438 75.64765930175781 131.34530639648438 Z"></path>
<path fill="#a6aec4" fill-opacity="1.0"  filling="0" d="M18.60468292236328 107.34452819824219 C18.60468292236328 112.30078125 21.539840698242188 120.46953582763672 25.243743896484375 124.173828125 C34.624610900878906 133.5546875 52.29452896118164 148.00741577148438 68.08984375 132.2117156982422 C71.99492645263672 128.306640625 74.78984832763672 120.92460632324219 74.78984832763672 116.677734375 C73.15312194824219 107.26055145263672 65.68827819824219 98.6312484741211 60.05155944824219 92.9945297241211 C50.67070007324219 83.6136703491211 35.273826599121094 83.80078125 25.661720275878906 93.41288757324219 C21.720314025878906 97.3550796508789 19.366409301757812 102.27031707763672 18.60468292236328 107.34452819824219 Z"></path>
<path fill="#df667c" fill-opacity="1.0"  filling="0" d="M35.687889099121094 109.09062194824219 C35.687889099121094 112.71953582763672 41.029296875 119.6089859008789 45.562889099121094 119.6089859008789 C50.09648132324219 119.6089859008789 55.43789291381836 112.71991729736328 55.43789291381836 109.09062194824219 C53.95976257324219 105.0699234008789 50.09648132324219 102.20155334472656 45.562889099121094 102.20155334472656 C41.029296875 102.20155334472656 37.166011810302734 105.0699234008789 35.687889099121094 109.09062194824219 Z"></path>
<path fill="#454d58" fill-opacity="1.0"  filling="0" d="M73.38554382324219 73.439453125 L126.61445617675781 73.439453125 C133.35040283203125 73.439453125 134.32382202148438 67.2992172241211 134.32382202148438 64.1148452758789 L65.6761703491211 64.1148452758789 C65.6761703491211 67.1617202758789 65.6761703491211 73.439453125 73.38554382324219 73.439453125 Z"></path>
<path fill="#c8c5c9" fill-opacity="1.0"  filling="0" d="M185.88438415527344 56.85859298706055 L14.115623474121094 56.85859298706055 C7.574615478515625 56.85859298706055 2.0749969482421875 52.40898895263672 0.47304534912109375 46.37187576293945 C0.166015625 47.53007888793945 0.0 48.745704650878906 0.0 50.00078201293945 C0.0 57.796878814697266 6.319923400878906 64.1167984008789 14.115623474121094 64.1167984008789 L185.8839874267578 64.1167984008789 C193.68008422851562 64.1167984008789 199.99960327148438 57.796878814697266 199.99960327148438 50.00078201293945 C199.99960327148438 48.745704650878906 199.83358764648438 47.53007888793945 199.52655029296875 46.37187576293945 C197.92498779296875 52.408592224121094 192.4250030517578 56.85859298706055 185.88438415527344 56.85859298706055 Z"></path>
<path fill="#3c434c" fill-opacity="1.0"  filling="0" d="M126.61445617675781 69.810546875 L73.38554382324219 69.810546875 C69.75625610351562 69.810546875 66.68827819824219 67.41250610351562 65.6761703491211 64.1148452758789 L65.32109069824219 64.1148452758789 L65.32109069824219 69.00390625 C65.32109069824219 73.45780944824219 68.931640625 77.068359375 73.38554382324219 77.068359375 L126.61445617675781 77.068359375 C131.068359375 77.068359375 134.6789093017578 73.45780944824219 134.6789093017578 69.00390625 L134.6789093017578 64.1148452758789 L134.32382202148438 64.1148452758789 C133.3117218017578 67.41250610351562 130.24375915527344 69.810546875 126.61445617675781 69.810546875 Z"></path>
<path fill="#dad8db" fill-opacity="1.0"  filling="0" d="M150.0 156.85702514648438 L50.0 156.85702514648438 C23.60625457763672 156.85702514648438 1.9914093017578125 136.40585327148438 0.13202667236328125 110.48593139648438 C0.04608917236328125 111.68476104736328 0.0 112.89453125 0.0 114.1148452758789 C0.0 141.72889709472656 22.38555145263672 164.11483764648438 50.0 164.11483764648438 L150.0 164.11483764648438 C177.6140594482422 164.11483764648438 200.0 141.72889709472656 200.0 114.1148452758789 C200.0 112.8941421508789 199.9539031982422 111.68476104736328 199.8679656982422 110.48593139648438 C198.00860595703125 136.40585327148438 176.39373779296875 156.85702514648438 150.0 156.85702514648438 Z"></path>
<path fill="#959db0" fill-opacity="1.0"  filling="0" d="M68.08984375 128.5828094482422 C52.29452896118164 144.3781280517578 34.624610900878906 129.92578125 25.243743896484375 120.544921875 C21.539840698242188 116.84101867675781 19.333984375 112.19804382324219 18.60468292236328 107.34492492675781 C17.508987426757812 114.6429672241211 19.710159301757812 122.26953125 25.243743896484375 127.8031234741211 C34.624610900878906 137.18399047851562 52.29452896118164 151.63671875 68.08984375 135.84100341796875 C74.39453125 129.5363311767578 75.8773422241211 122.93359375 74.78984832763672 116.67813110351562 C74.048828125 120.658203125 71.99492645263672 124.677734375 68.08984375 128.5828094482422 Z"></path>
<path fill="#dc4857" fill-opacity="1.0"  filling="0" d="M45.562889099121094 115.9800796508789 C41.029296875 115.9800796508789 37.166011810302734 113.11172485351562 35.687889099121094 109.09062194824219 C35.271873474121094 110.22187805175781 35.044921875 111.44413757324219 35.044921875 112.71953582763672 C35.044921875 118.52851867675781 39.753902435302734 123.23789978027344 45.56328201293945 123.23789978027344 C51.372657775878906 123.23789978027344 56.081642150878906 118.52890014648438 56.081642150878906 112.71953582763672 C56.081642150878906 111.44413757324219 55.85429763793945 110.22148132324219 55.43867492675781 109.09062194824219 C53.96015548706055 113.111328125 50.09648132324219 115.9800796508789 45.562889099121094 115.9800796508789 Z"></path>
<path fill="#eacc73" fill-opacity="1.0"  filling="0" d="M127.95624542236328 130.90740966796875 L124.35234832763672 134.97421264648438 C116.87577819824219 134.97421264648438 105.74571228027344 128.6339874267578 105.74571228027344 119.71015930175781 C107.72187805175781 110.9710922241211 116.87538146972656 108.07539367675781 124.35234832763672 108.07539367675781 C125.61796569824219 108.07539367675781 126.84687805175781 108.23242950439453 128.02305603027344 108.52265167236328 L127.95624542236328 130.90740966796875 Z"></path>
<path fill="#e3bd57" fill-opacity="1.0"  filling="0" d="M124.35234832763672 131.34530639648438 C125.59530639648438 131.34530639648438 126.80000305175781 131.18829345703125 127.95624542236328 130.90740966796875 L133.1121063232422 132.421875 L132.3957061767578 136.31094360351562 C130.0597686767578 137.7624969482422 127.3046875 138.60311889648438 124.35234832763672 138.60311889648438 C115.92225646972656 138.60311889648438 105.35234069824219 134.92811584472656 105.35234069824219 123.33905792236328 C105.35234069824219 122.02851867675781 105.4937515258789 120.82421875 105.74571228027344 119.71015930175781 C107.72187805175781 128.44921875 116.87577819824219 131.34530639648438 124.35234832763672 131.34530639648438 Z"></path>
<path fill="#a6aec4" fill-opacity="1.0"  filling="0" d="M181.39532470703125 107.34452819824219 C181.39532470703125 112.30078125 178.4601593017578 120.46953582763672 174.75625610351562 124.173828125 C165.37539672851562 133.5546875 147.70547485351562 148.00741577148438 131.91015625 132.2117156982422 C128.0050811767578 128.306640625 125.21015167236328 120.92460632324219 125.21015167236328 116.677734375 C126.84687805175781 107.26055145263672 134.3117218017578 98.6312484741211 139.9484405517578 92.9945297241211 C149.32928466796875 83.6136703491211 164.72616577148438 83.80078125 174.33828735351562 93.41288757324219 C178.28009033203125 97.3550796508789 180.6335906982422 102.27031707763672 181.39532470703125 107.34452819824219 Z"></path>
<path fill="#df667c" fill-opacity="1.0"  filling="0" d="M164.31210327148438 109.09062194824219 C164.31210327148438 112.71953582763672 158.970703125 119.6089859008789 154.43710327148438 119.6089859008789 C149.90350341796875 119.6089859008789 144.56211853027344 112.71991729736328 144.56211853027344 109.09062194824219 C146.0402374267578 105.0699234008789 149.90350341796875 102.20155334472656 154.43710327148438 102.20155334472656 C158.970703125 102.20155334472656 162.833984375 105.0699234008789 164.31210327148438 109.09062194824219 Z"></path>
<path fill="#959db0" fill-opacity="1.0"  filling="0" d="M131.91015625 128.5828094482422 C147.70547485351562 144.3781280517578 165.37539672851562 129.92578125 174.75625610351562 120.544921875 C178.4601593017578 116.84101867675781 180.666015625 112.19804382324219 181.39532470703125 107.34492492675781 C182.4910125732422 114.6429672241211 180.2898406982422 122.26953125 174.75625610351562 127.8031234741211 C165.37539672851562 137.18399047851562 147.70547485351562 151.63671875 131.91015625 135.84100341796875 C125.60546875 129.5363311767578 124.1226577758789 122.93359375 125.21015167236328 116.67813110351562 C125.951171875 120.658203125 128.0050811767578 124.677734375 131.91015625 128.5828094482422 Z"></path>
<path fill="#dc4857" fill-opacity="1.0"  filling="0" d="M154.43710327148438 115.9800796508789 C158.970703125 115.9800796508789 162.833984375 113.11172485351562 164.31210327148438 109.09062194824219 C164.72811889648438 110.22187805175781 164.95547485351562 111.44413757324219 164.95547485351562 112.71953582763672 C164.95547485351562 118.52851867675781 160.24609375 123.23789978027344 154.43710327148438 123.23789978027344 C148.6281280517578 123.23789978027344 143.91876220703125 118.52890014648438 143.91876220703125 112.71953582763672 C143.91876220703125 111.44413757324219 144.14608764648438 110.22148132324219 144.5617218017578 109.09062194824219 C146.0398406982422 113.111328125 149.90350341796875 115.9800796508789 154.43710327148438 115.9800796508789 Z"></path>
<path fill="#454d58" fill-opacity="1.0"  filling="0" d="M92.3539047241211 155.6457061767578 L107.6460952758789 155.6457061767578 C109.31953430175781 155.6457061767578 110.6761703491211 154.2890625 110.6761703491211 152.61563110351562 C110.6761703491211 150.9421844482422 109.31953430175781 149.58554077148438 107.6460952758789 149.58554077148438 L92.3539047241211 149.58554077148438 C90.68046569824219 149.58554077148438 89.3238296508789 150.9421844482422 89.3238296508789 152.61563110351562 C89.3238296508789 154.2890625 90.68046569824219 155.6457061767578 92.3539047241211 155.6457061767578 Z"></path></svg>