<svg xmlns="http://www.w3.org/2000/svg" viewBox="0.0 0.0 200.0 200.0" height="200.0px" width="200.0px"><path fill="#b2260b" fill-opacity="1.0"  filling="0" d="M150.3984375 107.9878921508789 L102.75273132324219 80.6304702758789 L99.9296875 3.005859375 L94.68086242675781 0.0 L49.609375 26.03319549560547 L54.85976791381836 170.39804077148438 L60.10898208618164 173.43905639648438 L65.359375 170.39804077148438 L65.115234375 163.71014404296875 L100.578125 184.33828735351562 L100.578125 196.96054077148438 L105.82890319824219 200.0 L111.07772827148438 196.96054077148438 L111.07772827148438 160.0753936767578 L124.205078125 152.5222625732422 L139.83749389648438 161.61483764648438 L139.83749389648438 174.24453735351562 L145.08828735351562 177.28436279296875 L150.3371124267578 174.24453735351562 L150.3371124267578 120.53359985351562 L150.3984375 107.9878921508789 Z M63.58476638793945 121.62617492675781 L85.0921859741211 134.1398468017578 L64.4730453491211 146.01913452148438 L63.58476638793945 121.62617492675781 Z M111.07772827148438 144.88671875 L113.3558578491211 146.21133422851562 L111.07772827148438 147.5234375 L111.07772827148438 144.88671875 Z M92.46366882324219 86.42109680175781 L91.38945007324219 87.02851867675781 L87.2847671508789 20.828125 L90.02070617675781 19.250396728515625 L92.46366882324219 86.42109680175781 Z M81.2437515258789 92.76289367675781 L78.1050796508789 94.53750610351562 L74.0113296508789 28.482032775878906 L77.1484375 26.673828125 L81.2437515258789 92.76289367675781 Z M67.9609375 100.271484375 L62.912109375 103.125 L60.48125076293945 36.28242111206055 L63.873435974121094 34.327735900878906 L67.9609375 100.271484375 Z M94.4609375 141.31640625 L94.68086242675781 147.3722686767578 L99.9312515258789 150.412109375 L100.578125 150.03671264648438 L100.578125 171.658203125 L71.34257507324219 154.61874389648438 L94.4609375 141.31640625 Z M139.83749389648438 143.52734375 L139.83749389648438 148.93359375 L135.169921875 146.212890625 L139.83749389648438 143.52734375 Z M124.32421875 139.892578125 L120.56875610351562 137.703125 L139.83749389648438 126.58984375 L139.83749389648438 130.95547485351562 L124.32421875 139.892578125 Z"></path>
<path fill="#d34e13" fill-opacity="1.0"  filling="0" d="M100.578125 143.150390625 L99.64765930175781 142.6085968017578 L99.9296875 150.412109375 L100.578125 150.03671264648438 L100.578125 143.150390625 Z"></path>
<path fill="#ff7e27" fill-opacity="1.0"  filling="0" d="M99.9296875 3.005859375 L54.85976791381836 29.06328582763672 L49.609375 26.03319549560547 L94.68086242675781 0.0 L99.9296875 3.005859375 Z"></path>
<path fill="#d34e13" fill-opacity="1.0"  filling="0" d="M90.26640319824219 137.150390625 L85.0921859741211 134.1398468017578 L64.4730453491211 146.01913452148438 L63.58476638793945 121.62617492675781 L58.11015701293945 118.4417953491211 L59.39492416381836 153.77032470703125 L100.578125 177.72381591796875 L100.578125 171.658203125 L65.71797180175781 151.34140014648438 L90.26640319824219 137.150390625 Z"></path>
<path fill="#d34e13" fill-opacity="1.0"  filling="0" d="M99.9296875 3.005859375 L55.00625228881836 28.979690551757812 L54.85976791381836 29.06328582763672 L57.659767150878906 106.09296417236328 L62.912109375 103.125 L60.482810974121094 36.28242111206055 L68.76054382324219 31.509376525878906 L72.8499984741211 97.50664520263672 L78.1050796508789 94.53750610351562 L74.0113296508789 28.482032775878906 L82.03593444824219 23.85546875 L86.1343765258789 89.99921417236328 L91.38945007324219 87.03007507324219 L87.2847671508789 20.828125 L95.0562515258789 16.34844207763672 L97.50077819824219 83.57539367675781 L102.73125457763672 80.61836242675781 L102.7542953491211 80.6304702758789 L99.9296875 3.005859375 Z"></path>
<path fill="#ff7e27" fill-opacity="1.0"  filling="0" d="M57.659767150878906 106.09296417236328 L102.73125457763672 80.61836242675781 L150.3984375 107.9878921508789 L105.82890319824219 133.7449188232422 L57.659767150878906 106.09296417236328 Z"></path>
<path fill="#d34e13" fill-opacity="1.0"  filling="0" d="M105.82890319824219 133.7449188232422 L105.82890319824219 200.0 L111.07772827148438 196.96054077148438 L111.07772827148438 160.0753936767578 L129.92538452148438 149.22930908203125 L139.83749389648438 155.00039672851562 L139.83749389648438 148.93359375 L135.169921875 146.212890625 L145.08828735351562 140.505859375 L145.08828735351562 177.2859344482422 L150.3371124267578 174.24609375 L150.3996124267578 107.9878921508789 L105.82890319824219 133.7449188232422 Z M145.08828735351562 133.89453125 L145.076171875 133.900390625 L111.07772827148438 153.4636688232422 L111.07772827148438 143.17617797851562 L115.32305145263672 140.72891235351562 L119.078125 142.91366577148438 L124.32538604736328 139.89102172851562 L120.56875610351562 137.703125 L145.08828735351562 123.56094360351562 L145.08828735351562 133.89453125 Z"></path>
<path fill="#ff7e27" fill-opacity="1.0"  filling="0" d="M139.83749389648438 130.95547485351562 L111.07772827148438 147.5234375 L111.07772827148438 153.4636688232422 L145.076171875 133.900390625 L139.83749389648438 130.95547485351562 Z"></path>
<path fill="#bf0025" fill-opacity="1.0"  filling="0" d="M143.55624389648438 100.69258117675781 L102.8062515258789 77.2171859741211 C102.0035171508789 76.75468444824219 101.01641082763672 76.75468444824219 100.21366882324219 77.2171859741211 L64.50350952148438 97.83476257324219 C63.9375 98.16133117675781 63.65507888793945 98.73358917236328 63.65507888793945 99.30429077148438 L63.65507888793945 104.45547485351562 C63.65507888793945 105.02617645263672 63.9375 105.59843444824219 64.50350952148438 105.92500305175781 L105.251953125 129.3992156982422 C106.0546875 129.86288452148438 107.04336547851562 129.86288452148438 107.8460922241211 129.3992156982422 L143.55624389648438 108.7828140258789 C144.12069702148438 108.45625305175781 144.40469360351562 107.88436889648438 144.40469360351562 107.31366729736328 L144.40469360351562 102.162109375 C144.40469360351562 101.5914077758789 144.12069702148438 101.0191421508789 143.55624389648438 100.69258117675781 Z"></path>
<path fill="#ea2642" fill-opacity="1.0"  filling="0" d="M64.50350952148438 97.83476257324219 L100.21366882324219 77.21875 C101.01641082763672 76.75468444824219 102.00507354736328 76.75468444824219 102.8062515258789 77.21875 L143.55624389648438 100.69258117675781 C144.6867218017578 101.345703125 144.6867218017578 102.978515625 143.55624389648438 103.6332015991211 L107.8460922241211 124.24922180175781 C107.04336547851562 124.7132797241211 106.0546875 124.7132797241211 105.251953125 124.24922180175781 L64.50350952148438 100.7750015258789 C63.372657775878906 100.12187957763672 63.372657775878906 98.4878921508789 64.50350952148438 97.83476257324219 Z"></path></svg>