<svg xmlns="http://www.w3.org/2000/svg" viewBox="0.0 0.0 200.0 200.0" height="200.0px" width="200.0px"><path fill="url(#SVGID_1_)" fill-opacity="1.0"  filling="0" d="M43.51633071899414 200.0 C43.51633071899414 151.97171020507812 71.75179290771484 136.1127471923828 71.75179290771484 136.1127471923828 L128.2482147216797 136.1127471923828 C128.2482147216797 136.1127471923828 156.48365783691406 151.97171020507812 156.48365783691406 200.0 L43.51633071899414 200.0 Z"></path>
<path fill="#59c2e7" fill-opacity="1.0"  filling="0" d="M95.98126983642578 140.0840606689453 L87.47888946533203 136.1127471923828 L71.75179290771484 136.1127471923828 C71.75179290771484 136.1127471923828 67.36613464355469 138.5784912109375 62.052589416503906 144.5019989013672 C71.43067932128906 149.35577392578125 81.69123840332031 152.36534118652344 92.38327026367188 153.33584594726562 C96.47052001953125 153.70677185058594 100.0 150.50079345703125 100.0 146.3964080810547 C100.0 143.6904296875 98.43306732177734 141.22947692871094 95.98126983642578 140.0840606689453 Z"></path>
<path fill="url(#SVGID_2_)" fill-opacity="1.0"  filling="0" d="M100.0 141.9613494873047 C60.6768913269043 141.9613494873047 29.02191162109375 110.06056213378906 29.02191162109375 70.97808837890625 C29.02191162109375 31.778884887695312 60.80079650878906 0.0 100.0 0.0 C139.19921875 0.0 170.97808837890625 31.778884887695312 170.97808837890625 70.97808837890625 C170.97808837890625 110.04502868652344 139.3302764892578 141.9613494873047 100.0 141.9613494873047 Z"></path>
<path fill="url(#SVGID_3_)" fill-opacity="1.0"  filling="0" d="M50.0043830871582 80.27290344238281 C49.13824462890625 77.98804473876953 48.66055679321289 75.51234436035156 48.66055679321289 72.92390441894531 C48.66055679321289 62.07091522216797 56.9956169128418 53.169715881347656 67.61274719238281 52.258567810058594 C70.22151184082031 43.78326416015625 78.11274719238281 37.62270736694336 87.4438247680664 37.62270736694336 C92.16414642333984 37.62270736694336 96.51394653320312 39.20159149169922 100.0 41.856571197509766 C103.48605346679688 39.20159149169922 107.83585357666016 37.62270736694336 112.5561752319336 37.62270736694336 C121.88725280761719 37.62270736694336 129.7784881591797 43.78326416015625 132.3872528076172 52.258567810058594 C143.00439453125 53.1693229675293 151.33944702148438 62.07051467895508 151.33944702148438 72.92390441894531 C151.33944702148438 75.51234436035156 150.86135864257812 77.98804473876953 149.99562072753906 80.27290344238281 C155.29283142089844 83.14501953125 158.89761352539062 88.75617218017578 158.89761352539062 95.19242858886719 C158.89761352539062 104.54462432861328 151.29083251953125 112.15139770507812 141.9386444091797 112.15139770507812 L58.06135177612305 112.15139770507812 C48.70916748046875 112.15139770507812 41.102386474609375 104.54462432861328 41.102386474609375 95.19242858886719 C41.102386474609375 88.75617218017578 44.70716857910156 83.14501953125 50.0043830871582 80.27290344238281 Z"></path>
<path fill="#fd75be" fill-opacity="1.0"  filling="0" d="M129.0976104736328 81.60676574707031 C129.76812744140625 82.27729034423828 130.8358612060547 82.35697174072266 131.5852508544922 81.77609252929688 C134.44940185546875 79.55697631835938 138.0418243408203 78.23346710205078 141.9386444091797 78.23346710205078 C144.8529815673828 78.23346710205078 147.5976104736328 78.97290802001953 149.99562072753906 80.27290344238281 C150.44940185546875 79.07609558105469 150.79322814941406 77.82589721679688 151.01992797851562 76.5350570678711 C148.27688598632812 75.1976089477539 145.1964111328125 74.44541931152344 141.939453125 74.44541931152344 C141.7573699951172 74.44541931152344 141.57730102539062 74.45219421386719 141.39642333984375 74.45697021484375 C140.86334228515625 74.27131652832031 140.27410888671875 74.04023742675781 139.6717071533203 73.7549819946289 C137.97012329101562 72.94900512695312 135.80039978027344 71.53306579589844 135.12669372558594 69.36494445800781 C134.81593322753906 68.36573791503906 133.75418090820312 67.80757141113281 132.75497436523438 68.1175308227539 C131.7557830810547 68.42788696289062 131.19720458984375 69.48963928222656 131.507568359375 70.48924255371094 C132.1852569580078 72.67131042480469 133.6414337158203 74.31314849853516 135.29403686523438 75.53784942626953 C133.09521484375 76.282470703125 131.0609588623047 77.38326263427734 129.26255798339844 78.77529907226562 C128.3649444580078 79.47012329101562 128.29443359375 80.8035888671875 129.0976104736328 81.60676574707031 Z"></path>
<path fill="#fd75be" fill-opacity="1.0"  filling="0" d="M102.32191467285156 58.651390075683594 C104.51274871826172 58.640235900878906 105.87967681884766 58.1494026184082 106.73187255859375 57.56294631958008 C107.62669372558594 56.9470100402832 108.06573486328125 55.841033935546875 107.87848663330078 54.77131271362305 C106.96015930175781 49.52429962158203 104.06971740722656 44.956172943115234 100.0 41.856571197509766 C101.05936431884766 41.049800872802734 102.19841003417969 40.34263229370117 103.40398406982422 39.74899673461914 C107.81832122802734 43.538246154785156 110.87529754638672 48.86613082885742 111.73426818847656 54.89242935180664 C111.90279388427734 56.07410430908203 112.59561157226562 57.13386535644531 113.62908935546875 57.731075286865234 C114.5059814453125 58.23784637451172 115.79721069335938 58.640235900878906 117.6884536743164 58.650997161865234 C118.71833038330078 58.6569709777832 119.61952209472656 59.440635681152344 119.6597671508789 60.47011947631836 C119.70198822021484 61.550994873046875 118.83824157714844 62.440635681152344 117.76653289794922 62.440635681152344 C113.6135482788086 62.440635681152344 111.27688598632812 61.02828598022461 110.00558471679688 59.730674743652344 C108.73426818847656 61.02828598022461 106.397216796875 62.440635681152344 102.24462127685547 62.440635681152344 C101.1737060546875 62.440635681152344 100.3099594116211 61.551788330078125 100.35139465332031 60.471710205078125 C100.3912353515625 59.442630767822266 101.29203033447266 58.65657043457031 102.32191467285156 58.651390075683594 Z"></path>
<path fill="#fd75be" fill-opacity="1.0"  filling="0" d="M48.980079650878906 76.5350570678711 C49.20677185058594 77.82589721679688 49.55059814453125 79.07609558105469 50.0043830871582 80.27290344238281 C52.40238952636719 78.97290802001953 55.14701461791992 78.23346710205078 58.06135177612305 78.23346710205078 C61.95816421508789 78.23346710205078 65.55059814453125 79.55697631835938 68.41473388671875 81.77609252929688 C69.16414642333984 82.35697174072266 70.23187255859375 82.27689361572266 70.90238952636719 81.60676574707031 C71.70558166503906 80.8035888671875 71.63505554199219 79.47012329101562 70.73705291748047 78.77490234375 C68.98684692382812 77.419921875 67.01473999023438 76.33904266357422 64.88406372070312 75.59561157226562 C66.64820861816406 74.19242858886719 69.17091369628906 73.06573486328125 72.77888488769531 72.77809143066406 C73.82191467285156 72.69482421875 74.60039520263672 71.78207397460938 74.51712799072266 70.73904418945312 C74.4338607788086 69.69601440429688 73.5274887084961 68.91354370117188 72.47769165039062 69.00079345703125 C66.31234741210938 69.49203491210938 62.64262771606445 72.0525894165039 60.49123001098633 74.58964538574219 C59.69362258911133 74.49641418457031 58.883262634277344 74.44501495361328 58.06095504760742 74.44501495361328 C54.8035888671875 74.44501495361328 51.723106384277344 75.1976089477539 48.980079650878906 76.5350570678711 Z"></path>
<path fill="#fd75be" fill-opacity="1.0"  filling="0" d="M64.62908172607422 96.09761047363281 C66.31155395507812 101.41832733154297 69.59282684326172 103.66055297851562 72.15497589111328 104.60557556152344 C73.62709045410156 102.40797424316406 74.60318756103516 99.85060119628906 74.91195678710938 97.09322357177734 C75.0286865234375 96.05059814453125 75.9513931274414 95.29083251953125 76.99442291259766 95.40079498291016 C78.04143524169922 95.51115417480469 78.79601287841797 96.45418548583984 78.67967987060547 97.50039672851562 C78.00717163085938 103.54462432861328 74.72470092773438 108.81075286865234 69.9912338256836 112.15099334716797 L58.06135177612305 112.15099334716797 C62.50517654418945 112.15099334716797 66.55299377441406 110.42987823486328 69.57968139648438 107.62230682373047 C66.69203186035156 106.25776672363281 62.95059585571289 103.35816192626953 61.01553726196289 97.240234375 C60.70039749145508 96.24263000488281 61.25298309326172 95.17768859863281 62.25059509277344 94.86215209960938 C63.24900436401367 94.54740905761719 64.31314086914062 95.0999984741211 64.62908172607422 96.09761047363281 Z"></path>
<path fill="#fd75be" fill-opacity="1.0"  filling="0" d="M135.37091064453125 96.09761047363281 C133.68844604492188 101.41832733154297 130.40716552734375 103.66055297851562 127.84501647949219 104.60557556152344 C126.37291717529297 102.40797424316406 125.39681243896484 99.85060119628906 125.08805084228516 97.09322357177734 C124.97132110595703 96.05059814453125 124.0486068725586 95.29083251953125 123.00556945800781 95.40079498291016 C121.95856475830078 95.51115417480469 121.2039794921875 96.45418548583984 121.32032012939453 97.50039672851562 C121.99282836914062 103.54462432861328 125.27529907226562 108.81075286865234 130.00875854492188 112.15099334716797 L141.9386444091797 112.15099334716797 C137.4948272705078 112.15099334716797 133.44700622558594 110.42987823486328 130.42031860351562 107.62230682373047 C133.30796813964844 106.25776672363281 137.04940795898438 103.35816192626953 138.98446655273438 97.240234375 C139.2996063232422 96.24263000488281 138.74700927734375 95.17768859863281 137.74940490722656 94.86215209960938 C136.75099182128906 94.54740905761719 135.68685913085938 95.0999984741211 135.37091064453125 96.09761047363281 Z"></path>
<path fill="#bde5f6" fill-opacity="1.0"  filling="0" d="M148.9159393310547 49.052589416503906 C147.68206787109375 46.6828727722168 146.26535034179688 44.40159225463867 144.7039794921875 42.27251052856445 C143.42828369140625 40.53266906738281 143.80438232421875 38.08843994140625 145.54421997070312 36.81235122680664 C147.282470703125 35.536651611328125 149.7286834716797 35.91234588623047 151.00437927246094 37.652587890625 C152.80039978027344 40.101993560791016 154.42909240722656 42.72350311279297 155.8454132080078 45.44541549682617 C156.8414306640625 47.35896301269531 156.0976104736328 49.717926025390625 154.18406677246094 50.71394348144531 C152.27171325683594 51.7099609375 149.912353515625 50.96733093261719 148.9159393310547 49.052589416503906 Z"></path>
<path fill="#bde5f6" fill-opacity="1.0"  filling="0" d="M136.01832580566406 32.890830993652344 C134.9521942138672 31.975296020507812 133.84103393554688 31.090835571289062 132.71475219726562 30.262550354003906 C130.977294921875 28.98406219482422 130.6047821044922 26.53864288330078 131.8836669921875 24.801193237304688 C133.1625518798828 23.06334686279297 135.607177734375 22.691627502441406 137.3450164794922 23.96971893310547 C138.6278839111328 24.9139404296875 139.89442443847656 25.92151641845703 141.1087646484375 26.964141845703125 C142.74542236328125 28.369720458984375 142.9326629638672 30.835861206054688 141.5266876220703 32.472503662109375 C140.12191772460938 34.1087646484375 137.65538024902344 34.29680633544922 136.01832580566406 32.890830993652344 Z"></path>
<path fill="#59c2e7" fill-opacity="1.0"  filling="0" d="M66.37091827392578 200.0 L66.37091827392578 183.13705444335938 C66.37091827392578 181.51873779296875 67.68246459960938 180.20718383789062 69.30079650878906 180.20718383789062 C70.91912841796875 180.20718383789062 72.23067474365234 181.51873779296875 72.23067474365234 183.13705444335938 L72.23067474365234 200.0 L66.37091827392578 200.0 Z"></path>
<path fill="#59c2e7" fill-opacity="1.0"  filling="0" d="M133.62908935546875 200.0 L133.62908935546875 183.13705444335938 C133.62908935546875 181.51873779296875 132.31753540039062 180.20718383789062 130.69920349121094 180.20718383789062 C129.0808868408203 180.20718383789062 127.76931762695312 181.51873779296875 127.76931762695312 183.13705444335938 L127.76931762695312 200.0 L133.62908935546875 200.0 Z"></path>
<path fill="url(#SVGID_4_)" fill-opacity="1.0"  filling="0" d="M100.0 160.50160217285156 C83.83425903320312 144.70278930664062 57.29402160644531 171.16693115234375 96.40159606933594 193.9410400390625 C98.62828826904297 195.23785400390625 101.37210845947266 195.23785400390625 103.59880065917969 193.9410400390625 C142.70596313476562 171.16693115234375 116.16573333740234 144.70318603515625 100.0 160.50160217285156 Z"></path></svg>