<svg xmlns="http://www.w3.org/2000/svg" viewBox="0.0 0.0 200.0 200.0" height="200.0px" width="200.0px"><path fill="#fff59b" fill-opacity="1.0"  filling="0" d="M114.13359832763672 24.125389099121094 C109.36249542236328 24.125389099121094 105.05156707763672 26.222267150878906 101.95820617675781 29.600784301757812 C101.5707015991211 30.024215698242188 100.90469360351562 30.024215698242188 100.51640319824219 29.600784301757812 C97.4234390258789 26.22265625 93.1128921508789 24.125389099121094 88.341796875 24.125389099121094 C78.92694854736328 24.125389099121094 71.29414367675781 32.290626525878906 71.29414367675781 42.36366653442383 C71.29414367675781 57.43437576293945 79.31757354736328 65.357421875 97.0882797241211 74.5152359008789 C98.1695327758789 75.07109832763672 101.23750305175781 76.796875 101.23750305175781 76.796875 C101.23750305175781 76.796875 104.3070297241211 75.07109832763672 105.3882827758789 74.5152359008789 C123.15664672851562 65.3578109741211 131.1804656982422 57.43437576293945 131.1804656982422 42.36366653442383 C131.1796875 32.290626525878906 123.54843139648438 24.125389099121094 114.13359832763672 24.125389099121094 Z"></path>
<path fill="#020288" fill-opacity="1.0"  filling="0" d="M199.99571228027344 154.16757202148438 C199.96328735351562 153.44491577148438 199.73593139648438 152.77577209472656 199.36563110351562 152.208984375 C198.09805297851562 150.125 173.279296875 108.84844207763672 160.15234375 87.0140609741211 C160.1374969482422 86.98944854736328 160.1222686767578 86.9644546508789 160.10662841796875 86.9398422241211 C159.33868408203125 85.7249984741211 158.47891235351562 84.62109375 157.5500030517578 83.65937805175781 C148.9636688232422 74.7718734741211 134.5304718017578 74.01249694824219 123.9800796508789 81.88984680175781 C123.84492492675781 81.9906234741211 123.7109375 82.09219360351562 123.58085632324219 82.19140625 C116.46250915527344 87.6273422241211 111.2945327758789 94.96758270263672 108.65000915527344 103.15155792236328 L105.71992492675781 104.36328887939453 C103.7261734008789 105.18789672851562 102.77851867675781 107.4722671508789 103.60272979736328 109.46601867675781 C104.1742172241211 110.84843444824219 105.44766235351562 111.72773742675781 106.8394546508789 111.86250305175781 C106.79297637939453 112.34062957763672 106.75508117675781 112.8199234008789 106.72539520263672 113.30077362060547 C106.01366424560547 124.86563110351562 110.275390625 136.07342529296875 118.41796875 144.05039978027344 C126.7378921508789 152.201171875 136.9210968017578 157.30038452148438 149.41796875 159.54727172851562 L149.41796875 168.0625 L143.33242797851562 168.0625 C141.17538452148438 168.0625 139.42617797851562 169.81170654296875 139.42617797851562 171.96875 C139.42617797851562 174.1257781982422 141.17538452148438 175.875 143.33242797851562 175.875 L163.3230438232422 175.875 C165.48007202148438 175.875 167.2292938232422 174.1257781982422 167.2292938232422 171.96875 C167.2292938232422 169.81170654296875 165.48007202148438 168.0625 163.3230438232422 168.0625 L157.23046875 168.0625 L157.23046875 160.55703735351562 C160.0164031982422 160.7859344482422 162.79725646972656 160.8835906982422 165.5476531982422 160.8835906982422 C174.693359375 160.8835906982422 183.4933624267578 159.8046875 190.9597625732422 158.8894500732422 C192.8996124267578 158.6515655517578 194.73281860351562 158.4265594482422 196.4816436767578 158.23086547851562 C198.5378875732422 158.01913452148438 200.08944702148438 156.23828125 199.99571228027344 154.16757202148438 Z M123.8851547241211 138.46875 C117.36328125 132.07968139648438 113.95077514648438 123.0804672241211 114.5234375 113.78008270263672 C115.1328125 103.88202667236328 120.162109375 94.63164520263672 128.32655334472656 88.39688110351562 C128.43359375 88.3148422241211 128.541015625 88.2339859008789 128.6515655517578 88.15156555175781 C132.1433563232422 85.54375457763672 136.2117156982422 84.25468444824219 140.1515655517578 84.25468444824219 C144.57186889648438 84.25468444824219 148.83163452148438 85.87890625 151.93008422851562 89.08633422851562 C152.48086547851562 89.6566390991211 153.001953125 90.3265609741211 153.48046875 91.0785140991211 C154.01406860351562 91.96601867675781 163.55233764648438 107.83202362060547 173.09335327148438 123.69804382324219 C178.00274658203125 131.8625030517578 182.91366577148438 140.02774047851562 186.59765625 146.15078735351562 C187.73553466796875 148.04258728027344 188.75665283203125 149.7394561767578 189.62460327148438 151.18124389648438 C169.70703125 153.62149047851562 142.6085968017578 156.8125 123.8851547241211 138.46875 Z"></path>
<path fill="#020288" fill-opacity="1.0"  filling="0" d="M171.97421264648438 138.31719970703125 C171.42422485351562 137.46444702148438 169.34454345703125 133.951171875 167.49765014648438 130.83163452148438 C162.12149047851562 121.74882507324219 158.21444702148438 115.1917953491211 156.9050750732422 113.53633117675781 C156.9050750732422 113.53633117675781 156.9050750732422 113.53633117675781 156.90469360351562 113.53594207763672 C153.34454345703125 109.03515625 146.26446533203125 108.49726104736328 141.11679077148438 112.34101104736328 L140.95742797851562 112.46172332763672 C136.7468719482422 115.67694854736328 134.1496124267578 120.48046875 133.83242797851562 125.64063262939453 C133.5281219482422 130.58241271972656 135.3542938232422 135.376953125 138.841796875 138.79376220703125 C144.46875 144.3058624267578 151.4328155517578 145.65000915527344 157.78515625 145.65000915527344 C161.27108764648438 145.65000915527344 164.5734405517578 145.2453155517578 167.3683624267578 144.90272521972656 C168.05780029296875 144.81796264648438 168.72109985351562 144.73672485351562 169.35311889648438 144.666015625 C170.2332000732422 144.57264709472656 171.06640625 144.18124389648438 171.70468139648438 143.54336547851562 C172.95703125 142.29061889648438 173.2101593017578 140.35195922851562 172.3210906982422 138.81991577148438 C172.21719360351562 138.64100646972656 172.10116577148438 138.4734344482422 171.97421264648438 138.31719970703125 Z M144.30899047851562 133.21249389648438 C142.4140625 131.3562469482422 141.462890625 128.83749389648438 141.6300811767578 126.12031555175781 C141.80819702148438 123.22460174560547 143.29139709472656 120.50897979736328 145.689453125 118.677734375 L145.7976531982422 118.595703125 C146.6999969482422 117.92227172851562 147.7941436767578 117.57852172851562 148.7585906982422 117.57852172851562 C149.60508728027344 117.57852172851562 150.35116577148438 117.84375 150.7781219482422 118.3828125 C151.861328125 119.75273132324219 157.44140625 129.1789093017578 160.775390625 134.81094360351562 C161.3566436767578 135.79336547851562 161.91250610351562 136.73202514648438 162.42657470703125 137.59881591796875 C156.15234375 138.19296264648438 149.25820922851562 138.06134033203125 144.30899047851562 133.21249389648438 Z"></path>
<path fill="#020288" fill-opacity="1.0"  filling="0" d="M138.75665283203125 101.2613296508789 L138.75665283203125 98.61211395263672 C138.75665283203125 96.455078125 137.00743103027344 94.70586395263672 134.85040283203125 94.70586395263672 C132.693359375 94.70586395263672 130.94415283203125 96.455078125 130.94415283203125 98.61211395263672 L130.94415283203125 101.2613296508789 C130.94415283203125 103.41836547851562 132.693359375 105.1675796508789 134.85040283203125 105.1675796508789 C137.00743103027344 105.1675796508789 138.75665283203125 103.41836547851562 138.75665283203125 101.2613296508789 Z"></path>
<path fill="#020288" fill-opacity="1.0"  filling="0" d="M59.03945541381836 112.458984375 L58.876564025878906 112.3363265991211 C53.73554992675781 108.4976577758789 46.65547180175781 109.03555297851562 43.095314025878906 113.53633117675781 C43.095314025878906 113.53633117675781 43.095314025878906 113.53633117675781 43.09492111206055 113.53633117675781 C41.78515625 115.19218444824219 37.87773895263672 121.7503890991211 32.500389099121094 130.83477783203125 C30.654685974121094 133.95272827148438 28.576568603515625 137.46405029296875 28.025779724121094 138.31680297851562 C27.87109375 138.5070343017578 27.732810974121094 138.7140655517578 27.613677978515625 138.9363250732422 C26.801170349121094 140.45352172851562 27.077735900878906 142.32382202148438 28.29375457763672 143.541015625 C28.93280792236328 144.18124389648438 29.767967224121094 144.5730438232422 30.650779724121094 144.666015625 C31.281639099121094 144.73712158203125 31.943748474121094 144.818359375 32.63164520263672 144.90234375 C35.427345275878906 145.2449188232422 38.72812271118164 145.6496124267578 42.214847564697266 145.6496124267578 C48.566795349121094 145.6492156982422 55.531639099121094 144.3054656982422 61.158203125 138.79336547851562 C64.6460952758789 135.37615966796875 66.47187805175781 130.58203125 66.1675796508789 125.6402359008789 C65.85038757324219 120.48046875 63.25312423706055 115.67694854736328 59.03945541381836 112.458984375 Z M55.691017150878906 133.21249389648438 C50.741798400878906 138.06094360351562 43.84843826293945 138.193359375 37.57382583618164 137.59881591796875 C38.08710479736328 136.7332000732422 38.642578125 135.79530334472656 39.22343826293945 134.814453125 C42.55781173706055 129.18125915527344 48.138671875 119.75273132324219 49.222660064697266 118.38320922851562 C50.135154724121094 117.2300796508789 52.50898742675781 117.33125305175781 54.195701599121094 118.59101104736328 L54.30117416381836 118.6703109741211 C56.708984375 120.50897979736328 58.191795349121094 123.22460174560547 58.37031173706055 126.12031555175781 C58.53750228881836 128.83749389648438 57.5859375 131.3562469482422 55.691017150878906 133.21249389648438 Z"></path>
<path fill="#020288" fill-opacity="1.0"  filling="0" d="M65.14999389648438 94.7054672241211 C62.99258041381836 94.7054672241211 61.24374771118164 96.4546890258789 61.24374771118164 98.6117172241211 L61.24374771118164 101.26093292236328 C61.24374771118164 103.41796875 62.99258041381836 105.16718292236328 65.14999389648438 105.16718292236328 C67.30742645263672 105.16718292236328 69.05624389648438 103.41796875 69.05624389648438 101.26093292236328 L69.05624389648438 98.6117172241211 C69.05624389648438 96.4546890258789 67.30742645263672 94.7054672241211 65.14999389648438 94.7054672241211 Z"></path>
<path fill="#020288" fill-opacity="1.0"  filling="0" d="M94.28047180175781 104.3628921508789 L91.35038757324219 103.15116882324219 C88.70625305175781 94.9671859741211 83.53866577148438 87.62773132324219 76.4234390258789 82.19414520263672 C76.29022979736328 82.09219360351562 76.15625 81.99101257324219 76.0230484008789 81.89179992675781 C65.4703140258789 74.0121078491211 51.03750228881836 74.7718734741211 42.44960403442383 83.6597671508789 C41.521484375 84.62109375 40.66132736206055 85.724609375 39.89374542236328 86.939453125 C39.87812423706055 86.96406555175781 39.86289596557617 86.98905944824219 39.84804916381836 87.013671875 C26.718360900878906 108.85272979736328 1.892578125 150.140625 0.6335906982421875 152.21014404296875 C0.26406097412109375 152.7761688232422 0.036712646484375 153.44491577148438 0.00429534912109375 154.16639709472656 C-0.08945465087890625 156.236328125 1.4613265991210938 158.01718139648438 3.5167999267578125 158.22967529296875 C5.2683563232421875 158.42617797851562 7.101173400878906 158.65078735351562 9.041015625 158.888671875 C16.5078125 159.80429077148438 25.306251525878906 160.8828125 34.452735900878906 160.8828125 C37.20234680175781 160.8828125 39.984375 160.78515625 42.77031326293945 160.55624389648438 L42.77031326293945 168.0617218017578 L36.67734146118164 168.0617218017578 C34.519920349121094 168.0617218017578 32.771095275878906 169.81094360351562 32.771095275878906 171.9679718017578 C32.771095275878906 174.125 34.519920349121094 175.8742218017578 36.67734146118164 175.8742218017578 L56.667579650878906 175.8742218017578 C58.82499694824219 175.8742218017578 60.573829650878906 174.125 60.573829650878906 171.9679718017578 C60.573829650878906 169.81094360351562 58.82499694824219 168.0617218017578 56.667579650878906 168.0617218017578 L50.582035064697266 168.0617218017578 L50.582035064697266 159.54647827148438 C63.07890319824219 157.29962158203125 73.2621078491211 152.2003936767578 81.58203125 144.0496063232422 C89.724609375 136.07266235351562 93.9859390258789 124.86483764648438 93.27421569824219 113.29960632324219 C93.2445297241211 112.81875610351562 93.20663452148438 112.33944702148438 93.16015625 111.8617172241211 C94.55194854736328 111.7269515991211 95.82539367675781 110.84727478027344 96.3968734741211 109.46522521972656 C97.22187805175781 107.47187042236328 96.27422332763672 105.18710327148438 94.28047180175781 104.3628921508789 Z M76.115234375 138.46875 C57.39101791381836 156.81289672851562 30.293357849121094 153.62265014648438 10.375 151.18124389648438 C11.242965698242188 149.7394561767578 12.263671875 148.04258728027344 13.401947021484375 146.15078735351562 C17.086326599121094 140.02734375 21.996482849121094 131.8625030517578 26.906639099121094 123.69804382324219 C36.44492721557617 107.8363265991211 45.98125076293945 91.97421264648438 46.519134521484375 91.07890319824219 C46.99726867675781 90.32695007324219 47.51875305175781 89.6566390991211 48.068748474121094 89.08711242675781 C53.9296875 83.02030944824219 63.93828582763672 82.61796569824219 71.3492202758789 88.15156555175781 C71.4574203491211 88.232421875 71.56562042236328 88.31366729736328 71.677734375 88.39960479736328 C79.8382797241211 94.6312484741211 84.86796569824219 103.88202667236328 85.4769515991211 113.7796859741211 C86.04960632324219 123.08086395263672 82.6371078491211 132.07968139648438 76.115234375 138.46875 Z"></path></svg>