<svg xmlns="http://www.w3.org/2000/svg" viewBox="0.0 0.0 200.0 200.0" height="200.0px" width="200.0px"><path fill="#adeefa" fill-opacity="1.0"  filling="0" d="M180.46875 125.78125 L19.53125 125.78125 C10.901954650878906 125.78125 3.90625 118.78555297851562 3.90625 110.15625 L3.90625 35.15625 C3.90625 26.526954650878906 10.901954650878906 19.53125 19.53125 19.53125 L180.46875 19.53125 C189.09805297851562 19.53125 196.09375 26.526954650878906 196.09375 35.15625 L196.09375 110.15625 C196.09375 118.78555297851562 189.09805297851562 125.78125 180.46875 125.78125 Z"></path>
<path fill="#ffec80" fill-opacity="1.0"  filling="0" d="M172.40899658203125 132.40625 L159.52577209472656 139.84454345703125 L175.0 166.64727783203125 L151.060546875 180.46875 L135.5859375 153.666015625 L125.97695922851562 159.2136688232422 L125.97695922851562 105.59883117675781 L172.40899658203125 132.40625 Z"></path>
<path fill="" fill-opacity="1.0"  filling="0" d="M59.42890548706055 51.5625 L49.44374465942383 51.5625 C47.28633117675781 51.5625 45.53749465942383 53.31132888793945 45.53749465942383 55.46875 L45.53749465942383 89.8031234741211 C45.53749465942383 91.9605484008789 47.28633117675781 93.7093734741211 49.44374465942383 93.7093734741211 L61.17265701293945 93.7093734741211 C68.42851257324219 93.7093734741211 74.3316421508789 87.8062515258789 74.3316421508789 80.5503921508789 C74.3316421508789 76.29804992675781 72.2945327758789 72.5132827758789 69.1449203491211 70.111328125 C70.4671859741211 68.1976547241211 71.2445297241211 65.87812805175781 71.2445297241211 63.37851333618164 C71.24491882324219 56.863285064697266 65.94413757324219 51.5625 59.42890548706055 51.5625 Z M53.35000228881836 59.375 L59.42890548706055 59.375 C61.636329650878906 59.375 63.43241882324219 61.17109680175781 63.43241882324219 63.37851333618164 C63.43241882324219 65.60546875 61.636329650878906 67.41679382324219 59.42890548706055 67.41679382324219 L53.35000228881836 67.41679382324219 L53.35000228881836 59.375 Z M61.17265701293945 85.8968734741211 L53.35000228881836 85.8968734741211 L53.35000228881836 75.22969055175781 L61.17265701293945 75.22969055175781 C64.1207046508789 75.22969055175781 66.5191421508789 77.61640930175781 66.5191421508789 80.5503921508789 C66.5191421508789 83.498046875 64.1207046508789 85.8968734741211 61.17265701293945 85.8968734741211 Z"></path>
<path fill="" fill-opacity="1.0"  filling="0" d="M139.61367797851562 93.75 L139.62344360351562 93.75 C141.7761688232422 93.75 143.5242156982422 92.0074234008789 143.52969360351562 89.8531265258789 L143.56991577148438 73.44844055175781 L153.830078125 57.68671798706055 C155.00701904296875 55.87890625 154.4953155517578 53.458984375 152.6875 52.28202819824219 C150.87969970703125 51.10507583618164 148.45977783203125 51.616798400878906 147.28280639648438 53.42461013793945 L139.66171264648438 65.13203430175781 L131.95742797851562 53.33281326293945 C130.77772521972656 51.52617263793945 128.35702514648438 51.01797103881836 126.55117797851562 52.19765853881836 C124.74453735351562 53.377342224121094 124.2367172241211 55.79765319824219 125.416015625 57.60390853881836 L135.7578125 73.44218444824219 L135.71759033203125 89.8335952758789 C135.7117156982422 91.99179077148438 137.4562530517578 93.7445297241211 139.61367797851562 93.75 Z"></path>
<path fill="" fill-opacity="1.0"  filling="0" d="M83.7066421508789 55.46875 L83.7066421508789 79.1226577758789 C83.7066421508789 84.23905944824219 86.060546875 88.2300796508789 90.90234375 91.32343292236328 C93.416015625 92.9292984008789 96.2535171508789 93.7457046508789 99.3363265991211 93.75 L99.361328125 93.75 C102.01953887939453 93.75 104.51484680175781 93.1722640991211 106.77734375 92.033203125 C113.9078140258789 88.4417953491211 115.40469360351562 83.01640319824219 115.40469360351562 79.09765625 L115.40469360351562 55.46875 C115.40469360351562 53.31132888793945 113.65586853027344 51.5625 111.49844360351562 51.5625 C109.34101104736328 51.5625 107.5921859741211 53.31132888793945 107.5921859741211 55.46875 L107.5921859741211 79.09765625 C107.5921859741211 80.85624694824219 107.0999984741211 83.123046875 103.2632827758789 85.05547332763672 C102.10077667236328 85.640625 100.78788757324219 85.9375 99.3609390258789 85.9375 C99.35625457763672 85.9375 99.3515625 85.9375 99.34687805175781 85.9375 C97.7523422241211 85.9351577758789 96.36640930175781 85.5433578491211 95.10820770263672 84.7398452758789 C92.1292953491211 82.83671569824219 91.51874542236328 81.11796569824219 91.51874542236328 79.1226577758789 L91.51874542236328 55.46875 C91.51874542236328 53.31132888793945 89.76992797851562 51.5625 87.61249542236328 51.5625 C85.455078125 51.5625 83.7066421508789 53.31132888793945 83.7066421508789 55.46875 Z"></path>
<path fill="" fill-opacity="1.0"  filling="0" d="M180.46875 15.625 L117.578125 15.625 C115.42070007324219 15.625 113.671875 17.37383270263672 113.671875 19.53125 C113.671875 21.68866729736328 115.42070007324219 23.4375 117.578125 23.4375 L180.46875 23.4375 C186.9304656982422 23.4375 192.1875 28.694534301757812 192.1875 35.15625 L192.1875 110.15625 C192.1875 116.61796569824219 186.9304656982422 121.875 180.46875 121.875 L161.98046875 121.875 L127.93008422851562 102.21601867675781 C126.72148895263672 101.51835632324219 125.232421875 101.51835632324219 124.02383422851562 102.21601867675781 C122.81523895263672 102.91368103027344 122.07070922851562 104.203125 122.07070922851562 105.59883117675781 L122.07070922851562 121.875 L19.53125 121.875 C13.069534301757812 121.875 7.8125 116.61796569824219 7.8125 110.15625 L7.8125 35.15625 C7.8125 28.694534301757812 13.069534301757812 23.4375 19.53125 23.4375 L82.421875 23.4375 C84.57929229736328 23.4375 86.328125 21.68866729736328 86.328125 19.53125 C86.328125 17.37383270263672 84.57929229736328 15.625 82.421875 15.625 L19.53125 15.625 C8.76171875 15.625 0.0 24.38671875 0.0 35.15625 L0.0 110.15625 C0.0 120.92578125 8.76171875 129.6875 19.53125 129.6875 L122.07070922851562 129.6875 L122.07070922851562 159.2136688232422 C122.07070922851562 160.609375 122.81523895263672 161.89883422851562 124.02383422851562 162.59649658203125 C125.232421875 163.29412841796875 126.72148895263672 163.29412841796875 127.93008422851562 162.59649658203125 L134.15585327148438 159.001953125 L147.67733764648438 182.421875 C148.1953125 183.3191375732422 149.04843139648438 183.97381591796875 150.04922485351562 184.24179077148438 C150.3820343017578 184.3308563232422 150.72186279296875 184.375 151.06015014648438 184.375 C151.740234375 184.375 152.41445922851562 184.197265625 153.01327514648438 183.8515625 L176.953125 170.03009033203125 C178.82147216796875 168.95156860351562 179.4617156982422 166.5625 178.3828125 164.69415283203125 L164.861328125 141.2742156982422 L174.36172485351562 135.7890625 C175.5703125 135.09141540527344 176.31484985351562 133.80194091796875 176.31484985351562 132.40625 C176.31484985351562 131.37655639648438 175.9074249267578 130.40625 175.20938110351562 129.6875 L180.46875 129.6875 C191.23828125 129.6875 200.0 120.92578125 200.0 110.15625 L200.0 35.15625 C200.0 24.38671875 191.23828125 15.625 180.46875 15.625 Z M169.6640625 165.2175750732422 L152.490234375 175.1328125 L138.96875 151.712890625 C138.45077514648438 150.8156280517578 137.59765625 150.1609344482422 136.59686279296875 149.89297485351562 C136.26406860351562 149.80389404296875 135.92422485351562 149.759765625 135.5859375 149.759765625 C134.90585327148438 149.759765625 134.2316436767578 149.9375 133.6328125 150.283203125 L129.88320922851562 152.4480438232422 L129.88320922851562 112.36483764648438 L164.59649658203125 132.40664672851562 L157.57264709472656 136.46173095703125 C156.67538452148438 136.9796905517578 156.0207061767578 137.8328094482422 155.7527313232422 138.83358764648438 C155.484375 139.83438110351562 155.625 140.90078735351562 156.14297485351562 141.79766845703125 L169.6640625 165.2175750732422 Z"></path>
<path fill="" fill-opacity="1.0"  filling="0" d="M100.0 23.4375 C101.02734375 23.4375 102.03515625 23.01953125 102.76171875 22.29296875 C103.48828125 21.56640625 103.90625 20.55859375 103.90625 19.53125 C103.90625 18.50390625 103.48828125 17.49609375 102.76171875 16.76953125 C102.03515625 16.04296875 101.02734375 15.625 100.0 15.625 C98.97265625 15.625 97.96484375 16.04296875 97.23828125 16.76953125 C96.51171875 17.49609375 96.09375 18.50390625 96.09375 19.53125 C96.09375 20.55859375 96.51171875 21.56640625 97.23828125 22.29296875 C97.96484375 23.01953125 98.97265625 23.4375 100.0 23.4375 Z"></path></svg>