<svg xmlns="http://www.w3.org/2000/svg" viewBox="0.0 0.0 200.0 200.0" height="200.0px" width="200.0px"><path fill="#f9cfac" fill-opacity="1.0"  filling="0" d="M155.45870971679688 90.47184753417969 L162.16114807128906 78.86276245117188 C166.03671264648438 72.15016174316406 163.73667907714844 63.566776275634766 157.02407836914062 59.69122314453125 C153.14930725097656 57.45408248901367 149.9252166748047 57.92236328125 150.00840759277344 57.80949783325195 C150.0021514892578 57.60093307495117 150.00450134277344 58.703487396240234 150.00450134277344 40.74191665649414 C150.00450134277344 37.2905158996582 147.21315002441406 34.504241943359375 143.76681518554688 34.504241943359375 C129.98582458496094 34.504241943359375 118.81652069091797 45.673545837402344 118.81652069091797 59.45454406738281 L118.81652069091797 67.2513427734375 C118.81652069091797 59.500240325927734 112.53315734863281 53.21687316894531 104.78205108642578 53.21687316894531 C97.03094482421875 53.21687316894531 90.7475814819336 59.500240325927734 90.7475814819336 67.2513427734375 L90.7475814819336 73.489013671875 C90.7475814819336 65.7379150390625 84.4642105102539 59.45454406738281 76.7131118774414 59.45454406738281 C68.96200561523438 59.45454406738281 62.67863845825195 65.7379150390625 62.67863845825195 73.489013671875 C62.67863845825195 85.95069122314453 62.71417999267578 85.81555938720703 62.67473220825195 85.81360626220703 C62.5934944152832 78.13240814208984 56.3444938659668 71.92988586425781 48.644168853759766 71.92988586425781 C41.44532012939453 71.92988586425781 35.474403381347656 77.36378479003906 34.697174072265625 84.40953063964844 C34.54798126220703 84.40211486816406 34.60929870605469 80.92415618896484 34.60929870605469 153.0184783935547 C34.60929870605469 177.13258361816406 54.15773391723633 196.681396484375 78.27223205566406 196.681396484375 L121.93516540527344 196.681396484375 C146.04965209960938 196.681396484375 165.5980987548828 177.13258361816406 165.5980987548828 153.0184783935547 C165.59848022460938 123.3669662475586 161.10702514648438 109.6777572631836 155.45870971679688 90.47184753417969 Z"></path>
<path fill="" fill-opacity="1.0"  filling="0" d="M118.96923065185547 116.34700012207031 C117.68428802490234 117.07266235351562 117.8826904296875 117.09101867675781 118.80911254882812 116.19468688964844 C118.85987091064453 116.24544525146484 118.91455841064453 116.29621887207031 118.96923065185547 116.34700012207031 Z"></path>
<path fill="#ffe4cc" fill-opacity="1.0"  filling="0" d="M165.59848022460938 153.01690673828125 C165.59848022460938 166.6553497314453 159.3494873046875 178.8330841064453 149.55418395996094 186.83961486816406 C144.00428771972656 189.39779663085938 137.82168579101562 190.8233642578125 131.31100463867188 190.8233642578125 L87.64612579345703 190.8233642578125 C63.53279495239258 190.8233642578125 43.98514175415039 171.2757110595703 43.98514175415039 147.15847778320312 L43.98514175415039 133.77780151367188 C52.41309356689453 135.75796508789062 61.11872863769531 132.2030487060547 65.78243255615234 124.87298583984375 C75.18522644042969 130.9270782470703 87.80313110351562 128.17205810546875 93.84825134277344 118.63569641113281 C96.30450439453125 120.21630859375 99.22473907470703 121.32901763916016 102.37814331054688 121.69770812988281 C93.024169921875 131.88748168945312 87.62269592285156 145.34625244140625 87.62269592285156 159.65255737304688 C87.62269592285156 161.3788604736328 89.02090454101562 162.77706909179688 90.7471923828125 162.77706909179688 C92.47348022460938 162.77706909179688 93.87168884277344 161.3788604736328 93.87168884277344 159.65255737304688 C93.87168884277344 143.74887084960938 101.3861083984375 129.024658203125 113.88801574707031 119.67849731445312 C115.39558410644531 118.9207992553711 116.79769897460938 117.97564697265625 118.05921936035156 116.87816619873047 C118.9637680053711 116.09664916992188 118.73371887207031 116.12828063964844 118.96923065185547 116.34700012207031 C127.23548889160156 124.1207504272461 140.26622009277344 123.56224822998047 147.886474609375 115.1675033569336 C149.75335693359375 113.12602233886719 149.69869995117188 112.9510498046875 157.89659118652344 98.75215911865234 C164.23931884765625 120.35845947265625 165.59848022460938 134.6444549560547 165.59848022460938 153.01690673828125 Z"></path>
<path fill="#ffe4cc" fill-opacity="1.0"  filling="0" d="M62.67746353149414 85.96514129638672 L62.67746353149414 114.03487396240234 C62.67746353149414 120.7798843383789 57.916507720947266 126.41569519042969 51.57377624511719 127.76313781738281 C45.23103713989258 126.41569519042969 40.4700813293457 120.7798843383789 40.4700813293457 114.03487396240234 L40.4700813293457 74.55290985107422 C49.75297164916992 67.88639831542969 62.67746353149414 74.5876693725586 62.67746353149414 85.96514129638672 Z"></path>
<path fill="#ffe4cc" fill-opacity="1.0"  filling="0" d="M150.00332641601562 40.74191665649414 L150.00332641601562 51.56049728393555 C142.78182983398438 51.56439971923828 136.04852294921875 55.450496673583984 132.43972778320312 61.703399658203125 L125.06591796875 74.47479248046875 L125.06591796875 42.94078063964844 C129.635498046875 37.76582717895508 136.32192993164062 34.504638671875 143.76605224609375 34.504638671875 C147.21432495117188 34.504638671875 150.00332641601562 37.290122985839844 150.00332641601562 40.74191665649414 Z"></path>
<path fill="#ffe4cc" fill-opacity="1.0"  filling="0" d="M90.7471923828125 73.4905776977539 L90.7471923828125 107.79759216308594 C90.7471923828125 114.47230529785156 86.08387756347656 120.06124877929688 79.83877563476562 121.47898864746094 C73.58978271484375 120.06124877929688 68.92646026611328 114.47230529785156 68.92646026611328 107.79759216308594 L68.92646026611328 61.81276321411133 C78.15663146972656 55.62702941894531 90.7471923828125 62.25057601928711 90.7471923828125 73.4905776977539 Z"></path>
<path fill="#ffe4cc" fill-opacity="1.0"  filling="0" d="M118.8169174194336 67.2532958984375 L118.8169174194336 85.29727935791016 C118.8169174194336 85.29727935791016 120.83026123046875 105.34290313720703 115.0011215209961 111.17204284667969 C113.12641906738281 113.1678237915039 110.6697769165039 114.61680603027344 107.90850830078125 115.24560546875 C101.65950775146484 113.82396697998047 96.9961929321289 108.23501586914062 96.9961929321289 101.56031036376953 L96.9961929321289 55.575477600097656 C106.13066864013672 49.45380401611328 118.8169174194336 55.90277099609375 118.8169174194336 67.2532958984375 Z"></path>
<path fill="#ffe4cc" fill-opacity="1.0"  filling="0" d="M125.83649444580078 113.7103042602539 C132.5303497314453 117.5749282836914 141.12193298339844 115.30458068847656 145.00802612304688 108.5732421875 L162.16114807128906 78.86276245117188 C166.03671264648438 72.15016174316406 163.73667907714844 63.566776275634766 157.02407836914062 59.69122314453125 C150.33023071289062 55.82660675048828 141.73863220214844 58.096946716308594 137.8525390625 64.82829284667969 L120.69943237304688 94.53877258300781 C116.8238754272461 101.2513656616211 119.1239013671875 109.83475494384766 125.83649444580078 113.7103042602539 Z"></path>
<path fill="" fill-opacity="1.0"  filling="0" d="M158.83433532714844 90.87373352050781 L164.86697387695312 80.42539978027344 C170.82928466796875 70.09893035888672 164.69473266601562 57.113121032714844 153.12899780273438 54.965415954589844 L153.12899780273438 40.742305755615234 C153.12899780273438 35.579071044921875 148.95700073242188 31.38013458251953 143.76681518554688 31.38013458251953 C130.00653076171875 31.38013458251953 118.53492736816406 41.333614349365234 116.15367126464844 54.417457580566406 C107.17385864257812 46.45193862915039 92.95269775390625 49.94473648071289 88.71275329589844 61.240196228027344 C78.13710021972656 50.87818145751953 60.20637512207031 57.959861755371094 59.5728874206543 72.7465591430664 C49.37764358520508 64.30220031738281 33.75123596191406 70.16923522949219 31.69336700439453 83.29759979248047 C31.5621337890625 83.64286041259766 31.48675537109375 84.0158462524414 31.48675537109375 84.40679931640625 C31.48675537109375 159.47329711914062 31.2586669921875 155.32904052734375 32.07220458984375 160.42977905273438 C32.34247589111328 162.12521362304688 33.93402099609375 163.29417419433594 35.649757385253906 163.0235137939453 C37.353782653808594 162.7520751953125 38.51492691040039 161.1499786376953 38.24348831176758 159.44595336914062 C37.5705451965332 155.2235870361328 37.735755920410156 155.05564880371094 37.735755920410156 127.26985931396484 C46.75618362426758 134.71630859375 60.549293518066406 131.13916015625 64.71307373046875 120.04562377929688 C73.57376861572266 128.72705078125 88.42373657226562 125.41897583007812 92.78202056884766 113.80794525146484 C95.27185821533203 116.24740600585938 98.4979019165039 117.93698120117188 102.09342193603516 118.5052490234375 C92.91910552978516 128.65908813476562 87.62269592285156 141.9815673828125 87.62269592285156 156.13711547851562 C87.62269592285156 157.86260986328125 89.02169036865234 159.26161193847656 90.7471923828125 159.26161193847656 C92.47269439697266 159.26161193847656 93.87168884277344 157.86260986328125 93.87168884277344 156.13711547851562 C93.87168884277344 137.9368896484375 103.71932983398438 121.28175354003906 119.61679077148438 112.47300720214844 C127.24603271484375 121.74417877197266 141.76950073242188 120.43033599853516 147.71267700195312 110.1358871459961 L154.5186309814453 98.34793090820312 C159.7802734375 116.23217010498047 162.47398376464844 129.42498779296875 162.47398376464844 153.01690673828125 C162.47398376464844 175.37075805664062 144.28939819335938 193.5572967529297 121.93750762939453 193.5572967529297 L78.27262878417969 193.5572967529297 C66.69322204589844 193.5572967529297 55.6414794921875 188.58621215820312 47.9509162902832 179.91885375976562 C46.805789947509766 178.62843322753906 44.83110809326172 178.51048278808594 43.53990936279297 179.65521240234375 C42.24909591674805 180.80075073242188 42.131534576416016 182.77542114257812 43.27627182006836 184.0662384033203 C52.15180587768555 194.06893920898438 64.90757751464844 199.80628967285156 78.27223205566406 199.80628967285156 L121.93712615966797 199.80628967285156 C147.7349395751953 199.80628967285156 168.72259521484375 178.81668090820312 168.72259521484375 153.01690673828125 C168.72299194335938 125.10575103759766 164.976318359375 111.7528076171875 158.83433532714844 90.87373352050781 Z M121.94141387939453 59.45493698120117 C121.94141387939453 47.4205322265625 131.732421875 37.62913513183594 143.7672119140625 37.62913513183594 C145.49154663085938 37.62913513183594 146.88040161132812 39.015625 146.88040161132812 40.742305755615234 L146.88040161132812 54.97792053222656 C141.8065948486328 55.92580795288086 137.6287384033203 58.967899322509766 135.14749145507812 63.26643753051758 L121.94141387939453 86.13855743408203 C121.94141387939453 82.3563461303711 121.94141387939453 63.24729537963867 121.94141387939453 59.45493698120117 Z M59.55413818359375 114.0333023071289 C59.55413818359375 120.04914093017578 54.659996032714844 124.94367218017578 48.644168853759766 124.94367218017578 C42.653324127197266 124.94367218017578 37.776763916015625 120.08975982666016 37.735755920410156 114.10868835449219 L37.735755920410156 85.88937377929688 C37.776371002197266 79.9083023071289 42.653324127197266 75.05477905273438 48.644168853759766 75.05477905273438 C54.659610748291016 75.05477905273438 59.55413818359375 79.94891357421875 59.55413818359375 85.96475219726562 L59.55413818359375 114.0333023071289 Z M87.62347412109375 107.79563903808594 C87.62347412109375 113.81146240234375 82.72933197021484 118.70599365234375 76.7135009765625 118.70599365234375 C70.69766235351562 118.70599365234375 65.80313873291016 113.81185913085938 65.80313873291016 107.79563903808594 C65.80313873291016 104.3399429321289 65.80313873291016 79.01039123535156 65.80313873291016 73.489013671875 C65.80313873291016 67.47357177734375 70.69728088378906 62.57904052734375 76.7135009765625 62.57904052734375 C82.72894287109375 62.57904052734375 87.62347412109375 67.47318267822266 87.62347412109375 73.489013671875 L87.62347412109375 107.79563903808594 Z M93.87247467041016 101.558349609375 C93.87247467041016 97.7210693359375 93.87247467041016 71.45770263671875 93.87247467041016 67.2517318725586 C93.87247467041016 61.23628616333008 98.76660919189453 56.341758728027344 104.78282928466797 56.341758728027344 C110.79827880859375 56.341758728027344 115.69281005859375 61.23590087890625 115.69281005859375 67.2517318725586 L115.69281005859375 101.558349609375 C115.69281005859375 107.57418060302734 110.79866790771484 112.46871185302734 104.78282928466797 112.46871185302734 C98.76660919189453 112.46832275390625 93.87247467041016 107.57418060302734 93.87247467041016 101.558349609375 Z M142.30221557617188 107.01099395751953 C139.29409790039062 112.21992492675781 132.60845947265625 114.01142883300781 127.39874267578125 111.00410461425781 L127.39874267578125 111.00450134277344 C122.18903350830078 107.99638366699219 120.39752197265625 101.31112670898438 123.40524291992188 96.10102081298828 L140.55914306640625 66.39093017578125 C143.57350158691406 61.16950607299805 150.23922729492188 59.381900787353516 155.46182250976562 62.397430419921875 C160.6836395263672 65.41218566894531 162.47047424316406 72.07791137695312 159.45571899414062 77.3005142211914 L142.30221557617188 107.01099395751953 Z"></path>
<path fill="" fill-opacity="1.0"  filling="0" d="M41.75307846069336 170.6375274658203 C39.87720489501953 166.6873779296875 34.21288299560547 169.3939666748047 36.11687469482422 173.33631896972656 C38.011878967285156 177.29388427734375 43.69613265991211 174.69625854492188 41.75307846069336 170.6375274658203 Z"></path>
<path fill="#ef6767" fill-opacity="1.0"  filling="0" d="M199.29779052734375 55.181007385253906 C200.22186279296875 54.00541687011719 199.96798706054688 55.06657409667969 199.96798706054688 31.38013458251953 C199.96798706054688 29.654632568359375 198.56900024414062 28.255638122558594 196.84347534179688 28.255638122558594 C195.11798095703125 28.255638122558594 193.718994140625 29.654632568359375 193.718994140625 31.38013458251953 L193.718994140625 43.068885803222656 C150.00254821777344 -14.248497009277344 49.625648498535156 -14.11883544921875 6.249000549316406 43.58481979370117 L6.249000549316406 31.38013458251953 C6.249000549316406 29.654632568359375 4.850006103515625 28.255638122558594 3.1244964599609375 28.255638122558594 C1.3989944458007812 28.255638122558594 0.0 29.654632568359375 0.0 31.38013458251953 L0.0 53.25162887573242 C0.0 54.97713851928711 1.3989944458007812 56.376129150390625 3.1244964599609375 56.376129150390625 L24.995994567871094 56.376129150390625 C26.72150421142578 56.376129150390625 28.120498657226562 54.97713851928711 28.120498657226562 53.25162887573242 C28.120498657226562 51.526123046875 26.72150421142578 50.12712860107422 24.995994567871094 50.12712860107422 L9.23016357421875 50.12712860107422 C49.299137115478516 -8.126434326171875 150.97933959960938 -8.243209838867188 191.1287841796875 50.12712860107422 L174.97198486328125 50.12712860107422 C173.24649047851562 50.12712860107422 171.8474884033203 51.526123046875 171.8474884033203 53.25162887573242 C171.8474884033203 54.97713851928711 173.24649047851562 56.376129150390625 174.97198486328125 56.376129150390625 C198.527587890625 56.376129150390625 197.00088500976562 56.428855895996094 197.59454345703125 56.28122329711914 C198.24209594726562 56.122657775878906 198.8544921875 55.74576187133789 199.29779052734375 55.181007385253906 Z"></path></svg>