<svg xmlns="http://www.w3.org/2000/svg" viewBox="0.0 0.0 200.0 200.0" height="200.0px" width="200.0px"><path fill="#e9edf5" fill-opacity="1.0"  filling="0" d="M100.0 2.9296875 C46.38945388793945 2.9296875 2.9296875 46.38945388793945 2.9296875 100.0 C2.9296875 153.6105499267578 46.38945388793945 197.0703125 100.0 197.0703125 C153.6105499267578 197.0703125 197.0703125 153.6105499267578 197.0703125 100.0 C197.0703125 46.38945388793945 153.6105499267578 2.9296875 100.0 2.9296875 Z M100.0 115.625 C91.3707046508789 115.625 84.375 108.6292953491211 84.375 100.0 C84.375 91.3707046508789 91.3707046508789 84.375 100.0 84.375 C108.6292953491211 84.375 115.625 91.3707046508789 115.625 100.0 C115.625 108.6292953491211 108.6292953491211 115.625 100.0 115.625 Z"></path>
<path fill="#f2f6fc" fill-opacity="1.0"  filling="0" d="M190.2531280517578 135.79922485351562 L114.5238265991211 105.76093292236328 C112.9378890991211 109.75507354736328 109.75507354736328 112.9378890991211 105.76093292236328 114.5238265991211 L135.79922485351562 190.2531280517578 C160.6140594482422 180.40194702148438 180.40194702148438 160.6140594482422 190.2531280517578 135.79922485351562 Z"></path>
<path fill="#dce1eb" fill-opacity="1.0"  filling="0" d="M18.5546875 100.0 C18.5546875 49.019920349121094 57.855857849121094 7.222267150878906 107.8125 3.2433547973632812 C105.23516082763672 3.0378875732421875 102.63008117675781 2.9296875 100.0 2.9296875 C46.38945388793945 2.9296875 2.9296875 46.38945388793945 2.9296875 100.0 C2.9296875 153.6105499267578 46.38945388793945 197.0703125 100.0 197.0703125 C102.63008117675781 197.0703125 105.23516082763672 196.96209716796875 107.8125 196.7566375732422 C57.855857849121094 192.77772521972656 18.5546875 150.98007202148438 18.5546875 100.0 Z"></path>
<path fill="#f2f6fc" fill-opacity="1.0"  filling="0" d="M85.4761734008789 94.23905944824219 C87.06172180175781 90.24491882324219 90.24491882324219 87.0621109008789 94.23905944824219 85.4761734008789 L64.2007827758789 9.746871948242188 C39.38594055175781 19.598045349121094 19.598045349121094 39.38594055175781 9.746871948242188 64.2007827758789 L85.4761734008789 94.23905944824219 Z"></path>
<path fill="#e9edf5" fill-opacity="1.0"  filling="0" d="M66.7328109741211 16.130081176757812 L64.2007827758789 9.746871948242188 C39.38594055175781 19.598045349121094 19.598045349121094 39.38594055175781 9.746871948242188 64.2007827758789 L23.41015625 69.62031555175781 C30.874610900878906 46.95000076293945 46.462894439697266 27.972267150878906 66.7328109741211 16.130081176757812 Z"></path>
<path fill="#b2d3ff" fill-opacity="1.0"  filling="0" d="M100.0 41.9921875 C67.9632797241211 41.9921875 41.9921875 67.9632797241211 41.9921875 100.0 C41.9921875 132.03671264648438 67.9632797241211 158.0078125 100.0 158.0078125 C132.03671264648438 158.0078125 158.0078125 132.03671264648438 158.0078125 100.0 C158.0078125 67.9632797241211 132.03671264648438 41.9921875 100.0 41.9921875 Z M100.0 115.625 C91.3707046508789 115.625 84.375 108.6292953491211 84.375 100.0 C84.375 91.3707046508789 91.3707046508789 84.375 100.0 84.375 C108.6292953491211 84.375 115.625 91.3707046508789 115.625 100.0 C115.625 108.6292953491211 108.6292953491211 115.625 100.0 115.625 Z"></path>
<path fill="#9bc5ff" fill-opacity="1.0"  filling="0" d="M57.6171875 100.0 C57.6171875 70.6128921508789 79.470703125 46.33359146118164 107.8125 42.517578125 C105.25703430175781 42.173431396484375 102.6500015258789 41.9921875 100.0 41.9921875 C67.9632797241211 41.9921875 41.9921875 67.9632797241211 41.9921875 100.0 C41.9921875 132.03671264648438 67.9632797241211 158.0078125 100.0 158.0078125 C102.6500015258789 158.0078125 105.25703430175781 157.82656860351562 107.8125 157.482421875 C79.470703125 153.66639709472656 57.6171875 129.38710021972656 57.6171875 100.0 Z"></path>
<path fill="" fill-opacity="1.0"  filling="0" d="M174.5812530517578 33.3828125 C173.50350952148438 32.17656707763672 171.6511688232422 32.072654724121094 170.4445343017578 33.150779724121094 C169.23828125 34.228912353515625 169.13436889648438 36.08086013793945 170.21249389648438 37.287498474121094 C185.64297485351562 54.551170349121094 194.140625 76.8226547241211 194.140625 100.0 C194.140625 151.9093780517578 151.9093780517578 194.140625 100.0 194.140625 C48.09062576293945 194.140625 5.859375 151.9093780517578 5.859375 100.0 C5.859375 48.09062576293945 48.09062576293945 5.859375 100.0 5.859375 C123.05899047851562 5.859375 145.2449188232422 14.280853271484375 162.47109985351562 29.572654724121094 C163.68124389648438 30.646873474121094 165.5324249267578 30.536720275878906 166.60702514648438 29.326560974121094 C167.68124389648438 28.11640167236328 167.5710906982422 26.264846801757812 166.36093139648438 25.190628051757812 C148.0617218017578 8.946098327636719 124.49413299560547 0.0 100.0 0.0 C73.2890625 0.0 48.17695617675781 10.401954650878906 29.28907012939453 29.28907012939453 C10.401954650878906 48.17695617675781 0.0 73.2890625 0.0 100.0 C0.0 126.7109375 10.401954650878906 151.8230438232422 29.28907012939453 170.7109375 C48.17695617675781 189.59805297851562 73.2890625 200.0 100.0 200.0 C126.7109375 200.0 151.8230438232422 189.59805297851562 170.7109375 170.7109375 C189.59805297851562 151.8230438232422 200.0 126.7109375 200.0 100.0 C200.0 75.38008117675781 190.97305297851562 51.72187805175781 174.5812530517578 33.3828125 Z"></path>
<path fill="" fill-opacity="1.0"  filling="0" d="M105.4417953491211 160.685546875 C105.5328140258789 160.685546875 105.62460327148438 160.68124389648438 105.716796875 160.6726531982422 C120.763671875 159.27188110351562 134.69451904296875 152.33946228027344 144.94296264648438 141.15274047851562 C155.2570343017578 129.89453125 160.9375 115.279296875 160.9375 100.0 C160.9375 66.39883422851562 133.60118103027344 39.0625 100.0 39.0625 C66.39883422851562 39.0625 39.0625 66.39883422851562 39.0625 100.0 C39.0625 115.2750015258789 44.73984146118164 129.88671875 55.048828125 141.14414978027344 C65.29219055175781 152.3292999267578 79.216796875 159.26406860351562 94.2578125 160.67031860351562 C95.8714828491211 160.8230438232422 97.296875 159.63710021972656 97.4476547241211 158.0261688232422 C97.59844207763672 156.4152374267578 96.4144515991211 154.9871063232422 94.80352020263672 154.83633422851562 C66.36640930175781 152.1769561767578 44.921875 128.6027374267578 44.921875 100.0 C44.921875 69.62968444824219 69.62968444824219 44.921875 100.0 44.921875 C130.37030029296875 44.921875 155.078125 69.62968444824219 155.078125 100.0 C155.078125 128.61407470703125 133.6238250732422 152.189453125 105.173828125 154.8386688232422 C103.5628890991211 154.98867797851562 102.37850952148438 156.41641235351562 102.52851104736328 158.02734375 C102.66954040527344 159.54608154296875 103.94647979736328 160.685546875 105.4417953491211 160.685546875 Z"></path>
<path fill="" fill-opacity="1.0"  filling="0" d="M118.5546875 100.0 C118.5546875 89.7691421508789 110.23086547851562 81.4453125 100.0 81.4453125 C89.7691421508789 81.4453125 81.4453125 89.7691421508789 81.4453125 100.0 C81.4453125 110.23086547851562 89.7691421508789 118.5546875 100.0 118.5546875 C110.23086547851562 118.5546875 118.5546875 110.23086547851562 118.5546875 100.0 Z M100.0 112.6953125 C93.0 112.6953125 87.3046875 107.00000762939453 87.3046875 100.0 C87.3046875 93.0 93.0 87.3046875 100.0 87.3046875 C107.00000762939453 87.3046875 112.6953125 93.0 112.6953125 100.0 C112.6953125 107.00000762939453 107.00000762939453 112.6953125 100.0 112.6953125 Z"></path>
<path fill="#ffa1ac" fill-opacity="1.0"  filling="0" d="M78.80937194824219 106.49882507324219 A11.479296684265137 9.141797065734863 0.0 1 1 55.85078048706055 106.49882507324219 A11.479296684265137 9.141797065734863 0.0 1 1 78.80937194824219 106.49882507324219 Z"></path>
<path fill="#ffa1ac" fill-opacity="1.0"  filling="0" d="M144.56719970703125 106.31171417236328 A11.479296684265137 9.141797065734863 0.0 1 1 121.60858917236328 106.31171417236328 A11.479296684265137 9.141797065734863 0.0 1 1 144.56719970703125 106.31171417236328 Z"></path>
<path fill="" fill-opacity="1.0"  filling="0" d="M135.62069702148438 96.4996109008789 L135.62069702148438 92.0640640258789 C135.62069702148438 90.44609832763672 134.30899047851562 89.1343765258789 132.69100952148438 89.1343765258789 C131.0730438232422 89.1343765258789 129.76132202148438 90.44609832763672 129.76132202148438 92.0640640258789 L129.76132202148438 96.4996109008789 C129.76132202148438 98.1175765991211 131.0730438232422 99.4292984008789 132.69100952148438 99.4292984008789 C134.30899047851562 99.4292984008789 135.62069702148438 98.1175765991211 135.62069702148438 96.4996109008789 Z"></path>
<path fill="" fill-opacity="1.0"  filling="0" d="M64.37930297851562 92.0640640258789 L64.37930297851562 96.4996109008789 C64.37930297851562 98.1175765991211 65.6910171508789 99.4292984008789 67.30899047851562 99.4292984008789 C68.92695617675781 99.4292984008789 70.23867797851562 98.1175765991211 70.23867797851562 96.4996109008789 L70.23867797851562 92.0640640258789 C70.23867797851562 90.44609832763672 68.92695617675781 89.1343765258789 67.30899047851562 89.1343765258789 C65.6910171508789 89.1343765258789 64.37930297851562 90.44609832763672 64.37930297851562 92.0640640258789 Z"></path></svg>