<svg xmlns="http://www.w3.org/2000/svg" viewBox="0.0 0.0 200.0 200.0" height="200.0px" width="200.0px"><path fill="#6e83b7" fill-opacity="1.0"  filling="0" d="M2.0714797973632812 94.45234680175781 L36.080074310302734 72.98593139648438 L39.41757583618164 78.2734375 L5.4089813232421875 99.7398452758789 L2.0714797973632812 94.45234680175781 Z"></path>
<path fill="#ffd3b3" fill-opacity="1.0"  filling="0" d="M37.907814025878906 105.6402359008789 L33.017578125 97.88789367675781 C34.619140625 95.90507507324219 34.87187957763672 93.0492172241211 33.43632507324219 90.7734375 L25.07538604736328 77.51836395263672 L14.674224853515625 84.07929229736328 L6.3175811767578125 89.35038757324219 L14.678909301757812 102.60547637939453 C16.11444854736328 104.8812484741211 18.80078125 105.8832015991211 21.28008270263672 105.29179382324219 L26.170310974121094 113.04414367675781 L37.907814025878906 105.6402359008789 Z"></path>
<path fill="#fcb98b" fill-opacity="1.0"  filling="0" d="M6.3175811767578125 89.35078430175781 L11.941017150878906 98.2660140991211 C12.923828125 98.47148895263672 13.983596801757812 98.31367492675781 14.897659301757812 97.73710632324219 C15.606643676757812 97.28984069824219 16.126564025878906 96.65507507324219 16.435546875 95.9375 C17.608596801757812 96.44218444824219 19.002342224121094 96.38163757324219 20.161720275878906 95.6500015258789 C21.022262573242188 95.1070327758789 21.6015625 94.28750610351562 21.865623474121094 93.38007354736328 C22.8984375 93.646484375 24.033592224121094 93.5074234008789 25.004684448242188 92.8949203491211 C26.079689025878906 92.216796875 26.719139099121094 91.10820007324219 26.84687042236328 89.9332046508789 C27.692970275878906 90.009765625 28.568748474121094 89.82421875 29.341018676757812 89.33671569824219 C30.219924926757812 88.78202819824219 30.805465698242188 87.93867492675781 31.060935974121094 87.0078125 L25.074996948242188 77.51836395263672 L14.673828125 84.07929229736328 L6.3175811767578125 89.35078430175781 Z"></path>
<path fill="#ffd3b3" fill-opacity="1.0"  filling="0" d="M24.848831176757812 87.431640625 L20.067962646484375 79.85234069824219 C19.248046875 78.55233764648438 19.637107849121094 76.833984375 20.937110900878906 76.013671875 C22.237106323242188 75.1937484741211 23.955467224121094 75.58280944824219 24.775779724121094 76.8828125 L29.556640625 84.46211242675781 C30.376564025878906 85.7621078491211 29.987503051757812 87.48046875 28.6875 88.30078125 C27.387496948242188 89.1207046508789 25.66875457763672 88.73164367675781 24.848831176757812 87.431640625 Z"></path>
<path fill="#ffd3b3" fill-opacity="1.0"  filling="0" d="M15.669921875 93.7445297241211 L10.281639099121094 85.2027359008789 C9.461715698242188 83.9027328491211 9.850784301757812 82.18437194824219 11.150779724121094 81.36406707763672 C12.450775146484375 80.54413604736328 14.169136047363281 80.93319702148438 14.989456176757812 82.23320007324219 L20.377731323242188 90.7750015258789 C21.197654724121094 92.07500457763672 20.80859375 93.7933578491211 19.508590698242188 94.6136703491211 C18.208206176757812 95.43359375 16.489845275878906 95.0445327758789 15.669921875 93.7445297241211 Z"></path>
<path fill="#ffd3b3" fill-opacity="1.0"  filling="0" d="M10.405471801757812 95.83163452148438 L6.130859375 89.0546875 C5.310935974121094 87.75468444824219 5.6999969482421875 86.03633117675781 7.0 85.21601867675781 C8.300003051757812 84.3960952758789 10.018363952636719 84.78515625 10.838668823242188 86.08515930175781 L15.11328125 92.8617172241211 C15.933204650878906 94.1617202758789 15.544143676757812 95.88008117675781 14.244140625 96.70038604736328 C12.944137573242188 97.52070617675781 11.225387573242188 97.13125610351562 10.405471801757812 95.83163452148438 Z"></path>
<path fill="#ffd3b3" fill-opacity="1.0"  filling="0" d="M20.512496948242188 90.98945617675781 L14.989067077636719 82.23320007324219 C14.169136047363281 80.93319702148438 14.558204650878906 79.21484375 15.858200073242188 78.39453125 C17.158203125 77.57461547851562 18.876564025878906 77.96367645263672 19.696876525878906 79.263671875 L25.220314025878906 88.0199203491211 C26.04022979736328 89.3199234008789 25.651168823242188 91.03828430175781 24.351173400878906 91.85859680175781 C23.051170349121094 92.67852020263672 21.332420349121094 92.2894515991211 20.512496948242188 90.98945617675781 Z"></path>
<path fill="#fcb98b" fill-opacity="1.0"  filling="0" d="M27.935935974121094 84.03594207763672 L23.417190551757812 86.8863296508789 C21.6328125 88.01171875 21.044143676757812 90.32148742675781 22.01953125 92.1546859741211 C22.775001525878906 92.39570617675781 23.627731323242188 92.3148422241211 24.351173400878906 91.85859680175781 C25.651168823242188 91.0386734008789 26.04022979736328 89.3199234008789 25.220314025878906 88.0199203491211 L24.849220275878906 87.431640625 C25.66913604736328 88.73164367675781 27.387893676757812 89.1207046508789 28.687896728515625 88.30078125 C29.987892150878906 87.4808578491211 30.376953125 85.7621078491211 29.557029724121094 84.46211242675781 L28.99335479736328 83.568359375 C28.62812042236328 83.6703109741211 28.271881103515625 83.8238296508789 27.935935974121094 84.03594207763672 Z"></path>
<path fill="#ffd3b3" fill-opacity="1.0"  filling="0" d="M24.070701599121094 87.9222640991211 L28.589454650878906 85.0718765258789 C29.889450073242188 84.251953125 31.607810974121094 84.6410140991211 32.428123474121094 85.9410171508789 C33.248046875 87.24102020263672 32.858985900878906 88.9593734741211 31.558982849121094 89.7796859741211 L27.04022979736328 92.63007354736328 C25.74022674560547 93.44999694824219 24.021873474121094 93.0609359741211 23.201560974121094 91.76094055175781 C22.381637573242188 90.4609375 22.770706176757812 88.7425765991211 24.070701599121094 87.9222640991211 Z"></path>
<path fill="#fcb98b" fill-opacity="1.0"  filling="0" d="M26.29608917236328 102.537109375 C26.191017150878906 102.3773422241211 23.72772979736328 98.58358764648438 24.200782775878906 95.4253921508789 L25.74609375 95.65703582763672 C25.426170349121094 97.7933578491211 26.976951599121094 100.728515625 27.6015625 101.6792984008789 L26.29608917236328 102.537109375 Z"></path>
<path fill="#6e83b7" fill-opacity="1.0"  filling="0" d="M30.610153198242188 64.33319854736328 L46.61992263793945 54.22734451293945 L60.88007736206055 76.81913757324219 L44.87031173706055 86.92500305175781 L30.610153198242188 64.33319854736328 Z"></path>
<path fill="#edeff1" fill-opacity="1.0"  filling="0" d="M27.961326599121094 60.14179611206055 L43.97109603881836 50.03632736206055 L46.61953353881836 54.232032775878906 L30.609375 64.33749389648438 L27.961326599121094 60.14179611206055 Z"></path>
<path fill="#edeff1" fill-opacity="1.0"  filling="0" d="M44.870704650878906 86.919921875 L60.880859375 76.814453125 L63.528907775878906 81.0101547241211 L47.519142150878906 91.1156234741211 L44.870704650878906 86.919921875 Z"></path>
<path fill="#ffd3b3" fill-opacity="1.0"  filling="0" d="M106.55937194824219 95.2445297241211 C100.4800796508789 95.2445297241211 95.55195617675781 90.31640625 95.55195617675781 84.23710632324219 L95.55195617675781 73.22969055175781 L117.56680297851562 73.22969055175781 L117.56680297851562 84.23710632324219 C117.56640625 90.31640625 112.6382827758789 95.2445297241211 106.55937194824219 95.2445297241211 Z"></path>
<path fill="#fcb98b" fill-opacity="1.0"  filling="0" d="M95.55195617675781 79.177734375 C98.81328582763672 80.69491577148438 102.6031265258789 81.54570007324219 106.55937194824219 81.54570007324219 C110.51563262939453 81.54570007324219 114.30547332763672 80.69491577148438 117.56680297851562 79.177734375 L117.56680297851562 73.22969055175781 L95.55195617675781 73.22969055175781 L95.55195617675781 79.177734375 Z"></path>
<path fill="#ffd3b3" fill-opacity="1.0"  filling="0" d="M130.107421875 54.28828048706055 C130.107421875 67.2261734008789 119.4976577758789 77.71406555175781 106.46211242675781 77.71406555175781 C93.42655944824219 77.71406555175781 82.8167953491211 67.22578430175781 82.8167953491211 54.28828048706055 L82.8167953491211 31.286712646484375 L130.107421875 31.286712646484375 L130.107421875 54.28828048706055 Z"></path>
<path fill="#ffd3b3" fill-opacity="1.0"  filling="0" d="M82.81640625 38.57695388793945 L80.4039077758789 38.57695388793945 C77.9820327758789 38.57695388793945 76.0941390991211 40.67578125 76.3499984741211 43.08436965942383 L77.05195617675781 49.693359375 C77.3160171508789 52.181251525878906 79.41484069824219 54.068748474121094 81.91679382324219 54.068748474121094 L82.81640625 54.068748474121094 L82.81640625 38.57695388793945 Z"></path>
<path fill="#ffd3b3" fill-opacity="1.0"  filling="0" d="M130.107421875 38.57695388793945 L132.51992797851562 38.57695388793945 C134.94178771972656 38.57695388793945 136.82968139648438 40.67578125 136.57382202148438 43.08436965942383 L135.8718719482422 49.693359375 C135.60781860351562 52.181251525878906 133.50897216796875 54.068748474121094 131.00701904296875 54.068748474121094 L130.107421875 54.068748474121094 L130.107421875 38.57695388793945 Z"></path>
<path fill="#80d6fb" fill-opacity="1.0"  filling="0" d="M168.28399658203125 150.01914978027344 C168.47225952148438 147.21835327148438 167.90234375 144.41836547851562 166.6339874267578 141.91368103027344 L148.70468139648438 106.50350952148438 C145.24649047851562 99.62383270263672 138.92617797851562 94.62265014648438 131.435546875 92.83906555175781 L117.56640625 89.537109375 L117.56640625 81.38359069824219 C117.56640625 81.38359069824219 113.79531860351562 83.8296890258789 106.55897521972656 83.8296890258789 C99.32266235351562 83.8296890258789 95.55155944824219 81.38359069824219 95.55155944824219 81.38359069824219 L95.55155944824219 89.537109375 L81.68241882324219 92.83906555175781 C74.1917953491211 94.62265014648438 67.87149047851562 99.62383270263672 64.41328430175781 106.50350952148438 L52.92890548706055 129.35194396972656 L38.883201599121094 101.4886703491211 L21.891014099121094 111.21835327148438 L43.263671875 153.6335906982422 C45.199214935302734 157.46990966796875 49.17656326293945 159.90664672851562 53.458595275878906 159.90664672851562 C53.56171798706055 159.90664672851562 53.66484451293945 159.9050750732422 53.76836013793945 159.90234375 C58.16719055175781 159.78163146972656 61.81601333618164 157.10975646972656 63.91289138793945 153.0671844482422 L69.8675765991211 141.3125 L69.8675765991211 198.083984375 L106.55859375 198.083984375 L143.24960327148438 198.083984375 L143.24960327148438 141.31210327148438 L149.2042999267578 153.06680297851562 L145.91444396972656 198.08319091796875 L165.05506896972656 198.08319091796875 L168.28399658203125 150.01914978027344 Z"></path>
<path fill="#466089" fill-opacity="1.0"  filling="0" d="M132.51992797851562 10.184768676757812 L132.51992797851562 38.57695388793945 L130.107421875 38.57695388793945 L130.107421875 50.24882507324219 L124.302734375 35.583587646484375 L106.46211242675781 35.583587646484375 L106.46211242675781 10.184768676757812 L132.51992797851562 10.184768676757812 Z"></path>
<path fill="#6e83b7" fill-opacity="1.0"  filling="0" d="M117.56640625 10.184768676757812 L98.51835632324219 10.184768676757812 C94.88945770263672 10.184768676757812 91.9359359741211 13.041404724121094 91.7632827758789 16.627349853515625 C85.39453125 17.203903198242188 80.4039077758789 22.554298400878906 80.4039077758789 29.073440551757812 L80.4039077758789 38.57734298706055 L82.81640625 38.57734298706055 L82.81640625 50.24921798706055 L88.62109375 35.583984375 L119.62109375 35.583984375 C126.74492645263672 35.583984375 132.51992797851562 29.808982849121094 132.51992797851562 22.685157775878906 L132.51992797851562 1.989837646484375 C132.51992797851562 1.989837646484375 130.36366271972656 10.184768676757812 117.56640625 10.184768676757812 Z"></path>
<path fill="#6e83b7" fill-opacity="1.0"  filling="0" d="M142.2062530517578 147.59921264648438 C135.4265594482422 143.732421875 131.2410125732422 136.52734375 131.2410125732422 128.72225952148438 L131.2410125732422 92.83906555175781 L123.22578430175781 90.93086242675781 L123.22578430175781 128.03163146972656 L106.46211242675781 128.03163146972656 L89.69844055175781 128.03163146972656 L89.69844055175781 90.93086242675781 L81.68319702148438 92.83906555175781 L81.68319702148438 128.72225952148438 C81.68319702148438 136.52694702148438 77.4976577758789 143.732421875 70.71796417236328 147.59921264648438 L69.86836242675781 148.08358764648438 L69.86836242675781 198.08358764648438 L106.46211242675781 198.08358764648438 L143.05584716796875 198.08358764648438 L143.05584716796875 148.08358764648438 L142.2062530517578 147.59921264648438 Z"></path>
<path fill="#466089" fill-opacity="1.0"  filling="0" d="M108.80586242675781 176.33047485351562 L104.11836242675781 176.33047485351562 C95.48905944824219 176.33047485351562 88.49336242675781 169.33477783203125 88.49336242675781 160.70547485351562 L88.49336242675781 138.83047485351562 L124.43086242675781 138.83047485351562 L124.43086242675781 160.70547485351562 C124.43086242675781 169.33477783203125 117.4351577758789 176.33047485351562 108.80586242675781 176.33047485351562 Z"></path>
<path fill="#fcb98b" fill-opacity="1.0"  filling="0" d="M108.68008422851562 61.23007583618164 L103.14960479736328 61.23007583618164 L104.94140625 54.715232849121094 L107.201171875 55.33671951293945 L106.2249984741211 58.88632583618164 L108.68008422851562 58.88632583618164 L108.68008422851562 61.23007583618164 Z"></path>
<path fill="#6e83b7" fill-opacity="1.0"  filling="0" d="M102.55586242675781 43.307029724121094 C102.55586242675781 43.307029724121094 99.53788757324219 42.17694854736328 95.8140640258789 42.70156478881836 C93.7203140258789 42.996482849121094 91.40351104736328 43.814456939697266 89.27461242675781 45.650779724121094 C89.27461242675781 45.650779724121094 96.94062805175781 43.697654724121094 101.38398742675781 46.432029724121094 L102.55586242675781 43.307029724121094 Z"></path>
<path fill="#6e83b7" fill-opacity="1.0"  filling="0" d="M100.21211242675781 50.728904724121094 A2.34375 2.34375 0.0 1 1 95.52461242675781 50.728904724121094 A2.34375 2.34375 0.0 1 1 100.21211242675781 50.728904724121094 Z"></path>
<path fill="#6e83b7" fill-opacity="1.0"  filling="0" d="M110.36836242675781 43.307029724121094 C110.36836242675781 43.307029724121094 117.734375 40.548824310302734 123.64961242675781 45.650779724121094 C123.64961242675781 45.650779724121094 115.98359680175781 43.697654724121094 111.54023742675781 46.432029724121094 L110.36836242675781 43.307029724121094 Z"></path>
<path fill="#edeff1" fill-opacity="1.0"  filling="0" d="M102.55586242675781 67.1351547241211 L110.36836242675781 67.1351547241211 L110.32695770263672 67.3011703491211 C109.8921890258789 69.04023742675781 108.3296890258789 70.2601547241211 106.5374984741211 70.2601547241211 L106.38749694824219 70.2601547241211 C104.59492492675781 70.2601547241211 103.03242492675781 69.04023742675781 102.5980453491211 67.3011703491211 L102.55586242675781 67.1351547241211 Z"></path>
<path fill="#6e83b7" fill-opacity="1.0"  filling="0" d="M117.39961242675781 50.728904724121094 A2.34375 2.34375 0.0 1 1 112.71211242675781 50.728904724121094 A2.34375 2.34375 0.0 1 1 117.39961242675781 50.728904724121094 Z"></path></svg>