<svg xmlns="http://www.w3.org/2000/svg" viewBox="0.0 0.0 200.0 200.0" height="200.0px" width="200.0px"><path fill="#e2e9ee" fill-opacity="1.0"  filling="0" d="M132.03125 150.57577514648438 L132.03125 19.53125 C132.03125 10.901954650878906 125.03555297851562 3.90625 116.40625 3.90625 L19.53125 3.90625 C10.901954650878906 3.90625 3.90625 10.901954650878906 3.90625 19.53125 L3.90625 180.46875 C3.90625 189.09805297851562 10.901954650878906 196.09375 19.53125 196.09375 L116.40625 196.09375 C125.03555297851562 196.09375 132.03125 189.09805297851562 132.03125 180.46875 L132.03125 150.57577514648438 Z"></path>
<path fill="#66dff6" fill-opacity="1.0"  filling="0" d="M21.09375 35.15625 L114.84375 35.15625 L114.84375 164.84375 L21.09375 164.84375 L21.09375 35.15625 Z"></path>
<path fill="#d5ea79" fill-opacity="1.0"  filling="0" d="M155.4363250732422 54.6875 L155.4363250732422 44.53125 L180.4363250732422 69.53125 L155.4363250732422 94.53125 L155.4363250732422 84.375 L100.0 84.375 L100.0 54.6875 L155.4363250732422 54.6875 Z"></path>
<path fill="#ff7d97" fill-opacity="1.0"  filling="0" d="M140.6574249267578 145.3125 L140.6574249267578 155.46875 L115.65742492675781 130.46875 L140.6574249267578 105.46875 L140.6574249267578 115.625 L196.09375 115.625 L196.09375 145.3125 L140.6574249267578 145.3125 Z"></path>
<path fill="" fill-opacity="1.0"  filling="0" d="M59.564453125 23.4375 L76.3726577758789 23.4375 C78.53007507324219 23.4375 80.2789077758789 21.68828582763672 80.2789077758789 19.53125 C80.2789077758789 17.37421417236328 78.53007507324219 15.625 76.3726577758789 15.625 L59.564453125 15.625 C57.40703201293945 15.625 55.658203125 17.37421417236328 55.658203125 19.53125 C55.658203125 21.68828582763672 57.40703201293945 23.4375 59.564453125 23.4375 Z"></path>
<path fill="" fill-opacity="1.0"  filling="0" d="M68.009765625 175.1183624267578 L67.92733764648438 175.1183624267578 C65.76992797851562 175.1183624267578 64.02108764648438 176.86758422851562 64.02108764648438 179.0246124267578 C64.02108764648438 181.181640625 65.76992797851562 182.9308624267578 67.92733764648438 182.9308624267578 L68.009765625 182.9308624267578 C70.16719055175781 182.9308624267578 71.916015625 181.181640625 71.916015625 179.0246124267578 C71.916015625 176.8671875 70.16719055175781 175.1183624267578 68.009765625 175.1183624267578 Z"></path>
<path fill="" fill-opacity="1.0"  filling="0" d="M196.09375 111.71875 L144.5636749267578 111.71875 L144.5636749267578 105.46875 C144.5636749267578 103.88866424560547 143.6121063232422 102.46444702148438 142.15234375 101.85975646972656 C140.6921844482422 101.255859375 139.01211547851562 101.58984375 137.8953094482422 102.70663452148438 L135.9375 104.6640625 L135.9375 88.28125 L151.5300750732422 88.28125 L151.5300750732422 94.53125 C151.5300750732422 96.111328125 152.4816436767578 97.5355453491211 153.94140625 98.1402359008789 C154.4246063232422 98.34024047851562 154.93243408203125 98.4375 155.435546875 98.4375 C156.4523468017578 98.4375 157.451171875 98.04061889648438 158.1984405517578 97.2933578491211 L183.1984405517578 72.2933578491211 C184.7238311767578 70.7679672241211 184.7238311767578 68.2945327758789 183.1984405517578 66.76875305175781 L158.1984405517578 41.76875305175781 C157.08123779296875 40.65155792236328 155.40077209472656 40.317962646484375 153.94140625 40.921878814697266 C152.48202514648438 41.52656173706055 151.5300750732422 42.95078659057617 151.5300750732422 44.53085708618164 L151.5300750732422 50.78085708618164 L135.9375 50.78085708618164 L135.9375 19.53125 C135.9375 8.76171875 127.17578125 0.0 116.40625 0.0 L19.53125 0.0 C8.76171875 0.0 0.0 8.76171875 0.0 19.53125 L0.0 180.46875 C0.0 191.23828125 8.76171875 200.0 19.53125 200.0 L116.40625 200.0 C127.17578125 200.0 135.9375 191.23828125 135.9375 180.46875 L135.9375 156.2734375 L137.8953094482422 158.2312469482422 C138.642578125 158.978515625 139.6417999267578 159.37539672851562 140.658203125 159.37539672851562 C141.16131591796875 159.37539672851562 141.6691436767578 159.27813720703125 142.15234375 159.078125 C143.61172485351562 158.4734344482422 144.5636749267578 157.04920959472656 144.5636749267578 155.46914672851562 L144.5636749267578 149.21914672851562 L196.09375 149.21914672851562 C198.25079345703125 149.21914672851562 200.0 147.4699249267578 200.0 145.31289672851562 L200.0 115.62539672851562 C200.0 113.46797180175781 198.25079345703125 111.71875 196.09375 111.71875 Z M128.125 112.4765625 L118.75 121.8515625 L118.75 88.28125 L128.125 88.28125 L128.125 112.4765625 Z M155.4363250732422 58.59375 C157.59375 58.59375 159.3425750732422 56.84492111206055 159.3425750732422 54.6875 L159.3425750732422 53.96211242675781 L174.91171264648438 69.53125 L159.3425750732422 85.10038757324219 L159.3425750732422 84.375 C159.3425750732422 82.21758270263672 157.59375 80.46875 155.4363250732422 80.46875 L103.90625 80.46875 L103.90625 58.59375 L155.4363250732422 58.59375 Z M128.125 180.46875 C128.125 186.9304656982422 122.86796569824219 192.1875 116.40625 192.1875 L19.53125 192.1875 C13.069534301757812 192.1875 7.8125 186.9304656982422 7.8125 180.46875 L7.8125 19.53125 C7.8125 13.069534301757812 13.069534301757812 7.8125 19.53125 7.8125 L116.40625 7.8125 C122.86796569824219 7.8125 128.125 13.069534301757812 128.125 19.53125 L128.125 50.78125 L118.75 50.78125 L118.75 35.15625 C118.75 32.99921417236328 117.00077819824219 31.25 114.84375 31.25 L21.09375 31.25 C18.93633270263672 31.25 17.1875 32.99921417236328 17.1875 35.15625 L17.1875 82.421875 C17.1875 84.57929229736328 18.93633270263672 86.328125 21.09375 86.328125 C23.25116729736328 86.328125 25.0 84.57929229736328 25.0 82.421875 L25.0 39.0625 L110.9375 39.0625 L110.9375 50.78125 L100.0 50.78125 C97.84258270263672 50.78125 96.09375 52.53007888793945 96.09375 54.6875 L96.09375 84.375 C96.09375 86.53241729736328 97.84258270263672 88.28125 100.0 88.28125 L110.9375 88.28125 L110.9375 160.9375 L25.0 160.9375 L25.0 117.578125 C25.0 115.42109680175781 23.25116729736328 113.671875 21.09375 113.671875 C18.93633270263672 113.671875 17.1875 115.42109680175781 17.1875 117.578125 L17.1875 164.84375 C17.1875 167.00079345703125 18.93633270263672 168.75 21.09375 168.75 L114.84375 168.75 C117.00077819824219 168.75 118.75 167.00079345703125 118.75 164.84375 L118.75 139.0859375 L128.125 148.4609375 L128.125 180.46875 Z M192.1875 141.40625 L140.6574249267578 141.40625 C138.5 141.40625 136.7511749267578 143.1554718017578 136.7511749267578 145.3125 L136.7511749267578 146.0378875732422 L121.18203735351562 130.46875 L136.7511749267578 114.89961242675781 L136.7511749267578 115.625 C136.7511749267578 117.78202819824219 138.5 119.53125 140.6574249267578 119.53125 L192.1875 119.53125 L192.1875 141.40625 Z"></path>
<path fill="" fill-opacity="1.0"  filling="0" d="M21.09375 103.90625 C22.12109375 103.90625 23.12890625 103.48828125 23.85546875 102.7613296508789 C24.58203125 102.03515625 25.0 101.02734375 25.0 100.0 C25.0 98.97265625 24.58203125 97.96484375 23.85546875 97.23828125 C23.12890625 96.51171875 22.12109375 96.09375 21.09375 96.09375 C20.06640625 96.09375 19.05859375 96.5113296508789 18.33203125 97.23828125 C17.60546875 97.96484375 17.1875 98.97265625 17.1875 100.0 C17.1875 101.02734375 17.60546875 102.03515625 18.33203125 102.7613296508789 C19.05859375 103.48828125 20.06640625 103.90625 21.09375 103.90625 Z"></path></svg>