<svg xmlns="http://www.w3.org/2000/svg" viewBox="0.0 0.0 200.0 200.0" height="200.0px" width="200.0px"><path fill="#eebb2c" fill-opacity="1.0"  filling="0" d="M127.34375 176.171875 L14.0625 176.171875 C6.5124969482421875 176.171875 0.390625 170.0500030517578 0.390625 162.5 L0.390625 13.671875 C0.390625 6.1218719482421875 6.5124969482421875 0.0 14.0625 0.0 L127.34375 0.0 C134.8937530517578 0.0 141.015625 6.1218719482421875 141.015625 13.671875 L141.015625 162.5 C141.015625 170.0500030517578 134.8937530517578 176.171875 127.34375 176.171875 Z"></path>
<path fill="#e79b34" fill-opacity="1.0"  filling="0" d="M127.34375 0.0 L70.703125 0.0 L70.703125 176.171875 L127.34375 176.171875 C134.8937530517578 176.171875 141.015625 170.0500030517578 141.015625 162.5 L141.015625 13.671875 C141.015625 6.1218719482421875 134.8937530517578 0.0 127.34375 0.0 Z"></path>
<path fill="#dd5c60" fill-opacity="1.0"  filling="0" d="M111.71875 47.265625 L53.125 47.265625 C49.888671875 47.265625 47.265625 44.642578125 47.265625 41.40625 C47.265625 38.169921875 49.888671875 35.546875 53.125 35.546875 L111.71875 35.546875 C114.955078125 35.546875 117.578125 38.169921875 117.578125 41.40625 C117.578125 44.642578125 114.955078125 47.265625 111.71875 47.265625 Z"></path>
<path fill="#dd5c60" fill-opacity="1.0"  filling="0" d="M111.71875 70.703125 L53.125 70.703125 C49.888671875 70.703125 47.265625 68.080078125 47.265625 64.84375 C47.265625 61.607421875 49.888671875 58.984375 53.125 58.984375 L111.71875 58.984375 C114.955078125 58.984375 117.578125 61.607421875 117.578125 64.84375 C117.578125 68.080078125 114.955078125 70.703125 111.71875 70.703125 Z"></path>
<path fill="#dd5c60" fill-opacity="1.0"  filling="0" d="M111.71875 94.140625 L53.125 94.140625 C49.888671875 94.140625 47.265625 91.517578125 47.265625 88.28125 C47.265625 85.044921875 49.888671875 82.421875 53.125 82.421875 L111.71875 82.421875 C114.955078125 82.421875 117.578125 85.044921875 117.578125 88.28125 C117.578125 91.517578125 114.955078125 94.140625 111.71875 94.140625 Z"></path>
<path fill="#dd5c60" fill-opacity="1.0"  filling="0" d="M111.71875 117.578125 L53.125 117.578125 C49.888671875 117.578125 47.265625 114.955078125 47.265625 111.71875 C47.265625 108.482421875 49.888671875 105.859375 53.125 105.859375 L111.71875 105.859375 C114.955078125 105.859375 117.578125 108.482421875 117.578125 111.71875 C117.578125 114.955078125 114.955078125 117.578125 111.71875 117.578125 Z"></path>
<path fill="#dd5c60" fill-opacity="1.0"  filling="0" d="M35.546875 41.40625 C35.546875 44.642578125 32.923828125 47.265625 29.6875 47.265625 C26.451171875 47.265625 23.828125 44.642578125 23.828125 41.40625 C23.828125 38.169921875 26.451171875 35.546875 29.6875 35.546875 C32.923828125 35.546875 35.546875 38.169921875 35.546875 41.40625 Z"></path>
<path fill="#dd5c60" fill-opacity="1.0"  filling="0" d="M35.546875 64.84375 C35.546875 68.080078125 32.923828125 70.703125 29.6875 70.703125 C26.451171875 70.703125 23.828125 68.080078125 23.828125 64.84375 C23.828125 61.607421875 26.451171875 58.984375 29.6875 58.984375 C32.923828125 58.984375 35.546875 61.607421875 35.546875 64.84375 Z"></path>
<path fill="#dd5c60" fill-opacity="1.0"  filling="0" d="M35.546875 88.28125 C35.546875 91.517578125 32.923828125 94.140625 29.6875 94.140625 C26.451171875 94.140625 23.828125 91.517578125 23.828125 88.28125 C23.828125 85.044921875 26.451171875 82.421875 29.6875 82.421875 C32.923828125 82.421875 35.546875 85.044921875 35.546875 88.28125 Z"></path>
<path fill="#dd5c60" fill-opacity="1.0"  filling="0" d="M35.546875 111.71875 C35.546875 114.955078125 32.923828125 117.578125 29.6875 117.578125 C26.451171875 117.578125 23.828125 114.955078125 23.828125 111.71875 C23.828125 108.482421875 26.451171875 105.859375 29.6875 105.859375 C32.923828125 105.859375 35.546875 108.482421875 35.546875 111.71875 Z"></path>
<path fill="#dd5c60" fill-opacity="1.0"  filling="0" d="M100.0 141.015625 L53.125 141.015625 C49.888671875 141.015625 47.265625 138.392578125 47.265625 135.15625 C47.265625 131.919921875 49.888671875 129.296875 53.125 129.296875 L100.0 129.296875 C103.236328125 129.296875 105.859375 131.919921875 105.859375 135.15625 C105.859375 138.392578125 103.236328125 141.015625 100.0 141.015625 Z"></path>
<path fill="#d8333c" fill-opacity="1.0"  filling="0" d="M117.578125 41.40625 C117.578125 44.64101791381836 114.95352172851562 47.265625 111.71875 47.265625 L70.703125 47.265625 L70.703125 35.546875 L111.71875 35.546875 C114.95352172851562 35.546875 117.578125 38.17148208618164 117.578125 41.40625 Z"></path>
<path fill="#d8333c" fill-opacity="1.0"  filling="0" d="M117.578125 64.84375 C117.578125 68.07852172851562 114.95352172851562 70.703125 111.71875 70.703125 L70.703125 70.703125 L70.703125 58.984375 L111.71875 58.984375 C114.95352172851562 58.984375 117.578125 61.60898208618164 117.578125 64.84375 Z"></path>
<path fill="#d8333c" fill-opacity="1.0"  filling="0" d="M117.578125 88.28125 C117.578125 91.51602172851562 114.95352172851562 94.140625 111.71875 94.140625 L70.703125 94.140625 L70.703125 82.421875 L111.71875 82.421875 C114.95352172851562 82.421875 117.578125 85.04647827148438 117.578125 88.28125 Z"></path>
<path fill="#d8333c" fill-opacity="1.0"  filling="0" d="M117.578125 111.71875 C117.578125 114.95352172851562 114.95352172851562 117.578125 111.71875 117.578125 L70.703125 117.578125 L70.703125 105.859375 L111.71875 105.859375 C114.95352172851562 105.859375 117.578125 108.48397827148438 117.578125 111.71875 Z"></path>
<path fill="#d8333c" fill-opacity="1.0"  filling="0" d="M105.859375 135.15625 C105.859375 138.39102172851562 103.23477172851562 141.015625 100.0 141.015625 L70.703125 141.015625 L70.703125 129.296875 L100.0 129.296875 C103.23477172851562 129.296875 105.859375 131.92147827148438 105.859375 135.15625 Z"></path>
<path fill="#dd5c60" fill-opacity="1.0"  filling="0" d="M35.546875 135.15625 C35.546875 138.392578125 32.923828125 141.015625 29.6875 141.015625 C26.451171875 141.015625 23.828125 138.392578125 23.828125 135.15625 C23.828125 131.919921875 26.451171875 129.296875 29.6875 129.296875 C32.923828125 129.296875 35.546875 131.919921875 35.546875 135.15625 Z"></path>
<path fill="#7280f8" fill-opacity="1.0"  filling="0" d="M146.875 200.0 C117.79766082763672 200.0 94.140625 176.34295654296875 94.140625 147.265625 C94.140625 118.18828582763672 117.79766082763672 94.53125 146.875 94.53125 C175.95233154296875 94.53125 199.609375 118.18828582763672 199.609375 147.265625 C199.609375 176.34295654296875 175.95233154296875 200.0 146.875 200.0 Z"></path>
<path fill="#434af2" fill-opacity="1.0"  filling="0" d="M146.875 94.53125 L146.875 200.0 C175.95352172851562 200.0 199.609375 176.34414672851562 199.609375 147.265625 C199.609375 118.18710327148438 175.95352172851562 94.53125 146.875 94.53125 Z"></path>
<path fill="#d6f3fe" fill-opacity="1.0"  filling="0" d="M146.875 188.28125 C124.25859069824219 188.28125 105.859375 169.8820343017578 105.859375 147.265625 C105.859375 124.64921569824219 124.25859069824219 106.25 146.875 106.25 C169.4914093017578 106.25 187.890625 124.64921569824219 187.890625 147.265625 C187.890625 169.8820343017578 169.4914093017578 188.28125 146.875 188.28125 Z"></path>
<path fill="#bdecfc" fill-opacity="1.0"  filling="0" d="M187.890625 147.265625 C187.890625 169.8820343017578 169.4914093017578 188.28125 146.875 188.28125 L146.875 106.25 C169.4914093017578 106.25 187.890625 124.64921569824219 187.890625 147.265625 Z"></path>
<path fill="#7280f8" fill-opacity="1.0"  filling="0" d="M146.875 156.640625 L129.296875 156.640625 C126.060546875 156.640625 123.4375 154.017578125 123.4375 150.78125 C123.4375 147.544921875 126.060546875 144.921875 129.296875 144.921875 L141.015625 144.921875 L141.015625 127.34375 C141.015625 124.107421875 143.638671875 121.484375 146.875 121.484375 C150.111328125 121.484375 152.734375 124.107421875 152.734375 127.34375 L152.734375 150.78125 C152.734375 154.017578125 150.111328125 156.640625 146.875 156.640625 Z"></path>
<path fill="#434af2" fill-opacity="1.0"  filling="0" d="M152.734375 127.34375 L152.734375 150.78125 C152.734375 154.01602172851562 150.10977172851562 156.640625 146.875 156.640625 L146.875 121.484375 C150.10977172851562 121.484375 152.734375 124.10897827148438 152.734375 127.34375 Z"></path></svg>