<svg xmlns="http://www.w3.org/2000/svg" viewBox="0.0 0.0 200.0 200.0" height="200.0px" width="200.0px"><path fill="#eeefee" fill-opacity="1.0"  filling="0" d="M57.64053726196289 121.92972564697266 L68.09188842773438 121.92972564697266 L60.686485290527344 111.80000305175781 L57.64053726196289 111.80000305175781 A39.37567901611328 39.37567901611328 0.0 0 1 18.237838745117188 72.39730072021484 A3.305405616760254 3.305405616760254 0.0 0 1 21.524322509765625 69.0810775756836 L43.24324035644531 69.0810775756836 L39.037837982177734 58.951351165771484 L21.524322509765625 58.951351165771484 A13.445945739746094 13.445945739746094 0.0 0 0 8.108108520507812 72.39730072021484 A49.50811004638672 49.50811004638672 0.0 0 0 57.64053726196289 121.92972564697266 Z"></path>
<path fill="#323c6b" fill-opacity="1.0"  filling="0" d="M68.09458923339844 123.28107452392578 L57.64053726196289 123.28107452392578 A50.85946273803711 50.85946273803711 0.0 0 1 6.756752014160156 72.39730072021484 A14.800000190734863 14.800000190734863 0.0 0 1 21.524322509765625 57.599998474121094 L39.0405387878418 57.599998474121094 A1.3513513803482056 1.3513513803482056 0.0 0 1 40.289188385009766 58.43243408203125 L44.494590759277344 68.56216430664062 A1.3513513803482056 1.3513513803482056 0.0 0 1 43.24594497680664 70.43243408203125 L21.524322509765625 70.43243408203125 A1.9513514041900635 1.9513514041900635 0.0 0 0 19.589187622070312 72.39730072021484 A38.02432632446289 38.02432632446289 0.0 0 0 57.64053726196289 110.44865417480469 L60.686485290527344 110.44865417480469 A1.3513513803482056 1.3513513803482056 0.0 0 1 61.7675666809082 111.00270080566406 L69.18919372558594 121.13243103027344 A1.3513513803482056 1.3513513803482056 0.0 0 1 68.10810852050781 123.28107452392578 L68.09458923339844 123.28107452392578 Z M21.524322509765625 60.30540466308594 A12.09189224243164 12.09189224243164 0.0 0 0 9.459457397460938 72.39730072021484 A48.156761169433594 48.156761169433594 0.0 0 0 57.64053726196289 120.57837677001953 L65.43243408203125 120.57837677001953 L60.0 113.15135192871094 L57.64053726196289 113.15135192871094 A40.727027893066406 40.727027893066406 0.0 0 1 16.886489868164062 72.39730072021484 A4.65675687789917 4.65675687789917 0.0 0 1 21.524322509765625 67.72972869873047 L41.22161865234375 67.72972869873047 L38.13783645629883 60.302703857421875 L21.524322509765625 60.30540466308594 Z"></path>
<path fill="#eeefee" fill-opacity="1.0"  filling="0" d="M33.04594421386719 46.83513641357422 C31.36486053466797 78.64865112304688 50.932430267333984 115.52702331542969 78.69999694824219 135.27838134765625 L147.8189239501953 135.27838134765625 C175.58648681640625 115.52702331542969 195.154052734375 78.64865112304688 193.47296142578125 46.83513641357422 L33.04594421386719 46.83513641357422 Z"></path>
<path fill="#b98c6c" fill-opacity="1.0"  filling="0" d="M134.9486541748047 71.96756744384766 C141.39459228515625 80.31080627441406 136.87298583984375 94.5999984741211 124.85404968261719 103.88378143310547 C112.83513641357422 113.16757202148438 97.86756134033203 113.93242645263672 91.42432403564453 105.58918762207031 C84.9810791015625 97.24864196777344 89.50000762939453 82.95945739746094 101.5189208984375 73.67567443847656 C113.54053497314453 64.39189147949219 128.50540161132812 63.62702560424805 134.9486541748047 71.96756744384766 Z"></path>
<path fill="#9b715b" fill-opacity="1.0"  filling="0" d="M124.9270248413086 103.88648223876953 C112.90269470214844 113.1729736328125 97.9432373046875 113.93513488769531 91.47837829589844 105.5810775756836 A15.135135650634766 15.135135650634766 0.0 0 1 88.68378448486328 94.37567138671875 A12.702702522277832 12.702702522277832 0.0 0 0 90.32161712646484 97.1702651977539 C96.75675201416016 105.49729919433594 111.7459487915039 104.73783111572266 123.770263671875 95.44865417480469 A31.89189338684082 31.89189338684082 0.0 0 0 136.67027282714844 74.6729736328125 C140.4810791015625 83.13783264160156 135.74053955078125 95.52973175048828 124.9270248413086 103.88648223876953 Z"></path>
<path fill="#323c6b" fill-opacity="1.0"  filling="0" d="M96.55134582519531 102.39459991455078 A20.554054260253906 20.554054260253906 0.0 0 1 88.21891784667969 100.40811157226562 A1.3513513803482056 1.3513513803482056 0.0 1 1 89.31351470947266 97.93783569335938 A16.048648834228516 16.048648834228516 0.0 0 0 98.5729751586914 99.52433013916016 C103.45405578613281 98.63243103027344 107.01351928710938 94.5351333618164 110.52703094482422 90.06486511230469 C113.77027130126953 85.89459228515625 117.7837905883789 80.69729614257812 123.87837219238281 79.34324645996094 A22.54594612121582 22.54594612121582 0.0 0 1 138.43783569335938 82.18648529052734 A1.3513513803482056 1.3513513803482056 0.0 0 1 137.2486572265625 84.6189193725586 C131.94863891601562 82.01622009277344 128.01080322265625 81.20540618896484 124.46485900878906 81.98918914794922 C119.32972717285156 83.12973022460938 115.62973022460938 87.89999389648438 112.66217041015625 91.71891784667969 C108.81080627441406 96.62972259521484 104.87297821044922 101.12162780761719 99.04864501953125 102.18647766113281 A14.618919372558594 14.618919372558594 0.0 0 1 96.55134582519531 102.39459991455078 Z"></path>
<path fill="#eeefee" fill-opacity="1.0"  filling="0" d="M69.67027282714844 153.1648712158203 A21.30000114440918 21.30000114440918 0.0 0 1 78.69999694824219 135.27838134765625 L147.8189239501953 135.27838134765625 A21.30000114440918 21.30000114440918 0.0 0 1 156.84864807128906 153.1648712158203 L69.67027282714844 153.1648712158203 Z"></path>
<path fill="#e1e6e9" fill-opacity="1.0"  filling="0" d="M147.81080627441406 135.270263671875 L137.9729766845703 135.270263671875 C165.729736328125 115.54054260253906 185.29730224609375 78.64865112304688 183.6216278076172 46.83783721923828 L193.48648071289062 46.83783721923828 C195.16217041015625 78.64865112304688 175.5946044921875 115.54054260253906 147.81080627441406 135.270263671875 Z"></path>
<path fill="#e1e6e9" fill-opacity="1.0"  filling="0" d="M156.83782958984375 153.1621551513672 L147.0 153.1621551513672 A21.329730987548828 21.329730987548828 0.0 0 0 137.9729766845703 135.270263671875 L147.81080627441406 135.270263671875 A21.262163162231445 21.262163162231445 0.0 0 1 156.83782958984375 153.1621551513672 Z"></path>
<path fill="#323c6b" fill-opacity="1.0"  filling="0" d="M173.90811157226562 123.11080932617188 A1.3513513803482056 1.3513513803482056 0.0 0 1 172.9053955078125 120.88108825683594 C173.2513427734375 120.50270080566406 173.5513458251953 120.17837524414062 173.84054565429688 119.84053802490234 A1.3513513803482056 1.3513513803482056 0.0 1 1 175.89459228515625 121.59730529785156 C175.58648681640625 121.95945739746094 175.26486206054688 122.30811309814453 174.9432373046875 122.65675354003906 A1.4081082344055176 1.4081082344055176 0.0 0 1 173.90811157226562 123.11080932617188 Z"></path>
<path fill="#323c6b" fill-opacity="1.0"  filling="0" d="M178.34864807128906 117.56756591796875 A1.3513513803482056 1.3513513803482056 0.0 0 1 177.26756286621094 115.40541076660156 A126.37297058105469 126.37297058105469 0.0 0 0 187.90811157226562 98.37837982177734 A1.3513513803482056 1.3513513803482056 0.0 1 1 190.31082153320312 99.6189193725586 A129.13243103027344 129.13243103027344 0.0 0 1 179.43783569335938 117.02702331542969 A1.3513513803482056 1.3513513803482056 0.0 0 1 178.34864807128906 117.56756591796875 Z"></path>
<path fill="#323c6b" fill-opacity="1.0"  filling="0" d="M66.0972900390625 40.07837677001953 L64.29459381103516 40.07837677001953 A1.3513513803482056 1.3513513803482056 0.0 0 1 64.29459381103516 37.375675201416016 L66.0972900390625 37.375675201416016 A1.3513513803482056 1.3513513803482056 0.0 0 1 66.0972900390625 40.07837677001953 Z"></path>
<path fill="#323c6b" fill-opacity="1.0"  filling="0" d="M56.75675582885742 40.07837677001953 L35.24053955078125 40.07837677001953 A1.3513513803482056 1.3513513803482056 0.0 0 1 35.24053955078125 37.375675201416016 L56.75675582885742 37.375675201416016 A1.3513513803482056 1.3513513803482056 0.0 0 1 56.75675582885742 40.07837677001953 Z"></path>
<path fill="#323c6b" fill-opacity="1.0"  filling="0" d="M147.8189239501953 136.62973022460938 L78.69999694824219 136.62973022460938 A1.3513513803482056 1.3513513803482056 0.0 0 1 77.91621398925781 136.3783721923828 C49.45945739746094 116.14054107666016 30.021621704101562 78.45135498046875 31.694595336914062 46.756752014160156 A1.3513513803482056 1.3513513803482056 0.0 0 1 33.04594421386719 45.47567367553711 L193.47296142578125 45.47567367553711 A1.3513513803482056 1.3513513803482056 0.0 0 1 194.82432556152344 46.756752014160156 C196.497314453125 78.4459457397461 177.0567626953125 116.13243865966797 148.6081085205078 136.37026977539062 A1.3513513803482056 1.3513513803482056 0.0 0 1 147.8189239501953 136.62973022460938 Z M79.13243103027344 133.92703247070312 L147.38648986816406 133.92703247070312 C174.56756591796875 114.40270233154297 193.22161865234375 78.6162109375 192.18109130859375 48.186485290527344 L34.34324645996094 48.186485290527344 C33.29729461669922 78.61351013183594 51.951351165771484 114.40270233154297 79.13243103027344 133.92703247070312 Z"></path>
<path fill="#323c6b" fill-opacity="1.0"  filling="0" d="M156.84864807128906 154.51622009277344 L69.67027282714844 154.51622009277344 A1.3513513803482056 1.3513513803482056 0.0 0 1 68.31891632080078 153.1648712158203 A22.610811233520508 22.610811233520508 0.0 0 1 77.91891479492188 134.17567443847656 A1.3513513803482056 1.3513513803482056 0.0 0 1 78.69999694824219 133.92703247070312 L147.8189239501953 133.92703247070312 A1.3513513803482056 1.3513513803482056 0.0 0 1 148.60000610351562 134.17567443847656 A22.61351203918457 22.61351203918457 0.0 0 1 158.1999969482422 153.1648712158203 A1.3513513803482056 1.3513513803482056 0.0 0 1 156.84864807128906 154.51622009277344 Z M71.05945587158203 151.8135223388672 L155.45945739746094 151.8135223388672 A19.829729080200195 19.829729080200195 0.0 0 0 147.38107299804688 136.62973022460938 L79.1378402709961 136.62973022460938 A19.83243179321289 19.83243179321289 0.0 0 0 71.05945587158203 151.8135223388672 Z"></path>
<path fill="#323c6b" fill-opacity="1.0"  filling="0" d="M104.86486053466797 112.70270538330078 A17.659460067749023 17.659460067749023 0.0 0 1 90.4189224243164 106.4189224243164 A17.983783721923828 17.983783721923828 0.0 0 1 88.32162475585938 89.57568359375 A35.710811614990234 35.710811614990234 0.0 0 1 100.7540512084961 72.59459686279297 C113.34864807128906 62.864864349365234 129.20269775390625 62.205406188964844 136.09458923339844 71.12702941894531 C142.98648071289062 80.04864501953125 138.345947265625 95.22432708740234 125.7540512084961 104.95405578613281 A35.08378601074219 35.08378601074219 0.0 0 1 104.86486053466797 112.70270538330078 Z M121.67027282714844 67.5 A32.513511657714844 32.513511657714844 0.0 0 0 102.41080474853516 74.73242950439453 A32.99729537963867 32.99729537963867 0.0 0 0 90.89729309082031 90.39189147949219 A15.381081581115723 15.381081581115723 0.0 0 0 92.55675506591797 104.76757049560547 C98.53783416748047 112.50810241699219 112.69188690185547 111.63513946533203 124.10540008544922 102.81351470947266 C135.52162170410156 93.99459075927734 139.94053649902344 80.5189208984375 133.95945739746094 72.77837371826172 A15.000000953674316 15.000000953674316 0.0 0 0 121.67027282714844 67.48918914794922 L121.67027282714844 67.5 Z"></path></svg>