<svg xmlns="http://www.w3.org/2000/svg" viewBox="0.0 0.0 200.0 200.0" height="200.0px" width="200.0px"><path fill="#95573a" fill-opacity="1.0"  filling="0" d="M15.625 9.375 L184.375 9.375 L184.375 190.625 L15.625 190.625 L15.625 9.375 Z"></path>
<path fill="#6a7073" fill-opacity="1.0"  filling="0" d="M121.875 178.125 L159.375 178.125 L159.375 190.625 L121.875 190.625 L121.875 178.125 Z"></path>
<path fill="#7e8589" fill-opacity="1.0"  filling="0" d="M121.875 165.625 L159.375 165.625 L159.375 178.125 L121.875 178.125 L121.875 165.625 Z"></path>
<path fill="#e9eef2" fill-opacity="1.0"  filling="0" d="M121.875 109.375 L159.375 109.375 L159.375 165.625 L121.875 165.625 L121.875 109.375 Z"></path>
<path fill="#6ed2f0" fill-opacity="1.0"  filling="0" d="M28.125 115.625 L84.375 115.625 L84.375 165.625 L28.125 165.625 L28.125 115.625 Z"></path>
<path fill="#6ed2f0" fill-opacity="1.0"  filling="0" d="M28.125 21.875 L46.875 21.875 L46.875 71.875 L28.125 71.875 L28.125 21.875 Z"></path>
<path fill="#6ed2f0" fill-opacity="1.0"  filling="0" d="M59.375 21.875 L78.125 21.875 L78.125 71.875 L59.375 71.875 L59.375 21.875 Z"></path>
<path fill="#6ed2f0" fill-opacity="1.0"  filling="0" d="M90.625 21.875 L109.375 21.875 L109.375 71.875 L90.625 71.875 L90.625 21.875 Z"></path>
<path fill="#6ed2f0" fill-opacity="1.0"  filling="0" d="M121.875 21.875 L140.625 21.875 L140.625 71.875 L121.875 71.875 L121.875 21.875 Z"></path>
<path fill="#6ed2f0" fill-opacity="1.0"  filling="0" d="M153.125 21.875 L171.875 21.875 L171.875 71.875 L153.125 71.875 L153.125 21.875 Z"></path>
<path fill="#f79539" fill-opacity="1.0"  filling="0" d="M96.875 109.375 L109.375 109.375 L109.375 178.125 L96.875 178.125 L96.875 109.375 Z"></path>
<path fill="#fbb06a" fill-opacity="1.0"  filling="0" d="M109.375 109.375 L96.875 109.375 L93.75 96.875 L112.5 96.875 L109.375 109.375 Z"></path>
<path fill="#75452e" fill-opacity="1.0"  filling="0" d="M12.5 84.375 L187.5 84.375 L187.5 96.875 L12.5 96.875 L12.5 84.375 Z"></path>
<path fill="#fbb06a" fill-opacity="1.0"  filling="0" d="M112.5 190.625 L93.75 190.625 L96.875 178.125 L109.375 178.125 L112.5 190.625 Z"></path>
<path fill="#f79539" fill-opacity="1.0"  filling="0" d="M171.875 109.375 L184.375 109.375 L184.375 178.125 L171.875 178.125 L171.875 109.375 Z"></path>
<path fill="#fbb06a" fill-opacity="1.0"  filling="0" d="M184.375 109.375 L171.875 109.375 L168.75 96.875 L187.5 96.875 L184.375 109.375 Z"></path>
<path fill="#fbb06a" fill-opacity="1.0"  filling="0" d="M187.5 190.625 L168.75 190.625 L171.875 178.125 L184.375 178.125 L187.5 190.625 Z"></path>
<path fill="#248cab" fill-opacity="1.0"  filling="0" d="M37.5 128.125 L56.25 128.125 L56.25 140.625 L37.5 140.625 L37.5 128.125 Z"></path>
<path fill="#248cab" fill-opacity="1.0"  filling="0" d="M71.875 128.125 L84.375 128.125 L84.375 140.625 L71.875 140.625 L71.875 128.125 Z"></path>
<path fill="" fill-opacity="1.0"  filling="0" d="M84.375 112.5 L28.125 112.5 A3.125 3.125 0.0 0 0 25.0 115.625 L25.0 165.625 A3.125 3.125 0.0 0 0 28.125 168.75 L84.375 168.75 A3.125 3.125 0.0 0 0 87.5 165.625 L87.5 115.625 A3.125 3.125 0.0 0 0 84.375 112.5 Z M75.0 150.0 A3.125 3.125 0.0 0 0 75.0 156.25 L81.25 156.25 L81.25 162.5 L31.25 162.5 L31.25 118.75 L81.25 118.75 L81.25 125.0 L71.875 125.0 A3.125 3.125 0.0 0 0 68.75 128.125 L68.75 140.625 A3.125 3.125 0.0 0 0 71.875 143.75 L81.25 143.75 L81.25 150.0 L75.0 150.0 Z M81.25 131.25 L81.25 137.5 L75.0 137.5 L75.0 131.25 L81.25 131.25 Z"></path>
<path fill="" fill-opacity="1.0"  filling="0" d="M46.875 18.75 L28.125 18.75 A3.125 3.125 0.0 0 0 25.0 21.875 L25.0 71.875 A3.125 3.125 0.0 0 0 28.125 75.0 L46.875 75.0 A3.125 3.125 0.0 0 0 50.0 71.875 L50.0 21.875 A3.125 3.125 0.0 0 0 46.875 18.75 Z M43.75 68.75 L31.25 68.75 L31.25 25.0 L43.75 25.0 L43.75 68.75 Z"></path>
<path fill="" fill-opacity="1.0"  filling="0" d="M78.125 18.75 L59.375 18.75 A3.125 3.125 0.0 0 0 56.25 21.875 L56.25 71.875 A3.125 3.125 0.0 0 0 59.375 75.0 L78.125 75.0 A3.125 3.125 0.0 0 0 81.25 71.875 L81.25 21.875 A3.125 3.125 0.0 0 0 78.125 18.75 Z M75.0 68.75 L62.5 68.75 L62.5 25.0 L75.0 25.0 L75.0 68.75 Z"></path>
<path fill="" fill-opacity="1.0"  filling="0" d="M109.375 18.75 L90.625 18.75 A3.125 3.125 0.0 0 0 87.5 21.875 L87.5 71.875 A3.125 3.125 0.0 0 0 90.625 75.0 L109.375 75.0 A3.125 3.125 0.0 0 0 112.5 71.875 L112.5 21.875 A3.125 3.125 0.0 0 0 109.375 18.75 Z M106.25 68.75 L93.75 68.75 L93.75 25.0 L106.25 25.0 L106.25 68.75 Z"></path>
<path fill="" fill-opacity="1.0"  filling="0" d="M140.625 18.75 L121.875 18.75 A3.125 3.125 0.0 0 0 118.75 21.875 L118.75 71.875 A3.125 3.125 0.0 0 0 121.875 75.0 L140.625 75.0 A3.125 3.125 0.0 0 0 143.75 71.875 L143.75 21.875 A3.125 3.125 0.0 0 0 140.625 18.75 Z M137.5 68.75 L125.0 68.75 L125.0 25.0 L137.5 25.0 L137.5 68.75 Z"></path>
<path fill="" fill-opacity="1.0"  filling="0" d="M171.875 18.75 L153.125 18.75 A3.125 3.125 0.0 0 0 150.0 21.875 L150.0 71.875 A3.125 3.125 0.0 0 0 153.125 75.0 L171.875 75.0 A3.125 3.125 0.0 0 0 175.0 71.875 L175.0 21.875 A3.125 3.125 0.0 0 0 171.875 18.75 Z M168.75 68.75 L156.25 68.75 L156.25 25.0 L168.75 25.0 L168.75 68.75 Z"></path>
<path fill="" fill-opacity="1.0"  filling="0" d="M187.5 81.25 L187.5 9.375 A3.125 3.125 0.0 0 0 184.375 6.25 L15.625 6.25 A3.125 3.125 0.0 0 0 12.5 9.375 L12.5 81.25 A3.125 3.125 0.0 0 0 9.375 84.375 L9.375 96.875 A3.125 3.125 0.0 0 0 12.5 100.0 L12.5 190.625 A3.125 3.125 0.0 0 0 15.625 193.75 L187.5 193.75 A3.125 3.125 0.0 0 0 190.53163146972656 189.8671875 L187.5 177.740234375 L187.5 109.75975799560547 L190.53163146972656 97.6328125 L190.52890014648438 97.6328125 A3.125 3.125 0.0 0 0 190.625 96.875 L190.625 84.375 A3.125 3.125 0.0 0 0 187.5 81.25 Z M175.0 175.0 L175.0 112.5 L181.25 112.5 L181.25 175.0 L175.0 175.0 Z M156.25 162.5 L143.75 162.5 L143.75 112.5 L156.25 112.5 L156.25 162.5 Z M137.5 162.5 L125.0 162.5 L125.0 112.5 L137.5 112.5 L137.5 162.5 Z M125.0 168.75 L156.25 168.75 L156.25 175.0 L125.0 175.0 L125.0 168.75 Z M125.0 181.25 L156.25 181.25 L156.25 187.5 L125.0 187.5 L125.0 181.25 Z M159.375 106.25 L121.875 106.25 A3.125 3.125 0.0 0 0 118.75 109.375 L118.75 187.5 L114.9398422241211 187.5 L112.5 177.740234375 L112.5 109.75975799560547 L114.9398422241211 100.0 L166.31015014648438 100.0 L168.75 109.75975799560547 L168.75 177.740234375 L166.31015014648438 187.5 L162.5 187.5 L162.5 109.375 A3.125 3.125 0.0 0 0 159.375 106.25 Z M106.25 175.0 L100.0 175.0 L100.0 112.5 L106.25 112.5 L106.25 175.0 Z M106.9351577758789 106.25 L99.3148422241211 106.25 L97.7523422241211 100.0 L108.4976577758789 100.0 L106.9351577758789 106.25 Z M99.3148422241211 181.25 L106.9351577758789 181.25 L108.4976577758789 187.5 L97.7523422241211 187.5 L99.3148422241211 181.25 Z M174.31484985351562 106.25 L172.75234985351562 100.0 L183.49765014648438 100.0 L181.93515014648438 106.25 L174.31484985351562 106.25 Z M184.375 93.75 L15.625 93.75 L15.625 87.5 L184.375 87.5 L184.375 93.75 Z M18.75 12.5 L181.25 12.5 L181.25 81.25 L18.75 81.25 L18.75 12.5 Z M18.75 100.0 L91.3101577758789 100.0 L93.75 109.75975799560547 L93.75 177.740234375 L91.3101577758789 187.5 L18.75 187.5 L18.75 100.0 Z M172.75234985351562 187.5 L174.31484985351562 181.25 L181.93515014648438 181.25 L183.49765014648438 187.5 L172.75234985351562 187.5 Z"></path>
<path fill="" fill-opacity="1.0"  filling="0" d="M53.125 125.0 L40.625 125.0 A3.125 3.125 0.0 0 0 37.5 128.125 L37.5 140.625 A3.125 3.125 0.0 0 0 40.625 143.75 L53.125 143.75 A3.125 3.125 0.0 0 0 56.25 140.625 L56.25 128.125 A3.125 3.125 0.0 0 0 53.125 125.0 Z M50.0 137.5 L43.75 137.5 L43.75 131.25 L50.0 131.25 L50.0 137.5 Z"></path>
<path fill="" fill-opacity="1.0"  filling="0" d="M50.0 150.0 L43.75 150.0 A3.125 3.125 0.0 0 0 43.75 156.25 L50.0 156.25 A3.125 3.125 0.0 0 0 50.0 150.0 Z"></path></svg>