<svg xmlns="http://www.w3.org/2000/svg" viewBox="0.0 0.0 200.0 200.0" height="200.0px" width="200.0px"><path fill="#ffd0c7" fill-opacity="1.0"  filling="0" d="M182.3679656982422 77.23711395263672 C182.3679656982422 91.17422485351562 178.3828125 104.23554229736328 171.48593139648438 115.36133575439453 C153.728515625 144.005859375 152.609375 163.43594360351562 154.74920654296875 196.09375 L89.1332015991211 196.09375 C87.5210952758789 171.49298095703125 85.087890625 169.6867218017578 58.919925689697266 169.6867218017578 C47.80781173706055 169.6867218017578 38.71601867675781 160.69451904296875 38.71601867675781 149.7039031982422 L38.71601867675781 125.26836395263672 C18.828514099121094 125.26836395263672 12.512893676757812 116.35078430175781 21.90937042236328 103.25859832763672 C26.459373474121094 96.91874694824219 34.08319854736328 85.1246109008789 34.08319854736328 77.2367172241211 C34.08319854736328 36.904685974121094 67.447265625 3.90625 108.22539520263672 3.90625 C149.00428771972656 3.90625 182.3679656982422 36.90507507324219 182.3679656982422 77.23711395263672 Z"></path>
<path fill="#8690af" fill-opacity="1.0"  filling="0" d="M134.14413452148438 52.14140319824219 C136.36758422851562 60.072654724121094 131.7410125732422 68.3046875 123.80976867675781 70.52851104736328 C115.87850952148438 72.751953125 107.6460952758789 68.1253890991211 105.42265319824219 60.19414138793945 C103.1988296508789 52.26288986206055 107.8257827758789 44.03046798706055 115.75703430175781 41.807029724121094 C123.68827819824219 39.58320617675781 131.92031860351562 44.21015930175781 134.14413452148438 52.14140319824219 Z"></path>
<path fill="#fff" fill-opacity="1.0"  filling="0" d="M84.59844207763672 56.23164367675781 C91.61640167236328 44.55624771118164 104.73204040527344 36.70039367675781 119.75468444824219 36.70039367675781 C134.77734375 36.70039367675781 147.89295959472656 44.55624771118164 154.9109344482422 56.23164367675781 C147.89295959472656 67.90702819824219 134.77774047851562 75.76289367675781 119.75468444824219 75.76289367675781 C104.73204040527344 75.76289367675781 91.61640167236328 67.90702819824219 84.59844207763672 56.23164367675781 Z M104.8421859741211 56.23164367675781 C104.8421859741211 64.46757507324219 111.51875305175781 71.1441421508789 119.75468444824219 71.1441421508789 C127.99063110351562 71.1441421508789 134.66717529296875 64.46757507324219 134.66717529296875 56.23164367675781 C134.66717529296875 47.995704650878906 127.99063110351562 41.31914520263672 119.75468444824219 41.31914520263672 C111.51875305175781 41.31914520263672 104.8421859741211 47.995704650878906 104.8421859741211 56.23164367675781 Z"></path>
<path fill="#cff5fd" fill-opacity="1.0"  filling="0" d="M119.75508117675781 91.388671875 C121.91055297851562 91.388671875 128.92733764648438 99.2230453491211 128.92733764648438 105.25077819824219 C128.92733764648438 110.2421875 124.78241729736328 114.5152359008789 119.75508117675781 114.49608612060547 C114.72773742675781 114.5152359008789 110.58281707763672 110.2421875 110.58281707763672 105.25077819824219 C110.58281707763672 99.2230453491211 117.599609375 91.388671875 119.75508117675781 91.388671875 Z"></path>
<path fill="" fill-opacity="1.0"  filling="0" d="M163.3351593017578 22.669921875 C148.55508422851562 8.05078125 128.9832000732422 0.0 108.22539520263672 0.0 C87.46797180175781 0.0 67.89608764648438 8.05078125 53.115238189697266 22.669921875 C38.32304382324219 37.30000305175781 30.176559448242188 56.67890930175781 30.176559448242188 77.23711395263672 C30.176559448242188 82.19609069824219 26.006637573242188 90.85038757324219 18.73554229736328 100.98124694824219 C12.341400146484375 109.8902359008789 13.225784301757812 116.09921264648438 15.09375 119.73944854736328 C17.106643676757812 123.662109375 22.17852020263672 128.271484375 34.80937194824219 129.0578155517578 L34.80937194824219 149.7039031982422 C34.80937194824219 162.87655639648438 45.625 173.5929718017578 58.919532775878906 173.5929718017578 C71.28984069824219 173.5929718017578 77.7015609741211 174.0460968017578 80.68047332763672 176.6203155517578 C83.6031265258789 179.14610290527344 84.5074234008789 185.24609375 85.23515319824219 196.3488311767578 C85.36991882324219 198.40274047851562 87.0746078491211 199.99960327148438 89.1332015991211 199.99960327148438 L154.74920654296875 199.99960327148438 C155.82969665527344 199.99960327148438 156.86172485351562 199.55194091796875 157.6003875732422 198.763671875 C158.33905029296875 197.9753875732422 158.71795654296875 196.916015625 158.6472625732422 195.837890625 C157.96641540527344 185.4464874267578 157.74571228027344 178.2273406982422 157.90975952148438 171.6999969482422 C157.9640655517578 169.54336547851562 156.25936889648438 167.75115966796875 154.10272216796875 167.69686889648438 C154.0695343017578 167.6960906982422 154.0363311767578 167.69570922851562 154.00274658203125 167.69570922851562 C151.89102172851562 167.69570922851562 150.1531219482422 169.38047790527344 150.099609375 171.50390625 C149.95272827148438 177.35975646972656 150.1003875732422 183.70428466796875 150.59336853027344 192.18710327148438 L92.77421569824219 192.18710327148438 C91.99530792236328 182.06951904296875 90.732421875 174.9812469482422 85.7890625 170.708984375 C80.46952819824219 166.11172485351562 72.08944702148438 165.78009033203125 58.919925689697266 165.78009033203125 C49.93320846557617 165.78009033203125 42.62226867675781 158.56796264648438 42.62226867675781 149.70352172851562 L42.62226867675781 142.8410186767578 C42.84022903442383 142.87890625 43.06328201293945 142.90234375 43.29179382324219 142.90234375 C46.99492645263672 142.90234375 51.39687728881836 144.16717529296875 55.06640625 146.28555297851562 C55.681640625 146.640625 56.35273361206055 146.8093719482422 57.015628814697266 146.8093719482422 C58.365623474121094 146.8093719482422 59.67890548706055 146.1085968017578 60.40234375 144.85546875 C61.48086166381836 142.9871063232422 60.84062576293945 140.59805297851562 58.97226333618164 139.51953125 C54.096092224121094 136.7042999267578 48.380470275878906 135.08984375 43.29179382324219 135.08984375 C43.062889099121094 135.08984375 42.84022903442383 135.11367797851562 42.62226867675781 135.1511688232422 L42.62226867675781 125.26797485351562 C42.62226867675781 123.11054229736328 40.87343978881836 121.36172485351562 38.71601867675781 121.36172485351562 C29.94452667236328 121.36172485351562 23.712501525878906 119.42147827148438 22.044525146484375 116.17147827148438 C20.808982849121094 113.7640609741211 21.888282775878906 109.98672485351562 25.082420349121094 105.5355453491211 C30.970314025878906 97.33203125 37.98906326293945 85.76249694824219 37.98906326293945 77.236328125 C37.98906326293945 38.95624923706055 69.49687194824219 7.8125 108.22539520263672 7.8125 C146.9539031982422 7.8125 178.46133422851562 38.95624923706055 178.46133422851562 77.23711395263672 C178.46133422851562 89.96640014648438 174.90118408203125 102.4378890991211 168.16561889648438 113.3031234741211 C163.2410125732422 121.24726867675781 159.51092529296875 128.59765625 156.76251220703125 135.77383422851562 C155.99063110351562 137.78868103027344 156.99842834472656 140.04727172851562 159.01327514648438 140.81875610351562 C161.02734375 141.58984375 163.2863311767578 140.5828094482422 164.05821228027344 138.56796264648438 C166.62850952148438 131.85702514648438 170.14413452148438 124.939453125 174.80584716796875 117.41913604736328 C182.30821228027344 105.3167953491211 186.27383422851562 91.421875 186.27383422851562 77.2367172241211 C186.27383422851562 56.679298400878906 178.1277313232422 37.30000305175781 163.3351593017578 22.669921875 Z"></path>
<path fill="" fill-opacity="1.0"  filling="0" d="M53.59062576293945 83.80547332763672 C51.433204650878906 83.80547332763672 49.685935974121094 85.5542984008789 49.685935974121094 87.71172332763672 C49.685935974121094 89.869140625 51.43632888793945 91.61797332763672 53.59375 91.61797332763672 C55.75117492675781 91.61797332763672 57.5 89.869140625 57.5 87.71172332763672 C57.5 85.5542984008789 55.75117492675781 83.80547332763672 53.59375 83.80547332763672 L53.59062576293945 83.80547332763672 Z"></path>
<path fill="" fill-opacity="1.0"  filling="0" d="M155.68006896972656 158.01016235351562 C157.83749389648438 158.01016235351562 159.58631896972656 156.26132202148438 159.58631896972656 154.10391235351562 C159.58631896972656 151.9464874267578 157.83749389648438 150.19766235351562 155.68006896972656 150.19766235351562 L155.67733764648438 150.19766235351562 C153.51991271972656 150.19766235351562 151.7726593017578 151.9464874267578 151.7726593017578 154.10391235351562 C151.7726593017578 156.26132202148438 153.5226593017578 158.01016235351562 155.68006896972656 158.01016235351562 Z"></path>
<path fill="" fill-opacity="1.0"  filling="0" d="M68.26875305175781 74.5003890991211 C68.26875305175781 72.34297180175781 66.5199203491211 70.5941390991211 64.36250305175781 70.5941390991211 C62.873435974121094 70.5941390991211 61.007423400878906 69.79766082763672 59.03202819824219 68.95429229736328 C56.54296875 67.89179992675781 53.72148132324219 66.6875 50.634765625 66.6875 C48.47734069824219 66.6875 46.728515625 68.43633270263672 46.728515625 70.59375 C46.728515625 72.75117492675781 48.47734069824219 74.5 50.634765625 74.5 C52.12382507324219 74.5 53.98945236206055 75.2964859008789 55.96484375 76.13945770263672 C58.45429992675781 77.20195007324219 61.275394439697266 78.40625 64.36250305175781 78.40625 C66.5199203491211 78.4066390991211 68.26875305175781 76.6578140258789 68.26875305175781 74.5003890991211 Z"></path>
<path fill="" fill-opacity="1.0"  filling="0" d="M158.2589874267578 58.244140625 C159.00352478027344 57.005859375 159.00352478027344 55.45781326293945 158.2589874267578 54.219139099121094 C150.31524658203125 41.00351333618164 135.5613250732422 32.79414367675781 119.75468444824219 32.79414367675781 C103.94844055175781 32.79414367675781 89.19453430175781 41.00390625 81.25039672851562 54.219139099121094 C80.505859375 55.457420349121094 80.505859375 57.005470275878906 81.25039672851562 58.244140625 C89.19414520263672 71.45976257324219 103.94804382324219 79.66914367675781 119.75468444824219 79.66914367675781 C135.5613250732422 79.66914367675781 150.31524658203125 71.45976257324219 158.2589874267578 58.244140625 Z M119.75508117675781 67.23828125 C113.68594360351562 67.23828125 108.74882507324219 62.300785064697266 108.74882507324219 56.23164367675781 C108.74882507324219 50.162498474121094 113.68632507324219 45.22539520263672 119.75508117675781 45.22539520263672 C125.8238296508789 45.22539520263672 130.76132202148438 50.16289520263672 130.76132202148438 56.23164367675781 C130.76132202148438 62.30038833618164 125.8238296508789 67.23828125 119.75508117675781 67.23828125 Z M89.25273132324219 56.23164367675781 C93.45195007324219 50.224609375 99.45429229736328 45.66484832763672 106.3277359008789 43.06367111206055 C102.99610137939453 46.46054458618164 100.93633270263672 51.108985900878906 100.93633270263672 56.23164367675781 C100.93633270263672 61.35429763793945 102.99610137939453 66.00273132324219 106.3277359008789 69.39960479736328 C99.45429229736328 66.79843139648438 93.45195007324219 62.238670349121094 89.25273132324219 56.23164367675781 Z M133.1824188232422 69.39960479736328 C136.51406860351562 66.00273132324219 138.57382202148438 61.35429763793945 138.57382202148438 56.23164367675781 C138.57382202148438 51.108985900878906 136.51406860351562 46.46054458618164 133.1824188232422 43.06367111206055 C140.0554656982422 45.66484832763672 146.05780029296875 50.224609375 150.25701904296875 56.23164367675781 C146.05780029296875 62.23828125 140.0554656982422 66.79804992675781 133.1824188232422 69.39960479736328 Z"></path>
<path fill="" fill-opacity="1.0"  filling="0" d="M119.75508117675781 87.482421875 C116.3890609741211 87.482421875 112.96875762939453 91.392578125 111.22968292236328 93.72344207763672 C109.529296875 96.00234985351562 106.67656707763672 100.53047180175781 106.67656707763672 105.25116729736328 C106.67656707763672 108.70429229736328 108.10273742675781 112.1058578491211 110.5902328491211 114.58360290527344 C113.06366729736328 117.04765319824219 116.30430603027344 118.4027328491211 119.69100952148438 118.4027328491211 L119.78945922851562 118.4027328491211 C123.20586395263672 118.4027328491211 126.44648742675781 117.04765319824219 128.92031860351562 114.583984375 C131.4074249267578 112.10625457763672 132.83358764648438 108.705078125 132.83358764648438 105.2515640258789 C132.83358764648438 100.53124237060547 129.98086547851562 96.00312805175781 128.2804718017578 93.72383117675781 C126.541015625 91.392578125 123.12109375 87.482421875 119.75508117675781 87.482421875 Z M123.40625762939453 109.0484390258789 C122.40782165527344 110.04296875 121.12382507324219 110.58983612060547 119.75898742675781 110.58983612060547 C119.75234985351562 110.58983612060547 119.74609375 110.58983612060547 119.73983764648438 110.58983612060547 C119.73320007324219 110.58983612060547 119.72734832763672 110.58983612060547 119.7210922241211 110.58983612060547 C118.38593292236328 110.58983612060547 117.10116577148438 110.04296875 116.1031265258789 109.0484390258789 C115.07695007324219 108.02616882324219 114.4886703491211 106.6421890258789 114.4886703491211 105.25077819824219 C114.4886703491211 102.0894546508789 117.81171417236328 97.6324234008789 119.75468444824219 95.8363265991211 C121.6976547241211 97.6324234008789 125.02070617675781 102.0894546508789 125.02070617675781 105.25077819824219 C125.02108764648438 106.6421890258789 124.43241882324219 108.02616882324219 123.40625762939453 109.0484390258789 Z"></path></svg>