<svg xmlns="http://www.w3.org/2000/svg" viewBox="0.0 0.0 200.0 200.0" height="200.0px" width="200.0px"><path fill="url(#SVGID_1_)" fill-opacity="1.0"  filling="0" d="M167.95176696777344 67.95215606689453 C167.95176696777344 30.797645568847656 138.13255310058594 0.6078414916992188 101.12039184570312 0.0094146728515625 C63.29411315917969 -0.60235595703125 32.431373596191406 29.425094604492188 32.0517578125 67.25450134277344 C31.883529663085938 84.01725769042969 37.78744888305664 99.39568328857422 47.69725036621094 111.32902526855469 C53.748233795166016 118.61568450927734 57.77490234375 127.3670654296875 59.61490249633789 136.6580352783203 C61.92313766479492 143.7196044921875 68.51019287109375 148.49685668945312 75.93960571289062 148.49685668945312 L124.03059387207031 148.49685668945312 C131.47451782226562 148.49685668945312 138.07058715820312 143.70196533203125 140.36746215820312 136.62118530273438 L140.43138122558594 136.42352294921875 C142.2490234375 127.24549865722656 146.23922729492188 118.60588836669922 152.2286376953125 111.41803741455078 C162.04510498046875 99.63764953613281 167.95176696777344 84.48548889160156 167.95176696777344 67.95215606689453 Z"></path>
<path fill="url(#SVGID_2_)" fill-opacity="1.0"  filling="0" d="M101.12039184570312 0.0090179443359375 C98.07568359375 -0.04000091552734375 95.07685852050781 0.11176300048828125 92.13450622558594 0.44783782958984375 C125.97569274902344 4.330192565917969 152.2576446533203 33.07097625732422 152.2576446533203 67.95176696777344 C152.2576446533203 84.48509216308594 146.35098266601562 99.63725280761719 136.53451538085938 111.41764068603516 C130.54510498046875 118.6054916381836 126.55490112304688 127.24510192871094 124.73725128173828 136.4231414794922 L124.67333221435547 136.62078857421875 C122.37647247314453 143.701171875 115.78038787841797 148.4964599609375 108.33647155761719 148.4964599609375 L124.03059387207031 148.4964599609375 C131.47412109375 148.4964599609375 138.07058715820312 143.701171875 140.36746215820312 136.62078857421875 L140.43138122558594 136.4231414794922 C142.2490234375 127.24510192871094 146.23922729492188 118.6054916381836 152.2286376953125 111.41764068603516 C162.04510498046875 99.63725280761719 167.95176696777344 84.48509216308594 167.95176696777344 67.95176696777344 C167.95176696777344 30.79724884033203 138.13255310058594 0.6074447631835938 101.12039184570312 0.0090179443359375 Z"></path>
<path fill="url(#SVGID_3_)" fill-opacity="1.0"  filling="0" d="M128.24822998046875 143.81883239746094 L71.75176239013672 143.81883239746094 C65.84627532958984 143.81883239746094 61.0592155456543 148.6062774658203 61.0592155456543 154.51136779785156 C61.0592155456543 160.41685485839844 65.84666442871094 165.20391845703125 71.75176239013672 165.20391845703125 L128.24862670898438 165.20391845703125 C134.15411376953125 165.20391845703125 138.94117736816406 160.41647338867188 138.94117736816406 154.51136779785156 C138.94117736816406 148.6058807373047 134.1537322998047 143.81883239746094 128.24822998046875 143.81883239746094 Z"></path>
<path fill="url(#SVGID_4_)" fill-opacity="1.0"  filling="0" d="M128.24822998046875 143.81883239746094 L112.55411529541016 143.81883239746094 C118.45960235595703 143.81883239746094 123.24666595458984 148.6062774658203 123.24666595458984 154.51136779785156 C123.24666595458984 160.41685485839844 118.45922088623047 165.20391845703125 112.55411529541016 165.20391845703125 L128.24822998046875 165.20391845703125 C134.1537322998047 165.20391845703125 138.9407958984375 160.41647338867188 138.9407958984375 154.51136779785156 C138.94117736816406 148.6058807373047 134.1537322998047 143.81883239746094 128.24822998046875 143.81883239746094 Z"></path>
<path fill="url(#SVGID_5_)" fill-opacity="1.0"  filling="0" d="M131.24195861816406 176.68980407714844 C131.24195861816406 189.56353759765625 117.25450897216797 200.0 100.0 200.0 C82.74549102783203 200.0 68.7580337524414 189.56353759765625 68.7580337524414 176.68980407714844 C68.7580337524414 163.81607055664062 131.24195861816406 163.81568908691406 131.24195861816406 176.68980407714844 Z"></path>
<path fill="url(#SVGID_6_)" fill-opacity="1.0"  filling="0" d="M92.15294647216797 167.31057739257812 C104.761962890625 168.21490478515625 115.54784393310547 171.34078979492188 115.54784393310547 176.68980407714844 C115.54784393310547 187.54156494140625 105.60902404785156 196.66078186035156 92.15294647216797 199.25804138183594 C94.66039276123047 199.74197387695312 97.28980255126953 200.0 100.0 200.0 C117.25450897216797 200.0 131.24195861816406 189.56353759765625 131.24195861816406 176.68980407714844 C131.24195861816406 169.164306640625 109.89293670654297 166.03843688964844 92.15294647216797 167.31057739257812 Z"></path>
<path fill="url(#SVGID_7_)" fill-opacity="1.0"  filling="0" d="M128.24822998046875 165.20431518554688 L71.75176239013672 165.20431518554688 C65.84627532958984 165.20431518554688 61.0592155456543 169.99176025390625 61.0592155456543 175.8968505859375 C61.0592155456543 181.8023681640625 65.84666442871094 186.58941650390625 71.75176239013672 186.58941650390625 L128.24862670898438 186.58941650390625 C134.15411376953125 186.58941650390625 138.94117736816406 181.80197143554688 138.94117736816406 175.8968505859375 C138.94117736816406 169.99136352539062 134.1537322998047 165.20431518554688 128.24822998046875 165.20431518554688 Z"></path>
<path fill="url(#SVGID_8_)" fill-opacity="1.0"  filling="0" d="M138.90196228027344 175.0117645263672 C138.69020080566406 172.41177368164062 137.54901123046875 170.0745086669922 135.80784606933594 168.33724975585938 C133.87451171875 166.39999389648438 131.1999969482422 165.20391845703125 128.24705505371094 165.20391845703125 L71.75294494628906 165.20391845703125 C66.14509582519531 165.20391845703125 61.54509735107422 169.52157592773438 61.09804153442383 175.0117645263672 L119.69647216796875 175.0117645263672 C121.7454833984375 175.0117645263672 123.30706787109375 176.92352294921875 122.81214904785156 178.91217041015625 C122.79725646972656 178.97216796875 122.7819595336914 179.02745056152344 122.76626586914062 179.07765197753906 C121.41216278076172 183.4298095703125 117.35137176513672 186.58822631835938 112.55294799804688 186.58822631835938 L128.24705505371094 186.58822631835938 C134.15293884277344 186.58822631835938 138.94117736816406 181.80392456054688 138.94117736816406 175.89804077148438 C138.94117736816406 175.60000610351562 138.92941284179688 175.3019561767578 138.90196228027344 175.0117645263672 Z"></path>
<path fill="url(#SVGID_9_)" fill-opacity="1.0"  filling="0" d="M196.07254028320312 75.7882308959961 L177.58511352539062 75.7882308959961 C175.41607666015625 75.7882308959961 173.65765380859375 74.02980041503906 173.65765380859375 71.86077880859375 C173.65765380859375 69.69176483154297 175.41607666015625 67.93333435058594 177.58511352539062 67.93333435058594 L196.07254028320312 67.93333435058594 C198.2415771484375 67.93333435058594 200.0 69.69176483154297 200.0 71.86077880859375 C200.0 74.02980041503906 198.2415771484375 75.7882308959961 196.07254028320312 75.7882308959961 Z"></path>
<path fill="url(#SVGID_10_)" fill-opacity="1.0"  filling="0" d="M22.41529083251953 75.7882308959961 L3.9274520874023438 75.7882308959961 C1.7584304809570312 75.7882308959961 0.0 74.02980041503906 0.0 71.86077880859375 C0.0 69.69176483154297 1.7584304809570312 67.93333435058594 3.9274520874023438 67.93333435058594 L22.41529083251953 67.93333435058594 C24.584312438964844 67.93333435058594 26.342750549316406 69.69176483154297 26.342750549316406 71.86077880859375 C26.342750549316406 74.02980041503906 24.584312438964844 75.7882308959961 22.41529083251953 75.7882308959961 Z"></path>
<path fill="url(#SVGID_11_)" fill-opacity="1.0"  filling="0" d="M167.9337158203125 143.72195434570312 C166.92861938476562 143.72195434570312 165.9235382080078 143.33843994140625 165.15646362304688 142.57177734375 L152.08352661132812 129.49880981445312 C150.5498046875 127.96510314941406 150.5498046875 125.47843170166016 152.08352661132812 123.9447021484375 C153.61764526367188 122.41136932373047 156.10353088378906 122.41136932373047 157.6376495361328 123.9447021484375 L170.71060180664062 137.01763916015625 C172.2443084716797 138.55137634277344 172.2443084716797 141.0380401611328 170.71060180664062 142.57177734375 C169.9435272216797 143.33843994140625 168.93882751464844 143.72195434570312 167.9337158203125 143.72195434570312 Z"></path>
<path fill="url(#SVGID_12_)" fill-opacity="1.0"  filling="0" d="M45.139217376708984 20.927452087402344 C44.13411331176758 20.927452087402344 43.12902069091797 20.543914794921875 42.36235427856445 19.777259826660156 L29.289413452148438 6.704315185546875 C27.755691528320312 5.170585632324219 27.755691528320312 2.6839141845703125 29.289413452148438 1.1501922607421875 C30.823135375976562 -0.3835296630859375 33.30980682373047 -0.3835296630859375 34.843528747558594 1.1501922607421875 L47.91646957397461 14.222747802734375 C49.450191497802734 15.7564697265625 49.450191497802734 18.243141174316406 47.91646957397461 19.77686309814453 C47.149410247802734 20.543914794921875 46.14431381225586 20.927452087402344 45.139217376708984 20.927452087402344 Z"></path>
<path fill="url(#SVGID_13_)" fill-opacity="1.0"  filling="0" d="M32.06626892089844 143.72195434570312 C31.061172485351562 143.72195434570312 30.056076049804688 143.33843994140625 29.289016723632812 142.57177734375 C27.755294799804688 141.0380401611328 27.755294799804688 138.55137634277344 29.289016723632812 137.01763916015625 L42.36196517944336 123.9447021484375 C43.89568328857422 122.41136932373047 46.38235092163086 122.41136932373047 47.916080474853516 123.9447021484375 C49.44980239868164 125.47843170166016 49.44980239868164 127.96510314941406 47.916080474853516 129.49880981445312 L34.8431396484375 142.57177734375 C34.07646179199219 143.33843994140625 33.071372985839844 143.72195434570312 32.06626892089844 143.72195434570312 Z"></path>
<path fill="url(#SVGID_14_)" fill-opacity="1.0"  filling="0" d="M154.86077880859375 20.927452087402344 C153.85568237304688 20.927452087402344 152.8505859375 20.543914794921875 152.08352661132812 19.777259826660156 C150.5498046875 18.2435302734375 150.5498046875 15.756858825683594 152.08352661132812 14.223136901855469 L165.15646362304688 1.1505889892578125 C166.69097900390625 -0.38314056396484375 169.17686462402344 -0.38274383544921875 170.71060180664062 1.1505889892578125 C172.2443084716797 2.6843109130859375 172.2443084716797 5.170982360839844 170.71060180664062 6.704704284667969 L157.6376495361328 19.777259826660156 C156.87059020996094 20.543914794921875 155.86549377441406 20.927452087402344 154.86077880859375 20.927452087402344 Z"></path>
<path fill="url(#SVGID_15_)" fill-opacity="1.0"  filling="0" d="M71.863525390625 77.59529113769531 C71.863525390625 94.32274627685547 79.16275024414062 109.84078216552734 91.62274169921875 122.64313507080078 C96.2196044921875 127.36627197265625 103.7803955078125 127.36627197265625 108.37725830078125 122.64313507080078 C120.837646484375 109.84078216552734 128.13645935058594 94.32313537597656 128.13645935058594 77.59529113769531 C128.13645935058594 60.86745071411133 120.8372573852539 45.34980392456055 108.37725830078125 32.547447204589844 C103.7803955078125 27.824310302734375 96.2196044921875 27.824310302734375 91.62274169921875 32.547447204589844 C79.16275024414062 45.34980392456055 71.863525390625 60.86783981323242 71.863525390625 77.59529113769531 Z"></path>
<path fill="url(#SVGID_16_)" fill-opacity="1.0"  filling="0" d="M123.1051025390625 54.00627517700195 C123.20392608642578 55.18980026245117 123.2568588256836 56.38666534423828 123.2568588256836 57.59568786621094 C123.2568588256836 81.11764526367188 104.188232421875 100.186279296875 80.66627502441406 100.186279296875 C79.21803283691406 100.186279296875 77.78705596923828 100.11333465576172 76.37608337402344 99.97216033935547 C79.76039123535156 108.15332794189453 84.9501953125 115.787841796875 91.62235260009766 122.64313507080078 C96.2192153930664 127.36627197265625 103.7800064086914 127.36627197265625 108.37686157226562 122.64313507080078 C120.83686828613281 109.84078216552734 128.13607788085938 94.32313537597656 128.13607788085938 77.59529113769531 C128.13645935058594 69.38078308105469 126.37255096435547 61.45921325683594 123.1051025390625 54.00627517700195 Z"></path>
<path fill="url(#SVGID_17_)" fill-opacity="1.0"  filling="0" d="M116.0752944946289 84.50196075439453 L103.94078826904297 96.636474609375 L103.94078826904297 91.3564682006836 C103.94078826904297 84.70038604736328 106.58470153808594 78.31686401367188 111.29137420654297 73.61058807373047 L121.62078094482422 63.28117752075195 C123.09764099121094 61.80431365966797 123.27294921875 59.400001525878906 121.89411163330078 57.830589294433594 C120.38352966308594 56.11097717285156 117.76235961914062 56.0478401184082 116.16980743408203 57.6403923034668 L103.94078826904297 69.86941528320312 L103.94078826904297 36.533729553222656 C103.94078826904297 34.445091247558594 102.36470794677734 32.62117004394531 100.27999877929688 32.48627471923828 C97.99607849121094 32.33843231201172 96.09764862060547 34.147056579589844 96.09764862060547 36.39921188354492 L96.09764862060547 69.90784454345703 L83.92431640625 57.73451232910156 C82.44744873046875 56.25764846801758 80.04352569580078 56.08274459838867 78.47411346435547 57.461177825927734 C76.75450897216797 58.97176742553711 76.69058990478516 61.59293746948242 78.28353118896484 63.18587875366211 L88.74705505371094 73.64981079101562 C93.45372772216797 78.35647583007812 96.09764862060547 84.73960876464844 96.09764862060547 91.39569091796875 L96.09764862060547 96.6756820678711 L83.82940673828125 84.4074478149414 C82.2364730834961 82.81451416015625 79.61490631103516 82.87882232666016 78.10430908203125 84.59843444824219 C76.72627258300781 86.16744995117188 76.90117645263672 88.57137298583984 78.37803649902344 90.04784393310547 L91.25294494628906 102.92314147949219 C94.35490417480469 106.02510070800781 96.09764862060547 110.23216247558594 96.09764862060547 114.61882781982422 L96.09764862060547 133.80979919433594 C96.09764862060547 135.89842224121094 97.67372131347656 137.72235107421875 99.75843048095703 137.8572540283203 C102.0423583984375 138.00509643554688 103.94078826904297 136.19647216796875 103.94078826904297 133.94432067871094 L103.94078826904297 114.57999420166016 C103.94078826904297 110.1933364868164 105.68353271484375 105.98628234863281 108.7854995727539 102.88431549072266 L121.71607971191406 89.95372772216797 C123.30863189697266 88.36117553710938 123.2450942993164 85.73960876464844 121.52549743652344 84.22901916503906 C119.95647430419922 82.8501968383789 117.55215454101562 83.02510070800781 116.0752944946289 84.50196075439453 Z"></path></svg>