<?xml version="1.0" encoding="utf-8"?>
<!-- Generator: Adobe Illustrator 29.5.1, SVG Export Plug-In . SVG Version: 9.03 Build 0)  -->
<svg version="1.1" xmlns="http://www.w3.org/2000/svg" xmlns:xlink="http://www.w3.org/1999/xlink" x="0px" y="0px"
	 viewBox="0 0 500 500" style="enable-background:new 0 0 500 500;" xml:space="preserve">
<g id="_0300_china" style="display:none;">
</g>
<g id="Layer_101" style="display:none;">
	<rect x="74.76" y="362.53" style="display:inline;fill:#E6E6E6;" width="350.21" height="71.31"/>
	<path style="display:inline;fill:#A5A5A5;" d="M243.2,381.75h14.78c6.25,0,11.33,5.08,11.33,11.33v40.77h-37.45v-40.77
		c0-6.25,5.08-11.33,11.33-11.33H243.2z"/>
	<path style="display:inline;fill:#A5A5A5;" d="M201.85,403.24h9.61c4.07,0,7.37,3.3,7.37,7.37v23.24h-24.34v-23.24
		c0-4.07,3.3-7.37,7.37-7.37H201.85z"/>
	<path style="display:inline;fill:#A5A5A5;" d="M289.28,403.24h9.61c4.07,0,7.37,3.3,7.37,7.37v23.24h-24.34v-23.24
		c0-4.07,3.3-7.37,7.37-7.37H289.28z"/>
	<rect x="74.76" y="356.35" style="display:inline;fill:#A5A5A5;" width="350.21" height="6.19"/>
</g>
<g id="Layer_103" style="display:none;">
	<rect x="353.78" y="375.85" style="display:inline;fill:#24285B;" width="107.82" height="59.46"/>
	<rect x="376.68" y="184.07" style="display:inline;fill:#68E1FD;" width="62.02" height="191.78"/>
	<rect x="376.68" y="184.07" style="display:inline;fill:#68E1FD;" width="62.02" height="191.78"/>
	<path style="display:inline;fill:#FFD200;" d="M459.69,364.36h-104c-7.63,16.66-26.72,5.76-26.72,5.76
		c0.48,14.31,15.27,15.27,15.27,15.27h126.9c0,0,14.79-0.95,15.27-15.27C486.41,370.12,467.33,381.02,459.69,364.36L459.69,364.36z"
		/>
	<path style="display:inline;fill:#FFD200;" d="M440.63,331h-65.88c-4.83,10.55-16.92,3.65-16.92,3.65c0.3,9.07,9.67,9.67,9.67,9.67
		h80.38c0,0,9.37-0.6,9.67-9.67C457.55,334.65,445.46,341.55,440.63,331z"/>
	<path style="display:inline;fill:#FFD200;" d="M440.63,299.04h-65.88c-4.83,10.55-16.92,3.65-16.92,3.65
		c0.3,9.07,9.67,9.67,9.67,9.67h80.38c0,0,9.37-0.6,9.67-9.67C457.55,302.69,445.46,309.59,440.63,299.04z"/>
	<path style="display:inline;fill:#FFD200;" d="M440.63,267.08h-65.88c-4.83,10.55-16.92,3.65-16.92,3.65
		c0.3,9.07,9.67,9.67,9.67,9.67h80.38c0,0,9.37-0.6,9.67-9.67C457.55,270.73,445.46,277.63,440.63,267.08z"/>
	<path style="display:inline;fill:#FFD200;" d="M440.63,235.11h-65.88c-4.83,10.55-16.92,3.65-16.92,3.65
		c0.3,9.07,9.67,9.67,9.67,9.67h80.38c0,0,9.37-0.6,9.67-9.67C457.55,238.76,445.46,245.66,440.63,235.11z"/>
	<path style="display:inline;fill:#FFD200;" d="M440.63,203.15h-65.88c-4.83,10.55-16.92,3.65-16.92,3.65
		c0.3,9.07,9.67,9.67,9.67,9.67h80.38c0,0,9.37-0.6,9.67-9.67C457.55,206.8,445.46,213.7,440.63,203.15z"/>
	<path style="display:inline;fill:#FFD200;" d="M440.63,171.19L440.63,171.19c0,0-24.59-12.17-32.94-40.55
		c-8.35,28.38-32.93,40.55-32.94,40.55l0,0c-4.84,10.55-16.92,3.65-16.92,3.65c0.3,9.07,9.67,9.67,9.67,9.67h80.38
		c0,0,9.37-0.6,9.67-9.67C457.55,174.84,445.46,181.74,440.63,171.19z"/>
	<path style="display:inline;opacity:0.42;fill:#000001;enable-background:new    ;" d="M403.33,393.5h8.72
		c5.78,0,10.47,4.69,10.47,10.47v30.79h-29.65v-30.79c0-5.78,4.69-10.47,10.47-10.47H403.33z"/>
	<rect x="452.65" y="385.39" style="display:inline;fill:#68E1FD;" width="12.52" height="49.36"/>
	<path style="display:inline;fill:#24285B;" d="M389.11,188.48h3.05c2.02,0,3.66,1.64,3.66,3.66v6.71h-10.38v-6.71
		c0-2.02,1.64-3.66,3.66-3.66H389.11z"/>
	<path style="display:inline;fill:#24285B;" d="M406.7,188.48h3.05c2.02,0,3.66,1.64,3.66,3.66v6.71h-10.38v-6.71
		c0-2.02,1.64-3.66,3.66-3.66H406.7z"/>
	<path style="display:inline;fill:#24285B;" d="M424.11,188.48h3.05c2.02,0,3.66,1.64,3.66,3.66v6.71h-10.38v-6.71
		c0-2.02,1.64-3.66,3.66-3.66H424.11z"/>
	<path style="display:inline;fill:#24285B;" d="M389.11,220.6h3.05c2.02,0,3.66,1.64,3.66,3.66v6.71h-10.38v-6.71
		c0-2.02,1.64-3.66,3.66-3.66H389.11z"/>
	<path style="display:inline;fill:#24285B;" d="M406.7,220.6h3.05c2.02,0,3.66,1.64,3.66,3.66v6.71h-10.38v-6.71
		c0-2.02,1.64-3.66,3.66-3.66H406.7z"/>
	<path style="display:inline;fill:#24285B;" d="M424.11,220.6h3.05c2.02,0,3.66,1.64,3.66,3.66v6.71h-10.38v-6.71
		c0-2.02,1.64-3.66,3.66-3.66H424.11z"/>
	<path style="display:inline;fill:#24285B;" d="M389.11,252.57h3.05c2.02,0,3.66,1.64,3.66,3.66v6.71h-10.38v-6.71
		c0-2.02,1.64-3.66,3.66-3.66H389.11z"/>
	<path style="display:inline;fill:#24285B;" d="M406.7,252.57h3.05c2.02,0,3.66,1.64,3.66,3.66v6.71h-10.38v-6.71
		c0-2.02,1.64-3.66,3.66-3.66H406.7z"/>
	<path style="display:inline;fill:#24285B;" d="M424.11,252.57h3.05c2.02,0,3.66,1.64,3.66,3.66v6.71h-10.38v-6.71
		c0-2.02,1.64-3.66,3.66-3.66H424.11z"/>
	<path style="display:inline;fill:#24285B;" d="M389.11,283.83h3.05c2.02,0,3.66,1.64,3.66,3.66v6.71h-10.38v-6.71
		c0-2.02,1.64-3.66,3.66-3.66H389.11z"/>
	<path style="display:inline;fill:#24285B;" d="M406.7,283.83h3.05c2.02,0,3.66,1.64,3.66,3.66v6.71h-10.38v-6.71
		c0-2.02,1.64-3.66,3.66-3.66H406.7z"/>
	<path style="display:inline;fill:#24285B;" d="M424.11,283.83h3.05c2.02,0,3.66,1.64,3.66,3.66v6.71h-10.38v-6.71
		c0-2.02,1.64-3.66,3.66-3.66H424.11z"/>
	<path style="display:inline;fill:#24285B;" d="M389.11,316.51h3.05c2.02,0,3.66,1.64,3.66,3.66v6.71h-10.38v-6.71
		c0-2.02,1.64-3.66,3.66-3.66H389.11z"/>
	<path style="display:inline;fill:#24285B;" d="M406.7,316.51h3.05c2.02,0,3.66,1.64,3.66,3.66v6.71h-10.38v-6.71
		c0-2.02,1.64-3.66,3.66-3.66H406.7z"/>
	<path style="display:inline;fill:#24285B;" d="M424.11,316.51h3.05c2.02,0,3.66,1.64,3.66,3.66v6.71h-10.38v-6.71
		c0-2.02,1.64-3.66,3.66-3.66H424.11z"/>
	<path style="display:inline;fill:#24285B;" d="M389.11,349.15h3.05c2.02,0,3.66,1.64,3.66,3.66v6.71h-10.38v-6.71
		c0-2.02,1.64-3.66,3.66-3.66H389.11z"/>
	<path style="display:inline;fill:#24285B;" d="M406.7,349.15h3.05c2.02,0,3.66,1.64,3.66,3.66v6.71h-10.38v-6.71
		c0-2.02,1.64-3.66,3.66-3.66H406.7z"/>
	<path style="display:inline;fill:#24285B;" d="M424.11,349.15h3.05c2.02,0,3.66,1.64,3.66,3.66v6.71h-10.38v-6.71
		c0-2.02,1.64-3.66,3.66-3.66H424.11z"/>
</g>
<g id="Layer_104" style="display:none;">
	<rect x="38.4" y="375.85" style="display:inline;fill:#24285B;" width="107.82" height="59.46"/>
	<rect x="61.3" y="184.07" style="display:inline;fill:#68E1FD;" width="62.02" height="191.78"/>
	<rect x="61.3" y="184.07" style="display:inline;fill:#68E1FD;" width="62.02" height="191.78"/>
	<path style="display:inline;fill:#FFD200;" d="M144.31,364.36h-104c-7.63,16.66-26.72,5.76-26.72,5.76
		c0.48,14.31,15.27,15.27,15.27,15.27h126.9c0,0,14.79-0.95,15.27-15.27C171.03,370.12,151.95,381.02,144.31,364.36L144.31,364.36z"
		/>
	<path style="display:inline;fill:#FFD200;" d="M125.25,331H59.37c-4.83,10.55-16.92,3.65-16.92,3.65c0.3,9.07,9.67,9.67,9.67,9.67
		h80.38c0,0,9.37-0.6,9.67-9.67C142.17,334.65,130.08,341.55,125.25,331z"/>
	<path style="display:inline;fill:#FFD200;" d="M125.25,299.04H59.37c-4.83,10.55-16.92,3.65-16.92,3.65
		c0.3,9.07,9.67,9.67,9.67,9.67h80.38c0,0,9.37-0.6,9.67-9.67C142.17,302.69,130.08,309.59,125.25,299.04z"/>
	<path style="display:inline;fill:#FFD200;" d="M125.25,235.11H59.37c-4.83,10.55-16.92,3.65-16.92,3.65
		c0.3,9.07,9.67,9.67,9.67,9.67h80.38c0,0,9.37-0.6,9.67-9.67C142.17,238.76,130.08,245.66,125.25,235.11z"/>
	<path style="display:inline;fill:#FFD200;" d="M125.25,203.15H59.37c-4.83,10.55-16.92,3.65-16.92,3.65
		c0.3,9.07,9.67,9.67,9.67,9.67h80.38c0,0,9.37-0.6,9.67-9.67C142.17,206.8,130.08,213.7,125.25,203.15z"/>
	<path style="display:inline;fill:#FFD200;" d="M125.25,171.19L125.25,171.19c0,0-24.59-12.17-32.94-40.55
		c-8.35,28.38-32.93,40.55-32.94,40.55l0,0c-4.84,10.55-16.92,3.65-16.92,3.65c0.3,9.07,9.67,9.67,9.67,9.67h80.38
		c0,0,9.37-0.6,9.67-9.67C142.17,174.84,130.08,181.74,125.25,171.19z"/>
	<path style="display:inline;opacity:0.42;fill:#000001;enable-background:new    ;" d="M87.95,393.5h8.72
		c5.78,0,10.47,4.69,10.47,10.47v30.79H77.49v-30.79c0-5.78,4.69-10.47,10.47-10.47H87.95z"/>
	<rect x="32.32" y="385.39" style="display:inline;fill:#68E1FD;" width="12.52" height="49.36"/>
	<path style="display:inline;fill:#24285B;" d="M73.73,188.48h3.05c2.02,0,3.66,1.64,3.66,3.66v6.71H70.06v-6.71
		c0-2.02,1.64-3.66,3.66-3.66H73.73z"/>
	<path style="display:inline;fill:#24285B;" d="M91.32,188.48h3.05c2.02,0,3.66,1.64,3.66,3.66v6.71H87.65v-6.71
		c0-2.02,1.64-3.66,3.66-3.66H91.32z"/>
	<path style="display:inline;fill:#24285B;" d="M108.73,188.48h3.05c2.02,0,3.66,1.64,3.66,3.66v6.71h-10.38v-6.71
		c0-2.02,1.64-3.66,3.66-3.66H108.73z"/>
	<path style="display:inline;fill:#24285B;" d="M73.73,220.6h3.05c2.02,0,3.66,1.64,3.66,3.66v6.71H70.06v-6.71
		c0-2.02,1.64-3.66,3.66-3.66H73.73z"/>
	<path style="display:inline;fill:#24285B;" d="M91.32,220.6h3.05c2.02,0,3.66,1.64,3.66,3.66v6.71H87.65v-6.71
		c0-2.02,1.64-3.66,3.66-3.66H91.32z"/>
	<path style="display:inline;fill:#24285B;" d="M108.73,220.6h3.05c2.02,0,3.66,1.64,3.66,3.66v6.71h-10.38v-6.71
		c0-2.02,1.64-3.66,3.66-3.66H108.73z"/>
	<path style="display:inline;fill:#24285B;" d="M73.73,252.57h3.05c2.02,0,3.66,1.64,3.66,3.66v6.71H70.06v-6.71
		c0-2.02,1.64-3.66,3.66-3.66H73.73z"/>
	<path style="display:inline;fill:#24285B;" d="M91.32,252.57h3.05c2.02,0,3.66,1.64,3.66,3.66v6.71H87.65v-6.71
		c0-2.02,1.64-3.66,3.66-3.66H91.32z"/>
	<path style="display:inline;fill:#24285B;" d="M108.73,252.57h3.05c2.02,0,3.66,1.64,3.66,3.66v6.71h-10.38v-6.71
		c0-2.02,1.64-3.66,3.66-3.66H108.73z"/>
	<path style="display:inline;fill:#24285B;" d="M73.73,283.83h3.05c2.02,0,3.66,1.64,3.66,3.66v6.71H70.06v-6.71
		c0-2.02,1.64-3.66,3.66-3.66H73.73z"/>
	<path style="display:inline;fill:#24285B;" d="M91.32,283.83h3.05c2.02,0,3.66,1.64,3.66,3.66v6.71H87.65v-6.71
		c0-2.02,1.64-3.66,3.66-3.66H91.32z"/>
	<path style="display:inline;fill:#24285B;" d="M108.73,283.83h3.05c2.02,0,3.66,1.64,3.66,3.66v6.71h-10.38v-6.71
		c0-2.02,1.64-3.66,3.66-3.66H108.73z"/>
	<path style="display:inline;fill:#24285B;" d="M73.73,316.51h3.05c2.02,0,3.66,1.64,3.66,3.66v6.71H70.06v-6.71
		c0-2.02,1.64-3.66,3.66-3.66H73.73z"/>
	<path style="display:inline;fill:#24285B;" d="M91.32,316.51h3.05c2.02,0,3.66,1.64,3.66,3.66v6.71H87.65v-6.71
		c0-2.02,1.64-3.66,3.66-3.66H91.32z"/>
	<path style="display:inline;fill:#24285B;" d="M108.73,316.51h3.05c2.02,0,3.66,1.64,3.66,3.66v6.71h-10.38v-6.71
		c0-2.02,1.64-3.66,3.66-3.66H108.73z"/>
	<path style="display:inline;fill:#24285B;" d="M73.73,349.15h3.05c2.02,0,3.66,1.64,3.66,3.66v6.71H70.06v-6.71
		c0-2.02,1.64-3.66,3.66-3.66H73.73z"/>
	<path style="display:inline;fill:#24285B;" d="M91.32,349.15h3.05c2.02,0,3.66,1.64,3.66,3.66v6.71H87.65v-6.71
		c0-2.02,1.64-3.66,3.66-3.66H91.32z"/>
	<path style="display:inline;fill:#24285B;" d="M108.73,349.15h3.05c2.02,0,3.66,1.64,3.66,3.66v6.71h-10.38v-6.71
		c0-2.02,1.64-3.66,3.66-3.66H108.73z"/>
	<path style="display:inline;opacity:0.09;fill:#000001;enable-background:new    ;" d="M144.31,364.36h-20.99v-20.04h9.18
		c0,0,9.37-0.6,9.67-9.67c0,0-12.09,6.9-16.92-3.65h-1.93v-18.64h9.18c0,0,9.37-0.6,9.67-9.67c0,0-12.09,6.9-16.92-3.65h-1.93V280.4
		h9.18c0,0,9.37-0.6,9.67-9.67c0,0-12.09,6.9-16.92-3.65h-1.93v-18.64h9.18c0,0,9.37-0.6,9.67-9.67c0,0-12.09,6.9-16.92-3.65h-1.93
		v-18.64h9.18c0,0,9.37-0.6,9.67-9.67c0,0-12.09,6.9-16.92-3.65h-1.93v-18.64h9.18c0,0,9.37-0.6,9.67-9.67c0,0-12.09,6.9-16.92-3.65
		l0,0c0,0-24.59-12.17-32.94-40.55c-8.35,28.38-32.93,40.55-32.94,40.55l0,0c-4.84,10.55-16.92,3.65-16.92,3.65
		c0.3,9.07,9.67,9.67,9.67,9.67h9.18v18.64h-1.93c-4.83,10.55-16.92,3.65-16.92,3.65c0.3,9.07,9.67,9.67,9.67,9.67h9.18v18.64h-1.93
		c-4.83,10.55-16.92,3.65-16.92,3.65c0.3,9.07,9.67,9.67,9.67,9.67h9.18v18.64h-1.93c-4.83,10.55-16.92,3.65-16.92,3.65
		c0.3,9.07,9.67,9.67,9.67,9.67h9.18v18.64h-1.93c-4.83,10.55-16.92,3.65-16.92,3.65c0.3,9.07,9.67,9.67,9.67,9.67h9.18V331h-1.93
		c-4.83,10.55-16.92,3.65-16.92,3.65c0.3,9.07,9.67,9.67,9.67,9.67h9.18v20.04H40.31c-7.63,16.66-26.72,5.76-26.72,5.76
		c0.48,14.31,15.27,15.27,15.27,15.27h3.46v49.36h6.08v0.56h107.82v-0.56h3.58v-49.36h5.96c0,0,14.79-0.95,15.27-15.27
		C171.03,370.12,151.95,381.02,144.31,364.36L144.31,364.36z"/>
</g>
<g id="Item_x5F_1" style="display:none;">
	<rect x="74.76" y="362.53" style="display:inline;fill:#E6E6E6;" width="350.21" height="71.31"/>
	<path style="display:inline;fill:#A5A5A5;" d="M243.2,381.75h14.78c6.25,0,11.33,5.08,11.33,11.33v40.77h-37.45v-40.77
		c0-6.25,5.08-11.33,11.33-11.33H243.2z"/>
	<path style="display:inline;fill:#A5A5A5;" d="M201.85,403.24h9.61c4.07,0,7.37,3.3,7.37,7.37v23.24h-24.34v-23.24
		c0-4.07,3.3-7.37,7.37-7.37H201.85z"/>
	<path style="display:inline;fill:#A5A5A5;" d="M289.28,403.24h9.61c4.07,0,7.37,3.3,7.37,7.37v23.24h-24.34v-23.24
		c0-4.07,3.3-7.37,7.37-7.37H289.28z"/>
	<rect x="110.74" y="324.76" style="display:inline;fill:#68E1FD;" width="282.97" height="31.59"/>
	<path style="display:inline;fill:#FFD200;" d="M355.61,292.85H145.58c0,0-20.84,28.98-60.89,31.91l9.77,5.21h312.27l9.77-5.21
		C376.45,321.83,355.61,292.85,355.61,292.85z"/>
	<rect x="145.34" y="259.96" style="display:inline;fill:#68E1FD;" width="210.27" height="32.89"/>
	<path style="display:inline;fill:#FFD200;" d="M350.85,254.85c-18.5-6.77-31.37-22.46-34.22-40.66c-0.52-3.3-4.27-4.95-6.97-2.97
		l-8.77,6.41v6.02c0,2.79-2.39,5.05-5.34,5.05h-91.22c-2.95,0-5.34-2.26-5.34-5.05v-6.02l-8.77-6.41c-2.7-1.97-6.45-0.33-6.97,2.97
		c-2.84,18.19-15.72,33.89-34.22,40.66c-4.81,1.76-10.27,3.48-16.48,5.11h234.77c-6.21-1.63-11.68-3.35-16.48-5.11L350.85,254.85z"
		/>
	<rect x="130.93" y="329.97" style="display:inline;fill:#FFD200;" width="7.81" height="26.38"/>
	<rect x="130.93" y="339.09" style="display:inline;fill:#FFFFFF;" width="7.81" height="8.14"/>
	<rect x="166.83" y="329.97" style="display:inline;fill:#FFD200;" width="7.81" height="26.38"/>
	<rect x="166.83" y="339.09" style="display:inline;fill:#FFFFFF;" width="7.81" height="8.14"/>
	<rect x="204.22" y="329.97" style="display:inline;fill:#FFD200;" width="7.81" height="26.38"/>
	<rect x="204.22" y="339.09" style="display:inline;fill:#FFFFFF;" width="7.81" height="8.14"/>
	<rect x="286.23" y="329.97" style="display:inline;fill:#FFD200;" width="7.81" height="26.38"/>
	<rect x="286.23" y="339.09" style="display:inline;fill:#FFFFFF;" width="7.81" height="8.14"/>
	<rect x="322.13" y="329.97" style="display:inline;fill:#FFD200;" width="7.81" height="26.38"/>
	<rect x="322.13" y="339.09" style="display:inline;fill:#FFFFFF;" width="7.81" height="8.14"/>
	<rect x="359.52" y="329.97" style="display:inline;fill:#FFD200;" width="7.81" height="26.38"/>
	<rect x="359.52" y="339.09" style="display:inline;fill:#FFFFFF;" width="7.81" height="8.14"/>
	<rect x="220.8" y="337.14" style="display:inline;fill:#24285B;" width="56.41" height="19.21"/>
	<path style="display:inline;fill:#24285B;" d="M162.25,267.78h5.17c2.19,0,3.97,1.78,3.97,3.97v12.64h-13.11v-12.64
		C158.28,269.56,160.06,267.78,162.25,267.78z"/>
	<path style="display:inline;fill:#24285B;" d="M187.06,267.78h5.17c2.19,0,3.97,1.78,3.97,3.97v12.64h-13.11v-12.64
		C183.09,269.56,184.87,267.78,187.06,267.78z"/>
	<path style="display:inline;fill:#24285B;" d="M212.4,267.78h5.17c2.19,0,3.97,1.78,3.97,3.97v12.64h-13.11v-12.64
		C208.43,269.56,210.21,267.78,212.4,267.78z"/>
	<path style="display:inline;fill:#24285B;" d="M237.22,267.78h5.17c2.19,0,3.97,1.78,3.97,3.97v12.64h-13.11v-12.64
		C233.25,269.56,235.03,267.78,237.22,267.78z"/>
	<path style="display:inline;fill:#24285B;" d="M262.21,267.78h5.17c2.19,0,3.97,1.78,3.97,3.97v12.64h-13.11v-12.64
		C258.24,269.56,260.02,267.78,262.21,267.78L262.21,267.78z"/>
	<path style="display:inline;fill:#24285B;" d="M287.02,267.78h5.17c2.19,0,3.97,1.78,3.97,3.97v12.64h-13.11v-12.64
		C283.05,269.56,284.83,267.78,287.02,267.78L287.02,267.78z"/>
	<path style="display:inline;fill:#24285B;" d="M310.66,267.78h5.17c2.19,0,3.97,1.78,3.97,3.97v12.64h-13.11v-12.64
		C306.69,269.56,308.47,267.78,310.66,267.78L310.66,267.78z"/>
	<path style="display:inline;fill:#24285B;" d="M335.48,267.78h5.17c2.19,0,3.97,1.78,3.97,3.97v12.64h-13.11v-12.64
		C331.51,269.56,333.29,267.78,335.48,267.78L335.48,267.78z"/>
</g>
<g id="Item_x5F_2" style="display:none;">
</g>
<g id="Item_x5F_2_x5F_Item_x5F_1" style="display:none;">
	<circle id="sun_china-40" style="display:inline;fill:#FFD200;" cx="243.17" cy="94.83" r="46.97"/>
</g>
<g id="Item_x5F_1_x5F_Item_x5F_2" style="display:none;">
	<rect x="38.4" y="375.85" style="display:inline;fill:#24285B;" width="107.82" height="59.46"/>
</g>
<g id="Item_x5F_1_x5F_Item_x5F_3" style="display:none;">
	<rect x="61.3" y="184.07" style="display:inline;fill:#68E1FD;" width="62.02" height="191.78"/>
</g>
<g id="Item_x5F_1_x5F_Item_x5F_4" style="display:none;">
	<rect x="61.3" y="184.07" style="display:inline;fill:#68E1FD;" width="62.02" height="191.78"/>
</g>
<g id="Item_x5F_1_x5F_Item_x5F_5" style="display:none;">
	<path style="display:inline;fill:#FFD200;" d="M144.31,364.36h-104c-7.63,16.66-26.72,5.76-26.72,5.76
		c0.48,14.31,15.27,15.27,15.27,15.27h126.9c0,0,14.79-0.95,15.27-15.27C171.03,370.12,151.95,381.02,144.31,364.36L144.31,364.36z"
		/>
</g>
<g id="Item_x5F_1_x5F_Item_x5F_6" style="display:none;">
	<path style="display:inline;fill:#FFD200;" d="M125.25,331H59.37c-4.83,10.55-16.92,3.65-16.92,3.65c0.3,9.07,9.67,9.67,9.67,9.67
		h80.38c0,0,9.37-0.6,9.67-9.67C142.17,334.65,130.08,341.55,125.25,331z"/>
</g>
<g id="Item_x5F_1_x5F_Item_x5F_7" style="display:none;">
	<path style="display:inline;fill:#FFD200;" d="M125.25,299.04H59.37c-4.83,10.55-16.92,3.65-16.92,3.65
		c0.3,9.07,9.67,9.67,9.67,9.67h80.38c0,0,9.37-0.6,9.67-9.67C142.17,302.69,130.08,309.59,125.25,299.04z"/>
</g>
<g id="Item_x5F_1_x5F_Item_x5F_8" style="display:none;">
	<path style="display:inline;fill:#FFD200;" d="M125.25,267.08H59.37c-4.83,10.55-16.92,3.65-16.92,3.65
		c0.3,9.07,9.67,9.67,9.67,9.67h80.38c0,0,9.37-0.6,9.67-9.67C142.17,270.73,130.08,277.63,125.25,267.08z"/>
</g>
<g id="Item_x5F_1_x5F_Item_x5F_9" style="display:none;">
	<path style="display:inline;fill:#FFD200;" d="M125.25,235.11H59.37c-4.83,10.55-16.92,3.65-16.92,3.65
		c0.3,9.07,9.67,9.67,9.67,9.67h80.38c0,0,9.37-0.6,9.67-9.67C142.17,238.76,130.08,245.66,125.25,235.11z"/>
</g>
<g id="Item_x5F_1_x5F_Item_x5F_10" style="display:none;">
	<path style="display:inline;fill:#FFD200;" d="M125.25,203.15H59.37c-4.83,10.55-16.92,3.65-16.92,3.65
		c0.3,9.07,9.67,9.67,9.67,9.67h80.38c0,0,9.37-0.6,9.67-9.67C142.17,206.8,130.08,213.7,125.25,203.15z"/>
</g>
<g id="Item_x5F_1_x5F_Item_x5F_11" style="display:none;">
	<path style="display:inline;fill:#FFD200;" d="M125.25,171.19L125.25,171.19c0,0-24.59-12.17-32.94-40.55
		c-8.35,28.38-32.93,40.55-32.94,40.55l0,0c-4.84,10.55-16.92,3.65-16.92,3.65c0.3,9.07,9.67,9.67,9.67,9.67h80.38
		c0,0,9.37-0.6,9.67-9.67C142.17,174.84,130.08,181.74,125.25,171.19z"/>
</g>
<g id="Item_x5F_1_x5F_Item_x5F_12" style="display:none;">
	<path style="display:inline;opacity:0.42;fill:#000001;enable-background:new    ;" d="M87.95,393.5h8.72
		c5.78,0,10.47,4.69,10.47,10.47v30.79H77.49v-30.79c0-5.78,4.69-10.47,10.47-10.47H87.95z"/>
</g>
<g id="Item_x5F_1_x5F_Item_x5F_13" style="display:none;">
	<rect x="32.32" y="385.39" style="display:inline;fill:#68E1FD;" width="12.52" height="49.36"/>
</g>
<g id="Item_x5F_1_x5F_Item_x5F_14" style="display:none;">
	<rect x="137.27" y="385.39" style="display:inline;fill:#68E1FD;" width="12.52" height="49.36"/>
</g>
<g id="Item_x5F_1_x5F_Item_x5F_15" style="display:none;">
	<path style="display:inline;fill:#24285B;" d="M73.73,188.48h3.05c2.02,0,3.66,1.64,3.66,3.66v6.71H70.06v-6.71
		c0-2.02,1.64-3.66,3.66-3.66H73.73z"/>
</g>
<g id="Item_x5F_1_x5F_Item_x5F_16" style="display:none;">
	<path style="display:inline;fill:#24285B;" d="M91.32,188.48h3.05c2.02,0,3.66,1.64,3.66,3.66v6.71H87.65v-6.71
		c0-2.02,1.64-3.66,3.66-3.66H91.32z"/>
</g>
<g id="Item_x5F_1_x5F_Item_x5F_17" style="display:none;">
	<path style="display:inline;fill:#24285B;" d="M108.73,188.48h3.05c2.02,0,3.66,1.64,3.66,3.66v6.71h-10.38v-6.71
		c0-2.02,1.64-3.66,3.66-3.66H108.73z"/>
</g>
<g id="Item_x5F_1_x5F_Item_x5F_18" style="display:none;">
	<path style="display:inline;fill:#24285B;" d="M73.73,220.6h3.05c2.02,0,3.66,1.64,3.66,3.66v6.71H70.06v-6.71
		c0-2.02,1.64-3.66,3.66-3.66H73.73z"/>
</g>
<g id="Item_x5F_1_x5F_Item_x5F_19" style="display:none;">
	<path style="display:inline;fill:#24285B;" d="M91.32,220.6h3.05c2.02,0,3.66,1.64,3.66,3.66v6.71H87.65v-6.71
		c0-2.02,1.64-3.66,3.66-3.66H91.32z"/>
</g>
<g id="Item_x5F_1_x5F_Item_x5F_20" style="display:none;">
	<path style="display:inline;fill:#24285B;" d="M108.73,220.6h3.05c2.02,0,3.66,1.64,3.66,3.66v6.71h-10.38v-6.71
		c0-2.02,1.64-3.66,3.66-3.66H108.73z"/>
</g>
<g id="Item_x5F_1_x5F_Item_x5F_21" style="display:none;">
	<path style="display:inline;fill:#24285B;" d="M73.73,252.57h3.05c2.02,0,3.66,1.64,3.66,3.66v6.71H70.06v-6.71
		c0-2.02,1.64-3.66,3.66-3.66H73.73z"/>
</g>
<g id="Item_x5F_1_x5F_Item_x5F_22" style="display:none;">
	<path style="display:inline;fill:#24285B;" d="M91.32,252.57h3.05c2.02,0,3.66,1.64,3.66,3.66v6.71H87.65v-6.71
		c0-2.02,1.64-3.66,3.66-3.66H91.32z"/>
</g>
<g id="Item_x5F_1_x5F_Item_x5F_23" style="display:none;">
	<path style="display:inline;fill:#24285B;" d="M108.73,252.57h3.05c2.02,0,3.66,1.64,3.66,3.66v6.71h-10.38v-6.71
		c0-2.02,1.64-3.66,3.66-3.66H108.73z"/>
</g>
<g id="Item_x5F_1_x5F_Item_x5F_24" style="display:none;">
	<path style="display:inline;fill:#24285B;" d="M73.73,283.83h3.05c2.02,0,3.66,1.64,3.66,3.66v6.71H70.06v-6.71
		c0-2.02,1.64-3.66,3.66-3.66H73.73z"/>
</g>
<g id="Item_x5F_1_x5F_Item_x5F_25" style="display:none;">
	<path style="display:inline;fill:#24285B;" d="M91.32,283.83h3.05c2.02,0,3.66,1.64,3.66,3.66v6.71H87.65v-6.71
		c0-2.02,1.64-3.66,3.66-3.66H91.32z"/>
</g>
<g id="Item_x5F_1_x5F_Item_x5F_26" style="display:none;">
	<path style="display:inline;fill:#24285B;" d="M108.73,283.83h3.05c2.02,0,3.66,1.64,3.66,3.66v6.71h-10.38v-6.71
		c0-2.02,1.64-3.66,3.66-3.66H108.73z"/>
</g>
<g id="Item_x5F_1_x5F_Item_x5F_27" style="display:none;">
	<path style="display:inline;fill:#24285B;" d="M73.73,316.51h3.05c2.02,0,3.66,1.64,3.66,3.66v6.71H70.06v-6.71
		c0-2.02,1.64-3.66,3.66-3.66H73.73z"/>
</g>
<g id="Item_x5F_1_x5F_Item_x5F_28" style="display:none;">
	<path style="display:inline;fill:#24285B;" d="M91.32,316.51h3.05c2.02,0,3.66,1.64,3.66,3.66v6.71H87.65v-6.71
		c0-2.02,1.64-3.66,3.66-3.66H91.32z"/>
</g>
<g id="Item_x5F_1_x5F_Item_x5F_29" style="display:none;">
	<path style="display:inline;fill:#24285B;" d="M108.73,316.51h3.05c2.02,0,3.66,1.64,3.66,3.66v6.71h-10.38v-6.71
		c0-2.02,1.64-3.66,3.66-3.66H108.73z"/>
</g>
<g id="Item_x5F_1_x5F_Item_x5F_30" style="display:none;">
	<path style="display:inline;fill:#24285B;" d="M73.73,349.15h3.05c2.02,0,3.66,1.64,3.66,3.66v6.71H70.06v-6.71
		c0-2.02,1.64-3.66,3.66-3.66H73.73z"/>
</g>
<g id="Item_x5F_1_x5F_Item_x5F_31" style="display:none;">
	<path style="display:inline;fill:#24285B;" d="M91.32,349.15h3.05c2.02,0,3.66,1.64,3.66,3.66v6.71H87.65v-6.71
		c0-2.02,1.64-3.66,3.66-3.66H91.32z"/>
</g>
<g id="Item_x5F_1_x5F_Item_x5F_32" style="display:none;">
	<path style="display:inline;fill:#24285B;" d="M108.73,349.15h3.05c2.02,0,3.66,1.64,3.66,3.66v6.71h-10.38v-6.71
		c0-2.02,1.64-3.66,3.66-3.66H108.73z"/>
</g>
<g id="Item_x5F_1_x5F_Item_x5F_33" style="display:none;">
	<path style="display:inline;opacity:0.09;fill:#000001;enable-background:new    ;" d="M144.31,364.36h-20.99v-20.04h9.18
		c0,0,9.37-0.6,9.67-9.67c0,0-12.09,6.9-16.92-3.65h-1.93v-18.64h9.18c0,0,9.37-0.6,9.67-9.67c0,0-12.09,6.9-16.92-3.65h-1.93V280.4
		h9.18c0,0,9.37-0.6,9.67-9.67c0,0-12.09,6.9-16.92-3.65h-1.93v-18.64h9.18c0,0,9.37-0.6,9.67-9.67c0,0-12.09,6.9-16.92-3.65h-1.93
		v-18.64h9.18c0,0,9.37-0.6,9.67-9.67c0,0-12.09,6.9-16.92-3.65h-1.93v-18.64h9.18c0,0,9.37-0.6,9.67-9.67c0,0-12.09,6.9-16.92-3.65
		l0,0c0,0-24.59-12.17-32.94-40.55c-8.35,28.38-32.93,40.55-32.94,40.55l0,0c-4.84,10.55-16.92,3.65-16.92,3.65
		c0.3,9.07,9.67,9.67,9.67,9.67h9.18v18.64h-1.93c-4.83,10.55-16.92,3.65-16.92,3.65c0.3,9.07,9.67,9.67,9.67,9.67h9.18v18.64h-1.93
		c-4.83,10.55-16.92,3.65-16.92,3.65c0.3,9.07,9.67,9.67,9.67,9.67h9.18v18.64h-1.93c-4.83,10.55-16.92,3.65-16.92,3.65
		c0.3,9.07,9.67,9.67,9.67,9.67h9.18v18.64h-1.93c-4.83,10.55-16.92,3.65-16.92,3.65c0.3,9.07,9.67,9.67,9.67,9.67h9.18V331h-1.93
		c-4.83,10.55-16.92,3.65-16.92,3.65c0.3,9.07,9.67,9.67,9.67,9.67h9.18v20.04H40.31c-7.63,16.66-26.72,5.76-26.72,5.76
		c0.48,14.31,15.27,15.27,15.27,15.27h3.46v49.36h6.08v0.56h107.82v-0.56h3.58v-49.36h5.96c0,0,14.79-0.95,15.27-15.27
		C171.03,370.12,151.95,381.02,144.31,364.36L144.31,364.36z"/>
</g>
<g id="Item_x5F_1_x5F_Item_x5F_34" style="display:none;">
	<rect x="353.78" y="375.85" style="display:inline;fill:#24285B;" width="107.82" height="59.46"/>
</g>
<g id="Item_x5F_1_x5F_Item_x5F_35" style="display:none;">
	<rect x="376.68" y="184.07" style="display:inline;fill:#68E1FD;" width="62.02" height="191.78"/>
</g>
<g id="Item_x5F_1_x5F_Item_x5F_36" style="display:none;">
	<rect x="376.68" y="184.07" style="display:inline;fill:#68E1FD;" width="62.02" height="191.78"/>
</g>
<g id="Item_x5F_1_x5F_Item_x5F_37" style="display:none;">
	<path style="display:inline;fill:#FFD200;" d="M459.69,364.36h-104c-7.63,16.66-26.72,5.76-26.72,5.76
		c0.48,14.31,15.27,15.27,15.27,15.27h126.9c0,0,14.79-0.95,15.27-15.27C486.41,370.12,467.33,381.02,459.69,364.36L459.69,364.36z"
		/>
</g>
<g id="Item_x5F_1_x5F_Item_x5F_38" style="display:none;">
	<path style="display:inline;fill:#FFD200;" d="M440.63,331h-65.88c-4.83,10.55-16.92,3.65-16.92,3.65c0.3,9.07,9.67,9.67,9.67,9.67
		h80.38c0,0,9.37-0.6,9.67-9.67C457.55,334.65,445.46,341.55,440.63,331z"/>
</g>
<g id="Item_x5F_1_x5F_Item_x5F_39" style="display:none;">
	<path style="display:inline;fill:#FFD200;" d="M440.63,299.04h-65.88c-4.83,10.55-16.92,3.65-16.92,3.65
		c0.3,9.07,9.67,9.67,9.67,9.67h80.38c0,0,9.37-0.6,9.67-9.67C457.55,302.69,445.46,309.59,440.63,299.04z"/>
</g>
<g id="Item_x5F_1_x5F_Item_x5F_40" style="display:none;">
	<path style="display:inline;fill:#FFD200;" d="M440.63,267.08h-65.88c-4.83,10.55-16.92,3.65-16.92,3.65
		c0.3,9.07,9.67,9.67,9.67,9.67h80.38c0,0,9.37-0.6,9.67-9.67C457.55,270.73,445.46,277.63,440.63,267.08z"/>
</g>
<g id="Item_x5F_1_x5F_Item_x5F_41" style="display:none;">
	<path style="display:inline;fill:#FFD200;" d="M440.63,235.11h-65.88c-4.83,10.55-16.92,3.65-16.92,3.65
		c0.3,9.07,9.67,9.67,9.67,9.67h80.38c0,0,9.37-0.6,9.67-9.67C457.55,238.76,445.46,245.66,440.63,235.11z"/>
</g>
<g id="Item_x5F_1_x5F_Item_x5F_42" style="display:none;">
	<path style="display:inline;fill:#FFD200;" d="M440.63,203.15h-65.88c-4.83,10.55-16.92,3.65-16.92,3.65
		c0.3,9.07,9.67,9.67,9.67,9.67h80.38c0,0,9.37-0.6,9.67-9.67C457.55,206.8,445.46,213.7,440.63,203.15z"/>
</g>
<g id="Item_x5F_1_x5F_Item_x5F_43" style="display:none;">
	<path style="display:inline;fill:#FFD200;" d="M440.63,171.19L440.63,171.19c0,0-24.59-12.17-32.94-40.55
		c-8.35,28.38-32.93,40.55-32.94,40.55l0,0c-4.84,10.55-16.92,3.65-16.92,3.65c0.3,9.07,9.67,9.67,9.67,9.67h80.38
		c0,0,9.37-0.6,9.67-9.67C457.55,174.84,445.46,181.74,440.63,171.19z"/>
</g>
<g id="Item_x5F_1_x5F_Item_x5F_44" style="display:none;">
	<path style="display:inline;opacity:0.42;fill:#000001;enable-background:new    ;" d="M403.33,393.5h8.72
		c5.78,0,10.47,4.69,10.47,10.47v30.79h-29.65v-30.79c0-5.78,4.69-10.47,10.47-10.47H403.33z"/>
</g>
<g id="Item_x5F_1_x5F_Item_x5F_45" style="display:none;">
	<rect x="347.7" y="385.39" style="display:inline;fill:#68E1FD;" width="12.52" height="49.36"/>
</g>
<g id="Item_x5F_1_x5F_Item_x5F_46" style="display:none;">
	<rect x="452.65" y="385.39" style="display:inline;fill:#68E1FD;" width="12.52" height="49.36"/>
</g>
<g id="Item_x5F_1_x5F_Item_x5F_47" style="display:none;">
	<path style="display:inline;fill:#24285B;" d="M389.11,188.48h3.05c2.02,0,3.66,1.64,3.66,3.66v6.71h-10.38v-6.71
		c0-2.02,1.64-3.66,3.66-3.66H389.11z"/>
</g>
<g id="Item_x5F_1_x5F_Item_x5F_48" style="display:none;">
	<path style="display:inline;fill:#24285B;" d="M406.7,188.48h3.05c2.02,0,3.66,1.64,3.66,3.66v6.71h-10.38v-6.71
		c0-2.02,1.64-3.66,3.66-3.66H406.7z"/>
</g>
<g id="Item_x5F_1_x5F_Item_x5F_49" style="display:none;">
	<path style="display:inline;fill:#24285B;" d="M424.11,188.48h3.05c2.02,0,3.66,1.64,3.66,3.66v6.71h-10.38v-6.71
		c0-2.02,1.64-3.66,3.66-3.66H424.11z"/>
</g>
<g id="Item_x5F_1_x5F_Item_x5F_50" style="display:none;">
	<path style="display:inline;fill:#24285B;" d="M389.11,220.6h3.05c2.02,0,3.66,1.64,3.66,3.66v6.71h-10.38v-6.71
		c0-2.02,1.64-3.66,3.66-3.66H389.11z"/>
</g>
<g id="Item_x5F_1_x5F_Item_x5F_51" style="display:none;">
	<path style="display:inline;fill:#24285B;" d="M406.7,220.6h3.05c2.02,0,3.66,1.64,3.66,3.66v6.71h-10.38v-6.71
		c0-2.02,1.64-3.66,3.66-3.66H406.7z"/>
</g>
<g id="Item_x5F_1_x5F_Item_x5F_52" style="display:none;">
	<path style="display:inline;fill:#24285B;" d="M424.11,220.6h3.05c2.02,0,3.66,1.64,3.66,3.66v6.71h-10.38v-6.71
		c0-2.02,1.64-3.66,3.66-3.66H424.11z"/>
</g>
<g id="Item_x5F_1_x5F_Item_x5F_53" style="display:none;">
	<path style="display:inline;fill:#24285B;" d="M389.11,252.57h3.05c2.02,0,3.66,1.64,3.66,3.66v6.71h-10.38v-6.71
		c0-2.02,1.64-3.66,3.66-3.66H389.11z"/>
</g>
<g id="Item_x5F_1_x5F_Item_x5F_54" style="display:none;">
	<path style="display:inline;fill:#24285B;" d="M406.7,252.57h3.05c2.02,0,3.66,1.64,3.66,3.66v6.71h-10.38v-6.71
		c0-2.02,1.64-3.66,3.66-3.66H406.7z"/>
</g>
<g id="Item_x5F_1_x5F_Item_x5F_55" style="display:none;">
	<path style="display:inline;fill:#24285B;" d="M424.11,252.57h3.05c2.02,0,3.66,1.64,3.66,3.66v6.71h-10.38v-6.71
		c0-2.02,1.64-3.66,3.66-3.66H424.11z"/>
</g>
<g id="Item_x5F_1_x5F_Item_x5F_56" style="display:none;">
	<path style="display:inline;fill:#24285B;" d="M389.11,283.83h3.05c2.02,0,3.66,1.64,3.66,3.66v6.71h-10.38v-6.71
		c0-2.02,1.64-3.66,3.66-3.66H389.11z"/>
</g>
<g id="Item_x5F_1_x5F_Item_x5F_57" style="display:none;">
	<path style="display:inline;fill:#24285B;" d="M406.7,283.83h3.05c2.02,0,3.66,1.64,3.66,3.66v6.71h-10.38v-6.71
		c0-2.02,1.64-3.66,3.66-3.66H406.7z"/>
</g>
<g id="Item_x5F_1_x5F_Item_x5F_58" style="display:none;">
	<path style="display:inline;fill:#24285B;" d="M424.11,283.83h3.05c2.02,0,3.66,1.64,3.66,3.66v6.71h-10.38v-6.71
		c0-2.02,1.64-3.66,3.66-3.66H424.11z"/>
</g>
<g id="Item_x5F_1_x5F_Item_x5F_59" style="display:none;">
	<path style="display:inline;fill:#24285B;" d="M389.11,316.51h3.05c2.02,0,3.66,1.64,3.66,3.66v6.71h-10.38v-6.71
		c0-2.02,1.64-3.66,3.66-3.66H389.11z"/>
</g>
<g id="Item_x5F_1_x5F_Item_x5F_60" style="display:none;">
	<path style="display:inline;fill:#24285B;" d="M406.7,316.51h3.05c2.02,0,3.66,1.64,3.66,3.66v6.71h-10.38v-6.71
		c0-2.02,1.64-3.66,3.66-3.66H406.7z"/>
</g>
<g id="Item_x5F_1_x5F_Item_x5F_61" style="display:none;">
	<path style="display:inline;fill:#24285B;" d="M424.11,316.51h3.05c2.02,0,3.66,1.64,3.66,3.66v6.71h-10.38v-6.71
		c0-2.02,1.64-3.66,3.66-3.66H424.11z"/>
</g>
<g id="Item_x5F_1_x5F_Item_x5F_62" style="display:none;">
	<path style="display:inline;fill:#24285B;" d="M389.11,349.15h3.05c2.02,0,3.66,1.64,3.66,3.66v6.71h-10.38v-6.71
		c0-2.02,1.64-3.66,3.66-3.66H389.11z"/>
</g>
<g id="Item_x5F_1_x5F_Item_x5F_63" style="display:none;">
	<path style="display:inline;fill:#24285B;" d="M406.7,349.15h3.05c2.02,0,3.66,1.64,3.66,3.66v6.71h-10.38v-6.71
		c0-2.02,1.64-3.66,3.66-3.66H406.7z"/>
</g>
<g id="Item_x5F_1_x5F_Item_x5F_64" style="display:none;">
	<path style="display:inline;fill:#24285B;" d="M424.11,349.15h3.05c2.02,0,3.66,1.64,3.66,3.66v6.71h-10.38v-6.71
		c0-2.02,1.64-3.66,3.66-3.66H424.11z"/>
</g>
<g id="Item_x5F_1_x5F_Item_x5F_65">
	<path style="opacity:0.09;fill:#000001;enable-background:new    ;" d="M459.69,364.36H438.7v-20.04h9.18c0,0,9.37-0.6,9.67-9.67
		c0,0-12.09,6.9-16.92-3.65h-1.93v-18.64h9.18c0,0,9.37-0.6,9.67-9.67c0,0-12.09,6.9-16.92-3.65h-1.93V280.4h9.18
		c0,0,9.37-0.6,9.67-9.67c0,0-12.09,6.9-16.92-3.65h-1.93v-18.64h9.18c0,0,9.37-0.6,9.67-9.67c0,0-12.09,6.9-16.92-3.65h-1.93
		v-18.64h9.18c0,0,9.37-0.6,9.67-9.67c0,0-12.09,6.9-16.92-3.65h-1.93v-18.64h9.18c0,0,9.37-0.6,9.67-9.67c0,0-12.09,6.9-16.92-3.65
		l0,0c0,0-24.59-12.17-32.94-40.55c-8.35,28.38-32.93,40.55-32.94,40.55l0,0c-4.84,10.55-16.92,3.65-16.92,3.65
		c0.3,9.07,9.67,9.67,9.67,9.67h9.18v18.64h-1.93c-4.83,10.55-16.92,3.65-16.92,3.65c0.3,9.07,9.67,9.67,9.67,9.67h9.18v18.64h-1.93
		c-4.83,10.55-16.92,3.65-16.92,3.65c0.3,9.07,9.67,9.67,9.67,9.67h9.18v18.64h-1.93c-4.83,10.55-16.92,3.65-16.92,3.65
		c0.3,9.07,9.67,9.67,9.67,9.67h9.18v18.64h-1.93c-4.83,10.55-16.92,3.65-16.92,3.65c0.3,9.07,9.67,9.67,9.67,9.67h9.18V331h-1.93
		c-4.83,10.55-16.92,3.65-16.92,3.65c0.3,9.07,9.67,9.67,9.67,9.67h9.18v20.04h-20.99c-7.63,16.66-26.72,5.76-26.72,5.76
		c0.48,14.31,15.27,15.27,15.27,15.27h3.46v49.36h6.08v0.56H461.6v-0.56h3.58v-49.36h5.96c0,0,14.79-0.95,15.27-15.27
		C486.41,370.12,467.33,381.02,459.69,364.36L459.69,364.36z"/>
</g>
<g id="Item_x5F_1_x5F_Item_x5F_66" style="display:none;">
	<rect x="74.76" y="362.53" style="display:inline;fill:#E6E6E6;" width="350.21" height="71.31"/>
</g>
<g id="Item_x5F_1_x5F_Item_x5F_67" style="display:none;">
	<path style="display:inline;fill:#A5A5A5;" d="M243.2,381.75h14.78c6.25,0,11.33,5.08,11.33,11.33v40.77h-37.45v-40.77
		c0-6.25,5.08-11.33,11.33-11.33H243.2z"/>
</g>
<g id="Item_x5F_1_x5F_Item_x5F_68" style="display:none;">
	<path style="display:inline;fill:#A5A5A5;" d="M201.85,403.24h9.61c4.07,0,7.37,3.3,7.37,7.37v23.24h-24.34v-23.24
		c0-4.07,3.3-7.37,7.37-7.37H201.85z"/>
</g>
<g id="Item_x5F_1_x5F_Item_x5F_69" style="display:none;">
	<path style="display:inline;fill:#A5A5A5;" d="M289.28,403.24h9.61c4.07,0,7.37,3.3,7.37,7.37v23.24h-24.34v-23.24
		c0-4.07,3.3-7.37,7.37-7.37H289.28z"/>
</g>
<g id="Item_x5F_1_x5F_Item_x5F_70" style="display:none;">
	<rect x="74.76" y="356.35" style="display:inline;fill:#A5A5A5;" width="350.21" height="6.19"/>
</g>
<g id="Item_x5F_1_x5F_Item_x5F_71" style="display:none;">
	<rect x="110.74" y="324.76" style="display:inline;fill:#68E1FD;" width="282.97" height="31.59"/>
</g>
<g id="Item_x5F_1_x5F_Item_x5F_72" style="display:none;">
	<path style="display:inline;fill:#FFD200;" d="M355.61,292.85H145.58c0,0-20.84,28.98-60.89,31.91l9.77,5.21h312.27l9.77-5.21
		C376.45,321.83,355.61,292.85,355.61,292.85z"/>
</g>
<g id="Item_x5F_1_x5F_Item_x5F_73" style="display:none;">
	<rect x="145.34" y="259.96" style="display:inline;fill:#68E1FD;" width="210.27" height="32.89"/>
</g>
<g id="Item_x5F_1_x5F_Item_x5F_74" style="display:none;">
	<path style="display:inline;fill:#FFD200;" d="M350.85,254.85c-18.5-6.77-31.37-22.46-34.22-40.66c-0.52-3.3-4.27-4.95-6.97-2.97
		l-8.77,6.41v6.02c0,2.79-2.39,5.05-5.34,5.05h-91.22c-2.95,0-5.34-2.26-5.34-5.05v-6.02l-8.77-6.41c-2.7-1.97-6.45-0.33-6.97,2.97
		c-2.84,18.19-15.72,33.89-34.22,40.66c-4.81,1.76-10.27,3.48-16.48,5.11h234.77c-6.21-1.63-11.68-3.35-16.48-5.11L350.85,254.85z"
		/>
</g>
<g id="Item_x5F_1_x5F_Item_x5F_75" style="display:none;">
	<rect x="130.93" y="329.97" style="display:inline;fill:#FFD200;" width="7.81" height="26.38"/>
</g>
<g id="Item_x5F_1_x5F_Item_x5F_76" style="display:none;">
	<rect x="130.93" y="339.09" style="display:inline;fill:#FFFFFF;" width="7.81" height="8.14"/>
</g>
<g id="Item_x5F_1_x5F_Item_x5F_77" style="display:none;">
	<rect x="166.83" y="329.97" style="display:inline;fill:#FFD200;" width="7.81" height="26.38"/>
</g>
<g id="Item_x5F_1_x5F_Item_x5F_78" style="display:none;">
	<rect x="166.83" y="339.09" style="display:inline;fill:#FFFFFF;" width="7.81" height="8.14"/>
</g>
<g id="Item_x5F_1_x5F_Item_x5F_79" style="display:none;">
	<rect x="204.22" y="329.97" style="display:inline;fill:#FFD200;" width="7.81" height="26.38"/>
</g>
<g id="Item_x5F_1_x5F_Item_x5F_80" style="display:none;">
	<rect x="204.22" y="339.09" style="display:inline;fill:#FFFFFF;" width="7.81" height="8.14"/>
</g>
<g id="Item_x5F_1_x5F_Item_x5F_81" style="display:none;">
	<rect x="286.23" y="329.97" style="display:inline;fill:#FFD200;" width="7.81" height="26.38"/>
</g>
<g id="Item_x5F_1_x5F_Item_x5F_82" style="display:none;">
	<rect x="286.23" y="339.09" style="display:inline;fill:#FFFFFF;" width="7.81" height="8.14"/>
</g>
<g id="Item_x5F_1_x5F_Item_x5F_83" style="display:none;">
	<rect x="322.13" y="329.97" style="display:inline;fill:#FFD200;" width="7.81" height="26.38"/>
</g>
<g id="Item_x5F_1_x5F_Item_x5F_84" style="display:none;">
	<rect x="322.13" y="339.09" style="display:inline;fill:#FFFFFF;" width="7.81" height="8.14"/>
</g>
<g id="Item_x5F_1_x5F_Item_x5F_85" style="display:none;">
	<rect x="359.52" y="329.97" style="display:inline;fill:#FFD200;" width="7.81" height="26.38"/>
</g>
<g id="Item_x5F_1_x5F_Item_x5F_86" style="display:none;">
	<rect x="359.52" y="339.09" style="display:inline;fill:#FFFFFF;" width="7.81" height="8.14"/>
</g>
<g id="Item_x5F_1_x5F_Item_x5F_87" style="display:none;">
	<rect x="220.8" y="337.14" style="display:inline;fill:#24285B;" width="56.41" height="19.21"/>
</g>
<g id="Item_x5F_1_x5F_Item_x5F_88" style="display:none;">
	<polygon style="display:inline;opacity:0.09;fill:#000001;enable-background:new    ;" points="84.69,324.76 416.5,324.76 
		406.73,329.97 94.46,329.97 	"/>
</g>
<g id="Item_x5F_1_x5F_Item_x5F_89" style="display:none;">
	<path style="display:inline;fill:#24285B;" d="M162.25,267.78h5.17c2.19,0,3.97,1.78,3.97,3.97v12.64h-13.11v-12.64
		C158.28,269.56,160.06,267.78,162.25,267.78z"/>
</g>
<g id="Item_x5F_1_x5F_Item_x5F_90" style="display:none;">
	<path style="display:inline;fill:#24285B;" d="M187.06,267.78h5.17c2.19,0,3.97,1.78,3.97,3.97v12.64h-13.11v-12.64
		C183.09,269.56,184.87,267.78,187.06,267.78z"/>
</g>
<g id="Item_x5F_1_x5F_Item_x5F_91" style="display:none;">
	<path style="display:inline;fill:#24285B;" d="M212.4,267.78h5.17c2.19,0,3.97,1.78,3.97,3.97v12.64h-13.11v-12.64
		C208.43,269.56,210.21,267.78,212.4,267.78z"/>
</g>
<g id="Item_x5F_1_x5F_Item_x5F_92" style="display:none;">
	<path style="display:inline;fill:#24285B;" d="M237.22,267.78h5.17c2.19,0,3.97,1.78,3.97,3.97v12.64h-13.11v-12.64
		C233.25,269.56,235.03,267.78,237.22,267.78z"/>
</g>
<g id="Item_x5F_1_x5F_Item_x5F_93" style="display:none;">
	<path style="display:inline;fill:#24285B;" d="M262.21,267.78h5.17c2.19,0,3.97,1.78,3.97,3.97v12.64h-13.11v-12.64
		C258.24,269.56,260.02,267.78,262.21,267.78L262.21,267.78z"/>
</g>
<g id="Item_x5F_1_x5F_Item_x5F_94" style="display:none;">
	<path style="display:inline;fill:#24285B;" d="M287.02,267.78h5.17c2.19,0,3.97,1.78,3.97,3.97v12.64h-13.11v-12.64
		C283.05,269.56,284.83,267.78,287.02,267.78L287.02,267.78z"/>
</g>
<g id="Item_x5F_1_x5F_Item_x5F_95" style="display:none;">
	<path style="display:inline;fill:#24285B;" d="M310.66,267.78h5.17c2.19,0,3.97,1.78,3.97,3.97v12.64h-13.11v-12.64
		C306.69,269.56,308.47,267.78,310.66,267.78L310.66,267.78z"/>
</g>
<g id="Item_x5F_1_x5F_Item_x5F_96" style="display:none;">
	<path style="display:inline;fill:#24285B;" d="M335.48,267.78h5.17c2.19,0,3.97,1.78,3.97,3.97v12.64h-13.11v-12.64
		C331.51,269.56,333.29,267.78,335.48,267.78L335.48,267.78z"/>
</g>
<g id="Item_x5F_1_x5F_Item_x5F_97" style="display:none;">
	<path style="display:inline;fill:#24285B;" d="M19.22,433.85h461.55c3.109,0,5.63,2.521,5.63,5.63v7.03
		c0,3.109-2.521,5.63-5.63,5.63H19.22c-3.109,0-5.63-2.521-5.63-5.63v-7.03C13.59,436.371,16.111,433.85,19.22,433.85z"/>
</g>
<g id="Item_x5F_1_00000126291695358530658380000006319041206155086475_" style="display:none;">
</g>
</svg>
