<?xml version='1.0' encoding='utf-8'?>
<svg xmlns:svg="http://www.w3.org/2000/svg" version="1.1" id="Layer_1" x="0px" y="0px" viewBox="0 0 500 500" style="width: 188px;" xml:space="preserve" data-imageid="dog-walking-79-12053" imageName="Dog Walking" class="illustrations_image"><svg:style type="text/css">
	.st0_dog-walking-79-12053{fill:#96CF40;}
	.st1_dog-walking-79-12053{fill:#68E1FD;}
	.st2_dog-walking-79-12053{opacity:0.76;fill:#FFFFFF;enable-background:new    ;}
	.st3_dog-walking-79-12053{opacity:0.68;fill:url(#SVGID_1_);enable-background:new    ;}
	.st4_dog-walking-79-12053{opacity:0.68;fill:url(#SVGID_00000163067432278039710290000013117433382973896857_);enable-background:new    ;}
	.st5_dog-walking-79-12053{opacity:0.68;fill:url(#SVGID_00000100359026383995393210000006329908444153720194_);enable-background:new    ;}
	.st6_dog-walking-79-12053{opacity:0.68;fill:url(#SVGID_00000009590651224818453510000012520221678495179399_);enable-background:new    ;}
	.st7_dog-walking-79-12053{opacity:0.68;fill:url(#SVGID_00000034048284832784675140000010535632714719733639_);enable-background:new    ;}
	.st8_dog-walking-79-12053{opacity:0.68;fill:url(#SVGID_00000135674646276591115840000005288573322134846362_);enable-background:new    ;}
	.st9_dog-walking-79-12053{opacity:0.68;fill:url(#SVGID_00000086674995693208269040000000997927147159073667_);enable-background:new    ;}
	.st10_dog-walking-79-12053{fill:#3E3E4A;}
	.st11_dog-walking-79-12053{fill:#FFFFFF;}
	.st12_dog-walking-79-12053{opacity:0.4;fill:#3E3E4A;enable-background:new    ;}
	.st13_dog-walking-79-12053{fill:#55555F;}
	.st14_dog-walking-79-12053{fill:#DB5531;}
	.st15_dog-walking-79-12053{fill:#2C9135;}
	.st16_dog-walking-79-12053{opacity:0.4;fill:#111224;enable-background:new    ;}
	.st17_dog-walking-79-12053{fill:#FF815A;}
	.st18_dog-walking-79-12053{fill:#111224;}
	.st19_dog-walking-79-12053{fill:#F877AF;}
	.st20_dog-walking-79-12053{opacity:0.68;fill:#111224;enable-background:new    ;}
</svg:style><svg:path class="st17_dog-walking-79-12053" d="M 193.500766063263 302.6226353444809 L 193.50114408397255 302.6338049559147 L 193.51230383988283 302.7984882133436 L 193.51339407268804 302.81189898157123 L 193.52864122846168 302.9726401551682 L 193.53013462132898 302.9863654994924 L 193.54939373630282 303.143201691223 L 193.55131718912494 303.1572221250755 L 193.57451282263585 303.3101904369052 L 193.57689236873313 303.32448259716875 L 193.60394908011799 303.47362013106294 L 193.60680939369468 303.48815667889465 L 193.6376517422903 303.6335005368188 L 193.6410156088116 303.64825013748776 L 193.6755681539549 303.78983742140747 L 193.67945591614097 303.8047648162914 L 193.7176432171688 303.94263262817213 L 193.72207221282608 303.957698809966 L 193.7638188290753 304.0918842517731 L 193.76880284016394 304.10704675073174 L 193.8140333309714 304.2375869244308 L 193.81958206579944 304.2528002091495 L 193.86822099050204 304.3797322167059 L 193.87433962239038 304.394948207662 L 193.92631154032495 304.51830915104136 L 193.9330003261964 304.533477839173 L 193.98822979669984 304.6533048203406 L 193.99548379756666 304.6683749766974 L 194.05389537997578 304.7847050976189 L 194.06170430215022 304.79962505411805 L 194.12322255580193 304.9124954167589 L 194.1315707268794 304.92721389281434 L 194.19612021111055 305.0366615991399 L 194.20498669863906 305.05112854498645 L 194.27249197278653 305.1571906969623 L 194.28185084644633 305.1713581222657 L 194.35223646984696 305.27407182185726 L 194.3620572004811 305.28789457801935 L 194.43524773247177 305.38729692719215 L 194.44549571406205 305.4007334136951 L 194.5214157139796 305.49686151441455 L 194.5320528882744 305.50987428349623 L 194.6106269154557 305.60276523772785 L 194.6216124739772 305.6153214772885 L 194.70276508775913 305.7050123869978 L 194.71405622273315 305.71708426841394 L 194.79771198245257 305.80361223556633 L 194.80926465701702 305.8151771204212 L 194.89534812201083 305.89857924698214 L 194.90711783085192 305.90961975398676 L 194.9955535604569 305.9899331419218 L 195.00749605458773 306.00043708192175 L 195.09820860814082 306.0776988331964 L 195.11028056149794 306.08765902566637 L 195.20319449833596 306.161906242246 L 195.21535409879883 306.1713202307978 L 195.31039397825867 306.2425900146479 L 195.32260143106393 306.25145970163527 L 195.41969181248243 306.3197891547214 L 195.4319097493874 306.3281203760954 L 195.53097519210144 306.393546600383 L 195.54316898462923 306.401348661648 L 195.6441340479757 306.4639087591025 L 195.65627202739182 306.471193951828 L 195.75906127070752 306.53092502441496 L 195.77111486083413 306.5377081405411 L 195.875652843456 306.59464729022585 L 195.88759661495226 306.60094514866614 L 195.9938078962171 306.6551294774143 L 196.00561955260537 306.6609604745126 L 196.11342869185006 306.71242708428963 L 196.1250889983506 306.717810776714 L 196.23442055491205 306.76659676948526 L 196.24591322127804 306.7715534953748 L 196.35669175449306 306.81769597310586 L 196.3680032826066 306.8222465148133 L 196.48015335181208 306.8657825794697 L 196.4912728579641 306.8699478691437 L 196.60471902249688 306.91091462269077 L 196.61563804319422 306.914715490252 L 196.7303048623912 306.9531500346553 L 196.74101715132196 306.95660699642866 L 196.85682918451997 306.9925464336537 L 196.86733050703123 306.995679518982 L 196.98421231356716 307.0291609509942 L 196.9945002438036 307.0319895635587 L 197.1123763830143 307.0630500923235 L 197.12245010771264 307.0655929025467 L 197.24124513893497 307.0942696300297 L 197.25110527085917 307.0965444948185 L 197.37074375343002 307.12287452298506 L 197.38039215653745 307.12489842910446 L 197.50079864979367 307.1489188599201 L 197.51023827748577 307.1507078874494 L 197.6313373407642 307.1724558228796 L 197.64057208795074 307.1740251254387 L 197.76228828058828 307.19353766744894 L 197.77132284981744 307.1949014661711 L 197.89358073115093 307.2122157167268 L 197.90242051267208 307.21338730526435 L 198.02514464203838 307.2285403663311 L 198.03379560739592 307.2295321244978 L 198.1569105441319 307.242561098041 L 198.16537915267617 307.243384512 L 198.2888094561187 307.2543264999851 L 198.29710257370613 307.2549921871842 L 198.4207728031921 307.26388429157674 L 198.42889763225946 307.26440202889466 L 198.5527323471257 307.27128135166015 L 198.56069636729626 307.2716601054685 L 198.68462012687965 307.27656374857236 L 198.69243104525566 307.27681170562573 L 198.81636840889306 307.27977677103337 L 198.82403411922033 307.27990136928184 L 198.9479096462486 307.28096495895886 L 198.95543819617694 307.28097291753187 L 199.07917644593294 307.28017213344367 L 199.08657601164865 307.28006948117917 L 199.21010154346925 307.2774414252913 L 199.21738041105098 307.2772335272913 L 199.34061778427304 307.2728153015691 L 199.347784337175 307.272506883341 L 199.4706581111354 307.26633558975004 L 199.4777208232878 307.2659307585573 L 199.60015555732338 307.2580434990631 L 199.60712299139823 307.25754576214854 L 199.72904324484588 307.24797963871646 L 199.73592405531315 307.24739191809095 L 199.85725438750973 307.2361840326866 L 199.86405732818136 307.23550867618076 L 199.9847222984637 307.22269613076946 L 199.99145623427557 307.2219349190455 L 200.1113804019806 307.20755481559286 L 200.11805432484942 307.2067089647879 L 200.23716224931394 307.19079840525933 L 200.24378529794447 307.18986856490017 L 200.36200153850538 307.1724646512612 L 200.36858302210314 307.171450897037 L 200.48583213809727 307.15259073125304 L 200.49238156398857 307.1514925521643 L 200.60858811475285 307.1312132362009 L 200.6151152199765 307.13002951551846 L 200.73020376484772 307.10836815134104 L 200.73671855183036 307.1070971407 L 200.85061365014542 307.084090830274 L 200.85712642663046 307.08273011609873 L 200.9697526377262 307.0584159613897 L 200.97627406116825 307.05696242268476 L 201.0875559443816 307.0313775256582 L 201.094097071066 307.02982728201187 L 201.20395918573374 307.0030087446332 L 201.21053152491163 307.0013570930465 L 201.31889843037067 306.97334201728125 L 201.32551400373526 306.9715833561588 L 201.43231025932246 306.9424088439724 L 201.43898166615458 306.9405365822767 L 201.54413183120678 306.91023973563455 L 201.5508723195201 306.90824618480156 L 201.65430095337422 306.87686410566926 L 201.6611244973479 306.8747403513943 L 201.76275615934074 306.84231014173724 L 201.7696775432395 306.8400458921575 L 201.869436792708 306.80660465394124 L 201.87647170136253 306.8041880600249 L 201.97428309764345 306.7697728952149 L 201.98144821330897 306.76719033831864 L 202.07723631573927 306.73183834888033 L 202.0845494208082 306.7290741893993 L 202.17823878872468 306.6928224772982 L 202.18571887321417 306.68985875709706 L 202.27723406595373 306.6527444242986 L 202.2849014378972 306.64956051412787 L 202.37416701479668 306.6116206625976 L 202.3820434105157 306.6081928439305 L 202.468983930912 306.5694645756338 L 202.47709262046934 306.56576554428545 L 202.56163264369928 306.5262859611879 L 202.56999852448695 306.5222842376493 L 202.65206260988742 306.48209044171625 L 202.66071227791554 306.4777496703975 L 202.7402249848234 306.4368787635945 L 202.74918676857115 306.43215688012776 L 202.82607265632328 306.39064596442034 L 202.8353765913453 306.3854942070256 L 202.90956021927855 306.3433803843792 L 202.91923793250433 306.33774212231805 L 202.99064385995555 306.29506249469813 L 203.00072831976183 306.28887184464594 L 203.0692811060679 306.2456635140179 L 203.07980617651776 306.2388437148206 L 203.14543038101556 306.19514378315006 L 203.15643009459555 306.18760530267843 L 203.2190502766219 306.1434508719308 L 203.23055770749968 306.1350892296027 L 203.2900984263915 306.0905174017435 L 203.30214400384844 306.081210711459 L 203.35852981894257 306.03625858845356 L 203.37113886666046 306.0258648667275 L 203.42429433729373 305.9805695505415 L 203.4602091337662 305.94676992365476 L 203.49261940171297 305.90959652032717 L 203.5212098167908 305.8694110061583 L 203.5457022185761 305.82660435202456 L 203.56585831682958 305.7815930302651 L 203.58148200985727 305.73481496275997 L 204.28148200985711 303.23481496275997 L 204.2922575051055 303.1876501492716 L 204.29842422778748 303.13966470918183 L 204.29992444181568 303.0913079073116 L 204.29674410140066 303.04303248536536 L 204.28891298255505 302.99529042312594 L 204.2765044043147 302.94852870678346 L 204.25963454228773 302.9031851440161 L 204.23846134095743 302.8596842650058 L 204.21318303492345 302.8184333477639 L 204.18403629292555 302.7798186049815 L 204.15129400202696 302.7442015681037 L 204.11526271270273 302.71191570248294 L 204.07627976875378 302.6832632853019 L 204.03471014891733 302.658512575496 L 203.99094304974503 302.6378953021727 L 203.94538824174091 302.62160449504256 L 203.89847223287532 302.6097926771737 L 203.85063427539396 302.602570436991 L 203.80232225330835 302.60000539288956 L 203.75398848907105 302.60212156015547 L 203.70608550869608 302.60889912612265 L 203.6590618049733 302.6202746356689 L 203.61335763844409 302.63614158531635 L 203.61317394323052 302.6362154986213 L 203.60517994330914 302.63938826146955 L 203.59821461456607 302.6421174484328 L 203.58860072516097 302.6458480114216 L 203.5766504016924 302.65043913676703 L 203.56240382767803 302.65585656900976 L 203.54590169577267 302.6620658679935 L 203.52718493783 302.66903251887516 L 203.5062946219776 302.67672197494517 L 203.48327190784283 302.68509967709747 L 203.45815802541088 302.69413106386537 L 203.43099426451727 302.70378157726503 L 203.4018219698361 302.7140166665356 L 203.3706825383847 302.72480179096317 L 203.33761741910877 302.73610242201016 L 203.30266811298858 302.7478840453411 L 203.26587617409328 302.76011216262384 L 203.22728321097506 302.77275229333907 L 203.18693088825586 302.78576997666465 L 203.14486092867836 302.7991307733617 L 203.10111511511002 302.81280026784515 L 203.05573529292204 302.82674407031953 L 203.00876337232825 302.84092781912466 L 202.96024133091686 302.8553171832361 L 202.91021121641558 302.86987786492426 L 202.85871514937884 302.88457560268535 L 202.80579532604844 302.8993761743835 L 202.75149402137464 302.91424540063144 L 202.69585359204982 302.92914914847097 L 202.63891647967688 302.9440533353413 L 202.58072521389965 302.9589239334047 L 202.521322415793 302.9737269741742 L 202.46075080109262 302.9884285535809 L 202.399053183599 303.00299483741907 L 202.33627247854008 303.01739206725495 L 202.27245170595063 303.0315865668124 L 202.2076339939985 303.0455447488842 L 202.14186258230646 303.0592331227912 L 202.07518082503225 303.0726183024731 L 202.00763219408614 303.08566701516696 L 201.93926028182216 303.09834611084614 L 201.8701088037651 303.11062257234033 L 201.80022160090203 303.12246352626823 L 201.72964264160765 303.1338362548024 L 201.6584160230902 303.14470820832173 L 201.58658597233492 303.1550470189889 L 201.51419684627297 303.1648205153276 L 201.44129313121474 303.17399673781887 L 201.36791944123857 303.1825439555814 L 201.29412051556017 303.19043068414976 L 201.21994121447426 303.1976257044038 L 201.1454265138358 303.2040980826495 L 201.0706214977408 303.20981719186614 L 200.99557134917774 303.2147527341039 L 200.92032133831688 303.2188747640018 L 200.84491680818664 303.2221537133583 L 200.76940315727762 303.2245604166688 L 200.6938258187703 303.22606613748917 L 200.61823023586834 303.2266425954485 L 200.54266183291762 303.2262619936671 L 200.46716598162084 303.22489704627736 L 200.39178796207995 303.2225210056597 L 200.3165729179289 303.2191076889196 L 200.24156580513952 303.21463150302793 L 200.16681133392714 303.20906746792764 L 200.09235390329118 303.20239123678857 L 200.01823752761064 303.19457911243427 L 199.94450575506335 303.18560805883624 L 199.871201577449 303.1754557063869 L 199.7983673312609 303.16410034950536 L 199.7260445901522 303.15152093498205 L 199.65427404894228 303.1376970392883 L 199.58309539977276 303.1226088329582 L 199.5125472013599 303.1062370300531 L 199.44266674265026 303.088562820651 L 199.37348990272224 303.06956778432493 L 199.30505100928582 303.0492337826619 L 199.23738269879058 303.0275428290983 L 199.17051578166922 303.0044769346497 L 199.10447911698785 302.98001792862703 L 199.039299501297 302.95414725405857 L 198.97500157707088 302.9268457383797 L 198.91160776648528 302.89809334093803 L 198.84913823659957 302.8678688800622 L 198.78761090191324 302.8361497437062 L 198.72704147005805 302.8029115891176 L 198.66744353571573 302.7681280383834 L 198.60882872676387 302.73177037803083 L 198.55120690532578 302.69380727210415 L 198.49458642442937 302.65420449894873 L 198.4389744389578 302.6129247225188 L 198.3843772669927 302.5699273089034 L 198.33080079525632 302.5251681982524 L 198.27825091971619 302.47859984094487 L 198.22673401018767 302.4301712049875 L 198.17625738588256 302.3798278591688 L 198.12682978746028 302.32751213347217 L 198.0778026589893 302.27242267518056 L 198.02916855204347 302.2148451207383 L 197.9821655881748 302.15662312181297 L 197.93738692860882 302.09852489692196 L 197.89478484454145 302.0405588143746 L 197.85431145231908 301.9827317452318 L 197.81591885580232 301.9250490260458 L 197.77955929837452 301.8675144403298 L 197.74518532219554 301.81013022064116 L 197.71274993185907 301.75289707270326 L 197.68220675932184 301.6958142225643 L 197.65351022665797 301.6388794871042 L 197.62661570308728 301.5820893676142 L 197.6014796527162 301.5254391655123 L 197.57805976950598 301.46892311849365 L 197.55631509630106 301.41253455489294 L 197.53620612507103 301.35626606331425 L 197.51769487607703 301.30010967421447 L 197.50074495423524 301.24405704967694 L 197.4853215816226 301.1880996774012 L 197.47139160577206 301.13222906486214 L 197.45892348409757 301.0764369296485 L 197.44788724545447 301.02071538218524 L 197.43825443045466 300.9650570974289 L 197.429998012663 300.90945547251175 L 197.4230923032287 300.8539047679199 L 197.41751284178858 300.7984002302931 L 197.4132362766654 300.7429381956325 L 197.41024023743134 300.68751617222097 L 197.40850320285813 300.6321329031959 L 197.40800436712343 300.5767884092335 L 197.40872350690978 300.5214840122066 L 197.41064085174463 300.4662223411368 L 197.4137369595954 300.4110073219736 L 197.41799259937912 300.3558441530107 L 197.4233886416855 300.30073926782984 L 197.42990595866127 300.2457002877418 L 197.43752533367245 300.19073596567523 L 197.446227381061 300.13585612340455 L 197.45599247604773 300.08107158388657 L 197.46680069460797 300.02639410034965 L 197.47863176295564 299.9718362836281 L 197.49146501614086 299.91741152898874 L 197.50527936513078 299.86313394364544 L 197.5200532716985 299.809018275833 L 197.53576473036844 299.75507984627524 L 197.55239125668817 299.70133448256456 L 197.56990988103183 299.64779845706045 L 197.58829714724408 299.5944884284819 L 197.6075291153866 299.54142138752667 L 197.6275813679359 299.48861460658975 L 197.64842901881298 299.43608559362707 L 197.67004672468732 299.383852050109 L 197.69240869801746 299.33193183304 L 197.71548872140016 299.2803429208289 L 197.7392601627935 299.2291033829112 L 197.76369599125374 299.1782313529327 L 197.78876879288947 299.1277450052498 L 197.81445078673065 299.07766253460085 L 197.8407138402936 299.028002138698 L 197.8675294846114 298.97878200358053 L 197.89486892860026 298.9300202914421 L 197.9227030725458 298.8817351308588 L 197.95100252061096 298.83394460917174 L 197.97973759225283 298.78666676685253 L 198.00887833240876 298.73991959375826 L 198.03839452039415 298.6937210270713 L 198.06825567734174 298.6480889509279 L 198.09843107219808 298.6030411974552 L 198.1288897260488 298.55859554933755 L 198.15960041473753 298.51476974372866 L 198.19053166964702 298.47158147747996 L 198.22165177645869 298.4290484137239 L 198.2529287717612 298.3871881897535 L 198.2843304372816 298.34601842626205 L 198.31582429153102 298.3055567379517 L 198.34737757851852 298.26582074566716 L 198.37895725330557 298.22682809001304 L 198.41052996382894 298.188596446797 L 198.44206202868142 298.1511435442404 L 198.47351941008043 298.11448718238296 L 198.50486768141116 298.0786452548057 L 198.53607198842127 298.0436357730393 L 198.56709700296906 298.0094768940656 L 198.59790686806733 297.97618695130234 L 198.6284651325098 297.9437844897281 L 198.65873467320694 297.9122883056675 L 198.68867760259909 297.88171749219237 L 198.71825515826623 297.8520914908636 L 198.74742757066932 297.8234301511513 L 198.77615390437873 297.795753798651 L 198.8043918664696 297.769083313862 L 198.83209757449126 297.7434402231842 L 198.85922527373452 297.7188468045943 L 198.8857269911677 297.69532621030766 L 198.9115521089338 297.67290260970253 L 198.93664683561207 297.65160135570716 L 198.96095354585543 297.6314491786704 L 198.98440994967353 297.6124744116211 L 199.00954228767773 297.59266216030977 L 199.04658801718702 297.5603841649438 L 199.08028673919978 297.5246259324032 L 199.11031302447552 297.48573278066334 L 199.13637690856962 297.4440803016777 L 199.15822669202586 297.4000707342788 L 199.17565137104322 297.3541290797498 L 199.18848267514377 297.3066989975782 L 199.19659669216412 297.25823852102764 L 199.19991506487764 297.2092156339007 L 199.19840574769194 297.1601037512108 L 199.1920833161136 297.1113771474028 L 199.18100882599234 297.063506376276 L 199.16528922390336 297.016953726836 L 199.14507631436223 296.97216875896055 L 199.12056529384546 296.9295839619909 L 199.09199286577424 296.88961057817323 L 199.05963495466474 296.85263463128405 L 199.02380404151944 296.81901319879086 L 198.98484614619173 296.7890709635477 L 198.9431374858653 296.76309707832627 L 198.89908084191703 296.7413423734619 L 198.85310167024917 296.72401693457977 L 198.80564399265313 296.7112880737937 L 198.7571661088819 296.70327871397 L 198.70813617084025 296.7000662016586 L 198.70661633004912 296.700041467015 L 198.7040925277789 296.70000676502957 L 198.6995754665431 296.6999560590101 L 198.69674340716742 296.6999322895159 L 198.68929281719466 296.69989085898777 L 198.68636271621637 296.69988315124635 L 198.67604228921397 296.69988624307683 L 198.6730359103183 296.69989618215186 L 198.6599093379937 296.6999790432081 L 198.6568312959299 296.70000794861465 L 198.64096226999044 296.7002058257639 L 198.63781318586825 296.7002550128583 L 198.61926539802144 296.7006031529677 L 198.6160445288514 296.7006739892017 L 198.59488167080454 296.70120763913843 L 198.5915876825996 296.70130156411466 L 198.56787344606013 296.702055970746 L 198.56450469866596 296.7021745069227 L 198.5383027753413 296.70318491711583 L 198.53485744467562 296.7033296775829 L 198.50623152627315 296.704631338205 L 198.50270766311482 296.7048040334977 L 198.47172144134194 296.706432191416 L 198.46811700237254 296.7066346360806 L 198.43483416893665 296.7086245381623 L 198.43114703459565 296.70885865737057 L 198.39563128120417 296.7112455504829 L 198.39185926692235 296.71151338683234 L 198.35417428528268 296.7143325178425 L 198.3503151492907 296.71463623840947 L 198.31052463111024 296.7179228541846 L 198.30657608049074 296.7182647578674 L 198.26474371747685 296.72205410527476 L 198.26070341340548 296.7224366304447 L 198.2168928972656 296.7267639563514 L 198.21275845999892 296.7271896888192 L 198.16703348244047 296.7320902400926 L 198.16280249642097 296.7325619213895 L 198.1152267491513 296.73807094489666 L 198.11089676846458 296.73859148086467 L 198.06153394319114 296.7447442234729 L 198.0571024976002 296.74531669314564 L 198.00601628603036 296.7521484017221 L 198.0014808877159 296.75277606647836 L 197.9487349815571 296.7603219878902 L 197.94409313272718 296.7610083008471 L 197.88975122368674 296.76930368196156 L 197.885000425181 296.77005229756736 L 197.82912620496643 296.77913238525167 L 197.82426396599143 296.7799471690279 L 197.76692112631005 296.7898472101492 L 197.76194497542986 296.79073224851805 L 197.7031972079891 296.8014874899436 L 197.6981047055111 296.8024471000624 L 197.63801570201838 296.8140927886595 L 197.63280445391268 296.8151315281674 L 197.57143790607535 296.82770291080305 L 197.56610557955315 296.82882558736975 L 197.50352517907868 296.84235791091123 L 197.49806951999395 296.8435695914504 L 197.43433895858968 296.8580981027649 L 197.42875781078823 296.85940412215876 L 197.36394078016158 296.87496406811357 L 197.3582321069298 296.8763700372659 L 197.29239229878817 296.8929966647281 L 197.28655420653874 296.8945084777342 L 197.21975531258954 296.9122370335711 L 197.2137860769203 296.9138608737644 L 197.14609178887093 296.9327266048432 L 197.13998988311633 296.934468949444 L 197.07146389267422 296.9545071026318 L 197.06522801905882 296.9563747256888 L 196.99593401793135 296.97762054785295 L 196.9895631414213 296.9796205211278 L 196.91956482131584 297.00210925913535 L 196.9130582062094 297.0042489505504 L 196.8424192588334 297.0280158512686 L 196.83577650813757 297.03030292048606 L 196.76456062519838 297.0553832307822 L 196.7577817227545 297.05782562145714 L 196.68605259595955 297.0842545881983 L 196.67913795124772 297.08686051640365 L 196.60695927230444 297.1146733864571 L 196.59990976779164 297.11745132474505 L 196.5273452284074 297.146683344978 L 196.5201622692075 297.14964200152195 L 196.4472755610897 297.1803284188016 L 196.43996112663925 297.18347671103265 L 196.36681594149528 297.2156527722261 L 196.35937263881786 297.2189997943777 L 196.28603266835515 297.2527007463523 L 196.27846378639526 297.2562557303239 L 196.2049927223212 297.2915168199468 L 196.19730228667424 297.2952890889281 L 196.12376382069624 297.3321455630665 L 196.11595664794177 297.3361444773976 L 196.0424144717672 297.3746315829187 L 196.03449622244918 297.3788664777388 L 195.9610140277855 297.4190194615098 L 195.95299125693606 297.4234995758379 L 195.8796327354906 297.465353684726 L 195.87151293943234 297.4700880817547 L 195.79834178291256 297.5136785626271 L 195.79013344093224 297.5186760411703 L 195.7172133410455 297.5640381408942 L 195.708925950382 297.56930713814376 L 195.6363205988357 297.61647610358636 L 195.62796470132756 297.622024589566 L 195.55573778982915 297.67103566759454 L 195.54732498846175 297.67687103199347 L 195.4755402087186 297.72775946947513 L 195.46708317228527 297.733888401853 L 195.3958042160048 297.786689445655 L 195.3873166700979 297.7931178103618 L 195.3166072289875 297.8478667073513 L 195.30810393161525 297.85459941487153 L 195.23802769738228 297.91133141191574 L 195.2295243976608 297.91837228871725 L 195.16014506201273 297.9771226326834 L 195.15165844061164 297.98447429202497 L 195.08303969525582 298.04527822978025 L 195.07458728560493 298.0529419462667 L 195.0067928222488 298.1158347246783 L 194.99839291192774 298.1238103156434 L 194.93148642227868 298.1888271815785 L 194.92315793450803 298.1971128986007 L 194.85720311027342 298.2642890989266 L 194.84896546600888 298.2728815329036 L 194.78402599889617 298.34225231448744 L 194.77589896065996 298.3511463177123 L 194.71203854237652 298.42274692742126 L 194.7040420416413 298.4319355559735 L 194.64132436389454 298.5058012406748 L 194.6334783145152 298.5152757201727 L 194.57196706901252 298.5914417267336 L 194.56429116986286 298.60119144406946 L 194.50405004831168 298.67969301935705 L 194.4965635788807 298.6897055424613 L 194.4376562729884 298.77057793334285 L 194.4303778861863 298.78083906031844 L 194.3728680876603 298.8641175136612 L 194.36581560445183 298.8746113517974 L 194.3097670049995 298.9603311144685 L 194.30295721567424 298.97104018875143 L 194.248433507003 299.0592365076181 L 194.241881983912 299.0701418973989 L 194.18894685772926 299.16085001932834 L 194.18266778411987 299.1719315208879 L 194.131384932133 299.26518669274725 L 194.125390951336 299.27642300460974 L 194.07582406525242 299.3722604732663 L 194.07012615390192 299.3836294003408 L 194.02233892542907 299.4820844126618 L 194.0169462936647 299.49356308466946 L 193.9710024145099 299.59467088752194 L 193.96592243525998 299.60623598671634 L 193.9218855971307 299.7100318269677 L 193.91712376564615 299.7216598199109 L 193.87505766024978 299.82817894442815 L 193.8706175840912 299.8398463125703 L 193.8305859031351 299.94912396822076 L 193.82646932188234 299.960807432197 L 193.788535757074 300.0728788658478 L 193.78474259014766 300.0845555987957 L 193.7489708331944 300.1994560573142 L 193.74549925341287 300.2111038830508 L 193.7119529960221 300.328868613304 L 193.7087995258887 300.340466185874 L 193.67754245976786 300.4611304347293 L 193.67470208701303 300.47265739659355 L 193.6457979038695 300.596256410918 L 193.64326421246722 300.60769352786565 L 193.61677660400838 300.7342625545265 L 193.6145419167582 300.74559182618776 L 193.59053457469147 300.8751661120522 L 193.58859010347408 300.88637085767596 L 193.5671267195069 301.01898564961124 L 193.56546271948602 301.0300505694701 L 193.54660698532572 301.1657411143434 L 193.54521290964357 301.1766523277549 L 193.52902851699758 301.31545387243335 L 193.527893168876 301.3261989338872 L 193.51444380945173 301.4681467252381 L 193.5135554890342 301.4787146205297 L 193.50290485453905 301.6238439054202 L 193.50225149826815 301.634225029964 L 193.49446328040955 301.78257105526137 L 193.49403259120038 301.79275717693866 L 193.48917048168568 301.9443551895101 L 193.488950048613 301.95433939847607 L 193.4870777391496 302.10922464518865 L 193.48705514579484 302.11900129305127 L 193.4882363280902 302.2772090207723 L 193.48839924908268 302.2867736514735 L 193.49269761484416 302.4483391070701 L 193.49303390047277 302.4576883816577 L 193.50051314140777 302.62264681199724 L 193.500766063263 302.6226353444809 Z" id="element_113" /></svg>