<?xml version='1.0' encoding='utf-8'?>
<svg xmlns:svg="http://www.w3.org/2000/svg" version="1.1" id="Layer_1" x="0px" y="0px" viewBox="0 0 500 500" style="width: 188px;" xml:space="preserve" data-imageid="dog-walking-79-12053" imageName="Dog Walking" class="illustrations_image"><svg:style type="text/css">
	.st0_dog-walking-79-12053{fill:#96CF40;}
	.st1_dog-walking-79-12053{fill:#68E1FD;}
	.st2_dog-walking-79-12053{opacity:0.76;fill:#FFFFFF;enable-background:new    ;}
	.st3_dog-walking-79-12053{opacity:0.68;fill:url(#SVGID_1_);enable-background:new    ;}
	.st4_dog-walking-79-12053{opacity:0.68;fill:url(#SVGID_00000163067432278039710290000013117433382973896857_);enable-background:new    ;}
	.st5_dog-walking-79-12053{opacity:0.68;fill:url(#SVGID_00000100359026383995393210000006329908444153720194_);enable-background:new    ;}
	.st6_dog-walking-79-12053{opacity:0.68;fill:url(#SVGID_00000009590651224818453510000012520221678495179399_);enable-background:new    ;}
	.st7_dog-walking-79-12053{opacity:0.68;fill:url(#SVGID_00000034048284832784675140000010535632714719733639_);enable-background:new    ;}
	.st8_dog-walking-79-12053{opacity:0.68;fill:url(#SVGID_00000135674646276591115840000005288573322134846362_);enable-background:new    ;}
	.st9_dog-walking-79-12053{opacity:0.68;fill:url(#SVGID_00000086674995693208269040000000997927147159073667_);enable-background:new    ;}
	.st10_dog-walking-79-12053{fill:#3E3E4A;}
	.st11_dog-walking-79-12053{fill:#FFFFFF;}
	.st12_dog-walking-79-12053{opacity:0.4;fill:#3E3E4A;enable-background:new    ;}
	.st13_dog-walking-79-12053{fill:#55555F;}
	.st14_dog-walking-79-12053{fill:#DB5531;}
	.st15_dog-walking-79-12053{fill:#2C9135;}
	.st16_dog-walking-79-12053{opacity:0.4;fill:#111224;enable-background:new    ;}
	.st17_dog-walking-79-12053{fill:#FF815A;}
	.st18_dog-walking-79-12053{fill:#111224;}
	.st19_dog-walking-79-12053{fill:#F877AF;}
	.st20_dog-walking-79-12053{opacity:0.68;fill:#111224;enable-background:new    ;}
</svg:style><svg:path x="341.2" y="206.4" class="st10_dog-walking-79-12053" width="4.2" height="99.9" id="element_42" d="M 345.4 216.6646354362587 L 345.2703890155692 216.69000364837754 L 345.26247289453454 216.69148694150854 L 345.0675189679614 216.72639381042214 L 345.059595229471 216.727746926597 L 344.86450588072387 216.7594500407917 L 344.85657706466884 216.7606733110831 L 344.6613869222488 216.78918627461292 L 344.6534554897047 216.79028009710836 L 344.4581991821129 216.81561651402728 L 344.4502675140591 216.81658134809132 L 344.2549796697967 216.83875482245332 L 344.2470500662545 216.83959118301792 L 344.0517653138225 216.85861531887707 L 344.04383999339694 216.85932377078785 L 343.8485929612965 216.87521217219816 L 343.8406740611091 216.8757933246424 L 343.64549937784136 216.88855959565782 L 343.63758895383495 216.88901409669808 L 343.442521247901 216.89867184137265 L 343.4346212755011 216.89900037260807 L 343.23969517540206 216.9055631949958 L 343.2318075505145 216.90576646637118 L 343.03705768475146 216.90924797052608 L 343.02918422507923 216.90932671530626 L 342.83464522215337 216.90974050528234 L 342.8267876688114 216.90969547520925 L 342.63249415722373 216.9070551550605 L 342.624654176633 216.90688711570579 L 342.43064078488464 216.90120628948625 L 342.42281997092437 216.90091601581332 L 342.2291213275165 216.89220828757698 L 342.22132120391643 216.89179655972254 L 342.0279719373502 216.88007553352338 L 342.0201939603012 216.87954313280804 L 341.8272286990776 216.8648224127001 L 341.8194742600423 216.8641701178757 L 341.6269276326625 216.846463307913 L 341.6191980613662 216.845691891653 L 341.4271046963313 216.82501259588952 L 341.4194012639163 216.82412282152765 L 341.2277957897274 216.80048464401742 L 341.2201197120494 216.7994772625383 L 341.2 216.7966782087744 L 341.2 278.61077648504835 L 341.2865828381745 278.59030116872174 L 341.74857661372766 278.5076491606695 L 342.22454838991933 278.4480367989919 L 342.7099142983522 278.4120381833195 L 343.2 278.4 L 343.6900857016478 278.4120381833195 L 344.17545161008064 278.4480367989919 L 344.6514233862723 278.5076491606695 L 345.11341716182545 278.59030116872174 L 345.4 278.6580729626375 L 345.4 216.6646354362587 Z" /></svg>