<?xml version='1.0' encoding='utf-8'?>
<svg xmlns:svg="http://www.w3.org/2000/svg" version="1.1" id="Layer_1" x="0px" y="0px" viewBox="0 0 500 500" style="width: 188px;" xml:space="preserve" data-imageid="dog-walking-79-12053" imageName="Dog Walking" class="illustrations_image"><svg:style type="text/css">
	.st0_dog-walking-79-12053{fill:#96CF40;}
	.st1_dog-walking-79-12053{fill:#68E1FD;}
	.st2_dog-walking-79-12053{opacity:0.76;fill:#FFFFFF;enable-background:new    ;}
	.st3_dog-walking-79-12053{opacity:0.68;fill:url(#SVGID_1_);enable-background:new    ;}
	.st4_dog-walking-79-12053{opacity:0.68;fill:url(#SVGID_00000163067432278039710290000013117433382973896857_);enable-background:new    ;}
	.st5_dog-walking-79-12053{opacity:0.68;fill:url(#SVGID_00000100359026383995393210000006329908444153720194_);enable-background:new    ;}
	.st6_dog-walking-79-12053{opacity:0.68;fill:url(#SVGID_00000009590651224818453510000012520221678495179399_);enable-background:new    ;}
	.st7_dog-walking-79-12053{opacity:0.68;fill:url(#SVGID_00000034048284832784675140000010535632714719733639_);enable-background:new    ;}
	.st8_dog-walking-79-12053{opacity:0.68;fill:url(#SVGID_00000135674646276591115840000005288573322134846362_);enable-background:new    ;}
	.st9_dog-walking-79-12053{opacity:0.68;fill:url(#SVGID_00000086674995693208269040000000997927147159073667_);enable-background:new    ;}
	.st10_dog-walking-79-12053{fill:#3E3E4A;}
	.st11_dog-walking-79-12053{fill:#FFFFFF;}
	.st12_dog-walking-79-12053{opacity:0.4;fill:#3E3E4A;enable-background:new    ;}
	.st13_dog-walking-79-12053{fill:#55555F;}
	.st14_dog-walking-79-12053{fill:#DB5531;}
	.st15_dog-walking-79-12053{fill:#2C9135;}
	.st16_dog-walking-79-12053{opacity:0.4;fill:#111224;enable-background:new    ;}
	.st17_dog-walking-79-12053{fill:#FF815A;}
	.st18_dog-walking-79-12053{fill:#111224;}
	.st19_dog-walking-79-12053{fill:#F877AF;}
	.st20_dog-walking-79-12053{opacity:0.68;fill:#111224;enable-background:new    ;}
</svg:style><svg:path class="st19_dog-walking-79-12053" d="M 174.5940746835403 190.20806740939545 L 174.48801407747973 190.35554215687014 L 174.38195347141908 190.50301690434495 L 174.27589286535851 190.65049165181964 L 174.16983225929786 190.79796639929444 L 173.9577110471767 191.09291589424387 L 173.85165044111605 191.24039064171868 L 173.6395292289949 191.5353401366681 L 173.53346862293424 191.6828148841429 L 173.42740801687364 191.83028963161763 L 173.32134741081302 191.97776437909243 L 173.10922619869186 192.27271387404187 L 173.0031655926312 192.42018862151667 L 172.89710498657064 192.56766336899136 L 172.79104438051 192.71513811646616 L 172.57892316838883 193.0100876114156 L 172.47286256232817 193.1575623588904 L 172.260741350207 193.45251185383984 L 172.15468074414636 193.59998660131464 L 172.0486201380858 193.74746134878933 L 171.94255953202514 193.89493609626413 L 171.73043831990398 194.18988559121357 L 171.62437771384333 194.33736033868837 L 171.51831710778274 194.4848350861631 L 171.4122565017221 194.6323098336379 L 171.20013528960095 194.92725932858733 L 171.0940746835403 195.07473407606213 L 170.88195347141914 195.36968357101156 L 170.7758928653585 195.51715831848637 L 170.66983225929792 195.66463306596106 L 170.56377165323727 195.81210781343586 L 170.3516504411161 196.1070573083853 L 170.24558983505545 196.2545320558601 L 170.0334686229343 196.54948155080953 L 169.92740801687364 196.69695629828433 L 169.82134741081308 196.84443104575902 L 169.71528680475242 196.99190579323383 L 169.50316559263126 197.28685528818326 L 169.3971049865706 197.43433003565806 L 169.29104438051002 197.58180478313278 L 169.1849837744494 197.72927953060758 L 168.97286256232823 198.02422902555702 L 168.86680195626758 198.17170377303182 L 168.760741350207 198.3191785205065 L 168.65468074414636 198.46665326798131 L 168.4425595320252 198.76160276293075 L 168.33649892596455 198.90907751040555 L 168.1243777138434 199.204027005355 L 168.01831710778274 199.3515017528298 L 167.91225650172217 199.49897650030448 L 167.80619589566152 199.64645124777928 L 167.59407468354036 199.94140074272872 L 167.4880140774797 200.08887549020352 L 167.27589286535851 200.38382498515298 L 167.1698322592979 200.5312997326278 L 167.06377165323732 200.67877448010248 L 166.95771104717667 200.82624922757728 L 166.7455898350555 201.1211987225267 L 166.63952922899486 201.26867347000152 L 166.5334686229343 201.4161482174762 L 166.42740801687364 201.563622964951 L 166.21528680475248 201.85857245990044 L 166.10922619869183 202.00604720737525 L 165.89710498657067 202.30099670232468 L 165.79104438051002 202.44847144979948 L 165.68498377444945 202.59594619727417 L 165.5789231683888 202.74342094474898 L 165.36680195626764 203.0383704396984 L 165.26074135020698 203.18584518717321 L 165.1546807441464 203.33331993464793 L 165.04862013808577 203.48079468212273 L 164.8364989259646 203.77574417707217 L 164.73043831990395 203.92321892454697 L 164.5183171077828 204.2181684194964 L 164.41225650172214 204.3656431669712 L 164.30619589566157 204.5131179144459 L 164.20013528960092 204.6605926619207 L 164.09407468354033 204.80806740939545 L 164.06748032182477 204.84914799583981 L 164.04502928177405 204.89263161871455 L 164.0269366330956 204.93810172671385 L 164.01337569429262 204.9851227390004 L 164.0044763723598 205.0332442178514 L 164.00032391833946 205.08200518362608 L 164.00095811065916 205.13093853071956 L 164.00637287407443 205.1795755022004 L 164.01651633786662 205.22745018026686 L 164.03129133273814 205.27410394950599 L 164.0505563216459 205.3190898901992 L 164.07412675565502 205.36197705958926 L 164.10177684182517 205.40235462009574 L 164.18460512465344 205.51144552918663 L 164.2674334074817 205.6205364382775 L 164.35026169031002 205.72962734736848 L 164.43308997313835 205.83871825645943 L 164.51591825596654 205.9478091655502 L 164.59874653879487 206.0569000746412 L 164.68157482162314 206.1659909837321 L 164.76440310445145 206.275081892823 L 164.84723138727966 206.38417280191385 L 164.930059670108 206.49326371100483 L 165.01288795293627 206.60235462009572 L 165.09571623576457 206.71144552918665 L 165.1785445185928 206.8205364382775 L 165.26137280142117 206.92962734736852 L 165.34420108424936 207.0387182564593 L 165.4270293670777 207.14780916555029 L 165.50985764990597 207.25690007464118 L 165.59268593273427 207.3659909837321 L 165.6755142155625 207.47508189282294 L 165.75834249839087 207.58417280191398 L 165.84117078121906 207.69326371100476 L 165.9239990640474 207.80235462009574 L 166.0068273468756 207.91144552918658 L 166.089655629704 208.02053643827762 L 166.1724839125322 208.1296273473684 L 166.25531219536052 208.23871825645938 L 166.3381404781888 208.34780916555027 L 166.4209687610171 208.4569000746412 L 166.5037970438453 208.56599098373204 L 166.5866253266737 208.67508189282307 L 166.6694536095019 208.78417280191385 L 166.75228189233022 208.89326371100483 L 166.8351101751585 209.00235462009573 L 166.9179384579868 209.11144552918665 L 167.000766740815 209.2205364382775 L 167.0835950236434 209.32962734736853 L 167.1664233064716 209.4387182564593 L 167.24925158929992 209.5478091655503 L 167.3320798721282 209.6569000746412 L 167.4149081549565 209.7659909837321 L 167.4977364377847 209.87508189282295 L 167.58056472061304 209.98417280191393 L 167.6633930034413 210.09326371100482 L 167.74622128626962 210.20235462009575 L 167.82904956909783 210.31144552918659 L 167.91187785192622 210.42053643827762 L 167.9947061347544 210.5296273473684 L 168.07753441758274 210.63871825645938 L 168.160362700411 210.74780916555028 L 168.24319098323932 210.8569000746412 L 168.32601926606753 210.96599098373204 L 168.40884754889592 211.07508189282308 L 168.4916758317241 211.18417280191386 L 168.57450411455244 211.29326371100484 L 168.6573323973807 211.40235462009574 L 168.74016068020902 211.51144552918666 L 168.82298896303723 211.6205364382775 L 168.90581724586556 211.72962734736848 L 168.98864552869384 211.83871825645937 L 169.07147381152214 211.9478091655503 L 169.15430209435036 212.05690007464113 L 169.23713037717874 212.16599098373217 L 169.31995866000693 212.27508189282295 L 169.40278694283526 212.38417280191393 L 169.48561522566354 212.49326371100483 L 169.56844350849184 212.60235462009575 L 169.65127179132006 212.7114455291866 L 169.73410007414844 212.82053643827763 L 169.81692835697663 212.9296273473684 L 169.89975663980496 213.0387182564594 L 169.98258492263324 213.14780916555029 L 170.06541320546154 213.2569000746412 L 170.14824148828976 213.36599098373205 L 170.2310697711181 213.47508189282303 L 170.31389805394636 213.58417280191392 L 170.39672633677466 213.69326371100485 L 170.47955461960288 213.80235462009568 L 170.56238290243127 213.91144552918672 L 170.64521118525946 214.0205364382775 L 170.7280394680878 214.12962734736848 L 170.81086775091606 214.23871825645938 L 170.89369603374436 214.3478091655503 L 170.97652431657258 214.45690007464114 L 171.05935259940097 214.56599098373218 L 171.14218088222916 214.67508189282296 L 171.2250091650575 214.78417280191394 L 171.30783744788576 214.89326371100483 L 171.39066573071406 215.00235462009576 L 171.47349401354228 215.1114455291866 L 171.5563222963706 215.22053643827758 L 171.63915057919888 215.32962734736847 L 171.72197886202719 215.4387182564594 L 171.8048071448554 215.54780916555023 L 171.8876354276838 215.65690007464127 L 171.97046371051198 215.76599098373205 L 172.0532919933403 215.87508189282303 L 172.13612027616858 215.98417280191393 L 172.21894855899689 216.09326371100485 L 172.30177684182516 216.20235462009575 L 172.32795310398092 216.23403758345816 L 172.3566429251869 216.26346377973022 L 172.38765247622294 216.29043440472162 L 172.4269249533148 216.31884366878094 L 172.46876369547502 216.34331678455666 L 172.51277551664063 216.3636237621508 L 172.5585468089019 216.37957376359455 L 172.60564742944683 216.39101689627762 L 172.65363474289495 216.39784562158735 L 172.7020577810317 216.3999957655194 L 172.97558686845733 216.39887003005023 L 172.9797531459003 216.39883552412624 L 173.24884916681756 216.39548552582676 L 173.25307517437486 216.3954150504233 L 173.51777399401703 216.3898816014555 L 173.52206009438024 216.38977361548703 L 173.78239757798065 216.38209752801296 L 173.78674409034136 216.3819504484602 L 174.04275610313329 216.3721725346419 L 174.04716329975926 216.37198473693456 L 174.29888570697602 216.36014580893402 L 174.30335380966162 216.35991562750166 L 174.55082247653647 216.3460564974809 L 174.55535165293017 216.34578222648625 L 174.7986024446964 216.32994370660734 L 174.80319280451263 216.32962360087612 L 175.04226158640358 216.31184650330104 L 175.04691317752412 216.31147877946327 L 175.28183581477305 216.29180391635404 L 175.28654861924804 216.2913867542117 L 175.51736097708826 216.26985493773037 L 175.52213490704654 216.2693864818661 L 175.7488728507113 216.2460385241747 L 175.75370774419147 216.2455168858171 L 175.97640713891414 216.22039359907765 L 175.98130275563074 216.21981685823775 L 176.19999946664453 216.19295905461226 L 176.2049554837046 216.1923252625057 L 176.41968537624288 216.1637737541562 L 176.42470138383115 216.16308093592562 L 176.6355003231272 216.1328765350142 L 176.64057582017895 216.1321226927648 L 176.847479671466 216.10030621145336 L 176.8526140613498 216.09948932761483 L 177.05565868986125 216.06610157806546 L 177.06085127609657 216.0652196190912 L 177.26007254706562 216.03030141346593 L 177.26532252910044 216.02935233388004 L 177.46075630776042 215.99294448434088 L 177.46606277683858 215.99192623114143 L 177.65774492842277 215.9540695498504 L 177.66310686357124 215.95298006727563 L 177.85107325331296 215.91371536639477 L 177.85648951748277 215.91255260105632 L 178.0407760106153 215.87192069274764 L 178.04624534701043 215.87068259913363 L 178.22688780876706 215.82872429555917 L 178.23240883739916 215.82740884190517 L 178.40944313301318 215.78416495522694 L 178.41501434752007 215.78277012975215 L 178.5884763422248 215.73828147213217 L 178.59409610699356 215.7368052896325 L 178.76402166602227 215.69111267323282 L 178.76968821365838 215.68955318202083 L 178.93611320224437 215.64269741900347 L 178.9418246314292 215.64105270817927 L 179.10478491480578 215.59307461070622 L 179.11053918858494 215.5913428177415 L 179.27007063198536 215.5422831979748 L 179.27586557653214 215.54046251658497 L 179.43200404518973 215.49036218668664 L 179.43783734908507 215.48845087496457 L 179.59061870823314 215.43735064709668 L 179.59648792230516 215.43534703587375 L 179.74594803717696 215.38328772219828 L 179.7518505749385 215.38119022359615 L 179.89802531076734 215.3282126362751 L 179.90395844949205 215.32601975240536 L 180.04688367151124 215.27216470360082 L 180.05284455398274 215.2698750353648 L 180.19255612742558 215.21518333723876 L 180.19854176439063 215.212795593177 L 180.33507555449037 215.15730805789147 L 180.34108282784635 215.15482106302514 L 180.47447469983632 215.09857850274219 L 180.48050036657526 215.09599120734705 L 180.61078618568874 215.03903443422865 L 180.6168268826146 215.03634592247766 L 180.7440425140849 214.9787157486859 L 180.75009476331925 214.97592524709248 L 180.87427607237964 214.9176624847893 L 180.88033628765612 214.9147693703831 L 181.00151913953994 214.8559148317306 L 181.0075836332906 214.85291863989258 L 181.12580389323108 214.79351313705274 L 181.1318688844501 214.79041356893845 L 181.2471624176806 214.73049791407328 L 181.25322404055044 214.7272948435506 L 181.3656267123042 214.66690984882217 L 181.37168102555634 214.66360332885225 L 181.48122870106667 214.60278980642255 L 181.4872716980418 214.5993800748135 L 181.594000242542 214.5381788368446 L 181.60002786190708 214.53466632131 L 181.70397314063044 214.47311817996388 L 181.7099812776978 214.469503502424 L 181.81117915587762 214.4076492698627 L 181.81716367446813 214.40393324992849 L 181.9156500173377 214.34181373831402 L 181.9216067621165 214.33799739590245 L 182.01741743490913 214.27565341739685 L 182.02334224412007 214.27173797443166 L 182.11651311206901 214.20921034119695 L 182.12240183058157 214.20519722235846 L 182.21296875892014 214.14252674655668 L 182.21881725150314 214.1384175790512 L 182.30681610546466 214.07564507284437 L 182.3126202701896 214.0714416851761 L 182.39808691500733 214.0086079607262 L 182.40384269668408 214.0043123804632 L 182.48681299759133 213.94145824993228 L 182.4925164011359 213.93707270046917 L 182.57302622336596 213.87423897601929 L 182.57867332699692 213.86976587235225 L 182.65675853578307 213.8069933661454 L 182.66234550394282 213.80243530968576 L 182.73804196451837 213.73976483388398 L 182.74356506041906 213.7351246063479 L 182.8169086380173 213.6725969731132 L 182.82236423571024 213.6678775295388 L 182.89339079556447 213.6055335510332 L 182.89877539143808 213.60073801198573 L 182.96752079878158 213.53861850037126 L 182.97283102239547 213.53375014341026 L 183.03933114246155 213.47189591084896 L 183.04456376663302 213.4669581613406 L 183.10885446465497 213.4054100199945 L 183.1140064147174 213.4004064413648 L 183.1761235559285 213.3392052033959 L 183.1811919180931 213.334139486927 L 183.24117136772668 213.2733259644973 L 183.2461533964836 213.26820191878267 L 183.3040310197729 213.20781692405424 L 183.30892414427962 213.20263846423293 L 183.364735806458 213.14272280936777 L 183.3695376358697 213.13749394627024 L 183.4233192021704 213.0780884434304 L 183.42802752987808 213.0728132727737 L 183.4798148655344 213.01395873412116 L 183.4844276722827 213.00864142590237 L 183.53425664252796 212.9503786635992 L 183.53877209839794 212.94502345184046 L 183.5866785684654 212.88739327804868 L 183.59109503370735 212.88200445106438 L 183.63711486883034 212.82504767794597 L 183.64143089354693 212.81962956930477 L 183.6855999589587 212.7633870090218 L 183.68981428163613 212.75794398939917 L 183.73216844257004 212.70245645411364 L 183.73627998746284 212.6969929242414 L 183.77685510915214 212.64230122611536 L 183.78086298252492 212.63682161106354 L 183.8196949302029 212.582966562259 L 183.8235984154327 212.5774753073092 L 183.86072305433268 212.52449771998818 L 183.86452160586757 212.5189992884028 L 183.8999748012228 212.4669399747273 L 183.90366803738286 212.46143884776995 L 183.93748565442667 212.41033861990206 L 183.94107334901958 212.4048392995304 L 183.97329125298526 212.3547389696321 L 183.9767733256819 212.34924598438735 L 184.00742738180276 212.30018636462066 L 184.0108038871888 212.29470427935513 L 184.03992996069812 212.24672618188208 L 184.04320107587247 212.24125961214102 L 184.07083503200352 212.19440384912363 L 184.07400104253006 212.1889574812284 L 184.10017874651615 212.14326486482872 L 184.10324003045469 212.1378434830199 L 184.12799734752912 212.09335482539996 L 184.13095435714988 212.0879633478369 L 184.15432715254593 212.04471946115865 L 184.15718039317156 212.03936298717173 L 184.17920453212253 211.99740468359727 L 184.18195453731343 211.9920885554291 L 184.20266588505265 211.9514566471204 L 184.20531318702172 211.9461865306011 L 184.22474760878242 211.90692182972026 L 184.2272927024549 211.90170382004246 L 184.2454860634704 211.86384713875142 L 184.24792936191415 211.85868790003144 L 184.2649175274178 211.82228005049228 L 184.26725930533058 211.81718700154863 L 184.2830781405556 211.78226879592336 L 184.2853184609123 211.77725036037705 L 184.300003831092 211.74386261082768 L 184.30214244760361 211.73892855833418 L 184.3157302179713 211.70711207702274 L 184.31776644206923 211.7022739962398 L 184.3302924778582 211.67206959532834 L 184.33222499249607 211.66734156145313 L 184.3437251589396 211.63879005310363 L 184.3455517506592 211.6341895897891 L 184.3560619129906 211.6073317861636 L 184.3577790748147 211.6028812849492 L 184.36733509826726 211.57775799820976 L 184.38153712898313 211.53461795352288 L 184.3917659754058 211.49036717010722 L 184.39793723886797 211.4453707631471 L 184.4 211.39999999999995 L 184.39768683170655 211.35196025035546 L 184.3907687298164 211.3043649968138 L 184.3793097052653 211.2576546227006 L 184.36341578466235 211.21226132384137 L 184.34323402926034 211.1686051095947 L 184.31895117424605 211.12708991664306 L 184.29079190094066 211.08809987149854 L 184.14401986792703 210.90420343624567 L 183.99967175108242 210.72099527091623 L 183.8567582257183 210.53724718875395 L 183.71527032525415 210.35295931254606 L 183.57519909348775 210.16813175859477 L 183.43653558485516 209.98276463715425 L 183.2992708646692 209.79685805287073 L 183.16339600933568 209.61041210522117 L 183.0289021065431 209.4234268889461 L 182.89578025546973 209.23590249453545 L 182.76402156692598 209.0478390086538 L 182.63361716351835 208.8592365146244 L 182.50455817977664 208.67009509289005 L 182.37683576225515 208.4804148214634 L 182.2504410696466 208.2901957764242 L 182.12536527282916 208.0994380323438 L 182.0015995549597 207.90814166280566 L 181.87913511147576 207.71630674081297 L 181.75796315014244 207.5239333392895 L 181.63807489104656 207.33102153152342 L 181.51946156656953 207.13757139159947 L 181.40211442138207 206.94358299488928 L 181.28602471236977 206.74905641845098 L 181.17118370857656 206.55399174147777 L 181.05758269112403 206.35838904572626 L 180.94521295310184 206.16224841591387 L 180.83406579947936 205.96556994017013 L 180.72413254693507 205.76835371036066 L 180.61540452375425 205.57059982254611 L 180.50787306964887 205.3723083773168 L 180.40152953558882 205.173479480159 L 180.29636528362192 204.97411324181212 L 180.19237168667982 204.7742097786095 L 180.08954012836406 204.57376921279035 L 179.9878620027335 204.3727916728211 L 179.88732871408163 204.1712772937035 L 179.78793167668465 203.9692262172294 L 179.68966231456244 203.76663859226383 L 179.59251206123244 203.56351457501654 L 179.49647235943817 203.35985432926216 L 179.4015346608782 203.15565802655902 L 179.3076904259425 202.95092584648256 L 179.21493112342702 202.74565797680913 L 179.12324823025017 202.53985461369783 L 179.03263323116374 202.33351596185574 L 178.94307761845957 202.12664223468428 L 178.8545728916845 201.9192336544382 L 178.76711055732935 201.71129045231396 L 178.6806821285502 201.50281286860272 L 178.5952791248491 201.29380115273602 L 178.51089307179404 201.08425556341163 L 178.42751550070741 200.8741763686295 L 178.34513794837594 200.66356384576557 L 178.26375195675118 200.45241828160516 L 178.1833490726513 200.2407399723625 L 178.10392084748415 200.02852922373847 L 178.02545883693557 199.8157863508674 L 177.94795460069764 199.60251167834983 L 177.8713997021888 199.38870554024385 L 177.79578570826138 199.17436828000126 L 177.7211041889383 198.95950025046054 L 177.6473467171329 198.74410181377172 L 177.57450486840204 198.52817334139286 L 177.50257022065907 198.31171521394577 L 177.4315343539473 198.09472782122572 L 177.3613888501637 197.87721156203784 L 177.29212529284058 197.65916684418426 L 177.2237352668894 197.44059408430908 L 177.15621035837782 197.22149370782066 L 177.0895421543082 197.00186614879348 L 177.02372224238587 196.78171184981 L 176.9587422108205 196.56103126188256 L 176.8945936481177 196.33982484431937 L 176.83126814287172 196.1180930645642 L 176.7687572835803 195.89583639808527 L 176.70705265846286 195.67305532825023 L 176.64614585526743 195.44975034613236 L 176.5860284611179 195.22592195043455 L 176.52669206233168 195.00157064727992 L 176.46812824426334 194.77669695006847 L 176.41032859116754 194.5513013793822 L 176.3532846860343 194.32538446275657 L 176.29698811045304 194.09894673453636 L 176.24143044449687 193.87198873578495 L 176.18660326656666 193.64451101400823 L 176.1324981533067 193.416514123141 L 176.0791066794493 193.1879986232162 L 176.0264204177479 192.95896508037765 L 175.97443093884087 192.72941406657665 L 175.92312981117826 192.49934615951085 L 175.87250860091606 192.26876194240054 L 175.82255887184076 192.03766200387335 L 175.77327218528455 191.80604693778565 L 175.72464010004867 191.57391734305534 L 175.6766541723423 191.34127382354694 L 175.62930595570379 191.10811698785002 L 175.58258700095809 190.8744474492097 L 175.5364888561479 190.640265825309 L 175.49086598258262 190.40486542614167 L 175.47935277675012 190.35779973480356 L 175.46333800118515 190.31206943660553 L 175.4429720495694 190.2681039817067 L 175.41844617718672 190.22631624674122 L 175.3899907048575 190.18709865752163 L 175.3578728560112 190.15081950379442 L 175.32239424720933 190.11781948065564 L 175.28388805568434 190.08840848910629 L 175.24271589049468 190.0628627257927 L 175.19926439667853 190.04142208926254 L 175.153941624296 190.02428792709338 L 175.10717319645863 190.01162114505146 L 175.0593983123312 190.00354069603623 L 175.01106562264198 190.00012246300165 L 174.96262901643368 190.0013985463446 L 174.91454335862215 190.0073569624521 L 174.86726021839044 190.01794175623868 L 174.82122362853286 190.03305352661675 L 174.77686591557284 190.05255035996566 L 174.73460363981374 190.07624916283282 L 174.69483368344876 190.10392738135218 L 174.65792952346717 190.1353250912325 L 174.6242377243568 190.17014743868899 L 174.5940746835403 190.20806740939545 Z" id="element_86" /></svg>