<svg xmlns="http://www.w3.org/2000/svg" viewBox="0.0 0.0 200.0 200.0" height="200.0px" width="200.0px"><path fill="#efefef" fill-opacity="1.0"  filling="0" d="M152.31666564941406 21.74444580078125 C113.9000015258789 22.46111297607422 87.1388931274414 3.0500030517578125 68.62777709960938 3.4000015258789062 C50.116668701171875 3.75 11.427780151367188 15.116668701171875 13.022224426269531 100.28888702392578 C14.616676330566406 185.4611053466797 67.15556335449219 196.977783203125 87.522216796875 196.60000610351562 C182.87222290039062 194.81668090820312 220.36111450195312 20.47222137451172 152.31666564941406 21.74444580078125 Z"></path>
<path fill="#a4afc1" fill-opacity="1.0"  filling="0" d="M181.83888244628906 30.583335876464844 C177.24444580078125 30.583335876464844 173.50555419921875 26.844444274902344 173.50555419921875 22.25 C173.50555419921875 17.655555725097656 177.24444580078125 13.916671752929688 181.83888244628906 13.916671752929688 C186.43331909179688 13.916671752929688 190.17221069335938 17.655555725097656 190.17221069335938 22.25 C190.17221069335938 26.844444274902344 186.43887329101562 30.583335876464844 181.83888244628906 30.583335876464844 Z M181.83888244628906 19.47222900390625 C180.30557250976562 19.47222900390625 179.06109619140625 20.72222137451172 179.06109619140625 22.25 C179.06109619140625 23.777786254882812 180.30557250976562 25.02777862548828 181.83888244628906 25.02777862548828 C183.37222290039062 25.02777862548828 184.61666870117188 23.777786254882812 184.61666870117188 22.25 C184.61666870117188 20.72222137451172 183.37222290039062 19.47222900390625 181.83888244628906 19.47222900390625 Z"></path>
<path fill="#f3f3f1" fill-opacity="1.0"  filling="0" d="M73.61111450195312 134.72222900390625 L65.27777862548828 134.72222900390625 C59.138893127441406 134.72222900390625 54.16666793823242 129.75 54.16666793823242 123.61111450195312 L54.16666793823242 65.27777862548828 C54.16666793823242 59.138893127441406 59.138893127441406 54.16666793823242 65.27777862548828 54.16666793823242 L123.61111450195312 54.16666793823242 C129.75 54.16666793823242 134.72222900390625 59.138893127441406 134.72222900390625 65.27777862548828 L134.72222900390625 134.72222900390625 L73.61111450195312 134.72222900390625 Z"></path>
<path fill="#2fdf84" fill-opacity="1.0"  filling="0" d="M90.27777862548828 118.05555725097656 L76.38888549804688 118.05555725097656 C73.32221984863281 118.05555725097656 70.83333587646484 115.56666564941406 70.83333587646484 112.5 L70.83333587646484 76.38888549804688 C70.83333587646484 73.32221984863281 73.32221984863281 70.83333587646484 76.38888549804688 70.83333587646484 L93.53333282470703 70.83333587646484 C95.00555419921875 70.83333587646484 96.42222595214844 71.41666412353516 97.46110534667969 72.46111297607422 L116.42778015136719 91.42778015136719 C117.47222137451172 92.47222900390625 118.05555725097656 93.88333129882812 118.05555725097656 95.35555267333984 L118.05555725097656 112.5 C118.05555725097656 115.56666564941406 115.56666564941406 118.05555725097656 112.5 118.05555725097656 L90.27777862548828 118.05555725097656 Z"></path>
<path fill="#2fdf84" fill-opacity="1.0"  filling="0" d="M154.16665649414062 136.11111450195312 A15.277776718139648 15.277776718139648 0.0 1 1 123.61111450195312 136.11111450195312 A15.277776718139648 15.277776718139648 0.0 1 1 154.16665649414062 136.11111450195312 Z"></path>
<path fill="#d5dbe1" fill-opacity="1.0"  filling="0" d="M76.38888549804688 134.72222900390625 L65.27777862548828 134.72222900390625 C59.16666793823242 134.72222900390625 54.16666793823242 129.72222900390625 54.16666793823242 123.61111450195312 L54.16666793823242 65.27777862548828 C54.16666793823242 59.16666793823242 59.16666793823242 54.16666793823242 65.27777862548828 54.16666793823242 L76.38888549804688 54.16666793823242 C70.27777862548828 54.16666793823242 65.27777862548828 59.16666793823242 65.27777862548828 65.27777862548828 L65.27777862548828 123.61111450195312 C65.27777862548828 129.72222900390625 70.27777862548828 134.72222900390625 76.38888549804688 134.72222900390625 Z"></path>
<path fill="#00b871" fill-opacity="1.0"  filling="0" d="M87.5 118.05555725097656 L76.38888549804688 118.05555725097656 C73.33333587646484 118.05555725097656 70.83333587646484 115.55554962158203 70.83333587646484 112.5 L70.83333587646484 76.38888549804688 C70.83333587646484 73.33333587646484 73.33333587646484 70.83333587646484 76.38888549804688 70.83333587646484 L87.5 70.83333587646484 C84.44444274902344 70.83333587646484 81.94444274902344 73.33333587646484 81.94444274902344 76.38888549804688 L81.94444274902344 112.5 C81.94444274902344 115.55554962158203 84.44444274902344 118.05555725097656 87.5 118.05555725097656 Z"></path>
<path fill="#00b871" fill-opacity="1.0"  filling="0" d="M143.77777099609375 150.61111450195312 C142.22222900390625 151.11111450195312 140.61111450195312 151.38888549804688 138.88888549804688 151.38888549804688 C130.44444274902344 151.38888549804688 123.61111450195312 144.55555725097656 123.61111450195312 136.11111450195312 C123.61111450195312 127.66666412353516 130.44444274902344 120.83332824707031 138.88888549804688 120.83332824707031 C140.61111450195312 120.83332824707031 142.22222900390625 121.1111068725586 143.77777099609375 121.6111068725586 C137.72222900390625 123.61111450195312 133.3333282470703 129.33334350585938 133.3333282470703 136.11111450195312 C133.3333282470703 142.88888549804688 137.72222900390625 148.61111450195312 143.77777099609375 150.61111450195312 Z"></path>
<path fill="" fill-opacity="1.0"  filling="0" d="M138.88888549804688 155.55555725097656 C128.16665649414062 155.55555725097656 119.44444274902344 146.8333282470703 119.44444274902344 136.11111450195312 C119.44444274902344 125.38888549804688 128.16665649414062 116.66666412353516 138.88888549804688 116.66666412353516 C149.61111450195312 116.66666412353516 158.3333282470703 125.38888549804688 158.3333282470703 136.11111450195312 C158.3333282470703 146.8333282470703 149.61111450195312 155.55555725097656 138.88888549804688 155.55555725097656 Z M138.88888549804688 125.0 C132.7611083984375 125.0 127.77777862548828 129.9833221435547 127.77777862548828 136.11111450195312 C127.77777862548828 142.2388916015625 132.7611083984375 147.22222900390625 138.88888549804688 147.22222900390625 C145.01666259765625 147.22222900390625 150.0 142.2388916015625 150.0 136.11111450195312 C150.0 129.9833221435547 145.01666259765625 125.0 138.88888549804688 125.0 Z"></path>
<path fill="" fill-opacity="1.0"  filling="0" d="M134.72222900390625 151.38888549804688 L143.05555725097656 151.38888549804688 L143.05555725097656 162.5 L134.72222900390625 162.5 L134.72222900390625 151.38888549804688 Z"></path>
<path fill="" fill-opacity="1.0"  filling="0" d="M134.72222900390625 109.72222137451172 L143.05555725097656 109.72222137451172 L143.05555725097656 120.83332824707031 L134.72222900390625 120.83332824707031 L134.72222900390625 109.72222137451172 Z"></path>
<path fill="" fill-opacity="1.0"  filling="0" d="M150.227783203125 124.772216796875 L160.62222290039062 119.21111297607422 L164.55555725097656 126.55555725097656 L154.16111755371094 132.11666870117188 L150.227783203125 124.772216796875 Z"></path>
<path fill="" fill-opacity="1.0"  filling="0" d="M113.4000015258789 145.5722198486328 L123.79444885253906 140.0111083984375 L127.72222137451172 147.35556030273438 L117.32777404785156 152.91665649414062 L113.4000015258789 145.5722198486328 Z"></path>
<path fill="" fill-opacity="1.0"  filling="0" d="M113.38888549804688 126.65555572509766 L117.32221984863281 119.31111145019531 L127.71111297607422 124.8722152709961 L123.78333282470703 132.21665954589844 L113.38888549804688 126.65555572509766 Z"></path>
<path fill="" fill-opacity="1.0"  filling="0" d="M150.2388916015625 147.4388885498047 L154.17221069335938 140.0944366455078 L164.5611114501953 145.65554809570312 L160.63333129882812 153.0 L150.2388916015625 147.4388885498047 Z"></path>
<path fill="" fill-opacity="1.0"  filling="0" d="M101.38888549804688 138.88888549804688 L65.27777862548828 138.88888549804688 C56.85000228881836 138.88888549804688 50.0 132.03887939453125 50.0 123.61111450195312 L50.0 65.27777862548828 C50.0 56.85000228881836 56.85000228881836 50.0 65.27777862548828 50.0 L123.61111450195312 50.0 C132.03887939453125 50.0 138.88888549804688 56.85000228881836 138.88888549804688 65.27777862548828 L138.88888549804688 90.28333282470703 L130.55555725097656 90.28333282470703 L130.55555725097656 65.27777862548828 C130.55555725097656 61.45000076293945 127.43888092041016 58.333335876464844 123.61111450195312 58.333335876464844 L65.27777862548828 58.333335876464844 C61.45000076293945 58.333335876464844 58.333335876464844 61.45000076293945 58.333335876464844 65.27777862548828 L58.333335876464844 123.61111450195312 C58.333335876464844 127.43888092041016 61.45000076293945 130.55555725097656 65.27777862548828 130.55555725097656 L101.38888549804688 130.55555725097656 L101.38888549804688 138.88888549804688 Z"></path>
<path fill="" fill-opacity="1.0"  filling="0" d="M95.83333587646484 122.22222137451172 L76.38888549804688 122.22222137451172 C71.02777862548828 122.22222137451172 66.66667175292969 117.86111450195312 66.66667175292969 112.5 L66.66667175292969 76.38888549804688 C66.66667175292969 71.02777862548828 71.02777862548828 66.66667175292969 76.38888549804688 66.66667175292969 L93.53333282470703 66.66667175292969 C96.12777709960938 66.66667175292969 98.57221984863281 67.67778015136719 100.40555572509766 69.51666259765625 L119.37222290039062 88.48333740234375 C121.18333435058594 90.29444885253906 122.22222137451172 92.79444122314453 122.22222137451172 95.35555267333984 L122.22222137451172 101.38888549804688 L113.88888549804688 101.38888549804688 L113.88888549804688 95.35555267333984 C113.88888549804688 94.99444580078125 113.73888397216797 94.63333892822266 113.48332977294922 94.37222290039062 L94.51667022705078 75.40555572509766 C94.25555419921875 75.14444732666016 93.9000015258789 75.0 93.53333282470703 75.0 L76.38888549804688 75.0 C75.62222290039062 75.0 75.0 75.62222290039062 75.0 76.38888549804688 L75.0 112.5 C75.0 113.26667022705078 75.62222290039062 113.88888549804688 76.38888549804688 113.88888549804688 L95.83333587646484 113.88888549804688 L95.83333587646484 122.22222137451172 Z"></path>
<path fill="" fill-opacity="1.0"  filling="0" d="M66.66667175292969 136.11111450195312 L75.0 136.11111450195312 L75.0 151.38888549804688 L66.66667175292969 151.38888549804688 L66.66667175292969 136.11111450195312 Z"></path>
<path fill="" fill-opacity="1.0"  filling="0" d="M90.27777862548828 136.11111450195312 L98.61111450195312 136.11111450195312 L98.61111450195312 151.38888549804688 L90.27777862548828 151.38888549804688 L90.27777862548828 136.11111450195312 Z"></path>
<path fill="" fill-opacity="1.0"  filling="0" d="M90.27777862548828 37.500003814697266 L98.61111450195312 37.500003814697266 L98.61111450195312 52.77777862548828 L90.27777862548828 52.77777862548828 L90.27777862548828 37.500003814697266 Z"></path>
<path fill="" fill-opacity="1.0"  filling="0" d="M66.66667175292969 37.500003814697266 L75.0 37.500003814697266 L75.0 52.77777862548828 L66.66667175292969 52.77777862548828 L66.66667175292969 37.500003814697266 Z"></path>
<path fill="" fill-opacity="1.0"  filling="0" d="M113.88888549804688 37.500003814697266 L122.22222137451172 37.500003814697266 L122.22222137451172 52.77777862548828 L113.88888549804688 52.77777862548828 L113.88888549804688 37.500003814697266 Z"></path>
<path fill="" fill-opacity="1.0"  filling="0" d="M37.500003814697266 90.27777862548828 L52.77777862548828 90.27777862548828 L52.77777862548828 98.61111450195312 L37.500003814697266 98.61111450195312 L37.500003814697266 90.27777862548828 Z"></path>
<path fill="" fill-opacity="1.0"  filling="0" d="M37.500003814697266 66.66667175292969 L52.77777862548828 66.66667175292969 L52.77777862548828 75.0 L37.500003814697266 75.0 L37.500003814697266 66.66667175292969 Z"></path>
<path fill="" fill-opacity="1.0"  filling="0" d="M37.500003814697266 113.88888549804688 L52.77777862548828 113.88888549804688 L52.77777862548828 122.22222137451172 L37.500003814697266 122.22222137451172 L37.500003814697266 113.88888549804688 Z"></path>
<path fill="" fill-opacity="1.0"  filling="0" d="M136.11111450195312 66.66667175292969 L151.38888549804688 66.66667175292969 L151.38888549804688 75.0 L136.11111450195312 75.0 L136.11111450195312 66.66667175292969 Z"></path></svg>