<svg xmlns="http://www.w3.org/2000/svg" viewBox="0.0 0.0 200.0 200.0" height="200.0px" width="200.0px"><path fill="url(#SVGID_1_)" fill-opacity="1.0"  filling="0" d="M197.9482421875 50.86195755004883 L184.91018676757812 37.823917388916016 C170.38116455078125 23.294906616210938 150.67568969726562 15.132942199707031 130.1290283203125 15.132942199707031 L69.87097930908203 15.132942199707031 C49.32392120361328 15.132942199707031 29.618431091308594 23.29529571533203 15.089805603027344 37.823917388916016 L2.0517578125 50.86195755004883 C-0.6839218139648438 53.5976448059082 -0.6839218139648438 58.03333282470703 2.0517578125 60.769020080566406 L24.70587921142578 83.42314147949219 C27.441566467285156 86.15882110595703 31.87725830078125 86.15882110595703 34.612937927246094 83.42314147949219 L37.78118133544922 81.48509979248047 L37.78118133544922 183.43882751464844 C37.78118133544922 187.30784606933594 40.91764450073242 190.44390869140625 44.78627395629883 190.44390869140625 L155.21372985839844 190.44390869140625 C159.08274841308594 190.44390869140625 162.21881103515625 187.30746459960938 162.21881103515625 183.43882751464844 L162.21881103515625 81.48509979248047 L165.38705444335938 83.42314147949219 C168.12274169921875 86.15882110595703 172.55804443359375 86.15882110595703 175.29412841796875 83.42314147949219 L197.9482421875 60.769020080566406 C200.68392944335938 58.03333282470703 200.68392944335938 53.59804153442383 197.9482421875 50.86195755004883 Z"></path>
<path fill="url(#SVGID_2_)" fill-opacity="1.0"  filling="0" d="M197.9490203857422 60.76863098144531 L187.94117736816406 70.7764663696289 L175.29412841796875 83.42352294921875 C172.55685424804688 86.1568603515625 168.12156677246094 86.1568603515625 165.3882293701172 83.42352294921875 L162.2196044921875 81.48626708984375 L162.2196044921875 145.46273803710938 C142.9176483154297 126.13333892822266 65.51372528076172 48.80392074584961 65.17254638671875 48.454898834228516 C64.76863098144531 48.0352897644043 64.90235900878906 47.46274185180664 64.90235900878906 46.80784225463867 L64.90235900878906 21.60784149169922 C64.90235900878906 19.0 66.16902160644531 16.631370544433594 68.18077850341797 15.160781860351562 C68.87097930908203 15.14117431640625 69.17646789550781 15.133331298828125 69.87059020996094 15.133331298828125 L130.12940979003906 15.133331298828125 C130.8235321044922 15.133331298828125 131.5137176513672 15.14117431640625 132.20391845703125 15.160781860351562 C152.0 15.690193176269531 170.87059020996094 23.78430938720703 184.9097900390625 37.82352828979492 L197.9490203857422 50.86274337768555 C200.68234252929688 53.59607696533203 200.68234252929688 58.03529739379883 197.9490203857422 60.76863098144531 Z"></path>
<path fill="url(#SVGID_3_)" fill-opacity="1.0"  filling="0" d="M37.78118133544922 147.6807861328125 L37.78118133544922 183.43844604492188 C37.78118133544922 187.30746459960938 40.91764450073242 190.44354248046875 44.78627395629883 190.44354248046875 L155.21372985839844 190.44354248046875 C159.08274841308594 190.44354248046875 162.21881103515625 187.30706787109375 162.21881103515625 183.43844604492188 L162.21881103515625 147.6807861328125 L37.78118133544922 147.6807861328125 Z"></path>
<path fill="url(#SVGID_4_)" fill-opacity="1.0"  filling="0" d="M184.91018676757812 37.823917388916016 C170.38116455078125 23.29529571533203 150.67568969726562 15.132942199707031 130.1290283203125 15.132942199707031 L100.0 15.132942199707031 L100.0 190.44390869140625 L155.21372985839844 190.44390869140625 C159.08274841308594 190.44390869140625 162.21881103515625 187.30746459960938 162.21881103515625 183.43882751464844 L162.21881103515625 81.48509979248047 L165.38705444335938 83.42314147949219 C168.12274169921875 86.15882110595703 172.55804443359375 86.15882110595703 175.29412841796875 83.42314147949219 L197.9482421875 60.769020080566406 C200.68392944335938 58.03333282470703 200.68392944335938 53.59804153442383 197.9482421875 50.86235427856445 L184.91018676757812 37.823917388916016 Z"></path>
<path fill="url(#SVGID_5_)" fill-opacity="1.0"  filling="0" d="M184.91018676757812 37.823917388916016 C170.38116455078125 23.29529571533203 150.67568969726562 15.132942199707031 130.1290283203125 15.132942199707031 L100.0 15.132942199707031 L100.0 30.471763610839844 C97.73371887207031 30.471763610839844 95.46784210205078 30.720001220703125 93.25607299804688 31.21685791015625 C89.837646484375 31.984703063964844 89.09294128417969 35.444313049316406 89.99568176269531 38.997249603271484 C90.59686279296875 41.36391830444336 91.04039001464844 42.5647087097168 92.05294036865234 44.24391555786133 C92.52235412597656 45.02235412597656 92.79215240478516 46.45764923095703 93.55137634277344 46.96235275268555 C93.99686431884766 47.654117584228516 94.98431396484375 48.6348991394043 95.66548919677734 49.101566314697266 L84.28862762451172 136.7627410888672 C83.49960327148438 142.66705322265625 85.42431640625 148.21922302246094 89.5243148803711 152.54039001464844 L93.42666625976562 157.87176513671875 L125.99922180175781 190.44430541992188 L155.214111328125 190.44430541992188 C159.0831298828125 190.44430541992188 162.21920776367188 187.30784606933594 162.21920776367188 183.439208984375 L162.21920776367188 81.48509979248047 L165.387451171875 83.42314147949219 C168.12313842773438 86.15882110595703 172.5584259033203 86.15882110595703 175.29452514648438 83.42314147949219 L197.94863891601562 60.769020080566406 C200.68431091308594 58.03333282470703 200.68431091308594 53.59804153442383 197.94863891601562 50.86235427856445 L184.91018676757812 37.823917388916016 Z"></path>
<path fill="url(#SVGID_6_)" fill-opacity="1.0"  filling="0" d="M124.38470458984375 13.169807434082031 C108.487060546875 8.351371765136719 91.5133285522461 8.351371765136719 75.61569213867188 13.169807434082031 C72.78549194335938 14.027450561523438 71.3560791015625 17.159210205078125 72.53646850585938 19.870582580566406 C77.261962890625 30.72509765625 87.78117370605469 32.54078674316406 100.0 32.54078674316406 C112.2192153930664 32.54078674316406 122.73843383789062 30.724700927734375 127.46353149414062 19.870582580566406 C128.6439208984375 17.159210205078125 127.21450805664062 14.027450561523438 124.38470458984375 13.169807434082031 Z"></path>
<path fill="url(#SVGID_7_)" fill-opacity="1.0"  filling="0" d="M104.05216217041016 43.660003662109375 L100.0 43.660003662109375 L95.94784545898438 43.660003662109375 L83.50392150878906 136.76234436035156 C82.71490478515625 142.66665649414062 84.63960266113281 148.61099243164062 88.73960876464844 152.93215942382812 L93.42627716064453 157.87136840820312 C96.9996109008789 161.6372528076172 103.0003890991211 161.6372528076172 106.57372283935547 157.87136840820312 L111.26039123535156 152.93215942382812 C115.36039733886719 148.61099243164062 117.28549194335938 142.66665649414062 116.49607849121094 136.76234436035156 L104.05216217041016 43.660003662109375 Z"></path>
<path fill="url(#SVGID_8_)" fill-opacity="1.0"  filling="0" d="M110.78588104248047 94.03843688964844 L104.05216217041016 43.660003662109375 L100.0 43.660003662109375 L95.94784545898438 43.660003662109375 L91.75607299804688 75.02156066894531 C97.67921447753906 80.94039154052734 104.17412567138672 87.43098449707031 110.78588104248047 94.03843688964844 Z"></path>
<path fill="url(#SVGID_9_)" fill-opacity="1.0"  filling="0" d="M104.05216217041016 43.660003662109375 L100.0 43.660003662109375 L95.94784545898438 43.660003662109375 L95.38862609863281 47.84392166137695 L106.03450775146484 58.489803314208984 L104.05216217041016 43.660003662109375 Z"></path>
<path fill="url(#SVGID_10_)" fill-opacity="1.0"  filling="0" d="M110.78901672363281 38.99764633178711 C111.69136810302734 35.444313049316406 110.16275024414062 31.985092163085938 106.74431610107422 31.217254638671875 C102.32078552246094 30.223533630371094 97.67960357666016 30.223533630371094 93.25607299804688 31.217254638671875 C89.837646484375 31.985092163085938 88.30862426757812 35.4447021484375 89.21137237548828 38.99764633178711 C89.81255340576172 41.364315032958984 90.64823913574219 43.34941101074219 91.66078186035156 45.02862548828125 C92.69529724121094 46.74470520019531 94.6494140625 47.88274383544922 96.56902313232422 48.08863067626953 C98.8690185546875 48.33489990234375 101.13175964355469 48.33489990234375 103.43177032470703 48.08863067626953 C105.35137176513672 47.88274383544922 107.30548858642578 46.74470520019531 108.33999633789062 45.02862548828125 C109.35215759277344 43.349021911621094 110.1878433227539 41.364315032958984 110.78901672363281 38.99764633178711 Z"></path>
<path fill="url(#SVGID_11_)" fill-opacity="1.0"  filling="0" d="M100.0 30.209800720214844 C88.32196044921875 30.209800720214844 83.74745178222656 22.938430786132812 80.9129409790039 15.495292663574219 C80.34548950195312 14.005096435546875 80.06352996826172 13.014503479003906 79.92666625976562 12.443130493164062 C79.84548950195312 12.10430908203125 79.50940704345703 11.8948974609375 79.16862487792969 11.970191955566406 L70.62745666503906 13.854118347167969 C67.04078674316406 14.714111328125 64.51176452636719 17.921180725097656 64.51176452636719 21.609413146972656 L64.51176452636719 46.806663513183594 C64.51176452636719 48.558433532714844 66.34117126464844 49.7086296081543 67.91999816894531 48.949798583984375 L99.10941314697266 33.95764923095703 C99.65411376953125 33.69568634033203 100.00039672851562 33.14509582519531 100.00039672851562 32.54078674316406 L100.00039672851562 30.209800720214844 L100.0 30.209800720214844 Z"></path>
<path fill="url(#SVGID_12_)" fill-opacity="1.0"  filling="0" d="M100.0 32.54078674316406 C100.0 33.14509582519531 100.34627532958984 33.69568634033203 100.89098358154297 33.95764923095703 L132.08038330078125 48.949798583984375 C133.65921020507812 49.7086296081543 135.48863220214844 48.55803680419922 135.48863220214844 46.806663513183594 L135.48863220214844 21.609413146972656 C135.48863220214844 17.921180725097656 132.95960998535156 14.714111328125 129.37294006347656 13.854118347167969 L120.83137512207031 11.970191955566406 C120.49098205566406 11.895294189453125 120.15451049804688 12.10430908203125 120.07333374023438 12.443130493164062 C119.93647766113281 13.014503479003906 119.65489959716797 14.004707336425781 119.0870590209961 15.495292663574219 C116.25254821777344 22.93804168701172 111.67803955078125 30.209800720214844 100.0 30.209800720214844 L100.0 32.54078674316406 Z"></path>
<path fill="url(#SVGID_13_)" fill-opacity="1.0"  filling="0" d="M15.089805603027344 37.823917388916016 L2.0517578125 50.86195755004883 C-0.6839218139648438 53.5976448059082 -0.6839218139648438 58.032936096191406 2.0517578125 60.769020080566406 L24.70587921142578 83.42314147949219 C27.441566467285156 86.15882110595703 31.87725830078125 86.15882110595703 34.612937927246094 83.42314147949219 L37.78118133544922 81.48509979248047 L37.78118133544922 22.09764862060547 C29.41607666015625 25.904708862304688 21.713722229003906 31.199996948242188 15.089805603027344 37.823917388916016 Z"></path>
<path fill="url(#SVGID_14_)" fill-opacity="1.0"  filling="0" d="M184.91018676757812 37.823917388916016 L197.9482421875 50.86195755004883 C200.68392944335938 53.5976448059082 200.68392944335938 58.032936096191406 197.9482421875 60.769020080566406 L175.29412841796875 83.42314147949219 C172.5584259033203 86.15882110595703 168.12274169921875 86.15882110595703 165.38705444335938 83.42314147949219 L162.21881103515625 81.48509979248047 L162.21881103515625 22.09764862060547 C170.58392333984375 25.904708862304688 178.28628540039062 31.199996948242188 184.91018676757812 37.823917388916016 Z"></path>
<path fill="url(#SVGID_15_)" fill-opacity="1.0"  filling="0" d="M106.57372283935547 157.87136840820312 L111.26039123535156 152.93215942382812 C115.36039733886719 148.61099243164062 117.28549194335938 142.66665649414062 116.49607849121094 136.76234436035156 L104.05216217041016 43.660003662109375 L100.0 43.660003662109375 L100.0 160.69607543945312 C102.3933334350586 160.69607543945312 104.78705596923828 159.7545166015625 106.57372283935547 157.87136840820312 Z"></path>
<path fill="url(#SVGID_16_)" fill-opacity="1.0"  filling="0" d="M116.49647521972656 136.76234436035156 L113.7321548461914 116.08039855957031 L100.65882110595703 116.08039855957031 C99.86588287353516 116.08039855957031 99.42666625976562 116.52000427246094 99.42666625976562 117.31294250488281 L99.42666625976562 119.77764892578125 C99.42666625976562 120.30157470703125 99.50274658203125 120.75765228271484 99.91960906982422 121.01019287109375 L116.59294128417969 137.6819610595703 C116.56666564941406 137.3756866455078 116.53726196289062 137.0690155029297 116.49647521972656 136.76234436035156 Z"></path>
<path fill="url(#SVGID_17_)" fill-opacity="1.0"  filling="0" d="M114.62744903564453 121.21607971191406 L100.65960693359375 121.21607971191406 C99.86548614501953 121.21607971191406 99.22156524658203 120.57215881347656 99.22156524658203 119.77803802490234 L99.22156524658203 117.31294250488281 C99.22156524658203 116.51881408691406 99.86548614501953 115.87489318847656 100.65960693359375 115.87489318847656 L114.62744903564453 115.87489318847656 C115.42156982421875 115.87489318847656 116.06549072265625 116.51881408691406 116.06549072265625 117.31294250488281 L116.06549072265625 119.77803802490234 C116.06510162353516 120.57215881347656 115.42156982421875 121.21607971191406 114.62744903564453 121.21607971191406 Z"></path></svg>