<svg xmlns="http://www.w3.org/2000/svg" viewBox="0.0 0.0 200.0 200.0" height="200.0px" width="200.0px"><path fill="#f8f6f9" fill-opacity="1.0"  filling="0" d="M173.72225952148438 45.576171875 L173.72225952148438 181.6687469482422 C173.72225952148438 190.173828125 166.82656860351562 197.06951904296875 158.3214874267578 197.06951904296875 L24.476173400878906 197.06951904296875 C15.971092224121094 197.06951904296875 9.075393676757812 190.173828125 9.075393676757812 181.6687469482422 L9.075393676757812 18.330467224121094 C9.075393676757812 9.825393676757812 15.971092224121094 2.9296875 24.476173400878906 2.9296875 L131.0753936767578 2.9296875 L173.72225952148438 45.576171875 Z"></path>
<path fill="#dddaec" fill-opacity="1.0"  filling="0" d="M173.72225952148438 45.576171875 L146.4765625 45.576171875 C137.9714813232422 45.576171875 131.07577514648438 38.68046951293945 131.07577514648438 30.175384521484375 L131.07577514648438 2.9296875"></path>
<path fill="#d8aa8b" fill-opacity="1.0"  filling="0" d="M163.21835327148438 91.3070297241211 C163.21835327148438 76.2554702758789 151.0164031982422 64.05351257324219 135.96484375 64.05351257324219 C120.91327667236328 64.05351257324219 108.7113265991211 76.2554702758789 108.7113265991211 91.3070297241211 C108.7113265991211 102.22538757324219 115.13436889648438 111.63945007324219 124.4058609008789 115.98906707763672 L124.4058609008789 145.7980499267578 L147.52383422851562 145.7980499267578 L147.52383422851562 115.98906707763672 C156.79531860351562 111.6390609741211 163.21835327148438 102.22538757324219 163.21835327148438 91.3070297241211 Z"></path>
<path fill="#ce9875" fill-opacity="1.0"  filling="0" d="M123.83944702148438 91.3070297241211 C123.83944702148438 102.224609375 126.69804382324219 111.6390609741211 130.82305908203125 115.98788452148438 L130.82305908203125 145.796875 L124.40547180175781 145.796875 L124.40547180175781 115.98788452148438 C115.13593292236328 111.6390609741211 108.7113265991211 102.224609375 108.7113265991211 91.3070297241211 C108.7113265991211 76.2542953491211 120.912109375 64.05390930175781 135.96444702148438 64.05390930175781 C129.2703094482422 64.05351257324219 123.83944702148438 76.2542953491211 123.83944702148438 91.3070297241211 Z"></path>
<path fill="#e27f83" fill-opacity="1.0"  filling="0" d="M163.36328125 139.0089874267578 L109.578125 139.0089874267578 C100.5062484741211 139.0089874267578 93.15234375 146.36328125 93.15234375 155.4347686767578 L93.15234375 174.796875 L136.470703125 185.93321228027344 L179.7890625 174.796875 L179.7890625 155.4347686767578 C179.7890625 146.36288452148438 172.43515014648438 139.0089874267578 163.36328125 139.0089874267578 Z"></path>
<path fill="#407093" fill-opacity="1.0"  filling="0" d="M179.7890625 174.796875 L93.15194702148438 174.796875 C87.0015640258789 174.796875 82.015625 179.78280639648438 82.015625 185.93321228027344 C82.015625 192.08358764648438 87.0015640258789 197.06951904296875 93.15194702148438 197.06951904296875 L179.7890625 197.06951904296875 C185.939453125 197.06951904296875 190.92538452148438 192.08358764648438 190.92538452148438 185.93321228027344 C190.92538452148438 179.78280639648438 185.939453125 174.796875 179.7890625 174.796875 Z"></path>
<path fill="#365e7d" fill-opacity="1.0"  filling="0" d="M115.96484375 193.80819702148438 C117.98046875 195.82382202148438 120.765625 197.06991577148438 123.83984375 197.06991577148438 L93.15234375 197.06991577148438 C90.078125 197.06991577148438 87.29296875 195.82382202148438 85.27734375 193.80819702148438 C83.26171875 191.79258728027344 82.015625 189.00741577148438 82.015625 185.93321228027344 C82.015625 179.78086853027344 87.00390625 174.79647827148438 93.15234375 174.79647827148438 L123.83984375 174.79647827148438 C117.69140625 174.79647827148438 112.703125 179.78086853027344 112.703125 185.93321228027344 C112.703125 189.00741577148438 113.94921875 191.79258728027344 115.96484375 193.80819702148438 Z"></path>
<path fill="#c8646d" fill-opacity="1.0"  filling="0" d="M128.54649353027344 139.0089874267578 C119.4761734008789 139.0089874267578 112.12069702148438 146.36444091796875 112.12069702148438 155.4347686767578 L112.12069702148438 174.7980499267578 L93.15194702148438 174.7980499267578 L93.15194702148438 155.4347686767578 C93.15194702148438 146.36444091796875 100.5035171508789 139.0089874267578 109.57774353027344 139.0089874267578 L128.54649353027344 139.0089874267578 Z"></path>
<path fill="#e27f83" fill-opacity="1.0"  filling="0" d="M74.83671569824219 102.541015625 L88.40975952148438 88.96796417236328 C90.69999694824219 86.677734375 90.69999694824219 82.9644546508789 88.40975952148438 80.67460632324219 L80.8187484741211 73.08358764648438 C78.52851867675781 70.7933578491211 74.81523132324219 70.7933578491211 72.525390625 73.08358764648438 L58.95234298706055 86.6566390991211 L45.37929153442383 73.08358764648438 C43.08906173706055 70.7933578491211 39.37578201293945 70.7933578491211 37.0859375 73.08358764648438 L29.49492645263672 80.67460632324219 C27.204689025878906 82.96484375 27.204689025878906 86.6781234741211 29.49492645263672 88.96796417236328 L43.06796646118164 102.541015625 L29.49492645263672 116.11406707763672 C27.204689025878906 118.404296875 27.204689025878906 122.1175765991211 29.49492645263672 124.40742492675781 L37.0859375 131.99842834472656 C39.37617492675781 134.28866577148438 43.08945083618164 134.28866577148438 45.37929153442383 131.99842834472656 L58.95234298706055 118.4253921508789 L72.525390625 131.99842834472656 C74.81562805175781 134.28866577148438 78.52890014648438 134.28866577148438 80.8187484741211 131.99842834472656 L88.40975952148438 124.40742492675781 C90.69999694824219 122.1171875 90.69999694824219 118.40391540527344 88.40975952148438 116.11406707763672 L74.83671569824219 102.541015625 Z"></path>
<path fill="" fill-opacity="1.0"  filling="0" d="M182.71875 172.17617797851562 L182.71875 155.43359375 C182.71875 149.90469360351562 180.41757202148438 144.8796844482422 176.65274047851562 141.33358764648438 L176.65274047851562 45.578121185302734 C176.65274047851562 44.80117416381836 176.34414672851562 44.05585479736328 175.794921875 43.50664138793945 L133.14608764648438 0.8582077026367188 C132.5964813232422 0.30859375 131.8515625 0.0 131.07421875 0.0 L45.1796875 0.0 C43.56132888793945 0.0 42.25 1.3117218017578125 42.25 2.9296875 C42.25 4.5476531982421875 43.56132888793945 5.859375 45.1796875 5.859375 L128.1457061767578 5.859375 L128.1457061767578 30.175384521484375 C128.1457061767578 40.28281021118164 136.36874389648438 48.505859375 146.4765625 48.505859375 L170.79336547851562 48.505859375 L170.79336547851562 137.548828125 C169.453125 136.99649047851562 168.03164672851562 136.58633422851562 166.54531860351562 136.34024047851562 C164.947265625 136.0769500732422 163.44061279296875 137.1554718017578 163.17616271972656 138.751953125 C162.91171264648438 140.34803771972656 163.99179077148438 141.8566436767578 165.587890625 142.12109375 C167.86874389648438 142.4988250732422 169.9296875 143.4285125732422 171.64804077148438 144.759765625 C171.79022216796875 144.90234375 171.94805908203125 145.02969360351562 172.1171875 145.140625 C175.04531860351562 147.6277313232422 176.859375 151.33242797851562 176.859375 155.43399047851562 L176.859375 171.86758422851562 L96.08203125 171.86758422851562 L96.08203125 155.43399047851562 C96.08203125 147.9921875 102.13632202148438 141.93789672851562 109.578125 141.93789672851562 L154.3515625 141.93789672851562 C155.96990966796875 141.93789672851562 157.28125 140.62615966796875 157.28125 139.00820922851562 C157.28125 137.39022827148438 155.96990966796875 136.07852172851562 154.3515625 136.07852172851562 L150.45468139648438 136.07852172851562 L150.45468139648438 117.78437805175781 C160.04608154296875 112.52227020263672 166.14610290527344 102.32929992675781 166.14610290527344 91.30899047851562 C166.14610290527344 74.666015625 152.60781860351562 61.12539291381836 135.96640014648438 61.12539291381836 C119.32343292236328 61.12539291381836 105.78280639648438 74.6656265258789 105.78280639648438 91.30899047851562 C105.78280639648438 102.32929992675781 111.88282012939453 112.52265930175781 121.4742202758789 117.78437805175781 L121.4742202758789 136.07852172851562 L109.578125 136.07852172851562 C98.90547180175781 136.07852172851562 90.22265625 144.76132202148438 90.22265625 155.43399047851562 L90.22265625 172.17657470703125 C83.86796569824219 173.5281219482422 79.0855484008789 179.18203735351562 79.0855484008789 185.93359375 C79.0855484008789 188.9953155517578 80.07186889648438 191.8292999267578 81.73905944824219 194.14102172851562 L24.476951599121094 194.14102172851562 C17.599609375 194.14102172851562 12.004295349121094 188.5457000732422 12.004295349121094 181.66836547851562 L12.004295349121094 18.33203125 C12.004295349121094 11.454689025878906 17.599220275878906 5.859375 24.476951599121094 5.859375 L33.461334228515625 5.859375 C35.079689025878906 5.859375 36.391021728515625 4.5476531982421875 36.391021728515625 2.9296875 C36.391021728515625 1.3117218017578125 35.07929992675781 0.0 33.461334228515625 0.0 L24.476951599121094 0.0 C14.368751525878906 0.0 6.144920349121094 8.223823547363281 6.144920349121094 18.33203125 L6.144920349121094 181.66796875 C6.144920349121094 191.7761688232422 14.368751525878906 200.0 24.476951599121094 200.0 L93.1527328491211 200.0 C93.1566390991211 200.0 93.16015625 199.99960327148438 93.1640625 199.99960327148438 L179.7890625 199.99960327148438 C187.544921875 199.99960327148438 193.85507202148438 193.689453125 193.85507202148438 185.93359375 C193.85507202148438 179.18203735351562 189.07305908203125 173.5281219482422 182.71875 172.17617797851562 Z M134.0050811767578 30.175384521484375 L134.0050811767578 10.003509521484375 L166.64804077148438 42.646484375 L146.47616577148438 42.646484375 C139.599609375 42.646484375 134.0050811767578 37.05195236206055 134.0050811767578 30.175384521484375 Z M125.6484375 113.3355484008789 C117.140625 109.34492492675781 111.6429672241211 100.69843292236328 111.6429672241211 91.30819702148438 C111.6429672241211 77.8960952758789 122.5546875 66.9839859008789 135.96717834472656 66.9839859008789 C149.37734985351562 66.9839859008789 160.28750610351562 77.89569854736328 160.28750610351562 91.30819702148438 C160.28750610351562 100.6988296508789 154.7898406982422 109.34492492675781 146.2820281982422 113.3355484008789 C145.25311279296875 113.81796264648438 144.5964813232422 114.8515625 144.5964813232422 115.98788452148438 L144.5964813232422 136.078125 L127.33515930175781 136.078125 L127.33515930175781 115.98788452148438 C127.333984375 114.8519515991211 126.67695617675781 113.81796264648438 125.6484375 113.3355484008789 Z M179.7890625 194.14022827148438 L93.15194702148438 194.14022827148438 C88.6265640258789 194.14022827148438 84.9449234008789 190.45858764648438 84.9449234008789 185.93359375 C84.9449234008789 181.40859985351562 88.6265640258789 177.72695922851562 93.15194702148438 177.72695922851562 L93.15234375 177.72695922851562 L179.7890625 177.72695922851562 C184.31405639648438 177.72695922851562 187.99569702148438 181.40859985351562 187.99569702148438 185.93359375 C187.99569702148438 190.45858764648438 184.31405639648438 194.14022827148438 179.7890625 194.14022827148438 Z"></path>
<path fill="" fill-opacity="1.0"  filling="0" d="M93.0570297241211 84.82148742675781 C93.0570297241211 82.47265625 92.1421890258789 80.2640609741211 90.48125457763672 78.6031265258789 L82.88984680175781 71.0121078491211 C81.2289047241211 69.3511734008789 79.02070617675781 68.43633270263672 76.6714859008789 68.43633270263672 C74.322265625 68.43633270263672 72.11405944824219 69.35077667236328 70.45272827148438 71.0121078491211 L58.95195770263672 82.513671875 L47.45038604736328 71.0121078491211 C45.78945541381836 69.3511734008789 43.58124542236328 68.43672180175781 41.232032775878906 68.43672180175781 C38.882816314697266 68.43672180175781 36.67460632324219 69.3515625 35.014060974121094 71.01250457763672 L27.422264099121094 78.6039047241211 C23.994140625 82.0328140258789 23.994140625 87.6117172241211 27.422264099121094 91.04023742675781 L38.923824310302734 102.54179382324219 L27.422264099121094 114.0433578491211 C23.994140625 117.4722671508789 23.994140625 123.05116271972656 27.422264099121094 126.4800796508789 L35.013671875 134.0710906982422 C36.67460632324219 135.73202514648438 38.882816314697266 136.64688110351562 41.232032775878906 136.64688110351562 C43.58124542236328 136.64688110351562 45.78945541381836 135.732421875 47.450782775878906 134.0710906982422 L58.95195770263672 122.56953430175781 L70.453125 134.0710906982422 C72.11405944824219 135.73202514648438 74.322265625 136.646484375 76.6714859008789 136.646484375 C79.02070617675781 136.646484375 81.2289047241211 135.73162841796875 82.88984680175781 134.07070922851562 L90.4808578491211 126.47968292236328 C92.1421890258789 124.81875610351562 93.0570297241211 122.61015319824219 93.0570297241211 120.26132202148438 C93.0570297241211 117.91249084472656 92.1421890258789 115.70390319824219 90.48125457763672 114.04297637939453 L78.97969055175781 102.54141235351562 L90.4808578491211 91.04023742675781 C92.1421890258789 89.37890625 93.0570297241211 87.17031860351562 93.0570297241211 84.82148742675781 Z M86.337890625 86.896484375 L72.76484680175781 100.46952819824219 C71.6207046508789 101.61367797851562 71.6207046508789 103.46875 72.76484680175781 104.61250305175781 L86.3382797241211 118.1859359741211 C86.892578125 118.740234375 87.1976547241211 119.4769515991211 87.1976547241211 120.26094055175781 C87.1976547241211 121.044921875 86.892578125 121.78163146972656 86.337890625 122.3359375 L78.74649047851562 129.9269561767578 C78.19218444824219 130.48126220703125 77.4554672241211 130.78631591796875 76.6714859008789 130.78631591796875 C75.88749694824219 130.78631591796875 75.150390625 130.48126220703125 74.59648132324219 129.9269561767578 L61.023826599121094 116.3539047241211 C60.47421646118164 115.80430603027344 59.72929763793945 115.4957046508789 58.95195770263672 115.4957046508789 C58.17461013793945 115.4957046508789 57.430076599121094 115.80430603027344 56.88008117675781 116.3539047241211 L43.30742263793945 129.9269561767578 C42.75273132324219 130.48126220703125 42.015625 130.78671264648438 41.232032775878906 130.78671264648438 C40.44844055175781 130.78671264648438 39.711334228515625 130.48162841796875 39.15703201293945 129.92735290527344 L31.565628051757812 122.3363265991211 C30.42108917236328 121.19219207763672 30.42108917236328 119.33007049560547 31.565628051757812 118.1859359741211 L45.138668060302734 104.61288452148438 C46.282814025878906 103.46875 46.282814025878906 101.61367797851562 45.138668060302734 100.46992492675781 L31.565628051757812 86.8968734741211 C30.42108917236328 85.75273132324219 30.421485900878906 83.890625 31.565628051757812 82.7464828491211 L39.15703201293945 75.15546417236328 C39.711334228515625 74.6011734008789 40.44804382324219 74.29609680175781 41.232032775878906 74.29609680175781 C42.01601791381836 74.29609680175781 42.75312423706055 74.6011734008789 43.307029724121094 75.15546417236328 L56.88008117675781 88.728515625 C57.4296875 89.27812194824219 58.17461013793945 89.58671569824219 58.95195770263672 89.58671569824219 C59.72929763793945 89.58671569824219 60.47383117675781 89.27812194824219 61.023826599121094 88.728515625 L74.59609985351562 75.15546417236328 C75.1507797241211 74.6011734008789 75.88788604736328 74.29570770263672 76.6714859008789 74.29570770263672 C77.455078125 74.29570770263672 78.19218444824219 74.60078430175781 78.74649047851562 75.15507507324219 L86.337890625 82.74609375 C86.892578125 83.30038452148438 87.1976547241211 84.0374984741211 87.1976547241211 84.82109069824219 C87.1976547241211 85.6050796508789 86.892578125 86.3421859741211 86.337890625 86.896484375 Z"></path></svg>