<svg xmlns="http://www.w3.org/2000/svg" viewBox="0.0 0.0 200.0 200.0" height="200.0px" width="200.0px"><path fill="#49d88b" fill-opacity="1.0"  filling="0" d="M182.02578735351562 157.203125 C193.35116577148438 140.99334716796875 200.0 121.27461242675781 200.0 100.0 C200.0 44.771480560302734 155.228515625 0.0 100.0 0.0 C44.771480560302734 0.0 0.0 44.771480560302734 0.0 100.0 C0.0 121.27461242675781 6.648826599121094 140.99334716796875 17.974220275878906 157.203125 L182.02578735351562 157.203125 Z"></path>
<path fill="#e9efff" fill-opacity="1.0"  filling="0" d="M182.03125 23.4375 L182.03125 157.203125 C163.95703125 183.07421875 133.953125 200.0 100.0 200.0 C66.046875 200.0 36.042964935302734 183.07421875 17.96875 157.203125 L17.96875 23.4375 L39.51953125 20.359375 L100.0 11.71875 L160.48046875 20.359375 L182.03125 23.4375 Z"></path>
<path fill="#d3dcfb" fill-opacity="1.0"  filling="0" d="M49.08984375 18.9921875 L39.51953125 20.359375 L17.96875 23.4375 L17.96875 157.203125 C36.042964935302734 183.07421875 66.046875 200.0 100.0 200.0 C133.953125 200.0 163.95703125 183.07421875 182.03125 157.203125 C108.60975646972656 157.203125 49.09022903442383 97.6832046508789 49.09022903442383 24.262107849121094 L49.09022903442383 18.9921875 L49.08984375 18.9921875 Z"></path>
<path fill="#2a428c" fill-opacity="1.0"  filling="0" d="M182.03125 23.4375 L17.96875 23.4375 L17.96875 7.8125 C17.96875 3.4976577758789062 21.466407775878906 0.0 25.78125 0.0 L174.21875 0.0 C178.53359985351562 0.0 182.03125 3.4976577758789062 182.03125 7.8125 L182.03125 23.4375 Z"></path>
<path fill="#1c2e7a" fill-opacity="1.0"  filling="0" d="M44.74883270263672 19.53125 C44.74883270263672 17.37383270263672 46.49765396118164 15.625 48.65508270263672 15.625 L48.65508270263672 7.8125 C46.49765396118164 7.8125 44.74883270263672 6.063667297363281 44.74883270263672 3.90625 C44.74883270263672 1.7488327026367188 46.49765396118164 0.0 48.65508270263672 0.0 L25.78125 0.0 C21.466407775878906 0.0 17.96875 3.4976577758789062 17.96875 7.8125 L17.96875 23.4375 L48.65508270263672 23.4375 C46.49765396118164 23.4375 44.74883270263672 21.68866729736328 44.74883270263672 19.53125 Z"></path>
<path fill="#ff4155" fill-opacity="1.0"  filling="0" d="M169.3359375 11.71875 A3.90625 3.90625 0.0 1 1 161.5234375 11.71875 A3.90625 3.90625 0.0 1 1 169.3359375 11.71875 Z"></path>
<path fill="#ffdd40" fill-opacity="1.0"  filling="0" d="M155.6640625 11.71875 A3.90625 3.90625 0.0 1 1 147.8515625 11.71875 A3.90625 3.90625 0.0 1 1 155.6640625 11.71875 Z"></path>
<path fill="#38c674" fill-opacity="1.0"  filling="0" d="M141.9921875 11.71875 A3.90625 3.90625 0.0 1 1 134.1796875 11.71875 A3.90625 3.90625 0.0 1 1 141.9921875 11.71875 Z"></path>
<path fill="#3c58a0" fill-opacity="1.0"  filling="0" d="M34.5703125 15.625 L118.5546875 15.625 C120.71211242675781 15.625 122.4609375 13.876167297363281 122.4609375 11.71875 C122.4609375 9.561332702636719 120.71211242675781 7.8125 118.5546875 7.8125 L34.5703125 7.8125 C32.41288757324219 7.8125 30.6640625 9.561332702636719 30.6640625 11.71875 C30.6640625 13.876167297363281 32.41288757324219 15.625 34.5703125 15.625 Z"></path>
<path fill="#fff" fill-opacity="1.0"  filling="0" d="M144.921875 81.0546875 A44.921875 44.921875 0.0 1 1 55.078125 81.0546875 A44.921875 44.921875 0.0 1 1 144.921875 81.0546875 Z"></path>
<path fill="#9bd8f9" fill-opacity="1.0"  filling="0" d="M129.0925750732422 107.1187515258789 C135.291015625 100.205078125 139.0625 91.07070922851562 139.0625 81.0546875 C139.0625 59.48125076293945 121.57344055175781 41.9921875 100.0 41.9921875 C78.42655944824219 41.9921875 60.9375 59.48125076293945 60.9375 81.0546875 C60.9375 91.07070922851562 64.708984375 100.205078125 70.90741729736328 107.1187515258789 L129.0925750732422 107.1187515258789 Z"></path>
<path fill="#1e9ef4" fill-opacity="1.0"  filling="0" d="M124.5667953491211 97.53398132324219 C121.20976257324219 94.5699234008789 106.6675796508789 92.17538452148438 106.6675796508789 92.17538452148438 L106.6675796508789 75.07499694824219 L93.33281707763672 75.07499694824219 L93.33281707763672 92.17538452148438 C93.33281707763672 92.17538452148438 78.79061889648438 94.5699234008789 75.43359375 97.53398132324219 C74.05313110351562 98.75312805175781 72.388671875 102.78907012939453 70.90741729736328 107.1187515258789 C78.0589828491211 115.09648132324219 88.44257354736328 120.1171875 100.0 120.1171875 C111.55742645263672 120.1171875 121.9410171508789 115.09648132324219 129.0925750732422 107.1187515258789 C127.611328125 102.78907012939453 125.947265625 98.75312805175781 124.5667953491211 97.53398132324219 Z"></path>
<path fill="#1886ea" fill-opacity="1.0"  filling="0" d="M115.96367645263672 114.77656555175781 C101.30000305175781 114.77656555175781 88.52578735351562 106.69532012939453 81.845703125 94.74453735351562 C79.08125305175781 95.556640625 76.5914077758789 96.5113296508789 75.43319702148438 97.53398132324219 C74.052734375 98.75312805175781 72.38827514648438 102.78907012939453 70.90702819824219 107.1187515258789 C78.0589828491211 115.09648132324219 88.44257354736328 120.1171875 100.0 120.1171875 C107.34844207763672 120.1171875 114.22187042236328 118.08671569824219 120.09296417236328 114.55781555175781 C118.73593139648438 114.7007827758789 117.35858917236328 114.77656555175781 115.96367645263672 114.77656555175781 Z"></path>
<path fill="#1886ea" fill-opacity="1.0"  filling="0" d="M93.33281707763672 75.07499694824219 L93.33281707763672 92.17538452148438 C100.49414825439453 92.17538452148438 104.5093765258789 86.6792984008789 104.5093765258789 86.6792984008789 L106.6675796508789 75.07499694824219 L93.33281707763672 75.07499694824219 Z"></path>
<path fill="#4fabf7" fill-opacity="1.0"  filling="0" d="M112.39765930175781 68.423828125 C112.39765930175781 77.5531234741211 106.84687805175781 88.2601547241211 100.0 88.2601547241211 C93.15312194824219 88.2601547241211 87.60234069824219 77.5531234741211 87.60234069824219 68.423828125 C87.60234069824219 59.294532775878906 93.15312194824219 52.73007583618164 100.0 52.73007583618164 C106.84687805175781 52.73007583618164 112.39765930175781 59.29413986206055 112.39765930175781 68.423828125 Z"></path>
<path fill="#1e9ef4" fill-opacity="1.0"  filling="0" d="M91.8656234741211 68.423828125 C91.8656234741211 60.263668060302734 96.3003921508789 54.15351486206055 102.13163757324219 52.94804382324219 C101.43905639648438 52.804683685302734 100.7269515991211 52.73007583618164 100.0 52.73007583618164 C93.15312194824219 52.73007583618164 87.60234069824219 59.29413986206055 87.60234069824219 68.423828125 C87.60234069824219 77.5531234741211 93.15312194824219 88.2601547241211 100.0 88.2601547241211 C100.7269515991211 88.2601547241211 101.43905639648438 88.1382827758789 102.13163757324219 87.9117202758789 C96.3003921508789 86.00312805175781 91.8656234741211 76.583984375 91.8656234741211 68.423828125 Z"></path>
<path fill="#2a428c" fill-opacity="1.0"  filling="0" d="M146.875 154.296875 L53.125 154.296875 C48.81016159057617 154.296875 45.3125 150.79920959472656 45.3125 146.484375 C45.3125 142.16954040527344 48.81016159057617 138.671875 53.125 138.671875 L146.875 138.671875 C151.18983459472656 138.671875 154.6875 142.16954040527344 154.6875 146.484375 C154.6875 150.79920959472656 151.18983459472656 154.296875 146.875 154.296875 Z"></path>
<path fill="#3c58a0" fill-opacity="1.0"  filling="0" d="M85.3515625 146.484375 A2.9296875 2.9296875 0.0 1 1 79.4921875 146.484375 A2.9296875 2.9296875 0.0 1 1 85.3515625 146.484375 Z"></path>
<path fill="#3c58a0" fill-opacity="1.0"  filling="0" d="M97.0703125 146.484375 A2.9296875 2.9296875 0.0 1 1 91.2109375 146.484375 A2.9296875 2.9296875 0.0 1 1 97.0703125 146.484375 Z"></path>
<path fill="#3c58a0" fill-opacity="1.0"  filling="0" d="M108.7890625 146.484375 A2.9296875 2.9296875 0.0 1 1 102.9296875 146.484375 A2.9296875 2.9296875 0.0 1 1 108.7890625 146.484375 Z"></path>
<path fill="#3c58a0" fill-opacity="1.0"  filling="0" d="M120.5078125 146.484375 A2.9296875 2.9296875 0.0 1 1 114.6484375 146.484375 A2.9296875 2.9296875 0.0 1 1 120.5078125 146.484375 Z"></path>
<path fill="#3c58a0" fill-opacity="1.0"  filling="0" d="M132.2265625 146.484375 A2.9296875 2.9296875 0.0 1 1 126.3671875 146.484375 A2.9296875 2.9296875 0.0 1 1 132.2265625 146.484375 Z"></path>
<path fill="#3c58a0" fill-opacity="1.0"  filling="0" d="M143.9453125 146.484375 A2.9296875 2.9296875 0.0 1 1 138.0859375 146.484375 A2.9296875 2.9296875 0.0 1 1 143.9453125 146.484375 Z"></path>
<path fill="#3c58a0" fill-opacity="1.0"  filling="0" d="M73.6328125 146.484375 A2.9296875 2.9296875 0.0 1 1 67.7734375 146.484375 A2.9296875 2.9296875 0.0 1 1 73.6328125 146.484375 Z"></path>
<path fill="#3c58a0" fill-opacity="1.0"  filling="0" d="M61.9140625 146.484375 A2.9296875 2.9296875 0.0 1 1 56.0546875 146.484375 A2.9296875 2.9296875 0.0 1 1 61.9140625 146.484375 Z"></path>
<path fill="#fff" fill-opacity="1.0"  filling="0" d="M139.0625 175.78125 L53.125 175.78125 C48.81016159057617 175.78125 45.3125 172.28359985351562 45.3125 167.96875 C45.3125 163.65391540527344 48.81016159057617 160.15625 53.125 160.15625 L139.0625 160.15625 L139.0625 175.78125 Z"></path>
<path fill="#4fabf7" fill-opacity="1.0"  filling="0" d="M139.0625 175.78125 L146.875 175.78125 C151.18983459472656 175.78125 154.6875 172.28359985351562 154.6875 167.96875 C154.6875 163.65391540527344 151.18983459472656 160.15625 146.875 160.15625 L139.0625 160.15625 C134.74766540527344 160.15625 131.25 163.65391540527344 131.25 167.96875 C131.25 172.28359985351562 134.74766540527344 175.78125 139.0625 175.78125 Z"></path>
<path fill="#bec8f7" fill-opacity="1.0"  filling="0" d="M87.32968139648438 167.96875 A2.9296875 2.9296875 0.0 1 1 81.47030639648438 167.96875 A2.9296875 2.9296875 0.0 1 1 87.32968139648438 167.96875 Z"></path>
<path fill="#bec8f7" fill-opacity="1.0"  filling="0" d="M99.0484390258789 167.96875 A2.9296875 2.9296875 0.0 1 1 93.1890640258789 167.96875 A2.9296875 2.9296875 0.0 1 1 99.0484390258789 167.96875 Z"></path>
<path fill="#bec8f7" fill-opacity="1.0"  filling="0" d="M110.76718139648438 167.96875 A2.9296875 2.9296875 0.0 1 1 104.9078140258789 167.96875 A2.9296875 2.9296875 0.0 1 1 110.76718139648438 167.96875 Z"></path>
<path fill="#bec8f7" fill-opacity="1.0"  filling="0" d="M122.48593139648438 167.96875 A2.9296875 2.9296875 0.0 1 1 116.62655639648438 167.96875 A2.9296875 2.9296875 0.0 1 1 122.48593139648438 167.96875 Z"></path>
<path fill="#bec8f7" fill-opacity="1.0"  filling="0" d="M75.61093139648438 167.96875 A2.9296875 2.9296875 0.0 1 1 69.75155639648438 167.96875 A2.9296875 2.9296875 0.0 1 1 75.61093139648438 167.96875 Z"></path>
<path fill="#bec8f7" fill-opacity="1.0"  filling="0" d="M63.89218521118164 167.96875 A2.9296875 2.9296875 0.0 1 1 58.03281021118164 167.96875 A2.9296875 2.9296875 0.0 1 1 63.89218521118164 167.96875 Z"></path>
<path fill="#fff" fill-opacity="1.0"  filling="0" d="M140.34609985351562 165.51133728027344 L140.34609985351562 170.4265594482422 C140.34609985351562 171.05078125 141.0417938232422 171.42303466796875 141.56094360351562 171.07656860351562 L145.24374389648438 168.619140625 C145.70703125 168.30975341796875 145.70703125 167.62890625 145.24374389648438 167.3195343017578 L141.56094360351562 164.8621063232422 C141.0417938232422 164.51483154296875 140.34609985351562 164.88711547851562 140.34609985351562 165.51133728027344 Z"></path></svg>