<svg xmlns="http://www.w3.org/2000/svg" viewBox="0.0 0.0 200.0 200.0" height="200.0px" width="200.0px"><path fill="#eeedff" fill-opacity="1.0"  filling="0" d="M22.0909423828125 182.2293701171875 L10.997184753417969 82.53521728515625 L42.851104736328125 78.0092544555664 L53.94486618041992 177.7034149169922 L22.0909423828125 182.2293701171875 Z"></path>
<path fill="#eeedff" fill-opacity="1.0"  filling="0" d="M17.598388671875 67.15653991699219 L91.7718276977539 14.214485168457031 L110.46479034423828 40.40401840209961 L36.291343688964844 93.34607696533203 L17.598388671875 67.15653991699219 Z"></path>
<path fill="#eeedff" fill-opacity="1.0"  filling="0" d="M148.1581573486328 67.69215393066406 L133.87484741210938 59.60200881958008 L119.89054870605469 29.880477905273438 L102.42293548583984 38.099395751953125 L117.71348571777344 70.59718322753906 C118.56378936767578 72.40402221679688 119.95291900634766 73.9026107788086 121.69054412841797 74.88652038574219 L138.64385986328125 84.48893737792969 C141.09295654296875 85.87605285644531 144.20281982421875 85.01528930664062 145.58993530273438 82.56619262695312 L150.0804901123047 74.63783264160156 C151.468017578125 72.18953704833984 150.60723876953125 69.07967376708984 148.1581573486328 67.69215393066406 Z"></path>
<path fill="#eeedff" fill-opacity="1.0"  filling="0" d="M172.2257537841797 25.200401306152344 L155.27243041992188 15.597984313964844 C153.53480529785156 14.614082336425781 151.53521728515625 14.1927490234375 149.54849243164062 14.392753601074219 L113.8140869140625 17.989532470703125 L115.74727630615234 37.197181701660156 L148.42898559570312 33.907447814941406 L162.7122802734375 41.997581481933594 C165.161376953125 43.384708404541016 168.27122497558594 42.52394104003906 169.65835571289062 40.07484817504883 L174.14889526367188 32.14647674560547 C175.53561401367188 29.69738006591797 174.67445373535156 26.5875244140625 172.2257537841797 25.200401306152344 Z"></path>
<path fill="#d3d3ff" fill-opacity="1.0"  filling="0" d="M46.64023971557617 112.05875396728516 L42.851104736328125 78.0092544555664 L10.997184753417969 82.53521728515625 L14.679679870605469 115.6293716430664 C18.517906188964844 116.96257781982422 22.637420654296875 117.68893432617188 26.92394256591797 117.68893432617188 C34.154930114746094 117.68893432617188 40.911468505859375 115.62535858154297 46.64023971557617 112.05875396728516 Z"></path>
<path fill="#696eb1" fill-opacity="1.0"  filling="0" d="M52.26840591430664 80.2724380493164 A25.344467163085938 25.344467163085938 0.0 1 1 1.5794754028320312 80.2724380493164 A25.344467163085938 25.344467163085938 0.0 1 1 52.26840591430664 80.2724380493164 Z"></path>
<path fill="#eeedff" fill-opacity="1.0"  filling="0" d="M36.3621711730957 80.2724380493164 A9.43822956085205 9.43822956085205 0.0 1 1 17.48571014404297 80.2724380493164 A9.43822956085205 9.43822956085205 0.0 1 1 36.3621711730957 80.2724380493164 Z"></path>
<path fill="#696eb1" fill-opacity="1.0"  filling="0" d="M84.90220642089844 187.92555236816406 L81.67485046386719 177.87767028808594 C78.24024200439453 167.18472290039062 68.29415893554688 159.93240356445312 57.062774658203125 159.93240356445312 L12.800399780273438 159.93240356445312 C7.693763732910156 159.93240356445312 3.5537185668945312 164.07244873046875 3.5537185668945312 169.1790771484375 L3.5537185668945312 190.75332641601562 C3.5537185668945312 195.85995483398438 7.693763732910156 200.0 12.800399780273438 200.0 L76.09858703613281 200.0 C82.36740112304688 200.0 86.8193130493164 193.8941650390625 84.90220642089844 187.92555236816406 Z"></path>
<path fill="#d3d3ff" fill-opacity="1.0"  filling="0" d="M91.77987670898438 14.274444580078125 L67.3907470703125 31.66357421875 C67.626953125 33.53319549560547 67.99919128417969 35.39878845214844 68.51106262207031 37.247886657714844 C71.01448059082031 46.29215621948242 76.56901550292969 53.95895004272461 84.27806854248047 59.13762283325195 L110.45835876464844 40.471622467041016 L91.77987670898438 14.274444580078125 Z"></path>
<path fill="#696eb1" fill-opacity="1.0"  filling="0" d="M132.66116333007812 11.079673767089844 L119.26640319824219 3.492950439453125 C106.35975646972656 -3.8173065185546875 89.97102355957031 0.719512939453125 82.6607666015625 13.625755310058594 C75.35050201416016 26.532394409179688 79.8873291015625 42.92112350463867 92.7935562133789 50.23138427734375 L106.18832397460938 57.8181037902832 C111.69697570800781 60.93843078613281 118.69215393066406 59.002010345458984 121.8124771118164 53.49335861206055 L136.9859161376953 26.703826904296875 C140.10623168945312 21.195167541503906 138.17022705078125 14.199996948242188 132.66116333007812 11.079673767089844 Z"></path>
<path fill="#4c5698" fill-opacity="1.0"  filling="0" d="M83.98350524902344 185.065185546875 C77.56298065185547 188.58953857421875 70.19114685058594 190.5955810546875 62.350101470947266 190.5955810546875 C42.50543212890625 190.5955810546875 25.659957885742188 177.7565460205078 19.665184020996094 159.93240356445312 L12.800399780273438 159.93240356445312 C7.693763732910156 159.93240356445312 3.5537185668945312 164.07244873046875 3.5537185668945312 169.1790771484375 L3.5537185668945312 190.75332641601562 C3.5537185668945312 195.85995483398438 7.693763732910156 200.0 12.800399780273438 200.0 L76.09858703613281 200.0 C82.36740112304688 200.0 86.8193130493164 193.8941650390625 84.90220642089844 187.92596435546875 L83.98350524902344 185.065185546875 Z"></path>
<path fill="#4c5698" fill-opacity="1.0"  filling="0" d="M96.481689453125 15.459953308105469 C96.481689453125 10.3134765625 97.46116638183594 5.395973205566406 99.24346160888672 0.8828964233398438 C92.46720886230469 2.6535186767578125 86.38511657714844 7.050300598144531 82.6607666015625 13.625755310058594 C75.35050201416016 26.532394409179688 79.8873291015625 42.92112350463867 92.7935562133789 50.23138427734375 L106.18832397460938 57.81850814819336 C111.69697570800781 60.93843078613281 118.69215393066406 59.00241470336914 121.8124771118164 53.49335861206055 L122.28572082519531 52.65754699707031 C107.2140884399414 47.0245475769043 96.481689453125 32.49657440185547 96.481689453125 15.459953308105469 Z"></path>
<path fill="#fce29f" fill-opacity="1.0"  filling="0" d="M188.45191955566406 149.77545166015625 A40.82736587524414 40.82736587524414 0.0 1 1 106.79718017578125 149.77545166015625 A40.82736587524414 40.82736587524414 0.0 1 1 188.45191955566406 149.77545166015625 Z"></path>
<path fill="#30cc9b" fill-opacity="1.0"  filling="0" d="M197.48651123046875 149.11590576171875 C196.07444763183594 143.81167602539062 191.21206665039062 140.16297912597656 185.72354125976562 140.20965576171875 C180.67123413085938 140.25271606445312 176.0989990234375 143.21287536621094 173.991943359375 147.80523681640625 C171.88491821289062 152.3975830078125 167.31268310546875 155.3577423095703 162.2603759765625 155.4008026123047 C157.20803833007812 155.44387817382812 152.63580322265625 158.40402221679688 150.52877807617188 162.99636840820312 C148.42173767089844 167.5887451171875 143.84950256347656 170.54888916015625 138.79718017578125 170.59194946289062 C133.744873046875 170.635009765625 129.17263793945312 173.59518432617188 127.06558990478516 178.18753051757812 C124.77666473388672 183.17625427246094 126.11629486083984 189.1058349609375 130.37786865234375 192.5649871826172 C135.57705688476562 196.7851104736328 142.14486694335938 199.12274169921875 152.9669952392578 199.8945770263672 C171.38671875 201.20806884765625 188.58993530273438 190.06961059570312 194.92999267578125 172.72555541992188 C198.65432739257812 162.53602600097656 199.20925903320312 155.5867156982422 197.48651123046875 149.11590576171875 Z"></path>
<path fill="#323d40" fill-opacity="1.0"  filling="0" d="M127.94688415527344 138.88772583007812 C126.28008270263672 138.88772583007812 124.92877197265625 137.5364227294922 124.92877197265625 135.86961364746094 L124.92877197265625 132.08853149414062 C124.92877197265625 130.42172241210938 126.28008270263672 129.07041931152344 127.94688415527344 129.07041931152344 C129.61367797851562 129.07041931152344 130.96499633789062 130.42172241210938 130.96499633789062 132.08853149414062 L130.96499633789062 135.86961364746094 C130.96499633789062 137.5364227294922 129.61367797851562 138.88772583007812 127.94688415527344 138.88772583007812 Z"></path>
<path fill="#323d40" fill-opacity="1.0"  filling="0" d="M167.3026123046875 138.88772583007812 C165.6358184814453 138.88772583007812 164.28451538085938 137.5364227294922 164.28451538085938 135.86961364746094 L164.28451538085938 132.08853149414062 C164.28451538085938 130.42172241210938 165.6358184814453 129.07041931152344 167.3026123046875 129.07041931152344 C168.96942138671875 129.07041931152344 170.32073974609375 130.42172241210938 170.32073974609375 132.08853149414062 L170.32073974609375 135.86961364746094 C170.32073974609375 137.5364227294922 168.96942138671875 138.88772583007812 167.3026123046875 138.88772583007812 Z"></path>
<path fill="#323d40" fill-opacity="1.0"  filling="0" d="M147.62454223632812 141.1388397216797 C144.76419067382812 141.1388397216797 142.04345703125 139.90020751953125 140.161376953125 137.7400360107422 C139.06639099121094 136.48330688476562 139.1971893310547 134.5770721435547 140.4539337158203 133.481689453125 C141.71066284179688 132.38671875 143.6168975830078 132.5175018310547 144.71226501464844 133.7742462158203 C145.4478759765625 134.61851501464844 146.50946044921875 135.10263061523438 147.62493896484375 135.10263061523438 C148.74044799804688 135.10263061523438 149.80201721191406 134.61851501464844 150.53762817382812 133.7742462158203 C151.63259887695312 132.51710510253906 153.53883361816406 132.38671875 154.7959747314453 133.481689453125 C156.05270385742188 134.57666015625 156.18350219726562 136.48330688476562 155.08853149414062 137.7400360107422 C153.2056427001953 139.89979553222656 150.4853057861328 141.1388397216797 147.62454223632812 141.1388397216797 Z"></path>
<path fill="#ffcd71" fill-opacity="1.0"  filling="0" d="M117.31267547607422 146.83139038085938 C117.31267547607422 126.6841049194336 133.17584228515625 110.2430648803711 153.09336853027344 109.31348419189453 C151.30422973632812 109.07405090332031 149.47967529296875 108.94767761230469 147.62493896484375 108.94767761230469 C125.07646179199219 108.94767761230469 106.7975845336914 127.22695922851562 106.7975845336914 149.77545166015625 L117.31267547607422 146.83139038085938 Z"></path>
<path fill="#71dbba" fill-opacity="1.0"  filling="0" d="M97.76297760009766 149.11590576171875 C99.175048828125 143.81167602539062 104.03742218017578 140.16297912597656 109.52595520019531 140.20965576171875 C114.57826232910156 140.25271606445312 119.15049743652344 143.21287536621094 121.25755310058594 147.80523681640625 C123.36459350585938 152.3975830078125 127.93682098388672 155.3577423095703 132.9891357421875 155.4008026123047 C138.04144287109375 155.44387817382812 142.61367797851562 158.40402221679688 144.72073364257812 162.99636840820312 C146.82777404785156 167.5887451171875 151.39999389648438 170.54888916015625 156.4523162841797 170.59194946289062 C161.50462341308594 170.635009765625 166.0768585205078 173.59518432617188 168.1839141845703 178.18753051757812 C170.47283935546875 183.17625427246094 169.13319396972656 189.1058349609375 164.8716278076172 192.5649871826172 C159.6724395751953 196.7851104736328 153.10462951660156 199.12274169921875 142.28250122070312 199.8945770263672 C123.86277770996094 201.20806884765625 106.65956115722656 190.06961059570312 100.31951904296875 172.72555541992188 C96.59516906738281 162.53602600097656 96.04024505615234 155.5867156982422 97.76297760009766 149.11590576171875 Z"></path>
<path fill="#30cc9b" fill-opacity="1.0"  filling="0" d="M108.84467315673828 158.6438751220703 C108.84467315673828 152.22857666015625 110.21006774902344 146.1328125 112.66317749023438 140.628173828125 C111.65110778808594 140.36740112304688 110.60079956054688 140.218505859375 109.52595520019531 140.20965576171875 C104.03742218017578 140.16256713867188 99.175048828125 143.81167602539062 97.76297760009766 149.11590576171875 C96.04024505615234 155.5867156982422 96.59516906738281 162.53602600097656 100.32032775878906 172.7259521484375 C106.05553436279297 188.4160919189453 120.68169403076172 199.0257568359375 137.0555419921875 199.934814453125 C120.54366302490234 193.4933624267578 108.84467315673828 177.43582153320312 108.84467315673828 158.6438751220703 Z"></path></svg>