<svg xmlns="http://www.w3.org/2000/svg" viewBox="0.0 0.0 200.0 200.0" height="200.0px" width="200.0px"><path fill="#ffda8f" fill-opacity="1.0"  filling="0" d="M60.177345275878906 39.015625 C68.23828125 34.66680145263672 77.06289672851562 31.579299926757812 86.408203125 30.051956176757812 C86.408203125 42.822265625 86.36405944824219 54.06523513793945 85.92108917236328 64.4671859741211 C85.62226104736328 71.328125 85.15742492675781 77.8238296508789 84.404296875 84.15351867675781 C82.333984375 101.693359375 78.115234375 118.00430297851562 69.544921875 137.34765625 L54.286720275878906 137.34765625 L54.286720275878906 119.3765640258789 C54.286720275878906 116.69882202148438 52.10546875 114.51875305175781 49.42578125 114.51875305175781 L40.2578125 114.51875305175781 C37.58906173706055 114.51875305175781 35.396873474121094 116.69843292236328 35.396873474121094 119.3765640258789 L35.396873474121094 137.34765625 L15.831634521484375 137.34765625 L15.831634521484375 113.046875 C15.831634521484375 81.16561889648438 33.835548400878906 53.26836013793945 60.177345275878906 39.015625 Z"></path>
<path fill="#ffda8f" fill-opacity="1.0"  filling="0" d="M115.58476257324219 84.15351867675781 C114.84296417236328 77.8238296508789 114.36679077148438 71.328125 114.07890319824219 64.46757507324219 C113.625 54.06562805175781 113.59180450439453 42.822265625 113.59180450439453 30.052337646484375 C122.92578125 31.579299926757812 131.76211547851562 34.65547180175781 139.8117218017578 39.015625 C166.16445922851562 53.26874923706055 184.15740966796875 81.1546859741211 184.15740966796875 113.046875 L184.15740966796875 137.34765625 L164.59219360351562 137.34765625 L164.59219360351562 119.3765640258789 C164.59219360351562 116.69882202148438 162.4109344482422 114.51875305175781 159.7312469482422 114.51875305175781 L150.5632781982422 114.51875305175781 C147.89492797851562 114.51875305175781 145.70233154296875 116.69843292236328 145.70233154296875 119.3765640258789 L145.70233154296875 137.34765625 L130.45547485351562 137.34765625 C121.8851547241211 118.00430297851562 117.66641235351562 101.69297790527344 115.58476257324219 84.15351867675781 Z"></path>
<path fill="#ffda8f" fill-opacity="1.0"  filling="0" d="M88.3570327758789 137.34765625 L184.97694396972656 137.34765625 C191.08905029296875 137.34765625 196.09375 142.34921264648438 196.09375 148.4578094482422 C196.09375 154.55508422851562 190.6570281982422 157.28826904296875 184.97694396972656 159.55703735351562 C134.88436889648438 179.630859375 65.10469055175781 179.630859375 15.012107849121094 159.55703735351562 C9.342971801757812 157.28826904296875 3.90625 154.55508422851562 3.90625 148.4578094482422 C3.90625 142.34921264648438 8.900001525878906 137.34765625 15.012107849121094 137.34765625 L88.3570327758789 137.34765625 Z"></path>
<path fill="#ffe6b4" fill-opacity="1.0"  filling="0" d="M84.404296875 84.15351867675781 L115.58476257324219 84.15351867675781 C117.66641235351562 101.693359375 121.8851547241211 118.00430297851562 130.45547485351562 137.34765625 L69.544921875 137.34765625 C78.115234375 118.00430297851562 82.3335952758789 101.69297790527344 84.404296875 84.15351867675781 Z"></path>
<path fill="#ffda8f" fill-opacity="1.0"  filling="0" d="M85.92108917236328 64.4671859741211 L114.07890319824219 64.4671859741211 C114.36679077148438 71.328125 114.84296417236328 77.8238296508789 115.58476257324219 84.15351867675781 L84.404296875 84.15351867675781 C85.15702819824219 77.8238296508789 85.62226104736328 71.328125 85.92108917236328 64.4671859741211 Z"></path>
<path fill="#ffe6b4" fill-opacity="1.0"  filling="0" d="M86.408203125 30.052337646484375 C86.408203125 30.04296875 86.408203125 30.041412353515625 86.4085922241211 30.041412353515625 L86.4085922241211 30.041412353515625 C86.4085922241211 27.485153198242188 88.50117492675781 25.39374542236328 91.0589828491211 25.39374542236328 L108.94141387939453 25.39374542236328 C111.49921417236328 25.39374542236328 113.59180450439453 27.485153198242188 113.59180450439453 30.041412353515625 L113.59180450439453 30.052337646484375 C113.59180450439453 42.82265853881836 113.625 54.06562805175781 114.07890319824219 64.46757507324219 L85.92108917236328 64.46757507324219 C86.36405944824219 54.06562805175781 86.408203125 42.822265625 86.408203125 30.052337646484375 Z"></path>
<path fill="#ecf2f3" fill-opacity="1.0"  filling="0" d="M40.2578125 114.51835632324219 L49.42578125 114.51835632324219 C52.10546875 114.51835632324219 54.286720275878906 116.69805145263672 54.286720275878906 119.37617492675781 L54.286720275878906 137.34725952148438 L35.396873474121094 137.34725952148438 L35.396873474121094 119.37617492675781 C35.396873474121094 116.69843292236328 37.589454650878906 114.51835632324219 40.2578125 114.51835632324219 Z"></path>
<path fill="#ecf2f3" fill-opacity="1.0"  filling="0" d="M150.5632781982422 114.51835632324219 L159.7312469482422 114.51835632324219 C162.4109344482422 114.51835632324219 164.59219360351562 116.69805145263672 164.59219360351562 119.37617492675781 L164.59219360351562 137.34725952148438 L145.70233154296875 137.34725952148438 L145.70233154296875 119.37617492675781 C145.70233154296875 116.69843292236328 147.89492797851562 114.51835632324219 150.5632781982422 114.51835632324219 Z"></path>
<path fill="" fill-opacity="1.0"  filling="0" d="M188.06365966796875 133.76132202148438 L188.06365966796875 113.046875 C188.06365966796875 92.11640167236328 180.509765625 71.8003921508789 166.79336547851562 55.84062194824219 C153.80624389648438 40.72969055175781 136.13516235351562 30.440231323242188 116.80195617675781 26.665626525878906 C115.48945617675781 23.623046875 112.46054077148438 21.48749542236328 108.9410171508789 21.48749542236328 L91.0589828491211 21.48749542236328 C87.5394515991211 21.48749542236328 84.51054382324219 23.623046875 83.19804382324219 26.665626525878906 C63.861328125 30.439842224121094 46.18672180175781 40.730857849121094 33.196876525878906 55.84492111206055 C19.47968292236328 71.8050765991211 11.925003051757812 92.11991882324219 11.925003051757812 113.046875 L11.925003051757812 133.76211547851562 C5.123435974121094 135.18984985351562 0.0 141.23593139648438 0.0 148.4578094482422 C0.0 157.75741577148438 8.821487426757812 161.287109375 13.559761047363281 163.18319702148438 C33.535545349121094 171.18399047851562 57.26211166381836 176.283203125 82.17578125 177.92929077148438 C82.263671875 177.93515014648438 82.35038757324219 177.93789672851562 82.4371109008789 177.93789672851562 C84.4769515991211 177.93789672851562 86.19453430175781 176.35391235351562 86.33086395263672 174.2890625 C86.4730453491211 172.13632202148438 84.8433609008789 170.27618408203125 82.69062805175781 170.1339874267578 C58.58710861206055 168.54141235351562 35.68632507324219 163.6300811767578 16.463279724121094 155.9308624267578 C9.995307922363281 153.34219360351562 7.8125 151.45663452148438 7.8125 148.4578094482422 C7.8125 144.4855499267578 11.042190551757812 141.25390625 15.012107849121094 141.25390625 L184.9765625 141.25390625 C188.95272827148438 141.25390625 192.18710327148438 144.4855499267578 192.18710327148438 148.4578094482422 C192.18710327148438 151.45858764648438 190.001953125 153.34375 183.52304077148438 155.93124389648438 C164.28945922851562 163.64100646972656 141.3781280517578 168.55233764648438 117.26640319824219 170.13319396972656 C115.11367797851562 170.27423095703125 113.4828109741211 172.13397216796875 113.62421417236328 174.28671264648438 C113.765625 176.439453125 115.62187957763672 178.06875610351562 117.77772521972656 177.92889404296875 C142.70156860351562 176.29452514648438 166.44100952148438 171.1953125 186.42498779296875 163.18438720703125 C191.1691436767578 161.28985595703125 199.99960327148438 157.763671875 199.99960327148438 148.4578094482422 C200.0 141.23516845703125 194.87149047851562 135.1882781982422 188.06365966796875 133.76132202148438 Z M90.3148422241211 30.041015625 C90.3148422241211 29.639068603515625 90.65585327148438 29.29961395263672 91.0589828491211 29.29961395263672 L108.9410171508789 29.29961395263672 C109.34452819824219 29.29961395263672 109.6851577758789 29.639068603515625 109.6851577758789 30.041015625 C109.6851577758789 41.26875305175781 109.73124694824219 51.28750228881836 110.03828430175781 60.560935974121094 L89.9609375 60.560935974121094 C90.26836395263672 51.28750228881836 90.3148422241211 41.26875305175781 90.3148422241211 30.041015625 Z M89.6273422241211 68.3734359741211 L110.37226867675781 68.3734359741211 C110.58983612060547 72.44648742675781 110.87655639648438 76.38945770263672 111.25117492675781 80.24726867675781 L88.7476577758789 80.24726867675781 C89.1226577758789 76.38945770263672 89.40937805175781 72.44609832763672 89.6273422241211 68.3734359741211 Z M50.380470275878906 133.44140625 L39.303123474121094 133.44140625 L39.303123474121094 119.3765640258789 C39.303123474121094 118.86054229736328 39.740234375 118.42460632324219 40.2578125 118.42460632324219 L49.42617416381836 118.42460632324219 C49.95273208618164 118.42460632324219 50.380863189697266 118.8515625 50.380863189697266 119.3765640258789 L50.380863189697266 133.44140625 L50.380470275878906 133.44140625 Z M58.192970275878906 133.44140625 L58.192970275878906 119.3765640258789 C58.192970275878906 114.54374694824219 54.26015853881836 110.61210632324219 49.42578125 110.61210632324219 L40.2578125 110.61210632324219 C35.423828125 110.61210632324219 31.490623474121094 114.54374694824219 31.490623474121094 119.3765640258789 L31.490623474121094 133.44140625 L19.737503051757812 133.44140625 L19.737503051757812 113.046875 C19.737503051757812 85.58203125 34.217193603515625 60.523826599121094 56.27070236206055 45.982025146484375 L56.27070236206055 81.37617492675781 C56.27070236206055 83.5335922241211 58.01953125 85.28242492675781 60.17695236206055 85.28242492675781 C62.33437728881836 85.28242492675781 64.08320617675781 83.5335922241211 64.08320617675781 81.37617492675781 L64.08320617675781 41.439449310302734 C69.85234832763672 38.50663757324219 76.0234375 36.25312423706055 82.498046875 34.794921875 C82.4312515258789 75.8460922241211 81.25312805175781 100.2593765258789 66.98554992675781 133.44100952148438 L58.192970275878906 133.44100952148438 L58.192970275878906 133.44140625 Z M75.46601104736328 133.44140625 C82.13788604736328 117.3023452758789 85.8199234008789 103.12071228027344 87.84687805175781 88.0601577758789 L112.15116882324219 88.0601577758789 C114.17774200439453 103.1265640258789 117.85977172851562 117.30819702148438 124.53280639648438 133.44140625 L75.46601104736328 133.44140625 Z M160.68592834472656 133.44140625 L149.60858154296875 133.44140625 L149.60858154296875 119.3765640258789 C149.60858154296875 118.86054229736328 150.0457000732422 118.42460632324219 150.5632781982422 118.42460632324219 L159.7316436767578 118.42460632324219 C160.25819396972656 118.42460632324219 160.6863250732422 118.8515625 160.6863250732422 119.3765640258789 L160.6863250732422 133.44140625 L160.68592834472656 133.44140625 Z M180.25115966796875 133.44140625 L168.49844360351562 133.44140625 L168.49844360351562 119.3765640258789 C168.49844360351562 114.54374694824219 164.56561279296875 110.61210632324219 159.7312469482422 110.61210632324219 L150.56289672851562 110.61210632324219 C145.72891235351562 110.61210632324219 141.79571533203125 114.54374694824219 141.79571533203125 119.3765640258789 L141.79571533203125 133.44140625 L133.01327514648438 133.44140625 C118.74609375 100.28164672851562 117.568359375 75.86210632324219 117.50117492675781 34.795310974121094 C123.97187805175781 36.25312423706055 130.13906860351562 38.505470275878906 135.9050750732422 41.43632507324219 L135.9050750732422 81.37617492675781 C135.9050750732422 83.5335922241211 137.65391540527344 85.28242492675781 139.8113250732422 85.28242492675781 C141.96875 85.28242492675781 143.7175750732422 83.5335922241211 143.7175750732422 81.37617492675781 L143.7175750732422 45.978515625 C165.77108764648438 60.519920349121094 180.2507781982422 85.5796890258789 180.2507781982422 113.046875 L180.2507781982422 133.44140625 L180.25115966796875 133.44140625 Z"></path>
<path fill="" fill-opacity="1.0"  filling="0" d="M99.9945297241211 170.7003936767578 C97.83710479736328 170.7003936767578 96.0882797241211 172.44921875 96.0882797241211 174.6066436767578 C96.0882797241211 176.76406860351562 97.83710479736328 178.5128936767578 99.9945297241211 178.5128936767578 L100.01679992675781 178.5128936767578 C102.17422485351562 178.5128936767578 103.91211700439453 176.76406860351562 103.91211700439453 174.6066436767578 C103.91211700439453 172.44921875 102.1519546508789 170.7003936767578 99.9945297241211 170.7003936767578 Z"></path></svg>