<svg xmlns="http://www.w3.org/2000/svg" viewBox="0.0 0.0 200.0 200.0" height="200.0px" width="200.0px"><path fill="#c5d7bd" fill-opacity="1.0"  filling="0" d="M142.85714721679688 58.37857437133789 L142.85714721679688 22.857139587402344 A8.571429252624512 8.571429252624512 0.0 0 0 134.28570556640625 14.285713195800781 L37.14285659790039 14.285713195800781 A8.571429252624512 8.571429252624512 0.0 0 0 28.571426391601562 22.857139587402344 L28.571426391601562 177.14285278320312 A8.571429252624512 8.571429252624512 0.0 0 0 37.14285659790039 185.71429443359375 L134.28570556640625 185.71429443359375 A8.571429252624512 8.571429252624512 0.0 0 0 142.85714721679688 177.14285278320312 L142.85714721679688 126.78571319580078"></path>
<path fill="#fb743e" fill-opacity="1.0"  filling="0" d="M164.62142944335938 57.14285659790039 L85.37857055664062 57.14285659790039 A6.807142734527588 6.807142734527588 0.0 0 0 78.57142639160156 63.95000076293945 L78.57142639160156 142.2642822265625 L101.78571319580078 126.78571319580078 L164.64285278320312 126.78571319580078 A6.807142734527588 6.807142734527588 0.0 0 0 171.42857360839844 119.99999237060547 L171.42857360839844 63.95000076293945 A6.807142734527588 6.807142734527588 0.0 0 0 164.62142944335938 57.14285659790039 Z"></path>
<path fill="#9fb8ad" fill-opacity="1.0"  filling="0" d="M134.28570556640625 14.285713195800781 L37.14285659790039 14.285713195800781 A8.571429252624512 8.571429252624512 0.0 0 0 28.571426391601562 22.857139587402344 L28.571426391601562 28.571426391601562 L142.85714721679688 28.571426391601562 L142.85714721679688 22.857139587402344 A8.571429252624512 8.571429252624512 0.0 0 0 134.28570556640625 14.285713195800781 Z"></path>
<path fill="#9fb8ad" fill-opacity="1.0"  filling="0" d="M28.571426391601562 164.28570556640625 L28.571426391601562 177.14285278320312 A8.571429252624512 8.571429252624512 0.0 0 0 37.14285659790039 185.71429443359375 L134.28570556640625 185.71429443359375 A8.571429252624512 8.571429252624512 0.0 0 0 142.85714721679688 177.14285278320312 L142.85714721679688 164.28570556640625 L28.571426391601562 164.28570556640625 Z"></path>
<path fill="#383e56" fill-opacity="1.0"  filling="0" d="M164.62142944335938 53.57143020629883 L146.42857360839844 53.57143020629883 L146.42857360839844 22.857139587402344 A12.142857551574707 12.142857551574707 0.0 0 0 134.28570556640625 10.714286804199219 L37.14285659790039 10.714286804199219 A12.142857551574707 12.142857551574707 0.0 0 0 25.0 22.857139587402344 L25.0 177.14285278320312 A12.142857551574707 12.142857551574707 0.0 0 0 37.14285659790039 189.28570556640625 L134.28570556640625 189.28570556640625 A12.142857551574707 12.142857551574707 0.0 0 0 146.42857360839844 177.14285278320312 L146.42857360839844 130.35714721679688 L164.62142944335938 130.35714721679688 A10.392857551574707 10.392857551574707 0.0 0 0 175.0 119.99999237060547 L175.0 63.95000076293945 A10.392857551574707 10.392857551574707 0.0 0 0 164.62142944335938 53.57143020629883 Z M37.14285659790039 17.857147216796875 L134.28570556640625 17.857147216796875 A5.0 5.0 0.0 0 1 139.28570556640625 22.857139587402344 L139.28570556640625 25.0 L32.142860412597656 25.0 L32.142860412597656 22.857139587402344 A5.0 5.0 0.0 0 1 37.14285659790039 17.857147216796875 Z M134.28570556640625 182.14285278320312 L37.14285659790039 182.14285278320312 A5.0 5.0 0.0 0 1 32.142860412597656 177.14285278320312 L32.142860412597656 167.85714721679688 L139.28570556640625 167.85714721679688 L139.28570556640625 177.14285278320312 A5.0 5.0 0.0 0 1 134.28570556640625 182.14285278320312 Z M139.28570556640625 160.71429443359375 L32.142860412597656 160.71429443359375 L32.142860412597656 32.142860412597656 L139.28570556640625 32.142860412597656 L139.28570556640625 53.57143020629883 L85.37857055664062 53.57143020629883 A10.392857551574707 10.392857551574707 0.0 0 0 75.0 63.95000076293945 L75.0 142.2642822265625 A3.5714285373687744 3.5714285373687744 0.0 0 0 80.55000305175781 145.2357177734375 L102.85713958740234 130.35714721679688 L139.28570556640625 130.35714721679688 L139.28570556640625 160.71429443359375 Z M167.85714721679688 119.99999237060547 A3.2357144355773926 3.2357144355773926 0.0 0 1 164.62142944335938 123.2357177734375 L101.7642822265625 123.2357177734375 A3.5714285373687744 3.5714285373687744 0.0 0 0 99.78571319580078 123.83570861816406 L82.14285278320312 135.58572387695312 L82.14285278320312 63.95000076293945 A3.2357144355773926 3.2357144355773926 0.0 0 1 85.37857055664062 60.71428680419922 L164.62142944335938 60.71428680419922 A3.2357144355773926 3.2357144355773926 0.0 0 1 167.85714721679688 63.95000076293945 L167.85714721679688 119.99999237060547 Z"></path>
<path fill="#383e56" fill-opacity="1.0"  filling="0" d="M108.64286041259766 75.0 A13.407142639160156 13.407142639160156 0.0 0 0 95.25 88.38571166992188 L95.25 104.75 A3.5714285373687744 3.5714285373687744 0.0 0 0 102.39286041259766 104.75 L102.39286041259766 101.77143096923828 L114.88571166992188 101.77143096923828 L114.88571166992188 104.75 A3.5714285373687744 3.5714285373687744 0.0 0 0 122.028564453125 104.75 L122.028564453125 88.38571166992188 A13.407142639160156 13.407142639160156 0.0 0 0 108.64286041259766 75.0 Z M102.39286041259766 94.62857055664062 L102.39286041259766 88.38571166992188 A6.25 6.25 0.0 0 1 114.88571166992188 88.38571166992188 L114.88571166992188 94.62857055664062 L102.39286041259766 94.62857055664062 Z"></path>
<path fill="#383e56" fill-opacity="1.0"  filling="0" d="M138.64999389648438 75.0 L131.50714111328125 75.0 A3.5714285373687744 3.5714285373687744 0.0 0 0 127.93570709228516 78.57142639160156 L127.93570709228516 104.75 A3.5714285373687744 3.5714285373687744 0.0 0 0 131.50714111328125 108.32142639160156 L138.64999389648438 108.32142639160156 A16.114286422729492 16.114286422729492 0.0 0 0 154.75 92.22142791748047 L154.75 91.09285736083984 A16.114286422729492 16.114286422729492 0.0 0 0 138.64999389648438 75.0 Z M147.60714721679688 92.22142791748047 A8.964285850524902 8.964285850524902 0.0 0 1 138.64999389648438 101.17857360839844 L135.0785675048828 101.17857360839844 L135.0785675048828 82.14285278320312 L138.64999389648438 82.14285278320312 A8.964285850524902 8.964285850524902 0.0 0 1 147.60714721679688 91.09285736083984 L147.60714721679688 92.22142791748047 Z"></path></svg>