<svg xmlns="http://www.w3.org/2000/svg" viewBox="0.0 0.0 200.0 200.0" height="200.0px" width="200.0px"><path fill="#233d91" fill-opacity="1.0"  filling="0" d="M194.81915283203125 182.40469360351562 L194.81915283203125 158.94427490234375 L139.9800567626953 158.94427490234375 C138.8997039794922 141.31808471679688 128.1270751953125 130.3264923095703 115.77594757080078 121.41191864013672 C120.26431274414062 118.1736068725586 124.55874633789062 114.64515686035156 128.30772399902344 110.53020477294922 C136.22796630859375 101.83655548095703 140.0782012939453 92.15679168701172 140.0782012939453 80.93841552734375 C140.0782012939453 61.57536697387695 128.79920959472656 49.87331008911133 115.77556610107422 40.473121643066406 C120.26275634765625 37.235191345214844 124.55601501464844 33.70752716064453 128.30419921875 29.59374237060547 C136.22677612304688 20.898529052734375 140.0782012939453 11.218368530273438 140.0782012939453 0.0 L134.21310424804688 0.0 C134.21310424804688 21.828346252441406 117.63206481933594 32.55640411376953 101.59374237060547 42.9337272644043 C86.19589233398438 52.894622802734375 71.6520004272461 62.30263900756836 71.6520004272461 80.93841552734375 C71.6520004272461 96.5509262084961 81.75483703613281 105.65670013427734 94.6521987915039 114.39060974121094 C92.89110565185547 115.5300064086914 91.12023162841797 116.67996215820312 89.35757446289062 117.85649871826172 C76.91065979003906 109.1468276977539 65.78689575195312 98.51104736328125 65.78689575195312 80.93841552734375 C65.78689575195312 59.10615921020508 82.3695068359375 48.38084030151367 98.40625762939453 38.008995056152344 C113.8041000366211 28.04808807373047 128.34799194335938 18.639686584472656 128.34799194335938 0.0 L122.48289489746094 0.0 C122.48289489746094 4.38983154296875 121.50929260253906 8.159523010253906 119.76891326904297 11.534698486328125 L80.21075439453125 11.534698486328125 C78.47428894042969 8.159523010253906 77.51710510253906 4.396087646484375 77.51710510253906 0.0 L71.6520004272461 0.0 C71.6520004272461 15.612510681152344 81.75483703613281 24.718276977539062 94.6521987915039 33.45219421386719 C92.89110565185547 34.591590881347656 91.12023162841797 35.741539001464844 89.35757446289062 36.91808319091797 C76.91104125976562 28.208404541015625 65.78689575195312 17.57262420654297 65.78689575195312 0.0 L59.92179870605469 0.0 C59.92179870605469 19.363441467285156 71.20156860351562 31.06549072265625 84.2256088256836 40.46607971191406 C79.73919677734375 43.70282745361328 75.4459457397461 47.22971725463867 71.69696807861328 51.34349822998047 C63.77360534667969 60.0383186340332 59.92179870605469 69.7192611694336 59.92179870605469 80.93841552734375 C59.92179870605469 100.3018569946289 71.20156860351562 112.00391387939453 84.2256088256836 121.40449523925781 C79.73919677734375 124.640869140625 75.4459457397461 128.1681365966797 71.69696807861328 132.28192138671875 C64.47233581542969 140.20997619628906 60.63460159301758 148.9579620361328 60.01329040527344 158.94427490234375 L5.180839538574219 158.94427490234375 L5.180839538574219 182.40469360351562 L0.097747802734375 182.40469360351562 L0.097747802734375 200.0 L199.90225219726562 200.0 L199.90225219726562 182.40469360351562 L194.81915283203125 182.40469360351562 Z M84.27800750732422 17.399803161621094 L115.6993179321289 17.399803161621094 C111.71847534179688 21.923751831054688 106.24750518798828 25.853759765625 99.9984359741211 29.9730224609375 C93.64261627197266 25.7786865234375 88.20919036865234 21.855323791503906 84.27800750732422 17.399803161621094 Z M188.95407104492188 164.80938720703125 L188.95407104492188 182.40469360351562 L102.93254852294922 182.40469360351562 L102.93254852294922 174.38905334472656 C102.93254852294922 169.10693359375 107.23011016845703 164.80938720703125 112.51222229003906 164.80938720703125 L188.95407104492188 164.80938720703125 Z M119.78846740722656 150.34213256835938 C121.1260986328125 152.94076538085938 121.99649047851562 155.77322387695312 122.32766723632812 158.94427490234375 L112.51222229003906 158.94427490234375 C107.37165069580078 158.94427490234375 102.80899047851562 161.4694061279297 100.0 165.34390258789062 C97.19100189208984 161.4694061279297 92.62834930419922 158.94427490234375 87.48777770996094 158.94427490234375 L77.67155456542969 158.94427490234375 C78.00743103027344 155.77439880371094 78.89149475097656 152.94076538085938 80.23186492919922 150.34213256835938 L119.78846740722656 150.34213256835938 Z M84.30342102050781 144.47703552246094 C88.28230285644531 139.95700073242188 93.75015258789062 136.02894592285156 99.99882507324219 131.90968322753906 C106.35465240478516 136.10165405273438 111.78807830810547 140.02345275878906 115.71925354003906 144.47703552246094 L84.30342102050781 144.47703552246094 Z M134.10009765625 158.94427490234375 L128.22091674804688 158.94427490234375 C127.03264617919922 145.0959930419922 117.41388702392578 136.59901428222656 105.34545135498047 128.4300994873047 C107.10810852050781 127.28954315185547 108.88015747070312 126.13802337646484 110.64437866210938 124.96070861816406 C122.3812255859375 133.1734161376953 132.93528747558594 143.10342407226562 134.10009765625 158.94427490234375 Z M99.99882507324219 50.971256256103516 C105.79042053222656 54.79100799560547 110.81212615966797 58.387874603271484 114.63304138183594 62.3655891418457 L85.37712860107422 62.3655891418457 C89.24183654785156 58.328834533691406 94.29755401611328 54.729225158691406 99.99882507324219 50.971256256103516 Z M80.87898254394531 68.2306900024414 L119.14564514160156 68.2306900024414 C120.84770202636719 71.1476058959961 121.946044921875 74.35111999511719 122.32766723632812 78.00586700439453 L77.67194366455078 78.00586700439453 C78.05904388427734 74.3526840209961 79.1761474609375 71.14643096923828 80.87898254394531 68.2306900024414 Z M80.85317993164062 93.6461410522461 C79.1515121459961 90.7292251586914 78.053955078125 87.52531433105469 77.67233276367188 83.8709716796875 L122.32845306396484 83.8709716796875 C121.94134521484375 87.5245361328125 120.82502746582031 90.73079681396484 119.12297821044922 93.6461410522461 L80.85317993164062 93.6461410522461 Z M85.36383056640625 99.51123809814453 L114.62639617919922 99.51123809814453 C110.76050567626953 103.55072784423828 105.70205688476562 107.15151977539062 99.9984359741211 110.91143798828125 C94.20645141601562 107.08934783935547 89.18474578857422 103.49091339111328 85.36383056640625 99.51123809814453 Z M98.40625762939453 118.9474105834961 C113.8041000366211 108.98651123046875 128.34799194335938 99.5784912109375 128.34799194335938 80.93841552734375 C128.34799194335938 65.32551574707031 118.24398803710938 56.22248077392578 105.3458480834961 47.49168395996094 C107.10850524902344 46.35111999511719 108.88055419921875 45.19960403442383 110.64437866210938 44.02189254760742 C123.09051513671875 52.73118209838867 134.21310424804688 63.36695861816406 134.21310424804688 80.93841552734375 C134.21310424804688 102.76676177978516 117.63597106933594 113.49246978759766 101.58396911621094 123.8783950805664 C87.02169799804688 133.2985382080078 73.2316665649414 142.22952270507812 71.78494262695312 158.94427490234375 L65.89051818847656 158.94427490234375 C67.30635070800781 139.0623779296875 83.10420227050781 128.8437957763672 98.40625762939453 118.9474105834961 Z M11.045936584472656 164.80938720703125 L87.48777770996094 164.80938720703125 C92.76988983154297 164.80938720703125 97.06745147705078 169.10693359375 97.06745147705078 174.38905334472656 L97.06745147705078 182.40469360351562 L11.045936584472656 182.40469360351562 L11.045936584472656 164.80938720703125 Z M194.03713989257812 194.13490295410156 L5.962852478027344 194.13490295410156 L5.962852478027344 188.26980590820312 L194.03713989257812 188.26980590820312 L194.03713989257812 194.13490295410156 Z"></path>
<path fill="#233d91" fill-opacity="1.0"  filling="0" d="M173.21603393554688 53.372432708740234 L179.3743896484375 61.58357620239258 L184.06646728515625 58.06451416015625 L178.18455505371094 50.22169876098633 L185.87997436523438 36.754642486572266 L178.18455505371094 23.287582397460938 L184.06646728515625 15.444770812988281 L179.3743896484375 11.925704956054688 L173.21603393554688 20.13684844970703 L157.33998107910156 20.13684844970703 L147.84437561035156 36.754642486572266 L157.3403778076172 53.372432708740234 L173.21603393554688 53.372432708740234 Z M160.74407958984375 26.001953125 L172.98065185546875 26.001953125 L179.12493896484375 36.754642486572266 L172.98065185546875 47.507328033447266 L160.74407958984375 47.507328033447266 L154.5994110107422 36.754642486572266 L160.74407958984375 26.001953125 Z"></path>
<path fill="#233d91" fill-opacity="1.0"  filling="0" d="M19.985137939453125 88.36754608154297 L12.165000915527344 102.05278778076172 L19.86040496826172 115.51983642578125 L13.978492736816406 123.36265563964844 L18.670570373535156 126.88172149658203 L24.828933715820312 118.67057800292969 L40.70498275756836 118.67057800292969 L48.52511978149414 104.98533630371094 L58.55366516113281 104.98533630371094 L58.55366516113281 99.12023162841797 L48.52511978149414 99.12023162841797 L42.38044738769531 88.36754608154297 L50.200584411621094 74.68230438232422 L40.70458984375 58.06451416015625 L21.660606384277344 58.06451416015625 L13.840469360351562 71.749755859375 L3.81231689453125 71.749755859375 L3.81231689453125 77.61485290527344 L13.840858459472656 77.61485290527344 L19.985137939453125 88.36754608154297 Z M43.44554901123047 102.05278778076172 L37.301273345947266 112.80547332763672 L25.06470489501953 112.80547332763672 L18.92003631591797 102.05278778076172 L25.064315795898438 91.30009460449219 L37.300880432128906 91.30009460449219 L43.44554901123047 102.05278778076172 Z M25.06470489501953 63.92961883544922 L37.301273345947266 63.92961883544922 L43.44554901123047 74.68230438232422 L37.301273345947266 85.43499755859375 L25.06470489501953 85.43499755859375 L18.92003631591797 74.68230438232422 L25.06470489501953 63.92961883544922 Z"></path>
<path fill="#233d91" fill-opacity="1.0"  filling="0" d="M157.30519104003906 126.66940307617188 L167.83969116210938 132.68934631347656 L167.83969116210938 142.71749877929688 L173.70480346679688 142.71749877929688 L173.70480346679688 132.68894958496094 L187.39002990722656 124.86881256103516 L187.39002990722656 105.8248291015625 L173.70480346679688 98.00469207763672 L173.70480346679688 87.9765396118164 L167.83969116210938 87.9765396118164 L167.83969116210938 98.00469207763672 L154.15444946289062 105.8248291015625 L154.15444946289062 121.70088195800781 L145.94329833984375 127.85923767089844 L149.46237182617188 132.5513153076172 L157.30519104003906 126.66940307617188 Z M160.01956176757812 109.22893524169922 L170.77224731445312 103.08465576171875 L181.52493286132812 109.22893524169922 L181.52493286132812 121.46549987792969 L170.77224731445312 127.60977172851562 L160.01956176757812 121.46549987792969 L160.01956176757812 109.22893524169922 Z"></path></svg>