<?xml version='1.0' encoding='utf-8'?>
<svg xmlns:svg="http://www.w3.org/2000/svg" version="1.1" id="Layer_1" x="0px" y="0px" viewBox="0 0 500 500" style="width: 180px;" xml:space="preserve" data-imageid="target-39" imageName="Target" class="illustrations_image"><svg:style type="text/css">
	.st0_target-39{fill:#859910;}
	.st1_target-39{fill:url(#SVGID_1_);}
	.st2_target-39{fill:url(#SVGID_00000182528646513734966490000015246035153752177316_);}
	.st3_target-39{fill:url(#SVGID_00000181063587698934893340000001143633095868693128_);}
	.st4_target-39{fill:url(#SVGID_00000164476054822258170660000002706162062178472589_);}
	.st5_target-39{fill:#A0421D;}
	.st6_target-39{opacity:0.5;fill:#FFB288;enable-background:new    ;}
	.st7_target-39{fill:#0F2741;}
	.st8_target-39{fill:#68E1FD;}
	.st9_target-39{fill:#E6E6E6;}
	.st10_target-39{fill:#FFB288;}
	.st11_target-39{fill:#7C7C7C;}
	.st12_target-39{fill:#CEC300;}
	.st13_target-39{fill:#CFE217;}
	.st14_target-39{fill:#9ABC0C;}
	.st15_target-39{opacity:0.44;fill:#0F2741;enable-background:new    ;}
	.st16_target-39{opacity:0.27;}
</svg:style><svg:path class="st5_target-39" d="M 134.1044997714293 187.0330707576142 L 134.0991993434169 187.07231165140055 L 134.09706442273094 187.09066869778638 L 134.093264150856 187.12960350035755 L 134.0918067086334 187.14806614421016 L 134.08947629295741 187.18669485556615 L 134.08870392741133 187.20518439316828 L 134.08781306799582 187.24350701330908 L 134.08772450429436 187.2619444403293 L 134.08824290120089 187.29996096925493 L 134.08882809108655 187.3182686468878 L 134.09072544437663 187.35597908459823 L 134.09196596947484 187.3740823317904 L 134.09521197920998 187.41148667828566 L 134.09708172902492 187.42931521550895 L 134.10164609526666 187.466413470789 L 134.1041121738771 187.48390265368954 L 134.10996459668698 187.52069481775445 L 134.11298840010966 187.53778661628678 L 134.1200985795492 187.57427268913648 L 134.1236369795203 187.59091638732966 L 134.13197461565102 187.6270963689642 L 134.1359811852474 187.64324898004972 L 134.14551597813085 187.67912287046906 L 134.14994219952123 187.69474927975216 L 134.1606438492189 187.73031707895632 L 134.16544025269468 187.74538994112103 L 134.1772784592681 187.78065164911 L 134.18239565404343 187.7951510767287 L 134.19534011755417 187.8301066935025 L 134.2007296871711 187.8440197792849 L 134.21475010768066 187.87866930484353 L 134.2203653548745 187.8919895218478 L 134.23543143244441 187.92633295619123 L 134.24122796904277 187.93905947857712 L 134.25730940373455 187.97309682170535 L 134.26324558996117 187.98523380450453 L 134.28031208183637 188.0189650564176 L 134.28634932598618 188.0305209071196 L 134.30437057510628 188.06394606781748 L 134.31047350897492 188.07493273616552 L 134.32941921540151 188.10805180564824 L 134.33555576329798 188.11848411156174 L 134.35539562709252 188.15129708982926 L 134.36153698708353 188.1611921033279 L 134.38224070830762 188.19369899038023 L 134.38836126389575 188.2030754720477 L 134.40989854261085 188.23527626788484 L 134.41597572174942 188.24415417400988 L 134.43831625801712 188.27604887863188 L 134.44433035448978 188.28444893163532 L 134.46744384837154 188.31603754504212 L 134.4733778184563 188.32398086721918 L 134.49723397001372 188.35526338941077 L 134.50307321514245 188.36277119615963 L 134.527641724437 188.39374762713607 L 134.53337386847957 188.40084097471242 L 134.55862443557282 188.43151131447368 L 134.56423910342306 188.43821089664246 L 134.5901414283765 188.4685751451885 L 134.5956300308556 188.47490113296223 L 134.62215381373076 188.50495929029313 L 134.62750934235905 188.51093120899156 L 134.6546242832175 188.54068327510726 L 134.65688073929059 188.54312131058865 L 134.62453024784864 188.53610132555426 L 134.62003292837716 188.5351470456312 L 134.58657654019166 188.52820856584302 L 134.58169345276988 188.52722121578879 L 134.5488455368182 188.5207496023995 L 134.54353725036643 188.51973354900133 L 134.51132748822096 188.5137485897259 L 134.50554891097377 188.51270992172587 L 134.47400698420685 188.5072314042792 L 134.46770643153823 188.50617847780987 L 134.4368620217223 188.50122618990684 L 134.4299801161376 188.5001703476119 L 134.399862904845 188.4957640769675 L 134.39233128153668 188.49472059948178 L 134.3629709503398 188.4908801338109 L 134.3547107415723 188.4898695030656 L 134.3261369720435 188.48661463008315 L 134.3170570473614 188.48566421211174 L 134.2892995210731 188.48301471953266 L 134.2792944712563 188.4821610124254 L 134.2523828697809 188.48013668796457 L 134.2413307465626 188.47942833107837 L 134.2152947514724 188.47804896245077 L 134.20305462211908 188.47755076846772 L 134.17792391498654 188.47683614338823 L 134.16433337723572 188.47663449642957 L 134.1401376396332 188.47660440261313 L 134.12501059461135 188.47681445991313 L 134.1017795081112 188.47748868507463 L 134.08490474760666 188.47826391217774 L 134.06266799378128 188.47966224403217 L 134.04380958431318 188.4812068653616 L 134.02259684473498 188.4833490916238 L 134.00149796464086 188.4859339619989 L 133.98133892088217 188.48883987038386 L 133.9577318142523 188.49282189009327 L 133.93865614788555 188.49651126831586 L 133.91228223350407 188.50235544383867 L 133.8943196261016 188.50684807961383 L 133.86496536644484 188.5151491314961 L 133.84814549957906 188.52046481253873 L 133.81570067913478 188.53196113266347 L 133.80005323437805 188.53811964668853 L 133.7645970108385 188.55368589922935 L 133.7501516697632 188.56070703395173 L 133.71206473988443 188.5813036891499 L 133.69885118406296 188.58920723228456 L 133.65893534005892 188.61576057653818 L 133.6469832510637 188.6245663158 L 133.6065416473243 188.6577620074681 L 133.59588070672763 188.66748973057202 L 133.55668547278725 188.70750083192556 L 133.54734536216154 188.7181703265865 L 133.51142591423948 188.76440658681298 L 133.50343631515716 188.77603764074584 L 133.47269515559276 188.82705592298538 L 133.46608574962613 188.8396683239051 L 133.4418690195599 188.89335223840266 L 133.43666948828138 188.90696577402414 L 133.41948820698636 188.96094345916464 L 133.41572823196836 188.97557791720283 L 133.40726089628484 189.01509902432792 L 133.4020133419672 189.05517491303493 L 133.40038961567268 189.07321378558856 L 133.3989970415713 189.14294635161522 L 133.40018069733102 189.16667790240524 L 133.40411493719878 189.20910733475384 L 133.4080973178876 189.238408508928 L 133.41277685184482 189.26672338752041 L 133.4195493003375 189.30147113022653 L 133.42394745697015 189.32177988463454 L 133.43350131614142 189.36185114102045 L 133.4374320552207 189.37724874469924 L 133.44975866794522 189.4225204599128 L 133.4532453799582 189.434713837853 L 133.46833608911075 189.48506295704203 L 133.47144752132886 189.49506207284404 L 133.4892936697841 189.5503655411564 L 133.49209953319527 189.55880317653296 L 133.51269246382802 189.61893793911645 L 133.51525258889603 189.62622958604686 L 133.5385836445809 189.69107258804934 L 133.5409468227633 189.69750187957308 L 133.56700734637508 189.76693006614238 L 133.56921275928624 189.77269705552544 L 133.59799409369967 189.8465873718094 L 133.6000731713573 189.8518371450248 L 133.63156665944706 189.93006653617124 L 133.6335447497132 189.93490687177263 L 133.66774173435402 190.01735228292938 L 133.6696394545867 190.02186493991326 L 133.7065312786533 190.1084033162282 L 133.7083655684515 190.11265147166483 L 133.7479435748186 190.20315975828575 L 133.74972850447355 190.20719304019855 L 133.7919840360159 190.30154818227334 L 133.79373142554206 190.305406156199 L 133.83865582513437 190.40348509887542 L 133.84037571951245 190.40719973410663 L 133.88796033002941 190.50887942253257 L 133.88966136609213 190.51247686945138 L 133.93989753040847 190.61763424877466 L 133.94158722209144 190.62113614133548 L 133.99446628308195 190.72964815670395 L 133.9961512449697 190.73307258146534 L 134.051664545509 190.8448161780268 L 134.05335066949448 190.8481784050392 L 134.11148955245736 190.9630305279415 L 134.11318214854907 190.96634356891465 L 134.17393795681025 191.0841811633057 L 134.1756418663458 191.0874562027372 L 134.23900594277998 191.2081562137647 L 134.2407256302549 191.21140294540112 L 134.30668931773678 191.33484231821302 L 134.30842894595312 191.33806921012092 L 134.37698358735747 191.464124889865 L 134.37874707947628 191.46733939505688 L 134.44988401767782 191.59588832688098 L 134.45167510892978 191.59909705198692 L 134.5253856868032 191.7300161810389 L 134.52720796798474 191.73322502232585 L 134.60348352840478 191.8663912937535 L 134.60534048281485 191.86960554749265 L 134.68417236865622 192.00489590644386 L 134.68606740377342 192.00812035894722 L 134.76744695791086 192.14541175056982 L 134.7693834328305 192.14865075196536 L 134.8533019981387 192.28782012140715 L 134.8552832475823 192.29107764630064 L 134.94173216693602 192.43200193870948 L 134.94376152247747 192.43528163617648 L 135.03273213875144 192.57783779670018 L 135.03481294777689 192.58114303152053 L 135.1262966038458 192.72520800530697 L 135.12843224666148 192.72854189194723 L 135.22242028540003 192.87399262414422 L 135.22461419082117 192.87735805467415 L 135.32109795510414 193.02407149042952 L 135.32335361479275 193.02747115731606 L 135.42232444749484 193.17532424177764 L 135.42464542926152 193.17876065630364 L 135.52609467325743 193.3276303346193 L 135.52848463349812 193.33110584152183 L 135.6324036316626 193.48086905883937 L 135.6348663270634 193.4843858476384 L 135.74124642227116 193.6349195491057 L 135.74378572088628 193.63847966249833 L 135.85261825601205 193.78966079326315 L 135.85523814778833 193.7932661328742 L 135.96651446570684 193.94497163808447 L 135.96921907250885 193.94862396780374 L 136.0829305160948 194.10073079260724 L 136.08572410125794 194.10443173968596 L 136.20186201338606 194.25681682923053 L 136.2047489908081 194.26056788326719 L 136.3233047143531 194.41310818270065 L 136.32628965711237 194.4169106926101 L 136.447254534949 194.5694831470803 L 136.45034218341843 194.57333831610637 L 136.5737075584214 194.7258198707612 L 136.57690282782852 194.72972874957244 L 136.70266004287254 194.88199634955964 L 136.70596803023358 194.88595982744042 L 136.8341084281934 195.0378904179079 L 136.8375344185306 195.0419092120473 L 136.9680493422809 195.19337973814285 L 136.9715988140073 195.1974543810037 L 137.10447960642284 195.3483417878752 L 137.1081582357579 195.35247261262143 L 137.2433962397134 195.5026538454167 L 137.2472099039646 195.50684096936695 L 137.38479646233475 195.65619297323377 L 137.38875124185643 195.66043627931012 L 137.52867769751597 195.80883599939642 L 137.53277987612614 195.81313511553608 L 137.6750375719498 195.96045949698964 L 137.67929363555595 195.96481377349537 L 137.82387391441844 196.110939761464 L 137.82829054757215 196.11534824627927 L 137.9751847523482 196.26015278591086 L 137.97976883241571 196.2646141978229 L 138.12896830598004 196.40797423426528 L 138.13372689458106 196.4124869340612 L 138.2852229798084 196.5542794124622 L 138.29016331114263 196.55884137209372 L 138.4439473509077 196.69894323760116 L 138.44907681655536 196.70355200745158 L 138.60514015373286 196.84184020521332 L 138.61046628348356 196.84649287960642 L 138.76880026094824 196.98284435477024 L 138.7743306991835 196.98753753591592 L 138.9349266598101 197.12182923362974 L 138.94066913694402 197.12655899427062 L 139.1035184236072 197.2586678596822 L 139.1094807220685 197.26342970477845 L 139.27457467764302 197.39323268303568 L 139.2807645918796 197.39802151091925 L 139.4480945592402 197.52539554716992 L 139.45451984922778 197.53020561069528 L 139.62407717124913 197.65502765008728 L 139.6307455090102 197.65985251842213 L 139.80252152856707 197.78199950610323 L 139.80944043724193 197.78683202792038 L 139.98342649720902 197.90618090903848 L 139.99060328228876 197.91101317800621 L 140.16679072554078 198.02744089770908 L 140.17423239795752 198.03226422130936 L 140.35261256736922 198.14564772474492 L 140.3603257582657 198.15045259759313 L 140.5408899967118 198.26066882990915 L 140.54888086386535 198.2654449128824 L 140.73162051422054 198.37237081922672 L 140.7398946402976 198.37710692583957 L 140.92480104543662 198.48061945136007 L 140.9333633284882 198.48530354293604 L 141.1204278312858 198.5852796327805 L 141.12928236817493 198.5898988240539 L 141.31849631150578 198.6862154233702 L 141.32764627528204 198.69075600020435 L 141.51900100202093 198.7832900541403 L 141.52844851461154 198.78773750504612 L 141.72193536763314 198.87636595874957 L 141.73168136961502 198.88070502183146 L 141.92729169179404 198.96530482045023 L 141.9373358114188 198.9695195472728 L 142.13506094563 199.04996763595474 L 142.14540136969347 199.05404147360645 L 142.34523265881157 199.1302147974994 L 142.35586600836373 199.13413068981947 L 142.55779479526345 199.20590619407125 L 142.56871600952553 199.20964670259457 L 142.7727336370816 199.27690133235302 L 142.783935869248 199.2804487770164 L 142.90867022281023 199.31834197540067 L 142.8443676398302 199.27727758787913 L 142.82854435571116 199.26674392229373 L 142.72666586258686 199.19609157698574 L 142.71193626116718 199.1854754757522 L 142.6115474119568 199.1103152416388 L 142.5978678739922 199.09969893451282 L 142.49896186666868 199.0201588133749 L 142.4862813686437 199.00961208727728 L 142.38885140118003 198.92582008089573 L 142.37711417352307 198.91540090902745 L 142.28115344389232 198.8274850191832 L 142.27030118023305 198.81724048968996 L 142.17580288640815 198.72532871816387 L 142.16577651462387 198.71529613316352 L 142.07273385457785 198.6195164817365 L 142.06347490581615 198.60972452584554 L 141.97188107752197 198.51020499629846 L 141.96333270314886 198.50067490079914 L 141.87318090457956 198.39754349491292 L 141.86528859611747 198.38829014718857 L 141.77657202524603 198.28167486674408 L 141.76928409162826 198.2727078336834 L 141.68199594642766 198.16273668046153 L 141.6752637986029 198.15406112915193 L 141.58939727704615 198.04086210493364 L 141.5831755638462 198.03247961458285 L 141.4987238639063 197.91618072114898 L 141.49297049633148 197.90808998745635 L 141.4099268159814 197.78881922658778 L 141.4046029104246 197.78101666444044 L 141.32296044763734 197.65890203791812 L 141.31803021250062 197.65138229098045 L 141.2377821652492 197.52655180058522 L 141.23321275010687 197.51930816762652 L 141.15435231636428 197.39188981513928 L 141.1501136383552 197.3849146032621 L 141.07263401609444 197.2550363904638 L 141.06869857456257 197.2483212050901 L 140.99259296175663 197.11611113376156 L 140.98893564921252 197.10964711455895 L 140.91419724383437 196.9752331864811 L 140.9107951589923 196.96901119753718 L 140.837417159015 196.83252141449094 L 140.83424942586825 196.82653219610066 L 140.76222502926473 196.68809455986687 L 140.75927262479297 196.68232884835095 L 140.68859502953626 196.54207136071054 L 140.6858406216202 196.53651998179174 L 140.61650302568327 196.3945706445256 L 140.61393082204657 196.3892245849688 L 140.54592642340245 196.2457113998578 L 140.54352203186272 196.240561861351 L 140.47684402848438 196.0956128301761 L 140.4745943284118 196.09065126878585 L 140.40923591827223 195.94439439332788 L 140.40712894289877 195.93961254731016 L 140.343083323971 195.79217582935001 L 140.34110815302404 195.78756573762192 L 140.27836852328105 195.6390771789405 L 140.276515185316 195.6346311921141 L 140.21507474273076 195.48521879449237 L 140.21333412648582 195.48092958003613 L 140.15318606903136 195.3307213452549 L 140.15154984311093 195.32658188806215 L 140.0926873687602 195.17570581790233 L 140.09114790895975 195.17170941730848 L 140.03356421568583 195.020293513551 L 140.03211453929555 195.01643377764958 L 139.97580282507138 194.86460604207528 L 139.97443653152826 194.8608768800151 L 139.91938999432685 194.70876531440493 L 139.9181012116253 194.7051609272214 L 139.86431304941962 194.5528935333562 L 139.86309638573297 194.5494084037784 L 139.81055979649605 194.39711318343907 L 139.80941029650458 194.39374206502424 L 139.75811847820938 194.24154701999174 L 139.757031583673 194.23828492586534 L 139.70697773429256 194.08631805792052 L 139.70594924844877 194.083160249342 L 139.65712656595605 193.93154956026575 L 139.6561526213604 193.92849153518765 L 139.60855430372843 193.77736502676086 L 139.60763133319386 193.77440250851495 L 139.5612505783956 193.62388818251853 L 139.56037528871838 193.62101710872494 L 139.51520529472683 193.47124296693977 L 139.514374642919 193.4684594787147 L 139.47040860770718 193.3195535229217 L 139.46961977948368 193.31685395443557 L 139.42685090102455 193.16894418641562 L 139.42610129131765 193.16632505483727 L 139.38452276758426 193.01953947637125 L 139.38380996288322 193.01699747222406 L 139.3434149918485 192.8714640850929 L 139.3427367541805 192.8689960630322 L 139.3035185338175 192.72484286901673 L 139.30287278620804 192.72244583903876 L 139.26482451448973 192.57980083991993 L 139.26420932775406 192.57747195899518 L 139.22732420265345 192.43646315655388 L 139.22673778338955 192.4341997206855 L 139.1910090028796 192.29495511670262 L 139.19044968254303 192.29275455339507 L 139.1558704445968 192.15540214965148 L 139.1553366695531 192.15326201078165 L 139.12190017214354 192.01792980905824 L 139.12139049460302 192.01584776413273 L 139.08908993570313 191.88266376621044 L 139.08860300545254 191.8806375959948 L 139.05743158303534 191.74972980365453 L 139.05696613989144 191.7477573941603 L 139.0269170519299 191.61925380918285 L 139.0264719188449 191.61733314599357 L 138.997538363312 191.49136177015995 L 138.9971124400704 191.48949093308266 L 138.96928761493916 191.3661797681737 L 138.96887987239072 191.36435692619932 L 138.94215697563416 191.24383397399592 L 138.94176645041273 191.2420573805533 L 138.9161386800038 191.12445064283636 L 138.91576446968762 191.1227186313242 L 138.89122502359936 191.00815610987462 L 138.8908662822733 191.00646708946147 L 138.86740835847866 190.89507678606014 L 138.867064292661 190.89342923773373 L 138.84468108913305 190.78533915416156 L 138.84435095403612 190.78373162702374 L 138.82303566874776 190.6790697650616 L 138.82271876484143 190.67750087285185 L 138.8024645957657 190.57639523428065 L 138.80216026561968 190.57486365212765 L 138.78296041072957 190.47744223872826 L 138.78266803611 190.47594670012018 L 138.76451569337854 190.38233751367355 L 138.76423469258 190.38087680765102 L 138.74712305998017 190.291207849938 L 138.74685288537444 190.2897808185139 L 138.7307751608792 190.20418009131535 L 138.7305152966679 190.20278562713733 L 138.71546467825027 190.12138113223423 L 138.71521463841026 190.12001817652208 L 138.70118432404325 190.04293791569526 L 138.7009436504602 190.0416054565085 L 138.6879268381168 189.96897743153886 L 138.68769509890814 189.967674502469 L 138.67568498656132 189.8996267151375 L 138.67546177460378 189.8983523945997 L 138.66445156022655 189.83501284668716 L 138.66423649192276 189.83376625811775 L 138.65421937348813 189.77526295140507 L 138.65401208784863 189.77404326493934 L 138.64498126332958 189.72050420120743 L 138.64478142152635 189.7193106379605 L 138.6367300888959 189.67086381899026 L 138.63653737462292 189.66969566026864 L 138.62945873185404 189.62646908784097 L 138.62927285325313 189.62532569448484 L 138.62316009831883 189.58744737038063 L 138.62298079334423 189.5863282250113 L 138.61782712421748 189.55392615101144 L 138.6176541746571 189.55283095867992 L 138.61345278931094 189.52603313656527 L 138.61328606063086 189.52496210047647 L 138.61003015703824 189.503896532028 L 138.60986973619256 189.50285129446905 L 138.60755251232652 189.4876459814676 L 138.60739940083948 189.48663433563848 L 138.60601405467298 189.47741727986494 L 138.60587921172637 189.4765145305508 L 138.60541894123244 189.4734137337861 L 138.60071640975988 189.42675624257953 L 138.60040564722183 189.37986339968654 L 138.60448938712943 189.33314768117225 L 138.61293170833002 189.28702000509068 L 138.6256583509747 189.24188611699165 L 138.6430246922432 189.19708728945534 L 138.66461078875804 189.1541621779829 L 138.6902173123664 189.1135071573044 L 138.7196078098934 189.07549763990698 L 138.75251088657438 189.04048460943835 L 138.75446111016527 189.0385996234701 L 138.75501364870496 189.03806638814012 L 138.7608292787324 189.03246254849896 L 138.76144771250978 189.03186765907503 L 138.77107618785604 189.0226216431562 L 138.7717143187521 189.02200994322982 L 138.78510307829941 189.0091984284287 L 138.7857560777491 189.0085747110922 L 138.80285256037973 188.9922743748041 L 138.80351936658792 188.99163979105646 L 138.82427101118407 188.9719273106767 L 138.8249514411934 188.97128216667852 L 138.84930568663734 188.9482342196024 L 138.8499998594446 188.94757853578886 L 138.87790414461855 188.92127179941173 L 138.87861231197775 188.9206054747685 L 138.91001407576397 188.89111662648565 L 138.91073656027712 188.89043949893434 L 138.9455832415578 188.8578452161411 L 138.94632041054638 188.85715708829494 L 138.98455944820387 188.82153404838664 L 138.98531170160044 188.82083469975507 L 139.02689053451687 188.782259580127 L 139.02765829895517 188.7815487733488 L 139.07252436601286 188.74009825139626 L 139.07330809191606 188.73937573560178 L 139.12140883199723 188.69512648872015 L 139.1222089922465 188.69439200140025 L 139.17349184423335 188.64742070698483 L 139.1743089337232 188.64667397503962 L 139.228721336498 188.5970573104857 L 139.2295558722258 188.59629805079908 L 139.28704526467084 188.544112693502 L 139.28789778616826 188.54334061323004 L 139.3484116071657 188.4886632405851 L 139.3492826771711 188.48787803726086 L 139.4127683656032 188.4307853266634 L 139.41365857090693 188.42998668818694 L 139.48006356565597 188.37055531703228 L 139.4809735180884 188.36974292158007 L 139.55024525803663 188.3080495672635 L 139.55117559557615 188.30722308314296 L 139.62326151960576 188.24334442305982 L 139.62421290759616 188.2425035085251 L 139.6990604545894 188.1765162200707 L 139.7000335870599 188.1756605231105 L 139.77759019589902 188.10764128368018 L 139.77858579698662 188.10677044178482 L 139.8587989065539 188.0367959287739 L 139.85981773202775 188.03590956868726 L 139.94263478120538 187.96405645949102 L 139.94367762009736 187.963154196951 L 140.0290460477676 187.88949916896476 L 140.03011372411112 187.88858060843702 L 140.1179809691562 187.81320033905615 L 140.11907434384017 187.81226507346332 L 140.20938784514234 187.7352362400831 L 140.210507817887 187.73428385053143 L 140.3032150143285 187.65568313054717 L 140.30436252578917 187.65471318605464 L 140.39941085625227 187.57461725686167 L 140.40058689025926 187.57362931409003 L 140.49792379362614 187.49211485308368 L 140.49912937957154 187.4911084560761 L 140.59870229472452 187.40825214065165 L 140.59993851010307 187.4072268205811 L 140.70169487592432 187.32310532813392 L 140.70296284904154 187.32206060306376 L 140.80685010441334 187.23675061098916 L 140.8081510172708 187.23568598565168 L 140.9141166010754 187.14926417134495 L 140.91545169244714 187.14817913694066 L 141.02344304356674 187.06072217779715 L 141.02481361227896 187.05961621182135 L 141.13477816959582 186.97120078523633 L 141.1361855780264 186.97007335133708 L 141.24807078042278 186.8807761347059 L 141.24951645823458 186.8796266825818 L 141.3632697445927 186.7895243532998 L 141.36475519271903 186.78835231864326 L 141.48032400192113 186.69752155410572 L 141.4818507968226 186.6963263586008 L 141.59918256775097 186.6048438362031 L 141.6007523659603 186.603624887589 L 141.7197945374971 186.51156728472637 L 141.7214090804785 186.51032397693476 L 141.84210909150602 186.41776797100258 L 141.84377021084666 186.41649968438477 L 141.96607550024714 186.32352195277832 L 141.9677851232097 186.32222805443416 L 142.0916431298654 186.2289052745488 L 142.0934032853259 186.22758511877544 L 142.21876144811904 186.13399396800645 L 142.22057427291995 186.13264689688486 L 142.34738003073272 186.0388640526276 L 142.34924777648072 186.03748939676925 L 142.47744856819546 185.94359153641898 L 142.4793736085371 185.942188615897 L 142.60891687303598 185.84825241684908 L 142.61090171144696 185.8468205423418 L 142.74173488761224 185.75292268199152 L 142.74378216573632 185.75146115617076 L 142.87585269245025 185.6576783119135 L 142.87796519902838 185.6561864311147 L 143.0112205151732 185.5625952803457 L 143.0134011956052 185.56107233656064 L 143.14778874006316 185.46774955667527 L 143.15004070664585 185.46619483991668 L 143.28550791829917 185.37321710831023 L 143.28783446118888 185.37162990940112 L 143.4243287789198 185.27907390346894 L 143.42673337786783 185.27745351732065 L 143.56420224055864 185.185395914458 L 143.5666885774726 185.183741643906 L 143.70507942400548 185.09225912150828 L 143.70765139638803 185.0905702817887 L 143.84691166564525 184.99973951725116 L 143.84957340096807 184.9980154412083 L 143.98965053183184 184.90791311192632 L 143.99240640289793 184.90615315605842 L 144.13324783425054 184.81685593942726 L 144.1361024756038 184.8150594908885 L 144.27765564632745 184.72664406430349 L 144.28061397176378 184.72481054900013 L 144.42282632074077 184.63735358985662 L 144.4258935419743 184.63548248179293 L 144.56871250808678 184.5490606674862 L 144.57189415462338 184.54715149953523 L 144.71526717675368 184.46184150746063 L 144.71856911701218 184.45989388376398 L 144.8624436340425 184.37577239131681 L 144.86587209776408 184.37378600153892 L 145.01019554857666 184.29092968611448 L 145.0137571505432 184.28890432181248 L 145.1584769740203 184.20738986080613 L 145.1621787390899 184.20532543420813 L 145.30724237411377 184.1252295050152 L 145.31109176356165 184.12312607053912 L 145.45644664901448 184.04452535055486 L 145.46045158813578 184.04238312944162 L 145.60604516289985 183.96535429606138 L 145.61021406979654 183.96317370454585 L 145.7559937727541 183.88779343516498 L 145.76033558818148 183.88557511665653 L 145.90624885821472 183.8119200886703 L 145.91077307630647 183.8096649504724 L 146.0567673522977 183.7378118412762 L 146.06148405190817 183.73552109643632 L 146.20750677273958 183.66554658342537 L 146.21242664906103 183.6632217983657 L 146.35842525361488 183.59520255893537 L 146.3635596496015 183.59284570758672 L 146.50948157676004 183.52685841913234 L 146.51484251376132 183.52447194435447 L 146.6606352024068 183.46059328427134 L 146.66623540923544 183.45818016741157 L 146.81184629825006 183.39648681309504 L 146.81769923770474 183.39405065259373 L 146.96307576597076 183.33461928143905 L 146.9691956575844 183.33216438143765 L 147.1142852639841 183.27507167084022 L 147.12068710146406 183.27260314077978 L 147.26543722487963 183.21792576813485 L 147.2721367863593 183.2154496343291 L 147.416494865673 183.16326427703203 L 147.42350871446254 183.16078760716638 L 147.5674221885566 183.11117094261246 L 147.57476766160437 183.10870198401918 L 147.71818396936106 183.06173068960373 L 147.72587915006665 183.05927902199306 L 147.86874573036818 183.01502977511143 L 147.87680940175738 183.01260647816085 L 148.01907369348604 182.97115595620835 L 148.027525267047 182.96877379199978 L 148.16913470908494 182.93019867237172 L 148.17799412380205 182.92787228208041 L 148.3188961550316 182.89224924217208 L 148.32818374034514 182.88999535560868 L 148.4683257996485 182.85740107281543 L 148.47806209526794 182.85523872834992 L 148.6173916215274 182.82574988006706 L 148.6275971462781 182.82370065107284 L 148.76606157837583 182.7973939146957 L 148.77675653965335 182.79548213688662 L 148.91430331647163 182.77243418981053 L 148.92550725153296 182.770687181662 L 149.06208381195404 182.75097470128225 L 149.07381515234363 182.7494229670997 L 149.20936893524973 182.73312263081158 L 149.22164448633845 182.73180003294382 L 149.3561229306118 182.71898851814274 L 149.36895725976382 182.7179324013884 L 149.5023078042867 182.70868638546958 L 149.51571253384802 182.70793763302797 L 149.64788261750266 182.7023337933868 L 149.66186562290196 182.70193679000135 L 149.79280268457057 182.7000518040331 L 149.79280889768043 182.70048338620947 L 149.8041197219961 182.70001697239738 L 149.93326300669494 182.70108107737946 L 149.94160993277757 182.70121954645845 L 150.06844733032204 182.7043830043204 L 150.07691551874018 182.70466602247 L 150.20146743521127 182.70988554758546 L 150.2100520923127 182.71031924912685 L 150.33233893379148 182.71755155586942 L 150.34103470420303 182.71814194014453 L 150.46107687677045 182.72734374288783 L 150.46987783634611 182.72809663087082 L 150.58769574608323 182.73922464398842 L 150.59659539923177 182.74014563297942 L 150.71220945221955 182.75315657084496 L 150.7212007340411 182.75425098766084 L 150.8346313363606 182.76910156464794 L 150.84370661998696 182.7703744177966 L 150.95497417771918 182.78702134827884 L 150.96412528719435 182.788477279672 L 151.07325020642025 182.80687727802305 L 151.08246843538768 182.8085205148438 L 151.18947112218837 182.8286302954372 L 151.1987472585783 182.83046460283467 L 151.3036481190347 182.85224088004406 L 151.31297247583575 182.85426951536883 L 151.41579191602892 182.8776690035678 L 151.4251543681382 182.8798946728934 L 151.52591279414918 182.90487408645564 L 151.53530282116526 182.90729890414298 L 151.63402063907498 182.93381495744202 L 151.64342737378962 182.93644040950224 L 151.74012498967917 182.9644498169117 L 151.74953727189066 182.96727672889722 L 151.844235091841 182.99673620479072 L 151.85364152699043 182.99976471490115 L 151.9463599570826 183.03063097365234 L 151.95574897909992 183.033860511679 L 152.0465084254149 183.06609026766142 L 152.05586836304738 183.06951954030922 L 152.14468923166623 183.10306950789652 L 152.15400837746353 183.10669649091906 L 152.24091107446725 183.14152338448486 L 152.25017775552394 183.14534532195373 L 152.3351826869935 183.18140585587165 L 152.3443853364814 183.18541926676625 L 152.42751290849785 183.22267015540984 L 152.43664013699177 183.2268708475786 L 152.51791075563614 183.2652688053215 L 152.52695142121428 183.26965189671637 L 152.60638549256754 183.3091536379322 L 152.6153287686898 183.31371358487797 L 152.692946698833 183.35427582394038 L 152.70178213903304 183.35900645605759 L 152.77760433404714 183.40058590734012 L 152.7863219325402 183.4054804686114 L 152.86036879850627 183.4480338464877 L 152.86895904589608 183.4530850418374 L 152.9412509888951 183.49656906068105 L 152.94970492227435 183.5017691073419 L 153.02026234838732 183.54614048152655 L 153.0285715952388 183.55148116438082 L 153.09741491054675 183.59669660828007 L 153.1055717259939 183.6021693383122 L 153.17272133657787 183.64818556629965 L 153.18071863366362 183.65378144125444 L 153.24619494560457 183.70055516770373 L 153.25402631842573 183.70626503403895 L 153.31784973780472 183.75375297332363 L 153.32550947746947 183.75956748855697 L 153.38770041036747 183.8077263550507 L 153.39518351386937 183.81363604962823 L 153.45576236636742 183.8624225577046 L 153.46306453860734 183.86841789558144 L 153.52205171678642 183.91778875961407 L 153.52916936606925 183.923860196794 L 153.58658527601042 183.97377213115652 L 153.5935155034524 183.9799101715299 L 153.64938055123665 184.03031989059588 L 153.65612113458877 184.03651513849934 L 153.7104557262971 184.0873793566424 L 153.71700509875689 184.09362256566666 L 153.7698296404703 184.14489799726041 L 153.7761868650929 184.15118011492947 L 153.82752176289245 184.20282347434755 L 153.83368650324127 184.20913568239675 L 153.88355216320795 184.26110368401277 L 153.88952465089156 184.2674374340875 L 153.93794147910637 184.319686792275 L 153.94372247884303 184.326033836966 L 153.99071088138697 184.37852126609866 L 153.99630165421863 184.3848736853113 L 154.04188203717274 184.43755589976274 L 154.04728430242292 184.44390612250004 L 154.09147707186824 184.49673983664383 L 154.09669296839547 184.5030806583408 L 154.13951853041294 184.55602258655054 L 154.14455057766492 184.5623471821573 L 154.1860293383356 184.61535403880666 L 154.19088039766496 184.62165597186632 L 154.23103276306983 184.67468447132885 L 154.235705999709 184.6809576993228 L 154.27455237592912 184.73396455597214 L 154.27905122197507 184.74020343223924 L 154.31661201509144 184.793145360449 L 154.32094013379236 184.79934463299688 L 154.35723574988594 184.85217834714066 L 154.36139700146754 184.85833315467323 L 154.3964478466194 184.91101536912467 L 154.40044625584508 184.91712123462113 L 154.43427273613622 184.9696086637538 L 154.43811246173885 184.97566148591548 L 154.47073498325025 185.027910844103 L 154.4744202893365 185.03390688698374 L 154.50585925814923 185.08587488859976 L 154.50939448763862 185.0918107697209 L 154.5396703098336 185.14345412913897 L 154.54305985995504 185.1493268063652 L 154.57219294161337 185.20060223795895 L 154.57544124145912 185.20640899540282 L 154.6034519886618 185.2572732135459 L 154.60656347876585 185.26301164673464 L 154.63347229759387 185.31342136580062 L 154.63645141148706 185.31908936632885 L 154.66227870802143 185.36900130069137 L 154.66512985569432 185.37459704055266 L 154.68989603601605 185.42396790458528 L 154.69262358920813 185.4294898203576 L 154.71634905939823 185.47827632843396 L 154.71895733862118 185.48372310546932 L 154.7416625047607 185.53188197196306 L 154.74415576795846 185.53725252871737 L 154.76586103612837 185.58474046800205 L 154.7682434688663 185.59003394060957 L 154.78896924514763 185.63680766705886 L 154.7912449522281 185.6420233942537 L 154.81101164270189 185.68803962224115 L 154.81318464109702 185.69317713069904 L 154.83201265184422 185.7383925745983 L 154.83408686483827 185.7434515647569 L 154.85199660193993 185.78782293894156 L 154.85397585438017 185.79280327135587 L 154.87098772391727 185.83628729019952 L 154.87287573846913 185.84118897245833 L 154.88901014652274 185.88374235033464 L 154.89081054083502 185.88856552456986 L 154.90608789348613 185.9301449758524 L 154.90780417817209 185.9348899068508 L 154.92224488150165 185.9754521459132 L 154.92388045884763 185.98011920983248 L 154.93750491893675 186.01962095104832 L 154.93906308226124 186.02421062474812 L 154.9518917051909 186.06260858249104 L 154.9533756387693 186.06712143344768 L 154.96542883062045 186.10437232209128 L 154.96684161011007 186.10880899889378 L 154.9781397769638 186.1448695328117 L 154.97948437026028 186.14923075621033 L 154.99004791819758 186.18405764977612 L 154.99132718665965 186.18834420424434 L 155.00117652176152 186.22189417183165 L 155.0023932217472 186.22610689760288 L 155.01154875009465 186.2583366535853 L 155.01270553475368 186.26247643910506 L 155.02118766242774 186.29334269785625 L 155.02228708369978 186.29741047258105 L 155.03011621678144 186.32686994847455 L 155.0311607275449 186.33086667590365 L 155.03835727211515 186.3588760833131 L 155.03934922843564 186.3628027541148 L 155.04593359057557 186.38931880741384 L 155.04687525399387 186.39317643242805 L 155.05286783978443 186.41815584599027 L 155.0537613795657 186.42194544874806 L 155.05918259508795 186.44534493694704 L 155.06003009033535 186.44906754516484 L 155.06490034167024 186.47084382237423 L 155.06570378313623 186.47450045741252 L 155.07004347636482 186.49461023800592 L 155.0708047676958 186.49820190053612 L 155.07463430889908 186.51660189888716 L 155.0753552668013 186.520129547302 L 155.07869506206026 186.53677647778423 L 155.07937741436342 186.5402409922696 L 155.08224786975916 186.5550915692567 L 155.08289324911078 186.558493685748 L 155.0853147707242 186.57150462361355 L 155.0859246983556 186.5748447988657 L 155.08791769226778 186.5859728119833 L 155.08849353643964 186.58925091225504 L 155.09007840873159 186.59845271499833 L 155.09062126723134 186.601667174879 L 155.09181842398405 186.60889948162156 L 155.09232871795456 186.61204444841945 L 155.09315856524907 186.6172639735349 L 155.09363399518983 186.62031503088744 L 155.0941169391071 186.62347848874938 L 155.09452575767216 186.62620683098197 L 155.09468220429326 186.62727093596405 L 155.09930480859163 186.67364268380007 L 155.09959003696378 186.72024339315777 L 155.0955354116793 186.7666682516031 L 155.09504040962324 186.77034752984622 L 155.09483364380512 186.77186675942065 L 155.0933276131898 186.78280689230752 L 155.09309054219605 186.78450741078157 L 155.09054194635084 186.80256184554858 L 155.09029106823073 186.80431660437716 L 155.08666837048497 186.82933878826069 L 155.08640506425968 186.83113447192378 L 155.08167672794275 186.86297785216018 L 155.08140097923655 186.86481149580044 L 155.07553546767772 186.90332951962608 L 155.0752469195542 186.90520056873208 L 155.06821269608287 186.95024668338334 L 155.06791085771889 186.95215540718266 L 155.0596763856644 187.00358305989587 L 155.05936069247528 187.00553008552876 L 155.04989443516698 187.06319272354034 L 155.04956426977944 187.0651788651338 L 155.03883469054662 187.1289299356801 L 155.0384893906472 187.13095612171932 L 155.02646495281928 187.2006490720367 L 155.02610381378992 187.20271631121474 L 155.01275298069618 187.27820458853955 L 155.01237525588147 187.28031395253788 L 154.99766649085132 187.36145100410653 L 154.99727139060698 187.3636036185475 L 154.99050866705733 187.4 L 155.09394021840643 187.4 L 155.10001717740775 187.40000000029482 L 155.10312259511352 187.40000011811483 L 155.10627963818882 187.40000093996528 L 155.1094962234503 187.40000323858447 L 155.1127805108554 187.40000788606815 L 155.1155479052359 187.40001417279007 L 155.1161408968101 187.4000158715387 L 155.11885325660847 187.4000252500911 L 155.1195860042925 187.4000283206516 L 155.12224456624094 187.40004140940053 L 155.12312466962766 187.4000465169816 L 155.12573067045832 187.40006393429317 L 155.12676592519517 187.4000719253001 L 155.12932060164027 187.40009428954042 L 155.13051897753186 187.40010621670777 L 155.13302356632354 187.4001341462429 L 155.13439318034915 187.40015129553552 L 155.13684891821964 187.40018540873155 L 155.13839800163635 187.40020932785384 L 155.14080612531782 187.4002502430769 L 155.14254298427366 187.40028277134994 L 155.14490473049827 187.4003311069661 L 155.14683769946683 187.4003744062322 L 155.1491543049668 187.4004307806075 L 155.15129169226208 187.40048736670465 L 155.15356439376956 187.40055239820526 L 155.15591441833368 187.40062517241623 L 155.15814445258084 187.4006994794082 L 155.16071517167308 187.4007917591477 L 155.16290377539212 187.40087595999714 L 155.16570300226317 187.400991507817 L 155.1678514121863 187.40108622089 L 155.17088662357096 187.40122927071863 L 155.17299607643034 187.40133511438125 L 155.1762743094063 187.4015103937124 L 155.1783460419341 187.40162798633077 L 155.181873780147 187.40184073289288 L 155.1839090290754 187.40197069283306 L 155.18769207860237 187.40222666409022 L 155.1896920806636 187.40236960971833 L 155.19373543611718 187.40267508339284 L 155.19570142804338 187.40283163307495 L 155.2000091300207 187.40319339676358 L 155.20194234854407 187.40336416886578 L 155.20651733401542 187.40378949675505 L 155.20841901586812 187.40397510964345 L 155.2132629636626 187.40447172433895 L 155.21513434557684 187.40467279637966 L 155.22024751993112 187.40524881399224 L 155.22208983863905 187.40546596355128 L 155.22747093437843 187.40612982041978 L 155.22928542661228 187.4063636658633 L 155.23493141998867 187.40712402564458 L 155.23671932248058 187.40737518533868 L 155.24262533288717 187.40824082580284 L 155.24438788236935 187.40850991811354 L 155.2505470503199 187.40948959765754 L 155.2522854835245 187.409777240951 L 155.25868887052872 187.41087954568496 L 155.26040442418795 187.41118635832726 L 155.26704094106802 187.4124195317185 L 155.26873485191405 187.41274613207574 L 155.2755912211576 187.4141178901346 L 155.27726472592263 187.41446489657284 L 155.2843254839184 187.4159822328473 L 155.2859798193346 187.41635026373262 L 155.29322736315342 187.41801924946947 L 155.29486376595295 187.418408923168 L 155.30227844819763 187.4202345090354 L 155.30389815511268 187.4206464439132 L 155.31145842904868 187.42263227056375 L 155.3130626768115 187.42306708498694 L 155.32074529159152 187.4252153101315 L 155.32233531693421 187.42567362246618 L 155.33011556093925 187.4279847723036 L 155.33169260059404 187.4284672009158 L 155.33954458861447 187.43094005339947 L 155.3411098793135 187.43144721665533 L 155.3490068766323 187.4340787230756 L 155.3505616551078 187.43461123934122 L 155.35847643014856 187.43739648953198 L 155.36002193313269 187.4379549771734 L 155.36792712813616 187.4408872117143 L 155.3694645923611 187.4414722890977 L 155.37733310049708 187.44454295979597 L 155.37886376269503 187.44515524528734 L 155.38666909992452 187.44835412311758 L 155.38819419682764 187.44899423508306 L 155.39591085621151 187.45230956220055 L 155.39743162455198 187.45297811900625 L 155.4050354023656 187.45639679965427 L 155.40655307887562 187.45709441966625 L 155.41402136283688 187.46060224284088 L 155.41553718424862 187.46132954442524 L 155.42284919622378 187.46491142987708 L 155.42436439926945 187.4656690313999 L 155.43150138732688 187.46930928988405 L 155.43301720873862 187.47009780971146 L 155.43996258549623 187.47378040802133 L 155.44148026200625 187.47460046451937 L 155.4482196891628 187.47830928644413 L 155.4497404575033 187.47916149797894 L 155.45626187805038 187.48288059283618 L 155.4577869749535 187.48376557777382 L 155.4640805970808 187.48747938967904 L 155.46561125927872 187.4883977663856 L 155.47166949710993 187.49209133868442 L 155.47320696133488 187.493043725526 L 155.47902433881512 187.49670287646373 L 155.48056984179925 187.49768989180643 L 155.48614286668374 187.5013013591196 L 155.48769764515924 187.50232362132948 L 155.49302466020995 187.50587517493415 L 155.49458995090902 187.50693330237735 L 155.49967096910325 187.51041382557003 L 155.50124800875804 187.5115084366126 L 155.506084539132 187.51490797749412 L 155.50767456447468 187.5160396905022 L 155.51226943407752 187.51934948587274 L 155.51387368184032 187.52051891921235 L 155.51823085905514 187.5237313941874 L 155.51985056597022 187.52493916622467 L 155.52397498888374 187.52804791269227 L 155.5256113916833 187.5292946417933 L 155.5295088049755 187.53229437944822 L 155.5311631403917 187.5335806839791 L 155.5348399428928 187.53646720729324 L 155.53651344765782 187.53779370562003 L 155.5399765522548 187.5405638201546 L 155.54167046310084 187.54193113064343 L 155.5449271697958 187.54458258167753 L 155.54664272345505 187.54599132269448 L 155.54970060608454 187.54852271902402 L 155.55143903928916 187.54997350893518 L 155.55430584566707 187.5523842440973 L 155.55606839514923 187.55387770126876 L 155.55875196029663 187.55616787427294 L 155.56053986278854 187.55770461707078 L 155.56304803454475 187.5598749542654 L 155.5648625267786 187.56145560105574 L 155.56720310287665 187.56350738038586 L 155.5690454215846 187.56513254953472 L 155.57122609732068 187.56706752826722 L 155.5730974792349 187.56873783814078 L 155.57512580455548 187.5705581846414 L 155.5770274864082 187.57227425360574 L 155.57891083160706 187.5739824838467 L 155.58084405013042 187.57574493026783 L 155.58258957891059 187.57734384913954 L 155.58455557083678 187.57915329138365 L 155.58617021992166 187.5806459390589 L 155.58817022198286 187.58250299549204 L 155.58966068637454 187.58389259883072 L 155.59169593530297 187.58579788781896 L 155.59306865829353 187.5870878166381 L 155.59514039082134 187.58904195654753 L 155.59640155807773 187.59023568463243 L 155.5985110109371 187.5922392938292 L 155.5996665479218 187.59334036437951 L 155.60181495784494 187.59539406122965 L 155.60287053010893 187.59640605658342 L 155.60505913382798 187.59851045945305 L 155.60602014946085 187.5994369746033 L 155.60825018370804 187.6015927018585 L 155.60912179771236 187.60243732165907 L 155.61139449921984 187.60464499166594 L 155.6121816192351 187.60541127123585 L 155.61449822473503 187.6076715023605 L 155.61520551790403 187.60836295050171 L 155.61756726412864 187.6106763611102 L 155.61819916478308 187.6112964264018 L 155.62060728846456 187.61366363486022 L 155.6211680063808 187.61421569413662 L 155.6236237442513 187.6166373188111 L 155.62411727328765 187.61712466776765 L 155.62662186207936 187.61960132702424 L 155.62705198907315 187.62002717274513 L 155.62960666551822 187.6225594849499 L 155.62997697923808 187.62292694006112 L 155.63289688019336 187.62582760189773 L 155.6358161480925 187.62873268849572 L 155.63873906756416 187.63164562618545 L 155.64166976016415 187.63456973629883 L 155.64461219262628 187.63750823494232 L 155.6475701847941 187.64046423341938 L 155.65054741727525 187.64344073925403 L 155.65354731730605 187.64644053622382 L 155.65412433910546 187.6470719998705 L 155.65415109919104 187.64704533018855 L 155.66324180215992 187.65616684840097 L 155.66444417272626 187.65737741871487 L 155.67353363896297 187.66656015517034 L 155.67474785078022 187.66779107594786 L 155.68383484355255 187.67703503064635 L 155.68506077328684 187.67828651420578 L 155.6941440558626 187.68759168714732 L 155.69538157889963 187.68886395061463 L 155.70445991454667 187.6982303417992 L 155.70570890475855 187.69952360701737 L 155.7147810567447 187.70895121644497 L 155.71604138625122 187.71026570987578 L 155.72510611784426 187.71975453754644 L 155.72637765677794 187.72109049017448 L 155.7354337312457 187.73064053608817 L 155.7367163475178 187.73199818332364 L 155.74576252812813 187.74160944748036 L 155.74705608719583 187.74298902906057 L 155.7560911372165 187.7526615114603 L 155.75739550184545 187.75406327134417 L 155.7664181845443 187.76379697198695 L 155.76773321457767 187.7652211582532 L 155.7767422932225 187.77501607713904 L 155.77806784534232 187.7764629418735 L 155.78706208320096 187.78631907900237 L 155.7883980106983 187.78778887819124 L 155.79737617103856 187.79770623356313 L 155.79872232357584 187.79919922697448 L 155.80768316966555 187.8091778005894 L 155.80903939304267 187.81069425165495 L 155.81798168814964 187.82073404351294 L 155.81934782406506 187.8222742191999 L 155.8282703314571 187.8323752293009 L 155.82964621727533 187.8339393999868 L 155.83854770022026 187.84410162833083 L 155.83993316873284 187.84569006766606 L 155.84881239049852 187.85591351425313 L 155.8502072696882 187.85752649902204 L 155.8590629935424 187.86781116385217 L 155.86046710634153 187.86944897382182 L 155.86929809555207 187.87979485689496 L 155.8707112596094 187.8814577746678 L 155.8795162774441 187.89186487598403 L 155.88093830487983 187.89355318683008 L 155.88971611460653 187.90402150638928 L 155.89114681178128 187.90573549808843 L 155.89989617666777 187.9162650358907 L 155.90133534393382 187.9180049985459 L 155.91005502724795 187.9285957545912 L 155.91150245871773 187.93036198045473 L 155.92019122372727 187.94101395474308 L 155.92164670702687 187.94280673801615 L 155.93030331699967 187.95351993054751 L 155.93176663303672 187.9553395671885 L 155.94038985124058 187.96611397796292 L 155.94186077395847 187.96796076546886 L 155.95044936366122 187.9787963944863 L 155.95192765980593 187.98067063168 L 155.9604803842754 187.99156747894048 L 155.9619658131544 187.9934694657365 L 155.9704814356584 188.00442753124 L 155.97197374890857 188.00635756841055 L 155.98045103271488 188.01737685215713 L 155.98194997405923 188.01933524107096 L 155.99038768243574 188.03041574306056 L 155.9918929874618 188.03240278543686 L 156.00028988367626 188.04354450566947 L 156.00180127959538 188.04556050329276 L 156.01015612691563 188.05676344176842 L 156.0116733323374 188.05880869620833 L 156.0199848940313 188.07007285292704 L 156.0215076187398 188.07214766524504 L 156.0297746580751 188.08347304020677 L 156.0313026028031 188.08557771064304 L 156.03952388304762 188.0969643038478 L 156.041056739258 188.09909913150076 L 156.04923102367962 188.11054694294856 L 156.0507684733552 188.11271222544642 L 156.0588945252217 188.1242212551373 L 156.06043624064824 188.12641728828157 L 156.06851282322742 188.13798753621543 L 156.0700584667965 188.1402146136303 L 156.07808434335618 188.15184607980723 L 156.07963356735945 188.15410449255543 L 156.0876075011675 188.1657971769754 L 156.0891599476128 188.1680872131822 L 156.097080701937 188.17984111584516 L 156.09863600235653 188.18216306028634 L 156.1065023404647 188.1939781811924 L 156.10806011574113 188.19633231488297 L 156.11587080090106 188.208208654032 L 156.1174306611016 188.21059525379994 L 156.1251844565811 188.22253281119205 L 156.12674600079148 188.22495214922347 L 156.13444166985846 188.2369509248586 L 156.13600448604487 188.239403268256 L 156.14364079196704 188.2514632621342 L 156.1452044568263 188.25394887242544 L 156.15278016287155 188.26607008454664 L 156.1543442417157 188.26858921721518 L 156.16185811115184 188.28077164757943 L 156.16342215778835 188.28332455155348 L 156.17087295388313 188.29556820016077 L 156.17243651051442 188.29815511729794 L 156.17982299653573 188.31045998414825 L 156.18138559367978 188.31308114871732 L 156.18870653289542 188.32544723381068 L 156.19026768930897 188.32810287193894 L 156.19752184498677 188.34053017527532 L 156.19908106761616 188.3432205044017 L 156.2062672030239 188.35570902598113 L 156.20782398696508 188.3584342542827 L 156.2149408653706 188.3709839941052 L 156.21649469385335 188.37374431992174 L 156.22354107852445 188.38635527798724 L 156.2250914229119 188.38915088922718 L 156.23206607711643 188.40182306553572 L 156.23361239692767 188.4046541390754 L 156.24051408393345 188.417387533627 L 156.24205582688583 188.42025423469718 L 156.24888330996063 188.4330488474918 L 156.25041991203315 188.43595132905165 L 156.2571719544448 188.44880716008927 L 156.25870283996827 188.45174556219777 L 156.26537820498461 188.46466261147847 L 156.26690278675318 188.46763706065212 L 156.27350023764205 188.48061532817584 L 156.2750179170536 188.48362593674642 L 156.28153621708273 188.49666542251316 L 156.28304638429773 188.49971228796338 L 156.28948429673505 188.5128129919732 L 156.2909863308752 188.51589619629257 L 156.29734261898844 188.5290581185454 L 156.2988358883503 188.532177727556 L 156.30510931540732 188.54540086805184 L 156.3065931777157 188.5485569307529 L 156.31278250698432 188.5618412894918 L 156.31425630966876 188.5650338373898 L 156.3203603044168 188.57837941437174 L 156.32182338492288 188.58160846081879 L 156.3278408084181 188.59501525604375 L 156.32929249454665 188.59828079557087 L 156.33522211005692 188.6117488090389 L 156.33666172033986 188.61505081670245 L 156.342502291133 188.6285800484135 L 156.3439291352393 188.63191847914098 L 156.3496794245831 188.64550892909506 L 156.35109280375673 188.64888371703492 L 156.35675157491903 188.66253538523205 L 156.3581507824566 188.66594644312667 L 156.36371679870518 188.67965932956682 L 156.3651011204601 188.68310654811825 L 156.37057314506285 188.69688065280144 L 156.37194185999167 188.70036390006845 L 156.37731865621632 188.7141992229947 L 156.3786710369524 188.71771834378745 L 156.38395136806685 188.7316148849567 L 156.38528668153828 188.7351697002732 L 156.39046931081026 188.7491274596855 L 156.39178681888052 188.75271776613596 L 156.39687050957792 188.7667367437913 L 156.39816946973374 188.7703623130791 L 156.40315298512436 188.78444250897746 L 156.4044326511886 188.78810308737908 L 156.40931475454028 188.8022445015205 L 156.41057437742353 188.80593980940614 L 156.415353832004 188.82014244179058 L 156.41659266048617 188.82387217316483 L 156.42126822956334 188.83813602379232 L 156.4224855111129 188.8418998458813 L 156.42705595795456 188.85622491475183 L 156.42825093957362 188.8600224676081 L 156.43271502744756 188.87440875472166 L 156.43388695655102 188.8782396508759 L 156.43824344872507 188.8926871562325 L 156.43939157404836 188.8965509803819 L 156.44363923379035 188.91105970398152 L 156.44476280632554 188.91495601272106 L 156.4489003969033 188.92952595456373 L 156.44999867086108 188.93345427615924 L 156.4540249555424 188.94808543624495 L 156.45509718933806 188.95204527045044 L 156.4590109313908 188.96673764877917 L 156.46005638865668 188.97072846671387 L 156.46385635134857 188.98548206328564 L 156.46487430196015 188.98950330733723 L 156.4685592485591 189.00431812215206 L 156.46954896968973 189.008369205968 L 156.47311766346348 189.02324523902584 L 156.47407844064443 189.02732554751904 L 156.47752964486088 189.04226279881993 L 156.4784607730644 189.04637168826642 L 156.4817932509913 189.06137015781033 L 156.48269403571769 189.0655069559755 L 156.4859065506229 189.08056664376247 L 156.48677630900065 189.08473065010924 L 156.48986762415194 189.09985155613924 L 156.4968532211428 189.14399217340394 L 156.49986957171254 189.1885802243489 L 156.4988925789283 189.2332595052622 L 156.49788247791824 189.2484110204127 L 156.4968723769081 189.26356253556523 L 156.495862275898 189.27871405071664 L 156.4948521748879 189.29386556586758 L 156.4938420738778 189.30901708101968 L 156.4928319728677 189.3241685961713 L 156.49182187185758 189.3393201113227 L 156.4908117708475 189.35447162647364 L 156.4898016698374 189.36962314162574 L 156.48879156882728 189.38477465677735 L 156.48778146781723 189.39992617192786 L 156.4867713668071 189.41507768708038 L 156.48576126579698 189.4302292022318 L 156.4847511647869 189.44538071738273 L 156.4837410637768 189.46053223253483 L 156.48273096276668 189.47568374768645 L 156.48172086175657 189.49083526283786 L 156.4807107607465 189.5059867779888 L 156.47970065973638 189.5211382931409 L 156.47869055872627 189.5362898082925 L 156.47768045771622 189.55144132344302 L 156.47667035670608 189.56659283859554 L 156.47566025569597 189.58174435374696 L 156.4746501546859 189.5968958688979 L 156.47364005367578 189.61204738405 L 156.47262995266567 189.6271988992016 L 156.47161985165556 189.64235041435302 L 156.47060975064548 189.65750192950395 L 156.46959964963537 189.67265344465605 L 156.46858954862526 189.68780495980766 L 156.4675794476152 189.70295647495817 L 156.46656934660507 189.7181079901107 L 156.4645491445849 189.7484110204127 L 156.46353904357477 189.76356253556523 L 156.46252894256466 189.77871405071664 L 156.46151884155458 189.79386556586758 L 156.46050874054447 189.80901708101968 L 156.45949863953436 189.8241685961713 L 156.45848853852425 189.8393201113227 L 156.45747843751417 189.85447162647364 L 156.45646833650406 189.86962314162574 L 156.45545823549395 189.88477465677735 L 156.4544481344839 189.89992617192786 L 156.45343803347376 189.91507768708038 L 156.45242793246365 189.9302292022318 L 156.45141783145357 189.94538071738273 L 156.45040773044346 189.96053223253483 L 156.44939762943335 189.97568374768645 L 156.44838752842324 189.99083526283786 L 156.44737742741316 190.0059867779888 L 156.44636732640305 190.0211382931409 L 156.44535722539294 190.0362898082925 L 156.4443471243829 190.05144132344302 L 156.44333702337275 190.06659283859554 L 156.44232692236264 190.08174435374696 L 156.44131682135256 190.0968958688979 L 156.44030672034245 190.11204738405 L 156.43929661933234 190.1271988992016 L 156.43828651832223 190.14235041435302 L 156.43727641731215 190.15750192950395 L 156.43626631630204 190.17265344465605 L 156.43525621529193 190.18780495980766 L 156.43424611428188 190.20295647495817 L 156.43323601327174 190.2181079901107 L 156.43121581125158 190.2484110204127 L 156.43020571024144 190.26356253556523 L 156.42919560923133 190.27871405071664 L 156.42818550822125 190.29386556586758 L 156.42717540721114 190.30901708101968 L 156.42616530620103 190.3241685961713 L 156.42515520519092 190.3393201113227 L 156.42414510418084 190.35447162647364 L 156.42313500317073 190.36962314162574 L 156.42212490216062 190.38477465677735 L 156.42111480115057 190.39992617192786 L 156.42010470014043 190.41507768708038 L 156.41909459913032 190.4302292022318 L 156.41808449812024 190.44538071738273 L 156.41707439711013 190.46053223253483 L 156.41606429610002 190.47568374768645 L 156.4150541950899 190.49083526283786 L 156.41404409407983 190.5059867779888 L 156.41303399306972 190.5211382931409 L 156.4120238920596 190.5362898082925 L 156.41101379104956 190.55144132344302 L 156.41000369003942 190.56659283859554 L 156.4089935890293 190.58174435374696 L 156.40798348801923 190.5968958688979 L 156.40697338700912 190.61204738405 L 156.405963285999 190.6271988992016 L 156.4049531849889 190.64235041435302 L 156.40394308397882 190.65750192950395 L 156.4029329829687 190.67265344465605 L 156.4019228819586 190.68780495980766 L 156.40091278094854 190.70295647495817 L 156.3999026799384 190.71810799011055 L 156.39947389404819 190.72453977846396 L 156.39667545226592 190.8130204388738 L 156.3935319277226 190.90996835699175 L 156.39031328477787 191.00665400035223 L 156.38701323681892 191.10308254304468 L 156.38364458447566 191.19872512332148 L 156.38362548965569 191.19925915001218 L 156.38016470076485 191.29462037371746 L 156.38014374142557 191.29518897669035 L 156.37883479209918 191.33015874014603 L 156.4127816075778 191.29165127224678 L 156.41516614572362 191.28892655349253 L 156.4693467642752 191.2265622719669 L 156.4717130512181 191.2238185553183 L 156.5254131993168 191.1610950030937 L 156.52776109050657 191.15833237673002 L 156.58097891305405 191.09525202727073 L 156.58330826372745 191.0924705803971 L 156.63604190562546 191.0290359071675 L 156.63835257079054 191.02623573005536 L 156.6906001769408 190.96244920651984 L 156.69289201136073 190.95963039055084 L 156.74465172666498 190.89549449017375 L 156.74692458484412 190.8926571278835 L 156.7981945542041 190.82817432412918 L 156.80044829037442 190.82531850925358 L 156.85122665869181 190.76049127558642 L 156.85346112680193 190.75761710310766 L 156.90374603897848 190.69244791299204 L 156.90596109268367 190.68955547918625 L 156.95575069362113 190.6240468060865 L 156.95794618627497 190.62113620857215 L 157.00723862087503 190.55529052595267 L 157.00941440552245 190.5523618637404 L 157.05820781868684 190.48618164506556 L 157.06036374805933 190.48323501860804 L 157.10865628468977 190.41672273734216 L 157.1107922112013 190.41375824858622 L 157.15858201619957 190.3469163781937 L 157.1606977919462 190.34393413063052 L 157.20798301021398 190.27676514457568 L 157.21007848697218 190.27376524329597 L 157.25685726341118 190.20627161504325 L 157.2589322926411 190.20325416678872 L 157.3052027721531 190.13543836980242 L 157.30725720500163 190.13240348302068 L 157.3530175324883 190.06426799076522 L 157.35505121979477 190.0612157756645 L 157.40029954015787 189.99276306160417 L 157.40231233246138 189.9896936302087 L 157.44704679060263 189.92092616780795 L 157.44903853815188 189.9178396340129 L 157.493257278973 189.84875989673603 L 157.49522783173722 189.8456563763648 L 157.53892900013997 189.7762668376762 L 157.5408782078229 189.77314644853556 L 157.58405994870895 189.7034495818996 L 157.58598766076358 189.7003124438382 L 157.6286481190347 189.63031072271923 L 157.6305541846815 189.62715695768273 L 157.67269150523938 189.55685285554515 L 157.67457577348546 189.55368258763505 L 157.71618810123186 189.4830785779432 L 157.71805042089304 189.47989193347297 L 157.75913590072966 189.4089904896912 L 157.760976120454 189.4057875972446 L 157.80153289728258 189.33459119283728 L 157.8033508655767 189.3313721833248 L 157.84337708429896 189.25988329175632 L 157.84517264955628 189.25664829847298 L 157.88466645507395 189.1848693932077 L 157.88643946560498 189.18161855188976 L 157.9253990028198 189.10955210639202 L 157.9271493068849 189.1062855552739 L 157.9655727206986 189.0339340430081 L 157.96730016654294 189.03065192287852 L 158.0051856018572 188.95801781730898 L 158.00689003774758 188.95472027156796 L 158.04423563946418 188.8818060461591 L 158.04591691372917 188.8784932208715 L 158.0827208267498 188.8053013490876 L 158.08437878782038 188.80197339304053 L 158.12063915704678 188.72850634834606 L 158.12227365350117 188.72516341310111 L 158.15798862383505 188.65142366896038 L 158.15959950444437 188.64806590890868 L 158.19476722078747 188.57405593878607 L 158.19635433456452 188.57068351120012 L 158.23097294181858 188.49640578855997 L 158.23253613806838 188.49301885364574 L 158.2666037811351 188.41847585195245 L 158.26814290950804 188.4150745729005 L 158.30165773328918 188.3402687656184 L 158.3031726438362 188.33685330865336 L 158.33613279323345 188.26178716924684 L 158.33762333646354 188.2583577036763 L 158.37002695637864 188.18303370560972 L 158.3714929833187 188.17959040387126 L 158.40333821865337 188.104011020609 L 158.40477958091003 188.10055405831625 L 158.436064576566 188.02472176332265 L 158.43748112638963 188.02125131931055 L 158.46820402726863 187.94516858604996 L 158.46959561761992 187.94168484241712 L 158.4997545686237 187.86535414435394 L 158.50112105324217 187.8618572865036 L 158.5307141992724 187.7852810971022 L 158.5320554327465 187.78177131378365 L 158.56108091870493 187.70495210650836 L 158.56239675654496 187.70142958985357 L 158.59085272733336 187.62436983816878 L 158.5921430260464 187.62083478372838 L 158.62002762656644 187.54353696109845 L 158.6212922437326 187.53998956787677 L 158.64860361888603 187.46245614776606 L 158.64984241323728 187.45889661825237 L 158.6765787079258 187.38113007412522 L 158.6777915394264 187.37755861432422 L 158.7039508985518 187.29956141964504 L 158.70513762848097 187.29597823910356 L 158.73071819694493 187.2177528673367 L 158.73187868798095 187.21415817916963 L 158.7568786106852 187.13570710377945 L 158.75801272699104 187.13210112469292 L 158.78243014883728 187.05342681914382 L 158.78353775614863 187.04980976945504 L 158.80737082203865 186.97091470721134 L 158.8084517877532 186.96728681086572 L 158.83169864258866 186.8881734653918 L 158.83275283585655 186.88453494997972 L 158.85541162453922 186.80520579473992 L 158.85643891635556 186.80155689150754 L 158.87850778378714 186.72201439996627 L 158.87950804708572 186.71835534382552 L 158.90098513816795 186.63860198944712 L 158.90195824791613 186.6349330189823 L 158.92284170755073 186.55497127523117 L 158.92378754084564 186.55129263270257 L 158.94407551393437 186.471124973043 L 158.94499395010052 186.46743690438666 L 158.96468458154504 186.38706580228308 L 158.9655755022323 186.3833685571097 L 158.9846669369344 186.30279648602644 L 158.98553022621786 186.2990903176134 L 159.00402060907922 186.21831975101486 L 159.0048561535592 186.21460491629892 L 159.02274362948157 186.13363832764944 L 159.02355131838462 186.1299150872128 L 159.04083403226971 186.04875494997674 L 159.04161375755027 186.0450235680324 L 159.05828985429983 185.96367235567416 L 159.05904151074256 185.9599331000453 L 159.07510913525832 185.8783932860292 L 159.07583262058063 185.87464642812714 L 159.09128991776427 185.79292048591756 L 159.092896987555 185.78397951928412 L 159.11549435187254 185.65134988656297 L 159.11725465829699 185.64026866295805 L 159.13659323331356 185.50904519472815 L 159.13812206336007 185.4977856070506 L 159.15424884489855 185.367966448214 L 159.15553495532723 185.3565410446915 L 159.16849693921054 185.22812434014992 L 159.16952974145806 185.21654687890748 L 159.17937392350916 185.08953077356264 L 159.18014360748478 185.07781617272212 L 159.1869169835266 184.95219881147574 L 159.18741463836122 184.9403630811599 L 159.1911642042167 184.8161426089137 L 159.1913819333768 184.80420276522725 L 159.19215468486885 184.68137732688297 L 159.1920857130039 184.6693512884251 L 159.1899286459555 184.5479190288845 L 159.1895674148922 184.5358254968476 L 159.18452752512627 184.41578456101234 L 159.1838697765624 184.403642884422 L 159.17599405990185 184.28499141719385 L 159.17503690259005 184.272821445325 L 159.16437235485787 184.15555759160569 L 159.16311431439655 184.14337951603255 L 159.14970793141563 184.02750142072378 L 159.1481489811748 184.0153356098349 L 159.1320477587681 183.90084141783842 L 159.13018933095418 183.88870824691188 L 159.11144026494463 183.77559610312937 L 159.10928524133257 183.76351578324426 L 159.0879353275431 183.6517838325775 L 159.08548800995416 183.63977624169667 L 159.06158424420772 183.52942262904736 L 159.05885030536047 183.5175071485468 L 159.03243968348 183.4085300188167 L 159.02942609936875 183.3967253785732 L 159.00055561717718 183.28912287666398 L 158.9972705826108 183.27744701153273 L 158.96598723593107 183.17121728234616 L 158.96244006527667 183.15968720249683 L 158.92879084993172 183.05482839093463 L 158.92499186543532 183.04346006807194 L 158.88902377724807 182.9399703190358 L 158.8849841875389 182.92877859004471 L 158.8467442223323 182.8266560484364 L 158.84247599384975 182.8156545374696 L 158.80201114744673 182.71489734819085 L 158.79752687156386 182.70409840769778 L 158.75488413978735 182.60470471565029 L 158.75019689834355 182.5941193863421 L 158.7054232770165 182.4960873364276 L 158.7005465088265 182.4857253257034 L 158.65368899377188 182.38905306282362 L 158.64863636446245 182.37892274077387 L 158.59974195150315 182.28360840983052 L 158.5945272287544 182.27371682158014 L 158.54364291371337 182.17975856747495 L 158.53827984966966 182.17011146035262 L 158.48545262836984 182.07750742798734 L 158.4799548506501 182.06810929180537 L 158.4252317189144 181.9768576260817 L 158.41961263130796 181.96771174468043 L 158.36304058495935 181.8778105905001 L 158.35731327855711 181.86891910265066 L 158.29893931341854 181.78036660491543 L 158.2931164886122 181.77173057267964 L 158.2329876005066 181.68452487629122 L 158.22708149999562 181.67614435899105 L 158.1652446847459 181.59028360885114 L 158.15926703743642 181.58215774090218 L 158.09576929086552 181.49764008191252 L 158.08973126632642 181.48976715291306 L 158.0246195842573 181.4065907299754 L 158.0185317572179 181.398968265598 L 157.95185313547344 181.31713122361404 L 157.94572545970894 181.30975606602536 L 157.87752689411215 181.22925654989683 L 157.87136868495895 181.22212493660885 L 157.80169717133273 181.14296109123745 L 157.7955170960103 181.1360687314789 L 157.7244196301776 181.0582387017664 L 157.7182257050551 181.05158084963617 L 157.64574928283884 180.97508278048429 L 157.63954887677593 180.96865430431532 L 157.56574049399907 180.89348634062577 L 157.5595403369018 180.8872817881399 L 157.48444698938727 180.81344207481442 L 157.47825318515157 180.80745573378803 L 157.4019218687223 180.73494241572834 L 157.39573991177943 180.7291683700056 L 157.31821762225837 180.6579795921134 L 157.3120524169916 180.6524117729107 L 157.23338615020168 180.58254568008778 L 157.2272420325644 180.57717791262056 L 157.14747878432854 180.5086326497686 L 157.14135954505485 180.50345869530042 L 157.060546311196 180.43623240732114 L 157.05445522006298 180.43124600079597 L 156.9726389964041 180.3653368325911 L 156.96657882706714 180.36053171605138 L 156.88380660943113 180.29593781252268 L 156.8777796644163 180.29130776455017 L 156.7940984486261 180.22802727059934 L 156.7881065841208 180.22356613203536 L 156.70356336599937 180.1615971925641 L 156.69760801613785 180.15729888878246 L 156.61224979150813 180.09663964869256 L 156.60633199189826 180.0924982087041 L 156.52020575658315 180.03314681289723 L 156.5143261668624 180.02915638556394 L 156.42747891668486 179.97111097894185 L 156.4216378419362 179.96726584657677 L 156.33411657271918 179.91052457404118 L 156.3283139836096 179.90681916366205 L 156.24016569117603 179.8513801701147 L 156.23440124271147 179.84780906260875 L 156.1456729228843 179.79367049295135 L 156.13994597169588 179.79022843039573 L 156.050684620298 179.73738842953 L 156.0449942404012 179.7340703209024 L 155.95524685325557 179.68252703373008 L 155.9495918502337 179.67932795922647 L 155.85940542316328 179.6290795306493 L 155.85378434674357 179.62599474481453 L 155.7632058755713 179.5770393197342 L 155.75761703056932 179.57406425359662 L 155.6666935111181 179.52639997691492 L 155.6611349667352 179.52353023930527 L 155.56991339482798 179.47715525592386 L 155.56438299228344 179.47438663414303 L 155.47291036374318 179.42929908896363 L 155.46740572223237 179.4266275489581 L 155.37572903288196 179.3828255868825 L 155.37024755384488 179.3802472730742 L 155.2784137995073 179.33772903900407 L 155.27295266918586 179.3352402739123 L 155.18100884568403 179.2940039127494 L 155.175565035949 179.29160119654094 L 155.08355813910586 179.25164485318697 L 155.07812840651872 179.24932486328143 L 154.98610543215722 179.21064668263816 L 154.9806863152266 179.2084062734964 L 154.88869425916965 179.1710044004655 L 154.8832820737493 179.168840603687 L 154.79136793181985 179.1327131831702 L 154.78595876458326 179.13062320802868 L 154.69416953260426 179.09576838492777 L 154.68875923251318 179.09374961947836 L 154.59714190630754 179.060165538695 L 154.59172607397684 179.0582155515935 L 154.5003276493675 179.02590035802945 L 154.49490162420838 179.02401690121619 L 154.4037690970183 178.99296873977315 L 154.39832794201743 178.99114975218632 L 154.30750830806954 178.96136676776607 L 154.30204679204428 178.95961038027116 L 154.21158704716152 178.93109071777536 L 154.20609962429194 178.9293952595161 L 154.11604676429724 178.9021370638465 L 154.11052755071984 178.90050107025698 L 154.02092857143614 178.87450248631532 L 154.01537131863623 178.8729247090644 L 153.92627321588645 178.8481838817524 L 153.92067128059745 178.8466633009374 L 153.83212105020453 178.8231783751568 L 153.8264673604767 178.8217142141158 L 153.73851199826362 178.79948333476827 L 153.73279901531498 178.79807507794402 L 153.64548551710462 178.77709638993136 L 153.63970519252496 178.77574380429965 L 153.5530805541403 178.75601545252354 L 153.54722428194583 178.7547186131893 L 153.46133549920978 178.7362387425515 L 153.4553940622023 178.73499806323474 L 153.3702881309378 178.71776481863694 L 153.3642516407367 178.716581087904 L 153.27997555676671 178.7005926142479 L 153.27383338682392 178.69946703851485 L 153.19043414597135 178.68472148070228 L 153.1841748567937 178.68365573523823 L 153.1016994548815 178.67015123817083 L 153.09531071060576 178.66914752757665 L 153.0138061434569 178.65688223615618 L 153.00727461885333 178.65594336609533 L 152.92678788229068 178.64491542522347 L 152.92009915918467 178.64404488754647 L 152.8406772490312 178.63425244212502 L 152.83381570108406 178.63345451597647 L 152.7555056131627 178.62489571090708 L 152.74845427790103 178.62417558294658 L 152.67130300803473 178.61684856313104 L 152.66404344503368 178.6162124706645 L 152.5880979890454 178.6101153810045 L 152.58061012321318 178.6095707826284 L 152.5059174769258 178.60470176802568 L 152.49817942600788 178.60425754737255 L 152.42478658524436 178.60061475272883 L 152.37625217680412 178.60056427751547 L 152.32794152903153 178.605219668174 L 152.28030984250267 178.61453705991246 L 152.23380592037273 178.62842866086135 L 152.1888679395886 178.6467635792805 L 152.14591932222567 178.669369056869 L 152.10536474585018 178.69603209655685 L 152.0675863304995 178.72650146944147 L 152.0329400382073 178.76049008195798 L 152.00175231899942 178.79767768097972 L 151.97542866298298 178.83609167743623 L 151.90371449738217 178.81170006066424 L 151.89764832113252 178.80967999530952 L 151.8164003759115 178.78319991030477 L 151.81028826596858 178.7812511560727 L 151.72746905250963 178.7554296309552 L 151.72131369221702 178.75355387431594 L 151.63691640849314 178.728427392685 L 151.63072057059546 178.72662622670853 L 151.54473841457963 178.7022312721636 L 151.53850495540988 178.700506191098 L 151.4509311250751 178.67687924723842 L 151.44466297830726 178.67523164142472 L 151.35549067162654 178.6524091918499 L 151.349190841631 178.65084034301196 L 151.25841325657734 178.62885887132126 L 151.25208481140731 178.6273699482633 L 151.1596951459537 178.60626593805614 L 151.1533412100044 178.6048579928002 L 151.0593326621238 178.58466792767595 L 151.0529564084995 178.58334189206568 L 150.95732217616495 178.5641022556237 L 150.9509268188006 178.5628589384199 L 150.85366009998506 178.5446062142596 L 150.84724888556693 178.54344629874737 L 150.74834287824342 178.52621697046817 L 150.74191907797663 178.52514101259192 L 150.64136698011814 178.50897156379312 L 150.63493388138568 178.50797999083045 L 150.5327288909652 178.4929069051115 L 150.52628978893569 178.49200001489524 L 150.42242510392623 178.47805977585554 L 150.4159832931529 178.4772377365443 L 150.31045211152744 178.46446682778318 L 150.30401087759088 178.4637296781807 L 150.1968063973224 178.4521645832976 L 150.19036900856926 178.45151223371326 L 150.0814844276308 178.4411894363075 L 150.0750541270489 178.44062166994811 L 149.96448264341345 178.43157765361914 L 149.95806264069824 178.43109412849685 L 149.8457974523388 178.423365376844 L 149.8393909161865 178.422965628181 L 149.72542522107602 178.4165886248037 L 149.71903527175218 178.41627206791216 L 149.60336226786367 178.41128329640978 L 149.59699197008018 178.41104923001987 L 149.47960485538667 178.40748517399177 L 149.47325721152484 178.40733278399935 L 149.3541491839993 178.40522992704493 L 149.34782712771033 178.40515829064705 L 149.2269913853258 178.40455311636575 L 149.2206977755365 178.40456120654994 L 149.0981275162659 178.40549019854106 L 149.0918651316103 178.40557688889254 L 148.96755355342665 178.40807653075552 L 148.96132508712975 178.4082406005453 L 148.8352653880061 178.41234737587948 L 148.8290734432272 178.41258751539522 L 148.7012588211365 178.41833790780004 L 148.69510590679104 178.41865272388063 L 148.56552955970628 178.42608321695545 L 148.55941808676752 178.42647123869122 L 148.4280732126617 178.43561831603543 L 148.42200549094963 178.4360780005948 L 148.28888528779575 178.44697814580775 L 148.28286352325054 178.44750788435292 L 148.14796118902163 178.46019758103404 L 148.1419874814595 178.46079570468885 L 148.0052962141285 178.47531143643752 L 147.99937255547025 178.47597622227187 L 147.86088555301018 178.49235447268745 L 147.8550138259734 178.49308414968448 L 147.71472428635727 178.5113614023664 L 147.7089062635992 178.51215415734035 L 147.56680738479997 178.53236689588795 L 147.5610447284928 178.53322087932278 L 147.41712970848351 178.55540558733549 L 147.41142397030674 178.55631891911636 L 147.26568600706037 178.5805120801935 L 147.26003862858641 178.58148285520576 L 147.11247092007594 178.60772095294678 L 147.11250426785313 178.60790850675158 L 147.1079796334044 178.60854069127586 L 146.96232731386166 178.63581249099946 L 146.95879295120983 178.63648743391875 L 146.81874921211497 178.6637536683475 L 146.81501625125006 178.66449522521404 L 146.6804963764486 178.69175032905318 L 146.6765483156895 178.69256683070415 L 146.5474675890269 178.7198052386588 L 146.54328614446214 178.72070629969664 L 146.4195598497839 178.74792244647202 L 146.41512472560407 178.74891920125347 L 146.2966681467557 178.77610752155474 L 146.2919567731984 178.7772129104929 L 146.17868519402538 178.80436783902525 L 146.17367242868085 178.80559695733032 L 146.06550113302868 178.8327129287989 L 146.06015892106694 178.83408345300168 L 145.95700319278112 178.86115490211168 L 145.95130018174152 178.86268761383934 L 145.85307530466756 178.88970897529597 L 145.84697640998868 178.89142840706606 L 145.75359766797203 178.91839411557447 L 145.7470635867639 178.92032935015908 L 145.6584462636501 178.94723384042445 L 145.6514329368428 178.94941950400886 L 145.56749231647734 178.97625721073638 L 145.55995034420206 178.97873471111612 L 145.48060171043042 179.00550006901094 L 145.47247573357882 179.00831914392634 L 145.39763437024646 179.0350065876937 L 145.3888624445522 179.0382272455345 L 145.31844363550468 179.06483120987951 L 145.3089566461764 179.06852616559277 L 145.24287567525917 179.09504108522063 L 145.23259687476173 179.09929881785507 L 145.17076902582033 179.12571912747097 L 145.15961383166837 179.13064771047462 L 145.10195438854825 179.15696784478374 L 145.089830662 179.16269972105425 L 145.03625490854668 179.18891411476176 L 145.02306406308378 179.19561199491545 L 144.97348728314276 179.22171508272655 L 144.95912676241824 179.22957911590666 L 144.91346423983498 179.2555653325265 L 144.89783218054066 179.26484159436112 L 144.8559991991607 179.29070537449485 L 144.8390024739551 179.30169546518007 L 144.80091431762392 179.32743124353294 L 144.7824816341871 179.34050227069335 L 144.74805358675016 179.3661044819705 L 144.72815583378497 179.38169773386278 L 144.6973031790878 179.40716081276938 L 144.67598353939243 179.42579576544594 L 144.64862156128052 179.4511141466872 L 144.6260375367527 179.47338187781983 L 144.60208151907156 179.4985499961009 L 144.5785589312608 179.52508668448004 L 144.5579241578559 179.5500989745061 L 144.53401787727913 179.58152696643603 L 144.51661963199598 179.60637786291227 L 144.49316582027456 179.64320174021455 L 144.47891938695864 179.66788567784613 L 144.4570502034707 179.71033942257682 L 144.44587086596752 179.73485083606897 L 144.42695180829816 179.78271569281952 L 144.41875485045318 179.80704901687736 L 144.40421257637055 179.85949876216637 L 144.39891328202933 179.8836484314951 L 144.38996374186178 179.9392090463808 L 144.38747739486976 179.9631694956856 L 144.3848328465849 180.01986546440304 L 144.38507473078764 180.04363112838908 L 144.38875526170946 180.09930994595922 L 144.39164066095236 180.12287525933172 L 144.3935663851563 180.13374112615685 L 144.35925619032727 180.13105357935243 L 144.3578480777865 180.13094528131586 L 144.2661698425209 180.1240245280223 L 144.26473021963554 180.12391794127078 L 144.17204342927505 180.11719011819767 L 144.17057126388994 180.11708544261137 L 144.07691920406097 180.11056539054496 L 144.07541342020988 180.1104628413581 L 143.9808393765388 180.10416540108451 L 143.9792988522031 180.1040652100958 L 143.8838461103163 180.0980052224013 L 143.88226967505796 180.0979076392881 L 143.78598152058188 180.09209994495882 L 143.78436795303216 180.09200523870453 L 143.68728767159314 180.0864646785267 L 143.6856356967995 180.08637313897208 L 143.58780657402392 180.08111455373182 L 143.5861148606348 180.08102649326165 L 143.48758018214912 180.07606472374525 L 143.48584733943716 180.07598047912413 L 143.3866503908677 180.0713303661177 L 143.38487496557204 180.07125030048837 L 143.28505903254523 180.06692668477817 L 143.28323950552974 180.06685118983873 L 143.1828478736719 180.06286891221092 L 143.18098265638142 180.06279841058807 L 143.08005861131903 180.0591723118288 L 143.0781460420249 180.05910725966646 L 142.9767328693843 180.055852180562 L 142.97477120920803 180.0557930703469 L 142.87291219461562 180.05292385168337 L 142.8708996233105 180.05287121533067 L 142.76863805239267 180.0504026978943 L 142.76657266387895 180.05035711011968 L 142.66395182226208 180.04830413469662 L 142.66183161989161 180.04826621670404 L 142.55889479320211 180.04664362408053 L 142.5567176847458 180.04661404759702 L 142.45350815861002 180.0454366785592 L 142.45127195094474 180.045416170253 L 142.34783301098915 180.04469886558712 L 142.3455354044758 180.04468821190792 L 142.2419103363267 180.04444581240014 L 142.23954891885614 180.04444586488586 L 142.13578100813996 180.04469321132237 L 142.13335324883627 180.04470489242055 L 142.0294857811794 180.04545682558754 L 142.02698902374044 180.0454811350457 L 141.92306528476928 180.04675249572935 L 141.92049674043113 180.04679051761383 L 141.816560015772 180.04859614660037 L 141.81391675588083 180.0486490570107 L 141.71001033116022 180.05100379508627 L 141.7072892793375 180.05107287063905 L 141.6034564401817 180.05399155858987 L 141.6006543640722 180.05407818575387 L 141.4969383961077 180.05757566436614 L 141.49405189869876 180.0576813497408 L 141.39049608755187 180.06177245980066 L 141.38752159805594 180.06189884143888 L 141.2841692293531 180.0665984237326 L 141.2811029936554 180.06674728362088 L 141.177997353023 180.07207017893458 L 141.17483542369018 180.0722434567558 L 141.07201979675457 180.07820450587573 L 141.068758022621 180.07840431419305 L 140.9662756950086 180.08501835790534 L 140.96290971035165 180.0852469989216 L 140.8608039676888 180.0925288780125 L 140.85732918102872 180.0927888620755 L 140.75564330894187 180.10075341733113 L 140.75205489150176 180.10104748337343 L 140.65083217561727 180.10970955558005 L 140.64712504951103 180.1100406937012 L 140.54640877545532 180.11941512364496 L 140.54257760167494 180.119786600066 L 140.44241105507436 180.12988822853308 L 140.43845022138927 180.13030361317547 L 140.33887668787023 180.1411472809521 L 140.33478029677337 180.14161047791683 L 140.23584306196224 180.1532110257892 L 140.23160491883675 180.1537263070385 L 140.13334726835996 180.16609857579277 L 140.12896087008977 180.16667061836154 L 140.03142608957364 180.1798294487839 L 140.0268846138756 180.18046337587523 L 139.9301159889466 180.19442360875192 L 139.92541228476946 180.19512503509628 L 139.82945310105393 180.20990151121345 L 139.82457968046816 180.21067659309543 L 139.72947322359252 180.22628415323925 L 139.72442225569955 180.227139643616 L 139.63021181129014 180.24359312857268 L 139.624975118789 180.24453643772318 L 139.53170397247223 180.26185068827894 L 139.5262730316638 180.2628899504297 L 139.4339844690661 180.2810798073707 L 139.4283504142378 180.2822239537378 L 139.33708772098552 180.30130425785026 L 139.33124135431487 180.30256309651338 L 139.2410478160344 180.32254868858345 L 139.234979624372 180.32393299156138 L 139.1458985266897 180.34483871237526 L 139.13959870685105 180.34636031019087 L 139.0516733353934 180.36820100053478 L 139.04513182988785 180.36987288443606 L 138.95840547028118 180.39266338509617 L 138.9516120157535 180.39449981691993 L 138.86612795362421 180.41825496868242 L 138.86115168055207 180.41966559129446 L 138.7767625386483 180.4440596182903 L 138.77377941662087 180.4449319928273 L 138.6903097850949 180.46962345391302 L 138.68732112816224 180.47051768818577 L 138.6047722437462 180.49549792623608 L 138.601777773094 180.49641433319604 L 138.52015087252005 180.52167469108574 L 138.51715029196043 180.52261360186367 L 138.43644661196078 180.54814542246743 L 138.433439607212 180.5491071875209 L 138.35366038451878 180.5749018137134 L 138.350646622448 180.57588680404874 L 138.27179309379343 180.6019355787048 L 138.26877222162125 180.60294418717933 L 138.19084562373752 180.62923845317363 L 138.18781726819645 180.63027109588612 L 138.1108188378157 180.6568021960934 L 138.1077826042661 180.65785931386768 L 138.03171357812056 180.6846185911626 L 138.02866904961542 180.68570065113428 L 137.95353066443724 180.7126794483916 L 137.9504774007381 180.71378694570393 L 137.87627089325946 180.7409766057984 L 137.87320842979642 180.7421100654184 L 137.79993503674953 180.7695019312247 L 137.79686288352224 180.77066190988896 L 137.7245238416393 180.79824732428182 L 137.72144148205683 180.79943441258297 L 137.65003802806996 180.82720471843714 L 137.64694491772542 180.8284195430626 L 137.57647828836684 180.8563660832528 L 137.5733738537404 180.85760930939068 L 137.5038452857423 180.88572342679163 L 137.5007289228317 180.88699576071616 L 137.43213965292625 180.91526879820253 L 137.42901072579554 180.91657099005795 L 137.3613619907149 180.94499429050452 L 137.35821982996316 180.9463271373017 L 137.29151286643955 180.97489204358314 L 137.28835676757615 180.97625639243205 L 137.22259281234173 181.00495424742314 L 137.2194220340715 181.0063509990195 L 137.15460232385846 181.03517314559494 L 137.151416086263 181.03660325798742 L 137.08754185780353 181.06554103902192 L 137.084339340419 181.0670055316844 L 137.02141183044526 181.09605029005272 L 137.01819217022774 181.09755024829107 L 136.95621261547194 181.12669332686787 L 136.9529749046427 181.12822990659464 L 136.891944541837 181.1574626482547 L 136.88868782560624 181.15903708116474 L 136.82860789148285 181.18835082878275 L 136.8253311656386 181.18996442797246 L 136.76620289692968 181.21935052442313 L 136.76290510529097 181.22100469049474 L 136.7047297387287 181.2504544786528 L 136.701409770453 181.25215070635375 L 136.6441885427696 181.28165552909394 L 136.64084522950975 181.2833954145453 L 136.58457937743734 181.31294661474237 L 136.5812114903408 181.31473186331675 L 136.52590225061158 181.34432078384538 L 136.52250849715608 181.3461532187624 L 136.46815710650228 181.3757712024973 L 136.46473612716454 181.37765277421053 L 136.41134382231832 181.40729116402645 L 136.40789418706913 181.40922396048765 L 136.35546220476266 181.43887409925932 L 136.3519824093884 181.44086035715213 L 136.30051198635383 181.47051358775423 L 136.2970004485984 181.47255570480587 L 136.24649282156798 181.50220337011316 L 136.24294787710608 181.50430391859595 L 136.19340428281194 181.53393736148314 L 136.18982418104395 181.536099103047 L 136.1412458562183 181.56570966638884 L 136.1376287559095 181.5679355683642 L 136.09001693728453 181.59751459503534 L 136.08636090204965 181.59980784838095 L 136.0397168263575 181.62934668125618 L 136.0360198200192 181.6317107203337 L 135.9903447239921 181.66120070228772 L 135.98660460583417 181.66363922667855 L 135.94189972620427 181.69307170058607 L 135.9381142461588 181.69558869918677 L 135.8943808196583 181.72495500792255 L 135.89054761348038 181.7275547855849 L 135.84778687684147 181.7568462720236 L 135.8439034613277 181.7595334790472 L 135.80211665128255 181.7887414860636 L 135.79818041962918 181.79152115087476 L 135.75736877290998 181.82063702134357 L 135.75337699031104 181.8235145867511 L 135.71354174364996 181.852529663547 L 135.70949154327647 181.85551102700805 L 135.6706339334057 181.88441665300581 L 135.66652231294964 181.8875082113869 L 135.62864357660135 181.9162957294612 L 135.62446739559655 181.9195044288546 L 135.58756876950295 181.9481651818802 L 135.58332474771535 181.9514985730914 L 135.5474074686086 181.98002390394302 L 135.54309218584334 181.98349020435492 L 135.50815749045563 182.01187145590728 L 135.50376738822862 182.01547961850554 L 135.46981651329213 182.04370813363334 L 135.46534789891786 182.04746792408056 L 135.43238208116477 182.07553504565857 L 135.42783113495932 182.0794571284002 L 135.39585161112183 182.10735419930307 L 135.39121439757886 182.11145023381334 L 135.36022240438913 182.13916859691585 L 135.35549488841696 182.1434513452951 L 135.32549166260716 182.17098234347193 L 135.32066973216007 182.17546579074812 L 135.29165651046245 182.20280076687405 L 135.28673600724778 182.20750025546423 L 135.25871402639444 182.23463055241393 L 135.25369078672043 182.23956293233653 L 135.2266612834436 182.26647989298473 L 135.2215311918018 182.27166368948386 L 135.19549540283364 182.2983586567053 L 135.19025446140282 182.30381425703283 L 135.16521362347555 182.33027857370223 L 135.1598580415231 182.3360284347782 L 135.13581339136888 182.36225344377027 L 135.1303396994416 182.3683223223697 L 135.1072924737926 182.39429936655915 L 135.1016976687553 182.40071457341185 L 135.0796491043437 182.42643499567345 L 135.07393083270483 182.43322667442683 L 135.05288216626283 182.45868181763527 L 135.04703895490437 182.46588324886778 L 135.02699142316416 182.49106445589777 L 135.02102296860602 182.4987123851592 L 135.00197780829976 182.5236109988855 L 134.9958853379659 182.53174598593372 L 134.97784378582577 182.55635334923102 L 134.97163050749606 182.56502013293965 L 134.9545938002543 182.58932758868266 L 134.94826545890635 182.598575458235 L 134.93223483329504 182.62257434929847 L 134.9258003977659 182.63245750682768 L 134.9107770905173 182.65613917608633 L 134.90424959562873 182.66671706832506 L 134.890234843475 182.6900728586536 L 134.8836324159912 182.70141044484512 L 134.87062745566453 182.7244316991183 L 134.8639745540276 182.73659960857762 L 134.85198062226019 182.75927766967013 L 134.84530951923708 182.77235218430545 L 134.83432785276108 182.794678395092 L 134.8276803852079 182.80874116913924 L 134.8177122207555 182.8307068724946 L 134.81114181901995 182.84584427342512 L 134.80218839332335 182.86744081222398 L 134.7957623807428 182.8837427337704 L 134.78782493053413 182.90496145088747 L 134.7816270463217 182.92251941352274 L 134.77470680833318 182.94335165183278 L 134.76883984925487 182.9622559726425 L 134.76293806021872 182.98269307502022 L 134.7575264521308 183.00302886680626 L 134.75264434877917 183.0230621761264 L 134.74783634443554 183.04490393953947 L 134.74397516350058 183.0645247986767 L 134.7399442193921 183.08792942315682 L 134.73710519760604 183.1071291749859 L 134.73404992210166 183.1321272925897 L 134.73223429619665 183.15089727998534 L 134.73037621389463 183.17748315143186 L 134.72958522060287 183.19581471726877 L 134.7291635181625 183.22393519332493 L 134.72939839421616 183.24181968047785 L 134.73066088147775 183.27136326797472 L 134.73192286360901 183.28879201931838 L 134.7351126949458 183.3195796289683 L 134.7374030198869 183.33654398737744 L 134.74274134885073 183.3683234128108 L 134.74606125333378 183.38481472116007 L 134.75372693581502 183.4172610813971 L 134.75807765657223 183.43327068256127 L 134.76818622964092 183.46599471269684 L 134.77356900340448 183.48151394955065 L 134.7861541347964 183.51407898936543 L 134.79257019829845 183.52909920478356 L 134.80757120220758 183.56104607784016 L 134.81502179218037 183.57555861469734 L 134.83228028092407 183.60643568695463 L 134.84076663409974 183.6204318881256 L 134.86003385032288 183.64982606402629 L 134.86955720343363 183.66329727238576 L 134.89051140488178 183.69086114102473 L 134.90107299465976 183.70379869944745 L 134.92334413139264 183.72926977323573 L 134.93494519457008 183.7416650245964 L 134.9354099153056 183.74123007943425 L 134.95271078909352 183.75970849863182 L 134.96504492527217 183.7716167866956 L 134.9777128059678 183.78343024618727 L 134.9904674310885 183.79491804530898 L 135.0032371214798 183.80603367282686 L 135.0164041967834 183.8171090217657 L 135.0292085124031 183.82752327927597 L 135.04277999913037 183.8381942167911 L 135.0555557407565 183.84791172371374 L 135.0695236001483 183.85818628856435 L 135.08221242605205 183.86721885703764 L 135.09656861934917 183.87710508798295 L 135.10911765908932 183.88547066495022 L 135.12385414753257 183.8949766007494 L 135.13621636984882 183.90269817716137 L 135.15132511467903 183.91183185657357 L 135.16345947388558 183.91893639478985 L 135.17893243634353 183.92770585657433 L 135.19080382923374 183.9342232760659 L 135.2066329705603 183.94263655898177 L 135.21821203949753 183.9485988090759 L 135.23438932093345 183.95666395188238 L 135.2456521393368 183.96210418970227 L 135.26216952212295 183.96982923115857 L 135.27309719646624 183.9747811136204 L 135.2899466418434 183.98217409248568 L 135.30052486069283 183.98667118375934 L 135.31769832990182 183.9937401387928 L 135.32791688592093 183.99781542896648 L 135.34540634020254 184.00456839892726 L 135.35525864617333 184.00825392570226 L 135.3730560467684 184.01469894934962 L 135.38253866190493 184.01802551217884 L 135.40063597005428 184.02417062827192 L 135.40974814849895 184.02716758316197 L 135.42813732544337 184.03302083045998 L 135.4368805950802 184.0357159534206 L 135.45555360206052 184.0412853706827 L 135.46393137857257 184.04370477820538 L 135.4828801768296 184.0489984041908 L 135.49089741546854 184.05116652001482 L 135.5101139662431 184.05619239348266 L 135.51777685177245 184.05813195199303 L 135.53725311630532 184.06289811170257 L 135.54456879026424 184.06463018955486 L 135.5642967297963 184.06914467426526 L 135.5712730531434 184.07068874303593 L 135.59124462891538 184.07495959150634 L 135.59788997757195 184.0763335853703 L 135.61809715082475 184.08036883635992 L 135.6244202412346 184.08158922986303 L 135.64485497320894 184.08539692213108 L 135.65086471489997 184.08647881409271 L 135.67151896683674 184.09006698639837 L 135.67722433896384 184.09102418680908 L 135.69809007210384 184.0944008779115 L 135.70350002107529 184.09524599540606 L 135.7245691966593 184.09841924406447 L 135.72969255211075 184.09916377213787 L 135.7509571313796 184.1021416171114 L 135.75580253796878 184.10279601773286 L 135.7772544821633 184.10558649778076 L 135.78183034492315 184.10616028145824 L 135.80346161528416 184.10877143533966 L 135.8077760564614 184.10927323699391 L 135.82957861422966 184.11171310346808 L 135.83363943982954 184.11215075372905 L 135.85560524624591 184.1144273715551 L 135.85941992066185 184.11480796327544 L 135.88154093696713 184.11692937121256 L 135.88511656433468 184.11725932114274 L 135.90738475176968 184.11923355795017 L 135.91072806283898 184.11951866362148 L 135.93313538264454 184.12135376805836 L 135.93625272612906 184.12159925999663 L 135.95879113954595 184.12330327082213 L 135.96168847708395 184.12351386026845 L 135.98434994535302 184.1250948162418 L 135.98703284932364 184.12527473858893 L 136.00980933368567 184.1267406784693 L 136.01228298723262 184.12689373263987 L 136.03516644892846 184.1282526951865 L 136.0374356476777 184.12838227919144 L 136.06041804794813 184.12964230316342 L 136.0624872029382 184.12975144607293 L 136.08556050302406 184.1309205702295 L 136.08743364450348 184.13101196078838 L 136.11058980564556 184.13209822388873 L 136.11227058739289 184.13217423599266 L 136.13550157083202 184.13318567679596 L 136.13699327475487 184.13324839203375 L 136.16029104173185 184.13419304929917 L 136.16159658252047 184.13424427674957 L 136.18495309427612 184.13513018923635 L 136.18607502394119 184.13517148269068 L 136.20948224171633 184.13600668915797 L 136.2104227538502 184.13603936192087 L 136.23387263888563 184.13683190112783 L 136.23463357254693 184.1368570385316 L 136.25811808608347 184.13761494923747 L 136.2587009292049 184.1376334189852 L 136.2822120324834 184.1383647399491 L 136.3061475789748 184.1390899703644 L 136.32991748041493 184.1397991344979 L 136.3534533590861 184.1404987207409 L 136.37678093700498 184.1411977922151 L 136.399918778796 184.1419049597887 L 136.42285809166987 184.1426278301099 L 136.44558973673244 184.14337380734455 L 136.4681042269527 184.14415008713263 L 136.49039172433964 184.14496364855128 L 136.51244203662603 184.14582124401628 L 136.51291123452745 184.1458407875224 L 136.4966052439498 184.1606415160366 L 136.4624425280942 184.19139713258133 L 136.42731907461663 184.2227916925208 L 136.39128467272323 184.2548011523463 L 136.35438789478133 184.28740324926267 L 136.31667622834675 184.320577257683 L 136.27819619094103 184.35430378739508 L 136.23899343010763 184.388564615551 L 136.19911281062966 184.42334254651016 L 136.15859849052194 184.45862129478897 L 136.11749398714858 184.49438538735276 L 136.07588637110572 184.53058168596138 L 136.03378662418152 184.56722340325823 L 135.99122259693542 184.60430921248303 L 135.94823596774984 184.6418259294679 L 135.94781443541504 184.6421942412915 L 135.90486798282672 184.67976090888573 L 135.90433968223627 184.68022368604895 L 135.86115948726544 184.71810201015316 L 135.86052593243517 184.71865872030617 L 135.81715095214557 184.75683757033076 L 135.81641330666136 184.75748813787425 L 135.7728824981168 184.79595638322954 L 135.77204159566494 184.79670117400596 L 135.7283939159291 184.83544768410235 L 135.72745027815864 184.83628749517254 L 135.6837246842953 184.87530113942034 L 135.68267853635732 184.8762371935457 L 135.63891398543024 184.9155068413553 L 135.6377652695126 184.9165407858983 L 135.59400071858553 184.95605530668 L 135.59274910573023 184.95718921672548 L 135.5490235118669 184.99693747988974 L 135.5476684123476 184.9981738654581 L 135.5040207326118 185.03814474041522 L 135.50256130513316 185.03948655771293 L 135.45903049658855 185.07966891387323 L 135.45746565656833 185.08111958058427 L 135.41409067627876 185.12150228735817 L 135.4124191034844 185.12306570203302 L 135.36923890851358 185.16363762883086 L 135.36745905432264 185.1653181944976 L 135.3245126017343 185.20606821072968 L 135.32262269632602 185.20787086288664 L 135.27994894318394 185.2487878379634 L 135.27794700298955 185.25071807717393 L 135.23558490635747 185.2917908805057 L 135.2334687421386 185.2938548098619 L 135.1914572590803 185.33507231085903 L 135.18922448506248 185.33727667862397 L 135.1476025726417 185.3786277466968 L 135.1452506171919 185.38097999448553 L 135.10405723247231 185.42245349904442 L 135.10158335089915 185.42496181594007 L 135.0608574509446 185.4665466263954 L 135.0582587411011 185.46922000943547 L 135.0180392829753 185.51090499519762 L 135.0153127044664 185.513753316702 L 134.9756386452331 185.55552734718125 L 134.9727810431911 185.55856142940567 L 134.93369133991408 185.60041337401245 L 134.93069947448964 185.6036450716188 L 134.89223308423263 185.64556379976344 L 134.8891036671602 185.64900609059623 L 134.85129954698695 185.69098047168907 L 134.84802928686625 185.69464755628593 L 134.81092639384048 185.73666645973734 L 134.80751205207525 185.74057386993536 L 134.77114934326076 185.7826261651557 L 134.76758780297817 185.78679088200678 L 134.7320042354387 185.8288654384064 L 134.7282925861382 185.83330601941375 L 134.69352711693745 185.87539170640304 L 134.6896627581302 185.88012842177224 L 134.655754344332 185.9222141087615 L 134.65173511200618 185.9272690859223 L 134.6187227106742 185.96934364232192 L 134.6145470310707 185.97474101736734 L 134.58246959926876 186.01679331258768 L 134.5781366751814 186.02255938642958 L 134.54703316997322 186.06457828988098 L 134.54254320555498 186.07074168580704 L 134.5124525840043 186.11271606689988 L 134.50780705487162 186.11930788471255 L 134.4787682740422 186.16122661285718 L 134.47397025023716 186.16828057283442 L 134.44602226719275 186.2101325174412 L 134.44107679723692 186.21768508483132 L 134.4142585690413 186.2594591153106 L 134.40917313374098 186.26754959288039 L 134.38352361745785 186.3092345786425 L 134.37830866212565 186.3179051508017 L 134.3538668148188 186.35948996125703 L 134.34853636789492 186.36878566837538 L 134.32534114662806 186.4102591729343 L 134.319913530927 186.42022778862975 L 134.29800389276394 186.46157885670257 L 134.29250253227403 186.47227063409449 L 134.27191743427846 186.5134881350916 L 134.26637175394964 186.52495538052355 L 134.24715015318534 186.5660281838553 L 134.24159656071828 186.5783246088048 L 134.22377741424899 186.61924158388155 L 134.21826034067348 186.6324213785609 L 134.20188260556296 186.67317139479303 L 134.1964555645515 186.68728796162887 L 134.18155819786352 186.72785988842668 L 134.17628480160286 186.74296417229291 L 134.1629067604011 186.7833468790668 L 134.157861602354 186.79948523667716 L 134.14604184370228 186.8396675928375 L 134.14131112662565 186.8568791597948 L 134.1310886075877 186.8968500347519 L 134.12677036128207 186.91516357967834 L 134.11818403892164 186.95491184284256 L 134.11438774128686 186.97434214791042 L 134.1074765726677 187.01385666869217 L 134.10803310928415 187.01395400805814 L 134.1044997714293 187.0330707576142 Z" id="element_88" /></svg>