<?xml version='1.0' encoding='utf-8'?>
<svg xmlns:svg="http://www.w3.org/2000/svg" version="1.1" id="Layer_1" x="0px" y="0px" viewBox="0 0 500 500" style="width: 180px;" xml:space="preserve" data-imageid="target-39" imageName="Target" class="illustrations_image"><svg:style type="text/css">
	.st0_target-39{fill:#859910;}
	.st1_target-39{fill:url(#SVGID_1_);}
	.st2_target-39{fill:url(#SVGID_00000182528646513734966490000015246035153752177316_);}
	.st3_target-39{fill:url(#SVGID_00000181063587698934893340000001143633095868693128_);}
	.st4_target-39{fill:url(#SVGID_00000164476054822258170660000002706162062178472589_);}
	.st5_target-39{fill:#A0421D;}
	.st6_target-39{opacity:0.5;fill:#FFB288;enable-background:new    ;}
	.st7_target-39{fill:#0F2741;}
	.st8_target-39{fill:#68E1FD;}
	.st9_target-39{fill:#E6E6E6;}
	.st10_target-39{fill:#FFB288;}
	.st11_target-39{fill:#7C7C7C;}
	.st12_target-39{fill:#CEC300;}
	.st13_target-39{fill:#CFE217;}
	.st14_target-39{fill:#9ABC0C;}
	.st15_target-39{opacity:0.44;fill:#0F2741;enable-background:new    ;}
	.st16_target-39{opacity:0.27;}
</svg:style><svg:path class="st11_target-39" d="M 350.6 239.9 L 350.6022749430777 239.9476420792124 L 350.60907907084675 239.99485062635154 L 350.62035046729363 240.04119605438734 L 350.6359865652771 240.08625663047707 L 350.65584507986574 240.12962231363807 L 350.67974530309823 240.1708984860275 L 350.7074697483851 240.20970954387477 L 350.7387661295867 240.2457023153903 L 350.77334965676 240.27854927454848 L 350.810905627682 240.3079515214999 L 350.8510922915684 240.3336415024918 L 350.893543958928 240.35538544454656 L 350.9378743292535 240.3729854827423 L 350.98368000626846 240.38628146073884 L 351.0305441687416 240.3951523881637 L 351.0780403634649 240.39951754159713 L 351.1257363858806 240.39933719913682 L 351.18631194042615 240.39621506874195 L 351.1878486776846 240.39613349226175 L 351.24836363235323 240.3928277071378 L 351.2499023795969 240.39274127035412 L 351.31035735275464 240.38925183050105 L 351.31189802340543 240.3891605175626 L 351.37229363341845 240.38548742298042 L 351.3738361403044 240.38539121896596 L 351.4341730055387 240.38153446965467 L 351.4357172609142 240.38143336058351 L 351.49599599973595 240.3773929565431 L 351.4975419153033 240.37728692938526 L 351.55776314607857 240.37306287061574 L 351.5593106330094 240.37295191330136 L 351.6194749741042 240.36854419980276 L 351.621023943062 240.3684283012316 L 351.68113201284257 240.36383693300388 L 351.68268237400446 240.36371608305402 L 351.74273479083683 240.35894106009715 L 351.74428645391555 240.35881524963358 L 351.8042838361657 240.35385657194763 L 351.8058367104344 240.3537257928299 L 351.8657796764686 240.34858346041483 L 351.86733367078244 240.3484477055049 L 351.92722283896666 240.34312171836075 L 351.92877786178764 240.3429809815298 L 351.98861385048804 240.3374713396565 L 351.9901698099072 240.33732561579188 L 352.04995323748983 240.33163231918948 L 352.05151004125275 240.3314816042005 L 352.1112415260837 240.325604652869 L 352.11279908161487 240.3254489436928 L 352.17247924206026 240.3193883376322 L 352.17403745648664 240.31922763223895 L 352.2336669109126 240.31298337144923 L 352.23522569108917 240.31281766884678 L 352.29480505786165 240.30638975332795 L 352.2963643103959 240.30621905356608 L 352.35589420788114 240.29960748331814 L 352.3574538391588 240.2994317874923 L 352.41693488572275 240.29263656251527 L 352.4184948019333 240.2924558727696 L 352.47792761594224 240.28547699306344 L 352.4794877231028 240.28529131259393 L 352.5388729229226 240.27812877815867 L 352.540433126906 240.27793811121487 L 352.5997713309029 240.2705919220505 L 352.60133153746153 240.2703962739375 L 352.6606233640016 240.26286643004403 L 352.6621834787941 240.2626658071235 L 352.7214295462434 240.25495230850092 L 352.7229894748606 240.2547467181919 L 352.78219040158524 240.2468495648402 L 352.78375004957593 240.2466390156191 L 352.84290645394196 240.2385582075383 L 352.8444657268389 240.23834270893863 L 352.9035782272125 240.23007824612873 L 352.9051370305596 240.22985780874 L 352.96420624530685 240.221409691201 L 352.9657644846842 240.22118432666744 L 353.0247910321711 240.21255255439928 L 353.02634861322025 240.212322275418 L 353.08533311181293 240.20350684842074 L 353.086889940266 240.2032716687389 L 353.1458330083306 240.19427258701253 L 353.1473889900335 240.19403252142462 L 353.2062912459361 240.18484978496917 L 353.20784628687665 240.1846048493133 L 353.2667083489833 240.17523845812872 L 353.26826235531496 240.17498866928284 L 353.32708484199173 240.16543862336917 L 353.3286377200624 240.16518399924618 L 353.3874212496754 240.15545029860337 L 353.38897290605024 240.15519085814637 L 353.4477180969656 240.14527350277447 L 353.44926843845565 240.1450092659508 L 353.50797590903943 240.13490825584978 L 353.5095248427248 240.13463924364535 L 353.5681952113431 240.12435457881523 L 353.5697426445996 240.12408081322764 L 353.6283765296186 240.11361249366843 L 353.62992237014385 240.1133339976998 L 353.68852038992947 240.10268202341146 L 353.69006454576487 240.10239882106143 L 353.7486273186833 240.091563192044 L 353.75016969824327 240.0912753083008 L 353.80869784266065 240.08025602455422 L 353.8102383547534 240.07996348538688 L 353.86873248903566 240.06876054691122 L 353.87027104289024 240.0684633792601 L 353.9287317854036 240.05707678605532 L 353.9302682906929 240.05677501782284 L 353.9886962598035 240.04520476988895 L 353.9902306266685 240.04489842992956 L 354.0486264407423 240.0331445272666 L 354.0501585798162 240.0328336453763 L 354.1085228572193 240.02089608798417 L 354.1100526796495 240.0205806948901 L 354.1683860387481 240.0084594827689 L 354.1699134562214 240.00813961011738 L 354.2282165153816 239.99583474326707 L 354.22974144014563 239.99551042361242 L 354.28801481773337 239.98302190203296 L 354.28953716261833 239.98269316882545 L 354.3477814769997 239.9700209925169 L 354.3493011554425 239.96968788008982 L 354.40751702498375 239.9568320490522 L 354.4090339510489 239.9564945926091 L 354.4672219941161 239.94345510684232 L 354.46873608251593 239.94311334244404 L 354.526896917475 239.92989020194815 L 354.5284080835918 239.92954416649883 L 354.586542328809 239.91613737127386 L 354.5880504887165 239.91578710250675 L 354.64615876255783 239.90219665255268 L 354.6476638330392 239.90184218901626 L 354.7057467538708 239.88806808433307 L 354.7072486524404 239.88770946537593 L 354.76530683862836 239.87375170596363 L 354.76680548355 239.87338897171958 L 354.8248395534604 239.85924755757816 L 354.82633486376653 239.85888074895084 L 354.8843454357655 239.8445556800803 L 354.8858373312764 239.84418483872741 L 354.9438250237299 239.8296761151278 L 354.94531342507105 239.8293012834452 L 355.00327885634533 239.81460890511644 L 355.0047636849642 239.81423012622218 L 355.0627074734253 239.79935409316434 L 355.06418865161083 239.7989714108815 L 355.1221114156248 239.78391172309455 L 355.1235888665213 239.7835251819352 L 355.1814912244543 239.76828183941913 L 355.18296487208016 239.76789148456677 L 355.24084744229816 239.7524644873216 L 355.2423172115586 239.7520703646144 L 355.3001806124278 239.73645971264014 L 355.30164642913394 239.7360618685529 L 355.3594912790204 239.72026756184948 L 355.3609530698992 239.7198660434768 L 355.41877998716905 239.7038880820443 L 355.4202376798822 239.70348293708184 L 355.47804728290146 239.68732132092023 L 355.47950080605546 239.6869125976474 L 355.53729371319025 239.67056732675667 L 355.5387429963513 239.67015507401817 L 355.59651982596773 239.65362614839833 L 355.597964799674 239.65321041558585 L 355.65572617013817 239.6364978352369 L 355.6571667659117 239.63607867227074 L 355.71491329558967 239.61918243719268 L 355.7163494459479 239.61875989450326 L 355.7740817532058 239.6016800046961 L 355.77551339167377 239.60125413320483 L 355.83323209487764 239.58399058866854 L 355.83465915599584 239.58356143976988 L 355.8923648735118 239.5661142405045 L 355.89378729284937 239.56568186604628 L 355.95148064304345 239.5480510120518 L 355.9528983572051 239.54761546431692 L 356.0105799584435 239.52980095559332 L 356.01199290507986 239.52936228728038 L 356.06966337572857 239.5113641238277 L 356.07107149354425 239.5109223880322 L 356.12873145196943 239.49274056985038 L 356.13013468073007 239.49229582004585 L 356.1877847452978 239.4739303471349 L 356.18918302583836 239.47348263715358 L 356.24682381491476 239.45493350951355 L 356.2482170891469 239.4544828935271 L 356.30584922109796 239.43575011115797 L 356.30723743201384 239.43529664365937 L 356.36486152520575 239.41638020656112 L 356.3662446168868 239.4159239423446 L 356.42386128968553 239.39682385051722 L 356.425239207305 239.39636484466013 L 356.4828490780768 239.37708109810364 L 356.48422176790643 239.37661940594694 L 356.5418254550173 239.35715200466137 L 356.54319286443115 239.35668768179082 L 356.6007909862472 239.3370366257761 L 356.60215306372345 239.33656972800426 L 356.6597462386108 239.31673501726047 L 356.6611029337383 239.31626560060658 L 356.71869178006295 239.29624723513368 L 356.72004304354044 239.29577535580648 L 356.77762817966857 239.27557333560446 L 356.7789739633091 239.2750990499828 L 356.8365560076068 239.25471337505167 L 356.83789626433895 239.25423673966625 L 356.89547583517225 239.233667410006 L 356.89681051904006 239.23318848152155 L 356.95438823477514 239.21243549713222 L 356.95571730094167 239.21195433232845 L 357.01329377994455 239.19101769320997 L 357.01461718468823 239.19053434896483 L 357.072193045325 239.16941405511727 L 357.07199690134485 239.1688793486143 L 357.0985050609818 239.1589071156178 L 357.1419628874326 239.13755452357998 L 357.18315157056867 239.11209851745005 L 357.22168484030533 239.08277782526912 L 357.2572013291935 239.04986741834935 L 357.2893679613463 239.0136759325755 L 357.31788307604575 238.9745427739981 L 357.3424792567366 238.93283493586196 L 357.3629258388753 238.88894355692014 L 357.37903107311683 238.84328025330998 L 357.3906439235524 238.79627325839084 L 357.39765548413345 238.74836340674437 L 357.40000000000003 238.70000000000002 L 357.40000000000003 180.4787005945632 L 357.28388014833035 180.48570999789175 L 357.28187960931194 180.48582673438125 L 357.0727100646664 180.49761176147084 L 357.0708104922194 180.49771516234392 L 356.85875874322244 180.508853378502 L 356.85695275859473 180.50894496505492 L 356.64215175395594 180.5194487376034 L 356.64043267314497 180.5195298353277 L 356.423015361574 180.52941153158832 L 356.4213771162591 180.52948329866237 L 356.20147644646556 180.53875528595702 L 356.1999135153854 180.5388187371079 L 355.9776624360789 180.54749338275835 L 355.9761697852999 180.54754940932347 L 355.7517012451901 180.5556390806516 L 355.75027427596063 180.55568846750725 L 355.52372122375715 180.56320553183485 L 355.5223557268599 180.56324897173124 L 355.2938511112723 180.57020579638012 L 355.2925432269565 180.57024390212075 L 355.0622199966945 180.5766528544128 L 355.0609661794145 180.57668616923658 L 354.82895728318766 180.58255961649354 L 354.82775427049614 180.5825886229515 L 354.5941926570141 180.58793893249526 L 354.59303744205073 180.58796406006334 L 354.35805606002316 180.59280359921573 L 354.3569458671296 180.59282523084178 L 354.120677665266 180.59716636692457 L 354.11960992832223 180.59718484467467 L 353.8821878553324 180.60103994500972 L 353.881160198468 180.60105557495024 L 353.6427172030614 180.60443700685937 L 353.64172742344715 180.60445006328942 L 353.40239645433354 180.60737019409447 L 353.4014425067962 180.60738092322345 L 353.1613565126851 180.60985212024622 L 353.16043649592643 180.6098607433976 L 352.9197284255275 180.61189537395992 L 352.9188405697561 180.61190209036786 L 352.67764337177897 180.6135125217916 L 352.6767860275898 180.61351751104817 L 352.4352326507441 180.61471611065508 L 352.4344042791025 180.6147195348557 L 352.1926276720979 180.61551866996768 L 352.1918268353016 180.6155206755963 L 351.94995994684757 180.6159327135351 L 351.9491853003599 180.6159334331235 L 351.7073610791662 180.61597074121102 L 351.70661136422166 180.61597029480262 L 351.4649627589979 180.61564524036064 L 351.4642367958989 180.61564373680375 L 351.2228967553547 180.61496868715412 L 351.2221934373842 180.61496622524677 L 350.98129491022917 180.61395354771128 L 350.98061319811563 180.61395021721637 L 350.7402891330594 180.6126122791169 L 350.7396280499348 180.61260816166387 L 350.6 180.61164619864115 L 350.6 239.9 Z" id="element_118" /></svg>